<?xml version="1.0"?>
<?metis version="5.2.1"?>
<?metisxml version="1.2"?>
<!DOCTYPE svg  PUBLIC "-//W3C//DTD SVG 1.0//EN"
 "http://www.w3.org/TR/2001/REC-SVG-20010904/DTD/svg10.dtd">

<svg>
 <title>Symbol library: ka_seat.svg</title>
 <defs>
  <symbol id="_002as9p025neqrlll3tb" xml:space="preserve" class="METIS_SYMBOL">
   <title>Seat - top view</title>
    <rect x="0" y="120" width="400" height="416" rx="10" ry="10"
     style=" stroke:#000000; stroke-width:1; fill:#ffffff; fill-opacity:100%"     class="TAG:seat"></rect>
    <rect x="80" y="184" width="16" height="304" rx="10" ry="10"
     style=" stroke:#000000; stroke-width:1; fill:#ffffff; fill-opacity:100%"></rect>
    <rect x="304" y="184" width="16" height="304" rx="10" ry="10"
     style=" stroke:#000000; stroke-width:1; fill:#ffffff; fill-opacity:100%"></rect>
    <g>
      <desc>METIS_TEXT_GROUP</desc>
      <text  x="24" y="143"
       style=" stroke:#000000; stroke-width:1; font-family:sans-serif; font-size:16;"
       class="TAG:text">text</text>
      <rect x="24" y="128" width="352" height="48"
       style=" stroke:#000000; stroke-width:1; fill:#ffffff; fill-opacity:0%"></rect>
    </g>
    <rect x="24" y="16" width="352" height="104" rx="10" ry="10"
     style=" stroke:#000000; stroke-width:1; fill:#ffffff; fill-opacity:100%"></rect>
    <rect x="120" y="0" width="160" height="40" rx="10" ry="10"
     style=" stroke:#000000; stroke-width:1; fill:#ffffff; fill-opacity:100%"></rect>
    <rect x="104" y="56" width="16" height="24" rx="10" ry="10"
     style=" stroke:#000000; stroke-width:1; fill:#ffffff; fill-opacity:100%"></rect>
    <rect x="280" y="56" width="16" height="24" rx="10" ry="10"
     style=" stroke:#000000; stroke-width:1; fill:#ffffff; fill-opacity:100%"></rect>
  </symbol>
  <symbol id="_002as9p025pgngme4sht" xml:space="preserve" class="METIS_SYMBOL">
   <title>Seat - front view</title>
    <path d="M 0 9.21316 C 0 8.13952 1.59596 0 
     4 1.21316 C 5.8093 2.12619 13.0992 0.574722 16 2.89394 
     C 25.0906 10.1621 34.1734 25.2132 50 25.2132 C 77.587 25.2132 
     322.413 25.2132 350 25.2132 C 366.555 25.2132 375.371 9.88208 
     384 2.71918 C 387.004 0.225199 394.343 1.92728 396 1.21316 
     C 397.514 0.560608 400 8.3704 400 9.21316 C 400 13.6271 
     400 80.7992 400 85.2132 C 400 89.6271 377.587 89.2132 
     350 89.2132 C 322.413 89.2132 77.587 89.2132 50 89.2132 
     C 22.413 89.2132 0 89.2132 0 85.2132 Z"
     style=" stroke:#000000; stroke-width:2; fill:#ffffff; fill-opacity:100%"></path>
    <path d="M 64 28.2132 C 64 24.2132 60.8965 25.2132 
     62 25.2132 C 63.1035 25.2132 80.8965 25.2132 82 25.2132 
     C 83.1035 25.2132 80 24.2132 80 28.2132 C 80 30.4201 
     79 51.0062 79 53.2132 C 79 55.4201 78.1035 57.2132 
     77 57.2132 C 75.8965 57.2132 68.1035 57.2132 67 57.2132 
     C 65.8965 57.2132 65 55.4201 65 53.2132 Z"
     style=" stroke:#000000; stroke-width:2; fill:#ffffff; fill-opacity:100%"></path>
    <path d="M 319.103 28.2132 C 319.103 24.2132 316 25.2132 
     317.103 25.2132 C 318.207 25.2132 336 25.2132 337.103 25.2132 
     C 338.207 25.2132 335.103 24.2132 335.103 28.2132 C 335.103 30.4201 
     334.103 51.0062 334.103 53.2132 C 334.103 55.4201 333.207 57.2132 
     332.103 57.2132 C 331 57.2132 323.207 57.2132 322.103 57.2132 
     C 321 57.2132 320.103 55.4201 320.103 53.2132 Z"
     style=" stroke:#000000; stroke-width:2; fill:#ffffff; fill-opacity:100%"></path>
  </symbol>
  <symbol id="_002as9p0266o4b0rogo3" xml:space="preserve" class="METIS_SYMBOL">
   <title>Seat - side view</title>
    <rect x="0" y="0" width="416" height="112" rx="10" ry="10"
     style=" stroke:#000000; stroke-width:2; fill:#ffffff; fill-opacity:100%"></rect>
  </symbol>
 </defs>
 <use xlink:href="#_002as9p025neqrlll3tb"/>
</svg>
