<?xml version="1.0"?>
<?metis version="5.1"?>
<?metisxml version="1.2"?>
<!DOCTYPE svg  PUBLIC "-//W3C//DTD SVG 1.0//EN"
 "http://www.w3.org/TR/2001/REC-SVG-20010904/DTD/svg10.dtd">

<svg>
 <title>Symbol library: businessquestion.svg</title>
 <defs>
  <symbol id="oid1" xml:space="preserve" class="METIS_SYMBOL">
   <title>Untitled</title>
    <polygon points="1007.81 1007.81 0 1007.81 0 0 
     1007.81 0 1007.81 1007.81"
     style="stroke:none; fill:#ffffff; fill-opacity:0%"></polygon>
    <polygon points="174.05 586.915 134.493 594.866 102.848 610.77 
     71.2025 634.625 47.4683 658.482 31.6455 698.241 15.8228 730.049 
     0 769.81 0 801.618 0 976.562 625 976.562 
     625 698.241 617.088 666.433 601.265 634.625 577.531 602.817 
     545.885 578.962 514.24 563.058 474.683 547.154 435.127 539.201 
     403.481 531.25 174.05 586.915"
     style="stroke:none; fill:#000000; fill-opacity:100%"></polygon>
    <polygon points="7.8125 801.592 15.7278 769.752 23.6431 729.952 
     39.4737 698.113 55.3043 666.273 86.9655 642.394 110.711 618.515 
     142.373 602.594 174.034 594.634 403.578 546.875 435.239 546.875 
     474.815 554.835 506.476 570.754 538.137 594.634 569.799 618.515 
     593.545 642.394 609.375 674.233 609.375 698.113 609.375 968.75 
     7.8125 968.75 7.8125 801.592"
     style="stroke:none; fill:#2d5a70; fill-opacity:100%"></polygon>
    <polygon points="363.742 617.362 411.996 609.375 444.165 609.375 
     484.376 625.347 436.123 968.75 363.742 960.764 210.938 649.306 
     267.234 633.333 363.742 617.362"
     style="stroke:none; fill:#ffffff; fill-opacity:100%"></polygon>
    <polygon points="296.875 648.81 411.718 632.812 378.906 736.793 
     460.937 968.75 329.687 968.75 354.296 736.793 296.875 648.81"
     style="stroke:none; fill:#77aa00; fill-opacity:100%"></polygon>
    <polygon points="78.125 425.347 86.077 472.967 101.98 520.586 
     125.837 568.205 157.645 615.824 197.404 647.57 245.118 679.316 
     284.877 695.189 332.589 703.125 372.35 703.125 404.158 695.189 
     435.966 679.316 459.821 655.507 491.629 615.824 515.484 560.269 
     523.437 504.713 523.437 449.156 523.437 401.538 507.533 353.918 
     483.676 314.236 459.821 274.554 420.06 242.808 380.301 218.998 
     340.542 203.125 300.781 203.125 253.069 203.125 213.31 218.998 
     173.549 242.808 141.741 266.617 117.886 298.363 94.029 338.046 
     78.125 377.728 78.125 425.347"
     style="stroke:none; fill:#b2510f; fill-opacity:100%"></polygon>
    <polygon points="332.611 695.313 292.824 687.373 245.082 671.491 
     205.295 639.728 165.509 607.966 133.68 560.324 109.809 520.62 
     93.8947 472.977 85.9375 425.333 93.8947 385.63 101.851 345.927 
     125.723 306.225 149.596 274.463 181.424 250.64 213.253 226.818 
     253.039 218.878 300.782 210.938 340.568 218.878 380.354 234.759 
     420.139 258.58 451.968 282.403 475.84 322.105 499.712 361.809 
     507.669 401.512 515.626 449.154 515.626 504.739 507.669 552.383 
     483.797 607.966 451.968 647.67 428.097 671.491 404.226 687.373 
     372.397 695.313 332.611 695.313"
     style="stroke:none; fill:#ff9900; fill-opacity:100%"></polygon>
    <polygon points="467.808 243.438 404.23 203.594 340.653 179.688 
     300.916 179.688 269.127 179.688 229.391 187.656 189.655 195.625 
     157.866 211.563 134.024 235.469 110.183 259.375 94.2888 283.282 
     70.4472 347.032 62.5 402.814 78.3944 474.532 94.2888 530.314 
     118.131 562.189 126.078 570.158 134.024 578.126 134.024 562.189 
     126.078 538.283 126.078 522.345 126.078 514.376 134.024 506.407 
     165.813 506.407 189.655 514.376 205.55 522.345 213.497 514.376 
     229.391 482.501 245.286 458.595 261.18 450.626 324.757 458.595 
     380.388 458.595 428.072 450.626 459.86 450.626 507.544 434.689 
     515.49 426.72 523.438 402.814 523.438 355 515.49 331.094 
     507.544 299.219 491.649 275.313 467.808 243.438"
     style="stroke:none; fill:#000000; fill-opacity:100%"></polygon>
    <polygon points="517.064 86.806 477.487 118.635 445.826 150.463 
     429.996 190.249 429.996 222.077 429.996 253.906 445.826 285.735 
     469.572 317.563 501.233 349.392 501.233 357.349 501.233 381.221 
     485.403 397.135 453.742 413.049 422.081 421.006 406.25 421.006 
     414.165 436.921 445.826 460.792 477.487 468.75 532.895 460.792 
     572.471 444.878 604.132 421.006 612.048 389.177 667.454 397.135 
     714.947 405.093 770.353 397.135 825.76 389.177 873.253 373.264 
     920.743 357.349 960.32 325.52 984.066 293.691 999.897 253.906 
     1007.81 222.077 999.897 190.249 984.066 150.463 960.32 118.635 
     920.743 86.806 873.253 70.8907 825.76 54.9774 770.353 47.0197 
     714.947 39.062 659.539 47.0197 604.132 54.9774 556.641 70.8907 
     517.064 86.806"
     style="stroke:none; fill:#000000; fill-opacity:100%"></polygon>
    <polygon points="492.867 413.266 516.644 389.349 524.57 357.462 
     516.644 341.519 516.644 333.546 484.941 309.631 461.164 277.743 
     445.312 253.827 445.312 221.939 445.312 190.051 461.164 158.163 
     484.941 126.276 524.57 102.359 564.198 86.4164 611.753 70.4714 
     659.307 62.5 714.787 62.5 770.267 62.5 825.746 70.4714 
     873.302 86.4164 912.93 102.359 944.633 126.276 968.41 158.163 
     984.261 190.051 992.187 221.939 984.261 253.827 968.41 285.715 
     944.633 317.602 912.93 341.519 873.302 357.462 825.746 373.407 
     770.267 381.378 714.787 381.378 659.307 381.378 611.753 373.407 
     603.826 373.407 603.826 381.378 587.976 405.294 564.198 429.21 
     524.57 445.154 477.015 453.125 461.164 445.154 445.312 437.182 
     469.09 429.21 492.867 413.266"
     style="stroke:none; fill:#ffffff; fill-opacity:100%"></polygon>
    <polygon points="739.294 281.25 666.377 281.25 666.377 273.137 
     674.479 240.685 682.581 216.346 723.09 183.894 739.294 167.668 
     739.294 159.555 731.191 143.329 714.989 135.216 698.784 135.216 
     690.683 143.329 682.581 159.555 682.581 175.781 601.562 167.668 
     609.664 127.103 633.969 94.6514 666.377 78.4255 714.989 70.312 
     755.497 78.4255 787.905 86.539 812.211 118.991 820.312 151.443 
     812.211 183.894 771.701 224.459 747.396 248.798 739.294 281.25"
     style="stroke:none; fill:#f57210; fill-opacity:100%"></polygon>
    <polygon points="664.062 289.062 750 289.062 750 367.187 
     664.062 367.187 664.062 289.062"
     style="stroke:none; fill:#f57210; fill-opacity:100%"></polygon>
  </symbol>
 </defs>
 <use xlink:href="#oid1"/>
</svg>
