<?xml version="1.0"?>
<?metis version="3.6"?>
<?metisxml version="1.1"?>
<!DOCTYPE svg  PUBLIC "-//W3C//DTD SVG 1.0//EN"
 "http://www.w3.org/TR/2001/REC-SVG-20010904/DTD/svg10.dtd">



<!--
Troux Technologies, Inc. Confidential and Proprietary.
This work contains valuable confidential, proprietary and trade secret
information of Troux Technologies, Inc. and is protected by the laws of 
the United States and other countries. Any disclosure, use or reproduction
of this work without the prior written authorization of Troux Technologies, Inc.
is strictly prohibited.
Copyright (C) 2000-2005 Troux Technologies, Inc. All rights reserved.
-->


<svg>
 <title>Symbol library: computer.svg</title>
 <defs>
  <symbol id="oid1" xml:space="preserve" class="METIS_SYMBOL">
   <title>Untitled</title>
    <g>
      <polygon points="1007.81 1007.81 0 1007.81 0 0 
       1007.81 0 1007.81 1007.81"
       style="stroke:none; fill:#ffffff; fill-opacity:0%"></polygon>
      <polygon points="889.699 421.875 359.375 421.875 359.375 568.359 
       406.867 617.187 960.937 617.187 960.937 478.84 889.699 421.875 
       "
       style="stroke:none; fill:#333333; fill-opacity:100%"></polygon>
      <polygon points="889.876 437.5  945.313 486.607 
        945.313 609.375  406.785 609.375 
        367.188 568.453  367.188 437.5 
        889.876 437.5 "
       style="stroke:none; fill:#999999; fill-opacity:100%"></polygon>
      <polygon points="945.312 601.563 414.062 601.563 414.062 492.188 
       945.312 492.188 945.312 601.563"
       style="stroke:none; fill:#cccccc; fill-opacity:100%"></polygon>
      <polygon points="468.906 408.691  460.938 433.594 
        460.938 441.894 476.875 458.496 524.688 475.097 
       588.438 491.699 660.157 500  731.876 491.699 
       795.626 483.397 843.439 466.797 851.408 450.194 859.376 441.894 
         851.408 425.293 843.439 408.691 
       795.626 392.09 731.876 375.488 660.157 367.188  596.407 375.488 540.625 383.788 492.813 392.09 468.906 408.691 
       "
       style="stroke:none; fill:#333333; fill-opacity:100%"></polygon>
      <polygon points="660.156 484.374  580.404 484.374 
       524.577 467.448 484.7 450.52 468.75 442.057 468.75 433.594 
        476.725 416.666  500.651 399.74 
       540.527 391.276 596.354 382.812 660.156 382.812  739.909 391.276 795.735 399.74 835.611 416.666 843.587 425.13 
       851.562 433.594 851.562 442.057  843.587 450.52 
       835.611 458.984 795.735 475.911 731.933 484.374 660.156 484.374 
       "
       style="stroke:none; fill:#aaaaaa; fill-opacity:100%"></polygon>
      <polygon points="406.901 15.625  391.059 23.5882 
       375.217 47.4759 367.297 63.4014 359.375 87.2901 359.375 358.022 
        367.297 381.911 391.059 405.799 422.743 421.724 
       446.505 429.687 882.161 429.687  905.925 429.687 
       921.765 413.762 929.687 397.836 929.687 381.911 929.687 87.2901 
        929.687 79.3268 913.845 63.4014 882.161 39.5127 
       850.477 23.5882 818.793 15.625 406.901 15.625"
       style="stroke:none; fill:#333333; fill-opacity:100%"></polygon>
      <polygon points="367.188 358.099 367.188 87.0542  383.035 47.1939 390.96 39.2214 406.808 31.25 818.863 31.25 
        850.559 39.2214 882.256 55.1664 906.029 71.1092 
       921.876 87.0542 921.876 382.016  921.876 397.96 
       913.952 405.932 898.104 413.904 882.256 421.875 446.428 421.875 
        430.581 413.904 398.885 397.96 383.035 382.016 
       367.188 358.099 "
       style="stroke:none; fill:#aaaaaa; fill-opacity:100%"></polygon>
      <polygon points="524.306 93.75  500.434 101.773 
       484.52 109.797 476.562 125.845 476.562 141.892 476.562 342.484 
        476.562 358.53 484.52 374.579 500.434 382.602 
       524.306 390.625 858.506 390.625  874.421 382.602 
       890.335 374.579 898.292 358.53 906.25 342.484 906.25 141.892 
        898.292 125.845 890.335 109.797 874.421 101.773 
       858.506 93.75 524.306 93.75"
       style="stroke:none; fill:#333333; fill-opacity:100%"></polygon>
      <polygon points="484.375 342.803 484.375 141.572  484.375 133.522 492.338 117.425 508.263 109.375 524.189 109.375 
       858.623 109.375  874.549 109.375 882.512 117.425 
       890.474 133.522 898.437 141.572 898.437 342.803  890.474 358.901 882.512 366.95 874.549 375 858.623 375 
       524.189 375  508.263 375 492.338 366.95 
       484.375 358.901 484.375 342.803 "
       style="stroke:none; fill:#66a4ff; fill-opacity:100%"></polygon>
      <polygon points="367.188 446.289 436.633 507.813 445.313 499.024 
       375.868 437.5 367.188 446.289"
       style="stroke:none; fill:#cccccc; fill-opacity:100%"></polygon>
      <polygon points="382.812 55.6646 484.374 117.188 484.374 108.398 
       391.276 46.875 382.812 55.6646"
       style="stroke:none; fill:#cccccc; fill-opacity:100%"></polygon>
      <polygon points="476.006 406.077  459.265 414.063 
       450.893 414.063 417.411 406.077 383.928 382.119 375.558 374.133 
        367.188 214.41 375.558 102.604 375.558 70.6592 
       383.928 54.688  400.671 54.688 434.153 70.6592 
       484.376 110.59  476.006 126.563 467.636 166.493 
       467.636 254.341 476.006 406.077 "
       style="stroke:none; fill:#cccccc; fill-opacity:100%"></polygon>
      <polygon points="896.918 531.25 437.5 531.25 437.5 629.465 
       524.632 703.125 1007.81 703.125 1007.81 645.834 896.918 531.25 
       "
       style="stroke:none; fill:#333333; fill-opacity:100%"></polygon>
      <polygon points="889.152 539.062  992.187 654.514 
        992.187 687.5  532.495 687.5 
        445.312 621.528  445.312 539.062 
        889.152 539.062 "
       style="stroke:none; fill:#999999; fill-opacity:100%"></polygon>
      <polygon points="968.75 648.438 540.178 648.438 468.75 554.688 
       889.384 554.688 968.75 648.438"
       style="stroke:none; fill:#828181; fill-opacity:100%"></polygon>
      <polygon points="445.312 546.875 538.411 656.25 546.874 647.836 
       462.24 546.875 445.312 546.875"
       style="stroke:none; fill:#cccccc; fill-opacity:100%"></polygon>
      <polygon points="575.155 695.312 93.8281 767.428  85.9375 767.428 85.9375 823.517  85.9375 831.53 
       306.875 1007.81   843.437 863.581 
        851.327 863.581 875 831.53  875 823.517  867.108 823.517 575.155 695.312 
         "
       style="stroke:none; fill:#333333; fill-opacity:100%"></polygon>
      <polygon points="575.225 695.312  859.375 823.601 
        843.59 855.674  306.863 1000 
        93.75 823.601  93.75 767.475 
        575.225 695.312 "
       style="stroke:none; fill:#444444; fill-opacity:100%"></polygon>
      <polygon points="7.91666 265.625   0 281.494   87.0833 773.437 
         585.833 702.025  593.75 702.025  593.75 694.091 514.582 265.625 
         7.91666 265.625"
       style="stroke:none; fill:#333333; fill-opacity:100%"></polygon>
      <polygon points="506.742 273.438  585.938 694.18 
        94.9272 765.626  7.8125 289.314 
        15.732 273.438  506.742 273.438 
       "
       style="stroke:none; fill:#444444; fill-opacity:100%"></polygon>
      <polygon points="585.937 694.288 102.755 757.813 15.625 273.438 
       506.727 273.438 585.937 694.288"
       style="stroke:none; fill:#999999; fill-opacity:100%"></polygon>
      <polygon points="483.191 289.062 39.0625 289.062 118.372 734.374 
       562.5 678.711 491.122 289.062 483.191 289.062"
       style="stroke:none; fill:#143a72; fill-opacity:100%"></polygon>
      <polygon points="554.687 670.739 118.287 734.375 46.875 296.875 
       483.275 296.875 554.687 670.739"
       style="stroke:none; fill:#66a4ff; fill-opacity:100%"></polygon>
      <polygon points="575.125 687.5 101.641 759.765  93.75 767.795  101.641 767.795 322.6 976.562 
         875 832.031    875 824.001 583.017 687.5 
        575.125 687.5 "
       style="stroke:none; fill:#333333; fill-opacity:100%"></polygon>
      <polygon points="583.06 695.312  859.375 832.031 
        322.533 968.75  109.375 767.693 
        583.06 695.312 "
       style="stroke:none; fill:#999999; fill-opacity:100%"></polygon>
      <polygon points="734.374 792.782 298.72 882.813 164.062 776.414 
       560.113 710.938 734.374 792.782"
       style="stroke:none; fill:#666666; fill-opacity:100%"></polygon>
      <polygon points="656.25 863.281 509.765 898.438 460.938 854.492 
       591.146 828.125 656.25 863.281"
       style="stroke:none; fill:#444444; fill-opacity:100%"></polygon>
    </g>
  </symbol>
 </defs>
 <use xlink:href="#oid1"/>
</svg>
