<?xml version="1.0"?>
<?metis version="3.6"?>
<?metisxml version="1.1"?>
<!DOCTYPE svg  PUBLIC "-//W3C//DTD SVG 1.0//EN"
 "http://www.w3.org/TR/2001/REC-SVG-20010904/DTD/svg10.dtd">



<!--
Troux Technologies, Inc. Confidential and Proprietary.
This work contains valuable confidential, proprietary and trade secret
information of Troux Technologies, Inc. and is protected by the laws of 
the United States and other countries. Any disclosure, use or reproduction
of this work without the prior written authorization of Troux Technologies, Inc.
is strictly prohibited.
Copyright (C) 2000-2005 Troux Technologies, Inc. All rights reserved.
-->


<svg>
 <title>Symbol library: concept.svg</title>
 <defs>
  <symbol id="oid1" xml:space="preserve" class="METIS_SYMBOL">
   <title>Untitled</title>
    <g>
      <polygon points="1000 1007.75 0 1007.75 0 7.752 
       1000 7.752 1000 1007.75"
       style="stroke:none; fill:#ffffff; fill-opacity:0%"></polygon>
      <polygon points="193.798 312.872  201.648 367.623 
       225.198 422.376 256.599 477.128 287.999 531.881  327.249 586.633 358.649 641.386  374.35 711.781 
       382.2 782.178 390.05 860.395 382.2 868.217 617.701 868.217 
       617.701 860.395  617.701 782.178 625.551 711.781 
       641.251 641.386  672.652 586.633 711.902 531.881 
        743.302 484.95 782.553 430.198 806.103 367.623 
       813.953 312.872  806.103 250.297 790.403 195.544 
       759.002 140.792 719.752 93.8611 672.652 54.7529 625.551 31.2874 
       562.751 7.82184 499.95 0  437.151 7.82184 
       382.2 31.2874 327.249 54.7529 280.149 93.8611 240.899 140.792 
       217.348 195.544 193.798 250.297 193.798 312.872 "
       style="stroke:none; fill:#000000; fill-opacity:100%"></polygon>
      <polygon points="798.449 312.81  790.594 258.029 
       774.883 203.248 743.462 148.468 712.04 109.339 664.909 70.21 
       617.777 38.9077 562.791 23.256 499.948 23.256  444.96 23.256 389.974 38.9077 334.987 70.21 295.711 109.339 
       256.434 148.468 232.868 203.248 209.302 258.029 209.302 312.81 
        209.302 359.764 225.013 398.893 248.579 438.022 
       280 484.976 334.987 555.408 358.553 594.536 374.263 633.666 
        389.974 704.097 397.829 774.53 397.829 844.961 
       602.066 844.961  609.922 774.53 617.777 704.097 
       633.488 633.666  649.198 594.536 672.764 563.234 
       727.751 484.976 751.317 445.847 774.883 398.893 790.594 359.764 
       798.449 312.81 "
       style="stroke:none; fill:#fad000; fill-opacity:100%"></polygon>
      <polygon points="720.93 298.057  713.049 345.242 
       705.168 400.293 689.406 447.478 665.763 494.664 634.238 533.986 
       602.713 565.444 563.308 589.036 516.021 596.9  468.734 589.036 421.447 565.444 374.16 533.986 334.754 494.664 
       303.23 447.478 271.706 400.293 255.943 345.242 248.062 298.057 
        255.943 250.871 271.706 203.685 287.468 156.5 
       318.992 125.042 350.517 93.5848 397.804 69.9917 437.21 62.1284 
       484.496 54.264  531.783 62.1284 579.069 69.9917 
       618.475 93.5848 650 125.042 681.525 156.5 697.286 203.685 
       713.049 250.871 720.93 298.057 "
       style="stroke:none; fill:#ffe152; fill-opacity:100%"></polygon>
      <polygon points="736.434 290.279  728.561 345.275 
       720.688 400.273 704.941 455.269 673.45 502.409 649.831 549.55 
       610.465 580.976 571.099 604.546 515.989 612.403  468.75 604.546 413.639 580.976 366.4 549.55 327.034 502.409 
       287.67 455.269 264.051 400.273 240.431 345.275 232.558 290.279 
        240.431 243.138 256.177 195.998 279.797 148.858 
       311.289 109.575 342.781 78.1475 390.02 54.5783 437.258 38.8648 
       484.496 31.008  531.735 38.8648 578.972 54.5783 
       626.211 78.1475 657.704 109.575 689.196 148.858 712.815 195.998 
       728.561 243.138 736.434 290.279 "
       style="stroke:none; fill:#ffe566; fill-opacity:100%"></polygon>
      <polygon points="689.922 298.019  682.005 337.496 
       674.088 376.974 658.254 424.347 634.504 455.928 602.836 487.511 
       571.168 511.197 539.502 526.988 499.917 534.884  460.332 526.988 428.666 511.197 396.998 487.511 373.247 455.928 
       349.497 424.347 333.663 376.974 317.829 337.496 317.829 298.019 
        317.829 258.542 333.663 226.959 349.497 187.483 
       373.247 163.796 396.998 140.109 428.666 124.318 468.249 108.527 
       499.917 108.527  539.502 108.527 571.168 124.318 
       602.836 140.109 634.504 163.796 658.254 187.483 674.088 226.959 
       682.005 258.542 689.922 298.019 "
       style="stroke:none; fill:#fff099; fill-opacity:100%"></polygon>
      <polygon points="263.566 269.38 320.09 325.339 328.165 333.333 
       328.165 325.339  328.165 301.357 336.24 237.403 
       352.39 197.432 376.615 157.462 408.915 117.49 457.364 85.5133 
       457.364 77.519  400.84 93.5075 352.39 117.49 
       320.09 141.473 295.866 181.444 279.716 213.42 271.641 237.403 
       263.566 269.38 "
       style="stroke:none; fill:#ffd400; fill-opacity:100%"></polygon>
      <polygon points="441.861 85.271  401.255 117.348 
       376.892 149.425 352.528 181.502 336.286 213.578 320.044 277.733 
       320.044 317.829    271.318 269.713  279.439 245.656 295.681 189.522 
       320.044 157.444 352.528 125.367 393.134 101.31 441.861 85.271 
       "
       style="stroke:none; fill:#ffffff; fill-opacity:100%"></polygon>
      <polygon points="364.551 457.364  356.589 465.26 
        364.551 465.26  468.049 631.065 
        468.049 875.825  476.011 883.721 
       539.703 883.721  547.664 875.825  547.664 623.17  651.163 465.26    643.201 457.364  635.24 465.26 531.741 615.274  531.741 623.17 
        531.741 867.93  483.972 867.93 
        483.972 631.065  483.972 623.17 
       372.512 457.364  364.551 457.364 "
       style="stroke:none; fill:#666666; fill-opacity:100%"></polygon>
      <polygon points="468.149 390.504  452.308 406.977 
       436.468 423.45  428.548 406.977 412.707 390.504 
        404.786 374.031 396.866 357.558 373.104 349.322 
       349.343 349.322  333.502 365.795 325.581 382.268 
        325.581 406.977 333.502 431.687 349.343 456.395 
        357.263 464.631 373.104 464.631  373.104 456.395 373.104 439.923  357.263 415.214 
       349.343 398.741 349.343 390.504  365.184 374.031 
        373.104 382.268 388.945 406.977  404.786 431.687 428.548 448.158  444.387 448.158 
       468.149 439.923 491.91 406.977  507.751 382.268 
       515.672 374.031 523.593 365.795  539.434 382.268 
       547.354 406.977  555.275 431.687 563.195 439.923 
       579.035 448.158  586.955 448.158 602.796 439.923 
       626.558 423.45  642.399 398.741 658.24 398.741 
       666.16 398.741  658.24 423.45 642.399 456.395 
        634.478 464.631 642.399 472.868  658.24 472.868 666.16 472.868  682.001 431.687 
       689.922 406.977 689.922 390.504  682.001 374.031 
       674.081 374.031  650.319 365.795 634.478 374.031 
       602.796 398.741  579.035 415.214  571.114 398.741  563.195 365.795 547.354 349.322 
       531.513 341.085  507.751 341.085 491.91 349.322 
       468.149 390.504 "
       style="stroke:none; fill:#ffd400; fill-opacity:100%"></polygon>
      <polygon points="695.193 256.056  695.193 288.033 
       679.07 351.986 662.946 383.963 638.76 423.935 606.511 463.905 
       558.14 495.882 566.201 503.876  622.636 495.882 
       671.008 471.899 703.255 439.923 727.442 407.946 743.566 375.969 
       751.628 343.992 759.69 312.016 695.193 256.056 695.193 248.062 
       695.193 256.056"
       style="stroke:none; fill:#ffd400; fill-opacity:100%"></polygon>
      <polygon points="703.211 271.585  703.211 263.566 
        751.938 319.7  743.817 343.758 
       719.453 391.874 703.211 423.951 670.728 456.027 630.122 480.085 
       581.395 496.124  613.88 464.047 646.364 431.971 
       662.606 399.893 678.849 367.816 695.09 311.682 703.211 271.585 
       "
       style="stroke:none; fill:#ffffff; fill-opacity:100%"></polygon>
      <polygon points="396.397 705.426  372.512 721.338 
       364.551 729.294 356.589 745.206    364.551 769.074 372.512 777.03  372.512 784.986    364.551 792.942 356.589 808.854  356.589 816.809 
       364.551 840.677      364.551 848.633 356.589 864.545 
        356.589 872.501 372.512 896.369  372.512 904.325  372.512 912.281 364.551 936.149 
          364.551 952.06 
       372.512 960.016  388.435 975.928 412.32 983.884 
       444.165 999.796 499.895 1007.75  555.626 999.796 
       603.394 991.84 627.278 975.928 635.24 952.06  635.24 944.105  635.24 928.193 635.24 920.237 
        643.201 912.281 643.201 896.369  643.201 888.413 635.24 872.501    635.24 864.545 643.201 840.677    643.201 824.765 635.24 808.854 
          635.24 800.898 
        643.201 784.986 651.163 769.074    643.201 745.206 635.24 721.338 
       627.278 713.382 619.317 713.382  579.509 729.294 
       499.895 737.25  468.049 729.294 436.204 721.338 
       404.358 713.382 396.397 705.426 "
       style="stroke:none; fill:#000000; fill-opacity:100%"></polygon>
      <polygon points="387.847 920.543 395.849 904.554 387.847 880.572 
       379.845 872.577  379.845 864.583  387.847 856.589 387.847 840.6    379.845 824.612 379.845 808.624    387.847 800.63 395.849 784.642 
       387.847 768.653  379.845 744.67    387.847 736.676 395.849 728.682 
        435.859 744.67 467.867 752.665 499.875 760.659 
        571.893 752.665 619.905 736.676  627.907 768.653    619.905 784.642 611.903 800.63 611.903 824.612  619.905 840.6   611.903 856.589 
       611.903 872.577 619.905 896.56  619.905 904.554 
        611.903 920.543  611.903 928.537 
          619.905 944.525 
        619.905 952.519  611.903 960.513 
       587.897 976.502 555.889 984.496 499.875 984.496  443.861 976.502 411.853 960.513 387.847 944.525 379.845 936.531 
        387.847 920.543 "
       style="stroke:none; fill:#999999; fill-opacity:100%"></polygon>
      <polygon points="467.597 760.244  411.163 744.186 
        403.101 760.244 419.225 768.273 427.287 776.301 
       427.287 784.33  419.225 800.388 403.101 816.445 
        411.163 824.473 419.225 832.502 427.287 840.531 
       435.349 848.56  427.287 856.589 419.225 864.618 
       403.101 872.647 403.101 880.675  419.225 904.762 
       427.287 912.79  419.225 920.819 419.225 928.848 
       419.225 936.877  443.41 952.934 491.783 968.992 
       524.031 968.992 556.28 960.963 580.465 952.934 604.651 936.877 
        580.465 920.819 548.217 904.762 491.783 880.675 
        532.093 872.647 564.342 872.647 580.465 864.618 
        580.465 856.589 572.403 848.56 548.217 832.502 
       507.907 808.417  548.217 808.417 572.403 808.417 
       580.465 800.388 588.527 792.359  572.403 784.33 
       548.217 776.301 467.597 760.244 "
       style="stroke:none; fill:#cccccc; fill-opacity:100%"></polygon>
      <polygon points="434.109 767.442  442.456 767.442 
       450.805 777.778 484.198 788.114  517.591 798.45 
       534.288 798.45 542.636 798.45  525.939 788.114 
       492.546 777.778 450.805 767.442 434.109 767.442 "
       style="stroke:none; fill:#ffffff; fill-opacity:100%"></polygon>
      <polygon points="449.612 821.705  466.308 831.395 
       499.701 850.775  533.094 860.465 558.139 860.465 
        541.443 850.775 508.05 831.395 449.612 821.705 
       "
       style="stroke:none; fill:#ffffff; fill-opacity:100%"></polygon>
      <polygon points="524.225 928.018  483.043 910.299 
       441.86 883.721  507.752 901.44 548.935 919.158 
       573.643 928.018  557.171 936.877 524.225 945.736 
       483.043 945.736 466.57 945.736  474.806 936.877 
       491.279 936.877 524.225 928.018 "
       style="stroke:none; fill:#ffffff; fill-opacity:100%"></polygon>
    </g>
  </symbol>
 </defs>
 <use xlink:href="#oid1"/>
</svg>
