<?xml version="1.0"?>
<?metis version="5.1"?>
<?metisxml version="1.2"?>
<!DOCTYPE svg  PUBLIC "-//W3C//DTD SVG 1.0//EN"
 "http://www.w3.org/TR/2001/REC-SVG-20010904/DTD/svg10.dtd">

<svg>
 <title>Symbol library: parameter.svg</title>
 <defs>
  <symbol id="oid1" xml:space="preserve" class="METIS_SYMBOL">
   <title>Untitled</title>
    <polyline points="0 750 757.812 488.556 221.029 187.5"
     style="stroke:none;"></polyline>
    <polygon points="559.863 7.89 496.582 31.556 401.66 71.002 
     362.11 78.891 314.648 86.78 251.367 78.891 203.907 71.002 
     156.445 47.335 140.626 39.446 140.626 725.797 148.536 741.575 
     172.267 765.243 195.997 781.021 219.726 796.799 267.188 804.685 
     314.648 804.685 370.02 804.685 417.481 788.91 488.673 765.243 
     551.954 741.575 591.504 725.797 638.965 725.797 678.516 717.908 
     710.157 694.241 725.976 670.574 741.797 639.017 757.617 568.015 
     765.527 504.902 765.527 481.235 765.527 299.786 773.438 149.892 
     757.617 118.336 741.797 78.891 710.157 39.446 694.335 15.778 
     662.695 7.89 607.324 0 559.863 7.89"
     style="stroke:none; fill:#444444; fill-opacity:100%"></polygon>
    <polygon points="314.583 102.44 362.084 102.44 409.583 86.655 
     504.583 47.194 560 31.409 607.5 15.625 662.916 23.517 
     678.751 31.409 702.5 55.086 726.25 86.655 742.084 126.116 
     750 149.792 750 173.469 742.084 481.267 750 497.05 
     742.084 536.512 734.167 591.757 726.25 639.111 710.417 662.787 
     694.583 686.464 670.833 702.249 639.167 710.141 591.667 710.141 
     552.084 718.033 480.834 749.602 409.583 773.279 370 781.171 
     314.583 789.063 267.084 781.171 235.418 781.171 203.751 765.386 
     187.917 757.494 164.167 733.817 156.25 725.925 156.25 70.871 
     219.583 94.547 267.084 102.44 314.583 102.44"
     style="stroke:none; fill:#cccccc; fill-opacity:100%"></polygon>
    <polygon points="449.075 31.556 377.894 55.223 314.622 71.002 
     251.35 63.113 203.898 55.223 148.534 47.335 140.626 39.446 
     140.626 725.797 148.534 741.575 172.262 765.243 195.988 781.021 
     219.715 796.799 267.169 804.685 314.622 804.685 377.894 796.799 
     433.257 788.91 512.346 757.353 559.8 741.575 607.254 733.686 
     710.071 733.686 773.343 733.686 781.248 733.686 773.343 323.454 
     773.343 173.56 765.433 149.892 757.524 142.004 717.979 142.004 
     654.708 142.004 662.616 94.669 670.526 31.556 670.526 15.778 
     662.616 7.89 646.799 0 599.344 0 520.256 7.89 
     449.075 31.556"
     style="stroke:none; fill:#444444; fill-opacity:100%"></polygon>
    <polygon points="314.529 86.655 377.841 70.871 449.067 47.194 
     528.206 31.409 599.431 15.625 646.916 15.625 662.743 23.517 
     646.916 86.655 631.087 157.685 646.916 157.685 710.228 157.685 
     749.797 157.685 757.711 205.038 757.711 323.422 765.625 718.033 
     694.399 710.141 599.431 718.033 551.949 725.925 504.464 741.71 
     425.325 773.279 377.841 781.171 314.529 789.063 267.046 781.171 
     235.391 781.171 203.735 765.386 187.906 757.494 164.164 733.817 
     156.25 725.925 156.25 62.978 219.562 78.763 267.046 86.655 
     314.529 86.655"
     style="stroke:none; fill:#ffffff; fill-opacity:100%"></polygon>
    <polygon points="757.813 148.438 750 140.625 757.813 148.438"
     style="stroke:none; fill:#444444; fill-opacity:100%"></polygon>
    <polygon points="465.104 197.917 409.505 214.843 353.907 223.307 
     258.594 214.843 218.88 214.843 210.938 257.161 250.651 265.625 
     353.907 265.625 417.448 257.161 480.99 231.771 536.588 214.843 
     600.13 206.38 671.615 214.843 679.558 214.843 687.5 172.526 
     671.615 172.526 600.13 164.063 528.646 172.526 465.104 197.917"
     style="stroke:none; fill:#999999; fill-opacity:100%"></polygon>
    <polygon points="576.333 296.875 544.571 305.208 504.867 313.542 
     441.342 338.541 385.759 363.541 330.175 380.208 282.531 380.208 
     250.768 371.874 226.947 363.541 203.126 405.207 242.828 413.541 
     282.531 421.875 338.115 421.875 369.878 413.541 401.64 405.207 
     457.225 380.208 520.749 355.209 552.512 346.875 576.333 338.541 
     631.916 346.875 679.561 346.875 687.501 305.208 639.858 305.208 
     576.333 296.875"
     style="stroke:none; fill:#999999; fill-opacity:100%"></polygon>
    <polygon points="576.333 445.313 544.571 445.313 504.867 453.683 
     441.342 487.166 385.759 512.278 330.175 520.648 282.531 520.648 
     250.768 520.648 226.947 512.278 203.126 545.761 242.828 562.501 
     282.531 562.501 338.115 562.501 369.878 562.501 401.64 554.131 
     457.225 520.648 520.749 495.536 552.512 487.166 576.333 487.166 
     679.561 495.536 687.501 453.683 639.858 445.313 576.333 445.313"
     style="stroke:none; fill:#999999; fill-opacity:100%"></polygon>
    <polygon points="576.333 585.937 544.571 594.271 504.867 602.605 
     441.342 627.604 385.759 652.603 330.175 669.271 282.531 669.271 
     250.768 660.937 226.947 652.603 203.126 694.27 242.828 702.604 
     282.531 710.937 338.115 710.937 369.878 702.604 401.64 694.27 
     457.225 669.271 520.749 644.271 552.512 635.938 576.333 627.604 
     679.561 635.938 687.501 594.271 639.858 594.271 576.333 585.937"
     style="stroke:none; fill:#999999; fill-opacity:100%"></polygon>
    <g>
      <polygon points="500.839 495.324 388.367 495.324 388.367 482.97 
       400.864 433.554 413.361 396.492 475.845 347.077 500.839 322.369 
       500.839 310.015 488.34 285.307 463.349 272.953 438.354 272.953 
       425.858 285.307 413.361 310.015 413.361 334.723 288.393 322.369 
       300.89 260.599 338.379 211.184 388.367 186.476 463.349 174.121 
       525.832 186.476 575.82 198.831 613.311 248.247 625.806 297.662 
       613.311 347.077 550.826 408.846 513.336 445.908 500.839 495.324"
       style="stroke:none; fill:#0000a5; fill-opacity:100%"></polygon>
      <polygon points="384.797 507.219 517.353 507.219 517.353 626.183 
       384.797 626.183 384.797 507.219"
       style="stroke:none; fill:#0000a5; fill-opacity:100%"></polygon>
    </g>
  </symbol>
 </defs>
 <use xlink:href="#oid1"/>
</svg>
