<?xml version="1.0"?>
<?metis version="5.2.2"?>
<?metisxml version="1.2"?>
<!DOCTYPE svg  PUBLIC "-//W3C//DTD SVG 1.0//EN"
 "http://www.w3.org/TR/2001/REC-SVG-20010904/DTD/svg10.dtd">

<svg>
 <title>Symbol library: symbols.svg</title>
 <defs>
  <symbol id="_002asnd00ssh8m1s4531" xml:space="preserve" class="METIS_SYMBOL">
   <title>Header_Band</title>
    <rect x="0" y="0" width="252" height="80"
     style="stroke:none; fill:#bbf9ff; fill-opacity:1.0"     class="TAG:canvas"></rect>
    <g>
      <desc>METIS_TEXT_GROUP</desc>
      <text  x="4" y="19"
       style=" stroke:#000000; stroke-width:1; font-family:sans-serif; font-size:16; vertical-align:middle;"
       class="TAG:text">text</text>
      <rect x="4" y="4" width="244" height="72"
       style=" stroke:#000000; stroke-width:1; fill:#bdb3b3; fill-opacity:0.0"></rect>
    </g>
  </symbol>
  <symbol id="_002asnd00ssh8m97f7ri" xml:space="preserve" class="METIS_SYMBOL">
   <title>HeaderLogo</title>
    <polygon points="0 40 96 40 96 0 
     0 0 0 40"
     style=" stroke:#8fd7f4; stroke-width:1; fill:#8fd7f4; fill-opacity:1.0"     class="TAG:canvas"></polygon>
    <image x="0" y="0" width="96" height="40" id="_002ash600euv8ps597nm" xlink:href="akm-logo.png"></image>
  </symbol>
  <symbol id="_002asnd00ssh9kll0oku" xml:space="preserve" class="METIS_SYMBOL">
   <title>Background</title>
    <polygon points="0 256 320 256 320 0 
     0 0 0 256"
     style=" stroke:#dcdcdc; stroke-width:1; fill:#008d9c; fill-opacity:1.0"     class="TAG:canvas"></polygon>
    <g>
      <desc>METIS_TEXT_GROUP</desc>
      <text  x="4" y="23"
       style=" stroke:#000000; stroke-width:1; font-family:sans-serif; font-size:20; vertical-align:middle;"
       class="TAG:text"></text>
      <rect x="4" y="4" width="312" height="248"
       style=" stroke:#000000; stroke-width:1; fill:#ffffff; fill-opacity:0.0"></rect>
    </g>
  </symbol>
  <symbol id="_002asnd00sshc51le9pv" xml:space="preserve" class="METIS_SYMBOL">
   <title>Background_noText</title>
    <polygon points="0 256 320 256 320 0 
     0 0 0 256"
     style="stroke:none; fill:#008d9c; fill-opacity:1.0"></polygon>
  </symbol>
  <symbol id="_002asnd00ssha9sfv9i0" xml:space="preserve" class="METIS_SYMBOL">
   <title>MenuButton_closed</title>
    <ellipse  cx="8" cy="28" rx="8" ry="8"
     style=" stroke:#000000; stroke-width:1; fill:#e2f4fc; fill-opacity:1.0"></ellipse>
    <rect x="7.3323" y="23.877" width="1.5" height="8"
     style=" stroke:#000000; stroke-width:1; fill:#000000; fill-opacity:1.0"></rect>
    <rect x="4.0823" y="27.127" width="8" height="1.5"
     style=" stroke:#000000; stroke-width:1; fill:#000000; fill-opacity:1.0"></rect>
    <g>
      <desc>METIS_TEXT_GROUP</desc>
      <text  x="20" y="19"
       style=" stroke:#000000; stroke-width:1; font-family:sans-serif; font-size:20; vertical-align:middle;"
       class="TAG:text"></text>
      <rect x="20" y="0" width="212" height="56"
       style=" stroke:#000000; stroke-width:1; fill:#ffffff; fill-opacity:0.0"></rect>
    </g>
  </symbol>
  <symbol id="_002asnd00ssha9fmf0ru" xml:space="preserve" class="METIS_SYMBOL">
   <title>MenuButton__open</title>
    <ellipse  cx="8" cy="28" rx="8" ry="8"
     style=" stroke:#000000; stroke-width:1; fill:#e2f4fc; fill-opacity:1.0"></ellipse>
    <polyline points="4 28 12 28"
     style=" stroke:#000000; stroke-width:1;"></polyline>
    <g>
      <desc>METIS_TEXT_GROUP</desc>
      <text  x="24" y="19"
       style=" stroke:#000000; stroke-width:1; font-family:sans-serif; font-size:20; vertical-align:middle;"
       class="TAG:text"></text>
      <rect x="24" y="0" width="212" height="56"
       style=" stroke:#000000; stroke-width:1; fill:#ffffff; fill-opacity:0.0"></rect>
    </g>
  </symbol>
  <symbol id="_002asnd00sshc51jbqoj" xml:space="preserve" class="METIS_SYMBOL">
   <title>ToolButtonClose</title>
    <rect x="0" y="0" width="336" height="272"
     style="stroke:none; fill:#9b9b9b; fill-opacity:1.0"></rect>
    <polygon points="8 264 328 264 328 8 
     8 8 8 264"
     style=" stroke:#e2f4fc; stroke-width:1; fill:#008d9c; fill-opacity:1.0"     class="TAG:canvas"></polygon>
    <polyline points="8 264 8 8"
     style=" stroke:#ffffff; stroke-width:1;"></polyline>
    <polyline points="8 264 328 264"
     style=" stroke:#000000; stroke-width:1;"></polyline>
    <polyline points="328 264 328 8"
     style=" stroke:#000000; stroke-width:1;"></polyline>
    <polyline points="8 8 328 8"
     style=" stroke:#ffffff; stroke-width:1;"></polyline>
    <polyline points="64 40 272 232"
     style=" stroke:#ffffff; stroke-width:2;"></polyline>
    <polyline points="64 232 272 40"
     style=" stroke:#ffffff; stroke-width:2;"></polyline>
    <polyline points="0 0 336 0"
     style=" stroke:#ffffff; stroke-width:1;"></polyline>
  </symbol>
  <symbol id="_002aspn01jbbcg3v5skt" xml:space="preserve" class="METIS_SYMBOL">
   <title>Background_picture</title>
    <polygon points="0 208 296 208 296 0 
     0 0 0 208"
     style=" stroke:#bdb3b3; stroke-width:1; fill:#008d9c; fill-opacity:1.0"></polygon>
    <image x="68" y="80" width="63.8084" height="23.6623" id="_002aspn01jbbfaortopi" xlink:href="logo-akm.png"></image>
    <g>
      <desc>METIS_TEXT_GROUP</desc>
      <text  x="140" y="85"
       style=" stroke:#914a42; stroke-width:1; font-family:sans-serif; font-size:10;"
>Active Knowledge Modeling</text>
      <rect x="140" y="76" width="120" height="27.418"
       style=" stroke:#000000; stroke-width:1; fill:#ffffff; fill-opacity:0.0"></rect>
    </g>
  </symbol>
  <symbol id="_002asnd00sshc5hu7r3d" xml:space="preserve" class="METIS_SYMBOL">
   <title>ToolButton</title>
    <rect x="0" y="0" width="336" height="272"
     style=" stroke:#991f1f; stroke-width:1; fill:#9b9b9b; fill-opacity:1.0"></rect>
    <polygon points="8 264 328 264 328 8 
     8 8 8 264"
     style=" stroke:#008d9c; stroke-width:1; fill:#008d9c; fill-opacity:1.0"     class="TAG:canvas"></polygon>
    <g>
      <desc>METIS_TEXT_GROUP</desc>
      <text  x="16" y="27"
       style=" stroke:#ffffff; stroke-width:1; font-family:sans-serif; font-weight:bold; font-size:12; text-align:center vertical-align:middle;"
       class="TAG:text">text</text>
      <rect x="16" y="16" width="304" height="240"
       style=" stroke:#000000; stroke-width:1; fill:#008d9c; fill-opacity:1.0"></rect>
    </g>
    <polyline points="8 264 8 8"
     style=" stroke:#ffffff; stroke-width:1;"></polyline>
    <polyline points="8 264 328 264"
     style=" stroke:#000000; stroke-width:1;"></polyline>
    <polyline points="328 264 328 8"
     style=" stroke:#000000; stroke-width:1;"></polyline>
    <polyline points="8 8 328 8"
     style=" stroke:#ffffff; stroke-width:1;"></polyline>
  </symbol>
  <symbol id="_002asnd00sshcf2hm2ev" xml:space="preserve" class="METIS_SYMBOL">
   <title>ToolButtonNewWindow</title>
    <rect x="0" y="0" width="336" height="272"
     style=" stroke:#991f1f; stroke-width:1; fill:#991f1f; fill-opacity:1.0"></rect>
    <polygon points="8 264 328 264 328 8 
     8 8 8 264"
     style=" stroke:#e2f4fc; stroke-width:1; fill:#bdb3b3; fill-opacity:1.0"     class="TAG:canvas"></polygon>
    <polyline points="8 264 8 8"
     style=" stroke:#ffffff; stroke-width:1;"></polyline>
    <polyline points="8 264 328 264"
     style=" stroke:#000000; stroke-width:1;"></polyline>
    <polyline points="328 264 328 8"
     style=" stroke:#000000; stroke-width:1;"></polyline>
    <polyline points="8 8 328 8"
     style=" stroke:#ffffff; stroke-width:1;"></polyline>
    <polyline points="40 40 296 40"
     style=" stroke:#ffffff; stroke-width:2;"></polyline>
    <polyline points="296 40 296 232"
     style=" stroke:#ffffff; stroke-width:2;"></polyline>
    <polyline points="296 232 40 232"
     style=" stroke:#ffffff; stroke-width:2;"></polyline>
    <polyline points="40 56 296 56"
     style=" stroke:#ffffff; stroke-width:2;"></polyline>
    <polyline points="0 0 336 0"
     style=" stroke:#ffffff; stroke-width:1;"></polyline>
    <rect x="64" y="112" width="208" height="96"
     style=" stroke:#000000; stroke-width:1; fill:#ffffff; fill-opacity:1.0"></rect>
    <rect x="64" y="72" width="168" height="120"
     style=" stroke:#ffffff; stroke-width:1; fill:#ffffff; fill-opacity:1.0"></rect>
    <polygon points="232 112 272 112 232 72 
     232 112"
     style=" stroke:#000000; stroke-width:1; fill:#ffffff; fill-opacity:1.0"></polygon>
    <polyline points="64 208 64 72"
     style=" stroke:#000000; stroke-width:1;"></polyline>
    <polyline points="64 72 232 72"
     style=" stroke:#000000; stroke-width:1;"></polyline>
    <polyline points="40 40 40 232"
     style=" stroke:#ffffff; stroke-width:2;"></polyline>
  </symbol>
  <symbol id="_002asnd00sshcfc3obtj" xml:space="preserve" class="METIS_SYMBOL">
   <title>ToolButtonRelOpen</title>
    <rect x="0" y="0" width="336" height="272"
     style=" stroke:#991f1f; stroke-width:1; fill:#991f1f; fill-opacity:1.0"></rect>
    <polygon points="8 264 328 264 328 8 
     8 8 8 264"
     style=" stroke:#e2f4fc; stroke-width:1; fill:#bdb3b3; fill-opacity:1.0"     class="TAG:canvas"></polygon>
    <polyline points="8 264 8 8"
     style=" stroke:#ffffff; stroke-width:1;"></polyline>
    <polyline points="8 264 328 264"
     style=" stroke:#000000; stroke-width:1;"></polyline>
    <polyline points="328 264 328 8"
     style=" stroke:#000000; stroke-width:1;"></polyline>
    <polyline points="8 8 328 8"
     style=" stroke:#ffffff; stroke-width:1;"></polyline>
    <polyline points="40 136 304 136"
     style=" stroke:#ffffff; stroke-width:1;"></polyline>
    <polygon points="72 152 40 136 72 120 
     72 152"
     style=" stroke:#ffffff; stroke-width:1; fill:#ffffff; fill-opacity:1.0"></polygon>
    <polygon points="272 152 304 136 272 120 
     272 152"
     style=" stroke:#ffffff; stroke-width:1; fill:#ffffff; fill-opacity:1.0"></polygon>
    <polyline points="0 0 336 0"
     style=" stroke:#ffffff; stroke-width:1;"></polyline>
  </symbol>
  <symbol id="_002asnd00sshc5vsi1t6" xml:space="preserve" class="METIS_SYMBOL">
   <title>Window_main_bordered</title>
    <polygon points="0 256 320 256 320 0 
     0 0 0 256"
     style=" stroke:#000000; stroke-width:1; fill:#ffffff; fill-opacity:1.0"     class="TAG:canvas"></polygon>
    <g>
      <desc>METIS_TEXT_GROUP</desc>
      <text  x="8" y="23"
       style=" stroke:#000000; stroke-width:1; font-family:sans-serif; font-weight:bold; font-size:16;"
       class="TAG:text">text</text>
      <rect x="8" y="8" width="304" height="240"
       style=" stroke:#000000; stroke-width:1; fill:#ffffff; fill-opacity:1.0"></rect>
    </g>
    <polyline points="0 256 0 0"
     style=" stroke:#000000; stroke-width:1;"></polyline>
    <polyline points="0 0 320 0"
     style=" stroke:#000000; stroke-width:1;"></polyline>
    <g>
      <desc>METIS_TEXT_GROUP</desc>
      <text  x="4" y="39"
       style=" stroke:#000000; stroke-width:1; font-family:sans-serif; font-size:16;"
       class="TAG:LAYOUTAREA"></text>
      <rect x="4" y="24" width="312" height="228"
       style=" stroke:#000000; stroke-width:1; fill:#ffffff; fill-opacity:0.0"></rect>
    </g>
  </symbol>
  <symbol id="_002asnd00sshcfm6iojm" xml:space="preserve" class="METIS_SYMBOL">
   <title>ToolButtonRelClose</title>
    <rect x="0" y="0" width="336" height="272"
     style=" stroke:#991f1f; stroke-width:1; fill:#991f1f; fill-opacity:1.0"></rect>
    <polygon points="8 264 328 264 328 8 
     8 8 8 264"
     style=" stroke:#e2f4fc; stroke-width:1; fill:#bdb3b3; fill-opacity:1.0"></polygon>
    <polyline points="8 264 8 8"
     style=" stroke:#ffffff; stroke-width:1;"></polyline>
    <polyline points="8 264 328 264"
     style=" stroke:#000000; stroke-width:1;"></polyline>
    <polyline points="328 264 328 8"
     style=" stroke:#000000; stroke-width:1;"></polyline>
    <polyline points="8 8 328 8"
     style=" stroke:#ffffff; stroke-width:1;"></polyline>
    <polyline points="128 88 224 184"
     style=" stroke:#ff0000; stroke-width:2;"></polyline>
    <polyline points="128 184 224 88"
     style=" stroke:#ff0000; stroke-width:2;"></polyline>
    <polyline points="40 136 304 136"
     style=" stroke:#ffffff; stroke-width:1; stroke-dasharray: 2 2;"></polyline>
    <polygon points="72 152 40 136 72 120 
     72 152"
     style=" stroke:#ffffff; stroke-width:1; fill:#ffffff; fill-opacity:1.0"></polygon>
    <polygon points="272 152 304 136 272 120 
     272 152"
     style=" stroke:#ffffff; stroke-width:1; fill:#ffffff; fill-opacity:1.0"></polygon>
    <polyline points="0 0 336 0"
     style=" stroke:#ffffff; stroke-width:1;"></polyline>
  </symbol>
  <symbol id="_002asnd00sshcfupnt28" xml:space="preserve" class="METIS_SYMBOL">
   <title>ToolButtonMaximize</title>
    <rect x="0" y="0" width="336" height="272"
     style=" stroke:#991f1f; stroke-width:1; fill:#991f1f; fill-opacity:1.0"></rect>
    <polygon points="8 264 328 264 328 8 
     8 8 8 264"
     style=" stroke:#e2f4fc; stroke-width:1; fill:#bdb3b3; fill-opacity:1.0"     class="TAG:canvas"></polygon>
    <polyline points="8 264 8 8"
     style=" stroke:#ffffff; stroke-width:1;"></polyline>
    <polyline points="8 264 328 264"
     style=" stroke:#000000; stroke-width:1;"></polyline>
    <polyline points="328 264 328 8"
     style=" stroke:#000000; stroke-width:1;"></polyline>
    <polyline points="8 8 328 8"
     style=" stroke:#ffffff; stroke-width:1;"></polyline>
    <polyline points="40 40 296 40"
     style=" stroke:#ffffff; stroke-width:2;"></polyline>
    <polyline points="296 40 296 232"
     style=" stroke:#ffffff; stroke-width:2;"></polyline>
    <polyline points="296 232 40 232"
     style=" stroke:#ffffff; stroke-width:2;"></polyline>
    <polyline points="40 40 40 232"
     style=" stroke:#ffffff; stroke-width:2;"></polyline>
    <polyline points="40 56 296 56"
     style=" stroke:#ffffff; stroke-width:2;"></polyline>
    <polyline points="0 0 336 0"
     style=" stroke:#ffffff; stroke-width:1;"></polyline>
  </symbol>
  <symbol id="_002asnd00sshdntgqrac" xml:space="preserve" class="METIS_SYMBOL">
   <title>ToolButtonDuplicate</title>
    <rect x="0" y="0" width="336" height="272"
     style=" stroke:#991f1f; stroke-width:1; fill:#991f1f; fill-opacity:1.0"></rect>
    <polygon points="8 264 328 264 328 8 
     8 8 8 264"
     style=" stroke:#e2f4fc; stroke-width:1; fill:#bdb3b3; fill-opacity:1.0"     class="TAG:canvas"></polygon>
    <polyline points="8 264 8 8"
     style=" stroke:#ffffff; stroke-width:1;"></polyline>
    <polyline points="8 264 328 264"
     style=" stroke:#000000; stroke-width:1;"></polyline>
    <polyline points="328 264 328 8"
     style=" stroke:#000000; stroke-width:1;"></polyline>
    <polyline points="8 8 328 8"
     style=" stroke:#ffffff; stroke-width:1;"></polyline>
    <polyline points="0 0 336 0"
     style=" stroke:#ffffff; stroke-width:1;"></polyline>
    <polyline points="79.1305 69.3063 207.131 69.3063"
     style=" stroke:#ffffff; stroke-width:2;"></polyline>
    <polyline points="79.1305 85.3063 207.131 85.3063"
     style=" stroke:#ffffff; stroke-width:2;"></polyline>
    <polyline points="207.429 69.3063 207.131 101.306"
     style=" stroke:#ffffff; stroke-width:2;"></polyline>
    <polyline points="127.131 165.605 79.1305 165.306"
     style=" stroke:#ffffff; stroke-width:2;"></polyline>
    <polyline points="79.1305 69.3063 79.1305 165.306"
     style=" stroke:#ffffff; stroke-width:2;"></polyline>
    <polyline points="79.1305 69.3063 79.1305 165.306"
     style=" stroke:#ffffff; stroke-width:2;"></polyline>
    <polyline points="255.131 197.306 127.131 197.306"
     style=" stroke:#ffffff; stroke-width:2;"></polyline>
    <polyline points="127.131 101.306 127.131 197.306"
     style=" stroke:#ffffff; stroke-width:2;"></polyline>
    <polyline points="127.131 117.306 255.131 117.306"
     style=" stroke:#ffffff; stroke-width:2;"></polyline>
    <polyline points="127.131 101.306 255.131 101.306"
     style=" stroke:#ffffff; stroke-width:2;"></polyline>
    <polyline points="255.131 101.306 255.131 197.306"
     style=" stroke:#ffffff; stroke-width:2;"></polyline>
  </symbol>
  <symbol id="_002asng00r9815hq7rrn" xml:space="preserve" class="METIS_SYMBOL">
   <title>Background_gradient</title>
    <polygon points="0 256 320 256 320 0 
     0 0 0 256"
     style=" stroke:#dcdcdc; stroke-width:1; fill:#dcdcdc; fill-opacity:1.0"></polygon>
    <image x="0" y="0" width="320" height="256" id="_002asng00rb9ee31ge50" xlink:href="gradient2.png"></image>
  </symbol>
  <symbol id="_002aso701cmegrbku26l" xml:space="preserve" class="METIS_SYMBOL">
   <title>FolderHeader</title>
    <g>
      <desc>METIS_TEXT_GROUP</desc>
      <text  x="8" y="15"
       style=" stroke:#ffffff; stroke-width:3; font-family:sans-serif; font-size:16; text-align:center vertical-align:middle;"
       class="TAG:text">text</text>
      <rect x="8" y="0" width="244" height="72"
       style=" stroke:#000000; stroke-width:1; fill:#bdb3b3; fill-opacity:0.0"></rect>
    </g>
    <polyline points="0 0 0 72"
     style=" stroke:#ffffff; stroke-width:3;"     class="TAG:leftline"></polyline>
    <polyline points="256 0 256 72"
     style=" stroke:#ffffff; stroke-width:3;"     class="TAG:rightline"></polyline>
  </symbol>
  <symbol id="_002ass901e3gpvfmgsiu" xml:space="preserve" class="METIS_SYMBOL">
   <title>ToolButtonMatrix</title>
    <rect x="0" y="0" width="336" height="272"
     style=" stroke:#991f1f; stroke-width:1; fill:#991f1f; fill-opacity:1.0"></rect>
    <polygon points="8 264 328 264 328 8 
     8 8 8 264"
     style=" stroke:#e2f4fc; stroke-width:1; fill:#bdb3b3; fill-opacity:1.0"></polygon>
    <polyline points="8 264 8 8"
     style=" stroke:#ffffff; stroke-width:1;"></polyline>
    <polyline points="8 264 328 264"
     style=" stroke:#000000; stroke-width:1;"></polyline>
    <polyline points="328 264 328 8"
     style=" stroke:#000000; stroke-width:1;"></polyline>
    <polyline points="8 8 328 8"
     style=" stroke:#ffffff; stroke-width:1;"></polyline>
    <polyline points="0 0 336 0"
     style=" stroke:#ffffff; stroke-width:1;"></polyline>
    <rect x="44" y="60" width="112" height="72"
     style=" stroke:#000000; stroke-width:1; fill:#dcdcdc; fill-opacity:1.0"></rect>
    <rect x="176" y="60" width="112" height="72"
     style=" stroke:#000000; stroke-width:1; fill:#dcdcdc; fill-opacity:1.0"></rect>
    <rect x="44" y="152" width="112" height="72"
     style=" stroke:#000000; stroke-width:1; fill:#dcdcdc; fill-opacity:1.0"></rect>
    <rect x="176" y="152" width="112" height="72"
     style=" stroke:#000000; stroke-width:1; fill:#dcdcdc; fill-opacity:1.0"></rect>
  </symbol>
  <symbol id="_002ass901e63hufmmg7m" xml:space="preserve" class="METIS_SYMBOL">
   <title>ToolButtonHorizontal</title>
    <rect x="0" y="0" width="336" height="272"
     style=" stroke:#991f1f; stroke-width:1; fill:#991f1f; fill-opacity:1.0"></rect>
    <polygon points="8 264 328 264 328 8 
     8 8 8 264"
     style=" stroke:#e2f4fc; stroke-width:1; fill:#bdb3b3; fill-opacity:1.0"></polygon>
    <polyline points="8 264 8 8"
     style=" stroke:#ffffff; stroke-width:1;"></polyline>
    <polyline points="8 264 328 264"
     style=" stroke:#000000; stroke-width:1;"></polyline>
    <polyline points="328 264 328 8"
     style=" stroke:#000000; stroke-width:1;"></polyline>
    <polyline points="8 8 328 8"
     style=" stroke:#ffffff; stroke-width:1;"></polyline>
    <polyline points="0 0 336 0"
     style=" stroke:#ffffff; stroke-width:1;"></polyline>
    <rect x="52" y="56" width="232" height="72"
     style=" stroke:#000000; stroke-width:1; fill:#dcdcdc; fill-opacity:1.0"></rect>
    <rect x="52" y="148" width="232" height="72"
     style=" stroke:#000000; stroke-width:1; fill:#dcdcdc; fill-opacity:1.0"></rect>
  </symbol>
  <symbol id="_002ass901e7q9cr9dl9k" xml:space="preserve" class="METIS_SYMBOL">
   <title>ToolButtonVertical</title>
    <rect x="0" y="0" width="336" height="272"
     style=" stroke:#991f1f; stroke-width:1; fill:#991f1f; fill-opacity:1.0"></rect>
    <polygon points="8 264 328 264 328 8 
     8 8 8 264"
     style=" stroke:#e2f4fc; stroke-width:1; fill:#bdb3b3; fill-opacity:1.0"></polygon>
    <polyline points="8 264 8 8"
     style=" stroke:#ffffff; stroke-width:1;"></polyline>
    <polyline points="8 264 328 264"
     style=" stroke:#000000; stroke-width:1;"></polyline>
    <polyline points="328 264 328 8"
     style=" stroke:#000000; stroke-width:1;"></polyline>
    <polyline points="8 8 328 8"
     style=" stroke:#ffffff; stroke-width:1;"></polyline>
    <polyline points="0 0 336 0"
     style=" stroke:#ffffff; stroke-width:1;"></polyline>
    <rect x="44" y="60" width="112" height="160"
     style=" stroke:#000000; stroke-width:1; fill:#dcdcdc; fill-opacity:1.0"></rect>
    <rect x="176" y="60" width="112" height="160"
     style=" stroke:#000000; stroke-width:1; fill:#dcdcdc; fill-opacity:1.0"></rect>
  </symbol>
  <symbol id="_002assb00tqd0gju4554" xml:space="preserve" class="METIS_SYMBOL">
   <title>ToolBarButtonRight</title>
    <rect x="0" y="0" width="336" height="272"
     style=" stroke:#991f1f; stroke-width:1; fill:#991f1f; fill-opacity:1.0"></rect>
    <polygon points="8 264 328 264 328 8 
     8 8 8 264"
     style=" stroke:#e2f4fc; stroke-width:1; fill:#bdb3b3; fill-opacity:1.0"></polygon>
    <polyline points="8 264 8 8"
     style=" stroke:#ffffff; stroke-width:1;"></polyline>
    <polyline points="8 264 328 264"
     style=" stroke:#000000; stroke-width:1;"></polyline>
    <polyline points="328 264 328 8"
     style=" stroke:#000000; stroke-width:1;"></polyline>
    <polyline points="8 8 328 8"
     style=" stroke:#ffffff; stroke-width:1;"></polyline>
    <polyline points="0 0 336 0"
     style=" stroke:#ffffff; stroke-width:1;"></polyline>
    <polygon points="80 48 264 140 80 232 
     80 48"
     style=" stroke:#000000; stroke-width:1; fill:#ffffff; fill-opacity:1.0"></polygon>
  </symbol>
  <symbol id="_002assb00tssu3ngd078" xml:space="preserve" class="METIS_SYMBOL">
   <title>ToolBarButtonLeft</title>
    <rect x="0" y="0" width="336" height="272"
     style=" stroke:#991f1f; stroke-width:1; fill:#991f1f; fill-opacity:1.0"></rect>
    <polygon points="8 264 328 264 328 8 
     8 8 8 264"
     style=" stroke:#e2f4fc; stroke-width:1; fill:#bdb3b3; fill-opacity:1.0"></polygon>
    <polyline points="8 264 8 8"
     style=" stroke:#ffffff; stroke-width:1;"></polyline>
    <polyline points="8 264 328 264"
     style=" stroke:#000000; stroke-width:1;"></polyline>
    <polyline points="328 264 328 8"
     style=" stroke:#000000; stroke-width:1;"></polyline>
    <polyline points="8 8 328 8"
     style=" stroke:#ffffff; stroke-width:1;"></polyline>
    <polyline points="0 0 336 0"
     style=" stroke:#ffffff; stroke-width:1;"></polyline>
    <polygon points="264 44 76 132 264 220 
     264 44"
     style=" stroke:#000000; stroke-width:1; fill:#ffffff; fill-opacity:1.0"></polygon>
  </symbol>
 </defs>
 <use xlink:href="#_002asnd00ssh8m1s4531"/>
</svg>
