<?xml version="1.0"?>
<?metis version="3.6"?>
<?metisxml version="1.1"?>
<!DOCTYPE svg  PUBLIC "-//W3C//DTD SVG 1.0//EN"
 "http://www.w3.org/TR/2001/REC-SVG-20010904/DTD/svg10.dtd">

<svg>
 <title>Symbol library: productproperty.svg</title>
 <defs>
  <symbol id="oid1" xml:space="preserve" class="METIS_SYMBOL">
   <title>Untitled</title>
    <g>
      <polygon points="1007.81 1007.81 0 1007.81 0 0 
       1007.81 0 1007.81 1007.81"
       style="stroke:none; fill:#ffffff; fill-opacity:0%"></polygon>
      <polygon points="456.437 226.562 156.335 345.145  148.438 353.05 148.438 692.987  156.335 700.892 
       519.616 890.624  527.514 890.624 867.102 700.892 
        875 692.987 875 337.24  867.102 329.334 464.335 226.562  456.437 226.562 
       "
       style="stroke:none; fill:#3b2913; fill-opacity:100%"></polygon>
      <polygon points="851.563 345.036  851.563 685.226 
        519.622 867.188  171.875 685.226 
        171.875 360.858  456.396 242.188 
        851.563 345.036 "
       style="stroke:none; fill:#8c683c; fill-opacity:100%"></polygon>
      <polygon points="523.438 867.187 523.438 501.921 843.75 382.812 
       843.75 692.495 523.438 867.187"
       style="stroke:none; fill:#f2d488; fill-opacity:100%"></polygon>
      <polygon points="301.906 23.438 7.94491 95.3853  0 103.379  0 111.374 158.898 359.193 
        166.843 367.188 468.75 247.276  468.75 239.281  468.75 231.286 309.852 23.438 
        301.906 23.438 "
       style="stroke:none; fill:#3b2913; fill-opacity:100%"></polygon>
      <polygon points="445.313 231.496  166.715 343.75 
        23.4375 111.225  302.034 39.062 
        445.313 231.496 "
       style="stroke:none; fill:#d8a461; fill-opacity:100%"></polygon>
      <polygon points="548.274 23.438 453.125 215.511  453.125 223.514  453.125 231.517 857.509 351.563 
        873.368 343.56 984.375 119.475  984.375 111.471  976.446 111.471 564.133 23.438 
        548.274 23.438 "
       style="stroke:none; fill:#3b2913; fill-opacity:100%"></polygon>
      <polygon points="960.938 127.387  857.737 328.124 
        468.75 215.712  564.012 39.062 
        960.938 127.387 "
       style="stroke:none; fill:#8c683c; fill-opacity:100%"></polygon>
      <polygon points="991.939 226.562 642.733 347.098  634.796 347.098 515.749 491.741  507.812 507.812 
        523.686 507.812 864.955 379.241  864.955 371.206 999.876 242.634  1007.81 234.598 
        991.939 226.562 "
       style="stroke:none; fill:#3b2913; fill-opacity:100%"></polygon>
      <polygon points="857.421 363.136  546.875 476.562 
        650.391 363.136  960.937 257.812 
        857.421 363.136 "
       style="stroke:none; fill:#d8a461; fill-opacity:100%"></polygon>
      <polygon points="156.25 351.562 515.625 492.187 156.25 351.562 "
       style="stroke:none; fill:#758296; fill-opacity:100%"></polygon>
      <polyline points="156.25 351.562 515.625 492.187"
       style="stroke:none;"></polyline>
      <polygon points="164.394 343.75 515.459 483.552  523.438 491.776   523.438 500 
       515.459 500 156.416 360.197  148.438 351.973 
       148.438 343.75  156.416 343.75 164.394 343.75 
       "
       style="stroke:none; fill:#3b2913; fill-opacity:100%"></polygon>
      <polygon points="991.954 406.25 476.562 406.25 476.562 1007.81 
       1007.81 1007.81 1007.81 406.25 991.954 406.25"
       style="stroke:none; fill:#333333; fill-opacity:100%"></polygon>
      <polygon points="992.188 992.187 492.188 992.187 492.188 421.875 
       992.188 421.875 992.188 992.187"
       style="stroke:none; fill:#ffffff; fill-opacity:100%"></polygon>
      <polygon points="685 841.919  685 889.525 
       693.125 913.33 717.5 929.199 750 937.133 750 960.937 
       546.875 960.937 546.875 937.133  579.375 929.199 
       595.625 913.33 611.875 889.525 611.875 841.919 611.875 572.143 
        611.875 524.537 595.625 492.798 579.375 476.928 
       546.875 476.928 546.875 453.125 750 453.125 750 476.928 
        717.5 476.928 693.125 492.798 685 524.537 
       685 572.143 685 841.919"
       style="stroke:none; fill:#ff7711; fill-opacity:100%"></polygon>
      <polygon points="749.711 445.312 539.062 445.312 539.062 484.976 
       547.164 484.976  571.469 484.976 595.775 500.841 
       603.877 524.64 603.877 572.235 603.877 841.947  603.877 881.61 595.775 913.341 571.469 921.274 547.164 929.206 
       539.062 929.206 539.062 960.937 757.812 960.937 757.812 929.206 
       749.711 929.206  717.303 921.274 701.099 913.341 
       692.997 889.542 684.896 841.947 684.896 572.235  692.997 524.64 701.099 500.841 717.303 484.976 749.711 484.976 
       757.812 484.976 757.812 445.312 749.711 445.312"
       style="stroke:none; fill:#99460d; fill-opacity:100%"></polygon>
      <polygon points="742.188 460.938  742.188 468.876 
        709.579 476.814 685.123 492.692 676.97 524.446 
       676.97 572.076 676.97 841.987  676.97 889.617 
       685.123 921.372 709.579 937.249 742.188 937.249  742.188 953.126  554.688 953.126  554.688 937.249  587.297 937.249 603.6 921.372 
       611.753 889.617 619.906 841.987 619.906 572.076  611.753 524.446 603.6 492.692 587.297 476.814 554.688 468.876 
        554.688 460.938  742.188 460.938 
       "
       style="stroke:none; fill:#ff9900; fill-opacity:100%"></polygon>
      <polygon points="903.646 888.557  903.646 920.727 
       911.979 936.811 920.312 944.853 945.312 944.853 945.312 960.938 
       820.312 960.938 820.312 944.853  836.98 944.853 
       853.645 936.811 853.645 920.727 853.645 888.557 853.645 767.923 
        853.645 751.838 853.645 735.754 836.98 735.754 
       820.312 727.711 820.312 719.669 903.646 687.5 903.646 888.557"
       style="stroke:none; fill:#ff7711; fill-opacity:100%"></polygon>
      <polygon points="870.66 640.625  861.979 632.032 
       844.618 623.439 835.938 614.844 835.938 597.657  835.938 580.469 844.618 571.875 861.979 563.281 870.66 554.688 
        888.021 563.281 905.383 571.875 914.063 580.469 
       914.063 597.657  914.063 614.844 905.383 623.439 
       888.021 632.032 870.66 640.625 "
       style="stroke:none; fill:#ff7711; fill-opacity:100%"></polygon>
      <polygon points="903.494 679.899 812.5 711.994 812.5 736.064 
       820.772 736.064  837.317 736.064 845.588 744.088 
       845.588 768.159 845.588 888.513  845.588 912.584 
       845.588 928.632 837.317 936.655 820.772 936.655 812.5 936.655 
       812.5 968.75 953.125 968.75 953.125 944.679 944.853 936.655 
        928.309 936.655 920.037 928.632 911.765 912.584 
       911.765 888.513 911.765 671.875 903.494 679.899"
       style="stroke:none; fill:#99460d; fill-opacity:100%"></polygon>
      <polygon points="903.846 695.312  903.846 888.671 
        903.846 920.898 903.846 937.011 920.672 945.067 
       937.5 953.124    828.125 953.124    844.952 945.067 861.779 937.011 861.779 920.898 861.779 888.671 
       861.779 767.822  853.365 735.596 844.952 727.538 
       828.125 727.538  828.125 719.482  903.846 695.312 "
       style="stroke:none; fill:#ff9900; fill-opacity:100%"></polygon>
      <polygon points="828.125 597.657  828.125 614.844 
       845.171 632.032 853.693 640.625 870.739 640.625  896.307 640.625 904.831 632.032 913.353 614.844 921.875 597.657 
        913.353 580.469 904.831 563.281 896.307 554.688 
       870.739 554.688  853.693 554.688 845.171 563.281 
       828.125 580.469 828.125 597.657 "
       style="stroke:none; fill:#99460d; fill-opacity:100%"></polygon>
      <polygon points="843.75 597.656  852.678 571.289 
       870.536 562.5  897.321 571.289 906.25 597.656 
        897.321 624.024 870.536 632.813  852.678 624.024 843.75 597.656 "
       style="stroke:none; fill:#ff9900; fill-opacity:100%"></polygon>
    </g>
  </symbol>
 </defs>
 <use xlink:href="#oid1"/>
</svg>
