<?xml version="1.0"?>
<?metis version="3.6"?>
<?metisxml version="1.1"?>
<!DOCTYPE svg  PUBLIC "-//W3C//DTD SVG 1.0//EN"
 "http://www.w3.org/TR/2001/REC-SVG-20010904/DTD/svg10.dtd">



<!--
Troux Technologies, Inc. Confidential and Proprietary.
This work contains valuable confidential, proprietary and trade secret
information of Troux Technologies, Inc. and is protected by the laws of 
the United States and other countries. Any disclosure, use or reproduction
of this work without the prior written authorization of Troux Technologies, Inc.
is strictly prohibited.
Copyright (C) 2000-2006 Troux Technologies, Inc. All rights reserved.
-->


<svg>
 <title>Symbol library: trend.svg</title>
 <defs>
  <symbol id="oid1" xml:space="preserve" class="METIS_SYMBOL">
   <title>Untitled</title>
    <g>
      <polygon points="1000 1000 0 1000 0 0 
       1000 0 1000 1000"
       style="stroke:none; fill:#ffffff; fill-opacity:0%"></polygon>
      <polygon points="914.367 131.86 589.147 327.577 636.741 899.072 
       930.232 914.729 930.232 124.031 914.367 131.86"
       style="stroke:none; fill:#000000; fill-opacity:100%"></polygon>
      <polygon points="914.729 155.039  914.729 899.225 
        652.356 883.558  604.651 335.21 
        914.729 155.039 "
       style="stroke:none; fill:#999999; fill-opacity:100%"></polygon>
      <polygon points="218.838 139.604  211.017 217.815 
       211.017 296.028 195.376 397.702 171.915 515.02 140.633 632.337 
       85.8887 749.654 54.6066 804.402 23.3244 859.15  15.5039 866.971 15.5039 882.614  31.145 898.256 
       54.6066 906.077 132.812 929.541 242.299 953.004 367.428 968.646 
       602.044 992.11 734.993 1007.75 742.814 1007.75 742.814 999.931 
        774.096 945.183 805.379 882.614 836.66 796.581 
       867.942 679.264 891.404 546.304 899.225 382.06 899.225 296.028 
       891.404 202.173 891.404 194.352 218.838 131.783 218.838 139.604"
       style="stroke:none; fill:#000000; fill-opacity:100%"></polygon>
      <polygon points="31.0078 874.892    31.0078 867.069  70.123 820.126 
       93.5922 773.184 140.531 663.652 179.646 561.943 203.115 452.411 
       218.761 358.527 226.584 272.466 234.407 155.111  234.407 147.287  875.898 209.876  883.721 358.527  875.898 499.354 860.251 624.533 
       836.782 726.242 813.314 812.302 789.844 882.716 758.552 937.482 
       735.083 992.248  516.037 968.777 289.169 945.306 
       195.291 929.658 117.061 914.011 54.477 890.54 38.8308 882.716 
       31.0078 874.892 "
       style="stroke:none; fill:#ffffff; fill-opacity:100%"></polygon>
      <polygon points="178.295 81.395  178.295 114.126 
       186.752 130.491 203.664 146.856 229.034 155.039  245.948 146.856 262.862 130.491 271.318 114.126 271.318 81.395 
        271.318 56.848 262.862 32.3 245.948 15.9347 
       229.034 7.752  203.664 15.9347 186.752 32.3 
       178.295 56.848 178.295 81.395 "
       style="stroke:none; fill:#000000; fill-opacity:100%"></polygon>
      <polygon points="193.798 81.395  193.798 64.7835 
       202.657 39.8674 211.517 31.5617 229.235 23.256  238.095 31.5617 246.954 39.8674 255.814 64.7835 255.814 81.395 
        255.814 106.312 246.954 122.924 238.095 131.229 
       229.235 139.535  211.517 131.229 202.657 122.924 
       193.798 106.312 193.798 81.395 "
       style="stroke:none; fill:#999999; fill-opacity:100%"></polygon>
      <polygon points="224.806 144.703 883.721 209.302 883.721 80.103 
       224.806 15.504 224.806 144.703 "
       style="stroke:none; fill:#999999; fill-opacity:100%"></polygon>
      <polyline points="224.806 144.703 883.721 209.302 883.721 80.103 
       224.806 15.504"
       style="stroke:none;"></polyline>
      <polygon points="217.054 23.8523  875.789 88.2525 
        875.789 200.954  224.896 136.553 
       217.054 152.654 891.473 217.054 891.473 72.1522 224.896 7.752 
       217.054 23.8523"
       style="stroke:none; fill:#000000; fill-opacity:100%"></polygon>
      <polygon points="829.457 143.411  837.855 167.959 
       846.253 192.506 863.049 208.871 879.845 217.054  896.64 208.871 913.436 192.506 921.834 167.959 930.232 143.411 
        921.834 118.863 913.436 94.315 896.64 77.9497 
       879.845 69.767  863.049 77.9497 846.253 94.315 
       837.855 118.863 829.457 143.411 "
       style="stroke:none; fill:#000000; fill-opacity:100%"></polygon>
      <polygon points="844.961 143.411  844.961 118.494 
       853.682 101.882 871.124 93.5767 879.845 85.271  897.287 93.5767 906.007 101.882 914.728 118.494 914.728 143.411 
        914.728 168.328 906.007 184.94 897.287 193.244 
       879.845 201.55  871.124 193.244 853.682 184.94 
       844.961 168.328 844.961 143.411 "
       style="stroke:none; fill:#bbbbbb; fill-opacity:100%"></polygon>
      <polygon points="232.651 147.287  224.806 224.031 
        232.651 232.558 295.415 232.558 491.548 232.558 
       875.969 215.504 232.651 147.287"
       style="stroke:none; fill:#cccccc; fill-opacity:100%"></polygon>
      <polygon points="186.17 750.703  178.295 758.567 
       178.295 766.432  186.17 774.296 201.919 782.16 
       264.92 797.889 430.295 821.481 595.669 837.21 674.419 837.21 
       674.419 821.481  572.043 813.617 414.544 805.754 
       264.92 782.16 217.669 774.296 194.044 758.567  209.794 727.11 233.419 664.196 272.795 514.774 312.17 294.574 
       296.42 294.574  249.169 546.232 217.669 679.925 
       201.919 719.246 186.17 750.703 "
       style="stroke:none; fill:#555555; fill-opacity:100%"></polygon>
      <polygon points="635.515 333.333 477.605 372.773  477.605 380.661      501.292 412.213  398.651 498.98 367.069 640.962 224.95 711.953  217.054 719.841     248.636 782.945  256.532 782.945 
       422.337 704.065 461.814 546.308  548.665 467.428 
        572.351 491.092  580.247 498.98 
        580.247 491.092 643.411 341.221    635.515 333.333 "
       style="stroke:none; fill:#444444; fill-opacity:100%"></polygon>
      <polygon points="635.659 348.837  580.331 483.06 
        556.62 459.374  548.716 459.374 
       453.868 538.329 414.349 696.238  256.27 775.194 
        232.558 719.925  374.829 648.866 
       406.445 506.747 509.196 412.001  517.1 412.001 
        509.196 412.001  485.484 380.419 
        635.659 348.837 "
       style="stroke:none; fill:#ff9900; fill-opacity:100%"></polygon>
    </g>
  </symbol>
 </defs>
 <use xlink:href="#oid1"/>
</svg>
