<?xml version="1.0"?>
<?metis version="5.1"?>
<?metisxml version="1.2"?>
<!DOCTYPE svg  PUBLIC "-//W3C//DTD SVG 1.0//EN"
 "http://www.w3.org/TR/2001/REC-SVG-20010904/DTD/svg10.dtd">

<svg>
 <title>Symbol library: document.svg</title>
 <defs>
  <symbol id="oid1" xml:space="preserve" class="METIS_SYMBOL">
   <title>Untitled</title>
    <g>
      <polygon points="1007.81 1007.81 0 1007.81 0 0 
       1007.81 0 1007.81 1007.81"
       style="stroke:none; fill:#ffffff; fill-opacity:0%"></polygon>
      <polygon points="226.562 953.125 984.374 691.681 447.591 390.625 
       226.562 953.125"
       style="stroke:none; fill:#444444; fill-opacity:100%"></polygon>
      <polyline points="226.562 953.125 984.374 691.681 447.591 390.625"
       style="stroke:none;"></polyline>
      <polygon points="490.393 0 39.0625 200.452 39.0625 208.471 
       46.9806 232.525 54.8986 248.562 78.6529 272.616 110.325 288.652 
       149.916 304.688 197.423 304.688 244.933 296.669 625 56.1273 
       625 48.1086 609.163 32.0724 601.246 32.0724 229.096 248.562 
       181.588 256.579 149.916 248.562 126.161 232.525 118.244 224.507 
       118.244 216.489 498.311 40.09 506.229 8.01759 498.311 0 
       490.393 0"
       style="stroke:none; fill:#000000; fill-opacity:100%"></polygon>
      <polygon points="490.514 15.625 490.514 31.7096 110.156 208.64 
       102.232 224.725 102.232 232.766 118.081 248.852 141.853 264.936 
       181.474 264.936 229.018 264.936 601.452 47.7942 609.375 55.837 
       244.867 281.021 197.321 289.063 157.701 289.063 118.081 281.021 
       94.3081 264.936 62.6116 232.766 54.6875 208.64 490.514 15.625"
       style="stroke:none; fill:#4db333; fill-opacity:100%"></polygon>
      <polygon points="491.088 31.25 62.6221 216.553 54.6875 224.609 
       62.6221 232.665 221.313 289.062 554.564 79.5897 562.5 71.5326 
       554.564 63.4765 506.957 63.4765 499.023 55.4204 499.023 47.3633 
       499.023 39.3061 499.023 31.25 491.088 31.25"
       style="stroke:none; fill:#190000; fill-opacity:100%"></polygon>
      <polygon points="483.664 46.875 483.664 54.967 483.664 63.058 
       499.574 71.149 523.438 79.241 221.165 273.437 85.9375 224.888 
       483.664 46.875"
       style="stroke:none; fill:#ffffff; fill-opacity:100%"></polygon>
      <polygon points="617.082 46.875 244.933 275.408 189.506 275.408 
       141.997 275.408 110.325 259.646 86.5709 243.886 70.7348 228.124 
       62.8167 212.365 54.8986 196.603 46.9806 204.484 39.0625 204.484 
       39.0625 890.081 39.0625 905.843 54.8986 929.484 78.6529 937.364 
       102.407 945.245 157.834 953.125 229.096 953.125 609.163 685.191 
       609.163 677.31 625 54.7559 625 46.875 617.082 46.875"
       style="stroke:none; fill:#000000; fill-opacity:100%"></polygon>
      <polygon points="244.867 291.103 609.375 62.5 593.528 677.365 
       221.094 937.5 165.625 937.5 110.156 937.5 86.384 929.617 
       62.6116 913.851 54.6875 905.969 54.6875 890.202 54.6875 235.923 
       78.4599 259.572 110.156 275.338 165.625 291.103 244.867 291.103"
       style="stroke:none; fill:#4db333; fill-opacity:100%"></polygon>
      <polygon points="250.478 291.103 226.562 937.5 593.272 677.365 
       617.187 62.5 250.478 291.103"
       style="stroke:none; fill:#198000; fill-opacity:100%"></polygon>
      <polygon points="786.425 211.015 723.144 234.681 628.222 274.127 
       588.672 282.016 541.21 289.905 477.929 282.016 430.469 274.127 
       383.007 250.46 367.188 242.571 367.188 928.922 375.098 944.7 
       398.829 968.368 422.559 984.146 446.288 999.924 493.75 1007.81 
       541.21 1007.81 596.582 1007.81 644.043 992.035 715.235 968.368 
       778.516 944.7 818.066 928.922 865.527 928.922 905.078 921.033 
       936.719 897.366 952.538 873.699 968.359 842.142 984.179 771.14 
       992.089 708.027 992.089 684.36 992.089 502.911 1000 353.017 
       984.179 321.461 968.359 282.016 936.719 242.571 920.897 218.903 
       889.257 211.015 833.886 203.125 786.425 211.015"
       style="stroke:none; fill:#444444; fill-opacity:100%"></polygon>
      <polygon points="541.145 305.565 588.646 305.565 636.145 289.78 
       731.145 250.319 786.562 234.534 834.062 218.75 889.478 226.642 
       905.313 234.534 929.062 258.211 952.812 289.78 968.646 329.241 
       976.562 352.917 976.562 376.594 968.646 684.392 976.562 700.175 
       968.646 739.637 960.729 794.882 952.812 842.236 936.979 865.912 
       921.145 889.589 897.395 905.374 865.729 913.266 818.229 913.266 
       778.646 921.158 707.396 952.727 636.145 976.404 596.562 984.296 
       541.145 992.188 493.646 984.296 461.98 984.296 430.313 968.511 
       414.479 960.619 390.729 936.942 382.812 929.05 382.812 273.996 
       446.145 297.672 493.646 305.565 541.145 305.565"
       style="stroke:none; fill:#cccccc; fill-opacity:100%"></polygon>
      <polygon points="675.637 234.681 604.456 258.348 541.184 274.127 
       477.912 266.238 430.46 258.348 375.096 250.46 367.188 242.571 
       367.188 928.922 375.096 944.7 398.824 968.368 422.55 984.146 
       446.277 999.924 493.731 1007.81 541.184 1007.81 604.456 999.924 
       659.819 992.035 738.908 960.478 786.362 944.7 833.816 936.811 
       936.633 936.811 999.905 936.811 1007.81 936.811 999.905 526.579 
       999.905 376.685 991.995 353.017 984.086 345.129 944.541 345.129 
       881.27 345.129 889.178 297.794 897.088 234.681 897.088 218.903 
       889.178 211.015 873.361 203.125 825.906 203.125 746.818 211.015 
       675.637 234.681"
       style="stroke:none; fill:#444444; fill-opacity:100%"></polygon>
      <polygon points="541.091 289.78 604.403 273.996 675.629 250.319 
       754.768 234.534 825.993 218.75 873.478 218.75 889.305 226.642 
       873.478 289.78 857.649 360.81 873.478 360.81 936.79 360.81 
       976.359 360.81 984.273 408.163 984.273 526.547 992.187 921.158 
       920.961 913.266 825.993 921.158 778.511 929.05 731.026 944.835 
       651.887 976.404 604.403 984.296 541.091 992.188 493.608 984.296 
       461.953 984.296 430.297 968.511 414.468 960.619 390.726 936.942 
       382.812 929.05 382.812 266.103 446.124 281.888 493.608 289.78 
       541.091 289.78"
       style="stroke:none; fill:#ffffff; fill-opacity:100%"></polygon>
      <polygon points="984.375 351.563 976.562 343.75 984.375 351.563"
       style="stroke:none; fill:#444444; fill-opacity:100%"></polygon>
      <polygon points="691.666 401.042 636.067 417.968 580.469 426.432 
       485.156 417.968 445.442 417.968 437.5 460.286 477.213 468.75 
       580.469 468.75 644.01 460.286 707.552 434.896 763.15 417.968 
       826.692 409.505 898.177 417.968 906.12 417.968 914.062 375.651 
       898.177 375.651 826.692 367.188 755.208 375.651 691.666 401.042"
       style="stroke:none; fill:#999999; fill-opacity:100%"></polygon>
      <polygon points="802.895 500 771.133 508.333 731.429 516.667 
       667.904 541.666 612.321 566.666 556.737 583.333 509.093 583.333 
       477.33 574.999 453.509 566.666 429.688 608.332 469.39 616.666 
       509.093 625 564.677 625 596.44 616.666 628.202 608.332 
       683.787 583.333 747.311 558.334 779.074 550 802.895 541.666 
       858.478 550 906.123 550 914.063 508.333 866.42 508.333 
       802.895 500"
       style="stroke:none; fill:#999999; fill-opacity:100%"></polygon>
      <polygon points="802.895 648.438 771.133 648.438 731.429 656.808 
       667.904 690.291 612.321 715.403 556.737 723.773 509.093 723.773 
       477.33 723.773 453.509 715.403 429.688 748.886 469.39 765.626 
       509.093 765.626 564.677 765.626 596.44 765.626 628.202 757.256 
       683.787 723.773 747.311 698.661 779.074 690.291 802.895 690.291 
       906.123 698.661 914.063 656.808 866.42 648.438 802.895 648.438"
       style="stroke:none; fill:#999999; fill-opacity:100%"></polygon>
      <polygon points="802.895 789.062 771.133 797.396 731.429 805.73 
       667.904 830.729 612.321 855.728 556.737 872.396 509.093 872.396 
       477.33 864.062 453.509 855.728 429.688 897.395 469.39 905.729 
       509.093 914.062 564.677 914.062 596.44 905.729 628.202 897.395 
       683.787 872.396 747.311 847.396 779.074 839.063 802.895 830.729 
       906.123 839.063 914.063 797.396 866.42 797.396 802.895 789.062"
       style="stroke:none; fill:#999999; fill-opacity:100%"></polygon>
    </g>
  </symbol>
 </defs>
 <use xlink:href="#oid1"/>
</svg>
