<?xml version="1.0"?>
<?metis version="3.6"?>
<?metisxml version="1.1"?>
<!DOCTYPE svg  PUBLIC "-//W3C//DTD SVG 1.0//EN"
 "http://www.w3.org/TR/2001/REC-SVG-20010904/DTD/svg10.dtd">

<svg>
 <title>Symbol library: productversion.svg</title>
 <defs>
  <symbol id="oid1" xml:space="preserve" class="METIS_SYMBOL">
   <title>Untitled</title>
    <g>
      <polygon points="1007.81 1007.81 0 1007.81 0 0 
       1007.81 0 1007.81 1007.81"
       style="stroke:none; fill:#ffffff; fill-opacity:0%"></polygon>
      <polygon points="456.437 257.812 156.335 376.395  148.438 384.3 148.438 724.237  156.335 732.142 
       519.616 921.874  527.514 921.874 867.102 732.142 
        875 724.237 875 368.49  867.102 360.584 464.335 257.812  456.437 257.812 
       "
       style="stroke:none; fill:#3b2913; fill-opacity:100%"></polygon>
      <polygon points="851.563 376.286  851.563 716.476 
        519.622 898.438  171.875 716.476 
        171.875 392.108  456.396 273.438 
        851.563 376.286 "
       style="stroke:none; fill:#8c683c; fill-opacity:100%"></polygon>
      <polygon points="523.438 898.437 523.438 533.171 843.75 414.062 
       843.75 723.745 523.438 898.437"
       style="stroke:none; fill:#f2d488; fill-opacity:100%"></polygon>
      <polygon points="301.906 54.688 7.94491 126.635  0 134.629  0 142.624 158.898 390.443 
        166.843 398.438 468.75 278.526  468.75 270.531  468.75 262.536 309.852 54.688 
        301.906 54.688 "
       style="stroke:none; fill:#3b2913; fill-opacity:100%"></polygon>
      <polygon points="445.313 262.746  166.715 375 
        23.4375 142.475  302.034 70.312 
        445.313 262.746 "
       style="stroke:none; fill:#d8a461; fill-opacity:100%"></polygon>
      <polygon points="548.274 62.6905 453.125 246.761  453.125 254.764  453.125 262.767 857.509 382.813 
        873.368 374.81 984.375 150.725  984.375 142.721  976.446 142.721 564.133 54.688 
        548.274 62.6905 "
       style="stroke:none; fill:#3b2913; fill-opacity:100%"></polygon>
      <polygon points="960.938 158.637  857.737 359.374 
        468.75 246.962  564.012 70.312 
        960.938 158.637 "
       style="stroke:none; fill:#8c683c; fill-opacity:100%"></polygon>
      <polygon points="991.939 257.812 642.733 378.348  634.796 378.348 515.749 522.991  507.812 539.062 
        523.686 539.062 864.955 410.491  864.955 402.456 999.876 273.884  1007.81 265.848 
        991.939 257.812 "
       style="stroke:none; fill:#3b2913; fill-opacity:100%"></polygon>
      <polygon points="857.421 394.386  546.875 507.812 
        650.391 394.386  960.937 289.062 
        857.421 394.386 "
       style="stroke:none; fill:#d8a461; fill-opacity:100%"></polygon>
      <polygon points="156.25 382.812 515.625 523.437 156.25 382.812 "
       style="stroke:none; fill:#758296; fill-opacity:100%"></polygon>
      <polyline points="156.25 382.812 515.625 523.437"
       style="stroke:none;"></polyline>
      <polygon points="164.394 375 515.459 514.802  523.438 523.026   523.438 531.25 
       515.459 531.25 156.416 391.447  148.438 383.223 
       148.438 375  156.416 375 164.394 375 
       "
       style="stroke:none; fill:#3b2913; fill-opacity:100%"></polygon>
      <polygon points="984.116 382.812 770.862 382.812 770.862 438.192 
       794.556 438.192  818.252 446.103 834.048 454.015 
        834.048 461.927  834.048 477.749 
       818.252 517.306  683.98 810.028  541.809 517.306  526.013 477.749 526.013 454.015 
        526.013 446.103  541.809 446.103 
       573.402 438.192 597.098 438.192 597.098 382.812 289.062 382.812 
       289.062 438.192 312.758 438.192  352.249 446.103 
        368.046 461.927  391.741 501.483 
       636.589 1007.81 683.98 1007.81 913.032 509.394  928.829 477.749 952.523 454.015  968.321 446.103 
       992.015 438.192 1007.81 438.192 1007.81 382.812 984.116 382.812"
       style="stroke:none; fill:#99460d; fill-opacity:100%"></polygon>
      <polygon points="984.375 398.438 984.375 414.273  960.662 422.192 936.95 438.028  913.236 461.783 
       889.522 501.373 668.198 984.376 652.39 984.376 415.257 493.455 
        383.639 445.946  359.927 430.11 
        312.5 414.273 312.5 398.438 573.345 398.438 
       573.345 414.273  533.824 422.192 518.015 430.11 
        502.206 445.946 502.206 453.864  510.11 485.536 525.92 525.127 684.008 857.686 834.192 525.127 
        850 485.536 857.904 461.783  857.904 445.946 842.096 438.028  826.287 422.192 
       794.669 422.192  786.765 414.273 786.765 398.438 
       984.375 398.438"
       style="stroke:none; fill:#ff9900; fill-opacity:100%"></polygon>
    </g>
  </symbol>
 </defs>
 <use xlink:href="#oid1"/>
</svg>
