<?xml version="1.0"?>
<?metis version="5.1"?>
<?metisxml version="1.2"?>
<!DOCTYPE svg  PUBLIC "-//W3C//DTD SVG 1.0//EN"
 "http://www.w3.org/TR/2001/REC-SVG-20010904/DTD/svg10.dtd">

<svg>
 <title>Symbol library: productmethod.svg</title>
 <defs>
  <symbol id="_002as7v00mk7cn1g6vsv" xml:space="preserve" class="METIS_SYMBOL">
   <title>Untitled</title>
    <g>
      <polygon points="1000 1000 0 1000 0 0 
       1000 0 1000 1000"
       style="stroke:none; fill:#ffffff; fill-opacity:0%"></polygon>
      <polygon points="445.133 201.55 155.125 319.23 147.287 327.075 
       147.287 664.425 155.125 672.271 507.838 852.713 515.676 852.713 
       844.875 672.271 852.713 664.425 852.713 319.23 844.875 311.385 
       452.971 201.55 445.133 201.55"
       style="stroke:none; fill:#3b2913; fill-opacity:100%"></polygon>
      <polygon points="837.21 326.873 837.21 656.629 507.843 837.209 
       162.791 656.629 162.791 334.724 445.105 224.806 837.21 326.873"
       style="stroke:none; fill:#8c683c; fill-opacity:100%"></polygon>
      <polygon points="511.628 837.209 511.628 474.677 829.457 364.341 
       829.457 663.825 511.628 837.209"
       style="stroke:none; fill:#f2d488; fill-opacity:100%"></polygon>
      <polygon points="291.767 7.752 7.8856 79.1801 0 87.1167 
       0 95.0533 149.826 341.085 165.598 341.085 457.364 222.037 
       457.364 214.101 299.653 7.752 291.767 7.752"
       style="stroke:none; fill:#3b2913; fill-opacity:100%"></polygon>
      <polygon points="441.861 214.199 165.424 325.582 23.2558 94.8592 
       291.795 23.256 441.861 214.199"
       style="stroke:none; fill:#d8a461; fill-opacity:100%"></polygon>
      <polygon points="536.293 15.6978 441.86 198.449 441.86 206.395 
       441.86 214.341 843.199 325.581 851.069 325.581 961.24 103.101 
       961.24 95.1548 953.371 95.1548 544.163 7.752 536.293 15.6978"
       style="stroke:none; fill:#3b2913; fill-opacity:100%"></polygon>
      <polygon points="937.984 110.896 835.556 310.078 457.364 198.535 
       551.913 23.256 937.984 110.896"
       style="stroke:none; fill:#8c683c; fill-opacity:100%"></polygon>
      <polygon points="968.865 209.302 622.188 321.021 622.188 329.001 
       496.124 464.66 496.124 480.62 511.882 480.62 842.801 352.941 
       976.744 225.262 976.744 217.282 968.865 209.302"
       style="stroke:none; fill:#3b2913; fill-opacity:100%"></polygon>
      <polygon points="835.233 336.778 534.884 457.364 629.731 344.817 
       937.985 240.31 835.233 336.778"
       style="stroke:none; fill:#d8a461; fill-opacity:100%"></polygon>
      <polygon points="155.039 325.581 503.876 465.116 155.039 325.581"
       style="stroke:none; fill:#758296; fill-opacity:100%"></polygon>
      <polyline points="155.039 325.581 503.876 465.116"
       style="stroke:none;"></polyline>
      <polygon points="163.128 317.829 503.707 456.548 511.628 464.708 
       511.628 472.868 503.707 472.868 155.208 334.149 147.287 334.149 
       147.287 325.989 155.208 317.829 163.128 317.829"
       style="stroke:none; fill:#3b2913; fill-opacity:100%"></polygon>
      <polygon points="992.248 649.501 965.67 674.418 947.951 624.584 
       930.233 574.75 956.81 558.139 983.389 599.667 992.248 649.501"
       style="stroke:none; fill:#1b1b1b; fill-opacity:100%"></polygon>
      <polyline points="992.248 649.501 965.67 674.418 947.951 624.584 
       930.233 574.75 956.81 558.139 983.389 599.667 992.248 649.501"
       style="stroke:none;"></polyline>
      <polygon points="1007.75 658.915 978.682 679.588 968.992 689.923 
       998.062 658.915 1007.75 658.915"
       style="stroke:none; fill:#1a1a1a; fill-opacity:100%"></polygon>
      <polygon points="875.969 462.532 851.052 488.372 809.524 453.919 
       759.69 436.692 784.607 410.853 834.44 436.692 875.969 462.532"
       style="stroke:none; fill:#1b1b1b; fill-opacity:100%"></polygon>
      <polyline points="875.969 462.532 851.052 488.372 809.524 453.919 
       759.69 436.692 784.607 410.853 834.44 436.692 875.969 462.532"
       style="stroke:none;"></polyline>
      <polygon points="782.946 405.039 751.938 434.109 751.938 424.419 
       782.946 395.349 782.946 405.039"
       style="stroke:none; fill:#1a1a1a; fill-opacity:100%"></polygon>
      <polygon points="961.24 558.139 935.66 575.858 875.969 620.155 
       901.551 593.576 961.24 558.139"
       style="stroke:none; fill:#1a1a1a; fill-opacity:100%"></polygon>
      <polygon points="832.364 509.044 806.202 534.883 849.806 483.204 
       875.969 457.364 832.364 509.044"
       style="stroke:none; fill:#1a1a1a; fill-opacity:100%"></polygon>
      <polygon points="906.977 589.147 877.907 620.155 868.217 620.155 
       906.977 589.147"
       style="stroke:none; fill:#1a1a1a; fill-opacity:100%"></polygon>
      <polygon points="906.977 589.147 868.217 620.155 868.217 609.819 
       897.287 589.147 906.977 589.147"
       style="stroke:none; fill:#1a1a1a; fill-opacity:100%"></polygon>
      <polygon points="899.225 595.607 873.855 612.403 806.202 536.822 
       831.571 511.628 899.225 595.607"
       style="stroke:none; fill:#1a1a1a; fill-opacity:100%"></polygon>
      <polygon points="837.21 513.566 806.202 542.636 806.202 532.946 
       837.21 503.876 837.21 513.566"
       style="stroke:none; fill:#1a1a1a; fill-opacity:100%"></polygon>
      <polygon points="837.21 511.628 806.202 542.636 837.21 511.628"
       style="stroke:none; fill:#1a1a1a; fill-opacity:100%"></polygon>
      <polygon points="992.248 643.411 967.054 674.419 891.473 674.419 
       925.065 653.747 992.248 643.411"
       style="stroke:none; fill:#796548; fill-opacity:100%"></polygon>
      <polygon points="1000 658.915 974.806 689.923 899.225 689.923 
       924.419 658.915 1000 658.915"
       style="stroke:none; fill:#1a1a1a; fill-opacity:100%"></polygon>
      <polygon points="930.233 651.163 891.473 674.419 920.543 651.163 
       930.233 651.163"
       style="stroke:none; fill:#796548; fill-opacity:100%"></polygon>
      <polygon points="781.008 486.434 751.938 511.628 761.628 436.046 
       790.698 410.853 781.008 486.434"
       style="stroke:none; fill:#796548; fill-opacity:100%"></polygon>
      <polygon points="922.481 651.163 891.473 682.171 891.473 671.835 
       922.481 651.163"
       style="stroke:none; fill:#1a1a1a; fill-opacity:100%"></polygon>
      <polygon points="764.341 478.682 736.434 503.876 755.039 428.295 
       782.946 403.101 764.341 478.682"
       style="stroke:none; fill:#1a1a1a; fill-opacity:100%"></polygon>
      <polygon points="782.946 480.62 744.186 511.628 753.876 511.628 
       782.946 480.62"
       style="stroke:none; fill:#796548; fill-opacity:100%"></polygon>
      <polygon points="782.946 480.62 744.186 511.628 773.256 480.62 
       782.946 480.62"
       style="stroke:none; fill:#1a1a1a; fill-opacity:100%"></polygon>
      <polygon points="922.481 750.388 883.721 775.194 893.411 675.969 
       922.481 651.163 922.481 750.388"
       style="stroke:none; fill:#1a1a1a; fill-opacity:100%"></polygon>
      <polygon points="992.248 770.543 958.656 798.45 891.473 779.845 
       916.667 751.938 992.248 770.543"
       style="stroke:none; fill:#1a1a1a; fill-opacity:100%"></polygon>
      <polygon points="922.481 751.938 893.411 782.946 883.721 782.946 
       922.481 751.938"
       style="stroke:none; fill:#1a1a1a; fill-opacity:100%"></polygon>
      <polygon points="922.481 753.876 883.721 782.946 883.721 773.256 
       922.481 744.186 922.481 753.876"
       style="stroke:none; fill:#1a1a1a; fill-opacity:100%"></polygon>
      <polygon points="775.194 482.558 750.388 511.628 651.163 501.938 
       675.969 472.868 775.194 482.558"
       style="stroke:none; fill:#1a1a1a; fill-opacity:100%"></polygon>
      <polygon points="682.171 470.93 644.961 496.124 635.659 420.543 
       672.868 395.349 682.171 470.93"
       style="stroke:none; fill:#1a1a1a; fill-opacity:100%"></polygon>
      <polygon points="682.171 474.806 643.411 503.876 643.411 494.186 
       682.171 465.116 682.171 474.806"
       style="stroke:none; fill:#1a1a1a; fill-opacity:100%"></polygon>
      <polygon points="682.171 472.868 653.101 503.876 643.411 503.876 
       682.171 472.868"
       style="stroke:none; fill:#1a1a1a; fill-opacity:100%"></polygon>
      <polygon points="821.705 696.382 797.52 720.93 789.458 671.835 
       765.271 639.104 733.023 614.556 692.713 598.191 684.652 598.191 
       652.403 606.374 620.155 622.739 644.341 598.191 676.59 581.826 
       708.837 573.643 716.899 573.643 757.209 590.008 789.458 614.556 
       813.644 655.47 821.705 696.382"
       style="stroke:none; fill:#7e694a; fill-opacity:100%"></polygon>
      <polyline points="821.705 696.382 797.52 720.93 789.458 671.835 
       765.271 639.104 733.023 614.556 692.713 598.191 684.652 598.191 
       652.403 606.374 620.155 622.739 644.341 598.191 676.59 581.826 
       708.837 573.643 716.899 573.643 757.209 590.008 789.458 614.556 
       813.644 655.47 821.705 696.382"
       style="stroke:none;"></polyline>
      <polygon points="821.705 696.382 797.52 720.93 789.458 671.835 
       765.271 639.104 733.023 614.556 692.713 598.191 684.652 598.191 
       652.403 606.374 620.155 622.739 644.341 598.191 676.59 581.826 
       708.837 573.643 716.899 573.643 757.209 590.008 789.458 614.556 
       813.644 655.47 821.705 696.382"
       style="stroke:none; fill:#7e694a; fill-opacity:100%"></polygon>
      <polyline points="821.705 696.382 797.52 720.93 789.458 671.835 
       765.271 639.104 733.023 614.556 692.713 598.191 684.652 598.191 
       652.403 606.374 620.155 622.739 644.341 598.191 676.59 581.826 
       708.837 573.643 716.899 573.643 757.209 590.008 789.458 614.556 
       813.644 655.47 821.705 696.382"
       style="stroke:none;"></polyline>
      <polygon points="949.181 858.804 914.729 883.721 940.568 842.192 
       957.795 792.359 992.248 767.442 975.022 817.275 949.181 858.804"
       style="stroke:none; fill:#1b1b1b; fill-opacity:100%"></polygon>
      <polyline points="949.181 858.804 914.729 883.721 940.568 842.192 
       957.795 792.359 992.248 767.442 975.022 817.275 949.181 858.804"
       style="stroke:none;"></polyline>
      <polygon points="821.705 696.382 797.52 720.93 789.458 671.835 
       765.271 639.104 733.023 614.556 692.713 598.191 684.652 598.191 
       652.403 606.374 620.155 622.739 644.341 598.191 676.59 581.826 
       708.837 573.643 716.899 573.643 757.209 590.008 789.458 614.556 
       813.644 655.47 821.705 696.382"
       style="stroke:none; fill:#7e694a; fill-opacity:100%"></polygon>
      <polyline points="821.705 696.382 797.52 720.93 789.458 671.835 
       765.271 639.104 733.023 614.556 692.713 598.191 684.652 598.191 
       652.403 606.374 620.155 622.739 644.341 598.191 676.59 581.826 
       708.837 573.643 716.899 573.643 757.209 590.008 789.458 614.556 
       813.644 655.47 821.705 696.382"
       style="stroke:none;"></polyline>
      <polygon points="821.705 696.382 797.52 720.93 789.458 671.835 
       765.271 639.104 733.023 614.556 692.713 598.191 684.652 598.191 
       652.403 606.374 620.155 622.739 644.341 598.191 676.59 581.826 
       708.837 573.643 716.899 573.643 757.209 590.008 789.458 614.556 
       813.644 655.47 821.705 696.382"
       style="stroke:none; fill:#7e694a; fill-opacity:100%"></polygon>
      <polyline points="821.705 696.382 797.52 720.93 789.458 671.835 
       765.271 639.104 733.023 614.556 692.713 598.191 684.652 598.191 
       652.403 606.374 620.155 622.739 644.341 598.191 676.59 581.826 
       708.837 573.643 716.899 573.643 757.209 590.008 789.458 614.556 
       813.644 655.47 821.705 696.382"
       style="stroke:none;"></polyline>
      <polygon points="953.489 868.217 924.419 899.225 914.729 888.889 
       943.798 868.217 953.489 868.217"
       style="stroke:none; fill:#1a1a1a; fill-opacity:100%"></polygon>
      <polygon points="674.419 395.349 641.344 422.481 591.731 431.526 
       550.388 449.613 575.193 431.526 624.806 404.393 674.419 395.349"
       style="stroke:none; fill:#1b1b1b; fill-opacity:100%"></polygon>
      <polyline points="674.419 395.349 641.344 422.481 591.731 431.526 
       550.388 449.613 575.193 431.526 624.806 404.393 674.419 395.349"
       style="stroke:none;"></polyline>
      <polygon points="953.488 857.881 919.38 883.72 868.217 832.041 
       893.799 806.201 953.488 857.881"
       style="stroke:none; fill:#796548; fill-opacity:100%"></polygon>
      <polygon points="899.225 806.201 870.155 837.209 860.465 837.209 
       899.225 806.201"
       style="stroke:none; fill:#796548; fill-opacity:100%"></polygon>
      <polygon points="778.101 765.503 751.938 790.697 778.101 757.105 
       795.543 715.116 821.705 689.922 812.985 731.912 778.101 765.503"
       style="stroke:none; fill:#7e694a; fill-opacity:100%"></polygon>
      <polyline points="778.101 765.503 751.938 790.697 778.101 757.105 
       795.543 715.116 821.705 689.922 812.985 731.912 778.101 765.503"
       style="stroke:none;"></polyline>
      <polygon points="889.535 806.201 860.465 837.209 899.225 806.201 
       889.535 806.201"
       style="stroke:none; fill:#1a1a1a; fill-opacity:100%"></polygon>
      <polygon points="620.155 486.047 593.992 511.628 550.388 443.41 
       576.55 426.357 620.155 486.047"
       style="stroke:none; fill:#796548; fill-opacity:100%"></polygon>
      <polygon points="620.155 490.31 589.147 519.38 589.147 509.69 
       620.155 480.62 620.155 490.31"
       style="stroke:none; fill:#796548; fill-opacity:100%"></polygon>
      <polygon points="565.892 428.941 534.884 449.613 565.892 418.605 
       565.892 428.941"
       style="stroke:none; fill:#1a1a1a; fill-opacity:100%"></polygon>
      <polygon points="778.101 765.503 751.938 790.697 778.101 757.105 
       795.543 715.116 821.705 689.922 812.985 731.912 778.101 765.503"
       style="stroke:none; fill:#7e694a; fill-opacity:100%"></polygon>
      <polyline points="778.101 765.503 751.938 790.697 778.101 757.105 
       795.543 715.116 821.705 689.922 812.985 731.912 778.101 765.503"
       style="stroke:none;"></polyline>
      <polygon points="945.736 874.031 920.156 891.472 860.465 839.147 
       894.574 821.705 945.736 874.031"
       style="stroke:none; fill:#1a1a1a; fill-opacity:100%"></polygon>
      <polygon points="620.155 488.372 589.147 519.38 620.155 488.372"
       style="stroke:none; fill:#796548; fill-opacity:100%"></polygon>
      <polygon points="604.651 494.574 578.488 511.628 534.884 443.41 
       561.047 426.357 604.651 494.574"
       style="stroke:none; fill:#1a1a1a; fill-opacity:100%"></polygon>
      <polygon points="821.705 696.382 797.52 720.93 789.458 671.835 
       765.271 639.104 733.023 614.556 692.713 598.191 684.652 598.191 
       652.403 606.374 620.155 622.739 644.341 598.191 676.59 581.826 
       708.837 573.643 716.899 573.643 757.209 590.008 789.458 614.556 
       813.644 655.47 821.705 696.382"
       style="stroke:none; fill:#7e694a; fill-opacity:100%"></polygon>
      <polyline points="821.705 696.382 797.52 720.93 789.458 671.835 
       765.271 639.104 733.023 614.556 692.713 598.191 684.652 598.191 
       652.403 606.374 620.155 622.739 644.341 598.191 676.59 581.826 
       708.837 573.643 716.899 573.643 757.209 590.008 789.458 614.556 
       813.644 655.47 821.705 696.382"
       style="stroke:none;"></polyline>
      <polygon points="806.202 696.64 781.889 713.178 773.785 680.104 
       757.576 647.029 725.158 622.222 692.741 605.685 684.638 605.685 
       652.22 613.953 627.907 630.491 652.22 605.685 676.533 589.147 
       708.95 589.147 717.054 589.147 757.576 597.416 781.889 622.222 
       806.202 655.297 806.202 696.64"
       style="stroke:none; fill:#1b1b1b; fill-opacity:100%"></polygon>
      <polyline points="806.202 696.64 781.889 713.178 773.785 680.104 
       757.576 647.029 725.158 622.222 692.741 605.685 684.638 605.685 
       652.22 613.953 627.907 630.491 652.22 605.685 676.533 589.147 
       708.95 589.147 717.054 589.147 757.576 597.416 781.889 622.222 
       806.202 655.297 806.202 696.64"
       style="stroke:none;"></polyline>
      <polygon points="779.623 758.139 744.186 775.193 770.764 749.612 
       779.623 706.976 806.202 689.922 797.342 724.031 779.623 758.139"
       style="stroke:none; fill:#1b1b1b; fill-opacity:100%"></polygon>
      <polyline points="779.623 758.139 744.186 775.193 770.764 749.612 
       779.623 706.976 806.202 689.922 797.342 724.031 779.623 758.139"
       style="stroke:none;"></polyline>
      <polygon points="778.101 765.503 751.938 790.697 778.101 757.105 
       795.543 715.116 821.705 689.922 812.985 731.912 778.101 765.503"
       style="stroke:none; fill:#7e694a; fill-opacity:100%"></polygon>
      <polyline points="778.101 765.503 751.938 790.697 778.101 757.105 
       795.543 715.116 821.705 689.922 812.985 731.912 778.101 765.503"
       style="stroke:none;"></polyline>
      <polygon points="815.891 874.418 790.698 891.472 866.279 831.782 
       891.473 806.201 815.891 874.418"
       style="stroke:none; fill:#1a1a1a; fill-opacity:100%"></polygon>
      <polygon points="545.455 540.052 511.628 565.891 579.281 505.599 
       604.651 488.372 545.455 540.052"
       style="stroke:none; fill:#1a1a1a; fill-opacity:100%"></polygon>
      <polygon points="821.706 868.217 790.698 899.225 790.698 888.889 
       821.706 868.217"
       style="stroke:none; fill:#1a1a1a; fill-opacity:100%"></polygon>
      <polygon points="821.706 878.553 790.698 899.225 821.706 868.217 
       821.706 878.553"
       style="stroke:none; fill:#1a1a1a; fill-opacity:100%"></polygon>
      <polygon points="544.574 556.59 519.38 573.643 594.961 513.954 
       620.155 488.372 544.574 556.59"
       style="stroke:none; fill:#796548; fill-opacity:100%"></polygon>
      <polygon points="875.969 937.984 846.899 958.656 837.209 968.992 
       866.279 937.984 875.969 937.984"
       style="stroke:none; fill:#1a1a1a; fill-opacity:100%"></polygon>
      <polygon points="550.388 550.388 511.628 581.396 521.318 571.059 
       550.388 550.388"
       style="stroke:none; fill:#796548; fill-opacity:100%"></polygon>
      <polygon points="550.388 550.388 511.628 581.396 511.628 571.059 
       540.698 550.388 550.388 550.388"
       style="stroke:none; fill:#1a1a1a; fill-opacity:100%"></polygon>
      <polygon points="860.465 935.659 834.302 961.24 790.698 893.023 
       816.86 875.969 860.465 935.659"
       style="stroke:none; fill:#1a1a1a; fill-opacity:100%"></polygon>
      <polygon points="488.372 488.372 449.612 519.38 459.302 509.044 
       488.372 488.372"
       style="stroke:none; fill:#1a1a1a; fill-opacity:100%"></polygon>
      <polygon points="542.635 556.202 517.054 573.643 457.364 521.318 
       482.945 503.876 542.635 556.202"
       style="stroke:none; fill:#1a1a1a; fill-opacity:100%"></polygon>
      <polygon points="789.505 613.838 813.656 654.034 821.705 694.228 
       813.656 734.423 789.505 758.541 757.305 782.658 725.104 790.697 
       709.004 790.697 668.754 774.619 636.553 750.502 620.453 710.306 
       612.403 670.112 620.453 629.917 644.604 597.76 676.804 581.682 
       709.004 573.643 717.054 573.643 757.305 589.721 789.505 613.838"
       style="stroke:none; fill:#313131; fill-opacity:100%"></polygon>
      <polygon points="767.442 894.057 728.682 914.729 767.442 883.721 
       767.442 894.057"
       style="stroke:none; fill:#796548; fill-opacity:100%"></polygon>
      <polygon points="767.442 883.721 728.682 914.729 757.752 883.721 
       767.442 883.721"
       style="stroke:none; fill:#796548; fill-opacity:100%"></polygon>
      <polygon points="527.132 604.651 488.372 635.659 517.442 604.651 
       527.132 604.651"
       style="stroke:none; fill:#796548; fill-opacity:100%"></polygon>
      <polygon points="527.132 614.987 488.372 635.659 527.132 604.651 
       527.132 614.987"
       style="stroke:none; fill:#796548; fill-opacity:100%"></polygon>
      <polygon points="775.194 967.583 737.984 984.496 728.682 908.386 
       765.891 891.473 775.194 967.583"
       style="stroke:none; fill:#796548; fill-opacity:100%"></polygon>
      <polygon points="860.465 930.233 835.659 957.364 786.047 975.452 
       736.434 984.496 769.509 966.408 819.121 948.32 860.465 930.233"
       style="stroke:none; fill:#7e694a; fill-opacity:100%"></polygon>
      <polyline points="860.465 930.233 835.659 957.364 786.047 975.452 
       736.434 984.496 769.509 966.408 819.121 948.32 860.465 930.233"
       style="stroke:none;"></polyline>
      <polygon points="519.38 607.752 494.186 635.659 418.605 607.752 
       443.798 589.147 519.38 607.752"
       style="stroke:none; fill:#796548; fill-opacity:100%"></polygon>
      <polygon points="444.767 595.706 418.605 612.403 436.047 570.661 
       462.209 520.573 488.372 503.876 462.209 545.618 444.767 595.706"
       style="stroke:none; fill:#7e694a; fill-opacity:100%"></polygon>
      <polyline points="444.767 595.706 418.605 612.403 436.047 570.661 
       462.209 520.573 488.372 503.876 462.209 545.618 444.767 595.706"
       style="stroke:none;"></polyline>
      <polygon points="868.217 937.984 843.507 964.562 794.09 991.141 
       736.434 1000 761.144 973.422 818.798 964.562 868.217 937.984"
       style="stroke:none; fill:#1b1b1b; fill-opacity:100%"></polygon>
      <polyline points="868.217 937.984 843.507 964.562 794.09 991.141 
       736.434 1000 761.144 973.422 818.798 964.562 868.217 937.984"
       style="stroke:none;"></polyline>
      <polygon points="759.69 975.452 730.62 992.248 720.93 916.667 
       750 891.473 759.69 975.452"
       style="stroke:none; fill:#1a1a1a; fill-opacity:100%"></polygon>
      <polygon points="767.442 968.992 738.372 1000 728.682 1000 
       757.752 968.992 767.442 968.992"
       style="stroke:none; fill:#1a1a1a; fill-opacity:100%"></polygon>
      <polygon points="759.69 968.992 728.682 1000 728.682 989.664 
       759.69 968.992"
       style="stroke:none; fill:#1a1a1a; fill-opacity:100%"></polygon>
      <polygon points="437.21 595.445 403.101 620.155 428.683 562.499 
       454.263 513.082 488.372 488.372 454.263 537.791 437.21 595.445"
       style="stroke:none; fill:#1b1b1b; fill-opacity:100%"></polygon>
      <polyline points="437.21 595.445 403.101 620.155 428.683 562.499 
       454.263 513.082 488.372 488.372 454.263 537.791 437.21 595.445"
       style="stroke:none;"></polyline>
      <polygon points="511.628 615.504 486.434 643.411 410.853 624.806 
       436.047 596.899 511.628 615.504"
       style="stroke:none; fill:#1a1a1a; fill-opacity:100%"></polygon>
      <polygon points="441.861 596.899 412.791 627.907 403.101 617.571 
       432.171 596.899 441.861 596.899"
       style="stroke:none; fill:#1a1a1a; fill-opacity:100%"></polygon>
      <polygon points="432.171 599.483 403.101 620.155 441.861 589.147 
       432.171 599.483"
       style="stroke:none; fill:#1a1a1a; fill-opacity:100%"></polygon>
      <polygon points="759.69 885.659 734.884 914.729 635.659 895.349 
       660.465 875.969 759.69 885.659"
       style="stroke:none; fill:#796548; fill-opacity:100%"></polygon>
      <polygon points="666.667 875.969 637.597 899.225 627.907 899.225 
       666.667 875.969"
       style="stroke:none; fill:#796548; fill-opacity:100%"></polygon>
      <polygon points="751.938 893.411 727.021 922.481 635.659 912.791 
       668.882 883.721 751.938 893.411"
       style="stroke:none; fill:#1a1a1a; fill-opacity:100%"></polygon>
      <polygon points="517.442 712.071 488.372 728.682 488.372 629.014 
       527.132 612.403 517.442 712.071"
       style="stroke:none; fill:#796548; fill-opacity:100%"></polygon>
      <polygon points="656.977 875.969 627.907 906.977 627.907 896.641 
       666.667 875.969 656.977 875.969"
       style="stroke:none; fill:#1a1a1a; fill-opacity:100%"></polygon>
      <polygon points="519.38 705.426 488.372 736.434 488.372 726.098 
       519.38 705.426"
       style="stroke:none; fill:#796548; fill-opacity:100%"></polygon>
      <polygon points="511.628 703.765 480.62 728.682 480.62 637.32 
       511.628 612.403 511.628 703.765"
       style="stroke:none; fill:#1a1a1a; fill-opacity:100%"></polygon>
      <polygon points="519.38 705.426 490.31 736.434 480.62 736.434 
       519.38 705.426"
       style="stroke:none; fill:#1a1a1a; fill-opacity:100%"></polygon>
      <polygon points="612.403 831.395 573.643 860.465 573.643 850.775 
       602.713 821.705 612.403 831.395"
       style="stroke:none; fill:#796548; fill-opacity:100%"></polygon>
      <polygon points="604.651 827.519 579.281 852.713 511.628 777.132 
       536.998 751.938 604.651 827.519"
       style="stroke:none; fill:#796548; fill-opacity:100%"></polygon>
      <polygon points="542.636 751.938 513.566 782.946 503.876 772.61 
       542.636 751.938"
       style="stroke:none; fill:#796548; fill-opacity:100%"></polygon>
      <polygon points="602.713 829.457 573.643 860.465 612.403 829.457 
       602.713 829.457"
       style="stroke:none; fill:#796548; fill-opacity:100%"></polygon>
      <polygon points="542.636 751.938 503.876 772.61 503.876 782.946 
       532.946 751.938 542.636 751.938"
       style="stroke:none; fill:#796548; fill-opacity:100%"></polygon>
      <polygon points="596.899 835.271 563.073 860.465 503.876 784.884 
       529.246 759.69 596.899 835.271"
       style="stroke:none; fill:#1a1a1a; fill-opacity:100%"></polygon>
      <polygon points="649.612 951.55 612.403 976.744 631.008 901.163 
       658.915 875.969 649.612 951.55"
       style="stroke:none; fill:#1a1a1a; fill-opacity:100%"></polygon>
      <polygon points="658.915 961.24 629.845 992.248 620.155 981.912 
       649.225 961.24 658.915 961.24"
       style="stroke:none; fill:#1a1a1a; fill-opacity:100%"></polygon>
      <polygon points="519.38 705.426 485.987 736.434 410.853 736.434 
       435.898 715.762 519.38 705.426"
       style="stroke:none; fill:#1a1a1a; fill-opacity:100%"></polygon>
      <polygon points="434.109 707.364 403.101 736.434 403.101 726.744 
       434.109 697.674 434.109 707.364"
       style="stroke:none; fill:#1a1a1a; fill-opacity:100%"></polygon>
      <polygon points="472.869 796.661 446.29 821.705 428.572 779.965 
       410.853 729.875 437.432 713.178 455.149 754.92 472.869 796.661"
       style="stroke:none; fill:#7e694a; fill-opacity:100%"></polygon>
      <polyline points="472.869 796.661 446.29 821.705 428.572 779.965 
       410.853 729.875 437.432 713.178 455.149 754.92 472.869 796.661"
       style="stroke:none;"></polyline>
      <polygon points="534.883 751.938 509.513 778.101 441.86 821.705 
       467.23 795.543 534.883 751.938"
       style="stroke:none; fill:#796548; fill-opacity:100%"></polygon>
      <polygon points="553.489 897.111 519.38 922.48 579.07 854.827 
       604.651 829.457 553.489 897.111"
       style="stroke:none; fill:#796548; fill-opacity:100%"></polygon>
      <polygon points="651.163 951.163 618.217 976.744 568.798 951.163 
       519.38 917.054 552.326 891.473 593.507 925.581 651.163 951.163"
       style="stroke:none; fill:#7e694a; fill-opacity:100%"></polygon>
      <polyline points="651.163 951.163 618.217 976.744 568.798 951.163 
       519.38 917.054 552.326 891.473 593.507 925.581 651.163 951.163"
       style="stroke:none;"></polyline>
      <polygon points="999.895 662.533 929.185 662.533 929.185 748.94 
       999.895 764.651 999.895 772.507 984.182 827.493 952.755 874.625 
       944.898 874.625 897.758 827.493 834.904 882.481 874.188 937.468 
       874.188 945.323 866.331 945.323 819.191 968.889 764.195 976.744 
       756.338 976.744 748.481 898.191 669.914 890.336 654.201 961.033 
       654.201 968.889 646.344 968.889 591.347 945.323 536.351 906.046 
       528.494 898.191 536.351 898.191 591.347 835.348 528.494 764.651 
       465.64 811.782 457.783 811.782 457.783 803.928 434.214 756.796 
       426.357 709.664 426.357 701.808 434.214 701.808 504.924 701.808 
       504.924 615.4 434.214 599.69 426.357 599.69 434.214 591.834 
       449.926 536.848 481.353 489.716 489.21 489.716 544.207 536.848 
       599.204 489.716 559.921 426.874 559.921 419.018 567.777 419.018 
       614.917 395.452 669.914 387.597 677.771 387.597 685.628 466.15 
       764.195 474.005 779.908 403.308 779.908 395.452 787.765 395.452 
       842.761 419.018 889.902 450.439 897.758 458.294 889.902 466.15 
       850.618 513.282 905.615 576.124 960.611 544.703 968.468 544.703 
       992.038 599.69 1007.75 654.677 1007.75 662.533 999.895 662.533"
       style="stroke:none; fill:#313131; fill-opacity:100%"></polygon>
      <polygon points="921.499 654.667 929.36 654.667 992.249 646.809 
       984.388 599.66 960.804 560.369 905.777 591.802 897.916 591.802 
       835.026 513.221 835.026 505.363 874.332 458.214 835.026 434.639 
       787.86 411.065 779.999 481.788 772.137 481.788 677.804 473.93 
       677.804 466.072 669.943 395.349 622.776 403.207 575.609 426.782 
       614.915 481.788 614.915 489.646 544.165 552.512 536.304 552.512 
       481.275 505.363 457.692 544.654 441.969 591.802 512.72 607.518 
       520.581 607.518 520.581 615.376 512.72 709.674 434.109 717.532 
       449.83 756.823 465.553 796.114 528.442 756.823 536.304 756.823 
       599.192 827.545 607.053 835.404 599.192 835.404 552.026 898.269 
       591.331 929.701 646.359 953.276 654.221 882.553 662.082 882.553 
       756.415 890.411 764.276 890.411 764.276 898.269 772.137 968.992 
       819.304 953.276 858.61 937.56 819.304 882.553 819.304 874.695 
       890.054 811.829 897.916 811.829 952.943 858.978 976.527 819.687 
       992.249 772.539 921.499 756.823 921.499 748.965 921.499 654.667"
       style="stroke:none; fill:#e8c289; fill-opacity:100%"></polygon>
      <polyline points="921.499 654.667 929.36 654.667 992.249 646.809 
       984.388 599.66 960.804 560.369 905.777 591.802 897.916 591.802 
       835.026 513.221 835.026 505.363 874.332 458.214 835.026 434.639 
       787.86 411.065 779.999 481.788 772.137 481.788 677.804 473.93 
       677.804 466.072 669.943 395.349 622.776 403.207 575.609 426.782 
       614.915 481.788 614.915 489.646 544.165 552.512 536.304 552.512 
       481.275 505.363 457.692 544.654 441.969 591.802 512.72 607.518 
       520.581 607.518 520.581 615.376 512.72 709.674 434.109 717.532 
       449.83 756.823 465.553 796.114 528.442 756.823 536.304 756.823 
       599.192 827.545 607.053 835.404 599.192 835.404 552.026 898.269 
       591.331 929.701 646.359 953.276 654.221 882.553 662.082 882.553 
       756.415 890.411 764.276 890.411 764.276 898.269 772.137 968.992 
       819.304 953.276 858.61 937.56 819.304 882.553 819.304 874.695 
       890.054 811.829 897.916 811.829 952.943 858.978 976.527 819.687 
       992.249 772.539 921.499 756.823 921.499 748.965 921.499 654.667"
       style="stroke:none;"></polyline>
      <polygon points="821.705 694.228 813.656 654.034 789.505 613.838 
       757.305 589.721 717.054 573.643 709.004 573.643 676.804 581.682 
       644.604 597.76 620.453 629.917 612.403 670.112 620.453 710.306 
       636.553 750.502 668.754 774.619 709.004 790.697 725.104 790.697 
       757.305 782.658 789.505 758.541 813.656 734.423 821.705 694.228"
       style="stroke:none; fill:#1b1b1b; fill-opacity:100%"></polygon>
      <polyline points="821.705 694.228 813.656 654.034 789.505 613.838 
       757.305 589.721 717.054 573.643 709.004 573.643 676.804 581.682 
       644.604 597.76 620.453 629.917 612.403 670.112 620.453 710.306 
       636.553 750.502 668.754 774.619 709.004 790.697 725.104 790.697 
       757.305 782.658 789.505 758.541 813.656 734.423 821.705 694.228"
       style="stroke:none;"></polyline>
      <polygon points="534.883 759.69 509.513 785.853 441.86 829.457 
       467.23 812.015 534.883 759.69"
       style="stroke:none; fill:#1a1a1a; fill-opacity:100%"></polygon>
      <polygon points="537.21 897.111 511.628 922.48 562.791 854.827 
       596.899 829.457 537.21 897.111"
       style="stroke:none; fill:#1a1a1a; fill-opacity:100%"></polygon>
      <polygon points="465.116 804.652 438.539 829.457 411.961 779.845 
       403.101 730.232 429.68 705.426 438.539 755.039 465.116 804.652"
       style="stroke:none; fill:#1b1b1b; fill-opacity:100%"></polygon>
      <polyline points="465.116 804.652 438.539 829.457 411.961 779.845 
       403.101 730.232 429.68 705.426 438.539 755.039 465.116 804.652"
       style="stroke:none;"></polyline>
      <polygon points="472.869 806.201 443.798 826.873 434.109 837.209 
       463.178 806.201 472.869 806.201"
       style="stroke:none; fill:#1a1a1a; fill-opacity:100%"></polygon>
      <polygon points="465.117 808.139 434.109 837.21 434.109 827.519 
       465.117 798.45 465.117 808.139"
       style="stroke:none; fill:#1a1a1a; fill-opacity:100%"></polygon>
      <polygon points="651.163 967.442 626.539 984.496 560.876 958.915 
       511.628 924.806 536.252 899.225 593.707 941.86 651.163 967.442"
       style="stroke:none; fill:#1b1b1b; fill-opacity:100%"></polygon>
      <polyline points="651.163 967.442 626.539 984.496 560.876 958.915 
       511.628 924.806 536.252 899.225 593.707 941.86 651.163 967.442"
       style="stroke:none;"></polyline>
      <polygon points="542.636 901.163 513.566 930.233 503.876 920.543 
       532.946 891.473 542.636 901.163"
       style="stroke:none; fill:#1a1a1a; fill-opacity:100%"></polygon>
      <polygon points="532.946 891.473 503.876 922.481 513.566 922.481 
       542.636 891.473 532.946 891.473"
       style="stroke:none; fill:#1a1a1a; fill-opacity:100%"></polygon>
    </g>
  </symbol>
 </defs>
 <use xlink:href="#_002as7v00mk7cn1g6vsv"/>
</svg>
