<?xml version="1.0"?>
<?metis version="3.2"?>
<?metisxml version="1.1"?>
<!DOCTYPE svg  PUBLIC "-//W3C//DTD SVG August 1999//EN"
 "http://www.w3.org/Graphics/SVG/svg-19990812.dtd">

<svg width="200" height="200">
 <title>Symbol library: action.svg</title>
 <defs>
  <symbol id="oid0" xml:space="preserve" class="METIS_SYMBOL">
   <title>Action</title>
    <polygon points="0 0 0 304 16.2963 320 
     880 320 880 16 863.704 0 0 0 
     0 0 0 0 0 0 0 0 
     0 0 0 0 0 0 "
     style=" stroke:#000000; stroke-width:1; fill:#9b9b9b; fill-opacity:100%"     class="TAG:shadow"></polygon>
    <rect x="0" y="0" width="240" height="304"
     style=" stroke:#000000; stroke-width:1; fill:#ffffff; fill-opacity:100%"     class="TAG:PictureBackground"></rect>
    <rect x="240" y="0" width="624" height="304"
     style=" stroke:#000000; stroke-width:1; fill:#96a5ff; fill-opacity:100%"     class="TAG:canvas"></rect>
    <rect x="245.357" y="25.7143" width="569.522" height="231.429"
     style="stroke:none; fill:#878787; fill-opacity:0%"     class="TAG:grid"></rect>
    <g>
      <desc>METIS_TEXT_GROUP</desc>
      <text  x="256" y="15"
       style=" stroke:#000000; stroke-width:1; font-family:sans-serif; font-size:16;"
       class="TAG:text">text</text>
      <rect x="256" y="0" width="608" height="304"
       style=" stroke:#000000; stroke-width:1; fill:#ffffff; fill-opacity:0%"></rect>
    </g>
    <polyline points="864 304 880 320"
     style=" stroke:#000000; stroke-width:1;"></polyline>
    <g>
      <polygon points="31.6982 142.23 223.999 142.23 223.999 271.499 
       31.6982 271.499 31.6982 142.23 31.6982 142.23 31.6982 142.23 
       31.6982 142.23 31.6982 142.23 "
       style=" stroke:#000000; stroke-width:1; fill:#ffffff; fill-opacity:100%"       class="TAG:BaseColor"></polygon>
      <polygon points="31.6982 143.233 16 107.157 187.698 32 
       204.377 70.0795 31.6982 143.233 31.6982 143.233 31.6982 143.233 
       31.6982 143.233 31.6982 143.233 "
       style=" stroke:#000000; stroke-width:1; fill:#ffffff; fill-opacity:100%"       class="TAG:BaseColor"></polygon>
      <polyline points="31.6982 176.302 223.999 176.302"
       style=" stroke:#000000; stroke-width:1;"></polyline>
      <polygon points="31.6982 149.244 58.189 176.3 80.7544 176.3 
       47.3965 142.23 31.6982 142.23 31.6982 149.244 31.6982 149.244 
       31.6982 149.244 31.6982 149.244 31.6982 149.244 "
       style=" stroke:#000000; stroke-width:1; fill:#000000; fill-opacity:100%"       class="TAG:Stripes"></polygon>
      <polygon points="72.9056 142.23 106.264 176.3 129.811 176.3 
       96.4527 142.23 72.9056 142.23 72.9056 142.23 72.9056 142.23 
       72.9056 142.23 72.9056 142.23 "
       style=" stroke:#000000; stroke-width:1; fill:#000000; fill-opacity:100%"       class="TAG:Stripes"></polygon>
      <polygon points="121.962 142.23 155.32 176.3 178.867 176.3 
       145.509 142.23 121.962 142.23 121.962 142.23 121.962 142.23 
       121.962 142.23 121.962 142.23 "
       style=" stroke:#000000; stroke-width:1; fill:#000000; fill-opacity:100%"       class="TAG:Stripes"></polygon>
      <polygon points="167.094 142.23 200.453 176.3 224 176.3 
       190.641 142.23 167.094 142.23 167.094 142.23 167.094 142.23 
       167.094 142.23 167.094 142.23 "
       style=" stroke:#000000; stroke-width:1; fill:#000000; fill-opacity:100%"       class="TAG:Stripes"></polygon>
      <polygon points="31.6982 139.224 48.3775 93.1275 68.9809 84.1086 
       50.3396 135.215 31.6982 143.233 31.6982 139.224 31.6982 139.224 
       31.6982 139.224 31.6982 139.224 31.6982 139.224 "
       style=" stroke:#000000; stroke-width:1; fill:#000000; fill-opacity:100%"       class="TAG:Stripes"></polygon>
      <polygon points="87.1317 76.5932 107.245 67.0732 90.5659 119.182 
       70.4524 126.698 87.1317 76.5932 87.1317 76.5932 87.1317 76.5932 
       87.1317 76.5932 87.1317 76.5932 "
       style=" stroke:#000000; stroke-width:1; fill:#000000; fill-opacity:100%"       class="TAG:Stripes"></polygon>
      <polygon points="127.113 58.8058 147.227 49.286 130.547 101.395 
       110.434 108.911 127.113 58.8058 127.113 58.8058 127.113 58.8058 
       127.113 58.8058 127.113 58.8058 "
       style=" stroke:#000000; stroke-width:1; fill:#000000; fill-opacity:100%"       class="TAG:Stripes"></polygon>
      <polygon points="167.339 41.7703 187.453 32.2505 170.774 84.3595 
       150.66 91.875 167.339 41.7703 167.339 41.7703 167.339 41.7703 
       167.339 41.7703 167.339 41.7703 "
       style=" stroke:#000000; stroke-width:1; fill:#000000; fill-opacity:100%"       class="TAG:Stripes"></polygon>
      <rect x="32.1887" y="175.799" width="191.321" height="96.2007"
       style=" stroke:#000000; stroke-width:1; fill:#000000; fill-opacity:100%"       class="TAG:Rectangle"></rect>
    </g>
  </symbol>
 </defs>
</svg>
