<?xml version="1.0"?>
<?metis version="3.1.1"?>
<?metisxml version="1.0"?>
<!DOCTYPE svg  PUBLIC "-//W3C//DTD SVG August 1999//EN"
 "http://www.w3.org/Graphics/SVG/svg-19990812.dtd">

<svg width="200" height="200">
 <title>Symbol library: actor.svg</title>
 <defs>
  <symbol id="oid0" xml:space="preserve" class="METIS_SYMBOL">
   <title>Untitled</title>
    <ellipse  cx="147" cy="16" rx="16" ry="16"
     style=" stroke:#000000; stroke-width:1; fill:#96a5ff; fill-opacity:100%"     class="TAG:head"></ellipse>
    <path d="M 139.067 30.1718 C 139.067 30.1718 123.163 32.0753 
     115.067 40.1718 C 107.067 48.1718 109.24 63.3578 107.067 72.1718 
     C 103.717 85.7558 94.2147 99.3197 99.0666 104.172 C 103.144 108.249 
     102.667 108.572 107.067 104.172 C 118.066 93.1718 119.204 64.8723 
     123.067 64.1718 C 129.667 62.9748 126.636 93.8978 126.215 112.172 
     C 125.982 122.244 123.247 132.312 118.215 144.172 C 115.109 151.492 
     107.194 151.926 110.215 160.172 C 112.538 166.515 120.087 162.578 
     126.215 160.172 C 132.294 157.785 131.911 150.951 134.215 144.172 
     C 140.784 124.841 140.442 104.172 150.215 104.172 C 159.987 104.172 
     151.645 116.841 158.215 136.172 C 160.059 141.598 172.925 143.987 
     174.215 144.172 C 181.215 145.172 178.215 145.172 182.215 144.172 
     C 190.691 142.053 182.215 136.172 174.215 128.172 C 164.987 118.944 
     167.519 121.413 166.215 112.172 C 163.988 96.4003 163.067 64.1718 
     171.067 64.1718 C 174.66 64.1718 175.947 95.0563 187.067 104.172 
     C 189.247 105.959 193.139 106.355 195.067 104.172 C 202.644 95.5878 
     189.044 83.7348 187.067 72.1718 C 184.99 60.0263 186.639 47.7439 
     179.067 40.1718 C 167.067 28.1718 163.067 30.1718 155.067 30.1718 
     C 155.067 30.1718 147.067 32.1718 147.067 32.1718 Z"
     style=" stroke:#000000; stroke-width:1; fill:#96a5ff; fill-opacity:100%"     class="TAG:body"></path>
    <g>
      <desc>METIS_TEXT_GROUP</desc>
      <text  x="0" y="195.5"
       style=" stroke:#000000; stroke-width:1; font-family:sans-serif; font-size:20; text-align:center"
       class="TAG:text">text</text>
      <rect x="0" y="176" width="304" height="112"
       style=" stroke:#000000; stroke-width:1; fill:#ffffff; fill-opacity:0%"></rect>
    </g>
  </symbol>
 </defs>
</svg>
