<?xml version="1.0"?>
<?metis version="3.3"?>
<?metisxml version="1.1"?>
<!DOCTYPE svg  PUBLIC "-//W3C//DTD SVG August 1999//EN"
 "http://www.w3.org/Graphics/SVG/svg-19990812.dtd">

<svg width="200" height="200">
 <title>Symbol library: interface.svg</title>
 <defs>
  <symbol id="oid1" xml:space="preserve" class="METIS_SYMBOL">
   <title>Interface</title>
    <g>
      <polygon points="0 0 0 303.158 16.2963 320 
       880 319.737 880 21.3158 863.704 0 0 0 
       0 0 0 0 0 0 "
       style=" stroke:#000000; stroke-width:1; fill:#9b9b9b; fill-opacity:100%"       class="TAG:shadow"></polygon>
      <rect x="0" y="0" width="243" height="303.158"
       style=" stroke:#000000; stroke-width:1; fill:#ffffff; fill-opacity:100%"       class="TAG:PictureBackground"></rect>
      <rect x="243" y="0" width="621" height="303.158"
       style=" stroke:#000000; stroke-width:1; fill:#b9b9b9; fill-opacity:100%"       class="TAG:canvas"></rect>
      <g>
	<desc>METIS_TEXT_GROUP</desc>
	<text  x="256" y="15"
	 style=" stroke:#000000; stroke-width:1; font-family:sans-serif; font-size:16;"
	 class="TAG:text">text</text>
	<rect x="256" y="0" width="608" height="303.158"
	 style=" stroke:#000000; stroke-width:1; fill:#ffffff; fill-opacity:0%"></rect>
      </g>
      <polyline points="864 303.158 880 320"
       style=" stroke:#000000; stroke-width:1;"></polyline>
      <g>
	<rect x="16" y="84.2105" width="208" height="117.895"
	 style=" stroke:#000000; stroke-width:1; fill:#ffffa5; fill-opacity:100%"></rect>
	<polyline points="16 202.105 120 119.579 224 202.105"
	 style=" stroke:#000000; stroke-width:1;"></polyline>
	<polygon points="16 84.2105 120 166.737 224 84.2105 
	 16 84.2105 16 84.2105 16 84.2105 16 84.2105 "
	 style=" stroke:#000000; stroke-width:1; fill:#fffce1; fill-opacity:100%"></polygon>
      </g>
    </g>
  </symbol>
 </defs>
</svg>
