<?xml version="1.0"?>
<?metis version="3.1"?>
<?metisxml version="1.0"?>
<!DOCTYPE svg  PUBLIC "-//W3C//DTD SVG August 1999//EN"
 "http://www.w3.org/Graphics/SVG/svg-19990812.dtd">

<svg width="200" height="200">
 <title>Symbol library: skill.svg</title>
 <defs>
  <symbol id="oid1" xml:space="preserve" class="METIS_SYMBOL">
   <title>skill</title>
    <rect x="5.32907e-015" y="0" width="199.71" height="224"
     style=" stroke:#000000; stroke-width:1; fill:#ffffa5; fill-opacity:100%"     class="TAG:PictureBackgrund"></rect>
    <rect x="199.71" y="0" width="456.481" height="224"
     style=" stroke:#000000; stroke-width:1; fill:#ffa596; fill-opacity:100%"></rect>
    <g>
      <desc>METIS_TEXT_GROUP</desc>
      <text  x="208" y="15"
       style=" stroke:#000000; stroke-width:1; font-family:sans-serif; font-size:15;"
       class="TAG:text">text</text>
      <rect x="208" y="0" width="448.191" height="224.381"
       style=" stroke:#000000; stroke-width:1; fill:#ffffff; fill-opacity:0%"></rect>
    </g>
    <polygon points="109.269 223.345 43.8084 193.456 45.1672 189.652 
     46.2999 185.576 47.4324 181.501 48.3384 177.696 48.7915 173.62 
     49.0179 169.817 48.5648 165.741 47.206 161.937 45.6203 157.861 
     44.0348 153.785 41.9962 149.98 40.1841 146.177 38.3721 142.373 
     36.3335 138.841 34.748 135.036 32.9359 131.232 31.3503 127.428 
     30.2178 123.352 29.0852 119.276 28.1792 114.657 27.7262 109.766 
     27.4997 104.604 27.7262 99.1693 28.1792 93.1913 29.0852 88.8439 
     30.2178 84.4963 31.3503 80.4205 32.7094 76.6165 34.2949 72.8124 
     36.107 69.0082 37.919 65.4759 40.1841 62.2153 42.6757 59.2265 
     45.3938 55.9658 48.3384 52.9769 51.736 50.2596 55.3603 47.2707 
     59.4373 44.5535 63.741 42.108 68.2711 39.6626 71.4423 38.304 
     74.8399 37.2171 78.2375 36.1302 81.6351 35.3151 85.2593 35.0433 
     88.657 34.4999 92.5076 34.4999 96.1317 34.4999 99.7558 34.7716 
     103.38 35.0433 107.004 35.8585 110.402 36.4019 113.573 37.4888 
     116.97 38.5757 120.142 39.9343 123.086 41.0212 125.578 42.6515 
     128.296 44.5535 130.788 46.7273 133.279 49.1728 135.771 51.89 
     138.036 54.6073 140.301 57.5962 142.34 60.8566 144.378 64.389 
     145.963 67.6497 147.55 71.4538 148.908 74.9862 149.815 78.7901 
     150.72 82.5943 151.4 86.6701 151.4 89.659 151.853 91.561 
     152.306 92.9197 152.986 94.55 153.892 96.7236 154.344 98.354 
     154.571 99.7127 154.571 101.071 154.344 102.43 153.665 103.789 
     152.759 105.419 151.853 106.506 150.947 107.864 150.041 109.495 
     149.361 111.125 149.135 113.027 149.135 115.201 150.041 117.375 
     151.853 120.635 153.212 123.352 154.571 125.526 155.704 127.428 
     156.836 129.058 157.968 130.689 159.554 132.319 161.139 133.678 
     162.272 134.765 162.952 136.395 163.405 138.025 163.631 139.655 
     163.405 141.014 163.178 142.101 162.272 143.459 161.593 144.275 
     160.234 145.09 157.515 146.448 153.665 148.351 153.892 150.524 
     154.118 153.242 154.571 155.959 155.25 157.861 154.571 158.948 
     154.118 159.492 153.665 160.306 153.212 161.121 152.532 161.665 
     151.626 161.937 150.72 162.208 149.361 162.208 151.4 163.839 
     152.532 165.197 152.986 166.828 152.759 168.458 151.853 170.088 
     150.72 171.718 149.361 172.805 147.55 173.892 147.55 175.523 
     147.776 177.968 148.455 180.957 149.135 183.674 149.587 186.119 
     149.815 188.837 149.587 191.011 148.908 193.184 147.55 195.086 
     145.963 196.445 144.378 197.26 141.66 198.076 136.677 198.347 
     131.694 198.076 127.39 197.804 123.992 197.804 122.18 198.347 
     120.368 199.978 118.782 202.151 116.744 205.412 115.385 208.944 
     114.026 213.02 112.667 216.824 111.081 220.356 109.269 223.345 
     109.269 223.345 109.269 223.345 109.269 223.345 "
     style=" stroke:#ffffff; stroke-width:1; fill:#ffa596; fill-opacity:100%"></polygon>
    <g>
      <polygon points="104.603 101.011 105.449 99.1718 106.437 97.4857 
       107.849 95.7997 109.26 94.2668 110.53 92.8874 111.659 91.2012 
       112.647 89.5152 113.494 87.6758 114.059 85.6832 114.623 83.5372 
       114.905 81.5446 115.047 79.3986 114.905 77.0994 114.623 74.9535 
       114.059 72.9609 113.494 71.1215 112.647 69.1289 111.659 67.4428 
       110.53 65.7566 109.26 64.2239 107.849 62.8443 106.296 61.6181 
       104.744 60.5451 103.05 59.6254 101.356 58.8591 99.3806 58.3992 
       97.5459 58.0926 95.5701 57.9393 93.5941 58.0926 91.6182 58.3992 
       89.7835 58.8591 87.9486 59.6254 86.2551 60.5451 84.7026 61.6181 
       83.1501 62.8443 81.7388 64.2239 80.4685 65.7566 79.3395 67.4428 
       78.3515 69.1289 77.5048 71.1215 76.9402 72.9609 76.3757 74.9535 
       76.0934 77.0994 76.0934 79.3986 76.0934 81.5446 76.3757 83.5372 
       76.9402 85.6832 77.5048 87.6758 78.3515 89.5152 79.3395 91.2012 
       80.4685 92.8874 81.7388 94.2668 83.1501 95.7997 84.8438 97.639 
       85.8316 99.1718 86.6785 101.318 89.6423 114.5 101.498 114.5 
       104.603 101.011 104.603 101.011 104.603 101.011 104.603 101.011 "
       style=" stroke:#000000; stroke-width:1; fill:#ffff00; fill-opacity:100%"></polygon>
      <polygon points="91.5494 59.6208 90.1272 60.6941 88.8471 61.7673 
       87.4249 62.9937 86.1449 64.5269 85.0072 65.9067 83.8693 67.4399 
       82.8737 68.973 82.0205 70.8127 81.3093 72.4992 80.7404 74.3389 
       80.3137 76.1787 80.1716 78.0185 80.3137 80.0115 80.5982 82.0046 
       81.1671 83.9977 82.0205 85.9908 82.8737 87.5238 83.7271 88.9036 
       84.4382 90.1302 85.2916 91.2033 86.0027 92.4299 86.856 93.5031 
       87.5672 94.7295 88.2782 95.956 88.8471 97.1825 89.5583 98.7156 
       90.1272 100.249 90.696 102.089 91.1227 104.235 91.5494 106.535 
       91.976 109.141 92.2605 112.054 92.6872 110.827 92.6872 109.294 
       92.6872 108.068 92.6872 104.848 92.4027 101.629 92.2605 99.7889 
       92.1183 99.0223 91.976 98.2558 91.8338 97.6425 91.5494 96.8759 
       91.2649 95.956 90.8382 95.0362 90.4116 94.1163 89.8427 93.1964 
       89.2738 92.2766 88.8471 91.2033 88.136 90.2835 87.5672 89.2103 
       86.9982 88.2904 86.4293 87.2172 85.8604 86.2974 85.4337 85.2242 
       85.0072 84.3043 84.5805 83.3844 84.296 82.4645 84.0116 80.9314 
       83.7271 79.3982 83.7271 77.8651 83.7271 76.3319 83.8693 74.7989 
       84.1538 73.2658 84.5805 71.5793 85.0072 70.0462 85.576 68.6663 
       86.1449 67.1332 86.856 65.7534 87.7094 64.3736 88.5627 63.1471 
       89.5583 61.9206 90.5538 60.6941 91.5494 59.6208 91.5494 59.6208 
       91.5494 59.6208 91.5494 59.6208 "
       style=" stroke:#ffffff; stroke-width:1; fill:#ffffff; fill-opacity:100%"></polygon>
      <polyline points="85.4253 103.784 73.3079 109.453 78.0985 98.5748 
       67.3901 100.567 75.2804 89.995 59.4997 88.1565 74.1533 81.4153 
       61.1905 75.2868 74.1533 72.5291 63.8676 64.409 76.6895 64.5622 
       74.2942 51.9989 82.8891 58.7401 83.5936 45.5641 91.0613 52.9182 
       96.9791 42.4999 101.347 54.7567 112.76 42.9595 109.801 58.7401 
       120.932 53.0714 115.578 66.7071 126.85 67.7796 119.241 77.2785 
       131.5 82.028 118.114 85.8583 127.836 95.6638 116.282 95.3573 
       122.059 105.469 110.224 100.873 112.76 110.678 104.87 105.929"
       style=" stroke:#ffff00; stroke-width:1;"></polyline>
    </g>
  </symbol>
 </defs>
</svg>
