<?xml version="1.0"?>
<?metis version="5.2.2"?>
<?metisxml version="1.2"?>
<!DOCTYPE svg  PUBLIC "-//W3C//DTD SVG 1.0//EN"
 "http://www.w3.org/TR/2001/REC-SVG-20010904/DTD/svg10.dtd">

<svg>
 <title>Symbol library: object_tree_closed.svg</title>
 <defs>
  <symbol id="oid1" xml:space="preserve" class="METIS_SYMBOL">
   <title>Object Tree Closed</title>
    <path d="M 11.52 0 C 5.76 0 0 4.8 
     0 9.6 C 0 9.6 0 182.4 0 182.4 
     C 0 187.2 5.76 192 11.52 192 C 11.52 192 
     564.48 192 564.48 192 C 570.24 192 576 187.2 
     576 182.4 C 576 182.4 576 9.6 576 9.6 
     C 576 4.8 570.24 0 564.48 0 Z"
     style=" stroke:#000000; stroke-width:2; fill:#000000; fill-opacity:100%"     class="TAG:canvas"></path>
    <path d="M 17.7778 8 C 12.8889 8 8 12.8889 
     8 17.7778 C 8 17.7778 8 174.222 8 174.222 
     C 8 179.111 12.8889 184 17.7778 184 C 17.7778 184 
     174.222 184 174.222 184 C 179.111 184 184 179.111 
     184 174.222 C 184 174.222 184 17.7778 184 17.7778 
     C 184 12.8889 179.111 8 174.222 8 Z"
     style="stroke:none; fill:#888888; fill-opacity:100%"     class="TAG:iconbackground"></path>
    <path d="M 204.966 8 C 198.483 8 192 12.8889 
     192 17.7778 C 192 17.7778 192 174.222 192 174.222 
     C 192 179.111 198.483 184 204.966 184 C 204.966 184 
     555.034 184 555.034 184 C 561.517 184 568 179.111 
     568 174.222 C 568 174.222 568 17.7778 568 17.7778 
     C 568 12.8889 561.517 8 555.034 8 Z"
     style="stroke:none; fill:#ffffff; fill-opacity:100%"     class="TAG:textbackground"></path>
    <g>
      <desc>METIS_TEXT_GROUP</desc>
      <text  x="200" y="31"
       style=" stroke:#000000; stroke-width:1; font-family:sans-serif; font-size:16;"
       class="TAG:text"></text>
      <rect x="200" y="16" width="360" height="160"
       style=" stroke:#000000; stroke-width:1; fill:#e8e8e8; fill-opacity:0%"></rect>
    </g>
    <image x="16" y="16" width="160" height="160" xlink:role="symbol" xlink:title="Text" xlink:href="metis:stdsyms#oid40"     class="TAG:icon"></image>
    <g>
      <desc>METIS_TEXT_GROUP</desc>
      <text  x="200" y="149"
       style=" stroke:#000000; stroke-width:1; font-family:sans-serif; font-size:14;"
       class="TAG:extratext"></text>
      <rect x="200" y="136" width="360" height="48"
       style=" stroke:#000000; stroke-width:1; fill:#ffffff; fill-opacity:0%"></rect>
    </g>
  </symbol>
 </defs>
 <use xlink:href="#oid1"/>
</svg>
