<?xml version="1.0" encoding="UTF-8" standalone="no"?>
<svg
   xmlns:dc="http://purl.org/dc/elements/1.1/"
   xmlns:cc="http://creativecommons.org/ns#"
   xmlns:rdf="http://www.w3.org/1999/02/22-rdf-syntax-ns#"
   xmlns:svg="http://www.w3.org/2000/svg"
   xmlns="http://www.w3.org/2000/svg"
   xmlns:sodipodi="http://sodipodi.sourceforge.net/DTD/sodipodi-0.dtd"
   xmlns:inkscape="http://www.inkscape.org/namespaces/inkscape"
   id="svg2"
   enable-background="new 45.067 45.375 219 219"
   xml:space="preserve"
   height="219px"
   width="219px"
   version="1.1"
   y="0px"
   x="0px"
   viewBox="45.067 45.375 219 219"
   inkscape:version="0.47 r22583"
   sodipodi:docname="action.svg"><sodipodi:namedview
   pagecolor="#ffffff"
   bordercolor="#666666"
   borderopacity="1"
   objecttolerance="10"
   gridtolerance="10"
   guidetolerance="10"
   inkscape:pageopacity="0"
   inkscape:pageshadow="2"
   inkscape:window-width="649"
   inkscape:window-height="491"
   id="namedview38"
   showgrid="false"
   inkscape:zoom="1.0776256"
   inkscape:cx="109.5"
   inkscape:cy="109.5"
   inkscape:window-x="0"
   inkscape:window-y="334"
   inkscape:window-maximized="0"
   inkscape:current-layer="svg2" /><metadata
   id="metadata326"><rdf:RDF><cc:Work
       rdf:about=""><dc:format>image/svg+xml</dc:format><dc:type
         rdf:resource="http://purl.org/dc/dcmitype/StillImage" /><dc:title /></cc:Work></rdf:RDF></metadata>
<defs
   id="defs4"><inkscape:perspective
   sodipodi:type="inkscape:persp3d"
   inkscape:vp_x="0 : 109.5 : 1"
   inkscape:vp_y="0 : 1000 : 0"
   inkscape:vp_z="219 : 109.5 : 1"
   inkscape:persp3d-origin="109.5 : 73 : 1"
   id="perspective40" />
<filter
   id="filter3938"><feGaussianBlur
     id="feGaussianBlur3940"
     stdDeviation="2.7834142" /></filter><filter
   id="filter3942"><feGaussianBlur
     id="feGaussianBlur3944"
     stdDeviation="2.7834142" /></filter></defs>
<g
   style="fill:#1e1e1e;stroke:#3a3a3a"
   id="g264"
   transform="matrix(1.0904205,0,0,1.0904205,-14.189247,-13.862846)">
	<path
   style="fill:#1e1e1e;stroke:#3a3a3a"
   d="m 64.854,127.88 c -0.004,-2.2 1.792,-4.003 3.993,-4.007 l 172.36,-0.317 c 2.2,-0.004 4.003,1.792 4.008,3.993 l 0.201,109.91 c 0.004,2.2 -1.793,4.003 -3.993,4.008 l -172.36,0.315 c -2.2,0.005 -4.003,-1.792 -4.007,-3.992 L 64.847,127.88 z"
   id="path266" />
</g><path
   style="fill:#1e1e1e;stroke:#3a3a3a;stroke-width:1.09042048"
   d="M 52.412547,93.191367 236.02955,48.606254 c 0,0 4.91234,-0.860342 5.52625,3.070624 l 5.15878,20.634027 c 0,0 0.73603,3.562404 -3.19494,4.544873 L 62.106385,121.07233 c 0,0 -4.790217,1.59637 -6.633028,-1.35103 L 50.069233,97.614113 c 0.0022,-0.0011 -0.734943,-3.071715 2.335681,-4.422746 z"
   id="path268" /><g
   id="g270"
   transform="matrix(1.0904205,0,0,1.0904205,-14.189247,-13.862846)">
	<path
   style="fill:#ffffff"
   d="m 161.42,172.82 c 0,2.2 -1.8,4 -4,4 H 78.636 c -2.2,0 -4,-1.8 -4,-4 v -2.383 c 0,-2.2 1.8,-4 4,-4 h 78.781 c 2.2,0 4,1.8 4,4 v 2.383 z"
   id="path272" />
</g><g
   id="g274"
   transform="matrix(1.0904205,0,0,1.0904205,-14.189247,-13.862846)">
	<path
   style="fill:#ffffff"
   d="m 161.03,194.92 c 0,2.2 -1.8,4 -4,4 H 78.25 c -2.2,0 -4,-1.8 -4,-4 v -2.382 c 0,-2.2 1.8,-4 4,-4 h 78.78 c 2.2,0 4,1.8 4,4 v 2.382 z"
   id="path276" />
</g><g
   id="g278"
   transform="matrix(1.0904205,0,0,1.0904205,-14.189247,-13.862846)">
	<path
   style="fill:#ffffff"
   d="m 83.238,124.92 c 0.187,-0.595 0.85,-1.082 1.474,-1.082 l 20.95,0.001 c 0.624,0 0.986,0.489 0.807,1.086 l -7.265,24.148 c -0.18,0.597 -0.838,1.085 -1.461,1.083 l -21.279,-0.042 c -0.624,-0.001 -0.981,-0.489 -0.794,-1.084 l 7.568,-24.11 z"
   id="path280" />
</g><g
   id="g282"
   transform="matrix(1.0904205,0,0,1.0904205,-14.189247,-13.862846)">
	<path
   style="fill:#ffffff"
   d="m 125.57,124.92 c 0.188,-0.595 0.85,-1.082 1.474,-1.082 l 20.951,0.001 c 0.624,0 0.986,0.489 0.807,1.086 l -7.266,24.148 c -0.18,0.597 -0.837,1.085 -1.461,1.084 l -21.279,-0.041 c -0.624,-0.001 -0.981,-0.489 -0.794,-1.084 l 7.568,-24.112 z"
   id="path284" />
</g><g
   id="g286"
   transform="matrix(1.0904205,0,0,1.0904205,-14.189247,-13.862846)">
	<path
   style="fill:#ffffff"
   d="m 169.9,124.85 c 0.187,-0.595 0.851,-1.082 1.474,-1.082 h 20.95 c 0.624,0 0.986,0.489 0.807,1.086 l -7.265,24.148 c -0.18,0.597 -0.838,1.085 -1.461,1.084 l -21.28,-0.041 c -0.624,-10e-4 -0.981,-0.489 -0.794,-1.084 L 169.9,124.85 z"
   id="path288" />
</g><g
   id="g290"
   transform="matrix(1.0904205,0,0,1.0904205,-14.189247,-13.862846)">
	<path
   style="fill:#ffffff"
   d="m 213.22,124.77 c 0.188,-0.595 0.851,-1.082 1.474,-1.082 l 20.953,10e-4 c 0.623,0 0.986,0.489 0.807,1.086 l -7.268,24.146 c -0.18,0.597 -0.838,1.085 -1.461,1.084 l -21.279,-0.041 c -0.623,-0.001 -0.981,-0.489 -0.794,-1.084 l 7.568,-24.11 z"
   id="path292" />
</g><g
   id="g294"
   transform="matrix(1.0904205,0,0,1.0904205,-14.189247,-13.862846)">
	<path
   style="fill:#ffffff"
   d="m 233.61,228.56 c 0,2.2 -1.8,4 -4,4 h -78.781 c -2.2,0 -4,-1.8 -4,-4 v -2.382 c 0,-2.2 1.8,-4 4,-4 h 78.781 c 2.2,0 4,1.8 4,4 v 2.382 z"
   id="path296" />
</g><g
   id="g298"
   transform="matrix(1.0904205,0,0,1.0904205,-14.189247,-13.862846)">
	<path
   style="fill:#ffffff"
   d="m 218.19,61.257 c -0.321,-0.535 -1.079,-0.854 -1.686,-0.708 l -20.376,4.9 c -0.606,0.146 -0.846,0.706 -0.531,1.245 l 12.897,22.119 c 0.314,0.539 1.067,0.859 1.673,0.712 l 20.688,-5.016 c 0.605,-0.147 0.84,-0.705 0.519,-1.24 l -13.18,-22.012 z"
   id="path300" />
</g><g
   id="g302"
   transform="matrix(1.0904205,0,0,1.0904205,-14.189247,-13.862846)">
	<path
   style="fill:#ffffff"
   d="m 177.26,71.194 c -0.32,-0.535 -1.078,-0.854 -1.685,-0.708 l -20.378,4.895 c -0.606,0.146 -0.846,0.706 -0.531,1.244 l 12.916,22.163 c 0.314,0.539 1.067,0.859 1.673,0.712 l 20.689,-5.011 c 0.605,-0.147 0.84,-0.705 0.52,-1.24 l -13.21,-22.055 z"
   id="path304" />
</g><g
   id="g306"
   transform="matrix(1.0904205,0,0,1.0904205,-14.189247,-13.862846)">
	<path
   style="fill:#ffffff"
   d="m 134.23,81.667 c -0.32,-0.535 -1.078,-0.854 -1.685,-0.708 l -20.378,4.894 c -0.606,0.146 -0.846,0.706 -0.531,1.244 l 12.916,22.162 c 0.314,0.539 1.067,0.859 1.673,0.712 l 20.689,-5.01 c 0.606,-0.147 0.841,-0.705 0.521,-1.24 l -13.2,-22.053 z"
   id="path308" />
</g><g
   id="g310"
   transform="matrix(1.0904205,0,0,1.0904205,-14.189247,-13.862846)">
	<path
   style="fill:#ffffff"
   d="m 92.826,91.744 c -0.32,-0.535 -1.079,-0.854 -1.685,-0.708 l -20.379,4.895 c -0.606,0.146 -0.846,0.706 -0.531,1.244 l 12.918,22.161 c 0.314,0.539 1.067,0.859 1.673,0.712 l 20.688,-5.011 c 0.605,-0.147 0.84,-0.705 0.52,-1.24 L 92.826,91.741 z"
   id="path312" />
</g>
</svg>