<?xml version="1.0" encoding="UTF-8" standalone="no"?>
<svg
   xmlns:rdf="http://www.w3.org/1999/02/22-rdf-syntax-ns#"
   xmlns:svg="http://www.w3.org/2000/svg"
   xmlns="http://www.w3.org/2000/svg"
   xmlns:sodipodi="http://sodipodi.sourceforge.net/DTD/sodipodi-0.dtd"
   xmlns:inkscape="http://www.inkscape.org/namespaces/inkscape"
   version="1.1"
   x="0px"
   y="0px"
   width="219px"
   height="219px"
   viewBox="0 0 219 219"
   enable-background="new 0 0 219 219"
   xml:space="preserve"
   id="svg2"
   inkscape:version="0.47 r22583">
   <sodipodi:namedview
   		pagecolor="#ffffff"
		bordercolor="#666666"
		borderopacity="1"
		objecttolerance="10"
		gridtolerance="10"
		guidetolerance="10"
		inkscape:pageopacity="0"
		inkscape:pageshadow="2"
		inkscape:window-width="640"
		inkscape:window-height="480"
		id="namedview330"
		showgrid="false"
		inkscape:zoom="2.1984163"
		inkscape:cx="123.22796"
		inkscape:cy="111.44823"
		inkscape:current-layer="svg2"
	/>
 
   
 <defs id="defs6">
  <linearGradient id="linearGradient3849" x1="142.57" gradientUnits="userSpaceOnUse" y1="164.31" gradientTransform="matrix(1.1477697,0,0,1.1477697,-14.629158,-14.626101)" x2="37.209" y2="57.314">
   <stop id="stop3845" stop-color="#666" offset="0"/>
   <stop id="stop3847" stop-color="#cecece" offset="1"/>
  </linearGradient>
  <filter id="filter3634">
   <feGaussianBlur id="feGaussianBlur3636" stdDeviation="1.8175781"/>
  </filter>
 </defs>
 <path id="path2831" opacity="0.5" style="enable-background:accumulate;color:#000000;" d="m101.98,7.58-15.875,7.1875,1.0938,2.375,1.5938-0.71875,5.9375,13.125c-0.51897,0.29212-1.0267,0.58744-1.5312,0.90625,1.654,3.3122-0.12765,3.5854-0.15625,4.4062-0.0285,0.8208,0.79455,4.2868,1.8438,7.6875,1.0491,3.4007,2.0382,6.7252,2.1875,7.375,0.5251,2.2859-0.129,2.7659-7.75,5.625-4.2454,1.5927-4.7013,2.302-3.7812,6.0938,0.88578,3.6506,0.88275,4.8666-0.15625,6.1875-0.01537,0.04053-0.02111,0.10677-0.03125,0.15625-0.50186,0.22106-1.3886,0.8823-3.125,2.2188-13.075,10.064-18.431,22.815-17.094,40.688,1.394,18.66,9.462,39.149,25.75,65.469l4.9062,7.9375h-6.375c-0.8643,0-1.5625,0.6982-1.5625,1.5625v8.875h-23.375c-1.1812,0-2.1562,0.94382-2.1562,2.125v13.219c0,1.1812,0.97507,2.1562,2.1562,2.1562h121.5c1.1812,0,2.1562-0.97507,2.1562-2.1562v-13.219c0-1.1812-0.97507-2.125-2.1562-2.125h-31.156v-8.875c0-0.8643-0.6982-1.5625-1.5625-1.5625h-8.2812l3.6562-1.9062c1.8063-0.95411,3.3168-1.8122,4.125-2.3125,0.11616,0.052,0.32954,0.0287,0.625-0.0625,0.5238-0.1616,2.4263,0.3803,5.1875,1.4375,2.4019,0.9197,5.5461,2.0884,7,2.5938,3.3446,1.1626,3.9154,1.13,4.7188-0.0625,0.9753-1.4477,0.602-2.2436-1.4375-3.0312-8.11-3.1317-24.489-9.2208-25.625-9.5312-1.2664-0.34604-1.5062-0.29075-2.3438,0.65625-1.3853,1.5664-1.1504,2.19,1.125,3.125,1.4378,0.5909,2.0312,1.0556,2.0312,1.5938,0,0.55647,0.12829,0.63351,0.5,0.34375,0.0274-0.0214,0.0757-0.0195,0.125-0.0312l-0.75,0.6875c-0.5874,0.552-2.6871,1.8166-4.6875,2.8125-3.3997,1.6924-3.8762,1.8152-7.125,1.7812-3.989-0.0416-6.1926-0.7963-11.656-4-1.5118-0.88648-3.6251-2.6204-5.9375-4.75,3.9798-1.7539,15.369-6.2251,29.281-11.531,19.515-7.4431,24.645-9.6752,25.094-10.844,0.4732-1.2332-0.87655-5.2122-2.0312-5.9688-0.8385-0.5494-1.3408-0.60664-2.7812-0.21875-3.2073,0.86359-52.417,19.678-56.469,21.562-1.2071-1.3468-2.3583-2.7127-3.4062-4.0312-3.961-4.984-9.8922-14.479-13.031-20.875-4.3647-8.893-6.25-15.57-6.25-22.219,0-7.0245,2.07-12.178,5.625-14,3.0136-1.5444,8.1222-0.65815,10.906,2.0938,0.33563,0.33179,0.48028,0.54643,0.59375,0.6875,1.044,1.5141,3.6333,4.3855,4,4.2812,0.2503-0.0711,2.4092-0.87226,4.7812-1.7812,8.0714-3.0929,8.5724-2.994,10.875,2.0625,0.9235,2.0279,2.2141,4.7822,2.8438,6.1562,1.3913,3.0358,2.2764,3.7617,4.3125,3.4375,2.0423-0.3252,2.9647,0.72675,5.125,5.7812,0.9329,2.1826,2.2014,4.801,2.8125,5.8438,1.0353,1.7666,1.2088,1.8922,2.4688,1.625,1.8296-0.388,7.6362-2.619,8.5312-3.2812,0.6615-0.4894,0.5037-1.0681-1.875-7.0625-1.8044-4.5471-2.5258-6.8685-2.3438-7.5938,0.2235-0.8904,2.0203-2.3969,3.4375-2.875,0.5903-0.199-1.0119-5.0868-5.8125-17.969-6.979-18.727-24.989-65.228-26.156-67.531-0.7186-1.4182-1.4941-3.3148-2.8125-3.2812-1.7938,0.0456-2.2884-1.9998-3-3.1562-0.78151,0.34685-1.1053,0.50296-1.8125,0.8125l-5.9375-13.094,1.5625-0.71875-1.0625-2.375z" fill-rule="nonzero" filter="url(#filter3634)" stroke="#484848" stroke-width="1.097" fill="#000"/>
 <path id="rect3607" style="color:#000000;enable-background:accumulate;" d="m81.481,11.991,1.0701,2.3627,1.5941-0.72202,7.1944,15.884,12.696-5.7503-7.1944-15.884,1.5656-0.70912-1.0701-2.3627-15.856,7.1815z" fill-rule="nonzero" stroke="#484848" stroke-width="1.09700000000000000" fill="#1a1a1a"/>
 <path id="path3817" style="stroke-dasharray:none;" d="m105.51,167.86c-1.8075-1.9214-3.1316-3.6408-2.9424-3.821,0.65815-0.62657,53.545-20.836,56.869-21.731,1.4405-0.38789,1.9327-0.353,2.7712,0.1964,1.1547,0.75656,2.5241,4.7552,2.0509,5.9884-0.4484,1.1685-5.5887,3.3859-25.104,10.829-14.465,5.5171-26.386,10.231-29.889,11.819-0.25792,0.11689-1.9478-1.3595-3.7554-3.2809z" fill-rule="evenodd" stroke="#6c6969" stroke-miterlimit="4" stroke-width="1.14776969" fill="#999"/>
 <path id="path3811" style="stroke-dasharray:none;" d="m110.47,182.02-19.128-0.21637-5.0862-8.2218c-16.288-26.32-24.347-46.82-25.741-65.48-1.337-17.872,4.015-30.607,17.09-40.671,3.4728-2.6729,3.5581-2.7105,3.9296-1.7309,0.20884,0.55075,3.8201,9.4719,8.0249,19.825,4.2049,10.353,7.746,19.213,7.8691,19.689,0.19293,0.74585,0.38248,0.59959-0.62218-0.39357-2.7841-2.7519-7.8714-3.6383-10.885-2.0939-3.555,1.8218-5.628,6.9805-5.628,14.005,0,6.6488,1.8795,13.342,6.2442,22.235,3.1391,6.396,9.053,15.874,13.014,20.858,5.0159,6.3109,12.501,13.573,16.263,15.779,5.4636,3.2037,7.668,3.9605,11.657,4.0021,3.2488,0.0339,3.7132-0.082,7.1129-1.7744,2.0004-0.99586,4.1177-2.2624,4.7051-2.8144l1.0679-1.0037,4.1978,1.2999c2.3088,0.71494,4.1979,1.4054,4.1981,1.5344,0.00013,0.12895-2.145,1.3677-4.767,2.7527l-4.7672,2.5182-4.813,0.0601c-2.6472,0.0329-13.421-0.0374-23.941-0.15633z" fill-rule="evenodd" stroke="#6c6969" stroke-miterlimit="4" stroke-width="1.14776969" fill="url(#linearGradient3849)"/>
 <rect id="rect3789-9" style="stroke-dasharray:none;" fill-rule="evenodd" rx="1.5601" ry="1.5601" height="12.793" width="66.948" stroke="#6c6969" stroke-miterlimit="4" y="181.51" x="83.234" stroke-width="1.1478" fill="#333"/>
 <rect id="rect3789" style="stroke-dasharray:none;" fill-rule="evenodd" rx="2.1321" ry="2.1321" height="17.483" width="125.79" stroke="#6c6969" stroke-miterlimit="4" y="191.96" x="57.699" stroke-width="1.1478" fill="#000"/>
 <path id="path3815" style="stroke-dasharray:none;" d="m132.16,131.31c-0.61114-1.0428-1.8744-3.6819-2.8073-5.8645-2.1603-5.0545-3.0846-6.0946-5.1269-5.7694-2.0361,0.32424-2.9404-0.3912-4.3317-3.427-0.62967-1.374-1.9004-4.1573-2.8239-6.1852-2.3026-5.0565-2.8236-5.1551-10.895-2.0622-2.3721,0.90899-4.5176,1.711-4.7679,1.7821-0.4602,0.13087-4.4488-4.4595-4.4488-5.12-3.1285-6.989-17.383-36.518-16.209-39.614,1.039-1.3209,1.0503-2.5397,0.16452-6.1903-0.92001-3.7917-0.47946-4.505,3.7659-6.0977,7.621-2.8591,8.2892-3.3437,7.7641-5.6296-0.14927-0.64977-1.1298-3.9638-2.1789-7.3645-1.0492-3.4007-1.8842-6.8547-1.8557-7.6755,0.02858-0.82086,1.7999-1.1012,0.14586-4.4134,3.787-2.3931,7.6936-3.8178,16.041-7.5225,0.71158,1.1565,1.2109,3.2283,3.0047,3.1827,1.3184-0.03352,2.0948,1.8376,2.8134,3.2558,1.1671,2.3031,19.182,48.814,26.161,67.541,4.8006,12.882,6.3788,17.786,5.7885,17.985-1.4172,0.47814-3.2052,1.9695-3.4287,2.8599-0.18201,0.72526,0.52875,3.0351,2.3331,7.5822,2.3787,5.9944,2.5347,6.5837,1.8732,7.0731-0.89502,0.66225-6.6883,2.8953-8.5179,3.2833-1.26,0.26719-1.4282,0.15728-2.4635-1.6093z" fill-rule="evenodd" stroke="#6c6969" stroke-miterlimit="4" stroke-width="1.14776969" fill="#b3b3b3"/>
 <path id="path3819" style="stroke-dasharray:none;" d="m160.95,181.25c-1.4539-0.50538-4.6087-1.6713-7.0106-2.591-2.7612-1.0572-4.6718-1.578-5.1956-1.4164-0.54715,0.1689-0.79046,0.091-0.71657-0.22928,0.15984-0.69284-7.4495-3.1684-8.1236-2.6429-0.37171,0.28976-0.50837,0.19171-0.50837-0.36476,0-0.53815-0.5956-1.0058-2.0334-1.5967-2.2754-0.935-2.4879-1.5324-1.1026-3.0988,0.83752-0.947,1.0721-1.014,2.3385-0.66796,1.1362,0.31047,17.496,6.4014,25.606,9.5331,2.0395,0.78761,2.423,1.5931,1.4477,3.0408-0.80332,1.1925-1.3567,1.1965-4.7013,0.0339z" fill-rule="evenodd" stroke="#6c6969" stroke-miterlimit="4" stroke-width="1.14776969" fill="#808080"/>
 <path id="path3823" style="stroke-dasharray:none;" d="m108.09,65.922a7.9904,7.9904,0,1,1,-15.981,0,7.9904,7.9904,0,1,1,15.981,0z" fill-rule="evenodd" stroke="#6c6969" stroke-miterlimit="4" stroke-width="1.14776969" fill="#f9f9f9"/>
 <path id="path3815-3" opacity="0.5" d="m132.42,130.65c-0.58342-1.0158-1.6386-3.4356-2.5292-5.5617-2.0623-4.9234-3.2462-6.2381-5.1958-5.9213-1.9437,0.31583-3.1085-0.0795-4.4367-3.0367-0.60111-1.3384-1.8142-4.0496-2.6958-6.0249-2.1982-4.9254-3.1478-5.926-10.853-2.9133-2.2645,0.88543-4.6142,1.9681-4.8531,2.0374-0.43932,0.12748-3.7947-3.4393-3.7947-4.0826,27.099-45.153,18.646-58.458,12.694-76.272,5.2047,12.791,18.764,47.473,25.427,65.715,4.5828,12.548,6.2402,17.023,5.6766,17.217-1.3529,0.46574-3.2105,2.22-3.4239,3.0872-0.17376,0.70644,0.50476,2.9564,2.2272,7.3856,2.2708,5.839,2.4197,6.413,1.7882,6.8898-0.85442,0.64508-6.3848,2.8202-8.1315,3.1982-1.2028,0.26025-0.91115,0.002-1.8994-1.7183z" fill-rule="evenodd" stroke-miterlimit="4" stroke-width="0" fill="#666"/>
 <path id="path3823-2" style="stroke-dasharray:none;" d="m115.78,87.18a7.9904,7.9904,0,1,1,-15.981,0,7.9904,7.9904,0,1,1,15.981,0z" fill-rule="evenodd" stroke="#6c6969" stroke-miterlimit="4" stroke-width="1.14776969" fill="#f9f9f9"/>
 <path id="path3889" d="m138.49,116.55c0.0757,0.0756,1.4591,3.6346,2.5824,6.6784,1.6104,4.3638,2.1778,5.6718,1.7685,6.0223-1.7944,1.5371-6.5277,3.1483-9.2518,3.1914-1.7075-2.3822-3.6115-7.1844-5.8151-11.629,4.6695-1.0085,7.3762-2.1651,10.716-4.2625z" fill-rule="evenodd" stroke-miterlimit="4" stroke-width="0" fill="#4d4d4d"/>
 <path id="path3823-4" style="stroke-dasharray:none;" d="m146.26,175.22a1.7243,1.7243,0,1,1,-3.4486,0,1.7243,1.7243,0,1,1,3.4486,0z" fill-rule="evenodd" stroke="#6c6969" stroke-miterlimit="4" stroke-width="0.24768835" fill="#333"/>
</svg>