<?xml version="1.0" encoding="UTF-8" standalone="no"?>

<svg
 xmlns:dc="http://purl.org/dc/elements/1.1/"
   xmlns:cc="http://creativecommons.org/ns#"
   xmlns:rdf="http://www.w3.org/1999/02/22-rdf-syntax-ns#"
   xmlns:svg="http://www.w3.org/2000/svg"
   xmlns="http://www.w3.org/2000/svg"
   xmlns:xlink="http://www.w3.org/1999/xlink"
   xmlns:sodipodi="http://sodipodi.sourceforge.net/DTD/sodipodi-0.dtd"
   xmlns:inkscape="http://www.inkscape.org/namespaces/inkscape"
   id="svg2"
   version="1.1"
   inkscape:version="0.47 r22583"
   width="100"
   height="100"
   sodipodi:docname="annotationobject.svg">
  <metadata
     id="metadata22">
    <rdf:RDF>
      <cc:Work
         rdf:about="">
        <dc:format>image/svg+xml</dc:format>
        <dc:type
           rdf:resource="http://purl.org/dc/dcmitype/StillImage" />
      </cc:Work>
    </rdf:RDF>
  </metadata>
  <defs
     id="defs20">
    <linearGradient
       id="linearGradient3602">
      <stop
         style="stop-color:#ffff99;stop-opacity:1;"
         offset="0"
         id="stop3604" />
      <stop
         style="stop-color:#ebffd3;stop-opacity:1;"
         offset="1"
         id="stop3606" />
    </linearGradient>
    <inkscape:perspective
       sodipodi:type="inkscape:persp3d"
       inkscape:vp_x="0 : 0.5 : 1"
       inkscape:vp_y="0 : 1000 : 0"
       inkscape:vp_z="1 : 0.5 : 1"
       inkscape:persp3d-origin="0.5 : 0.33333333 : 1"
       id="perspective24" />
    <linearGradient
       inkscape:collect="always"
       xlink:href="#linearGradient3602"
       id="linearGradient3608"
       x1="23.4375"
       y1="492.18701"
       x2="937.5"
       y2="492.18701"
       gradientUnits="userSpaceOnUse" />
  </defs>
  <sodipodi:namedview
     pagecolor="#ffffff"
     bordercolor="#666666"
     borderopacity="1"
     objecttolerance="10"
     gridtolerance="10"
     guidetolerance="10"
     inkscape:pageopacity="0"
     inkscape:pageshadow="2"
     inkscape:window-width="1280"
     inkscape:window-height="962"
     id="namedview18"
     showgrid="false"
     inkscape:zoom="0.22425739"
     inkscape:cx="-254.62184"
     inkscape:cy="223.75213"
     inkscape:window-x="-8"
     inkscape:window-y="-8"
     inkscape:window-maximized="1"
     inkscape:current-layer="svg2" />
  <title
     id="title4">Symbol library: annotationobject.svg</title>
  <polygon
     points="1007.81,1007.81 0,1007.81 0,0 1007.81,0 1007.81,1007.81 "
     style="fill:#ffffff;fill-opacity:0;stroke:none"
     id="polygon6"
     transform="matrix(0.09922505,0,0,0.09922505,0,2.4414062e-6)" />
  <polygon
     points="180.721,171.875 54.6875,826.732 905.411,968.75 1007.81,211.325 180.721,171.875 "
     style="fill:#999999;fill-opacity:1;stroke:none"
     id="polygon8"
     transform="matrix(0.09922505,0,0,0.09922505,0,2.4414062e-6)" />
  <polygon
     points="858.542,866.815 882.173,787.946 905.803,574.999 960.938,172.768 960.938,156.994 126.025,78.125 126.025,86.0124 126.025,86.0124 0,811.607 7.87654,819.494 133.901,843.155 378.074,882.589 519.852,898.363 653.753,906.25 771.901,898.363 819.16,890.475 850.666,882.589 "
     style="fill:#333333;fill-opacity:1;stroke:none"
     id="polygon10"
     transform="matrix(0.09922505,0,0,0.09922505,0,2.4414062e-6)" />
  <polygon
     points="173.154,827.572 23.4375,796.006 141.635,101.562 141.635,101.562 937.5,180.477 882.34,606.612 858.7,780.224 842.941,867.029 811.422,874.921 764.142,882.812 661.705,882.812 543.506,874.921 409.55,859.137 "
     style="fill:url(#linearGradient3608);fill-opacity:1;stroke:none"
     id="polygon12"
     transform="matrix(0.09922505,0,0,0.09922505,0,2.4414062e-6)" />
  <polygon
     points="144.072,101.562 23.4375,796.534 176.241,828.124 296.875,117.358 144.072,101.562 "
     style="fill:#e0dd8c;fill-opacity:1;stroke:none"
     id="polygon14"
     transform="matrix(0.09922505,0,0,0.09922505,0,2.4414062e-6)" />
  <polygon
     points="514.178,71.4461 522.281,95.2622 522.281,111.139 497.975,412.803 497.975,436.619 481.771,452.495 473.669,460.434 457.466,460.434 449.363,452.495 441.262,428.68 441.262,404.865 457.466,198.462 425.058,190.524 408.854,404.865 408.854,436.619 408.854,452.495 425.058,476.311 441.262,492.188 457.466,492.188 481.771,492.188 506.077,476.311 522.281,460.434 530.383,436.619 530.383,412.803 554.688,119.078 554.688,87.3242 546.586,63.5081 530.383,31.7541 497.975,7.93801 457.466,0 425.058,0 400.753,7.93801 384.548,23.8161 368.345,39.6921 344.039,71.4461 335.938,111.139 335.938,111.139 368.345,111.139 368.345,95.2622 384.548,71.4461 392.651,55.5701 408.854,39.6921 425.058,31.7541 457.466,31.7541 481.771,39.6921 506.077,55.5701 "
     style="fill:#666666;fill-opacity:1;stroke:none"
     id="polygon16"
     transform="matrix(0.09922505,0,0,0.09922505,0,2.4414062e-6)" />
</svg>
