<?xml version="1.0" encoding="UTF-8" standalone="no"?><svg xmlns:rdf="http://www.w3.org/1999/02/22-rdf-syntax-ns#" xmlns="http://www.w3.org/2000/svg" enable-background="new 29.714 45.375 219 219" xml:space="preserve" height="219px" viewBox="29.714 45.375 219 219" width="219px" version="1.1" y="0px" x="0px" xmlns:cc="http://creativecommons.org/ns#" xmlns:dc="http://purl.org/dc/elements/1.1/">	<metadata>		<rdf:RDF>			<cc:Work rdf:about="">				<dc:format>image/svg+xml</dc:format>				<dc:type rdf:resource="http://purl.org/dc/dcmitype/StillImage"/>				<dc:title/>			</cc:Work>		</rdf:RDF>	</metadata>	<defs>		<filter id="filter3668">			<feGaussianBlur stdDeviation="1.6485205"/>		</filter>		<filter id="filter3665">			<feGaussianBlur stdDeviation="0.99605475"/>		</filter>	</defs>	<filter>		<feGaussianBlur stdDeviation="3"/>	</filter>	<path d="m240.4,140c-6.493,21.34-12.99,42.69-19.48,64.03-38.05,18.25-76.09,36.5-114.1,54.75-15.78-31.24-31.55-62.49-47.33-93.73,60.32-8.35,120.6-16.7,181-25.05z" fill-opacity="0.5" filter="url(#filter3668)" fill="#000"/>	<polygon transform="translate(-5.0847456e-7,1.8559295)" stroke="#595959" points="104.1,251.9,57.76,158.2,42.77,92.76,160.8,56.82,237.8,134.8,218.1,198.5" stroke-width="3" fill="#757575"/>	<polygon points="42.77,92.73,160.8,56.82,237.4,134.8,96.55,192.8" fill="#e0e0e0" transform="translate(-5.0847456e-7,1.8559295)"/>	<polyline points="96.24,192.1,104.1,251.9,57.76,158.2,42.8,92.79" fill="#a0a0a0" transform="translate(-5.0847456e-7,1.8559295)"/>	<polygon points="237.4,134.9,218.1,198.5,104.1,251.9,96.24,192.1" fill="#757575" transform="translate(-5.0847456e-7,1.8559295)"/>	<polygon opacity="0.55" points="97.73,203.3,233.4,148,218.1,198.5,104.1,251.9" transform="translate(-5.0847456e-7,1.8559295)" fill="#CCC"/>	<polygon points="97.73,203.3,46,106.6,42.77,92.76,96.24,192.1" fill="#757575" transform="translate(-5.0847456e-7,1.8559295)"/>	<polygon points="97.34,202,97.55,200.7,104.4,251.7,104.1,251.9,104,251.6" fill="#757575" transform="translate(-5.0847456e-7,1.8559295)"/>	<path opacity="0.68999999" fill="#e0e0e0" d="m116.5,248,101.6-47.6,15.32-50.45c0,0.001-31.67,52.39-116.9,98.05z"/>	<path opacity="0.83999999" fill="#efefef" d="m181,159.6,56.71-22.88-38.26-38.96c0-0.001,31,37.46-18.45,61.84z"/>	<polyline transform="translate(-5.0847456e-7,1.8559295)" stroke="#595959" points="42.77,92.76,96.24,192.1,237.8,134.8" stroke-width="2" fill="none"/>	<polygon points="163.6,164.8,178,159,110.8,72.1,98.42,75.85" fill="#ee3424" transform="translate(-5.0847456e-7,1.8559295)"/>	<polygon points="63.21,130.8,69.07,141.7,199.6,96.25,189.7,86.25" fill="#ee3424" transform="translate(-5.0847456e-7,1.8559295)"/>	<polygon points="63.21,130.8,75.6,194.2,80.61,204.3,69.07,141.7" fill="#8a2003" transform="translate(-5.0847456e-7,1.8559295)"/>	<polygon points="163.6,164.9,178,159,168.2,221.8,156.7,227.2" fill="#8a2003" transform="translate(-5.0847456e-7,1.8559295)"/>	<path opacity="0.11946903" filter="url(#filter3665)" fill="#000" d="m173.9,153c-10.78,0.0687-23-9.118-32.16-19.42,5.148,11.26,4.547,19.07-5.786,16.78-3.32-0.7367-10.65-4.267-14-6.291-0.0145-0.009-0.035-0.02-0.0493-0.0287-1.323-0.6625-2.5-1.304-3.319-1.781-9.052-5.268-13.18-11.53-12.98-16.95-1.761-1.004-3.48-2.208-5.235-3.648-0.0758-0.0575-0.137-0.1153-0.21-0.1723-0.0143-0.0119-0.035-0.0168-0.0493-0.0287-10.1-7.932,6.711-11.3,28.03-9.163-5.852,2.407-8.572,6.514-8.993,11.23,6.738-2.238,11.38-7.046,8.993-11.23,0.2488,0.2142,0.4916,0.4368,0.7331,0.6606,8.324,5.271,18.9,10.06,27.34,12.26-12.72-7.652-26.16-12.95-28.07-12.93,0.6267-0.007,1.26-0.0118,1.896,0-0.7289-0.0623-1.37-0.0637-1.896,0,15.99-1.933,40,1.016,41.41,10.54,8.722,4.714,15.08,10.53,16.34,16.43,0.0138,0.0484,0.0324,0.0956,0.0457,0.1436,0.001,0.007,0.0196,0.0217,0.0206,0.0287,2.234,8.047-0.97,10.65-6.452,12.61-1.8,0.6427-3.694,0.9357-5.61,0.9479zm-45.66-9.422c3.79-1.826,5.429-6.76,5.067-13.1-2.422,1.391-6.645,1.677-13.3,0.0862,1.415,4.51,4.372,9.122,8.228,13.01zm48.79-0.7756c-2.476-3.744-6.325-7.42-10.82-10.86-7.048,3.365-23.42-6.057-35.36-16.95,0.7638,0.8674,1.488,1.779,2.112,2.7,10.77,10.18,32.02,22.44,44.06,25.1z"/>	<g>		<path fill="#8a2003" d="m110.2,82.06c-3.874-1.43-8.903,2.851-10.75,4.703-13.4,13.4,6.699,32.59,33.81,32.59-21.54-6.84-28.9-26.28-23.06-37.29"/>		<path fill="#8a2003" d="m174.1,88.4c-5.978-7.124-10.74-1.258-12.08-5.831,5.437,18.54-25,36.83-28.73,36.79,26.99,0.299,51.01-15.35,40.81-30.96"/>		<path fill="#ef4135" d="m175.1,90.21c-3.866-9.055-9.443-11.93-17.04-14.1-26.24-7.458-31.15,26.93-24.8,42.83,0.001-16.26,32.13-44.48,41.85-28.73"/>		<path fill="#8a2003" d="m96.3,108.3c0.611-0.662,5.625-3.81,9.537-4.523-2.154,6.47,12.75,13.46,27.42,15.57-22.41,2.425-44.18-1.636-36.95-11.04"/>		<path fill="#ef4135" d="m95.58,109.4c2.5-5.208,6.888-7.396,13.01-9.454,21.12-7.103,28.69,10.34,24.67,19.42-1.256-8.5-30.85-19.39-37.67-9.968"/>		<path fill="#8a2003" d="m161.5,101.6c3.637,0.1,6.818,3.839,7.924,5.377,7.981,11.13-16.71,14.58-36.19,12.42,8.852,0.985,31.42-12.71,28.26-17.79"/>		<path fill="#ef4135" d="m161,98.7c2.38,1.213,5.852,4.768,7.033,6.554-9.392-4.804-26.44,3.713-34.81,13.68,4.059-13.52,16.22-26.13,27.77-20.24"/>		<path fill="#ef4135" d="m112,77.94c-3.049,0.805-8.301,4.682-10.34,6.879,12.04-3.197,27.27,15.77,31.61,34.53,1.804-22.28-6.452-45.32-21.26-41.41"/>	</g></svg>