<?xml version="1.0" encoding="UTF-8" standalone="no"?><svg xmlns:rdf="http://www.w3.org/1999/02/22-rdf-syntax-ns#" xmlns="http://www.w3.org/2000/svg" version="1.1" xml:space="preserve" height="219" viewBox="-0.412 -0.726 219 219" width="219" enable-background="new -0.412 -0.726 235 191" y="0px" x="0px" xmlns:cc="http://creativecommons.org/ns#" xmlns:xlink="http://www.w3.org/1999/xlink" xmlns:dc="http://purl.org/dc/elements/1.1/">	<metadata>		<rdf:RDF>			<cc:Work rdf:about="">				<dc:format>image/svg+xml</dc:format>				<dc:type rdf:resource="http://purl.org/dc/dcmitype/StillImage"/>				<dc:title/>			</cc:Work>		</rdf:RDF>	</metadata>	<defs>		<filter id="filter3997" color-interpolation-filters="sRGB">			<feGaussianBlur stdDeviation="1.7526121"/>		</filter>		<linearGradient id="linearGradient3796" y2="24.64" gradientUnits="userSpaceOnUse" x2="-15.82" gradientTransform="matrix(0.72087502,0,0,0.72439567,62.29023,82.159378)" y1="147.9" x1="171">			<stop stop-color="#800080" offset="0"/>			<stop stop-color="#800080" stop-opacity="0" offset="1"/>		</linearGradient>		<radialGradient id="radialGradient3806" gradientUnits="userSpaceOnUse" cy="94.32" cx="75.52" gradientTransform="matrix(1.0234491,0,0,1.0515782,-48.029494,-63.663041)" r="78.1">			<stop stop-color="#FFF" offset="0.1573"/>			<stop stop-color="#724548" offset="0.8989"/>		</radialGradient>		<linearGradient id="linearGradient3815" y2="219.1" gradientUnits="userSpaceOnUse" x2="130.6" gradientTransform="matrix(1.1999638,0,0,1.2329443,-49.734277,-112.78465)" y1="128.1" x1="125.5">			<stop stop-color="#FFF" offset="0.2978"/>			<stop stop-color="#FFF" offset="0.5955"/>			<stop stop-color="#EEE7E5" offset="0.9045"/>		</linearGradient>	</defs>	<path d="m134.9,107.9c-22.23-0.045-36.75,15.23-35.16,21.31,0.2113,0.8064,0.6099,1.425,1.094,1.875h-45.47c-3.551,0-6.438,2.796-6.438,5.188v46.34c0,1.864,0.4594,3.411,2.562,4.562v56.59c0,6.188,5.18,11.19,11.56,11.19h143.3c6.385,0,11.56-5,11.56-11.19v-57.28c2.656-1.481,2.562-3.844,2.562-5.969v-45.12c0-2.39-2.863-4.312-6.406-4.312h-45.88c4.857-3.85-10.86-23.14-33.34-23.19zm0.2812,6.5c17.29,0.261,24.9,7.382,27.59,11.88,0,0-0.7785,3.339,0.875,4.812h-57.12c0.9681-1.309,0.2572-4.364,0.2188-4.594,0,0,7.814-12.41,28.44-12.09z" fill-opacity="0.50196081" transform="matrix(1.1999638,0,0,1.2329443,-49.734277,-112.78465)" filter="url(#filter3997)" fill="#000"/>	<path fill="#919090" d="m63.44,38.86c1.106,4.339,6.164,4.125,7.863,2.597,1.538-1.386,0.576-5.673,0.5268-5.975,0,0,9.355-15.27,34.1-14.88,20.75,0.3218,29.89,9.09,33.12,14.63,0,0-1.836,8.125,5.087,6.606,9.807-2.155-9.738-29.19-38.52-29.25-26.68-0.05548-44.08,18.77-42.17,26.27z"/>	<path fill="#7c7c7c" d="m65.01,38.04c0.8688,2.562,4.088,2.93,5.111,1.83,1.26-1.361,0.2808-4.719,0.8424-6.004,0,0,10.8-16.16,35.03-15.77,19.19,0.3058,32.84,11.66,34.37,16.7,0,0-0.9756,8.076,3.789,5.584,5.9-3.13-13-25.57-38.1-25.7-25.14-0.13-42.65,18.75-41.09,23.36z"/>	<path fill="#8e8682" d="m205.3,180.1c0,7.629-6.212,13.82-13.87,13.82h-172c-7.658,0-13.88-6.186-13.88-13.82v-103.3c0-7.627,6.217-13.82,13.88-13.82h172c7.662,0,13.87,6.189,13.87,13.82v103.3z"/>	<path fill="url(#linearGradient3815)" d="m202.5,178.3c0,7.359-6.042,13.33-13.5,13.33h-167.2c-7.455,0-13.5-5.969-13.5-13.33v-99.69c0-7.361,6.044-13.33,13.5-13.33h167.2c7.455,0,13.5,5.972,13.5,13.33v99.67z"/>	<path fill="#c1c1c1" d="m199.4,175c0,7.009-5.841,12.7-13.06,12.7h-161.8c-7.209,0-13.06-5.691-13.06-12.7v-94.97c0-7.013,5.847-12.7,13.06-12.7h161.8c7.217,0,13.06,5.689,13.06,12.7v94.96z"/>	<path opacity="0.43999999" d="m186.3,67.32h-34.15c-2.639,33.05,1.614,57.5-21.74,90.71-14.98,26.43-45.29,23.49-64.44,29.65h120.4c7.217,0,13.06-5.691,13.06-12.7v-94.88c0.001-7.013-5.841-12.7-13.06-12.7z" fill="#8e8682"/>	<path fill="#5b5b5b" d="m203.9,110.1c4.575-1.72,4.425-5.055,4.425-8.002v-55.61c0-2.947-3.454-5.336-7.705-5.336h-190.4c-4.261,0-7.71,3.472-7.71,6.421v57.13c0,2.948,0.8496,5.241,5.699,6.705,0,0,34.63,6.3,99.48,6.3,64.86,0.001,96.31-7.609,96.31-7.609z"/>	<path fill="#d8d8d8" d="m200.8,108c4.423-1.604,4.288-4.714,4.288-7.465v-51.8c0-2.749-3.347-4.98-7.465-4.98h-184.4c-4.121,0-7.464,3.239-7.464,5.99v53.29c0,2.752,0.8196,4.89,5.515,6.252,0,0,33.52,5.882,96.3,5.882s93.22-7.099,93.22-7.099z"/>	<path opacity="0.6" d="m196,44.97h-42.11c-1.901,22.64-2.655,45.62-8.346,66.69,35.98-1.843,53.58-5.787,53.58-5.787,4.347-1.523,4.208-4.466,4.208-7.071v-49.14c0.001-2.606-3.281-4.717-7.329-4.717z" fill="#5b5b5b"/>	<path fill="#f0f0f0" d="M196.3,44.56h-179.4c-4.007,0-7.25,1.941-7.25,2.82v3.381c0-0.8803,3.243-1.595,7.25-1.595h179.3c4.006,0,7.257,0.7151,7.257,1.595v-3.388c-0.108-1.653-3.252-2.812-7.257-2.812z"/>	<path opacity="0.70999995" d="M9.399,93.17v-42.53h129.9s-110.1-1.147-129.9,42.52z" fill="url(#radialGradient3806)"/>	<path opacity="0.70999995" d="M9.399,93.17v-42.53h129.9s-110.1-1.147-129.9,42.52z" fill="#a2a2a2"/>	<path fill="#4f4f4f" d="m119.1,136.8c0,3.539-2.437,6.408-5.444,6.408h-14.37c-3.007,0-5.444-2.869-5.444-6.408v-29.13c0-3.539,2.437-6.408,5.444-6.408h14.29c3.007,0,5.444,2.869,5.444,6.408v29.1z"/>	<path fill="#bcbcbc" d="m117.3,134.9c0,3.042-2.094,5.505-4.676,5.505h-12.28c-2.584,0-4.676-2.463-4.676-5.505v-24.99c0-3.04,2.093-5.505,4.676-5.505h12.28c2.582,0,4.676,2.465,4.676,5.505v25z"/>	<rect height="5.082" width="25.18" y="126.2" x="93.89" fill="#4f4f4f"/>	<polygon stroke-opacity="0.99115044" transform="matrix(0.72087502,0,0,0.72439567,63.0281,81.420037)" stroke="#736d6d" points="171.9,0,171.9,177,51.32,167.1,50.76,78.92,50.33,9.887" stroke-dasharray="none" stroke-miterlimit="4" stroke-width="2" fill="#fbfbfb"/>	<polygon transform="matrix(0.72095576,0,0,0.72566221,64.34541,80.838246)" stroke="#625959" points="200.9,166.1,171.9,177,171.9,0.989,200.2,7.91" stroke-dasharray="none" stroke-miterlimit="4" stroke-width="2" fill="#bfbfbf"/>	<path opacity="0.5" d="m100,125.7s16.78-44.79,80.26,22.55c10.25,10.88,28.02-18.51,28.02-18.51l0.1559,71.23-20.76,7.841-1.744,0.01-85.92-6.858c0.128-48.38,0.0464-69.8-0.005-76.26z" stroke-miterlimit="4" stroke-width="0" fill="url(#linearGradient3796)"/>	<path opacity="0.89655175" d="m188,208.6s8.929-10.96,11.92-17.29c4.358-9.239,8.419-29.48,8.419-29.48l0.5249,38.88z" stroke-miterlimit="4" stroke-width="0" fill="#613e61"/>	<path fill="#000" d="m108.8,122.5-7.014-21.3,2.591-0.7407,3.448,10.52c0.9833,3.176,2.099,5.625,2.766,8.382h0.0699c0.6664-2.722,1.615-5.689,2.703-8.76l4.195-12.04,3.072-0.3261-8.461,24.26h-3.371z"/>	<path fill="#000" d="m133.5,96.3-0.1056,0.7407-6.53,3.089-1.317-5.968,9.111-4.188,6.583-0.7407,0,33.29-7.742,0,0-26.22z"/>	<path fill="#000" d="m176.6,123.3-4.007-7.177c-1.317-2.461-2.159-4.293-3.16-6.334h-0.1056c-0.7379,2.041-1.633,3.874-2.792,6.334l-2.896,6.387h-9.163l10.27-17.85-9.156-15.95,9.217-0.7407,2.361,5.7c1.054,2.146,1.844,3.874,2.687,5.864h0.1048c0.8435-2.251,1.527-3.822,2.422-5.864l3.002-6.44,9.164-0.7407-10.01,17.97,11.33,18.85h-9.268z"/></svg>