<?xml version="1.0" encoding="UTF-8" standalone="no"?>
<svg xmlns:rdf="http://www.w3.org/1999/02/22-rdf-syntax-ns#" xmlns="http://www.w3.org/2000/svg" version="1.1" xml:space="preserve" height="219" viewBox="-0.333 -0.883 219 219" width="219" enable-background="new -0.333 -0.883 202 211" y="0px" x="0px" xmlns:cc="http://creativecommons.org/ns#" xmlns:xlink="http://www.w3.org/1999/xlink" xmlns:dc="http://purl.org/dc/elements/1.1/"><metadata><rdf:RDF><cc:Work rdf:about=""><dc:format>image/svg+xml</dc:format><dc:type rdf:resource="http://purl.org/dc/dcmitype/StillImage"/><dc:title/></cc:Work></rdf:RDF></metadata>
<defs><filter id="filter4153"><feGaussianBlur stdDeviation="1.9191851"/></filter><linearGradient id="linearGradient3041" y2="92.9" gradientUnits="userSpaceOnUse" x2="-103.4" gradientTransform="matrix(1.2155217,0,0,1.2155217,264.12653,-18.048325)" y1="182.1" x1="-73.02"><stop stop-color="#915902" offset="0"/><stop stop-color="#be8c40" offset="0.5644"/><stop stop-color="#ffa318" offset="1"/></linearGradient></defs>
<linearGradient id="SVGID_1_" x1="90.34" gradientUnits="userSpaceOnUse" y1="29.05" gradientTransform="translate(0,8)" x2="95.91" y2="129.3">
	<stop stop-color="#FFF" offset="0.2978"/>
	<stop stop-color="#FFF" offset="0.5955"/>
	<stop stop-color="#EEE7E5" offset="0.9045"/>
</linearGradient>
<radialGradient id="SVGID_2_" gradientUnits="userSpaceOnUse" cy="7.904" cx="25.94" gradientTransform="matrix(0.9391,0,0,0.9391,0.2423,21.0493)" r="78.1">
	<stop stop-color="#FFF" offset="0.1573"/>
	<stop stop-color="#724548" offset="0.8989"/>
</radialGradient>
<path d="m29.54,170.5c-1.565-0.562-3.53-1.64-4.365-2.396-3.592-3.251-3.603-3.368-3.603-38.14,0-31.79-0.0432-32.78-1.492-34.09-1.44-1.304-1.492-2.297-1.492-28.87v-27.52l1.974-1.829,1.974-1.829h52.75l-0.4361-2.797c-0.3634-2.33-0.0307-3.405,1.995-6.444,8.066-12.1,30.02-19.18,46.36-14.95,13.55,3.512,27.72,15.3,26.38,21.97l-0.4438,2.219h26.73c25.91,0,26.79,0.0473,28.7,1.546l1.965,1.546v27.07c0,25.8-0.0688,27.16-1.469,28.94-1.405,1.786-1.478,3.338-1.678,35.47-0.204,32.83-0.2449,33.65-1.778,35.71-0.8633,1.158-2.709,2.776-4.102,3.597-2.486,1.464-4.023,1.495-83.83,1.652-67.26,0.1328-81.79-0.016-84.14-0.8614zm114.6-137.8c-0.7396-5.972-8.519-12.03-18.56-14.45-6.307-1.52-18.58-1.698-24.17-0.3511-6.22,1.5-12.94,4.946-16.62,8.53-2.875,2.794-3.312,3.63-3.312,6.329v3.11h63.05l-0.3925-3.17z" fill-rule="evenodd" fill-opacity="0.50196078" filter="url(#filter4153)" stroke-miterlimit="4" fill="#000"/><g transform="translate(14.916707,-1.4916707)"><path fill="#919090" d="m55.97,31.46c1.015,3.875,5.657,3.685,7.215,2.319,1.412-1.238,0.529-5.066,0.484-5.336,0,0,8.585-13.64,31.29-13.29,19.04,0.288,27.43,8.118,30.39,13.06,0,0-1.685,7.257,4.668,5.9,9-1.925-8.936-26.07-35.35-26.12-24.48-0.048-40.45,16.77-38.7,23.47z"/><path fill="#7c7c7c" d="m57.4,30.73c0.796,2.288,3.751,2.617,4.689,1.634,1.155-1.216,0.257-4.214,0.772-5.362,0,0,9.911-14.43,32.15-14.09,17.6,0.272,30.13,10.41,31.54,14.92,0,0-0.896,7.213,3.478,4.987,5.4-2.8-12-22.83-35.03-22.95-23.04-0.119-39.11,16.74-37.67,20.86z"/><path fill="#8e8682" d="m186.1,157.6c0,6.814-5.7,12.34-12.73,12.34h-157.8c-7.028,0-12.73-5.53-12.73-12.34v-92.25c0-6.812,5.705-12.34,12.73-12.34h157.8c7.03,0,12.73,5.527,12.73,12.34v92.24z"/><path fill="url(#SVGID_1_)" d="m183.6,156c0,6.572-5.545,11.9-12.39,11.9h-153.4c-6.843,0-12.39-5.33-12.39-11.9v-89.04c0-6.573,5.545-11.91,12.39-11.91h153.4c6.841,0,12.39,5.334,12.39,11.91v89.02z"/><path fill="#c1c1c1" d="m180.7,153c0,6.26-5.36,11.34-11.98,11.34h-148.5c-6.615,0-11.98-5.082-11.98-11.34v-84.78c0-6.264,5.367-11.34,11.98-11.34h148.5c6.622,0,11.98,5.08,11.98,11.34v84.81z"/><path opacity="0.43999999" d="m168.7,56.88h-31.34c-2.422,29.52,1.48,51.35-19.95,81.01-13.74,23.6-41.56,20.98-59.13,26.48h110.4c6.622,0,11.98-5.082,11.98-11.34v-84.88c0.001-6.264-5.36-11.34-11.98-11.34z" fill="#8e8682"/><path fill="#5b5b5b" d="m184.9,95.09c4.198-1.536,4.062-4.515,4.062-7.146v-49.66c0-2.631-3.17-4.766-7.07-4.766h-174.8c-3.91,0-7.075,3.102-7.075,5.735v51.02c0,2.633,0.779,4.682,5.229,5.988,0,0,31.78,5.628,91.29,5.628,59.52,0,88.37-6.796,88.37-6.796z"/><path fill="#d8d8d8" d="m182,93.25c4.059-1.433,3.935-4.21,3.935-6.667v-46.33c0-2.456-3.071-4.447-6.85-4.447h-169.1c-3.781,0-6.849,2.893-6.849,5.35v47.6c0,2.458,0.753,4.366,5.062,5.584,0,0,30.76,5.254,88.37,5.254s85.54-6.341,85.54-6.341z"/><path opacity="0.6" d="m177.6,37.55h-38.64c-1.744,20-2.438,40.31-7.659,58.92,33.02-1.628,49.16-5.114,49.16-5.114,3.989-1.346,3.861-3.945,3.861-6.247v-43.39c0.001-2.303-3.011-4.167-6.726-4.167z" fill="#5b5b5b"/><path fill="#f0f0f0" d="M177.8,37.55h-164.5c-3.676,0-6.653,1.733-6.653,2.519v3.019c0-0.787,2.977-1.425,6.653-1.425h164.6c3.675,0,6.659,0.639,6.659,1.425v-3.026c-0.098-1.477-2.984-2.512-6.659-2.512z"/><path opacity="0.70999995" d="M6.375,79.96v-37.98h119.2s-101.1-1.024-119.2,37.98z" fill="url(#SVGID_2_)"/><path opacity="0.70999995" d="M6.375,79.96v-37.98h119.2s-101.1-1.024-119.2,37.98z" fill="#a2a2a2"/><path fill="#4f4f4f" d="m107,118.9c0,3.16-2.237,5.723-4.996,5.723h-13.1c-2.759,0-4.996-2.562-4.996-5.723v-25.99c0-3.16,2.236-5.723,4.996-5.723h13.11c2.759,0,4.996,2.562,4.996,5.723v25.99z"/><path fill="#bcbcbc" d="m105.4,117.2c0,2.717-1.922,4.916-4.292,4.916h-11.25c-2.371,0-4.292-2.199-4.292-4.916v-22.33c0-2.715,1.921-4.916,4.292-4.916h11.27c2.37,0,4.292,2.201,4.292,4.916v22.33z"/><rect height="4.54" width="23.1" y="109.5" x="83.9" fill="#4f4f4f"/></g><path d="m179.4,173.3h-32.45v-3.247c0-5.518,0.6248-10,1.876-13.45,1.253-3.441,3.119-6.588,5.595-9.436,2.478-2.846,8.041-7.855,16.7-15.03,4.613-3.757,6.918-7.202,6.918-10.33,0-3.131-0.925-5.566-2.774-7.302-1.852-1.736-4.654-2.605-8.413-2.605-4.043,0-7.389,1.338-10.04,4.012-2.646,2.678-4.339,7.345-5.077,14.01l-33.14-4.1c1.137-12.18,5.562-21.99,13.28-29.42,7.712-7.429,19.54-11.15,35.48-11.15,12.41,0,22.43,2.589,30.06,7.773,10.36,7.001,15.54,16.34,15.54,28.01,0,4.84-1.338,9.509-4.012,14.01-2.679,4.5-8.144,9.993-16.4,16.48-5.751,4.555-9.38,8.214-10.89,10.97-1.508,2.764-2.265,6.363-2.265,10.8zm-33.56,8.624h34.76v30.66h-34.76v-30.66z" stroke="#efb941" stroke-width="2.43104339" fill="url(#linearGradient3041)"/>
</svg>
