<?xml version="1.0" encoding="UTF-8" standalone="no"?><svg xmlns:rdf="http://www.w3.org/1999/02/22-rdf-syntax-ns#" xmlns="http://www.w3.org/2000/svg" version="1.1" xml:space="preserve" height="219px" viewBox="-0.001 -0.68 219 219" width="219px" enable-background="new -0.001 -0.68 198 170" y="0px" x="0px" xmlns:cc="http://creativecommons.org/ns#" xmlns:xlink="http://www.w3.org/1999/xlink" xmlns:dc="http://purl.org/dc/elements/1.1/">	<metadata>		<rdf:RDF>			<cc:Work rdf:about="">				<dc:title/>				<dc:format>image/svg+xml</dc:format>				<dc:type rdf:resource="http://purl.org/dc/dcmitype/StillImage"/>			</cc:Work>		</rdf:RDF>	</metadata>	<defs>		<filter id="filter4110">			<feGaussianBlur stdDeviation="2.0494406"/>		</filter>		<radialGradient id="radialGradient3013" gradientUnits="userSpaceOnUse" cy="15.97" cx="25.89" gradientTransform="matrix(0.99725076,0,0,0.99725076,9.8360101,23.412523)" r="78.09">			<stop stop-color="#FFF" offset="0.1573"/>			<stop stop-color="#724548" offset="0.8989"/>		</radialGradient>		<linearGradient id="linearGradient3022" y2="135.1" gradientUnits="userSpaceOnUse" x2="100.2" gradientTransform="matrix(1.0161512,0,0,1.0161512,9.5309621,17.601662)" y1="30.36" x1="94.41">			<stop stop-color="#FFF" offset="0.2978"/>			<stop stop-color="#FFF" offset="0.5955"/>			<stop stop-color="#EEE7E5" offset="0.9045"/>		</linearGradient>	</defs>	<path d="m113.6,22.17c-26-0.0518-42.95,17.82-41.09,24.94,0.2452,0.9368,0.6895,1.631,1.25,2.156h-53.16c-4.152,0-7.531,3.296-7.531,6.094v54.19c0,2.196,0.5209,3.994,3.031,5.344v66.16c0,7.237,6.037,13.09,13.5,13.09h167.6c7.466,0,13.5-5.858,13.5-13.09v-66.97c3.14-1.73,3.031-4.507,3.031-7v-52.68c0-2.794-3.358-5.062-7.5-5.062h-53.62c5.679-4.502-12.7-27.04-39-27.09zm-1.906,7.625c0.7245-0.0167,1.465-0.0114,2.219,0,20.22,0.3059,29.13,8.622,32.28,13.88,0,0-0.8961,3.858,1,5.594h-66.72c1.097-1.549,0.2945-5.107,0.25-5.375,0,0,8.541-13.58,31-14.09z" fill-opacity="0.50196078" filter="url(#filter4110)" fill="#000"/>	<path fill="#919090" d="m68.96,42.52c1.077,4.114,6.006,3.914,7.662,2.464,1.5-1.315,0.5619-5.38,0.5142-5.667,0,0,9.115-14.48,33.23-14.11,20.22,0.3059,29.12,8.621,32.27,13.88,0,0-1.789,7.706,4.957,6.265,9.556-2.044-9.49-27.68-37.54-27.74-26-0.053-42.96,17.8-41.1,24.92z"/>	<path fill="#7c7c7c" d="m70.49,41.74c0.8464,2.43,3.984,2.778,4.979,1.736,1.228-1.29,0.2744-4.473,0.82-5.694,0,0,10.52-15.33,34.14-14.96,18.69,0.2896,32,11.06,33.49,15.84,0,0-0.9511,7.66,3.693,5.296,5.835-2.967-12.64-24.24-37.12-24.37-24.47-0.129-41.53,17.78-40,22.15z"/>	<path fill="#8e8682" d="m207.2,176.4c0,7.236-6.053,13.1-13.52,13.1h-167.6c-7.463,0-13.52-5.865-13.52-13.1v-97.9c0-7.233,6.057-13.1,13.52-13.1h167.6c7.466,0,13.52,5.869,13.52,13.1v97.95z"/>	<path fill="url(#linearGradient3022)" d="m204.5,174.7c0,6.979-5.888,12.64-13.15,12.64h-163c-7.266,0-13.15-5.659-13.15-12.64v-94.49c0-6.98,5.889-12.64,13.15-12.64h162.9c7.264,0,13.15,5.664,13.15,12.64v94.53z"/>	<path fill="#c1c1c1" d="m201.4,171.6c0,6.646-5.692,12.04-12.72,12.04h-157.7c-7.025,0-12.72-5.398-12.72-12.04v-90.05c0-6.651,5.699-12.04,12.72-12.04h157.7c7.032,0,12.72,5.395,12.72,12.04v90.06z"/>	<path opacity="0.43999999" d="m188.7,69.5h-33.28c-2.571,31.35,1.573,54.53-21.18,86.02-14.59,25.07-44.13,22.28-62.79,28.12h117.3c7.032,0,12.72-5.398,12.72-12.04v-90.05c0-6.651-5.692-12.04-12.72-12.04z" fill="#8e8682"/>	<path fill="#5b5b5b" d="m205.9,110.1c4.459-1.631,4.314-4.794,4.314-7.589v-52.74c0-2.794-3.366-5.061-7.508-5.061h-185.6c-4.152,0-7.513,3.292-7.513,6.09v54.18c0,2.795,0.8271,4.971,5.552,6.359,0,0,33.74,5.976,96.94,5.976s93.84-7.217,93.84-7.217z"/>	<path fill="#d8d8d8" d="m202.8,108.1c4.31-1.521,4.177-4.47,4.177-7.079v-49.15c0-2.606-3.261-4.722-7.273-4.722h-179.7c-4.016,0-7.273,3.072-7.273,5.68v50.54c0,2.61,0.7997,4.636,5.374,5.929,0,0,32.66,5.58,93.84,5.58s90.83-6.734,90.83-6.734z"/>	<path opacity="0.6" d="m198.1,48.31h-41.03c-1.851,21.47-2.588,43.26-8.133,63.24,35.06-1.748,52.21-5.488,52.21-5.488,4.235-1.444,4.099-4.235,4.099-6.707v-46.58c0.00095-2.471-3.197-4.472-7.142-4.472z" fill="#5b5b5b"/>	<path fill="#f0f0f0" d="M198.4,47.92h-174.8c-3.904,0-7.064,1.84-7.064,2.674v3.206c0-0.8353,3.16-1.514,7.064-1.514h174.7c3.902,0,7.07,0.6778,7.07,1.514v-3.214c-0.1036-1.566-3.168-2.665-7.07-2.665z"/>	<path opacity="0.70999995" d="m16.3,94.01v-40.33h126.5s-107.3-1.086-126.5,40.33z" fill="url(#radialGradient3013)"/>	<path opacity="0.70999995" d="m16.3,94.01v-40.33h126.5s-107.3-1.086-126.5,40.33z" fill="#a2a2a2"/>	<path fill="#4f4f4f" d="m123.2,135.4c0,3.356-2.376,6.077-5.305,6.077h-13.93c-2.931,0-5.305-2.721-5.305-6.077v-27.6c0-3.355,2.375-6.076,5.305-6.076h13.93c2.93,0,5.305,2.721,5.305,6.076v27.6z"/>	<path fill="#bcbcbc" d="m121.5,133.6c0,2.884-2.04,5.22-4.557,5.22h-11.96c-2.518,0-4.557-2.336-4.557-5.22v-23.71c0-2.883,2.039-5.22,4.557-5.22h11.96c2.518,0,4.557,2.337,4.557,5.22v23.71z"/>	<rect height="4.821" width="24.54" y="125.4" x="98.63" fill="#4f4f4f"/></svg>