<?xml version="1.0" encoding="UTF-8" standalone="no"?>
<svg
   xmlns:dc="http://purl.org/dc/elements/1.1/"
   xmlns:cc="http://creativecommons.org/ns#"
   xmlns:rdf="http://www.w3.org/1999/02/22-rdf-syntax-ns#"
   xmlns:svg="http://www.w3.org/2000/svg"
   xmlns="http://www.w3.org/2000/svg"
   xmlns:xlink="http://www.w3.org/1999/xlink"
   xmlns:sodipodi="http://sodipodi.sourceforge.net/DTD/sodipodi-0.dtd"
   xmlns:inkscape="http://www.inkscape.org/namespaces/inkscape"
   id="svg3441"
   viewBox="0 0 219 219"
   version="1.0"
   inkscape:version="0.47 r22583"
   width="219"
   height="219"
   sodipodi:docname="cause.svg">
   <sodipodi:namedview
     pagecolor="#ffffff"
     bordercolor="#666666"
     borderopacity="1"
     objecttolerance="10"
     gridtolerance="10"
     guidetolerance="10"
     inkscape:pageopacity="0"
     inkscape:pageshadow="2"
     inkscape:window-width="640"
     inkscape:window-height="480"
     id="namedview43"
     showgrid="false"
     inkscape:zoom="1.0776256"
     inkscape:cx="109.5"
     inkscape:cy="109.5"
     inkscape:current-layer="svg3441" />
     
<defs id="defs4">
  <filter id="filter3879">
   <feGaussianBlur id="feGaussianBlur3881" stdDeviation="3.2997901"/>
  </filter>
  <filter id="filter3879-9" color-interpolation-filters="sRGB">
   <feGaussianBlur id="feGaussianBlur3881-6" stdDeviation="3.2997901"/>
  </filter>
  <filter id="filter3925" height="1.4031619" width="1.4317128" y="-0.20158094" x="-0.2158564">
   <feGaussianBlur id="feGaussianBlur3927" stdDeviation="2.7771117"/>
  </filter>
  <filter id="filter3925-2" width="1.4317127" y="-0.20158094" x="-0.2158564" height="1.4031619" color-interpolation-filters="sRGB">
   <feGaussianBlur id="feGaussianBlur3927-0" stdDeviation="2.7771117"/>
  </filter>
  <filter id="filter3959" height="1.2010797" width="1.2795192" y="-0.10053984" x="-0.1397596">
   <feGaussianBlur id="feGaussianBlur3961" stdDeviation="2.5943869"/>
  </filter>
  <filter id="filter3959-6" width="1.2795192" y="-0.10053984" x="-0.1397596" height="1.2010797" color-interpolation-filters="sRGB">
   <feGaussianBlur id="feGaussianBlur3961-2" stdDeviation="2.5943869"/>
  </filter>
  <filter id="filter4064" height="1.2531073" width="1.3254238" y="-0.12655366" x="-0.16271188">
   <feGaussianBlur id="feGaussianBlur4066" stdDeviation="0.46468343"/>
  </filter>
  <filter id="filter4240">
   <feGaussianBlur id="feGaussianBlur4242" stdDeviation="2.25428"/>
  </filter>
  <linearGradient id="linearGradient4266" y2="46.174" gradientUnits="userSpaceOnUse" x2="48.687" y1="61.698" x1="50.092">
   <stop id="stop4262" stop-color="#d38209" offset="0"/>
   <stop id="stop4264" stop-color="#e3c79d" offset="1"/>
  </linearGradient>
  <filter id="filter4349">
   <feGaussianBlur id="feGaussianBlur4351" stdDeviation="0.6824114"/>
  </filter>
 </defs>
 <metadata id="metadata7">
  <rdf:RDF>
   <cc:Work rdf:about="">
    <dc:format>image/svg+xml</dc:format>
    <dc:type rdf:resource="http://purl.org/dc/dcmitype/StillImage"/>
    <dc:title/>
   </cc:Work>
  </rdf:RDF>
 </metadata>
 <g id="layer1" transform="translate(0,-833.36218)">
  <g id="g4353" transform="translate(0,-4)">
   <g id="g4339" opacity="0.5" transform="translate(-146.08942,-67.85196)" filter="url(#filter4349)" fill="#000">
    <path id="path4244-5" d="m284.17,1076.1c-5.8107,17.118-8.7161,24.943-8.7161,24.943l8.2318-8.3144,4.358-9.7816z"/>
    <path id="path4246-4" d="m295.31,1072.7,11.621,14.672,3.8738-6.3581-5.3265-3.9126-5.8107-6.8472z"/>
    <path id="path4248-2" d="m305.47,1052.7,23.243-6.8471-2.9053,3.4236-8.716,3.9126-3.8738,3.9126z"/>
    <path id="path4250-1" d="m313.22,1064.4c8.716,3.4236,21.79,7.8253,21.79,7.8253l-9.6845,0.4891z"/>
    <path id="path4252-8" d="m307.41,1065.9,6.2949,6.3581-7.7476-1.4673z"/>
    <path id="path4254-0" d="m294.82,1064.4,3.3896-8.3144,3.8738,6.3581z"/>
    <path id="path4256-9" d="m304.51,1095.2-0.48423,10.76,4.8422-7.8253z"/>
    <path id="path4258-5" d="m321.45,1081.5c9.6845,2.4454,17.916,5.869,17.916,5.869l-20.337-2.9345z"/>
   </g>
   <path id="path3775-4-9" opacity="0.5" d="m191.72,846.6c-4.0313,0.0246-8.0336,0.80378-11.688,2.375-5.083,2.1857-2.9699,0.32032-32.5,28.281l-27,25.562-1.4375,2.375c-0.76156,1.2427-1.5417,2.8422-2.2188,4.5312-0.45333,1.125-0.86547,2.2942-1.2188,3.4375-0.35134,1.1443-0.64247,2.2628-0.84375,3.2812-0.10109,0.50899-0.19625,0.98674-0.25,1.4375-0.10533,0.88341-0.15709,1.7499-0.1875,2.625-0.00037,0.0104,0.00036,0.0209,0,0.0312-0.0292,0.86453-0.0105,1.741,0.0312,2.5938,0.0423,0.86306,0.10596,1.7151,0.21875,2.5625,0.16919,1.2711,0.42843,2.5245,0.75,3.75,0.10713,0.40856,0.22025,0.81617,0.34375,1.2188,0.12357,0.40253,0.23533,0.79141,0.375,1.1875,0.0487,0.13883,0.10557,0.26825,0.15625,0.40625-1.9187,1.8171-2.91,2.7498-5.1875,4.9062l-7.4062,7.0312c-7.5771-3.3848-16.805-3.5322-24.437-0.25-1.6328,0.7021-2.5356,0.97796-3.9688,1.9688l-1.5938,0.875-4.8438,4.5938c-4.208,3.867-10.813,10.162-22.094,20.844l-27,25.562-1.4375,2.375c-2.0308,3.314-4.1013,9.0815-4.5312,12.688-1.6853,14.134,6.3844,27.41,19.625,32.375,1.8203,0.6827,4.4366,1.4559,5.8438,1.6875,7.3407,1.2081,15.088-0.4074,21.562-4.4689,1.5438-0.9685,6.7069-5.74,28.5-26.438l6.8125-6.4687c0.52515,0.2311,1.0821,0.4526,1.625,0.6562,1.8202,0.6826,4.4678,1.4247,5.875,1.6563,7.3407,1.2079,15.057-0.4075,21.531-4.4688,1.0923-0.6849,4.3036-3.553,13.625-12.344,0.4811-0.0659,0.89062-0.25181,1.2188-0.5625,1.368-1.2953,0.63993-4.325-1.6562-6.75-2.2962-2.425-5.2883-3.3265-6.6562-2.0312-0.23881,0.22612-0.38736,0.49381-0.5,0.8125-0.009-0.021-0.0219-0.0415-0.0312-0.0625-6.3971,6.0127-11.028,10.349-11.469,10.656-4.0217,2.8066-9.0491,3.8759-13.812,3.1562l10.031-9.5312,1.3438-2.25c0.36139-0.60181,0.69876-1.2594,1.0312-1.9375,1.7524-3.3614,2.8891-6.9866,3.3438-10.688,0.21393-1.4198,0.31281-2.767,0.28125-3.9688-0.21587-8.2099-3.2787-15.522-8.6562-21.031,1.9513-1.8493,3.2214-3.035,5.5938-5.2812,1.5314-1.4501,2.1405-2.0249,3.5-3.3125,0.0789,0.0867,0.1701,0.16419,0.25,0.25,0.57551,0.61931,1.1531,1.2096,1.7812,1.7812,0.31126,0.28315,0.61374,0.54174,0.9375,0.8125,0.98091,0.82303,2.0028,1.5807,3.0938,2.2812,0.95622,0.61403,1.9648,1.1768,3,1.6875,0.12562,0.0619,0.24826,0.12724,0.375,0.1875,0.1839,0.0877,0.37626,0.16574,0.5625,0.25,0.20966,0.0946,0.41243,0.19104,0.625,0.28125,0.41592,0.17717,0.82312,0.33991,1.25,0.5,0.455,0.17062,0.94327,0.33028,1.4688,0.5,0.53732,0.17325,1.0804,0.34692,1.625,0.5,0.53177,0.15062,1.0261,0.2929,1.5,0.40625,0.009,0.002,0.0222-0.002,0.0312,0,0.46035,0.10953,0.87543,0.19351,1.2188,0.25,0.009,0.001,0.0228-0.001,0.0312,0,0.91757,0.15098,1.8237,0.2484,2.75,0.3125,1.3894,0.0961,2.7964,0.0957,4.1875,0,1.8558-0.12791,3.6855-0.4151,5.5-0.875,1.36-0.34463,2.7195-0.78628,4.0312-1.3125,0.87447-0.35081,1.7174-0.72636,2.5625-1.1562,0.84506-0.42989,1.6907-0.89858,2.5-1.4062,0.33558-0.21035,1.0415-0.78729,2.0312-1.6562,0.83021-0.72441,2.2075-1.9791,3.6875-3.3438,1.7279-1.5932,4.1433-3.8441,7.0625-6.5938,0.24662,3.7397-0.59373,7.536-2.5312,11.156-0.5806,1.0848-1.9166,2.4941-10.812,11-0.47446,0.0725-0.89266,0.25377-1.2188,0.5625-1.4012,1.327-0.63339,4.4221,1.7188,6.9062,2.3522,2.4842,5.4112,3.4206,6.8125,2.0938,0.35132-0.33066,0.53696-0.7662,0.625-1.2812l11.25-10.656,1.375-2.2812c2.7673-4.6082,4.7513-11.756,4.625-16.562-0.0956-3.6353-0.77123-7.1061-1.9375-10.312,1.9818-1.8793,3.4589-3.2647,5.8125-5.5l26.594-25.25,1.3438-2.2812c2.7672-4.6084,4.7825-11.756,4.6562-16.562-0.30162-11.472-6.1684-21.188-16.125-26.688-4.4531-2.4598-9.6606-3.6879-14.844-3.6562zm0.46875,11.688c5.3011,0.0945,10.495,2.4805,14.062,6.625,1.0372,1.8822,2.6394,4.9658,3.1875,7.0312,0.84246,3.1746,1.3372,6.5809,0.75,9.8125-0.47304,2.6035-3.3438,7.1875-3.3438,7.1875s0.23659-0.18972,0.3125-0.25c-1.909,2.1358-7.1995,7.1762-24.719,23.812-1.6096,1.5285-2.676,2.5389-4.2188,4-2.2736-2.483-4.9998-4.6487-8.125-6.375-7.9167-4.373-18.179-4.8414-26.531-1.25-3.9421,1.6952-4.0075,1.3775-17.406,14-0.0755-0.95626-0.0745-1.9142,0-2.875,0.15227-1.9638,0.60734-3.9284,1.375-5.8125,0.25634-0.62821,0.55168-1.2343,0.875-1.8438,0.16157-0.30469,0.35297-0.60714,0.53125-0.90625,0.12522-0.21008,0.25958-0.41588,0.4375-0.65625,0.004-0.005-0.004-0.0261,0-0.0312,0.18324-0.24567,0.43055-0.51795,0.75-0.875,0.004-0.004-0.004-0.0268,0-0.0312,0.31064-0.34627,0.73941-0.75965,1.25-1.2812,0.0211-0.0214,0.0411-0.072,0.0625-0.0937,0.48816-0.49692,1.1512-1.1338,1.875-1.8438v-0.0312c3.4168-3.3503,9.7171-9.3056,21.969-20.906,27.932-26.448,26.284-25.056,31.156-26.594,1.8812-0.59364,3.8223-0.84688,5.75-0.8125zm-36.469,59.906c5.2222,0.0934,10.344,2.4072,13.906,6.4375-4.0424,3.8053-7.944,7.4588-10.219,9.5625l-0.0312-0.0625c-0.41747,0.37308-3.1916,2.9963-3.2812,3.0625-1.0295,0.71846-2.1111,1.3202-3.25,1.8125-0.75946,0.3284-1.5512,0.6171-2.3438,0.84375-1.1889,0.33997-2.3967,0.5483-3.625,0.65625-0.81888,0.072-1.648,0.095-2.4688,0.0625-1.2307-0.0493-2.4562-0.2127-3.6562-0.5-1.2004-0.28698-2.3726-0.68987-3.5-1.2188-0.66703-0.31293-1.3041-0.64642-1.9062-1-0.60233-0.35338-1.1785-0.72807-1.7188-1.125-1.0368-0.76279-1.9592-1.5911-2.7812-2.5312,14.662-13.83,15.171-13.94,19.125-15.188,1.8812-0.59364,3.8222-0.84699,5.75-0.8125zm-65.219,35.125c1.0911-0.0249,2.1765,0.083,3.25,0.25l-9.6562,9.1562-1.4688,2.375c-2.0308,3.314-4.1013,9.0814-4.5312,12.688-1.1319,9.4928,2.1351,18.593,8.4062,25.063-1.7415,1.6549-2.8082,2.6623-4.875,4.625-13.746,13.054-25.605,24.141-26.344,24.656-5.4907,3.8318-12.831,4.477-18.844,1.6563-5.3362-2.5033-8.5537-6.2469-10.344-12.031-1.5591-5.0381-0.82127-10.589,2.0312-15.375,1.0353-1.7368,2.5405-3.2115,26.344-25.75,13.486-12.77,19.995-18.972,23.75-22.219,0.14065-0.12553,0.34-0.29255,0.46875-0.40625,1.3513-1.1528,2.2949-1.8695,3.0938-2.375,0.92516-0.48511,1.8822-0.91813,2.8438-1.25,0.01816-0.006,0.04419,0.006,0.0625,0,1.9052-0.65112,3.8629-1.018,5.8125-1.0625zm14.125,5.7188c0.3751,0.3812,0.72276,0.76948,1.0625,1.1875,0.99236,1.7713,2.9007,5.3355,3.5,7.5938,0.36858,1.3889,0.67079,2.8037,0.84375,4.25,0.0102,0.61052,0.0166,1.2349-0.0312,1.8438-0.004,0.0411-0.0274,0.0839-0.0312,0.125-0.10092,1.185-0.30842,2.3512-0.625,3.5-0.0148,0.0536-0.0472,0.1027-0.0625,0.15625-0.0975,0.34248-0.19602,0.69433-0.3125,1.0312-0.0106,0.0312-0.0204,0.0625-0.0312,0.0937-0.50805,1.4455-1.1808,2.8328-2.0312,4.125-0.53543,0.69511-1.4742,1.7386-3.8125,4.0312-0.0747,0.072-0.27538,0.24422-0.3125,0.28125-1.7596,1.7217-4.2559,4.1372-7.7812,7.5-2.0652-2.1192-3.5454-4.7447-4.5625-8.0312-1.5592-5.0383-0.82129-10.589,2.0312-15.375,0.77001-1.2919,1.8784-2.5287,12.156-12.312z" fill-rule="evenodd" transform="matrix(0.98906713,0,0,0.99898901,-3.8722552,6.451276)" filter="url(#filter4240)" stroke-miterlimit="4" stroke-width="0" fill="#333"/>
   <path id="path3775-4" d="m148.48,946.21c-6.4035,4.0574-14.049,5.6521-21.309,4.4454-1.3917-0.2313-4.0035-0.97853-5.8036-1.6603-13.096-4.9606-21.055-18.248-19.388-32.368,0.42527-3.6024,2.45-9.3531,4.4586-12.664l1.445-2.3817,26.693-25.528c29.207-27.933,27.103-26.082,32.131-28.266,8.2605-3.5877,18.422-3.0946,26.252,1.274,9.8477,5.4943,15.656,15.201,15.955,26.661,0.12485,4.802-1.8634,11.961-4.6003,16.565l-1.3434,2.2594-26.312,25.241c-21.555,20.677-26.65,25.454-28.177,26.422zm46.199-60.275c3.0747-5.8026,3.3822-12.079,0.87157-17.794-0.32185-0.73272-1.2158-2.2043-1.9864-3.27-4.6882-6.4833-13.08-9.3273-20.523-6.9551-4.8188,1.5359-3.1773,0.12152-30.804,26.542-23.543,22.516-25.044,23.998-26.068,25.733-2.8214,4.7809-3.5433,10.319-2.0012,15.353,1.7705,5.7784,4.9585,9.5233,10.236,12.024,5.9469,2.8178,13.217,2.1725,18.648-1.6553,0.73047-0.51491,12.452-11.606,26.047-24.646,23.293-22.341,24.769-23.803,25.579-25.332z" fill-rule="evenodd" stroke-miterlimit="4" stroke-width="0" fill="#333"/>
   <path id="path3775" d="m48.766,1041.1c-6.4036,4.0574-14.049,5.6522-21.309,4.4453-1.3918-0.2312-4.0034-0.9783-5.8038-1.6603-13.096-4.9606-21.055-18.248-19.388-32.368,0.42526-3.6024,2.4499-9.3532,4.4586-12.664l1.4453-2.3,26.693-25.53c29.207-27.933,27.104-26.082,32.131-28.266,8.2605-3.5877,18.422-3.0946,26.252,1.274,9.8477,5.4943,15.656,15.201,15.955,26.661,0.12487,4.802-1.8633,11.961-4.6003,16.565l-1.3433,2.2595-26.312,25.241c-21.555,20.677-26.65,25.454-28.177,26.422zm46.199-60.275c3.0746-5.8027,3.3822-12.079,0.87161-17.794-0.32184-0.73272-1.2158-2.2043-1.9864-3.27-4.6881-6.4832-13.08-9.3273-20.522-6.9551-4.8188,1.5359-3.1773,0.12153-30.804,26.542-23.543,22.516-25.044,23.998-26.068,25.733-2.8213,4.7809-3.5433,10.32-2.0012,15.352,1.7705,5.7785,4.9586,9.5235,10.236,12.024,5.9469,2.8179,13.217,2.1726,18.648-1.6553,0.73051-0.5149,12.452-11.606,26.047-24.646,23.293-22.341,24.769-23.803,25.579-25.332z" fill-rule="evenodd" stroke-miterlimit="4" stroke-width="0" fill="#333"/>
   <path id="path3775-8" style="stroke-dasharray:none;" d="m71.817,961.41-1.455,2.3957c-2.0086,3.3106-4.0308,9.0557-4.456,12.658-1.6669,14.12,6.2871,27.412,19.383,32.372,1.8003,0.6819,4.4221,1.4335,5.8139,1.6648,7.2604,1.2067,14.911-0.3989,21.315-4.456,1.0876-0.689,4.2656-3.5838,13.63-12.506-1.6086-0.87242-3.1052-2.0161-4.4327-3.4321-1.4065-1.5003-2.4983-3.1957-3.2844-4.9765-6.3271,6.0066-10.902,10.313-11.338,10.62-5.4307,3.8279-12.71,4.4815-18.657,1.6636-5.2778-2.5008-8.4589-6.2529-10.229-12.031-1.5421-5.0332-0.83195-10.567,1.9894-15.348,1.0239-1.7351,2.5317-3.2302,26.075-25.746,27.626-26.421,25.987-24.997,30.806-26.532,7.4425-2.3722,15.836,0.47301,20.524,6.9563,0.77061,1.0657,1.6611,2.5315,1.983,3.2642,2.5105,5.7151,2.1965,11.998-0.87821,17.8-0.57426,1.0837-1.8828,2.4991-10.681,10.996-0.46927,0.0725-0.8845,0.26006-1.207,0.56848-1.3858,1.3257-0.61183,4.4147,1.7146,6.8963,2.3265,2.4817,5.3243,3.4162,6.7103,2.0907,0.34748-0.33033,0.55766-0.77162,0.64473-1.2862l11.112-10.655,1.3523-2.2696c2.7371-4.6036,4.7146-11.75,4.5896-16.552-0.29822-11.46-6.1003-21.181-15.948-26.675-7.8301-4.3686-17.993-4.8416-26.253-1.2539-5.0274,2.1835-2.9216,0.31137-32.129,28.244l-26.693,25.528z" fill-rule="evenodd" stroke-dashoffset="0" stroke="#785515" stroke-miterlimit="4" stroke-width="1.98803139" fill="#d58309"/>
   <path id="path3798" style="stroke-dasharray:none;" d="m54.343,53.278c0,5.2725-2.4111,9.5468-5.3854,9.5468-2.9742,0-5.3854-4.2742-5.3854-9.5468,0-5.2725,2.4111-9.5468,5.3854-9.5468,2.9742,0,5.3854,4.2742,5.3854,9.5468z" fill-rule="evenodd" transform="matrix(0.46441081,-0.46521529,0.43973401,0.49132202,76.705893,985.22422)" stroke-dashoffset="0" stroke="#8d5a2e" stroke-miterlimit="4" stroke-width="1.5882715" fill="url(#linearGradient4266)"/>
   <path id="path3775-4-2" d="m154.12,941.22-7.8459-8.3693c-0.4129,0.3727-3.1388,3.002-3.2274,3.0682-5.4306,3.8279-12.696,4.4676-18.643,1.6497-5.2779-2.5009-8.459-6.253-10.229-12.031-1.5421-5.0332-0.83194-10.567,1.9894-15.348,0.49292-0.83525,1.2376-1.7163,4.3574-4.8089l-7.8458-8.3692-4.791,4.582-1.4542,2.3671c-2.0086,3.3106-4.017,9.0704-4.4422,12.673-1.6669,14.12,6.2872,27.412,19.383,32.372,1.8002,0.68179,4.4084,1.4187,5.8002,1.6501,7.2603,1.2066,14.896-0.38498,21.3-4.4423,0.65507-0.41473,2.6682-2.2171,5.6532-4.9879z" fill-rule="evenodd" stroke-miterlimit="4" stroke-width="0" fill="#333"/>
   <path id="path3987" stroke-linejoin="miter" d="m138.55,962.28s-78.602-6.8944-116.52-0.48958c-9.5713,1.6167-16.21,3.8441-23.01,10.771-4.7042,4.7915-7.0729,11.629-8.8124,18.114-1.7801,6.637-2.6831,13.799-1.4687,20.562,1.0454,5.8225,3.843,11.388,7.3437,16.156,3.7614,5.1237,8.5916,9.7339,14.198,12.729,6.3886,3.4132,21.052,5.3854,21.052,5.3854s-13.523-4.5576-19.094-8.8124c-4.2343-3.2342-7.7556-7.5478-10.281-12.239-2.9858-5.5468-5.2171-11.817-5.3854-18.114-0.22415-8.3883,1.5254-17.303,5.8749-24.479,3.4774-5.7372,9.6835-10.864,15.177-13.219,5.4934-2.3551,17.073-4.4636,37.208-5.8749s83.718-0.48958,83.718-0.48958z" transform="matrix(0.43372502,-0.41232073,0.40822559,0.43807596,-329.24742,554.14052)" filter="url(#filter3879)" stroke="#000" stroke-linecap="butt" stroke-width="1px" fill="#f9f9f9"/>
   <path id="path3865" d="m98.167,994.3-7.8458-8.3693c0.39197-0.39492,3.1388-3.002,3.2045-3.0926,4.0804-5.2682,5.1092-12.56,2.6478-18.712-2.1844-5.4592-5.7202-8.8721-11.336-10.973-4.8916-1.8298-10.401-1.4154-15.282,1.1692-0.85261,0.45156-1.7642,1.1546-4.9917,4.1323l-7.8458-8.3692,4.7911-4.582,2.4194-1.3375c3.3824-1.8452,9.1861-3.5565,12.771-3.7889,14.05-0.91091,26.756,7.8359,30.946,21.314,0.57612,1.853,1.1622,4.5235,1.3151,5.9398,0.79679,7.388-1.1931,15.002-5.5533,21.239-0.44558,0.63813-2.3375,2.5699-5.2396,5.4292z" fill-rule="evenodd" stroke-miterlimit="4" stroke-width="0" fill="#333"/>
   <path id="path3873" stroke-linejoin="miter" d="m21.541,100.52s-78.602-6.8944-116.52-0.48958c-9.5713,1.6167-16.21,3.8441-23.01,10.771-4.7042,4.7915-7.0729,11.629-8.8124,18.114-1.7801,6.637-2.6831,13.799-1.4687,20.562,1.0454,5.8225,3.843,11.387,7.3437,16.156,3.7614,5.1237,8.5916,9.7339,14.198,12.729,6.3886,3.4132,21.052,5.3854,21.052,5.3854s-13.523-4.5576-19.094-8.8124c-4.2343-3.2342-7.7556-7.5478-10.281-12.239-2.9858-5.5467-5.2171-11.817-5.3854-18.114-0.22415-8.3883,1.5254-17.303,5.8749-24.479,3.4774-5.7372,9.6835-10.864,15.177-13.219,5.4934-2.3551,17.073-4.4636,37.208-5.8749s83.718-0.48958,83.718-0.48958z" transform="matrix(0.43372502,-0.41232073,0.40822559,0.43807596,10.952356,919.21646)" filter="url(#filter3879)" stroke="#000" stroke-linecap="butt" stroke-width="1px" fill="#f9f9f9"/>
   <path id="path3873-4" stroke-linejoin="miter" d="m252.9,932.55s-78.602-6.8944-116.52-0.48958c-9.5713,1.6167-16.21,3.8441-23.01,10.771-4.7042,4.7915-7.0729,11.629-8.8124,18.114-1.7801,6.637-2.6831,13.799-1.4687,20.562,1.0454,5.8225,3.843,11.387,7.3437,16.156,3.7614,5.1237,8.5916,9.7338,14.198,12.729,6.3886,3.4131,21.052,5.3853,21.052,5.3853s-13.523-4.5575-19.094-8.8124c-4.2343-3.2341-7.7556-7.5478-10.281-12.239-2.9858-5.5467-5.2171-11.817-5.3854-18.114-0.22415-8.3883,1.5254-17.303,5.8749-24.479,3.4774-5.7372,9.6835-10.864,15.177-13.219,5.4934-2.3551,17.073-4.4636,37.208-5.8749s83.718-0.48958,83.718-0.48958z" transform="matrix(0.43372502,-0.41232073,0.40822559,0.43807596,-329.24742,554.14052)" filter="url(#filter3879-9)" stroke="#000" stroke-linecap="butt" stroke-width="1px" fill="#f9f9f9"/>
   <path id="path3907" d="m55.812,974.03s-2.3673,10.501-4.8958,15.177c-2.5944,4.7976-5.8932,9.4896-10.281,12.729-3.5351,2.6098-12.239,4.8958-12.239,4.8958s12.358,1.1809,17.625-1.4687c4.8548-2.4426,8.2722-7.4133,10.771-12.239,1.6196-3.1285,2.6893-6.7666,2.4479-10.281-0.21596-3.1444-3.427-8.8124-3.427-8.8124z" transform="matrix(0.43372502,-0.41232073,0.40822559,0.43807596,-329.24742,554.14052)" filter="url(#filter3925)" stroke-miterlimit="4" stroke-width="0" fill="#f9f9f9"/>
   <path id="path3907-0" d="m286.14,972.19s-2.3673,10.501-4.8958,15.177c-2.5944,4.7976-5.8932,9.4896-10.281,12.729-3.5351,2.6098-12.239,4.8958-12.239,4.8958s12.358,1.1809,17.625-1.4687c4.8548-2.4426,8.2722-7.4132,10.771-12.239,1.6196-3.1285,2.6893-6.7666,2.4479-10.281-0.21596-3.1443-3.427-8.8124-3.427-8.8124z" transform="matrix(0.43372502,-0.41232073,0.40822559,0.43807596,-329.24742,554.14052)" filter="url(#filter3925-2)" stroke-miterlimit="4" stroke-width="0" fill="#f9f9f9"/>
   <path id="path3953" stroke-linejoin="miter" d="m28.885,187.67s15.47-4.7742,22.031-9.302c4.0849-2.8192,7.6318-6.5736,10.281-10.771,1.9575-3.1012,2.6837-6.8273,3.9166-10.281,1.3879-3.8882,2.954-7.7352,3.9166-11.75,0.7695-3.2094,1.2233-6.5003,1.4687-9.7916,0.24275-3.2548,0-9.7916,0-9.7916s2.9631,9.0351,2.9375,13.708c-0.0285,5.1863-1.804,10.251-3.427,15.177-1.3949,4.2334-3.1735,8.3697-5.3854,12.239-2.4947,4.3646-5.1028,8.8464-8.8124,12.239-3.7793,3.4568-8.3039,6.3916-13.219,7.8332-4.3874,1.287-13.708,0.48958-13.708,0.48958z" transform="matrix(0.43372502,-0.41232073,0.40822559,0.43807596,10.952356,919.21646)" filter="url(#filter3959)" stroke="#000" stroke-linecap="butt" stroke-width="1px" fill="#000"/>
   <path id="path3953-2" stroke-linejoin="miter" d="m258.74,1019.9s15.47-4.7741,22.031-9.3019c4.0849-2.8192,7.6318-6.5736,10.281-10.771,1.9575-3.1012,2.6837-6.8273,3.9166-10.281,1.3879-3.8881,2.954-7.7351,3.9166-11.75,0.7695-3.2094,1.2233-6.5003,1.4687-9.7916,0.24275-3.2548,0-9.7916,0-9.7916s2.9631,9.0351,2.9375,13.708c-0.0285,5.1863-1.804,10.251-3.427,15.177-1.3949,4.2334-3.1735,8.3697-5.3854,12.239-2.4948,4.3646-5.1028,8.8464-8.8124,12.239-3.7793,3.4568-8.3039,6.3916-13.219,7.8333-4.3874,1.2869-13.708,0.4895-13.708,0.4895z" transform="matrix(0.43372502,-0.41232073,0.40822559,0.43807596,-329.24742,554.14052)" filter="url(#filter3959-6)" stroke="#000" stroke-linecap="butt" stroke-width="1px" fill="#000"/>
   <path id="path3989" d="m178.21,1002.9s-2.3673,10.501-4.8958,15.177c-2.5944,4.7976-5.8932,9.4896-10.281,12.729-3.5351,2.6098-12.239,4.8958-12.239,4.8958s12.358,1.1809,17.625-1.4687c4.8548-2.4426,8.2722-7.4133,10.771-12.24,1.6196-3.1285,2.6893-6.7666,2.4479-10.281-0.21596-3.1444-3.427-8.8124-3.427-8.8124z" transform="matrix(0.43372502,-0.41232073,0.40822559,0.43807596,-329.24742,554.14052)" filter="url(#filter3925)" stroke-miterlimit="4" stroke-width="0" fill="#f9f9f9"/>
   <path id="path3991" stroke-linejoin="miter" d="m28.885,187.67s15.47-4.7742,22.031-9.302c4.0849-2.8192,7.6318-6.5736,10.281-10.771,1.9575-3.1012,2.6837-6.8273,3.9166-10.281,1.3879-3.8882,2.954-7.7352,3.9166-11.75,0.7695-3.2094,1.2233-6.5003,1.4687-9.7916,0.24275-3.2548,0-9.7916,0-9.7916s2.9631,9.0351,2.9375,13.708c-0.0285,5.1863-1.804,10.251-3.427,15.177-1.3949,4.2334-3.1735,8.3697-5.3854,12.239-2.4947,4.3646-5.1028,8.8464-8.8124,12.239-3.7793,3.4568-8.3039,6.3916-13.219,7.8332-4.3874,1.287-13.708,0.48958-13.708,0.48958z" transform="matrix(0.43372502,-0.41232073,0.40822559,0.43807596,10.952356,919.21646)" filter="url(#filter3959)" stroke="#000" stroke-linecap="butt" stroke-width="1px" fill="#000"/>
   <path id="path4006" stroke-linejoin="miter" d="m148.83,1052.9s15.47-4.7742,22.031-9.302c4.0849-2.8192,7.6318-6.5736,10.281-10.771,1.9575-3.1012,2.6837-6.8273,3.9166-10.281,1.3879-3.8882,2.954-7.7352,3.9166-11.75,0.76949-3.2094,1.2233-6.5003,1.4687-9.7915,0.24275-3.2548,0-9.7916,0-9.7916s2.9631,9.0351,2.9375,13.708c-0.0285,5.1862-1.804,10.251-3.427,15.177-1.3949,4.2334-3.1735,8.3697-5.3854,12.239-2.4948,4.3646-5.1028,8.8464-8.8124,12.239-3.7793,3.4568-8.3039,6.3916-13.219,7.8333-4.3874,1.2869-13.708,0.4896-13.708,0.4896z" transform="matrix(0.43372502,-0.41232073,0.40822559,0.43807596,-331.18432,554.62961)" filter="url(#filter3959)" stroke="#000" stroke-linecap="butt" stroke-width="1px" fill="#000"/>
   <path id="path4054" stroke-linejoin="miter" d="m154.22,117.9c1.2195,4.7128,4.1691,6.3788,7.3437,7.8332" transform="matrix(0.98906713,0,0,0.99898901,-3.8722552,838.97094)" filter="url(#filter4064)" stroke="#8a5b27" stroke-linecap="butt" stroke-width="1px" fill="#ce7f0c"/>
   <path id="path4244" stroke-linejoin="miter" d="m134.13,1006.9c-5.8107,17.118-8.7161,24.943-8.7161,24.943l8.2318-8.3144,4.358-9.7816z" stroke="#ac8765" stroke-linecap="butt" stroke-width="0.99401569px" fill="#d58309"/>
   <path id="path4246" stroke-linejoin="miter" d="m145.27,1003.5,11.621,14.672,3.8738-6.3581-5.3265-3.9126-5.8107-6.8472z" stroke="#ac8765" stroke-linecap="butt" stroke-width="0.99401569px" fill="#d58309"/>
   <path id="path4248" stroke-linejoin="miter" d="m155.44,983.41,23.243-6.8471-2.9053,3.4236-8.716,3.9127-3.8738,3.9126z" stroke="#ac8765" stroke-linecap="butt" stroke-width="0.99401569px" fill="#d58309"/>
   <path id="path4250" stroke-linejoin="miter" d="m163.19,995.15c8.716,3.4236,21.79,7.8253,21.79,7.8253l-9.6845,0.4891z" stroke="#ac8765" stroke-linecap="butt" stroke-width="0.99401569px" fill="#d58309"/>
   <path id="path4252" stroke-linejoin="miter" d="m157.37,996.61,6.2949,6.3581-7.7476-1.4673z" stroke="#ac8765" stroke-linecap="butt" stroke-width="0.99401569px" fill="#d58309"/>
   <path id="path4254" stroke-linejoin="miter" d="m144.78,995.15,3.3896-8.3144,3.8738,6.3581z" stroke="#ac8765" stroke-linecap="butt" stroke-width="0.99401569px" fill="#d58309"/>
   <path id="path4256" stroke-linejoin="miter" d="m154.47,1026-0.48423,10.76,4.8422-7.8253z" stroke="#ac8765" stroke-linecap="butt" stroke-width="0.99401569px" fill="#d58309"/>
   <path id="path4258" stroke-linejoin="miter" d="m171.42,1012.3c9.6845,2.4454,17.916,5.869,17.916,5.869l-20.337-2.9345z" stroke="#ac8765" stroke-linecap="butt" stroke-width="0.99401569px" fill="#d58309"/>
  </g>
 </g>
</svg>