<?xml version="1.0" encoding="UTF-8" standalone="no"?>
<svg id="svg4827" 
	xmlns:rdf="http://www.w3.org/1999/02/22-rdf-syntax-ns#" 
	xmlns="http://www.w3.org/2000/svg" 

	xmlns:cc="http://creativecommons.org/ns#" 
	xmlns:xlink="http://www.w3.org/1999/xlink" 
	xmlns:dc="http://purl.org/dc/elements/1.1/"
	
	version="1.1" 	
	x="0px"
	y="0px"
	width="219px"
	height="219px"
	viewBox="0 0 219 219"
	enable-background="new 0 0 219 219"
	>

 <defs id="defs4452">
  <linearGradient id="linearGradient3595">
   <stop id="stop3597" stop-color="#000080" offset="0"/>
   <stop id="stop3607" stop-color="#000080" stop-opacity="0.74901961" offset="0.48032"/>
   <stop id="stop3605" stop-color="#000080" stop-opacity="0.49803922" offset="0.99663"/>
   <stop id="stop3599" stop-color="#000080" stop-opacity="0" offset="1"/>
  </linearGradient>
  <linearGradient id="linearGradient3674" y2="929.92" xlink:href="#linearGradient3595" gradientUnits="userSpaceOnUse" x2="-198.87" gradientTransform="translate(419.78843,-79.565652)" y1="929.92" x1="-27.606"/>
  <linearGradient id="linearGradient3676" y2="929.92" xlink:href="#linearGradient3595" gradientUnits="userSpaceOnUse" x2="-198.87" gradientTransform="translate(276.34561,-78.949346)" y1="929.92" x1="-27.606"/>
  <linearGradient id="linearGradient3678" y2="929.92" xlink:href="#linearGradient3595" gradientUnits="userSpaceOnUse" x2="-198.87" gradientTransform="translate(271.71366,-78.538468)" y1="929.92" x1="-27.606"/>
  <filter id="filter3716">
   <feGaussianBlur id="feGaussianBlur3718" stdDeviation="2.7236172"/>
  </filter>
 </defs>
 <metadata id="metadata4455">
  <rdf:RDF>
   <cc:Work rdf:about="">
    <dc:format>image/svg+xml</dc:format>
    <dc:type rdf:resource="http://purl.org/dc/dcmitype/StillImage"/>
    <dc:title/>
   </cc:Work>
  </rdf:RDF>
 </metadata>
 <g id="layer1" fill-rule="nonzero" transform="translate(0,-833.36218)">
  <g id="g3706" opacity="0.5" transform="translate(-64.250764,-82.858937)" filter="url(#filter3716)" fill="#000">
   <g id="g3680" transform="matrix(1.036624,0,0,1,-159.06642,167.54081)">
    <path id="path3682" style="enable-background:accumulate;color:#000000;" d="m222.91,785.36,47.719,77.031-47.719,76.781,48.375,0,47.031-76.781-47.031-76.781-48.375-0.25z"/>
    <path id="path3684" opacity="0.5" style="enable-background:accumulate;color:#000000;" d="m222.91,785.36,47.719,77.031-47.719,76.781,48.375,0,47.031-76.781-47.031-76.781-48.375-0.25z"/>
   </g>
   <path id="path3688" style="enable-background:accumulate;color:#000000;" d="m182.41,952.9,49.466,77.031-49.466,76.781,50.179,0,48.754-76.781-48.754-76.781-50.179-0.25z"/>
   <path id="path3690" style="enable-background:accumulate;color:#000000;" d="m182.43,952.9,49.466,77.031-49.466,76.781,50.147,0,48.754-76.781-48.754-76.781-50.147-0.25z"/>
   <g id="g3692" transform="matrix(1.036624,0,0,1,1.656969,166.5136)">
    <path id="path3694" style="enable-background:accumulate;color:#000000;" d="m121.14,786.39,47.719,77.031-47.719,76.781,48.375,0,47.031-76.781-47.031-76.781-48.375-0.25z"/>
    <path id="path3696" opacity="0.75" style="enable-background:accumulate;color:#000000;" d="m121.12,786.39,47.719,77.031-47.719,76.781,48.406,0,47.031-76.781-47.031-76.781-48.406-0.25z"/>
   </g>
  </g>
  <g id="g3662" transform="matrix(1.036624,0,0,1,-230.19336,78.514888)">
   <path id="path3632" style="enable-background:accumulate;color:#000000;" fill="#FFF" d="m222.91,785.36,47.719,77.031-47.719,76.781,48.375,0,47.031-76.781-47.031-76.781-48.375-0.25z"/>
   <path id="rect2821" opacity="0.5" style="enable-background:accumulate;color:#000000;" d="m222.91,785.36,47.719,77.031-47.719,76.781,48.375,0,47.031-76.781-47.031-76.781-48.375-0.25z" fill="url(#linearGradient3674)"/>
  </g>
  <g id="g3666" transform="matrix(1.036624,0,0,1,-67.062192,77.898568)">
   <path id="path3634" style="enable-background:accumulate;color:#000000;" fill="#FFF" d="m172.05,785.98,47.719,77.031-47.719,76.781,48.406,0,47.031-76.781-47.031-76.781-48.406-0.25z"/>
   <path id="rect3611" style="enable-background:accumulate;color:#000000;" fill="url(#linearGradient3676)" d="m172.06,785.98,47.719,77.031-47.719,76.781,48.375,0,47.031-76.781-47.031-76.781-48.375-0.25z"/>
  </g>
  <g id="g3670" transform="matrix(1.036624,0,0,1,-69.469968,77.487683)">
   <path id="path3630" style="enable-background:accumulate;color:#000000;" fill="#FFF" d="m121.14,786.39,47.719,77.031-47.719,76.781,48.375,0,47.031-76.781-47.031-76.781-48.375-0.25z"/>
   <path id="rect3613" opacity="0.75" style="enable-background:accumulate;color:#000000;" d="m121.12,786.39,47.719,77.031-47.719,76.781,48.406,0,47.031-76.781-47.031-76.781-48.406-0.25z" fill="url(#linearGradient3678)"/>
  </g>
 </g>
</svg>