<?xml version="1.0" encoding="UTF-8" standalone="no"?><!-- Created with Inkscape (http://www.inkscape.org/) --><svg xmlns:rdf="http://www.w3.org/1999/02/22-rdf-syntax-ns#" xmlns="http://www.w3.org/2000/svg" xml:space="preserve" height="219" width="219" version="1.1" xmlns:cc="http://creativecommons.org/ns#" xmlns:xlink="http://www.w3.org/1999/xlink" viewBox="-0.721 -0.004 219 219" xmlns:dc="http://purl.org/dc/elements/1.1/">	<metadata>		<rdf:RDF>			<cc:Work rdf:about="">				<dc:format>image/svg+xml</dc:format>				<dc:type rdf:resource="http://purl.org/dc/dcmitype/StillImage"/>				<dc:title/>			</cc:Work>		</rdf:RDF>	</metadata>	<defs>		<filter id="filter3827-7" color-interpolation-filters="sRGB">			<feGaussianBlur stdDeviation="2.1981612"/>		</filter>		<linearGradient id="linearGradient3820" y2="25.9" gradientUnits="userSpaceOnUse" x2="73.5" gradientTransform="matrix(1.0288068,0,0,1.0101963,5.3533787,9.0029474)" y1="10.1" x1="73.8">			<stop stop-color="#e5ca9c" offset="0"/>			<stop stop-color="#d09f43" offset="0.537"/>			<stop stop-color="#d6ac69" offset="0.961"/>		</linearGradient>		<linearGradient id="linearGradient3824" y2="177" gradientUnits="userSpaceOnUse" x2="149" gradientTransform="matrix(1.0288068,0,0,1.0101963,7.3533787,9.0029474)" y1="159" x1="151">			<stop stop-color="#996736" offset="0"/>			<stop stop-color="#846444" offset="0.493"/>			<stop stop-color="#996736" stop-opacity="0" offset="1"/>		</linearGradient>		<linearGradient id="linearGradient3827" y2="190" gradientUnits="userSpaceOnUse" x2="147" gradientTransform="matrix(1.0288068,0,0,1.0101963,7.319194,8.9739428)" y1="170" x1="169">			<stop stop-color="#715838" offset="0"/>			<stop stop-color="#c7a57d" offset="1"/>		</linearGradient>		<linearGradient id="linearGradient3830" y2="13.2" gradientUnits="userSpaceOnUse" x2="188" gradientTransform="matrix(1.0288068,0,0,1.0101963,5.3533787,9.0029474)" y1="195" x1="105">			<stop stop-color="#e5ca9c" offset="0"/>			<stop stop-color="#d09f43" offset="0.121"/>			<stop stop-color="#705738" offset="0.978"/>		</linearGradient>	</defs>	<path filter="url(#filter3827-7)" fill-opacity="0.5" fill="#000" d="m47.9,16.3s-26.8,2.55-15,26.5l31.4,0.656c-1.97,12.2-4.69,24.2-9.19,35.7-2.16,5.53-4.62,11-6.94,16.4-4.34,10.2-8.7,20.4-13.2,30.6-1.43,3.18-2.73,6.53-4.53,9.53-3.21,6.86-6.07,13.9-8.72,21-3.76,10.1-9.5,23.6-7.69,34.5,1.07,6.48,9.85,10.5,15.7,11.5,4.27,0.725,7.27,0.612,11,0.969,11.9,1.12,23.8,1.87,35.7,3.09,25.8,2.66,51.6,4.74,77.3,7.25,5.86,0.569,11.7,1.08,17.6,1.62,0,0-1.42-0.349-3.41-1.28,1.29,0.449,2.69,0.852,4.19,1.19,0,0,29.7,1.58,27.3-29.4,0,0,0.0419-10.2-12.6-10.5l-29.5-2.94s-0.188,0.401-0.25,0.531c0.975-2.91,2.18-6,3.69-9.31,0,0,17.5-45.1,35.7-75.4,6.82-12,13-25.5,16.1-39,1.44-6.38,2.69-13.1-0.438-19.2-2.46-4.77-7.15-11.4-13.4-11.5l-153-5.6z"/>	<path d="m165,210s-30.9-7.27-10.6-51.7c0,0,17.5-45.1,35.7-75.4,6.82-12,13-25.5,16.1-39,1.44-6.38,2.69-13.1-0.441-19.2-2.46-4.77-7.16-11.4-13.4-11.5-0.0134,0-131-2.02-131-2.02-2.35,21-4.9,42.5-12.7,62.3-2.16,5.53-4.6,11-6.92,16.4-4.34,10.2-8.69,20.4-13.2,30.6-1.43,3.18-2.74,6.53-4.54,9.54-3.21,6.86-6.07,13.9-8.72,21-3.76,10.1-9.5,23.6-7.69,34.5,1.07,6.48,9.86,10.5,15.7,11.5,4.27,0.725,7.27,0.63,11,0.987,11.9,1.12,23.8,1.87,35.7,3.1,25.8,2.66,51.6,4.73,77.3,7.24,5.86,0.569,11.7,1.08,17.6,1.63z" stroke="#c88221" stroke-dasharray="none" stroke-miterlimit="4" stroke-width="2.03891826" fill="url(#linearGradient3830)"/>	<path d="m167,210s33.01-3.135,27.3-28.48c0,0-4.898-13.79-15.7-11.72l-28-2.496s-11.98,31.94,12.05,42.65z" stroke="#c88221" stroke-dasharray="none" stroke-miterlimit="4" stroke-width="2.03891826" fill="url(#linearGradient3827)"/>	<path d="m148,188,23,1.37s-5.74-15.1,10.7-19.8l-30.72-3.026s-5.298,15.68-2.978,21.48z" stroke="#c88221" stroke-dasharray="none" stroke-miterlimit="4" stroke-width="2.03891826" fill="url(#linearGradient3824)"/>	<path d="m177.1,22.88c2.56,0.0636,4.051-0.2747,6.621-0.2147,1.67,0.0384,5.232,0.3064,6.73,1.25,2.139,1.296,3.09,4.005,3.47,6.665,0.409,2.92-0.51,5.85-3.07,7.61-2.12,1.46-5.34,2.12-7.87,2.41-20.96,0.1441-7.317-6.238-5.881-17.72z" stroke="#c88221" stroke-dasharray="none" stroke-miterlimit="4" stroke-width="2.03891826" fill="#5c4015"/>	<path d="m26.2,37,155,3.28s-17-16.7,10.8-27.3l-151-2.5s-26.8,2.54-14.9,26.5z" stroke="#c88221" stroke-dasharray="none" stroke-miterlimit="4" stroke-width="2.03891826" fill="url(#linearGradient3820)"/>	<path d="m76.88,50.62-0.1947,0.254c-1.066,1.397-2.023,2.799-2.871,4.206l-0.1776,0.3094-0.1589-0.1041c0.04026-1.404-0.2469-2.519-0.8569-3.366-0.6128-0.8483-1.454-1.3-2.531-1.35-1.147-0.05266-2.187,0.4113-3.139,1.393-1.189,1.22-2.048,3.334-2.585,6.353-0.462,2.598-0.38,4.655,0.2505,6.16,0.6258,1.515,1.724,2.304,3.306,2.377,1.266,0.05813,2.34-0.3233,3.254-1.145,0.9045-0.8201,1.566-2.021,1.998-3.609,0.1044-0.3825,0.2913-0.5671,0.5622-0.5546,0.351,0.01613,0.4743,0.3211,0.3685,0.9159-0.1577,0.8867-0.5198,1.796-1.086,2.731-1.197,1.978-3.108,2.901-5.728,2.781-2.344-0.1076-4.054-1.028-5.141-2.764-1.078-1.728-1.369-4.017-0.8628-6.866,0.4673-2.628,1.575-4.792,3.319-6.502,1.75-1.71,3.686-2.511,5.813-2.413,1.009,0.04634,2.111,0.3508,3.317,0.9128,0.6293,0.2959,1.165,0.455,1.61,0.4744,0.4776,0.02196,0.9294-0.09081,1.356-0.3382zm-4.339,2.197c-0.51-0.96-1.22-1.32-1.95-1.36-2.334-0.1072-3.902,2.096-4.705,6.61-0.3656,2.056-0.4007,3.784-0.1023,5.173,0.2983,1.389,0.9058,2.307,1.812,2.763l-0.02444,0.1374c-1.029-0.2687-1.721-1.141-2.109-2.605-0.379-1.474-0.3736-3.304,0.01879-5.51,0.8401-4.724,2.537-7.033,5.098-6.915,0.8653,0.03975,1.592,0.4645,2.186,1.273zm2.736,9.621c-0.5475,2.26-1.478,3.957-2.789,5.09-1.318,1.133-2.966,1.654-4.944,1.563-1.503-0.06903-2.824-0.6039-3.951-1.607l0.01945-0.1093c1.02,0.8215,2.336,1.27,3.968,1.345,1.78,0.08174,3.347-0.4318,4.681-1.545,0.6506-0.5415,1.169-1.16,1.555-1.85,0.3863-0.6922,0.7278-1.615,1.025-2.774l0.083-0.3137zm2.48-11.11-0.1947,0.254c-1.286,1.66-2.348,3.169-3.179,4.536l-0.3331-0.1953,0.2093-0.3362c0.6216-0.9392,1.16-1.716,1.611-2.333l1.424-1.896,0.1794-0.2405z" fill="#000"/>	<path d="m78.93,50.31,6.358,0.292-2.164,1.741-1.054,5.928c0.2012,0.04615,0.4395,0.0847,0.7152,0.1158l1.043-5.868,1.737-1.417,0.2261,0.2592-1.642,1.33-1.017,5.717,0.4387,0.06161c0.6828,0.09587,1.348,0.1587,2,0.1886,0.9374,0.04306,1.749,0.03419,2.447-0.02616l1.122-6.309-1.379-1.611,6.25,0.287-2.194,1.74-2.533,14.24,1.368,1.559-6.22-0.2856,2.135-1.52,1.034-5.818c-0.7899,0.1478-1.581,0.2034-2.392,0.1662-0.7575-0.03477-1.535-0.112-2.332-0.2315l-0.1864-0.02241-1.031,5.798,1.771,2.711-6.991-0.3211-0.2852-0.3863,6.596,0.3029-1.475-2.131,1.122-6.309,0.3867,0.04537c1.17,0.146,2.023,0.2314,2.557,0.2559,0.8653,0.03975,1.643-0.04392,2.318-0.2525l0.08775-0.4935c-0.8703,0.08948-1.863,0.1076-2.991,0.0558-0.6042-0.02774-1.046-0.06188-1.318-0.102l-1.343-0.186c-0.05247-0.01162-0.155-0.02552-0.3056-0.04164l-1.209,6.801,1.467,1.564-6.25-0.287,2.095-1.522,1.065-5.988c-0.7575-0.03477-1.418,0.2393-1.971,0.8217l-0.2594-0.1505c0.6417-0.643,1.41-0.9768,2.294-1.017l0.09025-0.5075c-1.009-0.04631-1.879,0.3051-2.6,1.054l-0.2-0.14c0.7657-1.29,1.767-2.032,3.005-2.208l1.097-6.169zm15.49,1.486-1.615,1.291-2.479,13.94,1.781,2.711-7.021-0.3224-0.2724-0.3857,6.586,0.3024-1.442-2.149,2.533-14.24,1.771-1.436z" fill="#010101"/>	<path d="m108.9,51.69-1.691,1.55,1.152,6.08,0.5946-0.2771-1.036-5.498,1.732-1.609,0.3243,0.1666-1.65,1.542,0.9791,5.202c0.1224-0.0773,0.1946-0.1245,0.2156-0.1418l0.5143-0.3637c0.309-0.2073,0.5087-0.3548,0.5972-0.4428,0.0488,1.054,0.2439,2.003,0.5802,2.848-0.2578-0.03025-0.4461-0.0481-0.5628-0.05345-0.8564-0.03932-1.508,0.0693-1.952,0.325l1.246,6.843,1.744,1.688-6.823-0.3133,2.153-1.509-0.7914-4.071c-1.169,0.9677-2.102,1.896-2.798,2.784l-0.2959-0.09651c0.6913-0.8713,1.662-1.835,2.916-2.89l0.1322-0.1325-0.1497-0.6157c-1.229,0.8557-2.306,1.866-3.22,3.027l-0.1726-0.4084c-0.3337-0.7808-0.779-1.674-1.34-2.671l-0.1062-0.1707c-0.9724,1.533-1.543,2.791-1.716,3.764-0.1024,0.5758-0.09215,1.068,0.03033,1.478,0.1232,0.4061,0.4715,1.094,1.049,2.061,0.0485,0.08515,0.1247,0.2181,0.2293,0.3978l-7.298-0.3351-0.2041-0.3825,6.883,0.3161-0.1782-0.2984c-0.4653-0.7586-0.753-1.349-0.8637-1.759-0.1125-0.4157-0.1196-0.8974-0.02183-1.447,0.1659-0.9328,0.7876-2.31,1.859-4.121l-0.4831-0.6583c-0.1688,0.2875-0.3944,0.71-0.6761,1.273l-0.6939,1.374c-0.3765,0.7381-0.6092,1.357-0.6966,1.849-0.09097,0.5116-0.08095,0.9408,0.03055,1.286,0.111,0.3459,0.3897,0.8249,0.8317,1.434,0.04433,0.05735,0.1103,0.1477,0.1969,0.272l-6.764-0.3106c1.406-0.617,2.596-1.479,3.551-2.588,0.9559-1.109,2.02-2.84,3.177-5.194l0.08816-0.1891c-0.4045-0.4332-1.049-0.7166-1.933-0.8492,0.6287-0.7265,1.152-1.494,1.564-2.294,0.1054,0.1252,0.1687,0.2009,0.1904,0.2302l0.5058,0.6037c0.1718,0.2112,0.3825,0.4281,0.6339,0.651l0.3506-0.5927-0.1377-0.1449c-0.3794-0.4229-0.7004-0.7653-0.964-1.026l-0.1046-0.1016,0.2702-0.292c0.4207,0.3419,0.8147,0.7332,1.177,1.177l2.751-5.041-1.156-1.631zm-4.125,4.25-2.19,3.904c0.0648,0.0952,0.1005,0.1523,0.1062,0.1707l0.4426,0.6564c0.2392,0.3427,0.5268,0.8726,0.8643,1.587l0.0989,0.2118c0.4754-0.4757,1.022-0.9441,1.635-1.401zm-0.3246-1.623-3.17,5.659c0.5585,0.7446,1.024,1.473,1.394,2.198l0.4659,0.9062c0.007,0.0095,0.0419,0.0711,0.1037,0.1848,0.0957-0.07853,0.1501-0.1266,0.1622-0.1442l0.2303-0.224c0.0335-0.03527,0.0937-0.09248,0.1801-0.1717-0.4554-1.016-1.031-1.938-1.729-2.779l2.555-4.555zm7.251,4.297c0.0525,0.8316,0.3464,1.988,0.8804,3.458-0.1939-0.03651-0.3032-0.05539-0.3309-0.05666l-1.081-0.1464c-0.4873-0.06849-0.8442-0.1079-1.066-0.1181-0.0361-0.0017-0.1274-0.0012-0.2724,0.0014l1.174,6.182,2.536,2.837-7.832-0.3597-0.1913-0.3819,7.179,0.3297-2.046-2.288-1.254-6.57c0.3212-0.06817,0.6795-0.09318,1.08-0.07478,0.4865,0.02236,1.021,0.08835,1.6,0.1979l-0.1085-0.3094c-0.3839-1.11-0.5985-2.101-0.6478-2.972z" fill="#010101"/>	<path d="m117.7,53.81c2.359-1.156,4.764-1.672,7.226-1.559,1.909,0.08767,3.416,0.5806,4.502,1.481,1.086,0.8983,1.52,1.991,1.288,3.295-0.1891,1.063-0.7604,1.977-1.718,2.763-0.9564,0.7813-2.17,1.326-3.638,1.623,0.3134,1.764,0.8535,3.498,1.629,5.192s1.619,3.007,2.541,3.929l-0.2149,0.0593c-1.428,0.4047-2.86,1.001-4.297,1.795l-0.2272,0.1281,0.0105-0.4424c0.0531-3.567-0.2215-6.604-0.8228-9.109l-0.0297-0.1399c-0.6741,0.2643-1.547,0.4588-2.626,0.5842l-0.1102,0.0088-0.9114,5.126,1.925,2.687-6.991-0.3211-0.1508-0.3801,6.438,0.2956-1.582-2.206,0.9828-5.527,0.2911-0.0281c1.048-0.0621,1.945-0.2282,2.691-0.4984-0.0347-0.1118-0.0539-0.1825-0.058-0.21l-0.0648-0.4034c-0.004-0.0278-0.0169-0.0837-0.0383-0.1676-0.588,0.1388-1.673,0.269-3.259,0.3893l-0.1532,0.02057-1.088,6.119,1.252,1.706-5.973-0.2743,2.051-1.554,0.8187-4.604-0.1102,0.0088c-0.5442,0.09434-1.044,0.2059-1.495,0.3318l-0.1151,0.03618-0.0729-0.2794c0.4242-0.1373,0.7534-0.2283,0.9885-0.2721l0.7487-0.1456,0.1127-0.02243,0.1268-0.7132c-0.532-0.02442-1.218,0.06341-2.051,0.2648l-0.1581,0.04805c0.0408-0.1276,0.1834-0.4203,0.4285-0.8793,0.0245-0.03569,0.1243-0.239,0.2986-0.6082,0.0138-0.02697,0.0347-0.06758,0.0625-0.1215,0.4006,0.0461,0.7136,0.07423,0.939,0.08459,0.2433,0.01118,0.4712,0.0078,0.6837-0.01008l1.2-6.751c-0.3688-0.2748-0.7589-0.5091-1.171-0.704zm4.147-0.1685-1.315,7.393c0.2611,0.012,0.5133,0.000521,0.7558-0.03446l1.2-6.751c0.5199-0.1147,1.124-0.1557,1.817-0.1239,1.76,0.08085,2.853,0.7206,3.268,1.92-0.5689-0.5793-1.091-0.9835-1.559-1.214-0.4678-0.2288-1.053-0.3598-1.755-0.392-0.5498-0.02523-1.038,0.0076-1.473,0.0982l-1.15,6.47,0.1532-0.02058c1.838-0.2473,3.246-0.7054,4.232-1.373,0.9862-0.6687,1.584-1.565,1.786-2.699,0.1801-1.013-0.0578-1.873-0.7192-2.571-0.6574-0.6986-1.574-1.074-2.76-1.129-0.9464-0.04344-1.772,0.09862-2.488,0.4247zm5.064,8.525c0.2323,1.912,0.9106,3.794,2.033,5.665,0.7011,1.165,1.657,2.23,2.883,3.186-2.166,0.4628-4.255,1.22-6.268,2.281l-0.1362,0.07666-0.2309-0.2321c1.924-1.064,3.913-1.823,5.948-2.275-2.289-1.875-3.826-4.777-4.625-8.697l-0.0397-0.2364c2.948-0.9365,4.61-2.488,4.997-4.665,0.1593-0.8957-0.0224-1.892-0.5454-2.988,0.7611,0.8834,1.026,1.968,0.7939,3.272-0.3746,2.106-1.983,3.64-4.816,4.603z" fill="#010101"/>	<path d="m150,53.58c-0.1087,0.1518-0.1818,0.2546-0.2182,0.3075l-1.212,1.603c-0.4194,0.5703-0.8418,1.286-1.27,2.156l-0.0392,0.06737-0.1184-0.1022-0.009-0.1804c-0.0756-1.055-0.319-1.794-0.7322-2.218-0.411-0.4244-1.109-0.6597-2.108-0.7056-0.4054-0.0186-0.8141-0.01898-1.226-0.000993l-0.1622-0.0075-2.64,14.85,1.326,1.568-6.18-0.2838,2.174-1.518,2.426-13.64-0.9578-0.05784c-0.9286-0.04262-1.625,0.1124-2.077,0.4649-0.4574,0.3521-0.8059,0.9945-1.044,1.924l-0.3511-0.01612c0.2898-1.069,0.6947-1.798,1.216-2.199,0.5207-0.3998,1.299-0.5764,2.327-0.5292l0.8084,0.05098,0.1483,0.0068,0.1195-0.6721c-0.4501-0.07598-0.8823-0.1234-1.301-0.1426-1.167-0.05357-2.04,0.148-2.64,0.6049-0.5996,0.4569-1.028,1.257-1.285,2.398l-0.1622-0.0075c-0.1611-1.292-0.5089-2.734-1.044-4.336l-0.0566-0.1411zm0.6978,0.9027c-0.765,0.7759-1.656,2.078-2.67,3.912l-0.0785,0.1349-0.2513-0.2745,0.0625-0.1215c1.004-1.865,1.886-3.149,2.641-3.863l0.0823-0.07915zm-3.989,1.971c-0.6128-0.4893-1.381-0.7551-2.311-0.7978-0.2077-0.0095-0.4257-0.0057-0.656,0.01129l-2.389,13.74,1.687,2.676-6.912-0.3174-0.2447-0.3844,6.477,0.2974-1.437-2.18,2.533-14.24,0.7322,0.01977c0.8742,0.04016,1.481,0.1395,1.821,0.298,0.3398,0.1582,0.5715,0.453,0.6945,0.8824z" fill="#010101"/>	<path d="m165.6,54.29-0.2629,0.2509c-1.123,1.101-2.088,2.382-2.885,3.832-0.0528-0.2148-0.0932-0.3734-0.1198-0.4757-0.301-1.116-0.7074-1.853-1.214-2.2-0.5107-0.346-1.497-0.5521-2.97-0.6208-0.6764-0.03105-1.487-0.04524-2.445-0.0431l-1.122,6.309,0.8653,0.03974,0.9917-5.577c0.6967-0.03253,1.352-0.03472,1.975-0.0061,1.147,0.0527,1.966,0.2147,2.466,0.4864,0.497,0.2716,0.8892,0.774,1.187,1.511-0.1103-0.09719-0.1882-0.1694-0.2334-0.218-0.6258-0.6183-1.09-0.9905-1.397-1.116-0.3049-0.1242-0.9349-0.2088-1.889-0.2526-0.2888-0.01325-0.8052-0.01857-1.552-0.01598l-0.2862,0.000668-0.9275,5.216,2.492,0.1144,2.172-2.347-1.051,5.908-1.334-2.367-3.688-0.1694-1.368,7.693,0.8653,0.03974,1.254-7.052,2.937,0.1349,0.2877,0.3722-2.947-0.1353-1.19,6.69c1.839,0.08447,3.168,0.01201,3.987-0.2174,0.8224-0.2292,1.524-0.7228,2.108-1.481l0.9381-1.211c0.0368-0.05363,0.1087-0.1518,0.2159-0.2945,0.056,1.014,0.204,1.83,0.4423,2.457,0.2397,0.6198,0.6898,1.346,1.344,2.195l-15.13-0.6948,2.34-1.5,1.088-6.119c-0.7737,0.05669-1.502,0.2627-2.184,0.6187l-0.2-0.28c0.6213-0.377,1.413-0.6035,2.384-0.6783l0.1147-0.645c-0.15-0.02529-0.2562-0.03937-0.3195-0.04228-0.9197-0.04222-1.821,0.2622-2.695,0.9178,0.6747-1.445,1.755-2.134,3.229-2.066l1.042-5.858-1.764-1.739zm0.478,0.9897-0.1166,0.119c-1.363,1.444-2.32,2.674-2.876,3.67l-0.1782-0.2984c0.8557-1.387,1.868-2.655,3.036-3.784zm-4.787,4.381-1.077,6.058-0.3064-0.1941,1.077-6.058zm3.475,12.19-0.9225,1.201-14.73-0.6766-0.1507-0.3801,14.83,0.6812,0.6134-0.8425c-1.08-1.273-1.767-2.619-2.057-4.018l0.4039,0.1844c0.2867,1.196,0.9194,2.398,1.887,3.626z" fill="#010101"/>	<path d="m168.5,56.14c2.359-1.156,4.764-1.672,7.226-1.559,1.909,0.08767,3.416,0.5806,4.502,1.481,1.086,0.8983,1.52,1.991,1.288,3.295-0.1891,1.063-0.7604,1.977-1.718,2.763-0.9564,0.7813-2.17,1.326-3.638,1.623,0.3134,1.764,0.8535,3.498,1.629,5.192s1.619,3.007,2.541,3.929l-0.2149,0.0593c-1.428,0.4047-2.86,1.001-4.297,1.795l-0.2272,0.1281,0.0105-0.4424c0.0531-3.567-0.2215-6.604-0.8228-9.109l-0.0297-0.1399c-0.6741,0.2643-1.547,0.4588-2.626,0.5842l-0.1102,0.0088-0.9114,5.126,1.925,2.687-6.991-0.3211-0.1508-0.3801,6.438,0.2956-1.582-2.206,0.9828-5.527,0.2911-0.0281c1.048-0.0621,1.945-0.2282,2.691-0.4984-0.0347-0.1118-0.0539-0.1825-0.0581-0.21l-0.0648-0.4034c-0.004-0.0278-0.017-0.0837-0.0383-0.1676-0.588,0.1388-1.673,0.269-3.259,0.3893l-0.1532,0.02058-1.088,6.119,1.252,1.706-5.973-0.2743,2.051-1.554,0.8187-4.604-0.1102,0.0088c-0.5442,0.09434-1.044,0.2059-1.495,0.3318l-0.1151,0.03618-0.0729-0.2794c0.4242-0.1373,0.7534-0.2283,0.9885-0.2721l0.7487-0.1456,0.1127-0.02244,0.1268-0.7132c-0.532-0.02442-1.218,0.06341-2.051,0.2648l-0.1581,0.04805c0.0408-0.1276,0.1834-0.4203,0.4285-0.8793,0.0245-0.03569,0.1242-0.239,0.2986-0.6082,0.0138-0.02697,0.0347-0.06757,0.0625-0.1215,0.4006,0.04611,0.7136,0.07423,0.939,0.08459,0.2433,0.01118,0.4712,0.0078,0.6837-0.01007l1.2-6.751c-0.3688-0.2748-0.7589-0.5091-1.171-0.704zm4.147-0.1685-1.315,7.393c0.2611,0.012,0.5133,0.000521,0.7558-0.03446l1.2-6.751c0.5198-0.1147,1.124-0.1557,1.817-0.1239,1.76,0.08085,2.853,0.7206,3.268,1.92-0.5689-0.5793-1.091-0.9835-1.559-1.214-0.4678-0.2288-1.053-0.3598-1.755-0.392-0.5498-0.02523-1.038,0.0076-1.473,0.0982l-1.15,6.47,0.1532-0.02058c1.838-0.2473,3.246-0.7054,4.232-1.373,0.9862-0.6687,1.584-1.565,1.786-2.699,0.1801-1.013-0.0578-1.873-0.7192-2.571-0.6574-0.6986-1.574-1.074-2.76-1.129-0.9464-0.04344-1.772,0.09862-2.488,0.4247zm5.064,8.525c0.2323,1.912,0.9106,3.794,2.033,5.665,0.7011,1.165,1.657,2.23,2.883,3.186-2.166,0.4628-4.255,1.22-6.268,2.281l-0.1363,0.07666-0.2309-0.2321c1.924-1.064,3.913-1.823,5.948-2.275-2.289-1.875-3.826-4.777-4.625-8.697l-0.0397-0.2364c2.948-0.9365,4.61-2.488,4.997-4.665,0.1592-0.8957-0.0224-1.892-0.5454-2.988,0.7611,0.8834,1.026,1.968,0.7939,3.272-0.3746,2.106-1.983,3.64-4.816,4.603z" fill="#010101"/></svg>