<?xml version="1.0" encoding="UTF-8" standalone="no"?>
<svg id="svg2" xmlns:rdf="http://www.w3.org/1999/02/22-rdf-syntax-ns#" xmlns="http://www.w3.org/2000/svg" enable-background="new -0.947 -0.615 111 214" xml:space="preserve" height="219" width="219" version="1.1" y="0px" x="0px" xmlns:cc="http://creativecommons.org/ns#" xmlns:dc="http://purl.org/dc/elements/1.1/" viewBox="-0.947 -0.615 219 219"><metadata id="metadata314"><rdf:RDF><cc:Work rdf:about=""><dc:format>image/svg+xml</dc:format><dc:type rdf:resource="http://purl.org/dc/dcmitype/StillImage"/><dc:title/></cc:Work></rdf:RDF></metadata><defs id="defs4"><filter id="filter4318"><feGaussianBlur id="feGaussianBlur4320" stdDeviation="1.5906562"/></filter></defs><g id="g4322" transform="translate(0,-3.8804424)"><path id="path4312" opacity="0.5" d="m75.895,214.21c-5.89-3.1494-6.5181-5.345-7.1321-24.932-0.30185-9.629-0.23046-47.215,0.15864-83.524l0.70746-66.017,3.5299-3.2634c15.166-14.021,11.805-13.122,49.071-13.122,20.083,0,31.431,0.35254,33.237,1.0325,1.5081,0.56786,4.3112,2.5571,6.2292,4.4206l3.4873,3.3881-0.11977,38.171c-0.0658,20.994-0.37974,58.542-0.69746,83.439-0.67082,52.567,0.62448,46.773-12.577,56.262l-8.176,5.8771h-32.239c-29.67,0-32.497-0.13807-35.479-1.7326z" fill-rule="evenodd" filter="url(#filter4318)" stroke-miterlimit="4" stroke-width="0" fill="#000"/><path id="path242" d="m56.728,160.66v23.972c0,8.2721,7.6213,14.985,17.012,14.985h65.925c9.3889,0,16.997-6.7133,16.997-14.985v-26.855h-99.932v2.8714z" stroke="#494848" stroke-width="1.86454809" fill="#707070"/><path id="path244" d="m156.66,27.764c0-8.5508-6.7124-15.477-14.997-15.477h-58.157c-8.2851,0-15.011,6.9259-15.011,15.477v128.24h88.171v-128.24z" stroke="#494848" stroke-width="1.86454809" fill="#8e8e8e"/><path id="path246" d="m56.786,193.85c0,8.2702,6.7236,14.984,15.01,14.984h58.163c8.286,0,14.315-6.8699,14.997-14.984v-26.839h-88.174v26.843zm44.097-15.054c5.0921,0,9.2239,4.1458,9.2239,9.2519s-4.1318,9.2388-9.2239,9.2388c-5.107,0-9.2491-4.1337-9.2491-9.2388s4.143-9.2519,9.2491-9.2519z" stroke="#494848" stroke-width="1.86454809" fill="#b7b6b6"/><path id="path248" d="m144.96,36.509c0-8.2861-6.7114-14.997-14.997-14.997h-58.165c-8.2861,0-15.01,6.7105-15.01,14.997v124.26h88.169v-124.26zm-12.111,10.881c0,1.5783-1.3108,2.8611-2.8863,2.8611h-58.165c-1.5867,0-2.8705-1.2828-2.8705-2.8611v-9.6229c0-1.5783,1.2837-2.8742,2.8705-2.8742h58.163c1.5746,0,2.8863,1.2959,2.8863,2.8742v9.6229z" stroke="#494848" stroke-width="1.86454809" fill="#b7b6b6"/><path id="path250" d="m60.188,26.942c0.0037-0.0028,11.885-10.024,11.885-10.024s5.5881-5.2338,14.458-4.8777c1.6138,0,3.2266,0,4.8394-0.000932,3.937-0.0047,7.8731,0,11.81-0.000932,4.9606-0.000933,9.9213-0.0047,14.883,0,4.68,0.0047,9.3582-0.01678,14.039,0.0028,3.2555,0.01305,6.5157-0.12959,9.7665,0.04661,2.4053,0.13052,4.1691,1.0115,6.1045,1.9196,2.0081,0.94253,5.1723,4.2428,5.1723,4.2428l-11.176,9.3134s-4.0806-5.9423-10.554-5.7652c-1.7238-0.01026-3.4466-0.02517-5.1695-0.03077-4.2167-0.01119-8.4324-0.04009-12.648-0.07831-5.2944-0.04848-10.589-0.08297-15.883-0.08857-4.8963-0.0056-9.7963-0.01026-14.691-0.10255-3.3105-0.06246-6.6024-0.14264-10.084,0.07085-2.0659,0.12679-4.2698-0.02983-6.1847,0.76353-2.2962,0.94626-4.6455,3.0029-6.566,4.6092z" stroke="#494848" stroke-width="1.86454809" fill="#b2b2b2"/><path id="path252" d="m144.87,165.45c0.0102,2.671-0.0112,7.172,0,9.8458,0.0159,3.3814-0.14357,6.4662-0.13332,9.8457,0.005,1.4292,0.0662,3.2956,0.0662,4.7248,0,11.375-6.387,16.344-6.387,16.344l10.468-7.2764c8.8715-6.7422,8.1593-13.304,8.1593-13.304l-0.27-160.73s-0.53233-4.0796-3.194-6.7403l-11.442,9.3125s1.0563,1.7322,1.4627,2.6616c0.6759,1.5373,0.90338,2.547,1.2875,4.4348,0.54259,2.6514,0.32444,5.5647,0.3552,8.2488,0.0503,4.4675-0.24705,8.9936-0.24519,13.46,0.005,6.1073,0.0504,12.187,0.0662,18.294,0.0205,7.02-0.0969,14.068-0.0662,21.088,0.0354,7.3286,0.17713,14.557,0.20044,21.885,0.0242,7.1552-0.0858,14.268-0.0671,21.423,0.0196,6.6005-0.0214,13.483,0,20.09,0.003,0.35147,0.0671,0.51369,0.0671,0.86515" stroke="#494848" stroke-width="1.86454809" fill="#6b6a6a"/><line id="line254" stroke-width="1.8645" x1="145.2" y1="160.39" stroke="#494848" x2="157.27" y2="146.86" fill="#353434"/><line id="line256" stroke-width="1.8645" x1="145.2" y1="167.17" stroke="#494848" x2="157.27" y2="153.91" fill="#353434"/><line id="line258" stroke-width="1.8645" x1="144.85" y1="158.84" stroke="#494848" x2="144.94" y2="167.44" fill="#8e8e8e"/><path id="path260" d="m70.478,159.72s73.502,0.0671,73.5,0.0671l-0.2368-90.895c-7.83,83.735-73.262,90.825-73.262,90.825z" fill="#999"/><path id="path262" d="m80.7,207.8h48.125c10.592,0.64607,15.095-7.3584,15.074-14.964l-0.0764-21.198c-5.3503,37.254-63.122,36.162-63.122,36.162z" fill="#999"/><circle id="circle264" d="m 32.378,63.509998 c 0,4.775054 -3.870946,8.646 -8.646,8.646 -4.775054,0 -8.646,-3.870946 -8.646,-8.646 0,-4.775054 3.870946,-8.646 8.646,-8.646 4.775054,0 8.646,3.870946 8.646,8.646 z" cx="23.732" cy="63.51" transform="matrix(0.93227407,0,0,0.93227407,55.796178,11.065611)" r="8.646" fill="#3f3f3f"/><circle id="circle270" d="m 72.331998,65.958 c 0,2.306341 -1.869659,4.176 -4.176,4.176 -2.306341,0 -4.176,-1.869659 -4.176,-4.176 0,-2.306341 1.869659,-4.176 4.176,-4.176 2.306341,0 4.176,1.869659 4.176,4.176 z" cx="68.156" cy="65.958" transform="matrix(0.93227407,0,0,0.93227407,55.796178,11.065611)" r="4.176" fill="#3f3f3f"/><circle id="circle276" d="m 60.540998,66.036003 c 0,2.306894 -1.870106,4.177 -4.177,4.177 -2.306893,0 -4.177,-1.870106 -4.177,-4.177 0,-2.306893 1.870107,-4.177 4.177,-4.177 2.306894,0 4.177,1.870107 4.177,4.177 z" cx="56.364" cy="66.036" transform="matrix(0.93227407,0,0,0.93227407,55.796178,11.065611)" r="4.177" fill="#3f3f3f"/><circle id="circle282" d="m 48.665998,66.036003 c 0,2.306894 -1.870106,4.177 -4.177,4.177 -2.306893,0 -4.177,-1.870106 -4.177,-4.177 0,-2.306893 1.870107,-4.177 4.177,-4.177 2.306894,0 4.177,1.870107 4.177,4.177 z" cx="44.489" cy="66.036" transform="matrix(0.93227407,0,0,0.93227407,55.796178,11.065611)" r="4.177" fill="#3f3f3f"/><circle id="circle288" d="m 31.084,64.347 c 0,4.775054 -3.870946,8.646 -8.646,8.646 -4.775054,0 -8.646,-3.870946 -8.646,-8.646 0,-4.775054 3.870946,-8.646 8.646,-8.646 4.775054,0 8.646,3.870946 8.646,8.646 z" cx="22.438" cy="64.347" transform="matrix(0.93227407,0,0,0.93227407,55.796178,11.065611)" r="8.646" fill="#e50a39"/><circle id="circle294" d="m 71.038,66.793999 c 0,2.306341 -1.869659,4.176 -4.176,4.176 -2.306342,0 -4.176001,-1.869659 -4.176001,-4.176 0,-2.306341 1.869659,-4.176 4.176001,-4.176 2.306341,0 4.176,1.869659 4.176,4.176 z" cx="66.862" cy="66.794" transform="matrix(0.93227407,0,0,0.93227407,55.796178,11.065611)" r="4.176" fill="#e50a39"/><circle id="circle300" d="m 59.247,66.873001 c 0,2.306894 -1.870107,4.177 -4.177,4.177 -2.306894,0 -4.177,-1.870106 -4.177,-4.177 0,-2.306893 1.870106,-4.177 4.177,-4.177 2.306893,0 4.177,1.870107 4.177,4.177 z" cx="55.07" cy="66.873" transform="matrix(0.93227407,0,0,0.93227407,55.796178,11.065611)" r="4.177" fill="#ffb509"/><circle id="circle306" d="m 47.372,66.873001 c 0,2.306894 -1.870107,4.177 -4.177,4.177 -2.306894,0 -4.177,-1.870106 -4.177,-4.177 0,-2.306893 1.870106,-4.177 4.177,-4.177 2.306893,0 4.177,1.870107 4.177,4.177 z" cx="43.195" cy="66.873" transform="matrix(0.93227407,0,0,0.93227407,55.796178,11.065611)" r="4.177" fill="#96c93c"/></g></svg>