<?xml version="1.0" encoding="UTF-8" standalone="no"?>
<svg id="svg2" xmlns:rdf="http://www.w3.org/1999/02/22-rdf-syntax-ns#" xmlns="http://www.w3.org/2000/svg" enable-background="new -0.485 0 142 213" xml:space="preserve" height="219" width="219" version="1.1" y="0px" x="0px" xmlns:cc="http://creativecommons.org/ns#" xmlns:xlink="http://www.w3.org/1999/xlink" viewBox="-0.485 0 219 219" xmlns:dc="http://purl.org/dc/elements/1.1/"><metadata id="metadata254"><rdf:RDF><cc:Work rdf:about=""><dc:format>image/svg+xml</dc:format><dc:type rdf:resource="http://purl.org/dc/dcmitype/StillImage"/><dc:title/></cc:Work></rdf:RDF></metadata>
<defs id="defs4"><linearGradient id="linearGradient4084"><stop id="stop4086" stop-color="#545454" offset="0"/><stop id="stop4088" stop-color="#545454" stop-opacity="0" offset="1"/></linearGradient>
<filter id="filter4080" height="1.1887939" width="1.4410491" y="-0.094396951" x="-0.22052455"><feGaussianBlur id="feGaussianBlur4082" stdDeviation="5.8788878"/></filter><filter id="filter4228"><feGaussianBlur id="feGaussianBlur4230" stdDeviation="1.7548438"/></filter><linearGradient id="linearGradient4241" y2="175.53" xlink:href="#linearGradient4084" gradientUnits="userSpaceOnUse" x2="77.628" y1="176.08" x1="120.68"/><linearGradient id="linearGradient4243" y2="186.89" xlink:href="#linearGradient4084" gradientUnits="userSpaceOnUse" x2="78.458" y1="187.17" x1="106.02"/><linearGradient id="linearGradient4245" y2="198.69" gradientUnits="userSpaceOnUse" x2="81.776" y1="198.69" x1="90.26"><stop id="stop4102" stop-color="#545454" offset="0"/><stop id="stop4104" stop-color="#545454" stop-opacity="0" offset="1"/></linearGradient><radialGradient id="radialGradient4247" gradientUnits="userSpaceOnUse" cy="84.274" cx="70.498" gradientTransform="matrix(0.91141811,0,0,0.91141811,42.366571,14.237944)" r="76.696"><stop id="stop246" stop-color="#FF0" offset="0"/><stop id="stop248" stop-color="#FF0" offset="1"/></radialGradient><radialGradient id="radialGradient4249" gradientUnits="userSpaceOnUse" cy="74.304" cx="93.662" gradientTransform="matrix(1.5263789,0.01999581,-0.01910636,1.4584821,-47.881818,-35.939698)" r="26.006"><stop id="stop4015" stop-color="#FFF" offset="0"/><stop id="stop4017" stop-color="#FFF" stop-opacity="0" offset="1"/></radialGradient><linearGradient id="linearGradient4251" y2="15.603" gradientUnits="userSpaceOnUse" x2="119.6" y1="110.63" x1="156.12"><stop id="stop4058" stop-color="#ff9d00" offset="0"/><stop id="stop4060" stop-color="#f4f56e" offset="1"/></linearGradient></defs>
<g id="g4232" transform="matrix(1.0362019,0,0,1.0362019,-3.7459851,-7.8237986)"><path id="path239-6" opacity="0.5" d="m112.97,19.529c-34.925,0-63.344,28.419-63.344,63.344,0,15.88,9.8979,32.488,12.938,37.219-0.0811-0.10845,4.5,7.125,4.5,7.125,7.9749,12.488,15.477,24.297,17.25,38.719,0.37641,3.0824,2.9995,5.4062,6.0938,5.4062h46.063c3.0806,0,5.7155-2.3063,6.0938-5.375,1.9194-15.544,9.7631-28.158,18.062-41.469l2.8125-4.5312c2.9721-4.6081,12.875-21.199,12.875-37.094,0.00091-34.926-28.419-63.344-63.344-63.344zm-24.09,157.5c-1.7417,0-3.1563,1.4264-3.1563,3.1562,0,1.7444,1.4145,3.1562,3.1563,3.1562h48.156c1.7581,0,3.1875-1.4118,3.1875-3.1562-0.00091-1.7299-1.4303-3.1562-3.1875-3.1562h-48.156zm0,11.375c-1.7417,0-3.1563,1.3981-3.1563,3.1562,0,1.728,1.4145,3.1562,3.1563,3.1562h48.156c1.7581,0,3.1875-1.4282,3.1875-3.1562-0.00091-1.7581-1.4303-3.1562-3.1875-3.1562h-48.156zm0,11.375c-1.7417,0-3.1563,1.4109-3.1563,3.1562,0,1.7426,1.4145,3.1562,3.1563,3.1562h9.3438c0.0684,3.2301,2.6938,5.8125,5.9375,5.8125h17.625c3.2437,0,5.8525-2.5824,5.9062-5.8125h9.3438c1.7581,0,3.1875-1.4136,3.1875-3.1562-0.00091-1.7463-1.4303-3.1562-3.1875-3.1562h-48.156z" filter="url(#filter4228)" stroke-miterlimit="4" stroke-width="0" fill="#000"/><path id="path239" d="M130.7,172.65h-48.174c-1.7417,0-3.148,1.4063-3.148,3.1362,0,1.7444,1.4063,3.1763,3.148,3.1763h48.172c1.7581,0,3.1626-1.4318,3.1626-3.1763-0.00091-1.7299-1.4054-3.1362-3.1626-3.1362z" stroke="#333" stroke-width="0.91141808" fill="url(#linearGradient4241)"/><path id="path241" d="M130.7,184.02h-48.174c-1.7417,0-3.148,1.4045-3.148,3.1626,0,1.728,1.4063,3.1471,3.148,3.1471h48.172c1.7581,0,3.1626-1.4191,3.1626-3.1471-0.00091-1.7581-1.4054-3.1626-3.1626-3.1626z" stroke="#333" stroke-width="0.91141808" fill="url(#linearGradient4243)"/><path id="path243" d="M130.7,195.38h-48.174c-1.7417,0-3.148,1.4182-3.148,3.1635,0,1.7426,1.4063,3.148,3.148,3.148h9.353c0.06836,3.2301,2.6777,5.8267,5.9215,5.8267h17.625c3.2437,0,5.865-2.5966,5.9188-5.8267h9.3539c1.7581,0,3.1626-1.4054,3.1626-3.148-0.00091-1.7463-1.4054-3.1635-3.1626-3.1635z" stroke="#333" stroke-width="0.91141808" fill="url(#linearGradient4245)"/><path id="path250" d="m106.61,15.149c-34.925,0-63.334,28.423-63.334,63.347,0,15.88,9.9089,32.466,12.949,37.196-0.08112-0.10845,4.486,7.1364,4.486,7.1364,7.9749,12.488,15.489,24.3,17.261,38.722,0.37642,3.0824,2.9858,5.3938,6.0801,5.3938h46.076c3.0806,0,5.7036-2.3114,6.0819-5.3801,1.9194-15.544,9.7586-28.14,18.058-41.45l2.8108-4.5297c2.9721-4.6081,12.879-21.191,12.879-37.087,0.00091-34.926-28.423-63.348-63.347-63.348z" stroke="#dddd1d" stroke-width="1.82283616" fill="url(#radialGradient4247)"/><path id="path4011" d="m123.97,74.304c0,14.255-13.569,25.811-30.308,25.811s-30.308-11.556-30.308-25.811,13.569-25.811,30.308-25.811,30.308,11.556,30.308,25.811z" fill-rule="evenodd" transform="translate(-11.043929,-20.726786)" stroke-miterlimit="4" stroke-width="0" fill="url(#radialGradient4249)"/><path id="path4054" opacity="0.57758622" d="m116.7,164.72c0.52131-0.7051,1.0815-2.6191,1.574-5.3772,1.9317-10.82,5.9586-19.779,17.051-37.934,7.2926-11.936,8.6959-14.529,11.274-20.834,3.3555-8.2043,4.9021-15.368,4.902-22.705-0.00033-19.659-9.7035-38.659-26.006-50.924-5.343-4.0197-10.488-6.7377-17.403-9.1935-4.0381-1.4342-3.9572-1.4964,1.7598-1.3546,23.946,0.59418,46.425,16.773,55.37,39.852,3.8025,9.8108,5.0812,22.471,3.1469,31.155-2.3913,10.736-5.3931,17.342-14.941,32.883-3.2539,5.2965-7.0528,11.704-8.4419,14.238-4.2685,7.7877-7.6417,16.918-8.7424,23.663-0.66712,4.0881-1.0809,5.1222-2.574,6.4331l-1.3585,1.1928h-8.2106-8.2106l0.8094-1.0948z" fill-rule="evenodd" transform="translate(-0.485,0)" filter="url(#filter4080)" stroke-miterlimit="4" stroke-width="0" fill="url(#linearGradient4251)"/></g></svg>