<?xml version="1.0" encoding="UTF-8" standalone="no"?>
<svg id="svg2" xmlns:rdf="http://www.w3.org/1999/02/22-rdf-syntax-ns#" xmlns="http://www.w3.org/2000/svg" enable-background="new 23.549 45.375 219 219" xml:space="preserve" height="219px" width="219px" version="1.1" y="0px" x="0px" xmlns:cc="http://creativecommons.org/ns#" xmlns:dc="http://purl.org/dc/elements/1.1/" viewBox="23.549 45.375 219 219"><metadata id="metadata378"><rdf:RDF><cc:Work rdf:about=""><dc:format>image/svg+xml</dc:format><dc:type rdf:resource="http://purl.org/dc/dcmitype/StillImage"/><dc:title/></cc:Work></rdf:RDF></metadata>
<defs id="defs4">
<filter id="filter4001"><feGaussianBlur id="feGaussianBlur4003" stdDeviation="1.8232121"/></filter></defs>
<path id="path3188" opacity="0.5" d="m235.36,77.344c-6.654,2.071-10.598,5.5405-15.219,10.438-6.038,6.403-5.4372,8.7322-4.6562,13.781,0.785,5.049,4.7812,7.75,4.7812,7.75s4.2052-3.4822,3.2812-6.4062c-2.629-4.853,1.29-8.6082,3.75-11.281,1.059-1.151,4.2265-4.1065,8.0625-6.1875v-6.4688-1.625zm-140.91,6.9375c-8.6567-0.1196,6.0503,10.885,3.25,15.844-3.088,5.472-26.12,14.65-36.531,25.312-16.114,15.683-19.855,29.958-22.125,43.438-1.7576,10.435,2.3599,27.033,9.5312,39.031,3.045,6.4873,7.9493,11.892,13.062,16.844,9.362,9.066,17.521,14.226,30.375,17.438,3.01,0.751,9.9012,2.0492,12.781,2.4062,5.254,0.65,10.091,0.8315,15.375,0.4375,14.146-1.053,24.365-6.177,35.375-15.375,6.188-5.167,9.969-11.394,14.125-18.188,7.826-12.794,8.3475-30.881,12.562-40.75,0.28685-0.44117,0.58474-0.83265,0.875-1.25l5.5-2.9375s-0.64772-1.0518-1.375-2.2188c7.0554-7.6337,14.017-10.157,15.969-14.938,0.50883-1.2467-0.003-3.7985-1.1875-7.0625-0.16882-3.1419-2.4808-8.9155-5.9062-15.219,1.3892,0.28737,2.897,0.42457,4.5938,0.34375,12.242-0.582,17.922-4.358,25.062-10.625,7.141-6.266,6.7475-8.7982,6.4375-14.281-0.309-5.483-4.3125-8.7812-4.3125-8.7812s-5.1255,6.1812-4.1875,6.5312c2.307,5.453-2.3028,9.0968-5.2188,11.719-2.913,2.622-18.921,14.564-25.625,1.5938-1.749-5.974,2.9118-9.1695,9.4688-12.812,6.556-3.644,11.22-3.7712,11.531-3.5312,0.057-0.184,0.61225-4.007,4.0312-8.625,0.504-0.699-19.363-0.52275-29.125,10.406-3.2376,3.6242-4.7737,6.8607-5.4062,9.5938-4.0742-4.5482-8.2579-7.9529-11.938-8.8438-15.143-0.3117-17.929,3.6156-27.656,12.094-13.182-11.782-28.748-22.27-45.812-27.156-1.4404-0.26906-2.6045-0.42513-3.5-0.4375zm140.91,20.158c-1.853,0.528-2.3355,0.40625-2.5625,0.40625,0.012,0.239,0.8425,3.668-2.8125,8.375-0.143,0.246,2.0852,0.16675,5.4062-0.53125l-0.0312-7.4062v-0.84375zm-119.66,23.531c1.204,0.0155,2.3964,0.0636,3.5625,0.125,4.8867,0.25708,10.73,3.1051,16.781,7.25,0.3401,2.2548,1.0625,3.6562,1.0625,3.6562s12.026,8.5793,17.531,20.75c1.1754,4.687,1.6564,10.03,1.0312,16.062-0.118,1.141-0.328,2.2722-0.5,3.4062-1.268,8.309-2.8982,16.731-7.1562,24.094-3.186,5.508-7.6935,10.395-13.188,13.656-5.148,3.055-10.979,4.296-16.875,4.875-5.537,0.543-11.33,0.86925-16.781-0.46875-3.828-0.94-7.4198-2.703-10.969-4.375-3.4608-1.6309-6.9348-3.4363-9.5938-6.25,0.23309-3.808-1.0826-6.2687-3-8.2812-1.1934-2.525-3.3552-4.2704-5.5625-6.0625-0.25885-0.61347-0.50413-1.2367-0.75-1.8438-0.42-1.035-2.1488-8.1772-3.9688-8.0312-0.36461,0.0292-1.0893,0.21309-2,0.4375-1.6196-4.4231-2.2038-9.3348-0.6875-14.312,11.175-39.066,33.003-44.92,51.062-44.688z" transform="matrix(1.0926085,0,0,1.0926085,-10.254699,-12.844323)" filter="url(#filter4001)"/><path id="path330" fill="#828282" d="m223.46,79.62c-3.7356,5.0457-4.3475,9.2336-4.4098,9.4347-0.3398-0.26223-5.4543-0.13548-12.617,3.846-7.1642,3.9804-12.261,7.4833-10.35,14.011,7.3248,14.171,24.838,1.1134,28.021-1.7515,3.186-2.8648,8.2252-6.8397,5.7045-12.798-1.0249-0.38241,4.5748-7.1566,4.5748-7.1566s4.3519,3.6154,4.6895,9.6062c0.33871,5.9908,0.79651,8.7562-7.0058,15.602-7.8023,6.8474-14.011,10.987-27.386,11.623-13.374,0.637-17.673-10.827-17.673-10.827s-6.0487-8.2798,4.6184-20.221c10.666-11.941,32.385-12.133,31.834-11.37z"/>
<path id="path332" fill="#969696" d="m204,117.07c18.934-0.67961,28.06-15.475,28.06-15.475l1.793,1.7482s-3.5412,8.9124-18.766,14.837c-9.9351,3.8667-11.088-1.1101-11.088-1.1101z"/>
<path id="path334" fill="#646464" d="m217.59,87.981c-16.498,0.98226-24.018,14.401-24.018,14.401l-1.6149-1.5286s2.8233-8.0427,15.926-13.646c8.5518-3.657,9.7067,0.77357,9.7067,0.77357z"/>
<path id="path336" fill="#4c4c4c" d="M94.691,78.626c55.529,15.899,96.769,86.124,96.769,86.124l-14.385,7.6242s-39.524-48.48-61.394-49.631c-20.385-1.0729-46.666,3.1423-59.69,48.671-2.725,8.9452,0.79651,17.78,5.262,24.172,4.4677,6.3885,13.286,7.9859,12.167,18.243-1.1156,10.251-7.4538,11.853-7.4538,11.853s-5.2882,9.2948-17.591-2.5327c-12.302-11.826-20.517-37.832-18.036-52.557,2.4813-14.727,6.5775-30.338,24.185-47.474,11.368-11.64,36.515-21.67,39.89-27.644,3.373-5.978-16.518-19.976,0.268-16.84z"/>
<path id="path338" fill="#474747" d="m60.435,192.52c2.8637-0.22727,4.5999,20.191,18.749,31.546,23.92,12.128,75.634,15.425,76.168-44.191,9.6619-23.916-20.17-45.211-20.17-45.211s-5.8039-11.33,6.6802-21.897,14.682-15.393,32.306-15.03c14.363,3.4789,35.854,41.796,33.215,48.261-2.6398,6.466-13.66,9.1124-22.89,23.309-4.6053,10.783-5.1757,30.558-13.726,44.537-4.5409,7.4232-8.6699,14.23-15.431,19.876-12.03,10.05-23.212,15.641-38.669,16.791-5.7733,0.43049-11.032,0.21743-16.773-0.49277-3.1467-0.39006-10.688-1.8094-13.977-2.6299-14.044-3.5095-22.96-9.1189-33.189-19.024-6.076-5.8837-11.912-12.346-15.123-20.288-0.63371-1.569-1.6007-3.6744-1.4138-5.4379,0.37476-3.5127,21.376-9.8881,24.242-10.118z"/>
<path id="path340" fill="#828282" d="m92.389,75.337c55.531,15.9,96.769,86.126,96.769,86.126s-14.363,7.6122-14.385,7.6231c-0.46764,0.24802-15.41-17.987-16.91-19.599-6.4606-6.9402-13.353-13.569-21.08-19.097-27.075-19.373-62.627-10.871-76.899,20.076-6.4267,13.931-10.358,28.355-0.93418,41.833,4.4677,6.3874,13.287,7.9881,12.166,18.242-1.1156,10.254-7.4527,11.855-7.4527,11.855s-5.2882,9.2926-17.592-2.5327c-12.308-11.81-20.521-37.82-18.041-52.54,2.48-14.73,6.577-30.34,24.184-47.48,11.375-11.65,36.521-21.673,39.895-27.652,3.376-5.978-16.514-19.977,0.273-16.841z"/>
<path id="path342" fill="#a0a0a0" d="m58.954,186.6c1.9885-0.15952,3.8514,7.6373,4.3103,8.7682,2.4813,6.1262,5.5166,12.663,10.045,17.555,2.9216,3.1566,6.784,5.1506,10.623,6.9599,3.8777,1.8268,7.7881,3.7673,11.971,4.7944,5.9558,1.4619,12.283,1.0806,18.333,0.48731,6.442-0.63262,12.82-1.9656,18.444-5.3035,6.0028-3.563,10.947-8.9179,14.428-14.936,4.6523-8.0449,6.4245-17.25,7.81-26.329,0.18793-1.239,0.42612-2.4835,0.55505-3.7302,3.2888-31.736-21.774-46.124-21.774-46.124s-5.8039-11.33,6.6813-21.897c12.482-10.567,14.681-15.393,32.304-15.03,14.365,3.4778,35.855,41.796,33.216,48.259-2.6386,6.4661-13.66,9.1124-22.89,23.309-10.19,15.671-7.9269,35.92-17.669,51.88-9.3385,15.303-25.974,26.629-43.542,29.96-13.785,2.6146-28.223,0.61404-41.64-3.1041-34.051-11.05-45.823-41.893-45.451-45.407,0.37695-3.5084,21.378-9.8837,24.244-10.113z"/>
<circle id="circle344" cy="124.96" transform="matrix(1.0926085,0,0,1.0926085,-10.254699,-12.844323)" cx="169.1" r="8.771" fill="#0c0c0c"/>
<polygon id="polygon346" points="158.28,143.27,171.06,129.3,162.54,123.85,149.94,130.15" fill="#0c0c0c" transform="matrix(1.0926085,0,0,1.0926085,-10.254699,-12.844323)"/>
<path id="path348" fill="#828282" d="m242.53,76.136c-4.1912,2.2737-7.6341,5.5046-8.7911,6.7622-2.6878,2.9205-6.9927,7.0255-4.1202,12.328,1.0096,3.1948-3.5838,7.0113-3.5838,7.0113s-4.353-2.9795-5.2106-8.4961c-0.85334-5.5166-1.5264-8.0394,5.0708-15.035,5.049-5.3505,9.379-9.1572,16.649-11.42"/>
<path id="path350" fill="#828282" d="m242.58,105.91c-3.6286,0.76263-6.0891,0.84567-5.9329,0.57689,3.9935-5.1429,3.0888-8.8764,3.0757-9.1375,0.24802,0,0.79542,0.10598,2.82-0.47091"/>
<path id="path352" fill="#969696" d="m242.52,69.083c-3.1729,1.2139-6.9807,3.2549-11.151,6.6638-7.6483,6.2519-4.1322,9.4685-4.1322,9.4685,4.3387-7.1074,10.253-10.975,15.274-13.075"/>
<path id="path354" fill="#646464" d="m242.52,97.825c-0.96805,0.19995-1.5384,0.25567-1.5384,0.25567l0.71347,1.9437s0.28408,0.0219,0.81072-0.004"/>
<circle id="circle356" cy="127.38" transform="matrix(1.0926085,0,0,1.0926085,-10.254699,-12.844323)" cx="168.44" r="6.58" fill="#5b5b5b"/>
<polygon id="polygon358" points="160.33,141.12,169.91,130.64,163.52,126.55,154.07,131.28" fill="#5b5b5b" transform="matrix(1.0926085,0,0,1.0926085,-10.254699,-12.844323)"/>
<circle id="circle360" cy="206.01" transform="matrix(1.0926085,0,0,1.0926085,-10.254699,-12.844323)" cx="62.54" r="7.856" fill="#505151"/>
<circle id="circle362" cy="204.22" transform="matrix(1.0926085,0,0,1.0926085,-10.254699,-12.844323)" cx="61.169" r="8.175" fill="#0c0c0c"/>
<path id="path364" fill="#b7b7b7" d="m49.373,212.97s-1.9328-4.8501,2.548-8.7168l0.82273,0.86316s-4.0776,3.044-2.1481,7.6078l-1.2226,0.24583z"/>
</svg>