<?xml version="1.0" encoding="UTF-8" standalone="no"?>
<!-- Created with Inkscape (http://www.inkscape.org/) -->
<svg xmlns:dc="http://purl.org/dc/elements/1.1/" xmlns:cc="http://creativecommons.org/ns#" xmlns:rdf="http://www.w3.org/1999/02/22-rdf-syntax-ns#" xmlns:svg="http://www.w3.org/2000/svg" xmlns="http://www.w3.org/2000/svg" version="1.1" width="219" height="219" viewBox="-0.744 -0.277 219 219" id="svg2" xml:space="preserve">
	<metadata id="metadata271">
		<rdf:RDF>
			<cc:Work rdf:about="">
				<dc:format>image/svg+xml</dc:format>
				<dc:type rdf:resource="http://purl.org/dc/dcmitype/StillImage"/>
				<dc:title/>
			</cc:Work>
		</rdf:RDF>
	</metadata>
	<defs id="defs4">
		<filter color-interpolation-filters="sRGB" id="filter4085">
			<feGaussianBlur id="feGaussianBlur4087" stdDeviation="1.9392214"/>
		</filter>
	</defs>
	<path d="m -293.15021,153.45823 c 0.004,-0.87981 0.0863,-1.19264 0.18199,-0.69518 0.0956,0.49745 0.092,1.21729 -0.008,1.59964 -0.1001,0.38235 -0.17836,-0.0247 -0.17392,-0.90446 z" transform="translate(-0.744,-0.277)" id="path4077" style="opacity:0.5;fill:#000000;fill-opacity:1;fill-rule:evenodd;stroke:none"/>
	<path d="m 36.531748,186.75239 c -2.62927,-0.59223 -24.18656,-6.8214 -24.36749,-7.0412 -0.21113,-0.25649 0.88291,-109.555439 1.09877,-109.771299 0.1185,-0.1185 4.32267,0.17994 9.34262,0.66318 l 9.12717,0.87862 5.65442,-1.04112 c 3.10993,-0.57262 6.03044,-1.04112 6.49001,-1.04112 0.45957,0 4.98133,1.08333 10.04835,2.40742 l 9.21276,2.40742 7.89197,-3.94036 c 4.34059,-2.1672 8.43185,-4.15132 9.09171,-4.40916 0.65985,-0.25783 2.09953,-1.19419 3.19928,-2.08079 2.85166,-2.29896 8.15586,-4.85713 10.54741,-5.08693 1.54356,-0.14832 3.03098,0.13883 6.715212,1.29637 2.60287,0.81779 4.93833,1.65524 5.18993,1.861 0.29222,0.23899 1.04423,0.13933 2.082,-0.2759 2.07325,-0.82955 4.64176,-0.6581 11.6574,0.77813 8.71884,1.78492 13.83271,3.03782 19.87828,4.87018 l 5.68143,1.72201 4.01641,-1.65872 c 2.20902,-0.91229 4.0164,-1.78308 4.0164,-1.93508 0,-0.39087 -2.31934,-1.15188 -3.5589,-1.16774 l -1.04008,-0.0133 0.90634,-0.75594 c 0.49849,-0.41577 1.75821,-1.06796 2.79938,-1.44932 3.31677,-1.21487 11.37765,-4.4685 14.79261,-5.97076 l 3.3017,-1.45244 3.81565,0.48027 c 2.0986,0.26416 4.66194,0.3654 5.69629,0.22498 1.12375,-0.15255 4.69725,-1.60624 8.87908,-3.61198 3.84914,-1.84618 8.70806,-3.99 10.79758,-4.76405 7.78971,-2.88564 17.64499,-5.553471 18.25643,-4.942031 0.24288,0.24288 0.9723,34.620781 1.39144,65.57917 l 0.12887,9.51882 -2.74689,2.20273 c -3.18426,2.55346 -7.96152,5.05538 -10.83122,5.67249 -1.09976,0.23649 -3.70918,0.53904 -5.79872,0.67234 -4.75199,0.30315 -5.98369,0.63225 -11.19749,2.99186 -4.88237,2.2096 -6.12962,2.54675 -12.5972,3.4052 -2.63941,0.35033 -5.33881,0.74337 -5.99866,0.87342 l -1.19973,0.23646 0.79982,-0.89177 c 0.65572,-0.73111 0.79723,-1.44262 0.78544,-3.9491 -0.0145,-3.07674 -1.34613,-15.3365 -2.35197,-21.65318 -0.79876,-5.01622 -0.7381,-2.98537 0.13932,4.66429 1.38134,12.04312 1.41204,13.00135 0.47526,14.83759 -1.68093,3.2949 -3.80593,3.97349 -6.48006,2.06934 -1.38004,-0.98268 -1.41002,-0.8103 -0.37986,2.18393 1.701,4.94405 1.70662,10.63465 0.0123,12.4382 -0.45699,0.48644 -1.85837,1.40497 -3.11418,2.04116 -2.05085,1.03896 -2.6777,1.15671 -6.15767,1.15671 l -3.87438,0 -0.25932,2.99933 c -0.3509,4.05842 -0.82512,5.74145 -2.01681,7.15769 -1.26436,1.50261 -4.56684,2.7597 -8.11671,3.08962 l -2.72497,0.25326 -0.41101,3.58097 c -0.47497,4.13832 -1.03875,5.1213 -3.95645,6.89833 -1.6532,1.00687 -2.36671,1.1919 -4.55933,1.18232 -1.42968,-0.006 -3.00433,-0.15736 -3.49922,-0.33581 -0.86244,-0.311 -0.8998,-0.23436 -0.8998,1.84524 0,1.19335 -0.22495,2.47029 -0.49989,2.83765 -0.76595,1.02342 -6.59208,3.88396 -7.91055,3.88396 -0.8016,0 -1.37225,0.3102 -1.81571,0.98702 -1.75266,2.67489 -7.03882,4.61173 -12.586642,4.61173 l -2.85929,0 -2.66051,-2.52026 c -1.67935,-1.59082 -3.76664,-3.06043 -5.65985,-3.98496 -1.79423,-0.87618 -3.88926,-2.32816 -5.21425,-3.61377 -1.2182,-1.182 -2.74786,-2.2791 -3.39924,-2.43802 -0.65138,-0.15891 -2.35407,-0.9528 -3.78375,-1.7642 -1.42968,-0.8114 -3.67496,-2.01515 -4.98952,-2.675 -3.13835,-1.57533 -9.80718,-8.13127 -9.80718,-9.64116 0,-0.56231 0.55355,-2.28359 1.23011,-3.82508 0.67656,-1.54148 1.12646,-2.90634 0.99978,-3.03303 -0.35409,-0.35408 -0.39475,-0.27524 -3.04369,5.90163 -8.07255,18.82378 -13.15773,28.2484 -15.90382,29.47539 -1.39766,0.6245 -4.84778,0.57945 -7.8769,-0.10285 l 0,0 z" id="path4079" style="fill:#000000;fill-opacity:0.50196078;fill-rule:evenodd;stroke:none;filter:url(#filter4085)"/>
	<path d="m 58.68552,65.685527 c 0,0 15.359679,-7.848455 16.372383,-7.848455 1.012704,0 0.590406,-0.506352 0.590406,-0.506352 0,0 10.127039,-8.861159 16.456438,-6.076223 l 8.101633,2.531759 c 0,0 9.36751,25.570773 10.63339,26.3303 0,0 6.41446,5.06352 20.46472,15.85793 l 24.14589,23.784364 c 0,0 6.02458,14.28419 -0.81117,16.81595 0,0 -4.76072,3.74801 -11.4952,1.74792 0,0 0.20254,9.42828 -2.50645,10.9291 0,0 -3.75308,3.00065 -10.69921,2.50442 0,0 0.46685,8.68495 -2.73329,9.79082 0,0 -5.47873,4.65034 -10.28907,1.35905 0,0 0.58939,5.19821 -1.35095,5.7633 0,0 -5.7319,3.82498 -8.01352,3.33483 l -47.093768,-22.26328 -3.291288,-6.83575 c 0,-0.001 -11.139742,-66.586293 1.519056,-77.219683 z" id="path239" style="fill:#b67327;fill-opacity:1;stroke:#754819;stroke-width:2.02540779;stroke-opacity:1"/>
	<path d="m 7.2209229,61.823074 c 0,0 18.8048981,1.837045 18.8048981,1.837045 l 12.405622,-2.278584 19.105671,4.994656 c 0,0 4.186517,1.081567 4.186517,5.891911 0,0 5.06352,52.913778 -4.557167,72.155148 0,0 -12.152446,29.53754 -16.540492,33.58835 0,0 -1.181825,3.88169 -12.574743,0.59041 L 6.2780956,172.27261 7.2209229,61.823074 z" id="path241" style="fill:#003a58;fill-opacity:1;stroke:#696d69;stroke-width:2.02540779"/>
	<path d="m 67.327934,89.141773 c 0,0 -6.362818,10.216159 -5.096938,13.001097 0,0 6.631185,9.27636 16.480742,-0.93169 0,0 7.902128,-5.009848 13.433517,-14.571798 0,0 6.755747,-2.382892 9.560935,-5.465563 0,0 1.53931,2.993553 6.34965,-0.550911 0,0 0.25318,2.53176 3.54447,4.050816 l 19.70519,11.300762 24.1459,23.784364 c 0,0 5.68734,6.26762 8.63937,-3.06545 0,0 -3.03001,-53.006951 -16.62049,-58.968738 l -8.02062,3.40471 c 0,0 -16.96279,-5.569871 -22.53266,-5.823047 0,0 -8.60798,-1.772232 -9.87386,-2.278584 0,0 -7.088926,-1.26588 -13.671501,7.595279 0,0 -18.976021,11.487861 -21.069595,13.924678 -2.2328,4.239419 -4.770281,11.700546 -4.97411,14.594075 z" id="path243" style="fill:#e3ae7a;fill-opacity:1;stroke:#754719;stroke-width:2.02540779;stroke-opacity:1"/>
	<path d="m 162.74084,47.456857 c 4.05081,-2.025407 9.11433,2.278584 15.95008,-1.519055 14.09684,-7.831239 30.69202,-12.103837 33.89419,-12.12004 l 1.29727,75.414028 c 0,0 -8.68191,9.32903 -18.9882,8.86116 -8.09049,-0.3666 -11.70888,3.89993 -17.46914,5.3167 -6.10154,1.50082 -12.02991,1.41373 -14.43103,2.27858 0,0 -4.1774,-1.39247 -5.69646,-3.41787 0,0 10.12704,10.12703 6.96234,-6.96234 0,0 -4.30399,-61.268588 -21.51995,-58.483652 0,0 -1.51906,1.772232 -2.78494,3.544463 0,0 1.94135,-4.894397 6.07622,-6.076223 0,0 9.60955,-3.285211 16.70962,-6.835751 z" id="path245" style="fill:#c7dfeb;fill-opacity:1;stroke:#696d69;stroke-width:2.02540779"/>
	<polygon points="138.006,24.723 133.256,26.598 135.756,23.723 " transform="matrix(1.0127038,0,0,1.0127038,5.2593156,32.799995)" id="polygon247" style="fill:#ffffff;stroke:#696d69;stroke-width:2"/>
	<circle cx="169.59" cy="77.054001" r="3.6670001" transform="matrix(1.0127038,0,0,1.0127038,5.2593156,32.799995)" id="circle249" style="fill:#549db6;fill-opacity:1;stroke:#696d69;stroke-width:2"/>
	<circle cx="184.59" cy="74.054001" r="3.6670001" transform="matrix(1.0127038,0,0,1.0127038,5.2593156,32.799995)" id="circle251" style="fill:#549db6;fill-opacity:1;stroke:#696d69;stroke-width:2"/>
	<rect width="6.0763988" height="10.465584" x="66.281578" y="147.05095" transform="matrix(0.96087223,0.27699199,-0.27699199,0.96087223,0,0)" id="rect253" style="fill:#ff9b00;fill-opacity:1;stroke:#696d69;stroke-width:2.0254662"/>
	<path d="m 140.62541,138.17284 c -6.90765,3.46143 -17.63219,-9.61562 -17.63219,-9.61562 0,0 13.97633,8.83483 15.77996,6.31016 0,0 6.41244,1.02283 1.85223,3.30546 z" id="path255" style="color:#000000;fill:#754a19;fill-opacity:1;fill-rule:nonzero;stroke:#754819;stroke-width:1;stroke-linecap:butt;stroke-linejoin:miter;stroke-miterlimit:4;stroke-opacity:1;stroke-dasharray:none;stroke-dashoffset:0;marker:none;visibility:visible;display:inline;overflow:visible;enable-background:accumulate"/>
	<path d="m 128.46183,150.90658 c -9.57208,3.26395 -15.74451,-6.92689 -15.74451,-6.92689 -0.72712,-1.49273 0.75345,-0.23191 0.75345,-0.23191 0,0 9.72094,7.08791 12.2284,5.9547 0,0 5.2853,0.34229 2.76266,1.2041 z" id="path257" style="color:#000000;fill:#754a19;fill-opacity:1;fill-rule:nonzero;stroke:#754819;stroke-width:1;stroke-linecap:butt;stroke-linejoin:miter;stroke-miterlimit:4;stroke-opacity:1;stroke-dasharray:none;stroke-dashoffset:0;marker:none;visibility:visible;display:inline;overflow:visible;enable-background:accumulate"/>
	<path d="m 113.00796,162.85244 c -3.63358,-1.02587 -8.69102,-7.78466 -9.59536,-9.65208 0.55293,1.14334 2.14288,2.31403 3.0533,3.14951 1.87755,1.72159 3.81384,3.42192 6.2018,4.39108 1.07549,0.43546 2.03148,0.32305 3.09381,-0.0304 0.0132,-0.005 0.0233,1.19701 -0.0628,1.35095 -0.77472,1.38132 -1.51804,1.12207 -2.69076,0.79092 z" id="path259" style="color:#000000;fill:#754a19;fill-opacity:1;fill-rule:nonzero;stroke:#754819;stroke-width:1;stroke-linecap:butt;stroke-linejoin:miter;stroke-miterlimit:4;stroke-opacity:1;stroke-dasharray:none;stroke-dashoffset:0;marker:none;visibility:visible;display:inline;overflow:visible;enable-background:accumulate"/>
	<path d="m 55.391194,151.55775 c 0,0 6.308132,8.42975 12.396508,10.14223 0,0 5.616456,3.78245 7.244883,3.38041 0,0 5.007821,6.18559 10.742763,7.19323 0,0 3.038111,4.30399 6.00027,5.36632 0,0 9.696642,0.20355 12.734752,-2.83456 0,0 3.79764,-2.27858 3.54446,-6.83575 0,0 -0.75953,-4.81034 -6.58257,-4.55717 0,0 3.03811,-2.02541 3.29128,-5.31669 0,0 -1.77223,-12.40562 -12.405617,-6.83575 0,0 2.025407,-6.07623 -4.303992,-9.87387 0,0 -10.13514,-6.32332 -17.852956,4.05386 0,0 -7.688447,5.49999 -8.208977,3.38142 0,0 -1.155495,-6.75271 -3.474587,-6.25345 0,-0.001 -4.141959,7.51527 -3.126217,8.98977 z" id="path261" style="color:#000000;fill:#e3ae7a;fill-opacity:1;fill-rule:nonzero;stroke:#754719;stroke-width:2.02540779;stroke-linecap:butt;stroke-linejoin:miter;stroke-miterlimit:4;stroke-opacity:1;stroke-dasharray:none;stroke-dashoffset:0;marker:none;visibility:visible;display:inline;overflow:visible;enable-background:accumulate"/>
	<path d="m 91.093056,152.44083 c 0,0 -3.207234,8.10062 -10.970621,8.77609 0,0 -1.055238,-0.25318 3.881694,-2.53176 0,0 4.999719,-3.64978 7.088927,-6.24433 z" id="path263" style="color:#000000;fill:#754719;fill-opacity:1;fill-rule:nonzero;stroke:#754719;stroke-width:1;stroke-linecap:butt;stroke-linejoin:miter;stroke-miterlimit:4;stroke-opacity:1;stroke-dasharray:none;stroke-dashoffset:0;marker:none;visibility:visible;display:inline;overflow:visible;enable-background:accumulate"/>
	<path d="m 98.687322,163.9178 c 0,0 -1.772232,2.27859 -8.101631,4.81034 0,0 -1.519056,0 1.012704,-1.85628 0,0 5.507083,-1.94135 7.088927,-2.95406 z" id="path265" style="color:#000000;fill:#754719;fill-opacity:1;fill-rule:nonzero;stroke:#754719;stroke-width:1;stroke-linecap:butt;stroke-linejoin:miter;stroke-miterlimit:4;stroke-opacity:1;stroke-dasharray:none;stroke-dashoffset:0;marker:none;visibility:visible;display:inline;overflow:visible;enable-background:accumulate"/>
	<path d="m 131.93743,94.968871 c 4.61489,1.482598 8.27075,-1.012704 14.76927,-4.557167 0,0 -11.81522,5.23264 -18.14462,2.86899 0,0.001 2.19352,1.308413 3.37535,1.688177 z" id="path267" style="color:#000000;fill:#754719;fill-opacity:1;fill-rule:nonzero;stroke:#754719;stroke-width:1;stroke-linecap:butt;stroke-linejoin:miter;stroke-miterlimit:4;stroke-opacity:1;stroke-dasharray:none;stroke-dashoffset:0;marker:none;visibility:visible;display:inline;overflow:visible;enable-background:accumulate"/>
	<path d="m 76.418247,92.34901 c 0,0 -2.573893,8.32355 -10.262213,9.59486 0,0 -0.316112,-1.12453 3.675197,-3.740549 0,0 4.703811,-3.106579 6.587016,-5.854311 z" id="path263-4" style="fill:#754719;fill-opacity:1;stroke:#754719;stroke-opacity:1"/>
</svg>
