<?xml version="1.0" encoding="UTF-8" standalone="no"?>
<svg xmlns:rdf="http://www.w3.org/1999/02/22-rdf-syntax-ns#" xmlns="http://www.w3.org/2000/svg" enable-background="new 0 0 219 219" height="219px" viewBox="0 0 219 219" width="219px" version="1.1" y="0px" x="0px" xmlns:cc="http://creativecommons.org/ns#" xmlns:dc="http://purl.org/dc/elements/1.1/">
 <defs>
  <filter id="filter3785">
   <feGaussianBlur stdDeviation="2.1377747"/>
  </filter>
 </defs>
 <metadata>
  <rdf:RDF>
   <cc:Work rdf:about="">
    <dc:format>image/svg+xml</dc:format>
    <dc:type rdf:resource="http://purl.org/dc/dcmitype/StillImage"/>
    <dc:title/>
   </cc:Work>
  </rdf:RDF>
 </metadata>
 <g transform="translate(6,0)">
  <path d="m13.72,188.9c1.796,9.906,13.54,12.93,21.7,16.08,33.57,9.782,69.15,10.53,103.8,7.873,20.02-2.349,41.31-4.394,58.81-15.26,5.976-3.085,6.107-9.757,5.772-15.53-0.0835-12.19,0.1683-24.39-0.1283-36.56-2.97-4.717,1.412-9.662,0.1282-15.27-0.0851-12.38,0.1716-24.78-0.1308-37.15-3.706-5.037,1.506-10.2,0.0996-16.38-0.2-11.85,0.4-23.77-0.3-35.57-4.2-9.48-15.5-12.65-24.4-16.03-95.05-16.6-159.3,81.83-165.2,157.8-0.0968,1.993-0.155,3.988-0.1729,5.983z" fill-opacity="0.5" filter="url(#filter3785)" fill="#000"/>
  <g transform="translate(-6,2)">
   <path d="m109.7,112.1c-52.48,0-95.04,11.3-95.04,25.26v42.12c0,13.96,42.56,25.26,95.04,25.26,52.47,0,95.04-11.3,95.04-25.26v-42.12c0-13.96-42.57-25.26-95.04-25.26z" stroke="#6680a6" stroke-dasharray="none" stroke-miterlimit="4" stroke-width="2" fill="#e0e0e0"/>
   <path d="m204.8,137.3c0,13.96-42.54,25.27-95.02,25.27s-95.01-11.31-95.01-25.27c0-13.95,42.54-25.27,95.01-25.27,52.48,0,95.02,11.31,95.02,25.27z" stroke="#6680a6" stroke-dasharray="none" stroke-miterlimit="4" stroke-width="2" fill="#91afdb"/>
   <path d="m109.7,59.65c-52.48,0-95.04,11.3-95.04,25.26v42.12c0,13.96,42.56,25.26,95.04,25.26,52.47,0,95.04-11.3,95.04-25.26v-42.12c0-13.95-42.57-25.26-95.04-25.26z" stroke="#6680a6" stroke-dasharray="none" stroke-miterlimit="4" stroke-width="2" fill="#e0e0e0"/>
   <path d="m204.8,84.91c0,13.96-42.54,25.27-95.02,25.27s-95.01-11.31-95.01-25.27,42.54-25.27,95.01-25.27c52.48-0.001,95.02,11.31,95.02,25.27z" stroke="#6680a6" stroke-dasharray="none" stroke-miterlimit="4" stroke-width="2" fill="#91afdb"/>
   <path d="m109.7,6.118c-52.48,0-95.04,13.52-95.04,27.48v39.9c0,13.96,42.56,25.26,95.04,25.26s95.04-11.3,95.04-25.26v-39.9c0-13.96-42.57-27.48-95.04-27.48z" stroke="#6680a6" stroke-dasharray="none" stroke-miterlimit="4" stroke-width="2" fill="#e0e0e0"/>
   <path d="m204.7,33.6c0,13.96-42.54,23.05-95.02,23.05s-95.02-9.094-95.02-23.05,42.54-27.49,95.02-27.49,95.02,13.54,95.02,27.49z" stroke="#667fa6" stroke-dasharray="none" stroke-miterlimit="4" stroke-width="2" fill="#91afdb"/>
   <path fill="#bababa" d="m186.7,49.03s-13.58,40.59-75.47,48.52c0,0,81.41,0.3881,92.29-22.47l0.0771-35.61c0-0.001-2.046,4.508-16.9,9.563z"/>
   <path fill="#bababa" d="m187.3,100.9s-14.31,41.99-76.2,50.15c0,0,82.8,0.3881,92.45-22.86l-0.1555-37.24c0,0.001-0.5436,3.422-16.09,9.954z"/>
   <path fill="#bababa" d="m190,152.2s-15.76,43.16-77.65,51.32c0,0,82.62-0.2078,91.54-23.22l-0.311-37.11s-0.5188,3.007-13.58,9.019z"/>
  </g>
 </g>
</svg>
