<?xml version="1.0" encoding="UTF-8" standalone="no"?><!-- Created with Inkscape (http://www.inkscape.org/) --><svg xmlns:rdf="http://www.w3.org/1999/02/22-rdf-syntax-ns#" xmlns="http://www.w3.org/2000/svg" xml:space="preserve" height="219" width="219" version="1.1" xmlns:cc="http://creativecommons.org/ns#" xmlns:dc="http://purl.org/dc/elements/1.1/" viewBox="21.027 45.083 219 219">	<metadata>		<rdf:RDF>			<cc:Work rdf:about="">				<dc:format>image/svg+xml</dc:format>				<dc:type rdf:resource="http://purl.org/dc/dcmitype/StillImage"/>				<dc:title/>			</cc:Work>		</rdf:RDF>	</metadata>	<defs>		<filter id="filter3804" color-interpolation-filters="sRGB">			<feGaussianBlur stdDeviation="2.1920404"/>		</filter>	</defs>	<rect fill-opacity="0.502" transform="matrix(1.026736,0,0,1.0200728,7.4478478,9.1006302)" height="199.2" filter="url(#filter3804)" width="199.4" y="47.2" x="23.04" fill="#000"/>	<g transform="matrix(1.147057,0,0,1.171367,223.88009,-325.12801)">		<rect height="170" width="173.8" stroke="#727272" y="319.7" x="-173.2" stroke-width="5" fill="#727272"/>		<rect height="25.54" width="32.17" y="405.9" x="-137.1" fill="#b6c7d3"/>		<rect height="26.35" width="32.16" y="434.7" x="-137.1" fill="#b6c7d3"/>		<rect height="25.27" width="32.16" y="464.5" x="-137.1" fill="#b6c7d3"/>		<rect height="26.35" width="32.16" y="348.3" x="-137.1" fill="#b6c7d3"/>		<rect height="25.27" width="32.16" y="377.5" x="-137.1" fill="#b6c7d3"/>		<rect height="25.54" width="32.17" y="405.9" x="-101.9" fill="#FFF"/>		<rect height="26.35" width="32.16" y="434.7" x="-101.9" fill="#FFF"/>		<rect height="25.27" width="32.16" y="464.5" x="-101.9" fill="#FFF"/>		<rect height="26.35" width="32.16" y="348.3" x="-101.8" fill="#FFF"/>		<rect height="25.27" width="32.16" y="377.5" x="-101.8" fill="#FFF"/>		<rect height="25.54" width="32.17" y="405.9" x="-66.57" fill="#FFF"/>		<rect height="26.35" width="32.17" y="434.7" x="-66.57" fill="#FFF"/>		<rect height="25.27" width="32.16" y="464.5" x="-66.57" fill="#FFF"/>		<rect height="26.35" width="32.16" y="348.3" x="-66.49" fill="#FFF"/>		<rect height="25.27" width="32.16" y="377.5" x="-66.49" fill="#FFF"/>		<rect height="25.54" width="32.17" y="405.9" x="-31.52" fill="#FFF"/>		<rect height="26.35" width="32.16" y="434.7" x="-31.52" fill="#FFF"/>		<rect height="25.27" width="32.16" y="464.5" x="-31.52" fill="#FFF"/>		<rect height="26.35" width="32.16" y="348.3" x="-31.44" fill="#FFF"/>		<rect height="25.27" width="32.16" y="377.5" x="-31.44" fill="#FFF"/>		<rect height="25.54" width="32.17" y="405.9" x="-173.2" fill="#FFF"/>		<rect height="26.35" width="32.16" y="434.7" x="-173.2" fill="#FFF"/>		<rect height="25.27" width="32.16" y="464.5" x="-173.2" fill="#FFF"/>		<rect height="26.35" width="32.16" y="348.3" x="-173.1" fill="#FFF"/>		<rect height="25.27" width="32.16" y="377.5" x="-173.1" fill="#FFF"/>		<rect height="26.04" width="173.8" y="319.7" x="-173.2" fill="#c1c1c1"/>	</g>	<path d="m58.47,159.7-6.952,0,0-44.3c-1.674,1.596-3.869,3.193-6.585,4.789s-5.156,2.794-7.319,3.592v-6.72c3.888-1.828,7.287-4.042,10.2-6.643,2.909-2.6,4.969-5.124,6.179-7.57h4.48z" stroke="#000" stroke-miterlimit="4" stroke-width="1.329" fill="#f0cb00"/>	<path d="m80.05,159.7,0-7.917,7.917,0,0,7.917c0,1.208-0.4455,6.023-1.441,6.944-1.03,1.789-2.769,3.278-5.009,4.256l-1.931-2.974c1.468-0.6437,2.549-1.59,3.244-2.839,0.6952-1.249,1.081-3.045,1.159-5.388z" stroke="#000" stroke-miterlimit="4" stroke-width="1.329" fill="#f0cb00"/>	<path d="m94.85,159.7,21.74-56.62,8.072,0,23.17,56.62-8.535,0-6.604-17.15-23.68,0-6.218,17.15zm16.34-23.25,19.19,0-5.909-15.68c-1.802-4.763-3.141-8.677-4.017-11.74-0.721,3.63-1.738,7.235-3.051,10.81z" stroke="#000" stroke-miterlimit="4" stroke-width="1.329" fill="#f0cb00"/>	<path d="m154.8,159.7,0-7.917,7.917,0,0,7.917c0,1.035-0.4108,5.571-1.441,7.361-1.03,1.789-2.769,2.861-5.009,3.839l-1.931-2.974c1.468-0.6437,2.549-1.59,3.244-2.839,0.6952-1.249,1.081-3.045,1.159-5.388z" stroke="#000" stroke-miterlimit="4" stroke-width="1.329" fill="#f0cb00"/>	<path d="m200.2,108.5c-5.708-0.1546-11.63,2.269-14.83,7.161-1.654,2.352-2.997,5.02-3.363,7.902h26.34c-0.3476,1.725-0.6952,3.45-1.043,5.175h-25.92c0.4322,1.476-1.123,5.116,0.9,5.098h23.97c-0.3605,1.725-0.7209,3.45-1.081,5.175h-22.98c0.8705,5.617,4.106,11.15,9.493,13.46,5.29,2.456,11.83,2.424,16.98-0.3698,1.347-0.8331,2.66-2.476,2.226-0.006v6.306c-6.652,3.034-14.49,2.832-21.32,0.5241-7.122-2.435-12.13-8.953-14.08-16.05-0.737-1.563-0.1768-4.57-2.625-3.862h-4.259c0.3605-1.725,0.7209-3.45,1.081-5.175h4.055c-0.7355-1.483,1.125-5.315-1.127-5.098h-4.009c0.3605-1.725,0.7209-3.45,1.081-5.175h4.48c1.175-6.489,5.164-12.26,10.14-16.47,4.882-3.771,11.3-5.134,17.37-4.979,3.76,0.1482,7.567,1.052,10.76,3.101-0.515,2.395-1.03,4.789-1.545,7.184-2.964-2.511-6.807-3.946-10.7-3.901z" stroke="#000" stroke-miterlimit="4" stroke-width="1.329" fill="#f0cb00"/></svg>