<?xml version="1.0" encoding="UTF-8" standalone="no"?><svg xmlns:rdf="http://www.w3.org/1999/02/22-rdf-syntax-ns#" xmlns="http://www.w3.org/2000/svg" version="1.1" xml:space="preserve" height="219" viewBox="-0.419 -0.126 219 219" width="219" enable-background="new -0.419 -0.126 164 209" y="0px" x="0px" xmlns:cc="http://creativecommons.org/ns#" xmlns:xlink="http://www.w3.org/1999/xlink" xmlns:dc="http://purl.org/dc/elements/1.1/">	<metadata>		<rdf:RDF>			<cc:Work rdf:about="">				<dc:format>image/svg+xml</dc:format>				<dc:type rdf:resource="http://purl.org/dc/dcmitype/StillImage"/>				<dc:title/>			</cc:Work>		</rdf:RDF>	</metadata>	<defs>		<linearGradient id="linearGradient4014" y2="106.1" gradientUnits="userSpaceOnUse" y1="22.64" x2="94.81" x1="13.65">			<stop stop-color="#c5cacf" offset="0"/>			<stop stop-color="#69b6f3" offset="1"/>		</linearGradient>		<filter id="filter4101">			<feGaussianBlur stdDeviation="2.036223"/>		</filter>		<linearGradient id="linearGradient3006" y2="115.8" gradientUnits="userSpaceOnUse" x2="89.76" gradientTransform="matrix(0.98000244,0,0,0.98000244,28.468438,1.9787893)" y1="154.6" x1="123.3">			<stop stop-color="#10637b" offset="0"/>			<stop stop-color="#6d8c96" offset="1"/>		</linearGradient>	</defs>	<path d="m44.81,17.14c-3.901,0.2196-4.962,3.913-5.25,5.844-0.1112,0.5047-0.1731,0.9708-0.09375,1.156l-1.469,101.8,0.03125,0.0312-0.2812,20.91c0.329,5.583,3.688,7.656,3.688,7.656l42.16,23.19-24.62,12.25s-3.436,1.45-3.719,4.156c-1.991,6.216,5.16,9.378,8.594,12.12,3.695,2.956,9.424,6.508,13.19,8.875,0,0,11.05,8.16,19.72,5.562,0.01173-0.00099,0.01942,0.001,0.03125,0,0.03075-0.009,0.06306-0.0217,0.09375-0.0312,3.114-0.372,9.344-5.031,9.344-5.031l18.09-14.31,0.75-0.7188-2.75-1.406,0.0937-0.0625-39-21.16,0.2188-0.2188,84.91,46.72c0.3986,0.167,0.7744,0.259,1.125,0.2812,0.0417,0.0125,0.082,0.0203,0.125,0.0312,0,0,4.006,1.042,5.156-8.688l25.12-151.2c1.315-7.555-3.938-8.531-3.938-8.531l-142.2-37.54c-3.942-0.821-7.969-1.625-7.969-1.625-0.28-0.18-0.65-0.19-1-0.17zm56.53,199.1c-1.037,1.037-4.29,2.816-5.312,3.375-0.7304,0.1153-1.375,0.2188-1.375,0.2188-0.5555-0.0898-1.046-0.1545-1.5-0.25,0.2481,0.0343,0.506,0.0686,0.75,0.0937,2.174,0.225,5.558-2.136,7.438-3.438z" fill-opacity="0.50196081000000004" transform="matrix(0.98000244,0,0,0.98000244,-2.1525681,-3.7384341)" filter="url(#filter4101)" stroke-miterlimit="4" fill="#000"/>	<path d="m84.72,201.2c-2.178-0.3518-3.311-0.685-5.391-1.508-2.025-0.8026-4.555-2.498-6.438-3.682-7.609-4.785-13.76-8.57-21.55-13.82-6.028-4.065-5.089-6.718-5.089-6.718-2.532,6.436,4.83,9.625,8.289,12.39,3.621,2.897,9.228,6.37,12.92,8.69,0,0,10.92,8.088,19.43,5.432,8.509-2.656-2.174-0.785-2.174-0.785z" stroke="#0c0c0c" stroke-width="0.98000246" fill="#9e9e9e"/>	<path d="m114.5,182.3-2.876-1.446-20.38,16.79c-1.183,1.183-5.912,3.724-5.912,3.724,1.288,2.736,10.7-4.346,10.7-4.346l17.74-14,0.7252-0.7242z" stroke="#0c0c0c" stroke-width="0.98000246" fill="#727272"/>	<path d="m30.65,9.348s0.08134-7.483,6.357-6.839c0,0,3.943,0.8046,7.806,1.609l139.4,36.78s5.151,0.9653,3.862,8.369l-25.27,150.9s-1.409,7.282-5.634,5.512l-124.6-68.56s-3.299-2.012-3.621-7.483l1.69-120.3z" stroke="#0c0c0c" stroke-width="0.98000246" fill="#d8d8d8"/>	<path d="m186.6,42.98s-4.828-2.897-7.484,4.828l-23.18,150.2s-1.368,7.042,2.414,8.008c0,0,3.944,1.045,5.07-8.491l24.63-148.2c-0.00098,0,0.4831-5.553-1.448-6.277z" stroke="#0c0c0c" stroke-width="0.98000246" fill="#9e9e9e"/>	<path d="M33.67,3.755,180.6,43.95s-1.288,1.449-1.851,3.783l-146.5-42.09z" fill="#f4f4f4"/>	<path d="m74.03,159.8-24.26,12.06s-7.656,3.156-0.9369,8.949c1.361,1.173,21.28,15.45,28.53,18.47,2.042,0.8506,4.44,1.464,6.638,1.69,2.13,0.2205,5.439-2.086,7.28-3.361l20.65-16.8-38.21-20.73" stroke="#0c0c0c" stroke-width="0.98000246" fill="#c6c6c6"/>	<path d="m31.43,5.867s-1.026,2.918-0.785,3.481l-1.448,99.78,130.1,66.63,19.07-124.1s0.1206-2.414,0.4018-3.942c-49.1-13.92-98.28-27.78-147.4-41.79z" stroke="#0c0c0c" stroke-width="0.98000246" fill="#282828"/>	<polygon transform="matrix(0.98000244,0,0,0.98000244,28.468438,1.9787893)" stroke="#0c0c0c" points="7.151,11.79,4.688,103.6,129.3,164.3,146.1,52.81" fill="url(#linearGradient4014)"/>	<path fill="url(#linearGradient3006)" d="M168.9,68.41,155,162.8,33.63,103.2s116.7,28.31,135.2-34.77z"/>	<path fill="#7f7f7f" d="m178.8,101.6-15.69,95.84c-1.69,9.294-4.708,8.208-4.708,8.208-3.5-1.851-1.81-7.725-1.81-7.725l2.293-15.09c0.00097,0,4.442-1.252,19.92-81.23z"/>	<ellipse cx="74.55" cy="28.54" rx="0.835" ry="1.526" transform="matrix(0.98000244,0,0,0.98000244,28.468438,1.9787893)" fill="#CCC"/></svg>