<?xml version="1.0" encoding="UTF-8" standalone="no"?>

<svg
 xmlns:dc="http://purl.org/dc/elements/1.1/"
   xmlns:cc="http://creativecommons.org/ns#"
   xmlns:rdf="http://www.w3.org/1999/02/22-rdf-syntax-ns#"
   xmlns:svg="http://www.w3.org/2000/svg"
   xmlns="http://www.w3.org/2000/svg"
   xmlns:xlink="http://www.w3.org/1999/xlink"
   xmlns:sodipodi="http://sodipodi.sourceforge.net/DTD/sodipodi-0.dtd"
   xmlns:inkscape="http://www.inkscape.org/namespaces/inkscape"
   id="svg2"
   version="1.1"
   inkscape:version="0.47 r22583"
   width="100"
   height="100"
   sodipodi:docname="documentcomponent.svg">
  <metadata
     id="metadata60">
    <rdf:RDF>
      <cc:Work
         rdf:about="">
        <dc:format>image/svg+xml</dc:format>
        <dc:type
           rdf:resource="http://purl.org/dc/dcmitype/StillImage" />
      </cc:Work>
    </rdf:RDF>
  </metadata>
  <defs
     id="defs58">
    <linearGradient
       inkscape:collect="always"
       id="linearGradient3720">
      <stop
         style="stop-color:#198000;stop-opacity:1;"
         offset="0"
         id="stop3722" />
      <stop
         style="stop-color:#198000;stop-opacity:0;"
         offset="1"
         id="stop3724" />
    </linearGradient>
    <linearGradient
       inkscape:collect="always"
       id="linearGradient3712">
      <stop
         style="stop-color:#198000;stop-opacity:1;"
         offset="0"
         id="stop3714" />
      <stop
         style="stop-color:#198000;stop-opacity:0;"
         offset="1"
         id="stop3716" />
    </linearGradient>
    <linearGradient
       inkscape:collect="always"
       id="linearGradient3704">
      <stop
         style="stop-color:#4db333;stop-opacity:1;"
         offset="0"
         id="stop3706" />
      <stop
         style="stop-color:#4db333;stop-opacity:0;"
         offset="1"
         id="stop3708" />
    </linearGradient>
    <linearGradient
       inkscape:collect="always"
       id="linearGradient3696">
      <stop
         style="stop-color:#4db333;stop-opacity:1;"
         offset="0"
         id="stop3698" />
      <stop
         style="stop-color:#4db333;stop-opacity:0;"
         offset="1"
         id="stop3700" />
    </linearGradient>
    <linearGradient
       inkscape:collect="always"
       id="linearGradient3688">
      <stop
         style="stop-color:#4db333;stop-opacity:1;"
         offset="0"
         id="stop3690" />
      <stop
         style="stop-color:#4db333;stop-opacity:0;"
         offset="1"
         id="stop3692" />
    </linearGradient>
    <linearGradient
       inkscape:collect="always"
       id="linearGradient3680">
      <stop
         style="stop-color:#4db333;stop-opacity:1;"
         offset="0"
         id="stop3682" />
      <stop
         style="stop-color:#4db333;stop-opacity:0;"
         offset="1"
         id="stop3684" />
    </linearGradient>
    <linearGradient
       inkscape:collect="always"
       id="linearGradient3672">
      <stop
         style="stop-color:#ffffff;stop-opacity:1;"
         offset="0"
         id="stop3674" />
      <stop
         style="stop-color:#ffffff;stop-opacity:0;"
         offset="1"
         id="stop3676" />
    </linearGradient>
    <linearGradient
       inkscape:collect="always"
       id="linearGradient3664">
      <stop
         style="stop-color:#4db333;stop-opacity:1;"
         offset="0"
         id="stop3666" />
      <stop
         style="stop-color:#4db333;stop-opacity:0;"
         offset="1"
         id="stop3668" />
    </linearGradient>
    <linearGradient
       inkscape:collect="always"
       id="linearGradient3656">
      <stop
         style="stop-color:#ffffff;stop-opacity:1;"
         offset="0"
         id="stop3658" />
      <stop
         style="stop-color:#ffffff;stop-opacity:0;"
         offset="1"
         id="stop3660" />
    </linearGradient>
    <linearGradient
       inkscape:collect="always"
       id="linearGradient3648">
      <stop
         style="stop-color:#4db333;stop-opacity:1;"
         offset="0"
         id="stop3650" />
      <stop
         style="stop-color:#4db333;stop-opacity:0;"
         offset="1"
         id="stop3652" />
    </linearGradient>
    <linearGradient
       inkscape:collect="always"
       id="linearGradient3640">
      <stop
         style="stop-color:#ffffff;stop-opacity:1;"
         offset="0"
         id="stop3642" />
      <stop
         style="stop-color:#ffffff;stop-opacity:0;"
         offset="1"
         id="stop3644" />
    </linearGradient>
    <inkscape:perspective
       sodipodi:type="inkscape:persp3d"
       inkscape:vp_x="0 : 0.5 : 1"
       inkscape:vp_y="0 : 1000 : 0"
       inkscape:vp_z="1 : 0.5 : 1"
       inkscape:persp3d-origin="0.5 : 0.33333333 : 1"
       id="perspective62" />
    <linearGradient
       inkscape:collect="always"
       xlink:href="#linearGradient3640"
       id="linearGradient3646"
       x1="382.81201"
       y1="312.5"
       x2="773.43701"
       y2="312.5"
       gradientUnits="userSpaceOnUse" />
    <linearGradient
       inkscape:collect="always"
       xlink:href="#linearGradient3648"
       id="linearGradient3654"
       x1="359.375"
       y1="304.6875"
       x2="843.75"
       y2="304.6875"
       gradientUnits="userSpaceOnUse" />
    <linearGradient
       inkscape:collect="always"
       xlink:href="#linearGradient3656"
       id="linearGradient3662"
       x1="210.938"
       y1="242.188"
       x2="625"
       y2="242.188"
       gradientUnits="userSpaceOnUse" />
    <linearGradient
       inkscape:collect="always"
       xlink:href="#linearGradient3664"
       id="linearGradient3670"
       x1="187.5"
       y1="242.187"
       x2="671.875"
       y2="242.187"
       gradientUnits="userSpaceOnUse" />
    <linearGradient
       inkscape:collect="always"
       xlink:href="#linearGradient3672"
       id="linearGradient3678"
       x1="39.0625"
       y1="179.6875"
       x2="453.125"
       y2="179.6875"
       gradientUnits="userSpaceOnUse" />
    <linearGradient
       inkscape:collect="always"
       xlink:href="#linearGradient3680"
       id="linearGradient3686"
       x1="15.625"
       y1="175.78101"
       x2="500"
       y2="175.78101"
       gradientUnits="userSpaceOnUse" />
    <linearGradient
       inkscape:collect="always"
       xlink:href="#linearGradient3688"
       id="linearGradient3694"
       x1="15.625"
       y1="492.1875"
       x2="500"
       y2="492.1875"
       gradientUnits="userSpaceOnUse" />
    <linearGradient
       inkscape:collect="always"
       xlink:href="#linearGradient3696"
       id="linearGradient3702"
       x1="187.5"
       y1="558.59399"
       x2="671.875"
       y2="558.59399"
       gradientUnits="userSpaceOnUse" />
    <linearGradient
       inkscape:collect="always"
       xlink:href="#linearGradient3704"
       id="linearGradient3710"
       x1="359.375"
       y1="609.37451"
       x2="851.56299"
       y2="609.37451"
       gradientUnits="userSpaceOnUse" />
    <linearGradient
       inkscape:collect="always"
       xlink:href="#linearGradient3712"
       id="linearGradient3718"
       x1="507.81201"
       y1="609.37451"
       x2="851.56201"
       y2="609.37451"
       gradientUnits="userSpaceOnUse" />
    <linearGradient
       inkscape:collect="always"
       xlink:href="#linearGradient3720"
       id="linearGradient3726"
       x1="140.625"
       y1="492.1875"
       x2="500"
       y2="492.1875"
       gradientUnits="userSpaceOnUse" />
    <linearGradient
       inkscape:collect="always"
       xlink:href="#linearGradient3720"
       id="linearGradient3728"
       x1="320.31201"
       y1="554.68799"
       x2="671.87402"
       y2="554.68799"
       gradientUnits="userSpaceOnUse" />
  </defs>
  <sodipodi:namedview
     pagecolor="#ffffff"
     bordercolor="#666666"
     borderopacity="1"
     objecttolerance="10"
     gridtolerance="10"
     guidetolerance="10"
     inkscape:pageopacity="0"
     inkscape:pageshadow="2"
     inkscape:window-width="1280"
     inkscape:window-height="962"
     id="namedview56"
     showgrid="false"
     inkscape:zoom="0.44851479"
     inkscape:cx="-42.042659"
     inkscape:cy="138.00637"
     inkscape:window-x="-8"
     inkscape:window-y="-8"
     inkscape:window-maximized="1"
     inkscape:current-layer="svg2" />
  <title
     id="title4">Symbol library: documentcomponent.svg</title>
  <polygon
     points="1007.81,0 1007.81,1007.81 1007.81,1007.81 0,1007.81 0,0 "
     style="fill:#ffffff;fill-opacity:0;stroke:none"
     id="polygon6"
     transform="matrix(0.09922505,0,0,0.09922505,0,2.4414062e-6)" />
  <polygon
     points="1000,738.029 706.275,507.812 507.812,1000 507.812,1000 "
     style="fill:#444444;fill-opacity:1;stroke:none"
     id="polygon8"
     transform="matrix(0.09922505,0,0,0.09922505,0,2.4414062e-6)" />
  <polyline
     points="507.812 1000 1000 738.029 706.275 507.812"
     style="stroke:none"
     id="polyline10"
     transform="matrix(0.09922505,0,0,0.09922505,0,2.4414062e-6)" />
  <polygon
     points="15.625,224.375 15.625,232.499 158.594,281.25 484.244,118.75 492.187,110.625 484.244,102.499 436.589,102.499 420.702,94.375 420.702,86.2505 420.702,78.125 412.76,78.125 412.76,78.125 "
     style="fill:#000000;fill-opacity:1;stroke:none"
     id="polygon12"
     transform="matrix(0.09922505,0,0,0.09922505,0,2.4414062e-6)" />
  <polygon
     points="405.349,93.75 405.349,93.75 413.311,101.934 429.237,110.119 453.125,118.304 158.504,265.625 39.0625,224.703 "
     style="fill:url(#linearGradient3678);fill-opacity:1;stroke:none"
     id="polygon14"
     transform="matrix(0.09922505,0,0,0.09922505,0,2.4414062e-6)" />
  <polygon
     points="31.7308,851.32 55.5289,859.213 95.1924,875 150.722,875 428.366,693.46 436.299,685.567 515.625,117.269 515.625,109.375 507.693,109.375 507.693,109.375 182.453,275.129 126.923,275.129 95.1924,267.236 63.4616,259.342 39.6635,243.557 15.8654,219.878 15.8654,204.091 7.9327,204.091 0,204.091 0,803.962 7.9327,827.641 15.8654,843.428 "
     style="fill:#000000;fill-opacity:1;stroke:none"
     id="polygon16"
     transform="matrix(0.09922505,0,0,0.09922505,0,2.4414062e-6)" />
  <polygon
     points="182.377,282.93 182.377,282.93 500,125 420.593,685.653 142.674,859.375 95.0307,859.375 55.3278,851.479 23.5656,835.686 15.625,819.893 15.625,804.1 15.625,235.551 31.5061,251.344 63.2684,275.034 110.912,282.93 "
     style="fill:url(#linearGradient3694);fill-opacity:1;stroke:none"
     id="polygon18"
     transform="matrix(0.09922505,0,0,0.09922505,0,2.4414062e-6)" />
  <polygon
     points="491.827,95.0523 166.586,248.439 126.923,248.439 95.1924,240.366 79.327,232.292 71.3943,224.22 420.433,95.0523 420.433,86.9799 420.433,62.7605 420.433,54.688 412.5,54.688 412.5,54.688 7.9327,200 0,208.074 7.9327,232.292 15.8654,248.439 39.6635,272.658 63.4616,288.804 103.125,296.876 134.855,296.876 182.453,288.804 515.625,119.272 515.625,111.198 499.761,95.0523 "
     style="fill:#000000;fill-opacity:1;stroke:none"
     id="polygon20"
     transform="matrix(0.09922505,0,0,0.09922505,0,2.4414062e-6)" />
  <polygon
     points="102.971,281.25 71.209,273.137 47.3873,256.911 23.5656,232.571 15.625,216.346 404.713,70.312 404.713,70.312 412.653,78.4255 63.2684,208.233 55.3278,224.459 55.3278,232.571 71.209,248.798 95.0307,256.911 126.793,265.023 166.495,265.023 492.059,110.877 500,110.877 182.377,281.25 134.733,281.25 "
     style="fill:url(#linearGradient3686);fill-opacity:1;stroke:none"
     id="polygon22"
     transform="matrix(0.09922505,0,0,0.09922505,0,2.4414062e-6)" />
  <polygon
     points="500,125 188.542,282.93 188.542,282.93 140.625,859.375 420.138,685.653 "
     style="fill:url(#linearGradient3726);fill-opacity:1;stroke:none"
     id="polygon24"
     transform="matrix(0.09922505,0,0,0.09922505,0,2.4414062e-6)" />
  <polygon
     points="584.635,132.812 584.635,132.812 195.442,294.849 187.5,302.951 195.442,302.951 330.469,351.562 338.412,351.562 656.12,181.424 664.062,173.322 656.12,165.219 608.463,165.219 592.578,157.118 592.578,149.017 592.578,140.914 "
     style="fill:#000000;fill-opacity:1;stroke:none"
     id="polygon26"
     transform="matrix(0.09922505,0,0,0.09922505,0,2.4414062e-6)" />
  <polygon
     points="577.223,148.438 577.223,148.438 585.186,164.741 601.111,172.894 625,181.047 330.378,335.938 210.938,303.329 "
     style="fill:url(#linearGradient3662);fill-opacity:1;stroke:none"
     id="polygon28"
     transform="matrix(0.09922505,0,0,0.09922505,0,2.4414062e-6)" />
  <polygon
     points="203.606,929.529 227.403,937.421 267.067,945.312 322.595,945.312 608.172,763.809 608.172,755.918 687.5,171.954 687.5,164.062 679.567,164.062 679.567,164.062 354.326,345.565 298.798,345.565 267.067,337.674 235.336,329.782 211.539,313.999 187.74,290.325 187.74,274.543 179.808,274.543 171.875,274.543 171.875,874.29 179.808,897.964 187.74,913.746 "
     style="fill:#000000;fill-opacity:1;stroke:none"
     id="polygon30"
     transform="matrix(0.09922505,0,0,0.09922505,0,2.4414062e-6)" />
  <polygon
     points="354.252,353.352 354.252,353.352 671.875,179.688 592.47,755.941 314.549,937.5 266.906,929.606 227.202,921.712 195.44,905.925 187.5,890.136 187.5,874.349 187.5,305.99 203.381,321.777 235.143,345.459 282.787,353.352 "
     style="fill:url(#linearGradient3702);fill-opacity:1;stroke:none"
     id="polygon32"
     transform="matrix(0.09922505,0,0,0.09922505,0,2.4414062e-6)" />
  <polygon
     points="671.634,157.51 663.701,157.51 338.462,318.801 298.798,318.801 267.067,318.801 251.202,310.737 243.27,294.607 592.308,149.446 592.308,141.381 592.308,117.188 584.375,117.188 584.375,117.188 179.808,270.414 171.875,278.479 179.808,302.672 187.74,318.801 211.539,342.995 235.336,359.123 275,367.188 314.663,367.188 354.326,359.123 687.5,181.704 687.5,173.639 687.5,165.574 "
     style="fill:#000000;fill-opacity:1;stroke:none"
     id="polygon34"
     transform="matrix(0.09922505,0,0,0.09922505,0,2.4414062e-6)" />
  <polygon
     points="274.847,351.562 243.085,343.461 219.262,335.358 195.44,302.951 187.5,286.747 584.529,132.812 584.529,132.812 584.529,140.914 235.143,278.646 227.202,294.849 227.202,302.951 243.085,319.155 266.906,327.256 298.668,335.358 338.372,335.358 663.935,173.322 671.875,173.322 354.252,351.562 314.549,351.562 "
     style="fill:url(#linearGradient3670);fill-opacity:1;stroke:none"
     id="polygon36"
     transform="matrix(0.09922505,0,0,0.09922505,0,2.4414062e-6)" />
  <polygon
     points="671.874,179.688 360.263,353.371 360.263,353.371 320.312,929.688 591.975,756.004 "
     style="fill:url(#linearGradient3728);fill-opacity:1;stroke:none"
     id="polygon38"
     transform="matrix(0.09922505,0,0,0.09922505,0,2.4414062e-6)" />
  <polygon
     points="741.071,195.312 741.071,195.312 367.328,365.234 359.375,373.326 367.328,381.417 502.511,421.874 510.462,421.874 796.734,235.77 804.687,227.678 796.734,227.678 756.975,227.678 749.024,219.587 749.024,211.496 749.024,203.404 "
     style="fill:#000000;fill-opacity:1;stroke:none"
     id="polygon40"
     transform="matrix(0.09922505,0,0,0.09922505,0,2.4414062e-6)" />
  <polygon
     points="733.577,218.75 733.577,218.75 733.577,226.902 749.522,235.054 773.437,243.207 502.391,406.25 382.812,373.641 "
     style="fill:url(#linearGradient3646);fill-opacity:1;stroke:none"
     id="polygon42"
     transform="matrix(0.09922505,0,0,0.09922505,0,2.4414062e-6)" />
  <polygon
     points="375.481,992.033 399.279,999.923 454.808,1007.81 510.336,1007.81 843.511,771.117 843.511,763.227 859.375,218.827 859.375,210.938 851.443,210.938 851.443,210.938 526.203,416.073 478.605,416.073 438.942,408.184 407.212,400.295 383.413,384.514 367.549,360.845 359.615,345.065 351.682,345.065 343.75,345.065 343.75,944.694 351.682,968.364 359.615,984.143 "
     style="fill:#000000;fill-opacity:1;stroke:none"
     id="polygon44"
     transform="matrix(0.09922505,0,0,0.09922505,0,2.4414062e-6)" />
  <polygon
     points="462.576,423.888 526.084,423.888 526.084,423.888 851.563,226.562 835.686,763.288 510.206,992.187 454.637,992.187 407.006,992.187 383.19,984.294 367.314,976.401 359.375,960.615 359.375,944.829 359.375,376.53 375.252,400.21 407.006,415.995 "
     style="fill:url(#linearGradient3710);fill-opacity:1;stroke:none"
     id="polygon46"
     transform="matrix(0.09922505,0,0,0.09922505,0,2.4414062e-6)" />
  <polygon
     points="843.511,204.072 835.577,204.072 510.336,389.204 470.673,397.253 438.942,389.204 423.077,381.155 415.144,373.106 415.144,365.056 748.318,212.122 748.318,204.072 756.25,179.925 748.318,171.875 740.385,171.875 740.385,171.875 351.682,348.958 343.75,357.007 351.682,373.106 359.615,397.253 383.413,413.352 407.212,429.45 446.875,437.5 486.539,437.5 526.203,429.45 859.375,228.219 859.375,220.17 859.375,212.122 "
     style="fill:#000000;fill-opacity:1;stroke:none"
     id="polygon48"
     transform="matrix(0.09922505,0,0,0.09922505,0,2.4414062e-6)" />
  <polygon
     points="446.721,421.875 414.958,413.794 391.137,405.712 367.316,373.385 359.375,357.22 740.522,187.5 740.522,187.5 740.522,195.581 407.018,357.22 399.078,365.302 399.078,373.385 414.958,389.547 438.781,397.63 470.543,405.712 510.245,405.712 843.75,211.746 843.75,219.828 526.127,421.875 486.424,421.875 "
     style="fill:url(#linearGradient3654);fill-opacity:1;stroke:none"
     id="polygon50"
     transform="matrix(0.09922505,0,0,0.09922505,0,2.4414062e-6)" />
  <polygon
     points="851.562,226.562 531.795,423.888 531.795,423.888 507.812,992.187 835.574,763.288 "
     style="fill:url(#linearGradient3718);fill-opacity:1;stroke:none"
     id="polygon52"
     transform="matrix(0.09922505,0,0,0.09922505,0,2.4414062e-6)" />
  <use
     href="#oid1"
     id="use54"
     x="0"
     y="0"
     width="744.09448"
     height="1052.3622"
     transform="matrix(0.09922505,0,0,0.09922505,0,2.4414062e-6)" />
</svg>
