<?xml version="1.0" encoding="UTF-8" standalone="no"?><!-- Generator: Adobe Illustrator 13.0.2, SVG Export Plug-In  --><svg xmlns:rdf="http://www.w3.org/1999/02/22-rdf-syntax-ns#" xmlns="http://www.w3.org/2000/svg" enable-background="new 21.152 45.375 219 219" xml:space="preserve" height="219px" width="219px" version="1.1" y="0px" x="0px" xmlns:cc="http://creativecommons.org/ns#" xmlns:dc="http://purl.org/dc/elements/1.1/" viewBox="21.152 45.375 219 219">	<metadata>		<rdf:RDF>			<cc:Work rdf:about="">				<dc:format>image/svg+xml</dc:format>				<dc:type rdf:resource="http://purl.org/dc/dcmitype/StillImage"/>				<dc:title/>			</cc:Work>		</rdf:RDF>	</metadata>	<defs>		<filter id="filter3790">			<feGaussianBlur stdDeviation="1.8352357"/>		</filter>	</defs>	<path d="m74.53,253.4c-4.429-2.668-12.44-8.994-9.994-14.45,30.97-56.24,61.94-112.5,92.91-168.7,18.08,11.78,36.17,23.56,54.25,35.34-0.154,43.91,0.4894,87.83-0.6109,131.7,0.5443,8.745-6.863,16.79-15.72,16.56-33.92,1.125-67.88,0.4673-101.8,0.2719-6.34-0.1823-12.72-0.0567-19.03-0.7168z" fill-rule="evenodd" fill-opacity="0.50196078" transform="matrix(1.0817557,0,0,1.0851304,-9.145876,-18.880043)" filter="url(#filter3790)" fill="#000"/>	<path d="m156.7,50.99c-29.28,0.06182-58.56-0.1237-87.84,0.09279-11.57,0.8057-17.7,12.87-16.09,23.39,0.06155,53.52-0.1232,107.1,0.09251,160.6,0.7824,11.56,12.81,17.77,23.33,16.13,40.74-0.062,81.5,0.1239,122.2-0.0928,11.58-0.8063,17.68-12.87,16.11-23.39,0.1841-46.13,0.3683-92.26,0.5524-138.4-19.47-12.77-38.93-25.55-58.4-38.32z" stroke="#605a5a" stroke-width="3.2503252" fill="#f2f2f2"/>	<path d="m213.5,91.74h-39.82c-10.69,0-19.36-10.36-19.36-23.15v-16.05" stroke="#605a5a" stroke-width="3.25032544" fill="none"/>	<line stroke-width="5.417" y2="150.9" x2="179.6" stroke="#000" y1="150.4" x1="85.07" fill="#919191"/>	<line stroke-width="5.417" y2="176.2" x2="179.5" stroke="#000" y1="175.7" x1="84.94" fill="#919191"/>	<line stroke-width="5.417" y2="202.9" x2="179.3" stroke="#000" y1="202.4" x1="84.69" fill="#919191"/>	<line stroke-width="5.417" y2="228.2" x2="179.1" stroke="#000" y1="227.7" x1="84.57" fill="#919191"/>	<line stroke-width="5.417" y2="102.3" x2="178.6" stroke="#000" y1="101.8" x1="84.06" fill="#919191"/>	<line stroke-width="5.417" y2="126.6" x2="178.5" stroke="#000" y1="126.1" x1="83.94" fill="#919191"/></svg>