<?xml version="1.0" encoding="UTF-8" standalone="no"?>
<svg id="svg2" xmlns:rdf="http://www.w3.org/1999/02/22-rdf-syntax-ns#" xmlns="http://www.w3.org/2000/svg" version="1.1" xml:space="preserve" height="219" viewBox="-0.5 -0.574 219 219" width="219" enable-background="new -0.5 -0.574 206 217" y="0px" x="0px" xmlns:cc="http://creativecommons.org/ns#" xmlns:dc="http://purl.org/dc/elements/1.1/"><metadata id="metadata317"><rdf:RDF><cc:Work rdf:about=""><dc:format>image/svg+xml</dc:format><dc:type rdf:resource="http://purl.org/dc/dcmitype/StillImage"/><dc:title/></cc:Work></rdf:RDF></metadata><defs id="defs4"><radialGradient id="radialGradient4244" gradientUnits="userSpaceOnUse" cy="9.6992" cx="28.144" gradientTransform="matrix(0.87665071,0,0,0.83982387,11.895102,25.362754)" r="84.833"><stop id="stop267" stop-color="#FFF" offset="0.1573"/><stop id="stop269" stop-color="#724548" offset="0.8989"/></radialGradient><linearGradient id="linearGradient4246" x1="98.135" gradientUnits="userSpaceOnUse" y1="31.556" gradientTransform="matrix(0.93350092,0,0,0.89428588,11.621492,13.621585)" x2="104.18" y2="140.46"><stop id="stop246" stop-color="#FFF" offset="0.2978"/><stop id="stop248" stop-color="#FFF" offset="0.5955"/><stop id="stop250" stop-color="#EEE7E5" offset="0.9045"/></linearGradient><linearGradient id="linearGradient3699" x1="-11.3" gradientUnits="userSpaceOnUse" y1="267" gradientTransform="matrix(0.18241251,1.1468734,1.2141089,-0.17231078,-167.09549,214.80579)" x2="-80.9" y2="212"><stop id="stop15" stop-color="#663700" offset="0"/><stop id="stop17" stop-color="#b49664" stop-opacity="0" offset="1"/></linearGradient><linearGradient id="linearGradient3695" x1="-27.5" gradientUnits="userSpaceOnUse" y1="259" gradientTransform="matrix(0.1824125,1.1468734,1.2141089,-0.17231077,-164.80542,213.64551)" x2="-79.4" y2="221"><stop id="stop20" stop-color="#a06127" offset="0"/><stop id="stop22" stop-color="#b4964e" stop-opacity="0" offset="1"/></linearGradient><linearGradient id="linearGradient3686" x1="-104" gradientUnits="userSpaceOnUse" y1="245" gradientTransform="matrix(0.1824125,1.1468734,1.2141089,-0.17231077,-166.80542,213.64551)" x2="-139" y2="220"><stop id="stop25" stop-color="#663700" offset="0"/><stop id="stop27" stop-color="#b4964e" stop-opacity="0" offset="1"/></linearGradient><linearGradient id="linearGradient3681" x1="-62.2" gradientUnits="userSpaceOnUse" y1="187" gradientTransform="matrix(0.1824125,1.1468734,1.2141089,-0.17231077,-166.80542,213.64551)" x2="-102" y2="161"><stop id="stop30" stop-color="#663700" offset="0"/><stop id="stop32" stop-color="#b4964e" stop-opacity="0" offset="1"/></linearGradient><linearGradient id="linearGradient3677" x1="-52.9" gradientUnits="userSpaceOnUse" y1="-224" gradientTransform="matrix(1.1926234,0,0,1.1958237,-47.122636,269.61523)" x2="-16.4" y2="-224"><stop id="stop35" stop-color="#663700" offset="0"/><stop id="stop37" stop-color="#b4964e" stop-opacity="0" offset="1"/></linearGradient></defs>
<g id="g4248" transform="translate(2.9279661,13.360169)"><path id="path239" fill="#919090" d="m68.373,36.416c1.0297,3.764,5.7354,3.5798,7.3158,2.2536,1.432-1.2028,0.53676-4.9213,0.49102-5.1833,0,0,8.7049-13.246,31.732-12.912,19.304,0.27902,27.811,7.8858,30.815,12.692,0,0-1.7083,7.0488,4.7329,5.7315,9.1259-1.87-9.0606-25.323-35.844-25.375-24.823-0.04919-41.018,16.288-39.243,22.794z"/><path id="path241" fill="#7c7c7c" d="m69.829,35.701c0.80748,2.2232,3.804,2.5416,4.7543,1.5874,1.1725-1.1805,0.26138-4.094,0.78321-5.2092,0,0,10.05-14.02,32.6-13.683,17.851,0.26471,30.553,10.114,31.978,14.49,0,0-0.90736,7.0067,3.5258,4.8443,5.56-2.714-12.08-22.18-35.46-22.295-23.355-0.115-39.647,16.265-38.191,20.266z"/><path id="path243" fill="#8e8682" d="m200.34,158.94c0,6.6195-5.7802,11.985-12.909,11.985h-160.02c-7.1263,0-12.911-5.3657-12.911-11.985v-89.606c0-6.6168,5.7849-11.986,12.911-11.986h160.02c7.1291,0,12.909,5.3684,12.909,11.986v89.602z"/><path id="path252" fill="url(#linearGradient4246)" d="m197.78,157.37c0,6.3843-5.6225,11.562-12.559,11.562h-155.6c-6.9387,0-12.562-5.1779-12.562-11.562v-86.471c0-6.3852,5.6234-11.567,12.562-11.567h155.6c6.9368,0,12.559,5.1806,12.559,11.567v86.474z"/><path id="path254" fill="#c1c1c1" d="m194.86,154.51c0,6.0802-5.4348,11.018-12.15,11.018h-150.58c-6.7081,0-12.15-4.9382-12.15-11.018v-82.387c0-6.0847,5.4423-11.019,12.15-11.019h150.57c6.7147,0,12.15,4.9347,12.15,11.019v82.384z"/><path id="path256" opacity="0.43999999" fill="#8e8682" d="M182.71,61.104h-31.78c-2.456,28.675,1.5011,49.88-20.227,78.696-13.936,22.931-42.14,20.377-59.963,25.727h111.97c6.7147,0,12.15-4.9382,12.15-11.018v-82.387c0-6.0847-5.4358-11.019-12.15-11.019z"/><path id="path258" fill="#5b5b5b" d="m199.1,98.22c4.2577-1.4926,4.1186-4.3856,4.1186-6.9414v-48.244c0-2.5568-3.215-4.6297-7.1693-4.6297h-177.25c-3.9655-0.000895-7.1749,3.012-7.1749,5.5696v49.562c0,2.5577,0.78974,4.5474,5.3014,5.8173,0,0,32.221,5.4659,92.567,5.4659,60.354,0.00089,89.614-6.5998,89.614-6.5998z"/><path id="path260" fill="#d8d8d8" d="m196.17,96.434c4.1149-1.3915,3.9879-4.0896,3.9879-6.4764v-45.005c0-2.3851-3.1142-4.3203-6.9443-4.3203h-171.59c-3.8339,0-6.9452,2.8098-6.9452,5.1967v46.235c0,2.3877,0.7636,4.2416,5.1324,5.4247,0,0,31.187,5.1037,89.608,5.1037,58.42,0,86.74-6.159,86.74-6.159z"/><path id="path262" opacity="0.6" fill="#5b5b5b" d="M191.71,42.329h-39.178c-1.7681,19.434-2.471,39.157-7.7658,57.241,33.479-1.582,49.852-4.9678,49.852-4.9678,4.0458-1.3074,3.916-3.8329,3.916-6.0686v-42.156c0.00093-2.2366-3.0535-4.0484-6.8211-4.0484z"/><path id="path264" fill="#f0f0f0" d="M191.96,42.329h-166.86c-3.7284,0-6.7464,1.6839-6.7464,2.4477v2.9324c0-0.76372,3.018-1.3844,6.7464-1.3844h166.85c3.7265,0,6.752,0.62064,6.752,1.3844v-2.9395c-0.099-1.4344-3.0255-2.4405-6.752-2.4405z"/><path id="path271" opacity="0.70999995" fill="url(#radialGradient4244)" d="M18.086,83.523v-36.891h120.84s-102.49-0.99445-120.84,36.891z"/><path id="path273" opacity="0.70999995" fill="#a2a2a2" d="M18.086,83.523v-36.891h120.84s-102.49-0.99445-120.84,36.891z"/><path id="path275" fill="#4f4f4f" d="m120.13,121.35c0,3.0701-2.2693,5.5589-5.067,5.5589h-13.298c-2.7986,0-5.067-2.4888-5.067-5.5589v-25.249c0-3.0701,2.2684-5.5589,5.067-5.5589h13.298c2.7977,0,5.067,2.4888,5.067,5.5589v25.248z"/><path id="path277" fill="#bcbcbc" d="m118.51,119.7c0,2.6372-1.9491,4.7755-4.352,4.7755h-11.423c-2.4038,0-4.352-2.1382-4.352-4.7755v-21.689c0-2.6364,1.9482-4.7746,4.352-4.7746h11.423c2.4028,0,4.352,2.1382,4.352,4.7746v21.689z"/><rect id="rect279" height="4.4106" width="23.43" y="113.26" x="96.702" fill="#4f4f4f"/></g>
<path id="path48" style="color:#000000;enable-background:accumulate;" fill-rule="nonzero" fill="#a09989" d="m197.13,197.72c-3.0046,2.7113-4.2016,5.538-4.2016,5.538s-8.3787-2.8382-41.893-35.997c-33.6-33.23-68.405-74.996-68.405-74.996-1.356-1.731-3.713-4.05-4.971-2.908l-0.20397,0.18229c-1.2702,1.1434-3.0901,0.93799-4.0306-0.45458l-4.0183-5.8841,12.58-11.307,6.0336,4.0612c1.429,0.95876,1.5634,2.6882,0.28947,3.8304l-0.32122,0.2919c-1.2702,1.1434,1.0406,3.5074,2.8092,4.8688,0,0,42.504,34.843,76.092,68.071s36.153,41.189,36.153,41.189-2.858,0.82492-5.8626,3.5304z"/><path id="path3733" style="direction:ltr;enable-background:accumulate;block-progression:tb;text-indent:0;color:#000000;text-transform:none;text-align:start;" fill-rule="nonzero" fill="#8c531b" d="m81.94,71.138-0.34375,0.3125-12.594,11.312-0.375,0.34375,0.28125,0.4375,4.0312,5.875c1.125,1.6659,3.399,1.9192,4.9062,0.5625l0.219-0.188c0.17146-0.15568,0.3052-0.18272,0.59375-0.125s0.70804,0.26512,1.125,0.5625c0.83393,0.59475,1.7209,1.5712,2.375,2.4062h0.0312s34.818,41.804,68.438,75.062c16.769,16.591,27.25,25.592,33.562,30.469,3.1563,2.4382,5.2584,3.8252,6.5938,4.625,1.3353,0.79984,1.9375,1.0312,1.9375,1.0312l0.53125,0.1875,0.21875-0.53125s1.1514-2.5254,3.8438-5.0625l0.0312-0.0312,0.25-0.21875c2.9096-2.62,5.625-3.375,5.625-3.375l0.59375-0.1875-0.1875-0.59375s-0.21799-0.5818-1-1.875-2.1624-3.3511-4.5938-6.4375c-4.8626-6.1728-13.913-16.468-30.719-33.094-33.619-33.258-76.125-68.125-76.125-68.125h-0.03125c-0.839-0.653-1.815-1.586-2.394-2.404-0.289-0.409-0.458-0.772-0.5-1.031-0.04213-0.25907-0.01847-0.37398,0.15625-0.53125l0.3125-0.28125c0.75615-0.67798,1.1302-1.5811,1.0625-2.4688-0.06767-0.88767-0.59235-1.7455-1.4375-2.3125l-6.0312-4.0625-0.375-0.25zm0.125,1.5,5.625,3.8125c0.58386,0.39173,0.86796,0.90395,0.90625,1.4062,0.03829,0.5023-0.16975,1.0358-0.6875,1.5l-0.3125,0.28125c-0.4604,0.41441-0.62042,1.0455-0.53125,1.5938s0.36822,1.0361,0.71875,1.5312c0.70106,0.99035,1.7392,1.9503,2.6562,2.6562,0,0,42.474,34.834,76.031,68.031,16.782,16.602,25.808,26.885,30.625,33,2.4084,3.0573,3.7827,5.0747,4.5312,6.3125,0.53136,0.8787,0.51402,0.96548,0.59375,1.1562-0.75853,0.266-2.6951,1.0718-5.125,3.1562l-0.0937-0.0312-0.28125,0.21875c-2.6175,2.362-3.6904,4.476-4.0312,5.1875-0.1875-0.078-0.33076-0.0869-1.2812-0.65625-1.283-0.76853-3.3722-2.1463-6.5-4.5625-6.2555-4.8324-16.723-13.838-33.469-30.406-33.557-33.197-68.344-74.938-68.344-74.938-0.70161-0.89561-1.6269-1.9131-2.625-2.625-0.49907-0.35593-1.0129-0.64006-1.5625-0.75-0.53984-0.10798-1.1697,0.0089-1.625,0.40625-0.008,0.0072-0.0231-0.0074-0.0312,0l-0.1875,0.1875c-1.0332,0.93002-2.3691,0.77553-3.125-0.34375h-0.0312l5.28-23.77,11.874-10.656z"/><path id="path46" fill="#663700" d="m195.91,196.56c4.5313-4.0843,11.701-3.9227,16,0.35996,4.3237,4.2689,4.1405,11.041-0.3774,15.114-4.5313,4.0843-11.701,3.9112-16-0.3542-4.3115-4.2804-4.1527-11.053,0.37862-15.114z"/><path id="path50" fill="url(#linearGradient3699)" d="m195.62,196.57c-1.5634,1.4537-2.6626,2.8959-3.371,4.015-1.2336-0.75109-3.2122-2.0767-6.1558-4.3496-6.1802-4.788-16.611-13.73-33.344-30.343-25.038-24.806-47.268-50.995-60.947-66.571-4.3359-4.938-6.9741-7.9954-7.2184-8.2954-0.14534-0.18114-0.29558-0.35074-0.4568-0.50996-1.076-1.0695-2.9802-3.2766-4.1283-3.2997-1.1432-0.02423-2.2962,0.39689-3.1878,1.1999l-0.20397,0.18345c-0.28214,0.24921-0.52031,0.3092-0.72794,0.3092-0.20519-0.0058-0.40428-0.07176-0.62168-0.28267-0.0575-0.05746-0.11322-0.11884-0.16366-0.20075l-3.278-4.808,5.13-4.626,118.71,117.68z"/><path id="path52" fill="#a06127" d="m204.52,195.47c1.4236,1.3839,0.48148,4.9216-2.0977,7.9043s-5.8306,4.2958-7.2514,2.9137c-1.4188-1.3724-0.90357-5.3278,1.679-8.3113,2.5825-2.9835,6.2493-3.8887,7.6812-2.5105z"/><path id="path54" opacity="0.98000004" fill="url(#linearGradient3695)" d="m197.91,195.41c1.771-1.3268,1.8809-1.4768,3.1023-2.0883-0.72672-1.1999-2.8458-3.2766-5.0932-6.1841-4.7145-6.1033-13.802-16.383-30.29-33.112-24.794-25.036-51.176-47.419-66.932-61.264-4.9832-4.3612-8.0611-7.0148-8.3542-7.2801-0.18321-0.14653-0.35543-0.29767-0.51421-0.46034-1.0712-1.0741-3.2977-2.9997-3.2489-4.0727,0.0366-1.0811,0.54718-2.146,1.4412-2.9305l0.20397-0.18114c0.2797-0.25036,0.35786-0.47419,0.36763-0.66917,0.005-0.19268-0.0539-0.38535-0.26381-0.60341-0.0574-0.0563-0.11982-0.11318-0.20275-0.16614l-4.903-3.376-4.824,4.062,119.57,118.83z"/><path id="path60" fill="#a09989" d="m11.235,78.654c-3.0779-3.046-2.6993-8.134,0.8513-11.33,3.505-3.161,8.867-3.3,11.957-0.323l0.11334,0.10349c0.47145,0.46842,1.4168,0.37612,2.0519-0.20075,0.64-0.57687,0.78291-1.4306,0.31756-1.9152l-0.18687-0.1846c-2.1985-2.1806-1.942-5.7918,0.56428-8.0531,2.0886-1.8806,5.0932-2.2498,7.3161-1.0591l21.253-19.152c-1.1505-2.146-0.62779-4.9611,1.4657-6.8532,2.516-2.2613,6.339-2.3306,8.5497-0.15114l0.20886,0.20883c0.46046,0.43612,1.3679,0.34266,2.0153-0.23421,0.63756-0.57803,0.78168-1.4537,0.30779-1.9268l-0.0943-0.09334c-3.018-3.07-2.615-8.123,0.9-11.284,3.542-3.196,8.928-3.3114,12.018-0.264l31.145,32.305c1.5145,1.4999,2.2473,3.5305,2.0641,5.6995-0.18687,2.0998-1.2177,4.0958-2.9069,5.6187-3.5054,3.1613-8.8672,3.3112-11.957,0.3242l-0.10003-0.09022c-0.48-0.47996-1.4168-0.38304-2.0641,0.19037-0.64,0.57918-0.78291,1.4306-0.31634,1.9152l0.18687,0.18691c2.1985,2.1806,1.942,5.7918-0.5655,8.0531-2.0886,1.8921-5.0932,2.2498-7.3161,1.058l-21.858,18.46c1.1542,2.1575,0.62779,4.9726-1.4657,6.8532-2.516,2.2613-6.339,2.3306-8.5497,0.14999l-0.20886-0.20767c-0.46168-0.43727-1.3802-0.34382-2.0153,0.23075-0.64,0.57918-0.78291,1.4653-0.31145,1.9268l0.0919,0.09368c3.0168,3.069,2.6138,8.1224-0.8965,11.284-3.542,3.1959-8.9405,3.3228-12.018,0.26882l-30.543-31.61z"/><path id="path62" fill="#663700" d="m93.8,68.27c-1.1786,0.82608-3.5176,0.08792-4.4458-0.82723l-30.656-29.998c-0.927-0.918-1.503-3.138-0.579-4.211l36.153,35.766z"/><path id="path64" fill="#663700" d="m96.243,65.962c0.89527-1.0834,0.29924-3.0228-0.62779-3.9458l-30.168-29.997c-0.92581-0.87685-2.4183-2.8382-4.8-1.6037l36.153,35.766z"/><path id="path66" opacity="0.75" fill="#a06127" d="m107.23,59.04c-1.2458,0.86992-3.6886,0.57226-4.6779-0.39804l-33.585-33.459c-0.97588-0.9703-1.1811-2.9767-0.20397-4.1073l38.351,37.958z"/><path id="path68" fill="url(#linearGradient3686)" d="m112.12,54.425c0.97345-1.1307,0.84031-4.4881-0.13557-5.4457l-32.852-32.189c-0.97588-0.96914-4.91-1.696-6.2901-0.46842l39.329,38.074z"/><path id="path70" fill="#663700" d="m63.51,95.96c-1.1786,0.82147-3.2977-0.01154-4.226-0.92992l-31.023-30.69c-0.92703-0.91723-1.5145-3.3343-0.61802-4.4419l35.909,36.112z"/><path id="path72" fill="#663700" d="m66.075,93.652c0.92581-1.0764,0.38962-3.3689-0.53741-4.2919l-31.024-30.689c-0.92459-0.91954-3.1145-1.8229-4.2871-0.99684l35.787,36.92z"/><path id="path74" fill="url(#linearGradient3681)" d="m49.83,110.03c-1.2458,0.86877-3.9329,0.10338-4.91-0.863l-32.366-31.96c-0.9771-0.972-1.8199-3.958-0.8379-5.088l38.107,37.958z"/><path id="path76" opacity="0.75" fill="#a06127" d="m55.204,105.19c0.65222-1.5576,0.43726-3.4382-0.3029-4.5342l-33.099-32.309c-0.99543-0.9853-3.4687-1.2807-4.9955-0.82954l38.351,38.074z"/><rect id="rect78" transform="matrix(-0.71057976,-0.70361666,-0.7428728,0.66943259,0,0)" height="24.863" width="43.543" y="-10.383" x="-110.15" fill="url(#linearGradient3677)"/><path id="path3727" style="direction:ltr;enable-background:accumulate;block-progression:tb;text-indent:0;color:#000000;text-transform:none;text-align:start;" fill-rule="nonzero" fill="#8c531b" d="m75.002,13.138c-2.3215,0.0494-4.6825,0.92869-6.5625,2.625-3.7333,3.3575-4.2025,8.8348-0.9375,12.156l0.0937,0.09375c0.0853,0.08511,0.12614,0.20542,0.0937,0.40625-0.0324,0.20083-0.15072,0.45291-0.375,0.65625-0.23223,0.20695-0.51715,0.31765-0.75,0.34375-0.21792,0.02443-0.35957-0.03063-0.4375-0.09375h-0.0312l-0.1875-0.21875c-2.4601-2.4253-6.64-2.3331-9.375,0.125-2.1345,1.9292-2.7401,4.7934-1.75,7.125l-20.721,18.657c-2.406-1.064-5.418-0.65-7.562,1.281-2.7258,2.4594-3.0425,6.5087-0.59375,8.9375l0.1875,0.15625c0.0903,0.09402,0.12631,0.24167,0.0937,0.4375-0.0326,0.19583-0.14732,0.41978-0.375,0.625-0.22022,0.20003-0.51,0.32028-0.75,0.34375s-0.41962-0.04513-0.5-0.125l-0.0937-0.09375c-0.007-0.0063-0.0247,0.0063-0.0312,0-3.3478-3.2028-9.0336-3.039-12.75,0.3125-3.7689,3.3924-4.2064,8.8907-0.875,12.188l30.531,31.594v0.0312c3.3314,3.3055,9.0837,3.1426,12.844-0.25,3.7283-3.3576,4.2025-8.8348,0.9375-12.156l-0.095-0.098c-0.078-0.076-0.126-0.203-0.093-0.406,0.0328-0.20298,0.15085-0.45341,0.375-0.65625,0.22339-0.20209,0.51544-0.31783,0.75-0.34375s0.36548,0.02554,0.4375,0.09375l0.21875,0.1875c2.46,2.4265,6.64,2.3331,9.375-0.125,2.1358-1.9187,2.7421-4.7533,1.75-7.0938l21.312-17.969c2.4053,1.0651,5.4178,0.63052,7.5625-1.3125,2.7271-2.4594,3.0425-6.4774,0.59375-8.9062l-0.187-0.188c-0.09107-0.09459-0.12616-0.21098-0.09375-0.40625,0.03061-0.18439,0.17018-0.42582,0.375-0.625,0.01209-0.01176,0.01851-0.01972,0.03125-0.03125,0.22326-0.18532,0.52206-0.29068,0.75-0.3125,0.23949-0.02293,0.38018,0.03644,0.46875,0.125h0.03125l0.09375,0.09375c3.3452,3.2337,9.0269,3.0451,12.75-0.3125,1.7921-1.6157,2.9239-3.7405,3.125-6v-0.03125c0.19707-2.3331-0.61256-4.5346-2.25-6.1562l-31.125-32.312h-0.0312c-1.665-1.6501-3.923-2.4267-6.244-2.3772zm0,1.1875c2.0206-0.04529,3.9888,0.64479,5.4062,2.0312l31.154,32.313c1.3916,1.3781,2.0756,3.2138,1.9062,5.2188-0.17266,1.9401-1.1325,3.7886-2.7188,5.2188-3.2876,2.9649-8.3213,3.0842-11.156,0.34375l-0.094-0.063c-0.0077-0.0077-0.02344,0.0075-0.03125,0-0.38962-0.37364-0.90554-0.51668-1.4062-0.46875-0.51074,0.04889-1.0194,0.25464-1.4375,0.625-0.41148,0.37237-0.6676,0.84735-0.75,1.3438-0.0824,0.4964,0.03075,1.0475,0.40625,1.4375l0.1875,0.1875c1.9482,1.9323,1.7567,5.1242-0.53125,7.1875-1.9053,1.7261-4.6745,2.0313-6.6562,0.96875l-0.345-0.189-0.313,0.25-21.875,18.468-0.34375,0.3125,0.21875,0.4375c1.0168,1.9006,0.56649,4.409-1.3438,6.125-2.2971,2.0645-5.7574,2.0909-7.7188,0.15625l-0.21875-0.1875v-0.03125c-0.38966-0.36906-0.93862-0.46138-1.4375-0.40625s-0.99452,0.25252-1.4062,0.625c-0.41586,0.37634-0.6692,0.87477-0.75,1.375s0.0438,1.0521,0.4375,1.4375l0.062,0.094c2.7687,2.8165,2.4484,7.4414-0.84375,10.406-3.3117,2.9881-8.3572,3.0834-11.188,0.3125l-0.03-0.03-30.532-31.592c-2.8243-2.796-2.5197-7.47,0.8126-10.469,3.2872-2.965,8.3212-3.075,11.156-0.344v0.03125l0.0937,0.0625,0.031,0.032v-0.031c0.3892,0.37104,0.93802,0.51759,1.4375,0.46875,0.50932-0.0498,0.99136-0.24816,1.4062-0.625,0.41233-0.37165,0.6987-0.84733,0.78125-1.3438,0.0825-0.49642-0.0312-1.0469-0.40625-1.4375h-0.0312l-0.188-0.188c-1.9482-1.9323-1.7243-5.1242,0.5625-7.1875,1.906-1.7162,4.6446-2.0295,6.625-0.96875l0.375,0.188,0.313-0.281,21.25-19.156,0.344-0.313-0.219-0.406c-1.0123-1.8881-0.56796-4.3971,1.3438-6.125,2.2971-2.0645,5.7574-2.1211,7.7188-0.1875l0.21875,0.21875c0.38775,0.36725,0.90841,0.49331,1.4062,0.4375,0.49784-0.05581,0.99114-0.28633,1.4062-0.65625h0.0312c0.41328-0.37469,0.66941-0.84397,0.75-1.3438,0.0806-0.49978-0.0489-1.0496-0.4375-1.4375l-0.0937-0.09375c-2.7687-2.8165-2.4219-7.4725,0.875-10.438,1.662-1.4996,3.7515-2.267,5.7812-2.3125z"/><path id="path3739" style="direction:ltr;enable-background:accumulate;block-progression:tb;text-indent:0;color:#000000;text-transform:none;text-align:start;" fill-rule="nonzero" fill="#8c531b" d="m204,193.01c-3.0428-0.0686-6.1152,0.97548-8.5,3.125l-0.25,0.21875,0.0312,0.0937c-4.4832,4.3044-4.6325,11.243-0.1875,15.656,4.529,4.4933,12.074,4.6744,16.844,0.375,4.7562-4.2876,4.9292-11.472,0.375-15.969-2.2644-2.2557-5.2697-3.4314-8.3125-3.5zm-0.0312,1.1875c2.7496,0.0618,5.4964,1.1293,7.5312,3.1562,4.0932,4.0413,3.9045,10.392-0.375,14.25-4.2926,3.8691-11.118,3.6938-15.188-0.34375-4.083-4.0535-3.916-10.404,0.375-14.25,2.1465-1.9347,4.9067-2.8743,7.6562-2.8125z"/></svg>