<?xml version="1.0" encoding="UTF-8" standalone="no"?>
<!-- Created with Inkscape (http://www.inkscape.org/) -->
<svg xmlns:rdf="http://www.w3.org/1999/02/22-rdf-syntax-ns#" xmlns="http://www.w3.org/2000/svg" xml:space="preserve" height="219" width="219" version="1.1" xmlns:cc="http://creativecommons.org/ns#" xmlns:dc="http://purl.org/dc/elements/1.1/" viewBox="21.152 45.375 219 219"><metadata><rdf:RDF><cc:Work rdf:about=""><dc:format>image/svg+xml</dc:format><dc:type rdf:resource="http://purl.org/dc/dcmitype/StillImage"/><dc:title/></cc:Work></rdf:RDF></metadata>
<defs><filter id="filter4023" color-interpolation-filters="sRGB"><feGaussianBlur stdDeviation="1.8335271"/></filter></defs>
<filter color-interpolation-filters="sRGB">
	<feGaussianBlur stdDeviation="2.2"/>
</filter>
<filter color-interpolation-filters="sRGB">
	<feGaussianBlur stdDeviation="2"/>
</filter>
<path d="m47.5,84.3-0.518,142s-0.346,11.1,5.53,11.1l164-0.222s3.97-0.223,4.49-3.99v-151s0.439-4.27-4.14-3.99l-165,0.444s-4.15-0.664-4.49,5.76z" fill-opacity="0.50196078" transform="matrix(1.1702973,0,0,1.1702973,-23.412747,-27.429572)" filter="url(#filter4023)" fill="#000"/><rect style="color:#000000;enable-background:accumulate;" fill-rule="nonzero" rx="4.52" ry="4.52" height="189" width="203" stroke="#000" y="56" x="26.1" stroke-width="1.01" fill="#e3dbdb"/>
<polygon transform="matrix(1.1702973,0,0,1.1702973,-23.412747,-27.429572)" stroke="#000" points="209,77.7,48.5,77.8,48.5,110,209,110" stroke-width="1.5" fill="none"/>
<line stroke-width="1.17" x1="221" y1="105" stroke="#383838" x2="33.1" y2="106" fill="none"/>
<rect height="4.66" width="25.5" stroke="#5b5b5b" y="111" x="33.3" stroke-width="1.17" fill="#5b5b5b"/>
<rect height="9.69" width="123" stroke="#383838" y="110" x="65.8" stroke-width="1.17" fill="#383838"/>
<rect height="4.66" width="25.5" stroke="#5b5b5b" y="183" x="33.1" stroke-width="1.17" fill="#5b5b5b"/>
<rect height="4.66" width="25.3" stroke="#5b5b5b" y="143" x="196" stroke-width="1.17" fill="#5b5b5b"/>
<rect height="4.66" width="25.4" stroke="#5b5b5b" y="186" x="196" stroke-width="1.17" fill="#5b5b5b"/>
<rect height="62.5" width="123" stroke="#686868" y="137" x="65.9" stroke-width="1.17" fill="#686868"/>
<line stroke-width="1.17" x1="33.1" y1="125" stroke="#909090" x2="58.5" y2="125" fill="none"/>
<line stroke-width="1.17" x1="33.1" y1="120" stroke="#909090" x2="58.5" y2="120" fill="none"/>
<line stroke-width="1.17" x1="33.1" y1="135" stroke="#909090" x2="58.5" y2="135" fill="none"/>
<line stroke-width="1.17" x1="33.1" y1="129" stroke="#909090" x2="58.5" y2="129" fill="none"/>
<line stroke-width="1.17" x1="33.1" y1="145" stroke="#909090" x2="58.5" y2="145" fill="none"/>
<line stroke-width="1.17" x1="33.1" y1="140" stroke="#909090" x2="58.5" y2="140" fill="none"/>
<rect height="30.9" width="25.9" stroke="#909090" y="149" x="32.9" stroke-width="1.17" fill="#909090"/>
<line stroke-width="1.17" x1="33.2" y1="196" stroke="#909090" x2="58.6" y2="196" fill="none"/>
<line stroke-width="1.17" x1="33.2" y1="191" stroke="#909090" x2="58.6" y2="191" fill="none"/>
<line stroke-width="1.17" x1="33.2" y1="206" stroke="#909090" x2="58.6" y2="206" fill="none"/>
<line stroke-width="1.17" x1="33.2" y1="200" stroke="#909090" x2="58.6" y2="200" fill="none"/>
<line stroke-width="1.17" x1="33.2" y1="216" stroke="#909090" x2="58.6" y2="216" fill="none"/>
<line stroke-width="1.17" x1="33.2" y1="211" stroke="#909090" x2="58.6" y2="211" fill="none"/>
<line stroke-width="1.17" x1="33.2" y1="225" stroke="#909090" x2="58.6" y2="225" fill="none"/>
<line stroke-width="1.17" x1="33.2" y1="220" stroke="#909090" x2="58.6" y2="220" fill="none"/>
<line stroke-width="1.17" x1="33.2" y1="235" stroke="#909090" x2="58.6" y2="235" fill="none"/>
<line stroke-width="1.17" x1="33.2" y1="230" stroke="#909090" x2="58.6" y2="230" fill="none"/>
<line stroke-width="1.17" x1="33.2" y1="240" stroke="#909090" x2="58.6" y2="240" fill="none"/>
<line stroke-width="1.17" x1="65.6" y1="220" stroke="#909090" x2="90.9" y2="220" fill="none"/>
<line stroke-width="1.17" x1="65.5" y1="215" stroke="#909090" x2="90.9" y2="215" fill="none"/>
<line stroke-width="1.17" x1="65.6" y1="230" stroke="#909090" x2="90.9" y2="230" fill="none"/>
<line stroke-width="1.17" x1="65.5" y1="225" stroke="#909090" x2="90.9" y2="225" fill="none"/>
<line stroke-width="1.17" x1="65.6" y1="240" stroke="#909090" x2="90.9" y2="240" fill="none"/>
<line stroke-width="1.17" x1="65.5" y1="235" stroke="#909090" x2="90.9" y2="235" fill="none"/>
<line stroke-width="1.17" x1="98" y1="220" stroke="#909090" x2="123" y2="220" fill="none"/>
<line stroke-width="1.17" x1="98" y1="215" stroke="#909090" x2="123" y2="215" fill="none"/>
<line stroke-width="1.17" x1="98" y1="230" stroke="#909090" x2="123" y2="230" fill="none"/>
<line stroke-width="1.17" x1="98" y1="225" stroke="#909090" x2="123" y2="225" fill="none"/>
<line stroke-width="1.17" x1="98" y1="240" stroke="#909090" x2="123" y2="240" fill="none"/>
<line stroke-width="1.17" x1="98" y1="235" stroke="#909090" x2="123" y2="235" fill="none"/>
<line stroke-width="1.17" x1="65.6" y1="208" stroke="#383838" x2="132" y2="208" fill="none"/>
<line stroke-width="1.17" x1="65.4" y1="204" stroke="#383838" x2="189" y2="204" fill="none"/>
<line stroke-width="1.17" x1="196" y1="156" stroke="#909090" x2="221" y2="156" fill="none"/>
<line stroke-width="1.17" x1="196" y1="151" stroke="#909090" x2="221" y2="151" fill="none"/>
<line stroke-width="1.17" x1="196" y1="166" stroke="#909090" x2="221" y2="166" fill="none"/>
<line stroke-width="1.17" x1="196" y1="161" stroke="#909090" x2="221" y2="161" fill="none"/>
<line stroke-width="1.17" x1="196" y1="176" stroke="#909090" x2="221" y2="176" fill="none"/>
<line stroke-width="1.17" x1="196" y1="171" stroke="#909090" x2="221" y2="171" fill="none"/>
<line stroke-width="1.17" x1="196" y1="182" stroke="#909090" x2="222" y2="182" fill="none"/>
<line stroke-width="1.17" x1="196" y1="200" stroke="#909090" x2="222" y2="200" fill="none"/>
<line stroke-width="1.17" x1="196" y1="195" stroke="#909090" x2="222" y2="195" fill="none"/>
<line stroke-width="1.17" x1="196" y1="210" stroke="#909090" x2="222" y2="210" fill="none"/>
<line stroke-width="1.17" x1="196" y1="204" stroke="#909090" x2="222" y2="204" fill="none"/>
<line stroke-width="1.17" x1="196" y1="215" stroke="#909090" x2="222" y2="215" fill="none"/>
<line stroke-width="1.17" x1="196" y1="225" stroke="#909090" x2="222" y2="225" fill="none"/>
<line stroke-width="1.17" x1="196" y1="220" stroke="#909090" x2="222" y2="220" fill="none"/>
<line stroke-width="1.17" x1="196" y1="235" stroke="#909090" x2="222" y2="235" fill="none"/>
<line stroke-width="1.17" x1="196" y1="230" stroke="#909090" x2="222" y2="230" fill="none"/>
<line stroke-width="1.17" x1="196" y1="240" stroke="#909090" x2="222" y2="240" fill="none"/>
<rect height="28.9" width="25.3" stroke="#909090" y="110" x="196" stroke-width="1.17" fill="#909090"/>
<line stroke-width="1.17" x1="131" y1="220" stroke="#909090" x2="156" y2="220" fill="none"/>
<line stroke-width="1.17" x1="131" y1="215" stroke="#909090" x2="156" y2="215" fill="none"/>
<line stroke-width="1.17" x1="131" y1="230" stroke="#909090" x2="156" y2="230" fill="none"/>
<line stroke-width="1.17" x1="131" y1="225" stroke="#909090" x2="156" y2="225" fill="none"/>
<line stroke-width="1.17" x1="131" y1="240" stroke="#909090" x2="156" y2="240" fill="none"/>
<line stroke-width="1.17" x1="131" y1="235" stroke="#909090" x2="156" y2="235" fill="none"/>
<line stroke-width="1.17" x1="164" y1="220" stroke="#909090" x2="189" y2="220" fill="none"/>
<line stroke-width="1.17" x1="163" y1="215" stroke="#909090" x2="189" y2="215" fill="none"/>
<line stroke-width="1.17" x1="164" y1="230" stroke="#909090" x2="189" y2="230" fill="none"/>
<line stroke-width="1.17" x1="163" y1="225" stroke="#909090" x2="189" y2="225" fill="none"/>
<line stroke-width="1.17" x1="164" y1="240" stroke="#909090" x2="189" y2="240" fill="none"/>
<line stroke-width="1.17" x1="163" y1="235" stroke="#909090" x2="189" y2="235" fill="none"/>
<rect height="9.69" width="92" stroke="#383838" y="124" x="65.8" stroke-width="1.17" fill="#383838"/>
<line stroke-width="1.17" x1="62.4" y1="110" stroke="#898989" x2="62.1" y2="241" fill="none"/>
<line stroke-width="1.17" x1="193" y1="110" stroke="#898989" x2="192" y2="241" fill="none"/>
<g transform="scale(1.2060361,0.82916257)" fill="#000"><path d="m41,115,0-35.2,4.77,0,18.5,27.6,0-27.6,4.46,0,0,35.2-4.77,0-18.5-27.6,0,27.6z"/><path d="m75.9,115,0-28.3,20.5,0,0,3.34-16.7,0,0,8.66,15.6,0,0,3.32-15.6,0,0,9.63,17.4,0,0,3.34z"/><path d="m107,115-7.51-28.3,3.84,0,4.3,18.5c0.463,1.94,0.862,3.87,1.2,5.79,0.72-3.02,1.14-4.77,1.27-5.23l5.38-19.1h4.52l4.05,14.3c1.02,3.55,1.75,6.89,2.2,10,0.36-1.79,0.83-3.84,1.41-6.16l4.44-18.2h3.76l-7.76,28.3h-3.61l-5.96-21.6c-0.502-1.8-0.798-2.91-0.888-3.32-0.296,1.3-0.572,2.41-0.83,3.32l-6,21.6z"/><path d="m138,106,3.53-0.309c0.167,1.42,0.556,2.58,1.17,3.48,0.611,0.907,1.56,1.64,2.85,2.2s2.73,0.839,4.34,0.839c1.43,0,2.69-0.212,3.78-0.637s1.91-1.01,2.44-1.75c0.534-0.74,0.801-1.55,0.801-2.42-0.00002-0.888-0.257-1.66-0.772-2.33-0.515-0.663-1.36-1.22-2.55-1.67-0.759-0.296-2.44-0.756-5.04-1.38s-4.42-1.21-5.46-1.77c-1.35-0.708-2.36-1.59-3.02-2.63-0.663-1.05-0.994-2.22-0.994-3.52,0-1.43,0.405-2.76,1.22-4,0.81-1.24,1.99-2.18,3.55-2.83,1.56-0.643,3.29-0.965,5.19-0.965,2.1,0.000029,3.95,0.338,5.55,1.01,1.6,0.675,2.83,1.67,3.7,2.98,0.862,1.31,1.33,2.8,1.39,4.46l-3.59,0.27c-0.193-1.79-0.846-3.14-1.96-4.05-1.11-0.913-2.76-1.37-4.93-1.37-2.26,0.000025-3.91,0.415-4.95,1.24-1.04,0.83-1.55,1.83-1.55,3-0.00001,1.02,0.367,1.85,1.1,2.51,0.72,0.656,2.6,1.33,5.64,2.02,3.04,0.688,5.13,1.29,6.26,1.8,1.65,0.759,2.86,1.72,3.65,2.88,0.785,1.16,1.18,2.51,1.18,4.02-0.00002,1.51-0.431,2.92-1.29,4.25-0.862,1.33-2.1,2.37-3.71,3.11s-3.43,1.11-5.45,1.11c-2.56,0-4.71-0.373-6.44-1.12-1.73-0.746-3.09-1.87-4.07-3.37-0.984-1.5-1.5-3.19-1.55-5.08z"/><path d="m168,107-1.32-18.6,0-7.8,5.35,0,0,7.8-1.25,18.6zm-1.13,8.73,0-4.92,4.97,0,0,4.92z"/></g>
</svg>
