<?xml version="1.0" encoding="UTF-8" standalone="no"?><!-- Generator: Adobe Illustrator 13.0.2, SVG Export Plug-In  --><svg xmlns:rdf="http://www.w3.org/1999/02/22-rdf-syntax-ns#" xmlns="http://www.w3.org/2000/svg" enable-background="new -0.837 -0.84 251 180" xml:space="preserve" height="219" width="219" version="1.1" y="0px" x="0px" xmlns:cc="http://creativecommons.org/ns#" xmlns:xlink="http://www.w3.org/1999/xlink" viewBox="-0.837 -0.84 219 219" xmlns:dc="http://purl.org/dc/elements/1.1/">	<metadata>		<rdf:RDF>			<cc:Work rdf:about="">				<dc:format>image/svg+xml</dc:format>				<dc:type rdf:resource="http://purl.org/dc/dcmitype/StillImage"/>				<dc:title/>			</cc:Work>		</rdf:RDF>	</metadata>	<defs>		<filter id="filter4209" color-interpolation-filters="sRGB">			<feGaussianBlur stdDeviation="0.55583092"/>		</filter>		<filter id="filter4209-0" color-interpolation-filters="sRGB">			<feGaussianBlur stdDeviation="0.55583092"/>		</filter>		<filter id="filter4255" color-interpolation-filters="sRGB">			<feGaussianBlur stdDeviation="0.47541134"/>		</filter>		<filter id="filter4255-4" color-interpolation-filters="sRGB">			<feGaussianBlur stdDeviation="0.47541134"/>		</filter>		<filter id="filter4255-45" color-interpolation-filters="sRGB">			<feGaussianBlur stdDeviation="0.47541134"/>		</filter>		<linearGradient id="linearGradient3913-4" y2="10.94" gradientUnits="userSpaceOnUse" x2="131.2" gradientTransform="translate(-2.8277241,0.17738088)" y1="47.38" x1="210.7">			<stop stop-color="#d59f0f" offset="0"/>			<stop stop-color="#f7ca12" offset="1"/>		</linearGradient>		<filter id="filter4406-7" color-interpolation-filters="sRGB">			<feGaussianBlur stdDeviation="0.68619537"/>		</filter>	</defs>	<path d="m174.3,123.8c0.107,0.3702,0.1562,0.7516,0.1562,1.156v26.62c0,2.315-1.873,4.188-4.188,4.188h-57.66c-0.3668,0-0.7234-0.0677-1.062-0.1562,0.4955,1.763,2.11,3.062,4.031,3.062h57.66c2.315,0,4.219-1.872,4.219-4.188v-26.62c0-1.949-1.355-3.592-3.156-4.062z" fill-opacity="0.50196078" filter="url(#filter4209-0)" fill="#000"/>	<g fill-rule="nonzero" transform="translate(-3.24335,12.187345)" fill="#000">		<rect style="enable-background:accumulate;color:#000000;" transform="matrix(0.98460547,0.17479152,-0.17479152,0.98460547,0,0)" height="4.025" width="4.025" y="7.574" x="20.2"/>		<rect style="enable-background:accumulate;color:#000000;" transform="matrix(0.97778091,0.20962943,-0.20962943,0.97778091,0,0)" height="4.025" width="4.025" y="6.564" x="32.93"/>		<rect style="enable-background:accumulate;color:#000000;" transform="matrix(0.96860139,0.2486189,-0.2486189,0.96860139,0,0)" height="4.025" width="4.025" y="4.944" x="45.62"/>		<rect style="enable-background:accumulate;color:#000000;" transform="matrix(0.95922608,0.28263994,-0.28263994,0.95922608,0,0)" height="4.025" width="4.025" y="2.996" x="58.25"/>		<rect style="enable-background:accumulate;color:#000000;" transform="matrix(0.95242553,0.30477139,-0.30477139,0.95242553,0,0)" height="4.025" width="4.025" y="1.473" x="70.75"/>		<rect style="enable-background:accumulate;color:#000000;" transform="matrix(0.93891037,0.34416177,-0.34416177,0.93891037,0,0)" height="4.025" width="4.025" y="-1.816" x="83.22"/>		<rect style="enable-background:accumulate;color:#000000;" transform="matrix(0.93287545,0.36019911,-0.36019911,0.93287545,0,0)" height="4.025" width="4.025" y="-3.352" x="95.61"/>		<rect style="enable-background:accumulate;color:#000000;" transform="matrix(0.91981576,0.39235057,-0.39235057,0.91981576,0,0)" height="4.025" width="4.025" y="-6.884" x="107.9"/>		<rect style="enable-background:accumulate;color:#000000;" transform="matrix(0.90057541,0.43469982,-0.43469982,0.90057541,0,0)" height="4.025" width="4.025" y="-12.3" x="120"/>		<rect style="enable-background:accumulate;color:#000000;" transform="matrix(0.88670579,0.46233413,-0.46233413,0.88670579,0,0)" height="4.025" width="4.025" y="-16.36" x="132"/>		<rect style="enable-background:accumulate;color:#000000;" transform="matrix(0.87681862,0.48082128,-0.48082128,0.87681862,0,0)" height="4.025" width="4.025" y="-19.27" x="144.1"/>		<rect style="enable-background:accumulate;color:#000000;" transform="matrix(0.85246382,0.52278623,-0.52278623,0.85246382,0,0)" height="4.025" width="4.025" y="-26.57" x="155.4"/>		<rect style="enable-background:accumulate;color:#000000;" transform="matrix(0.83177494,0.55511301,-0.55511301,0.83177494,0,0)" height="4.025" width="4.025" y="-32.79" x="166.8"/>		<rect style="enable-background:accumulate;color:#000000;" transform="matrix(0.79651234,0.60462227,-0.60462227,0.79651234,0,0)" height="4.025" width="4.025" y="-43.33" x="177"/>		<rect style="enable-background:accumulate;color:#000000;" transform="matrix(0.76926813,0.63892609,-0.63892609,0.76926813,0,0)" height="4.025" width="4.025" y="-51.39" x="187.4"/>		<rect style="enable-background:accumulate;color:#000000;" transform="matrix(0.72608303,0.68760703,-0.68760703,0.72608303,0,0)" height="4.025" width="4.025" y="-63.91" x="196.2"/>		<rect style="enable-background:accumulate;color:#000000;" transform="matrix(0.67723218,0.73576937,-0.73576937,0.67723218,0,0)" height="4.025" width="4.025" y="-77.63" x="203.9"/>		<rect style="enable-background:accumulate;color:#000000;" transform="matrix(0.61087898,0.79172399,-0.79172399,0.61087898,0,0)" height="4.025" width="4.025" y="-95.58" x="209"/>	</g>	<path d="m206.2,175.7c0.0234,0.1654,0.0312,0.3281,0.0312,0.5v22.78c0,1.983-1.613,3.562-3.594,3.562h-49.31c-0.3832,0-0.7475-0.0764-1.094-0.1875,0.2326,1.757,1.744,3.125,3.562,3.125h49.31c1.981,0,3.594-1.611,3.594-3.594v-22.78c0-1.599-1.055-2.944-2.5-3.406z" fill-opacity="0.50196078" filter="url(#filter4255-45)" fill="#000"/>	<path d="m133.1,176c0.066,0.2718,0.125,0.5518,0.125,0.8438v22.75h-0.0312c0,1.981-1.582,3.594-3.562,3.594h-49.34c-0.2616,0-0.5043-0.0405-0.75-0.0937,0.3859,1.566,1.755,2.719,3.438,2.719h49.34c1.981,0,3.562-1.611,3.562-3.594l0.0312,0.0312v-22.78c0-1.708-1.213-3.108-2.812-3.469z" fill-opacity="0.50196078" filter="url(#filter4255-4)" fill="#000"/>	<path d="m63.21,176.4c0.0327,0.1946,0.0625,0.3899,0.0625,0.5938v22.75h-0.0312c0,1.983-1.582,3.594-3.562,3.594h-49.34c-0.1611,0-0.3133-0.0107-0.4688-0.0312,0.286,1.696,1.725,3,3.5,3h49.34c1.981,0,3.594-1.611,3.594-3.594v-22.75c0-1.809-1.353-3.317-3.094-3.562z" fill-opacity="0.50196078" filter="url(#filter4255)" fill="#000"/>	<path d="m98.27,123.8c0.107,0.3702,0.1562,0.7516,0.1562,1.156v26.62c0,2.315-1.873,4.188-4.188,4.188h-57.66c-0.3668,0-0.7234-0.0677-1.062-0.1562,0.4955,1.763,2.11,3.062,4.031,3.062h57.66c2.315,0,4.219-1.872,4.219-4.188v-26.62c0-1.949-1.355-3.592-3.156-4.062z" fill-opacity="0.50196078" filter="url(#filter4209-0)" fill="#000"/>	<path d="m97.83,69.07c0.1452,0.4252,0.2188,0.8694,0.2188,1.344v26.62c0,2.316-1.873,4.187-4.188,4.187h-57.66c-0.2065,0-0.4265-0.0336-0.625-0.0625,0.5634,1.651,2.128,2.844,3.969,2.844h57.66c2.315,0,4.219-1.872,4.219-4.187v-26.62c0-2.102-1.577-3.821-3.594-4.125z" fill-opacity="0.50196078" filter="url(#filter4209)" fill="#000"/>	<line stroke-width="5.627" x1="66.29" y1="102.3" stroke="#b7b7b7" x2="66.29" y2="119.8" fill="#c6c6c6"/>	<line stroke-width="5.627" x1="44.27" y1="156.5" stroke="#b7b7b6" x2="44.27" y2="172.6" fill="#c6c6c6"/>	<line stroke-width="5.627" x1="85.32" y1="156.6" stroke="#bbbcb8" x2="85.32" y2="172.5" fill="#c6c6c6"/>	<line stroke-width="5.627" x1="124.4" y1="156.6" stroke="#b1b2b1" x2="124.4" y2="172.4" fill="#c6c6c6"/>	<line stroke-width="5.627" x1="163.5" y1="156.4" stroke="#b7b7b7" x2="163.5" y2="171.6" fill="none"/>	<line stroke-width="5.627" x1="99.03" y1="83.37" stroke="#b7b7b7" x2="128.1" y2="83.29" fill="#c6c6c6"/>	<line stroke-width="5.627" x1="126.3" y1="80.51" stroke="#b7b7b7" x2="126.3" y2="119.7" fill="#c6c6c6"/>	<path d="m133.2,199.6c0,1.981-1.606,3.585-3.586,3.585h-49.32c-1.98,0-3.585-1.605-3.585-3.585v-22.77c0-1.978,1.606-3.585,3.585-3.585h49.33c1.981,0,3.586,1.607,3.586,3.585v22.77z" stroke="#000" stroke-dasharray="none" stroke-miterlimit="4" stroke-width="2" fill="#d3d3d3"/>	<path d="m206.2,199c0,1.983-1.607,3.585-3.588,3.585h-49.32c-1.981,0-3.586-1.602-3.586-3.585v-22.76c0-1.981,1.606-3.585,3.586-3.585h49.33c1.981,0,3.588,1.605,3.588,3.585v22.76z" stroke="#000" stroke-dasharray="none" stroke-miterlimit="4" stroke-width="2" fill="#d3d3d3"/>	<path d="m63.25,199.7c0,1.983-1.607,3.588-3.588,3.588h-49.33c-1.98,0-3.585-1.605-3.585-3.588v-22.76c0-1.981,1.606-3.585,3.585-3.585h49.33c1.981,0,3.588,1.605,3.588,3.585v22.76z" stroke="#000" stroke-dasharray="none" stroke-miterlimit="4" stroke-width="2" fill="#d3d3d3"/>	<path d="m98.44,151.5c0,2.315-1.878,4.192-4.193,4.192h-57.67c-2.315,0-4.192-1.877-4.192-4.192v-26.61c0-2.316,1.877-4.193,4.192-4.193h57.67c2.315,0,4.193,1.877,4.193,4.193v26.62z" stroke="#000" stroke-dasharray="none" stroke-miterlimit="4" stroke-width="2" fill="#d3d3d3"/>	<path d="m98.06,97.02c0,2.316-1.878,4.193-4.193,4.193h-57.67c-2.315,0-4.192-1.877-4.192-4.193v-26.62c0-2.316,1.877-4.193,4.192-4.193h57.67c2.315,0,4.193,1.877,4.193,4.193v26.62z" stroke="#000" stroke-dasharray="none" stroke-miterlimit="4" stroke-width="2" fill="#d3d3d3"/>	<path d="m174.4,151.5c0,2.315-1.878,4.192-4.193,4.192h-57.67c-2.315,0-4.192-1.877-4.192-4.192v-26.61c0-2.316,1.877-4.193,4.192-4.193h57.67c2.315,0,4.193,1.877,4.193,4.193v26.62z" stroke="#000" stroke-dasharray="none" stroke-miterlimit="4" stroke-width="2" fill="#d3d3d3"/>	<path d="m209.2,12.08c0.1018,0.4037,0.1562,0.8149,0.1562,1.25v32.78c0,2.852-2.295,5.156-5.156,5.156h-71.31c-0.2793,0-0.5452-0.0201-0.8125-0.0625,0.565,2.242,2.575,3.906,5,3.906h71.31c2.862,0,5.188-2.304,5.188-5.156v-32.78c0-2.573-1.903-4.702-4.375-5.094z" fill-opacity="0.50196078" filter="url(#filter4406-7)" fill="#000"/>	<path d="m209.4,46.11c0,2.852-2.322,5.163-5.184,5.163h-71.3c-2.862,0-5.182-2.311-5.182-5.163v-32.78c0-2.852,2.32-5.163,5.182-5.163h71.3c2.862,0,5.184,2.311,5.184,5.163v32.78z" stroke="#9b6600" stroke-dasharray="none" stroke-miterlimit="4" stroke-width="2" fill="url(#linearGradient3913-4)"/></svg>