<?xml version="1.0" encoding="UTF-8" standalone="no"?>
<svg id="svg2" xmlns:rdf="http://www.w3.org/1999/02/22-rdf-syntax-ns#" xmlns="http://www.w3.org/2000/svg" enable-background="new 21.152 45.375 219 219" xml:space="preserve" height="219px" width="219px" version="1.1" y="0px" x="0px" xmlns:cc="http://creativecommons.org/ns#" xmlns:dc="http://purl.org/dc/elements/1.1/" viewBox="21.152 45.375 219 219"><metadata id="metadata308"><rdf:RDF><cc:Work rdf:about=""><dc:format>image/svg+xml</dc:format><dc:type rdf:resource="http://purl.org/dc/dcmitype/StillImage"/><dc:title/></cc:Work></rdf:RDF></metadata>
<defs id="defs4">
<filter id="filter3888" color-interpolation-filters="sRGB"><feGaussianBlur id="feGaussianBlur3890" stdDeviation="2.7006865"/></filter></defs>
<g id="layer1" transform="translate(20.882261,-786.39639)"><path id="path3098" opacity="0.5" d="m159.11,56.346-83.103,0c-9.5618,0-17.313,8.1688-17.313,18.247v166.76c0,10.076,7.7508,18.246,17.313,18.246h121.66c9.5588,0,17.311-8.1688,17.311-18.246l0.55499-146.1-56.422-38.909z" transform="matrix(1,0,0,1.0075368,-19.31061,786.35748)" filter="url(#filter3888)" fill="#000"/><path id="path276" d="m131.8,837.08-83.103,0c-9.5618,0-17.313,8.2304-17.313,18.384v168.02c0,10.152,7.7508,18.383,17.313,18.383h121.66c9.5588,0,17.311-8.2304,17.311-18.383l0.55499-147.2-56.422-39.202z" stroke="#b5b5b5" stroke-width="3.11404014" fill="#f2f2f2"/><path id="path284" d="m187.12,878.49-38.669,0c-10.384,0-18.802-10.569-18.802-23.607v-16.366" stroke="#b5b5b5" stroke-width="3.23591542" fill="#f2f2f2"/></g><line id="line268" y2="149.38" x1="87.214" x2="169.25" stroke="#231F20" y1="148.94" stroke-width="5" fill="#919191"/>
<line id="line270" y2="171.29" x1="87.107" x2="169.14" stroke="#231F20" y1="170.86" stroke-width="5" fill="#919191"/>
<line id="line272" y2="194.39" x1="86.89" x2="168.92" stroke="#231F20" y1="193.96" stroke-width="5" fill="#919191"/>
<line id="line274" y2="216.3" x1="86.782" x2="168.81" stroke="#231F20" y1="215.86" stroke-width="5" fill="#919191"/>
<line id="line276" y2="107.37" x1="86.339" x2="168.37" stroke="#231F20" y1="106.94" stroke-width="5" fill="#919191"/>
<line id="line278" y2="128.41" x1="86.232" x2="168.26" stroke="#231F20" y1="127.98" stroke-width="5" fill="#919191"/>
<rect id="rect284" transform="matrix(0.80307333,-0.59588021,0.59588021,0.80307333,0,0)" height="67.006" width="18.535" stroke="#484848" y="266.51" x="8.4802" fill="#b5b5b5"/>
<circle id="circle286" r="43.569" cy="166.18" stroke="#757575" cx="145.32" stroke-width="10" fill="none"/>
<circle id="circle288" opacity="0.85" r="38.426" cy="166.19" stroke="#A3CD39" cx="145.32" stroke-width="2.5" fill="#A3CD39"/>
<path id="path290" stroke="#FFF" stroke-width="2" d="M153.4,197.54c0,1.915-0.691,3.547-2.076,4.896-1.384,1.351-3.033,2.025-4.947,2.025-1.915,0-3.563-0.675-4.948-2.025-1.384-1.35-2.076-2.981-2.076-4.896,0-1.914,0.692-3.563,2.076-4.947,1.385-1.385,3.033-2.076,4.948-2.076,1.914,0,3.563,0.691,4.947,2.076,1.39,1.38,2.08,3.03,2.08,4.95zm-0.46-61.84c0,1.709-0.564,7.452-1.692,17.227s-2.12,19.227-2.974,28.353h-3.999c-0.752-9.126-1.684-18.577-2.794-28.353s-1.666-15.518-1.666-17.227c0-1.948,0.615-3.589,1.846-4.922s2.802-2,4.717-2c1.914,0,3.486,0.658,4.717,1.974,1.22,1.32,1.83,2.97,1.83,4.95z" fill="#232323"/>
<path id="path294" fill="#8c8c8c" d="m203.86,259.61c-17.189-26.171-12.871-43.569-18.096-53.795-0.86127-1.686-4.1103-5.7191-4.1103-5.7191-4.8331,5.8806-14.067,10.617-14.067,10.617"/>
</svg>