<?xml version="1.0" encoding="UTF-8" standalone="no"?>
<svg
   xmlns:dc="http://purl.org/dc/elements/1.1/"
   xmlns:cc="http://creativecommons.org/ns#"
   xmlns:rdf="http://www.w3.org/1999/02/22-rdf-syntax-ns#"
   xmlns:svg="http://www.w3.org/2000/svg"
   xmlns="http://www.w3.org/2000/svg"
   xmlns:sodipodi="http://sodipodi.sourceforge.net/DTD/sodipodi-0.dtd"
   xmlns:inkscape="http://www.inkscape.org/namespaces/inkscape"
   enable-background="new 0 0 219 219"
   height="219px"
   viewBox="0 0 219 219"
   width="219px"
   version="1.1"
   y="0px"
   x="0px"
   id="svg2"
   inkscape:version="0.47 r22583"
   sodipodi:docname="function.svg">
  <sodipodi:namedview
     pagecolor="#ffffff"
     bordercolor="#666666"
     borderopacity="1"
     objecttolerance="10"
     gridtolerance="10"
     guidetolerance="10"
     inkscape:pageopacity="0"
     inkscape:pageshadow="2"
     inkscape:window-width="1280"
     inkscape:window-height="778"
     id="namedview52"
     showgrid="false"
     inkscape:zoom="1.0776256"
     inkscape:cx="109.5"
     inkscape:cy="109.5"
     inkscape:window-x="-8"
     inkscape:window-y="216"
     inkscape:window-maximized="1"
     inkscape:current-layer="svg2" />
  <defs
     id="defs4">
    <inkscape:perspective
       sodipodi:type="inkscape:persp3d"
       inkscape:vp_x="0 : 109.5 : 1"
       inkscape:vp_y="0 : 1000 : 0"
       inkscape:vp_z="219 : 109.5 : 1"
       inkscape:persp3d-origin="109.5 : 73 : 1"
       id="perspective54" />
    <filter
       id="filter3340"
       color-interpolation-filters="sRGB">
      <feGaussianBlur
         stdDeviation="3.9590909"
         id="feGaussianBlur7" />
    </filter>
    <radialGradient
       id="radialGradient3221"
       gradientUnits="userSpaceOnUse"
       cy="179"
       cx="176"
       gradientTransform="matrix(-1.25069,-0.80517636,1.0356633,-1.608708,268.6168,607.12894)"
       r="64.8">
      <stop
         stop-color="#993"
         offset="0"
         id="stop10" />
      <stop
         stop-color="#cccc64"
         offset="1"
         id="stop12" />
    </radialGradient>
    <radialGradient
       id="radialGradient3223"
       gradientUnits="userSpaceOnUse"
       cy="390"
       cx="380"
       gradientTransform="matrix(0.52636952,-0.05969132,0.06371377,0.5618392,-100.53747,-70.186289)"
       r="149">
      <stop
         stop-color="#bedcdc"
         offset="0"
         id="stop15" />
      <stop
         stop-opacity="0.74149668"
         stop-color="#8e9e9e"
         offset="0.5"
         id="stop17" />
      <stop
         stop-opacity="0.8392157"
         stop-color="#404f5c"
         offset="1"
         id="stop19" />
    </radialGradient>
    <radialGradient
       id="radialGradient3225"
       gradientUnits="userSpaceOnUse"
       cy="456"
       cx="-81.6"
       gradientTransform="matrix(0.17966648,0.02687068,-0.02894857,0.19245289,120.12125,88.722837)"
       r="149">
      <stop
         stop-color="#488d8d"
         offset="0"
         id="stop22" />
      <stop
         stop-color="#ede3d0"
         offset="0.5"
         id="stop24" />
      <stop
         stop-color="#d59f0f"
         offset="1"
         id="stop26" />
    </radialGradient>
    <inkscape:perspective
       id="perspective2857"
       inkscape:persp3d-origin="0.5 : 0.33333333 : 1"
       inkscape:vp_z="1 : 0.5 : 1"
       inkscape:vp_y="0 : 1000 : 0"
       inkscape:vp_x="0 : 0.5 : 1"
       sodipodi:type="inkscape:persp3d" />
  </defs>
  <metadata
     id="metadata28">
    <rdf:RDF>
      <cc:Work
         rdf:about="">
        <dc:format>image/svg+xml</dc:format>
        <dc:type
           rdf:resource="http://purl.org/dc/dcmitype/StillImage" />
        <dc:title />
      </cc:Work>
    </rdf:RDF>
  </metadata>
  <path
     style="color:#000000;fill:#775919;fill-opacity:1;fill-rule:nonzero;stroke:#2b2b2b;stroke-width:0.6586569;stroke-linecap:butt;stroke-linejoin:miter;stroke-miterlimit:4;stroke-opacity:1;stroke-dasharray:none;stroke-dashoffset:0;marker:none;visibility:visible;display:inline;overflow:visible;enable-background:accumulate"
     d="M 39.934786,78.778625 C 28.156884,108.42149 42.640043,142.00141 72.282925,153.77932 101.92584,165.55723 135.50571,151.07405 147.28362,121.43117 159.06154,91.788272 144.57838,58.208388 114.93548,46.430486 85.292586,34.65257 51.712702,49.135726 39.934786,78.778625 z M 78.993534,93.63325 C 82.4076,85.040676 92.14291,80.873486 100.73548,84.287552 c 8.59259,3.414061 12.81323,13.126314 9.39916,21.718898 -3.41405,8.59259 -13.164543,12.79803 -21.757147,9.38396 -8.592575,-3.41407 -12.798008,-13.16458 -9.383959,-21.75716 z"
     id="path4151" />
  <path
     style="color:#000000;fill:#8d6a1e;fill-opacity:1;fill-rule:nonzero;stroke:#2b2b2b;stroke-width:0.6586569;stroke-miterlimit:4;stroke-opacity:1;stroke-dasharray:none;marker:none;visibility:visible;display:inline;overflow:visible;enable-background:accumulate"
     d="m 44.831425,111.67176 29.442068,-4.63209 c 2.146445,6.3181 7.119215,11.14118 13.21222,13.25679 l -4.70096,29.4519 7.265069,1.14897 4.700978,-29.4519 c 0.980819,-0.0171 2.010332,-0.0663 3.007,-0.22305 5.68901,-0.89506 10.44638,-4.01209 13.65854,-8.27474 l 26.59636,13.56806 3.34861,-6.52767 -26.59636,-13.56805 c 0.93015,-3.00922 1.22549,-6.24896 0.70295,-9.570242 -0.52253,-3.3213 -1.80479,-6.354491 -3.61402,-8.932735 L 133.0056,66.87843 127.808,61.653668 106.70333,82.726502 c -4.37431,-3.096533 -9.867769,-4.573351 -15.580197,-3.674619 -0.996663,0.156808 -1.991518,0.426271 -2.93022,0.711049 L 74.675586,53.177319 68.120677,56.542253 81.631608,83.087209 c -5.159228,3.88362 -8.394131,10.034419 -8.496947,16.713941 l -29.442063,4.6321 1.138827,7.23851 z m 32.967116,-8.97887 c -1.436994,-9.133637 4.819792,-17.677301 13.95343,-19.114295 9.133659,-1.436986 17.711579,4.772735 19.148559,13.906377 1.43699,9.133638 -4.81338,17.717968 -13.947037,19.154948 -9.133638,1.437 -17.717971,-4.81339 -19.154957,-13.94704 z"
     id="path3270" />
  <path
     style="fill:#be8f28;fill-opacity:1;stroke:#000000;stroke-width:0.49614209;stroke-miterlimit:4;stroke-opacity:1;stroke-dasharray:none"
     d="m 14.151866,131.0757 6.800178,-0.0792 2.637526,-0.60946 3.329919,-1.44058 3.683852,7.36425 -3.144442,1.79989 -2.085567,1.75645 -4.152251,5.39005 3.0953,4.61689 6.560419,-1.76203 2.400569,-1.24995 2.894211,-2.23276 5.39567,6.237 -2.606568,2.51518 -1.615684,2.23117 -2.650046,6.23651 4.126017,3.71011 5.925189,-3.34512 2.032864,-1.8015 2.225586,-2.85916 6.759502,4.6845 -1.892874,3.08889 -0.982058,2.53572 -1.027951,6.72937 4.921782,2.56594 4.914205,-4.7021 1.493783,-2.28065 1.462416,-3.31097 7.737928,2.85725 -1.068155,3.44735 -0.327505,2.73044 0.665748,6.75432 5.408994,1.2492 3.592248,-5.75937 0.900774,-2.56871 0.564073,-3.60465 8.200192,0.84411 -0.177449,3.64327 0.368889,2.70552 2.31681,6.35966 5.56672,-0.13029 2.02405,-6.4433 0.22974,-2.72281 -0.32342,-3.63362 8.13745,-1.21651 0.73096,3.56242 1.03355,2.52568 3.85161,5.61018 5.32133,-1.5078 0.36455,-6.78567 -0.43808,-2.70995 -1.22862,-3.38581 7.59798,-3.21033 1.57137,3.24099 1.63778,2.20304 5.11969,4.46846 4.81884,-2.77667 -1.36656,-6.66018 -1.09058,-2.50158 -2.04489,-3.00726 6.54435,-4.98691 2.38002,2.76467 2.11249,1.73315 6.05949,3.02781 3.94506,-3.88866 -2.94523,-6.09415 -1.68282,-2.15035 -2.7075,-2.42431 5.08199,-6.45615 2.97785,2.1081 2.4983,1.13252 6.60504,1.45077 2.87453,-4.74919 -4.37905,-5.18536 -2.15756,-1.68045 -3.24496,-1.62494 3.34482,-7.53999 3.39343,1.25926 2.67655,0.51858 6.79695,-0.24614 1.59078,-5.31766 -5.54174,-3.95351 -2.50273,-1.06331 -3.53424,-0.79581 1.35262,-8.11207 3.60144,0.39711 2.73728,-0.21401 6.50008,-1.90485 0.21568,-5.54459 -6.31899,-2.446877 -2.69746,-0.408761 -3.62034,0.115839 -0.7112,-8.216303 3.58977,-0.506871 2.5981,-0.862116 5.80772,-3.463808 -1.15296,-5.437577 -6.75913,-0.779727 -2.71316,0.271127 -3.48237,1.000103 -2.71268,-7.774594 3.35402,-1.383547 2.30402,-1.478465 4.76817,-4.808707 -2.47453,-4.980173 -6.74346,0.930472 -2.57396,0.91924 -3.1203,1.857013 -4.54962,-6.863774 2.88978,-2.163579 1.86713,-2.034432 3.42971,-5.825354 -3.63479,-4.220636 -6.29163,2.557546 -2.26782,1.564146 -2.55386,2.560252 -6.12425,-5.491538 2.26622,-2.842673 1.30711,-2.403761 1.86153,-6.50929 -4.5766,-3.183085 -5.45651,4.055993 -1.78585,2.067432 -1.85225,3.105389 -7.28934,-3.787384 1.46242,-3.310955 0.66905,-2.639127 0.18554,-6.811032 -5.21428,-1.903772 -4.26972,5.27139 -1.22586,2.436745 -1.02752,3.463853 -7.9954,-1.873216 0.61678,-3.559599 -0.006,-2.724009 -1.52145,-6.628413 -5.52245,-0.561663 -2.841145,6.182609 -0.559221,2.660048 -0.120332,3.619139 -8.238017,0.181764 -0.282788,-3.617131 -0.707219,-2.629878 -3.116608,-6.021747 -5.484645,0.802545 -1.219048,6.675457 0.116237,2.744912 0.788088,3.538299 -7.910572,2.231512 -1.183548,-3.438522 -1.347706,-2.39292 -4.497715,-5.067892 -5.141493,2.172406 0.498787,6.757536 0.804994,2.622229 1.640567,3.24542 -7.142569,4.128806 -1.987771,-3.031404 -1.887185,-1.996643 -5.636276,-3.778916 -4.398427,3.373293 2.145429,6.432094 1.421318,2.328153 2.367944,2.736102 -5.843933,5.768202 -2.7075,-2.424311 -2.297152,-1.453161 -6.413542,-2.272277 -3.446587,4.351297 3.720875,5.699102 1.920186,1.9154 3.010842,2.026844 -4.258474,7.050775 -3.199927,-1.677654 -2.601704,-0.819506 -6.755924,-0.612791 -2.269445,5.06583 5.013084,4.614488 2.358707,1.359825 3.393439,1.259237 -2.365223,7.866672 -3.517756,-0.836434 -2.727232,-0.160545 -6.711676,1.085363 -0.907654,5.500316 5.993522,3.190338 2.606129,0.750324 3.617933,0.356475 -0.331171,8.219108 -3.615927,0.0466 -2.702292,0.53585 -6.190769,2.71657 0.464214,5.56028 6.59619,1.58917 2.731651,0.0913 3.565645,-0.564 1.750355,8.04653 -3.506505,0.94298 -2.453271,1.20488 -5.367604,4.18675 1.846135,5.24569 z M 47.386864,119.62519 C 36.59964,94.094761 48.545215,64.668638 74.075627,53.881419 99.60605,43.094194 129.03217,55.039755 139.8194,80.570192 150.60662,106.1006 138.67311,135.55529 113.14269,146.34252 87.612275,157.12974 58.174084,145.1556 47.386864,119.62519 z"
     id="path2943" />
  <g
     transform="matrix(-0.51270932,-1.2134434,1.2134434,-0.51270932,-11.754081,360.96707)"
     id="SmallGear">
    <path
       id="spokes"
       d="m 80.46875,163.8125 -6.5,2.625 6.0625,14.9375 c -0.636824,0.8482 -1.069756,1.84626 -1.25,2.9375 l -14.96875,6.0625 2.625,6.5 14.9375,-6.0625 c 0.854436,0.64318 1.867417,1.07124 2.96875,1.25 l 6.0625,14.96875 6.5,-2.625 -6.0625,-14.96875 c 0.634652,-0.85197 1.07448,-1.84294 1.25,-2.9375 l 14.9375,-6.0625 -2.625,-6.46875 L 89.46875,180 c -0.845234,-0.63018 -1.852719,-1.0714 -2.9375,-1.25 l -6.0625,-14.9375 z m 4.96875,18.59375 c 1.665947,0 3,1.33406 3,3 0,1.66595 -1.334053,3.03125 -3,3.03125 -1.665947,0 -3.03125,-1.3653 -3.03125,-3.03125 0,-1.66594 1.365303,-3 3.03125,-3 z"
       style="color:#000000;fill:#684e16;fill-opacity:1;stroke:#000000" />
    <path
       d="m 71.353709,156.14116 -2.721509,1.43873 0.580081,4.18159 0.392401,0.88628 1.622875,2.34355 -3.741544,3.16642 -2.02772,-2.01111 -0.826259,-0.54209 -3.991947,-1.28347 -1.916625,2.42774 2.225681,3.58292 0.733841,0.64693 2.42015,1.48143 -2.129027,4.40164 -2.684986,-0.96968 -0.952467,-0.18758 -4.199533,0.45249 -0.742072,2.99741 3.485736,2.36491 0.929709,0.29794 2.816019,0.37723 -0.148224,4.88095 -2.848428,0.20902 -0.9566,0.21864 -3.629826,2.10982 0.529031,3.05601 4.134716,0.72 1.003503,-0.10276 2.712551,-0.79456 1.82912,4.51884 -2.501499,1.31596 -0.79245,0.62419 -2.458022,3.42228 1.733919,2.53461 4.087106,-0.98012 0.839349,-0.50831 2.180096,-1.86012 3.501611,3.40358 -1.760757,2.22981 -0.44898,0.8897 -0.871031,4.09472 2.618094,1.6373 3.343597,-2.56708 0.553814,-0.79729 1.254519,-2.56429 4.579579,1.65244 -0.708281,2.74775 -0.06551,1.00419 0.881478,4.09332 3.077414,0.43999 1.975224,-3.69885 0.204827,-0.99316 0.06962,-2.82636 4.878881,-0.35664 0.464197,2.81256 0.346284,0.93866 2.480176,3.37877 2.967736,-0.83043 0.319278,-4.20851 -0.218643,-0.95659 -1.066992,-2.63599 4.290555,-2.30984 1.605645,2.38425 0.65866,0.71106 3.64712,2.09731 2.38838,-2.01186 -1.42634,-3.9402 -0.59521,-0.80417 -2.07392,-1.9587 3.02494,-3.85404 2.40291,1.52212 0.92419,0.3676 4.15678,0.44135 1.35797,-2.80845 -2.90226,-3.00564 -0.87247,-0.48967 -2.68499,-0.96968 1.1876,-4.72855 2.82775,0.4062 0.99798,-0.0331 3.9871,-1.31046 0.0917,-3.105 -3.87127,-1.56831 -0.98696,-0.1062 -2.84842,0.20901 -0.867,-4.80715 2.75324,-0.77731 0.90349,-0.43314 3.11048,-2.80985 -1.16078,-2.86773 -4.20093,0.11593 -0.95039,0.31726 -2.51874,1.35666 -2.72088,-4.05674 2.20354,-1.80219 0.6352,-0.76281 1.67867,-3.8485 -2.21394,-2.13802 -3.77605,1.83187 -0.74003,0.67039 -1.74904,2.25876 -4.154055,-2.60009 1.26625,-2.53533 0.28621,-0.95867 -0.0173,-4.20712 -2.917413,-1.04416 -2.679412,3.20848 -0.408288,0.90695 -0.667589,2.76498 -4.854067,-0.6648 0.127558,-2.84981 -0.131745,-0.99178 -1.716001,-3.82294 -3.115342,0.21587 -1.161393,4.04368 0.02139,0.96902 0.493165,2.80084 -4.677479,1.35392 -1.066986,-2.63599 -0.508313,-0.83935 -3.156758,-2.80149 z m 6.590144,10.78395 c 10.213773,-4.1343 21.827252,0.78649 25.961557,11.00027 4.13428,10.21378 -0.77479,21.85622 -10.988565,25.99052 -10.213774,4.13429 -21.838969,-0.81548 -25.973261,-11.02925 -4.134295,-10.21378 0.786497,-21.82725 11.000269,-25.96154 z"
       style="fill:#333333;fill-opacity:1;stroke:#000000;stroke-width:0.5;stroke-miterlimit:4;stroke-opacity:1;stroke-dasharray:none"
       id="path3119" />
  </g>
</svg>
