<?xml version="1.0" encoding="UTF-8" standalone="no"?><!-- Generator: Adobe Illustrator 13.0.2, SVG Export Plug-In  --><svg xmlns:rdf="http://www.w3.org/1999/02/22-rdf-syntax-ns#" xmlns="http://www.w3.org/2000/svg" enable-background="new -0.028 -0.56 178 206" xml:space="preserve" height="219" width="219" version="1.1" y="0px" x="0px" xmlns:cc="http://creativecommons.org/ns#" xmlns:xlink="http://www.w3.org/1999/xlink" viewBox="-0.028 -0.56 219 219" xmlns:dc="http://purl.org/dc/elements/1.1/">	<metadata>		<rdf:RDF>			<cc:Work rdf:about="">				<dc:format>image/svg+xml</dc:format>				<dc:type rdf:resource="http://purl.org/dc/dcmitype/StillImage"/>				<dc:title/>			</cc:Work>		</rdf:RDF>	</metadata>	<defs>		<linearGradient id="linearGradient4038" y2="76.07" gradientUnits="userSpaceOnUse" x2="82.28" gradientTransform="matrix(0.94706804,0,0,0.95698744,3.9667663,-0.18339691)" y1="103.7" x1="113">			<stop stop-color="#969696" offset="0"/>			<stop stop-color="#bfbfbf" offset="1"/>		</linearGradient>		<linearGradient id="linearGradient4335" y2="193.1" gradientUnits="userSpaceOnUse" x2="109" gradientTransform="matrix(1.0338268,0,0,1.0338268,-11.800854,-10.005371)" y1="77.2" x1="38.67">			<stop stop-color="#FFF" offset="0"/>			<stop stop-color="#afafaf" offset="1"/>		</linearGradient>		<filter id="filter4474">			<feGaussianBlur stdDeviation="2.0407868"/>		</filter>	</defs>	<g>		<path d="m121.6,219.4c-0.7512-0.1872-2.288-0.6787-3.415-1.092-3.782-1.388-75.1-42.38-77.16-44.35l-2.038-1.948-0.4477-12.46c-0.2462-6.853-0.5585-29.57-0.6938-50.48-0.2435-37.61-0.231-38.04,1.173-39.95,0.9625-1.311,13.16-8.459,37.9-22.21,42.3-23.51,41.2-22.93,45.1-23.63,7.054-1.256,7.363-1.117,47.38,21.46,20.56,11.6,38.38,22.01,39.6,23.13l2.229,2.051,0.4893,29.7c0.2691,16.34,0.3792,38.77,0.2446,49.85-0.2632,21.67-0.3949,22.51-3.946,25.13-2.007,1.484-69.77,40.76-74.39,43.12-2.765,1.411-9.388,2.331-12.03,1.672z" fill-opacity="0.50196081000000004" fill-rule="evenodd" transform="matrix(1.0338268,0,0,1.0338268,-11.800854,-10.005371)" filter="url(#filter4474)" fill="#000"/>		<path d="m108.7,1.173c-3.368,0-6.713,0.7554-9.343,2.286l-77.17,42.77c-2.461,1.503-5.217,4.487-4.705,10.46v0.1632s0.2431,63.76,1.248,95.39c0.0044,0.1399,0.02977,0.2603,0.02692,0.3455-0.09485,2.827,1.564,5.509,4.633,7.399,0.3096,0.1906,0.6249,0.3972,0.9778,0.5993l74.09,42.42c6.093,3.156,13.76,3.517,19.44,0.3102l75.87-42.13c5.024-3.885,4.264-5.962,4.701-10.57,0,0-0.1663-128.2-0.1663-96.65,0,3.367-0.0269-0.3203-0.0269-0.3203,0.0135-2.842-1.56-5.537-4.622-7.431-0.3246-0.2008-0.8668-0.5335-1.044-0.6335l-73.9-41.68c-2.8-1.738-6.5-2.613-10.1-2.613z" fill="url(#linearGradient4038)"/>		<path d="M98.87,91.27,35.9,56.9c-5.073-2.769-5.041-7.494-0.1582-10.16l64.78-35.32c4.883-2.662,12.71-2.224,17.79,0.5451l62.97,34.37c5.073,2.769,5.041,7.494,0.1582,10.16l-64.78,35.32c-4.883,2.662-12.71,2.224-17.79-0.5451z" fill-rule="evenodd" stroke-miterlimit="4" stroke-width="0" fill="#FFF"/>		<path d="m182.9,157.6-60.03,32.74c-4.906,2.676-8.995,0.123-8.976-5.437l0.2546-73.77c0.0192-5.56,4.139-11.96,9.045-14.63l60-32.71c4.906-2.676,8.995-0.1229,8.976,5.437l-0.2546,73.77c-0.0192,5.56-4.139,11.96-9.045,14.63z" fill-rule="evenodd" stroke-miterlimit="4" stroke-width="0" fill="#666"/>		<path d="m34.49,156.6,60.45,34.02c4.87,2.741,8.995,0.123,8.976-5.437l-0.2-73.8c-0.1-5.5-4.16-11.95-9.08-14.6l-59.85-32.21c-4.921-2.649-8.949-0.1229-8.976,5.437l-0.3479,71.96c-0.02688,5.56,4.175,11.89,9.045,14.63z" fill-rule="evenodd" stroke-miterlimit="4" stroke-width="0" fill="url(#linearGradient4335)"/>	</g></svg>