<?xml version="1.0" encoding="UTF-8" standalone="no"?>
<svg id="svg2" xmlns:rdf="http://www.w3.org/1999/02/22-rdf-syntax-ns#" xmlns="http://www.w3.org/2000/svg" enable-background="new -0.604 -0.512 167 219" xml:space="preserve" height="219" width="219" version="1.1" y="0px" x="0px" xmlns:cc="http://creativecommons.org/ns#" xmlns:xlink="http://www.w3.org/1999/xlink" viewBox="-0.604 -0.512 219 219" xmlns:dc="http://purl.org/dc/elements/1.1/"><metadata id="metadata294"><rdf:RDF><cc:Work rdf:about=""><dc:format>image/svg+xml</dc:format><dc:type rdf:resource="http://purl.org/dc/dcmitype/StillImage"/><dc:title/></cc:Work></rdf:RDF></metadata><defs id="defs4"><filter id="filter4414"><feGaussianBlur id="feGaussianBlur4416" stdDeviation="1.8978547"/></filter><linearGradient id="linearGradient4466" y2="37.441" gradientUnits="userSpaceOnUse" x2="61.71" y1="161.53" x1="192.31"><stop id="stop4462" stop-color="#000" offset="0"/><stop id="stop4464" stop-color="#000" stop-opacity="0" offset="1"/></linearGradient></defs><filter id="AI_GaussianBlur_4" color-interpolation-filters="sRGB"><feGaussianBlur id="feGaussianBlur240" stdDeviation="4"/></filter><g id="g4487"><path id="path242-1" opacity="0.5" d="m111.14,14.302c-40.293,0-72.969,32.514-72.969,72.625,0,26.108,13.853,48.98,34.625,61.781l-24.438,54.062c-1.208,2.6802-1.0119,5.3934,0.46875,6.0625l7.4688,3.375c1.4788,0.66909,3.6652-0.97988,4.875-3.6562l24.25-53.656c6.1103,2.2918,12.61,3.795,19.375,4.375v34.219c0,1.6232,1.3124,2.9375,2.9375,2.9375h8.1875c1.6222,0,2.9375-1.3134,2.9375-2.9375v-34.344c7.409-0.77796,14.484-2.6512,21.062-5.4688l26.188,56.031c1.2438,2.6613,3.435,4.2817,4.9062,3.5938l7.4375-3.4688c1.4712-0.68797,1.6501-3.4012,0.40625-6.0625l-26.562-56.875c19.197-13.083,31.781-35.06,31.781-59.969,0-40.111-32.645-72.625-72.938-72.625z" filter="url(#filter4414)" stroke-miterlimit="4" stroke-width="0" fill="#000"/><path id="path242" d="m112.31,187.84c0,1.6241-1.3165,2.9397-2.9387,2.9397h-8.1971c-1.6251,0-2.9406-1.3165-2.9406-2.9397v-36.824c0-1.626,1.3155-2.9416,2.9406-2.9416h8.1971c1.6232,0,2.9387,1.3165,2.9387,2.9416v36.824z" stroke="#0c0c0c" stroke-width="1.88742805" fill="#5f6062"/><path id="path244" d="m172.3,198.13c1.2438,2.6613,1.0579,5.3744-0.41334,6.0624l-7.428,3.4672c-1.4712,0.68796-3.671-0.91257-4.9149-3.5738l-28.183-60.37c-1.2429-2.6632-1.0579-5.3782,0.41335-6.0643l7.428-3.4691c1.4731-0.68608,3.672,0.91446,4.9149,3.5776l28.183,60.37z" stroke="#0c0c0c" stroke-width="1.88742805" fill="#5f6062"/><path id="path246" d="m54.626,202.92c-1.2098,2.6764-3.3898,4.3043-4.8686,3.6352l-7.4704-3.3747c-1.4807-0.66909-1.6987-3.3785-0.49073-6.0586l27.437-60.713c1.2108-2.6783,3.3908-4.3052,4.8696-3.6371l7.4714,3.3747c1.4807,0.66909,1.6987,3.3804,0.48884,6.0605l-27.437,60.713z" stroke="#0c0c0c" stroke-width="1.88742805" fill="#5f6062"/><g id="g254" filter="url(#AI_GaussianBlur_4)" transform="matrix(0.94371402,0,0,0.94371402,26.382679,3.0706061)"><circle id="circle256" d="m 137.42,81.820999 c 0,29.834971 -24.18602,54.021001 -54.020998,54.021001 -29.834974,0 -54.021,-24.18603 -54.021,-54.021001 0,-29.834974 24.186026,-54.021 54.021,-54.021 29.834978,0 54.020998,24.186026 54.020998,54.021 z" cx="83.399" cy="81.821" r="54.021" fill="#999"/><circle id="circle258" d="m 137.42,81.820999 c 0,29.834971 -24.18602,54.021001 -54.020998,54.021001 -29.834974,0 -54.021,-24.18603 -54.021,-54.021001 0,-29.834974 24.186026,-54.021 54.021,-54.021 29.834978,0 54.020998,24.186026 54.020998,54.021 z" cx="83.399" cy="81.821" stroke="#DDD" r="54.021" fill="none"/><g id="g260" filter="url(#AI_GaussianBlur_4)" transform="matrix(0.94371402,0,0,0.94371402,26.382679,3.0706061)"><path id="path262" d="m123.52,81.821c0,22.164-17.96,40.125-40.12,40.125-22.157,0-40.121-17.961-40.121-40.125,0-22.156,17.964-40.117,40.121-40.117,22.16,0,40.12,17.961,40.12,40.117z" fill="#c1c1c1"/><path id="path264" d="m123.52,81.821c0,22.164-17.96,40.125-40.12,40.125-22.157,0-40.121-17.961-40.121-40.125,0-22.156,17.964-40.117,40.121-40.117,22.16,0,40.12,17.961,40.12,40.117z" fill="none" stroke="#DDD"/></g></g><g id="g266" filter="url(#AI_GaussianBlur_4)" transform="matrix(0.94371402,0,0,0.94371402,26.382679,3.0706061)"><circle id="circle268" d="m 109.211,82.862 c 0,14.830502 -12.022496,26.853 -26.852998,26.853 -14.830503,0 -26.853001,-12.022498 -26.853001,-26.853 0,-14.830503 12.022498,-26.853001 26.853001,-26.853001 14.830502,0 26.852998,12.022498 26.852998,26.853001 z" cx="82.358" cy="82.862" r="26.853" fill="#999"/><circle id="circle270" d="m 109.211,82.862 c 0,14.830502 -12.022496,26.853 -26.852998,26.853 -14.830503,0 -26.853001,-12.022498 -26.853001,-26.853 0,-14.830503 12.022498,-26.853001 26.853001,-26.853001 14.830502,0 26.852998,12.022498 26.852998,26.853001 z" cx="82.358" cy="82.862" stroke="#DDD" r="26.853" fill="none"/></g><g id="g272" filter="url(#AI_GaussianBlur_4)" transform="matrix(0.94371402,0,0,0.94371402,26.382679,3.0706061)"><path id="path274" d="m98.881,81.821c0,8.553-6.933,15.482-15.482,15.482s-15.48-6.93-15.48-15.482c0-8.547,6.93-15.477,15.48-15.477s15.482,6.929,15.482,15.477z" fill="#c1c1c1"/><path id="path276" d="m98.881,81.821c0,8.553-6.933,15.482-15.482,15.482s-15.48-6.93-15.48-15.482c0-8.547,6.93-15.477,15.48-15.477s15.482,6.929,15.482,15.477z" fill="none" stroke="#DDD"/></g><ellipse id="ellipse278" d="m 160.17,82.892998 c 0,42.503832 -34.61197,76.960002 -77.308,76.960002 -42.696029,0 -77.3079991,-34.45617 -77.3079991,-76.960002 0,-42.503834 34.6119701,-76.9599993 77.3079991,-76.9599993 42.69603,0 77.308,34.4561653 77.308,76.9599993 z" cx="82.862" cy="82.893" rx="77.308" transform="matrix(0.94371402,0,0,0.94371402,26.382679,3.0706061)" ry="76.96" stroke="#DDD" fill="#ee3424"/><circle id="circle280" d="m 151.415,82.862 c 0,37.86022 -30.69178,68.552 -68.552001,68.552 -37.860225,0 -68.552002,-30.69178 -68.552002,-68.552 0,-37.860226 30.691777,-68.552002 68.552002,-68.552002 37.860221,0 68.552001,30.691776 68.552001,68.552002 z" cx="82.863" cy="82.862" transform="matrix(0.94371402,0,0,0.94371402,26.382679,3.0706061)" stroke="#DDD" r="68.552" fill="#e6e6e6"/><circle id="circle282" d="m 137.42,81.820999 c 0,29.834971 -24.18602,54.021001 -54.020998,54.021001 -29.834974,0 -54.021,-24.18603 -54.021,-54.021001 0,-29.834974 24.186026,-54.021 54.021,-54.021 29.834978,0 54.020998,24.186026 54.020998,54.021 z" cx="83.399" cy="81.821" transform="matrix(0.94371402,0,0,0.94371402,26.382679,3.0706061)" stroke="#DDD" r="54.021" fill="#ee3424"/><path id="path284" d="m142.95,80.286c0,20.916-16.949,37.867-37.862,37.867-20.91,0-37.863-16.95-37.863-37.867,0-20.909,16.953-37.862,37.863-37.862,20.913,0,37.862,16.953,37.862,37.862z" stroke="#DDD" stroke-width="0.94371402" fill="#e6e6e6"/><circle id="circle286" d="m 109.211,82.862 c 0,14.830502 -12.022496,26.853 -26.852998,26.853 -14.830503,0 -26.853001,-12.022498 -26.853001,-26.853 0,-14.830503 12.022498,-26.853001 26.853001,-26.853001 14.830502,0 26.852998,12.022498 26.852998,26.853001 z" cx="82.358" cy="82.862" transform="matrix(0.94371402,0,0,0.94371402,27.133409,2.5887385)" stroke="#DDD" r="26.853" fill="#ee3424"/><path id="path288" d="m119.7,80.663c0,8.0716-6.5428,14.611-14.611,14.611-8.0678,0-14.609-6.5399-14.609-14.611,0-8.0659,6.5399-14.608,14.609-14.608,8.0688,0,14.611,6.5409,14.611,14.608z" stroke="#DDD" stroke-width="0.94371402" fill="#e6e6e6"/><path id="path290" d="m111.95,80.664c0,3.7909-3.0727,6.8589-6.8599,6.8589-3.7852,0-6.858-3.068-6.858-6.8589,0-3.7862,3.0727-6.8542,6.858-6.8542,3.7871,0,6.8599,3.068,6.8599,6.8542z" stroke="#DDD" stroke-width="0.94371402" fill="#ee3424"/><path id="path4458" opacity="0.50000000000000000" d="m87.537,151.44c-20.534-5.3342-37.664-19.269-46.814-38.083-5.1233-10.534-7.0595-19.045-7.0781-31.114-0.0613-39.78,31.839-71.518,71.647-71.285,32.221,0.18891,59.304,20.258,68.872,51.034,3.1143,10.018,3.3371,29.687,0.44365,39.159-5.8994,19.313-19.953,36.161-37.231,44.636-5.3144,2.6066-12.867,5.4077-16.782,6.2248-9.9558,2.0774-23.776,1.8379-33.056-0.57267z" fill-rule="evenodd" stroke-miterlimit="4" stroke-width="0" fill="url(#linearGradient4466)"/></g></svg>