<?xml version="1.0" encoding="UTF-8" standalone="no"?><svg xmlns:rdf="http://www.w3.org/1999/02/22-rdf-syntax-ns#" xmlns="http://www.w3.org/2000/svg" version="1.1" xml:space="preserve" height="219" viewBox="0.003 -0.125 219 219" width="219" enable-background="new 0.003 -0.125 208 181" y="0px" x="0px" xmlns:cc="http://creativecommons.org/ns#" xmlns:dc="http://purl.org/dc/elements/1.1/">	<metadata>		<rdf:RDF>			<cc:Work rdf:about="">				<dc:format>image/svg+xml</dc:format>				<dc:type rdf:resource="http://purl.org/dc/dcmitype/StillImage"/>				<dc:title/>			</cc:Work>		</rdf:RDF>	</metadata>	<defs>		<filter id="filter4371" color-interpolation-filters="sRGB">			<feGaussianBlur stdDeviation="1.7991875"/>		</filter>		<linearGradient id="linearGradient3073" x1="171" gradientUnits="userSpaceOnUse" y1="147.9" gradientTransform="translate(-16.28395,17.06474)" x2="-15.82" y2="24.64">			<stop stop-color="#9CF" offset="0"/>			<stop stop-color="#800080" stop-opacity="0" offset="1"/>		</linearGradient>	</defs>	<path opacity="0.5" d="m165.1,23.42-121.6,9.875,0.4375,69.03c10.33,19.16-1.556,73.2,6.365,87.33,27.92,3.13,30.87,2.971,57.14,6.015l57.69,4.719v-0.6562l28.53-10.72-0.7188-158.5-27.81-6.844v-0.2812z" fill-opacity="0.50196081" filter="url(#filter4371)" stroke-miterlimit="4" stroke-width="0" fill="#000"/>	<polygon stroke-opacity="0.99115044" transform="translate(-15.26038,16.04411)" stroke="#736d6d" points="51.32,167.1,50.76,78.92,50.33,9.887,171.9,0,171.9,177" stroke-miterlimit="4" stroke-dasharray="none" stroke-width="2" fill="#d4d4d4"/>	<polygon transform="matrix(1.000112,0,0,1.0017484,-13.433,15.24097)" stroke="#625959" points="200.9,166.1,171.9,177,171.9,0.989,200.2,7.91" stroke-miterlimit="4" stroke-dasharray="none" stroke-width="2" fill="#858585"/>	<path opacity="0.5" d="m36.04,77.2s23.28-61.84,111.3,31.13c14.22,15.02,38.87-25.55,38.87-25.55l0.2163,98.33-28.8,10.82-2.42,0.0138-119.2-9.468c0.1776-66.78,0.06441-96.35-0.0073-105.3z" stroke-miterlimit="4" stroke-width="0" fill="url(#linearGradient3073)"/>	<path d="m8.532,178.8v16.56c0,5.714,5.265,10.35,11.75,10.35h45.54c6.486,0,11.74-4.637,11.74-10.35v-18.61h-69.03v1.984z" stroke="#494848" stroke-width="1.28797626" fill="#707070"/>	<path d="m77.56,86.98c0-5.907-4.637-10.69-10.36-10.69h-40.17c-5.723,0-10.37,4.784-10.37,10.69v88.58h60.9v-88.59z" stroke="#494848" stroke-width="1.28797626" fill="#8e8e8e"/>	<path d="m8.572,201.7c0,5.713,4.644,10.35,10.37,10.35h40.18c5.724,0,9.888-4.746,10.36-10.35v-18.43h-60.91v18.54zm30.46-10.4c3.517,0,6.372,2.864,6.372,6.391s-2.854,6.382-6.372,6.382c-3.528,0-6.389-2.856-6.389-6.382s2.861-6.391,6.389-6.391z" stroke="#494848" stroke-width="1.28797626" fill="#b7b6b6"/>	<path d="m69.48,93.02c0-5.724-4.636-10.36-10.36-10.36h-40.18c-5.724,0-10.37,4.635-10.37,10.36v85.83h60.91v-85.83zm-8.366,7.516c0,1.09-0.9055,1.976-1.994,1.976h-40.18c-1.096,0-1.983-0.8861-1.983-1.976v-6.647c0-1.09,0.8868-1.985,1.983-1.985h40.18c1.088,0,1.994,0.8952,1.994,1.985v6.647z" stroke="#494848" stroke-width="1.28797626" fill="#b7b6b6"/>	<path d="m10.92,86.41c0.004-0.0014,8.21-6.924,8.21-6.924s3.86-3.615,9.987-3.369c1.115,0,2.229,0,3.343-0.000656,2.72-0.004,5.438,0,8.158-0.000655,3.427-0.000636,6.853-0.004,10.28,0,3.233,0.004,6.464-0.0119,9.698,0.002,2.249,0.01,4.501-0.08942,6.746,0.03219,1.662,0.09021,2.88,0.6987,4.217,1.326,1.387,0.6511,3.573,2.931,3.573,2.931l-7.72,6.433s-2.819-4.105-7.291-3.982c-1.191-0.0083-2.381-0.01786-3.571-0.02118-2.913-0.0083-5.825-0.02769-8.737-0.05399-3.657-0.03337-7.314-0.05718-10.97-0.06119-3.382-0.0041-6.767-0.0083-10.15-0.07088-2.287-0.04305-4.561-0.09857-6.966,0.04888-1.427,0.08763-2.95-0.02063-4.272,0.5274-1.586,0.6536-3.208,2.075-4.536,3.184z" stroke="#494848" stroke-width="1.28797626" fill="#b2b2b2"/>	<path d="m69.19,182.1c0.0083,1.845-0.0083,4.954,0,6.801,0.01108,2.336-0.09913,4.467-0.09221,6.801,0.0028,0.9872,0.04569,2.276,0.04569,3.264,0,7.857-4.412,11.29-4.412,11.29l7.231-5.026c6.128-4.657,5.636-9.19,5.636-9.19l-0.2-111s-0.3677-2.818-2.206-4.656l-7.904,6.433s0.7296,1.196,1.01,1.839c0.4669,1.062,0.624,1.759,0.8894,3.063,0.3748,1.832,0.2241,3.844,0.2453,5.698,0.03475,3.086-0.1707,6.213-0.1693,9.298,0.0028,4.219,0.03475,8.418,0.04569,12.64,0.01385,4.849-0.06701,9.718-0.04569,14.57,0.0245,5.062,0.1224,10.06,0.1386,15.12,0.01661,4.943-0.05925,9.856-0.04652,14.8,0.01384,4.559-0.01385,9.314,0,13.88,0.0014,0.2428,0.04652,0.3548,0.04652,0.5976" stroke="#494848" stroke-width="1.28797626" fill="#6b6a6a"/>	<line stroke-width="1.288" y2="169.2" y1="178.6" stroke="#494848" x2="77.98" x1="69.65" fill="#353434"/>	<line stroke-width="1.288" y2="174.1" y1="183.3" stroke="#494848" x2="77.98" x1="69.65" fill="#353434"/>	<line stroke-width="1.288" y2="183.5" y1="177.5" stroke="#494848" x2="69.47" x1="69.41" fill="#8e8e8e"/>	<path fill="#999" d="m18.03,178.1s50.77,0.0465,50.77,0.0465l-0.1637-62.78c-5.413,57.84-50.61,62.74-50.61,62.74z"/>	<path fill="#999" d="m25.09,211.3h33.24c7.316,0.4463,10.43-5.083,10.41-10.34l-0.05275-14.64c-3.69,25.7-43.6,24.9-43.6,24.9z"/>	<circle d="m 62.317001,94.175003 c 0,4.775054 -3.870946,8.645997 -8.646,8.645997 -4.775053,0 -8.645999,-3.870943 -8.645999,-8.645997 0,-4.775054 3.870946,-8.646 8.645999,-8.646 4.775054,0 8.646,3.870946 8.646,8.646 z" cx="53.67" cy="94.18" transform="matrix(0.64398823,0,0,0.64398823,-11.391189,55.69501)" r="8.646" fill="#3f3f3f"/>	<circle d="m 102.27,96.622002 c 0,2.306341 -1.86966,4.175998 -4.175998,4.175998 -2.306341,0 -4.176,-1.869657 -4.176,-4.175998 0,-2.306342 1.869659,-4.176 4.176,-4.176 2.306338,0 4.175998,1.869658 4.175998,4.176 z" cx="98.09" cy="96.62" transform="matrix(0.64398823,0,0,0.64398823,-11.391189,55.69501)" r="4.176" fill="#3f3f3f"/>	<circle d="m 90.480001,96.699997 c 0,2.306893 -1.870106,4.177003 -4.177,4.177003 -2.306893,0 -4.177,-1.87011 -4.177,-4.177003 0,-2.306893 1.870107,-4.177 4.177,-4.177 2.306894,0 4.177,1.870107 4.177,4.177 z" cx="86.3" cy="96.7" transform="matrix(0.64398823,0,0,0.64398823,-11.391189,55.69501)" r="4.177" fill="#3f3f3f"/>	<circle d="m 78.605001,96.699997 c 0,2.306893 -1.870106,4.177003 -4.177,4.177003 -2.306893,0 -4.177,-1.87011 -4.177,-4.177003 0,-2.306893 1.870107,-4.177 4.177,-4.177 2.306894,0 4.177,1.870107 4.177,4.177 z" cx="74.43" cy="96.7" transform="matrix(0.64398823,0,0,0.64398823,-11.391189,55.69501)" r="4.177" fill="#3f3f3f"/>	<circle d="m 61.022999,95.012001 c 0,4.775054 -3.870946,8.645999 -8.646,8.645999 -4.775054,0 -8.646,-3.870945 -8.646,-8.645999 0,-4.775054 3.870946,-8.646 8.646,-8.646 4.775054,0 8.646,3.870946 8.646,8.646 z" cx="52.38" cy="95.01" transform="matrix(0.64398823,0,0,0.64398823,-11.391189,55.69501)" r="8.646" fill="#e50a39"/>	<circle d="m 100.976,97.459 c 0,2.306341 -1.869656,4.176 -4.175997,4.176 -2.306341,0 -4.176,-1.869659 -4.176,-4.176 0,-2.306342 1.869659,-4.176 4.176,-4.176 2.306341,0 4.175997,1.869658 4.175997,4.176 z" cx="96.8" cy="97.46" transform="matrix(0.64398823,0,0,0.64398823,-11.391189,55.69501)" r="4.176" fill="#e50a39"/>	<circle d="m 89.186003,97.537003 c 0,2.306893 -1.870107,4.176997 -4.177,4.176997 -2.306894,0 -4.177,-1.870104 -4.177,-4.176997 0,-2.306894 1.870106,-4.177 4.177,-4.177 2.306893,0 4.177,1.870106 4.177,4.177 z" cx="85.01" cy="97.54" transform="matrix(0.64398823,0,0,0.64398823,-11.391189,55.69501)" r="4.177" fill="#ffb509"/>	<circle d="m 77.311003,97.537003 c 0,2.306893 -1.870107,4.176997 -4.177,4.176997 -2.306894,0 -4.177,-1.870104 -4.177,-4.176997 0,-2.306894 1.870106,-4.177 4.177,-4.177 2.306893,0 4.177,1.870106 4.177,4.177 z" cx="73.13" cy="97.54" transform="matrix(0.64398823,0,0,0.64398823,-11.391189,55.69501)" r="4.177" fill="#96c93c"/>	<path opacity="0.89655175" d="m158.2,191.3s12.39-15.12,16.53-23.87c6.045-12.76,11.68-40.7,11.68-40.7l0.7281,53.68z" stroke-miterlimit="4" stroke-width="0" fill="#613e61"/></svg>