<?xml version="1.0" encoding="UTF-8" standalone="no"?>
<svg id="svg2" xmlns:rdf="http://www.w3.org/1999/02/22-rdf-syntax-ns#" xmlns="http://www.w3.org/2000/svg" enable-background="new -0.211 -0.8 205 138" xml:space="preserve" height="219" width="219" version="1.1" y="0px" x="0px" xmlns:cc="http://creativecommons.org/ns#" xmlns:xlink="http://www.w3.org/1999/xlink" viewBox="-0.211 -0.8 219 219" xmlns:dc="http://purl.org/dc/elements/1.1/"><metadata id="metadata289"><rdf:RDF><cc:Work rdf:about=""><dc:format>image/svg+xml</dc:format><dc:type rdf:resource="http://purl.org/dc/dcmitype/StillImage"/><dc:title/></cc:Work></rdf:RDF></metadata><defs id="defs4"><filter id="filter4313"><feGaussianBlur id="feGaussianBlur4315" stdDeviation="1.3674375"/></filter><linearGradient id="linearGradient4357" y2="31.593" gradientUnits="userSpaceOnUse" x2="129.98" y1="166.01" x1="172.48"><stop id="stop4196" stop-color="#4b4b4b" offset="0"/><stop id="stop4198" stop-color="#acacac" offset="1"/></linearGradient><linearGradient id="linearGradient2937" y2="51.829" gradientUnits="userSpaceOnUse" x2="33.7" gradientTransform="matrix(1.092009,0,0,1.0940101,0.16804171,-13.318541)" y1="195.41" x1="126.82"><stop id="stop4345" stop-color="#656565" offset="0"/><stop id="stop4347" stop-color="#dcdcdc" offset="1"/></linearGradient><linearGradient id="linearGradient2941" y2="53.883" gradientUnits="userSpaceOnUse" x2="25.564" gradientTransform="matrix(1.092009,0,0,1.0940101,0.16804171,-13.318541)" y1="185.91" x1="118.72"><stop id="stop4564" stop-color="#d9d3d3" offset="0"/><stop id="stop4566" stop-color="#f6fcff" offset="1"/></linearGradient></defs><path id="polygon243_1_-5" opacity="0.5" d="m128.35,46.091-84.344,0.125-30.281,20.906-0.46875,112.47,85.344-0.0312,5.875-4.25,0.125,0.15625,0-0.25,23.781-17.188-0.0312-111.94z" transform="matrix(1.5121009,0,0,1.5121009,6.0054909,-56.689309)" filter="url(#filter4313)" fill="#000"/><polygon id="polygon243_1_" points="174.18,1.049,47.579,1.049,1.211,32.715,129.12,33.383" fill="#b6b8ba" transform="matrix(0.9977959,0,0,0.99962443,16.254414,2.8570642)"/><polygon id="polygon245_1_" points="174.43,1.231,129.12,32.377,129.83,201.79,173.94,169.52" fill="url(#linearGradient4357)" transform="matrix(0.9977959,0,0,0.99962443,16.254414,2.8570642)"/><polygon id="polygon255_1_" transform="matrix(0.9977959,0,0,0.99962443,16.254414,2.8570642)" stroke="#000" points="0.502,202.45,129.83,202.39,174.98,169.83,174.91,0.5,47.092,0.683,1.214,32.31" fill="none"/><polyline id="polyline257_1_" transform="matrix(0.9977959,0,0,0.99962443,16.254414,2.8570642)" stroke="#000" points="129.83,202.39,129.15,32.559,174.67,0.683" fill="none"/><line id="line259_1_" stroke-width="0.99871" y2="35.555" x2="145.12" stroke="#000" y1="35.555" x1="18.096" fill="none"/><path id="path261_1_" fill="#605f5f" d="M150.62,200.98,190.3,172.31,190.05,53.586c-0.00099,0.000992-1.4338,101.62-39.433,147.4z"/><path id="path263_1_" fill="#7c7c7c" d="M188.59,5.9149,145.92,35.688l0.36618,86.303c0.00097,0-5.9868-79.226,42.307-116.08z"/><path id="path265_1_" fill="#e2e2e2" d="M138.27,3.9966,63.791,4.1346,31.845,26.051s50.625-23.053,106.43-22.055z"/><rect id="rect4203" style="stroke-dasharray:none;" fill-rule="evenodd" ry="6.513" height="145.97" width="106.31" stroke="#000" stroke-miterlimit="4" y="47.737" x="28.467" stroke-width="2.186" fill="url(#linearGradient2941)"/><polyline id="polyline267_1_" transform="matrix(0.9977959,0,0,0.99962443,16.254414,2.8570642)" stroke="#000" points="9.772,26.629,137.59,26.629,138.92,196.19" fill="none"/><path id="path4333" style="stroke-dasharray:none;" d="m17.659,138.87c0.12708-36.085,0.335-73.927,0.46204-84.094l0.23098-18.485h63.006,63.006l0.23146,53.158c0.12732,29.237,0.31365,67.079,0.41408,84.094l0.18261,30.937h-63.883-63.883l0.23106-65.609zm113.71,55.438c1.8897-0.79101,3.1003-1.9582,3.9548-3.8129,0.67789-1.4715,0.70631-4.2463,0.71439-69.742l0.009-68.209-0.86044-1.6872c-0.47327-0.92797-1.5217-2.2144-2.33-2.8588l-1.46-1.174-49.311-0.1c-44.963-0.09124-49.416-0.04499-50.539,0.5251-1.7533,0.88961-2.5367,1.6582-3.4717,3.4061l-0.81975,1.5325v68.578c0,65.957,0.02699,68.628,0.70622,69.876,0.87722,1.612,2.3796,3.0506,3.8828,3.7181,0.93418,0.41477,10.152,0.51217,49.631,0.52437,42.918,0.0136,48.646-0.0531,49.9-0.57796z" fill-rule="evenodd" stroke="#434343" stroke-miterlimit="4" stroke-width="1.53106713" fill="url(#linearGradient2937)"/></svg>