<?xml version="1.0" encoding="UTF-8" standalone="no"?>

<svg
 xmlns:dc="http://purl.org/dc/elements/1.1/"
   xmlns:cc="http://creativecommons.org/ns#"
   xmlns:rdf="http://www.w3.org/1999/02/22-rdf-syntax-ns#"
   xmlns:svg="http://www.w3.org/2000/svg"
   xmlns="http://www.w3.org/2000/svg"
   xmlns:xlink="http://www.w3.org/1999/xlink"
   xmlns:sodipodi="http://sodipodi.sourceforge.net/DTD/sodipodi-0.dtd"
   xmlns:inkscape="http://www.inkscape.org/namespaces/inkscape"
   id="svg2"
   version="1.1"
   inkscape:version="0.47 r22583"
   width="100"
   height="100"
   sodipodi:docname="image.svg">
  <metadata
     id="metadata40">
    <rdf:RDF>
      <cc:Work
         rdf:about="">
        <dc:format>image/svg+xml</dc:format>
        <dc:type
           rdf:resource="http://purl.org/dc/dcmitype/StillImage" />
      </cc:Work>
    </rdf:RDF>
  </metadata>
  <defs
     id="defs38">
    <linearGradient
       inkscape:collect="always"
       id="linearGradient3652">
      <stop
         style="stop-color:#c0e0ff;stop-opacity:1;"
         offset="0"
         id="stop3654" />
      <stop
         style="stop-color:#c0e0ff;stop-opacity:0;"
         offset="1"
         id="stop3656" />
    </linearGradient>
    <linearGradient
       inkscape:collect="always"
       id="linearGradient3644">
      <stop
         style="stop-color:#77aa00;stop-opacity:1;"
         offset="0"
         id="stop3646" />
      <stop
         style="stop-color:#77aa00;stop-opacity:0;"
         offset="1"
         id="stop3648" />
    </linearGradient>
    <linearGradient
       inkscape:collect="always"
       id="linearGradient3636">
      <stop
         style="stop-color:#318bd6;stop-opacity:1;"
         offset="0"
         id="stop3638" />
      <stop
         style="stop-color:#318bd6;stop-opacity:0;"
         offset="1"
         id="stop3640" />
    </linearGradient>
    <linearGradient
       inkscape:collect="always"
       id="linearGradient3628">
      <stop
         style="stop-color:#eb240e;stop-opacity:1;"
         offset="0"
         id="stop3630" />
      <stop
         style="stop-color:#eb240e;stop-opacity:0;"
         offset="1"
         id="stop3632" />
    </linearGradient>
    <linearGradient
       inkscape:collect="always"
       id="linearGradient3620">
      <stop
         style="stop-color:#a50000;stop-opacity:1;"
         offset="0"
         id="stop3622" />
      <stop
         style="stop-color:#a50000;stop-opacity:0;"
         offset="1"
         id="stop3624" />
    </linearGradient>
    <inkscape:perspective
       sodipodi:type="inkscape:persp3d"
       inkscape:vp_x="0 : 0.5 : 1"
       inkscape:vp_y="0 : 1000 : 0"
       inkscape:vp_z="1 : 0.5 : 1"
       inkscape:persp3d-origin="0.5 : 0.33333333 : 1"
       id="perspective42" />
    <linearGradient
       inkscape:collect="always"
       xlink:href="#linearGradient3620"
       id="linearGradient3626"
       x1="460.93799"
       y1="675.78198"
       x2="882.81299"
       y2="675.78198"
       gradientUnits="userSpaceOnUse" />
    <linearGradient
       inkscape:collect="always"
       xlink:href="#linearGradient3628"
       id="linearGradient3634"
       x1="578.125"
       y1="714.84302"
       x2="882.81299"
       y2="714.84302"
       gradientUnits="userSpaceOnUse" />
    <linearGradient
       inkscape:collect="always"
       xlink:href="#linearGradient3636"
       id="linearGradient3642"
       x1="93.75"
       y1="621.09399"
       x2="476.56201"
       y2="621.09399"
       gradientUnits="userSpaceOnUse" />
    <linearGradient
       inkscape:collect="always"
       xlink:href="#linearGradient3644"
       id="linearGradient3650"
       x1="328.125"
       y1="343.74951"
       x2="820.31299"
       y2="343.74951"
       gradientUnits="userSpaceOnUse" />
    <linearGradient
       inkscape:collect="always"
       xlink:href="#linearGradient3652"
       id="linearGradient3658"
       x1="70.3125"
       y1="492.18701"
       x2="914.06201"
       y2="492.18701"
       gradientUnits="userSpaceOnUse" />
  </defs>
  <sodipodi:namedview
     pagecolor="#ffffff"
     bordercolor="#666666"
     borderopacity="1"
     objecttolerance="10"
     gridtolerance="10"
     guidetolerance="10"
     inkscape:pageopacity="0"
     inkscape:pageshadow="2"
     inkscape:window-width="1280"
     inkscape:window-height="1002"
     id="namedview36"
     showgrid="false"
     inkscape:zoom="0.44851479"
     inkscape:cx="188.89634"
     inkscape:cy="294.3795"
     inkscape:window-x="1272"
     inkscape:window-y="-8"
     inkscape:window-maximized="1"
     inkscape:current-layer="svg2" />
  <title
     id="title4">Symbol library: image.svg</title>
  <polygon
     points="1007.81,0 1007.81,1007.81 1007.81,1007.81 0,1007.81 0,0 "
     style="fill:#ffffff;fill-opacity:0;stroke:none"
     id="polygon6"
     transform="scale(0.09922505,0.09922505)" />
  <polygon
     points="1007.81,1007.81 1007.81,47.2411 984.189,0 0,0 0,976.316 70.8616,1007.81 70.8616,1007.81 "
     style="fill:#999999;fill-opacity:1;stroke:none"
     id="polygon8"
     transform="scale(0.09922505,0.09922505)" />
  <polygon
     points="984.375,0 0,0 0,984.375 7.875,984.375 7.875,984.375 984.375,984.375 "
     style="fill:#000000;fill-opacity:1;stroke:none"
     id="polygon10"
     transform="scale(0.09922505,0.09922505)" />
  <polygon
     points="968.75,968.75 15.625,968.75 15.625,968.75 15.625,15.625 968.75,15.625 "
     style="fill:#ffffff;fill-opacity:1;stroke:none"
     id="polygon12"
     transform="scale(0.09922505,0.09922505)" />
  <polygon
     points="929.687,54.688 54.6875,54.688 54.6875,929.688 62.5704,929.688 62.5704,929.688 929.687,929.688 "
     style="fill:#000000;fill-opacity:1;stroke:none"
     id="polygon14"
     transform="scale(0.09922505,0.09922505)" />
  <polygon
     points="914.062,914.062 70.3125,914.062 70.3125,914.062 70.3125,70.312 914.062,70.312 "
     style="fill:url(#linearGradient3658);fill-opacity:1;stroke:none"
     id="polygon16"
     transform="scale(0.09922505,0.09922505)" />
  <polygon
     points="574.218,140.625 566.295,148.594 566.295,148.594 296.875,539.063 851.563,539.063 "
     style="fill:#000000;fill-opacity:1;stroke:none"
     id="polygon18"
     transform="scale(0.09922505,0.09922505)" />
  <polygon
     points="574.218,164.062 820.313,523.437 328.125,523.437 574.218,164.062 "
     style="fill:url(#linearGradient3650);fill-opacity:1;stroke:none"
     id="polygon20"
     transform="scale(0.09922505,0.09922505)" />
  <polygon
     points="453.125,476.562 453.125,811.25 564.453,875 898.437,875 898.437,556.25 763.252,476.562 763.252,476.562 "
     style="fill:#333333;fill-opacity:1;stroke:none"
     id="polygon22"
     transform="scale(0.09922505,0.09922505)" />
  <polygon
     points="882.813,564.029 882.813,859.376 564.416,859.376 460.938,803.5 460.938,492.188 763.414,492.188 763.414,492.188 "
     style="fill:url(#linearGradient3626);fill-opacity:1;stroke:none"
     id="polygon24"
     transform="scale(0.09922505,0.09922505)" />
  <polygon
     points="882.813,570.312 882.813,859.374 882.813,859.374 578.125,859.374 578.125,570.312 "
     style="fill:url(#linearGradient3634);fill-opacity:1;stroke:none"
     id="polygon26"
     transform="scale(0.09922505,0.09922505)" />
  <polygon
     points="469.21,492.188 460.938,500.71 460.938,500.71 593.291,585.938 601.563,577.415 "
     style="fill:#ff9999;fill-opacity:1;stroke:none"
     id="polygon28"
     transform="scale(0.09922505,0.09922505)" />
  <polygon
     points="285.156,828.124 324.969,828.124 364.783,812.2 404.597,796.273 428.485,772.385 460.336,740.534 476.262,700.72 492.187,660.907 492.187,621.094 492.187,581.28 476.262,541.466 460.336,501.653 428.485,477.764 404.597,445.913 364.783,429.988 324.969,414.062 285.156,414.062 245.343,414.062 205.529,429.988 165.715,445.913 141.827,477.764 109.976,501.653 94.0505,541.466 78.125,581.28 78.125,621.094 78.125,621.094 78.125,660.907 94.0505,700.72 109.976,740.534 141.827,772.385 165.715,796.273 205.529,812.2 245.343,828.124 "
     style="fill:#3f2819;fill-opacity:1;stroke:none"
     id="polygon30"
     transform="scale(0.09922505,0.09922505)" />
  <polygon
     points="285.156,429.688 325.032,429.688 356.933,445.637 396.81,461.589 420.735,485.514 444.661,509.439 460.611,549.316 476.562,581.217 476.562,621.094 476.562,660.97 460.611,700.845 444.661,732.746 420.735,756.673 396.81,780.599 356.933,796.548 325.032,812.5 285.156,812.5 245.28,812.5 213.379,796.548 173.503,780.599 149.577,756.673 125.651,732.746 109.701,700.845 93.75,660.97 93.75,621.094 93.75,621.094 93.75,581.217 109.701,549.316 125.651,509.439 149.577,485.514 173.503,461.589 213.379,445.637 245.28,429.688 "
     style="fill:url(#linearGradient3642);fill-opacity:1;stroke:none"
     id="polygon32"
     transform="scale(0.09922505,0.09922505)" />
  <use
     href="#oid1"
     id="use34"
     x="0"
     y="0"
     width="744.09448"
     height="1052.3622"
     transform="translate(0,-907.81)" />
</svg>
