<?xml version="1.0" encoding="UTF-8" standalone="no"?>
<svg id="svg2" xmlns:rdf="http://www.w3.org/1999/02/22-rdf-syntax-ns#" xmlns="http://www.w3.org/2000/svg" enable-background="new -0.059 -0.316 214 204" xml:space="preserve" height="204px" width="214px" version="1.1" y="0px" x="0px" xmlns:cc="http://creativecommons.org/ns#" xmlns:xlink="http://www.w3.org/1999/xlink" viewBox="-0.059 -0.316 214 204" xmlns:dc="http://purl.org/dc/elements/1.1/"><metadata id="metadata311"><rdf:RDF><cc:Work rdf:about=""><dc:format>image/svg+xml</dc:format><dc:type rdf:resource="http://purl.org/dc/dcmitype/StillImage"/><dc:title/></cc:Work></rdf:RDF></metadata>
<defs id="defs4"><filter id="filter4246"><feGaussianBlur id="feGaussianBlur4248" stdDeviation="2.1477881"/></filter><linearGradient id="linearGradient4288" y2="64.961" gradientUnits="userSpaceOnUse" x2="59.552" gradientTransform="matrix(0.95295961,0,0,0.95295961,6.8190074,5.4552263)" y1="146.11" x1="146.97"><stop id="stop4058" stop-color="#8d6018" offset="0"/><stop id="stop4060" stop-color="#d68f1c" offset="1"/></linearGradient></defs>
<g id="g4250" transform="matrix(0.96631226,0,0,0.96631226,1.1051449,1.9346562)"><path id="path241-8" opacity="0.5" d="m16.349,84.408c-1.7201-10.322,1.4895-31.278,10.724-38.428,9.2342-7.1491,13.405-11.915,21.746-12.213,8.3422-0.29828,18.47,0,25.917-3.8728,7.4474-3.8719,15.192-8.9369,19.661-10.127,4.4675-1.1922,24.425-3.2782,32.173-1.7878,7.7447,1.4895,22.341,5.3623,31.576,14.596,9.2342,9.2351,14.596,13.405,20.553,14.895,5.9588,1.4885,19.067,4.7667,17.875,18.469-1.1912,13.703-1.9374,20.107,4.9154,28.746,6.8508,8.6395,13.255,23.087,13.852,27.555,0.59464,4.4684,0,11.32-6.8518,16.684-6.8518,5.3604-14.299,15.787-16.383,26.509-2.086,10.727-6.5535,22.342-10.426,26.216-3.8728,3.8709-16.384,5.6587-24.428,5.6587-8.042,0-22.937,2.3843-30.681,4.7705-7.7466,2.3805-24.725,9.5296-39.621,4.1673-14.893-5.3604-24.724-15.191-32.171-22.936-7.4474-7.7466-25.024-15.787-30.386-22.045-5.3623-6.2552-10.426-14.894-8.042-31.278,2.3824-16.387,3.2763-25.919-0.00095-45.58z" filter="url(#filter4246)" fill="#000"/><path id="path239" fill="#e0c398" d="m76.765,13.091c15.322-11.778,60.9-11.036,78.376,10.046,13.015,15.704,21.732,8.326,32.85,19.443,7.8762,7.8772,1.9383,23.606,5.2784,33.169,7.6799,21.977,18.625,23.004,16.719,39.889-1.6915,14.992-16.595,16.407-21.611,32.838-5.7911,18.97-7.2911,46.691-42.078,41.575-23.306-3.4288-63.746,27.552-93.771-9.8679-22.086-27.54-30.527-13.62-42.935-38.76-7.7161-15.63,3.398-33.89,0.669-50.363-2.8379-17.145-6.9909-42.831,10.021-59.841,18.132-18.133,35.555-2.05,56.481-18.135z"/><path id="path241" fill="#cfaa7a" d="M9.472,73.961c-1.72-10.323,1.49-31.278,10.724-38.428s13.405-11.915,21.745-12.214c8.3422-0.29828,18.47,0,25.917-3.8728,7.4474-3.8719,15.192-8.9369,19.661-10.127,4.4675-1.1922,24.425-3.2782,32.173-1.7878,7.7447,1.4895,22.341,5.3623,31.576,14.596,9.2342,9.2351,14.596,13.405,20.553,14.895,5.9588,1.4885,19.067,4.7667,17.875,18.469-1.1912,13.703-1.9374,20.107,4.9154,28.746,6.8508,8.6395,13.255,23.087,13.852,27.555,0.59464,4.4684,0,11.32-6.8518,16.684-6.8518,5.3604-14.299,15.787-16.383,26.509-2.086,10.727-6.5535,22.342-10.426,26.216-3.8728,3.8709-16.384,5.6587-24.428,5.6587-8.042,0-22.937,2.3843-30.681,4.7705-7.7466,2.3805-24.725,9.5296-39.621,4.1673-14.9-5.36-24.731-15.19-32.178-22.94-7.447-7.74-25.024-15.78-30.386-22.04s-10.426-14.9-8.042-31.28c2.382-16.39,3.276-25.918-0.001-45.579z"/><path id="path243" fill="#ddb78a" d="m24.515,68.003c2.5072-15.668,17.427-31.279,27.258-36.194,9.8307-4.9144,16.98-6.7022,22.788-9.3828,5.8083-2.6807,12.959,0.44598,23.235-2.2356,10.279-2.6807,33.961-8.9359,42.005,0.44789,8.0411,9.3838,19.661,18.321,29.043,21.448,9.3838,3.1276,18.766,16.979,18.322,27.703-0.44789,10.725,2.6807,22.789,5.8092,28.598,3.1276,5.8083,1.7868,23.235-3.5755,33.065-5.3614,9.8307-9.8298,21.898-12.511,28.598-2.6807,6.7022-15.192,20.107-27.258,21.898-12.064,1.7868-22.342,4.0186-33.96,7.1472s-31.279,2.6797-43.343-4.0224c-12.054-6.71-29.479-21.01-34.843-24.58-5.362-3.58-18.321-17.43-18.766-30.39-0.448-12.96-4.468-20.1-4.022-34.849,0.228-7.607,8.042-16.088,9.829-27.258z"/><path id="path245" fill="#eac9a4" d="m138.33,25.857c10.415,10.415,20.347,16.662,31.547,23.719,6.5478,4.1273,12.825,16.993,12.825,26.916,0,9.0331,6.7012,22.639,6.7012,32.174,0,12.871-8.7272,21.239-11.461,34.562-2.5034,12.201-9.5134,17.729-18.954,25.638-9.0808,7.6037-19.479,13.639-34.489,13.639-7.5941,0-11.505,4.802-24.016,4.802-16.681,0-25.959-5.3604-39.005-13.535-9.257-5.7978-19.294-11.355-25.7-20.167-6.0094-8.2679-10.365-17.308-10.365-27.813,0-8.9149-8.1154-16.241-5.8073-26.066,2.8312-12.064,9.0331-16.052,10.828-29.15,2.3652-17.246,29.385-40.858,46.554-44.578,8.9149-1.9316,18.196-1.1502,27.517-3.5746,12.022-3.1276,25.833-4.5599,33.825,3.4326z"/><circle id="circle247" d="m 179.869,103.146 c 0,42.72917 -34.63884,77.368 -77.368,77.368 -42.729165,0 -77.367997,-34.63883 -77.367997,-77.368 0,-42.729161 34.638832,-77.367992 77.367997,-77.367992 42.72916,0 77.368,34.638831 77.368,77.367992 z" transform="matrix(0.95295961,0,0,0.95295961,6.8190074,5.4552263)" cy="103.15" cx="102.5" r="77.368" fill="#efd6bd"/><circle id="circle249" d="m 173.572,103.146 c 0,39.25088 -31.81912,71.07 -71.07,71.07 -39.250878,0 -71.070001,-31.81912 -71.070001,-71.07 0,-39.250873 31.819123,-71.069996 71.070001,-71.069996 39.25088,0 71.07,31.819123 71.07,71.069996 z" transform="matrix(0.95295961,0,0,0.95295961,6.8190074,5.4552263)" cy="103.15" cx="102.5" r="71.07" fill="#f7e3d0"/><circle id="circle251" d="m 171.323,103.146 c 0,38.00879 -30.81221,68.821 -68.821,68.821 -38.008789,0 -68.821,-30.81221 -68.821,-68.821 0,-38.008785 30.812211,-68.820995 68.821,-68.820995 38.00879,0 68.821,30.81221 68.821,68.820995 z" transform="matrix(0.95295961,0,0,0.95295961,6.8190074,5.4552263)" cy="103.15" cx="102.5" r="68.821" fill="#e5c5a8"/><path id="path253" fill="#FFF" d="m77.689,15.276c4.9382-3.95,10.502-4.9163,15.638-5.5862,5.1403-0.66993,23.46-3.1276,32.396,0-5.1384-0.22395-24.798-0.44694-29.044,0.44694-4.2435,0.89292-11.617,1.7878-18.99,5.1393z"/><path id="path255" fill="#a07f58" d="m192.97,98.388c3.7975,7.2997,3.2763,15.117-0.0734,23.61,1.1902-8.6414,2.6054-14.226,0.0734-23.61z"/><path id="path257" fill="#cfaa7a" d="m20.94,78.727c1.5648-7.0386,1.7878-7.82,2.2347-12.625,0.44694-4.8039,2.7922-10.5,7.3721-16.755,4.5799-6.2552,11.731-13.294,15.528-15.528,3.7966-2.2337,8.4899-4.0205,12.957-5.4728-9.4953,6.0322-11.282,4.356-19.325,12.957-8.042,8.6024-12.51,17.538-13.181,20.221-0.66993,2.6797-1.7878,8.1545-2.5692,10.165-0.78143,2.0107-1.4523,5.0259-3.0171,7.0376z"/><path id="path259" fill="#cfaa7a" d="m96.307,23.914c6.4058-1.5638,9.3848-1.8611,12.585-2.5311,3.2029-0.67184,8.9378-1.4904,11.47-1.4151,2.532,0.07528,9.3095,0.29828,11.841,1.7125,2.532,1.4142,6.4792,4.0215,8.4165,6.6288-4.4684-3.1286-9.3838-5.288-13.258-5.8092-3.8719-0.52222-11.245-0.89388-16.979,0-5.7359,0.89292-10.948,0.74426-14.076,1.4142z"/><path id="path261" fill="#e5c5a8" d="m58.996,170.92c5.511,3.9481,13.851,8.9359,18.469,10.871,4.6171,1.9393,9.8298,3.3544,17.948,4.4703-8.4899-1.7868-14.125-3.5012-18.692-5.5853-4.2445-1.9355-14.745-7.9696-17.725-9.7564z"/><path id="path263" fill="#cfaa7a" d="m199.9,93.695c-1.3408-2.0098-5.7349,1.64-4.0968,4.6924,1.6381,3.0533,2.309,16.31-0.0734,21.821-2.3834,5.511-5.51,11.99-5.51,14.447,0,2.4567,1.6372,4.618,3.7966,2.0117s8.7892-8.4909,10.278-10.278c1.4885-1.7887,6.7012-6.2552,4.618-14.373-2.0851-8.1183-4.3941-13.629-9.0121-18.322z"/><path id="path265" fill="#a07f58" d="m199.9,93.695c4.1339,5.976,5.53,9.9403,6.1447,11.618,0.61371,1.6753,1.6763,8.9359,0.72425,12.455-0.9482,3.5193,2.0689,2.2747,2.4586-2.1775,0.55748-6.3677-1.1188-10.362-2.9599-13.741-2.0107-3.6851-3.3516-5.2508-6.3677-8.1545z"/><path id="path267" fill="#e5c5a8" d="M21.276,38.958c-4.44,4.105-8.602,7.15-11.357,17.874,1.788-13.405,4.468-14.447,6.405-17.575,1.935-3.127,8.949-10.881,14.784-13.368,3.4059-1.4514,9.4934-3.0152,13.665-2.8675,4.1711,0.14866,1.5428,3.8423-4.7295,5.8836-6.4048,2.0841-11.395,3.2391-18.768,10.054z"/><path id="path269" fill="#a07f58" d="m57.468,182.84c9.6077,6.8156,14.076,11.618,23.908,12.736,9.8298,1.115,20.107,0.33353,25.024,0-9.6087,2.7903-22.899,2.3452-29.492,0-6.5907-2.349-11.953-5.6997-19.439-12.736z"/><path id="path271" fill="#FFF" d="m44.474,23.84c0.52794,0.02382-1.6372,2.2347-4.7667,2.9046-3.1276,0.66993-5.8836,1.4895-7.597,2.1604-1.7125,0.66993-0.59465-0.89388,0.67088-1.7125,1.2665-0.81954,4.842-3.6498,11.693-3.3525z"/><path id="path273" fill="#efd6bd" d="m19.488,107.32c1.2293,4.132,2.5692,7.9305,3.5755,9.7173,1.0063,1.7887,2.4567,7.598,2.3452,9.8288,0.66993-3.3506,0.1115-7.1491-1.4514-10.611-1.5648-3.4621-3.9109-5.8054-4.4694-8.935z"/><path id="path275" fill="#a07f58" d="m9.0994,122.29c-0.29732,6.8527,0.96916,14.486,2.532,17.501,1.5648,3.0152,4.2816,9.5334,9.3095,14.335-4.8401-3.3878-8.8997-10.834-9.9051-13.068-1.0054-2.2347-3.5746-8.7863-1.9364-18.769z"/><path id="path277" fill="#e5c5a8" d="m24.143,145.75c3.0542,5.288,7.6475,9.8326,9.7011,11.674,2.6797,2.4015,8.3212,6.3677,15.025,11.564-6.331-5.28-10.576-8.71-13.405-10.79-2.83-2.09-6.405-5.29-11.321-12.44z"/><path id="path279" fill="#e5c5a8" d="m151.53,32.032c3.0714,2.7922,7.5389,5.8655,10.277,6.9814-3.3516-2.066-7.3168-4.5799-10.277-6.9814z"/><path id="path281" fill="#a07f58" d="m162.74,45.139c3.6498,2.8293,8.4899,7.0757,9.6821,8.6395,1.1912,1.5629,4.6914,4.1702,5.8083,6.3305-1.8602-4.841-3.6489-6.4801-5.4347-8.1935-1.7878-1.7115-8.0439-5.3614-10.056-6.7765z"/><path id="path283" d="m76.176,65.657,3.9948,45.012c0,1.9278,2.9494,1.2846,2.9494,1.2846l17.941-11.56c2.3042-1.337,2.2109,1.499,2.2109,1.499v9.8469s0.46028,0.72425,1.6591-0.24014l15.791-11.107c2.2128-1.0692,2.4577,0.85672,2.4577,0.85672v10.489s0.18392,0.72425,1.5676,0l15.392-11.132c2.856-1.7134,3.2248,1.2579,3.2248,1.2579v9.8736h5.0697s1.3808-0.24014,1.3808,1.3666l2.3043,33.639c-0.0915,2.086-3.5021,2.248-3.5021,2.248l-90.322-0.21632c-2.2118,0-1.4752-2.3548-1.4752-2.3548l6.3905-80.711,12.965-0.05241z" stroke="#e5ae4c" stroke-width="0.9529596" fill="url(#linearGradient4288)"/><rect id="rect285" height="11.642" width="6.7279" stroke="#dda431" y="119.51" x="80.141" stroke-width="0.95296" fill="#FFF"/><rect id="rect287" height="11.64" width="6.7288" stroke="#dda431" y="119.35" x="93.32" stroke-width="0.95296" fill="#FFF"/><rect id="rect289" height="11.64" width="6.7279" stroke="#dda431" y="119.35" x="106.68" stroke-width="0.95296" fill="#FFF"/><rect id="rect291" height="11.64" width="6.7279" stroke="#dda431" y="119.35" x="120.05" stroke-width="0.95296" fill="#FFF"/><rect id="rect293" height="11.64" width="6.7288" stroke="#dda431" y="119.35" x="133.32" stroke-width="0.95296" fill="#FFF"/><polygon id="polygon295" points="59,67.513,73.168,67.513,73.41,70.672,58.661,70.645" fill="#e5ae4c" transform="matrix(0.95295961,0,0,0.95295961,6.8190074,5.4552263)"/><path id="path297" d="m72.012,64.746s5.895-9.7802,11.01-7.2473c0,0,12.361,3.4326,14.507-4.821,1.3475-5.1822,6.7384-4.1301,10.526-4.3893,4.4579-0.3059,9.0026-1.7554,13.398-2.6473,2.1689-0.44027,4.6762-0.86338,7.03-1.1578,0,0,6.9318-0.55272-3.7985,2.2995-2.6025,0.69185-6.8013,1.3132-9.4553,1.9393-2.5806,0.60989-1.3808,2.5454-4.0215,2.6149-2.2509,0.05908-5.4624-0.32401-7.7123,0.08005-0.83194,0.14962-1.8812,0.42883-2.5225,1.0749-1.0463,1.0521-0.45932,1.3532-0.34878,2.5892,0,0.000953,0.47267,5.329-9.2532,5.1527-2.2499-0.04002-4.5027-0.45552-6.767-0.48315-1.479-0.01906-3.0771-0.06861-4.5275,0.32496-1.3799,0.37547-2.5311,1.7573-3.9481,2.3062-1.0673,0.41168-3.627,1.0692-4.1168,2.3643z" stroke="#CCC" stroke-width="0.4764798" fill="#f9f9f9"/><rect id="rect299" height="19.672" width="9.5039" stroke="#efbc4b" y="129.08" x="65.156" stroke-width="0.95296" fill="#FFF"/><circle id="circle301" stroke-width="0.5" d="m 64.800999,140.957 c 0,0.55229 -0.447716,1 -1,1 -0.552285,0 -1,-0.44771 -1,-1 0,-0.55228 0.447715,-1 1,-1 0.552284,0 1,0.44772 1,1 z" transform="matrix(0.95295961,0,0,0.95295961,6.8190074,5.4552263)" stroke="#efbc4b" cy="140.96" cx="63.801" r="1" fill="#a07310"/><path id="path303" fill="#e5ae4c" d="m84.552,113.16,18.264-11.713c0.0562-0.51651-0.16772-0.81383-0.16772-0.81383-0.32782-0.56606-1.0273-0.14866-1.0273-0.14866l-18.21,11.734s-0.34211,0.40215,0.06861,0.94153c0,0,0.4822,0.45742,1.0721,0z"/><path id="path305" fill="#e5ae4c" d="m104.84,112.05,16.18-11.4s0.83384-0.58035,1.459-0.10387c0,0,0.34783,0.18868,0.26778,0.9034l-16.638,11.832s-1.032,0.79477-1.5085,0.08c0.00095-0.00096-0.63468-0.59656,0.23919-1.3113z"/><path id="path307" fill="#e5ae4c" d="m125.13,111.92,15.515-11.197s0.95296-0.50602,1.3999-0.26778c0,0,0.7738,0.11912,0.86338,1.2808l-16.29,11.555s-1.2503,0.95296-1.8764,0.17916c0.00095-0.00096-0.68422-0.80525,0.38785-1.5495z"/></g>
</svg>