<?xml version="1.0" encoding="UTF-8" standalone="no"?>
<svg id="svg2" xmlns:rdf="http://www.w3.org/1999/02/22-rdf-syntax-ns#" xmlns="http://www.w3.org/2000/svg" enable-background="new -0.47 -0.468 201 201" xml:space="preserve" height="219" width="219" version="1.1" y="0px" x="0px" xmlns:cc="http://creativecommons.org/ns#" xmlns:xlink="http://www.w3.org/1999/xlink" viewBox="-0.47 -0.468 219 219" xmlns:dc="http://purl.org/dc/elements/1.1/"><metadata id="metadata245"><rdf:RDF><cc:Work rdf:about=""><dc:format>image/svg+xml</dc:format><dc:type rdf:resource="http://purl.org/dc/dcmitype/StillImage"/><dc:title/></cc:Work></rdf:RDF></metadata>
<defs id="defs4"><filter id="filter4206" color-interpolation-filters="sRGB"><feGaussianBlur id="feGaussianBlur4208" stdDeviation="1.2613468"/></filter><linearGradient id="linearGradient3319" y2="23.441" gradientUnits="userSpaceOnUse" x2="58.162" y1="99.658" x1="153.17"><stop id="stop4000" stop-color="#00005c" offset="0"/><stop id="stop4014" stop-color="#073980" offset="0.25012"/><stop id="stop4010" stop-color="#083779" offset="0.51628"/><stop id="stop4012" stop-color="#6d97dd" offset="0.78835"/><stop id="stop4002" stop-color="#fcf0f0" offset="1"/></linearGradient></defs>
<g id="g4210" transform="matrix(1.863832,0,0,1.863832,-88.076182,-4.2455137)"><path id="path4204" opacity="0.5" d="m180.6,77.292c0,31.665-25.669,57.334-57.334,57.334s-57.334-25.669-57.334-57.334,25.669-57.334,57.334-57.334,57.334,25.669,57.334,57.334z" fill-rule="evenodd" transform="matrix(0.93351063,0,0,0.93825987,-7.4241557,-10.030141)" filter="url(#filter4206)" stroke-miterlimit="4" stroke-width="0" fill="#000"/><circle id="circle247" stroke-width="2" d="m 160.948,58.306 c 0,31.649781 -25.65722,57.307 -57.307,57.307 -31.649783,0 -57.307,-25.657219 -57.307,-57.307 0,-31.649782 25.657217,-57.30699945 57.307,-57.30699945 31.64978,0 57.307,25.65721745 57.307,57.30699945 z" cx="103.64" cy="58.306" transform="matrix(0.91150196,0,0,0.91150196,8.5986816,6.8799832)" stroke="#cae7ff" r="57.307" fill="url(#linearGradient3319)"/><path id="path249" d="M94.378,32.873v-15.472h16.724v15.473h-16.722zm0,71.768v-63.198h16.724v63.199h-16.724z" fill="#FFF"/></g></svg>