<?xml version="1.0" encoding="UTF-8" standalone="no"?>
<svg
   xmlns:dc="http://purl.org/dc/elements/1.1/"
   xmlns:cc="http://creativecommons.org/ns#"
   xmlns:rdf="http://www.w3.org/1999/02/22-rdf-syntax-ns#"
   xmlns:svg="http://www.w3.org/2000/svg"
   xmlns="http://www.w3.org/2000/svg"
   xmlns:sodipodi="http://sodipodi.sourceforge.net/DTD/sodipodi-0.dtd"
   xmlns:inkscape="http://www.inkscape.org/namespaces/inkscape"
   id="svg2"
   viewBox="0 0 219 219"
   version="1.1"
   height="219"
   width="219"
   inkscape:version="0.47 r22583"
   sodipodi:docname="infrastructurefunction.svg">
  <sodipodi:namedview
     pagecolor="#ffffff"
     bordercolor="#666666"
     borderopacity="1"
     objecttolerance="10"
     gridtolerance="10"
     guidetolerance="10"
     inkscape:pageopacity="0"
     inkscape:pageshadow="2"
     inkscape:window-width="1258"
     inkscape:window-height="741"
     id="namedview26"
     showgrid="false"
     inkscape:zoom="2.2557078"
     inkscape:cx="113.9332"
     inkscape:cy="109.5"
     inkscape:window-x="0"
     inkscape:window-y="224"
     inkscape:window-maximized="0"
     inkscape:current-layer="svg2" />
  <defs
     id="defs4">
    <inkscape:perspective
       sodipodi:type="inkscape:persp3d"
       inkscape:vp_x="0 : 109.5 : 1"
       inkscape:vp_y="0 : 1000 : 0"
       inkscape:vp_z="219 : 109.5 : 1"
       inkscape:persp3d-origin="109.5 : 73 : 1"
       id="perspective28" />
    <inkscape:perspective
       id="perspective2842"
       inkscape:persp3d-origin="0.5 : 0.33333333 : 1"
       inkscape:vp_z="1 : 0.5 : 1"
       inkscape:vp_y="0 : 1000 : 0"
       inkscape:vp_x="0 : 0.5 : 1"
       sodipodi:type="inkscape:persp3d" />
    <inkscape:perspective
       id="perspective3665"
       inkscape:persp3d-origin="0.5 : 0.33333333 : 1"
       inkscape:vp_z="1 : 0.5 : 1"
       inkscape:vp_y="0 : 1000 : 0"
       inkscape:vp_x="0 : 0.5 : 1"
       sodipodi:type="inkscape:persp3d" />
  </defs>
  <metadata
     id="metadata7">
    <rdf:RDF>
      <cc:Work
         rdf:about="">
        <dc:format>image/svg+xml</dc:format>
        <dc:type
           rdf:resource="http://purl.org/dc/dcmitype/StillImage" />
        <dc:title />
      </cc:Work>
    </rdf:RDF>
  </metadata>
  <g
     id="Infrastructure">
    <path
       id="rect4304"
       d="m 24.733115,44.801929 115.423015,0 c 0.0487,0 0.0879,0.03918 0.0879,0.08785 l 0,152.204431 c 0,0.0487 -0.0392,0.0879 -0.0879,0.0879 l -115.423015,0 c -0.04867,0 -0.08785,-0.0392 -0.08785,-0.0879 l 0,-152.204431 c 0,-0.04867 0.03918,-0.08785 0.08785,-0.08785 z"
       style="fill:#535555;fill-opacity:1" />
    <path
       id="lid"
       d="M 19.21,34.7 147,35.4 192,3.05 65.6,3.05 z"
       style="fill:#b6b8ba" />
    <path
       id="side"
       d="M 190.46988,172.62432 191.13993,3.4710041 145.56906,35.075999 146.56686,204.6123 190.46988,172.62432 z"
       style="fill:#9b9d9d;fill-opacity:1" />
    <path
       id="path60"
       style="fill:#5f605f;fill-opacity:1"
       d="m 151,201 40,-29 0,-118.6 c -9.8e-4,9.92e-4 -1.43,102 -39.4,147 z" />
    <path
       id="path62"
       d="m 189,5.75 -42.7,29.8 0.366,86.3 c 9.8e-4,0 -5.99,-79.2 42.3,-116 z"
       style="fill:#7c7c7c" />
    <path
       id="path64"
       d="M 139,3.83 64.4,3.97 32.4,25.9 c 0,0 50.6,-23.1 106,-22.1 z"
       style="fill:#e2e2e2" />
    <path
       id="path70"
       style="fill:#9b9d9d;fill-opacity:1;"
       d="m 18.3,139 c 0.127,-36.1 0.335,-73.9 0.462,-84.1 l 0.231,-18.5 h 126 l 0.231,53.2 c 0.127,29.2 0.314,67.1 0.414,84.1 l 0.183,30.9 h -128 L 18.052,139 z m 114,55.4 c 1.89,-0.791 3.1,-1.96 3.95,-3.81 0.678,-1.47 0.706,-4.25 0.714,-69.7 l 0.009,-68.2 -0.86,-1.69 c -0.473,-0.928 -1.52,-2.21 -2.33,-2.86 l -1.47,-1.18 -49.3,-0.1 c -45,-0.0912 -49.4,-0.045 -50.5,0.525 -1.75,0.89 -2.54,1.66 -3.47,3.41 l -0.82,1.53 v 68.6 c 0,66 0.027,68.6 0.706,69.9 0.877,1.61 2.38,3.05 3.88,3.72 0.934,0.415 10.2,0.512 49.6,0.524 42.9,0.0136 48.6,-0.0531 49.9,-0.578 z" />
    <path
       id="frontcovergap"
       d="m 26.61308,28.772117 0,0.999625 127.43725,0 0.99779,168.842818 0.9978,0 -0.9978,-169.342631 0,-0.499812 -0.4989,0 -127.93614,0 z"
       style="fill:#000000;fill-opacity:1;stroke:none;" />
    <path
       id="topborder"
       d="m 18.6875,34.90625 0,1 127.3125,0 0,-1 -127.3125,0 z"
       style="fill:#000000;fill-opacity:1;stroke:none;" />
    <path
       id="sideborder"
       d="M 191.18704,2.9693116 C 175.81546,13.65382 160.43821,24.33018 145.07016,35.01977 c 0.32966,56.530861 0.66569,113.06168 0.9978,169.59253 2.26617,-4.82741 0.44785,-10.48571 0.90497,-15.72985 C 146.67127,137.7615 146.36962,86.640539 146.06796,35.519582 161.29474,24.940223 176.52152,14.360865 191.7483,3.7815064 191.56121,3.5107748 191.37413,3.2400432 191.18704,2.9693116 z"
       style="color:#000000;fill:#000000;fill-opacity:1" />
    <path
       id="outsideborder"
       d="m 191.46767,2.6881672 -127.62433,0.1874296 -0.155906,0 -0.124724,0.093715 -45.773887,31.5818842 -0.218268,0.156191 0,0.281145 -0.717166,169.623768 0,0.49981 0.498898,0 129.214573,0 0.1559,0 0.12473,-0.0937 44.90081,-31.98798 0.21827,-0.15619 0,-0.24991 0,-169.4363404 0,-0.4998122 -0.4989,0 z m -0.4989,0.9996244 0,168.6866184 -44.55782,31.73808 -128.559765,0 L 18.568351,35.238438 63.999245,3.8752212 190.96877,3.6877916 z"
       style="fill:#000000;fill-opacity:1;stroke:none" />
  </g>
  <path
     style="color:#000000;fill:#775919;fill-opacity:1;fill-rule:nonzero;stroke:#2b2b2b;stroke-width:0.50000000000000000;marker:none;visibility:visible;display:inline;overflow:visible;enable-background:accumulate;stroke-linecap:butt;stroke-linejoin:miter;stroke-miterlimit:4;stroke-opacity:1;stroke-dasharray:none;stroke-dashoffset:0"
     d="m 182.05237,119.5184 c -17.24834,-16.99402 -45.00869,-16.78786 -62.00272,0.46048 -16.99404,17.24836 -16.78785,45.00869 0.46049,62.00272 17.24835,16.99404 45.00867,16.78787 62.00271,-0.46048 16.99404,-17.24835 16.78787,-45.00868 -0.46048,-62.00272 z m -21.92745,22.92348 c 4.99977,4.92606 5.03738,12.96483 0.11132,17.9646 -4.92606,4.99978 -12.96449,5.08158 -17.96426,0.15551 -4.99979,-4.92605 -5.05966,-12.98674 -0.13359,-17.98653 4.92606,-4.99977 12.98675,-5.05963 17.98653,-0.13358 z"
     id="path4151" />
  <path
     style="color:#000000;fill:#8d6a1e;fill-opacity:1;fill-rule:nonzero;stroke:#2b2b2b;stroke-width:0.5;stroke-miterlimit:4;stroke-opacity:1;stroke-dasharray:none;marker:none;visibility:visible;display:inline;overflow:visible;enable-background:accumulate"
     d="m 157.60464,113.22397 -5.45977,21.95635 c -5.0522,-0.36579 -9.89404,1.68648 -13.17362,5.32203 l -19.20572,-11.98895 -2.94994,4.74073 19.20571,11.98896 c -0.27784,0.6909 -0.54763,1.42533 -0.73246,2.16859 -1.05497,4.24257 -0.28094,8.49017 1.75073,11.99574 l -17.34571,14.58911 3.5752,4.2702 17.3457,-14.58911 c 1.82942,1.53951 4.00759,2.70323 6.48443,3.31913 2.47685,0.61591 4.9767,0.61545 7.31411,0.11208 l 8.46211,21.0066 5.18915,-2.09081 -8.49997,-20.98382 c 3.45771,-2.14391 6.11347,-5.54895 7.17279,-9.80898 0.18482,-0.74326 0.29033,-1.51854 0.36854,-2.25908 l 22.58414,-1.5973 -0.41629,-5.5778 -22.55381,1.60484 c -1.19135,-4.7551 -4.53662,-8.83444 -9.17699,-10.87984 l 5.45977,-21.95635 -5.3981,-1.34232 z m -3.46172,25.70557 c 6.81139,1.69375 10.93706,8.59317 9.24331,15.40456 -1.69376,6.8114 -8.57039,10.97493 -15.38178,9.28117 -6.81139,-1.69375 -10.96739,-8.6007 -9.27363,-15.4121 1.69375,-6.81139 8.60071,-10.96739 15.4121,-9.27363 z"
     id="path3270" />
  <path
     style="fill:#be8f28;fill-opacity:1;stroke:#000000;stroke-width:0.37663165;stroke-miterlimit:4;stroke-opacity:1;stroke-dasharray:none"
     d="m 153.10063,86.037859 -1.95377,4.778514 -0.3531,2.024395 0.0235,2.754119 -6.23797,0.400172 -0.32955,-2.73058 -0.61203,-1.977316 -2.54226,-4.496041 -4.14295,0.800343 -0.70619,5.108066 0.16478,2.047935 0.70618,2.6835 -5.95549,1.930238 -0.98865,-2.565804 -1.08281,-1.789 -3.578,-3.695698 -3.8134,1.789001 0.58849,5.131606 0.6591,1.953771 1.34175,2.40103 -5.27284,3.34261 -1.60069,-2.23625 -1.48298,-1.43591 -4.40189,-2.707041 -3.24844,2.683501 1.83608,4.82559 1.15343,1.71838 1.88316,2.00086 -4.28419,4.56666 -2.09501,-1.76546 -1.81254,-1.03574 -4.91975,-1.53007 -2.471643,3.41323 2.965973,4.21357 1.53007,1.38882 2.35394,1.45945 -3.01305,5.4847 -2.495183,-1.20051 -2.00086,-0.54141 -5.1316,-0.25894 -1.55361,3.9311 3.90755,3.31906 1.83608,0.96512 2.63642,0.84742 -1.5536,6.04964 -2.70704,-0.5414 -2.07148,-0.0235 -5.06098,1.03573 -0.51787,4.1665 4.63727,2.25978 2.0244,0.49434 2.73058,0.14123 0,6.2615 -2.73058,0.14123 -2.0244,0.49434 -4.63727,2.25978 0.51787,4.19003 5.06098,1.0122 2.07148,-0.0235 2.70704,-0.5414 1.5536,6.04964 -2.63642,0.84742 -1.83608,0.96512 -3.90755,3.3426 1.55361,3.90756 5.1316,-0.25894 2.00086,-0.5414 2.495183,-1.17698 3.01305,5.46116 -2.35394,1.45945 -1.53007,1.41236 -2.965973,4.19003 2.471643,3.41323 4.91975,-1.53007 1.81254,-1.0122 2.09501,-1.78899 4.28419,4.56665 -1.88316,2.00085 -1.15343,1.71839 -1.83608,4.82559 3.24844,2.68351 4.40189,-2.70705 1.48298,-1.43591 1.60069,-2.23624 5.27284,3.3426 -1.34175,2.40103 -0.6591,1.97731 -0.58849,5.10807 3.8134,1.789 3.578,-3.6957 1.08281,-1.76546 0.98865,-2.5658 5.95549,1.93024 -0.70618,2.65995 -0.16478,2.07148 0.70619,5.08453 4.14295,0.80034 2.54226,-4.49604 0.61203,-1.97732 0.32955,-2.73058 6.23797,0.40017 -0.0235,2.75412 0.3531,2.04794 1.95377,4.75497 4.21357,-0.25893 1.34175,-4.99037 0.1177,-2.07147 -0.37663,-2.73058 6.1438,-1.15344 0.65911,2.65996 0.87095,1.9067 3.06013,4.11941 4.02526,-1.29467 0.0705,-5.15515 -0.42371,-2.04794 -1.03574,-2.54226 5.64948,-2.65996 1.31821,2.42457 1.29467,1.62422 4.00171,3.22491 3.578,-2.25979 -1.22405,-5.01391 -0.91804,-1.85962 -1.62423,-2.21271 4.80206,-3.97817 1.88315,2.00086 1.64777,1.24759 4.70789,2.1421 2.87183,-3.08368 -2.42458,-4.54312 -1.34174,-1.57715 -2.11856,-1.74192 3.67216,-5.03744 2.30687,1.48299 1.9067,0.80033 5.08453,0.89451 2.02439,-3.6957 -3.48384,-3.8134 -1.69485,-1.17697 -2.49518,-1.15344 2.30687,-5.81425 2.61288,0.87096 2.04793,0.28248 5.13161,-0.40017 1.05928,-4.07233 -4.30773,-2.82474 -1.95377,-0.72972 -2.70704,-0.49433 0.7768,-6.19089 2.75412,0.18832 2.07147,-0.2354 4.87267,-1.64775 0,-4.23711 -4.87267,-1.64777 -2.07147,-0.21185 -2.75412,0.18831 -0.7768,-6.21442 2.70704,-0.49433 1.95377,-0.72972 4.30773,-2.82474 -1.05928,-4.07232 -5.13161,-0.40018 -2.04793,0.30601 -2.61288,0.84742 -2.30687,-5.7907 2.49518,-1.17698 1.69485,-1.17697 3.48384,-3.8134 -2.02439,-3.69569 -5.08453,0.91804 -1.9067,0.7768 -2.30687,1.50653 -3.67216,-5.06099 2.11856,-1.74192 1.34174,-1.57715 2.42458,-4.54312 -2.87183,-3.08367 -4.70789,2.14209 -1.64777,1.24759 -1.88315,2.00086 -4.80206,-3.97817 1.62423,-2.21271 0.91804,-1.85962 1.22405,-5.013909 -3.578,-2.25979 -4.00171,3.248448 -1.29467,1.600684 -1.31821,2.424567 -5.64948,-2.659961 1.03574,-2.542264 0.42371,-2.047934 -0.0705,-5.131607 -4.02526,-1.318211 -3.06013,4.142948 -0.87095,1.883159 -0.65911,2.659961 -6.1438,-1.153435 0.37663,-2.730579 -0.1177,-2.071474 -1.34175,-4.99037 -4.21357,-0.258934 z m -1.81254,26.623151 c 21.03965,0 38.08688,17.04723 38.08688,38.08687 0,21.03965 -17.04723,38.08688 -38.08688,38.08688 -21.03964,0 -38.11041,-17.04723 -38.11041,-38.08688 0,-21.03964 17.07077,-38.08687 38.11041,-38.08687 z"
     id="path2943" />
  <g
     id="SmallGear">
    <path
       id="spokes"
       d="m 80.46875,163.8125 -6.5,2.625 6.0625,14.9375 c -0.636824,0.8482 -1.069756,1.84626 -1.25,2.9375 l -14.96875,6.0625 2.625,6.5 14.9375,-6.0625 c 0.854436,0.64318 1.867417,1.07124 2.96875,1.25 l 6.0625,14.96875 6.5,-2.625 -6.0625,-14.96875 c 0.634652,-0.85197 1.07448,-1.84294 1.25,-2.9375 l 14.9375,-6.0625 -2.625,-6.46875 L 89.46875,180 c -0.845234,-0.63018 -1.852719,-1.0714 -2.9375,-1.25 l -6.0625,-14.9375 z m 4.96875,18.59375 c 1.665947,0 3,1.33406 3,3 0,1.66595 -1.334053,3.03125 -3,3.03125 -1.665947,0 -3.03125,-1.3653 -3.03125,-3.03125 0,-1.66594 1.365303,-3 3.03125,-3 z"
       style="color:#000000;fill:#684e16;fill-opacity:1;stroke:#000000" />
    <path
       d="m 71.353709,156.14116 -2.721509,1.43873 0.580081,4.18159 0.392401,0.88628 1.622875,2.34355 -3.741544,3.16642 -2.02772,-2.01111 -0.826259,-0.54209 -3.991947,-1.28347 -1.916625,2.42774 2.225681,3.58292 0.733841,0.64693 2.42015,1.48143 -2.129027,4.40164 -2.684986,-0.96968 -0.952467,-0.18758 -4.199533,0.45249 -0.742072,2.99741 3.485736,2.36491 0.929709,0.29794 2.816019,0.37723 -0.148224,4.88095 -2.848428,0.20902 -0.9566,0.21864 -3.629826,2.10982 0.529031,3.05601 4.134716,0.72 1.003503,-0.10276 2.712551,-0.79456 1.82912,4.51884 -2.501499,1.31596 -0.79245,0.62419 -2.458022,3.42228 1.733919,2.53461 4.087106,-0.98012 0.839349,-0.50831 2.180096,-1.86012 3.501611,3.40358 -1.760757,2.22981 -0.44898,0.8897 -0.871031,4.09472 2.618094,1.6373 3.343597,-2.56708 0.553814,-0.79729 1.254519,-2.56429 4.579579,1.65244 -0.708281,2.74775 -0.06551,1.00419 0.881478,4.09332 3.077414,0.43999 1.975224,-3.69885 0.204827,-0.99316 0.06962,-2.82636 4.878881,-0.35664 0.464197,2.81256 0.346284,0.93866 2.480176,3.37877 2.967736,-0.83043 0.319278,-4.20851 -0.218643,-0.95659 -1.066992,-2.63599 4.290555,-2.30984 1.605645,2.38425 0.65866,0.71106 3.64712,2.09731 2.38838,-2.01186 -1.42634,-3.9402 -0.59521,-0.80417 -2.07392,-1.9587 3.02494,-3.85404 2.40291,1.52212 0.92419,0.3676 4.15678,0.44135 1.35797,-2.80845 -2.90226,-3.00564 -0.87247,-0.48967 -2.68499,-0.96968 1.1876,-4.72855 2.82775,0.4062 0.99798,-0.0331 3.9871,-1.31046 0.0917,-3.105 -3.87127,-1.56831 -0.98696,-0.1062 -2.84842,0.20901 -0.867,-4.80715 2.75324,-0.77731 0.90349,-0.43314 3.11048,-2.80985 -1.16078,-2.86773 -4.20093,0.11593 -0.95039,0.31726 -2.51874,1.35666 -2.72088,-4.05674 2.20354,-1.80219 0.6352,-0.76281 1.67867,-3.8485 -2.21394,-2.13802 -3.77605,1.83187 -0.74003,0.67039 -1.74904,2.25876 -4.154055,-2.60009 1.26625,-2.53533 0.28621,-0.95867 -0.0173,-4.20712 -2.917413,-1.04416 -2.679412,3.20848 -0.408288,0.90695 -0.667589,2.76498 -4.854067,-0.6648 0.127558,-2.84981 -0.131745,-0.99178 -1.716001,-3.82294 -3.115342,0.21587 -1.161393,4.04368 0.02139,0.96902 0.493165,2.80084 -4.677479,1.35392 -1.066986,-2.63599 -0.508313,-0.83935 -3.156758,-2.80149 z m 6.590144,10.78395 c 10.213773,-4.1343 21.827252,0.78649 25.961557,11.00027 4.13428,10.21378 -0.77479,21.85622 -10.988565,25.99052 -10.213774,4.13429 -21.838969,-0.81548 -25.973261,-11.02925 -4.134295,-10.21378 0.786497,-21.82725 11.000269,-25.96154 z"
       style="fill:#333333;fill-opacity:1;stroke:#000000;stroke-width:0.5;stroke-miterlimit:4;stroke-opacity:1;stroke-dasharray:none"
       id="path3119" />
  </g>
</svg>
