<?xml version="1.0" encoding="UTF-8" standalone="no"?>
<svg id="svg2" xmlns:rdf="http://www.w3.org/1999/02/22-rdf-syntax-ns#" xmlns="http://www.w3.org/2000/svg" y="0px" xml:space="preserve" height="219" width="219" version="1.1" enable-background="new -0.678 -0.674 193 163" x="0px" xmlns:cc="http://creativecommons.org/ns#" xmlns:dc="http://purl.org/dc/elements/1.1/" viewBox="-0.678 -0.674 219 219">
	<defs id="defs4">
		<linearGradient id="linearGradient4027" x1="177" gradientUnits="userSpaceOnUse" y1="147" gradientTransform="matrix(1.1840918,0,0,1.1682418,-5.2730577,12.371536)" x2="22" y2="21.5">
			<stop id="stop18" stop-color="#202b46" offset="0"/>
			<stop id="stop20" stop-color="#254986" offset="0.352"/>
			<stop id="stop22" stop-color="#357ea1" offset="0.661"/>
			<stop id="stop24" stop-color="#67b4e5" offset="0.787"/>
			<stop id="stop26" stop-color="#5191cd" offset="1"/>
		</linearGradient>
	</defs>
	<rect id="rect30" transform="matrix(0.99999906,0.00137397,-0.00142653,0.99999898,0,0)" height="166" width="200" y="23.4" x="9.09" fill="url(#linearGradient4027)"/>
	<path id="path32" fill="#FFF" d="m60.1,52.8c-0.0052,0-5.2-0.0726-5.35,5.1,0,0-0.305,5.78,5.73,5.7,2.26-0.0276,4.31-1.32,4.97-3.58,0.47-1.61,0.31-3.32-0.536-4.82-1.04-1.84-2.84-2.37-4.82-2.4z"/>
	<path id="path34" fill="#073a77" d="m60.18,54.444c-1.5938-0.03602-3.2763,1.0034-3.6303,2.6198-0.44649,1.664,0.19612,3.6926,1.7796,4.5137,1.6779,0.85586,4.0119,0.4953,5.1282-1.0944,1.2286-1.7672,0.71478-4.5792-1.2238-5.6219-0.63333-0.31855-1.3537-0.4036-2.0537-0.4173z"/>
	<path id="path36" fill="#FFF" d="m120,26.1c-1.7874,0.04108-3.6951,0.80567-4.6345,2.4028-1.0006,1.7522-0.91166,4.0031-0.0136,5.7788,0.68511,1.3798,2.0989,2.301,3.6082,2.5166,1.6967,0.29274,3.5721,0.0032,4.901-1.1568,1.55-1.3068,2.024-3.5394,1.6023-5.4616-0.32909-1.4975-1.2478-2.9525-2.7059-3.5585-0.86-0.383-1.84-0.508-2.76-0.522z"/>
	<path id="path38" fill="#073a77" d="m120.03,27.407c-1.5996-0.0082-3.3126,0.90686-3.8197,2.4945-0.61473,1.7816-0.0749,4.0332,1.5688,5.0751,1.7474,1.0206,4.2574,0.80203,5.5982-0.78864,1.5199-1.8486,1.0973-5.0265-1.0032-6.2634-0.7051-0.40077-1.5457-0.50265-2.344-0.51761z"/>
	<path id="path40" fill="#FFF" d="m90.1,173c-0.0041,0-5.2-0.0715-5.35,5.1,0,0-0.306,5.78,5.73,5.7,2.26-0.0276,4.31-1.32,4.97-3.58,0.47-1.61,0.31-3.33-0.535-4.82-1.04-1.84-2.84-2.37-4.82-2.4z"/>
	<path id="path42" fill="#073a77" d="m90.134,174.32c-1.5925-0.007-3.2977,0.90322-3.8029,2.4838-0.6213,1.7926-0.0558,4.0718,1.6252,5.0832,1.7466,0.98421,4.233,0.74689,5.5394-0.85399,1.3991-1.7525,1.0964-4.657-0.72838-5.9998-0.75306-0.56414-1.7181-0.69667-2.6333-0.71319z"/>
	<path id="path46" fill="#FFF" d="m121,169c-0.006,0-5.2-0.0736-5.35,5.1,0,0-0.306,5.77,5.73,5.7,2.26-0.0276,4.31-1.32,4.97-3.58,0.469-1.61,0.309-3.33-0.535-4.82-1.04-1.84-2.84-2.37-4.82-2.4z"/>
	<path id="path48" fill="#073a77" d="m121.04,170.59c-1.4574-0.001-3.022,0.80538-3.5205,2.2396-0.60975,1.6665-0.12299,3.7966,1.4158,4.7898,1.507,0.8866,3.6174,0.79423,4.9272-0.41139,1.5754-1.5031,1.4768-4.3233-0.12611-5.7679-0.72564-0.65853-1.7479-0.83941-2.6963-0.8501z"/>
	<path id="path52" fill="#FFF" d="m200,118c-2.2164-0.00015-4.591,1.3109-5.1331,3.5843-0.70855,2.5448,0.29442,5.817,2.9351,6.7967,2.428,0.93462,5.6514,0.37717,7.0479-1.9938,1.4564-2.4874,0.8429-6.2572-1.7788-7.7178-0.95-0.5-2.03-0.65-3.08-0.67z"/>
	<path id="path54" fill="#073a77" d="m200.05,119.6c-1.8232-0.0873-3.6726,1.3677-3.7677,3.2402-0.196,1.6669,0.69103,3.5347,2.3268,4.1233,1.5342,0.54898,3.4256,0.22636,4.5175-1.0389,1.5325-1.7248,1.0038-4.8032-1.0193-5.915-0.62502-0.34902-1.3565-0.39961-2.0572-0.40954z"/>
	<path id="path56" fill="#FFF" d="m200,96c-2.2165-0.000691-4.5912,1.3106-5.1331,3.584-0.70803,2.5437,0.29242,5.8113,2.9291,6.7935,2.426,0.94002,5.6484,0.37915,7.044-1.9902,1.4566-2.4876,0.84497-6.2571-1.7778-7.7178-0.93-0.501-2.03-0.656-3.06-0.672z"/>
	<path id="path58" fill="#073a77" d="m200.04,97.597c-1.8243-0.08823-3.6743,1.3689-3.7682,3.2424-0.19919,1.6907,0.72792,3.585,2.4019,4.1433,1.5441,0.52805,3.4346,0.16723,4.4983-1.1248,1.4764-1.7526,0.91516-4.8009-1.1207-5.8765-0.61514-0.33138-1.3273-0.37222-2.0113-0.38432z"/>
	<path id="path60" fill="#FFF" d="m152,33c-1.7874,0.04108-3.6951,0.80567-4.6345,2.4028-1.0006,1.7522-0.91166,4.0031-0.0136,5.7788,0.68511,1.3798,2.0989,2.301,3.6082,2.5166,1.6967,0.29274,3.5721,0.0032,4.901-1.1568,1.5498-1.3068,2.0241-3.5394,1.6027-5.4616-0.34-1.498-1.25-2.953-2.71-3.559-0.86-0.382-1.84-0.507-2.76-0.521z"/>
	<path id="path62" fill="#073a77" d="m152.03,34.307c-1.5998-0.0089-3.3131,0.90658-3.8199,2.4946-0.61447,1.7816-0.0749,4.0331,1.5688,5.0751,1.7444,1.0186,4.2476,0.80293,5.591-0.77968,1.5084-1.8253,1.1178-4.951-0.91906-6.2268-0.72041-0.43535-1.5936-0.54902-2.4209-0.56308z"/>
	<path id="path64" fill="#FFF" d="m32.4,70.7c-0.0052,0-5.2-0.0726-5.35,5.1,0,0-0.306,5.78,5.73,5.7,2.26-0.0287,4.31-1.32,4.97-3.58,0.471-1.61,0.31-3.33-0.535-4.82-1.04-1.84-2.84-2.37-4.82-2.4z"/>
	<path id="path66" fill="#073a77" d="m32.38,72.244c-1.481-0.0078-3.0669,0.83958-3.5364,2.3095-0.56911,1.6495-0.06875,3.7338,1.4529,4.6986,1.6199,0.94627,3.9492,0.74212,5.1878-0.73725,1.3079-1.6062,1.06-4.2772-0.58744-5.5579-0.70998-0.56273-1.6367-0.70192-2.5168-0.71289z"/>
	<path id="path68" fill="#FFF" d="m48.9,77.8c-0.0041,0-4.64-0.0644-4.77,4.55,0,0-0.272,5.15,5.12,5.08,2.01-0.0246,3.84-1.18,4.43-3.2,0.419-1.43,0.277-2.97-0.477-4.3-0.93-1.64-2.53-2.12-4.3-2.14z"/>
	<path id="path70" fill="#073a77" d="m48.977,79.13c-1.3589-0.0089-2.8187,0.76771-3.2485,2.1174-0.52485,1.5318-0.0517,3.4718,1.3746,4.3494,1.4846,0.84501,3.5965,0.6625,4.7347-0.67736,1.3127-1.5768,0.93937-4.3118-0.87146-5.352-0.60714-0.32932-1.3113-0.40066-1.9893-0.43745z"/>
	<path id="path72" fill="#FFF" d="m78.3,78.1c-0.0052,0-4.64-0.0644-4.77,4.55,0,0-0.273,5.15,5.11,5.08,2.01-0.0246,3.84-1.18,4.43-3.2,0.419-1.43,0.277-2.97-0.477-4.3-0.929-1.64-2.53-2.12-4.3-2.14z"/>
	<path id="path74" fill="#073a77" d="m78.27,79.159c-1.4641-0.0099-3.0371,0.82676-3.5002,2.2809-0.56691,1.6543-0.05423,3.7558,1.4938,4.6943,1.5983,0.90404,3.8651,0.70098,5.0888-0.73719,1.4143-1.699,1.0119-4.6457-0.93891-5.7667-0.65425-0.35479-1.413-0.43163-2.1435-0.4713z"/>
	<path id="path76" fill="#FFF" d="m169,74.9c-0.068,2.1403,1.8281,4.0159,3.9838,3.8,2.0682,0.07681,4.0899-1.5615,4.0112-3.7194,0.27651-2.2668-1.7849-4.2762-4.0248-4.0986-1.9671-0.06134-3.9538,1.4207-3.9446,3.4962l-0.0175,0.25909-0.01,0.263z"/>
	<path id="path78" fill="#073a77" d="m169.94,74.91c-0.1327,1.2576,0.84098,2.4488,2.0384,2.7447,1.337,0.42664,3.0002-0.03842,3.7195-1.2965,0.64609-1.0531,0.48808-2.5036-0.34044-3.4138-0.81468-0.97993-2.2641-1.4706-3.4697-0.96102-0.89874,0.29632-1.6807,1.0342-1.8609,1.9864-0.0754,0.30683-0.10403,0.62485-0.0869,0.94026z"/>
	<path id="path80" fill="#FFF" d="m169,51.5c-0.0487,2.0143,1.6308,3.8719,3.693,3.799,2.1354,0.17779,4.3712-1.4206,4.304-3.6937,0.26309-2.2019-1.6587-4.2334-3.8697-4.1223-2.013-0.12722-4.1242,1.3577-4.105,3.5018l-0.016,0.25838v0.257z"/>
	<path id="path82" fill="#073a77" d="m169.94,51.511c-0.13855,1.2677,0.85339,2.4638,2.0637,2.7457,1.2644,0.38601,2.8275,0.01957,3.5757-1.1288,0.69377-1.0067,0.72137-2.4739-0.0772-3.4323-0.89728-1.199-2.6982-1.7171-4.0327-0.95142-0.92068,0.44588-1.5244,1.4325-1.5276,2.4526-0.006,0.10464-0.006,0.2095-0.001,0.31419z"/>
	<path id="path84" fill="#FFF" d="m177,146c0.002,0,3.48,0.048,3.58-3.41,0,0,0.202-3.86-3.84-3.81-1.51,0.0183-2.88,0.884-3.32,2.4-0.316,1.07-0.207,2.22,0.359,3.22,0.694,1.23,1.9,1.59,3.22,1.61z"/>
	<path id="path86" fill="#073a77" d="m176.98,145.22c1.0765-0.00028,2.2386-0.58794,2.6051-1.6514,0.43906-1.2274,0.0989-2.7919-1.0244-3.5366-1.0394-0.63095-2.4662-0.61129-3.46,0.10131-0.80662,0.60969-1.166,1.6805-1.022,2.6653,0.11295,0.98938,0.75337,1.9773,1.7484,2.2549,0.37266,0.11597,0.76426,0.15615,1.153,0.16652z"/>
	<path id="path88" fill="#FFF" d="m155,146c0.005,0,3.48,0.048,3.58-3.41,0,0,0.204-3.86-3.84-3.81-1.51,0.0204-2.88,0.886-3.32,2.4-0.315,1.07-0.206,2.22,0.357,3.22,0.697,1.23,1.9,1.59,3.22,1.61z"/>
	<path id="path90" fill="#073a77" d="m154.98,145.22c1.0764-0.00028,2.2386-0.58791,2.605-1.6514,0.43896-1.2272,0.10044-2.7924-1.0235-3.5367-1.04-0.63063-2.4672-0.61146-3.4615,0.10131-0.80614,0.60983-1.1649,1.6803-1.0215,2.6648,0.11223,0.9898,0.75156,1.9782,1.7467,2.2566,0.37259,0.11812,0.76505,0.16228,1.1547,0.16536z"/>
	<path id="path92" fill="#FFF" d="m150,152c0.004-1.5875-1.1-3.1927-2.7361-3.4135-1.7896-0.36394-4.0314,0.48227-4.481,2.4036-0.4786,1.6238,0.14532,3.635,1.7695,4.3476,1.8602,0.86874,4.6425,0.20049,5.2603-1.9425,0.14-0.46,0.19-0.93,0.19-1.4z"/>
	<path id="path94" fill="#073a77" d="m146.25,149.57c-1.1996-0.0168-2.3811,0.93182-2.4939,2.1509-0.12341,0.85494,0.16955,1.7997,0.87775,2.3288,0.7533,0.61241,1.8351,0.74256,2.7307,0.38798,0.72359-0.26816,1.3046-0.90355,1.465-1.6639,0.19532-0.85799-0.0398-1.8138-0.62742-2.4709-0.5049-0.5263-1.2498-0.69327-1.9522-0.73279z"/>
	<path id="path96" fill="#FFF" d="m150,174c0.005-1.5878-1.0998-3.1931-2.7361-3.4136-1.7896-0.36383-4.0314,0.48229-4.481,2.4036-0.4786,1.6238,0.14532,3.635,1.7695,4.3476,1.8606,0.86665,4.6427,0.199,5.2603-1.944,0.14-0.46,0.19-0.93,0.19-1.4z"/>
	<path id="path98" fill="#073a77" d="m148.9,174.04c0.0839-1.426-1.3482-2.689-2.7515-2.4654-1.1775,0.0334-2.3109,0.97087-2.4084,2.1743-0.11764,0.82116,0.14828,1.7119,0.79811,2.2509,0.69239,0.61408,1.7022,0.80149,2.5819,0.53647,0.82219-0.20828,1.505-0.87447,1.7009-1.7046,0.0688-0.2573,0.0968-0.5258,0.0791-0.79169z"/>
	<path id="path104" fill="#FFF" d="m22.3,37.5c-0.0041,0-4.64-0.0644-4.77,4.55,0,0-0.273,5.15,5.12,5.08,2.01-0.0245,3.84-1.18,4.43-3.2,0.419-1.43,0.277-2.97-0.477-4.3-0.93-1.64-2.53-2.12-4.3-2.14z"/>
	<path id="path106" fill="#073a77" d="m22.372,38.878c-1.6022-0.049-3.2785,0.9881-3.5584,2.5161-0.38093,1.5456,0.35883,3.3961,1.976,4.0479,1.6613,0.69454,3.903,0.26442,4.8911-1.2311,1.0825-1.6297,0.49847-4.11-1.3865-4.9835-0.60144-0.25566-1.2703-0.31586-1.9222-0.34929z"/>
	<path id="path108" fill="#FFF" d="m51.7,37.8c-0.0041,0-4.64-0.0644-4.77,4.55,0,0-0.273,5.15,5.12,5.08,2.01-0.0245,3.84-1.18,4.43-3.2,0.419-1.43,0.276-2.96-0.477-4.3-0.93-1.64-2.53-2.12-4.3-2.14z"/>
	<path id="path110" fill="#073a77" d="m51.677,39.13c-1.5178-0.04971-3.1057,1.0021-3.3708,2.5513-0.3592,1.5624,0.33558,3.4311,1.8586,4.0976,1.5753,0.71149,3.708,0.27915,4.6462-1.2423,1.0252-1.6525,0.47227-4.1672-1.3132-5.0533-0.56976-0.25907-1.2034-0.31942-1.8209-0.3533z"/>
	<path id="path112" fill="#FFF" d="m187,58.7c-0.0682,2.1404,1.8281,4.0159,3.9838,3.8,2.0682,0.07681,4.0899-1.5615,4.0112-3.7194,0.2762-2.2665-1.7851-4.2761-4.0248-4.0986-1.9656-0.05995-3.9594,1.4194-3.9474,3.4962l-0.0162,0.25912v0.263z"/>
	<path id="path114" fill="#073a77" d="m187.94,58.708c-0.13397,1.2811,0.87698,2.4877,2.1015,2.764,1.3602,0.41038,3.0379-0.11436,3.7148-1.4157,0.62368-1.1172,0.36261-2.6155-0.55863-3.4919-0.84959-0.88504-2.2501-1.2685-3.3939-0.75387-0.94447,0.32956-1.7122,1.1785-1.826,2.1889-0.0388,0.23379-0.0513,0.47192-0.0377,0.70851z"/>
	<path id="path116" fill="#FFF" d="m187,35.3c-0.0682,2.1405,1.8281,4.0158,3.9838,3.8001,2.0687,0.07791,4.0902-1.5613,4.0112-3.7193,0.27707-2.2668-1.7848-4.2757-4.0243-4.0988-1.9632-0.05949-3.9487,1.4266-3.938,3.4973-0.1785-0.0053,0.15356,0.54937-0.0327,0.52083z"/>
	<path id="path118" fill="#073a77" d="m187.93,35.311c-0.13283,1.2574,0.84055,2.4487,2.0379,2.7443,1.3363,0.42633,2.9982-0.03794,3.7182-1.2946,0.64982-1.057,0.48894-2.5153-0.34704-3.4259-0.81596-0.97335-2.2595-1.4592-3.4614-0.95279-0.8994,0.29584-1.6785,1.0368-1.858,1.9887-0.0753,0.30688-0.10472,0.62476-0.0895,0.94032z"/>
	<path id="path120" fill="#FFF" d="m63.8,173c0.0062,0,5.49,0.0459,5.63-5.42,0,0,0.289-6.11-6.09-5.99-2.38,0.0439-4.54,1.42-5.23,3.82-0.489,1.7-0.307,3.51,0.593,5.09,1.11,1.94,3.02,2.49,5.11,2.51z"/>
	<path id="path122" fill="#073a77" d="m63.753,171.27c1.524-0.006,3.1545-0.85757,3.6666-2.3609,0.62536-1.7397,0.10042-3.9549-1.5104-4.9763-1.6031-0.93159-3.8529-0.80354-5.2064,0.51687-1.6314,1.6443-1.418,4.6859,0.41382,6.0958,0.74675,0.56865,1.7222,0.71124,2.6363,0.72459z"/>
	<path id="path124" fill="#FFF" d="m29,173c0.0062,0,5.49,0.048,5.62-5.42,0,0,0.292-6.11-6.09-5.99-2.38,0.0419-4.55,1.42-5.23,3.82-0.486,1.7-0.308,3.51,0.595,5.09,1.11,1.94,3.01,2.49,5.1,2.51z"/>
	<path id="path126" fill="#073a77" d="m28.967,171.56c1.6631-0.00006,3.4426-0.9608,3.9544-2.6183,0.62103-1.8574,0.04507-4.1895-1.6662-5.2662-1.7712-1.0193-4.2764-0.83847-5.7009,0.6961-1.7015,1.8904-1.3223,5.299,0.89649,6.6289,0.75492,0.44094,1.6577,0.54449,2.5163,0.5595z"/>
	<path id="path128" fill="#FFF" d="m191,165c1.8767,0.0124,3.8558-1.2024,4.1524-3.1614,0.46621-2.119-0.61972-4.7286-2.8814-5.2316-1.9884-0.5802-4.4956,0.15561-5.3363,2.1798-0.96962,2.1727-0.082,5.3159,2.3887,5.985,0.5399,0.16124,1.1284,0.22128,1.6766,0.22816z"/>
	<path id="path130" fill="#073a77" d="m190.97,163.61c1.5348,0.0981,3.012-1.3078,2.8907-2.8625,0.0344-1.2074-0.75664-2.3991-1.9139-2.7798-0.83868-0.27982-1.8116-0.22107-2.5885,0.21124-1.1044,0.64888-1.6519,2.064-1.3183,3.2939,0.20244,0.88874,0.84535,1.7007,1.7373,1.966,0.38164,0.13304,0.7891,0.18999,1.1926,0.17114z"/>
	<path id="path132" fill="#FFF" d="m165,164.08c1.8767,0.0124,3.8558-1.2024,4.1524-3.1614,0.4664-2.119-0.61921-4.7288-2.8811-5.2316-1.9885-0.58021-4.4958,0.15543-5.3366,2.1798-0.96817,2.1728-0.081,5.316,2.3897,5.985,0.53868,0.16123,1.132,0.22145,1.6756,0.22816z"/>
	<path id="path134" fill="#073a77" d="m164.98,163.28c1.8252,0.11624,3.592-1.5331,3.4763-3.3853,0.0722-1.5103-0.94541-3.0094-2.4079-3.4378-0.98322-0.2933-2.1061-0.21539-3.0081,0.28773-1.3289,0.78117-1.9857,2.4844-1.5854,3.9642,0.24347,1.0693,1.0173,2.0459,2.0904,2.3652,0.45913,0.16005,0.94931,0.22861,1.4348,0.20587z"/>
	<path id="polyline136" style="block-progression:tb;color:#000000;direction:ltr;text-indent:0;text-align:start;enable-background:accumulate;text-transform:none;" fill="#FFF" d="m167.24,92.855-0.29296,0.38322-10.123,11.688-19.303-0.0958,0,2.0438,19.791,0.0958,0.48825,0,0.29296-0.35128,10.123-11.72,8.5282,0,10.156,7.2811,0.2604,0.19161,0.35806,0,7.2913,0.0958,0-2.0438-6.9333-0.0958-10.156-7.2492-0.29296-0.22354-0.3255,0-9.3746,0-0.48826,0z"/>
	<path id="polyline138" style="block-progression:tb;color:#000000;direction:ltr;text-indent:0;text-align:start;enable-background:accumulate;text-transform:none;" fill="#FFF" d="m166.03,121.6-0.25094,0.63869-3.7641,10.283-6.5872,0-1.788-6.4189-0.21957-0.7345-0.75282,0-14.053,0,0,2.0438,13.3,0,1.788,6.4189,0.21957,0.7345,0.75282,0,8.0301,0,0.69009,0,0.25094-0.67063,3.7641-10.251,28.419,0.0958,0-2.0438-29.109-0.0958-0.69009,0z"/>
	<path id="line140" style="block-progression:tb;color:#000000;direction:ltr;text-indent:0;text-align:start;enable-background:accumulate;text-transform:none;" fill="#FFF" d="m53.906,81.781,0,2.0625,19.781,0,0-2.0625-19.781,0z"/>
	<path id="polyline142" style="block-progression:tb;color:#000000;direction:ltr;text-indent:0;text-align:start;enable-background:accumulate;text-transform:none;" fill="#FFF" d="m65.549,57.421,0,1.6325,20.93,0.07653,0,12.321,0,0.51017,0.58591,0.22958,11.197,4.1834,0,12.882,2.0832,0,0-13.392,0-0.51017-0.61846-0.22958-11.165-4.1834,0-12.627,0-0.81626-1.0416,0-21.972-0.07652z"/>
	<path id="polyline144" style="block-progression:tb;color:#000000;direction:ltr;text-indent:0;text-align:start;enable-background:accumulate;text-transform:none;" fill="#FFF" d="m119.81,36.778,0,21.032-7.0309,7.0014-0.26041,0.24519,0,0.29967,0,23.293,2.0832,0,0-22.993,7.0309-6.9742,0.26041-0.24519,0-0.29967,0-21.358-2.0832,0z"/>
	<path id="polyline146" style="block-progression:tb;color:#000000;direction:ltr;text-indent:0;text-align:start;enable-background:accumulate;text-transform:none;" fill="#FFF" d="m50.33,109.62-0.25031,0.22354-9.731,7.8559-19.493,0,0,2.0438,19.837,0,0.34418,0,0.25031-0.22355,9.731-7.8559,9.5119,0,6.7898,8.7182,0.31289,0.38322,0.46934,0,13.423,0.0958,0-2.0438-12.922-0.0958-6.8211-8.7182-0.2816-0.38322-0.50063,0-10.294,0-0.37547,0z"/>
	<path id="polyline148" style="block-progression:tb;color:#000000;direction:ltr;text-indent:0;text-align:start;enable-background:accumulate;text-transform:none;" fill="#FFF" d="m61.508,128.43-0.28055,0.44708-9.975,14.882-8.9463,0-9.4451-10.89-0.31172-0.35128-0.43641,0-4.5823,0,0,2.0438,4.1459,0,9.4763,10.89,0.28055,0.35129,0.46758,0,9.8503,0,0.52992,0,0.31172-0.44709,9.9438-14.882,19.14,0,0-2.0438-19.638,0-0.52992,0z"/>
	<path id="polyline150" style="block-progression:tb;color:#000000;direction:ltr;text-indent:0;text-align:start;enable-background:accumulate;text-transform:none;" fill="#FFF" d="m97.319,132.89,0,18.056-7.7796,10.132-0.2604,0.32566,0,0.43423,0,11.579,2.0832,0,0-11.109,7.7796-10.132,0.2604-0.32566,0-0.43422,0-18.527-2.0832,0z"/>
	<path id="polyline152" style="block-progression:tb;color:#000000;direction:ltr;text-indent:0;text-align:start;enable-background:accumulate;text-transform:none;" fill="#FFF" d="m118.77,132.39,0,10.319-1.9205,3.2666-0.16275,0.29696,0,0.3712,0,8.3148,0,0.44544,0.26041,0.33408,5.9893,7.9808,0,6.6816,2.0832,0,0-7.127,0-0.44543-0.2604-0.33408-5.9893-7.9808,0-7.4982,1.9205-3.2666,0.16276-0.29696,0-0.3712,0-10.691-2.0832,0z"/>
	<path id="polyline154" style="block-progression:tb;color:#000000;direction:ltr;text-indent:0;text-align:start;enable-background:accumulate;text-transform:none;" fill="#FFF" d="m151.06,43.519,0,7.5877-5.8266,3.494-0.42315,0.26075,0,0.41719,0,7.8745-16.178,8.1874-0.48826,0.26075,0,0.44327,0,16.531,2.0832,0,0-16.062,16.178-8.1874,0.48825-0.23467,0-0.46934,0-7.9267,5.8266-3.494,0.42316-0.26075,0-0.41719,0-8.0049-2.0832,0z"/>
	<path id="polyline156" style="block-progression:tb;color:#000000;direction:ltr;text-indent:0;text-align:start;enable-background:accumulate;text-transform:none;" fill="#FFF" d="m31.829,80.4,0.09441,10.219,0,0.38322,0.25177,0.28741,9.4729,10.634,0.31471,0.35128,0.4406,0,21.18,0,5.4131,7.0576,0.31471,0.38322,0.47207,0,11.581,0,0-2.0438-11.078,0-5.4445-7.0576-0.28324-0.38321-0.50354,0-21.18,0-8.9379-9.9956-0.09441-9.8359-2.0142,0z"/>
	<path id="line158" style="block-progression:tb;color:#000000;direction:ltr;text-indent:0;text-align:start;enable-background:accumulate;text-transform:none;" fill="#FFF" d="m171.97,55.094v15.812h2.0625v-15.812h-2.0625z"/>
	<path id="line160" style="block-progression:tb;color:#000000;direction:ltr;text-indent:0;text-align:start;enable-background:accumulate;text-transform:none;" fill="#FFF" d="m158,140.97,0,2.0625,15,0,0-2.0625-15,0z"/>
	<path id="line162" style="block-progression:tb;color:#000000;direction:ltr;text-indent:0;text-align:start;enable-background:accumulate;text-transform:none;" fill="#FFF" d="m144.97,156v15h2.0625v-15h-2.0625z"/>
	<path id="line164" style="block-progression:tb;color:#000000;direction:ltr;text-indent:0;text-align:start;enable-background:accumulate;text-transform:none;" fill="#FFF" d="m27.406,41.562,0,2.0625,19.688,0,0-2.0625-19.688,0z"/>
	<path id="line166" style="block-progression:tb;color:#000000;direction:ltr;text-indent:0;text-align:start;enable-background:accumulate;text-transform:none;" fill="#FFF" d="m189.97,38.906v15.781h2.0625v-15.781h-2.0625z"/>
	<path id="line168" style="block-progression:tb;color:#000000;direction:ltr;text-indent:0;text-align:start;enable-background:accumulate;text-transform:none;" fill="#FFF" d="m57.75,165.97-23.406,1,0.09375,2.0625,23.406-1-0.09375-2.0625z"/>
	<path id="line170" style="block-progression:tb;color:#000000;direction:ltr;text-indent:0;text-align:start;enable-background:accumulate;text-transform:none;" fill="#FFF" d="m169,158.97v2.0625h18v-2.0625h-18z"/>
	<path id="path184" fill="#FFF" d="m15.3,113c-0.0052,0-5.2-0.0715-5.35,5.1,0,0-0.305,5.78,5.73,5.7,2.26-0.0276,4.31-1.32,4.97-3.58,0.471-1.61,0.31-3.33-0.535-4.82-1.04-1.84-2.84-2.37-4.82-2.4z"/>
	<path id="path186" fill="#073a77" d="m15.345,114.61c-1.9826-0.13351-3.8859,1.6588-3.7809,3.6629-0.05326,1.7569,1.2127,3.5496,2.992,3.8431,1.7948,0.4003,3.9115-0.55467,4.5183-2.3528,0.66423-1.82-0.1893-4.1673-2.0442-4.8935-0.53925-0.19307-1.1163-0.24623-1.6852-0.25963z"/>
	<path id="path188" fill="#FFF" d="m22.1,128c-0.0052,0-5.2-0.0736-5.35,5.1,0,0-0.305,5.78,5.73,5.7,2.26-0.0276,4.31-1.32,4.97-3.58,0.47-1.6,0.309-3.33-0.535-4.82-1.04-1.84-2.84-2.37-4.82-2.4z"/>
	<path id="path190" fill="#073a77" d="m22.149,129.88c-1.5042-0.0394-3.0843,0.97129-3.3847,2.5017-0.38838,1.5523,0.25039,3.4278,1.7429,4.1495,1.5515,0.75194,3.6735,0.3936,4.6893-1.0632,1.1371-1.6434,0.64319-4.2516-1.16-5.2091-0.58303-0.28983-1.2445-0.3655-1.8874-0.37885z"/>
<metadata id="metadata196">
		<rdf:RDF>
			<cc:Work rdf:about="">
				<dc:title/>
			<dc:format>image/svg+xml</dc:format><dc:type rdf:resource="http://purl.org/dc/dcmitype/StillImage"/></cc:Work>
		</rdf:RDF>
	</metadata>
<g id="g4247" fill-rule="nonzero" fill="#9d8200" transform="translate(180.28609,-11.892715)"><path id="path4249" style="enable-background:accumulate;color:#000000;" d="m-40.707,106.17,0-2.6106,9.2821,0,0,2.6106-9.2821,0z"/><path id="path4251" style="enable-background:accumulate;color:#000000;" d="m-40.707,111.61,0-2.6106,9.2821,0,0,2.6106-9.2821,0z"/><path id="path4253" style="enable-background:accumulate;color:#000000;" d="m-40.707,117.06,0-2.6106,9.2821,0,0,2.6106-9.2821,0z"/><path id="path4255" style="enable-background:accumulate;color:#000000;" d="m-40.707,122.51,0-2.6106,9.2821,0,0,2.6106-9.2821,0z"/><path id="path4257" style="enable-background:accumulate;color:#000000;" d="m-40.707,127.95,0-2.6106,9.2821,0,0,2.6106-9.2821,0z"/><path id="path4259" style="enable-background:accumulate;color:#000000;" d="m-40.707,133.4,0-2.6106,9.2821,0,0,2.6106-9.2821,0z"/><path id="path4261" style="enable-background:accumulate;color:#000000;" d="m-40.707,138.85,0-2.6106,9.2821,0,0,2.6106-9.2821,0z"/></g><g id="g3845" fill-rule="nonzero" fill="#9d8200" transform="translate(113.99603,-11.892715)"><path id="path3821" style="enable-background:accumulate;color:#000000;" d="m-40.707,106.17,0-2.6106,9.2821,0,0,2.6106-9.2821,0z"/><path id="path3823" style="enable-background:accumulate;color:#000000;" d="m-40.707,111.61,0-2.6106,9.2821,0,0,2.6106-9.2821,0z"/><path id="path3825" style="enable-background:accumulate;color:#000000;" d="m-40.707,117.06,0-2.6106,9.2821,0,0,2.6106-9.2821,0z"/><path id="path3827" style="enable-background:accumulate;color:#000000;" d="m-40.707,122.51,0-2.6106,9.2821,0,0,2.6106-9.2821,0z"/><path id="path3829" style="enable-background:accumulate;color:#000000;" d="m-40.707,127.95,0-2.6106,9.2821,0,0,2.6106-9.2821,0z"/><path id="path3831" style="enable-background:accumulate;color:#000000;" d="m-40.707,133.4,0-2.6106,9.2821,0,0,2.6106-9.2821,0z"/><path id="path3833" style="enable-background:accumulate;color:#000000;" d="m-40.707,138.85,0-2.6106,9.2821,0,0,2.6106-9.2821,0z"/></g><g id="g4225" fill-rule="nonzero" fill="#9d8200" transform="translate(1.4503251,-120.7457)"><path id="path4227" style="enable-background:accumulate;color:#000000;" d="m127.6,199.47,2.6106,0,0,9.2821-2.6106,0,0-9.2821z"/><path id="path4229" style="enable-background:accumulate;color:#000000;" d="m133.04,199.47,2.6106,0,0,9.2821-2.6106,0,0-9.2821z"/><path id="path4231" style="enable-background:accumulate;color:#000000;" d="m122.15,199.47,2.6106,0,0,9.2821-2.6106,0,0-9.2821z"/><path id="path4233" style="enable-background:accumulate;color:#000000;" d="m116.7,199.47,2.6106,0,0,9.2821-2.6106,0,0-9.2821z"/><path id="path4235" style="enable-background:accumulate;color:#000000;" d="m111.26,199.47,2.6106,0,0,9.2821-2.6106,0,0-9.2821z"/><path id="path4237" style="enable-background:accumulate;color:#000000;" d="m105.81,199.47,2.6106,0,0,9.2821-2.6106,0,0-9.2821z"/><path id="path4239" style="enable-background:accumulate;color:#000000;" d="m100.36,199.47,2.6106,0,0,9.2821-2.6106,0,0-9.2821z"/><path id="path4241" style="enable-background:accumulate;color:#000000;" d="m94.915,199.47,2.6106,0,0,9.2821-2.6106,0,0-9.2821z"/><path id="path4243" style="enable-background:accumulate;color:#000000;" d="m89.468,199.47,2.6106,0,0,9.2821-2.6106,0,0-9.2821z"/><path id="path4245" style="enable-background:accumulate;color:#000000;" d="m84.021,199.47,2.6106,0,0,9.2821-2.6106,0,0-9.2821z"/></g><g id="g3801" fill-rule="nonzero" fill="#9d8200" transform="translate(1.4503251,-68.745699)"><path id="rect3006" style="enable-background:accumulate;color:#000000;" d="m127.6,199.47,2.6106,0,0,9.2821-2.6106,0,0-9.2821z"/><path id="path3783" style="enable-background:accumulate;color:#000000;" d="m133.04,199.47,2.6106,0,0,9.2821-2.6106,0,0-9.2821z"/><path id="path3785" style="enable-background:accumulate;color:#000000;" d="m122.15,199.47,2.6106,0,0,9.2821-2.6106,0,0-9.2821z"/><path id="path3787" style="enable-background:accumulate;color:#000000;" d="m116.7,199.47,2.6106,0,0,9.2821-2.6106,0,0-9.2821z"/><path id="path3789" style="enable-background:accumulate;color:#000000;" d="m111.26,199.47,2.6106,0,0,9.2821-2.6106,0,0-9.2821z"/><path id="path3791" style="enable-background:accumulate;color:#000000;" d="m105.81,199.47,2.6106,0,0,9.2821-2.6106,0,0-9.2821z"/><path id="path3793" style="enable-background:accumulate;color:#000000;" d="m100.36,199.47,2.6106,0,0,9.2821-2.6106,0,0-9.2821z"/><path id="path3795" style="enable-background:accumulate;color:#000000;" d="m94.915,199.47,2.6106,0,0,9.2821-2.6106,0,0-9.2821z"/><path id="path3797" style="enable-background:accumulate;color:#000000;" d="m89.468,199.47,2.6106,0,0,9.2821-2.6106,0,0-9.2821z"/><path id="path3799" style="enable-background:accumulate;color:#000000;" d="m84.021,199.47,2.6106,0,0,9.2821-2.6106,0,0-9.2821z"/></g><rect id="rect3854" height="45.741" width="59.641" y="86.429" x="81.73" fill="#9d6603"/><rect id="rect182" height="41.1" width="55" y="88.75" x="84.05" fill="#ffbf00"/><text id="text192" font-size="6.32180691000000030px" xml:space="preserve" y="124.95329" x="87.225449" font-family="Sans" line-height="125%" fill="#000000">    <tspan id="tspan194" y="124.95329" x="87.225449" fill="#000000">s/n 101023094</tspan>   </text>
</svg>