<?xml version="1.0" encoding="UTF-8" standalone="no"?>

<svg
 xmlns:dc="http://purl.org/dc/elements/1.1/"
   xmlns:cc="http://creativecommons.org/ns#"
   xmlns:rdf="http://www.w3.org/1999/02/22-rdf-syntax-ns#"
   xmlns:svg="http://www.w3.org/2000/svg"
   xmlns="http://www.w3.org/2000/svg"
   xmlns:xlink="http://www.w3.org/1999/xlink"
   xmlns:sodipodi="http://sodipodi.sourceforge.net/DTD/sodipodi-0.dtd"
   xmlns:inkscape="http://www.inkscape.org/namespaces/inkscape"
   id="svg2"
   version="1.1"
   inkscape:version="0.47 r22583"
   width="100"
   height="100"
   sodipodi:docname="itresource.svg">
  <metadata
     id="metadata96">
    <rdf:RDF>
      <cc:Work
         rdf:about="">
        <dc:format>image/svg+xml</dc:format>
        <dc:type
           rdf:resource="http://purl.org/dc/dcmitype/StillImage" />
      </cc:Work>
    </rdf:RDF>
  </metadata>
  <defs
     id="defs94">
    <linearGradient
       inkscape:collect="always"
       id="linearGradient3724">
      <stop
         style="stop-color:#993300;stop-opacity:1;"
         offset="0"
         id="stop3726" />
      <stop
         style="stop-color:#993300;stop-opacity:0;"
         offset="1"
         id="stop3728" />
    </linearGradient>
    <linearGradient
       inkscape:collect="always"
       id="linearGradient3716">
      <stop
         style="stop-color:#ff9900;stop-opacity:1;"
         offset="0"
         id="stop3718" />
      <stop
         style="stop-color:#ff9900;stop-opacity:0;"
         offset="1"
         id="stop3720" />
    </linearGradient>
    <linearGradient
       inkscape:collect="always"
       id="linearGradient3708">
      <stop
         style="stop-color:#bbbbbb;stop-opacity:1;"
         offset="0"
         id="stop3710" />
      <stop
         style="stop-color:#bbbbbb;stop-opacity:0;"
         offset="1"
         id="stop3712" />
    </linearGradient>
    <linearGradient
       inkscape:collect="always"
       id="linearGradient3700">
      <stop
         style="stop-color:#bf4c4c;stop-opacity:1;"
         offset="0"
         id="stop3702" />
      <stop
         style="stop-color:#bf4c4c;stop-opacity:0;"
         offset="1"
         id="stop3704" />
    </linearGradient>
    <linearGradient
       inkscape:collect="always"
       id="linearGradient3692">
      <stop
         style="stop-color:#143a72;stop-opacity:1;"
         offset="0"
         id="stop3694" />
      <stop
         style="stop-color:#143a72;stop-opacity:0;"
         offset="1"
         id="stop3696" />
    </linearGradient>
    <linearGradient
       inkscape:collect="always"
       id="linearGradient3684">
      <stop
         style="stop-color:#6094bf;stop-opacity:1;"
         offset="0"
         id="stop3686" />
      <stop
         style="stop-color:#6094bf;stop-opacity:0;"
         offset="1"
         id="stop3688" />
    </linearGradient>
    <linearGradient
       inkscape:collect="always"
       id="linearGradient3676">
      <stop
         style="stop-color:#000000;stop-opacity:1;"
         offset="0"
         id="stop3678" />
      <stop
         style="stop-color:#000000;stop-opacity:0;"
         offset="1"
         id="stop3680" />
    </linearGradient>
    <inkscape:perspective
       sodipodi:type="inkscape:persp3d"
       inkscape:vp_x="0 : 0.5 : 1"
       inkscape:vp_y="0 : 1000 : 0"
       inkscape:vp_z="1 : 0.5 : 1"
       inkscape:persp3d-origin="0.5 : 0.33333333 : 1"
       id="perspective98" />
    <linearGradient
       inkscape:collect="always"
       xlink:href="#linearGradient3676"
       id="linearGradient3682"
       x1="195.312"
       y1="636.71899"
       x2="882.81201"
       y2="636.71899"
       gradientUnits="userSpaceOnUse" />
    <linearGradient
       inkscape:collect="always"
       xlink:href="#linearGradient3684"
       id="linearGradient3690"
       x1="437.5"
       y1="203.1245"
       x2="570.31201"
       y2="203.1245"
       gradientUnits="userSpaceOnUse" />
    <linearGradient
       inkscape:collect="always"
       xlink:href="#linearGradient3692"
       id="linearGradient3698"
       x1="328.125"
       y1="265.62451"
       x2="460.93701"
       y2="265.62451"
       gradientUnits="userSpaceOnUse" />
    <linearGradient
       inkscape:collect="always"
       xlink:href="#linearGradient3700"
       id="linearGradient3706"
       x1="203.125"
       y1="218.75"
       x2="273.43799"
       y2="218.75"
       gradientUnits="userSpaceOnUse" />
    <linearGradient
       inkscape:collect="always"
       xlink:href="#linearGradient3708"
       id="linearGradient3714"
       x1="210.938"
       y1="246.09399"
       x2="281.25"
       y2="246.09399"
       gradientUnits="userSpaceOnUse" />
    <linearGradient
       inkscape:collect="always"
       xlink:href="#linearGradient3716"
       id="linearGradient3722"
       x1="210.938"
       y1="445.3125"
       x2="382.81299"
       y2="445.3125"
       gradientUnits="userSpaceOnUse" />
    <linearGradient
       inkscape:collect="always"
       xlink:href="#linearGradient3724"
       id="linearGradient3730"
       x1="601.56201"
       y1="332.03101"
       x2="726.56201"
       y2="332.03101"
       gradientUnits="userSpaceOnUse" />
  </defs>
  <sodipodi:namedview
     pagecolor="#ffffff"
     bordercolor="#666666"
     borderopacity="1"
     objecttolerance="10"
     gridtolerance="10"
     guidetolerance="10"
     inkscape:pageopacity="0"
     inkscape:pageshadow="2"
     inkscape:window-width="1280"
     inkscape:window-height="1002"
     id="namedview92"
     showgrid="false"
     inkscape:zoom="0.44851479"
     inkscape:cx="472.12421"
     inkscape:cy="-210.53378"
     inkscape:window-x="1272"
     inkscape:window-y="-8"
     inkscape:window-maximized="1"
     inkscape:current-layer="svg2" />
  <title
     id="title4">Symbol library: itresource.svg</title>
  <polygon
     points="1007.81,0 1007.81,1007.81 1007.81,1007.81 0,1007.81 0,0 "
     style="fill:#ffffff;fill-opacity:0;stroke:none"
     id="polygon6"
     transform="scale(0.09922505,0.09922505)" />
  <polygon
     points="401.042,1007.81 440.499,1007.81 858.744,897.576 890.309,889.701 906.093,866.08 921.875,834.584 921.875,803.088 756.156,70.8041 740.373,47.1826 716.699,23.561 685.133,7.812 653.568,15.6865 203.756,125.923 203.756,125.923 172.191,141.671 148.517,165.292 140.625,188.915 140.625,228.284 337.911,944.82 353.693,976.316 377.368,992.064 "
     style="fill:#acb0bf;fill-opacity:1;stroke:none"
     id="polygon8"
     transform="scale(0.09922505,0.09922505)" />
  <polygon
     points="385.495,992.188 417.061,992.188 835.307,889.819 866.872,874.071 890.546,850.447 898.438,818.949 898.438,787.451 732.718,62.9961 716.936,31.498 693.261,7.874 669.586,0 630.13,0 180.319,110.243 180.319,110.243 148.754,125.992 132.97,149.616 117.188,181.114 125.079,212.612 314.473,937.066 330.256,960.69 353.93,984.313 "
     style="fill:#3b2913;fill-opacity:1;stroke:none"
     id="polygon10"
     transform="scale(0.09922505,0.09922505)" />
  <polygon
     points="685.444,23.502 709.128,39.2541 717.023,62.8842 882.812,795.402 882.812,819.032 874.918,842.662 859.127,866.291 835.444,874.168 417.022,976.563 385.443,976.563 361.76,968.686 345.97,952.933 330.181,929.304 330.181,929.304 132.812,212.539 132.812,181.033 140.707,157.403 164.391,141.65 188.076,125.897 638.075,15.625 661.76,15.625 "
     style="fill:#dce8e8;fill-opacity:1;stroke:none"
     id="polygon12"
     transform="scale(0.09922505,0.09922505)" />
  <polygon
     points="558.365,320.312 558.365,320.312 525.276,320.312 492.188,336.319 500.46,392.34 574.908,648.437 599.725,640.433 632.813,632.431 574.908,368.331 "
     style="fill:#3e454c;fill-opacity:1;stroke:none"
     id="polygon14"
     transform="scale(0.09922505,0.09922505)" />
  <polygon
     points="462.14,292.043 437.801,165.398 429.688,109.992 429.688,78.3306 437.801,70.4148 462.14,62.5 478.365,62.5 494.592,62.5 510.817,78.3306 518.931,102.076 543.27,181.23 567.609,260.382 583.835,315.789 583.835,339.536 575.722,339.536 583.835,387.026 624.401,529.503 640.626,640.316 632.513,656.147 583.835,664.062 583.835,664.062 575.722,664.062 535.157,553.248 494.592,402.858 486.479,363.281 478.365,363.281 478.365,347.45 470.253,339.536 "
     style="fill:#333333;fill-opacity:1;stroke:none"
     id="polygon16"
     transform="scale(0.09922505,0.09922505)" />
  <polyline
     points="583.835 664.062  575.722 664.062          535.157 553.248 494.592 402.858 486.479 363.281          478.365 363.281  478.365 347.45          470.253 339.536 462.14 292.043  437.801 165.398 429.688 109.992 429.688 78.3306  437.801 70.4148 462.14 62.5  478.365 62.5         494.592 62.5  510.817 78.3306 518.931 102.076          543.27 181.23 567.609 260.382 583.835 315.789          583.835 339.536  575.722 339.536         583.835 387.026  624.401 529.503 640.626 640.316          632.513 656.147"
     style="stroke:none"
     id="polyline18"
     transform="scale(0.09922505,0.09922505)" />
  <polygon
     points="609.375,632.812 609.375,632.812 593.75,648.437 "
     style="fill:#bbbbbb;fill-opacity:1;stroke:none"
     id="polygon20"
     transform="scale(0.09922505,0.09922505)" />
  <polyline
     points="609.375 632.812  593.75 648.437"
     style="stroke:none"
     id="polyline22"
     transform="scale(0.09922505,0.09922505)" />
  <polygon
     points="558.365,320.312 558.365,320.312 525.276,320.312 492.188,336.329 500.46,384.374 574.908,640.624 599.725,632.617 632.813,632.617 574.908,368.36 "
     style="fill:#6094bf;fill-opacity:1;stroke:none"
     id="polygon24"
     transform="scale(0.09922505,0.09922505)" />
  <polygon
     points="437.5,86.4115 437.5,118.608 445.8,174.952 479.003,303.74 479.003,335.937 503.906,327.887 520.508,319.839 545.409,311.79 570.312,319.839 570.312,319.839 562.012,287.642 528.809,150.805 503.906,102.509 487.305,70.312 479.003,70.312 462.403,78.3617 445.8,78.3617 "
     style="fill:url(#linearGradient3690);fill-opacity:1;stroke:none"
     id="polygon26"
     transform="scale(0.09922505,0.09922505)" />
  <polygon
     points="449.218,375 449.218,375 407.986,375 375,390.997 391.493,446.986 457.466,710.938 490.452,694.941 523.438,694.941 457.466,430.99 "
     style="fill:#3e454c;fill-opacity:1;stroke:none"
     id="polygon28"
     transform="scale(0.09922505,0.09922505)" />
  <polygon
     points="344.907,354.583 320.601,227.916 312.5,172.5 320.601,140.833 328.704,132.916 344.907,125 361.111,125 377.315,125 393.518,132.916 409.722,164.583 434.028,243.75 458.333,322.916 466.435,370.417 466.435,394.166 466.435,402.084 474.537,441.666 506.944,592.083 531.25,702.916 515.045,710.833 474.537,718.75 474.537,718.75 458.333,718.75 425.926,615.833 385.416,465.417 377.315,425.833 369.213,417.916 361.111,410 361.111,402.084 "
     style="fill:#333333;fill-opacity:1;stroke:none"
     id="polygon30"
     transform="scale(0.09922505,0.09922505)" />
  <polyline
     points="474.537 718.75  458.333 718.75          425.926 615.833 385.416 465.417 377.315 425.833          369.213 417.916  361.111 410          361.111 402.084 344.907 354.583  320.601 227.916 312.5 172.5 320.601 140.833  328.704 132.916 344.907 125  361.111 125         377.315 125  393.518 132.916 409.722 164.583          434.028 243.75 458.333 322.916 466.435 370.417          466.435 394.166  466.435 402.084         474.537 441.666  506.944 592.083 531.25 702.916          515.045 710.833"
     style="stroke:none"
     id="polyline32"
     transform="scale(0.09922505,0.09922505)" />
  <polygon
     points="500,703.125 500,695.312 476.562,695.312 500,703.125 "
     style="fill:#bbbbbb;fill-opacity:1;stroke:none"
     id="polygon34"
     transform="scale(0.09922505,0.09922505)" />
  <polyline
     points="500 703.125 500 695.312 476.562 695.312"
     style="stroke:none"
     id="polyline36"
     transform="scale(0.09922505,0.09922505)" />
  <polygon
     points="449.448,382.812 449.448,382.812 408.088,382.812 375,398.829 391.544,446.874 457.721,703.124 490.809,695.117 515.625,695.117 457.721,430.86 "
     style="fill:#6094bf;fill-opacity:1;stroke:none"
     id="polygon38"
     transform="scale(0.09922505,0.09922505)" />
  <polygon
     points="328.125,181.108 336.426,237.452 361.328,366.24 369.629,398.437 386.23,382.339 411.132,374.29 436.035,374.29 460.937,382.339 460.937,382.339 452.636,342.093 411.132,213.305 394.531,156.96 377.93,132.812 344.726,132.812 336.426,140.862 328.125,148.911 "
     style="fill:url(#linearGradient3698);fill-opacity:1;stroke:none"
     id="polygon40"
     transform="scale(0.09922505,0.09922505)" />
  <polygon
     points="390.625,640.625 382.032,640.625 304.688,657.552 304.688,657.552 304.688,666.015 304.688,682.943 313.281,682.943 364.844,742.187 373.439,742.187 390.625,666.015 390.625,657.552 "
     style="fill:#8c5e0e;fill-opacity:1;stroke:none"
     id="polygon42"
     transform="scale(0.09922505,0.09922505)" />
  <polygon
     points="382.813,657.031 365.234,734.375 312.5,674.219 312.5,665.625 312.5,665.625 382.813,648.438 "
     style="fill:#8c5e0e;fill-opacity:1;stroke:none"
     id="polygon44"
     transform="scale(0.09922505,0.09922505)" />
  <polygon
     points="390.625,679.688 355.468,697.265 320.312,697.265 329.102,706.055 329.102,706.055 364.258,750 "
     style="fill:#333333;fill-opacity:1;stroke:none"
     id="polygon46"
     transform="scale(0.09922505,0.09922505)" />
  <polygon
     points="364.583,734.375 343.75,703.125 343.75,703.125 364.583,713.543 375,703.125 "
     style="fill:#333333;fill-opacity:1;stroke:none"
     id="polygon48"
     transform="scale(0.09922505,0.09922505)" />
  <polygon
     points="390.624,671.614 390.624,663.671 276.693,210.938 268.555,210.938 203.451,226.822 195.312,226.822 195.312,226.822 195.312,234.766 309.245,687.5 317.383,687.5 325.52,671.614 349.935,679.557 374.349,663.671 382.487,671.614 "
     style="fill:#8c5e0e;fill-opacity:1;stroke:none"
     id="polygon50"
     transform="scale(0.09922505,0.09922505)" />
  <polygon
     points="317.337,671.875 210.938,234.649 210.938,234.649 268.229,218.75 382.813,655.977 374.629,655.977 366.444,655.977 350.075,671.875 325.521,663.926 317.337,663.926 "
     style="fill:url(#linearGradient3722);fill-opacity:1;stroke:none"
     id="polygon52"
     transform="scale(0.09922505,0.09922505)" />
  <polygon
     points="280.469,219.726 271.875,210.938 246.094,210.938 228.906,219.726 211.719,228.515 203.125,237.305 203.125,246.094 203.125,246.094 203.125,272.461 211.719,281.25 228.906,281.25 254.688,281.25 271.875,263.671 289.063,254.883 289.063,246.094 "
     style="fill:#444444;fill-opacity:1;stroke:none"
     id="polygon54"
     transform="scale(0.09922505,0.09922505)" />
  <polygon
     points="210.938,264.322 210.938,246.094 210.938,246.094 228.515,227.864 246.094,218.75 272.461,227.864 281.25,255.208 272.461,264.322 246.094,273.438 228.515,273.438 "
     style="fill:url(#linearGradient3714);fill-opacity:1;stroke:none"
     id="polygon56"
     transform="scale(0.09922505,0.09922505)" />
  <polygon
     points="272.727,179.688 255.681,179.688 238.636,179.688 221.591,179.688 204.545,188.368 196.022,197.048 187.5,205.729 187.5,205.729 204.545,249.133 221.591,257.813 247.159,257.813 264.204,249.133 281.25,231.771 281.25,223.091 272.727,188.368 "
     style="fill:#7c3535;fill-opacity:1;stroke:none"
     id="polygon58"
     transform="scale(0.09922505,0.09922505)" />
  <polygon
     points="211.915,241.071 203.125,205.357 203.125,205.357 220.703,187.5 238.281,187.5 264.648,187.5 273.438,232.142 264.648,232.142 247.071,241.071 220.703,250 "
     style="fill:url(#linearGradient3706);fill-opacity:1;stroke:none"
     id="polygon60"
     transform="scale(0.09922505,0.09922505)" />
  <polygon
     points="210.938,250 210.938,250 203.125,242.188 "
     style="fill:#7c3535;fill-opacity:1;stroke:none"
     id="polygon62"
     transform="scale(0.09922505,0.09922505)" />
  <polygon
     points="234.375,218.75 234.375,218.75 244.141,218.75 253.906,218.75 273.438,197.916 273.438,187.5 263.671,187.5 253.906,208.333 234.375,208.333 "
     style="fill:#993d3d;fill-opacity:1;stroke:none"
     id="polygon64"
     transform="scale(0.09922505,0.09922505)" />
  <polygon
     points="667.968,484.376 667.968,484.376 701.171,484.376 734.374,468.341 717.774,420.231 651.368,179.688 626.465,187.706 601.562,195.723 651.368,436.268 "
     style="fill:#3e454c;fill-opacity:1;stroke:none"
     id="polygon66"
     transform="scale(0.09922505,0.09922505)" />
  <polygon
     points="732.271,442.187 740.385,442.187 740.385,457.996 748.499,457.996 756.611,505.422 780.951,616.084 789.063,663.511 780.951,695.128 772.837,703.032 756.611,710.937 740.385,710.937 724.159,710.937 716.047,703.032 699.819,679.319 675.481,608.179 659.255,529.136 651.143,489.614 643.029,465.901 651.143,457.996 643.029,426.378 610.577,292.003 594.351,189.246 602.463,181.342 578.125,126.011 586.239,86.4894 586.239,39.062 586.239,39.062 594.351,39.062 618.691,78.5845 643.029,110.202 643.029,173.437 659.255,173.437 683.595,268.29 724.159,402.666 "
     style="fill:#333333;fill-opacity:1;stroke:none"
     id="polygon68"
     transform="scale(0.09922505,0.09922505)" />
  <polygon
     points="613.282,128.646 604.166,128.646 604.166,120.313 604.166,111.979 595.052,78.6458 585.938,120.313 585.938,128.646 622.397,195.312 622.397,195.312 640.625,195.312 640.625,111.979 622.397,103.645 604.166,70.312 613.282,111.979 622.397,120.313 622.397,128.646 "
     style="fill:#bbbbbb;fill-opacity:1;stroke:none"
     id="polygon70"
     transform="scale(0.09922505,0.09922505)" />
  <polygon
     points="668.228,476.562 668.228,476.562 701.562,476.562 726.562,468.533 718.229,420.355 651.563,187.5 626.562,195.529 601.562,195.529 651.563,436.415 "
     style="fill:url(#linearGradient3730);fill-opacity:1;stroke:none"
     id="polygon72"
     transform="scale(0.09922505,0.09922505)" />
  <polygon
     points="369.163,968.66 345.456,944.95 337.554,921.24 195.312,439.135 772.18,296.875 772.18,296.875 874.91,786.883 882.812,818.496 867.007,842.207 851.203,865.916 827.495,873.82 424.479,976.563 392.87,976.563 "
     style="fill:#ffffff;fill-opacity:1;stroke:none"
     id="polygon74"
     transform="scale(0.09922505,0.09922505)" />
  <polyline
     points="772.18 296.875 874.91 786.883  882.812 818.496 867.007 842.207 851.203 865.916 827.495 873.82         424.479 976.563  392.87 976.563 369.163 968.66         345.456 944.95 337.554 921.24 195.312 439.135"
     style="fill:url(#linearGradient3682);fill-opacity:1;stroke:none"
     id="polyline76"
     transform="scale(0.09922505,0.09922505)" />
  <polygon
     points="156.25,346.939 164.162,370.855 172.075,402.743 195.813,434.631 211.639,450.574 227.463,458.546 259.114,458.546 274.941,466.519 282.853,482.462 290.765,514.349 298.678,522.322 314.503,546.237 338.242,570.154 361.979,578.125 393.63,578.125 670.573,506.378 694.311,490.434 718.05,466.519 725.962,442.602 725.962,410.715 725.962,402.743 718.05,370.855 718.05,354.91 733.874,338.968 757.613,323.023 765.525,307.08 773.438,283.163 773.438,235.332 765.525,203.444 765.525,187.5 757.613,187.5 757.613,187.5 654.749,227.359 559.797,259.247 472.757,291.135 385.717,307.08 282.853,323.023 164.162,330.995 156.25,338.968 "
     style="fill:#3b2913;fill-opacity:1;stroke:none"
     id="polygon78"
     transform="scale(0.09922505,0.09922505)" />
  <polygon
     points="179.794,370.834 171.875,346.875 306.483,338.889 401.5,322.916 480.68,306.945 559.861,282.986 639.041,251.042 749.895,203.125 757.813,211.112 757.813,235.069 757.813,275 749.895,298.958 741.977,306.945 726.141,322.916 702.386,346.875 702.386,354.86 702.386,378.819 710.305,402.778 710.305,410.764 710.305,434.722 702.386,458.68 686.551,482.638 662.796,490.625 385.663,562.5 361.909,562.5 338.155,554.513 322.318,530.556 306.483,506.597 306.483,498.611 306.483,498.611 298.564,482.638 290.646,458.68 282.728,450.694 258.973,442.708 235.22,442.708 211.466,418.749 187.711,394.791 "
     style="fill:#ffffff;fill-opacity:1;stroke:none"
     id="polygon80"
     transform="scale(0.09922505,0.09922505)" />
  <polygon
     points="544.743,367.187 536.221,359.095 536.221,342.913 544.743,334.821 536.221,302.455 510.653,221.54 493.608,172.991 476.562,140.625 476.562,140.625 502.131,140.625 519.176,156.808 527.699,189.174 561.79,334.821 570.312,342.913 570.312,359.095 561.79,367.187 "
     style="fill:#444444;fill-opacity:1;stroke:none"
     id="polygon82"
     transform="scale(0.09922505,0.09922505)" />
  <polygon
     points="435.939,421.595 427.344,413.504 427.344,405.413 427.344,397.321 418.75,364.955 392.969,275.949 375.781,227.399 367.188,203.125 367.188,203.125 392.969,203.125 401.563,219.308 410.157,251.674 453.125,397.321 453.125,405.413 453.125,413.504 444.532,429.687 "
     style="fill:#444444;fill-opacity:1;stroke:none"
     id="polygon84"
     transform="scale(0.09922505,0.09922505)" />
  <polygon
     points="436.012,913.429 403.274,889.358 378.72,857.263 354.166,801.098 329.613,728.885 296.875,640.625 296.875,640.625 321.428,777.028 354.166,873.311 362.351,905.406 370.536,921.453 403.274,929.476 427.827,937.5 468.75,937.5 "
     style="fill:#c4f5f5;fill-opacity:1;stroke:none"
     id="polygon86"
     transform="scale(0.09922505,0.09922505)" />
  <polygon
     points="429.688,539.062 429.688,530.54 387.835,530.54 371.095,522.017 354.352,504.971 337.612,487.926 320.87,462.358 320.87,445.312 320.87,445.312 312.5,470.881 320.87,504.971 329.241,513.493 337.612,530.54 354.352,539.062 371.095,539.062 404.577,539.062 "
     style="fill:#c4f5f5;fill-opacity:1;stroke:none"
     id="polygon88"
     transform="scale(0.09922505,0.09922505)" />
  <use
     href="#oid1"
     id="use90"
     x="0"
     y="0"
     width="744.09448"
     height="1052.3622"
     transform="translate(0,-907.81)" />
</svg>
