<?xml version="1.0" encoding="UTF-8" standalone="no"?>
<svg
   xmlns:dc="http://purl.org/dc/elements/1.1/"
   xmlns:cc="http://creativecommons.org/ns#"
   xmlns:rdf="http://www.w3.org/1999/02/22-rdf-syntax-ns#"
   xmlns:svg="http://www.w3.org/2000/svg"
   xmlns="http://www.w3.org/2000/svg"
   xmlns:xlink="http://www.w3.org/1999/xlink"
   xmlns:sodipodi="http://sodipodi.sourceforge.net/DTD/sodipodi-0.dtd"
   xmlns:inkscape="http://www.inkscape.org/namespaces/inkscape"
   id="svg4827"
   version="1.1"
   x="0px"
   y="0px"
   width="219px"
   height="219px"
   viewBox="0 0 219 219"
   enable-background="new 0 0 219 219"
   inkscape:version="0.47 r22583"
   sodipodi:docname="keyperformanceindicator.svg">
  <sodipodi:namedview
     pagecolor="#ffffff"
     bordercolor="#666666"
     borderopacity="1"
     objecttolerance="10"
     gridtolerance="10"
     guidetolerance="10"
     inkscape:pageopacity="0"
     inkscape:pageshadow="2"
     inkscape:window-width="1280"
     inkscape:window-height="1002"
     id="namedview35"
     showgrid="false"
     inkscape:zoom="3.4474886"
     inkscape:cx="109.5"
     inkscape:cy="109.5"
     inkscape:window-x="1272"
     inkscape:window-y="-8"
     inkscape:window-maximized="1"
     inkscape:current-layer="svg4827" />
  <metadata
     id="metadata3733">
    <rdf:RDF>
      <cc:Work
         rdf:about="">
        <dc:title />
        <dc:format>image/svg+xml</dc:format>
        <dc:type
           rdf:resource="http://purl.org/dc/dcmitype/StillImage" />
      </cc:Work>
    </rdf:RDF>
  </metadata>
  <defs
     id="defs4">
    <filter
       id="filter3664">
      <feGaussianBlur
         id="feGaussianBlur3666"
         stdDeviation="0.87129931" />
    </filter>
    <filter
       id="filter3706">
      <feGaussianBlur
         id="feGaussianBlur3708"
         stdDeviation="1.8624972" />
    </filter>
    <radialGradient
       id="radialGradient3727"
       gradientUnits="userSpaceOnUse"
       cy="118.26"
       cx="106.27"
       gradientTransform="matrix(0.75409955,-1.0566352,1.3174362,0.94022798,-122.48584,118.54276)"
       r="100.92">
      <stop
         id="stop4028"
         stop-color="#000"
         offset="0" />
      <stop
         id="stop4030"
         stop-color="#000"
         stop-opacity="0"
         offset="1"
         style="stop-color:#ffffff;stop-opacity:1;" />
    </radialGradient>
    <linearGradient
       id="linearGradient3729"
       y2="536.43"
       gradientUnits="userSpaceOnUse"
       x2="478.68"
       gradientTransform="matrix(0.62984351,0,0,0.64663761,-103.94184,-268.04584)"
       y1="536.43"
       x1="194.04">
      <stop
         id="stop3917"
         stop-color="#0cfd23"
         offset="0" />
      <stop
         id="stop3923"
         stop-color="#ff8a00"
         offset="0.49453" />
      <stop
         id="stop3919"
         stop-color="#fd100c"
         offset="1" />
    </linearGradient>
    <radialGradient
       id="radialGradient3731"
       gradientUnits="userSpaceOnUse"
       cy="180.77"
       cx="-132.11"
       r="11.805">
      <stop
         id="stop3680"
         stop-color="#000"
         offset="0" />
      <stop
         id="stop3682"
         stop-color="#000"
         stop-opacity="0"
         offset="1" />
    </radialGradient>
    <linearGradient
       inkscape:collect="always"
       xlink:href="#linearGradient3729"
       id="linearGradient2857"
       gradientUnits="userSpaceOnUse"
       gradientTransform="matrix(0.62984351,0,0,0.64663761,-103.94184,-244.04584)"
       x1="194.04"
       y1="536.43"
       x2="478.68"
       y2="536.43" />
    <radialGradient
       inkscape:collect="always"
       xlink:href="#radialGradient3727"
       id="radialGradient2860"
       gradientUnits="userSpaceOnUse"
       gradientTransform="matrix(0.75409955,-1.0566352,1.3174362,0.94022798,-122.48584,142.54276)"
       cx="106.27"
       cy="118.26"
       r="100.92" />
    <radialGradient
       inkscape:collect="always"
       xlink:href="#radialGradient3731"
       id="radialGradient3639"
       gradientUnits="userSpaceOnUse"
       cx="-132.11"
       cy="180.77"
       r="11.805" />
    <radialGradient
       inkscape:collect="always"
       xlink:href="#radialGradient3731"
       id="radialGradient3642"
       gradientUnits="userSpaceOnUse"
       cx="-132.11"
       cy="180.77"
       r="11.805"
       gradientTransform="translate(240.6002,-53.576702)" />
  </defs>
  <path
     style="fill:#ececec;stroke:none"
     d="M 108.49875,27.971732 A 99.32461,101.76214 0 0 0 6.3298683,129.73382 99.32461,101.76214 0 0 0 12.020466,163.69423 c 29.492284,-6.74107 63.797265,-10.60692 100.387484,-10.60692 31.47543,0 61.23345,2.84942 87.71608,7.93932 a 99.32461,101.76214 0 0 0 4.85206,-31.29083 99.32461,101.76214 0 0 0 -96.4803,-101.762084 z"
     id="path3698" />
  <path
     d="M 112.41053,32.184679 C 99.193274,31.804818 85.904896,34.111537 73.583359,38.924659 61.261823,43.73778 50.207624,52.793626 40.726739,62.039988 21.764969,80.532712 14.440877,104.28085 12.131192,130.23048 c -0.0012,11.28432 0.189038,24.01668 3.941692,34.65452 29.449219,-6.59096 63.704106,-10.37073 100.240946,-10.37073 31.42947,0 61.14404,2.78597 87.58799,7.76252 3.19079,-9.86158 4.83213,-20.22597 4.84498,-30.59404 0.0105,-25.57989 -10.23776,-52.790397 -28.03779,-71.106289 C 160.6221,39.907405 137.89544,32.919138 112.40739,32.186619 l 0.003,-0.0019 z"
     style="fill:#666666;stroke:none"
     id="path3005"
     sodipodi:nodetypes="cssccsccscc" />
  <path
     d="m 107.78,41.781 c -22.34,0 -40.82,6.8051 -57.938,21.312 -13.554,11.487 -24.732,29.626 -29.25,47.438 -3.8582,15.21 -2.6522,41.518 2.375,51.438 0.1193,0.23541 0.26054,0.44415 0.46875,0.625 12.177,-2.3893 25.07,-4.3156 38.5,-5.7188 -6.7915,-15.373 -6.2776,-33.742 1.5,-49.5 3.462,-7.014 14.101,-17.863 21.031,-21.469 20.581,-10.707 44.316,-6.5975 59.594,10.344 9.9094,10.989 14.169,22.101 14.219,37.031 0.0305,9.089 -1.1327,15.674 -4.0625,22.406 13.61,1.0466 26.734,2.6078 39.219,4.6562 l 0.78,-2.86 c 9.41,-34.446 -1.83,-71.748 -28.47,-94.406 -17.04,-14.497 -35.57,-21.313 -57.97,-21.313 z"
     style="fill:url(#linearGradient2857);stroke:none"
     id="path3913" />
  <path
     id="path3657"
     d="m 109.34638,133.40435 25.41695,-89.939788 c 0.44955,-1.590778 1.37478,-1.736112 2.07451,-0.325862 l 1.24549,2.510196 c 0.69972,1.41025 0.90112,3.826244 0.45157,5.417022 l -25.41694,89.939792 c -0.44955,1.59078 -1.37479,1.73611 -2.07451,0.32586 l -1.24549,-2.5102 c -0.69973,-1.41025 -0.90113,-3.82624 -0.45158,-5.41702 z"
     style="fill:#000000;fill-opacity:0.5;stroke:none" />
  <path
     style="fill:#e10000;stroke:none"
     d="m 105.57547,127.66393 25.41695,-89.939764 c 0.44955,-1.590778 1.37478,-1.736112 2.07451,-0.325862 l 1.24549,2.510196 c 0.69972,1.41025 0.90112,3.826244 0.45157,5.417022 l -25.41694,89.939768 c -0.44955,1.59078 -1.37479,1.73611 -2.07451,0.32586 l -1.24549,-2.5102 c -0.69973,-1.41025 -0.90113,-3.82624 -0.45158,-5.41702 z"
     id="rect3843" />
  <path
     id="rect3843-2"
     d="m 109.51574,49.731749 0,22.67814 c 0,0.38388 -0.30905,0.69293 -0.69293,0.69293 l -0.83154,0 c -0.38388,0 -0.69293,-0.30905 -0.69293,-0.69293 l 0,-22.67814 c 0,-0.38388 0.30905,-0.69293 0.69293,-0.69293 l 0.83154,0 c 0.38388,0 0.69293,0.30905 0.69293,0.69293 z"
     style="fill:#000000;stroke:none" />
  <path
     style="fill:#000000;stroke:none"
     d="m 26.700099,137.66811 22.026828,-0.0545 c 0.391149,-9.7e-4 0.58715,0.28985 0.439462,0.65204 l -0.319918,0.78459 c -0.147688,0.36219 -0.581486,0.65456 -0.972634,0.65553 l -22.026829,0.0545 c -0.391151,9.7e-4 -0.58715,-0.28984 -0.439461,-0.65204 l 0.319918,-0.78458 c 0.147688,-0.3622 0.581483,-0.65457 0.972634,-0.65554 z"
     id="rect3843-2-6" />
  <path
     style="fill:#000000;stroke:none"
     d="m 167.02919,137.67217 22.02682,-0.0545 c 0.39116,-9.7e-4 0.58715,0.28984 0.43946,0.65204 l -0.31992,0.78458 c -0.14769,0.36221 -0.58147,0.65457 -0.97263,0.65554 l -22.02683,0.0545 c -0.39115,9.7e-4 -0.58715,-0.28983 -0.43946,-0.65203 l 0.31992,-0.78459 c 0.14769,-0.36219 0.58148,-0.65456 0.97264,-0.65553 z"
     id="rect3843-2-6-3" />
  <path
     style="fill:#000000;stroke:none"
     d="m 45.679866,79.600587 16.513937,15.02813 c 0.284286,0.258708 0.235463,0.603534 -0.109472,0.77315 l -0.7471,0.367374 c -0.344935,0.169616 -0.851493,0.09789 -1.135779,-0.160817 L 43.687515,80.580294 c -0.284287,-0.258709 -0.235462,-0.603534 0.109472,-0.77315 l 0.747101,-0.367374 c 0.344934,-0.169617 0.851491,-0.09789 1.135778,0.160817 z"
     id="rect3843-2-6-2" />
  <path
     style="fill:#000000;stroke:none"
     d="M 166.95032,77.288274 152.3247,94.228403 c -0.25537,0.295783 -0.59396,0.248802 -0.75917,-0.105318 l -0.35787,-0.767108 c -0.16521,-0.354128 -0.0926,-0.87734 0.16274,-1.173123 l 14.62563,-16.940128 c 0.25537,-0.295783 0.59396,-0.248811 0.75917,0.105317 l 0.35787,0.767108 c 0.16521,0.35412 0.0926,0.877341 -0.16275,1.173123 z"
     id="rect3843-2-6-2-7" />
  <path
     id="path3684"
     style="fill:#ffffff;stroke:none"
     d="m 120.3002,127.1933 c 0,6.5198 -5.2853,11.805 -11.805,11.805 -6.5198,0 -11.805,-5.2853 -11.805,-11.805 0,-6.5198 5.2854,-11.805 11.805,-11.805 6.5198,0 11.805,5.2854 11.805,11.805 z" />
  <path
     id="path3668"
     style="fill:url(#radialGradient3642);stroke:none"
     d="m 120.3002,127.1933 c 0,6.5198 -5.2853,11.805 -11.805,11.805 -6.5198,0 -11.805,-5.2853 -11.805,-11.805 0,-6.5198 5.2854,-11.805 11.805,-11.805 6.5198,0 11.805,5.2854 11.805,11.805 z" />
  <path
     style="fill:#5e5e5e;stroke:none"
     d="M 110.75,26.9375 C 97.238597,26.277758 83.471494,28.948053 70.78125,33.96875 58.091006,38.989447 46.387608,46.606826 36.625,56.25 26.862392,65.893174 19.045467,77.539313 13.75,90.28125 c -5.2954671,12.74194 -8.0368323,26.54479 -8.03125,40.375 -0.00124,11.76477 1.9806101,23.53357 5.84375,34.625 l 0.34375,1 1.0625,-0.21875 c 29.866804,-6.77011 64.624572,-10.65625 101.71875,-10.65625 31.90918,0 62.07975,2.85548 88.90625,7.96875 l 1.03125,0.1875 0.34375,-1 c 3.28465,-10.28181 4.95552,-21.09693 4.96875,-31.90625 0.0108,-26.68026 -10.54259,-53.169368 -28.84375,-72.3125 C 162.47667,38.768085 139.57089,28.344781 110.75,26.9375 z m -0.0625,2.375 c 25.60737,0.745381 50.80111,12.010912 68.65625,30.6875 17.85514,18.676588 28.19801,44.61161 28.1875,70.65625 -0.0125,10.21433 -1.55802,20.44044 -4.5625,30.1875 C 176.24045,155.82235 146.3311,153 114.6875,153 77.861395,153 43.35717,156.83206 13.53125,163.5 9.9783922,152.95353 8.1238209,141.80398 8.125,130.65625 8.1195464,117.14508 10.796307,103.63342 15.96875,91.1875 21.141193,78.741583 28.780593,67.384045 38.3125,57.96875 47.844407,48.553455 59.270978,41.08754 71.65625,36.1875 84.041522,31.28746 97.402916,28.925809 110.6875,29.3125 z"
     id="path3645"
     sodipodi:nodetypes="csssccccscccccscsccsccsssc" />
</svg>
