<?xml version="1.0" encoding="UTF-8" standalone="no"?>
<svg id="svg2" xmlns:rdf="http://www.w3.org/1999/02/22-rdf-syntax-ns#" xmlns="http://www.w3.org/2000/svg" enable-background="new 52.059 89.931 219 219" xml:space="preserve" height="219px" width="219px" version="1.1" y="0px" x="0px" xmlns:cc="http://creativecommons.org/ns#" xmlns:xlink="http://www.w3.org/1999/xlink" viewBox="52.059 89.931 219 219" xmlns:dc="http://purl.org/dc/elements/1.1/"><metadata id="metadata319"><rdf:RDF><cc:Work rdf:about=""><dc:format>image/svg+xml</dc:format><dc:type rdf:resource="http://purl.org/dc/dcmitype/StillImage"/><dc:title/></cc:Work></rdf:RDF></metadata><defs id="defs4"><linearGradient id="linearGradient4256"><stop id="stop4258" stop-color="#d59f0f" offset="0"/><stop id="stop4260" stop-color="#d56f0f" offset="1"/></linearGradient><filter id="filter4222"><feGaussianBlur id="feGaussianBlur4224" stdDeviation="0.9250065"/></filter><filter id="filter4252"><feGaussianBlur id="feGaussianBlur4254" stdDeviation="1.481139"/></filter><linearGradient id="linearGradient4262" y2="247.35" xlink:href="#linearGradient4256" gradientUnits="userSpaceOnUse" x2="220.74" y1="247.35" x1="172.23"/><linearGradient id="linearGradient4270" y2="254.41" xlink:href="#linearGradient4256" gradientUnits="userSpaceOnUse" x2="112.62" y1="257.21" x1="156.12"/></defs><g id="g4484" transform="matrix(1.0341914,0,0,1.0341914,-6.6334,-8.0065417)"><path id="path287-3" opacity="0.5" d="m227.41,188.22h-17.853l-34.802,106.82h52.654c12.559,0,22.742-10.184,22.742-22.754v-61.326c0.001-12.558-10.183-22.74-22.741-22.74zm-116.98,0c-12.571,0-22.754,10.182-22.754,22.74v61.326c0,12.57,10.183,22.754,22.754,22.754h52.686l-34.82-106.82h-17.866z" transform="matrix(1.0257387,0,0,1.0257387,-6.5299323,-2.3966878)" filter="url(#filter4252)" stroke-miterlimit="4" stroke-width="0" fill="#000"/><path id="path289-7" opacity="0.5" d="m209.96,142.6c0-23.229-18.821-42.038-42.051-42.039-23.217,0-42.053,18.809-42.053,42.039,0,23.205,18.836,42.04,42.053,42.04,23.23,0,42.051-18.835,42.051-42.04z" transform="matrix(1.0257387,0,0,1.0257387,-6.5299323,-2.3966878)" filter="url(#filter4222)" stroke-miterlimit="4" stroke-width="0" fill="#000"/><path id="path285" d="m101.23,184.73c-12.895,0-23.34,10.444-23.34,23.325v62.904c0,12.894,10.445,23.34,23.34,23.34h54.044l-35.714-109.57h-18.326z" stroke="#FFF" stroke-width="2.05147743" fill="#3f3f3f"/><path id="path287" d="M221.23,184.73h-18.316l-35.698,109.57h54.009c12.882,0,23.327-10.446,23.327-23.34v-62.904c0.001-12.881-10.445-23.325-23.326-23.325z" stroke="#FFF" stroke-width="2.05147743" fill="#3f3f3f"/><path id="path289" d="m204.37,140.39c0-23.827-19.305-43.12-43.133-43.121-23.815,0-43.135,19.293-43.135,43.121,0,23.802,19.321,43.122,43.135,43.122,23.828,0,43.133-19.32,43.133-43.122z" stroke="#FFF" stroke-width="2.05147743" fill="#bababa"/><polygon id="polygon291" transform="matrix(1.0257387,0,0,1.0257387,-6.5299323,-2.3966878)" stroke="#FFF" points="163.54,268.28,184.11,205.23,163.54,187.97,142.99,205.23" stroke-width="2" fill="#757575"/><polygon id="polygon307" transform="matrix(1.0257387,0,0,1.0257387,-9.6788283,-2.3966878)" stroke="#FFF" points="158.9,292.78,113.7,276.3,112.93,200.37,160.28,212.48" fill="url(#linearGradient4270)"/><polygon id="polygon309" transform="matrix(1.0257387,0,0,1.0257387,-9.6788283,-2.3966878)" stroke="#FFF" points="174.12,293.2,219.31,276.72,220.24,201.5,172.73,212.91" fill="url(#linearGradient4262)"/><path id="path311" d="m154.73,215.56s6.6211-5.6313,12.771,0.43697l1.4196,82.36s-7.0961,11.703-15.611-0.43492l1.4196-82.362z" stroke="#FFF" stroke-width="2.05147743" fill="#b38708"/><polygon id="polygon313" transform="matrix(1.0257387,0,0,1.0257387,-9.6788283,-2.3966878)" stroke="#FFF" points="122.46,196.85,117.35,200.6,160.19,211.72" fill="#cecece"/><polygon id="polygon315" transform="matrix(1.0257387,0,0,1.0257387,-9.6788283,-2.3966878)" stroke="#FFF" points="210.7,199.01,217.06,201.45,172.91,212.07" fill="#cecece"/></g></svg>