<?xml version="1.0" encoding="UTF-8" standalone="no"?>
<svg id="svg2" xmlns:rdf="http://www.w3.org/1999/02/22-rdf-syntax-ns#" xmlns="http://www.w3.org/2000/svg" enable-background="new -0.806 -0.5 208 131" xml:space="preserve" height="219" width="219" version="1.1" y="0px" x="0px" xmlns:cc="http://creativecommons.org/ns#" xmlns:xlink="http://www.w3.org/1999/xlink" viewBox="-0.806 -0.5 219 219" xmlns:dc="http://purl.org/dc/elements/1.1/"><metadata id="metadata258"><rdf:RDF><cc:Work rdf:about=""><dc:format>image/svg+xml</dc:format><dc:type rdf:resource="http://purl.org/dc/dcmitype/StillImage"/><dc:title/></cc:Work></rdf:RDF></metadata><defs id="defs4"><linearGradient id="linearGradient4249" y2="31.317" gradientUnits="userSpaceOnUse" x2="10.002" y1="124.56" x1="147.35"><stop id="stop4243" stop-color="#5d5d5d" offset="0"/><stop id="stop4251" stop-color="#929292" offset="0.53014"/><stop id="stop4245" stop-color="#c6c6c6" offset="1"/></linearGradient><filter id="filter4577"><feGaussianBlur id="feGaussianBlur4579" stdDeviation="1.7911195"/></filter></defs><g id="g4611"><path id="path4575" opacity="0.5" d="m11.341,148.77c0.27495-15.017,0.49992-39.409,0.49992-54.205v-26.9l12.34-8.0846,12.34-8.0846,65.616,0.001c36.089,0.00077,75.554,0.22539,87.7,0.49915l22.084,0.49776v54.069,54.069l-10.004,7.1064c-5.5022,3.9085-10.117,7.383-10.256,7.721-0.13843,0.33803-40.88,0.61459-90.536,0.61459h-90.284l0.49993-27.304z" fill-rule="evenodd" filter="url(#filter4577)" stroke-miterlimit="4" stroke-width="0" fill="#000"/><path id="polygon243_1_" d="M30.213,44.776,5.9906,60.826,184.19,60.652,204.73,45.643z" fill="#b6b8ba"/><path id="polygon245_1_" d="M184.74,60.997,185.54,168.94,205.49,154.45,205.87,45.591z" fill="#999"/><polygon id="polygon247_1_" points="1.338,21.102,0.501,129.44,152.7,129.87,151.87,21.529" fill="url(#linearGradient4249)" transform="matrix(1.1835463,0,0,1,4.360448,40.057743)"/><path id="polygon255_1_" d="M4.4225,169.71,184.56,169.67,205.98,154.28,206.17,45.202,30.241,44.519,5.2605,60.901z" stroke="#000" fill="none"/><path id="path4618" d="m185.09,169.67-0.797-108.61,21.513-15.661" stroke="#000" fill="none"/><line id="line4620" stroke-width="1.094" x1="4.7187" y1="61.158" stroke="#000" x2="184.03" y2="61.158" fill="none"/><path id="path261_1_" d="m185.43,168.47,20.101-14.341,0.256-76.098c-0.001,0-1.2977,73.834-20.357,90.439z" fill="#605f5f"/><path id="path263_1_" d="m205.46,46.414-20.515,14.673,0.5,56.851c-0.94478,0.37751,0.25597-54.265,20.015-71.524z" fill="#7c7c7c"/><path id="path265_1_" d="M118.82,45.314,30.154,45.074,6.8888,60.564s46.113-15.888,111.93-15.25z" fill="#e2e2e2"/><polygon id="polygon250-9" style="stroke-dasharray:none;" transform="matrix(1.540577,0,0,1.1292152,-12.561684,29.086506)" stroke="#e6b14b" points="47.16,60.878,64.978,75.506,47.381,90.318,47.249,82.992,15.291,82.975,15.297,68.274,47.141,68.271" stroke-miterlimit="4" stroke-width="0.88557076" fill="#FFF"/><polygon id="polygon250-9-7" style="stroke-dasharray:none;" transform="matrix(1.4016908,0,0,1.1292152,79.92234,30.073348)" stroke="#e6b14b" points="47.381,90.318,47.249,82.992,15.291,82.975,15.297,68.274,47.141,68.271,47.16,60.878,64.978,75.506" stroke-miterlimit="4" stroke-width="0.88557076" fill="#FFF"/><polygon id="polygon250-9-7-5" style="stroke-dasharray:none;" transform="matrix(1.2914405,0.54490242,-0.43897848,1.0403965,117.18387,46.843163)" stroke="#e6b14b" points="47.249,82.992,15.291,82.975,15.297,68.274,47.141,68.271,47.16,60.878,64.978,75.506,47.381,90.318" stroke-miterlimit="4" stroke-width="0.88557076" fill="#FFF"/><polygon id="polygon250-9-7-9" style="stroke-dasharray:none;" transform="matrix(1.2862062,-0.55714515,0.44884134,1.0361797,50.009602,27.059553)" stroke="#e6b14b" points="15.291,82.975,15.297,68.274,47.141,68.271,47.16,60.878,64.978,75.506,47.381,90.318,47.249,82.992" stroke-miterlimit="4" stroke-width="0.88557076" fill="#FFF"/></g></svg>