<?xml version="1.0" encoding="UTF-8" standalone="no"?>
<svg id="svg2" xmlns:rdf="http://www.w3.org/1999/02/22-rdf-syntax-ns#" xmlns="http://www.w3.org/2000/svg" xml:space="preserve" height="219" viewBox="-0.503 -0.588 219 219" width="219" version="1.1" y="0px" x="0px" xmlns:cc="http://creativecommons.org/ns#" xmlns:xlink="http://www.w3.org/1999/xlink" enable-background="new -0.503 -0.588 209 172" xmlns:dc="http://purl.org/dc/elements/1.1/">
	<metadata id="metadata4">
		<rdf:RDF>
			<cc:Work rdf:about="">
				<dc:format>image/svg+xml</dc:format>
				<dc:type rdf:resource="http://purl.org/dc/dcmitype/StillImage"/>
				<dc:title/>
			</cc:Work>
		</rdf:RDF>
	</metadata>
	<defs id="defs6">
	<linearGradient id="linearGradient3720" y2="18.3" gradientUnits="userSpaceOnUse" x2="-131" gradientTransform="matrix(1.3535039,0.04956226,-0.04978857,1.3596841,181.03234,-33.895275)" y1="82.1" x1="-72.1"><stop id="stop21" stop-color="#d71e1e" offset="0"/><stop id="stop23" stop-color="#FFF" offset="1"/></linearGradient></defs>
	<path id="path3710" fill="#a3a3a3" d="m44.903,100.64c2.2737,0.23144,5.5719-1.2681,6.1839,1.7711,13.648,26.448,27.297,52.895,40.945,79.343-1.2384,1.3319-2.4768,2.6638-3.7152,3.9958-14.471-28.37-28.943-56.74-43.414-85.11z"/><path id="path3708" fill="#a3a3a3" d="m211.29,51.17c-5.2-3.26-10.4-6.52-15.6-9.78,1.0341-10.204,0.69722-20.486,0-30.7-9.7459-0.85906,0.82179,17.081-8.3072,11.294-6.1992-2.0087-5.4616,6.1324,0.35476,6.1628,5.3981,0.39477,4.2891,5.5925,3.9962,9.3247,0.93529,4.0737-3.7125,1.2878-5.9422,1.4728-12.298-1.8116-24.596-3.6231-36.893-5.4347-7.1351,6.0291-14.653,11.588-23.171,15.493-2.2826,0.85659-5.7698,4.5797-5.797,0.06956-3.144-10.634-6.288-21.268-9.432-31.902-5.0873,2.3807-1.0412,7.8191-0.50735,11.717,2.2091,8.2143,4.4182,16.429,6.6274,24.643-5.7,3.8-11.4,7.6-17.1,11.4-4.5-15.667-9-31.333-13.5-47-6.0853,0.8751-1.7769,7.1143-1.3107,10.804,1.1114,3.7758,3.1354,8.0295-2.7895,8.4085-11.267,4.5775-22.655,9.1758-32.552,16.364-3.3593,1.9545-6.7185,3.909-10.078,5.8634-1.6067-4.2-3.2133-8.4-4.82-12.6,1.5748-3.7504,12.571-9.6743,5.295-12.291-3.508,3.4664-8.7167,10.605-11.337,2.1895-7.6365-3.1912,0.07708,8.0579,1.8095,11.071,1.8395,4.4712,3.2699,9.1158,4.9723,13.651-10.033,6.4333-20.067,12.867-30.1,19.3-1.5346,7.498,7.4986,0.61744,10.841-1.238,2.2033-0.94576,5.3884-4.6359,5.6618-0.18643,2.7523,7.3215,5.5045,14.643,8.2568,21.964,6.7283,1.142,1.765-5.5804,0.97825-8.7692-2.2227-5.9469-4.4455-11.894-6.6682-17.841,4.2817-3.7909,8.8398-4.8391,9.7897,2.2469,0.2595,3.4837,5.5025,8.515,4.3556,2.2785-2.7321-5.4876-6.6306-12.353,1.8693-14.349,10.651-6.6527,21.101-13.814,32.938-18.222,4.9624-2.1347,9.9247-4.2695,14.887-6.4042,2.1633,7.3,4.3267,14.6,6.49,21.9-2.5367,1.8633-5.0733,3.7267-7.61,5.59-0.72498-5.3414-8.081-3.9313-3.9546,0.90684,0.78312,4.1653,7.1506,14.07,6.6423,4.5079,2.0657-5.8478,8.2777-5.5226,8.1715,1.0113,2.1296,6.3913,4.2592,12.783,6.3888,19.174,6.2936-0.27144,1.5056-6.7379,0.95597-10.215-1.372-4.4149-2.744-8.8298-4.116-13.245,11.886-7.7997,24.148-15.008,36.775-21.519,3.5475-1.4485,8.74-9.1668,8.8296-1.7815,2.495,10.317,4.9899,20.634,7.4849,30.951,6.3105-0.19538,1.8795-6.7656,1.4409-10.329-2.307-8.7438-4.614-17.488-6.9209-26.231,3.1214-4.0724,9.0706-0.199,13.543-0.3313,10.382,1.6509,20.947,2.815,31.216,4.7673,4.1738,2.7114,8.3476,5.4227,12.521,8.1341,1.8152-0.73863,3.5518-1.6668,5.414-2.29z"/><path id="path3706" style="color:#000000;enable-background:accumulate;" fill-rule="nonzero" fill="#a3a3a3" d="m206.71,68.578c-4.0969,9.1803,1.4972,18.821,0.90207,28.272,1.0137,12.071,0.75486,24.195,0.80202,36.296-3.4954,5.6053-13.043,7.7228-18.162,6.4294-3.089-6.9347-3.3775-14.73-5.9933-21.849-2.5866-9.6131-4.3584-19.546-7.916-28.837-1.1952-3.9897-10.872-11.363-9.6483-3.3817,4.1753,3.703,8.5907,7.9031,8.6753,13.875,2.7071,10.617,5.4142,21.234,8.1214,31.851-10.573-8.4375-21.146-16.875-31.719-25.312-4.5063,8.2452,8.6782,11.541,13.018,16.262,7.9026,4.3856,5.673,13.992,5.7845,21.36,0.0277,12.566-0.23539,25.187-2.1661,37.627,2.7261,9.0788-7.3742,14.236-14.862,14.18-9.4036,0.48384-4.9546-13.33-7.6101-19.294-1.751-11.041-2.9531-22.242-5.1912-33.16-1.3175-3.3369-8.2111-13.563-10.018-5.7916,3.4061,4.4257,8.0683,8.7965,7.4488,14.9,1.6256,10.952,3.2513,21.903,4.8769,32.855-17.36-20.287-34.72-40.575-52.08-60.862-4.8543,5.0648,3.6097,9.2695,5.9318,13.309,15.695,18.497,31.391,36.994,47.086,55.491,0.3125,6.5312,0.625,13.062,0.9375,19.594,7.9616-0.17202,1.0261-16.216,11.724-12.598,7.8296-0.23494,17.563-4.6326,15.903-14.025,1.4194-15.748,2.6305-31.53,2.0645-47.356-0.0298-4.0381-1.1266-10.418,3.2652-5.3219,2.3887,2.1273,5.4259,3.8798,7.4132,6.2392,0.96021,6.3435,1.9204,12.687,2.8806,19.031,7.5697-1.5192-0.21098-16.707,11.035-13.87,6.7063-1.0904,14.917-5.6798,14.187-13.536-1.3958-9.9216-0.48857-20.107-1.3911-30.12-0.62058-10.083-2.1994-20.07-3.0804-30.131-0.48448-0.88133-0.98526-2.1724-2.2189-2.125z"/><path id="polygon27" fill="#cecece" d="m43.803,101.89c2.2111,0.22507,5.4185-1.2332,6.0137,1.7223,13.273,25.719,26.545,51.439,39.818,77.158-1.2043,1.2952-2.4086,2.5905-3.6129,3.8858-14.073-27.6-28.146-55.19-42.219-82.77z"/>
	<path id="path29" style="color:#000000;enable-background:accumulate;" fill-rule="nonzero" fill="#cecece" d="m204.71,66.578c-4.0969,9.1803,1.4972,18.821,0.90207,28.272,1.0137,12.071,0.75486,24.195,0.80202,36.296-3.4954,5.6053-13.043,7.7228-18.162,6.4294-3.089-6.9347-3.3775-14.73-5.9933-21.849-2.5866-9.6131-4.3584-19.546-7.916-28.837-1.1952-3.9897-10.872-11.363-9.6483-3.3817,4.1753,3.703,8.5907,7.9031,8.6753,13.875,2.7071,10.617,5.4142,21.234,8.1214,31.851-10.573-8.4375-21.146-16.875-31.719-25.312-4.5063,8.2452,8.6782,11.541,13.018,16.262,7.9026,4.3856,5.673,13.992,5.7845,21.36,0.0277,12.566-0.23539,25.187-2.1661,37.627,2.7261,9.0788-7.3742,14.236-14.862,14.18-9.4036,0.48384-4.9546-13.33-7.6101-19.294-1.751-11.041-2.9531-22.242-5.1912-33.16-1.3175-3.3369-8.2111-13.563-10.018-5.7916,3.4061,4.4257,8.0683,8.7965,7.4488,14.9,1.6256,10.952,3.2513,21.903,4.8769,32.855-17.36-20.287-34.72-40.575-52.08-60.862-4.8543,5.0648,3.6097,9.2695,5.9318,13.309,15.695,18.497,31.391,36.994,47.086,55.491,0.3125,6.5312,0.625,13.062,0.9375,19.594,7.9616-0.17202,1.0261-16.216,11.724-12.598,7.8296-0.23494,17.563-4.6326,15.903-14.025,1.4194-15.748,2.6305-31.53,2.0645-47.356-0.0298-4.0381-1.1266-10.418,3.2652-5.3219,2.3887,2.1273,5.4259,3.8798,7.4132,6.2392,0.96021,6.3435,1.9204,12.687,2.8806,19.031,7.5697-1.5192-0.21098-16.707,11.035-13.87,6.7063-1.0904,14.917-5.6798,14.187-13.536-1.3958-9.9216-0.48857-20.107-1.3911-30.12-0.62058-10.083-2.1994-20.07-3.0804-30.131-0.48448-0.88133-0.98526-2.1724-2.2189-2.125z"/>
	<path id="path31" fill="#cecece" d="m209.29,49.17c-5.2-3.26-10.4-6.52-15.6-9.78,1.0341-10.204,0.69722-20.486,0-30.7-9.7459-0.85906,0.82179,17.081-8.3072,11.294-6.1992-2.0087-5.4616,6.1324,0.35476,6.1628,5.3981,0.39477,4.2891,5.5925,3.9962,9.3247,0.93529,4.0737-3.7125,1.2878-5.9422,1.4728-12.298-1.8116-24.596-3.6231-36.893-5.4347-7.1351,6.0291-14.653,11.588-23.171,15.493-2.2826,0.85659-5.7698,4.5797-5.797,0.06956-3.144-10.634-6.288-21.268-9.432-31.902-5.0873,2.3807-1.0412,7.8191-0.50735,11.717,2.2091,8.2143,4.4182,16.429,6.6274,24.643-5.7,3.8-11.4,7.6-17.1,11.4-4.5-15.667-9-31.333-13.5-47-6.0853,0.8751-1.7769,7.1143-1.3107,10.804,1.1114,3.7758,3.1354,8.0295-2.7895,8.4085-11.267,4.5775-22.655,9.1758-32.552,16.364-3.3593,1.9545-6.7185,3.909-10.078,5.8634-1.6067-4.2-3.2133-8.4-4.82-12.6,1.5748-3.7504,12.571-9.6743,5.295-12.291-3.508,3.4664-8.7167,10.605-11.337,2.1895-7.6365-3.1912,0.07708,8.0579,1.8095,11.071,1.8395,4.4712,3.2699,9.1158,4.9723,13.651-10.033,6.4333-20.067,12.867-30.1,19.3-1.5346,7.498,7.4986,0.61744,10.841-1.238,2.2033-0.94576,5.3884-4.6359,5.6618-0.18643,2.7523,7.3215,5.5045,14.643,8.2568,21.964,6.7283,1.142,1.765-5.5804,0.97825-8.7692-2.2227-5.9469-4.4455-11.894-6.6682-17.841,4.2817-3.7909,8.8398-4.8391,9.7897,2.2469,0.2595,3.4837,5.5025,8.515,4.3556,2.2785-2.7321-5.4876-6.6306-12.353,1.8693-14.349,10.651-6.6527,21.101-13.814,32.938-18.222,4.9624-2.1347,9.9247-4.2695,14.887-6.4042,2.1633,7.3,4.3267,14.6,6.49,21.9-2.5367,1.8633-5.0733,3.7267-7.61,5.59-0.72498-5.3414-8.081-3.9313-3.9546,0.90684,0.78312,4.1653,7.1506,14.07,6.6423,4.5079,2.0657-5.8478,8.2777-5.5226,8.1715,1.0113,2.1296,6.3913,4.2592,12.783,6.3888,19.174,6.2936-0.27144,1.5056-6.7379,0.95597-10.215-1.372-4.4149-2.744-8.8298-4.116-13.245,11.886-7.7997,24.148-15.008,36.775-21.519,3.5475-1.4485,8.74-9.1668,8.8296-1.7815,2.495,10.317,4.9899,20.634,7.4849,30.951,6.3105-0.19538,1.8795-6.7656,1.4409-10.329-2.307-8.7438-4.614-17.488-6.9209-26.231,3.1214-4.0724,9.0706-0.199,13.543-0.3313,10.382,1.6509,20.947,2.815,31.216,4.7673,4.1738,2.7114,8.3476,5.4227,12.521,8.1341,1.8152-0.73863,3.5518-1.6668,5.414-2.29z"/>
<path id="polygon25" fill="#ffcd2c" d="M11.565,106.28c-4.5395-10.176,10.777-5.51,16.303-7.698,22.195-2.117,44.473-3.223,66.674-5.266,21.538-7.26,43.718-12.846,64.818-21.268,18.317-8.6992,36.883-16.893,54.88-26.252,5.7712,9.5605-10.655,8.9447-15.607,13.589-8.9378,4.2535-17.777,8.7095-26.715,12.964-9.8809,11.725-17.814,24.8-24.986,38.307-8.5257,14.436-20.133,26.722-30.022,40.217-10.465,13.028-20.16,26.756-31.314,39.184-7.8361,7.6519-15.672,15.304-23.508,22.956-5.8842-6.5702,6.8121-11.104,9.8297-16.292,10.655-9.6952,19.987-20.639,28.472-32.257,13.144-17.188,26.864-33.995,39.532-51.511,5.5042-9.9943,11.008-19.989,16.513-29.983-4.9027-7.8202-16.597,3.4051-24.088,3.6414-13.155,4.126-26.063,9.5094-39.451,12.611-27.124,2.131-54.394,2.941-81.324,7.051z"/><path id="path83" fill="url(#linearGradient3720)" d="m21.381,60.928c-0.78668,17.197,8.0172,34.451,22.5,43.8,7.9667,28.4,15.933,56.8,23.9,85.2,9.2-27.7,18.4-55.4,27.6-83.1,20.769-10.857,31.269-37.287,23.759-59.447-6.8-22.449-31.356-38.122-54.587-33.487-13.79,1.534-27.786,8.313-34.438,21.027-4.539,8.015-6.923,17.038-8.734,26.005z"/><g id="g85" font-size="63.38819885px" transform="matrix(1.3535039,0.04956226,-0.04978857,1.3596841,181.68388,-33.070854)" font-family="Arial-BoldMT" fill="#000">
		<path id="path87" fill="#000" d="m-79.4,50-8.48,23,17,0-8.51-23m-3.53-6.16,7.09,0,17.6,46.2-6.5,0-4.21-11.9-20.8,0-4.21,11.9-6.59,0,17.6-46.2"/>
	</g><path id="path89" d="m65.785,181.91c-0.84264-4.6736,24.047-79.312,26.944-80.704,4.8439-2.3686,14.435-12.978,18.362-20.295,3.9879-7.492,4.1206-8.1543,4.632-21.751,0.28415-7.6821,0.60946-14.001,0.72126-13.997,1.1019,0.03613,3.2635,14.143,3.0543,19.854-0.54269,14.821-9.6294,31.643-20.654,38.455-5.338,3.2764-3.5815-1.0161-20.095,49.095-5.9002,17.892-11.067,32.407-11.487,32.392-0.41833-0.0126-1.0175-1.4532-1.3337-3.1803z" fill-rule="evenodd" stroke-miterlimit="4" fill="#8b250d"/><path id="path91" d="m24.679,70.363c-2.6394-14.529,3.6042-32.544,15.03-43.29,6.0482-5.6466,12.605-9.6408,13.765-8.3866,0.33114,0.35795-0.22124,0.93406-1.226,1.2799-2.319,0.796-10.054,10.306-14.898,18.243-4.775,7.885-8.973,20.366-10.358,30.799l-1.0922,8.2107-1.2525-6.8806z" fill-rule="evenodd" stroke-miterlimit="4" fill="#fbd5d5"/></svg>