<?xml version="1.0" encoding="UTF-8" standalone="no"?>
<svg id="svg2" xmlns:rdf="http://www.w3.org/1999/02/22-rdf-syntax-ns#" xmlns="http://www.w3.org/2000/svg" version="1.1" xml:space="preserve" height="219" viewBox="-0.913 -0.904 219 219" width="219" enable-background="new -0.913 -0.904 225 242" y="0px" x="0px" xmlns:cc="http://creativecommons.org/ns#" xmlns:xlink="http://www.w3.org/1999/xlink" xmlns:dc="http://purl.org/dc/elements/1.1/"><metadata id="metadata461"><rdf:RDF><cc:Work rdf:about=""><dc:format>image/svg+xml</dc:format><dc:type rdf:resource="http://purl.org/dc/dcmitype/StillImage"/><dc:title/></cc:Work></rdf:RDF></metadata><defs id="defs4"><clipPath id="SVGID_2_"><use id="use245" xlink:href="#SVGID_1_" height="242" width="225" y="0" x="0" overflow="visible"/></clipPath></defs><path id="DVDBorder" fill-rule="evenodd" fill="#5c5b63" d="m106.75,1.0118c-57.562,0-104.21,46.678-104.21,104.24s46.647,104.21,104.21,104.21c57.562,0,104.24-46.647,104.24-104.21,0-57.562-46.678-104.24-104.24-104.24zm1.9068,94.865c6.5372,0,11.822,5.2853,11.822,11.822,0,6.5372-5.2852,11.854-11.822,11.854-6.5372,0-11.854-5.317-11.854-11.854,0-6.5372,5.317-11.822,11.854-11.822z"/><g id="g239" transform="translate(372.91486,-145.47555)"><defs id="defs241"><path id="SVGID_1_" d="m215.67,117.25c0,55.902-45.322,101.23-101.23,101.23-55.904,0-101.23-45.324-101.23-101.23,0-55.91,45.321-101.23,101.23-101.23,55.906,0,101.23,45.319,101.23,101.23z"/></defs><g id="g247" transform="translate(-381.01542,133.62942)" clip-path="url(#SVGID_2_)"><path id="path253" fill="#073a77" d="M222.09,0.847,1.007,27.686,0.751,215.42l221.84,24.425-0.5-239zm-107.25,140.5c-11.184,0-20.25-9.066-20.25-20.25,0-11.185,9.067-20.25,20.25-20.25,11.184,0,20.25,9.066,20.25,20.25s-9.066,20.25-20.25,20.25z"/><g id="g259"><g id="g261"><path id="path263" fill="#4388bf" d="M94.409,17.894c-34.191,6.963-62.153,31.055-74.538,62.926l83.442,31.888,9.231-9.233-18.135-85.581z"/><path id="path265" fill="#b5ddf7" d="M105.33,16.16c-34.743,3.224-65.148,24.148-80.91,54.491l79.499,40.73,10.177-8.181-8.766-87.04z"/><path id="path267" fill="#073a77" d="M118.94,15.6c-34.865-1.423-67.784,15.273-87.439,43.251l73.38,50.937,11.174-6.755,2.88-87.433z"/><path id="path269" fill="#0a4a89" d="M180.18,39.728c-26.6-22.583-62.82-29.69-95.531-19.742l26.468,85.314,12.964,1.556,56.1-67.128z"/><path id="path271" fill="#3396cc" d="M157.34,25.051c-31.58-14.827-68.395-12.199-97.361,5.971l47.893,75.401,12.92-1.895,36.553-79.477z"/><path id="path275" fill="#4388bf" d="m138.33,216.7c33.957-7.796,61.275-32.535,72.85-64.651l-80.125-28.781-11.939,11.688,19.214,81.744z"/><path id="path277" fill="#b5ddf7" d="m127.48,218.7c34.598-4.072,64.434-25.709,79.416-56.389l-78.1-37.661-10.807,10.432,9.491,83.618z"/><path id="path279" fill="#073a77" d="m113.91,219.59c34.832,0.563,67.279-16.916,86.209-45.326l-72.076-47.227-12.943,7.792-1.19,84.761z"/><path id="path281" fill="#0a4a89" d="m52.184,197.02c27.105,21.884,63.433,28.086,95.843,17.35l-27.148-80.295-15.583-2.262-53.112,65.207z"/><path id="path283" fill="#3396cc" d="m75.337,211.1c31.893,14.024,68.577,10.493,97.042-8.355l-48.107-71.059-14.328,2.892-34.607,76.522z"/></g><path id="path287" fill="#FFF" d="m58.32,46.8c-0.006,0-5.792-0.082-5.963,5.792,0,0-0.34,6.559,6.389,6.474,2.514-0.031,4.799-1.502,5.537-4.069,0.523-1.823,0.346-3.775-0.598-5.471-1.16-2.088-3.162-2.693-5.365-2.726z"/><path id="path289" fill="#1f77b2" d="m58.404,49.598c-0.004,0-3.145-0.045-3.236,3.144,0,0-0.186,3.56,3.467,3.514,1.365-0.016,2.605-0.814,3.007-2.208,0.283-0.99,0.187-2.05-0.324-2.971-0.631-1.135-1.718-1.463-2.914-1.479z"/><path id="path291" fill="#FFF" d="m125.27,16.392c-0.004,0-5.792-0.083-5.961,5.792,0,0-0.342,6.558,6.388,6.473,2.514-0.031,4.8-1.502,5.537-4.068,0.524-1.823,0.346-3.776-0.597-5.472-1.161-2.088-3.162-2.693-5.367-2.725z"/><path id="path293" fill="#3396cc" d="m125.36,19.189c-0.004,0-3.146-0.045-3.237,3.144,0,0-0.186,3.56,3.469,3.514,1.363-0.017,2.604-0.815,3.006-2.208,0.283-0.99,0.186-2.05-0.326-2.971-0.63-1.134-1.716-1.463-2.912-1.479z"/><path id="path297" d="m8.545,118.42c-0.003,0-3.144-0.047-3.236,3.143,0,0-0.185,3.562,3.469,3.514,1.364-0.016,2.605-0.814,3.006-2.207,0.283-0.99,0.188-2.051-0.324-2.973-0.632-1.133-1.718-1.464-2.915-1.477z" stroke="#073a77" stroke-width="2" fill="#073a77"/><path id="path301" d="m16.041,135.46c-0.002,0-3.144-0.047-3.236,3.143,0,0-0.186,3.561,3.469,3.514,1.363-0.016,2.605-0.814,3.005-2.207,0.284-0.99,0.188-2.049-0.324-2.973-0.631-1.133-1.718-1.461-2.914-1.477z" stroke="#073a77" stroke-width="2" fill="#073a77"/><path id="path303" fill="#FFF" d="m91.712,183.51c-0.004,0-5.79-0.082-5.962,5.793,0,0-0.341,6.559,6.389,6.473,2.514-0.031,4.8-1.502,5.537-4.068,0.523-1.824,0.345-3.775-0.597-5.471-1.161-2.09-3.164-2.696-5.367-2.727z"/><path id="path305" fill="#3396cc" d="m91.796,186.31c-0.002,0-3.144-0.045-3.236,3.145,0,0-0.185,3.557,3.469,3.512,1.364-0.016,2.605-0.814,3.005-2.207,0.285-0.99,0.188-2.051-0.324-2.971-0.63-1.136-1.718-1.464-2.914-1.479z"/><path id="path309" fill="#FFF" d="m126.55,178.47c-0.007,0-5.793-0.084-5.962,5.795,0,0-0.342,6.557,6.388,6.473,2.513-0.033,4.799-1.504,5.537-4.068,0.522-1.824,0.344-3.777-0.596-5.471-1.162-2.093-3.166-2.696-5.367-2.729z"/><path id="path311" fill="#3396cc" d="m126.63,181.26c-0.002,0-3.144-0.045-3.236,3.145,0,0-0.184,3.561,3.468,3.516,1.365-0.016,2.606-0.816,3.006-2.211,0.285-0.99,0.189-2.049-0.323-2.969-0.632-1.136-1.718-1.466-2.915-1.481z"/><path id="path315" fill="#FFF" d="m213.89,120.82c-0.006,0-5.793-0.082-5.964,5.793,0,0-0.34,6.559,6.39,6.473,2.513-0.031,4.8-1.502,5.537-4.068,0.523-1.82,0.345-3.775-0.598-5.471-1.161-2.088-3.161-2.695-5.365-2.727z"/><path id="path321" fill="#FFF" d="m213.77,95.788c-0.006,0-5.793-0.083-5.963,5.793,0,0-0.342,6.558,6.389,6.473,2.513-0.031,4.799-1.502,5.536-4.068,0.524-1.825,0.347-3.776-0.597-5.472-1.16-2.089-3.162-2.695-5.365-2.726z"/><path id="path323" d="m213.86,98.585c-0.005,0-3.146-0.045-3.237,3.144,0,0-0.186,3.56,3.469,3.514,1.364-0.016,2.604-0.816,3.005-2.209,0.284-0.99,0.187-2.049-0.324-2.97-0.63-1.134-1.716-1.462-2.913-1.479z" stroke="#073a77" stroke-width="2" fill="#073a77"/><path id="path325" fill="#FFF" d="m160.48,24.228c-0.006,0-5.793-0.082-5.963,5.792,0,0-0.341,6.558,6.388,6.474,2.515-0.032,4.801-1.503,5.537-4.069,0.524-1.823,0.346-3.776-0.596-5.471-1.161-2.089-3.162-2.694-5.366-2.726z"/><path id="path327" fill="#0a4a89" d="m160.57,27.026c-0.005,0-3.146-0.045-3.238,3.144,0,0-0.186,3.56,3.47,3.513,1.362-0.015,2.604-0.814,3.005-2.208,0.283-0.99,0.187-2.05-0.325-2.971-0.631-1.133-1.717-1.462-2.912-1.478z"/><path id="path329" fill="#FFF" d="m27.429,67.042c-0.007,0-5.792-0.083-5.962,5.792,0,0-0.342,6.559,6.389,6.474,2.513-0.032,4.799-1.503,5.536-4.069,0.524-1.824,0.345-3.776-0.597-5.472-1.16-2.087-3.163-2.693-5.366-2.725z"/><path id="path331" fill="#4388bf" d="m27.513,69.84c-0.003,0-3.144-0.045-3.237,3.144,0,0-0.184,3.56,3.469,3.514,1.364-0.016,2.605-0.815,3.006-2.208,0.283-0.99,0.188-2.05-0.324-2.971-0.632-1.134-1.718-1.463-2.914-1.479z"/><path id="path333" fill="#FFF" d="m45.863,75.154c-0.005,0-5.165-0.073-5.317,5.167,0,0-0.304,5.849,5.698,5.773,2.242-0.028,4.281-1.34,4.938-3.63,0.468-1.626,0.309-3.367-0.532-4.879-1.035-1.862-2.821-2.402-4.787-2.431z"/><path id="path335" fill="#b5ddf7" d="m45.939,77.65c-0.004,0-2.805-0.041-2.888,2.804,0,0-0.165,3.175,3.094,3.133,1.217-0.013,2.324-0.726,2.681-1.968,0.254-0.884,0.168-1.828-0.289-2.65-0.562-1.012-1.531-1.304-2.598-1.319z"/><path id="path337" fill="#FFF" d="m78.562,75.466c-0.006,0-5.167-0.073-5.317,5.167,0,0-0.305,5.849,5.697,5.773,2.242-0.028,4.281-1.341,4.938-3.629,0.468-1.627,0.309-3.367-0.531-4.879-1.036-1.864-2.822-2.404-4.787-2.432z"/><path id="path339" fill="#1f77b2" d="m78.637,77.961c-0.004,0-2.805-0.042-2.887,2.804,0,0-0.166,3.176,3.094,3.134,1.217-0.014,2.322-0.728,2.68-1.969,0.253-0.884,0.168-1.829-0.289-2.65-0.563-1.011-1.532-1.304-2.598-1.319z"/><path id="path343" fill="#FFF" d="m179.63,71.875c0,0.005-0.036,4.209,4.234,4.311,0,0,4.767,0.222,4.678-4.668-0.033-1.826-1.109-3.481-2.978-4.007-1.327-0.374-2.745-0.235-3.974,0.454-1.512,0.851-1.943,2.31-1.96,3.91z"/><path id="path345" d="m181.66,71.803c0,0.004-0.022,2.285,2.297,2.341,0,0,2.587,0.121,2.539-2.534-0.018-0.992-0.604-1.889-1.615-2.175-0.722-0.203-1.491-0.128-2.158,0.247-0.823,0.462-1.058,1.252-1.063,2.121z" stroke="#073a77" stroke-width="1.5" fill="#073a77"/><path id="path351" d="m188.41,152.4c0.003,0,3.873,0.055,3.988-3.873,0,0,0.226-4.385-4.272-4.326-1.683,0.021-3.21,1.004-3.703,2.719-0.351,1.221-0.231,2.525,0.4,3.658,0.775,1.397,2.114,1.803,3.587,1.822z" stroke="#FFF" stroke-width="2" fill="none"/><path id="path353" fill="#4388bf" d="m188.36,150.53c0.004,0,2.103,0.031,2.164-2.102,0,0,0.123-2.379-2.318-2.348-0.911,0.008-1.742,0.543-2.009,1.473-0.191,0.664-0.127,1.373,0.215,1.99,0.421,0.759,1.149,0.978,1.948,0.987z"/><path id="path355" fill="#FFF" d="m163.9,152.16c0.004,0,3.871,0.053,3.987-3.873,0,0,0.228-4.387-4.272-4.33-1.681,0.023-3.209,1.006-3.702,2.723-0.35,1.219-0.229,2.521,0.398,3.656,0.778,1.398,2.118,1.803,3.589,1.824z"/><path id="path357" fill="#b5ddf7" d="m163.85,150.3c0.003,0,2.103,0.031,2.164-2.104,0,0,0.125-2.381-2.318-2.35-0.914,0.01-1.742,0.545-2.01,1.477-0.19,0.662-0.125,1.369,0.216,1.986,0.422,0.758,1.15,0.975,1.948,0.991z"/><path id="path359" fill="#FFF" d="m158.27,159.84c0-0.004,0.034-3.873-3.896-3.965,0,0-4.387-0.205-4.305,4.293,0.029,1.684,1.021,3.203,2.74,3.689,1.222,0.344,2.525,0.217,3.655-0.418,1.394-0.785,1.79-2.127,1.806-3.599z"/><path id="path361" fill="#1f77b2" d="m156.4,159.91c0-0.004,0.021-2.104-2.114-2.156,0,0-2.381-0.111-2.335,2.334,0.014,0.91,0.555,1.736,1.487,2,0.661,0.186,1.369,0.119,1.985-0.227,0.756-0.425,0.972-1.154,0.977-1.951z"/><path id="path363" fill="#FFF" d="m158.16,184.35c0-0.008,0.034-3.873-3.894-3.967,0,0-4.387-0.205-4.305,4.295,0.03,1.68,1.021,3.205,2.738,3.688,1.223,0.342,2.526,0.217,3.656-0.42,1.396-0.781,1.791-2.123,1.805-3.596z"/><path id="path365" fill="#3396cc" d="m156.29,184.42c0-0.004,0.021-2.102-2.11-2.154,0,0-2.383-0.111-2.338,2.332,0.015,0.914,0.555,1.738,1.485,2.002,0.665,0.188,1.372,0.119,1.986-0.227,0.756-0.426,0.972-1.152,0.977-1.953z"/><path id="path387" fill="#FFF" d="m62.48,183.69c0.006,0,6.121,0.053,6.269-6.154,0,0,0.321-6.934-6.789-6.807-2.654,0.049-5.063,1.613-5.827,4.334-0.544,1.928-0.344,3.99,0.66,5.773,1.238,2.202,3.359,2.833,5.687,2.854z"/><path id="path389" d="m62.375,180.74c0.005,0,3.324,0.029,3.404-3.342,0,0,0.176-3.762-3.686-3.693-1.442,0.025-2.748,0.877-3.164,2.35-0.295,1.049-0.186,2.166,0.359,3.141,0.673,1.193,1.823,1.533,3.087,1.544z" stroke="#073a77" stroke-width="2" fill="#073a77"/><path id="path399" fill="#FFF" d="m175.59,173.59c0.004,0,4.597,0.066,4.731-4.596,0,0,0.271-5.207-5.069-5.139-1.997,0.025-3.809,1.193-4.395,3.229-0.415,1.447-0.274,2.994,0.474,4.34,0.921,1.66,2.511,2.141,4.259,2.166z"/><path id="path401" fill="#1f77b2" d="m175.52,171.37c0.003,0,2.495,0.039,2.57-2.492,0,0,0.146-2.828-2.753-2.789-1.083,0.01-2.067,0.643-2.385,1.75-0.227,0.787-0.15,1.625,0.256,2.357,0.5,0.899,1.362,1.161,2.312,1.174z"/><path id="polyline413" style="block-progression:tb;color:#000000;direction:ltr;text-indent:0;text-align:start;enable-background:accumulate;text-transform:none;" fill="#FFF" d="m124.62,28.562,0.0625,28.125-7.8438,9.3125-0.21875,0.28125,0,0.375,0,30.938,2,0,0-30.594,7.8438-9.3125,0.21875-0.28125,0-0.375-0.0625-28.469-2,0z"/><path id="polyline415" style="block-progression:tb;color:#000000;direction:ltr;text-indent:0;text-align:start;enable-background:accumulate;text-transform:none;" fill="#FFF" d="m48.906,111.44-0.28125,0.21875-11.375,8.9688-22.688,0,0,2,23.031,0,0.34375,0,0.28125-0.1875,11.375-9,11.062,0,7.9062,9.9688,0.3125,0.375,0.46875,0,15.562,0.0937,0.03125-2-15.094-0.0937-7.9062-9.9688-0.3125-0.375-0.46875,0-11.906,0-0.34375,0z"/><path id="polyline417" style="block-progression:tb;color:#000000;direction:ltr;text-indent:0;text-align:start;enable-background:accumulate;text-transform:none;" fill="#FFF" d="m85.094,133.06-22.938,0.0625-0.5,0.0312-0.3125,0.40625-11.656,16.5-10.5,0-11.125-11.844-0.28125-0.3125-0.4375,0-5.2812,0,0,2,4.8125,0l11.124,11.84,0.3125,0.3125h0.40625,11.5,0.53125l0.3125-0.4375,11.656-16.5,22.406-0.0625-0.03125-2z"/><path id="polyline419" style="block-progression:tb;color:#000000;direction:ltr;text-indent:0;text-align:start;enable-background:accumulate;text-transform:none;" fill="#FFF" d="m99.938,142.81,0.0625,17.969-8.7812,10.312-0.25,0.28125,0,0.34375,0,11.781,2,0,0-11.406,8.7812-10.312,0.25-0.28125,0-0.375-0.0625-18.312-2,0z"/><path id="polyline421" style="block-progression:tb;color:#000000;direction:ltr;text-indent:0;text-align:start;enable-background:accumulate;text-transform:none;" fill="#FFF" d="m124.28,142.78-0.0937,10.625-1.9688,3.125-0.15625,0.21875,0,0.3125,0,7.5938,0,0.34375,0.21875,0.28125,6.25,7.7812,0,6.625,2,0,0-6.9688,0-0.375-0.21875-0.25-6.25-7.7812,0-6.9688,1.9688-3.125,0.15625-0.25,0-0.28125,0.0937-10.875-2-0.0312z"/><path id="polyline423" style="block-progression:tb;color:#000000;direction:ltr;text-indent:0;text-align:start;enable-background:accumulate;text-transform:none;" fill="#FFF" d="m160.22,36.25,0,10.594l-7.22,4.906-0.4375,0.3125v0.53125l0.15625,11.062-18.094,11.438-0.46875,0.3125v0.53125l0.1875,22.969h2l-0.1875-22.438,18.094-11.438,0.46875-0.3125v-0.5625l-0.15625-11.062,7.2188-4.9062,0.4375-0.3125v-0.53125-11.094h-2z"/><path id="polyline425" style="block-progression:tb;color:#000000;direction:ltr;text-indent:0;text-align:start;enable-background:accumulate;text-transform:none;" fill="#FFF" d="m28.969,78.125-2,0.03125,0.09375,11.594,0,0.375,0.28125,0.28125,10.906,12.031,0.3125,0.34375,0.4375,0,24.5,0,6.3125,8.125,0.28125,0.375,0.5,0,13.344,0.0312,0-2-12.875-0.0312-6.2812-8.125-0.3125-0.375-0.5,0-24.531,0l-10.375-11.436-0.093-11.219z"/><path id="line427" style="block-progression:tb;color:#000000;direction:ltr;text-indent:0;text-align:start;enable-background:accumulate;text-transform:none;" fill="#FFF" d="m185.16,49.312-2,0.03125,0.0937,17.938,2,0-0.0937-17.969z"/><path id="line429" style="block-progression:tb;color:#000000;direction:ltr;text-indent:0;text-align:start;enable-background:accumulate;text-transform:none;" fill="#FFF" d="m167.69,147.12,0,2,16.531,0,0-2-16.531,0z"/><path id="line431" style="block-progression:tb;color:#000000;direction:ltr;text-indent:0;text-align:start;enable-background:accumulate;text-transform:none;" fill="#FFF" d="m153,164.06,0.0937,16.531,2,0l-0.09-16.53h-2z"/><path id="line437" style="block-progression:tb;color:#000000;direction:ltr;text-indent:0;text-align:start;enable-background:accumulate;text-transform:none;" fill="#FFF" d="m55.781,175.94-26.094,0.15625,0,2,26.125-0.15625-0.03125-2z"/><path id="line439" style="block-progression:tb;color:#000000;direction:ltr;text-indent:0;text-align:start;enable-background:accumulate;text-transform:none;" fill="#FFF" d="m180.09,167.78,0,2,19.594,0,0-2-19.594,0z"/><path id="polyline411" style="block-progression:tb;color:#000000;direction:ltr;text-indent:0;text-align:start;enable-background:accumulate;text-transform:none;" fill="#FFF" d="m64.469,51.938-0.03125,2,23.469,0.0625,0,17.656,0,0.625,0.5625,0.28125,12.562,6.0938,0,18.312,2,0,0-18.938,0-0.625-0.5625-0.28125-12.562-6.0625,0-18.062,0-1-1,0-24.438-0.0625z"/><path id="line409" style="block-progression:tb;color:#000000;direction:ltr;text-indent:0;text-align:start;enable-background:accumulate;text-transform:none;" fill="#FFF" d="m51.469,79.875,0,2,22.031,0,0-2-22.031,0z"/><path id="polyline407" style="block-progression:tb;color:#000000;direction:ltr;text-indent:0;text-align:start;enable-background:accumulate;text-transform:none;" fill="#FFF" d="m174.62,125.06-0.21875,0.71875-3.6875,11.688-7.875-0.125-2.4688-7.0625-0.21875-0.65625-0.71875,0-15.719,0,0,2,15.031,0,2.4375,7.0312,0.21875,0.6875,0.71875,0,9.3125,0.125,0.71875,0,0.25-0.71875,3.6875-11.656,32.906,0.0937,0-2-33.625-0.0937-0.75-0.0312z"/><path id="polyline405" style="block-progression:tb;color:#000000;direction:ltr;text-indent:0;text-align:start;enable-background:accumulate;text-transform:none;" fill="#FFF" d="M177.62,92.375,177.34,92.75,166.75,106.12,145.16,106v2l22.062,0.125h0.46875l0.3125-0.40625,10.594-13.344h10.219l10.719,8.2812,0.28125,0.21875h0.3125l8.0625,0.125,0.0312-2-7.75-0.125-10.719-8.3125-0.28125-0.1875h-0.34375-11-0.5z"/></g></g></g><path id="circle457-4" d="m126.04,120.48c0,6.428-5.211,11.639-11.639,11.639s-11.639-5.211-11.639-11.639,5.211-11.639,11.639-11.639,11.639,5.211,11.639,11.639z" transform="translate(-5.6816464,-13.060486)" stroke="#3a3a3a" stroke-width="1.5" fill="none"/><path id="path445" d="m142.42,107.29c0,18.668-15.138,33.809-33.808,33.809-18.673,0-33.809-15.141-33.809-33.809,0-18.672,15.136-33.809,33.809-33.809,18.67,0,33.808,15.137,33.808,33.809z" stroke="#565656" stroke-width="3" fill="none"/><path id="path447" d="m137.56,107.29c0,15.986-12.963,28.951-28.949,28.951-15.989,0-28.95-12.965-28.95-28.951,0-15.987,12.961-28.947,28.95-28.947,15.986-0.001,28.949,12.959,28.949,28.947z" stroke="#eaeaea" stroke-width="8" fill="none"/><path id="circle449" d="m139.84,120.53c0,14.158-11.477,25.635-25.635,25.635s-25.635-11.477-25.635-25.635,11.477-25.635,25.635-25.635,25.635,11.477,25.635,25.635z" transform="translate(-5.7029964,-13.051582)" stroke="#444" stroke-width="2" fill="none"/><path id="path451" d="m128.38,107.54c0,10.92-8.853,19.768-19.769,19.768-10.922,0-19.771-8.848-19.771-19.768,0-10.918,8.85-19.766,19.771-19.766,10.916,0,19.769,8.848,19.769,19.766z" stroke="#b7b6b6" stroke-width="12" fill="none"/><path id="path453" d="m124.78,107.46c0,8.922-7.232,16.154-16.153,16.154-8.925,0-16.155-7.232-16.155-16.154s7.23-16.15,16.155-16.15c8.921-0.001,16.153,7.228,16.153,16.15z" stroke="#eaeaea" stroke-width="9.5" fill="none"/><path id="circle455" d="m129.78,120.57c0,8.4643-6.8617,15.326-15.326,15.326s-15.326-6.8617-15.326-15.326,6.8617-15.326,15.326-15.326,15.326,6.8617,15.326,15.326z" transform="translate(-5.7029964,-13.051582)" stroke="#DDD" stroke-width="8" fill="none"/><path id="circle457" d="m126.04,120.48c0,6.428-5.211,11.639-11.639,11.639s-11.639-5.211-11.639-11.639,5.211-11.639,11.639-11.639,11.639,5.211,11.639,11.639z" transform="translate(-5.7029964,-13.051582)" stroke="#3a3a3a" stroke-width="1.5" fill="none"/>
</svg>