<?xml version="1.0" encoding="UTF-8" standalone="no"?>
<svg id="svg2" xmlns:rdf="http://www.w3.org/1999/02/22-rdf-syntax-ns#" xmlns="http://www.w3.org/2000/svg" enable-background="new -0.774 -0.047 239 176" xml:space="preserve" height="219" width="219" version="1.1" y="0px" x="0px" xmlns:cc="http://creativecommons.org/ns#" xmlns:xlink="http://www.w3.org/1999/xlink" viewBox="-0.774 -0.047 219 219" xmlns:dc="http://purl.org/dc/elements/1.1/"><metadata id="metadata305"><rdf:RDF><cc:Work rdf:about=""><dc:format>image/svg+xml</dc:format><dc:type rdf:resource="http://purl.org/dc/dcmitype/StillImage"/><dc:title/></cc:Work></rdf:RDF></metadata><defs id="defs4"><linearGradient id="linearGradient4180" y2="141.59" gradientUnits="userSpaceOnUse" x2="33.188" gradientTransform="matrix(1.0408115,0,0,1.0408115,-7.9048721,-10.376534)" y1="196.89" x1="92.061"><stop id="stop4176" stop-color="#3b3b3b" offset="0"/><stop id="stop4178" stop-color="#7c7c7c" stop-opacity="0" offset="1"/></linearGradient><linearGradient id="linearGradient4190" y2="23.476" gradientUnits="userSpaceOnUse" x2="208.41" y1="137.19" x1="121.39"><stop id="stop4186" stop-color="#3b3b3b" offset="0"/><stop id="stop4188" stop-color="#d4d4d4" offset="1"/></linearGradient><filter id="filter4452"><feGaussianBlur id="feGaussianBlur4454" stdDeviation="2.1054774"/></filter><linearGradient id="linearGradient4514" y2="47.915" gradientUnits="userSpaceOnUse" x2="17.394" gradientTransform="matrix(1.0408115,0,0,1.0408115,-7.904872,-10.376534)" y1="191.7" x1="86.105"><stop id="stop4168" stop-color="#5a5757" offset="0"/><stop id="stop4170" stop-color="#FFF" offset="1"/></linearGradient><linearGradient id="linearGradient4522" y2="38.836" gradientUnits="userSpaceOnUse" x2="84.513" y1="37.616" x1="10.711"><stop id="stop4518" stop-color="#000" offset="0"/><stop id="stop4520" stop-color="#606060" offset="1"/></linearGradient></defs><g id="g4543"><path id="path4450" opacity="0.5" d="m43.726,208.96c-0.80126-0.44841-1.859-0.56675-2.3505-0.26296-0.49153,0.30377-1.3716,0.15566-1.9558-0.32916-0.58416-0.4848-2.2171-1.0686-3.6288-1.2974-1.4117-0.22876-2.6637-0.49638-2.7823-0.59472-0.11863-0.0983-0.60391-0.27583-1.0784-0.39446-0.4745-0.11862-1.0568-0.31274-1.2941-0.43136-0.23724-0.11862-0.72252-0.28048-1.0784-0.35969-0.35587-0.0792-1.8596-0.79163-3.3415-1.5832-1.482-0.79156-2.9378-1.1959-3.2352-0.89846-0.29741,0.29741-0.54074,0.1761-0.54074-0.26958s-1.3588-1.5421-3.0195-2.4364l-3.0195-1.6261v-76.872-76.872l14.678-14.657,14.678-14.657h79.668,79.668l-0.52425,52.195c-0.28833,28.707-0.39268,63.148-0.23187,76.536l0.29235,24.342-5.4687,5.4257c-3.0078,2.9841-9.6794,9.8048-14.826,15.157l-9.3572,9.7313-40.249-0.24491-40.249-0.24492-5.1763,2.6853c-2.847,1.4769-6.7292,3.1774-8.6272,3.779-1.898,0.60154-3.9362,1.4789-4.5293,1.9496-0.59312,0.47075-1.0784,0.64137-1.0784,0.37915s-1.2617-0.0921-2.8038,0.37801c-4.8925,1.4915-6.8889,1.7262-17.098,2.01-5.4896,0.15258-10.637-0.0895-11.438-0.53787z" fill-rule="evenodd" transform="matrix(1.0408115,0,0,1.0408115,-0.28568099,-0.21761246)" filter="url(#filter4452)" stroke-miterlimit="4" stroke-width="0" fill="#000"/><polygon id="polygon243" points="125.09,134.66,125.47,144.38,157.84,123.14,140.44,123.4" fill="none" transform="matrix(1.910656,0,0,2.3929178,-205.56967,-173.90622)"/><polygon id="polygon243_4_" points="29.713,22.664,117.72,23.124,148.72,0.878,61.616,0.878" fill="#b6b8ba" transform="matrix(0.94272022,0,0,1.3727233,-19.983139,5.5037506)"/><polygon id="polygon245_4_" points="118.2,138.99,148.56,116.78,148.89,1.003,117.72,22.432" fill="#999" transform="matrix(0.94272022,0,0,1.3727233,-19.983139,5.5037506)"/><path id="polygon255_4_" d="M7.5688,196.93,91.451,196.87,120.73,166.12,120.29,6.1987,37.787,6.3631,8.0317,36.234z" stroke="#000" stroke-width="1.13758242" fill="none"/><path id="polyline257_4_" d="M91.451,196.87,91.014,36.468,120.38,6.5218" stroke="#000" stroke-width="1.13758242" fill="none"/><line id="line259_4_" stroke-width="1.1376" x1="8.4408" y1="36.611" stroke="#000" x2="91.014" y2="36.611" fill="none"/><path id="path261_4_" fill="#605f5f" d="M94.587,192.91,120.38,165.82,120.22,53.648c0.00094-0.0014-0.93141,96.01-25.633,139.26z"/><path id="path263_4_" fill="#7c7c7c" d="M119.27,8.6075,91.531,36.737,91.77,118.28s-3.8934-74.852,27.501-109.67z"/><path id="path265_4_" fill="#e2e2e2" d="M86.559,6.7941,38.145,6.9245,17.377,27.633s32.909-21.782,69.182-20.839z"/><polyline id="polyline267_4_" transform="matrix(0.94272022,0,0,1.3727233,-19.983139,5.5037506)" stroke="#000" points="35.605,18.478,123.54,18.478,124.46,135.14" fill="none"/><path id="polygon243_3_" d="M202.96,6.709,120.92,6.8677,90.767,36.615,173.73,37.247z" fill="#b6b8ba"/><path id="polygon245_3_" d="M174.68,36.614,174.24,195.61,202.64,166.13,204.07,7.1981z" fill="#999"/><polygon id="polygon247_3_" points="117.48,22.664,116.99,139.22,205.97,139.68,205.48,23.124" fill="url(#linearGradient4190)" transform="matrix(0.94272022,0,0,1.3727233,-19.983139,5.5037506)"/><polygon id="polygon249_3_" transform="matrix(0.94272022,0,0,1.3727233,-19.983139,5.5037506)" stroke="#232323" points="126.08,30.243,196.69,29.893,197.25,134.07,126.18,133.86" fill="#eaeaea"/><path id="polygon255_3_" d="m90.381,36.302-0.4616,160.83,83.652-0.0591,29.199-30.777,1.5437-160.39-83.643,0.28719z" stroke="#000" stroke-width="1.13648772" fill="none"/><path id="polyline257_3_" d="M173.97,196.76,174.2,36.468,204.35,6.0874" stroke="#000" stroke-width="1.13758242" fill="none"/><line id="line259_3_" stroke-width="1.147" x1="89.812" y1="36.611" stroke="#000" x2="173.75" y2="36.611" fill="none"/><path id="path261_3_" d="m174.74,195.04,27.476-28.778,0.96404-112.17c0-0.0014-3.7365,97.693-28.44,140.95z" fill="#605f5f"/><path id="path263_3_" d="m203.88,7.3189-29.256,29.465,0.0788,81.902c1.35-35.1,7.56-84.023,29.18-111.37z" fill="#7c7c7c"/><path id="path265_3_" d="M169.3,6.7941,120.91,6.7562,100.12,27.632c0,0.0014,32.909-21.781,69.182-20.838z" fill="#e2e2e2"/><path id="polyline267_3_" d="m95.607,30.869,83.618,0,0.31079,159.64" stroke="#000" stroke-width="1.13758242" fill="none"/><path id="path267" d="m7.6857,197.2s34.985,26.85,82.412-0.45026l0.116-159.9s-40.248,22.305-82.047-0.17434z" stroke="#000" stroke-width="1.13758242" fill="url(#linearGradient4514)"/><rect id="rect269" height="19.329" width="56.755" stroke="#232323" y="74.931" x="103.47" stroke-width="1.1376" fill="#3a3737"/><line id="line271" stroke-width="2.2752" x1="111.7" y1="84.202" stroke="#ededed" x2="152.18" y2="84.202" fill="#595959"/><circle id="circle275" d="m 146.80201,39.352001 c 0,1.585057 -1.28495,2.87 -2.87,2.87 -1.58506,0 -2.87,-1.284943 -2.87,-2.87 0,-1.585057 1.28494,-2.87 2.87,-2.87 1.58505,0 2.87,1.284943 2.87,2.87 z" cx="143.93" cy="39.352" transform="matrix(0.96957802,0,0,0.98163867,-33.341679,21.381193)" r="2.87" fill="#e50a39"/><rect id="rect285" height="19.328" width="56.755" stroke="#232323" y="97.845" x="103.52" stroke-width="1.1376" fill="#3a3737"/><line id="line287" stroke-width="2.2752" x1="111.76" y1="107.12" stroke="#ededed" x2="152.24" y2="107.12" fill="#595959"/><rect id="rect289" height="19.328" width="56.754" stroke="#232323" y="120.47" x="103.55" stroke-width="1.1376" fill="#3a3737"/><line id="line291" stroke-width="2.2752" x1="111.78" y1="129.74" stroke="#ededed" x2="152.27" y2="129.74" fill="#595959"/><path id="path301" d="M90.184,46.109,90.011,196.44c-34.901,19.874-62.778,10.692-75.314,4.4064,0.000943-0.001,64.942,3.3673,75.487-154.74z" fill="url(#linearGradient4180)"/><rect id="rect3306" height="19.328" width="56.755" stroke="#232323" y="142.66" x="103.52" stroke-width="1.1376" fill="#3a3737"/><line id="line3308" stroke-width="2.2752" y2="151.93" x2="152.24" stroke="#ededed" y1="151.93" x1="111.76" fill="#595959"/><rect id="rect3310" height="19.328" width="56.754" stroke="#232323" y="165.28" x="103.55" stroke-width="1.1376" fill="#3a3737"/><line id="line3312" stroke-width="2.2752" y2="174.55" x2="152.27" stroke="#ededed" y1="174.55" x1="111.78" fill="#595959"/><path id="path4458" d="M40.518,45.959c-12.924-1.51-21.427-3.353-31.637-9.612l40.633,0.3045,39.878,0.3045c-9.1778,4.6726-20.357,7.4243-29.192,8.7477-4.1892,0.59182-15.192,0.6391-19.683,0.25471z" fill-rule="evenodd" stroke-miterlimit="4" stroke-width="0" fill="url(#linearGradient4522)"/><circle id="circle4460" d="m 136.69,39.351002 c 0,1.584505 -1.2845,2.869 -2.869,2.869 -1.58451,0 -2.869,-1.284495 -2.869,-2.869 0,-1.584505 1.28449,-2.869 2.869,-2.869 1.5845,0 2.869,1.284495 2.869,2.869 z" cx="133.82" transform="matrix(0.96957802,0,0,0.98163867,-23.500223,28.526121)" cy="39.351" r="2.869" fill="#d4c818"/><circle id="circle4464" d="m 136.69,39.351002 c 0,1.584505 -1.2845,2.869 -2.869,2.869 -1.58451,0 -2.869,-1.284495 -2.869,-2.869 0,-1.584505 1.28449,-2.869 2.869,-2.869 1.5845,0 2.869,1.284495 2.869,2.869 z" cx="133.82" cy="39.351" transform="matrix(0.96957802,0,0,0.98163867,-23.500223,14.236267)" r="2.869" fill="#05a510"/><circle id="circle275-9" d="m 146.80201,39.352001 c 0,1.585057 -1.28495,2.87 -2.87,2.87 -1.58506,0 -2.87,-1.284943 -2.87,-2.87 0,-1.585057 1.28494,-2.87 2.87,-2.87 1.58505,0 2.87,1.284943 2.87,2.87 z" cx="143.93" cy="39.352" transform="matrix(0.56407046,0,0,0.57108697,30.826461,41.742241)" r="2.87" fill="#d4c818"/><circle id="circle4460-6" d="m 136.69,39.351002 c 0,1.584505 -1.2845,2.869 -2.869,2.869 -1.58451,0 -2.869,-1.284495 -2.869,-2.869 0,-1.584505 1.28449,-2.869 2.869,-2.869 1.5845,0 2.869,1.284495 2.869,2.869 z" cx="133.82" transform="matrix(0.56407046,0,0,0.57108697,36.551915,45.89894)" cy="39.351" r="2.869" fill="#d4c818"/><circle id="circle4464-7" d="m 136.69,39.351002 c 0,1.584505 -1.2845,2.869 -2.869,2.869 -1.58451,0 -2.869,-1.284495 -2.869,-2.869 0,-1.584505 1.28449,-2.869 2.869,-2.869 1.5845,0 2.869,1.284495 2.869,2.869 z" cx="133.82" cy="39.351" transform="matrix(0.56407046,0,0,0.57108697,36.551915,37.585545)" r="2.869" fill="#05a510"/><circle id="circle275-93" d="m 146.80201,39.352001 c 0,1.585057 -1.28495,2.87 -2.87,2.87 -1.58506,0 -2.87,-1.284943 -2.87,-2.87 0,-1.585057 1.28494,-2.87 2.87,-2.87 1.58505,0 2.87,1.284943 2.87,2.87 z" cx="143.93" cy="39.352" transform="matrix(0.56407046,0,0,0.57108697,35.074378,41.742241)" r="2.87" fill="#e50a39"/><circle id="circle4460-2" d="m 136.69,39.351002 c 0,1.584505 -1.2845,2.869 -2.869,2.869 -1.58451,0 -2.869,-1.284495 -2.869,-2.869 0,-1.584505 1.28449,-2.869 2.869,-2.869 1.5845,0 2.869,1.284495 2.869,2.869 z" cx="133.82" transform="matrix(0.56407046,0,0,0.57108697,40.799832,45.898939)" cy="39.351" r="2.869" fill="#05a510"/><circle id="circle4464-0" d="m 136.69,39.351002 c 0,1.584505 -1.2845,2.869 -2.869,2.869 -1.58451,0 -2.869,-1.284495 -2.869,-2.869 0,-1.584505 1.28449,-2.869 2.869,-2.869 1.5845,0 2.869,1.284495 2.869,2.869 z" cx="133.82" cy="39.351" transform="matrix(0.56407046,0,0,0.57108697,40.799832,37.585544)" r="2.869" fill="#e50a39"/><circle id="circle275-5" d="m 146.80201,39.352001 c 0,1.585057 -1.28495,2.87 -2.87,2.87 -1.58506,0 -2.87,-1.284943 -2.87,-2.87 0,-1.585057 1.28494,-2.87 2.87,-2.87 1.58505,0 2.87,1.284943 2.87,2.87 z" cx="143.93" cy="39.352" transform="matrix(0.96957802,0,0,0.98163867,20.292296,21.103051)" r="2.87" fill="#030200"/><circle id="circle4460-0" d="m 136.69,39.351002 c 0,1.584505 -1.2845,2.869 -2.869,2.869 -1.58451,0 -2.869,-1.284495 -2.869,-2.869 0,-1.584505 1.28449,-2.869 2.869,-2.869 1.5845,0 2.869,1.284495 2.869,2.869 z" cx="133.82" transform="matrix(0.96957802,0,0,0.98163867,30.133752,28.247979)" cy="39.351" r="2.869" fill="#030200"/><circle id="circle4464-1" d="m 136.69,39.351002 c 0,1.584505 -1.2845,2.869 -2.869,2.869 -1.58451,0 -2.869,-1.284495 -2.869,-2.869 0,-1.584505 1.28449,-2.869 2.869,-2.869 1.5845,0 2.869,1.284495 2.869,2.869 z" cx="133.82" cy="39.351" transform="matrix(0.96957802,0,0,0.98163867,30.133752,13.958125)" r="2.869" fill="#030200"/></g></svg>