<?xml version="1.0" encoding="UTF-8" standalone="no"?>
<svg id="svg2" xmlns:rdf="http://www.w3.org/1999/02/22-rdf-syntax-ns#" xmlns="http://www.w3.org/2000/svg" y="0px" xml:space="preserve" height="219px" viewBox="21.152 45.375 219 219" width="219px" version="1.1" enable-background="new 21.152 45.375 219 219" x="0px" xmlns:cc="http://creativecommons.org/ns#" xmlns:dc="http://purl.org/dc/elements/1.1/"><metadata id="metadata312"><rdf:RDF><cc:Work rdf:about=""><dc:format>image/svg+xml</dc:format><dc:type rdf:resource="http://purl.org/dc/dcmitype/StillImage"/><dc:title/></cc:Work></rdf:RDF></metadata>
<defs id="defs4">
<filter id="filter4002"><feGaussianBlur id="feGaussianBlur4004" stdDeviation="1.9890538"/></filter></defs>
<path id="path3189" opacity="0.5" d="m188.34,62.359c-13.557,0-24.562,10.967-24.562,24.531,0,13.551,11.006,24.562,24.562,24.562,13.564-0.001,24.531-11.012,24.531-24.562,0-13.564-10.967-24.531-24.531-24.531zm-107.78,0.03125c-13.559,0-24.562,10.999-24.562,24.562,0,13.551,11.005,24.562,24.562,24.562,13.563,0,24.562-11.01,24.562-24.562,0-13.564-11-24.562-24.562-24.562zm73.625,49.75c-7.341,0-13.312,5.9488-13.312,13.281v35.812c0,7.341,5.9715,13.281,13.312,13.281h9.75c2.1465,11.367,12.133,19.969,24.125,19.969,11.999,0,21.981-8.6014,24.125-19.969h10.281c7.3336,0,13.281-5.9392,13.281-13.281v-35.812c0.001-7.3336-5.9175-13.281-13.25-13.281h-10.438l-11.875,36.469c-2.0256-1.154-4.2287-2.0208-6.5625-2.5625l6.7188-20.594-12.031-10.062-12,10.062,6.6562,20.469c-2.3275,0.48879-4.5283,1.3095-6.5625,2.4062l-11.812-36.188h-10.406zm-107.78,0.0625c-7.341,0-13.281,5.9477-13.281,13.281v35.812c0,7.341,5.9392,13.281,13.281,13.281h10.375c2.17,11.337,12.154,19.906,24.125,19.906,11.978,0,21.925-8.5693,24.094-19.906h9.7188c7.3325,0,13.281-5.9402,13.281-13.281v-35.812c0-7.3325-5.9488-13.281-13.281-13.281h-10.438l-11.75,36.125c-2.0514-1.1062-4.2749-1.9189-6.625-2.4062l6.6562-20.406-12-10.094-12,10.094,6.6875,20.531c-2.3256,0.54597-4.5126,1.4391-6.5312,2.5938l-11.875-36.438h-10.438zm0.3125,82.969c-7.341,0-13.281,5.9477-13.281,13.281v35.812c0,7.341,5.9403,13.281,13.281,13.281h30.781l-20.344-62.375h-10.438zm57.906,0-20.344,62.375,30.75,0c7.3336,0,13.281-5.9403,13.281-13.281v-35.812c0.001-7.3346-5.9488-13.281-13.281-13.281h-10.406zm49.281,0c-7.341,0-13.312,5.9477-13.312,13.281v35.812c0,7.341,5.9715,13.281,13.312,13.281h30.75l-20.344-62.375h-10.406zm57.875,0-20.312,62.375,30.75,0c7.3336,0,13.25-5.9403,13.25-13.281v-35.812c0.001-7.3346-5.9175-13.281-13.25-13.281h-10.438zm-130.91,3.25-12,10.062,12,36.844,12.031-36.844-12.031-10.062zm107.19,0-12.031,10.062,12.031,36.844,12-36.844-12-10.062z" filter="url(#filter4002)" fill="#000"/><g id="g3624" stroke-miterlimit="4" transform="translate(245.91102,97.40254)"><path id="path264" style="stroke-dasharray:none;" d="m-145.72-15.124c0-13.564-10.991-24.547-24.554-24.547-13.559,0-24.557,10.983-24.557,24.547,0,13.551,10.999,24.549,24.557,24.549,13.563,0,24.554-10.997,24.554-24.549z" stroke="#949494" stroke-width="1" fill="#bababa"/><path id="path266" style="stroke-dasharray:none;" d="m-204.44,10.124c-7.341,0-13.287,5.9443-13.287,13.278v35.809c0,7.341,5.9453,13.287,13.287,13.287h30.767l-20.334-62.38h-10.433z" stroke="#1b1b1b" stroke-width="1" fill="#3f3f3f"/><path id="path268" style="stroke-dasharray:none;" d="m-136.13,10.124h-10.42l-20.323,62.375h30.748c7.3325,0,13.279-5.9464,13.279-13.287v-35.809c0-7.3325-5.9464-13.278-13.279-13.278z" stroke="#1b1b1b" stroke-width="1" fill="#3f3f3f"/><polygon id="polygon270" style="stroke-dasharray:none;" transform="matrix(1.0637587,0,0,1.0637587,-254.38104,-105.81793)" stroke="#6b6b6b" points="79.058,112.03,67.772,121.5,79.058,156.12,90.348,121.5" stroke-width="0.94006282" fill="#757575"/></g><g id="g3618" stroke-miterlimit="4" transform="translate(336.0678,-114.57175)"><path id="path284" style="stroke-dasharray:none;" d="m-129.62,196.85c0-13.564-10.991-24.548-24.555-24.548-13.558,0-24.556,10.983-24.556,24.548,0,13.551,10.999,24.549,24.556,24.549,13.564,0,24.555-10.998,24.555-24.549z" stroke="#949494" stroke-width="1" fill="#bababa"/><path id="path286" style="stroke-dasharray:none;" d="m-188.33,222.09c-7.341,0-13.287,5.9443-13.287,13.278v35.808c0,7.341,5.9464,13.287,13.287,13.287h30.766l-20.333-62.38h-10.433z" stroke="#1b1b1b" stroke-width="1" fill="#3f3f3f"/><path id="path288" style="stroke-dasharray:none;" d="m-120.02,222.09h-10.425l-20.324,62.375h30.748c7.3336,0,13.279-5.9464,13.279-13.287v-35.81c0.001-7.3346-5.9453-13.279-13.278-13.279z" stroke="#1b1b1b" stroke-width="1" fill="#3f3f3f"/><polygon id="polygon290" style="stroke-dasharray:none;" transform="matrix(1.0637587,0,0,1.0637587,-238.60562,23.169358)" stroke="#6b6b6b" points="79.365,234.13,90.656,199.51,79.365,190.04,68.08,199.51" stroke-width="0.94006282" fill="#757575"/></g><g id="g3612" stroke-miterlimit="4" transform="translate(-288.59746,10.681577)"><path id="path292" style="stroke-dasharray:none;" d="m495.34,154.16c0-13.564-10.991-24.547-24.555-24.547-13.557,0-24.557,10.983-24.557,24.547,0,13.551,11,24.549,24.557,24.549,13.564,0,24.555-10.998,24.555-24.549z" stroke="#949494" stroke-width="1" fill="#bababa"/><path id="path294" style="stroke-dasharray:none;" d="m436.63,179.4c-7.341,0-13.286,5.9443-13.286,13.278v35.808c0,7.341,5.9454,13.288,13.286,13.288h30.766l-20.34-62.38h-10.43z" stroke="#1b1b1b" stroke-width="1" fill="#3f3f3f"/><path id="path296" style="stroke-dasharray:none;" d="m504.94,179.4h-10.426l-20.322,62.375h30.747c7.3336,0,13.279-5.9475,13.279-13.288v-35.808c0.001-7.3346-5.9454-13.278-13.278-13.278z" stroke="#1b1b1b" stroke-width="1" fill="#3f3f3f"/><polygon id="polygon298" style="stroke-dasharray:none;" transform="matrix(1.0637587,0,0,1.0637587,279.19947,-19.517083)" stroke="#6b6b6b" points="191.39,199.51,180.1,190.04,168.82,199.51,180.1,234.13" stroke-width="0.94006282" fill="#757575"/></g><g id="g3606" stroke-miterlimit="4" transform="translate(-393.45763,203.22458)"><path id="path272" style="stroke-dasharray:none;" d="m493.77-38.378c0-13.564-10.991-24.548-24.555-24.548-13.557,0-24.557,10.984-24.557,24.548,0,13.551,11,24.549,24.557,24.549,13.564-0.001,24.555-10.999,24.555-24.549z" stroke="#b36c00" stroke-width="1" fill="#d59f0f"/><path id="path274" style="stroke-dasharray:none;" d="m435.06-13.136c-7.341,0-13.286,5.9453-13.286,13.278v35.809c0,7.341,5.9454,13.288,13.286,13.288h30.765l-20.34-62.38h-10.43z" stroke="#855000" stroke-width="1" fill="#966b15"/><path id="path276" style="stroke-dasharray:none;" d="m503.37-13.136h-10.426l-20.322,62.376h30.747c7.3336,0,13.279-5.9464,13.279-13.288v-35.809c0.001-7.3336-5.9454-13.278-13.278-13.278z" stroke="#855000" stroke-width="1" fill="#966b15"/><polygon id="polygon278" style="stroke-dasharray:none;" transform="matrix(1.0637587,0,0,1.0637587,277.34354,-129.01708)" stroke="#855926" points="180.36,156.06,191.65,121.45,180.36,111.98,169.08,121.45" stroke-width="0.94006282" fill="#bc8519"/></g></svg>