<?xml version="1.0" encoding="UTF-8" standalone="no"?>
<!-- Created with Inkscape (http://www.inkscape.org/) -->

<svg
   xmlns:dc="http://purl.org/dc/elements/1.1/"
   xmlns:cc="http://creativecommons.org/ns#"
   xmlns:rdf="http://www.w3.org/1999/02/22-rdf-syntax-ns#"
   xmlns:svg="http://www.w3.org/2000/svg"
   xmlns="http://www.w3.org/2000/svg"
   xmlns:xlink="http://www.w3.org/1999/xlink"
   xmlns:sodipodi="http://sodipodi.sourceforge.net/DTD/sodipodi-0.dtd"
   xmlns:inkscape="http://www.inkscape.org/namespaces/inkscape"
   version="1.1"
   width="219"
   height="219"
   viewBox="-0.883 -0.003 219 219"
   id="svg2"
   xml:space="preserve"
   inkscape:version="0.47 r22583"
   sodipodi:docname="measure.svg"><sodipodi:namedview
   pagecolor="#ffffff"
   bordercolor="#666666"
   borderopacity="1"
   objecttolerance="10"
   gridtolerance="10"
   guidetolerance="10"
   inkscape:pageopacity="0"
   inkscape:pageshadow="2"
   inkscape:window-width="1280"
   inkscape:window-height="1002"
   id="namedview101"
   showgrid="false"
   inkscape:zoom="3.4474886"
   inkscape:cx="109.5"
   inkscape:cy="109.5"
   inkscape:window-x="1272"
   inkscape:window-y="-8"
   inkscape:window-maximized="1"
   inkscape:current-layer="svg2" />

	<metadata
   id="metadata437">

		<rdf:RDF>

			<cc:Work
   rdf:about="">

				<dc:title></dc:title>

			<dc:format>image/svg+xml</dc:format><dc:type
   rdf:resource="http://purl.org/dc/dcmitype/StillImage" /></cc:Work>

		</rdf:RDF>

	</metadata>

	<defs
   id="defs4"><linearGradient
     id="linearGradient3821"><stop
       style="stop-color:#e6e600;stop-opacity:1;"
       offset="0"
       id="stop3823" /><stop
       style="stop-color:#a3a315;stop-opacity:1;"
       offset="1"
       id="stop3825" /></linearGradient><filter
     color-interpolation-filters="sRGB"
     id="filter4596">

			<feGaussianBlur
   id="feGaussianBlur4598"
   stdDeviation="1.6048855" />

		</filter><filter
     color-interpolation-filters="sRGB"
     id="filter3929">

			<feGaussianBlur
   id="feGaussianBlur3931"
   stdDeviation="0.57912779" />

		</filter><linearGradient
     inkscape:collect="always"
     xlink:href="#linearGradient3821"
     id="linearGradient3827"
     x1="177.39212"
     y1="42.741547"
     x2="207.39"
     y2="53.473999"
     gradientUnits="userSpaceOnUse"
     gradientTransform="translate(0,2)" /></defs>

	

	<path
   style="fill:#a5a5a5;stroke:none"
   d="m 35.98904,195.67787 -0.05797,2.2252 -28.0720094,-34.24739 -0.1168693,-1.63617"
   id="polyline239" /><path
   style="fill:#727272;stroke:none"
   d="m 208.0188,54.384741 -0.17764,2.103648 -171.676348,141.470771 0.174836,-2.39348"
   id="polyline241" />

	<path
   style="fill:#bebe19;stroke:none"
   d="M 8.3137823,161.96423 179.959,20.2768 207.90243,54.12847 36.257214,195.8159 8.3137823,161.96423 z"
   id="rect243" />

	<path
   style="fill:#020202;stroke:none"
   d="m 9.7124639,161.01571 1.0852681,-0.89545 7.878992,9.54913 -1.085268,0.89545 -7.8789921,-9.54913 z"
   id="rect245" />

	<path
   style="fill:#020202;stroke:none"
   d="m 12.796112,159.02034 0.361911,-0.29883 3.940763,4.77261 -0.361911,0.29883 -3.940763,-4.77261 z"
   id="rect247" />

	<path
   style="fill:#020202;stroke:none"
   d="m 14.762842,157.34434 0.36126,-0.29964 3.951902,4.7647 -0.36126,0.29963 -3.951902,-4.76469 z"
   id="rect249" />

	<path
   style="fill:#020202;stroke:none"
   d="m 16.826219,155.63463 0.362728,-0.29934 3.940756,4.77534 -0.362728,0.29934 -3.940756,-4.77534 z"
   id="rect251" />

	<path
   style="fill:#020202;stroke:none"
   d="m 18.959251,153.94702 0.362103,-0.29864 3.938329,4.77514 -0.362103,0.29864 -3.938329,-4.77514 z"
   id="rect253" />

	<path
   style="fill:#020202;stroke:none"
   d="m 20.784693,151.81988 1.08585,-0.89491 7.87425,9.55434 -1.08585,0.89491 -7.87425,-9.55434 z"
   id="rect255" />

	<path
   style="fill:#020202;stroke:none"
   d="m 32.023912,142.59356 1.085268,-0.89545 7.878992,9.54913 -1.085269,0.89545 -7.878991,-9.54913 z"
   id="rect257" />

	<path
   style="fill:#020202;stroke:none"
   d="m 43.101828,133.38935 1.086171,-0.89452 7.86955,9.55562 -1.086171,0.89452 -7.86955,-9.55562 z"
   id="rect259" />

	<path
   style="fill:#020202;stroke:none"
   d="m 54.330931,124.23989 1.085268,-0.89546 7.878992,9.54913 -1.085268,0.89546 -7.878992,-9.54913 z"
   id="rect261" />

	<path
   style="fill:#020202;stroke:none"
   d="m 65.409372,115.04119 1.085151,-0.89576 7.882345,9.54896 -1.08515,0.89575 -7.882346,-9.54895 z"
   id="rect263" />

	<path
   style="fill:#020202;stroke:none"
   d="m 76.646604,105.8292 1.084324,-0.89676 7.890508,9.54092 -1.084324,0.89675 -7.890508,-9.54091 z"
   id="rect265" />

	<path
   style="fill:#020202;stroke:none"
   d="m 87.719048,96.62372 1.085592,-0.896639 7.88376,9.545199 -1.085592,0.89663 -7.88376,-9.54519 z"
   id="rect267" />

	<path
   style="fill:#020202;stroke:none"
   d="m 98.911952,87.340242 1.08585,-0.894909 7.873618,9.553566 -1.08585,0.894911 -7.873618,-9.553568 z"
   id="rect269" />

	<path
   style="fill:#020202;stroke:none"
   d="m 109.97612,78.139436 1.08445,-0.895035 7.87906,9.546478 -1.08444,0.895035 -7.87907,-9.546478 z"
   id="rect271" />

	<path
   style="fill:#020202;stroke:none"
   d="m 121.22239,68.917523 1.08299,-0.893974 7.88171,9.548185 -1.08299,0.893973 -7.88171,-9.548184 z"
   id="rect273" />

	<path
   style="fill:#020202;stroke:none"
   d="m 132.30155,59.718566 1.08674,-0.896812 7.88037,9.549294 -1.08674,0.896812 -7.88037,-9.549294 z"
   id="rect275" />

	<path
   style="fill:#020202;stroke:none"
   d="m 143.5259,50.568472 1.08477,-0.896214 7.88574,9.544854 -1.08477,0.896214 -7.88574,-9.544854 z"
   id="rect277" />

	<path
   style="fill:#020202;stroke:none"
   d="m 154.60516,41.372702 1.08375,-0.89603 7.8898,9.542796 -1.08375,0.89603 -7.8898,-9.542796 z"
   id="rect279" />

	<path
   style="fill:#020202;stroke:none"
   d="m 165.84326,32.149308 1.08585,-0.896329 7.88171,9.548184 -1.08585,0.896329 -7.88171,-9.548184 z"
   id="rect281" />

	<path
   style="fill:#020202;stroke:none"
   d="m 176.91056,22.939851 1.08649,-0.897118 7.88369,9.547845 -1.08649,0.897119 -7.88369,-9.547846 z"
   id="rect283" />

	<path
   style="fill:#020202;stroke:none"
   d="m 24.043201,149.80232 0.361444,-0.29939 3.949425,4.76791 -0.361444,0.2994 -3.949425,-4.76792 z"
   id="rect285" />

	<path
   style="fill:#020202;stroke:none"
   d="m 25.997342,148.12188 0.362544,-0.29952 3.942043,4.77142 -0.362544,0.29953 -3.942043,-4.77143 z"
   id="rect287" />

	<path
   style="fill:#020202;stroke:none"
   d="m 28.065707,146.41529 0.363638,-0.29969 3.936488,4.7764 -0.363637,0.29969 -3.936489,-4.7764 z"
   id="rect289" />

	<path
   style="fill:#020202;stroke:none"
   d="m 30.188428,144.72507 0.36082,-0.29871 3.948145,4.7691 -0.360819,0.29871 -3.948146,-4.7691 z"
   id="rect291" />

	<path
   style="fill:#020202;stroke:none"
   d="m 35.214871,140.57442 0.361444,-0.2994 3.949425,4.76792 -0.361444,0.29939 -3.949425,-4.76791 z"
   id="rect293" />

	<path
   style="fill:#020202;stroke:none"
   d="m 37.176637,138.90087 0.36082,-0.29871 3.946998,4.76772 -0.36082,0.2987 -3.946998,-4.76771 z"
   id="rect295" />

	<path
   style="fill:#020202;stroke:none"
   d="m 39.245803,137.19581 0.363195,-0.29877 3.933292,4.78149 -0.363196,0.29877 -3.933291,-4.78149 z"
   id="rect297" />

	<path
   style="fill:#020202;stroke:none"
   d="m 41.369938,135.48996 0.36271,-0.29785 3.928361,4.78386 -0.36271,0.29785 -3.928361,-4.78386 z"
   id="rect299" />

	<path
   style="fill:#020202;stroke:none"
   d="m 46.456139,131.35682 0.361911,-0.29883 3.941973,4.77407 -0.361912,0.29883 -3.941972,-4.77407 z"
   id="rect301" />

	<path
   style="fill:#020202;stroke:none"
   d="m 48.416558,129.67768 0.362352,-0.29975 3.945734,4.76967 -0.362352,0.29976 -3.945734,-4.76968 z"
   id="rect303" />

	<path
   style="fill:#020202;stroke:none"
   d="m 50.473806,127.98803 0.36065,-0.30038 3.963635,4.75884 -0.360649,0.30038 -3.963636,-4.75884 z"
   id="rect305" />

	<path
   style="fill:#020202;stroke:none"
   d="m 52.593704,126.27943 0.360161,-0.29945 3.958081,4.76047 -0.360161,0.29945 -3.958081,-4.76047 z"
   id="rect307" />

	<path
   style="fill:#020202;stroke:none"
   d="m 57.402479,122.20519 0.362272,-0.29693 3.924077,4.78764 -0.362272,0.29692 -3.924077,-4.78763 z"
   id="rect309" />

	<path
   style="fill:#020202;stroke:none"
   d="m 59.347835,120.52955 0.362544,-0.29952 3.942616,4.77212 -0.362544,0.29952 -3.942616,-4.77212 z"
   id="rect311" />

	<path
   style="fill:#020202;stroke:none"
   d="m 61.415296,118.83357 0.362352,-0.29976 3.946308,4.77036 -0.362353,0.29976 -3.946307,-4.77036 z"
   id="rect313" />

	<path
   style="fill:#020202;stroke:none"
   d="m 63.544674,117.13985 0.361003,-0.29847 3.945665,4.77232 -0.361003,0.29847 -3.945665,-4.77232 z"
   id="rect315" />

	<path
   style="fill:#020202;stroke:none"
   d="m 68.646627,112.99294 0.362103,-0.29865 3.938901,4.77583 -0.362102,0.29865 -3.938902,-4.77583 z"
   id="rect317" />

	<path
   style="fill:#020202;stroke:none"
   d="m 70.605967,111.31215 0.362103,-0.29865 3.939474,4.77653 -0.362103,0.29864 -3.939474,-4.77652 z"
   id="rect319" />

	<path
   style="fill:#020202;stroke:none"
   d="m 72.656403,109.61243 0.36126,-0.29963 3.953115,4.76615 -0.36126,0.29963 -3.953115,-4.76615 z"
   id="rect321" />

	<path
   style="fill:#020202;stroke:none"
   d="m 74.791158,107.91223 0.362103,-0.29865 3.938329,4.77514 -0.362103,0.29865 -3.938329,-4.77514 z"
   id="rect323" />

	<path
   style="fill:#020202;stroke:none"
   d="m 79.81869,103.76173 0.36271,-0.29785 3.928995,4.78464 -0.362709,0.29784 -3.928996,-4.78463 z"
   id="rect325" />

	<path
   style="fill:#020202;stroke:none"
   d="m 81.765058,102.08357 0.36126,-0.29964 3.952476,4.76539 -0.36126,0.29963 -3.952476,-4.76538 z"
   id="rect327" />

	<path
   style="fill:#020202;stroke:none"
   d="m 83.821239,100.39313 0.362364,-0.30121 3.95626,4.75965 -0.362364,0.3012 -3.95626,-4.75964 z"
   id="rect329" />

	<path
   style="fill:#020202;stroke:none"
   d="m 85.951944,98.70053 0.361741,-0.30051 3.956836,4.76307 -0.361741,0.30051 -3.956836,-4.76307 z"
   id="rect331" />

	<path
   style="fill:#020202;stroke:none"
   d="m 91.062357,94.544296 0.362102,-0.298647 3.938329,4.775141 -0.362102,0.29864 -3.938329,-4.775134 z"
   id="rect333" />

	<path
   style="fill:#020202;stroke:none"
   d="m 93.013159,92.87276 0.363026,-0.300449 3.946965,4.769039 -0.363027,0.30045 -3.946964,-4.76904 z"
   id="rect335" />

	<path
   style="fill:#020202;stroke:none"
   d="m 95.07665,91.171348 0.36126,-0.299681 3.952524,4.764695 -0.36126,0.299681 -3.952524,-4.764695 z"
   id="rect337" />

	<path
   style="fill:#020202;stroke:none"
   d="m 97.194544,89.467027 0.361427,-0.29791 3.936469,4.77576 -0.36142,0.297911 -3.936476,-4.775761 z"
   id="rect339" />

	<path
   style="fill:#020202;stroke:none"
   d="m 101.92969,85.391396 0.36339,-0.298534 3.93023,4.784007 -0.36339,0.298535 -3.93023,-4.784008 z"
   id="rect341" />

	<path
   style="fill:#020202;stroke:none"
   d="m 103.88181,83.723627 0.36254,-0.299526 3.94084,4.769961 -0.36255,0.299525 -3.94083,-4.76996 z"
   id="rect343" />

	<path
   style="fill:#020202;stroke:none"
   d="m 105.95407,82.00807 0.36142,-0.298004 3.93887,4.777159 -0.36143,0.298005 -3.93886,-4.77716 z"
   id="rect345" />

	<path
   style="fill:#020202;stroke:none"
   d="m 108.06644,80.318267 0.36254,-0.299526 3.94319,4.772813 -0.36254,0.299526 -3.94319,-4.772813 z"
   id="rect347" />

	<path
   style="fill:#020202;stroke:none"
   d="m 113.16145,76.177423 0.36145,-0.299396 3.95,4.768607 -0.36145,0.299396 -3.95,-4.768607 z"
   id="rect349" />

	<path
   style="fill:#020202;stroke:none"
   d="m 115.11763,74.509942 0.36151,-0.300793 3.95991,4.759205 -0.3615,0.300793 -3.95992,-4.759205 z"
   id="rect351" />

	<path
   style="fill:#020202;stroke:none"
   d="m 117.18286,72.799459 0.36254,-0.299525 3.94383,4.773583 -0.36254,0.299526 -3.94383,-4.773584 z"
   id="rect353" />

	<path
   style="fill:#020202;stroke:none"
   d="m 119.31953,71.094902 0.36229,-0.298409 3.93584,4.778354 -0.36229,0.298409 -3.93584,-4.778354 z"
   id="rect355" />

	<path
   style="fill:#020202;stroke:none"
   d="m 124.34118,66.956088 0.36191,-0.298832 3.94197,4.774077 -0.36191,0.298832 -3.94197,-4.774077 z"
   id="rect357" />

	<path
   style="fill:#020202;stroke:none"
   d="m 126.30744,65.257291 0.36308,-0.297423 3.92165,4.787423 -0.36308,0.297422 -3.92165,-4.787422 z"
   id="rect359" />

	<path
   style="fill:#020202;stroke:none"
   d="m 128.34633,63.576057 0.36035,-0.299224 3.95497,4.762926 -0.36036,0.299225 -3.95496,-4.762927 z"
   id="rect361" />

	<path
   style="fill:#020202;stroke:none"
   d="m 130.48806,61.87772 0.36059,-0.298989 3.95072,4.764632 -0.36059,0.298989 -3.95072,-4.764632 z"
   id="rect363" />

	<path
   style="fill:#020202;stroke:none"
   d="m 135.58012,57.738963 0.36456,-0.301497 3.9457,4.770997 -0.36456,0.301497 -3.9457,-4.770997 z"
   id="rect365" />

	<path
   style="fill:#020202;stroke:none"
   d="m 137.52907,56.057548 0.3615,-0.300793 3.96056,4.759973 -0.36151,0.300793 -3.96055,-4.759973 z"
   id="rect367" />

	<path
   style="fill:#020202;stroke:none"
   d="m 139.61052,54.334121 0.36309,-0.297423 3.92222,4.788119 -0.36309,0.297423 -3.92222,-4.788119 z"
   id="rect369" />

	<path
   style="fill:#020202;stroke:none"
   d="m 141.72833,52.663233 0.36255,-0.299526 3.94319,4.772813 -0.36255,0.299526 -3.94319,-4.772813 z"
   id="rect371" />

	<path
   style="fill:#020202;stroke:none"
   d="m 146.51629,48.590792 0.36254,-0.299525 3.94319,4.772812 -0.36254,0.299526 -3.94319,-4.772813 z"
   id="rect373" />

	<path
   style="fill:#020202;stroke:none"
   d="m 148.47722,46.909573 0.36059,-0.298989 3.95008,4.763862 -0.36059,0.29899 -3.95008,-4.763863 z"
   id="rect375" />

	<path
   style="fill:#020202;stroke:none"
   d="m 150.54319,45.192145 0.36444,-0.298703 3.9223,4.785468 -0.36444,0.298703 -3.9223,-4.785468 z"
   id="rect377" />

	<path
   style="fill:#020202;stroke:none"
   d="m 152.67035,43.506886 0.36162,-0.297726 3.93276,4.776741 -0.36161,0.297726 -3.93277,-4.776741 z"
   id="rect379" />

	<path
   style="fill:#020202;stroke:none"
   d="m 157.74723,39.361097 0.36323,-0.301661 3.95559,4.76293 -0.36323,0.301661 -3.95559,-4.76293 z"
   id="rect381" />

	<path
   style="fill:#020202;stroke:none"
   d="m 159.72108,37.690903 0.36191,-0.298832 3.94197,4.774078 -0.36191,0.298831 -3.94197,-4.774077 z"
   id="rect383" />

	<path
   style="fill:#020202;stroke:none"
   d="m 161.78294,35.978382 0.36364,-0.299694 3.93585,4.775625 -0.36363,0.299694 -3.93586,-4.775625 z"
   id="rect385" />

	<path
   style="fill:#020202;stroke:none"
   d="m 163.90423,34.3031 0.36254,-0.299525 3.94205,4.771425 -0.36255,0.299526 -3.94204,-4.771426 z"
   id="rect387" />

	<path
   style="fill:#020202;stroke:none"
   d="m 168.93883,30.132659 0.36364,-0.299693 3.93706,4.777091 -0.36364,0.299693 -3.93706,-4.777091 z"
   id="rect389" />

	<path
   style="fill:#020202;stroke:none"
   d="m 170.88595,28.461174 0.36426,-0.300381 3.93892,4.7766 -0.36426,0.300381 -3.93892,-4.7766 z"
   id="rect391" />

	<path
   style="fill:#020202;stroke:none"
   d="m 172.96617,26.760671 0.36339,-0.298535 3.92959,4.783235 -0.36339,0.298535 -3.92959,-4.783235 z"
   id="rect393" />

	<path
   style="fill:#020202;stroke:none"
   d="m 175.08268,25.06772 0.36254,-0.299526 3.94141,4.770654 -0.36255,0.299526 -3.9414,-4.770654 z"
   id="rect395" />

	<path
   style="fill:none;stroke:none"
   d="m 17.591307,171.82579 12.613917,-10.42133 8.43668,10.21171 -12.613918,10.42133 -8.436679,-10.21171 z"
   id="rect397" />

<g
   transform="matrix(0.77092759,-0.6369228,0.6369228,0.77092759,4,2)"
   style="font-size:6.54444742px;fill:#010101;stroke:none;font-family:Sans"
   id="cm"><path
     d="m -95.118016,142.99902 0.565609,0.0735 c -0.06178,0.38985 -0.219962,0.69502 -0.474537,0.91552 -0.25458,0.22049 -0.567209,0.33073 -0.937888,0.33073 -0.464419,0 -0.837763,-0.15178 -1.120034,-0.45536 -0.282272,-0.30357 -0.423408,-0.7387 -0.423408,-1.30537 0,-0.36642 0.06072,-0.68704 0.182146,-0.96186 0.121429,-0.27481 0.306237,-0.48092 0.554424,-0.61833 0.248185,-0.13741 0.518207,-0.20611 0.810067,-0.20612 0.36855,1e-5 0.669994,0.0932 0.904336,0.27961 0.234336,0.18641 0.384526,0.45111 0.45057,0.79409 l -0.559218,0.0863 c -0.05326,-0.22794 -0.14753,-0.39944 -0.282805,-0.51448 -0.135279,-0.11503 -0.298784,-0.17255 -0.490514,-0.17256 -0.28973,1e-5 -0.525133,0.10386 -0.706212,0.31157 -0.181081,0.20771 -0.271621,0.53632 -0.27162,0.98582 -10e-7,0.4559 0.08734,0.78716 0.262033,0.99381 0.174688,0.20664 0.402636,0.30997 0.683844,0.30996 0.225815,10e-6 0.414351,-0.0692 0.565609,-0.2077 0.151252,-0.13848 0.247118,-0.35151 0.287598,-0.63911 z"
     style="font-size:6.54444742px;fill:#010101;stroke:none;font-family:Sans"
     id="path3720" /><path
     d="m -94.060296,144.24208 0,-3.39365 0.514481,0 0,0.47613 c 0.106517,-0.16616 0.248185,-0.29984 0.425005,-0.40104 0.176818,-0.10119 0.378137,-0.15178 0.603956,-0.15179 0.251379,1e-5 0.457491,0.0522 0.618335,0.15659 0.160839,0.10439 0.27428,0.25031 0.340324,0.43778 0.268422,-0.39624 0.617799,-0.59436 1.048134,-0.59437 0.336592,1e-5 0.59543,0.0932 0.776514,0.27961 0.181075,0.18641 0.271615,0.47348 0.27162,0.8612 l 0,2.32954 -0.572,0 0,-2.13781 c -4e-6,-0.23008 -0.01864,-0.39571 -0.05592,-0.4969 -0.03729,-0.10119 -0.104925,-0.18268 -0.202917,-0.24446 -0.098,-0.0618 -0.213039,-0.0927 -0.345117,-0.0927 -0.238603,0 -0.436726,0.0794 -0.594369,0.23806 -0.157649,0.15872 -0.236472,0.41276 -0.236469,0.76214 l 0,1.97164 -0.575196,0 0,-2.20492 c -2e-6,-0.25564 -0.04687,-0.44737 -0.140603,-0.57519 -0.09374,-0.12782 -0.247123,-0.19173 -0.460156,-0.19173 -0.161909,0 -0.311566,0.0426 -0.448973,0.12782 -0.137409,0.0852 -0.237003,0.20984 -0.298782,0.37388 -0.06178,0.16403 -0.09267,0.4005 -0.09267,0.7094 l 0,1.76074 z"
     style="font-size:6.54444742px;fill:#010101;stroke:none;font-family:Sans"
     id="path3722" /></g>

<g
   transform="matrix(0.77092759,-0.6369228,0.6369228,0.77092759,4,2)"
   style="font-size:6.54444742px;fill:#010101;stroke:none;font-family:Sans"
   id="text403"><path
     d="m -65.603334,143.92428 0,0.55283 -3.096469,0 c -0.0043,-0.13847 0.01811,-0.27162 0.06711,-0.39944 0.07882,-0.2109 0.205046,-0.41861 0.37867,-0.62313 0.173623,-0.20451 0.424472,-0.44098 0.752548,-0.70941 0.509152,-0.41754 0.853204,-0.74828 1.032156,-0.99221 0.178947,-0.24392 0.268422,-0.47453 0.268425,-0.69183 -3e-6,-0.22795 -0.08149,-0.42021 -0.244458,-0.57679 -0.162975,-0.15658 -0.375477,-0.23487 -0.637509,-0.23488 -0.276947,1e-5 -0.498504,0.0831 -0.66467,0.24926 -0.166169,0.16617 -0.250318,0.39625 -0.252447,0.69023 l -0.591173,-0.0607 c 0.04048,-0.44098 0.192796,-0.77705 0.456961,-1.00819 0.264162,-0.23114 0.618866,-0.34672 1.064111,-0.34672 0.449503,0 0.805272,0.12463 1.067308,0.37388 0.26203,0.24925 0.393047,0.55815 0.39305,0.9267 -3e-6,0.18748 -0.03835,0.37175 -0.115039,0.55283 -0.0767,0.18108 -0.203984,0.37175 -0.381866,0.572 -0.177887,0.20025 -0.473474,0.47507 -0.88676,0.82445 -0.345119,0.28972 -0.566675,0.48625 -0.66467,0.58957 -0.098,0.10332 -0.178951,0.20718 -0.242861,0.31156 z"
     style="font-size:6.54444742px;fill:#010101;stroke:none;font-family:Sans"
     id="path3717" /></g>

<g
   transform="matrix(0.77092759,-0.6369228,0.6369228,0.77092759,4,2)"
   style="font-size:6.54444742px;fill:#010101;stroke:none;font-family:Sans"
   id="text407"><path
     d="m -38.38296,144.47835 0,-1.12163 -2.032358,0 0,-0.52727 2.13781,-3.03575 0.469743,0 0,3.03575 0.632716,0 0,0.52727 -0.632716,0 0,1.12163 z m 0,-1.6489 0,-2.11224 -1.466749,2.11224 z"
     style="font-size:6.54444742px;fill:#010101;stroke:none;font-family:Sans"
     id="path3714" /></g>

<g
   transform="matrix(0.77092759,-0.6369228,0.6369228,0.77092759,4,2)"
   style="font-size:6.54444742px;fill:#010101;stroke:none;font-family:Sans"
   id="text411"><path
     d="m -7.9095807,140.82476 -0.5720001,0.0447 c -0.051131,-0.22582 -0.1235631,-0.38985 -0.2172961,-0.49211 -0.1555181,-0.16404 -0.3472498,-0.24606 -0.5751956,-0.24606 -0.1832121,0 -0.3440537,0.0511 -0.4825251,0.15339 -0.1810814,0.13208 -0.3238154,0.32488 -0.4282014,0.57839 -0.104388,0.25351 -0.158712,0.61461 -0.162972,1.08328 0.138472,-0.2109 0.307835,-0.36748 0.5080896,-0.46974 0.2002517,-0.10226 0.4100914,-0.15338 0.6295196,-0.15339 0.3834613,1e-5 0.7099378,0.14114 0.9794302,0.42341 0.2694866,0.28228 0.4042313,0.6471 0.4042347,1.09447 -3.4e-6,0.29399 -0.063381,0.56721 -0.1901341,0.81965 -0.1267591,0.25245 -0.3009154,0.44578 -0.5224693,0.57999 -0.2215593,0.13422 -0.4729408,0.20132 -0.7541454,0.20132 -0.479331,0 -0.8702503,-0.17629 -1.1727603,-0.52886 -0.30251,-0.35257 -0.453765,-0.93363 -0.453765,-1.74316 0,-0.9054 0.167232,-1.56368 0.501698,-1.97484 0.291858,-0.35789 0.6849078,-0.53684 1.1791514,-0.53685 0.3685489,10e-6 0.6705263,0.10333 0.905933,0.30997 0.2354011,0.20665 0.3765369,0.49211 0.4234079,0.8564 z m -2.3487153,2.01958 c -1e-6,0.19812 0.04207,0.38772 0.126223,0.5688 0.08415,0.18108 0.2018503,0.31902 0.3531066,0.41382 0.1512536,0.0948 0.3099648,0.1422 0.4761342,0.1422 0.2428582,0 0.4516327,-0.098 0.626324,-0.29399 0.1746864,-0.19599 0.2620308,-0.46228 0.2620336,-0.79888 -2.8e-6,-0.32381 -0.086282,-0.57892 -0.258838,-0.76533 -0.172561,-0.1864 -0.3898569,-0.2796 -0.6518884,-0.27961 -0.2599047,1e-5 -0.4803961,0.0932 -0.6614749,0.27961 -0.1810811,0.18641 -0.2716211,0.43087 -0.2716201,0.73338 z"
     style="font-size:6.54444742px;fill:#010101;stroke:none;font-family:Sans"
     id="path3711" /></g>

<g
   transform="matrix(0.77092759,-0.6369228,0.6369228,0.77092759,4,2)"
   style="font-size:6.54444742px;fill:#010101;stroke:none;font-family:Sans"
   id="text415"><path
     d="m 18.97439,141.70548 c -0.2386,-0.0873 -0.41542,-0.21197 -0.530458,-0.37388 -0.11504,-0.1619 -0.172559,-0.35576 -0.172559,-0.58158 0,-0.34086 0.122495,-0.62739 0.367486,-0.8596 0.24499,-0.23221 0.570934,-0.34831 0.977833,-0.34832 0.409026,1e-5 0.738165,0.11878 0.987419,0.35631 0.249248,0.23753 0.373874,0.52673 0.373877,0.86758 -3e-6,0.2173 -0.05699,0.40637 -0.170961,0.56721 -0.113977,0.16084 -0.287068,0.28494 -0.519274,0.37228 0.287595,0.0937 0.506489,0.24499 0.656682,0.45376 0.150187,0.20878 0.225282,0.45803 0.225285,0.74776 -3e-6,0.40051 -0.141672,0.7371 -0.425006,1.00979 -0.283339,0.27268 -0.656151,0.40902 -1.118436,0.40902 -0.462288,0 -0.835099,-0.13687 -1.118435,-0.41062 -0.283338,-0.27375 -0.425006,-0.61514 -0.425006,-1.02417 0,-0.30464 0.07722,-0.55975 0.231676,-0.76533 0.15445,-0.20558 0.374409,-0.34565 0.659877,-0.42021 z m -0.115039,-0.97464 c -1e-6,0.22156 0.07137,0.40264 0.214101,0.54324 0.142732,0.14061 0.328072,0.21091 0.556022,0.21091 0.221555,0 0.403167,-0.0698 0.544838,-0.20931 0.141666,-0.13954 0.2125,-0.3105 0.212503,-0.51288 -3e-6,-0.2109 -0.07297,-0.38826 -0.218894,-0.53206 -0.145932,-0.14379 -0.327544,-0.21569 -0.544838,-0.2157 -0.219428,1e-5 -0.401573,0.0703 -0.546436,0.21091 -0.144865,0.14061 -0.217297,0.3089 -0.217296,0.50489 z m -0.185341,2.16338 c -10e-7,0.16403 0.03888,0.32275 0.116637,0.47613 0.07776,0.15339 0.193329,0.27215 0.346715,0.3563 0.153384,0.0841 0.318486,0.12623 0.495307,0.12623 0.274814,0 0.501697,-0.0884 0.680649,-0.26523 0.178947,-0.17682 0.268421,-0.40157 0.268424,-0.67426 -3e-6,-0.27694 -0.09214,-0.50596 -0.276413,-0.68704 -0.184278,-0.18108 -0.414889,-0.27162 -0.691833,-0.27162 -0.270556,0 -0.494776,0.0895 -0.672659,0.26842 -0.177885,0.17896 -0.266828,0.40264 -0.266827,0.67107 z"
     style="font-size:6.54444742px;fill:#010101;stroke:none;font-family:Sans"
     id="path3708" /></g>

<g
   transform="matrix(0.77092759,-0.6369228,0.6369228,0.77092759,4,2)"
   style="font-size:6.54444742px;fill:#010101;stroke:none;font-family:Sans"
   id="text419"><path
     d="m 47.487892,144.36285 -0.575196,0 0,-3.66527 c -0.138474,0.13209 -0.320087,0.26417 -0.544838,0.39625 -0.224753,0.13208 -0.426604,0.23114 -0.605553,0.29718 l 0,-0.55602 c 0.321683,-0.15125 0.602889,-0.33446 0.84362,-0.54963 0.240728,-0.21516 0.411157,-0.42394 0.511285,-0.62633 l 0.370682,0 z"
     style="font-size:6.54444742px;fill:#010101;stroke:none;font-family:Sans"
     id="path3784" /><path
     d="m 48.964227,142.05249 c 0,-0.55389 0.05699,-0.99967 0.170961,-1.33733 0.113973,-0.33766 0.283336,-0.5981 0.508089,-0.78131 0.224752,-0.18321 0.507556,-0.27481 0.848414,-0.27482 0.25138,1e-5 0.471871,0.0506 0.661475,0.15179 0.189599,0.1012 0.346179,0.24713 0.469743,0.43779 0.123557,0.19067 0.220488,0.42288 0.290793,0.69662 0.0703,0.27376 0.105449,0.64284 0.105453,1.10726 -4e-6,0.54963 -0.05646,0.99327 -0.169363,1.33093 -0.112912,0.33767 -0.281743,0.59863 -0.506492,0.78291 -0.224755,0.18427 -0.508624,0.27641 -0.851609,0.27641 -0.451637,0 -0.80634,-0.1619 -1.064112,-0.48572 -0.308902,-0.38985 -0.463352,-1.0247 -0.463352,-1.90453 z m 0.591173,0 c -10e-7,0.76905 0.09001,1.28087 0.270023,1.53545 0.180013,0.25458 0.402102,0.38186 0.666268,0.38186 0.264162,0 0.486251,-0.12782 0.666268,-0.38346 0.180012,-0.25564 0.27002,-0.76693 0.270022,-1.53385 -2e-6,-0.77119 -0.09001,-1.28354 -0.270022,-1.53706 -0.180017,-0.2535 -0.404237,-0.38026 -0.672659,-0.38026 -0.264166,0 -0.47507,0.11184 -0.632715,0.33553 -0.198124,0.28547 -0.297186,0.81273 -0.297185,1.58179 z"
     style="font-size:6.54444742px;fill:#010101;stroke:none;font-family:Sans"
     id="path3786" /></g>

<g
   transform="matrix(0.77092759,-0.6369228,0.6369228,0.77092759,4,2)"
   style="font-size:6.54444742px;fill:#010101;stroke:none;font-family:Sans"
   id="text423"><path
     d="m 76.471401,144.36389 -0.575196,0 0,-3.66527 c -0.138474,0.13208 -0.320087,0.26416 -0.544838,0.39624 -0.224753,0.13209 -0.426604,0.23115 -0.605553,0.29719 l 0,-0.55602 c 0.321683,-0.15126 0.602889,-0.33447 0.84362,-0.54964 0.240729,-0.21516 0.411157,-0.42393 0.511285,-0.62632 l 0.370682,0 z"
     style="font-size:6.54444742px;fill:#010101;stroke:none;font-family:Sans"
     id="path3779" /><path
     d="m 80.970708,143.81106 0,0.55283 -3.096469,0 c -0.0043,-0.13847 0.01811,-0.27162 0.06711,-0.39944 0.07882,-0.2109 0.205046,-0.41861 0.37867,-0.62313 0.173624,-0.20451 0.424472,-0.44098 0.752548,-0.70941 0.509153,-0.41754 0.853205,-0.74828 1.032157,-0.99221 0.178947,-0.24392 0.268421,-0.47453 0.268424,-0.69183 -3e-6,-0.22795 -0.08149,-0.42021 -0.244458,-0.57679 -0.162974,-0.15658 -0.375477,-0.23487 -0.637508,-0.23488 -0.276948,1e-5 -0.498505,0.0831 -0.664671,0.24926 -0.166168,0.16617 -0.250317,0.39624 -0.252447,0.69023 l -0.591173,-0.0607 c 0.04048,-0.44098 0.192796,-0.77705 0.456961,-1.00819 0.264163,-0.23114 0.618866,-0.34672 1.064112,-0.34672 0.449502,0 0.805271,0.12463 1.067307,0.37388 0.26203,0.24925 0.393047,0.55815 0.39305,0.9267 -3e-6,0.18748 -0.03835,0.37175 -0.115039,0.55283 -0.0767,0.18108 -0.203984,0.37175 -0.381866,0.572 -0.177887,0.20025 -0.473473,0.47507 -0.88676,0.82445 -0.345118,0.28972 -0.566675,0.48625 -0.66467,0.58957 -0.098,0.10332 -0.178951,0.20718 -0.24286,0.31156 z"
     style="font-size:6.54444742px;fill:#010101;stroke:none;font-family:Sans"
     id="path3781" /></g>

<g
   transform="matrix(0.77092759,-0.6369228,0.6369228,0.77092759,4,2)"
   style="font-size:6.54444742px;fill:#010101;stroke:none;font-family:Sans"
   id="text427"><path
     d="m 105.10508,144.48158 -0.57519,0 0,-3.66527 c -0.13848,0.13208 -0.32009,0.26417 -0.54484,0.39624 -0.22475,0.13209 -0.4266,0.23115 -0.60555,0.29719 l 0,-0.55602 c 0.32168,-0.15126 0.60289,-0.33447 0.84362,-0.54963 0.24072,-0.21517 0.41115,-0.42394 0.51128,-0.62633 l 0.37068,0 z"
     style="font-size:6.54444742px;fill:#010101;stroke:none;font-family:Sans"
     id="path3774" /><path
     d="m 108.42524,144.48158 0,-1.12163 -2.03236,0 0,-0.52726 2.13781,-3.03576 0.46975,0 0,3.03576 0.63271,0 0,0.52726 -0.63271,0 0,1.12163 z m 0,-1.64889 0,-2.11225 -1.46675,2.11225 z"
     style="font-size:6.54444742px;fill:#010101;stroke:none;font-family:Sans"
     id="path3776" /></g>



<path
   d="M 124.31,122.46 207.39,53.939 185.53,27.936 c 0,0 5.0881,31.495 -61.215,94.525 z"
   id="path429"
   style="fill:url(#linearGradient3827);fill-opacity:1;stroke:none" />

	<path
   style="fill:#020202;stroke:none"
   d="M 25.468311,182.68459 196.68165,41.353659 197.75654,42.655825 26.543205,183.98675 25.468311,182.68459 z"
   id="rect431" />

	<path
   style="fill:#020202;stroke:none"
   d="M 28.003528,185.75269 199.21687,44.421757 199.7936,45.120438 28.580266,186.45137 28.003528,185.75269 z"
   id="rect433" />

<path
   style="font-size:medium;font-style:normal;font-variant:normal;font-weight:normal;font-stretch:normal;text-indent:0;text-align:start;text-decoration:none;line-height:normal;letter-spacing:normal;word-spacing:normal;text-transform:none;direction:ltr;block-progression:tb;writing-mode:lr-tb;text-anchor:start;color:#000000;fill:#020202;fill-opacity:1;fill-rule:nonzero;stroke:none;stroke-width:0.5;marker:none;visibility:visible;display:inline;overflow:visible;enable-background:accumulate;font-family:Bitstream Vera Sans;-inkscape-font-specification:Bitstream Vera Sans"
   d="m 7.9771016,161.99497 -0.4674773,0.0292 0.1168693,1.63617 0,0.0876 0.058435,0.0584 28.0778524,34.24271 0.379826,0.4967 0.02922,-0.64278 0.05843,-2.22052 -0.467477,0 -0.02922,1.60695 -27.6395928,-33.7168 -0.1168693,-1.57773 z"
   id="path2910" /><path
   style="font-size:medium;font-style:normal;font-variant:normal;font-weight:normal;font-stretch:normal;text-indent:0;text-align:start;text-decoration:none;line-height:normal;letter-spacing:normal;word-spacing:normal;text-transform:none;direction:ltr;block-progression:tb;writing-mode:lr-tb;text-anchor:start;color:#000000;fill:#020202;fill-opacity:1;fill-rule:nonzero;stroke:none;stroke-width:0.5;marker:none;visibility:visible;display:inline;overflow:visible;enable-background:accumulate;font-family:Bitstream Vera Sans;-inkscape-font-specification:Bitstream Vera Sans"
   d="m 207.79441,54.358329 -0.1753,2.015996 -171.18433,141.061265 0.146086,-1.84069 -0.467477,-0.0584 -0.175304,2.39582 -0.05843,0.55513 0.438259,-0.35061 171.681016,-141.470302 0.0584,-0.05843 0.0292,-0.08765 0.1753,-2.103647 -0.46748,-0.05844 z"
   id="path3693" /><path
   style="font-size:medium;font-style:normal;font-variant:normal;font-weight:normal;font-stretch:normal;text-indent:0;text-align:start;text-decoration:none;line-height:normal;letter-spacing:normal;word-spacing:normal;text-transform:none;direction:ltr;block-progression:tb;writing-mode:lr-tb;text-anchor:start;color:#000000;fill:#020202;fill-opacity:1;fill-rule:nonzero;stroke:none;stroke-width:0.93496001;marker:none;visibility:visible;display:inline;overflow:visible;enable-background:accumulate;font-family:Bitstream Vera Sans;-inkscape-font-specification:Bitstream Vera Sans"
   d="m 180.03125,19.625 -0.375,0.28125 -171.625,141.6875 -0.375,0.3125 0.3125,0.34375 27.9375,33.875 0.28125,0.34375 0.375,-0.28125 L 208.1875,54.5 208.5625,54.1875 208.25,53.84375 180.3125,19.96875 180.03125,19.625 z M 179.875,20.9375 207.25,54.0625 36.34375,195.15625 8.96875,162.03125 179.875,20.9375 z"
   id="path3700" /></svg>