<?xml version="1.0" encoding="UTF-8" standalone="no"?>
<svg
   xmlns:dc="http://purl.org/dc/elements/1.1/"
   xmlns:cc="http://creativecommons.org/ns#"
   xmlns:rdf="http://www.w3.org/1999/02/22-rdf-syntax-ns#"
   xmlns:svg="http://www.w3.org/2000/svg"
   xmlns="http://www.w3.org/2000/svg"
   xmlns:xlink="http://www.w3.org/1999/xlink"
   xmlns:sodipodi="http://sodipodi.sourceforge.net/DTD/sodipodi-0.dtd"
   xmlns:inkscape="http://www.inkscape.org/namespaces/inkscape"
   viewBox="0 0 219 219"
   height="219"
   width="219"
   version="1.1"
   id="svg2"
   inkscape:version="0.47 r22583"
   sodipodi:docname="message.svg">
  <sodipodi:namedview
     pagecolor="#ffffff"
     bordercolor="#666666"
     borderopacity="1"
     objecttolerance="10"
     gridtolerance="10"
     guidetolerance="10"
     inkscape:pageopacity="0"
     inkscape:pageshadow="2"
     inkscape:window-width="1189"
     inkscape:window-height="730"
     id="namedview120"
     showgrid="false"
     inkscape:zoom="1.0776256"
     inkscape:cx="109.5"
     inkscape:cy="109.5"
     inkscape:window-x="0"
     inkscape:window-y="334"
     inkscape:window-maximized="0"
     inkscape:current-layer="svg2" />
  <defs
     id="defs4">
    <linearGradient
       id="linearGradient3284"
       y2="368.7"
       spreadMethod="reflect"
       gradientUnits="userSpaceOnUse"
       x2="213.7"
       y1="473.8"
       x1="390.2">
      <stop
         stop-color="#6f6f6f"
         offset="0"
         id="stop14" />
      <stop
         stop-color="#f5f5f5"
         offset="1"
         id="stop16" />
    </linearGradient>
    <filter
       id="filter11193"
       height="1.204561"
       width="1.6059247"
       y="-0.10228051"
       x="-0.30296236"
       color-interpolation-filters="sRGB">
      <feGaussianBlur
         stdDeviation="18.143585"
         id="feGaussianBlur25" />
    </filter>
    <filter
       id="filter11189"
       height="1.2111586"
       width="1.3552474"
       y="-0.10557931"
       x="-0.17762369"
       color-interpolation-filters="sRGB">
      <feGaussianBlur
         stdDeviation="18.143585"
         id="feGaussianBlur31" />
    </filter>
    <filter
       id="filter11185"
       height="1.2424628"
       width="1.2640786"
       y="-0.12123133"
       x="-0.13203932"
       color-interpolation-filters="sRGB">
      <feGaussianBlur
         stdDeviation="18.143585"
         id="feGaussianBlur37" />
    </filter>
    <filter
       id="filter11181"
       height="1.3091427"
       width="1.2171913"
       y="-0.15457135"
       x="-0.10859563"
       color-interpolation-filters="sRGB">
      <feGaussianBlur
         stdDeviation="18.143585"
         id="feGaussianBlur43" />
    </filter>
    <linearGradient
       id="linearGradient3753"
       x1="-99.68"
       gradientUnits="userSpaceOnUse"
       y1="98.95"
       gradientTransform="matrix(0.44719517,0,0,0.44719517,254.33722,125.61543)"
       x2="-179.1"
       y2="100.4">
      <stop
         stop-color="#c4c4c4"
         offset="0"
         id="stop49" />
      <stop
         stop-color="#fffcfc"
         offset="1"
         id="stop51" />
    </linearGradient>
    <linearGradient
       id="linearGradient3756"
       x1="-244.5"
       gradientUnits="userSpaceOnUse"
       y1="212.3"
       gradientTransform="matrix(0.43958533,0,0,0.43958533,255.44387,125.03868)"
       x2="-244.4"
       y2="125.8">
      <stop
         stop-color="#afa9a9"
         offset="0"
         id="stop54" />
      <stop
         stop-color="#FFF"
         offset="1"
         id="stop56" />
    </linearGradient>
    <linearGradient
       id="linearGradient3762"
       x1="-241.7"
       gradientUnits="userSpaceOnUse"
       y1="17.83"
       gradientTransform="matrix(0.43715283,0,0,0.43715283,254.62828,127.33288)"
       x2="-238.7"
       y2="115.9">
      <stop
         stop-color="#CCC"
         offset="0"
         id="stop59" />
      <stop
         stop-color="#f6f0f0"
         offset="1"
         id="stop61" />
    </linearGradient>
    <linearGradient
       id="linearGradient3765"
       x1="-381.7"
       gradientUnits="userSpaceOnUse"
       y1="107.9"
       gradientTransform="matrix(0.44914178,0,0,0.44914178,260.63242,125.63392)"
       x2="-306.8"
       y2="106.5">
      <stop
         stop-color="#cdcaca"
         offset="0"
         id="stop64" />
      <stop
         stop-color="#fdfafa"
         offset="1"
         id="stop66" />
    </linearGradient>
    <linearGradient
       inkscape:collect="always"
       xlink:href="#linearGradient3284-1"
       id="linearGradient3708"
       gradientUnits="userSpaceOnUse"
       spreadMethod="reflect"
       x1="390.20001"
       y1="473.79999"
       x2="213.7"
       y2="368.70001"
       gradientTransform="matrix(0.49330515,0,0,0.49330515,-75.823499,-123.84818)" />
    <linearGradient
       id="linearGradient3284-1"
       x1="390.20001"
       spreadMethod="reflect"
       gradientUnits="userSpaceOnUse"
       y1="473.79999"
       x2="213.7"
       y2="368.70001">
      <stop
         stop-color="#6f6f6f"
         offset="0"
         id="stop14-7" />
      <stop
         stop-color="#f5f5f5"
         offset="1"
         id="stop16-4" />
    </linearGradient>
    <linearGradient
       inkscape:collect="always"
       xlink:href="#linearGradient3664"
       id="linearGradient3688"
       x1="-103.06042"
       y1="167.63292"
       x2="-28.059572"
       y2="123.86324"
       gradientUnits="userSpaceOnUse"
       gradientTransform="translate(181.84722,-37.00117)" />
    <linearGradient
       id="linearGradient3664">
      <stop
         style="stop-color:#0000ff;stop-opacity:0;"
         offset="0"
         id="stop3666" />
      <stop
         id="stop3668"
         offset="0.20762333"
         style="stop-color:#0000ff;stop-opacity:0.09803922;" />
      <stop
         id="stop3670"
         offset="0.32430306"
         style="stop-color:#00ff00;stop-opacity:0.09803922;" />
      <stop
         id="stop3672"
         offset="0.49649313"
         style="stop-color:#ffff00;stop-opacity:0.09803922;" />
      <stop
         id="stop3674"
         offset="0.63897055"
         style="stop-color:#ff0000;stop-opacity:0.09803922;" />
      <stop
         style="stop-color:#ff0000;stop-opacity:0;"
         offset="1"
         id="stop3676" />
    </linearGradient>
    <filter
       color-interpolation-filters="sRGB"
       inkscape:collect="always"
       id="filter3714">
      <feGaussianBlur
         inkscape:collect="always"
         stdDeviation="2.8267969"
         id="feGaussianBlur3716" />
    </filter>
    <linearGradient
       id="linearGradient5241-9">
      <stop
         stop-color="#7c7c7c"
         offset="0"
         id="stop8-4" />
      <stop
         stop-color="#c6c6c6"
         offset="1"
         id="stop10-8" />
    </linearGradient>
    <linearGradient
       y2="318.84375"
       x2="434.03125"
       y1="423.84375"
       x1="539.03125"
       gradientTransform="translate(-325.92592,-208.96396)"
       gradientUnits="userSpaceOnUse"
       id="linearGradient2923"
       xlink:href="#linearGradient5241-9"
       inkscape:collect="always" />
  </defs>
  <metadata
     id="metadata68">
    <rdf:RDF>
      <cc:Work
         rdf:about="">
        <dc:format>image/svg+xml</dc:format>
        <dc:type
           rdf:resource="http://purl.org/dc/dcmitype/StillImage" />
        <dc:title />
      </cc:Work>
    </rdf:RDF>
  </metadata>
  <g
     transform="translate(2.3226361,0.10173434)"
     id="g2870">
    <path
       id="maindisk"
       d="m 108.08067,4.855128 c -57.914035,0 -104.975345,47.061311 -104.975345,105.024672 0,57.96335 47.03664,105.02466 104.975345,105.02466 57.96335,0 105.02466,-47.05145 105.02466,-105.02466 0,-57.973228 -47.05145,-104.975345 -105.02466,-104.975345 z m 0,78.928818 c 14.39464,0 26.08597,11.676543 26.08597,26.066244 0,14.39465 -11.69133,26.08598 -26.08597,26.08598 -14.394655,0 -26.066245,-11.69133 -26.066245,-26.08598 0,-14.394641 11.67652,-26.066244 26.066245,-26.066244 z"
       style="color:#000000;fill:url(#linearGradient3708)" />
    <path
       id="whiteouter"
       d="m 108.10533,83.332919 c -14.665937,0 -26.562504,11.896559 -26.562504,26.562501 0,14.66593 11.896567,26.53125 26.562504,26.53125 14.66594,0 26.5625,-11.86532 26.5625,-26.53125 0,-14.665942 -11.89656,-26.562501 -26.5625,-26.562501 z m 0,7.0625 c 10.76956,0 19.5,8.73044 19.5,19.500001 0,10.76956 -8.73044,19.5 -19.5,19.5 -10.769569,0 -19.500004,-8.73044 -19.500004,-19.5 0,-10.769561 8.730435,-19.500001 19.500004,-19.500001 z"
       style="color:#000000;fill:#ffffff;fill-opacity:1;fill-rule:nonzero;stroke:none;stroke-width:1;marker:none;visibility:visible;display:inline;overflow:visible;enable-background:accumulate" />
    <path
       id="mediumgrey"
       d="m 108.10533,90.879788 c -10.493415,0 -19.000005,8.506601 -19.000005,19.000002 0,10.49342 8.50659,19.00001 19.000005,19.00001 10.49341,0 19,-8.50659 19,-19.00001 0,-10.493401 -8.50659,-19.000002 -19,-19.000002 z m 0,3.437501 c 8.58803,0 15.5625,6.974481 15.5625,15.562501 0,8.58805 -6.97447,15.53126 -15.5625,15.53126 -8.588035,0 -15.531255,-6.94321 -15.531255,-15.53126 0,-8.58802 6.94322,-15.562501 15.531255,-15.562501 z"
       style="color:#000000;fill:#b7b6b6;fill-opacity:1;fill-rule:nonzero;stroke:none;stroke-width:1;marker:none;visibility:visible;display:inline;overflow:visible;enable-background:accumulate" />
    <path
       id="whiteinner"
       d="m 108.12095,94.317288 c -8.588026,0 -15.562496,6.974482 -15.562496,15.562502 0,8.58805 6.97447,15.56251 15.562496,15.56251 8.58803,0 15.53125,-6.97446 15.53125,-15.56251 0,-8.58802 -6.94322,-15.562502 -15.53125,-15.562502 z m 0,1.21875 c 7.9253,0 14.34375,6.418472 14.34375,14.343752 0,7.92531 -6.41845,14.34376 -14.34375,14.34376 -7.92529,0 -14.343746,-6.41845 -14.343746,-14.34376 0,-7.92528 6.418456,-14.343752 14.343746,-14.343752 z"
       style="color:#000000;fill:#eaeaea;fill-opacity:1;fill-rule:nonzero;stroke:none;stroke-width:1;marker:none;visibility:visible;display:inline;overflow:visible;enable-background:accumulate" />
    <path
       id="lightgrey"
       d="m 108.0897,95.536038 c -7.92529,0 -14.343746,6.418472 -14.343746,14.343752 0,7.92531 6.418456,14.34376 14.343746,14.34376 7.9253,0 14.375,-6.41845 14.375,-14.34376 0,-7.92528 -6.4497,-14.343752 -14.375,-14.343752 z m 0,5.250002 c 5.02579,0 9.125,4.06797 9.125,9.09375 0,5.02581 -4.09921,9.09376 -9.125,9.09376 -5.02578,0 -9.093746,-4.06795 -9.093746,-9.09376 0,-5.02578 4.067966,-9.09375 9.093746,-9.09375 z"
       style="color:#000000;fill:#dddddd;fill-opacity:1;fill-rule:nonzero;stroke:none;stroke-width:1;marker:none;visibility:visible;display:inline;overflow:visible;enable-background:accumulate" />
    <path
       id="blackhole"
       d="m 108.0897,100.77042 c -5.0258,0 -9.093746,4.06797 -9.093746,9.09375 0,5.0258 4.067946,9.125 9.093746,9.125 5.02579,0 9.125,-4.0992 9.125,-9.125 0,-5.02578 -4.09922,-9.09375 -9.125,-9.09375 z m 0,1.09375 c 4.41827,0 8,3.58174 8,8 0,4.41828 -3.58173,8 -8,8 -4.41827,0 -8,-3.58172 -8,-8 0,-4.41826 3.58173,-8 8,-8 z"
       style="color:#000000;fill:#3a3a3a;fill-opacity:1;fill-rule:nonzero;stroke:none;stroke-width:1;marker:none;visibility:visible;display:inline;overflow:visible;enable-background:accumulate" />
    <path
       id="translucentring"
       d="m 108.10533,71.752198 c -21.057301,0 -38.127595,17.070304 -38.127595,38.127602 0,21.05731 17.070294,38.12759 38.127595,38.12759 21.05732,0 38.12759,-17.07028 38.12759,-38.12759 0,-21.057298 -17.07027,-38.127602 -38.12759,-38.127602 z m 0,9.393752 c 15.86929,0 28.73383,12.864636 28.73383,28.73385 0,15.86927 -12.86454,28.73384 -28.73383,28.73384 -15.869286,0 -28.733842,-12.86457 -28.733842,-28.73384 0,-15.869214 12.864556,-28.73385 28.733842,-28.73385 z"
       style="color:#000000;fill:#ffffff;fill-opacity:0.32352941;fill-rule:nonzero;stroke:none;stroke-width:1;marker:none;visibility:visible;display:inline;overflow:visible;enable-background:accumulate" />
    <path
       id="blackring"
       d="m 108.10533,90.379788 c -10.769575,0 -19.500005,8.730453 -19.500005,19.500012 0,10.76956 8.73043,19.5 19.500005,19.5 10.76955,0 19.5,-8.73044 19.5,-19.5 0,-10.769559 -8.73045,-19.500012 -19.5,-19.500012 z m 0,0.75 c 10.35534,0 18.75,8.39466 18.75,18.750012 0,10.35535 -8.39466,18.75 -18.75,18.75 -10.355364,0 -18.750005,-8.39465 -18.750005,-18.75 0,-10.355352 8.39465,-18.750012 18.750005,-18.750012 z"
       style="color:#000000;fill:#000000;fill-opacity:1;fill-rule:nonzero;stroke:none;stroke-width:1;marker:none;visibility:visible;display:inline;overflow:visible;enable-background:accumulate" />
    <path
       id="path2856"
       d="M 95.375,6.0762339 C 66.360386,9.5861729 40.950926,24.954697 24.187496,47.201234 L 84.65625,98.888728 c 4.236235,-8.66815 13.144849,-14.65625 23.4375,-14.65625 0.92066,0 1.82256,0.0318 2.71875,0.125 L 95.375,6.0762339 z M 131.0625,122.66998 c -4.40541,8.1564 -13.02936,13.70706 -22.9375,13.71875 l 12.71875,78.1875 c 29.35794,-3.56606 55.00348,-19.24439 71.75,-41.90625 l -61.53125,-50 z"
       style="fill:url(#linearGradient3688);fill-opacity:1;stroke:none;filter:url(#filter3714)" />
    <path
       id="diskedge"
       d="m 108.07408,4.879788 c -57.963355,0 -104.968755,47.030071 -104.968755,104.968762 0,57.96335 47.03007,105.03125 104.968755,105.03125 57.96335,0 105.03125,-47.05802 105.03125,-105.03125 0,-57.973232 -47.05802,-104.968762 -105.03125,-104.968762 z m 0.0312,5.000001 c 55.22848,0 100,44.77152 100,100.000011 0,55.22847 -44.77152,100 -100,100 -55.228485,0 -100.000005,-44.77153 -100.000005,-100 0,-55.228492 44.77152,-100.000012 100.000005,-100.000012 z"
       style="color:#000000;fill:url(#linearGradient2923);fill-opacity:1;stroke:none;enable-background:accumulate" />
  </g>
  <path
     fill="#1a1a1a"
     d="m85.2,214.2c-0.6589-0.728-0.7197-4.234-0.7197-41.5,0-36.42,0.0719-40.78,0.6834-41.39,0.615-0.6149,7.066-0.6833,64.51-0.6833,61.28,0,63.86,0.0323,64.55,0.7952,0.6589,0.728,0.7197,4.234,0.7197,41.5,0,36.42-0.0719,40.78-0.6834,41.39-0.615,0.615-7.066,0.6833-64.51,0.6833-61.28,0-63.86-0.0323-64.55-0.7952zm121-4.178c0-0.1047-8.536-8.323-18.97-18.26l-18.97-18.07-2.014,1.446c-10.83,7.778-22.77,7.868-32.97,0.248l-2.259-1.688-18.94,18.06c-10.42,9.935-18.94,18.15-18.94,18.26,0,0.1089,25.44,0.1968,56.53,0.1968s56.53-0.0851,56.53-0.1898zm4.234-59.78-0.103-12.36-19.26,16.44c-10.6,9.044-19.11,16.59-18.92,16.78,0.1913,0.1842,8.762,8.267,19.05,17.96l18.7,17.63,0.3204-22.05c0.1762-12.13,0.2741-27.61,0.2174-34.4zm-108.1,44.21c3.617-3.408,10.7-10.08,15.74-14.83s9.133-8.735,9.097-8.856c-0.0364-0.12-8.647-7.539-19.13-16.49l-19.07-16.27-0.1375,14.69c-0.0757,8.077-0.004,22.17,0.1596,31.32l0.297,16.63,0.1054,5.867,6.364-5.867zm53.66-19.08c3.093-0.988,6.859-3.157,9.947-5.73,1.196-0.996,10.68-9.055,21.08-17.91l18.91-16.1-28.4-0.1116c-15.62-0.0614-40.98-0.0614-56.36,0l-27.97,0.11,20.28,17.26c11.15,9.493,21.14,17.88,22.2,18.65,6.511,4.695,13.48,6.009,20.31,3.828z"
     id="path110" />
  <path
     d="m144.1,176.2c-5.835-1.571-6.344-1.96-40.38-30.84l-12.13-10.29,28.96-0.1439c15.93-0.0792,42.03-0.0792,58,0l29.04,0.1439-20.83,17.7c-11.46,9.734-22.3,18.68-24.09,19.88-5.967,3.985-12.4,5.216-18.58,3.552z"
     fill-rule="evenodd"
     stroke-miterlimit="4"
     fill="url(#linearGradient3762)"
     id="path112" />
  <path
     d="m88,176.9c-0.1665-17.54-0.1444-33.73,0.049-35.99l0.3516-4.108,17.78,15.25c9.776,8.387,18.69,16.06,19.82,17.05l2.04,1.805-6.96,6.809c-3.828,3.745-11.59,11.14-17.24,16.44-5.656,5.298-11.46,10.76-12.9,12.13l-2.62,2.493-0.3026-31.88z"
     fill-rule="evenodd"
     stroke-miterlimit="4"
     fill="url(#linearGradient3765)"
     id="path114" />
  <path
     d="m112.7,210.4-21.14-0.3342,9.047-8.667c4.976-4.767,13.7-13.09,19.38-18.5l10.33-9.836,3.595,2.411c9.681,6.492,21.75,6.451,31.94-0.1091l3.715-2.39,11.2,10.72c6.158,5.896,14.85,14.3,19.32,18.67l8.12,7.954-11.74,0.0155c-6.459,0.009-23.19,0.1027-37.19,0.2093-13.99,0.1067-34.96,0.0433-46.58-0.1405z"
     fill-rule="evenodd"
     stroke-miterlimit="4"
     fill="url(#linearGradient3756)"
     id="path116" />
  <path
     d="m191.3,189.7-19.56-18.51,3.925-3.728c4.422-4.201,35.3-30.75,35.76-30.75,0.4096,0,0.2419,53.53-0.1988,63.48l-0.3552,8.015-19.56-18.51z"
     fill-rule="evenodd"
     stroke-miterlimit="4"
     fill="url(#linearGradient3753)"
     id="path118" />
</svg>
