<?xml version="1.0" encoding="UTF-8" standalone="no"?>
<svg xmlns:rdf="http://www.w3.org/1999/02/22-rdf-syntax-ns#" xmlns="http://www.w3.org/2000/svg" y="0px" xml:space="preserve" height="219" width="219" version="1.1" enable-background="new -0.083 -0.154 208 203" x="0px" xmlns:cc="http://creativecommons.org/ns#" xmlns:xlink="http://www.w3.org/1999/xlink" viewBox="-0.083 -0.154 219 219" xmlns:dc="http://purl.org/dc/elements/1.1/"><metadata><rdf:RDF><cc:Work rdf:about=""><dc:format>image/svg+xml</dc:format><dc:type rdf:resource="http://purl.org/dc/dcmitype/StillImage"/><dc:title/></cc:Work></rdf:RDF></metadata><defs><filter id="filter4491" color-interpolation-filters="sRGB"><feGaussianBlur stdDeviation="2.2606761"/></filter><linearGradient id="linearGradient4603" y2="74.3" gradientUnits="userSpaceOnUse" x2="196" gradientTransform="translate(2.887923,-6.6009668)" y1="88.9" x1="200"><stop stop-color="#6f6666" offset="0"/><stop stop-color="#d3d3d3" stop-opacity="0" offset="1"/></linearGradient><linearGradient id="linearGradient4600" y2="117" gradientUnits="userSpaceOnUse" x2="1.39" gradientTransform="translate(2.887923,-6.6009668)" y1="197" x1="72.4"><stop stop-color="#908a8a" offset="0"/><stop stop-color="#b7b7b7" stop-opacity="0" offset="1"/></linearGradient><linearGradient id="linearGradient4596" y2="131" gradientUnits="userSpaceOnUse" x2="34.5" gradientTransform="translate(2.887923,1.3990332)" y1="146" x1="80.1"><stop stop-color="#b7b7b7" offset="0"/><stop stop-color="#b7b7b7" stop-opacity="0" offset="1"/></linearGradient><linearGradient id="linearGradient4590" y2="94.7" gradientUnits="userSpaceOnUse" x2="162" gradientTransform="translate(2.887923,1.3990332)" y1="15.8" x1="86.8"><stop stop-color="#CCC" offset="0"/><stop stop-color="#66b5f4" offset="1"/></linearGradient><linearGradient id="linearGradient4853" y2="134" gradientUnits="userSpaceOnUse" y1="69.1" gradientTransform="translate(2.887923,1.3990332)" x2="161" x1="75.5"><stop stop-color="#a5a5a5" offset="0"/><stop stop-color="#0e627b" offset="1"/></linearGradient><filter id="filter4101-8" color-interpolation-filters="sRGB"><feGaussianBlur stdDeviation="2.036223"/></filter><linearGradient id="linearGradient4014-1" y2="106" gradientUnits="userSpaceOnUse" x2="94.8" y1="22.6" x1="13.7"><stop stop-color="#c5cacf" offset="0"/><stop stop-color="#69b6f3" offset="1"/></linearGradient><filter id="filter4318" color-interpolation-filters="sRGB"><feGaussianBlur stdDeviation="1.5906562"/></filter><filter id="filter4145" color-interpolation-filters="sRGB"><feGaussianBlur stdDeviation="1.2777221"/></filter><radialGradient id="radialGradient3909" gradientUnits="userSpaceOnUse" cy="241" cx="129" gradientTransform="matrix(0.45924015,0.45923983,-0.46422934,0.46422945,180.97442,70.51783)" r="11.7"><stop stop-color="#FFF" offset="0"/><stop stop-color="#d97b3b" offset="1"/></radialGradient><radialGradient id="radialGradient3405" xlink:href="#radialGradient3909" gradientUnits="userSpaceOnUse" cy="241" cx="129" gradientTransform="matrix(0.23325017,0.23325,-0.2357842,0.23578425,134.33777,25.04953)" r="11.7"/><radialGradient id="radialGradient3167" xlink:href="#radialGradient3909" gradientUnits="userSpaceOnUse" cy="241" cx="129" gradientTransform="matrix(0.23325017,0.23325,-0.2357842,0.23578425,78.993423,25.172816)" r="11.7"/><radialGradient id="radialGradient3176" xlink:href="#radialGradient3909" gradientUnits="userSpaceOnUse" cy="241" cx="129" gradientTransform="matrix(0.23325017,0.23325,-0.2357842,0.23578425,188.85568,24.835036)" r="11.7"/><linearGradient id="linearGradient3154" y2="116" gradientUnits="userSpaceOnUse" x2="89.8" gradientTransform="matrix(0.40578157,0,0,0.45668192,28.909818,8.0260617)" y1="155" x1="123"><stop stop-color="#10637b" offset="0"/><stop stop-color="#6d8c96" offset="1"/></linearGradient></defs><path opacity="0.5" d="m136,218c-3.03-0.0318-5.81,1.19-5.81,1.19s-0.884,18.1-2.25,19.1c-3.4,2.28-5.66,6.09-5.81,10.4-0.313-2.63-2.56-4.66-5.28-4.66h-70c-2.93,0-5.31,2.38-5.31,5.31s2.38,5.28,5.31,5.28h37.6c0.234,0.0323,0.476,0.0312,0.719,0.0312h24.7c0.236,0,0.46-0.00078,0.688-0.0312h6.34c2.75,0,5.01-2.07,5.28-4.75,0.377,6.92,6.11,12.5,13.1,12.5,7.25,0,13.1-5.93,13.1-13.2,0-3.52-1.34-6.82-3.84-9.31-0.75-0.745-1.58-1.4-2.47-1.94-1.26-0.766-2-18.8-2-18.8-1.24-0.767-2.68-1.05-4.06-1.06zm24.4,25.7c-0.18,0-0.356,0.0134-0.531,0.0312h-5.75c-2.93,0-5.31,2.35-5.31,5.28s2.38,5.31,5.31,5.31h70c2.93,0,5.31-2.38,5.31-5.31s-2.38-5.28-5.31-5.28h-38.3c-0.175-0.0178-0.352-0.0312-0.531-0.0312h-24.9z" transform="matrix(0.50790456,0,0,0.50790456,-12.92431,-10.643511)" filter="url(#filter4145)" stroke-miterlimit="4" stroke-width="0" fill="#000"/><path stroke="#88471a" stroke-width="1.24070585" d="m47.2,114c0,1.49-1.21,2.7-2.7,2.7h-35.5c-1.49,0-2.69-1.21-2.69-2.7s1.21-2.69,2.69-2.69h35.6c1.49,0,2.7,1.21,2.7,2.69z" fill="#d97b3b"/><path stroke="#88471a" stroke-width="1.24070585" d="m102,114c0,1.49-1.21,2.69-2.69,2.69h-35.8c-1.49,0-2.7-1.21-2.7-2.69,0-1.49,1.21-2.7,2.7-2.7h35.6c1.49,0.00051,2.69,1.21,2.69,2.7z" fill="#d97b3b"/><path stroke="#88471a" stroke-width="1.24070585" d="M79.3,111h-12.6c-1.46,0-2.64,1.19-2.64,2.64,0,1.46,1.18,2.64,2.64,2.64h12.7c1.46,0,2.64-1.19,2.64-2.64,0-1.46-1.18-2.64-2.64-2.64z" fill="#d97b3b"/><path stroke="#88471a" stroke-width="1.24070585" d="m51.3,98.4s-0.454,9.21-1.15,9.67c-1.79,1.2-2.97,3.24-2.97,5.55,0,3.69,3,6.69,6.69,6.69,3.68,0,6.67-3,6.67-6.68,0-1.79-0.687-3.47-1.96-4.74-0.381-0.378-0.801-0.707-1.25-0.979-0.64-0.389-1.02-9.58-1.02-9.58-2.01-1.25-5.01,0.0701-5.01,0.0701z" fill="#d97b3b"/><path d="m57.1,109c1.58,1.07,2.61,2.87,2.61,4.92,0,3.28-2.66,5.93-5.93,5.93-1.23,0-2.37-0.375-3.32-1.01-1.58-1.07-2.61-2.87-2.61-4.92,0-3.28,2.66-5.93,5.93-5.93,1.23,0.001,2.37,0.373,3.32,1.01z" fill="url(#radialGradient3167)"/><path opacity="0.5" d="m136,218c-3.03-0.0318-5.81,1.19-5.81,1.19s-0.884,18.1-2.25,19.1c-3.4,2.28-5.66,6.09-5.81,10.4-0.313-2.63-2.56-4.66-5.28-4.66h-70c-2.93,0-5.31,2.38-5.31,5.31s2.38,5.28,5.31,5.28h37.6c0.234,0.0323,0.476,0.0312,0.719,0.0312h24.7c0.236,0,0.46-0.00078,0.688-0.0312h6.34c2.75,0,5.01-2.07,5.28-4.75,0.377,6.92,6.11,12.5,13.1,12.5,7.25,0,13.1-5.93,13.1-13.2,0-3.52-1.34-6.82-3.84-9.31-0.75-0.745-1.58-1.4-2.47-1.94-1.26-0.766-2-18.8-2-18.8-1.24-0.767-2.68-1.05-4.06-1.06zm24.4,25.7c-0.18,0-0.356,0.0134-0.531,0.0312h-5.75c-2.93,0-5.31,2.35-5.31,5.28s2.38,5.31,5.31,5.31h70c2.93,0,5.31-2.38,5.31-5.31s-2.38-5.28-5.31-5.28h-38.3c-0.175-0.0178-0.352-0.0312-0.531-0.0312h-24.9z" transform="matrix(0.50790456,0,0,0.50790456,96.937945,-10.981291)" filter="url(#filter4145)" stroke-miterlimit="4" stroke-width="0" fill="#000"/><path stroke="#88471a" stroke-width="1.24070585" d="m157,113c0,1.49-1.21,2.7-2.7,2.7h-35.6c-1.49,0-2.69-1.21-2.69-2.7s1.21-2.69,2.69-2.69h35.6c1.49,0,2.7,1.21,2.7,2.69z" fill="#d97b3b"/><path stroke="#88471a" stroke-width="1.24070585" d="m212,113c0,1.49-1.21,2.69-2.69,2.69h-35.6c-1.49,0-2.7-1.21-2.7-2.69,0-1.49,1.21-2.7,2.7-2.7h35.6c1.49,0.00051,2.69,1.21,2.69,2.7z" fill="#d97b3b"/><path stroke="#88471a" stroke-width="1.24070585" d="M151,111h-12.7c-1.46,0-2.64,1.19-2.64,2.65s1.18,2.64,2.64,2.64h12.6c1.46,0,2.64-1.19,2.64-2.64,0-1.46-1.18-2.65-2.64-2.65z" fill="#d97b3b"/><path stroke="#88471a" stroke-width="1.24070585" d="m161,98s-0.454,9.21-1.15,9.67c-1.79,1.2-2.97,3.24-2.97,5.55,0,3.69,3,6.69,6.69,6.69,3.68,0,6.67-3,6.67-6.68,0-1.79-0.687-3.47-1.96-4.74-0.381-0.378-0.801-0.707-1.25-0.979-0.64-0.389-1.02-9.58-1.02-9.58-2.01-1.25-5.01,0.0701-5.01,0.0701z" fill="#d97b3b"/><path d="m167,108c1.58,1.07,2.61,2.87,2.61,4.92,0,3.28-2.66,5.93-5.93,5.93-1.23,0-2.37-0.375-3.32-1.01-1.58-1.07-2.61-2.87-2.61-4.92,0-3.28,2.66-5.93,5.93-5.93,1.23,0.001,2.37,0.373,3.32,1.01z" fill="url(#radialGradient3176)"/><g transform="matrix(0.43696342,0,0,0.43696342,125.05032,12.542708)"><path opacity="0.5" d="M99.2,215c-0.4,0-20.3-22-44.2-49-31.4-35-43.6-49-43.8-50-0.202-0.763-0.239-2.07-0.0821-2.91l0.285-1.52,32.2-16.1c27.5-13.8,32.4-16.1,34-16.1,1.75,0,1.8-0.0329,2.03-1.55,0.13-0.851,3.11-16.5,6.62-34.7,4.67-24.2,6.58-33.4,7.1-33.9,0.888-0.981,3.52-1.73,4.6-1.31,0.441,0.172,26.3,15.4,57.4,33.7,62.3,36.7,59.2,34.7,58.9,38.6-0.114,1.55-3.35,7.66-19.7,37.3-12.3,22.3-20,35.7-20.6,36.1-0.542,0.36-1.7,0.626-2.56,0.591l-1.58-0.0629,0.0355,1.77c0.0536,2.67-1.05,4.49-4.34,7.15-1.62,1.31-16.3,13.5-32.7,27s-30.1,24.8-30.6,25.1c-0.877,0.469-1.79,0.528-3.04,0.195z" filter="url(#filter4491)" stroke-width="0" fill="#000"/><path stroke="#0c0c0c" d="m86.1,3.03s2.83-1.91,4.9-0.755l113,66.9s4.62,3.55,1.95,8.16l-38.9,70.3s-2.42,1.9-4.37,1.02" fill="url(#linearGradient4603)"/><path stroke="#0c0c0c" d="m3.57,106-0.175,2.99s-0.175,2.28,0.879,2.99l86.3,97s2.81,2.46,5.98-0.702c6.31-5.23,12.6-10.4,18.9-15.7,11.1-9.18,22.2-18.3,33.2-27.5,2.27-1.89,4.55-3.76,6.83-5.63,4.02-3.3,8.11-5.02,7.1-11.1" fill="url(#linearGradient4600)"/><path stroke="#0c0c0c" d="m4.45,105,63.1-31.5s3.52-1.23,4.92,0.176l88.4,71.7s4.22,3.34-0.351,6.68l-64.8,54.1s-2.11,2.29-4.39-0.175l-43.4-48.5s0.833-0.482,0.527-1.58l-10.7-12.1s-0.968-0.614-1.58,0.705l-31.8-36.4s-1.93-1.93,0.175-3.16z" fill="#e8e8e8"/><path stroke="#0c0c0c" d="m36.1,132,19-10.9s2.28-1.4,3.87,0.175l23.4,22.5s1.76,2.11-0.703,3.52l-19.5,12.8s-1.76,1.76-3.34-0.354l-23.2-25c0.001,0.001-2.11-1.76,0.528-2.81z" fill="url(#linearGradient4596)"/><path stroke="#0c0c0c" d="m77.7,81.5s0.878-1.76,2.46-0.878l69.9,56.6s-1.32,0.569-2.29,1.93l-70.1-57.6z" fill="#282828"/><path stroke="#0c0c0c" d="m72.3,70.3,12.1-63.3s0.152-7.21,6.33-2.81l112,66.1s5.98,3.16-1.05,11.8l-35.5,64.5s-0.879,1.4-3.16,2.11l-91-74.5c0-0.001-0.001-1.93,0.703-3.87z" fill="#282828"/><path stroke="#0c0c0c" d="m76.2,69,12-58s0.614-2.55,2.99-0.878l102,61.9s4.83,2.64,1.93,7.73l-30.6,57.5s-1.4,4.74-4.39,1.4l-81.2-65s-3.52-2.46-2.64-4.57z" fill="url(#linearGradient4590)"/><path stroke="#0c0c0c" d="m44.7,96.4,27.2-14.1s1.93-1.05,4.22,1.23l68.9,56.9s3.34,2.28-0.703,5.27l-26.2,20.2s-2.46,2.28-6.15-1.58l-67.8-64.7s-2.64-1.93,0.528-3.34z" fill="#808080"/><path d="m194,79.6-1.92,3.92-28.4,53.2s-1.39,4.7-4.34,1.4l-80.3-64.5s-3.69-2.52-2.69-4.86,75.9,59.2,118,10.8z" fill="url(#linearGradient4853)"/></g><path opacity="0.5" d="m44.8,17.1c-3.9,0.22-4.96,3.91-5.25,5.84-0.111,0.505-0.173,0.971-0.0938,1.16l-1.47,102,0.0312,0.0312-0.281,20.9c0.329,5.58,3.69,7.66,3.69,7.66l42.2,23.2-24.6,12.2s-3.44,1.45-3.72,4.16c-1.99,6.22,5.16,9.38,8.59,12.1,3.7,2.96,9.42,6.51,13.2,8.88,0,0,11.1,8.16,19.7,5.56,0.0117-0.00099,0.0194,0.001,0.0312,0,0.0308-0.009,0.0631-0.0217,0.0938-0.0312,3.11-0.372,9.34-5.03,9.34-5.03l18.1-14.3,0.75-0.719-2.75-1.41,0.0937-0.0625-39-21.2,0.219-0.219,84.9,46.7c0.399,0.167,0.774,0.259,1.12,0.281,0.0417,0.0125,0.082,0.0203,0.125,0.0312,0,0,4.01,1.04,5.16-8.69l25.1-151c1.32-7.56-3.94-8.53-3.94-8.53l-142-37.5c-3.94-0.821-7.97-1.62-7.97-1.62-0.4-0.0411-0.773-0.0511-1.12-0.0312zm56.5,199c-1.04,1.04-4.29,2.82-5.31,3.38-0.73,0.115-1.38,0.219-1.38,0.219-0.556-0.0898-1.05-0.155-1.5-0.25,0.248,0.0343,0.506,0.0686,0.75,0.0937,2.17,0.225,5.56-2.14,7.44-3.44z" transform="matrix(0.40578157,0,0,0.45668192,16.230829,5.361831)" filter="url(#filter4101-8)" stroke-miterlimit="4" stroke-width="0" fill="#000"/><path d="m52.19,100.8c-0.9027-0.164-1.371-0.3192-2.232-0.7037-0.8364-0.3742-1.888-1.165-2.667-1.715-3.151-2.232-5.714-3.994-8.902-6.431-2.497-1.892-2.108-3.132-2.108-3.132-1.048,3.001,2,4.483,3.433,5.778,1.499,1.351,3.822,2.968,5.341,4.05,0,0,4.513,3.77,8.033,2.53,3.524-1.24-0.8985-0.3658-0.8985-0.3658z" stroke="#0c0c0c" stroke-width="0.43048009" fill="#9e9e9e"/><path d="m64.74,91.92-1.192-0.6757-8.447,7.829c-0.4886,0.5499-2.447,1.734-2.447,1.734,0.5341,1.277,4.43-2.027,4.43-2.027l7.329-6.524,0.3002-0.3374z" stroke="#0c0c0c" stroke-width="0.43048009" fill="#727272"/><path d="m29.79,11.46s0.03366-3.486,2.633-3.187c2.6,0.2982,1.631,0.3751,3.234,0.7503l57.55,17.15s2.132,0.4497,1.598,3.9l-10.46,70.33s-0.5838,3.392-2.331,2.568l-51.76-31.96s-1.366-0.9367-1.499-3.486l0.6998-55.92z" stroke="#0c0c0c" stroke-width="0.43048009" fill="#d8d8d8"/><path d="m94.55,27.14s-2-1.351-3.097,2.251l-9.606,69.9s-0.5673,3.281,0.9979,3.733,1.631,0.4846,2.099-3.956l10.19-68.97c-0.000406,0,0.2-2.586-0.6004-2.926z" stroke="#0c0c0c" stroke-width="0.43048009" fill="#9e9e9e"/><path d="m47.76,81.66-10.06,5.639s-3.172,1.473-0.388,4.171c0.5631,0.5452,8.82,7.223,11.8,8.621,0.8447,0.3966,1.838,0.6804,2.749,0.7876,0.882,0.1025,2.252-0.9739,3.014-1.566l8.53-7.829-15.82-9.646" stroke="#0c0c0c" stroke-width="0.43048009" fill="#c6c6c6"/><path d="m30.12,9.839s-0.4265,1.361-0.325,1.622l-0.6004,46.51,53.83,31.04,7.909-57.78s0.0501-1.123,0.1665-1.836l-60.88-19.53z" stroke="#0c0c0c" stroke-width="0.43048009" fill="#282828"/><polygon transform="matrix(0.40578157,0,0,0.45668192,28.909818,8.0260617)" stroke="#0c0c0c" points="146,52.8,7.15,11.8,4.69,104,129,164" fill="url(#linearGradient4014-1)"/><path d="M87.1,38.98,81.3,83.06,31.03,55.1s48.45,13.19,55.9-16.22z" fill="url(#linearGradient3154)"/><path d="m91.24,54.64-6.501,44.64c-0.6998,4.329-1.95,3.826-1.95,3.826-1.449-0.8621-0.7495-3.602-0.7495-3.602l0.9482-7.037c0.000401,0,1.838-0.5825,8.24-37.84z" fill="#7f7f7f"/><g transform="matrix(0.43942932,0,0,0.43942932,61.429346,122.74658)"><path opacity="0.5" d="m75.9,214c-5.89-3.15-6.52-5.34-7.13-24.9-0.302-9.63-0.23-47.2,0.159-83.5l0.707-66,3.53-3.26c15.2-14,11.8-13.1,49.1-13.1,20.1,0,31.4,0.353,33.2,1.03,1.51,0.568,4.31,2.56,6.23,4.42l3.49,3.39-0.12,38.2c-0.0658,21-0.38,58.5-0.697,83.4-0.671,52.6,0.624,46.8-12.6,56.3l-8.18,5.88h-32.2c-29.7,0-32.5-0.138-35.5-1.73z" fill-rule="evenodd" filter="url(#filter4318)" stroke-miterlimit="4" stroke-width="0" fill="#000"/><path stroke="#494848" stroke-width="1.86454809" d="m56.7,161v24c0,8.27,7.62,15,17,15h65.9c9.39,0,17-6.71,17-15v-26.9h-99.9v2.87z" fill="#707070"/><path stroke="#494848" stroke-width="1.86454809" d="m157,27.8c0-8.55-6.71-15.5-15-15.5h-58.2c-8.29,0-15,6.93-15,15.5v128h88.2v-128z" fill="#8e8e8e"/><path stroke="#494848" stroke-width="1.86454809" d="m56.8,194c0,8.27,6.72,15,15,15h58.2c8.29,0,14.3-6.87,15-15v-26.8h-88.2v26.8zm44.1-15.1c5.09,0,9.22,4.15,9.22,9.25s-4.13,9.24-9.22,9.24c-5.11,0-9.25-4.13-9.25-9.24s4.14-9.25,9.25-9.25z" fill="#b7b6b6"/><path stroke="#494848" stroke-width="1.86454809" d="m145,36.5c0-8.29-6.71-15-15-15h-58.2c-8.29,0-15,6.71-15,15v124h88.2v-124zm-12.1,10.9c0,1.58-1.31,2.86-2.89,2.86h-58.2c-1.59,0-2.87-1.28-2.87-2.86v-9.62c0-1.58,1.28-2.87,2.87-2.87h58.2c1.57,0,2.89,1.3,2.89,2.87v9.62z" fill="#b7b6b6"/><path stroke="#494848" stroke-width="1.86454809" d="m60.2,26.9c0.0037-0.0028,11.9-10,11.9-10s5.59-5.23,14.5-4.88c1.61,0,3.23,0,4.84-0.000932,3.94-0.0047,7.87,0,11.8-0.000932,4.96-0.000933,9.92-0.0047,14.9,0,4.68,0.0047,9.36-0.0168,14,0.0028,3.26,0.013,6.52-0.13,9.77,0.0466,2.41,0.131,4.17,1.01,6.1,1.92,2.01,0.943,5.17,4.24,5.17,4.24l-11.2,9.31s-4.08-5.94-10.6-5.77c-1.72-0.0103-3.45-0.0252-5.17-0.0308-4.22-0.0112-8.43-0.0401-12.6-0.0783-5.29-0.0485-10.6-0.083-15.9-0.0886-4.9-0.0056-9.8-0.0103-14.7-0.103-3.31-0.0625-6.6-0.143-10.1,0.0708-2.07,0.127-4.27-0.0298-6.18,0.764-2.3,0.946-4.65,3-6.57,4.61z" fill="#b2b2b2"/><path stroke="#494848" stroke-width="1.86454809" d="m145,165c0.0102,2.67-0.0112,7.17,0,9.85,0.0159,3.38-0.144,6.47-0.133,9.85,0.005,1.43,0.0662,3.3,0.0662,4.72,0,11.4-6.39,16.3-6.39,16.3l10.5-7.28c8.87-6.74,8.16-13.3,8.16-13.3l-0.27-161s-0.532-4.08-3.19-6.74l-11.4,9.31s1.06,1.73,1.46,2.66c0.676,1.54,0.903,2.55,1.29,4.43,0.543,2.65,0.324,5.56,0.355,8.25,0.0503,4.47-0.247,8.99-0.245,13.5,0.005,6.11,0.0504,12.2,0.0662,18.3,0.0205,7.02-0.0969,14.1-0.0662,21.1,0.0354,7.33,0.177,14.6,0.2,21.9,0.0242,7.16-0.0858,14.3-0.0671,21.4,0.0196,6.6-0.0214,13.5,0,20.1,0.003,0.351,0.0671,0.514,0.0671,0.865" fill="#6b6a6a"/><line y2="147" x1="145" y1="160" stroke="#494848" x2="157" stroke-width="1.86" fill="#353434"/><line y2="154" x1="145" y1="167" stroke="#494848" x2="157" stroke-width="1.86" fill="#353434"/><line y2="167" x1="145" y1="159" stroke="#494848" x2="145" stroke-width="1.86" fill="#8e8e8e"/><path d="m70.5,160s73.5,0.0671,73.5,0.0671l-0.237-90.9c-7.83,83.7-73.3,90.8-73.3,90.8z" fill="#999"/><path d="m80.7,208h48.1c10.6,0.646,15.1-7.36,15.1-15l-0.0764-21.2c-5.35,37.3-63.1,36.2-63.1,36.2z" fill="#999"/><circle d="m 31.049999,64.300003 c 0,4.777263 -3.872737,8.65 -8.649999,8.65 -4.777263,0 -8.65,-3.872737 -8.65,-8.65 0,-4.777263 3.872737,-8.65 8.65,-8.65 4.777262,0 8.649999,3.872737 8.649999,8.65 z" transform="matrix(0.93227407,0,0,0.93227407,55.796178,11.065611)" cy="64.3" cx="22.4" r="8.65" fill="#e50a39"/><circle d="m 71.080001,66.800003 c 0,2.30855 -1.871449,4.18 -4.179999,4.18 -2.308551,0 -4.18,-1.87145 -4.18,-4.18 0,-2.30855 1.871449,-4.18 4.18,-4.18 2.30855,0 4.179999,1.87145 4.179999,4.18 z" transform="matrix(0.93227407,0,0,0.93227407,55.796178,11.065611)" cy="66.8" cx="66.9" r="4.18" fill="#e50a39"/><circle d="m 59.279998,66.900002 c 0,2.30855 -1.871449,4.179999 -4.18,4.179999 -2.30855,0 -4.179999,-1.871449 -4.179999,-4.179999 0,-2.308551 1.871449,-4.18 4.179999,-4.18 2.308551,0 4.18,1.871449 4.18,4.18 z" transform="matrix(0.93227407,0,0,0.93227407,55.796178,11.065611)" cy="66.9" cx="55.1" r="4.18" fill="#ffb509"/><circle d="m 47.380001,66.900002 c 0,2.30855 -1.87145,4.179999 -4.18,4.179999 -2.30855,0 -4.18,-1.871449 -4.18,-4.179999 0,-2.308551 1.87145,-4.18 4.18,-4.18 2.30855,0 4.18,1.871449 4.18,4.18 z" transform="matrix(0.93227407,0,0,0.93227407,55.796178,11.065611)" cy="66.9" cx="43.2" r="4.18" fill="#96c93c"/></g><path stroke="#88471a" stroke-width="1.24070585" d="m116,113c0-1.49,1.21-2.7,2.7-2.7h35.6c1.49,0,2.69,1.21,2.69,2.7s-1.21,2.69-2.69,2.69h-35.6c-1.49,0-2.7-1.21-2.7-2.69z" fill="#d97b3b"/><path stroke="#88471a" stroke-width="1.24070585" d="m61.2,114c0-1.49,1.21-2.69,2.69-2.69h35.6c1.49,0,2.7,1.21,2.7,2.69,0,1.49-1.21,2.7-2.7,2.7h-35.6c-1.49-0.00051-2.69-1.21-2.69-2.7z" fill="#d97b3b"/><path stroke="#88471a" stroke-width="1.24070585" d="m112,129s0.454-9.21,1.15-9.67c1.79-1.2,2.97-3.24,2.97-5.55,0-3.69-3-6.69-6.69-6.69-3.68,0-6.67,3-6.67,6.68,0,1.79,0.687,3.47,1.96,4.74,0.381,0.378,0.801,0.707,1.25,0.979,0.64,0.389,1.02,9.58,1.02,9.58,2.01,1.25,5.01-0.0701,5.01-0.0701z" fill="#d97b3b"/><path d="m112,109c1.58,1.07,2.61,2.87,2.61,4.92,0,3.28-2.66,5.93-5.93,5.93-1.23,0-2.37-0.375-3.32-1.01-1.58-1.07-2.61-2.87-2.61-4.92,0-3.28,2.66-5.93,5.93-5.93,1.23,0.001,2.37,0.373,3.32,1.01z" fill="url(#radialGradient3405)"/></svg>
