<?xml version="1.0" encoding="UTF-8" standalone="no"?>
<!-- Generator: Adobe Illustrator 13.0.2, SVG Export Plug-In  -->
<svg xmlns:rdf="http://www.w3.org/1999/02/22-rdf-syntax-ns#" xmlns="http://www.w3.org/2000/svg" version="1.1" xml:space="preserve" height="219" width="219" enable-background="new -0.633 -0.046 188 207" y="0px" x="0px" xmlns:cc="http://creativecommons.org/ns#" xmlns:xlink="http://www.w3.org/1999/xlink" viewBox="-0.633 -0.046 219 219" xmlns:dc="http://purl.org/dc/elements/1.1/"><metadata><rdf:RDF><cc:Work rdf:about=""><dc:format>image/svg+xml</dc:format><dc:type rdf:resource="http://purl.org/dc/dcmitype/StillImage"/><dc:title/></cc:Work></rdf:RDF></metadata><defs><filter id="filter4069"><feGaussianBlur stdDeviation="1.8275264"/></filter><filter id="filter4079-8" color-interpolation-filters="sRGB"><feGaussianBlur stdDeviation="1.3451605"/></filter><radialGradient id="radialGradient3063" gradientUnits="userSpaceOnUse" cy="104" cx="-122" r="62.3"><stop stop-color="#f9f9f9" offset="0"/><stop stop-color="#f9f9f9" stop-opacity="0" offset="1"/></radialGradient><filter id="filter3914"><feGaussianBlur stdDeviation="1.6389349"/></filter></defs><path opacity="0.5" d="m23.6,204c-5.09-1.84-9.07-5.95-10.4-10.7-0.527-1.92-0.66-22.3-0.533-81.6,0.166-77.2,0.198-79.1,1.34-81.4,1.71-3.44,5.32-6.66,9.04-8.05,3.17-1.19,4.39-1.22,44.2-1.19l41,0.0328,26.5,17.4,26.5,17.4-0.0946,67.5c-0.0871,62.2-0.176,67.8-1.12,70.6-1.17,3.54-4.64,7.36-8.33,9.18-2.33,1.15-3.92,1.18-64.4,1.29-43.4,0.0743-62.6-0.0886-63.8-0.541z" fill-rule="evenodd" filter="url(#filter4069)" stroke-miterlimit="4" stroke-width="0" fill="#000"/><path d="M18.6,10.5c-9.13,0-16.5,7.4-16.5,16.5v151c0,9.13,7.41,16.5,16.5,16.5h116c9.13,0,16.5-7.41,16.5-16.5l0.5-132-53.87-35.5s-53.09-0.0028-79.13-0.0028z" stroke="#b5b5b5" stroke-width="3" fill="#f2f2f2"/><path d="M150.9,48.6h-36.87c-9.931,0-17.93-9.72-17.93-21.66v-15.08" stroke="#b5b5b5" stroke-width="3.14737892" fill="#f2f2f2"/><line stroke-width="5" x1="32" y1="102" stroke="#231f20" x2="119" y2="102" fill="#919191"/><line stroke-width="5" x1="31.8" y1="125" stroke="#231f20" x2="119" y2="126" fill="#919191"/><line stroke-width="5" x1="31.6" y1="150" stroke="#231f20" x2="119" y2="150" fill="#919191"/><line stroke-width="5" x1="31.5" y1="173" stroke="#231f20" x2="119" y2="174" fill="#919191"/><line stroke-width="5" x1="31" y1="57.3" stroke="#231f20" x2="118" y2="57.7" fill="#919191"/><line stroke-width="5" x1="30.9" y1="79.7" stroke="#231f20" x2="118" y2="80.1" fill="#919191"/><path d="m214.4,145.2c0,39.02-31.69,70.7-70.7,70.7-39.02,0-70.7-31.69-70.7-70.7,0-39.02,31.69-70.7,70.7-70.7,39.02,0,70.7,31.69,70.7,70.7z" stroke="#55b9df" stroke-width="1.13592982" fill="#79bde8"/><path fill="#4d4d4d" d="m126.7,128.7s0.5945-0.1672,0.7752-1.538c0,0,0.0863-0.9455,0.6007-0.8588,0,0,0-1.538-1.889-1.373,0,0-0.5925-0.1703-0.5925,0.7679,0,0-0.1734,1.208-0.8608,1.026,0,0-0.353,0.6864-0.5945,1.029,0,0-0.5151,0.6864,0.5089,0.6864,0,0,1.724-0.257,1.879,0,0.1714,0.256-0.1652-0.257-0.1652-0.257"/><path fill="#4d4d4d" d="m130.8,120.4s-2.24,1.806-2.24,2.312c0,0-1.455,1.466-0.4304,1.466,0,0,1.125-0.6864,1.03,0.1672-0.084,0.8484-0.084,0.3324-0.084,0.3324s-0.2508,0.4304-0.3437,1.28c0,0,0.9382,1.031,1.115,0.4294,0,0-0.1703,0.899-0.2343,1.094-0.0624,0.191,0.0636-0.1961,0.0636-0.1961s-1.414,0.128-1.538,0.7081c0,0,0.2033,0.7081,0.2591,1.156,0,0,0.7721,0.32,0.64,0.579,0,0,0.384,0.6348-0.3736,0.6348,0,0-2.126,0.193-2.188,0.512,0,0,1.868-0.0579,2.116,0.1961,0,0,2.58,0.3829,2.89,0.1951,0,0,0.7029,0.4459,0.8288-0.258,0,0,0.1383-1.094,0.64-1.218,0,0-0.1878-1.414-0.6957-1.414,0,0-0.384-1.404-0.7112-1.858,0,0,0.3912-2.312-0.5161-1.796,0,0-0.704-0.5749,0.4521-1.28,0,0,1.115-1.59-0.7039-0.9382-0.0761,0.0306-0.1631,0.067-0.258,0.101,0,0-0.4459-0.5739,0.704-1.342,0.001-0.001,1.073-0.6885-0.4211-0.8608z"/><path fill="#4d4d4d" d="m137,118.4s0,3.468,0.2591,3.716c0.2673,0.2601,0.2673,0.2601,0.2673,0.2601s0.5068-0.1332,0.2488,0.64c0,0,2.436-0.7731,2.818-2.044,0.3912-1.28-0.3829,1.27-0.3829,1.27s0.6482,0.3912,0.6482,1.796c0,1.414,1.548,2.818,2.694,0,0,0,1.538-3.334,1.92-2.436,0.3984,0.8908-0.7576-3.592-1.414-2.952-0.641,0.6379,2.322-0.7679,2.58-1.796,0.258-1.03,0.7679-3.076,1.146-2.188,0.3984,0.9021,0.5161,1.806-0.2446,2.436-0.7721,0.641-1.414,2.57,0,2.436,1.414-0.1249,1.146,0.3829,1.025,1.28-0.1321,0.9011,2.054-0.513,2.828-1.28,0.7648-0.7669,1.538-1.28,1.796-0.7669,0.2498,0.5068,1.538-0.3881,1.538-1.29,0-0.898-0.5161-1.662-0.7648-2.436-0.2601-0.7731-2.322-1.796-1.29-1.796,1.03,0,1.538,0.128,2.57-0.1228,1.03-0.2601,0.9052-2.436-1.806-2.952-2.694-0.5161-3.076-1.662-2.694-0.5161,0.3912,1.156-2.178-0.1342-2.56-1.146-0.3984-1.03-1.94,1.404-2.715,2.426-0.7576,1.032-0.641,1.29-2.302,2.064-1.672,0.77-1.156,2.312-1.156,3.076,0,0.7721-0.3922,0.64-1.806,0.64-1.404,0-1.796,0.6482-2.312,1.025-0.4985,0.3943-0.897,0.6462-0.897,0.6462z"/><path fill="#4d4d4d" d="m126.7,132.8c5.12,5.109-4.882,5.233-6.75,6.926-3.324,7.566,8.753,10.09,9.95,2.343,5.636-6.203,12.8,0.4108,14.76,5.481,4.438-2.529-2.673-5.243-1.342-8.103,3.881,1.003,8.185,13.62,9.775,4.315,1.848,1.744,3.675,4.397,2.353,0.0348-1.806-5.264,3.251-9.496,7.814-8.639,4.511,2.353,2.302,7.669-2.57,5.78-6.565,1.352-0.1713,12.59,2.673,6.596,2.715-2.519,0.1146,7.824-3.943,6.08-5.563-1.362-10.43,1.146-15.48,1.848-5.852-2.746-8.041-9.795-15.79-7.339-10.17-0.1899-21.06,6.513-22.5,17.13-2.436,7.483,2.973,16.21,10.84,17.03,6.049,2.415,17.44-1.404,18.58,7.845,0.8423,5.367,5.883,9.238,3.953,14.76,1.889,7.339,9.579,12.59,16.93,7.948,7.731-1.61,12.28-10.14,16.62-14.86-2.632-6.885,2.859-11.56,7.029-15.79,2.756-3.055,5.563-12.9-1.548-8.908-6.42-1.031-9.857-7.504-14.76-11.15-2.56-3.303-0.8443-7.772,2.539-2.993,4.831,3.819,10.23,16.21,17.13,8.381,4.985-2.859,8.454-17.44-0.866-12.7-5.14,3.571-4.573-9.475-0.7989-2.931,5.46,1.28,13.42-7.834,18.99-0.9568,1.259,1.486,3.829,11.46,5.151,6.74-0.2869-7.019,2.26-17.24,2.312-22.19,3.334,4.552,9.176,2.075,5.976-3.53-4.036-18.99-15.17-37.36-32.41-47.07-6.72,3.881-12.7-4.789-19.4-5.615-4.129-2.033-8.804-3.736-13.42-2.704,7.019,1.579,14.14,6.317,16.72,13.21,0.4108,3.819-1.579,2.126-3.148,1.775-5.409,4.81,4.779,8.701,5.388,12.8-3.024-1.239-6.152,0.4841-7.7,1.249-1.259-2.384-3.117-10.08-4.438-3.241,1.321,5.058,5.625,10.13,0.1837,14.55-3.272,4.366-9.744,13.52-15.28,9.733-1.672-3.675-3.933,5.543-7.752,5.13-1.775,0.7648-3.726,1.146-5.667,1.073z"/><path fill="#4d4d4d" d="m141.1,74.62c-20.54,0.05574-40.15,11.04-52.64,27.04-2.137,2.653-4.118,5.419-5.945,8.299,1.486,3.695,5.883-0.1208,8.361,1.817,1.61,1.827,5.543,4.315,6.637,0.673,0.5749-3.138-3.447-3.891-3.85-6.503,1.311-3.055,5.532,1.115,4.707,3.52-1.053,2.137-0.672,7.638,2.725,6.317,1.631-1.961-0.4593-4.542-0.3282-6.781,0.1889-2.859,3.344-3.871,5.574-4.841,2.137-0.768,4.552-2.715,3.912-5.254-1.342-3.169-5.13-1.868-6.689,0.2157-1.951,0.7628-1.848-1.228-0.2653-1.538,2.467-1.713,1.848-5.842,4.913-6.947,2.519-0.05316,4.717,3.365,7.184,1.682,1.135-1.775,1.765-4.118,3.964-4.975,2.9-1.6,6.575,0.04263,9.341-1.858,0.3231-2.095-0.3458-5.367,2.777-6.007,3.117-0.737,6.482-0.0288,9.517-1.311,2.178-0.1135,2.477-3.85,0.0789-3.582z"/><path fill="#4d4d4d" d="m112.2,107s0.641,1.028,0.641,1.93c0,0.898,1.301-3.458,5.151-2.942,3.85,0.5078,5.006,2.044,6.812,0.5078s0.3933,0.3871,3.85-2.684c3.478-3.076,1.548,1.404,4.5-3.076,2.962-4.49,1.796-4.872,3.86-5.006,2.054-0.129,3.2-1.538,1.024-1.662-2.178-0.1321,0.2591-1.156,1.032-1.796,0.7659-0.642,1.017-0.8959-1.156-0.77-2.178,0.128-1.156,2.942-0.898-0.1259,0.2498-3.076,1.28-1.92-1.672-2.57-2.962-0.641-2.457-5.77-5.522-2.56-3.097,3.21-6.812,3.716-3.097,4.614,3.736,0.899,8.619,0.2591,2.57,2.312-6.038,2.044-6.172,3.974-6.554,4.748-0.3891,0.7659,0.7762-1.404-3.592,2.054-4.376,3.458-2.322,3.592-4.758,4.996-2.446,1.404-2.188,2.054-2.188,2.054z"/><path fill="#4d4d4d" d="m123.6,110.1c0.6172-0.16,1.796-1.156,2.178,0.2488,0.3819,1.414,2.436,1.28,1.538,2.312-0.897,1.03-1.414,1.796-2.436,1.03-1.032-0.77-1.93-0.64-1.682-1.538,0.2663-0.9011-0.1249-1.93,0.3994-2.044z"/><path fill="#4d4d4d" d="m142.2,99.6c0.1177,0.8908,0.1177,0,0.5089,1.404,0.3747,1.404,1.404,1.796,2.044,0.641,0.642-1.156,1.156-0.77,0.9062-2.044-0.2642-1.29-1.796-0.7752-2.694-0.3953-0.899,0.3953-0.899,0.3953-0.899,0.3953"/><path fill="#4d4d4d" d="m175.2,203c0.61-0.1713-1.548-0.8918,1.28-2.684,2.828-1.786,1.156,0.642,3.344-2.684,2.178-3.334,3.334-7.576,2.818-3.984-0.5182,3.592,1.92,2.694-1.146,5.904-3.086,3.2-2.064,3.85-3.86,4.882-1.806,1.021-1.662,2.302-2.694,1.146-1.032-1.146-0.642-2.302,0.257-2.56z"/><path fill="#4d4d4d" d="m73.12,141.1c-0.2002,13.11,1.6,26.63,7.855,38.4,1.301,2.312,2.838,4.5,4.624,6.461,0.9981-1.332,3.726-2.178,2.9-4.253-0.7483-2.064-1.073-4.459-2.859-5.956-1.59-1.218-0.8815-3.654-2.199-5.089-1.301-1.156-3.509-0.5811-4.624-2.095-0.9754-1.672,0.1342-3.582,0.3241-5.326,0.3355-1.848-0.7968-3.489-1.342-5.182-1.218-2.962-2.446-5.966-2.931-9.155-0.6544-2.374-1.073-4.913-0.4263-7.328-0.07349-0.5605-0.9961-1.125-1.321-0.4314z"/><path opacity="0.67672412" d="m-60.8,104c1.04,33.2-30.1,63.5-63.4,61.2-29.4-0.784-56.6-25.3-58.7-55-2.77-25.8,12.5-52.9,36.9-62.6,23.1-9.96,52.3-4.28,68.9,14.9,10.2,11.2,16.5,26.2,16.2,41.4z" fill-rule="evenodd" transform="matrix(0.41071665,0,0,0.41071665,164.18969,58.336135)" filter="url(#filter4079-8)" stroke-miterlimit="4" stroke-width="0" fill="url(#radialGradient3063)"/><path d="m-148,152c-7.86-1.34-15.4-4.28-22.2-8.46,21.6,5.32,46.4,0.85,62.3-15.4,18.8-18.2,24.9-48.8,13-72.4,1.62-2.99,5.13,5.04,6.71,6.72,15.3,23.8,10,58.3-11.9,76.2-13.1,11-31.1,16.2-48,13.4z" fill-rule="evenodd" fill-opacity="0.50196078" transform="matrix(1.227342,0,0,1.1359298,312.63073,42.134265)" filter="url(#filter3914)" stroke-miterlimit="4" fill="#505050"/></svg>
