<?xml version="1.0" encoding="UTF-8" standalone="no"?>
<!-- Generator: Adobe Illustrator 13.0.2, SVG Export Plug-In  -->

<svg
   xmlns:dc="http://purl.org/dc/elements/1.1/"
   xmlns:cc="http://creativecommons.org/ns#"
   xmlns:rdf="http://www.w3.org/1999/02/22-rdf-syntax-ns#"
   xmlns:svg="http://www.w3.org/2000/svg"
   xmlns="http://www.w3.org/2000/svg"
   xmlns:sodipodi="http://sodipodi.sourceforge.net/DTD/sodipodi-0.dtd"
   xmlns:inkscape="http://www.inkscape.org/namespaces/inkscape"
   version="1.1"
   x="0px"
   y="0px"
   width="219px"
   height="219px"
   viewBox="21.152 45.375 219 219"
   enable-background="new 21.152 45.375 219 219"
   xml:space="preserve"
   id="svg2"
   inkscape:version="0.47 r22583"
   sodipodi:docname="Phase.svg"><metadata
   id="metadata281"><rdf:RDF><cc:Work
       rdf:about=""><dc:format>image/svg+xml</dc:format><dc:type
         rdf:resource="http://purl.org/dc/dcmitype/StillImage" /></cc:Work></rdf:RDF></metadata><sodipodi:namedview
   pagecolor="#ffffff"
   bordercolor="#666666"
   borderopacity="1"
   objecttolerance="10"
   gridtolerance="10"
   guidetolerance="10"
   inkscape:pageopacity="0"
   inkscape:pageshadow="2"
   inkscape:window-width="640"
   inkscape:window-height="480"
   id="namedview279"
   showgrid="false"
   inkscape:zoom="1.0776256"
   inkscape:cx="-35.262712"
   inkscape:cy="109.5"
   inkscape:current-layer="svg2" />
<defs
   id="defs4" />
<filter
   id="AI_GaussianBlur_2.2">
	<feGaussianBlur
   stdDeviation="2.2150394"
   id="feGaussianBlur240" />
</filter>
<filter
   id="AI_GaussianBlur_2">
	<feGaussianBlur
   stdDeviation="2"
   id="feGaussianBlur243" />
</filter>





<g
   opacity="0.5"
   filter="url(#AI_GaussianBlur_2.2)"
   id="g263"
   style="fill:#000000;fill-opacity:1;filter:url(#AI_GaussianBlur_2.2)">
	<path
   d="M214.59,132.708c-32.365-39.49-90.011-48.72-133.327-19.733c-23.496,15.723-38.202,39.654-42.897,65.438   c6.279-13.261,16.099-25.043,29.179-33.797c35.135-23.511,81.564-17.002,109.063,13.509l-11.42,7.642l66.189,32.584l-4.877-73.614   L214.59,132.708L214.59,132.708z"
   id="path265"
   style="fill:#000000;fill-opacity:1" />
</g>
<path
   fill="#D59F0F"
   stroke="#333333"
   stroke-width="2"
   d="M208.812,125.057c-32.364-39.49-90.011-48.72-133.326-19.732  c-23.497,15.723-38.203,39.654-42.898,65.439c6.279-13.262,16.099-25.043,29.179-33.797c35.135-23.511,81.565-17.002,109.064,13.509  l-11.421,7.642l66.189,32.583l-4.877-73.613L208.812,125.057L208.812,125.057z"
   id="path267" />

</svg>