<?xml version="1.0" encoding="UTF-8" standalone="no"?>

<svg
 xmlns:dc="http://purl.org/dc/elements/1.1/"
   xmlns:cc="http://creativecommons.org/ns#"
   xmlns:rdf="http://www.w3.org/1999/02/22-rdf-syntax-ns#"
   xmlns:svg="http://www.w3.org/2000/svg"
   xmlns="http://www.w3.org/2000/svg"
   xmlns:xlink="http://www.w3.org/1999/xlink"
   xmlns:sodipodi="http://sodipodi.sourceforge.net/DTD/sodipodi-0.dtd"
   xmlns:inkscape="http://www.inkscape.org/namespaces/inkscape"
   id="svg2"
   version="1.1"
   inkscape:version="0.47 r22583"
   width="100"
   height="100"
   sodipodi:docname="picture.svg">
  <metadata
     id="metadata54">
    <rdf:RDF>
      <cc:Work
         rdf:about="">
        <dc:format>image/svg+xml</dc:format>
        <dc:type
           rdf:resource="http://purl.org/dc/dcmitype/StillImage" />
      </cc:Work>
    </rdf:RDF>
  </metadata>
  <defs
     id="defs52">
    <linearGradient
       inkscape:collect="always"
       id="linearGradient3634">
      <stop
         style="stop-color:#c0e0ff;stop-opacity:1;"
         offset="0"
         id="stop3636" />
      <stop
         style="stop-color:#c0e0ff;stop-opacity:0;"
         offset="1"
         id="stop3638" />
    </linearGradient>
    <inkscape:perspective
       sodipodi:type="inkscape:persp3d"
       inkscape:vp_x="0 : 0.5 : 1"
       inkscape:vp_y="0 : 1000 : 0"
       inkscape:vp_z="1 : 0.5 : 1"
       inkscape:persp3d-origin="0.5 : 0.33333333 : 1"
       id="perspective56" />
    <linearGradient
       inkscape:collect="always"
       xlink:href="#linearGradient3634"
       id="linearGradient3640"
       x1="101.562"
       y1="496.09399"
       x2="906.25"
       y2="496.09399"
       gradientUnits="userSpaceOnUse" />
  </defs>
  <sodipodi:namedview
     pagecolor="#ffffff"
     bordercolor="#666666"
     borderopacity="1"
     objecttolerance="10"
     gridtolerance="10"
     guidetolerance="10"
     inkscape:pageopacity="0"
     inkscape:pageshadow="2"
     inkscape:window-width="1280"
     inkscape:window-height="1002"
     id="namedview50"
     showgrid="false"
     inkscape:zoom="0.44851479"
     inkscape:cx="441.94154"
     inkscape:cy="566.98526"
     inkscape:window-x="1272"
     inkscape:window-y="-8"
     inkscape:window-maximized="1"
     inkscape:current-layer="svg2" />
  <title
     id="title4">Symbol library: picture.svg</title>
  <polygon
     points="1007.81,0 1007.81,1007.81 1007.81,1007.81 0,1007.81 0,0 "
     style="fill:#ffffff;fill-opacity:0;stroke:none"
     id="polygon6"
     transform="scale(0.09922505,0.09922505)" />
  <polygon
     points="992.188,984.375 992.188,78.5124 976.433,31.25 39.0625,31.25 39.0625,952.867 109.956,984.375 109.956,984.375 "
     style="fill:#999999;fill-opacity:1;stroke:none"
     id="polygon8"
     transform="scale(0.09922505,0.09922505)" />
  <polygon
     points="968.75,31.25 39.0625,31.25 39.0625,960.938 54.8199,960.938 54.8199,960.938 968.75,960.938 "
     style="fill:#000000;fill-opacity:1;stroke:none"
     id="polygon10"
     transform="scale(0.09922505,0.09922505)" />
  <polygon
     points="953.125,945.313 54.6875,945.313 54.6875,945.313 54.6875,46.875 953.125,46.875 "
     style="fill:#ffffff;fill-opacity:1;stroke:none"
     id="polygon12"
     transform="scale(0.09922505,0.09922505)" />
  <polygon
     points="921.875,78.125 93.75,78.125 93.75,914.063 101.636,914.063 101.636,914.063 921.875,914.063 "
     style="fill:#000000;fill-opacity:1;stroke:none"
     id="polygon14"
     transform="scale(0.09922505,0.09922505)" />
  <polygon
     points="906.25,898.438 101.562,898.438 101.562,898.438 101.562,93.75 906.25,93.75 "
     style="fill:url(#linearGradient3640);fill-opacity:1;stroke:none"
     id="polygon16"
     transform="scale(0.09922505,0.09922505)" />
  <polygon
     points="243.553,456.322 290.882,464.253 298.771,464.253 314.548,448.39 353.989,408.736 432.873,297.704 472.315,258.049 488.091,242.188 495.98,242.188 527.534,250.118 559.087,265.98 614.305,265.98 653.747,258.049 669.523,258.049 685.301,273.912 732.63,329.427 827.29,456.322 874.621,503.907 898.285,519.769 914.062,519.769 914.062,765.626 914.062,765.626 101.562,765.626 101.562,519.769 141.004,519.769 164.669,503.907 188.334,472.183 204.111,456.322 212,456.322 "
     style="fill:#566e00;fill-opacity:1;stroke:none"
     id="polygon18"
     transform="scale(0.09922505,0.09922505)" />
  <polygon
     points="385.542,531.576 432.873,531.576 464.427,523.601 495.98,515.625 519.645,523.601 559.087,555.502 630.082,627.279 669.523,659.179 693.188,667.154 732.63,667.154 787.848,659.179 811.514,667.154 827.29,675.13 850.955,699.055 874.621,707.031 914.062,707.031 914.062,898.437 101.562,898.437 101.562,707.031 101.562,707.031 141.004,699.055 180.446,659.179 219.888,611.328 259.329,563.476 290.882,539.55 314.548,531.576 353.989,523.601 "
     style="fill:#77aa00;fill-opacity:1;stroke:none"
     id="polygon20"
     transform="scale(0.09922505,0.09922505)" />
  <polygon
     points="385.542,831.473 456.538,797.991 495.98,781.25 519.645,781.25 551.198,781.25 582.752,789.62 630.082,789.62 661.635,789.62 701.076,789.62 756.295,797.991 835.179,839.845 874.621,856.585 914.062,856.585 914.062,898.438 914.062,898.438 101.562,898.438 101.562,856.585 164.669,856.585 188.334,848.215 227.776,839.845 282.994,839.845 322.436,848.215 346.101,839.845 "
     style="fill:#738a0e;fill-opacity:1;stroke:none"
     id="polygon22"
     transform="scale(0.09922505,0.09922505)" />
  <polygon
     points="253.907,463.543 210.938,453.125 219.531,473.959 236.719,484.375 262.5,484.375 296.875,473.959 296.875,473.959 "
     style="fill:#ffffff;fill-opacity:1;stroke:none"
     id="polygon24"
     transform="scale(0.09922505,0.09922505)" />
  <polygon
     points="574.287,290.409 542.489,298.491 510.69,298.491 494.792,298.491 486.842,290.409 478.892,274.246 486.842,250 470.943,266.164 423.246,330.819 343.75,435.885 391.447,403.557 407.347,395.474 423.246,387.392 447.094,395.474 462.994,411.638 478.892,460.13 486.842,476.294 502.741,484.375 518.641,476.294 534.54,460.13 542.489,411.638 550.439,403.557 558.389,395.474 590.187,387.392 614.035,395.474 637.884,411.638 669.682,427.802 685.582,427.802 693.531,427.802 693.531,419.72 693.531,403.557 693.531,379.311 693.531,371.229 701.48,363.147 725.329,379.311 741.229,411.638 765.077,443.966 788.926,460.13 796.875,452.047 796.875,443.966 796.875,427.802 796.875,427.802 741.229,355.064 709.43,314.655 677.632,274.246 669.682,290.409 661.733,298.491 645.834,298.491 629.935,306.574 606.085,298.491 "
     style="fill:#f0f7ff;fill-opacity:1;stroke:none"
     id="polygon26"
     transform="scale(0.09922505,0.09922505)" />
  <polygon
     points="525.671,289.063 559.153,289.063 609.376,269.531 609.376,269.531 575.893,279.298 550.782,269.531 525.671,259.765 508.928,250 492.188,250 492.188,259.765 500.558,289.063 "
     style="fill:#ffffff;fill-opacity:1;stroke:none"
     id="polygon28"
     transform="scale(0.09922505,0.09922505)" />
  <polygon
     points="353.884,582.031 377.956,573.784 410.05,582.031 426.098,598.524 442.145,631.51 450.168,648.003 466.216,656.25 482.263,648.003 490.287,631.51 506.334,598.524 522.381,582.031 546.452,582.031 554.476,573.784 562.5,565.538 562.5,549.045 546.452,532.552 530.405,524.306 506.334,516.059 474.24,507.812 458.192,507.812 426.098,507.812 394.003,507.812 361.909,507.812 337.838,516.059 321.79,516.059 305.744,516.059 289.695,532.552 265.625,557.292 265.625,565.538 265.625,565.538 273.649,565.538 281.672,573.784 273.649,590.278 273.649,598.524 273.649,606.77 281.672,606.77 329.814,590.278 "
     style="fill:#f0f7ff;fill-opacity:1;stroke:none"
     id="polygon30"
     transform="scale(0.09922505,0.09922505)" />
  <polygon
     points="312.5,0 7.8125,0 7.8125,304.688 312.5,0 "
     style="fill:#000000;fill-opacity:1;stroke:none"
     id="polygon32"
     transform="scale(0.09922505,0.09922505)" />
  <polygon
     points="23.4375,273.437 23.4375,15.625 273.438,15.625 23.4375,273.437 "
     style="fill:#fffae3;fill-opacity:1;stroke:none"
     id="polygon34"
     transform="scale(0.09922505,0.09922505)" />
  <polygon
     points="1007.81,304.688 1007.81,0 703.125,0 1007.81,304.688 "
     style="fill:#000000;fill-opacity:1;stroke:none"
     id="polygon36"
     transform="scale(0.09922505,0.09922505)" />
  <polygon
     points="734.375,15.625 992.187,15.625 992.187,273.437 734.375,15.625 "
     style="fill:#fffae3;fill-opacity:1;stroke:none"
     id="polygon38"
     transform="scale(0.09922505,0.09922505)" />
  <polygon
     points="703.125,1000 1007.81,1000 1007.81,695.312 703.125,1000 "
     style="fill:#000000;fill-opacity:1;stroke:none"
     id="polygon40"
     transform="scale(0.09922505,0.09922505)" />
  <polygon
     points="992.187,726.562 992.187,984.374 734.375,984.374 992.187,726.562 "
     style="fill:#fffae3;fill-opacity:1;stroke:none"
     id="polygon42"
     transform="scale(0.09922505,0.09922505)" />
  <polygon
     points="7.8125,695.312 7.8125,1000 312.5,1000 7.8125,695.312 "
     style="fill:#000000;fill-opacity:1;stroke:none"
     id="polygon44"
     transform="scale(0.09922505,0.09922505)" />
  <polygon
     points="273.438,984.374 23.4375,984.374 23.4375,726.562 273.438,984.374 "
     style="fill:#fffae3;fill-opacity:1;stroke:none"
     id="polygon46"
     transform="scale(0.09922505,0.09922505)" />
  <use
     href="#oid1"
     id="use48"
     x="0"
     y="0"
     width="744.09448"
     height="1052.3622"
     transform="translate(0,-907.81)" />
</svg>
