<?xml version="1.0" encoding="UTF-8" standalone="no"?>
<svg
   xmlns:dc="http://purl.org/dc/elements/1.1/"
   xmlns:cc="http://creativecommons.org/ns#"
   xmlns:rdf="http://www.w3.org/1999/02/22-rdf-syntax-ns#"
   xmlns:svg="http://www.w3.org/2000/svg"
   xmlns="http://www.w3.org/2000/svg"
   xmlns:xlink="http://www.w3.org/1999/xlink"
   xmlns:sodipodi="http://sodipodi.sourceforge.net/DTD/sodipodi-0.dtd"
   xmlns:inkscape="http://www.inkscape.org/namespaces/inkscape"
   version="1.1"
   xml:space="preserve"
   height="219"
   viewBox="-0.469 -0.635 219 219"
   width="219"
   enable-background="new -0.469 -0.635 203 200"
   y="0px"
   x="0px"
   id="svg2"
   inkscape:version="0.47 r22583"
   sodipodi:docname="policyrule.svg"><sodipodi:namedview
     pagecolor="#ffffff"
     bordercolor="#666666"
     borderopacity="1"
     objecttolerance="10"
     gridtolerance="10"
     guidetolerance="10"
     inkscape:pageopacity="0"
     inkscape:pageshadow="2"
     inkscape:window-width="1280"
     inkscape:window-height="1002"
     id="namedview98"
     showgrid="false"
     inkscape:zoom="3.4474886"
     inkscape:cx="64.249669"
     inkscape:cy="109.5"
     inkscape:window-x="1272"
     inkscape:window-y="-8"
     inkscape:window-maximized="1"
     inkscape:current-layer="svg2" /><metadata
     id="metadata4"><rdf:RDF><cc:Work
         rdf:about=""><dc:format>image/svg+xml</dc:format><dc:type
           rdf:resource="http://purl.org/dc/dcmitype/StillImage" /><dc:title></dc:title></cc:Work></rdf:RDF></metadata><defs
     id="defs6"><inkscape:perspective
       sodipodi:type="inkscape:persp3d"
       inkscape:vp_x="0 : 109.5 : 1"
       inkscape:vp_y="0 : 1000 : 0"
       inkscape:vp_z="219 : 109.5 : 1"
       inkscape:persp3d-origin="109.5 : 73 : 1"
       id="perspective100" /><filter
       id="filter4213"
       color-interpolation-filters="sRGB"><feGaussianBlur
         stdDeviation="1.7753331"
         id="feGaussianBlur9" /></filter><filter
       id="filter4313-4"
       height="1.4385056"
       width="1.362022"
       y="-0.21925282"
       x="-0.18101102"
       color-interpolation-filters="sRGB"><feGaussianBlur
         stdDeviation="0.78735363"
         id="feGaussianBlur12" /></filter><linearGradient
       id="linearGradient3129"
       x1="-52.9"
       gradientUnits="userSpaceOnUse"
       y1="-224"
       gradientTransform="matrix(1.206601,0,0,1.206601,120.98957,119.53648)"
       x2="-16.4"
       y2="-224"><stop
         stop-color="#663700"
         offset="0"
         id="stop15" /><stop
         stop-color="#663700"
         stop-opacity="0"
         offset="1"
         id="stop17" /></linearGradient><linearGradient
       id="linearGradient3133"
       x1="-62.2"
       gradientUnits="userSpaceOnUse"
       y1="187"
       gradientTransform="matrix(-1.1932088,0.17927238,0.17927238,1.1932088,5.0326614,-170.00622)"
       x2="-102"
       y2="161"><stop
         stop-color="#663700"
         offset="0"
         id="stop20" /><stop
         stop-color="#663700"
         stop-opacity="0"
         offset="1"
         id="stop22" /></linearGradient><linearGradient
       id="linearGradient3138"
       x1="-104"
       gradientUnits="userSpaceOnUse"
       y1="245"
       gradientTransform="matrix(-1.1932088,0.17927238,0.17927238,1.1932088,5.0326614,-170.00622)"
       x2="-139"
       y2="220"><stop
         stop-color="#663700"
         offset="0"
         id="stop25" /><stop
         stop-color="#663700"
         stop-opacity="0"
         offset="1"
         id="stop27" /></linearGradient><linearGradient
       id="linearGradient3147"
       x1="-27.5"
       gradientUnits="userSpaceOnUse"
       y1="259"
       gradientTransform="matrix(-1.1932088,0.17927238,0.17927238,1.1932088,5.0326614,-170.00622)"
       x2="-79.4"
       y2="221"><stop
         stop-color="#a06127"
         offset="0"
         id="stop30" /><stop
         stop-color="#a06127"
         stop-opacity="0"
         offset="1"
         id="stop32" /></linearGradient><linearGradient
       id="linearGradient3151"
       x1="-11.3"
       gradientUnits="userSpaceOnUse"
       y1="267"
       gradientTransform="matrix(-1.1932088,0.17927239,0.17927239,1.1932088,5.0326608,-170.00623)"
       x2="-80.9"
       y2="212"><stop
         stop-color="#663700"
         offset="0"
         id="stop35" /><stop
         stop-color="#663700"
         stop-opacity="0"
         offset="1"
         id="stop37" /></linearGradient><filter
       id="filter3963"><feGaussianBlur
         stdDeviation="2.1119573"
         id="feGaussianBlur40" /></filter><inkscape:perspective
       id="perspective3634"
       inkscape:persp3d-origin="0.5 : 0.33333333 : 1"
       inkscape:vp_z="1 : 0.5 : 1"
       inkscape:vp_y="0 : 1000 : 0"
       inkscape:vp_x="0 : 0.5 : 1"
       sodipodi:type="inkscape:persp3d" /><linearGradient
       id="linearGradient3677"
       y2="-224"
       gradientUnits="userSpaceOnUse"
       x2="-16.4"
       gradientTransform="matrix(1.1926234,0,0,1.1958237,268.58655,447.68171)"
       y1="-224"
       x1="-52.900002"><stop
         id="stop35-1"
         stop-color="#663700"
         offset="0" /><stop
         id="stop37-7"
         stop-color="#b4964e"
         stop-opacity="0"
         offset="1" /></linearGradient><linearGradient
       id="linearGradient3681"
       y2="161"
       gradientUnits="userSpaceOnUse"
       x2="-102"
       gradientTransform="matrix(0.1824125,1.1468734,1.2141089,-0.17231077,-523.42273,110.71076)"
       y1="187"
       x1="-62.200001"><stop
         id="stop30-4"
         stop-color="#663700"
         offset="0" /><stop
         id="stop32-0"
         stop-color="#b4964e"
         stop-opacity="0"
         offset="1" /></linearGradient><linearGradient
       id="linearGradient3686"
       y2="220"
       gradientUnits="userSpaceOnUse"
       x2="-139"
       gradientTransform="matrix(0.1824125,1.1468734,1.2141089,-0.17231077,-523.42273,110.71076)"
       y1="245"
       x1="-104"><stop
         id="stop25-9"
         stop-color="#663700"
         offset="0" /><stop
         id="stop27-4"
         stop-color="#b4964e"
         stop-opacity="0"
         offset="1" /></linearGradient><linearGradient
       id="linearGradient3695"
       y2="221"
       gradientUnits="userSpaceOnUse"
       x2="-79.400002"
       gradientTransform="matrix(0.1824125,1.1468734,1.2141089,-0.17231077,-521.42273,110.71076)"
       y1="259"
       x1="-27.5"><stop
         id="stop20-8"
         stop-color="#a06127"
         offset="0" /><stop
         id="stop22-8"
         stop-color="#b4964e"
         stop-opacity="0"
         offset="1" /></linearGradient><linearGradient
       id="linearGradient3699"
       y2="212"
       gradientUnits="userSpaceOnUse"
       x2="-80.900002"
       gradientTransform="matrix(0.18241251,1.1468734,1.2141089,-0.17231078,-523.7128,111.87104)"
       y1="267"
       x1="-11.3"><stop
         id="stop15-2"
         stop-color="#663700"
         offset="0" /><stop
         id="stop17-4"
         stop-color="#b49664"
         stop-opacity="0"
         offset="1" /></linearGradient><linearGradient
       inkscape:collect="always"
       xlink:href="#linearGradient3677"
       id="linearGradient3012"
       gradientUnits="userSpaceOnUse"
       gradientTransform="matrix(1.1926234,0,0,1.1958237,123.33571,110.91238)"
       x1="-52.900002"
       y1="-224"
       x2="-16.4"
       y2="-224" /><linearGradient
       inkscape:collect="always"
       xlink:href="#linearGradient3681"
       id="linearGradient3016"
       gradientUnits="userSpaceOnUse"
       gradientTransform="matrix(-1.1468734,0.1824125,0.17231077,1.2141089,12.532693,-170.03365)"
       x1="-62.200001"
       y1="187"
       x2="-102"
       y2="161" /><linearGradient
       inkscape:collect="always"
       xlink:href="#linearGradient3686"
       id="linearGradient3021"
       gradientUnits="userSpaceOnUse"
       gradientTransform="matrix(-1.1468734,0.1824125,0.17231077,1.2141089,12.532693,-170.03365)"
       x1="-104"
       y1="245"
       x2="-139"
       y2="220" /><linearGradient
       inkscape:collect="always"
       xlink:href="#linearGradient3695"
       id="linearGradient3028"
       gradientUnits="userSpaceOnUse"
       gradientTransform="matrix(-1.1468734,0.1824125,0.17231077,1.2141089,12.532693,-168.03365)"
       x1="-27.5"
       y1="259"
       x2="-79.400002"
       y2="221" /><linearGradient
       inkscape:collect="always"
       xlink:href="#linearGradient3699"
       id="linearGradient3032"
       gradientUnits="userSpaceOnUse"
       gradientTransform="matrix(-1.1468734,0.18241251,0.17231078,1.2141089,11.372413,-170.32372)"
       x1="-11.3"
       y1="267"
       x2="-80.900002"
       y2="212" /></defs><path
     id="path48-5"
     style="color:#000000;fill:#a09989;fill-rule:nonzero;enable-background:accumulate"
     d="m 28.453843,193.90371 c -2.71131,-3.0046 -5.538,-4.2016 -5.538,-4.2016 0,0 2.8382,-8.3787 35.99699,-41.893 33.23001,-33.6 74.995997,-68.404989 74.995997,-68.404989 1.731,-1.356 4.05,-3.713 2.908,-4.971 l -0.18229,-0.20397 c -1.1434,-1.2702 -0.93799,-3.0901 0.45458,-4.0306 l 5.8841,-4.0183 11.307,12.58 -4.0612,6.0336 c -0.95876,1.429 -2.6882,1.5634 -3.8304,0.28947 l -0.2919,-0.32122 c -1.1434,-1.2702 -3.5074,1.0406 -4.8688,2.8092 0,0 -34.84299,42.503989 -68.070987,76.091989 -33.228,33.588 -41.189,36.153 -41.189,36.153 0,0 -0.82492,-2.858 -3.5304,-5.8626 z" /><path
     id="path3733"
     style="text-indent:0;text-align:start;text-transform:none;direction:ltr;block-progression:tb;color:#000000;fill:#8c531b;fill-rule:nonzero;enable-background:accumulate"
     d="m 155.03983,78.711721 -0.3125,-0.34375 -11.312,-12.594 -0.34375,-0.375 -0.4375,0.28125 -5.875,4.0312 c -1.6659,1.125 -1.9192,3.399 -0.5625,4.9062 l 0.188,0.219 c 0.15568,0.17146 0.18272,0.3052 0.125,0.59375 -0.0577,0.28855 -0.26512,0.70804 -0.5625,1.125 -0.59475,0.83393 -1.5712,1.7209 -2.4062,2.375 l 0,0.0312 c 0,0 -41.803997,34.817989 -75.061987,68.437989 -16.591,16.769 -25.592,27.25 -30.469,33.562 -2.4382,3.1563 -3.8252,5.2584 -4.625,6.5938 -0.79984,1.3353 -1.0312,1.9375 -1.0312,1.9375 l -0.1875,0.53125 0.53125,0.21875 c 0,0 2.5254,1.1514 5.0625,3.8438 l 0.0312,0.0312 0.21875,0.25 c 2.62,2.9096 3.375,5.625 3.375,5.625 l 0.1875,0.59375 0.59375,-0.1875 c 0,0 0.5818,-0.21799 1.875,-1 1.2932,-0.78201 3.3511,-2.1624 6.4375,-4.5938 6.1728,-4.8626 16.468,-13.913 33.094,-30.719 33.257997,-33.619 68.124987,-76.124989 68.124987,-76.124989 l 0,-0.0312 c 0.653,-0.839 1.586,-1.815 2.404,-2.394 0.409,-0.289 0.772,-0.458 1.031,-0.5 0.25907,-0.0421 0.37398,-0.0185 0.53125,0.15625 l 0.28125,0.3125 c 0.67798,0.75615 1.5811,1.1302 2.4688,1.0625 0.88767,-0.0677 1.7455,-0.59235 2.3125,-1.4375 l 4.0625,-6.0312 0.25,-0.375 z m -1.5,0.125 -3.8125,5.625 c -0.39173,0.58386 -0.90395,0.86796 -1.4062,0.90625 -0.5023,0.0383 -1.0358,-0.16975 -1.5,-0.6875 l -0.28125,-0.3125 c -0.41441,-0.4604 -1.0455,-0.62042 -1.5938,-0.53125 -0.5483,0.0892 -1.0361,0.36822 -1.5312,0.71875 -0.99035,0.70106 -1.9503,1.7392 -2.6562,2.6562 0,0 -34.83399,42.473989 -68.030987,76.030989 -16.60201,16.782 -26.885,25.808 -33,30.625 -3.0573,2.4084 -5.0747,3.7827 -6.3125,4.5312 -0.8787,0.53136 -0.96548,0.51402 -1.1562,0.59375 -0.26601,-0.75853 -1.0718,-2.6951 -3.1562,-5.125 l 0.0312,-0.0937 -0.21875,-0.28125 c -2.362,-2.6175 -4.476,-3.6904 -5.1875,-4.0312 0.078,-0.1875 0.0869,-0.33076 0.65625,-1.2812 0.76853,-1.283 2.1463,-3.3722 4.5625,-6.5 4.8324,-6.2555 13.838,-16.723 30.406,-33.469 33.197,-33.557 74.937987,-68.343989 74.937987,-68.343989 0.89561,-0.70161 1.9131,-1.6269 2.625,-2.625 0.35593,-0.49907 0.64006,-1.0129 0.75,-1.5625 0.10798,-0.53984 -0.009,-1.1697 -0.40625,-1.625 -0.007,-0.008 0.007,-0.0231 0,-0.0312 l -0.1875,-0.1875 c -0.93002,-1.0332 -0.77553,-2.3691 0.34375,-3.125 l 0,-0.0312 23.77,5.28 10.656,11.874 z" /><path
     style="fill:#663700"
     id="path46-5"
     d="m 29.613843,192.68371 c 4.08429,4.5313 3.9227,11.701 -0.35996,16 -4.26891,4.3237 -11.041,4.1405 -15.114,-0.3774 -4.0843,-4.5313 -3.9112,-11.701 0.3542,-16 4.2804,-4.3115 11.053,-4.1527 15.114,0.37862 z" /><path
     style="fill:url(#linearGradient3032)"
     id="path50-1"
     d="m 29.603843,192.39371 c -1.45371,-1.5634 -2.8959,-2.6626 -4.015,-3.371 0.75109,-1.2336 2.07669,-3.2122 4.34959,-6.1558 4.78801,-6.1802 13.73001,-16.611 30.34301,-33.344 24.80599,-25.038 50.994997,-47.26799 66.570987,-60.946989 4.938,-4.3359 7.9954,-6.9741 8.2954,-7.2184 0.18114,-0.14534 0.35074,-0.29558 0.50996,-0.4568 1.0695,-1.076 3.2766,-2.9802 3.2997,-4.1283 0.0242,-1.1432 -0.39689,-2.2962 -1.1999,-3.1878 l -0.18345,-0.20397 c -0.24921,-0.28214 -0.3092,-0.52031 -0.3092,-0.72794 0.006,-0.20519 0.0718,-0.40428 0.28267,-0.62168 0.0575,-0.0575 0.11884,-0.11322 0.20075,-0.16366 l 4.808,-3.278 4.626,5.13 L 29.502373,192.42936 z" /><path
     style="fill:#a06127"
     id="path52-7"
     d="m 30.711283,201.291 c -1.38391,1.42359 -4.92154,0.48148 -7.90428,-2.09768 -2.98274,-2.57915 -4.29577,-5.83064 -2.91374,-7.25145 1.37244,-1.41878 5.32779,-0.90357 8.31131,1.67898 2.98352,2.58254 3.88874,6.24934 2.51052,7.68122 z" /><path
     style="opacity:0.98000004;fill:url(#linearGradient3028)"
     id="path54-1"
     d="m 30.763833,194.68371 c 1.32681,1.771 1.47681,1.8809 2.0883,3.1023 1.19991,-0.72672 3.27661,-2.8458 6.18411,-5.0932 6.1033,-4.7145 16.383,-13.802 33.112,-30.29 25.036,-24.794 47.418987,-51.176 61.263987,-66.931989 4.3612,-4.9832 7.0148,-8.0611 7.2801,-8.3542 0.14653,-0.18321 0.29767,-0.35543 0.46034,-0.51421 1.0741,-1.0712 2.9997,-3.2977 4.0727,-3.2489 1.0811,0.0366 2.146,0.54718 2.9305,1.4412 l 0.18114,0.20397 c 0.25036,0.2797 0.47419,0.35786 0.66917,0.36763 0.19268,0.005 0.38535,-0.0539 0.60341,-0.26381 0.0563,-0.0574 0.11318,-0.11982 0.16614,-0.20275 l 3.376,-4.903 -4.062,-4.824 L 30.259733,194.74274 z" /><path
     style="fill:#a09989"
     id="path60-1"
     d="m 147.52383,8.0064207 c 3.046,-3.0779 8.134,-2.6993 11.33,0.8513 3.161,3.5050003 3.3,8.8670003 0.323,11.9570003 l -0.10349,0.11334 c -0.46842,0.47145 -0.37612,1.4168 0.20075,2.0519 0.57687,0.64 1.4306,0.78291 1.9152,0.31756 l 0.1846,-0.18687 c 2.1806,-2.1985 5.7918,-1.942 8.0531,0.56428 1.8806,2.0886 2.2498,5.0932 1.0591,7.3161 l 19.152,21.253 c 2.146,-1.1505 4.9611,-0.62779 6.8532,1.4657 2.2613,2.516 2.3306,6.339 0.15114,8.5497 l -0.20883,0.20886 c -0.43612,0.46046 -0.34266,1.3679 0.23421,2.0153 0.57803,0.63756 1.4537,0.78168 1.9268,0.30779 l 0.0933,-0.0943 c 3.07,-3.018 8.123,-2.615 11.284,0.9 3.196,3.542 3.3114,8.928 0.264,12.018 l -32.305,31.144989 c -1.4999,1.5145 -3.5305,2.2473 -5.6995,2.0641 -2.0998,-0.18687 -4.0958,-1.2177 -5.6187,-2.9069 -3.1613,-3.50539 -3.3112,-8.867189 -0.3242,-11.956989 l 0.0902,-0.10003 c 0.47996,-0.48 0.38304,-1.4168 -0.19037,-2.0641 -0.57918,-0.64 -1.4306,-0.78291 -1.9152,-0.31634 l -0.18691,0.18687 c -2.1806,2.1985 -5.7918,1.942 -8.0531,-0.5655 -1.8921,-2.0886 -2.2498,-5.0932 -1.058,-7.3161 l -18.46,-21.858 c -2.1575,1.1542 -4.9726,0.62779 -6.8532,-1.4657 -2.2613,-2.516 -2.3306,-6.339 -0.14999,-8.5497 l 0.20767,-0.20886 c 0.43727,-0.46168 0.34382,-1.3802 -0.23075,-2.0153 -0.57918,-0.64 -1.4653,-0.78291 -1.9268,-0.31145 l -0.0937,0.0918 c -3.069,3.0168 -8.1224,2.6138 -11.284,-0.8965 -3.19589,-3.542 -3.32279,-8.9405 -0.26882,-12.018 l 31.61,-30.5430003 z" /><path
     style="fill:#663700"
     id="path62-5"
     d="m 157.90783,90.571721 c -0.82608,-1.1786 -0.0879,-3.5176 0.82723,-4.4458 l 29.998,-30.656 c 0.918,-0.927 3.138,-1.503 4.211,-0.579 l -35.766,36.153 z" /><path
     style="fill:#663700"
     id="path64-2"
     d="m 160.21583,93.014721 c 1.0834,0.89527 3.0228,0.29924 3.9458,-0.62779 l 29.997,-30.168 c 0.87685,-0.92581 2.8382,-2.4183 1.6037,-4.8 l -35.766,36.153 z" /><path
     style="opacity:0.75;fill:#a06127"
     id="path66-7"
     d="m 167.13783,104.00372 c -0.86992,-1.2458 -0.57226,-3.6886 0.39804,-4.677899 l 33.459,-33.585 c 0.9703,-0.97588 2.9767,-1.1811 4.1073,-0.20397 l -37.958,38.350999 z" /><path
     style="fill:url(#linearGradient3021)"
     id="path68-6"
     d="m 171.75283,108.89371 c 1.1307,0.97345 4.4881,0.84031 5.4457,-0.13557 l 32.189,-32.851989 c 0.96914,-0.97588 1.696,-4.91 0.46842,-6.2901 l -38.074,39.328989 z" /><path
     style="fill:#663700"
     id="path70-1"
     d="m 130.21783,60.281721 c -0.82147,-1.1786 0.0115,-3.2977 0.92992,-4.226 l 30.69,-31.023 c 0.91723,-0.92703 3.3343,-1.5145 4.4419,-0.61802 l -36.112,35.909 z" /><path
     style="fill:#663700"
     id="path72-4"
     d="m 132.52583,62.846721 c 1.0764,0.92581 3.3689,0.38962 4.2919,-0.53741 l 30.689,-31.024 c 0.91954,-0.92459 1.8229,-3.1145 0.99684,-4.2871 l -36.92,35.787 z" /><path
     style="fill:url(#linearGradient3016)"
     id="path74-2"
     d="m 116.14383,46.601721 c -0.86877,-1.2458 -0.10338,-3.9329 0.863,-4.91 l 31.96,-32.3660003 c 0.972,-0.9771 3.958,-1.8199 5.088,-0.8379 l -37.958,38.1070003 z" /><path
     style="opacity:0.75;fill:#a06127"
     id="path76"
     d="m 120.98383,51.975721 c 1.5576,0.65222 3.4382,0.43726 4.5342,-0.3029 l 32.309,-33.099 c 0.9853,-0.99543 1.2807,-3.4687 0.82954,-4.9955 l -38.074,38.351 z" /><rect
     style="fill:url(#linearGradient3012)"
     id="rect78"
     transform="matrix(0.70361666,-0.71057976,-0.66943259,-0.7428728,0,0)"
     height="24.863001"
     width="43.542999"
     y="-169.08577"
     x="60.305252" /><path
     id="path3727"
     style="text-indent:0;text-align:start;text-transform:none;direction:ltr;block-progression:tb;color:#000000;fill:#8c531b;fill-rule:nonzero;enable-background:accumulate"
     d="m 213.04003,71.773721 c -0.0494,-2.3215 -0.92869,-4.6825 -2.625,-6.5625 -3.3575,-3.7333 -8.8348,-4.2025 -12.156,-0.9375 l -0.0937,0.0937 c -0.0851,0.0853 -0.20542,0.12614 -0.40625,0.0937 -0.20083,-0.0324 -0.45291,-0.15072 -0.65625,-0.375 -0.20695,-0.23223 -0.31765,-0.51715 -0.34375,-0.75 -0.0244,-0.21792 0.0306,-0.35957 0.0937,-0.4375 l 0,-0.0312 0.21875,-0.1875 c 2.4253,-2.4601 2.3331,-6.64 -0.125,-9.375 -1.9292,-2.1345 -4.7934,-2.7401 -7.125,-1.75 l -18.657,-20.721 c 1.064,-2.406 0.65,-5.418 -1.281,-7.562 -2.4594,-2.7258 -6.5087,-3.0425 -8.9375,-0.59375 l -0.15625,0.1875 c -0.094,0.0903 -0.24167,0.12631 -0.4375,0.0937 -0.19583,-0.0326 -0.41978,-0.14732 -0.625,-0.375 -0.20003,-0.22022 -0.32028,-0.51 -0.34375,-0.75 -0.0235,-0.24 0.0451,-0.41962 0.125,-0.5 l 0.0937,-0.0937 c 0.006,-0.006 -0.006,-0.0247 0,-0.0312 3.2028,-3.3478 3.039,-9.0336 -0.3125,-12.7500003 -3.3924,-3.7689 -8.8907,-4.2064 -12.188,-0.875 l -31.594,30.5310003 -0.0312,0 c -3.30549,3.3314 -3.14259,9.0837 0.25,12.844 3.3576,3.7283 8.8348,4.2025 12.156,0.9375 l 0.098,-0.095 c 0.076,-0.078 0.203,-0.126 0.406,-0.093 0.20298,0.0328 0.45341,0.15085 0.65625,0.375 0.20209,0.22339 0.31783,0.51544 0.34375,0.75 0.0259,0.23456 -0.0255,0.36548 -0.0937,0.4375 l -0.1875,0.21875 c -2.4265,2.46 -2.3331,6.64 0.125,9.375 1.9187,2.1358 4.7533,2.7421 7.0938,1.75 l 17.969,21.312 c -1.0651,2.4053 -0.63052,5.4178 1.3125,7.5625 2.4594,2.7271 6.4774,3.0425 8.9062,0.59375 l 0.188,-0.187 c 0.0946,-0.0911 0.21098,-0.12616 0.40625,-0.0937 0.18439,0.0306 0.42582,0.17018 0.625,0.375 0.0118,0.0121 0.0197,0.0185 0.0312,0.0312 0.18532,0.22326 0.29068,0.52206 0.3125,0.75 0.0229,0.23949 -0.0364,0.38018 -0.125,0.46875 l 0,0.0312 -0.0937,0.0937 c -3.2337,3.3452 -3.0451,9.026899 0.3125,12.749989 1.6157,1.7921 3.7405,2.9239 6,3.125 l 0.0312,0 c 2.3331,0.19707 4.5346,-0.61256 6.1562,-2.25 l 32.312,-31.124989 0,-0.0312 c 1.6501,-1.665 2.4267,-3.923 2.3772,-6.244 z m -1.1875,0 c 0.0453,2.0206 -0.64479,3.9888 -2.0312,5.4062 l -32.313,31.153989 c -1.3781,1.3916 -3.2138,2.0756 -5.2188,1.9062 -1.9401,-0.17266 -3.7886,-1.1325 -5.2188,-2.7188 -2.9649,-3.28759 -3.0842,-8.321289 -0.34375,-11.155989 l 0.063,-0.094 c 0.008,-0.008 -0.007,-0.0234 0,-0.0312 0.37364,-0.38962 0.51668,-0.90554 0.46875,-1.4062 -0.0489,-0.51074 -0.25464,-1.0194 -0.625,-1.4375 -0.37237,-0.41148 -0.84735,-0.6676 -1.3438,-0.75 -0.4964,-0.0824 -1.0475,0.0308 -1.4375,0.40625 l -0.1875,0.1875 c -1.9323,1.9482 -5.1242,1.7567 -7.1875,-0.53125 -1.7261,-1.9053 -2.0313,-4.6745 -0.96875,-6.6562 l 0.189,-0.345 -0.25,-0.313 -18.468,-21.875 -0.3125,-0.34375 -0.4375,0.21875 c -1.9006,1.0168 -4.409,0.56649 -6.125,-1.3438 -2.0645,-2.2971 -2.0909,-5.7574 -0.15625,-7.7188 l 0.1875,-0.21875 0.0312,0 c 0.36906,-0.38966 0.46138,-0.93862 0.40625,-1.4375 -0.0551,-0.49888 -0.25252,-0.99452 -0.625,-1.4062 -0.37634,-0.41586 -0.87477,-0.6692 -1.375,-0.75 -0.50023,-0.0808 -1.0521,0.0438 -1.4375,0.4375 l -0.094,0.062 c -2.8165,2.7687 -7.4414,2.4484 -10.406,-0.84375 -2.9881,-3.3117 -3.0834,-8.3572 -0.3125,-11.188 l 0.03,-0.03 31.592,-30.5320003 c 2.796,-2.8243 7.47,-2.5197 10.469,0.8126 2.965,3.2872003 3.075,8.3212003 0.344,11.1560003 l -0.0312,0 -0.0625,0.0937 -0.032,0.031 0.031,0 c -0.37104,0.3892 -0.51759,0.93802 -0.46875,1.4375 0.0498,0.50932 0.24816,0.99136 0.625,1.4062 0.37165,0.41233 0.84733,0.6987 1.3438,0.78125 0.49642,0.0825 1.0469,-0.0312 1.4375,-0.40625 l 0,-0.0312 0.188,-0.188 c 1.9323,-1.9482 5.1242,-1.7243 7.1875,0.5625 1.7162,1.906 2.0295,4.6446 0.96875,6.625 l -0.188,0.375 0.281,0.313 19.156,21.25 0.313,0.344 0.406,-0.219 c 1.8881,-1.0123 4.3971,-0.56796 6.125,1.3438 2.0645,2.2971 2.1211,5.7574 0.1875,7.7188 l -0.21875,0.21875 c -0.36725,0.38775 -0.49331,0.90841 -0.4375,1.4062 0.0558,0.49784 0.28633,0.99114 0.65625,1.4062 l 0,0.0312 c 0.37469,0.41328 0.84397,0.66941 1.3438,0.75 0.49978,0.0806 1.0496,-0.0489 1.4375,-0.4375 l 0.0937,-0.0937 c 2.8165,-2.7687 7.4725,-2.4219 10.438,0.875 1.4996,1.662 2.267,3.7515 2.3125,5.7812 z" /><path
     id="path3739"
     style="text-indent:0;text-align:start;text-transform:none;direction:ltr;block-progression:tb;color:#000000;fill:#8c531b;fill-rule:nonzero;enable-background:accumulate"
     d="m 33.163843,200.77371 c 0.0686,-3.0428 -0.97548,-6.1152 -3.125,-8.5 l -0.21875,-0.25 -0.0937,0.0312 c -4.3044,-4.4832 -11.243,-4.6325 -15.656,-0.1875 -4.4932999,4.529 -4.6743999,12.074 -0.375,16.844 4.2876,4.7562 11.47199,4.9292 15.969,0.375 2.25569,-2.2644 3.43139,-5.2697 3.5,-8.3125 z m -1.1875,-0.0312 c -0.0618,2.7496 -1.1293,5.4964 -3.1562,7.5312 -4.04131,4.0932 -10.392,3.9045 -14.25,-0.375 -3.8691,-4.2926 -3.6938,-11.118 0.34375,-15.188 4.0535,-4.083 10.404,-3.916 14.25,0.375 1.9347,2.1465 2.8743,4.9067 2.8125,7.6562 z" /><path
     transform="matrix(1.0469464,0,0,1.0469464,0.34345123,4.3555334)"
     style="fill:#d59f0f;stroke:none"
     d="m 73.3,143 55.7,0 26,55 -55.8,0 z"
     id="polygon80" /><path
     transform="matrix(1.0469464,0,0,1.0469464,0.34345123,4.3555334)"
     style="fill:#d59f0f;stroke:none"
     d="m 42.6,71.6 55.5,0 25.9,55.4 -55.5,0 z"
     id="polygon82" /><path
     transform="matrix(1.0469464,0,0,1.0469464,0.34345123,4.3555334)"
     style="fill:#d59f0f;stroke:none"
     d="M 10.4,0.5 65.9,0.5 91.8,56 36.3,56 z"
     id="polygon84" /><path
     d="M74.7,25.7c-1.62-2.14-4.66-2.56-6.8-0.95l-24.4,18.4-5.11-6.55c-1.6-2.05-4.57-2.42-6.63-0.815s-2.42,4.57-0.816,6.63l7.92,10.1c0.0272,0.0387,0.044,0.0817,0.0722,0.119,0.0398,0.0523,0.09,0.0911,0.131,0.141l0.0105,0.0126c0.0178,0.022,0.0398,0.0387,0.0576,0.0607,0.164,0.194,0.332,0.382,0.52,0.543,1.67,1.5,4.22,1.64,6.05,0.214,0.0021-0.001,0.0032-0.0032,0.0053-0.0053,0.0084-0.0062,0.0178-0.0094,0.0262-0.0168l28-21.1c2.14-1.62,2.57-4.66,0.952-6.8z"
     fill="#7d7d7d"
     id="path86" /><path
     d="M74.6,22.1c-1.62-2.14-4.66-2.56-6.8-0.95l-24.4,18.4-5.11-6.55c-1.6-2.05-4.57-2.42-6.63-0.815s-2.42,4.57-0.816,6.63l7.92,10.1c0.0272,0.0387,0.044,0.0817,0.0722,0.119,0.0398,0.0523,0.09,0.0911,0.131,0.141l0.0105,0.0126c0.0178,0.022,0.0398,0.0387,0.0576,0.0607,0.164,0.194,0.332,0.382,0.52,0.543,1.67,1.5,4.22,1.64,6.05,0.214,0.0021-0.001,0.0032-0.0032,0.0053-0.0053,0.0084-0.0062,0.0178-0.0094,0.0262-0.0168l28-21.1c2.14-1.62,2.57-4.66,0.952-6.8z"
     fill="#FFF"
     id="path88" /><path
     d="m108,99.7c-1.62-2.14-4.66-2.56-6.8-0.95l-24.4,18.4-5.11-6.55c-1.6-2.05-4.57-2.42-6.63-0.815s-2.42,4.57-0.816,6.63l7.92,10.1c0.0272,0.0387,0.044,0.0816,0.0722,0.119,0.0398,0.0523,0.09,0.091,0.131,0.141l0.0105,0.0126c0.0178,0.022,0.0398,0.0387,0.0576,0.0607,0.164,0.194,0.332,0.382,0.52,0.543,1.67,1.5,4.22,1.64,6.05,0.214,0.0021-0.001,0.0032-0.003,0.0053-0.005,0.0084-0.007,0.0178-0.01,0.0262-0.0167l28-21.1c2.14-1.62,2.57-4.66,0.952-6.8z"
     fill="#7d7d7d"
     id="path90" /><path
     d="m108,96.1c-1.62-2.14-4.66-2.56-6.8-0.95l-24.4,18.4-5.11-6.55c-1.6-2.05-4.57-2.42-6.63-0.815s-2.42,4.57-0.816,6.63l7.92,10.1c0.0272,0.0387,0.044,0.0816,0.0722,0.119,0.0398,0.0523,0.09,0.0911,0.131,0.141l0.0105,0.0126c0.0178,0.022,0.0398,0.0387,0.0576,0.0607,0.164,0.194,0.332,0.382,0.52,0.543,1.67,1.5,4.22,1.64,6.05,0.214,0.0021-0.001,0.0032-0.003,0.0053-0.005,0.0084-0.007,0.0178-0.01,0.0262-0.0167l28-21.1c2.14-1.62,2.57-4.66,0.952-6.8z"
     fill="#FFF"
     id="path92" /><path
     d="m141,174c-1.62-2.14-4.66-2.56-6.8-0.95l-24.4,18.4-5.11-6.55c-1.6-2.05-4.57-2.42-6.63-0.815s-2.42,4.57-0.816,6.63l7.92,10.1c0.0272,0.0387,0.044,0.0816,0.0722,0.119,0.0398,0.0523,0.09,0.091,0.131,0.141l0.0105,0.0126c0.0178,0.022,0.0398,0.0387,0.0576,0.0607,0.164,0.194,0.332,0.382,0.52,0.543,1.67,1.5,4.22,1.64,6.05,0.214,0.002-0.001,0.003-0.003,0.005-0.005,0.008-0.007,0.0178-0.01,0.0262-0.0168l28-21.1c2.14-1.62,2.57-4.66,0.952-6.8z"
     fill="#7d7d7d"
     id="path94" /><path
     d="m141,170c-1.62-2.14-4.66-2.56-6.8-0.95l-24.4,18.4-5.11-6.55c-1.6-2.05-4.57-2.42-6.63-0.815s-2.42,4.57-0.816,6.63l7.92,10.1c0.0272,0.0387,0.044,0.0816,0.0722,0.119,0.0398,0.0523,0.09,0.091,0.131,0.141l0.0105,0.0126c0.0178,0.022,0.0398,0.0387,0.0576,0.0607,0.164,0.194,0.332,0.382,0.52,0.543,1.67,1.5,4.22,1.64,6.05,0.214,0.002-0.001,0.003-0.003,0.005-0.005,0.008-0.007,0.0178-0.01,0.0262-0.0167l28-21.1c2.14-1.62,2.57-4.66,0.952-6.8z"
     fill="#FFF"
     id="path96" /><path
     style="font-size:medium;font-style:normal;font-variant:normal;font-weight:normal;font-stretch:normal;text-indent:0;text-align:start;text-decoration:none;line-height:normal;letter-spacing:normal;word-spacing:normal;text-transform:none;direction:ltr;block-progression:tb;writing-mode:lr-tb;text-anchor:start;color:#000000;fill:#efbf54;fill-opacity:1;fill-rule:nonzero;stroke:none;stroke-width:1;marker:none;visibility:visible;display:inline;overflow:visible;enable-background:accumulate;font-family:Bitstream Vera Sans;-inkscape-font-specification:Bitstream Vera Sans"
     d="m 10.42031,4.3555334 0.327171,0.7524927 27.122455,58.1055249 0.130869,0.294454 0.359887,0 58.105526,0 0.817926,0 -0.359887,-0.752493 -27.122456,-58.1055249 -0.130868,-0.2944537 -0.327171,0 -58.105525,0 -0.817927,0 z m 1.635854,1.0469464 56.927711,0 26.631699,57.0585792 -56.927711,0 L 12.056164,5.4024798 z"
     id="path3812" /><path
     style="font-size:medium;font-style:normal;font-variant:normal;font-weight:normal;font-stretch:normal;text-indent:0;text-align:start;text-decoration:none;line-height:normal;letter-spacing:normal;word-spacing:normal;text-transform:none;direction:ltr;block-progression:tb;writing-mode:lr-tb;text-anchor:start;color:#000000;fill:#efbf54;fill-opacity:1;fill-rule:nonzero;stroke:none;stroke-width:1;marker:none;visibility:visible;display:inline;overflow:visible;enable-background:accumulate;font-family:Bitstream Vera Sans;-inkscape-font-specification:Bitstream Vera Sans"
     d="m 44.118898,78.786879 0.359887,0.752493 27.122456,58.007378 0.130868,0.29445 0.327171,0 58.10552,0 0.81793,0 -0.35989,-0.75249 -27.08973,-58.007377 -0.16359,-0.294454 -0.32717,0 -58.105526,0 -0.817926,0 z m 1.66857,1.046946 56.927712,0 26.6317,56.960425 -56.96043,0 -26.598982,-56.960425 z"
     id="path3818" /><path
     style="font-size:medium;font-style:normal;font-variant:normal;font-weight:normal;font-stretch:normal;text-indent:0;text-align:start;text-decoration:none;line-height:normal;letter-spacing:normal;word-spacing:normal;text-transform:none;direction:ltr;block-progression:tb;writing-mode:lr-tb;text-anchor:start;color:#000000;fill:#efbf54;fill-opacity:1;fill-rule:nonzero;stroke:none;stroke-width:1;marker:none;visibility:visible;display:inline;overflow:visible;enable-background:accumulate;font-family:Bitstream Vera Sans;-inkscape-font-specification:Bitstream Vera Sans"
     d="m 76.247065,153.5454 0.359888,0.75249 27.122457,57.58205 0.13087,0.29445 0.32717,0 58.43269,0 0.81793,0 -0.35989,-0.75249 -27.2206,-57.58205 -0.13087,-0.29445 -0.32717,0 -58.301831,0 -0.850644,0 z m 1.668571,1.04694 57.156734,0 26.72985,56.53511 -57.25488,0 -26.631704,-56.53511 z"
     id="path3824" /></svg>