<?xml version="1.0" encoding="UTF-8" standalone="no"?>
<!-- Created with Inkscape (http://www.inkscape.org/) -->

<svg
   xmlns:dc="http://purl.org/dc/elements/1.1/"
   xmlns:cc="http://creativecommons.org/ns#"
   xmlns:rdf="http://www.w3.org/1999/02/22-rdf-syntax-ns#"
   xmlns:svg="http://www.w3.org/2000/svg"
   xmlns="http://www.w3.org/2000/svg"
   xmlns:xlink="http://www.w3.org/1999/xlink"
   xmlns:sodipodi="http://sodipodi.sourceforge.net/DTD/sodipodi-0.dtd"
   xmlns:inkscape="http://www.inkscape.org/namespaces/inkscape"
   width="219"
   height="219"
   id="svg2"
   sodipodi:version="0.32"
   inkscape:version="0.47 r22583"
   version="1.0"
   sodipodi:docname="prerequisite.svg"
   inkscape:export-xdpi="90"
   inkscape:export-ydpi="90">
  <defs
     id="defs4">
    <linearGradient
       inkscape:collect="always"
       id="linearGradient2971">
      <stop
         style="stop-color:white;stop-opacity:1;"
         offset="0"
         id="stop2973" />
      <stop
         style="stop-color:white;stop-opacity:0;"
         offset="1"
         id="stop2975" />
    </linearGradient>
    <linearGradient
       id="linearGradient2961">
      <stop
         id="stop2963"
         offset="0"
         style="stop-color:#646464;stop-opacity:0.69677418;" />
      <stop
         id="stop2965"
         offset="1"
         style="stop-color:white;stop-opacity:0;" />
    </linearGradient>
    <linearGradient
       id="linearGradient2786">
      <stop
         style="stop-color:white;stop-opacity:1;"
         offset="0"
         id="stop2788" />
      <stop
         style="stop-color:white;stop-opacity:0;"
         offset="1"
         id="stop2790" />
    </linearGradient>
    <linearGradient
       inkscape:collect="always"
       xlink:href="#linearGradient2786"
       id="linearGradient2792"
       x1="8.625"
       y1="14.999512"
       x2="8.625"
       y2="16.001001"
       gradientUnits="userSpaceOnUse"
       gradientTransform="matrix(4.5374645,0,0,20.134572,0.8441524,-392.29823)" />
    <linearGradient
       inkscape:collect="always"
       xlink:href="#linearGradient2786"
       id="linearGradient2818"
       x1="3.90625"
       y1="13.515625"
       x2="4.515625"
       y2="13.78125"
       gradientUnits="userSpaceOnUse"
       gradientTransform="matrix(4.5374645,0,0,4.5374645,0.1365711,-157.25484)" />
    <linearGradient
       inkscape:collect="always"
       xlink:href="#linearGradient2786"
       id="linearGradient2837"
       x1="14.59375"
       y1="13.921875"
       x2="13.578125"
       y2="14.375"
       gradientUnits="userSpaceOnUse"
       gradientTransform="matrix(4.5374645,0,0,4.5374645,0.8441524,-158.34166)" />
    <linearGradient
       inkscape:collect="always"
       xlink:href="#linearGradient2786"
       id="linearGradient2907"
       x1="13.25"
       y1="16.6875"
       x2="6.875"
       y2="11.5625"
       gradientUnits="userSpaceOnUse"
       gradientTransform="matrix(4.5374645,0,0,4.5374645,0.8441524,-158.34166)" />
    <linearGradient
       inkscape:collect="always"
       xlink:href="#linearGradient2961"
       id="linearGradient2959"
       x1="35.332272"
       y1="6.3338637"
       x2="37.011127"
       y2="29.837839"
       gradientUnits="userSpaceOnUse"
       gradientTransform="matrix(4.5374645,0,0,4.5374645,0.8441524,-158.34166)" />
    <linearGradient
       inkscape:collect="always"
       xlink:href="#linearGradient2971"
       id="linearGradient2977"
       x1="20.756756"
       y1="12.896662"
       x2="24.648649"
       y2="25.564388"
       gradientUnits="userSpaceOnUse"
       gradientTransform="matrix(4.5374645,0,0,4.5374645,0.8441524,-158.34166)" />
  </defs>
  <sodipodi:namedview
     id="base"
     pagecolor="#ffffff"
     bordercolor="#666666"
     borderopacity="1.0"
     inkscape:pageopacity="0.0"
     inkscape:pageshadow="2"
     inkscape:zoom="2.43379"
     inkscape:cx="109.5"
     inkscape:cy="109.5"
     inkscape:document-units="px"
     inkscape:current-layer="svg2"
     width="48px"
     height="48px"
     showgrid="true"
     inkscape:object-bbox="false"
     inkscape:object-points="false"
     inkscape:object-paths="false"
     objecttolerance="4.2"
     inkscape:object-nodes="false"
     showguides="true"
     inkscape:guide-bbox="true"
     inkscape:grid-points="false"
     inkscape:grid-bbox="false"
     inkscape:window-width="1055"
     inkscape:window-height="836"
     inkscape:window-x="389"
     inkscape:window-y="99" />
  <metadata
     id="metadata7">
    <rdf:RDF>
      <cc:Work
         rdf:about="">
        <dc:format>image/svg+xml</dc:format>
        <dc:type
           rdf:resource="http://purl.org/dc/dcmitype/StillImage" />
        <dc:title></dc:title>
      </cc:Work>
    </rdf:RDF>
  </metadata>
  <g
     inkscape:label="layer1"
     inkscape:groupmode="layer"
     id="layer1"
     transform="translate(0,171)">
    <path
       style="fill:#ffffff;fill-opacity:1;fill-rule:evenodd;stroke:#b9b9b9;stroke-width:13.61240005;stroke-linecap:round;stroke-linejoin:round;stroke-miterlimit:4;stroke-opacity:1;stroke-dasharray:none"
       d="m 74.267938,-83.473455 -4.587286,10.371346 0,25.928352 137.618238,0 0,-25.928352 -4.58728,-10.371346 -128.443672,0 z"
       id="path2922" />
    <path
       style="fill:#ffffff;fill-opacity:1;fill-rule:evenodd;stroke:#e0e0e0;stroke-width:9.06585407;stroke-linecap:round;stroke-linejoin:round;stroke-miterlimit:4;stroke-opacity:1;stroke-dasharray:none"
       d="m 73.713972,-81.20878 -4.52828,9.077225 0,22.693068 135.848388,0 0,-22.693068 -4.52828,-9.077225 -126.791828,0 z"
       id="path2927" />
    <path
       style="fill:#ffffff;fill-opacity:1;fill-rule:evenodd;stroke:none"
       d="m 69.195493,-72.12983 0,22.687322 135.834567,0 0,-22.687322 -135.834567,0 z"
       id="path2918" />
    <path
       style="fill:#ffffff;fill-opacity:1;fill-rule:evenodd;stroke:none"
       d="m 73.717725,-81.204759 126.784315,0 4.52802,9.074929 -135.840348,0 4.528013,-9.074929 z"
       id="path2920" />
    <path
       style="fill:url(#linearGradient2959);fill-opacity:1;fill-rule:evenodd;stroke:none"
       d="m 69.195493,-72.12983 0,22.687322 135.834567,0 0,-22.687322 -135.834567,0 z"
       id="path2951" />
    <path
       style="fill:#ef2929;fill-opacity:1;fill-rule:evenodd;stroke:none"
       d="m 100.66837,-49.442508 0,-22.687322 -4.53746,-9.074929 9.07493,0 4.53746,9.074929 0,22.687322 -9.07493,0 z"
       id="path2937"
       sodipodi:nodetypes="ccccccc" />
    <path
       style="fill:#ef2929;fill-opacity:1;fill-rule:evenodd;stroke:none"
       d="m 123.35569,-49.442508 0,-22.687322 -4.53746,-9.074929 9.07493,0 4.53746,9.074929 0,22.687322 -9.07493,0 z"
       id="path2939"
       sodipodi:nodetypes="ccccccc" />
    <path
       style="fill:#ef2929;fill-opacity:1;fill-rule:evenodd;stroke:none"
       d="m 146.04302,-49.442508 0,-22.687322 -4.53747,-9.074929 9.07493,0 4.53747,9.074929 0,22.687322 -9.07493,0 z"
       id="path2943"
       sodipodi:nodetypes="ccccccc" />
    <path
       style="fill:#ef2929;fill-opacity:1;fill-rule:evenodd;stroke:none"
       d="m 168.73034,-49.442508 0,-22.687322 -4.53746,-9.074929 9.07492,0 4.53747,9.074929 0,22.687322 -9.07493,0 z"
       id="path2945"
       sodipodi:nodetypes="ccccccc" />
    <path
       style="fill:#ef2929;fill-opacity:1;fill-rule:evenodd;stroke:none"
       d="m 191.41766,-49.442508 0,-22.687322 -4.53746,-9.074929 9.07493,0 4.53746,9.074929 0,22.687322 -9.07493,0 z"
       id="path2947"
       sodipodi:nodetypes="ccccccc" />
    <path
       style="fill:url(#linearGradient2977);fill-opacity:1;fill-rule:evenodd;stroke:none"
       d="m 73.717725,-81.204759 126.784315,0 4.52802,9.074929 -135.840348,0 4.528013,-9.074929 z"
       id="path2969" />
    <path
       style="fill:#babdb6;fill-opacity:1;stroke:#80827f;stroke-width:9.07492924;stroke-linecap:round;stroke-linejoin:round;stroke-miterlimit:4;stroke-opacity:1;stroke-dasharray:none"
       d="m 23.389679,-103.89208 c -0.32971,0.38953 -2.026634,3.52948 -8.082358,15.455737 -0.543271,0.742728 -0.845918,1.628836 -0.850775,2.694119 0,39.401641 0,78.5724375 0,117.974078 18.149858,0 36.299716,0 54.449574,0 0,-39.3439285 0,-78.630149 0,-117.974078 0.0032,-0.769059 -0.337269,-1.479721 -0.708978,-2.126936 0.124689,0.152731 0.329056,0.257319 0.425387,0.425387 -8.651788,-16.347947 -8.791338,-16.448307 -8.791338,-16.448307 l -36.299716,0 c 0,0 -0.02673,-0.13594 -0.141796,0 z m -4.821056,13.612392 c 0.306634,-0.03702 0.425388,0 0.425388,0 -0.642552,0.01226 -1.169539,0.08454 -1.70155,0.283591 0.459385,-0.169175 0.969529,-0.246575 1.276162,-0.283591 z"
       id="path2909" />
    <path
       style="fill:#babdb6;fill-opacity:1;stroke:none"
       d="m 19.195996,-90.279688 c 15.120072,0 30.045175,-0.0177 45.165246,-0.0177 2.485536,0.02223 4.554852,2.10654 4.544878,4.497475 0,39.343902 0,78.6878345 0,118.031763 -18.149858,0 -36.299716,0 -54.449574,0 0,-39.4016405 0,-78.572859 0,-117.9745 0.01221,-2.678946 1.92628,-4.554766 4.73945,-4.537042 z"
       id="rect1872"
       sodipodi:nodetypes="ccccccc" />
    <path
       style="fill:#babdb6;fill-rule:evenodd;stroke:none"
       d="m 14.741535,-87.491326 c 9.074924,-17.940644 8.78994,-16.400754 8.78994,-16.400754 l 36.334936,0.0281 c 0,0 0.120561,0.0313 8.772362,16.379367 -1.09558,-1.911475 -4.255697,-2.826065 -4.255697,-2.826065 l -45.359983,0.02813 c 0,0 -3.068597,-0.08444 -4.281558,2.791212 z"
       id="path2766"
       sodipodi:nodetypes="ccccccc" />
    <path
       style="fill:url(#linearGradient2818);fill-opacity:1;fill-rule:evenodd;stroke:none"
       d="m 22.823893,-102.80527 c -0.329592,0.38941 -2.032139,3.398894 -8.082358,15.313944 1.133281,-1.546427 2.775458,-1.803374 3.403098,-1.843345 l 4.67926,-13.470599 z"
       id="path2800" />
    <path
       style="fill:url(#linearGradient2837);fill-opacity:1;fill-rule:evenodd;stroke:none"
       d="m 59.760293,-103.89208 4.745725,13.612392 c 0,0 3.108949,0.92444 4.187409,2.835915 -8.516603,-16.347947 -8.65398,-16.448307 -8.653975,-16.448307 l -0.279145,0 z"
       id="path2804" />
    <path
       style="fill:none;stroke:#eeeeec;stroke-width:4.28336668;stroke-linecap:round;stroke-linejoin:round;stroke-miterlimit:4;stroke-opacity:1;stroke-dasharray:none"
       d="m 24.829237,-101.69099 c -0.30376,0.37711 -1.867137,3.416861 -7.44627,14.962557 -0.500516,0.719021 -0.779344,1.57686 -0.783819,2.608144 0,38.144341 0,76.0652069 0,114.209539 16.72145,0 33.442904,0 50.16435,0 0,-38.0884669 0,-76.121068 0,-114.209539 0.003,-0.744516 -0.310726,-1.4325 -0.653177,-2.059065 0.114888,0.14783 0.303148,0.249107 0.391901,0.41182 -7.970883,-15.826286 -8.099452,-15.923446 -8.099452,-15.923446 l -33.442902,0 c 0,0 -0.02459,-0.13163 -0.130633,0 z"
       id="path2916"
       sodipodi:nodetypes="ccsccsssccc" />
    <path
       style="fill:url(#linearGradient2792);fill-opacity:1;stroke:none"
       d="m 16.867038,-90.279139 c -3.095368,-0.08653 -2.398313,8.247 -2.410528,20.134572 l 54.449574,0 c 0.01,-10.609549 0.466138,-20.027103 -2.268732,-20.134572 -16.636818,0 -33.133495,0 -49.770314,0 z"
       id="path2773"
       sodipodi:nodetypes="ccccc" />
    <path
       style="fill:url(#linearGradient2907);fill-opacity:1;fill-rule:evenodd;stroke:none"
       d="m 16.443511,-90.279784 7.073539,-13.579246 36.032374,-0.0331 7.087964,13.614379 -50.193877,-0.0021 z"
       id="path2822"
       sodipodi:nodetypes="ccccc" />
    <rect
       style="fill:#2e3436;fill-opacity:1;stroke:none"
       id="rect2979"
       width="45.374645"
       height="22.687323"
       x="18.994011"
       y="5.0070667" />
    <path
       style="fill:#edd400;fill-opacity:1;fill-rule:evenodd;stroke:none"
       d="m 28.06894,27.694389 13.626822,-22.6873223 9.074929,0 -13.626822,22.6873223 -9.074929,0 z"
       id="path2983"
       sodipodi:nodetypes="ccccc" />
    <path
       style="fill:#edd400;fill-opacity:1;fill-rule:evenodd;stroke:none"
       d="M 46.218798,27.694389 59.84562,5.0070667 l 4.919796,-0.1731496 -0.06638,7.2015549 -9.405306,15.658917 -9.074929,0 z"
       id="path2987"
       sodipodi:nodetypes="cccccc" />
    <path
       style="fill:#edd400;fill-opacity:1;fill-rule:evenodd;stroke:none"
       d="m 23.531475,5.0070667 -4.537464,7.5962013 -0.137062,15.148734 13.749455,-22.7449353 -9.074929,0 z"
       id="path2989"
       sodipodi:nodetypes="ccccc" />
  </g>
</svg>
