<?xml version="1.0" encoding="UTF-8" standalone="no"?>
<svg xmlns:rdf="http://www.w3.org/1999/02/22-rdf-syntax-ns#" xmlns="http://www.w3.org/2000/svg" version="1.1" xml:space="preserve" height="219" viewBox="-0.66 -0.379 219 219" width="219" enable-background="new -0.66 -0.379 213 251" y="0px" x="0px" xmlns:cc="http://creativecommons.org/ns#" xmlns:xlink="http://www.w3.org/1999/xlink" xmlns:dc="http://purl.org/dc/elements/1.1/"><metadata><rdf:RDF><cc:Work rdf:about=""><dc:format>image/svg+xml</dc:format><dc:type rdf:resource="http://purl.org/dc/dcmitype/StillImage"/><dc:title/></cc:Work></rdf:RDF></metadata><defs><linearGradient id="linearGradient3836" y2="149.1" gradientUnits="userSpaceOnUse" x2="143" gradientTransform="matrix(1.3869094,0,0,1.3869094,-67.719067,-84.19785)" y1="195.8" x1="179.9"><stop stop-color="#d59f0f" offset="0"/><stop stop-color="#ffbc07" offset="1"/></linearGradient><filter id="filter3858"><feGaussianBlur stdDeviation="1.004223"/></filter><filter id="filter3862"><feGaussianBlur stdDeviation="0.7250595"/></filter><filter id="filter3870"><feGaussianBlur stdDeviation="1.088285"/></filter><filter id="filter3874"><feGaussianBlur stdDeviation="1.088021"/></filter><linearGradient id="linearGradient3879" y2="149.1" gradientUnits="userSpaceOnUse" x2="143" gradientTransform="matrix(1.3869094,0,0,1.3869094,-49.719067,-84.19785)" y1="195.8" x1="179.9"><stop stop-color="#d59f0f" offset="0"/><stop stop-color="#ffbc07" offset="1"/></linearGradient></defs><path d="m42.34,113.4c-13.65,0-24.7,11.06-24.7,24.69v66.58c0,13.65,11.06,24.7,24.7,24.7h57.2l-37.8-116h-19.4z" fill-opacity="0.50196078000000000" transform="matrix(0.99840231,0,0,0.99840231,-3.5773976,-15.798855)" filter="url(#filter3870)" fill="#000"/><path d="m169.3,113.4h-19.38l-37.78,116h57.16c13.64,0,24.69-11.06,24.69-24.7v-66.58c0-13.63-11.05-24.69-24.69-24.69z" fill-opacity="0.50196078000000000" transform="matrix(0.99840231,0,0,0.99840231,-3.5773976,-15.798855)" filter="url(#filter3874)" fill="#000"/><path opacity="0.98999999000000005" d="m151.5,66.49c0-25.22-20.44-45.64-45.65-45.64-25.2,0-45.65,20.42-45.65,45.64,0,25.19,20.45,45.64,45.65,45.64,25.22,0,45.65-20.45,45.65-45.64z" fill-opacity="0.50196078000000000" transform="matrix(0.99840231,0,0,0.99840231,-5.5773976,-15.798855)" filter="url(#filter3858)" fill="#000"/><polygon opacity="0.98999999000000005" fill-opacity="0.50196078000000000" transform="matrix(0.99840231,0,0,0.99840231,-5.5773976,-15.798855)" filter="url(#filter3862)" points="105.8,206.6,128.2,138.2,105.8,119.4,83.52,138.2" fill="#000"/><g filter="url(#AI_GaussianBlur_2)" fill="#CCC" transform="matrix(0.99840231,0,0,0.99840231,-9.3546281,-19.219926)">
	<path d="m42.34,113.4c-13.65,0-24.7,11.06-24.7,24.69v66.58c0,13.65,11.06,24.7,24.7,24.7h57.2l-37.8-116h-19.4z"/>
	<path d="m169.3,113.4h-19.38l-37.78,116h57.16c13.64,0,24.69-11.06,24.69-24.7v-66.58c0-13.63-11.05-24.69-24.69-24.69z"/>
	<path d="m151.5,66.49c0-25.22-20.44-45.64-45.65-45.64-25.2,0-45.65,20.42-45.65,45.64,0,25.19,20.45,45.64,45.65,45.64,25.22,0,45.65-20.45,45.65-45.64z"/>
	<polygon points="83.52,138.2,105.8,206.6,128.2,138.2,105.8,119.4"/>
</g><path fill="#CCC" d="m32.93,94.02c-13.63,0-24.66,11.04-24.66,24.65v66.47c0,13.63,11.04,24.66,24.66,24.66h57.1l-37.74-115.9h-19.36z"/><path fill="#CCC" d="M161.9,94.02h-19.36l-37.74,115.8h57.07c13.61,0,24.65-11.04,24.65-24.66v-66.47c0-13.61-11.04-24.65-24.65-24.65z"/><path fill="#CCC" d="m141.9,47.17c0-25.18-20.4-45.57-45.58-45.57-25.16,0-45.58,20.39-45.58,45.57,0,25.15,20.42,45.57,45.58,45.57,25.18,0,45.58-20.42,45.58-45.57z"/><polygon points="83.53,138.2,105.8,206.6,128.2,138.2,105.8,119.4" fill="#CCC" transform="matrix(0.99840231,0,0,0.99840231,-9.3546281,-19.219926)"/><polygon stroke-linejoin="miter" style="enable-background:accumulate;color:#000000;" fill-rule="nonzero" stroke-linecap="butt" transform="matrix(1.3869094,0,0,1.3869094,-54.233371,-84.19785)" stroke-dashoffset="0" stroke="#c47700" points="160,127.2,152.5,122.8,152.6,115.2,161.4,112,152.8,108.2,153.2,97.81,162.7,93.69,154.5,90.08,161.2,76.25,168.4,70.33,174.1,71.03,177.8,150.9,150.9,148.2,152.2,131.4" stroke-miterlimit="4" stroke-dasharray="none" stroke-width="1.44205526000000010" fill="url(#linearGradient3836)"/><path d="m173.4,117c-23.56,0-42.65,19.13-42.65,42.69s19.08,42.65,42.65,42.65c23.56,0,42.65-19.08,42.65-42.65,0-23.56-19.08-42.69-42.65-42.69zm0.5201,50.71c5.964,0,10.79,4.828,10.79,10.79,0,5.964-4.828,10.79-10.79,10.79-5.964,0-10.84-4.828-10.84-10.79,0-5.964,4.871-10.79,10.84-10.79z" stroke="#c37800" stroke-miterlimit="4" stroke-dasharray="none" stroke-width="2" fill="url(#linearGradient3879)"/></svg>
