<?xml version="1.0" encoding="UTF-8" standalone="no"?>

<svg
 xmlns:dc="http://purl.org/dc/elements/1.1/"
   xmlns:cc="http://creativecommons.org/ns#"
   xmlns:rdf="http://www.w3.org/1999/02/22-rdf-syntax-ns#"
   xmlns:svg="http://www.w3.org/2000/svg"
   xmlns="http://www.w3.org/2000/svg"
   xmlns:xlink="http://www.w3.org/1999/xlink"
   xmlns:sodipodi="http://sodipodi.sourceforge.net/DTD/sodipodi-0.dtd"
   xmlns:inkscape="http://www.inkscape.org/namespaces/inkscape"
   id="svg2"
   version="1.1"
   inkscape:version="0.47 r22583"
   width="100"
   height="100"
   sodipodi:docname="processconnection.svg">
  <metadata
     id="metadata62">
    <rdf:RDF>
      <cc:Work
         rdf:about="">
        <dc:format>image/svg+xml</dc:format>
        <dc:type
           rdf:resource="http://purl.org/dc/dcmitype/StillImage" />
      </cc:Work>
    </rdf:RDF>
  </metadata>
  <defs
     id="defs60">
    <linearGradient
       inkscape:collect="always"
       id="linearGradient3818">
      <stop
         style="stop-color:#729fcc;stop-opacity:1;"
         offset="0"
         id="stop3820" />
      <stop
         style="stop-color:#729fcc;stop-opacity:0;"
         offset="1"
         id="stop3822" />
    </linearGradient>
    <linearGradient
       inkscape:collect="always"
       id="linearGradient3810">
      <stop
         style="stop-color:#729fcc;stop-opacity:1;"
         offset="0"
         id="stop3812" />
      <stop
         style="stop-color:#729fcc;stop-opacity:0;"
         offset="1"
         id="stop3814" />
    </linearGradient>
    <linearGradient
       inkscape:collect="always"
       id="linearGradient3802">
      <stop
         style="stop-color:#77aa00;stop-opacity:1;"
         offset="0"
         id="stop3804" />
      <stop
         style="stop-color:#77aa00;stop-opacity:0;"
         offset="1"
         id="stop3806" />
    </linearGradient>
    <linearGradient
       inkscape:collect="always"
       id="linearGradient3794">
      <stop
         style="stop-color:#ff7711;stop-opacity:1;"
         offset="0"
         id="stop3796" />
      <stop
         style="stop-color:#ff7711;stop-opacity:0;"
         offset="1"
         id="stop3798" />
    </linearGradient>
    <linearGradient
       inkscape:collect="always"
       id="linearGradient3786">
      <stop
         style="stop-color:#8864b2;stop-opacity:1;"
         offset="0"
         id="stop3788" />
      <stop
         style="stop-color:#8864b2;stop-opacity:0;"
         offset="1"
         id="stop3790" />
    </linearGradient>
    <linearGradient
       inkscape:collect="always"
       id="linearGradient3778">
      <stop
         style="stop-color:#729fcc;stop-opacity:1;"
         offset="0"
         id="stop3780" />
      <stop
         style="stop-color:#729fcc;stop-opacity:0;"
         offset="1"
         id="stop3782" />
    </linearGradient>
    <linearGradient
       inkscape:collect="always"
       id="linearGradient3770">
      <stop
         style="stop-color:#c0e0ff;stop-opacity:1;"
         offset="0"
         id="stop3772" />
      <stop
         style="stop-color:#c0e0ff;stop-opacity:0;"
         offset="1"
         id="stop3774" />
    </linearGradient>
    <linearGradient
       inkscape:collect="always"
       id="linearGradient3762">
      <stop
         style="stop-color:#c0e0ff;stop-opacity:1;"
         offset="0"
         id="stop3764" />
      <stop
         style="stop-color:#c0e0ff;stop-opacity:0;"
         offset="1"
         id="stop3766" />
    </linearGradient>
    <linearGradient
       inkscape:collect="always"
       id="linearGradient3754">
      <stop
         style="stop-color:#729fcc;stop-opacity:1;"
         offset="0"
         id="stop3756" />
      <stop
         style="stop-color:#729fcc;stop-opacity:0;"
         offset="1"
         id="stop3758" />
    </linearGradient>
    <linearGradient
       inkscape:collect="always"
       id="linearGradient3746">
      <stop
         style="stop-color:#729fcc;stop-opacity:1;"
         offset="0"
         id="stop3748" />
      <stop
         style="stop-color:#729fcc;stop-opacity:0;"
         offset="1"
         id="stop3750" />
    </linearGradient>
    <linearGradient
       inkscape:collect="always"
       id="linearGradient3738">
      <stop
         style="stop-color:#c0e0ff;stop-opacity:1;"
         offset="0"
         id="stop3740" />
      <stop
         style="stop-color:#c0e0ff;stop-opacity:0;"
         offset="1"
         id="stop3742" />
    </linearGradient>
    <inkscape:perspective
       sodipodi:type="inkscape:persp3d"
       inkscape:vp_x="0 : 0.5 : 1"
       inkscape:vp_y="0 : 1000 : 0"
       inkscape:vp_z="1 : 0.5 : 1"
       inkscape:persp3d-origin="0.5 : 0.33333333 : 1"
       id="perspective64" />
    <linearGradient
       inkscape:collect="always"
       xlink:href="#linearGradient3738"
       id="linearGradient3744"
       x1="625"
       y1="753.90698"
       x2="835.93799"
       y2="753.90698"
       gradientUnits="userSpaceOnUse" />
    <linearGradient
       inkscape:collect="always"
       xlink:href="#linearGradient3746"
       id="linearGradient3752"
       x1="484.375"
       y1="796.875"
       x2="679.68701"
       y2="796.875"
       gradientUnits="userSpaceOnUse" />
    <linearGradient
       inkscape:collect="always"
       xlink:href="#linearGradient3754"
       id="linearGradient3760"
       x1="468.75"
       y1="523.43799"
       x2="656.25"
       y2="523.43799"
       gradientUnits="userSpaceOnUse" />
    <linearGradient
       inkscape:collect="always"
       xlink:href="#linearGradient3762"
       id="linearGradient3768"
       x1="453.125"
       y1="652.34399"
       x2="687.5"
       y2="652.34399"
       gradientUnits="userSpaceOnUse" />
    <linearGradient
       inkscape:collect="always"
       xlink:href="#linearGradient3770"
       id="linearGradient3776"
       x1="328.125"
       y1="753.90698"
       x2="515.625"
       y2="753.90698"
       gradientUnits="userSpaceOnUse" />
    <linearGradient
       inkscape:collect="always"
       xlink:href="#linearGradient3778"
       id="linearGradient3784"
       x1="343.75"
       y1="441.40701"
       x2="664.06201"
       y2="441.40701"
       gradientUnits="userSpaceOnUse" />
    <linearGradient
       inkscape:collect="always"
       xlink:href="#linearGradient3786"
       id="linearGradient3792"
       x1="31.25"
       y1="453.125"
       x2="398.43799"
       y2="453.125"
       gradientUnits="userSpaceOnUse" />
    <linearGradient
       inkscape:collect="always"
       xlink:href="#linearGradient3794"
       id="linearGradient3800"
       x1="242.188"
       y1="371.09399"
       x2="773.43799"
       y2="371.09399"
       gradientUnits="userSpaceOnUse" />
    <linearGradient
       inkscape:collect="always"
       xlink:href="#linearGradient3802"
       id="linearGradient3808"
       x1="406.25"
       y1="691.40601"
       x2="726.56201"
       y2="691.40601"
       gradientUnits="userSpaceOnUse" />
    <linearGradient
       inkscape:collect="always"
       xlink:href="#linearGradient3810"
       id="linearGradient3816"
       x1="851.56201"
       y1="675.78101"
       x2="984.37402"
       y2="675.78101"
       gradientUnits="userSpaceOnUse" />
    <linearGradient
       inkscape:collect="always"
       xlink:href="#linearGradient3818"
       id="linearGradient3824"
       x1="703.125"
       y1="441.40701"
       x2="976.56299"
       y2="441.40701"
       gradientUnits="userSpaceOnUse" />
  </defs>
  <sodipodi:namedview
     pagecolor="#ffffff"
     bordercolor="#666666"
     borderopacity="1"
     objecttolerance="10"
     gridtolerance="10"
     guidetolerance="10"
     inkscape:pageopacity="0"
     inkscape:pageshadow="2"
     inkscape:window-width="1280"
     inkscape:window-height="1002"
     id="namedview58"
     showgrid="false"
     inkscape:zoom="0.44851479"
     inkscape:cx="596.12105"
     inkscape:cy="375.88264"
     inkscape:window-x="1272"
     inkscape:window-y="-8"
     inkscape:window-maximized="1"
     inkscape:current-layer="svg2" />
  <title
     id="title4">Symbol library: processconnection.svg</title>
  <polygon
     points="1007.81,0 1007.81,1007.81 1007.81,1007.81 0,1007.81 0,0 "
     style="fill:#ffffff;fill-opacity:0;stroke:none"
     id="polygon6"
     transform="scale(0.09922505,0.09922505)" />
  <polygon
     points="298.881,651.415 267.209,627.419 148.438,739.398 148.438,747.397 211.783,795.388 267.209,827.382 338.472,843.38 409.735,851.378 473.079,851.378 528.507,835.381 583.933,811.386 631.441,779.392 702.704,859.376 734.376,523.438 734.376,523.438 726.458,523.438 409.735,555.432 512.669,659.413 465.162,675.41 409.735,683.409 370.145,683.409 338.472,667.411 "
     style="fill:#465900;fill-opacity:1;stroke:none"
     id="polygon8"
     transform="scale(0.09922505,0.09922505)" />
  <polygon
     points="164.062,739.514 219.52,787.623 274.978,819.695 346.281,835.731 409.661,843.75 473.041,835.731 528.499,819.695 583.956,795.641 631.492,763.568 694.872,835.731 726.562,539.062 433.429,563.117 433.429,563.117 528.499,659.334 473.041,691.406 409.661,699.424 370.049,691.406 330.436,683.388 298.745,667.351 267.055,643.298 "
     style="fill:#77aa00;fill-opacity:1;stroke:none"
     id="polygon10"
     transform="scale(0.09922505,0.09922505)" />
  <polygon
     points="39.8284,480.783 47.7941,536.099 55.7597,583.513 71.6911,630.927 95.5881,670.438 0,765.266 334.558,796.875 302.696,464.979 294.73,472.881 223.039,551.904 215.074,520.295 207.108,480.783 215.074,441.272 223.039,409.663 238.97,370.152 262.867,346.444 294.73,314.835 326.592,299.03 366.421,283.226 406.25,275.324 406.25,109.375 406.25,109.375 326.592,125.18 262.867,148.887 199.141,180.496 143.382,227.909 103.553,283.226 71.6911,338.542 47.7941,409.663 "
     style="fill:#4e3966;fill-opacity:1;stroke:none"
     id="polygon12"
     transform="scale(0.09922505,0.09922505)" />
  <polygon
     points="55.197,409.638 55.197,480.797 55.197,536.144 63.1794,583.584 87.1264,631.024 111.073,678.463 31.25,757.53 318.615,781.25 294.667,488.705 214.845,567.771 198.879,528.238 198.879,480.797 198.879,441.265 214.845,401.732 230.808,370.106 254.756,338.479 286.685,306.853 318.615,291.039 358.526,275.226 398.438,267.319 398.438,267.319 398.438,125 326.596,132.906 262.738,156.626 206.862,188.253 150.986,235.693 111.073,291.039 79.1441,346.385 "
     style="fill:url(#linearGradient3792);fill-opacity:1;stroke:none"
     id="polygon14"
     transform="scale(0.09922505,0.09922505)" />
  <polygon
     points="606.919,418.526 614.843,450.119 614.843,481.713 614.843,521.205 606.919,552.798 591.072,576.493 575.222,608.086 567.299,608.086 686.161,726.562 694.084,726.562 733.704,671.273 757.477,615.985 773.325,552.798 781.25,481.713 773.325,418.526 757.477,355.339 733.704,300.051 694.084,244.763 654.464,205.271 598.995,165.779 543.526,142.084 480.133,118.39 480.133,118.39 480.133,7.812 472.21,7.812 226.562,213.17 480.133,426.425 480.133,292.152 535.602,323.746 575.222,363.238 "
     style="fill:#99460d;fill-opacity:1;stroke:none"
     id="polygon16"
     transform="scale(0.09922505,0.09922505)" />
  <polygon
     points="583.139,355.287 598.998,386.9 614.856,418.514 622.785,450.127 630.714,481.74 622.785,521.258 614.856,552.871 606.926,584.484 583.139,608.194 686.218,710.938 725.863,663.518 749.651,608.194 765.508,544.967 773.438,481.74 765.508,418.514 749.651,355.287 717.935,299.964 686.218,252.544 638.643,205.124 591.069,173.51 535.565,149.801 472.132,133.993 472.132,133.993 472.132,31.25 242.188,213.028 472.132,402.708 472.132,276.254 503.848,292.06 535.565,307.868 559.352,331.577 "
     style="fill:url(#linearGradient3800);fill-opacity:1;stroke:none"
     id="polygon18"
     transform="scale(0.09922505,0.09922505)" />
  <polygon
     points="406.25,555.432 510.289,659.413 470.274,675.41 438.262,683.409 438.262,827.382 438.262,827.382 494.284,827.382 542.302,819.384 582.317,811.386 630.336,779.392 702.363,859.376 734.375,523.438 726.372,523.438 "
     style="fill:#465900;fill-opacity:1;stroke:none"
     id="polygon20"
     transform="scale(0.09922505,0.09922505)" />
  <polygon
     points="526.368,659.334 470.312,691.406 406.25,699.424 406.25,843.75 406.25,843.75 470.312,835.731 526.368,819.695 582.422,795.641 630.468,763.568 694.531,835.731 726.562,539.062 430.274,563.117 "
     style="fill:url(#linearGradient3808);fill-opacity:1;stroke:none"
     id="polygon22"
     transform="scale(0.09922505,0.09922505)" />
  <polygon
     points="539.063,801.463 539.063,793.526 458.244,690.352 522.899,523.686 522.899,515.749 522.899,507.812 514.817,507.812 312.769,507.812 312.769,507.812 304.688,507.812 304.688,515.749 304.688,999.876 304.688,1007.81 312.769,1007.81 458.244,1007.81 474.408,999.876 "
     style="fill:#333333;fill-opacity:1;stroke:none"
     id="polygon24"
     transform="scale(0.09922505,0.09922505)" />
  <polygon
     points="499.322,523.438 434.104,690.329 442.256,698.276 515.625,801.59 450.407,984.376 328.125,984.376 328.125,523.438 499.322,523.438 "
     style="fill:url(#linearGradient3776);fill-opacity:1;stroke:none"
     id="polygon26"
     transform="scale(0.09922505,0.09922505)" />
  <polygon
     points="695.313,359.553 695.313,351.562 679.214,351.562 679.214,351.562 502.131,511.363 502.131,519.353 429.688,695.134 437.737,703.124 445.785,703.124 453.835,703.124 630.919,503.373 "
     style="fill:#333333;fill-opacity:1;stroke:none"
     id="polygon28"
     transform="scale(0.09922505,0.09922505)" />
  <polygon
     points="517.663,527.471 656.25,398.438 656.25,398.438 615.489,495.212 468.75,648.438 "
     style="fill:url(#linearGradient3760);fill-opacity:1;stroke:none"
     id="polygon30"
     transform="scale(0.09922505,0.09922505)" />
  <polygon
     points="630.515,492.379 622.473,484.375 614.43,492.379 614.43,492.379 437.5,684.451 437.5,700.456 517.923,812.5 525.966,812.5 534.008,812.5 710.938,596.418 710.938,588.415 "
     style="fill:#333333;fill-opacity:1;stroke:none"
     id="polygon32"
     transform="scale(0.09922505,0.09922505)" />
  <polygon
     points="453.125,692.555 622.845,515.625 622.845,515.625 687.5,596.048 525.862,789.063 "
     style="fill:url(#linearGradient3768);fill-opacity:1;stroke:none"
     id="polygon34"
     transform="scale(0.09922505,0.09922505)" />
  <polygon
     points="710.937,594.039 710.937,586.083 710.937,578.125 702.887,578.125 694.839,586.083 694.839,586.083 517.756,792.968 517.756,800.926 445.312,991.899 445.312,999.856 453.362,1007.81 461.411,1007.81 646.543,792.968 "
     style="fill:#333333;fill-opacity:1;stroke:none"
     id="polygon36"
     transform="scale(0.09922505,0.09922505)" />
  <polygon
     points="533.203,808.895 679.687,640.625 679.687,640.625 630.859,784.856 484.375,953.125 "
     style="fill:url(#linearGradient3752);fill-opacity:1;stroke:none"
     id="polygon38"
     transform="scale(0.09922505,0.09922505)" />
  <polygon
     points="695.313,351.902 687.342,343.75 496.015,343.75 496.015,343.75 488.042,351.902 312.659,514.945 304.688,531.25 312.659,531.25 511.958,531.25 519.93,531.25 695.313,368.207 "
     style="fill:#333333;fill-opacity:1;stroke:none"
     id="polygon40"
     transform="scale(0.09922505,0.09922505)" />
  <polygon
     points="495.899,367.188 664.062,367.188 664.062,367.188 503.906,515.626 343.75,515.626 "
     style="fill:url(#linearGradient3784);fill-opacity:1;stroke:none"
     id="polygon42"
     transform="scale(0.09922505,0.09922505)" />
  <polygon
     points="633.568,1007.81 843.247,1007.81 851.311,1007.81 859.375,999.876 859.375,515.749 851.311,507.812 843.247,507.812 681.956,507.812 681.956,507.812 673.891,515.749 609.375,690.352 609.375,698.288 690.02,801.463 617.44,991.939 617.44,999.876 625.504,999.876 "
     style="fill:#333333;fill-opacity:1;stroke:none"
     id="polygon44"
     transform="scale(0.09922505,0.09922505)" />
  <polygon
     points="835.938,523.438 835.938,984.376 641.226,984.376 706.13,801.59 706.13,793.642 625,690.329 689.904,523.438 835.938,523.438 "
     style="fill:url(#linearGradient3744);fill-opacity:1;stroke:none"
     id="polygon46"
     transform="scale(0.09922505,0.09922505)" />
  <polygon
     points="1007.81,351.902 999.815,343.75 831.845,343.75 831.845,343.75 823.846,351.902 671.875,514.945 671.875,531.25 679.874,531.25 839.845,531.25 847.843,531.25 1007.81,368.207 "
     style="fill:#333333;fill-opacity:1;stroke:none"
     id="polygon48"
     transform="scale(0.09922505,0.09922505)" />
  <polygon
     points="839.845,367.188 976.563,367.188 976.563,367.188 839.845,515.626 703.125,515.626 "
     style="fill:url(#linearGradient3824);fill-opacity:1;stroke:none"
     id="polygon50"
     transform="scale(0.09922505,0.09922505)" />
  <polygon
     points="1007.81,359.469 999.646,351.562 991.478,351.562 991.478,351.562 836.293,509.694 828.125,517.602 828.125,999.905 836.293,1007.81 852.627,999.905 1007.81,794.333 1007.81,786.427 "
     style="fill:#333333;fill-opacity:1;stroke:none"
     id="polygon52"
     transform="scale(0.09922505,0.09922505)" />
  <polygon
     points="851.562,525.338 984.374,382.812 984.374,382.812 984.374,786.634 851.562,968.75 "
     style="fill:url(#linearGradient3816);fill-opacity:1;stroke:none"
     id="polygon54"
     transform="scale(0.09922505,0.09922505)" />
  <use
     href="#oid1"
     id="use56"
     x="0"
     y="0"
     width="744.09448"
     height="1052.3622"
     transform="translate(0,-907.81)" />
</svg>
