<?xml version="1.0" encoding="UTF-8" standalone="no"?>

<svg
 xmlns:dc="http://purl.org/dc/elements/1.1/"
   xmlns:cc="http://creativecommons.org/ns#"
   xmlns:rdf="http://www.w3.org/1999/02/22-rdf-syntax-ns#"
   xmlns:svg="http://www.w3.org/2000/svg"
   xmlns="http://www.w3.org/2000/svg"
   xmlns:xlink="http://www.w3.org/1999/xlink"
   xmlns:sodipodi="http://sodipodi.sourceforge.net/DTD/sodipodi-0.dtd"
   xmlns:inkscape="http://www.inkscape.org/namespaces/inkscape"
   id="svg2"
   version="1.1"
   inkscape:version="0.47 r22583"
   width="100"
   height="100"
   sodipodi:docname="processoutput.svg">
  <metadata
     id="metadata42">
    <rdf:RDF>
      <cc:Work
         rdf:about="">
        <dc:format>image/svg+xml</dc:format>
        <dc:type
           rdf:resource="http://purl.org/dc/dcmitype/StillImage" />
      </cc:Work>
    </rdf:RDF>
  </metadata>
  <defs
     id="defs40">
    <linearGradient
       inkscape:collect="always"
       id="linearGradient3710">
      <stop
         style="stop-color:#91aa55;stop-opacity:1;"
         offset="0"
         id="stop3712" />
      <stop
         style="stop-color:#91aa55;stop-opacity:0;"
         offset="1"
         id="stop3714" />
    </linearGradient>
    <linearGradient
       inkscape:collect="always"
       id="linearGradient3702">
      <stop
         style="stop-color:#007f99;stop-opacity:1;"
         offset="0"
         id="stop3704" />
      <stop
         style="stop-color:#007f99;stop-opacity:0;"
         offset="1"
         id="stop3706" />
    </linearGradient>
    <linearGradient
       inkscape:collect="always"
       id="linearGradient3694">
      <stop
         style="stop-color:#005099;stop-opacity:1;"
         offset="0"
         id="stop3696" />
      <stop
         style="stop-color:#005099;stop-opacity:0;"
         offset="1"
         id="stop3698" />
    </linearGradient>
    <linearGradient
       inkscape:collect="always"
       id="linearGradient3686">
      <stop
         style="stop-color:#007199;stop-opacity:1;"
         offset="0"
         id="stop3688" />
      <stop
         style="stop-color:#007199;stop-opacity:0;"
         offset="1"
         id="stop3690" />
    </linearGradient>
    <linearGradient
       inkscape:collect="always"
       id="linearGradient3678">
      <stop
         style="stop-color:#ffbb88;stop-opacity:1;"
         offset="0"
         id="stop3680" />
      <stop
         style="stop-color:#ffbb88;stop-opacity:0;"
         offset="1"
         id="stop3682" />
    </linearGradient>
    <linearGradient
       inkscape:collect="always"
       id="linearGradient3670">
      <stop
         style="stop-color:#9d8bb2;stop-opacity:1;"
         offset="0"
         id="stop3672" />
      <stop
         style="stop-color:#9d8bb2;stop-opacity:0;"
         offset="1"
         id="stop3674" />
    </linearGradient>
    <inkscape:perspective
       sodipodi:type="inkscape:persp3d"
       inkscape:vp_x="0 : 0.5 : 1"
       inkscape:vp_y="0 : 1000 : 0"
       inkscape:vp_z="1 : 0.5 : 1"
       inkscape:persp3d-origin="0.5 : 0.33333333 : 1"
       id="perspective44" />
    <linearGradient
       inkscape:collect="always"
       xlink:href="#linearGradient3670"
       id="linearGradient3676"
       x1="140.625"
       y1="453.125"
       x2="515.625"
       y2="453.125"
       gradientUnits="userSpaceOnUse" />
    <linearGradient
       inkscape:collect="always"
       xlink:href="#linearGradient3678"
       id="linearGradient3684"
       x1="359.375"
       y1="367.18799"
       x2="882.81299"
       y2="367.18799"
       gradientUnits="userSpaceOnUse" />
    <linearGradient
       inkscape:collect="always"
       xlink:href="#linearGradient3686"
       id="linearGradient3692"
       x1="515.625"
       y1="789.06299"
       x2="835.93701"
       y2="789.06299"
       gradientUnits="userSpaceOnUse" />
    <linearGradient
       inkscape:collect="always"
       xlink:href="#linearGradient3694"
       id="linearGradient3700"
       x1="195.312"
       y1="789.06299"
       x2="507.81201"
       y2="789.06299"
       gradientUnits="userSpaceOnUse" />
    <linearGradient
       inkscape:collect="always"
       xlink:href="#linearGradient3702"
       id="linearGradient3708"
       x1="210.938"
       y1="597.65601"
       x2="820.31299"
       y2="597.65601"
       gradientUnits="userSpaceOnUse" />
    <linearGradient
       inkscape:collect="always"
       xlink:href="#linearGradient3710"
       id="linearGradient3716"
       x1="523.43799"
       y1="691.40601"
       x2="835.93799"
       y2="691.40601"
       gradientUnits="userSpaceOnUse" />
  </defs>
  <sodipodi:namedview
     pagecolor="#ffffff"
     bordercolor="#666666"
     borderopacity="1"
     objecttolerance="10"
     gridtolerance="10"
     guidetolerance="10"
     inkscape:pageopacity="0"
     inkscape:pageshadow="2"
     inkscape:window-width="1280"
     inkscape:window-height="1002"
     id="namedview38"
     showgrid="false"
     inkscape:zoom="0.63429569"
     inkscape:cx="305.88005"
     inkscape:cy="499.12482"
     inkscape:window-x="1272"
     inkscape:window-y="-8"
     inkscape:window-maximized="1"
     inkscape:current-layer="svg2" />
  <title
     id="title4">Symbol library: processoutput.svg</title>
  <polygon
     points="1007.81,1007.81 1007.81,1007.81 0,1007.81 0,0 1007.81,0 "
     style="fill:#ffffff;fill-opacity:0;stroke:none"
     id="polygon6"
     transform="scale(0.09922505,0.09922505)" />
  <polygon
     points="384.396,827.553 455.659,843.56 526.922,851.563 582.348,843.56 637.774,835.557 693.201,811.548 740.71,779.536 819.891,851.563 851.563,523.438 851.563,523.438 843.645,523.438 519.004,555.45 621.939,659.49 574.43,675.496 526.922,683.499 487.331,675.496 447.74,667.492 416.068,651.487 384.396,627.477 376.478,619.475 265.625,739.52 265.625,747.524 321.051,787.539 "
     style="fill:#50592d;fill-opacity:1;stroke:none"
     id="polygon8"
     transform="scale(0.09922505,0.09922505)" />
  <polygon
     points="645.759,819.695 693.304,795.641 748.773,763.568 812.166,827.713 835.938,539.062 550.67,563.117 550.67,563.117 645.759,659.334 582.366,683.388 526.898,691.406 487.277,691.406 447.656,683.388 415.959,659.334 384.263,635.279 281.25,739.514 328.795,779.605 392.188,811.678 455.581,835.731 526.898,843.75 582.366,835.731 "
     style="fill:#91aa55;fill-opacity:1;stroke:none"
     id="polygon10"
     transform="scale(0.09922505,0.09922505)" />
  <polygon
     points="451.746,789.063 419.883,465.026 411.918,472.929 332.261,544.059 324.295,512.445 324.295,480.832 324.295,441.316 340.227,401.799 356.158,370.186 380.055,338.573 411.918,314.862 443.781,299.055 475.644,283.249 515.472,275.346 523.438,275.346 523.438,109.375 515.472,109.375 515.472,109.375 443.781,117.279 372.09,140.988 316.33,180.506 260.57,220.022 220.742,275.346 180.914,338.573 164.981,409.702 157.016,480.832 157.016,528.253 172.947,583.576 188.879,623.093 212.776,670.512 117.188,757.45 "
     style="fill:#5a5066;fill-opacity:1;stroke:none"
     id="polygon12"
     transform="scale(0.09922505,0.09922505)" />
  <polygon
     points="140.625,749.624 435.839,781.25 411.902,488.705 332.115,567.771 316.157,528.238 308.179,480.797 316.157,441.265 324.135,401.732 348.072,362.199 372.009,338.479 395.944,306.853 435.839,291.039 467.754,275.226 515.625,267.319 515.625,267.319 515.625,125 443.817,132.906 379.987,156.626 316.157,188.253 268.285,235.693 228.391,283.132 196.476,346.385 172.54,409.638 164.561,480.797 172.54,528.238 180.519,583.584 196.476,631.024 220.412,670.556 "
     style="fill:url(#linearGradient3676);fill-opacity:1;stroke:none"
     id="polygon14"
     transform="scale(0.09922505,0.09922505)" />
  <polygon
     points="684.487,608.1 803.349,726.562 811.273,718.665 842.97,671.28 874.666,608.1 890.513,544.921 898.438,481.742 890.513,418.562 874.666,355.383 842.97,300.102 811.273,244.82 763.728,205.333 716.184,165.845 660.715,134.256 597.322,118.462 597.322,118.462 597.322,0 589.398,7.89691 343.75,213.231 597.322,418.562 597.322,292.204 652.791,323.793 692.411,363.281 716.184,418.562 724.107,450.152 732.031,481.742 724.107,513.331 716.184,544.921 708.259,576.511 "
     style="fill:#997053;fill-opacity:1;stroke:none"
     id="polygon16"
     transform="scale(0.09922505,0.09922505)" />
  <polygon
     points="732.126,544.989 716.265,576.598 700.402,608.208 803.504,710.938 835.228,655.622 866.951,600.306 882.813,544.989 882.813,481.771 882.813,418.552 859.02,355.334 835.228,300.018 795.573,252.604 755.919,205.191 700.402,173.581 644.887,141.972 581.44,126.167 581.44,126.167 581.44,23.438 359.375,213.093 581.44,394.846 581.44,276.312 621.095,284.214 644.887,307.921 676.61,323.725 700.402,355.334 716.265,379.041 732.126,410.65 740.057,450.161 740.057,481.771 740.057,513.38 "
     style="fill:url(#linearGradient3684);fill-opacity:1;stroke:none"
     id="polygon18"
     transform="scale(0.09922505,0.09922505)" />
  <polygon
     points="603.608,819.551 651.6,819.551 699.591,803.545 739.584,779.536 819.569,851.563 851.563,523.438 843.565,523.438 515.625,555.45 619.606,659.49 587.612,675.496 547.619,683.499 547.619,819.551 547.619,819.551 "
     style="fill:#50592d;fill-opacity:1;stroke:none"
     id="polygon20"
     transform="scale(0.09922505,0.09922505)" />
  <polygon
     points="643.63,819.695 691.707,795.641 747.797,763.568 811.9,827.713 835.938,539.062 547.476,563.117 643.63,659.334 579.527,683.388 523.438,691.406 523.438,843.75 523.438,843.75 579.527,835.731 "
     style="fill:url(#linearGradient3716);fill-opacity:1;stroke:none"
     id="polygon22"
     transform="scale(0.09922505,0.09922505)" />
  <polygon
     points="507.994,1007.81 515.988,1007.81 843.75,808.949 843.75,800.994 843.75,578.267 835.755,570.312 835.755,570.312 507.994,769.176 500,777.131 500,999.857 "
     style="fill:#143a72;fill-opacity:1;stroke:none"
     id="polygon24"
     transform="scale(0.09922505,0.09922505)" />
  <polygon
     points="835.937,801.011 515.625,992.188 515.625,785.08 635.741,705.423 635.741,705.423 835.937,585.938 "
     style="fill:url(#linearGradient3692);fill-opacity:1;stroke:none"
     id="polygon26"
     transform="scale(0.09922505,0.09922505)" />
  <polygon
     points="515.443,1007.81 523.438,999.857 523.438,777.131 523.438,769.176 187.682,570.312 179.688,570.312 179.688,570.312 179.688,578.267 179.688,800.994 179.688,808.949 "
     style="fill:#143a72;fill-opacity:1;stroke:none"
     id="polygon28"
     transform="scale(0.09922505,0.09922505)" />
  <polygon
     points="195.312,585.938 195.312,585.938 507.812,785.08 507.812,992.188 195.312,801.011 "
     style="fill:url(#linearGradient3700);fill-opacity:1;stroke:none"
     id="polygon30"
     transform="scale(0.09922505,0.09922505)" />
  <polygon
     points="401.042,414.062 401.042,414.062 393.136,422.041 393.136,573.636 187.593,573.636 179.688,581.615 179.688,589.595 511.718,789.062 519.624,789.062 843.75,589.595 843.75,581.615 835.844,573.636 630.301,573.636 630.301,422.041 622.396,414.062 "
     style="fill:#143a72;fill-opacity:1;stroke:none"
     id="polygon32"
     transform="scale(0.09922505,0.09922505)" />
  <polygon
     points="511.668,773.437 210.938,589.666 400.873,589.666 408.787,581.676 408.787,421.875 614.55,421.875 614.55,421.875 614.55,581.676 622.464,589.666 820.313,589.666 "
     style="fill:url(#linearGradient3708);fill-opacity:1;stroke:none"
     id="polygon34"
     transform="scale(0.09922505,0.09922505)" />
  <use
     href="#oid1"
     id="use36"
     x="0"
     y="0"
     width="744.09448"
     height="1052.3622"
     transform="translate(0,-907.81)" />
</svg>
