<?xml version="1.0" encoding="UTF-8" standalone="no"?>

<svg
 xmlns:dc="http://purl.org/dc/elements/1.1/"
   xmlns:cc="http://creativecommons.org/ns#"
   xmlns:rdf="http://www.w3.org/1999/02/22-rdf-syntax-ns#"
   xmlns:svg="http://www.w3.org/2000/svg"
   xmlns="http://www.w3.org/2000/svg"
   xmlns:xlink="http://www.w3.org/1999/xlink"
   xmlns:sodipodi="http://sodipodi.sourceforge.net/DTD/sodipodi-0.dtd"
   xmlns:inkscape="http://www.inkscape.org/namespaces/inkscape"
   id="svg2"
   version="1.1"
   inkscape:version="0.47 r22583"
   width="100"
   height="100"
   sodipodi:docname="processmechanism.svg">
  <metadata
     id="metadata88">
    <rdf:RDF>
      <cc:Work
         rdf:about="">
        <dc:format>image/svg+xml</dc:format>
        <dc:type
           rdf:resource="http://purl.org/dc/dcmitype/StillImage" />
      </cc:Work>
    </rdf:RDF>
  </metadata>
  <defs
     id="defs86">
    <linearGradient
       inkscape:collect="always"
       id="linearGradient3732">
      <stop
         style="stop-color:#c49749;stop-opacity:1;"
         offset="0"
         id="stop3734" />
      <stop
         style="stop-color:#c49749;stop-opacity:0;"
         offset="1"
         id="stop3736" />
    </linearGradient>
    <linearGradient
       inkscape:collect="always"
       id="linearGradient3724">
      <stop
         style="stop-color:#c49749;stop-opacity:1;"
         offset="0"
         id="stop3726" />
      <stop
         style="stop-color:#c49749;stop-opacity:0;"
         offset="1"
         id="stop3728" />
    </linearGradient>
    <linearGradient
       inkscape:collect="always"
       id="linearGradient3716">
      <stop
         style="stop-color:#f2ca8f;stop-opacity:1;"
         offset="0"
         id="stop3718" />
      <stop
         style="stop-color:#f2ca8f;stop-opacity:0;"
         offset="1"
         id="stop3720" />
    </linearGradient>
    <linearGradient
       inkscape:collect="always"
       id="linearGradient3708">
      <stop
         style="stop-color:#f2ca8f;stop-opacity:1;"
         offset="0"
         id="stop3710" />
      <stop
         style="stop-color:#f2ca8f;stop-opacity:0;"
         offset="1"
         id="stop3712" />
    </linearGradient>
    <linearGradient
       inkscape:collect="always"
       id="linearGradient3700">
      <stop
         style="stop-color:#cccccc;stop-opacity:1;"
         offset="0"
         id="stop3702" />
      <stop
         style="stop-color:#cccccc;stop-opacity:0;"
         offset="1"
         id="stop3704" />
    </linearGradient>
    <linearGradient
       inkscape:collect="always"
       id="linearGradient3692">
      <stop
         style="stop-color:#cccccc;stop-opacity:1;"
         offset="0"
         id="stop3694" />
      <stop
         style="stop-color:#cccccc;stop-opacity:0;"
         offset="1"
         id="stop3696" />
    </linearGradient>
    <linearGradient
       inkscape:collect="always"
       id="linearGradient3684">
      <stop
         style="stop-color:#77aa00;stop-opacity:1;"
         offset="0"
         id="stop3686" />
      <stop
         style="stop-color:#77aa00;stop-opacity:0;"
         offset="1"
         id="stop3688" />
    </linearGradient>
    <linearGradient
       inkscape:collect="always"
       id="linearGradient3676">
      <stop
         style="stop-color:#ff7711;stop-opacity:1;"
         offset="0"
         id="stop3678" />
      <stop
         style="stop-color:#ff7711;stop-opacity:0;"
         offset="1"
         id="stop3680" />
    </linearGradient>
    <linearGradient
       inkscape:collect="always"
       id="linearGradient3668">
      <stop
         style="stop-color:#8864b2;stop-opacity:1;"
         offset="0"
         id="stop3670" />
      <stop
         style="stop-color:#8864b2;stop-opacity:0;"
         offset="1"
         id="stop3672" />
    </linearGradient>
    <inkscape:perspective
       sodipodi:type="inkscape:persp3d"
       inkscape:vp_x="0 : 0.5 : 1"
       inkscape:vp_y="0 : 1000 : 0"
       inkscape:vp_z="1 : 0.5 : 1"
       inkscape:persp3d-origin="0.5 : 0.33333333 : 1"
       id="perspective90" />
    <linearGradient
       inkscape:collect="always"
       xlink:href="#linearGradient3668"
       id="linearGradient3674"
       x1="39.0625"
       y1="429.68799"
       x2="390.625"
       y2="429.68799"
       gradientUnits="userSpaceOnUse" />
    <linearGradient
       inkscape:collect="always"
       xlink:href="#linearGradient3676"
       id="linearGradient3682"
       x1="242.188"
       y1="347.65701"
       x2="742.18799"
       y2="347.65701"
       gradientUnits="userSpaceOnUse" />
    <linearGradient
       inkscape:collect="always"
       xlink:href="#linearGradient3684"
       id="linearGradient3690"
       x1="398.43799"
       y1="652.34302"
       x2="695.31299"
       y2="652.34302"
       gradientUnits="userSpaceOnUse" />
    <linearGradient
       inkscape:collect="always"
       xlink:href="#linearGradient3692"
       id="linearGradient3698"
       x1="507.81201"
       y1="570.3125"
       x2="617.18701"
       y2="570.3125"
       gradientUnits="userSpaceOnUse" />
    <linearGradient
       inkscape:collect="always"
       xlink:href="#linearGradient3700"
       id="linearGradient3706"
       x1="390.625"
       y1="570.3125"
       x2="718.75"
       y2="570.3125"
       gradientUnits="userSpaceOnUse" />
    <linearGradient
       inkscape:collect="always"
       xlink:href="#linearGradient3708"
       id="linearGradient3714"
       x1="617.18799"
       y1="859.375"
       x2="710.93799"
       y2="859.375"
       gradientUnits="userSpaceOnUse" />
    <linearGradient
       inkscape:collect="always"
       xlink:href="#linearGradient3716"
       id="linearGradient3722"
       x1="515.625"
       y1="855.46899"
       x2="804.68701"
       y2="855.46899"
       gradientUnits="userSpaceOnUse" />
    <linearGradient
       inkscape:collect="always"
       xlink:href="#linearGradient3724"
       id="linearGradient3730"
       x1="820.31201"
       y1="664.06299"
       x2="906.25"
       y2="664.06299"
       gradientUnits="userSpaceOnUse" />
    <linearGradient
       inkscape:collect="always"
       xlink:href="#linearGradient3732"
       id="linearGradient3738"
       x1="726.56201"
       y1="664.0625"
       x2="992.18701"
       y2="664.0625"
       gradientUnits="userSpaceOnUse" />
  </defs>
  <sodipodi:namedview
     pagecolor="#ffffff"
     bordercolor="#666666"
     borderopacity="1"
     objecttolerance="10"
     gridtolerance="10"
     guidetolerance="10"
     inkscape:pageopacity="0"
     inkscape:pageshadow="2"
     inkscape:window-width="1280"
     inkscape:window-height="1002"
     id="namedview84"
     showgrid="false"
     inkscape:zoom="0.63429569"
     inkscape:cx="610.20986"
     inkscape:cy="442.77375"
     inkscape:window-x="1272"
     inkscape:window-y="-8"
     inkscape:window-maximized="1"
     inkscape:current-layer="svg2" />
  <title
     id="title4">Symbol library: processmechanism.svg</title>
  <polygon
     points="1007.81,0 1007.81,1007.81 1007.81,1007.81 0,1007.81 0,0 "
     style="fill:#ffffff;fill-opacity:0;stroke:none"
     id="polygon6"
     transform="scale(0.09922505,0.09922505)" />
  <polygon
     points="291.043,620.193 267.276,596.154 259.353,588.141 148.438,700.32 156.36,708.333 203.895,748.398 267.276,780.449 330.656,804.487 401.959,804.487 457.417,804.487 512.874,788.461 560.41,772.435 607.944,740.384 679.248,812.5 710.938,500 710.938,500 703.015,500 394.036,524.039 489.107,620.193 449.494,644.231 401.959,652.244 362.346,644.231 330.656,636.217 "
     style="fill:#465900;fill-opacity:1;stroke:none"
     id="polygon8"
     transform="scale(0.09922505,0.09922505)" />
  <polygon
     points="164.062,700.52 219.566,740.668 275.07,772.786 338.503,788.845 401.936,796.874 457.439,796.874 512.942,780.816 560.518,756.727 608.091,724.609 671.524,788.845 695.312,507.812 417.793,531.901 417.793,531.901 512.942,628.255 457.439,652.344 401.936,660.373 362.29,652.344 322.644,644.314 290.928,628.255 259.211,604.166 "
     style="fill:#77aa00;fill-opacity:1;stroke:none"
     id="polygon10"
     transform="scale(0.09922505,0.09922505)" />
  <polygon
     points="47.526,457.369 55.5012,504.822 63.4765,552.276 79.427,591.821 103.352,639.274 15.625,726.273 326.659,750 294.758,441.551 286.784,449.459 215.007,520.64 207.031,489.004 207.031,457.369 215.007,417.823 222.981,386.188 238.932,354.552 262.857,322.916 286.784,299.19 318.685,283.372 358.56,267.554 390.461,259.644 398.437,259.644 398.437,109.375 390.461,109.375 390.461,109.375 326.659,117.284 254.882,133.101 199.055,172.647 151.205,212.192 103.352,259.644 79.427,322.916 55.5012,386.188 "
     style="fill:#4e3966;fill-opacity:1;stroke:none"
     id="polygon12"
     transform="scale(0.09922505,0.09922505)" />
  <polygon
     points="63.0327,394.086 63.0327,457.378 63.0327,504.846 71.0227,552.314 87.0028,599.783 110.973,639.339 39.0625,710.542 318.714,742.188 286.754,465.29 214.844,536.492 198.863,496.935 198.863,457.378 198.863,417.82 214.844,378.264 230.823,346.618 254.794,314.972 278.765,291.238 310.725,275.416 350.675,259.592 390.625,251.681 390.625,251.681 390.625,117.188 318.714,125.099 254.794,148.834 198.863,180.479 150.924,220.036 110.973,267.504 87.0028,330.795 "
     style="fill:url(#linearGradient3674);fill-opacity:1;stroke:none"
     id="polygon14"
     transform="scale(0.09922505,0.09922505)" />
  <polygon
     points="583.451,395.115 591.383,426.724 591.383,458.333 591.383,489.942 583.451,521.551 567.59,545.258 551.728,576.867 662.76,687.5 670.69,687.5 702.414,632.183 726.207,576.867 742.069,521.551 750,458.333 742.069,395.115 726.207,339.799 702.414,284.483 670.69,237.069 631.037,189.655 583.451,158.046 527.936,134.338 464.489,110.632 464.489,110.632 464.489,0 456.558,7.90179 226.562,197.557 464.489,403.017 464.489,276.581 520.004,308.19 559.659,347.701 "
     style="fill:#99460d;fill-opacity:1;stroke:none"
     id="polygon16"
     transform="scale(0.09922505,0.09922505)" />
  <polygon
     points="559.649,331.841 583.458,363.473 591.395,395.104 599.331,426.735 607.267,458.366 599.331,489.997 591.395,521.628 583.458,553.26 567.585,576.982 662.823,671.876 694.569,624.43 718.379,569.075 734.251,513.72 742.188,458.366 734.251,395.104 718.379,339.75 694.569,284.395 662.823,236.948 615.204,197.408 567.585,165.777 512.029,142.054 456.473,126.239 456.473,126.239 456.473,23.438 242.188,197.408 456.473,379.288 456.473,260.671 488.219,276.487 512.029,292.302 543.775,308.119 "
     style="fill:url(#linearGradient3682);fill-opacity:1;stroke:none"
     id="polygon18"
     transform="scale(0.09922505,0.09922505)" />
  <polygon
     points="390.625,524.039 486.719,620.193 454.687,644.231 422.656,652.244 422.656,780.449 422.656,780.449 478.71,780.449 518.75,780.449 558.789,764.422 606.835,740.384 678.906,812.5 710.937,500 702.929,500 "
     style="fill:#465900;fill-opacity:1;stroke:none"
     id="polygon20"
     transform="scale(0.09922505,0.09922505)" />
  <polygon
     points="510.768,628.255 454.603,652.344 398.438,660.373 398.438,796.874 398.438,796.874 454.603,796.874 510.768,780.816 558.911,756.727 607.052,724.609 671.241,788.845 695.313,507.812 414.484,531.901 "
     style="fill:url(#linearGradient3690);fill-opacity:1;stroke:none"
     id="polygon22"
     transform="scale(0.09922505,0.09922505)" />
  <polygon
     points="390.988,486.683 430.96,502.663 422.965,550.603 375,542.613 375,550.603 375,574.573 375,606.533 382.994,614.524 430.96,590.554 446.947,630.504 406.977,662.464 414.97,670.454 438.953,694.424 470.93,718.395 494.913,678.444 534.883,686.435 526.89,734.374 534.883,734.374 566.86,734.374 598.837,726.384 606.831,726.384 590.843,686.435 630.814,662.464 654.797,694.424 662.79,694.424 686.773,670.454 702.761,638.493 662.79,614.524 678.779,574.573 718.75,582.564 718.75,574.573 718.75,542.613 718.75,510.653 710.755,502.663 670.784,518.643 646.802,478.693 686.773,454.723 678.779,446.732 654.797,422.763 630.814,406.783 622.82,398.793 606.831,446.732 558.867,430.753 566.86,382.812 558.867,382.812 526.89,382.812 494.913,390.803 494.913,390.803 486.918,390.803 502.907,438.743 462.936,462.713 438.953,422.763 430.96,430.753 406.977,454.723 390.988,478.693 "
     style="fill:#333333;fill-opacity:1;stroke:none"
     id="polygon24"
     transform="scale(0.09922505,0.09922505)" />
  <polygon
     points="710.937,558.499 710.937,566.502 670.921,558.499 654.916,622.524 694.931,638.529 662.919,678.545 630.907,646.532 574.885,678.545 590.892,718.56 542.873,726.563 550.876,678.545 486.852,662.539 470.846,702.553 446.836,686.548 422.828,670.541 462.843,638.529 430.831,582.508 390.816,598.514 382.812,558.499 382.812,550.496 430.831,558.499 446.836,494.475 406.822,478.468 438.834,438.453 462.843,470.465 518.864,438.453 502.858,398.438 558.88,398.438 558.88,398.438 550.876,438.453 614.901,454.459 630.907,414.443 670.921,446.455 638.909,478.468 670.921,534.49 702.933,518.483 "
     style="fill:#333333;fill-opacity:1;stroke:none"
     id="polygon26"
     transform="scale(0.09922505,0.09922505)" />
  <polygon
     points="430.753,558.416 382.812,550.426 382.812,582.386 390.803,614.346 390.803,622.337 438.743,598.366 462.713,638.316 414.772,670.276 422.763,678.267 446.732,702.236 478.693,726.207 486.683,726.207 502.663,686.257 542.613,694.247 542.613,742.187 582.564,742.187 614.524,734.196 598.544,694.247 638.493,670.276 670.454,702.236 694.424,678.267 710.404,646.306 718.395,638.316 678.444,622.337 686.435,582.386 734.374,582.386 734.374,550.426 726.384,510.475 678.444,526.456 662.464,486.506 694.424,454.545 670.454,430.576 638.493,414.595 630.504,406.605 614.524,454.545 574.573,438.565 574.573,390.625 534.623,390.625 502.663,398.616 502.663,398.616 518.643,446.555 478.693,462.536 446.732,430.576 422.763,454.545 398.793,486.506 398.793,494.496 438.743,510.475 "
     style="fill:#333333;fill-opacity:1;stroke:none"
     id="polygon28"
     transform="scale(0.09922505,0.09922505)" />
  <polygon
     points="718.75,566.311 718.75,574.314 678.734,566.311 662.728,630.336 702.743,646.342 670.731,686.358 646.722,654.345 590.701,686.358 606.706,726.372 550.686,734.375 558.689,686.358 494.665,670.351 478.658,710.366 454.649,694.36 430.641,670.351 470.655,646.342 446.646,590.321 398.629,606.326 390.625,566.311 390.625,558.309 438.643,566.311 454.649,502.287 414.634,486.281 446.646,446.265 470.655,478.277 526.677,446.265 510.67,406.25 566.692,406.25 566.692,406.25 558.689,446.265 622.714,462.272 638.719,422.256 678.734,454.268 646.722,478.277 678.734,534.299 718.75,526.296 "
     style="fill:url(#linearGradient3706);fill-opacity:1;stroke:none"
     id="polygon30"
     transform="scale(0.09922505,0.09922505)" />
  <polygon
     points="585.937,574.999 585.937,574.999 576.562,593.75 557.813,593.75 539.062,584.375 539.062,556.25 548.437,546.875 567.187,546.875 585.937,556.25 "
     style="fill:#000000;fill-opacity:1;stroke:none"
     id="polygon32"
     transform="scale(0.09922505,0.09922505)" />
  <polygon
     points="591.667,624.512 608.332,607.909 625,583.008 625,566.406 616.666,533.203 600,516.601 574.999,508.3 550,500 533.333,508.3 533.333,508.3 508.333,524.903 500,549.804 500,574.706 508.333,599.609 525,616.211 541.666,632.812 566.666,632.812 "
     style="fill:#333333;fill-opacity:1;stroke:none"
     id="polygon34"
     transform="scale(0.09922505,0.09922505)" />
  <polygon
     points="575.119,515.625 591.947,524.039 608.773,540.865 617.187,557.693 617.187,582.932 600.36,599.759 591.947,616.586 566.706,625 549.88,616.586 549.88,616.586 524.64,608.172 516.226,591.346 507.812,574.518 507.812,549.279 516.226,532.452 533.053,524.039 558.294,515.625 "
     style="fill:url(#linearGradient3698);fill-opacity:1;stroke:none"
     id="polygon36"
     transform="scale(0.09922505,0.09922505)" />
  <polygon
     points="566.964,539.062 549.107,539.062 549.107,539.062 531.25,556.92 531.25,583.705 549.107,601.562 575.892,592.634 593.75,574.776 593.75,565.848 584.821,547.991 "
     style="fill:#333333;fill-opacity:1;stroke:none"
     id="polygon38"
     transform="scale(0.09922505,0.09922505)" />
  <polygon
     points="558.594,585.938 558.594,585.938 548.828,576.171 539.062,566.406 548.828,546.875 568.36,546.875 578.125,556.641 578.125,576.171 568.36,585.938 "
     style="fill:#333333;fill-opacity:1;stroke:none"
     id="polygon40"
     transform="scale(0.09922505,0.09922505)" />
  <polygon
     points="593.75,578.125 593.75,578.125 585.938,570.312 "
     style="fill:#333333;fill-opacity:1;stroke:none"
     id="polygon42"
     transform="scale(0.09922505,0.09922505)" />
  <polygon
     points="548.109,799.548 540.09,831.62 500,831.62 500,887.746 548.109,879.729 564.145,911.801 524.055,935.855 532.072,943.873 548.109,967.928 580.181,983.964 604.235,951.891 636.307,959.91 628.29,1000 636.307,1000 668.38,1000 692.435,991.982 700.452,991.982 684.417,959.91 724.507,935.855 740.543,967.928 748.562,967.928 764.597,943.873 780.634,919.819 788.652,919.819 748.562,903.783 764.597,863.692 804.688,871.711 804.688,863.692 804.688,831.62 796.669,807.566 796.669,799.548 756.579,815.584 740.543,783.512 772.616,759.457 772.616,751.439 748.562,735.403 724.507,719.367 716.489,711.349 700.452,751.439 668.38,735.403 676.398,695.312 668.38,695.312 636.307,695.312 612.253,703.331 612.253,703.331 604.235,703.331 620.272,743.422 580.181,759.457 556.127,727.384 532.072,751.439 516.036,775.494 516.036,783.512 "
     style="fill:#333333;fill-opacity:1;stroke:none"
     id="polygon44"
     transform="scale(0.09922505,0.09922505)" />
  <polygon
     points="796.874,847.545 788.845,855.58 756.727,855.58 740.668,903.795 772.786,919.866 748.698,952.009 724.609,927.902 676.432,952.009 684.462,984.152 644.314,992.188 652.344,952.009 596.137,935.938 580.078,968.081 539.93,935.938 580.078,911.831 547.96,863.616 515.842,879.688 507.812,847.545 507.812,839.51 547.96,847.545 564.019,791.294 531.901,775.224 555.99,743.081 580.078,775.224 628.255,743.081 620.226,710.938 660.373,710.938 660.373,710.938 652.344,743.081 708.55,759.151 724.609,727.008 756.727,759.151 732.638,775.224 756.727,823.437 788.845,815.402 "
     style="fill:#333333;fill-opacity:1;stroke:none"
     id="polygon46"
     transform="scale(0.09922505,0.09922505)" />
  <polygon
     points="547.903,839.433 507.812,831.415 507.812,839.433 507.812,887.541 515.831,895.56 555.921,879.523 571.957,911.596 531.867,943.668 539.884,951.686 555.921,967.722 587.994,991.777 612.048,959.704 644.12,967.722 636.101,1007.81 644.12,1007.81 676.192,1007.81 700.246,999.795 708.264,999.795 692.228,959.704 732.318,943.668 748.355,975.741 756.373,975.741 780.428,951.686 796.463,927.632 796.463,919.614 764.391,903.578 772.409,871.506 812.5,879.523 812.5,871.506 812.5,839.433 804.481,815.378 804.481,807.361 772.409,815.378 748.355,783.306 780.428,767.27 780.428,759.251 756.373,735.197 732.318,719.161 708.264,751.234 676.192,743.216 684.211,703.125 676.192,703.125 644.12,703.125 620.066,711.144 620.066,711.144 612.048,711.144 628.084,743.216 587.994,767.27 563.939,735.197 539.884,759.251 523.849,783.306 555.921,807.361 "
     style="fill:#333333;fill-opacity:1;stroke:none"
     id="polygon48"
     transform="scale(0.09922505,0.09922505)" />
  <polygon
     points="804.687,855.468 796.657,863.498 764.539,855.468 748.481,911.675 780.599,927.734 756.51,959.852 732.421,927.734 684.245,959.852 692.274,991.97 652.127,1000 660.156,959.852 603.949,943.793 587.891,975.911 547.743,943.793 587.891,919.705 555.773,871.528 523.655,879.557 515.625,855.468 515.625,847.439 555.773,855.468 571.831,799.262 539.713,783.203 563.802,751.085 587.891,775.174 636.067,751.085 628.038,718.967 668.185,710.938 668.185,710.938 660.156,751.085 716.363,767.144 732.421,735.026 764.539,759.114 740.451,783.203 764.539,831.38 796.657,823.35 "
     style="fill:url(#linearGradient3722);fill-opacity:1;stroke:none"
     id="polygon50"
     transform="scale(0.09922505,0.09922505)" />
  <polygon
     points="685.268,905.693 710.379,888.951 718.75,872.211 718.75,855.468 710.379,830.357 702.008,813.616 676.897,805.246 660.156,796.875 635.044,805.246 635.044,805.246 618.304,821.986 609.933,838.728 601.562,863.84 609.933,880.581 626.674,897.322 643.415,914.063 668.526,914.063 "
     style="fill:#333333;fill-opacity:1;stroke:none"
     id="polygon52"
     transform="scale(0.09922505,0.09922505)" />
  <polygon
     points="676.847,812.5 693.892,821.022 702.415,829.545 710.938,855.113 710.938,872.159 693.892,889.204 685.37,897.727 668.324,906.25 651.279,897.727 651.279,897.727 634.232,889.204 617.188,880.681 617.188,863.636 617.188,838.069 625.71,829.545 642.756,812.5 659.801,812.5 "
     style="fill:url(#linearGradient3714);fill-opacity:1;stroke:none"
     id="polygon54"
     transform="scale(0.09922505,0.09922505)" />
  <polygon
     points="718.75,875 718.75,875 710.938,867.188 "
     style="fill:#333333;fill-opacity:1;stroke:none"
     id="polygon56"
     transform="scale(0.09922505,0.09922505)" />
  <polygon
     points="651.042,828.125 632.812,846.354 632.812,846.354 641.927,864.583 651.042,882.813 678.385,882.813 687.5,864.583 687.5,855.468 687.5,837.24 669.27,828.125 "
     style="fill:#333333;fill-opacity:1;stroke:none"
     id="polygon58"
     transform="scale(0.09922505,0.09922505)" />
  <polygon
     points="658.854,875 658.854,875 648.438,865.234 648.438,855.468 648.438,845.703 669.27,835.938 679.688,845.703 679.688,865.234 669.27,875 "
     style="fill:#000000;fill-opacity:1;stroke:none"
     id="polygon60"
     transform="scale(0.09922505,0.09922505)" />
  <polygon
     points="687.5,867.188 687.5,867.188 679.688,859.375 "
     style="fill:#333333;fill-opacity:1;stroke:none"
     id="polygon62"
     transform="scale(0.09922505,0.09922505)" />
  <polygon
     points="711.149,611.979 711.149,620.009 751.267,628.038 743.244,668.185 703.125,668.185 711.149,668.185 719.172,716.363 719.172,724.392 759.29,700.303 783.361,732.421 751.267,764.539 759.29,764.539 783.361,788.628 807.433,796.657 815.456,796.657 823.479,764.539 863.598,764.539 863.598,804.687 895.692,796.657 919.763,788.628 927.787,788.628 903.716,756.51 935.811,732.421 959.881,756.51 967.905,748.481 983.952,732.421 991.976,700.303 959.881,684.245 959.881,652.127 1000,652.127 1000,644.097 991.976,620.009 983.952,595.92 983.952,587.891 951.857,603.949 927.787,579.861 951.857,547.743 943.834,547.743 927.787,531.684 895.692,515.625 879.645,555.773 847.55,547.743 847.55,515.625 839.527,515.625 839.527,515.625 815.456,515.625 783.361,531.684 799.409,563.802 775.338,587.891 743.244,555.773 743.244,563.802 727.195,587.891 "
     style="fill:#333333;fill-opacity:1;stroke:none"
     id="polygon64"
     transform="scale(0.09922505,0.09922505)" />
  <polygon
     points="984.375,644.176 952.178,644.176 944.129,692.472 976.326,708.57 960.228,740.767 936.08,716.62 895.834,748.817 911.932,781.014 871.686,789.063 871.686,756.866 815.341,748.817 807.292,789.063 767.046,764.915 799.243,732.718 758.996,692.472 726.799,708.57 718.75,676.373 758.996,676.373 758.996,620.029 726.799,611.979 742.898,579.782 775.095,595.881 815.341,563.684 799.243,539.535 839.489,523.438 839.489,523.438 839.489,563.684 887.784,563.684 903.883,531.487 936.08,555.635 911.932,579.782 944.129,620.029 976.326,603.93 "
     style="fill:#666666;fill-opacity:1;stroke:none"
     id="polygon66"
     transform="scale(0.09922505,0.09922505)" />
  <polygon
     points="734.809,587.891 718.75,620.009 758.897,636.067 750.868,668.185 718.75,668.185 718.75,676.215 726.779,724.392 734.809,732.421 766.927,708.333 791.015,732.421 758.897,764.539 766.927,772.569 791.015,788.628 815.104,804.687 823.133,804.687 831.163,764.539 871.311,772.569 871.311,804.687 879.34,804.687 903.429,804.687 927.517,788.628 935.547,788.628 919.487,756.51 943.576,732.421 967.665,756.51 975.694,756.51 991.753,732.421 999.783,708.333 999.783,700.303 967.665,692.274 967.665,660.156 1007.81,652.127 999.783,620.009 991.753,595.92 991.753,587.891 959.635,611.979 935.547,579.861 959.635,555.773 959.635,547.743 935.547,531.684 911.458,523.655 903.429,523.655 895.399,555.773 855.251,555.773 855.251,515.625 847.222,515.625 847.222,515.625 823.133,523.655 799.045,531.684 791.015,531.684 807.075,563.802 782.986,587.891 750.868,563.802 750.868,571.831 "
     style="fill:#333333;fill-opacity:1;stroke:none"
     id="polygon68"
     transform="scale(0.09922505,0.09922505)" />
  <polygon
     points="992.187,643.94 959.99,643.94 951.94,700.284 992.187,708.334 968.04,740.531 943.892,724.432 903.646,756.629 919.743,780.778 879.498,796.875 879.498,764.678 823.153,756.629 815.104,788.826 774.858,764.678 807.055,732.481 766.809,692.235 734.612,716.383 726.562,684.186 766.809,676.137 766.809,627.841 734.612,611.743 758.759,579.546 782.907,603.693 823.153,571.496 807.055,539.299 847.301,531.25 847.301,531.25 847.301,563.447 903.646,571.496 911.695,539.299 943.892,555.398 919.743,579.546 951.94,619.792 984.137,603.693 "
     style="fill:url(#linearGradient3738);fill-opacity:1;stroke:none"
     id="polygon70"
     transform="scale(0.09922505,0.09922505)" />
  <polygon
     points="882.813,668.749 882.813,668.749 882.813,678.125 863.281,687.5 843.75,678.125 843.75,659.375 853.515,650 863.281,640.625 882.813,650 "
     style="fill:#000000;fill-opacity:1;stroke:none"
     id="polygon72"
     transform="scale(0.09922505,0.09922505)" />
  <polygon
     points="896.635,701.922 913.462,693.509 921.875,668.268 913.462,651.443 905.049,626.202 888.221,617.789 871.395,609.375 846.154,609.375 829.327,617.789 829.327,617.789 812.5,634.615 812.5,659.856 812.5,676.682 820.913,693.509 837.741,710.336 854.567,718.75 879.808,718.75 "
     style="fill:#333333;fill-opacity:1;stroke:none"
     id="polygon74"
     transform="scale(0.09922505,0.09922505)" />
  <polygon
     points="871.875,617.188 889.061,625.71 897.655,634.232 906.25,651.279 906.25,668.324 906.25,685.37 889.061,693.892 880.468,702.415 863.281,710.938 863.281,710.938 846.093,702.415 828.906,693.892 820.312,676.847 820.312,659.801 828.906,642.756 837.5,625.71 854.687,617.188 "
     style="fill:url(#linearGradient3730);fill-opacity:1;stroke:none"
     id="polygon76"
     transform="scale(0.09922505,0.09922505)" />
  <polygon
     points="845.052,641.927 835.938,660.156 835.938,660.156 845.052,678.385 863.282,687.5 881.511,687.5 890.625,669.27 890.625,660.156 890.625,641.927 872.397,632.812 "
     style="fill:#333333;fill-opacity:1;stroke:none"
     id="polygon78"
     transform="scale(0.09922505,0.09922505)" />
  <polygon
     points="861.979,679.688 861.979,679.688 851.562,669.27 851.562,658.854 851.562,648.438 861.979,648.438 872.396,648.438 882.812,669.27 872.396,679.688 "
     style="fill:#333333;fill-opacity:1;stroke:none"
     id="polygon80"
     transform="scale(0.09922505,0.09922505)" />
  <use
     href="#oid1"
     id="use82"
     x="0"
     y="0"
     width="744.09448"
     height="1052.3622"
     transform="translate(0,-907.81)" />
</svg>
