<?xml version="1.0" encoding="UTF-8" standalone="no"?>

<svg
 xmlns:dc="http://purl.org/dc/elements/1.1/"
   xmlns:cc="http://creativecommons.org/ns#"
   xmlns:rdf="http://www.w3.org/1999/02/22-rdf-syntax-ns#"
   xmlns:svg="http://www.w3.org/2000/svg"
   xmlns="http://www.w3.org/2000/svg"
   xmlns:xlink="http://www.w3.org/1999/xlink"
   xmlns:sodipodi="http://sodipodi.sourceforge.net/DTD/sodipodi-0.dtd"
   xmlns:inkscape="http://www.inkscape.org/namespaces/inkscape"
   id="svg2"
   version="1.1"
   inkscape:version="0.47 r22583"
   width="100"
   height="100"
   sodipodi:docname="processinput.svg">
  <metadata
     id="metadata46">
    <rdf:RDF>
      <cc:Work
         rdf:about="">
        <dc:format>image/svg+xml</dc:format>
        <dc:type
           rdf:resource="http://purl.org/dc/dcmitype/StillImage" />
      </cc:Work>
    </rdf:RDF>
  </metadata>
  <defs
     id="defs44">
    <linearGradient
       inkscape:collect="always"
       id="linearGradient3674">
      <stop
         style="stop-color:#007f99;stop-opacity:1;"
         offset="0"
         id="stop3676" />
      <stop
         style="stop-color:#007f99;stop-opacity:0;"
         offset="1"
         id="stop3678" />
    </linearGradient>
    <linearGradient
       inkscape:collect="always"
       id="linearGradient3666">
      <stop
         style="stop-color:#91aa55;stop-opacity:1;"
         offset="0"
         id="stop3668" />
      <stop
         style="stop-color:#91aa55;stop-opacity:0;"
         offset="1"
         id="stop3670" />
    </linearGradient>
    <linearGradient
       inkscape:collect="always"
       id="linearGradient3658">
      <stop
         style="stop-color:#ffbb88;stop-opacity:1;"
         offset="0"
         id="stop3660" />
      <stop
         style="stop-color:#ffbb88;stop-opacity:0;"
         offset="1"
         id="stop3662" />
    </linearGradient>
    <linearGradient
       inkscape:collect="always"
       id="linearGradient3650">
      <stop
         style="stop-color:#9d8bb2;stop-opacity:1;"
         offset="0"
         id="stop3652" />
      <stop
         style="stop-color:#9d8bb2;stop-opacity:0;"
         offset="1"
         id="stop3654" />
    </linearGradient>
    <linearGradient
       inkscape:collect="always"
       id="linearGradient3642">
      <stop
         style="stop-color:#006899;stop-opacity:1;"
         offset="0"
         id="stop3644" />
      <stop
         style="stop-color:#006899;stop-opacity:0;"
         offset="1"
         id="stop3646" />
    </linearGradient>
    <linearGradient
       inkscape:collect="always"
       id="linearGradient3634">
      <stop
         style="stop-color:#006899;stop-opacity:1;"
         offset="0"
         id="stop3636" />
      <stop
         style="stop-color:#006899;stop-opacity:0;"
         offset="1"
         id="stop3638" />
    </linearGradient>
    <linearGradient
       inkscape:collect="always"
       id="linearGradient3626">
      <stop
         style="stop-color:#006899;stop-opacity:1;"
         offset="0"
         id="stop3628" />
      <stop
         style="stop-color:#006899;stop-opacity:0;"
         offset="1"
         id="stop3630" />
    </linearGradient>
    <inkscape:perspective
       sodipodi:type="inkscape:persp3d"
       inkscape:vp_x="0 : 0.5 : 1"
       inkscape:vp_y="0 : 1000 : 0"
       inkscape:vp_z="1 : 0.5 : 1"
       inkscape:persp3d-origin="0.5 : 0.33333333 : 1"
       id="perspective48" />
    <linearGradient
       inkscape:collect="always"
       xlink:href="#linearGradient3626"
       id="linearGradient3632"
       x1="179.688"
       y1="726.56299"
       x2="382.81299"
       y2="726.56299"
       gradientUnits="userSpaceOnUse" />
    <linearGradient
       inkscape:collect="always"
       xlink:href="#linearGradient3634"
       id="linearGradient3640"
       x1="390.625"
       y1="886.71899"
       x2="609.375"
       y2="886.71899"
       gradientUnits="userSpaceOnUse" />
    <linearGradient
       inkscape:collect="always"
       xlink:href="#linearGradient3642"
       id="linearGradient3648"
       x1="609.375"
       y1="726.56299"
       x2="820.31299"
       y2="726.56299"
       gradientUnits="userSpaceOnUse" />
    <linearGradient
       inkscape:collect="always"
       xlink:href="#linearGradient3650"
       id="linearGradient3656"
       x1="132.812"
       y1="457.03101"
       x2="500"
       y2="457.03101"
       gradientUnits="userSpaceOnUse" />
    <linearGradient
       inkscape:collect="always"
       xlink:href="#linearGradient3658"
       id="linearGradient3664"
       x1="351.56201"
       y1="375"
       x2="875"
       y2="375"
       gradientUnits="userSpaceOnUse" />
    <linearGradient
       inkscape:collect="always"
       xlink:href="#linearGradient3666"
       id="linearGradient3672"
       x1="507.81201"
       y1="691.40601"
       x2="828.12402"
       y2="691.40601"
       gradientUnits="userSpaceOnUse" />
    <linearGradient
       inkscape:collect="always"
       xlink:href="#linearGradient3674"
       id="linearGradient3680"
       x1="195.312"
       y1="597.65601"
       x2="804.68701"
       y2="597.65601"
       gradientUnits="userSpaceOnUse" />
  </defs>
  <sodipodi:namedview
     pagecolor="#ffffff"
     bordercolor="#666666"
     borderopacity="1"
     objecttolerance="10"
     gridtolerance="10"
     guidetolerance="10"
     inkscape:pageopacity="0"
     inkscape:pageshadow="2"
     inkscape:window-width="1280"
     inkscape:window-height="1002"
     id="namedview42"
     showgrid="false"
     inkscape:zoom="0.44851479"
     inkscape:cx="209.09793"
     inkscape:cy="536.05801"
     inkscape:window-x="1272"
     inkscape:window-y="-8"
     inkscape:window-maximized="1"
     inkscape:current-layer="svg2" />
  <title
     id="title4">Symbol library: processinput.svg</title>
  <polygon
     points="1007.81,0 1007.81,1007.81 1007.81,1007.81 0,1007.81 0,0 "
     style="fill:#ffffff;fill-opacity:0;stroke:none"
     id="polygon6"
     transform="scale(0.09922505,0.09922505)" />
  <polygon
     points="400.417,659.299 376.667,627.287 368.75,627.287 250,747.333 257.916,747.333 313.333,795.351 376.667,827.363 440,851.372 511.249,859.375 574.583,851.372 630,835.366 685.417,819.36 732.916,787.348 812.083,859.375 843.75,531.25 843.75,531.25 835.833,531.25 511.249,563.262 614.166,659.299 566.666,683.309 511.249,691.311 471.666,683.309 440,675.305 "
     style="fill:#50592d;fill-opacity:1;stroke:none"
     id="polygon8"
     transform="scale(0.09922505,0.09922505)" />
  <polygon
     points="265.625,747.533 321.082,787.623 384.463,819.695 447.843,835.731 511.223,843.75 574.604,843.75 630.062,827.713 685.52,803.659 733.054,771.587 804.358,835.731 828.125,539.062 534.991,571.134 534.991,571.134 630.062,667.351 574.604,691.406 511.223,699.424 471.611,699.424 439.921,683.388 400.309,667.351 368.619,643.298 "
     style="fill:#91aa55;fill-opacity:1;stroke:none"
     id="polygon10"
     transform="scale(0.09922505,0.09922505)" />
  <polygon
     points="141.238,488.645 149.204,536.066 157.169,583.486 173.101,630.906 196.997,678.326 109.375,765.263 435.969,796.876 404.106,472.839 396.14,480.742 324.448,551.872 316.483,520.259 308.518,488.645 316.483,449.128 324.448,409.612 348.346,377.998 372.243,346.385 396.14,322.674 428.003,298.965 467.832,283.158 507.66,283.158 515.625,283.158 515.625,117.188 507.66,117.188 507.66,117.188 435.969,125.091 364.277,148.801 300.552,180.415 252.758,227.834 204.963,283.158 173.101,346.385 149.204,409.612 "
     style="fill:#5a5066;fill-opacity:1;stroke:none"
     id="polygon12"
     transform="scale(0.09922505,0.09922505)" />
  <polygon
     points="164.741,417.503 156.759,488.653 156.759,536.086 172.724,583.519 188.689,630.952 212.636,678.385 132.812,757.44 428.159,789.062 396.229,496.559 316.406,567.708 308.424,528.181 300.441,488.653 300.441,441.22 316.406,401.693 332.371,370.071 356.317,338.449 388.246,314.732 420.176,291.015 460.088,275.205 500,267.299 500,267.299 500,125 428.159,132.905 364.3,156.622 308.424,196.149 252.547,235.677 212.636,291.015 180.707,346.354 "
     style="fill:url(#linearGradient3656);fill-opacity:1;stroke:none"
     id="polygon14"
     transform="scale(0.09922505,0.09922505)" />
  <polygon
     points="684.64,371.094 708.407,426.375 716.33,457.965 716.33,489.555 716.33,521.144 708.407,552.734 692.562,584.324 676.717,608.015 676.717,615.913 795.554,734.374 795.554,726.477 835.168,671.195 866.858,615.913 882.703,552.734 890.625,489.555 882.703,418.477 866.858,355.298 835.168,300.017 803.478,252.632 755.942,205.248 708.407,165.76 645.027,142.069 589.569,118.377 589.569,118.377 589.569,7.812 573.723,15.7099 328.125,213.146 589.569,426.375 589.569,292.119 613.337,307.915 637.104,323.709 "
     style="fill:#997053;fill-opacity:1;stroke:none"
     id="polygon16"
     transform="scale(0.09922505,0.09922505)" />
  <polygon
     points="684.659,355.244 708.451,386.853 716.383,418.462 732.243,450.071 732.243,489.583 732.243,521.192 724.313,552.801 708.451,584.411 692.59,616.02 795.69,718.75 827.414,663.433 851.207,608.117 867.069,544.899 875,489.583 867.069,418.462 851.207,363.146 827.414,307.831 787.76,252.514 748.106,213.003 692.59,173.491 637.073,149.785 573.626,133.979 573.626,133.979 573.626,31.25 351.562,213.003 573.626,402.658 573.626,276.222 605.35,292.025 637.073,307.831 660.866,331.537 "
     style="fill:url(#linearGradient3664);fill-opacity:1;stroke:none"
     id="polygon18"
     transform="scale(0.09922505,0.09922505)" />
  <polygon
     points="507.812,563.262 611.793,659.299 579.799,683.309 539.806,691.311 539.806,827.363 539.806,827.363 595.796,827.363 643.787,827.363 683.78,811.358 731.77,787.348 811.756,859.375 843.75,531.25 835.751,531.25 "
     style="fill:#50592d;fill-opacity:1;stroke:none"
     id="polygon20"
     transform="scale(0.09922505,0.09922505)" />
  <polygon
     points="627.93,667.351 571.874,691.406 507.812,699.424 507.812,843.75 507.812,843.75 571.874,843.75 627.93,827.713 683.985,803.659 732.03,771.587 804.101,835.731 828.124,539.062 531.836,571.134 "
     style="fill:url(#linearGradient3672);fill-opacity:1;stroke:none"
     id="polygon22"
     transform="scale(0.09922505,0.09922505)" />
  <polygon
     points="827.855,609.375 601.562,609.375 601.562,843.491 601.562,851.563 827.855,851.563 835.937,843.491 835.937,609.375 827.855,609.375 "
     style="fill:#143a72;fill-opacity:1;stroke:none"
     id="polygon24"
     transform="scale(0.09922505,0.09922505)" />
  <polygon
     points="609.375,617.188 820.313,617.188 820.313,617.188 820.313,835.938 609.375,835.938 "
     style="fill:url(#linearGradient3648);fill-opacity:1;stroke:none"
     id="polygon26"
     transform="scale(0.09922505,0.09922505)" />
  <polygon
     points="390.355,609.375 390.355,609.375 172.144,609.375 164.062,609.375 164.062,843.491 172.144,851.563 390.355,851.563 398.437,843.491 398.437,609.375 "
     style="fill:#143a72;fill-opacity:1;stroke:none"
     id="polygon28"
     transform="scale(0.09922505,0.09922505)" />
  <polygon
     points="179.688,617.188 382.813,617.188 382.813,617.188 382.813,835.938 179.688,835.938 "
     style="fill:url(#linearGradient3632);fill-opacity:1;stroke:none"
     id="polygon30"
     transform="scale(0.09922505,0.09922505)" />
  <polygon
     points="609.115,765.625 609.115,765.625 383.072,765.625 375,773.698 375,999.74 383.072,1007.81 609.115,1007.81 617.188,999.74 617.188,773.698 "
     style="fill:#143a72;fill-opacity:1;stroke:none"
     id="polygon32"
     transform="scale(0.09922505,0.09922505)" />
  <polygon
     points="390.625,781.25 609.375,781.25 609.375,781.25 609.375,992.188 390.625,992.188 "
     style="fill:url(#linearGradient3640);fill-opacity:1;stroke:none"
     id="polygon34"
     transform="scale(0.09922505,0.09922505)" />
  <polygon
     points="614.614,781.084 614.614,621.51 828.032,621.51 835.937,613.53 828.032,613.53 503.952,414.062 496.048,414.062 496.048,414.062 164.062,613.53 164.062,621.51 171.967,621.51 377.481,621.51 377.481,781.084 385.385,789.062 606.709,789.062 "
     style="fill:#143a72;fill-opacity:1;stroke:none"
     id="polygon36"
     transform="scale(0.09922505,0.09922505)" />
  <polygon
     points="195.312,613.636 377.333,501.775 377.333,501.775 496.043,421.875 804.687,613.636 606.838,613.636 606.838,773.437 393.161,773.437 393.161,613.636 385.247,613.636 "
     style="fill:url(#linearGradient3680);fill-opacity:1;stroke:none"
     id="polygon38"
     transform="scale(0.09922505,0.09922505)" />
  <use
     href="#oid1"
     id="use40"
     x="0"
     y="0"
     width="744.09448"
     height="1052.3622"
     transform="translate(0,-907.81)" />
</svg>
