<?xml version="1.0" encoding="UTF-8" standalone="no"?>

<svg
 xmlns:dc="http://purl.org/dc/elements/1.1/"
   xmlns:cc="http://creativecommons.org/ns#"
   xmlns:rdf="http://www.w3.org/1999/02/22-rdf-syntax-ns#"
   xmlns:svg="http://www.w3.org/2000/svg"
   xmlns="http://www.w3.org/2000/svg"
   xmlns:xlink="http://www.w3.org/1999/xlink"
   xmlns:sodipodi="http://sodipodi.sourceforge.net/DTD/sodipodi-0.dtd"
   xmlns:inkscape="http://www.inkscape.org/namespaces/inkscape"
   id="svg2"
   version="1.1"
   inkscape:version="0.47 r22583"
   width="100"
   height="100"
   sodipodi:docname="processcontrol.svg">
  <metadata
     id="metadata212">
    <rdf:RDF>
      <cc:Work
         rdf:about="">
        <dc:format>image/svg+xml</dc:format>
        <dc:type
           rdf:resource="http://purl.org/dc/dcmitype/StillImage" />
      </cc:Work>
    </rdf:RDF>
  </metadata>
  <defs
     id="defs210">
    <linearGradient
       inkscape:collect="always"
       id="linearGradient3856">
      <stop
         style="stop-color:#000000;stop-opacity:1;"
         offset="0"
         id="stop3858" />
      <stop
         style="stop-color:#000000;stop-opacity:0;"
         offset="1"
         id="stop3860" />
    </linearGradient>
    <linearGradient
       inkscape:collect="always"
       id="linearGradient3848">
      <stop
         style="stop-color:#000000;stop-opacity:1;"
         offset="0"
         id="stop3850" />
      <stop
         style="stop-color:#000000;stop-opacity:0;"
         offset="1"
         id="stop3852" />
    </linearGradient>
    <inkscape:perspective
       sodipodi:type="inkscape:persp3d"
       inkscape:vp_x="0 : 0.5 : 1"
       inkscape:vp_y="0 : 1000 : 0"
       inkscape:vp_z="1 : 0.5 : 1"
       inkscape:persp3d-origin="0.5 : 0.33333333 : 1"
       id="perspective214" />
    <linearGradient
       inkscape:collect="always"
       xlink:href="#linearGradient3848"
       id="linearGradient3854"
       x1="140.625"
       y1="503.90601"
       x2="781.25"
       y2="503.90601"
       gradientUnits="userSpaceOnUse" />
    <linearGradient
       inkscape:collect="always"
       xlink:href="#linearGradient3856"
       id="linearGradient3862"
       x1="257.81201"
       y1="132.8125"
       x2="398.43701"
       y2="132.8125"
       gradientUnits="userSpaceOnUse" />
  </defs>
  <sodipodi:namedview
     pagecolor="#ffffff"
     bordercolor="#666666"
     borderopacity="1"
     objecttolerance="10"
     gridtolerance="10"
     guidetolerance="10"
     inkscape:pageopacity="0"
     inkscape:pageshadow="2"
     inkscape:window-width="1280"
     inkscape:window-height="1002"
     id="namedview208"
     showgrid="false"
     inkscape:zoom="0.44851479"
     inkscape:cx="18.095154"
     inkscape:cy="277.85488"
     inkscape:window-x="1272"
     inkscape:window-y="-8"
     inkscape:window-maximized="1"
     inkscape:current-layer="svg2" />
  <title
     id="title4">Symbol library: processcontrol.svg</title>
  <polygon
     points="1007.81,0 1007.81,1007.81 1007.81,1007.81 0,1007.81 0,0 "
     style="fill:#ffffff;fill-opacity:0;stroke:none"
     id="polygon6"
     transform="scale(0.09922505,0.09922505)" />
  <polygon
     points="234.375,15.625 250,24.2193 250,24.2193 250,101.563 250,92.9693 "
     style="fill:#222222;fill-opacity:1;stroke:none"
     id="polygon8"
     transform="scale(0.09922505,0.09922505)" />
  <polygon
     points="257.812,24.2193 320.312,15.625 320.312,15.625 320.312,92.9693 257.812,101.563 "
     style="fill:#2c2c2c;fill-opacity:1;stroke:none"
     id="polygon10"
     transform="scale(0.09922505,0.09922505)" />
  <polygon
     points="406.25,118.608 421.875,101.562 421.875,101.562 421.875,186.79 421.875,195.312 "
     style="fill:#2b2b2b;fill-opacity:1;stroke:none"
     id="polygon12"
     transform="scale(0.09922505,0.09922505)" />
  <polygon
     points="312.5,15.625 359.375,129.756 359.375,129.756 359.375,203.125 312.5,88.9953 "
     style="fill:#222222;fill-opacity:1;stroke:none"
     id="polygon14"
     transform="scale(0.09922505,0.09922505)" />
  <polygon
     points="359.375,125.71 396.875,117.188 396.875,117.188 406.25,202.415 359.375,210.938 "
     style="fill:#2c2c2c;fill-opacity:1;stroke:none"
     id="polygon16"
     transform="scale(0.09922505,0.09922505)" />
  <polygon
     points="351.562,133.593 367.187,125 367.187,125 367.187,210.938 351.562,210.938 "
     style="fill:#2c2c2c;fill-opacity:1;stroke:none"
     id="polygon18"
     transform="scale(0.09922505,0.09922505)" />
  <polygon
     points="351.562,202.343 351.562,125 351.562,133.593 359.375,133.593 359.375,133.593 351.562,210.938 "
     style="fill:#222222;fill-opacity:1;stroke:none"
     id="polygon20"
     transform="scale(0.09922505,0.09922505)" />
  <polygon
     points="257.812,23.438 304.687,145.507 304.687,145.507 304.687,218.75 257.812,96.6795 "
     style="fill:#555555;fill-opacity:1;stroke:none"
     id="polygon22"
     transform="scale(0.09922505,0.09922505)" />
  <polygon
     points="242.188,23.438 289.063,137.568 289.063,137.568 289.063,210.938 242.188,96.8072 "
     style="fill:#222222;fill-opacity:1;stroke:none"
     id="polygon24"
     transform="scale(0.09922505,0.09922505)" />
  <polygon
     points="304.688,140.625 296.875,218.75 296.875,140.625 304.688,140.625 "
     style="fill:#555555;fill-opacity:1;stroke:none"
     id="polygon26"
     transform="scale(0.09922505,0.09922505)" />
  <polygon
     points="289.062,140.625 304.687,140.625 304.687,140.625 304.687,217.969 289.062,226.563 "
     style="fill:#2c2c2c;fill-opacity:1;stroke:none"
     id="polygon28"
     transform="scale(0.09922505,0.09922505)" />
  <polygon
     points="257.812,149.148 296.875,140.625 296.875,140.625 296.875,225.853 257.812,234.375 "
     style="fill:#2c2c2c;fill-opacity:1;stroke:none"
     id="polygon30"
     transform="scale(0.09922505,0.09922505)" />
  <polygon
     points="226.562,148.438 238.281,157.031 238.281,157.031 250,234.375 238.281,225.782 "
     style="fill:#222222;fill-opacity:1;stroke:none"
     id="polygon32"
     transform="scale(0.09922505,0.09922505)" />
  <polygon
     points="257.812,148.438 366.629,246.653 366.629,246.653 375,320.313 257.812,230.282 "
     style="fill:#555555;fill-opacity:1;stroke:none"
     id="polygon34"
     transform="scale(0.09922505,0.09922505)" />
  <polygon
     points="359.375,247.188 396.875,117.188 396.875,117.188 406.25,198.437 368.75,320.313 "
     style="fill:#6b6b6b;fill-opacity:1;stroke:none"
     id="polygon36"
     transform="scale(0.09922505,0.09922505)" />
  <polygon
     points="226.562,153.076 242.839,145.019 283.529,136.962 242.839,24.1704 234.701,16.1133 242.839,16.1133 316.081,0 324.218,0 324.218,8.05611 364.909,120.85 405.599,112.793 405.599,112.793 421.874,104.736 413.737,120.85 381.185,257.812 373.047,257.812 364.909,249.756 364.909,257.812 234.701,161.132 "
     style="fill:#3e3e3e;fill-opacity:1;stroke:none"
     id="polygon38"
     transform="scale(0.09922505,0.09922505)" />
  <polygon
     points="290.9,144.935 257.812,153.017 365.349,250 365.349,250 398.437,120.69 365.349,128.771 357.076,136.853 357.076,128.771 315.717,15.625 257.812,23.7074 299.173,144.935 "
     style="fill:#aaaaaa;fill-opacity:1;stroke:none"
     id="polygon40"
     transform="scale(0.09922505,0.09922505)" />
  <polyline
     points="365.349 250 398.437 120.69 365.349 128.771         357.076 136.853 357.076 128.771 315.717 15.625 257.812 23.7074         299.173 144.935  290.9 144.935 257.812 153.017         365.349 250"
     style="fill:url(#linearGradient3862);fill-opacity:1;stroke:none"
     id="polyline42"
     transform="scale(0.09922505,0.09922505)" />
  <polygon
     points="359.375,242.188 371.094,250.781 371.094,250.781 382.813,328.125 371.094,319.532 "
     style="fill:#242424;fill-opacity:1;stroke:none"
     id="polygon44"
     transform="scale(0.09922505,0.09922505)" />
  <polygon
     points="359.375,250.781 359.375,242.188 359.375,242.188 375,319.532 359.375,328.125 "
     style="fill:#2e2e2e;fill-opacity:1;stroke:none"
     id="polygon46"
     transform="scale(0.09922505,0.09922505)" />
  <polygon
     points="375,255.109 412.5,117.188 412.5,117.188 421.875,190.205 375,328.126 "
     style="fill:#2b2b2b;fill-opacity:1;stroke:none"
     id="polygon48"
     transform="scale(0.09922505,0.09922505)" />
  <polygon
     points="382.813,250 382.813,328.125 367.188,250 382.813,250 "
     style="fill:#242424;fill-opacity:1;stroke:none"
     id="polygon50"
     transform="scale(0.09922505,0.09922505)" />
  <polygon
     points="234.375,156.25 367.187,254.465 367.187,254.465 367.187,328.125 242.676,229.91 "
     style="fill:#222222;fill-opacity:1;stroke:none"
     id="polygon52"
     transform="scale(0.09922505,0.09922505)" />
  <polygon
     points="367.188,250 359.375,328.125 359.375,250 367.188,250 "
     style="fill:#2e2e2e;fill-opacity:1;stroke:none"
     id="polygon54"
     transform="scale(0.09922505,0.09922505)" />
  <polygon
     points="757.812,408.053 882.812,382.812 882.812,382.812 882.812,458.533 757.812,492.187 "
     style="fill:#2c2c2c;fill-opacity:1;stroke:none"
     id="polygon56"
     transform="scale(0.09922505,0.09922505)" />
  <polygon
     points="742.188,406.25 765.625,406.25 765.625,406.25 765.625,492.188 742.188,483.593 "
     style="fill:#242424;fill-opacity:1;stroke:none"
     id="polygon58"
     transform="scale(0.09922505,0.09922505)" />
  <polygon
     points="757.812,406.25 787.11,423.295 787.11,423.295 796.875,500 757.812,491.477 "
     style="fill:#5a5a5a;fill-opacity:1;stroke:none"
     id="polygon60"
     transform="scale(0.09922505,0.09922505)" />
  <polygon
     points="781.25,421.875 792.968,421.875 792.968,421.875 804.688,500 792.968,500 "
     style="fill:#5a5a5a;fill-opacity:1;stroke:none"
     id="polygon62"
     transform="scale(0.09922505,0.09922505)" />
  <polygon
     points="367.188,257.812 781.25,435.232 781.25,435.232 781.25,507.812 367.188,330.393 "
     style="fill:#291e36;fill-opacity:1;stroke:none"
     id="polygon64"
     transform="scale(0.09922505,0.09922505)" />
  <polygon
     points="789.062,430.469 789.062,421.875 789.062,421.875 804.687,499.219 789.062,507.813 "
     style="fill:#352746;fill-opacity:1;stroke:none"
     id="polygon66"
     transform="scale(0.09922505,0.09922505)" />
  <polygon
     points="875,382.812 895.833,432.813 895.833,432.813 906.25,507.812 875,457.812 "
     style="fill:#222222;fill-opacity:1;stroke:none"
     id="polygon68"
     transform="scale(0.09922505,0.09922505)" />
  <polygon
     points="843.75,437.5 843.75,515.625 828.125,437.5 843.75,437.5 "
     style="fill:#6d6d6d;fill-opacity:1;stroke:none"
     id="polygon70"
     transform="scale(0.09922505,0.09922505)" />
  <polygon
     points="835.938,437.5 835.938,446.093 835.938,446.093 851.563,523.438 835.938,514.843 "
     style="fill:#555555;fill-opacity:1;stroke:none"
     id="polygon72"
     transform="scale(0.09922505,0.09922505)" />
  <polygon
     points="546.875,748.566 781.25,429.688 781.25,429.688 781.25,501.435 546.875,820.313 "
     style="fill:#5c4479;fill-opacity:1;stroke:none"
     id="polygon74"
     transform="scale(0.09922505,0.09922505)" />
  <polygon
     points="773.438,455.078 796.875,429.688 796.875,429.688 796.875,505.859 773.438,531.25 "
     style="fill:#352745;fill-opacity:1;stroke:none"
     id="polygon76"
     transform="scale(0.09922505,0.09922505)" />
  <polygon
     points="773.438,454.545 834.961,437.5 834.961,437.5 843.75,514.204 773.438,531.25 "
     style="fill:#6d6d6d;fill-opacity:1;stroke:none"
     id="polygon78"
     transform="scale(0.09922505,0.09922505)" />
  <polygon
     points="757.812,461.648 781.25,453.125 781.25,453.125 781.25,529.831 769.531,546.875 "
     style="fill:#352745;fill-opacity:1;stroke:none"
     id="polygon80"
     transform="scale(0.09922505,0.09922505)" />
  <polygon
     points="757.812,461.648 835.937,453.125 835.937,453.125 835.937,529.831 766.493,546.875 "
     style="fill:#2c2c2c;fill-opacity:1;stroke:none"
     id="polygon82"
     transform="scale(0.09922505,0.09922505)" />
  <polygon
     points="140.625,547.656 152.344,539.062 152.344,539.062 164.063,616.405 140.625,625 "
     style="fill:#2e2e2e;fill-opacity:1;stroke:none"
     id="polygon84"
     transform="scale(0.09922505,0.09922505)" />
  <polygon
     points="992.188,531.96 1007.81,523.438 1007.81,523.438 1007.81,600.142 1007.81,617.188 "
     style="fill:#2b2b2b;fill-opacity:1;stroke:none"
     id="polygon86"
     transform="scale(0.09922505,0.09922505)" />
  <polygon
     points="15.625,580.529 148.437,546.875 148.437,546.875 148.437,622.596 15.625,656.25 "
     style="fill:#2c2c2c;fill-opacity:1;stroke:none"
     id="polygon88"
     transform="scale(0.09922505,0.09922505)" />
  <polygon
     points="125,572.265 148.438,546.875 148.438,546.875 148.438,623.047 125,648.437 "
     style="fill:#747474;fill-opacity:1;stroke:none"
     id="polygon90"
     transform="scale(0.09922505,0.09922505)" />
  <polygon
     points="0,647.655 0,570.312 0,578.906 7.8125,578.906 7.8125,578.906 0,656.25 "
     style="fill:#222222;fill-opacity:1;stroke:none"
     id="polygon92"
     transform="scale(0.09922505,0.09922505)" />
  <polygon
     points="140.625,576.689 375,257.812 375,257.812 375,329.56 140.625,648.437 "
     style="fill:#352745;fill-opacity:1;stroke:none"
     id="polygon94"
     transform="scale(0.09922505,0.09922505)" />
  <polygon
     points="890.625,429.688 945.313,551.757 945.313,551.757 945.313,625 899.74,502.929 "
     style="fill:#222222;fill-opacity:1;stroke:none"
     id="polygon96"
     transform="scale(0.09922505,0.09922505)" />
  <polygon
     points="125,656.25 125,578.906 125,570.312 132.813,570.312 132.813,570.312 125,647.655 "
     style="fill:#737373;fill-opacity:1;stroke:none"
     id="polygon98"
     transform="scale(0.09922505,0.09922505)" />
  <polygon
     points="945.312,547.656 982.812,539.062 982.812,539.062 992.187,616.405 945.312,625 "
     style="fill:#2c2c2c;fill-opacity:1;stroke:none"
     id="polygon100"
     transform="scale(0.09922505,0.09922505)" />
  <polygon
     points="937.5,555.469 953.125,546.875 953.125,546.875 953.125,624.219 937.5,632.813 "
     style="fill:#2c2c2c;fill-opacity:1;stroke:none"
     id="polygon102"
     transform="scale(0.09922505,0.09922505)" />
  <polygon
     points="937.5,624.219 937.5,546.875 937.5,555.469 945.313,555.469 945.313,555.469 937.5,632.813 "
     style="fill:#222222;fill-opacity:1;stroke:none"
     id="polygon104"
     transform="scale(0.09922505,0.09922505)" />
  <polygon
     points="125,578.125 140.625,656.25 125,656.25 125,578.125 "
     style="fill:#291e36;fill-opacity:1;stroke:none"
     id="polygon106"
     transform="scale(0.09922505,0.09922505)" />
  <polygon
     points="835.938,445.312 890.625,559.245 890.625,559.245 890.625,640.624 845.052,518.555 "
     style="fill:#555555;fill-opacity:1;stroke:none"
     id="polygon108"
     transform="scale(0.09922505,0.09922505)" />
  <polygon
     points="828.125,453.125 875,559.305 875,559.305 875,632.813 828.125,526.634 "
     style="fill:#222222;fill-opacity:1;stroke:none"
     id="polygon110"
     transform="scale(0.09922505,0.09922505)" />
  <polygon
     points="882.812,563.281 890.625,563.281 890.625,563.281 882.812,640.625 882.812,554.688 "
     style="fill:#555555;fill-opacity:1;stroke:none"
     id="polygon112"
     transform="scale(0.09922505,0.09922505)" />
  <polygon
     points="875,562.5 890.625,562.5 890.625,562.5 890.625,640.625 875,640.625 "
     style="fill:#2c2c2c;fill-opacity:1;stroke:none"
     id="polygon114"
     transform="scale(0.09922505,0.09922505)" />
  <polygon
     points="140.625,570.312 554.687,747.732 554.687,747.732 554.687,820.312 140.625,642.893 "
     style="fill:#48355e;fill-opacity:1;stroke:none"
     id="polygon116"
     transform="scale(0.09922505,0.09922505)" />
  <polygon
     points="125,578.125 164.063,595.171 164.063,595.171 164.063,671.875 134.765,654.831 "
     style="fill:#291e36;fill-opacity:1;stroke:none"
     id="polygon118"
     transform="scale(0.09922505,0.09922505)" />
  <polygon
     points="843.75,571.093 882.813,562.5 882.813,562.5 882.813,639.843 843.75,648.438 "
     style="fill:#2c2c2c;fill-opacity:1;stroke:none"
     id="polygon120"
     transform="scale(0.09922505,0.09922505)" />
  <polygon
     points="812.5,570.312 824.218,578.906 824.218,578.906 835.938,656.25 824.218,647.655 "
     style="fill:#222222;fill-opacity:1;stroke:none"
     id="polygon122"
     transform="scale(0.09922505,0.09922505)" />
  <polygon
     points="156.25,593.75 177.083,602.343 177.083,602.343 187.5,679.688 156.25,671.093 "
     style="fill:#291e36;fill-opacity:1;stroke:none"
     id="polygon124"
     transform="scale(0.09922505,0.09922505)" />
  <polygon
     points="93.75,610.795 164.063,593.75 164.063,593.75 164.063,670.454 93.75,687.5 "
     style="fill:#6d6d6d;fill-opacity:1;stroke:none"
     id="polygon126"
     transform="scale(0.09922505,0.09922505)" />
  <polygon
     points="85.9375,609.375 101.563,609.375 101.563,609.375 101.563,687.5 85.9375,687.5 "
     style="fill:#6d6d6d;fill-opacity:1;stroke:none"
     id="polygon128"
     transform="scale(0.09922505,0.09922505)" />
  <polygon
     points="85.9375,609.375 101.563,687.5 85.9375,687.5 85.9375,609.375 "
     style="fill:#222222;fill-opacity:1;stroke:none"
     id="polygon130"
     transform="scale(0.09922505,0.09922505)" />
  <polygon
     points="101.562,618.608 178.905,601.562 178.905,601.562 187.5,678.267 110.156,695.312 "
     style="fill:#2c2c2c;fill-opacity:1;stroke:none"
     id="polygon132"
     transform="scale(0.09922505,0.09922505)" />
  <polygon
     points="15.625,578.125 36.4583,628.125 36.4583,628.125 46.875,703.125 15.625,653.126 "
     style="fill:#555555;fill-opacity:1;stroke:none"
     id="polygon134"
     transform="scale(0.09922505,0.09922505)" />
  <polygon
     points="0,578.125 31.25,628.125 31.25,628.125 31.25,703.125 0,653.126 "
     style="fill:#222222;fill-opacity:1;stroke:none"
     id="polygon136"
     transform="scale(0.09922505,0.09922505)" />
  <polygon
     points="945.312,669.062 982.812,539.062 982.812,539.062 992.187,612.187 954.687,742.187 "
     style="fill:#6b6b6b;fill-opacity:1;stroke:none"
     id="polygon138"
     transform="scale(0.09922505,0.09922505)" />
  <polygon
     points="879.185,567.491 887.276,567.491 887.276,559.462 838.728,447.048 838.728,439.019 830.636,439.019 773.996,455.078 790.178,430.99 790.178,422.96 782.087,422.96 757.812,406.901 879.185,382.812 879.185,382.812 895.368,430.99 943.917,551.432 943.917,559.462 952.008,551.432 984.374,543.402 952.008,671.874 846.819,575.52 "
     style="fill:#9a9a9a;fill-opacity:1;stroke:none"
     id="polygon140"
     transform="scale(0.09922505,0.09922505)" />
  <polygon
     points="843.75,570.312 952.567,668.526 952.567,668.526 960.938,742.187 843.75,643.973 "
     style="fill:#555555;fill-opacity:1;stroke:none"
     id="polygon142"
     transform="scale(0.09922505,0.09922505)" />
  <polygon
     points="960.938,677.083 998.438,531.25 998.438,531.25 1007.81,612.268 960.938,750 "
     style="fill:#2b2b2b;fill-opacity:1;stroke:none"
     id="polygon144"
     transform="scale(0.09922505,0.09922505)" />
  <polygon
     points="820.312,578.125 952.664,684.305 952.664,684.305 960.937,757.813 828.585,651.634 "
     style="fill:#222222;fill-opacity:1;stroke:none"
     id="polygon146"
     transform="scale(0.09922505,0.09922505)" />
  <polygon
     points="945.312,679.688 957.031,688.281 957.031,688.281 968.75,765.625 957.031,757.032 "
     style="fill:#222222;fill-opacity:1;stroke:none"
     id="polygon148"
     transform="scale(0.09922505,0.09922505)" />
  <polygon
     points="953.125,688.921 968.75,671.875 968.75,671.875 968.75,748.581 968.75,765.625 "
     style="fill:#2b2b2b;fill-opacity:1;stroke:none"
     id="polygon150"
     transform="scale(0.09922505,0.09922505)" />
  <polygon
     points="959.517,695.313 951.468,687.31 822.68,583.27 814.631,575.267 830.729,567.264 870.976,559.261 830.729,455.221 758.285,463.225 774.385,455.221 830.729,439.215 838.779,439.215 838.779,447.218 887.074,559.261 887.074,567.264 879.025,567.264 846.828,575.267 951.468,671.303 983.665,543.254 951.468,551.258 943.419,559.261 943.419,551.258 895.123,431.212 879.025,383.193 758.285,407.203 742.188,407.203 879.025,367.188 887.074,367.188 887.074,367.188 895.123,375.191 911.222,431.212 951.468,543.254 991.714,535.252 1007.81,527.249 999.764,535.252 967.567,679.307 "
     style="fill:#3e3e3e;fill-opacity:1;stroke:none"
     id="polygon152"
     transform="scale(0.09922505,0.09922505)" />
  <polygon
     points="187.5,719.531 203.125,710.938 203.125,710.938 203.125,788.282 203.125,796.875 "
     style="fill:#2b2b2b;fill-opacity:1;stroke:none"
     id="polygon154"
     transform="scale(0.09922505,0.09922505)" />
  <polygon
     points="85.9375,609.375 140.625,731.444 140.625,731.444 140.625,804.687 95.0522,682.618 "
     style="fill:#222222;fill-opacity:1;stroke:none"
     id="polygon156"
     transform="scale(0.09922505,0.09922505)" />
  <polygon
     points="140.625,735.156 178.125,726.562 178.125,726.562 187.5,803.905 140.625,812.5 "
     style="fill:#2c2c2c;fill-opacity:1;stroke:none"
     id="polygon158"
     transform="scale(0.09922505,0.09922505)" />
  <polygon
     points="132.812,803.905 132.812,726.562 132.812,735.156 140.625,735.156 140.625,735.156 132.812,812.5 "
     style="fill:#222222;fill-opacity:1;stroke:none"
     id="polygon160"
     transform="scale(0.09922505,0.09922505)" />
  <polygon
     points="132.812,734.375 148.437,734.375 148.437,734.375 148.437,812.5 132.812,812.5 "
     style="fill:#2c2c2c;fill-opacity:1;stroke:none"
     id="polygon162"
     transform="scale(0.09922505,0.09922505)" />
  <polygon
     points="31.25,625 85.9375,747.071 85.9375,747.071 85.9375,820.312 40.3646,698.241 "
     style="fill:#555555;fill-opacity:1;stroke:none"
     id="polygon164"
     transform="scale(0.09922505,0.09922505)" />
  <polygon
     points="23.4375,625 70.3125,747.071 70.3125,747.071 70.3125,820.312 23.4375,698.241 "
     style="fill:#222222;fill-opacity:1;stroke:none"
     id="polygon166"
     transform="scale(0.09922505,0.09922505)" />
  <polygon
     points="78.125,819.532 78.125,742.188 78.125,750.781 85.9375,750.781 85.9375,750.781 78.125,828.125 "
     style="fill:#555555;fill-opacity:1;stroke:none"
     id="polygon168"
     transform="scale(0.09922505,0.09922505)" />
  <polygon
     points="70.3125,750 85.9375,750 85.9375,750 85.9375,828.125 70.3125,828.125 "
     style="fill:#2c2c2c;fill-opacity:1;stroke:none"
     id="polygon170"
     transform="scale(0.09922505,0.09922505)" />
  <polygon
     points="39.0625,758.593 78.125,750 78.125,750 78.125,827.343 39.0625,835.938 "
     style="fill:#2c2c2c;fill-opacity:1;stroke:none"
     id="polygon172"
     transform="scale(0.09922505,0.09922505)" />
  <polygon
     points="7.8125,750 19.5313,758.593 19.5313,758.593 31.25,835.938 19.5313,827.343 "
     style="fill:#222222;fill-opacity:1;stroke:none"
     id="polygon174"
     transform="scale(0.09922505,0.09922505)" />
  <polygon
     points="554.688,756.285 765.336,460.938 765.336,460.938 773.438,540.761 554.688,828.126 "
     style="fill:#352745;fill-opacity:1;stroke:none"
     id="polygon176"
     transform="scale(0.09922505,0.09922505)" />
  <polygon
     points="171.875,601.562 554.687,755.301 554.687,755.301 554.687,828.124 179.851,674.386 "
     style="fill:#291e36;fill-opacity:1;stroke:none"
     id="polygon178"
     transform="scale(0.09922505,0.09922505)" />
  <polygon
     points="546.875,758.593 562.5,750 562.5,750 562.5,827.343 562.5,835.938 "
     style="fill:#352745;fill-opacity:1;stroke:none"
     id="polygon180"
     transform="scale(0.09922505,0.09922505)" />
  <polygon
     points="172.427,607.008 156.618,599.078 125,583.216 125,575.285 140.809,551.492 148.714,543.561 362.133,250.118 362.133,242.188 370.037,250.118 377.941,250.118 749.45,408.736 765.257,408.736 788.971,424.598 788.971,424.598 796.875,424.598 796.875,432.529 781.067,456.322 765.257,464.253 559.743,757.696 551.839,765.626 551.839,757.696 "
     style="fill:#47345d;fill-opacity:1;stroke:none"
     id="polygon182"
     transform="scale(0.09922505,0.09922505)" />
  <polygon
     points="140.625,575.352 551.89,750 551.89,750 781.25,432.46 369.985,257.812 "
     style="fill:#8864b2;fill-opacity:1;stroke:none"
     id="polygon184"
     transform="scale(0.09922505,0.09922505)" />
  <polyline
     points="551.89 750 781.25 432.46 369.985 257.812         140.625 575.352 551.89 750"
     style="fill:url(#linearGradient3854);fill-opacity:1;stroke:none"
     id="polyline186"
     transform="scale(0.09922505,0.09922505)" />
  <polygon
     points="546.875,750 546.875,758.593 546.875,758.593 562.5,835.938 546.875,827.343 "
     style="fill:#291e36;fill-opacity:1;stroke:none"
     id="polygon188"
     transform="scale(0.09922505,0.09922505)" />
  <polygon
     points="146.875,739.31 179.687,731.291 146.875,851.563 40.2343,763.363 73.0467,755.346 81.2498,755.346 81.2498,747.328 32.0312,627.056 15.625,578.947 146.875,546.875 146.875,546.875 130.468,570.929 130.468,578.947 163.281,594.984 97.656,611.02 89.4529,611.02 138.671,731.291 138.671,739.31 "
     style="fill:#9a9a9a;fill-opacity:1;stroke:none"
     id="polygon190"
     transform="scale(0.09922505,0.09922505)" />
  <polygon
     points="140.625,848.632 178.125,726.562 178.125,726.562 187.5,799.804 150,921.874 "
     style="fill:#6b6b6b;fill-opacity:1;stroke:none"
     id="polygon192"
     transform="scale(0.09922505,0.09922505)" />
  <polygon
     points="39.0625,757.812 147.879,848.046 147.879,848.046 156.25,921.874 39.0625,831.64 "
     style="fill:#555555;fill-opacity:1;stroke:none"
     id="polygon194"
     transform="scale(0.09922505,0.09922505)" />
  <polygon
     points="156.25,864.583 193.75,718.75 193.75,718.75 203.125,791.666 156.25,937.5 "
     style="fill:#2b2b2b;fill-opacity:1;stroke:none"
     id="polygon196"
     transform="scale(0.09922505,0.09922505)" />
  <polygon
     points="15.625,757.812 147.977,863.991 147.977,863.991 156.25,937.5 23.897,831.321 "
     style="fill:#222222;fill-opacity:1;stroke:none"
     id="polygon198"
     transform="scale(0.09922505,0.09922505)" />
  <polygon
     points="148.438,867.969 164.063,859.375 164.063,859.375 164.063,936.719 164.063,945.313 "
     style="fill:#2b2b2b;fill-opacity:1;stroke:none"
     id="polygon200"
     transform="scale(0.09922505,0.09922505)" />
  <polygon
     points="146.25,851.004 178.75,731.026 146.25,739.025 138.125,739.025 138.125,731.026 89.3752,611.049 97.5002,611.049 162.5,595.052 178.75,603.05 105.625,619.048 146.25,723.028 186.876,715.03 203.125,715.03 195,723.028 162.5,867.001 154.376,875 146.25,867.001 16.25,763.02 8.12502,755.022 24.3751,755.022 65.0002,747.024 24.3751,627.046 0,579.055 0,571.056 8.12502,571.056 154.376,539.062 154.376,539.062 146.25,547.061 16.25,579.055 32.5001,627.046 81.2502,747.024 81.2502,755.022 73.1252,755.022 40.6251,763.02 "
     style="fill:#3e3e3e;fill-opacity:1;stroke:none"
     id="polygon202"
     transform="scale(0.09922505,0.09922505)" />
  <polygon
     points="140.625,859.375 152.344,867.969 152.344,867.969 164.063,945.313 152.344,936.719 "
     style="fill:#222222;fill-opacity:1;stroke:none"
     id="polygon204"
     transform="scale(0.09922505,0.09922505)" />
  <use
     href="#oid1"
     id="use206"
     x="0"
     y="0"
     width="744.09448"
     height="1052.3622"
     transform="translate(0,-907.81)" />
</svg>
