<?xml version="1.0" encoding="UTF-8" standalone="no"?>

<svg
 xmlns:dc="http://purl.org/dc/elements/1.1/"
   xmlns:cc="http://creativecommons.org/ns#"
   xmlns:rdf="http://www.w3.org/1999/02/22-rdf-syntax-ns#"
   xmlns:svg="http://www.w3.org/2000/svg"
   xmlns="http://www.w3.org/2000/svg"
   xmlns:xlink="http://www.w3.org/1999/xlink"
   xmlns:sodipodi="http://sodipodi.sourceforge.net/DTD/sodipodi-0.dtd"
   xmlns:inkscape="http://www.inkscape.org/namespaces/inkscape"
   id="svg2"
   version="1.1"
   inkscape:version="0.47 r22583"
   width="100"
   height="100"
   sodipodi:docname="processinteraction.svg">
  <metadata
     id="metadata56">
    <rdf:RDF>
      <cc:Work
         rdf:about="">
        <dc:format>image/svg+xml</dc:format>
        <dc:type
           rdf:resource="http://purl.org/dc/dcmitype/StillImage" />
      </cc:Work>
    </rdf:RDF>
  </metadata>
  <defs
     id="defs54">
    <linearGradient
       inkscape:collect="always"
       id="linearGradient3692">
      <stop
         style="stop-color:#648699;stop-opacity:1;"
         offset="0"
         id="stop3694" />
      <stop
         style="stop-color:#648699;stop-opacity:0;"
         offset="1"
         id="stop3696" />
    </linearGradient>
    <linearGradient
       inkscape:collect="always"
       id="linearGradient3684">
      <stop
         style="stop-color:#648699;stop-opacity:1;"
         offset="0"
         id="stop3686" />
      <stop
         style="stop-color:#648699;stop-opacity:0;"
         offset="1"
         id="stop3688" />
    </linearGradient>
    <linearGradient
       inkscape:collect="always"
       id="linearGradient3676">
      <stop
         style="stop-color:#ff7711;stop-opacity:1;"
         offset="0"
         id="stop3678" />
      <stop
         style="stop-color:#ff7711;stop-opacity:0;"
         offset="1"
         id="stop3680" />
    </linearGradient>
    <linearGradient
       inkscape:collect="always"
       id="linearGradient3668">
      <stop
         style="stop-color:#8864b2;stop-opacity:1;"
         offset="0"
         id="stop3670" />
      <stop
         style="stop-color:#8864b2;stop-opacity:0;"
         offset="1"
         id="stop3672" />
    </linearGradient>
    <linearGradient
       inkscape:collect="always"
       id="linearGradient3660">
      <stop
         style="stop-color:#77aa00;stop-opacity:1;"
         offset="0"
         id="stop3662" />
      <stop
         style="stop-color:#77aa00;stop-opacity:0;"
         offset="1"
         id="stop3664" />
    </linearGradient>
    <linearGradient
       inkscape:collect="always"
       id="linearGradient3652">
      <stop
         style="stop-color:#77aa00;stop-opacity:1;"
         offset="0"
         id="stop3654" />
      <stop
         style="stop-color:#77aa00;stop-opacity:0;"
         offset="1"
         id="stop3656" />
    </linearGradient>
    <linearGradient
       inkscape:collect="always"
       id="linearGradient3644">
      <stop
         style="stop-color:#ff7711;stop-opacity:1;"
         offset="0"
         id="stop3646" />
      <stop
         style="stop-color:#ff7711;stop-opacity:0;"
         offset="1"
         id="stop3648" />
    </linearGradient>
    <linearGradient
       inkscape:collect="always"
       id="linearGradient3636">
      <stop
         style="stop-color:#8864b2;stop-opacity:1;"
         offset="0"
         id="stop3638" />
      <stop
         style="stop-color:#8864b2;stop-opacity:0;"
         offset="1"
         id="stop3640" />
    </linearGradient>
    <inkscape:perspective
       sodipodi:type="inkscape:persp3d"
       inkscape:vp_x="0 : 0.5 : 1"
       inkscape:vp_y="0 : 1000 : 0"
       inkscape:vp_z="1 : 0.5 : 1"
       inkscape:persp3d-origin="0.5 : 0.33333333 : 1"
       id="perspective58" />
    <linearGradient
       inkscape:collect="always"
       xlink:href="#linearGradient3636"
       id="linearGradient3642"
       x1="468.75"
       y1="320.31299"
       x2="734.375"
       y2="320.31299"
       gradientUnits="userSpaceOnUse" />
    <linearGradient
       inkscape:collect="always"
       xlink:href="#linearGradient3644"
       id="linearGradient3650"
       x1="625"
       y1="257.8125"
       x2="992.18799"
       y2="257.8125"
       gradientUnits="userSpaceOnUse" />
    <linearGradient
       inkscape:collect="always"
       xlink:href="#linearGradient3652"
       id="linearGradient3658"
       x1="734.375"
       y1="484.375"
       x2="960.93701"
       y2="484.375"
       gradientUnits="userSpaceOnUse" />
    <linearGradient
       inkscape:collect="always"
       xlink:href="#linearGradient3660"
       id="linearGradient3666"
       x1="281.25"
       y1="890.625"
       x2="500"
       y2="890.625"
       gradientUnits="userSpaceOnUse" />
    <linearGradient
       inkscape:collect="always"
       xlink:href="#linearGradient3668"
       id="linearGradient3674"
       x1="15.625"
       y1="726.5625"
       x2="273.43701"
       y2="726.5625"
       gradientUnits="userSpaceOnUse" />
    <linearGradient
       inkscape:collect="always"
       xlink:href="#linearGradient3676"
       id="linearGradient3682"
       x1="164.062"
       y1="667.96899"
       x2="531.25"
       y2="667.96899"
       gradientUnits="userSpaceOnUse" />
    <linearGradient
       inkscape:collect="always"
       xlink:href="#linearGradient3684"
       id="linearGradient3690"
       x1="250"
       y1="273.4375"
       x2="484.375"
       y2="273.4375"
       gradientUnits="userSpaceOnUse" />
    <linearGradient
       inkscape:collect="always"
       xlink:href="#linearGradient3692"
       id="linearGradient3698"
       x1="578.125"
       y1="749.99951"
       x2="812.5"
       y2="749.99951"
       gradientUnits="userSpaceOnUse" />
  </defs>
  <sodipodi:namedview
     pagecolor="#ffffff"
     bordercolor="#666666"
     borderopacity="1"
     objecttolerance="10"
     gridtolerance="10"
     guidetolerance="10"
     inkscape:pageopacity="0"
     inkscape:pageshadow="2"
     inkscape:window-width="1280"
     inkscape:window-height="1002"
     id="namedview52"
     showgrid="false"
     inkscape:zoom="0.31714785"
     inkscape:cx="173.10357"
     inkscape:cy="452.88408"
     inkscape:window-x="1272"
     inkscape:window-y="-8"
     inkscape:window-maximized="1"
     inkscape:current-layer="svg2" />
  <title
     id="title4">Symbol library: processinteraction.svg</title>
  <polygon
     points="1007.81,0 1007.81,1007.81 1007.81,1007.81 0,1007.81 0,0 "
     style="fill:#ffffff;fill-opacity:0;stroke:none"
     id="polygon6"
     transform="scale(0.09922505,0.09922505)" />
  <polygon
     points="642.278,439.925 634.314,439.925 554.688,520.744 554.688,528.826 594.501,561.154 642.278,585.399 690.054,593.482 737.83,601.563 777.644,601.563 825.42,585.399 857.271,569.235 897.085,553.072 944.861,601.563 968.75,367.188 968.75,367.188 737.83,391.433 809.495,464.171 777.644,480.334 737.83,480.334 713.943,480.334 682.092,472.252 658.203,456.089 "
     style="fill:#465900;fill-opacity:1;stroke:none"
     id="polygon8"
     transform="scale(0.09922505,0.09922505)" />
  <polygon
     points="562.5,520.833 602.343,553.24 642.188,577.545 690,585.648 737.813,593.75 785.625,593.75 825.469,577.545 857.344,561.343 897.188,537.037 945,585.648 960.938,375 753.75,399.306 753.75,399.306 825.469,464.121 785.625,480.323 737.813,488.426 713.907,488.426 682.032,480.323 658.125,464.121 634.218,447.916 "
     style="fill:#77aa00;fill-opacity:1;stroke:none"
     id="polygon10"
     transform="scale(0.09922505,0.09922505)" />
  <polygon
     points="477.213,340.164 477.213,371.926 485.243,411.629 517.361,475.153 453.125,538.678 685.981,562.5 661.892,324.282 653.863,332.223 605.685,387.807 597.656,340.164 597.656,308.402 605.685,284.58 621.745,260.757 637.803,236.936 661.892,221.055 677.951,205.174 710.069,197.233 734.157,197.233 742.187,197.233 742.187,78.125 734.157,78.125 734.157,78.125 685.981,86.0661 637.803,101.946 589.627,125.768 549.479,157.531 525.391,197.233 501.302,236.936 485.243,284.58 "
     style="fill:#4e3966;fill-opacity:1;stroke:none"
     id="polygon12"
     transform="scale(0.09922505,0.09922505)" />
  <polygon
     points="492.898,292.505 484.849,340.176 484.849,371.955 492.898,411.679 508.996,443.459 525.095,475.239 468.75,530.854 678.031,554.688 653.883,348.12 605.587,395.79 589.489,371.955 589.489,340.176 589.489,308.396 597.538,284.561 613.637,260.725 629.735,236.891 653.883,221.001 678.031,205.111 702.178,189.222 734.375,189.222 734.375,189.222 734.375,85.938 678.031,93.8824 637.784,109.772 589.489,133.607 557.292,165.386 525.095,197.166 508.996,244.836 "
     style="fill:url(#linearGradient3642);fill-opacity:1;stroke:none"
     id="polygon14"
     transform="scale(0.09922505,0.09922505)" />
  <polygon
     points="880.421,293.509 880.421,341.107 880.421,388.702 856.504,428.366 936.225,515.625 936.225,507.693 968.112,475.962 984.055,428.366 1000,388.702 1000,341.107 1000,293.509 984.055,253.846 968.112,206.25 944.196,174.519 912.308,142.789 872.449,118.991 832.589,95.1924 792.729,87.2602 792.729,87.2602 792.729,0 784.757,7.93219 609.375,150.722 792.729,293.509 792.729,206.25 824.617,222.116 856.504,253.846 "
     style="fill:#99460d;fill-opacity:1;stroke:none"
     id="polygon16"
     transform="scale(0.09922505,0.09922505)" />
  <polygon
     points="896.4,341.189 888.417,388.831 864.47,428.534 936.312,500 960.259,468.238 976.223,428.534 992.188,380.891 992.188,341.189 992.188,293.544 976.223,253.842 960.259,214.14 936.312,174.436 904.383,142.674 864.47,118.853 824.558,102.971 784.647,87.0906 784.647,87.0906 784.647,15.625 625,150.615 784.647,277.664 784.647,190.317 824.558,214.14 864.47,245.902 880.435,293.544 "
     style="fill:url(#linearGradient3650);fill-opacity:1;stroke:none"
     id="polygon18"
     transform="scale(0.09922505,0.09922505)" />
  <polygon
     points="782.866,480.334 758.62,480.334 758.62,577.317 758.62,577.317 831.358,577.317 863.685,569.235 896.013,553.072 944.504,601.563 968.75,367.188 734.375,391.433 807.112,464.171 "
     style="fill:#465900;fill-opacity:1;stroke:none"
     id="polygon20"
     transform="scale(0.09922505,0.09922505)" />
  <polygon
     points="823.381,464.121 782.924,480.323 734.375,488.426 734.375,593.75 734.375,593.75 782.924,593.75 823.381,577.545 855.747,561.343 896.205,537.037 944.754,585.648 960.937,375 750.558,399.306 "
     style="fill:url(#linearGradient3658);fill-opacity:1;stroke:none"
     id="polygon22"
     transform="scale(0.09922505,0.09922505)" />
  <polygon
     points="205.116,862.339 181.22,846.175 101.562,926.994 101.562,935.076 141.391,959.322 181.22,983.567 229.013,999.731 284.773,1007.81 324.601,999.731 364.43,991.649 396.293,975.485 436.121,951.24 483.914,1007.81 507.812,773.438 507.812,773.438 499.847,773.438 276.808,797.683 348.498,870.421 316.636,886.584 284.773,886.584 252.91,886.584 229.013,878.502 "
     style="fill:#465900;fill-opacity:1;stroke:none"
     id="polygon24"
     transform="scale(0.09922505,0.09922505)" />
  <polygon
     points="109.375,927.083 149.235,959.491 189.094,975.694 236.926,991.898 284.757,1000 324.617,991.898 364.477,983.796 396.364,967.593 436.225,943.287 484.055,991.898 500,781.25 300.701,805.556 300.701,805.556 364.477,870.371 324.617,886.574 284.757,894.676 252.87,894.676 228.953,886.574 205.038,870.371 181.123,854.166 "
     style="fill:#77aa00;fill-opacity:1;stroke:none"
     id="polygon26"
     transform="scale(0.09922505,0.09922505)" />
  <polygon
     points="24.1071,746.355 32.1428,817.839 64.2856,881.38 0,944.922 233.035,968.75 208.928,738.411 200.892,746.355 152.679,794.01 144.643,746.355 144.643,722.526 152.679,698.697 168.749,674.87 184.822,651.042 200.892,635.156 225,619.271 249.107,611.328 281.25,603.385 281.25,492.188 281.25,492.188 225,500.13 176.785,516.016 136.606,539.843 96.4284,571.614 72.3213,611.328 48.2142,651.042 32.1428,698.697 "
     style="fill:#4e3966;fill-opacity:1;stroke:none"
     id="polygon28"
     transform="scale(0.09922505,0.09922505)" />
  <polygon
     points="39.7949,698.739 31.7383,746.437 39.7949,786.184 47.8515,817.982 55.9081,849.781 72.0214,881.579 15.625,937.226 225.097,953.125 200.927,754.386 144.531,810.033 136.474,778.235 136.474,746.437 136.474,722.588 144.531,690.789 160.644,666.94 176.757,651.042 192.871,627.193 217.041,611.294 249.268,603.344 273.437,603.344 273.437,603.344 273.437,500 225.097,507.949 176.757,523.849 136.474,547.697 104.247,579.496 72.0214,611.294 55.9081,651.042 "
     style="fill:url(#linearGradient3674);fill-opacity:1;stroke:none"
     id="polygon30"
     transform="scale(0.09922505,0.09922505)" />
  <polygon
     points="419.433,707.641 427.409,747.314 419.433,794.921 395.507,834.594 475.26,921.874 475.26,913.939 507.161,882.201 523.111,834.594 539.062,794.921 539.062,747.314 539.062,707.641 523.111,660.034 507.161,620.361 483.235,588.623 451.334,556.885 411.458,533.081 371.582,509.277 331.706,501.343 331.706,501.343 331.706,414.062 323.73,421.997 156.25,564.819 331.706,707.641 331.706,620.361 371.582,636.23 395.507,667.968 "
     style="fill:#99460d;fill-opacity:1;stroke:none"
     id="polygon32"
     transform="scale(0.09922505,0.09922505)" />
  <polygon
     points="435.462,747.396 427.479,795.051 403.533,834.765 475.373,906.25 499.321,874.479 515.284,834.765 531.25,795.051 531.25,747.396 531.25,707.682 515.284,660.026 499.321,620.313 475.373,588.542 443.444,556.771 403.533,532.943 363.621,517.057 323.709,501.172 323.709,501.172 323.709,429.688 164.062,564.713 323.709,691.797 323.709,604.426 363.621,628.255 403.533,660.026 427.479,699.739 "
     style="fill:url(#linearGradient3682);fill-opacity:1;stroke:none"
     id="polygon34"
     transform="scale(0.09922505,0.09922505)" />
  <polygon
     points="346.175,870.421 321.928,886.584 297.683,886.584 297.683,983.567 297.683,983.567 370.421,983.567 402.749,975.485 435.076,951.24 483.567,1007.81 507.813,773.438 499.732,773.438 273.438,797.683 "
     style="fill:#465900;fill-opacity:1;stroke:none"
     id="polygon36"
     transform="scale(0.09922505,0.09922505)" />
  <polygon
     points="362.268,870.371 321.759,886.574 281.25,894.676 281.25,1000 281.25,1000 321.759,991.898 362.268,983.796 394.676,967.593 435.185,943.287 483.795,991.898 500,781.25 297.454,805.556 "
     style="fill:url(#linearGradient3666);fill-opacity:1;stroke:none"
     id="polygon38"
     transform="scale(0.09922505,0.09922505)" />
  <polygon
     points="411.458,374.053 411.458,374.053 371.212,333.806 500,205.019 435.606,140.625 306.819,277.462 258.522,221.117 234.375,406.25 419.507,390.151 "
     style="fill:#545454;fill-opacity:1;stroke:none"
     id="polygon40"
     transform="scale(0.09922505,0.09922505)" />
  <polygon
     points="355.064,334.052 395.474,374.462 250,390.625 266.164,245.152 306.574,293.642 435.885,156.25 484.375,204.741 355.064,334.052 "
     style="fill:url(#linearGradient3690);fill-opacity:1;stroke:none"
     id="polygon42"
     transform="scale(0.09922505,0.09922505)" />
  <polygon
     points="651.042,649.17 651.042,649.17 691.288,689.453 562.5,826.415 626.894,882.812 755.682,753.906 803.978,802.246 828.125,625 642.993,641.113 "
     style="fill:#545454;fill-opacity:1;stroke:none"
     id="polygon44"
     transform="scale(0.09922505,0.09922505)" />
  <polyline
     points="651.042 649.17  691.288 689.453          562.5 826.415 626.894 882.812  755.682 753.906  803.978 802.246 828.125 625         642.993 641.113"
     style="stroke:none"
     id="polyline46"
     transform="scale(0.09922505,0.09922505)" />
  <polygon
     points="707.435,697.467 707.435,697.467 707.435,689.386 667.025,648.977 812.5,632.812 796.335,778.287 755.926,737.877 626.616,867.187 578.125,826.777 "
     style="fill:url(#linearGradient3698);fill-opacity:1;stroke:none"
     id="polygon48"
     transform="scale(0.09922505,0.09922505)" />
  <use
     href="#oid1"
     id="use50"
     x="0"
     y="0"
     width="744.09448"
     height="1052.3622"
     transform="translate(0,-907.81)" />
</svg>
