<svg id="svg2" xmlns:rdf="http://www.w3.org/1999/02/22-rdf-syntax-ns#" xmlns="http://www.w3.org/2000/svg" enable-background="new -0.913 -0.226 236 190" xml:space="preserve" height="219" width="219" version="1.1" y="0px" x="0px" xmlns:cc="http://creativecommons.org/ns#" xmlns:xlink="http://www.w3.org/1999/xlink" viewBox="-0.913 -0.226 219 219" xmlns:dc="http://purl.org/dc/elements/1.1/">
	<metadata id="metadata290">
		<rdf:RDF>
			<cc:Work rdf:about="">
				<dc:format>image/svg+xml</dc:format>
				<dc:type rdf:resource="http://purl.org/dc/dcmitype/StillImage"/>
				<dc:title/>
			</cc:Work>
		</rdf:RDF>
	</metadata>
	<defs id="defs4">
		<filter id="filter4371-7" color-interpolation-filters="sRGB">
			<feGaussianBlur id="feGaussianBlur4373-1" stdDeviation="1.7991875"/>
		</filter>
		<linearGradient id="linearGradient3470" y2="24.637" gradientUnits="userSpaceOnUse" x2="-15.818" gradientTransform="matrix(0.6768777,0,0,0.6768777,-12.429724,71.126839)" y1="147.93" x1="171.01">
			<stop id="stop4121-3" stop-color="#800080" offset="0"/>
			<stop id="stop4123-5" stop-color="#800080" stop-opacity="0" offset="1"/>
		</linearGradient>
	</defs>
	<g id="g3463" stroke-miterlimit="4" transform="matrix(1.6987606,0,0,1.7082729,-19.012299,-117.61643)">
		<path id="polygon259-4" opacity="0.5" d="m152.67,16.85-121.62,9.875,0.4375,69.031c10.332,19.157-1.5559,73.198,6.3652,87.328,27.921,3.1303,30.872,2.9709,57.135,6.0154l57.687,4.7188v-0.65625l28.531-10.719-0.71875-158.47-27.812-6.8438v-0.28125z" transform="matrix(0.6768777,0,0,0.6768777,6.9962863,64.022467)" filter="url(#filter4371-7)" stroke-width="0" fill="#000"/>
		<polygon id="polygon259-8" style="stroke-dasharray:none;" stroke-opacity="0.99115044" transform="matrix(0.6768777,0,0,0.6768777,-11.736892,70.435997)" stroke="#736d6d" points="171.94,176.98,51.316,167.09,50.764,78.925,50.328,9.887,171.94,0" stroke-width="2" fill="#d4d4d4"/>
		<polygon id="polygon261-3" style="stroke-dasharray:none;" transform="matrix(0.67695351,0,0,0.67806116,-10.49998,69.892369)" stroke="#625959" points="200.88,166.1,171.94,176.98,171.94,0.989,200.15,7.91" stroke-width="2" fill="#858585"/>
		<path id="polygon259-2" opacity="0.5" d="m22.986,111.83s15.754-41.855,75.357,21.072c9.6264,10.163,26.31-17.296,26.31-17.296l0.14639,66.557-19.492,7.327-1.6379,0.009-80.679-6.4085c0.12023-45.204,0.0436-65.22-0.0049-71.261z" stroke-width="0" fill="url(#linearGradient3470)"/>
		<path id="polygon261-1" opacity="0.89655175" d="m105.56,189.31s8.3842-10.237,11.19-16.158c4.0916-8.6333,7.9055-27.55,7.9055-27.55l0.49283,36.333z" stroke-width="0" fill="#613e61"/>
	</g>

	<path id="path260" fill="#56b6d8" d="m60.164,13.582c-0.28999,5.3731-4.3126,11.499-6.5027,16.256-2.3752,5.1605-5.1922,10.223-8.668,14.74-6.9708,9.0477-12.184,16.906-15.981,27.805-6.2431,17.894,0.82026,39.827,19.476,47.027,5.1439,1.9816,11.818,2.3089,17.203,1.1365,0,0,30.561-2.603,27.961-40.64-1.419-20.781-20.128-35.307-29.23-52.608-2.161-4.114-4.516-8.936-4.258-13.72z" stroke="#006dd1"/>
	<path id="path262" fill="#79c9e2" d="m66.017,40.567s24.384,22.436,18.206,56.57c0,0-10.078-8.4539-17.231-2.9261,0,0,13.331-20.482-0.97492-53.644z"/>
	<path id="path264" fill="#aedae6" d="m60.164,27.565s-1.9512,25.032-7.1517,36.089c0,0-9.752,4.2256-14.957,13.326,0.0014,0,20.81-42.59,22.108-49.414z"/>
	<path id="path266" fill="#79c9e2" d="m38.057,93.237s4.2256,10.076,16.581,19.181c0-0.001-18.532-2.6016-16.581-19.181z"/>
	<path id="path268" fill="#bfe6ef" d="m38.057,76.98s22.111-46.923,22.108-49.414c0,0-13.874,35.223-15.824,41.723-0.0014,0-5.8482,7.8035-6.2845,7.6917z"/>
	<path id="path270" fill="#bfe6ef" d="m66.017,40.567s22.321,29.585,13.652,53.644c0,0,3.9066,2.6072,4.5542,2.9261,0,0,6.5055-30.452-18.206-56.57z"/>
	<path id="path272" fill="#bfe6ef" d="m38.057,93.237s-1.2967,16.367,16.581,19.181c0-0.001-15.713-4.3333-16.581-19.181z"/>
	<g id="g3316" transform="matrix(1.2889135,0,0,1.2889135,-19.622729,-54.359334)">
		<path id="path274" d="m99.105,113.94c0.772,2.946,2.093,5.836,3.47,8.533,1.296,2.53,3.554,4.942,3.725,7.907,0.175,3.088-1.976,6.183-4.05,8.261,0,0-4.94,5.163-7.41,8.082,0,0,11.226-13.023,4.265-32.783z" fill="#f69221"/>
		<path id="path276" d="m110.33,98.226c-0.095,2.777-0.382,5.424,0.032,8.213,0.908,6.137,7.09,10.82,10.162,16.007,2.466,4.157,4.722,8.693,5.646,13.471,1.071,5.54-0.493,9.32-2.379,14.374-1.04,2.802-5.267,14.202-1.335,16.422,0,0,5.164,2.918,6.736-3.372,0,0,1.57-7.854,4.04-7.182,0,0-3.59,7.182-0.448,12.796,0,0,9.208,20.212-12.576,26.05,0,0-23.067,4.283-30.986-9.206,0,0-11.676-17.74,4.268-30.985,0,0,16.617-13.027,16.39-25.154-0.23-1.649-0.554-3.562-0.9-5.279-0.561-2.752-1.969-5.212-2.021-8.079-0.038-1.965,0.218-4.059,0.403-6.015,0.223-2.379,0.496-4.795,1.033-7.127,0.36-1.581,1.739-3.495,1.935-4.934z" fill="#f05c27"/>
		<path id="path278" d="m95.216,146.13c1.313-1.671,3.851-2.918,5.376-4.526,2.479-2.611,4.998-6.038,5.664-9.655,0.729-3.912-2.495-7.961-4.605-10.969,0,0,3.743,5.318,2.172,8.684-0.001-0.001-1.198,7.034-8.607,16.466z" fill="#f05c27"/>
		<path id="path280" d="m91.361,186.73c-0.527-0.751-0.958-1.545-1.217-2.372-0.6-1.928-0.336-4.119-0.353-6.108-0.046-5.539,0.383-10.893,2.892-15.944,1.519-3.047,3.829-5.549,6.422-7.721,0.012-0.009,15.27-12.804,14.146-24.029,0,0,0-6.062-0.899-7.407,0,0,7.637,4.49,7.859,25.822,0,0-4.04,26.723,3.37,27.841,0,0,4.68,2.343,5.968-7.873,0.034-0.286,0.068-0.577,0.097-0.882,0,0,4.265,14.82-0.676,22.007-1.321,1.923-7.797,4.611-9.891,5.056-6.372,1.349-11.765,0.124-18.382-1.225-2.362-0.481-4.235-1.804-6.128-3.31-1.232-0.981-2.21-2.445-3.208-3.855z" fill="#faaf3b"/>
		<path id="path282" d="m94.447,177.85c0.204,0.556,0.417,1.099,0.617,1.615,0.964,2.481,1.758,5.11,3.112,7.421,0.952,1.625,2.663,2.507,3.624,4.071,0,0-11.003-17.962,1.572-29.188,0,0,12.8-10.779,9.656-17.518,0,0,8.084,12.577,0.224,26.945,0,0-2.694,8.086-0.449,11.678,0,0,3.295-13.551,6.214-12.651-0.227-0.069-0.41,4.833-0.378,5.127,0.376,3.322,2.823,5.965,3.218,9.314,0.398,3.383-0.614,6.744-2.992,9.212-1.076,1.121-5.719,1.017-7.075,1.064-4.512,0.157-10.582,0.423-14.401-2.214-2.382-1.641-3.028-4.852-3.816-7.51-1.343-4.544-1.395-9.275,0.334-13.712-0.789,2.016-0.2,4.294,0.54,6.346z" fill="#fff100"/>
		<path id="path284" d="m104.27,164.24s-6.288,6.736-2.244,13.244c-0.832-1.337,0.595-5.71,1.054-7.09,0.854-2.575,3.238-4.344,4.926-6.451,1.802-2.25,3.577-4.54,5.247-6.892,0,0-7.186,11.679-4.041,20.661,0,0,2.021,5.387,3.817,6.959,0,0,2.095-9.953,4.492-11.9-1.277,0.257,2.417,8.763,3.016,9.611-0.165-0.339-0.324-0.673-0.506-1.005,1.785,3.211,2.48,10.671-0.582,13.373-0.823,0.726-3.337,0.78-4.412,0.92-1.788,0.229-3.187,0.183-5.516,0.183-3.208,0-6.296-1.632-7.765-4.416-1.275-2.412-1.475-5.539-2.205-8.152-0.94-3.366-2.155-6.873-1.651-10.418,0.465-3.326,3.176-7.273,6.37-8.627z" fill="#f2f2f2"/>
		<path id="path286" d="m101.46,190.06s-3.704,0.109-6.062-6.964c0,0-1.34,7.915,2.479,9.936,3.183,1.409,7.23,2.818,11.029,2.697" fill="#f2f2f2"/>
	</g>
</svg>