<svg id="svg2" xmlns:rdf="http://www.w3.org/1999/02/22-rdf-syntax-ns#" xmlns="http://www.w3.org/2000/svg" enable-background="new -0.412 -0.726 235 191" xml:space="preserve" height="219" width="219" version="1.1" y="0px" x="0px" xmlns:cc="http://creativecommons.org/ns#" xmlns:xlink="http://www.w3.org/1999/xlink" viewBox="-0.412 -0.726 219 219" xmlns:dc="http://purl.org/dc/elements/1.1/">
	<metadata id="metadata264">
		<rdf:RDF>
			<cc:Work rdf:about="">
				<dc:format>image/svg+xml</dc:format>
				<dc:type rdf:resource="http://purl.org/dc/dcmitype/StillImage"/>
				<dc:title/>
			</cc:Work>
		</rdf:RDF>
	</metadata>
	<defs id="defs4">
		<filter id="filter4371-7" color-interpolation-filters="sRGB">
			<feGaussianBlur id="feGaussianBlur4373-1" stdDeviation="1.7991875"/>
		</filter>
		<linearGradient id="linearGradient3470" y2="24.637" gradientUnits="userSpaceOnUse" x2="-15.818" gradientTransform="matrix(0.6768777,0,0,0.6768777,-12.429724,71.126839)" y1="147.93" x1="171.01">
			<stop id="stop4121-3" stop-color="#800080" offset="0"/>
			<stop id="stop4123-5" stop-color="#800080" stop-opacity="0" offset="1"/>
		</linearGradient>
	</defs>

	<g id="g3463" stroke-miterlimit="4" transform="matrix(1.70937,0,0,1.7189417,-22.991653,-118.92477)">
		<path id="polygon259-4" opacity="0.5" d="m152.67,16.85-121.62,9.875,0.4375,69.031c10.332,19.157-1.5559,73.198,6.3652,87.328,27.921,3.1303,30.872,2.9709,57.135,6.0154l57.687,4.7188v-0.65625l28.531-10.719-0.71875-158.47-27.812-6.8438v-0.28125z" transform="matrix(0.6768777,0,0,0.6768777,6.9962863,64.022467)" filter="url(#filter4371-7)" stroke-width="0" fill="#000"/>
		<polygon id="polygon259-8" style="stroke-dasharray:none;" stroke-opacity="0.99115044" transform="matrix(0.6768777,0,0,0.6768777,-11.736892,70.435997)" stroke="#736d6d" points="50.764,78.925,50.328,9.887,171.94,0,171.94,176.98,51.316,167.09" stroke-width="2" fill="#d4d4d4"/>
		<polygon id="polygon261-3" style="stroke-dasharray:none;" transform="matrix(0.67695351,0,0,0.67806116,-10.49998,69.892369)" stroke="#625959" points="200.88,166.1,171.94,176.98,171.94,0.989,200.15,7.91" stroke-width="2" fill="#858585"/>
		<path id="polygon259-2" opacity="0.5" d="m22.986,111.83s15.754-41.855,75.357,21.072c9.6264,10.163,26.31-17.296,26.31-17.296l0.14639,66.557-19.492,7.327-1.6379,0.009-80.679-6.4085c0.12023-45.204,0.0436-65.22-0.0049-71.261z" stroke-width="0" fill="url(#linearGradient3470)"/>
		<path id="polygon261-1" opacity="0.89655175" d="m105.56,189.31s8.3842-10.237,11.19-16.158c4.0916-8.6333,7.9055-27.55,7.9055-27.55l0.49283,36.333z" stroke-width="0" fill="#613e61"/>
	</g>
</svg>