<?xml version="1.0" encoding="UTF-8" standalone="no"?>
<svg xmlns:rdf="http://www.w3.org/1999/02/22-rdf-syntax-ns#" xmlns="http://www.w3.org/2000/svg" version="1.1" xml:space="preserve" height="219" viewBox="-0.412 -0.726 219 219" width="219" enable-background="new -0.412 -0.726 235 191" y="0px" x="0px" xmlns:cc="http://creativecommons.org/ns#" xmlns:xlink="http://www.w3.org/1999/xlink" xmlns:dc="http://purl.org/dc/elements/1.1/">
	<metadata>
		<rdf:RDF>
			<cc:Work rdf:about="">
				<dc:format>image/svg+xml</dc:format>
				<dc:type rdf:resource="http://purl.org/dc/dcmitype/StillImage"/>
				<dc:title/>
			</cc:Work>
		</rdf:RDF>
	</metadata>
	<defs>
		<filter id="filter4371-7" color-interpolation-filters="sRGB">
			<feGaussianBlur stdDeviation="1.7991875"/>
		</filter>
		<filter id="filter4108" width="12.288079" y="-0.038395021" x="-5.6440396" height="1.07679" color-interpolation-filters="sRGB">
			<feGaussianBlur stdDeviation="1.340624"/>
		</filter>
		<linearGradient id="linearGradient3616" x1="178.4" gradientUnits="userSpaceOnUse" y1="160.6" gradientTransform="matrix(1.1350101,0,0,1.1350101,-23.048372,2.0501152)" x2="103.4" y2="88.21">
			<stop stop-color="#bb8b0d" offset="0"/>
			<stop stop-color="#cca90f" offset="0.3661"/>
			<stop stop-color="#f4eb16" offset="1"/>
		</linearGradient>
	<linearGradient id="linearGradient3772" y2="24.64" gradientUnits="userSpaceOnUse" x2="-15.82" gradientTransform="matrix(1.0988977,0,0,1.1503822,-33.487367,5.1285444)" y1="147.9" x1="171"><stop stop-color="#800080" offset="0"/><stop stop-color="#800080" stop-opacity="0" offset="1"/></linearGradient></defs>
	<path d="m152.7,16.85-121.6,9.875,0.4375,69.03c10.33,19.16-1.556,73.2,6.365,87.33,27.92,3.13,30.87,2.971,57.14,6.015l57.69,4.719v-0.6562l28.53-10.72-0.7188-158.5-27.81-6.844v-0.2121z" fill-opacity="0.50196078" transform="matrix(1.0988977,0,0,1.1503822,-5.9496203,-10.945636)" filter="url(#filter4371-7)" fill="#000"/><polygon points="171.9,0,171.9,177,51.32,167.1,50.76,78.92,50.33,9.887" fill="#d4d4d4" transform="matrix(1.0988977,0,0,1.1503822,-32.362568,3.9544293)"/><polygon points="171.9,177,171.9,0.989,200.2,7.91,200.9,166.1" fill="#858585" transform="matrix(1.0990208,0,0,1.1523936,-30.354466,3.0305106)"/><path opacity="0.5" d="m24.01,74.31s25.58-71.13,122.3,35.81c15.63,17.27,42.71-29.4,42.71-29.4l0.2377,113.1-31.64,12.45-2.659,0.0153-131-10.89c0.1952-76.83,0.07078-110.8-0.008-121.1z" fill="url(#linearGradient3772)"/><path opacity="0.89655175" d="m158.1,206s13.61-17.4,18.17-27.46c6.643-14.67,12.83-46.82,12.83-46.82l0.8001,61.75z" fill="#613e61"/>
	<path d="m23.54,16.44,60.24-5.003c0.1078,3.753,0.6768,4.764,0.7856,8.517,0.1832,6.347,0.3308,12.7,0.5516,19.04,0.09631,2.769-0.3056,5.602,0.829,8.19,0.3831,0.8738,0.8928,1.924,1.6,2.539,3.094,2.684,7.282-0.9112,7.82-4.335,0,0,0.9714-6.177,6.243-2.593,0,0,9.196,8.968,3.047,24.98-0.5893,1.535-1.54,3.248-2.816,4.216-1.612,1.221-3.52,0.9826-5.035-0.2788-1.714-1.427-1.749-3.53-2.965-5.258-0.7411-1.052-1.529-1.431-2.726-1.535-2.941-0.2527-4.781,1.482-5.56,4.555l0.1863,41.53s-19.16,0.1972-19.25,0.1983c-1.394,0.0147-3.183,0.6268-4.285,1.528-4.034,3.297,0.6532,8.054,3.722,9.162,0,0,5.103,1.811,1.832,6.289-3.791,5.191-12.43,5.993-17.75,4.476-2.85-0.8126-9.58-2.812-9.992-6.692-0.3234-3.046,1.435-4.511,4.06-4.922,0,0,2.915-0.4556,3.29-3.558,0,0,0.7997-4.847-4.385-6.17l-18.75,0.1428z" stroke="#6a6a6a" stroke-dasharray="none" stroke-miterlimit="4" stroke-width="1.14300000000000000" fill="none"/>
	<path d="m85.97,110.8,25.83-0.6472s5.685-0.8076,4.527-6.696c-0.3597-1.828-1.567-3.415-3.361-3.676,0,0-8.033-3.181-2.721-8.436,0,0,7.514-8.159,21.12-3.319,0,0,8.678,3.319,5.831,8.435-1.951,3.504-9.663,3.549-7.256,9.543,0,0,1.166,3.181,3.757,3.734h23.97l31-5.948,0.501,89.67-31.99,12.6-69.13-5.496-1.252-29.15s-1.814-8.436-7.903-4.011c-0.3565,0.2589-0.6188,0.5122-0.9183,0.9482-1.245,1.816-0.8043,5.101-3.096,6.08-2.351,1.005-4.504-0.8895-5.832-2.743-3.438-4.796-4.258-12.01-3.003-17.72,0.8831-4.017,2.328-10.04,6.791-10.97,3.674-0.7667,4.011,4.256,5.608,6.37,2.356,3.118,8.147,1.504,8.079-2.859-0.001,0-0.5483-35.72-0.5483-35.72z" stroke="#808080" stroke-width="1.10187626000000010" fill="url(#linearGradient3616)"/>
	<path stroke-linejoin="miter" d="m159,94.54,0.0346,85.21" transform="matrix(1.1350101,0,0,1.1350101,-23.048372,2.0501152)" filter="url(#filter4108)" stroke="#000" stroke-linecap="butt" stroke-width="1px" fill="none"/>
</svg>
