<?xml version="1.0" encoding="UTF-8" standalone="no"?>
<!-- Generator: Adobe Illustrator 13.0.2, SVG Export Plug-In  -->
<svg xmlns:rdf="http://www.w3.org/1999/02/22-rdf-syntax-ns#" xmlns="http://www.w3.org/2000/svg" enable-background="new 21.152 45.375 219 219" xml:space="preserve" height="219px" width="219px" version="1.1" y="0px" x="0px" xmlns:cc="http://creativecommons.org/ns#" xmlns:xlink="http://www.w3.org/1999/xlink" viewBox="21.152 45.375 219 219" xmlns:dc="http://purl.org/dc/elements/1.1/"><metadata><rdf:RDF><cc:Work rdf:about=""><dc:format>image/svg+xml</dc:format><dc:type rdf:resource="http://purl.org/dc/dcmitype/StillImage"/><dc:title/></cc:Work></rdf:RDF></metadata>
<defs><filter id="filter3834-1" color-interpolation-filters="sRGB"><feGaussianBlur stdDeviation="1.812184"/></filter></defs>
<g><g fill-opacity="0.50196078" fill="#000" transform="matrix(1.1523846,0,0,1.1523846,-262.56282,-4.5650964)"><path d="m413.5,68.91h-63.6c-11.16,0-20.2,10.82-20.2,24.18v0.137h-52.31c-11.15,0-20.2,10.83-20.2,24.2v80.31c0,13.34,9.045,24.18,15.35,24.18h136.1c15.99,0,25.02-10.83,25.02-24.18v-104.6c0-13.36-9.031-24.18-20.18-24.18z" fill-opacity="0.50196078" filter="url(#filter3834-1)" fill="#000"/></g><g stroke="#909090" transform="translate(1.8740667,5.6912506)"><path d="M207.8,62.51h-73.28c-12.86,0-23.28,12.47-23.28,27.87v0.159h-60.25c-12.85,0-23.27,12.48-23.27,27.88v92.54c0,15.38,10.42,27.86,17.69,27.86h156.9c18.42,0,28.83-12.48,28.83-27.86v-120.5c0-15.39-10.41-27.87-23.25-27.87z" stroke-width="3.4571538" fill="#cacaca"/><path d="m230.2,88.52c0-15.79-10.37-28.58-23.15-28.58h-72.99c-12.8,0-22.82,11.92-22.82,27.71v0.5383" stroke-width="3.45228696" fill="#e8e8e8"/></g></g><path d="m181.7,235.2-128.1,0c-3.398,0-6.138-2.891-6.138-6.476v-116.5c0-3.587,2.74-6.475,6.138-6.475l153.4,0.002c3.188,0,5.826,2.553,6.137,5.826l0.513,115.1s0.9381,8.425-6.279,8.425l-25.7,0.0942z" stroke="#5f6062" stroke-width="1.88673663" fill="#f2f2f2"/><line stroke-width="0.4717" x1="202.5" y1="140.6" stroke="#5f6062" x2="60.47" y2="140.7" fill="#e6e7e8"/><line stroke-width="0.4717" x1="202.3" y1="154.1" stroke="#5f6062" x2="60.25" y2="154.3" fill="#e6e7e8"/><line stroke-width="0.4717" x1="202.4" y1="167.9" stroke="#5f6062" x2="60.31" y2="168.1" fill="#e6e7e8"/><line stroke-width="0.4717" x1="202.5" y1="182.3" stroke="#5f6062" x2="60.42" y2="182.4" fill="#e6e7e8"/><line stroke-width="0.4717" x1="202.5" y1="196.1" stroke="#5f6062" x2="60.47" y2="196.3" fill="#e6e7e8"/><line stroke-width="0.4717" x1="202.3" y1="209.7" stroke="#5f6062" x2="60.25" y2="209.8" fill="#e6e7e8"/><line stroke-width="1.224" y2="172.5" y1="151.8" stroke="#ee3424" stroke-dasharray="none" x2="105.9" stroke-miterlimit="4" x1="105.9" fill="none"/><line stroke-width="1.224" y2="199.7" y1="188" stroke="#ee3424" stroke-dasharray="none" x2="165.9" stroke-miterlimit="4" x1="166" fill="none"/><rect height="9.809" width="37.82" y="142.6" x="69.29" fill="#5191cd"/><rect height="9.807" width="19.63" y="156.2" x="69.36" fill="#5191cd"/><rect height="9.808" width="46.19" y="170.1" x="104.7" fill="#5191cd"/><rect height="9.807" width="37.82" y="184.2" x="129.3" fill="#5191cd"/><rect height="9.807" width="37.53" y="197.9" x="164.7" fill="#5191cd"/><rect height="9.808" width="16.75" y="156.2" x="185.5" fill="#5191cd"/><rect height="11.5" width="139.7" y="113.5" x="62.57" fill="#d59f0f"/><polyline transform="matrix(0.90637335,0,0,0.98187334,13.954867,22.153429)" stroke="#5f6062" points="55.16,110,55.16,205.3,207.5,205.4" stroke-width="3" fill="none"/><line stroke-width="0.4717" x1="77.57" y1="220.5" stroke="#5f6062" x2="77.57" y2="227.1" fill="none"/><line stroke-width="0.4717" x1="93.36" y1="220.6" stroke="#5f6062" x2="93.36" y2="227.2" fill="none"/><line stroke-width="0.4717" x1="109.1" y1="220.5" stroke="#5f6062" x2="109.1" y2="227.1" fill="none"/><line stroke-width="0.4717" x1="125" y1="220.6" stroke="#5f6062" x2="125" y2="227.2" fill="none"/><line stroke-width="0.4717" x1="141.3" y1="220.6" stroke="#5f6062" x2="141.3" y2="227.2" fill="none"/><line stroke-width="0.4717" x1="157.1" y1="220.7" stroke="#5f6062" x2="157.1" y2="227.3" fill="none"/><line stroke-width="0.4717" x1="172.9" y1="220.6" stroke="#5f6062" x2="172.9" y2="227.2" fill="none"/><line stroke-width="0.4717" x1="188.8" y1="220.7" stroke="#5f6062" x2="188.8" y2="227.3" fill="none"/></svg>
