<?xml version="1.0" encoding="UTF-8" standalone="no"?>
<svg
   xmlns:dc="http://purl.org/dc/elements/1.1/"
   xmlns:cc="http://creativecommons.org/ns#"
   xmlns:rdf="http://www.w3.org/1999/02/22-rdf-syntax-ns#"
   xmlns:svg="http://www.w3.org/2000/svg"
   xmlns="http://www.w3.org/2000/svg"
   xmlns:sodipodi="http://sodipodi.sourceforge.net/DTD/sodipodi-0.dtd"
   xmlns:inkscape="http://www.inkscape.org/namespaces/inkscape"
   id="svg2"
   enable-background="new 22.278 45.375 219 219"
   xml:space="preserve"
   height="219px"
   width="219px"
   version="1.1"
   y="0px"
   x="0px"
   viewBox="22.278 45.375 219 219"
   inkscape:version="0.47 r22583"
   sodipodi:docname="recommendation.svg"><sodipodi:namedview
   pagecolor="#ffffff"
   bordercolor="#666666"
   borderopacity="1"
   objecttolerance="10"
   gridtolerance="10"
   guidetolerance="10"
   inkscape:pageopacity="0"
   inkscape:pageshadow="2"
   inkscape:window-width="640"
   inkscape:window-height="480"
   id="namedview14"
   showgrid="false"
   inkscape:zoom="1.0776256"
   inkscape:cx="109.5"
   inkscape:cy="109.5"
   inkscape:current-layer="svg2" /><metadata
   id="metadata288"><rdf:RDF><cc:Work
       rdf:about=""><dc:format>image/svg+xml</dc:format><dc:type
         rdf:resource="http://purl.org/dc/dcmitype/StillImage" /><dc:title /></cc:Work></rdf:RDF></metadata>
<defs
   id="defs4"><inkscape:perspective
   sodipodi:type="inkscape:persp3d"
   inkscape:vp_x="0 : 109.5 : 1"
   inkscape:vp_y="0 : 1000 : 0"
   inkscape:vp_z="219 : 109.5 : 1"
   inkscape:persp3d-origin="109.5 : 73 : 1"
   id="perspective16" />
<filter
   id="filter3883"><feGaussianBlur
     id="feGaussianBlur3885"
     stdDeviation="2.7717187" /></filter><filter
   id="filter3900"><feGaussianBlur
     id="feGaussianBlur3902"
     stdDeviation="1.6343889" /></filter><inkscape:perspective
   id="perspective2950"
   inkscape:persp3d-origin="0.5 : 0.33333333 : 1"
   inkscape:vp_z="1 : 0.5 : 1"
   inkscape:vp_y="0 : 1000 : 0"
   inkscape:vp_x="0 : 0.5 : 1"
   sodipodi:type="inkscape:persp3d" /></defs>
<path
   id="path3098"
   opacity="0.5"
   d="m44.169,60.145c-6.149,0-11.125,5.0082-11.125,11.156v108.53c0,6.149,4.976,11.125,11.125,11.125h26.438l-7.5625,53.5,45.937-53.5h98.156c6.149,0,11.156-4.977,11.156-11.125v-108.53c0-6.149-5.0082-11.156-11.156-11.156h-162.97z"
   transform="matrix(1.0952704,0,0,1.0952704,-2.4799784,-5.022704)"
   filter="url(#filter3883)"
   fill="#000" /><path
   id="path262"
   style="stroke-dasharray:none;"
   d="m39.147,53.652c-6.7348,0-12.185,5.4854-12.185,12.219v118.87c0,6.7348,5.4501,12.185,12.185,12.185h28.956l-8.283,58.597,50.314-58.597h107.51c6.7348,0,12.219-5.4512,12.219-12.185v-118.87c0-6.7348-5.4854-12.219-12.219-12.219h-178.49z"
   stroke="#999"
   stroke-miterlimit="4"
   stroke-width="1.8619597"
   fill="#efefef" />


<path
   id="path274"
   style="stroke-dasharray:3.28581108;"
   d="m110.05,189.52,101.13,0.16648c6.1938,0,11.217-4.9243,11.217-10.998v-107.25c0-6.0755-5.0229-11-11.217-11h-164.2c-6.1938,0-11.216,4.9243-11.216,11v107.24c0,6.0733,5.0218,10.998,11.216,10.998l29.704,0.14786-0.18839,0.75355-6.4238,45.128,39.632-46.166,0.34391-0.0307z"
   stroke="#585858"
   stroke-width="3.28581119"
   fill="none" />
<path
   inkscape:connector-curvature="0"
   id="path4102"
   d="m 186.70108,80.234789 c -3.08645,0.15643 -6.15952,1.15954 -8.8125,3.09375 L 97.326076,142.07854 80.41982,121.17229 c -5.301291,-6.55854 -15.084149,-7.71448 -21.875,-2.59375 -6.793969,5.11971 -8.023159,14.59469 -2.71875,21.15625 l 25.96875,32.0625 c 0.158208,0.22597 0.296554,0.46728 0.46875,0.6875 0.468271,0.59925 0.964366,1.14194 1.5,1.65625 0.238587,0.22909 0.468288,0.47546 0.71875,0.6875 0.383194,0.33932 0.808399,0.64102 1.21875,0.9375 5.10885,3.69121 12.131776,4.05662 17.65626,0.65625 0.2098,-0.123 0.41938,-0.2729 0.625,-0.40625 0.20816,-0.14192 0.42202,-0.28436 0.625,-0.4375 0.0374,-0.0268 0.0878,-0.0353 0.125,-0.0625 l 92.5,-67.4375 c 7.07359,-5.15788 8.46683,-14.887101 3.125,-21.718751 -3.33734,-4.27041 -8.51217,-6.38573 -13.65625,-6.125 z"
   style="fill:#696766;fill-opacity:1;stroke:#000000;stroke-opacity:1" /><path
   style="fill:#d59f0f;fill-opacity:1;stroke:#000000;stroke-width:1;stroke-miterlimit:4;stroke-opacity:1;stroke-dasharray:none"
   d="m 186.70108,69.758449 c -3.08645,0.15643 -6.15952,1.15955 -8.8125,3.09375 L 97.326066,131.6022 80.41982,110.69595 c -5.301291,-6.55854 -15.084149,-7.71448 -21.875,-2.59375 -6.793969,5.11971 -8.023159,14.59469 -2.71875,21.15625 l 25.96875,32.0625 c 0.158208,0.22597 0.296554,0.46728 0.46875,0.6875 0.468271,0.59925 0.964366,1.14194 1.5,1.65625 0.238587,0.22909 0.468288,0.47546 0.71875,0.6875 0.383194,0.33932 0.808399,0.64102 1.21875,0.9375 5.10885,3.69121 12.131776,4.05662 17.65626,0.65625 0.2098,-0.123 0.41938,-0.2729 0.625,-0.40625 0.20816,-0.14192 0.42202,-0.28436 0.625,-0.4375 0.0374,-0.0268 0.0878,-0.0353 0.125,-0.0625 l 92.5,-67.437501 c 7.07359,-5.15788 8.46683,-14.8871 3.125,-21.71875 -3.33734,-4.27041 -8.51217,-6.38572 -13.65625,-6.125 z"
   id="path270"
   inkscape:connector-curvature="0" /></svg>