<?xml version="1.0" encoding="UTF-8" standalone="no"?>

<svg
 xmlns:dc="http://purl.org/dc/elements/1.1/"
   xmlns:cc="http://creativecommons.org/ns#"
   xmlns:rdf="http://www.w3.org/1999/02/22-rdf-syntax-ns#"
   xmlns:svg="http://www.w3.org/2000/svg"
   xmlns="http://www.w3.org/2000/svg"
   xmlns:sodipodi="http://sodipodi.sourceforge.net/DTD/sodipodi-0.dtd"
   xmlns:inkscape="http://www.inkscape.org/namespaces/inkscape"
   id="svg2"
   version="1.1"
   inkscape:version="0.47 r22583"
   width="100"
   height="100"
   sodipodi:docname="relationshipmatrixbutton.svg">
  <metadata
     id="metadata80">
    <rdf:RDF>
      <cc:Work
         rdf:about="">
        <dc:format>image/svg+xml</dc:format>
        <dc:type
           rdf:resource="http://purl.org/dc/dcmitype/StillImage" />
      </cc:Work>
    </rdf:RDF>
  </metadata>
  <defs
     id="defs78">
    <inkscape:perspective
       sodipodi:type="inkscape:persp3d"
       inkscape:vp_x="0 : 0.5 : 1"
       inkscape:vp_y="0 : 1000 : 0"
       inkscape:vp_z="1 : 0.5 : 1"
       inkscape:persp3d-origin="0.5 : 0.33333333 : 1"
       id="perspective82" />
  </defs>
  <sodipodi:namedview
     pagecolor="#ffffff"
     bordercolor="#666666"
     borderopacity="1"
     objecttolerance="10"
     gridtolerance="10"
     guidetolerance="10"
     inkscape:pageopacity="0"
     inkscape:pageshadow="2"
     inkscape:window-width="1280"
     inkscape:window-height="1002"
     id="namedview76"
     showgrid="false"
     inkscape:zoom="0.22425739"
     inkscape:cx="372.04724"
     inkscape:cy="481.62891"
     inkscape:window-x="1272"
     inkscape:window-y="-8"
     inkscape:window-maximized="1"
     inkscape:current-layer="svg2" />
  <title
     id="title4">Symbol library: relationshipmatrixbutton.svg</title>
  <polygon
     points="0,1007.81 0,0 1007.81,0 1007.81,1007.81 1007.81,1007.81 "
     style="fill:#ffffff;fill-opacity:0;stroke:none"
     id="polygon6"
     transform="matrix(0.09922505,0,0,0.09922505,0,2.4414062e-6)" />
  <polygon
     points="558.967,999.938 511.718,1007.81 456.597,999.938 409.35,992.064 362.103,984.189 314.856,968.44 236.111,921.193 165.24,858.197 102.244,787.327 54.9975,700.707 39.2485,661.335 23.4995,614.088 15.625,558.967 15.625,511.718 15.625,456.597 23.4995,409.35 39.2485,362.103 54.9975,314.856 102.244,236.111 165.24,165.24 236.111,102.244 314.856,54.998 362.103,39.248 409.35,23.5 456.597,15.625 511.718,15.625 558.967,15.625 614.088,23.5 661.335,39.248 700.707,54.998 787.327,102.244 858.197,165.24 921.193,236.111 968.441,314.856 984.189,362.103 992.064,409.35 999.939,456.597 1007.81,511.718 1007.81,511.718 999.939,558.967 992.064,614.088 984.189,661.335 968.441,700.707 921.193,787.327 858.197,858.197 787.327,921.193 700.707,968.44 661.335,984.189 614.088,992.064 "
     style="fill:#999999;fill-opacity:1;stroke:none"
     id="polygon8"
     transform="matrix(0.09922505,0,0,0.09922505,0,2.4414062e-6)" />
  <polygon
     points="441.028,976.562 488.281,976.562 535.534,976.562 590.663,968.687 637.915,952.936 677.293,937.185 763.923,897.807 834.803,834.803 897.807,763.923 937.185,677.293 952.935,637.915 968.687,590.663 976.562,535.534 976.562,488.281 976.562,441.028 968.687,393.775 952.935,346.522 937.185,299.269 897.807,212.639 834.803,141.759 763.923,86.631 677.293,39.377 637.915,23.627 590.663,7.875 535.534,0 488.281,0 441.028,0 393.775,7.875 346.522,23.627 299.269,39.377 212.639,86.631 141.759,141.759 86.6305,212.639 39.3775,299.269 23.6265,346.522 7.8755,393.775 0,441.028 0,488.281 0,488.281 0,535.534 7.8755,590.663 23.6265,637.915 39.3775,677.293 86.6305,763.923 141.759,834.803 212.639,897.807 299.269,937.185 346.522,952.936 393.775,968.687 "
     style="fill:#444444;fill-opacity:1;stroke:none"
     id="polygon10"
     transform="matrix(0.09922505,0,0,0.09922505,0,2.4414062e-6)" />
  <polygon
     points="535.511,15.625 582.773,23.5026 677.298,47.1333 756.069,94.3957 826.962,149.536 882.102,220.429 929.364,307.077 952.995,393.724 960.872,440.987 968.75,488.249 960.872,535.511 952.995,582.774 929.364,677.299 882.102,756.069 826.962,826.962 756.069,882.102 677.298,929.365 582.773,952.996 535.511,960.873 488.249,968.75 440.986,960.873 393.724,952.996 307.077,929.365 220.429,882.102 149.536,826.962 94.3956,756.069 47.1332,677.299 23.5021,582.774 15.625,535.511 15.625,488.249 15.625,488.249 15.625,440.987 23.5021,393.724 47.1332,307.077 94.3956,220.429 149.536,149.536 220.429,94.3957 307.077,47.1333 393.724,23.5026 440.986,15.625 488.249,15.625 "
     style="fill:#cccccc;fill-opacity:1;stroke:none"
     id="polygon12"
     transform="matrix(0.09922505,0,0,0.09922505,0,2.4414062e-6)" />
  <polygon
     points="267.387,819.625 204.274,772.29 156.939,717.067 117.494,646.064 93.8266,567.173 85.9375,488.282 93.8266,409.391 117.494,330.5 156.939,267.387 204.274,204.274 267.387,156.939 330.5,117.494 409.391,93.8266 488.282,85.938 567.173,93.8266 646.064,117.494 717.066,156.939 772.289,204.274 819.624,267.387 859.069,330.5 882.737,409.391 890.625,488.282 890.625,488.282 882.737,567.173 859.069,646.064 819.624,717.067 772.289,772.29 717.066,819.625 646.064,859.07 567.173,882.737 488.282,890.626 409.391,882.737 330.5,859.07 "
     style="fill:#d1d1d1;fill-opacity:1;stroke:none"
     id="polygon14"
     transform="matrix(0.09922505,0,0,0.09922505,0,2.4414062e-6)" />
  <polygon
     points="306.348,757.226 266.797,717.676 227.246,670.214 195.605,614.843 179.786,551.562 171.875,488.281 179.786,425 195.605,361.719 227.246,314.258 266.797,266.797 306.348,227.246 361.719,195.605 425,179.786 488.281,171.875 551.562,179.786 614.843,195.605 670.214,227.246 717.676,266.797 757.226,314.258 780.957,361.719 804.687,425 804.687,488.281 804.687,488.281 804.687,551.562 780.957,614.843 757.226,670.214 717.676,717.676 670.214,757.226 614.843,780.957 551.562,804.687 488.281,804.687 425,804.687 361.719,780.957 "
     style="fill:#d6d6d6;fill-opacity:1;stroke:none"
     id="polygon16"
     transform="matrix(0.09922505,0,0,0.09922505,0,2.4414062e-6)" />
  <polygon
     points="258.788,389.476 195.42,429.688 187.5,429.688 195.42,397.519 227.104,317.096 250.868,284.927 274.632,252.758 306.316,220.588 345.92,196.461 393.446,172.335 440.972,164.292 496.42,156.25 543.944,156.25 583.55,164.292 623.156,172.335 662.76,196.461 694.444,220.588 726.128,260.799 749.892,309.054 749.892,309.054 757.812,333.18 757.812,341.223 749.892,341.223 718.208,333.18 678.602,325.138 567.708,292.968 512.26,284.927 456.814,292.968 401.368,309.054 345.92,333.18 "
     style="fill:#d7dbde;fill-opacity:1;stroke:none"
     id="polygon18"
     transform="matrix(0.09922505,0,0,0.09922505,0,2.4414062e-6)" />
  <polygon
     points="494.635,953.125 423.475,945.17 368.129,937.216 328.596,921.307 289.062,905.398 328.596,905.398 423.475,913.352 486.728,905.398 549.981,897.443 621.141,873.58 692.3,841.762 755.553,801.989 810.9,746.307 850.433,698.579 889.965,642.898 929.499,555.398 945.312,515.625 945.312,515.625 945.312,555.398 937.406,595.17 921.592,642.898 897.872,706.534 858.339,762.215 802.993,825.852 731.833,881.534 684.394,905.398 644.86,921.307 565.794,945.17 "
     style="fill:#bbbbbb;fill-opacity:1;stroke:none"
     id="polygon20"
     transform="matrix(0.09922505,0,0,0.09922505,0,2.4414062e-6)" />
  <polygon
     points="323.194,78.8246 386.301,55.0378 441.52,39.1786 496.739,31.25 544.068,31.25 591.399,39.1786 638.728,47.1082 678.171,62.9664 741.277,102.611 788.607,134.328 835.938,173.974 788.607,158.116 733.388,142.257 670.282,134.328 583.51,126.399 496.739,126.399 402.079,142.257 307.419,181.903 267.976,197.761 228.534,229.477 165.427,284.981 118.098,348.414 78.6559,411.847 62.8792,467.351 47.1025,522.854 39.2142,562.5 39.2142,562.5 31.3258,522.854 23.4375,467.351 31.3258,403.918 54.9909,332.556 70.7676,300.839 94.4326,261.193 125.986,221.548 157.539,181.903 204.87,142.257 260.087,110.541 "
     style="fill:#dde7f0;fill-opacity:1;stroke:none"
     id="polygon22"
     transform="matrix(0.09922505,0,0,0.09922505,0,2.4414062e-6)" />
  <polygon
     points="481.993,23.438 545.255,23.438 600.61,39.3514 648.057,55.2668 679.688,71.1802 648.057,63.2235 553.164,63.2235 489.901,71.1802 426.639,79.1379 355.468,103.009 284.299,134.838 221.037,174.624 165.682,222.368 118.236,278.069 86.6045,333.768 39.1578,421.297 31.25,453.126 31.25,453.126 31.25,421.297 39.1578,381.512 54.9733,325.811 78.6967,270.111 118.236,214.411 173.59,150.753 244.761,95.0523 284.299,71.1802 331.746,47.3091 410.823,31.3947 "
     style="fill:#ebf5ff;fill-opacity:1;stroke:none"
     id="polygon24"
     transform="matrix(0.09922505,0,0,0.09922505,0,2.4414062e-6)" />
  <polygon
     points="428.803,929.688 373.084,921.719 309.405,905.782 245.726,865.938 205.926,842.032 174.086,818.125 142.246,778.282 110.407,738.438 78.5672,682.657 54.6875,626.875 78.5672,531.25 78.5672,531.25 86.5271,595 102.446,650.782 126.327,698.593 150.207,746.407 182.046,786.25 213.886,818.125 285.525,865.938 357.163,897.813 412.883,921.719 476.563,929.688 "
     style="fill:#dde7f0;fill-opacity:1;stroke:none"
     id="polygon26"
     transform="matrix(0.09922505,0,0,0.09922505,0,2.4414062e-6)" />
  <polygon
     points="804.688,179.688 804.688,179.688 195.51,195.507 179.688,812.5 804.688,804.589 804.688,195.507 "
     style="fill:#ffffff;fill-opacity:1;stroke:none"
     id="polygon28"
     transform="matrix(0.09922505,0,0,0.09922505,0,2.4414062e-6)" />
  <polygon
     points="195.601,780.864 780.864,780.864 780.864,203.511 812.5,171.875 772.955,171.875 772.955,171.875 171.875,171.875 171.875,812.5 "
     style="fill:#999999;fill-opacity:1;stroke:none"
     id="polygon30"
     transform="matrix(0.09922505,0,0,0.09922505,0,2.4414062e-6)" />
  <polygon
     points="773.33,203.125 773.33,203.125 203.125,203.125 203.125,781.25 781.25,781.25 781.25,203.125 "
     style="fill:#000000;fill-opacity:1;stroke:none"
     id="polygon32"
     transform="matrix(0.09922505,0,0,0.09922505,0,2.4414062e-6)" />
  <polygon
     points="765.626,765.626 210.938,765.626 210.938,210.938 765.626,210.938 765.626,210.938 "
     style="fill:#ffffff;fill-opacity:1;stroke:none"
     id="polygon34"
     transform="matrix(0.09922505,0,0,0.09922505,0,2.4414062e-6)" />
  <polygon
     points="210.938,390.626 210.938,210.938 398.438,210.938 398.438,390.626 398.438,390.626 "
     style="fill:#729fcc;fill-opacity:1;stroke:none"
     id="polygon36"
     transform="matrix(0.09922505,0,0,0.09922505,0,2.4414062e-6)" />
  <polygon
     points="398.438,515.626 398.438,398.438 523.438,398.438 523.438,515.626 523.438,515.626 "
     style="fill:#729fcc;fill-opacity:1;stroke:none"
     id="polygon38"
     transform="matrix(0.09922505,0,0,0.09922505,0,2.4414062e-6)" />
  <polygon
     points="523.438,640.625 523.438,515.625 648.438,515.625 648.438,640.625 648.438,640.625 "
     style="fill:#729fcc;fill-opacity:1;stroke:none"
     id="polygon40"
     transform="matrix(0.09922505,0,0,0.09922505,0,2.4414062e-6)" />
  <polygon
     points="648.438,765.625 648.438,640.625 765.626,640.625 765.626,765.625 765.626,765.625 "
     style="fill:#729fcc;fill-opacity:1;stroke:none"
     id="polygon42"
     transform="matrix(0.09922505,0,0,0.09922505,0,2.4414062e-6)" />
  <polygon
     points="398.438,765.625 398.438,640.625 523.438,640.625 523.438,765.625 523.438,765.625 "
     style="fill:#729fcc;fill-opacity:1;stroke:none"
     id="polygon44"
     transform="matrix(0.09922505,0,0,0.09922505,0,2.4414062e-6)" />
  <polygon
     points="648.438,515.626 648.438,398.438 765.626,398.438 765.626,515.626 765.626,515.626 "
     style="fill:#729fcc;fill-opacity:1;stroke:none"
     id="polygon46"
     transform="matrix(0.09922505,0,0,0.09922505,0,2.4414062e-6)" />
  <polygon
     points="523.438,515.626 523.438,398.438 648.438,398.438 648.438,515.626 648.438,515.626 "
     style="fill:#b3d8fc;fill-opacity:1;stroke:none"
     id="polygon48"
     transform="matrix(0.09922505,0,0,0.09922505,0,2.4414062e-6)" />
  <polygon
     points="648.438,640.625 648.438,515.625 765.626,515.625 765.626,640.625 765.626,640.625 "
     style="fill:#b3d8fc;fill-opacity:1;stroke:none"
     id="polygon50"
     transform="matrix(0.09922505,0,0,0.09922505,0,2.4414062e-6)" />
  <polygon
     points="523.438,765.625 523.438,640.625 648.438,640.625 648.438,765.625 648.438,765.625 "
     style="fill:#b3d8fc;fill-opacity:1;stroke:none"
     id="polygon52"
     transform="matrix(0.09922505,0,0,0.09922505,0,2.4414062e-6)" />
  <polygon
     points="398.438,640.625 398.438,515.625 523.438,515.625 523.438,640.625 523.438,640.625 "
     style="fill:#b3d8fc;fill-opacity:1;stroke:none"
     id="polygon54"
     transform="matrix(0.09922505,0,0,0.09922505,0,2.4414062e-6)" />
  <polygon
     points="210.938,765.626 210.938,398.438 398.438,398.438 398.438,765.626 398.438,765.626 "
     style="fill:#e0f0ff;fill-opacity:1;stroke:none"
     id="polygon56"
     transform="matrix(0.09922505,0,0,0.09922505,0,2.4414062e-6)" />
  <polygon
     points="406.25,390.626 406.25,210.938 765.625,210.938 765.625,390.626 765.625,390.626 "
     style="fill:#e0f0ff;fill-opacity:1;stroke:none"
     id="polygon58"
     transform="matrix(0.09922505,0,0,0.09922505,0,2.4414062e-6)" />
  <polygon
     points="632.812,773.437 632.812,203.125 656.25,203.125 656.25,773.437 656.25,773.437 "
     style="fill:#000000;fill-opacity:1;stroke:none"
     id="polygon60"
     transform="matrix(0.09922505,0,0,0.09922505,0,2.4414062e-6)" />
  <polygon
     points="515.625,773.437 515.625,203.125 531.25,203.125 531.25,773.437 531.25,773.437 "
     style="fill:#000000;fill-opacity:1;stroke:none"
     id="polygon62"
     transform="matrix(0.09922505,0,0,0.09922505,0,2.4414062e-6)" />
  <polygon
     points="390.625,773.437 390.625,203.125 414.063,203.125 414.063,773.437 414.063,773.437 "
     style="fill:#000000;fill-opacity:1;stroke:none"
     id="polygon64"
     transform="matrix(0.09922505,0,0,0.09922505,0,2.4414062e-6)" />
  <polygon
     points="773.438,406.25 210.938,406.25 210.938,382.812 773.438,382.812 773.438,382.812 "
     style="fill:#000000;fill-opacity:1;stroke:none"
     id="polygon66"
     transform="matrix(0.09922505,0,0,0.09922505,0,2.4414062e-6)" />
  <polygon
     points="773.438,531.25 210.938,531.25 210.938,507.812 773.438,507.812 773.438,507.812 "
     style="fill:#000000;fill-opacity:1;stroke:none"
     id="polygon68"
     transform="matrix(0.09922505,0,0,0.09922505,0,2.4414062e-6)" />
  <polygon
     points="773.438,656.25 210.938,656.25 210.938,632.812 773.438,632.812 773.438,632.812 "
     style="fill:#000000;fill-opacity:1;stroke:none"
     id="polygon70"
     transform="matrix(0.09922505,0,0,0.09922505,0,2.4414062e-6)" />
  <polygon
     points="398.438,398.438 210.938,210.938 219.09,210.938 398.438,390.285 398.438,390.285 "
     style="fill:#333333;fill-opacity:1;stroke:none"
     id="polygon72"
     transform="matrix(0.09922505,0,0,0.09922505,0,2.4414062e-6)" />
  <use
     href="#oid1"
     id="use74"
     x="0"
     y="0"
     width="744.09448"
     height="1052.3622"
     transform="translate(0,-907.81)" />
</svg>
