<?xml version="1.0" encoding="UTF-8" standalone="no"?>
<svg
   xmlns:dc="http://purl.org/dc/elements/1.1/"
   xmlns:cc="http://creativecommons.org/ns#"
   xmlns:rdf="http://www.w3.org/1999/02/22-rdf-syntax-ns#"
   xmlns:svg="http://www.w3.org/2000/svg"
   xmlns="http://www.w3.org/2000/svg"
   xmlns:sodipodi="http://sodipodi.sourceforge.net/DTD/sodipodi-0.dtd"
   xmlns:inkscape="http://www.inkscape.org/namespaces/inkscape"
   id="svg2"
   version="1.1"
   xml:space="preserve"
   height="219px"
   viewBox="21.152 45.375 219 219"
   width="219px"
   enable-background="new 21.152 45.375 219 219"
   y="0px"
   x="0px"
   inkscape:version="0.47 r22583"
   sodipodi:docname="requirement.svg"><sodipodi:namedview
   pagecolor="#ffffff"
   bordercolor="#666666"
   borderopacity="1"
   objecttolerance="10"
   gridtolerance="10"
   guidetolerance="10"
   inkscape:pageopacity="0"
   inkscape:pageshadow="2"
   inkscape:window-width="1280"
   inkscape:window-height="1002"
   id="namedview19"
   showgrid="false"
   inkscape:zoom="3.4474886"
   inkscape:cx="107.87714"
   inkscape:cy="109.5"
   inkscape:window-x="1272"
   inkscape:window-y="-8"
   inkscape:window-maximized="1"
   inkscape:current-layer="svg2" /><metadata
   id="metadata146"><rdf:RDF><cc:Work
       rdf:about=""><dc:format>image/svg+xml</dc:format><dc:type
         rdf:resource="http://purl.org/dc/dcmitype/StillImage" /><dc:title /></cc:Work></rdf:RDF></metadata><defs
   id="defs144"><inkscape:perspective
   id="perspective3647"
   inkscape:persp3d-origin="0.5 : 0.33333333 : 1"
   inkscape:vp_z="1 : 0.5 : 1"
   inkscape:vp_y="0 : 1000 : 0"
   inkscape:vp_x="0 : 0.5 : 1"
   sodipodi:type="inkscape:persp3d" />
	
	
	
	
</defs>
<path
   style="fill:#000000;fill-opacity:0.5;stroke:none"
   d="M 138.3395,61.0625 C 114.45862,60.805379 91.544392,74.612801 81.402,97.84375 c -6.146829,14.07919 -3.767976,32.62473 -2.90625,38 -0.02984,-0.12818 1.21875,8.0625 1.21875,8.0625 2.232954,14.16568 4.326057,27.55609 0.3125,41.03125 -0.79182,2.66484 0.369757,5.45501 2.71875,6.8125 l -4.21875,9.6875 -0.78125,-0.34375 c -1.539912,-0.67231 -3.330175,0.0283 -4,1.5625 -0.67645,1.5494 0.02259,3.39019 1.5625,4.0625 l 0.78125,0.34375 -3.9375,9.03125 -0.78125,-0.34375 c -1.539911,-0.67231 -3.349004,0.0311 -4.03125,1.59375 -0.669825,1.53423 0.05384,3.32769 1.59375,4 l 0.78125,0.34375 -3.9375,9.0625 -0.8125,-0.34375 c -1.539911,-0.67231 -3.322723,0.0425 -4,1.59375 -0.677277,1.55129 0.02259,3.32769 1.5625,4 l 8.28125,3.625 c -1.18682,2.88906 0.119303,6.21107 3,7.46875 l 15.625,6.8125 c 2.871214,1.25355 6.234436,-0.034 7.53125,-2.875 l 8.28125,3.625 c 1.55698,0.67976 3.35397,-0.0112 4.03125,-1.5625 0.67728,-1.55129 -0.0368,-3.35149 -1.59375,-4.03125 l -1.3125,-0.5625 4.03125,-9.0625 1.25,0.5625 c 1.55698,0.67976 3.36142,-0.0283 4.03125,-1.5625 0.68224,-1.56267 -0.0368,-3.35149 -1.59375,-4.03125 l -1.21875,-0.53125 4,-9.03125 1.15625,0.5 c 1.55698,0.67977 3.3548,-0.0444 4.03125,-1.59375 0.669,-1.53233 -0.005,-3.32024 -1.5625,-4 l -1.15625,-0.5 4.25,-9.59375 0.59375,0.25 c 2.73088,1.19227 5.94602,0.17132 7.46875,-2.40625 7.7215,-13.04173 19.54559,-21.18817 32.0625,-29.78125 l 4.25,-2.90625 c 4.42495,-2.9362 19.62614,-13.8081 25.78125,-27.90625 13.52236,-30.9727 -0.68544,-67.197216 -31.65625,-80.71875 -7.74223,-3.380177 -15.78971,-5.039293 -23.75,-5.125 z"
   id="shadow" /><g
   id="g12"
   opacity="0.4"
   filter="url(#AI_GaussianBlur_2)"
   transform="matrix(1.1370596,0,0,1.1370596,-18.954854,-21.503992)">
</g><path
   style="fill:#545454;stroke:none;stroke-width:2.06930542000000010"
   d="M 119.64401,215.56718 76.920414,196.9145 c -1.541809,-0.67313 -3.33562,0.0272 -4.005423,1.56134 -0.676451,1.54939 0.01747,3.36296 1.561263,4.03696 l 42.723596,18.65268 c 1.55699,0.67977 3.35689,-0.045 4.03337,-1.5944 0.66982,-1.53423 -0.0322,-3.32412 -1.58921,-4.0039"
   id="path124" /><path
   style="fill:#545454;stroke:none;stroke-width:2.06930542000000010"
   d="M 113.24344,230.22757 70.519841,211.57489 c -1.541809,-0.67314 -3.33313,0.0215 -4.0162,1.58602 -0.668994,1.53231 0.02992,3.33444 1.573715,4.00844 l 42.723594,18.65268 c 1.55699,0.67977 3.35193,-0.0336 4.02092,-1.56589 0.68308,-1.56457 -0.0214,-3.34879 -1.57843,-4.02857"
   id="path126" /><path
   style="fill:#545454;stroke:none;stroke-width:2.06930542000000010"
   d="m 106.85015,244.87128 -42.7236,-18.65269 c -1.541809,-0.67313 -3.338926,0.0347 -4.0162,1.58602 -0.677273,1.55128 0.02657,3.34212 1.570366,4.01612 l 8.295042,3.62153 c -1.186007,2.88718 0.11893,6.20261 2.999637,7.4603 l 15.630405,6.82407 c 2.875037,1.25521 6.208853,-0.035 7.504804,-2.87417 l 8.295046,3.62153 c 1.55698,0.67977 3.34696,-0.0222 4.02426,-1.57356 0.67728,-1.5513 -0.0233,-3.34962 -1.58026,-4.02937"
   id="path128" /><path
   style="fill:#fefc32;stroke:none;stroke-width:4.13861084000000010;fill-opacity:1"
   d="M 161.15589,60.105849 C 130.18729,46.585277 93.984679,60.790344 80.461922,91.763951 74.315115,105.84309 76.68112,124.38945 77.543237,129.764 c -0.02982,-0.1282 1.218344,8.05992 1.218344,8.05992 2.234859,14.16651 4.328001,27.54555 0.313253,41.02351 -0.855543,2.88014 0.56145,5.94405 3.307561,7.14297 l 40.857275,17.83787 c 2.73277,1.1931 5.95641,0.15524 7.48213,-2.4188 7.72155,-13.04174 19.54571,-21.17547 32.063,-29.76971 l 4.2439,-2.92489 c 4.42113,-2.93787 19.62266,-13.80648 25.77784,-27.9048 13.52349,-30.97528 -0.6794,-67.18289 -31.64967,-80.70419"
   id="path130" />
<path
   style="font-size:medium;font-style:normal;font-variant:normal;font-weight:normal;font-stretch:normal;text-indent:0;text-align:start;text-decoration:none;line-height:normal;letter-spacing:normal;word-spacing:normal;text-transform:none;direction:ltr;block-progression:tb;writing-mode:lr-tb;text-anchor:start;color:#000000;fill:#333333;fill-opacity:1;fill-rule:nonzero;stroke:none;stroke-width:4.13861084;marker:none;visibility:visible;display:inline;overflow:visible;enable-background:accumulate;font-family:Bitstream Vera Sans;-inkscape-font-specification:Bitstream Vera Sans"
   d="m 137.70487,54.100207 c -26.83202,-0.589298 -53.610271,17.805912 -60.718958,44.006536 -3.209076,14.424287 -1.99275,29.488707 0.660854,43.887937 2.017439,13.37227 1.520378,27.01916 -0.564184,40.32442 0.538438,6.68161 7.887918,7.69482 12.732384,10.20435 11.447624,4.90054 22.767604,10.135 34.296814,14.82209 9.92347,1.26029 11.58186,-11.65132 18.60402,-16.18718 15.26854,-15.01542 36.86587,-23.07282 48.65006,-41.71173 15.32807,-24.17417 10.17793,-58.476287 -10.70249,-77.831423 -11.42834,-10.986618 -27.10147,-17.39452 -42.9585,-17.515 z m -0.0625,4.125 c 25.53457,-0.105661 49.60717,18.324317 56.21941,42.979383 5.75725,19.61595 0.71104,42.62571 -14.80733,56.4632 -14.62895,14.10072 -34.6162,22.08014 -46.63131,39.00465 -1.97773,5.6536 -7.15323,8.2704 -12.05454,4.68484 -12.29417,-5.36694 -24.588339,-10.73388 -36.882509,-16.10082 -4.952624,-6.42685 2.395201,-16.21956 0.202542,-24.26671 -0.192529,-16.00947 -6.225007,-31.53083 -4.183305,-47.62466 1.213966,-9.43779 1.584955,-19.60304 7.369046,-27.593884 C 97.545823,68.604843 117.45195,57.873648 137.64237,58.225207 z"
   id="path3610" /><path
   style="font-size:medium;font-style:normal;font-variant:normal;font-weight:normal;font-stretch:normal;text-indent:0;text-align:start;text-decoration:none;line-height:normal;letter-spacing:normal;word-spacing:normal;text-transform:none;direction:ltr;block-progression:tb;writing-mode:lr-tb;text-anchor:start;color:#000000;fill:#333333;fill-opacity:1;fill-rule:nonzero;stroke:none;stroke-width:2.06930542;marker:none;visibility:visible;display:inline;overflow:visible;enable-background:accumulate;font-family:Bitstream Vera Sans;-inkscape-font-specification:Bitstream Vera Sans"
   d="m 75.75,195.625 c -1.588617,-0.0169 -3.110266,0.90065 -3.78125,2.4375 -0.898729,2.05851 0.03042,4.50543 2.09375,5.40625 l 42.71875,18.65625 c 2.07211,0.90467 4.50783,-0.0673 5.40625,-2.125 0.89395,-2.04761 -0.0622,-4.47437 -2.125,-5.375 L 77.34375,195.96875 C 76.830583,195.74471 76.279539,195.63064 75.75,195.625 z m -0.78125,2.1875 c 0.476318,-0.18564 1.015776,-0.16255 1.53125,0.0625 l 42.71875,18.625 c 1.05117,0.45893 1.50819,1.6354 1.0625,2.65625 -0.45454,1.04106 -1.61438,1.51737 -2.65625,1.0625 L 74.875,201.5625 c -1.024259,-0.44718 -1.454173,-1.64723 -1,-2.6875 0.22248,-0.50958 0.617432,-0.87686 1.09375,-1.0625 z"
   id="path3618" /><path
   style="font-size:medium;font-style:normal;font-variant:normal;font-weight:normal;font-stretch:normal;text-indent:0;text-align:start;text-decoration:none;line-height:normal;letter-spacing:normal;word-spacing:normal;text-transform:none;direction:ltr;block-progression:tb;writing-mode:lr-tb;text-anchor:start;color:#000000;fill:#333333;fill-opacity:1;fill-rule:nonzero;stroke:none;stroke-width:2.06930542;marker:none;visibility:visible;display:inline;overflow:visible;enable-background:accumulate;font-family:Bitstream Vera Sans;-inkscape-font-specification:Bitstream Vera Sans"
   d="m 69.34375,210.28125 c -1.589236,-0.0146 -3.10359,0.91662 -3.78125,2.46875 -0.89375,2.04711 0.03511,4.47622 2.09375,5.375 l 42.71875,18.65625 c 2.06748,0.90265 4.51284,-0.0787 5.40625,-2.125 0.90287,-2.06799 -0.0644,-4.47538 -2.125,-5.375 L 70.9375,210.625 c -0.512584,-0.22379 -1.064005,-0.33888 -1.59375,-0.34375 z m -0.78125,2.1875 c 0.476515,-0.1869 1.014609,-0.16306 1.53125,0.0625 l 42.75,18.65625 c 1.05349,0.45994 1.49454,1.5951 1.03125,2.65625 -0.44457,1.01826 -1.60975,1.48814 -2.65625,1.03125 L 68.5,216.21875 c -1.028945,-0.44922 -1.506738,-1.63874 -1.0625,-2.65625 0.231297,-0.52977 0.648485,-0.90685 1.125,-1.09375 z"
   id="path3624" /><path
   style="font-size:medium;font-style:normal;font-variant:normal;font-weight:normal;font-stretch:normal;text-indent:0;text-align:start;text-decoration:none;line-height:normal;letter-spacing:normal;word-spacing:normal;text-transform:none;direction:ltr;block-progression:tb;writing-mode:lr-tb;text-anchor:start;color:#000000;fill:#333333;fill-opacity:1;fill-rule:nonzero;stroke:none;stroke-width:2.06930542;marker:none;visibility:visible;display:inline;overflow:visible;enable-background:accumulate;font-family:Bitstream Vera Sans;-inkscape-font-specification:Bitstream Vera Sans"
   d="m 62.96875,224.9375 c -1.590916,-0.0128 -3.137779,0.92328 -3.8125,2.46875 -0.899279,2.05978 0.07098,4.47824 2.125,5.375 l 7.53125,3.28125 c -0.754058,3.13272 0.690561,6.44553 3.75,7.78125 l 15.625,6.84375 c 3.04871,1.33103 6.470048,0.11671 8.25,-2.5625 L 104,251.4375 c 2.06285,0.90063 4.47603,-0.0659 5.375,-2.125 0.89928,-2.05979 -0.0591,-4.47305 -2.125,-5.375 L 64.53125,225.28125 c -0.513937,-0.22438 -1.032195,-0.33947 -1.5625,-0.34375 z m -0.8125,2.1875 c 0.47815,-0.18879 1.048566,-0.19313 1.5625,0.0312 l 42.71875,18.65625 c 1.04801,0.45755 1.48653,1.64469 1.03125,2.6875 -0.45563,1.04363 -1.60514,1.49016 -2.65625,1.03125 l -8.28125,-3.625 -0.9375,-0.40625 -0.4375,0.9375 c -1.066788,2.33712 -3.757025,3.37758 -6.125,2.34375 L 73.375,241.96875 c -2.374646,-1.03675 -3.416367,-3.74208 -2.4375,-6.125 l 0.375,-0.9375 L 70.375,234.5 62.09375,230.875 c -1.033569,-0.45124 -1.486517,-1.61347 -1.03125,-2.65625 0.22746,-0.521 0.6156,-0.90496 1.09375,-1.09375 z"
   id="path3630" /></svg>