<?xml version="1.0" encoding="UTF-8" standalone="no"?>
<svg
   xmlns:dc="http://purl.org/dc/elements/1.1/"
   xmlns:cc="http://creativecommons.org/ns#"
   xmlns:rdf="http://www.w3.org/1999/02/22-rdf-syntax-ns#"
   xmlns:svg="http://www.w3.org/2000/svg"
   xmlns="http://www.w3.org/2000/svg"
   xmlns:xlink="http://www.w3.org/1999/xlink"
   xmlns:sodipodi="http://sodipodi.sourceforge.net/DTD/sodipodi-0.dtd"
   xmlns:inkscape="http://www.inkscape.org/namespaces/inkscape"
   version="1.1"
   xml:space="preserve"
   height="219"
   viewBox="-0.109 -0.638 219 219"
   width="219"
   enable-background="new -0.109 -0.638 234 216"
   y="0px"
   x="0px"
   id="svg2"
   inkscape:version="0.47 r22583"
   sodipodi:docname="resource.svg"><sodipodi:namedview
     pagecolor="#ffffff"
     bordercolor="#666666"
     borderopacity="1"
     objecttolerance="10"
     gridtolerance="10"
     guidetolerance="10"
     inkscape:pageopacity="0"
     inkscape:pageshadow="2"
     inkscape:window-width="1280"
     inkscape:window-height="1002"
     id="namedview151"
     showgrid="false"
     inkscape:zoom="3.4474886"
     inkscape:cx="101.38569"
     inkscape:cy="109.5"
     inkscape:window-x="1272"
     inkscape:window-y="-8"
     inkscape:window-maximized="1"
     inkscape:current-layer="svg2" /><metadata
     id="metadata4"><rdf:RDF><cc:Work
         rdf:about=""><dc:format>image/svg+xml</dc:format><dc:type
           rdf:resource="http://purl.org/dc/dcmitype/StillImage" /><dc:title /></cc:Work></rdf:RDF></metadata><defs
     id="defs6"><linearGradient
       id="linearGradient3801"><stop
         style="stop-color:#625959;stop-opacity:0;"
         offset="0"
         id="stop3803" /><stop
         id="stop3809"
         offset="0.5"
         style="stop-color:#625959;stop-opacity:0.30000001;" /><stop
         style="stop-color:#625959;stop-opacity:0;"
         offset="1"
         id="stop3805" /></linearGradient><filter
       id="filter8057-2"
       color-interpolation-filters="sRGB"><feGaussianBlur
         stdDeviation="1.6010156"
         id="feGaussianBlur9" /></filter><linearGradient
       id="linearGradient4154-4-4-6"><stop
         stop-color="#873d12"
         offset="0"
         id="stop12" /><stop
         stop-color="#606060"
         offset="0.744"
         id="stop14" /><stop
         stop-color="#808080"
         stop-opacity="0"
         offset="1"
         id="stop16" /></linearGradient><linearGradient
       id="linearGradient4190-5-0-0"><stop
         stop-color="#000"
         offset="0"
         id="stop19" /><stop
         stop-color="#555"
         offset="1"
         id="stop21" /></linearGradient><filter
       id="filter4238-7-9-8"
       height="1.4964288"
       width="1.0901167"
       y="-0.24821441"
       x="-0.045058344"
       color-interpolation-filters="sRGB"><feGaussianBlur
         stdDeviation="1.3071432"
         id="feGaussianBlur24" /></filter><filter
       id="filter5049-7"
       height="1.1332471"
       width="17.877966"
       y="-0.066623554"
       x="-8.438983"
       color-interpolation-filters="sRGB"><feGaussianBlur
         stdDeviation="3.2830772"
         id="feGaussianBlur27" /></filter><linearGradient
       id="linearGradient4196"
       y2="60.9"
       xlink:href="#linearGradient4154-4-4-6"
       gradientUnits="userSpaceOnUse"
       x2="63.5"
       gradientTransform="matrix(1.1370166,0,0,1.3434752,-51.208068,123.50577)"
       y1="60.1"
       x1="169" /><linearGradient
       id="linearGradient4198"
       y2="58.4"
       xlink:href="#linearGradient4190-5-0-0"
       gradientUnits="userSpaceOnUse"
       x2="66.5"
       y1="64.1"
       x1="175" /><linearGradient
       id="linearGradient4200"
       y2="61.7"
       gradientUnits="userSpaceOnUse"
       x2="1.33"
       gradientTransform="matrix(0.83089721,0,0,0.98177089,-14.478184,87.604877)"
       y1="85.6"
       x1="124"><stop
         stop-color="#d59f0f"
         offset="0"
         id="stop32" /><stop
         stop-color="#d59f0f"
         offset="0.501"
         id="stop34" /><stop
         stop-color="#fbfbfb"
         offset="1"
         id="stop36" /></linearGradient><linearGradient
       id="linearGradient4206"
       y2="63.7"
       gradientUnits="userSpaceOnUse"
       x2="7.23"
       gradientTransform="matrix(0.83089721,0,0,0.98177089,-14.569355,34.85048)"
       y1="85.6"
       x1="124"><stop
         stop-color="#d59f0f"
         offset="0"
         id="stop39" /><stop
         stop-color="#d59f0f"
         offset="0.5"
         id="stop41" /><stop
         stop-color="#FFF"
         offset="1"
         id="stop43" /></linearGradient><linearGradient
       id="linearGradient4212"
       y2="63.2"
       gradientUnits="userSpaceOnUse"
       x2="2.51"
       gradientTransform="matrix(0.83089721,0,0,0.98177089,-14.481623,1.5167487)"
       y1="85.6"
       x1="124"><stop
         stop-color="#d59f0f"
         offset="0"
         id="stop46" /><stop
         stop-color="#d59f0f"
         offset="0.409"
         id="stop48" /><stop
         stop-color="#fbfbfb"
         offset="1"
         id="stop50" /></linearGradient><linearGradient
       id="linearGradient4218"
       y2="56.5"
       gradientUnits="userSpaceOnUse"
       x2="50.3"
       gradientTransform="matrix(0.75729183,0,0,0.7571714,-38.940125,-19.69425)"
       y1="62.2"
       x1="165"><stop
         stop-color="#d59f0f"
         offset="0"
         id="stop53" /><stop
         stop-color="#d59f0f"
         offset="0.55"
         id="stop55" /><stop
         stop-color="#f0f2f4"
         offset="1"
         id="stop57" /></linearGradient><linearGradient
       inkscape:collect="always"
       xlink:href="#linearGradient4154-4-4-6"
       id="linearGradient2959"
       gradientUnits="userSpaceOnUse"
       gradientTransform="matrix(1.1370166,0,0,1.3434752,-51.208068,123.50577)"
       x1="169"
       y1="60.1"
       x2="63.5"
       y2="60.9" /><linearGradient
       inkscape:collect="always"
       xlink:href="#linearGradient4190-5-0-0"
       id="linearGradient2961"
       gradientUnits="userSpaceOnUse"
       x1="175"
       y1="64.1"
       x2="66.5"
       y2="58.4" /><linearGradient
       inkscape:collect="always"
       xlink:href="#linearGradient4154-4-4-6"
       id="linearGradient2963"
       gradientUnits="userSpaceOnUse"
       gradientTransform="matrix(1.1370166,0,0,1.3434752,-51.208068,123.50577)"
       x1="169"
       y1="60.1"
       x2="63.5"
       y2="60.9" /><linearGradient
       inkscape:collect="always"
       xlink:href="#linearGradient4190-5-0-0"
       id="linearGradient2965"
       gradientUnits="userSpaceOnUse"
       x1="175"
       y1="64.1"
       x2="66.5"
       y2="58.4" /><linearGradient
       inkscape:collect="always"
       xlink:href="#linearGradient4154-4-4-6"
       id="linearGradient2967"
       gradientUnits="userSpaceOnUse"
       gradientTransform="matrix(1.1370166,0,0,1.3434752,-51.208068,123.50577)"
       x1="169"
       y1="60.1"
       x2="63.5"
       y2="60.9" /><linearGradient
       inkscape:collect="always"
       xlink:href="#linearGradient4190-5-0-0"
       id="linearGradient2969"
       gradientUnits="userSpaceOnUse"
       x1="175"
       y1="64.1"
       x2="66.5"
       y2="58.4" /><linearGradient
       inkscape:collect="always"
       xlink:href="#linearGradient4212"
       id="linearGradient2986"
       gradientUnits="userSpaceOnUse"
       gradientTransform="matrix(1.1625794,0,0,1.3736797,17.526728,-48.266461)"
       x1="124"
       y1="85.6"
       x2="2.51"
       y2="63.2" /><linearGradient
       inkscape:collect="always"
       xlink:href="#linearGradient4206"
       id="linearGradient2998"
       gradientUnits="userSpaceOnUse"
       gradientTransform="matrix(1.1625794,0,0,1.3736797,17.403974,-1.6263842)"
       x1="124"
       y1="85.6"
       x2="7.23"
       y2="63.7" /><linearGradient
       inkscape:collect="always"
       xlink:href="#linearGradient4200"
       id="linearGradient3010"
       gradientUnits="userSpaceOnUse"
       gradientTransform="matrix(1.1625794,0,0,1.3736797,17.531539,72.186808)"
       x1="124"
       y1="85.6"
       x2="1.33"
       y2="61.7" /><linearGradient
       inkscape:collect="always"
       xlink:href="#linearGradient3801"
       id="linearGradient3807"
       x1="143.00266"
       y1="120.52251"
       x2="151.41458"
       y2="120.52251"
       gradientUnits="userSpaceOnUse"
       spreadMethod="pad"
       gradientTransform="matrix(2.4137928,0,0,1.0638298,-206.34607,-9.0560924)" /><linearGradient
       inkscape:collect="always"
       xlink:href="#linearGradient4218"
       id="linearGradient3811"
       gradientUnits="userSpaceOnUse"
       gradientTransform="matrix(0.75729183,0,0,0.7571714,-38.940125,-19.69425)"
       x1="165"
       y1="62.2"
       x2="50.3"
       y2="56.5" /><linearGradient
       inkscape:collect="always"
       xlink:href="#linearGradient4218"
       id="linearGradient3816"
       gradientUnits="userSpaceOnUse"
       gradientTransform="matrix(1.0595918,0,0,1.0594233,-16.385897,-41.565759)"
       x1="165"
       y1="62.2"
       x2="50.3"
       y2="56.5" /><linearGradient
       inkscape:collect="always"
       xlink:href="#linearGradient4154-4-4-6"
       id="linearGradient3818"
       gradientUnits="userSpaceOnUse"
       gradientTransform="matrix(1.1370166,0,0,1.3434752,-51.208068,123.50577)"
       x1="169"
       y1="60.1"
       x2="63.5"
       y2="60.9" /><linearGradient
       inkscape:collect="always"
       xlink:href="#linearGradient4190-5-0-0"
       id="linearGradient3820"
       gradientUnits="userSpaceOnUse"
       x1="175"
       y1="64.1"
       x2="66.5"
       y2="58.4" /><linearGradient
       inkscape:collect="always"
       xlink:href="#linearGradient4154-4-4-6"
       id="linearGradient3830"
       gradientUnits="userSpaceOnUse"
       gradientTransform="matrix(1.1370166,0,0,1.3434752,-51.208068,123.50577)"
       x1="169"
       y1="60.1"
       x2="63.5"
       y2="60.9" /><linearGradient
       inkscape:collect="always"
       xlink:href="#linearGradient4190-5-0-0"
       id="linearGradient3832"
       gradientUnits="userSpaceOnUse"
       x1="175"
       y1="64.1"
       x2="66.5"
       y2="58.4" /><linearGradient
       inkscape:collect="always"
       xlink:href="#linearGradient4154-4-4-6"
       id="linearGradient3840"
       gradientUnits="userSpaceOnUse"
       gradientTransform="matrix(1.1370166,0,0,1.3434752,-51.208068,123.50577)"
       x1="169"
       y1="60.1"
       x2="63.5"
       y2="60.9" /><linearGradient
       inkscape:collect="always"
       xlink:href="#linearGradient4190-5-0-0"
       id="linearGradient3842"
       gradientUnits="userSpaceOnUse"
       x1="175"
       y1="64.1"
       x2="66.5"
       y2="58.4" /><linearGradient
       inkscape:collect="always"
       xlink:href="#linearGradient4190-5-0-0"
       id="linearGradient3847"
       gradientUnits="userSpaceOnUse"
       x1="175"
       y1="64.1"
       x2="66.5"
       y2="58.4"
       gradientTransform="matrix(1.0595919,0,0,1.0594233,-16.810879,-40.947301)" /><linearGradient
       inkscape:collect="always"
       xlink:href="#linearGradient4154-4-4-6"
       id="linearGradient3851"
       gradientUnits="userSpaceOnUse"
       gradientTransform="matrix(1.1625795,0,0,1.3736797,-28.214051,-54.272414)"
       x1="169"
       y1="60.1"
       x2="63.5"
       y2="60.9" /><linearGradient
       inkscape:collect="always"
       xlink:href="#linearGradient4154-4-4-6"
       id="linearGradient3853"
       gradientUnits="userSpaceOnUse"
       gradientTransform="matrix(1.1370166,0,0,1.3434752,-51.208068,123.50577)"
       x1="169"
       y1="60.1"
       x2="63.5"
       y2="60.9" /><linearGradient
       inkscape:collect="always"
       xlink:href="#linearGradient4190-5-0-0"
       id="linearGradient3855"
       gradientUnits="userSpaceOnUse"
       x1="175"
       y1="64.1"
       x2="66.5"
       y2="58.4" /><linearGradient
       inkscape:collect="always"
       xlink:href="#linearGradient4190-5-0-0"
       id="linearGradient3860"
       gradientUnits="userSpaceOnUse"
       x1="175"
       y1="64.1"
       x2="66.5"
       y2="58.4"
       gradientTransform="matrix(0.75729183,0,0,0.75717132,-142.10375,123.89266)" /><linearGradient
       inkscape:collect="always"
       xlink:href="#linearGradient4154-4-4-6"
       id="linearGradient3864"
       gradientUnits="userSpaceOnUse"
       gradientTransform="matrix(0.83089721,0,0,0.98177089,-150.25359,114.36919)"
       x1="169"
       y1="60.1"
       x2="63.5"
       y2="60.9" /><linearGradient
       inkscape:collect="always"
       xlink:href="#linearGradient4154-4-4-6"
       id="linearGradient3866"
       gradientUnits="userSpaceOnUse"
       gradientTransform="matrix(0.83089721,0,0,0.98177089,-150.25359,114.36919)"
       x1="169"
       y1="60.1"
       x2="63.5"
       y2="60.9" /><linearGradient
       inkscape:collect="always"
       xlink:href="#linearGradient4190-5-0-0"
       id="linearGradient3868"
       gradientUnits="userSpaceOnUse"
       gradientTransform="matrix(0.75729183,0,0,0.75717132,-142.10375,123.89266)"
       x1="175"
       y1="64.1"
       x2="66.5"
       y2="58.4" /><linearGradient
       inkscape:collect="always"
       xlink:href="#linearGradient4154-4-4-6"
       id="linearGradient3877"
       gradientUnits="userSpaceOnUse"
       gradientTransform="matrix(0.83089721,0,0,0.98177089,-150.25359,114.36919)"
       x1="169"
       y1="60.1"
       x2="63.5"
       y2="60.9" /><linearGradient
       inkscape:collect="always"
       xlink:href="#linearGradient4190-5-0-0"
       id="linearGradient3879"
       gradientUnits="userSpaceOnUse"
       gradientTransform="matrix(0.75729183,0,0,0.75717132,-142.10375,123.89266)"
       x1="175"
       y1="64.1"
       x2="66.5"
       y2="58.4" /><linearGradient
       inkscape:collect="always"
       xlink:href="#linearGradient4190-5-0-0"
       id="linearGradient3884"
       gradientUnits="userSpaceOnUse"
       gradientTransform="matrix(1.0595918,0,0,1.0594232,-148.81076,2.7861358)"
       x1="175"
       y1="64.1"
       x2="66.5"
       y2="58.4" /><linearGradient
       inkscape:collect="always"
       xlink:href="#linearGradient4154-4-4-6"
       id="linearGradient3888"
       gradientUnits="userSpaceOnUse"
       gradientTransform="matrix(1.1625794,0,0,1.3736797,-28.2139,-10.538966)"
       x1="169"
       y1="60.1"
       x2="63.5"
       y2="60.9" /><linearGradient
       inkscape:collect="always"
       xlink:href="#linearGradient4154-4-4-6"
       id="linearGradient3890"
       gradientUnits="userSpaceOnUse"
       gradientTransform="matrix(1.1370166,0,0,1.3434752,-51.208068,123.50577)"
       x1="169"
       y1="60.1"
       x2="63.5"
       y2="60.9" /><linearGradient
       inkscape:collect="always"
       xlink:href="#linearGradient4190-5-0-0"
       id="linearGradient3892"
       gradientUnits="userSpaceOnUse"
       x1="175"
       y1="64.1"
       x2="66.5"
       y2="58.4" /><linearGradient
       inkscape:collect="always"
       xlink:href="#linearGradient4154-4-4-6"
       id="linearGradient3902"
       gradientUnits="userSpaceOnUse"
       gradientTransform="matrix(1.1370166,0,0,1.3434752,-51.208068,123.50577)"
       x1="169"
       y1="60.1"
       x2="63.5"
       y2="60.9" /><linearGradient
       inkscape:collect="always"
       xlink:href="#linearGradient4190-5-0-0"
       id="linearGradient3904"
       gradientUnits="userSpaceOnUse"
       x1="175"
       y1="64.1"
       x2="66.5"
       y2="58.4" /><linearGradient
       inkscape:collect="always"
       xlink:href="#linearGradient4154-4-4-6"
       id="linearGradient3912"
       gradientUnits="userSpaceOnUse"
       gradientTransform="matrix(1.1370166,0,0,1.3434752,-51.208068,123.50577)"
       x1="169"
       y1="60.1"
       x2="63.5"
       y2="60.9" /><linearGradient
       inkscape:collect="always"
       xlink:href="#linearGradient4190-5-0-0"
       id="linearGradient3914"
       gradientUnits="userSpaceOnUse"
       x1="175"
       y1="64.1"
       x2="66.5"
       y2="58.4" /><linearGradient
       inkscape:collect="always"
       xlink:href="#linearGradient4190-5-0-0"
       id="linearGradient3919"
       gradientUnits="userSpaceOnUse"
       x1="175"
       y1="64.1"
       x2="66.5"
       y2="58.4"
       gradientTransform="matrix(1.0595919,0,0,1.0594233,-16.810879,78.34217)" /><linearGradient
       inkscape:collect="always"
       xlink:href="#linearGradient4154-4-4-6"
       id="linearGradient3923"
       gradientUnits="userSpaceOnUse"
       gradientTransform="matrix(1.1625795,0,0,1.3736797,-28.214051,65.017057)"
       x1="169"
       y1="60.1"
       x2="63.5"
       y2="60.9" /><linearGradient
       inkscape:collect="always"
       xlink:href="#linearGradient4154-4-4-6"
       id="linearGradient3952"
       gradientUnits="userSpaceOnUse"
       gradientTransform="matrix(1.1625795,0,0,1.3736797,-28.214051,-11.013406)"
       x1="169"
       y1="60.1"
       x2="63.5"
       y2="60.9" /><linearGradient
       inkscape:collect="always"
       xlink:href="#linearGradient4154-4-4-6"
       id="linearGradient3954"
       gradientUnits="userSpaceOnUse"
       gradientTransform="matrix(1.1370166,0,0,1.3434752,-51.208068,123.50577)"
       x1="169"
       y1="60.1"
       x2="63.5"
       y2="60.9" /><linearGradient
       inkscape:collect="always"
       xlink:href="#linearGradient4190-5-0-0"
       id="linearGradient3956"
       gradientUnits="userSpaceOnUse"
       x1="175"
       y1="64.1"
       x2="66.5"
       y2="58.4" /><linearGradient
       inkscape:collect="always"
       xlink:href="#linearGradient4190-5-0-0"
       id="linearGradient3961"
       gradientUnits="userSpaceOnUse"
       x1="175"
       y1="64.1"
       x2="66.5"
       y2="58.4"
       gradientTransform="matrix(0.75729183,0,0,0.75717132,-47.763237,123.89266)" /><linearGradient
       inkscape:collect="always"
       xlink:href="#linearGradient4154-4-4-6"
       id="linearGradient3965"
       gradientUnits="userSpaceOnUse"
       gradientTransform="matrix(0.83089721,0,0,0.98177089,-55.9131,114.36919)"
       x1="169"
       y1="60.1"
       x2="63.5"
       y2="60.9" /><linearGradient
       inkscape:collect="always"
       xlink:href="#linearGradient4190-5-0-0"
       id="linearGradient3970"
       gradientUnits="userSpaceOnUse"
       gradientTransform="matrix(0.75729183,0,0,0.75717132,-47.202728,123.6323)"
       x1="175"
       y1="64.1"
       x2="66.5"
       y2="58.4" /><linearGradient
       inkscape:collect="always"
       xlink:href="#linearGradient4154-4-4-6"
       id="linearGradient3974"
       gradientUnits="userSpaceOnUse"
       gradientTransform="matrix(0.83089721,0,0,0.98177089,-55.352591,114.10883)"
       x1="169"
       y1="60.1"
       x2="63.5"
       y2="60.9" /><linearGradient
       inkscape:collect="always"
       xlink:href="#linearGradient4190-5-0-0"
       id="linearGradient3979"
       gradientUnits="userSpaceOnUse"
       gradientTransform="matrix(1.0595918,0,0,1.0594232,-16.810878,123.1161)"
       x1="175"
       y1="64.1"
       x2="66.5"
       y2="58.4" /><linearGradient
       inkscape:collect="always"
       xlink:href="#linearGradient4154-4-4-6"
       id="linearGradient3983"
       gradientUnits="userSpaceOnUse"
       gradientTransform="matrix(1.1625794,0,0,1.3736797,-28.214049,109.791)"
       x1="169"
       y1="60.1"
       x2="63.5"
       y2="60.9" /></defs><path
     d="m 105.90152,174.00126 c -30.782087,0 -56.387184,5.26094 -61.284333,12.15892 -0.03722,0.0472 -0.09613,0.0833 -0.131244,0.13111 -0.165104,0.25045 -0.284035,0.48971 -0.393171,0.74297 -0.0084,0.0176 -0.03554,0.026 -0.04365,0.0437 -0.246256,0.53449 -0.393171,1.08717 -0.393171,1.70701 0,1.48313 0.174898,4.95311 0.174898,6.07246 0,8.03133 27.703875,14.2717 61.983921,14.2717 34.28004,0 61.98392,-6.5342 61.98392,-14.55153 0,-0.97804 -0.0277,-4.49139 0,-5.94654 0.002,-0.10368 -0.0379,-0.20428 -0.0437,-0.30642 -0.0144,-0.1875 9.8e-4,-0.38198 -0.0437,-0.56807 -0.047,-0.22947 -0.12985,-0.43935 -0.21826,-0.65622 -0.0179,-0.0413 -0.0243,-0.09 -0.0437,-0.13111 -0.0901,-0.19868 -0.22527,-0.38057 -0.3498,-0.56807 -0.10326,-0.1553 -0.22387,-0.28963 -0.34979,-0.43654 -0.10425,-0.13292 -0.23088,-0.26165 -0.3498,-0.39317 -5.96053,-6.56218 -30.78208,-11.50131 -60.58473,-11.50131 z"
     id="path65"
     style="fill:#ffffff;stroke:#000000;stroke-width:0.5" /><path
     d="m 168.31531,195.16238 c 0,8.02648 -27.81152,14.51923 -62.06468,14.51923 -34.25316,0 -61.962431,-6.18601 -61.962431,-14.21249 0,-1.12473 -0.180979,-4.5705 -0.180979,-6.0531 0,-9.8874 32.719435,-8.80358 62.16693,-8.80358 30.06098,0 62.26917,-0.864 62.06468,8.57863 -0.0277,1.46215 0,4.97949 0,5.96108 z"
     id="path71"
     style="fill:url(#linearGradient3983);stroke:none" /><path
     d="m 168.26187,188.69897 c 0,8.02228 -27.78565,14.561 -62.08174,14.561 -34.296092,0 -62.081739,-6.51124 -62.081739,-14.561 0,-8.02229 27.785647,-14.56101 62.081739,-14.56101 34.29609,0 62.08174,6.51124 62.08174,14.56101 z"
     id="path73"
     style="fill:#4e311b;stroke:none" /><path
     style="fill:url(#linearGradient3010);stroke:none"
     id="path81"
     d="m 46.576092,152.49324 0.256051,38.19776 c 20.707946,13.99186 99.202257,14.2717 117.951347,-0.15111 l 0.25605,-37.77801 c -40.29655,11.06756 -84.790648,17.07007 -118.511021,-0.30222 z" /><path
     d="m 105.90152,129.22732 c -30.782087,0 -56.387184,5.26094 -61.284333,12.15893 -0.03722,0.0472 -0.09613,0.0833 -0.131244,0.1311 -0.165104,0.25045 -0.284035,0.48972 -0.393171,0.74297 -0.0084,0.0176 -0.03554,0.026 -0.04365,0.0436 -0.246256,0.53449 -0.393171,1.08717 -0.393171,1.70701 0,1.48314 0.174898,4.95312 0.174898,6.07246 0,8.03133 27.703875,14.2717 61.983921,14.2717 34.28004,0 61.98392,-6.5342 61.98392,-14.55153 0,-0.97803 -0.0277,-4.49139 0,-5.94654 0.002,-0.10368 -0.0379,-0.20428 -0.0437,-0.30642 -0.0144,-0.18749 9.8e-4,-0.38198 -0.0437,-0.56807 -0.047,-0.22947 -0.12985,-0.43935 -0.21826,-0.65622 -0.0179,-0.0413 -0.0243,-0.09 -0.0437,-0.1311 -0.0901,-0.19869 -0.22527,-0.38058 -0.3498,-0.56807 -0.10326,-0.15531 -0.22387,-0.28963 -0.34979,-0.43655 -0.10425,-0.13292 -0.23088,-0.26165 -0.3498,-0.39317 -5.96053,-6.56218 -30.78208,-11.50131 -60.58473,-11.50131 z"
     stroke-miterlimit="4"
     id="path85"
     style="fill:#ffffff;fill-rule:evenodd;stroke:#000000;stroke-width:0.4197557;stroke-miterlimit:4;stroke-dasharray:none" /><path
     d="m 168.31532,150.38844 c 0,8.02648 -27.81153,14.51925 -62.06469,14.51925 -34.253157,0 -61.96243,-6.18602 -61.96243,-14.21251 0,-1.12473 -0.180979,-4.57049 -0.180979,-6.05309 0,-9.88741 32.719437,-8.80358 62.166929,-8.80358 30.06098,0 62.26918,-0.86399 62.06468,8.57863 -0.0277,1.46215 0,4.97949 0,5.96107 z"
     id="path91"
     style="fill:url(#linearGradient3923);stroke:none" /><path
     d="m 168.26188,143.92503 c 0,8.02229 -27.78565,14.56101 -62.08174,14.56101 -34.296096,0 -62.081746,-6.51124 -62.081746,-14.56101 0,-8.02228 27.78565,-14.561 62.081746,-14.561 34.29609,0 62.08174,6.51124 62.08174,14.561 z"
     id="path93"
     style="fill:#4e311b;stroke:none" /><path
     style="fill:url(#linearGradient2998);stroke:none"
     id="path101"
     d="M 46.953872,78.196483 46.697821,145.49731 C 67.405768,159.48917 145.90008,159.769 164.64917,145.3462 l 0.25605,-66.741155 C 72.698887,28.094445 80.674245,83.642113 46.813953,78.045371 z" /><path
     style="fill:#ffffff;fill-rule:evenodd;stroke:#000000;stroke-width:0.4197557;stroke-miterlimit:4;stroke-dasharray:none"
     id="path3946"
     stroke-miterlimit="4"
     d="m 105.90152,53.196858 c -30.782087,0 -56.387184,5.26094 -61.284333,12.15893 -0.03722,0.0472 -0.09613,0.0833 -0.131244,0.1311 -0.165104,0.25045 -0.284035,0.48972 -0.393171,0.74297 -0.0084,0.0176 -0.03554,0.026 -0.04365,0.0436 -0.246256,0.53449 -0.393171,1.08717 -0.393171,1.70701 0,1.48314 0.174898,4.95312 0.174898,6.07246 0,8.03133 27.703875,14.2717 61.983921,14.2717 34.28004,0 61.98392,-6.5342 61.98392,-14.55153 0,-0.97803 -0.0277,-4.49139 0,-5.94654 0.002,-0.10368 -0.0379,-0.20428 -0.0437,-0.30642 -0.0144,-0.18749 9.8e-4,-0.38198 -0.0437,-0.56807 -0.047,-0.22947 -0.12985,-0.43935 -0.21826,-0.65622 -0.0179,-0.0413 -0.0243,-0.09 -0.0437,-0.1311 -0.0901,-0.19869 -0.22527,-0.38058 -0.3498,-0.56807 -0.10326,-0.15531 -0.22387,-0.28963 -0.34979,-0.43655 -0.10425,-0.13292 -0.23088,-0.26165 -0.3498,-0.39317 -5.96053,-6.56218 -30.78208,-11.50131 -60.58473,-11.50131 z" /><path
     style="fill:url(#linearGradient3952);stroke:none"
     id="path3948"
     d="m 168.31532,74.357978 c 0,8.02648 -27.81153,14.51925 -62.06469,14.51925 -34.253157,0 -61.96243,-6.18602 -61.96243,-14.21251 0,-1.12473 -0.180979,-4.57049 -0.180979,-6.05309 0,-9.88741 32.719437,-8.80358 62.166929,-8.80358 30.06098,0 62.26918,-0.86399 62.06468,8.57863 -0.0277,1.46215 0,4.97949 0,5.96107 z" /><path
     style="fill:#4e311b;stroke:none"
     id="path3950"
     d="m 168.26188,67.894568 c 0,8.02229 -27.78565,14.56101 -62.08174,14.56101 -34.296096,0 -62.081746,-6.51124 -62.081746,-14.56101 0,-8.02228 27.78565,-14.561 62.081746,-14.561 34.29609,0 62.08174,6.51124 62.08174,14.561 z" /><path
     style="fill:url(#linearGradient2986);stroke:none"
     id="path121"
     d="m 46.5621,31.603602 0.256051,38.197767 C 67.526098,83.933144 146.16033,84.073062 164.90942,69.66145 l 0.25605,-37.778011 C 124.86892,42.937006 80.374819,48.953504 46.654446,31.603602 z" /><path
     d="m 105.90152,9.937856 c -30.782087,0 -56.387184,5.260938 -61.284333,12.158923 -0.03722,0.04715 -0.09613,0.08325 -0.131244,0.131104 -0.165104,0.250454 -0.284035,0.489715 -0.393171,0.742967 -0.0084,0.01763 -0.03554,0.02603 -0.04365,0.04366 -0.246256,0.534489 -0.393171,1.087167 -0.393171,1.707006 0,1.483137 0.174898,4.953117 0.174898,6.072466 0,8.031325 27.703875,14.271693 61.983921,14.271693 34.28004,0 61.98392,-6.534197 61.98392,-14.55153 0,-0.978031 -0.0277,-4.491386 0,-5.946539 0.002,-0.10368 -0.0379,-0.204281 -0.0437,-0.306422 -0.0144,-0.187491 9.8e-4,-0.381978 -0.0437,-0.568069 -0.047,-0.229467 -0.12985,-0.439345 -0.21826,-0.656218 -0.0179,-0.04128 -0.0243,-0.08997 -0.0437,-0.131104 -0.0901,-0.198684 -0.22527,-0.380579 -0.3498,-0.568069 -0.10326,-0.15531 -0.22387,-0.289632 -0.34979,-0.436546 -0.10425,-0.132923 -0.23088,-0.261648 -0.3498,-0.393171 -5.96053,-6.562181 -30.78208,-11.501306 -60.58473,-11.501306 z"
     id="path125"
     style="fill:#ffffff;stroke:none" /><path
     d="m 168.31532,31.098967 c 0,8.026487 -27.81153,14.51925 -62.06469,14.51925 -34.253157,0 -61.96243,-6.186019 -61.96243,-14.212505 0,-1.124731 -0.180979,-4.570497 -0.180979,-6.053096 0,-9.887405 32.719437,-8.803574 62.166929,-8.803574 30.06098,0 62.26918,-0.863997 62.06468,8.578628 -0.0277,1.462149 0,4.979489 0,5.961072 z"
     id="path131"
     style="fill:url(#linearGradient3851);stroke:none" /><path
     d="m 168.26188,24.635563 c 0,8.02229 -27.78565,14.561005 -62.08174,14.561005 -34.296096,0 -62.081746,-6.511241 -62.081746,-14.561005 0,-8.022289 27.78565,-14.561004 62.081746,-14.561004 34.29609,0 62.08174,6.511241 62.08174,14.561004 z"
     id="path133"
     style="fill:#4e311b;stroke:none" /><path
     d="m 162.26015,24.525059 c 0,6.187032 -25.32424,11.229887 -56.58221,11.229887 -31.257956,0 -56.582203,-5.021667 -56.582203,-11.229887 0,-6.187032 25.324247,-11.229887 56.582203,-11.229887 31.25797,0 56.58221,5.021666 56.58221,11.229887 z"
     id="path135"
     style="fill:url(#linearGradient3847);stroke:none" /><path
     d="m 59.114195,31.098967 c -6.08377,-2.484632 -10.633817,-4.130829 -10.633817,-6.687035 0,-5.306684 13.599016,-8.895597 34.048664,-10.838314 8.875147,-0.857862 25.459808,-1.155405 34.048668,-0.607354 2.93452,0.187114 2.31081,0.211654 -2.94475,0.116563 -19.222672,-0.346622 -38.54759,1.482599 -49.897144,4.856791 -7.627719,2.249462 -11.451803,4.120604 -11.451803,7.280075 0.02628,2.249461 3.670711,3.650262 7.637943,5.552079 1.104281,0.526579 2.995874,0.927392 3.282169,1.073607 0.516353,0.968291 -3.568464,-0.501016 -4.08993,-0.714715 z"
     id="path139"
     style="fill:#f9f9f9;stroke:none" /><path
     d="m 162.34625,23.908082 c 0,6.198392 -25.32526,11.207476 -56.5271,11.207476 -31.201841,0 -56.5271,-5.023076 -56.5271,-11.207476 0,-6.198392 25.325259,-11.207477 56.5271,-11.207477 31.20184,0 56.5271,5.023076 56.5271,11.207477 z"
     id="path143"
     style="fill:url(#linearGradient3816);stroke:none" /><path
     d="m 137.72058,23.06857 c 0.0392,1.455153 -4.96711,2.826355 -11.17949,3.064217 -6.21239,0.233664 -11.27744,-0.758359 -11.31941,-2.210713 -0.0392,-1.455153 4.9671,-2.826355 11.17949,-3.064217 6.21238,-0.233664 11.27743,0.758359 11.31941,2.210713 z"
     id="path145"
     style="fill:#000000;stroke:none" /><path
     d="M 62.164557,30.204417 C 56.30197,27.81181 50.831154,26.216738 50.831154,23.754171 c 0,-5.107027 13.096377,-8.577007 32.880862,-10.4799 8.563015,-0.826918 24.485744,-1.112352 32.880864,-0.586259 2.82635,0.180495 2.2247,0.204282 -2.84035,0.112215 -18.46925,-0.334405 -37.078418,1.427169 -48.131984,4.687272 -7.345725,2.168738 -11.067558,3.973687 -11.025583,7.023912 0.02533,2.168737 4.631305,3.525947 8.465073,5.35888 1.060583,0.507905 3.302078,0.75696 3.567923,0.899677 0.49811,0.934656 -3.84776,-0.345599 -4.365459,-0.552679 z"
     id="path147"
     style="fill:#f9f9f9;stroke:none" /><path
     style="fill:url(#linearGradient3807);stroke:none"
     d="m 138.83273,43.563157 19.60446,-4.172016 -0.46008,155.419939 -18.44421,4.11648 -0.70017,-155.364403 z"
     id="rect3798" /></svg>