<?xml version="1.0" encoding="UTF-8" standalone="no"?>
<svg xmlns:rdf="http://www.w3.org/1999/02/22-rdf-syntax-ns#" xmlns="http://www.w3.org/2000/svg" version="1.1" xml:space="preserve" height="219px" viewBox="21.152 45.375 219 219" width="219px" enable-background="new 21.152 45.375 219 219" y="0px" x="0px" xmlns:cc="http://creativecommons.org/ns#" xmlns:dc="http://purl.org/dc/elements/1.1/"><metadata><rdf:RDF><cc:Work rdf:about=""><dc:format>image/svg+xml</dc:format><dc:type rdf:resource="http://purl.org/dc/dcmitype/StillImage"/><dc:title/></cc:Work></rdf:RDF></metadata>
<defs><filter id="filter3755"><feGaussianBlur stdDeviation="2.1638352"/></filter></defs>
<path d="m128.7,54.2c-10.04,0.8688-11.8,6.472-14.18,10.13-25.88,51.07-56.67,108.7-82.34,159.9-5.067,8.223-2.379,14.21-1.527,16.09,0,0,3.373,8.329,11.72,8.65,8.349,0.321,94.2-0.1531,172.8,0,2.439,0.0397,8.109-2.403,9.983-5.756,3.28-5.867,3.811-11.66-0.5709-20.16-26.74-54.36-56.72-107.1-83.37-161.5-3.145-3.934-5.674-7.018-12.48-7.326z" fill-opacity="0.50196078000000000" filter="url(#filter3755)" fill="#000"/>
<path d="m120.7,48.2c-10.04,0.8688-11.8,6.472-14.18,10.13-25.88,51.07-56.67,108.7-82.34,159.9-5.067,8.223-2.379,14.21-1.527,16.09,0,0,3.373,8.329,11.72,8.65,8.349,0.321,94.2-0.1531,172.8,0,2.439,0.0397,8.109-2.403,9.983-5.756,3.28-5.867,3.811-11.66-0.5709-20.16-26.74-54.36-56.72-107.1-83.37-161.5-3.145-3.934-5.674-7.018-12.48-7.326z" fill="#878714"/><path fill="#e1e136" d="m121.1,64.91c-8.349,0.7224-9.814,9.471-11.79,12.52-21.5,42.47-47.11,90.37-68.45,133-4.213,6.837-4.581,14.05-3.872,15.61,0,0,5.407,4.695,12.35,4.962,6.942,0.267,78.33-0.1273,143.7,0,2.028,0.0331,10.6,0.1915,12.76-3.67,3.021-5.393-1.293-10.81-4.937-17.87-22.23-45.2-47.16-89.06-69.32-134.3-2.615-3.271-4.717-9.925-10.38-10.18z"/><path d="m133.4,211.2c0,3.241-1.171,6.001-3.513,8.287-2.343,2.285-5.135,3.428-8.374,3.428-3.24,0-6.031-1.143-8.373-3.428s-3.513-5.045-3.513-8.287c0-3.239,1.171-6.031,3.513-8.373s5.133-3.514,8.373-3.514c3.239,0,6.031,1.172,8.374,3.514,2.342,2.342,3.513,5.134,3.513,8.373zm-0.7804-104.6c0,2.894-0.9551,12.61-2.864,29.15s-3.588,32.54-5.032,47.98h-6.768c-1.273-15.44-2.851-31.44-4.729-47.98-1.879-16.54-2.82-26.26-2.82-29.15,0-3.297,1.041-6.075,3.124-8.33,2.083-2.256,4.742-3.384,7.982-3.384,3.239,0,5.901,1.115,7.983,3.341,2.084,2.227,3.125,5.019,3.125,8.373z" stroke="#000" stroke-width="2.17067599" fill="#000"/></svg>
