<?xml version="1.0" encoding="UTF-8" standalone="no"?>
<svg id="svg2" xmlns:rdf="http://www.w3.org/1999/02/22-rdf-syntax-ns#" xmlns="http://www.w3.org/2000/svg" version="1.1" xml:space="preserve" height="219" viewBox="-0.761 -0.577 202 208" width="219" enable-background="new -0.761 -0.577 202 208" y="0px" x="0px" xmlns:cc="http://creativecommons.org/ns#" xmlns:xlink="http://www.w3.org/1999/xlink" xmlns:dc="http://purl.org/dc/elements/1.1/"><metadata id="metadata297"><rdf:RDF><cc:Work rdf:about=""><dc:format>image/svg+xml</dc:format><dc:type rdf:resource="http://purl.org/dc/dcmitype/StillImage"/><dc:title/></cc:Work></rdf:RDF></metadata><defs id="defs4"><linearGradient id="linearGradient4424" y2="3.9234" gradientUnits="userSpaceOnUse" y1="35.093" x2="78.95" x1="113.8"><stop id="stop4083" stop-color="#202c4e" offset="0"/><stop id="stop4085" stop-color="#1a76d3" offset="1"/></linearGradient><linearGradient id="linearGradient4430" y2="145.16" gradientUnits="userSpaceOnUse" y1="157.55" x2="96.633" x1="107.83"><stop id="stop4000" stop-color="#3f3f3f" offset="0"/><stop id="stop4002" stop-color="#737373" stop-opacity="0" offset="1"/></linearGradient><linearGradient id="linearGradient2938" y2="12.848" gradientUnits="userSpaceOnUse" y1="59.901" x2="121.43" x1="187.77"><stop id="stop4335" stop-color="#ca970e" offset="0"/><stop id="stop4337" stop-color="#ffe771" offset="1"/></linearGradient><linearGradient id="linearGradient3779" y2="36.6" gradientUnits="userSpaceOnUse" y1="62.974" x2="18.126" x1="56.944"><stop id="stop4099" stop-color="#ee3424" offset="0"/><stop id="stop4101" stop-color="#d6d6d6" offset="1"/></linearGradient></defs><g id="tophat"><path id="path247" fill="url(#linearGradient4424)" d="M116.98,4.7752c-4.81-0.9241-9.99-1.0666-14.86-1.4551-9.354-0.7487-18.302,0.2755-27.568,1.4681-0.113,0.0153-2.6,0.3014-2.597,0.3367l3.4542,50.46,41.451-0.6687c0.11067-0.6687,0.22133-12.146,0.44502-13.549,0.2225-1.4045,0.55803-12.191,0.78054-13.639,0.22133-1.4481,1.2256-13.482,1.2256-13.482l1.1137-8.8038c0.001,0,0.001,0-3.4542-0.66635z"/><path id="path3693" style="block-progression:tb;color:#000000;direction:ltr;text-indent:0;text-align:start;enable-background:accumulate;text-transform:none;" d="M87.857,2.4329c-5.547,0.4175-10.484,0.9818-15.97,1.8051-0.73404,0.3313-0.91788,0.62028-0.78318,1.8755,1.1113,16.23,3.3616,49.776,3.3616,49.776s42.493-0.69902,42.493-0.69902,0.652-15.762,0.652-15.762,1.2927-18.327,1.2927-18.327,0.88423-9.5978,1.5932-14.368c0.2588-1.7287-0.6974-2.2391-2.3644-2.6086-6.64-1.2396-13.54-1.5003-20.32-1.9104-3.318-0.103-6.641-0.0086-9.953,0.2179zm0.07358,1.1773c8.3045-0.66897,19.741,0.2888,24.894,0.88338,5.1528,0.59458,5.0148,0.3673,6.4888,1.3939-0.73434,5.4166-1.6958,16.302-1.6958,16.302s-1.2481,18.478-1.2481,18.478-0.44132,13.345-0.44132,13.345-40.359,0.69902-40.359,0.69902-2.2565-32.94-3.3847-49.409c5.247-0.57685,10.474-1.3557,15.746-1.6924z" fill-rule="nonzero" fill="#494949"/><path id="path249" fill="#494949" d="m122.09,56.466c-1.1135-0.31184-2.6035-0.63793-2.6035-0.63793s-45.185-0.90878-50.001-0.14255c-0.02437,0.19779-0.07675,0.40093-0.16569,0.60764-0.46417,1.0834-0.29604,2.9526,0.23635,4.4227h53.014c0.11691-0.57556,0.22417-1.2135,0.29361-1.8532-0.18153-0.84463-0.45686-1.6198-0.77361-2.3967z"/><path id="rect3702" style="enable-background:accumulate;color:#000000;" fill-rule="nonzero" fill="#727272" d="m74.747,47.692,41.581,0,0,8.3775-41.581,0,0-8.3775z"/><path id="rect3733" fill-rule="nonzero" style="block-progression:tb;color:#000000;direction:ltr;text-indent:0;text-align:start;enable-background:accumulate;text-transform:none;" fill="#494949" d="m74.213,47.167,0,0.51506,0,8.3882,0,0.51506,0.51506,0,41.61,0,0.51507,0,0-0.51506,0-8.3882,0-0.51506-0.51507,0-41.61,0-0.51506,0zm1.0669,1.0669,40.506,0,0,7.3213-40.506,0,0-7.3213z"/><path id="polygon253" fill="#d3d3d3" d="m113.03,50.554-1.0713-0.2802,1.6718-0.19661-8.8297-0.68636,10.984,0,0,5.2978-17.365,0,15.799-0.68636-2.2604-0.68754,2.1544-0.97362-1.8601,0,1.6718-0.30139-1.7659-0.78525,2.0603-0.39204z"/><path id="path3739" fill="#1f335b" d="m121.21,57.002c-1.076-0.20602-2.5159-0.42147-2.5159-0.42147s-43.664-0.60042-48.318-0.09418c-0.02355,0.13068-0.07417,0.26489-0.16011,0.40146-0.44855,0.71579-0.28608,1.9508,0.22839,2.922h51.23c0.11301-0.38026,0.21662-0.80173,0.28372-1.2244-0.17541-0.55804-0.44148-1.0702-0.74758-1.5835z"/></g><g id="hardhat"><path id="path255" fill="url(#linearGradient3779)" d="m8.5098,81.381s-0.39543-3.6163,1.9066-4.1036c0,0-5.2004-28.506,18.581-35.483,0,0,6.9079-5.294,12.603-0.75395,0.03958,0.03157,0.07804,0.06338,0.11698,0.09744,0,0,7.5-0.84865,11.184,4.7551,0,0,8.8358,4.3734,11.196,20.111,0,0,1.7555-0.23297,2.5708,3.6187,0,0,4.0282,0.67354,1.8016,3.9202-1.3547,1.9764-3.6511,3.0395-5.8323,3.8255-1.6684,0.59993-3.3926,0.94145-4.9879,1.7421-1.1321,0.56866-2.2699,1.1221-3.3947,1.7033-3.2179,1.6612-6.3828,3.4344-9.4273,5.3985-0.91591,0.59104-1.8197,1.2007-2.7101,1.8286-2.0218,1.4279-3.9735,2.4215-6.4092,2.7656-2.1674,0.30726-4.276,0.93693-6.4486,1.2476-5.5102,0.79048-10.996,1.4889-16.578,1.3498-1.559-0.04-3.1191-0.15-4.6614-0.392-1.5297-0.238-3.8694-0.539-5.2927-1.246-1.8822-0.932-1.0537-2.408-0.1868-3.852-0.0006484,0.0025,2.7674-4.6054,5.9688-6.5334z"/><path id="path257" style="block-progression:tb;color:#000000;direction:ltr;text-indent:0;text-align:start;enable-background:accumulate;text-transform:none;" fill="#494949" d="m28.562,41.393c-3.5566,1.6369-6.1961,4.7313-8.173,8.0315-1.6502,2.7515-2.8272,5.7634-3.702,8.8435,0.375,0.10417,0.75,0.20833,1.125,0.3125,1.4149-4.9708,3.6523-9.8813,7.4317-13.506,1.0337-0.99522,2.178-1.9097,3.5027-2.4856,0.30228-0.38494-0.11812-0.80627-0.18436-1.1955z"/><path id="path259" style="block-progression:tb;color:#000000;direction:ltr;text-indent:0;text-align:start;enable-background:accumulate;text-transform:none;" fill="#494949" d="m41.219,40.549c-6.9888,1.4615-12.133,7.4624-14.633,13.874-1.1432,0.86469-0.86279,4.2436,0.45696,1.9929,2.0821-5.8293,5.9454-11.495,11.84-13.938,0.80903-0.5902,3.2582-0.25604,2.3362-1.9293z"/><path id="path261" style="block-progression:tb;color:#000000;direction:ltr;text-indent:0;text-align:start;enable-background:accumulate;text-transform:none;" fill="#494949" d="m31.562,78.737c-0.375,0.0625-0.75,0.125-1.125,0.1875,0.20833,1.1771,0.41667,2.3542,0.625,3.5312-0.81008,0.52471-1.851,0.30759-2.6901,0.62261-0.56467,0.7302,0.30022,1.3956,0.99329,0.96203,0.94-0.136,2.058-0.179,2.711-0.964,0.374-0.838-0.184-1.729-0.208-2.592-0.102-0.583-0.204-1.165-0.306-1.747z"/><path id="path263" style="block-progression:tb;color:#000000;direction:ltr;text-indent:0;text-align:start;enable-background:accumulate;text-transform:none;" fill="#494949" d="m65.375,69.924c-2.3854,1.8438-4.7708,3.6875-7.1562,5.5312-0.84109-1.4714-1.0896-3.1725-1.4291-4.8076-1.6889-0.57792-0.88424,1.572-0.67912,2.4368,0.31132,1.2082,0.63946,2.5485,1.5656,3.4319,1.2883,0.50881,2.1247-1.0639,3.1185-1.6013,1.7566-1.3609,3.5113-2.724,5.2679-4.0849-0.22917-0.30208-0.45833-0.60417-0.6875-0.90625z"/><path id="path265" style="block-progression:tb;color:#000000;direction:ltr;text-indent:0;text-align:start;enable-background:accumulate;text-transform:none;" fill="#494949" d="m11.844,79.237c-0.38542,0.02083-0.77083,0.04167-1.1562,0.0625,0.07531,1.2117,0.0692,2.4326,0.19785,3.6384,0.27284,1.0518,1.2009,1.8172,2.2192,2.1026,0.80951,0.50262,1.0479-1.369,0.16957-1.146-0.88756-0.21637-1.4068-1.1007-1.3038-1.9784-0.04627-0.89284-0.08269-1.7862-0.12657-2.6791z"/><path id="path267" style="block-progression:tb;color:#000000;direction:ltr;text-indent:0;text-align:start;enable-background:accumulate;text-transform:none;" fill="#494949" d="m39.531,77.362c-2.254,0.47981-4.5209,0.89539-6.7812,1.3438,0.07292,0.375,0.14583,0.75,0.21875,1.125,2.1146-0.41667,4.2292-0.83333,6.3438-1.25,0.36729,0.24696,0.83141,0.42029,1.1397,0.7121,0.09927,0.37722,0.19854,0.75443,0.2978,1.1316,0.375-0.10417,0.75-0.20833,1.125-0.3125-0.17138-1.0003-0.56633-2.0333-1.6448-2.3247-0.23609-0.13656-0.47077-0.27582-0.69896-0.42531z"/><path id="path269" fill="#bdc1c1" d="m26.51,60.639c-1.3324,5.6437-0.08527,11.43,0.04538,17.129,0.12166,1.9358,0.24302,3.8727,0.46124,5.8006,1.5572-1.017,0.03378-3.1271,0.48631-4.6239-0.13634-5.0031-0.69445-10.086,0.29531-15.035,1.4281-6.4922,4.2837-13.128,9.7849-17.173,3.8079-2.584,8.8688-3.341,13.233-1.868,1.7091,0.87862-0.97456-2.122-1.7566-2.1937-3.6517-1.7485-8.0672-0.93126-11.365,1.2306-5.0209,3.2927-8.841,8.4047-10.506,14.183-0.25799,0.84151-0.48255,1.6931-0.67854,2.5512z"/><path id="path271" fill="#bdc1c1" d="m21.578,59.185c1.8488-8.2177,7.6848-15.793,15.837-18.483,0.89817-0.27965,1.99-0.55053,0.41308-0.46041-5.7818,0.07612-11.129,3.8923-13.518,9.0897-1.5385,3.0699-2.323,6.4611-2.7322,9.8535z"/><path id="path273" fill="#bdc1c1" d="m18.069,49.172c-1.1887,2.5339-2.2863,5.1414-2.8709,7.8883-0.14718,0.78503-0.26116,1.596-0.13329,2.3919,1.6459-3.8037,3.3674-7.587,5.4459-11.177,0.71524-1.1622,1.4111-2.3829,2.4555-3.2851,0.58476-0.374-0.38402,0.1305-0.59263,0.24134-1.7179,0.9392-3.3024,2.2353-4.3045,3.9407z"/><path id="path3784" fill-rule="nonzero" style="block-progression:tb;color:#000000;direction:ltr;text-indent:0;text-align:start;enable-background:accumulate;text-transform:none;" fill="#494949" d="m37.312,38.674c-1.5454-0.15389-3.0391,0.10528-4.3125,0.5-2.4477,0.75872-4.117,1.9932-4.25,2.0938-12.032,3.5717-16.837,12.679-18.531,20.781-1.6357,7.8222-0.49515,14.492-0.40625,15-0.42162,0.2085-0.88126,0.40345-1.125,0.75-0.35312,0.50206-0.55167,1.0595-0.65625,1.5938-0.17423,0.89006-0.083557,1.4683-0.0625,1.7188-1.5983,1.0385-3.0397,2.5621-4.0938,3.9062-0.55714,0.71048-1.028,1.3726-1.3438,1.8438-0.15787,0.23559-0.25943,0.39786-0.34375,0.53125-0.04216,0.06669-0.071722,0.12053-0.09375,0.15625-0.011014,0.01786-0.025623,0.05329-0.03125,0.0625-0.02866,0.04775-0.033615,0.10817-0.0625,0.15625-0.41088,0.68388-0.87254,1.3885-0.96875,2.1875-0.051487,0.42757,0.00592,0.90169,0.25,1.3125s0.64786,0.73289,1.1875,1c1.5898,0.78949,3.9542,1.077,5.4688,1.3125,1.5746,0.24725,3.142,0.36694,4.7188,0.40625,5.6385,0.14059,11.171-0.58366,16.688-1.375,2.2287-0.31873,4.3268-0.95079,6.4375-1.25,2.5454-0.35958,4.5947-1.3878,6.6562-2.8438,0.88397-0.62336,1.7781-1.2257,2.6875-1.8125,3.0245-1.9511,6.2-3.7199,9.4062-5.375,1.1166-0.57695,2.2385-1.1479,3.375-1.7188,1.5055-0.75558,3.2158-1.0684,4.9375-1.6875,2.2157-0.79846,4.6222-1.9155,6.0938-4.0625,0.60762-0.88597,0.83658-1.6776,0.75-2.375-0.08658-0.69735-0.49349-1.2126-0.9375-1.5625-0.72279-0.56954-1.3266-0.66-1.625-0.71875-0.42935-1.763-1.052-2.7839-1.6875-3.2812-0.31724-0.24827-0.62818-0.37662-0.875-0.4375-1.2345-7.695-3.985-12.738-6.5-15.812-2.4543-2.9999-4.59-4.0885-4.7812-4.1875-3.6809-5.4418-10.464-4.9833-11.312-4.9062-0.0076-0.0061-0.02361,0.0061-0.03125,0-1.5039-1.1916-3.0874-1.7531-4.625-1.9062zm-0.15625,1.125c1.3516,0.13037,2.7568,0.62173,4.0938,1.6875,0.03434,0.02739,0.06251,0.06642,0.09375,0.09375l0.1875,0.15625,0.25-0.03125s7.152-0.78229,10.625,4.5l0.09375,0.125,0.15625,0.0625s2.0585,1.047,4.5,4.0312,5.2095,7.8838,6.375,15.656l0.09375,0.5625,0.5625-0.0625s-0.03756-0.02164,0.0625,0,0.26786,0.09278,0.46875,0.25c0.40178,0.31443,0.9851,1.0645,1.375,2.9062l0.09375,0.375,0.375,0.09375s0.93055,0.17629,1.5,0.625c0.28472,0.22435,0.45753,0.47044,0.5,0.8125s-0.0568,0.82514-0.5625,1.5625c-1.2377,1.8058-3.4157,2.8514-5.5625,3.625-1.6151,0.58076-3.3461,0.9355-5.0312,1.7812-1.1278,0.56647-2.2732,1.102-3.4062,1.6875-3.2296,1.6672-6.4042,3.4606-9.4688,5.4375-0.92247,0.59527-1.853,1.2112-2.75,1.8438-1.9821,1.3999-3.8301,2.3277-6.1562,2.6562-2.2242,0.3153-4.3211,0.94733-6.4375,1.25-5.5042,0.78962-10.976,1.4815-16.5,1.3438-1.5417-0.03844-3.0524-0.13788-4.5625-0.375h-0.03125c-1.5452-0.24-3.8686-0.594-5.1254-1.218-0.4015-0.199-0.5847-0.39-0.6876-0.563-0.1028-0.173-0.1224-0.324-0.0937-0.562,0.057425-0.47688,0.41319-1.1889,0.84375-1.9062,0.00501-0.0082,0.021244-0.01503,0.03125-0.03125,0.020011-0.03245,0.054031-0.09342,0.09375-0.15625,0.079437-0.12566,0.19219-0.30508,0.34375-0.53125,0.30312-0.45235,0.74629-1.0678,1.2812-1.75,1.0699-1.3644,2.5412-2.9777,4.0312-3.875l0.3125-0.1875-0.03125-0.34375s-0.10613-0.85728,0.0625-1.7188c0.084316-0.43074,0.24857-0.84319,0.46875-1.1562,0.22018-0.31306,0.47491-0.53369,0.90625-0.625l0.5625-0.09375-0.125-0.5625s-1.2714-7.033,0.375-14.906c1.6464-7.8733,6.1354-16.481,17.812-19.906l0.09375-0.03125,0.09375-0.09375s1.669-1.2462,4-1.9688c1.1655-0.36127,2.4609-0.59912,3.8125-0.46875z"/></g><g id="cap"><path id="path275" fill="url(#linearGradient2938)" d="m145.59,80.866s8.6242,10.321,17.462,13.18c0,0,5.3724,1.3544,8.5431-0.09494,0,0,20.417-9.2779,21.998-5.9116,0,0,2.2091,2.2927,3.1804,0.77036,0,0,0.68874-0.04211-0.90502-1.5346l-12.758-12.804s2.653-27.63-26.283-32.403c0,0,0.20188-1.0709-1.738-1.1804,0,0-2.5685-0.39882-2.4211,1.0783,0,0-21.658,1.581-25.38,29.055-0.32819,2.411,1.5799,5.4132,4.7318,6.7748-0.001,0.000916,3.0925,2.1177,13.572,3.0709z"/><path id="path277" d="m192.99,87.159s1.9226-0.12768,3.7006,1.6346" stroke="#494949" stroke-width="0.57475305" fill="none"/><path id="path279" style="block-progression:tb;color:#000000;direction:ltr;text-indent:0;text-align:start;enable-background:accumulate;text-transform:none;" fill="#494949" d="m182.78,74.237c-5.8311,1.7567-11.877,2.6444-17.878,3.6013-6.3877,0.95882-12.796,1.7758-19.216,2.4924,0.0995,0.5644-0.0922,1.4931,0.81483,1.0491,10.169-1.1859,20.344-2.453,30.387-4.4697,2.0982-0.44311,4.1933-0.92116,6.236-1.5794-0.11458-0.36458-0.22917-0.72917-0.34375-1.0938z"/><path id="path281" style="block-progression:tb;color:#000000;direction:ltr;text-indent:0;text-align:start;enable-background:accumulate;text-transform:none;" fill="#494949" d="m152.91,41.955c-0.17708,0.34375-0.35417,0.6875-0.53125,1.0312,1.1926,0.55628,2.5908,0.92729,3.8832,0.5029,0.21483-0.1372,0.99166-0.30025,0.72639-0.60935-0.20318-0.25618-0.40636-0.51236-0.60954-0.76855-0.80276,0.6158-1.902,0.42689-2.7912,0.12524-0.23119-0.08029-0.45731-0.17493-0.6776-0.28149z"/><path id="path283" style="block-progression:tb;color:#000000;direction:ltr;text-indent:0;text-align:start;enable-background:accumulate;text-transform:none;" fill="#494949" d="m153.53,42.455c-2.4971,0.93136-3.7623,3.562-4.625,5.9062-1.8741,5.6683-1.8397,11.749-1.5473,17.646,0.29186,4.8762,0.92777,9.7261,1.7348,14.542,0.50289-0.15799,1.537,0.06577,1.0543-0.79967-1.2947-8.1455-2.2834-16.443-1.4726-24.69,0.44062-3.5889,1.1166-7.3989,3.4696-10.271,0.36388-0.85717,2.0442-0.8391,1.4852-1.8872-0.033-0.14858-0.066-0.29716-0.0991-0.44574z"/><path id="path285" style="block-progression:tb;color:#000000;direction:ltr;text-indent:0;text-align:start;enable-background:accumulate;text-transform:none;" fill="#494949" d="m156.44,42.268c-0.11182,0.62468-0.50401,1.4059,0.52164,1.3182,6.0647,1.9954,10.752,6.9139,13.769,12.406,3.3941,6.2082,4.9457,13.246,5.5847,20.245,0.58528-0.079,1.5175,0.13087,1.0897-0.79727-0.86009-8.5577-3.1371-17.279-8.4103-24.226-3.1648-4.1158-7.4671-7.6069-12.554-8.9452z"/><path id="path287" style="block-progression:tb;color:#000000;direction:ltr;text-indent:0;text-align:start;enable-background:accumulate;text-transform:none;" fill="#494949" d="m152.75,41.768c-6.1539,1.6965-11.106,6.3924-14.259,11.821-4.318,7.4744-5.6961,16.245-5.8033,24.773,0.76156,0.08759,1.484,0.13932,1.1717-0.896,0.20905-8.5339,1.7328-17.362,6.4454-24.635,2.9887-4.5421,7.343-8.4618,12.664-9.9373-0.0729-0.375-0.14583-0.75-0.21875-1.125z"/><path id="ellipse289" fill="#7c7c7c" d="m142.18,54.213c-0.56215,0.09858-1.0855-0.20728-1.1689-0.68312-0.0834-0.47585,0.30461-0.94152,0.86676-1.0401,0.56214-0.09858,1.0855,0.20726,1.1689,0.68312,0.0834,0.47584-0.30462,0.94152-0.86676,1.0401z"/><path id="ellipse291" transform="matrix(0.50056075,1.0348499,-1.0348499,0.50056075,118.36046,-135.63601)" fill="#7c7c7c" d="m163.92,38.472c0,0.52301-0.35862,0.947-0.801,0.947s-0.801-0.42399-0.801-0.947,0.35862-0.947,0.801-0.947,0.801,0.42399,0.801,0.947z"/><path id="ellipse293" transform="matrix(0.91042971,-0.70181949,0.70181949,0.91042971,-9.8931449,140.51379)" fill="#7c7c7c" d="m173.87,35.012c0,0.38218-0.21177,0.692-0.473,0.692s-0.473-0.30982-0.473-0.692,0.21177-0.692,0.473-0.692,0.473,0.30982,0.473,0.692z"/><path id="path3878" fill-rule="nonzero" style="block-progression:tb;color:#000000;direction:ltr;text-indent:0;text-align:start;enable-background:accumulate;text-transform:none;" fill="#494949" d="m153.75,40.299c-2.095,1.7652-5.4209,1.5837-8.0978,2.9658-9.4859,3.8231-15.882,12.998-18.023,22.78-0.91124,3.466-1.8685,7.8082,1.3713,10.427,4.5047,3.7837,10.695,4.2401,16.312,4.9208,4.9668,5.5028,10.695,10.859,17.84,13.274,3.5158,0.78861,7.379,0.89401,10.573-1.0174,5.7883-2.3595,11.614-5.0956,17.889-5.7747,1.9382,0.27162,4.6664,3.6744,5.8843,0.64301-1.1293-1.9044-3.0369-3.2949-4.5378-4.9604-3.0916-3.107-6.1832-6.2139-9.2748-9.3209,0.61933-10.827-4.1488-22.383-13.701-28.075-3.8715-2.3936-8.2668-3.8447-12.737-4.6123-0.34769-1.3764-2.3965-1.2733-3.4999-1.25zm0.15625,1.1562c2.3523-0.6638,1.9179,1.7771,4.1601,1.4245,8.6576,1.497,16.997,6.5682,20.957,14.613,2.682,5.2657,3.8791,11.292,3.4761,17.181,4.5885,4.5921,9.2439,9.1631,13.719,13.844-2.0824-0.03709-4.1328-2.9732-6.8437-1.5312-6.6789,1.3882-12.87,4.389-19.195,6.8144-4.722,0.93646-9.4665-0.77551-13.276-3.5119-4.0493-2.7509-7.6526-6.1262-10.873-9.8024-0.23006,0.62381-1.0578-0.92761-1.8437-0.375-3.9711-0.51305-8.0675-0.96719-11.719-2.7188,1.2277,0.49918-3.1144-1.359-3.3124-2.4946-2.4456-2.7861-0.69483-6.5547-0.11656-9.6939,2.2568-9.265,8.6334-17.781,17.758-21.149,1.8107-1.1738,5.2423-0.83772,6.4746-1.9249-0.10837-0.40165,0.0909-0.7339,0.63335-0.67489z"/><path id="path3916" fill-rule="nonzero" style="block-progression:tb;color:#000000;direction:ltr;text-indent:0;text-align:start;enable-background:accumulate;text-transform:none;" fill="#bdc1c1" d="m143.32,53.138c-0.11513-0.65656-0.78684-1.0655-1.4785-0.94422-0.69164,0.12128-1.2195,0.74058-1.1044,1.3971,0.11514,0.65655,0.81602,1.0239,1.5077,0.90264,0.69163-0.12128,1.1903-0.69901,1.0752-1.3556zm-0.5661,0.09927c0.0517,0.29513-0.17571,0.61432-0.60836,0.69019s-0.79052-0.14068-0.84228-0.43581c-0.0517-0.29514,0.20488-0.65591,0.63754-0.73178,0.43265-0.07587,0.76134,0.18225,0.8131,0.4774z"/><path id="ellipse3922" fill-rule="nonzero" style="block-progression:tb;color:#000000;direction:ltr;text-indent:0;text-align:start;enable-background:accumulate;text-transform:none;" fill="#bdc1c1" d="m161.43,51.835c-0.30139-0.6231-1.1012-0.82412-1.7607-0.50511-0.6595,0.319-0.99843,1.0708-0.69703,1.6939,0.30139,0.6231,1.0856,0.79178,1.7451,0.47277,0.65951-0.319,1.0141-1.0385,0.71268-1.6616zm-0.51742,0.25028c0.14148,0.29249-0.0226,0.6893-0.44554,0.8939-0.42298,0.2046-0.8359,0.08686-0.97738-0.20563s0.007-0.72164,0.42989-0.92624c0.42298-0.2046,0.85155-0.05452,0.99303,0.23797z"/><path id="ellipse3928" fill-rule="nonzero" style="block-progression:tb;color:#000000;direction:ltr;text-indent:0;text-align:start;enable-background:accumulate;text-transform:none;" fill="#bdc1c1" d="m171.97,49.939c-0.1639,0.12635-0.23476,0.32658-0.22286,0.53465,0.0119,0.20808,0.10221,0.42678,0.25252,0.62178,0.15032,0.19499,0.33883,0.33799,0.53703,0.40246,0.19819,0.06447,0.43179,0.07536,0.5957-0.05099,0.1639-0.12635,0.21283-0.35503,0.20093-0.5631-0.0119-0.20808-0.10221-0.42678-0.25252-0.62178-0.15032-0.19499-0.33884-0.33799-0.53703-0.40246-0.1982-0.06447-0.40986-0.04691-0.57377,0.07944zm0.17546,0.22761c0.0739-0.05699,0.17538-0.05467,0.30881-0.01127,0.13344,0.04341,0.28101,0.12918,0.39892,0.28213,0.11791,0.15296,0.18523,0.34595,0.19324,0.48604,0.008,0.14009-0.0156,0.23879-0.0895,0.29578s-0.20383,0.07661-0.33726,0.0332c-0.13344-0.04341-0.27449-0.17956-0.3924-0.33252s-0.19175-0.29557-0.19976-0.43566c-0.008-0.14009,0.044-0.26072,0.11795-0.31771z"/></g><g id="dude"><path id="polygon239" fill="#828282" d="m84.598,200.53-21.804-68.219,67.255-0.0704-22.688,68.32z"/><path id="path245" fill="#bababa" d="m123.39,101.12c0-14.971-12.13-27.093-27.102-27.093-14.962,0-27.102,12.122-27.102,27.093,0,14.955,12.139,27.094,27.102,27.094,14.972,0,27.102-12.139,27.102-27.094z"/><path id="polygon247" fill="url(#linearGradient4430)" d="m107.83,145.07-11.199-9.3935-11.195,9.3935,11.195,34.342z"/><path id="path3946" fill-rule="nonzero" style="block-progression:tb;color:#000000;direction:ltr;text-indent:0;text-align:start;enable-background:accumulate;text-transform:none;" fill="#EEE" d="m96.625,134.99-0.34375,0.28125-11.188,9.4062-0.28125,0.21875,0.125,0.34375,11.188,34.344,0.5,1.5625,0.5-1.5625,11.219-34.344,0.0937-0.34375-0.25-0.21875-11.219-9.4062-0.34375-0.28125zm0,1.375,10.562,8.875-10.562,32.469-10.562-32.438,10.562-8.9062z"/><path id="path3952" fill-rule="nonzero" style="block-progression:tb;color:#000000;direction:ltr;text-indent:0;text-align:start;enable-background:accumulate;text-transform:none;" fill="#787878" d="m96.281,73.393c-15.304,0-27.719,12.405-27.719,27.719,0,15.297,12.414,27.719,27.719,27.719,15.314,0,27.75-12.422,27.75-27.719,0-15.313-12.436-27.719-27.75-27.719zm0,1.25c14.63,0,26.469,11.84,26.469,26.469,0,14.612-11.839,26.469-26.469,26.469-14.62,0-26.469-11.857-26.469-26.469,0-14.629,11.848-26.469,26.469-26.469z"/><path id="path3958" fill-rule="nonzero" style="block-progression:tb;color:#000000;direction:ltr;text-indent:0;text-align:start;enable-background:accumulate;text-transform:none;" fill="#EEE" d="m130.06,131.58-67.281,0.0937-0.875,0,0.25,0.84375,21.812,68.219,0.15625,0.4375,0.46875,0,22.781,0.0312,0.46875,0,0.125-0.4375,22.688-68.312,0.3125-0.875-0.90625,0zm-0.90625,1.3125-22.25,67.031-21.812-0.0312-21.406-66.938,65.469-0.0625z"/><path id="path241" fill="#3f3f3f" d="m58.59,132.11c-8.1015,0-14.664,6.5626-14.664,14.656v39.523c0,8.1015,6.5626,14.665,14.664,14.665h33.956l-22.441-68.85h-11.515z"/><path id="path3934" fill-rule="nonzero" style="block-progression:tb;color:#000000;direction:ltr;text-indent:0;text-align:start;enable-background:accumulate;text-transform:none;" fill="#EEE" d="m58.594,131.49c-8.4435,0-15.312,6.8456-15.312,15.281v39.531c0,8.4435,6.869,15.281,15.312,15.281h33.938,0.875l-0.25-0.8125-22.438-68.844-0.15625-0.4375h-0.46875-10.875-0.625zm0,1.25,11.062,0,22.031,67.594-33.094,0c-7.7595,0-14.031-6.2718-14.031-14.031v-39.531c0-7.7509,6.2717-14.031,14.031-14.031z"/><path id="path243" fill="#3f3f3f" d="m133.99,132.11h-11.505l-22.429,68.843h33.935c8.0939,0,14.657-6.5633,14.657-14.665v-39.523c-0.00063-8.0933-6.5633-14.656-14.658-14.656z"/><path id="path3940" fill-rule="nonzero" style="block-progression:tb;color:#000000;direction:ltr;text-indent:0;text-align:start;enable-background:accumulate;text-transform:none;" fill="#EEE" d="m122.03,131.49-0.15625,0.4375-22.438,68.844-0.25,0.8125,0.875,0,33.938,0c8.4362,0,15.281-6.8377,15.281-15.281v-39.531c0-8.44-6.84-15.28-15.28-15.28h-0.65625-10.875-0.4375zm0.90625,1.25,11.062,0c7.7522,0,13.999,6.2803,14,14.031v39.531c0,7.7595-6.2485,14.031-14,14.031h-33.094l22.031-67.594z"/></g></svg>