<?xml version="1.0" encoding="UTF-8" standalone="no"?>
<svg id="svg2" xmlns:rdf="http://www.w3.org/1999/02/22-rdf-syntax-ns#" xmlns="http://www.w3.org/2000/svg" enable-background="new -0.627 -0.532 209 151" xml:space="preserve" height="219" width="219" version="1.1" y="0px" x="0px" xmlns:cc="http://creativecommons.org/ns#" xmlns:xlink="http://www.w3.org/1999/xlink" viewBox="-0.627 -0.532 219 219" xmlns:dc="http://purl.org/dc/elements/1.1/"><metadata id="metadata265"><rdf:RDF><cc:Work rdf:about=""><dc:format>image/svg+xml</dc:format><dc:type rdf:resource="http://purl.org/dc/dcmitype/StillImage"/><dc:title/></cc:Work></rdf:RDF></metadata><defs id="defs4"><filter id="filter4100"><feGaussianBlur id="feGaussianBlur4102" stdDeviation="1.8389171"/></filter><filter id="filter4131"><feGaussianBlur id="feGaussianBlur4133" stdDeviation="0.37065477"/></filter><filter id="filter4139"><feGaussianBlur id="feGaussianBlur4141" stdDeviation="0.59402508"/></filter><linearGradient id="linearGradient4162" y2="127.77" gradientUnits="userSpaceOnUse" x2="43.373" y1="133.66" x1="168.18"><stop id="stop4145" stop-color="#7a7a7a" offset="0"/><stop id="stop4147" stop-color="#a4a4a4" offset="1"/></linearGradient><linearGradient id="linearGradient4164" y2="149.68" gradientUnits="userSpaceOnUse" x2="4.014" gradientTransform="matrix(0.94509395,0,0,0.94509395,9.6233078,3.5741715)" y1="153.22" x1="208.22"><stop id="stop4028" stop-color="#686868" offset="0"/><stop id="stop4030" stop-color="#848484" stop-opacity="0" offset="1"/></linearGradient><linearGradient id="linearGradient4166" y2="18.133" gradientUnits="userSpaceOnUse" x2="17.321" y1="58.248" x1="202.57"><stop id="stop4020" stop-color="#bababa" offset="0"/><stop id="stop4022" stop-color="#fafdff" offset="1"/></linearGradient></defs><path id="path239" fill="#9fa1a4" display="none" d="m39.783,92.232s6.958-4.556,14.58-5.632l30.815,10.272,9.278-2.983-0.332,11.929-27.502,1.325,8.615-4.638-35.454-10.273z"/><path id="path241" fill="#9fa1a4" display="none" d="m165.64,135.27s-7.167,4.221-14.833,4.936l-30.293-11.719-9.408,2.537,0.894-11.896,27.537-0.021-8.825,4.222,34.928,11.941z"/><polygon id="polygon243" transform="translate(0,68)" points="146.35,24.955,111.91,37.051,124.38,42.654,154.82,30.794,164.96,36.342,165.29,22.759,138.21,18.795" display="none" fill="#9fa1a4"/><polygon id="polygon245" transform="translate(0,68)" points="59.542,64.277,94.33,53.244,82.047,47.264,51.25,58.18,41.283,52.326,40.539,65.89,67.487,70.686" display="none" fill="#9fa1a4"/><g id="g4151" transform="translate(-4.6398305,-0.9279661)"><path id="path4098" opacity="0.5" d="m90.861,187.47c-34.849-5.2198-60.522-17.085-67.14-31.031-2.7968-5.8937-2.7968-68.577,0-74.471,8.814-18.574,49.688-32.376,95.881-32.376,44.339,0,83.766,12.534,93.872,29.842,2.878,4.9291,2.9003,5.2047,3.1738,39.318l0.27541,34.354-3.1376,5.3539c-8.0842,13.795-33.077,24.621-67.262,29.136-10.984,1.4508-45.659,1.3722-55.663-0.12619z" fill-rule="evenodd" filter="url(#filter4100)" fill="#686868"/><path id="path247" style="stroke-dasharray:none;" d="m12.798,75.197v60.486c0,22.706,44.005,41.112,98.29,41.112,54.284,0,98.29-18.406,98.29-41.112l-0.23627-60.25" stroke="#918e8e" stroke-miterlimit="4" stroke-width="1.89018786" fill="url(#linearGradient4162)"/><path id="path249" d="m208.36,85.092,0.19518,50.294c0.20828,22.535-42.143,40.007-96.48,40.588-41.645,0.59-79.093-10.65-92.998-27.08-0.696,0.42,154,39.52,189.28-63.808z" filter="url(#filter4139)" fill="url(#linearGradient4164)"/><path id="path251" opacity="0.73000004" d="M14.217,115.49,13.935,85.061c6.9814,12.014,17.284,17.385,27.884,22.164,0,0-23.209-10.011-27.602,8.2689z" filter="url(#filter4131)" fill="#d3d3d3"/><ellipse id="ellipse253" style="stroke-dasharray:none;" d="m 208.048,43.5 c 0,24.024387 -46.56239,43.5 -104,43.5 C 46.610383,87 0.04799652,67.524387 0.04799652,43.5 0.04799652,19.475613 46.610383,0 104.048,0 c 57.43761,0 104,19.475613 104,43.5 z" cx="104.05" cy="43.5" rx="104" transform="matrix(0.94509395,0,0,0.94509395,12.752741,35.503083)" ry="43.5" stroke="#918e8e" stroke-miterlimit="4" stroke-width="2" fill="url(#linearGradient4166)"/><polygon id="polygon255" transform="matrix(0.94509395,0,0,0.94509395,12.752741,35.503083)" stroke="#95660c" points="122.94,39.903,109.99,32.972,153.08,21.15,146.59,17.658,183.6,17.938,172.84,31.454,166.2,28.048" stroke-width="1.5" fill="#d59f0f"/><polygon id="polygon257" transform="matrix(0.94509395,0,0,0.94509395,12.752741,35.503083)" stroke="#95660c" points="78.612,41.844,91.345,49.164,47.916,59.677,54.295,63.363,17.315,61.966,28.476,48.781,35.008,52.386" stroke-width="1.5" fill="#d59f0f"/><polygon id="polygon259" transform="matrix(0.94509395,0,0,0.94509395,12.752741,35.503083)" stroke="#95660c" points="170.59,70.397,148.38,75.107,115.39,60.227,104.21,62.589,107.84,49.573,148.43,53.046,137.5,55.457" stroke-width="1.5" fill="#d59f0f"/><polygon id="polygon261" transform="matrix(0.94509395,0,0,0.94509395,12.752741,35.503083)" stroke="#95660c" points="38.33,16.331,58.166,11.086,88.619,23.051,98.61,20.417,95.914,32.333,59.107,31.008,68.867,28.344" stroke-width="1.5" fill="#d59f0f"/></g></svg>