<?xml version="1.0" encoding="UTF-8" standalone="no"?>
<svg id="svg2" xmlns:rdf="http://www.w3.org/1999/02/22-rdf-syntax-ns#" xmlns="http://www.w3.org/2000/svg" enable-background="new 21.152 45.375 219 219" xml:space="preserve" height="219px" width="219px" version="1.1" y="0px" x="0px" xmlns:cc="http://creativecommons.org/ns#" xmlns:dc="http://purl.org/dc/elements/1.1/" viewBox="21.152 45.375 219 219"><metadata id="metadata276"><rdf:RDF><cc:Work rdf:about=""><dc:format>image/svg+xml</dc:format><dc:type rdf:resource="http://purl.org/dc/dcmitype/StillImage"/><dc:title/></cc:Work></rdf:RDF></metadata>
<defs id="defs4">
</defs>
<filter id="AI_GaussianBlur_2">
	<feGaussianBlur id="feGaussianBlur240" stdDeviation="3"/>
</filter>
<g id="g3113" transform="matrix(1.2581383,0,0,1.2412258,-36.830604,-30.656513)"><path id="path260" fill="#ececec" d="m102,181.31c-12.081,27.928-26.426,40.141-34.95,45.26l61.439-15.1c15.826-8.02,30.823-23.184,46.911-56.416,14.704-30.374,23.65-64.204,27.349-79.951l-72.439,10.391c-4.372,20.477-14.582,64.081-28.31,95.816z"/><path id="path262" fill="#0c0c0c" d="m215.8,73.23c-2.473,0.354-4.946,0.71-7.417,1.064-6.183,0.887-7.182,1.031-7.182,1.031l-68.875,9.879s-3.131,0.45-9.328,1.337c-2.496,0.359-4.991,0.718-7.486,1.075-0.07,0.01-0.26,1.423-0.28,1.52-0.281,1.519-0.572,3.031-0.869,4.542-0.732,3.7-1.509,7.392-2.319,11.066-1.926,8.744-4.047,17.425-6.368,26.024-4.994,18.524-10.86,36.832-18.431,54.042-0.3,0.676-0.599,1.35-0.901,2.02-3.775,8.354-7.996,16.469-13.01,23.805-4.795,7.02-10.451,13.568-17.293,17.512-2.177,1.254-4.471,2.225-6.833,2.805,16.477-4.049,32.954-8.098,49.433-12.146,8.238-2.025,16.479-4.051,24.718-6.074,4.103-1.01,8.216-1.971,12.312-3.031,3.768-0.975,7.417-2.568,10.88-4.609,14.045-8.291,24.933-23.242,33.756-38.555,0.047-0.078,0.091-0.158,0.137-0.238,9.111-15.876,16.466-33.219,22.762-50.975,2.912-8.211,5.592-16.544,8.04-24.978,1.009-3.478,1.98-6.973,2.899-10.489,0.427-1.625,0.842-3.254,1.24-4.89,0.103-0.418,0.204-0.835,0.303-1.253,0.024-0.111,0.045-0.397,0.112-0.484zm-74.076,14.493c7.564-1.11,15.13-2.22,22.694-3.329,7.8-1.143,15.6-2.287,23.4-3.431,4.102-0.601,8.207-1.203,12.31-1.804,0.058-0.009,0.114-0.018,0.172-0.026-4.123,16.924-9.289,33.526-15.294,49.592-3.444,0.645-6.889,1.289-10.334,1.935-7.6,1.42-15.2,2.842-22.798,4.262-7.651,1.429-15.301,2.861-22.952,4.292-3.599,0.672-7.196,1.347-10.796,2.02h-0.007c5.329-16.971,9.843-34.376,13.418-52.017,3.396-0.499,6.793-0.997,10.187-1.494zm41.006,46.943c-4.696,11.97-9.959,23.651-16.072,34.641-3.423,6.145-7.121,12.078-11.189,17.615-3.562,0.824-7.12,1.645-10.684,2.467-7.682,1.775-15.363,3.549-23.045,5.32-7.297,1.686-14.596,3.371-21.895,5.053-2.541,0.59-5.083,1.178-7.624,1.762,3.615-5.748,6.84-11.844,9.806-18.111,5.442-11.527,10.024-23.648,14.095-35.974,3.455-0.663,6.907-1.323,10.361-1.987,7.605-1.458,15.212-2.917,22.819-4.375,7.626-1.464,15.254-2.923,22.881-4.386,3.514-0.674,7.028-1.348,10.544-2.024,0-0.001,0-0.001,0.003-0.001zm-64.572-43.488c3.356-0.491,6.711-0.983,10.062-1.477-0.389,1.937-0.789,3.867-1.206,5.792-3.343,0.506-6.688,1.012-10.032,1.518,0.406-1.941,0.796-3.886,1.176-5.833zm-1.965,9.559c3.336-0.514,6.676-1.028,10.013-1.543-0.655,2.949-1.334,5.889-2.038,8.822-3.324,0.535-6.649,1.071-9.97,1.605,0.688-2.954,1.352-5.914,1.995-8.884zm-3.188,13.9c3.314-0.545,6.628-1.093,9.944-1.639-0.911,3.647-1.856,7.277-2.837,10.898-3.292,0.57-6.584,1.141-9.878,1.712,0.958-3.644,1.884-7.302,2.771-10.971zm-4.348,16.823c3.281-0.584,6.564-1.166,9.842-1.749-1.15,4.062-2.35,8.105-3.601,12.126-3.253,0.61-6.506,1.216-9.761,1.826,1.225-4.046,2.397-8.114,3.52-12.203zm-5.457,18.454c3.238-0.621,6.478-1.239,9.716-1.863-1.38,4.218-2.822,8.406-4.336,12.555-3.205,0.645-6.41,1.289-9.616,1.933,1.481-4.173,2.891-8.384,4.236-12.625zm-6.509,18.852c3.188-0.656,6.377-1.312,9.565-1.967-1.574,4.066-3.221,8.088-4.962,12.053-3.151,0.678-6.304,1.354-9.454,2.029,1.706-3.984,3.317-8.029,4.851-12.115zm-7.338,17.74c3.133-0.682,6.266-1.367,9.396-2.051-1.184,2.516-2.415,5.01-3.695,7.459-3.104,0.697-6.207,1.391-9.312,2.086,1.249-2.461,2.453-4.965,3.611-7.494zm-5.478,11.066c3.089-0.699,6.18-1.396,9.269-2.096-1.266,2.295-2.58,4.547-3.953,6.748-3.061,0.707-6.12,1.412-9.18,2.119,1.342-2.208,2.627-4.47,3.864-6.771zm-5.844,9.918c3.046-0.709,6.092-1.418,9.136-2.127-1.326,1.984-2.706,3.924-4.151,5.785-3.015,0.713-6.026,1.43-9.042,2.141,1.414-1.871,2.762-3.808,4.057-5.799zm-6.131,8.432c2.998-0.715,5.994-1.43,8.993-2.146-1.389,1.645-2.831,3.219-4.34,4.693-2.965,0.715-5.931,1.432-8.894,2.145,1.479-1.471,2.89-3.044,4.241-4.692zm-6.405,6.738c2.948-0.715,5.896-1.43,8.843-2.143-1.448,1.262-2.958,2.43-4.524,3.465-2.912,0.713-5.828,1.424-8.739,2.139,1.535-1.031,3.006-2.201,4.42-3.461zm-11.197,6.926c1.555-0.545,3.071-1.248,4.541-2.078,2.894-0.711,5.787-1.42,8.686-2.127-1.502,0.836-3.054,1.545-4.645,2.096-2.861,0.703-5.72,1.404-8.582,2.109zm59.66-14.656c-7.799,1.914-15.597,3.83-23.395,5.748-6.797,1.668-13.595,3.336-20.389,5.006-1.485,0.365-2.974,0.732-4.459,1.098,9.984-3.455,18.04-12.57,24.469-22.121,3.578-0.834,7.155-1.666,10.733-2.5,7.699-1.795,15.396-3.586,23.096-5.381,7.267-1.691,14.533-3.387,21.8-5.078,2.44-0.57,4.884-1.139,7.326-1.705-7.72,9.844-17.05,18.58-27.999,22.188-3.727,0.913-7.455,1.827-11.182,2.745zm21.416-5.264c-2.547,0.629-5.095,1.252-7.641,1.879,1.831-0.604,3.63-1.355,5.388-2.232,2.573-0.629,5.149-1.26,7.722-1.891-1.782,0.885-3.609,1.637-5.469,2.244zm8.168-3.691c-2.591,0.631-5.178,1.266-7.767,1.896,1.801-1.053,3.552-2.236,5.248-3.521,2.614-0.635,5.226-1.268,7.842-1.902-1.722,1.288-3.5,2.468-5.323,3.527zm7.926-5.58c-2.627,0.635-5.253,1.268-7.88,1.902,1.73-1.461,3.406-3.023,5.024-4.666,2.652-0.631,5.304-1.262,7.956-1.893-1.646,1.639-3.343,3.2-5.1,4.657zm7.594-7.248c-2.664,0.629-5.325,1.262-7.991,1.891,1.66-1.822,3.257-3.719,4.805-5.678,2.687-0.629,5.373-1.254,8.06-1.881-1.571,1.955-3.195,3.851-4.874,5.668zm7.247-8.729c-2.698,0.627-5.396,1.25-8.094,1.871,1.578-2.129,3.1-4.328,4.57-6.568,2.721-0.617,5.442-1.23,8.161-1.846-1.494,2.233-3.037,4.422-4.637,6.543zm6.878-9.982c-2.731,0.609-5.462,1.221-8.192,1.828,1.47-2.361,2.891-4.771,4.27-7.215,2.749-0.604,5.5-1.203,8.253-1.805-1.4,2.436-2.843,4.834-4.331,7.192zm7.308-12.57c-2.764,0.593-5.528,1.187-8.293,1.781,1.998-3.798,3.902-7.666,5.726-11.589,2.792-0.575,5.584-1.148,8.377-1.721-1.852,3.903-3.782,7.753-5.81,11.529zm8.529-17.436c-2.804,0.566-5.609,1.126-8.414,1.692,1.736-3.958,3.403-7.962,5.001-12.007,2.827-0.543,5.656-1.085,8.482-1.626-1.62,4.022-3.305,8.005-5.069,11.941zm7.39-17.837c-2.84,0.529-5.677,1.062-8.518,1.592,1.44-3.821,2.823-7.672,4.154-11.55,2.858-0.508,5.717-1.016,8.574-1.524-1.35,3.855-2.752,7.684-4.21,11.482zm6.096-16.978c-2.868,0.498-5.734,0.994-8.601,1.493,1.128-3.432,2.219-6.882,3.271-10.349,2.883-0.475,5.764-0.95,8.646-1.426-1.067,3.445-2.172,6.875-3.316,10.282zm4.741-14.976c-2.889,0.466-5.776,0.93-8.664,1.396,0.811-2.774,1.594-5.56,2.354-8.355,2.899-0.447,5.8-0.894,8.701-1.341-0.772,2.777-1.568,5.544-2.391,8.3zm3.336-11.781c-2.903,0.439-5.807,0.879-8.713,1.317,0.477-1.819,0.942-3.645,1.393-5.476,2.909-0.426,5.819-0.853,8.729-1.28-0.456,1.818-0.926,3.631-1.409,5.439z"/></g></svg>