<?xml version="1.0" encoding="UTF-8" standalone="no"?>
<svg id="svg2" xmlns:rdf="http://www.w3.org/1999/02/22-rdf-syntax-ns#" xmlns="http://www.w3.org/2000/svg" y="0px" xml:space="preserve" height="219" width="219" version="1.1" enable-background="new -0.101 -0.937 209 202" x="0px" xmlns:cc="http://creativecommons.org/ns#" xmlns:xlink="http://www.w3.org/1999/xlink" viewBox="-0.101 -0.937 219 219" xmlns:dc="http://purl.org/dc/elements/1.1/"><metadata id="metadata4"><rdf:RDF><cc:Work rdf:about=""><dc:format>image/svg+xml</dc:format><dc:type rdf:resource="http://purl.org/dc/dcmitype/StillImage"/><dc:title/></cc:Work></rdf:RDF></metadata>
<defs id="defs6"><filter id="filter3844"><feGaussianBlur id="feGaussianBlur9" stdDeviation="0.92361531"/></filter><linearGradient id="linearGradient3853" y2="146" gradientUnits="userSpaceOnUse" x2="-9.68" gradientTransform="translate(0.3126925,-0.937)" y1="214" x1="247"><stop id="stop12" stop-color="#151212" offset="0"/><stop id="stop14" stop-color="#eae7e7" stop-opacity="0.40948276" offset="1"/></linearGradient><linearGradient id="linearGradient3032" y2="212" gradientUnits="userSpaceOnUse" x2="-80.9" gradientTransform="matrix(-1.1468734,0.18241251,0.17231078,1.2141089,14.192927,-170.34137)" y1="267" x1="-11.3"><stop id="stop15-2" stop-color="#663700" offset="0"/><stop id="stop17-4" stop-color="#b49664" stop-opacity="0" offset="1"/></linearGradient><linearGradient id="linearGradient3028" y2="221" gradientUnits="userSpaceOnUse" x2="-79.4" gradientTransform="matrix(-1.1468734,0.1824125,0.17231077,1.2141089,15.353207,-168.0513)" y1="259" x1="-27.5"><stop id="stop20-8" stop-color="#a06127" offset="0"/><stop id="stop22-8" stop-color="#b4964e" stop-opacity="0" offset="1"/></linearGradient><linearGradient id="linearGradient3021" y2="220" gradientUnits="userSpaceOnUse" x2="-139" gradientTransform="matrix(-1.1468734,0.1824125,0.17231077,1.2141089,15.353207,-170.0513)" y1="245" x1="-104"><stop id="stop25-9" stop-color="#663700" offset="0"/><stop id="stop27-4" stop-color="#b4964e" stop-opacity="0" offset="1"/></linearGradient><linearGradient id="linearGradient3016" y2="161" gradientUnits="userSpaceOnUse" x2="-102" gradientTransform="matrix(-1.1468734,0.1824125,0.17231077,1.2141089,15.353207,-170.0513)" y1="187" x1="-62.2"><stop id="stop30-4" stop-color="#663700" offset="0"/><stop id="stop32-0" stop-color="#b4964e" stop-opacity="0" offset="1"/></linearGradient><linearGradient id="linearGradient3012" y2="-224" gradientUnits="userSpaceOnUse" x2="-16.4" gradientTransform="matrix(1.1926234,0,0,1.1958237,125.44622,108.91737)" y1="-224" x1="-52.9"><stop id="stop35-1" stop-color="#663700" offset="0"/><stop id="stop37-7" stop-color="#b4964e" stop-opacity="0" offset="1"/></linearGradient></defs>
<path style="color:#000000;enable-background:accumulate;" fill="#acacac" stroke-miterlimit="4" d="m42.51,94.929c-6.578,0.57745-11.7,6.0758-11.7,12.754v78.333h156.67v-78.333c0-6.7286-5.1218-12.202-11.7-12.754h-133.57zm-11.499,99.925c1.0143,6.0758,6.2767,10.695,12.654,10.695h131.06c6.3771,0,11.65-4.6046,12.654-10.695h-156.66z" fill-rule="evenodd"/><path id="path54" d="m109.02,5.5493c-31.986,0-57.745,25.91-57.745,57.745,0,1.2503,0.03635,23.349,0.10997,31.584h34.945c-0.20233-8.234-0.30333-30.328-0.30333-31.583,0-12.804,10.394-23.199,23.199-23.199,12.804,0,23.199,10.394,23.199,23.199,0,1.2754-0.10143,23.349-0.29827,31.584h34.949c0.0733-8.235,0.10997-30.329,0.10997-31.584,0-31.986-25.91-57.745-57.745-57.745z" fill-rule="evenodd" stroke-miterlimit="4" fill="#CCC"/><path id="path58" opacity="0.47345132" d="m-22.6,146s29.7,33.9,70.8,36.5c41.1,2.54,90.8-0.418,123-16.5,16.5-8.15,25-14.4,52.6-26.3,26.9-11.6,58.9-13.6,58.9-13.6l0.424,118-306,0.424v-98.8z" transform="matrix(0.50213438,0,0,0.52227625,43.739794,58.288871)" filter="url(#filter3844)" fill="url(#linearGradient3853)"/><path id="path2909" fill-rule="evenodd" style="block-progression:tb;color:#000000;direction:ltr;text-indent:0;text-align:start;enable-background:accumulate;text-transform:none;" fill="#8a8a8a" d="m109.03,4.0312c-32.799,0-59.281,26.602-59.281,59.25,0,1.2795,0.05121,23.37,0.125,31.625v1.4688h1.5,34.969,1.5312l-0.03125-1.5312c-0.20054-8.1814-0.3125-30.388-0.3125-31.562,0-11.989,9.6983-21.688,21.688-21.688,11.989,0,21.688,9.6983,21.688,21.688,0,1.1956-0.0856,23.379-0.28125,31.562l-0.0312,1.5312h1.5312,34.938,1.5l0.0312-1.4688c0.0735-8.2545,0.0937-30.34,0.0937-31.625,0-32.799-26.602-59.25-59.25-59.25h-0.40625zm0,3.0312,0.40625,0c31.023,0,56.25,25.046,56.25,56.219,0,1.1678-0.0586,21.085-0.125,30.094h-31.938c0.1795-9.0707,0.3125-28.804,0.3125-30.094,0-13.62-11.099-24.688-24.719-24.688s-24.688,11.068-24.688,24.688c0,1.2718,0.09736,21.02,0.28125,30.094h-31.938c-0.06661-9.0094-0.09375-28.931-0.09375-30.094,0-31.023,25.078-56.219,56.25-56.219z"/><path id="path3687" fill-rule="evenodd" style="block-progression:tb;color:#000000;direction:ltr;text-indent:0;text-align:start;enable-background:accumulate;text-transform:none;" fill="#8a8a8a" d="m42.219,93.438,0,0.03125c-7.262,0.72-12.907,6.821-12.907,14.221v78.344,1.5h1.5,156.66,1.5v-1.5-78.344c0-7.493-5.7227-13.634-13.062-14.25h-0.0625-0.0625-133.28-0.125-0.15625zm0.4375,3,133,0c5.8161,0.48837,10.312,5.2858,10.312,11.25v76.812h-153.66v-76.812c0-5.9082,4.5278-10.739,10.344-11.25z"/><path id="path56" fill-rule="evenodd" style="block-progression:tb;color:#000000;direction:ltr;text-indent:0;text-align:start;enable-background:accumulate;text-transform:none;" fill="#8a8a8a" d="m29.243,193.34,0.28125,1.75c1.1324,6.783,7.0167,11.969,14.125,11.969h131.06c7.1059,0,13.034-5.1633,14.156-11.969l0.28125-1.75h-1.7812-156.34-1.7812zm3.9062,3,152.09,0c-1.5239,4.4466-5.5434,7.7188-10.531,7.7188h-131.06c-4.9858,0-8.9763-3.2755-10.5-7.7188z"/><path id="path48-5" style="color:#000000;enable-background:accumulate;" fill-rule="nonzero" fill="#a09989" d="m31.274,193.89c-2.7113-3.0046-5.538-4.2016-5.538-4.2016s2.8382-8.3787,35.997-41.893c33.23-33.6,74.996-68.405,74.996-68.405,1.731-1.356,4.05-3.713,2.908-4.971l-0.18229-0.20397c-1.1434-1.2702-0.93799-3.0901,0.45458-4.0306l5.8841-4.0183,11.307,12.58-4.0612,6.0336c-0.95876,1.429-2.6882,1.5634-3.8304,0.28947l-0.2919-0.32122c-1.1434-1.2702-3.5074,1.0406-4.8688,2.8092,0,0-34.843,42.504-68.071,76.092s-41.189,36.153-41.189,36.153-0.82492-2.858-3.5304-5.8626z"/><path id="path3733" style="direction:ltr;enable-background:accumulate;block-progression:tb;text-indent:0;color:#000000;text-transform:none;text-align:start;" fill-rule="nonzero" fill="#8c531b" d="m157.86,78.694-0.3125-0.34375-11.312-12.594-0.34375-0.375-0.4375,0.28125-5.875,4.0312c-1.6659,1.125-1.9192,3.399-0.5625,4.9062l0.188,0.219c0.15568,0.17146,0.18272,0.3052,0.125,0.59375-0.0577,0.28855-0.26512,0.70804-0.5625,1.125-0.59475,0.83393-1.5712,1.7209-2.4062,2.375v0.0312s-41.804,34.818-75.062,68.438c-16.591,16.769-25.592,27.25-30.469,33.562-2.4382,3.1563-3.8252,5.2584-4.625,6.5938-0.79984,1.3353-1.0312,1.9375-1.0312,1.9375l-0.1875,0.53125,0.53125,0.21875s2.5254,1.1514,5.0625,3.8438l0.0312,0.0312,0.21875,0.25c2.62,2.9096,3.375,5.625,3.375,5.625l0.1875,0.59375,0.59375-0.1875s0.5818-0.21799,1.875-1,3.3511-2.1624,6.4375-4.5938c6.1728-4.8626,16.468-13.913,33.094-30.719,33.258-33.619,68.125-76.125,68.125-76.125v-0.0312c0.653-0.839,1.586-1.815,2.404-2.394,0.409-0.289,0.772-0.458,1.031-0.5,0.25907-0.0421,0.37398-0.0185,0.53125,0.15625l0.28125,0.3125c0.67798,0.75615,1.5811,1.1302,2.4688,1.0625,0.88767-0.0677,1.7455-0.59235,2.3125-1.4375l4.0625-6.0312,0.25-0.375zm-1.5,0.125-3.8125,5.625c-0.39173,0.58386-0.90395,0.86796-1.4062,0.90625-0.5023,0.0383-1.0358-0.16975-1.5-0.6875l-0.28125-0.3125c-0.41441-0.4604-1.0455-0.62042-1.5938-0.53125-0.5483,0.0892-1.0361,0.36822-1.5312,0.71875-0.99035,0.70106-1.9503,1.7392-2.6562,2.6562,0,0-34.834,42.474-68.031,76.031-16.602,16.782-26.885,25.808-33,30.625-3.0573,2.4084-5.0747,3.7827-6.3125,4.5312-0.8787,0.53136-0.96548,0.51402-1.1562,0.59375-0.26601-0.75853-1.0718-2.6951-3.1562-5.125l0.0312-0.0937-0.21875-0.28125c-2.362-2.6175-4.476-3.6904-5.1875-4.0312,0.078-0.1875,0.0869-0.33076,0.65625-1.2812,0.76853-1.283,2.1463-3.3722,4.5625-6.5,4.8324-6.2555,13.838-16.723,30.406-33.469,33.197-33.557,74.938-68.344,74.938-68.344,0.89561-0.70161,1.9131-1.6269,2.625-2.625,0.35593-0.49907,0.64006-1.0129,0.75-1.5625,0.10798-0.53984-0.009-1.1697-0.40625-1.625-0.007-0.008,0.007-0.0231,0-0.0312l-0.1875-0.1875c-0.93002-1.0332-0.77553-2.3691,0.34375-3.125v-0.0312l23.77,5.28,10.656,11.874z"/><path id="path46-5" fill="#663700" d="m32.434,192.67c4.0843,4.5313,3.9227,11.701-0.35996,16-4.2689,4.3237-11.041,4.1405-15.114-0.3774-4.0843-4.5313-3.9112-11.701,0.3542-16,4.2804-4.3115,11.053-4.1527,15.114,0.37862z"/><path id="path50-1" fill="url(#linearGradient3032)" d="m32.424,192.38c-1.4537-1.5634-2.8959-2.6626-4.015-3.371,0.75109-1.2336,2.0767-3.2122,4.3496-6.1558,4.788-6.1802,13.73-16.611,30.343-33.344,24.806-25.038,50.995-47.268,66.571-60.947,4.938-4.3359,7.9954-6.9741,8.2954-7.2184,0.18114-0.14534,0.35074-0.29558,0.50996-0.4568,1.0695-1.076,3.2766-2.9802,3.2997-4.1283,0.0242-1.1432-0.39689-2.2962-1.1999-3.1878l-0.18345-0.20397c-0.24921-0.28214-0.3092-0.52031-0.3092-0.72794,0.006-0.20519,0.0718-0.40428,0.28267-0.62168,0.0575-0.0575,0.11884-0.11322,0.20075-0.16366l4.808-3.278,4.626,5.13-117.69,118.7z"/><path id="path52-7" fill="#a06127" d="m33.532,201.27c-1.3839,1.4236-4.9215,0.48148-7.9043-2.0977-2.9827-2.5792-4.2958-5.8306-2.9137-7.2514,1.3724-1.4188,5.3278-0.90357,8.3113,1.679,2.9835,2.5825,3.8887,6.2493,2.5105,7.6812z"/><path id="path54-1" opacity="0.98000004" fill="url(#linearGradient3028)" d="m33.584,194.67c1.3268,1.771,1.4768,1.8809,2.0883,3.1023,1.1999-0.72672,3.2766-2.8458,6.1841-5.0932,6.1033-4.7145,16.383-13.802,33.112-30.29,25.036-24.794,47.419-51.176,61.264-66.932,4.3612-4.9832,7.0148-8.0611,7.2801-8.3542,0.14653-0.18321,0.29767-0.35543,0.46034-0.51421,1.0741-1.0712,2.9997-3.2977,4.0727-3.2489,1.0811,0.0366,2.146,0.54718,2.9305,1.4412l0.18114,0.20397c0.25036,0.2797,0.47419,0.35786,0.66917,0.36763,0.19268,0.005,0.38535-0.0539,0.60341-0.26381,0.0563-0.0574,0.11318-0.11982,0.16614-0.20275l3.376-4.903-4.062-4.824-118.83,119.57z"/><path id="path60-1" fill="#a09989" d="m150.34,7.9888c3.046-3.0779,8.134-2.6993,11.33,0.8513,3.161,3.505,3.3,8.867,0.323,11.957l-0.10349,0.11334c-0.46842,0.47145-0.37612,1.4168,0.20075,2.0519,0.57687,0.64,1.4306,0.78291,1.9152,0.31756l0.1846-0.18687c2.1806-2.1985,5.7918-1.942,8.0531,0.56428,1.8806,2.0886,2.2498,5.0932,1.0591,7.3161l19.152,21.253c2.146-1.1505,4.9611-0.62779,6.8532,1.4657,2.2613,2.516,2.3306,6.339,0.15114,8.5497l-0.20883,0.20886c-0.43612,0.46046-0.34266,1.3679,0.23421,2.0153,0.57803,0.63756,1.4537,0.78168,1.9268,0.30779l0.0933-0.0943c3.07-3.018,8.123-2.615,11.284,0.9,3.196,3.542,3.3114,8.928,0.264,12.018l-32.305,31.145c-1.4999,1.5145-3.5305,2.2473-5.6995,2.0641-2.0998-0.18687-4.0958-1.2177-5.6187-2.9069-3.1613-3.5054-3.3112-8.8672-0.3242-11.957l0.0902-0.10003c0.47996-0.48,0.38304-1.4168-0.19037-2.0641-0.57918-0.64-1.4306-0.78291-1.9152-0.31634l-0.18691,0.18687c-2.1806,2.1985-5.7918,1.942-8.0531-0.5655-1.8921-2.0886-2.2498-5.0932-1.058-7.3161l-18.46-21.858c-2.1575,1.1542-4.9726,0.62779-6.8532-1.4657-2.2613-2.516-2.3306-6.339-0.14999-8.5497l0.20767-0.20886c0.43727-0.46168,0.34382-1.3802-0.23075-2.0153-0.57918-0.64-1.4653-0.78291-1.9268-0.31145l-0.0937,0.0918c-3.069,3.0168-8.1224,2.6138-11.284-0.8965-3.1959-3.542-3.3228-8.9405-0.26882-12.018l31.61-30.543z"/><path id="path62-5" fill="#663700" d="m160.73,90.554c-0.82608-1.1786-0.0879-3.5176,0.82723-4.4458l29.998-30.656c0.918-0.927,3.138-1.503,4.211-0.579l-35.766,36.153z"/><path id="path64-2" fill="#663700" d="m163.04,92.997c1.0834,0.89527,3.0228,0.29924,3.9458-0.62779l29.997-30.168c0.87685-0.92581,2.8382-2.4183,1.6037-4.8l-35.766,36.153z"/><path id="path66-7" opacity="0.75" fill="#a06127" d="m169.96,103.99c-0.86992-1.2458-0.57226-3.6886,0.39804-4.6779l33.459-33.585c0.9703-0.97588,2.9767-1.1811,4.1073-0.20397l-37.958,38.351z"/><path id="path68-6" fill="url(#linearGradient3021)" d="m174.57,108.88c1.1307,0.97345,4.4881,0.84031,5.4457-0.13557l32.189-32.852c0.96914-0.97588,1.696-4.91,0.46842-6.2901l-38.074,39.329z"/><path id="path70-1" fill="#663700" d="m133.04,60.264c-0.82147-1.1786,0.0115-3.2977,0.92992-4.226l30.69-31.023c0.91723-0.92703,3.3343-1.5145,4.4419-0.61802l-36.112,35.909z"/><path id="path72-4" fill="#663700" d="m135.35,62.829c1.0764,0.92581,3.3689,0.38962,4.2919-0.53741l30.689-31.024c0.91954-0.92459,1.8229-3.1145,0.99684-4.2871l-36.92,35.787z"/><path id="path74-2" fill="url(#linearGradient3016)" d="m118.96,46.584c-0.86877-1.2458-0.10338-3.9329,0.863-4.91l31.96-32.366c0.972-0.9771,3.958-1.8199,5.088-0.8379l-37.958,38.107z"/><path id="path76" opacity="0.75" fill="#a06127" d="m123.8,51.958c1.5576,0.65222,3.4382,0.43726,4.5342-0.3029l32.309-33.099c0.9853-0.99543,1.2807-3.4687,0.82954-4.9955l-38.074,38.351z"/><rect id="rect78" transform="matrix(0.70361666,-0.71057976,-0.66943259,-0.7428728,0,0)" height="24.863" width="43.543" y="-171.08" x="62.416" fill="url(#linearGradient3012)"/><path id="path3727" style="direction:ltr;enable-background:accumulate;block-progression:tb;text-indent:0;color:#000000;text-transform:none;text-align:start;" fill-rule="nonzero" fill="#8c531b" d="m215.86,71.756c-0.0494-2.3215-0.92869-4.6825-2.625-6.5625-3.3575-3.7333-8.8348-4.2025-12.156-0.9375l-0.0937,0.0937c-0.0851,0.0853-0.20542,0.12614-0.40625,0.0937-0.20083-0.0324-0.45291-0.15072-0.65625-0.375-0.20695-0.23223-0.31765-0.51715-0.34375-0.75-0.0244-0.21792,0.0306-0.35957,0.0937-0.4375v-0.0312l0.21875-0.1875c2.4253-2.4601,2.3331-6.64-0.125-9.375-1.9292-2.1345-4.7934-2.7401-7.125-1.75l-18.657-20.721c1.064-2.406,0.65-5.418-1.281-7.562-2.4594-2.7258-6.5087-3.0425-8.9375-0.59375l-0.15625,0.1875c-0.094,0.0903-0.24167,0.12631-0.4375,0.0937-0.19583-0.0326-0.41978-0.14732-0.625-0.375-0.20003-0.22022-0.32028-0.51-0.34375-0.75-0.0235-0.24,0.0451-0.41962,0.125-0.5l0.0937-0.0937c0.006-0.006-0.006-0.0247,0-0.0312,3.2028-3.3478,3.039-9.0336-0.3125-12.75-3.3924-3.7689-8.8907-4.2064-12.188-0.875l-31.594,30.531h-0.0312c-3.3055,3.3314-3.1426,9.0837,0.25,12.844,3.3576,3.7283,8.8348,4.2025,12.156,0.9375l0.098-0.095c0.076-0.078,0.203-0.126,0.406-0.093,0.20298,0.0328,0.45341,0.15085,0.65625,0.375,0.20209,0.22339,0.31783,0.51544,0.34375,0.75,0.0259,0.23456-0.0255,0.36548-0.0937,0.4375l-0.1875,0.21875c-2.4265,2.46-2.3331,6.64,0.125,9.375,1.9187,2.1358,4.7533,2.7421,7.0938,1.75l17.969,21.312c-1.0651,2.4053-0.63052,5.4178,1.3125,7.5625,2.4594,2.7271,6.4774,3.0425,8.9062,0.59375l0.188-0.187c0.0946-0.0911,0.21098-0.12616,0.40625-0.0937,0.18439,0.0306,0.42582,0.17018,0.625,0.375,0.0118,0.0121,0.0197,0.0185,0.0312,0.0312,0.18532,0.22326,0.29068,0.52206,0.3125,0.75,0.0229,0.23949-0.0364,0.38018-0.125,0.46875v0.0312l-0.0937,0.0937c-3.2337,3.3452-3.0451,9.0269,0.3125,12.75,1.6157,1.7921,3.7405,2.9239,6,3.125h0.0312c2.3331,0.19707,4.5346-0.61256,6.1562-2.25l32.312-31.125v-0.0312c1.6501-1.665,2.4267-3.923,2.3772-6.244zm-1.1875,0c0.0453,2.0206-0.64479,3.9888-2.0312,5.4062l-32.313,31.154c-1.3781,1.3916-3.2138,2.0756-5.2188,1.9062-1.9401-0.17266-3.7886-1.1325-5.2188-2.7188-2.9649-3.2876-3.0842-8.3213-0.34375-11.156l0.063-0.094c0.008-0.008-0.007-0.0234,0-0.0312,0.37364-0.38962,0.51668-0.90554,0.46875-1.4062-0.0489-0.51074-0.25464-1.0194-0.625-1.4375-0.37237-0.41148-0.84735-0.6676-1.3438-0.75-0.4964-0.0824-1.0475,0.0308-1.4375,0.40625l-0.1875,0.1875c-1.9323,1.9482-5.1242,1.7567-7.1875-0.53125-1.7261-1.9053-2.0313-4.6745-0.96875-6.6562l0.189-0.345-0.25-0.313-18.468-21.875-0.3125-0.34375-0.4375,0.21875c-1.9006,1.0168-4.409,0.56649-6.125-1.3438-2.0645-2.2971-2.0909-5.7574-0.15625-7.7188l0.1875-0.21875h0.0312c0.36906-0.38966,0.46138-0.93862,0.40625-1.4375-0.0551-0.49888-0.25252-0.99452-0.625-1.4062-0.37634-0.41586-0.87477-0.6692-1.375-0.75s-1.0521,0.0438-1.4375,0.4375l-0.094,0.062c-2.8165,2.7687-7.4414,2.4484-10.406-0.84375-2.9881-3.3117-3.0834-8.3572-0.3125-11.188l0.03-0.03,31.592-30.532c2.796-2.8243,7.47-2.5197,10.469,0.8126,2.965,3.2872,3.075,8.3212,0.344,11.156h-0.0312l-0.0625,0.0937-0.032,0.031h0.031c-0.37104,0.3892-0.51759,0.93802-0.46875,1.4375,0.0498,0.50932,0.24816,0.99136,0.625,1.4062,0.37165,0.41233,0.84733,0.6987,1.3438,0.78125,0.49642,0.0825,1.0469-0.0312,1.4375-0.40625v-0.0312l0.188-0.188c1.9323-1.9482,5.1242-1.7243,7.1875,0.5625,1.7162,1.906,2.0295,4.6446,0.96875,6.625l-0.188,0.375,0.281,0.313,19.156,21.25,0.313,0.344,0.406-0.219c1.8881-1.0123,4.3971-0.56796,6.125,1.3438,2.0645,2.2971,2.1211,5.7574,0.1875,7.7188l-0.21875,0.21875c-0.36725,0.38775-0.49331,0.90841-0.4375,1.4062,0.0558,0.49784,0.28633,0.99114,0.65625,1.4062v0.0312c0.37469,0.41328,0.84397,0.66941,1.3438,0.75,0.49978,0.0806,1.0496-0.0489,1.4375-0.4375l0.0937-0.0937c2.8165-2.7687,7.4725-2.4219,10.438,0.875,1.4996,1.662,2.267,3.7515,2.3125,5.7812z"/><path id="path3739" style="direction:ltr;enable-background:accumulate;block-progression:tb;text-indent:0;color:#000000;text-transform:none;text-align:start;" fill-rule="nonzero" fill="#8c531b" d="m35.984,200.76c0.0686-3.0428-0.97548-6.1152-3.125-8.5l-0.21875-0.25-0.0937,0.0312c-4.3044-4.4832-11.243-4.6325-15.656-0.1875-4.4933,4.529-4.6744,12.074-0.375,16.844,4.2876,4.7562,11.472,4.9292,15.969,0.375,2.2557-2.2644,3.4314-5.2697,3.5-8.3125zm-1.1875-0.0312c-0.0618,2.7496-1.1293,5.4964-3.1562,7.5312-4.0413,4.0932-10.392,3.9045-14.25-0.375-3.8691-4.2926-3.6938-11.118,0.34375-15.188,4.0535-4.083,10.404-3.916,14.25,0.375,1.9347,2.1465,2.8743,4.9067,2.8125,7.6562z"/><path id="polygon80" fill="#d59f0f" d="m79.905,154.05,58.315,0,27.221,57.582-58.42,0z"/><path id="polygon82" fill="#d59f0f" d="m47.764,79.299,58.106,0,27.116,58.001-58.106,0z"/><path id="polygon84" fill="#d59f0f" d="m14.052,4.8614,58.106,0,27.116,58.106-58.106,0z"/><path id="path86" fill="#7d7d7d" d="m77.521,25.682c-1.62-2.14-4.66-2.56-6.8-0.95l-24.4,18.4-5.11-6.55c-1.6-2.05-4.57-2.42-6.63-0.815s-2.42,4.57-0.816,6.63l7.92,10.1c0.0272,0.0387,0.044,0.0817,0.0722,0.119,0.0398,0.0523,0.09,0.0911,0.131,0.141l0.0105,0.0126c0.0178,0.022,0.0398,0.0387,0.0576,0.0607,0.164,0.194,0.332,0.382,0.52,0.543,1.67,1.5,4.22,1.64,6.05,0.214,0.002-0.001,0.003-0.0032,0.005-0.0053,0.008-0.0062,0.0178-0.0094,0.0262-0.0168l28-21.1c2.14-1.62,2.57-4.66,0.952-6.8z"/><path id="path88" fill="#FFF" d="m77.421,22.082c-1.62-2.14-4.66-2.56-6.8-0.95l-24.4,18.4-5.11-6.55c-1.6-2.05-4.57-2.42-6.63-0.815s-2.42,4.57-0.816,6.63l7.92,10.1c0.0272,0.0387,0.044,0.0817,0.0722,0.119,0.0398,0.0523,0.09,0.0911,0.131,0.141l0.0105,0.0126c0.0178,0.022,0.0398,0.0387,0.0576,0.0607,0.164,0.194,0.332,0.382,0.52,0.543,1.67,1.5,4.22,1.64,6.05,0.214,0.002-0.001,0.003-0.0032,0.005-0.0053,0.008-0.0062,0.0178-0.0094,0.0262-0.0168l28-21.1c2.14-1.62,2.57-4.66,0.952-6.8z"/><path id="path90" fill="#7d7d7d" d="m110.82,99.682c-1.62-2.14-4.66-2.56-6.8-0.95l-24.4,18.4-5.11-6.55c-1.6-2.05-4.57-2.42-6.63-0.815s-2.42,4.57-0.816,6.63l7.92,10.1c0.0272,0.0387,0.044,0.0816,0.0722,0.119,0.0398,0.0523,0.09,0.091,0.131,0.141l0.0105,0.0126c0.0178,0.022,0.0398,0.0387,0.0576,0.0607,0.164,0.194,0.332,0.382,0.52,0.543,1.67,1.5,4.22,1.64,6.05,0.214,0.0021-0.001,0.0032-0.003,0.0053-0.005,0.0084-0.007,0.0178-0.01,0.0262-0.0167l28-21.1c2.14-1.62,2.57-4.66,0.952-6.8z"/><path id="path92" fill="#FFF" d="m110.82,96.082c-1.62-2.14-4.66-2.56-6.8-0.95l-24.4,18.4-5.11-6.55c-1.6-2.05-4.57-2.42-6.63-0.815s-2.42,4.57-0.816,6.63l7.92,10.1c0.0272,0.0387,0.044,0.0816,0.0722,0.119,0.0398,0.0523,0.09,0.0911,0.131,0.141l0.0105,0.0126c0.0178,0.022,0.0398,0.0387,0.0576,0.0607,0.164,0.194,0.332,0.382,0.52,0.543,1.67,1.5,4.22,1.64,6.05,0.214,0.0021-0.001,0.0032-0.003,0.0053-0.005,0.0084-0.007,0.0178-0.01,0.0262-0.0167l28-21.1c2.14-1.62,2.57-4.66,0.952-6.8z"/><path id="path94" fill="#7d7d7d" d="m143.82,173.98c-1.62-2.14-4.66-2.56-6.8-0.95l-24.4,18.4-5.11-6.55c-1.6-2.05-4.57-2.42-6.63-0.815s-2.42,4.57-0.816,6.63l7.92,10.1c0.0272,0.0387,0.044,0.0816,0.0722,0.119,0.0398,0.0523,0.09,0.091,0.131,0.141l0.0105,0.0126c0.0178,0.022,0.0398,0.0387,0.0576,0.0607,0.164,0.194,0.332,0.382,0.52,0.543,1.67,1.5,4.22,1.64,6.05,0.214,0.002-0.001,0.003-0.003,0.005-0.005,0.008-0.007,0.0178-0.01,0.0262-0.0168l28-21.1c2.14-1.62,2.57-4.66,0.952-6.8z"/><path id="path96" fill="#FFF" d="m143.82,169.98c-1.62-2.14-4.66-2.56-6.8-0.95l-24.4,18.4-5.11-6.55c-1.6-2.05-4.57-2.42-6.63-0.815s-2.42,4.57-0.816,6.63l7.92,10.1c0.0272,0.0387,0.044,0.0816,0.0722,0.119,0.0398,0.0523,0.09,0.091,0.131,0.141l0.0105,0.0126c0.0178,0.022,0.0398,0.0387,0.0576,0.0607,0.164,0.194,0.332,0.382,0.52,0.543,1.67,1.5,4.22,1.64,6.05,0.214,0.002-0.001,0.003-0.003,0.005-0.005,0.008-0.007,0.0178-0.01,0.0262-0.0167l28-21.1c2.14-1.62,2.57-4.66,0.952-6.8z"/><path id="path3812" fill-rule="nonzero" style="block-progression:tb;color:#000000;direction:ltr;text-indent:0;text-align:start;enable-background:accumulate;text-transform:none;" fill="#efbf54" d="m13.241,4.3379,0.32717,0.75249,27.122,58.106,0.13087,0.29445,0.35989,0,58.106,0,0.81793,0-0.35989-0.75249-27.122-58.106-0.13087-0.29445-0.32717,0-58.106,0-0.81793,0zm1.6359,1.0469,56.928,0,26.632,57.059-56.928,0-26.632-57.059z"/><path id="path3818" fill-rule="nonzero" style="block-progression:tb;color:#000000;direction:ltr;text-indent:0;text-align:start;enable-background:accumulate;text-transform:none;" fill="#efbf54" d="m46.939,78.769,0.35989,0.75249,27.122,58.007,0.13087,0.29445,0.32717,0,58.106,0,0.81793,0-0.35989-0.75249-27.09-58.007-0.16359-0.29445-0.32717,0-58.106,0-0.81793,0zm1.6686,1.0469,56.928,0,26.632,56.96-56.96,0-26.599-56.96z"/><path id="path3824" fill-rule="nonzero" style="block-progression:tb;color:#000000;direction:ltr;text-indent:0;text-align:start;enable-background:accumulate;text-transform:none;" fill="#efbf54" d="m79.068,153.53,0.35989,0.75249,27.122,57.582,0.13087,0.29445,0.32717,0,58.433,0,0.81793,0-0.35989-0.75249-27.221-57.582-0.13087-0.29445-0.32717,0-58.302,0-0.85064,0zm1.6686,1.0469,57.157,0,26.73,56.535-57.255,0-26.632-56.535z"/></svg>