<?xml version="1.0" encoding="UTF-8" standalone="no"?>
<svg
   xmlns:svg="http://www.w3.org/2000/svg"
   xmlns="http://www.w3.org/2000/svg"
   xmlns:xlink="http://www.w3.org/1999/xlink"
   xmlns:sodipodi="http://sodipodi.sourceforge.net/DTD/sodipodi-0.dtd"
   xmlns:inkscape="http://www.inkscape.org/namespaces/inkscape"
   id="svg2"
   enable-background="new -0.792 -0.569 190 204"
   xml:space="preserve"
   height="219"
   width="219"
   version="1.1"
   y="0px"
   x="0px"
   viewBox="-0.792 -0.569 219 219"
   inkscape:version="0.47 r22583"
   sodipodi:docname="server.svg"><sodipodi:namedview
     pagecolor="#ffffff"
     bordercolor="#666666"
     borderopacity="1"
     objecttolerance="10"
     gridtolerance="10"
     guidetolerance="10"
     inkscape:pageopacity="0"
     inkscape:pageshadow="2"
     inkscape:window-width="1254"
     inkscape:window-height="725"
     id="namedview88"
     showgrid="false"
     inkscape:zoom="2.1826484"
     inkscape:cx="109.5"
     inkscape:cy="109.5"
     inkscape:window-x="0"
     inkscape:window-y="0"
     inkscape:window-maximized="0"
     inkscape:current-layer="svg2" /><defs
     id="defs4"><linearGradient
       id="linearGradient4039"
       y2="118.08"
       gradientUnits="userSpaceOnUse"
       x2="31.204"
       gradientTransform="matrix(0.76397363,0,0,0.93890298,27.706059,5.134071)"
       y1="171.93"
       x1="98.755"><stop
         id="stop4035"
         stop-color="#5b5b5b"
         offset="0" /><stop
         id="stop4037"
         stop-color="#5b5b5b"
         stop-opacity="0"
         offset="1" /></linearGradient><filter
       id="filter4640" /><linearGradient
       inkscape:collect="always"
       xlink:href="#linearGradient4039"
       id="linearGradient2960"
       gradientUnits="userSpaceOnUse"
       gradientTransform="matrix(0.76397363,0,0,0.93890298,27.706059,5.134071)"
       x1="98.755"
       y1="171.93"
       x2="31.204"
       y2="118.08" /></defs><path
     transform="matrix(0.76397363,0,0,0.93890298,30.568476,9.543577)"
     style="fill:#b6b8ba"
     d="M 60.856,1.049 14.489,32.715 142.4,33.383 187.46,1.049 z"
     id="polygon243_1_" /><path
     transform="matrix(0.76397363,0,0,0.93890298,30.568476,9.543577)"
     style="fill:#999999"
     d="M 142.4,32.377 143.1,201.79 187.22,169.52 187.7,1.231 z"
     id="polygon245_1_" /><path
     transform="matrix(0.76397363,0,0,0.93890298,30.568476,9.543577)"
     style="fill:#c9c9c9"
     d="M 142.4,33.383 14.489,32.715 13.778,202.13 143.1,202.8 z"
     id="polygon247_1_" /><path
     transform="matrix(0.76397363,0,0,0.93890298,30.568476,9.543577)"
     style="fill:#e0e0e0;stroke:#232323"
     d="M 27.125,194.33 26.989,43.729 129.62,43.221 130.43,194.63 z"
     id="polygon249_1_" /><path
     transform="matrix(0.76397363,0,0,0.93890298,30.568476,9.543577)"
     style="fill:none;stroke:#000000"
     d="M 143.11,202.39 188.25,169.83 188.19,0.5 60.37,0.683 14.492,32.31 13.78,202.45 z"
     id="polygon255_1_" /><path
     transform="matrix(0.76397363,0,0,0.93890298,30.568476,9.543577)"
     style="fill:none;stroke:#000000"
     d="M 143.11,202.39 142.43,32.559 187.95,0.683"
     id="polyline257_1_" /><path
     style="fill:none;stroke:#000000;stroke-width:0.84693003"
     d="m 42.123001,40.255001 97.256999,0"
     id="line259_1_" /><path
     style="fill:#605f5f"
     d="M 143.59,195.63 173.97,168.7 173.78,57.191 c 0,0 -1.0971,95.446 -30.191,138.44 z"
     id="path261_1_" /><path
     style="fill:#7c7c7c"
     d="m 172.66,12.416 -32.673,27.964 0.28037,81.059 c 0,0 -4.5846,-74.413 32.392,-109.02 z"
     id="path263_1_" /><path
     style="fill:#e2e2e2"
     d="m 134.14,10.614 -57.031,0.129 -24.46,20.586 c 0,0 38.762,-21.653 81.487,-20.715 z"
     id="path265_1_" /><path
     transform="matrix(0.76397363,0,0,0.93890298,30.568476,9.543577)"
     style="fill:none;stroke:#000000"
     d="m 23.049,26.629 127.821,0 1.32,169.561"
     id="polyline267_1_" /><path
     style="fill:#595959;stroke:#232323;stroke-width:1.08070004"
     d="m 57.594002,57.674999 62.191998,0 0,19.247999 -62.191998,0 0,-19.247999 z"
     id="rect250" /><path
     style="fill:url(#linearGradient2960);stroke:#232323;stroke-width:0.84693396"
     d="m 51.261,112.52 c 39.091,30.749 78.529,-0.70323 78.529,-0.70323 l 0.24523,80.589 -78.585,-0.0188 -0.18946,-79.867 z"
     id="path252" /><path
     style="fill:#595959;stroke:#ededed;stroke-width:1.69389999"
     d="m 63.133999,66.907997 27.248005,0"
     id="line254" /><path
     transform="matrix(0.76397363,0,0,0.93890298,30.568476,9.543577)"
     style="fill:#05a510"
     d="m 43.728998,84.088997 c 0,2.306893 -1.870106,4.177 -4.177,4.177 -2.306893,0 -4.177,-1.870107 -4.177,-4.177 0,-2.306894 1.870107,-4.177 4.177,-4.177 2.306894,0 4.177,1.870106 4.177,4.177 z"
     id="circle274" /><path
     transform="matrix(0.76397363,0,0,0.93890298,30.568476,9.543577)"
     style="fill:#e50a39"
     d="m 58.447999,84.091003 c 0,2.306342 -1.869658,4.176001 -4.176,4.176001 -2.306341,0 -4.176,-1.869659 -4.176,-4.176001 0,-2.306341 1.869659,-4.176 4.176,-4.176 2.306342,0 4.176,1.869659 4.176,4.176 z"
     id="circle276" /></svg>