<?xml version="1.0" encoding="UTF-8" standalone="no"?>
<svg id="svg2" xmlns:rdf="http://www.w3.org/1999/02/22-rdf-syntax-ns#" xmlns="http://www.w3.org/2000/svg" enable-background="new 27.15 45.083 219 219" xml:space="preserve" height="219px" width="219px" version="1.1" y="0px" x="0px" xmlns:cc="http://creativecommons.org/ns#" xmlns:xlink="http://www.w3.org/1999/xlink" viewBox="27.15 45.083 219 219" xmlns:dc="http://purl.org/dc/elements/1.1/"><metadata id="metadata300"><rdf:RDF><cc:Work rdf:about=""><dc:format>image/svg+xml</dc:format><dc:type rdf:resource="http://purl.org/dc/dcmitype/StillImage"/><dc:title/></cc:Work></rdf:RDF></metadata><defs id="defs4"><filter id="filter4125"><feGaussianBlur id="feGaussianBlur4127" stdDeviation="1.9530982"/></filter><linearGradient id="linearGradient4140" y2="97.265" gradientUnits="userSpaceOnUse" x2="101" y1="169.69" x1="173.19"><stop id="stop4049" stop-color="#bf8c05" offset="0"/><stop id="stop4051" stop-color="#ffbb28" offset="1"/></linearGradient></defs><g id="g4129" transform="matrix(1.0795967,0,0,1.0795967,-10.034583,-9.5017625)"><path id="path284-7" opacity="0.5" d="m234.37,72.367c-1.605,1.431-3.8515,2.1175-5.6875,3.3125-2.083,1.35-4.1252,2.8765-6.6562,3.9375-1.994,0.835-4.918,1.239-6.625,2.375-2.422,1.66-4.835,3.3128-7.25,4.9688-0.073-0.036-0.14475-0.05775-0.21875-0.09375-1.723,0.965-3.4655,1.9362-5.1875,2.9062-1.184,0.446-2.1218,0.516-3.0938,1.125-3.005,1.897-4.684,4.7208-7.25,6.9688-0.5247,0.4578-1.1222,0.89937-1.7188,1.3438l-0.15625-0.1875-3.8125,2.9062c-1.1045,0.71926-2.2138,1.4419-3.25,2.1562-0.19788,0.26115-0.3961,0.52019-0.59375,0.78125l-3.8438,3.0938c-0.38162,0.1099-0.7712,0.23845-1.1562,0.46875-0.99053,0.58556-1.7392,1.1738-2.5312,1.7188-0.0303,0.0209-0.0633,0.0417-0.0937,0.0625l-3.625,1.6875c-0.052-0.023-0.10403-0.0396-0.15625-0.0625-0.0787,0.0532-0.29441,0.20298-0.40625,0.28125l-6.1875,1.375-2.375-0.1875c-0.0244-0.0287-0.0381-0.065-0.0625-0.0937-0.35038-0.0394-0.6391-0.0407-0.9375,0l-0.59375-0.0312c-0.22194-0.47516-0.43206-0.96065-0.65625-1.4375,1.146-2.118,3.592-2.3002,4.375-3.5312,0.906-1.423-1.2228-6.9765-1.9688-8.1875,0.24-0.726,0.47675-1.4362,0.71875-2.1562-0.643-0.811-1.4398-1.596-2.5938-1.875-0.072-0.865-0.14675-1.7278-0.21875-2.5938-1.398-0.427-3.788-3.3378-3.625-4.3438-2.446-2.268-5.601-1.4962-8.5-0.53125-5.147,1.708-6.6505,1.4815-8.8125,6.3125-0.378,0.85-1.1982,2.6835-1.0312,3.9375,0.235,1.893,0.57175,4.3345,1.3438,5.8125,1.605,3.11,4.9528,5.3722,6.2188,8.9062,0.2396,0.66245,0.009,1.6971-0.375,2.8125l-9.1875,6.3438-2.3125,1.2188c-0.15184,0.0448-0.32271,0.097-0.46875,0.125-0.0323,0.0525-0.0625,0.10018-0.0937,0.15625l-0.40625,0.21875-0.9375,1.4062c-0.48741,0.0786-0.96689,0.16923-1.4375,0.28125l-13.344,1.375-0.96875,0.46875c-2.4812-0.15198-5.5809-0.33686-8.1875-0.40625-0.0759,0.15732-0.10866,0.28554-0.125,0.40625l-0.78125-0.0312,0.0625,0.875c-2.5431-0.26759-5.7682-0.96017-8.0938-0.40625-3.769,0.936-7.5122,1.8492-11.281,2.7812-1.659,0.101-3.334,0.2145-5,0.3125-2.07,0.414-4.1477,0.836-6.2188,1.25-2.644,0.417-5.3415-0.6755-7.4375-1.4375-2.318,0.067-4.6578,0.1215-6.9688,0.1875-0.343,0.345-0.49575,2.0468-0.09375,2.5938,1.173,2.075,3.2925,0.43775,5.0625,1.4688,0.558,0.515,1.1305,1.0162,1.6875,1.5312,0.975,0.61,2.545,0.44075,3.5,0.84375,0.957,0.407,2.3715,1.2098,3.4375,1.4688,1.584,0.377,3.79-1.13,6.125-0.75,2.817,0.46,9.9232,1.344,13.156,0.625,4.062-0.9057,8.2353-1.3605,12.875-1.4062l0.3125,3.8125,7.875,1.7812-0.8125-1.5312c0.01-0.0215,0.0217-0.041,0.0312-0.0625l2.2812,2.75,9.5312,2.0312,7.6562,3.4375,7.2812,4.1875,0.3125,10.938,3.1562,1.4688-0.28125,0.46875c-0.16161,0.21304-0.30083,0.39985-0.46875,0.625-0.003,0.004,0.007,0.0242,0,0.0312-1.2186,1.6398-2.5508,3.5474-3,5.125l-0.21875,0.375c-0.0632-0.0619-0.0916-0.1235-0.1875-0.21875-0.37672,0.30434-1.0196,1.5246-0.8125,2.1875l-0.8125,1.7188c-1.5527,1.4756-4.4289,2.3215-7.1875,3.2188l-1.9375,0.5625-1.5938,0.90625c-3.972,1.9684-7.9631,3.9344-11.938,5.9062-1.135,0.674-2.548,2.034-3.5,2.5-0.587,0.146-1.1962,0.26225-1.7812,0.40625-0.381,0.342-0.743,0.68925-1.125,1.0312-2.3661,0.7677-5.0524-0.004-7.3438,0.75-0.0191,0.006-0.0435-0.006-0.0625,0l-7.4375,2.4375c-0.27522,0.0203-0.54879,0.0394-0.8125,0.0312,0.0251,0.0704,0.037,0.14803,0.0625,0.21875l-0.375,0.125-16.031-0.75c-1.5919-0.45802-3.1263-0.95574-4.8125,0-0.5795,0.33055-1.2247,0.89709-1.875,1.4688l-1.7188,1.2188c-0.35865,0.15752-0.71535,0.25199-1.0625,0.1875-0.08654,0.12328-0.08831,0.35908-0.0625,0.625l-1.1562,0.8125v0.0312l-0.09375,0.0625,1.9375,13.312c-0.83753,0.51464-1.6647,1.0473-2.5,1.5625-1.295,0.768-2.789,0.78225-4.25,1.5312-0.629,0.323-0.93575,1.1058-1.4688,1.4688-0.929,0.379-1.8472,0.745-2.7812,1.125-1.687,1.007-3.638,2.2318-5.375,3.2188-3.189,1.799-6.1955,2.3055-8.3125,5.1875,0.034,0.183,0.06275,0.35825,0.09375,0.53125,0.174,0.102,0.35525,0.1985,0.53125,0.3125,0.802,0.352,1.367-0.238,1.75-0.625,0.037,0.037,0.091,0.0588,0.125,0.0937-0.143,0.409-0.2965,0.837-0.4375,1.25-2.777,1.227-3.5862,2.6695-2.1562,5.1875,0.037,0.521,0.05475,1.0405,0.09375,1.5625,0.273,0.139,0.56575,0.26625,0.84375,0.40625,0.483,0.838-0.46325,1.4002,0.71875,2.2812,3.088,0.569,3.8645-2.0092,5.8125-2.9062,0.66-0.141,1.3118-0.26925,1.9688-0.40625,0.692-0.769,1.3725-1.5415,2.0625-2.3125,1.933-1.517,3.8705-3.0162,5.8125-4.5312,1-1.074,2-2.1458,3-3.2188,0.738-0.523,1.732-0.691,2.5-1.25,1.2579-0.90267,2.0357-2.3884,3.0938-3.5938l0.1875,1.25,24.719-9.625,7.1563-3.2812,14.625-2,9-3.75,3.5312-0.1875,19.188-4.4688,9.5938-0.0312,18.688,7.125-0.21875,1.6562c-0.002,0.01,0.002,0.0215,0,0.0312-0.36638,1.4901-0.87375,2.9612-0.625,4.5312-1.242-0.889-2.3882-2.2582-4.0312-2.9062-4.587-1.809-4.9618,6.6255-6.3438,8.8125-1.169,1.104-2.328,2.2298-3.5,3.3438-1.366,1.023-3.8008,1.0122-5.0938,2.1562-0.07,0.208-0.14275,0.419-0.21875,0.625-1.364,0.777-3.5275-0.45175-4.4375,1.6562-0.033,0.352-0.0548,0.68325-0.0937,1.0312,0.038,0.065,0.0597,0.15175,0.0937,0.21875,1.953,1.309,4.2225-0.0683,6.9375,0.71875,1.909,0.541,4.1702-0.80075,6.0312-1.3438,6.251-1.807,11.12-3.958,16.688-6.125,0.35889-0.13972,0.68851-0.26363,1.0312-0.40625l1.0938,1,6.0625-0.78125,15.688-3.125,0.0937-0.0625,0.40625-0.28125,4.0312-2.9062,0.0312-0.0625,0.0312-0.0312,2.5-6.375-1.2188-1.9375c-0.81159-2.2882-2.3964-4.5969-3.2188-5.4375-2.6315-2.6963-7.0753-6.5703-11.875-9.5l-4.2188-3.4688-3.0938,0.0312c-1.808-0.54425-3.5748-0.8085-5.1875-0.65625,0.12621-0.3665-0.17448-0.5626-0.59375-0.75l-4.5-9.6875c-0.0217,0.009-0.0408,0.0224-0.0625,0.0312l1.5312-20.312,2.0625-16.188,1.375-5.5625,4.5-5.2812,3.125-9.1875,4.6562-3.0938-1.4375-7.9688c1.5402-1.3184,2.8296-3.0504,4.375-4.4062,0.722-0.346,1.4605-0.68525,2.1875-1.0312,2.192-1.659,4.9945-3.053,6.9375-5,2.903-3.177,5.8198-6.3542,8.7188-9.5312,0.899-0.243,1.7865-0.47875,2.6875-0.71875,2.215-1.142,4.413-2.2662,6.625-3.4062,0.312-0.483,0.6295-0.97975,0.9375-1.4688,1.417-1.173,2.831-2.3532,4.25-3.5312,0.342-0.619,0.68625-1.2248,1.0312-1.8438,0.735-0.746,2.1382-2.321,0.53125-3z" filter="url(#filter4125)" stroke-miterlimit="4" stroke-width="0" fill="#000"/><g id="g4055"><path id="path284" fill="#c6c6c6" d="m228.66,69.579c-1.605,1.431-3.861,2.122-5.697,3.317-2.083,1.35-4.111,2.878-6.642,3.939-1.994,0.835-4.921,1.246-6.628,2.382-2.422,1.66-4.841,3.321-7.256,4.977-0.073-0.036-0.14-0.069-0.214-0.105-1.723,0.965-3.456,1.936-5.178,2.906-1.184,0.446-2.144,0.529-3.116,1.138-3.005,1.897-4.688,4.7-7.254,6.948-2.502,2.183-5.98,4.194-8.916,6.218-0.76,1.003-1.517,2.005-2.281,3.009-0.963,0.804-2.151,0.652-3.313,1.347-2.057,1.216-3.16,2.405-5.494,3.315-0.157,0.387-0.176,0.119,0,0.413v0.106c-0.314-0.141-0.622-0.28-0.935-0.417-0.707,0.478-2.926,2.114-3.527,2.28-0.591,0.17-1.924-0.901-3.107-0.411-0.279,0.115-0.488,0.693-1.244,0.828-0.38-0.447-0.758-0.9-1.14-1.349-0.543-0.061-0.9-0.003-1.454,0.103-0.242-0.517-0.481-1.035-0.725-1.554,1.146-2.118,3.569-2.294,4.352-3.525,0.906-1.423-1.221-6.979-1.967-8.19,0.24-0.726,0.484-1.454,0.726-2.174-0.643-0.811-1.436-1.589-2.59-1.868-0.072-0.865-0.14-1.728-0.212-2.594-1.398-0.427-3.787-3.347-3.624-4.353-2.446-2.268-5.602-1.481-8.501-0.516-5.147,1.708-6.655,1.49-8.817,6.321-0.378,0.85-1.196,2.686-1.029,3.94,0.235,1.893,0.571,4.322,1.343,5.8,1.605,3.11,4.955,5.386,6.221,8.92,0.591,1.634-1.718,5.405-1.976,7.569-2.071,0.884-3.109,2.307-4.658,3.212v0.205c-0.614-0.498-0.754-1.211-1.556-1.552-1.013-0.409-2.742,0.767-4.148,1.037-0.327,0.532-0.621,1.278-0.518,1.658-2.682,0.263-5.043,1.274-7.461,1.762-1.106,0.033-2.214,0.066-3.322,0.103-0.482,0.205-0.965,0.414-1.444,0.621-0.496,0.022-1.666-0.693-2.596-0.724-0.551,0.171-1.109,0.346-1.661,0.517-2.507-0.154-5.729-0.343-8.396-0.414-0.249,0.516-0.147,0.754,0.106,1.246v0.099c-2.648-0.137-6.396-1.141-9.02-0.516-3.769,0.936-7.533,1.87-11.302,2.802-1.659,0.101-3.315,0.208-4.981,0.306-2.07,0.414-4.142,0.831-6.213,1.245-2.644,0.417-5.368-0.688-7.464-1.45-2.318,0.067-4.633,0.139-6.944,0.205-0.343,0.345-0.508,2.047-0.106,2.594,1.173,2.075,3.308,0.422,5.078,1.453,0.558,0.515,1.107,1.035,1.664,1.55,0.975,0.61,2.567,0.429,3.522,0.832,0.957,0.407,2.353,1.197,3.419,1.456,1.584,0.377,3.786-1.11,6.121-0.73,2.817,0.46,9.925,1.344,13.158,0.625,4.301-0.959,8.711-1.46,13.685-1.452,0.177,1.208,0.348,2.417,0.521,3.623,1.886-0.014,3.503,0.625,5.904,0.833,0.104-0.241,0.214-0.484,0.318-0.724,1.151,0.122,1.961,1.454,3.005,1.865,2.956,1.162,8.63,3.094,10.473,2.488,0.911-0.301,2.377,0.456,2.797-0.208,0.44,0.25,0.175-0.021,0.206,0.519,0.549,0.068,1.104,0.138,1.658,0.202,0.494,3.146,7.775,4.724,9.02,7.47,1.017,2.245,0.003,10.428,0.31,10.784,0.002,0.694,1.945,1.355,3.008,1.347,0.032,0.029,0.067,0.07,0.104,0.103-0.371,0.497-0.804,1.057-1.25,1.655h0.003c-0.003,0.004-0.005,0.009-0.012,0.016-1.337,1.799-2.802,3.932-3.098,5.584-0.18-0.127-0.169-0.168-0.31-0.308-0.484,0.391-1.421,2.319-0.409,2.595v0.308c-0.354,0.223-0.008,0.038-0.42,0-1.341,2.537-6.075,3.5-9.846,4.87-4.525,2.24-9.056,4.494-13.585,6.741-1.135,0.674-2.572,2.021-3.524,2.487-0.587,0.146-1.176,0.272-1.761,0.416-0.381,0.342-0.758,0.69-1.14,1.032-2.629,0.853-5.647-0.217-8.087,1.044-1.494,0.76-4.894,2.258-7.571,2.175,0.036,0.101,0.071,0.203,0.109,0.304-0.375,0.078-0.739,0.205-1.102,0.333,0.19,0.073,0.104,0,0.272,0.19-0.284-0.121-0.179-0.046-0.297-0.18-0.572,0.188-1.133,0.392-1.672,0.487-0.135-0.308-0.473-0.479-0.895-0.592,0.021,0.064,0.041,0.12,0.062,0.186-0.104,0.024-0.209,0.062-0.314,0.099,0.031-0.117,0.059-0.22,0.087-0.333-1.757-0.344-5.117,0.49-6.821,0.849-0.428,0.092-1.717-0.432-2.383-0.516-0.423-0.055-1.437,0.104-1.87-0.203-0.434-0.252-0.319-0.383-0.416-0.731-2.013-0.422-3.835-1.492-5.908-0.317-1.406,0.802-3.118,3.193-4.663,2.906-0.391,0.557,0.586,2.935,0.932,3.836,0.417,1.102,1.527,3.222,1.556,4.562-0.142,0.276-0.277,0.556-0.415,0.825,0.038,1.555,0.067,3.12,0.103,4.672-1.346,0.829-2.696,1.656-4.04,2.485-1.295,0.768-2.796,0.808-4.257,1.557-0.629,0.323-0.919,1.092-1.452,1.455-0.929,0.379-1.86,0.757-2.794,1.137-1.687,1.007-3.651,2.227-5.388,3.214-3.189,1.799-6.177,2.295-8.294,5.177,0.034,0.183,0.069,0.351,0.1,0.524,0.174,0.102,0.346,0.201,0.522,0.315,0.802,0.352,1.376-0.244,1.759-0.631,0.037,0.037,0.074,0.072,0.108,0.107-0.143,0.409-0.279,0.834-0.42,1.247-2.777,1.227-3.606,2.661-2.176,5.179,0.037,0.521,0.067,1.038,0.106,1.56,0.273,0.139,0.549,0.271,0.827,0.411,0.483,0.838-0.455,1.397,0.727,2.278,3.088,0.569,3.856-2.004,5.804-2.901,0.66-0.141,1.316-0.272,1.973-0.409,0.692-0.769,1.383-1.517,2.073-2.288,1.933-1.517,3.867-3.038,5.809-4.553,1-1.074,2.001-2.146,3.001-3.219,0.738-0.523,1.72-0.688,2.488-1.247,1.884-1.352,2.698-4.023,4.976-5.079,6.836-3.157,14.648-4.98,22.395-7.467,2.542-0.807,5.14-2.649,7.874-3.312,5.422-1.314,11.395-1.347,16.486-2.895,2.111-0.88,4.213-1.738,6.321-2.599,1.566-0.501,3.19-0.311,4.978-0.83,4.204-1.228,8.906-2.652,13.582-3.839,2.304-0.583,4.633-0.189,7.258-0.621,2.246-0.362,5.266-0.472,7.564,0,1.9,0.831,3.8,1.667,5.699,2.485,4.249,1.526,8.508,3.037,12.754,4.569,0.228,2.474-1.332,4.745-0.934,7.257-1.242-0.889-2.397-2.259-4.04-2.907-4.587-1.809-4.943,6.624-6.325,8.811-1.169,1.104-2.352,2.213-3.524,3.327-1.366,1.023-3.787,1.023-5.08,2.167-0.07,0.208-0.135,0.42-0.211,0.626-1.364,0.777-3.545-0.459-4.455,1.649-0.033,0.352-0.064,0.698-0.103,1.046,0.038,0.065,0.069,0.142,0.103,0.209,1.953,1.309,4.229-0.061,6.944,0.726,1.909,0.541,4.157-0.813,6.018-1.356,6.251-1.807,11.119-3.944,16.686-6.111,1.834-0.714,3.37-1.52,5.498-1.864,0.897-0.153,1.724,0.566,2.275,0.411,0.109-0.2,0.211-0.411,0.314-0.628,0.358-0.332,7.131-1.15,7.983-1.344,0.898,0.04,1.795,0.07,2.694,0.109,2.816-0.608,6.529-1.556,8.192-3.421,0.386-0.436,3.004-4.253,3.004-4.253,1.331-2.717-2.069-8.051-3.42-9.432-4.951-5.073-16.359-14.334-24.367-13.578,0.302-0.877-1.856-0.806-2.175-1.87-0.101-0.34,0.193-1.062-0.102-1.658-1.275-1.83-2.555-3.663-3.835-5.495-0.422-0.905,0.794-1.852,0.2-2.692-0.328-0.481-0.552-1.155-0.304-1.661-0.281-0.386-0.127-0.258-0.518-0.307,0.061-0.21,0.405-0.4,0-0.624,0.033-0.242,0.066-0.489,0.105-0.727,0.309-1.73,0.621-3.454,0.935-5.184,1-3.323,1.3-7.292,1.961-11.402,0.107-2.666,0.214-5.328,0.317-7.983,0.619-2.489,1.239-4.978,1.862-7.466,0.069-1.555,0.143-3.108,0.211-4.66,0.514-2.209,3.598-4.224,4.974-6.124,1.669-2.297,2.532-6.42,2.699-10.052,0.794,0.083,1.359-0.77,2.067-1.038,0.553-0.105,1.105-0.207,1.663-0.31,2.052-1.218,1.165-6.412,0.411-8.604,1.621-1.335,2.962-3.152,4.568-4.561,0.722-0.346,1.446-0.691,2.173-1.037,2.192-1.659,5.002-3.032,6.945-4.979,2.903-3.177,5.808-6.359,8.707-9.536,0.899-0.243,1.794-0.484,2.695-0.724,2.215-1.142,4.423-2.283,6.635-3.423,0.312-0.483,0.625-0.964,0.933-1.453,1.417-1.173,2.831-2.347,4.25-3.525,0.342-0.619,0.693-1.245,1.038-1.864,0.735-0.746,2.13-2.32,0.523-2.999z" stroke="#636363"/><path id="path286" fill="url(#linearGradient4140)" d="m154.94,110.37,4.213,0.341,6.374-1.399,6.529-3.109,5.596-4.508,7.151-5.441,5.537,7.185,1.459,8.05-4.664,3.108-3.109,9.172-4.509,5.285-1.362,5.582-2.058,16.182-1.554,20.364,5.184,11.15,8.186-0.113,16.012,13.214,4.508,7.151-2.487,6.373-4.508,3.265-15.701,3.109-6.062,0.777-8.241-7.618,0.946-7.354-18.7-7.148-9.604,0.046-19.18,4.473-3.518,0.19-9.016,3.731-14.612,2.021-7.152,3.265-24.716,9.638-1.284-7.918-1.981-13.534,6.374-4.508,20.365,0.933,8.55-2.799,6.509,0.051,20.852-11.555,8.55-2.486,2.005-4.342,4.415-7.353-3.153-1.468-0.314-10.927-7.288-4.208-7.635-3.416-9.552-2.054-2.417-2.921,0.914,1.765-7.848-1.777-1.155-13.744,8.398,0.387,1.686-0.821,14.637-1.511,1.09-1.555,3.265-1.709,9.482-6.529c-0.003,0,8.359,2.894,14.593-2.983z" stroke="#636363"/><path id="path288" fill="#939393" d="m174.62,171.11,5.184,11.149,8.186-0.113,16.012,13.215,4.508,7.15-2.487,6.374-4.508,3.265-15.7,3.108-6.063,0.777-8.241-7.618,0.946-7.353-18.7-7.148-9.604,0.045-19.178,4.473-3.519,0.191-9.017,3.73-14.612,2.021-7.15,3.265-24.718,9.639-1.283-7.919-1.981-13.533,6.374-4.51,20.365,0.934,8.55-2.799,6.508,0.051,20.853-11.555,8.55-2.486,2.005-4.342c-0.005,0,20.299,7.529,38.72-0.011z" stroke="#636363"/><path id="path290" fill="#d59f0f" d="m138.48,125.17s6.839,4.042,7.461,13.059" stroke="#b5851c"/><path id="path292" fill="#d59f0f" d="m159,118.95s-0.932,9.949,4.354,16.167" stroke="#b5851c"/><path id="path294" fill="#939393" d="m104.49,189.5s-4.021,3.681-3.554,6.013" stroke="#636363"/><path id="path296" fill="#939393" d="m172.46,201.06s12.349,4.944,15.769,3.078" stroke="#636363"/></g></g></svg>