<?xml version="1.0" encoding="UTF-8" standalone="no"?>
<svg
   xmlns:dc="http://purl.org/dc/elements/1.1/"
   xmlns:cc="http://creativecommons.org/ns#"
   xmlns:rdf="http://www.w3.org/1999/02/22-rdf-syntax-ns#"
   xmlns:svg="http://www.w3.org/2000/svg"
   xmlns="http://www.w3.org/2000/svg"
   xmlns:xlink="http://www.w3.org/1999/xlink"
   xmlns:sodipodi="http://sodipodi.sourceforge.net/DTD/sodipodi-0.dtd"
   xmlns:inkscape="http://www.inkscape.org/namespaces/inkscape"
   height="219"
   width="219"
   version="1.1"
   id="svg2"
   inkscape:version="0.47 r22583"
   sodipodi:docname="application.svg"><metadata
   id="metadata22">
  <rdf:RDF>
    <cc:Work
       rdf:about="">
      <dc:format>image/svg+xml</dc:format>
      <dc:type
         rdf:resource="http://purl.org/dc/dcmitype/StillImage" />
    </cc:Work>
  </rdf:RDF>
</metadata>
<sodipodi:namedview
   pagecolor="#000000"
   bordercolor="#666666"
   borderopacity="1"
   objecttolerance="10"
   gridtolerance="10"
   guidetolerance="10"
   inkscape:pageopacity="0"
   inkscape:pageshadow="2"
   inkscape:window-width="1600"
   inkscape:window-height="1178"
   id="namedview88"
   showgrid="false"
   inkscape:zoom="2.2161461"
   inkscape:cx="48.563319"
   inkscape:cy="108.83195"
   inkscape:window-x="1272"
   inkscape:window-y="-8"
   inkscape:window-maximized="1"
   inkscape:current-layer="svg2" />







x=&quot;0px&quot;
   y=&quot;0px&quot;
   width=&quot;219px&quot;
   height=&quot;219px&quot;
   viewBox=&quot;0 0 219 219&quot;
   enable-background=&quot;new 0 0 219 219&quot;

 <defs
   id="defs4">
  <linearGradient
     id="linearGradient3664">
    <stop
       style="stop-color:#0000ff;stop-opacity:0;"
       offset="0"
       id="stop3666" />
    <stop
       id="stop3668"
       offset="0.20762333"
       style="stop-color:#0000ff;stop-opacity:0.09803922;" />
    <stop
       id="stop3670"
       offset="0.32430306"
       style="stop-color:#00ff00;stop-opacity:0.09803922;" />
    <stop
       id="stop3672"
       offset="0.49649313"
       style="stop-color:#ffff00;stop-opacity:0.09803922;" />
    <stop
       id="stop3674"
       offset="0.63897055"
       style="stop-color:#ff0000;stop-opacity:0.09803922;" />
    <stop
       style="stop-color:#ff0000;stop-opacity:0;"
       offset="1"
       id="stop3676" />
  </linearGradient>
  <linearGradient
     id="linearGradient3642">
    <stop
       id="stop3644"
       offset="0"
       style="stop-color:#0000ff;stop-opacity:0;" />
    <stop
       style="stop-color:#0000ff;stop-opacity:0.09803922;"
       offset="0.0625"
       id="stop3662" />
    <stop
       style="stop-color:#00ff00;stop-opacity:0.09803922;"
       offset="0.125"
       id="stop3660" />
    <stop
       style="stop-color:#ffff00;stop-opacity:0.09803922;"
       offset="0.25"
       id="stop3658" />
    <stop
       style="stop-color:#ff0000;stop-opacity:0.09803922;"
       offset="0.5"
       id="stop3648" />
    <stop
       id="stop3646"
       offset="1"
       style="stop-color:#ff0000;stop-opacity:0;" />
  </linearGradient>
  <linearGradient
     id="linearGradient3768">
    <stop
       style="stop-color:#0000ff;stop-opacity:0;"
       offset="0"
       id="stop3770" />
    <stop
       id="stop3772"
       offset="0.5"
       style="stop-color:#0000ff;stop-opacity:0.09803922;" />
    <stop
       style="stop-color:#0000ff;stop-opacity:0;"
       offset="1"
       id="stop3774" />
  </linearGradient>
  <linearGradient
     id="linearGradient3760">
    <stop
       id="stop3762"
       offset="0"
       style="stop-color:#00ff00;stop-opacity:0;" />
    <stop
       style="stop-color:#00ff00;stop-opacity:0.19607843;"
       offset="0.5"
       id="stop3764" />
    <stop
       id="stop3766"
       offset="1"
       style="stop-color:#00ff00;stop-opacity:0;" />
  </linearGradient>
  <linearGradient
     id="linearGradient3748">
    <stop
       style="stop-color:#00ff00;stop-opacity:0;"
       offset="0"
       id="stop3750" />
    <stop
       id="stop3752"
       offset="0.5"
       style="stop-color:#00ff00;stop-opacity:0.09803922;" />
    <stop
       style="stop-color:#00ff00;stop-opacity:0;"
       offset="1"
       id="stop3754" />
  </linearGradient>
  <linearGradient
     id="linearGradient3735">
    <stop
       id="stop3737"
       offset="0"
       style="stop-color:#ffff00;stop-opacity:0;" />
    <stop
       style="stop-color:#ffff00;stop-opacity:0.09803922;"
       offset="0.5"
       id="stop3739" />
    <stop
       id="stop3741"
       offset="1"
       style="stop-color:#ffff00;stop-opacity:0;" />
  </linearGradient>
  <linearGradient
     id="linearGradient3629">
    <stop
       style="stop-color:#ff0000;stop-opacity:0;"
       offset="0"
       id="stop3631" />
    <stop
       id="stop3637"
       offset="0.5"
       style="stop-color:#ff0000;stop-opacity:0.09821428;" />
    <stop
       style="stop-color:#ff0000;stop-opacity:0;"
       offset="1"
       id="stop3633" />
  </linearGradient>
  <inkscape:perspective
     sodipodi:type="inkscape:persp3d"
     inkscape:vp_x="0 : 109.5 : 1"
     inkscape:vp_y="0 : 1000 : 0"
     inkscape:vp_z="219 : 109.5 : 1"
     inkscape:persp3d-origin="109.5 : 73 : 1"
     id="perspective24" />
  <linearGradient
     id="linearGradient5241">
    <stop
       stop-color="#7c7c7c"
       offset="0"
       id="stop8" />
    <stop
       stop-color="#c6c6c6"
       offset="1"
       id="stop10" />
  </linearGradient>
  <linearGradient
     id="linearGradient3284"
     x1="390.2"
     spreadMethod="reflect"
     gradientUnits="userSpaceOnUse"
     y1="473.8"
     x2="213.7"
     y2="368.7">
    <stop
       stop-color="#6f6f6f"
       offset="0"
       id="stop14" />
    <stop
       stop-color="#f5f5f5"
       offset="1"
       id="stop16" />
  </linearGradient>
  <linearGradient
     inkscape:collect="always"
     xlink:href="#linearGradient3284"
     id="linearGradient3708"
     gradientUnits="userSpaceOnUse"
     spreadMethod="reflect"
     x1="390.2"
     y1="473.8"
     x2="213.7"
     y2="368.7"
     gradientTransform="matrix(0.49330515,0,0,0.49330515,-75.823499,-123.84818)" />
  <linearGradient
     inkscape:collect="always"
     xlink:href="#linearGradient5241"
     id="linearGradient3753"
     x1="539.03125"
     y1="423.84375"
     x2="434.03125"
     y2="318.84375"
     gradientUnits="userSpaceOnUse"
     gradientTransform="translate(-325.92592,-208.96396)" />
  <linearGradient
     inkscape:collect="always"
     xlink:href="#linearGradient3629"
     id="linearGradient3635"
     x1="362.64508"
     y1="100.99343"
     x2="393.36383"
     y2="100.99343"
     gradientUnits="userSpaceOnUse"
     gradientTransform="matrix(0.96592583,-0.25881905,0.25881905,0.96592583,-283.15704,110.16939)" />
  <linearGradient
     inkscape:collect="always"
     xlink:href="#linearGradient3735"
     id="linearGradient3733"
     gradientUnits="userSpaceOnUse"
     gradientTransform="matrix(0.90630778,-0.42261826,0.42261826,0.90630778,-277.17459,178.09615)"
     x1="362.64508"
     y1="100.99343"
     x2="393.36383"
     y2="100.99343" />
  <linearGradient
     inkscape:collect="always"
     xlink:href="#linearGradient3748"
     id="linearGradient3746"
     gradientUnits="userSpaceOnUse"
     gradientTransform="matrix(0.81915204,-0.57357643,0.57357643,0.81915204,-259.48097,243.95219)"
     x1="362.64508"
     y1="100.99343"
     x2="393.36383"
     y2="100.99343" />
  <linearGradient
     inkscape:collect="always"
     xlink:href="#linearGradient3768"
     id="linearGradient3758"
     gradientUnits="userSpaceOnUse"
     gradientTransform="matrix(0.70710678,-0.70710678,0.70710678,0.70710678,-230.61549,305.72848)"
     x1="362.64508"
     y1="100.99343"
     x2="393.36383"
     y2="100.99343" />
  <linearGradient
     inkscape:collect="always"
     xlink:href="#linearGradient3664"
     id="linearGradient3688"
     x1="-103.06042"
     y1="167.63292"
     x2="-28.059572"
     y2="123.86324"
     gradientUnits="userSpaceOnUse"
     gradientTransform="translate(181.84722,-37.00117)" />
  <filter
     inkscape:collect="always"
     id="filter3714">
    <feGaussianBlur
       inkscape:collect="always"
       stdDeviation="2.8267969"
       id="feGaussianBlur3716" />
  </filter>
</defs>
<path
   style="color:#000000;fill:url(#linearGradient3708)"
   d="m 108.08067,4.855128 c -57.914035,0 -104.975345,47.061311 -104.975345,105.024672 0,57.96335 47.03664,105.02466 104.975345,105.02466 57.96335,0 105.02466,-47.05145 105.02466,-105.02466 0,-57.973228 -47.05145,-104.975345 -105.02466,-104.975345 z m 0,78.928818 c 14.39464,0 26.08597,11.676543 26.08597,26.066244 0,14.39465 -11.69133,26.08598 -26.08597,26.08598 -14.394655,0 -26.066245,-11.69133 -26.066245,-26.08598 0,-14.394641 11.67652,-26.066244 26.066245,-26.066244 z"
   id="maindisk" />
<path
   style="color:#000000;fill:#ffffff;fill-opacity:1;fill-rule:nonzero;stroke:none;stroke-width:1;marker:none;visibility:visible;display:inline;overflow:visible;enable-background:accumulate"
   d="m 108.10533,83.332919 c -14.665937,0 -26.562504,11.896559 -26.562504,26.562501 0,14.66593 11.896567,26.53125 26.562504,26.53125 14.66594,0 26.5625,-11.86532 26.5625,-26.53125 0,-14.665942 -11.89656,-26.562501 -26.5625,-26.562501 z m 0,7.0625 c 10.76956,0 19.5,8.73044 19.5,19.500001 0,10.76956 -8.73044,19.5 -19.5,19.5 -10.769569,0 -19.500004,-8.73044 -19.500004,-19.5 0,-10.769561 8.730435,-19.500001 19.500004,-19.500001 z"
   id="whiteouter" />
<path
   style="color:#000000;fill:#b7b6b6;fill-opacity:1;fill-rule:nonzero;stroke:none;stroke-width:1;marker:none;visibility:visible;display:inline;overflow:visible;enable-background:accumulate"
   d="m 108.10533,90.879788 c -10.493415,0 -19.000005,8.506601 -19.000005,19.000002 0,10.49342 8.50659,19.00001 19.000005,19.00001 10.49341,0 19,-8.50659 19,-19.00001 0,-10.493401 -8.50659,-19.000002 -19,-19.000002 z m 0,3.437501 c 8.58803,0 15.5625,6.974481 15.5625,15.562501 0,8.58805 -6.97447,15.53126 -15.5625,15.53126 -8.588035,0 -15.531255,-6.94321 -15.531255,-15.53126 0,-8.58802 6.94322,-15.562501 15.531255,-15.562501 z"
   id="mediumgrey" />
<path
   style="color:#000000;fill:#eaeaea;fill-opacity:1;fill-rule:nonzero;stroke:none;stroke-width:1;marker:none;visibility:visible;display:inline;overflow:visible;enable-background:accumulate"
   d="m 108.12095,94.317288 c -8.588026,0 -15.562496,6.974482 -15.562496,15.562502 0,8.58805 6.97447,15.56251 15.562496,15.56251 8.58803,0 15.53125,-6.97446 15.53125,-15.56251 0,-8.58802 -6.94322,-15.562502 -15.53125,-15.562502 z m 0,1.21875 c 7.9253,0 14.34375,6.418472 14.34375,14.343752 0,7.92531 -6.41845,14.34376 -14.34375,14.34376 -7.92529,0 -14.343746,-6.41845 -14.343746,-14.34376 0,-7.92528 6.418456,-14.343752 14.343746,-14.343752 z"
   id="whiteinner" />
<path
   style="color:#000000;fill:#dddddd;fill-opacity:1;fill-rule:nonzero;stroke:none;stroke-width:1;marker:none;visibility:visible;display:inline;overflow:visible;enable-background:accumulate"
   d="m 108.0897,95.536038 c -7.92529,0 -14.343746,6.418472 -14.343746,14.343752 0,7.92531 6.418456,14.34376 14.343746,14.34376 7.9253,0 14.375,-6.41845 14.375,-14.34376 0,-7.92528 -6.4497,-14.343752 -14.375,-14.343752 z m 0,5.250002 c 5.02579,0 9.125,4.06797 9.125,9.09375 0,5.02581 -4.09921,9.09376 -9.125,9.09376 -5.02578,0 -9.093746,-4.06795 -9.093746,-9.09376 0,-5.02578 4.067966,-9.09375 9.093746,-9.09375 z"
   id="lightgrey" />
<path
   style="color:#000000;fill:#3a3a3a;fill-opacity:1;fill-rule:nonzero;stroke:none;stroke-width:1;marker:none;visibility:visible;display:inline;overflow:visible;enable-background:accumulate"
   d="m 108.0897,100.77042 c -5.0258,0 -9.093746,4.06797 -9.093746,9.09375 0,5.0258 4.067946,9.125 9.093746,9.125 5.02579,0 9.125,-4.0992 9.125,-9.125 0,-5.02578 -4.09922,-9.09375 -9.125,-9.09375 z m 0,1.09375 c 4.41827,0 8,3.58174 8,8 0,4.41828 -3.58173,8 -8,8 -4.41827,0 -8,-3.58172 -8,-8 0,-4.41826 3.58173,-8 8,-8 z"
   id="blackhole" />
<path
   style="color:#000000;fill:#ffffff;fill-opacity:0.32352941;fill-rule:nonzero;stroke:none;stroke-width:1;marker:none;visibility:visible;display:inline;overflow:visible;enable-background:accumulate"
   d="m 108.10533,71.752198 c -21.057301,0 -38.127595,17.070304 -38.127595,38.127602 0,21.05731 17.070294,38.12759 38.127595,38.12759 21.05732,0 38.12759,-17.07028 38.12759,-38.12759 0,-21.057298 -17.07027,-38.127602 -38.12759,-38.127602 z m 0,9.393752 c 15.86929,0 28.73383,12.864636 28.73383,28.73385 0,15.86927 -12.86454,28.73384 -28.73383,28.73384 -15.869286,0 -28.733842,-12.86457 -28.733842,-28.73384 0,-15.869214 12.864556,-28.73385 28.733842,-28.73385 z"
   id="translucentring" />
<path
   style="color:#000000;fill:#000000;fill-opacity:1;fill-rule:nonzero;stroke:none;stroke-width:1;marker:none;visibility:visible;display:inline;overflow:visible;enable-background:accumulate"
   d="m 108.10533,90.379788 c -10.769575,0 -19.500005,8.730453 -19.500005,19.500012 0,10.76956 8.73043,19.5 19.500005,19.5 10.76955,0 19.5,-8.73044 19.5,-19.5 0,-10.769559 -8.73045,-19.500012 -19.5,-19.500012 z m 0,0.75 c 10.35534,0 18.75,8.39466 18.75,18.750012 0,10.35535 -8.39466,18.75 -18.75,18.75 -10.355364,0 -18.750005,-8.39465 -18.750005,-18.75 0,-10.355352 8.39465,-18.750012 18.750005,-18.750012 z"
   id="blackring" />
<path
   style="fill:url(#linearGradient3688);fill-opacity:1;stroke:none;filter:url(#filter3714)"
   d="M 95.375,6.0762339 C 66.360386,9.5861729 40.950926,24.954697 24.187496,47.201234 L 84.65625,98.888728 c 4.236235,-8.66815 13.144849,-14.65625 23.4375,-14.65625 0.92066,0 1.82256,0.0318 2.71875,0.125 L 95.375,6.0762339 z M 131.0625,122.66998 c -4.40541,8.1564 -13.02936,13.70706 -22.9375,13.71875 l 12.71875,78.1875 c 29.35794,-3.56606 55.00348,-19.24439 71.75,-41.90625 l -61.53125,-50 z"
   id="path2856" />
<path
   style="color:#000000;fill:url(#linearGradient3753);fill-opacity:1;stroke:none;enable-background:accumulate"
   d="m 108.07408,4.879788 c -57.963355,0 -104.968755,47.030071 -104.968755,104.968762 0,57.96335 47.03007,105.03125 104.968755,105.03125 57.96335,0 105.03125,-47.05802 105.03125,-105.03125 0,-57.973232 -47.05802,-104.968762 -105.03125,-104.968762 z m 0.0312,5.000001 c 55.22848,0 100,44.77152 100,100.000011 0,55.22847 -44.77152,100 -100,100 -55.228485,0 -100.000005,-44.77153 -100.000005,-100 0,-55.228492 44.77152,-100.000012 100.000005,-100.000012 z"
   id="diskedge" />
</svg>
