<?xml version="1.0" encoding="UTF-8" standalone="no"?>
<svg
   xmlns:dc="http://purl.org/dc/elements/1.1/"
   xmlns:cc="http://creativecommons.org/ns#"
   xmlns:rdf="http://www.w3.org/1999/02/22-rdf-syntax-ns#"
   xmlns:svg="http://www.w3.org/2000/svg"
   xmlns="http://www.w3.org/2000/svg"
   xmlns:xlink="http://www.w3.org/1999/xlink"
   xmlns:sodipodi="http://sodipodi.sourceforge.net/DTD/sodipodi-0.dtd"
   xmlns:inkscape="http://www.inkscape.org/namespaces/inkscape"
   version="1.1"
   xml:space="preserve"
   height="219px"
   viewBox="23.49 45.083 219 219"
   width="219px"
   enable-background="new 23.49 45.083 219 219"
   y="0px"
   x="0px"
   id="svg2"
   inkscape:version="0.47 r22583"
   sodipodi:docname="softwarepatch.svg"><sodipodi:namedview
   pagecolor="#ffffff"
   bordercolor="#666666"
   borderopacity="1"
   objecttolerance="10"
   gridtolerance="10"
   guidetolerance="10"
   inkscape:pageopacity="0"
   inkscape:pageshadow="2"
   inkscape:window-width="1280"
   inkscape:window-height="778"
   id="namedview98"
   showgrid="false"
   inkscape:zoom="2.893241"
   inkscape:cx="131.16102"
   inkscape:cy="122.39412"
   inkscape:window-x="-8"
   inkscape:window-y="326"
   inkscape:window-maximized="1"
   inkscape:current-layer="svg2" /><metadata
   id="metadata4"><rdf:RDF><cc:Work
       rdf:about=""><dc:format>image/svg+xml</dc:format><dc:type
         rdf:resource="http://purl.org/dc/dcmitype/StillImage" /><dc:title /></cc:Work></rdf:RDF></metadata>
<defs
   id="defs6"><inkscape:perspective
     sodipodi:type="inkscape:persp3d"
     inkscape:vp_x="0 : 109.5 : 1"
     inkscape:vp_y="0 : 1000 : 0"
     inkscape:vp_z="219 : 109.5 : 1"
     inkscape:persp3d-origin="109.5 : 73 : 1"
     id="perspective50" /><linearGradient
     id="linearGradient3284"
     y2="369"
     spreadMethod="reflect"
     gradientUnits="userSpaceOnUse"
     x2="214"
     y1="474"
     x1="390"><stop
       stop-color="#6f6f6f"
       offset="0"
       id="stop19" /><stop
       stop-color="#f5f5f5"
       offset="1"
       id="stop21" /></linearGradient><filter
     id="filter11193"
     height="1.204561"
     width="1.6059247"
     y="-0.10228051"
     x="-0.30296236"
     color-interpolation-filters="sRGB"><feGaussianBlur
       stdDeviation="18.143585"
       id="feGaussianBlur30" /></filter><filter
     id="filter11189"
     height="1.2111586"
     width="1.3552474"
     y="-0.10557931"
     x="-0.17762369"
     color-interpolation-filters="sRGB"><feGaussianBlur
       stdDeviation="18.143585"
       id="feGaussianBlur36" /></filter><filter
     id="filter11185"
     height="1.2424628"
     width="1.2640786"
     y="-0.12123133"
     x="-0.13203932"
     color-interpolation-filters="sRGB"><feGaussianBlur
       stdDeviation="18.143585"
       id="feGaussianBlur42" /></filter><filter
     id="filter11181"
     height="1.3091427"
     width="1.2171913"
     y="-0.15457135"
     x="-0.10859563"
     color-interpolation-filters="sRGB"><feGaussianBlur
       stdDeviation="18.143585"
       id="feGaussianBlur48" /></filter><linearGradient
     inkscape:collect="always"
     xlink:href="#linearGradient3284-1"
     id="linearGradient3708"
     gradientUnits="userSpaceOnUse"
     spreadMethod="reflect"
     x1="390.20001"
     y1="473.79999"
     x2="213.7"
     y2="368.70001"
     gradientTransform="matrix(0.49330515,0,0,0.49330515,-75.823499,-123.84818)" /><linearGradient
     id="linearGradient3284-1"
     x1="390.20001"
     spreadMethod="reflect"
     gradientUnits="userSpaceOnUse"
     y1="473.79999"
     x2="213.7"
     y2="368.70001"><stop
       stop-color="#6f6f6f"
       offset="0"
       id="stop14" /><stop
       stop-color="#f5f5f5"
       offset="1"
       id="stop16" /></linearGradient><linearGradient
     inkscape:collect="always"
     xlink:href="#linearGradient3664"
     id="linearGradient3688"
     x1="-103.06042"
     y1="167.63292"
     x2="-28.059572"
     y2="123.86324"
     gradientUnits="userSpaceOnUse"
     gradientTransform="translate(181.84722,-37.00117)" /><linearGradient
     id="linearGradient3664"><stop
       style="stop-color:#0000ff;stop-opacity:0;"
       offset="0"
       id="stop3666" /><stop
       id="stop3668"
       offset="0.20762333"
       style="stop-color:#0000ff;stop-opacity:0.09803922;" /><stop
       id="stop3670"
       offset="0.32430306"
       style="stop-color:#00ff00;stop-opacity:0.09803922;" /><stop
       id="stop3672"
       offset="0.49649313"
       style="stop-color:#ffff00;stop-opacity:0.09803922;" /><stop
       id="stop3674"
       offset="0.63897055"
       style="stop-color:#ff0000;stop-opacity:0.09803922;" /><stop
       style="stop-color:#ff0000;stop-opacity:0;"
       offset="1"
       id="stop3676" /></linearGradient><filter
     color-interpolation-filters="sRGB"
     inkscape:collect="always"
     id="filter3714"><feGaussianBlur
       inkscape:collect="always"
       stdDeviation="2.8267969"
       id="feGaussianBlur3716" /></filter><linearGradient
     id="linearGradient5241-7"><stop
       stop-color="#7c7c7c"
       offset="0"
       id="stop8" /><stop
       stop-color="#c6c6c6"
       offset="1"
       id="stop10" /></linearGradient><linearGradient
     y2="318.84375"
     x2="434.03125"
     y1="423.84375"
     x1="539.03125"
     gradientTransform="translate(-325.92592,-208.96396)"
     gradientUnits="userSpaceOnUse"
     id="linearGradient2966"
     xlink:href="#linearGradient5241-7"
     inkscape:collect="always" /></defs>
<g
   transform="translate(25.812639,46.112701)"
   id="g2870"><path
     id="maindisk"
     d="m 108.08067,4.855128 c -57.914035,0 -104.975345,47.061311 -104.975345,105.024672 0,57.96335 47.03664,105.02466 104.975345,105.02466 57.96335,0 105.02466,-47.05145 105.02466,-105.02466 0,-57.973228 -47.05145,-104.975345 -105.02466,-104.975345 z m 0,78.928818 c 14.39464,0 26.08597,11.676543 26.08597,26.066244 0,14.39465 -11.69133,26.08598 -26.08597,26.08598 -14.394655,0 -26.066245,-11.69133 -26.066245,-26.08598 0,-14.394641 11.67652,-26.066244 26.066245,-26.066244 z"
     style="color:#000000;fill:url(#linearGradient3708)" /><path
     id="whiteouter"
     d="m 108.10533,83.332919 c -14.665937,0 -26.562504,11.896559 -26.562504,26.562501 0,14.66593 11.896567,26.53125 26.562504,26.53125 14.66594,0 26.5625,-11.86532 26.5625,-26.53125 0,-14.665942 -11.89656,-26.562501 -26.5625,-26.562501 z m 0,7.0625 c 10.76956,0 19.5,8.73044 19.5,19.500001 0,10.76956 -8.73044,19.5 -19.5,19.5 -10.769569,0 -19.500004,-8.73044 -19.500004,-19.5 0,-10.769561 8.730435,-19.500001 19.500004,-19.500001 z"
     style="color:#000000;fill:#ffffff;fill-opacity:1;fill-rule:nonzero;stroke:none;stroke-width:1;marker:none;visibility:visible;display:inline;overflow:visible;enable-background:accumulate" /><path
     id="mediumgrey"
     d="m 108.10533,90.879788 c -10.493415,0 -19.000005,8.506601 -19.000005,19.000002 0,10.49342 8.50659,19.00001 19.000005,19.00001 10.49341,0 19,-8.50659 19,-19.00001 0,-10.493401 -8.50659,-19.000002 -19,-19.000002 z m 0,3.437501 c 8.58803,0 15.5625,6.974481 15.5625,15.562501 0,8.58805 -6.97447,15.53126 -15.5625,15.53126 -8.588035,0 -15.531255,-6.94321 -15.531255,-15.53126 0,-8.58802 6.94322,-15.562501 15.531255,-15.562501 z"
     style="color:#000000;fill:#b7b6b6;fill-opacity:1;fill-rule:nonzero;stroke:none;stroke-width:1;marker:none;visibility:visible;display:inline;overflow:visible;enable-background:accumulate" /><path
     id="whiteinner"
     d="m 108.12095,94.317288 c -8.588026,0 -15.562496,6.974482 -15.562496,15.562502 0,8.58805 6.97447,15.56251 15.562496,15.56251 8.58803,0 15.53125,-6.97446 15.53125,-15.56251 0,-8.58802 -6.94322,-15.562502 -15.53125,-15.562502 z m 0,1.21875 c 7.9253,0 14.34375,6.418472 14.34375,14.343752 0,7.92531 -6.41845,14.34376 -14.34375,14.34376 -7.92529,0 -14.343746,-6.41845 -14.343746,-14.34376 0,-7.92528 6.418456,-14.343752 14.343746,-14.343752 z"
     style="color:#000000;fill:#eaeaea;fill-opacity:1;fill-rule:nonzero;stroke:none;stroke-width:1;marker:none;visibility:visible;display:inline;overflow:visible;enable-background:accumulate" /><path
     id="lightgrey"
     d="m 108.0897,95.536038 c -7.92529,0 -14.343746,6.418472 -14.343746,14.343752 0,7.92531 6.418456,14.34376 14.343746,14.34376 7.9253,0 14.375,-6.41845 14.375,-14.34376 0,-7.92528 -6.4497,-14.343752 -14.375,-14.343752 z m 0,5.250002 c 5.02579,0 9.125,4.06797 9.125,9.09375 0,5.02581 -4.09921,9.09376 -9.125,9.09376 -5.02578,0 -9.093746,-4.06795 -9.093746,-9.09376 0,-5.02578 4.067966,-9.09375 9.093746,-9.09375 z"
     style="color:#000000;fill:#dddddd;fill-opacity:1;fill-rule:nonzero;stroke:none;stroke-width:1;marker:none;visibility:visible;display:inline;overflow:visible;enable-background:accumulate" /><path
     id="blackhole"
     d="m 108.0897,100.77042 c -5.0258,0 -9.093746,4.06797 -9.093746,9.09375 0,5.0258 4.067946,9.125 9.093746,9.125 5.02579,0 9.125,-4.0992 9.125,-9.125 0,-5.02578 -4.09922,-9.09375 -9.125,-9.09375 z m 0,1.09375 c 4.41827,0 8,3.58174 8,8 0,4.41828 -3.58173,8 -8,8 -4.41827,0 -8,-3.58172 -8,-8 0,-4.41826 3.58173,-8 8,-8 z"
     style="color:#000000;fill:#3a3a3a;fill-opacity:1;fill-rule:nonzero;stroke:none;stroke-width:1;marker:none;visibility:visible;display:inline;overflow:visible;enable-background:accumulate" /><path
     id="translucentring"
     d="m 108.10533,71.752198 c -21.057301,0 -38.127595,17.070304 -38.127595,38.127602 0,21.05731 17.070294,38.12759 38.127595,38.12759 21.05732,0 38.12759,-17.07028 38.12759,-38.12759 0,-21.057298 -17.07027,-38.127602 -38.12759,-38.127602 z m 0,9.393752 c 15.86929,0 28.73383,12.864636 28.73383,28.73385 0,15.86927 -12.86454,28.73384 -28.73383,28.73384 -15.869286,0 -28.733842,-12.86457 -28.733842,-28.73384 0,-15.869214 12.864556,-28.73385 28.733842,-28.73385 z"
     style="color:#000000;fill:#ffffff;fill-opacity:0.32352941;fill-rule:nonzero;stroke:none;stroke-width:1;marker:none;visibility:visible;display:inline;overflow:visible;enable-background:accumulate" /><path
     id="blackring"
     d="m 108.10533,90.379788 c -10.769575,0 -19.500005,8.730453 -19.500005,19.500012 0,10.76956 8.73043,19.5 19.500005,19.5 10.76955,0 19.5,-8.73044 19.5,-19.5 0,-10.769559 -8.73045,-19.500012 -19.5,-19.500012 z m 0,0.75 c 10.35534,0 18.75,8.39466 18.75,18.750012 0,10.35535 -8.39466,18.75 -18.75,18.75 -10.355364,0 -18.750005,-8.39465 -18.750005,-18.75 0,-10.355352 8.39465,-18.750012 18.750005,-18.750012 z"
     style="color:#000000;fill:#000000;fill-opacity:1;fill-rule:nonzero;stroke:none;stroke-width:1;marker:none;visibility:visible;display:inline;overflow:visible;enable-background:accumulate" /><path
     id="path2856"
     d="M 95.375,6.0762339 C 66.360386,9.5861729 40.950926,24.954697 24.187496,47.201234 L 84.65625,98.888728 c 4.236235,-8.66815 13.144849,-14.65625 23.4375,-14.65625 0.92066,0 1.82256,0.0318 2.71875,0.125 L 95.375,6.0762339 z M 131.0625,122.66998 c -4.40541,8.1564 -13.02936,13.70706 -22.9375,13.71875 l 12.71875,78.1875 c 29.35794,-3.56606 55.00348,-19.24439 71.75,-41.90625 l -61.53125,-50 z"
     style="fill:url(#linearGradient3688);fill-opacity:1;stroke:none;filter:url(#filter3714)" /><path
     id="diskedge"
     d="m 108.07408,4.879788 c -57.963355,0 -104.968755,47.030071 -104.968755,104.968762 0,57.96335 47.03007,105.03125 104.968755,105.03125 57.96335,0 105.03125,-47.05802 105.03125,-105.03125 0,-57.973232 -47.05802,-104.968762 -105.03125,-104.968762 z m 0.0312,5.000001 c 55.22848,0 100,44.77152 100,100.000011 0,55.22847 -44.77152,100 -100,100 -55.228485,0 -100.000005,-44.77153 -100.000005,-100 0,-55.228492 44.77152,-100.000012 100.000005,-100.000012 z"
     style="color:#000000;fill:url(#linearGradient2966);fill-opacity:1;stroke:none;enable-background:accumulate" /></g><path
   style="fill:#d6c08a;stroke:none;stroke-width:0.50000000000000000"
   id="path92"
   d="m 192.96029,233.20448 c -7.45,-0.008 -13.5,-4.93 -13.5,-11 l 0,-0.0312 0.219,-161 c 0.006,-6.07 6.06,-11 13.5,-11 l 31,0 c 7.44,0.006 13.5,4.93 13.5,11 l 0,161 c 0,6.09 -6,11 -14,11 l -31.8,0 z m 8.59,-3.56 c 0.675,0.0197 1.32,-0.268 1.62,-0.75 0.408,-0.642 0.023,-1.42 -0.844,-1.72 -0.867,-0.302 -1.87,-0.0172 -2.28,0.625 -0.408,0.642 -0.0542,1.42 0.812,1.72 0.217,0.0755 0.462,0.118 0.688,0.125 z m 25.6,-2.88 c 0.675,0.0197 1.32,-0.237 1.62,-0.719 0.407,-0.642 0.0223,-1.42 -0.844,-1.72 -0.866,-0.302 -1.87,-0.0167 -2.28,0.625 -0.407,0.642 -0.0536,1.42 0.812,1.72 0.217,0.0754 0.463,0.0872 0.688,0.0938 z m -39,-1.53 c 0.675,0.0197 1.32,-0.237 1.62,-0.719 0.408,-0.642 0.0542,-1.42 -0.812,-1.72 -0.867,-0.302 -1.9,-0.0172 -2.31,0.625 -0.408,0.642 -0.0542,1.42 0.812,1.72 0.217,0.0755 0.462,0.0872 0.688,0.0938 z m 25,-0.12 c 0.675,0.0197 1.35,-0.268 1.66,-0.75 0.408,-0.642 0.023,-1.39 -0.844,-1.69 -0.867,-0.302 -1.9,-0.0485 -2.31,0.594 -0.408,0.642 -0.023,1.42 0.844,1.72 0.217,0.0755 0.431,0.118 0.656,0.125 z m -12.9,-3.62 c 0.675,0.0197 1.35,-0.237 1.66,-0.719 0.407,-0.642 0.0223,-1.42 -0.844,-1.72 -0.866,-0.302 -1.91,-0.0167 -2.31,0.625 -0.407,0.642 -0.0223,1.39 0.844,1.69 0.217,0.0754 0.431,0.118 0.656,0.125 z m 27.2,-4.84 c 0.675,0.0197 1.32,-0.237 1.62,-0.719 0.407,-0.642 0.0536,-1.42 -0.812,-1.72 -0.866,-0.302 -1.91,-0.0167 -2.31,0.625 -0.407,0.642 -0.0536,1.39 0.812,1.69 0.217,0.0754 0.463,0.118 0.688,0.125 z m -39.2,-3.56 c 0.443,0.0254 0.888,-0.0812 1.25,-0.312 0.726,-0.463 0.811,-1.28 0.188,-1.81 -0.625,-0.538 -1.71,-0.618 -2.44,-0.156 -0.726,0.461 -0.809,1.27 -0.188,1.81 0.312,0.268 0.745,0.443 1.19,0.469 z m 14.4,-0.438 c 0.675,0.0197 1.35,-0.237 1.66,-0.719 0.408,-0.642 0.023,-1.42 -0.844,-1.72 -0.867,-0.302 -1.9,-0.0172 -2.31,0.625 -0.408,0.642 -0.023,1.39 0.844,1.69 0.217,0.0755 0.431,0.118 0.656,0.125 z m 14,-1 c 0.675,0.0197 1.32,-0.237 1.62,-0.719 0.407,-0.642 0.0536,-1.42 -0.812,-1.72 -0.866,-0.302 -1.91,-0.0167 -2.31,0.625 -0.407,0.642 -0.0223,1.39 0.844,1.69 0.217,0.0754 0.431,0.118 0.656,0.125 z m -20.8,-6.91 c 0.675,0.0197 1.35,-0.269 1.66,-0.75 0.407,-0.642 0.0223,-1.39 -0.844,-1.69 -0.866,-0.302 -1.91,-0.048 -2.31,0.594 -0.407,0.642 -0.0223,1.42 0.844,1.72 0.217,0.0754 0.431,0.118 0.656,0.125 z m 31,-2.31 c 0.443,0.0252 0.887,-0.0808 1.25,-0.312 0.729,-0.462 0.81,-1.28 0.188,-1.81 -0.622,-0.538 -1.71,-0.588 -2.44,-0.125 -0.728,0.461 -0.809,1.27 -0.188,1.81 0.312,0.268 0.745,0.412 1.19,0.438 z m -10.4,-0.938 c 0.675,0.0197 1.32,-0.237 1.62,-0.719 0.408,-0.642 0.0543,-1.42 -0.812,-1.72 -0.867,-0.302 -1.9,-0.0172 -2.31,0.625 -0.408,0.642 -0.0543,1.39 0.812,1.69 0.217,0.0755 0.462,0.118 0.688,0.125 z m -28.8,-0.938 c 0.675,0.0197 1.32,-0.269 1.62,-0.75 0.407,-0.642 0.0536,-1.42 -0.812,-1.72 -0.866,-0.302 -1.91,-0.0167 -2.31,0.625 -0.407,0.642 -0.0223,1.42 0.844,1.72 0.217,0.0754 0.431,0.118 0.656,0.125 z m 17,-3.1 c 0.675,0.0197 1.35,-0.268 1.66,-0.75 0.408,-0.642 0.023,-1.39 -0.844,-1.69 -0.867,-0.302 -1.9,-0.0485 -2.31,0.594 -0.408,0.642 -0.023,1.42 0.844,1.72 0.217,0.0755 0.431,0.118 0.656,0.125 z m 22.3,-3.69 c 0.675,0.0197 1.32,-0.268 1.62,-0.75 0.408,-0.642 0.023,-1.39 -0.844,-1.69 -0.867,-0.302 -1.87,-0.0485 -2.28,0.594 -0.408,0.642 -0.0543,1.42 0.812,1.72 0.217,0.0755 0.462,0.118 0.688,0.125 z m -31.5,-2.91 c 0.675,0.0197 1.32,-0.268 1.62,-0.75 0.408,-0.642 0.0542,-1.39 -0.812,-1.69 -0.867,-0.302 -1.9,-0.0485 -2.31,0.594 -0.408,0.642 -0.023,1.42 0.844,1.72 0.217,0.0755 0.431,0.118 0.656,0.125 z m 19.4,-0.625 c 0.675,0.0197 1.32,-0.268 1.62,-0.75 0.408,-0.642 0.0543,-1.42 -0.812,-1.72 -0.867,-0.302 -1.9,-0.0172 -2.31,0.625 -0.408,0.642 -0.023,1.42 0.844,1.72 0.217,0.0755 0.431,0.118 0.656,0.125 z m -13.7,-85.9 c 0.675,0.0197 1.35,-0.237 1.66,-0.719 0.408,-0.642 0.023,-1.42 -0.844,-1.72 -0.867,-0.302 -1.9,-0.0172 -2.31,0.625 -0.408,0.642 -0.023,1.42 0.844,1.72 0.217,0.0755 0.431,0.0872 0.656,0.0937 z m 19.4,-0.625 c 0.675,0.0197 1.32,-0.268 1.62,-0.75 0.408,-0.642 0.0543,-1.42 -0.812,-1.72 -0.867,-0.302 -1.9,-0.0172 -2.31,0.625 -0.408,0.642 -0.0543,1.42 0.812,1.72 0.217,0.0755 0.462,0.118 0.688,0.125 z m -30,-2 c 0.675,0.0197 1.35,-0.237 1.66,-0.719 0.408,-0.642 0.023,-1.42 -0.844,-1.72 -0.867,-0.302 -1.9,-0.0172 -2.31,0.625 -0.408,0.642 -0.023,1.39 0.844,1.69 0.217,0.0755 0.431,0.118 0.656,0.125 z m 22.3,-3.69 c 0.675,0.0197 1.35,-0.237 1.66,-0.719 0.408,-0.642 0.023,-1.42 -0.844,-1.72 -0.867,-0.302 -1.9,-0.0172 -2.31,0.625 -0.408,0.642 -0.023,1.39 0.844,1.69 0.217,0.0755 0.431,0.118 0.656,0.125 z m 17.4,-3.03 c 0.675,0.0197 1.32,-0.237 1.62,-0.719 0.408,-0.642 0.023,-1.42 -0.844,-1.72 -0.867,-0.302 -1.9,-0.0172 -2.31,0.625 -0.408,0.642 -0.023,1.39 0.844,1.69 0.217,0.0755 0.462,0.118 0.688,0.125 z m -28.8,-0.938 c 0.675,0.0197 1.32,-0.268 1.62,-0.75 0.408,-0.642 0.0542,-1.42 -0.812,-1.72 -0.867,-0.302 -1.9,-0.0172 -2.31,0.625 -0.408,0.642 -0.023,1.42 0.844,1.72 0.217,0.0755 0.431,0.118 0.656,0.125 z m -10.5,-0.938 c 0.675,0.0197 1.32,-0.237 1.62,-0.719 0.408,-0.642 0.023,-1.42 -0.844,-1.72 -0.867,-0.302 -1.87,-0.0172 -2.28,0.625 -0.408,0.642 -0.0542,1.39 0.812,1.69 0.217,0.0755 0.462,0.118 0.688,0.125 z m 31.1,-2.31 c 0.675,0.0197 1.32,-0.237 1.62,-0.719 0.408,-0.642 0.0543,-1.42 -0.812,-1.72 -0.867,-0.302 -1.9,-0.0172 -2.31,0.625 -0.408,0.642 -0.0543,1.39 0.812,1.69 0.217,0.0755 0.462,0.118 0.688,0.125 z m -20.8,-6.91 c 0.675,0.0197 1.32,-0.268 1.62,-0.75 0.408,-0.642 0.023,-1.39 -0.844,-1.69 -0.867,-0.302 -1.87,-0.0485 -2.28,0.594 -0.408,0.642 -0.0542,1.42 0.812,1.72 0.217,0.0755 0.462,0.118 0.688,0.125 z m 14,-0.906 c 0.675,0.0197 1.32,-0.268 1.62,-0.75 0.408,-0.642 0.023,-1.42 -0.844,-1.72 -0.867,-0.302 -1.87,-0.0172 -2.28,0.625 -0.408,0.642 -0.0543,1.42 0.812,1.72 0.217,0.0755 0.462,0.118 0.688,0.125 z m 15,0 c 0.675,0.0197 1.35,-0.237 1.66,-0.719 0.407,-0.642 0.0223,-1.42 -0.844,-1.72 -0.866,-0.302 -1.91,-0.0167 -2.31,0.625 -0.407,0.642 -0.0223,1.39 0.844,1.69 0.217,0.0754 0.431,0.118 0.656,0.125 z m -39.2,-3.56 c 0.675,0.0197 1.32,-0.268 1.62,-0.75 0.408,-0.642 0.0542,-1.42 -0.812,-1.72 -0.867,-0.302 -1.9,-0.0172 -2.31,0.625 -0.408,0.642 -0.0542,1.42 0.812,1.72 0.217,0.0755 0.462,0.118 0.688,0.125 z m 25.6,-4.66 c 0.675,0.0197 1.32,-0.268 1.62,-0.75 0.408,-0.642 0.023,-1.42 -0.844,-1.72 -0.867,-0.302 -1.87,-0.0172 -2.28,0.625 -0.408,0.642 -0.0543,1.42 0.812,1.72 0.217,0.0755 0.462,0.118 0.688,0.125 z m -9.59,-2.5 c 0.675,0.0197 1.32,-0.268 1.62,-0.75 0.408,-0.642 0.023,-1.42 -0.844,-1.72 -0.867,-0.302 -1.87,-0.0172 -2.28,0.625 -0.408,0.642 -0.0542,1.42 0.812,1.72 0.217,0.0755 0.462,0.118 0.688,0.125 z m 22,-1.72 c 0.675,0.0197 1.32,-0.237 1.62,-0.719 0.408,-0.642 0.023,-1.42 -0.844,-1.72 -0.867,-0.302 -1.87,-0.0172 -2.28,0.625 -0.408,0.642 -0.0543,1.39 0.812,1.69 0.217,0.0755 0.462,0.118 0.688,0.125 z m -36.8,-1.25 c 0.675,0.0197 1.32,-0.268 1.62,-0.75 0.408,-0.642 0.0542,-1.42 -0.812,-1.72 -0.867,-0.302 -1.9,-0.0172 -2.31,0.625 -0.408,0.642 -0.023,1.42 0.844,1.72 0.217,0.0755 0.431,0.118 0.656,0.125 z m 27,-4 c 0.675,0.0197 1.32,-0.268 1.62,-0.75 0.408,-0.642 0.0543,-1.42 -0.812,-1.72 -0.867,-0.302 -1.9,-0.0172 -2.31,0.625 -0.408,0.642 -0.023,1.42 0.844,1.72 0.217,0.0755 0.431,0.118 0.656,0.125 z m -14.8,-2.97 c 0.675,0.0197 1.32,-0.268 1.62,-0.75 0.408,-0.642 0.0542,-1.42 -0.812,-1.72 -0.867,-0.302 -1.9,-0.0172 -2.31,0.625 -0.408,0.642 -0.0542,1.42 0.812,1.72 0.217,0.0755 0.462,0.118 0.688,0.125 z m 25,-2 c 0.675,0.0197 1.32,-0.268 1.62,-0.75 0.408,-0.642 0.023,-1.42 -0.844,-1.72 -0.867,-0.302 -1.87,-0.0172 -2.28,0.625 -0.408,0.642 -0.0543,1.42 0.812,1.72 0.217,0.0755 0.462,0.118 0.688,0.125 z" /><path
   style="fill:#c9b181;stroke:none"
   id="path94"
   d="m 188.47029,173.19348 c 0.239,4.46 4.86,6.87 8.73,7.73 5.93,1.11 12,0.316 18,0.588 5.57,0.125 11.9,0.15 16.2,-3.95 2.12,-1.85 2.12,-4.76 2.01,-7.33 0.109,-17.3 0.191,-34.6 0.248,-51.9 -0.669,-4.55 -5.5,-6.72 -9.54,-7.49 -6.61,-0.818 -13.3,-0.139 -19.9,-0.431 -5.2,-0.0577 -11.4,0.724 -14.6,5.4 -1.63,2.74 -0.645,6.04 -0.932,9.05 -0.0788,16.1 -0.157,32.2 -0.236,48.3 z" /><path
   style="fill:#efe0bb;stroke:none"
   id="path96"
   d="m 185.47029,171.19348 c 0.201,4.53 5.04,6.92 8.93,7.79 4.66,0.877 9.44,0.388 14.2,0.528 5.83,-0.168 12,0.832 17.4,-2.12 2.75,-1.34 4.92,-4.16 4.51,-7.32 0.0753,-17.9 0.199,-35.8 0.244,-53.7 -0.61,-4.54 -5.55,-6.72 -9.54,-7.5 -4.7,-0.681 -9.47,-0.271 -14.2,-0.395 -5.78,0.127 -12,-0.779 -17.2,2.39 -2.55,1.37 -4.41,4.09 -4.04,7.05 -0.0878,17.8 -0.173,35.5 -0.263,53.3 z" /></svg>