<?xml version="1.0" encoding="UTF-8" standalone="no"?>
<svg id="svg2" xmlns:rdf="http://www.w3.org/1999/02/22-rdf-syntax-ns#" xmlns="http://www.w3.org/2000/svg" enable-background="new -0.492 -0.381 212 190" xml:space="preserve" height="190px" width="212px" version="1.1" y="0px" x="0px" xmlns:cc="http://creativecommons.org/ns#" xmlns:dc="http://purl.org/dc/elements/1.1/" viewBox="-0.492 -0.381 212 190"><metadata id="metadata291"><rdf:RDF><cc:Work rdf:about=""><dc:format>image/svg+xml</dc:format><dc:type rdf:resource="http://purl.org/dc/dcmitype/StillImage"/><dc:title/></cc:Work></rdf:RDF></metadata><defs id="defs4"><filter id="filter4089"><feGaussianBlur id="feGaussianBlur4091" stdDeviation="1.9146237"/></filter><filter id="filter4412" color-interpolation-filters="sRGB"><feGaussianBlur id="feGaussianBlur4414" stdDeviation="2.2096145"/></filter></defs><g id="g4171"><path id="path4083" opacity="0.5" d="m28.723,178.89c-8.1452-8.1452-9.5469-19.963-8.566-72.225,1.1183-59.583-0.0843-57.969,43.911-58.941l32.342-0.71472,1.4798-7.3993c0.81392-4.0696,4.3173-10.063,7.7853-13.319,6.0355-5.6664,7.9991-5.9198,45.869-5.9198h39.563l6.156,7.1592,6.156,7.1592v66.289c0,74.331-0.49591,76.638-17.486,81.357-5.2508,1.4584-40.213,2.5911-80.229,2.5991l-70.923,0.0142-6.0586-6.0586z" fill-rule="evenodd" filter="url(#filter4089)" stroke-miterlimit="4" stroke-width="0" fill="#000"/><path id="path241" d="m172.41,9.7246h-67.15c-11.78,0-21.327,11.767-21.327,26.291v0.15034h-55.239c-11.776,0-21.325,11.772-21.325,26.307v87.313c0,14.515,9.5491,26.29,16.21,26.29h143.71c16.881,0,26.418-11.776,26.418-26.289v-113.77c0.0009-14.524-9.5366-26.291-21.301-26.291z" stroke="#FFF" stroke-width="2.68458652" fill="#666"/><path id="path243" d="m193.58,37.853c0-14.896-9.5294-26.963-21.277-26.963h-67.075c-11.761,0-20.976,11.241-20.976,26.137v0.50739" stroke="#FFF" stroke-width="2.68458652" fill="#333"/><g id="g4127" transform="matrix(0.8641013,0,0,0.8641013,49.615269,-152.78235)"><path id="path3642" opacity="0.5" d="m86.457,213.53c-8.6333-2.7489-13.915-6.6425-27.068-19.954-9.3291-9.4418-14.056-13.269-20.47-16.572-9.7591-5.027-15.259-10.295-19.221-18.41-4.1272-8.4547-4.4724-14.22-1.875-31.32,2.1347-14.054,2.1814-16.016,0.65603-27.569-3.5813-27.123-0.61724-42.078,10.64-53.685,7.0075-7.2255,14.268-9.8971,29.929-11.012,14.858-1.0582,17.238-1.7294,26.863-7.5761,10.305-6.26,16.822-7.8275,32.565-7.8326,22.055-0.007,33.914,4.3393,48.344,17.719,6.0448,5.6048,10.333,8.5518,14.544,9.9957,9.5991,3.2909,17.226,7.5483,19.759,11.029,1.9541,2.6859,2.4708,5.6254,3.0289,17.23,0.7466,15.525,2.5044,20.891,11.046,33.721,5.9634,8.9574,7.2349,12.168,7.2349,18.269,0,7.4789-2.1522,11.587-11.159,21.301-8.4518,9.1153-9.2217,10.658-15.157,30.365-4.9546,16.452-10.997,24.018-21.365,26.75-2.5213,0.66451-10.27,1.1301-17.22,1.0347-10.863-0.1491-14.811,0.36812-28.143,3.6866-18.515,4.6086-34.117,5.6369-42.933,2.8296z" fill-rule="evenodd" transform="matrix(0.76259977,0,0,0.76259977,-21.005435,214.57323)" filter="url(#filter4412)" stroke-miterlimit="4" stroke-width="0" fill="#000"/><path id="path245" fill="#e0c398" d="m39.8,230.37c11.629-8.939,46.224-8.376,59.488,7.625,9.878,11.919,16.494,6.319,24.933,14.757,5.978,5.979,1.472,17.917,4.007,25.176,5.828,16.679,14.136,17.459,12.689,30.276-1.284,11.379-12.596,12.452-16.402,24.924-4.396,14.397-5.534,35.438-31.938,31.556-17.689-2.603-48.384,20.913-71.173-7.49-16.763-20.894-23.17-10.329-32.587-29.412-5.856-11.865,2.58-25.726,0.508-38.227-2.155-13.013-5.306-32.509,7.606-45.419,13.761-13.765,26.986-1.557,42.869-13.766z"/><path id="path247" fill="#cfaa7a" d="m-11.276,276.57c-1.305-7.835,1.13-23.74,8.14-29.167,7.009-5.427,10.175-9.044,16.505-9.27,6.332-0.227,14.019,0,19.671-2.94,5.653-2.939,11.531-6.783,14.923-7.687,3.391-0.905,18.539-2.488,24.419-1.357,5.878,1.13,16.957,4.07,23.966,11.079s11.079,10.175,15.601,11.305,14.472,3.618,13.566,14.018c-0.904,10.4-1.47,15.262,3.731,21.819,5.2,6.557,10.061,17.523,10.514,20.914,0.452,3.392,0,8.592-5.201,12.663-5.2,4.068-10.853,11.982-12.435,20.121-1.584,8.142-4.974,16.958-7.914,19.897-2.94,2.938-12.436,4.295-18.541,4.295-6.104,0-17.409,1.81-23.287,3.621-5.88,1.808-18.767,7.233-30.073,3.163-11.304-4.068-18.766-11.529-24.417-17.408-5.653-5.879-18.993-11.982-23.063-16.732-4.07-4.748-7.914-11.304-6.104-23.74,1.808-12.437,2.485-19.669-0.001-34.594z"/><path id="path249" fill="#ddb78a" d="m0.14076,272.05c1.903-11.892,13.227-23.741,20.689-27.472,7.462-3.73,12.888-5.087,17.296-7.121,4.408-2.036,9.836,0.338,17.635-1.697,7.802-2.034,25.776-6.783,31.882,0.34,6.104,7.123,14.922,13.905,22.044,16.28,7.122,2.373,14.243,12.886,13.905,21.026-0.339,8.14,2.035,17.296,4.409,21.706s1.356,17.637-2.714,25.097c-4.069,7.462-7.461,16.621-9.496,21.706-2.035,5.087-11.531,15.262-20.688,16.62-9.156,1.356-16.958,3.051-25.774,5.425-8.819,2.375-23.741,2.035-32.898-3.052-9.158-5.087-22.383-15.938-26.455-18.651-4.069-2.715-13.905-13.229-14.243-23.064-0.34-9.834-3.392-15.262-3.053-26.453,0.174-5.774,6.105-12.211,7.461-20.69z"/><path id="path251" fill="#eac9a4" d="m86.523,240.06c7.905,7.905,15.443,12.646,23.944,18.003,4.97,3.133,9.734,12.898,9.734,20.431,0,6.855,5.086,17.182,5.086,24.419,0,9.769-6.624,16.12-8.699,26.232-1.9,9.26-7.221,13.456-14.386,19.46-6.893,5.771-14.785,10.352-26.177,10.352-5.765,0.001-8.733,3.646-18.229,3.646-12.661,0-19.703-4.068-29.604-10.273-7.026-4.4-14.644-8.619-19.506-15.307-4.561-6.273-7.867-13.137-7.867-21.109,0-6.768-6.159-12.328-4.408-19.785,2.149-9.157,6.856-12.183,8.219-22.124,1.795-13.09,22.303-31.012,35.334-33.835,6.767-1.466,13.811-0.873,20.885-2.712,9.127-2.377,19.609-3.464,25.674,2.602z"/><circle id="circle253" d="m 164.5,110.138 c 0,30.90585 -25.05414,55.96 -55.96,55.96 -30.905853,0 -55.959998,-25.05415 -55.959998,-55.96 0,-30.905854 25.054145,-55.959999 55.959998,-55.959999 30.90586,0 55.96,25.054145 55.96,55.959999 z" cx="108.54" transform="translate(-47.69124,189.04493)" cy="110.14" r="55.96" fill="#efd6bd"/><circle id="circle255" d="m 159.946,110.138 c 0,28.3902 -23.0148,51.405 -51.405,51.405 -28.390197,0 -51.404998,-23.0148 -51.404998,-51.405 0,-28.390196 23.014801,-51.404998 51.404998,-51.404998 28.3902,0 51.405,23.014802 51.405,51.404998 z" cx="108.54" transform="translate(-47.69124,189.04493)" cy="110.14" r="51.405" fill="#f7e3d0"/><circle id="circle257" d="m 158.319,110.138 c 0,27.49218 -22.28682,49.779 -49.779,49.779 -27.492181,0 -49.778998,-22.28682 -49.778998,-49.779 0,-27.492182 22.286817,-49.778999 49.778998,-49.778999 27.49218,0 49.779,22.286817 49.779,49.778999 z" cx="108.54" transform="translate(-47.69124,189.04493)" cy="110.14" r="49.779" fill="#e5c5a8"/><path id="path259" fill="#FFF" d="m40.5,232.03c3.748-2.998,7.97-3.731,11.869-4.24,3.901-0.508,17.807-2.374,24.589,0-3.9-0.17-18.823-0.339-22.045,0.339-3.221,0.679-8.816,1.357-14.413,3.901z"/><path id="path261" fill="#a07f58" d="m128,295.11c2.883,5.541,2.487,11.475-0.056,17.92,0.904-6.559,1.978-10.797,0.056-17.92z"/><path id="path263" fill="#cfaa7a" d="m-2.5722,280.19c1.188-5.341,1.356-5.934,1.696-9.582,0.339-3.646,2.119-7.969,5.596-12.717s8.903-10.089,11.786-11.786c2.882-1.695,6.444-3.051,9.834-4.154-7.207,4.578-8.563,3.307-14.668,9.834-6.104,6.53-9.496,13.312-10.005,15.348-0.508,2.034-1.357,6.189-1.95,7.716-0.593,1.525-1.101,3.814-2.289,5.341z"/><path id="path265" fill="#cfaa7a" d="m54.631,238.59c4.862-1.187,7.123-1.412,9.552-1.921,2.432-0.51,6.784-1.131,8.706-1.075,1.922,0.057,7.065,0.227,8.987,1.3s4.918,3.052,6.389,5.031c-3.392-2.375-7.122-4.014-10.063-4.409-2.938-0.397-8.534-0.678-12.887,0s-8.309,0.565-10.684,1.074z"/><path id="path267" fill="#e5c5a8" d="m26.313,350.17c4.183,2.996,10.513,6.782,14.018,8.252,3.504,1.471,7.461,2.545,13.623,3.393-6.444-1.355-10.721-2.656-14.188-4.24-3.221-1.469-11.191-6.05-13.453-7.405z"/><path id="path269" fill="#cfaa7a" d="m133.26,291.55c-1.018-1.525-4.353,1.244-3.109,3.562,1.243,2.318,1.752,12.38-0.056,16.562-1.81,4.183-4.183,9.101-4.183,10.966s1.242,3.505,2.883,1.527c1.639-1.979,6.67-6.445,7.801-7.801,1.13-1.358,5.086-4.749,3.505-10.909-1.583-6.162-3.336-10.345-6.841-13.907z"/><path id="path271" fill="#a07f58" d="m133.26,291.55c3.138,4.536,4.197,7.545,4.664,8.818,0.465,1.271,1.272,6.782,0.549,9.454-0.72,2.671,1.571,1.727,1.866-1.653,0.424-4.833-0.849-7.864-2.246-10.43-1.527-2.797-2.544-3.985-4.833-6.189z"/><path id="path273" fill="#e5c5a8" d="m-2.3172,250.01c-3.371,3.115-6.529,5.426-8.621,13.566,1.357-10.174,3.393-10.966,4.861-13.34,1.469-2.374,6.792-8.258,11.221-10.146,2.585-1.102,7.206-2.289,10.372-2.176s1.171,2.917-3.59,4.466c-4.86,1.582-8.647,2.458-14.243,7.63z"/><path id="path275" fill="#a07f58" d="m25.153,359.21c7.292,5.173,10.684,8.817,18.146,9.666,7.461,0.846,15.261,0.254,18.993,0-7.293,2.117-17.38,1.779-22.385,0-5.002-1.782-9.072-4.325-14.754-9.666z"/><path id="path277" fill="#FFF" d="m15.29,238.53c0.4,0.018-1.242,1.696-3.618,2.205-2.374,0.509-4.465,1.13-5.766,1.64-1.3,0.508-0.452-0.679,0.509-1.3,0.962-0.622,3.676-2.77,8.875-2.545z"/><path id="path279" fill="#efd6bd" d="m-3.6742,301.9c0.933,3.136,1.95,6.021,2.714,7.376,0.763,1.357,1.865,5.768,1.78,7.461,0.509-2.543,0.085-5.428-1.102-8.055-1.188-2.629-2.969-4.407-3.392-6.782z"/><path id="path281" fill="#a07f58" d="m-11.56,313.26c-0.225,5.202,0.735,10.995,1.922,13.284,1.188,2.289,3.25,7.234,7.066,10.879-3.674-2.57-6.755-8.222-7.518-9.917-0.763-1.696-2.713-6.668-1.47-14.246z"/><path id="path283" fill="#e5c5a8" d="m-0.14224,331.06c2.318,4.014,5.805,7.463,7.363,8.861,2.034,1.82,6.316,4.832,11.404,8.775-4.805-4.014-8.027-6.615-10.175-8.195-2.146-1.584-4.86-4.015-8.592-9.441z"/><path id="path285" fill="#e5c5a8" d="m96.546,244.75c2.331,2.119,5.722,4.451,7.8,5.299-2.543-1.568-5.553-3.477-7.8-5.299z"/><path id="path287" fill="#a07f58" d="m105.05,254.7c2.771,2.147,6.444,5.371,7.35,6.558,0.904,1.187,3.561,3.166,4.408,4.804-1.412-3.674-2.77-4.917-4.125-6.219-1.358-1.299-6.107-4.068-7.633-5.143z"/></g></g></svg>