<?xml version="1.0" encoding="UTF-8" standalone="no"?>
<!-- Generator: Adobe Illustrator 13.0.2, SVG Export Plug-In  -->
<svg xmlns:rdf="http://www.w3.org/1999/02/22-rdf-syntax-ns#" xmlns="http://www.w3.org/2000/svg" enable-background="new -0.806 -0.5 208 131" xml:space="preserve" height="219" width="219" version="1.1" y="0px" x="0px" xmlns:cc="http://creativecommons.org/ns#" xmlns:xlink="http://www.w3.org/1999/xlink" viewBox="-0.806 -0.5 219 219" xmlns:dc="http://purl.org/dc/elements/1.1/"><defs><linearGradient id="linearGradient4249" y2="31.3" gradientUnits="userSpaceOnUse" x2="10" y1="125" x1="147"><stop stop-color="#5d5d5d" offset="0"/><stop stop-color="#929292" offset="0.53"/><stop stop-color="#c6c6c6" offset="1"/></linearGradient><filter id="filter4577"><feGaussianBlur stdDeviation="1.7911195"/></filter><linearGradient id="linearGradient3998-9-2"><stop stop-color="#91afdb" offset="0"/><stop stop-color="#91afdb" stop-opacity="0" offset="1"/></linearGradient><linearGradient id="linearGradient4006-9-4"><stop stop-color="#e4dede" offset="0"/><stop stop-color="#808080" offset="1"/></linearGradient><linearGradient id="linearGradient4018-0-8"><stop stop-color="#828282" offset="0"/><stop stop-color="#5d5d5d" offset="1"/></linearGradient><linearGradient id="linearGradient2882" y2="150" gradientUnits="userSpaceOnUse" y1="90.1" gradientTransform="matrix(1.2969615,0,0,1.2878056,-5.4400328,-40.594865)" x2="139" x1="13.9"><stop stop-color="#e1e1e1" offset="0"/><stop stop-color="#8a8a8a" offset="1"/></linearGradient><linearGradient id="linearGradient2916" y2="67.2" xlink:href="#linearGradient4006-9-4" gradientUnits="userSpaceOnUse" x2="187" gradientTransform="translate(174.7036,13.33665)" y1="67.2" x1="32.6"/><linearGradient id="linearGradient2918" y2="61.6" xlink:href="#linearGradient4018-0-8" gradientUnits="userSpaceOnUse" x2="183" gradientTransform="translate(174.59279,13.327953)" y1="101" x1="139"/><linearGradient id="linearGradient2920" y2="40.6" xlink:href="#linearGradient3998-9-2" gradientUnits="userSpaceOnUse" x2="44.6" gradientTransform="matrix(0.33107823,0,0,0.33107823,-111.98584,78.885834)" y1="64" x1="175"/></defs><path opacity="0.5" d="m11.3,149c0.275-15,0.5-39.4,0.5-54.2v-26.9l12.3-8.08,12.3-8.08,65.6,0.001c36.1,0.00077,75.6,0.225,87.7,0.499l22.1,0.498v54.1,54.1l-10,7.11c-5.5,3.91-10.1,7.38-10.3,7.72-0.138,0.338-40.9,0.615-90.5,0.615h-90.3l0.5-27.3z" fill-rule="evenodd" filter="url(#filter4577)" stroke-miterlimit="4" stroke-width="0" fill="#000"/><path fill="#b6b8ba" d="M30.2,44.8,5.99,60.8,184,60.7,205,45.6z"/><path fill="#999" d="M185,61,186,169,205,154,206,45.6z"/><polygon points="1.34,21.1,0.501,129,153,130,152,21.5" fill="url(#linearGradient4249)" transform="matrix(1.1835463,0,0,1,4.360448,40.057743)"/><path d="M4.42,170,185,170,206,154,206,45.2,30.2,44.5,5.26,60.9z" stroke="#000" fill="none"/><path d="m185,170-0.797-109,21.5-15.7" stroke="#000" fill="none"/><line stroke-width="1.09" y2="61.2" x2="184" stroke="#000" y1="61.2" x1="4.72" fill="none"/><path fill="#605f5f" d="m185,168,20.1-14.3,0.256-76.1c-0.001,0-1.3,73.8-20.4,90.4z"/><path fill="#7c7c7c" d="m205,46.4-20.5,14.7,0.5,56.9c-0.945,0.378,0.256-54.3,20-71.5z"/><path fill="#e2e2e2" d="M119,45.3,30.2,45.1,6.89,60.6s46.1-15.9,112-15.3z"/><path d="m24.4,66.7,141,0c8.22,0,14.8,6.57,14.8,14.7v66.3c0,8.16-6.62,14.7-14.8,14.7h-141c-8.22,0-14.8-6.57-14.8-14.7v-66.3c0-8.16,6.62-14.7,14.8-14.7z" fill-rule="evenodd" stroke="#434343" stroke-miterlimit="4" stroke-width="1.88818121" fill="url(#linearGradient2882)"/><g transform="matrix(1.4762039,0,0,1.4762039,247.61505,-46.474681)"><g transform="matrix(0.33107823,0,0,0.33107823,-169.82409,74.476265)"><path d="m285,43.3c-42.2,0-76.5,10.9-76.4,22.1l0.48,78.9c0.0683,11.2,34.2,20.3,76.4,20.3s76.5-9.09,76.4-20.3l-0.48-78.9c-0.0683-11.2-34.2-22.1-76.4-22.1z" stroke="#565656" stroke-width="2" fill="url(#linearGradient2916)"/><path fill="url(#linearGradient2918)" d="m346,77.4s-10.3,79.8-60.1,86.2c0,0,65.4,0.312,74.2-18.1l-0.0581-76.1c0-0.001-2.13,3.86-14.1,7.93z"/></g><path d="m-50.3,96.1c0,3.71-11.3,6.13-25.3,6.13s-25.3-2.42-25.3-6.13,11.3-7.32,25.3-7.32,25.3,3.6,25.3,7.32z" stroke="#546b82" stroke-width="0.66215646" fill="url(#linearGradient2920)"/></g><g transform="matrix(1.4762039,0,0,1.4762039,163.61505,-46.474681)"><g transform="matrix(0.33107823,0,0,0.33107823,-169.82409,74.476265)"><path d="m285,43.3c-42.2,0-76.5,10.9-76.4,22.1l0.48,78.9c0.0683,11.2,34.2,20.3,76.4,20.3s76.5-9.09,76.4-20.3l-0.48-78.9c-0.0683-11.2-34.2-22.1-76.4-22.1z" stroke="#565656" stroke-width="2" fill="url(#linearGradient2916)"/><path d="m346,77.4s-10.3,79.8-60.1,86.2c0,0,65.4,0.312,74.2-18.1l-0.0581-76.1c0-0.001-2.13,3.86-14.1,7.93z" fill="url(#linearGradient2918)"/></g><path d="m-50.3,96.1c0,3.71-11.3,6.13-25.3,6.13s-25.3-2.42-25.3-6.13,11.3-7.32,25.3-7.32,25.3,3.6,25.3,7.32z" stroke="#546b82" stroke-width="0.66215646" fill="url(#linearGradient2920)"/></g><metadata><rdf:RDF><cc:Work rdf:about=""><dc:title/></cc:Work></rdf:RDF></metadata></svg>
