<?xml version="1.0" encoding="UTF-8" standalone="no"?>
<svg xmlns:rdf="http://www.w3.org/1999/02/22-rdf-syntax-ns#" xmlns="http://www.w3.org/2000/svg" version="1.1" xml:space="preserve" height="219" viewBox="-0.441 -0.562 219 219" width="219" enable-background="new -0.441 -0.562 202 200" y="0px" x="0px" xmlns:cc="http://creativecommons.org/ns#" xmlns:xlink="http://www.w3.org/1999/xlink" xmlns:dc="http://purl.org/dc/elements/1.1/"><metadata><rdf:RDF><cc:Work rdf:about=""><dc:title/><dc:format>image/svg+xml</dc:format><dc:type rdf:resource="http://purl.org/dc/dcmitype/StillImage"/></cc:Work></rdf:RDF></metadata><defs><filter id="filter4343"><feGaussianBlur stdDeviation="2.2374591"/></filter><linearGradient id="linearGradient3041" y2="127.7" gradientUnits="userSpaceOnUse" x2="149.7" gradientTransform="translate(-1.5323847,0)" y1="162.4" x1="188.3"><stop stop-color="#494949" offset="0"/><stop stop-color="#494949" stop-opacity="0" offset="1"/></linearGradient><linearGradient id="linearGradient3066" y2="25.6" gradientUnits="userSpaceOnUse" x2="48.21" gradientTransform="translate(-1.5323847,0)" y1="166.5" x1="131.5"><stop stop-color="#212121" offset="0"/><stop stop-color="#404040" offset="0.3324"/><stop stop-color="#818181" offset="0.7372"/><stop stop-color="#fbf5f5" offset="1"/></linearGradient></defs><path d="m163.8,5.95c-3.578,0-6.5,2.893-6.5,6.469v6.906h-4.875c-0.0964-3.493-2.955-6.312-6.469-6.312-3.513,0-6.372,2.82-6.469,6.312h-6.219l-0.7188,0.7188c-0.7325,0.7336,0,2.219,0,2.219s5.711,17.25,10.03,29.59c-11.47-10.64-26.22-16.38-45.22-13.59l-11.78-18.97-17.34,13.41-22.59-13.41,1.312,24.22-15.59,19.41v14.34s-3.92,12.7-8.5,18.16c-4.58,5.453-10.69,16.41-10.69,16.41s-3.064,7.134-3.719,9.969c-0.6548,2.835,0.2179,9.598,0,10.91-0.2179,1.308,1.534,5.032,2.625,6.125,1.091,1.09,12.23,8.057,16.59,6.531,4.362-1.528,1.967,1.752,1.312,2.406-0.6548,0.6538-2.21,1.316,0.8438,2.625,3.054,1.31,6.781,0,6.781,0,1.963,0.2189,6.755-3.071,8.5-6.344,1.744-3.271,7.847-15.69,9.156-16.78,1.309-1.092,16.57-11.6,18.97-12.12,2.4-0.5218,17.83-10.36,19.12-11.94,1.293-1.581,1.124,11.42,0.7188,15.78-0.4041,4.362-3.696,21.14-12.09,28.34-8.398,7.196-18.2,19.28-21.47,25.56-0.8759,1.682-1.536,3.481-2.031,5.25-0.675,0.1032-1.222,0.2245-1.5,0.3438l-1.906,1.156s-2.858,1.188-4.312,3.594c-1.645,2.719,2.469,8.438,2.469,8.438h72.31c1.731,2.389,4.543,3.938,7.719,3.938h-9.031c-3.506,0-6.344,2.867-6.344,6.375,0,3.511,2.838,6.344,6.344,6.344h83.06c3.51,0,6.344-2.832,6.344-6.344,0-3.508-2.834-6.375-6.344-6.375h-9.531c5.263,0,9.531-4.269,9.531-9.531,0-5.263-4.268-9.532-9.531-9.531h-3.438c1.89,0,3.438-1.519,3.438-3.406,0-1.89-1.548-3.405-3.438-3.406h-1.156c-0.9516-7.04-8.723-65.1-7-73.72,0.195-0.9743,0.1521-1.784-0.0625-2.5h5.531c3.373,0,6.125-2.753,6.125-6.125s-2.752-6.094-6.125-6.094h-2.906c1.621,0,2.906-1.32,2.906-2.938s-1.286-2.938-2.906-2.938h-6.125c1.486,0,2.688-1.205,2.688-2.688,0-1.484-1.201-2.688-2.688-2.688h1.469c1.213,0,2.188-0.9731,2.188-2.188,0-1.213-0.9741-2.219-2.188-2.219h-3.688v-0.4062s-0.2559,0.00079,0.9688-1.219c1.221-1.225,14.66-41.75,14.66-41.75s0.7346-1.484,0-2.219l-0.7188-0.7188h-6.469c-0.0963-3.493-2.957-6.312-6.469-6.312-3.519,0-6.373,2.82-6.469,6.312h-4.625v-6.906c0-3.576-2.898-6.469-6.469-6.469z" fill-opacity="0.50196078" filter="url(#filter4343)" stroke-miterlimit="4" fill="#212121"/><path d="m27.93,59.14v14.36s-3.927,12.69-8.507,18.14c-4.58,5.453-10.69,16.42-10.69,16.42s-3.053,7.14-3.708,9.975c-0.6548,2.835,0.2179,9.597,0,10.9-0.2179,1.308,1.526,5.015,2.617,6.108,1.091,1.09,12.22,8.069,16.58,6.544,4.362-1.528,1.963,1.744,1.308,2.399-0.6548,0.6538-2.181,1.308,0.8727,2.617,3.054,1.31,6.762,0,6.762,0,1.963,0.2189,6.762-3.052,8.507-6.325,1.744-3.271,7.851-15.7,9.161-16.79,1.308-1.092,16.58-11.61,18.98-12.13,2.4-0.5218,17.8-10.34,19.1-11.92,1.293-1.581,1.124,11.4,0.7192,15.76-0.4041,4.362-3.676,21.16-12.07,28.36-8.398,7.196-18.21,19.28-21.48,25.56-3.272,6.284-3.624,14.25-3.053,15.88,0.5699,1.636,2.399,2.398,2.399,2.398h123.7s1.855-165.7-85.17-152.9l-11.76-18.98-17.36,13.41-22.58-13.41,1.309,24.21-15.6,19.41z" stroke="#141414" stroke-dasharray="none" stroke-miterlimit="4" stroke-width="0.5" fill="url(#linearGradient3066)"/><path fill="#3f3f3f" d="m113.8,38.46c9.997,2.511,15.68,8.413,22.02,14.53,7.182,6.927,10.88,16.06,15.35,24.95,6.176,12.3,11.84,25.01,16.04,38.12,5.838,18.23,8.586,37.24,11.15,56.15,0.1719,1.269,0.1238,6.926,1.028,7.658,0.004,0.003,0.2169,0.1893-0.3161,2.566-0.5402,2.397-3.665-0.5914-4-2.068-1.058-4.654-2.216-9.294-3.323-13.94-2.719-11.4-5.734-22.74-9.252-33.93-4.176-13.28-9.001-26.37-14.39-39.21-4.96-11.79-10.22-24.04-18.15-34.18-6.05-7.731-13.54-12.42-22.92-15.06-1.611-0.4481-2.446-0.2721-3.373-1.696-0.7806-1.199-0.975-3.438,0.176-4.462,1.174-1.046,6.748-0.2466,9.953,0.5576z"/><path d="m45.23,58.85s-4.253,1.841-6.216,5.932c-1.962,4.092-1.602,3.376-1.602,3.376s-3.304,5.111,0.2938,4.059c3.598-1.053,7.525-2.361,7.525-2.361s0.6548-1.359,1.962-3.133c1.308-1.775,1.962-3.706,1.962-3.706s0.6548-2.74,0-4.167c-0.6538-1.427-3.925,0-3.925,0z" stroke="#070707" stroke-dasharray="none" stroke-miterlimit="4" stroke-width="0.5" fill="#595959"/><path d="m13.5,119.9s-0.3274,1.637-1.963,3.926c-1.636,2.29-1.453,2.439-1.453,2.439s-1.086,1.918,3.416-0.1494c4.804-2.205,6.544-4.253,6.544-4.253v-3.599l-1.963-1.636h-2.729l-1.852,3.273z" stroke="#070707" stroke-dasharray="none" stroke-miterlimit="4" stroke-width="0.5" fill="#595959"/><path d="m50.65,175.9s-2.875,1.193-4.33,3.598c-1.645,2.719,2.458,8.45,2.458,8.45h130.3l-1.507-4.228-4.171-2.144-0.9024-4.191s3.463,0.8666-0.3397-1.525c-3.803-2.389-113.4-3.782-119.6-1.123l-1.884,1.163z" stroke="#0c0c0c" stroke-dasharray="none" stroke-miterlimit="4" stroke-width="0.5" fill="#3f3f3f"/><path fill="#535454" d="m88.48,97.33c0.1709,0,1.216,0.6139,0.5965,1.279-3.581,3.837-17.83,11.88-19.78,12.53-2.177,0.7254-17.82,10.57-19.61,12.99-0.9464,1.279-6.981,13.02-8.611,16.08-1.631,3.058-6.565,6.14-8.014,5.798,0,0-3.454,1.478-6.31,0.2558-2.854-1.223-1.209-1.521-0.5965-2.132,0.6118-0.6128,2.217-4.518-1.344-3.078-4.017,1.624-14.43-4.513-15.45-5.532,0,0-1.95-5.076,3.071-6.509,0,0,7.173-1.196,9.803,0.7162,2.63,1.913,0.9566,0,0.9566,0s8.13-1.195,11.96-6.456c0,0,5.978-7.174,11.48-9.803,0,0,22.72-10.76,29.17-14.35-0.001,0,5.473-1.797,12.68-1.797z"/><path d="m13.7,125.4c-0.3867,0.2957-1.097,0.4993-0.9341,0.442,4.205-1.469,6.89-3.992,6.89-3.992v-3.232l-1.763-1.469-2.186,0.0614c0.002-0.001,5.022,2.831-2.006,8.19z" stroke-dasharray="none" stroke-miterlimit="4" stroke-width="0.5" fill="#adadad"/><path d="m37.92,71.5c-3.25,1.456,6.991-2.104,6.991-2.104s0.622-1.291,1.865-2.976c1.243-1.686,1.864-3.52,1.864-3.52s0.622-2.603,0-3.958c0-0.001-3.386,9.272-10.72,12.56z" stroke-dasharray="none" stroke-miterlimit="4" stroke-width="0.5" fill="#adadad"/><polygon points="59.2,27.22,37.47,14.3,48.43,31.92" fill="#535454" transform="matrix(1.0231018,0,0,1.0231018,4.2663684,1.6500038)"/><polygon points="87.62,32.6,76.12,14.05,73.89,37.27" fill="#535454" transform="matrix(1.0231018,0,0,1.0231018,4.2663684,1.6500038)"/><path d="m139,92.25s-3.788,72.92-9.284,76.22c-5.498,3.298,1.465,0,1.465,0h57.9s-9.16-67.06-7.328-76.22c1.833-9.162-16.49-6.11-16.49-6.11h-26.26v6.11z" stroke="#141414" stroke-dasharray="none" stroke-miterlimit="4" stroke-width="0.5" fill="#bfc0c1"/><path d="m193.3,83.61c0,3.372-2.733,6.109-6.106,6.109h-53.99c-3.372,0-6.109-2.737-6.109-6.109s2.737-6.106,6.109-6.106h53.99c3.373,0,6.106,2.734,6.106,6.106z" stroke="#141414" stroke-dasharray="none" stroke-miterlimit="4" stroke-width="0.5" fill="#bfc0c1"/><path d="m187.2,74.58c0,1.618-1.312,2.931-2.932,2.931h-49.35c-1.618,0-2.931-1.315-2.931-2.931,0-1.618,1.314-2.932,2.931-2.932h49.35c1.621,0,2.932,1.315,2.932,2.932z" stroke="#141414" stroke-dasharray="none" stroke-miterlimit="4" stroke-width="0.5" fill="#bfc0c1"/><path d="m180.9,68.96c0,1.482-1.202,2.688-2.688,2.688h-35.66c-1.486,0-2.689-1.205-2.689-2.688,0-1.484,1.203-2.686,2.689-2.686h35.66c1.487,0,2.688,1.201,2.688,2.686z" stroke="#141414" stroke-dasharray="none" stroke-miterlimit="4" stroke-width="0.5" fill="#bfc0c1"/><path d="m149,34.04c0,3.577-2.9,6.476-6.475,6.476-3.574,0-6.473-2.9-6.473-6.476v-18.32c0-3.577,2.9-6.476,6.473-6.476,3.575,0,6.475,2.9,6.475,6.476v18.32z" stroke="#141414" stroke-width="1.02310181" fill="#bfc0c1"/><path d="m166.8,26.96c0,3.573-2.895,6.473-6.466,6.473-3.578,0-6.476-2.9-6.476-6.473v-18.32c0-3.576,2.898-6.473,6.476-6.473,3.571,0,6.466,2.897,6.466,6.473v18.32z" stroke="#141414" stroke-width="1.02310181" fill="#bfc0c1"/><path d="m184.4,34.04c0,3.577-2.897,6.476-6.47,6.476-3.58,0-6.475-2.9-6.475-6.476v-18.32c0-3.577,2.895-6.476,6.475-6.476,3.573,0,6.47,2.9,6.47,6.476v18.32z" stroke="#141414" stroke-width="1.02310181" fill="#bfc0c1"/><path fill="#494949" d="m148.4,15.48c0-3.397-3.154-5.968-6.204-5.66-0.8492,0-1.521,0.2108-2.257,0.5228-0.001,0,6.892,0.9075,8.461,5.137z"/><path fill="#494949" d="m166.3,13.95c0.6-6.566-0.17-10.91-5.97-11.28-1.155,0-2.236,0.3172-3.159,0.8707,0,0.001,8.619,0.8594,9.13,10.41z"/><path fill="#494949" d="m183.9,15.48c-0.1279-3.154-2.586-5.746-5.98-5.746-0.8686,0-1.694,0.1801-2.443,0.5044,0,0,5.512-0.2834,8.423,5.241z"/><path d="m191.6,16.27-0.7325-0.7325h-61.02l-0.8,0.73c-0.7325,0.7336,0,2.199,0,2.199s13.43,40.55,14.66,41.77c1.22,1.22,0.973,1.22,0.973,1.22v2.199c0,0.9177,7.215,0.6845,15.61,0.1003,8.396,0.5842,15.61,0.8175,15.61-0.1003v-2.199l0.9771-1.22c1.221-1.225,14.66-41.77,14.66-41.77s0.7356-1.464,0.001-2.199z" stroke="#141414" stroke-dasharray="none" stroke-miterlimit="4" stroke-width="0.5" fill="#bfc0c1"/><path fill="#494949" d="m155.6,63.82c2.724,0.1627-1.189,0.3335,4.38-0.0532,8.317,0.578,15.46,0.8103,15.46-0.09924v-2.178l0.9679-1.208c1.209-1.213,14.52-41.38,14.52-41.38s0.8216-1.76,0.31-2.271c-0.4993-0.4993-0.5535-0.5965-0.5535-0.5965l-8.824,0.04297c0.001-0.001-2.301,33.85-26.26,47.74z"/><path d="m181.8,64.07c0,1.214-0.9842,2.199-2.198,2.199h-38.84c-1.215,0-2.199-0.9842-2.199-2.199,0-1.214,0.9842-2.199,2.199-2.199h38.84c1.213,0,2.198,0.9852,2.198,2.199z" stroke="#141414" stroke-dasharray="none" stroke-miterlimit="4" stroke-width="0.5" fill="#bfc0c1"/><path d="m137.7,167.3h50.97s-9.16-67.06-7.328-76.22c0,0-9.368,73.1-43.64,76.22z" stroke-dasharray="none" stroke-miterlimit="4" stroke-width="0.5" fill="url(#linearGradient3041)"/><path d="m187.2,78.01c3.092,0,5.595,2.505,5.595,5.595s-2.502,5.598-5.595,5.598h-26.18s22.02-2.02,26.18-11.19z" stroke-dasharray="none" stroke-miterlimit="4" stroke-width="0.5" fill="#494949"/><path d="m184.3,72.15c1.364,0,2.468,1.107,2.468,2.469s-1.104,2.468-2.468,2.468l-24.3-0.04195s24.13-0.2496,24.3-4.894z" stroke-dasharray="none" stroke-miterlimit="4" stroke-width="0.5" fill="#494949"/><path d="m159.8,71.16,18.37,0.08492c1.253,0,2.225-0.9546,2.225-2.205,0-1.251-0.8614-2.314-2.268-2.228,0,0-5.602,4.071-18.33,4.348z" stroke-dasharray="none" stroke-miterlimit="4" stroke-width="0.5" fill="#494949"/><path d="m163.1,65.7,16.37,0.1709c1.026,0,1.875-0.6896,1.875-1.717,0-1.026-0.6804-1.907-2.045-1.779,0,0.001-2.357,3.021-16.2,3.325z" stroke-dasharray="none" stroke-miterlimit="4" stroke-width="0.5" fill="#494949"/><path d="m209.2,198.2c0,3.511-2.843,6.349-6.354,6.349h-83.06c-3.506,0-6.351-2.838-6.351-6.349,0-3.508,2.845-6.356,6.351-6.356h83.06c3.509,0,6.354,2.847,6.354,6.356z" stroke="#0c0c0c" stroke-dasharray="none" stroke-miterlimit="4" stroke-width="0.5" fill="#3f3f3f"/><path d="m202.8,182.3c0,5.262-4.264,9.526-9.527,9.526h-64.49c-5.262,0-9.527-4.264-9.527-9.526,0-5.263,4.265-9.528,9.527-9.528h64.49c5.263-0.001,9.527,4.265,9.527,9.528z" stroke="#141414" stroke-dasharray="none" stroke-miterlimit="4" stroke-width="0.5" fill="#bfc0c1"/><path d="m193.3,169.4c0,1.888-1.532,3.417-3.421,3.417h-59.36c-1.888,0-3.421-1.53-3.421-3.417,0-1.891,1.534-3.419,3.421-3.419h59.36c1.89,0.001,3.421,1.53,3.421,3.419z" stroke="#141414" stroke-dasharray="none" stroke-miterlimit="4" stroke-width="0.5" fill="#bfc0c1"/><path d="m202.9,192.4c3.288,0,5.949,2.665,5.949,5.95,0,3.288-2.662,5.946-5.949,5.946l-45.62-0.2916c0.001,0,34.28-0.8533,45.62-11.6z" stroke-dasharray="none" stroke-miterlimit="4" stroke-width="0.5" fill="#232323"/><path d="m193.4,173.3c4.972,0,9.001,4.029,9.001,9.001,0,4.969-4.029,8.998-9.001,8.998l-36.83,0.0737s37.17-12.11,36.83-18.07z" stroke-dasharray="none" stroke-miterlimit="4" stroke-width="0.5" fill="#282828"/><path d="m164.4,172.3h25.53c1.599,0,2.897-1.295,2.897-2.893,0-1.6-1.298-2.894-2.897-2.894,0,0-9.155,5.664-25.53,5.788z" stroke-dasharray="none" stroke-miterlimit="4" stroke-width="0.5" fill="#494949"/><path fill="#535454" d="m81.1,86.95c-9.297,2.168-18.81,7.058-25.93-2.183-2.027-2.628-3.148-6.23-3.284-9.582-0.1003-2.463,0.4164-4.804,2.306-6.288,0.6599,5.33,2.572,12.25,5.787,16.66,3.381,4.634,6.932,3.282,12.22,2.988,2.965-0.5392,5.936-1.101,8.903-1.597z"/></svg>
