<?xml version="1.0" encoding="UTF-8" standalone="no"?>
<svg xmlns:rdf="http://www.w3.org/1999/02/22-rdf-syntax-ns#" xmlns="http://www.w3.org/2000/svg" version="1.1" xml:space="preserve" height="219" viewBox="-0.838 -0.206 219 219" width="219" enable-background="new -0.838 -0.206 215 116" y="0px" x="0px" xmlns:cc="http://creativecommons.org/ns#" xmlns:xlink="http://www.w3.org/1999/xlink" xmlns:dc="http://purl.org/dc/elements/1.1/"><metadata><rdf:RDF><cc:Work rdf:about=""><dc:format>image/svg+xml</dc:format><dc:type rdf:resource="http://purl.org/dc/dcmitype/StillImage"/><dc:title/></cc:Work></rdf:RDF></metadata><defs><linearGradient id="linearGradient4487"><stop stop-color="#000" offset="0"/><stop stop-color="#000" stop-opacity="0" offset="1"/></linearGradient><linearGradient id="linearGradient6057" y2="10.9" gradientUnits="userSpaceOnUse" y1="30" x2="38.1" x1="185"><stop stop-color="#8f8f8f" offset="0"/><stop stop-color="#e9e9e9" offset="1"/></linearGradient><filter id="filter6974"><feGaussianBlur stdDeviation="1.6419579"/></filter><linearGradient id="linearGradient4625" y2="180" xlink:href="#linearGradient4487" gradientUnits="userSpaceOnUse" x2="-94.4" y1="172" x1="-97.9"/></defs><path opacity="0.5" d="m17.8,137,0-27.9,5.42,0c6.51,0,6.42-0.63-0.185-1.29l-4.79-0.478,1.72-1.95c0.948-1.07,2.36-2.77,3.14-3.78,0.778-1.01,2.05-2.6,2.83-3.54,0.778-0.939,2.05-2.53,2.83-3.54,0.778-1.01,2.05-2.6,2.83-3.54,0.778-0.939,2.05-2.53,2.83-3.54,0.778-1.01,2.05-2.6,2.83-3.54,0.778-0.939,2.05-2.53,2.83-3.54,0.778-1.01,2.05-2.6,2.83-3.54,0.778-0.939,2.05-2.53,2.83-3.54,0.778-1.01,2.05-2.6,2.83-3.54,0.778-0.939,2.05-2.54,2.83-3.57,0.778-1.02,2.13-2.57,3.01-3.43,0.875-0.865,1.59-1.85,1.59-2.2-0.00003-0.359,33.1-0.626,77.7-0.626h77.7l-0.224,2.83c-0.123,1.56-0.374,12.8-0.556,25.1-0.221,14.8-0.584,22.3-1.08,22.5-0.413,0.138-0.75,0.711-0.75,1.27,0,0.563-0.477,1.21-1.06,1.43-0.583,0.224-1.06,0.85-1.06,1.39,0,0.542-0.318,0.985-0.707,0.985s-0.707,0.487-0.707,1.08c0,0.596-0.477,1.27-1.06,1.49-0.583,0.224-1.06,0.85-1.06,1.39,0,0.542-0.318,0.985-0.707,0.985s-0.707,0.401-0.707,0.891-0.795,1.75-1.77,2.8c-0.972,1.05-1.77,2.1-1.77,2.34,0,0.239-0.398,0.878-0.884,1.42-2.1,2.34-2.65,3.14-2.65,3.83,0,0.405-0.318,0.737-0.707,0.737s-0.707,0.487-0.707,1.08c0,0.596-0.477,1.27-1.06,1.49-0.583,0.224-1.06,0.85-1.06,1.39,0,0.542-0.318,0.985-0.707,0.985s-0.707,0.487-0.707,1.08c0,0.596-0.477,1.27-1.06,1.49-0.583,0.224-1.06,0.85-1.06,1.39,0,0.542-0.318,0.985-0.707,0.985s-0.707,0.401-0.707,0.891-0.795,1.75-1.77,2.8c-0.972,1.05-1.77,2.19-1.77,2.54,0,0.349-0.795,1.49-1.77,2.54-0.972,1.05-1.77,2.21-1.77,2.58,0,0.369-0.318,0.671-0.707,0.671s-0.707,0.487-0.707,1.08c0,0.596-0.477,1.27-1.06,1.49-0.583,0.224-1.06,0.85-1.06,1.39,0,0.542-0.239,0.989-0.53,0.993-0.292,0.004-1.14,1.28-1.88,2.83l-1.35,2.82h-154v-27.9z" filter="url(#filter6974)" stroke-width="0" fill="#000"/><polygon transform="matrix(0.91392853,0,0,0.91392853,8.4132605,51.008869)" stroke="#303030" points="43.7,0.5,213,0.524,170,54.6,1.04,53.7" fill="url(#linearGradient6057)"/><path d="m9.21,157-0.337-55.9,155,0.6-0.27,55.3z" stroke="#303030" stroke-width="0.91392851" fill="#a8a8a8"/><path d="m203,101-39.1,55.2,0.274-54.3,39.2-49.2z" stroke="#303030" stroke-width="0.91392851" fill="#636363"/><polygon transform="matrix(0.91392853,0,0,0.91392853,6.9340956,51.262517)" stroke="#7b560c" points="183,3,195,10.3,171,18.1,174,14.3,111,14.5,118,6.98,180,6.84" stroke-width="1.5" fill="#d59f0f"/><polygon transform="matrix(0.91392853,0,0,0.91392853,8.279101,51.665499)" stroke="#7b560c" points="161,28.6,164,24.7,176,32,152,39.8,155,36,92.1,36.3,98.3,28.7" stroke-width="1.5" fill="#d59f0f"/><polygon transform="matrix(0.91392853,0,0,0.91392853,11.018786,51.776716)" stroke="#7b560c" points="95.2,47.4,32.6,47.5,29.7,51.4,17.3,44.1,41.4,36.3,38.3,40.1,101,39.8" stroke-width="1.5" fill="#d59f0f"/><polygon transform="matrix(0.91392853,0,0,0.91392853,9.5543757,51.52282)" stroke="#7b560c" points="114,25.7,51.9,25.8,49,29.7,36.5,22.4,60.7,14.5,57.5,18.4,121,18.1" stroke-width="1.5" fill="#d59f0f"/><path fill="#636363" d="m163,102-0.235,54.5-127,0c0,0.00092,116-2.84,127-54.5z"/><path fill="#c1c1c1" d="m54.7,102-45.3-0.111,0.249,31.7c3.95-17.7,13.8-27.9,45-31.6z"/><g transform="translate(129,-68)"><polygon transform="matrix(1.1096783,0,0,0.91392853,-136.18944,119.07504)" stroke="#000" points="25.9,99.6,25.9,70.2,143,70.2,143,99.2" fill="#d8d8d8"/><a transform="translate(-0.58590778,16.640535)"><path d="m-104,175,0-2.97,1.67,0,1.67,0,0-1.55,0-1.55,3.35,0,3.35,0,0,1.55,0,1.55,1.69,0,1.69,0,0,2.97,0,2.97-6.71,0-6.71,0,0-2.97z" fill-rule="evenodd" stroke="#000" stroke-miterlimit="4" stroke-dasharray="none" stroke-width="0.5" fill="url(#linearGradient4625)"/></a><a transform="translate(14.750061,16.640535)"><path d="m-104,175,0-2.97,1.67,0,1.67,0,0-1.55,0-1.55,3.35,0,3.35,0,0,1.55,0,1.55,1.69,0,1.69,0,0,2.97,0,2.97-6.71,0-6.71,0,0-2.97z" fill-rule="evenodd" stroke="#000" stroke-miterlimit="4" stroke-dasharray="none" stroke-width="0.5" fill="url(#linearGradient4625)"/></a><a transform="translate(30.08603,16.640535)"><path d="m-104,175,0-2.97,1.67,0,1.67,0,0-1.55,0-1.55,3.35,0,3.35,0,0,1.55,0,1.55,1.69,0,1.69,0,0,2.97,0,2.97-6.71,0-6.71,0,0-2.97z" fill-rule="evenodd" stroke="#000" stroke-miterlimit="4" stroke-dasharray="none" stroke-width="0.5" fill="url(#linearGradient4625)"/></a><a transform="translate(45.421998,16.640535)"><path d="m-104,175,0-2.97,1.67,0,1.67,0,0-1.55,0-1.55,3.35,0,3.35,0,0,1.55,0,1.55,1.69,0,1.69,0,0,2.97,0,2.97-6.71,0-6.71,0,0-2.97z" fill-rule="evenodd" stroke="#000" stroke-miterlimit="4" stroke-dasharray="none" stroke-width="0.5" fill="url(#linearGradient4625)"/></a><a transform="translate(-0.58590778,28.640535)"><path d="m-104,175,0-2.97,1.67,0,1.67,0,0-1.55,0-1.55,3.35,0,3.35,0,0,1.55,0,1.55,1.69,0,1.69,0,0,2.97,0,2.97-6.71,0-6.71,0,0-2.97z" fill-rule="evenodd" stroke="#000" stroke-miterlimit="4" stroke-dasharray="none" stroke-width="0.5" fill="url(#linearGradient4625)"/></a><a transform="translate(14.750061,28.640535)"><path d="m-104,175,0-2.97,1.67,0,1.67,0,0-1.55,0-1.55,3.35,0,3.35,0,0,1.55,0,1.55,1.69,0,1.69,0,0,2.97,0,2.97-6.71,0-6.71,0,0-2.97z" fill-rule="evenodd" stroke="#000" stroke-miterlimit="4" stroke-dasharray="none" stroke-width="0.5" fill="url(#linearGradient4625)"/></a><a transform="translate(30.08603,28.640535)"><path d="m-104,175,0-2.97,1.67,0,1.67,0,0-1.55,0-1.55,3.35,0,3.35,0,0,1.55,0,1.55,1.69,0,1.69,0,0,2.97,0,2.97-6.71,0-6.71,0,0-2.97z" fill-rule="evenodd" stroke="#000" stroke-miterlimit="4" stroke-dasharray="none" stroke-width="0.5" fill="url(#linearGradient4625)"/></a><a transform="translate(45.421998,28.640535)"><path d="m-104,175,0-2.97,1.67,0,1.67,0,0-1.55,0-1.55,3.35,0,3.35,0,0,1.55,0,1.55,1.69,0,1.69,0,0,2.97,0,2.97-6.71,0-6.71,0,0-2.97z" fill-rule="evenodd" stroke="#000" stroke-miterlimit="4" stroke-dasharray="none" stroke-width="0.5" fill="url(#linearGradient4625)"/></a><a transform="translate(65.179728,16.640535)"><path d="m-104,175,0-2.97,1.67,0,1.67,0,0-1.55,0-1.55,3.35,0,3.35,0,0,1.55,0,1.55,1.69,0,1.69,0,0,2.97,0,2.97-6.71,0-6.71,0,0-2.97z" fill-rule="evenodd" stroke="#000" stroke-miterlimit="4" stroke-dasharray="none" stroke-width="0.5" fill="url(#linearGradient4625)"/></a><a transform="translate(80.515697,16.640535)"><path d="m-104,175,0-2.97,1.67,0,1.67,0,0-1.55,0-1.55,3.35,0,3.35,0,0,1.55,0,1.55,1.69,0,1.69,0,0,2.97,0,2.97-6.71,0-6.71,0,0-2.97z" fill-rule="evenodd" stroke="#000" stroke-miterlimit="4" stroke-dasharray="none" stroke-width="0.5" fill="url(#linearGradient4625)"/></a><a transform="translate(95.851666,16.640535)"><path d="m-104,175,0-2.97,1.67,0,1.67,0,0-1.55,0-1.55,3.35,0,3.35,0,0,1.55,0,1.55,1.69,0,1.69,0,0,2.97,0,2.97-6.71,0-6.71,0,0-2.97z" fill-rule="evenodd" stroke="#000" stroke-miterlimit="4" stroke-dasharray="none" stroke-width="0.5" fill="url(#linearGradient4625)"/></a><a transform="translate(111.18764,16.640535)"><path d="m-104,175,0-2.97,1.67,0,1.67,0,0-1.55,0-1.55,3.35,0,3.35,0,0,1.55,0,1.55,1.69,0,1.69,0,0,2.97,0,2.97-6.71,0-6.71,0,0-2.97z" fill-rule="evenodd" stroke="#000" stroke-miterlimit="4" stroke-dasharray="none" stroke-width="0.5" fill="url(#linearGradient4625)"/></a><a transform="translate(65.179728,28.640535)"><path d="m-104,175,0-2.97,1.67,0,1.67,0,0-1.55,0-1.55,3.35,0,3.35,0,0,1.55,0,1.55,1.69,0,1.69,0,0,2.97,0,2.97-6.71,0-6.71,0,0-2.97z" fill-rule="evenodd" stroke="#000" stroke-miterlimit="4" stroke-dasharray="none" stroke-width="0.5" fill="url(#linearGradient4625)"/></a><a transform="translate(80.515697,28.640535)"><path d="m-104,175,0-2.97,1.67,0,1.67,0,0-1.55,0-1.55,3.35,0,3.35,0,0,1.55,0,1.55,1.69,0,1.69,0,0,2.97,0,2.97-6.71,0-6.71,0,0-2.97z" fill-rule="evenodd" stroke="#000" stroke-miterlimit="4" stroke-dasharray="none" stroke-width="0.5" fill="url(#linearGradient4625)"/></a><a transform="translate(95.851666,28.640535)"><path d="m-104,175,0-2.97,1.67,0,1.67,0,0-1.55,0-1.55,3.35,0,3.35,0,0,1.55,0,1.55,1.69,0,1.69,0,0,2.97,0,2.97-6.71,0-6.71,0,0-2.97z" fill-rule="evenodd" stroke="#000" stroke-miterlimit="4" stroke-dasharray="none" stroke-width="0.5" fill="url(#linearGradient4625)"/></a><a transform="translate(111.18764,28.640535)"><path d="m-104,175,0-2.97,1.67,0,1.67,0,0-1.55,0-1.55,3.35,0,3.35,0,0,1.55,0,1.55,1.69,0,1.69,0,0,2.97,0,2.97-6.71,0-6.71,0,0-2.97z" fill-rule="evenodd" stroke="#000" stroke-miterlimit="4" stroke-dasharray="none" stroke-width="0.5" fill="url(#linearGradient4625)"/></a></g></svg>
