<?xml version="1.0" encoding="UTF-8" standalone="no"?>
<svg xmlns:rdf="http://www.w3.org/1999/02/22-rdf-syntax-ns#" xmlns="http://www.w3.org/2000/svg" y="0px" xml:space="preserve" height="219px" viewBox="21.152 45.375 219 219" width="219px" version="1.1" enable-background="new 21.152 45.375 219 219" x="0px" xmlns:cc="http://creativecommons.org/ns#" xmlns:xlink="http://www.w3.org/1999/xlink" xmlns:dc="http://purl.org/dc/elements/1.1/"><metadata><rdf:RDF><cc:Work rdf:about=""><dc:format>image/svg+xml</dc:format><dc:type rdf:resource="http://purl.org/dc/dcmitype/StillImage"/><dc:title/></cc:Work></rdf:RDF></metadata>
<defs><filter id="filter4087"><feGaussianBlur stdDeviation="1.9238313"/></filter><linearGradient id="linearGradient3053" y2="74.24" gradientUnits="userSpaceOnUse" x2="139.3" gradientTransform="matrix(1.0522357,0,0,1.0522357,-7.7690067,-9.3331504)" y1="74.24" x1="124.5"><stop stop-color="#DADADA" offset="0"/><stop stop-color="#000" offset="0.1593"/><stop stop-color="#4A4A4A" offset="0.2198"/><stop stop-color="#999" offset="0.3901"/><stop stop-color="#3E3E3E" offset="0.489"/><stop stop-color="#242424" offset="0.7308"/><stop stop-color="#444" offset="0.8571"/><stop stop-color="#6B6B6B" offset="0.967"/></linearGradient></defs>
<filter>
	<feGaussianBlur stdDeviation="2"/>
</filter>
<path opacity="0.503" d="m136.4,53.38c-0.644,0.01684-1.384,0.1078-1.656,0.1562h-0.0937c-3.538,0.5882-6.007,3.014-6.031,5.906,0.0189,2.25,1.562,4.296,4.062,5.344,0.02,0.0063,0.0499,0.03125,0.0625,0.03125,0.00071,0.03397,0.008,0.07702,0,0.125l-0.9688,8.875h-14.75v7.5h-54.62v177.7h144.2v-177.7h-50.78v-7.5h-14.75l-0.9688-8.875c-0.006-0.04945-0.0176-0.125-0.0312-0.125,0.0168-0.01053,0.0538-0.01547,0.0937-0.03125,2.488-1.041,4.042-3.089,4.062-5.344-0.0252-2.888-2.523-5.317-6.062-5.906h-0.0937c-0.2725-0.04841-0.9695-0.1394-1.625-0.1562zm0,1.531c1.084,0,2.156,0.3116,2.469,0.4062,0.7608,0.2389,1.431,0.5946,2,1.031,1.09,0.847,1.688,1.936,1.688,3.094s-0.5984,2.279-1.688,3.125c-0.3988,0.3052-0.8355,0.5666-1.344,0.7812-0.0673,0.02946-0.1328,0.04145-0.1875,0.0625-0.2441,0.08628-0.4192,0.1531-0.6875,0.4688-0.3115,0.3725-0.2278,1.054-0.2188,1.125l0.9688,8.812h-6.031l0.9688-8.812c0.009-0.07681,0.0959-0.7525-0.2188-1.125-0.2641-0.3157-0.4465-0.3825-0.6875-0.4688-0.0547-0.01999-0.0867-0.03304-0.1562-0.0625-0.504-0.2147-0.9762-0.475-1.375-0.7812-1.091-0.846-1.688-1.966-1.688-3.125,0-1.158,0.5963-2.248,1.688-3.094,0.5682-0.4367,1.241-0.7924,2-1.031,0.3136-0.09575,1.414-0.4062,2.5-0.4062z" fill-opacity="0.50196081000000004" filter="url(#filter4087)" fill="#000"/><rect height="177.7" width="144.2" y="75.75" x="56.99" fill="#803300"/><polygon points="193.3,244.8,193.3,244.8,66.94,244.8,66.94,87.05,193.3,87.05" fill="#FFF" transform="matrix(1.0522357,0,0,1.0522357,-7.7690067,-9.3331504)"/><path fill="#808080" d="M123.9,89.97h-12.59c-0.9323-0.7755-0.9323-2.178,0-2.954h12.63c0.9312,0.7755,0.9312,2.178,0,2.954z"/><path fill="#808080" d="m138,89.97h12.63c0.9291-0.7755,0.9291-2.178,0-2.954h-12.63c-0.9291,0.7755-0.9291,2.178,0,2.954z"/><path fill="#4d4d4d" d="M111.6,68.25v19.8h13.48c1.579,0,0.8449,1.911,2.479,1.911h6.828c1.633,0,0.8997-1.911,2.479-1.911h13.47v-19.81h-38.74z"/><path fill="#1a1a1a" d="m131.9,88.05h-1.867c-1.577,0-0.846,1.911-2.479,1.911h6.828c-1.639,0.0011-0.9028-1.911-2.482-1.911z"/><path fill="url(#linearGradient3053)" d="m137.8,89.74c-0.9312,0-1.519-0.5608-1.665-1.577l-3.129-28.72c-0.009-0.0705-0.0884-0.745,0.2231-1.117,0.2683-0.3157,0.4356-0.3925,0.6797-0.4788,0.0547-0.02105,0.1094-0.03788,0.1768-0.06734,0.5082-0.2147,0.9628-0.4809,1.362-0.786,1.089-0.846,1.691-1.948,1.691-3.106,0-1.157-0.6019-2.26-1.692-3.107-0.5693-0.4367-1.241-0.7818-2.001-1.021-0.3125-0.0947-1.401-0.4156-2.484-0.4156-1.086,0-2.175,0.3199-2.489,0.4156-0.7587,0.2389-1.432,0.584-2,1.021-1.091,0.846-1.694,1.95-1.694,3.107,0,1.159,0.6029,2.26,1.694,3.106,0.3988,0.3062,0.8534,0.5714,1.357,0.786,0.0695,0.02946,0.1284,0.04735,0.1831,0.06734,0.241,0.08628,0.4114,0.1631,0.6755,0.4788,0.3146,0.3725,0.2315,1.047,0.222,1.124l-3.127,28.7c-0.141,1.026-0.7313,1.586-1.66,1.586-0.0463,0-0.0926-0.0011-0.1378-0.0021l-0.2483-0.01578v-1.55h0.2725c0.081,0,0.1315-0.0063,0.1547-0.01473-0.007-0.01052,0.0137-0.06419,0.0274-0.181l0.0221-0.1862,3.091-28.4c0.0105-0.05998,0.0168-0.1221,0.0116-0.1536-0.001,0.0063-0.005,0.0095-0.0137,0.0095-0.0126,0-0.0347-0.0095-0.0547-0.01578-2.5-1.048-4.054-3.09-4.073-5.34,0.0242-2.893,2.516-5.324,6.054-5.913l0.0842-0.01578c0.2725-0.0484,1.014-0.1189,1.658-0.1357,0.6555,0.01684,1.364,0.08733,1.636,0.1357l0.0842,0.01578c3.54,0.5893,6.028,3.02,6.054,5.908-0.021,2.255-1.574,4.296-4.062,5.337-0.04,0.01578-0.0789,0.03472-0.0958,0.04525,0.0137,0,0.0168,0.05998,0.0232,0.1094l3.097,28.41,0.02,0.1926c0.0158,0.1073,0.0347,0.161,0.0463,0.1841,0-0.0011,0.001-0.0011,0.005-0.0011,0.0168,0,0.0642,0.0063,0.1347,0.0063h0.2652l0.009,0.261v1.289l-0.2504,0.01578c-0.0473,0.0021-0.0926,0.0042-0.1368,0.0042z"/><path fill="#666" d="m137.5,88.01,0,0-0.0221-0.1926-3.091-28.4s-0.04-0.2136,0.004-0.2852c0.0515-0.08102,0.1357-0.1094,0.2252-0.1494,2.283-0.9554,3.875-2.829,3.893-5.096-0.02-2.862-2.557-5.108-5.829-5.653-0.1526-0.02525-0.9765-0.1905-1.685-0.2073-0.7134,0.01684-1.534,0.182-1.688,0.2073-3.271,0.544-5.808,2.789-5.831,5.653,0.0189,2.265,1.613,4.141,3.897,5.096,0.0873,0.03999,0.1705,0.0684,0.2231,0.1494,0.0442,0.07155,0.008,0.2852,0.008,0.2852l-3.094,28.4-0.0221,0.1926c-0.0358,0.2809-0.1052,0.3378-0.1336,0.362-0.0316,0.02631-0.1242,0.06419-0.3241,0.06208v1.042c0.7902,0.04419,1.375-0.3209,1.516-1.348l3.132-28.71s0.0852-0.6282-0.1642-0.927c-0.3083-0.3641-0.4314-0.3315-0.7566-0.4714-0.5282-0.2231-1.005-0.4998-1.421-0.8186-1.134-0.8776-1.795-2.042-1.795-3.311,0-1.268,0.6608-2.433,1.795-3.311,0.585-0.4504,1.296-0.8155,2.086-1.063,0.3756-0.1168,1.472-0.4272,2.569-0.4272,1.091,0,2.194,0.3104,2.564,0.4272,0.7934,0.2473,1.503,0.6124,2.087,1.063,1.133,0.8786,1.797,2.044,1.797,3.311,0,1.269-0.664,2.434-1.797,3.311-0.4135,0.3188-0.8923,0.5956-1.414,0.8186-0.3283,0.1389-0.4514,0.1073-0.7597,0.4714-0.2494,0.2988-0.1662,0.927-0.1662,0.927l3.131,28.71c0.1389,1.027,0.725,1.393,1.519,1.348v-1.042c-0.1989,0.0011-0.2946-0.03578-0.3251-0.06208-0.0274-0.0242-0.0936-0.08102-0.1294-0.362z"/><path fill="#FFF" d="m125.4,56.37c0.8744,0.9933,2.175,1.579,2.404,1.677,0.4335,0.1884,0.9449,0.261,0.8313,1.435-0.1158,1.173-0.5103,4.551-0.6229,5.484,0.201-2.738,0.5366-5.664,0.4472-6.057-0.0905-0.3893-0.2757-0.4483-0.8102-0.7313-0.5293-0.282-1.634-0.987-2.25-1.809z"/><path fill="#FFF" d="m124.9,50.73c-1.055,1.243-1.852,3.102-0.6334,5.358-0.6829-1.872-0.6187-3.11,0.6334-5.358z"/><path fill="#FFF" d="m134.3,58c-0.8123,0.2483-1.08,0.5861-0.968,1.618,0.1094,1.032,0.2788,2.497,0.3546,3.117-0.1242-1.978-0.342-3.258-0.2673-3.66,0.08-0.402,0.0453-0.6187,0.8807-1.075z"/><path fill="#FFF" d="m126.9,65.44c-0.282,2.768-2.234,20.98-2.417,22.37,0.0421,0.1326,0.0821,0.181,0.1178,0.403,0.3662-3.795,2.299-22.78,2.299-22.78z"/><path fill="#333" d="m124.5,56.79c1.13,0.8734,1.509,0.624,2.029,0.9817,0.4514,0.3073,1.453,0.6787,1.704,0.9228,0.1978,0.1957,0.2104,0.3272,0.1442,0.9617-0.0652,0.6366-2.936,27.53-3.067,28.35-0.1347,0.825-0.5261,0.9554-0.7155,1.03,0.08-0.1894,0.0642-0.2494,0.0915-0.5535,0.1694-1.518,2.912-28.89,2.945-29.18,0.0347-0.2936-0.1242-0.2567-0.3325-0.3357-0.2588-0.09786-1.848-0.8576-2.798-2.177z"/><path fill="#FFF" d="m136.2,58.07c1.064-0.7713,2.174-1.995,2.293-4.063,0.1642-2.965-2.36-4.789-4.793-5.593-2.624-0.8681-6.161-0.3914-8.12,1.487,2.694-1.748,4.526-1.638,6.765-1.444,2.234,0.1957,4.58,2.031,5.345,3.823,0.6524,1.52,0.7671,4.101-1.519,5.624-0.6545,0.4388-1.79,0.9723-1.966,1.104-0.2168,0.1641-0.5482,0.3735-0.383,1.547,0.1663,1.174,2.953,26.93,3.038,27.5,0.0831,0.5703,0.2799,0.7334,0.4819,0.847-0.0347-0.1957-0.0347-0.4388-0.0179-0.6829-0.1221-0.8797-2.954-28.48-2.966-28.8-0.0252-0.3935,0.7839-0.5377,1.842-1.35z"/><path fill="#FFF" d="m128.4,59.45c0,1.826-2.646,25.83-3.049,28.48,0.624-7.213,2.446-23.94,3.049-28.48z"/><path fill="#b3b3b3" d="m136.9,51.97c1.068,1.334,1.068,3.81-1.257,5.228,1.757-1.352,2.225-3.371,1.257-5.228z"/><line stroke-width="4.209" x1="130.7" x2="184.8" stroke="#5f6062" y1="119.5" y2="119.5" fill="#FFF"/><line stroke-width="4.209" x1="130.7" x2="184.8" stroke="#5f6062" y1="167.9" y2="167.9" fill="#FFF"/><line stroke-width="4.209" x1="131.1" x2="185.2" stroke="#5f6062" y1="215.8" y2="215.8" fill="#FFF"/><g transform="matrix(1.0522357,0,0,1.0522357,-7.7690067,-9.3331504)">
	<path d="m120.1,181.9c0,3.994-3.318,7.232-7.407,7.232h-20.22c-4.091,0-7.405-3.238-7.405-7.232v-20.3c0-3.994,3.314-7.231,7.405-7.231h20.18c4.089,0,7.407,3.238,7.407,7.231v20.3z" stroke="#c5c6c8" stroke-width="2" fill="#5f6062"/>
</g><g transform="matrix(1.0522357,0,0,1.0522357,-7.7690067,-9.3331504)">
	<path d="m119.7,136.5c0,3.994-3.318,7.231-7.407,7.231h-20.17c-4.089,0-7.404-3.237-7.404-7.231v-20.3c0-3.995,3.315-7.233,7.404-7.233h20.18c4.089,0,7.407,3.238,7.407,7.233v20.3z" stroke="#c5c6c8" stroke-width="2" fill="#5f6062"/>
</g><path d="m116.1,131.4c0,4.204-3.493,7.611-7.797,7.611h-21.27c-4.302,0-7.79-3.407-7.79-7.611v-21.36c0-4.204,3.488-7.611,7.79-7.611h21.24c4.304,0,7.797,3.407,7.797,7.611v21.36z" stroke="#5f6062" stroke-width="4.20894289" fill="#FFF"/><path d="m116.7,180.1c0,4.204-3.491,7.611-7.795,7.611h-21.25c-4.302,0-7.791-3.407-7.791-7.611v-21.36c0-4.205,3.489-7.61,7.791-7.61h21.24c4.304,0,7.795,3.406,7.795,7.61v21.36z" stroke="#5f6062" stroke-width="4.20894289" fill="#FFF"/><g opacity="0.8" transform="matrix(1.0522357,0,0,1.0522357,-7.7690067,-9.3331504)">
	<path fill="#0d0c0d" d="m82.28,162.7,15.17,28.83s5.402,5.89,10.8,0c5.407-5.886,8.313-42.03,34.09-65.78,0,0,0-2.028-1.04-1.217,0,0-29.93,25.78-37.62,58.47,0,0-2.493,2.235-3.741-1.418-1.242-3.659-12.89-23.96-12.89-23.96s-6.027-1.221-4.779,5.073z"/>
</g><path d="m77.33,156.8,15.97,30.34s5.683,6.195,11.37,0c5.688-6.197,8.747-44.22,35.87-69.22,0,0,0-2.134-1.09-1.28,0,0-31.49,27.13-39.59,61.53,0,0-2.624,2.351-3.937-1.493-1.306-3.85-13.56-25.21-13.56-25.21s-6.342-1.285-5.029,5.338z" stroke="#c81111" stroke-width="2.10447145000000010" fill="#ee3424"/><g transform="matrix(1.0522357,0,0,1.0522357,-7.7690067,-9.3331504)">
	<path d="m119.7,225.6c0,3.994-3.317,7.233-7.407,7.233h-20.18c-4.089,0-7.404-3.239-7.404-7.233v-20.3c0-3.994,3.315-7.231,7.404-7.231h20.18c4.09,0,7.407,3.237,7.407,7.231v20.3z" stroke="#c5c6c8" stroke-width="2" fill="#5f6062"/>
</g><path d="m116.7,228.1c0,4.203-3.491,7.609-7.793,7.609h-21.2c-4.303,0-7.79-3.406-7.79-7.609v-21.36c0-4.203,3.487-7.609,7.79-7.609h21.24c4.302,0,7.793,3.406,7.793,7.609v21.36z" stroke="#5f6062" stroke-width="4.20894289" fill="#FFF"/>
</svg>
