<?xml version="1.0" encoding="UTF-8" standalone="no"?>
<svg id="svg2" xmlns:rdf="http://www.w3.org/1999/02/22-rdf-syntax-ns#" xmlns="http://www.w3.org/2000/svg" enable-background="new -0.084 -0.083 205 207" xml:space="preserve" height="207px" width="205px" version="1.1" y="0px" x="0px" xmlns:cc="http://creativecommons.org/ns#" xmlns:xlink="http://www.w3.org/1999/xlink" viewBox="-0.084 -0.083 205 207" xmlns:dc="http://purl.org/dc/elements/1.1/"><metadata id="metadata271"><rdf:RDF><cc:Work rdf:about=""><dc:format>image/svg+xml</dc:format><dc:type rdf:resource="http://purl.org/dc/dcmitype/StillImage"/><dc:title/></cc:Work></rdf:RDF></metadata>
<defs id="defs4"><filter id="filter4034"><feGaussianBlur id="feGaussianBlur4036" stdDeviation="1.8956842"/></filter><linearGradient id="linearGradient4044" y2="-7.3492" gradientUnits="userSpaceOnUse" x2="-203.06" gradientTransform="translate(185.41872,-12.710154)" y1="199" x1="-5.9564"><stop id="stop4040" stop-color="#046637" offset="0"/><stop id="stop4042" stop-color="#96e8c2" offset="1"/></linearGradient></defs>
<g id="g4065" transform="matrix(1.0748564,0,0,1.0748564,-6.335676,-8.429733)"><path id="path267-7" opacity="0.5" d="m194.82,191.53c0,2.6407-2.0596,4.7812-4.5999,4.7812h-162.29c-2.5412,0-4.6008-2.1406-4.6008-4.7812v-163.62c0-2.6407,2.0596-4.7812,4.6008-4.7812h162.29c2.5403,0,4.5999,2.1406,4.5999,4.7812v163.62z" filter="url(#filter4034)" stroke-miterlimit="4" stroke-width="0" fill="#000"/><path id="path239" d="m186.47,184.36c0,2.6407-2.0596,4.7812-4.5999,4.7812h-162.29c-2.5412,0-4.6008-2.1405-4.6008-4.7812v-163.61c0-2.6407,2.0596-4.7812,4.6008-4.7812h162.29c2.5403,0,4.5999,2.1406,4.5999,4.7812v163.62z" fill="url(#linearGradient4044)"/><path id="path241" d="m15.727,120.54v-13.001h67.566c3.1585-12.433,14.921-20.539,27.45-18.923,12.53,1.6185,21.923,12.454,21.923,25.298,0,12.842-9.393,23.676-21.923,25.295-12.53,1.6176-24.292-6.4874-27.45-18.92l-67.566,0.2505zm91.856,6.1239c6.9268,0,12.541-5.709,12.541-12.749,0-7.0441-5.6145-12.749-12.541-12.749-6.926,0-12.545,5.7056-12.545,12.749,0,7.0398,5.6187,12.749,12.545,12.749z" fill="#e89931"/><path id="path243" d="m16.556,169.51v-9.3111h48.39c2.262-8.9054,10.685-14.71,19.66-13.552,8.9755,1.1597,15.702,8.9198,15.702,18.118,0,9.1964-6.727,16.957-15.702,18.116-8.9746,1.158-17.398-4.6471-19.66-13.55l-48.39,0.1788zm65.785,4.3857c4.9617,0,8.9831-4.0888,8.9831-9.1306,0-5.0444-4.0213-9.1307-8.9831-9.1307-4.96,0-8.9831,4.0863-8.9831,9.1307,0,5.0418,4.023,9.1306,8.9831,9.1306z" fill="#e89931"/><path id="path245" d="M28.967,72.682c7.73-7.815,15.449-15.639,23.179-23.456-9.881-16.961,12.217-34.287,25.973-20.361,13.745,13.917-3.37,36.287-20.122,26.286-5.773,5.843-11.546,11.686-17.319,17.532h91.06c4.8673-19.06,32.592-15.493,32.592,4.1993,0,19.681-27.724,23.247-32.592,4.1875h-116.01l0.03458-8.6626,13.206,0.27495zm118.8,12.575c4.5754,0,8.2847-3.7548,8.2847-8.3758,0-4.6336-3.7093-8.3868-8.2847-8.3868-4.5662,0-8.2746,3.754-8.2746,8.3868,0,4.621,3.7076,8.3758,8.2746,8.3758zm-81.363-36.158c4.5763,0,8.2746-3.754,8.2746-8.3876,0-4.6218-3.6983-8.3767-8.2746-8.3767-4.5754,0-8.2847,3.7548-8.2847,8.3767,0.000843,4.6336,3.7093,8.3876,8.2847,8.3876z" fill="#e89931"/><path id="path247" d="m187.22,149.22-0.0177,8.8034-17.865-0.0877c-2.4138,8.9055-11.404,14.71-20.985,13.552-9.5785-1.1597-16.758-8.9198-16.758-18.117,0-9.1964,7.1799-16.957,16.759-18.116,9.5785-1.158,18.57,4.6471,20.984,13.55l17.883,0.4158zm-36.45-4.9803c-5.2957,0-9.5869,4.0888-9.5869,9.1307,0,5.0444,4.2912,9.1298,9.5869,9.1298,5.2949,0,9.5895-4.0854,9.5895-9.1298,0-5.0427-4.2938-9.1307-9.5895-9.1307z" fill="#e89931"/><path id="path249" d="m187.22,48.157v-4.3224l-32.017,0.01265c-5.2561-5.1692-10.516-10.341-15.772-15.51h-25.06c-1.1824-4.1006-5.2797-6.6941-9.5642-6.0565-4.2836,0.63677-7.416,4.3064-7.3148,8.5664,0.1029,4.2592,3.4107,7.7795,7.7196,8.2147,4.3098,0.43604,8.2763-2.3463,9.2614-6.4959h23.174c5.2578,5.17,10.516,10.341,15.775,15.511l33.798,0.08013zm-81.13-13.281c-2.3759,0-4.3014-1.8934-4.3014-4.2305s1.9246-4.2305,4.3014-4.2305c2.375,0,4.3005,1.8934,4.3005,4.2305-0.00084,2.3371-1.9255,4.2305-4.3005,4.2305z" fill="#e89931"/><g id="g251" transform="matrix(0.84340024,0,0,0.84340024,14.953122,15.193906)">
	<g id="g253">
		<path id="path255" d="m0.916,127.91v-15.415h80.735c3.821-14.742,18.05-24.353,33.208-22.436,15.159,1.919,26.521,14.767,26.521,29.995,0,15.226-11.362,28.072-26.521,29.992-15.158,1.918-29.387-7.692-33.208-22.433l-80.735,0.297zm110.12,7.261c8.38,0,15.172-6.769,15.172-15.116,0-8.352-6.792-15.116-15.172-15.116-8.379,0-15.176,6.765-15.176,15.116,0,8.347,6.797,15.116,15.176,15.116z" fill="#bc6a20"/>
		<path id="path257" d="m1.167,185.98v-11.04h57.968c2.757-10.559,13.024-17.441,23.963-16.068,10.938,1.375,19.137,10.576,19.137,21.482,0,10.904-8.199,20.105-19.137,21.48-10.938,1.373-21.206-5.51-23.963-16.066l-57.968,0.212zm79.335,5.2c6.003,0,10.867-4.848,10.867-10.826,0-5.981-4.864-10.826-10.867-10.826-6.001,0-10.868,4.845-10.868,10.826,0,5.978,4.866,10.826,10.868,10.826z" fill="#bc6a20"/>
		<path id="path259" d="M16.598,71.167c9.313-9.266,18.615-18.543,27.927-27.811-11.905-20.11,14.72-40.653,31.293-24.141,16.56,16.5-4.06,43.024-24.244,31.166-6.955,6.928-13.911,13.856-20.865,20.787h109.71c5.864-22.599,39.268-18.37,39.268,4.979,0,23.335-33.403,27.564-39.268,4.965l-139.5,0.222,0.042-10.375,15.641,0.208zm143.14,14.91c5.513,0,9.982-4.452,9.982-9.931,0-5.494-4.47-9.944-9.982-9.944-5.5,0-9.969,4.451-9.969,9.944,0.001,5.479,4.469,9.931,9.969,9.931zm-98.032-42.872c5.514,0,9.969-4.451,9.969-9.945,0-5.48-4.455-9.932-9.969-9.932-5.513,0-9.982,4.452-9.982,9.932,0,5.493,4.469,9.945,9.982,9.945z" fill="#bc6a20"/>
		<path id="path261" d="m204.17,161.55,0.083,10.703-21.327,0.006c-2.7,10.559-12.751,17.441-23.461,16.068-10.708-1.375-18.735-10.576-18.735-21.481,0-10.904,8.027-20.105,18.735-21.48,10.71-1.373,20.761,5.51,23.461,16.066l21.244,0.118zm-42.003-5.53c-5.921,0-10.719,4.848-10.719,10.826,0,5.981,4.798,10.825,10.719,10.825,5.92,0,10.721-4.844,10.721-10.825,0-5.979-4.801-10.826-10.721-10.826z" fill="#bc6a20"/>
		<g id="g263">
			<path id="path265" d="m203.33,41.125,0.042-5.167-37.917,0.019c-6.04-6.129-12.083-12.261-18.125-18.39h-28.798c-1.358-4.862-6.066-7.937-10.99-7.181-4.923,0.755-8.523,5.106-8.406,10.157,0.118,5.05,3.92,9.224,8.872,9.74s9.512-2.782,10.643-7.702h26.632c6.042,6.13,12.084,12.261,18.128,18.391l39.919,0.133zm-94.31-15.784c-2.73,0-4.942-2.245-4.942-5.016s2.212-5.016,4.942-5.016c2.729,0,4.942,2.245,4.942,5.016,0.001,2.771-2.212,5.016-4.942,5.016z" fill="#bc6a20"/>
		</g>
	</g>
</g><path id="path267" d="m187.08,184.22c0,2.6407-2.0596,4.7812-4.5999,4.7812h-162.29c-2.5412,0-4.6007-2.1406-4.6007-4.7812v-163.61c0-2.6407,2.0596-4.7812,4.6007-4.7812h162.29c2.5403,0,4.5999,2.1406,4.5999,4.7812v163.62z" stroke="#0b9952" stroke-width="1.26510036" fill="none"/></g>
</svg>