<?xml version="1.0" encoding="UTF-8" standalone="no"?>
<svg
   xmlns:dc="http://purl.org/dc/elements/1.1/"
   xmlns:cc="http://creativecommons.org/ns#"
   xmlns:rdf="http://www.w3.org/1999/02/22-rdf-syntax-ns#"
   xmlns:svg="http://www.w3.org/2000/svg"
   xmlns="http://www.w3.org/2000/svg"
   xmlns:sodipodi="http://sodipodi.sourceforge.net/DTD/sodipodi-0.dtd"
   xmlns:inkscape="http://www.inkscape.org/namespaces/inkscape"
   id="svg2"
   enable-background="new 21.027 45.083 219 219"
   xml:space="preserve"
   height="219px"
   width="219px"
   version="1.1"
   y="0px"
   x="0px"
   viewBox="21.027 45.083 219 219"
   inkscape:version="0.47 r22583"
   sodipodi:docname="trainingprogram.svg"><sodipodi:namedview
     pagecolor="#ffffff"
     bordercolor="#666666"
     borderopacity="1"
     objecttolerance="10"
     gridtolerance="10"
     guidetolerance="10"
     inkscape:pageopacity="0"
     inkscape:pageshadow="2"
     inkscape:window-width="1600"
     inkscape:window-height="1178"
     id="namedview2927"
     showgrid="false"
     inkscape:zoom="2.348478"
     inkscape:cx="74.786228"
     inkscape:cy="114.78814"
     inkscape:window-x="1272"
     inkscape:window-y="-8"
     inkscape:window-maximized="1"
     inkscape:current-layer="svg2" /><metadata
     id="metadata336"><rdf:RDF><cc:Work
         rdf:about=""><dc:format>image/svg+xml</dc:format><dc:type
           rdf:resource="http://purl.org/dc/dcmitype/StillImage" /><dc:title></dc:title></cc:Work></rdf:RDF></metadata><defs
     id="defs4"><inkscape:perspective
       sodipodi:type="inkscape:persp3d"
       inkscape:vp_x="0 : 109.5 : 1"
       inkscape:vp_y="0 : 1000 : 0"
       inkscape:vp_z="219 : 109.5 : 1"
       inkscape:persp3d-origin="109.5 : 73 : 1"
       id="perspective2929" /><filter
       id="filter4258"><feGaussianBlur
         id="feGaussianBlur4260"
         stdDeviation="1.9164803" /></filter></defs><path
     style="fill:#b3a59f;stroke:none"
     d="m 42.489285,147.70148 c -9.27553,7.04004 -1.143425,20.14854 -1.143425,20.14854 l 88.74158,55.95691 98.99925,-29.90396 c 0,0 -2.71797,-16.77681 -1.04578,-20.8508 1.67205,-4.06919 -113.48905,-48.19019 -113.48905,-48.19019 0,0 -67.032495,18.44708 -72.059399,22.8406 z"
     id="path272" /><path
     style="fill:#725a51;fill-opacity:1;fill-rule:nonzero;stroke:none"
     d="m 42.5,145.78125 -0.0625,1.5625 c -5.227031,3.32522 -6.663491,8.42963 -6.5625,12.625 0.105117,4.36676 1.65625,7.90625 1.65625,7.90625 l 0.125,0.28125 0.25,0.1875 c 0,0 24.102609,16.16859 47.71875,31.4375 11.808071,7.63445 23.48556,15.04421 32,20.09375 4.25722,2.52477 7.69607,4.46247 10.03125,5.5625 1.16759,0.55002 2.0066,0.88932 2.78125,1 0.19366,0.0277 0.40464,0.044 0.65625,0 0.25161,-0.044 0.60014,-0.17042 0.84375,-0.5 0.24361,-0.32958 0.25916,-0.73707 0.21875,-1 -0.0259,-0.16865 -0.0714,-0.28154 -0.125,-0.40625 -3.24023,-11.8357 -1.1875,-19.40625 -1.1875,-19.40625 l 0.21875,-0.78125 -0.65625,-0.40625 c 0,0 -20.22901,-13.29675 -41.125,-27.0625 -10.447993,-6.88287 -21.063362,-13.88283 -29.40625,-19.40625 -8.342888,-5.52342 -14.444988,-9.59231 -15.71875,-10.5 L 42.5,145.78125 z m 1.0625,3.375 c 1.736698,1.21537 7.126161,4.82936 15.125,10.125 8.345454,5.52512 18.957527,12.52289 29.40625,19.40625 20.62876,13.58971 40.08368,26.35239 40.59375,26.6875 -0.24521,1.03847 -1.63292,7.81157 1.03125,18.53125 -0.38121,-0.13975 -0.55334,-0.16821 -1.125,-0.4375 -2.19314,-1.03312 -5.6433,-2.92786 -9.875,-5.4375 -8.4634,-5.01927 -20.140351,-12.43511 -31.9375,-20.0625 C 63.344464,182.8158 39.724582,166.96379 39.40625,166.75 c -0.148449,-0.3588 -1.287123,-3.16191 -1.375,-6.8125 -0.08989,-3.73423 0.984012,-7.90041 5.53125,-10.78125 z"
     id="path274" /><path
     style="fill:#fffaf8;stroke:none"
     d="m 129.82121,204.82936 c 1.15917,-1.75299 98.1612,-30.59547 98.1612,-30.59547 0,0 -0.82597,10.41272 2.39715,20.95962 -8.89314,3.12467 -100.19491,29.90525 -100.19491,29.90525 0,0 -2.18662,-7.94678 -0.36434,-20.26943 z"
     id="path276" /><path
     style="fill:#c6c6c6;fill-opacity:1;stroke:none"
     d="m 221.375,181.03125 -87,26.5 0.15625,0.5 87,-26.5 -0.15625,-0.5 z"
     id="line280" /><path
     style="fill:#c6c6c6;fill-opacity:1;stroke:none"
     d="m 212.15625,191.65625 -76.96875,23.40625 0.15625,0.5 76.96875,-23.40625 -0.15625,-0.5 z"
     id="line282" /><path
     style="fill:#c6c6c6;fill-opacity:1;stroke:none"
     d="m 214.40625,187.09375 -79.15625,23.9375 0.15625,0.53125 79.15625,-23.9375 -0.15625,-0.53125 z"
     id="line284" /><path
     style="fill:#c6c6c6;fill-opacity:1;stroke:none"
     d="m 220.3125,194.3125 -84.28125,24.84375 0.15625,0.5 84.28125,-24.8125 -0.15625,-0.53125 z"
     id="line286" /><path
     style="fill:#725a51;fill-opacity:1;fill-rule:nonzero;stroke:none"
     d="m 114.59375,123.71875 -0.3125,0.0937 c 0,0 -16.787798,4.61637 -34.1875,9.78125 -8.699851,2.58244 -17.549067,5.30153 -24.5625,7.65625 -3.506716,1.17736 -6.559797,2.2809 -8.90625,3.21875 -2.025122,0.80942 -3.228754,1.38392 -4.1875,2.0625 l -0.125,-0.0312 -0.46875,0.34375 c -0.01229,0.0105 -0.05042,0.0207 -0.0625,0.0312 l 0.03125,0.0312 c -4.959963,3.80585 -5.353311,9.36068 -4.4375,13.71875 0.919384,4.37508 3.0625,7.78125 3.0625,7.78125 l 0.125,0.21875 0.21875,0.125 88.71875,55.96875 0.4375,0.25 0.46875,-0.125 99,-29.90625 0.90625,-0.28125 -0.15625,-0.9375 c 0,0 -0.6897,-4.1482 -1.15625,-8.8125 -0.23328,-2.33215 -0.41833,-4.78297 -0.4375,-6.875 -0.0192,-2.09203 0.18842,-3.87953 0.46875,-4.5625 0.1458,-0.35482 0.12462,-0.74255 0.0312,-1 -0.0934,-0.25745 -0.23926,-0.43071 -0.375,-0.59375 -0.27147,-0.32607 -0.58502,-0.60442 -1,-0.90625 -0.82997,-0.60367 -2.01439,-1.28385 -3.53125,-2.09375 -3.03373,-1.61979 -7.42643,-3.70299 -12.71875,-6.0625 -10.58464,-4.71901 -24.82842,-10.60315 -39.125,-16.375 -28.59316,-11.5437 -57.375,-22.59375 -57.375,-22.59375 l -0.34375,-0.125 z M 114.5,126 c 0.33839,0.12967 28.63132,10.97181 57.03125,22.4375 14.28469,5.76705 28.49344,11.64562 39.03125,16.34375 5.2689,2.34907 9.6184,4.39681 12.5625,5.96875 1.47205,0.78597 2.60799,1.47906 3.28125,1.96875 0.2824,0.2054 0.43421,0.33781 0.53125,0.4375 -0.41318,1.30252 -0.54929,2.90601 -0.53125,4.875 0.0202,2.19943 0.23156,4.72245 0.46875,7.09375 0.4246,4.24488 0.91154,7.24362 1.03125,8 L 130.25,222.65625 42.15625,167.09375 c -0.161397,-0.267 -1.865859,-3.14501 -2.65625,-6.90625 -0.827786,-3.93918 -0.603799,-8.39166 3.65625,-11.625 l 0,-0.0312 0.03125,-0.0312 c 0.32199,-0.28142 1.968432,-1.11933 4.25,-2.03125 2.281568,-0.91192 5.296762,-1.98636 8.78125,-3.15625 6.968977,-2.33979 15.813364,-5.07773 24.5,-7.65625 C 97.917617,130.55098 114.16868,126.09122 114.5,126 z"
     id="path2963" /><path
     style="fill:#efdcd8"
     d="m 128.74707,204.07363 -84.267701,-56.44325 2.729676,-0.6904 85.256545,56.19188 z"
     id="polygon294" /><path
     style="fill:#725a51;fill-opacity:1;stroke:none"
     d="m 229.1875,172.75 -1.5,0.4375 c 0,0 -24.25633,7.22513 -48.65625,14.65625 -12.19996,3.71556 -24.45309,7.48423 -33.71875,10.4375 -4.63283,1.47664 -8.50168,2.7567 -11.28125,3.71875 -1.38978,0.48102 -2.51013,0.86874 -3.3125,1.1875 -0.40119,0.15938 -0.73927,0.31047 -1,0.4375 -0.0839,0.0409 -0.14309,0.0825 -0.21875,0.125 l -0.59375,-0.0312 -0.15625,0.9375 c -1.85036,12.51256 0.40625,20.71875 0.40625,20.71875 l 0.28125,1.0625 1.0625,-0.3125 c 0,0 22.81129,-6.69504 46.75,-13.78125 23.93871,-7.08621 48.87352,-14.49945 53.5,-16.125 l 0.96875,-0.34375 -0.3125,-1 c -3.15008,-10.30789 -2.34375,-20.5625 -2.34375,-20.5625 l 0.125,-1.5625 z m -2.28125,2.9375 c -0.11143,1.96394 -0.36261,9.61504 2.21875,18.78125 -4.88748,1.67335 -28.94068,8.84785 -52.46875,15.8125 -23.34343,6.91 -44.53679,13.11827 -45.625,13.4375 -0.32817,-1.3552 -1.6675,-7.62707 -0.1875,-18.21875 0.17554,-0.0806 0.35334,-0.19216 0.65625,-0.3125 0.74591,-0.29633 1.8452,-0.68085 3.21875,-1.15625 2.7471,-0.95081 6.62588,-2.21364 11.25,-3.6875 9.24823,-2.94772 21.49206,-6.72332 33.6875,-10.4375 23.70218,-7.21862 45.93799,-13.8285 47.25,-14.21875 z"
     id="BOTTOMBOOK" /><path
     style="fill:#7686c2;stroke:none"
     d="m 30.90048,114.99336 c -7.30461,5.5891 -0.82652,15.86555 -0.82652,15.86555 l 70.32989,43.60524 78.08856,-24.045 c 0,0 -2.21604,-13.19668 -0.9107,-16.4131 1.30631,-3.21259 -89.848224,-37.363993 -89.848224,-37.363993 0,0 -52.880096,14.865473 -56.833046,18.351303 z"
     id="path296" /><path
     style="fill:#7686c2;stroke:none"
     d="m 31.71479,115.08978 c 4.29482,3.01195 68.08802,43.41054 68.08802,43.41054 0,0 -2.406364,6.88048 1.31515,16.74837 3.08885,5.76794 -73.28797,-44.7006 -73.28797,-44.7006 0,0 -4.64247,-10.53586 3.88453,-15.45932 z"
     id="path298" /><path
     style="fill:#ffffff;stroke:none"
     d="m 100.11569,159.52799 c 0.91012,-1.38466 77.0501,-24.29477 77.0501,-24.29477 0,0 0.086,8.65673 2.35284,16.20069 -7.01635,2.50361 -78.94238,23.90228 -78.94238,23.90228 0,0 -3.192976,-10.81807 -0.461,-15.80822 z" /><path
     style="fill:#c6c6c6;stroke:none"
     d="m 171.25,140.90625 -68.375,21.25 0.15625,0.5 68.375,-21.25 -0.15625,-0.5 z"
     id="line304" /><path
     style="fill:#c6c6c6;stroke:none"
     d="m 164.5625,150.40625 -60.5,18.75 0.15625,0.53125 60.5,-18.78125 -0.15625,-0.5 z" /><path
     style="fill:#c6c6c6;stroke:none"
     d="m 166.3125,146.375 -62.1875,19.1875 0.15625,0.5 62.1875,-19.1875 -0.15625,-0.5 z"
     id="line308" /><path
     style="fill:#4d5b87;stroke:none"
     d="m 32.40625,113.4375 -1.21875,0.71875 c -4.62543,2.67071 -5.78923,7.04231 -5.6875,10.53125 0.10173,3.48894 1.34375,6.28125 1.34375,6.28125 l 0.125,0.3125 0.28125,0.15625 c 0,0 19.09342,12.62812 37.8125,24.53125 9.35954,5.95156 18.623398,11.72099 25.375,15.65625 3.375801,1.96763 6.10468,3.48285 7.96875,4.34375 0.932035,0.43045 1.578892,0.72158 2.25,0.8125 0.16778,0.0227 0.35961,0.0113 0.59375,-0.0312 0.23414,-0.0426 0.57782,-0.1794 0.8125,-0.5 0.23468,-0.3206 0.25801,-0.69127 0.21875,-0.9375 -0.0302,-0.18946 -0.0951,-0.31085 -0.15625,-0.4375 -1.80446,-4.78468 -2.0993,-8.82936 -1.96875,-11.65625 0.13055,-2.82689 0.65625,-4.375 0.65625,-4.375 l 0.28125,-0.78125 -0.71875,-0.46875 c 0,0 -15.953274,-10.1182 -32.4375,-20.59375 -8.24211,-5.23778 -16.60455,-10.54012 -23.1875,-14.75 -6.42071,-4.10613 -10.95841,-7.06045 -12.09375,-7.84375 l -0.25,-0.96875 z m -0.625,2.96875 c 1.47223,1.00469 5.5867,3.67477 11.8125,7.65625 6.5862,4.21196 14.94446,9.54288 23.1875,14.78125 16.154787,10.2662 31.159239,19.76233 31.78125,20.15625 -0.203861,0.77806 -0.465941,2.03414 -0.5625,4.125 -0.127343,2.75745 0.286724,6.62516 1.71875,11.03125 -0.185709,-0.076 -0.191055,-0.0569 -0.40625,-0.15625 -1.721563,-0.79508 -4.462343,-2.26607 -7.8125,-4.21875 -6.700313,-3.90536 -15.932691,-9.68042 -25.28125,-15.625 -18.55678,-11.79992 -37.21667,-24.12531 -37.5,-24.3125 -0.1563,-0.37792 -0.98235,-2.46985 -1.0625,-5.21875 -0.0834,-2.86059 0.70528,-5.97784 4.125,-8.21875 z"
     id="path3786" /><path
     style="fill:#4d5b87;stroke:none"
     d="m 178.21875,133.78125 -1.375,0.40625 c 0,0 -19.03422,5.75425 -38.1875,11.65625 -9.57664,2.951 -19.16266,5.9359 -26.4375,8.28125 -3.63742,1.17268 -6.68969,2.17285 -8.875,2.9375 -1.09265,0.38233 -1.98909,0.71355 -2.625,0.96875 -0.31795,0.1276 -0.56732,0.23857 -0.78125,0.34375 -0.03423,0.0168 -0.06124,0.0456 -0.09375,0.0625 L 99.5,158.40625 99.15625,159 c -1.608649,2.93831 -1.37531,7.01949 -0.90625,10.4375 0.46906,3.41801 1.28125,6.21875 1.28125,6.21875 l 0.3125,1.03125 1.03125,-0.3125 c 0,0 17.98354,-5.36813 36.84375,-11.03125 18.86021,-5.66312 38.46543,-11.58927 42.15625,-12.90625 l 0.96875,-0.34375 -0.28125,-0.96875 c -2.20356,-7.33337 -2.3125,-15.90625 -2.3125,-15.90625 l -0.0312,-1.4375 z m -2.03125,2.90625 c 0.0476,1.78537 0.31672,7.58395 2.0625,14 -3.94406,1.36286 -22.70612,7.05377 -41.15625,12.59375 -18.27968,5.4888 -34.63597,10.37461 -35.6875,10.6875 -0.20018,-0.72571 -0.66708,-2.15882 -1.03125,-4.8125 -0.4309,-3.13994 -0.397975,-6.78333 0.625,-8.875 0.13216,-0.062 0.2831,-0.15042 0.53125,-0.25 0.57941,-0.23252 1.4236,-0.56086 2.5,-0.9375 2.1528,-0.75328 5.21506,-1.73639 8.84375,-2.90625 7.25738,-2.33973 16.86538,-5.33164 26.4375,-8.28125 18.49917,-5.70044 35.65636,-10.85191 36.875,-11.21875 z"
     id="path300" /><path
     style="fill:#4d5b87;fill-opacity:1;fill-rule:nonzero;stroke:none"
     d="m 87.78125,95.5 -0.34375,0.09375 c 0,0 -13.210204,3.718921 -26.9375,7.875 -6.86365,2.07804 -13.87074,4.26486 -19.40625,6.15625 -2.76776,0.9457 -5.17472,1.84057 -7.03125,2.59375 -1.81479,0.73624 -2.98131,1.25667 -3.78125,1.9375 l -0.0312,-0.0312 c -0.0255,0.0195 -0.0373,0.0429 -0.0625,0.0625 l -2.15625,1.875 0.4375,0 c -2.201,2.8762 -2.39303,6.35766 -1.78125,9.1875 0.75372,3.4864 2.46875,6.1875 2.46875,6.1875 l 0.125,0.21875 0.21875,0.125 70.34375,43.59375 0.40625,0.25 0.46875,-0.125 78.09375,-24.0625 0.90625,-0.25 -0.1563,-0.93755 c 0,0 -0.55081,-3.27557 -0.9375,-6.9375 -0.19335,-1.83097 -0.35158,-3.77066 -0.375,-5.40625 -0.0234,-1.63559 0.15405,-3.03257 0.34375,-3.5 0.13916,-0.34222 0.0887,-0.69752 0,-0.9375 -0.0887,-0.23998 -0.2248,-0.42167 -0.34375,-0.5625 -0.2379,-0.28165 -0.5064,-0.47723 -0.84375,-0.71875 -0.67471,-0.48304 -1.60627,-1.02382 -2.8125,-1.65625 -2.41246,-1.26486 -5.86975,-2.88689 -10.0625,-4.71875 -8.38551,-3.66372 -19.68137,-8.21543 -31,-12.6875 C 110.89399,104.18087 88.125,95.625 88.125,95.625 L 87.78125,95.5 z m -0.09375,2.28125 c 0.338654,0.126905 22.61906,8.4762 45.0625,17.34375 11.30671,4.46736 22.56768,9.04429 30.90625,12.6875 4.16928,1.82161 7.61498,3.4073 9.9375,4.625 1.16126,0.60885 2.04545,1.12983 2.5625,1.5 0.20177,0.14446 0.30645,0.21516 0.375,0.28125 -0.30073,1.05447 -0.45888,2.22577 -0.4375,3.71875 0.025,1.7434 0.1775,3.72349 0.375,5.59375 0.34259,3.24424 0.72618,5.40414 0.84375,6.125 l -76.78125,23.65625 -69.625,-43.21875 c -0.15933,-0.26132 -1.47288,-2.44058 -2.09375,-5.3125 -0.65918,-3.0491 -0.52672,-6.43033 2.75,-8.9375 l 0.0625,-0.0312 c 0.18936,-0.16698 1.45803,-0.86676 3.25,-1.59375 1.79197,-0.72699 4.19186,-1.59311 6.9375,-2.53125 5.49127,-1.87627 12.46201,-4.08219 19.3125,-6.15625 13.526832,-4.09539 26.232902,-7.657296 26.5625,-7.75 z"
     id="BLUEBOOK" /><path
     style="fill:#d59f0f;stroke:none"
     d="m 27.785484,87.379459 c -5.06349,4.531314 -0.28823,12.478206 -0.28823,12.478206 l 50.57915,32.870055 54.810636,-20.40987 c 0,0 -1.81761,-10.31927 -0.95107,-12.872545 0.86224,-2.54631 -64.279376,-27.587909 -64.279376,-27.587909 0,0 -37.13998,12.708025 -39.8705,15.521082 z"
     id="path314" /><path
     style="fill:#d59f0f;stroke:none"
     d="m 28.363714,87.443217 c 3.09586,2.284345 48.99174,32.764593 48.99174,32.764593 0,0 -1.57224,5.45104 1.24621,13.12623 2.2942,4.46884 -52.69813,-33.677085 -52.69813,-33.677085 0,0 -3.48401,-8.181104 2.46012,-12.214741 z"
     id="path316" /><path
     style="fill:#fffdfa;stroke:none"
     d="m 77.373844,120.81372 c 0.61703,-1.1046 54.436616,-20.940255 54.436616,-20.940255 0,0 -0.87114,6.748235 1.59945,13.031625 -4.91771,2.10716 -54.754656,20.59678 -54.754656,20.59678 0,0 -2.42102,-8.25303 -1.28171,-12.68816 z"
     id="path318" /><path
     style="fill:#f9ddaf;stroke:none"
     d="m 78.247674,119.59355 -48.50987,-32.444782 1.47675,-0.607205 48.96958,32.325807 z"
     id="polygon320" /><path
     style="fill:#c6c6c6;stroke:none"
     d="m 128.58494,104.92963 -47.687496,18.03125 0.1875,0.5 47.687496,-18.03125 -0.1875,-0.5 z"
     id="line322" /><path
     style="fill:#c6c6c6;stroke:none"
     d="m 129.32245,109.1691 -47.768756,17.88687 0.21215,0.56116 47.768756,-17.88688 -0.21215,-0.56115 z"
     id="line324" /><path
     style="fill:#c6c6c6;stroke:none"
     d="m 124.89744,108.55463 -43.406246,16.3125 0.1875,0.53125 43.406246,-16.3125 -0.1875,-0.53125 z"
     id="line326" /><path
     style="fill:#cecece;stroke:none"
     d="m 77.997794,79.906478 c 1.27502,0.517258 0.36253,1.692426 -2.03536,2.624969 l -21.30261,8.258926 c -2.39688,0.930274 -5.37495,1.264015 -6.64993,0.745598 l -2.22302,-1.073147 c -1.06899,-1.187839 -0.57786,-1.612458 1.81999,-2.5427 l 21.30265,-8.260125 c 2.39884,-0.92911 5.37591,-1.262784 6.65089,-0.744427 l 2.4374,0.990816 z"
     id="path330" /><path
     style="fill:#ffffff;stroke:none"
     d="m 80.017154,79.958895 c 1.27602,0.51729 0.36253,1.692426 -2.03436,2.625001 l -21.30363,8.259493 c -2.39688,0.930274 -5.37495,1.264016 -6.64993,0.745598 l -2.22301,-1.073147 c -1.069,-1.187838 -0.57888,-1.61249 1.81999,-2.542699 l 21.30265,-8.260526 c 2.39785,-0.929142 5.37591,-1.262783 6.64993,-0.745598 l 2.43836,0.991988 z"
     id="path332" /><path
     style="fill:#7c591a;stroke:none"
     d="m 67.678694,71.273385 -0.1875,0.0625 c 0,0 -9.30418,3.187544 -18.9375,6.71875 -4.81666,1.765603 -9.71621,3.62699 -13.59375,5.21875 -1.93877,0.79588 -3.61258,1.531429 -4.90625,2.15625 -1.28237,0.61936 -2.139,1.069372 -2.625,1.5625 -0.004,0.0043 -0.027,-0.0044 -0.0312,0 l -0.0312,0.0625 -0.0312,0.03125 c -2.60814,2.418889 -2.70008,5.725954 -2.125,8.34375 0.58272,2.652547 1.8125,4.718745 1.8125,4.718745 l 0.0625,0.0937 0.125,0.0625 50.5625,32.875 0.25,0.15625 0.25,-0.0937 54.812496,-20.40625 0.40625,-0.15625 -0.0625,-0.46875 c 0,0 -0.46854,-2.55631 -0.8125,-5.4375 -0.17198,-1.4406 -0.2961,-2.94787 -0.34375,-4.25 -0.0477,-1.30213 0.0248,-2.42701 0.1875,-2.906245 0.12045,-0.35571 -0.0714,-0.628964 -0.21875,-0.8125 -0.14731,-0.183536 -0.32764,-0.354571 -0.5625,-0.53125 -0.46973,-0.353357 -1.13885,-0.748088 -2,-1.21875 -1.72231,-0.941324 -4.18836,-2.144309 -7.1875,-3.5 C 116.49305,90.843254 108.4271,87.50153 100.33509,84.210885 84.151074,77.629594 67.835094,71.367135 67.835094,71.367135 l -0.1564,-0.09375 z m -0.0312,1.15625 c 0.18249,0.07016 16.20142,6.242331 32.28125,12.78125 8.085606,3.288043 16.120486,6.643682 22.093746,9.34375 2.98663,1.350034 5.44991,2.521982 7.125,3.4375 0.83754,0.457759 1.48523,0.863041 1.875,1.15625 0.19488,0.1466 0.32638,0.28317 0.375,0.34375 -0.22239,0.785475 -0.26487,1.802165 -0.21875,3.062495 0.0494,1.35084 0.2009,2.88537 0.375,4.34375 0.32053,2.68491 0.68646,4.69641 0.75,5.0625 l -54.156246,20.15625 -50.25,-32.656245 c -0.10237,-0.17459 -1.11212,-1.915374 -1.625,-4.25 -0.53904,-2.453728 -0.47715,-5.33256 1.875,-7.4375 l 0.0312,-0.03125 c 0.003,-0.0032 0.0278,-0.02784 0.0312,-0.03125 0.21726,-0.212598 1.07233,-0.713522 2.3125,-1.3125 1.26006,-0.608586 2.91667,-1.333917 4.84375,-2.125 3.85417,-1.582167 8.75285,-3.455715 13.5625,-5.21875 9.52452,-3.491325 18.53851,-6.563304 18.71875,-6.625 z"
     id="path3828" /><path
     style="fill:#7c591a;stroke:none"
     d="m 28.834944,86.460885 -0.78125,0.53125 c -3.15276,2.139435 -3.82091,5.436325 -3.6875,8.09375 0.13341,2.657425 1.03125,4.78125 1.03125,4.78125 l 0.0625,0.156245 0.125,0.0625 c 0,0 13.75179,9.5496 27.21875,18.53125 6.73348,4.49082 13.40377,8.85662 18.25,11.8125 2.42312,1.47794 4.39678,2.58525 5.71875,3.21875 0.66099,0.31675 1.12988,0.54074 1.5625,0.59375 0.10815,0.0132 0.20619,4e-4 0.34375,-0.0312 0.13756,-0.0317 0.32958,-0.10841 0.4375,-0.28125 0.10792,-0.17284 0.11601,-0.36779 0.0937,-0.5 -0.018,-0.10712 -0.0546,-0.19818 -0.0937,-0.28125 -0.009,-0.024 -0.0225,-0.0385 -0.0312,-0.0625 -2.73151,-7.49815 -1.21875,-12.71875 -1.21875,-12.71875 l 0.125,-0.375 -0.34375,-0.21875 c 0,0 -11.45203,-7.62597 -23.3125,-15.53125 -5.93024,-3.95264 -11.9815,-7.978052 -16.71875,-11.156245 -4.6384,-3.111879 -7.93025,-5.341202 -8.75,-5.9375 l -0.0312,-0.6875 z m -0.40625,1.65625 c 0.99524,0.717631 4.05178,2.796568 8.59375,5.84375 4.73894,3.179326 10.75678,7.203285 16.6875,11.156245 11.71844,7.81062 22.79077,15.16328 23.0625,15.34375 -0.14265,0.54717 -1.27293,5.41492 1.15625,12.5 -0.22219,-0.0789 -0.3331,-0.11142 -0.6875,-0.28125 -1.2463,-0.59724 -3.21521,-1.71769 -5.625,-3.1875 -4.81959,-2.93963 -11.49092,-7.2942 -18.21875,-11.78125 -13.39179,-8.93151 -26.93295,-18.316385 -27.0625,-18.406245 -0.0898,-0.21939 -0.79112,-1.98795 -0.90625,-4.28125 -0.11819,-2.35426 0.46069,-5.018145 3,-6.90625 z"
     id="path3834" /><path
     style="fill:#7c591a;stroke:none"
     d="m 132.45994,99.054635 -0.84375,0.3125 c 0,0 -13.43435,4.964615 -26.96875,10.062495 -6.767196,2.54894 -13.581826,5.13953 -18.718746,7.15625 -2.56846,1.00836 -4.71086,1.84832 -6.25,2.5 -0.76957,0.32584 -1.36988,0.59954 -1.8125,0.8125 -0.22131,0.10648 -0.42078,0.19862 -0.5625,0.28125 -0.0491,0.0286 -0.0819,0.0645 -0.125,0.0937 l -0.21875,0 -0.0625,0.28125 -0.0312,0.125 c -0.61262,2.3848 -0.28092,5.60082 0.1875,8.25 0.46842,2.64918 1.09375,4.71875 1.09375,4.71875 l 0.15625,0.5625 0.53125,-0.21875 c 0,0 12.45654,-4.61392 25.531246,-9.5 13.07471,-4.88608 26.70982,-10.00532 29.25,-11.09375 l 0.5,-0.21875 -0.21875,-0.46875 c -2.40667,-6.12084 -1.5625,-12.781245 -1.5625,-12.781245 l 0.125,-0.875 z m -1.21875,1.593745 c -0.11954,1.13224 -0.54724,6.30036 1.5,11.9375 -2.69737,1.13322 -15.88795,6.09964 -28.75,10.90625 -12.769526,4.77204 -24.378396,9.0738 -24.937496,9.28125 -0.11847,-0.4175 -0.53611,-1.76117 -0.9375,-4.03125 -0.44762,-2.53157 -0.70083,-5.57353 -0.21875,-7.625 0.0991,-0.0568 0.24146,-0.15568 0.4375,-0.25 0.41354,-0.19896 0.98889,-0.45899 1.75,-0.78125 1.52222,-0.64451 3.68611,-1.49343 6.25,-2.5 5.12779,-2.01313 11.92267,-4.6082 18.687496,-7.15625 13.15316,-4.95429 25.5009,-9.5166 26.21875,-9.78125 z"
     id="path3840" /></svg>