<?xml version="1.0" encoding="UTF-8" standalone="no"?>
<svg xmlns:rdf="http://www.w3.org/1999/02/22-rdf-syntax-ns#" xmlns="http://www.w3.org/2000/svg" version="1.1" xml:space="preserve" height="219" viewBox="-0.737 -0.141 219 219" width="219" enable-background="new -0.737 -0.141 178 220" y="0px" x="0px" xmlns:cc="http://creativecommons.org/ns#" xmlns:xlink="http://www.w3.org/1999/xlink" xmlns:dc="http://purl.org/dc/elements/1.1/"><metadata><rdf:RDF><cc:Work rdf:about=""><dc:format>image/svg+xml</dc:format><dc:type rdf:resource="http://purl.org/dc/dcmitype/StillImage"/><dc:title/></cc:Work></rdf:RDF></metadata>
<defs><filter id="filter4129" color-interpolation-filters="sRGB"><feGaussianBlur stdDeviation="1.7626771"/></filter><filter id="filter4145-1" color-interpolation-filters="sRGB"><feGaussianBlur stdDeviation="1.2777221"/></filter><radialGradient id="radialGradient3804" gradientUnits="userSpaceOnUse" cy="63" cx="87.8" gradientTransform="matrix(1,0,0,1.0000056,0,-4.8206606e-4)" r="80.4"><stop stop-color="#2e9fe6" offset="0"/><stop stop-color="#1a6595" offset="1"/></radialGradient><radialGradient id="radialGradient3088" gradientUnits="userSpaceOnUse" cy="241" cx="129" gradientTransform="matrix(0.45924015,0.45923983,-0.46422934,0.46422945,158.96967,21.275853)" r="11.7"><stop stop-color="#FFF" offset="0"/><stop stop-color="#d97b3b" offset="1"/></radialGradient></defs>
<path opacity="0.5" d="m114,169c-3.03-0.0318-5.81,1.19-5.81,1.19s-0.884,18.1-2.25,19.1c-3.4,2.28-5.66,6.09-5.81,10.4-0.313-2.63-2.56-4.66-5.28-4.66h-70c-2.93,0-5.31,2.38-5.31,5.31s2.38,5.28,5.31,5.28h37.6c0.234,0.0323,0.476,0.0312,0.719,0.0312h24.7c0.236,0,0.46-0.00078,0.688-0.0312h6.34c2.75,0,5.01-2.07,5.28-4.75,0.377,6.92,6.11,12.5,13.1,12.5,7.25,0,13.1-5.93,13.1-13.2,0-3.52-1.34-6.82-3.84-9.31-0.75-0.745-1.58-1.4-2.47-1.94-1.26-0.766-2-18.8-2-18.8-1.24-0.767-2.68-1.05-4.06-1.06zm24.4,25.7c-0.18,0-0.356,0.0134-0.531,0.0312h-5.75c-2.93,0-5.31,2.35-5.31,5.28s2.38,5.31,5.31,5.31h70c2.93,0,5.31-2.38,5.31-5.31s-2.38-5.28-5.31-5.28h-36.9c-0.175-0.0178-0.352-0.0312-0.531-0.0312h-24.9z" filter="url(#filter4145-1)" stroke-miterlimit="4" stroke-width="0" fill="#000"/><path d="m96.4,196c0,2.93-2.38,5.31-5.31,5.31h-70c-2.93,0-5.3-2.37-5.3-5.31,0-2.93,2.38-5.3,5.3-5.3h70c2.93,0,5.31,2.37,5.31,5.3z" stroke="#88471a" stroke-width="2.44279337" fill="#d97b3b"/><path d="m204,195c0,2.93-2.37,5.3-5.31,5.3h-70c-2.93,0-5.31-2.37-5.31-5.3s2.38-5.31,5.31-5.31h70c2.93,0.001,5.31,2.38,5.31,5.31z" stroke="#88471a" stroke-width="2.44279337" fill="#d97b3b"/><path d="m104,165s-0.894,18.1-2.26,19c-3.52,2.36-5.84,6.38-5.84,10.9,0,7.26,5.9,13.2,13.2,13.2,7.25,0,13.1-5.9,13.1-13.2,0-3.52-1.35-6.83-3.85-9.32-0.75-0.745-1.58-1.39-2.46-1.93-1.26-0.766-2.02-18.9-2.02-18.9-3.95-2.46-9.86,0.138-9.86,0.138z" stroke="#88471a" stroke-width="2.44279337" fill="#d97b3b"/><path fill="url(#radialGradient3088)" d="m116,186c3.1,2.1,5.15,5.65,5.15,9.68,0,6.45-5.23,11.7-11.7,11.7-2.42,0-4.67-0.738-6.53-2-3.11-2.1-5.15-5.65-5.15-9.69,0-6.45,5.23-11.7,11.7-11.7,2.42,0.002,4.67,0.735,6.53,2z"/><path opacity="0.5" d="m109,10.9c-7.85,0.082-40.7,2.74-64.5,40,0,0,0.217,0.257,0.375,0.438-5.92,10.3-9.63,22-10.4,34.5-0.333,0.0476-0.469,0.375-0.469,0.375s-1.62,33.5,14.1,50.7,0.0257-0.138,0.312-0.469c14.4,20.9,38.5,34.6,65.9,34.6,44.2,0,80-35.8,80-80,0-3.43-0.237-6.81-0.656-10.1,0.252,0.0487,0.625,0.562,0.625,0.562s-4.64-40.2-37.8-58.9-0.0835,0.259-0.125,0.438c-12.2-7.56-26.6-11.9-42-11.9-0.91,0-1.82,0.0011-2.72,0.0312-0.408-0.212-0.711-0.316-0.781-0.281,0,0-0.629-0.043-1.75-0.0312z" filter="url(#filter4129)" stroke="#55b9df" stroke-width="0.9080562" fill="#000"/><path stroke="#55b9df" stroke-width="0.90805619999999998" fill="url(#radialGradient3804)" d="m188,85.6c0,44.2-35.8,80-80,80s-80-35.8-80-80c0.000908-44.2,35.8-80,80-80s80,35.8,80,80z"/><path d="m87.7,66.7s0.672-0.189,0.875-1.74,0.0972-1.07,0.679-0.971c0,0,0-1.74-2.14-1.55,0,0-0.671-0.193-0.671,0.868,0,0-0.197,1.36-0.973,1.16,0,0-0.399,0.775-0.672,1.16,0,0-0.582,0.775,0.576,0.775,0,0,1.94-0.29,2.13,0,0.194,0.289-0.186-0.29-0.186-0.29" fill="#4d4d4d"/><path fill="#4d4d4d" d="m92.5,57.2c-1.03,0.857-2.11,1.73-2.78,2.92-0.559,0.086-0.752,1.29-0.0106,1.09,0.558-0.106,1.26,0.495,0.798,1.02-0.237,0.434-0.509,1.06-0.104,1.48,0.454,0.207,1.33,0.835,0.61,1.29-0.457,0.241-1.18,0.125-1.4,0.705-0.234,0.671,0.191,1.4,0.758,1.75,0.501,0.575-0.308,1.35-0.938,1.14-0.386-0.0261-1.23-0.0971-1.23,0.373,0.426,0.207,0.924,0.0112,1.37,0.17,0.81,0.173,1.62,0.333,2.45,0.38,0.567,0.0366,1.14,0.095,1.71,0.0551,0.623-0.217,0.544-0.991,0.872-1.45,0.405-0.487,0.259-1.2-0.136-1.64-0.326-0.481-0.646-0.983-0.773-1.56-0.271-0.62-0.442-1.33-0.212-1.99,0.0161-0.68-0.945-0.879-0.893-1.57,0.108-0.613,0.997-0.725,1-1.39-0.0086-0.815-1.1-0.186-1.38-0.748-0.259-0.634,0.643-0.763,0.922-1.16,0.2-0.4-0.3-1.1-0.8-0.9z"/><path fill="#4d4d4d" d="m100,55.1c0.0362,1.37-0.0298,2.76,0.241,4.11,0.476,1.02,1.7,1.14,2.43,0.331,0.448-0.23,1.2-1.12,1.22-1.19-0.429,1.22,0.645,2.31,0.471,3.53-0.004,1.34,2.15,1.89,2.6,0.525,0.669-1.08,0.963-2.37,1.82-3.33,1.37-0.558,0.466-2.34-0.201-3.13-0.332-1.03,1.3-0.895,1.67-1.67,0.689-0.762,1.06-1.78,1.1-2.8,0.847-1.32,1.85,0.93,0.992,1.62-0.657,0.801-2.21,2.47-0.696,3.19,0.888,0.0255,1.73,0.436,1.6,1.4,0.876,0.863,2.03-0.356,2.65-1.02,0.705-0.775,1.74-1.42,2.83-1.16,1.12,0.0345,1.46-1.3,1.25-2.19-0.16-1.32-1.02-2.32-1.91-3.24-0.617-1.2,1.4-0.666,2.1-0.715,1.43-0.118,1.37-2.14,0.321-2.76-1.37-0.962-3.23-0.766-4.62-1.72-0.502,0.402-0.924,1.43-1.63,0.646-0.841-0.709-2.01-2.43-3.06-0.963-1.13,1.31-1.78,3.1-3.33,4.02-0.707,0.543-1.82,0.671-2.07,1.67-0.37,1.11,0.416,3.15-1.47,3.02-1.28-0.193-2.53,0.273-3.42,1.21-0.279,0.233-0.565,0.46-0.883,0.637z"/><path fill="#4d4d4d" d="m88.3,71.4c3.45,6.84-16.6,9.84-4.49,15.6,7.57,0.919,13.3-14.7,20.5-4.48,1.83,3.16,7.8,5.66,4.12-0.158-1.07-6.06,4.14,5.25,7.49,4.13,8.61-0.0896,2.9-16.7,12.9-12.3,6.08,2.95,0.985,8.59-3.91,7.25-4.83,5.59,5.96,9.12,5.65,8.98-3.78,7.76-14,3.1-20.4,6.36-8.18-1.7-14.4-11.6-23.6-7.95-11.7,1.33-23,11-22.7,23.4-0.0767,8.54,7.39,16,15.9,15.7,6.71,0.494,15.9,0.886,18.4,8.53,5.08,7.15,1.55,17.7,8.29,23.9,5.73,5.24,14.3,3.67,19.9-0.833,6.93-4.46,13.7-11.4,13.2-20.3,1.68-7.54,9.95-11.1,11.9-18.6-1.73-7.46-12.7-3.16-16.1-10.1-3.4-1.27-9.38-12.8-2.37-9.14,5.06,3.86,7.84,13.9,15.8,11.3,6.35-1.51,11.3-10.9,6.77-16.3-2.9-1.66-11.4,1.98-7.68-4.59,6.98,3.24,15.5-6,22.7-0.803,1.73,1.86,3.85,11.6,7.02,6.97,0.251-7.4,0.299-15.5,3.15-22.4,8.33,4.41,7.67-8.82,3.95-12.8-5.63-18.6-17.5-35.9-34.7-45.5-8.67,3.27-15.5-4.96-23.1-7.36-2.59-1.03-11.1-3.84-10.9-1.09,6.32,2.2,13.6,6.44,14.9,13.6-2.12,3.42-7.36,6.93-1.57,10.7,6.07,3,2.15,9.32-3.45,6.21-2.63-1.47-5.04-7.61-4.53-1.19,3.76,8.11,1.62,16.2-5.4,21.7-4.56,8.05-14.9,1.86-19.7,9.36-2,1.6-5,2.9-8,1.9z"/><path fill="#4d4d4d" d="M104,5.43c-22-0.01-43.4,11.7-57.5,28.8-3,3.5-5.8,7.3-8.3,11.2,1.12,3.16,5.04,2.22,7.37,1.11,3.18-2.01,3.62,6.19,7.78,3.75,4.02-1.67,1.08-7.14-2.27-7.59-2.88-2.7,2.24-4.6,3.63-1.69,3.12,2.97-0.616,7.5,1.51,10.8,2.65,2.81,5.24-1.17,3.2-3.62-1.28-2.61-0.911-6,1.81-7.5,2.73-1.84,6.86-2.21,8.17-5.67,1.43-3.9-3.62-6.14-5.84-2.9-0.807,1.2-6.12,2.61-3.42,0.275,3.3-1.66,4.47-5.08,5.27-8.19,3.43-3.4,6.37,3.47,9.68,1.86,1.72-2.09,2.13-5.44,5.2-6.24,2.83-1.25,5.98-0.916,8.98-1.01,3.23-0.661,1.46-4.33,1.39-6.01,2.24-2.81,6.28-1.09,9.16-2.58,2.33-0.106,7.88-0.293,6.43-3.9,0-0.67-1-0.87-2-0.87z"/><path fill="#4d4d4d" d="m71.6,42.4c-0.0399,1.23,1.65,2.44,1.96,0.652,1.72-2.01,4.76-2.3,7.1-1.31,1.54,0.488,3.36,1.33,4.85,0.251,1.93-1.07,3.81-2.28,5.37-3.85,1.52-0.591,3.58-0.781,4.25-2.52,1.18-1.73,1.96-3.7,3.07-5.47,0.909-0.965,3.8-0.107,3.41-1.99-0.724-0.286-2.08-1.4-0.514-1.61,1.58-0.332,0.562-2.83-0.796-1.68-0.661,0.6-1.19,0.866-0.496-0.14,0.847-1.88-1.16-3.26-2.82-3.22-1.56-0.697-1.68-2.87-3.23-3.53-1.92-0.317-2.81,1.85-4.16,2.77-0.987,0.72-2.78,1.06-2.73,2.57,0.979,1.43,3.33,1.13,4.92,1.24,1.33-0.387,2.43,1.63,0.574,1.73-2.89,0.889-6,1.86-8,4.27-0.902,2.09-3.47,2.34-4.96,3.85-1.47,1.19-2.8,2.57-3.73,4.23-0.7,1.5-3,1.7-3.8,3.6z"/><path fill="#4d4d4d" d="m84.6,45.9c0.576-0.173,1.09-0.593,1.72-0.55,0.435,0.0566,0.686,0.497,0.757,0.893,0.208,0.657,0.802,1.08,1.38,1.4,0.247,0.152,0.57,0.318,0.595,0.644-0.0286,0.39-0.389,0.617-0.599,0.909-0.382,0.438-0.776,0.944-1.36,1.1-0.459,0.0799-0.877-0.19-1.22-0.463-0.463-0.317-0.998-0.504-1.48-0.784-0.258-0.167-0.351-0.495-0.255-0.78,0.0736-0.311,0.15-0.625,0.13-0.947,0.0078-0.427-0.0644-0.884,0.124-1.28,0.05-0.0678,0.123-0.123,0.208-0.135z"/><path fill="#4d4d4d" d="m106,33.7c0.0201,0.246,0.0696,0.512,0.253,0.692,0.324,0.611,0.34,1.36,0.792,1.91,0.24,0.325,0.668,0.584,1.08,0.444,0.448-0.14,0.683-0.582,0.905-0.96,0.189-0.315,0.449-0.578,0.714-0.829,0.189-0.206,0.282-0.491,0.24-0.768-0.0273-0.362-0.0822-0.754-0.316-1.05-0.25-0.295-0.654-0.402-1.03-0.37-0.774,0.0318-1.49,0.367-2.19,0.665-0.199,0.0883-0.398,0.178-0.598,0.263"/><path fill="#4d4d4d" d="m143,150c-0.2-0.716-0.393-1.7,0.31-2.21,0.925-0.727,1.91-1.46,3.09-1.68,0.943-0.378,1.28-1.43,1.84-2.19,1.16-1.86,2.1-3.84,3.04-5.81,0.699,0.55-0.174,1.42,0.0627,2.12-0.0314,0.932,0.157,1.87,0.537,2.72,0.165,1.15-0.751,2.03-1.46,2.81-1.3,1.38-2.56,2.84-3.33,4.59-0.452,0.773-1.24,1.25-2.01,1.66-0.589,0.413-0.919,1.26-1.71,1.33-0.855-0.264-1.38-1.22-1.35-2.08,0.0444-0.556,0.394-1.14,0.975-1.25z"/><path fill="#4d4d4d" d="m27.6,80.8c-0.224,13.3,1.46,26.8,6.75,39.1,1.87,4.19,4.27,8.16,7.36,11.6,0.806-1.94,5.11-2.1,3.11-4.87-0.599-2.51-1.17-5.36-3.46-6.92-1.59-1.77-0.386-4.99-2.9-6.15-2.01-0.526-5.22-0.443-4.82-3.49-0.112-2.28,1.59-4.41,0.493-6.64-0.77-3.06-2.4-5.81-3.37-8.8-0.5-2.8-0.9-4.9-1.5-7-0.6-2.2-0.8-4.5-0.2-6.7,0.1-0.7-0.9-1.6-1.5-0.7z"/>
</svg>
