<?xml version="1.0"?>
<?metis version="3.6"?>
<?metisxml version="1.1"?>
<!DOCTYPE svg  PUBLIC "-//W3C//DTD SVG 1.0//EN"
 "http://www.w3.org/TR/2001/REC-SVG-20010904/DTD/svg10.dtd">



<!--
Troux Technologies, Inc. Confidential and Proprietary.
This work contains valuable confidential, proprietary and trade secret
information of Troux Technologies, Inc. and is protected by the laws of 
the United States and other countries. Any disclosure, use or reproduction
of this work without the prior written authorization of Troux Technologies, Inc.
is strictly prohibited.
Copyright (C) 2000-2006 Troux Technologies, Inc. All rights reserved.
-->


<svg>
 <title>Symbol library: person.svg</title>
 <defs>
  <symbol id="oid1" xml:space="preserve" class="METIS_SYMBOL">
   <title>Untitled</title>
    <g>
      <polygon points="1007.81 1007.81 0 1007.81 0 0 
       1007.81 0 1007.81 1007.81"
       style="stroke:none; fill:#ffffff; fill-opacity:0%"></polygon>
      <polygon points="393.437 414.062  338.203 421.979 
       282.969 437.812 235.625 461.563 188.281 493.23 156.719 532.812 
       133.046 580.312 117.266 627.812 109.375 683.229 109.375 1007.81 
       898.437 1007.81 898.437 683.229  890.546 627.812 
       874.766 580.312 843.203 532.812 811.641 493.23 772.187 461.563 
       716.953 437.812 669.609 421.979 606.484 414.062 393.437 414.062"
       style="stroke:none; fill:#465900; fill-opacity:100%"></polygon>
      <polygon points="125 683.209  132.893 635.673 
       148.682 588.139 172.363 540.603 203.939 500.99 243.409 469.3 
       290.771 445.532 338.135 437.61 393.392 429.688 606.526 429.688 
        661.784 437.61 717.041 445.532 764.403 469.3 
       803.873 500.99 835.449 540.603 859.13 588.139 874.919 635.673 
       882.812 683.209  882.812 992.188  125 992.188  125 683.209 "
       style="stroke:none; fill:#7faa48; fill-opacity:100%"></polygon>
      <polygon points="495.899 398.438  431.836 398.438 
       391.797 406.376 351.757 422.253 343.75 422.253 495.899 890.626 
       664.062 430.192 656.055 430.192  616.015 406.376 
       567.968 398.438 495.899 398.438 "
       style="stroke:none; fill:#465900; fill-opacity:100%"></polygon>
      <polygon points="495.877 414.062  552.083 414.062 
       592.231 422.02 648.437 437.934  495.877 843.75 
        359.375 429.977  407.552 422.02 
       495.877 414.062 "
       style="stroke:none; fill:#ffffff; fill-opacity:100%"></polygon>
      <polygon points="453.125 468.75 545.672 468.75 512.018 540.215 
        537.259 619.621 554.086 691.086 562.5 762.551 
        545.672 826.075 528.846 889.6 503.606 953.125 
        478.365 881.66 461.539 826.075 453.125 770.492 
        453.125 706.967 469.952 635.502 495.193 540.215 
       453.125 468.75"
       style="stroke:none; fill:#465900; fill-opacity:100%"></polygon>
      <polygon points="734.375 789.062 734.375 1000 757.813 1000 
       757.813 789.062 734.375 789.062"
       style="stroke:none; fill:#465900; fill-opacity:100%"></polygon>
      <polygon points="257.812 992.188 278.646 992.188 289.062 781.25 
       268.229 781.25 257.812 992.188"
       style="stroke:none; fill:#465900; fill-opacity:100%"></polygon>
      <polygon points="304.688 229.989  304.688 277.687 
       320.618 325.384 336.551 365.132 360.447 404.88 392.31 436.679 
       424.173 460.527 464.002 484.375 503.83 484.375  543.658 484.375 583.487 460.527 615.35 436.679 647.212 404.88 
       671.109 365.132 695.007 325.384 702.972 277.687 710.938 229.989 
        702.972 190.241 695.007 158.443 671.109 118.696 
       647.212 86.8975 615.35 63.0483 583.487 47.1491 543.658 39.1991 
       503.83 31.25  464.002 39.1991 424.173 47.1491 
       392.31 63.0483 360.447 86.8975 336.551 118.696 320.618 158.443 
       304.688 190.241 304.688 229.989 "
       style="stroke:none; fill:#b2510f; fill-opacity:100%"></polygon>
      <polygon points="320.312 229.952  320.312 198.113 
       336.27 158.314 352.227 126.474 376.163 102.594 400.1 78.7146 
       432.015 62.7948 463.93 54.8354 503.823 46.875  543.716 54.8354 575.631 62.7948 607.546 78.7146 639.461 102.594 
       663.397 126.474 679.355 158.314 687.334 198.113 695.312 229.952 
        687.334 277.712 679.355 317.511 655.419 357.31 
       639.461 397.11 607.546 428.95 575.631 452.829 543.716 468.75 
       503.823 468.75  471.908 468.75 432.015 452.829 
       400.1 428.95 376.163 397.11 352.227 357.31 336.27 317.511 
       320.312 277.712 320.312 229.952 "
       style="stroke:none; fill:#ff9900; fill-opacity:100%"></polygon>
      <polygon points="408.42 23.942  376.591 48.135 
       344.763 72.328 320.891 104.586 304.977 128.78 297.02 161.038 
       289.062 193.296 297.02 225.554 297.02 249.748  304.977 257.812 312.934 257.812  320.891 257.812 
       320.891 241.683  328.848 217.49 344.763 193.296 
       360.677 177.167  400.463 185.232 432.292 185.232 
       472.077 177.167 511.863 161.038 583.478 128.78 623.264 96.522 
        678.964 233.618 694.878 249.748   702.835 249.748 710.792 233.618  718.75 193.296  718.75 152.974 694.878 112.651 
        671.006 80.393 655.093 64.264 631.221 56.2 
        607.349 40.07 559.607 15.877 519.82 7.812 
       487.992 7.812 448.205 7.812 408.42 23.942 "
       style="stroke:none; fill:#000000; fill-opacity:100%"></polygon>
      <polygon points="304.688 201.924  312.656 161.359 
       336.563 112.681 368.438 72.1152 408.282 39.663  448.125 23.438 487.969 23.438 527.814 23.438 559.689 31.5505 
       599.532 55.8902 623.439 64.0027 623.439 72.1152   639.376 80.2288 663.283 96.4548 679.22 120.794 
        703.126 161.359 703.126 193.811  703.126 218.151  703.126 234.376  631.407 80.2288 631.407 72.1152 623.439 80.2288  591.564 96.4548 527.814 137.02 487.969 161.359 440.157 169.472 
       400.313 169.472 368.438 161.359 360.469 161.359   336.563 177.585 328.594 193.811 312.656 218.151 
        304.688 201.924 "
       style="stroke:none; fill:#000000; fill-opacity:100%"></polygon>
    </g>
  </symbol>
 </defs>
 <use xlink:href="#oid1"/>
</svg>
