<?xml version="1.0"?>
<?metis version="3.6"?>
<?metisxml version="1.1"?>
<!DOCTYPE svg  PUBLIC "-//W3C//DTD SVG 1.0//EN"
 "http://www.w3.org/TR/2001/REC-SVG-20010904/DTD/svg10.dtd">



<!--
Troux Technologies, Inc. Confidential and Proprietary.
This work contains valuable confidential, proprietary and trade secret
information of Troux Technologies, Inc. and is protected by the laws of 
the United States and other countries. Any disclosure, use or reproduction
of this work without the prior written authorization of Troux Technologies, Inc.
is strictly prohibited.
Copyright (C) 2000-2006 Troux Technologies, Inc. All rights reserved.
-->


<svg>
 <title>Symbol library: role.svg</title>
 <defs>
  <symbol id="oid1" xml:space="preserve" class="METIS_SYMBOL">
   <title>Untitled</title>
    <g>
      <polygon points="1000 1007.75 0 1007.75 0 7.752 
       1000 7.752 1000 1007.75"
       style="stroke:none; fill:#ffffff; fill-opacity:0%"></polygon>
      <polygon points="139.535 592.574  147.377 663.077 
       170.904 741.412 210.113 804.08 257.166 874.582 319.902 929.417 
       382.639 968.584 453.218 999.918 484.586 1007.75 523.797 1007.75 
        578.691 1007.75 625.744 992.085 672.796 968.584 
       712.006 937.25  743.375 905.916 766.901 874.582 
       782.585 835.414 790.428 788.413 806.112 710.077 813.954 631.742 
        806.112 561.241 782.585 490.738 751.217 428.071 
       704.164 373.235 657.112 326.234 594.375 294.9 531.639 271.4 
       468.902 263.566  398.324 271.4 335.586 287.067 
       280.693 318.4 233.64 357.568 194.429 412.403 163.061 467.238 
       139.535 529.906 139.535 592.574 "
       style="stroke:none; fill:#b2510f; fill-opacity:100%"></polygon>
      <polygon points="523.823 992.248  453.204 984.411 
       390.433 953.062 327.661 913.877 272.736 859.017 225.657 796.32 
       186.425 733.623 162.886 663.089 155.039 592.554  155.039 529.858 178.579 474.998 209.964 420.138 241.35 373.115 
       288.429 333.929 343.354 302.582 406.126 286.907 468.897 279.07 
        531.67 286.907 586.595 310.419 649.367 341.766 
       696.445 388.79 735.678 443.649 767.064 498.509 790.603 561.207 
       798.45 631.74  790.603 710.111 774.91 788.483 
       767.064 827.668 751.371 859.017 727.831 898.203 704.292 929.551 
        665.06 953.062 625.827 976.574 570.901 984.411 
       523.823 992.248 "
       style="stroke:none; fill:#ff9900; fill-opacity:100%"></polygon>
      <polygon points="304.503 248.541  249.63 279.931 
       210.434 311.322 171.24 350.56 147.722 389.798 124.205 436.884 
       116.366 476.122 108.527 523.208 108.527 562.447  124.205 656.618 147.722 742.942 179.079 805.723 210.434 837.113 
        218.273 844.961 226.112 837.113  226.112 829.266 233.951 821.418 226.112 790.028  218.273 750.79 218.273 727.246 226.112 719.399  265.308 719.399 296.664 735.094  328.02 742.942 
       343.698 742.942 351.537 735.094 359.376 719.399  382.893 672.314 390.732 648.77 406.41 633.075  469.122 656.618 531.835 664.466 602.386 656.618 657.259 648.77 
       759.166 617.38 798.362 601.684 806.201 601.684 806.201 593.836 
        806.201 538.904  806.201 483.97 
       782.684 421.189 767.006 389.798 743.488 358.407 712.132 327.017 
       680.777 303.474  618.064 248.541 578.868 232.845 
       531.835 217.15 484.8 209.302 429.928 209.302 375.054 224.997 
       304.503 248.541 "
       style="stroke:none; fill:#000000; fill-opacity:100%"></polygon>
      <polygon points="124.031 562.469  124.031 523.206 
       131.874 483.942 139.717 436.827 163.247 397.564 186.777 358.3 
       218.148 319.037 257.364 287.627 312.267 264.069  375.011 240.511 429.914 232.659 484.815 224.806 531.874 232.659 
       571.089 248.364 610.305 264.069 665.208 311.185    704.423 334.742 735.796 366.153 
       751.482 397.564 767.168 428.975 790.698 483.942 790.698 538.911 
        790.698 586.026  735.796 609.584 
       641.678 633.142 586.776 640.995 524.031 648.847 469.129 640.995 
       414.227 617.437 406.384 617.437   382.855 633.142 367.168 656.7 343.639 711.668 335.795 727.373 
        327.952 727.373 304.424 719.521  265.208 703.815 249.521 703.815 225.992 703.815 210.305 719.521 
        202.462 735.226 202.462 750.931 210.305 790.195 
        210.305 829.457  194.619 805.9 
       171.09 743.079 139.717 664.553 131.874 609.584 124.031 562.469 
       "
       style="stroke:none; fill:#000000; fill-opacity:100%"></polygon>
      <polygon points="375 7.752  312.501 15.5808 
       257.813 39.067 210.937 62.5533 164.063 93.8673 132.813 133.011 
       101.562 179.984 78.125 219.126 62.5 266.099  46.875 336.557 46.875 391.358  46.875 399.187 
        46.875 414.844  39.0625 414.844 
        23.4375 438.33 15.625 453.987 0 485.302 
        0 508.788 7.8125 532.274 23.4375 555.761 
       39.0625 571.417 78.125 602.732 93.7501 610.561 656.25 798.45 
         695.312 790.621 765.625 774.964 
       851.562 735.82 898.438 720.162 929.688 688.848  968.75 657.533 984.375 618.39 1000 587.075 1000 555.761 
        992.187 524.446   843.75 407.015  789.063 234.784  765.625 195.64 742.187 156.497 695.312 109.525 640.625 70.381 
       570.312 39.067 531.25 23.4095 484.375 15.5808 429.688 7.752 
       375 7.752 "
       style="stroke:none; fill:#7a510f; fill-opacity:100%"></polygon>
      <polygon points="101.463 594.981  54.5762 571.485 
       31.1328 540.159 23.3183 516.663 15.5039 500.999  15.5039 485.335  31.1328 446.176 46.7617 430.513 
       62.3906 422.681  62.3906 399.185  62.3906 391.353  70.205 344.362 78.0195 273.875 
         101.463 211.22 124.906 172.061 
       156.164 132.902 195.236 93.7423 242.123 62.4156 304.639 38.9198 
       374.969 23.256  429.67 23.256 476.556 31.0879 
       523.443 38.9198 562.516 54.5837 632.846 85.9103 687.547 125.07 
       726.619 164.23 750.062 203.388 773.506 234.716 836.021 414.849 
        984.496 532.327  984.496 555.822 
        984.496 579.317 968.867 610.645 953.238 649.804 
       921.981 681.132  890.723 704.627 851.65 720.291 
       765.691 759.45 656.289 782.946  101.463 594.981 
       "
       style="stroke:none; fill:#ffdd4d; fill-opacity:100%"></polygon>
      <polygon points="69.7674 271.318 62.0155 263.566  69.7674 271.318 "
       style="stroke:none; fill:#7a510f; fill-opacity:100%"></polygon>
      <polygon points="383.082 7.8454  312.637 15.6908 
       257.846 31.3816 210.883 62.7632 163.92 94.1438 132.611 133.371 
       101.302 180.443 77.8205 219.669 62.166 266.742  46.5116 337.349 46.5116 392.267  46.5116 400.112 
       46.5116 415.803  46.5116 423.648  46.5116 447.184 62.166 478.565  77.8205 502.101 
       101.302 525.638 124.784 557.019 163.92 580.554 218.71 604.091 
       281.328 619.781 351.772 635.472 445.699 651.163  539.626 651.163 617.898 643.318 680.516 627.627 727.478 611.936 
       766.615 588.4 797.924 564.865 829.232 525.638  852.714 486.411 852.714 447.184 852.714 407.958 790.096 235.36 
        766.615 196.133 743.133 156.907 703.997 109.835 
       649.207 70.6076 578.761 31.3816 531.799 15.6908 484.835 7.8454 
       437.872 0 383.082 7.8454 "
       style="stroke:none; fill:#845a0f; fill-opacity:100%"></polygon>
      <polygon points="62.0155 400.119  62.0155 353.011 
       77.676 274.498   93.3365 227.39 
       116.827 188.134 148.148 148.877 179.47 109.62 218.62 70.3633 
       265.602 46.8102 320.413 31.1074 383.056 23.256  437.868 23.256 484.849 23.256 531.83 31.1074 570.981 46.8102 
       641.454 78.2147 688.436 125.323 727.586 164.58 751.077 203.836 
       774.568 235.241 837.209 415.822  837.209 447.227 
       837.209 486.484 821.549 517.889  798.059 549.295 
       766.738 572.848 727.586 596.402 680.605 612.105 633.623 619.956 
       570.981 627.808 516.17 635.659 445.697 627.808  367.395 619.956 296.923 612.105 234.281 588.551 187.3 572.848 
       148.148 549.295 116.827 525.741 85.5062 486.484  69.8457 462.93 62.0155 439.376 62.0155 423.674  62.0155 400.119 "
       style="stroke:none; fill:#ffdd4d; fill-opacity:100%"></polygon>
      <polygon points="69.7674 271.318 62.0155 263.566  69.7674 271.318 "
       style="stroke:none; fill:#845a0f; fill-opacity:100%"></polygon>
      <polygon points="294.574 31.008 294.574 47.0288  357.759 55.0392 420.946 63.0496 492.029 87.0798  531.52 111.111 571.011 135.142 642.095 199.224 681.587 247.287 
       705.281 271.318 713.179 263.308  697.382 239.276 
       649.994 183.205 578.909 119.121 539.419 95.0902 499.927 71.059 
        420.946 47.0288 357.759 31.008 294.574 31.008 
       "
       style="stroke:none; fill:#845a0f; fill-opacity:100%"></polygon>
      <polygon points="317.829 15.504 317.829 31.5248  380.993 31.5248 444.157 47.5456 523.112 71.5758  562.59 87.5966 594.171 119.638 665.231 175.711 712.604 231.783 
       728.395 255.814 744.186 247.804  720.499 215.762 
       673.127 167.701 602.067 103.617 570.485 71.5758 523.112 55.556 
        444.157 31.5248 380.993 15.504 317.829 15.504 
       "
       style="stroke:none; fill:#845a0f; fill-opacity:100%"></polygon>
      <polygon points="209.302 69.767 217.185 85.7711  280.252 85.7711 343.318 93.7731 430.035 109.777  469.451 133.783 508.868 157.789 587.701 229.807 642.885 285.821 
       666.535 317.829 674.418 301.825  650.768 277.819 
       595.584 213.803 516.752 141.785 477.335 117.779 430.035 93.7731 
        351.202 77.769 280.252 69.767 209.302 69.767 
       "
       style="stroke:none; fill:#996811; fill-opacity:100%"></polygon>
      <polygon points="723.721 240.468 699.534 256.289  691.472 287.929  651.163 303.75 707.597 620.155 
       715.659 612.245  747.907 596.424 804.342 564.785 
        836.589 525.234 844.651 501.503 852.713 501.503 
       788.217 248.378  747.907 264.199  731.783 232.558 723.721 240.468"
       style="stroke:none; fill:#996811; fill-opacity:100%"></polygon>
      <polygon points="731.783 255.814  748.063 279.611 
        772.481 271.679  829.458 493.78 
        821.318 517.577 788.761 549.306  756.202 573.102 715.504 596.899  666.667 319.271 
        707.364 295.475  715.504 263.746 
        731.783 255.814 "
       style="stroke:none; fill:#ffdd4d; fill-opacity:100%"></polygon>
      <polygon points="125.323 481.008 100.775 497.287 108.958 586.821 
       215.331 635.659 248.062 619.38 239.879 521.706 133.506 472.868 
       125.323 481.008"
       style="stroke:none; fill:#996811; fill-opacity:100%"></polygon>
      <polygon points="132.89 496.124  224.252 529.199 
        232.558 611.886  215.947 620.155 
        124.585 578.811  116.279 504.393 
        132.89 496.124 "
       style="stroke:none; fill:#ffdd4d; fill-opacity:100%"></polygon>
      <polygon points="642.354 550.388 496.476 566.925 488.372 641.344 
       512.685 674.419 658.563 657.881 666.667 616.537 658.563 575.193 
       642.354 550.388 "
       style="stroke:none; fill:#996811; fill-opacity:100%"></polygon>
      <polygon points="634.798 573.643  642.98 582.17 
        651.163 616.279  642.98 641.86 
        520.241 658.914  503.876 633.333 
        512.059 582.17  634.798 573.643 
       "
       style="stroke:none; fill:#ffdd4d; fill-opacity:100%"></polygon>
      <polygon points="806.202 388.114 806.202 429.458 832.364 503.876 
       867.248 495.607 875.969 429.458 841.085 379.845 806.202 379.845 
       806.202 388.114"
       style="stroke:none; fill:#996811; fill-opacity:100%"></polygon>
      <polygon points="821.705 429.458  821.705 395.349 
        831.395 395.349  860.465 437.985 
        850.775 480.62    821.705 429.458 "
       style="stroke:none; fill:#ffdd4d; fill-opacity:100%"></polygon>
    </g>
  </symbol>
 </defs>
 <use xlink:href="#oid1"/>
</svg>
