<?xml version="1.0"?>
<?metis version="3.0.1"?>
<?metisxml version="1.0"?>
<!DOCTYPE svg  PUBLIC "-//W3C//DTD SVG August 1999//EN"
 "http://www.w3.org/Graphics/SVG/svg-19990812.dtd">

<svg width="200" height="200">
 <title>Symbol library: mainframe.svg</title>
 <defs>
  <symbol id="oid0" xml:space="preserve" class="METIS_SYMBOL">
    <g>
      <polygon points="2.5 20 2.5 20 99.5 0 
       564.5 0 564.5 198 536.5 228 282.5 228 
       234.5 243 93.5 243 94.5 225 2.5 225 2.5 20 "
       style=" stroke:#000000; stroke-width:1; fill:#0000ff; fill-opacity:100%"       class="TAG:polygon"></polygon>
      <polygon points="2.5 225 93.25 225 93.25 33.5 
       149.5 20 2.5 20 2.5 225 "
       style=" stroke:#000000; stroke-width:1; fill:#0000ff; fill-opacity:100%"       class="TAG:polygon"></polygon>
      <polygon points="282.5 228 536.5 228 536.5 18 
       282.5 18 282.5 228 "
       style=" stroke:#000000; stroke-width:1; fill:#0000ff; fill-opacity:100%"       class="TAG:polygon"></polygon>
      <polyline points="282.5 18 282.5 18 234.5 33 
       94.5 33 149.5 20"
       style=" stroke:#000000; stroke-width:1;"       class="TAG:polyline"></polyline>
      <polyline points="281.5 228 281.5 228 236.5 243 
       93.5 243 93.5 33"
       style=" stroke:#000000; stroke-width:1;"       class="TAG:polyline"></polyline>
      <polyline points="2.5 20 2.5 20 101.5 0 
       565.5 0 536.5 18"
       style=" stroke:#000000; stroke-width:1;"       class="TAG:polyline"></polyline>
      <polyline points="564.5 0 564.5 0 564.5 198 
       536.5 228"
       style=" stroke:#000000; stroke-width:1;"       class="TAG:polyline"></polyline>
      <polyline points="234.5 33 234.5 33 234.5 243"
       style=" stroke:#000000; stroke-width:1;"       class="TAG:polyline"></polyline>
      <polygon points="295.5 39 295.5 39 295.5 39 
       295.5 39 295.5 39 "
       style=" stroke:#000000; stroke-width:1; fill:#0000ff; fill-opacity:100%"       class="TAG:polygon"></polygon>
      <polygon points="304.5 211 417.5 211 417.5 37 
       304.5 37 304.5 211 "
       style=" stroke:#000000; stroke-width:1; fill:#0000ff; fill-opacity:100%"       class="TAG:polygon"></polygon>
      <polyline points="414.5 37 414.5 37 414.5 211"
       style=" stroke:#000000; stroke-width:1;"       class="TAG:polyline"></polyline>
      <polyline points="411.5 37 411.5 37 411.5 211"
       style=" stroke:#000000; stroke-width:1;"       class="TAG:polyline"></polyline>
      <polyline points="408.5 37 408.5 37 408.5 211"
       style=" stroke:#000000; stroke-width:1;"       class="TAG:polyline"></polyline>
      <polyline points="405.5 37.5 405.5 37.5 405.5 211.5"
       style=" stroke:#000000; stroke-width:1;"       class="TAG:polyline"></polyline>
      <polyline points="403 37 403 37 403 211"
       style=" stroke:#000000; stroke-width:1;"       class="TAG:polyline"></polyline>
      <polyline points="399.5 37.5 399.5 37.5 399.5 211.5"
       style=" stroke:#000000; stroke-width:1;"       class="TAG:polyline"></polyline>
      <polyline points="396.5 37.5 396.5 37.5 396.5 211.5"
       style=" stroke:#000000; stroke-width:1;"       class="TAG:polyline"></polyline>
      <polyline points="393.5 37.5 393.5 37.5 393.5 211.5"
       style=" stroke:#000000; stroke-width:1;"       class="TAG:polyline"></polyline>
      <polyline points="390.5 36.5 390.5 36.5 390.5 210.5"
       style=" stroke:#000000; stroke-width:1;"       class="TAG:polyline"></polyline>
      <polyline points="387.5 37 387.5 37 387.5 211"
       style=" stroke:#000000; stroke-width:1;"       class="TAG:polyline"></polyline>
      <polyline points="384.5 37.5 384.5 37.5 384.5 211.5"
       style=" stroke:#000000; stroke-width:1;"       class="TAG:polyline"></polyline>
      <polyline points="381.5 37 381.5 37 381.5 211"
       style=" stroke:#000000; stroke-width:1;"       class="TAG:polyline"></polyline>
      <polyline points="378.5 37.5 378.5 37.5 378.5 211.5"
       style=" stroke:#000000; stroke-width:1;"       class="TAG:polyline"></polyline>
      <polyline points="375.5 37.5 375.5 37.5 375.5 211.5"
       style=" stroke:#000000; stroke-width:1;"       class="TAG:polyline"></polyline>
      <polyline points="372.5 37 372.5 37 372.5 211"
       style=" stroke:#000000; stroke-width:1;"       class="TAG:polyline"></polyline>
      <polyline points="369.5 37 369.5 37 369.5 211"
       style=" stroke:#000000; stroke-width:1;"       class="TAG:polyline"></polyline>
      <polyline points="366.5 37 366.5 37 366.5 211"
       style=" stroke:#000000; stroke-width:1;"       class="TAG:polyline"></polyline>
      <polyline points="363.5 37 363.5 37 363.5 211"
       style=" stroke:#000000; stroke-width:1;"       class="TAG:polyline"></polyline>
      <polyline points="360.5 37 360.5 37 360.5 211"
       style=" stroke:#000000; stroke-width:1;"       class="TAG:polyline"></polyline>
      <polyline points="357.5 37 357.5 37 357.5 211"
       style=" stroke:#000000; stroke-width:1;"       class="TAG:polyline"></polyline>
      <polyline points="354.5 37 354.5 37 354.5 211"
       style=" stroke:#000000; stroke-width:1;"       class="TAG:polyline"></polyline>
      <polyline points="351.5 37 351.5 37 351.5 211"
       style=" stroke:#000000; stroke-width:1;"       class="TAG:polyline"></polyline>
      <polyline points="348.5 37 348.5 37 348.5 211"
       style=" stroke:#000000; stroke-width:1;"       class="TAG:polyline"></polyline>
      <polyline points="345.5 37 345.5 37 345.5 211"
       style=" stroke:#000000; stroke-width:1;"       class="TAG:polyline"></polyline>
      <polyline points="342.5 37 342.5 37 342.5 211"
       style=" stroke:#000000; stroke-width:1;"       class="TAG:polyline"></polyline>
      <polyline points="339.5 37 339.5 37 339.5 211"
       style=" stroke:#000000; stroke-width:1;"       class="TAG:polyline"></polyline>
      <polyline points="336.5 37 336.5 37 336.5 211"
       style=" stroke:#000000; stroke-width:1;"       class="TAG:polyline"></polyline>
      <polyline points="333.5 37 333.5 37 333.5 211"
       style=" stroke:#000000; stroke-width:1;"       class="TAG:polyline"></polyline>
      <polyline points="330.5 37 330.5 37 330.5 211"
       style=" stroke:#000000; stroke-width:1;"       class="TAG:polyline"></polyline>
      <polyline points="327.5 37 327.5 37 327.5 211"
       style=" stroke:#000000; stroke-width:1;"       class="TAG:polyline"></polyline>
      <polyline points="324.5 37.5 324.5 37.5 324.5 211.5"
       style=" stroke:#000000; stroke-width:1;"       class="TAG:polyline"></polyline>
      <polyline points="321.5 37.5 321.5 37.5 321.5 211.5"
       style=" stroke:#000000; stroke-width:1;"       class="TAG:polyline"></polyline>
      <polyline points="318.5 37.5 318.5 37.5 318.5 211.5"
       style=" stroke:#000000; stroke-width:1;"       class="TAG:polyline"></polyline>
      <polyline points="315.5 37 315.5 37 315.5 211"
       style=" stroke:#000000; stroke-width:1;"       class="TAG:polyline"></polyline>
      <polyline points="312.5 37 312.5 37 312.5 211"
       style=" stroke:#000000; stroke-width:1;"       class="TAG:polyline"></polyline>
      <polyline points="309.5 37 309.5 37 309.5 211"
       style=" stroke:#000000; stroke-width:1;"       class="TAG:polyline"></polyline>
      <polyline points="306.5 37.5 306.5 37.5 306.5 211.5"
       style=" stroke:#000000; stroke-width:1;"       class="TAG:polyline"></polyline>
      <polygon points="307.75 136 316.25 136 316.25 111 
       307.75 111 307.75 136 "
       style=" stroke:#000000; stroke-width:1; fill:#0000ff; fill-opacity:100%"       class="TAG:polygon"></polygon>
      <polygon points="72.5 210 93.25 210 93.25 35 
       72.25 35 72.5 210 "
       style=" stroke:#000000; stroke-width:1; fill:#0000ff; fill-opacity:100%"       class="TAG:polygon"></polygon>
      <polyline points="93.5 39 93.5 39 93.5 213"
       style=" stroke:#000000; stroke-width:1;"       class="TAG:polyline"></polyline>
      <polyline points="90.5 36 90.5 36 90.5 210"
       style=" stroke:#000000; stroke-width:1;"       class="TAG:polyline"></polyline>
      <polyline points="87.5 35.5 87.5 35.5 87.5 209.5"
       style=" stroke:#000000; stroke-width:1;"       class="TAG:polyline"></polyline>
      <polyline points="84.5 36 84.5 36 84.5 210"
       style=" stroke:#000000; stroke-width:1;"       class="TAG:polyline"></polyline>
      <polyline points="81.5 35.5 81.5 35.5 81.5 209.5"
       style=" stroke:#000000; stroke-width:1;"       class="TAG:polyline"></polyline>
      <polyline points="78.5 36 78.5 36 78.5 210"
       style=" stroke:#000000; stroke-width:1;"       class="TAG:polyline"></polyline>
      <polyline points="75 35.5 75 35.5 75 209.5"
       style=" stroke:#000000; stroke-width:1;"       class="TAG:polyline"></polyline>
      <polygon points="361.5 71 361.5 71 322.5 107 
       324.5 124 361.5 71 "
       style=" stroke:#000000; stroke-width:1; fill:#0000ff; fill-opacity:100%"       class="TAG:polygon"></polygon>
      <polygon points="367.5 116 367.5 116 325.5 174 
       330.5 196 367.5 116 "
       style=" stroke:#000000; stroke-width:1; fill:#0000ff; fill-opacity:100%"       class="TAG:polygon"></polygon>
      <polygon points="398.5 58 398.5 58 377.25 75.5 
       380.5 95 398.5 58 "
       style=" stroke:#000000; stroke-width:1; fill:#0000ff; fill-opacity:100%"       class="TAG:polygon"></polygon>
      <polygon points="93.5 63 93.5 63 80.5 78 
       79.5 106 93.25 82.5 93.5 63 "
       style=" stroke:#000000; stroke-width:1; fill:#0000ff; fill-opacity:100%"       class="TAG:polygon"></polygon>
    </g>
    <g>
      <desc>METIS_TEXT_GROUP</desc>
      <text  x="0" y="283.5"
       style=" stroke:#000000; stroke-width:1; font-family:sans-serif; font-size:18; text-align:center"
       class="TAG:text_one_$&#60;VpVal(IDENTIFIER)&#62;">text</text>
      <rect x="0" y="265.5" width="570" height="54"
       style=" stroke:#000000; stroke-width:1; fill:#000000; fill-opacity:0%"></rect>
    </g>
  </symbol>
 </defs>
</svg>
