<?xml version="1.0"?>
<?metis version="3.4"?>
<?metisxml version="1.1"?>
<!DOCTYPE svg  PUBLIC "-//W3C//DTD SVG August 1999//EN"
 "http://www.w3.org/Graphics/SVG/svg-19990812.dtd">

<svg width="200" height="200">
 <title>Symbol library: 10.svg</title>
 <defs>
  <symbol id="oid0" xml:space="preserve" class="METIS_SYMBOL">
   <title>Description</title>
    <g>
      <polygon points="16 240 32 256 496 256 
       512 240 512 32 496 16 496 224 
       480 240 16 240 16 240 "
       style=" stroke:#ffffff; stroke-width:1; fill:#9b9b9b; fill-opacity:100%"       class="TAG:shadow"></polygon>
      <polygon points="16 0 480 0 496 16 
       496 224 480 240 16 240 0 224 
       0 16 16 0 16 0 16 0 "
       style=" stroke:#000000; stroke-width:1; fill:#ffffff; fill-opacity:100%"       class="TAG:canvas"></polygon>
      <rect x="8.28439" y="63.1124" width="480.74" height="7.34576"
       style=" stroke:#ffffff; stroke-width:1; fill:#000000; fill-opacity:100%"       class="TAG:bar"></rect>
      <g>
	<desc>METIS_TEXT_GROUP</desc>
	<text  x="16" y="31"
	 style=" stroke:#000000; stroke-width:1; font-family:sans-serif; font-size:16;"
	 class="TAG:text">text</text>
	<rect x="16" y="16" width="464" height="37.0355"
	 style=" stroke:#000000; stroke-width:1; fill:#ffffff; fill-opacity:0%"></rect>
      </g>
      <g>
	<desc>METIS_TEXT_GROUP</desc>
	<text  x="16" y="95"
	 style=" stroke:#000000; stroke-width:1; font-family:sans-serif; font-size:16;"
	 class="TAG:description"></text>
	<rect x="16" y="80" width="464" height="144"
	 style=" stroke:#000000; stroke-width:1; fill:#ffffff; fill-opacity:0%"></rect>
      </g>
    </g>
  </symbol>
 </defs>
</svg>
