<?xml version="1.0"?>
<?metis version="3.1"?>
<?metisxml version="1.0"?>
<!DOCTYPE svg  PUBLIC "-//W3C//DTD SVG August 1999//EN"
 "http://www.w3.org/Graphics/SVG/svg-19990812.dtd">

<svg width="200" height="200">
 <title>Symbol library: accept_criteria.svg</title>
 <defs>
  <symbol id="oid1" xml:space="preserve" class="METIS_SYMBOL">
   <title>Acceptance Criteria</title>
    <g>
      <polygon points="0 0 0 304 16.2963 320 
       880 320 880 16 863.704 0 0 0 
       0 0 0 0 0 0 0 0 
       0 0 0 0 0 0 "
       style=" stroke:#000000; stroke-width:1; fill:#9b9b9b; fill-opacity:100%"       class="TAG:shadow"></polygon>
      <rect x="0" y="0" width="240" height="304"
       style=" stroke:#000000; stroke-width:1; fill:#ffffa5; fill-opacity:100%"       class="TAG:PictureBackground"></rect>
      <rect x="240" y="0" width="624" height="304"
       style=" stroke:#000000; stroke-width:1; fill:#ffffdc; fill-opacity:100%"       class="TAG:canvas"></rect>
      <rect x="245.357" y="25.7143" width="569.522" height="231.429"
       style="stroke:none; fill:#878787; fill-opacity:0%"       class="TAG:grid"></rect>
      <g>
	<desc>METIS_TEXT_GROUP</desc>
	<text  x="256" y="15.8"
	 style=" stroke:#000000; stroke-width:1; font-family:sans-serif; font-size:16;"
	 class="TAG:text">text</text>
	<rect x="256" y="0" width="608" height="304"
	 style=" stroke:#000000; stroke-width:1; fill:#ffffff; fill-opacity:0%"></rect>
      </g>
      <polyline points="864 304 880 320"
       style=" stroke:#000000; stroke-width:1;"></polyline>
      <rect x="16.9041" y="92.3432" width="168.18" height="179.657"
       style=" stroke:#000000; stroke-width:2; fill:#000000; fill-opacity:0%"       class="TAG:Box"></rect>
      <polygon points="38.4006 176.093 101.626 243.633 224 90.7444 
       193.579 32 101.626 186.9 62.4265 115.307 38.4006 176.093 
       38.4006 176.093 38.4006 176.093 38.4006 176.093 "
       style=" stroke:#6e0000; stroke-width:1; fill:#ff0000; fill-opacity:100%"       class="TAG:Checkmark"></polygon>
    </g>
  </symbol>
 </defs>
</svg>
