<?xml version="1.0"?>
<?metis version="3.6"?>
<?metisxml version="1.1"?>
<!DOCTYPE svg  PUBLIC "-//W3C//DTD SVG 1.0//EN"
 "http://www.w3.org/TR/2001/REC-SVG-20010904/DTD/svg10.dtd">



<!--
Troux Technologies, Inc. Confidential and Proprietary.
This work contains valuable confidential, proprietary and trade secret
information of Troux Technologies, Inc. and is protected by the laws of 
the United States and other countries. Any disclosure, use or reproduction
of this work without the prior written authorization of Troux Technologies, Inc.
is strictly prohibited.
Copyright (C) 2000-2005 Troux Technologies, Inc. All rights reserved.
-->


<svg>
 <title>Symbol library: actionbutton.svg</title>
 <defs>
  <symbol id="oid1" xml:space="preserve" class="METIS_SYMBOL">
   <title>Untitled</title>
    <g>
      <polygon points="1007.81 1007.81 0 1007.81 0 0 
       1007.81 0 1007.81 1007.81"
       style="stroke:none; fill:#ffffff; fill-opacity:0%"></polygon>
      <polygon points="1007.81 511.718  1007.81 566.841 
       999.939 614.088 984.189 661.335 968.441 708.582 921.193 787.327 
       866.072 866.072 787.327 921.193 708.582 968.44 661.335 984.189 
       614.088 999.938 566.841 1007.81 511.718 1007.81  464.472 1007.81 409.35 999.938 362.103 984.189 322.73 968.44 
       236.111 921.193 165.24 866.072 102.244 787.327 54.9975 708.582 
       39.2485 661.335 23.4995 614.088 15.625 566.841 15.625 511.718 
        15.625 464.472 23.4995 409.35 39.2485 362.103 
       54.9975 322.73 102.244 236.111 165.24 165.24 236.111 102.244 
       322.73 54.998 362.103 39.248 409.35 23.5 464.472 15.625 
       511.718 15.625  566.841 15.625 614.088 23.5 
       661.335 39.248 708.582 54.998 787.327 102.244 866.072 165.24 
       921.193 236.111 968.441 322.73 984.189 362.103 999.939 409.35 
       1007.81 464.472 1007.81 511.718 "
       style="stroke:none; fill:#999999; fill-opacity:100%"></polygon>
      <polygon points="0 488.25  0 543.374 
       7.875 590.626 23.625 637.874 39.375 685.126 86.625 763.874 
       141.75 834.75 220.5 897.75 299.25 945 346.5 960.75 
       393.75 968.625 441 976.5 488.25 984.375  543.375 976.5 590.626 968.625 637.875 960.75 685.126 945 
       763.875 897.75 834.75 834.75 897.75 763.874 945 685.126 
       960.75 637.874 968.626 590.626 976.5 543.374 984.375 488.25 
        976.5 441 968.626 393.75 960.75 346.5 
       945 299.25 897.75 220.5 834.75 141.75 763.875 86.6255 
       685.126 39.3745 637.875 23.6255 590.626 7.8745 543.375 0 
       488.25 0  441 0 393.75 7.8745 
       346.5 23.6255 299.25 39.3745 220.5 86.6255 141.75 141.75 
       86.625 220.5 39.375 299.25 23.625 346.5 7.875 393.75 
       0 441 0 488.25 "
       style="stroke:none; fill:#444444; fill-opacity:100%"></polygon>
      <polygon points="15.625 488.249  15.625 440.987 
       23.5021 393.724 31.3791 346.462 47.1332 307.077 94.3956 220.429 
       149.536 149.536 220.429 94.3957 307.077 47.1333 346.462 31.3791 
       393.724 23.5026 440.986 15.625 488.249 15.625  543.388 15.625 590.651 23.5026 630.036 31.3791 677.298 47.1333 
       756.069 94.3957 826.962 149.536 889.978 220.429 929.364 307.077 
       945.118 346.462 960.872 393.724 968.75 440.987 968.75 488.249 
        968.75 543.388 960.872 590.651 945.118 630.036 
       929.364 677.299 889.978 756.069 826.962 826.962 756.069 889.979 
       677.298 929.365 630.036 945.119 590.651 960.873 543.388 968.75 
       488.249 968.75  440.986 968.75 393.724 960.873 
       346.462 945.119 307.077 929.365 220.429 889.979 149.536 826.962 
       94.3956 756.069 47.1332 677.299 31.3791 630.036 23.5021 590.651 
       15.625 543.388 15.625 488.249 "
       style="stroke:none; fill:#cccccc; fill-opacity:100%"></polygon>
      <polygon points="898.438 488.244  890.549 575.015 
       866.884 646.011 827.442 717.006 780.113 780.113 717.006 827.442 
       646.01 866.885 575.015 890.549 488.243 898.438  409.36 890.549 330.476 866.885 267.37 827.442 204.263 780.113 
       156.933 717.006 117.491 646.011 93.8258 575.015 85.9375 488.244 
        93.8258 409.36 117.491 330.476 156.933 267.37 
       204.263 204.263 267.37 156.933 330.476 117.491 409.36 93.8258 
       488.243 85.938  575.015 93.8258 646.01 117.491 
       717.006 156.933 780.113 204.263 827.442 267.37 866.884 330.476 
       890.549 409.36 898.438 488.244 "
       style="stroke:none; fill:#d1d1d1; fill-opacity:100%"></polygon>
      <polygon points="812.5 488.233  804.591 559.414 
       788.773 614.776 757.137 670.138 717.593 717.593 670.138 757.137 
       614.776 788.773 559.414 804.591 488.233 812.5  424.961 804.591 369.599 788.773 314.236 757.137 266.782 717.593 
       227.237 670.138 195.601 614.776 179.784 559.414 171.875 488.233 
        179.784 424.961 195.601 369.599 227.237 314.236 
       266.782 266.782 314.236 227.237 369.599 195.601 424.961 179.784 
       488.233 171.875  559.414 179.784 614.776 195.601 
       670.138 227.237 717.593 266.782 757.137 314.236 788.773 369.599 
       804.591 424.961 812.5 488.233 "
       style="stroke:none; fill:#d6d6d6; fill-opacity:100%"></polygon>
      <polygon points="757.706 309.054  765.625 333.18 
       757.706 341.223 749.787 341.223 726.028 341.223 678.511 325.138 
       575.556 301.011 512.2 292.968 456.764 292.968  401.328 309.054 345.891 333.18 258.775 397.519 203.339 429.688 
       195.419 429.688 187.5 429.688 195.419 405.562  227.097 317.096 250.856 284.927 282.534 252.758 314.212 220.588 
       345.891 196.461 393.408 180.377 440.925 164.292  496.362 156.25 543.878 156.25 591.396 164.292 630.994 172.335 
       662.672 196.461 702.269 220.588 726.028 260.799 757.706 309.054 
       "
       style="stroke:none; fill:#d7dbde; fill-opacity:100%"></polygon>
      <polygon points="953.125 523.438  945.219 555.267 
       937.313 595.052 929.406 650.753 897.779 706.453 858.245 770.111 
       802.899 825.81 731.739 881.511  692.207 905.383 
       644.767 929.254 565.701 953.126 494.541 953.126 431.288 953.126 
       375.941 937.212 328.502 929.254 296.875 905.383  328.502 913.34 423.381 913.34 486.634 913.34 549.887 897.426 
       621.047 881.511 692.207 849.682  755.46 801.939 
       810.807 754.196 858.245 698.495 889.872 642.795 937.313 555.267 
       953.125 523.438 "
       style="stroke:none; fill:#bbbbbb; fill-opacity:100%"></polygon>
      <polygon points="39.2142 570.312  31.3258 522.748 
       23.4375 475.183 31.3258 411.764 54.9909 340.418 70.7676 300.781 
       94.4326 261.144 125.986 221.507 165.427 181.871 204.87 142.233 
       260.087 110.524  323.194 78.8143 386.301 55.0327 
       441.52 39.1769 496.739 31.25 551.957 31.25 599.287 39.1769 
       638.728 47.1048 678.171 62.9595 749.166 102.596 796.495 134.305 
       835.938 173.943  788.607 158.088 733.388 150.161 
       670.282 134.305 591.399 126.379 496.739 134.305 402.079 150.161 
       307.419 181.871  267.976 205.652 228.534 229.434 
       165.427 284.926 118.098 348.345 86.5443 411.764 62.8792 475.183 
       47.1025 522.748 39.2142 570.312 "
       style="stroke:none; fill:#dde7f0; fill-opacity:100%"></polygon>
      <polygon points="31.25 453.126  31.25 421.297 
       39.1566 381.512 54.9699 333.768 78.6897 270.111 118.223 214.411 
       173.569 150.753 244.729 95.0523  292.168 71.1802 
       331.702 55.2668 410.768 31.3947 481.927 23.438 553.087 31.3947 
       608.433 39.3514 647.966 55.2668 687.5 71.1802  647.966 63.2235 553.087 63.2235 489.834 71.1802 426.581 79.1379 
       355.421 103.009 284.262 134.838  221.009 174.624 
       165.662 222.368 118.223 278.069 86.5963 333.768 39.1566 421.297 
       31.25 453.126 "
       style="stroke:none; fill:#ebf5ff; fill-opacity:100%"></polygon>
      <polygon points="86.5271 531.25  86.5271 594.975 
       102.446 650.736 126.327 706.495 150.207 746.324 182.046 786.152 
       213.886 818.015 285.525 873.775 357.163 905.638 412.883 921.569 
       476.563 937.5  428.803 937.5 373.084 929.534 
       309.405 905.638 245.726 873.775 205.926 849.877 174.086 818.015 
       142.246 786.152 110.407 738.358 86.5271 690.564 54.6875 626.838 
       86.5271 531.25"
       style="stroke:none; fill:#dde7f0; fill-opacity:100%"></polygon>
      <polygon points="945.313 424.293 313.045 882.812 265.625 218.75 
       945.313 424.293"
       style="stroke:none; fill:#ffffff; fill-opacity:100%"></polygon>
      <polygon points="914.063 416.759 313.327 851.562 242.188 187.5 
       914.063 416.759"
       style="stroke:none; fill:#999999; fill-opacity:100%"></polygon>
      <polygon points="265.625 234.478 336.84 828.124 882.813 432.361 
       265.625 226.562 265.625 234.478"
       style="stroke:none; fill:#465900; fill-opacity:100%"></polygon>
      <polygon points="289.062 250  843.75 440.218 
        352.455 796.875  289.062 250 
       "
       style="stroke:none; fill:#77aa00; fill-opacity:100%"></polygon>
    </g>
  </symbol>
 </defs>
 <use xlink:href="#oid1"/>
</svg>
