<?xml version="1.0"?>
<?metis version="3.1"?>
<?metisxml version="1.0"?>
<!DOCTYPE svg  PUBLIC "-//W3C//DTD SVG August 1999//EN"
 "http://www.w3.org/Graphics/SVG/svg-19990812.dtd">

<svg width="200" height="200">
 <title>Symbol library: action2.svg</title>
 <defs>
  <symbol id="oid0" xml:space="preserve" class="METIS_SYMBOL">
   <title>Action</title>
    <rect x="0" y="0" width="48" height="56"
     style=" stroke:#000000; stroke-width:1; fill:#ffffff; fill-opacity:100%"     class="TAG:PictureBackground"></rect>
    <g>
      <polygon points="7.03819 26.0459 44.2556 26.0459 44.2556 51.8998 
       7.03819 51.8998 7.03819 26.0459 7.03819 26.0459 "
       style=" stroke:#000000; stroke-width:1; fill:#ffffff; fill-opacity:100%"       class="TAG:BaseColor"></polygon>
      <polygon points="7.03819 26.2464 4 19.0313 37.2299 4 
       40.4579 11.6159 7.03819 26.2464 7.03819 26.2464 "
       style=" stroke:#000000; stroke-width:1; fill:#ffffff; fill-opacity:100%"       class="TAG:BaseColor"></polygon>
      <polyline points="7.03819 32.8602 44.2556 32.8602"
       style=" stroke:#000000; stroke-width:1;"></polyline>
      <polygon points="7.03819 27.4488 12.1651 32.8601 16.5324 32.8601 
       10.0764 26.0459 7.03819 26.0459 7.03819 27.4488 7.03819 27.4488 "
       style=" stroke:#000000; stroke-width:1; fill:#000000; fill-opacity:100%"       class="TAG:Stripes"></polygon>
      <polygon points="15.0133 26.0459 21.4694 32.8601 26.0267 32.8601 
       19.5706 26.0459 15.0133 26.0459 15.0133 26.0459 "
       style=" stroke:#000000; stroke-width:1; fill:#000000; fill-opacity:100%"       class="TAG:Stripes"></polygon>
      <polygon points="24.5075 26.0459 30.9636 32.8601 35.5209 32.8601 
       29.0648 26.0459 24.5075 26.0459 24.5075 26.0459 "
       style=" stroke:#000000; stroke-width:1; fill:#000000; fill-opacity:100%"       class="TAG:Stripes"></polygon>
      <polygon points="33.2424 26.0459 39.6985 32.8601 44.2557 32.8601 
       37.7996 26.0459 33.2424 26.0459 33.2424 26.0459 "
       style=" stroke:#000000; stroke-width:1; fill:#000000; fill-opacity:100%"       class="TAG:Stripes"></polygon>
      <polygon points="7.03819 25.4448 10.2662 16.2255 14.2538 14.4217 
       10.646 24.643 7.03819 26.2464 7.03819 25.4448 7.03819 25.4448 "
       style=" stroke:#000000; stroke-width:1; fill:#000000; fill-opacity:100%"       class="TAG:Stripes"></polygon>
      <polygon points="17.7666 12.9186 21.6593 11.0146 18.4313 21.4363 
       14.5386 22.9395 17.7666 12.9186 17.7666 12.9186 "
       style=" stroke:#000000; stroke-width:1; fill:#000000; fill-opacity:100%"       class="TAG:Stripes"></polygon>
      <polygon points="25.5045 9.36114 29.3972 7.4572 26.1691 17.879 
       22.2764 19.3821 25.5045 9.36114 25.5045 9.36114 "
       style=" stroke:#000000; stroke-width:1; fill:#000000; fill-opacity:100%"       class="TAG:Stripes"></polygon>
      <polygon points="33.2898 5.95407 37.1825 4.0501 33.9544 14.4719 
       30.0617 15.975 33.2898 5.95407 33.2898 5.95407 "
       style=" stroke:#000000; stroke-width:1; fill:#000000; fill-opacity:100%"       class="TAG:Stripes"></polygon>
      <rect x="7.13312" y="32.7599" width="37.0276" height="19.2401"
       style=" stroke:#000000; stroke-width:1; fill:#000000; fill-opacity:100%"       class="TAG:Rectangle"></rect>
    </g>
    <rect x="52" y="4" width="118.543" height="56"
     style=" stroke:#9b9b9b; stroke-width:1; fill:#9b9b9b; fill-opacity:100%"     class="TAG:shadow"></rect>
    <rect x="48" y="0" width="118.543" height="56"
     style=" stroke:#000000; stroke-width:1; fill:#ffffa5; fill-opacity:100%"     class="TAG:canvas"></rect>
    <rect x="49.5434" y="5" width="115" height="45"
     style="stroke:none; fill:#878787; fill-opacity:0%"     class="TAG:grid"></rect>
    <g>
      <desc>METIS_TEXT_GROUP</desc>
      <text  x="50.5434" y="15.8"
       style=" stroke:#000000; stroke-width:1; font-family:sans-serif; font-size:16;"
       class="TAG:text">text</text>
      <rect x="50.5434" y="0" width="117.457" height="56"
       style=" stroke:#000000; stroke-width:1; fill:#ffffff; fill-opacity:0%"></rect>
    </g>
  </symbol>
 </defs>
</svg>
