<?xml version="1.0"?>
<?metis version="3.0"?>
<?metisxml version="1.0"?>
<!DOCTYPE svg  PUBLIC "-//W3C//DTD SVG August 1999//EN"
 "http://www.w3.org/Graphics/SVG/svg-19990812.dtd">

<svg width="200" height="200">
 <title>Symbol library: actor.svg</title>
 <defs>
  <symbol id="oid0" xml:space="preserve" class="METIS_SYMBOL">
   <title>Untitled</title>
    <ellipse  cx="83" cy="16" rx="16" ry="16"
     style=" stroke:#000000; stroke-width:1; fill:#ffffff; fill-opacity:100%" class="TAG:head"></ellipse>
    <path d="M 75.0668 30.1718 C 75.0668 30.1718 59.1633 32.0753 
     51.0667 40.1718 C 43.0666 48.1718 45.2397 63.3578 43.0666 72.1718 
     C 39.7174 85.7558 30.2147 99.3197 35.0666 104.172 C 39.1436 108.249 
     38.6667 108.572 43.0666 104.172 C 54.0662 93.1718 55.2043 64.8723 
     59.0668 64.1718 C 65.6668 62.9748 62.6362 93.8978 62.2148 112.172 
     C 61.9822 122.244 59.2473 132.312 54.2148 144.172 C 51.1087 151.492 
     43.1944 151.926 46.2148 160.172 C 48.5383 166.515 56.0873 162.578 
     62.2148 160.172 C 68.2937 157.785 67.9108 150.951 70.2148 144.172 
     C 76.7843 124.841 76.4423 104.172 86.2148 104.172 C 95.9873 104.172 
     87.6453 116.841 94.2148 136.172 C 96.0588 141.598 108.925 143.987 
     110.215 144.172 C 117.215 145.172 114.215 145.172 118.215 144.172 
     C 126.691 142.053 118.215 136.172 110.215 128.172 C 100.987 118.944 
     103.519 121.413 102.215 112.172 C 99.9878 96.4003 99.0668 64.1718 
     107.067 64.1718 C 110.66 64.1718 111.947 95.0563 123.067 104.172 
     C 125.247 105.959 129.139 106.355 131.067 104.172 C 138.644 95.5878 
     125.044 83.7348 123.067 72.1718 C 120.99 60.0263 122.639 47.7439 
     115.067 40.1718 C 103.067 28.1718 99.0668 30.1718 91.0668 30.1718 
     C 91.0668 30.1718 83.0668 32.1718 83.0668 32.1718 Z"
     style=" stroke:#000000; stroke-width:1; fill:#ffffff; fill-opacity:100%" class="TAG:body"></path>
    <g>
      <desc>METIS_TEXT_GROUP</desc>
      <text  x="0" y="62.8"
       style=" stroke:#000000; stroke-width:1; font-family:sans-serif; font-size:16; text-align:center" class="TAG:text"
>text</text>
      <rect x="0" y="47" width="168" height="48"
       style=" stroke:#000000; stroke-width:1; fill:#ffffff; fill-opacity:0%"></rect>
    </g>
  </symbol>
 </defs>
</svg>
