<?xml version="1.0"?>
<?metis version="3.1"?>
<?metisxml version="1.0"?>
<!DOCTYPE svg  PUBLIC "-//W3C//DTD SVG August 1999//EN"
 "http://www.w3.org/Graphics/SVG/svg-19990812.dtd">

<svg width="200" height="200">
 <title>Symbol library: app_build_block.svg</title>
 <defs>
  <symbol id="oid1" xml:space="preserve" class="METIS_SYMBOL">
   <title>Application Building Block</title>
    <g>
      <polygon points="-1.42109e-014 0 -1.42109e-014 304 16.2963 320 
       880 320 880 16 863.704 0 -1.42109e-014 0 
       -1.42109e-014 0 -1.42109e-014 0 -1.42109e-014 0 -1.42109e-014 0 
       -1.42109e-014 0 -1.42109e-014 0 "
       style=" stroke:#000000; stroke-width:1; fill:#9b9b9b; fill-opacity:100%"       class="TAG:shadow"></polygon>
      <rect x="-1.42109e-014" y="0" width="240" height="304"
       style=" stroke:#000000; stroke-width:1; fill:#ff8c8c; fill-opacity:100%"       class="TAG:PictureBackground"></rect>
      <rect x="240" y="0" width="624" height="304"
       style=" stroke:#000000; stroke-width:1; fill:#ffdcdc; fill-opacity:100%"       class="TAG:canvas"></rect>
      <g>
	<desc>METIS_TEXT_GROUP</desc>
	<text  x="256" y="15.8"
	 style=" stroke:#000000; stroke-width:1; font-family:sans-serif; font-size:16;"
	 class="TAG:text">text</text>
	<rect x="256" y="0" width="608" height="304"
	 style=" stroke:#000000; stroke-width:1; fill:#ffffff; fill-opacity:0%"></rect>
      </g>
      <polyline points="864 304 880 320"
       style=" stroke:#000000; stroke-width:1;"></polyline>
      <g>
	<polygon points="81.3023 32 103.415 32 103.415 49.6378 
	 81.3023 49.6378 81.3023 32 81.3023 32 81.3023 32 
	 81.3023 32 81.3023 32 81.3023 32 "
	 style=" stroke:#000000; stroke-width:1; fill:#914a42; fill-opacity:100%"></polygon>
	<polygon points="103.07 32 125.528 32 125.528 49.6378 
	 103.07 49.6378 103.07 32 103.07 32 103.07 32 
	 103.07 32 103.07 32 103.07 32 "
	 style=" stroke:#000000; stroke-width:1; fill:#914a42; fill-opacity:100%"></polygon>
	<polygon points="136.585 49.0079 114.472 49.0079 114.472 67.2756 
	 136.585 67.2756 136.585 49.0079 136.585 49.0079 136.585 49.0079 
	 136.585 49.0079 136.585 49.0079 136.585 49.0079 "
	 style=" stroke:#000000; stroke-width:1; fill:#914a42; fill-opacity:100%"></polygon>
	<polygon points="114.817 49.0079 92.7042 49.0079 92.7042 67.2756 
	 114.817 67.2756 114.817 49.0079 114.817 49.0079 114.817 49.0079 
	 114.817 49.0079 114.817 49.0079 114.817 49.0079 "
	 style=" stroke:#000000; stroke-width:1; fill:#914a42; fill-opacity:100%"></polygon>
	<polygon points="93.05 49.0079 70.937 49.0079 70.937 67.2756 
	 93.05 67.2756 93.05 49.0079 93.05 49.0079 93.05 49.0079 
	 93.05 49.0079 93.05 49.0079 93.05 49.0079 "
	 style=" stroke:#000000; stroke-width:1; fill:#914a42; fill-opacity:100%"></polygon>
	<polygon points="71.2824 49.0079 48.8239 49.0079 48.8239 67.2756 
	 71.2824 67.2756 71.2824 49.0079 71.2824 49.0079 71.2824 49.0079 
	 71.2824 49.0079 71.2824 49.0079 71.2824 49.0079 "
	 style=" stroke:#000000; stroke-width:1; fill:#914a42; fill-opacity:100%"></polygon>
	<polygon points="37.7674 65.3858 59.8805 65.3858 59.8805 83.6536 
	 37.7674 83.6536 37.7674 65.3858 37.7674 65.3858 37.7674 65.3858 
	 37.7674 65.3858 37.7674 65.3858 37.7674 65.3858 "
	 style=" stroke:#000000; stroke-width:1; fill:#914a42; fill-opacity:100%"></polygon>
	<polygon points="59.5349 65.3858 81.6479 65.3858 81.6479 83.6536 
	 59.5349 83.6536 59.5349 65.3858 59.5349 65.3858 59.5349 65.3858 
	 59.5349 65.3858 59.5349 65.3858 59.5349 65.3858 "
	 style=" stroke:#000000; stroke-width:1; fill:#914a42; fill-opacity:100%"></polygon>
	<polygon points="81.3023 65.3858 103.415 65.3858 103.415 83.6536 
	 81.3023 83.6536 81.3023 65.3858 81.3023 65.3858 81.3023 65.3858 
	 81.3023 65.3858 81.3023 65.3858 81.3023 65.3858 "
	 style=" stroke:#000000; stroke-width:1; fill:#914a42; fill-opacity:100%"></polygon>
	<polygon points="103.07 65.3858 125.528 65.3858 125.528 83.6536 
	 103.07 83.6536 103.07 65.3858 103.07 65.3858 103.07 65.3858 
	 103.07 65.3858 103.07 65.3858 103.07 65.3858 "
	 style=" stroke:#000000; stroke-width:1; fill:#914a42; fill-opacity:100%"></polygon>
	<polygon points="125.183 65.3858 147.296 65.3858 147.296 83.6536 
	 125.183 83.6536 125.183 65.3858 125.183 65.3858 125.183 65.3858 
	 125.183 65.3858 125.183 65.3858 125.183 65.3858 "
	 style=" stroke:#000000; stroke-width:1; fill:#914a42; fill-opacity:100%"></polygon>
	<polygon points="158.352 83.0235 136.239 83.0235 136.239 100.661 
	 158.352 100.661 158.352 83.0235 158.352 83.0235 158.352 83.0235 
	 158.352 83.0235 158.352 83.0235 158.352 83.0235 "
	 style=" stroke:#000000; stroke-width:1; fill:#914a42; fill-opacity:100%"></polygon>
	<polygon points="136.585 83.0235 114.472 83.0235 114.472 100.661 
	 136.585 100.661 136.585 83.0235 136.585 83.0235 136.585 83.0235 
	 136.585 83.0235 136.585 83.0235 136.585 83.0235 "
	 style=" stroke:#000000; stroke-width:1; fill:#914a42; fill-opacity:100%"></polygon>
	<polygon points="114.817 83.0235 92.7042 83.0235 92.7042 100.661 
	 114.817 100.661 114.817 83.0235 114.817 83.0235 114.817 83.0235 
	 114.817 83.0235 114.817 83.0235 114.817 83.0235 "
	 style=" stroke:#000000; stroke-width:1; fill:#914a42; fill-opacity:100%"></polygon>
	<polygon points="93.05 83.0235 70.937 83.0235 70.937 100.661 
	 93.05 100.661 93.05 83.0235 93.05 83.0235 93.05 83.0235 
	 93.05 83.0235 93.05 83.0235 93.05 83.0235 "
	 style=" stroke:#000000; stroke-width:1; fill:#914a42; fill-opacity:100%"></polygon>
	<polygon points="71.2824 83.0235 48.8239 83.0235 48.8239 100.661 
	 71.2824 100.661 71.2824 83.0235 71.2824 83.0235 71.2824 83.0235 
	 71.2824 83.0235 71.2824 83.0235 71.2824 83.0235 "
	 style=" stroke:#000000; stroke-width:1; fill:#914a42; fill-opacity:100%"></polygon>
	<polygon points="49.1695 83.0235 27.0564 83.0235 27.0564 100.661 
	 49.1695 100.661 49.1695 83.0235 49.1695 83.0235 49.1695 83.0235 
	 49.1695 83.0235 49.1695 83.0235 49.1695 83.0235 "
	 style=" stroke:#000000; stroke-width:1; fill:#914a42; fill-opacity:100%"></polygon>
	<polygon points="27.402 83.0235 16 83.0235 16 100.661 
	 27.402 100.661 27.402 83.0235 27.402 83.0235 27.402 83.0235 
	 27.402 83.0235 27.402 83.0235 27.402 83.0235 "
	 style=" stroke:#000000; stroke-width:1; fill:#914a42; fill-opacity:100%"></polygon>
	<polygon points="16 99.4017 38.113 99.4017 38.113 117.039 
	 16 117.039 16 99.4017 16 99.4017 16 99.4017 
	 16 99.4017 16 99.4017 16 99.4017 "
	 style=" stroke:#000000; stroke-width:1; fill:#914a42; fill-opacity:100%"></polygon>
	<polygon points="37.7674 99.4017 59.8805 99.4017 59.8805 117.039 
	 37.7674 117.039 37.7674 99.4017 37.7674 99.4017 37.7674 99.4017 
	 37.7674 99.4017 37.7674 99.4017 37.7674 99.4017 "
	 style=" stroke:#000000; stroke-width:1; fill:#914a42; fill-opacity:100%"></polygon>
	<polygon points="59.5349 99.4017 81.6479 99.4017 81.6479 117.039 
	 59.5349 117.039 59.5349 99.4017 59.5349 99.4017 59.5349 99.4017 
	 59.5349 99.4017 59.5349 99.4017 59.5349 99.4017 "
	 style=" stroke:#000000; stroke-width:1; fill:#914a42; fill-opacity:100%"></polygon>
	<polygon points="81.3023 99.4017 103.415 99.4017 103.415 117.039 
	 81.3023 117.039 81.3023 99.4017 81.3023 99.4017 81.3023 99.4017 
	 81.3023 99.4017 81.3023 99.4017 81.3023 99.4017 "
	 style=" stroke:#000000; stroke-width:1; fill:#914a42; fill-opacity:100%"></polygon>
	<polygon points="103.07 99.4017 125.528 99.4017 125.528 117.039 
	 103.07 117.039 103.07 99.4017 103.07 99.4017 103.07 99.4017 
	 103.07 99.4017 103.07 99.4017 103.07 99.4017 "
	 style=" stroke:#000000; stroke-width:1; fill:#914a42; fill-opacity:100%"></polygon>
	<polygon points="125.183 99.4017 147.296 99.4017 147.296 117.039 
	 125.183 117.039 125.183 99.4017 125.183 99.4017 125.183 99.4017 
	 125.183 99.4017 125.183 99.4017 125.183 99.4017 "
	 style=" stroke:#000000; stroke-width:1; fill:#914a42; fill-opacity:100%"></polygon>
	<polygon points="146.951 99.4017 169.063 99.4017 169.063 117.039 
	 146.951 117.039 146.951 99.4017 146.951 99.4017 146.951 99.4017 
	 146.951 99.4017 146.951 99.4017 146.951 99.4017 "
	 style=" stroke:#000000; stroke-width:1; fill:#914a42; fill-opacity:100%"></polygon>
	<polygon points="180.465 116.41 158.006 116.41 158.006 134.677 
	 180.465 134.677 180.465 116.41 180.465 116.41 180.465 116.41 
	 180.465 116.41 180.465 116.41 180.465 116.41 "
	 style=" stroke:#000000; stroke-width:1; fill:#914a42; fill-opacity:100%"></polygon>
	<polygon points="158.352 116.41 136.239 116.41 136.239 134.677 
	 158.352 134.677 158.352 116.41 158.352 116.41 158.352 116.41 
	 158.352 116.41 158.352 116.41 158.352 116.41 "
	 style=" stroke:#000000; stroke-width:1; fill:#914a42; fill-opacity:100%"></polygon>
	<polygon points="136.585 116.41 114.472 116.41 114.472 134.677 
	 136.585 134.677 136.585 116.41 136.585 116.41 136.585 116.41 
	 136.585 116.41 136.585 116.41 136.585 116.41 "
	 style=" stroke:#000000; stroke-width:1; fill:#914a42; fill-opacity:100%"></polygon>
	<polygon points="114.817 116.41 92.7042 116.41 92.7042 134.677 
	 114.817 134.677 114.817 116.41 114.817 116.41 114.817 116.41 
	 114.817 116.41 114.817 116.41 114.817 116.41 "
	 style=" stroke:#000000; stroke-width:1; fill:#914a42; fill-opacity:100%"></polygon>
	<polygon points="93.05 116.41 70.937 116.41 70.937 134.677 
	 93.05 134.677 93.05 116.41 93.05 116.41 93.05 116.41 
	 93.05 116.41 93.05 116.41 93.05 116.41 "
	 style=" stroke:#000000; stroke-width:1; fill:#914a42; fill-opacity:100%"></polygon>
	<polygon points="71.2824 116.41 48.8239 116.41 48.8239 134.677 
	 71.2824 134.677 71.2824 116.41 71.2824 116.41 71.2824 116.41 
	 71.2824 116.41 71.2824 116.41 71.2824 116.41 "
	 style=" stroke:#000000; stroke-width:1; fill:#914a42; fill-opacity:100%"></polygon>
	<polygon points="49.1695 116.41 27.0564 116.41 27.0564 134.677 
	 49.1695 134.677 49.1695 116.41 49.1695 116.41 49.1695 116.41 
	 49.1695 116.41 49.1695 116.41 49.1695 116.41 "
	 style=" stroke:#000000; stroke-width:1; fill:#914a42; fill-opacity:100%"></polygon>
	<polygon points="27.402 116.41 16 116.41 16 134.677 
	 27.402 134.677 27.402 116.41 27.402 116.41 27.402 116.41 
	 27.402 116.41 27.402 116.41 27.402 116.41 "
	 style=" stroke:#000000; stroke-width:1; fill:#914a42; fill-opacity:100%"></polygon>
	<polygon points="16 132.787 38.113 132.787 38.113 150.425 
	 16 150.425 16 132.787 16 132.787 16 132.787 
	 16 132.787 16 132.787 16 132.787 "
	 style=" stroke:#000000; stroke-width:1; fill:#914a42; fill-opacity:100%"></polygon>
	<polygon points="37.7674 132.787 59.8805 132.787 59.8805 150.425 
	 37.7674 150.425 37.7674 132.787 37.7674 132.787 37.7674 132.787 
	 37.7674 132.787 37.7674 132.787 37.7674 132.787 "
	 style=" stroke:#000000; stroke-width:1; fill:#914a42; fill-opacity:100%"></polygon>
	<polygon points="59.5349 132.787 81.6479 132.787 81.6479 150.425 
	 59.5349 150.425 59.5349 132.787 59.5349 132.787 59.5349 132.787 
	 59.5349 132.787 59.5349 132.787 59.5349 132.787 "
	 style=" stroke:#000000; stroke-width:1; fill:#914a42; fill-opacity:100%"></polygon>
	<polygon points="81.3023 132.787 103.415 132.787 103.415 150.425 
	 81.3023 150.425 81.3023 132.787 81.3023 132.787 81.3023 132.787 
	 81.3023 132.787 81.3023 132.787 81.3023 132.787 "
	 style=" stroke:#000000; stroke-width:1; fill:#914a42; fill-opacity:100%"></polygon>
	<polygon points="103.07 132.787 125.528 132.787 125.528 150.425 
	 103.07 150.425 103.07 132.787 103.07 132.787 103.07 132.787 
	 103.07 132.787 103.07 132.787 103.07 132.787 "
	 style=" stroke:#000000; stroke-width:1; fill:#914a42; fill-opacity:100%"></polygon>
	<polygon points="125.183 132.787 147.296 132.787 147.296 150.425 
	 125.183 150.425 125.183 132.787 125.183 132.787 125.183 132.787 
	 125.183 132.787 125.183 132.787 125.183 132.787 "
	 style=" stroke:#000000; stroke-width:1; fill:#914a42; fill-opacity:100%"></polygon>
	<polygon points="146.951 132.787 169.063 132.787 169.063 150.425 
	 146.951 150.425 146.951 132.787 146.951 132.787 146.951 132.787 
	 146.951 132.787 146.951 132.787 146.951 132.787 "
	 style=" stroke:#000000; stroke-width:1; fill:#914a42; fill-opacity:100%"></polygon>
	<polygon points="168.717 132.787 190.831 132.787 190.831 150.425 
	 168.717 150.425 168.717 132.787 168.717 132.787 168.717 132.787 
	 168.717 132.787 168.717 132.787 168.717 132.787 "
	 style=" stroke:#000000; stroke-width:1; fill:#914a42; fill-opacity:100%"></polygon>
	<polygon points="202.232 149.795 180.12 149.795 180.12 168.063 
	 202.232 168.063 202.232 149.795 202.232 149.795 202.232 149.795 
	 202.232 149.795 202.232 149.795 202.232 149.795 "
	 style=" stroke:#000000; stroke-width:1; fill:#914a42; fill-opacity:100%"></polygon>
	<polygon points="180.465 149.795 158.006 149.795 158.006 168.063 
	 180.465 168.063 180.465 149.795 180.465 149.795 180.465 149.795 
	 180.465 149.795 180.465 149.795 180.465 149.795 "
	 style=" stroke:#000000; stroke-width:1; fill:#914a42; fill-opacity:100%"></polygon>
	<polygon points="158.352 149.795 136.239 149.795 136.239 168.063 
	 158.352 168.063 158.352 149.795 158.352 149.795 158.352 149.795 
	 158.352 149.795 158.352 149.795 158.352 149.795 "
	 style=" stroke:#000000; stroke-width:1; fill:#914a42; fill-opacity:100%"></polygon>
	<polygon points="136.585 149.795 114.472 149.795 114.472 168.063 
	 136.585 168.063 136.585 149.795 136.585 149.795 136.585 149.795 
	 136.585 149.795 136.585 149.795 136.585 149.795 "
	 style=" stroke:#000000; stroke-width:1; fill:#914a42; fill-opacity:100%"></polygon>
	<polygon points="114.817 149.795 92.7042 149.795 92.7042 168.063 
	 114.817 168.063 114.817 149.795 114.817 149.795 114.817 149.795 
	 114.817 149.795 114.817 149.795 114.817 149.795 "
	 style=" stroke:#000000; stroke-width:1; fill:#914a42; fill-opacity:100%"></polygon>
	<polygon points="93.05 149.795 70.937 149.795 70.937 168.063 
	 93.05 168.063 93.05 149.795 93.05 149.795 93.05 149.795 
	 93.05 149.795 93.05 149.795 93.05 149.795 "
	 style=" stroke:#000000; stroke-width:1; fill:#914a42; fill-opacity:100%"></polygon>
	<polygon points="71.2824 149.795 48.8239 149.795 48.8239 168.063 
	 71.2824 168.063 71.2824 149.795 71.2824 149.795 71.2824 149.795 
	 71.2824 149.795 71.2824 149.795 71.2824 149.795 "
	 style=" stroke:#000000; stroke-width:1; fill:#914a42; fill-opacity:100%"></polygon>
	<polygon points="49.1695 149.795 27.0564 149.795 27.0564 168.063 
	 49.1695 168.063 49.1695 149.795 49.1695 149.795 49.1695 149.795 
	 49.1695 149.795 49.1695 149.795 49.1695 149.795 "
	 style=" stroke:#000000; stroke-width:1; fill:#914a42; fill-opacity:100%"></polygon>
	<polygon points="27.402 149.795 16 149.795 16 168.063 
	 27.402 168.063 27.402 149.795 27.402 149.795 27.402 149.795 
	 27.402 149.795 27.402 149.795 27.402 149.795 "
	 style=" stroke:#000000; stroke-width:1; fill:#914a42; fill-opacity:100%"></polygon>
	<polygon points="16 167.433 38.113 167.433 38.113 185.071 
	 16 185.071 16 167.433 16 167.433 16 167.433 
	 16 167.433 16 167.433 16 167.433 "
	 style=" stroke:#000000; stroke-width:1; fill:#914a42; fill-opacity:100%"></polygon>
	<polygon points="37.7674 167.433 59.8805 167.433 59.8805 185.071 
	 37.7674 185.071 37.7674 167.433 37.7674 167.433 37.7674 167.433 
	 37.7674 167.433 37.7674 167.433 37.7674 167.433 "
	 style=" stroke:#000000; stroke-width:1; fill:#914a42; fill-opacity:100%"></polygon>
	<polygon points="59.5349 167.433 81.6479 167.433 81.6479 185.071 
	 59.5349 185.071 59.5349 167.433 59.5349 167.433 59.5349 167.433 
	 59.5349 167.433 59.5349 167.433 59.5349 167.433 "
	 style=" stroke:#000000; stroke-width:1; fill:#914a42; fill-opacity:100%"></polygon>
	<polygon points="81.3023 167.433 103.415 167.433 103.415 185.071 
	 81.3023 185.071 81.3023 167.433 81.3023 167.433 81.3023 167.433 
	 81.3023 167.433 81.3023 167.433 81.3023 167.433 "
	 style=" stroke:#000000; stroke-width:1; fill:#914a42; fill-opacity:100%"></polygon>
	<polygon points="103.07 167.433 125.528 167.433 125.528 185.071 
	 103.07 185.071 103.07 167.433 103.07 167.433 103.07 167.433 
	 103.07 167.433 103.07 167.433 103.07 167.433 "
	 style=" stroke:#000000; stroke-width:1; fill:#914a42; fill-opacity:100%"></polygon>
	<polygon points="125.183 167.433 147.296 167.433 147.296 185.071 
	 125.183 185.071 125.183 167.433 125.183 167.433 125.183 167.433 
	 125.183 167.433 125.183 167.433 125.183 167.433 "
	 style=" stroke:#000000; stroke-width:1; fill:#914a42; fill-opacity:100%"></polygon>
	<polygon points="146.951 167.433 169.063 167.433 169.063 185.071 
	 146.951 185.071 146.951 167.433 146.951 167.433 146.951 167.433 
	 146.951 167.433 146.951 167.433 146.951 167.433 "
	 style=" stroke:#000000; stroke-width:1; fill:#914a42; fill-opacity:100%"></polygon>
	<polygon points="168.717 167.433 190.831 167.433 190.831 185.071 
	 168.717 185.071 168.717 167.433 168.717 167.433 168.717 167.433 
	 168.717 167.433 168.717 167.433 168.717 167.433 "
	 style=" stroke:#000000; stroke-width:1; fill:#914a42; fill-opacity:100%"></polygon>
	<polygon points="190.485 167.433 212.598 167.433 212.598 185.071 
	 190.485 185.071 190.485 167.433 190.485 167.433 190.485 167.433 
	 190.485 167.433 190.485 167.433 190.485 167.433 "
	 style=" stroke:#000000; stroke-width:1; fill:#914a42; fill-opacity:100%"></polygon>
	<polygon points="212.252 167.433 224 167.433 224 185.071 
	 212.252 185.071 212.252 167.433 212.252 167.433 212.252 167.433 
	 212.252 167.433 212.252 167.433 212.252 167.433 "
	 style=" stroke:#000000; stroke-width:1; fill:#914a42; fill-opacity:100%"></polygon>
	<polygon points="224 184.441 201.887 184.441 201.887 202.709 
	 224 202.709 224 184.441 224 184.441 224 184.441 
	 224 184.441 224 184.441 224 184.441 "
	 style=" stroke:#000000; stroke-width:1; fill:#914a42; fill-opacity:100%"></polygon>
	<polygon points="202.232 184.441 180.12 184.441 180.12 202.709 
	 202.232 202.709 202.232 184.441 202.232 184.441 202.232 184.441 
	 202.232 184.441 202.232 184.441 202.232 184.441 "
	 style=" stroke:#000000; stroke-width:1; fill:#914a42; fill-opacity:100%"></polygon>
	<polygon points="180.465 184.441 158.006 184.441 158.006 202.709 
	 180.465 202.709 180.465 184.441 180.465 184.441 180.465 184.441 
	 180.465 184.441 180.465 184.441 180.465 184.441 "
	 style=" stroke:#000000; stroke-width:1; fill:#914a42; fill-opacity:100%"></polygon>
	<polygon points="158.352 184.441 136.239 184.441 136.239 202.709 
	 158.352 202.709 158.352 184.441 158.352 184.441 158.352 184.441 
	 158.352 184.441 158.352 184.441 158.352 184.441 "
	 style=" stroke:#000000; stroke-width:1; fill:#914a42; fill-opacity:100%"></polygon>
	<polygon points="136.585 184.441 114.472 184.441 114.472 202.709 
	 136.585 202.709 136.585 184.441 136.585 184.441 136.585 184.441 
	 136.585 184.441 136.585 184.441 136.585 184.441 "
	 style=" stroke:#000000; stroke-width:1; fill:#914a42; fill-opacity:100%"></polygon>
	<polygon points="114.817 184.441 92.7042 184.441 92.7042 202.709 
	 114.817 202.709 114.817 184.441 114.817 184.441 114.817 184.441 
	 114.817 184.441 114.817 184.441 114.817 184.441 "
	 style=" stroke:#000000; stroke-width:1; fill:#914a42; fill-opacity:100%"></polygon>
	<polygon points="93.05 184.441 70.937 184.441 70.937 202.709 
	 93.05 202.709 93.05 184.441 93.05 184.441 93.05 184.441 
	 93.05 184.441 93.05 184.441 93.05 184.441 "
	 style=" stroke:#000000; stroke-width:1; fill:#914a42; fill-opacity:100%"></polygon>
	<polygon points="71.2824 184.441 48.8239 184.441 48.8239 202.709 
	 71.2824 202.709 71.2824 184.441 71.2824 184.441 71.2824 184.441 
	 71.2824 184.441 71.2824 184.441 71.2824 184.441 "
	 style=" stroke:#000000; stroke-width:1; fill:#914a42; fill-opacity:100%"></polygon>
	<polygon points="49.1695 184.441 27.0564 184.441 27.0564 202.709 
	 49.1695 202.709 49.1695 184.441 49.1695 184.441 49.1695 184.441 
	 49.1695 184.441 49.1695 184.441 49.1695 184.441 "
	 style=" stroke:#000000; stroke-width:1; fill:#914a42; fill-opacity:100%"></polygon>
	<polygon points="27.402 184.441 16 184.441 16 202.709 
	 27.402 202.709 27.402 184.441 27.402 184.441 27.402 184.441 
	 27.402 184.441 27.402 184.441 27.402 184.441 "
	 style=" stroke:#000000; stroke-width:1; fill:#914a42; fill-opacity:100%"></polygon>
	<polygon points="16 202.079 38.113 202.079 38.113 219.716 
	 16 219.716 16 202.079 16 202.079 16 202.079 
	 16 202.079 16 202.079 16 202.079 "
	 style=" stroke:#000000; stroke-width:1; fill:#914a42; fill-opacity:100%"></polygon>
	<polygon points="37.7674 202.079 59.8805 202.079 59.8805 219.716 
	 37.7674 219.716 37.7674 202.079 37.7674 202.079 37.7674 202.079 
	 37.7674 202.079 37.7674 202.079 37.7674 202.079 "
	 style=" stroke:#000000; stroke-width:1; fill:#914a42; fill-opacity:100%"></polygon>
	<polygon points="59.5349 202.079 81.6479 202.079 81.6479 219.716 
	 59.5349 219.716 59.5349 202.079 59.5349 202.079 59.5349 202.079 
	 59.5349 202.079 59.5349 202.079 59.5349 202.079 "
	 style=" stroke:#000000; stroke-width:1; fill:#914a42; fill-opacity:100%"></polygon>
	<polygon points="81.3023 202.079 103.415 202.079 103.415 219.716 
	 81.3023 219.716 81.3023 202.079 81.3023 202.079 81.3023 202.079 
	 81.3023 202.079 81.3023 202.079 81.3023 202.079 "
	 style=" stroke:#000000; stroke-width:1; fill:#914a42; fill-opacity:100%"></polygon>
	<polygon points="103.07 202.079 125.528 202.079 125.528 219.716 
	 103.07 219.716 103.07 202.079 103.07 202.079 103.07 202.079 
	 103.07 202.079 103.07 202.079 103.07 202.079 "
	 style=" stroke:#000000; stroke-width:1; fill:#914a42; fill-opacity:100%"></polygon>
	<polygon points="125.183 202.079 147.296 202.079 147.296 219.716 
	 125.183 219.716 125.183 202.079 125.183 202.079 125.183 202.079 
	 125.183 202.079 125.183 202.079 125.183 202.079 "
	 style=" stroke:#000000; stroke-width:1; fill:#914a42; fill-opacity:100%"></polygon>
	<polygon points="146.951 202.079 169.063 202.079 169.063 219.716 
	 146.951 219.716 146.951 202.079 146.951 202.079 146.951 202.079 
	 146.951 202.079 146.951 202.079 146.951 202.079 "
	 style=" stroke:#000000; stroke-width:1; fill:#914a42; fill-opacity:100%"></polygon>
	<polygon points="168.717 202.079 190.831 202.079 190.831 219.716 
	 168.717 219.716 168.717 202.079 168.717 202.079 168.717 202.079 
	 168.717 202.079 168.717 202.079 168.717 202.079 "
	 style=" stroke:#000000; stroke-width:1; fill:#914a42; fill-opacity:100%"></polygon>
	<polygon points="190.485 202.079 212.598 202.079 212.598 219.716 
	 190.485 219.716 190.485 202.079 190.485 202.079 190.485 202.079 
	 190.485 202.079 190.485 202.079 190.485 202.079 "
	 style=" stroke:#000000; stroke-width:1; fill:#914a42; fill-opacity:100%"></polygon>
	<polygon points="212.252 202.079 224 202.079 224 219.716 
	 212.252 219.716 212.252 202.079 212.252 202.079 212.252 202.079 
	 212.252 202.079 212.252 202.079 212.252 202.079 "
	 style=" stroke:#000000; stroke-width:1; fill:#914a42; fill-opacity:100%"></polygon>
	<polygon points="224 219.086 201.887 219.086 201.887 237.355 
	 224 237.355 224 219.086 224 219.086 224 219.086 
	 224 219.086 224 219.086 224 219.086 "
	 style=" stroke:#000000; stroke-width:1; fill:#914a42; fill-opacity:100%"></polygon>
	<polygon points="202.232 219.086 180.12 219.086 180.12 237.355 
	 202.232 237.355 202.232 219.086 202.232 219.086 202.232 219.086 
	 202.232 219.086 202.232 219.086 202.232 219.086 "
	 style=" stroke:#000000; stroke-width:1; fill:#914a42; fill-opacity:100%"></polygon>
	<polygon points="180.465 219.086 158.006 219.086 158.006 237.355 
	 180.465 237.355 180.465 219.086 180.465 219.086 180.465 219.086 
	 180.465 219.086 180.465 219.086 180.465 219.086 "
	 style=" stroke:#000000; stroke-width:1; fill:#914a42; fill-opacity:100%"></polygon>
	<polygon points="158.352 219.086 136.239 219.086 136.239 237.355 
	 158.352 237.355 158.352 219.086 158.352 219.086 158.352 219.086 
	 158.352 219.086 158.352 219.086 158.352 219.086 "
	 style=" stroke:#000000; stroke-width:1; fill:#914a42; fill-opacity:100%"></polygon>
	<polygon points="136.585 219.086 114.472 219.086 114.472 237.355 
	 136.585 237.355 136.585 219.086 136.585 219.086 136.585 219.086 
	 136.585 219.086 136.585 219.086 136.585 219.086 "
	 style=" stroke:#000000; stroke-width:1; fill:#914a42; fill-opacity:100%"></polygon>
	<polygon points="114.817 219.086 92.7042 219.086 92.7042 237.355 
	 114.817 237.355 114.817 219.086 114.817 219.086 114.817 219.086 
	 114.817 219.086 114.817 219.086 114.817 219.086 "
	 style=" stroke:#000000; stroke-width:1; fill:#914a42; fill-opacity:100%"></polygon>
	<polygon points="93.05 219.086 70.937 219.086 70.937 237.355 
	 93.05 237.355 93.05 219.086 93.05 219.086 93.05 219.086 
	 93.05 219.086 93.05 219.086 93.05 219.086 "
	 style=" stroke:#000000; stroke-width:1; fill:#914a42; fill-opacity:100%"></polygon>
	<polygon points="71.2824 219.086 48.8239 219.086 48.8239 237.355 
	 71.2824 237.355 71.2824 219.086 71.2824 219.086 71.2824 219.086 
	 71.2824 219.086 71.2824 219.086 71.2824 219.086 "
	 style=" stroke:#000000; stroke-width:1; fill:#914a42; fill-opacity:100%"></polygon>
	<polygon points="49.1695 219.086 27.0564 219.086 27.0564 237.355 
	 49.1695 237.355 49.1695 219.086 49.1695 219.086 49.1695 219.086 
	 49.1695 219.086 49.1695 219.086 49.1695 219.086 "
	 style=" stroke:#000000; stroke-width:1; fill:#914a42; fill-opacity:100%"></polygon>
	<polygon points="27.402 219.086 16 219.086 16 237.355 
	 27.402 237.355 27.402 219.086 27.402 219.086 27.402 219.086 
	 27.402 219.086 27.402 219.086 27.402 219.086 "
	 style=" stroke:#000000; stroke-width:1; fill:#914a42; fill-opacity:100%"></polygon>
	<polygon points="16 236.724 38.113 236.724 38.113 254.362 
	 16 254.362 16 236.724 16 236.724 16 236.724 
	 16 236.724 16 236.724 16 236.724 "
	 style=" stroke:#000000; stroke-width:1; fill:#914a42; fill-opacity:100%"></polygon>
	<polygon points="37.7674 236.724 59.8805 236.724 59.8805 254.362 
	 37.7674 254.362 37.7674 236.724 37.7674 236.724 37.7674 236.724 
	 37.7674 236.724 37.7674 236.724 37.7674 236.724 "
	 style=" stroke:#000000; stroke-width:1; fill:#914a42; fill-opacity:100%"></polygon>
	<polygon points="59.5349 236.724 81.6479 236.724 81.6479 254.362 
	 59.5349 254.362 59.5349 236.724 59.5349 236.724 59.5349 236.724 
	 59.5349 236.724 59.5349 236.724 59.5349 236.724 "
	 style=" stroke:#000000; stroke-width:1; fill:#914a42; fill-opacity:100%"></polygon>
	<polygon points="81.3023 236.724 103.415 236.724 103.415 254.362 
	 81.3023 254.362 81.3023 236.724 81.3023 236.724 81.3023 236.724 
	 81.3023 236.724 81.3023 236.724 81.3023 236.724 "
	 style=" stroke:#000000; stroke-width:1; fill:#914a42; fill-opacity:100%"></polygon>
	<polygon points="103.07 236.724 125.528 236.724 125.528 254.362 
	 103.07 254.362 103.07 236.724 103.07 236.724 103.07 236.724 
	 103.07 236.724 103.07 236.724 103.07 236.724 "
	 style=" stroke:#000000; stroke-width:1; fill:#914a42; fill-opacity:100%"></polygon>
	<polygon points="125.183 236.724 147.296 236.724 147.296 254.362 
	 125.183 254.362 125.183 236.724 125.183 236.724 125.183 236.724 
	 125.183 236.724 125.183 236.724 125.183 236.724 "
	 style=" stroke:#000000; stroke-width:1; fill:#914a42; fill-opacity:100%"></polygon>
	<polygon points="146.951 236.724 169.063 236.724 169.063 254.362 
	 146.951 254.362 146.951 236.724 146.951 236.724 146.951 236.724 
	 146.951 236.724 146.951 236.724 146.951 236.724 "
	 style=" stroke:#000000; stroke-width:1; fill:#914a42; fill-opacity:100%"></polygon>
	<polygon points="168.717 236.724 190.831 236.724 190.831 254.362 
	 168.717 254.362 168.717 236.724 168.717 236.724 168.717 236.724 
	 168.717 236.724 168.717 236.724 168.717 236.724 "
	 style=" stroke:#000000; stroke-width:1; fill:#914a42; fill-opacity:100%"></polygon>
	<polygon points="190.485 236.724 212.598 236.724 212.598 254.362 
	 190.485 254.362 190.485 236.724 190.485 236.724 190.485 236.724 
	 190.485 236.724 190.485 236.724 190.485 236.724 "
	 style=" stroke:#000000; stroke-width:1; fill:#914a42; fill-opacity:100%"></polygon>
	<polygon points="212.252 236.724 224 236.724 224 254.362 
	 212.252 254.362 212.252 236.724 212.252 236.724 212.252 236.724 
	 212.252 236.724 212.252 236.724 212.252 236.724 "
	 style=" stroke:#000000; stroke-width:1; fill:#914a42; fill-opacity:100%"></polygon>
	<polygon points="224 253.733 201.887 253.733 201.887 272 
	 224 272 224 253.733 224 253.733 224 253.733 
	 224 253.733 224 253.733 224 253.733 "
	 style=" stroke:#000000; stroke-width:1; fill:#914a42; fill-opacity:100%"></polygon>
	<polygon points="202.232 253.733 180.12 253.733 180.12 272 
	 202.232 272 202.232 253.733 202.232 253.733 202.232 253.733 
	 202.232 253.733 202.232 253.733 202.232 253.733 "
	 style=" stroke:#000000; stroke-width:1; fill:#914a42; fill-opacity:100%"></polygon>
	<polygon points="180.465 253.733 158.006 253.733 158.006 272 
	 180.465 272 180.465 253.733 180.465 253.733 180.465 253.733 
	 180.465 253.733 180.465 253.733 180.465 253.733 "
	 style=" stroke:#000000; stroke-width:1; fill:#914a42; fill-opacity:100%"></polygon>
	<polygon points="158.352 253.733 136.239 253.733 136.239 272 
	 158.352 272 158.352 253.733 158.352 253.733 158.352 253.733 
	 158.352 253.733 158.352 253.733 158.352 253.733 "
	 style=" stroke:#000000; stroke-width:1; fill:#914a42; fill-opacity:100%"></polygon>
	<polygon points="136.585 253.733 114.472 253.733 114.472 272 
	 136.585 272 136.585 253.733 136.585 253.733 136.585 253.733 
	 136.585 253.733 136.585 253.733 136.585 253.733 "
	 style=" stroke:#000000; stroke-width:1; fill:#914a42; fill-opacity:100%"></polygon>
	<polygon points="114.817 253.733 92.7042 253.733 92.7042 272 
	 114.817 272 114.817 253.733 114.817 253.733 114.817 253.733 
	 114.817 253.733 114.817 253.733 114.817 253.733 "
	 style=" stroke:#000000; stroke-width:1; fill:#914a42; fill-opacity:100%"></polygon>
	<polygon points="93.05 253.733 70.937 253.733 70.937 272 
	 93.05 272 93.05 253.733 93.05 253.733 93.05 253.733 
	 93.05 253.733 93.05 253.733 93.05 253.733 "
	 style=" stroke:#000000; stroke-width:1; fill:#914a42; fill-opacity:100%"></polygon>
	<polygon points="71.2824 253.733 48.8239 253.733 48.8239 272 
	 71.2824 272 71.2824 253.733 71.2824 253.733 71.2824 253.733 
	 71.2824 253.733 71.2824 253.733 71.2824 253.733 "
	 style=" stroke:#000000; stroke-width:1; fill:#914a42; fill-opacity:100%"></polygon>
	<polygon points="49.1695 253.733 27.0564 253.733 27.0564 272 
	 49.1695 272 49.1695 253.733 49.1695 253.733 49.1695 253.733 
	 49.1695 253.733 49.1695 253.733 49.1695 253.733 "
	 style=" stroke:#000000; stroke-width:1; fill:#914a42; fill-opacity:100%"></polygon>
	<polygon points="27.402 253.733 16 253.733 16 272 
	 27.402 272 27.402 253.733 27.402 253.733 27.402 253.733 
	 27.402 253.733 27.402 253.733 27.402 253.733 "
	 style=" stroke:#000000; stroke-width:1; fill:#914a42; fill-opacity:100%"></polygon>
      </g>
    </g>
  </symbol>
 </defs>
</svg>
