<?xml version="1.0"?>
<?metis version="3.1"?>
<?metisxml version="1.0"?>
<!DOCTYPE svg  PUBLIC "-//W3C//DTD SVG August 1999//EN"
 "http://www.w3.org/Graphics/SVG/svg-19990812.dtd">

<svg width="200" height="200">
 <title>Symbol library: application_type.svg</title>
 <defs>
  <symbol id="oid1" xml:space="preserve" class="METIS_SYMBOL">
   <title>Application Type</title>
    <g>
      <polygon points="0 0 0 304 16.2963 320 
       880 320 880 16 863.704 0 0 0 
       0 0 0 0 0 0 0 0 
       0 0 0 0 0 0 0 0 "
       style=" stroke:#000000; stroke-width:1; fill:#9b9b9b; fill-opacity:100%"       class="TAG:shadow"></polygon>
      <rect x="0" y="0" width="240" height="304"
       style=" stroke:#000000; stroke-width:1; fill:#ff8c8c; fill-opacity:100%"       class="TAG:PictureBackground"></rect>
      <rect x="240" y="0" width="624" height="304"
       style=" stroke:#000000; stroke-width:1; fill:#ffdcdc; fill-opacity:100%"       class="TAG:canvas"></rect>
      <g>
	<desc>METIS_TEXT_GROUP</desc>
	<text  x="256" y="15.8"
	 style=" stroke:#000000; stroke-width:1; font-family:sans-serif; font-size:16;"
	 class="TAG:text">text</text>
	<rect x="256" y="0" width="608" height="304"
	 style=" stroke:#000000; stroke-width:1; fill:#ffffff; fill-opacity:0%"></rect>
      </g>
      <polyline points="864 304 880 320"
       style=" stroke:#000000; stroke-width:1;"></polyline>
      <g>
	<polygon points="128 208 128 184 128 160 
	 138.328 160 148.355 160 153.519 160 157.773 160.155 
	 161.115 160.465 163.24 160.774 165.974 161.548 168.405 162.477 
	 170.532 163.871 172.356 165.419 173.874 167.432 175.089 169.6 
	 175.698 172.077 176 174.865 175.698 177.342 175.089 179.665 
	 174.177 181.677 172.962 183.536 171.14 185.239 169.316 186.477 
	 167.189 187.716 165.064 188.49 162.33 189.11 158.683 189.574 
	 154.125 189.729 148.962 189.884 140.759 189.884 140.759 208 
	 128 208 128 208 128 208 128 208 
	 128 208 128 208 128 208 128 208 "
	 style=" stroke:#000000; stroke-width:1; fill:#00006e; fill-opacity:100%"></polygon>
	<polygon points="140.679 168.18 140.679 175.048 140.679 181.916 
	 144.044 181.916 147.717 181.916 151.083 181.916 153.532 181.76 
	 155.673 181.604 157.203 181.292 159.653 180.355 161.487 178.951 
	 162.711 177.234 163.017 175.048 163.017 173.8 162.711 172.863 
	 161.487 170.99 159.347 169.585 157.203 168.648 155.673 168.492 
	 153.532 168.336 150.472 168.18 146.798 168.18 143.739 168.18 
	 140.679 168.18 140.679 168.18 140.679 168.18 140.679 168.18 
	 140.679 168.18 140.679 168.18 140.679 168.18 140.679 168.18 "
	 style=" stroke:#000000; stroke-width:1; fill:#ff8c8c; fill-opacity:100%"></polygon>
      </g>
      <polygon points="98.7798 144 98.7798 133.935 98.7798 123.871 
       89.2648 109.935 80 96 92.0188 96 98.0288 105.6 
       104.039 115.046 116.058 96 128.077 96 118.562 109.935 
       109.046 123.871 109.046 133.935 109.046 144 104.039 144 
       98.7798 144 98.7798 144 98.7798 144 98.7798 144 
       98.7798 144 98.7798 144 98.7798 144 "
       style=" stroke:#000000; stroke-width:1; fill:#00006e; fill-opacity:100%"></polygon>
      <polygon points="51.261 82.0294 51.261 61.1509 51.261 40.4694 
       41.629 40.4694 32 40.4694 32 36.3328 32 32 
       57.556 32 83.487 32 83.487 36.3328 83.487 40.4694 
       73.855 40.4694 64.225 40.4694 64.225 61.1509 64.225 82.0294 
       57.556 82.0294 51.261 82.0294 51.261 82.0294 51.261 82.0294 
       51.261 82.0294 51.261 82.0294 51.261 82.0294 51.261 82.0294 "
       style=" stroke:#000000; stroke-width:1; fill:#00006e; fill-opacity:100%"></polygon>
      <polygon points="160 272 160 248.094 160 224 
       183.459 224 206.916 224 206.916 227.984 206.916 232.159 
       189.955 232.159 172.632 232.159 172.632 237.471 172.632 242.782 
       188.511 242.782 204.391 242.782 204.391 246.767 204.391 250.94 
       188.511 250.94 172.632 250.94 172.632 264.032 190.316 264.032 
       208 264.032 208 272 184.182 272 160 272 
       160 272 160 272 160 272 160 272 
       160 272 160 272 "
       style=" stroke:#000000; stroke-width:1; fill:#00006e; fill-opacity:100%"></polygon>
    </g>
  </symbol>
 </defs>
</svg>
