<?xml version="1.0"?>
<?metis version="3.1"?>
<?metisxml version="1.0"?>
<!DOCTYPE svg  PUBLIC "-//W3C//DTD SVG August 1999//EN"
 "http://www.w3.org/Graphics/SVG/svg-19990812.dtd">

<svg width="200" height="200">
 <title>Symbol library: application_env.svg</title>
 <defs>
  <symbol id="oid1" xml:space="preserve" class="METIS_SYMBOL">
   <title>Application Environment</title>
    <g>
      <polygon points="0 0 0 304 16.2963 320 
       880 320 880 16 863.704 0 0 0 
       0 0 0 0 0 0 0 0 
       0 0 0 0 0 0 0 0 
       0 0 0 0 0 0 0 0 0 0 "
       style=" stroke:#000000; stroke-width:1; fill:#9b9b9b; fill-opacity:100%"       class="TAG:shadow"></polygon>
      <rect x="0" y="0" width="240" height="304"
       style=" stroke:#000000; stroke-width:1; fill:#ffffa5; fill-opacity:100%"       class="TAG:PictureBackground"></rect>
      <rect x="240" y="0" width="624" height="304"
       style=" stroke:#000000; stroke-width:1; fill:#6e6eff; fill-opacity:100%"       class="TAG:canvas"></rect>
      <rect x="245.357" y="25.7143" width="569.522" height="231.429"
       style="stroke:none; fill:#878787; fill-opacity:0%"       class="TAG:grid"></rect>
      <g>
	<desc>METIS_TEXT_GROUP</desc>
	<text  x="256" y="15.8"
	 style=" stroke:#000000; stroke-width:1; font-family:sans-serif; font-size:16;"
	 class="TAG:text">text</text>
	<rect x="256" y="0" width="608" height="304"
	 style=" stroke:#000000; stroke-width:1; fill:#ffffff; fill-opacity:0%"></rect>
      </g>
      <polyline points="864 304 880 320"
       style=" stroke:#000000; stroke-width:1;"></polyline>
      <polygon points="72.909 63.9571 66.8839 63.9571 60.5228 63.9571 
       58.1794 60.4333 55.5014 56.788 44.1195 56.788 32.7379 56.788 
       30.3946 60.4333 28.0512 63.9571 16 63.9571 27.0469 48.0393 
       38.094 32 50.1452 32 61.527 48.0393 72.909 63.9571 
       72.909 63.9571 72.909 63.9571 72.909 63.9571 72.909 63.9571 
       72.909 63.9571 72.909 63.9571 72.909 63.9571 72.909 63.9571 "
       style=" stroke:#000000; stroke-width:1; fill:#6e0000; fill-opacity:100%"></polygon>
      <polygon points="51.9424 51.368 47.862 45.376 44.1214 39.3841 
       40.0412 45.376 36.3008 51.368 44.1214 51.368 51.9424 51.368 
       51.9424 51.368 51.9424 51.368 51.9424 51.368 51.9424 51.368 
       51.9424 51.368 51.9424 51.368 51.9424 51.368 51.9424 51.368 "
       style=" stroke:#000000; stroke-width:1; fill:#ffffa5; fill-opacity:100%"></polygon>
      <polygon points="78.5662 63.9571 78.5662 48.0393 78.5662 32 
       87.956 32 97.0119 32 101.707 32 105.396 32.1215 
       108.414 32.243 110.425 32.4861 112.773 32.9721 115.12 33.5796 
       117.132 34.5517 118.809 35.6453 120.15 36.9819 121.158 38.44 
       121.828 40.0196 122.162 41.8423 121.828 43.5434 121.494 45.0015 
       120.487 46.4597 119.145 47.6747 117.804 48.7684 116.127 49.7404 
       114.115 50.4695 112.102 50.9555 109.755 51.3201 106.402 51.6846 
       102.376 51.8061 97.3458 51.9276 93.6582 51.9276 89.9687 51.9276 
       89.9687 63.9571 84.2684 63.9571 78.5662 63.9571 78.5662 63.9571 
       78.5662 63.9571 78.5662 63.9571 78.5662 63.9571 78.5662 63.9571 
       78.5662 63.9571 78.5662 63.9571 78.5662 63.9571 "
       style=" stroke:#000000; stroke-width:1; fill:#6e0000; fill-opacity:100%"></polygon>
      <polygon points="89.8816 37.4472 89.8816 41.9866 89.8816 46.526 
       93.2644 46.526 96.3085 46.526 99.3526 46.526 101.721 46.4033 
       103.752 46.2806 105.104 46.1579 107.132 45.6672 108.824 44.6857 
       110.178 43.4588 110.515 41.9866 110.178 40.5144 108.824 39.2875 
       107.132 38.4287 105.104 37.8153 103.752 37.6926 101.383 37.5699 
       99.014 37.4472 95.6331 37.4472 92.9257 37.4472 89.8816 37.4472 
       89.8816 37.4472 89.8816 37.4472 89.8816 37.4472 89.8816 37.4472 
       89.8816 37.4472 89.8816 37.4472 89.8816 37.4472 89.8816 37.4472 "
       style=" stroke:#000000; stroke-width:1; fill:#ffffa5; fill-opacity:100%"></polygon>
      <polygon points="131.148 63.9571 131.148 48.0393 131.148 32 
       140.204 32 149.594 32 154.289 32 157.978 32.1215 
       160.996 32.243 163.009 32.4861 165.355 32.9721 167.705 33.5796 
       169.715 34.5517 171.391 35.6453 172.735 36.9819 173.741 38.44 
       174.409 40.0196 174.745 41.8423 174.409 43.5434 174.075 45.0015 
       173.068 46.4597 171.727 47.6747 170.386 48.7684 168.709 49.7404 
       166.697 50.4695 164.687 50.9555 162.337 51.3201 158.984 51.6846 
       154.96 51.8061 149.93 51.9276 146.24 51.9276 142.551 51.9276 
       142.551 63.9571 136.851 63.9571 131.148 63.9571 131.148 63.9571 
       131.148 63.9571 131.148 63.9571 131.148 63.9571 131.148 63.9571 
       131.148 63.9571 131.148 63.9571 131.148 63.9571 "
       style=" stroke:#000000; stroke-width:1; fill:#6e0000; fill-opacity:100%"></polygon>
      <polygon points="142.464 37.4472 142.464 41.9866 142.464 46.526 
       145.848 46.526 148.892 46.526 151.6 46.526 154.306 46.4033 
       156.336 46.2806 157.689 46.1579 159.719 45.6672 161.412 44.6857 
       162.426 43.4588 162.765 41.9866 162.426 40.5144 161.412 39.2875 
       159.719 38.4287 157.689 37.8153 156.336 37.6926 153.967 37.5699 
       151.6 37.4472 148.217 37.4472 145.171 37.4472 142.464 37.4472 
       142.464 37.4472 142.464 37.4472 142.464 37.4472 142.464 37.4472 
       142.464 37.4472 142.464 37.4472 142.464 37.4472 142.464 37.4472 "
       style=" stroke:#000000; stroke-width:1; fill:#ffffa5; fill-opacity:100%"></polygon>
      <polygon points="184.063 63.9571 184.063 32.2421 189.77 32.2421 
       195.474 32.2421 195.474 45.4871 195.474 58.6105 209.567 58.6105 
       224 58.6105 224 61.2838 224 63.9571 203.863 63.9571 
       184.063 63.9571 184.063 63.9571 184.063 63.9571 184.063 63.9571 
       184.063 63.9571 184.063 63.9571 184.063 63.9571 184.063 63.9571 "
       style=" stroke:#000000; stroke-width:1; fill:#6e0000; fill-opacity:100%"></polygon>
      <polygon points="33.3056 114.919 33.3056 82.841 75.5624 82.841 
       75.5624 88.3085 60.1357 88.3085 44.7084 88.3085 44.7084 91.8322 
       44.7084 95.356 59.1295 95.356 73.2158 95.356 73.2158 100.824 
       59.1295 100.824 44.7084 100.824 44.7084 105.199 44.7084 109.451 
       60.8064 109.451 76.5698 109.451 76.5698 114.919 33.3056 114.919 
       33.3056 114.919 33.3056 114.919 33.3056 114.919 33.3056 114.919 
       33.3056 114.919 33.3056 114.919 33.3056 114.919 "
       style=" stroke:#000000; stroke-width:1; fill:#6e0000; fill-opacity:100%"></polygon>
      <polygon points="85.889 114.919 85.889 82.841 91.5877 82.841 
       97.2866 82.841 108.686 93.534 120.421 104.226 120.421 93.534 
       120.421 82.841 125.786 82.841 131.15 82.841 131.15 114.919 
       125.451 114.919 119.417 114.919 108.017 104.47 96.6171 94.0199 
       96.6171 104.47 96.6171 114.919 91.2522 114.919 85.889 114.919 
       85.889 114.919 85.889 114.919 85.889 114.919 85.889 114.919 
       85.889 114.919 85.889 114.919 85.889 114.919 "
       style=" stroke:#000000; stroke-width:1; fill:#6e0000; fill-opacity:100%"></polygon>
      <polygon points="157.235 114.919 147.186 98.8798 137.14 82.841 
       143.169 82.841 149.531 82.841 156.564 94.7484 163.599 106.535 
       170.632 94.7484 177.664 82.841 189.723 82.841 179.675 98.8798 
       169.293 114.919 157.235 114.919 157.235 114.919 157.235 114.919 
       157.235 114.919 157.235 114.919 157.235 114.919 157.235 114.919 157.235 114.919 "
       style=" stroke:#000000; stroke-width:1; fill:#6e0000; fill-opacity:100%"></polygon>
      <polygon points="195.046 114.919 195.046 82.841 200.87 82.841 
       206.694 82.841 206.694 114.919 200.87 114.919 195.046 114.919 
       195.046 114.919 195.046 114.919 195.046 114.919 195.046 114.919 
       195.046 114.919 195.046 114.919 195.046 114.919 "
       style=" stroke:#000000; stroke-width:1; fill:#6e0000; fill-opacity:100%"></polygon>
      <g>
	<polygon points="121.726 212.186 121.726 212.186 101.02 212.186 
	 92.3922 216.56 137.255 262.48 145.883 258.107 208 179.387 
	 187.294 179.387 178.667 183.76 145.883 234.053 121.726 212.186 
	 121.726 212.186 121.726 212.186 121.726 212.186 121.726 212.186 
	 121.726 212.186 121.726 212.186 121.726 212.186 121.726 212.186 121.726 212.186 "
	 style=" stroke:#000000; stroke-width:1; fill:#ffff00; fill-opacity:100%"></polygon>
	<polygon points="113.098 216.56 113.098 216.56 92.3922 216.56 
	 137.255 262.48 199.373 183.76 178.667 183.76 137.255 238.426 
	 113.098 216.56 113.098 216.56 113.098 216.56 113.098 216.56 
	 113.098 216.56 113.098 216.56 113.098 216.56 113.098 216.56 
	 113.098 216.56 113.098 216.56 "
	 style=" stroke:#000000; stroke-width:1; fill:#ffff6e; fill-opacity:100%"></polygon>
	<polygon points="61.3334 179.387 61.3334 179.387 40.6274 179.387 
	 32 183.76 94.1177 262.48 102.745 258.107 144.156 212.186 
	 123.451 212.186 114.823 216.56 102.745 234.053 61.3334 179.387 
	 61.3334 179.387 61.3334 179.387 61.3334 179.387 61.3334 179.387 
	 61.3334 179.387 61.3334 179.387 61.3334 179.387 61.3334 179.387 61.3334 179.387 "
	 style=" stroke:#000000; stroke-width:1; fill:#ffff00; fill-opacity:100%"></polygon>
	<polygon points="104.471 187.04 83.7646 187.04 76.8627 190.32 
	 90.6666 200.16 107.921 204.534 121.725 206.72 132.078 206.72 
	 142.431 204.534 152.784 204.534 161.795 200.036 164.735 196.037 
	 166.588 189.227 166.205 183.042 161.795 177.044 152.784 170.64 
	 144.156 167.36 135.529 165.174 125.177 162.987 114.823 160.8 
	 106.196 157.52 104.471 152.054 107.921 145.493 118.274 141.12 
	 128.628 141.12 140.707 142.213 147.607 145.493 149.334 149.867 
	 159.686 153.147 166.588 149.867 166.588 145.493 163.137 138.934 
	 154.51 133.466 145.883 130.187 132.078 128 121.725 128 
	 107.921 130.187 101.02 133.466 94.1177 138.934 87.2157 145.493 
	 85.4901 152.054 87.2157 158.613 90.6666 165.174 97.1853 170.047 
	 105.813 173.045 116.549 175.014 128.628 177.2 140.707 180.48 
	 144.156 182.667 147.607 187.04 145.883 191.414 142.431 193.6 
	 135.529 195.787 125.177 195.787 114.823 193.6 106.196 190.32 
	 104.471 187.04 104.471 187.04 104.471 187.04 104.471 187.04 
	 104.471 187.04 104.471 187.04 104.471 187.04 104.471 187.04 
	 104.471 187.04 104.471 187.04 "
	 style=" stroke:#000000; stroke-width:1; fill:#ffff00; fill-opacity:100%"></polygon>
	<polygon points="97.5686 190.32 76.8627 190.32 76.8627 194.693 
	 83.7646 203.44 101.02 207.813 114.823 210 125.177 210 
	 135.529 207.813 144.605 206.313 154.894 203.315 157.833 199.317 
	 159.686 192.507 159.304 186.322 154.894 180.323 145.883 173.92 
	 137.255 170.64 128.628 168.453 118.274 166.267 107.921 164.08 
	 99.2941 160.8 97.5686 155.333 101.02 148.774 111.372 144.4 
	 121.725 144.4 133.804 145.493 140.707 148.774 142.431 153.147 
	 159.686 153.147 159.686 148.774 156.235 142.213 147.607 136.747 
	 138.98 133.466 125.177 131.28 114.823 131.28 101.02 133.466 
	 94.1177 137.84 87.2157 142.213 80.3137 148.774 78.5883 155.333 
	 80.3137 161.894 83.7646 168.453 90.2833 173.326 98.9107 176.326 
	 109.647 178.294 121.725 180.48 133.804 183.76 137.255 185.946 
	 140.707 190.32 138.98 194.693 135.529 196.88 128.628 199.066 
	 118.274 199.066 107.921 196.88 99.2941 193.6 97.5686 190.32 
	 97.5686 190.32 97.5686 190.32 97.5686 190.32 97.5686 190.32 
	 97.5686 190.32 97.5686 190.32 97.5686 190.32 97.5686 190.32 97.5686 190.32 "
	 style=" stroke:#000000; stroke-width:1; fill:#ffff6e; fill-opacity:100%"></polygon>
	<polyline points="97.5686 190.32 97.5686 190.32 104.471 187.04"
	 style=" stroke:#000000; stroke-width:1;"></polyline>
	<polygon points="52.7059 183.76 52.7059 183.76 32 183.76 
	 94.1177 262.48 135.529 216.56 114.823 216.56 94.1177 238.426 
	 52.7059 183.76 52.7059 183.76 52.7059 183.76 52.7059 183.76 
	 52.7059 183.76 52.7059 183.76 52.7059 183.76 52.7059 183.76 
	 52.7059 183.76 52.7059 183.76 "
	 style=" stroke:#000000; stroke-width:1; fill:#ffff6e; fill-opacity:100%"></polygon>
	<polyline points="52.7059 183.76 52.7059 183.76 61.3334 179.387"
	 style=" stroke:#000000; stroke-width:1;"></polyline>
	<polyline points="113.098 216.56 113.098 216.56 121.725 212.186"
	 style=" stroke:#000000; stroke-width:1;"></polyline>
	<polyline points="135.529 216.56 135.529 216.56 144.156 212.186"
	 style=" stroke:#000000; stroke-width:1;"></polyline>
	<polyline points="199.371 183.76 199.371 183.76 208 179.387"
	 style=" stroke:#000000; stroke-width:1;"></polyline>
      </g>
    </g>
  </symbol>
 </defs>
</svg>
