<?xml version="1.0" encoding="UTF-8" standalone="no"?>

<svg
 xmlns:dc="http://purl.org/dc/elements/1.1/"
   xmlns:cc="http://creativecommons.org/ns#"
   xmlns:rdf="http://www.w3.org/1999/02/22-rdf-syntax-ns#"
   xmlns:svg="http://www.w3.org/2000/svg"
   xmlns="http://www.w3.org/2000/svg"
   xmlns:xlink="http://www.w3.org/1999/xlink"
   xmlns:sodipodi="http://sodipodi.sourceforge.net/DTD/sodipodi-0.dtd"
   xmlns:inkscape="http://www.inkscape.org/namespaces/inkscape"
   id="svg2"
   version="1.1"
   inkscape:version="0.47 r22583"
   width="100"
   height="100"
   sodipodi:docname="application_service_interface.svg">
  <metadata
     id="metadata118">
    <rdf:RDF>
      <cc:Work
         rdf:about="">
        <dc:format>image/svg+xml</dc:format>
        <dc:type
           rdf:resource="http://purl.org/dc/dcmitype/StillImage" />
      </cc:Work>
    </rdf:RDF>
  </metadata>
  <defs
     id="defs116">
    <linearGradient
       id="linearGradient3698">
      <stop
         style="stop-color:#775599;stop-opacity:1;"
         offset="0"
         id="stop3700" />
      <stop
         style="stop-color:#566ab5;stop-opacity:1;"
         offset="1"
         id="stop3702" />
    </linearGradient>
    <inkscape:perspective
       sodipodi:type="inkscape:persp3d"
       inkscape:vp_x="0 : 0.5 : 1"
       inkscape:vp_y="0 : 1000 : 0"
       inkscape:vp_z="1 : 0.5 : 1"
       inkscape:persp3d-origin="0.5 : 0.33333333 : 1"
       id="perspective120" />
    <linearGradient
       inkscape:collect="always"
       xlink:href="#linearGradient3698"
       id="linearGradient3704"
       x1="410.853"
       y1="631.87549"
       x2="976.74402"
       y2="631.87549"
       gradientUnits="userSpaceOnUse" />
    <linearGradient
       inkscape:collect="always"
       xlink:href="#linearGradient3698"
       id="linearGradient3706"
       x1="31.007799"
       y1="286.91449"
       x2="914.729"
       y2="286.91449"
       gradientUnits="userSpaceOnUse" />
  </defs>
  <sodipodi:namedview
     pagecolor="#ffffff"
     bordercolor="#666666"
     borderopacity="1"
     objecttolerance="10"
     gridtolerance="10"
     guidetolerance="10"
     inkscape:pageopacity="0"
     inkscape:pageshadow="2"
     inkscape:window-width="1680"
     inkscape:window-height="994"
     id="namedview114"
     showgrid="false"
     inkscape:zoom="7.49"
     inkscape:cx="50"
     inkscape:cy="50"
     inkscape:window-x="-4"
     inkscape:window-y="-4"
     inkscape:window-maximized="1"
     inkscape:current-layer="svg2" />
  <polygon
     points="1000,128 1000,1128 1000,1128 0,1128 0,128 "
     style="fill:#ffffff;fill-opacity:0;stroke:none"
     id="polygon4"
     transform="matrix(0.06063142,0,0,0.06063142,0,0.09084141)" />
  <polygon
     points="7.75194,174.512 7.75194,1065.98 937.985,1065.98 937.985,174.512 930.168,174.512 930.168,174.512 "
     style="fill:#000000;fill-opacity:1;stroke:none"
     id="polygon6"
     transform="matrix(0.06063142,0,0,0.06063142,0,0.09084141)" />
  <polygon
     points="23.2558,190.015 922.481,190.015 922.481,190.015 922.481,1050.48 23.2558,1050.48 "
     style="fill:#000000;fill-opacity:1;stroke:none"
     id="polygon8"
     transform="matrix(0.06063142,0,0,0.06063142,0,0.09084141)" />
  <polygon
     points="23.2558,190.015 23.2558,1050.48 922.481,1050.48 922.481,190.015 914.661,190.015 914.661,190.015 "
     style="fill:#666666;fill-opacity:1;stroke:none"
     id="polygon10"
     transform="matrix(0.06063142,0,0,0.06063142,0,0.09084141)" />
  <polygon
     points="38.7597,205.519 906.977,205.519 906.977,205.519 906.977,1034.98 38.7597,1034.98 "
     style="fill:#ffffff;fill-opacity:1;stroke:none"
     id="polygon12"
     transform="matrix(0.06063142,0,0,0.06063142,0,0.09084141)" />
  <polygon
     points="914.729,197.767 914.729,376.062 914.729,376.062 31.0078,376.062 31.0078,197.767 "
     style="fill:url(#linearGradient3706);fill-opacity:1;stroke:none"
     id="polygon14"
     transform="matrix(0.06063142,0,0,0.06063142,0,0.09084141)" />
  <polygon
     points="317.829,383.814 317.829,1034.98 317.829,1034.98 341.085,1034.98 341.085,383.814 "
     style="fill:#666666;fill-opacity:1;stroke:none"
     id="polygon16"
     transform="matrix(0.06063142,0,0,0.06063142,0,0.09084141)" />
  <polygon
     points="914.729,368.31 23.2558,368.31 23.2558,368.31 23.2558,391.566 914.729,391.566 "
     style="fill:#666666;fill-opacity:1;stroke:none"
     id="polygon18"
     transform="matrix(0.06063142,0,0,0.06063142,0,0.09084141)" />
  <polygon
     points="139.535,438.077 139.535,492.341 139.535,492.341 85.2713,492.341 85.2713,438.077 "
     style="fill:#ff9900;fill-opacity:1;stroke:none"
     id="polygon20"
     transform="matrix(0.06063142,0,0,0.06063142,0,0.09084141)" />
  <polygon
     points="139.535,531.101 139.535,585.365 139.535,585.365 85.2713,585.365 85.2713,531.101 "
     style="fill:#775599;fill-opacity:1;stroke:none"
     id="polygon22"
     transform="matrix(0.06063142,0,0,0.06063142,0,0.09084141)" />
  <polygon
     points="139.535,624.124 139.535,678.388 139.535,678.388 85.2713,678.388 85.2713,624.124 "
     style="fill:#77aa00;fill-opacity:1;stroke:none"
     id="polygon24"
     transform="matrix(0.06063142,0,0,0.06063142,0,0.09084141)" />
  <polygon
     points="139.535,724.899 139.535,779.163 139.535,779.163 85.2713,779.163 85.2713,724.899 "
     style="fill:#ff9900;fill-opacity:1;stroke:none"
     id="polygon26"
     transform="matrix(0.06063142,0,0,0.06063142,0,0.09084141)" />
  <polygon
     points="139.535,817.922 139.535,872.186 139.535,872.186 85.2713,872.186 85.2713,817.922 "
     style="fill:#77aa00;fill-opacity:1;stroke:none"
     id="polygon28"
     transform="matrix(0.06063142,0,0,0.06063142,0,0.09084141)" />
  <polygon
     points="139.535,918.698 139.535,972.962 139.535,972.962 85.2713,972.962 85.2713,918.698 "
     style="fill:#775599;fill-opacity:1;stroke:none"
     id="polygon30"
     transform="matrix(0.06063142,0,0,0.06063142,0,0.09084141)" />
  <polygon
     points="750.757,478.129 695.314,461.764 624.03,453.581 552.747,461.764 497.304,478.129 457.701,502.677 441.86,510.86 441.86,527.225 441.86,527.225 441.86,543.59 457.701,559.956 497.304,576.32 552.747,592.685 624.03,600.868 695.314,592.685 750.757,576.32 790.36,559.956 798.28,543.59 806.201,527.225 798.28,510.86 790.36,502.677 "
     style="fill:#ff9900;fill-opacity:1;stroke:none"
     id="polygon32"
     transform="matrix(0.06063142,0,0,0.06063142,0,0.09084141)" />
  <polygon
     points="279.07,453.581 162.791,453.581 162.791,453.581 162.791,476.837 279.07,476.837 "
     style="fill:#999999;fill-opacity:1;stroke:none"
     id="polygon34"
     transform="matrix(0.06063142,0,0,0.06063142,0,0.09084141)" />
  <polygon
     points="279.07,546.605 162.791,546.605 162.791,546.605 162.791,569.861 279.07,569.861 "
     style="fill:#999999;fill-opacity:1;stroke:none"
     id="polygon36"
     transform="matrix(0.06063142,0,0,0.06063142,0,0.09084141)" />
  <polygon
     points="279.07,647.38 162.791,647.38 162.791,647.38 162.791,670.636 279.07,670.636 "
     style="fill:#999999;fill-opacity:1;stroke:none"
     id="polygon38"
     transform="matrix(0.06063142,0,0,0.06063142,0,0.09084141)" />
  <polygon
     points="279.07,740.403 162.791,740.403 162.791,740.403 162.791,763.659 279.07,763.659 "
     style="fill:#999999;fill-opacity:1;stroke:none"
     id="polygon40"
     transform="matrix(0.06063142,0,0,0.06063142,0,0.09084141)" />
  <polygon
     points="279.07,833.426 162.791,833.426 162.791,833.426 162.791,856.682 279.07,856.682 "
     style="fill:#999999;fill-opacity:1;stroke:none"
     id="polygon42"
     transform="matrix(0.06063142,0,0,0.06063142,0,0.09084141)" />
  <polygon
     points="279.07,926.45 162.791,926.45 162.791,926.45 162.791,949.706 279.07,949.706 "
     style="fill:#999999;fill-opacity:1;stroke:none"
     id="polygon44"
     transform="matrix(0.06063142,0,0,0.06063142,0,0.09084141)" />
  <polygon
     points="379.845,546.605 379.845,1128 1007.75,1128 1007.75,546.605 999.903,546.605 999.903,546.605 "
     style="fill:#000000;fill-opacity:1;stroke:none"
     id="polygon46"
     transform="matrix(0.06063142,0,0,0.06063142,0,0.09084141)" />
  <polygon
     points="395.349,562.108 992.248,562.108 992.248,562.108 992.248,1112.5 395.349,1112.5 "
     style="fill:#000000;fill-opacity:1;stroke:none"
     id="polygon48"
     transform="matrix(0.06063142,0,0,0.06063142,0,0.09084141)" />
  <polygon
     points="395.349,562.108 395.349,1112.5 992.248,1112.5 992.248,562.108 984.394,562.108 984.394,562.108 "
     style="fill:#666666;fill-opacity:1;stroke:none"
     id="polygon50"
     transform="matrix(0.06063142,0,0,0.06063142,0,0.09084141)" />
  <polygon
     points="410.853,577.612 968.993,577.612 968.993,577.612 968.993,1096.99 410.853,1096.99 "
     style="fill:#ffffff;fill-opacity:1;stroke:none"
     id="polygon52"
     transform="matrix(0.06063142,0,0,0.06063142,0,0.09084141)" />
  <polygon
     points="976.744,577.612 976.744,686.139 976.744,686.139 410.853,686.139 410.853,577.612 "
     style="fill:url(#linearGradient3704);fill-opacity:1;stroke:none"
     id="polygon54"
     transform="matrix(0.06063142,0,0,0.06063142,0,0.09084141)" />
  <polygon
     points="906.976,848.93 906.976,1089.24 906.976,1089.24 837.209,1089.24 837.209,848.93 "
     style="fill:#ffcc66;fill-opacity:1;stroke:none"
     id="polygon56"
     transform="matrix(0.06063142,0,0,0.06063142,0,0.09084141)" />
  <polygon
     points="697.674,833.426 697.674,1089.24 697.674,1089.24 620.155,1089.24 620.155,833.426 "
     style="fill:#ff7711;fill-opacity:1;stroke:none"
     id="polygon58"
     transform="matrix(0.06063142,0,0,0.06063142,0,0.09084141)" />
  <polygon
     points="589.147,748.155 589.147,1089.24 589.147,1089.24 519.38,1089.24 519.38,748.155 "
     style="fill:#77aa00;fill-opacity:1;stroke:none"
     id="polygon60"
     transform="matrix(0.06063142,0,0,0.06063142,0,0.09084141)" />
  <polygon
     points="806.201,779.163 806.201,1089.24 806.201,1089.24 728.682,1089.24 728.682,779.163 "
     style="fill:#775599;fill-opacity:1;stroke:none"
     id="polygon62"
     transform="matrix(0.06063142,0,0,0.06063142,0,0.09084141)" />
  <polygon
     points="403.101,678.388 403.101,701.644 403.101,701.644 976.744,701.644 976.744,678.388 "
     style="fill:#666666;fill-opacity:1;stroke:none"
     id="polygon64"
     transform="matrix(0.06063142,0,0,0.06063142,0,0.09084141)" />
  <polygon
     points="1519.81,640 1519.81,1647.81 1519.81,1647.81 512,1647.81 512,640 "
     style="fill:#ffffff;fill-opacity:0;stroke:none"
     id="polygon66"
     transform="matrix(0.06063142,0,0,0.06063142,0,0.09084141)" />
  <polygon
     points="1488.38,1417.34 1456.88,1401.23 1433.26,1369 1409.64,1312.61 1291.53,1304.55 1165.54,1296.49 1015.94,1288.44 748.22,1288.44 661.607,1296.49 630.111,1304.55 614.362,1312.61 598.614,1328.72 590.74,1344.83 574.992,1377.06 559.244,1401.23 535.622,1417.34 512,1433.46 512,1481.8 512,1481.8 543.496,1489.85 637.984,1514.02 795.464,1538.19 913.575,1546.25 1047.43,1546.25 1181.29,1546.25 1283.65,1538.19 1362.39,1530.14 1425.39,1514.02 1496.25,1489.85 1512,1481.8 1512,1433.46 "
     style="fill:#000000;fill-opacity:1;stroke:none"
     id="polygon68"
     transform="matrix(0.06063142,0,0,0.06063142,0,0.09084141)" />
  <polygon
     points="1418.25,1303.3 1418.25,1295.33 1418.25,1271.43 1410.36,1215.67 1386.7,1143.98 1370.92,1112.12 1347.25,1080.26 1299.92,1024.5 1268.37,1000.6 1236.82,976.704 1189.49,960.772 1142.16,944.841 1086.94,936.875 1015.94,936.875 937.06,936.875 881.843,944.841 826.624,960.772 787.182,976.704 755.629,1000.6 724.076,1024.5 676.745,1072.29 676.745,1072.29 653.08,1104.16 637.303,1143.98 613.638,1215.67 605.75,1271.43 605.75,1295.33 605.75,1303.3 613.638,1303.3 739.851,1319.23 866.065,1335.16 1015.94,1343.13 1165.82,1335.16 1292.04,1319.23 "
     style="fill:#000000;fill-opacity:1;stroke:none"
     id="polygon70"
     transform="matrix(0.06063142,0,0,0.06063142,0,0.09084141)" />
  <polygon
     points="1292.09,1032.42 1339.43,1088.24 1363.1,1112.17 1378.88,1144.07 1402.55,1207.87 1410.44,1263.7 1410.44,1295.6 1276.31,1311.55 1150.07,1327.5 1015.94,1327.5 873.927,1327.5 755.58,1311.55 613.562,1295.6 613.562,1263.7 629.343,1207.87 645.121,1136.09 660.902,1104.19 684.571,1080.27 684.571,1080.27 731.91,1032.42 763.47,1008.49 795.029,984.564 834.478,968.613 881.818,952.663 944.937,944.688 1015.94,944.688 1086.95,944.688 1142.18,952.663 1189.52,968.613 1228.97,984.564 1260.53,1008.49 "
     style="fill:#aaaaaa;fill-opacity:1;stroke:none"
     id="polygon72"
     transform="matrix(0.06063142,0,0,0.06063142,0,0.09084141)" />
  <polygon
     points="851.012,1232.94 874.833,1241.02 906.596,1257.19 938.358,1257.19 1041.59,1257.19 1097.17,1249.11 1120.99,1249.11 1136.87,1232.94 1144.81,1216.78 1144.81,1200.61 1136.87,1176.37 1120.99,1152.12 1073.35,1103.63 1033.65,1079.39 1001.88,1079.39 970.12,1095.55 962.179,1095.55 946.299,1095.55 922.477,1079.39 890.714,1063.22 874.833,1038.98 858.952,1030.89 843.071,1022.81 827.19,1022.81 827.19,1022.81 787.487,1030.89 747.784,1047.06 723.963,1071.3 700.14,1095.55 676.318,1135.96 668.378,1176.37 660.438,1208.7 660.438,1224.86 668.378,1232.94 684.259,1232.94 755.725,1241.02 827.19,1232.94 "
     style="fill:#666666;fill-opacity:1;stroke:none"
     id="polygon74"
     transform="matrix(0.06063142,0,0,0.06063142,0,0.09084141)" />
  <polygon
     points="891.076,1152.69 923.684,1119.49 964.445,1094.59 980.75,1086.29 980.75,1077.99 956.293,1069.69 891.076,1069.69 891.076,1069.69 874.772,1077.99 842.163,1086.29 817.707,1094.59 801.402,1111.19 793.25,1127.79 793.25,1152.69 793.25,1177.6 801.402,1194.2 817.707,1202.5 834.01,1202.5 858.467,1194.2 874.772,1194.2 "
     style="fill:#e5f2ff;fill-opacity:1;stroke:none"
     id="polygon76"
     transform="matrix(0.06063142,0,0,0.06063142,0,0.09084141)" />
  <polygon
     points="972.938,780.625 972.938,874.375 1035.44,874.375 1035.44,780.625 1026.51,780.625 1026.51,780.625 "
     style="fill:#000000;fill-opacity:1;stroke:none"
     id="polygon78"
     transform="matrix(0.06063142,0,0,0.06063142,0,0.09084141)" />
  <polygon
     points="980.75,788.438 1027.63,788.438 1027.63,788.438 1027.63,866.563 980.75,866.563 "
     style="fill:#8c8c8c;fill-opacity:1;stroke:none"
     id="polygon80"
     transform="matrix(0.06063142,0,0,0.06063142,0,0.09084141)" />
  <polygon
     points="965.125,974.736 973.806,974.736 982.486,983.15 1008.53,991.563 1025.89,991.563 1043.25,983.15 1043.25,974.736 1043.25,882.188 1034.57,882.188 1034.57,882.188 965.125,882.188 "
     style="fill:#000000;fill-opacity:1;stroke:none"
     id="polygon82"
     transform="matrix(0.06063142,0,0,0.06063142,0,0.09084141)" />
  <polygon
     points="980.75,975.227 980.75,890 1035.44,890 1035.44,890 1035.44,975.227 1026.32,975.227 1008.09,983.75 989.864,975.227 "
     style="fill:#8c8c8c;fill-opacity:1;stroke:none"
     id="polygon84"
     transform="matrix(0.06063142,0,0,0.06063142,0,0.09084141)" />
  <polygon
     points="1035.44,968.125 1043.25,975.938 1043.25,975.938 "
     style="fill:#000000;fill-opacity:1;stroke:none"
     id="polygon86"
     transform="matrix(0.06063142,0,0,0.06063142,0,0.09084141)" />
  <polygon
     points="966.327,850.938 949.5,859.531 949.5,859.531 949.5,868.125 949.5,919.689 957.913,928.282 974.741,936.875 1008.4,936.875 1033.64,936.875 1050.46,928.282 1058.88,919.689 1058.88,868.125 1050.46,859.531 1008.4,850.938 983.154,850.938 "
     style="fill:#000000;fill-opacity:1;stroke:none"
     id="polygon88"
     transform="matrix(0.06063142,0,0,0.06063142,0,0.09084141)" />
  <polygon
     points="1051.06,867.539 1051.06,920.274 1042.54,920.274 1008.45,929.063 974.358,929.063 957.312,920.274 957.312,867.539 974.358,858.75 1008.45,858.75 1008.45,858.75 1034.02,858.75 "
     style="fill:#aaaaaa;fill-opacity:1;stroke:none"
     id="polygon90"
     transform="matrix(0.06063142,0,0,0.06063142,0,0.09084141)" />
  <polygon
     points="1058.88,808.749 1042.14,818.125 1000.28,827.5 958.428,818.125 950.058,808.749 941.688,799.375 950.058,799.375 958.428,790 1000.28,780.625 1042.14,790 1058.88,799.375 1058.88,799.375 "
     style="fill:#555555;fill-opacity:1;stroke:none"
     id="polygon92"
     transform="matrix(0.06063142,0,0,0.06063142,0,0.09084141)" />
  <polygon
     points="941.688,792.344 950.058,802.11 975.171,811.875 1000.28,811.875 1033.76,811.875 1050.51,802.11 1058.88,792.344 1050.51,782.578 1033.76,772.812 1000.28,772.812 975.171,772.812 950.058,782.578 941.688,792.344 "
     style="fill:#000000;fill-opacity:1;stroke:none"
     id="polygon94"
     transform="matrix(0.06063142,0,0,0.06063142,0,0.09084141)" />
  <polygon
     points="999.926,804.063 974.358,804.063 957.312,792.344 974.358,780.625 999.926,780.625 999.926,780.625 1034.02,780.625 1051.06,792.344 1034.02,804.063 "
     style="fill:#aaaaaa;fill-opacity:1;stroke:none"
     id="polygon96"
     transform="matrix(0.06063142,0,0,0.06063142,0,0.09084141)" />
  <polygon
     points="1170.72,984.46 1154.27,984.46 1154.27,984.46 1137.82,975.938 1129.6,984.46 1121.38,992.982 1121.38,1001.51 1129.6,1010.03 1178.94,1027.07 1228.28,1044.12 1269.4,1061.17 1277.63,1069.69 1269.4,1061.17 1244.73,1027.07 1195.39,992.982 "
     style="fill:#e5f2ff;fill-opacity:1;stroke:none"
     id="polygon98"
     transform="matrix(0.06063142,0,0,0.06063142,0,0.09084141)" />
  <polygon
     points="566.688,1274.76 566.688,1291.37 574.569,1307.97 574.569,1316.27 613.977,1324.57 708.556,1349.47 850.427,1366.07 929.242,1374.37 1015.94,1374.37 1189.34,1366.07 1323.33,1341.17 1410.02,1324.57 1449.43,1316.27 1449.43,1307.97 1457.31,1291.37 1457.31,1274.76 1449.43,1266.46 1433.67,1249.86 1425.79,1241.56 1425.79,1241.56 1394.26,1258.17 1299.68,1283.07 1173.57,1307.97 1094.76,1316.27 1015.94,1316.27 937.124,1316.27 858.308,1307.97 724.321,1283.07 629.741,1258.17 598.214,1241.56 590.332,1249.86 574.569,1266.46 "
     style="fill:#333333;fill-opacity:1;stroke:none"
     id="polygon100"
     transform="matrix(0.06063142,0,0,0.06063142,0,0.09084141)" />
  <polygon
     points="858.236,1358.15 724.216,1341.32 629.614,1316.08 582.313,1307.67 582.313,1282.43 582.313,1265.6 598.08,1257.19 637.497,1265.6 732.099,1290.84 866.119,1316.08 937.071,1324.5 1015.91,1324.5 1015.91,1324.5 1094.74,1324.5 1165.69,1316.08 1299.71,1290.84 1386.43,1265.6 1425.85,1257.19 1441.62,1265.6 1449.5,1290.84 1441.62,1307.67 1402.2,1316.08 1307.6,1332.91 1181.46,1358.15 1015.91,1366.56 "
     style="fill:#cccccc;fill-opacity:1;stroke:none"
     id="polygon102"
     transform="matrix(0.06063142,0,0,0.06063142,0,0.09084141)" />
  <polygon
     points="758.554,1309.64 847.019,1318.57 879.188,1327.5 742.468,1318.57 654.004,1291.79 605.75,1282.86 613.792,1265 613.792,1265 662.047,1282.86 710.299,1300.71 "
     style="fill:#e5f2ff;fill-opacity:1;stroke:none"
     id="polygon104"
     transform="matrix(0.06063142,0,0,0.06063142,0,0.09084141)" />
  <polygon
     points="1243.45,1323.95 1148.23,1340.99 926.062,1366.56 1013.34,1358.04 1179.97,1349.52 1267.25,1332.47 1346.59,1315.43 1433.87,1289.86 1418.01,1272.81 1418.01,1272.81 1330.72,1298.38 "
     style="fill:#999999;fill-opacity:1;stroke:none"
     id="polygon106"
     transform="matrix(0.06063142,0,0,0.06063142,0,0.09084141)" />
  <polygon
     points="735.116,1450.27 823.581,1459.2 855.75,1468.13 719.031,1459.2 630.567,1441.34 582.313,1423.48 590.355,1405.63 590.355,1405.63 638.608,1423.48 686.862,1441.34 "
     style="fill:#bbbbbb;fill-opacity:1;stroke:none"
     id="polygon108"
     transform="matrix(0.06063142,0,0,0.06063142,0,0.09084141)" />
  <polygon
     points="804.577,1283.23 747.156,1272.81 730.75,1272.81 812.781,1293.65 870.202,1304.06 894.812,1304.06 894.812,1283.23 894.812,1283.23 862,1293.65 837.39,1293.65 "
     style="fill:#e5f2ff;fill-opacity:1;stroke:none"
     id="polygon110"
     transform="matrix(0.06063142,0,0,0.06063142,0,0.09084141)" />
  <ellipse
     cx="1290.8"
     cy="330.798"
     rx="330.798"
     ry="330.798"
     style="fill:#00a500;fill-opacity:1;stroke:#000000;stroke-width:3"
     class="TAG:iconCanvas"
     id="ellipse112"
     sodipodi:cx="1290.8"
     sodipodi:cy="330.798"
     sodipodi:rx="330.798"
     sodipodi:ry="330.798"
     transform="matrix(0.06063142,0,0,0.06063142,0,0.09084141)" />
</svg>
