<?xml version="1.0" encoding="UTF-8" standalone="no"?>

<svg
 xmlns:dc="http://purl.org/dc/elements/1.1/"
   xmlns:cc="http://creativecommons.org/ns#"
   xmlns:rdf="http://www.w3.org/1999/02/22-rdf-syntax-ns#"
   xmlns:svg="http://www.w3.org/2000/svg"
   xmlns="http://www.w3.org/2000/svg"
   xmlns:xlink="http://www.w3.org/1999/xlink"
   xmlns:sodipodi="http://sodipodi.sourceforge.net/DTD/sodipodi-0.dtd"
   xmlns:inkscape="http://www.inkscape.org/namespaces/inkscape"
   id="svg2"
   version="1.1"
   inkscape:version="0.47 r22583"
   width="100"
   height="100"
   sodipodi:docname="application_service.svg">
  <metadata
     id="metadata116">
    <rdf:RDF>
      <cc:Work
         rdf:about="">
        <dc:format>image/svg+xml</dc:format>
        <dc:type
           rdf:resource="http://purl.org/dc/dcmitype/StillImage" />
      </cc:Work>
    </rdf:RDF>
  </metadata>
  <defs
     id="defs114">
    <linearGradient
       id="linearGradient3696">
      <stop
         style="stop-color:#775599;stop-opacity:1;"
         offset="0"
         id="stop3698" />
      <stop
         style="stop-color:#566ab5;stop-opacity:1;"
         offset="1"
         id="stop3700" />
    </linearGradient>
    <inkscape:perspective
       sodipodi:type="inkscape:persp3d"
       inkscape:vp_x="0 : 0.5 : 1"
       inkscape:vp_y="0 : 1000 : 0"
       inkscape:vp_z="1 : 0.5 : 1"
       inkscape:persp3d-origin="0.5 : 0.33333333 : 1"
       id="perspective118" />
    <linearGradient
       inkscape:collect="always"
       xlink:href="#linearGradient3696"
       id="linearGradient3702"
       x1="31.007799"
       y1="158.91451"
       x2="914.729"
       y2="158.91451"
       gradientUnits="userSpaceOnUse" />
    <linearGradient
       inkscape:collect="always"
       xlink:href="#linearGradient3696"
       id="linearGradient3704"
       x1="410.853"
       y1="503.87549"
       x2="976.74402"
       y2="503.87549"
       gradientUnits="userSpaceOnUse" />
  </defs>
  <sodipodi:namedview
     pagecolor="#ffffff"
     bordercolor="#666666"
     borderopacity="1"
     objecttolerance="10"
     gridtolerance="10"
     guidetolerance="10"
     inkscape:pageopacity="0"
     inkscape:pageshadow="2"
     inkscape:window-width="1680"
     inkscape:window-height="994"
     id="namedview112"
     showgrid="false"
     inkscape:zoom="7.49"
     inkscape:cx="50"
     inkscape:cy="50"
     inkscape:window-x="-4"
     inkscape:window-y="-4"
     inkscape:window-maximized="1"
     inkscape:current-layer="svg2"
     showborder="false" />
  <polygon
     points="1000,1000 0,1000 0,0 1000,0 1000,1000 "
     style="fill:#ffffff;fill-opacity:0;stroke:none"
     id="polygon4"
     transform="matrix(0.0657977,0,0,0.0657977,0,-5.859375e-5)" />
  <polygon
     points="937.985,46.512 930.168,46.512 930.168,46.512 7.75194,46.512 7.75194,937.985 937.985,937.985 "
     style="fill:#000000;fill-opacity:1;stroke:none"
     id="polygon6"
     transform="matrix(0.0657977,0,0,0.0657977,0,-5.859375e-5)" />
  <polygon
     points="922.481,62.015 922.481,922.48 23.2558,922.48 23.2558,62.015 922.481,62.015 "
     style="fill:#000000;fill-opacity:1;stroke:none"
     id="polygon8"
     transform="matrix(0.0657977,0,0,0.0657977,0,-5.859375e-5)" />
  <polygon
     points="922.481,62.015 914.661,62.015 914.661,62.015 23.2558,62.015 23.2558,922.48 922.481,922.48 "
     style="fill:#666666;fill-opacity:1;stroke:none"
     id="polygon10"
     transform="matrix(0.0657977,0,0,0.0657977,0,-5.859375e-5)" />
  <polygon
     points="906.977,77.519 906.977,906.976 38.7597,906.976 38.7597,77.519 906.977,77.519 "
     style="fill:#ffffff;fill-opacity:1;stroke:none"
     id="polygon12"
     transform="matrix(0.0657977,0,0,0.0657977,0,-5.859375e-5)" />
  <polygon
     points="914.729,248.062 31.0078,248.062 31.0078,69.767 914.729,69.767 914.729,248.062 "
     style="fill:url(#linearGradient3702);fill-opacity:1;stroke:none"
     id="polygon14"
     transform="matrix(0.0657977,0,0,0.0657977,0,-5.859375e-5)" />
  <polygon
     points="317.829,906.977 341.085,906.977 341.085,255.814 317.829,255.814 317.829,906.977 "
     style="fill:#666666;fill-opacity:1;stroke:none"
     id="polygon16"
     transform="matrix(0.0657977,0,0,0.0657977,0,-5.859375e-5)" />
  <polygon
     points="23.2558,240.31 23.2558,263.566 914.729,263.566 914.729,240.31 23.2558,240.31 "
     style="fill:#666666;fill-opacity:1;stroke:none"
     id="polygon18"
     transform="matrix(0.0657977,0,0,0.0657977,0,-5.859375e-5)" />
  <polygon
     points="139.535,364.341 85.2713,364.341 85.2713,310.077 139.535,310.077 139.535,364.341 "
     style="fill:#ff9900;fill-opacity:1;stroke:none"
     id="polygon20"
     transform="matrix(0.0657977,0,0,0.0657977,0,-5.859375e-5)" />
  <polygon
     points="139.535,457.365 85.2713,457.365 85.2713,403.101 139.535,403.101 139.535,457.365 "
     style="fill:#775599;fill-opacity:1;stroke:none"
     id="polygon22"
     transform="matrix(0.0657977,0,0,0.0657977,0,-5.859375e-5)" />
  <polygon
     points="139.535,550.388 85.2713,550.388 85.2713,496.124 139.535,496.124 139.535,550.388 "
     style="fill:#77aa00;fill-opacity:1;stroke:none"
     id="polygon24"
     transform="matrix(0.0657977,0,0,0.0657977,0,-5.859375e-5)" />
  <polygon
     points="139.535,651.163 85.2713,651.163 85.2713,596.899 139.535,596.899 139.535,651.163 "
     style="fill:#ff9900;fill-opacity:1;stroke:none"
     id="polygon26"
     transform="matrix(0.0657977,0,0,0.0657977,0,-5.859375e-5)" />
  <polygon
     points="139.535,744.186 85.2713,744.186 85.2713,689.922 139.535,689.922 139.535,744.186 "
     style="fill:#77aa00;fill-opacity:1;stroke:none"
     id="polygon28"
     transform="matrix(0.0657977,0,0,0.0657977,0,-5.859375e-5)" />
  <polygon
     points="139.535,844.962 85.2713,844.962 85.2713,790.698 139.535,790.698 139.535,844.962 "
     style="fill:#775599;fill-opacity:1;stroke:none"
     id="polygon30"
     transform="matrix(0.0657977,0,0,0.0657977,0,-5.859375e-5)" />
  <polygon
     points="806.201,399.225 798.28,382.86 790.36,374.677 750.757,350.129 695.314,333.764 624.03,325.581 552.747,333.764 497.304,350.129 457.701,374.677 441.86,382.86 441.86,399.225 441.86,399.225 441.86,415.59 457.701,431.956 497.304,448.32 552.747,464.685 624.03,472.868 695.314,464.685 750.757,448.32 790.36,431.956 798.28,415.59 "
     style="fill:#ff9900;fill-opacity:1;stroke:none"
     id="polygon32"
     transform="matrix(0.0657977,0,0,0.0657977,0,-5.859375e-5)" />
  <polygon
     points="162.791,325.581 162.791,348.837 279.07,348.837 279.07,325.581 162.791,325.581 "
     style="fill:#999999;fill-opacity:1;stroke:none"
     id="polygon34"
     transform="matrix(0.0657977,0,0,0.0657977,0,-5.859375e-5)" />
  <polygon
     points="162.791,418.605 162.791,441.861 279.07,441.861 279.07,418.605 162.791,418.605 "
     style="fill:#999999;fill-opacity:1;stroke:none"
     id="polygon36"
     transform="matrix(0.0657977,0,0,0.0657977,0,-5.859375e-5)" />
  <polygon
     points="162.791,519.38 162.791,542.636 279.07,542.636 279.07,519.38 162.791,519.38 "
     style="fill:#999999;fill-opacity:1;stroke:none"
     id="polygon38"
     transform="matrix(0.0657977,0,0,0.0657977,0,-5.859375e-5)" />
  <polygon
     points="162.791,612.403 162.791,635.659 279.07,635.659 279.07,612.403 162.791,612.403 "
     style="fill:#999999;fill-opacity:1;stroke:none"
     id="polygon40"
     transform="matrix(0.0657977,0,0,0.0657977,0,-5.859375e-5)" />
  <polygon
     points="162.791,705.426 162.791,728.682 279.07,728.682 279.07,705.426 162.791,705.426 "
     style="fill:#999999;fill-opacity:1;stroke:none"
     id="polygon42"
     transform="matrix(0.0657977,0,0,0.0657977,0,-5.859375e-5)" />
  <polygon
     points="162.791,798.45 162.791,821.706 279.07,821.706 279.07,798.45 162.791,798.45 "
     style="fill:#999999;fill-opacity:1;stroke:none"
     id="polygon44"
     transform="matrix(0.0657977,0,0,0.0657977,0,-5.859375e-5)" />
  <polygon
     points="1007.75,418.605 999.903,418.605 999.903,418.605 379.845,418.605 379.845,1000 1007.75,1000 "
     style="fill:#000000;fill-opacity:1;stroke:none"
     id="polygon46"
     transform="matrix(0.0657977,0,0,0.0657977,0,-5.859375e-5)" />
  <polygon
     points="992.248,434.108 992.248,984.496 395.349,984.496 395.349,434.108 992.248,434.108 "
     style="fill:#000000;fill-opacity:1;stroke:none"
     id="polygon48"
     transform="matrix(0.0657977,0,0,0.0657977,0,-5.859375e-5)" />
  <polygon
     points="992.248,434.108 984.394,434.108 984.394,434.108 395.349,434.108 395.349,984.496 992.248,984.496 "
     style="fill:#666666;fill-opacity:1;stroke:none"
     id="polygon50"
     transform="matrix(0.0657977,0,0,0.0657977,0,-5.859375e-5)" />
  <polygon
     points="968.993,449.612 968.993,968.992 410.853,968.992 410.853,449.612 968.993,449.612 "
     style="fill:#ffffff;fill-opacity:1;stroke:none"
     id="polygon52"
     transform="matrix(0.0657977,0,0,0.0657977,0,-5.859375e-5)" />
  <polygon
     points="976.744,558.139 410.853,558.139 410.853,449.612 976.744,449.612 976.744,558.139 "
     style="fill:url(#linearGradient3704);fill-opacity:1;stroke:none"
     id="polygon54"
     transform="matrix(0.0657977,0,0,0.0657977,0,-5.859375e-5)" />
  <polygon
     points="906.976,961.24 837.209,961.24 837.209,720.93 906.976,720.93 906.976,961.24 "
     style="fill:#ffcc66;fill-opacity:1;stroke:none"
     id="polygon56"
     transform="matrix(0.0657977,0,0,0.0657977,0,-5.859375e-5)" />
  <polygon
     points="697.674,961.24 620.155,961.24 620.155,705.426 697.674,705.426 697.674,961.24 "
     style="fill:#ff7711;fill-opacity:1;stroke:none"
     id="polygon58"
     transform="matrix(0.0657977,0,0,0.0657977,0,-5.859375e-5)" />
  <polygon
     points="589.147,961.24 519.38,961.24 519.38,620.155 589.147,620.155 589.147,961.24 "
     style="fill:#77aa00;fill-opacity:1;stroke:none"
     id="polygon60"
     transform="matrix(0.0657977,0,0,0.0657977,0,-5.859375e-5)" />
  <polygon
     points="806.201,961.241 728.682,961.241 728.682,651.163 806.201,651.163 806.201,961.241 "
     style="fill:#775599;fill-opacity:1;stroke:none"
     id="polygon62"
     transform="matrix(0.0657977,0,0,0.0657977,0,-5.859375e-5)" />
  <polygon
     points="403.101,573.644 976.744,573.644 976.744,550.388 403.101,550.388 403.101,573.644 "
     style="fill:#666666;fill-opacity:1;stroke:none"
     id="polygon64"
     transform="matrix(0.0657977,0,0,0.0657977,0,-5.859375e-5)" />
  <polygon
     points="1519.81,1519.81 512,1519.81 512,512 1519.81,512 1519.81,1519.81 "
     style="fill:#ffffff;fill-opacity:0;stroke:none"
     id="polygon66"
     transform="matrix(0.0657977,0,0,0.0657977,0,-5.859375e-5)" />
  <polygon
     points="1496.25,1361.85 1512,1353.8 1512,1305.46 1488.38,1289.34 1456.88,1273.23 1433.26,1241 1409.64,1184.61 1291.53,1176.55 1165.54,1168.49 1015.94,1160.44 748.22,1160.44 661.607,1168.49 630.111,1176.55 614.362,1184.61 598.614,1200.72 590.74,1216.83 574.992,1249.06 559.244,1273.23 535.622,1289.34 512,1305.46 512,1353.8 512,1353.8 543.496,1361.85 637.984,1386.02 795.464,1410.19 913.575,1418.25 1047.43,1418.25 1181.29,1418.25 1283.65,1410.19 1362.39,1402.14 1425.39,1386.02 "
     style="fill:#000000;fill-opacity:1;stroke:none"
     id="polygon68"
     transform="matrix(0.0657977,0,0,0.0657977,0,-5.859375e-5)" />
  <polygon
     points="1015.94,1215.13 1165.82,1207.16 1292.04,1191.23 1418.25,1175.3 1418.25,1167.33 1418.25,1143.43 1410.36,1087.67 1386.7,1015.98 1370.92,984.12 1347.25,952.258 1299.92,896.497 1268.37,872.601 1236.82,848.704 1189.49,832.772 1142.16,816.841 1086.94,808.875 1015.94,808.875 937.06,808.875 881.843,816.841 826.624,832.772 787.182,848.704 755.629,872.601 724.076,896.497 676.745,944.292 676.745,944.292 653.08,976.155 637.303,1015.98 613.638,1087.67 605.75,1143.43 605.75,1167.33 605.75,1175.3 613.638,1175.3 739.851,1191.23 866.065,1207.16 "
     style="fill:#000000;fill-opacity:1;stroke:none"
     id="polygon70"
     transform="matrix(0.0657977,0,0,0.0657977,0,-5.859375e-5)" />
  <polygon
     points="1189.52,840.613 1228.97,856.564 1260.53,880.49 1292.09,904.415 1339.43,960.241 1363.1,984.168 1378.88,1016.07 1402.55,1079.87 1410.44,1135.7 1410.44,1167.6 1276.31,1183.55 1150.07,1199.5 1015.94,1199.5 873.927,1199.5 755.58,1183.55 613.562,1167.6 613.562,1135.7 629.343,1079.87 645.121,1008.09 660.902,976.193 684.571,952.267 684.571,952.267 731.91,904.415 763.47,880.49 795.029,856.564 834.478,840.613 881.818,824.663 944.937,816.688 1015.94,816.688 1086.95,816.688 1142.18,824.663 "
     style="fill:#aaaaaa;fill-opacity:1;stroke:none"
     id="polygon72"
     transform="matrix(0.0657977,0,0,0.0657977,0,-5.859375e-5)" />
  <polygon
     points="684.259,1104.94 755.725,1113.02 827.19,1104.94 851.012,1104.94 874.833,1113.02 906.596,1129.19 938.358,1129.19 1041.59,1129.19 1097.17,1121.11 1120.99,1121.11 1136.87,1104.94 1144.81,1088.78 1144.81,1072.61 1136.87,1048.37 1120.99,1024.12 1073.35,975.632 1033.65,951.386 1001.88,951.386 970.12,967.549 962.179,967.549 946.299,967.549 922.477,951.386 890.714,935.222 874.833,910.977 858.952,902.894 843.071,894.812 827.19,894.812 827.19,894.812 787.487,902.894 747.784,919.058 723.963,943.304 700.14,967.549 676.318,1007.96 668.378,1048.37 660.438,1080.7 660.438,1096.86 668.378,1104.94 "
     style="fill:#666666;fill-opacity:1;stroke:none"
     id="polygon74"
     transform="matrix(0.0657977,0,0,0.0657977,0,-5.859375e-5)" />
  <polygon
     points="834.01,1074.5 858.467,1066.2 874.772,1066.2 891.076,1024.69 923.684,991.491 964.445,966.59 980.75,958.288 980.75,949.988 956.293,941.688 891.076,941.688 891.076,941.688 874.772,949.988 842.163,958.288 817.707,966.59 801.402,983.191 793.25,999.793 793.25,1024.69 793.25,1049.6 801.402,1066.2 817.707,1074.5 "
     style="fill:#e5f2ff;fill-opacity:1;stroke:none"
     id="polygon76"
     transform="matrix(0.0657977,0,0,0.0657977,0,-5.859375e-5)" />
  <polygon
     points="1035.44,652.625 1026.51,652.625 1026.51,652.625 972.938,652.625 972.938,746.375 1035.44,746.375 "
     style="fill:#000000;fill-opacity:1;stroke:none"
     id="polygon78"
     transform="matrix(0.0657977,0,0,0.0657977,0,-5.859375e-5)" />
  <polygon
     points="1027.63,660.438 1027.63,738.563 980.75,738.563 980.75,660.438 1027.63,660.438 "
     style="fill:#8c8c8c;fill-opacity:1;stroke:none"
     id="polygon80"
     transform="matrix(0.0657977,0,0,0.0657977,0,-5.859375e-5)" />
  <polygon
     points="1034.57,754.188 1034.57,754.188 965.125,754.188 965.125,846.736 973.806,846.736 982.486,855.15 1008.53,863.563 1025.89,863.563 1043.25,855.15 1043.25,846.736 1043.25,754.188 "
     style="fill:#000000;fill-opacity:1;stroke:none"
     id="polygon82"
     transform="matrix(0.0657977,0,0,0.0657977,0,-5.859375e-5)" />
  <polygon
     points="1026.32,847.227 1008.09,855.75 989.864,847.227 980.75,847.227 980.75,762 1035.44,762 1035.44,762 1035.44,847.227 "
     style="fill:#8c8c8c;fill-opacity:1;stroke:none"
     id="polygon84"
     transform="matrix(0.0657977,0,0,0.0657977,0,-5.859375e-5)" />
  <polygon
     points="1035.44,840.125 1043.25,847.938 1043.25,847.938 "
     style="fill:#000000;fill-opacity:1;stroke:none"
     id="polygon86"
     transform="matrix(0.0657977,0,0,0.0657977,0,-5.859375e-5)" />
  <polygon
     points="1050.46,731.531 1008.4,722.938 983.154,722.938 966.327,722.938 949.5,731.531 949.5,731.531 949.5,740.125 949.5,791.689 957.913,800.282 974.741,808.875 1008.4,808.875 1033.64,808.875 1050.46,800.282 1058.88,791.689 1058.88,740.125 "
     style="fill:#000000;fill-opacity:1;stroke:none"
     id="polygon88"
     transform="matrix(0.0657977,0,0,0.0657977,0,-5.859375e-5)" />
  <polygon
     points="1008.45,730.75 1008.45,730.75 1034.02,730.75 1051.06,739.539 1051.06,792.274 1042.54,792.274 1008.45,801.063 974.358,801.063 957.312,792.274 957.312,739.539 974.358,730.75 "
     style="fill:#aaaaaa;fill-opacity:1;stroke:none"
     id="polygon90"
     transform="matrix(0.0657977,0,0,0.0657977,0,-5.859375e-5)" />
  <polygon
     points="1042.14,662 1058.88,671.375 1058.88,671.375 1058.88,680.749 1042.14,690.125 1000.28,699.5 958.428,690.125 950.058,680.749 941.688,671.375 950.058,671.375 958.428,662 1000.28,652.625 "
     style="fill:#555555;fill-opacity:1;stroke:none"
     id="polygon92"
     transform="matrix(0.0657977,0,0,0.0657977,0,-5.859375e-5)" />
  <polygon
     points="975.171,644.812 950.058,654.578 941.688,664.344 941.688,664.344 950.058,674.11 975.171,683.875 1000.28,683.875 1033.76,683.875 1050.51,674.11 1058.88,664.344 1050.51,654.578 1033.76,644.812 1000.28,644.812 "
     style="fill:#000000;fill-opacity:1;stroke:none"
     id="polygon94"
     transform="matrix(0.0657977,0,0,0.0657977,0,-5.859375e-5)" />
  <polygon
     points="1034.02,652.625 1051.06,664.344 1034.02,676.063 999.926,676.063 974.358,676.063 957.312,664.344 974.358,652.625 999.926,652.625 999.926,652.625 "
     style="fill:#aaaaaa;fill-opacity:1;stroke:none"
     id="polygon96"
     transform="matrix(0.0657977,0,0,0.0657977,0,-5.859375e-5)" />
  <polygon
     points="1269.4,933.165 1244.73,899.074 1195.39,864.982 1170.72,856.46 1154.27,856.46 1154.27,856.46 1137.82,847.938 1129.6,856.46 1121.38,864.982 1121.38,873.506 1129.6,882.029 1178.94,899.074 1228.28,916.12 1269.4,933.165 1277.63,941.688 "
     style="fill:#e5f2ff;fill-opacity:1;stroke:none"
     id="polygon98"
     transform="matrix(0.0657977,0,0,0.0657977,0,-5.859375e-5)" />
  <polygon
     points="598.214,1113.56 590.332,1121.86 574.569,1138.46 566.688,1146.76 566.688,1163.37 574.569,1179.97 574.569,1188.27 613.977,1196.57 708.556,1221.47 850.427,1238.07 929.242,1246.37 1015.94,1246.37 1189.34,1238.07 1323.33,1213.17 1410.02,1196.57 1449.43,1188.27 1449.43,1179.97 1457.31,1163.37 1457.31,1146.76 1449.43,1138.46 1433.67,1121.86 1425.79,1113.56 1425.79,1113.56 1394.26,1130.17 1299.68,1155.07 1173.57,1179.97 1094.76,1188.27 1015.94,1188.27 937.124,1188.27 858.308,1179.97 724.321,1155.07 629.741,1130.17 "
     style="fill:#333333;fill-opacity:1;stroke:none"
     id="polygon100"
     transform="matrix(0.0657977,0,0,0.0657977,0,-5.859375e-5)" />
  <polygon
     points="1307.6,1204.91 1181.46,1230.15 1015.91,1238.56 858.236,1230.15 724.216,1213.32 629.614,1188.08 582.313,1179.67 582.313,1154.43 582.313,1137.6 598.08,1129.19 637.497,1137.6 732.099,1162.84 866.119,1188.08 937.071,1196.5 1015.91,1196.5 1015.91,1196.5 1094.74,1196.5 1165.69,1188.08 1299.71,1162.84 1386.43,1137.6 1425.85,1129.19 1441.62,1137.6 1449.5,1162.84 1441.62,1179.67 1402.2,1188.08 "
     style="fill:#cccccc;fill-opacity:1;stroke:none"
     id="polygon102"
     transform="matrix(0.0657977,0,0,0.0657977,0,-5.859375e-5)" />
  <polygon
     points="613.792,1137 662.047,1154.86 710.299,1172.71 758.554,1181.64 847.019,1190.57 879.188,1199.5 742.468,1190.57 654.004,1163.79 605.75,1154.86 613.792,1137 "
     style="fill:#e5f2ff;fill-opacity:1;stroke:none"
     id="polygon104"
     transform="matrix(0.0657977,0,0,0.0657977,0,-5.859375e-5)" />
  <polygon
     points="1418.01,1144.81 1418.01,1144.81 1330.72,1170.38 1243.45,1195.95 1148.23,1212.99 926.062,1238.56 1013.34,1230.04 1179.97,1221.52 1267.25,1204.47 1346.59,1187.43 1433.87,1161.86 "
     style="fill:#999999;fill-opacity:1;stroke:none"
     id="polygon106"
     transform="matrix(0.0657977,0,0,0.0657977,0,-5.859375e-5)" />
  <polygon
     points="590.355,1277.63 638.608,1295.48 686.862,1313.34 735.116,1322.27 823.581,1331.2 855.75,1340.13 719.031,1331.2 630.567,1313.34 582.313,1295.48 590.355,1277.63 "
     style="fill:#bbbbbb;fill-opacity:1;stroke:none"
     id="polygon108"
     transform="matrix(0.0657977,0,0,0.0657977,0,-5.859375e-5)" />
  <polygon
     points="894.812,1155.23 862,1165.65 837.39,1165.65 804.577,1155.23 747.156,1144.81 730.75,1144.81 812.781,1165.65 870.202,1176.06 894.812,1176.06 894.812,1155.23 "
     style="fill:#e5f2ff;fill-opacity:1;stroke:none"
     id="polygon110"
     transform="matrix(0.0657977,0,0,0.0657977,0,-5.859375e-5)" />
</svg>
