<?xml version="1.0"?>
<?metis version="3.1"?>
<?metisxml version="1.0"?>
<!DOCTYPE svg  PUBLIC "-//W3C//DTD SVG August 1999//EN"
 "http://www.w3.org/Graphics/SVG/svg-19990812.dtd">

<svg width="200" height="200">
 <title>Symbol library: appl_product.svg</title>
 <defs>
  <symbol id="oid0" xml:space="preserve" class="METIS_SYMBOL">
   <title>Application Product</title>
    <g>
      <polygon points="7.10543e-015 0 7.10543e-015 304 16.2963 320 
       880 320 880 16 863.704 0 7.10543e-015 0 
       7.10543e-015 0 7.10543e-015 0 7.10543e-015 0 7.10543e-015 0 7.10543e-015 0 "
       style=" stroke:#000000; stroke-width:1; fill:#9b9b9b; fill-opacity:100%"       class="TAG:shadow"></polygon>
      <rect x="7.10543e-015" y="0" width="240" height="304"
       style=" stroke:#000000; stroke-width:1; fill:#00a500; fill-opacity:100%"       class="TAG:PictureBackground"></rect>
      <rect x="240" y="0" width="624" height="304"
       style=" stroke:#000000; stroke-width:1; fill:#c8ffc8; fill-opacity:100%"       class="TAG:canvas"></rect>
      <g>
	<desc>METIS_TEXT_GROUP</desc>
	<text  x="256" y="15.8"
	 style=" stroke:#000000; stroke-width:1; font-family:sans-serif; font-size:16;"
	 class="TAG:text">text</text>
	<rect x="256" y="0" width="608" height="304"
	 style=" stroke:#000000; stroke-width:1; fill:#ffffff; fill-opacity:0%"></rect>
      </g>
      <g>
	<polygon points="182.538 213.187 221.212 118.137 224 122.322 
	 186.719 211.992 186.371 211.992 186.023 211.992 185.674 211.992 
	 184.977 211.992 184.629 211.992 183.932 212.59 183.584 212.59 
	 182.886 212.59 182.538 213.187 182.538 213.187 182.538 213.187 
	 182.538 213.187 182.538 213.187 182.538 213.187 "
	 style=" stroke:#ababab; stroke-width:1; fill:#ffffff; fill-opacity:100%"></polygon>
	<polygon points="180.978 76.5545 222.617 117.72 182.713 214.97 
	 141.767 170.821 180.978 76.5545 180.978 76.5545 180.978 76.5545 
	 180.978 76.5545 180.978 76.5545 180.978 76.5545 "
	 style=" stroke:#000000; stroke-width:1; fill:#ffffff; fill-opacity:100%"></polygon>
	<polygon points="183.066 96.5088 182.338 95.888 180.883 100.236 
	 179.429 98.9933 183.066 88.4358 185.612 90.9204 186.339 93.4035 
	 185.248 95.888 184.157 96.5088 184.52 97.7518 183.066 102.099 
	 181.611 100.857 183.066 96.5088 183.066 96.5088 183.066 96.5088 
	 183.066 96.5088 183.066 96.5088 183.066 96.5088 "
	 style=" stroke:#000000; stroke-width:1; fill:#00ffff; fill-opacity:100%"></polygon>
	<polygon points="187.241 92.5942 189.795 95.0833 189.065 96.95 
	 187.971 95.7055 187.241 97.5723 187.971 98.8168 187.606 100.685 
	 186.512 100.061 185.417 102.552 186.876 103.796 186.147 105.663 
	 183.23 103.174 187.241 92.5942 187.241 92.5942 187.241 92.5942 
	 187.241 92.5942 187.241 92.5942 187.241 92.5942 "
	 style=" stroke:#000000; stroke-width:1; fill:#00ffff; fill-opacity:100%"></polygon>
	<polygon points="189.986 94.9696 192.904 98.0884 192.174 100.583 
	 190.715 98.7121 189.986 101.207 191.08 101.831 190.35 104.327 
	 189.256 103.078 187.798 107.446 186.339 105.575 189.986 94.9696 
	 189.986 94.9696 189.986 94.9696 189.986 94.9696 189.986 94.9696 189.986 94.9696 "
	 style=" stroke:#000000; stroke-width:1; fill:#00ffff; fill-opacity:100%"></polygon>
	<polygon points="192.761 98.5341 195.322 101.023 194.591 102.891 
	 193.493 101.645 193.127 103.514 193.859 104.758 193.127 106.625 
	 192.396 105.38 191.298 108.492 192.396 109.736 191.664 111.605 
	 189.103 109.114 192.761 98.5341 192.761 98.5341 192.761 98.5341 
	 192.761 98.5341 192.761 98.5341 192.761 98.5341 "
	 style=" stroke:#000000; stroke-width:1; fill:#00ffff; fill-opacity:100%"></polygon>
	<polygon points="195.504 109.578 194.776 108.957 193.322 113.304 
	 191.867 112.062 195.504 101.505 198.05 103.989 198.777 106.472 
	 197.686 108.957 196.595 109.578 196.959 110.821 195.504 115.169 
	 194.049 113.926 195.504 109.578 195.504 109.578 195.504 109.578 
	 195.504 109.578 195.504 109.578 195.504 109.578 "
	 style=" stroke:#000000; stroke-width:1; fill:#00ffff; fill-opacity:100%"></polygon>
	<polygon points="199.679 105.069 202.233 108.175 201.503 110.038 
	 200.409 108.795 199.679 110.658 200.774 111.901 200.044 113.765 
	 198.95 112.523 197.857 115.627 199.315 116.87 198.586 118.734 
	 195.668 115.627 199.679 105.069 199.679 105.069 199.679 105.069 
	 199.679 105.069 199.679 105.069 199.679 105.069 "
	 style=" stroke:#000000; stroke-width:1; fill:#00ffff; fill-opacity:100%"></polygon>
	<polygon points="201.687 115.479 199.868 119.817 198.777 118.577 
	 202.414 108.04 203.505 109.279 202.778 115.479 204.596 110.519 
	 205.687 111.759 202.05 122.295 200.959 121.057 201.687 115.479 
	 201.687 115.479 201.687 115.479 201.687 115.479 201.687 115.479 201.687 115.479 "
	 style=" stroke:#000000; stroke-width:1; fill:#00ffff; fill-opacity:100%"></polygon>
	<polygon points="207.68 116.512 206.948 115.887 204.753 122.14 
	 205.119 122.765 206.216 120.264 207.68 122.14 206.582 124.641 
	 205.119 125.267 203.655 124.015 202.924 121.514 205.85 114.011 
	 207.314 113.386 208.777 114.637 209.143 117.138 208.411 119.639 
	 206.948 118.388 207.68 116.512 207.68 116.512 207.68 116.512 
	 207.68 116.512 207.68 116.512 207.68 116.512 "
	 style=" stroke:#000000; stroke-width:1; fill:#00ffff; fill-opacity:100%"></polygon>
	<polygon points="210.037 116.357 212.598 118.846 211.866 120.713 
	 210.77 119.468 210.037 121.959 211.134 122.579 210.403 124.446 
	 209.306 123.825 208.573 126.313 209.671 127.559 208.94 129.424 
	 206.379 126.937 210.037 116.357 210.037 116.357 210.037 116.357 
	 210.037 116.357 210.037 116.357 210.037 116.357 "
	 style=" stroke:#000000; stroke-width:1; fill:#00ffff; fill-opacity:100%"></polygon>
	<polygon points="182.365 113.682 184.894 109.352 186.339 110.589 
	 182.727 121.109 181.282 119.871 183.81 113.065 180.921 119.253 
	 180.198 118.633 182.005 111.207 179.476 118.016 178.392 116.777 
	 182.005 106.257 183.449 108.113 182.365 113.682 182.365 113.682 
	 182.365 113.682 182.365 113.682 182.365 113.682 182.365 113.682 182.365 113.682 "
	 style=" stroke:#000000; stroke-width:1; fill:#00ffff; fill-opacity:100%"></polygon>
	<polygon points="185.811 121.541 185.084 120.919 183.993 122.781 
	 182.538 121.541 187.266 111.605 189.448 114.089 186.539 125.267 
	 185.084 124.026 185.811 121.541 185.811 121.541 185.811 121.541 
	 185.811 121.541 185.811 121.541 185.811 121.541 "
	 style=" stroke:#000000; stroke-width:1; fill:#00ffff; fill-opacity:100%"></polygon>
	<polygon points="189.605 122.014 187.79 126.973 186.339 125.113 
	 190.33 114.575 191.418 116.435 190.693 122.014 192.507 117.054 
	 193.595 118.294 189.967 128.832 188.878 127.592 189.605 122.014 
	 189.605 122.014 189.605 122.014 189.605 122.014 189.605 122.014 189.605 122.014 "
	 style=" stroke:#000000; stroke-width:1; fill:#00ffff; fill-opacity:100%"></polygon>
	<polygon points="193.019 129.312 195.937 120.6 197.396 122.467 
	 194.477 131.18 193.019 131.803 191.195 130.557 190.831 128.069 
	 194.113 118.734 195.572 119.977 192.29 128.69 193.019 129.312 
	 193.019 129.312 193.019 129.312 193.019 129.312 193.019 129.312 193.019 129.312 "
	 style=" stroke:#000000; stroke-width:1; fill:#00ffff; fill-opacity:100%"></polygon>
	<polygon points="196.858 133.423 196.129 132.181 195.034 134.043 
	 193.94 132.8 198.317 123.486 200.505 125.348 197.588 137.147 
	 196.129 135.285 196.858 133.423 196.858 133.423 196.858 133.423 
	 196.858 133.423 196.858 133.423 196.858 133.423 "
	 style=" stroke:#000000; stroke-width:1; fill:#00ffff; fill-opacity:100%"></polygon>
	<polygon points="201.443 126.457 202.924 127.7 199.592 136.413 
	 201.073 137.659 200.332 139.526 197.741 137.035 201.443 126.457 
	 201.443 126.457 201.443 126.457 201.443 126.457 201.443 126.457 201.443 126.457 "
	 style=" stroke:#000000; stroke-width:1; fill:#00ffff; fill-opacity:100%"></polygon>
	<polygon points="184.611 92.1185 184.179 91.4065 182.884 94.2576 
	 183.748 94.9696 184.611 92.1185 184.611 92.1185 184.611 92.1185 
	 184.611 92.1185 184.611 92.1185 184.611 92.1185 "
	 style=" stroke:#000000; stroke-width:1; fill:#ffffff; fill-opacity:100%"></polygon>
	<polygon points="197.05 105.188 196.618 104.476 195.322 107.327 
	 196.186 108.04 197.05 105.188 197.05 105.188 197.05 105.188 
	 197.05 105.188 197.05 105.188 197.05 105.188 "
	 style=" stroke:#000000; stroke-width:1; fill:#ffffff; fill-opacity:100%"></polygon>
	<polygon points="187.721 114.575 185.648 119.253 186.477 119.921 
	 187.721 114.575 187.721 114.575 187.721 114.575 187.721 114.575 
	 187.721 114.575 187.721 114.575 187.721 114.575 "
	 style=" stroke:#000000; stroke-width:1; fill:#ffffff; fill-opacity:100%"></polygon>
	<polygon points="198.777 126.457 196.704 130.53 197.534 131.209 
	 198.777 126.457 198.777 126.457 198.777 126.457 198.777 126.457 
	 198.777 126.457 198.777 126.457 198.777 126.457 "
	 style=" stroke:#000000; stroke-width:1; fill:#ffffff; fill-opacity:100%"></polygon>
	<polyline points="184.266 212.593 222.272 119.328"
	 style=" stroke:#000000; stroke-width:1;"></polyline>
	<polyline points="184.957 212 222.619 119.921"
	 style=" stroke:#000000; stroke-width:1;"></polyline>
	<polyline points="185.648 212 223.309 121.109"
	 style=" stroke:#000000; stroke-width:1;"></polyline>
	<polyline points="186.339 212 223.655 121.703"
	 style=" stroke:#000000; stroke-width:1;"></polyline>
	<polygon points="171.616 112.198 151.442 161.26 182.4 195.96 
	 203.269 146.302 171.616 112.198 171.616 112.198 171.616 112.198 
	 171.616 112.198 171.616 112.198 171.616 112.198 "
	 style=" stroke:#ffff00; stroke-width:1; fill:#000000; fill-opacity:100%"></polygon>
	<polygon points="182.192 130.615 156.624 152.846 181.492 182.891 
	 182.192 130.615 182.192 130.615 182.192 130.615 182.192 130.615 
	 182.192 130.615 182.192 130.615 "
	 style=" stroke:#ab0202; stroke-width:1; fill:#ab0202; fill-opacity:100%"></polygon>
	<polygon points="184.266 130.615 158.007 150.444 181.815 182.891 
	 184.266 130.615 184.266 130.615 184.266 130.615 184.266 130.615 
	 184.266 130.615 184.266 130.615 "
	 style=" stroke:#ff0000; stroke-width:1; fill:#ff0000; fill-opacity:100%"></polygon>
	<polygon points="186.684 130.615 159.735 148.64 182.835 182.891 
	 186.684 130.615 186.684 130.615 186.684 130.615 186.684 130.615 
	 186.684 130.615 186.684 130.615 "
	 style=" stroke:#ff00ab; stroke-width:1; fill:#ff00ab; fill-opacity:100%"></polygon>
	<polygon points="183.575 172.791 182.501 172.791 181.786 172.791 
	 180.712 172.185 179.996 171.578 178.922 170.971 178.207 170.365 
	 177.491 169.149 176.776 168.543 176.06 167.328 175.344 165.508 
	 174.986 164.295 174.271 163.08 173.913 161.26 173.913 160.045 
	 173.555 158.223 173.555 156.403 173.555 155.19 173.555 153.369 
	 173.913 152.153 174.271 150.334 174.628 149.12 174.986 147.299 
	 175.702 146.085 176.06 144.87 175.702 147.299 174.986 149.12 
	 174.628 151.548 174.628 153.977 174.628 156.403 174.986 158.832 
	 175.702 161.26 176.417 163.686 177.491 165.508 178.565 167.328 
	 179.996 168.543 181.07 169.149 182.144 169.758 183.217 170.365 
	 183.575 170.365 183.575 172.791 183.575 172.791 183.575 172.791 
	 183.575 172.791 183.575 172.791 183.575 172.791 "
	 style=" stroke:#ffab00; stroke-width:1; fill:#ffab00; fill-opacity:100%"></polygon>
	<polygon points="191.132 143.186 191.835 144.396 192.187 146.21 
	 192.539 147.421 192.891 149.235 193.243 150.445 193.595 152.26 
	 193.595 153.468 193.595 155.283 193.243 157.097 193.243 158.307 
	 192.891 160.122 192.539 161.332 192.187 163.146 191.484 164.356 
	 191.132 165.566 190.076 166.776 189.373 167.985 188.67 168.591 
	 187.615 169.195 186.911 169.801 186.207 170.405 185.152 170.405 
	 184.096 171.011 183.393 171.011 182.337 170.405 181.633 170.405 
	 180.578 169.801 179.874 169.195 178.819 168.591 178.116 167.381 
	 177.413 166.171 176.709 164.961 176.005 163.752 175.653 162.542 
	 175.302 160.727 174.95 159.517 174.598 157.703 174.598 156.493 
	 174.246 154.678 174.246 152.865 174.598 151.655 174.598 149.841 
	 174.95 148.631 175.302 146.816 175.653 145.606 176.357 144.396 
	 177.061 143.186 177.764 141.976 178.467 140.766 179.172 140.161 
	 180.226 138.951 180.93 138.347 181.985 138.347 182.689 137.741 
	 183.744 137.741 184.448 137.741 185.504 137.741 186.559 138.347 
	 187.263 138.951 187.965 139.557 189.022 140.161 189.726 140.766 
	 190.429 141.976 191.132 143.186 191.132 143.186 191.132 143.186 
	 191.132 143.186 191.132 143.186 191.132 143.186 "
	 style=" stroke:#ffff00; stroke-width:1; fill:#ffff00; fill-opacity:100%"></polygon>
	<polygon points="182.504 80.1218 183.899 79.5249 186.339 81.9144 
	 167.166 181.667 160.89 184.058 160.194 188.237 154.267 184.655 
	 147.295 176.888 148.341 177.487 158.102 182.863 158.799 179.874 
	 163.332 176.291 182.504 80.1218 182.504 80.1218 182.504 80.1218 
	 182.504 80.1218 182.504 80.1218 182.504 80.1218 "
	 style=" stroke:#000000; stroke-width:1; fill:#000000; fill-opacity:100%"></polygon>
	<polygon points="182.148 64.6732 158.697 181.702 159.048 181.702 
	 159.398 181.105 159.748 180.51 160.097 180.51 160.448 179.911 
	 160.798 179.314 161.147 179.314 161.498 178.716 161.848 178.716 
	 162.197 178.716 162.548 178.121 162.898 178.121 163.248 178.121 
	 163.598 178.121 163.948 178.121 163.948 178.121 185.648 69.4498 
	 185.299 69.4498 184.948 68.8527 184.598 68.2556 184.248 67.6589 
	 183.548 67.0614 183.198 66.4643 182.848 65.8673 182.148 64.6732 
	 182.148 64.6732 182.148 64.6732 182.148 64.6732 182.148 64.6732 182.148 64.6732 "
	 style=" stroke:#ababab; stroke-width:1; fill:#ffffff; fill-opacity:100%"></polygon>
	<polygon points="128.043 37.3465 107.216 156.642 158.588 183.485 
	 182.539 64.1881 128.043 37.3465 128.043 37.3465 128.043 37.3465 
	 128.043 37.3465 128.043 37.3465 128.043 37.3465 "
	 style=" stroke:#000000; stroke-width:1; fill:#ffffff; fill-opacity:100%"></polygon>
	<polygon points="126.641 83.683 115.163 148.293 154.814 168.633 
	 167.336 105.22 126.641 83.683 126.641 83.683 126.641 83.683 
	 126.641 83.683 126.641 83.683 126.641 83.683 "
	 style=" stroke:#ffff00; stroke-width:1; fill:#000000; fill-opacity:100%"></polygon>
	<polygon points="142.714 98.5341 118.963 136.357 151.096 154.971 
	 142.714 98.5341 142.714 98.5341 142.714 98.5341 142.714 98.5341 
	 142.714 98.5341 142.714 98.5341 "
	 style=" stroke:#ab0202; stroke-width:1; fill:#ab0202; fill-opacity:100%"></polygon>
	<polygon points="144.801 97.3464 120 133.364 151.787 154.378 
	 144.801 97.3464 144.801 97.3464 144.801 97.3464 144.801 97.3464 
	 144.801 97.3464 144.801 97.3464 "
	 style=" stroke:#ff0000; stroke-width:1; fill:#ff0000; fill-opacity:100%"></polygon>
	<polygon points="147.237 96.1588 121.728 129.771 152.479 153.781 
	 147.237 96.1588 147.237 96.1588 147.237 96.1588 147.237 96.1588 
	 147.237 96.1588 147.237 96.1588 "
	 style=" stroke:#ff00ab; stroke-width:1; fill:#ff00ab; fill-opacity:100%"></polygon>
	<polygon points="151.442 143.077 150.734 143.077 149.67 143.684 
	 148.607 143.684 147.544 143.684 146.48 143.684 145.417 143.077 
	 144.354 142.468 143.645 141.861 142.582 140.646 141.519 140.037 
	 140.81 138.824 140.102 137.608 139.393 135.785 139.039 134.57 
	 138.33 132.747 137.976 130.925 137.621 129.103 137.621 127.887 
	 137.621 126.065 137.621 124.241 137.621 122.418 137.976 120.596 
	 138.33 118.774 138.684 116.951 138.33 119.987 138.33 122.418 
	 138.33 124.849 138.684 127.887 139.039 130.317 140.102 132.747 
	 141.165 135.177 142.228 136.999 143.645 138.824 145.063 140.037 
	 146.836 140.646 148.253 140.646 149.67 140.646 150.734 140.646 
	 151.442 140.037 151.442 143.077 151.442 143.077 151.442 143.077 
	 151.442 143.077 151.442 143.077 151.442 143.077 "
	 style=" stroke:#ffab00; stroke-width:1; fill:#ffab00; fill-opacity:100%"></polygon>
	<polygon points="154.472 106.89 155.175 108.097 156.228 109.306 
	 156.931 110.513 157.282 112.324 157.984 113.533 158.335 115.343 
	 158.687 116.551 159.037 118.363 159.388 120.173 159.388 121.986 
	 159.388 123.797 159.388 125.608 159.037 127.42 158.687 129.23 
	 158.335 131.043 157.632 132.854 156.931 134.06 156.228 135.873 
	 155.526 137.08 154.823 138.287 153.77 138.893 153.067 139.496 
	 152.014 140.1 150.96 140.703 149.907 141.306 148.853 141.306 
	 147.799 141.306 146.746 140.703 145.693 140.703 144.99 140.1 
	 143.937 139.496 142.883 138.287 142.181 137.684 141.127 135.873 
	 140.425 134.666 139.722 133.457 139.372 131.646 139.021 130.438 
	 138.669 128.627 138.318 126.816 137.966 125.006 137.966 123.193 
	 137.966 121.381 137.966 119.57 138.318 117.758 138.669 116.551 
	 139.021 114.74 139.722 112.928 140.425 111.115 141.127 109.91 
	 141.83 108.701 142.533 107.494 143.586 106.287 144.289 105.683 
	 145.342 105.08 146.395 104.476 147.449 104.476 148.502 104.476 
	 149.555 104.476 150.61 104.476 151.663 105.08 152.366 105.08 
	 153.419 106.287 154.472 106.89 154.472 106.89 154.472 106.89 
	 154.472 106.89 154.472 106.89 154.472 106.89 "
	 style=" stroke:#ffff00; stroke-width:1; fill:#ffff00; fill-opacity:100%"></polygon>
	<polygon points="113.199 123.486 118.618 162.694 114.283 160.28 
	 110.671 135.548 113.199 123.486 113.199 123.486 113.199 123.486 
	 113.199 123.486 113.199 123.486 113.199 123.486 "
	 style=" stroke:#000000; stroke-width:1; fill:#000000; fill-opacity:100%"></polygon>
	<polygon points="94.3451 32.5961 23.9468 58.2238 46.835 214.97 
	 116.54 179.807 116.54 179.807 116.54 179.807 116.887 179.807 
	 117.233 179.21 117.233 179.21 117.58 179.21 117.58 179.21 
	 117.58 178.614 117.58 178.614 117.927 178.019 117.927 178.019 
	 117.927 178.019 117.927 177.421 117.927 177.421 117.58 176.825 
	 117.58 176.825 117.58 176.23 98.5066 36.1718 98.16 35.5759 
	 98.16 35.5759 98.16 34.9801 98.16 34.384 97.8132 33.7881 
	 97.8132 33.192 97.8132 33.192 97.4664 32.5961 97.1195 32.5961 
	 97.1195 32 96.7728 32 96.426 32 96.0791 32 
	 95.7323 32 95.3857 32 95.0388 32 94.3451 32.5961 
	 94.3451 32.5961 94.3451 32.5961 94.3451 32.5961 94.3451 32.5961 94.3451 32.5961 "
	 style=" stroke:#000000; stroke-width:1; fill:#ffffff; fill-opacity:100%"></polygon>
	<polygon points="16 65.2944 24.0361 58.1386 47.0964 214.97 
	 37.6625 211.391 16 65.2944 16 65.2944 16 65.2944 
	 16 65.2944 16 65.2944 16 65.2944 "
	 style=" stroke:#000000; stroke-width:1; fill:#ababab; fill-opacity:100%"></polygon>
	<polygon points="39.8404 95.0877 52.6927 184.079 105.143 158.397 
	 92.6382 72.9898 39.8404 95.0877 39.8404 95.0877 39.8404 95.0877 
	 39.8404 95.0877 39.8404 95.0877 39.8404 95.0877 "
	 style=" stroke:#ffff00; stroke-width:1; fill:#000000; fill-opacity:100%"></polygon>
	<polygon points="63.0763 95.5649 52.279 165.662 95.4684 147.69 
	 63.0763 95.5649 63.0763 95.5649 63.0763 95.5649 63.0763 95.5649 
	 63.0763 95.5649 63.0763 95.5649 "
	 style=" stroke:#ab0202; stroke-width:1; fill:#ab0202; fill-opacity:100%"></polygon>
	<polygon points="64.8171 92.0004 52.279 161.504 95.8139 147.123 
	 64.8171 92.0004 64.8171 92.0004 64.8171 92.0004 64.8171 92.0004 
	 64.8171 92.0004 64.8171 92.0004 "
	 style=" stroke:#ff0000; stroke-width:1; fill:#ff0000; fill-opacity:100%"></polygon>
	<polygon points="67.2512 87.842 52.6246 155.565 96.5051 145.376 
	 67.2512 87.842 67.2512 87.842 67.2512 87.842 67.2512 87.842 
	 67.2512 87.842 67.2512 87.842 "
	 style=" stroke:#ff00ab; stroke-width:1; fill:#ff00ab; fill-opacity:100%"></polygon>
	<polygon points="90.9768 133.936 90.2761 135.768 89.2244 137.597 
	 88.1733 138.818 87.1219 140.039 85.7201 140.647 84.3183 141.868 
	 83.267 142.478 81.8652 142.478 80.4633 143.09 79.0616 142.478 
	 77.6597 142.478 76.2578 141.868 74.8561 140.647 73.8045 140.039 
	 72.7533 138.818 71.3514 137.597 70.3002 135.768 69.5992 133.936 
	 68.8984 132.106 68.1976 129.667 67.4965 127.837 67.146 125.395 
	 66.4453 122.955 66.4453 120.515 67.4965 124.175 68.5478 127.225 
	 69.5992 129.667 70.6507 132.717 72.4029 134.546 74.155 136.987 
	 76.2578 138.208 78.3605 138.818 80.8135 138.818 82.9164 138.208 
	 85.019 136.987 86.4209 135.768 88.1733 133.936 88.8742 132.106 
	 89.575 130.887 90.9768 133.936 90.9768 133.936 90.9768 133.936 
	 90.9768 133.936 90.9768 133.936 90.9768 133.936 "
	 style=" stroke:#ffab00; stroke-width:1; fill:#ffab00; fill-opacity:100%"></polygon>
	<polygon points="79.7474 91.4065 81.1468 91.4065 82.5461 91.4065 
	 83.9454 92.0079 85.3448 92.6092 86.3942 93.8118 87.7936 95.0145 
	 88.4932 96.2171 89.5427 98.0225 90.5923 99.8265 91.2919 101.63 
	 91.9916 103.436 92.6913 105.841 93.0408 108.246 93.3909 110.053 
	 93.7407 112.457 93.7407 115.465 93.7407 117.871 93.3909 120.277 
	 93.0408 122.684 92.6913 124.488 91.9916 126.893 91.2919 128.697 
	 90.5923 130.503 89.5427 132.307 88.4932 134.111 87.7936 135.315 
	 86.3942 136.518 85.3448 137.72 83.9454 138.32 82.5461 138.924 
	 81.1468 139.526 79.7474 139.526 78.3481 139.526 76.9487 138.924 
	 75.5494 138.32 74.5 137.72 73.1006 136.518 72.0513 135.315 
	 71.0018 134.111 69.952 132.307 68.9026 130.503 68.2031 128.697 
	 67.5033 126.893 66.8038 124.488 66.454 122.684 66.1039 120.277 
	 66.1039 117.871 65.7541 115.465 66.1039 112.457 66.1039 110.053 
	 66.454 108.246 66.8038 105.841 67.5033 103.436 68.2031 101.63 
	 68.9026 99.8265 69.952 98.0225 71.0018 96.2171 72.0513 95.0145 
	 73.1006 93.8118 74.5 92.6092 75.5494 92.0079 76.9487 91.4065 
	 78.3481 91.4065 79.7474 91.4065 79.7474 91.4065 79.7474 91.4065 
	 79.7474 91.4065 79.7474 91.4065 79.7474 91.4065 "
	 style=" stroke:#ffff00; stroke-width:1; fill:#ffff00; fill-opacity:100%"></polygon>
	<polyline points="182.884 65.8612 159.735 180.514"
	 style=" stroke:#000000; stroke-width:1;"></polyline>
	<polyline points="183.575 67.0495 160.771 179.326"
	 style=" stroke:#000000; stroke-width:1;"></polyline>
	<polyline points="184.266 67.6436 161.808 178.731"
	 style=" stroke:#000000; stroke-width:1;"></polyline>
	<polyline points="184.611 68.8316 162.844 178.137"
	 style=" stroke:#000000; stroke-width:1;"></polyline>
	<polyline points="185.303 69.4257 163.535 178.137"
	 style=" stroke:#000000; stroke-width:1;"></polyline>
	<polygon points="26.6209 83.0889 20.4917 87.4007 22.2944 99.7233 
	 28.7841 96.0271 26.6209 83.0889 26.6209 83.0889 26.6209 83.0889 
	 26.6209 83.0889 26.6209 83.0889 26.6209 83.0889 "
	 style=" stroke:#ffff00; stroke-width:1; fill:#000000; fill-opacity:100%"></polygon>
	<polygon points="27.0564 89.7716 21.5282 87.2467 23.0024 97.3464 
	 27.0564 89.7716 27.0564 89.7716 27.0564 89.7716 27.0564 89.7716 
	 27.0564 89.7716 27.0564 89.7716 "
	 style=" stroke:#ab0202; stroke-width:1; fill:#ab0202; fill-opacity:100%"></polygon>
	<polygon points="27.402 90.4028 21.8737 87.2467 22.9794 97.3464 
	 27.402 90.4028 27.402 90.4028 27.402 90.4028 27.402 90.4028 
	 27.402 90.4028 27.402 90.4028 "
	 style=" stroke:#ff0000; stroke-width:1; fill:#ff0000; fill-opacity:100%"></polygon>
	<polygon points="27.7475 90.3924 22.2193 87.2467 23.3249 97.9403 
	 27.7475 90.3924 27.7475 90.3924 27.7475 90.3924 27.7475 90.3924 
	 27.7475 90.3924 27.7475 90.3924 "
	 style=" stroke:#ff00ab; stroke-width:1; fill:#ff00ab; fill-opacity:100%"></polygon>
	<polygon points="24.085 96.7526 24.085 96.0989 23.6704 96.0989 
	 23.6704 96.0989 23.6704 95.4452 23.6704 94.7916 23.2558 94.7916 
	 23.2558 94.7916 23.2558 94.1394 23.2558 93.4857 23.2558 93.4857 
	 23.2558 92.8321 23.2558 92.8321 23.6704 92.1784 23.6704 92.1784 
	 23.6704 92.1784 23.6704 91.5247 24.085 91.5247 24.085 90.871 
	 24.085 90.871 24.4997 90.871 24.4997 90.871 24.4997 90.2174 
	 24.9143 90.2174 25.3289 90.2174 24.9143 90.871 24.4997 90.871 
	 24.4997 91.5247 24.085 91.5247 24.085 92.1784 24.085 92.1784 
	 23.6704 92.8321 23.6704 93.4857 23.6704 94.1394 23.6704 94.1394 
	 24.085 94.7916 24.085 94.7916 24.085 95.4452 24.4997 95.4452 
	 24.085 96.0989 24.085 96.7526 24.085 96.7526 24.085 96.7526 
	 24.085 96.7526 24.085 96.7526 24.085 96.7526 "
	 style=" stroke:#ffab00; stroke-width:1; fill:#ffab00; fill-opacity:100%"></polygon>
	<polygon points="25.5017 90.2174 25.8817 90.2174 26.2618 90.2174 
	 26.6419 90.871 27.0219 91.5247 27.0219 91.5247 27.402 92.1784 
	 27.402 92.8321 27.402 93.4857 27.402 94.1394 27.402 94.7916 
	 27.0219 95.4452 27.0219 96.0989 26.6419 96.7526 26.2618 96.7526 
	 25.8817 96.7526 25.5017 96.7526 25.1216 96.7526 24.7415 96.7526 
	 24.3615 96.7526 23.9814 96.0989 23.9814 95.4452 23.6013 94.7916 
	 23.6013 94.1394 23.6013 93.4857 23.6013 92.8321 23.6013 92.1784 
	 23.9814 91.5247 23.9814 91.5247 24.3615 90.871 24.7415 90.2174 
	 25.1216 90.2174 25.5017 90.2174 25.5017 90.2174 25.5017 90.2174 
	 25.5017 90.2174 25.5017 90.2174 25.5017 90.2174 "
	 style=" stroke:#000000; stroke-width:1; fill:#ffff00; fill-opacity:100%"></polygon>
	<polygon points="42.7692 71.3229 42.0452 71.3229 42.4072 75.002 
	 44.2169 74.389 46.0268 76.8417 46.7508 82.3612 45.6649 85.4267 
	 43.1311 86.6528 40.9594 84.2007 40.5974 81.1343 43.1311 80.521 
	 43.4931 82.3612 44.5788 82.3612 43.8551 78.6813 42.0452 78.6813 
	 39.8732 76.8417 39.1495 71.9362 40.5974 68.8699 43.1311 67.6436 
	 44.941 69.4832 45.6649 72.5492 43.1311 73.7757 42.7692 71.3229 
	 42.7692 71.3229 42.7692 71.3229 42.7692 71.3229 42.7692 71.3229 42.7692 71.3229 "
	 style=" stroke:#000000; stroke-width:1; fill:#ff0000; fill-opacity:100%"></polygon>
	<polygon points="47.1622 65.8995 49.6959 64.6732 51.8678 67.1261 
	 53.3155 79.3908 52.2298 82.4567 49.3342 83.683 47.5242 81.8434 
	 45.7143 69.5789 47.1622 65.8995 47.1622 65.8995 47.1622 65.8995 
	 47.1622 65.8995 47.1622 65.8995 47.1622 65.8995 "
	 style=" stroke:#000000; stroke-width:1; fill:#ff0000; fill-opacity:100%"></polygon>
	<polygon points="52.279 64.151 57.0703 61.703 57.4389 65.3754 
	 55.2274 66.5992 55.5961 69.6595 57.4389 69.0473 57.8073 72.1079 
	 55.9648 73.3319 57.0703 80.6764 54.4903 81.9007 52.279 64.151 
	 52.279 64.151 52.279 64.151 52.279 64.151 52.279 64.151 52.279 64.151 "
	 style=" stroke:#000000; stroke-width:1; fill:#ff0000; fill-opacity:100%"></polygon>
	<polygon points="58.5944 64.8216 57.5001 65.4343 56.7708 62.3712 
	 62.2415 59.9207 62.6062 62.9838 61.1474 63.5964 63.3356 78.2991 
	 60.7827 79.5249 58.5944 64.8216 58.5944 64.8216 58.5944 64.8216 
	 58.5944 64.8216 58.5944 64.8216 58.5944 64.8216 "
	 style=" stroke:#000000; stroke-width:1; fill:#ff0000; fill-opacity:100%"></polygon>
	<polygon points="67.7028 69.1915 67.3434 69.1915 68.0622 76.5361 
	 66.2655 77.1487 61.9535 60.0107 64.4689 59.3987 66.2655 67.9676 
	 66.2655 67.9676 65.5469 58.7866 66.625 58.1746 68.4217 66.7433 
	 68.4217 66.7433 68.0622 57.5624 70.2182 56.9504 70.9367 75.3121 
	 69.1401 75.9239 67.7028 69.1915 67.7028 69.1915 67.7028 69.1915 
	 67.7028 69.1915 67.7028 69.1915 67.7028 69.1915 "
	 style=" stroke:#000000; stroke-width:1; fill:#ff0000; fill-opacity:100%"></polygon>
	<polygon points="75.2803 69.871 73.8327 70.4839 74.1946 74.1594 
	 71.6608 74.7724 70.937 57.0061 74.1946 55.1682 78.5382 72.3217 
	 76.0045 73.5466 75.2803 69.871 75.2803 69.871 75.2803 69.871 
	 75.2803 69.871 75.2803 69.871 75.2803 69.871 "
	 style=" stroke:#000000; stroke-width:1; fill:#ff0000; fill-opacity:100%"></polygon>
	<polygon points="80.8065 63.8193 79.7251 64.4318 80.8065 71.1703 
	 78.6434 72.3961 76.1197 54.6298 80.0855 52.7921 82.2487 54.6298 
	 82.9699 59.5309 81.8884 61.3688 83.3304 62.594 84.4121 69.9454 
	 81.8884 71.1703 80.8065 63.8193 80.8065 63.8193 80.8065 63.8193 
	 80.8065 63.8193 80.8065 63.8193 80.8065 63.8193 "
	 style=" stroke:#000000; stroke-width:1; fill:#ff0000; fill-opacity:100%"></polygon>
	<polygon points="82.6845 51.6597 87.0489 49.8217 87.7761 53.4975 
	 85.594 54.1102 85.9579 57.7859 87.7761 57.1732 88.14 60.2363 
	 86.685 60.849 87.0489 65.7502 89.2311 64.5245 89.5947 68.2007 
	 85.2303 69.4257 82.6845 51.6597 82.6845 51.6597 82.6845 51.6597 
	 82.6845 51.6597 82.6845 51.6597 82.6845 51.6597 "
	 style=" stroke:#000000; stroke-width:1; fill:#ff0000; fill-opacity:100%"></polygon>
	<polygon points="48.4784 68.8316 50.0907 80.1186 50.897 80.1186 
	 49.2846 68.8316 48.4784 68.8316 48.4784 68.8316 48.4784 68.8316 
	 48.4784 68.8316 48.4784 68.8316 48.4784 68.8316 "
	 style=" stroke:#000000; stroke-width:1; fill:#ffffff; fill-opacity:100%"></polygon>
	<polygon points="73.01 59.3267 73.4419 67.6435 74.7376 67.0036 
	 73.01 59.3267 73.01 59.3267 73.01 59.3267 73.01 59.3267 
	 73.01 59.3267 73.01 59.3267 73.01 59.3267 "
	 style=" stroke:#000000; stroke-width:1; fill:#ffffff; fill-opacity:100%"></polygon>
	<polygon points="80.1793 56.3563 78.8838 57.0353 79.3155 61.1088 
	 80.6115 60.4299 80.1793 56.3563 80.1793 56.3563 80.1793 56.3563 
	 80.1793 56.3563 80.1793 56.3563 80.1793 56.3563 "
	 style=" stroke:#000000; stroke-width:1; fill:#ffffff; fill-opacity:100%"></polygon>
	<polygon points="29.072 108.336 29.072 107.05 27.6131 107.05 
	 27.9779 109.624 27.2484 111.554 24.6954 112.198 23.966 110.911 
	 23.6013 108.336 24.6954 106.405 25.7896 105.762 25.7896 108.336 
	 25.0602 108.979 25.4249 110.267 26.519 109.624 26.1543 106.405 
	 26.8838 105.119 28.7072 104.476 29.8014 105.762 30.1661 108.336 
	 29.8014 110.267 28.3426 110.911 28.3426 108.979 29.072 108.336 
	 29.072 108.336 29.072 108.336 29.072 108.336 29.072 108.336 29.072 108.336 "
	 style=" stroke:#000000; stroke-width:1; fill:#ab0202; fill-opacity:100%"></polygon>
	<polygon points="30.4732 111.108 31.2026 113.682 30.4732 115.613 
	 26.0968 117.545 25.0026 116.901 24.6379 114.326 25.3673 111.753 
	 29.3792 109.822 30.4732 111.108 30.4732 111.108 30.4732 111.108 
	 30.4732 111.108 30.4732 111.108 30.4732 111.108 "
	 style=" stroke:#000000; stroke-width:1; fill:#ab0202; fill-opacity:100%"></polygon>
	<polygon points="31.1642 115.763 31.8937 119.772 30.7996 120.44 
	 30.4349 117.766 29.3407 118.435 29.3407 120.44 28.2466 121.109 
	 27.8818 119.105 25.3289 120.44 25.3289 117.766 31.1642 115.763 
	 31.1642 115.763 31.1642 115.763 31.1642 115.763 31.1642 115.763 31.1642 115.763 "
	 style=" stroke:#000000; stroke-width:1; fill:#ab0202; fill-opacity:100%"></polygon>
	<polygon points="31.1259 121.9 30.7611 120.581 31.8553 119.921 
	 32.5847 125.2 31.4906 125.2 31.1259 123.881 26.3846 125.86 
	 26.0199 123.22 31.1259 121.9 31.1259 121.9 31.1259 121.9 
	 31.1259 121.9 31.1259 121.9 31.1259 121.9 "
	 style=" stroke:#000000; stroke-width:1; fill:#ab0202; fill-opacity:100%"></polygon>
	<polygon points="29.6305 129.179 26.7282 129.179 26.3654 127.891 
	 32.5329 124.674 32.8956 126.605 29.9934 127.891 32.8956 127.891 
	 33.2585 128.534 30.3561 130.465 33.2585 130.465 33.6212 132.397 
	 27.0911 132.397 27.0911 131.109 29.6305 129.179 29.6305 129.179 
	 29.6305 129.179 29.6305 129.179 29.6305 129.179 29.6305 129.179 "
	 style=" stroke:#000000; stroke-width:1; fill:#ab0202; fill-opacity:100%"></polygon>
	<polygon points="29.2205 135.663 29.2205 135.01 27.7657 135.01 
	 27.402 133.049 33.9487 132.397 34.3123 135.663 28.1294 138.932 
	 27.7657 136.969 29.2205 135.663 29.2205 135.663 29.2205 135.663 
	 29.2205 135.663 29.2205 135.663 29.2205 135.663 "
	 style=" stroke:#000000; stroke-width:1; fill:#ab0202; fill-opacity:100%"></polygon>
	<polygon points="30.9915 141.653 30.9915 140.366 28.4385 141.009 
	 28.4385 139.08 34.6387 137.147 35.0033 141.009 34.6387 142.941 
	 32.4504 143.584 31.721 143.584 30.9915 143.584 29.168 144.87 
	 28.8033 142.941 30.9915 141.653 30.9915 141.653 30.9915 141.653 
	 30.9915 141.653 30.9915 141.653 30.9915 141.653 "
	 style=" stroke:#000000; stroke-width:1; fill:#ab0202; fill-opacity:100%"></polygon>
	<polygon points="35.3126 143.09 36.0399 147.768 34.9488 147.768 
	 34.5852 145.762 33.494 146.43 33.8578 147.768 32.4029 148.435 
	 32.4029 146.43 30.5844 146.43 30.5844 148.435 29.4932 148.435 
	 29.1295 144.426 35.3126 143.09 35.3126 143.09 35.3126 143.09 
	 35.3126 143.09 35.3126 143.09 35.3126 143.09 "
	 style=" stroke:#000000; stroke-width:1; fill:#ab0202; fill-opacity:100%"></polygon>
	<polygon points="29.8206 112.792 25.6744 114.376 26.0513 115.169 
	 29.8206 113.584 29.8206 112.792 29.8206 112.792 29.8206 112.792 
	 29.8206 112.792 29.8206 112.792 29.8206 112.792 "
	 style=" stroke:#000000; stroke-width:1; fill:#ababab; fill-opacity:100%"></polygon>
	<polygon points="32.9302 134.177 30.1661 135.07 30.1661 135.961 
	 32.9302 134.177 32.9302 134.177 32.9302 134.177 32.9302 134.177 
	 32.9302 134.177 32.9302 134.177 32.9302 134.177 "
	 style=" stroke:#000000; stroke-width:1; fill:#ababab; fill-opacity:100%"></polygon>
	<polygon points="33.9668 141.306 33.9668 139.526 31.8937 140.416 
	 32.3083 141.306 33.9668 141.306 33.9668 141.306 33.9668 141.306 
	 33.9668 141.306 33.9668 141.306 33.9668 141.306 "
	 style=" stroke:#000000; stroke-width:1; fill:#ababab; fill-opacity:100%"></polygon>
	<polygon points="27.0564 92.9502 27.0564 92.2367 26.6678 91.5247 
	 26.6678 91.5247 26.2791 91.5247 26.2791 90.8112 25.8903 90.8112 
	 25.5017 90.8112 25.113 90.8112 24.7243 90.8112 24.7243 91.5247 
	 24.3356 91.5247 23.9468 92.2367 23.9468 92.9502 23.9468 92.9502 
	 23.9468 93.6637 23.9468 94.3757 23.9468 93.6637 24.3356 92.9502 
	 24.3356 92.9502 24.7243 92.2367 25.113 92.2367 25.5017 92.2367 
	 25.5017 92.2367 25.8903 92.9502 26.2791 92.9502 26.2791 92.9502 
	 26.6678 92.9502 26.6678 92.9502 27.0564 92.9502 27.0564 92.9502 
	 27.0564 92.9502 27.0564 92.9502 27.0564 92.9502 27.0564 92.9502 
	 27.0564 92.9502 27.0564 92.9502 "
	 style=" stroke:#ffffff; stroke-width:1; fill:#ffffff; fill-opacity:100%"></polygon>
	<polygon points="27.0564 94.3757 27.0564 95.2672 27.0564 95.2672 
	 26.5958 95.2672 26.5958 96.1588 26.1351 96.1588 26.1351 96.1588 
	 26.1351 96.1588 25.6744 95.2672 26.1351 95.2672 26.1351 95.2672 
	 26.1351 95.2672 26.5958 94.3757 26.5958 94.3757 27.0564 94.3757 
	 27.0564 94.3757 27.0564 94.3757 27.0564 94.3757 27.0564 94.3757 27.0564 94.3757 "
	 style=" stroke:#ffffff; stroke-width:1; fill:#ffffff; fill-opacity:100%"></polygon>
	<polygon points="76.655 95.5649 75.5927 96.1662 74.8845 96.7705 
	 73.8218 97.9762 73.1136 98.5775 72.4052 99.7831 71.697 101.592 
	 70.9888 102.797 70.2803 104.606 69.9262 105.811 69.5722 107.62 
	 69.2182 109.428 69.2182 111.237 68.8638 113.646 68.8638 115.456 
	 68.8638 117.265 69.2182 119.073 69.2182 120.882 69.5722 122.689 
	 69.9262 124.499 70.6347 126.307 70.9888 128.115 71.697 129.321 
	 72.4052 131.128 73.4679 132.335 74.1761 133.541 75.2384 134.144 
	 76.3011 135.348 77.3634 135.951 78.78 136.555 80.1966 136.555 
	 81.6134 136.555 83.03 136.555 81.2591 134.745 79.8425 133.541 
	 78.78 131.731 77.7177 130.527 76.655 128.718 75.9468 126.911 
	 75.5927 125.101 75.2384 123.896 74.8845 122.089 74.8845 120.279 
	 74.8845 118.47 74.8845 116.662 74.8845 115.456 75.2384 113.646 
	 75.2384 111.839 75.5927 110.031 75.9468 108.825 76.3011 107.017 
	 76.655 105.811 77.0093 104.606 77.7177 102.194 78.0716 99.7831 
	 78.4259 97.9762 78.4259 96.7705 78.0716 96.1662 76.655 95.5649 
	 76.655 95.5649 76.655 95.5649 76.655 95.5649 76.655 95.5649 76.655 95.5649 "
	 style=" stroke:#ffffff; stroke-width:1; fill:#ffffff; fill-opacity:100%"></polygon>
	<polygon points="84.7575 96.1588 85.126 96.1588 86.2316 97.4063 
	 87.7057 98.6538 88.8115 100.525 89.5485 103.02 90.2856 104.891 
	 89.9171 106.139 89.5485 108.01 89.1799 108.634 88.0744 108.634 
	 87.3374 108.634 86.9688 107.386 86.6002 105.515 86.6002 103.644 
	 86.2316 101.149 85.4946 98.6538 84.7575 96.1588 84.7575 96.1588 
	 84.7575 96.1588 84.7575 96.1588 84.7575 96.1588 84.7575 96.1588 "
	 style=" stroke:#ffffff; stroke-width:1; fill:#ffffff; fill-opacity:100%"></polygon>
	<polyline points="53.3155 188.831 105.834 162.098"
	 style=" stroke:#000000; stroke-width:1;"></polyline>
	<polyline points="53.6611 192.395 106.179 165.662"
	 style=" stroke:#000000; stroke-width:1;"></polyline>
	<polyline points="54.0066 195.366 106.871 168.633"
	 style=" stroke:#000000; stroke-width:1;"></polyline>
	<polyline points="54.3522 198.929 107.562 171.603"
	 style=" stroke:#000000; stroke-width:1;"></polyline>
	<polygon points="141.23 66.9461 143.054 56.4081 144.877 57.0278 
	 143.054 68.186 141.595 69.4257 139.406 68.8056 138.313 65.7065 
	 140.5 55.1682 142.324 55.7882 140.5 66.3261 141.23 66.9461 
	 141.23 66.9461 141.23 66.9461 141.23 66.9461 141.23 66.9461 141.23 66.9461 "
	 style=" stroke:#000000; stroke-width:1; fill:#ffff00; fill-opacity:100%"></polygon>
	<polygon points="147.187 61.2439 146.454 60.6228 146.087 63.1071 
	 147.187 64.3491 148.289 66.8335 147.555 70.56 146.087 71.802 
	 144.251 71.1806 143.15 68.6962 143.517 66.2123 145.353 66.8335 
	 145.353 68.6962 145.72 69.3176 146.454 66.8335 144.985 65.5914 
	 144.251 63.1071 144.618 59.3807 146.087 58.1386 148.289 58.7596 
	 149.023 61.2439 148.656 63.7282 146.82 63.1071 147.187 61.2439 
	 147.187 61.2439 147.187 61.2439 147.187 61.2439 147.187 61.2439 147.187 61.2439 "
	 style=" stroke:#000000; stroke-width:1; fill:#ffff00; fill-opacity:100%"></polygon>
	<polygon points="149.852 59.9207 153.17 61.7772 152.801 64.2523 
	 151.326 63.0147 150.958 65.4901 152.064 66.1086 151.695 68.5839 
	 150.589 67.9654 149.852 71.059 151.326 72.297 150.958 74.7724 
	 147.642 72.9158 149.852 59.9207 149.852 59.9207 149.852 59.9207 
	 149.852 59.9207 149.852 59.9207 149.852 59.9207 "
	 style=" stroke:#000000; stroke-width:1; fill:#ffff00; fill-opacity:100%"></polygon>
	<polygon points="154.755 70.3526 154.023 70.3526 152.926 75.295 
	 151.096 74.677 153.657 61.703 156.584 62.9387 157.315 66.0274 
	 156.95 69.1167 155.853 69.7346 156.218 71.5878 155.487 77.1487 
	 153.657 75.9127 154.755 70.3526 154.755 70.3526 154.755 70.3526 
	 154.755 70.3526 154.755 70.3526 154.755 70.3526 "
	 style=" stroke:#000000; stroke-width:1; fill:#ffff00; fill-opacity:100%"></polygon>
	<polygon points="158.525 66.7524 157.719 66.7524 158.122 64.0791 
	 159.735 64.7474 159.331 67.4207 158.122 69.4257 157.316 68.0891 
	 158.525 66.7524 158.525 66.7524 158.525 66.7524 158.525 66.7524 
	 158.525 66.7524 158.525 66.7524 "
	 style=" stroke:#000000; stroke-width:1; fill:#ffff00; fill-opacity:100%"></polygon>
	<polygon points="162.391 68.9605 161.657 68.3405 160.922 70.82 
	 162.391 72.0599 163.124 74.5395 162.391 78.2589 160.922 80.1186 
	 159.087 78.8786 158.352 76.399 158.719 73.9198 160.555 75.1594 
	 160.188 76.399 160.922 77.0191 161.289 74.5395 160.188 73.2996 
	 159.087 70.82 159.821 67.1011 161.289 65.8612 163.124 67.1011 
	 164.226 68.9605 163.491 71.4402 162.024 70.82 162.391 68.9605 
	 162.391 68.9605 162.391 68.9605 162.391 68.9605 162.391 68.9605 162.391 68.9605 "
	 style=" stroke:#000000; stroke-width:1; fill:#ffff00; fill-opacity:100%"></polygon>
	<polygon points="137.802 79.2157 139.25 73.6552 141.422 74.2731 
	 139.25 87.2467 137.441 86.6304 138.888 77.9799 136.717 86.0111 
	 135.992 86.0111 136.717 77.3621 135.268 85.3936 133.821 84.7762 
	 135.992 71.802 138.164 72.4199 137.441 79.2157 137.802 79.2157 
	 137.802 79.2157 137.802 79.2157 137.802 79.2157 137.802 79.2157 137.802 79.2157 "
	 style=" stroke:#000000; stroke-width:1; fill:#ffff00; fill-opacity:100%"></polygon>
	<polygon points="142.662 86.5107 141.565 85.8929 140.833 88.364 
	 139.004 87.1285 142.662 74.7724 145.222 76.6259 144.125 90.2174 
	 142.296 88.9818 142.662 86.5107 142.662 86.5107 142.662 86.5107 
	 142.662 86.5107 142.662 86.5107 142.662 86.5107 "
	 style=" stroke:#000000; stroke-width:1; fill:#ffff00; fill-opacity:100%"></polygon>
	<polygon points="146.759 84.5741 145.665 90.7618 143.841 90.1426 
	 146.028 77.1487 147.852 77.7669 147.852 84.5741 148.947 78.3859 
	 150.406 79.0051 148.217 92.0004 146.759 91.3811 146.759 84.5741 
	 146.759 84.5741 146.759 84.5741 146.759 84.5741 146.759 84.5741 146.759 84.5741 "
	 style=" stroke:#000000; stroke-width:1; fill:#ffff00; fill-opacity:100%"></polygon>
	<polygon points="151.595 91.3033 153.419 80.7644 155.243 81.3841 
	 153.419 92.5419 151.96 93.7819 149.772 93.1626 148.678 90.6826 
	 150.867 79.5249 152.689 80.1442 150.867 90.6826 151.595 91.3033 
	 151.595 91.3033 151.595 91.3033 151.595 91.3033 151.595 91.3033 151.595 91.3033 "
	 style=" stroke:#000000; stroke-width:1; fill:#ffff00; fill-opacity:100%"></polygon>
	<polygon points="156.128 93.6592 155.027 93.04 154.659 95.5141 
	 152.824 94.277 156.128 81.9012 158.697 83.1384 157.597 96.7526 
	 155.761 96.1333 156.128 93.6592 156.128 93.6592 156.128 93.6592 
	 156.128 93.6592 156.128 93.6592 156.128 93.6592 "
	 style=" stroke:#000000; stroke-width:1; fill:#ffff00; fill-opacity:100%"></polygon>
	<polygon points="159.922 84.2772 161.808 84.8967 159.922 95.4348 
	 161.43 96.0555 161.053 98.5341 157.661 97.2941 159.922 84.2772 
	 159.922 84.2772 159.922 84.2772 159.922 84.2772 159.922 84.2772 159.922 84.2772 "
	 style=" stroke:#000000; stroke-width:1; fill:#ffff00; fill-opacity:100%"></polygon>
	<polygon points="155.588 65.3664 154.667 64.6732 154.206 68.1389 
	 155.127 68.8316 155.588 65.3664 155.588 65.3664 155.588 65.3664 
	 155.588 65.3664 155.588 65.3664 155.588 65.3664 "
	 style=" stroke:#000000; stroke-width:1; fill:#ffffff; fill-opacity:100%"></polygon>
	<polygon points="143.495 78.3365 141.767 83.6167 143.064 84.2769 
	 143.495 78.3365 143.495 78.3365 143.495 78.3365 143.495 78.3365 
	 143.495 78.3365 143.495 78.3365 143.495 78.3365 "
	 style=" stroke:#000000; stroke-width:1; fill:#ffffff; fill-opacity:100%"></polygon>
	<polygon points="156.883 84.871 155.588 90.7514 156.452 91.405 
	 157.316 85.5245 156.883 84.871 156.883 84.871 156.883 84.871 
	 156.883 84.871 156.883 84.871 156.883 84.871 "
	 style=" stroke:#000000; stroke-width:1; fill:#ffffff; fill-opacity:100%"></polygon>
	<polygon points="156.427 113.98 156.822 114.607 157.217 115.86 
	 157.612 117.742 158.007 119.624 158.007 121.505 158.007 123.386 
	 157.217 124.639 156.033 125.267 155.243 124.639 155.243 124.012 
	 155.243 122.76 155.243 121.505 155.638 119.624 156.033 118.37 
	 156.033 115.86 156.427 113.98 156.427 113.98 156.427 113.98 
	 156.427 113.98 156.427 113.98 156.427 113.98 "
	 style=" stroke:#ffffff; stroke-width:1; fill:#ffffff; fill-opacity:100%"></polygon>
	<polygon points="151.421 107.457 149.644 106.851 148.22 106.851 
	 146.442 107.457 145.73 108.063 145.019 108.667 144.664 109.274 
	 143.952 109.878 143.241 111.09 142.529 112.3 142.174 113.512 
	 141.463 114.723 141.107 115.934 140.751 117.145 140.396 118.355 
	 140.04 120.171 140.04 121.383 140.04 122.593 140.04 124.412 
	 140.04 125.62 140.04 127.438 140.396 128.649 140.751 129.86 
	 141.107 131.071 141.463 132.887 142.174 134.097 142.886 134.705 
	 143.597 135.915 144.664 137.126 145.73 138.335 144.664 135.915 
	 144.308 134.097 143.952 132.281 143.597 130.464 143.597 128.649 
	 143.241 127.438 143.597 125.62 143.597 124.412 143.952 123.2 
	 144.308 121.989 144.664 120.778 145.019 119.567 145.375 118.355 
	 146.087 117.749 147.154 115.934 148.22 114.723 149.288 113.512 
	 150.355 112.3 151.421 111.09 151.777 109.878 152.134 109.274 
	 152.134 108.063 151.421 107.457 151.421 107.457 151.421 107.457 
	 151.421 107.457 151.421 107.457 151.421 107.457 "
	 style=" stroke:#ffffff; stroke-width:1; fill:#ffffff; fill-opacity:100%"></polygon>
	<polygon points="191.824 150.216 191.824 150.852 192.212 152.119 
	 192.212 154.019 192.212 155.921 191.824 157.821 191.435 159.088 
	 190.658 159.724 189.881 159.724 189.103 159.088 189.103 158.455 
	 189.103 157.821 189.491 156.554 190.269 155.286 190.658 154.019 
	 191.435 152.119 191.824 150.216 191.824 150.216 191.824 150.216 
	 191.824 150.216 191.824 150.216 191.824 150.216 "
	 style=" stroke:#ffffff; stroke-width:1; fill:#ffffff; fill-opacity:100%"></polygon>
	<polygon points="188.402 141.943 187.337 140.725 185.917 140.119 
	 184.496 140.119 183.075 140.119 181.655 141.334 180.945 141.943 
	 180.235 142.55 179.88 143.157 179.17 144.374 178.459 144.982 
	 178.104 146.197 177.394 146.806 177.039 148.022 176.684 149.236 
	 176.329 150.453 176.329 151.667 175.974 152.883 175.974 154.101 
	 175.974 155.315 175.974 157.14 175.974 158.355 176.329 159.571 
	 176.684 160.786 177.039 162.002 177.749 163.825 178.459 165.041 
	 179.17 166.256 178.814 163.825 178.459 162.002 178.459 160.177 
	 178.459 158.355 178.459 157.14 178.814 155.923 179.17 154.707 
	 179.17 153.492 179.88 152.276 180.235 151.667 180.59 150.453 
	 181.3 149.844 181.655 149.236 182.365 148.629 183.075 148.022 
	 183.43 148.022 184.852 146.806 185.917 146.197 186.982 145.59 
	 188.047 145.59 188.402 144.982 188.757 143.765 188.757 143.157 
	 188.402 141.943 188.402 141.943 188.402 141.943 188.402 141.943 
	 188.402 141.943 188.402 141.943 "
	 style=" stroke:#ffffff; stroke-width:1; fill:#ffffff; fill-opacity:100%"></polygon>
	<polygon points="130.711 194.27 157.259 239.921 161.101 232.712 
	 161.451 232.712 161.451 232.111 161.8 231.511 162.149 230.91 
	 162.149 230.308 162.149 229.71 162.499 229.109 162.499 228.508 
	 162.499 227.908 162.499 227.306 162.149 226.705 162.149 226.107 
	 161.8 225.505 161.451 224.303 161.451 223.703 161.101 223.102 
	 160.403 222.5 140.841 188.264 140.841 188.264 140.492 187.663 
	 140.142 187.063 139.794 187.063 139.444 186.461 139.094 186.461 
	 138.746 186.461 138.046 185.86 137.698 185.86 137.348 185.86 
	 136.998 185.86 136.65 185.86 136.3 185.86 135.95 186.461 
	 135.602 186.461 135.252 187.063 134.902 187.063 130.711 194.27 
	 130.711 194.27 130.711 194.27 130.711 194.27 130.711 194.27 130.711 194.27 "
	 style=" stroke:#ababab; stroke-width:1; fill:#ffffff; fill-opacity:100%"></polygon>
	<polygon points="132.093 195.531 154.788 234.573 156.185 231.571 
	 158.28 234.573 165.262 222.56 140.822 180.514 132.093 195.531 
	 132.093 195.531 132.093 195.531 132.093 195.531 132.093 195.531 132.093 195.531 "
	 style=" stroke:#000000; stroke-width:1; fill:#000000; fill-opacity:100%"></polygon>
	<polygon points="130.498 190.612 159.388 240.283 140.941 272 
	 112.399 222.33 130.498 190.612 130.498 190.612 130.498 190.612 
	 130.498 190.612 130.498 190.612 130.498 190.612 "
	 style=" stroke:#000000; stroke-width:1; fill:#ffffff; fill-opacity:100%"></polygon>
	<polyline points="164.572 222.692 141.165 181.702 133.129 195.567"
	 style=" stroke:#ababab; stroke-width:1;"></polyline>
	<polygon points="141.234 183.485 147.987 195.094 142.301 204.871 
	 135.548 193.26 141.234 183.485 141.234 183.485 141.234 183.485 
	 141.234 183.485 141.234 183.485 141.234 183.485 "
	 style=" stroke:#ffffff; stroke-width:1; fill:#000000; fill-opacity:100%"></polygon>
	<polygon points="143.841 190.019 137.621 193.146 142.377 201.9 
	 143.841 190.019 143.841 190.019 143.841 190.019 143.841 190.019 
	 143.841 190.019 143.841 190.019 "
	 style=" stroke:#ab0202; stroke-width:1; fill:#ab0202; fill-opacity:100%"></polygon>
	<polygon points="144.531 190.019 137.621 193.139 142.713 202.494 
	 144.531 190.019 144.531 190.019 144.531 190.019 144.531 190.019 
	 144.531 190.019 144.531 190.019 "
	 style=" stroke:#ff0000; stroke-width:1; fill:#ff0000; fill-opacity:100%"></polygon>
	<polygon points="144.877 190.612 138.313 192.488 142.689 202.494 
	 144.877 190.612 144.877 190.612 144.877 190.612 144.877 190.612 
	 144.877 190.612 144.877 190.612 "
	 style=" stroke:#ff00ab; stroke-width:1; fill:#ff00ab; fill-opacity:100%"></polygon>
	<polygon points="143.495 200.118 143.092 200.118 142.689 200.118 
	 142.689 199.471 142.285 199.471 142.285 199.471 141.883 199.471 
	 141.883 198.821 141.479 198.821 141.479 198.174 141.479 197.526 
	 141.077 197.526 141.077 196.877 141.077 196.229 141.077 196.229 
	 141.077 195.581 141.077 195.581 141.077 194.934 141.077 194.934 
	 141.479 194.285 141.479 193.637 141.479 193.637 141.883 192.989 
	 141.883 192.989 142.285 192.989 141.883 192.989 141.883 193.637 
	 141.883 194.285 141.479 194.934 141.479 195.581 141.479 196.229 
	 141.479 196.229 141.883 197.526 141.883 198.174 142.285 198.174 
	 142.689 198.174 142.689 198.821 143.092 198.821 143.495 198.821 
	 143.495 199.471 143.495 200.118 143.495 200.118 143.495 200.118 
	 143.495 200.118 143.495 200.118 143.495 200.118 "
	 style=" stroke:#ffab00; stroke-width:1; fill:#ffab00; fill-opacity:100%"></polygon>
	<polygon points="142.545 192.445 142.919 191.802 143.293 191.802 
	 144.042 191.802 144.416 191.802 144.79 191.802 145.165 192.445 
	 145.539 193.088 145.914 193.733 145.914 194.376 145.914 195.019 
	 145.914 195.664 145.914 196.95 145.914 197.593 145.539 198.237 
	 145.165 198.881 144.79 199.524 144.416 199.524 144.042 199.524 
	 143.668 199.524 143.293 199.524 142.919 199.524 142.545 198.881 
	 142.17 198.237 141.797 197.593 141.422 196.95 141.422 196.307 
	 141.422 195.019 141.422 194.376 141.797 193.733 141.797 193.088 
	 142.17 192.445 142.545 192.445 142.545 192.445 142.545 192.445 
	 142.545 192.445 142.545 192.445 142.545 192.445 "
	 style=" stroke:#000000; stroke-width:1; fill:#ffff00; fill-opacity:100%"></polygon>
	<polygon points="145.223 193.057 144.839 192.395 144.455 192.395 
	 144.071 192.395 143.687 192.395 143.303 192.395 142.919 192.395 
	 142.919 193.057 142.535 193.057 142.152 193.715 142.152 194.376 
	 141.767 195.037 141.767 195.695 141.767 196.356 141.767 197.016 
	 141.767 197.676 142.152 198.335 142.152 197.016 142.152 196.356 
	 142.535 195.695 142.535 195.037 142.919 195.037 143.303 194.376 
	 143.303 194.376 143.687 194.376 144.071 193.715 144.455 193.715 
	 144.839 193.715 144.839 193.715 144.839 193.715 144.839 193.715 
	 145.223 193.057 145.223 193.057 145.223 193.057 145.223 193.057 
	 145.223 193.057 145.223 193.057 "
	 style=" stroke:#ffffff; stroke-width:1; fill:#ffffff; fill-opacity:100%"></polygon>
	<polygon points="145.453 194.771 145.914 195.516 145.453 196.258 
	 145.453 197 145.453 197 145.453 197.741 144.992 197.741 
	 144.992 197.741 144.531 197 144.992 197 144.992 196.258 
	 145.453 196.258 145.453 195.516 145.453 194.771 145.453 194.771 
	 145.453 194.771 145.453 194.771 145.453 194.771 145.453 194.771 "
	 style=" stroke:#ffffff; stroke-width:1; fill:#ffffff; fill-opacity:100%"></polygon>
	<polygon points="117.927 196.693 148.985 232.198 152.126 223.772 
	 152.126 223.772 152.476 223.17 152.476 222.569 152.824 221.968 
	 152.824 221.365 152.824 220.764 152.824 220.162 152.824 219.56 
	 152.824 218.357 152.476 217.756 152.476 217.153 152.126 216.551 
	 151.777 215.95 151.777 215.95 151.079 215.347 150.731 214.746 
	 150.381 214.145 127 187.064 127 187.064 126.652 187.064 
	 126.302 186.463 125.953 186.463 125.255 186.463 124.907 185.86 
	 124.557 185.86 124.208 185.86 123.86 185.86 123.51 185.86 
	 123.161 186.463 122.812 186.463 122.464 187.064 122.115 187.064 
	 121.766 187.666 121.417 187.666 121.068 188.267 117.927 196.693 
	 117.927 196.693 117.927 196.693 117.927 196.693 117.927 196.693 117.927 196.693 "
	 style=" stroke:#ababab; stroke-width:1; fill:#ffffff; fill-opacity:100%"></polygon>
	<polygon points="119.309 197.37 145.825 227.445 147.221 224.437 
	 149.315 226.843 154.897 212.408 126.287 179.326 119.309 197.37 
	 119.309 197.37 119.309 197.37 119.309 197.37 119.309 197.37 119.309 197.37 "
	 style=" stroke:#000000; stroke-width:1; fill:#000000; fill-opacity:100%"></polygon>
	<polygon points="117.339 192.989 151.096 231.905 137.175 269.623 
	 103.07 230.708 117.339 192.989 117.339 192.989 117.339 192.989 
	 117.339 192.989 117.339 192.989 117.339 192.989 "
	 style=" stroke:#000000; stroke-width:1; fill:#ffffff; fill-opacity:100%"></polygon>
	<polyline points="154.206 212.593 126.28 180.514 120.346 196.857"
	 style=" stroke:#ababab; stroke-width:1;"></polyline>
	<polygon points="127.033 182.296 134.857 191.469 130.589 203.089 
	 122.764 193.915 127.033 182.296 127.033 182.296 127.033 182.296 
	 127.033 182.296 127.033 182.296 127.033 182.296 "
	 style=" stroke:#ffffff; stroke-width:1; fill:#000000; fill-opacity:100%"></polygon>
	<polygon points="130.365 188.237 124.146 193.866 130.365 200.118 
	 130.365 188.237 130.365 188.237 130.365 188.237 130.365 188.237 
	 130.365 188.237 130.365 188.237 "
	 style=" stroke:#ab0202; stroke-width:1; fill:#ab0202; fill-opacity:100%"></polygon>
	<polygon points="130.711 187.643 124.492 193.257 130.345 200.118 
	 130.711 187.643 130.711 187.643 130.711 187.643 130.711 187.643 
	 130.711 187.643 130.711 187.643 "
	 style=" stroke:#ff0000; stroke-width:1; fill:#ff0000; fill-opacity:100%"></polygon>
	<polygon points="131.402 188.237 124.837 192.615 130.673 200.118 
	 131.402 188.237 131.402 188.237 131.402 188.237 131.402 188.237 
	 131.402 188.237 131.402 188.237 "
	 style=" stroke:#ff00ab; stroke-width:1; fill:#ff00ab; fill-opacity:100%"></polygon>
	<polygon points="130.711 198.335 130.711 198.335 130.308 198.335 
	 130.308 198.335 129.904 198.335 129.502 197.688 129.502 197.688 
	 129.098 197.688 129.098 197.04 128.696 197.04 128.696 196.392 
	 128.696 196.392 128.292 195.743 128.292 195.095 128.292 195.095 
	 128.292 194.448 128.292 194.448 128.292 193.8 128.292 193.151 
	 128.292 193.151 128.292 192.503 128.292 192.503 128.292 191.855 
	 128.696 191.855 128.696 191.208 128.696 191.855 128.696 192.503 
	 128.696 193.151 128.696 193.151 128.696 193.8 128.696 194.448 
	 128.696 195.095 129.098 195.743 129.502 196.392 129.502 196.392 
	 129.904 197.04 130.308 197.04 130.308 197.04 130.711 197.04 
	 130.711 197.688 130.711 198.335 130.711 198.335 130.711 198.335 
	 130.711 198.335 130.711 198.335 130.711 198.335 "
	 style=" stroke:#ffab00; stroke-width:1; fill:#ffab00; fill-opacity:100%"></polygon>
	<polygon points="129.037 190.705 129.409 190.065 129.78 189.425 
	 130.525 189.425 130.896 189.425 131.269 189.425 131.641 190.065 
	 132.013 190.065 132.386 190.705 132.758 191.344 132.758 191.984 
	 133.129 192.624 133.129 193.905 132.758 194.543 132.758 195.184 
	 132.386 195.824 132.386 196.464 132.013 197.104 131.269 197.104 
	 130.896 197.741 130.525 197.741 130.153 197.104 129.78 197.104 
	 129.409 197.104 129.037 196.464 128.664 195.824 128.664 194.543 
	 128.292 193.905 128.292 193.264 128.664 192.624 128.664 191.984 
	 129.037 191.344 129.037 190.705 129.037 190.705 129.037 190.705 
	 129.037 190.705 129.037 190.705 129.037 190.705 "
	 style=" stroke:#000000; stroke-width:1; fill:#ffff00; fill-opacity:100%"></polygon>
	<polygon points="131.748 190.672 131.359 190.019 130.97 190.019 
	 130.581 190.019 130.581 190.019 130.193 190.672 129.804 190.672 
	 129.416 191.327 129.416 191.98 129.027 191.98 129.027 192.633 
	 128.637 193.287 128.637 193.939 128.637 194.593 129.027 195.246 
	 129.416 195.902 129.416 196.554 129.416 195.902 129.416 194.593 
	 129.416 193.939 129.416 193.287 129.804 193.287 130.193 192.633 
	 130.193 191.98 130.581 191.98 130.97 191.98 131.359 191.98 
	 131.359 191.327 131.748 191.327 131.748 191.327 131.748 190.672 
	 131.748 190.672 131.748 190.672 131.748 190.672 131.748 190.672 
	 131.748 190.672 131.748 190.672 "
	 style=" stroke:#ffffff; stroke-width:1; fill:#ffffff; fill-opacity:100%"></polygon>
	<polygon points="132.266 192.395 132.784 193.188 132.784 193.188 
	 132.784 193.981 132.784 194.771 132.266 194.771 132.266 194.771 
	 131.748 194.771 131.748 194.771 131.748 194.771 131.748 193.981 
	 132.266 193.981 132.266 193.188 132.266 193.188 132.266 192.395 
	 132.266 192.395 132.266 192.395 132.266 192.395 132.266 192.395 132.266 192.395 "
	 style=" stroke:#ffffff; stroke-width:1; fill:#ffffff; fill-opacity:100%"></polygon>
	<polygon points="107.216 202.687 141.05 229.227 143.492 220.179 
	 143.492 220.179 143.492 219.576 143.841 218.973 143.841 217.768 
	 143.841 217.165 143.841 216.559 143.841 215.956 143.841 215.353 
	 143.492 214.75 143.492 214.148 143.143 213.543 142.794 212.94 
	 142.445 212.94 142.097 212.338 141.748 211.735 141.399 211.132 
	 140.701 211.132 115.588 190.621 115.238 190.621 114.89 190.621 
	 114.541 190.621 114.192 190.019 113.843 190.019 113.146 190.019 
	 112.797 190.019 112.448 190.019 112.099 190.621 111.75 190.621 
	 111.402 190.621 111.053 191.226 110.704 191.83 110.355 191.83 
	 110.007 192.433 109.658 193.036 109.658 193.64 107.216 202.687 
	 107.216 202.687 107.216 202.687 107.216 202.687 107.216 202.687 107.216 202.687 "
	 style=" stroke:#ababab; stroke-width:1; fill:#ffffff; fill-opacity:100%"></polygon>
	<polygon points="108.944 202.767 137.899 225.662 138.598 222.049 
	 141.04 223.856 144.878 208.188 113.828 183.485 108.944 202.767 
	 108.944 202.767 108.944 202.767 108.944 202.767 108.944 202.767 108.944 202.767 "
	 style=" stroke:#000000; stroke-width:1; fill:#000000; fill-opacity:100%"></polygon>
	<polygon points="106.258 199.524 143.15 228.285 132.708 269.029 
	 95.4684 239.669 106.258 199.524 106.258 199.524 106.258 199.524 
	 106.258 199.524 106.258 199.524 106.258 199.524 "
	 style=" stroke:#000000; stroke-width:1; fill:#ffffff; fill-opacity:100%"></polygon>
	<polyline points="144.531 208.435 114.171 184.672 109.635 202.341"
	 style=" stroke:#ababab; stroke-width:1;"></polyline>
	<polygon points="114.911 186.454 123.455 193.202 120.251 205.464 
	 111.708 198.72 114.911 186.454 114.911 186.454 114.911 186.454 
	 114.911 186.454 114.911 186.454 114.911 186.454 "
	 style=" stroke:#ffffff; stroke-width:1; fill:#000000; fill-opacity:100%"></polygon>
	<polygon points="118.56 190.612 113.09 198.097 119.654 203.089 
	 118.56 190.612 118.56 190.612 118.56 190.612 118.56 190.612 
	 118.56 190.612 118.56 190.612 "
	 style=" stroke:#ab0202; stroke-width:1; fill:#ab0202; fill-opacity:100%"></polygon>
	<polygon points="118.906 190.612 113.435 197.475 120 203.089 
	 118.906 190.612 118.906 190.612 118.906 190.612 118.906 190.612 
	 118.906 190.612 118.906 190.612 "
	 style=" stroke:#ff0000; stroke-width:1; fill:#ff0000; fill-opacity:100%"></polygon>
	<polygon points="119.634 190.612 113.781 196.851 120 203.089 
	 119.634 190.612 119.634 190.612 119.634 190.612 119.634 190.612 
	 119.634 190.612 119.634 190.612 "
	 style=" stroke:#ff00ab; stroke-width:1; fill:#ff00ab; fill-opacity:100%"></polygon>
	<polygon points="120 200.712 119.611 200.712 119.611 200.712 
	 119.222 200.712 119.222 200.712 118.834 200.712 118.834 200.06 
	 118.445 200.06 118.057 200.06 118.057 199.405 117.668 199.405 
	 117.668 199.405 117.279 198.751 117.279 198.097 117.279 198.097 
	 117.279 198.097 116.89 197.445 116.89 196.792 116.89 196.792 
	 116.89 196.138 116.89 196.138 116.89 195.486 117.279 194.831 
	 117.279 194.831 117.279 194.177 117.279 194.831 117.279 195.486 
	 117.279 196.138 117.279 196.792 117.279 197.445 117.668 197.445 
	 117.668 198.097 118.057 198.751 118.445 199.405 118.834 199.405 
	 118.834 199.405 119.222 199.405 119.611 199.405 120 199.405 
	 120 200.06 120 200.712 120 200.712 120 200.712 
	 120 200.712 120 200.712 120 200.712 "
	 style=" stroke:#ffab00; stroke-width:1; fill:#ffab00; fill-opacity:100%"></polygon>
	<polygon points="117.61 193.721 117.985 193.08 118.359 192.442 
	 118.733 192.442 119.107 191.802 119.856 191.802 120.23 192.442 
	 120.605 192.442 120.979 193.08 121.353 193.721 121.728 194.361 
	 121.728 195.001 121.728 195.64 121.728 196.28 121.728 196.92 
	 121.728 198.201 121.353 198.838 120.979 199.478 120.605 199.478 
	 120.23 199.478 119.856 200.118 119.482 200.118 118.733 199.478 
	 118.359 199.478 117.985 199.478 117.61 198.838 117.61 198.201 
	 117.236 196.92 117.236 196.28 117.236 195.64 117.236 195.001 
	 117.61 194.361 117.61 193.721 117.61 193.721 117.61 193.721 
	 117.61 193.721 117.61 193.721 117.61 193.721 "
	 style=" stroke:#000000; stroke-width:1; fill:#ffff00; fill-opacity:100%"></polygon>
	<polygon points="120.346 193.043 119.951 192.395 119.556 192.395 
	 119.161 192.395 118.766 193.043 118.766 193.043 118.371 193.691 
	 117.976 194.34 117.976 194.34 117.581 194.988 117.581 195.635 
	 117.581 196.283 117.581 196.931 117.581 197.58 117.976 198.228 
	 118.371 198.877 118.766 199.524 118.371 198.228 118.371 197.58 
	 118.371 196.931 118.371 196.283 118.371 195.635 118.766 195.635 
	 119.161 194.988 119.161 194.34 119.556 194.34 119.951 194.34 
	 119.951 193.691 120.346 193.691 120.346 193.691 120.346 193.043 
	 120.346 193.043 120.346 193.043 120.346 193.043 120.346 193.043 
	 120.346 193.043 120.346 193.043 "
	 style=" stroke:#ffffff; stroke-width:1; fill:#ffffff; fill-opacity:100%"></polygon>
	<polygon points="121.21 194.177 121.21 194.919 121.21 195.664 
	 121.728 195.664 121.728 196.406 121.21 197.148 121.21 197.148 
	 120.691 197.148 120.691 197.148 120.691 196.406 120.691 196.406 
	 120.691 195.664 121.21 195.664 121.21 194.919 121.21 194.177 
	 121.21 194.177 121.21 194.177 121.21 194.177 121.21 194.177 121.21 194.177 "
	 style=" stroke:#ffffff; stroke-width:1; fill:#ffffff; fill-opacity:100%"></polygon>
	<polygon points="102.379 217.169 139.342 223.881 140.04 213.509 
	 140.04 212.899 140.04 212.899 140.04 211.68 139.691 211.069 
	 139.691 210.457 139.691 209.847 139.342 209.237 139.342 208.628 
	 138.994 208.018 138.645 208.018 138.297 207.407 137.947 207.407 
	 137.598 206.797 137.25 206.797 136.901 206.187 136.204 206.187 
	 135.507 206.187 107.958 201.306 107.61 201.306 107.61 201.306 
	 107.261 201.306 106.563 201.306 106.215 201.306 105.866 201.916 
	 105.517 201.916 104.82 202.528 104.82 202.528 104.471 203.135 
	 104.122 203.747 103.774 203.747 103.425 204.357 103.425 204.968 
	 103.076 205.578 103.076 206.187 103.076 206.797 102.379 217.169 
	 102.379 217.169 102.379 217.169 102.379 217.169 102.379 217.169 102.379 217.169 "
	 style=" stroke:#ababab; stroke-width:1; fill:#ffffff; fill-opacity:100%"></polygon>
	<polygon points="103.761 216.025 135.514 222.098 135.863 217.847 
	 137.957 218.454 139.004 200.844 105.156 194.771 103.761 216.025 
	 103.761 216.025 103.761 216.025 103.761 216.025 103.761 216.025 103.761 216.025 "
	 style=" stroke:#000000; stroke-width:1; fill:#000000; fill-opacity:100%"></polygon>
	<polygon points="100.671 214.375 141.422 221.588 138.636 266.059 
	 98.2325 258.847 100.671 214.375 100.671 214.375 100.671 214.375 
	 100.671 214.375 100.671 214.375 100.671 214.375 "
	 style=" stroke:#000000; stroke-width:1; fill:#ffffff; fill-opacity:100%"></polygon>
	<polyline points="138.658 201.474 105.499 195.96 104.452 215.564"
	 style=" stroke:#ababab; stroke-width:1;"></polyline>
	<polygon points="106.549 197.148 116.199 199.002 115.127 212.593 
	 105.834 210.74 106.549 197.148 106.549 197.148 106.549 197.148 
	 106.549 197.148 106.549 197.148 106.549 197.148 "
	 style=" stroke:#ffffff; stroke-width:1; fill:#000000; fill-opacity:100%"></polygon>
	<polygon points="110.853 198.929 107.216 208.963 114.126 210.217 
	 110.853 198.929 110.853 198.929 110.853 198.929 110.853 198.929 
	 110.853 198.929 110.853 198.929 "
	 style=" stroke:#ab0202; stroke-width:1; fill:#ab0202; fill-opacity:100%"></polygon>
	<polygon points="111.207 198.929 107.216 208.335 114.472 210.217 
	 111.207 198.929 111.207 198.929 111.207 198.929 111.207 198.929 
	 111.207 198.929 111.207 198.929 "
	 style=" stroke:#ff0000; stroke-width:1; fill:#ff0000; fill-opacity:100%"></polygon>
	<polygon points="111.926 198.335 107.562 207.716 114.472 210.217 
	 111.926 198.335 111.926 198.335 111.926 198.335 111.926 198.335 
	 111.926 198.335 111.926 198.335 "
	 style=" stroke:#ff00ab; stroke-width:1; fill:#ff00ab; fill-opacity:100%"></polygon>
	<polygon points="114.126 207.768 113.746 208.435 113.746 208.435 
	 113.366 208.435 113.366 208.435 112.986 208.435 112.606 208.435 
	 112.606 208.435 112.226 208.435 111.846 208.435 111.846 208.435 
	 111.466 207.768 111.466 207.768 111.086 207.098 111.086 207.098 
	 110.706 207.098 110.706 206.429 110.706 206.429 110.325 205.762 
	 110.325 205.762 110.325 205.093 110.325 204.426 110.325 204.426 
	 110.325 203.756 110.325 203.089 110.706 203.756 110.706 204.426 
	 110.706 205.093 110.706 205.762 111.086 205.762 111.086 206.429 
	 111.466 206.429 111.846 207.098 112.226 207.768 112.606 207.768 
	 112.986 207.768 113.366 207.098 113.366 207.098 113.746 207.098 
	 113.746 207.098 114.126 207.768 114.126 207.768 114.126 207.768 
	 114.126 207.768 114.126 207.768 114.126 207.768 "
	 style=" stroke:#ffab00; stroke-width:1; fill:#ffab00; fill-opacity:100%"></polygon>
	<polygon points="110.698 202.723 110.698 201.444 111.07 200.803 
	 111.442 200.803 111.814 200.163 112.186 200.163 112.558 199.524 
	 113.302 199.524 113.674 200.163 114.046 200.163 114.419 200.803 
	 114.791 201.444 114.791 202.084 115.163 202.723 115.163 204.003 
	 115.163 204.643 115.163 205.283 114.791 205.921 114.419 206.561 
	 114.046 207.201 113.674 207.841 113.302 207.841 112.93 207.841 
	 112.558 207.841 111.814 207.841 111.442 207.201 111.07 206.561 
	 110.698 205.921 110.698 205.283 110.325 204.643 110.325 204.003 
	 110.325 203.363 110.698 202.723 110.698 202.723 110.698 202.723 
	 110.698 202.723 110.698 202.723 110.698 202.723 "
	 style=" stroke:#000000; stroke-width:1; fill:#ffff00; fill-opacity:100%"></polygon>
	<polygon points="113.09 200.118 112.675 200.118 112.26 200.766 
	 111.846 200.766 111.431 201.414 111.431 201.414 111.017 202.061 
	 111.017 202.711 111.017 203.358 111.017 204.006 111.017 204.654 
	 111.017 205.303 111.017 205.951 111.431 206.598 111.846 206.598 
	 112.26 207.247 112.675 207.247 112.26 206.598 111.846 205.951 
	 111.846 205.303 111.846 204.654 111.846 204.006 111.846 203.358 
	 112.26 203.358 112.26 202.711 112.675 202.061 112.675 202.061 
	 113.09 201.414 113.09 201.414 113.09 200.766 113.09 200.766 
	 113.09 200.118 113.09 200.118 113.09 200.118 113.09 200.118 
	 113.09 200.118 113.09 200.118 "
	 style=" stroke:#ffffff; stroke-width:1; fill:#ffffff; fill-opacity:100%"></polygon>
	<polygon points="113.781 201.306 114.299 201.306 114.299 202.048 
	 114.817 202.791 114.817 202.791 114.817 203.535 114.817 203.535 
	 114.299 204.277 114.299 203.535 113.781 203.535 113.781 203.535 
	 114.299 202.791 114.299 202.048 114.299 202.048 113.781 201.306 
	 113.781 201.306 113.781 201.306 113.781 201.306 113.781 201.306 113.781 201.306 "
	 style=" stroke:#ffffff; stroke-width:1; fill:#ffffff; fill-opacity:100%"></polygon>
      </g>
      <polyline points="864 304 880 320"
       style=" stroke:#000000; stroke-width:1;"></polyline>
    </g>
  </symbol>
 </defs>
</svg>
