<?xml version="1.0" encoding="UTF-8" standalone="no"?>
<svg
   xmlns:dc="http://purl.org/dc/elements/1.1/"
   xmlns:cc="http://creativecommons.org/ns#"
   xmlns:rdf="http://www.w3.org/1999/02/22-rdf-syntax-ns#"
   xmlns:svg="http://www.w3.org/2000/svg"
   xmlns="http://www.w3.org/2000/svg"
   xmlns:xlink="http://www.w3.org/1999/xlink"
   xmlns:sodipodi="http://sodipodi.sourceforge.net/DTD/sodipodi-0.dtd"
   xmlns:inkscape="http://www.inkscape.org/namespaces/inkscape"
   id="svg2"
   enable-background="new 21.027 45.083 219 219"
   xml:space="preserve"
   height="219px"
   width="219px"
   version="1.1"
   y="0px"
   x="0px"
   viewBox="21.027 45.083 219 219"
   inkscape:version="0.47 r22583"
   sodipodi:docname="applicationserver.svg"><sodipodi:namedview
   pagecolor="#ffffff"
   bordercolor="#666666"
   borderopacity="1"
   objecttolerance="10"
   gridtolerance="10"
   guidetolerance="10"
   inkscape:pageopacity="0"
   inkscape:pageshadow="2"
   inkscape:window-width="640"
   inkscape:window-height="493"
   id="namedview68"
   showgrid="false"
   inkscape:zoom="1.0776256"
   inkscape:cx="109.5"
   inkscape:cy="109.5"
   inkscape:window-x="21"
   inkscape:window-y="571"
   inkscape:window-maximized="0"
   inkscape:current-layer="svg2" /><metadata
   id="metadata332"><rdf:RDF><cc:Work
       rdf:about=""><dc:format>image/svg+xml</dc:format><dc:type
         rdf:resource="http://purl.org/dc/dcmitype/StillImage" /><dc:title /></cc:Work></rdf:RDF></metadata>
<defs
   id="defs4"><filter
     id="filter4145"><feGaussianBlur
       id="feGaussianBlur4147"
       stdDeviation="1.2777221" /></filter><radialGradient
     id="radialGradient3909"
     gradientUnits="userSpaceOnUse"
     cy="240.55"
     cx="129.49"
     gradientTransform="matrix(0.45924015,0.45923983,-0.46422934,0.46422945,180.97442,70.51783)"
     r="11.681"><stop
       id="stop5243"
       stop-color="#FFF"
       offset="0" /><stop
       id="stop5245"
       stop-color="#d97b3b"
       offset="1" /></radialGradient><linearGradient
     id="linearGradient3284-0"
     x1="390.2"
     spreadMethod="reflect"
     gradientUnits="userSpaceOnUse"
     y1="473.8"
     x2="213.74"
     y2="368.66"><stop
       id="stop7187-4"
       stop-color="#6f6f6f"
       offset="0" /><stop
       id="stop7189-9"
       stop-color="#f5f5f5"
       offset="1" /></linearGradient><filter
     id="filter11193-6"
     width="1.6059247"
     y="-0.10228051"
     x="-0.30296236"
     height="1.204561"
     color-interpolation-filters="sRGB"><feGaussianBlur
       id="feGaussianBlur11195-2"
       stdDeviation="18.143585" /></filter><filter
     id="filter11189-8"
     width="1.3552474"
     y="-0.10557931"
     x="-0.17762369"
     height="1.2111586"
     color-interpolation-filters="sRGB"><feGaussianBlur
       id="feGaussianBlur11191-8"
       stdDeviation="18.143585" /></filter><filter
     id="filter11185-1"
     width="1.2640786"
     y="-0.12123133"
     x="-0.13203932"
     height="1.2424628"
     color-interpolation-filters="sRGB"><feGaussianBlur
       id="feGaussianBlur11187-4"
       stdDeviation="18.143585" /></filter><filter
     id="filter11181-2"
     width="1.2171913"
     y="-0.15457135"
     x="-0.10859563"
     height="1.3091427"
     color-interpolation-filters="sRGB"><feGaussianBlur
       id="feGaussianBlur11183-4"
       stdDeviation="18.143585" /></filter><linearGradient
     inkscape:collect="always"
     xlink:href="#linearGradient3284"
     id="linearGradient3708"
     gradientUnits="userSpaceOnUse"
     spreadMethod="reflect"
     x1="390.20001"
     y1="473.79999"
     x2="213.7"
     y2="368.70001"
     gradientTransform="matrix(0.49330515,0,0,0.49330515,-75.823499,-123.84818)" /><linearGradient
     id="linearGradient3284"
     x1="390.20001"
     spreadMethod="reflect"
     gradientUnits="userSpaceOnUse"
     y1="473.79999"
     x2="213.7"
     y2="368.70001"><stop
       stop-color="#6f6f6f"
       offset="0"
       id="stop14" /><stop
       stop-color="#f5f5f5"
       offset="1"
       id="stop16" /></linearGradient><linearGradient
     inkscape:collect="always"
     xlink:href="#linearGradient3664"
     id="linearGradient3688"
     x1="-103.06042"
     y1="167.63292"
     x2="-28.059572"
     y2="123.86324"
     gradientUnits="userSpaceOnUse"
     gradientTransform="translate(181.84722,-37.00117)" /><linearGradient
     id="linearGradient3664"><stop
       style="stop-color:#0000ff;stop-opacity:0;"
       offset="0"
       id="stop3666" /><stop
       id="stop3668"
       offset="0.20762333"
       style="stop-color:#0000ff;stop-opacity:0.09803922;" /><stop
       id="stop3670"
       offset="0.32430306"
       style="stop-color:#00ff00;stop-opacity:0.09803922;" /><stop
       id="stop3672"
       offset="0.49649313"
       style="stop-color:#ffff00;stop-opacity:0.09803922;" /><stop
       id="stop3674"
       offset="0.63897055"
       style="stop-color:#ff0000;stop-opacity:0.09803922;" /><stop
       style="stop-color:#ff0000;stop-opacity:0;"
       offset="1"
       id="stop3676" /></linearGradient><filter
     color-interpolation-filters="sRGB"
     inkscape:collect="always"
     id="filter3714"><feGaussianBlur
       inkscape:collect="always"
       stdDeviation="2.8267969"
       id="feGaussianBlur3716" /></filter><linearGradient
     id="linearGradient5241"><stop
       stop-color="#7c7c7c"
       offset="0"
       id="stop8" /><stop
       stop-color="#c6c6c6"
       offset="1"
       id="stop10" /></linearGradient><linearGradient
     y2="318.84375"
     x2="434.03125"
     y1="423.84375"
     x1="539.03125"
     gradientTransform="translate(-325.92592,-208.96396)"
     gradientUnits="userSpaceOnUse"
     id="linearGradient2923"
     xlink:href="#linearGradient5241"
     inkscape:collect="always" /></defs>
<filter
   id="AI_GaussianBlur_2">
	<feGaussianBlur
   id="feGaussianBlur240"
   stdDeviation="4" />
</filter>
<g
   id="g4020"><path
     id="path276-7"
     opacity="0.5"
     d="m136.23,218.24c-3.0308-0.0318-5.8125,1.1875-5.8125,1.1875s-0.88448,18.149-2.25,19.062c-3.3989,2.2765-5.6579,6.0884-5.8125,10.438-0.31343-2.6302-2.5644-4.6562-5.2812-4.6562h-70.031c-2.9289,0-5.3125,2.3836-5.3125,5.3125,0,2.9326,2.3848,5.2812,5.3125,5.2812h37.562c0.2336,0.0323,0.47636,0.0312,0.71875,0.0312h24.719c0.23628,0,0.45962-0.00078,0.6875-0.0312h6.3438c2.7482,0,5.0094-2.0736,5.2812-4.75,0.3766,6.9222,6.1089,12.469,13.125,12.469,7.2539,0,13.125-5.9312,13.125-13.188,0-3.5213-1.3436-6.8221-3.8438-9.3125-0.74994-0.74506-1.5808-1.4013-2.4688-1.9375-1.2593-0.76581-2-18.844-2-18.844-1.2359-0.76719-2.6849-1.0481-4.0625-1.0625zm24.406,25.688c-0.17985,0-0.35621,0.0134-0.53125,0.0312h-5.75c-2.9314,0-5.3125,2.3499-5.3125,5.2812,0,2.9301,2.3824,5.3125,5.3125,5.3125h70.031c2.9314,0,5.3125-2.3836,5.3125-5.3125,0-2.9314-2.3824-5.2802-5.3125-5.2812h-38.281c-0.17458-0.0178-0.35201-0.0312-0.53125-0.0312h-24.938z"
     filter="url(#filter4145)"
     stroke-miterlimit="4"
     stroke-width="0"
     fill="#000" /><path
     id="path276"
     d="m118.43,244.77c0,2.9314-2.3768,5.307-5.3082,5.307h-70.019c-2.9277,0-5.3045-2.3744-5.3045-5.307,0-2.9289,2.3756-5.3033,5.3045-5.3033h70.021c2.9314,0,5.3082,2.3744,5.3082,5.3033z"
     stroke="#88471a"
     stroke-width="2.44279337"
     fill="#d97b3b" /><path
     id="path278"
     d="m225.75,244.45c0,2.9289-2.3744,5.3033-5.3057,5.3033h-70.02c-2.9301,0-5.3082-2.3732-5.3082-5.3033,0-2.9314,2.3768-5.3082,5.3082-5.3082h70.02c2.9301,0.001,5.3057,2.3768,5.3057,5.3082z"
     stroke="#88471a"
     stroke-width="2.44279337"
     fill="#d97b3b" /><path
     id="path280"
     d="M106.09,239.7h-24.712c-2.8678,0-5.1958,2.3402-5.1958,5.208,0,2.8666,2.328,5.2019,5.1958,5.2019h24.716c2.8788,0,5.2068-2.3353,5.2068-5.2019,0-2.8678-2.3268-5.208-5.2068-5.208z"
     stroke="#88471a"
     stroke-width="2.44279337"
     fill="#d97b3b" /><path
     id="path282"
     d="m181.62,239.11h-24.924c-2.8776,0-5.1946,2.3402-5.1946,5.2056,0,2.8691,2.3158,5.2044,5.1946,5.2044h24.924c2.8691,0,5.1946-2.3353,5.1946-5.2044,0-2.8654-2.3268-5.2056-5.1946-5.2056z"
     stroke="#88471a"
     stroke-width="2.44279337"
     fill="#d97b3b" /><path
     id="path284"
     d="m126.48,214.63s-0.89407,18.133-2.2596,19.046c-3.5213,2.3585-5.8444,6.3769-5.8444,10.92,0,7.2563,5.9042,13.173,13.163,13.173,7.2539,0,13.137-5.9042,13.137-13.161,0-3.5213-1.3521-6.8325-3.8523-9.3229-0.74994-0.74506-1.5768-1.3912-2.4648-1.9274-1.2593-0.76581-2.0153-18.867-2.0153-18.867-3.9549-2.455-9.864,0.13802-9.864,0.13802z"
     stroke="#88471a"
     stroke-width="2.44279337"
     fill="#d97b3b" /><path
     id="path286"
     d="m137.92,234.94c3.1036,2.0984,5.1482,5.6526,5.1482,9.6844,0,6.4539-5.2288,11.683-11.681,11.683-2.4184,0-4.6657-0.73772-6.532-1.997-3.106-2.0971-5.1482-5.6538-5.1482-9.6869,0-6.449,5.2288-11.679,11.679-11.679,2.4196,0.002,4.6682,0.73528,6.5345,1.9958z"
     fill="url(#radialGradient3909)" /></g>
<g
   transform="matrix(0.77021793,0,0,0.77021793,47.533525,49.651114)"
   id="g2870"><path
     id="maindisk"
     d="m 108.08067,4.855128 c -57.914035,0 -104.975345,47.061311 -104.975345,105.024672 0,57.96335 47.03664,105.02466 104.975345,105.02466 57.96335,0 105.02466,-47.05145 105.02466,-105.02466 0,-57.973228 -47.05145,-104.975345 -105.02466,-104.975345 z m 0,78.928818 c 14.39464,0 26.08597,11.676543 26.08597,26.066244 0,14.39465 -11.69133,26.08598 -26.08597,26.08598 -14.394655,0 -26.066245,-11.69133 -26.066245,-26.08598 0,-14.394641 11.67652,-26.066244 26.066245,-26.066244 z"
     style="color:#000000;fill:url(#linearGradient3708)" /><path
     id="whiteouter"
     d="m 108.10533,83.332919 c -14.665937,0 -26.562504,11.896559 -26.562504,26.562501 0,14.66593 11.896567,26.53125 26.562504,26.53125 14.66594,0 26.5625,-11.86532 26.5625,-26.53125 0,-14.665942 -11.89656,-26.562501 -26.5625,-26.562501 z m 0,7.0625 c 10.76956,0 19.5,8.73044 19.5,19.500001 0,10.76956 -8.73044,19.5 -19.5,19.5 -10.769569,0 -19.500004,-8.73044 -19.500004,-19.5 0,-10.769561 8.730435,-19.500001 19.500004,-19.500001 z"
     style="color:#000000;fill:#ffffff;fill-opacity:1;fill-rule:nonzero;stroke:none;stroke-width:1;marker:none;visibility:visible;display:inline;overflow:visible;enable-background:accumulate" /><path
     id="mediumgrey"
     d="m 108.10533,90.879788 c -10.493415,0 -19.000005,8.506601 -19.000005,19.000002 0,10.49342 8.50659,19.00001 19.000005,19.00001 10.49341,0 19,-8.50659 19,-19.00001 0,-10.493401 -8.50659,-19.000002 -19,-19.000002 z m 0,3.437501 c 8.58803,0 15.5625,6.974481 15.5625,15.562501 0,8.58805 -6.97447,15.53126 -15.5625,15.53126 -8.588035,0 -15.531255,-6.94321 -15.531255,-15.53126 0,-8.58802 6.94322,-15.562501 15.531255,-15.562501 z"
     style="color:#000000;fill:#b7b6b6;fill-opacity:1;fill-rule:nonzero;stroke:none;stroke-width:1;marker:none;visibility:visible;display:inline;overflow:visible;enable-background:accumulate" /><path
     id="whiteinner"
     d="m 108.12095,94.317288 c -8.588026,0 -15.562496,6.974482 -15.562496,15.562502 0,8.58805 6.97447,15.56251 15.562496,15.56251 8.58803,0 15.53125,-6.97446 15.53125,-15.56251 0,-8.58802 -6.94322,-15.562502 -15.53125,-15.562502 z m 0,1.21875 c 7.9253,0 14.34375,6.418472 14.34375,14.343752 0,7.92531 -6.41845,14.34376 -14.34375,14.34376 -7.92529,0 -14.343746,-6.41845 -14.343746,-14.34376 0,-7.92528 6.418456,-14.343752 14.343746,-14.343752 z"
     style="color:#000000;fill:#eaeaea;fill-opacity:1;fill-rule:nonzero;stroke:none;stroke-width:1;marker:none;visibility:visible;display:inline;overflow:visible;enable-background:accumulate" /><path
     id="lightgrey"
     d="m 108.0897,95.536038 c -7.92529,0 -14.343746,6.418472 -14.343746,14.343752 0,7.92531 6.418456,14.34376 14.343746,14.34376 7.9253,0 14.375,-6.41845 14.375,-14.34376 0,-7.92528 -6.4497,-14.343752 -14.375,-14.343752 z m 0,5.250002 c 5.02579,0 9.125,4.06797 9.125,9.09375 0,5.02581 -4.09921,9.09376 -9.125,9.09376 -5.02578,0 -9.093746,-4.06795 -9.093746,-9.09376 0,-5.02578 4.067966,-9.09375 9.093746,-9.09375 z"
     style="color:#000000;fill:#dddddd;fill-opacity:1;fill-rule:nonzero;stroke:none;stroke-width:1;marker:none;visibility:visible;display:inline;overflow:visible;enable-background:accumulate" /><path
     id="blackhole"
     d="m 108.0897,100.77042 c -5.0258,0 -9.093746,4.06797 -9.093746,9.09375 0,5.0258 4.067946,9.125 9.093746,9.125 5.02579,0 9.125,-4.0992 9.125,-9.125 0,-5.02578 -4.09922,-9.09375 -9.125,-9.09375 z m 0,1.09375 c 4.41827,0 8,3.58174 8,8 0,4.41828 -3.58173,8 -8,8 -4.41827,0 -8,-3.58172 -8,-8 0,-4.41826 3.58173,-8 8,-8 z"
     style="color:#000000;fill:#3a3a3a;fill-opacity:1;fill-rule:nonzero;stroke:none;stroke-width:1;marker:none;visibility:visible;display:inline;overflow:visible;enable-background:accumulate" /><path
     id="translucentring"
     d="m 108.10533,71.752198 c -21.057301,0 -38.127595,17.070304 -38.127595,38.127602 0,21.05731 17.070294,38.12759 38.127595,38.12759 21.05732,0 38.12759,-17.07028 38.12759,-38.12759 0,-21.057298 -17.07027,-38.127602 -38.12759,-38.127602 z m 0,9.393752 c 15.86929,0 28.73383,12.864636 28.73383,28.73385 0,15.86927 -12.86454,28.73384 -28.73383,28.73384 -15.869286,0 -28.733842,-12.86457 -28.733842,-28.73384 0,-15.869214 12.864556,-28.73385 28.733842,-28.73385 z"
     style="color:#000000;fill:#ffffff;fill-opacity:0.32352941;fill-rule:nonzero;stroke:none;stroke-width:1;marker:none;visibility:visible;display:inline;overflow:visible;enable-background:accumulate" /><path
     id="blackring"
     d="m 108.10533,90.379788 c -10.769575,0 -19.500005,8.730453 -19.500005,19.500012 0,10.76956 8.73043,19.5 19.500005,19.5 10.76955,0 19.5,-8.73044 19.5,-19.5 0,-10.769559 -8.73045,-19.500012 -19.5,-19.500012 z m 0,0.75 c 10.35534,0 18.75,8.39466 18.75,18.750012 0,10.35535 -8.39466,18.75 -18.75,18.75 -10.355364,0 -18.750005,-8.39465 -18.750005,-18.75 0,-10.355352 8.39465,-18.750012 18.750005,-18.750012 z"
     style="color:#000000;fill:#000000;fill-opacity:1;fill-rule:nonzero;stroke:none;stroke-width:1;marker:none;visibility:visible;display:inline;overflow:visible;enable-background:accumulate" /><path
     id="path2856"
     d="M 95.375,6.0762339 C 66.360386,9.5861729 40.950926,24.954697 24.187496,47.201234 L 84.65625,98.888728 c 4.236235,-8.66815 13.144849,-14.65625 23.4375,-14.65625 0.92066,0 1.82256,0.0318 2.71875,0.125 L 95.375,6.0762339 z M 131.0625,122.66998 c -4.40541,8.1564 -13.02936,13.70706 -22.9375,13.71875 l 12.71875,78.1875 c 29.35794,-3.56606 55.00348,-19.24439 71.75,-41.90625 l -61.53125,-50 z"
     style="fill:url(#linearGradient3688);fill-opacity:1;stroke:none;filter:url(#filter3714)" /><path
     id="diskedge"
     d="m 108.07408,4.879788 c -57.963355,0 -104.968755,47.030071 -104.968755,104.968762 0,57.96335 47.03007,105.03125 104.968755,105.03125 57.96335,0 105.03125,-47.05802 105.03125,-105.03125 0,-57.973232 -47.05802,-104.968762 -105.03125,-104.968762 z m 0.0312,5.000001 c 55.22848,0 100,44.77152 100,100.000011 0,55.22847 -44.77152,100 -100,100 -55.228485,0 -100.000005,-44.77153 -100.000005,-100 0,-55.228492 44.77152,-100.000012 100.000005,-100.000012 z"
     style="color:#000000;fill:url(#linearGradient2923);fill-opacity:1;stroke:none;enable-background:accumulate" /></g></svg>