<?xml version="1.0" encoding="UTF-8" standalone="no"?>

<svg
 xmlns:dc="http://purl.org/dc/elements/1.1/"
   xmlns:cc="http://creativecommons.org/ns#"
   xmlns:rdf="http://www.w3.org/1999/02/22-rdf-syntax-ns#"
   xmlns:svg="http://www.w3.org/2000/svg"
   xmlns="http://www.w3.org/2000/svg"
   xmlns:xlink="http://www.w3.org/1999/xlink"
   xmlns:sodipodi="http://sodipodi.sourceforge.net/DTD/sodipodi-0.dtd"
   xmlns:inkscape="http://www.inkscape.org/namespaces/inkscape"
   id="svg2"
   version="1.1"
   inkscape:version="0.47 r22583"
   width="100"
   height="100"
   sodipodi:docname="application_interface.svg">
  <metadata
     id="metadata72">
    <rdf:RDF>
      <cc:Work
         rdf:about="">
        <dc:format>image/svg+xml</dc:format>
        <dc:type
           rdf:resource="http://purl.org/dc/dcmitype/StillImage" />
      </cc:Work>
    </rdf:RDF>
  </metadata>
  <defs
     id="defs70">
    <linearGradient
       id="linearGradient3660">
      <stop
         style="stop-color:#775599;stop-opacity:1;"
         offset="0"
         id="stop3662" />
      <stop
         style="stop-color:#566ab5;stop-opacity:1;"
         offset="1"
         id="stop3664" />
    </linearGradient>
    <inkscape:perspective
       sodipodi:type="inkscape:persp3d"
       inkscape:vp_x="0 : 0.5 : 1"
       inkscape:vp_y="0 : 1000 : 0"
       inkscape:vp_z="1 : 0.5 : 1"
       inkscape:persp3d-origin="0.5 : 0.33333333 : 1"
       id="perspective74" />
    <linearGradient
       inkscape:collect="always"
       xlink:href="#linearGradient3660"
       id="linearGradient3666"
       x1="410.853"
       y1="503.87549"
       x2="976.74402"
       y2="503.87549"
       gradientUnits="userSpaceOnUse" />
    <linearGradient
       inkscape:collect="always"
       xlink:href="#linearGradient3660"
       id="linearGradient3668"
       x1="31.007799"
       y1="158.91451"
       x2="914.729"
       y2="158.91451"
       gradientUnits="userSpaceOnUse" />
  </defs>
  <sodipodi:namedview
     pagecolor="#ffffff"
     bordercolor="#666666"
     borderopacity="1"
     objecttolerance="10"
     gridtolerance="10"
     guidetolerance="10"
     inkscape:pageopacity="0"
     inkscape:pageshadow="2"
     inkscape:window-width="1680"
     inkscape:window-height="994"
     id="namedview68"
     showgrid="false"
     inkscape:zoom="7.49"
     inkscape:cx="50"
     inkscape:cy="50"
     inkscape:window-x="-4"
     inkscape:window-y="-4"
     inkscape:window-maximized="1"
     inkscape:current-layer="svg2" />
  <polygon
     points="1000,0 1000,1000 1000,1000 0,1000 0,0 "
     style="fill:#ffffff;fill-opacity:0;stroke:none"
     id="polygon4"
     transform="matrix(0.09923096,0,0,0.09923096,0,0.76904)" />
  <polygon
     points="7.75194,46.512 7.75194,937.98 937.985,937.98 937.985,46.512 930.168,46.512 930.168,46.512 "
     style="fill:#000000;fill-opacity:1;stroke:none"
     id="polygon6"
     transform="matrix(0.09923096,0,0,0.09923096,0,0.76904)" />
  <polygon
     points="23.2558,62.015 922.481,62.015 922.481,62.015 922.481,922.48 23.2558,922.48 "
     style="fill:#000000;fill-opacity:1;stroke:none"
     id="polygon8"
     transform="matrix(0.09923096,0,0,0.09923096,0,0.76904)" />
  <polygon
     points="23.2558,62.015 23.2558,922.48 922.481,922.48 922.481,62.015 914.661,62.015 914.661,62.015 "
     style="fill:#666666;fill-opacity:1;stroke:none"
     id="polygon10"
     transform="matrix(0.09923096,0,0,0.09923096,0,0.76904)" />
  <polygon
     points="38.7597,77.519 906.977,77.519 906.977,77.519 906.977,906.98 38.7597,906.98 "
     style="fill:#ffffff;fill-opacity:1;stroke:none"
     id="polygon12"
     transform="matrix(0.09923096,0,0,0.09923096,0,0.76904)" />
  <polygon
     points="914.729,69.767 914.729,248.062 914.729,248.062 31.0078,248.062 31.0078,69.767 "
     style="fill:url(#linearGradient3668);fill-opacity:1;stroke:none"
     id="polygon14"
     transform="matrix(0.09923096,0,0,0.09923096,0,0.76904)" />
  <polygon
     points="317.829,255.814 317.829,906.98 317.829,906.98 341.085,906.98 341.085,255.814 "
     style="fill:#666666;fill-opacity:1;stroke:none"
     id="polygon16"
     transform="matrix(0.09923096,0,0,0.09923096,0,0.76904)" />
  <polygon
     points="914.729,240.31 23.2558,240.31 23.2558,240.31 23.2558,263.566 914.729,263.566 "
     style="fill:#666666;fill-opacity:1;stroke:none"
     id="polygon18"
     transform="matrix(0.09923096,0,0,0.09923096,0,0.76904)" />
  <polygon
     points="139.535,310.077 139.535,364.341 139.535,364.341 85.2713,364.341 85.2713,310.077 "
     style="fill:#ff9900;fill-opacity:1;stroke:none"
     id="polygon20"
     transform="matrix(0.09923096,0,0,0.09923096,0,0.76904)" />
  <polygon
     points="139.535,403.101 139.535,457.365 139.535,457.365 85.2713,457.365 85.2713,403.101 "
     style="fill:#775599;fill-opacity:1;stroke:none"
     id="polygon22"
     transform="matrix(0.09923096,0,0,0.09923096,0,0.76904)" />
  <polygon
     points="139.535,496.124 139.535,550.388 139.535,550.388 85.2713,550.388 85.2713,496.124 "
     style="fill:#77aa00;fill-opacity:1;stroke:none"
     id="polygon24"
     transform="matrix(0.09923096,0,0,0.09923096,0,0.76904)" />
  <polygon
     points="139.535,596.899 139.535,651.163 139.535,651.163 85.2713,651.163 85.2713,596.899 "
     style="fill:#ff9900;fill-opacity:1;stroke:none"
     id="polygon26"
     transform="matrix(0.09923096,0,0,0.09923096,0,0.76904)" />
  <polygon
     points="139.535,689.922 139.535,744.186 139.535,744.186 85.2713,744.186 85.2713,689.922 "
     style="fill:#77aa00;fill-opacity:1;stroke:none"
     id="polygon28"
     transform="matrix(0.09923096,0,0,0.09923096,0,0.76904)" />
  <polygon
     points="139.535,790.698 139.535,844.962 139.535,844.962 85.2713,844.962 85.2713,790.698 "
     style="fill:#775599;fill-opacity:1;stroke:none"
     id="polygon30"
     transform="matrix(0.09923096,0,0,0.09923096,0,0.76904)" />
  <polygon
     points="750.757,350.129 695.314,333.764 624.03,325.581 552.747,333.764 497.304,350.129 457.701,374.677 441.86,382.86 441.86,399.225 441.86,399.225 441.86,415.59 457.701,431.956 497.304,448.32 552.747,464.685 624.03,472.868 695.314,464.685 750.757,448.32 790.36,431.956 798.28,415.59 806.201,399.225 798.28,382.86 790.36,374.677 "
     style="fill:#ff9900;fill-opacity:1;stroke:none"
     id="polygon32"
     transform="matrix(0.09923096,0,0,0.09923096,0,0.76904)" />
  <polygon
     points="279.07,325.581 162.791,325.581 162.791,325.581 162.791,348.837 279.07,348.837 "
     style="fill:#999999;fill-opacity:1;stroke:none"
     id="polygon34"
     transform="matrix(0.09923096,0,0,0.09923096,0,0.76904)" />
  <polygon
     points="279.07,418.605 162.791,418.605 162.791,418.605 162.791,441.861 279.07,441.861 "
     style="fill:#999999;fill-opacity:1;stroke:none"
     id="polygon36"
     transform="matrix(0.09923096,0,0,0.09923096,0,0.76904)" />
  <polygon
     points="279.07,519.38 162.791,519.38 162.791,519.38 162.791,542.636 279.07,542.636 "
     style="fill:#999999;fill-opacity:1;stroke:none"
     id="polygon38"
     transform="matrix(0.09923096,0,0,0.09923096,0,0.76904)" />
  <polygon
     points="279.07,612.403 162.791,612.403 162.791,612.403 162.791,635.659 279.07,635.659 "
     style="fill:#999999;fill-opacity:1;stroke:none"
     id="polygon40"
     transform="matrix(0.09923096,0,0,0.09923096,0,0.76904)" />
  <polygon
     points="279.07,705.426 162.791,705.426 162.791,705.426 162.791,728.682 279.07,728.682 "
     style="fill:#999999;fill-opacity:1;stroke:none"
     id="polygon42"
     transform="matrix(0.09923096,0,0,0.09923096,0,0.76904)" />
  <polygon
     points="279.07,798.45 162.791,798.45 162.791,798.45 162.791,821.706 279.07,821.706 "
     style="fill:#999999;fill-opacity:1;stroke:none"
     id="polygon44"
     transform="matrix(0.09923096,0,0,0.09923096,0,0.76904)" />
  <polygon
     points="379.845,418.605 379.845,1000 1007.75,1000 1007.75,418.605 999.903,418.605 999.903,418.605 "
     style="fill:#000000;fill-opacity:1;stroke:none"
     id="polygon46"
     transform="matrix(0.09923096,0,0,0.09923096,0,0.76904)" />
  <polygon
     points="395.349,434.108 992.248,434.108 992.248,434.108 992.248,984.5 395.349,984.5 "
     style="fill:#000000;fill-opacity:1;stroke:none"
     id="polygon48"
     transform="matrix(0.09923096,0,0,0.09923096,0,0.76904)" />
  <polygon
     points="395.349,434.108 395.349,984.5 992.248,984.5 992.248,434.108 984.394,434.108 984.394,434.108 "
     style="fill:#666666;fill-opacity:1;stroke:none"
     id="polygon50"
     transform="matrix(0.09923096,0,0,0.09923096,0,0.76904)" />
  <polygon
     points="410.853,449.612 968.993,449.612 968.993,449.612 968.993,968.99 410.853,968.99 "
     style="fill:#ffffff;fill-opacity:1;stroke:none"
     id="polygon52"
     transform="matrix(0.09923096,0,0,0.09923096,0,0.76904)" />
  <polygon
     points="976.744,449.612 976.744,558.139 976.744,558.139 410.853,558.139 410.853,449.612 "
     style="fill:url(#linearGradient3666);fill-opacity:1;stroke:none"
     id="polygon54"
     transform="matrix(0.09923096,0,0,0.09923096,0,0.76904)" />
  <polygon
     points="906.976,720.93 906.976,961.24 906.976,961.24 837.209,961.24 837.209,720.93 "
     style="fill:#ffcc66;fill-opacity:1;stroke:none"
     id="polygon56"
     transform="matrix(0.09923096,0,0,0.09923096,0,0.76904)" />
  <polygon
     points="697.674,705.426 697.674,961.24 697.674,961.24 620.155,961.24 620.155,705.426 "
     style="fill:#ff7711;fill-opacity:1;stroke:none"
     id="polygon58"
     transform="matrix(0.09923096,0,0,0.09923096,0,0.76904)" />
  <polygon
     points="589.147,620.155 589.147,961.24 589.147,961.24 519.38,961.24 519.38,620.155 "
     style="fill:#77aa00;fill-opacity:1;stroke:none"
     id="polygon60"
     transform="matrix(0.09923096,0,0,0.09923096,0,0.76904)" />
  <polygon
     points="806.201,651.163 806.201,961.24 806.201,961.24 728.682,961.24 728.682,651.163 "
     style="fill:#775599;fill-opacity:1;stroke:none"
     id="polygon62"
     transform="matrix(0.09923096,0,0,0.09923096,0,0.76904)" />
  <polygon
     points="403.101,550.388 403.101,573.644 403.101,573.644 976.744,573.644 976.744,550.388 "
     style="fill:#666666;fill-opacity:1;stroke:none"
     id="polygon64"
     transform="matrix(0.09923096,0,0,0.09923096,0,0.76904)" />
  <ellipse
     cx="503.875"
     cy="500"
     rx="256"
     ry="256"
     style="fill:#00a500;fill-opacity:1;stroke:#000000;stroke-width:3"
     class="TAG:iconCanvas"
     id="ellipse66"
     sodipodi:cx="503.875"
     sodipodi:cy="500"
     sodipodi:rx="256"
     sodipodi:ry="256"
     transform="matrix(0.09923096,0,0,0.09923096,0,0.76904)" />
</svg>
