<?xml version="1.0" encoding="UTF-8" standalone="no"?>
<svg
   xmlns:dc="http://purl.org/dc/elements/1.1/"
   xmlns:cc="http://creativecommons.org/ns#"
   xmlns:rdf="http://www.w3.org/1999/02/22-rdf-syntax-ns#"
   xmlns:svg="http://www.w3.org/2000/svg"
   xmlns="http://www.w3.org/2000/svg"
   xmlns:xlink="http://www.w3.org/1999/xlink"
   xmlns:sodipodi="http://sodipodi.sourceforge.net/DTD/sodipodi-0.dtd"
   xmlns:inkscape="http://www.inkscape.org/namespaces/inkscape"
   version="1.1"
   xml:space="preserve"
   height="219px"
   viewBox="21.027 45.083 219 219"
   width="219px"
   enable-background="new 21.027 45.083 219 219"
   y="0px"
   x="0px"
   id="svg2"
   inkscape:version="0.47 r22583"
   sodipodi:docname="applicationfunction.svg"><sodipodi:namedview
   pagecolor="#ffffff"
   bordercolor="#666666"
   borderopacity="1"
   objecttolerance="10"
   gridtolerance="10"
   guidetolerance="10"
   inkscape:pageopacity="0"
   inkscape:pageshadow="2"
   inkscape:window-width="1280"
   inkscape:window-height="778"
   id="namedview134"
   showgrid="false"
   inkscape:zoom="2.4246575"
   inkscape:cx="-16.461978"
   inkscape:cy="109.5"
   inkscape:window-x="-8"
   inkscape:window-y="326"
   inkscape:window-maximized="1"
   inkscape:current-layer="svg2" /><metadata
   id="metadata4"><rdf:RDF><cc:Work
       rdf:about=""><dc:format>image/svg+xml</dc:format><dc:type
         rdf:resource="http://purl.org/dc/dcmitype/StillImage" /><dc:title /></cc:Work></rdf:RDF></metadata>
<defs
   id="defs6"><inkscape:perspective
     sodipodi:type="inkscape:persp3d"
     inkscape:vp_x="0 : 109.5 : 1"
     inkscape:vp_y="0 : 1000 : 0"
     inkscape:vp_z="219 : 109.5 : 1"
     inkscape:persp3d-origin="109.5 : 73 : 1"
     id="perspective70" /><filter
     id="filter3340"
     color-interpolation-filters="sRGB"><feGaussianBlur
       stdDeviation="3.9590909"
       id="feGaussianBlur9" /></filter><linearGradient
     id="linearGradient3284"
     y2="369"
     spreadMethod="reflect"
     gradientUnits="userSpaceOnUse"
     x2="214"
     y1="474"
     x1="390"><stop
       stop-color="#6f6f6f"
       offset="0"
       id="stop22" /><stop
       stop-color="#f5f5f5"
       offset="1"
       id="stop24" /></linearGradient><filter
     id="filter11193"
     height="1.204561"
     width="1.6059247"
     y="-0.10228051"
     x="-0.30296236"
     color-interpolation-filters="sRGB"><feGaussianBlur
       stdDeviation="18.143585"
       id="feGaussianBlur33" /></filter><filter
     id="filter11189"
     height="1.2111586"
     width="1.3552474"
     y="-0.10557931"
     x="-0.17762369"
     color-interpolation-filters="sRGB"><feGaussianBlur
       stdDeviation="18.143585"
       id="feGaussianBlur39" /></filter><filter
     id="filter11185"
     height="1.2424628"
     width="1.2640786"
     y="-0.12123133"
     x="-0.13203932"
     color-interpolation-filters="sRGB"><feGaussianBlur
       stdDeviation="18.143585"
       id="feGaussianBlur45" /></filter><filter
     id="filter11181"
     height="1.3091427"
     width="1.2171913"
     y="-0.15457135"
     x="-0.10859563"
     color-interpolation-filters="sRGB"><feGaussianBlur
       stdDeviation="18.143585"
       id="feGaussianBlur51" /></filter><radialGradient
     id="radialGradient3057-5"
     gradientUnits="userSpaceOnUse"
     cy="390"
     cx="380"
     gradientTransform="matrix(0.52636952,-0.05969132,0.06371377,0.5618392,-100.53747,-70.186289)"
     r="149"><stop
       stop-color="#bedcdc"
       offset="0"
       id="stop54" /><stop
       stop-opacity="0.74149668"
       stop-color="#8e9e9e"
       offset="0.5"
       id="stop56" /><stop
       stop-opacity="0.8392157"
       stop-color="#404f5c"
       offset="1"
       id="stop58" /></radialGradient><radialGradient
     id="radialGradient3061-4"
     gradientUnits="userSpaceOnUse"
     cy="179"
     cx="176"
     gradientTransform="matrix(-1.25069,-0.80517636,1.0356633,-1.608708,268.6168,607.12894)"
     r="64.8"><stop
       stop-color="#993"
       offset="0"
       id="stop61" /><stop
       stop-color="#cccc64"
       offset="1"
       id="stop63" /></radialGradient><radialGradient
     id="radialGradient4041"
     gradientUnits="userSpaceOnUse"
     cy="456"
     cx="-81.6"
     gradientTransform="matrix(0.17966648,0.02687068,-0.02894857,0.19245289,38.117275,135.4038)"
     r="149"><stop
       stop-color="#488d8d"
       offset="0"
       id="stop66" /><stop
       stop-color="#ede3d0"
       offset="0.5"
       id="stop68" /><stop
       stop-color="#d59f0f"
       offset="1"
       id="stop70" /></radialGradient><linearGradient
     inkscape:collect="always"
     xlink:href="#linearGradient3284-1"
     id="linearGradient3708"
     gradientUnits="userSpaceOnUse"
     spreadMethod="reflect"
     x1="390.20001"
     y1="473.79999"
     x2="213.7"
     y2="368.70001"
     gradientTransform="matrix(0.49330515,0,0,0.49330515,-75.823499,-123.84818)" /><linearGradient
     id="linearGradient3284-1"
     x1="390.20001"
     spreadMethod="reflect"
     gradientUnits="userSpaceOnUse"
     y1="473.79999"
     x2="213.7"
     y2="368.70001"><stop
       stop-color="#6f6f6f"
       offset="0"
       id="stop14" /><stop
       stop-color="#f5f5f5"
       offset="1"
       id="stop16-7" /></linearGradient><linearGradient
     inkscape:collect="always"
     xlink:href="#linearGradient3664"
     id="linearGradient3688"
     x1="-103.06042"
     y1="167.63292"
     x2="-28.059572"
     y2="123.86324"
     gradientUnits="userSpaceOnUse"
     gradientTransform="translate(181.84722,-37.00117)" /><linearGradient
     id="linearGradient3664"><stop
       style="stop-color:#0000ff;stop-opacity:0;"
       offset="0"
       id="stop3666" /><stop
       id="stop3668"
       offset="0.20762333"
       style="stop-color:#0000ff;stop-opacity:0.09803922;" /><stop
       id="stop3670"
       offset="0.32430306"
       style="stop-color:#00ff00;stop-opacity:0.09803922;" /><stop
       id="stop3672"
       offset="0.49649313"
       style="stop-color:#ffff00;stop-opacity:0.09803922;" /><stop
       id="stop3674"
       offset="0.63897055"
       style="stop-color:#ff0000;stop-opacity:0.09803922;" /><stop
       style="stop-color:#ff0000;stop-opacity:0;"
       offset="1"
       id="stop3676" /></linearGradient><filter
     color-interpolation-filters="sRGB"
     inkscape:collect="always"
     id="filter3714"><feGaussianBlur
       inkscape:collect="always"
       stdDeviation="2.8267969"
       id="feGaussianBlur3716" /></filter><linearGradient
     id="linearGradient5241-4"><stop
       stop-color="#7c7c7c"
       offset="0"
       id="stop8" /><stop
       stop-color="#c6c6c6"
       offset="1"
       id="stop10" /></linearGradient><linearGradient
     y2="318.84375"
     x2="434.03125"
     y1="423.84375"
     x1="539.03125"
     gradientTransform="translate(-325.92592,-208.96396)"
     gradientUnits="userSpaceOnUse"
     id="linearGradient2923"
     xlink:href="#linearGradient5241-4"
     inkscape:collect="always" /><inkscape:perspective
     id="perspective2863"
     inkscape:persp3d-origin="0.5 : 0.33333333 : 1"
     inkscape:vp_z="1 : 0.5 : 1"
     inkscape:vp_y="0 : 1000 : 0"
     inkscape:vp_x="0 : 0.5 : 1"
     sodipodi:type="inkscape:persp3d" /></defs>
<g
   transform="matrix(0.93314023,0,0,0.93314023,30.485226,45.137392)"
   id="g2870"><path
     id="maindisk"
     d="m 108.08067,4.855128 c -57.914035,0 -104.975345,47.061311 -104.975345,105.024672 0,57.96335 47.03664,105.02466 104.975345,105.02466 57.96335,0 105.02466,-47.05145 105.02466,-105.02466 0,-57.973228 -47.05145,-104.975345 -105.02466,-104.975345 z m 0,78.928818 c 14.39464,0 26.08597,11.676543 26.08597,26.066244 0,14.39465 -11.69133,26.08598 -26.08597,26.08598 -14.394655,0 -26.066245,-11.69133 -26.066245,-26.08598 0,-14.394641 11.67652,-26.066244 26.066245,-26.066244 z"
     style="color:#000000;fill:url(#linearGradient3708)" /><path
     id="whiteouter"
     d="m 108.10533,83.332919 c -14.665937,0 -26.562504,11.896559 -26.562504,26.562501 0,14.66593 11.896567,26.53125 26.562504,26.53125 14.66594,0 26.5625,-11.86532 26.5625,-26.53125 0,-14.665942 -11.89656,-26.562501 -26.5625,-26.562501 z m 0,7.0625 c 10.76956,0 19.5,8.73044 19.5,19.500001 0,10.76956 -8.73044,19.5 -19.5,19.5 -10.769569,0 -19.500004,-8.73044 -19.500004,-19.5 0,-10.769561 8.730435,-19.500001 19.500004,-19.500001 z"
     style="color:#000000;fill:#ffffff;fill-opacity:1;fill-rule:nonzero;stroke:none;stroke-width:1;marker:none;visibility:visible;display:inline;overflow:visible;enable-background:accumulate" /><path
     id="mediumgrey"
     d="m 108.10533,90.879788 c -10.493415,0 -19.000005,8.506601 -19.000005,19.000002 0,10.49342 8.50659,19.00001 19.000005,19.00001 10.49341,0 19,-8.50659 19,-19.00001 0,-10.493401 -8.50659,-19.000002 -19,-19.000002 z m 0,3.437501 c 8.58803,0 15.5625,6.974481 15.5625,15.562501 0,8.58805 -6.97447,15.53126 -15.5625,15.53126 -8.588035,0 -15.531255,-6.94321 -15.531255,-15.53126 0,-8.58802 6.94322,-15.562501 15.531255,-15.562501 z"
     style="color:#000000;fill:#b7b6b6;fill-opacity:1;fill-rule:nonzero;stroke:none;stroke-width:1;marker:none;visibility:visible;display:inline;overflow:visible;enable-background:accumulate" /><path
     id="whiteinner"
     d="m 108.12095,94.317288 c -8.588026,0 -15.562496,6.974482 -15.562496,15.562502 0,8.58805 6.97447,15.56251 15.562496,15.56251 8.58803,0 15.53125,-6.97446 15.53125,-15.56251 0,-8.58802 -6.94322,-15.562502 -15.53125,-15.562502 z m 0,1.21875 c 7.9253,0 14.34375,6.418472 14.34375,14.343752 0,7.92531 -6.41845,14.34376 -14.34375,14.34376 -7.92529,0 -14.343746,-6.41845 -14.343746,-14.34376 0,-7.92528 6.418456,-14.343752 14.343746,-14.343752 z"
     style="color:#000000;fill:#eaeaea;fill-opacity:1;fill-rule:nonzero;stroke:none;stroke-width:1;marker:none;visibility:visible;display:inline;overflow:visible;enable-background:accumulate" /><path
     id="lightgrey"
     d="m 108.0897,95.536038 c -7.92529,0 -14.343746,6.418472 -14.343746,14.343752 0,7.92531 6.418456,14.34376 14.343746,14.34376 7.9253,0 14.375,-6.41845 14.375,-14.34376 0,-7.92528 -6.4497,-14.343752 -14.375,-14.343752 z m 0,5.250002 c 5.02579,0 9.125,4.06797 9.125,9.09375 0,5.02581 -4.09921,9.09376 -9.125,9.09376 -5.02578,0 -9.093746,-4.06795 -9.093746,-9.09376 0,-5.02578 4.067966,-9.09375 9.093746,-9.09375 z"
     style="color:#000000;fill:#dddddd;fill-opacity:1;fill-rule:nonzero;stroke:none;stroke-width:1;marker:none;visibility:visible;display:inline;overflow:visible;enable-background:accumulate" /><path
     id="blackhole"
     d="m 108.0897,100.77042 c -5.0258,0 -9.093746,4.06797 -9.093746,9.09375 0,5.0258 4.067946,9.125 9.093746,9.125 5.02579,0 9.125,-4.0992 9.125,-9.125 0,-5.02578 -4.09922,-9.09375 -9.125,-9.09375 z m 0,1.09375 c 4.41827,0 8,3.58174 8,8 0,4.41828 -3.58173,8 -8,8 -4.41827,0 -8,-3.58172 -8,-8 0,-4.41826 3.58173,-8 8,-8 z"
     style="color:#000000;fill:#3a3a3a;fill-opacity:1;fill-rule:nonzero;stroke:none;stroke-width:1;marker:none;visibility:visible;display:inline;overflow:visible;enable-background:accumulate" /><path
     id="translucentring"
     d="m 108.10533,71.752198 c -21.057301,0 -38.127595,17.070304 -38.127595,38.127602 0,21.05731 17.070294,38.12759 38.127595,38.12759 21.05732,0 38.12759,-17.07028 38.12759,-38.12759 0,-21.057298 -17.07027,-38.127602 -38.12759,-38.127602 z m 0,9.393752 c 15.86929,0 28.73383,12.864636 28.73383,28.73385 0,15.86927 -12.86454,28.73384 -28.73383,28.73384 -15.869286,0 -28.733842,-12.86457 -28.733842,-28.73384 0,-15.869214 12.864556,-28.73385 28.733842,-28.73385 z"
     style="color:#000000;fill:#ffffff;fill-opacity:0.32352941;fill-rule:nonzero;stroke:none;stroke-width:1;marker:none;visibility:visible;display:inline;overflow:visible;enable-background:accumulate" /><path
     id="blackring"
     d="m 108.10533,90.379788 c -10.769575,0 -19.500005,8.730453 -19.500005,19.500012 0,10.76956 8.73043,19.5 19.500005,19.5 10.76955,0 19.5,-8.73044 19.5,-19.5 0,-10.769559 -8.73045,-19.500012 -19.5,-19.500012 z m 0,0.75 c 10.35534,0 18.75,8.39466 18.75,18.750012 0,10.35535 -8.39466,18.75 -18.75,18.75 -10.355364,0 -18.750005,-8.39465 -18.750005,-18.75 0,-10.355352 8.39465,-18.750012 18.750005,-18.750012 z"
     style="color:#000000;fill:#000000;fill-opacity:1;fill-rule:nonzero;stroke:none;stroke-width:1;marker:none;visibility:visible;display:inline;overflow:visible;enable-background:accumulate" /><path
     id="path2856"
     d="M 95.375,6.0762339 C 66.360386,9.5861729 40.950926,24.954697 24.187496,47.201234 L 84.65625,98.888728 c 4.236235,-8.66815 13.144849,-14.65625 23.4375,-14.65625 0.92066,0 1.82256,0.0318 2.71875,0.125 L 95.375,6.0762339 z M 131.0625,122.66998 c -4.40541,8.1564 -13.02936,13.70706 -22.9375,13.71875 l 12.71875,78.1875 c 29.35794,-3.56606 55.00348,-19.24439 71.75,-41.90625 l -61.53125,-50 z"
     style="fill:url(#linearGradient3688);fill-opacity:1;stroke:none;filter:url(#filter3714)" /><path
     id="diskedge"
     d="m 108.07408,4.879788 c -57.963355,0 -104.968755,47.030071 -104.968755,104.968762 0,57.96335 47.03007,105.03125 104.968755,105.03125 57.96335,0 105.03125,-47.05802 105.03125,-105.03125 0,-57.973232 -47.05802,-104.968762 -105.03125,-104.968762 z m 0.0312,5.000001 c 55.22848,0 100,44.77152 100,100.000011 0,55.22847 -44.77152,100 -100,100 -55.228485,0 -100.000005,-44.77153 -100.000005,-100 0,-55.228492 44.77152,-100.000012 100.000005,-100.000012 z"
     style="color:#000000;fill:url(#linearGradient2923);fill-opacity:1;stroke:none;enable-background:accumulate" /></g><path
   style="color:#000000;fill:#775919;fill-opacity:1;fill-rule:nonzero;stroke:#2b2b2b;stroke-width:0.5;stroke-linecap:butt;stroke-linejoin:miter;stroke-miterlimit:4;stroke-opacity:1;stroke-dasharray:none;stroke-dashoffset:0;marker:none;visibility:visible;display:inline;overflow:visible;enable-background:accumulate"
   d="m 204.76181,164.72345 c -17.24833,-16.99402 -45.00869,-16.78786 -62.00272,0.46048 -16.99404,17.24836 -16.78785,45.00869 0.46049,62.00272 17.24835,16.99404 45.00868,16.78787 62.00271,-0.46048 16.99404,-17.24835 16.78787,-45.00868 -0.46048,-62.00272 z m -21.92744,22.92348 c 4.99977,4.92606 5.03738,12.96483 0.11132,17.9646 -4.92606,4.99978 -12.9645,5.08158 -17.96427,0.15551 -4.99979,-4.92605 -5.05965,-12.98674 -0.13358,-17.98653 4.92606,-4.99977 12.98675,-5.05963 17.98653,-0.13358 z"
   id="path4151" /><path
   style="color:#000000;fill:#8d6a1e;fill-opacity:1;fill-rule:nonzero;stroke:#2b2b2b;stroke-width:0.5;stroke-miterlimit:4;stroke-opacity:1;stroke-dasharray:none;marker:none;visibility:visible;display:inline;overflow:visible;enable-background:accumulate"
   d="m 180.31409,158.42902 -5.45977,21.95635 c -5.0522,-0.36579 -9.89404,1.68648 -13.17362,5.32203 l -19.20573,-11.98895 -2.94994,4.74073 19.20572,11.98896 c -0.27784,0.6909 -0.54763,1.42533 -0.73246,2.16859 -1.05497,4.24257 -0.28094,8.49017 1.75073,11.99574 l -17.34572,14.58911 3.5752,4.2702 17.34571,-14.58911 c 1.82942,1.53951 4.00758,2.70323 6.48443,3.31913 2.47685,0.61591 4.9767,0.61545 7.31411,0.11208 l 8.46211,21.0066 5.18915,-2.09081 -8.49997,-20.98382 c 3.45771,-2.14391 6.11347,-5.54895 7.17279,-9.80898 0.18482,-0.74326 0.29033,-1.51854 0.36854,-2.25908 l 22.58413,-1.5973 -0.41629,-5.5778 -22.55381,1.60484 c -1.19135,-4.7551 -4.53661,-8.83444 -9.17698,-10.87984 l 5.45977,-21.95635 -5.3981,-1.34232 z m -3.46173,25.70557 c 6.81139,1.69375 10.93706,8.59317 9.24331,15.40456 -1.69376,6.8114 -8.57039,10.97493 -15.38178,9.28117 -6.81139,-1.69375 -10.96739,-8.6007 -9.27363,-15.4121 1.69375,-6.81139 8.60072,-10.96739 15.41211,-9.27363 z"
   id="path3270" /><path
   style="fill:#be8f28;fill-opacity:1;stroke:#000000;stroke-width:0.37663165;stroke-miterlimit:4;stroke-opacity:1;stroke-dasharray:none"
   d="m 175.81008,131.24291 -1.95377,4.77851 -0.3531,2.0244 0.0235,2.75412 -6.23797,0.40017 -0.32955,-2.73058 -0.61204,-1.97732 -2.54226,-4.49604 -4.14294,0.80035 -0.7062,5.10806 0.16478,2.04794 0.70618,2.6835 -5.95549,1.93023 -0.98865,-2.5658 -1.08281,-1.789 -3.578,-3.6957 -3.8134,1.789 0.58849,5.13161 0.6591,1.95377 1.34175,2.40103 -5.27284,3.34261 -1.60069,-2.23625 -1.48298,-1.43591 -4.40189,-2.70704 -3.24844,2.6835 1.83608,4.82559 1.15343,1.71838 1.88316,2.00086 -4.28419,4.56666 -2.09501,-1.76546 -1.81254,-1.03574 -4.91975,-1.53007 -2.47164,3.41323 2.96597,4.21357 1.53007,1.38882 2.35394,1.45945 -3.01305,5.4847 -2.49518,-1.20051 -2.00086,-0.54141 -5.1316,-0.25894 -1.55361,3.9311 3.90755,3.31906 1.83608,0.96512 2.63642,0.84742 -1.5536,6.04964 -2.70704,-0.5414 -2.07148,-0.0235 -5.06098,1.03573 -0.51787,4.1665 4.63727,2.25978 2.0244,0.49434 2.73058,0.14123 0,6.2615 -2.73058,0.14123 -2.0244,0.49434 -4.63727,2.25978 0.51787,4.19003 5.06098,1.0122 2.07148,-0.0235 2.70704,-0.5414 1.5536,6.04964 -2.63642,0.84742 -1.83608,0.96512 -3.90755,3.3426 1.55361,3.90756 5.1316,-0.25894 2.00086,-0.5414 2.49518,-1.17698 3.01305,5.46116 -2.35394,1.45945 -1.53007,1.41236 -2.96597,4.19003 2.47164,3.41323 4.91975,-1.53007 1.81254,-1.0122 2.09501,-1.78899 4.28419,4.56665 -1.88316,2.00085 -1.15343,1.71839 -1.83608,4.82559 3.24844,2.68351 4.40189,-2.70705 1.48298,-1.43591 1.60069,-2.23624 5.27284,3.3426 -1.34175,2.40103 -0.6591,1.97731 -0.58849,5.10807 3.8134,1.789 3.578,-3.6957 1.08281,-1.76546 0.98865,-2.5658 5.95549,1.93024 -0.70618,2.65995 -0.16478,2.07148 0.7062,5.08453 4.14294,0.80034 2.54226,-4.49604 0.61204,-1.97732 0.32955,-2.73058 6.23797,0.40017 -0.0235,2.75412 0.3531,2.04794 1.95376,4.75497 4.21357,-0.25893 1.34175,-4.99037 0.1177,-2.07147 -0.37663,-2.73058 6.1438,-1.15344 0.65911,2.65996 0.87095,1.9067 3.06013,4.11941 4.02526,-1.29467 0.0705,-5.15515 -0.42371,-2.04794 -1.03574,-2.54226 5.64948,-2.65996 1.31821,2.42457 1.29467,1.62422 4.00171,3.22491 3.578,-2.25979 -1.22405,-5.01391 -0.91804,-1.85962 -1.62423,-2.21271 4.80206,-3.97817 1.88315,2.00086 1.64777,1.24759 4.70789,2.1421 2.87183,-3.08368 -2.42458,-4.54312 -1.34174,-1.57715 -2.11856,-1.74192 3.67216,-5.03744 2.30687,1.48299 1.9067,0.80033 5.08453,0.89451 2.02439,-3.6957 -3.48384,-3.8134 -1.69485,-1.17697 -2.49518,-1.15344 2.30687,-5.81425 2.61288,0.87096 2.04793,0.28248 5.13161,-0.40017 1.05928,-4.07233 -4.30773,-2.82474 -1.95376,-0.72972 -2.70705,-0.49433 0.77681,-6.19089 2.75412,0.18832 2.07147,-0.2354 4.87267,-1.64775 0,-4.23711 -4.87267,-1.64777 -2.07147,-0.21185 -2.75412,0.18831 -0.77681,-6.21442 2.70705,-0.49433 1.95376,-0.72972 4.30773,-2.82474 -1.05928,-4.07232 -5.13161,-0.40018 -2.04793,0.30601 -2.61288,0.84742 -2.30687,-5.7907 2.49518,-1.17698 1.69485,-1.17697 3.48384,-3.8134 -2.02439,-3.69569 -5.08453,0.91804 -1.9067,0.7768 -2.30687,1.50653 -3.67216,-5.06099 2.11856,-1.74192 1.34174,-1.57715 2.42458,-4.54312 -2.87183,-3.08367 -4.70789,2.14209 -1.64777,1.24759 -1.88315,2.00086 -4.80206,-3.97817 1.62423,-2.21271 0.91804,-1.85962 1.22405,-5.01391 -3.578,-2.25979 -4.00171,3.24845 -1.29467,1.60068 -1.31821,2.42457 -5.64948,-2.65996 1.03574,-2.54226 0.42371,-2.04794 -0.0705,-5.13161 -4.02526,-1.31821 -3.06013,4.14295 -0.87095,1.88316 -0.65911,2.65996 -6.1438,-1.15343 0.37663,-2.73058 -0.1177,-2.07148 -1.34175,-4.99037 -4.21357,-0.25893 z m -1.81255,26.62315 c 21.03965,0 38.08688,17.04723 38.08688,38.08687 0,21.03965 -17.04722,38.08688 -38.08688,38.08688 -21.03964,0 -38.11041,-17.04723 -38.11041,-38.08688 0,-21.03964 17.07077,-38.08687 38.11041,-38.08687 z"
   id="path2943" /><g
   transform="translate(22.70944,45.205051)"
   id="SmallGear"><path
     id="spokes"
     d="m 80.46875,163.8125 -6.5,2.625 6.0625,14.9375 c -0.636824,0.8482 -1.069756,1.84626 -1.25,2.9375 l -14.96875,6.0625 2.625,6.5 14.9375,-6.0625 c 0.854436,0.64318 1.867417,1.07124 2.96875,1.25 l 6.0625,14.96875 6.5,-2.625 -6.0625,-14.96875 c 0.634652,-0.85197 1.07448,-1.84294 1.25,-2.9375 l 14.9375,-6.0625 -2.625,-6.46875 L 89.46875,180 c -0.845234,-0.63018 -1.852719,-1.0714 -2.9375,-1.25 l -6.0625,-14.9375 z m 4.96875,18.59375 c 1.665947,0 3,1.33406 3,3 0,1.66595 -1.334053,3.03125 -3,3.03125 -1.665947,0 -3.03125,-1.3653 -3.03125,-3.03125 0,-1.66594 1.365303,-3 3.03125,-3 z"
     style="color:#000000;fill:#684e16;fill-opacity:1;stroke:#000000" /><path
     d="m 71.353709,156.14116 -2.721509,1.43873 0.580081,4.18159 0.392401,0.88628 1.622875,2.34355 -3.741544,3.16642 -2.02772,-2.01111 -0.826259,-0.54209 -3.991947,-1.28347 -1.916625,2.42774 2.225681,3.58292 0.733841,0.64693 2.42015,1.48143 -2.129027,4.40164 -2.684986,-0.96968 -0.952467,-0.18758 -4.199533,0.45249 -0.742072,2.99741 3.485736,2.36491 0.929709,0.29794 2.816019,0.37723 -0.148224,4.88095 -2.848428,0.20902 -0.9566,0.21864 -3.629826,2.10982 0.529031,3.05601 4.134716,0.72 1.003503,-0.10276 2.712551,-0.79456 1.82912,4.51884 -2.501499,1.31596 -0.79245,0.62419 -2.458022,3.42228 1.733919,2.53461 4.087106,-0.98012 0.839349,-0.50831 2.180096,-1.86012 3.501611,3.40358 -1.760757,2.22981 -0.44898,0.8897 -0.871031,4.09472 2.618094,1.6373 3.343597,-2.56708 0.553814,-0.79729 1.254519,-2.56429 4.579579,1.65244 -0.708281,2.74775 -0.06551,1.00419 0.881478,4.09332 3.077414,0.43999 1.975224,-3.69885 0.204827,-0.99316 0.06962,-2.82636 4.878881,-0.35664 0.464197,2.81256 0.346284,0.93866 2.480176,3.37877 2.967736,-0.83043 0.319278,-4.20851 -0.218643,-0.95659 -1.066992,-2.63599 4.290555,-2.30984 1.605645,2.38425 0.65866,0.71106 3.64712,2.09731 2.38838,-2.01186 -1.42634,-3.9402 -0.59521,-0.80417 -2.07392,-1.9587 3.02494,-3.85404 2.40291,1.52212 0.92419,0.3676 4.15678,0.44135 1.35797,-2.80845 -2.90226,-3.00564 -0.87247,-0.48967 -2.68499,-0.96968 1.1876,-4.72855 2.82775,0.4062 0.99798,-0.0331 3.9871,-1.31046 0.0917,-3.105 -3.87127,-1.56831 -0.98696,-0.1062 -2.84842,0.20901 -0.867,-4.80715 2.75324,-0.77731 0.90349,-0.43314 3.11048,-2.80985 -1.16078,-2.86773 -4.20093,0.11593 -0.95039,0.31726 -2.51874,1.35666 -2.72088,-4.05674 2.20354,-1.80219 0.6352,-0.76281 1.67867,-3.8485 -2.21394,-2.13802 -3.77605,1.83187 -0.74003,0.67039 -1.74904,2.25876 -4.154055,-2.60009 1.26625,-2.53533 0.28621,-0.95867 -0.0173,-4.20712 -2.917413,-1.04416 -2.679412,3.20848 -0.408288,0.90695 -0.667589,2.76498 -4.854067,-0.6648 0.127558,-2.84981 -0.131745,-0.99178 -1.716001,-3.82294 -3.115342,0.21587 -1.161393,4.04368 0.02139,0.96902 0.493165,2.80084 -4.677479,1.35392 -1.066986,-2.63599 -0.508313,-0.83935 -3.156758,-2.80149 z m 6.590144,10.78395 c 10.213773,-4.1343 21.827252,0.78649 25.961557,11.00027 4.13428,10.21378 -0.77479,21.85622 -10.988565,25.99052 -10.213774,4.13429 -21.838969,-0.81548 -25.973261,-11.02925 -4.134295,-10.21378 0.786497,-21.82725 11.000269,-25.96154 z"
     style="fill:#333333;fill-opacity:1;stroke:#000000;stroke-width:0.5;stroke-miterlimit:4;stroke-opacity:1;stroke-dasharray:none"
     id="path3119" /></g></svg>