<svg xmlns:rdf="http://www.w3.org/1999/02/22-rdf-syntax-ns#" xmlns="http://www.w3.org/2000/svg" y="0px" xml:space="preserve" height="219" width="219" version="1.1" enable-background="new -0.162 -0.016 195 215" x="0px" xmlns:cc="http://creativecommons.org/ns#" xmlns:dc="http://purl.org/dc/elements/1.1/" viewBox="-0.162 -0.016 219 219">
	<metadata>
		<rdf:RDF>
			<cc:Work rdf:about="">
				<dc:format>image/svg+xml</dc:format>
				<dc:type rdf:resource="http://purl.org/dc/dcmitype/StillImage"/>
				<dc:title/>
			</cc:Work>
		</rdf:RDF>
	</metadata>
	<defs>
		<filter id="filter4158">
			<feGaussianBlur stdDeviation="1.4318229"/>
		</filter>
		<filter id="filter4226">
			<feGaussianBlur stdDeviation="1.9990158"/>
		</filter>
		<linearGradient id="linearGradient3039" y2="70.9" gradientUnits="userSpaceOnUse" y1="128" gradientTransform="matrix(1.0509817,0,0,1.0509817,4.3810714,-26.303488)" x2="28.5" x1="165">
			<stop stop-color="#60011b" offset="0"/>
			<stop stop-color="#8c0128" offset="0.238"/>
			<stop stop-color="#b00837" offset="1"/>
		</linearGradient>
		<filter id="filter4485" width="1.0281755" y="-0.12539741" x="-0.014087744" height="1.2507948" color-interpolation-filters="sRGB">
			<feGaussianBlur stdDeviation="0.24603403"/>
		</filter>
		<linearGradient id="linearGradient6329" y2="69.1" gradientUnits="userSpaceOnUse" x2="75.7" gradientTransform="matrix(0.52463696,0.44991705,-0.8024246,0.28633983,162.06591,50.079663)" y1="99.3" x1="119">
			<stop stop-color="#363636" offset="0"/>
			<stop stop-color="#625959" offset="1"/>
		</linearGradient>
	</defs>
	<path opacity="0.5" d="m108,194c-1.15-3.3-4.62-10.7-5.02-10.7-0.225,0-3.24,1.42-6.71,3.16-3.91,1.96-6.96,3.16-8.04,3.16-2.21,0-4.13-1.95-7.24-7.37-3.41-5.93-11.5-18-13-19.3-0.715-0.662-1.97-2.69-2.79-4.5-0.821-1.81-3.45-6.36-5.83-10.1s-5.33-8.6-6.55-10.8c-1.21-2.17-3.22-5.6-4.46-7.63-4.89-8-17.9-31.3-25.2-45.1-6.8-12.8-11.7-23.3-12.9-27.3l-0.386-1.32,1.17,1.04,1.17,1.04-0.353-1.88c-0.713-3.8,1.78-7,7.36-9.44,3.88-1.7,18.1-6.46,26.7-8.95,18.1-5.24,37.9-8.75,54.2-9.59l4.03-0.209,4.39,3.93c15.9,14.2,34.1,28.6,73.6,58.2l23.9,17.9-1.96,0.863c-1.08,0.475-1.83,0.987-1.68,1.14,0.152,0.152-0.671,2.26-1.83,4.69-3.4,7.14-4.34,12.1-3.19,17,0.323,1.38,0.308,2.17-0.0421,2.29-0.293,0.102-0.933,0.608-1.42,1.13-3.49,3.68-46,25.7-84.1,43.5l-2.75,1.29,3.18,6.34c1.75,3.49,3.08,6.43,2.97,6.55-0.116,0.116-1.2-0.506-2.41-1.38-1.54-1.11-2.27-1.39-2.45-0.924-0.135,0.368-0.563,1.6-0.952,2.75l-0.708,2.08-0.554-1.59h0.00002zm11.4-44.2c0-0.145-0.71,0.104-1.58,0.553-0.868,0.449-1.58,0.935-1.58,1.08s0.71-0.104,1.58-0.553c0.868-0.449,1.58-0.935,1.58-1.08z" fill-rule="evenodd" transform="matrix(1.0509817,0,0,1.0509817,-0.22335823,-1.0390649)" filter="url(#filter4226)" stroke-miterlimit="4" stroke-width="0" fill="#000"/>
	<path d="m82.3,182c-2.54-5.79,0.945-12.3,11.2-19.4,16-10.4,31.3-17,44.9-23.7,19.1-9.39,61.4-29.9,61.9-29.9,0.124,0-1.95,4.13-3.45,7.13-1.72,3.46-2.95,6.7-3.35,9.04-0.604,3.54-0.336,4.77,0.99,9.41,0.152,0.532-13.7,7.38-44.4,22.3l-44.5,21.7-2.37-3.05c-3.95-5.07-4.38-6.12-9.72-3.25l-3.69,1.98,2.84,0.535c2.13,0.402,3.21,1.28,4.49,3.89l1.88,3.47-7.02,3.15c-5.39,3.23-7.36,1.79-9.75-3.26z" fill-rule="evenodd" stroke-miterlimit="4" stroke-width="0" fill="#FFF"/>
	<path d="m209,104-0.0347-0.0515s-0.0116-0.0137-0.0147-0.0179c-0.296-0.326-3.31-2.56-8.24-6.2-20.7-15.3-75.4-55.7-98.1-77.4l-0.205-0.206-0.292,0.0168c-12.1,0.328-24.6,1.81-37.4,4.36s-26,6.16-39.6,10.7l-0.844,0.275,0.0336,0.0515c-23.3,7.42-22.8,10.1-14.1,29.6,0.81,1.48,1.64,2.99,2.48,4.51,0.348,1.36,0.81,2.66,1.4,3.86,0.338,0.699,0.718,1.37,1.14,2,0.419,0.63,0.868,1.21,1.36,1.74h0.0189c0.132,0.143,0.291,0.26,0.465,0.345,1.15,2.07,2.33,4.17,3.52,6.31,0.424,1.74,1.03,3.41,1.81,4.94,0.336,0.658,0.724,1.29,1.14,1.91,0.413,0.618,0.857,1.19,1.33,1.72l0.0694,0.0862c0.218,0.245,0.503,0.41,0.808,0.5,0.707,1.27,1.42,2.56,2.14,3.84,0.355,2.59,1.11,5.11,2.27,7.36,0.314,0.603,0.648,1.18,1.02,1.74,0.372,0.562,0.774,1.11,1.21,1.62l0.0336,0.0357c0.453,0.532,1.16,0.738,1.83,0.585h0.0147c0.0053-0.002,0.0147-0.0126,0.0189-0.0168,1.14,2.01,2.3,4.03,3.46,6.07,0.477,2.4,1.31,4.73,2.52,6.84,0.309,0.543,0.634,1.08,0.998,1.6,0.368,0.522,0.765,1.02,1.17,1.5,0.363,0.426,0.873,0.653,1.39,0.674,1.13,1.96,2.26,3.93,3.39,5.89,0.376,2.79,1.24,5.51,2.67,7.98,0.287,0.492,0.603,0.964,0.931,1.43,0.33,0.463,0.675,0.913,1.05,1.36v0.0179c0.489,0.579,1.25,0.791,1.96,0.638h0.0179c1.82,3.12,3.62,6.23,5.45,9.34-0.0032,0.001,0,0.0147,0,0.0168,0.0336,0.243,0.0746,0.498,0.118,0.743,0.465,2.58,1.38,5.12,2.79,7.44,0.27,0.446,0.561,0.882,0.878,1.33,0.311,0.434,0.642,0.867,0.998,1.29h0.02c0.503,0.595,1.28,0.853,2,0.707,4.58,7.71,9.12,15.3,13.6,22.6,2.45,4.07,4.71,6.4,9.82,3.55,3.83-1.92,7.69-3.83,11.6-5.74,2.36,4.49,4.63,9.83,5.72,13.5,0.444-1.41,1.83-4.36,2.24-6.36,1.59,1.98,4.57,3.74,6.18,4.63-2.35-3.83-4.66-9.82-7.53-15,32.4-15.8,65.8-31,90.2-46,0.197-0.108,0.365-0.244,0.482-0.378,0.0221-0.0263,0.0504-0.0589,0.0683-0.0883,0.916-1.27-1.14-3.31-3.46-3.1-1.24-3.94,0.166-9.34,3.55-15.7,0.86-1.62,1.87-3.33,2.98-5.08,0.496-0.78,1.01-1.57,1.55-2.36,0.003-0.003,0.0158-0.0137,0.0179-0.0179,1.9-0.873,3.8-1.74,5.71-2.62l0.689-0.31-0.382-0.656zm-190-51.5c-0.183,0.121-0.378,0.263-0.569,0.414-0.181,0.141-0.348,0.289-0.517,0.447-0.862,0.805-1.58,1.79-2.14,2.9-0.104,0.207-0.202,0.446-0.31,0.688-0.114,0.264-0.218,0.487-0.291,0.689-0.449,1.21-0.739,2.53-0.898,3.89v0.0158c-0.0841,0.728-0.136,1.47-0.139,2.24-0.0021,0.759,0.0452,1.51,0.123,2.26,0.39,3.89,1.82,7.69,4.13,10.2,0.0042,0.0032,0.0168,0.0147,0.0179,0.0179v0.0168c-0.0011,0.0011-0.0168,0.0168-0.0179,0.0179v0.0168c-0.0032,0.0042-0.0147,0.0179-0.0168,0.0179-0.0053,0.0053-0.0284,0.0284-0.0347,0.0336-0.0095,0.0084-0.0347,0.0242-0.0515,0.0357-0.0137,0.0084-0.0357,0.0252-0.0515,0.0347-0.0116,0.0053-0.0252,0.0126-0.0347,0.0158h-0.0179c-0.0063,0.0042-0.0284,0.0147-0.0336,0.0179-0.0032,0.0021-0.0158,0.0147-0.0179,0.0179h-0.0347c-0.0063,0.0011-0.0273,0.0011-0.0347,0h-0.0336c-0.0084,0.0032-0.0273,0.0137-0.0347,0.0168h-0.0694c-0.0063-0.0021-0.0284-0.0147-0.0347-0.0168h-0.0179c-0.0179-0.0042-0.0515-0.0116-0.0683-0.0179-0.0011-0.0011-0.0147-0.0168-0.0168-0.0179h-0.0179c-0.0011-0.0011-0.0158-0.0147-0.0179-0.0158-0.0011-0.0021-0.0158-0.0168-0.0168-0.0189h-0.0189v-0.0168c-0.445-0.479-0.862-1-1.24-1.57-0.38-0.568-0.721-1.18-1.04-1.83-1.62-3.34-2.3-7.51-1.86-11.3,0.0336-0.287,0.0641-0.563,0.103-0.81,0.0431-0.265,0.103-0.532,0.157-0.792,0.272-1.33,0.695-2.59,1.27-3.74,0.119-0.235,0.239-0.46,0.364-0.673,0.127-0.221,0.256-0.434,0.395-0.638,0.715-1.05,1.61-1.95,2.67-2.65l0.0357-0.0347c0.205-0.137,0.428-0.266,0.672-0.396,0.228-0.124,0.473-0.253,0.724-0.363,0.966-0.417,2.05-0.717,3.24-0.809,0.021-0.0021,0.0347,0,0.0526,0,0.0399-0.0032,0.082,0.0021,0.122,0,0.0389-0.0021,0.0788,0.0021,0.12,0s0.0788,0.0011,0.121,0c0.0914-0.0042,0.184,0.0011,0.275,0,0.153-0.0021,0.31-0.0032,0.465,0l0.0515,0.0168h0.0168c0.02,0.0032,0.0526,0.0116,0.0704,0.0179,0.0042,0.0021,0.0273,0.0147,0.0336,0.0179,0.0053,0.0021,0.0252,0.0116,0.0347,0.0158,0.0053,0.0021,0.0273,0.0147,0.0336,0.0179v0.0168h0.0189v0.0179c-0.0021,0.0011-0.0158,0.0158-0.0189,0.0179v0.0168c-0.0021,0.0074-0.0137,0.0294-0.0168,0.0347-0.0011,0.0032-0.0147,0.0147-0.0168,0.0179-0.0021,0.0021-0.0147,0.0137-0.0179,0.0168-0.0042,0.0032-0.0158,0.0147-0.0168,0.0168-0.0273,0.02-0.0568,0.0368-0.0872,0.0526-0.0053,0.0021-0.0252,0.0126-0.0336,0.0179-0.0179,0.0053-0.0515,0.0126-0.0694,0.0168-0.0336,0.0084-0.0841,0.0158-0.12,0.0179h-0.104c-0.295-0.0042-0.584,0-0.845,0.0179-0.275,0.0168-0.534,0.0473-0.792,0.0862-1.33,0.192-2.5,0.647-3.49,1.31zm8.36,12.3v0.0179c-0.229,0.171-0.455,0.354-0.69,0.569-0.232,0.21-0.454,0.421-0.655,0.638-1.05,1.14-1.88,2.55-2.5,4.12l-0.0347,0.103c-0.121,0.312-0.243,0.626-0.346,0.948-0.103,0.32-0.188,0.646-0.275,0.983-0.436,1.67-0.671,3.47-0.689,5.29v0.12c-0.0032,0.726,0.0305,1.44,0.0862,2.14,0.0578,0.707,0.138,1.41,0.259,2.12,0.617,3.6,2.05,7.01,4.26,9.48l0.0158,0.0347c0.0063,0.0095,0.0137,0.0263,0.0179,0.0336,0.0032,0.0063,0.0158,0.0294,0.0179,0.0347v0.119c-0.0021,0.0074-0.0147,0.0305-0.0179,0.0357v0.0179c-0.0042,0.0021-0.0126,0.0137-0.0179,0.0179,0.0011,0.0021,0,0.0147,0,0.0168-0.0032,0.0053-0.0147,0.0168-0.0158,0.0179-0.0084,0.0095-0.0263,0.0263-0.0347,0.0347-0.0053,0.0021-0.0147,0.0137-0.0168,0.0158l-0.0357,0.0357c-0.0063,0.0032-0.0284,0.0147-0.0336,0.0179-0.0105,0.0032-0.0315,0.0147-0.0357,0.0179-0.0032,0.0021-0.0137,0.0147-0.0158,0.0179h-0.0179c-0.0063,0.0021-0.0284,0.0137-0.0347,0.0168h-0.0189c-0.0063,0.0021-0.0263,0.0137-0.0326,0.0179-0.042,0.0053-0.103,0.0021-0.139,0-0.0483-0.0042-0.111-0.0179-0.154-0.0336-0.0074-0.0042-0.0284-0.0147-0.0357-0.0179h-0.0158c-0.0147-0.0095-0.0368-0.0221-0.0515-0.0347l-0.0179-0.0179c-0.0011-0.0021-0.0126-0.0147-0.0179-0.0189l-0.0683-0.0673,0.0179-0.0168c-0.438-0.508-0.85-1.04-1.22-1.59-0.372-0.555-0.716-1.15-1.04-1.78-1.63-3.18-2.45-7.02-2.41-10.7v-0.124c0.0063-0.351,0.0294-0.718,0.0536-1.1,0.0221-0.369,0.0462-0.724,0.0862-1.09,0.195-1.83,0.609-3.59,1.24-5.19v-0.0168c0.133-0.335,0.274-0.653,0.414-0.949,0.149-0.313,0.305-0.607,0.466-0.895,0.834-1.5,1.9-2.79,3.22-3.77l0.0347-0.0336c0.221-0.163,0.463-0.325,0.723-0.483,0.264-0.162,0.514-0.309,0.757-0.43,1.14-0.57,2.43-0.968,3.86-1.09,0.0221-0.0011,0.0452,0.0011,0.0683,0h0.139c0.0473-0.0032,0.0872,0.0011,0.137,0,0.0515-0.0021,0.105,0.0011,0.156,0,0.0799-0.0032,0.16,0.0011,0.241,0h0.0683c0.0189,0.0032,0.0526,0.0126,0.0694,0.0168,0.0158,0.0063,0.0399,0.0116,0.0504,0.0189,0.0116,0.0042,0.0273,0.0116,0.0357,0.0168,0.0126,0.0084,0.041,0.0252,0.0504,0.0347,0.0042,0.0021,0.0158,0.0158,0.0189,0.0168,0.0021,0.0042,0.0158,0.0158,0.0179,0.0179,0.0011,0.0032,0.0147,0.0147,0.0158,0.0168,0.0021,0.0011,0.0168,0.0168,0.0179,0.0179,0.0021,0.0011,0.0147,0.0158,0.0158,0.0168,0.0074,0.0137,0.0158,0.041,0.0179,0.0515v0.0357l0.0179,0.0336c-0.0053,0.0053-0.0158,0.0168-0.0179,0.0179v0.0526c-0.0021,0.0021-0.0126,0.0147-0.0179,0.0168,0.0021,0.0011,0,0.0168,0,0.0179-0.0021,0.0042-0.0116,0.0137-0.0158,0.0179v0.0168c-0.0021,0.0021-0.0147,0.0147-0.0179,0.0168-0.0179,0.0242-0.0441,0.0494-0.0673,0.0694-0.0021,0.0021-0.0147,0.0137-0.0168,0.0168-0.0011,0.0011-0.0179,0.0168-0.0189,0.0179-0.0063,0.0032-0.0273,0.0158-0.0357,0.0168,0,0-0.0147,0.0011-0.0168,0-0.0063,0.0032-0.0294,0.0147-0.0336,0.0168h-0.0179c-0.0378,0.0137-0.0935,0.0284-0.136,0.0357h-0.106c-0.31,0.0074-0.597,0.0389-0.878,0.0694-0.297,0.0315-0.573,0.0683-0.845,0.12-1.42,0.274-2.67,0.839-3.74,1.63zm8.99,13.5c-0.296,0.225-0.583,0.468-0.861,0.723-0.279,0.254-0.556,0.529-0.811,0.81-1.3,1.43-2.34,3.19-3.1,5.15v0.0515c-0.158,0.417-0.312,0.802-0.431,1.17-0.123,0.391-0.238,0.802-0.345,1.22-0.533,2.1-0.766,4.33-0.706,6.56v0.0515c0.0179,0.642,0.0546,1.27,0.12,1.9,0.0694,0.628,0.159,1.26,0.276,1.88,0.609,3.19,1.89,6.18,3.88,8.51l0.0189,0.0158c0.0105,0.0147,0.0273,0.0389,0.0326,0.0515,0.02,0.0399,0.0347,0.0967,0.0347,0.138,0,0.0158,0.0021,0.0378,0,0.0525-0.0116,0.0956-0.0662,0.199-0.154,0.275l-0.0336,0.0179c-0.0021,0.005-0.0147,0.0158-0.0168,0.0179-0.0147,0.009-0.041,0.0273-0.0526,0.0347-0.0084,0.005-0.0263,0.0137-0.0336,0.0179-0.0158,0.005-0.0536,0.0137-0.0673,0.0168-0.0074,0.004-0.0315,0.0158-0.0357,0.0179-0.103,0.0231-0.219,0.0168-0.311-0.0179-0.041-0.0147-0.0862-0.0399-0.12-0.0683-0.0042-0.004-0.0147-0.0168-0.0179-0.0179-0.0063-0.006-0.0263-0.0242-0.0357-0.0336l-0.0326-0.0347c-0.399-0.47-0.761-0.966-1.11-1.48-0.343-0.52-0.657-1.06-0.946-1.62-1.49-2.88-2.27-6.24-2.36-9.62v-0.0515c-0.0126-0.449-0.0147-0.894,0-1.34,0.0095-0.425,0.0284-0.873,0.0683-1.34,0.185-2.28,0.679-4.51,1.46-6.55l1.09-2.34c1.03-1.89,2.38-3.52,4-4.75v-0.0179h0.0168c0.245-0.186,0.508-0.37,0.795-0.551,0.279-0.181,0.551-0.352,0.825-0.5,1.33-0.709,2.78-1.2,4.41-1.36,0.0242-0.0021,0.0578,0.0032,0.0862,0h0.468c0.117,0.0032,0.231,0.0431,0.311,0.104,0.0105,0.0105,0.041,0.0389,0.0526,0.0515,0.0074,0.0074,0.0273,0.0263,0.0326,0.0347,0.0042,0.0074,0.0158,0.0294,0.0179,0.0347,0.0032,0.0053,0.0147,0.0252,0.0168,0.0347v0.0168c0.0042,0.0063,0.0158,0.0294,0.0179,0.0347v0.12c-0.0021,0.0063-0.0126,0.0294-0.0179,0.0357v0.0168c-0.0011,0.0053-0.0126,0.0284-0.0168,0.0336-0.0042,0.0095-0.0126,0.0273-0.0179,0.0347-0.0084,0.0147-0.0221,0.0389-0.0326,0.0515-0.0284,0.0347-0.0694,0.0746-0.105,0.103-0.0011,0.0032-0.0158,0.0158-0.0189,0.0179-0.0778,0.0536-0.184,0.0977-0.29,0.104h-0.02c-0.322,0.0189-0.642,0.042-0.947,0.0851-0.308,0.0441-0.616,0.103-0.913,0.173-1.52,0.346-2.88,1.01-4.07,1.92zm10.1,15c-0.35,0.28-0.69,0.563-0.996,0.862-0.315,0.305-0.607,0.627-0.898,0.965-1.48,1.72-2.66,3.83-3.46,6.15v0.0179c-0.161,0.462-0.303,0.935-0.43,1.39-0.133,0.48-0.247,0.957-0.345,1.43-0.523,2.47-0.68,5.07-0.414,7.63v0.0179c0.061,0.581,0.144,1.15,0.241,1.69,0.0946,0.537,0.218,1.09,0.363,1.65,0.726,2.82,2.01,5.46,3.89,7.65l0.0189,0.0179c0.0105,0.0126,0.0242,0.0336,0.0347,0.0515,0.0116,0.021,0.0252,0.0483,0.0336,0.0673,0.0032,0.007,0.0147,0.0284,0.0168,0.0347v0.0347c0.0095,0.0347,0.0179,0.0809,0.0189,0.12v0.0705c-0.0032,0.006-0.0126,0.0294-0.0189,0.0336v0.0347c-0.0021,0.005-0.0126,0.0147-0.0168,0.0179-0.0084,0.0189-0.0221,0.0504-0.0336,0.0683-0.0011,0.002-0.0179,0.0158-0.0189,0.0189-0.0105,0.0137-0.0347,0.0494-0.0526,0.0673-0.0021,0.003-0.0137,0.0137-0.0168,0.0179-0.0021,0.002-0.0137,0.0147-0.0168,0.0158l-0.0168,0.02-0.0189,0.0158c-0.0105,0.0105-0.0389,0.0284-0.0515,0.0368h-0.0189c-0.0063,0.002-0.0273,0.0126-0.0336,0.0158-0.0189,0.009-0.0504,0.0263-0.0694,0.0357-0.0011-0.001-0.0126,0-0.0158,0-0.0011-0.001-0.0137,0-0.0179,0-0.187,0.0431-0.395-0.009-0.533-0.139-0.0074-0.006-0.0263-0.0231-0.0378-0.0347h-0.0179c-0.389-0.454-0.736-0.923-1.07-1.39-0.336-0.477-0.655-0.97-0.947-1.48-1.5-2.63-2.37-5.6-2.69-8.65v-0.0189c-0.0546-0.52-0.0998-1.04-0.121-1.55-0.0231-0.523-0.0263-1.05-0.0168-1.57,0.0526-2.67,0.515-5.31,1.36-7.74v-0.0168c0.164-0.474,0.352-0.931,0.55-1.4,0.193-0.45,0.41-0.91,0.638-1.36,1.14-2.25,2.64-4.22,4.48-5.69h0.0147c0.276-0.22,0.56-0.424,0.847-0.62,0.283-0.193,0.591-0.376,0.896-0.551,1.52-0.874,3.22-1.46,5.08-1.65h0.225c0.021,0.0042,0.0515,0.0126,0.0683,0.0179s0.0368,0.0116,0.0526,0.0168c0.0368,0.0147,0.083,0.0326,0.121,0.0526,0.0053,0.0032,0.0294,0.0147,0.0336,0.0179,0.0032,0.0032,0.0147,0.0147,0.0179,0.0168,0.0147,0.0137,0.041,0.042,0.0526,0.0526,0.0147,0.0168,0.041,0.0515,0.0504,0.0683,0.0105,0.0189,0.0273,0.0494,0.0347,0.0683,0.0021,0.0063,0.0158,0.0284,0.0189,0.0347,0.0042,0.0179,0.0126,0.0504,0.0158,0.0673,0,0.0074,0.0021,0.0294,0,0.0347l0.0189,0.0179v0.0704c-0.0032,0.0063-0.0147,0.0263-0.0189,0.0336v0.0168c0.0021,0.0074,0,0.0294,0,0.0347-0.0032,0.0074-0.0147,0.0284-0.0158,0.0347-0.0032,0.0053-0.0168,0.0284-0.0189,0.0326v0.0179c-0.0032,0.0074-0.0126,0.0263-0.0179,0.0357-0.0074,0.0137-0.0242,0.041-0.0336,0.0515-0.0042,0.0021-0.0147,0.0137-0.0179,0.0179-0.0032,0.0021-0.0126,0.0147-0.0168,0.0179-0.0021,0.0032-0.0158,0.0137-0.0189,0.0179-0.0011,0.0032-0.0116,0.0137-0.0168,0.0168-0.0032,0.0042-0.0158,0.0158-0.0179,0.0189-0.0126,0.0105-0.0357,0.0242-0.0515,0.0326-0.0042,0.0042-0.0294,0.0158-0.0347,0.0179-0.0252,0.0137-0.0578,0.0242-0.0862,0.0347-0.042,0.0137-0.0946,0.0305-0.139,0.0347h-0.0179c-0.333,0.0326-0.655,0.0788-0.983,0.138-0.321,0.0599-0.647,0.137-0.965,0.225-1.6,0.435-3.05,1.21-4.34,2.23zm11.1,16.9c-0.384,0.3-0.764,0.618-1.14,0.966-0.369,0.339-0.713,0.695-1.05,1.07-1.74,1.92-3.16,4.27-4.14,6.82-0.188,0.489-0.356,1.01-0.517,1.54-0.162,0.522-0.31,1.03-0.43,1.55-0.641,2.7-0.82,5.54-0.466,8.29,0.062,0.49,0.142,0.984,0.24,1.46,0.101,0.5,0.215,0.987,0.345,1.45,0.686,2.44,1.85,4.75,3.55,6.75l0.0168,0.02v0.0147c0.0021,0.002,0.0158,0.0179,0.0179,0.021,0.0021,0.006,0.0158,0.0263,0.0189,0.0326,0.0042,0.006,0.0137,0.0273,0.0179,0.0336,0.0021,0.006,0.0137,0.0284,0.0168,0.0336,0.0042,0.007,0.0158,0.0294,0.0179,0.0357,0,0.005,0.0011,0.0305,0,0.0347,0,0.001,0.0011,0.0147,0,0.0179,0.0032,0.004,0.0147,0.0273,0.0189,0.0347-0.0021,0.001,0,0.0137,0,0.0137-0.0021,0.006-0.0021,0.0179,0,0.0179v0.0694c0,0.004-0.0021,0.0168,0,0.0189-0.0042,0.005-0.0158,0.0284-0.0189,0.0347,0.0011,0.004,0,0.0273,0,0.0347-0.0021,0.005-0.0137,0.0284-0.0179,0.0336-0.0032,0.006-0.0147,0.0305-0.0168,0.0347-0.0032,0.006-0.0126,0.0263-0.0179,0.0336-0.0032,0.006-0.0147,0.0252-0.0189,0.0315-0.0095,0.0179-0.0221,0.042-0.0336,0.0546-0.0032,0.003-0.0137,0.0158-0.0189,0.0179-0.0063,0.0126-0.0263,0.0389-0.0336,0.0515-0.0042,0.006-0.0147,0.0168-0.0179,0.0179l-0.0504,0.0336c-0.0147,0.0126-0.0368,0.0263-0.0526,0.0347-0.0221,0.0126-0.0484,0.0273-0.0683,0.0357h-0.0179c-0.0032,0.001-0.0137,0.0137-0.0179,0.0168h-0.0179c-0.0063,0.002-0.0284,0.0147-0.0336,0.0168h-0.0378c-0.227,0.0504-0.484-0.0116-0.635-0.189-0.348-0.412-0.676-0.841-0.984-1.27-0.307-0.437-0.598-0.879-0.861-1.33-1.37-2.34-2.17-4.93-2.51-7.58v-0.0179c-0.0725-0.551-0.126-1.1-0.154-1.67-0.0336-0.572-0.0473-1.15-0.0357-1.71,0.0557-2.9,0.643-5.79,1.67-8.48v-0.0168c0.202-0.532,0.422-1.05,0.654-1.55,0.236-0.504,0.492-0.996,0.758-1.48,1.37-2.48,3.16-4.67,5.29-6.32,0.294-0.228,0.617-0.467,0.948-0.688,0.325-0.219,0.642-0.416,0.965-0.603,1.69-0.974,3.55-1.63,5.55-1.9v-0.0147h0.0725c0.0441,0.002,0.0977,0.0105,0.136,0.0147,0.0032,0,0.0158,0.003,0.0168,0,0.0179,0.005,0.0557,0.0158,0.0725,0.0189h0.0179c0.0168,0.008,0.0526,0.0273,0.0673,0.0336,0.0273,0.0158,0.061,0.0368,0.0872,0.0525,0.0189,0.0137,0.0441,0.0326,0.0662,0.0536,0.0032,0.003,0.0168,0.0147,0.0179,0.0179,0.0042,0.002,0.0158,0.0116,0.0189,0.0158,0.0021,0.006,0.0126,0.0294,0.0179,0.0336,0.0011,0.004,0.0147,0.0168,0.0158,0.0179,0.042,0.0631,0.0778,0.149,0.0862,0.223v0.14c-0.0032,0.005-0.0126,0.0284-0.0179,0.0336-0.0042,0.0179-0.0116,0.0546-0.0158,0.0683-0.0746,0.207-0.271,0.366-0.517,0.397-0.363,0.0483-0.714,0.118-1.05,0.189-0.346,0.0757-0.699,0.159-1.03,0.257-1.73,0.516-3.31,1.37-4.74,2.48zm20.8,15.5v0.0326c0.0063,0.0935-0.0053,0.195-0.0347,0.276-0.0105,0.02-0.0284,0.0536-0.0336,0.0715-0.0147,0.0242-0.0347,0.0589-0.0526,0.0841-0.0378,0.0504-0.0862,0.0977-0.14,0.138-0.0809,0.061-0.197,0.103-0.308,0.122v0.0168h-0.0179c-0.375,0.0652-0.741,0.132-1.1,0.224-0.358,0.0883-0.721,0.205-1.09,0.328-1.83,0.613-3.53,1.57-5.08,2.81h-0.0158c-0.43,0.341-0.834,0.702-1.24,1.08-0.396,0.375-0.788,0.781-1.17,1.21-1.93,2.14-3.51,4.72-4.58,7.53v0.0179c-0.198,0.532-0.391,1.09-0.568,1.67-0.172,0.568-0.32,1.14-0.446,1.71-0.675,2.95-0.81,6.01-0.279,8.98v0.0147c0.0809,0.459,0.189,0.894,0.292,1.31,0.108,0.431,0.221,0.86,0.363,1.29,0.719,2.2,1.85,4.29,3.45,6.19l0.0189,0.0326c0.0011,0.003,0.0158,0.0168,0.0168,0.0168,0.0326,0.0462,0.0652,0.108,0.0862,0.157,0.0053,0.0116,0.0147,0.0368,0.0179,0.0494,0.0063,0.0242,0.0147,0.0631,0.0179,0.0872v0.14c-0.0063,0.0347-0.0242,0.082-0.0347,0.12v0.0168c-0.0021,0.005-0.0137,0.0252-0.0189,0.0347v0.0158c-0.0074,0.02-0.0242,0.0536-0.0326,0.0704-0.0084,0.0105-0.0263,0.0389-0.0347,0.0525-0.0042,0.004-0.0263,0.0252-0.0347,0.0336-0.0221,0.0221-0.0441,0.0462-0.0673,0.0673l-0.0179,0.0189h-0.0168c-0.0021,0.002-0.0168,0.0147-0.02,0.0179-0.0242,0.0168-0.0578,0.0336-0.0841,0.0504-0.0042,0.002-0.0147,0.0147-0.0168,0.0189-0.0462,0.0221-0.0914,0.041-0.141,0.0505h-0.0147c-0.257,0.0588-0.534-0.02-0.706-0.223v-0.0179c-0.328-0.387-0.635-0.776-0.933-1.19-0.287-0.404-0.563-0.828-0.825-1.26-1.33-2.18-2.18-4.52-2.62-6.94v-0.02c-0.107-0.603-0.183-1.21-0.241-1.82-0.0568-0.615-0.0956-1.25-0.102-1.86-0.0389-3.17,0.574-6.36,1.7-9.32,0.223-0.581,0.465-1.16,0.723-1.71,0.268-0.575,0.541-1.12,0.827-1.64,1.52-2.75,3.52-5.19,5.86-7.05,0.324-0.256,0.669-0.5,1.02-0.74,0.345-0.241,0.682-0.476,1.03-0.69,1.82-1.1,3.8-1.87,5.89-2.22h0.0368c0.0452-0.004,0.0904-0.002,0.138,0,0.0441,0.002,0.0946,0.008,0.139,0.0179h0.0137c0.247,0.0673,0.422,0.264,0.47,0.516h0.0168v0.0158zm122-16.4c-1.13,1.77-2.13,3.5-3.02,5.17-4.34,8.18-5.54,14.9-2.33,19.4-0.0998,0.0851-0.233,0.166-0.392,0.245-1.81,0.853-59,29.2-88.4,43.7-2.14-3.35-4.6-6.07-7.32-7.93l-7.8,3.98c1.7,0.491,3.12-0.159,5.65,2.79,0.893,1.04,1.91,2.56,2.95,4.34-6.15,3-10.1,4.92-10.5,5.07-2.32,0.762-3.76-0.609-4.67-2.03-10-13.8,16.3-25.6,30.3-33.7,0.187-0.0956,0.352-0.198,0.5-0.292,0.0294-0.0179,0.0631-0.0336,0.0883-0.0525,0.003-0.001,0.0116-0.0158,0.0158-0.0158,0.001-0.002,0.0158,0,0.0179,0,15-7.49,30.2-15,45.6-22.4,13-6.27,26.2-12.5,39.7-18.8-0.119,0.186-0.23,0.37-0.345,0.552z" fill="url(#linearGradient3039)"/>
	<path d="m106,178c-2.36-3.64-5.06-6.59-8.04-8.61l-8.49,4.4c1.86,0.523,3.41-0.193,6.18,3.01,0.983,1.13,2.11,2.78,3.25,4.72l1.58,2.85c2.6,4.88,5.12,10.7,6.33,14.7,0.472-1.54,1.96-4.77,2.4-6.95,1.75,2.15,5.01,4.05,6.78,5.02-2.59-4.16-5.15-10.7-8.32-16.3l-1.67-2.79z" fill="#d59f0f"/>
	<path stroke-linejoin="miter" d="M15.8,38.4,96.9,150" transform="matrix(1.0509817,0,0,1.0509817,-0.22335823,-1.0390649)" filter="url(#filter4158)" stroke="#5b3636" stroke-linecap="butt" stroke-width="1px" fill="#800000"/>
	<path style="color:#000000;enable-background:accumulate;" fill="#d59f0f" d="m39.7,48.7s21.2-8.75,21.2-8.75c9.05-3.73,16.2-5.65,21.5-5.78,6.83-0.192,12.1,1.39,15.7,4.87,2.26,2.18,3.26,4.54,2.93,7.07-0.329,2.58-1.99,5.04-4.98,7.38-3.02,2.35-8.67,5.23-16.9,8.6,0,0-6.58,2.69-6.58,2.69s15.1,19.5,15.1,19.5,11.2,1.99,11.2,1.99-27.9,11.3-27.9,11.3,4.52-8.76,4.52-8.76-11.8-16.7-11.8-16.7c-0.451,0.151-0.766,0.263-0.946,0.337-2.59,1.06-4.81,2.48-6.66,4.26,0,0-0.951-0.511-0.951-0.511,1.76-1.97,3.58-3.34,5.48-4.12,0,0,1.94-0.792,1.94-0.792s0.404-0.214,0.404-0.214-1.31-1.85-1.31-1.85c-0.87,0.259-1.45,0.447-1.73,0.563-3.8,1.55-6.4,3.45-7.82,5.73,0,0-0.907-0.363-0.907-0.363,0.334-3.73,2.86-6.53,7.59-8.46,0,0,0.841-0.344,0.841-0.344s-11.6-16.4-11.6-16.4-8.33-1.27-8.33-1.27m17.8-3.32s12.7,16.3,12.7,16.3,0.684-0.28,0.684-0.28,1.4-0.524,1.4-0.524c0.14-0.0578,0.359-0.163,0.656-0.315,0,0-11.6-14.6-11.6-14.6s5.35-2.2,5.35-2.2c4.16-1.71,7.29-2.69,9.39-2.95,2.12-0.262,4.44,0.0602,6.99,0.978-2.18-0.52-4.36-0.606-6.55-0.265-2.18,0.339-4.91,1.19-8.21,2.54,0,0-5.03,2.07-5.03,2.07s11.1,13.8,11.1,13.8c6.95-2.85,11.5-5.6,13.5-8.23,2.03-2.6,1.77-5.21-0.7-7.82-2.69-2.83-5.94-4.28-9.78-4.4-3.78-0.124-8.6,1.03-14.5,3.45-1.51,0.621-3.32,1.42-5.45,2.4m30.8-12.7c2.55-0.254,5.17,0.0782,7.89,1.01,2.76,0.947,5.17,2.37,7.23,4.28,4.81,4.48,5.44,9.07,1.64,13.7-2.92,3.55-9.98,7.62-21.1,12.2-1.85,0.754-3.42,1.37-4.73,1.83,0,0,13.5,16.7,13.5,16.7s16.4,4.59,16.4,4.59-30.6,12.4-30.6,12.4-2.54-0.654-2.54-0.654,28.6-11.6,28.6-11.6-13.2-3.59-13.2-3.59-14.5-18.3-14.5-18.3c3.23-1.16,6.62-2.46,10.2-3.9,9.32-3.81,15.2-7.7,17.6-11.6,2.35-3.83,1.38-7.72-2.73-11.6-1.65-1.56-3.47-2.72-5.44-3.51-1.95-0.776-4.68-1.43-8.18-1.96l0.000001,0.000001" fill-rule="nonzero"/>
	<path fill="#FFF" d="m163,84.8c-0.003-0.002-2.25-1.99-5.88-0.783,0,0-4.1,1.3-1.38,3.58,1.02,0.85,2.82,1.31,4.66,1.01,1.31-0.215,2.42-0.697,3.07-1.38,0.802-0.846,0.373-1.66-0.484-2.42z"/>
	<path d="m162,85.5c-0.002-0.0012-1.22-1.08-3.19-0.425,0,0-2.23,0.705-0.746,1.94,0.553,0.462,1.53,0.713,2.53,0.548,0.711-0.117,1.31-0.379,1.67-0.752,0.436-0.46,0.202-0.902-0.265-1.31z" stroke="#073a77" stroke-width="1.25443435" fill="#073a77"/>
	<path fill="#FFF" d="m198,104c-0.003-0.002-2.25-1.99-5.87-0.783,0,0-4.1,1.3-1.38,3.58,1.02,0.851,2.82,1.31,4.66,1.01,1.31-0.215,2.42-0.697,3.07-1.38,0.802-0.846,0.372-1.66-0.485-2.42z"/>
	<path d="m197,104c-0.002-0.001-1.22-1.08-3.19-0.425,0,0-2.23,0.705-0.746,1.94,0.552,0.462,1.53,0.712,2.53,0.548,0.712-0.117,1.31-0.379,1.67-0.752,0.435-0.46,0.201-0.901-0.264-1.31z" stroke="#073a77" stroke-width="1.25443435" fill="#073a77"/>
	<path fill="#FFF" d="m102,82.7c-0.002-0.002-2.25-1.99-5.88-0.783,0,0-4.1,1.3-1.37,3.58,1.02,0.85,2.82,1.31,4.66,1.01,1.31-0.215,2.42-0.697,3.07-1.38,0.801-0.846,0.371-1.66-0.485-2.42z"/>
	<path d="m100,83.3c-0.002-0.0012-1.22-1.08-3.19-0.425,0,0-2.23,0.705-0.745,1.94,0.553,0.462,1.53,0.713,2.53,0.549,0.712-0.117,1.32-0.379,1.67-0.752,0.435-0.46,0.201-0.901-0.265-1.31z" stroke="#073a77" stroke-width="1.25443435" fill="#073a77"/>
	<path fill="#FFF" d="m94.4,88.9c-0.002-0.002-2.25-1.99-5.87-0.784,0,0-4.1,1.3-1.37,3.58,1.02,0.85,2.82,1.31,4.66,1.01,1.31-0.215,2.42-0.698,3.07-1.38,0.802-0.846,0.371-1.66-0.487-2.42z"/>
	<path d="m92.8,89.6c-0.00081-0.000845-1.22-1.08-3.19-0.425,0,0-2.23,0.705-0.745,1.94,0.552,0.462,1.53,0.713,2.53,0.549,0.713-0.117,1.31-0.378,1.67-0.752,0.434-0.46,0.201-0.902-0.265-1.31z" stroke="#073a77" stroke-width="1.25443435" fill="#073a77"/>
	<path fill="#FFF" d="m93.8,126c-0.002-0.001-2.25-1.99-5.88-0.783,0,0-4.1,1.3-1.37,3.58,1.02,0.85,2.82,1.31,4.66,1.01,1.31-0.215,2.42-0.697,3.07-1.38,0.802-0.846,0.372-1.66-0.485-2.42z"/>
	<path d="m92.2,126c-0.00081-0.00071-1.22-1.08-3.19-0.425,0,0-2.23,0.705-0.745,1.94,0.552,0.462,1.53,0.712,2.53,0.549,0.712-0.117,1.32-0.379,1.67-0.752,0.434-0.459,0.201-0.901-0.265-1.31z" stroke="#073a77" stroke-width="1.25443435" fill="#073a77"/>
	<path fill="#FFF" d="m111,137c-0.002-0.002-2.25-1.99-5.88-0.783,0,0-4.1,1.3-1.37,3.58,1.02,0.85,2.82,1.31,4.66,1.01,1.31-0.216,2.42-0.697,3.07-1.38,0.802-0.847,0.371-1.66-0.485-2.42z"/>
	<path d="m109,137c-0.00082-0.00071-1.22-1.08-3.19-0.425,0,0-2.23,0.706-0.747,1.94,0.553,0.462,1.53,0.713,2.53,0.548,0.713-0.117,1.31-0.378,1.67-0.751,0.436-0.46,0.202-0.901-0.264-1.31z" stroke="#073a77" stroke-width="1.25443435" fill="#073a77"/>
	<path fill="#FFF" d="m139,78.7c-0.002-0.002-2.25-1.99-5.87-0.783,0,0-4.1,1.3-1.38,3.58,1.02,0.85,2.82,1.31,4.66,1.01,1.31-0.215,2.42-0.697,3.07-1.38,0.802-0.846,0.372-1.66-0.485-2.42z"/>
	<path d="m137,79.3c-0.002-0.0012-1.22-1.08-3.19-0.426,0,0-2.23,0.706-0.746,1.94,0.552,0.462,1.53,0.713,2.53,0.548,0.713-0.117,1.32-0.378,1.67-0.752,0.435-0.46,0.202-0.901-0.264-1.31z" stroke="#073a77" stroke-width="1.25443435" fill="#073a77"/>
	<path fill="#FFF" d="m141,86.7c-0.002-0.0016-2.01-1.78-5.24-0.698,0,0-3.66,1.16-1.23,3.19,0.908,0.759,2.51,1.17,4.16,0.901,1.17-0.192,2.16-0.622,2.74-1.23,0.715-0.756,0.332-1.48-0.433-2.16z"/>
	<path d="m140,87.3c-0.002-0.0012-1.09-0.966-2.84-0.379,0,0-1.99,0.629-0.665,1.73,0.492,0.413,1.36,0.636,2.26,0.489,0.636-0.104,1.17-0.337,1.49-0.671,0.388-0.41,0.18-0.804-0.235-1.17z" stroke="#073a77" stroke-width="1.25443435" fill="#073a77"/>
	<path fill="#FFF" d="m154,97.9c-0.003-0.002-2.01-1.78-5.24-0.698,0,0-3.66,1.16-1.23,3.19,0.909,0.759,2.51,1.17,4.16,0.901,1.17-0.192,2.16-0.622,2.74-1.23,0.716-0.756,0.333-1.48-0.433-2.16z"/>
	<path d="m152,98.5c-0.002-0.0016-1.09-0.966-2.84-0.379,0,0-1.99,0.629-0.665,1.73,0.493,0.412,1.36,0.636,2.26,0.489,0.635-0.105,1.17-0.337,1.49-0.671,0.388-0.41,0.18-0.804-0.235-1.17z" stroke="#073a77" stroke-width="1.25443435" fill="#073a77"/>
	<path d="m140,89.9,8.76,7.51" stroke="#FFF" stroke-width="1.25441325" fill="none"/>
	<path d="m156,109,9.14-3.26-2.14-5.57,9.01-3.22-9.69-8.35" stroke="#FFF" stroke-width="1.12113333" fill="none"/>
	<path d="m162,114,13.2-4.7,6.74,0.814,12.1-4.35" stroke="#FFF" stroke-width="0.95547575" fill="none"/>
	<path d="m127,109-5.9-5.1,3.1-4.9-4.5-3.9-10-1.9-8.8-7.5" stroke="#FFF" stroke-width="1.22989023" fill="none"/>
	<path d="m120,112-8.78-7.48-14.8-0.246-4.38-3.76,3.01-6.34-2.01-1.72" stroke="#FFF" stroke-width="1.22758102" fill="none"/>
	<path d="m125,119-12.5,4.5-10.9-0.489-8.07,2.88" stroke="#FFF" stroke-width="1.33530974" fill="none"/>
	<path d="m135,127-7.69,2.7-3.21,0.12-5.34,1.9-3.1,4.23-4.9,1.75" stroke="#FFF" stroke-width="1.35244608" fill="none"/>
	<path d="m134,107-5.13-4.41,2.61-4.02-9.61-8.24,3.08-6.2,6.97-2.54" stroke="#FFF" stroke-width="1.23346233" fill="none"/>
	<g style="letter-spacing:0px;word-spacing:0px;" font-family="Sans" transform="matrix(0.46683512,0.40034744,-0.72370494,0.25824924,176.8989,43.545013)" line-height="125%" filter="url(#filter4485)" font-size="5.63964415px" font-weight="normal" font-style="normal" fill="#000">
		<path d="m88.8,129,0.49-0.0771c0.0275,0.196,0.104,0.347,0.23,0.452s0.302,0.157,0.527,0.157c0.228,0,0.397-0.0463,0.507-0.139s0.165-0.201,0.165-0.326c-0.000002-0.112-0.0486-0.2-0.146-0.264-0.0679-0.0441-0.237-0.1-0.507-0.168-0.363-0.0918-0.615-0.171-0.756-0.238s-0.247-0.16-0.319-0.278c-0.0725-0.118-0.109-0.249-0.109-0.392,0-0.13,0.0298-0.251,0.0895-0.362s0.141-0.203,0.244-0.277c0.0771-0.0569,0.182-0.105,0.315-0.145,0.133-0.0395,0.276-0.0592,0.428-0.0592,0.229,0,0.431,0.0331,0.604,0.0991,0.173,0.0661,0.302,0.156,0.384,0.268,0.0826,0.113,0.14,0.264,0.171,0.453l-0.485,0.0661c-0.022-0.151-0.0858-0.268-0.191-0.352-0.106-0.0844-0.255-0.127-0.447-0.127-0.228,0-0.39,0.0376-0.487,0.113s-0.146,0.163-0.146,0.264c-0.000001,0.0643,0.0202,0.122,0.0606,0.173,0.0404,0.0532,0.104,0.0973,0.19,0.132,0.0496,0.0184,0.196,0.0606,0.438,0.127,0.351,0.0936,0.595,0.17,0.734,0.23,0.139,0.0597,0.247,0.146,0.326,0.26,0.0789,0.114,0.118,0.255,0.118,0.424-0.000002,0.165-0.0482,0.321-0.145,0.467-0.0964,0.146-0.235,0.259-0.417,0.339-0.182,0.0799-0.387,0.12-0.617,0.12-0.38,0-0.67-0.0789-0.869-0.237s-0.326-0.392-0.381-0.702z"/>
		<path d="m91.4,130,1.17-4.17,0.397,0-1.17,4.17z"/>
		<path d="m93.4,130,0-2.92,0.446,0,0,0.416c0.215-0.321,0.525-0.482,0.931-0.482,0.176,0,0.338,0.0317,0.486,0.095s0.258,0.146,0.332,0.249c0.0734,0.103,0.125,0.225,0.154,0.366,0.0184,0.0918,0.0275,0.252,0.0275,0.482v1.8h-0.496v-1.78c-0.000002-0.202-0.0193-0.353-0.0578-0.453-0.0386-0.1-0.107-0.18-0.205-0.24-0.0982-0.0597-0.213-0.0895-0.346-0.0895-0.211,0-0.393,0.067-0.547,0.201s-0.23,0.388-0.23,0.763v1.6z"/>
		<path d="m99.8,130-0.496,0,0-3.16c-0.119,0.114-0.276,0.228-0.47,0.341-0.194,0.114-0.368,0.199-0.522,0.256v-0.479c0.277-0.13,0.52-0.288,0.727-0.474,0.207-0.185,0.354-0.365,0.441-0.54h0.319z"/>
		<path d="m101,128c0-0.477,0.0491-0.861,0.147-1.15,0.0982-0.291,0.244-0.515,0.438-0.673s0.437-0.237,0.731-0.237c0.217,0,0.407,0.0436,0.57,0.131,0.163,0.0872,0.298,0.213,0.405,0.377,0.106,0.164,0.19,0.364,0.251,0.6,0.0606,0.236,0.0909,0.554,0.0909,0.954,0,0.474-0.0486,0.856-0.146,1.15-0.0973,0.291-0.243,0.516-0.436,0.675s-0.438,0.238-0.734,0.238c-0.389,0-0.695-0.14-0.917-0.419-0.266-0.336-0.399-0.883-0.399-1.64zm0.509,0c0,0.663,0.0776,1.1,0.233,1.32,0.155,0.219,0.347,0.329,0.574,0.329s0.419-0.11,0.574-0.33,0.233-0.661,0.233-1.32c0-0.665-0.0776-1.11-0.233-1.32-0.155-0.218-0.348-0.328-0.58-0.328-0.228,0.00001-0.409,0.0964-0.545,0.289-0.171,0.246-0.256,0.7-0.256,1.36z"/>
		<path d="m106,130-0.496,0,0-3.16c-0.119,0.114-0.276,0.228-0.47,0.341-0.194,0.114-0.368,0.199-0.522,0.256v-0.479c0.277-0.13,0.52-0.288,0.727-0.474,0.207-0.185,0.354-0.365,0.441-0.54h0.319z"/>
		<path d="m107,128c0-0.477,0.0491-0.861,0.147-1.15,0.0982-0.291,0.244-0.515,0.438-0.673s0.437-0.237,0.731-0.237c0.217,0,0.407,0.0436,0.57,0.131,0.163,0.0872,0.298,0.213,0.405,0.377,0.106,0.164,0.19,0.364,0.251,0.6,0.0606,0.236,0.0909,0.554,0.0909,0.954,0,0.474-0.0486,0.856-0.146,1.15-0.0973,0.291-0.243,0.516-0.436,0.675-0.194,0.159-0.438,0.238-0.734,0.238-0.389,0-0.695-0.14-0.917-0.419-0.266-0.336-0.399-0.883-0.399-1.64zm0.509,0c0,0.663,0.0776,1.1,0.233,1.32,0.155,0.219,0.347,0.329,0.574,0.329,0.228,0,0.419-0.11,0.574-0.33s0.233-0.661,0.233-1.32c0-0.665-0.0776-1.11-0.233-1.32-0.155-0.218-0.348-0.328-0.58-0.328-0.228,0.00001-0.409,0.0964-0.545,0.289-0.171,0.246-0.256,0.7-0.256,1.36z"/>
		<path d="m113,130,0,0.476-2.67,0c-0.004-0.119,0.0156-0.234,0.0578-0.344,0.0679-0.182,0.177-0.361,0.326-0.537,0.15-0.176,0.366-0.38,0.649-0.611,0.439-0.36,0.735-0.645,0.889-0.855s0.231-0.409,0.231-0.596c0-0.196-0.0702-0.362-0.211-0.497-0.14-0.135-0.324-0.202-0.549-0.202-0.239,0.00001-0.43,0.0716-0.573,0.215s-0.216,0.341-0.218,0.595l-0.509-0.0523c0.0349-0.38,0.166-0.67,0.394-0.869s0.533-0.299,0.917-0.299c0.387,0,0.694,0.107,0.92,0.322s0.339,0.481,0.339,0.799c0,0.162-0.0331,0.32-0.0991,0.476-0.0661,0.156-0.176,0.32-0.329,0.493s-0.408,0.409-0.764,0.71c-0.297,0.25-0.488,0.419-0.573,0.508-0.0844,0.089-0.154,0.179-0.209,0.268z"/>
		<path d="m114,129,0.496-0.0661c0.0569,0.281,0.154,0.483,0.291,0.607s0.303,0.186,0.5,0.186c0.233,0,0.43-0.0808,0.591-0.242,0.161-0.162,0.241-0.362,0.241-0.6,0-0.228-0.0743-0.415-0.223-0.563s-0.338-0.222-0.567-0.222c-0.0936,0-0.21,0.0184-0.35,0.0551l0.0551-0.435c0.0331,0.004,0.0597,0.006,0.0799,0.006,0.211,0,0.401-0.0551,0.57-0.165s0.253-0.28,0.253-0.509c0-0.182-0.0615-0.332-0.184-0.452-0.123-0.119-0.282-0.179-0.476-0.179-0.193,0-0.353,0.0606-0.482,0.182s-0.211,0.303-0.248,0.545l-0.496-0.0881c0.0606-0.332,0.198-0.59,0.413-0.772,0.215-0.183,0.482-0.274,0.801-0.274,0.22,0,0.423,0.0473,0.609,0.142,0.185,0.0945,0.327,0.224,0.425,0.387,0.0982,0.163,0.147,0.337,0.147,0.52,0,0.174-0.0468,0.333-0.14,0.476-0.0936,0.143-0.232,0.257-0.416,0.341,0.239,0.0551,0.424,0.169,0.556,0.343,0.132,0.173,0.198,0.391,0.198,0.651-0.00001,0.352-0.129,0.651-0.386,0.896s-0.582,0.368-0.975,0.368c-0.354,0-0.648-0.106-0.883-0.317s-0.368-0.485-0.401-0.821z"/>
		<path d="m117,128c0-0.477,0.0491-0.861,0.147-1.15,0.0982-0.291,0.244-0.515,0.438-0.673s0.437-0.237,0.731-0.237c0.217,0,0.407,0.0436,0.57,0.131s0.298,0.213,0.405,0.377c0.106,0.164,0.19,0.364,0.251,0.6,0.0606,0.236,0.0909,0.554,0.0909,0.954,0,0.474-0.0486,0.856-0.146,1.15-0.0973,0.291-0.243,0.516-0.436,0.675s-0.438,0.238-0.734,0.238c-0.389,0-0.695-0.14-0.917-0.419-0.266-0.336-0.399-0.883-0.399-1.64zm0.509,0c0,0.663,0.0776,1.1,0.233,1.32,0.155,0.219,0.347,0.329,0.574,0.329s0.419-0.11,0.574-0.33,0.233-0.661,0.233-1.32c0-0.665-0.0776-1.11-0.233-1.32-0.155-0.218-0.348-0.328-0.58-0.328-0.228,0.00001-0.409,0.0964-0.545,0.289-0.171,0.246-0.256,0.7-0.256,1.36z"/>
		<path d="m120,129,0.476-0.0441c0.0404,0.224,0.117,0.386,0.231,0.487s0.26,0.151,0.438,0.151c0.152,0,0.286-0.0349,0.401-0.105,0.115-0.0698,0.209-0.163,0.282-0.28,0.0734-0.117,0.135-0.274,0.184-0.472,0.0496-0.198,0.0744-0.4,0.0744-0.606,0-0.022-0.00092-0.0551-0.003-0.0991-0.0991,0.158-0.235,0.286-0.406,0.384-0.172,0.0982-0.358,0.147-0.558,0.147-0.334,0-0.617-0.121-0.848-0.363s-0.347-0.562-0.347-0.958c0-0.409,0.121-0.739,0.362-0.989s0.544-0.375,0.907-0.375c0.263,0,0.503,0.0707,0.72,0.212,0.218,0.141,0.383,0.343,0.496,0.604,0.113,0.262,0.169,0.64,0.169,1.14,0,0.516-0.056,0.927-0.168,1.23-0.112,0.306-0.279,0.538-0.5,0.698s-0.481,0.24-0.778,0.24c-0.316,0-0.574-0.0877-0.774-0.263s-0.32-0.422-0.361-0.739zm2.03-1.78c0-0.285-0.0757-0.51-0.227-0.677s-0.334-0.251-0.547-0.251c-0.22,0.00001-0.412,0.09-0.576,0.27-0.163,0.18-0.245,0.413-0.245,0.699,0,0.257,0.0776,0.466,0.233,0.626,0.155,0.161,0.347,0.241,0.574,0.241,0.229,0.00001,0.418-0.0803,0.566-0.241s0.222-0.383,0.222-0.668z"/>
		<path d="m125,130,0-0.967-1.75,0,0-0.454,1.84-2.62,0.405,0,0,2.62,0.545,0,0,0.454-0.545,0,0,0.967zm0-1.42,0-1.82-1.26,1.82z"/>
	</g>
	<path d="m148,103,22,19.2-25.6,12.3l-25-21z" stroke="#393939" stroke-width="1.88168073" fill="url(#linearGradient6329)"/>
</svg>