<?xml version="1.0" encoding="UTF-8" standalone="no"?>

<svg
 xmlns:dc="http://purl.org/dc/elements/1.1/"
   xmlns:cc="http://creativecommons.org/ns#"
   xmlns:rdf="http://www.w3.org/1999/02/22-rdf-syntax-ns#"
   xmlns:svg="http://www.w3.org/2000/svg"
   xmlns="http://www.w3.org/2000/svg"
   xmlns:xlink="http://www.w3.org/1999/xlink"
   xmlns:sodipodi="http://sodipodi.sourceforge.net/DTD/sodipodi-0.dtd"
   xmlns:inkscape="http://www.inkscape.org/namespaces/inkscape"
   id="svg2"
   version="1.1"
   inkscape:version="0.47 r22583"
   width="100"
   height="100"
   sodipodi:docname="assessment_category.svg">
  <metadata
     id="metadata202">
    <rdf:RDF>
      <cc:Work
         rdf:about="">
        <dc:format>image/svg+xml</dc:format>
        <dc:type
           rdf:resource="http://purl.org/dc/dcmitype/StillImage" />
      </cc:Work>
    </rdf:RDF>
  </metadata>
  <defs
     id="defs200">
    <linearGradient
       inkscape:collect="always"
       id="linearGradient3838">
      <stop
         style="stop-color:#ffffff;stop-opacity:1;"
         offset="0"
         id="stop3840" />
      <stop
         style="stop-color:#ffffff;stop-opacity:0;"
         offset="1"
         id="stop3842" />
    </linearGradient>
    <linearGradient
       inkscape:collect="always"
       id="linearGradient3830">
      <stop
         style="stop-color:#ffffff;stop-opacity:1;"
         offset="0"
         id="stop3832" />
      <stop
         style="stop-color:#ffffff;stop-opacity:0;"
         offset="1"
         id="stop3834" />
    </linearGradient>
    <linearGradient
       inkscape:collect="always"
       id="linearGradient3822">
      <stop
         style="stop-color:#e0c170;stop-opacity:1;"
         offset="0"
         id="stop3824" />
      <stop
         style="stop-color:#e0c170;stop-opacity:0;"
         offset="1"
         id="stop3826" />
    </linearGradient>
    <linearGradient
       inkscape:collect="always"
       id="linearGradient3814">
      <stop
         style="stop-color:#f2d791;stop-opacity:1;"
         offset="0"
         id="stop3816" />
      <stop
         style="stop-color:#f2d791;stop-opacity:0;"
         offset="1"
         id="stop3818" />
    </linearGradient>
    <inkscape:perspective
       sodipodi:type="inkscape:persp3d"
       inkscape:vp_x="0 : 0.5 : 1"
       inkscape:vp_y="0 : 1000 : 0"
       inkscape:vp_z="1 : 0.5 : 1"
       inkscape:persp3d-origin="0.5 : 0.33333333 : 1"
       id="perspective204" />
    <linearGradient
       inkscape:collect="always"
       xlink:href="#linearGradient3814"
       id="linearGradient3820"
       x1="20.0931"
       y1="165.20979"
       x2="281.30301"
       y2="165.20979"
       gradientUnits="userSpaceOnUse" />
    <linearGradient
       inkscape:collect="always"
       xlink:href="#linearGradient3822"
       id="linearGradient3828"
       x1="11.1628"
       y1="152.93065"
       x2="238.884"
       y2="152.93065"
       gradientUnits="userSpaceOnUse" />
    <linearGradient
       inkscape:collect="always"
       xlink:href="#linearGradient3830"
       id="linearGradient3836"
       x1="31.255899"
       y1="142.88396"
       x2="227.72099"
       y2="142.88396"
       gradientUnits="userSpaceOnUse" />
    <linearGradient
       inkscape:collect="always"
       xlink:href="#linearGradient3838"
       id="linearGradient3844"
       x1="46.883701"
       y1="154.0466"
       x2="245.582"
       y2="154.0466"
       gradientUnits="userSpaceOnUse" />
  </defs>
  <sodipodi:namedview
     pagecolor="#ffffff"
     bordercolor="#666666"
     borderopacity="1"
     objecttolerance="10"
     gridtolerance="10"
     guidetolerance="10"
     inkscape:pageopacity="0"
     inkscape:pageshadow="2"
     inkscape:window-width="1680"
     inkscape:window-height="994"
     id="namedview198"
     showgrid="false"
     inkscape:zoom="1.7940591"
     inkscape:cx="115.07746"
     inkscape:cy="219.64495"
     inkscape:window-x="-4"
     inkscape:window-y="-4"
     inkscape:window-maximized="1"
     inkscape:current-layer="svg2" />
  <polygon
     points="-1.42109e-14,288 -1.42109e-14,1.42109e-14 288,1.42109e-14 288,288 288,288 "
     style="fill:#ffffff;fill-opacity:0;stroke:none"
     id="polygon4"
     transform="matrix(0.31592782,0,0,0.31592782,0,-8.7792969e-6)" />
  <polygon
     points="243.35,49.2056 241.096,44.6959 241.096,42.4411 236.588,40.1861 234.334,40.1861 126.15,64.9897 126.15,64.9897 103.612,46.9506 15.713,64.9897 11.2053,67.2447 8.95152,69.5 6.69769,71.7547 6.69769,74.0094 13.4592,258.911 13.4592,261.165 15.713,263.42 17.9668,265.675 22.4745,265.675 241.096,216.067 241.096,213.813 243.35,202.538 243.35,170.97 "
     style="fill:#8c4b28;fill-opacity:1;stroke:none"
     id="polygon6"
     transform="matrix(0.31592782,0,0,0.31592782,0,-8.7792969e-6)" />
  <polygon
     points="236.629,46.9068 236.629,49.163 238.884,170.977 238.884,211.582 20.1815,261.21 17.9268,256.698 11.1628,73.9768 13.4175,71.7209 15.6722,71.7209 101.349,51.4188 123.896,71.7209 126.151,71.7209 126.151,71.7209 234.375,44.6513 "
     style="fill:url(#linearGradient3828);fill-opacity:1;stroke:none"
     id="polygon8"
     transform="matrix(0.31592782,0,0,0.31592782,0,-8.7792969e-6)" />
  <polygon
     points="229.954,60.2794 227.697,60.2794 227.697,60.2794 24.5582,107.715 24.5582,252.28 229.954,204.845 "
     style="fill:#666666;fill-opacity:1;stroke:none"
     id="polygon10"
     transform="matrix(0.31592782,0,0,0.31592782,0,-8.7792969e-6)" />
  <polygon
     points="227.721,202.619 29.0232,247.815 29.0232,107.708 227.721,62.5118 227.721,62.5118 "
     style="fill:#ffffff;fill-opacity:1;stroke:none"
     id="polygon12"
     transform="matrix(0.31592782,0,0,0.31592782,0,-8.7792969e-6)" />
  <polygon
     points="232.187,51.3491 229.929,51.3491 229.929,51.3491 38.076,87.5165 26.7908,232.187 220.901,196.019 "
     style="fill:#666666;fill-opacity:1;stroke:none"
     id="polygon14"
     transform="matrix(0.31592782,0,0,0.31592782,0,-8.7792969e-6)" />
  <polygon
     points="218.689,193.769 31.2559,229.954 40.2887,89.7375 227.721,55.8139 227.721,55.8139 "
     style="fill:url(#linearGradient3836);fill-opacity:1;stroke:none"
     id="polygon16"
     transform="matrix(0.31592782,0,0,0.31592782,0,-8.7792969e-6)" />
  <polygon
     points="247.815,60.2794 245.557,60.2794 245.557,60.2794 46.9328,100.955 42.4189,245.582 241.043,204.906 "
     style="fill:#666666;fill-opacity:1;stroke:none"
     id="polygon18"
     transform="matrix(0.31592782,0,0,0.31592782,0,-8.7792969e-6)" />
  <polygon
     points="238.808,202.654 46.8837,243.349 49.1418,103.178 245.582,64.7442 245.582,64.7442 "
     style="fill:url(#linearGradient3844);fill-opacity:1;stroke:none"
     id="polygon20"
     transform="matrix(0.31592782,0,0,0.31592782,0,-8.7792969e-6)" />
  <polygon
     points="276.763,64.7442 143.944,98.6092 143.944,98.6092 132.689,114.413 74.158,130.216 71.907,130.216 69.656,132.474 67.4047,134.731 65.1534,139.247 15.6279,258.902 15.6279,265.675 24.6326,265.675 238.493,216.007 242.996,213.749 245.247,211.491 247.498,206.976 285.768,76.0326 283.517,67.0021 "
     style="fill:#8c4b28;fill-opacity:1;stroke:none"
     id="polygon22"
     transform="matrix(0.31592782,0,0,0.31592782,0,-8.7792969e-6)" />
  <polygon
     points="238.519,209.257 22.3449,261.21 20.0931,261.21 71.8847,139.233 71.8847,136.974 74.1363,134.716 137.187,118.904 146.194,103.092 276.8,69.2096 276.8,69.2096 279.051,71.4683 281.303,73.727 243.022,204.739 "
     style="fill:url(#linearGradient3820);fill-opacity:1;stroke:none"
     id="polygon24"
     transform="matrix(0.31592782,0,0,0.31592782,0,-8.7792969e-6)" />
  <polygon
     points="274.205,142.499 274.205,188.525 277.478,192.066 284.795,140 284.795,140 "
     style="fill:#00cc00;fill-opacity:1;stroke:none"
     id="polygon26"
     transform="matrix(0.31592782,0,0,0.31592782,0,-8.7792969e-6)" />
  <polygon
     points="222.198,160.134 219.595,157.009 219.595,157.009 218.794,158.051 218.794,208.66 222.198,203.036 "
     style="fill:#459e09;fill-opacity:1;stroke:none"
     id="polygon28"
     transform="matrix(0.31592782,0,0,0.31592782,0,-8.7792969e-6)" />
  <polygon
     points="212.364,220.061 212.364,168.003 212.364,168.003 208.96,173.001 208.96,219.852 211.163,222.143 "
     style="fill:#50970b;fill-opacity:1;stroke:none"
     id="polygon30"
     transform="matrix(0.31592782,0,0,0.31592782,0,-8.7792969e-6)" />
  <polygon
     points="205.745,177.983 205.745,216.528 209.149,219.86 209.149,172.981 209.149,172.981 "
     style="fill:#53950b;fill-opacity:1;stroke:none"
     id="polygon32"
     transform="matrix(0.31592782,0,0,0.31592782,0,-8.7792969e-6)" />
  <polygon
     points="195.911,166.966 195.911,205.947 199.315,209.283 199.315,170.719 199.315,170.719 "
     style="fill:#608c0d;fill-opacity:1;stroke:none"
     id="polygon34"
     transform="matrix(0.31592782,0,0,0.31592782,0,-8.7792969e-6)" />
  <polygon
     points="199.126,170.7 199.126,209.264 202.719,213.017 202.719,174.452 202.719,174.452 "
     style="fill:#5b900c;fill-opacity:1;stroke:none"
     id="polygon36"
     transform="matrix(0.31592782,0,0,0.31592782,0,-8.7792969e-6)" />
  <polygon
     points="202.53,174.434 202.53,212.999 205.934,216.543 205.934,177.978 205.934,177.978 "
     style="fill:#57920c;fill-opacity:1;stroke:none"
     id="polygon38"
     transform="matrix(0.31592782,0,0,0.31592782,0,-8.7792969e-6)" />
  <polygon
     points="228.628,167.796 228.628,203.457 232.033,206.794 232.033,171.55 232.033,171.55 "
     style="fill:#37a707;fill-opacity:1;stroke:none"
     id="polygon40"
     transform="matrix(0.31592782,0,0,0.31592782,0,-8.7792969e-6)" />
  <polygon
     points="225.224,163.855 225.224,200.347 228.817,203.475 228.817,167.816 228.817,167.816 "
     style="fill:#3ba508;fill-opacity:1;stroke:none"
     id="polygon42"
     transform="matrix(0.31592782,0,0,0.31592782,0,-8.7792969e-6)" />
  <polygon
     points="225.413,200.35 225.413,163.874 225.413,163.874 222.009,160.121 222.009,203.06 224.412,199.308 "
     style="fill:#40a109;fill-opacity:1;stroke:none"
     id="polygon44"
     transform="matrix(0.31592782,0,0,0.31592782,0,-8.7792969e-6)" />
  <polygon
     points="215.579,163.043 215.579,214.468 218.983,208.639 218.983,158.046 218.983,158.046 "
     style="fill:#479d0a;fill-opacity:1;stroke:none"
     id="polygon46"
     transform="matrix(0.31592782,0,0,0.31592782,0,-8.7792969e-6)" />
  <polygon
     points="212.175,168.022 212.175,220.069 215.768,214.446 215.768,163.025 215.768,163.025 "
     style="fill:#4b9a0a;fill-opacity:1;stroke:none"
     id="polygon48"
     transform="matrix(0.31592782,0,0,0.31592782,0,-8.7792969e-6)" />
  <polygon
     points="267.773,143.945 267.773,181.885 271.177,185.221 271.177,143.111 271.177,143.111 "
     style="fill:#07c700;fill-opacity:1;stroke:none"
     id="polygon50"
     transform="matrix(0.31592782,0,0,0.31592782,0,-8.7792969e-6)" />
  <polygon
     points="267.964,181.887 267.964,143.941 267.964,143.941 264.371,144.776 264.371,184.597 267.564,181.47 "
     style="fill:#0bc401;fill-opacity:1;stroke:none"
     id="polygon52"
     transform="matrix(0.31592782,0,0,0.31592782,0,-8.7792969e-6)" />
  <polygon
     points="257.942,146.226 257.942,191.651 261.346,188.109 261.346,145.601 261.346,145.601 "
     style="fill:#13bf02;fill-opacity:1;stroke:none"
     id="polygon54"
     transform="matrix(0.31592782,0,0,0.31592782,0,-8.7792969e-6)" />
  <polygon
     points="254.726,147.056 254.726,194.969 258.131,191.636 258.131,146.223 258.131,146.223 "
     style="fill:#17bc03;fill-opacity:1;stroke:none"
     id="polygon56"
     transform="matrix(0.31592782,0,0,0.31592782,0,-8.7792969e-6)" />
  <polygon
     points="261.155,145.604 261.155,188.125 264.56,184.582 264.56,144.771 264.56,144.771 "
     style="fill:#10c102;fill-opacity:1;stroke:none"
     id="polygon58"
     transform="matrix(0.31592782,0,0,0.31592782,0,-8.7792969e-6)" />
  <polygon
     points="238.273,151.674 241.866,155.557 241.866,150.164 238.273,151.028 238.273,151.028 "
     style="fill:#2dae06;fill-opacity:1;stroke:none"
     id="polygon60"
     transform="matrix(0.31592782,0,0,0.31592782,0,-8.7792969e-6)" />
  <polygon
     points="238.463,151.824 238.463,150.994 238.084,151.27 238.463,151.824 "
     style="fill:#31ab06;fill-opacity:1;stroke:none"
     id="polygon62"
     transform="matrix(0.31592782,0,0,0.31592782,0,-8.7792969e-6)" />
  <polygon
     points="241.677,155.478 245.081,159.291 245.081,149.334 241.677,150.181 241.677,150.181 "
     style="fill:#29b005;fill-opacity:1;stroke:none"
     id="polygon64"
     transform="matrix(0.31592782,0,0,0.31592782,0,-8.7792969e-6)" />
  <polygon
     points="248.106,162.876 248.106,163.084 248.106,202.022 251.51,198.691 251.51,147.882 251.51,147.882 248.106,148.716 "
     style="fill:#20b604;fill-opacity:1;stroke:none"
     id="polygon66"
     transform="matrix(0.31592782,0,0,0.31592782,0,-8.7792969e-6)" />
  <polygon
     points="244.892,149.343 244.892,159.236 248.296,163.025 248.296,148.712 248.296,148.712 "
     style="fill:#23b404;fill-opacity:1;stroke:none"
     id="polygon68"
     transform="matrix(0.31592782,0,0,0.31592782,0,-8.7792969e-6)" />
  <polygon
     points="244.892,166.777 244.892,205.548 248.296,202.004 248.296,163.025 248.296,163.025 "
     style="fill:#23b404;fill-opacity:1;stroke:none"
     id="polygon70"
     transform="matrix(0.31592782,0,0,0.31592782,0,-8.7792969e-6)" />
  <polygon
     points="241.677,170.511 241.677,209.074 245.081,205.53 245.081,166.758 245.081,166.758 "
     style="fill:#27b205;fill-opacity:1;stroke:none"
     id="polygon72"
     transform="matrix(0.31592782,0,0,0.31592782,0,-8.7792969e-6)" />
  <polygon
     points="238.273,174.244 238.273,212.601 241.866,209.058 241.866,170.492 241.866,170.492 "
     style="fill:#2baf06;fill-opacity:1;stroke:none"
     id="polygon74"
     transform="matrix(0.31592782,0,0,0.31592782,0,-8.7792969e-6)" />
  <polygon
     points="235.058,210.096 238.262,213.016 238.462,212.598 238.462,174.226 236.259,176.728 236.259,176.728 235.058,175.269 "
     style="fill:#31ab06;fill-opacity:1;stroke:none"
     id="polygon76"
     transform="matrix(0.31592782,0,0,0.31592782,0,-8.7792969e-6)" />
  <polygon
     points="270.989,185.206 274.393,188.539 274.393,142.489 270.989,143.114 270.989,143.114 "
     style="fill:#05c800;fill-opacity:1;stroke:none"
     id="polygon78"
     transform="matrix(0.31592782,0,0,0.31592782,0,-8.7792969e-6)" />
  <polygon
     points="251.322,147.886 251.322,198.703 254.914,194.954 254.914,147.052 254.914,147.052 "
     style="fill:#1bba03;fill-opacity:1;stroke:none"
     id="polygon80"
     transform="matrix(0.31592782,0,0,0.31592782,0,-8.7792969e-6)" />
  <polygon
     points="231.843,171.529 231.843,206.776 235.247,210.112 235.247,175.284 235.247,175.284 "
     style="fill:#33aa07;fill-opacity:1;stroke:none"
     id="polygon82"
     transform="matrix(0.31592782,0,0,0.31592782,0,-8.7792969e-6)" />
  <polygon
     points="196.1,166.984 192.697,163.44 192.697,202.42 196.1,205.963 196.1,205.963 "
     style="fill:#65890e;fill-opacity:1;stroke:none"
     id="polygon84"
     transform="matrix(0.31592782,0,0,0.31592782,0,-8.7792969e-6)" />
  <polygon
     points="124.426,141.87 123.826,141.244 123.826,141.244 120.833,143.746 120.833,182.09 124.426,186.257 "
     style="fill:#bb501a;fill-opacity:1;stroke:none"
     id="polygon86"
     transform="matrix(0.31592782,0,0,0.31592782,0,-8.7792969e-6)" />
  <polygon
     points="130.666,150.372 130.666,194.744 134.07,198.911 134.07,154.538 134.07,154.538 "
     style="fill:#af5818;fill-opacity:1;stroke:none"
     id="polygon88"
     transform="matrix(0.31592782,0,0,0.31592782,0,-8.7792969e-6)" />
  <polygon
     points="124.237,141.867 124.237,186.239 127.641,190.613 127.641,146.034 127.641,146.034 "
     style="fill:#b65419;fill-opacity:1;stroke:none"
     id="polygon90"
     transform="matrix(0.31592782,0,0,0.31592782,0,-8.7792969e-6)" />
  <polygon
     points="127.451,146.016 127.451,190.596 130.855,194.762 130.855,150.391 130.855,150.391 "
     style="fill:#b25619;fill-opacity:1;stroke:none"
     id="polygon92"
     transform="matrix(0.31592782,0,0,0.31592782,0,-8.7792969e-6)" />
  <polygon
     points="150.334,170.711 150.334,205.342 153.738,203.464 153.738,168.833 153.738,168.833 "
     style="fill:#966915;fill-opacity:1;stroke:none"
     id="polygon94"
     transform="matrix(0.31592782,0,0,0.31592782,0,-8.7792969e-6)" />
  <polygon
     points="150.523,205.333 150.523,170.7 150.523,170.7 147.728,172.16 146.93,171.326 146.93,207.001 "
     style="fill:#9a6615;fill-opacity:1;stroke:none"
     id="polygon96"
     transform="matrix(0.31592782,0,0,0.31592782,0,-8.7792969e-6)" />
  <polygon
     points="143.715,167.173 143.715,208.867 147.119,206.991 147.119,171.343 147.119,171.343 "
     style="fill:#9f6316;fill-opacity:1;stroke:none"
     id="polygon98"
     transform="matrix(0.31592782,0,0,0.31592782,0,-8.7792969e-6)" />
  <polygon
     points="143.905,208.863 143.905,167.192 143.905,167.192 140.501,163.025 140.501,207.405 142.303,209.697 "
     style="fill:#a26116;fill-opacity:1;stroke:none"
     id="polygon100"
     transform="matrix(0.31592782,0,0,0.31592782,0,-8.7792969e-6)" />
  <polygon
     points="137.286,158.668 137.286,203.249 140.69,207.415 140.69,163.043 140.69,163.043 "
     style="fill:#a65e17;fill-opacity:1;stroke:none"
     id="polygon102"
     transform="matrix(0.31592782,0,0,0.31592782,0,-8.7792969e-6)" />
  <polygon
     points="133.882,154.52 133.882,198.892 137.474,203.266 137.474,158.686 137.474,158.686 "
     style="fill:#aa5c18;fill-opacity:1;stroke:none"
     id="polygon104"
     transform="matrix(0.31592782,0,0,0.31592782,0,-8.7792969e-6)" />
  <polygon
     points="117.806,146.638 114.403,149.557 114.403,184.391 117.806,181.679 117.806,181.679 "
     style="fill:#c54a1b;fill-opacity:1;stroke:none"
     id="polygon106"
     transform="matrix(0.31592782,0,0,0.31592782,0,-8.7792969e-6)" />
  <polygon
     points="176.432,156.19 176.432,190.822 179.836,188.943 179.836,154.312 179.836,154.312 "
     style="fill:#777d10;fill-opacity:1;stroke:none"
     id="polygon108"
     transform="matrix(0.31592782,0,0,0.31592782,0,-8.7792969e-6)" />
  <polygon
     points="183.051,191.858 183.051,152.446 183.051,152.446 179.647,154.323 179.647,188.938 180.048,188.73 "
     style="fill:#738010;fill-opacity:1;stroke:none"
     id="polygon110"
     transform="matrix(0.31592782,0,0,0.31592782,0,-8.7792969e-6)" />
  <polygon
     points="182.862,191.842 186.266,195.384 186.266,155.99 182.862,152.446 182.862,152.446 "
     style="fill:#71810f;fill-opacity:1;stroke:none"
     id="polygon112"
     transform="matrix(0.31592782,0,0,0.31592782,0,-8.7792969e-6)" />
  <polygon
     points="186.077,155.972 186.077,195.368 189.67,198.911 189.67,159.725 189.67,159.725 "
     style="fill:#6b850f;fill-opacity:1;stroke:none"
     id="polygon114"
     transform="matrix(0.31592782,0,0,0.31592782,0,-8.7792969e-6)" />
  <polygon
     points="156.764,166.977 156.764,201.608 160.168,199.73 160.168,165.099 160.168,165.099 "
     style="fill:#8f6d14;fill-opacity:1;stroke:none"
     id="polygon116"
     transform="matrix(0.31592782,0,0,0.31592782,0,-8.7792969e-6)" />
  <polygon
     points="159.979,165.109 159.979,199.741 163.572,197.863 163.572,163.44 163.572,163.44 "
     style="fill:#8a7113;fill-opacity:1;stroke:none"
     id="polygon118"
     transform="matrix(0.31592782,0,0,0.31592782,0,-8.7792969e-6)" />
  <polygon
     points="163.383,163.451 163.383,197.874 166.787,196.205 166.787,161.573 166.787,161.573 "
     style="fill:#867312;fill-opacity:1;stroke:none"
     id="polygon120"
     transform="matrix(0.31592782,0,0,0.31592782,0,-8.7792969e-6)" />
  <polygon
     points="166.598,161.584 166.598,196.215 170.002,194.337 170.002,159.706 170.002,159.706 "
     style="fill:#827612;fill-opacity:1;stroke:none"
     id="polygon122"
     transform="matrix(0.31592782,0,0,0.31592782,0,-8.7792969e-6)" />
  <polygon
     points="189.481,159.706 189.481,198.893 192.885,202.438 192.885,163.458 192.885,163.458 "
     style="fill:#67880e;fill-opacity:1;stroke:none"
     id="polygon124"
     transform="matrix(0.31592782,0,0,0.31592782,0,-8.7792969e-6)" />
  <polygon
     points="173.028,157.849 173.028,192.48 176.621,190.811 176.621,156.179 176.621,156.179 "
     style="fill:#7b7a11;fill-opacity:1;stroke:none"
     id="polygon126"
     transform="matrix(0.31592782,0,0,0.31592782,0,-8.7792969e-6)" />
  <polygon
     points="169.813,159.717 169.813,194.348 173.217,192.47 173.217,157.839 173.217,157.839 "
     style="fill:#7f7811;fill-opacity:1;stroke:none"
     id="polygon128"
     transform="matrix(0.31592782,0,0,0.31592782,0,-8.7792969e-6)" />
  <polygon
     points="153.549,168.844 153.549,203.475 156.953,201.597 156.953,166.966 156.953,166.966 "
     style="fill:#926b14;fill-opacity:1;stroke:none"
     id="polygon130"
     transform="matrix(0.31592782,0,0,0.31592782,0,-8.7792969e-6)" />
  <polygon
     points="75.4444,220.895 75.4444,184.189 75.4444,184.189 74.2431,185.231 72.0403,183.146 72.0403,221.522 "
     style="fill:#f52a22;fill-opacity:1;stroke:none"
     id="polygon132"
     transform="matrix(0.31592782,0,0,0.31592782,0,-8.7792969e-6)" />
  <polygon
     points="68.6364,179.619 68.6364,221.936 72.2299,221.519 72.2299,183.164 72.2299,183.164 "
     style="fill:#fa2723;fill-opacity:1;stroke:none"
     id="polygon134"
     transform="matrix(0.31592782,0,0,0.31592782,0,-8.7792969e-6)" />
  <polygon
     points="63.4745,174.018 50.6706,224.84 68.8258,221.924 68.8258,179.642 68.8258,179.642 "
     style="fill:#ff2424;fill-opacity:1;stroke:none"
     id="polygon136"
     transform="matrix(0.31592782,0,0,0.31592782,0,-8.7792969e-6)" />
  <polygon
     points="111.187,152.462 111.187,187.295 114.591,184.374 114.591,149.541 114.591,149.541 "
     style="fill:#c6491b;fill-opacity:1;stroke:none"
     id="polygon138"
     transform="matrix(0.31592782,0,0,0.31592782,0,-8.7792969e-6)" />
  <polygon
     points="107.783,155.366 107.783,189.991 111.376,187.279 111.376,152.446 111.376,152.446 "
     style="fill:#ca461c;fill-opacity:1;stroke:none"
     id="polygon140"
     transform="matrix(0.31592782,0,0,0.31592782,0,-8.7792969e-6)" />
  <polygon
     points="104.569,158.271 104.569,192.688 107.973,189.977 107.973,155.35 107.973,155.35 "
     style="fill:#cf431d;fill-opacity:1;stroke:none"
     id="polygon142"
     transform="matrix(0.31592782,0,0,0.31592782,0,-8.7792969e-6)" />
  <polygon
     points="91.5195,169.679 91.5195,203.681 94.9231,200.97 94.9231,166.758 94.9231,166.758 "
     style="fill:#df391f;fill-opacity:1;stroke:none"
     id="polygon144"
     transform="matrix(0.31592782,0,0,0.31592782,0,-8.7792969e-6)" />
  <polygon
     points="78.4707,181.294 78.4707,220.484 81.8746,220.067 81.8746,178.374 81.8746,178.374 "
     style="fill:#ef2e21;fill-opacity:1;stroke:none"
     id="polygon146"
     transform="matrix(0.31592782,0,0,0.31592782,0,-8.7792969e-6)" />
  <polygon
     points="81.6852,178.388 81.6852,220.069 85.2787,219.444 85.2787,175.47 85.2787,175.47 "
     style="fill:#ea3121;fill-opacity:1;stroke:none"
     id="polygon148"
     transform="matrix(0.31592782,0,0,0.31592782,0,-8.7792969e-6)" />
  <polygon
     points="85.0896,175.483 85.0896,219.447 88.4935,219.029 88.4935,172.567 88.4935,172.567 "
     style="fill:#e63420;fill-opacity:1;stroke:none"
     id="polygon150"
     transform="matrix(0.31592782,0,0,0.31592782,0,-8.7792969e-6)" />
  <polygon
     points="91.7088,169.663 88.3049,172.579 88.3049,219.031 91.7088,218.407 91.7088,209.242 89.1055,205.7 91.7088,203.616 91.7088,169.663 "
     style="fill:#e2371f;fill-opacity:1;stroke:none"
     id="polygon152"
     transform="matrix(0.31592782,0,0,0.31592782,0,-8.7792969e-6)" />
  <polygon
     points="98.1384,163.872 98.1384,198.082 101.543,195.369 101.543,160.951 101.543,160.951 "
     style="fill:#d63f1e;fill-opacity:1;stroke:none"
     id="polygon154"
     transform="matrix(0.31592782,0,0,0.31592782,0,-8.7792969e-6)" />
  <polygon
     points="101.354,160.966 101.354,195.385 104.758,192.673 104.758,158.254 104.758,158.254 "
     style="fill:#d2411d;fill-opacity:1;stroke:none"
     id="polygon156"
     transform="matrix(0.31592782,0,0,0.31592782,0,-8.7792969e-6)" />
  <polygon
     points="94.7345,166.775 94.7345,200.986 98.3275,198.065 98.3275,163.855 98.3275,163.855 "
     style="fill:#da3c1e;fill-opacity:1;stroke:none"
     id="polygon158"
     transform="matrix(0.31592782,0,0,0.31592782,0,-8.7792969e-6)" />
  <polygon
     points="75.2556,184.199 75.2556,220.899 78.6598,220.481 78.6598,181.279 78.6598,181.279 "
     style="fill:#f22c22;fill-opacity:1;stroke:none"
     id="polygon160"
     transform="matrix(0.31592782,0,0,0.31592782,0,-8.7792969e-6)" />
  <polygon
     points="94.7345,213.846 94.7345,217.995 97.5712,217.559 94.7345,213.846 "
     style="fill:#dd3a1f;fill-opacity:1;stroke:none"
     id="polygon162"
     transform="matrix(0.31592782,0,0,0.31592782,0,-8.7792969e-6)" />
  <polygon
     points="94.9231,213.955 91.5195,209.074 91.5195,218.409 94.9231,217.984 94.9231,217.984 "
     style="fill:#e1371f;fill-opacity:1;stroke:none"
     id="polygon164"
     transform="matrix(0.31592782,0,0,0.31592782,0,-8.7792969e-6)" />
  <polyline
     points="205.871 178.054 182.969 152.477 147.765 172.231    123.729 141.247 74.1398 185.331 63.3516 174.102 50.6706 224.84    97.4198 217.563 89.0917 205.709 119.564 180.133 142.277 209.66    180.13 188.658 211.17 222.137 224.419 199.263 238.236 212.988    267.572 181.38 277.604 191.985 284.795 140 238.236 151.229    248.266 162.873 236.343 176.805 219.688 157.051 205.871 178.054"
     style="stroke:#333333;stroke-width:1"
     id="polyline166"
     transform="matrix(0.31592782,0,0,0.31592782,0,-8.7792969e-6)" />
  <polygon
     points="121.023,182.032 121.023,143.657 121.023,143.657 117.619,146.577 117.619,181.614 119.621,180.155 "
     style="fill:#bf4e1a;fill-opacity:1;stroke:none"
     id="polygon168"
     transform="matrix(0.31592782,0,0,0.31592782,0,-8.7792969e-6)" />
  <polygon
     points="245.219,184.676 245.219,185.748 245.825,185.889 245.219,184.676 "
     style="fill:#fec31f;fill-opacity:1;stroke:none"
     id="polygon170"
     transform="matrix(0.31592782,0,0,0.31592782,0,-8.7792969e-6)" />
  <polygon
     points="227.725,169.882 228.443,169.91 228.774,169.882 229.133,169.882 229.824,169.882 230.458,169.828 230.513,169.8 230.596,169.8 230.762,169.8 231.093,169.8 232.281,169.689 224.772,183.601 224.965,183.518 227.146,183.545 235.069,169.027 238.271,175.623 238.491,174.906 238.795,174.189 239.126,173.471 239.54,172.835 236.973,167.564 237.331,167.067 237.663,166.57 237.911,166.018 238.132,165.466 238.243,164.859 238.325,164.252 238.297,163.589 238.271,163.258 238.243,163.093 238.243,162.954 237.829,163.34 237.442,163.754 237.001,164.114 236.78,164.279 236.67,164.362 236.586,164.473 235.703,165.108 235.234,165.383 234.792,165.66 234.295,165.88 233.826,166.1 233.301,166.267 232.805,166.46 231.756,166.735 231.204,166.819 230.679,166.929 230.071,166.956 229.492,167.012 228.884,167.012 228.305,167.012 227.67,166.956 227.063,166.929 225.793,166.791 225.6,166.735 225.435,166.708 225.103,166.653 224.44,166.515 223.75,166.349 223.088,166.184 222.37,165.963 221.68,165.742 220.245,165.245 220.245,165.245 220.134,166.184 220.106,167.177 220.079,168.199 220.134,169.275 220.576,169.302 221.046,169.358 221.984,169.468 222.867,169.551 223.75,169.661 224.579,169.717 225.407,169.8 225.793,169.8 225.987,169.8 226.207,169.828 227.008,169.882 "
     style="fill:#fec31f;fill-opacity:1;stroke:none"
     id="polygon172"
     transform="matrix(0.31592782,0,0,0.31592782,0,-8.7792969e-6)" />
  <polygon
     points="221.274,262.602 223.866,263.099 226.431,263.513 229.023,263.898 231.091,263.898 231.587,263.871 232.111,263.871 233.159,263.871 235.172,263.816 237.157,263.76 239.087,263.65 240.025,263.567 240.99,263.513 242.837,263.347 244.685,263.182 246.45,262.933 246.863,262.851 247.305,262.795 248.187,262.685 249.869,262.409 250.696,262.244 251.109,262.161 251.551,262.106 253.15,261.747 254.75,261.362 256.293,260.948 257.038,260.728 257.81,260.534 259.244,260.038 260.677,259.542 262.057,259.018 263.408,258.466 264.704,257.859 265.972,257.225 267.186,256.563 268.398,255.902 268.95,255.515 269.226,255.322 269.529,255.157 270.632,254.412 271.68,253.64 272.728,252.84 273.197,252.399 273.693,251.985 274.658,251.103 275.099,250.635 275.568,250.193 276.451,249.283 253.26,201.245 252.957,201.272 251.937,203.782 273.996,249.283 252.957,249.283 244.685,249.283 238.067,249.283 229.933,249.283 191.219,249.283 220.392,195.867 226.65,182.082 226.65,182.082 219.234,195.95 226.65,182.082 188.379,249.559 190.86,250.965 193.37,252.344 195.879,253.64 198.416,254.881 200.925,256.012 203.462,257.114 205.998,258.107 208.536,259.073 211.072,259.9 213.61,260.7 216.146,261.389 218.738,262.051 "
     style="fill:#fec31f;fill-opacity:1;stroke:none"
     id="polygon174"
     transform="matrix(0.31592782,0,0,0.31592782,0,-8.7792969e-6)" />
  <polygon
     points="214.924,167.917 214.813,168.027 214.593,168.22 214.096,168.551 213.793,168.661 213.518,168.772 213.352,168.799 213.214,168.854 212.938,168.937 212.607,168.965 212.442,168.965 212.36,168.965 212.304,168.992 211.973,168.992 211.808,168.992 211.725,168.992 211.67,169.019 210.954,168.937 210.236,168.799 209.465,168.551 208.693,168.275 207.479,167.586 206.266,167.007 203.84,165.932 201.413,165.022 198.988,164.333 197.417,163.864 195.955,163.561 194.494,163.396 193.115,163.368 191.737,163.45 190.441,163.699 189.172,164.084 187.987,164.608 186.801,165.243 185.699,166.014 184.624,166.924 183.603,168 182.583,169.157 181.673,170.481 180.764,171.942 179.964,173.569 178.475,172.273 176.987,171.143 175.525,170.178 174.092,169.434 172.658,168.799 171.224,168.385 169.818,168.138 168.439,168.054 167.033,168.138 165.655,168.385 164.276,168.799 162.953,169.434 161.574,170.178 160.251,171.143 158.928,172.273 157.632,173.569 157.108,174.313 156.612,175.03 156.116,175.691 155.619,176.325 155.123,176.905 154.627,177.456 154.13,177.98 153.662,178.476 152.669,179.304 152.173,179.661 151.704,179.992 151.208,180.269 150.712,180.516 150.215,180.737 149.774,180.93 149.278,181.041 148.782,181.123 147.844,181.178 147.348,181.15 146.879,181.095 146.383,180.985 145.942,180.847 145.446,180.654 144.977,180.434 144.481,180.158 144.04,179.855 143.102,179.138 142.633,178.724 142.192,178.283 140.842,179.717 140.18,180.379 139.518,181.013 138.856,181.591 138.195,182.143 137.533,182.667 136.899,183.163 136.237,183.577 135.576,183.962 134.914,184.321 134.307,184.652 133.645,184.927 133.012,185.176 131.743,185.561 131.081,185.672 130.447,185.755 129.179,185.81 128.517,185.782 127.911,185.727 127.277,185.617 126.67,185.479 126.008,185.286 125.402,185.065 124.189,184.514 123.582,184.183 122.976,183.825 122.369,183.411 121.763,182.971 122.149,183.797 122.672,184.596 122.948,184.955 123.279,185.341 124.051,186.058 85.1014,254.769 100.404,231.815 125.209,186.941 125.898,187.354 126.643,187.795 127.414,188.016 128.187,188.209 160.775,274.117 141.421,274.117 140.566,274.504 129.565,274.504 128.683,274.117 118.537,274.117 118.371,274.228 97.28,274.228 97.1972,274.117 76.2437,274.117 92.7527,243.292 84.4322,255.26 73.6245,274.117 75.6923,275.303 78.3115,276.709 80.9582,278.033 83.605,279.273 86.2794,280.458 88.9262,281.534 91.6005,282.554 94.2748,283.463 96.9767,284.318 99.6512,285.063 102.353,285.724 105.055,286.304 107.784,286.828 110.486,287.241 113.216,287.6 115.973,287.848 118.73,288.041 120.494,288.041 122.259,288.041 123.968,288.013 125.678,287.958 127.332,287.848 128.986,287.738 130.585,287.6 132.184,287.434 133.728,287.213 135.272,286.966 136.761,286.689 138.277,286.414 139.711,286.055 141.145,285.697 142.551,285.311 143.957,284.925 145.28,284.456 146.604,283.988 147.872,283.463 148.506,283.188 149.168,282.94 150.381,282.362 151.594,281.754 152.173,281.423 152.779,281.12 153.358,280.789 153.965,280.486 155.068,279.77 156.171,279.052 156.695,278.667 157.245,278.308 158.321,277.537 159.341,276.709 160.361,275.882 161.326,275 162.292,274.117 129.896,188.457 130.723,188.484 131.578,188.484 132.405,188.402 132.818,188.347 133.259,188.319 133.645,188.209 133.839,188.153 134.059,188.126 134.886,187.933 135.272,187.795 135.686,187.685 136.513,187.382 137.285,186.995 137.671,186.775 137.864,186.664 138.084,186.582 138.856,186.113 139.242,185.838 139.325,185.755 139.435,185.7 139.656,185.589 139.821,185.424 139.904,185.341 140.014,185.286 140.4,185.011 141.172,184.404 141.944,183.715 142.716,183.025 143.157,183.439 143.626,183.852 144.095,184.211 144.619,184.542 145.115,184.79 145.666,185.038 146.218,185.231 146.824,185.396 147.403,185.479 148.01,185.507 148.644,185.507 149.306,185.479 149.967,185.396 150.657,185.258 151.346,185.093 152.09,184.901 154.213,184.183 155.343,183.852 156.529,183.521 159.038,182.805 160.334,182.474 161.74,182.143 163.146,181.757 164.607,181.426 166.124,181.041 167.695,180.71 169.267,180.323 170.949,179.992 174.395,179.276 174.395,216.579 173.374,220.907 172.437,225.346 171.528,229.867 170.728,234.499 170.315,236.815 169.956,239.186 169.267,243.983 168.633,248.836 168.082,253.826 167.943,255.535 167.888,257.162 167.833,258.706 167.861,260.167 167.888,261.518 167.998,262.814 168.108,264.027 168.302,265.157 168.495,266.15 168.742,267.087 169.019,267.942 169.377,268.714 169.735,269.375 170.149,269.982 170.59,270.478 171.114,270.919 170.728,271.471 170.479,272.05 170.315,272.601 170.287,273.18 170.315,273.676 170.369,273.924 170.479,274.201 170.728,274.697 171.114,275.192 170.342,276.075 169.735,276.957 169.46,277.371 169.267,277.812 169.073,278.225 168.936,278.667 168.798,279.052 168.716,279.467 168.633,280.293 168.688,281.066 168.908,281.838 169.019,282.168 169.183,282.526 169.598,283.216 170.066,283.85 170.673,284.456 171.334,285.008 172.134,285.559 173.016,286.055 174.036,286.524 170.756,287.544 169.183,288.069 167.667,288.619 166.151,289.171 164.745,289.75 162.016,290.936 160.665,291.514 159.424,292.121 157.026,293.417 154.792,294.713 152.724,296.091 150.822,297.47 149.085,298.93 147.513,300.392 146.769,301.164 146.135,301.963 144.894,303.536 143.874,305.161 143.405,305.989 142.992,306.844 142.303,308.581 144.122,309.325 145.997,310.014 147.844,310.676 149.719,311.31 151.594,311.889 153.469,312.413 155.343,312.909 157.245,313.378 159.121,313.763 161.023,314.122 162.898,314.425 164.828,314.728 166.73,314.949 168.66,315.143 170.59,315.308 172.52,315.446 172.078,315.5 172.713,315.5 173.292,315.5 173.761,315.5 174.202,315.5 174.533,315.5 174.808,315.5 174.974,315.5 175.111,315.528 177.372,315.5 179.661,315.446 181.949,315.308 184.265,315.169 186.581,314.922 188.897,314.618 191.212,314.26 193.584,313.874 195.9,313.378 198.243,312.854 200.587,312.248 202.958,311.613 205.329,310.868 207.7,310.124 210.071,309.297 212.497,308.443 212.084,307.422 211.67,306.43 211.201,305.465 210.705,304.527 210.154,303.59 209.575,302.708 208.94,301.826 208.279,300.998 207.562,300.144 206.818,299.317 206.019,298.517 205.191,297.745 204.309,296.974 203.399,296.256 202.434,295.54 201.441,294.878 200.394,294.189 199.319,293.527 198.188,292.893 197.03,292.286 195.818,291.68 194.576,291.128 193.28,290.577 191.957,290.053 190.579,289.529 189.172,289.034 187.711,288.564 186.223,288.123 184.678,287.682 183.107,287.269 181.481,286.883 179.826,286.524 180.46,286.304 181.067,286.055 181.619,285.78 182.142,285.504 182.363,285.311 182.61,285.146 183.052,284.787 183.465,284.402 183.852,284.015 183.906,283.878 183.99,283.768 184.155,283.547 184.43,283.078 184.651,282.582 184.734,282.306 184.844,282.057 184.899,281.754 184.981,281.479 185.092,280.9 185.12,280.569 185.175,280.266 185.23,279.632 185.175,279.025 185.12,278.859 185.092,278.805 185.092,278.777 185.092,278.722 185.037,278.446 184.816,277.84 184.651,277.537 184.514,277.261 184.293,276.93 184.182,276.765 184.127,276.681 184.1,276.627 183.631,276.02 183.328,275.689 183.052,275.386 182.418,274.779 182.748,274.173 183.025,273.621 183.19,273.07 183.245,272.546 183.19,272.022 183.025,271.553 182.748,271.085 182.418,270.644 182.528,270.478 182.583,270.396 182.666,270.341 182.941,270.037 183.19,269.706 183.465,269.403 183.686,269.017 183.796,268.824 183.934,268.658 184.375,267.886 184.761,267.005 184.927,266.536 185.12,266.095 185.258,265.599 185.423,265.102 185.699,264.082 185.699,263.916 185.726,263.779 185.781,263.503 185.892,262.951 186.057,261.766 186.112,261.132 186.14,260.801 186.195,260.498 186.305,259.202 186.305,258.485 186.305,258.127 186.333,257.796 186.333,257.079 186.361,256.363 186.333,255.59 186.333,254.846 186.277,253.274 185.836,249.029 185.589,246.878 185.505,246.327 185.451,245.803 185.34,244.756 185.175,243.653 185.092,243.101 185.037,242.577 184.761,240.427 184.43,238.249 184.127,236.098 183.382,231.687 182.997,229.454 182.61,227.248 182.17,224.988 181.729,222.754 180.791,218.232 180.791,178.035 184.678,177.346 188.704,176.74 192.839,176.16 197.086,175.691 201.387,175.223 205.853,174.809 210.43,174.451 215.117,174.148 215.723,173.569 215.723,172.989 215.171,169.323 215.53,169.323 215.53,168.413 216.412,168.413 216.412,167.917 218.673,167.917 218.673,167.917 218.866,166.345 219.279,164.856 218.232,164.387 217.185,163.919 216.908,164.746 216.743,165.133 216.605,165.518 216.274,166.208 216.164,166.345 216.081,166.511 215.916,166.842 215.696,167.089 215.502,167.366 215.061,167.834 214.978,167.862 "
     style="fill:#fec31f;fill-opacity:1;stroke:none"
     id="polygon176"
     transform="matrix(0.31592782,0,0,0.31592782,0,-8.7792969e-6)" />
  <polygon
     points="174.569,315.059 173.163,315.336 173.163,315.059 174.569,315.059 "
     style="fill:#fec31f;fill-opacity:1;stroke:none"
     id="polygon178"
     transform="matrix(0.31592782,0,0,0.31592782,0,-8.7792969e-6)" />
  <polyline
     points="128.204 188.232 127.425 188.035 126.646 187.809    125.895 187.359 125.199 186.936"
     style="stroke:#999999;stroke-width:1"
     id="polyline180"
     transform="matrix(0.31592782,0,0,0.31592782,0,-8.7792969e-6)" />
  <polyline
     points="174.403 179.273 170.956 179.989 169.273 180.32    167.702 180.707 166.13 181.038 164.613 181.423 163.151 181.754    161.744 182.14 160.339 182.471 159.042 182.802 156.532 183.519    155.346 183.849 154.216 184.18 152.092 184.898 151.347 185.091    150.658 185.256 149.968 185.394 149.307 185.476 148.645 185.504    148.01 185.504 147.404 185.476 146.824 185.394 146.218 185.229    145.666 185.035 145.114 184.788 144.618 184.539 144.094 184.208    143.625 183.849 143.156 183.436 142.715 183.023 141.943 183.712    141.171 184.401 140.398 185.008 140.012 185.284 139.902 185.339    139.819 185.422 139.654 185.587 139.433 185.697 139.323 185.753    139.24 185.835 138.854 186.111 138.082 186.579 137.861 186.662    137.668 186.772 137.282 186.993 136.51 187.379 135.682 187.683    135.269 187.793 134.883 187.93 134.055 188.124 133.835 188.151    133.641 188.206 133.255 188.317 132.814 188.345 132.401 188.399    131.573 188.482 130.718 188.482 129.891 188.455 162.296 274.122    161.331 275.004 160.365 275.887 159.345 276.713 158.324 277.54    157.249 278.312 156.698 278.671 156.174 279.057 155.071 279.775    153.967 280.491 153.361 280.794 152.781 281.125 152.175 281.428    151.596 281.759 150.382 282.366 149.169 282.945 148.507 283.193    147.872 283.469 146.604 283.992 145.28 284.461 143.956 284.931    142.55 285.316 141.143 285.702 139.709 286.06 138.275 286.419    136.758 286.695 135.269 286.971 133.724 287.218 132.18 287.439    130.58 287.605 128.981 287.742 127.326 287.852 125.671 287.963    123.961 288.018 122.251 288.046 120.486 288.046 118.721 288.046"
     style="stroke:#999999;stroke-width:2"
     id="polyline182"
     transform="matrix(0.31592782,0,0,0.31592782,0,-8.7792969e-6)" />
  <polyline
     points="215.117 174.146 210.429 174.449 205.849 174.808    201.381 175.221 197.078 175.689 192.83 176.158 188.692 176.738    184.666 177.344 180.777 178.034 180.777 218.231 181.714 222.752    182.155 224.986 182.597 227.247 182.983 229.452 183.369 231.685    184.114 236.097 184.417 238.248 184.748 240.426 185.024 242.576    185.079 243.1 185.162 243.652 185.328 244.755 185.438 245.802    185.493 246.326 185.576 246.877 185.824 249.028 186.266 253.273    186.32 254.845 186.32 255.59 186.348 256.362 186.32 257.078    186.32 257.795 186.293 258.126 186.293 258.485 186.293 259.201    186.183 260.497 186.127 260.8 186.1 261.131 186.045 261.765    185.879 262.951 185.769 263.502 185.714 263.778 185.686 263.916    185.686 264.082 185.411 265.101 185.244 265.598 185.107 266.094    184.913 266.535 184.748 267.004 184.363 267.886 183.921 268.658    183.783 268.824 183.673 269.017 183.452 269.402 183.177 269.705    182.928 270.036 182.653 270.34 182.569 270.395 182.514 270.477    182.404 270.643 182.735 271.085 183.011 271.553 183.177 272.022    183.231 272.546 183.177 273.069 183.011 273.621 182.735 274.172    182.404 274.779 183.038 275.386 183.314 275.689 183.618 276.02    184.086 276.626 184.114 276.681 184.169 276.764 184.279 276.929    184.5 277.26 184.638 277.536 184.803 277.839 185.024 278.446    185.079 278.722 185.079 278.776 185.079 278.804 185.107 278.859    185.162 279.025 185.218 279.631 185.162 280.265 185.107 280.568    185.079 280.899 184.969 281.479 184.887 281.754 184.831 282.057    184.721 282.306 184.638 282.582 184.417 283.078 184.142 283.547    183.976 283.767 183.893 283.878 183.838 284.015 183.452 284.401    183.038 284.787 182.597 285.146 182.348 285.311 182.128 285.503    181.604 285.78 181.052 286.055 180.445 286.303 179.811 286.524    181.467 286.883 183.093 287.268 184.666 287.682 186.21 288.123    187.7 288.564 189.162 289.033 190.569 289.529 191.948 290.053    193.272 290.577 194.568 291.128 195.809 291.68 197.023 292.286    198.182 292.893 199.312 293.527 200.388 294.189 201.436 294.878    202.429 295.539 203.394 296.256 204.305 296.973 205.187 297.745    206.015 298.517 206.814 299.317 207.559 300.144 208.277 300.998    208.938 301.826 209.574 302.708 210.152 303.59 210.704 304.527    211.2 305.465 211.669 306.43 212.083 307.422 212.496 308.443    210.07 309.297 207.697 310.124 205.325 310.868 202.953 311.613    200.581 312.248 198.236 312.854 195.892 313.378 193.575 313.874    191.203 314.26 188.885 314.618 186.569 314.922 184.252 315.169    181.935 315.308 179.646 315.446 177.356 315.5 175.094 315.528    174.956 315.5 174.791 315.5 174.515 315.5 174.184 315.5    173.743 315.5 173.274 315.5 172.694 315.5 172.06 315.5"
     style="stroke:#999999;stroke-width:2"
     id="polyline184"
     transform="matrix(0.31592782,0,0,0.31592782,0,-8.7792969e-6)" />
  <polyline
     points="125.227 186.936 98.0198 235.368"
     style="stroke:#999999;stroke-width:2"
     id="polyline186"
     transform="matrix(0.31592782,0,0,0.31592782,0,-8.7792969e-6)" />
  <polyline
     points="232.29 169.698 231.102 169.813 230.77 169.813    230.605 169.813 230.522 169.813 230.467 169.842 229.831 169.899    229.141 169.899 228.782 169.899 228.45 169.928 227.732 169.899    227.014 169.899 226.212 169.842 225.991 169.813 225.798 169.813    225.411 169.813 224.582 169.727 223.753 169.67 222.87 169.554    221.985 169.468 221.046 169.353 220.576 169.296 220.134 169.267"
     style="stroke:#999999;stroke-width:2"
     id="polyline188"
     transform="matrix(0.31592782,0,0,0.31592782,0,-8.7792969e-6)" />
  <polyline
     points="100.404 231.815 76.2432 274.125"
     style="stroke:#999999;stroke-width:2"
     id="polyline190"
     transform="matrix(0.31592782,0,0,0.31592782,0,-8.7792969e-6)" />
  <polyline
     points="229.01 263.898 231.078 263.898 231.576 263.871    232.099 263.871 233.147 263.871 235.16 263.816 237.147 263.76    239.078 263.65 240.015 263.567 240.98 263.512 242.828 263.347    244.677 263.181 246.441 262.933 246.855 262.85 247.296 262.795    248.179 262.685 249.861 262.408 250.689 262.243 251.103 262.16    251.544 262.105 253.144 261.746 254.744 261.36 256.288 260.946    257.033 260.725 257.805 260.533 259.239 260.036 260.674 259.539    262.053 259.015 263.404 258.463 264.7 257.856 265.969 257.221    267.183 256.56 268.397 255.896 268.947 255.511 269.224 255.318    269.527 255.152 270.63 254.407 271.678 253.634 272.726 252.834    273.196 252.392 273.692 251.979 274.657 251.096 275.098 250.627    275.568 250.186 276.45 249.275 253.254 201.21"
     style="stroke:#999999;stroke-width:2"
     id="polyline192"
     transform="matrix(0.31592782,0,0,0.31592782,0,-8.7792969e-6)" />
  <polyline
     points="236.949 167.558 239.54 172.85"
     style="stroke:#999999;stroke-width:2"
     id="polyline194"
     transform="matrix(0.31592782,0,0,0.31592782,0,-8.7792969e-6)" />
  <polyline
     points="191.218 249.289 234.301 170.605"
     style="stroke:#999999;stroke-width:2"
     id="polyline196"
     transform="matrix(0.31592782,0,0,0.31592782,0,-8.7792969e-6)" />
</svg>
