<?xml version="1.0" encoding="UTF-8" standalone="no"?>

<svg
 xmlns:dc="http://purl.org/dc/elements/1.1/"
   xmlns:cc="http://creativecommons.org/ns#"
   xmlns:rdf="http://www.w3.org/1999/02/22-rdf-syntax-ns#"
   xmlns:svg="http://www.w3.org/2000/svg"
   xmlns="http://www.w3.org/2000/svg"
   xmlns:sodipodi="http://sodipodi.sourceforge.net/DTD/sodipodi-0.dtd"
   xmlns:inkscape="http://www.inkscape.org/namespaces/inkscape"
   id="svg2"
   version="1.1"
   inkscape:version="0.47 r22583"
   width="100"
   height="100"
   sodipodi:docname="assessment.svg">
  <metadata
     id="metadata180">
    <rdf:RDF>
      <cc:Work
         rdf:about="">
        <dc:format>image/svg+xml</dc:format>
        <dc:type
           rdf:resource="http://purl.org/dc/dcmitype/StillImage" />
      </cc:Work>
    </rdf:RDF>
  </metadata>
  <defs
     id="defs178">
    <inkscape:perspective
       sodipodi:type="inkscape:persp3d"
       inkscape:vp_x="0 : 0.5 : 1"
       inkscape:vp_y="0 : 1000 : 0"
       inkscape:vp_z="1 : 0.5 : 1"
       inkscape:persp3d-origin="0.5 : 0.33333333 : 1"
       id="perspective182" />
  </defs>
  <sodipodi:namedview
     pagecolor="#ffffff"
     bordercolor="#666666"
     borderopacity="1"
     objecttolerance="10"
     gridtolerance="10"
     guidetolerance="10"
     inkscape:pageopacity="0"
     inkscape:pageshadow="2"
     inkscape:window-width="1680"
     inkscape:window-height="994"
     id="namedview176"
     showgrid="false"
     inkscape:zoom="1.2685914"
     inkscape:cx="409.02448"
     inkscape:cy="69.883006"
     inkscape:window-x="-4"
     inkscape:window-y="-4"
     inkscape:window-maximized="1"
     inkscape:current-layer="svg2" />
  <polygon
     points="233.722,2.61314 233.722,50.7369 237.145,54.4387 244.795,1.42109e-14 244.795,1.42109e-14 "
     style="fill:#00cc00;fill-opacity:1;stroke:none"
     id="polygon4"
     transform="matrix(0.4068431,0,0,0.4068431,0.20342155,24.926067)" />
  <polygon
     points="179.345,21.0521 176.624,17.7841 176.624,17.7841 175.786,18.8737 175.786,71.789 179.345,65.9094 "
     style="fill:#459e09;fill-opacity:1;stroke:none"
     id="polygon6"
     transform="matrix(0.4068431,0,0,0.4068431,0.20342155,24.926067)" />
  <polygon
     points="169.063,83.7101 169.063,29.279 169.063,29.279 165.504,34.5047 165.504,83.4913 167.807,85.8865 "
     style="fill:#50970b;fill-opacity:1;stroke:none"
     id="polygon8"
     transform="matrix(0.4068431,0,0,0.4068431,0.20342155,24.926067)" />
  <polygon
     points="162.142,39.7142 162.142,80.0159 165.701,83.5003 165.701,34.4845 165.701,34.4845 "
     style="fill:#53950b;fill-opacity:1;stroke:none"
     id="polygon10"
     transform="matrix(0.4068431,0,0,0.4068431,0.20342155,24.926067)" />
  <polygon
     points="151.86,28.1953 151.86,68.9529 155.419,72.4402 155.419,32.119 155.419,32.119 "
     style="fill:#608c0d;fill-opacity:1;stroke:none"
     id="polygon12"
     transform="matrix(0.4068431,0,0,0.4068431,0.20342155,24.926067)" />
  <polygon
     points="155.222,32.0993 155.222,72.4207 158.978,76.3444 158.978,36.0227 158.978,36.0227 "
     style="fill:#5b900c;fill-opacity:1;stroke:none"
     id="polygon14"
     transform="matrix(0.4068431,0,0,0.4068431,0.20342155,24.926067)" />
  <polygon
     points="158.781,36.0032 158.781,76.326 162.34,80.0317 162.34,39.7089 162.34,39.7089 "
     style="fill:#57920c;fill-opacity:1;stroke:none"
     id="polygon16"
     transform="matrix(0.4068431,0,0,0.4068431,0.20342155,24.926067)" />
  <polygon
     points="186.069,29.0626 186.069,66.3492 189.628,69.8381 189.628,32.9878 189.628,32.9878 "
     style="fill:#37a707;fill-opacity:1;stroke:none"
     id="polygon18"
     transform="matrix(0.4068431,0,0,0.4068431,0.20342155,24.926067)" />
  <polygon
     points="182.509,24.9421 182.509,63.097 186.266,66.3679 186.266,29.0839 186.266,29.0839 "
     style="fill:#3ba508;fill-opacity:1;stroke:none"
     id="polygon20"
     transform="matrix(0.4068431,0,0,0.4068431,0.20342155,24.926067)" />
  <polygon
     points="182.707,63.101 182.707,24.962 182.707,24.962 179.148,21.0379 179.148,65.9339 181.66,62.0113 "
     style="fill:#40a109;fill-opacity:1;stroke:none"
     id="polygon22"
     transform="matrix(0.4068431,0,0,0.4068431,0.20342155,24.926067)" />
  <polygon
     points="172.424,24.0934 172.424,77.862 175.983,71.7672 175.983,18.8687 175.983,18.8687 "
     style="fill:#479d0a;fill-opacity:1;stroke:none"
     id="polygon24"
     transform="matrix(0.4068431,0,0,0.4068431,0.20342155,24.926067)" />
  <polygon
     points="168.865,29.2987 168.865,83.7179 172.622,77.8394 172.622,24.074 172.622,24.074 "
     style="fill:#4b9a0a;fill-opacity:1;stroke:none"
     id="polygon26"
     transform="matrix(0.4068431,0,0,0.4068431,0.20342155,24.926067)" />
  <polygon
     points="226.997,4.12529 226.997,43.794 230.557,47.2818 230.557,3.25328 230.557,3.25328 "
     style="fill:#07c700;fill-opacity:1;stroke:none"
     id="polygon28"
     transform="matrix(0.4068431,0,0,0.4068431,0.20342155,24.926067)" />
  <polygon
     points="227.197,43.7963 227.197,4.12029 227.197,4.12029 223.44,4.99362 223.44,46.63 226.779,43.3602 "
     style="fill:#0bc401;fill-opacity:1;stroke:none"
     id="polygon30"
     transform="matrix(0.4068431,0,0,0.4068431,0.20342155,24.926067)" />
  <polygon
     points="216.718,6.50945 216.718,54.0047 220.278,50.3018 220.278,5.8559 220.278,5.8559 "
     style="fill:#13bf02;fill-opacity:1;stroke:none"
     id="polygon32"
     transform="matrix(0.4068431,0,0,0.4068431,0.20342155,24.926067)" />
  <polygon
     points="213.355,7.37751 213.355,57.4743 216.915,53.9889 216.915,6.50656 216.915,6.50656 "
     style="fill:#17bc03;fill-opacity:1;stroke:none"
     id="polygon34"
     transform="matrix(0.4068431,0,0,0.4068431,0.20342155,24.926067)" />
  <polygon
     points="220.078,5.85958 220.078,50.3181 223.638,46.6135 223.638,4.98836 223.638,4.98836 "
     style="fill:#10c102;fill-opacity:1;stroke:none"
     id="polygon36"
     transform="matrix(0.4068431,0,0,0.4068431,0.20342155,24.926067)" />
  <polygon
     points="196.153,12.2066 199.91,16.2659 199.91,10.6271 196.153,11.5301 196.153,11.5301 "
     style="fill:#2dae06;fill-opacity:1;stroke:none"
     id="polygon38"
     transform="matrix(0.4068431,0,0,0.4068431,0.20342155,24.926067)" />
  <polygon
     points="196.351,12.3632 196.351,11.4952 195.955,11.7841 196.351,12.3632 "
     style="fill:#31ab06;fill-opacity:1;stroke:none"
     id="polygon40"
     transform="matrix(0.4068431,0,0,0.4068431,0.20342155,24.926067)" />
  <polygon
     points="199.712,16.1836 203.271,20.1698 203.271,9.75983 199.712,10.6455 199.712,10.6455 "
     style="fill:#29b005;fill-opacity:1;stroke:none"
     id="polygon42"
     transform="matrix(0.4068431,0,0,0.4068431,0.20342155,24.926067)" />
  <polygon
     points="206.434,23.9181 206.434,24.1358 206.434,64.8492 209.993,61.3656 209.993,8.24164 209.993,8.24164 206.434,9.11286 "
     style="fill:#20b604;fill-opacity:1;stroke:none"
     id="polygon44"
     transform="matrix(0.4068431,0,0,0.4068431,0.20342155,24.926067)" />
  <polygon
     points="203.074,9.7693 203.074,20.113 206.633,24.074 206.633,9.10918 206.633,9.10918 "
     style="fill:#23b404;fill-opacity:1;stroke:none"
     id="polygon46"
     transform="matrix(0.4068431,0,0,0.4068431,0.20342155,24.926067)" />
  <polygon
     points="203.074,27.9976 203.074,68.5355 206.633,64.8303 206.633,24.074 206.633,24.074 "
     style="fill:#23b404;fill-opacity:1;stroke:none"
     id="polygon48"
     transform="matrix(0.4068431,0,0,0.4068431,0.20342155,24.926067)" />
  <polygon
     points="199.712,31.9013 199.712,72.2225 203.271,68.517 203.271,27.9779 203.271,27.9779 "
     style="fill:#27b205;fill-opacity:1;stroke:none"
     id="polygon50"
     transform="matrix(0.4068431,0,0,0.4068431,0.20342155,24.926067)" />
  <polygon
     points="196.153,35.805 196.153,75.9103 199.91,72.2051 199.91,31.8816 199.91,31.8816 "
     style="fill:#2baf06;fill-opacity:1;stroke:none"
     id="polygon52"
     transform="matrix(0.4068431,0,0,0.4068431,0.20342155,24.926067)" />
  <polygon
     points="192.791,73.2906 196.141,76.3433 196.35,75.9072 196.35,35.7855 194.047,38.4018 194.047,38.4018 192.791,36.876 "
     style="fill:#31ab06;fill-opacity:1;stroke:none"
     id="polygon54"
     transform="matrix(0.4068431,0,0,0.4068431,0.20342155,24.926067)" />
  <polygon
     points="230.36,47.266 233.919,50.7514 233.919,2.60262 230.36,3.25617 230.36,3.25617 "
     style="fill:#05c800;fill-opacity:1;stroke:none"
     id="polygon56"
     transform="matrix(0.4068431,0,0,0.4068431,0.20342155,24.926067)" />
  <polygon
     points="209.796,8.24558 209.796,61.3782 213.553,57.4588 213.553,7.37357 213.553,7.37357 "
     style="fill:#1bba03;fill-opacity:1;stroke:none"
     id="polygon58"
     transform="matrix(0.4068431,0,0,0.4068431,0.20342155,24.926067)" />
  <polygon
     points="189.429,32.9663 189.429,69.8194 192.989,73.3077 192.989,36.892 192.989,36.892 "
     style="fill:#33aa07;fill-opacity:1;stroke:none"
     id="polygon60"
     transform="matrix(0.4068431,0,0,0.4068431,0.20342155,24.926067)" />
  <polygon
     points="152.058,28.214 148.499,24.5083 148.499,65.2646 152.058,68.9692 152.058,68.9692 "
     style="fill:#65890e;fill-opacity:1;stroke:none"
     id="polygon62"
     transform="matrix(0.4068431,0,0,0.4068431,0.20342155,24.926067)" />
  <polygon
     points="77.1167,1.95486 76.49,1.30105 76.49,1.30105 73.3598,3.91681 73.3598,44.008 77.1167,48.3657 "
     style="fill:#bb501a;fill-opacity:1;stroke:none"
     id="polygon64"
     transform="matrix(0.4068431,0,0,0.4068431,0.20342155,24.926067)" />
  <polygon
     points="83.6414,10.8443 83.6414,57.2393 87.2005,61.5959 87.2005,15.2001 87.2005,15.2001 "
     style="fill:#af5818;fill-opacity:1;stroke:none"
     id="polygon66"
     transform="matrix(0.4068431,0,0,0.4068431,0.20342155,24.926067)" />
  <polygon
     points="76.919,1.95197 76.919,48.3467 80.4781,52.9197 80.4781,6.3086 80.4781,6.3086 "
     style="fill:#b65419;fill-opacity:1;stroke:none"
     id="polygon68"
     transform="matrix(0.4068431,0,0,0.4068431,0.20342155,24.926067)" />
  <polygon
     points="80.2798,6.28967 80.2798,52.9021 83.8386,57.2579 83.8386,10.8642 83.8386,10.8642 "
     style="fill:#b25619;fill-opacity:1;stroke:none"
     id="polygon70"
     transform="matrix(0.4068431,0,0,0.4068431,0.20342155,24.926067)" />
  <polygon
     points="104.206,32.1111 104.206,68.3199 107.765,66.3563 107.765,30.147 107.765,30.147 "
     style="fill:#966915;fill-opacity:1;stroke:none"
     id="polygon72"
     transform="matrix(0.4068431,0,0,0.4068431,0.20342155,24.926067)" />
  <polygon
     points="104.403,68.3102 104.403,32.0993 104.403,32.0993 101.481,33.6261 100.647,32.7539 100.647,70.0544 "
     style="fill:#9a6615;fill-opacity:1;stroke:none"
     id="polygon74"
     transform="matrix(0.4068431,0,0,0.4068431,0.20342155,24.926067)" />
  <polygon
     points="97.285,28.412 97.285,72.0061 100.844,70.0444 100.844,32.7715 100.844,32.7715 "
     style="fill:#9f6316;fill-opacity:1;stroke:none"
     id="polygon76"
     transform="matrix(0.4068431,0,0,0.4068431,0.20342155,24.926067)" />
  <polygon
     points="97.4834,72.0017 97.4834,28.4317 97.4834,28.4317 93.9244,24.074 93.9244,70.4766 95.8083,72.8734 "
     style="fill:#a26116;fill-opacity:1;stroke:none"
     id="polygon78"
     transform="matrix(0.4068431,0,0,0.4068431,0.20342155,24.926067)" />
  <polygon
     points="90.5626,19.5191 90.5626,66.1316 94.1219,70.4874 94.1219,24.0934 94.1219,24.0934 "
     style="fill:#a65e17;fill-opacity:1;stroke:none"
     id="polygon80"
     transform="matrix(0.4068431,0,0,0.4068431,0.20342155,24.926067)" />
  <polygon
     points="87.0036,15.1814 87.0036,61.5762 90.7597,66.1495 90.7597,19.5381 90.7597,19.5381 "
     style="fill:#aa5c18;fill-opacity:1;stroke:none"
     id="polygon82"
     transform="matrix(0.4068431,0,0,0.4068431,0.20342155,24.926067)" />
  <polygon
     points="70.1956,6.94033 66.6366,9.99302 66.6366,46.4142 70.1956,43.5789 70.1956,43.5789 "
     style="fill:#c54a1b;fill-opacity:1;stroke:none"
     id="polygon84"
     transform="matrix(0.4068431,0,0,0.4068431,0.20342155,24.926067)" />
  <polygon
     points="131.494,16.9283 131.494,53.1379 135.053,51.1739 135.053,14.9648 135.053,14.9648 "
     style="fill:#777d10;fill-opacity:1;stroke:none"
     id="polygon86"
     transform="matrix(0.4068431,0,0,0.4068431,0.20342155,24.926067)" />
  <polygon
     points="138.414,54.2213 138.414,13.0131 138.414,13.0131 134.854,14.9756 134.854,51.1689 135.274,50.9512 "
     style="fill:#738010;fill-opacity:1;stroke:none"
     id="polygon88"
     transform="matrix(0.4068431,0,0,0.4068431,0.20342155,24.926067)" />
  <polygon
     points="138.216,54.2045 141.775,57.9086 141.775,16.7188 138.216,13.0131 138.216,13.0131 "
     style="fill:#71810f;fill-opacity:1;stroke:none"
     id="polygon90"
     transform="matrix(0.4068431,0,0,0.4068431,0.20342155,24.926067)" />
  <polygon
     points="141.578,16.7002 141.578,57.891 145.335,61.5959 145.335,20.6235 145.335,20.6235 "
     style="fill:#6b850f;fill-opacity:1;stroke:none"
     id="polygon92"
     transform="matrix(0.4068431,0,0,0.4068431,0.20342155,24.926067)" />
  <polygon
     points="110.929,28.2069 110.929,64.4159 114.488,62.4522 114.488,26.2434 114.488,26.2434 "
     style="fill:#8f6d14;fill-opacity:1;stroke:none"
     id="polygon94"
     transform="matrix(0.4068431,0,0,0.4068431,0.20342155,24.926067)" />
  <polygon
     points="114.29,26.2531 114.29,62.4635 118.047,60.5004 118.047,24.5083 118.047,24.5083 "
     style="fill:#8a7113;fill-opacity:1;stroke:none"
     id="polygon96"
     transform="matrix(0.4068431,0,0,0.4068431,0.20342155,24.926067)" />
  <polygon
     points="117.849,24.5196 117.849,60.5112 121.409,58.7662 121.409,22.5561 121.409,22.5561 "
     style="fill:#867312;fill-opacity:1;stroke:none"
     id="polygon98"
     transform="matrix(0.4068431,0,0,0.4068431,0.20342155,24.926067)" />
  <polygon
     points="121.211,22.5679 121.211,58.7767 124.77,56.8131 124.77,20.6041 124.77,20.6041 "
     style="fill:#827612;fill-opacity:1;stroke:none"
     id="polygon100"
     transform="matrix(0.4068431,0,0,0.4068431,0.20342155,24.926067)" />
  <polygon
     points="145.137,20.6041 145.137,61.5775 148.696,65.2832 148.696,24.5275 148.696,24.5275 "
     style="fill:#67880e;fill-opacity:1;stroke:none"
     id="polygon102"
     transform="matrix(0.4068431,0,0,0.4068431,0.20342155,24.926067)" />
  <polygon
     points="127.934,18.6621 127.934,54.8717 131.691,53.1266 131.691,16.9165 131.691,16.9165 "
     style="fill:#7b7a11;fill-opacity:1;stroke:none"
     id="polygon104"
     transform="matrix(0.4068431,0,0,0.4068431,0.20342155,24.926067)" />
  <polygon
     points="124.573,20.6159 124.573,56.8247 128.132,54.8612 128.132,18.6521 128.132,18.6521 "
     style="fill:#7f7811;fill-opacity:1;stroke:none"
     id="polygon106"
     transform="matrix(0.4068431,0,0,0.4068431,0.20342155,24.926067)" />
  <polygon
     points="107.568,30.1589 107.568,66.3679 111.127,64.4041 111.127,28.1953 111.127,28.1953 "
     style="fill:#926b14;fill-opacity:1;stroke:none"
     id="polygon108"
     transform="matrix(0.4068431,0,0,0.4068431,0.20342155,24.926067)" />
  <polygon
     points="25.9029,84.5821 25.9029,46.2029 25.9029,46.2029 24.6468,47.2925 22.3436,45.1124 22.3436,85.2372 "
     style="fill:#f52a22;fill-opacity:1;stroke:none"
     id="polygon110"
     transform="matrix(0.4068431,0,0,0.4068431,0.20342155,24.926067)" />
  <polygon
     points="18.7846,41.4248 18.7846,85.6702 22.5419,85.234 22.5419,45.1308 22.5419,45.1308 "
     style="fill:#fa2723;fill-opacity:1;stroke:none"
     id="polygon112"
     transform="matrix(0.4068431,0,0,0.4068431,0.20342155,24.926067)" />
  <polygon
     points="13.3875,35.5689 -1.42109e-14,88.7068 18.9826,85.6581 18.9826,41.4493 18.9826,41.4493 "
     style="fill:#ff2424;fill-opacity:1;stroke:none"
     id="polygon114"
     transform="matrix(0.4068431,0,0,0.4068431,0.20342155,24.926067)" />
  <polygon
     points="63.2747,13.0297 63.2747,49.4501 66.834,46.3969 66.834,9.97619 66.834,9.97619 "
     style="fill:#c6491b;fill-opacity:1;stroke:none"
     id="polygon116"
     transform="matrix(0.4068431,0,0,0.4068431,0.20342155,24.926067)" />
  <polygon
     points="59.7157,16.0661 59.7157,52.2691 63.4719,49.4335 63.4719,13.0131 63.4719,13.0131 "
     style="fill:#ca461c;fill-opacity:1;stroke:none"
     id="polygon118"
     transform="matrix(0.4068431,0,0,0.4068431,0.20342155,24.926067)" />
  <polygon
     points="56.3547,19.104 56.3547,55.0894 59.9139,52.2543 59.9139,16.0495 59.9139,16.0495 "
     style="fill:#cf431d;fill-opacity:1;stroke:none"
     id="polygon120"
     transform="matrix(0.4068431,0,0,0.4068431,0.20342155,24.926067)" />
  <polygon
     points="42.7106,31.0322 42.7106,66.5837 46.2694,63.7487 46.2694,27.9779 46.2694,27.9779 "
     style="fill:#df391f;fill-opacity:1;stroke:none"
     id="polygon122"
     transform="matrix(0.4068431,0,0,0.4068431,0.20342155,24.926067)" />
  <polygon
     points="29.0671,43.1757 29.0671,84.152 32.6261,83.7161 32.6261,40.1232 32.6261,40.1232 "
     style="fill:#ef2e21;fill-opacity:1;stroke:none"
     id="polygon124"
     transform="matrix(0.4068431,0,0,0.4068431,0.20342155,24.926067)" />
  <polygon
     points="32.4281,40.138 32.4281,83.7179 36.1854,83.0647 36.1854,37.0871 36.1854,37.0871 "
     style="fill:#ea3121;fill-opacity:1;stroke:none"
     id="polygon126"
     transform="matrix(0.4068431,0,0,0.4068431,0.20342155,24.926067)" />
  <polygon
     points="35.9877,37.1005 35.9877,83.0675 39.5467,82.6311 39.5467,34.0512 39.5467,34.0512 "
     style="fill:#e63420;fill-opacity:1;stroke:none"
     id="polygon128"
     transform="matrix(0.4068431,0,0,0.4068431,0.20342155,24.926067)" />
  <polygon
     points="42.9086,31.0146 39.3495,34.0639 39.3495,82.6333 42.9086,81.9808 42.9086,72.3973 40.1866,68.6942 42.9086,66.5159 42.9086,31.0146 "
     style="fill:#e2371f;fill-opacity:1;stroke:none"
     id="polygon130"
     transform="matrix(0.4068431,0,0,0.4068431,0.20342155,24.926067)" />
  <polygon
     points="49.6312,24.9597 49.6312,60.7289 53.1905,57.892 53.1905,21.9054 53.1905,21.9054 "
     style="fill:#d63f1e;fill-opacity:1;stroke:none"
     id="polygon132"
     transform="matrix(0.4068431,0,0,0.4068431,0.20342155,24.926067)" />
  <polygon
     points="52.9931,21.9214 52.9931,57.9094 56.5521,55.0738 56.5521,19.0862 56.5521,19.0862 "
     style="fill:#d2411d;fill-opacity:1;stroke:none"
     id="polygon134"
     transform="matrix(0.4068431,0,0,0.4068431,0.20342155,24.926067)" />
  <polygon
     points="46.0722,27.9953 46.0722,63.765 49.8289,60.7113 49.8289,24.9421 49.8289,24.9421 "
     style="fill:#da3c1e;fill-opacity:1;stroke:none"
     id="polygon136"
     transform="matrix(0.4068431,0,0,0.4068431,0.20342155,24.926067)" />
  <polygon
     points="25.7055,46.2136 25.7055,84.5863 29.2648,84.1491 29.2648,43.1601 29.2648,43.1601 "
     style="fill:#f22c22;fill-opacity:1;stroke:none"
     id="polygon138"
     transform="matrix(0.4068431,0,0,0.4068431,0.20342155,24.926067)" />
  <polygon
     points="46.0722,77.2116 46.0722,81.5494 49.0381,81.0938 46.0722,77.2116 "
     style="fill:#dd3a1f;fill-opacity:1;stroke:none"
     id="polygon140"
     transform="matrix(0.4068431,0,0,0.4068431,0.20342155,24.926067)" />
  <polygon
     points="46.2694,77.3252 42.7106,72.2225 42.7106,81.9826 46.2694,81.5386 46.2694,81.5386 "
     style="fill:#e1371f;fill-opacity:1;stroke:none"
     id="polygon142"
     transform="matrix(0.4068431,0,0,0.4068431,0.20342155,24.926067)" />
  <polyline
     points="162.274 39.7886 138.328 13.0452 101.52 33.6995    76.3877 1.3042 24.5388 47.3972 13.2589 35.6562 -1.42109e-014 88.7068    48.8799 81.098 40.1721 68.7037 72.033 41.9616 95.7818 72.8353    135.359 50.8757 167.814 85.8805 181.667 61.9645 196.114 76.3141    226.787 43.2661 237.276 54.3546 244.795 1.42109e-014 196.114 11.7412    206.601 23.916 194.135 38.482 176.72 17.8282 162.274 39.7886"
     style="stroke:#333333;stroke-width:1"
     id="polyline144"
     transform="matrix(0.4068431,0,0,0.4068431,0.20342155,24.926067)" />
  <polygon
     points="73.559,43.9476 73.559,3.82328 73.559,3.82328 70,6.87676 70,43.5106 72.0929,41.9848 "
     style="fill:#bf4e1a;fill-opacity:1;stroke:none"
     id="polygon146"
     transform="matrix(0.4068431,0,0,0.4068431,0.20342155,24.926067)" />
  <polygon
     points="203.415,46.712 203.415,47.833 204.049,47.98 203.415,46.712 "
     style="fill:#fec31f;fill-opacity:1;stroke:none"
     id="polygon148"
     transform="matrix(0.4068431,0,0,0.4068431,0.20342155,24.926067)" />
  <polygon
     points="185.124,31.244 185.874,31.273 186.221,31.244 186.596,31.244 187.318,31.244 187.981,31.187 188.039,31.158 188.126,31.158 188.299,31.158 188.645,31.158 189.887,31.042 182.036,45.588 182.238,45.501 184.518,45.53 192.802,30.35 196.15,37.247 196.38,36.497 196.698,35.747 197.044,34.996 197.477,34.332 194.793,28.82 195.168,28.301 195.515,27.781 195.774,27.204 196.005,26.627 196.121,25.992 196.207,25.357 196.178,24.664 196.15,24.318 196.121,24.145 196.121,24 195.688,24.404 195.284,24.837 194.822,25.213 194.591,25.386 194.476,25.472 194.389,25.588 193.465,26.252 192.975,26.54 192.513,26.829 191.993,27.06 191.503,27.29 190.954,27.464 190.435,27.666 189.338,27.954 188.761,28.041 188.212,28.156 187.577,28.185 186.971,28.243 186.336,28.243 185.73,28.243 185.066,28.185 184.432,28.156 183.104,28.012 182.902,27.954 182.729,27.925 182.382,27.868 181.689,27.723 180.968,27.55 180.275,27.377 179.525,27.146 178.803,26.915 177.303,26.396 177.303,26.396 177.187,27.377 177.158,28.416 177.129,29.484 177.187,30.609 177.649,30.638 178.14,30.696 179.121,30.811 180.044,30.898 180.968,31.013 181.834,31.071 182.7,31.158 183.104,31.158 183.306,31.158 183.537,31.187 184.374,31.244 "
     style="fill:#fec31f;fill-opacity:1;stroke:none"
     id="polygon150"
     transform="matrix(0.4068431,0,0,0.4068431,0.20342155,24.926067)" />
  <polygon
     points="178.379,128.19 181.089,128.709 183.771,129.142 186.481,129.545 188.643,129.545 189.162,129.517 189.71,129.517 190.805,129.517 192.91,129.459 194.986,129.401 197.004,129.286 197.984,129.199 198.993,129.142 200.925,128.969 202.857,128.796 204.702,128.536 205.134,128.45 205.596,128.392 206.518,128.277 208.277,127.988 209.142,127.815 209.574,127.729 210.036,127.671 211.708,127.296 213.38,126.893 214.994,126.46 215.773,126.23 216.58,126.028 218.079,125.509 219.578,124.99 221.02,124.442 222.433,123.865 223.788,123.231 225.114,122.568 226.383,121.876 227.651,121.184 228.228,120.78 228.516,120.578 228.833,120.405 229.986,119.627 231.082,118.819 232.178,117.983 232.668,117.522 233.187,117.089 234.196,116.167 234.657,115.677 235.147,115.215 236.07,114.264 211.823,64.036 211.506,64.065 210.439,66.689 233.504,114.264 211.506,114.264 202.857,114.264 195.937,114.264 187.432,114.264 146.954,114.264 177.457,58.413 184,44 184,44 176.246,58.5 184,44 143.984,114.552 146.579,116.022 149.203,117.464 151.826,118.819 154.479,120.117 157.102,121.299 159.755,122.452 162.407,123.49 165.06,124.5 167.712,125.365 170.365,126.201 173.017,126.922 175.727,127.614 "
     style="fill:#fec31f;fill-opacity:1;stroke:none"
     id="polygon152"
     transform="matrix(0.4068431,0,0,0.4068431,0.20342155,24.926067)" />
  <polygon
     points="171.739,29.189 171.623,29.304 171.393,29.506 170.874,29.852 170.557,29.967 170.269,30.083 170.096,30.112 169.951,30.169 169.663,30.256 169.317,30.285 169.144,30.285 169.058,30.285 169,30.313 168.654,30.313 168.481,30.313 168.395,30.313 168.337,30.342 167.588,30.256 166.838,30.112 166.031,29.852 165.224,29.564 163.955,28.843 162.687,28.238 160.15,27.114 157.613,26.162 155.077,25.442 153.434,24.952 151.906,24.635 150.378,24.462 148.936,24.433 147.495,24.519 146.14,24.779 144.814,25.182 143.575,25.73 142.335,26.393 141.182,27.2 140.058,28.151 138.991,29.276 137.924,30.486 136.973,31.87 136.022,33.398 135.186,35.099 133.629,33.744 132.073,32.562 130.545,31.553 129.046,30.775 127.547,30.112 126.048,29.679 124.578,29.42 123.136,29.333 121.666,29.42 120.225,29.679 118.783,30.112 117.4,30.775 115.958,31.553 114.575,32.562 113.191,33.744 111.836,35.099 111.288,35.877 110.77,36.627 110.251,37.318 109.732,37.981 109.213,38.587 108.694,39.163 108.175,39.711 107.685,40.23 106.647,41.095 106.128,41.469 105.638,41.815 105.12,42.104 104.601,42.363 104.082,42.594 103.621,42.795 103.101,42.911 102.583,42.997 101.602,43.055 101.084,43.026 100.594,42.968 100.075,42.853 99.6136,42.709 99.0946,42.507 98.6045,42.277 98.0857,41.988 97.6245,41.671 96.6443,40.922 96.1542,40.489 95.693,40.028 94.2806,41.527 93.5886,42.219 92.8968,42.882 92.2049,43.487 91.5131,44.064 90.8214,44.612 90.1583,45.13 89.4663,45.563 88.7746,45.966 88.0826,46.341 87.4485,46.687 86.7565,46.975 86.0937,47.235 84.7676,47.638 84.0757,47.754 83.4126,47.84 82.0868,47.898 81.3948,47.869 80.7607,47.811 80.0976,47.696 79.4633,47.552 78.7715,47.35 78.1374,47.119 76.869,46.543 76.2347,46.197 75.6006,45.822 74.9665,45.39 74.3321,44.929 74.7356,45.793 75.2834,46.629 75.5716,47.004 75.9177,47.408 76.7248,48.157 36,120 52,96 77.9356,49.08 78.6563,49.512 79.4346,49.973 80.2416,50.204 81.0489,50.406 115.122,140.23 94.886,140.23 93.9923,140.634 82.4903,140.634 81.5677,140.23 70.9593,140.23 70.7863,140.346 48.7337,140.346 48.6471,140.23 26.7386,140.23 44,108 35.3003,120.513 24,140.23 26.1621,141.47 28.9007,142.94 31.668,144.324 34.4354,145.621 37.2317,146.86 39.9991,147.985 42.7953,149.051 45.5915,150.002 48.4165,150.896 51.2129,151.674 54.0378,152.366 56.8629,152.972 59.7167,153.52 62.5418,153.952 65.3956,154.327 68.2784,154.586 71.1611,154.788 73.006,154.788 74.8509,154.788 76.6384,154.759 78.4257,154.701 80.1553,154.586 81.8849,154.471 83.5568,154.327 85.2288,154.154 86.8431,153.923 88.4574,153.664 90.0141,153.375 91.5997,153.087 93.0985,152.712 94.5975,152.337 96.0678,151.934 97.5379,151.53 98.9216,151.04 100.305,150.55 101.631,150.002 102.294,149.714 102.986,149.455 104.255,148.85 105.523,148.215 106.128,147.869 106.763,147.552 107.368,147.206 108.002,146.889 109.155,146.14 110.308,145.39 110.856,144.987 111.432,144.612 112.557,143.805 113.623,142.94 114.69,142.075 115.699,141.153 116.708,140.23 82.8362,50.665 83.7011,50.694 84.5947,50.694 85.4594,50.608 85.8918,50.55 86.353,50.521 86.7565,50.406 86.9584,50.348 87.189,50.319 88.0539,50.118 88.4574,49.973 88.8899,49.858 89.7546,49.541 90.5618,49.137 90.9654,48.907 91.1672,48.791 91.3978,48.705 92.2049,48.215 92.6086,47.927 92.695,47.84 92.8103,47.783 93.0408,47.667 93.214,47.494 93.3004,47.408 93.4157,47.35 93.8192,47.062 94.6264,46.428 95.4335,45.707 96.2408,44.986 96.7019,45.419 97.192,45.851 97.6821,46.226 98.2299,46.572 98.7487,46.831 99.3252,47.091 99.9018,47.292 100.536,47.465 101.141,47.552 101.775,47.581 102.438,47.581 103.131,47.552 103.822,47.465 104.543,47.321 105.264,47.148 106.042,46.947 108.262,46.197 109.443,45.851 110.683,45.505 113.306,44.756 114.661,44.41 116.131,44.064 117.601,43.66 119.129,43.314 120.715,42.911 122.358,42.565 124.001,42.161 125.76,41.815 129.363,41.066 129.363,80.069 128.296,84.594 127.316,89.236 126.365,93.963 125.529,98.806 125.097,101.228 124.722,103.707 124.001,108.722 123.338,113.796 122.762,119.014 122.617,120.801 122.56,122.502 122.502,124.116 122.531,125.644 122.56,127.056 122.675,128.411 122.79,129.68 122.992,130.861 123.194,131.899 123.453,132.879 123.742,133.773 124.116,134.58 124.491,135.272 124.924,135.906 125.385,136.425 125.933,136.886 125.529,137.463 125.269,138.068 125.097,138.645 125.068,139.25 125.097,139.769 125.154,140.028 125.269,140.317 125.529,140.836 125.933,141.354 125.125,142.277 124.491,143.199 124.203,143.632 124.001,144.093 123.799,144.525 123.655,144.987 123.511,145.39 123.425,145.823 123.338,146.687 123.396,147.495 123.626,148.302 123.742,148.648 123.914,149.022 124.347,149.743 124.837,150.406 125.471,151.04 126.163,151.617 126.999,152.193 127.921,152.712 128.988,153.202 125.558,154.269 123.914,154.817 122.329,155.393 120.743,155.97 119.273,156.575 116.42,157.815 115.007,158.42 113.71,159.054 111.202,160.409 108.867,161.764 106.705,163.205 104.716,164.647 102.9,166.174 101.257,167.702 100.478,168.509 99.8153,169.345 98.5181,170.989 97.4516,172.689 96.9614,173.554 96.529,174.448 95.8083,176.264 97.7108,177.042 99.6713,177.763 101.602,178.455 103.563,179.118 105.523,179.723 107.483,180.271 109.443,180.79 111.432,181.28 113.393,181.683 115.382,182.058 117.342,182.375 119.36,182.692 121.349,182.923 123.367,183.125 125.385,183.298 127.403,183.442 126.941,183.499 127.604,183.499 128.21,183.499 128.7,183.499 129.161,183.499 129.507,183.499 129.795,183.499 129.968,183.499 130.112,183.528 132.476,183.499 134.869,183.442 137.261,183.298 139.683,183.153 142.104,182.894 144.526,182.577 146.947,182.202 149.427,181.799 151.848,181.28 154.298,180.732 156.749,180.098 159.228,179.435 161.707,178.656 164.186,177.878 166.665,177.013 169.202,176.12 168.77,175.053 168.337,174.015 167.847,173.006 167.328,172.026 166.752,171.046 166.146,170.124 165.483,169.201 164.791,168.336 164.042,167.443 163.264,166.578 162.428,165.742 161.563,164.935 160.64,164.128 159.689,163.378 158.68,162.629 157.642,161.937 156.547,161.216 155.423,160.524 154.241,159.861 153.03,159.227 151.762,158.593 150.464,158.016 149.109,157.44 147.726,156.892 146.285,156.344 144.814,155.826 143.286,155.335 141.73,154.874 140.115,154.413 138.472,153.981 136.772,153.577 135.042,153.202 135.705,152.972 136.339,152.712 136.916,152.424 137.463,152.136 137.694,151.934 137.953,151.761 138.415,151.386 138.847,150.983 139.251,150.579 139.308,150.435 139.395,150.32 139.568,150.089 139.856,149.599 140.087,149.08 140.173,148.792 140.288,148.532 140.346,148.215 140.432,147.927 140.548,147.322 140.577,146.976 140.634,146.659 140.692,145.996 140.634,145.361 140.577,145.188 140.548,145.131 140.548,145.102 140.548,145.044 140.49,144.756 140.259,144.122 140.087,143.805 139.943,143.517 139.712,143.171 139.596,142.998 139.539,142.911 139.51,142.854 139.02,142.219 138.703,141.873 138.415,141.556 137.752,140.922 138.097,140.288 138.386,139.711 138.559,139.135 138.616,138.587 138.559,138.039 138.386,137.549 138.097,137.059 137.752,136.598 137.867,136.425 137.924,136.339 138.011,136.281 138.299,135.964 138.559,135.618 138.847,135.301 139.078,134.897 139.193,134.695 139.337,134.522 139.798,133.715 140.202,132.793 140.375,132.303 140.577,131.842 140.721,131.323 140.894,130.804 141.182,129.737 141.182,129.564 141.211,129.42 141.268,129.132 141.384,128.555 141.557,127.316 141.614,126.653 141.643,126.307 141.701,125.99 141.816,124.635 141.816,123.885 141.816,123.511 141.845,123.165 141.845,122.415 141.874,121.666 141.845,120.858 141.845,120.08 141.787,118.437 141.326,113.998 141.067,111.749 140.98,111.173 140.923,110.625 140.807,109.53 140.634,108.377 140.548,107.8 140.49,107.252 140.202,105.004 139.856,102.727 139.539,100.478 138.76,95.866 138.357,93.531 137.953,91.225 137.492,88.861 137.031,86.526 136.051,81.798 136.051,39.769 140.115,39.048 144.324,38.414 148.648,37.808 153.088,37.318 157.585,36.828 162.255,36.396 167.04,36.021 171.941,35.704 172.575,35.099 172.575,34.493 171.998,30.659 172.373,30.659 172.373,29.708 173.295,29.708 173.295,29.189 175.659,29.189 175.659,29.189 175.861,27.546 176.293,25.989 175.198,25.499 174.103,25.009 173.814,25.874 173.641,26.278 173.497,26.681 173.151,27.402 173.036,27.546 172.949,27.719 172.777,28.065 172.546,28.324 172.344,28.613 171.883,29.103 171.796,29.132 "
     style="fill:#fec31f;fill-opacity:1;stroke:none"
     id="polygon154"
     transform="matrix(0.4068431,0,0,0.4068431,0.20342155,24.926067)" />
  <polygon
     points="129.545,183.038 128.075,183.327 128.075,183.038 129.545,183.038 "
     style="fill:#fec31f;fill-opacity:1;stroke:none"
     id="polygon156"
     transform="matrix(0.4068431,0,0,0.4068431,0.20342155,24.926067)" />
  <polyline
     points="81.0669 50.43 80.2523 50.224 79.438 49.988    78.6526 49.517 77.9254 49.075"
     style="stroke:#999999;stroke-width:1"
     id="polyline158"
     transform="matrix(0.4068431,0,0,0.4068431,0.20342155,24.926067)" />
  <polyline
     points="129.372 41.063 125.767 41.812 124.008 42.158    122.365 42.562 120.721 42.908 119.135 43.311 117.607 43.657    116.136 44.061 114.666 44.407 113.31 44.753 110.686 45.502    109.446 45.848 108.264 46.194 106.044 46.944 105.265 47.146    104.544 47.319 103.823 47.463 103.131 47.549 102.439 47.578    101.776 47.578 101.142 47.549 100.536 47.463 99.9018 47.29    99.3249 47.088 98.7483 46.829 98.2293 46.569 97.6814 46.223    97.1911 45.848 96.7009 45.416 96.2396 44.984 95.4321 45.704    94.6248 46.425 93.8172 47.059 93.4136 47.348 93.2983 47.405    93.2119 47.492 93.0387 47.665 92.808 47.78 92.6927 47.838    92.6063 47.924 92.2024 48.213 91.3951 48.702 91.1645 48.789    90.9626 48.904 90.5589 49.135 89.7514 49.538 88.8864 49.856    88.4538 49.971 88.0502 50.115 87.185 50.317 86.9544 50.346    86.7524 50.403 86.3488 50.519 85.8875 50.548 85.4549 50.605    84.5899 50.692 83.696 50.692 82.8308 50.663 116.713 140.235    115.704 141.157 114.694 142.08 113.627 142.944 112.56 143.809    111.436 144.616 110.859 144.991 110.312 145.395 109.158 146.145    108.005 146.894 107.37 147.211 106.765 147.557 106.13 147.874    105.525 148.22 104.256 148.855 102.987 149.46 102.295 149.719    101.632 150.008 100.305 150.555 98.9213 151.045 97.5371 151.536    96.0666 151.939 94.5958 152.343 93.0963 152.717 91.5971 153.092    90.011 153.381 88.4538 153.669 86.839 153.928 85.2242 154.159    83.5517 154.332 81.8793 154.476 80.1491 154.591 78.419 154.707    76.6312 154.764 74.8432 154.793 72.9977 154.793 71.1522 154.793"
     style="stroke:#999999;stroke-width:2"
     id="polyline160"
     transform="matrix(0.4068431,0,0,0.4068431,0.20342155,24.926067)" />
  <polyline
     points="171.941 35.702 167.039 36.019 162.251 36.394    157.579 36.826 153.08 37.316 148.638 37.806 144.312 38.412    140.102 39.046 136.036 39.767 136.036 81.797 137.016 86.524    137.477 88.859 137.939 91.223 138.343 93.529 138.746 95.864    139.525 100.477 139.842 102.726 140.188 105.003 140.477 107.251    140.534 107.799 140.621 108.376 140.794 109.529 140.909 110.624    140.967 111.172 141.054 111.748 141.313 113.997 141.775 118.436    141.832 120.079 141.832 120.858 141.861 121.665 141.832 122.414    141.832 123.164 141.803 123.51 141.803 123.885 141.803 124.634    141.688 125.989 141.63 126.306 141.602 126.652 141.544 127.315    141.371 128.555 141.255 129.131 141.198 129.419 141.169 129.564    141.169 129.737 140.881 130.803 140.707 131.322 140.563 131.841    140.361 132.302 140.188 132.792 139.785 133.715 139.323 134.522    139.179 134.695 139.064 134.897 138.833 135.3 138.545 135.617    138.285 135.963 137.997 136.28 137.91 136.338 137.852 136.424    137.737 136.597 138.083 137.059 138.372 137.549 138.545 138.039    138.602 138.587 138.545 139.134 138.372 139.711 138.083 140.287    137.737 140.922 138.4 141.556 138.689 141.873 139.006 142.219    139.496 142.853 139.525 142.911 139.583 142.997 139.698 143.17    139.929 143.516 140.073 143.804 140.246 144.121 140.477 144.756    140.534 145.044 140.534 145.101 140.534 145.13 140.563 145.188    140.621 145.361 140.679 145.995 140.621 146.658 140.563 146.975    140.534 147.321 140.419 147.927 140.333 148.215 140.275 148.532    140.16 148.792 140.073 149.08 139.842 149.599 139.554 150.089    139.381 150.319 139.294 150.435 139.237 150.579 138.833 150.982    138.4 151.386 137.939 151.761 137.679 151.934 137.449 152.135    136.901 152.424 136.324 152.712 135.689 152.971 135.026 153.202    136.757 153.577 138.458 153.98 140.102 154.413 141.717 154.874    143.274 155.335 144.803 155.825 146.274 156.344 147.716 156.892    149.1 157.44 150.456 158.016 151.753 158.593 153.022 159.227    154.234 159.861 155.416 160.524 156.541 161.216 157.637 161.937    158.675 162.628 159.684 163.378 160.636 164.127 161.559 164.935    162.424 165.742 163.26 166.578 164.039 167.443 164.789 168.336    165.481 169.201 166.145 170.124 166.75 171.046 167.327 172.026    167.846 173.006 168.336 174.015 168.769 175.053 169.201 176.12    166.664 177.013 164.183 177.878 161.703 178.656 159.223 179.435    156.743 180.098 154.291 180.732 151.84 181.28 149.417 181.799    146.937 182.202 144.514 182.577 142.092 182.894 139.669 183.153    137.247 183.298 134.853 183.442 132.459 183.499 130.094 183.528    129.95 183.499 129.777 183.499 129.489 183.499 129.143 183.499    128.681 183.499 128.191 183.499 127.585 183.499 126.922 183.499"
     style="stroke:#999999;stroke-width:2"
     id="polyline162"
     transform="matrix(0.4068431,0,0,0.4068431,0.20342155,24.926067)" />
  <polyline
     points="77.9541 49.075 49.5072 99.715"
     style="stroke:#999999;stroke-width:2"
     id="polyline164"
     transform="matrix(0.4068431,0,0,0.4068431,0.20342155,24.926067)" />
  <polyline
     points="189.897 31.052 188.655 31.172 188.308 31.172    188.135 31.172 188.048 31.172 187.991 31.202 187.326 31.262    186.604 31.262 186.229 31.262 185.882 31.292 185.131 31.262    184.38 31.262 183.542 31.202 183.311 31.172 183.109 31.172    182.704 31.172 181.838 31.082 180.971 31.022 180.047 30.901    179.122 30.811 178.14 30.691 177.649 30.631 177.187 30.601"
     style="stroke:#999999;stroke-width:2"
     id="polyline166"
     transform="matrix(0.4068431,0,0,0.4068431,0.20342155,24.926067)" />
  <polyline
     points="52 96 26.7381 140.238"
     style="stroke:#999999;stroke-width:2"
     id="polyline168"
     transform="matrix(0.4068431,0,0,0.4068431,0.20342155,24.926067)" />
  <polyline
     points="186.467 129.545 188.63 129.545 189.15 129.517    189.697 129.517 190.793 129.517 192.898 129.459 194.975 129.401    196.994 129.286 197.974 129.199 198.983 129.142 200.915 128.969    202.848 128.796 204.693 128.535 205.126 128.449 205.587 128.391    206.51 128.276 208.269 127.987 209.134 127.814 209.567 127.728    210.028 127.67 211.701 127.295 213.374 126.892 214.989 126.458    215.767 126.227 216.575 126.026 218.074 125.507 219.574 124.988    221.016 124.439 222.429 123.862 223.784 123.228 225.111 122.563    226.38 121.872 227.649 121.179 228.225 120.775 228.514 120.573    228.831 120.4 229.984 119.621 231.08 118.813 232.176 117.977    232.667 117.515 233.186 117.083 234.195 116.159 234.656 115.669    235.147 115.208 236.069 114.255 211.816 64"
     style="stroke:#999999;stroke-width:2"
     id="polyline170"
     transform="matrix(0.4068431,0,0,0.4068431,0.20342155,24.926067)" />
  <polyline
     points="194.768 28.814 197.477 34.347"
     style="stroke:#999999;stroke-width:2"
     id="polyline172"
     transform="matrix(0.4068431,0,0,0.4068431,0.20342155,24.926067)" />
  <polyline
     points="146.953 114.27 192 32"
     style="stroke:#999999;stroke-width:2"
     id="polyline174"
     transform="matrix(0.4068431,0,0,0.4068431,0.20342155,24.926067)" />
</svg>
