<?xml version="1.0"?>
<?metis version="3.1"?>
<?metisxml version="1.0"?>
<!DOCTYPE svg  PUBLIC "-//W3C//DTD SVG August 1999//EN"
 "http://www.w3.org/Graphics/SVG/svg-19990812.dtd">

<svg width="200" height="200">
 <title>Symbol library: automatic_device.svg</title>
 <defs>
  <symbol id="oid1" xml:space="preserve" class="METIS_SYMBOL">
   <title>Automatic Device</title>
    <g>
      <polygon points="0 0 0 304 16.2963 320 
       880 320 880 16 863.704 0 0 0 
       0 0 0 0 0 0 0 0 
       0 0 0 0 0 0 0 0 
       0 0 0 0 0 0 "
       style=" stroke:#000000; stroke-width:1; fill:#9b9b9b; fill-opacity:100%"       class="TAG:shadow"></polygon>
      <rect x="0" y="0" width="240" height="304"
       style=" stroke:#000000; stroke-width:1; fill:#ffffa5; fill-opacity:100%"       class="TAG:PictureBackground"></rect>
      <rect x="240" y="0" width="624" height="304"
       style=" stroke:#000000; stroke-width:1; fill:#9b9b9b; fill-opacity:100%"       class="TAG:canvas"></rect>
      <g>
	<desc>METIS_TEXT_GROUP</desc>
	<text  x="256" y="15.8"
	 style=" stroke:#000000; stroke-width:1; font-family:sans-serif; font-size:16;"
	 class="TAG:text">text</text>
	<rect x="256" y="0" width="608" height="304"
	 style=" stroke:#000000; stroke-width:1; fill:#ffffff; fill-opacity:0%"></rect>
      </g>
      <g>
	<polygon points="16 47.1778 16 209.259 146.237 272 
	 147.623 270.098 155.243 231.122 155.243 99.4619 154.549 97.5606 
	 152.472 95.6596 19.8101 47.1778 16 47.1778 16 47.1778 
	 16 47.1778 16 47.1778 16 47.1778 16 47.1778 16 47.1778 "
	 style=" stroke:#ababab; stroke-width:1; fill:#ababab; fill-opacity:100%"></polygon>
	<polygon points="16 47.2079 154.09 97.5841 154.09 230.179 
	 146.13 272 213.618 248.713 224 207.367 224 79.5248 
	 82.4495 32 16 47.2079 16 47.2079 16 47.2079 
	 16 47.2079 16 47.2079 16 47.2079 16 47.2079 "
	 style=" stroke:#ababab; stroke-width:1; fill:#ffffff; fill-opacity:100%"></polygon>
	<polyline points="153.86 97.9287 223.655 79.905"
	 style=" stroke:#ababab; stroke-width:1;"></polyline>
	<polygon points="222.273 206.071 222.273 145.834 156.625 165.435 
	 156.625 169.737 211.505 153.483 211.505 199.378 222.273 206.071 
	 222.273 206.071 222.273 206.071 222.273 206.071 222.273 206.071 
	 222.273 206.071 222.273 206.071 "
	 style=" stroke:#ababab; stroke-width:1; fill:#ababab; fill-opacity:100%"></polygon>
	<polyline points="156.625 165.281 156.625 226.94 222.619 205.909"
	 style=" stroke:#ababab; stroke-width:1;"></polyline>
	<polyline points="211.217 198.956 156.625 216.506"
	 style=" stroke:#000000; stroke-width:1;"></polyline>
	<polyline points="153.86 107.415 224 87.9683"
	 style=" stroke:#000000; stroke-width:1;"></polyline>
	<polyline points="153.86 154.372 224 133.503"
	 style=" stroke:#000000; stroke-width:1;"></polyline>
	<polyline points="207.07 74.2133 138.312 91.8058 138.312 268.205"
	 style=" stroke:#000000; stroke-width:1;"></polyline>
	<polygon points="204.306 163.383 190.14 167.713 190.14 197.059 
	 204.306 192.729 204.306 163.383 204.306 163.383 204.306 163.383 
	 204.306 163.383 204.306 163.383 204.306 163.383 204.306 163.383 "
	 style=" stroke:#000000; stroke-width:1; fill:#000000; fill-opacity:100%"></polygon>
	<polygon points="174.938 177.137 164.571 180.046 164.571 199.43 
	 174.938 196.523 174.938 177.137 174.938 177.137 174.938 177.137 
	 174.938 177.137 174.938 177.137 174.938 177.137 174.938 177.137 "
	 style=" stroke:#000000; stroke-width:1; fill:#000000; fill-opacity:100%"></polygon>
	<polygon points="202.848 165.755 191.522 169.132 191.522 194.213 
	 202.848 190.837 202.848 179.261 206.034 172.508 204.618 171.543 
	 202.848 172.025 202.848 165.755 202.848 165.755 202.848 165.755 
	 202.848 165.755 202.848 165.755 202.848 165.755 202.848 165.755 "
	 style="stroke:none; fill:#000000; fill-opacity:100%"></polygon>
	<polyline points="202.848 165.755 191.522 169.132 191.522 194.213 
	 202.848 190.837 202.848 179.261 206.034 172.508 204.618 171.543 
	 202.848 172.025 202.848 165.755 202.848 165.755 202.848 165.755"
	 style=" stroke:#ffffff; stroke-width:1;"></polyline>
	<polyline points="202.924 167.178 192.591 170.074 192.591 177.316 
	 195.798 174.42 196.51 174.902 192.591 182.143 192.591 193.247 
	 191.522 194.213"
	 style=" stroke:#ffffff; stroke-width:1;"></polyline>
	<polyline points="196.359 175.715 206.034 172.395"
	 style=" stroke:#ffffff; stroke-width:1;"></polyline>
	<polyline points="195.669 174.766 204.652 171.446"
	 style=" stroke:#ffffff; stroke-width:1;"></polyline>
	<polyline points="192.904 182.355 202.924 179.036"
	 style=" stroke:#ffffff; stroke-width:1;"></polyline>
	<polyline points="172.173 178.087 174.937 179.546 172.963 187.329 
	 174.937 195.113 172.963 197.059"
	 style=" stroke:#ffffff; stroke-width:1;"></polyline>
	<polyline points="174.937 179.51 166.696 181.939 165.621 189.227 
	 166.696 197.487 165.263 199.43"
	 style=" stroke:#ffffff; stroke-width:1;"></polyline>
	<polyline points="166.991 182.356 164.571 179.983"
	 style=" stroke:#ffffff; stroke-width:1;"></polyline>
	<polyline points="165.608 189.47 173.21 187.099"
	 style=" stroke:#ffffff; stroke-width:1;"></polyline>
	<polyline points="174.937 194.687 166.645 197.533"
	 style=" stroke:#ffffff; stroke-width:1;"></polyline>
	<polygon points="30.1661 66.6243 40.5316 70.6897 40.5316 73.7389 
	 30.1661 69.6735 30.1661 66.6243 30.1661 66.6243 30.1661 66.6243 
	 30.1661 66.6243 30.1661 66.6243 30.1661 66.6243 30.1661 66.6243 "
	 style=" stroke:#000000; stroke-width:1; fill:#000000; fill-opacity:100%"></polygon>
	<polygon points="30.1661 73.2648 40.5316 77.3303 40.5316 80.3794 
	 30.1661 76.3139 30.1661 73.2648 30.1661 73.2648 30.1661 73.2648 
	 30.1661 73.2648 30.1661 73.2648 30.1661 73.2648 30.1661 73.2648 "
	 style=" stroke:#000000; stroke-width:1; fill:#000000; fill-opacity:100%"></polygon>
	<polygon points="30.1661 79.905 40.5316 84.4584 40.5316 87.4939 
	 30.1661 82.9407 30.1661 79.905 30.1661 79.905 30.1661 79.905 
	 30.1661 79.905 30.1661 79.905 30.1661 79.905 30.1661 79.905 "
	 style=" stroke:#000000; stroke-width:1; fill:#000000; fill-opacity:100%"></polygon>
	<polygon points="30.1661 87.0195 40.5316 91.0849 40.5316 94.1341 
	 30.1661 90.0687 30.1661 87.0195 30.1661 87.0195 30.1661 87.0195 
	 30.1661 87.0195 30.1661 87.0195 30.1661 87.0195 30.1661 87.0195 "
	 style=" stroke:#000000; stroke-width:1; fill:#000000; fill-opacity:100%"></polygon>
	<polygon points="30.1661 93.66 40.5316 97.7256 40.5316 100.775 
	 30.1661 96.709 30.1661 93.66 30.1661 93.66 30.1661 93.66 
	 30.1661 93.66 30.1661 93.66 30.1661 93.66 30.1661 93.66 "
	 style=" stroke:#000000; stroke-width:1; fill:#000000; fill-opacity:100%"></polygon>
	<polygon points="30.1661 100.3 40.5316 104.853 40.5316 107.889 
	 30.1661 103.336 30.1661 100.3 30.1661 100.3 30.1661 100.3 
	 30.1661 100.3 30.1661 100.3 30.1661 100.3 30.1661 100.3 "
	 style=" stroke:#000000; stroke-width:1; fill:#000000; fill-opacity:100%"></polygon>
	<polygon points="30.1661 107.415 40.5316 111.48 40.5316 114.53 
	 30.1661 109.956 30.1661 107.415 30.1661 107.415 30.1661 107.415 
	 30.1661 107.415 30.1661 107.415 30.1661 107.415 30.1661 107.415 "
	 style=" stroke:#000000; stroke-width:1; fill:#000000; fill-opacity:100%"></polygon>
	<polygon points="30.1661 114.055 40.5316 118.121 40.5316 121.17 
	 30.1661 117.105 30.1661 114.055 30.1661 114.055 30.1661 114.055 
	 30.1661 114.055 30.1661 114.055 30.1661 114.055 30.1661 114.055 "
	 style=" stroke:#000000; stroke-width:1; fill:#000000; fill-opacity:100%"></polygon>
	<polygon points="30.1661 120.695 40.5316 124.76 40.5316 127.809 
	 30.1661 123.744 30.1661 120.695 30.1661 120.695 30.1661 120.695 
	 30.1661 120.695 30.1661 120.695 30.1661 120.695 30.1661 120.695 "
	 style=" stroke:#000000; stroke-width:1; fill:#000000; fill-opacity:100%"></polygon>
	<polygon points="29.8207 127.336 40.5316 131.91 40.5316 134.45 
	 29.8207 130.385 29.8207 127.336 29.8207 127.336 29.8207 127.336 
	 29.8207 127.336 29.8207 127.336 29.8207 127.336 29.8207 127.336 "
	 style=" stroke:#000000; stroke-width:1; fill:#000000; fill-opacity:100%"></polygon>
	<polygon points="30.1661 133.976 40.5316 138.529 40.5316 141.564 
	 30.1661 137.011 30.1661 133.976 30.1661 133.976 30.1661 133.976 
	 30.1661 133.976 30.1661 133.976 30.1661 133.976 30.1661 133.976 "
	 style=" stroke:#000000; stroke-width:1; fill:#000000; fill-opacity:100%"></polygon>
	<polygon points="30.1661 141.091 40.5316 145.156 40.5316 148.205 
	 30.1661 143.632 30.1661 141.091 30.1661 141.091 30.1661 141.091 
	 30.1661 141.091 30.1661 141.091 30.1661 141.091 30.1661 141.091 "
	 style=" stroke:#000000; stroke-width:1; fill:#000000; fill-opacity:100%"></polygon>
	<polygon points="30.1661 147.256 40.5316 152.296 40.5316 155.319 
	 30.1661 150.281 30.1661 147.256 30.1661 147.256 30.1661 147.256 
	 30.1661 147.256 30.1661 147.256 30.1661 147.256 30.1661 147.256 "
	 style=" stroke:#000000; stroke-width:1; fill:#000000; fill-opacity:100%"></polygon>
	<polygon points="30.1661 153.897 40.5316 158.45 40.5316 161.486 
	 30.1661 156.933 30.1661 153.897 30.1661 153.897 30.1661 153.897 
	 30.1661 153.897 30.1661 153.897 30.1661 153.897 30.1661 153.897 "
	 style=" stroke:#000000; stroke-width:1; fill:#000000; fill-opacity:100%"></polygon>
	<polygon points="30.1661 160.537 40.5316 165.091 40.5316 168.127 
	 30.1661 163.572 30.1661 160.537 30.1661 160.537 30.1661 160.537 
	 30.1661 160.537 30.1661 160.537 30.1661 160.537 30.1661 160.537 "
	 style=" stroke:#000000; stroke-width:1; fill:#000000; fill-opacity:100%"></polygon>
	<polygon points="30.1661 167.178 40.5316 171.731 40.5316 174.766 
	 30.1661 169.707 30.1661 167.178 30.1661 167.178 30.1661 167.178 
	 30.1661 167.178 30.1661 167.178 30.1661 167.178 30.1661 167.178 "
	 style=" stroke:#000000; stroke-width:1; fill:#000000; fill-opacity:100%"></polygon>
	<polygon points="30.1661 174.293 40.5316 178.846 40.5316 181.882 
	 30.1661 177.328 30.1661 174.293 30.1661 174.293 30.1661 174.293 
	 30.1661 174.293 30.1661 174.293 30.1661 174.293 30.1661 174.293 "
	 style=" stroke:#000000; stroke-width:1; fill:#000000; fill-opacity:100%"></polygon>
	<polygon points="30.1661 180.932 40.5316 185.486 40.5316 188.521 
	 30.1661 183.968 30.1661 180.932 30.1661 180.932 30.1661 180.932 
	 30.1661 180.932 30.1661 180.932 30.1661 180.932 30.1661 180.932 "
	 style=" stroke:#000000; stroke-width:1; fill:#000000; fill-opacity:100%"></polygon>
	<polygon points="30.1661 187.099 40.5316 192.137 40.5316 195.162 
	 30.1661 190.122 30.1661 187.099 30.1661 187.099 30.1661 187.099 
	 30.1661 187.099 30.1661 187.099 30.1661 187.099 30.1661 187.099 "
	 style=" stroke:#000000; stroke-width:1; fill:#000000; fill-opacity:100%"></polygon>
	<polygon points="42.9502 71.3675 53.3156 75.921 53.3156 78.9564 
	 42.9502 74.403 42.9502 71.3675 42.9502 71.3675 42.9502 71.3675 
	 42.9502 71.3675 42.9502 71.3675 42.9502 71.3675 42.9502 71.3675 "
	 style=" stroke:#000000; stroke-width:1; fill:#000000; fill-opacity:100%"></polygon>
	<polygon points="42.9502 78.0078 53.3156 82.0732 53.3156 85.1224 
	 42.9502 81.057 42.9502 78.0078 42.9502 78.0078 42.9502 78.0078 
	 42.9502 78.0078 42.9502 78.0078 42.9502 78.0078 42.9502 78.0078 "
	 style=" stroke:#000000; stroke-width:1; fill:#000000; fill-opacity:100%"></polygon>
	<polygon points="42.9502 85.1222 53.3156 89.1876 53.3156 92.2369 
	 42.9502 87.6632 42.9502 85.1222 42.9502 85.1222 42.9502 85.1222 
	 42.9502 85.1222 42.9502 85.1222 42.9502 85.1222 42.9502 85.1222 "
	 style=" stroke:#000000; stroke-width:1; fill:#000000; fill-opacity:100%"></polygon>
	<polygon points="42.9502 91.7627 53.3156 95.8283 53.3156 98.8773 
	 42.9502 94.8118 42.9502 91.7627 42.9502 91.7627 42.9502 91.7627 
	 42.9502 91.7627 42.9502 91.7627 42.9502 91.7627 42.9502 91.7627 "
	 style=" stroke:#000000; stroke-width:1; fill:#000000; fill-opacity:100%"></polygon>
	<polygon points="42.9502 98.8773 53.3156 102.943 53.3156 105.992 
	 42.9502 101.418 42.9502 98.8773 42.9502 98.8773 42.9502 98.8773 
	 42.9502 98.8773 42.9502 98.8773 42.9502 98.8773 42.9502 98.8773 "
	 style=" stroke:#000000; stroke-width:1; fill:#000000; fill-opacity:100%"></polygon>
	<polygon points="42.9502 105.518 53.3156 109.583 53.3156 112.632 
	 42.9502 108.567 42.9502 105.518 42.9502 105.518 42.9502 105.518 
	 42.9502 105.518 42.9502 105.518 42.9502 105.518 42.9502 105.518 "
	 style=" stroke:#000000; stroke-width:1; fill:#000000; fill-opacity:100%"></polygon>
	<polygon points="42.9502 112.158 53.3156 116.224 53.3156 119.273 
	 42.9502 115.207 42.9502 112.158 42.9502 112.158 42.9502 112.158 
	 42.9502 112.158 42.9502 112.158 42.9502 112.158 42.9502 112.158 "
	 style=" stroke:#000000; stroke-width:1; fill:#000000; fill-opacity:100%"></polygon>
	<polygon points="42.9502 118.799 53.3156 122.864 53.3156 125.913 
	 42.9502 121.848 42.9502 118.799 42.9502 118.799 42.9502 118.799 
	 42.9502 118.799 42.9502 118.799 42.9502 118.799 42.9502 118.799 "
	 style=" stroke:#000000; stroke-width:1; fill:#000000; fill-opacity:100%"></polygon>
	<polygon points="42.9502 125.438 53.3156 129.993 53.3156 133.028 
	 42.9502 128.474 42.9502 125.438 42.9502 125.438 42.9502 125.438 
	 42.9502 125.438 42.9502 125.438 42.9502 125.438 42.9502 125.438 "
	 style=" stroke:#000000; stroke-width:1; fill:#000000; fill-opacity:100%"></polygon>
	<polygon points="42.9502 131.604 53.6612 136.158 53.6612 139.193 
	 42.9502 134.64 42.9502 131.604 42.9502 131.604 42.9502 131.604 
	 42.9502 131.604 42.9502 131.604 42.9502 131.604 42.9502 131.604 "
	 style=" stroke:#000000; stroke-width:1; fill:#000000; fill-opacity:100%"></polygon>
	<polygon points="42.9502 139.193 53.3156 143.259 53.3156 146.308 
	 42.9502 142.242 42.9502 139.193 42.9502 139.193 42.9502 139.193 
	 42.9502 139.193 42.9502 139.193 42.9502 139.193 42.9502 139.193 "
	 style=" stroke:#000000; stroke-width:1; fill:#000000; fill-opacity:100%"></polygon>
	<polygon points="42.9502 145.834 53.3156 150.387 53.3156 153.423 
	 42.9502 148.869 42.9502 145.834 42.9502 145.834 42.9502 145.834 
	 42.9502 145.834 42.9502 145.834 42.9502 145.834 42.9502 145.834 "
	 style=" stroke:#000000; stroke-width:1; fill:#000000; fill-opacity:100%"></polygon>
	<polygon points="42.9502 152.473 53.3156 157.027 53.3156 160.063 
	 42.9502 155.51 42.9502 152.473 42.9502 152.473 42.9502 152.473 
	 42.9502 152.473 42.9502 152.473 42.9502 152.473 42.9502 152.473 "
	 style=" stroke:#000000; stroke-width:1; fill:#000000; fill-opacity:100%"></polygon>
	<polygon points="42.9502 159.114 53.3156 163.179 53.3156 166.228 
	 42.9502 161.655 42.9502 159.114 42.9502 159.114 42.9502 159.114 
	 42.9502 159.114 42.9502 159.114 42.9502 159.114 42.9502 159.114 "
	 style=" stroke:#000000; stroke-width:1; fill:#000000; fill-opacity:100%"></polygon>
	<polygon points="42.9502 165.755 53.3156 170.329 53.3156 172.869 
	 42.9502 168.804 42.9502 165.755 42.9502 165.755 42.9502 165.755 
	 42.9502 165.755 42.9502 165.755 42.9502 165.755 42.9502 165.755 "
	 style=" stroke:#000000; stroke-width:1; fill:#000000; fill-opacity:100%"></polygon>
	<polygon points="42.9502 172.395 53.3156 177.454 53.3156 179.983 
	 42.9502 175.43 42.9502 172.395 42.9502 172.395 42.9502 172.395 
	 42.9502 172.395 42.9502 172.395 42.9502 172.395 42.9502 172.395 "
	 style=" stroke:#000000; stroke-width:1; fill:#000000; fill-opacity:100%"></polygon>
	<polygon points="55.7344 76.5848 66.4453 80.6505 66.4453 83.6994 
	 55.7344 79.1259 55.7344 76.5848 55.7344 76.5848 55.7344 76.5848 
	 55.7344 76.5848 55.7344 76.5848 55.7344 76.5848 55.7344 76.5848 "
	 style=" stroke:#000000; stroke-width:1; fill:#000000; fill-opacity:100%"></polygon>
	<polygon points="55.7344 82.751 66.4453 87.3041 66.4453 90.3399 
	 55.7344 85.7863 55.7344 82.751 55.7344 82.751 55.7344 82.751 
	 55.7344 82.751 55.7344 82.751 55.7344 82.751 55.7344 82.751 "
	 style=" stroke:#000000; stroke-width:1; fill:#000000; fill-opacity:100%"></polygon>
	<polygon points="55.7344 89.8655 66.4453 93.931 66.4453 96.9801 
	 55.7344 92.9146 55.7344 89.8655 55.7344 89.8655 55.7344 89.8655 
	 55.7344 89.8655 55.7344 89.8655 55.7344 89.8655 55.7344 89.8655 "
	 style=" stroke:#000000; stroke-width:1; fill:#000000; fill-opacity:100%"></polygon>
	<polygon points="55.7344 96.9801 66.4453 101.046 66.4453 104.095 
	 55.7344 99.521 55.7344 96.9801 55.7344 96.9801 55.7344 96.9801 
	 55.7344 96.9801 55.7344 96.9801 55.7344 96.9801 55.7344 96.9801 "
	 style=" stroke:#000000; stroke-width:1; fill:#000000; fill-opacity:100%"></polygon>
	<polygon points="55.7344 103.62 66.4453 107.686 66.4453 110.735 
	 55.7344 106.67 55.7344 103.62 55.7344 103.62 55.7344 103.62 
	 55.7344 103.62 55.7344 103.62 55.7344 103.62 55.7344 103.62 "
	 style=" stroke:#000000; stroke-width:1; fill:#000000; fill-opacity:100%"></polygon>
	<polygon points="55.7344 110.261 66.4453 114.814 66.4453 117.849 
	 55.7344 113.296 55.7344 110.261 55.7344 110.261 55.7344 110.261 
	 55.7344 110.261 55.7344 110.261 55.7344 110.261 55.7344 110.261 "
	 style=" stroke:#000000; stroke-width:1; fill:#000000; fill-opacity:100%"></polygon>
	<polygon points="55.7344 116.9 66.4453 121.454 66.4453 124.49 
	 55.7344 119.937 55.7344 116.9 55.7344 116.9 55.7344 116.9 
	 55.7344 116.9 55.7344 116.9 55.7344 116.9 55.7344 116.9 "
	 style=" stroke:#000000; stroke-width:1; fill:#000000; fill-opacity:100%"></polygon>
	<polygon points="55.7344 124.016 66.4453 128.081 66.4453 131.13 
	 55.7344 126.556 55.7344 124.016 55.7344 124.016 55.7344 124.016 
	 55.7344 124.016 55.7344 124.016 55.7344 124.016 55.7344 124.016 "
	 style=" stroke:#000000; stroke-width:1; fill:#000000; fill-opacity:100%"></polygon>
	<polygon points="55.7344 130.655 66.0999 134.722 66.0999 137.771 
	 55.7344 133.706 55.7344 130.655 55.7344 130.655 55.7344 130.655 
	 55.7344 130.655 55.7344 130.655 55.7344 130.655 55.7344 130.655 "
	 style=" stroke:#000000; stroke-width:1; fill:#000000; fill-opacity:100%"></polygon>
	<polygon points="55.7344 137.296 66.4453 141.849 66.4453 144.885 
	 55.7344 140.332 55.7344 137.296 55.7344 137.296 55.7344 137.296 
	 55.7344 137.296 55.7344 137.296 55.7344 137.296 55.7344 137.296 "
	 style=" stroke:#000000; stroke-width:1; fill:#000000; fill-opacity:100%"></polygon>
	<polygon points="55.7344 143.937 66.0999 148.49 66.0999 151.526 
	 55.7344 146.973 55.7344 143.937 55.7344 143.937 55.7344 143.937 
	 55.7344 143.937 55.7344 143.937 55.7344 143.937 55.7344 143.937 "
	 style=" stroke:#000000; stroke-width:1; fill:#000000; fill-opacity:100%"></polygon>
	<polygon points="55.7344 150.577 66.0999 155.13 66.0999 158.165 
	 55.7344 153.612 55.7344 150.577 55.7344 150.577 55.7344 150.577 
	 55.7344 150.577 55.7344 150.577 55.7344 150.577 55.7344 150.577 "
	 style=" stroke:#000000; stroke-width:1; fill:#000000; fill-opacity:100%"></polygon>
	<polygon points="55.7344 157.692 66.4453 162.245 66.4453 165.281 
	 55.7344 160.728 55.7344 157.692 55.7344 157.692 55.7344 157.692 
	 55.7344 157.692 55.7344 157.692 55.7344 157.692 55.7344 157.692 "
	 style=" stroke:#000000; stroke-width:1; fill:#000000; fill-opacity:100%"></polygon>
	<polygon points="69.2095 81.3281 79.5749 85.3933 79.5749 88.4427 
	 69.2095 84.3772 69.2095 81.3281 69.2095 81.3281 69.2095 81.3281 
	 69.2095 81.3281 69.2095 81.3281 69.2095 81.3281 69.2095 81.3281 "
	 style=" stroke:#000000; stroke-width:1; fill:#000000; fill-opacity:100%"></polygon>
	<polygon points="69.2095 87.9683 79.5749 92.0338 79.5749 95.0829 
	 69.2095 91.0174 69.2095 87.9683 69.2095 87.9683 69.2095 87.9683 
	 69.2095 87.9683 69.2095 87.9683 69.2095 87.9683 69.2095 87.9683 "
	 style=" stroke:#000000; stroke-width:1; fill:#000000; fill-opacity:100%"></polygon>
	<polygon points="69.2095 94.6085 79.5749 99.1821 79.5749 101.723 
	 69.2095 97.6577 69.2095 94.6085 69.2095 94.6085 69.2095 94.6085 
	 69.2095 94.6085 69.2095 94.6085 69.2095 94.6085 69.2095 94.6085 "
	 style=" stroke:#000000; stroke-width:1; fill:#000000; fill-opacity:100%"></polygon>
	<polygon points="69.2095 101.723 79.5749 105.789 79.5749 108.838 
	 69.2095 104.772 69.2095 101.723 69.2095 101.723 69.2095 101.723 
	 69.2095 101.723 69.2095 101.723 69.2095 101.723 69.2095 101.723 "
	 style=" stroke:#000000; stroke-width:1; fill:#000000; fill-opacity:100%"></polygon>
	<polygon points="69.2095 108.363 79.5749 112.937 79.5749 115.478 
	 69.2095 111.413 69.2095 108.363 69.2095 108.363 69.2095 108.363 
	 69.2095 108.363 69.2095 108.363 69.2095 108.363 69.2095 108.363 "
	 style=" stroke:#000000; stroke-width:1; fill:#000000; fill-opacity:100%"></polygon>
	<polygon points="69.2095 115.004 79.5749 119.557 79.5749 122.592 
	 69.2095 118.039 69.2095 115.004 69.2095 115.004 69.2095 115.004 
	 69.2095 115.004 69.2095 115.004 69.2095 115.004 69.2095 115.004 "
	 style=" stroke:#000000; stroke-width:1; fill:#000000; fill-opacity:100%"></polygon>
	<polygon points="69.2095 122.119 79.9204 126.693 79.9204 129.233 
	 69.2095 124.659 69.2095 122.119 69.2095 122.119 69.2095 122.119 
	 69.2095 122.119 69.2095 122.119 69.2095 122.119 69.2095 122.119 "
	 style=" stroke:#000000; stroke-width:1; fill:#000000; fill-opacity:100%"></polygon>
	<polygon points="69.2095 128.759 79.5749 133.312 79.5749 136.347 
	 69.2095 131.794 69.2095 128.759 69.2095 128.759 69.2095 128.759 
	 69.2095 128.759 69.2095 128.759 69.2095 128.759 69.2095 128.759 "
	 style=" stroke:#000000; stroke-width:1; fill:#000000; fill-opacity:100%"></polygon>
	<polygon points="69.2095 135.399 79.5749 139.953 79.5749 142.988 
	 69.2095 138.435 69.2095 135.399 69.2095 135.399 69.2095 135.399 
	 69.2095 135.399 69.2095 135.399 69.2095 135.399 69.2095 135.399 "
	 style=" stroke:#000000; stroke-width:1; fill:#000000; fill-opacity:100%"></polygon>
	<polygon points="83.0301 87.0195 93.7411 91.0849 93.7411 94.1341 
	 83.0301 89.5605 83.0301 87.0195 83.0301 87.0195 83.0301 87.0195 
	 83.0301 87.0195 83.0301 87.0195 83.0301 87.0195 83.0301 87.0195 "
	 style=" stroke:#000000; stroke-width:1; fill:#000000; fill-opacity:100%"></polygon>
	<polygon points="83.0301 93.1855 93.7411 97.2509 93.7411 100.3 
	 83.0301 96.2348 83.0301 93.1855 83.0301 93.1855 83.0301 93.1855 
	 83.0301 93.1855 83.0301 93.1855 83.0301 93.1855 83.0301 93.1855 "
	 style=" stroke:#000000; stroke-width:1; fill:#000000; fill-opacity:100%"></polygon>
	<polygon points="83.0301 100.3 93.7411 104.366 93.7411 107.415 
	 83.0301 103.349 83.0301 100.3 83.0301 100.3 83.0301 100.3 
	 83.0301 100.3 83.0301 100.3 83.0301 100.3 83.0301 100.3 "
	 style=" stroke:#000000; stroke-width:1; fill:#000000; fill-opacity:100%"></polygon>
	<polygon points="83.0301 106.941 93.7411 111.006 93.7411 114.055 
	 83.0301 109.99 83.0301 106.941 83.0301 106.941 83.0301 106.941 
	 83.0301 106.941 83.0301 106.941 83.0301 106.941 83.0301 106.941 "
	 style=" stroke:#000000; stroke-width:1; fill:#000000; fill-opacity:100%"></polygon>
	<polygon points="83.0301 114.055 93.7411 118.121 93.7411 121.17 
	 83.0301 117.105 83.0301 114.055 83.0301 114.055 83.0301 114.055 
	 83.0301 114.055 83.0301 114.055 83.0301 114.055 83.0301 114.055 "
	 style=" stroke:#000000; stroke-width:1; fill:#000000; fill-opacity:100%"></polygon>
	<polygon points="83.0301 120.695 94.0867 125.249 94.0867 128.284 
	 83.0301 123.731 83.0301 120.695 83.0301 120.695 83.0301 120.695 
	 83.0301 120.695 83.0301 120.695 83.0301 120.695 83.0301 120.695 "
	 style=" stroke:#000000; stroke-width:1; fill:#000000; fill-opacity:100%"></polygon>
	<polyline points="154.206 230.261 224 207.019"
	 style=" stroke:#ababab; stroke-width:1;"></polyline>
      </g>
      <polyline points="880 320 864 304"
       style=" stroke:#000000; stroke-width:1;"></polyline>
    </g>
  </symbol>
 </defs>
</svg>
