<?xml version="1.0"?>
<?metis version="3.1"?>
<?metisxml version="1.0"?>
<!DOCTYPE svg  PUBLIC "-//W3C//DTD SVG August 1999//EN"
 "http://www.w3.org/Graphics/SVG/svg-19990812.dtd">

<svg width="200" height="200">
 <title>Symbol library: basic_software.svg</title>
 <defs>
  <symbol id="oid1" xml:space="preserve" class="METIS_SYMBOL">
   <title>Basic Software</title>
    <g>
      <polygon points="0 0 0 304 16.2963 320 
       880 320 880 16 863.704 0 0 0 
       0 0 0 0 0 0 0 0 
       0 0 0 0 0 0 0 0 
       0 0 0 0 0 0 0 0 "
       style=" stroke:#000000; stroke-width:1; fill:#9b9b9b; fill-opacity:100%"       class="TAG:shadow"></polygon>
      <rect x="0" y="0" width="240" height="304"
       style=" stroke:#000000; stroke-width:1; fill:#ffffa5; fill-opacity:100%"       class="TAG:PictureBackground"></rect>
      <rect x="240" y="0" width="624" height="304"
       style=" stroke:#000000; stroke-width:1; fill:#6e6eff; fill-opacity:100%"       class="TAG:canvas"></rect>
      <rect x="245.357" y="25.7143" width="569.522" height="231.429"
       style="stroke:none; fill:#878787; fill-opacity:0%"       class="TAG:grid"></rect>
      <g>
	<desc>METIS_TEXT_GROUP</desc>
	<text  x="256" y="15.8"
	 style=" stroke:#000000; stroke-width:1; font-family:sans-serif; font-size:16;"
	 class="TAG:text">text</text>
	<rect x="256" y="0" width="608" height="304"
	 style=" stroke:#000000; stroke-width:1; fill:#ffffff; fill-opacity:0%"></rect>
      </g>
      <polyline points="864 304 880 320"
       style=" stroke:#000000; stroke-width:1;"></polyline>
      <g>
	<polygon points="121.726 211.765 121.726 211.765 101.02 211.765 
	 92.3922 216.948 137.255 271.366 145.883 266.184 208 172.896 
	 187.294 172.896 178.667 178.079 145.883 237.679 121.726 211.765 
	 121.726 211.765 121.726 211.765 121.726 211.765 121.726 211.765 
	 121.726 211.765 121.726 211.765 121.726 211.765 121.726 211.765 "
	 style=" stroke:#000000; stroke-width:1; fill:#ffff00; fill-opacity:100%"	 class="TAG:text"></polygon>
	<polygon points="113.098 216.948 113.098 216.948 92.3922 216.948 
	 137.255 271.366 199.373 178.079 178.667 178.079 137.255 242.861 
	 113.098 216.948 113.098 216.948 113.098 216.948 113.098 216.948 
	 113.098 216.948 113.098 216.948 113.098 216.948 113.098 216.948 113.098 216.948 "
	 style=" stroke:#000000; stroke-width:1; fill:#ffff6e; fill-opacity:100%"	 class="TAG:text"></polygon>
	<polygon points="61.3334 172.896 61.3334 172.896 40.6274 172.896 
	 32 178.079 94.1177 271.366 102.745 266.184 144.156 211.765 
	 123.451 211.765 114.823 216.948 102.745 237.679 61.3334 172.896 
	 61.3334 172.896 61.3334 172.896 61.3334 172.896 61.3334 172.896 
	 61.3334 172.896 61.3334 172.896 61.3334 172.896 61.3334 172.896 "
	 style=" stroke:#000000; stroke-width:1; fill:#ffff00; fill-opacity:100%"	 class="TAG:text"></polygon>
	<polygon points="104.471 181.966 83.7646 181.966 76.8627 185.852 
	 90.6666 197.514 107.921 202.697 121.725 205.287 132.078 205.287 
	 142.431 202.697 152.784 202.697 161.795 197.366 164.735 192.627 
	 166.588 184.557 166.205 177.227 161.795 170.12 152.784 162.531 
	 144.156 158.644 135.529 156.053 125.177 153.461 114.823 150.87 
	 106.196 146.983 104.471 140.505 107.921 132.731 118.274 127.548 
	 128.628 127.548 140.707 128.843 147.607 132.731 149.334 137.913 
	 159.686 141.8 166.588 137.913 166.588 132.731 163.137 124.957 
	 154.51 118.478 145.883 114.591 132.078 112 121.725 112 
	 107.921 114.591 101.02 118.478 94.1177 124.957 87.2157 132.731 
	 85.4901 140.505 87.2157 148.278 90.6666 156.053 97.1853 161.828 
	 105.813 165.381 116.549 167.714 128.628 170.304 140.707 174.192 
	 144.156 176.784 147.607 181.966 145.883 187.149 142.431 189.74 
	 135.529 192.332 125.177 192.332 114.823 189.74 106.196 185.852 
	 104.471 181.966 104.471 181.966 104.471 181.966 104.471 181.966 
	 104.471 181.966 104.471 181.966 104.471 181.966 104.471 181.966 104.471 181.966 "
	 style=" stroke:#000000; stroke-width:1; fill:#ffff00; fill-opacity:100%"	 class="TAG:text"></polygon>
	<polygon points="97.5686 185.852 76.8627 185.852 76.8627 191.035 
	 83.7646 201.4 101.02 206.583 114.823 209.175 125.177 209.175 
	 135.529 206.583 144.605 204.806 154.894 201.252 157.833 196.515 
	 159.686 188.444 159.304 181.115 154.894 174.006 145.883 166.418 
	 137.255 162.531 128.628 159.939 118.274 157.348 107.921 154.756 
	 99.2941 150.87 97.5686 144.391 101.02 136.618 111.372 131.435 
	 121.725 131.435 133.804 132.731 140.707 136.618 142.431 141.8 
	 159.686 141.8 159.686 136.618 156.235 128.843 147.607 122.365 
	 138.98 118.478 125.177 115.887 114.823 115.887 101.02 118.478 
	 94.1177 123.661 87.2157 128.843 80.3137 136.618 78.5883 144.391 
	 80.3137 152.166 83.7646 159.939 90.2833 165.714 98.9107 169.269 
	 109.647 171.601 121.725 174.192 133.804 178.079 137.255 180.67 
	 140.707 185.852 138.98 191.035 135.529 193.627 128.628 196.217 
	 118.274 196.217 107.921 193.627 99.2941 189.74 97.5686 185.852 
	 97.5686 185.852 97.5686 185.852 97.5686 185.852 97.5686 185.852 
	 97.5686 185.852 97.5686 185.852 97.5686 185.852 97.5686 185.852 "
	 style=" stroke:#000000; stroke-width:1; fill:#ffff6e; fill-opacity:100%"	 class="TAG:text"></polygon>
	<polyline points="97.5686 185.852 97.5686 185.852 104.471 181.966"
	 style=" stroke:#000000; stroke-width:1;"	 class="TAG:text"></polyline>
	<polygon points="52.7059 178.079 52.7059 178.079 32 178.079 
	 94.1177 271.366 135.529 216.948 114.823 216.948 94.1177 242.861 
	 52.7059 178.079 52.7059 178.079 52.7059 178.079 52.7059 178.079 
	 52.7059 178.079 52.7059 178.079 52.7059 178.079 52.7059 178.079 52.7059 178.079 "
	 style=" stroke:#000000; stroke-width:1; fill:#ffff6e; fill-opacity:100%"	 class="TAG:text"></polygon>
	<polyline points="52.7059 178.079 52.7059 178.079 61.3334 172.896"
	 style=" stroke:#000000; stroke-width:1;"	 class="TAG:text"></polyline>
	<polyline points="113.098 216.948 113.098 216.948 121.725 211.765"
	 style=" stroke:#000000; stroke-width:1;"	 class="TAG:text"></polyline>
	<polyline points="135.529 216.948 135.529 216.948 144.156 211.765"
	 style=" stroke:#000000; stroke-width:1;"	 class="TAG:text"></polyline>
	<polyline points="199.371 178.079 199.371 178.079 208 172.896"
	 style=" stroke:#000000; stroke-width:1;"	 class="TAG:text"></polyline>
      </g>
      <polygon points="16 33.1195 26.0814 33.1195 36.1646 33.1195 
       39.9091 33.1195 43.0784 33.4938 45.6709 33.8682 47.6881 34.6169 
       49.1286 35.5525 50.569 36.6755 52.0095 38.1727 53.1615 39.8571 
       54.3135 41.9159 54.8904 43.9746 55.4656 46.2204 55.4656 48.6534 
       55.1772 52.958 53.7367 56.7011 52.5846 58.3855 51.4326 59.8828 
       49.9922 61.0057 48.5518 62.1286 50.569 63.0644 52.5846 64.1874 
       54.0251 65.6846 55.4656 67.5561 56.6176 69.6144 57.4828 71.8609 
       57.7713 74.2935 58.058 76.9136 57.7713 80.0958 57.1944 83.2769 
       56.3308 85.8971 54.8904 88.3308 53.1615 90.3888 51.1442 92.073 
       49.1286 93.3837 47.1113 94.1321 45.0957 94.5067 42.2148 94.6941 
       38.1818 94.8805 32.9953 94.8805 24.641 94.8805 16 94.8805 
       16 33.1195 16 33.1195 16 33.1195 16 33.1195 
       16 33.1195 16 33.1195 16 33.1195 16 33.1195 "
       style=" stroke:#000000; stroke-width:1; fill:#6e0000; fill-opacity:100%"></polygon>
      <polygon points="26.0126 43.382 26.0126 50.5655 26.0126 57.7493 
       29.4972 57.7493 32.6912 57.7493 35.5945 57.7493 37.6257 57.7493 
       39.368 57.7493 40.2384 57.5602 42.5619 56.8041 43.4323 56.237 
       44.3026 55.2917 44.8839 54.3465 45.4636 53.2123 45.7542 50.3765 
       45.4636 47.9189 44.5933 45.8396 43.1416 44.5162 42.5619 43.9491 
       41.69 43.76 40.5291 43.571 38.4961 43.382 35.5945 43.382 
       31.8192 43.382 28.9159 43.382 26.0126 43.382 26.0126 43.382 
       26.0126 43.382 26.0126 43.382 26.0126 43.382 26.0126 43.382 
       26.0126 43.382 26.0126 43.382 "
       style=" stroke:#000000; stroke-width:1; fill:#ffffa5; fill-opacity:100%"></polygon>
      <polygon points="26.0126 67.8248 26.0126 76.1281 26.0126 84.4313 
       35.5811 84.4313 38.4787 84.4313 40.5088 84.2422 42.2487 84.0534 
       43.408 83.8655 44.2772 83.4876 45.1479 82.922 46.3073 81.2238 
       47.4666 79.1477 47.757 77.8262 47.757 76.3169 47.4666 73.4862 
       46.3073 71.2223 45.7268 70.2787 44.8577 69.7119 42.8276 68.5795 
       41.3779 68.2026 39.6398 68.0137 37.0291 67.8248 34.1315 67.8248 
       30.0713 67.8248 26.0126 67.8248 26.0126 67.8248 26.0126 67.8248 
       26.0126 67.8248 26.0126 67.8248 26.0126 67.8248 26.0126 67.8248 26.0126 67.8248 "
       style=" stroke:#000000; stroke-width:1; fill:#ffffa5; fill-opacity:100%"></polygon>
      <polygon points="111.274 94.8805 105.807 94.8805 100.34 94.8805 
       96.0233 80.8443 85.9515 80.8443 75.8797 80.8443 73.8664 87.956 
       71.8513 94.8805 66.6723 94.8805 61.2051 94.8805 70.9887 64.0001 
       80.4843 33.1195 85.9515 33.1195 91.4187 33.1195 96.3097 48.6534 
       101.49 64.0001 106.381 79.5336 111.274 94.8805 111.274 94.8805 
       111.274 94.8805 111.274 94.8805 111.274 94.8805 111.274 94.8805 
       111.274 94.8805 111.274 94.8805 "
       style=" stroke:#000000; stroke-width:1; fill:#6e0000; fill-opacity:100%"></polygon>
      <polygon points="92.963 70.4373 89.4573 58.9619 85.9534 47.4869 
       82.4476 58.9619 78.9437 70.4373 92.963 70.4373 92.963 70.4373 
       92.963 70.4373 92.963 70.4373 92.963 70.4373 92.963 70.4373 
       92.963 70.4373 92.963 70.4373 "
       style=" stroke:#000000; stroke-width:1; fill:#ffffa5; fill-opacity:100%"></polygon>
      <polygon points="113.85 74.667 118.747 74.1049 123.647 73.5439 
       124.221 76.3511 125.086 78.7834 125.951 80.6549 127.392 82.339 
       128.832 83.6495 130.562 84.5852 132.579 85.1462 134.596 85.3336 
       136.901 85.1462 138.629 84.7726 140.358 84.0231 141.799 83.0874 
       142.952 81.778 143.817 80.2813 144.105 78.7834 144.393 77.0995 
       144.105 75.0406 143.528 73.3565 142.376 72.0472 140.646 70.9242 
       139.494 70.3631 137.477 69.6137 134.883 68.8653 131.714 67.7428 
       128.832 66.8071 126.24 65.6843 123.934 64.5614 122.206 63.4386 
       120.765 62.1288 119.611 60.8187 117.595 57.4503 116.731 55.5791 
       116.154 53.5205 115.577 49.2165 115.866 46.7837 116.154 44.5381 
       117.883 40.2339 119.036 38.3625 120.765 36.6784 122.493 35.1813 
       124.221 34.0585 126.24 33.1228 128.832 32.5614 131.425 32.1871 
       134.02 32 138.342 32.3743 142.087 33.1228 145.257 34.62 
       147.85 36.8655 149.868 39.4854 151.596 42.6667 152.75 46.4093 
       153.036 50.7135 148.139 51.0878 142.952 51.2749 142.664 49.0292 
       142.087 46.9708 141.224 45.4737 140.07 44.3509 138.917 43.4152 
       137.477 42.8538 135.748 42.4795 133.731 42.2924 132.002 42.4795 
       130.273 42.6667 128.832 43.2281 127.68 43.9767 125.951 46.0351 
       125.662 47.1579 125.375 48.2807 125.951 50.7135 126.527 51.6491 
       127.392 52.5848 128.544 53.5205 130.562 54.4562 133.155 55.3918 
       136.613 56.5148 140.07 57.6375 142.952 58.7603 145.546 59.8831 
       147.562 61.1931 149.291 62.503 150.732 64 151.884 65.6843 
       152.75 67.5557 153.614 69.6137 154.188 71.8598 154.477 74.2923 
       154.477 76.9121 154.188 80.8423 153.325 84.3977 151.884 87.5787 
       149.58 90.3857 146.698 92.8192 143.239 94.6907 139.206 95.6264 
       134.307 96 129.985 95.6264 126.24 94.6907 122.781 93.0056 
       119.9 90.7605 117.595 87.7659 115.866 84.0231 114.713 79.7193 
       113.85 74.667 113.85 74.667 113.85 74.667 113.85 74.667 
       113.85 74.667 113.85 74.667 113.85 74.667 "
       style=" stroke:#000000; stroke-width:1; fill:#6e0000; fill-opacity:100%"></polygon>
      <polygon points="162.487 94.8805 162.487 33.1195 167.49 33.1195 
       172.787 33.1195 172.787 94.8805 167.49 94.8805 162.487 94.8805 
       162.487 94.8805 162.487 94.8805 162.487 94.8805 162.487 94.8805 
       162.487 94.8805 162.487 94.8805 "
       style=" stroke:#000000; stroke-width:1; fill:#6e0000; fill-opacity:100%"></polygon>
      <polygon points="214.209 72.2334 219.104 74.1049 224 75.9764 
       222.849 80.8423 221.121 84.9588 218.817 88.328 216.223 91.1351 
       213.344 93.1928 210.466 94.6907 207.009 95.6264 203.265 96 
       200.961 95.8127 198.658 95.4391 196.353 94.8769 194.338 94.1287 
       192.322 93.0056 190.594 91.6962 188.865 90.1995 187.426 88.328 
       184.258 83.4621 182.242 77.8478 181.379 74.8544 180.802 71.6724 
       180.225 68.117 180.225 64.5614 180.225 60.6316 180.802 57.0761 
       181.379 53.5205 182.242 50.3393 183.106 47.345 184.258 44.5381 
       185.698 42.1053 187.426 39.6725 189.154 37.9883 190.594 36.3041 
       192.609 34.9942 194.625 33.8713 196.642 33.1228 198.945 32.5614 
       201.248 32.1871 203.84 32 207.872 32.3743 211.617 33.4971 
       213.344 34.2456 215.072 35.1813 216.512 36.4912 217.952 37.8012 
       219.681 40.2339 221.409 43.0409 222.849 46.4093 224 50.152 
       218.817 51.6491 213.92 52.9592 213.344 50.7135 212.481 48.655 
       211.328 46.7837 210.177 45.2866 208.738 44.1638 207.009 43.4152 
       205.281 42.8538 203.265 42.6667 200.674 43.0409 198.369 43.9767 
       196.066 45.4737 194.338 47.5321 193.474 48.8421 192.897 50.3393 
       192.322 52.2105 191.746 54.0819 191.457 56.1404 191.169 58.5732 
       190.882 61.006 190.882 63.8129 190.882 66.6199 191.169 69.2401 
       191.457 71.4852 191.746 73.7313 192.034 75.7901 192.609 77.4741 
       193.474 78.9708 194.049 80.2813 196.066 82.5264 198.081 84.0231 
       200.386 84.9588 202.977 85.3336 204.992 85.1462 206.721 84.5852 
       208.449 83.4621 209.889 82.1516 211.328 80.2813 212.481 78.0352 
       213.344 75.4154 214.209 72.2334 214.209 72.2334 214.209 72.2334 
       214.209 72.2334 214.209 72.2334 214.209 72.2334 214.209 72.2334 "
       style=" stroke:#000000; stroke-width:1; fill:#6e0000; fill-opacity:100%"></polygon>
    </g>
  </symbol>
 </defs>
</svg>
