<?xml version="1.0"?>
<?metis version="3.6"?>
<?metisxml version="1.1"?>
<!DOCTYPE svg  PUBLIC "-//W3C//DTD SVG 1.0//EN"
 "http://www.w3.org/TR/2001/REC-SVG-20010904/DTD/svg10.dtd">

<svg width="200" height="200">
 <title>Symbol library: bpm.svg</title>
 <defs>
  <symbol id="oid2" xml:space="preserve" class="METIS_SYMBOL">
   <title>EndEvent</title>
    <ellipse  cx="32" cy="32" rx="32" ry="32"
     style=" stroke:#000000; stroke-width:1; fill:#000000; fill-opacity:100%"></ellipse>
    <ellipse  cx="32" cy="32" rx="28" ry="28"
     style=" stroke:#000000; stroke-width:1; fill:#ffffff; fill-opacity:100%"></ellipse>
    <ellipse  cx="32" cy="32" rx="28" ry="28"
     style=" stroke:#000000; stroke-width:1; fill:#ffffff; fill-opacity:100%"     class="TAG:canvas"></ellipse>
  </symbol>
  <symbol id="oid6" xml:space="preserve" class="METIS_SYMBOL">
   <title>EndEvent w Message</title>
    <ellipse  cx="32" cy="32" rx="32" ry="32"
     style=" stroke:#000000; stroke-width:1; fill:#000000; fill-opacity:100%"></ellipse>
    <ellipse  cx="32" cy="32" rx="28" ry="28"
     style=" stroke:#000000; stroke-width:1; fill:#ffffff; fill-opacity:100%"></ellipse>
    <ellipse  cx="32" cy="32" rx="28" ry="28"
     style=" stroke:#000000; stroke-width:1; fill:#ffffff; fill-opacity:100%"     class="TAG:canvas"></ellipse>
    <g     class="TAG:envelope">
      <rect x="12" y="18.6942" width="40" height="26.6116"
       style=" stroke:#000000; stroke-width:1; fill:#ffffff; fill-opacity:100%"></rect>
      <polyline points="12 18.6942 32 31.9999 52 18.6942"
       style=" stroke:#000000; stroke-width:1;"></polyline>
    </g>
  </symbol>
  <symbol id="oid29" xml:space="preserve" class="METIS_SYMBOL">
   <title>EndEvent w Exception</title>
    <ellipse  cx="32" cy="32" rx="32" ry="32"
     style=" stroke:#000000; stroke-width:1; fill:#000000; fill-opacity:100%"></ellipse>
    <ellipse  cx="32" cy="32" rx="28" ry="28"
     style=" stroke:#000000; stroke-width:1; fill:#ffffff; fill-opacity:100%"></ellipse>
    <ellipse  cx="32" cy="32" rx="28" ry="28"
     style=" stroke:#000000; stroke-width:1; fill:#ffffff; fill-opacity:100%"     class="TAG:canvas"></ellipse>
    <polygon points="16 52 24 22 39 38.25 
     48 12 40 42 25 25.75 16 52 
                                                  "
     style=" stroke:#000000; stroke-width:1; fill:#000000; fill-opacity:100%"></polygon>
  </symbol>
  <symbol id="oid30" xml:space="preserve" class="METIS_SYMBOL">
   <title>EndEvent w Cancel</title>
    <ellipse  cx="32" cy="32" rx="32" ry="32"
     style=" stroke:#000000; stroke-width:1; fill:#000000; fill-opacity:100%"></ellipse>
    <ellipse  cx="32" cy="32" rx="28" ry="28"
     style=" stroke:#000000; stroke-width:1; fill:#ffffff; fill-opacity:100%"></ellipse>
    <ellipse  cx="32" cy="32" rx="28" ry="28"
     style=" stroke:#000000; stroke-width:1; fill:#ffffff; fill-opacity:100%"     class="TAG:canvas"></ellipse>
    <g>
      <polygon points="14 17.6 17.6 14 50 46.4 
       46.4 50 14 17.6                                              "
       style=" stroke:#000000; stroke-width:1; fill:#000000; fill-opacity:100%"></polygon>
      <polygon points="46.4 14 50 17.4286 17.6 50 
       14 46.4 46.4 14                                              "
       style=" stroke:#000000; stroke-width:1; fill:#000000; fill-opacity:100%"></polygon>
    </g>
  </symbol>
  <symbol id="oid31" xml:space="preserve" class="METIS_SYMBOL">
   <title>EndEvent w Compensation</title>
    <ellipse  cx="32" cy="32" rx="32" ry="32"
     style=" stroke:#000000; stroke-width:1; fill:#000000; fill-opacity:100%"></ellipse>
    <ellipse  cx="32" cy="32" rx="28" ry="28"
     style=" stroke:#000000; stroke-width:1; fill:#ffffff; fill-opacity:100%"></ellipse>
    <ellipse  cx="32" cy="32" rx="28" ry="28"
     style=" stroke:#000000; stroke-width:1; fill:#ffffff; fill-opacity:100%"     class="TAG:canvas"></ellipse>
    <g>
      <polygon points="52 16 52 48 32 32 
        52 16                                              "
       style=" stroke:#000000; stroke-width:1; fill:#000000; fill-opacity:100%"></polygon>
      <polygon points="32 16 32 48 12 32 
        32 16                                              "
       style=" stroke:#000000; stroke-width:1; fill:#000000; fill-opacity:100%"></polygon>
    </g>
  </symbol>
  <symbol id="oid32" xml:space="preserve" class="METIS_SYMBOL">
   <title>EndEvent w Link</title>
    <ellipse  cx="32" cy="32" rx="32" ry="32"
     style=" stroke:#000000; stroke-width:1; fill:#000000; fill-opacity:100%"></ellipse>
    <ellipse  cx="32" cy="32" rx="28" ry="28"
     style=" stroke:#000000; stroke-width:1; fill:#ffffff; fill-opacity:100%"></ellipse>
    <ellipse  cx="32" cy="32" rx="28" ry="28"
     style=" stroke:#000000; stroke-width:1; fill:#ffffff; fill-opacity:100%"     class="TAG:canvas"></ellipse>
    <polygon points="12 26 44 26 44 16 
     52 32 44 48 44 38 12 38 
     12 26                                              "
     style=" stroke:#000000; stroke-width:1; fill:#000000; fill-opacity:100%"></polygon>
  </symbol>
  <symbol id="oid33" xml:space="preserve" class="METIS_SYMBOL">
   <title>EndEvent w Multiple</title>
    <ellipse  cx="32" cy="32" rx="32" ry="32"
     style=" stroke:#000000; stroke-width:1; fill:#000000; fill-opacity:100%"></ellipse>
    <ellipse  cx="32" cy="32" rx="28" ry="28"
     style=" stroke:#000000; stroke-width:1; fill:#ffffff; fill-opacity:100%"></ellipse>
    <ellipse  cx="32" cy="32" rx="28" ry="28"
     style=" stroke:#000000; stroke-width:1; fill:#ffffff; fill-opacity:100%"     class="TAG:canvas"></ellipse>
    <g>
      <polygon points="32 16 16 40 48 40 
       32 16                                              "
       style=" stroke:#000000; stroke-width:1; fill:#000000; fill-opacity:100%"></polygon>
      <polygon points="16 24 48 24 48 24.5 
       32 48 16 24                                              "
       style=" stroke:#000000; stroke-width:1; fill:#000000; fill-opacity:100%"></polygon>
    </g>
  </symbol>
  <symbol id="oid34" xml:space="preserve" class="METIS_SYMBOL">
   <title>EndEvent w Terminate</title>
    <ellipse  cx="32" cy="32" rx="32" ry="32"
     style=" stroke:#000000; stroke-width:1; fill:#000000; fill-opacity:100%"></ellipse>
    <ellipse  cx="32" cy="32" rx="28" ry="28"
     style=" stroke:#000000; stroke-width:1; fill:#ffffff; fill-opacity:100%"></ellipse>
    <ellipse  cx="32" cy="32" rx="28" ry="28"
     style=" stroke:#000000; stroke-width:1; fill:#ffffff; fill-opacity:100%"     class="TAG:canvas"></ellipse>
    <ellipse  cx="32" cy="32" rx="16" ry="16"
     style=" stroke:#000000; stroke-width:1; fill:#000000; fill-opacity:100%"></ellipse>
  </symbol>
  <symbol id="oid3" xml:space="preserve" class="METIS_SYMBOL">
   <title>IntermediateEvent</title>
    <ellipse  cx="32" cy="32" rx="32" ry="32"
     style=" stroke:#000000; stroke-width:1; fill:#ffffff; fill-opacity:100%"></ellipse>
    <ellipse  cx="32" cy="32" rx="28" ry="28"
     style=" stroke:#000000; stroke-width:1; fill:#ffffff; fill-opacity:100%"     class="TAG:canvas"></ellipse>
  </symbol>
  <symbol id="oid5" xml:space="preserve" class="METIS_SYMBOL">
   <title>IntermediateEvent w Message</title>
    <ellipse  cx="32" cy="32" rx="32" ry="32"
     style=" stroke:#000000; stroke-width:1; fill:#ffffff; fill-opacity:100%"></ellipse>
    <ellipse  cx="32" cy="32" rx="28" ry="28"
     style=" stroke:#000000; stroke-width:1; fill:#ffffff; fill-opacity:100%"     class="TAG:canvas"></ellipse>
    <g     class="TAG:envelope">
      <rect x="12" y="18.6942" width="40" height="26.6116"
       style=" stroke:#000000; stroke-width:1; fill:#ffffff; fill-opacity:100%"></rect>
      <polyline points="12 18.6942 32 31.9999 52 18.6942"
       style=" stroke:#000000; stroke-width:1;"></polyline>
    </g>
  </symbol>
  <symbol id="oid22" xml:space="preserve" class="METIS_SYMBOL">
   <title>IntermediateEvent w Timer</title>
    <ellipse  cx="32" cy="32" rx="32" ry="32"
     style=" stroke:#000000; stroke-width:1; fill:#ffffff; fill-opacity:100%"></ellipse>
    <ellipse  cx="32" cy="32" rx="28" ry="28"
     style=" stroke:#000000; stroke-width:1; fill:#ffffff; fill-opacity:100%"     class="TAG:canvas"></ellipse>
    <g>
      <ellipse  cx="32" cy="32" rx="20" ry="20"
       style=" stroke:#000000; stroke-width:1; fill:#ffffff; fill-opacity:100%"></ellipse>
      <polyline points="12 32 17 32"
       style=" stroke:#000000; stroke-width:1;"></polyline>
      <polyline points="46.375 32 52 32"
       style=" stroke:#000000; stroke-width:1;"></polyline>
      <polyline points="38.875 20.125 42 14.5"
       style=" stroke:#000000; stroke-width:1;"></polyline>
      <polyline points="22 49.5 25.125 43.875"
       style=" stroke:#000000; stroke-width:1;"></polyline>
      <polyline points="49.5 22 43.875 25.125"
       style=" stroke:#000000; stroke-width:1;"></polyline>
      <polyline points="14.5 42 20.125 38.875"
       style=" stroke:#000000; stroke-width:1;"></polyline>
      <polyline points="22 14.5 25.125 20.125"
       style=" stroke:#000000; stroke-width:1;"></polyline>
      <polyline points="42 49.5 38.875 43.875"
       style=" stroke:#000000; stroke-width:1;"></polyline>
      <polyline points="14.5 22 20.75 25.75"
       style=" stroke:#000000; stroke-width:1;"></polyline>
      <polyline points="49.5 42 43.25 38.25"
       style=" stroke:#000000; stroke-width:1;"></polyline>
      <polyline points="32 12 32 18.875"
       style=" stroke:#000000; stroke-width:1;"></polyline>
      <polyline points="32 52 32 45.75"
       style=" stroke:#000000; stroke-width:1;"></polyline>
      <polyline points="32 32 33.875 14.5"
       style=" stroke:#000000; stroke-width:1;"></polyline>
      <polyline points="32 32 40.125 32"
       style=" stroke:#000000; stroke-width:1;"></polyline>
    </g>
  </symbol>
  <symbol id="oid23" xml:space="preserve" class="METIS_SYMBOL">
   <title>IntermediateEvent w Exception</title>
    <ellipse  cx="32" cy="32" rx="32" ry="32"
     style=" stroke:#000000; stroke-width:1; fill:#ffffff; fill-opacity:100%"></ellipse>
    <ellipse  cx="32" cy="32" rx="28" ry="28"
     style=" stroke:#000000; stroke-width:1; fill:#ffffff; fill-opacity:100%"     class="TAG:canvas"></ellipse>
    <polygon points="16.0403 52 24.0403 22 39.0403 38.25 
     48.0403 12 40.0403 42 25.0403 25.75 16.0403 52 
                                                  "
     style=" stroke:#000000; stroke-width:1; fill:#000000; fill-opacity:100%"></polygon>
  </symbol>
  <symbol id="oid24" xml:space="preserve" class="METIS_SYMBOL">
   <title>IntermediateEvent w Cancel</title>
    <ellipse  cx="32" cy="32" rx="32" ry="32"
     style=" stroke:#000000; stroke-width:1; fill:#ffffff; fill-opacity:100%"></ellipse>
    <ellipse  cx="32" cy="32" rx="28" ry="28"
     style=" stroke:#000000; stroke-width:1; fill:#ffffff; fill-opacity:100%"     class="TAG:canvas"></ellipse>
    <g>
      <polygon points="14 17.6 17.6 14 50 46.4 
       46.4 50 14 17.6                                              "
       style=" stroke:#000000; stroke-width:1; fill:#000000; fill-opacity:100%"></polygon>
      <polygon points="46.4 14 50 17.4286 17.6 50 
       14 46.4 46.4 14                                              "
       style=" stroke:#000000; stroke-width:1; fill:#000000; fill-opacity:100%"></polygon>
    </g>
  </symbol>
  <symbol id="oid25" xml:space="preserve" class="METIS_SYMBOL">
   <title>IntermediateEvent w Compensation</title>
    <ellipse  cx="32" cy="32" rx="32" ry="32"
     style=" stroke:#000000; stroke-width:1; fill:#ffffff; fill-opacity:100%"></ellipse>
    <ellipse  cx="32" cy="32" rx="28" ry="28"
     style=" stroke:#000000; stroke-width:1; fill:#ffffff; fill-opacity:100%"     class="TAG:canvas"></ellipse>
    <g>
      <polygon points="52 16 52 48 32 32 
        52 16                                              "
       style=" stroke:#000000; stroke-width:1; fill:#000000; fill-opacity:100%"></polygon>
      <polygon points="32 16 32 48 12 32 
        32 16                                              "
       style=" stroke:#000000; stroke-width:1; fill:#000000; fill-opacity:100%"></polygon>
    </g>
  </symbol>
  <symbol id="oid26" xml:space="preserve" class="METIS_SYMBOL">
   <title>IntermediateEvent w Rule</title>
    <ellipse  cx="32" cy="32" rx="32" ry="32"
     style=" stroke:#000000; stroke-width:1; fill:#ffffff; fill-opacity:100%"></ellipse>
    <ellipse  cx="32" cy="32" rx="28" ry="28"
     style=" stroke:#000000; stroke-width:1; fill:#ffffff; fill-opacity:100%"     class="TAG:canvas"></ellipse>
    <g>
      <rect x="16" y="16" width="32" height="32"
       style=" stroke:#000000; stroke-width:2; fill:#ffffff; fill-opacity:100%"></rect>
      <polyline points="20 20 44 20"
       style=" stroke:#000000; stroke-width:2;"></polyline>
      <polyline points="20 26 44 26"
       style=" stroke:#000000; stroke-width:1;"></polyline>
      <polyline points="20 32 44 32"
       style=" stroke:#000000; stroke-width:1;"></polyline>
      <polyline points="20 38 44 38"
       style=" stroke:#000000; stroke-width:1;"></polyline>
      <polyline points="20 44 44 44"
       style=" stroke:#000000; stroke-width:1;"></polyline>
    </g>
  </symbol>
  <symbol id="oid27" xml:space="preserve" class="METIS_SYMBOL">
   <title>IntermediateEvent w Link</title>
    <ellipse  cx="32" cy="32" rx="32" ry="32"
     style=" stroke:#000000; stroke-width:1; fill:#ffffff; fill-opacity:100%"></ellipse>
    <ellipse  cx="32" cy="32" rx="28" ry="28"
     style=" stroke:#000000; stroke-width:1; fill:#ffffff; fill-opacity:100%"     class="TAG:canvas"></ellipse>
    <polygon points="12 26 44 26 44 16 
     52 32 44 48 44 38 12 38 
     12 26                                              "
     style=" stroke:#000000; stroke-width:1; fill:#000000; fill-opacity:100%"></polygon>
  </symbol>
  <symbol id="oid28" xml:space="preserve" class="METIS_SYMBOL">
   <title>IntermediateEvent w Multiple</title>
    <ellipse  cx="32" cy="32" rx="32" ry="32"
     style=" stroke:#000000; stroke-width:1; fill:#ffffff; fill-opacity:100%"></ellipse>
    <ellipse  cx="32" cy="32" rx="28" ry="28"
     style=" stroke:#000000; stroke-width:1; fill:#ffffff; fill-opacity:100%"     class="TAG:canvas"></ellipse>
    <g>
      <polygon points="32 16 16 40 48 40 
       32 16                                              "
       style=" stroke:#000000; stroke-width:1; fill:#000000; fill-opacity:100%"></polygon>
      <polygon points="16 24 48 24 48 24.5 
       32 48 16 24                                              "
       style=" stroke:#000000; stroke-width:1; fill:#000000; fill-opacity:100%"></polygon>
    </g>
  </symbol>
  <symbol id="oid1" xml:space="preserve" class="METIS_SYMBOL">
   <title>StartEvent</title>
    <ellipse  cx="32" cy="32" rx="32" ry="32"
     style=" stroke:#000000; stroke-width:1; fill:#ffffff; fill-opacity:100%"     class="TAG:canvas"></ellipse>
  </symbol>
  <symbol id="oid8" xml:space="preserve" class="METIS_SYMBOL">
   <title>StartEvent w Message</title>
    <ellipse  cx="32" cy="32" rx="32" ry="32"
     style=" stroke:#000000; stroke-width:1; fill:#ffffff; fill-opacity:100%"     class="TAG:canvas"></ellipse>
    <g     class="TAG:envelope">
      <rect x="11.9597" y="18.5732" width="40" height="26.6116"
       style=" stroke:#000000; stroke-width:1; fill:#ffffff; fill-opacity:100%"></rect>
      <polyline points="11.9597 18.5732 31.9597 31.8789 51.9597 18.5732"
       style=" stroke:#000000; stroke-width:1;"></polyline>
    </g>
  </symbol>
  <symbol id="oid17" xml:space="preserve" class="METIS_SYMBOL">
   <title>StartEvent w Timer</title>
    <ellipse  cx="32" cy="32" rx="32" ry="32"
     style=" stroke:#000000; stroke-width:1; fill:#ffffff; fill-opacity:100%"     class="TAG:canvas"></ellipse>
    <g>
      <ellipse  cx="32" cy="32" rx="20" ry="20"
       style=" stroke:#000000; stroke-width:1; fill:#ffffff; fill-opacity:100%"></ellipse>
      <polyline points="12 32 17 32"
       style=" stroke:#000000; stroke-width:1;"></polyline>
      <polyline points="46.375 32 52 32"
       style=" stroke:#000000; stroke-width:1;"></polyline>
      <polyline points="38.875 20.125 42 14.5"
       style=" stroke:#000000; stroke-width:1;"></polyline>
      <polyline points="22 49.5 25.125 43.875"
       style=" stroke:#000000; stroke-width:1;"></polyline>
      <polyline points="49.5 22 43.875 25.125"
       style=" stroke:#000000; stroke-width:1;"></polyline>
      <polyline points="14.5 42 20.125 38.875"
       style=" stroke:#000000; stroke-width:1;"></polyline>
      <polyline points="22 14.5 25.125 20.125"
       style=" stroke:#000000; stroke-width:1;"></polyline>
      <polyline points="42 49.5 38.875 43.875"
       style=" stroke:#000000; stroke-width:1;"></polyline>
      <polyline points="14.5 22 20.75 25.75"
       style=" stroke:#000000; stroke-width:1;"></polyline>
      <polyline points="49.5 42 43.25 38.25"
       style=" stroke:#000000; stroke-width:1;"></polyline>
      <polyline points="32 12 32 18.875"
       style=" stroke:#000000; stroke-width:1;"></polyline>
      <polyline points="32 52 32 45.75"
       style=" stroke:#000000; stroke-width:1;"></polyline>
      <polyline points="32 32 33.875 14.5"
       style=" stroke:#000000; stroke-width:1;"></polyline>
      <polyline points="32 32 40.125 32"
       style=" stroke:#000000; stroke-width:1;"></polyline>
    </g>
  </symbol>
  <symbol id="oid19" xml:space="preserve" class="METIS_SYMBOL">
   <title>StartEvent w Link</title>
    <ellipse  cx="32" cy="32" rx="32" ry="32"
     style=" stroke:#000000; stroke-width:1; fill:#ffffff; fill-opacity:100%"     class="TAG:canvas"></ellipse>
    <polygon points="12 26 44 26 44 16 
     52 32 44 48 44 38 12 38 
     12 26                                              "
     style=" stroke:#000000; stroke-width:1; fill:#000000; fill-opacity:100%"></polygon>
  </symbol>
  <symbol id="oid18" xml:space="preserve" class="METIS_SYMBOL">
   <title>StartEvent w Rule</title>
    <ellipse  cx="32" cy="32" rx="32" ry="32"
     style=" stroke:#000000; stroke-width:1; fill:#ffffff; fill-opacity:100%"     class="TAG:canvas"></ellipse>
    <g>
      <rect x="16" y="16" width="32" height="32"
       style=" stroke:#000000; stroke-width:2; fill:#ffffff; fill-opacity:100%"></rect>
      <polyline points="20 20 44 20"
       style=" stroke:#000000; stroke-width:2;"></polyline>
      <polyline points="20 26 44 26"
       style=" stroke:#000000; stroke-width:1;"></polyline>
      <polyline points="20 32 44 32"
       style=" stroke:#000000; stroke-width:1;"></polyline>
      <polyline points="20 38 44 38"
       style=" stroke:#000000; stroke-width:1;"></polyline>
      <polyline points="20 44 44 44"
       style=" stroke:#000000; stroke-width:1;"></polyline>
    </g>
  </symbol>
  <symbol id="oid20" xml:space="preserve" class="METIS_SYMBOL">
   <title>StartEvent w Multiple</title>
    <ellipse  cx="32" cy="32" rx="32" ry="32"
     style=" stroke:#000000; stroke-width:1; fill:#ffffff; fill-opacity:100%"     class="TAG:canvas"></ellipse>
    <g>
      <polygon points="32 16 16 40 48 40 
       32 16                                              "
       style=" stroke:#000000; stroke-width:1; fill:#000000; fill-opacity:100%"></polygon>
      <polygon points="16 24 48 24 48 24.5 
       32 48 16 24                                              "
       style=" stroke:#000000; stroke-width:1; fill:#000000; fill-opacity:100%"></polygon>
    </g>
  </symbol>
  <symbol id="oid38" xml:space="preserve" class="METIS_SYMBOL">
   <title>AND</title>
    <polygon points="64 0 0 64 64 128 
     128 64  64 0                                       "
     style=" stroke:#000000; stroke-width:1; fill:#ffffff; fill-opacity:100%"     class="TAG:canvas"></polygon>
    <rect x="60" y="32" width="8" height="64"
     style=" stroke:#000000; stroke-width:1; fill:#000000; fill-opacity:100%"></rect>
    <rect x="32" y="60" width="64" height="8"
     style=" stroke:#000000; stroke-width:1; fill:#000000; fill-opacity:100%"></rect>
  </symbol>
  <symbol id="oid37" xml:space="preserve" class="METIS_SYMBOL">
   <title>Merge</title>
    <polygon points="64 0 0 64 64 128 
     128 64  64 0                                       "
     style=" stroke:#000000; stroke-width:1; fill:#ffffff; fill-opacity:100%"     class="TAG:canvas"></polygon>
    <g>
      <polygon points="36 42 86 92 92 86 
       42 36 36 42                                       "
       style=" stroke:#000000; stroke-width:1; fill:#000000; fill-opacity:100%"></polygon>
      <polygon points="36 86 86 36 92 42 
       42 92 36 86                                       "
       style=" stroke:#000000; stroke-width:1; fill:#000000; fill-opacity:100%"></polygon>
      <rect x="32" y="60" width="64" height="8"
       style=" stroke:#000000; stroke-width:1; fill:#000000; fill-opacity:100%"></rect>
      <rect x="60" y="32" width="8" height="64"
       style=" stroke:#000000; stroke-width:1; fill:#000000; fill-opacity:100%"></rect>
    </g>
  </symbol>
  <symbol id="oid36" xml:space="preserve" class="METIS_SYMBOL">
   <title>OR</title>
    <polygon points="64 0 0 64 64 128 
     128 64  64 0                                       "
     style=" stroke:#000000; stroke-width:1; fill:#ffffff; fill-opacity:100%"     class="TAG:canvas"></polygon>
    <ellipse  cx="64" cy="64" rx="32" ry="32"
     style=" stroke:#000000; stroke-width:1; fill:#000000; fill-opacity:100%"></ellipse>
    <ellipse  cx="64" cy="64" rx="28" ry="28"
     style=" stroke:#000000; stroke-width:1; fill:#ffffff; fill-opacity:100%"></ellipse>
    <ellipse  cx="64" cy="64" rx="28" ry="28"
     style=" stroke:#000000; stroke-width:1; fill:#ffffff; fill-opacity:100%"     class="TAG:canvas"></ellipse>
  </symbol>
  <symbol id="oid39" xml:space="preserve" class="METIS_SYMBOL">
   <title>XOR</title>
    <g     class="TAG:canvas">
      <polygon points="64 0 0 64 64 128 
       128 64  64 0                                       "
       style=" stroke:#000000; stroke-width:1; fill:#ffffff; fill-opacity:100%"></polygon>
      <g>
	<desc>METIS_TEXT_GROUP</desc>
	<text  x="0" y="34"
	 style=" stroke:#000000; stroke-width:1; font-family:sans-serif; font-size:36; text-align:center vertical-align:middle;"
	 class="TAG:text">text</text>
	<rect x="0" y="0" width="128" height="128"
	 style=" stroke:#000000; stroke-width:1; fill:#ffffff; fill-opacity:0%"></rect>
      </g>
    </g>
  </symbol>
  <symbol id="oid35" xml:space="preserve" class="METIS_SYMBOL">
   <title>XOR-1</title>
    <polygon points="64 0 0 64 64 128 
     128 64  64 0                                       "
     style=" stroke:#000000; stroke-width:1; fill:#ffffff; fill-opacity:100%"     class="TAG:canvas"></polygon>
    <g>
      <polygon points="42 32 76 96 84 96 
       50 32 42 32                                       "
       style=" stroke:#000000; stroke-width:1; fill:#000000; fill-opacity:100%"></polygon>
      <polygon points="42 96 78 32 86 32 
       52 96 42 96                                       "
       style=" stroke:#000000; stroke-width:1; fill:#000000; fill-opacity:100%"></polygon>
    </g>
  </symbol>
  <symbol id="oid40" xml:space="preserve" class="METIS_SYMBOL">
   <title>XOR-2</title>
    <polygon points="64 0 0 64 64 128 
     128 64  64 0                                       "
     style=" stroke:#000000; stroke-width:1; fill:#ffffff; fill-opacity:100%"     class="TAG:canvas"></polygon>
    <ellipse  cx="63.6788" cy="61.7426" rx="32" ry="32"
     style=" stroke:#000000; stroke-width:1; fill:#ffffff; fill-opacity:100%"></ellipse>
    <ellipse  cx="63.6788" cy="61.7426" rx="28" ry="28"
     style=" stroke:#000000; stroke-width:1; fill:#ffffff; fill-opacity:100%"     class="TAG:canvas"></ellipse>
    <g>
      <polygon points="63.6788 41.7426 43.6788 71.7426 83.679 71.7426 
       63.6788 41.7426                                              "
       style=" stroke:#000000; stroke-width:1; fill:#000000; fill-opacity:100%"></polygon>
      <polygon points="43.6788 51.7426 83.679 51.7426 83.679 52.3676 
       63.6788 81.7426 43.6788 51.7426                                              "
       style=" stroke:#000000; stroke-width:1; fill:#000000; fill-opacity:100%"></polygon>
    </g>
  </symbol>
  <symbol id="oid61" xml:space="preserve" class="METIS_SYMBOL">
   <title>Text</title>
    <g>
      <desc>METIS_TEXT_GROUP</desc>
      <text  x="0" y="123"
       style=" stroke:#000000; stroke-width:1; font-family:sans-serif; font-size:127;"
       class="TAG:text">text</text>
      <rect x="0" y="0" width="256" height="128"
       style=" stroke:#000000; stroke-width:1; fill:#ffffff; fill-opacity:0%"></rect>
    </g>
  </symbol>
  <symbol id="oid63" xml:space="preserve" class="METIS_SYMBOL">
   <title>SwinlaneText</title>
    <g>
      <desc>METIS_TEXT_GROUP</desc>
      <text  x="0" y="46"
       style=" stroke:#000000; stroke-width:1; font-family:sans-serif; font-size:48;"
       class="TAG:text">text</text>
      <rect x="0" y="0" width="256" height="128"
       style=" stroke:#000000; stroke-width:1; fill:#ffffff; fill-opacity:0%"></rect>
    </g>
  </symbol>
  <symbol id="oid62" xml:space="preserve" class="METIS_SYMBOL">
   <title>Text 1</title>
    <g>
      <desc>METIS_TEXT_GROUP</desc>
      <text  x="0" y="11"
       style=" stroke:#000000; stroke-width:1; font-family:sans-serif; font-size:12; text-align:center vertical-align:middle;"
       class="TAG:text">text</text>
      <rect x="0" y="0" width="256" height="128"
       style=" stroke:#000000; stroke-width:1; fill:#ffffff; fill-opacity:0%"></rect>
    </g>
  </symbol>
  <symbol id="oid64" xml:space="preserve" class="METIS_SYMBOL">
   <title>Data Object</title>
    <polygon points="0 0 0 832 688 832 
     688 256 548.383 203.073 507.404 170.238 485.891 121.483 
     448 0 0 0     "
     style=" stroke:#000000; stroke-width:1; fill:#ffffff; fill-opacity:100%"     class="TAG:canvas"></polygon>
    <polygon points="448 0 448.004 255.975 688 256 
     448 0     "
     style=" stroke:#000000; stroke-width:1; fill:#ffffff; fill-opacity:100%"></polygon>
  </symbol>
 </defs>
</svg>
