<?xml version="1.0"?>
<?metis version="3.1"?>
<?metisxml version="1.0"?>
<!DOCTYPE svg  PUBLIC "-//W3C//DTD SVG August 1999//EN"
 "http://www.w3.org/Graphics/SVG/svg-19990812.dtd">

<svg width="200" height="200">
 <title>Symbol library: bus_policy.svg</title>
 <defs>
  <symbol id="oid0" xml:space="preserve" class="METIS_SYMBOL">
   <title>Policy</title>
    <g>
      <polygon points="0 0 0 304 16 320 
       880 320 880 16 864 0 0 0 
       0 0 0 0 0 0 0 0 0 0 "
       style=" stroke:#000000; stroke-width:1; fill:#9b9b9b; fill-opacity:100%"       class="TAG:shadow"></polygon>
      <rect x="240" y="0" width="624" height="304"
       style=" stroke:#000000; stroke-width:1; fill:#ff8c8c; fill-opacity:100%"       class="TAG:canvas"></rect>
      <g>
	<desc>METIS_TEXT_GROUP</desc>
	<text  x="256" y="15.8"
	 style=" stroke:#000000; stroke-width:1; font-family:sans-serif; font-size:16;"
	 class="TAG:text">text</text>
	<rect x="256" y="0" width="608" height="304"
	 style=" stroke:#000000; stroke-width:1; fill:#ffffff; fill-opacity:0%"></rect>
      </g>
      <rect x="0" y="0" width="240" height="304"
       style=" stroke:#000000; stroke-width:1; fill:#ffff6e; fill-opacity:100%"       class="TAG:PictureBackground"></rect>
      <g>
	<polygon points="135.124 192 135.124 96 139.41 96 
	 143.948 96 143.948 192 139.41 192 135.124 192 
	 135.124 192 135.124 192 135.124 192 135.124 192 
	 135.124 192 135.124 192 135.124 192 135.124 192 135.124 192 "
	 style=" stroke:#000000; stroke-width:1; fill:#6e0000; fill-opacity:100%"></polygon>
	<polygon points="179.68 156.35 184.192 159.157 188.704 161.963 
	 187.643 169.264 186.05 175.438 183.927 180.49 181.536 184.703 
	 178.883 187.787 176.231 190.037 173.045 191.439 169.594 192 
	 167.47 191.717 165.348 191.158 163.225 190.316 161.367 189.193 
	 159.508 187.508 157.916 185.543 156.322 183.299 154.996 180.49 
	 152.077 173.194 150.219 164.77 149.424 160.282 148.892 155.508 
	 148.36 150.175 148.36 144.841 148.36 138.946 148.892 133.614 
	 149.424 128.28 150.219 123.507 151.016 119.017 152.077 114.808 
	 153.403 111.156 154.996 107.508 156.589 104.982 157.916 102.455 
	 159.774 100.49 161.631 98.8055 163.49 97.6826 165.614 96.8404 
	 167.736 96.2807 170.125 96 173.839 96.5596 177.291 98.2459 
	 178.883 99.3689 180.475 100.771 181.802 102.736 183.129 104.701 
	 184.723 108.351 186.315 112.562 187.643 117.615 188.704 123.228 
	 183.927 125.472 179.414 127.437 178.883 124.07 178.087 120.982 
	 177.025 118.175 175.964 115.929 174.638 114.244 173.045 113.121 
	 171.452 112.279 169.594 111.998 167.206 112.562 165.081 113.964 
	 162.959 116.21 161.367 119.298 160.57 121.263 160.039 123.507 
	 159.508 126.314 158.978 129.124 158.712 132.21 158.446 135.859 
	 158.183 139.509 158.183 143.718 158.183 147.929 158.446 151.86 
	 158.712 155.227 158.978 158.596 159.244 161.684 159.774 164.21 
	 160.57 166.456 161.101 168.422 162.959 171.789 164.816 174.035 
	 166.94 175.438 169.328 176 171.186 175.719 172.778 174.877 
	 174.372 173.194 175.698 171.225 177.025 168.422 178.087 165.053 
	 178.883 161.122 179.68 156.35 179.68 156.35 179.68 156.35 
	 179.68 156.35 179.68 156.35 179.68 156.35 179.68 156.35 
	 179.68 156.35 179.68 156.35 179.68 156.35 "
	 style=" stroke:#000000; stroke-width:1; fill:#6e0000; fill-opacity:100%"></polygon>
	<polygon points="16 192 16 144.181 16 96 
	 23.3312 96 30.9336 96 34.7347 96 37.7214 96.3644 
	 40.1648 96.7307 41.7948 97.4595 43.6937 98.919 45.596 100.743 
	 47.2238 103.665 48.5804 106.951 49.6683 110.965 50.4828 115.345 
	 51.0238 120.092 51.296 125.567 51.0238 130.676 50.7539 135.058 
	 49.9383 139.437 48.8527 143.086 47.7672 146.373 46.4093 149.292 
	 44.7804 151.484 43.1526 152.944 41.2503 154.037 38.5359 155.132 
	 35.2781 155.496 31.2058 155.863 28.218 155.863 25.2313 155.863 
	 25.2313 192 20.6167 192 16 192 16 192 
	 16 192 16 192 16 192 16 192 
	 16 192 16 192 16 192 16 192 16 192 "
	 style=" stroke:#000000; stroke-width:1; fill:#6e0000; fill-opacity:100%"></polygon>
	<polygon points="25.1615 112.363 25.1615 126 25.1615 139.636 
	 27.9008 139.636 30.3655 139.636 32.558 139.636 34.7483 139.267 
	 36.3918 138.899 37.4875 138.531 39.131 137.057 40.5012 134.108 
	 41.3224 130.421 41.5968 126 41.3224 121.577 40.5012 117.892 
	 39.131 115.31 37.4875 113.467 36.3918 113.101 34.4738 112.733 
	 32.558 112.363 29.8188 112.363 27.3528 112.363 25.1615 112.363 
	 25.1615 112.363 25.1615 112.363 25.1615 112.363 25.1615 112.363 
	 25.1615 112.363 25.1615 112.363 25.1615 112.363 25.1615 112.363 
	 25.1615 112.363 25.1615 112.363 "
	 style=" stroke:#000000; stroke-width:1; fill:#ffff6e; fill-opacity:100%"></polygon>
	<polygon points="99.8282 192 99.8282 96 104.242 96 
	 108.652 96 108.652 136.09 108.652 175.816 119.551 175.816 
	 130.712 175.816 130.712 183.909 130.712 192 115.14 192 
	 99.8282 192 99.8282 192 99.8282 192 99.8282 192 
	 99.8282 192 99.8282 192 99.8282 192 99.8282 192 
	 99.8282 192 99.8282 192 "
	 style=" stroke:#000000; stroke-width:1; fill:#6e0000; fill-opacity:100%"></polygon>
	<polygon points="55.7081 144.562 55.9515 136.702 56.4411 129.402 
	 57.1741 122.947 58.3966 117.333 59.864 112.279 61.5763 107.789 
	 63.2871 104.141 65.4875 101.332 67.688 99.0881 70.1332 97.4018 
	 72.8232 96.2807 75.758 96 77.9585 96.2807 80.1589 96.8404 
	 82.1145 97.6826 84.0716 99.0881 85.7824 100.771 87.4947 103.018 
	 88.9606 105.543 90.4281 108.351 91.6506 111.72 92.8733 115.367 
	 93.8511 119.298 94.5855 123.507 95.3185 128.28 95.8082 133.05 
	 96.0515 138.386 96.0515 143.999 96.0515 149.614 95.8082 154.948 
	 95.3185 160.001 94.5855 164.77 93.8511 168.981 92.8733 173.194 
	 91.6506 177.123 90.1832 180.49 88.9606 183.299 87.2499 185.543 
	 85.7824 187.508 84.0716 189.193 82.1145 190.316 80.1589 191.158 
	 78.2032 191.717 76.0014 192 73.8009 191.717 71.6007 191.158 
	 69.645 190.316 67.688 189.193 65.9771 187.508 64.5097 185.543 
	 63.0422 183.299 61.5763 180.49 60.1089 177.123 59.1311 173.475 
	 57.9085 169.264 57.1741 165.053 56.4411 160.28 56.1963 155.227 
	 55.7081 150.175 55.7081 144.562 55.7081 144.562 55.7081 144.562 
	 55.7081 144.562 55.7081 144.562 55.7081 144.562 55.7081 144.562 
	 55.7081 144.562 55.7081 144.562 55.7081 144.562 55.7081 144.562 "
	 style=" stroke:#000000; stroke-width:1; fill:#6e0000; fill-opacity:100%"></polygon>
	<polygon points="64.2132 143.999 64.4591 151.59 65.1967 158.055 
	 66.1788 163.396 67.6512 167.894 69.3709 171.549 71.3351 174.079 
	 73.545 175.483 76.001 176.046 78.4568 175.483 80.4224 174.079 
	 82.3865 171.549 84.1062 167.894 84.8425 165.927 85.5787 163.396 
	 86.0705 160.866 86.5609 158.055 87.2984 151.308 87.5442 143.718 
	 87.5442 139.784 87.2984 136.127 87.0525 132.756 86.8067 129.663 
	 85.5787 124.041 84.3507 119.824 82.6325 116.449 80.667 113.919 
	 78.4568 112.515 76.001 111.952 73.545 112.515 71.3351 113.919 
	 69.125 116.449 67.4067 119.824 66.6691 121.791 66.1788 124.321 
	 65.4411 126.852 65.1967 129.663 64.4591 136.41 64.2132 143.999 
	 64.2132 143.999 64.2132 143.999 64.2132 143.999 64.2132 143.999 
	 64.2132 143.999 64.2132 143.999 64.2132 143.999 64.2132 143.999 
	 64.2132 143.999 64.2132 143.999 "
	 style=" stroke:#000000; stroke-width:1; fill:#ffff6e; fill-opacity:100%"></polygon>
	<polygon points="199.415 192 199.415 171.869 199.415 151.743 
	 191.431 123.869 183.657 96 193.743 96 198.785 115.2 
	 203.828 134.091 213.914 96 224 96 216.015 123.869 
	 208.03 151.743 208.03 171.869 208.03 192 203.828 192 
	 199.415 192 199.415 192 199.415 192 199.415 192 
	 199.415 192 199.415 192 199.415 192 199.415 192 
	 199.415 192 199.415 192 "
	 style=" stroke:#000000; stroke-width:1; fill:#6e0000; fill-opacity:100%"></polygon>
      </g>
      <polyline points="864 304 880 320"
       style=" stroke:#000000; stroke-width:1;"></polyline>
    </g>
  </symbol>
 </defs>
</svg>
