<?xml version="1.0"?>
<?metis version="3.0.1"?>
<?metisxml version="1.0"?>
<!DOCTYPE svg  PUBLIC "-//W3C//DTD SVG August 1999//EN"
 "http://www.w3.org/Graphics/SVG/svg-19990812.dtd">

<svg width="200" height="200">
 <title>Symbol library: bus_mmlfiles1_sym.svg</title>
 <defs>
  <symbol id="oid1" xml:space="preserve" class="METIS_SYMBOL">
   <title>mml files 1</title>
    <polygon points="32 0.0391855 288 0.0391855 288 256.039 
     231.83 271 181.83 290 128 304.039 73.8304 300 
     32 288.039 32 0.0391855 32 0.0391855 "
     style=" stroke:#000000; stroke-width:1; fill:#b9b9b9; fill-opacity:100%"></polygon>
    <g>
      <desc>METIS_TEXT_GROUP</desc>
      <text  x="32.8304" y="15.8"
       style=" stroke:#000000; stroke-width:1; font-family:sans-serif; font-size:16;"
>systems.kmd</text>
      <rect x="32.8304" y="0" width="255" height="26"
       style=" stroke:#000000; stroke-width:1; fill:#b9b9b9; fill-opacity:0%"></rect>
    </g>
    <polygon points="16 32.0784 272 32.0784 272 288.078 
     215.83 303.039 165.83 322.039 112 336.078 57.8304 332.039 
     16 320.078 16 32.0784 16 32.0784 "
     style=" stroke:#000000; stroke-width:1; fill:#b9b9b9; fill-opacity:100%"></polygon>
    <g>
      <desc>METIS_TEXT_GROUP</desc>
      <text  x="16.8304" y="47.8392"
       style=" stroke:#000000; stroke-width:1; font-family:sans-serif; font-size:16;"
>location.kmd</text>
      <rect x="16.8304" y="32.0392" width="255" height="26"
       style=" stroke:#000000; stroke-width:1; fill:#b9b9b9; fill-opacity:0%"></rect>
    </g>
    <polygon points="0 64.0784 256 64.0784 256 320.078 
     199.83 335.039 149.83 354.039 96 368.078 41.8304 364.039 
     0 352.078 0 64.0784 0 64.0784 "
     style=" stroke:#000000; stroke-width:1; fill:#b9b9b9; fill-opacity:100%"></polygon>
    <g>
      <desc>METIS_TEXT_GROUP</desc>
      <text  x="0.8304" y="79.8392"
       style=" stroke:#000000; stroke-width:1; font-family:sans-serif; font-size:16;"
>organization.kmd</text>
      <rect x="0.8304" y="64.0392" width="255" height="26"
       style=" stroke:#000000; stroke-width:1; fill:#b9b9b9; fill-opacity:0%"></rect>
    </g>
    <rect x="16" y="96.0392" width="224" height="224"
     style=" stroke:#000000; stroke-width:1; stroke-dasharray: 2 2; fill:#ffffff; fill-opacity:100%"></rect>
    <g>
      <desc>METIS_TEXT_GROUP</desc>
      <text  x="16" y="105.839"
       style=" stroke:#000000; stroke-width:1; stroke-dasharray: 2 2; font-family:monospace; font-size:10;"
>&#60;object id=&#34;oid5&#34;&#62;
  &#60;valueset size=&#34;2&#34;.. &#62;
   &#60;string name=&#34;name&#34;&#62;Person&#60;/string&#62;
   &#60;string 



  &#60;/valueset&#62;
 &#60;/object&#62;
 xlink:href=&#34;#oid134&#34;/&#62;
 &#60;/objectview&#62;

</text>
      <rect x="16" y="96.0392" width="224" height="224"
       style=" stroke:#000000; stroke-width:1; fill:#ffffff; fill-opacity:0%"></rect>
    </g>
  </symbol>
 </defs>
</svg>
