<?xml version="1.0"?>
<?metis version="3.1"?>
<?metisxml version="1.0"?>
<!DOCTYPE svg  PUBLIC "-//W3C//DTD SVG August 1999//EN"
 "http://www.w3.org/Graphics/SVG/svg-19990812.dtd">

<svg width="200" height="200">
 <title>Symbol library: bus_vision.svg</title>
 <defs>
  <symbol id="oid2" xml:space="preserve" class="METIS_SYMBOL">
   <title>Vertical Vision</title>
    <g>
      <polygon points="0 256 320 256 320 0 
       0 0 0 256 0 256 0 256 
       0 256 0 256 "
       style=" stroke:#000000; stroke-width:1; fill:#ffff6e; fill-opacity:100%"       class="TAG:polygon"></polygon>
      <g>
	<desc>METIS_TEXT_GROUP</desc>
	<text  x="11.4286" y="28.6"
	 style=" stroke:#000000; stroke-width:1; font-family:sans-serif; font-weight:bold; font-size:16; text-align:center"
	 class="TAG:text" transform="rotate(270);">text</text>
	<rect x="11.4286" y="12.8" width="297.143" height="230.4"
	 style=" stroke:#000000; stroke-width:1; fill:#ffff6e; fill-opacity:100%"></rect>
      </g>
    </g>
  </symbol>
  <symbol id="oid3" xml:space="preserve" class="METIS_SYMBOL">
   <title>Centered Vision</title>
    <g>
      <polygon points="0 256 320 256 320 0 
       0 0 0 256 0 256 0 256 
       0 256 0 256 "
       style=" stroke:#000000; stroke-width:1; fill:#ffff6e; fill-opacity:100%"       class="TAG:polygon"></polygon>
      <g>
	<desc>METIS_TEXT_GROUP</desc>
	<text  x="11.4286" y="28.6"
	 style=" stroke:#000000; stroke-width:1; font-family:sans-serif; font-weight:bold; font-size:16; text-align:center"
	 class="TAG:text">text</text>
	<rect x="11.4286" y="12.8" width="297.143" height="230.4"
	 style=" stroke:#000000; stroke-width:1; fill:#ffff6e; fill-opacity:100%"></rect>
      </g>
    </g>
  </symbol>
  <symbol id="oid4" xml:space="preserve" class="METIS_SYMBOL">
   <title>Vi sion closed</title>
    <polygon points="0 256 320 256 320 0 
     0 0 0 256 0 256 0 256 
     0 256 0 256 "
     style=" stroke:#000000; stroke-width:1; fill:#ffff6e; fill-opacity:100%"     class="TAG:polygon"></polygon>
    <g>
      <desc>METIS_TEXT_GROUP</desc>
      <text  x="10.4286" y="24.6"
       style=" stroke:#000000; stroke-width:1; font-family:sans-serif; font-weight:bold; font-size:16;"
       class="TAG:text">text</text>
      <rect x="10.4286" y="8.8" width="297.143" height="230.4"
       style=" stroke:#000000; stroke-width:1; fill:#000000; fill-opacity:0%"></rect>
    </g>
  </symbol>
  <symbol id="oid1" xml:space="preserve" class="METIS_SYMBOL">
   <title>Vision Open</title>
    <polygon points="0 256 320 256 320 0 
     0 0 0 256 0 256 0 256 
     0 256 0 256 "
     style=" stroke:#000000; stroke-width:1; fill:#ffff6e; fill-opacity:100%"     class="TAG:polygon"></polygon>
    <g>
      <desc>METIS_TEXT_GROUP</desc>
      <text  x="11.4286" y="28.6"
       style=" stroke:#000000; stroke-width:1; font-family:sans-serif; font-weight:bold; font-size:16;"
       class="TAG:text">text</text>
      <rect x="11.4286" y="12.8" width="297.143" height="230.4"
       style=" stroke:#000000; stroke-width:1; fill:#000000; fill-opacity:0%"></rect>
    </g>
  </symbol>
 </defs>
</svg>
