<?xml version="1.0"?>
<?metis version="3.1"?>
<?metisxml version="1.0"?>
<!DOCTYPE svg  PUBLIC "-//W3C//DTD SVG August 1999//EN"
 "http://www.w3.org/Graphics/SVG/svg-19990812.dtd">

<svg width="200" height="200">
 <title>Symbol library: bus_productitem.svg</title>
 <defs>
  <symbol id="oid1" xml:space="preserve" class="METIS_SYMBOL">
   <title>Product item</title>
    <polygon points="80 128 400 128 400 0 
     80 0 80 128 "
     style=" stroke:#000000; stroke-width:1; fill:#ffb367; fill-opacity:100%"     class="TAG:canvas"></polygon>
    <polygon points="27.6925 37.3333 46.1541 37.3333 46.1541 16 
     27.6925 16 27.6925 37.3333 "
     style=" stroke:#000000; stroke-width:1; fill:#ffb367; fill-opacity:100%"     class="TAG:icon"></polygon>
    <polygon points="13.8462 80 32.3079 80 32.3079 58.6667 
     13.8462 58.6667 13.8462 80 "
     style=" stroke:#000000; stroke-width:1; fill:#ffb367; fill-opacity:100%"     class="TAG:icon"></polygon>
    <polygon points="41.5387 80 60.0002 80 60.0002 58.6667 
     41.5387 58.6667 41.5387 80 "
     style=" stroke:#000000; stroke-width:1; fill:#ffb367; fill-opacity:100%"     class="TAG:icon"></polygon>
    <polygon points="27.6925 122.667 46.1541 122.667 46.1541 101.333 
     27.6925 101.333 27.6925 122.667 "
     style=" stroke:#000000; stroke-width:1; fill:#ffb367; fill-opacity:100%"     class="TAG:icon"></polygon>
    <polygon points="0 122.667 18.4615 122.667 18.4615 101.333 
     0 101.333 0 122.667 "
     style=" stroke:#000000; stroke-width:1; fill:#ffb367; fill-opacity:100%"     class="TAG:icon"></polygon>
    <polyline points="36.9237 37.3333 36.9237 37.3333 36.9237 48 
     23.0775 48 23.0775 58.6667"
     style=" stroke:#000000; stroke-width:1;"     class="TAG:icon"></polyline>
    <polyline points="23.0774 80 23.0774 80 23.0774 90.6667 
     9.23125 90.6667 9.23125 101.333"
     style=" stroke:#000000; stroke-width:1;"     class="TAG:icon"></polyline>
    <polyline points="36.9237 37.3333 36.9237 37.3333 36.9237 48 
     50.7699 48 50.7699 58.6667"
     style=" stroke:#000000; stroke-width:1;"     class="TAG:icon"></polyline>
    <polyline points="23.0775 80 23.0775 80 23.0775 90.6667 
     36.9237 90.6667 36.9237 101.333"
     style=" stroke:#000000; stroke-width:1;"     class="TAG:icon"></polyline>
    <g>
      <desc>METIS_TEXT_GROUP</desc>
      <text  x="90" y="26.4667"
       style=" stroke:#000000; stroke-width:1; font-family:sans-serif; font-weight:bold; font-size:16;"
       class="TAG:text"></text>
      <rect x="90" y="10.6667" width="310" height="117.333"
       style=" stroke:#000000; stroke-width:1; fill:#000000; fill-opacity:0%"></rect>
    </g>
  </symbol>
 </defs>
</svg>
