<?xml version="1.0"?>
<?metis version="3.1"?>
<?metisxml version="1.0"?>
<!DOCTYPE svg  PUBLIC "-//W3C//DTD SVG August 1999//EN"
 "http://www.w3.org/Graphics/SVG/svg-19990812.dtd">

<svg width="200" height="200">
 <title>Symbol library: bus_person.svg</title>
 <defs>
  <symbol id="oid1" xml:space="preserve" class="METIS_SYMBOL">
   <title>Person</title>
    <polygon points="39.6778 30.2362 39.5647 27.079 39.2271 23.9758 
     38.671 20.9794 37.9059 18.1417 36.9447 15.5107 35.804 13.1321 
     34.5033 11.0458 33.0648 9.28806 31.5133 7.88863 29.8749 6.87168 
     28.1781 6.25436 26.4519 6.04724 24.7256 6.25436 23.0288 6.87168 
     21.3905 7.88863 19.8389 9.28806 18.4003 11.0458 17.0998 13.1321 
     15.959 15.5107 14.9979 18.1417 14.2328 20.9794 13.6767 23.9758 
     13.3392 27.079 13.2259 30.2362 13.3392 33.3933 13.6767 36.4966 
     14.2328 39.493 14.9979 42.3307 15.959 44.9617 17.0998 47.3403 
     18.4003 49.4266 19.8389 51.1843 19.8389 62.4881 0 62.4881 
     0 126.992 13.2259 151.181 17.6346 256 35.2692 256 
     39.6778 151.181 52.9038 126.992 52.9038 62.4881 33.0648 62.4881 
     33.0648 51.1843 34.5033 49.4266 35.804 47.3403 36.9447 44.9617 
     37.9059 42.3307 38.671 39.493 39.2271 36.4966 39.5647 33.3933 
     39.6778 30.2362 39.6778 30.2362 39.6778 30.2362 "
     style=" stroke:#000000; stroke-width:1; fill:#ffff40; fill-opacity:100%"     class="TAG:polygon"></polygon>
    <polygon points="75.8425 256 768 256 768 0 
     75.8425 0 75.8425 256 75.8425 256 75.8425 256 "
     style=" stroke:#000000; stroke-width:1; fill:#ffff40; fill-opacity:100%"     class="TAG:polygon"></polygon>
    <g>
      <desc>METIS_TEXT_GROUP</desc>
      <text  x="96" y="15.8"
       style=" stroke:#000000; stroke-width:1; font-family:sans-serif; font-size:16;"
       class="TAG:text">text</text>
      <rect x="96" y="0" width="664.285" height="247.937"
       style=" stroke:#000000; stroke-width:1; fill:#000000; fill-opacity:0%"></rect>
    </g>
  </symbol>
 </defs>
</svg>
