<?xml version="1.0"?>
<?metis version="3.0.1"?>
<?metisxml version="1.0"?>
<!DOCTYPE svg  PUBLIC "-//W3C//DTD SVG August 1999//EN"
 "http://www.w3.org/Graphics/SVG/svg-19990812.dtd">

<svg width="200" height="200">
 <title>Symbol library: bus_mmlfiles2_sym.svg</title>
 <defs>
  <symbol id="oid1" xml:space="preserve" class="METIS_SYMBOL">
   <title>mml files 2</title>
    <g>
      <polygon points="32 0.0288815 288 0.0288815 288 188.713 
       231.83 199.74 181.83 213.744 128 224.091 73.8304 221.114 
       32 212.298 32 0.0288815 32 0.0288815 "
       style=" stroke:#000000; stroke-width:1; fill:#b9b9b9; fill-opacity:100%"></polygon>
      <g>
	<desc>METIS_TEXT_GROUP</desc>
	<text  x="32.8304" y="15.8"
	 style=" stroke:#000000; stroke-width:1; font-family:sans-serif; font-size:16;"
>Module_3.kmv</text>
	<rect x="32.8304" y="0" width="255" height="19.1632"
	 style=" stroke:#000000; stroke-width:1; fill:#b9b9b9; fill-opacity:0%"></rect>
      </g>
      <polygon points="16 23.6433 272 23.6433 272 212.327 
       215.83 223.354 165.83 237.358 112 247.705 57.8304 244.728 
       16 235.912 16 23.6433 16 23.6433 "
       style=" stroke:#000000; stroke-width:1; fill:#b9b9b9; fill-opacity:100%"></polygon>
      <g>
	<desc>METIS_TEXT_GROUP</desc>
	<text  x="16.8304" y="39.4144"
	 style=" stroke:#000000; stroke-width:1; font-family:sans-serif; font-size:16;"
>Module_2.kmv</text>
	<rect x="16.8304" y="23.6144" width="255" height="19.1632"
	 style=" stroke:#000000; stroke-width:1; fill:#b9b9b9; fill-opacity:0%"></rect>
      </g>
      <polygon points="0 47.2288 256 47.2288 256 235.913 
       199.83 246.94 149.83 260.944 96 271.291 41.8304 268.314 
       0 259.498 0 47.2288 0 47.2288 "
       style=" stroke:#000000; stroke-width:1; fill:#b9b9b9; fill-opacity:100%"></polygon>
      <g>
	<desc>METIS_TEXT_GROUP</desc>
	<text  x="0.8304" y="62.9999"
	 style=" stroke:#000000; stroke-width:1; font-family:sans-serif; font-size:16;"
>Module_1.kmv</text>
	<rect x="0.8304" y="47.1999" width="255" height="19.1632"
	 style=" stroke:#000000; stroke-width:1; fill:#b9b9b9; fill-opacity:0%"></rect>
      </g>
      <rect x="16" y="70.7856" width="224" height="165.098"
       style=" stroke:#000000; stroke-width:1; stroke-dasharray: 2 2; fill:#ffffff; fill-opacity:100%"></rect>
      <ellipse  cx="71.7973" cy="117.405" rx="48" ry="23.5855"
       style=" stroke:#000000; stroke-width:1; fill:#a50000; fill-opacity:100%"></ellipse>
      <ellipse  cx="171.797" cy="191.11" rx="52" ry="26.5337"
       style=" stroke:#000000; stroke-width:1; fill:#fff595; fill-opacity:100%"></ellipse>
      <path d="M 119.797 117.405 C 119.797 117.405 143.797 117.405 
       159.797 129.198 C 175.797 140.991 175.797 146.887 175.797 164.576 Z"
       style=" stroke:#000000; stroke-width:2; fill:#ffffff; fill-opacity:0%"></path>
    </g>
  </symbol>
 </defs>
</svg>
