<?xml version="1.0"?>
<?metis version="3.0.1"?>
<?metisxml version="1.0"?>
<!DOCTYPE svg  PUBLIC "-//W3C//DTD SVG August 1999//EN"
 "http://www.w3.org/Graphics/SVG/svg-19990812.dtd">

<svg width="200" height="200">
 <title>Symbol library: bus_computer_sym.svg</title>
 <defs>
  <symbol id="oid1" xml:space="preserve" class="METIS_SYMBOL">
   <title>Computer</title>
    <g>
      <polygon points="384.073 634.393 385.716 632.731 387.358 631.067 
       387.358 629.404 387.358 616.096 387.358 614.434 385.716 612.77 
       347.935 607.78 346.292 607.78 344.649 607.78 343.007 607.78 
       297.012 611.106 295.37 611.106 292.084 611.106 290.442 612.77 
       287.157 614.434 269.088 634.393 267.445 636.057 265.802 637.721 
       265.802 641.047 265.802 651.028 265.802 654.354 267.445 656.018 
       306.869 669.325 308.512 670.989 311.796 670.989 313.439 670.989 
       315.082 670.989 318.367 669.325 384.073 634.393 384.073 634.393 384.073 634.393 "
       style=" stroke:#000000; stroke-width:1; fill:#ffffff; fill-opacity:100%"></polygon>
      <polygon points="382.429 614.263 384.083 614.263 385.737 615.968 
       341.084 619.381 314.623 644.972 311.315 646.678 309.661 646.678 
       308.008 646.678 306.354 646.678 304.7 644.972 308.008 643.265 
       309.661 643.265 311.315 641.559 314.623 639.854 336.122 621.087 
       337.776 617.675 339.43 617.675 342.738 615.968 382.429 614.263 
       382.429 614.263 382.429 614.263 "
       style=" stroke:#ababab; stroke-width:1; fill:#ababab; fill-opacity:100%"></polygon>
      <polyline points="371.15 611.831 349.238 614.262 329.011 609.4"
       style=" stroke:#000000; stroke-width:1;"></polyline>
      <polygon points="316.045 670.988 312.695 669.29 312.695 667.592 
       312.695 655.707 312.695 652.312 312.695 650.613 312.695 648.915 
       311.02 648.915 309.346 648.915 269.152 637.03 267.477 635.332 
       265.802 637.03 265.802 638.728 265.802 652.312 265.802 654.009 
       267.477 655.707 307.671 669.29 309.346 670.988 311.02 670.988 
       314.37 670.988 316.045 670.988 316.045 670.988 316.045 670.988 "
       style=" stroke:#ababab; stroke-width:1; fill:#ababab; fill-opacity:100%"></polygon>
      <polyline points="387.358 619.125 385.716 620.827 343.007 627.633 
       315.082 651.459 313.439 651.459 311.796 653.161 308.512 653.161 
       265.802 639.546"
       style=" stroke:#000000; stroke-width:1;"></polyline>
      <polygon points="371.281 495.948 345.219 536.061 345.219 549.433 
       669.368 549.433 669.368 536.061 635.161 495.948 371.281 495.948 
       371.281 495.948 371.281 495.948 "
       style=" stroke:#000000; stroke-width:1; fill:#ffffff; fill-opacity:100%"></polygon>
      <polygon points="361.469 510.535 648.245 510.535 658.022 523.501 
       353.322 523.501 361.469 510.535 361.469 510.535 361.469 510.535 "
       style=" stroke:#000000; stroke-width:1; fill:#000000; fill-opacity:100%"></polygon>
      <polyline points="345.219 533.225 667.747 533.225"
       style=" stroke:#ababab; stroke-width:1;"></polyline>
      <polyline points="442.463 510.535 442.463 518.099 445.745 518.099 
       449.026 519.99 457.23 519.99 465.434 519.99 473.638 521.88 
       483.482 521.88 491.686 521.88 499.89 521.88 509.734 521.88 
       517.938 521.88 526.142 521.88 535.986 521.88 544.19 521.88 
       552.393 519.99 560.597 519.99 567.16 519.99 575.364 518.099 
       575.364 512.426"
       style=" stroke:#ababab; stroke-width:1;"></polyline>
      <polygon points="333.904 218.801 675.821 218.801 679.078 218.801 
       680.706 220.43 682.334 222.06 682.334 225.32 682.334 508.887 
       682.334 510.517 680.706 512.147 679.078 513.777 675.821 513.777 
       333.904 513.777 332.275 513.777 329.018 512.147 329.018 510.517 
       327.391 508.887 327.391 225.32 329.018 222.06 329.018 220.43 
       332.275 218.801 333.904 218.801 333.904 218.801 333.904 218.801 "
       style=" stroke:#000000; stroke-width:1; fill:#ffffff; fill-opacity:100%"></polygon>
      <polygon points="656.393 254.457 656.393 257.723 656.393 260.988 
       658.023 267.518 658.023 272.416 658.023 280.58 658.023 287.11 
       658.023 293.641 658.023 300.172 658.023 306.702 658.023 313.233 
       658.023 319.764 658.023 326.294 658.023 332.825 658.023 339.356 
       658.023 347.519 658.023 354.049 658.023 360.58 658.023 363.846 
       658.023 367.11 658.023 373.641 658.023 380.172 658.023 386.702 
       658.023 393.233 658.023 399.764 658.023 406.294 658.023 412.825 
       658.023 419.356 658.023 425.887 658.023 434.05 658.023 440.581 
       658.023 447.111 658.023 453.642 656.393 460.173 656.393 466.703 
       656.393 468.336 654.763 471.601 653.135 473.234 651.505 473.234 
       649.875 473.234 644.987 474.867 640.098 474.867 631.95 474.867 
       623.802 474.867 614.025 474.867 605.877 474.867 596.1 474.867 
       587.952 474.867 578.174 476.499 570.027 476.499 560.249 476.499 
       552.101 476.499 542.325 476.499 534.176 476.499 524.4 476.499 
       516.252 476.499 506.475 476.499 503.215 476.499 498.327 476.499 
       488.549 476.499 480.402 476.499 470.624 476.499 462.476 476.499 
       454.329 476.499 444.551 476.499 436.404 476.499 426.626 474.867 
       418.478 474.867 408.701 474.867 400.553 474.867 390.776 474.867 
       382.628 474.867 374.48 474.867 364.703 473.234 363.073 473.234 
       361.444 471.601 359.814 469.968 358.185 468.336 358.185 466.703 
       607.507 440.581 656.393 254.457 656.393 254.457 656.393 254.457 "
       style=" stroke:#000000; stroke-width:1; fill:#ffffff; fill-opacity:100%"></polygon>
      <polygon points="622.366 484.603 653.16 484.603 653.16 502.431 
       622.366 502.431 622.366 484.603 622.366 484.603 622.366 484.603 "
       style=" stroke:#000000; stroke-width:1; fill:#ababab; fill-opacity:100%"></polygon>
      <polygon points="393.841 494.327 410.048 494.327 410.048 484.603 
       393.841 484.603 393.841 494.327 393.841 494.327 393.841 494.327 "
       style=" stroke:#000000; stroke-width:1; fill:#00ff00; fill-opacity:100%"></polygon>
      <polygon points="358.194 466.718 358.194 463.453 358.194 460.189 
       358.194 453.66 358.194 447.131 356.564 440.602 356.564 434.073 
       356.564 427.544 356.564 421.015 356.564 414.486 356.564 407.957 
       356.564 401.428 356.564 394.899 356.564 388.37 356.564 380.208 
       356.564 373.679 356.564 367.15 356.564 360.621 356.564 357.357 
       356.564 354.092 356.564 347.564 356.564 341.035 356.564 334.506 
       356.564 327.977 356.564 321.448 356.564 314.919 356.564 306.758 
       356.564 301.861 356.564 293.7 356.564 287.171 356.564 280.642 
       358.194 274.113 358.194 267.584 358.194 261.055 358.194 254.526 
       358.194 251.262 359.823 249.629 361.452 247.997 364.712 246.364 
       369.601 246.364 374.489 246.364 382.637 246.364 392.414 246.364 
       400.562 244.733 408.71 244.733 418.487 244.733 426.635 244.733 
       436.413 244.733 444.56 244.733 454.338 244.733 472.262 244.733 
       480.411 244.733 490.187 244.733 498.335 244.733 508.112 244.733 
       511.372 244.733 516.26 244.733 526.038 244.733 534.185 244.733 
       542.333 244.733 552.11 244.733 560.258 244.733 570.036 244.733 
       578.183 244.733 587.961 244.733 596.109 244.733 605.886 244.733 
       614.034 244.733 623.811 246.364 631.959 246.364 640.107 246.364 
       649.884 246.364 651.514 246.364 654.772 247.997 656.402 251.262 
       656.402 252.893 656.402 254.526 609.146 440.602 366.341 474.879 
       364.712 473.247 361.452 473.247 359.823 471.614 358.194 468.35 
       358.194 466.718 358.194 466.718 358.194 466.718 "
       style=" stroke:#ababab; stroke-width:1; fill:#ababab; fill-opacity:100%"></polygon>
      <polyline points="366.349 474.879 364.721 473.247 361.461 473.247 
       359.831 471.614 358.203 468.35 358.203 466.718 358.203 463.453 
       358.203 460.189 358.203 453.661 356.573 447.132 356.573 440.603 
       356.573 434.075 356.573 427.546 356.573 421.017 356.573 414.489 
       356.573 407.96 356.573 401.431 356.573 394.903 354.943 386.742 
       354.943 380.213 354.943 373.684 354.943 367.156 354.943 360.627 
       354.943 357.363 354.943 354.098 354.943 347.571 354.943 341.042 
       354.943 334.513 356.573 327.985 356.573 321.456 356.573 313.295 
       356.573 306.766 356.573 300.237 356.573 293.709 356.573 287.18 
       356.573 280.652 356.573 274.123 358.203 267.594 358.203 261.066 
       358.203 254.537 358.203 251.273 359.831 249.641 361.461 248.008 
       364.721 246.376 369.609 246.376 374.497 246.376 382.645 246.376 
       390.793 244.744 400.569 244.744 408.717 244.744 418.494 244.744 
       426.642 244.744 436.419 244.744 444.566 244.744 454.344 244.744 
       472.268 244.744 480.416 244.744 490.192 244.744 498.34 244.744 
       508.117 243.112 511.376 244.744 516.264 244.744 526.042 244.744 
       534.189 244.744 542.337 244.744 552.113 244.744 560.261 244.744 
       570.039 244.744 578.185 244.744 587.963 244.744 596.111 244.744 
       605.887 244.744 614.035 244.744 623.812 244.744 631.96 246.376 
       640.107 246.376 649.884 246.376 651.514 246.376 654.772 248.008 
       656.402 249.641 656.402 252.904 656.402 254.537"
       style=" stroke:#000000; stroke-width:1;"></polyline>
      <polygon points="369.558 252.836 645.029 252.836 648.289 252.836 
       649.919 254.469 649.919 257.736 649.919 463.495 649.919 465.128 
       648.289 468.395 646.659 468.395 369.558 468.395 366.297 468.395 
       364.668 466.762 364.668 465.128 364.668 257.736 364.668 254.469 
       366.297 252.836 369.558 252.836 369.558 252.836 369.558 252.836 "
       style=" stroke:#000000; stroke-width:1; fill:#000000; fill-opacity:100%"></polygon>
      <polygon points="376.013 260.94 641.815 260.94 641.815 455.429 
       376.013 455.429 376.013 260.94 376.013 260.94 376.013 260.94 "
       style=" stroke:#000000; stroke-width:1; fill:#00ffff; fill-opacity:100%"></polygon>
      <polygon points="376.013 260.94 641.815 260.94 641.815 270.664 
       376.013 270.664 376.013 260.94 376.013 260.94 376.013 260.94 "
       style=" stroke:#000000; stroke-width:1; fill:#0000ff; fill-opacity:100%"></polygon>
      <polyline points="376.013 277.147 641.815 277.147"
       style=" stroke:#000000; stroke-width:1;"></polyline>
      <polyline points="376.013 447.326 641.815 447.326"
       style=" stroke:#000000; stroke-width:1;"></polyline>
      <polyline points="504.052 448.946 504.052 277.147"
       style=" stroke:#000000; stroke-width:1;"></polyline>
      <polyline points="510.535 277.147 510.535 447.325"
       style=" stroke:#000000; stroke-width:1;"></polyline>
      <polygon points="384.117 448.947 505.673 448.947 505.673 371.151 
       384.117 371.151 384.117 448.947 384.117 448.947 384.117 448.947 "
       style=" stroke:#000000; stroke-width:1; fill:#00ffff; fill-opacity:100%"></polygon>
      <polygon points="384.117 380.875 505.673 380.875 505.673 371.151 
       384.117 371.151 384.117 380.875 384.117 380.875 384.117 380.875 "
       style=" stroke:#000000; stroke-width:1; fill:#0000ff; fill-opacity:100%"></polygon>
      <polygon points="512.156 448.947 635.333 448.947 635.333 371.151 
       512.156 371.151 512.156 448.947 512.156 448.947 512.156 448.947 "
       style=" stroke:#000000; stroke-width:1; fill:#00ffff; fill-opacity:100%"></polygon>
      <polygon points="512.156 380.875 635.333 380.875 635.333 371.151 
       512.156 371.151 512.156 380.875 512.156 380.875 512.156 380.875 "
       style=" stroke:#000000; stroke-width:1; fill:#0000ff; fill-opacity:100%"></polygon>
      <polygon points="635.333 364.667 512.156 364.667 512.156 285.251 
       635.333 285.251 635.333 364.667 635.333 364.667 635.333 364.667 "
       style=" stroke:#000000; stroke-width:1; fill:#00ffff; fill-opacity:100%"></polygon>
      <polyline points="512.156 294.976 633.712 294.976"
       style=" stroke:#000000; stroke-width:1;"></polyline>
      <polyline points="523.501 307.942 619.125 307.942"
       style=" stroke:#000000; stroke-width:1;"></polyline>
      <polyline points="523.501 320.908 619.125 320.908"
       style=" stroke:#000000; stroke-width:1;"></polyline>
      <polyline points="525.122 335.494 620.746 335.494"
       style=" stroke:#000000; stroke-width:1;"></polyline>
      <polyline points="397.083 390.6 492.707 390.6"
       style=" stroke:#000000; stroke-width:1;"></polyline>
      <polyline points="525.122 348.46 620.746 348.46"
       style=" stroke:#000000; stroke-width:1;"></polyline>
      <polyline points="525.122 390.6 620.746 390.6"
       style=" stroke:#000000; stroke-width:1;"></polyline>
      <polyline points="397.083 403.566 492.707 403.566"
       style=" stroke:#000000; stroke-width:1;"></polyline>
      <polyline points="525.122 403.566 620.746 403.566"
       style=" stroke:#000000; stroke-width:1;"></polyline>
      <polyline points="397.083 416.532 492.707 416.532"
       style=" stroke:#000000; stroke-width:1;"></polyline>
      <polyline points="525.122 416.532 620.746 416.532"
       style=" stroke:#000000; stroke-width:1;"></polyline>
      <polyline points="397.083 431.118 492.707 431.118"
       style=" stroke:#000000; stroke-width:1;"></polyline>
      <polyline points="525.122 431.118 620.746 431.118"
       style=" stroke:#000000; stroke-width:1;"></polyline>
      <polygon points="614.262 390.6 442.463 390.6 442.463 280.389 
       614.262 280.389 614.262 390.6 614.262 390.6 614.262 390.6 "
       style=" stroke:#000000; stroke-width:1; fill:#00ffff; fill-opacity:100%"></polygon>
      <polygon points="614.262 290.113 442.463 290.113 442.463 280.389 
       614.262 280.389 614.262 290.113 614.262 290.113 614.262 290.113 "
       style=" stroke:#000000; stroke-width:1; fill:#0000ff; fill-opacity:100%"></polygon>
      <polyline points="460.292 311.183 593.193 311.183"
       style=" stroke:#000000; stroke-width:1;"></polyline>
      <polyline points="460.292 330.632 593.193 330.632"
       style=" stroke:#000000; stroke-width:1;"></polyline>
      <polyline points="460.292 348.46 593.193 348.46"
       style=" stroke:#000000; stroke-width:1;"></polyline>
      <polyline points="460.292 367.909 593.193 367.909"
       style=" stroke:#000000; stroke-width:1;"></polyline>
      <polyline points="452.188 288.493 452.188 390.6"
       style=" stroke:#000000; stroke-width:1;"></polyline>
      <polyline points="604.538 288.493 604.538 390.6"
       style=" stroke:#000000; stroke-width:1;"></polyline>
      <polyline points="442.463 380.875 614.262 380.875"
       style=" stroke:#000000; stroke-width:1;"></polyline>
      <polyline points="653.16 502.431 653.16 486.224 623.987 486.224"
       style=" stroke:#000000; stroke-width:1;"></polyline>
      <polyline points="392.22 484.603 392.22 494.327 408.428 494.327"
       style=" stroke:#000000; stroke-width:1;"></polyline>
      <polygon points="137.877 0 294.834 9.75187 294.834 549.36 
       293.199 554.235 311.183 565.613 129.703 575.365 124.797 575.365 
       137.877 565.613 137.877 487.598 137.877 0 137.877 0 137.877 0 "
       style=" stroke:#000000; stroke-width:1; fill:#ffffff; fill-opacity:100%"></polygon>
      <polygon points="138.524 0 17.9267 39.0078 16.297 529.856 
       0 536.357 125.487 575.365 138.524 565.613 293.346 554.235 
       294.976 549.36 138.524 559.111 138.524 0 138.524 0 138.524 0 "
       style=" stroke:#000000; stroke-width:1; fill:#ababab; fill-opacity:100%"></polygon>
      <polyline points="139.384 565.64 16.2074 529.984"
       style=" stroke:#000000; stroke-width:1;"></polyline>
      <polyline points="119.935 560.778 119.935 4.8622"
       style=" stroke:#000000; stroke-width:1;"></polyline>
      <polygon points="149.109 0 152.39 3.25109 154.031 8.12768 
       154.031 329.985 157.312 331.61 173.72 331.61 173.72 328.36 
       175.36 326.734 262.321 326.734 263.962 328.36 263.962 331.61 
       282.01 331.61 278.728 338.113 263.962 338.113 263.962 544.557 
       173.72 549.433 173.72 338.113 154.031 338.113 149.109 331.61 
       149.109 0 149.109 0 149.109 0 "
       style=" stroke:#000000; stroke-width:1; fill:#ababab; fill-opacity:100%"></polygon>
      <polyline points="153.971 9.7244 283.631 17.8687 283.631 332.236 
       280.348 335.494"
       style=" stroke:#000000; stroke-width:1;"></polyline>
      <polyline points="275.527 9.7244 283.631 19.4489"
       style=" stroke:#000000; stroke-width:1;"></polyline>
      <polygon points="149.109 303.079 154.03 303.079 283.631 303.079 
       283.631 260.94 154.03 260.94 149.109 260.94 149.109 303.079 
       149.109 303.079 149.109 303.079 "
       style=" stroke:#000000; stroke-width:1; fill:#000000; fill-opacity:100%"></polygon>
      <polygon points="275.527 184.765 275.527 24.3747 160.454 17.8282 
       160.454 181.492 275.527 184.765 275.527 184.765 275.527 184.765 "
       style=" stroke:#000000; stroke-width:1; fill:#ffffff; fill-opacity:100%"></polygon>
      <polygon points="269.044 30.8638 165.316 24.3111 165.316 175.024 
       269.044 176.661 269.044 30.8638 269.044 30.8638 269.044 30.8638 "
       style=" stroke:#000000; stroke-width:1; fill:#ababab; fill-opacity:100%"></polygon>
      <polyline points="157.212 298.217 157.212 269.044 277.147 269.044"
       style=" stroke:#ffffff; stroke-width:1;"></polyline>
      <polygon points="180.443 329.011 184.765 329.011 184.765 330.644 
       184.765 547.787 184.765 551.053 180.443 551.053 178.282 551.053 
       178.282 547.787 178.282 330.644 178.282 329.011 180.443 329.011 
       180.443 329.011 180.443 329.011 "
       style=" stroke:#000000; stroke-width:1; fill:#ffffff; fill-opacity:100%"></polygon>
      <polygon points="192.328 327.391 194.489 329.023 194.489 330.656 
       194.489 547.788 194.489 551.054 192.328 551.054 188.006 551.054 
       188.006 547.788 188.006 330.656 188.006 329.023 192.328 327.391 
       192.328 327.391 192.328 327.391 "
       style=" stroke:#000000; stroke-width:1; fill:#ffffff; fill-opacity:100%"></polygon>
      <polygon points="202.053 329.011 204.214 329.011 204.214 330.644 
       204.214 547.787 204.214 549.42 202.053 551.053 197.731 549.42 
       197.731 547.787 197.731 330.644 199.892 329.011 202.053 329.011 
       202.053 329.011 202.053 329.011 "
       style=" stroke:#000000; stroke-width:1; fill:#ffffff; fill-opacity:100%"></polygon>
      <polygon points="211.237 329.011 215.559 329.011 215.559 330.644 
       215.559 547.799 215.559 549.432 211.237 549.432 209.076 549.432 
       209.076 547.799 209.076 330.644 209.076 329.011 211.237 329.011 
       211.237 329.011 211.237 329.011 "
       style=" stroke:#000000; stroke-width:1; fill:#ffffff; fill-opacity:100%"></polygon>
      <polygon points="223.123 329.011 225.284 329.011 225.284 330.644 
       225.284 546.166 225.284 547.799 223.123 549.432 218.801 547.799 
       218.801 546.166 218.801 330.644 218.801 329.011 223.123 329.011 
       223.123 329.011 223.123 329.011 "
       style=" stroke:#000000; stroke-width:1; fill:#ffffff; fill-opacity:100%"></polygon>
      <polygon points="232.307 329.011 236.629 329.011 236.629 330.644 
       236.629 546.179 236.629 547.812 232.307 547.812 230.146 547.812 
       230.146 546.179 230.146 330.644 230.146 329.011 232.307 329.011 
       232.307 329.011 232.307 329.011 "
       style=" stroke:#000000; stroke-width:1; fill:#ffffff; fill-opacity:100%"></polygon>
      <polygon points="243.922 329.011 247.974 329.011 247.974 330.644 
       247.974 544.547 245.949 546.179 243.922 547.812 241.896 546.179 
       239.87 544.547 239.87 330.644 241.896 329.011 243.922 329.011 
       243.922 329.011 243.922 329.011 "
       style=" stroke:#000000; stroke-width:1; fill:#ffffff; fill-opacity:100%"></polygon>
      <polygon points="255.267 329.011 257.293 329.011 259.32 330.644 
       259.32 544.547 257.293 546.179 255.267 547.812 253.241 546.179 
       251.216 544.547 251.216 330.644 253.241 329.011 255.267 329.011 
       255.267 329.011 255.267 329.011 "
       style=" stroke:#000000; stroke-width:1; fill:#ffffff; fill-opacity:100%"></polygon>
      <polygon points="165.316 217.18 184.765 217.18 184.765 252.836 
       165.316 252.836 165.316 217.18 165.316 217.18 165.316 217.18 "
       style=" stroke:#000000; stroke-width:1; fill:#ababab; fill-opacity:100%"></polygon>
      <polygon points="168.558 222.042 184.766 222.042 184.766 249.595 
       168.558 249.595 168.558 222.042 168.558 222.042 168.558 222.042 "
       style=" stroke:#000000; stroke-width:1; fill:#ffffff; fill-opacity:100%"></polygon>
      <polyline points="165.316 25.9319 269.044 34.0356"
       style=" stroke:#000000; stroke-width:1;"></polyline>
      <polygon points="269.044 67.666 165.316 61.5883 269.044 69.692 
       269.044 67.666 269.044 67.666 269.044 67.666 "
       style=" stroke:#000000; stroke-width:1; fill:#000000; fill-opacity:100%"></polygon>
      <polygon points="269.044 103.403 165.316 95.624 269.044 105.348 
       269.044 103.403 269.044 103.403 269.044 103.403 "
       style=" stroke:#000000; stroke-width:1; fill:#000000; fill-opacity:100%"></polygon>
      <polygon points="269.044 138.844 165.316 134.522 269.044 141.005 
       269.044 138.844 269.044 138.844 269.044 138.844 "
       style=" stroke:#000000; stroke-width:1; fill:#000000; fill-opacity:100%"></polygon>
      <polyline points="165.316 98.865 269.044 105.348"
       style=" stroke:#ffffff; stroke-width:1;"></polyline>
      <polyline points="165.316 136.143 269.044 141.005"
       style=" stroke:#ffffff; stroke-width:1;"></polyline>
      <polyline points="165.316 175.04 269.044 178.281"
       style=" stroke:#000000; stroke-width:1;"></polyline>
      <polygon points="166.937 39.2581 199.893 40.9688 199.893 32.4149 
       229.552 34.1256 229.552 42.6796 265.803 44.3904 265.803 51.2336 
       229.552 47.812 229.552 63.2091 199.893 61.4983 199.893 46.1012 
       166.937 46.1012 166.937 39.2581 166.937 39.2581 166.937 39.2581 "
       style=" stroke:#000000; stroke-width:1; fill:#000000; fill-opacity:100%"></polygon>
      <polygon points="166.937 74.9144 199.893 76.6251 199.893 68.0713 
       229.552 69.782 229.552 78.336 265.803 80.0467 265.803 85.179 
       229.552 83.4682 229.552 98.8655 199.893 97.1545 199.893 81.7574 
       166.937 80.0467 166.937 74.9144 166.937 74.9144 166.937 74.9144 "
       style=" stroke:#000000; stroke-width:1; fill:#000000; fill-opacity:100%"></polygon>
      <polyline points="230.145 63.2091 226.714 48.8024 200.972 47.0016"
       style=" stroke:#ababab; stroke-width:1;"></polyline>
      <polyline points="230.145 97.2447 226.714 82.658 200.972 82.658"
       style=" stroke:#ababab; stroke-width:1;"></polyline>
      <polyline points="166.937 42.1393 265.803 47.0015"
       style=" stroke:#ababab; stroke-width:1;"></polyline>
      <polyline points="166.937 76.175 265.803 82.658"
       style=" stroke:#ababab; stroke-width:1;"></polyline>
      <polygon points="175.04 32.4149 184.764 32.4149 184.764 38.8979 
       175.04 38.8979 175.04 32.4149 175.04 32.4149 175.04 32.4149 "
       style=" stroke:#000000; stroke-width:1; fill:#ff0016; fill-opacity:100%"></polygon>
      <polygon points="175.04 68.0713 184.764 68.0713 184.764 72.9335 
       175.04 72.9335 175.04 68.0713 175.04 68.0713 175.04 68.0713 "
       style=" stroke:#000000; stroke-width:1; fill:#ff0016; fill-opacity:100%"></polygon>
      <polygon points="230.146 39.3031 235.278 37.2771 235.278 39.3031 
       236.989 43.3548 238.7 43.3548 260.94 45.3808 255.808 45.3808 
       233.567 45.3808 231.857 43.3548 230.146 41.329 230.146 39.3031 
       230.146 39.3031 230.146 39.3031 "
       style=" stroke:#000000; stroke-width:1; fill:#000000; fill-opacity:100%"></polygon>
      <polygon points="230.146 73.2576 235.278 71.3128 235.278 75.2026 
       236.989 77.1474 238.7 77.1474 260.94 79.0924 255.808 81.0373 
       233.567 79.0924 231.857 79.0924 230.146 75.2026 230.146 73.2576 
       230.146 73.2576 230.146 73.2576 "
       style=" stroke:#000000; stroke-width:1; fill:#000000; fill-opacity:100%"></polygon>
      <polyline points="230.146 39.8704 231.852 37.9254 233.558 35.9806 
       238.677 34.0356 240.382 34.0356 242.088 34.0356 245.501 35.9806 
       247.206 39.8704 248.912 39.8704 260.855 39.8704 262.561 43.7601"
       style=" stroke:#ffffff; stroke-width:1;"></polyline>
      <polyline points="230.146 73.9059 231.852 71.9611 233.558 70.0161 
       238.677 68.0713 240.382 68.0713 242.088 70.0161 245.501 71.9611 
       247.206 73.9059 248.912 73.9059 260.855 75.8509 262.561 77.7958"
       style=" stroke:#ffffff; stroke-width:1;"></polyline>
      <polyline points="235.008 38.8978 235.008 38.8978 235.008 36.4668 
       235.008 36.4668 237.439 34.0356 237.439 34.0356 239.87 34.0356"
       style=" stroke:#ffffff; stroke-width:1;"></polyline>
      <polyline points="235.008 72.9335 235.008 72.9335 235.008 70.5023 
       235.008 70.5023 237.439 70.5023 237.439 70.5023 239.87 68.0713"
       style=" stroke:#ffffff; stroke-width:1;"></polyline>
      <polyline points="165.316 63.209 269.044 69.692"
       style=" stroke:#ffffff; stroke-width:1;"></polyline>
      <polygon points="183.144 105.348 252.836 108.806 252.836 131.28 
       183.144 129.551 183.144 105.348 183.144 105.348 183.144 105.348 "
       style=" stroke:#000000; stroke-width:1; fill:#000000; fill-opacity:100%"></polygon>
      <polygon points="183.144 145.867 252.836 147.604 252.836 170.178 
       183.144 170.178 183.144 145.867 183.144 145.867 183.144 145.867 "
       style=" stroke:#000000; stroke-width:1; fill:#000000; fill-opacity:100%"></polygon>
      <polygon points="183.144 106.969 251.215 110.442 251.215 131.28 
       183.144 129.543 183.144 106.969 183.144 106.969 183.144 106.969 "
       style=" stroke:#000000; stroke-width:1; fill:#ababab; fill-opacity:100%"></polygon>
      <polygon points="183.144 147.488 251.215 149.234 251.215 170.178 
       183.144 170.178 183.144 147.488 183.144 147.488 183.144 147.488 "
       style=" stroke:#000000; stroke-width:1; fill:#ababab; fill-opacity:100%"></polygon>
      <polyline points="251.215 132.901 183.144 129.429 183.144 108.59"
       style=" stroke:#ffffff; stroke-width:1;"></polyline>
      <polyline points="251.215 171.799 183.144 170.063 183.144 147.488"
       style=" stroke:#ffffff; stroke-width:1;"></polyline>
      <polyline points="244.732 118.314 244.732 114.424 231.385 114.424 
       231.385 110.535 203.022 108.59 203.022 112.479 188.006 112.479"
       style=" stroke:#000000; stroke-width:1;"></polyline>
      <polyline points="244.732 157.213 244.732 153.16 231.385 153.16 
       231.385 149.109 203.022 149.109 203.022 153.16 188.006 153.16"
       style=" stroke:#000000; stroke-width:1;"></polyline>
      <polyline points="241.491 117.234 231.463 117.234 231.463 128.038 
       203.049 126.237 203.049 115.433 188.006 115.433 188.006 111.831"
       style=" stroke:#ffffff; stroke-width:1;"></polyline>
      <polyline points="241.491 155.997 231.463 155.997 231.463 166.937 
       203.049 166.937 203.049 155.997 188.006 155.997 188.006 152.35"
       style=" stroke:#ffffff; stroke-width:1;"></polyline>
      <polygon points="192.869 121.556 199.352 121.556 199.352 124.797 
       192.869 124.797 192.869 121.556 192.869 121.556 192.869 121.556 "
       style=" stroke:#000000; stroke-width:1; fill:#00ff00; fill-opacity:100%"></polygon>
      <polygon points="192.869 162.075 199.352 162.075 199.352 165.316 
       192.869 165.316 192.869 162.075 192.869 162.075 192.869 162.075 "
       style=" stroke:#000000; stroke-width:1; fill:#00ff00; fill-opacity:100%"></polygon>
      <polygon points="233.387 119.935 241.491 119.935 241.491 126.418 
       233.387 126.418 233.387 119.935 233.387 119.935 233.387 119.935 "
       style=" stroke:#000000; stroke-width:1; fill:#ababab; fill-opacity:100%"></polygon>
      <polygon points="233.387 158.833 241.491 158.833 241.491 165.316 
       233.387 165.316 233.387 158.833 233.387 158.833 233.387 158.833 "
       style=" stroke:#000000; stroke-width:1; fill:#ababab; fill-opacity:100%"></polygon>
      <polyline points="192.869 121.556 192.869 126.418 199.352 126.418"
       style=" stroke:#000000; stroke-width:1;"></polyline>
      <polyline points="192.869 162.075 192.869 166.937 199.352 166.937"
       style=" stroke:#000000; stroke-width:1;"></polyline>
      <polyline points="233.387 121.556 233.387 128.039 241.491 128.039"
       style=" stroke:#000000; stroke-width:1;"></polyline>
      <polyline points="233.387 160.454 233.387 166.937 241.491 166.937"
       style=" stroke:#000000; stroke-width:1;"></polyline>
      <polyline points="231.767 128.039 230.044 120.475 230.044 116.694 
       228.322 118.584 204.214 118.584"
       style=" stroke:#ababab; stroke-width:1;"></polyline>
      <polyline points="231.767 166.937 230.044 159.373 230.044 155.592 
       228.322 159.373 204.214 159.373"
       style=" stroke:#ababab; stroke-width:1;"></polyline>
      <polygon points="408.54 529.984 920.436 529.984 923.686 529.984 
       925.311 531.632 928.561 531.632 930.186 534.927 931.811 536.575 
       933.437 538.222 975.688 618.963 975.688 622.259 974.063 623.906 
       972.438 625.554 969.188 627.202 967.562 628.849 965.938 628.849 
       376.039 628.849 372.788 628.849 371.164 627.202 367.913 625.554 
       366.288 623.906 366.288 620.611 366.288 618.963 395.54 538.222 
       397.165 536.575 400.415 533.279 402.04 531.632 403.665 529.984 
       406.915 529.984 408.54 529.984 408.54 529.984 408.54 529.984 "
       style=" stroke:#000000; stroke-width:1; fill:#ffffff; fill-opacity:100%"></polygon>
      <polygon points="371.164 653.161 969.188 653.161 972.438 653.161 
       974.063 651.459 975.688 648.055 975.688 646.354 975.688 619.125 
       974.063 622.528 972.438 624.23 970.813 625.932 967.562 627.633 
       965.938 627.633 376.039 627.633 372.788 625.932 371.164 625.932 
       367.913 624.23 366.288 622.528 366.288 619.125 366.288 646.354 
       366.288 649.757 367.913 651.459 369.539 653.161 371.164 653.161 
       371.164 653.161 371.164 653.161 "
       style=" stroke:#ababab; stroke-width:1; fill:#ababab; fill-opacity:100%"></polygon>
      <polyline points="371.151 648.298 969.206 648.298"
       style=" stroke:#000000; stroke-width:1;"></polyline>
      <polyline points="975.688 628.849 974.063 631.28 972.438 633.711 
       970.813 633.711 371.164 633.711 369.539 633.711 367.913 633.711 
       366.288 631.28 366.288 628.849"
       style=" stroke:#000000; stroke-width:1;"></polyline>
      <polyline points="975.688 630.47 974.063 632.902 972.438 635.332 
       970.813 635.332 371.164 635.332 369.539 635.332 367.913 635.332 
       366.288 632.902 366.288 630.47"
       style=" stroke:#ffffff; stroke-width:1;"></polyline>
      <polygon points="426.335 552.674 406.807 619.125 805.51 619.125 
       789.236 552.674 426.335 552.674 426.335 552.674 426.335 552.674 "
       style=" stroke:#000000; stroke-width:1; fill:#000000; fill-opacity:100%"></polygon>
      <polygon points="816.856 552.674 839.861 619.125 935.17 617.463 
       905.592 552.674 816.856 552.674 816.856 552.674 816.856 552.674 "
       style=" stroke:#000000; stroke-width:1; fill:#000000; fill-opacity:100%"></polygon>
      <polyline points="787.682 552.674 849.27 552.674"
       style=" stroke:#000000; stroke-width:1;"></polyline>
      <polyline points="790.924 615.883 842.788 615.883"
       style=" stroke:#000000; stroke-width:1;"></polyline>
      <polygon points="564.063 536.467 562.399 549.433 623.987 549.433 
       622.323 536.467 622.323 545.728 564.063 545.728 564.063 536.467 
       564.063 536.467 564.063 536.467 "
       style=" stroke:#000000; stroke-width:1; fill:#ababab; fill-opacity:100%"></polygon>
      <polygon points="431.367 551.053 427.877 562.167 438.349 564.019 
       448.823 562.167 450.567 551.053 431.367 551.053 431.367 551.053 431.367 551.053 "
       style=" stroke:#ababab; stroke-width:1; fill:#ffffff; fill-opacity:100%"></polygon>
      <polygon points="427.877 560.057 427.877 567.26 450.567 567.26 
       450.567 556.456 450.567 551.053 448.823 560.057 445.331 561.858 
       443.586 561.858 440.095 561.858 438.349 561.858 436.605 561.858 
       433.113 561.858 431.367 561.858 427.877 560.057 427.877 560.057 427.877 560.057 "
       style=" stroke:#ababab; stroke-width:1; fill:#ababab; fill-opacity:100%"></polygon>
      <polygon points="454.058 551.053 450.567 562.167 461.04 564.019 
       471.512 562.167 473.257 551.053 454.058 551.053 454.058 551.053 454.058 551.053 "
       style=" stroke:#ababab; stroke-width:1; fill:#ffffff; fill-opacity:100%"></polygon>
      <polygon points="450.567 560.057 450.567 567.26 473.257 567.26 
       473.257 556.456 473.257 551.053 471.512 560.057 468.022 561.858 
       466.276 561.858 464.53 561.858 461.04 561.858 455.803 561.858 
       452.313 561.858 450.567 560.057 450.567 560.057 450.567 560.057 "
       style=" stroke:#ababab; stroke-width:1; fill:#ababab; fill-opacity:100%"></polygon>
      <polygon points="476.748 551.053 473.258 562.167 483.73 564.019 
       494.204 562.167 495.948 551.053 476.748 551.053 476.748 551.053 476.748 551.053 "
       style=" stroke:#ababab; stroke-width:1; fill:#ffffff; fill-opacity:100%"></polygon>
      <polygon points="473.258 560.057 473.258 567.26 495.948 567.26 
       495.948 556.456 495.948 551.053 494.204 560.057 490.712 561.858 
       488.967 561.858 485.476 561.858 483.73 561.858 481.985 561.858 
       478.494 561.858 476.748 561.858 473.258 560.057 473.258 560.057 473.258 560.057 "
       style=" stroke:#ababab; stroke-width:1; fill:#ababab; fill-opacity:100%"></polygon>
      <polygon points="787.548 551.053 789.303 562.167 780.524 564.019 
       769.989 562.167 768.233 551.053 787.548 551.053 787.548 551.053 787.548 551.053 "
       style=" stroke:#ababab; stroke-width:1; fill:#ffffff; fill-opacity:100%"></polygon>
      <polygon points="789.187 560.057 790.924 567.26 768.349 567.26 
       766.613 556.456 768.349 551.053 770.086 560.057 771.822 561.858 
       775.295 561.858 777.032 561.858 778.769 561.858 782.241 561.858 
       783.978 561.858 787.452 561.858 789.187 560.057 789.187 560.057 789.187 560.057 "
       style=" stroke:#ababab; stroke-width:1; fill:#ababab; fill-opacity:100%"></polygon>
      <polygon points="904.052 551.053 909.238 560.314 898.866 564.019 
       888.493 560.314 883.306 551.053 904.052 551.053 904.052 551.053 904.052 551.053 "
       style=" stroke:#ababab; stroke-width:1; fill:#ffffff; fill-opacity:100%"></polygon>
      <polygon points="909.238 560.057 909.238 567.26 888.493 567.26 
       885.035 556.456 883.306 551.053 888.493 560.057 890.221 560.057 
       893.679 560.057 895.409 561.858 898.866 561.858 900.595 561.858 
       904.052 560.057 905.781 560.057 909.238 560.057 909.238 560.057 909.238 560.057 "
       style=" stroke:#ababab; stroke-width:1; fill:#ababab; fill-opacity:100%"></polygon>
      <polygon points="908.89 564.019 914.1 573.28 905.418 576.985 
       894.999 573.28 889.789 564.019 908.89 564.019 908.89 564.019 908.89 564.019 "
       style=" stroke:#ababab; stroke-width:1; fill:#ffffff; fill-opacity:100%"></polygon>
      <polygon points="914 573.023 915.722 580.226 893.335 580.226 
       889.89 567.621 888.169 564.019 893.335 573.023 896.779 573.023 
       900.223 573.023 901.945 573.023 905.39 573.023 907.112 573.023 
       908.833 573.023 912.278 573.023 914 573.023 914 573.023 914 573.023 "
       style=" stroke:#ababab; stroke-width:1; fill:#ababab; fill-opacity:100%"></polygon>
      <polygon points="915.397 576.985 920.584 586.246 910.211 589.951 
       899.838 586.246 894.652 576.985 915.397 576.985 915.397 576.985 915.397 576.985 "
       style=" stroke:#ababab; stroke-width:1; fill:#ffffff; fill-opacity:100%"></polygon>
      <polygon points="920.584 585.989 920.584 593.192 899.838 593.192 
       894.652 580.587 894.652 576.985 899.838 585.989 901.566 585.989 
       905.024 587.79 906.753 587.79 910.211 587.79 911.94 587.79 
       915.397 587.79 917.126 585.989 920.584 585.989 920.584 585.989 920.584 585.989 "
       style=" stroke:#ababab; stroke-width:1; fill:#ababab; fill-opacity:100%"></polygon>
      <polygon points="920.26 589.951 925.446 599.212 915.072 602.917 
       904.7 599.212 899.514 589.951 920.26 589.951 920.26 589.951 920.26 589.951 "
       style=" stroke:#ababab; stroke-width:1; fill:#ffffff; fill-opacity:100%"></polygon>
      <polygon points="925.344 598.955 927.067 606.158 904.68 606.158 
       901.235 593.553 899.514 589.951 904.68 598.955 906.402 598.955 
       909.846 598.955 913.29 600.756 915.012 600.756 916.734 600.756 
       920.178 598.955 921.9 598.955 925.344 598.955 925.344 598.955 925.344 598.955 "
       style=" stroke:#ababab; stroke-width:1; fill:#ababab; fill-opacity:100%"></polygon>
      <polygon points="926.743 601.297 931.929 612.236 921.555 615.884 
       911.183 612.236 905.997 601.297 926.743 601.297 926.743 601.297 926.743 601.297 "
       style=" stroke:#ababab; stroke-width:1; fill:#ffffff; fill-opacity:100%"></polygon>
      <polygon points="931.929 611.921 931.929 619.124 909.454 619.124 
       905.997 606.519 905.997 602.917 909.454 611.921 912.912 611.921 
       916.369 611.921 918.098 611.921 921.555 611.921 923.285 611.921 
       926.743 611.921 928.471 611.921 931.929 611.921 931.929 611.921 931.929 611.921 "
       style=" stroke:#ababab; stroke-width:1; fill:#ababab; fill-opacity:100%"></polygon>
      <polygon points="882.983 551.053 888.169 560.314 877.795 564.019 
       867.423 560.314 862.237 551.053 882.983 551.053 882.983 551.053 882.983 551.053 "
       style=" stroke:#ababab; stroke-width:1; fill:#ffffff; fill-opacity:100%"></polygon>
      <polygon points="888.169 560.057 888.169 567.26 867.423 567.26 
       863.965 556.456 862.237 551.053 867.423 560.057 869.152 560.057 
       872.609 560.057 874.338 561.858 877.795 561.858 879.525 561.858 
       882.983 560.057 884.711 560.057 888.169 560.057 888.169 560.057 888.169 560.057 "
       style=" stroke:#ababab; stroke-width:1; fill:#ababab; fill-opacity:100%"></polygon>
      <polygon points="887.822 564.019 893.031 573.28 882.612 576.985 
       872.193 573.28 868.72 564.019 887.822 564.019 887.822 564.019 887.822 564.019 "
       style=" stroke:#ababab; stroke-width:1; fill:#ffffff; fill-opacity:100%"></polygon>
      <polygon points="892.929 573.023 894.652 580.226 872.265 580.226 
       868.821 567.621 867.099 564.019 872.265 573.023 875.709 573.023 
       877.431 573.023 880.875 573.023 882.598 573.023 886.041 573.023 
       887.764 573.023 889.486 573.023 892.929 573.023 892.929 573.023 892.929 573.023 "
       style=" stroke:#ababab; stroke-width:1; fill:#ababab; fill-opacity:100%"></polygon>
      <polygon points="892.684 576.985 897.893 586.246 889.211 589.951 
       878.791 586.246 873.582 576.985 892.684 576.985 892.684 576.985 892.684 576.985 "
       style=" stroke:#ababab; stroke-width:1; fill:#ffffff; fill-opacity:100%"></polygon>
      <polygon points="897.785 585.989 899.514 593.192 877.039 593.192 
       873.582 580.587 873.582 576.985 877.039 585.989 880.497 585.989 
       882.226 587.79 885.683 587.79 887.413 587.79 890.87 587.79 
       892.599 587.79 896.057 585.989 897.785 585.989 897.785 585.989 897.785 585.989 "
       style=" stroke:#ababab; stroke-width:1; fill:#ababab; fill-opacity:100%"></polygon>
      <polygon points="899.19 589.951 904.376 599.212 894.004 602.917 
       883.63 599.212 878.444 589.951 899.19 589.951 899.19 589.951 899.19 589.951 "
       style=" stroke:#ababab; stroke-width:1; fill:#ffffff; fill-opacity:100%"></polygon>
      <polygon points="904.376 598.955 904.376 606.158 881.902 606.158 
       878.444 593.553 878.444 589.951 883.63 598.955 885.359 598.955 
       888.817 598.955 890.545 600.756 894.004 600.756 895.733 600.756 
       899.19 598.955 900.919 598.955 904.376 598.955 904.376 598.955 904.376 598.955 "
       style=" stroke:#ababab; stroke-width:1; fill:#ababab; fill-opacity:100%"></polygon>
      <polygon points="904.052 601.297 909.238 612.236 900.595 615.884 
       888.493 612.236 883.306 601.297 904.052 601.297 904.052 601.297 904.052 601.297 "
       style=" stroke:#ababab; stroke-width:1; fill:#ffffff; fill-opacity:100%"></polygon>
      <polygon points="909.136 611.921 910.859 619.124 888.473 619.124 
       885.028 606.519 883.306 602.917 888.473 611.921 891.916 611.921 
       893.639 611.921 897.082 611.921 898.805 611.921 902.248 611.921 
       903.971 611.921 907.415 611.921 909.136 611.921 909.136 611.921 909.136 611.921 "
       style=" stroke:#ababab; stroke-width:1; fill:#ababab; fill-opacity:100%"></polygon>
      <polygon points="860.269 551.053 865.478 560.314 856.796 564.019 
       844.64 560.314 841.167 551.053 860.269 551.053 860.269 551.053 860.269 551.053 "
       style=" stroke:#ababab; stroke-width:1; fill:#ffffff; fill-opacity:100%"></polygon>
      <polygon points="865.478 560.057 865.478 567.26 844.732 567.26 
       841.275 556.456 839.546 551.053 844.732 560.057 848.19 560.057 
       849.919 560.057 853.377 561.858 855.106 561.858 858.563 561.858 
       860.292 560.057 862.021 560.057 865.478 560.057 865.478 560.057 865.478 560.057 "
       style=" stroke:#ababab; stroke-width:1; fill:#ababab; fill-opacity:100%"></polygon>
      <polygon points="865.13 564.019 870.34 573.28 861.658 576.985 
       849.502 573.28 846.029 564.019 865.13 564.019 865.13 564.019 865.13 564.019 "
       style=" stroke:#ababab; stroke-width:1; fill:#ffffff; fill-opacity:100%"></polygon>
      <polygon points="870.24 573.023 871.961 580.226 849.575 580.226 
       846.13 567.621 844.408 564.019 849.575 573.023 853.018 573.023 
       854.741 573.023 858.184 573.023 859.907 573.023 863.351 573.023 
       865.072 573.023 868.517 573.023 870.24 573.023 870.24 573.023 870.24 573.023 "
       style=" stroke:#ababab; stroke-width:1; fill:#ababab; fill-opacity:100%"></polygon>
      <polygon points="871.729 576.985 875.202 586.246 866.52 589.951 
       856.101 586.246 850.891 576.985 871.729 576.985 871.729 576.985 871.729 576.985 "
       style=" stroke:#ababab; stroke-width:1; fill:#ffffff; fill-opacity:100%"></polygon>
      <polygon points="875.094 585.989 876.823 593.192 854.349 593.192 
       850.891 580.587 850.891 576.985 854.349 585.989 857.806 585.989 
       861.264 587.79 862.993 587.79 866.45 587.79 868.179 587.79 
       869.908 587.79 873.365 585.989 875.094 585.989 875.094 585.989 875.094 585.989 "
       style=" stroke:#ababab; stroke-width:1; fill:#ababab; fill-opacity:100%"></polygon>
      <polygon points="876.5 589.951 881.686 599.212 871.313 602.917 
       860.94 599.212 855.754 589.951 876.5 589.951 876.5 589.951 876.5 589.951 "
       style=" stroke:#ababab; stroke-width:1; fill:#ffffff; fill-opacity:100%"></polygon>
      <polygon points="881.686 598.955 881.686 606.158 859.211 606.158 
       855.754 593.553 855.754 589.951 860.94 598.955 862.669 598.955 
       866.126 598.955 867.855 600.756 871.313 600.756 873.042 600.756 
       876.5 598.955 878.228 598.955 881.686 598.955 881.686 598.955 881.686 598.955 "
       style=" stroke:#ababab; stroke-width:1; fill:#ababab; fill-opacity:100%"></polygon>
      <polygon points="881.362 601.297 886.548 612.236 877.904 615.884 
       865.802 612.236 860.616 601.297 881.362 601.297 881.362 601.297 881.362 601.297 "
       style=" stroke:#ababab; stroke-width:1; fill:#ffffff; fill-opacity:100%"></polygon>
      <polygon points="886.446 611.921 888.169 619.124 865.782 619.124 
       862.338 606.519 860.616 602.917 865.782 611.921 869.226 611.921 
       870.948 611.921 874.392 611.921 876.115 611.921 879.558 611.921 
       881.28 611.921 884.724 611.921 886.446 611.921 886.446 611.921 886.446 611.921 "
       style=" stroke:#ababab; stroke-width:1; fill:#ababab; fill-opacity:100%"></polygon>
      <polygon points="837.578 551.053 842.787 560.314 834.105 564.019 
       821.949 560.314 818.476 551.053 837.578 551.053 837.578 551.053 837.578 551.053 "
       style=" stroke:#ababab; stroke-width:1; fill:#ffffff; fill-opacity:100%"></polygon>
      <polygon points="842.787 560.057 842.787 567.26 821.949 567.26 
       818.476 556.456 818.476 551.053 821.949 560.057 825.422 560.057 
       827.159 560.057 830.632 561.858 832.368 561.858 835.841 561.858 
       837.578 560.057 841.05 560.057 842.787 560.057 842.787 560.057 842.787 560.057 "
       style=" stroke:#ababab; stroke-width:1; fill:#ababab; fill-opacity:100%"></polygon>
      <polygon points="842.441 564.019 847.65 573.28 837.231 576.985 
       826.812 573.28 823.339 564.019 842.441 564.019 842.441 564.019 842.441 564.019 "
       style=" stroke:#ababab; stroke-width:1; fill:#ffffff; fill-opacity:100%"></polygon>
      <polygon points="847.542 573.023 849.271 580.226 826.796 580.226 
       823.339 567.621 823.339 564.019 826.796 573.023 830.254 573.023 
       831.982 573.023 835.44 573.023 837.17 573.023 840.627 573.023 
       842.356 573.023 845.813 573.023 847.542 573.023 847.542 573.023 847.542 573.023 "
       style=" stroke:#ababab; stroke-width:1; fill:#ababab; fill-opacity:100%"></polygon>
      <polygon points="849.04 576.985 852.512 586.246 843.83 589.951 
       833.41 586.246 828.201 576.985 849.04 576.985 849.04 576.985 849.04 576.985 "
       style=" stroke:#ababab; stroke-width:1; fill:#ffffff; fill-opacity:100%"></polygon>
      <polygon points="852.404 585.989 854.133 593.192 831.658 593.192 
       828.201 580.587 828.201 576.985 831.658 585.989 835.116 585.989 
       836.845 587.79 840.302 587.79 842.032 587.79 845.489 587.79 
       847.218 587.79 850.676 585.989 852.404 585.989 852.404 585.989 852.404 585.989 "
       style=" stroke:#ababab; stroke-width:1; fill:#ababab; fill-opacity:100%"></polygon>
      <polygon points="853.809 589.951 858.995 599.212 848.623 602.917 
       838.249 599.212 833.063 589.951 853.809 589.951 853.809 589.951 853.809 589.951 "
       style=" stroke:#ababab; stroke-width:1; fill:#ffffff; fill-opacity:100%"></polygon>
      <polygon points="858.995 598.955 858.995 606.158 836.521 606.158 
       833.063 593.553 833.063 589.951 836.521 598.955 839.978 598.955 
       843.436 598.955 845.164 600.756 848.623 600.756 850.352 600.756 
       853.809 598.955 855.538 598.955 858.995 598.955 858.995 598.955 858.995 598.955 "
       style=" stroke:#ababab; stroke-width:1; fill:#ababab; fill-opacity:100%"></polygon>
      <polygon points="858.67 601.297 863.857 612.236 853.484 615.884 
       843.112 612.236 837.925 601.297 858.67 601.297 858.67 601.297 858.67 601.297 "
       style=" stroke:#ababab; stroke-width:1; fill:#ffffff; fill-opacity:100%"></polygon>
      <polygon points="863.857 611.921 863.857 619.124 841.383 619.124 
       837.925 606.519 837.925 602.917 843.112 611.921 844.84 611.921 
       848.298 611.921 850.027 611.921 853.484 611.921 855.213 611.921 
       858.67 611.921 860.399 611.921 863.857 611.921 863.857 611.921 863.857 611.921 "
       style=" stroke:#ababab; stroke-width:1; fill:#ababab; fill-opacity:100%"></polygon>
      <polygon points="499.439 551.053 495.948 562.167 506.421 564.019 
       516.893 562.167 518.638 551.053 499.439 551.053 499.439 551.053 499.439 551.053 "
       style=" stroke:#ababab; stroke-width:1; fill:#ffffff; fill-opacity:100%"></polygon>
      <polygon points="495.948 560.057 495.948 567.26 518.638 567.26 
       518.638 556.456 518.638 551.053 516.893 560.057 513.402 561.858 
       511.657 561.858 508.165 561.858 506.421 561.858 504.675 561.858 
       501.184 561.858 499.439 561.858 495.948 560.057 495.948 560.057 495.948 560.057 "
       style=" stroke:#ababab; stroke-width:1; fill:#ababab; fill-opacity:100%"></polygon>
      <polygon points="764.742 551.053 768.233 562.167 757.76 564.019 
       747.289 562.167 745.543 551.053 764.742 551.053 764.742 551.053 764.742 551.053 "
       style=" stroke:#ababab; stroke-width:1; fill:#ffffff; fill-opacity:100%"></polygon>
      <polygon points="768.233 560.057 768.233 567.26 745.659 567.26 
       743.922 556.456 743.922 551.053 747.395 560.057 749.131 561.858 
       752.605 561.858 754.341 561.858 757.814 561.858 759.551 561.858 
       761.287 561.858 764.76 561.858 768.233 560.057 768.233 560.057 768.233 560.057 "
       style=" stroke:#ababab; stroke-width:1; fill:#ababab; fill-opacity:100%"></polygon>
      <polygon points="520.384 551.053 518.639 562.167 529.111 564.019 
       539.584 562.167 541.329 551.053 520.384 551.053 520.384 551.053 520.384 551.053 "
       style=" stroke:#ababab; stroke-width:1; fill:#ffffff; fill-opacity:100%"></polygon>
      <polygon points="518.639 560.057 518.639 567.26 541.329 567.26 
       541.329 556.456 541.329 551.053 539.584 560.057 536.093 561.858 
       534.347 561.858 532.603 561.858 529.111 561.858 527.366 561.858 
       523.875 561.858 522.129 561.858 518.639 560.057 518.639 560.057 518.639 560.057 "
       style=" stroke:#ababab; stroke-width:1; fill:#ababab; fill-opacity:100%"></polygon>
      <polygon points="742.167 551.053 743.922 562.167 735.144 564.019 
       724.608 562.167 722.852 551.053 742.167 551.053 742.167 551.053 742.167 551.053 "
       style=" stroke:#ababab; stroke-width:1; fill:#ffffff; fill-opacity:100%"></polygon>
      <polygon points="743.922 560.057 743.922 567.26 722.977 567.26 
       721.232 556.456 722.977 551.053 724.722 560.057 726.468 561.858 
       729.959 561.858 731.704 561.858 735.196 561.858 736.94 561.858 
       738.686 561.858 742.178 561.858 743.922 560.057 743.922 560.057 743.922 560.057 "
       style=" stroke:#ababab; stroke-width:1; fill:#ababab; fill-opacity:100%"></polygon>
      <polygon points="543.075 551.053 541.329 562.167 551.801 564.019 
       562.274 562.167 564.019 551.053 543.075 551.053 543.075 551.053 543.075 551.053 "
       style=" stroke:#ababab; stroke-width:1; fill:#ffffff; fill-opacity:100%"></polygon>
      <polygon points="541.329 560.057 541.329 567.26 564.019 567.26 
       564.019 556.456 564.019 551.053 562.274 560.057 558.782 561.858 
       557.038 561.858 553.546 561.858 551.801 561.858 550.056 561.858 
       546.565 561.858 544.819 561.858 541.329 560.057 541.329 560.057 541.329 560.057 "
       style=" stroke:#ababab; stroke-width:1; fill:#ababab; fill-opacity:100%"></polygon>
      <polygon points="721.107 551.053 722.852 562.167 712.38 564.019 
       701.908 562.167 700.162 551.053 721.107 551.053 721.107 551.053 721.107 551.053 "
       style=" stroke:#ababab; stroke-width:1; fill:#ffffff; fill-opacity:100%"></polygon>
      <polygon points="722.852 560.057 722.852 567.26 700.162 567.26 
       700.162 556.456 700.162 551.053 701.908 560.057 703.653 561.858 
       707.144 561.858 708.889 561.858 712.38 561.858 714.125 561.858 
       715.871 561.858 719.361 561.858 722.852 560.057 722.852 560.057 722.852 560.057 "
       style=" stroke:#ababab; stroke-width:1; fill:#ababab; fill-opacity:100%"></polygon>
      <polygon points="565.775 551.053 564.019 562.167 574.554 564.019 
       585.089 562.167 585.089 551.053 565.775 551.053 565.775 551.053 565.775 551.053 "
       style=" stroke:#ababab; stroke-width:1; fill:#ffffff; fill-opacity:100%"></polygon>
      <polygon points="564.019 560.057 564.019 567.26 586.709 567.26 
       586.709 556.456 586.709 551.053 584.964 560.057 581.473 561.858 
       579.728 561.858 576.238 561.858 574.492 561.858 572.746 561.858 
       569.256 561.858 567.51 561.858 564.019 560.057 564.019 560.057 564.019 560.057 "
       style=" stroke:#ababab; stroke-width:1; fill:#ababab; fill-opacity:100%"></polygon>
      <polygon points="698.418 551.053 700.162 562.167 689.69 564.019 
       679.217 562.167 677.472 551.053 698.418 551.053 698.418 551.053 698.418 551.053 "
       style=" stroke:#ababab; stroke-width:1; fill:#ffffff; fill-opacity:100%"></polygon>
      <polygon points="700.162 560.057 700.162 567.26 677.588 567.26 
       675.851 556.456 677.588 551.053 679.324 560.057 681.06 561.858 
       684.534 561.858 686.27 561.858 689.743 561.858 691.48 561.858 
       693.216 561.858 696.69 561.858 700.162 560.057 700.162 560.057 700.162 560.057 "
       style=" stroke:#ababab; stroke-width:1; fill:#ababab; fill-opacity:100%"></polygon>
      <polygon points="588.466 551.053 586.71 562.167 597.244 564.019 
       607.78 562.167 607.78 551.053 588.466 551.053 588.466 551.053 588.466 551.053 "
       style=" stroke:#ababab; stroke-width:1; fill:#ffffff; fill-opacity:100%"></polygon>
      <polygon points="586.71 560.057 586.71 567.26 609.4 567.26 
       609.4 556.456 609.4 551.053 607.655 560.057 604.163 561.858 
       602.419 561.858 600.673 561.858 597.182 561.858 595.437 561.858 
       591.946 561.858 590.2 561.858 586.71 560.057 586.71 560.057 586.71 560.057 "
       style=" stroke:#ababab; stroke-width:1; fill:#ababab; fill-opacity:100%"></polygon>
      <polygon points="675.851 551.053 675.851 562.167 667.071 564.019 
       656.537 562.167 654.781 551.053 675.851 551.053 675.851 551.053 675.851 551.053 "
       style=" stroke:#ababab; stroke-width:1; fill:#ffffff; fill-opacity:100%"></polygon>
      <polygon points="677.471 560.057 675.726 567.26 654.781 567.26 
       654.781 556.456 654.781 551.053 656.527 560.057 658.272 561.858 
       661.763 561.858 663.508 561.858 666.998 561.858 668.744 561.858 
       672.235 561.858 673.98 561.858 677.471 560.057 677.471 560.057 677.471 560.057 "
       style=" stroke:#ababab; stroke-width:1; fill:#ababab; fill-opacity:100%"></polygon>
      <polygon points="611.156 551.053 609.4 562.167 619.935 564.019 
       630.47 562.167 630.47 551.053 611.156 551.053 611.156 551.053 611.156 551.053 "
       style=" stroke:#ababab; stroke-width:1; fill:#ffffff; fill-opacity:100%"></polygon>
      <polygon points="609.4 560.057 609.4 567.26 632.09 567.26 
       632.09 556.456 632.09 551.053 630.345 560.057 626.854 561.858 
       625.109 561.858 621.619 561.858 619.873 561.858 618.127 561.858 
       614.637 561.858 612.891 561.858 609.4 560.057 609.4 560.057 609.4 560.057 "
       style=" stroke:#ababab; stroke-width:1; fill:#ababab; fill-opacity:100%"></polygon>
      <polygon points="653.037 551.053 654.781 562.167 642.563 564.019 
       633.836 562.167 632.091 551.053 653.037 551.053 653.037 551.053 653.037 551.053 "
       style=" stroke:#ababab; stroke-width:1; fill:#ffffff; fill-opacity:100%"></polygon>
      <polygon points="654.781 560.057 653.037 567.26 632.091 567.26 
       632.091 556.456 632.091 551.053 633.836 560.057 635.581 561.858 
       639.073 561.858 640.818 561.858 644.309 561.858 646.055 561.858 
       647.799 561.858 651.291 561.858 654.781 560.057 654.781 560.057 654.781 560.057 "
       style=" stroke:#ababab; stroke-width:1; fill:#ababab; fill-opacity:100%"></polygon>
      <polygon points="442.588 564.019 440.843 575.133 451.315 576.985 
       460.043 575.133 463.533 564.019 442.588 564.019 442.588 564.019 442.588 564.019 "
       style=" stroke:#ababab; stroke-width:1; fill:#ffffff; fill-opacity:100%"></polygon>
      <polygon points="440.843 572.933 440.843 580.227 461.789 580.227 
       463.533 569.287 463.533 565.64 461.789 572.933 456.552 574.757 
       453.061 574.757 451.315 574.757 447.825 574.757 446.079 574.757 
       442.588 574.757 440.843 572.933 440.843 572.933 440.843 572.933 "
       style=" stroke:#ababab; stroke-width:1; fill:#ababab; fill-opacity:100%"></polygon>
      <polygon points="465.279 564.019 463.533 575.133 474.006 576.985 
       482.732 575.133 486.223 564.019 465.279 564.019 465.279 564.019 465.279 564.019 "
       style=" stroke:#ababab; stroke-width:1; fill:#ffffff; fill-opacity:100%"></polygon>
      <polygon points="463.533 572.933 463.533 580.227 484.478 580.227 
       486.223 569.287 486.223 565.64 484.478 572.933 480.988 574.757 
       479.242 574.757 475.751 574.757 474.006 574.757 470.515 574.757 
       468.769 574.757 467.024 574.757 463.533 572.933 463.533 572.933 463.533 572.933 "
       style=" stroke:#ababab; stroke-width:1; fill:#ababab; fill-opacity:100%"></polygon>
      <polygon points="487.969 564.019 486.224 575.133 496.696 576.985 
       505.424 575.133 508.914 564.019 487.969 564.019 487.969 564.019 487.969 564.019 "
       style=" stroke:#ababab; stroke-width:1; fill:#ffffff; fill-opacity:100%"></polygon>
      <polygon points="486.224 572.933 486.224 580.227 507.17 580.227 
       508.914 569.287 508.914 565.64 507.17 572.933 503.678 574.757 
       501.933 574.757 498.442 574.757 496.696 574.757 493.206 574.757 
       491.46 574.757 487.969 574.757 486.224 572.933 486.224 572.933 486.224 572.933 "
       style=" stroke:#ababab; stroke-width:1; fill:#ababab; fill-opacity:100%"></polygon>
      <polygon points="421.529 564.019 419.773 575.133 428.552 576.985 
       439.087 575.133 440.843 564.019 421.529 564.019 421.529 564.019 421.529 564.019 "
       style=" stroke:#ababab; stroke-width:1; fill:#ffffff; fill-opacity:100%"></polygon>
      <polygon points="419.773 572.933 419.773 580.227 440.718 580.227 
       442.463 569.287 440.718 565.64 438.972 572.933 437.228 574.757 
       433.736 574.757 431.991 574.757 430.246 574.757 426.755 574.757 
       425.009 574.757 421.519 574.757 419.773 572.933 419.773 572.933 419.773 572.933 "
       style=" stroke:#ababab; stroke-width:1; fill:#ababab; fill-opacity:100%"></polygon>
      <polygon points="510.66 564.019 508.914 575.133 519.387 576.985 
       529.859 575.133 531.604 564.019 510.66 564.019 510.66 564.019 510.66 564.019 "
       style=" stroke:#ababab; stroke-width:1; fill:#ffffff; fill-opacity:100%"></polygon>
      <polygon points="508.914 572.933 508.914 580.227 531.604 580.227 
       531.604 569.287 531.604 565.64 529.859 572.933 526.368 574.757 
       524.623 574.757 521.131 574.757 519.387 574.757 515.896 574.757 
       514.15 574.757 510.66 574.757 508.914 572.933 508.914 572.933 508.914 572.933 "
       style=" stroke:#ababab; stroke-width:1; fill:#ababab; fill-opacity:100%"></polygon>
      <polygon points="777.823 564.019 779.579 575.133 769.043 576.985 
       760.265 575.133 758.509 564.019 777.823 564.019 777.823 564.019 777.823 564.019 "
       style=" stroke:#ababab; stroke-width:1; fill:#ffffff; fill-opacity:100%"></polygon>
      <polygon points="779.578 572.933 779.578 580.227 758.634 580.227 
       756.888 569.287 756.888 565.64 758.634 572.933 762.124 574.757 
       763.87 574.757 767.361 574.757 769.106 574.757 772.597 574.757 
       774.342 574.757 777.833 574.757 779.578 572.933 779.578 572.933 779.578 572.933 "
       style=" stroke:#ababab; stroke-width:1; fill:#ababab; fill-opacity:100%"></polygon>
      <polygon points="533.36 564.019 531.605 575.133 542.14 576.985 
       550.92 575.133 552.675 564.019 533.36 564.019 533.36 564.019 533.36 564.019 "
       style=" stroke:#ababab; stroke-width:1; fill:#ffffff; fill-opacity:100%"></polygon>
      <polygon points="531.605 572.933 531.605 580.227 552.55 580.227 
       554.295 569.287 554.295 565.64 552.55 572.933 549.059 574.757 
       547.313 574.757 543.823 574.757 542.077 574.757 538.586 574.757 
       536.841 574.757 533.35 574.757 531.605 572.933 531.605 572.933 531.605 572.933 "
       style=" stroke:#ababab; stroke-width:1; fill:#ababab; fill-opacity:100%"></polygon>
      <polygon points="755.133 564.019 756.888 575.133 746.353 576.985 
       737.574 575.133 735.818 564.019 755.133 564.019 755.133 564.019 755.133 564.019 "
       style=" stroke:#ababab; stroke-width:1; fill:#ffffff; fill-opacity:100%"></polygon>
      <polygon points="756.888 572.933 756.888 580.227 735.943 580.227 
       734.198 569.287 734.198 565.64 735.943 572.933 739.434 574.757 
       741.18 574.757 744.67 574.757 746.416 574.757 749.906 574.757 
       751.652 574.757 755.144 574.757 756.888 572.933 756.888 572.933 756.888 572.933 "
       style=" stroke:#ababab; stroke-width:1; fill:#ababab; fill-opacity:100%"></polygon>
      <polygon points="556.051 564.019 554.295 575.133 564.829 576.985 
       573.609 575.133 575.365 564.019 556.051 564.019 556.051 564.019 556.051 564.019 "
       style=" stroke:#ababab; stroke-width:1; fill:#ffffff; fill-opacity:100%"></polygon>
      <polygon points="554.295 572.933 554.295 580.227 575.24 580.227 
       576.985 569.287 575.24 565.64 575.24 572.933 571.748 574.757 
       570.004 574.757 566.512 574.757 564.767 574.757 561.277 574.757 
       559.531 574.757 556.041 574.757 554.295 572.933 554.295 572.933 554.295 572.933 "
       style=" stroke:#ababab; stroke-width:1; fill:#ababab; fill-opacity:100%"></polygon>
      <polygon points="732.442 564.019 734.198 575.133 723.662 576.985 
       714.884 575.133 713.128 564.019 732.442 564.019 732.442 564.019 732.442 564.019 "
       style=" stroke:#ababab; stroke-width:1; fill:#ffffff; fill-opacity:100%"></polygon>
      <polygon points="734.197 572.933 734.197 580.227 711.507 580.227 
       711.507 569.287 713.253 565.64 713.253 572.933 716.743 574.757 
       718.489 574.757 721.98 574.757 723.724 574.757 727.216 574.757 
       728.961 574.757 732.452 574.757 734.197 572.933 734.197 572.933 734.197 572.933 "
       style=" stroke:#ababab; stroke-width:1; fill:#ababab; fill-opacity:100%"></polygon>
      <polygon points="578.741 564.019 576.985 575.133 587.52 576.985 
       596.3 575.133 598.055 564.019 578.741 564.019 578.741 564.019 578.741 564.019 "
       style=" stroke:#ababab; stroke-width:1; fill:#ffffff; fill-opacity:100%"></polygon>
      <polygon points="576.985 572.933 576.985 580.227 599.675 580.227 
       599.675 569.287 597.93 565.64 597.93 572.933 594.439 574.757 
       592.694 574.757 589.204 574.757 587.458 574.757 583.967 574.757 
       582.222 574.757 578.731 574.757 576.985 572.933 576.985 572.933 576.985 572.933 "
       style=" stroke:#ababab; stroke-width:1; fill:#ababab; fill-opacity:100%"></polygon>
      <polygon points="709.752 564.019 711.508 575.133 700.972 576.985 
       692.193 575.133 690.438 564.019 709.752 564.019 709.752 564.019 709.752 564.019 "
       style=" stroke:#ababab; stroke-width:1; fill:#ffffff; fill-opacity:100%"></polygon>
      <polygon points="711.507 572.933 711.507 580.227 690.563 580.227 
       688.817 569.287 690.563 565.64 690.563 572.933 694.053 574.757 
       695.799 574.757 699.289 574.757 701.034 574.757 704.526 574.757 
       706.27 574.757 709.762 574.757 711.507 572.933 711.507 572.933 711.507 572.933 "
       style=" stroke:#ababab; stroke-width:1; fill:#ababab; fill-opacity:100%"></polygon>
      <polygon points="601.432 564.019 599.676 575.133 610.21 576.985 
       618.99 575.133 620.746 564.019 601.432 564.019 601.432 564.019 601.432 564.019 "
       style=" stroke:#ababab; stroke-width:1; fill:#ffffff; fill-opacity:100%"></polygon>
      <polygon points="599.676 572.933 599.676 580.227 622.366 580.227 
       622.366 569.287 620.621 565.64 620.621 572.933 617.129 574.757 
       615.385 574.757 611.894 574.757 610.148 574.757 606.658 574.757 
       604.912 574.757 601.422 574.757 599.676 572.933 599.676 572.933 599.676 572.933 "
       style=" stroke:#ababab; stroke-width:1; fill:#ababab; fill-opacity:100%"></polygon>
      <polygon points="687.071 564.019 688.816 575.133 678.345 576.985 
       669.617 575.133 666.126 564.019 687.071 564.019 687.071 564.019 687.071 564.019 "
       style=" stroke:#ababab; stroke-width:1; fill:#ffffff; fill-opacity:100%"></polygon>
      <polygon points="688.816 573.023 688.816 580.226 667.872 580.226 
       666.126 569.422 666.126 564.019 669.617 573.023 671.363 574.824 
       673.108 574.824 676.599 574.824 678.345 574.824 681.835 574.824 
       683.58 574.824 687.071 574.824 688.816 573.023 688.816 573.023 688.816 573.023 "
       style=" stroke:#ababab; stroke-width:1; fill:#ababab; fill-opacity:100%"></polygon>
      <polygon points="622.366 564.019 622.366 575.133 632.901 576.985 
       643.436 575.133 643.436 564.019 622.366 564.019 622.366 564.019 622.366 564.019 "
       style=" stroke:#ababab; stroke-width:1; fill:#ffffff; fill-opacity:100%"></polygon>
      <polygon points="622.366 572.933 622.366 580.227 643.436 580.227 
       643.436 569.287 643.436 565.64 641.68 572.933 639.925 574.757 
       638.168 574.757 634.656 574.757 632.901 574.757 629.389 574.757 
       627.633 574.757 624.122 574.757 622.366 572.933 622.366 572.933 622.366 572.933 "
       style=" stroke:#ababab; stroke-width:1; fill:#ababab; fill-opacity:100%"></polygon>
      <polygon points="664.371 564.019 666.127 575.133 655.591 576.985 
       646.812 575.133 645.057 564.019 664.371 564.019 664.371 564.019 664.371 564.019 "
       style=" stroke:#ababab; stroke-width:1; fill:#ffffff; fill-opacity:100%"></polygon>
      <polygon points="666.127 572.933 666.127 580.227 645.057 580.227 
       645.057 569.287 645.057 565.64 645.057 572.933 648.568 574.757 
       650.324 574.757 653.835 574.757 655.591 574.757 659.104 574.757 
       660.859 574.757 664.371 574.757 666.127 572.933 666.127 572.933 666.127 572.933 "
       style=" stroke:#ababab; stroke-width:1; fill:#ababab; fill-opacity:100%"></polygon>
      <polygon points="450.816 576.985 447.326 588.099 457.798 589.951 
       468.272 588.099 470.016 576.985 450.816 576.985 450.816 576.985 450.816 576.985 "
       style=" stroke:#ababab; stroke-width:1; fill:#ffffff; fill-opacity:100%"></polygon>
      <polygon points="447.326 585.989 447.326 593.192 470.016 591.391 
       470.016 582.388 470.016 576.985 468.272 585.989 464.78 587.79 
       463.035 587.79 459.544 587.79 456.053 587.79 452.562 587.79 
       450.816 587.79 447.326 585.989 447.326 585.989 447.326 585.989 "
       style=" stroke:#ababab; stroke-width:1; fill:#ababab; fill-opacity:100%"></polygon>
      <polygon points="473.507 576.985 470.016 588.099 480.489 589.951 
       490.961 588.099 492.706 576.985 473.507 576.985 473.507 576.985 473.507 576.985 "
       style=" stroke:#ababab; stroke-width:1; fill:#ffffff; fill-opacity:100%"></polygon>
      <polygon points="470.016 585.989 470.016 593.192 492.706 593.192 
       492.706 582.388 492.706 576.985 490.961 585.989 487.471 587.79 
       485.725 587.79 482.234 587.79 480.489 587.79 478.743 587.79 
       475.252 587.79 473.507 587.79 470.016 585.989 470.016 585.989 470.016 585.989 "
       style=" stroke:#ababab; stroke-width:1; fill:#ababab; fill-opacity:100%"></polygon>
      <polygon points="496.197 576.985 492.707 588.099 503.179 589.951 
       513.653 588.099 515.397 576.985 496.197 576.985 496.197 576.985 496.197 576.985 "
       style=" stroke:#ababab; stroke-width:1; fill:#ffffff; fill-opacity:100%"></polygon>
      <polygon points="492.707 585.989 492.707 593.192 515.397 593.192 
       515.397 582.388 515.397 576.985 513.653 585.989 510.161 587.79 
       508.415 587.79 504.925 587.79 503.179 587.79 501.434 587.79 
       497.943 587.79 496.197 587.79 492.707 585.989 492.707 585.989 492.707 585.989 "
       style=" stroke:#ababab; stroke-width:1; fill:#ababab; fill-opacity:100%"></polygon>
      <polygon points="418.237 576.985 416.532 588.099 416.532 589.951 
       445.534 589.951 447.241 588.099 448.947 576.985 418.237 576.985 
       418.237 576.985 418.237 576.985 "
       style=" stroke:#ababab; stroke-width:1; fill:#ffffff; fill-opacity:100%"></polygon>
      <polygon points="416.532 585.989 416.532 593.192 448.947 593.192 
       448.947 582.388 448.947 576.985 447.241 585.989 443.828 587.79 
       440.416 587.79 437.005 587.79 435.298 587.79 433.592 587.79 
       431.886 587.79 428.474 587.79 426.768 587.79 425.062 587.79 
       423.356 587.79 418.237 587.79 416.532 585.989 416.532 585.989 416.532 585.989 "
       style=" stroke:#ababab; stroke-width:1; fill:#ababab; fill-opacity:100%"></polygon>
      <polygon points="518.888 576.985 515.397 588.099 525.87 589.951 
       536.342 588.099 538.087 576.985 518.888 576.985 518.888 576.985 518.888 576.985 "
       style=" stroke:#ababab; stroke-width:1; fill:#ffffff; fill-opacity:100%"></polygon>
      <polygon points="515.397 585.989 515.397 593.192 538.087 593.192 
       538.087 582.388 538.087 576.985 536.342 585.989 532.851 587.79 
       531.106 587.79 529.36 587.79 525.87 587.79 524.124 587.79 
       520.633 587.79 518.888 587.79 515.397 585.989 515.397 585.989 515.397 585.989 "
       style=" stroke:#ababab; stroke-width:1; fill:#ababab; fill-opacity:100%"></polygon>
      <polygon points="790.654 565.64 795.786 588.214 776.967 589.951 
       766.703 588.214 764.992 577.795 782.1 577.795 778.678 565.64 
       790.654 565.64 790.654 565.64 790.654 565.64 "
       style=" stroke:#ababab; stroke-width:1; fill:#ffffff; fill-opacity:100%"></polygon>
      <polygon points="795.705 585.989 797.407 593.192 765.073 593.192 
       763.371 582.388 765.073 576.985 766.775 585.989 770.178 587.79 
       773.582 587.79 775.283 587.79 776.985 587.79 778.687 587.79 
       782.09 587.79 783.792 587.79 785.495 587.79 787.197 587.79 
       790.6 587.79 794.004 587.79 795.705 585.989 795.705 585.989 795.705 585.989 "
       style=" stroke:#ababab; stroke-width:1; fill:#ababab; fill-opacity:100%"></polygon>
      <polygon points="539.833 576.985 538.087 588.099 548.56 589.951 
       559.032 588.099 560.777 576.985 539.833 576.985 539.833 576.985 539.833 576.985 "
       style=" stroke:#ababab; stroke-width:1; fill:#ffffff; fill-opacity:100%"></polygon>
      <polygon points="538.087 585.989 538.087 593.192 560.777 593.192 
       560.777 582.388 560.777 576.985 559.032 585.989 555.541 587.79 
       553.796 587.79 550.306 587.79 548.56 587.79 546.814 587.79 
       543.324 587.79 541.578 587.79 538.087 585.989 538.087 585.989 538.087 585.989 "
       style=" stroke:#ababab; stroke-width:1; fill:#ababab; fill-opacity:100%"></polygon>
      <polygon points="763.246 576.985 764.991 588.099 754.52 589.951 
       744.047 588.099 742.301 576.985 763.246 576.985 763.246 576.985 763.246 576.985 "
       style=" stroke:#ababab; stroke-width:1; fill:#ffffff; fill-opacity:100%"></polygon>
      <polygon points="764.992 585.989 764.992 593.192 742.417 593.192 
       740.681 582.388 742.417 576.985 744.154 585.989 745.89 587.79 
       749.363 587.79 751.1 587.79 754.573 587.79 756.309 587.79 
       759.783 587.79 761.52 587.79 764.992 585.989 764.992 585.989 764.992 585.989 "
       style=" stroke:#ababab; stroke-width:1; fill:#ababab; fill-opacity:100%"></polygon>
      <polygon points="562.524 576.985 560.778 588.099 571.25 589.951 
       581.723 588.099 583.468 576.985 562.524 576.985 562.524 576.985 562.524 576.985 "
       style=" stroke:#ababab; stroke-width:1; fill:#ffffff; fill-opacity:100%"></polygon>
      <polygon points="560.778 585.989 560.778 593.192 583.468 593.192 
       583.468 582.388 583.468 576.985 581.723 585.989 578.231 587.79 
       576.487 587.79 572.995 587.79 571.25 587.79 569.505 587.79 
       566.014 587.79 564.268 587.79 560.778 585.989 560.778 585.989 560.778 585.989 "
       style=" stroke:#ababab; stroke-width:1; fill:#ababab; fill-opacity:100%"></polygon>
      <polygon points="740.556 576.985 742.301 588.099 731.828 589.951 
       721.357 588.099 719.611 576.985 740.556 576.985 740.556 576.985 740.556 576.985 "
       style=" stroke:#ababab; stroke-width:1; fill:#ffffff; fill-opacity:100%"></polygon>
      <polygon points="740.681 585.989 740.681 593.192 719.611 593.192 
       719.611 582.388 719.611 576.985 721.367 585.989 723.122 587.79 
       726.634 587.79 728.39 587.79 731.901 587.79 733.658 587.79 
       737.168 587.79 738.925 587.79 740.681 585.989 740.681 585.989 740.681 585.989 "
       style=" stroke:#ababab; stroke-width:1; fill:#ababab; fill-opacity:100%"></polygon>
      <polygon points="585.224 576.985 583.468 588.099 594.003 589.951 
       604.538 588.099 604.538 576.985 585.224 576.985 585.224 576.985 585.224 576.985 "
       style=" stroke:#ababab; stroke-width:1; fill:#ffffff; fill-opacity:100%"></polygon>
      <polygon points="583.468 585.989 583.468 593.192 606.158 593.192 
       606.158 582.388 606.158 576.985 604.413 585.989 600.922 587.79 
       599.177 587.79 595.687 587.79 593.941 587.79 592.195 587.79 
       588.705 587.79 586.959 587.79 583.468 585.989 583.468 585.989 583.468 585.989 "
       style=" stroke:#ababab; stroke-width:1; fill:#ababab; fill-opacity:100%"></polygon>
      <polygon points="717.866 576.985 719.611 588.099 709.139 589.951 
       698.666 588.099 696.921 576.985 717.866 576.985 717.866 576.985 717.866 576.985 "
       style=" stroke:#ababab; stroke-width:1; fill:#ffffff; fill-opacity:100%"></polygon>
      <polygon points="717.991 585.989 717.991 593.192 696.921 593.192 
       696.921 582.388 696.921 576.985 698.676 585.989 700.432 587.79 
       703.945 587.79 705.7 587.79 709.212 587.79 710.968 587.79 
       712.723 587.79 716.236 587.79 717.991 585.989 717.991 585.989 717.991 585.989 "
       style=" stroke:#ababab; stroke-width:1; fill:#ababab; fill-opacity:100%"></polygon>
      <polygon points="607.915 576.985 606.159 588.099 616.693 589.951 
       627.229 588.099 627.229 576.985 607.915 576.985 607.915 576.985 607.915 576.985 "
       style=" stroke:#ababab; stroke-width:1; fill:#ffffff; fill-opacity:100%"></polygon>
      <polygon points="606.159 585.989 606.159 593.192 628.849 593.192 
       628.849 582.388 628.849 576.985 627.105 585.989 623.613 587.79 
       621.869 587.79 618.377 587.79 616.631 587.79 614.887 587.79 
       611.395 587.79 609.649 587.79 606.159 585.989 606.159 585.989 606.159 585.989 "
       style=" stroke:#ababab; stroke-width:1; fill:#ababab; fill-opacity:100%"></polygon>
      <polygon points="695.175 576.985 696.92 588.099 686.447 589.951 
       675.976 588.099 674.23 576.985 695.175 576.985 695.175 576.985 695.175 576.985 "
       style=" stroke:#ababab; stroke-width:1; fill:#ffffff; fill-opacity:100%"></polygon>
      <polygon points="696.92 585.989 696.92 593.192 674.23 593.192 
       674.23 582.388 674.23 576.985 675.976 585.989 677.721 587.79 
       681.212 587.79 682.957 587.79 686.447 587.79 688.193 587.79 
       691.684 587.79 693.429 587.79 696.92 585.989 696.92 585.989 696.92 585.989 "
       style=" stroke:#ababab; stroke-width:1; fill:#ababab; fill-opacity:100%"></polygon>
      <polygon points="630.605 576.985 628.849 588.099 639.384 589.951 
       649.919 588.099 649.919 576.985 630.605 576.985 630.605 576.985 630.605 576.985 "
       style=" stroke:#ababab; stroke-width:1; fill:#ffffff; fill-opacity:100%"></polygon>
      <polygon points="628.849 585.989 628.849 593.192 651.539 593.192 
       651.539 582.388 651.539 576.985 649.794 585.989 646.303 587.79 
       644.558 587.79 641.067 587.79 639.322 587.79 637.576 587.79 
       634.085 587.79 632.34 587.79 628.849 585.989 628.849 585.989 628.849 585.989 "
       style=" stroke:#ababab; stroke-width:1; fill:#ababab; fill-opacity:100%"></polygon>
      <polygon points="672.61 576.985 672.61 588.099 663.83 589.951 
       653.295 588.099 651.54 576.985 672.61 576.985 672.61 576.985 672.61 576.985 "
       style=" stroke:#ababab; stroke-width:1; fill:#ffffff; fill-opacity:100%"></polygon>
      <polygon points="672.61 585.989 672.61 593.192 651.54 593.192 
       651.54 582.388 651.54 576.985 653.295 585.989 655.051 587.79 
       658.563 587.79 660.318 587.79 663.83 587.79 665.587 587.79 
       669.097 587.79 670.854 587.79 672.61 585.989 672.61 585.989 672.61 585.989 "
       style=" stroke:#ababab; stroke-width:1; fill:#ababab; fill-opacity:100%"></polygon>
      <polygon points="415.036 589.951 411.669 601.065 415.036 602.917 
       443.647 602.917 453.746 601.065 455.429 589.951 415.036 589.951 
       415.036 589.951 415.036 589.951 "
       style=" stroke:#ababab; stroke-width:1; fill:#ffffff; fill-opacity:100%"></polygon>
      <polygon points="411.669 600.689 411.669 606.159 455.37 606.159 
       457.05 595.219 457.05 591.572 455.37 600.689 450.327 600.689 
       448.647 600.689 445.285 600.689 443.604 600.689 440.243 600.689 
       436.881 600.689 433.519 600.689 430.158 600.689 426.796 600.689 
       423.435 600.689 420.073 600.689 418.392 600.689 415.031 600.689 
       413.35 600.689 411.669 600.689 411.669 600.689 411.669 600.689 "
       style=" stroke:#ababab; stroke-width:1; fill:#ababab; fill-opacity:100%"></polygon>
      <polygon points="458.806 589.951 457.05 601.065 467.585 602.917 
       476.364 601.065 478.12 589.951 458.806 589.951 458.806 589.951 458.806 589.951 "
       style=" stroke:#ababab; stroke-width:1; fill:#ffffff; fill-opacity:100%"></polygon>
      <polygon points="457.05 600.689 457.05 606.159 477.995 606.159 
       479.74 595.219 479.74 591.572 477.995 600.689 474.505 600.689 
       471.013 600.689 469.268 600.689 467.523 600.689 464.032 600.689 
       462.286 600.689 458.796 600.689 457.05 600.689 457.05 600.689 457.05 600.689 "
       style=" stroke:#ababab; stroke-width:1; fill:#ababab; fill-opacity:100%"></polygon>
      <polygon points="481.486 589.951 479.741 601.065 490.213 602.917 
       498.941 601.065 502.431 589.951 481.486 589.951 481.486 589.951 481.486 589.951 "
       style=" stroke:#ababab; stroke-width:1; fill:#ffffff; fill-opacity:100%"></polygon>
      <polygon points="479.741 600.689 479.741 606.159 500.687 606.159 
       502.431 595.219 502.431 591.572 500.687 600.689 497.195 600.689 
       495.45 600.689 491.959 600.689 490.213 600.689 486.723 600.689 
       484.977 600.689 481.486 600.689 479.741 600.689 479.741 600.689 479.741 600.689 "
       style=" stroke:#ababab; stroke-width:1; fill:#ababab; fill-opacity:100%"></polygon>
      <polygon points="797.204 589.951 800.649 601.065 785.15 602.917 
       774.817 601.065 773.096 589.951 797.204 589.951 797.204 589.951 797.204 589.951 "
       style=" stroke:#ababab; stroke-width:1; fill:#ffffff; fill-opacity:100%"></polygon>
      <polygon points="798.926 600.689 800.649 606.159 773.096 606.159 
       773.096 595.219 773.096 591.572 774.817 600.689 778.262 600.689 
       781.705 600.689 783.428 600.689 786.872 600.689 790.316 600.689 
       793.76 600.689 797.204 600.689 798.926 600.689 798.926 600.689 798.926 600.689 "
       style=" stroke:#ababab; stroke-width:1; fill:#ababab; fill-opacity:100%"></polygon>
      <polygon points="504.187 589.951 502.431 601.065 512.966 602.917 
       521.745 601.065 523.501 589.951 504.187 589.951 504.187 589.951 504.187 589.951 "
       style=" stroke:#ababab; stroke-width:1; fill:#ffffff; fill-opacity:100%"></polygon>
      <polygon points="502.431 600.689 502.431 606.159 523.376 606.159 
       525.121 595.219 525.121 591.572 523.376 600.689 519.885 600.689 
       516.394 600.689 514.649 600.689 512.904 600.689 509.413 600.689 
       507.667 600.689 504.177 600.689 502.431 600.689 502.431 600.689 502.431 600.689 "
       style=" stroke:#ababab; stroke-width:1; fill:#ababab; fill-opacity:100%"></polygon>
      <polygon points="771.34 589.951 773.096 601.065 762.56 602.917 
       752.026 601.065 752.026 589.951 771.34 589.951 771.34 589.951 771.34 589.951 "
       style=" stroke:#ababab; stroke-width:1; fill:#ffffff; fill-opacity:100%"></polygon>
      <polygon points="773.095 600.689 773.095 606.159 750.405 606.159 
       750.405 595.219 750.405 591.572 752.151 600.689 755.641 600.689 
       757.387 600.689 760.878 600.689 762.622 600.689 766.114 600.689 
       767.859 600.689 771.35 600.689 773.095 600.689 773.095 600.689 773.095 600.689 "
       style=" stroke:#ababab; stroke-width:1; fill:#ababab; fill-opacity:100%"></polygon>
      <polygon points="526.877 589.951 525.122 601.065 535.657 602.917 
       544.437 601.065 546.192 589.951 526.877 589.951 526.877 589.951 526.877 589.951 "
       style=" stroke:#ababab; stroke-width:1; fill:#ffffff; fill-opacity:100%"></polygon>
      <polygon points="525.122 600.689 525.122 606.159 546.067 606.159 
       547.812 595.219 546.067 591.572 544.322 600.689 542.576 600.689 
       539.085 600.689 537.34 600.689 535.594 600.689 532.104 600.689 
       530.358 600.689 526.867 600.689 525.122 600.689 525.122 600.689 525.122 600.689 "
       style=" stroke:#ababab; stroke-width:1; fill:#ababab; fill-opacity:100%"></polygon>
      <polygon points="748.65 589.951 750.405 601.065 739.87 602.917 
       731.091 601.065 729.335 589.951 748.65 589.951 748.65 589.951 748.65 589.951 "
       style=" stroke:#ababab; stroke-width:1; fill:#ffffff; fill-opacity:100%"></polygon>
      <polygon points="750.405 600.689 750.405 606.159 727.715 606.159 
       727.715 595.219 727.715 591.572 729.46 600.689 732.951 600.689 
       734.697 600.689 738.187 600.689 739.933 600.689 743.423 600.689 
       745.169 600.689 746.915 600.689 750.405 600.689 750.405 600.689 750.405 600.689 "
       style=" stroke:#ababab; stroke-width:1; fill:#ababab; fill-opacity:100%"></polygon>
      <polygon points="549.568 589.951 547.812 601.065 558.346 602.917 
       567.126 601.065 568.882 589.951 549.568 589.951 549.568 589.951 549.568 589.951 "
       style=" stroke:#ababab; stroke-width:1; fill:#ffffff; fill-opacity:100%"></polygon>
      <polygon points="547.812 600.689 547.812 606.159 568.757 606.159 
       570.502 595.219 568.757 591.572 568.757 600.689 565.265 600.689 
       561.775 600.689 560.029 600.689 558.284 600.689 554.794 600.689 
       553.048 600.689 549.558 600.689 547.812 600.689 547.812 600.689 547.812 600.689 "
       style=" stroke:#ababab; stroke-width:1; fill:#ababab; fill-opacity:100%"></polygon>
      <polygon points="725.959 589.951 727.715 601.065 717.179 602.917 
       708.401 601.065 706.645 589.951 725.959 589.951 725.959 589.951 725.959 589.951 "
       style=" stroke:#ababab; stroke-width:1; fill:#ffffff; fill-opacity:100%"></polygon>
      <polygon points="727.714 600.689 727.714 606.159 705.024 606.159 
       705.024 595.219 705.024 591.572 706.77 600.689 710.261 600.689 
       712.006 600.689 715.497 600.689 717.241 600.689 720.733 600.689 
       722.478 600.689 725.969 600.689 727.714 600.689 727.714 600.689 727.714 600.689 "
       style=" stroke:#ababab; stroke-width:1; fill:#ababab; fill-opacity:100%"></polygon>
      <polygon points="572.258 589.951 570.502 601.065 581.037 602.917 
       589.817 601.065 591.572 589.951 572.258 589.951 572.258 589.951 572.258 589.951 "
       style=" stroke:#ababab; stroke-width:1; fill:#ffffff; fill-opacity:100%"></polygon>
      <polygon points="570.502 600.689 570.502 606.159 593.192 606.159 
       593.192 595.219 591.447 591.572 589.702 600.689 587.956 600.689 
       584.465 600.689 582.721 600.689 580.975 600.689 577.484 600.689 
       575.739 600.689 572.248 600.689 570.502 600.689 570.502 600.689 570.502 600.689 "
       style=" stroke:#ababab; stroke-width:1; fill:#ababab; fill-opacity:100%"></polygon>
      <polygon points="703.269 589.951 705.025 601.065 694.489 602.917 
       685.71 601.065 683.955 589.951 703.269 589.951 703.269 589.951 703.269 589.951 "
       style=" stroke:#ababab; stroke-width:1; fill:#ffffff; fill-opacity:100%"></polygon>
      <polygon points="705.024 600.689 705.024 606.159 682.334 606.159 
       682.334 595.219 682.334 591.572 684.08 600.689 687.57 600.689 
       689.316 600.689 692.806 600.689 694.551 600.689 698.043 600.689 
       699.787 600.689 703.279 600.689 705.024 600.689 705.024 600.689 705.024 600.689 "
       style=" stroke:#ababab; stroke-width:1; fill:#ababab; fill-opacity:100%"></polygon>
      <polygon points="594.949 589.951 593.193 601.065 603.727 602.917 
       612.507 601.065 614.263 589.951 594.949 589.951 594.949 589.951 594.949 589.951 "
       style=" stroke:#ababab; stroke-width:1; fill:#ffffff; fill-opacity:100%"></polygon>
      <polygon points="593.193 600.689 593.193 606.159 614.138 606.159 
       615.883 595.219 614.138 591.572 612.392 600.689 610.646 600.689 
       607.156 600.689 605.41 600.689 603.665 600.689 600.175 600.689 
       598.429 600.689 594.939 600.689 593.193 600.689 593.193 600.689 593.193 600.689 "
       style=" stroke:#ababab; stroke-width:1; fill:#ababab; fill-opacity:100%"></polygon>
      <polygon points="680.578 589.951 682.334 601.065 671.799 602.917 
       663.02 601.065 661.264 589.951 680.578 589.951 680.578 589.951 680.578 589.951 "
       style=" stroke:#ababab; stroke-width:1; fill:#ffffff; fill-opacity:100%"></polygon>
      <polygon points="682.333 600.689 682.333 606.159 659.643 606.159 
       659.643 595.219 661.389 591.572 661.389 600.689 664.88 600.689 
       666.625 600.689 670.116 600.689 671.862 600.689 675.352 600.689 
       677.097 600.689 680.588 600.689 682.333 600.689 682.333 600.689 682.333 600.689 "
       style=" stroke:#ababab; stroke-width:1; fill:#ababab; fill-opacity:100%"></polygon>
      <polygon points="617.639 589.951 615.883 601.065 626.418 602.917 
       635.197 601.065 636.953 589.951 617.639 589.951 617.639 589.951 617.639 589.951 "
       style=" stroke:#ababab; stroke-width:1; fill:#ffffff; fill-opacity:100%"></polygon>
      <polygon points="615.883 600.689 615.883 606.159 638.573 606.159 
       638.573 595.219 636.828 591.572 635.082 600.689 633.337 600.689 
       629.846 600.689 628.101 600.689 626.356 600.689 622.865 600.689 
       621.12 600.689 617.629 600.689 615.883 600.689 615.883 600.689 615.883 600.689 "
       style=" stroke:#ababab; stroke-width:1; fill:#ababab; fill-opacity:100%"></polygon>
      <polygon points="657.888 589.951 659.644 601.065 649.108 602.917 
       638.574 601.065 638.574 589.951 657.888 589.951 657.888 589.951 657.888 589.951 "
       style=" stroke:#ababab; stroke-width:1; fill:#ffffff; fill-opacity:100%"></polygon>
      <polygon points="659.643 600.689 659.643 606.159 636.953 606.159 
       636.953 595.219 636.953 591.572 638.699 600.689 642.189 600.689 
       643.935 600.689 647.425 600.689 649.17 600.689 652.662 600.689 
       654.406 600.689 657.898 600.689 659.643 600.689 659.643 600.689 659.643 600.689 "
       style=" stroke:#ababab; stroke-width:1; fill:#ababab; fill-opacity:100%"></polygon>
      <polygon points="410.174 602.917 408.428 612.178 418.9 615.883 
       429.373 612.178 431.118 602.917 410.174 602.917 410.174 602.917 410.174 602.917 "
       style=" stroke:#ababab; stroke-width:1; fill:#ffffff; fill-opacity:100%"></polygon>
      <polygon points="408.428 612.034 408.428 617.504 429.373 617.504 
       431.118 606.564 431.118 602.917 429.373 612.034 425.881 612.034 
       424.137 612.034 420.646 612.034 418.9 612.034 415.41 612.034 
       413.664 612.034 410.174 612.034 408.428 612.034 408.428 612.034 408.428 612.034 "
       style=" stroke:#ababab; stroke-width:1; fill:#ababab; fill-opacity:100%"></polygon>
      <polygon points="432.864 602.917 431.118 612.178 441.591 615.883 
       452.063 612.178 453.808 602.917 432.864 602.917 432.864 602.917 432.864 602.917 "
       style=" stroke:#ababab; stroke-width:1; fill:#ffffff; fill-opacity:100%"></polygon>
      <polygon points="431.118 612.034 431.118 617.504 453.808 617.504 
       453.808 606.564 453.808 602.917 452.063 612.034 448.572 612.034 
       446.827 612.034 443.336 612.034 441.591 612.034 438.1 612.034 
       436.355 612.034 434.609 612.034 431.118 612.034 431.118 612.034 431.118 612.034 "
       style=" stroke:#ababab; stroke-width:1; fill:#ababab; fill-opacity:100%"></polygon>
      <polygon points="453.809 612.034 453.809 617.504 494.264 617.504 
       494.264 606.564 495.948 602.917 494.264 612.034 492.578 612.034 
       487.521 612.034 485.835 612.034 482.464 612.034 480.779 612.034 
       479.093 612.034 475.721 612.034 474.036 612.034 470.665 612.034 
       468.979 612.034 465.608 612.034 463.922 612.034 462.236 612.034 
       458.866 612.034 453.809 612.034 453.809 612.034 453.809 612.034 "
       style=" stroke:#ababab; stroke-width:1; fill:#ababab; fill-opacity:100%"></polygon>
      <polygon points="457.185 602.917 453.809 612.371 472.38 614.262 
       492.639 612.371 494.328 602.917 457.185 602.917 457.185 602.917 457.185 602.917 "
       style=" stroke:#ababab; stroke-width:1; fill:#ffffff; fill-opacity:100%"></polygon>
      <polygon points="800.514 602.917 802.269 612.178 793.491 615.883 
       782.955 612.178 781.199 602.917 800.514 602.917 800.514 602.917 800.514 602.917 "
       style=" stroke:#ababab; stroke-width:1; fill:#ffffff; fill-opacity:100%"></polygon>
      <polygon points="802.153 612.034 803.89 617.504 781.315 617.504 
       779.579 606.564 779.579 602.917 781.315 612.034 784.788 612.034 
       788.261 612.034 789.998 612.034 791.735 612.034 795.207 612.034 
       796.944 612.034 800.418 612.034 802.153 612.034 802.153 612.034 802.153 612.034 "
       style=" stroke:#ababab; stroke-width:1; fill:#ababab; fill-opacity:100%"></polygon>
      <polygon points="497.704 602.917 495.948 612.178 504.727 615.883 
       515.262 612.178 517.018 602.917 497.704 602.917 497.704 602.917 497.704 602.917 "
       style=" stroke:#ababab; stroke-width:1; fill:#ffffff; fill-opacity:100%"></polygon>
      <polygon points="496.073 612.034 494.327 617.504 517.017 617.504 
       517.017 606.564 517.017 602.917 515.272 612.034 513.527 612.034 
       510.036 612.034 508.29 612.034 504.8 612.034 503.054 612.034 
       499.564 612.034 497.818 612.034 496.073 612.034 496.073 612.034 496.073 612.034 "
       style=" stroke:#ababab; stroke-width:1; fill:#ababab; fill-opacity:100%"></polygon>
      <polygon points="777.823 602.917 779.579 612.178 770.799 615.883 
       760.265 612.178 758.509 602.917 777.823 602.917 777.823 602.917 777.823 602.917 "
       style=" stroke:#ababab; stroke-width:1; fill:#ffffff; fill-opacity:100%"></polygon>
      <polygon points="779.578 612.034 779.578 617.504 758.634 617.504 
       756.888 606.564 756.888 602.917 760.379 612.034 762.124 612.034 
       765.615 612.034 767.361 612.034 770.851 612.034 772.597 612.034 
       774.342 612.034 777.833 612.034 779.578 612.034 779.578 612.034 779.578 612.034 "
       style=" stroke:#ababab; stroke-width:1; fill:#ababab; fill-opacity:100%"></polygon>
      <polygon points="755.133 602.917 756.888 612.178 746.353 615.883 
       737.574 612.178 735.818 602.917 755.133 602.917 755.133 602.917 755.133 602.917 "
       style=" stroke:#ababab; stroke-width:1; fill:#ffffff; fill-opacity:100%"></polygon>
      <polygon points="756.888 612.034 756.888 617.504 735.943 617.504 
       734.198 606.564 735.943 602.917 737.688 612.034 739.434 612.034 
       741.18 612.034 744.67 612.034 746.416 612.034 749.906 612.034 
       751.652 612.034 755.144 612.034 756.888 612.034 756.888 612.034 756.888 612.034 "
       style=" stroke:#ababab; stroke-width:1; fill:#ababab; fill-opacity:100%"></polygon>
      <polygon points="732.442 602.917 734.198 612.178 723.662 615.883 
       714.884 612.178 713.128 602.917 732.442 602.917 732.442 602.917 732.442 602.917 "
       style=" stroke:#ababab; stroke-width:1; fill:#ffffff; fill-opacity:100%"></polygon>
      <polygon points="734.197 612.034 734.197 617.504 711.507 617.504 
       711.507 606.564 713.253 602.917 713.253 612.034 716.743 612.034 
       718.489 612.034 721.98 612.034 723.724 612.034 727.216 612.034 
       728.961 612.034 732.452 612.034 734.197 612.034 734.197 612.034 734.197 612.034 "
       style=" stroke:#ababab; stroke-width:1; fill:#ababab; fill-opacity:100%"></polygon>
      <polygon points="709.752 602.917 711.508 612.178 700.972 615.883 
       690.438 612.178 690.438 602.917 709.752 602.917 709.752 602.917 709.752 602.917 "
       style=" stroke:#ababab; stroke-width:1; fill:#ffffff; fill-opacity:100%"></polygon>
      <polygon points="711.507 612.034 711.507 617.504 688.817 617.504 
       688.817 606.564 690.563 602.917 690.563 612.034 694.053 612.034 
       695.799 612.034 699.289 612.034 701.034 612.034 704.526 612.034 
       706.27 612.034 709.762 612.034 711.507 612.034 711.507 612.034 711.507 612.034 "
       style=" stroke:#ababab; stroke-width:1; fill:#ababab; fill-opacity:100%"></polygon>
      <polygon points="520.29 602.917 517.018 612.178 526.835 615.883 
       683.909 614.031 688.817 612.178 688.817 602.917 520.29 602.917 
       520.29 602.917 520.29 602.917 "
       style=" stroke:#ababab; stroke-width:1; fill:#ffffff; fill-opacity:100%"></polygon>
      <polygon points="517.018 611.021 517.018 617.504 690.438 617.504 
       688.802 611.021 685.53 611.021 680.621 611.021 670.805 611.021 
       660.989 611.021 647.9 611.021 633.177 611.021 618.452 611.021 
       603.727 611.021 587.368 611.021 572.643 611.021 559.555 611.021 
       546.466 611.021 535.014 611.021 526.834 611.021 520.29 611.021 
       517.018 611.021 517.018 611.021 517.018 611.021 "
       style=" stroke:#ababab; stroke-width:1; fill:#ababab; fill-opacity:100%"></polygon>
    </g>
  </symbol>
 </defs>
</svg>
