<?xml version="1.0" encoding="UTF-8" standalone="no"?>

<svg
 xmlns:dc="http://purl.org/dc/elements/1.1/"
   xmlns:cc="http://creativecommons.org/ns#"
   xmlns:rdf="http://www.w3.org/1999/02/22-rdf-syntax-ns#"
   xmlns:svg="http://www.w3.org/2000/svg"
   xmlns="http://www.w3.org/2000/svg"
   xmlns:xlink="http://www.w3.org/1999/xlink"
   xmlns:sodipodi="http://sodipodi.sourceforge.net/DTD/sodipodi-0.dtd"
   xmlns:inkscape="http://www.inkscape.org/namespaces/inkscape"
   id="svg2"
   version="1.1"
   inkscape:version="0.47 r22583"
   width="100"
   height="100"
   sodipodi:docname="business_service_catalog.svg">
  <metadata
     id="metadata130">
    <rdf:RDF>
      <cc:Work
         rdf:about="">
        <dc:format>image/svg+xml</dc:format>
        <dc:type
           rdf:resource="http://purl.org/dc/dcmitype/StillImage" />
      </cc:Work>
    </rdf:RDF>
  </metadata>
  <defs
     id="defs128">
    <linearGradient
       inkscape:collect="always"
       id="linearGradient3742">
      <stop
         style="stop-color:#2d5a70;stop-opacity:1;"
         offset="0"
         id="stop3744" />
      <stop
         style="stop-color:#2d5a70;stop-opacity:0;"
         offset="1"
         id="stop3746" />
    </linearGradient>
    <linearGradient
       inkscape:collect="always"
       id="linearGradient3734">
      <stop
         style="stop-color:#ffffff;stop-opacity:1;"
         offset="0"
         id="stop3736" />
      <stop
         style="stop-color:#ffffff;stop-opacity:0;"
         offset="1"
         id="stop3738" />
    </linearGradient>
    <linearGradient
       inkscape:collect="always"
       id="linearGradient3726">
      <stop
         style="stop-color:#ffffff;stop-opacity:1;"
         offset="0"
         id="stop3728" />
      <stop
         style="stop-color:#ffffff;stop-opacity:0;"
         offset="1"
         id="stop3730" />
    </linearGradient>
    <linearGradient
       inkscape:collect="always"
       id="linearGradient3718">
      <stop
         style="stop-color:#dadce5;stop-opacity:1;"
         offset="0"
         id="stop3720" />
      <stop
         style="stop-color:#dadce5;stop-opacity:0;"
         offset="1"
         id="stop3722" />
    </linearGradient>
    <linearGradient
       inkscape:collect="always"
       id="linearGradient3710">
      <stop
         style="stop-color:#8864b2;stop-opacity:1;"
         offset="0"
         id="stop3712" />
      <stop
         style="stop-color:#8864b2;stop-opacity:0;"
         offset="1"
         id="stop3714" />
    </linearGradient>
    <inkscape:perspective
       sodipodi:type="inkscape:persp3d"
       inkscape:vp_x="0 : 0.5 : 1"
       inkscape:vp_y="0 : 1000 : 0"
       inkscape:vp_z="1 : 0.5 : 1"
       inkscape:persp3d-origin="0.5 : 0.33333333 : 1"
       id="perspective132" />
    <linearGradient
       inkscape:collect="always"
       xlink:href="#linearGradient3710"
       id="linearGradient3716"
       x1="15.3846"
       y1="588.61499"
       x2="984.61603"
       y2="588.61499"
       gradientUnits="userSpaceOnUse" />
    <linearGradient
       inkscape:collect="always"
       xlink:href="#linearGradient3718"
       id="linearGradient3724"
       x1="30.769199"
       y1="577.07648"
       x2="938.461"
       y2="577.07648"
       gradientUnits="userSpaceOnUse" />
    <linearGradient
       inkscape:collect="always"
       xlink:href="#linearGradient3726"
       id="linearGradient3732"
       x1="38.461498"
       y1="607.84552"
       x2="669.22998"
       y2="607.84552"
       gradientUnits="userSpaceOnUse" />
    <linearGradient
       inkscape:collect="always"
       xlink:href="#linearGradient3734"
       id="linearGradient3740"
       x1="423.077"
       y1="434.76901"
       x2="915.38501"
       y2="434.76901"
       gradientUnits="userSpaceOnUse" />
    <linearGradient
       inkscape:collect="always"
       xlink:href="#linearGradient3742"
       id="linearGradient3748"
       x1="22.2439"
       y1="462.0455"
       x2="509.26501"
       y2="462.0455"
       gradientUnits="userSpaceOnUse" />
  </defs>
  <sodipodi:namedview
     pagecolor="#ffffff"
     bordercolor="#666666"
     borderopacity="1"
     objecttolerance="10"
     gridtolerance="10"
     guidetolerance="10"
     inkscape:pageopacity="0"
     inkscape:pageshadow="2"
     inkscape:window-width="1680"
     inkscape:window-height="994"
     id="namedview126"
     showgrid="false"
     inkscape:zoom="7.49"
     inkscape:cx="50"
     inkscape:cy="50"
     inkscape:window-x="-4"
     inkscape:window-y="-4"
     inkscape:window-maximized="1"
     inkscape:current-layer="svg2" />
  <polygon
     points="720.886,623.705 736.389,608.11 744.141,592.514 744.141,584.717 821.655,545.728 976.684,459.954 999.939,444.358 1007.69,436.561 961.181,420.965 697.632,327.393 635.62,304 565.856,350.785 418.579,452.155 418.579,452.155 54.2603,639.3 7.75146,670.491 0,678.288 15.5029,686.087 62.0117,709.48 201.538,779.658 403.076,873.231 441.834,842.04 589.111,709.48 674.377,631.503 682.129,631.503 697.632,631.503 "
     style="fill:#444444;fill-opacity:1;stroke:none"
     id="polygon4"
     transform="matrix(0.09923687,0,0,0.09923687,0,3.1448176)" />
  <polygon
     points="472.862,803.132 403.077,865.538 216.985,779.73 15.3846,678.322 426.339,459.904 426.339,459.904 558.154,366.296 635.692,311.692 697.724,335.094 984.616,444.303 914.831,483.306 814.031,537.911 736.492,584.715 736.492,592.515 728.739,600.316 697.724,623.718 674.462,623.718 581.415,701.724 "
     style="fill:url(#linearGradient3716);fill-opacity:1;stroke:none"
     id="polygon6"
     transform="matrix(0.09923687,0,0,0.09923687,0,3.1448176)" />
  <polygon
     points="705.688,592.639 736.716,569.206 783.258,537.964 814.285,522.342 876.341,498.91 922.883,467.668 946.154,444.236 922.883,412.994 628.119,327.077 628.119,327.077 496.251,389.562 465.222,498.91 23.0769,623.881 30.8338,662.935 395.411,834.769 403.167,834.769 449.709,795.715 488.493,772.283 527.278,741.041 566.063,686.367 612.604,647.313 666.903,608.26 "
     style="fill:#666666;fill-opacity:1;stroke:none"
     id="polygon8"
     transform="matrix(0.09923687,0,0,0.09923687,0,3.1448176)" />
  <polygon
     points="449.704,788.119 395.398,819.384 38.5272,655.24 30.7692,623.974 472.978,506.729 504.01,397.3 628.139,334.769 628.139,334.769 915.187,420.749 938.461,444.198 907.429,459.831 868.638,491.096 806.575,514.545 775.543,530.179 728.994,561.444 705.72,584.893 659.171,600.525 604.865,639.608 558.317,678.689 519.527,733.404 "
     style="fill:url(#linearGradient3724);fill-opacity:1;stroke:none"
     id="polygon10"
     transform="matrix(0.09923687,0,0,0.09923687,0,3.1448176)" />
  <polygon
     points="482.201,718.017 505.546,686.565 521.11,655.111 536.673,639.385 560.018,615.795 591.145,592.205 637.836,576.478 692.308,568.615 692.308,560.752 419.947,442.803 357.692,427.077 303.22,434.94 279.875,434.94 256.53,450.666 256.53,450.666 217.621,482.12 202.057,513.573 186.493,537.162 163.148,560.752 124.24,584.342 77.5493,600.068 23.0769,623.658 23.0769,631.522 373.256,780.923 381.038,780.923 412.165,765.197 443.292,749.47 "
     style="fill:#666666;fill-opacity:1;stroke:none"
     id="polygon12"
     transform="matrix(0.09923687,0,0,0.09923687,0,3.1448176)" />
  <polygon
     points="529.06,631.472 513.485,655.098 497.911,678.724 474.549,710.227 443.4,741.728 412.251,757.479 381.102,773.23 38.4615,623.596 100.76,607.846 139.697,592.095 170.845,568.468 170.845,568.468 194.207,544.842 209.781,521.215 225.356,489.714 264.292,458.212 279.867,442.461 303.229,442.461 357.74,442.461 412.251,450.336 669.23,560.593 606.933,576.343 575.784,592.095 552.422,607.846 "
     style="fill:url(#linearGradient3732);fill-opacity:1;stroke:none"
     id="polygon14"
     transform="matrix(0.09923687,0,0,0.09923687,0,3.1448176)" />
  <polygon
     points="876.108,462.371 899.535,446.534 922.961,430.697 930.77,422.778 618.416,304 610.606,304 602.797,319.837 587.179,327.756 563.753,335.674 516.9,343.592 477.855,343.592 446.62,367.348 446.62,367.348 431.002,391.104 415.385,414.86 415.385,446.534 415.385,454.452 688.695,573.231 688.695,565.313 696.504,549.475 712.121,533.639 727.739,517.801 766.783,501.964 805.828,486.127 844.873,478.208 "
     style="fill:#666666;fill-opacity:1;stroke:none"
     id="polygon16"
     transform="matrix(0.09923687,0,0,0.09923687,0,3.1448176)" />
  <polygon
     points="696.582,541.966 680.953,557.846 423.077,446.68 430.891,414.918 438.706,391.097 454.334,375.215 454.334,375.215 477.778,359.335 516.85,351.394 563.736,343.454 602.809,327.573 618.438,311.692 915.385,422.858 884.128,446.68 845.056,470.501 805.983,478.441 766.911,486.383 727.839,510.204 704.396,526.084 "
     style="fill:url(#linearGradient3740);fill-opacity:1;stroke:none"
     id="polygon18"
     transform="matrix(0.09923687,0,0,0.09923687,0,3.1448176)" />
  <polygon
     points="687.179,557.846 676.923,557.846 676.923,557.846 697.436,596.308 707.692,596.308 "
     style="fill:#666666;fill-opacity:1;stroke:none"
     id="polygon20"
     transform="matrix(0.09923687,0,0,0.09923687,0,3.1448176)" />
  <polygon
     points="584.615,560.41 576.282,542.461 542.949,551.435 517.949,560.41 484.615,587.333 484.615,587.333 501.282,596.307 526.282,578.358 551.282,569.384 "
     style="fill:#c4c4c4;fill-opacity:1;stroke:none"
     id="polygon22"
     transform="matrix(0.09923687,0,0,0.09923687,0,3.1448176)" />
  <polygon
     points="407.692,687.59 424.359,704 457.692,662.975 474.359,638.359 482.692,613.743 507.692,589.128 491.025,580.923 466.025,605.539 457.692,630.154 457.692,630.154 441.026,654.769 "
     style="fill:#c4c4c4;fill-opacity:1;stroke:none"
     id="polygon24"
     transform="matrix(0.09923687,0,0,0.09923687,0,3.1448176)" />
  <polygon
     points="353.846,732.206 353.846,732.206 353.846,757.846 388.034,740.753 430.769,698.017 413.675,680.923 370.94,723.658 "
     style="fill:#c4c4c4;fill-opacity:1;stroke:none"
     id="polygon26"
     transform="matrix(0.09923687,0,0,0.09923687,0,3.1448176)" />
  <polygon
     points="474.359,505.099 448.718,522.681 423.077,549.055 423.077,549.055 440.171,557.846 482.906,531.473 500,522.681 500,496.307 "
     style="fill:#c4c4c4;fill-opacity:1;stroke:none"
     id="polygon28"
     transform="matrix(0.09923687,0,0,0.09923687,0,3.1448176)" />
  <polygon
     points="346.154,649.605 362.82,657.846 396.154,624.879 412.82,600.154 421.154,575.428 446.154,550.702 429.487,542.461 404.487,567.187 396.154,583.671 396.154,583.671 379.487,616.638 "
     style="fill:#c4c4c4;fill-opacity:1;stroke:none"
     id="polygon30"
     transform="matrix(0.09923687,0,0,0.09923687,0,3.1448176)" />
  <polygon
     points="284.615,693.743 284.615,693.743 293.077,719.384 310,710.837 369.23,651.008 352.308,642.461 301.539,685.196 "
     style="fill:#c4c4c4;fill-opacity:1;stroke:none"
     id="polygon32"
     transform="matrix(0.09923687,0,0,0.09923687,0,3.1448176)" />
  <polygon
     points="384.615,461.692 376.154,434.769 350.769,443.743 325.385,461.692 300,479.64 300,479.64 316.924,488.615 333.846,479.64 359.231,470.666 "
     style="fill:#c4c4c4;fill-opacity:1;stroke:none"
     id="polygon34"
     transform="matrix(0.09923687,0,0,0.09923687,0,3.1448176)" />
  <polygon
     points="223.077,579.896 239.744,596.307 273.077,555.281 289.743,530.667 298.077,506.051 323.077,489.641 306.41,473.23 289.743,497.845 273.077,522.461 273.077,522.461 256.41,547.076 "
     style="fill:#c4c4c4;fill-opacity:1;stroke:none"
     id="polygon36"
     transform="matrix(0.09923687,0,0,0.09923687,0,3.1448176)" />
  <polygon
     points="446.153,483.121 446.153,465.538 420.769,474.329 386.922,483.121 361.538,509.495 361.538,509.495 378.461,527.077 403.846,500.703 420.769,491.912 "
     style="fill:#c4c4c4;fill-opacity:1;stroke:none"
     id="polygon38"
     transform="matrix(0.09923687,0,0,0.09923687,0,3.1448176)" />
  <polygon
     points="284.615,610.667 301.282,627.077 326.282,586.052 342.949,561.436 359.615,536.82 384.615,520.41 367.948,504 342.949,528.616 326.282,553.23 326.282,553.23 309.615,577.846 "
     style="fill:#c4c4c4;fill-opacity:1;stroke:none"
     id="polygon40"
     transform="matrix(0.09923687,0,0,0.09923687,0,3.1448176)" />
  <polygon
     points="307.693,621.094 290.909,604 257.343,638.188 232.168,655.282 215.385,663.83 215.385,663.83 215.385,680.923 240.56,672.376 274.126,655.282 "
     style="fill:#c4c4c4;fill-opacity:1;stroke:none"
     id="polygon42"
     transform="matrix(0.09923687,0,0,0.09923687,0,3.1448176)" />
  <polygon
     points="246.154,590.324 229.487,573.23 196.154,607.419 171.154,615.965 146.154,624.512 146.154,624.512 154.487,650.153 179.487,641.606 212.82,624.512 "
     style="fill:#c4c4c4;fill-opacity:1;stroke:none"
     id="polygon44"
     transform="matrix(0.09923687,0,0,0.09923687,0,3.1448176)" />
  <polygon
     points="845.606,411.692 805.77,428.039 757.967,444.384 726.099,452.557 686.263,468.903 686.263,468.903 662.362,493.422 646.429,509.769 638.462,534.288 654.395,542.461 662.362,526.114 678.297,509.769 694.231,485.25 734.066,468.903 765.934,460.731 813.736,452.557 853.572,428.039 861.539,419.865 "
     style="fill:#c4c4c4;fill-opacity:1;stroke:none"
     id="polygon46"
     transform="matrix(0.09923687,0,0,0.09923687,0,3.1448176)" />
  <polygon
     points="752.071,397.406 712.13,413.89 680.177,413.89 632.248,438.616 608.284,455.098 592.308,471.582 592.308,496.308 592.308,496.308 608.284,496.308 608.284,479.824 616.273,471.582 640.237,455.098 688.165,438.616 720.119,430.374 760.059,413.89 792.011,397.406 800,389.164 800,380.923 792.011,380.923 784.023,380.923 "
     style="fill:#c4c4c4;fill-opacity:1;stroke:none"
     id="polygon48"
     transform="matrix(0.09923687,0,0,0.09923687,0,3.1448176)" />
  <polygon
     points="707.122,350.153 675.214,374.768 635.327,391.179 603.419,391.179 579.487,399.384 555.555,407.59 555.555,407.59 531.624,423.999 515.67,448.615 507.692,473.23 523.647,473.23 531.624,456.819 547.578,440.41 571.51,423.999 611.396,415.794 643.305,407.59 683.191,382.974 723.077,366.564 723.077,358.359 "
     style="fill:#c4c4c4;fill-opacity:1;stroke:none"
     id="polygon50"
     transform="matrix(0.09923687,0,0,0.09923687,0,3.1448176)" />
  <polygon
     points="645.562,334.769 613.609,343.01 581.657,359.495 557.692,359.495 525.74,367.736 501.775,384.22 501.775,384.22 477.811,408.946 461.834,425.428 453.846,441.913 469.823,450.154 477.811,433.671 485.798,417.187 509.763,400.703 541.716,384.22 565.68,375.977 629.586,359.495 661.538,343.01 661.538,334.769 "
     style="fill:#c4c4c4;fill-opacity:1;stroke:none"
     id="polygon52"
     transform="matrix(0.09923687,0,0,0.09923687,0,3.1448176)" />
  <polygon
     points="661.538,596.307 669.23,603.999 669.23,603.999 "
     style="fill:#000000;fill-opacity:1;stroke:none"
     id="polygon54"
     transform="matrix(0.09923687,0,0,0.09923687,0,3.1448176)" />
  <polygon
     points="215.18,162.34 222.048,162.34 222.048,162.34 153.365,212.291 153.365,205.155 "
     style="fill:#853535;fill-opacity:1;stroke:none"
     id="polygon56"
     transform="matrix(0.09923687,0,0,0.09923687,0,3.1448176)" />
  <polygon
     points="153.365,212.291 222.048,162.34 222.048,162.34 "
     style="fill:#843535;fill-opacity:1;stroke:none"
     id="polygon58"
     transform="matrix(0.09923687,0,0,0.09923687,0,3.1448176)" />
  <polygon
     points="222.048,162.34 222.048,392.346 222.048,392.346 153.365,437.07 153.365,207.064 "
     style="fill:#843535;fill-opacity:1;stroke:none"
     id="polygon60"
     transform="matrix(0.09923687,0,0,0.09923687,0,3.1448176)" />
  <polygon
     points="209.56,162.34 209.56,398.613 209.56,398.613 140.877,443.313 140.877,207.041 "
     style="fill:#632727;fill-opacity:1;stroke:none"
     id="polygon62"
     transform="matrix(0.09923687,0,0,0.09923687,0,3.1448176)" />
  <polygon
     points="208.992,399.607 215.804,399.607 215.804,399.607 154.5,449.558 140.877,449.558 "
     style="fill:#602626;fill-opacity:1;stroke:none"
     id="polygon64"
     transform="matrix(0.09923687,0,0,0.09923687,0,3.1448176)" />
  <polygon
     points="209.56,393.363 209.56,400.388 209.56,400.388 140.877,449.558 140.877,442.533 "
     style="fill:#632727;fill-opacity:1;stroke:none"
     id="polygon66"
     transform="matrix(0.09923687,0,0,0.09923687,0,3.1448176)" />
  <polygon
     points="496.54,363.592 477.571,338.171 452.279,319.106 426.988,306.395 395.374,293.684 363.76,287.328 338.468,280.974 155.103,325.462 155.103,325.462 123.489,325.462 98.1977,338.171 72.9061,357.238 53.9374,382.659 41.2916,414.435 28.6458,439.857 16,471.634 16,497.056 16,636.872 515.509,636.872 515.509,414.435 509.186,389.014 "
     style="fill:#000000;fill-opacity:1;stroke:none"
     id="polygon68"
     transform="matrix(0.09923687,0,0,0.09923687,0,3.1448176)" />
  <polygon
     points="446.016,331.631 471.316,344.355 490.291,369.802 502.94,388.886 509.265,414.333 509.265,630.63 22.2439,630.63 22.2439,497.035 22.2439,497.035 28.5689,471.588 34.8938,439.779 47.5437,414.333 60.1936,388.886 85.4934,369.802 104.468,350.717 129.768,337.993 155.068,331.631 338.492,293.461 363.792,293.461 395.416,299.823 420.716,312.546 "
     style="fill:url(#linearGradient3748);fill-opacity:1;stroke:none"
     id="polygon70"
     transform="matrix(0.09923687,0,0,0.09923687,0,3.1448176)" />
  <polygon
     points="364.556,630.63 306.708,624.248 184.585,375.326 229.577,362.56 306.708,349.796 306.708,349.796 345.273,343.412 370.983,343.412 403.121,356.177 "
     style="fill:#ffffff;fill-opacity:1;stroke:none"
     id="polygon72"
     transform="matrix(0.09923687,0,0,0.09923687,0,3.1448176)" />
  <polygon
     points="253.267,374.929 253.267,374.929 345.051,362.143 318.827,445.247 384.388,630.63 279.491,630.63 299.159,445.247 "
     style="fill:#77aa00;fill-opacity:1;stroke:none"
     id="polygon74"
     transform="matrix(0.09923687,0,0,0.09923687,0,3.1448176)" />
  <polygon
     points="415.169,348.566 427.875,304.166 434.229,259.765 440.583,215.363 434.229,177.306 421.522,139.247 402.462,107.533 383.402,75.8183 351.634,50.4464 326.221,31.4171 288.102,18.7312 256.334,18.7312 218.213,18.7312 186.447,31.4171 154.68,44.1031 129.266,69.475 110.206,94.8468 91.1455,126.562 78.4387,158.277 78.4387,196.334 78.4387,196.334 84.7921,234.393 97.4983,272.451 116.559,310.509 141.973,348.566 173.739,373.938 211.86,399.31 243.627,411.996 281.748,418.339 313.515,418.339 338.928,411.996 364.342,399.31 383.402,380.282 "
     style="fill:#b2510f;fill-opacity:1;stroke:none"
     id="polygon76"
     transform="matrix(0.09923687,0,0,0.09923687,0,3.1448176)" />
  <polygon
     points="160.997,56.7059 192.794,37.667 218.233,31.3212 256.389,24.9755 288.187,31.3212 319.985,44.0136 351.781,56.7059 377.22,82.0914 396.298,113.822 415.377,145.554 428.096,177.285 428.096,215.361 428.096,253.44 421.737,297.863 402.658,342.286 377.22,374.018 358.142,393.056 339.063,405.749 313.625,412.095 281.828,412.095 281.828,412.095 250.029,405.749 211.873,393.056 180.075,367.671 148.277,335.94 122.839,304.21 103.761,272.478 91.042,234.401 84.6825,196.323 91.042,164.592 97.4008,132.861 116.48,101.13 135.559,75.7456 "
     style="fill:#ff9900;fill-opacity:1;stroke:none"
     id="polygon78"
     transform="matrix(0.09923687,0,0,0.09923687,0,3.1448176)" />
  <polygon
     points="78.654,235.738 91.357,280.337 110.412,305.823 116.763,312.193 123.114,312.193 123.114,305.823 116.763,286.708 116.763,273.965 116.763,267.594 123.114,261.223 148.52,261.223 167.575,267.594 180.279,273.965 186.63,267.594 199.333,242.109 212.036,222.995 224.739,210.253 275.551,222.995 320.012,222.995 358.122,216.623 383.527,216.623 421.637,203.881 427.987,197.51 434.339,178.397 434.339,140.168 427.987,121.055 421.637,95.5693 408.933,70.084 389.879,50.9707 389.879,50.9707 345.418,19.1132 288.255,0 256.497,0 231.09,0 199.333,6.37054 167.575,12.7419 142.169,25.4854 123.114,44.5986 104.06,63.7118 91.357,82.8266 72.3025,133.797 65.9509,178.397 "
     style="fill:#000000;fill-opacity:1;stroke:none"
     id="polygon80"
     transform="matrix(0.09923687,0,0,0.09923687,0,3.1448176)" />
  <polygon
     points="879.481,823.487 798.323,815.861 621.252,808.235 451.559,808.235 399.914,815.861 370.402,823.487 355.647,831.112 355.647,846.364 340.89,869.24 318.757,892.117 304,907.369 304,930.246 304,930.246 326.134,937.872 377.781,953.123 488.449,968.374 643.386,976 798.323,968.374 886.859,953.123 931.126,937.872 945.88,930.246 945.88,899.743 923.748,892.117 908.993,884.492 894.236,861.615 "
     style="fill:#000000;fill-opacity:1;stroke:none"
     id="polygon82"
     transform="matrix(0.09923687,0,0,0.09923687,0,3.1448176)" />
  <polygon
     points="887.529,814.696 880.133,762.178 865.338,717.163 835.751,679.651 806.164,642.138 761.784,612.128 739.592,597.122 710.005,589.62 621.243,582.118 576.862,582.118 539.878,589.62 502.894,597.122 480.702,612.128 436.322,634.635 406.735,672.148 406.735,672.148 391.94,694.655 384.544,717.163 369.75,762.178 362.353,814.696 362.353,822.198 443.718,829.702 525.085,837.204 621.243,844.706 717.401,837.204 798.768,829.702 880.133,822.198 887.529,822.198 "
     style="fill:#000000;fill-opacity:1;stroke:none"
     id="polygon84"
     transform="matrix(0.09923687,0,0,0.09923687,0,3.1448176)" />
  <polygon
     points="880.236,814.867 791.438,829.897 710.039,837.412 621.241,837.412 532.444,837.412 458.446,829.897 369.648,814.867 377.048,754.745 384.447,717.17 414.046,679.594 414.046,679.594 443.646,642.018 480.644,611.957 510.244,604.441 539.843,596.927 621.241,589.412 702.64,596.927 739.639,604.441 761.839,619.473 798.838,642.018 835.836,679.594 858.036,717.17 872.836,762.26 "
     style="fill:#aaaaaa;fill-opacity:1;stroke:none"
     id="polygon86"
     transform="matrix(0.09923687,0,0,0.09923687,0,3.1448176)" />
  <polygon
     points="555.649,785.987 578.052,793.647 645.262,793.647 682.6,785.987 705.004,778.329 712.472,763.012 712.472,755.352 705.004,740.036 690.068,724.717 667.665,694.082 637.794,678.765 615.391,678.765 600.454,686.424 585.52,686.424 563.116,678.765 533.244,648.13 518.308,640.471 503.373,640.471 503.373,640.471 473.502,640.471 451.098,655.788 436.163,671.105 421.227,686.424 406.292,709.4 398.824,740.036 398.824,770.67 413.76,778.329 458.566,778.329 503.373,778.329 518.308,778.329 533.244,785.987 "
     style="fill:#666666;fill-opacity:1;stroke:none"
     id="polygon88"
     transform="matrix(0.09923687,0,0,0.09923687,0,3.1448176)" />
  <polygon
     points="587.56,669.647 548.809,669.647 548.809,669.647 510.059,677.605 486.809,693.519 479.059,709.433 479.059,725.348 486.809,741.263 486.809,749.22 510.059,757.176 533.309,749.22 548.809,725.348 564.309,701.476 595.309,685.562 603.058,677.605 "
     style="fill:#e5f2ff;fill-opacity:1;stroke:none"
     id="polygon90"
     transform="matrix(0.09923687,0,0,0.09923687,0,3.1448176)" />
  <polygon
     points="595.765,487.294 595.765,545.647 639.529,545.647 639.529,487.294 630.776,487.294 630.776,487.294 "
     style="fill:#000000;fill-opacity:1;stroke:none"
     id="polygon92"
     transform="matrix(0.09923687,0,0,0.09923687,0,3.1448176)" />
  <polygon
     points="603.059,487.294 632.236,487.294 632.236,487.294 632.236,545.647 603.059,545.647 "
     style="fill:#8c8c8c;fill-opacity:1;stroke:none"
     id="polygon94"
     transform="matrix(0.09923687,0,0,0.09923687,0,3.1448176)" />
  <polygon
     points="621.294,618.589 638.314,618.589 646.824,610.382 646.824,552.941 638.314,552.941 638.314,552.941 595.765,552.941 595.765,610.382 604.275,618.589 "
     style="fill:#000000;fill-opacity:1;stroke:none"
     id="polygon96"
     transform="matrix(0.09923687,0,0,0.09923687,0,3.1448176)" />
  <polygon
     points="639.53,611.294 621.294,611.294 603.059,611.294 603.059,552.941 639.53,552.941 639.53,552.941 "
     style="fill:#8c8c8c;fill-opacity:1;stroke:none"
     id="polygon98"
     transform="matrix(0.09923687,0,0,0.09923687,0,3.1448176)" />
  <polygon
     points="639.53,604 646.824,611.294 646.824,611.294 "
     style="fill:#000000;fill-opacity:1;stroke:none"
     id="polygon100"
     transform="matrix(0.09923687,0,0,0.09923687,0,3.1448176)" />
  <polygon
     points="581.177,573 589.281,581.205 597.386,589.412 621.7,589.412 646.015,581.205 654.119,573 654.119,540.176 646.015,531.971 621.7,523.765 589.281,531.971 581.177,540.176 581.177,540.176 "
     style="fill:#000000;fill-opacity:1;stroke:none"
     id="polygon102"
     transform="matrix(0.09923687,0,0,0.09923687,0,3.1448176)" />
  <polygon
     points="646.824,539.569 646.824,573.608 638.487,573.608 621.815,582.118 596.807,582.118 588.471,573.608 588.471,539.569 596.807,539.569 621.815,531.059 621.815,531.059 638.487,539.569 "
     style="fill:#aaaaaa;fill-opacity:1;stroke:none"
     id="polygon104"
     transform="matrix(0.09923687,0,0,0.09923687,0,3.1448176)" />
  <polygon
     points="581.177,497.019 589.281,487.294 613.595,487.294 646.015,487.294 654.119,497.019 654.119,497.019 646.015,506.745 613.595,516.47 589.281,506.745 "
     style="fill:#555555;fill-opacity:1;stroke:none"
     id="polygon106"
     transform="matrix(0.09923687,0,0,0.09923687,0,3.1448176)" />
  <polygon
     points="581.177,489.725 581.177,499.451 597.386,509.176 613.595,509.176 637.91,509.176 654.119,499.451 654.119,489.725 654.119,480 637.91,480 613.595,480 597.386,480 581.177,480 581.177,489.725 "
     style="fill:#000000;fill-opacity:1;stroke:none"
     id="polygon108"
     transform="matrix(0.09923687,0,0,0.09923687,0,3.1448176)" />
  <polygon
     points="588.471,487.294 613.48,487.294 613.48,487.294 646.824,487.294 613.48,501.882 "
     style="fill:#aaaaaa;fill-opacity:1;stroke:none"
     id="polygon110"
     transform="matrix(0.09923687,0,0,0.09923687,0,3.1448176)" />
  <polygon
     points="714.154,611.294 706.299,611.294 698.444,611.294 690.589,619.631 698.444,627.966 729.865,644.639 761.285,652.976 784.851,669.647 792.706,669.647 769.14,644.639 737.72,619.631 729.865,611.294 714.154,611.294 "
     style="fill:#e5f2ff;fill-opacity:1;stroke:none"
     id="polygon112"
     transform="matrix(0.09923687,0,0,0.09923687,0,3.1448176)" />
  <polygon
     points="628.636,866.588 732.08,858.631 820.747,842.715 902.023,826.802 909.412,810.887 909.412,802.931 902.023,794.973 887.246,779.058 887.246,779.058 805.968,802.931 724.691,818.845 621.247,826.802 525.192,818.845 436.527,802.931 355.249,779.058 347.86,787.016 340.471,794.973 340.471,810.887 340.471,826.802 429.137,850.674 517.803,858.631 "
     style="fill:#333333;fill-opacity:1;stroke:none"
     id="polygon114"
     transform="matrix(0.09923687,0,0,0.09923687,0,3.1448176)" />
  <polygon
     points="347.766,810.666 347.766,794.458 355.156,786.353 443.853,810.666 525.159,826.876 621.246,834.98 621.246,834.98 724.726,826.876 806.03,810.666 887.336,786.353 894.727,794.458 902.119,810.666 902.119,818.771 813.422,843.084 732.117,851.189 628.637,859.294 525.159,859.294 436.462,843.084 347.766,818.771 "
     style="fill:#cccccc;fill-opacity:1;stroke:none"
     id="polygon116"
     transform="matrix(0.09923687,0,0,0.09923687,0,3.1448176)" />
  <polygon
     points="537.412,837.412 453.688,828.659 392.798,811.152 362.353,802.4 369.965,793.648 369.965,793.648 400.409,802.4 461.299,819.906 514.578,828.659 "
     style="fill:#e5f2ff;fill-opacity:1;stroke:none"
     id="polygon118"
     transform="matrix(0.09923687,0,0,0.09923687,0,3.1448176)" />
  <polygon
     points="708.326,842.621 566.588,859.294 626.267,859.294 730.707,850.958 835.144,825.95 894.823,809.277 879.904,800.941 879.904,800.941 827.685,817.613 775.465,834.285 "
     style="fill:#999999;fill-opacity:1;stroke:none"
     id="polygon120"
     transform="matrix(0.09923687,0,0,0.09923687,0,3.1448176)" />
  <polygon
     points="522.824,924.942 439.101,915.824 378.211,906.706 347.766,897.589 355.377,888.471 355.377,888.471 385.821,897.589 446.712,915.824 499.991,915.824 "
     style="fill:#bbbbbb;fill-opacity:1;stroke:none"
     id="polygon122"
     transform="matrix(0.09923687,0,0,0.09923687,0,3.1448176)" />
  <polygon
     points="528.556,822.824 552.001,822.824 552.001,813.097 552.001,813.097 528.556,813.097 489.479,803.372 442.589,793.648 497.296,813.097 "
     style="fill:#e5f2ff;fill-opacity:1;stroke:none"
     id="polygon124"
     transform="matrix(0.09923687,0,0,0.09923687,0,3.1448176)" />
</svg>
