<?xml version="1.0" encoding="UTF-8" standalone="no"?>

<svg
 xmlns:dc="http://purl.org/dc/elements/1.1/"
   xmlns:cc="http://creativecommons.org/ns#"
   xmlns:rdf="http://www.w3.org/1999/02/22-rdf-syntax-ns#"
   xmlns:svg="http://www.w3.org/2000/svg"
   xmlns="http://www.w3.org/2000/svg"
   xmlns:xlink="http://www.w3.org/1999/xlink"
   xmlns:sodipodi="http://sodipodi.sourceforge.net/DTD/sodipodi-0.dtd"
   xmlns:inkscape="http://www.inkscape.org/namespaces/inkscape"
   id="svg2"
   version="1.1"
   inkscape:version="0.47 r22583"
   width="100"
   height="100"
   sodipodi:docname="business_architecture.svg">
  <metadata
     id="metadata68">
    <rdf:RDF>
      <cc:Work
         rdf:about="">
        <dc:format>image/svg+xml</dc:format>
        <dc:type
           rdf:resource="http://purl.org/dc/dcmitype/StillImage" />
      </cc:Work>
    </rdf:RDF>
  </metadata>
  <defs
     id="defs66">
    <linearGradient
       inkscape:collect="always"
       id="linearGradient3680">
      <stop
         style="stop-color:#2d5a70;stop-opacity:1;"
         offset="0"
         id="stop3682" />
      <stop
         style="stop-color:#2d5a70;stop-opacity:0;"
         offset="1"
         id="stop3684" />
    </linearGradient>
    <linearGradient
       inkscape:collect="always"
       id="linearGradient3672">
      <stop
         style="stop-color:#567500;stop-opacity:1;"
         offset="0"
         id="stop3674" />
      <stop
         style="stop-color:#567500;stop-opacity:0;"
         offset="1"
         id="stop3676" />
    </linearGradient>
    <linearGradient
       inkscape:collect="always"
       id="linearGradient3664">
      <stop
         style="stop-color:#ff7711;stop-opacity:1;"
         offset="0"
         id="stop3666" />
      <stop
         style="stop-color:#ff7711;stop-opacity:0;"
         offset="1"
         id="stop3668" />
    </linearGradient>
    <linearGradient
       inkscape:collect="always"
       id="linearGradient3656">
      <stop
         style="stop-color:#ff7711;stop-opacity:1;"
         offset="0"
         id="stop3658" />
      <stop
         style="stop-color:#ff7711;stop-opacity:0;"
         offset="1"
         id="stop3660" />
    </linearGradient>
    <linearGradient
       inkscape:collect="always"
       id="linearGradient3648">
      <stop
         style="stop-color:#775599;stop-opacity:1;"
         offset="0"
         id="stop3650" />
      <stop
         style="stop-color:#775599;stop-opacity:0;"
         offset="1"
         id="stop3652" />
    </linearGradient>
    <inkscape:perspective
       sodipodi:type="inkscape:persp3d"
       inkscape:vp_x="0 : 0.5 : 1"
       inkscape:vp_y="0 : 1000 : 0"
       inkscape:vp_z="1 : 0.5 : 1"
       inkscape:persp3d-origin="0.5 : 0.33333333 : 1"
       id="perspective70" />
    <linearGradient
       inkscape:collect="always"
       xlink:href="#linearGradient3648"
       id="linearGradient3654"
       x1="15.625"
       y1="761.71899"
       x2="281.25"
       y2="761.71899"
       gradientUnits="userSpaceOnUse" />
    <linearGradient
       inkscape:collect="always"
       xlink:href="#linearGradient3656"
       id="linearGradient3662"
       x1="7.8125"
       y1="457.03201"
       x2="273.43799"
       y2="457.03201"
       gradientUnits="userSpaceOnUse" />
    <linearGradient
       inkscape:collect="always"
       xlink:href="#linearGradient3664"
       id="linearGradient3670"
       x1="367.18799"
       y1="531.25"
       x2="632.81299"
       y2="531.25"
       gradientUnits="userSpaceOnUse" />
    <linearGradient
       inkscape:collect="always"
       xlink:href="#linearGradient3672"
       id="linearGradient3678"
       x1="375"
       y1="246.09399"
       x2="640.625"
       y2="246.09399"
       gradientUnits="userSpaceOnUse" />
    <linearGradient
       inkscape:collect="always"
       xlink:href="#linearGradient3680"
       id="linearGradient3686"
       x1="487.81299"
       y1="962.12347"
       x2="1097.1899"
       y2="962.12347"
       gradientUnits="userSpaceOnUse" />
  </defs>
  <sodipodi:namedview
     pagecolor="#ffffff"
     bordercolor="#666666"
     borderopacity="1"
     objecttolerance="10"
     gridtolerance="10"
     guidetolerance="10"
     inkscape:pageopacity="0"
     inkscape:pageshadow="2"
     inkscape:window-width="1680"
     inkscape:window-height="994"
     id="namedview64"
     showgrid="false"
     inkscape:zoom="0.44851479"
     inkscape:cx="121.47918"
     inkscape:cy="620.10113"
     inkscape:window-x="-4"
     inkscape:window-y="-4"
     inkscape:window-maximized="1"
     inkscape:current-layer="svg2" />
  <polygon
     points="1007.81,1007.81 1007.81,1007.81 0,1007.81 0,0 1007.81,0 "
     style="fill:#ffffff;fill-opacity:0;stroke:none"
     id="polygon4"
     transform="matrix(0.08467566,0,0,0.08468333,0,4.8828124e-6)" />
  <polygon
     points="109.375,531.25 109.375,531.25 109.375,695.312 140.625,695.312 140.625,531.25 "
     style="fill:#000000;fill-opacity:1;stroke:none"
     id="polygon6"
     transform="matrix(0.08467566,0,0,0.08468333,0,4.8828124e-6)" />
  <polygon
     points="218.75,479.91 218.75,479.91 390.625,515.625 390.625,497.769 226.934,453.125 "
     style="fill:#000000;fill-opacity:1;stroke:none"
     id="polygon8"
     transform="matrix(0.08467566,0,0,0.08468333,0,4.8828124e-6)" />
  <polygon
     points="609.375,565.848 609.375,565.848 780.896,601.562 789.063,583.705 617.543,539.062 "
     style="fill:#000000;fill-opacity:1;stroke:none"
     id="polygon10"
     transform="matrix(0.08467566,0,0,0.08468333,0,4.8828124e-6)" />
  <polygon
     points="484.375,304.688 484.375,304.688 484.375,468.75 515.625,468.75 515.625,304.688 "
     style="fill:#000000;fill-opacity:1;stroke:none"
     id="polygon12"
     transform="matrix(0.08467566,0,0,0.08468333,0,4.8828124e-6)" />
  <polygon
     points="616.295,165.719 391.295,109.375 383.258,117.425 375.223,125.473 367.188,133.522 367.188,133.522 367.188,222.064 367.188,302.556 367.188,318.655 375.223,326.704 399.331,334.753 616.295,375 632.367,375 640.402,375 648.438,366.95 648.438,358.901 648.438,197.916 640.402,181.819 632.367,173.769 "
     style="fill:#465900;fill-opacity:1;stroke:none"
     id="polygon14"
     transform="matrix(0.08467566,0,0,0.08468333,0,4.8828124e-6)" />
  <polygon
     points="616.478,367.188 616.478,367.188 399.148,318.75 383.049,310.678 375,302.605 375,205.729 375,141.146 383.049,125 391.099,125 616.478,173.438 624.528,181.511 632.576,189.583 640.625,205.729 640.625,359.115 632.576,367.188 "
     style="fill:url(#linearGradient3678);fill-opacity:1;stroke:none"
     id="polygon16"
     transform="matrix(0.08467566,0,0,0.08468333,0,4.8828124e-6)" />
  <polygon
     points="256.92,681.108 31.9196,632.812 23.8839,632.812 15.8482,640.862 7.8125,656.96 7.8125,656.96 7.8125,737.452 7.8125,825.993 7.8125,834.043 15.8482,842.093 39.9554,850.142 256.92,898.437 272.991,898.437 281.027,890.387 289.063,882.339 289.063,874.29 289.063,721.354 281.027,705.256 272.991,689.157 "
     style="fill:#143a72;fill-opacity:1;stroke:none"
     id="polygon18"
     transform="matrix(0.08467566,0,0,0.08468333,0,4.8828124e-6)" />
  <polygon
     points="257.102,882.813 257.102,882.813 39.7727,842.449 23.6742,834.375 15.625,826.302 15.625,721.354 15.625,656.771 23.6742,640.625 31.7235,640.625 257.102,689.063 265.151,697.135 273.2,705.208 281.25,721.354 281.25,874.741 273.2,882.813 "
     style="fill:url(#linearGradient3654);fill-opacity:1;stroke:none"
     id="polygon20"
     transform="matrix(0.08467566,0,0,0.08468333,0,4.8828124e-6)" />
  <polygon
     points="32.1428,320.312 16.0714,328.362 8.0357,336.411 0,344.46 0,344.46 0,433.002 0,513.493 8.0357,529.593 16.0714,537.642 32.1428,545.69 257.142,585.937 265.178,585.937 281.25,585.937 281.25,569.839 281.25,408.854 281.25,392.756 265.178,384.706 249.107,376.657 "
     style="fill:#99460d;fill-opacity:1;stroke:none"
     id="polygon22"
     transform="matrix(0.08467566,0,0,0.08468333,0,4.8828124e-6)" />
  <polygon
     points="257.339,578.126 257.339,578.126 40.0095,529.689 15.8617,521.616 15.8617,513.542 7.8125,416.667 15.8617,352.083 23.911,335.938 31.9602,335.938 249.29,384.375 257.339,392.448 265.388,400.522 273.438,408.594 273.438,570.054 273.438,578.126 "
     style="fill:url(#linearGradient3662);fill-opacity:1;stroke:none"
     id="polygon24"
     transform="matrix(0.08467566,0,0,0.08468333,0,4.8828124e-6)" />
  <polygon
     points="983.914,548.639 1000,556.704 1000,572.832 1000,572.832 1000,726.059 1000,734.123 991.957,742.188 975.873,742.188 758.731,701.865 742.648,693.801 734.605,685.737 726.562,677.672 726.562,597.026 726.562,508.316 742.648,492.188 750.689,492.188 975.873,540.574 "
     style="fill:#ff7711;fill-opacity:1;stroke:none"
     id="polygon26"
     transform="matrix(0.08467566,0,0,0.08468333,0,4.8828124e-6)" />
  <polygon
     points="975.694,532.67 750.868,484.375 742.839,484.375 734.809,492.425 726.779,508.522 726.779,508.522 718.75,589.015 726.779,677.556 726.779,685.606 734.809,693.655 758.897,701.704 975.694,750 991.753,750 999.783,741.95 1007.81,733.901 1007.81,725.852 1007.81,572.916 999.783,556.819 991.753,540.719 "
     style="fill:#99460d;fill-opacity:1;stroke:none"
     id="polygon28"
     transform="matrix(0.08467566,0,0,0.08468333,0,4.8828124e-6)" />
  <polygon
     points="976.074,734.376 976.074,734.376 758.544,694.012 742.432,685.939 734.375,677.866 734.375,572.917 734.375,508.333 742.432,500.26 750.488,492.188 968.018,548.698 984.13,548.698 992.187,556.772 992.187,572.917 992.187,726.304 992.187,734.376 "
     style="fill:#ff7711;fill-opacity:1;stroke:none"
     id="polygon30"
     transform="matrix(0.08467566,0,0,0.08468333,0,4.8828124e-6)" />
  <polygon
     points="632.813,664.063 632.813,664.063 367.188,607.718 367.188,398.438 632.813,462.832 "
     style="fill:#ff7711;fill-opacity:1;stroke:none"
     id="polygon32"
     transform="matrix(0.08467566,0,0,0.08468333,0,4.8828124e-6)" />
  <polygon
     points="608.482,446.733 383.482,398.438 375.446,406.487 367.411,406.487 359.375,422.585 359.375,422.585 359.375,503.078 359.375,591.62 359.375,599.669 367.411,607.718 391.518,615.767 608.482,664.063 624.555,664.063 632.59,656.014 640.625,647.964 640.625,639.915 640.625,486.979 632.59,470.881 624.555,454.782 "
     style="fill:#99460d;fill-opacity:1;stroke:none"
     id="polygon34"
     transform="matrix(0.08467566,0,0,0.08468333,0,4.8828124e-6)" />
  <polygon
     points="608.665,656.25 608.665,656.25 391.335,607.862 375.237,599.798 367.188,591.734 367.188,486.895 367.188,422.379 375.237,414.314 383.285,406.25 600.616,462.702 616.714,470.766 624.764,478.83 632.813,486.895 632.813,648.185 624.764,648.185 "
     style="fill:url(#linearGradient3670);fill-opacity:1;stroke:none"
     id="polygon36"
     transform="matrix(0.08467566,0,0,0.08468333,0,4.8828124e-6)" />
  <polygon
     points="737.813,587.124 737.813,587.124 651.875,649.624 651.875,640.696 729.219,587.124 "
     style="fill:#853535;fill-opacity:1;stroke:none"
     id="polygon38"
     transform="matrix(0.08467566,0,0,0.08468333,0,4.8828124e-6)" />
  <polygon
     points="737.813,587.124 737.813,587.124 651.875,649.624 "
     style="fill:#843535;fill-opacity:1;stroke:none"
     id="polygon40"
     transform="matrix(0.08467566,0,0,0.08468333,0,4.8828124e-6)" />
  <polygon
     points="737.813,874.914 737.813,874.914 651.875,930.874 651.875,643.084 737.813,587.124 "
     style="fill:#843535;fill-opacity:1;stroke:none"
     id="polygon42"
     transform="matrix(0.08467566,0,0,0.08468333,0,4.8828124e-6)" />
  <polygon
     points="722.188,882.756 722.188,882.756 636.25,938.686 636.25,643.055 722.188,587.124 "
     style="fill:#632727;fill-opacity:1;stroke:none"
     id="polygon44"
     transform="matrix(0.08467566,0,0,0.08468333,0,4.8828124e-6)" />
  <polygon
     points="730,884 730,884 653.295,946.5 636.25,946.5 721.477,884 "
     style="fill:#602626;fill-opacity:1;stroke:none"
     id="polygon46"
     transform="matrix(0.08467566,0,0,0.08468333,0,4.8828124e-6)" />
  <polygon
     points="722.188,884.977 722.188,884.977 636.25,946.5 636.25,937.71 722.188,876.187 "
     style="fill:#632727;fill-opacity:1;stroke:none"
     id="polygon48"
     transform="matrix(0.08467566,0,0,0.08468333,0,4.8828124e-6)" />
  <polygon
     points="1057.53,807.129 1025.89,783.274 994.24,767.37 954.683,751.466 915.127,743.513 883.481,735.562 654.05,791.227 654.05,791.227 614.493,791.227 582.848,807.129 551.202,830.986 527.468,862.794 511.645,902.553 495.823,934.361 480,974.122 480,1005.93 480,1180.87 1105,1180.87 1105,902.553 1097.09,870.745 1081.26,838.937 "
     style="fill:#000000;fill-opacity:1;stroke:none"
     id="polygon50"
     transform="matrix(0.08467566,0,0,0.08468333,0,4.8828124e-6)" />
  <polygon
     points="1049.7,814.866 1073.45,846.706 1089.27,870.585 1097.19,902.425 1097.19,1173.06 487.813,1173.06 487.813,1005.9 487.813,1005.9 495.726,974.064 503.64,934.264 519.468,902.425 535.296,870.585 566.952,846.706 590.694,822.827 622.35,806.906 654.006,798.946 883.511,751.187 915.167,751.187 954.736,759.147 986.392,775.066 1018.05,798.946 "
     style="fill:url(#linearGradient3686);fill-opacity:1;stroke:none"
     id="polygon52"
     transform="matrix(0.08467566,0,0,0.08468333,0,4.8828124e-6)" />
  <polygon
     points="843.742,1165.08 690.938,853.618 747.234,837.645 843.742,821.674 843.742,821.674 891.996,813.687 924.165,813.687 964.376,829.659 916.123,1173.06 "
     style="fill:#ffffff;fill-opacity:1;stroke:none"
     id="polygon54"
     transform="matrix(0.08467566,0,0,0.08468333,0,4.8828124e-6)" />
  <polygon
     points="776.875,853.122 891.718,837.124 858.906,941.105 940.937,1173.06 809.687,1173.06 834.296,941.105 776.875,853.122 "
     style="fill:#77aa00;fill-opacity:1;stroke:none"
     id="polygon56"
     transform="matrix(0.08467566,0,0,0.08468333,0,4.8828124e-6)" />
  <polygon
     points="995.35,764.581 1003.3,709.025 1011.25,653.468 1003.3,605.85 987.401,558.23 963.552,518.548 939.704,478.866 899.955,447.12 868.157,423.31 820.461,407.437 780.712,407.437 733.015,407.437 693.268,423.31 653.52,439.183 621.721,470.929 597.873,502.675 574.024,542.358 558.125,582.04 558.125,629.659 558.125,629.659 566.075,677.279 581.973,724.898 605.822,772.517 637.621,820.136 677.368,851.882 725.066,883.628 764.813,899.501 812.511,907.437 852.259,907.437 884.057,899.501 915.855,883.628 939.704,859.819 979.452,820.136 "
     style="fill:#b2510f;fill-opacity:1;stroke:none"
     id="polygon58"
     transform="matrix(0.08467566,0,0,0.08468333,0,4.8828124e-6)" />
  <polygon
     points="701.21,431.13 733.039,423.19 780.782,415.25 820.568,423.19 860.354,439.071 900.139,454.952 931.968,486.715 955.84,526.417 979.712,566.121 995.626,605.824 995.626,653.466 995.626,701.111 987.669,756.695 963.797,812.278 931.968,851.982 908.097,875.803 884.226,891.685 852.397,899.625 812.611,899.625 812.611,899.625 772.824,891.685 725.082,875.803 685.295,844.04 645.509,804.338 613.68,764.636 589.809,724.932 573.895,677.289 565.938,629.645 573.895,589.942 581.851,550.239 605.723,510.537 629.596,478.775 661.424,454.952 "
     style="fill:#ff9900;fill-opacity:1;stroke:none"
     id="polygon60"
     transform="matrix(0.08467566,0,0,0.08468333,0,4.8828124e-6)" />
  <polygon
     points="574.289,734.766 598.131,766.654 606.078,774.625 614.024,774.625 614.024,766.654 606.078,742.737 606.078,726.793 606.078,718.821 614.024,710.849 645.813,710.849 669.655,718.821 685.55,726.793 693.497,718.821 709.391,686.933 725.286,663.018 741.18,647.074 804.757,663.018 860.388,663.018 908.072,655.045 939.86,655.045 987.544,639.102 995.49,631.13 1003.44,607.215 1003.44,559.382 995.49,535.467 987.544,503.579 971.649,471.691 947.808,447.776 947.808,447.776 892.177,407.915 820.653,384 780.916,384 749.127,384 709.391,391.971 669.655,399.943 637.866,415.888 614.024,439.803 590.183,463.718 574.289,487.635 550.447,551.41 542.5,607.215 558.394,678.962 "
     style="fill:#000000;fill-opacity:1;stroke:none"
     id="polygon62"
     transform="matrix(0.08467566,0,0,0.08468333,0,4.8828124e-6)" />
</svg>
