<?xml version="1.0" encoding="UTF-8" standalone="no"?>
<svg
   xmlns:dc="http://purl.org/dc/elements/1.1/"
   xmlns:cc="http://creativecommons.org/ns#"
   xmlns:rdf="http://www.w3.org/1999/02/22-rdf-syntax-ns#"
   xmlns:svg="http://www.w3.org/2000/svg"
   xmlns="http://www.w3.org/2000/svg"
   xmlns:xlink="http://www.w3.org/1999/xlink"
   xmlns:sodipodi="http://sodipodi.sourceforge.net/DTD/sodipodi-0.dtd"
   xmlns:inkscape="http://www.inkscape.org/namespaces/inkscape"
   id="svg2"
   height="219"
   width="219"
   version="1.1"
   y="0px"
   x="0px"
   inkscape:version="0.47 r22583"
   sodipodi:docname="businessfunction.svg">
  <sodipodi:namedview
     pagecolor="#ffffff"
     bordercolor="#666666"
     borderopacity="1"
     objecttolerance="10"
     gridtolerance="10"
     guidetolerance="10"
     inkscape:pageopacity="0"
     inkscape:pageshadow="2"
     inkscape:window-width="1280"
     inkscape:window-height="778"
     id="namedview50"
     showgrid="false"
     inkscape:zoom="2.4246575"
     inkscape:cx="45.161017"
     inkscape:cy="109.5"
     inkscape:window-x="-8"
     inkscape:window-y="216"
     inkscape:window-maximized="1"
     inkscape:current-layer="svg2" />
  <defs
     id="defs4">
    <inkscape:perspective
       sodipodi:type="inkscape:persp3d"
       inkscape:vp_x="0 : 109.5 : 1"
       inkscape:vp_y="0 : 1000 : 0"
       inkscape:vp_z="219 : 109.5 : 1"
       inkscape:persp3d-origin="109.5 : 73 : 1"
       id="perspective52" />
    <linearGradient
       id="linearGradient3078"
       y2="161"
       gradientUnits="userSpaceOnUse"
       x2="140"
       gradientTransform="translate(-34.521512,798.01192)"
       y1="87.4"
       x1="136">
      <stop
         id="stop13"
         stop-color="#FFF"
         offset="0.298" />
      <stop
         id="stop15"
         stop-color="#FFF"
         offset="0.596" />
      <stop
         id="stop17"
         stop-color="#EEE7E5"
         offset="0.904" />
    </linearGradient>
    <radialGradient
       id="radialGradient3080"
       gradientUnits="userSpaceOnUse"
       cy="63.8"
       cx="83.2"
       gradientTransform="matrix(0.8744,0,0,0.8744,-19.068612,823.33972)"
       r="61.4">
      <stop
         id="stop20"
         stop-color="#FFF"
         offset="0.157" />
      <stop
         id="stop22"
         stop-color="#724548"
         offset="0.899" />
    </radialGradient>
    <filter
       id="filter3340-1"
       color-interpolation-filters="sRGB">
      <feGaussianBlur
         id="feGaussianBlur9"
         stdDeviation="3.9590909" />
    </filter>
    <radialGradient
       id="radialGradient3739"
       gradientUnits="userSpaceOnUse"
       cy="456"
       cx="-81.6"
       gradientTransform="matrix(0.17966648,0.02687068,-0.02894857,0.19245289,121.85654,90.912594)"
       r="149">
      <stop
         id="stop66"
         stop-color="#488d8d"
         offset="0" />
      <stop
         id="stop68"
         stop-color="#ede3d0"
         offset="0.5" />
      <stop
         id="stop70"
         stop-color="#d59f0f"
         offset="1" />
    </radialGradient>
    <radialGradient
       id="radialGradient3745"
       gradientUnits="userSpaceOnUse"
       cy="390"
       cx="380"
       gradientTransform="matrix(0.24044949,-0.02726744,0.02910492,0.2566523,54.578772,63.277619)"
       r="149">
      <stop
         id="stop54"
         stop-color="#bedcdc"
         offset="0" />
      <stop
         id="stop56"
         stop-opacity="0.74149668"
         stop-color="#8e9e9e"
         offset="0.5" />
      <stop
         id="stop58"
         stop-opacity="0.8392157"
         stop-color="#404f5c"
         offset="1" />
    </radialGradient>
    <radialGradient
       id="radialGradient3749"
       gradientUnits="userSpaceOnUse"
       cy="179"
       cx="176"
       gradientTransform="matrix(-0.57132445,-0.36781052,0.47309866,-0.73486972,223.21117,372.68023)"
       r="64.8">
      <stop
         id="stop61"
         stop-color="#993"
         offset="0" />
      <stop
         id="stop63"
         stop-color="#cccc64"
         offset="1" />
    </radialGradient>
    <inkscape:perspective
       id="perspective2839"
       inkscape:persp3d-origin="0.5 : 0.33333333 : 1"
       inkscape:vp_z="1 : 0.5 : 1"
       inkscape:vp_y="0 : 1000 : 0"
       inkscape:vp_x="0 : 0.5 : 1"
       sodipodi:type="inkscape:persp3d" />
    <radialGradient
       inkscape:collect="always"
       xlink:href="#radialGradient3080"
       id="radialGradient3654"
       gradientUnits="userSpaceOnUse"
       gradientTransform="matrix(1.2963671,0,0,1.2963671,-74.099328,-43.427621)"
       cx="83.2"
       cy="63.8"
       r="61.4" />
    <linearGradient
       inkscape:collect="always"
       xlink:href="#linearGradient3078"
       id="linearGradient3663"
       gradientUnits="userSpaceOnUse"
       gradientTransform="matrix(1.482579,0,0,1.482579,-97.009473,-80.978086)"
       x1="136"
       y1="87.4"
       x2="140"
       y2="161" />
  </defs>
  <metadata
     id="metadata43">
    <rdf:RDF>
      <cc:Work
         rdf:about="">
        <dc:format>image/svg+xml</dc:format>
        <dc:type
           rdf:resource="http://purl.org/dc/dcmitype/StillImage" />
        <dc:title />
      </cc:Work>
    </rdf:RDF>
  </metadata>
  <path
     style="fill:#919090"
     d="m 67.885205,42.058299 c 1.103039,4.210524 6.137877,4.002963 7.828017,2.520384 1.527057,-1.346181 0.573758,-5.500368 0.524833,-5.796884 0,0 9.310597,-14.796138 33.951055,-14.425493 20.60785,0.312824 29.79984,8.806519 32.91326,14.188281 0,0 -1.82357,7.872494 5.07042,6.404741 9.77019,-2.090436 -9.69607,-28.317259 -38.3988,-28.317259 -26.538162,-0.05189 -43.884336,18.235722 -41.956983,25.500359 z"
     id="path49" />
  <path
     style="fill:#7c7c7c;stroke:none"
     d="m 69.367784,42.058299 c 0.865826,2.475907 4.077093,2.831726 5.085246,1.764269 1.255745,-1.318013 0.278725,-4.566343 0.83914,-5.81171 0,0 10.763524,-15.715337 34.84061,-15.270563 19.12527,0.296515 32.76499,11.297252 34.24757,16.160111 0,0 -0.97405,7.828017 3.76575,5.411413 C 154.10607,41.272532 135.21801,19.55275 110.19208,19.404492 85.136495,19.274025 67.79032,37.640214 69.272899,42.087951 z"
     id="path51" />
  <path
     style="fill:#8e8682"
     d="m 209.17498,179.93815 c 0,7.39807 -6.18235,13.38768 -13.81763,13.38768 H 23.378184 c -7.620456,0 -13.8176366,-5.98961 -13.8176366,-13.38768 V 79.864063 c 0,-7.398069 6.1971806,-13.387688 13.8176366,-13.387688 H 195.35735 c 7.63528,0 13.81763,6.004445 13.81763,13.387688 V 179.93815 z"
     id="path53" />
  <path
     style="fill:url(#linearGradient3663);stroke:none"
     d="m 206.20983,176.97299 c 0,7.1312 -6.01927,12.91326 -13.447,12.91326 H 26.713986 c -7.42772,0 -13.446991,-5.78206 -13.446991,-12.91326 V 80.308837 c 0,-7.131205 6.019271,-12.928089 13.446991,-12.928089 H 192.76283 c 7.42773,0 13.447,5.782058 13.447,12.928089 v 96.664153 z"
     id="path55" />
  <path
     style="fill:#c1c1c1;stroke:none"
     d="m 203.24467,174.00783 c 0,6.79021 -5.81171,12.30541 -13.00222,12.30541 H 28.641339 c -7.175682,0 -13.002218,-5.5152 -13.002218,-12.30541 V 81.939674 c 0,-6.805038 5.826536,-12.305406 13.002218,-12.305406 H 190.24245 c 7.19051,0 13.00222,5.515194 13.00222,12.305406 v 92.068156 z"
     id="path57" />
  <path
     style="opacity:0.43999999;fill:#8e8682"
     d="M 189.90146,70.2273 H 155.9504 c -2.62417,32.02371 1.60118,55.74497 -21.64566,87.91693 -14.97404,25.64862 -45.070397,22.83172 -64.195666,28.76204 H 189.90146 c 7.19051,0 13.00221,-5.5152 13.00221,-12.30541 V 82.532706 c 0,-6.805038 -5.8117,-12.305406 -13.00221,-12.305406 z"
     id="path59" />
  <path
     style="fill:#5b5b5b"
     d="m 207.6924,111.73951 c 4.55152,-1.66049 4.41809,-4.89251 4.41809,-7.75389 V 50.019748 c 0,-2.861377 -3.43958,-5.1742 -7.67976,-5.1742 H 14.660619 c -4.240176,0 -7.679759,3.365454 -7.679759,6.226831 v 55.448451 c 0,2.86138 0.8465526,5.08525 5.678278,6.4937 0,0 34.54409,6.10823 99.036272,6.10823 64.64045,0 95.92287,-7.38325 95.92287,-7.38325 z"
     id="path61" />
  <path
     style="fill:#d8d8d8;stroke:none"
     d="m 204.72725,110.25693 c 4.40326,-1.5567 4.26982,-4.56634 4.26982,-7.23498 V 52.762519 c 0,-2.668642 -3.3358,-4.833207 -7.44254,-4.833207 H 17.714732 c -4.106744,0 -7.427721,3.143067 -7.427721,5.81171 v 51.593748 c 0,2.66864 0.816901,4.74425 5.485542,6.06375 0,0 33.358028,5.70793 95.922857,5.70793 62.56484,0 92.80945,-6.87917 92.80945,-6.87917 z"
     id="path63" />
  <path
     style="opacity:0.6;fill:#5b5b5b"
     d="m 200.27951,47.988615 h -41.95699 c -1.8977,21.942169 -2.63899,44.180854 -8.31726,64.640445 35.87841,-1.7791 53.37284,-5.60415 53.37284,-5.60415 4.32913,-1.47665 4.1957,-4.32913 4.1957,-6.84951 V 52.58461 c 0,-2.520384 -3.26168,-4.566343 -7.29429,-4.566343 z"
     id="path65" />
  <path
     style="fill:#f0f0f0;stroke:none"
     d="M 200.27951,47.988615 H 20.887451 c -3.988138,0 -7.22016,1.882875 -7.22016,2.727945 v 3.2765 c 0,-0.853966 3.232022,-1.541882 7.22016,-1.541882 H 198.79693 c 3.98814,0 7.22016,0.695329 7.22016,1.541882 v -3.291325 c 0,-1.482579 -2.96516,-2.965158 -7.41289,-2.965158 z"
     id="path67" />
  <path
     style="opacity:0.70999995;fill:url(#radialGradient3654)"
     d="M 14.067588,95.431143 V 54.215447 H 143.34848 c 0,0 -109.71085,-1.108969 -129.280892,41.215696 z"
     id="path69" />
  <path
     style="opacity:0.70999995;fill:#a2a2a2"
     d="M 14.067588,95.431143 V 54.215447 H 143.34848 c 0,0 -109.71085,-1.108969 -129.280892,41.215696 z"
     id="path71" />
  <path
     style="fill:#4f4f4f"
     d="m 123.1854,136.94335 c 0,3.42476 -2.43143,6.21201 -5.42624,6.21201 H 103.5264 c -2.99481,0 -5.426235,-2.78725 -5.426235,-6.21201 v -28.169 c 0,-3.42475 2.431425,-6.212 5.426235,-6.212 h 14.23276 c 2.99481,0 5.42624,2.78725 5.42624,6.212 v 28.169 z"
     id="path73" />
  <path
     style="fill:#bcbcbc"
     d="m 121.70282,135.46078 c 0,2.95033 -2.09043,5.33728 -4.6553,5.33728 h -12.23127 c -2.57969,0 -4.6553,-2.38695 -4.6553,-5.33728 v -24.16604 c 0,-2.95033 2.07561,-5.33729 4.6553,-5.33729 h 12.23127 c 2.57969,0 4.6553,2.38696 4.6553,5.33729 v 24.16604 z"
     id="path75" />
  <path
     style="fill:#4f4f4f"
     d="m 98.129817,126.5653 25.055583,0 v 4.92216 H 98.129817 v -4.92216 z"
     id="rect77" />
  <path
     style="color:#000000;fill:#775919;fill-opacity:1;fill-rule:nonzero;stroke:#2b2b2b;stroke-width:0.5;stroke-linecap:butt;stroke-linejoin:miter;stroke-miterlimit:4;stroke-opacity:1;stroke-dasharray:none;stroke-dashoffset:0;marker:none;visibility:visible;display:inline;overflow:visible;enable-background:accumulate"
     d="m 184.04413,119.74355 c -17.24833,-16.99402 -45.00869,-16.78786 -62.00272,0.46048 -16.99404,17.24836 -16.78785,45.00869 0.46049,62.00272 17.24835,16.99404 45.00868,16.78787 62.00271,-0.46048 16.99404,-17.24835 16.78787,-45.00868 -0.46048,-62.00272 z m -21.92744,22.92348 c 4.99977,4.92606 5.03738,12.96483 0.11132,17.9646 -4.92606,4.99978 -12.9645,5.08158 -17.96427,0.15551 -4.99979,-4.92605 -5.05966,-12.98674 -0.13359,-17.98653 4.92606,-4.99977 12.98676,-5.05963 17.98654,-0.13358 z"
     id="path4151" />
  <path
     style="color:#000000;fill:#8d6a1e;fill-opacity:1;fill-rule:nonzero;stroke:#2b2b2b;stroke-width:0.5;stroke-miterlimit:4;stroke-opacity:1;stroke-dasharray:none;marker:none;visibility:visible;display:inline;overflow:visible;enable-background:accumulate"
     d="m 159.59641,113.44912 -5.45978,21.95635 c -5.0522,-0.36579 -9.89404,1.68648 -13.17362,5.32203 l -19.20572,-11.98895 -2.94994,4.74073 19.20571,11.98896 c -0.27784,0.6909 -0.54763,1.42533 -0.73246,2.16859 -1.05497,4.24257 -0.28094,8.49017 1.75073,11.99574 l -17.34571,14.58911 3.5752,4.2702 17.3457,-14.58911 c 1.82942,1.53951 4.00759,2.70323 6.48443,3.31913 2.47685,0.61591 4.9767,0.61545 7.31412,0.11208 l 8.46211,21.0066 5.18915,-2.09081 -8.49997,-20.98382 c 3.45771,-2.14391 6.11347,-5.54895 7.17279,-9.80898 0.18482,-0.74326 0.29033,-1.51854 0.36854,-2.25908 l 22.58413,-1.5973 -0.41629,-5.5778 -22.55381,1.60484 c -1.19135,-4.7551 -4.53661,-8.83444 -9.17698,-10.87984 l 5.45977,-21.95635 -5.3981,-1.34232 z m -3.46173,25.70557 c 6.81139,1.69375 10.93706,8.59317 9.24331,15.40456 -1.69376,6.8114 -8.57039,10.97493 -15.38178,9.28117 -6.81139,-1.69375 -10.96739,-8.6007 -9.27363,-15.4121 1.69375,-6.81139 8.60071,-10.96739 15.41211,-9.27363 z"
     id="path3270" />
  <path
     style="fill:#be8f28;fill-opacity:1;stroke:#000000;stroke-width:0.37663165;stroke-miterlimit:4;stroke-opacity:1;stroke-dasharray:none"
     d="m 155.0924,86.263013 -1.95378,4.778514 -0.3531,2.024395 0.0235,2.754119 -6.23797,0.400172 -0.32955,-2.73058 -0.61203,-1.977316 -2.54226,-4.496041 -4.14295,0.800343 -0.70619,5.108066 0.16478,2.047935 0.70618,2.6835 -5.95549,1.930234 -0.98865,-2.5658 -1.08281,-1.789 -3.578,-3.695698 -3.8134,1.789001 0.58849,5.131606 0.6591,1.953767 1.34175,2.40103 -5.27284,3.34261 -1.60069,-2.23625 -1.48298,-1.43591 -4.40189,-2.707036 -3.24844,2.683496 1.83608,4.82559 1.15343,1.71838 1.88316,2.00086 -4.28419,4.56666 -2.09501,-1.76546 -1.81254,-1.03574 -4.91975,-1.53007 -2.47164,3.41323 2.96597,4.21357 1.53007,1.38882 2.35394,1.45945 -3.01305,5.4847 -2.49518,-1.20051 -2.00086,-0.54141 -5.1316,-0.25894 -1.55361,3.9311 3.90755,3.31906 1.83608,0.96512 2.63642,0.84742 -1.5536,6.04964 -2.70704,-0.5414 -2.07148,-0.0235 -5.06098,1.03573 -0.51787,4.1665 4.63727,2.25978 2.0244,0.49434 2.73058,0.14123 0,6.2615 -2.73058,0.14123 -2.0244,0.49434 -4.63727,2.25978 0.51787,4.19003 5.06098,1.0122 2.07148,-0.0235 2.70704,-0.5414 1.5536,6.04964 -2.63642,0.84742 -1.83608,0.96512 -3.90755,3.3426 1.55361,3.90756 5.1316,-0.25894 2.00086,-0.5414 2.49518,-1.17698 3.01305,5.46116 -2.35394,1.45945 -1.53007,1.41236 -2.96597,4.19003 2.47164,3.41323 4.91975,-1.53007 1.81254,-1.0122 2.09501,-1.78899 4.28419,4.56665 -1.88316,2.00085 -1.15343,1.71839 -1.83608,4.82559 3.24844,2.68351 4.40189,-2.70705 1.48298,-1.43591 1.60069,-2.23624 5.27284,3.3426 -1.34175,2.40103 -0.6591,1.97731 -0.58849,5.10807 3.8134,1.789 3.578,-3.6957 1.08281,-1.76546 0.98865,-2.5658 5.95549,1.93024 -0.70618,2.65995 -0.16478,2.07148 0.70619,5.08453 4.14295,0.80034 2.54226,-4.49604 0.61203,-1.97732 0.32955,-2.73058 6.23797,0.40017 -0.0235,2.75412 0.3531,2.04794 1.95377,4.75497 4.21357,-0.25893 1.34175,-4.99037 0.1177,-2.07147 -0.37663,-2.73058 6.1438,-1.15344 0.65911,2.65996 0.87095,1.9067 3.06013,4.11941 4.02526,-1.29467 0.0705,-5.15515 -0.42371,-2.04794 -1.03574,-2.54226 5.64948,-2.65996 1.31821,2.42457 1.29467,1.62422 4.00171,3.22491 3.578,-2.25979 -1.22405,-5.01391 -0.91804,-1.85962 -1.62423,-2.21271 4.80206,-3.97817 1.88315,2.00086 1.64777,1.24759 4.70789,2.1421 2.87183,-3.08368 -2.42458,-4.54312 -1.34174,-1.57715 -2.11856,-1.74192 3.67216,-5.03744 2.30687,1.48299 1.9067,0.80033 5.08453,0.89451 2.02439,-3.6957 -3.48384,-3.8134 -1.69485,-1.17697 -2.49518,-1.15344 2.30687,-5.81425 2.61288,0.87096 2.04793,0.28248 5.13161,-0.40017 1.05928,-4.07233 -4.30773,-2.82474 -1.95376,-0.72972 -2.70705,-0.49433 0.77681,-6.19089 2.75412,0.18832 2.07147,-0.2354 4.87267,-1.64775 0,-4.23711 -4.87267,-1.64777 -2.07147,-0.21185 -2.75412,0.18831 -0.77681,-6.21442 2.70705,-0.49433 1.95376,-0.72972 4.30773,-2.82474 -1.05928,-4.07232 -5.13161,-0.40018 -2.04793,0.30601 -2.61288,0.84742 -2.30687,-5.7907 2.49518,-1.17698 1.69485,-1.17697 3.48384,-3.8134 -2.02439,-3.69569 -5.08453,0.91804 -1.9067,0.7768 -2.30687,1.50653 -3.67216,-5.06099 2.11856,-1.74192 1.34174,-1.57715 2.42458,-4.54312 -2.87183,-3.08367 -4.70789,2.14209 -1.64777,1.24759 -1.88315,2.00086 -4.80206,-3.97817 1.62423,-2.21271 0.91804,-1.85962 1.22405,-5.013905 -3.578,-2.25979 -4.00171,3.248448 -1.29467,1.600677 -1.31821,2.42457 -5.64948,-2.659956 1.03574,-2.542265 0.42371,-2.047934 -0.0705,-5.131607 -4.02526,-1.318211 -3.06013,4.142948 -0.87095,1.883159 -0.65911,2.659961 -6.1438,-1.153435 0.37663,-2.730579 -0.1177,-2.071474 -1.34175,-4.99037 -4.21357,-0.258934 z m -1.81255,26.623147 c 21.03965,0 38.08688,17.04723 38.08688,38.08687 0,21.03965 -17.04722,38.08688 -38.08688,38.08688 -21.03964,0 -38.11041,-17.04723 -38.11041,-38.08688 0,-21.03964 17.07077,-38.08687 38.11041,-38.08687 z"
     id="path2943" />
  <g
     transform="translate(1.9917602,0.2251538)"
     id="SmallGear">
    <path
       id="spokes"
       d="m 80.46875,163.8125 -6.5,2.625 6.0625,14.9375 c -0.636824,0.8482 -1.069756,1.84626 -1.25,2.9375 l -14.96875,6.0625 2.625,6.5 14.9375,-6.0625 c 0.854436,0.64318 1.867417,1.07124 2.96875,1.25 l 6.0625,14.96875 6.5,-2.625 -6.0625,-14.96875 c 0.634652,-0.85197 1.07448,-1.84294 1.25,-2.9375 l 14.9375,-6.0625 -2.625,-6.46875 L 89.46875,180 c -0.845234,-0.63018 -1.852719,-1.0714 -2.9375,-1.25 l -6.0625,-14.9375 z m 4.96875,18.59375 c 1.665947,0 3,1.33406 3,3 0,1.66595 -1.334053,3.03125 -3,3.03125 -1.665947,0 -3.03125,-1.3653 -3.03125,-3.03125 0,-1.66594 1.365303,-3 3.03125,-3 z"
       style="color:#000000;fill:#684e16;fill-opacity:1;stroke:#000000" />
    <path
       d="m 71.353709,156.14116 -2.721509,1.43873 0.580081,4.18159 0.392401,0.88628 1.622875,2.34355 -3.741544,3.16642 -2.02772,-2.01111 -0.826259,-0.54209 -3.991947,-1.28347 -1.916625,2.42774 2.225681,3.58292 0.733841,0.64693 2.42015,1.48143 -2.129027,4.40164 -2.684986,-0.96968 -0.952467,-0.18758 -4.199533,0.45249 -0.742072,2.99741 3.485736,2.36491 0.929709,0.29794 2.816019,0.37723 -0.148224,4.88095 -2.848428,0.20902 -0.9566,0.21864 -3.629826,2.10982 0.529031,3.05601 4.134716,0.72 1.003503,-0.10276 2.712551,-0.79456 1.82912,4.51884 -2.501499,1.31596 -0.79245,0.62419 -2.458022,3.42228 1.733919,2.53461 4.087106,-0.98012 0.839349,-0.50831 2.180096,-1.86012 3.501611,3.40358 -1.760757,2.22981 -0.44898,0.8897 -0.871031,4.09472 2.618094,1.6373 3.343597,-2.56708 0.553814,-0.79729 1.254519,-2.56429 4.579579,1.65244 -0.708281,2.74775 -0.06551,1.00419 0.881478,4.09332 3.077414,0.43999 1.975224,-3.69885 0.204827,-0.99316 0.06962,-2.82636 4.878881,-0.35664 0.464197,2.81256 0.346284,0.93866 2.480176,3.37877 2.967736,-0.83043 0.319278,-4.20851 -0.218643,-0.95659 -1.066992,-2.63599 4.290555,-2.30984 1.605645,2.38425 0.65866,0.71106 3.64712,2.09731 2.38838,-2.01186 -1.42634,-3.9402 -0.59521,-0.80417 -2.07392,-1.9587 3.02494,-3.85404 2.40291,1.52212 0.92419,0.3676 4.15678,0.44135 1.35797,-2.80845 -2.90226,-3.00564 -0.87247,-0.48967 -2.68499,-0.96968 1.1876,-4.72855 2.82775,0.4062 0.99798,-0.0331 3.9871,-1.31046 0.0917,-3.105 -3.87127,-1.56831 -0.98696,-0.1062 -2.84842,0.20901 -0.867,-4.80715 2.75324,-0.77731 0.90349,-0.43314 3.11048,-2.80985 -1.16078,-2.86773 -4.20093,0.11593 -0.95039,0.31726 -2.51874,1.35666 -2.72088,-4.05674 2.20354,-1.80219 0.6352,-0.76281 1.67867,-3.8485 -2.21394,-2.13802 -3.77605,1.83187 -0.74003,0.67039 -1.74904,2.25876 -4.154055,-2.60009 1.26625,-2.53533 0.28621,-0.95867 -0.0173,-4.20712 -2.917413,-1.04416 -2.679412,3.20848 -0.408288,0.90695 -0.667589,2.76498 -4.854067,-0.6648 0.127558,-2.84981 -0.131745,-0.99178 -1.716001,-3.82294 -3.115342,0.21587 -1.161393,4.04368 0.02139,0.96902 0.493165,2.80084 -4.677479,1.35392 -1.066986,-2.63599 -0.508313,-0.83935 -3.156758,-2.80149 z m 6.590144,10.78395 c 10.213773,-4.1343 21.827252,0.78649 25.961557,11.00027 4.13428,10.21378 -0.77479,21.85622 -10.988565,25.99052 -10.213774,4.13429 -21.838969,-0.81548 -25.973261,-11.02925 -4.134295,-10.21378 0.786497,-21.82725 11.000269,-25.96154 z"
       style="fill:#333333;fill-opacity:1;stroke:#000000;stroke-width:0.5;stroke-miterlimit:4;stroke-opacity:1;stroke-dasharray:none"
       id="path3119" />
  </g>
</svg>
