<?xml version="1.0" encoding="UTF-8" standalone="no"?>
<svg id="svg2" xmlns:rdf="http://www.w3.org/1999/02/22-rdf-syntax-ns#" xmlns="http://www.w3.org/2000/svg" version="1.1" xml:space="preserve" height="219" viewBox="-0.665 -0.219 219 219" width="219" enable-background="new -0.665 -0.219 222 185" y="0px" x="0px" xmlns:cc="http://creativecommons.org/ns#" xmlns:xlink="http://www.w3.org/1999/xlink" xmlns:dc="http://purl.org/dc/elements/1.1/"><metadata id="metadata285"><rdf:RDF><cc:Work rdf:about=""><dc:format>image/svg+xml</dc:format><dc:type rdf:resource="http://purl.org/dc/dcmitype/StillImage"/><dc:title/></cc:Work></rdf:RDF></metadata><defs id="defs4"><filter id="filter5210" color-interpolation-filters="sRGB"><feGaussianBlur id="feGaussianBlur5212" stdDeviation="1.4038296"/></filter><filter id="filter3652"><feGaussianBlur id="feGaussianBlur3654" stdDeviation="1.869571"/></filter><linearGradient id="linearGradient3673" y2="160.75" gradientUnits="userSpaceOnUse" x2="140.43" y1="87.355" x1="136.36"><stop id="stop248" stop-color="#FFF" offset="0.2978"/><stop id="stop250" stop-color="#FFF" offset="0.5955"/><stop id="stop252" stop-color="#EEE7E5" offset="0.9045"/></linearGradient><radialGradient id="radialGradient3675" gradientUnits="userSpaceOnUse" cy="63.754" cx="83.222" gradientTransform="matrix(0.8744,0,0,0.8744,15.4529,25.3278)" r="61.408"><stop id="stop269" stop-color="#FFF" offset="0.1573"/><stop id="stop271" stop-color="#724548" offset="0.8989"/></radialGradient><linearGradient id="linearGradient3681" y2="-11.849" gradientUnits="userSpaceOnUse" x2="-53.107" y1="70.253" x1="184.1"><stop id="stop4967" stop-color="#d7a111" offset="0"/><stop id="stop4969" stop-color="#d5cb0f" offset="1"/></linearGradient></defs><path id="path5204" opacity="0.5" d="m28.849,218.33c-2.3191-0.75408-3.742-1.8244-5.1347-3.8624-1.1302-1.6539-1.2739-4.5725-1.2739-25.877,0-20.339-0.17301-24.186-1.1309-25.144-0.94788-0.94788-1.1309-4.3372-1.1309-20.94,0-19.175,0.0508-19.855,1.5856-21.245,1.456-1.3189,3.1407-1.4546,20.62-1.6604l19.034-0.22409,0.0648-2.2794c0.13022-4.5801,6.7821-10.62,15.115-13.724,6.3403-2.3619,18.455-2.308,24.443,0.10871,7.5184,3.0345,14.918,9.9289,15.16,14.124l0.106,1.8406,18.234,0.00053c17.754,0.00052,21.702,0.42902,23.018,2.498,0.3131,0.4924,0.57237,9.2076,0.57617,19.367,0.005,14.929-0.20911,18.886-1.1194,20.631-0.92965,1.7825-1.1268,6.3239-1.1291,26.011-0.003,22.594-0.0831,23.983-1.5244,26.348-2.9452,4.8306-0.72304,4.6745-65.362,4.5917-32.254-0.0413-59.323-0.29579-60.152-0.56546zm83.401-101.15c-0.55183-2.655-3.8169-6.3323-7.1565-8.0601-8.5861-4.4422-24.601-4.2686-32.084,0.34779-4.0538,2.5009-6.844,5.7056-6.844,7.8608v2.114h46.554l-0.47024-2.2624z" fill-rule="evenodd" transform="matrix(1.5136914,0,0,1.5136914,-22.952344,-126.1015)" filter="url(#filter5210)" stroke-miterlimit="4" stroke-width="0" fill="#000"/><g id="g3368" transform="matrix(1.5136914,0,0,1.5136914,-104.07152,-80.098106)"><path id="path241" fill="#919090" d="m111.19,83.266c0.744,2.838,4.141,2.698,5.283,1.7,1.033-0.908,0.387-3.711,0.354-3.908,0,0,6.285-9.982,22.912-9.731,13.937,0.211,20.079,5.944,22.247,9.567,0,0-1.231,5.312,3.418,4.318,6.59-1.409-6.542-19.086-25.879-19.125-17.923-0.035-29.618,12.277-28.335,17.179z"/><path id="path243" fill="#7c7c7c" d="m112.24,82.729c0.584,1.674,2.747,1.914,3.434,1.194,0.847-0.889,0.188-3.083,0.566-3.924,0,0,7.256-10.566,23.536-10.313,12.89,0.2,22.061,7.622,23.09,10.922,0,0-0.657,5.28,2.545,3.65,4.022-2.046-8.718-16.716-25.593-16.803-16.866-0.088-28.629,12.259-27.578,15.274z"/><path id="path245" fill="#8e8682" d="m206.47,175.61c0,4.989-4.174,9.033-9.321,9.033h-115.54c-5.145,0-9.322-4.044-9.322-9.033v-67.53c0-4.987,4.177-9.034,9.322-9.034h115.54c5.147,0,9.321,4.047,9.321,9.034v67.53z"/><path id="path254" fill="url(#linearGradient3673)" d="m204.62,174.43c0,4.812-4.061,8.714-9.069,8.714h-112.34c-5.011,0-9.07-3.901-9.07-8.714v-65.173c0-4.812,4.06-8.718,9.07-8.718h112.34c5.009,0,9.069,3.905,9.069,8.718v65.173z"/><path id="path256" fill="#c1c1c1" d="m202.51,172.27c0,4.582-3.923,8.304-8.773,8.304h-108.72c-4.843,0-8.773-3.722-8.773-8.304v-62.092c0-4.586,3.93-8.305,8.773-8.305h108.72c4.851,0,8.773,3.719,8.773,8.305v62.092z"/><path id="path258" opacity="0.43999999" fill="#8e8682" d="m193.74,101.87h-22.942c-1.773,21.612,1.084,37.594-14.604,59.312-10.062,17.281-30.426,15.359-43.295,19.389h80.842c4.851,0,8.773-3.722,8.773-8.304v-62.092c0-4.586-3.923-8.305-8.774-8.305z"/><path id="path260" fill="#5b5b5b" d="m205.58,129.85c3.074-1.125,2.975-3.305,2.975-5.231v-36.36c0-1.927-2.32-3.491-5.177-3.491h-127.99c-2.862,0-5.18,2.271-5.18,4.199v37.354c0,1.928,0.571,3.428,3.829,4.383,0,0,23.263,4.121,66.834,4.121,43.576,0,64.701-4.975,64.701-4.975z"/><path id="path262" fill="#d8d8d8" d="m203.46,128.5c2.972-1.049,2.881-3.081,2.881-4.881v-33.92c0-1.797-2.249-3.257-5.015-3.257h-123.87c-2.768,0-5.014,2.119-5.014,3.918v34.846c0,1.8,0.551,3.196,3.705,4.088,0,0,22.519,3.848,64.698,3.848s62.626-4.644,62.626-4.644z"/><path id="path264" opacity="0.6" fill="#5b5b5b" d="m200.24,87.26h-28.288c-1.275,14.804-1.784,29.827-5.607,43.604,24.173-1.204,35.993-3.784,35.993-3.784,2.922-0.996,2.827-2.921,2.827-4.624v-32.123c0-1.704-2.205-3.081-4.925-3.081z"/><path id="path266" fill="#f0f0f0" d="M200.42,86.991h-120.47c-2.692,0-4.871,1.268-4.871,1.843v2.212c0-0.576,2.179-1.045,4.871-1.045h120.47c2.688,0,4.874,0.469,4.874,1.045v-2.216c-0.071-1.081-2.186-1.839-4.874-1.839z"/><path id="path273" opacity="0.70999995" fill="url(#radialGradient3675)" d="M74.879,118.77v-27.804h87.247s-73.999-0.748-87.247,27.805z"/><path id="path275" opacity="0.70999995" fill="#a2a2a2" d="M74.879,118.77v-27.804h87.247s-73.999-0.748-87.247,27.805z"/><path id="path277" fill="#4f4f4f" d="m148.56,147.28c0,2.313-1.638,4.189-3.657,4.189h-9.6c-2.021,0-3.659-1.876-3.659-4.189v-19.029c0-2.313,1.639-4.189,3.659-4.189h9.603c2.02,0,3.657,1.876,3.657,4.189v19.029z"/><path id="path279" fill="#bcbcbc" d="m147.39,146.04c0,1.987-1.406,3.599-3.143,3.599h-8.249c-1.735,0-3.141-1.611-3.141-3.599v-16.347c0-1.988,1.405-3.599,3.141-3.599h8.249c1.736,0,3.143,1.61,3.143,3.599v16.347z"/><rect id="rect281" height="3.323" width="16.916" y="140.4" x="131.64" fill="#4f4f4f"/></g><g id="g3677" stroke="#c18a24" stroke-width="4" transform="translate(-193.01695,33.40678)"><polygon id="polygon2874" opacity="0.5" transform="matrix(0.77013762,0,0,0.77013762,243.19809,81.574504)" filter="url(#filter3652)" points="4.836,2.351,67.94,65.106,4.836,128.56,155.1,128.91,217.85,65.803,154.75,2.002" fill="#000"/><polygon id="polygon239" transform="matrix(0.77013762,0,0,0.77013762,239.19809,77.574504)" points="4.836,128.56,155.1,128.91,217.85,65.803,154.75,2.002,4.836,2.351,67.94,65.106" fill="url(#linearGradient3681)"/></g></svg>