<?xml version="1.0" encoding="UTF-8" standalone="no"?><svg xmlns:rdf="http://www.w3.org/1999/02/22-rdf-syntax-ns#" xmlns="http://www.w3.org/2000/svg" y="0px" xml:space="preserve" height="219" viewBox="-0.412 -0.726 219 219" width="219" version="1.1" enable-background="new -0.412 -0.726 235 191" x="0px" xmlns:cc="http://creativecommons.org/ns#" xmlns:xlink="http://www.w3.org/1999/xlink" xmlns:dc="http://purl.org/dc/elements/1.1/">	<metadata>		<rdf:RDF>			<cc:Work rdf:about="">				<dc:format>image/svg+xml</dc:format>				<dc:type rdf:resource="http://purl.org/dc/dcmitype/StillImage"/>				<dc:title/>			</cc:Work>		</rdf:RDF>	</metadata>	<defs>		<filter id="filter3997" color-interpolation-filters="sRGB">			<feGaussianBlur stdDeviation="1.7526121"/>		</filter>		<filter id="filter4359" color-interpolation-filters="sRGB">			<feGaussianBlur stdDeviation="1.7761565"/>		</filter>		<filter id="filter2898" width="1" y="0" x="0" height="1" color-interpolation-filters="sRGB">			<feColorMatrix values="1" in="SourceGraphic" type="saturate" result="result2"/>			<feFlood flood-color="rgb(254,102,0)" flood-opacity="1" result="result1"/>			<feBlend mode="multiply" in="result1" in2="result2" result="result3"/>			<feComposite operator="in" k2="1" in2="SourceGraphic" result="result4"/>		</filter>		<radialGradient id="radialGradient3036" gradientUnits="userSpaceOnUse" cy="94.32" cx="75.52" gradientTransform="matrix(1.0234491,0,0,1.0515782,-48.029494,-63.663041)" r="78.1">			<stop stop-color="#FFF" offset="0.1573"/>			<stop stop-color="#724548" offset="0.8989"/>		</radialGradient>		<linearGradient id="linearGradient3045" y2="219.1" gradientUnits="userSpaceOnUse" x2="130.6" gradientTransform="matrix(1.1999638,0,0,1.2329443,-49.734277,-112.78465)" y1="128.1" x1="125.5">			<stop stop-color="#FFF" offset="0.2978"/>			<stop stop-color="#FFF" offset="0.5955"/>			<stop stop-color="#EEE7E5" offset="0.9045"/>		</linearGradient>	</defs>	<path d="m134.9,107.9c-22.23-0.045-36.75,15.23-35.16,21.31,0.2113,0.8064,0.6099,1.425,1.094,1.875h-45.47c-3.551,0-6.438,2.796-6.438,5.188v46.34c0,1.864,0.4594,3.411,2.562,4.562v56.59c0,6.188,5.18,11.19,11.56,11.19h143.3c6.385,0,11.56-5,11.56-11.19v-57.28c2.656-1.481,2.562-3.844,2.562-5.969v-45.12c0-2.39-2.863-4.312-6.406-4.312h-45.88c4.857-3.85-10.86-23.14-33.34-23.19zm0.2812,6.5c17.29,0.261,24.9,7.382,27.59,11.88,0,0-0.7785,3.339,0.875,4.812h-57.12c0.9681-1.309,0.2572-4.364,0.2188-4.594,0,0,7.814-12.41,28.44-12.09z" fill-opacity="0.5" transform="matrix(1.1999638,0,0,1.2329443,-53.734277,-116.78465)" filter="url(#filter3997)" fill="#000"/>	<path fill="#919090" d="m63.44,38.86c1.106,4.339,6.164,4.125,7.863,2.597,1.538-1.386,0.576-5.673,0.5268-5.975,0,0,9.355-15.27,34.1-14.88,20.75,0.3218,29.89,9.09,33.12,14.63,0,0-1.836,8.125,5.087,6.606,9.807-2.155-9.738-29.19-38.52-29.25-26.68-0.05548-44.08,18.77-42.17,26.27z"/>	<path fill="#7c7c7c" d="m65.01,38.04c0.8688,2.562,4.088,2.93,5.111,1.83,1.26-1.361,0.2808-4.719,0.8424-6.004,0,0,10.8-16.16,35.03-15.77,19.19,0.3058,32.84,11.66,34.37,16.7,0,0-0.9756,8.076,3.789,5.584,5.9-3.13-13-25.57-38.1-25.7-25.14-0.13-42.65,18.75-41.09,23.36z"/>	<path fill="#8e8682" d="m205.3,180.1c0,7.629-6.212,13.82-13.87,13.82h-172c-7.658,0-13.88-6.186-13.88-13.82v-103.3c0-7.627,6.217-13.82,13.88-13.82h172c7.662,0,13.87,6.189,13.87,13.82v103.3z"/>	<path fill="url(#linearGradient3045)" d="m202.5,178.3c0,7.359-6.042,13.33-13.5,13.33h-167.2c-7.455,0-13.5-5.969-13.5-13.33v-99.69c0-7.361,6.044-13.33,13.5-13.33h167.2c7.455,0,13.5,5.972,13.5,13.33v99.67z"/>	<path fill="#c1c1c1" d="m199.4,175c0,7.009-5.841,12.7-13.06,12.7h-161.8c-7.209,0-13.06-5.691-13.06-12.7v-94.97c0-7.013,5.847-12.7,13.06-12.7h161.8c7.217,0,13.06,5.689,13.06,12.7v94.96z"/>	<path opacity="0.43999999" d="m186.3,67.32h-34.15c-2.639,33.05,1.614,57.5-21.74,90.71-14.98,26.43-45.29,23.49-64.44,29.65h120.4c7.217,0,13.06-5.691,13.06-12.7v-94.88c0.001-7.013-5.841-12.7-13.06-12.7z" fill="#8e8682"/>	<path fill="#5b5b5b" d="m203.9,110.1c4.575-1.72,4.425-5.055,4.425-8.002v-55.61c0-2.947-3.454-5.336-7.705-5.336h-190.4c-4.261,0-7.71,3.472-7.71,6.421v57.13c0,2.948,0.8496,5.241,5.699,6.705,0,0,34.63,6.3,99.48,6.3,64.86,0.001,96.31-7.609,96.31-7.609z"/>	<path fill="#d8d8d8" d="m200.8,108c4.423-1.604,4.288-4.714,4.288-7.465v-51.8c0-2.749-3.347-4.98-7.465-4.98h-184.4c-4.121,0-7.464,3.239-7.464,5.99v53.29c0,2.752,0.8196,4.89,5.515,6.252,0,0,33.52,5.882,96.3,5.882s93.22-7.099,93.22-7.099z"/>	<path opacity="0.6" d="m196,44.97h-42.11c-1.901,22.64-2.655,45.62-8.346,66.69,35.98-1.843,53.58-5.787,53.58-5.787,4.347-1.523,4.208-4.466,4.208-7.071v-49.14c0.001-2.606-3.281-4.717-7.329-4.717z" fill="#5b5b5b"/>	<path fill="#f0f0f0" d="M196.3,44.56h-179.4c-4.007,0-7.25,1.941-7.25,2.82v3.381c0-0.8803,3.243-1.595,7.25-1.595h179.3c4.006,0,7.257,0.7151,7.257,1.595v-3.388c-0.108-1.653-3.252-2.812-7.257-2.812z"/>	<path opacity="0.70999995" d="M9.399,93.17v-42.53h129.9s-110.1-1.147-129.9,42.52z" fill="url(#radialGradient3036)"/>	<path opacity="0.70999995" d="M9.399,93.17v-42.53h129.9s-110.1-1.147-129.9,42.52z" fill="#a2a2a2"/>	<path fill="#4f4f4f" d="m119.1,136.8c0,3.539-2.437,6.408-5.444,6.408h-14.37c-3.007,0-5.444-2.869-5.444-6.408v-29.13c0-3.539,2.437-6.408,5.444-6.408h14.29c3.007,0,5.444,2.869,5.444,6.408v29.1z"/>	<path fill="#bcbcbc" d="m117.3,134.9c0,3.042-2.094,5.505-4.676,5.505h-12.28c-2.584,0-4.676-2.463-4.676-5.505v-24.99c0-3.04,2.093-5.505,4.676-5.505h12.28c2.582,0,4.676,2.465,4.676,5.505v25z"/>	<rect height="5.082" width="25.18" y="126.2" x="93.89" fill="#4f4f4f"/>	<path d="m-185.5,122.6c0.7808,5.58,5.344,7.094,5.344,7.094l38.81-0.0312-6.188,0.0625s-3.113,3.04-1.844,4.375c0,0,0.7965,2.48,2.188,3.875l18.12,14.88s10.08,8.84,11.53,24.06l7.281-2.031,2.094,4.219-8.406,3.281,0.125,0.2188-0.125,0.0625,6.594,12.12c-0.1194,0.2702-0.4679,1.135-0.5625,2.125-0.0152,0.1591-0.0345,0.3115-0.0312,0.4688-0.003,0.0529,0.001,0.1035,0,0.1562,0.007,0.1038,0.0136,0.2125,0.0312,0.3125,0.0209,0.3105,0.0573,0.6135,0.1875,0.875,0.694,1.393,22.91,50.93,46.81,50.75,0,0,18.56,1.688,26.69-36.41,0,0,3.715-11.53,6.625-20.47,1.429,4.456,5.621,16.9,10.56,24.31l1.5,48.83,14.56-2.469,0.2188-120.4v-23.25l-19.19,4.906s-22.22,2.462-28.94,12.75c-1.074,1.641-2.21,4.174-3.344,7.312-5.784,16.04-11.74,47.31-11.94,50.5-0.006,0.1033-0.0374,0.2696-0.0312,0.3125l-1.438,6.5-1.281-1.531-1.344,0.125-9.188-15.78-3.25-1.469-2.812-12.94-6.688,2.969-0.9375-1.906,3.812-1.219s-5.128-24.3,12-34.75c0,0,3.702-7.596-8.844-4.344,0,0-14.31,15.24-17.38,12.16l-16.44-10.75s1.048-1.168-0.8125-2.562c0,0-0.394-0.1004-0.9688-0.2188l66.5-0.0625c4.372,0.5509,6.021-4.872,6.5-6.969h7.312c0.4-1.088,0.75-1.559,0.75-2.156,0-0.596-0.351-1.094-0.75-1.094-32.76-2.014-146.4,1.322-143.4,3.25zm56.84,7.031,1.469,0c-0.2052,0.114-0.3603,0.2514-0.4688,0.4375zm-10.56,0.0312,4.312,0c-0.4165,0.2646-0.7377,0.6176-0.9062,1.125z" fill-opacity="0.50196081" transform="matrix(0.92921179,0,0,0.94591378,225.07305,-27.441237)" filter="url(#filter4359)" stroke-miterlimit="4" fill="#000"/>	<path d="m14.73,48.68,0,0s-5.528-1.815-5.966-8.729h149.8s-1.411,9.327-7.337,8.58l-136.5,0.149z" transform="matrix(0.86135334,0,0,0.86135334,40.973055,50.447898)" filter="url(#filter2898)" fill="#757575"/>	<path d="m166.7,40.04c0,0.6556-0.3547,1.184-0.794,2.379h-164c-0.439-1.2-0.795-1.73-0.795-2.38,0-0.6545,0.3547-1.184,0.7951-1.184h164c0.4382,0,0.794,0.5293,0.794,1.184z" transform="matrix(0.86135334,0,0,0.86135334,40.973055,50.447898)" filter="url(#filter2898)" fill="#444445"/>	<path d="M41.06,39.54,5.515,40.14s-5.29,0.2328-2.725-0.5315c0-0.0011,14.06-0.1197,38.28-0.0615z" transform="matrix(0.86135334,0,0,0.86135334,40.973055,50.447898)" filter="url(#filter2898)" fill="#c6b298"/>	<g filter="url(#AI_GaussianBlur_2-9)" transform="matrix(0.94591378,0,0,0.94591378,11.834535,-21.036058)">		<polygon points="121,174.7,118.1,169.1,134.6,165.5,136,168.3" fill="#5b5b5b"/>	</g>	<path d="m159.5,160.6-1.218-1.46-1.284,0.1296-8.673-14.93-3.073-1.388-2.67-12.25-6.514,2.91-0.7-1.91,3.615-1.13s-4.847-23.01,11.35-32.89c0,0,3.486-7.169-8.382-4.093,0,0-13.54,14.41-16.44,11.49l-15.4-10.05s0.9856-1.1-0.7738-2.42c0,0-5.023-1.337-5.93,0.2204l-1.538-0.6593s-5.277-1.32-6.153,1.318l-3.294-1.096-7.791,0.09743s-2.957,2.871-1.757,4.134c0,0,0.7586,2.358,2.074,3.678l17.13,14.06s9.531,8.367,10.9,22.77l6.888-1.922,1.99,3.982-7.944,3.104,6.29,11.58s-1.08,2.282-0.4219,3.601c0.6565,1.318,21.67,48.18,44.28,48.02,0,0,17.56,1.593,25.25-34.44,0,0,8.69-27.09,9.398-28.82,0.7047-1.722,4.661-17.1,4.661-19.74,0,0,4.575-9.181-0.5316-34.97,0,0-21.04,2.321-27.39,12.05-1.016,1.552-2.076,3.965-3.149,6.934-5.648,15.66-11.52,46.76-11.33,48.06l-1.348,6.15z" stroke="#727272" stroke-width="0.94591379" fill="#f4f4f4"/>	<path d="m194.9,149.9s4.928,16.4,10.64,24.96l1.404,46.18,13.78-2.334,0.2109-113.9v-22.08l-18.14,4.627" stroke="#727272" stroke-width="0.94591379" fill="#cea500"/>	<polygon transform="matrix(0.94591378,0,0,0.94591378,11.834535,-21.036058)" stroke="#727272" points="117,170.7,114.1,165.1,130.6,161.5,132,164.3" fill="#fcbd7e"/>	<path stroke-linejoin="miter" style="enable-background:accumulate;color:#000000;" d="m136.1,133.9,6.514-2.911,2.67,12.26,3.073,1.384,8.673,14.93,1.284-0.1277,1.218,1.456,1.347-6.148c-0.1835-1.293,5.688-32.4,11.33-48.06,1.073-2.969,2.133-5.381,3.149-6.935,6.35-9.731,27.39-12.05,27.39-12.05,5.106,25.78,0.5316,34.96,0.5316,34.96,0,2.638-3.956,18.02-4.661,19.74-0.7085,1.72-9.398,28.82-9.398,28.82-7.691,36.03-25.25,34.44-25.25,34.44-22.61,0.1684-43.62-46.7-44.28-48.01-0.6574-1.32,0.4219-3.605,0.4219-3.605l-6.29-11.58,7.944-3.104,14.33-5.455z" fill-rule="nonzero" stroke-dashoffset="0" stroke="#727272" stroke-linecap="butt" stroke-miterlimit="4" stroke-dasharray="none" stroke-width="0.94591379" fill="#ae8b00"/>	<path d="m137.6,127.9s10.53,15.44,9.875,25.77" transform="matrix(0.86135334,0,0,0.86135334,40.973055,50.447898)" filter="url(#filter2898)" stroke="#757575" stroke-width="1.09817159" fill="none"/>	<circle d="m 136.775,168.14999 c 0,1.30616 -1.05884,2.365 -2.365,2.365 -1.30615,0 -2.365,-1.05884 -2.365,-2.365 0,-1.30615 1.05885,-2.365 2.365,-2.365 1.30616,0 2.365,1.05885 2.365,2.365 z" cx="134.4" cy="168.1" transform="matrix(0.94591378,0,0,0.94591378,11.834535,-21.036058)" filter="url(#filter2898)" r="2.365" fill="#d8bc32"/>	<path d="m99.49,86.27s-2.338-16.12-17.97-16.24" transform="matrix(0.86135334,0,0,0.86135334,40.973055,50.447898)" filter="url(#filter2898)" stroke="#818182" stroke-width="1.09817159" fill="none"/></svg>