<?xml version="1.0"?>
<?metis version="3.1"?>
<?metisxml version="1.0"?>
<!DOCTYPE svg  PUBLIC "-//W3C//DTD SVG August 1999//EN"
 "http://www.w3.org/Graphics/SVG/svg-19990812.dtd">

<svg width="200" height="200">
 <title>Symbol library: business_initiative.svg</title>
 <defs>
  <symbol id="oid0" xml:space="preserve" class="METIS_SYMBOL">
   <title>business initiative</title>
    <rect x="200" y="160" width="457.246" height="72"
     style=" stroke:#000000; stroke-width:1; fill:#dcdcdc; fill-opacity:100%"></rect>
    <rect x="0" y="0" width="200" height="232"
     style=" stroke:#000000; stroke-width:1; fill:#ffffa5; fill-opacity:100%"></rect>
    <rect x="200" y="0" width="457.246" height="160"
     style=" stroke:#000000; stroke-width:1; fill:#ffa596; fill-opacity:100%"></rect>
    <g>
      <desc>METIS_TEXT_GROUP</desc>
      <text  x="208" y="13.0276"
       style=" stroke:#000000; stroke-width:1; font-family:sans-serif; font-size:13;"
       class="TAG:text">text</text>
      <rect x="208" y="0.22763" width="449.247" height="159.772"
       style=" stroke:#000000; stroke-width:1; fill:#ffffff; fill-opacity:0%"></rect>
    </g>
    <g>
      <desc>METIS_TEXT_GROUP</desc>
      <text  x="208" y="169.757"
       style=" stroke:#000000; stroke-width:1; font-family:sans-serif; font-size:13;"
       class="TAG:strat_value">strat_value</text>
      <rect x="208" y="156.957" width="229.3" height="75.0429"
       style=" stroke:#000000; stroke-width:1; fill:#ffffff; fill-opacity:0%"></rect>
    </g>
    <g>
      <polygon points="78.9976 116.413 81.2873 114.502 81.5734 113.865 
       81.8596 113.228 82.1459 112.591 82.4321 111.953 82.7182 111.316 
       82.7182 110.361 83.0045 109.723 83.0045 109.086 83.8631 108.131 
       84.4356 107.493 85.0079 106.856 85.8666 106.219 86.4391 105.901 
       87.2977 105.264 88.1563 104.945 88.7288 104.308 93.3082 101.122 
       94.1668 100.804 94.7393 100.485 95.3117 100.485 95.8842 100.485 
       96.4565 100.804 97.0291 101.122 97.3152 101.441 97.6015 102.078 
       98.7463 102.078 99.6048 102.715 100.464 103.034 101.036 103.989 
       101.609 104.945 101.895 106.219 101.609 107.812 101.036 109.723 
       102.181 110.042 102.753 110.998 103.039 111.635 103.039 112.591 
       102.753 113.865 102.467 114.82 101.895 115.458 101.322 115.776 
       101.609 116.413 101.609 117.05 101.609 117.688 101.609 118.325 
       101.322 118.643 100.75 118.962 100.177 119.28 99.3188 119.599 
       99.0325 120.555 98.174 121.192 97.3152 121.829 95.8842 122.147 
       94.7393 122.147 93.3082 122.147 91.8771 122.147 89.8737 122.784 
       89.015 123.103 87.8702 123.74 87.0114 123.74 85.8666 123.74 
       85.0079 123.74 83.8631 123.422 82.7182 123.103 81.2873 123.74 
       78.7113 120.873 78.9976 116.413 78.9976 116.413 78.9976 116.413 
       78.9976 116.413 78.9976 116.413 78.9976 116.413 78.9976 116.413 78.9976 116.413 "
       style=" stroke:#000000; stroke-width:1; fill:#ffc283; fill-opacity:100%"></polygon>
      <polygon points="25.2825 163.651 24.4239 164.917 23.8514 166.5 
       23.279 167.766 22.9928 168.716 22.7066 168.716 22.9928 168.716 
       22.9928 168.716 22.7066 169.032 22.7066 169.665 22.4204 170.298 
       22.4204 170.932 22.4204 173.464 22.4204 175.363 22.1342 175.996 
       22.4204 176.629 22.9928 178.845 24.1377 181.061 25.8549 190.558 
       25.8549 192.457 25.8549 194.356 25.8549 196.572 26.1411 198.788 
       26.1411 200.687 26.1411 202.903 25.8549 204.802 25.8549 207.018 
       42.7415 207.018 42.4554 205.119 42.4554 203.22 42.4554 201.004 
       42.4554 199.104 42.7415 196.889 43.0277 194.989 43.3139 192.773 
       43.3139 190.874 45.0312 179.162 45.6037 176.629 46.1761 174.097 
       46.4623 171.881 46.4623 169.665 46.1761 167.766 45.6037 166.183 
       44.7452 164.601 43.6002 163.651 25.2825 163.651 25.2825 163.651 
       25.2825 163.651 25.2825 163.651 25.2825 163.651 25.2825 163.651 
       25.2825 163.651 25.2825 163.651 "
       style=" stroke:#000000; stroke-width:1; fill:#ababab; fill-opacity:100%"></polygon>
      <polygon points="23.5486 167.247 24.6944 168.225 26.1268 168.877 
       27.2726 169.855 28.705 170.506 30.1374 171.158 31.5696 171.484 
       33.002 171.81 34.7209 172.136 36.1531 172.136 37.5855 172.136 
       39.0179 171.81 40.7366 171.484 42.1691 170.832 43.3149 169.855 
       44.7472 168.877 46.1795 167.573 45.6067 166.27 45.0336 165.292 
       44.4608 164.314 43.6014 163.662 25.5539 163.337 24.6944 164.314 
       24.408 165.292 23.835 166.27 23.5486 167.247 23.5486 167.247 
       23.5486 167.247 23.5486 167.247 23.5486 167.247 23.5486 167.247 
       23.5486 167.247 23.5486 167.247 "
       style=" stroke:#000000; stroke-width:1; fill:#000000; fill-opacity:100%"></polygon>
      <polygon points="17.6422 87.2863 17.0726 84.746 16.503 81.8882 
       16.2183 79.348 15.9335 76.4901 15.6487 73.6324 15.9335 70.4571 
       16.2183 67.5994 16.503 64.7416 15.6487 64.4241 14.7943 64.1066 
       14.2248 63.154 13.94 62.5189 13.6552 61.5663 13.3704 60.9313 
       13.0856 59.9787 12.516 59.3436 13.0856 59.6612 13.6552 60.2962 
       14.5095 60.9313 15.0791 61.2488 15.6487 61.8839 16.2183 62.2014 
       16.7878 62.5189 17.6422 62.5189 17.0726 57.756 19.3509 62.2014 
       22.1987 57.756 21.9139 61.5663 23.3379 60.2962 25.0465 59.3436 
       26.4705 58.7086 28.1791 58.0735 29.6031 57.756 31.312 57.4385 
       33.0205 57.1209 34.7293 56.8034 32.7357 59.0261 34.1598 59.3436 
       35.2988 59.3436 36.7229 59.6612 38.1468 60.2962 39.2857 60.6137 
       40.4249 60.9313 41.5641 61.5663 42.988 61.8839 44.1271 62.2014 
       45.2663 62.5189 46.6902 62.5189 48.1143 62.5189 49.8228 62.5189 
       51.2469 62.2014 52.9555 61.8839 54.9489 61.2488 54.6642 61.8839 
       54.0945 62.8364 53.5252 63.4715 52.6708 64.1066 52.1011 64.7416 
       51.2469 65.0591 50.3925 65.0591 49.538 65.3767 50.1077 67.9169 
       50.6772 70.4571 50.9621 73.3149 51.2469 76.1726 51.2469 79.0304 
       50.9621 81.8882 50.6772 84.746 50.3925 87.2863 17.6422 87.2863 
       17.6422 87.2863 17.6422 87.2863 17.6422 87.2863 17.6422 87.2863 
       17.6422 87.2863 17.6422 87.2863 17.6422 87.2863 "
       style=" stroke:#000000; stroke-width:1; fill:#850202; fill-opacity:100%"></polygon>
      <polygon points="134.44 207.018 144.624 207.018 144.624 153.595 
       134.44 153.595 134.44 207.018 134.44 207.018 134.44 207.018 
       134.44 207.018 134.44 207.018 134.44 207.018 134.44 207.018 134.44 207.018 "
       style=" stroke:#000000; stroke-width:1; fill:#ababab; fill-opacity:100%"></polygon>
      <polygon points="102.474 154.223 178.853 154.223 178.853 64.6598 
       102.474 64.6598 102.474 154.223 102.474 154.223 102.474 154.223 
       102.474 154.223 102.474 154.223 102.474 154.223 102.474 154.223 102.474 154.223 "
       style=" stroke:#000000; stroke-width:1; fill:#ff0016; fill-opacity:100%"></polygon>
      <polygon points="107.283 148.881 174.609 148.881 174.609 74.4018 
       107.283 74.4018 107.283 148.881 107.283 148.881 107.283 148.881 
       107.283 148.881 107.283 148.881 107.283 148.881 107.283 148.881 107.283 148.881 "
       style=" stroke:#000000; stroke-width:1; fill:#ffffff; fill-opacity:100%"></polygon>
      <polyline points="115.486 74.4018 115.486 148.881"
       style=" stroke:#000000; stroke-width:1;"></polyline>
      <polyline points="123.973 74.4018 123.973 148.881"
       style=" stroke:#000000; stroke-width:1;"></polyline>
      <polyline points="133.025 74.4018 133.025 148.881"
       style=" stroke:#000000; stroke-width:1;"></polyline>
      <polyline points="141.795 74.4018 141.795 148.881"
       style=" stroke:#000000; stroke-width:1;"></polyline>
      <polyline points="149.998 74.4018 149.998 148.881"
       style=" stroke:#000000; stroke-width:1;"></polyline>
      <polyline points="158.485 74.4018 158.485 148.881"
       style=" stroke:#000000; stroke-width:1;"></polyline>
      <polyline points="166.406 74.4018 166.406 148.881"
       style=" stroke:#000000; stroke-width:1;"></polyline>
      <polygon points="38.3715 122.836 43.4829 123.783 45.4706 127.89 
       48.5942 128.205 48.8782 129.153 51.15 129.153 51.4339 128.521 
       53.4216 127.89 55.4093 127.574 57.113 126.942 58.8168 126.31 
       60.8045 125.363 62.5084 124.731 64.2121 123.783 66.1997 122.836 
       67.9036 121.888 69.6073 120.941 71.3111 119.993 73.2988 119.046 
       75.0025 118.098 76.7064 117.15 78.41 116.203 80.3979 115.255 
       79.8299 116.519 79.546 117.782 79.546 119.046 79.546 119.993 
       80.1139 120.941 80.6819 121.888 81.8176 122.52 83.2375 122.836 
       77.2743 128.205 70.7432 133.259 67.3356 133.575 55.9771 141.156 
       53.9894 142.103 52.0017 142.419 50.0141 142.419 48.0264 142.735 
       47.4583 143.683 48.3102 145.578 48.3102 146.841 47.4583 148.421 
       46.3225 150 46.6065 152.843 46.6065 154.738 46.3225 156.317 
       46.0386 157.581 45.4706 158.528 44.9026 159.16 44.3349 160.107 
       44.0507 161.055 43.199 164.529 42.631 165.161 42.063 165.793 
       41.7791 165.793 41.2113 166.109 40.6432 166.425 40.0754 166.425 
       39.7914 166.74 39.2235 166.74 38.3715 167.056 37.8037 167.056 
       37.2358 167.056 36.6678 167.056 36.0999 167.372 35.2479 167.372 
       34.6802 167.372 33.8282 167.372 33.2603 167.056 32.6923 167.056 
       31.8404 167.056 31.2726 167.056 30.7047 166.74 30.1367 166.74 
       29.2848 166.425 28.717 166.109 28.1489 166.109 27.5811 165.793 
       27.2971 165.477 26.7291 165.161 26.1612 164.845 25.5934 164.214 
       24.1735 158.528 23.8895 157.265 23.6056 156.317 23.0377 155.369 
       23.0377 154.422 22.7537 153.158 23.0377 151.895 23.3216 150.316 
       24.1735 148.421 23.0377 143.367 18.4943 150 17.6424 151.895 
       17.3585 153.158 17.9264 154.422 18.7783 155.369 19.0622 156.001 
       19.6301 157.896 21.6179 160.107 21.3339 162.003 24.1735 165.477 
       23.8895 166.109 23.6056 167.056 23.3216 167.688 23.0377 168.32 
       23.0377 168.32 22.7537 168.951 22.7537 169.267 22.7537 169.583 
       22.4698 170.215 22.4698 171.163 22.4698 171.794 22.4698 172.426 
       22.4698 173.058 22.4698 174.005 22.4698 174.637 22.4698 175.585 
       22.4698 176.216 22.4698 177.164 18.2103 170.215 10.5434 157.896 
       9.69148 156.317 9.12357 155.054 8.55565 154.106 8.55565 152.843 
       8.55565 151.895 9.12357 150.948 9.69148 149.684 10.5434 148.421 
       11.3952 146.841 11.9632 145.894 12.8151 144.946 13.6669 143.999 
       14.5188 142.735 15.3707 141.156 16.2226 139.261 16.7905 137.366 
       23.3216 127.89 30.1367 122.204 38.3715 122.836 38.3715 122.836 
       38.3715 122.836 38.3715 122.836 38.3715 122.836 38.3715 122.836 
       38.3715 122.836 38.3715 122.836 "
       style=" stroke:#000000; stroke-width:1; fill:#ffffff; fill-opacity:100%"></polygon>
      <polygon points="32.3364 125.628 38.7606 125.311 36.7165 128.795 
       37.3005 130.062 37.5925 131.012 37.3005 131.962 37.0086 133.229 
       37.3005 136.08 37.3005 139.247 37.5925 142.73 37.8846 145.898 
       38.4685 149.065 39.0526 152.549 39.9286 155.399 40.8046 158.566 
       36.7165 165.85 31.7522 158.883 32.3364 155.399 32.6282 152.232 
       32.9203 149.065 33.2124 145.898 33.5044 142.73 33.5044 139.563 
       33.7963 136.396 34.0883 133.546 33.7963 132.279 33.5044 131.012 
       33.7963 130.062 34.0883 128.795 32.3364 125.628 32.3364 125.628 
       32.3364 125.628 32.3364 125.628 32.3364 125.628 32.3364 125.628 
       32.3364 125.628 32.3364 125.628 "
       style=" stroke:#000000; stroke-width:1; fill:#850285; fill-opacity:100%"></polygon>
      <polyline points="34.0153 128.768 36.8442 128.768"
       style=" stroke:#000000; stroke-width:1;"></polyline>
      <polyline points="34.0153 133.796 37.1271 133.168"
       style=" stroke:#000000; stroke-width:1;"></polyline>
      <polyline points="73.965 118.398 73.3679 120.023 72.7706 121.324 
       72.7706 122.624 73.0693 124.25 73.6664 125.225 74.8608 126.2 
       76.0552 127.175 78.1455 127.825"
       style=" stroke:#000000; stroke-width:1;"></polyline>
      <polyline points="21.5684 161.765 18.4566 170.25"
       style=" stroke:#000000; stroke-width:1;"></polyline>
      <polyline points="35.7127 188.163 35.1469 207.018"
       style=" stroke:#000000; stroke-width:1;"></polyline>
      <polygon points="32.6009 172.45 41.0874 172.45 41.0874 165.851 
       32.6009 165.851 32.6009 172.45 32.6009 172.45 32.6009 172.45 
       32.6009 172.45 32.6009 172.45 32.6009 172.45 32.6009 172.45 32.6009 172.45 "
       style=" stroke:#000000; stroke-width:1; fill:#ffff14; fill-opacity:100%"></polygon>
      <polygon points="33.7324 171.507 40.2388 171.507 40.2388 166.793 
       33.7324 166.793 33.7324 171.507 33.7324 171.507 33.7324 171.507 
       33.7324 171.507 33.7324 171.507 33.7324 171.507 33.7324 171.507 33.7324 171.507 "
       style=" stroke:#000000; stroke-width:1; fill:#000000; fill-opacity:100%"></polygon>
      <polyline points="84.9347 111.068 85.2233 110.101 85.8003 109.457 
       86.6661 108.813 87.243 108.169 87.8202 107.847 88.3972 107.524 
       89.2628 107.524 90.1285 107.202 95.0336 103.337 95.8994 102.693 
       96.765 102.371 97.6305 102.371 98.4961 103.015 98.7847 103.659 
       99.3619 104.303 99.3619 104.948 99.3619 105.27 99.3619 105.592 
       99.3619 105.914 99.0733 106.236 99.0733 106.558 99.0733 106.88 
       98.7847 107.202 98.7847 107.524 98.4961 107.847 98.4961 108.169 
       97.9191 108.491 97.6305 108.813 97.342 109.135 97.0535 109.457 
       96.765 109.779 96.4764 109.779 96.1878 109.779 95.8994 110.101 
       94.168 110.101 92.4369 109.779 92.4369 110.746 92.7253 111.39 
       92.4369 112.356 92.1483 113 91.8597 113.645 91.5711 114.289 
       91.2827 114.611 90.7055 115.255"
       style=" stroke:#000000; stroke-width:1;"></polyline>
      <polyline points="91.4411 114.59 92.3156 114.922 93.1899 114.922 
       94.0642 115.255 94.9385 114.922 95.5215 114.922 96.3959 114.59 
       96.9789 114.257 97.5617 113.924 98.1447 113.591 98.7275 112.926 
       99.3105 112.26 99.6018 111.928 100.185 111.262 100.476 110.597 
       100.768 110.264 101.059 109.599"
       style=" stroke:#000000; stroke-width:1;"></polyline>
      <polyline points="93.1385 114.941 93.1385 115.659 93.4311 116.378 
       93.7237 117.096 94.309 117.455 94.6017 117.455 95.4796 117.455 
       96.0648 117.455 96.6501 117.455 97.528 117.455 98.1134 117.096 
       98.9912 116.737 99.5764 116.378 100.162 116.378 100.747 116.018 
       101.04 116.018 101.625 115.659"
       style=" stroke:#000000; stroke-width:1;"></polyline>
      <polyline points="94.8357 117.455 94.8357 118.188 94.8357 118.922 
       95.4393 119.288 96.0426 119.655 96.6462 119.655 97.5514 119.655 
       98.4565 119.655 99.3619 119.655"
       style=" stroke:#000000; stroke-width:1;"></polyline>
      <polygon points="31.8338 119.655 27.509 129.397 35.0054 127.124 
       42.5019 128.747 37.8887 119.98 31.8338 119.655 31.8338 119.655 
       31.8338 119.655 31.8338 119.655 31.8338 119.655 31.8338 119.655 
       31.8338 119.655 31.8338 119.655 "
       style=" stroke:#000000; stroke-width:1; fill:#ffffff; fill-opacity:100%"></polygon>
      <polygon points="30.9036 117.455 31.1979 118.754 31.7862 120.053 
       32.0804 121.352 32.6687 122.651 32.963 123.95 33.5515 124.924 
       34.1398 126.223 35.0223 127.197 35.9051 125.898 36.7876 124.924 
       37.0819 123.625 37.6702 122.326 37.9644 121.027 37.9644 119.728 
       38.2587 118.429 38.2587 117.455 30.9036 117.455 30.9036 117.455 
       30.9036 117.455 30.9036 117.455 30.9036 117.455 30.9036 117.455 
       30.9036 117.455 30.9036 117.455 "
       style=" stroke:#000000; stroke-width:1; fill:#ffc283; fill-opacity:100%"></polygon>
      <polygon points="19.3367 92.1581 20.1916 93.7384 20.7616 95.6347 
       21.3316 97.5308 21.9015 99.1111 22.1865 101.007 22.7565 102.903 
       23.3264 104.799 23.8964 106.696 24.1814 107.328 24.4664 108.276 
       24.7513 109.224 25.3213 110.172 25.6063 111.12 26.1762 112.068 
       26.7463 113.332 27.6012 114.281 28.4561 115.545 29.311 116.493 
       30.166 117.441 31.3059 118.073 32.1608 118.705 33.3008 119.337 
       34.4407 119.653 35.8657 119.969 36.7206 119.653 37.8605 119.337 
       38.4304 119.021 39.2853 118.389 39.8553 117.757 40.7102 117.125 
       41.2803 116.177 41.8501 115.229 42.4202 114.281 42.705 113.332 
       42.9901 112.384 43.5601 111.436 43.8449 110.488 44.13 109.54 
       44.415 108.908 44.7 107.96 45.2699 106.38 45.5549 104.484 
       46.1248 102.587 46.4098 101.007 46.6948 99.1111 47.2647 97.5308 
       48.1198 95.9506 48.9747 94.0544 49.8296 94.3705 50.6845 94.3705 
       51.2545 94.0544 51.8244 93.7384 52.9643 92.4742 53.2494 91.8423 
       53.2494 91.2102 53.5344 90.5781 53.2494 89.6301 53.2494 88.9978 
       52.9643 88.3659 51.8244 87.4178 51.2545 87.1017 50.3996 87.1017 
       50.1146 84.5735 49.8296 81.7292 49.5446 78.8848 49.2597 76.3566 
       48.9747 73.5123 48.6897 70.984 48.1198 68.4558 47.2647 65.6115 
       41.8501 65.2954 44.415 67.5077 31.8758 64.0313 35.2956 67.1916 
       29.881 65.2954 27.3161 67.1916 23.3264 67.8237 20.7616 65.2954 
       20.1916 70.0359 19.6217 64.9794 18.7668 67.5077 18.1968 70.0359 
       18.1968 72.5642 18.1968 75.4085 18.4818 77.9368 18.7668 80.7811 
       19.0517 83.6253 19.0517 86.4696 17.9118 86.1535 17.0569 86.4696 
       16.2019 86.7857 15.632 87.1017 15.062 88.3659 15.062 88.9978 
       15.062 89.6301 15.347 90.5781 15.632 91.2102 16.4869 91.8423 
       17.0569 92.1581 17.6268 92.4742 18.4818 92.4742 19.3367 92.1581 
       19.3367 92.1581 19.3367 92.1581 19.3367 92.1581 19.3367 92.1581 
       19.3367 92.1581 19.3367 92.1581 19.3367 92.1581 "
       style=" stroke:#000000; stroke-width:1; fill:#ffc283; fill-opacity:100%"></polygon>
      <polygon points="28.7866 76.2873 29.0786 76.2873 29.6626 76.2873 
       29.9546 76.6114 30.5385 76.6114 30.8306 76.9355 31.1227 77.2595 
       31.7066 77.5836 31.9987 77.9077 32.2907 78.2319 32.5828 78.5558 
       32.5828 78.8799 32.8746 79.5282 32.8746 79.8521 33.1667 80.5004 
       33.1667 80.8245 33.1667 81.4725 33.1667 81.7967 33.1667 82.4447 
       32.8746 83.093 32.8746 83.4171 32.5828 84.0651 32.5828 84.3893 
       32.2907 84.7134 31.9987 85.0373 31.7066 85.3615 31.1227 85.6856 
       30.8306 86.0097 30.5385 86.3336 29.9546 86.3336 29.6626 86.6578 
       29.0786 86.6578 28.7866 86.6578 28.4945 86.6578 27.9106 86.6578 
       27.3265 86.3336 27.0344 86.3336 26.7425 86.0097 26.1584 85.6856 
       25.8663 85.3615 25.5745 85.0373 25.2824 84.7134 24.9904 84.3893 
       24.6983 84.0651 24.6983 83.4171 24.4064 83.093 24.4064 82.4447 
       24.1144 82.1208 24.1144 81.4725 24.1144 81.1484 24.4064 80.5004 
       24.4064 79.8521 24.6983 79.5282 24.6983 78.8799 24.9904 78.5558 
       25.2824 78.2319 25.5745 77.9077 25.8663 77.5836 26.1584 77.2595 
       26.7425 76.9355 27.0344 76.6114 27.3265 76.6114 27.9106 76.2873 
       28.2024 76.2873 28.7866 76.2873 28.7866 76.2873 28.7866 76.2873 
       28.7866 76.2873 28.7866 76.2873 28.7866 76.2873 28.7866 76.2873 28.7866 76.2873 "
       style=" stroke:#000000; stroke-width:1; fill:#ffffff; fill-opacity:100%"></polygon>
      <polygon points="41.2336 75.3446 41.2336 75.3446 42.1096 75.6687 
       42.4016 75.6687 42.9855 75.9926 43.2776 75.9926 43.5697 76.3168 
       43.8615 76.6409 44.4457 76.965 44.4457 77.2889 44.7377 77.9372 
       45.0296 78.2613 45.3216 78.5852 45.3216 79.2335 45.6137 79.5576 
       45.6137 80.2057 45.6137 80.5298 45.6137 80.8539 45.6137 81.8261 
       45.3216 82.1502 45.3216 82.7983 45.0296 83.1224 44.7377 83.4466 
       44.4457 84.0946 44.4457 84.4187 43.8615 84.7429 43.5697 85.0668 
       43.2776 85.0668 42.9855 85.3909 42.4016 85.7151 42.1096 85.7151 
       41.5254 85.7151 41.2336 85.7151 40.9415 85.7151 40.3574 85.7151 
       39.7735 85.7151 39.1893 85.3909 38.8975 85.0668 38.6054 85.0668 
       38.3133 84.7429 38.0215 84.4187 37.7294 84.0946 37.4374 83.4466 
       37.1453 83.1224 36.8534 82.7983 36.8534 82.1502 36.8534 81.8261 
       36.5614 81.1779 36.5614 80.5298 36.5614 80.5298 36.8534 79.5576 
       36.8534 79.2335 36.8534 78.5852 37.1453 78.2613 37.4374 77.9372 
       37.7294 77.2889 38.0215 76.965 38.3133 76.6409 38.6054 76.3168 
       38.8975 75.9926 39.1893 75.9926 39.7735 75.6687 40.3574 75.6687 
       40.6494 75.3446 41.2336 75.3446 41.2336 75.3446 41.2336 75.3446 
       41.2336 75.3446 41.2336 75.3446 41.2336 75.3446 41.2336 75.3446 41.2336 75.3446 "
       style=" stroke:#000000; stroke-width:1; fill:#ffffff; fill-opacity:100%"></polygon>
      <polygon points="30.9035 82.7296 30.9035 82.7296 30.5892 82.376 
       30.5892 82.376 30.5892 82.376 30.5892 82.0226 30.5892 82.0226 
       30.5892 82.0226 30.5892 82.0226 30.275 81.669 30.275 81.669 
       30.275 81.669 29.9607 81.669 29.9607 81.669 29.9607 81.669 
       29.6463 81.3154 29.6463 81.3154 29.6463 81.3154 29.3319 81.3154 
       29.3319 81.3154 29.0178 81.3154 29.0178 81.3154 29.0178 81.669 
       28.7034 81.669 28.7034 81.669 28.7034 81.669 28.389 81.669 
       28.389 81.669 28.389 82.0226 28.389 82.0226 28.0747 82.0226 
       28.0747 82.0226 28.0747 82.376 28.0747 82.376 28.0747 82.376 
       28.0747 82.7296 28.0747 82.7296 28.0747 82.7296 28.0747 83.0832 
       28.0747 83.0832 28.0747 83.0832 28.0747 83.4368 28.0747 83.4368 
       28.389 83.4368 28.389 83.4368 28.389 83.7901 28.389 83.7901 
       28.7034 83.7901 28.7034 83.7901 28.7034 83.7901 29.0178 83.7901 
       29.0178 84.1437 29.0178 84.1437 29.3319 84.1437 29.3319 84.1437 
       29.6463 84.1437 29.6463 84.1437 29.6463 84.1437 29.9607 83.7901 
       29.9607 83.7901 29.9607 83.7901 30.275 83.7901 30.275 83.7901 
       30.275 83.7901 30.5892 83.4368 30.5892 83.4368 30.5892 83.4368 
       30.5892 83.4368 30.5892 83.0832 30.5892 83.0832 30.5892 83.0832 
       30.9035 82.7296 30.9035 82.7296 30.9035 82.7296 30.9035 82.7296 
       30.9035 82.7296 30.9035 82.7296 30.9035 82.7296 30.9035 82.7296 30.9035 82.7296 "
       style=" stroke:#000000; stroke-width:1; fill:#000000; fill-opacity:100%"></polygon>
      <polygon points="42.219 82.1012 41.9046 82.1012 41.9046 81.7476 
       41.9046 81.7476 41.9046 81.7476 41.9046 81.394 41.9046 81.394 
       41.9046 81.394 41.5903 81.394 41.5903 81.0404 41.5903 81.0404 
       41.5903 81.0404 41.2761 81.0404 41.2761 81.0404 41.2761 80.687 
       40.9617 80.687 40.9617 80.687 40.6474 80.687 40.6474 80.687 
       40.6474 80.687 40.333 80.687 40.333 80.687 40.333 80.687 
       40.0189 81.0404 40.0189 81.0404 40.0189 81.0404 39.7045 81.0404 
       39.7045 81.0404 39.7045 81.394 39.3901 81.394 39.3901 81.394 
       39.3901 81.394 39.3901 81.7476 39.3901 81.7476 39.3901 81.7476 
       39.3901 82.1012 39.3901 82.1012 39.3901 82.1012 39.3901 82.4545 
       39.3901 82.4545 39.3901 82.4545 39.3901 82.4545 39.3901 82.8081 
       39.3901 82.8081 39.7045 82.8081 39.7045 83.1617 39.7045 83.1617 
       40.0189 83.1617 40.0189 83.1617 40.0189 83.1617 40.333 83.1617 
       40.333 83.5153 40.333 83.5153 40.6474 83.5153 40.6474 83.5153 
       40.6474 83.5153 40.9617 83.5153 40.9617 83.5153 41.2761 83.1617 
       41.2761 83.1617 41.2761 83.1617 41.5903 83.1617 41.5903 83.1617 
       41.5903 83.1617 41.5903 82.8081 41.9046 82.8081 41.9046 82.8081 
       41.9046 82.4545 41.9046 82.4545 41.9046 82.4545 41.9046 82.4545 
       41.9046 82.1012 42.219 82.1012 42.219 82.1012 42.219 82.1012 
       42.219 82.1012 42.219 82.1012 42.219 82.1012 42.219 82.1012 42.219 82.1012 "
       style=" stroke:#000000; stroke-width:1; fill:#000000; fill-opacity:100%"></polygon>
      <polyline points="24.963 75.9731 25.2773 74.6018 25.9059 73.5733 
       26.849 72.8876 27.7918 72.202"
       style=" stroke:#000000; stroke-width:1;"></polyline>
      <polyline points="39.6731 72.5162 40.8855 72.5162 42.0979 72.8754 
       43.0071 73.5937 43.9164 75.0303"
       style=" stroke:#000000; stroke-width:1;"></polyline>
      <polygon points="26.3774 93.5714 27.2412 94.5383 28.105 95.5054 
       29.2567 96.4723 30.1207 97.1169 31.2724 97.7616 32.1362 98.0839 
       33.2879 98.4061 34.4397 98.4061 35.3035 98.4061 36.4552 98.0839 
       37.607 97.7616 38.4707 97.4392 39.6225 96.4723 40.4862 95.8276 
       41.3502 94.5383 42.5019 93.5714 41.926 94.8607 41.3502 96.4723 
       40.7742 97.7616 40.1984 99.3732 39.6225 100.662 39.3345 102.274 
       39.0467 104.208 39.0467 106.142 38.4707 105.497 37.319 104.852 
       36.1672 104.53 34.7277 104.208 33.5759 104.208 32.1362 104.53 
       30.6965 104.852 29.5447 105.82 29.8327 104.208 29.5447 102.596 
       29.2567 100.985 28.6809 99.6954 28.105 98.0839 27.5292 96.4723 
       26.9532 94.8607 26.3774 93.5714 26.3774 93.5714 26.3774 93.5714 
       26.3774 93.5714 26.3774 93.5714 26.3774 93.5714 26.3774 93.5714 26.3774 93.5714 "
       style=" stroke:#000000; stroke-width:1; fill:#ffffff; fill-opacity:100%"></polygon>
      <polyline points="28.9235 99.909 30.084 100.642 31.8248 101.009 
       33.2755 101.375 35.0163 101.742 36.467 101.375 37.9178 101.009 
       39.0783 100.276 40.2389 99.5423"
       style=" stroke:#000000; stroke-width:1;"></polyline>
      <polyline points="30.9036 97.6568 30.9036 104.885"
       style=" stroke:#000000; stroke-width:1;"></polyline>
      <polyline points="34.5812 98.2853 34.5812 104.256"
       style=" stroke:#000000; stroke-width:1;"></polyline>
      <polyline points="37.9758 97.6568 37.9758 105.199"
       style=" stroke:#000000; stroke-width:1;"></polyline>
      <polyline points="31.7522 109.913 32.9466 109.075 34.4397 108.656 
       35.9327 109.075 37.1271 109.913"
       style=" stroke:#000000; stroke-width:1;"></polyline>
      <polyline points="16.1936 89.0005 16.1936 88.3149 16.8222 87.2863 
       18.3938 87.2863 18.7081 87.6292 18.7081 88.3149 17.4508 88.3149 
       17.1365 89.6862 17.7651 89.6862 18.0795 90.0289 18.3938 90.0289 
       18.7081 89.6862 18.7081 89.6862 19.0224 90.0289 19.0224 90.7147 
       19.0224 91.0573 18.7081 91.0573"
       style=" stroke:#000000; stroke-width:1;"></polyline>
      <polyline points="52.12 89.9051 52.12 89.2243 51.8056 88.8838 
       51.4915 88.8838 51.1771 88.5433 50.5484 88.5433 50.2342 88.5433 
       49.6055 89.2243 49.6055 90.5861 49.9198 90.5861 50.2342 90.9264 
       50.5484 90.5861 50.8627 90.5861 51.1771 90.5861 51.1771 91.6074 
       50.8627 91.9479 50.5484 91.9479 50.2342 91.9479 49.9198 91.9479 
       49.6055 91.9479 49.2911 91.9479 49.2911 92.2881 49.2911 92.6286"
       style=" stroke:#000000; stroke-width:1;"></polyline>
      <polyline points="94.27 104.728 95.477 103.366 96.0804 103.025 
       96.684 102.685 97.5892 103.025 98.1928 103.366 98.7962 104.047 
       98.7962 104.728 98.1928 105.749 97.891 106.43 97.2874 106.77 
       96.0804 106.43 94.8734 105.749 94.27 105.068 94.27 104.728"
       style=" stroke:#000000; stroke-width:1;"></polyline>
      <polygon points="94.5529 104.885 94.9064 104.885 95.26 105.278 
       95.6137 105.67 95.9674 106.063 95.9674 106.456 94.9064 105.67 
       94.5529 105.278 94.5529 104.885 94.5529 104.885 94.5529 104.885 
       94.5529 104.885 94.5529 104.885 94.5529 104.885 94.5529 104.885 94.5529 104.885 "
       style=" stroke:#000000; stroke-width:1; fill:#ffffff; fill-opacity:100%"></polygon>
      <polyline points="107.283 81.944 174.609 81.944"
       style=" stroke:#000000; stroke-width:1;"></polyline>
      <polyline points="107.283 90.1146 174.609 90.1146"
       style=" stroke:#000000; stroke-width:1;"></polyline>
      <polyline points="107.283 98.2853 174.609 98.2853"
       style=" stroke:#000000; stroke-width:1;"></polyline>
      <polyline points="107.283 106.456 174.609 106.456"
       style=" stroke:#000000; stroke-width:1;"></polyline>
      <polyline points="107.283 114.627 174.609 114.627"
       style=" stroke:#000000; stroke-width:1;"></polyline>
      <polyline points="107.283 122.797 174.609 122.797"
       style=" stroke:#000000; stroke-width:1;"></polyline>
      <polyline points="107.283 131.282 174.609 131.282"
       style=" stroke:#000000; stroke-width:1;"></polyline>
      <polyline points="107.283 139.453 174.609 139.453"
       style=" stroke:#000000; stroke-width:1;"></polyline>
      <polygon points="98.2303 102.979 135.005 80.0584 99.3707 104.57 
       98.2303 102.979 98.2303 102.979 98.2303 102.979 98.2303 102.979 
       98.2303 102.979 98.2303 102.979 98.2303 102.979 98.2303 102.979 "
       style=" stroke:#000000; stroke-width:1; fill:#ffff14; fill-opacity:100%"></polygon>
      <polygon points="137.552 79.5871 137.552 79.5871 137.552 79.5871 
       137.24 79.2335 137.24 79.2335 137.24 78.8799 137.24 78.8799 
       137.24 78.8799 137.24 78.5263 136.929 78.5263 136.929 78.5263 
       136.929 78.5263 136.618 78.5263 136.618 78.1729 136.618 78.1729 
       136.307 78.1729 136.307 78.1729 135.996 78.1729 135.996 78.1729 
       135.996 78.1729 135.685 78.1729 135.685 78.1729 135.685 78.1729 
       135.373 78.1729 135.373 78.5263 135.062 78.5263 135.062 78.5263 
       135.062 78.5263 135.062 78.5263 134.751 78.8799 134.751 78.8799 
       134.751 78.8799 134.751 79.2335 134.751 79.2335 134.44 79.5871 
       134.44 79.5871 134.44 79.5871 134.44 79.9405 134.44 79.9405 
       134.751 79.9405 134.751 80.2941 134.751 80.2941 134.751 80.2941 
       134.751 80.6477 135.062 80.6477 135.062 80.6477 135.062 80.6477 
       135.062 81.0013 135.373 81.0013 135.373 81.0013 135.685 81.0013 
       135.685 81.0013 135.685 81.0013 135.996 81.0013 135.996 81.0013 
       135.996 81.0013 136.307 81.0013 136.307 81.0013 136.618 81.0013 
       136.618 81.0013 136.618 81.0013 136.929 81.0013 136.929 80.6477 
       136.929 80.6477 137.24 80.6477 137.24 80.6477 137.24 80.2941 
       137.24 80.2941 137.24 80.2941 137.24 79.9405 137.552 79.9405 
       137.552 79.9405 137.552 79.5871 137.552 79.5871 137.552 79.5871 
       137.552 79.5871 137.552 79.5871 137.552 79.5871 137.552 79.5871 137.552 79.5871 "
       style=" stroke:#000000; stroke-width:1; fill:#ffff14; fill-opacity:100%"></polygon>
      <polyline points="31.4693 87.7214 31.7631 88.7367 32.0569 89.4136 
       32.6444 90.0903 33.232 90.0903 34.1132 90.4288 35.5821 90.4288 
       36.7571 90.4288 37.6384 90.0903 37.9322 89.7521 38.8134 88.7367 
       38.8134 87.7214 39.1072 87.0447 39.1072 86.0292"
       style=" stroke:#000000; stroke-width:1;"></polyline>
      <polyline points="32.6009 85.4008 33.5149 84.5629 34.1241 84.5629 
       35.038 84.1438 35.6474 84.5629 36.5613 84.5629"
       style=" stroke:#000000; stroke-width:1;"></polyline>
    </g>
    <g>
      <desc>METIS_TEXT_GROUP</desc>
      <text  x="421.3" y="171.94"
       style=" stroke:#000000; stroke-width:1; font-family:sans-serif; font-size:13;"
       class="TAG:strat_value_csf">strat_value</text>
      <rect x="421.3" y="159.14" width="229.3" height="75.0429"
       style=" stroke:#000000; stroke-width:1; fill:#ffffff; fill-opacity:0%"></rect>
    </g>
  </symbol>
 </defs>
</svg>
