<?xml version="1.0"?>
<?metis version="3.2.1"?>
<?metisxml version="1.1"?>
<!DOCTYPE svg  PUBLIC "-//W3C//DTD SVG August 1999//EN"
 "http://www.w3.org/Graphics/SVG/svg-19990812.dtd">

<svg width="200" height="200">
 <title>Symbol library: business_function.svg</title>
 <defs>
  <symbol id="oid0" xml:space="preserve" class="METIS_SYMBOL">
   <title>Business Function</title>
    <polygon points="0 0 0 304 16.2963 320 
     880 320 880 16 863.704 0 0 0 
     0 0 0 0 0 0 0 0 
     0 0 0 0 0 0 0 0 
     0 0 0 0 0 0 "
     style=" stroke:#000000; stroke-width:1; fill:#9b9b9b; fill-opacity:100%"     class="TAG:shadow"></polygon>
    <rect x="0" y="0" width="240" height="304"
     style=" stroke:#000000; stroke-width:1; fill:#ffffa5; fill-opacity:100%"     class="TAG:PictureBackground"></rect>
    <rect x="240" y="0" width="624" height="304"
     style=" stroke:#000000; stroke-width:1; fill:#ffffff; fill-opacity:100%"     class="TAG:canvas"></rect>
    <g>
      <desc>METIS_TEXT_GROUP</desc>
      <text  x="256" y="15"
       style=" stroke:#000000; stroke-width:1; font-family:sans-serif; font-size:16;"
       class="TAG:text">text</text>
      <rect x="256" y="0" width="608" height="304"
       style=" stroke:#000000; stroke-width:1; fill:#ffffff; fill-opacity:0%"></rect>
    </g>
    <polyline points="864 304 880 320"
     style=" stroke:#000000; stroke-width:1;"></polyline>
    <g>
      <polygon points="108.253 125.935 108.993 137.956 113.435 200.885 
       112.695 190.986 108.253 125.935 108.253 125.935 108.253 125.935 108.253 125.935 "
       style=" stroke:#000000; stroke-width:1; fill:#038303; fill-opacity:100%"></polygon>
      <polygon points="112.734 190.886 113.435 200.885 91.6982 175.888 
       89.5947 164.46 112.734 190.886 112.734 190.886 112.734 190.886 112.734 190.886 "
       style=" stroke:#000000; stroke-width:1; fill:#038303; fill-opacity:100%"></polygon>
      <polygon points="89.9273 164.46 92.0133 175.81 43.6848 220.498 
       36.731 210.567 89.9273 164.46 89.9273 164.46 89.9273 164.46 89.9273 164.46 "
       style=" stroke:#000000; stroke-width:1; fill:#038303; fill-opacity:100%"></polygon>
      <polygon points="36.99 210.547 43.9866 220.498 23.3464 183.538 
       16 172.166 36.99 210.547 36.99 210.547 36.99 210.547 36.99 210.547 "
       style=" stroke:#000000; stroke-width:1; fill:#038303; fill-opacity:100%"></polygon>
      <polygon points="16 172.693 23.3032 184.074 69.2093 149.223 
       66.0794 137.843 16 172.693 16 172.693 16 172.693 16 172.693 "
       style=" stroke:#000000; stroke-width:1; fill:#038303; fill-opacity:100%"></polygon>
      <polygon points="50.8969 121.032 54.7202 133.436 109.289 138.544 
       108.594 126.14 50.8969 121.032 50.8969 121.032 50.8969 121.032 50.8969 121.032 "
       style=" stroke:#000000; stroke-width:1; fill:#038303; fill-opacity:100%"></polygon>
      <polygon points="51.5881 84.2686 55.0885 95.8154 78.1926 82.8253 
       76.4424 72 51.5881 84.2686 51.5881 84.2686 51.5881 84.2686 51.5881 84.2686 "
       style=" stroke:#000000; stroke-width:1; fill:#038303; fill-opacity:100%"></polygon>
      <polygon points="76.1196 72 77.8741 82.7763 98.578 100.019 
       97.5253 87.8054 76.1196 72 76.1196 72 76.1196 72 76.1196 72 "
       style=" stroke:#000000; stroke-width:1; fill:#038303; fill-opacity:100%"></polygon>
      <polygon points="97.196 87.7135 98.254 100.019 114.126 89.8855 
       113.773 78.3042 97.196 87.7135 97.196 87.7135 97.196 87.7135 97.196 87.7135 "
       style=" stroke:#000000; stroke-width:1; fill:#038303; fill-opacity:100%"></polygon>
      <polygon points="113.766 78.3042 114.126 89.6838 106.555 124.534 
       105.834 112.444 113.766 78.3042 113.766 78.3042 113.766 78.3042 113.766 78.3042 "
       style=" stroke:#000000; stroke-width:1; fill:#038303; fill-opacity:100%"></polygon>
      <polygon points="131.06 128.961 130.365 141.345 184.932 135.518 
       189.103 123.133 131.06 128.961 131.06 128.961 131.06 128.961 131.06 128.961 "
       style=" stroke:#000000; stroke-width:1; fill:#038303; fill-opacity:100%"></polygon>
      <polygon points="189.103 123.133 184.88 135.331 170.1 152.553 
       173.619 140.354 189.103 123.133 189.103 123.133 189.103 123.133 189.103 123.133 "
       style=" stroke:#000000; stroke-width:1; fill:#038303; fill-opacity:100%"></polygon>
      <polygon points="173.577 139.944 170.1 152.033 216.35 186.876 
       224 175.498 173.577 139.944 173.577 139.944 173.577 139.944 173.577 139.944 "
       style=" stroke:#000000; stroke-width:1; fill:#038303; fill-opacity:100%"></polygon>
      <polygon points="224 174.968 216.306 186.338 195.322 224 
       201.967 214.762 224 174.968 224 174.968 224 174.968 224 174.968 "
       style=" stroke:#000000; stroke-width:1; fill:#038303; fill-opacity:100%"></polygon>
      <polygon points="202.233 214.779 195.626 224 146.95 179.312 
       149.036 167.963 202.233 214.779 202.233 214.779 202.233 214.779 202.233 214.779 "
       style=" stroke:#000000; stroke-width:1; fill:#038303; fill-opacity:100%"></polygon>
      <polygon points="149.369 167.963 147.265 179.386 125.528 205.088 
       125.879 194.379 149.369 167.963 149.369 167.963 149.369 167.963 149.369 167.963 "
       style=" stroke:#000000; stroke-width:1; fill:#038303; fill-opacity:100%"></polygon>
      <polygon points="125.895 194.483 125.528 205.087 130.668 140.755 
       131.402 128.737 125.895 194.483 125.895 194.483 125.895 194.483 125.895 194.483 "
       style=" stroke:#000000; stroke-width:1; fill:#038303; fill-opacity:100%"></polygon>
      <polygon points="119.655 79.0046 119.655 90.5856 135.188 100.719 
       135.894 89.1375 119.655 79.0046 119.655 79.0046 119.655 79.0046 119.655 79.0046 "
       style=" stroke:#000000; stroke-width:1; fill:#038303; fill-opacity:100%"></polygon>
      <polygon points="135.559 89.2244 134.857 100.719 156.253 84.1951 
       158.007 72.7004 135.559 89.2244 135.559 89.2244 135.559 89.2244 135.559 89.2244 "
       style=" stroke:#000000; stroke-width:1; fill:#038303; fill-opacity:100%"></polygon>
      <polygon points="157.685 72.7004 155.934 84.2375 179.046 97.2165 
       181.847 85.6793 157.685 72.7004 157.685 72.7004 157.685 72.7004 157.685 72.7004 "
       style=" stroke:#000000; stroke-width:1; fill:#038303; fill-opacity:100%"></polygon>
      <polygon points="181.847 85.3088 179.042 96.7711 158.007 116.83 
       160.11 104.651 181.847 85.3088 181.847 85.3088 181.847 85.3088 181.847 85.3088 "
       style=" stroke:#000000; stroke-width:1; fill:#038303; fill-opacity:100%"></polygon>
      <polygon points="160.11 104.221 158.007 116.459 178.687 130.138 
       182.193 117.899 160.11 104.221 160.11 104.221 160.11 104.221 160.11 104.221 "
       style=" stroke:#000000; stroke-width:1; fill:#038303; fill-opacity:100%"></polygon>
      <polygon points="182.193 117.712 178.716 130.138 125.183 125.752 
       125.183 113.327 182.193 117.712 182.193 117.712 182.193 117.712 182.193 117.712 "
       style=" stroke:#000000; stroke-width:1; fill:#038303; fill-opacity:100%"></polygon>
      <polygon points="125.528 113.847 125.528 125.935 119.655 90.3818 
       119.655 79.0046 125.528 113.847 125.528 113.847 125.528 113.847 125.528 113.847 "
       style=" stroke:#000000; stroke-width:1; fill:#038303; fill-opacity:100%"></polygon>
      <polygon points="72.6284 103.26 75.0832 114.729 55.0947 95.376 
       51.5881 83.9078 72.6284 103.26 72.6284 103.26 72.6284 103.26 72.6284 103.26 "
       style=" stroke:#000000; stroke-width:1; fill:#038303; fill-opacity:100%"></polygon>
      <polygon points="49.8604 115.778 53.7137 128.737 75.0829 114.339 
       72.6305 102.82 49.8604 115.778 49.8604 115.778 49.8604 115.778 49.8604 115.778 "
       style=" stroke:#000000; stroke-width:1; fill:#038303; fill-opacity:100%"></polygon>
      <polygon points="106.175 111.926 106.87 124.351 53.6843 128.737 
       49.8604 115.58 106.175 111.926 106.175 111.926 106.175 111.926 106.175 111.926 "
       style=" stroke:#000000; stroke-width:1; fill:#038303; fill-opacity:100%"></polygon>
      <polygon points="66.0397 138.263 69.2091 149.752 54.7707 133.238 
       50.8969 121.032 66.0397 138.263 66.0397 138.263 66.0397 138.263 66.0397 138.263 "
       style=" stroke:#000000; stroke-width:1; fill:#038303; fill-opacity:100%"></polygon>
      <polygon points="108.583 125.974 112.744 190.923 89.8586 164.802 
       36.8053 210.691 16 172.568 65.9325 137.976 51.0221 121.032 
       108.583 125.974 108.583 125.974 108.583 125.974 108.583 125.974 "
       style=" stroke:#000000; stroke-width:1; fill:#00ff00; fill-opacity:100%"></polygon>
      <polygon points="106.138 112.57 49.8604 116.129 72.441 103.317 
       51.5975 84.0999 76.2625 72 97.4533 87.6586 113.781 78.4058 
       106.138 112.57 106.138 112.57 106.138 112.57 106.138 112.57 "
       style=" stroke:#000000; stroke-width:1; fill:#00ff00; fill-opacity:100%"></polygon>
      <polygon points="131.075 128.78 188.98 123.133 173.723 140.074 
       224 175.367 202.156 214.893 149.105 168.308 125.874 194.424 
       131.075 128.78 131.075 128.78 131.075 128.78 131.075 128.78 "
       style=" stroke:#000000; stroke-width:1; fill:#00ff00; fill-opacity:100%"></polygon>
      <polygon points="125.213 113.962 119.655 79.1031 135.636 89.0627 
       157.872 72.7004 181.845 85.5055 160.304 104.713 182.193 118.231 
       125.213 113.962 125.213 113.962 125.213 113.962 125.213 113.962 "
       style=" stroke:#000000; stroke-width:1; fill:#00ff00; fill-opacity:100%"></polygon>
    </g>
  </symbol>
 </defs>
</svg>
