<?xml version="1.0" encoding="UTF-8" standalone="no"?>

<svg
 xmlns:dc="http://purl.org/dc/elements/1.1/"
   xmlns:cc="http://creativecommons.org/ns#"
   xmlns:rdf="http://www.w3.org/1999/02/22-rdf-syntax-ns#"
   xmlns:svg="http://www.w3.org/2000/svg"
   xmlns="http://www.w3.org/2000/svg"
   xmlns:xlink="http://www.w3.org/1999/xlink"
   xmlns:sodipodi="http://sodipodi.sourceforge.net/DTD/sodipodi-0.dtd"
   xmlns:inkscape="http://www.inkscape.org/namespaces/inkscape"
   id="svg2"
   version="1.1"
   inkscape:version="0.47 r22583"
   width="100"
   height="100"
   sodipodi:docname="business_process_service.svg">
  <metadata
     id="metadata106">
    <rdf:RDF>
      <cc:Work
         rdf:about="">
        <dc:format>image/svg+xml</dc:format>
        <dc:type
           rdf:resource="http://purl.org/dc/dcmitype/StillImage" />
      </cc:Work>
    </rdf:RDF>
  </metadata>
  <defs
     id="defs104">
    <linearGradient
       inkscape:collect="always"
       id="linearGradient3694">
      <stop
         style="stop-color:#000000;stop-opacity:1;"
         offset="0"
         id="stop3696" />
      <stop
         style="stop-color:#000000;stop-opacity:0;"
         offset="1"
         id="stop3698" />
    </linearGradient>
    <linearGradient
       inkscape:collect="always"
       id="linearGradient3686">
      <stop
         style="stop-color:#2d5a70;stop-opacity:1;"
         offset="0"
         id="stop3688" />
      <stop
         style="stop-color:#2d5a70;stop-opacity:0;"
         offset="1"
         id="stop3690" />
    </linearGradient>
    <inkscape:perspective
       sodipodi:type="inkscape:persp3d"
       inkscape:vp_x="0 : 0.5 : 1"
       inkscape:vp_y="0 : 1000 : 0"
       inkscape:vp_z="1 : 0.5 : 1"
       inkscape:persp3d-origin="0.5 : 0.33333333 : 1"
       id="perspective108" />
    <linearGradient
       inkscape:collect="always"
       xlink:href="#linearGradient3686"
       id="linearGradient3692"
       x1="7.8125"
       y1="789.0625"
       x2="617.18701"
       y2="789.0625"
       gradientUnits="userSpaceOnUse" />
    <linearGradient
       inkscape:collect="always"
       xlink:href="#linearGradient3694"
       id="linearGradient3700"
       x1="101.562"
       y1="386.71799"
       x2="984.37402"
       y2="386.71799"
       gradientUnits="userSpaceOnUse" />
  </defs>
  <sodipodi:namedview
     pagecolor="#ffffff"
     bordercolor="#666666"
     borderopacity="1"
     objecttolerance="10"
     gridtolerance="10"
     guidetolerance="10"
     inkscape:pageopacity="0"
     inkscape:pageshadow="2"
     inkscape:window-width="1680"
     inkscape:window-height="994"
     id="namedview102"
     showgrid="false"
     inkscape:zoom="0.22425739"
     inkscape:cx="-283.44954"
     inkscape:cy="1041.8189"
     inkscape:window-x="-4"
     inkscape:window-y="-4"
     inkscape:window-maximized="1"
     inkscape:current-layer="svg2" />
  <polygon
     points="1007.81,0 1007.81,1007.81 1007.81,1007.81 0,1007.81 0,0 "
     style="fill:#ffffff;fill-opacity:0;stroke:none"
     id="polygon4"
     transform="scale(0.06377551,0.06377551)" />
  <polygon
     points="657.782,70.312 984.375,311.022 984.375,311.022 912.684,367.187 578.125,126.478 "
     style="fill:#632727;fill-opacity:1;stroke:none"
     id="polygon6"
     transform="scale(0.06377551,0.06377551)" />
  <polygon
     points="984.374,304.688 799.072,616 799.072,616 726.562,671.876 911.865,360.564 "
     style="fill:#612727;fill-opacity:1;stroke:none"
     id="polygon8"
     transform="scale(0.06377551,0.06377551)" />
  <polygon
     points="734.375,687.5 811.719,633.928 820.313,625 820.313,625 "
     style="fill:#602626;fill-opacity:1;stroke:none"
     id="polygon10"
     transform="scale(0.06377551,0.06377551)" />
  <polygon
     points="102.527,161.305 664.063,70.312 664.063,70.312 584.973,128.217 23.4375,210.937 "
     style="fill:#602626;fill-opacity:1;stroke:none"
     id="polygon12"
     transform="scale(0.06377551,0.06377551)" />
  <polygon
     points="85.9375,140.625 85.9375,149.415 85.9375,149.415 8.59375,210.938 0,202.148 "
     style="fill:#642828;fill-opacity:1;stroke:none"
     id="polygon14"
     transform="scale(0.06377551,0.06377551)" />
  <polygon
     points="104.352,156.25 250,420.672 250,420.672 177.176,468.75 23.4375,204.327 "
     style="fill:#853535;fill-opacity:1;stroke:none"
     id="polygon16"
     transform="scale(0.06377551,0.06377551)" />
  <polygon
     points="249.219,414.062 257.813,414.062 257.813,414.062 171.875,476.562 171.875,467.634 "
     style="fill:#853535;fill-opacity:1;stroke:none"
     id="polygon18"
     transform="scale(0.06377551,0.06377551)" />
  <polygon
     points="171.875,476.562 257.813,414.062 257.813,414.062 "
     style="fill:#843535;fill-opacity:1;stroke:none"
     id="polygon20"
     transform="scale(0.06377551,0.06377551)" />
  <polygon
     points="80.5496,148.438 242.188,420.541 242.188,420.541 161.369,476.563 7.8125,204.459 "
     style="fill:#642828;fill-opacity:1;stroke:none"
     id="polygon22"
     transform="scale(0.06377551,0.06377551)" />
  <polygon
     points="250.976,700.087 804.687,609.375 804.687,609.375 733.495,667.1 171.875,757.813 "
     style="fill:#803333;fill-opacity:1;stroke:none"
     id="polygon24"
     transform="scale(0.06377551,0.06377551)" />
  <polygon
     points="257.813,414.062 257.813,701.852 257.813,701.852 171.875,757.812 171.875,470.022 "
     style="fill:#843535;fill-opacity:1;stroke:none"
     id="polygon26"
     transform="scale(0.06377551,0.06377551)" />
  <polygon
     points="243.056,715.533 812.5,632.812 812.5,632.812 741.319,682.445 171.875,773.437 "
     style="fill:#602626;fill-opacity:1;stroke:none"
     id="polygon28"
     transform="scale(0.06377551,0.06377551)" />
  <polygon
     points="242.188,414.062 242.188,709.694 242.188,709.694 156.25,765.624 156.25,469.993 "
     style="fill:#632727;fill-opacity:1;stroke:none"
     id="polygon30"
     transform="scale(0.06377551,0.06377551)" />
  <polygon
     points="241.477,710.938 250,710.938 250,710.938 173.295,773.438 156.25,773.438 "
     style="fill:#602626;fill-opacity:1;stroke:none"
     id="polygon32"
     transform="scale(0.06377551,0.06377551)" />
  <polygon
     points="999.935,299.758 999.935,299.758 1007.81,307.664 818.724,631.789 810.846,639.694 243.578,718.75 235.699,718.75 235.699,710.844 235.699,418.34 78.125,149.554 78.125,141.648 86.0037,141.648 653.271,54.688 661.15,54.688 "
     style="fill:#bd4b4b;fill-opacity:1;stroke:none"
     id="polygon34"
     transform="scale(0.06377551,0.06377551)" />
  <polygon
     points="251.325,418.359 251.325,703.124 803.083,616.113 803.083,616.113 984.374,307.618 661.202,70.312 101.562,157.324 243.444,418.359 "
     style="fill:#ff6666;fill-opacity:1;stroke:none"
     id="polygon36"
     transform="scale(0.06377551,0.06377551)" />
  <polyline
     points="803.083 616.113 984.374 307.618 661.202 70.312         101.562 157.324 243.444 418.359 251.325 418.359 251.325 703.124         803.083 616.113"
     style="fill:url(#linearGradient3700);fill-opacity:1;stroke:none"
     id="polyline38"
     transform="scale(0.06377551,0.06377551)" />
  <polygon
     points="242.188,703.125 242.188,711.915 242.188,711.915 156.25,773.438 156.25,764.648 "
     style="fill:#632727;fill-opacity:1;stroke:none"
     id="polygon40"
     transform="scale(0.06377551,0.06377551)" />
  <polygon
     points="601.265,665.875 577.531,634.067 545.885,610.212 514.24,594.308 474.683,578.404 435.127,570.451 403.481,562.5 174.05,618.165 174.05,618.165 134.493,618.165 102.848,634.067 71.2025,657.924 47.4683,689.732 31.6455,729.491 15.8228,761.299 0,801.06 0,832.868 0,1007.81 625,1007.81 625,729.491 617.088,697.683 "
     style="fill:#000000;fill-opacity:1;stroke:none"
     id="polygon42"
     transform="scale(0.06377551,0.06377551)" />
  <polygon
     points="538.048,625.884 569.704,641.804 593.446,673.644 609.273,697.523 617.187,729.363 617.187,1000 7.8125,1000 7.8125,832.842 7.8125,832.842 15.7265,801.002 23.6404,761.202 39.4683,729.363 55.2963,697.523 86.9521,673.644 110.694,649.765 142.35,633.844 174.006,625.884 403.511,578.125 435.167,578.125 474.736,586.085 506.392,602.004 "
     style="fill:url(#linearGradient3692);fill-opacity:1;stroke:none"
     id="polygon44"
     transform="scale(0.06377551,0.06377551)" />
  <polygon
     points="436.123,1000 363.742,992.014 210.938,680.556 267.234,664.583 363.742,648.612 363.742,648.612 411.996,640.625 444.165,640.625 484.376,656.597 "
     style="fill:#ffffff;fill-opacity:1;stroke:none"
     id="polygon46"
     transform="scale(0.06377551,0.06377551)" />
  <polygon
     points="296.875,680.06 296.875,680.06 411.718,664.062 378.906,768.043 460.937,1000 329.687,1000 354.296,768.043 "
     style="fill:#77aa00;fill-opacity:1;stroke:none"
     id="polygon48"
     transform="scale(0.06377551,0.06377551)" />
  <polygon
     points="499.452,647.074 515.35,591.519 523.3,535.963 531.25,480.406 523.3,432.788 507.401,385.168 483.552,345.486 459.704,305.804 419.955,274.058 388.157,250.248 340.461,234.375 300.712,234.375 253.015,234.375 213.268,250.248 173.52,266.121 141.721,297.867 117.873,329.613 94.0241,369.296 78.125,408.978 78.125,456.597 78.125,456.597 86.0746,504.217 101.973,551.836 125.822,599.455 157.621,647.074 197.368,678.82 245.066,710.566 284.813,726.439 332.511,734.375 372.259,734.375 404.057,726.439 435.855,710.566 459.704,686.757 "
     style="fill:#b2510f;fill-opacity:1;stroke:none"
     id="polygon50"
     transform="scale(0.06377551,0.06377551)" />
  <polygon
     points="181.424,281.89 221.21,258.068 253.039,250.128 300.782,242.188 340.568,250.128 380.354,266.009 420.139,281.89 451.968,313.653 475.84,353.355 499.712,393.059 515.626,432.762 515.626,480.404 515.626,528.049 507.669,583.633 483.797,639.216 451.968,678.92 428.097,702.741 404.226,718.623 372.397,726.563 332.611,726.563 332.611,726.563 292.824,718.623 245.082,702.741 205.295,670.978 165.509,631.276 133.68,591.574 109.809,551.87 93.8947,504.227 85.9375,456.583 93.8947,416.88 101.851,377.177 125.723,337.475 149.596,305.713 "
     style="fill:#ff9900;fill-opacity:1;stroke:none"
     id="polygon52"
     transform="scale(0.06377551,0.06377551)" />
  <polygon
     points="78.3944,505.9 94.2888,561.704 118.131,593.592 126.078,601.563 134.024,601.563 134.024,593.592 126.078,569.675 126.078,553.731 126.078,545.759 134.024,537.787 165.813,537.787 189.655,545.759 205.55,553.731 213.497,545.759 229.391,513.871 245.286,489.956 261.18,474.012 324.757,489.956 380.388,489.956 428.072,481.983 459.86,481.983 507.544,466.04 515.49,458.068 523.438,434.153 523.438,386.32 515.49,362.405 507.544,330.517 491.649,298.629 467.808,274.714 467.808,274.714 412.177,234.853 340.653,210.938 300.916,210.938 269.127,210.938 229.391,218.909 189.655,226.881 157.866,242.826 134.024,266.741 110.183,290.656 94.2888,314.573 70.4472,378.348 62.5,434.153 "
     style="fill:#000000;fill-opacity:1;stroke:none"
     id="polygon54"
     transform="scale(0.06377551,0.06377551)" />
  <polygon
     points="1440,672 1440,1568 1440,1568 544,1568 544,672 "
     style="fill:#ffffff;fill-opacity:0;stroke:none"
     id="polygon56"
     transform="scale(0.06377551,0.06377551)" />
  <polygon
     points="1412.05,1363.1 1384.05,1348.78 1363.05,1320.12 1342.05,1269.99 1237.04,1262.82 1125.04,1255.66 992.028,1248.5 754.013,1248.5 677.009,1255.66 649.007,1262.82 635.006,1269.99 621.005,1284.31 614.004,1298.64 600.004,1327.29 586.003,1348.78 565.001,1363.1 544,1377.43 544,1420.41 544,1420.41 572.002,1427.57 656.007,1449.06 796.016,1470.54 901.023,1477.71 1020.03,1477.71 1139.04,1477.71 1230.04,1470.54 1300.05,1463.38 1356.05,1449.06 1419.05,1427.57 1433.06,1420.41 1433.06,1377.43 "
     style="fill:#000000;fill-opacity:1;stroke:none"
     id="polygon58"
     transform="scale(0.06377551,0.06377551)" />
  <polygon
     points="1349.71,1261.71 1349.71,1254.63 1349.71,1233.38 1342.69,1183.81 1321.66,1120.07 1307.63,1091.74 1286.59,1063.41 1244.51,1013.84 1216.46,992.595 1188.4,971.349 1146.33,957.184 1104.25,943.021 1055.15,935.939 992.035,935.939 921.902,935.939 872.811,943.021 823.719,957.184 788.652,971.349 760.6,992.595 732.548,1013.84 690.468,1056.33 690.468,1056.33 669.428,1084.66 655.401,1120.07 634.362,1183.81 627.349,1233.38 627.349,1254.63 627.349,1261.71 634.362,1261.71 746.572,1275.87 858.784,1290.04 992.035,1297.12 1125.29,1290.04 1237.5,1275.87 "
     style="fill:#000000;fill-opacity:1;stroke:none"
     id="polygon60"
     transform="scale(0.06377551,0.06377551)" />
  <polygon
     points="1237.54,1020.88 1279.63,1070.51 1300.67,1091.78 1314.7,1120.15 1335.75,1176.87 1342.76,1226.5 1342.76,1254.86 1223.51,1269.04 1111.28,1283.23 992.036,1283.23 865.774,1283.23 760.556,1269.04 634.294,1254.86 634.294,1226.5 648.325,1176.87 662.352,1113.06 676.382,1084.69 697.425,1063.42 697.425,1063.42 739.512,1020.88 767.571,999.608 795.629,978.337 830.701,964.156 872.789,949.975 928.905,942.885 992.036,942.885 1055.17,942.885 1104.27,949.975 1146.35,964.156 1181.43,978.337 1209.49,999.608 "
     style="fill:#aaaaaa;fill-opacity:1;stroke:none"
     id="polygon62"
     transform="scale(0.06377551,0.06377551)" />
  <polygon
     points="845.401,1199.16 866.579,1206.34 894.818,1220.71 923.056,1220.71 1014.83,1220.71 1064.25,1213.53 1085.43,1213.53 1099.55,1199.16 1106.61,1184.79 1106.61,1170.42 1099.55,1148.86 1085.43,1127.31 1043.07,1084.2 1007.77,1062.64 979.534,1062.64 951.295,1077.01 944.235,1077.01 930.116,1077.01 908.937,1062.64 880.698,1048.27 866.579,1026.71 852.46,1019.53 838.341,1012.34 824.222,1012.34 824.222,1012.34 788.923,1019.53 753.625,1033.9 732.447,1055.45 711.267,1077.01 690.088,1112.94 683.029,1148.86 675.97,1177.6 675.97,1191.97 683.029,1199.16 697.148,1199.16 760.685,1206.34 824.222,1199.16 "
     style="fill:#666666;fill-opacity:1;stroke:none"
     id="polygon64"
     transform="scale(0.06377551,0.06377551)" />
  <polygon
     points="881.02,1127.81 910.01,1098.29 946.249,1076.16 960.745,1068.78 960.745,1061.4 939.002,1054.02 881.02,1054.02 881.02,1054.02 866.525,1061.4 837.534,1068.78 815.791,1076.16 801.295,1090.92 794.047,1105.68 794.047,1127.81 794.047,1149.95 801.295,1164.71 815.791,1172.09 830.285,1172.09 852.029,1164.71 866.525,1164.71 "
     style="fill:#e5f2ff;fill-opacity:1;stroke:none"
     id="polygon66"
     transform="scale(0.06377551,0.06377551)" />
  <polygon
     points="953.8,797.024 953.8,880.373 1009.37,880.373 1009.37,797.024 1001.43,797.024 1001.43,797.024 "
     style="fill:#000000;fill-opacity:1;stroke:none"
     id="polygon68"
     transform="scale(0.06377551,0.06377551)" />
  <polygon
     points="960.745,803.97 1002.42,803.97 1002.42,803.97 1002.42,873.427 960.745,873.427 "
     style="fill:#8c8c8c;fill-opacity:1;stroke:none"
     id="polygon70"
     transform="scale(0.06377551,0.06377551)" />
  <polygon
     points="946.854,969.599 954.572,969.599 962.289,977.08 985.441,984.559 1000.88,984.559 1016.31,977.08 1016.31,969.599 1016.31,887.319 1008.59,887.319 1008.59,887.319 946.854,887.319 "
     style="fill:#000000;fill-opacity:1;stroke:none"
     id="polygon72"
     transform="scale(0.06377551,0.06377551)" />
  <polygon
     points="960.745,970.036 960.745,894.264 1009.37,894.264 1009.37,894.264 1009.37,970.036 1001.26,970.036 985.056,977.613 968.848,970.036 "
     style="fill:#8c8c8c;fill-opacity:1;stroke:none"
     id="polygon74"
     transform="scale(0.06377551,0.06377551)" />
  <polygon
     points="1009.37,963.722 1016.31,970.668 1016.31,970.668 "
     style="fill:#000000;fill-opacity:1;stroke:none"
     id="polygon76"
     transform="scale(0.06377551,0.06377551)" />
  <polygon
     points="947.922,859.536 932.962,867.175 932.962,867.175 932.962,874.816 932.962,920.659 940.442,928.299 955.403,935.939 985.323,935.939 1007.76,935.939 1022.72,928.299 1030.2,920.659 1030.2,874.816 1022.72,867.175 985.323,859.536 962.883,859.536 "
     style="fill:#000000;fill-opacity:1;stroke:none"
     id="polygon78"
     transform="scale(0.06377551,0.06377551)" />
  <polygon
     points="1023.26,874.295 1023.26,921.179 1015.68,921.179 985.371,928.993 955.062,928.993 939.908,921.179 939.908,874.295 955.062,866.481 985.371,866.481 985.371,866.481 1008.1,866.481 "
     style="fill:#aaaaaa;fill-opacity:1;stroke:none"
     id="polygon80"
     transform="scale(0.06377551,0.06377551)" />
  <polygon
     points="1030.2,822.027 1015.32,830.363 978.11,838.698 940.9,830.363 933.458,822.027 926.017,813.693 933.458,813.693 940.9,805.358 978.11,797.024 1015.32,805.358 1030.2,813.693 1030.2,813.693 "
     style="fill:#555555;fill-opacity:1;stroke:none"
     id="polygon82"
     transform="scale(0.06377551,0.06377551)" />
  <polygon
     points="926.017,807.442 933.458,816.125 955.785,824.807 978.11,824.807 1007.88,824.807 1022.76,816.125 1030.2,807.442 1022.76,798.76 1007.88,790.077 978.11,790.077 955.785,790.077 933.458,798.76 926.017,807.442 "
     style="fill:#000000;fill-opacity:1;stroke:none"
     id="polygon84"
     transform="scale(0.06377551,0.06377551)" />
  <polygon
     points="977.794,817.861 955.062,817.861 939.908,807.442 955.062,797.024 977.794,797.024 977.794,797.024 1008.1,797.024 1023.26,807.442 1008.1,817.861 "
     style="fill:#aaaaaa;fill-opacity:1;stroke:none"
     id="polygon86"
     transform="scale(0.06377551,0.06377551)" />
  <polygon
     points="1129.64,978.244 1115.01,978.244 1115.01,978.244 1100.39,970.668 1093.08,978.244 1085.77,985.821 1085.77,993.399 1093.08,1000.98 1136.95,1016.13 1180.82,1031.29 1217.37,1046.44 1224.68,1054.02 1217.37,1046.44 1195.44,1016.13 1151.57,985.821 "
     style="fill:#e5f2ff;fill-opacity:1;stroke:none"
     id="polygon88"
     transform="scale(0.06377551,0.06377551)" />
  <polygon
     points="592.62,1236.34 592.62,1251.1 599.627,1265.86 599.627,1273.24 634.663,1280.62 718.749,1302.76 844.881,1317.52 914.952,1324.9 992.032,1324.9 1146.19,1317.52 1265.31,1295.38 1342.39,1280.62 1377.43,1273.24 1377.43,1265.86 1384.44,1251.1 1384.44,1236.34 1377.43,1228.96 1363.41,1214.2 1356.41,1206.82 1356.41,1206.82 1328.38,1221.58 1244.29,1243.72 1132.18,1265.86 1062.1,1273.24 992.032,1273.24 921.959,1273.24 851.887,1265.86 732.765,1243.72 648.678,1221.58 620.649,1206.82 613.642,1214.2 599.627,1228.96 "
     style="fill:#333333;fill-opacity:1;stroke:none"
     id="polygon90"
     transform="scale(0.06377551,0.06377551)" />
  <polygon
     points="851.823,1310.48 732.672,1295.51 648.565,1273.08 606.512,1265.59 606.512,1243.15 606.512,1228.19 620.53,1220.71 655.574,1228.19 739.68,1250.64 858.832,1273.08 921.912,1280.56 992.001,1280.56 992.001,1280.56 1062.09,1280.56 1125.17,1273.08 1244.32,1250.64 1321.42,1228.19 1356.46,1220.71 1370.48,1228.19 1377.49,1250.64 1370.48,1265.59 1335.44,1273.08 1251.33,1288.04 1139.19,1310.48 992.001,1317.96 "
     style="fill:#cccccc;fill-opacity:1;stroke:none"
     id="polygon92"
     transform="scale(0.06377551,0.06377551)" />
  <polygon
     points="763.2,1267.35 841.851,1275.29 870.451,1283.23 748.899,1275.29 670.25,1251.47 627.349,1243.54 634.499,1227.66 634.499,1227.66 677.4,1243.54 720.299,1259.41 "
     style="fill:#e5f2ff;fill-opacity:1;stroke:none"
     id="polygon94"
     transform="scale(0.06377551,0.06377551)" />
  <polygon
     points="1194.3,1280.07 1109.64,1295.22 912.124,1317.95 989.722,1310.38 1137.86,1302.8 1215.46,1287.65 1286,1272.49 1363.6,1249.76 1349.49,1234.61 1349.49,1234.61 1271.89,1257.34 "
     style="fill:#999999;fill-opacity:1;stroke:none"
     id="polygon96"
     transform="scale(0.06377551,0.06377551)" />
  <polygon
     points="742.363,1392.37 821.013,1400.31 849.613,1408.25 728.062,1400.31 649.413,1384.44 606.512,1368.56 613.662,1352.68 613.662,1352.68 656.562,1368.56 699.462,1384.44 "
     style="fill:#bbbbbb;fill-opacity:1;stroke:none"
     id="polygon98"
     transform="scale(0.06377551,0.06377551)" />
  <polygon
     points="804.117,1243.87 753.067,1234.61 738.481,1234.61 811.411,1253.13 862.462,1262.39 884.341,1262.39 884.341,1243.87 884.341,1243.87 855.17,1253.13 833.29,1253.13 "
     style="fill:#e5f2ff;fill-opacity:1;stroke:none"
     id="polygon100"
     transform="scale(0.06377551,0.06377551)" />
</svg>
