<?xml version="1.0" encoding="UTF-8" standalone="no"?>

<svg
 xmlns:dc="http://purl.org/dc/elements/1.1/"
   xmlns:cc="http://creativecommons.org/ns#"
   xmlns:rdf="http://www.w3.org/1999/02/22-rdf-syntax-ns#"
   xmlns:svg="http://www.w3.org/2000/svg"
   xmlns="http://www.w3.org/2000/svg"
   xmlns:xlink="http://www.w3.org/1999/xlink"
   xmlns:sodipodi="http://sodipodi.sourceforge.net/DTD/sodipodi-0.dtd"
   xmlns:inkscape="http://www.inkscape.org/namespaces/inkscape"
   id="svg2"
   version="1.1"
   inkscape:version="0.47 r22583"
   width="100"
   height="100"
   sodipodi:docname="business_process_service_interface.svg">
  <metadata
     id="metadata108">
    <rdf:RDF>
      <cc:Work
         rdf:about="">
        <dc:format>image/svg+xml</dc:format>
        <dc:type
           rdf:resource="http://purl.org/dc/dcmitype/StillImage" />
      </cc:Work>
    </rdf:RDF>
  </metadata>
  <defs
     id="defs106">
    <linearGradient
       inkscape:collect="always"
       id="linearGradient3704">
      <stop
         style="stop-color:#00a500;stop-opacity:1;"
         offset="0"
         id="stop3706" />
      <stop
         style="stop-color:#00a500;stop-opacity:0;"
         offset="1"
         id="stop3708" />
    </linearGradient>
    <linearGradient
       inkscape:collect="always"
       id="linearGradient3696">
      <stop
         style="stop-color:#000000;stop-opacity:1;"
         offset="0"
         id="stop3698" />
      <stop
         style="stop-color:#000000;stop-opacity:0;"
         offset="1"
         id="stop3700" />
    </linearGradient>
    <linearGradient
       inkscape:collect="always"
       id="linearGradient3688">
      <stop
         style="stop-color:#2d5a70;stop-opacity:1;"
         offset="0"
         id="stop3690" />
      <stop
         style="stop-color:#2d5a70;stop-opacity:0;"
         offset="1"
         id="stop3692" />
    </linearGradient>
    <inkscape:perspective
       sodipodi:type="inkscape:persp3d"
       inkscape:vp_x="0 : 0.5 : 1"
       inkscape:vp_y="0 : 1000 : 0"
       inkscape:vp_z="1 : 0.5 : 1"
       inkscape:persp3d-origin="0.5 : 0.33333333 : 1"
       id="perspective110" />
    <linearGradient
       inkscape:collect="always"
       xlink:href="#linearGradient3688"
       id="linearGradient3694"
       x1="7.8125"
       y1="917.0625"
       x2="617.18701"
       y2="917.0625"
       gradientUnits="userSpaceOnUse" />
    <linearGradient
       inkscape:collect="always"
       xlink:href="#linearGradient3696"
       id="linearGradient3702"
       x1="101.562"
       y1="514.71802"
       x2="984.37402"
       y2="514.71802"
       gradientUnits="userSpaceOnUse" />
    <linearGradient
       inkscape:collect="always"
       xlink:href="#linearGradient3704"
       id="linearGradient3710"
       x1="1022.501"
       y1="276.129"
       x2="1577.759"
       y2="276.129"
       gradientUnits="userSpaceOnUse" />
  </defs>
  <sodipodi:namedview
     pagecolor="#ffffff"
     bordercolor="#666666"
     borderopacity="1"
     objecttolerance="10"
     gridtolerance="10"
     guidetolerance="10"
     inkscape:pageopacity="0"
     inkscape:pageshadow="2"
     inkscape:window-width="1680"
     inkscape:window-height="994"
     id="namedview104"
     showgrid="false"
     inkscape:zoom="7.49"
     inkscape:cx="50"
     inkscape:cy="50"
     inkscape:window-x="-4"
     inkscape:window-y="-4"
     inkscape:window-maximized="1"
     inkscape:current-layer="svg2" />
  <polygon
     points="0,128 1007.81,128 1007.81,1135.81 1007.81,1135.81 0,1135.81 "
     style="fill:#ffffff;fill-opacity:0;stroke:none"
     id="polygon4"
     transform="matrix(0.05891016,0,0,0.05891016,0,0.0883)" />
  <polygon
     points="578.125,254.478 657.782,198.312 984.375,439.022 984.375,439.022 912.684,495.187 "
     style="fill:#632727;fill-opacity:1;stroke:none"
     id="polygon6"
     transform="matrix(0.05891016,0,0,0.05891016,0,0.0883)" />
  <polygon
     points="911.865,488.564 984.374,432.688 799.072,744 799.072,744 726.562,799.876 "
     style="fill:#612727;fill-opacity:1;stroke:none"
     id="polygon8"
     transform="matrix(0.05891016,0,0,0.05891016,0,0.0883)" />
  <polygon
     points="811.719,761.928 820.313,753 820.313,753 734.375,815.5 "
     style="fill:#602626;fill-opacity:1;stroke:none"
     id="polygon10"
     transform="matrix(0.05891016,0,0,0.05891016,0,0.0883)" />
  <polygon
     points="23.4375,338.937 102.527,289.305 664.063,198.312 664.063,198.312 584.973,256.217 "
     style="fill:#602626;fill-opacity:1;stroke:none"
     id="polygon12"
     transform="matrix(0.05891016,0,0,0.05891016,0,0.0883)" />
  <polygon
     points="0,330.148 85.9375,268.625 85.9375,277.415 85.9375,277.415 8.59375,338.938 "
     style="fill:#642828;fill-opacity:1;stroke:none"
     id="polygon14"
     transform="matrix(0.05891016,0,0,0.05891016,0,0.0883)" />
  <polygon
     points="23.4375,332.327 104.352,284.25 250,548.672 250,548.672 177.176,596.75 "
     style="fill:#853535;fill-opacity:1;stroke:none"
     id="polygon16"
     transform="matrix(0.05891016,0,0,0.05891016,0,0.0883)" />
  <polygon
     points="171.875,595.634 249.219,542.062 257.813,542.062 257.813,542.062 171.875,604.562 "
     style="fill:#853535;fill-opacity:1;stroke:none"
     id="polygon18"
     transform="matrix(0.05891016,0,0,0.05891016,0,0.0883)" />
  <polygon
     points="171.875,604.562 257.813,542.062 257.813,542.062 "
     style="fill:#843535;fill-opacity:1;stroke:none"
     id="polygon20"
     transform="matrix(0.05891016,0,0,0.05891016,0,0.0883)" />
  <polygon
     points="7.8125,332.459 80.5496,276.438 242.188,548.541 242.188,548.541 161.369,604.563 "
     style="fill:#642828;fill-opacity:1;stroke:none"
     id="polygon22"
     transform="matrix(0.05891016,0,0,0.05891016,0,0.0883)" />
  <polygon
     points="171.875,885.813 250.976,828.087 804.687,737.375 804.687,737.375 733.495,795.1 "
     style="fill:#803333;fill-opacity:1;stroke:none"
     id="polygon24"
     transform="matrix(0.05891016,0,0,0.05891016,0,0.0883)" />
  <polygon
     points="171.875,598.022 257.813,542.062 257.813,829.852 257.813,829.852 171.875,885.812 "
     style="fill:#843535;fill-opacity:1;stroke:none"
     id="polygon26"
     transform="matrix(0.05891016,0,0,0.05891016,0,0.0883)" />
  <polygon
     points="171.875,901.437 243.056,843.533 812.5,760.812 812.5,760.812 741.319,810.445 "
     style="fill:#602626;fill-opacity:1;stroke:none"
     id="polygon28"
     transform="matrix(0.05891016,0,0,0.05891016,0,0.0883)" />
  <polygon
     points="156.25,597.993 242.188,542.062 242.188,837.694 242.188,837.694 156.25,893.624 "
     style="fill:#632727;fill-opacity:1;stroke:none"
     id="polygon30"
     transform="matrix(0.05891016,0,0,0.05891016,0,0.0883)" />
  <polygon
     points="156.25,901.438 241.477,838.938 250,838.938 250,838.938 173.295,901.438 "
     style="fill:#602626;fill-opacity:1;stroke:none"
     id="polygon32"
     transform="matrix(0.05891016,0,0,0.05891016,0,0.0883)" />
  <polygon
     points="78.125,277.554 78.125,269.648 86.0037,269.648 653.271,182.688 661.15,182.688 999.935,427.758 999.935,427.758 1007.81,435.664 818.724,759.789 810.846,767.694 243.578,846.75 235.699,846.75 235.699,838.844 235.699,546.34 "
     style="fill:#bd4b4b;fill-opacity:1;stroke:none"
     id="polygon34"
     transform="matrix(0.05891016,0,0,0.05891016,0,0.0883)" />
  <polygon
     points="251.325,831.124 803.083,744.113 803.083,744.113 984.374,435.618 661.202,198.312 101.562,285.324 243.444,546.359 251.325,546.359 "
     style="fill:#ff6666;fill-opacity:1;stroke:none"
     id="polygon36"
     transform="matrix(0.05891016,0,0,0.05891016,0,0.0883)" />
  <polyline
     points="803.083 744.113 984.374 435.618 661.202 198.312         101.562 285.324 243.444 546.359 251.325 546.359 251.325 831.124         803.083 744.113"
     style="fill:url(#linearGradient3702);fill-opacity:1;stroke:none"
     id="polyline38"
     transform="matrix(0.05891016,0,0,0.05891016,0,0.0883)" />
  <polygon
     points="156.25,892.648 242.188,831.125 242.188,839.915 242.188,839.915 156.25,901.438 "
     style="fill:#632727;fill-opacity:1;stroke:none"
     id="polygon40"
     transform="matrix(0.05891016,0,0,0.05891016,0,0.0883)" />
  <polygon
     points="134.493,746.165 102.848,762.067 71.2025,785.924 47.4683,817.732 31.6455,857.491 15.8228,889.299 0,929.06 0,960.868 0,1135.81 625,1135.81 625,857.491 617.088,825.683 601.265,793.875 577.531,762.067 545.885,738.212 514.24,722.308 474.683,706.404 435.127,698.451 403.481,690.5 174.05,746.165 174.05,746.165 "
     style="fill:#000000;fill-opacity:1;stroke:none"
     id="polygon42"
     transform="matrix(0.05891016,0,0,0.05891016,0,0.0883)" />
  <polygon
     points="15.7265,929.002 23.6404,889.202 39.4683,857.363 55.2963,825.523 86.9521,801.644 110.694,777.765 142.35,761.844 174.006,753.884 403.511,706.125 435.167,706.125 474.736,714.085 506.392,730.004 538.048,753.884 569.704,769.804 593.446,801.644 609.273,825.523 617.187,857.363 617.187,1128 7.8125,1128 7.8125,960.842 7.8125,960.842 "
     style="fill:url(#linearGradient3694);fill-opacity:1;stroke:none"
     id="polygon44"
     transform="matrix(0.05891016,0,0,0.05891016,0,0.0883)" />
  <polygon
     points="436.123,1128 363.742,1120.01 210.938,808.556 267.234,792.583 363.742,776.612 363.742,776.612 411.996,768.625 444.165,768.625 484.376,784.597 "
     style="fill:#ffffff;fill-opacity:1;stroke:none"
     id="polygon46"
     transform="matrix(0.05891016,0,0,0.05891016,0,0.0883)" />
  <polygon
     points="411.718,792.062 378.906,896.043 460.937,1128 329.687,1128 354.296,896.043 296.875,808.06 296.875,808.06 "
     style="fill:#77aa00;fill-opacity:1;stroke:none"
     id="polygon48"
     transform="matrix(0.05891016,0,0,0.05891016,0,0.0883)" />
  <polygon
     points="388.157,378.248 340.461,362.375 300.712,362.375 253.015,362.375 213.268,378.248 173.52,394.121 141.721,425.867 117.873,457.613 94.0241,497.296 78.125,536.978 78.125,584.597 78.125,584.597 86.0746,632.217 101.973,679.836 125.822,727.455 157.621,775.074 197.368,806.82 245.066,838.566 284.813,854.439 332.511,862.375 372.259,862.375 404.057,854.439 435.855,838.566 459.704,814.757 499.452,775.074 515.35,719.519 523.3,663.963 531.25,608.406 523.3,560.788 507.401,513.168 483.552,473.486 459.704,433.804 419.955,402.058 "
     style="fill:#b2510f;fill-opacity:1;stroke:none"
     id="polygon50"
     transform="matrix(0.05891016,0,0,0.05891016,0,0.0883)" />
  <polygon
     points="499.712,521.059 515.626,560.762 515.626,608.404 515.626,656.049 507.669,711.633 483.797,767.216 451.968,806.92 428.097,830.741 404.226,846.623 372.397,854.563 332.611,854.563 332.611,854.563 292.824,846.623 245.082,830.741 205.295,798.978 165.509,759.276 133.68,719.574 109.809,679.87 93.8947,632.227 85.9375,584.583 93.8947,544.88 101.851,505.177 125.723,465.475 149.596,433.713 181.424,409.89 221.21,386.068 253.039,378.128 300.782,370.188 340.568,378.128 380.354,394.009 420.139,409.89 451.968,441.653 475.84,481.355 "
     style="fill:#ff9900;fill-opacity:1;stroke:none"
     id="polygon52"
     transform="matrix(0.05891016,0,0,0.05891016,0,0.0883)" />
  <polygon
     points="134.024,665.787 165.813,665.787 189.655,673.759 205.55,681.731 213.497,673.759 229.391,641.871 245.286,617.956 261.18,602.012 324.757,617.956 380.388,617.956 428.072,609.983 459.86,609.983 507.544,594.04 515.49,586.068 523.438,562.153 523.438,514.32 515.49,490.405 507.544,458.517 491.649,426.629 467.808,402.714 467.808,402.714 412.177,362.853 340.653,338.938 300.916,338.938 269.127,338.938 229.391,346.909 189.655,354.881 157.866,370.826 134.024,394.741 110.183,418.656 94.2888,442.573 70.4472,506.348 62.5,562.153 78.3944,633.9 94.2888,689.704 118.131,721.592 126.078,729.563 134.024,729.563 134.024,721.592 126.078,697.675 126.078,681.731 126.078,673.759 "
     style="fill:#000000;fill-opacity:1;stroke:none"
     id="polygon54"
     transform="matrix(0.05891016,0,0,0.05891016,0,0.0883)" />
  <polygon
     points="544,800 1440,800 1440,1696 1440,1696 544,1696 "
     style="fill:#ffffff;fill-opacity:0;stroke:none"
     id="polygon56"
     transform="matrix(0.05891016,0,0,0.05891016,0,0.0883)" />
  <polygon
     points="649.007,1390.82 635.006,1397.99 621.005,1412.31 614.004,1426.64 600.004,1455.29 586.003,1476.78 565.001,1491.1 544,1505.43 544,1548.41 544,1548.41 572.002,1555.57 656.007,1577.06 796.016,1598.54 901.023,1605.71 1020.03,1605.71 1139.04,1605.71 1230.04,1598.54 1300.05,1591.38 1356.05,1577.06 1419.05,1555.57 1433.06,1548.41 1433.06,1505.43 1412.05,1491.1 1384.05,1476.78 1363.05,1448.12 1342.05,1397.99 1237.04,1390.82 1125.04,1383.66 992.028,1376.5 754.013,1376.5 677.009,1383.66 "
     style="fill:#000000;fill-opacity:1;stroke:none"
     id="polygon58"
     transform="matrix(0.05891016,0,0,0.05891016,0,0.0883)" />
  <polygon
     points="1188.4,1099.35 1146.33,1085.18 1104.25,1071.02 1055.15,1063.94 992.035,1063.94 921.902,1063.94 872.811,1071.02 823.719,1085.18 788.652,1099.35 760.6,1120.59 732.548,1141.84 690.468,1184.33 690.468,1184.33 669.428,1212.66 655.401,1248.07 634.362,1311.81 627.349,1361.38 627.349,1382.63 627.349,1389.71 634.362,1389.71 746.572,1403.87 858.784,1418.04 992.035,1425.12 1125.29,1418.04 1237.5,1403.87 1349.71,1389.71 1349.71,1382.63 1349.71,1361.38 1342.69,1311.81 1321.66,1248.07 1307.63,1219.74 1286.59,1191.41 1244.51,1141.84 1216.46,1120.59 "
     style="fill:#000000;fill-opacity:1;stroke:none"
     id="polygon60"
     transform="matrix(0.05891016,0,0,0.05891016,0,0.0883)" />
  <polygon
     points="992.036,1411.23 865.774,1411.23 760.556,1397.04 634.294,1382.86 634.294,1354.5 648.325,1304.87 662.352,1241.06 676.382,1212.69 697.425,1191.42 697.425,1191.42 739.512,1148.88 767.571,1127.61 795.629,1106.34 830.701,1092.16 872.789,1077.98 928.905,1070.88 992.036,1070.88 1055.17,1070.88 1104.27,1077.98 1146.35,1092.16 1181.43,1106.34 1209.49,1127.61 1237.54,1148.88 1279.63,1198.51 1300.67,1219.78 1314.7,1248.15 1335.75,1304.87 1342.76,1354.5 1342.76,1382.86 1223.51,1397.04 1111.28,1411.23 "
     style="fill:#aaaaaa;fill-opacity:1;stroke:none"
     id="polygon62"
     transform="matrix(0.05891016,0,0,0.05891016,0,0.0883)" />
  <polygon
     points="1106.61,1298.42 1099.55,1276.86 1085.43,1255.31 1043.07,1212.2 1007.77,1190.64 979.534,1190.64 951.295,1205.01 944.235,1205.01 930.116,1205.01 908.937,1190.64 880.698,1176.27 866.579,1154.71 852.46,1147.53 838.341,1140.34 824.222,1140.34 824.222,1140.34 788.923,1147.53 753.625,1161.9 732.447,1183.45 711.267,1205.01 690.088,1240.94 683.029,1276.86 675.97,1305.6 675.97,1319.97 683.029,1327.16 697.148,1327.16 760.685,1334.34 824.222,1327.16 845.401,1327.16 866.579,1334.34 894.818,1348.71 923.056,1348.71 1014.83,1348.71 1064.25,1341.53 1085.43,1341.53 1099.55,1327.16 1106.61,1312.79 "
     style="fill:#666666;fill-opacity:1;stroke:none"
     id="polygon64"
     transform="matrix(0.05891016,0,0,0.05891016,0,0.0883)" />
  <polygon
     points="837.534,1196.78 815.791,1204.16 801.295,1218.92 794.047,1233.68 794.047,1255.81 794.047,1277.95 801.295,1292.71 815.791,1300.09 830.285,1300.09 852.029,1292.71 866.525,1292.71 881.02,1255.81 910.01,1226.29 946.249,1204.16 960.745,1196.78 960.745,1189.4 939.002,1182.02 881.02,1182.02 881.02,1182.02 866.525,1189.4 "
     style="fill:#e5f2ff;fill-opacity:1;stroke:none"
     id="polygon66"
     transform="matrix(0.05891016,0,0,0.05891016,0,0.0883)" />
  <polygon
     points="1009.37,925.024 1001.43,925.024 1001.43,925.024 953.8,925.024 953.8,1008.37 1009.37,1008.37 "
     style="fill:#000000;fill-opacity:1;stroke:none"
     id="polygon68"
     transform="matrix(0.05891016,0,0,0.05891016,0,0.0883)" />
  <polygon
     points="960.745,1001.43 960.745,931.97 1002.42,931.97 1002.42,931.97 1002.42,1001.43 "
     style="fill:#8c8c8c;fill-opacity:1;stroke:none"
     id="polygon70"
     transform="matrix(0.05891016,0,0,0.05891016,0,0.0883)" />
  <polygon
     points="1008.59,1015.32 946.854,1015.32 946.854,1097.6 954.572,1097.6 962.289,1105.08 985.441,1112.56 1000.88,1112.56 1016.31,1105.08 1016.31,1097.6 1016.31,1015.32 1008.59,1015.32 "
     style="fill:#000000;fill-opacity:1;stroke:none"
     id="polygon72"
     transform="matrix(0.05891016,0,0,0.05891016,0,0.0883)" />
  <polygon
     points="960.745,1022.26 1009.37,1022.26 1009.37,1022.26 1009.37,1098.04 1001.26,1098.04 985.056,1105.61 968.848,1098.04 960.745,1098.04 "
     style="fill:#8c8c8c;fill-opacity:1;stroke:none"
     id="polygon74"
     transform="matrix(0.05891016,0,0,0.05891016,0,0.0883)" />
  <polygon
     points="1009.37,1091.72 1016.31,1098.67 1016.31,1098.67 "
     style="fill:#000000;fill-opacity:1;stroke:none"
     id="polygon76"
     transform="matrix(0.05891016,0,0,0.05891016,0,0.0883)" />
  <polygon
     points="1022.72,1056.3 1030.2,1048.66 1030.2,1002.82 1022.72,995.175 985.323,987.536 962.883,987.536 947.922,987.536 932.962,995.175 932.962,995.175 932.962,1002.82 932.962,1048.66 940.442,1056.3 955.403,1063.94 985.323,1063.94 1007.76,1063.94 "
     style="fill:#000000;fill-opacity:1;stroke:none"
     id="polygon78"
     transform="matrix(0.05891016,0,0,0.05891016,0,0.0883)" />
  <polygon
     points="985.371,994.481 1008.1,994.481 1023.26,1002.3 1023.26,1049.18 1015.68,1049.18 985.371,1056.99 955.062,1056.99 939.908,1049.18 939.908,1002.3 955.062,994.481 985.371,994.481 "
     style="fill:#aaaaaa;fill-opacity:1;stroke:none"
     id="polygon80"
     transform="matrix(0.05891016,0,0,0.05891016,0,0.0883)" />
  <polygon
     points="1015.32,933.358 1030.2,941.693 1030.2,941.693 1030.2,950.027 1015.32,958.363 978.11,966.698 940.9,958.363 933.458,950.027 926.017,941.693 933.458,941.693 940.9,933.358 978.11,925.024 "
     style="fill:#555555;fill-opacity:1;stroke:none"
     id="polygon82"
     transform="matrix(0.05891016,0,0,0.05891016,0,0.0883)" />
  <polygon
     points="978.11,918.077 955.785,918.077 933.458,926.76 926.017,935.442 926.017,935.442 933.458,944.125 955.785,952.807 978.11,952.807 1007.88,952.807 1022.76,944.125 1030.2,935.442 1022.76,926.76 1007.88,918.077 "
     style="fill:#000000;fill-opacity:1;stroke:none"
     id="polygon84"
     transform="matrix(0.05891016,0,0,0.05891016,0,0.0883)" />
  <polygon
     points="977.794,945.861 955.062,945.861 939.908,935.442 955.062,925.024 977.794,925.024 977.794,925.024 1008.1,925.024 1023.26,935.442 1008.1,945.861 "
     style="fill:#aaaaaa;fill-opacity:1;stroke:none"
     id="polygon86"
     transform="matrix(0.05891016,0,0,0.05891016,0,0.0883)" />
  <polygon
     points="1180.82,1159.29 1217.37,1174.44 1224.68,1182.02 1217.37,1174.44 1195.44,1144.13 1151.57,1113.82 1129.64,1106.24 1115.01,1106.24 1115.01,1106.24 1100.39,1098.67 1093.08,1106.24 1085.77,1113.82 1085.77,1121.4 1093.08,1128.98 1136.95,1144.13 "
     style="fill:#e5f2ff;fill-opacity:1;stroke:none"
     id="polygon88"
     transform="matrix(0.05891016,0,0,0.05891016,0,0.0883)" />
  <polygon
     points="1146.19,1445.52 1265.31,1423.38 1342.39,1408.62 1377.43,1401.24 1377.43,1393.86 1384.44,1379.1 1384.44,1364.34 1377.43,1356.96 1363.41,1342.2 1356.41,1334.82 1356.41,1334.82 1328.38,1349.58 1244.29,1371.72 1132.18,1393.86 1062.1,1401.24 992.032,1401.24 921.959,1401.24 851.887,1393.86 732.765,1371.72 648.678,1349.58 620.649,1334.82 613.642,1342.2 599.627,1356.96 592.62,1364.34 592.62,1379.1 599.627,1393.86 599.627,1401.24 634.663,1408.62 718.749,1430.76 844.881,1445.52 914.952,1452.9 992.032,1452.9 "
     style="fill:#333333;fill-opacity:1;stroke:none"
     id="polygon90"
     transform="matrix(0.05891016,0,0,0.05891016,0,0.0883)" />
  <polygon
     points="858.832,1401.08 921.912,1408.56 992.001,1408.56 992.001,1408.56 1062.09,1408.56 1125.17,1401.08 1244.32,1378.64 1321.42,1356.19 1356.46,1348.71 1370.48,1356.19 1377.49,1378.64 1370.48,1393.59 1335.44,1401.08 1251.33,1416.04 1139.19,1438.48 992.001,1445.96 851.823,1438.48 732.672,1423.51 648.565,1401.08 606.512,1393.59 606.512,1371.15 606.512,1356.19 620.53,1348.71 655.574,1356.19 739.68,1378.64 "
     style="fill:#cccccc;fill-opacity:1;stroke:none"
     id="polygon92"
     transform="matrix(0.05891016,0,0,0.05891016,0,0.0883)" />
  <polygon
     points="720.299,1387.41 763.2,1395.35 841.851,1403.29 870.451,1411.23 748.899,1403.29 670.25,1379.47 627.349,1371.54 634.499,1355.66 634.499,1355.66 677.4,1371.54 "
     style="fill:#e5f2ff;fill-opacity:1;stroke:none"
     id="polygon94"
     transform="matrix(0.05891016,0,0,0.05891016,0,0.0883)" />
  <polygon
     points="1349.49,1362.61 1271.89,1385.34 1194.3,1408.07 1109.64,1423.22 912.124,1445.95 989.722,1438.38 1137.86,1430.8 1215.46,1415.65 1286,1400.49 1363.6,1377.76 1349.49,1362.61 "
     style="fill:#999999;fill-opacity:1;stroke:none"
     id="polygon96"
     transform="matrix(0.05891016,0,0,0.05891016,0,0.0883)" />
  <polygon
     points="699.462,1512.44 742.363,1520.37 821.013,1528.31 849.613,1536.25 728.062,1528.31 649.413,1512.44 606.512,1496.56 613.662,1480.68 613.662,1480.68 656.562,1496.56 "
     style="fill:#bbbbbb;fill-opacity:1;stroke:none"
     id="polygon98"
     transform="matrix(0.05891016,0,0,0.05891016,0,0.0883)" />
  <polygon
     points="833.29,1381.13 804.117,1371.87 753.067,1362.61 738.481,1362.61 811.411,1381.13 862.462,1390.39 884.341,1390.39 884.341,1371.87 884.341,1371.87 855.17,1381.13 "
     style="fill:#e5f2ff;fill-opacity:1;stroke:none"
     id="polygon100"
     transform="matrix(0.05891016,0,0,0.05891016,0,0.0883)" />
  <ellipse
     cx="1300.13"
     cy="276.129"
     rx="276.129"
     ry="276.129"
     style="fill:url(#linearGradient3710);fill-opacity:1;stroke:#000000;stroke-width:3"
     class="TAG:iconCanvas"
     id="ellipse102"
     sodipodi:cx="1300.13"
     sodipodi:cy="276.129"
     sodipodi:rx="276.129"
     sodipodi:ry="276.129"
     transform="matrix(0.05891016,0,0,0.05891016,0,0.0883)" />
</svg>
