<?xml version="1.0" encoding="UTF-8" standalone="no"?>
<svg
   xmlns:dc="http://purl.org/dc/elements/1.1/"
   xmlns:cc="http://creativecommons.org/ns#"
   xmlns:rdf="http://www.w3.org/1999/02/22-rdf-syntax-ns#"
   xmlns:svg="http://www.w3.org/2000/svg"
   xmlns="http://www.w3.org/2000/svg"
   xmlns:xlink="http://www.w3.org/1999/xlink"
   xmlns:sodipodi="http://sodipodi.sourceforge.net/DTD/sodipodi-0.dtd"
   xmlns:inkscape="http://www.inkscape.org/namespaces/inkscape"
   version="1.1"
   xml:space="preserve"
   height="219px"
   viewBox="-0.001 -0.68 219 219"
   width="219px"
   enable-background="new -0.001 -0.68 198 170"
   y="0px"
   x="0px"
   id="svg3389"
   inkscape:version="0.48.0 r9654"
   sodipodi:docname="capability_operations_scenario.svg"
   inkscape:export-filename="C:\dev\TA_metamodel\xml\http\metadata.troux.info\semantics\small_icons\capability_operations_scenario.png"
   inkscape:export-xdpi="6.5753427"
   inkscape:export-ydpi="6.5753427"><sodipodi:namedview
   pagecolor="#ffffff"
   bordercolor="#666666"
   borderopacity="1"
   objecttolerance="10"
   gridtolerance="10"
   guidetolerance="10"
   inkscape:pageopacity="0"
   inkscape:pageshadow="2"
   inkscape:window-width="1001"
   inkscape:window-height="640"
   id="namedview3442"
   showgrid="false"
   inkscape:zoom="2.0123772"
   inkscape:cx="112.29328"
   inkscape:cy="108.6697"
   inkscape:window-x="56"
   inkscape:window-y="15"
   inkscape:window-maximized="0"
   inkscape:current-layer="svg3389" />
	<metadata
   id="metadata3391">
		<rdf:RDF>
			<cc:Work
   rdf:about="">
				<dc:title></dc:title>
				<dc:format>image/svg+xml</dc:format>
				<dc:type
   rdf:resource="http://purl.org/dc/dcmitype/StillImage" />
			</cc:Work>
		</rdf:RDF>
	</metadata>
	<defs
   id="defs3393">
		<filter
   id="filter4110">
			<feGaussianBlur
   stdDeviation="2.0494406"
   id="feGaussianBlur3396" />
		</filter>
		<radialGradient
   id="radialGradient3013"
   gradientUnits="userSpaceOnUse"
   cy="15.97"
   cx="25.89"
   gradientTransform="matrix(0.82849389,0,0,0.82849389,5.496677,8.4345931)"
   r="78.09">
			<stop
   stop-color="#FFF"
   offset="0.1573"
   id="stop3399" />
			<stop
   stop-color="#724548"
   offset="0.8989"
   id="stop3401" />
		</radialGradient>
		<linearGradient
   id="linearGradient3022"
   y2="135.1"
   gradientUnits="userSpaceOnUse"
   x2="100.2"
   gradientTransform="matrix(0.84419596,0,0,0.84419596,5.24325,3.6070581)"
   y1="30.36"
   x1="94.41">
			<stop
   stop-color="#FFF"
   offset="0.2978"
   id="stop3404" />
			<stop
   stop-color="#FFF"
   offset="0.5955"
   id="stop3406" />
			<stop
   stop-color="#EEE7E5"
   offset="0.9045"
   id="stop3408" />
		</linearGradient>
	<filter
   color-interpolation-filters="sRGB"
   id="AI_GaussianBlur_2.2"><feGaussianBlur
     stdDeviation="2.2150394"
     id="feGaussianBlur240" /></filter><radialGradient
   inkscape:collect="always"
   xlink:href="#radialGradient3013"
   id="radialGradient3430"
   gradientUnits="userSpaceOnUse"
   gradientTransform="matrix(0.93799212,0,0,0.93799212,4.5607326,9.06814)"
   cx="25.89"
   cy="15.97"
   r="78.09" /><linearGradient
   inkscape:collect="always"
   xlink:href="#linearGradient3022"
   id="linearGradient3439"
   gradientUnits="userSpaceOnUse"
   gradientTransform="matrix(0.95576946,0,0,0.95576946,4.2738113,3.6025719)"
   x1="94.41"
   y1="30.36"
   x2="100.2"
   y2="135.1" /></defs>
	
	
	
	
	
	
	
	
	
	
	
	
	
	
	
	<path
   d="m 113.6,22.17 c -26,-0.0518 -42.95,17.82 -41.09,24.94 0.2452,0.9368 0.6895,1.631 1.25,2.156 H 20.6 c -4.152,0 -7.531,3.296 -7.531,6.094 v 54.19 c 0,2.196 0.5209,3.994 3.031,5.344 v 66.16 c 0,7.237 6.037,13.09 13.5,13.09 h 167.6 c 7.466,0 13.5,-5.858 13.5,-13.09 v -66.97 c 3.14,-1.73 3.031,-4.507 3.031,-7 v -52.68 c 0,-2.794 -3.358,-5.062 -7.5,-5.062 h -53.62 c 5.679,-4.502 -12.7,-27.04 -39,-27.09 z m -1.906,7.625 c 0.7245,-0.0167 1.465,-0.0114 2.219,0 20.22,0.3059 29.13,8.622 32.28,13.88 0,0 -0.8961,3.858 1,5.594 h -66.72 c 1.097,-1.549 0.2945,-5.107 0.25,-5.375 0,0 8.541,-13.58 31,-14.09 z"
   id="path3410"
   inkscape:connector-curvature="0"
   transform="matrix(0.94057799,0,0,0.94057799,-4.6908022,-12.953164)"
   style="fill:#000000;fill-opacity:0.50196078;filter:url(#filter4110)" /><path
   d="m 60.171456,27.040213 c 1.013003,3.869537 5.649112,3.681421 7.206708,2.317583 1.410868,-1.23686 0.528511,-5.060309 0.483646,-5.330255 0,0 8.573369,-13.619569 31.255401,-13.271555 19.018489,0.287723 27.389639,8.108722 30.352459,13.055222 0,0 -1.68269,7.248095 4.66244,5.892722 C 143.12028,27.781388 125.20602,3.66873 98.822814,3.6122961 74.367788,3.5624468 58.415585,20.354584 60.165061,27.051499 z"
   id="path3412"
   inkscape:connector-curvature="0"
   style="fill:#919090" /><path
   d="m 61.61054,26.306562 c 0.796106,2.285604 3.747263,2.612925 4.683138,1.632843 1.155031,-1.213346 0.258095,-4.207205 0.771274,-5.355651 0,0 9.894881,-14.4190605 32.111336,-14.0710475 17.579402,0.2723922 30.098492,10.4027925 31.499952,14.8987555 0,0 -0.89458,7.204828 3.47355,4.981301 C 139.63807,25.602068 122.26089,5.593153 99.235545,5.4708781 76.219598,5.3495428 60.173338,22.194355 61.612422,26.30468 z"
   id="path3414"
   inkscape:connector-curvature="0"
   style="fill:#7c7c7c" /><path
   d="m 190.19696,152.9648 c 0,6.80602 -5.69332,12.32157 -12.71662,12.32157 H 19.839472 c -7.019534,0 -12.716614,-5.5165 -12.716614,-12.32157 V 60.882208 c 0,-6.8032 5.69708,-12.321571 12.716614,-12.321571 H 177.48034 c 7.02236,0 12.71662,5.520251 12.71662,12.321571 v 92.129622 z"
   id="path3416"
   inkscape:connector-curvature="0"
   style="fill:#8e8682" /><path
   d="m 187.6574,151.36581 c 0,6.56429 -5.53812,11.88891 -12.3686,11.88891 H 21.974584 c -6.83424,0 -12.3686008,-5.32274 -12.3686008,-11.88891 V 62.490597 c 0,-6.565234 5.5390638,-11.888906 12.3686008,-11.888906 H 175.19474 c 6.83236,0 12.3686,5.327434 12.3686,11.888906 v 88.912843 z"
   id="path3418"
   style="fill:url(#linearGradient3439)"
   inkscape:connector-curvature="0" /><path
   d="m 184.7416,148.45002 c 0,6.25108 -5.35376,11.32456 -11.96415,11.32456 H 24.448304 c -6.60756,0 -11.964151,-5.07724 -11.964151,-11.32456 V 63.750971 c 0,-6.255784 5.360353,-11.324559 11.964151,-11.324559 H 172.77745 c 6.61415,0 11.96415,5.074419 11.96415,11.324559 v 84.708449 z"
   id="path3420"
   inkscape:connector-curvature="0"
   style="fill:#c1c1c1" /><path
   d="m 172.79626,52.417006 h -31.30243 c -2.41822,29.487125 1.47953,51.289724 -19.92144,80.908514 -13.72304,23.5803 -41.507709,20.95609 -59.058895,26.44906 H 172.84329 c 6.61414,0 11.96416,-5.07724 11.96416,-11.32456 V 63.750971 c 0,-6.255784 -5.35378,-11.324559 -11.96416,-11.324559 z"
   id="path3422"
   inkscape:connector-curvature="0"
   style="opacity:0.43999999;fill:#8e8682" /><path
   d="m 188.9742,90.604471 c 4.19404,-1.534084 4.05766,-4.509132 4.05766,-7.138043 V 33.860343 c 0,-2.627974 -3.16599,-4.760265 -7.06186,-4.760265 H 11.398725 c -3.9052798,0 -7.0665619,3.096383 -7.0665619,5.72812 v 50.960517 c 0,2.62891 0.7779516,4.675616 5.222088,5.981139 0,0 31.7351019,5.620884 91.1796389,5.620884 59.44452,0 88.26382,-6.788147 88.26382,-6.788147 z"
   id="path3424"
   inkscape:connector-curvature="0"
   style="fill:#5b5b5b" /><path
   d="m 186.05841,88.723321 c 4.0539,-1.430627 3.92879,-4.204387 3.92879,-6.658355 V 35.835557 c 0,-2.451147 -3.06721,-4.44141 -6.84082,-4.44141 H 14.12452 c -3.777361,0 -6.8408232,2.889456 -6.8408232,5.342484 v 47.536816 c 0,2.454908 0.7521801,4.360512 5.0546652,5.576685 0,0 30.719277,5.248424 88.263838,5.248424 57.54456,0 85.43269,-6.333854 85.43269,-6.333854 z"
   id="path3426"
   inkscape:connector-curvature="0"
   style="fill:#d8d8d8" /><path
   d="m 181.6377,32.486159 h -38.59192 c -1.74101,20.194209 -2.43421,40.689403 -7.64972,59.482152 32.97667,-1.64413 49.10758,-5.161893 49.10758,-5.161893 3.98334,-1.358191 3.85543,-3.983343 3.85543,-6.30846 V 36.68584 c 9e-4,-2.324168 -3.00703,-4.206265 -6.71761,-4.206265 z"
   id="path3428"
   inkscape:connector-curvature="0"
   style="opacity:0.6;fill:#5b5b5b" /><path
   d="M 181.91987,32.119333 H 17.506839 c -3.672017,0 -6.644244,1.730664 -6.644244,2.515106 v 3.015493 c 0,-0.785665 2.972227,-1.424035 6.644244,-1.424035 H 181.82581 c 3.67014,0 6.64989,0.637524 6.64989,1.424035 v -3.023018 c -0.0975,-1.472945 -2.97975,-2.50664 -6.64989,-2.50664 z"
   id="path3430"
   inkscape:connector-curvature="0"
   style="fill:#f0f0f0" /><path
   d="M 10.640619,75.470574 V 37.537063 H 129.62373 c 0,0 -100.924013,-1.021468 -118.983111,37.933511 z"
   id="path3432"
   style="opacity:0.70999995;fill:url(#radialGradient3430)"
   inkscape:connector-curvature="0" /><path
   d="M 10.640619,75.470574 V 37.537063 H 129.62373 c 0,0 -100.924013,-1.021468 -118.983111,37.933511 z"
   id="path3434"
   inkscape:connector-curvature="0"
   style="opacity:0.70999995;fill:#a2a2a2" /><path
   d="m 111.1884,114.40109 c 0,3.15658 -2.23481,5.7159 -4.98975,5.7159 H 93.09639 c -2.756835,0 -4.98977,-2.55932 -4.98977,-5.7159 V 88.44114 c 0,-3.155639 2.233875,-5.714944 4.98977,-5.714944 h 13.10226 c 2.75588,0 4.98975,2.559305 4.98975,5.714944 v 25.95995 z"
   id="path3436"
   inkscape:connector-curvature="0"
   style="fill:#4f4f4f" /><path
   d="m 109.58942,112.70805 c 0,2.71264 -1.91878,4.90982 -4.28622,4.90982 H 94.053896 c -2.368377,0 -4.286209,-2.19718 -4.286209,-4.90982 V 90.406953 c 0,-2.711683 1.917832,-4.909816 4.286209,-4.909816 H 105.3032 c 2.36838,0 4.28622,2.198133 4.28622,4.909816 v 22.301097 z"
   id="path3438"
   inkscape:connector-curvature="0"
   style="fill:#bcbcbc" /><rect
   height="4.5345268"
   width="23.081785"
   y="104.99532"
   x="88.078407"
   id="rect3440"
   style="fill:#4f4f4f" />
<g
   id="g263"
   style="opacity:0.5;fill:#000000;fill-opacity:1;filter:url(#AI_GaussianBlur_2.2)"
   transform="matrix(1,0,0,0.81633915,-14.382691,53.57388)"><path
     d="m 214.59,132.708 c -32.365,-39.49 -90.011,-48.72 -133.327,-19.733 -23.496,15.723 -38.202,39.654 -42.897,65.438 6.279,-13.261 16.099,-25.043 29.179,-33.797 35.135,-23.511 81.564,-17.002 109.063,13.509 l -11.42,7.642 66.189,32.584 -4.877,-73.614 -11.91,7.971 0,0 z"
     id="path265"
     style="fill:#000000;fill-opacity:1"
     inkscape:connector-curvature="0" /></g><path
   d="m 194.42931,155.66281 c -32.364,-32.23724 -90.011,-39.77205 -133.326001,-16.10801 -23.497,12.8353 -38.203,32.37111 -42.898,53.42042 6.279,-10.82629 16.099,-20.44358 29.179,-27.58982 35.135,-19.19295 81.565001,-13.87939 109.064001,11.02793 l -11.421,6.23846 66.189,26.59878 -4.877,-60.09317 -11.91,6.50541 0,0 z"
   id="path267-5"
   inkscape:connector-curvature="0"
   style="fill:#d59f0f;stroke:#333333;stroke-width:1.80702972" /></svg>