<?xml version="1.0" encoding="UTF-8" standalone="no"?><svg xmlns:rdf="http://www.w3.org/1999/02/22-rdf-syntax-ns#" xmlns="http://www.w3.org/2000/svg" version="1.1" xml:space="preserve" height="219" viewBox="-0.184 -0.384 219 219" width="219" enable-background="new -0.184 -0.384 234 159" y="0px" x="0px" xmlns:cc="http://creativecommons.org/ns#" xmlns:dc="http://purl.org/dc/elements/1.1/">	<metadata>		<rdf:RDF>			<cc:Work rdf:about="">				<dc:format>image/svg+xml</dc:format>				<dc:type rdf:resource="http://purl.org/dc/dcmitype/StillImage"/>				<dc:title/>			</cc:Work>		</rdf:RDF>	</metadata>	<defs>		<filter id="filter3821">			<feGaussianBlur stdDeviation="0.97006304"/>		</filter>	</defs>	<path d="m111.3,110.4c-0.3005-0.3005-0.5463-0.9846-0.5463-1.52v-0.9738l-29.64-0.2771c-19.55-0.1828-30.5-0.1178-32.17,0.1911-3.092,0.5717-5.645,0.2038-5.275-0.7602,0.1406-0.3664,0.5175-0.6662,0.8375-0.6662,0.8526,0,5.157-3.691,7.481-6.414,1.812-2.124,1.938-2.416,1.252-2.917-1.174-0.8582-1.268-0.6356,2.957-6.972,1.38-2.069,1.352-2.818-0.1039-2.818-0.9641,0-1.183-0.6721-0.3798-1.168,0.3583-0.2214,0.3408-0.4122-0.0605-0.6602-1.126-0.6961,0.603-2.395,15.81-15.53,7.345-6.347,7.903-6.736,9.039-6.304,1.609,0.6116,8.613,1.617,15.91,2.284,3.488,0.3187,6.895,0.9054,8.295,1.428,2.849,1.064,6.009,3.996,7.528,6.985l1.096,2.156,1.203-2.053c1.553-2.65,4.949-5.687,8.442-7.548,3.21-1.711,7.275-2.797,16.41-4.385l6.553-1.139,2.097,2.002c2.621,2.503,7.372,6.249,15.42,12.16,5.996,4.403,7.846,5.999,7.846,6.767,0,0.1948-0.7445,0.4938-1.654,0.6646l-1.654,0.3104,1.73,1.772c1.618,1.657,2.922,4.292,2.938,5.937,0.004,0.3938,0.9382,2.63,2.076,4.968,1.507,3.096,1.919,4.345,1.516,4.595-0.7689,0.4752,0.4523,2.265,3.767,5.521,1.454,1.428,2.495,2.685,2.312,2.792-0.1824,0.1075-5.146,0.0258-11.03-0.1815s-20.64-0.3883-32.79-0.4022l-22.1-0.0252-0.5155,1.366c-0.451,1.195-0.737,1.366-2.285,1.366-0.9733,0-2.015-0.2458-2.316-0.5463z" fill-rule="evenodd" fill-opacity="0.50196078000000000" transform="matrix(1.463598,0,0,2.0192708,-51.42272,-60.079336)" filter="url(#filter3821)" stroke-miterlimit="4" fill="#000"/>	<path d="m24.44,107.4s-2.201,1.959-1.733,3.302c0,0,3.394-0.2605,3.854,1.751,0,0-2.946,3.613-2.964,5.284,0,0-2.718,4.951-2.737,6.619,0,0-2.697,2.948-2.001,5.636,0,0,1.936,0.0424,1.66,3.043,0,0-12.02,19.66-15.2,17.34,0,0,4.07,4.127,16.47-0.947,10.6-3.291,16.85-5.192,27.6-7.316,4.306-0.8461,14.54-2.508,18.9-1.819,0,0,30.22-0.4119,35.89,12.4,0,0-0.2664,2.165,0.0747,4.008,0,0,0.4537,2.851,5.19,1.448,0,0,1.982-0.3493,1.319-6.04-0.1083-0.9329,9.592-4.614,10.14-4.826,8.17-3.259,16.61-5.864,25.13-6.326,10.2-0.5452,19.4,2.318,29.23,5.339,8.506,2.613,17.04,5.25,25.65,7.11,1.724,0.3736,5.515,2.007,7.227,0.6805,0,0-11.23-12.93-9.969-17.58,0,0,0.4859-0.3211,1.206,0.3615,0,0-7.063-17.85-6.062-20.84,0,0-1.655-3.374-1.15-5.367l-6.681-8.491" stroke="#0c0c0c" stroke-width="1.71912777" fill="#b7b7b7"/>	<path d="m107.2,92.13s-3.154-20.78-18.63-22.78c0,0-30.95-3.334-30.91-6.338,0,0-35.08,40.66-35.11,43.33,0,0,4.329,2.429,8.2,2.514,0,0,41.35,4.226,45.19,7.649,0,0,24.1,9.535,31.33,33.4,0,0,10.28-31.17,45.71-39.1,0,0,36.19-10.24,38.84-9.186,0,0-0.2137-2.68-4.047-6.1,0,0-32.8-32.77-32.76-36.1,0,0-13.05,3.131-29.39,8.384,0.001,0.0014-15.09,7.027-18.43,24.32z" stroke="#0c0c0c" stroke-width="1.71912777" fill="#eaeaea"/>	<line stroke-width="1.719" y2="92.13" y1="149.1" stroke="#0c0c0c" x2="107.2" x1="107.3" fill="#adadad"/>	<path d="m26.56,112.4s71.37,3.927,80.43,37.69" stroke="#0c0c0c" stroke-width="1.71912777" fill="none"/>	<path d="M107.2,149.9c-17.26-32.6-83.6-32.2-83.6-32.2" stroke="#0c0c0c" stroke-width="1.71912777" fill="none"/>	<path d="m20.86,124.3s74.15-3.197,86.05,26.12" stroke="#0c0c0c" stroke-width="1.71912777" fill="none"/>	<path d="m20.52,133c76.12-8.162,88.62,21.73,86.54,17.88" stroke="#0c0c0c" stroke-width="1.71912777" fill="none"/>	<path d="m192.2,110.7s-63.64-2.199-84.56,38.77" stroke="#0c0c0c" stroke-width="1.71912777" fill="none"/>	<path d="m108.2,149.3c20.34-32.3,85.1-33.25,85.1-33.25" stroke="#0c0c0c" stroke-width="1.71912777" fill="none"/>	<path d="m198.2,136.5s-58.88-24.53-91.11,14.41" stroke="#0c0c0c" stroke-width="1.71912777" fill="none"/>	<path d="m208.4,153.6c0.1698-0.1838-0.8152,1.296-7.791-0.212-8.615-1.86-17.14-4.497-25.65-7.11-9.835-3.021-19.03-5.884-29.23-5.339-8.521,0.4624-16.96,3.067-25.13,6.326-0.5445,0.212-10.24,3.891-10.14,4.826,0.663,5.69-1.32,6.038-1.32,6.038-4.735,1.401-5.188-1.448-5.188-1.448-0.341-1.846-0.0747-4.008-0.0747-4.008-5.666-12.81-35.89-12.4-35.89-12.4-4.362-0.6886-14.6,0.9713-18.9,1.819-10.76,2.124-17,4.022-27.6,7.316-12.4,5.076-15.95,2.512-15.95,2.512s-0.1742-1.082,1.569-0.9632" stroke="#513a20" stroke-width="3.43825555" fill="none"/>	<rect transform="matrix(0.92563974,-0.37840597,0.20998031,0.97770561,0,0)" height="55.36" width="61.18" y="120.8" x="94.44" fill="none"/>	<path d="m56.5,67.7,26.11,5.062-3.977,9.689-29.47-5.484z" fill-rule="evenodd" stroke-dashoffset="0" stroke="#000" stroke-miterlimit="4" stroke-width="1.17459011" fill="#d59f0f"/>	<path d="m48.17,78.85,30.02,5.477-3.977,9.689-33.39-5.899z" fill-rule="evenodd" stroke-dashoffset="0" stroke="#000" stroke-miterlimit="4" stroke-width="1.17459011" fill="#820024"/>	<path d="m39,91.09,34.54,5.893-3.977,9.689-37.91-6.315z" fill-rule="evenodd" stroke-dashoffset="0" stroke="#000" stroke-miterlimit="4" stroke-width="1.17459011" fill="#5191cd"/>	<path stroke-linejoin="miter" d="m85.01,73.94c7.078,1.701,13.6,5.837,18.98,14.96" stroke="#000" stroke-linecap="butt" stroke-width="1.17459023px" fill="none"/>	<path stroke-linejoin="miter" d="m84.41,77.69c5.794,1.052,11.74,3.767,18.38,14.13" stroke="#000" stroke-linecap="butt" stroke-width="1.17459023px" fill="none"/>	<path stroke-linejoin="miter" d="m83.65,82.08c6.862,0.4998,12.17,5.112,17.33,13.06" stroke="#000" stroke-linecap="butt" stroke-width="1.17459023px" fill="none"/>	<path stroke-linejoin="miter" d="m81.4,90.57c2.115,0.5737,5.024,1.159,8.188,3.837" stroke="#000" stroke-linecap="butt" stroke-width="1.17459023px" fill="none"/>	<path stroke-linejoin="miter" d="m80.49,93.06c6.432,1.295,11.86,6.068,17.17,11.22" stroke="#000" stroke-linecap="butt" stroke-width="1.17459023px" fill="none"/>	<path stroke-linejoin="miter" d="m77.18,99.71c2.859-0.01393,5.718,0.9379,8.578,2.489" stroke="#000" stroke-linecap="butt" stroke-width="1.17459023px" fill="none"/>	<path stroke-linejoin="miter" d="m76.6,102.9c7.294,0.9005,17.04,6.152,25.27,17.07" stroke="#000" stroke-linecap="butt" stroke-width="1.17459023px" fill="none"/>	<path stroke-linejoin="miter" d="m75.37,106.4c10.31,2.052,18.86,9.029,25.9,17.41" stroke="#000" stroke-linecap="butt" stroke-width="1.17459023px" fill="none"/>	<path stroke-linejoin="miter" d="m130,75.17c-7.078,1.701-13.6,5.837-18.98,14.96" stroke="#000" stroke-linecap="butt" stroke-width="1.17459023px" fill="none"/>	<path stroke-linejoin="miter" d="m130.6,78.91c-5.794,1.052-11.74,3.767-18.38,14.13" stroke="#000" stroke-linecap="butt" stroke-width="1.17459023px" fill="none"/>	<path stroke-linejoin="miter" d="m133.6,91.79c-2.115,0.5737-5.024,1.159-8.188,3.837" stroke="#000" stroke-linecap="butt" stroke-width="1.17459023px" fill="none"/>	<path stroke-linejoin="miter" d="m134.5,94.29c-6.432,1.295-11.86,6.068-17.17,11.22" stroke="#000" stroke-linecap="butt" stroke-width="1.17459023px" fill="none"/>	<path stroke-linejoin="miter" d="m137.8,100.9c-2.859-0.0139-5.718,0.9379-8.578,2.489" stroke="#000" stroke-linecap="butt" stroke-width="1.17459023px" fill="none"/>	<path stroke-linejoin="miter" d="m138.4,104.1c-7.294,0.9005-17.04,6.152-25.27,17.07" stroke="#000" stroke-linecap="butt" stroke-width="1.17459023px" fill="none"/>	<path stroke-linejoin="miter" d="m139.6,107.6c-10.31,2.052-18.86,9.029-25.9,17.41" stroke="#000" stroke-linecap="butt" stroke-width="1.17459023px" fill="none"/>	<path d="m155.2,65.22-24.4,5.943,3.977,9.689,28.19-6.659z" fill-rule="evenodd" stroke-dashoffset="0" stroke="#000" stroke-miterlimit="4" stroke-width="1.17459011" fill="#ee3424"/>	<path d="m164.4,77.56-28.75,6.946,3.977,9.689,32.96-7.662z" fill-rule="evenodd" stroke-dashoffset="0" stroke="#000" stroke-miterlimit="4" stroke-width="1.17459011" fill="#e96d1f"/>	<path d="m174.6,89.5-33.9,8.244,3.977,9.689,38.97-9.254z" fill-rule="evenodd" stroke-dashoffset="0" stroke="#000" stroke-miterlimit="4" stroke-width="1.17459011" fill="#96c93c"/></svg>