<?xml version="1.0" encoding="UTF-8" standalone="no"?><svg xmlns:rdf="http://www.w3.org/1999/02/22-rdf-syntax-ns#" xmlns="http://www.w3.org/2000/svg" enable-background="new -0.16 -0.936 196 176" xml:space="preserve" height="219" width="219" version="1.1" y="0px" x="0px" xmlns:cc="http://creativecommons.org/ns#" xmlns:dc="http://purl.org/dc/elements/1.1/" viewBox="-0.16 -0.936 219 219">	<metadata>		<rdf:RDF>			<cc:Work rdf:about="">				<dc:format>image/svg+xml</dc:format>				<dc:type rdf:resource="http://purl.org/dc/dcmitype/StillImage"/>				<dc:title/>			</cc:Work>		</rdf:RDF>	</metadata>	<defs>		<filter id="filter4045">			<feGaussianBlur stdDeviation="2.1401001"/>		</filter>	</defs>	<path d="m15.3,209c-1.49-1-3.81-3.6-5.15-5.77l-2.44-3.94-0.226-34.5c-0.14-21.4,0.0821-35.6,0.583-37.5,1.85-6.84,8.98-12.2,16.3-12.2l3.76-0.0177,0.26-11.5c0.249-11,0.357-11.7,2.48-14.9,1.22-1.84,3.7-4.33,5.51-5.53,2.8-1.85,4.35-2.23,10.4-2.52l7.1-0.34,0.259-11.5c0.254-11.3,0.301-11.6,2.68-14.9,1.46-2.08,4-4.25,6.41-5.5l3.99-2.05,26.8-0.259,26.8-0.259v-2.38c0-5.39,3.64-10.9,9.25-13.9,3.1-1.67,4.29-1.74,33.4-1.99,16.6-0.142,32-0.0287,34.3,0.251,5.88,0.719,10.9,4.22,13.5,9.46l2.06,4.14-0.0177,43.5c-0.0165,40.6-0.118,43.7-1.5,46.7-0.817,1.77-2.35,4.01-3.41,4.99-3.17,2.92-9.55,5.28-15.4,5.7l-5.44,0.389-0.0177,10.1c-0.0144,8.27-0.304,10.8-1.56,13.6-2.32,5.11-10.5,9.85-17.1,9.86l-2.21,0.004v10.7c0,9.49-0.204,11.1-1.81,14.3-2.05,4.07-8.15,8.26-13.3,9.1-1.67,0.276-32.4,0.505-68.3,0.51l-65.2,0.009-2.71-1.83z" fill-rule="evenodd" fill-opacity="0.5" transform="matrix(1.0158331,0,0,1.0086935,-2.0363154,-10.157446)" filter="url(#filter4045)" fill="#000"/>	<path d="m191,14.7h-57.1c-10,0-18.1,8.17-18.1,18.3v0.105h-47.3c-10,0-18.1,8.17-18.1,18.3v60.6c0,10.1,8.12,18.2,13.8,18.2h122c14.4,0,22.5-8.17,22.5-18.2v-79c0-10.1-8.11-18.3-18.1-18.3z" stroke="#000" stroke-width="2.11723566" fill="#666"/>	<path d="m208,33.5c0.701-10.4-7.86-18.1-17.2-18.3h-57.7c-10.1,0-17.2,7.93-16.5,17.9l91.4,0.374z" stroke="#000" stroke-width="2.11723566" fill="#5a175b"/>	<path d="m166,48.2h-57.1c-10,0-18.1,8.17-18.1,18.3v0.00988h-47c-10,0-18.1,8.17-18.1,18.3v60.6c0,10.1,8.12,18.3,13.8,18.3h122c14.4,0,22.5-8.18,22.5-18.3v-78.6c0-10.1-8.11-18.3-18.1-18.3z" stroke="#404040" stroke-width="2.11723566" fill="#AAA"/>	<path d="M184,66.7c0-11-8-17.1-18-18h-57.7c-10.1,0-17.1,7.54-17.1,17.9l92.1,0.125z" stroke="#404040" stroke-width="2.11723566" fill="#2f177c"/>	<path d="M145,82.1h-57.3c-10,0-18.1,8.17-18.1,18.3v0.104h-47c-10,0-18.1,8.17-18.1,18.3v60.6c0,10.1,8.12,18.3,13.8,18.3h122c14.4,0,22.5-8.18,22.5-18.3v-79c0-10.1-8.11-18.3-18.1-18.3z" stroke="#808080" stroke-width="2.11723566" fill="#d6d6d6"/>	<path d="M163,100c0-9.1-7-18.3-17-18.4l-59.3,0.129c-10.6,0.257-17.8,7.98-17.3,18.7z" stroke="#808080" stroke-width="2.18714643" fill="#b77b02"/></svg>