<?xml version="1.0"?>
<?metis version="3.1"?>
<?metisxml version="1.0"?>
<!DOCTYPE svg  PUBLIC "-//W3C//DTD SVG August 1999//EN"
 "http://www.w3.org/Graphics/SVG/svg-19990812.dtd">

<svg width="200" height="200">
 <title>Symbol library: cause.svg</title>
 <defs>
  <symbol id="oid0" xml:space="preserve" class="METIS_SYMBOL">
   <title>Cause</title>
    <g>
      <polygon points="-1.42109e-014 0 -1.42109e-014 304 16.2963 320 
       880 320 880 16 863.704 0 -1.42109e-014 0 
       -1.42109e-014 0 -1.42109e-014 0 -1.42109e-014 0 -1.42109e-014 0 
       -1.42109e-014 0 -1.42109e-014 0 "
       style=" stroke:#000000; stroke-width:1; fill:#9b9b9b; fill-opacity:100%"       class="TAG:shadow"></polygon>
      <rect x="-1.42109e-014" y="0" width="240" height="304"
       style=" stroke:#000000; stroke-width:1; fill:#ffffff; fill-opacity:100%"       class="TAG:PictureBackground"></rect>
      <rect x="240" y="0" width="624" height="304"
       style=" stroke:#000000; stroke-width:1; fill:#96a5ff; fill-opacity:100%"       class="TAG:canvas"></rect>
      <g>
	<desc>METIS_TEXT_GROUP</desc>
	<text  x="256" y="15.8"
	 style=" stroke:#000000; stroke-width:1; font-family:sans-serif; font-size:16;"
	 class="TAG:text">text</text>
	<rect x="256" y="0" width="608" height="304"
	 style=" stroke:#000000; stroke-width:1; fill:#ffffff; fill-opacity:0%"></rect>
      </g>
      <polyline points="864 304 880 320"
       style=" stroke:#000000; stroke-width:1;"></polyline>
      <g>
	<polygon points="79.4596 181.883 108.503 78.9431 127.723 117.256 
	 97.6117 218.26 79.4596 181.883 79.4596 181.883 79.4596 181.883 79.4596 181.883 "
	 style=" stroke:#000000; stroke-width:1; fill:#464646; fill-opacity:100%"	 class="TAG:Dominoes"></polygon>
	<polygon points="68.7821 104.485 94.4083 132.348 38.6712 212.456 
	 14.9668 186.914 68.7821 104.485 68.7821 104.485 68.7821 104.485 68.7821 104.485 "
	 style=" stroke:#000000; stroke-width:1; fill:#464646; fill-opacity:100%"	 class="TAG:Dominoes"></polygon>
	<polygon points="94.1711 132.52 97.6115 142.797 42.1591 222.13 
	 18.8107 197.362 15.1092 187.043 38.6712 211.295 94.1711 132.52 
	 94.1711 132.52 94.1711 132.52 94.1711 132.52 "
	 style=" stroke:#000000; stroke-width:1; fill:#464646; fill-opacity:100%"	 class="TAG:Dominoes"></polygon>
	<polyline points="38.7423 211.294 41.8744 221.614"
	 style=" stroke:#000000; stroke-width:1;"	 class="TAG:Dominoes"></polyline>
	<polygon points="108.787 79.7172 115.052 80.7491 133.844 118.416 
	 103.662 219.55 97.6828 217.873 127.295 117.071 108.787 79.7172 
	 108.787 79.7172 108.787 79.7172 108.787 79.7172 "
	 style=" stroke:#000000; stroke-width:1; fill:#464646; fill-opacity:100%"	 class="TAG:Dominoes"></polygon>
	<g>
	  <polygon points="137.986 71.9774 159.802 88.2309 159.802 217.099 
	   137.986 195.041 137.986 71.9774 137.986 71.9774 137.986 71.9774 137.986 71.9774 "
	   style=" stroke:#000000; stroke-width:1; fill:#464646; fill-opacity:100%"></polygon>
	  <polygon points="137.546 71.4613 146.066 71.4613 167.22 90.0367 
	   167.22 216.97 159.875 216.97 159.875 89.5209 137.546 71.4613 
	   137.546 71.4613 137.546 71.4613 137.546 71.4613 "
	   style=" stroke:#000000; stroke-width:1; fill:#464646; fill-opacity:100%"></polygon>
	  <polygon points="159.875 89.5209 166.633 89.5209 159.875 89.5209 
	   159.875 89.5209 159.875 89.5209 159.875 89.5209 "
	   style=" stroke:#000000; stroke-width:1; fill:#464646; fill-opacity:100%"></polygon>
	</g>
	<g>
	  <polygon points="194.635 78.8787 215.778 95.1323 215.778 224 
	   194.635 201.942 194.635 78.8787 194.635 78.8787 194.635 78.8787 194.635 78.8787 "
	   style=" stroke:#000000; stroke-width:1; fill:#464646; fill-opacity:100%"></polygon>
	  <polygon points="194.208 78.3627 202.466 78.3627 222.967 96.9381 
	   222.967 223.871 215.849 223.871 215.849 96.4223 194.208 78.3627 
	   194.208 78.3627 194.208 78.3627 194.208 78.3627 "
	   style=" stroke:#000000; stroke-width:1; fill:#464646; fill-opacity:100%"></polygon>
	  <polygon points="215.849 96.4223 222.397 96.4223 215.849 96.4223 
	   215.849 96.4223 215.849 96.4223 215.849 96.4223 "
	   style=" stroke:#000000; stroke-width:1; fill:#464646; fill-opacity:100%"></polygon>
	</g>
	<ellipse  cx="67.7143" cy="122.764" rx="3.20329" ry="5.12196"
	 style=" stroke:#dcdcdc; stroke-width:1; fill:#ffffff; fill-opacity:100%"	 class="TAG:Spots"></ellipse>
	<ellipse  cx="66.7532" cy="158.948" rx="3.20329" ry="5.12196"
	 style=" stroke:#dcdcdc; stroke-width:1; fill:#ffffff; fill-opacity:100%"	 class="TAG:Spots"></ellipse>
	<ellipse  cx="67.0736" cy="140.179" rx="3.20329" ry="5.12196"
	 style=" stroke:#dcdcdc; stroke-width:1; fill:#ffffff; fill-opacity:100%"	 class="TAG:Spots"></ellipse>
	<ellipse  cx="38.4576" cy="180.426" rx="3.20329" ry="5.12196"
	 style=" stroke:#dcdcdc; stroke-width:1; fill:#ffffff; fill-opacity:100%"	 class="TAG:Spots"></ellipse>
	<ellipse  cx="103.698" cy="169.396" rx="3.20329" ry="5.12196"
	 style=" stroke:#dcdcdc; stroke-width:1; fill:#ffffff; fill-opacity:100%"	 class="TAG:Spots"></ellipse>
	<ellipse  cx="86.934" cy="178.491" rx="3.20329" ry="5.12196"
	 style=" stroke:#dcdcdc; stroke-width:1; fill:#ffffff; fill-opacity:100%"	 class="TAG:Spots"></ellipse>
	<ellipse  cx="94.5149" cy="154.304" rx="3.20329" ry="5.12196"
	 style=" stroke:#dcdcdc; stroke-width:1; fill:#ffffff; fill-opacity:100%"	 class="TAG:Spots"></ellipse>
	<ellipse  cx="96.7572" cy="193.971" rx="3.20329" ry="5.12196"
	 style=" stroke:#dcdcdc; stroke-width:1; fill:#ffffff; fill-opacity:100%"	 class="TAG:Spots"></ellipse>
	<ellipse  cx="110.318" cy="144.242" rx="3.20329" ry="5.12196"
	 style=" stroke:#dcdcdc; stroke-width:1; fill:#ffffff; fill-opacity:100%"	 class="TAG:Spots"></ellipse>
	<ellipse  cx="148.224" cy="111.541" rx="3.20329" ry="5.12196"
	 style=" stroke:#dcdcdc; stroke-width:1; fill:#ffffff; fill-opacity:100%"	 class="TAG:Spots"></ellipse>
	<ellipse  cx="153.242" cy="190.295" rx="3.20329" ry="5.12196"
	 style=" stroke:#dcdcdc; stroke-width:1; fill:#ffffff; fill-opacity:100%"	 class="TAG:Spots"></ellipse>
	<ellipse  cx="143.739" cy="153.724" rx="3.20329" ry="5.12196"
	 style=" stroke:#dcdcdc; stroke-width:1; fill:#ffffff; fill-opacity:100%"	 class="TAG:Spots"></ellipse>
	<ellipse  cx="210.794" cy="137.47" rx="3.20329" ry="5.12196"
	 style=" stroke:#dcdcdc; stroke-width:1; fill:#ffffff; fill-opacity:100%"	 class="TAG:Spots"></ellipse>
	<ellipse  cx="200.01" cy="161.27" rx="3.20329" ry="5.12196"
	 style=" stroke:#dcdcdc; stroke-width:1; fill:#ffffff; fill-opacity:100%"	 class="TAG:Spots"></ellipse>
	<ellipse  cx="208.873" cy="202.872" rx="3.20329" ry="5.12196"
	 style=" stroke:#dcdcdc; stroke-width:1; fill:#ffffff; fill-opacity:100%"	 class="TAG:Spots"></ellipse>
	<ellipse  cx="201.597" cy="104.027" rx="3.20329" ry="5.12196"
	 style=" stroke:#dcdcdc; stroke-width:1; fill:#ffffff; fill-opacity:100%"	 class="TAG:Spots"></ellipse>
	<ellipse  cx="109.796" cy="106.103" rx="3.20329" ry="5.12196"
	 style=" stroke:#dcdcdc; stroke-width:1; fill:#ffffff; fill-opacity:100%"	 class="TAG:Spots"></ellipse>
      </g>
    </g>
  </symbol>
 </defs>
</svg>
