<?xml version="1.0"?>
<?metis version="3.0.2"?>
<?metisxml version="1.0"?>
<!DOCTYPE svg  PUBLIC "-//W3C//DTD SVG August 1999//EN"
 "http://www.w3.org/Graphics/SVG/svg-19990812.dtd">

<svg width="200" height="200">
 <title>Symbol library: change_plan_item.svg</title>
 <defs>
  <symbol id="oid1" xml:space="preserve" class="METIS_SYMBOL">
   <title>change plan item</title>
    <rect x="0" y="0" width="199.71" height="218.625"
     style=" stroke:#000000; stroke-width:1; fill:#ffffa5; fill-opacity:100%"></rect>
    <rect x="199.71" y="0" width="456.48" height="218.625"
     style=" stroke:#000000; stroke-width:1; fill:#a500a5; fill-opacity:100%"></rect>
    <g>
      <desc>METIS_TEXT_GROUP</desc>
      <text  x="208" y="12.8"
       style=" stroke:#000000; stroke-width:1; font-family:sans-serif; font-size:13;"
       class="TAG:text">text</text>
      <rect x="208" y="0" width="448.48" height="217.928"
       style=" stroke:#000000; stroke-width:1; fill:#ffffff; fill-opacity:0%"></rect>
    </g>
    <polyline points="21.6714 103.812 181.671 103.812"
     style=" stroke:#000000; stroke-width:2;"></polyline>
    <polyline points="21.6714 135.812 181.671 135.812"
     style=" stroke:#a50000; stroke-width:3;"></polyline>
    <polyline points="21.6714 167.812 181.671 167.812"
     style=" stroke:#000000; stroke-width:2;"></polyline>
    <polyline points="21.6714 199.812 181.671 199.812"
     style=" stroke:#000000; stroke-width:2;"></polyline>
    <g>
      <polygon points="32.0098 27.7441 34.9836 28.4492 37.7832 29.1543 
       37.0836 30.9176 36.0336 32.5048 34.6343 33.8267 33.2339 34.7966 
       31.4842 35.59 29.7346 36.2073 27.6356 36.5599 25.3614 36.6481 
       23.9611 36.6481 22.5618 36.4716 21.3366 36.2073 20.1124 35.9425 
       18.8873 35.5022 17.8383 34.9732 16.7883 34.4441 15.9134 33.739 
       14.1638 31.9757 12.7644 29.8599 12.0638 27.5676 11.7144 24.9227 
       12.0638 22.1018 12.7644 19.6335 14.1638 17.5177 15.9134 15.6662 
       16.9634 14.9611 17.8383 14.432 19.0624 13.9029 20.2876 13.4621 
       21.5118 13.1978 22.9121 12.9335 24.3114 12.8453 25.7108 12.757 
       28.1601 12.9335 30.4353 13.2861 32.5342 13.9912 34.2839 14.9611 
       35.3339 15.8427 36.3839 16.9003 37.0836 18.1345 37.7832 19.5452 
       34.8084 20.0743 31.8346 20.6034 31.4842 19.7217 30.9598 18.9284 
       30.2601 18.311 29.5604 17.6942 28.6856 17.2534 27.6356 16.9886 
       26.5856 16.8126 25.5356 16.7243 23.9611 16.8126 22.3866 17.1651 
       21.1624 17.782 20.1124 18.5753 19.2376 19.6335 18.5379 20.9559 
       18.1876 22.6309 18.0124 24.5702 18.1876 26.5982 18.5379 28.361 
       19.0624 29.6834 19.5869 30.3007 19.9373 30.7416 20.9873 31.5349 
       22.3866 32.1518 23.7859 32.5048 25.3614 32.5926 26.5856 32.5048 
       27.6356 32.3283 28.5104 31.9757 29.3853 31.4467 30.2601 30.7416 
       30.9598 29.9482 31.4842 28.89 32.0098 27.7441 32.0098 27.7441 
       32.0098 27.7441 32.0098 27.7441 "
       style=" stroke:#000000; stroke-width:1; fill:#006e00; fill-opacity:100%"></polygon>
      <polygon points="42.8234 36.2089 42.8234 24.6586 42.8234 13.1083 
       45.7991 13.1083 48.7757 13.1083 48.7757 17.6935 48.7757 22.1899 
       54.727 22.1899 60.6792 22.1899 60.6792 17.6935 60.6792 13.1083 
       63.8311 13.1083 66.8067 13.1083 66.8067 24.6586 66.8067 36.2089 
       63.8311 36.2089 60.6792 36.2089 60.6792 26.1577 54.727 26.1577 
       48.7757 26.1577 48.7757 36.2089 45.7991 36.2089 42.8234 36.2089 
       42.8234 36.2089 42.8234 36.2089 42.8234 36.2089 "
       style=" stroke:#000000; stroke-width:1; fill:#006e00; fill-opacity:100%"></polygon>
      <polygon points="99.8264 36.2089 96.6793 36.2089 93.3582 36.2089 
       91.9602 33.6519 90.7361 31.0067 78.6757 31.0067 77.4517 33.6519 
       76.2287 36.2089 73.0816 36.2089 69.7604 36.2089 75.7036 24.6586 
       81.4718 13.1083 87.765 13.1083 93.8832 24.6586 99.8264 36.2089 
       99.8264 36.2089 99.8264 36.2089 99.8264 36.2089 99.8264 36.2089 "
       style=" stroke:#000000; stroke-width:1; fill:#006e00; fill-opacity:100%"></polygon>
      <polygon points="88.7047 27.1622 86.751 22.8141 84.6206 18.4665 
       82.4891 22.8141 80.5364 27.1622 84.6206 27.1622 88.7047 27.1622 
       88.7047 27.1622 88.7047 27.1622 88.7047 27.1622 88.7047 27.1622 "
       style=" stroke:#000000; stroke-width:1; fill:#ffffa5; fill-opacity:100%"></polygon>
      <polygon points="102.955 36.2089 102.955 24.6586 102.955 13.1083 
       108.733 13.1083 115.035 20.8673 121.163 28.5381 121.163 20.8673 
       121.163 13.1083 123.964 13.1083 126.765 13.1083 126.765 24.6586 
       126.765 36.2089 123.789 36.2089 120.638 36.2089 108.558 21.1316 
       108.558 36.2089 105.756 36.2089 102.955 36.2089 102.955 36.2089 
       102.955 36.2089 102.955 36.2089 "
       style=" stroke:#000000; stroke-width:1; fill:#006e00; fill-opacity:100%"></polygon>
      <polygon points="146.844 27.7441 146.844 25.8044 146.844 23.8651 
       153.315 23.8651 159.785 23.8651 159.785 28.4492 159.785 33.0334 
       158.735 33.739 157.512 34.3558 155.938 34.9732 154.363 35.59 
       152.614 36.0308 150.692 36.3834 148.943 36.5599 147.019 36.6481 
       144.921 36.5599 142.822 36.2956 140.898 35.8548 139.149 35.2374 
       137.575 34.4441 136.177 33.4742 134.952 32.4165 133.903 31.0941 
       133.029 29.6834 132.33 28.0967 131.98 26.4217 131.804 24.6584 
       131.98 22.8069 132.33 21.1319 133.029 19.5452 133.903 18.1345 
       134.952 16.8126 136.177 15.7544 137.575 14.7845 139.149 14.0794 
       140.724 13.4621 142.647 13.1095 144.571 12.8453 146.67 12.757 
       149.292 12.8453 151.566 13.1978 153.664 13.7269 155.413 14.432 
       156.812 15.4019 158.036 16.636 158.911 17.9585 159.435 19.5452 
       156.462 19.986 153.489 20.4268 153.14 19.5452 152.614 18.8401 
       151.915 18.2228 151.041 17.6942 150.166 17.2534 149.118 16.9886 
       147.893 16.8126 146.67 16.7243 144.921 16.8126 143.346 17.1651 
       141.772 17.782 140.549 18.6636 139.499 19.7217 138.8 21.0442 
       138.276 22.6309 138.1 24.3942 138.276 26.4217 138.8 28.0967 
       139.499 29.5951 140.724 30.7416 141.947 31.5349 143.346 32.1518 
       144.921 32.5048 146.67 32.5926 148.593 32.5048 150.341 32.064 
       152.09 31.4467 153.839 30.6533 153.839 27.7441 150.341 27.7441 
       146.844 27.7441 146.844 27.7441 146.844 27.7441 146.844 27.7441 "
       style=" stroke:#000000; stroke-width:1; fill:#006e00; fill-opacity:100%"></polygon>
      <polygon points="165.346 36.2089 165.346 24.6586 165.346 13.1083 
       176.38 13.1083 187.588 13.1083 187.588 17.0761 171.301 17.0761 
       171.301 19.633 171.301 22.1899 178.831 22.1899 186.362 22.1899 
       186.362 24.1294 186.362 26.0694 178.831 26.0694 171.301 26.0694 
       171.301 29.155 171.301 32.3293 188.113 32.3293 188.113 34.2688 
       188.113 36.2089 176.73 36.2089 165.346 36.2089 165.346 36.2089 
       165.346 36.2089 165.346 36.2089 "
       style=" stroke:#000000; stroke-width:1; fill:#006e00; fill-opacity:100%"></polygon>
      <polygon points="46.2984 72.9238 46.2984 61.3735 46.2984 49.8232 
       51.2022 49.8232 56.105 49.8232 58.5564 49.8232 60.6572 49.9115 
       62.234 49.9998 63.2839 50.1763 64.5101 50.5289 65.7353 51.0581 
       66.7861 51.675 67.6617 52.4684 68.362 53.4384 68.8879 54.4962 
       69.2375 55.6428 69.4128 56.9654 69.2375 58.1997 69.0622 59.2575 
       68.5373 60.2275 67.837 61.1092 66.9615 61.9027 66.0859 62.6079 
       65.2103 63.137 64.1594 63.4896 62.7589 63.8422 61.0078 64.0187 
       58.906 64.1953 56.4546 64.1953 54.3539 64.1953 52.4274 64.1953 
       52.4274 72.9238 49.4511 72.9238 46.2984 72.9238 46.2984 72.9238 
       46.2984 72.9238 46.2984 72.9238 46.2984 72.9238 "
       style=" stroke:#000000; stroke-width:1; fill:#006e00; fill-opacity:100%"></polygon>
      <polygon points="52.3814 53.6881 52.3814 60.3635 54.1478 60.3635 
       55.7374 60.3635 57.3269 60.3635 58.5638 60.2744 59.6238 60.1853 
       60.3301 60.0076 61.566 59.6512 62.4492 58.9393 62.9797 58.0493 
       63.1565 57.0701 62.9797 56.0023 62.2734 55.1123 61.3902 54.4004 
       60.3301 53.9554 59.6238 53.8663 58.5638 53.7772 57.1511 53.6881 
       55.3847 53.6881 53.7952 53.6881 52.3814 53.6881 52.3814 53.6881 
       52.3814 53.6881 52.3814 53.6881 52.3814 53.6881 "
       style=" stroke:#000000; stroke-width:1; fill:#ffffa5; fill-opacity:100%"></polygon>
      <polygon points="74.2794 72.924 74.2794 61.4616 74.2794 49.9991 
       77.4333 49.9991 80.4127 49.9991 80.4127 69.0444 87.9474 69.0444 
       95.482 69.0444 95.482 70.9845 95.482 72.924 84.7935 72.924 
       74.2794 72.924 74.2794 72.924 74.2794 72.924 74.2794 72.924 "
       style=" stroke:#000000; stroke-width:1; fill:#006e00; fill-opacity:100%"></polygon>
      <polygon points="126.59 72.9238 123.269 72.9238 119.948 72.9238 
       118.724 70.2786 117.326 67.7217 111.383 67.7217 105.44 67.7217 
       104.216 70.2786 102.993 72.9238 99.6716 72.9238 96.5244 72.9238 
       102.468 61.3735 108.236 49.8232 114.529 49.8232 120.647 61.3735 
       126.59 72.9238 126.59 72.9238 126.59 72.9238 126.59 72.9238 126.59 72.9238 "
       style=" stroke:#000000; stroke-width:1; fill:#006e00; fill-opacity:100%"></polygon>
      <polygon points="115.468 63.7893 113.338 59.5299 111.386 55.1815 
       109.256 59.5299 107.126 63.7893 111.386 63.7893 115.468 63.7893 
       115.468 63.7893 115.468 63.7893 115.468 63.7893 115.468 63.7893 "
       style=" stroke:#000000; stroke-width:1; fill:#ffffa5; fill-opacity:100%"></polygon>
      <polygon points="129.545 72.9238 129.545 61.3735 129.545 49.8232 
       132.521 49.8232 135.498 49.8232 141.625 57.5823 147.752 65.2531 
       147.752 57.5823 147.752 49.8232 150.554 49.8232 153.355 49.8232 
       153.355 61.3735 153.355 72.9238 150.378 72.9238 147.403 72.9238 
       141.275 65.4296 135.323 57.8471 135.323 72.9238 129.545 72.9238 
       129.545 72.9238 129.545 72.9238 129.545 72.9238 "
       style=" stroke:#000000; stroke-width:1; fill:#006e00; fill-opacity:100%"></polygon>
    </g>
  </symbol>
 </defs>
</svg>
