<?xml version="1.0"?>
<?metis version="3.1"?>
<?metisxml version="1.0"?>
<!DOCTYPE svg  PUBLIC "-//W3C//DTD SVG August 1999//EN"
 "http://www.w3.org/Graphics/SVG/svg-19990812.dtd">

<svg width="200" height="200">
 <title>Symbol library: change_strategy.svg</title>
 <defs>
  <symbol id="oid1" xml:space="preserve" class="METIS_SYMBOL">
   <title>Change Strategy</title>
    <g>
      <polygon points="7.10543e-015 0 7.10543e-015 304 16.2963 320 
       880 320 880 16 863.704 0 7.10543e-015 0 
       7.10543e-015 0 7.10543e-015 0 7.10543e-015 0 7.10543e-015 0 "
       style=" stroke:#000000; stroke-width:1; fill:#9b9b9b; fill-opacity:100%"       class="TAG:shadow"></polygon>
      <rect x="240" y="0" width="624" height="304"
       style=" stroke:#000000; stroke-width:1; fill:#ffffa5; fill-opacity:100%"       class="TAG:canvas"></rect>
      <g>
	<desc>METIS_TEXT_GROUP</desc>
	<text  x="256" y="15.8"
	 style=" stroke:#000000; stroke-width:1; font-family:sans-serif; font-size:16;"
	 class="TAG:text">text</text>
	<rect x="256" y="0" width="608" height="304"
	 style=" stroke:#000000; stroke-width:1; fill:#ffffff; fill-opacity:0%"></rect>
      </g>
      <rect x="7.10543e-015" y="0" width="240" height="304"
       style=" stroke:#000000; stroke-width:1; fill:#ffffff; fill-opacity:100%"       class="TAG:PictureBackground"></rect>
      <polygon points="40.3896 249.591 43.9638 250.779 47.328 251.97 
       46.4869 255.066 45.2254 257.683 43.5434 259.826 41.8614 261.611 
       39.7588 262.92 37.6562 263.872 35.1332 264.468 32.3999 264.706 
       30.7177 264.587 29.0358 264.349 27.564 263.991 26.0922 263.516 
       24.6204 262.801 23.3588 261.968 22.0974 261.016 21.0461 259.826 
       18.9435 256.731 17.2614 253.161 16.6308 251.257 16.4205 249.233 
       16 246.971 16 244.71 16 242.21 16.4205 239.95 
       16.6308 237.688 17.2614 235.666 17.8922 233.76 18.9435 231.975 
       19.7845 230.429 21.0461 228.88 22.3076 227.81 23.3588 226.737 
       24.8307 225.905 26.3025 225.19 27.7742 224.715 29.4563 224.358 
       31.1383 224.12 32.8204 224 35.7638 224.239 38.4972 224.954 
       39.7588 225.43 41.0203 226.024 42.0715 226.857 43.1229 227.691 
       44.3844 229.238 45.646 231.023 46.4869 233.166 47.328 235.545 
       43.7536 236.497 40.1793 237.331 39.7588 235.903 39.128 234.594 
       38.287 233.403 37.446 232.451 36.3946 231.737 35.1332 231.261 
       33.8716 230.904 32.6101 230.785 30.7177 231.023 28.8255 231.617 
       27.3538 232.57 26.0922 233.879 25.4614 234.713 25.0409 235.666 
       24.6204 236.855 24.1999 238.046 23.9896 239.354 23.7795 240.903 
       23.5692 242.449 23.5692 244.234 23.5692 246.021 23.7795 247.686 
       23.9896 249.114 24.1999 250.543 24.4103 251.851 24.8307 252.923 
       25.4614 253.875 25.8819 254.708 27.1435 256.135 28.8255 257.088 
       30.5075 257.683 32.3999 257.922 33.8716 257.803 35.1332 257.445 
       36.1844 256.731 37.2357 255.898 38.287 254.708 39.128 253.28 
       39.7588 251.613 40.3896 249.591 40.3896 249.591 40.3896 249.591 
       40.3896 249.591 40.3896 249.591 40.3896 249.591 40.3896 249.591 
       40.3896 249.591 40.3896 249.591 "
       style=" stroke:#000000; stroke-width:1; fill:#006e00; fill-opacity:100%"></polygon>
      <polygon points="53.3847 263.994 53.3847 224.713 56.9605 224.713 
       60.5375 224.713 60.5375 232.449 60.5375 240.188 67.6903 240.188 
       74.8431 240.188 74.8431 232.449 74.8431 224.713 78.6295 224.713 
       82.2065 224.713 82.2065 263.994 78.6295 263.994 74.8431 263.994 
       74.8431 246.852 67.6903 246.852 60.5375 246.852 60.5375 263.994 
       56.9605 263.994 53.3847 263.994 53.3847 263.994 53.3847 263.994 
       53.3847 263.994 53.3847 263.994 53.3847 263.994 53.3847 263.994 
       53.3847 263.994 53.3847 263.994 "
       style=" stroke:#000000; stroke-width:1; fill:#006e00; fill-opacity:100%"></polygon>
      <polygon points="121.889 263.994 118.108 263.994 114.117 263.994 
       112.436 259.589 110.966 255.067 96.4703 255.067 95.0005 259.589 
       93.5294 263.994 89.7485 263.994 85.7573 263.994 92.8997 244.354 
       99.8319 224.713 107.394 224.713 114.747 244.354 121.889 263.994 
       121.889 263.994 121.889 263.994 121.889 263.994 121.889 263.994 
       121.889 263.994 121.889 263.994 121.889 263.994 121.889 263.994 121.889 263.994 "
       style=" stroke:#000000; stroke-width:1; fill:#006e00; fill-opacity:100%"></polygon>
      <polygon points="108.523 248.448 106.176 241.148 103.615 233.85 
       101.054 241.148 98.7061 248.448 103.615 248.448 108.523 248.448 
       108.523 248.448 108.523 248.448 108.523 248.448 108.523 248.448 
       108.523 248.448 108.523 248.448 108.523 248.448 108.523 248.448 108.523 248.448 "
       style=" stroke:#000000; stroke-width:1; fill:#ffffff; fill-opacity:100%"></polygon>
      <polygon points="125.649 263.994 125.649 224.713 132.59 224.713 
       140.166 237.807 147.528 250.901 147.528 237.807 147.528 224.713 
       150.894 224.713 154.261 224.713 154.261 263.994 150.684 263.994 
       146.897 263.994 139.744 251.257 132.38 238.401 132.38 251.138 
       132.38 263.994 129.015 263.994 125.649 263.994 125.649 263.994 
       125.649 263.994 125.649 263.994 125.649 263.994 125.649 263.994 
       125.649 263.994 125.649 263.994 125.649 263.994 "
       style=" stroke:#000000; stroke-width:1; fill:#006e00; fill-opacity:100%"></polygon>
      <polygon points="178.392 249.591 178.392 246.257 178.392 242.925 
       186.168 242.925 193.944 242.925 193.944 258.635 192.685 259.826 
       191.212 260.897 189.321 261.968 187.429 262.92 185.327 263.753 
       183.015 264.23 180.912 264.587 178.601 264.706 176.08 264.587 
       173.558 264.11 171.247 263.397 169.144 262.325 167.254 261.016 
       165.572 259.35 164.101 257.445 162.84 255.304 161.789 252.923 
       160.949 250.186 160.528 247.328 160.319 244.234 160.528 241.139 
       160.949 238.282 161.789 235.545 162.84 233.166 164.101 231.023 
       165.572 229.118 167.254 227.57 169.144 226.262 171.036 225.311 
       173.348 224.596 175.659 224.12 178.182 224 181.334 224.239 
       184.066 224.715 186.589 225.667 188.69 226.976 190.372 228.642 
       191.842 230.548 192.894 232.928 193.525 235.545 189.951 236.259 
       186.379 237.092 185.958 235.666 185.327 234.475 184.487 233.403 
       183.437 232.451 182.386 231.737 181.125 231.142 179.653 230.904 
       178.182 230.785 176.08 231.023 174.19 231.617 172.298 232.57 
       170.826 233.998 169.565 235.785 168.724 238.046 168.094 240.784 
       167.884 243.877 168.094 247.21 168.724 250.186 169.565 252.685 
       171.036 254.708 172.507 256.135 174.19 257.088 176.08 257.683 
       178.182 257.922 179.233 257.803 180.494 257.683 182.596 256.969 
       184.697 256.016 185.748 255.304 186.798 254.589 186.798 249.591 
       182.596 249.591 178.392 249.591 178.392 249.591 178.392 249.591 
       178.392 249.591 178.392 249.591 178.392 249.591 178.392 249.591 
       178.392 249.591 178.392 249.591 "
       style=" stroke:#000000; stroke-width:1; fill:#006e00; fill-opacity:100%"></polygon>
      <polygon points="200.626 263.994 200.626 224.713 213.886 224.713 
       227.355 224.713 227.355 228.045 227.355 231.378 207.781 231.378 
       207.781 235.664 207.781 240.069 216.832 240.069 225.881 240.069 
       225.881 243.4 225.881 246.614 216.832 246.614 207.781 246.614 
       207.781 257.327 227.986 257.327 227.986 260.661 227.986 263.994 
       214.305 263.994 200.626 263.994 200.626 263.994 200.626 263.994 
       200.626 263.994 200.626 263.994 200.626 263.994 200.626 263.994 
       200.626 263.994 200.626 263.994 "
       style=" stroke:#000000; stroke-width:1; fill:#006e00; fill-opacity:100%"></polygon>
      <polyline points="864 304 880 320"
       style=" stroke:#000000; stroke-width:1;"></polyline>
      <polygon points="83.7642 89.3446 104.47 125.812 114.823 103.931 
       135.53 118.519 145.883 96.6379 208 213.333 32 213.333 
       83.7642 89.3446 83.7642 89.3446 83.7642 89.3446 83.7642 89.3446 
       83.7642 89.3446 83.7642 89.3446 "
       style=" stroke:#000000; stroke-width:1; fill:#ffffa5; fill-opacity:100%"       class="TAG:polygon"></polygon>
      <polyline points="83.7642 89.3446 114.823 16.4103 145.883 96.6379"
       style=" stroke:#000000; stroke-width:1;"       class="TAG:polyline"></polyline>
    </g>
  </symbol>
 </defs>
</svg>
