<?xml version="1.0"?>
<?metis version="3.1"?>
<?metisxml version="1.0"?>
<!DOCTYPE svg  PUBLIC "-//W3C//DTD SVG August 1999//EN"
 "http://www.w3.org/Graphics/SVG/svg-19990812.dtd">

<svg width="200" height="200">
 <title>Symbol library: change_directive.svg</title>
 <defs>
  <symbol id="oid1" xml:space="preserve" class="METIS_SYMBOL">
   <title>Transition Directive</title>
    <g>
      <polygon points="7.10543e-015 0 7.10543e-015 304 16.2963 320 
       880 320 880 16 863.704 0 7.10543e-015 0 
       7.10543e-015 0 7.10543e-015 0 7.10543e-015 0 "
       style=" stroke:#000000; stroke-width:1; fill:#9b9b9b; fill-opacity:100%"       class="TAG:shadow"></polygon>
      <rect x="240" y="0" width="624" height="304"
       style=" stroke:#000000; stroke-width:1; fill:#ffffa5; fill-opacity:100%"       class="TAG:canvas"></rect>
      <g>
	<desc>METIS_TEXT_GROUP</desc>
	<text  x="252" y="15.8"
	 style=" stroke:#000000; stroke-width:1; font-family:sans-serif; font-size:16;"
	 class="TAG:text">text</text>
	<rect x="252" y="0" width="612" height="304"
	 style=" stroke:#000000; stroke-width:1; fill:#ffffff; fill-opacity:0%"></rect>
      </g>
      <rect x="7.10543e-015" y="0" width="240" height="304"
       style=" stroke:#000000; stroke-width:1; fill:#ffffff; fill-opacity:100%"       class="TAG:PictureBackground"></rect>
      <polygon points="122.307 165.262 160.763 73.0496 122.307 17.722 
       83.8518 73.0496 122.307 165.262 122.307 165.262 122.307 165.262 
       122.307 165.262 122.307 165.262 122.307 165.262 122.307 165.262 
       122.307 165.262 122.307 165.262 "
       style=" stroke:#000000; stroke-width:1; fill:#00a500; fill-opacity:100%"></polygon>
      <ellipse  cx="122.307" cy="196.878" rx="19.2279" ry="10.5386"
       style=" stroke:#000000; stroke-width:1; fill:#00a500; fill-opacity:100%"></ellipse>
      <polygon points="40.3896 248.952 43.9638 250.111 47.328 251.271 
       46.4869 254.289 45.2254 256.841 43.5435 258.93 41.8614 260.672 
       39.7588 261.947 37.6563 262.876 35.1332 263.457 32.4 263.688 
       30.7178 263.573 29.0358 263.341 27.564 262.992 26.0923 262.528 
       24.6205 261.831 23.3589 261.02 22.0974 260.091 21.0461 258.93 
       18.9436 255.914 17.2615 252.432 16.6308 250.576 16.4205 248.602 
       16 246.397 16 244.192 16 241.755 16.4205 239.551 
       16.6308 237.346 17.2615 235.374 17.8923 233.516 18.9436 231.776 
       19.7845 230.268 21.0461 228.758 22.3076 227.715 23.3589 226.669 
       24.8308 225.858 26.3026 225.161 27.7742 224.697 29.4563 224.349 
       31.1384 224.117 32.8205 224 35.7639 224.233 38.4972 224.93 
       39.7588 225.394 41.0203 225.973 42.0716 226.786 43.123 227.599 
       44.3845 229.107 45.646 230.848 46.4869 232.937 47.328 235.257 
       43.7537 236.185 40.1793 236.998 39.7588 235.606 39.128 234.329 
       38.2871 233.169 37.4461 232.24 36.3947 231.544 35.1332 231.079 
       33.8716 230.732 32.6101 230.616 30.7178 230.848 28.8255 231.427 
       27.3538 232.356 26.0923 233.632 25.4615 234.445 25.041 235.374 
       24.6205 236.534 24.2 237.695 23.9897 238.97 23.7795 240.48 
       23.5692 241.988 23.5692 243.728 23.5692 245.47 23.7795 247.094 
       23.9897 248.487 24.2 249.879 24.4103 251.155 24.8308 252.2 
       25.4615 253.129 25.882 253.94 27.1435 255.333 28.8255 256.261 
       30.5076 256.841 32.4 257.074 33.8716 256.958 35.1332 256.609 
       36.1845 255.914 37.2358 255.101 38.2871 253.94 39.128 252.548 
       39.7588 250.924 40.3896 248.952 40.3896 248.952 40.3896 248.952 
       40.3896 248.952 40.3896 248.952 40.3896 248.952 40.3896 248.952 40.3896 248.952 "
       style=" stroke:#000000; stroke-width:1; fill:#00a500; fill-opacity:100%"></polygon>
      <polygon points="53.3848 262.994 53.3848 224.696 56.9606 224.696 
       60.5376 224.696 60.5376 232.239 60.5376 239.783 67.6903 239.783 
       74.8431 239.783 74.8431 232.239 74.8431 224.696 78.6296 224.696 
       82.2065 224.696 82.2065 262.994 78.6296 262.994 74.8431 262.994 
       74.8431 246.281 67.6903 246.281 60.5376 246.281 60.5376 262.994 
       56.9606 262.994 53.3848 262.994 53.3848 262.994 53.3848 262.994 
       53.3848 262.994 53.3848 262.994 53.3848 262.994 53.3848 262.994 53.3848 262.994 "
       style=" stroke:#000000; stroke-width:1; fill:#00a500; fill-opacity:100%"></polygon>
      <polygon points="121.89 262.994 118.108 262.994 114.117 262.994 
       112.436 258.7 110.966 254.291 96.4704 254.291 95.0005 258.7 
       93.5295 262.994 89.7486 262.994 85.7573 262.994 92.8998 243.846 
       99.8319 224.696 107.394 224.696 114.747 243.846 121.89 262.994 
       121.89 262.994 121.89 262.994 121.89 262.994 121.89 262.994 
       121.89 262.994 121.89 262.994 121.89 262.994 121.89 262.994 "
       style=" stroke:#000000; stroke-width:1; fill:#00a500; fill-opacity:100%"></polygon>
      <polygon points="108.522 247.837 106.176 240.72 103.614 233.605 
       101.054 240.72 98.7061 247.837 103.614 247.837 108.522 247.837 
       108.522 247.837 108.522 247.837 108.522 247.837 108.522 247.837 
       108.522 247.837 108.522 247.837 108.522 247.837 108.522 247.837 "
       style=" stroke:#000000; stroke-width:1; fill:#ffffff; fill-opacity:100%"></polygon>
      <polygon points="125.649 262.994 125.649 224.696 132.591 224.696 
       140.166 237.462 147.528 250.228 147.528 237.462 147.528 224.696 
       150.895 224.696 154.261 224.696 154.261 262.994 150.683 262.994 
       146.897 262.994 139.744 250.576 132.38 238.041 132.38 250.46 
       132.38 262.994 129.015 262.994 125.649 262.994 125.649 262.994 
       125.649 262.994 125.649 262.994 125.649 262.994 125.649 262.994 
       125.649 262.994 125.649 262.994 "
       style=" stroke:#000000; stroke-width:1; fill:#00a500; fill-opacity:100%"></polygon>
      <polygon points="178.392 248.952 178.392 245.702 178.392 242.452 
       186.168 242.452 193.944 242.452 193.944 257.77 192.684 258.93 
       191.212 259.975 189.321 261.02 187.429 261.947 185.327 262.76 
       183.015 263.225 180.913 263.573 178.601 263.688 176.08 263.573 
       173.557 263.108 171.246 262.412 169.145 261.367 167.254 260.091 
       165.572 258.467 164.101 256.609 162.84 254.521 161.789 252.2 
       160.949 249.531 160.528 246.745 160.319 243.728 160.528 240.712 
       160.949 237.926 161.789 235.257 162.84 232.937 164.101 230.848 
       165.572 228.99 167.254 227.482 169.145 226.205 171.036 225.278 
       173.348 224.581 175.659 224.117 178.182 224 181.335 224.233 
       184.067 224.697 186.589 225.626 188.69 226.902 190.372 228.526 
       191.842 230.384 192.893 232.705 193.524 235.257 189.95 235.954 
       186.379 236.765 185.958 235.374 185.327 234.213 184.487 233.169 
       183.437 232.24 182.385 231.544 181.125 230.964 179.653 230.732 
       178.182 230.616 176.08 230.848 174.189 231.427 172.298 232.356 
       170.826 233.748 169.565 235.49 168.724 237.695 168.094 240.364 
       167.884 243.381 168.094 246.63 168.724 249.531 169.565 251.968 
       171.036 253.94 172.507 255.333 174.189 256.261 176.08 256.841 
       178.182 257.074 179.233 256.958 180.494 256.841 182.596 256.145 
       184.696 255.217 185.748 254.521 186.798 253.824 186.798 248.952 
       182.596 248.952 178.392 248.952 178.392 248.952 178.392 248.952 
       178.392 248.952 178.392 248.952 178.392 248.952 178.392 248.952 178.392 248.952 "
       style=" stroke:#000000; stroke-width:1; fill:#00a500; fill-opacity:100%"></polygon>
      <polygon points="200.627 262.994 200.627 224.696 213.885 224.696 
       227.355 224.696 227.355 227.944 227.355 231.194 207.782 231.194 
       207.782 235.373 207.782 239.667 216.832 239.667 225.881 239.667 
       225.881 242.916 225.881 246.05 216.832 246.05 207.782 246.05 
       207.782 256.495 227.985 256.495 227.985 259.744 227.985 262.994 
       214.306 262.994 200.627 262.994 200.627 262.994 200.627 262.994 
       200.627 262.994 200.627 262.994 200.627 262.994 200.627 262.994 200.627 262.994 "
       style=" stroke:#000000; stroke-width:1; fill:#00a500; fill-opacity:100%"></polygon>
      <polyline points="864 304 880 320"
       style=" stroke:#000000; stroke-width:1;"></polyline>
    </g>
  </symbol>
 </defs>
</svg>
