<?xml version="1.0"?>
<?metis version="3.6"?>
<?metisxml version="1.1"?>
<!DOCTYPE svg  PUBLIC "-//W3C//DTD SVG August 1999//EN"
 "http://www.w3.org/Graphics/SVG/svg-19990812.dtd">



<!--
Troux Technologies, Inc. Confidential and Proprietary.
This work contains valuable confidential, proprietary and trade secret
information of Troux Technologies, Inc. and is protected by the laws of 
the United States and other countries. Any disclosure, use or reproduction
of this work without the prior written authorization of Troux Technologies, Inc.
is strictly prohibited.
Copyright (C) 2000-2006 Troux Technologies, Inc. All rights reserved.
-->


<svg
 width="200" height="200">
 <title>Symbol library: common_symbol_components_field_status.svg</title>
 <defs>
  <symbol id="oid1" xml:space="preserve" class="METIS_SYMBOL">
   <title>Key</title>
    <g>
      <polygon points="20.7112 1.13687e-013 13.729 7.04563 7.84512 8.96028 
       3.92255 10.8748 0.98879 14.7744 0 18.5333 0 31.9354 
       1.96126 35.7645 11.7677 45.0001 13.729 52.9958 15.6903 52.9958 
       15.6903 58.7396 17.6516 58.7396 17.6516 114.263 27.458 123.836 
       39.2257 112.349 35.3031 110.434 35.3031 108.518 39.2257 104.689 
       35.3031 100.86 35.3031 97.0304 39.2257 93.2024 39.2257 89.3736 
       35.3031 85.5431 35.3031 81.7143 39.2257 77.8855 35.3031 74.057 
       35.3031 68.3125 39.2257 64.4833 39.2257 58.7396 43.1483 58.7396 
       43.1483 52.9958 45.1096 45.3374 54.916 35.7645 56.8773 31.9354 
       56.8773 18.5333 54.916 14.704 50.9934 10.8748 47.0708 8.96028 
       41.187 7.04563 33.6556 1.13687e-013 20.7112 1.13687e-013 20.7112 1.13687e-013 
       20.7112 1.13687e-013 20.7112 1.13687e-013 20.7112 1.13687e-013 20.7112 1.13687e-013 
       20.7112 1.13687e-013 20.7112 1.13687e-013 20.7112 1.13687e-013 20.7112 1.13687e-013 
       20.7112 1.13687e-013 20.7112 1.13687e-013 20.7112 1.13687e-013 20.7112 1.13687e-013 
       20.7112 1.13687e-013 20.7112 1.13687e-013 20.7112 1.13687e-013 20.7112 1.13687e-013 
       20.7112 1.13687e-013 20.7112 1.13687e-013 20.7112 1.13687e-013 20.7112 1.13687e-013 "
       style=" stroke:#ffb367; stroke-width:1; fill:#dc8700; fill-opacity:100%"       class="TAG:key"></polygon>
      <polygon points="21.5742 118.091 21.5742 52.9958 23.5355 52.9958 
       23.5355 120.005 21.5742 118.091 21.5742 118.091 21.5742 118.091 
       21.5742 118.091 21.5742 118.091 21.5742 118.091 21.5742 118.091 
       21.5742 118.091 21.5742 118.091 21.5742 118.091 21.5742 118.091 
       21.5742 118.091 21.5742 118.091 21.5742 118.091 21.5742 118.091 
       21.5742 118.091 21.5742 118.091 21.5742 118.091 21.5742 118.091 
       21.5742 118.091 21.5742 118.091 21.5742 118.091 "
       style=" stroke:#dc8700; stroke-width:1; fill:#f9a703; fill-opacity:100%"       class="TAG:key"></polygon>
      <polygon points="29.4192 121.92 29.4192 52.9958 33.3418 52.9958 
       33.3418 118.091 29.4192 121.92 29.4192 121.92 29.4192 121.92 
       29.4192 121.92 29.4192 121.92 29.4192 121.92 29.4192 121.92 
       29.4192 121.92 29.4192 121.92 29.4192 121.92 29.4192 121.92 
       29.4192 121.92 29.4192 121.92 29.4192 121.92 29.4192 121.92 
       29.4192 121.92 29.4192 121.92 29.4192 121.92 29.4192 121.92 
       29.4192 121.92 29.4192 121.92 29.4192 121.92 "
       style=" stroke:#dc8700; stroke-width:1; fill:#f9a703; fill-opacity:100%"       class="TAG:key"></polygon>
      <polygon points="39.2257 58.7396 39.2257 52.9958 41.187 52.9958 
       41.187 58.7396 39.2257 58.7396 39.2257 58.7396 39.2257 58.7396 
       39.2257 58.7396 39.2257 58.7396 39.2257 58.7396 39.2257 58.7396 
       39.2257 58.7396 39.2257 58.7396 39.2257 58.7396 39.2257 58.7396 
       39.2257 58.7396 39.2257 58.7396 39.2257 58.7396 39.2257 58.7396 
       39.2257 58.7396 39.2257 58.7396 39.2257 58.7396 39.2257 58.7396 
       39.2257 58.7396 39.2257 58.7396 39.2257 58.7396 "
       style=" stroke:#dc8700; stroke-width:1; fill:#f9a703; fill-opacity:100%"       class="TAG:key"></polygon>
      <polygon points="23.5355 2.52723 19.6129 7.04563 23.3001 10.1091 
       31.0667 10.1091 35.3031 7.04563 31.0667 2.52723 23.5355 2.52723 
       23.5355 2.52723 23.5355 2.52723 23.5355 2.52723 23.5355 2.52723 
       23.5355 2.52723 23.5355 2.52723 23.5355 2.52723 23.5355 2.52723 
       23.5355 2.52723 23.5355 2.52723 23.5355 2.52723 23.5355 2.52723 
       23.5355 2.52723 23.5355 2.52723 23.5355 2.52723 23.5355 2.52723 
       23.5355 2.52723 23.5355 2.52723 23.5355 2.52723 23.5355 2.52723 23.5355 2.52723 "
       style=" stroke:#ffb367; stroke-width:1; fill:#ffffff; fill-opacity:100%"       class="TAG:key"></polygon>
    </g>
  </symbol>
  <symbol id="oid2" xml:space="preserve" class="METIS_SYMBOL">
   <title>Star</title>
    <polygon points="0 25.231 21.4197 41.252 13.3162 66.582 
     35.0427 50.813 56.4186 66.582 48.3588 41.351 69.7344 25.231 
     43.1025 25.231 35.0427 1.13687e-013 26.9828 25.231 0 25.231 
     0 25.231 0 25.231 0 25.231 0 25.231 
     0 25.231 0 25.231 0 25.231 0 25.231 
     0 25.231 0 25.231 0 25.231 0 25.231 
     0 25.231 0 25.231 0 25.231 0 25.231 
     0 25.231 0 25.231 0 25.231 "
     style=" stroke:#00ff00; stroke-width:1; fill:#00ff00; fill-opacity:100%"     class="TAG:Star"></polygon>
  </symbol>
  <symbol id="oid3" xml:space="preserve" class="METIS_SYMBOL">
   <title>Left Hand</title>
    <polygon points="14.0614 0.472 16.6094 1.13687e-013 20.6674 3.115 
     26.8959 5.191 33.5963 5.285 43.1278 7.173 49.1676 10.853 
     57.378 17.648 58.6992 20.29 62.0022 23.216 62.0022 24.348 
     61.1528 25.386 59.2654 26.047 55.9624 25.67 52.1875 23.499 
     47.5633 19.441 43.942 17.573 44.8147 20.469 49.7648 26.342 
     56.309 32.467 62.2715 38.161 66.3445 41.8446 68.3133 44.0819 
     67.9553 45.9613 66.7919 47.1247 64.6441 47.3932 61.6267 45.77 
     57.8389 42.74 51.6943 37.521 47.0648 33.397 46.0411 33.177 
     45.6989 34.46 50.4045 38.824 56.7356 44.812 65.5883 51.738 
     66.4376 53.248 66.6264 55.041 65.3052 56.834 63.5121 57.683 
     61.2472 57.4 59.7373 56.362 51.6878 51.144 44.1589 44.984 
     39.0256 40.449 37.9134 41.2 38.17 42.312 42.6189 46.951 
     54.4256 56.087 55.4523 57.798 55.88 59.509 55.2811 61.306 
     53.3134 61.99 50.8323 61.049 37.4 51.4 32.2915 46.457 
     31.1416 46.211 30.9774 47.278 34.4056 51.039 44.2445 57.798 
     45.2711 58.996 45.6134 60.621 45.3567 61.733 44.4156 62.332 
     42.2669 62.605 38.5633 60.501 31.3244 55.703 26.0215 51.326 
     19.5402 45.602 11.1229 32.892 5.81997 22.623 3.04226 19.003 
     1.44297 17.152 0 15.782 12.5443 1.467 12.5443 1.467 
     12.5443 1.467 12.5443 1.467 14.0614 0.472 14.0614 0.472 
     14.0614 0.472 14.0614 0.472 14.0614 0.472 "
     style=" stroke:#9b9b9b; stroke-width:1; fill:#b9b9b9; fill-opacity:100%"     class="TAG:ManualHand"></polygon>
  </symbol>
  <symbol id="oid4" xml:space="preserve" class="METIS_SYMBOL">
   <title>Right Hand</title>
    <polygon points="54.2519 0.472 51.7039 1.13687e-013 47.6459 3.115 
     41.4174 5.191 34.717 5.285 25.1855 7.173 19.1457 10.853 
     10.9353 17.648 9.61409 20.29 6.31109 23.216 6.31109 24.348 
     7.16049 25.386 9.04789 26.047 12.3509 25.67 16.1258 23.499 
     20.75 19.441 24.3713 17.573 23.4986 20.469 18.5485 26.342 
     12.0043 32.467 6.04179 38.161 1.96883 41.8446 0 44.0819 
     0.35797 45.9613 1.52137 47.1247 3.66919 47.3932 6.68659 45.77 
     10.4744 42.74 16.619 37.521 21.2485 33.397 22.2722 33.177 
     22.6144 34.46 17.9088 38.824 11.5777 44.812 2.72499 51.738 
     1.87569 53.248 1.68689 55.041 3.00809 56.834 4.80119 57.683 
     7.06609 57.4 8.57599 56.362 16.6255 51.144 24.1544 44.984 
     29.2877 40.449 30.3999 41.2 30.1433 42.312 25.6944 46.951 
     13.8877 56.087 12.861 57.798 12.4333 59.509 13.0322 61.306 
     14.9999 61.99 17.481 61.049 30.9133 51.4 36.0218 46.457 
     37.1717 46.211 37.3359 47.278 33.9077 51.039 24.0688 57.798 
     23.0422 58.996 22.6999 60.621 22.9566 61.733 23.8977 62.332 
     26.0464 62.605 29.75 60.501 36.9889 55.703 42.2918 51.326 
     48.7731 45.602 57.1904 32.892 62.4933 22.623 65.271 19.003 
     66.8703 17.152 68.3133 15.782 55.769 1.467 55.769 1.467 
     55.769 1.467 55.769 1.467 54.2519 0.472 54.2519 0.472 
     54.2519 0.472 54.2519 0.472 54.2519 0.472 "
     style=" stroke:#9b9b9b; stroke-width:1; fill:#b9b9b9; fill-opacity:100%"     class="TAG:ManualHand"></polygon>
  </symbol>
  <symbol id="oid5" xml:space="preserve" class="METIS_SYMBOL">
   <title>Deleted Banner</title>
    <rect x="0" y="1.13687e-013" width="112.18" height="35.5542"
     style=" stroke:#ff0000; stroke-width:1; fill:#ff0000; fill-opacity:100%"     class="TAG:DeletedBanner"></rect>
  </symbol>
  <symbol id="oid6" xml:space="preserve" class="METIS_SYMBOL">
   <title>Stringy Star</title>
    <g>
      <polyline points="30.3409 30.3409 6.0682 6.0682"
       style=" stroke:#95f5ff; stroke-width:2;"></polyline>
      <polyline points="30.3409 30.3409 54.614 6.0682"
       style=" stroke:#95f5ff; stroke-width:2;"></polyline>
      <polyline points="30.3409 30.3409 54.614 54.6136"
       style=" stroke:#95f5ff; stroke-width:2;"></polyline>
      <polyline points="30.3409 30.3409 6.0682 54.6136"
       style=" stroke:#95f5ff; stroke-width:2;"></polyline>
      <polyline points="30.3409 30.3409 60.682 30.3409"
       style=" stroke:#95f5ff; stroke-width:2;"></polyline>
      <polyline points="30.3409 30.3409 30.3409 1.13687e-013"
       style=" stroke:#95f5ff; stroke-width:2;"></polyline>
      <polyline points="30.3409 60.6818 30.3409 30.3409"
       style=" stroke:#95f5ff; stroke-width:2;"></polyline>
      <polyline points="0 30.3409 30.3409 30.3409"
       style=" stroke:#95f5ff; stroke-width:2;"></polyline>
    </g>
  </symbol>
 </defs>
</svg>
