<?xml version="1.0"?>
<?metis version="3.1"?>
<?metisxml version="1.0"?>
<!DOCTYPE svg  PUBLIC "-//W3C//DTD SVG August 1999//EN"
 "http://www.w3.org/Graphics/SVG/svg-19990812.dtd">

<svg width="200" height="200">
 <title>Symbol library: communication_software.svg</title>
 <defs>
  <symbol id="oid1" xml:space="preserve" class="METIS_SYMBOL">
   <title>Communication Software</title>
    <g>
      <polygon points="0 0 0 304 16.2963 320 
       880 320 880 16 863.704 0 0 0 
       0 0 0 0 0 0 0 0 
       0 0 0 0 0 0 0 0 
       0 0 0 0 0 0 "
       style=" stroke:#000000; stroke-width:1; fill:#9b9b9b; fill-opacity:100%"       class="TAG:shadow"></polygon>
      <rect x="0" y="0" width="240" height="304"
       style=" stroke:#000000; stroke-width:1; fill:#ffffa5; fill-opacity:100%"       class="TAG:PictureBackground"></rect>
      <rect x="240" y="0" width="624" height="304"
       style=" stroke:#000000; stroke-width:1; fill:#6e6eff; fill-opacity:100%"       class="TAG:canvas"></rect>
      <rect x="245.357" y="25.7143" width="569.522" height="231.429"
       style="stroke:none; fill:#878787; fill-opacity:0%"       class="TAG:grid"></rect>
      <g>
	<desc>METIS_TEXT_GROUP</desc>
	<text  x="256" y="15.8"
	 style=" stroke:#000000; stroke-width:1; font-family:sans-serif; font-size:16;"
	 class="TAG:text">text</text>
	<rect x="256" y="0" width="608" height="304"
	 style=" stroke:#000000; stroke-width:1; fill:#ffffff; fill-opacity:0%"></rect>
      </g>
      <polyline points="864 304 880 320"
       style=" stroke:#000000; stroke-width:1;"></polyline>
      <g>
	<polygon points="121.726 201.749 121.726 201.749 101.02 201.749 
	 92.3922 206.411 137.255 255.366 145.883 250.704 208 166.782 
	 187.294 166.782 178.667 171.445 145.883 225.061 121.726 201.749 
	 121.726 201.749 121.726 201.749 121.726 201.749 121.726 201.749 
	 121.726 201.749 121.726 201.749 121.726 201.749 "
	 style=" stroke:#000000; stroke-width:1; fill:#ffff00; fill-opacity:100%"	 class="TAG:text"></polygon>
	<polygon points="113.098 206.411 113.098 206.411 92.3922 206.411 
	 137.255 255.366 199.373 171.445 178.667 171.445 137.255 229.723 
	 113.098 206.411 113.098 206.411 113.098 206.411 113.098 206.411 
	 113.098 206.411 113.098 206.411 113.098 206.411 113.098 206.411 "
	 style=" stroke:#000000; stroke-width:1; fill:#ffff6e; fill-opacity:100%"	 class="TAG:text"></polygon>
	<polygon points="61.3334 166.782 61.3334 166.782 40.6274 166.782 
	 32 171.445 94.1177 255.366 102.745 250.704 144.156 201.749 
	 123.451 201.749 114.823 206.411 102.745 225.061 61.3334 166.782 
	 61.3334 166.782 61.3334 166.782 61.3334 166.782 61.3334 166.782 
	 61.3334 166.782 61.3334 166.782 61.3334 166.782 "
	 style=" stroke:#000000; stroke-width:1; fill:#ffff00; fill-opacity:100%"	 class="TAG:text"></polygon>
	<polygon points="104.471 174.942 83.7646 174.942 76.8627 178.438 
	 90.6666 188.929 107.921 193.591 121.725 195.922 132.078 195.922 
	 142.431 193.591 152.784 193.591 161.795 188.796 164.735 184.533 
	 166.588 177.272 166.205 170.679 161.795 164.285 152.784 157.458 
	 144.156 153.961 135.529 151.63 125.177 149.298 114.823 146.968 
	 106.196 143.471 104.471 137.643 107.921 130.649 118.274 125.987 
	 128.628 125.987 140.707 127.152 147.607 130.649 149.334 135.312 
	 159.686 138.809 166.588 135.312 166.588 130.649 163.137 123.656 
	 154.51 117.828 145.883 114.331 132.078 112 121.725 112 
	 107.921 114.331 101.02 117.828 94.1177 123.656 87.2157 130.649 
	 85.4901 137.643 87.2157 144.636 90.6666 151.63 97.1853 156.825 
	 105.813 160.022 116.549 162.12 128.628 164.451 140.707 167.948 
	 144.156 170.279 147.607 174.942 145.883 179.604 142.431 181.935 
	 135.529 184.266 125.177 184.266 114.823 181.935 106.196 178.438 
	 104.471 174.942 104.471 174.942 104.471 174.942 104.471 174.942 
	 104.471 174.942 104.471 174.942 104.471 174.942 104.471 174.942 "
	 style=" stroke:#000000; stroke-width:1; fill:#ffff00; fill-opacity:100%"	 class="TAG:text"></polygon>
	<polygon points="97.5686 178.438 76.8627 178.438 76.8627 183.1 
	 83.7646 192.425 101.02 197.087 114.823 199.419 125.177 199.419 
	 135.529 197.087 144.605 195.488 154.894 192.291 157.833 188.03 
	 159.686 180.769 159.304 174.176 154.894 167.781 145.883 160.955 
	 137.255 157.458 128.628 155.126 118.274 152.796 107.921 150.464 
	 99.2941 146.968 97.5686 141.139 101.02 134.146 111.372 129.484 
	 121.725 129.484 133.804 130.649 140.707 134.146 142.431 138.809 
	 159.686 138.809 159.686 134.146 156.235 127.152 147.607 121.325 
	 138.98 117.828 125.177 115.497 114.823 115.497 101.02 117.828 
	 94.1177 122.49 87.2157 127.152 80.3137 134.146 78.5883 141.139 
	 80.3137 148.133 83.7646 155.126 90.2833 160.321 98.9107 163.519 
	 109.647 165.617 121.725 167.948 133.804 171.445 137.255 173.775 
	 140.707 178.438 138.98 183.1 135.529 185.432 128.628 187.762 
	 118.274 187.762 107.921 185.432 99.2941 181.935 97.5686 178.438 
	 97.5686 178.438 97.5686 178.438 97.5686 178.438 97.5686 178.438 
	 97.5686 178.438 97.5686 178.438 97.5686 178.438 "
	 style=" stroke:#000000; stroke-width:1; fill:#ffff6e; fill-opacity:100%"	 class="TAG:text"></polygon>
	<polyline points="97.5686 178.438 97.5686 178.438 104.471 174.942"
	 style=" stroke:#000000; stroke-width:1;"	 class="TAG:text"></polyline>
	<polygon points="52.7059 171.445 52.7059 171.445 32 171.445 
	 94.1177 255.366 135.529 206.411 114.823 206.411 94.1177 229.723 
	 52.7059 171.445 52.7059 171.445 52.7059 171.445 52.7059 171.445 
	 52.7059 171.445 52.7059 171.445 52.7059 171.445 52.7059 171.445 "
	 style=" stroke:#000000; stroke-width:1; fill:#ffff6e; fill-opacity:100%"	 class="TAG:text"></polygon>
	<polyline points="52.7059 171.445 52.7059 171.445 61.3334 166.782"
	 style=" stroke:#000000; stroke-width:1;"	 class="TAG:text"></polyline>
	<polyline points="113.098 206.411 113.098 206.411 121.725 201.749"
	 style=" stroke:#000000; stroke-width:1;"	 class="TAG:text"></polyline>
	<polyline points="135.529 206.411 135.529 206.411 144.156 201.749"
	 style=" stroke:#000000; stroke-width:1;"	 class="TAG:text"></polyline>
	<polyline points="199.371 171.445 199.371 171.445 208 166.782"
	 style=" stroke:#000000; stroke-width:1;"	 class="TAG:text"></polyline>
      </g>
      <g>
	<polygon points="49.1246 72.2335 54.0222 74.1048 58.6298 75.9762 
	 57.4779 80.8422 55.7509 84.9588 53.4454 88.3279 51.1416 91.1352 
	 48.5496 93.1928 45.669 94.6907 42.2116 95.6264 38.4676 96 
	 36.1638 95.8126 33.8584 95.439 31.843 94.8769 29.8259 94.1286 
	 27.8106 93.0055 26.0819 91.6962 24.3533 90.1995 22.9129 88.3279 
	 21.1843 86.0819 20.0325 83.6493 18.5921 80.8422 17.7287 78.035 
	 16.8652 74.8543 16.5768 71.6724 16 64.5614 16 60.6317 
	 16.5768 57.076 16.8652 53.5205 17.7287 50.3392 18.5921 47.345 
	 20.0325 44.5381 21.1843 42.1052 22.9129 39.6725 24.6417 37.9882 
	 26.0819 36.3041 28.0973 34.9942 30.1143 33.8712 32.1314 33.1228 
	 34.4352 32.5615 36.7389 32.1871 39.0444 32 43.0768 32.3742 
	 46.5324 33.497 48.2612 34.2456 49.9898 35.1811 51.43 36.4912 
	 52.8704 37.8011 54.5974 40.2338 56.326 43.0409 57.4779 46.4093 
	 58.6298 50.1521 53.7338 51.6491 48.8362 52.959 48.2612 50.7134 
	 47.3976 48.6549 46.2441 46.7837 45.0922 45.2865 43.6519 44.1637 
	 42.2116 43.4151 40.4846 42.8538 38.4676 42.6665 35.8754 43.0409 
	 33.5717 43.9766 31.2663 45.4736 29.5376 47.5321 28.9625 48.8422 
	 28.0973 50.3392 27.5222 52.2104 26.9455 54.082 26.6587 56.1405 
	 26.3703 58.5732 26.0819 61.0059 26.0819 63.8128 26.0819 66.6199 
	 26.3703 69.24 26.6587 71.485 26.9455 73.7312 27.5222 75.79 
	 28.0973 77.4741 28.6741 78.9709 29.5376 80.2812 31.2663 82.5264 
	 33.5717 84.0231 35.5871 84.9588 38.1792 85.3335 40.1962 85.1461 
	 41.9233 84.5852 43.6519 83.4621 45.0922 82.1516 46.2441 80.2812 
	 47.3976 78.035 48.2612 75.4153 49.1246 72.2335 49.1246 72.2335 
	 49.1246 72.2335 49.1246 72.2335 49.1246 72.2335 49.1246 72.2335 "
	 style=" stroke:#000000; stroke-width:1; fill:#6e0000; fill-opacity:100%"></polygon>
	<polygon points="64.9251 64.3743 65.2116 59.1345 65.788 54.2689 
	 66.651 49.9648 68.0901 46.2222 69.8177 42.8538 71.8334 39.8596 
	 73.8474 37.4269 76.4378 35.5555 79.0283 34.0585 81.9068 32.9355 
	 85.0737 32.1871 88.5286 32 91.1191 32.1871 93.7094 32.5615 
	 96.0117 33.1228 98.3156 34.0585 100.33 35.1811 102.345 36.6783 
	 104.071 38.3626 105.799 40.2338 107.238 42.4794 108.677 44.9123 
	 109.828 47.5321 110.693 50.3392 111.556 53.5205 112.132 56.7018 
	 112.419 60.2573 112.419 63.9999 112.419 67.7427 112.132 71.2988 
	 111.556 74.6669 110.693 77.8478 109.828 80.6548 108.677 83.4621 
	 107.238 86.0819 105.51 88.3279 104.071 90.1995 102.057 91.6962 
	 100.33 93.0055 98.3156 94.1286 96.0117 94.8769 93.7094 95.439 
	 91.4072 95.8126 88.8151 96 86.2247 95.8126 83.6344 95.439 
	 81.3321 94.8769 79.0283 94.1286 77.0141 93.0055 75.2867 91.6962 
	 73.5592 90.1995 71.8334 88.3279 70.1059 86.0819 68.9547 83.6493 
	 67.5154 80.8422 66.651 78.035 65.788 74.8543 65.4998 71.485 
	 64.9251 68.1169 64.9251 64.3743 64.9251 64.3743 64.9251 64.3743 
	 64.9251 64.3743 64.9251 64.3743 64.9251 64.3743 64.9251 64.3743 "
	 style=" stroke:#000000; stroke-width:1; fill:#6e0000; fill-opacity:100%"></polygon>
	<polygon points="74.9376 63.9999 75.227 69.0599 76.0954 73.3699 
	 77.2515 76.9306 78.9849 79.9296 81.0094 82.3656 83.3217 84.0521 
	 85.9234 84.9891 88.8146 85.3644 91.7057 84.9891 94.0197 84.0521 
	 96.3319 82.3656 98.3564 79.9296 99.223 78.6172 100.09 76.9306 
	 100.669 75.2441 101.246 73.3699 102.114 68.8722 102.404 63.8125 
	 102.404 61.1888 102.114 58.7526 101.825 56.5037 101.535 54.4421 
	 100.09 50.6941 98.6442 47.8829 96.6214 45.634 94.3075 43.9475 
	 91.7057 43.0103 88.8146 42.6355 85.9234 43.0103 83.3217 43.9475 
	 80.7199 45.634 78.6972 47.8829 77.8288 49.1948 77.2515 50.8815 
	 76.3831 52.568 76.0954 54.4421 75.227 58.94 74.9376 63.9999 
	 74.9376 63.9999 74.9376 63.9999 74.9376 63.9999 74.9376 63.9999 
	 74.9376 63.9999 74.9376 63.9999 "
	 style=" stroke:#000000; stroke-width:1; fill:#ffffa5; fill-opacity:100%"></polygon>
	<polygon points="119.857 94.8805 119.857 33.1194 134.537 33.1194 
	 139.143 54.268 143.461 75.2293 148.066 54.268 152.384 33.1194 
	 159.868 33.1194 167.351 33.1194 167.351 94.8805 157.852 94.8805 
	 157.852 70.5502 157.852 46.2204 152.959 70.5502 148.066 94.8805 
	 138.566 94.8805 133.962 70.5502 129.068 46.2204 129.068 70.5502 
	 129.068 94.8805 124.461 94.8805 119.857 94.8805 119.857 94.8805 
	 119.857 94.8805 119.857 94.8805 119.857 94.8805 119.857 94.8805 "
	 style=" stroke:#000000; stroke-width:1; fill:#6e0000; fill-opacity:100%"></polygon>
	<polygon points="176.506 94.8805 176.506 33.1194 191.186 33.1194 
	 195.792 54.268 200.11 75.2293 204.714 54.268 209.032 33.1194 
	 216.517 33.1194 224 33.1194 224 94.8805 219.395 94.8805 
	 214.79 94.8805 214.79 70.5502 214.79 46.2204 209.895 70.5502 
	 205.002 94.8805 195.504 94.8805 190.609 70.5502 185.717 46.2204 
	 185.717 70.5502 185.717 94.8805 181.111 94.8805 176.506 94.8805 
	 176.506 94.8805 176.506 94.8805 176.506 94.8805 176.506 94.8805 176.506 94.8805 "
	 style=" stroke:#000000; stroke-width:1; fill:#6e0000; fill-opacity:100%"></polygon>
      </g>
    </g>
  </symbol>
 </defs>
</svg>
