<?xml version="1.0"?>
<?metis version="3.4"?>
<?metisxml version="1.1"?>
<!DOCTYPE svg  PUBLIC "-//W3C//DTD SVG August 1999//EN"
 "http://www.w3.org/Graphics/SVG/svg-19990812.dtd">



<!--
Troux Technologies, Inc. Confidential and Proprietary.
This work contains valuable confidential, proprietary and trade secret
information of Troux Technologies, Inc. and is protected by the laws of 
the United States and other countries. Any disclosure, use or reproduction
of this work without the prior written authorization of Troux Technologies, Inc.
is strictly prohibited.
Copyright (C) 2000-2006 Troux Technologies, Inc. All rights reserved.
-->


<svg
 width="200" height="200">
 <title>Symbol library: computas_metis.svg</title>
 <defs>
  <symbol id="oid1" xml:space="preserve" class="METIS_SYMBOL">
   <title>Metis Application</title>
    <g>
      <g>
	<polygon points="0.00850184 12.6556 4.29119 20.9483 12.4965 9.69876 
	 9.36558 0.0358139 0.00850184 12.6556 0.00850184 12.6556 0.00850184 12.6556 
	 0.00850184 12.6556 0.00850184 12.6556 0.00850184 12.6556 0.00850184 12.6556 
	 0.00850184 12.6556 0.00850184 12.6556 0.00850184 12.6556 0.00850184 12.6556 
	 0.00850184 12.6556 0.00850184 12.6556 0.00850184 12.6556 0.00850184 12.6556 0.00850184 12.6556 "
	 style=" stroke:#000000; stroke-width:1; fill:#9b9b9b; fill-opacity:100%"></polygon>
	<polygon points="18.0031 27.907 26.9639 15.7202 12.4606 9.6265 
	 4.28846 20.9154 18.0031 27.907 18.0031 27.907 18.0031 27.907 
	 18.0031 27.907 18.0031 27.907 18.0031 27.907 18.0031 27.907 
	 18.0031 27.907 18.0031 27.907 18.0031 27.907 18.0031 27.907 
	 18.0031 27.907 18.0031 27.907 18.0031 27.907 18.0031 27.907 18.0031 27.907 "
	 style=" stroke:#000000; stroke-width:1; fill:#dcdcdc; fill-opacity:100%"></polygon>
	<polygon points="0 12.6445 9.36558 0 23.5482 5.71409 
	 13.8608 19.0458 0 12.6445 0 12.6445 0 12.6445 
	 0 12.6445 0 12.6445 0 12.6445 0 12.6445 
	 0 12.6445 0 12.6445 0 12.6445 0 12.6445 
	 0 12.6445 0 12.6445 0 12.6445 0 12.6445 0 12.6445 "
	 style=" stroke:#000000; stroke-width:1; fill:#dcdcdc; fill-opacity:100%"></polygon>
	<polygon points="13.8284 19.0373 18.039 27.907 27 15.7202 
	 23.5454 5.69678 13.8284 19.0373 13.8284 19.0373 13.8284 19.0373 
	 13.8284 19.0373 13.8284 19.0373 13.8284 19.0373 13.8284 19.0373 
	 13.8284 19.0373 13.8284 19.0373 13.8284 19.0373 13.8284 19.0373 
	 13.8284 19.0373 13.8284 19.0373 13.8284 19.0373 13.8284 19.0373 13.8284 19.0373 "
	 style=" stroke:#000000; stroke-width:1; fill:#9b9b9b; fill-opacity:100%"></polygon>
	<ellipse  cx="18" cy="7.5" rx="2" ry="2"
	 style=" stroke:#000000; stroke-width:1; fill:#ff5050; fill-opacity:100%"></ellipse>
	<rect x="12" y="10" width="3" height="3"
	 style=" stroke:#00006e; stroke-width:1; fill:#00006e; fill-opacity:100%"></rect>
	<rect x="8.5" y="11" width="3.5" height="1"
	 style=" stroke:#9b9b9b; stroke-width:1; fill:#9b9b9b; fill-opacity:100%"></rect>
	<polygon points="6 10 7.5 7.5 8.5 8 
	 7 10.5 6 10 6 10 6 10 
	 6 10 6 10 6 10 6 10 "
	 style=" stroke:#9b9b9b; stroke-width:1; fill:#9b9b9b; fill-opacity:100%"></polygon>
	<polygon points="8 6.5 9.5 4 10.5 4.5 
	 9 7 8 6.5 8 6.5 8 6.5 
	 8 6.5 8 6.5 8 6.5 8 6.5 "
	 style=" stroke:#9b9b9b; stroke-width:1; fill:#9b9b9b; fill-opacity:100%"></polygon>
	<ellipse  cx="8.25" cy="7.25" rx="1.25" ry="1.25"
	 style=" stroke:#4b4bff; stroke-width:1; fill:#4b4bff; fill-opacity:100%"></ellipse>
	<polygon points="8 3.5 8 3.5 11.5 5 
	 14 3.5 10.5 2 8 3.5 8 3.5 
	 8 3.5 8 3.5 8 3.5 8 3.5 8 3.5 "
	 style=" stroke:#00006e; stroke-width:1; fill:#00006e; fill-opacity:100%"></polygon>
	<ellipse  cx="5.75" cy="11.5" rx="3.3" ry="2.4"
	 style=" stroke:#000000; stroke-width:1; fill:#a500a5; fill-opacity:100%"></ellipse>
	<polygon points="17.5 17 22 11.5 22.5 12 
	 18 17.5 17.5 17 17.5 17 17.5 17 
	 17.5 17 17.5 17 17.5 17 17.5 17 "
	 style=" stroke:#000000; stroke-width:1; fill:#000000; fill-opacity:100%"></polygon>
	<ellipse  cx="22.75" cy="11" rx="1.75" ry="2"
	 style=" stroke:#6e0000; stroke-width:1; fill:#6e0000; fill-opacity:100%"></ellipse>
	<polygon points="18 19 22 18 22.5 18.5 
	 18 19.5 18 19 18 19 18 19 
	 18 19 18 19 18 19 18 19 "
	 style=" stroke:#000000; stroke-width:1; fill:#000000; fill-opacity:100%"></polygon>
	<polygon points="15 19 16.5 22 19 18.5 
	 17.5 15.5 15 19 15 19 15 19 
	 15 19 15 19 15 19 15 19 "
	 style=" stroke:#006e00; stroke-width:1; fill:#006e00; fill-opacity:100%"></polygon>
	<polygon points="21 18 22.5 20 24.5 17.5 
	 23 15.5 21 18 21 18 21 18 
	 21 18 21 18 21 18 21 18 "
	 style=" stroke:#6e006e; stroke-width:1; fill:#6e006e; fill-opacity:100%"></polygon>
      </g>
      <ellipse  cx="8.08292" cy="22.5935" rx="5.58292" ry="5.59347"
       style=" stroke:#00006e; stroke-width:1; fill:#00006e; fill-opacity:100%"></ellipse>
    </g>
  </symbol>
 </defs>
</svg>
