<?xml version="1.0"?>
<?metis version="3.1"?>
<?metisxml version="1.0"?>
<!DOCTYPE svg  PUBLIC "-//W3C//DTD SVG August 1999//EN"
 "http://www.w3.org/Graphics/SVG/svg-19990812.dtd">

<svg width="200" height="200">
 <title>Symbol library: competence.svg</title>
 <defs>
  <symbol id="oid0" xml:space="preserve" class="METIS_SYMBOL">
   <title>Competence</title>
    <g>
      <polygon points="7.10543e-015 0 7.10543e-015 304 16.2963 320 
       880 320 880 16 863.704 0 7.10543e-015 0 
       7.10543e-015 0 7.10543e-015 0 7.10543e-015 0 7.10543e-015 0 
       7.10543e-015 0 7.10543e-015 0 "
       style=" stroke:#000000; stroke-width:1; fill:#9b9b9b; fill-opacity:100%"       class="TAG:shadow"></polygon>
      <rect x="7.10543e-015" y="0" width="240" height="304"
       style=" stroke:#000000; stroke-width:1; fill:#ffffa5; fill-opacity:100%"       class="TAG:PictureBackground"></rect>
      <rect x="240" y="0" width="624" height="304"
       style=" stroke:#000000; stroke-width:1; fill:#96a5ff; fill-opacity:100%"       class="TAG:canvas"></rect>
      <rect x="245.357" y="25.7143" width="569.522" height="231.429"
       style="stroke:none; fill:#878787; fill-opacity:0%"       class="TAG:grid"></rect>
      <g>
	<desc>METIS_TEXT_GROUP</desc>
	<text  x="256" y="15.8"
	 style=" stroke:#000000; stroke-width:1; font-family:sans-serif; font-size:16;"
	 class="TAG:text">text</text>
	<rect x="256" y="0" width="608" height="304"
	 style=" stroke:#000000; stroke-width:1; fill:#ffffff; fill-opacity:0%"></rect>
      </g>
      <polyline points="864 304 880 320"
       style=" stroke:#000000; stroke-width:1;"></polyline>
      <g>
	<path d="M 164.986 95.3613 C 111.685 130.216 115.431 140.245 
	 98.6847 169.173 C 85.0342 192.751 82.4346 209.154 69.4341 221.455 
	 C 63.1444 227.407 85.0342 218.38 86.9842 225.556 C 90.5508 238.68 
	 85.6432 257.333 88.9343 253.235 C 101.284 237.858 103.554 223.944 
	 122.735 188.65 C 138.335 159.946 134.436 163.021 178.636 131.242 Z"
	 style=" stroke:#000000; stroke-width:1; fill:#0000ff; fill-opacity:100%"	 class="TAG:Ribbon"></path>
	<g>
	  <path d="M 162.546 80.7909 C 117.695 70.5393 98.1946 107.445 
	   85.8447 125.898 C 55.7847 170.811 27.646 187.289 14.3434 192.533 
	   C 6.54314 195.608 31.1115 186.251 35.1436 202.785 C 38.3937 216.112 
	   31.1857 231.624 35.1436 229.439 C 48.1437 222.262 74.1442 201.76 
	   100.795 161.778 C 116.479 138.249 127.445 115.647 170.346 116.672 
	   C 170.346 116.672 169.046 112.57 169.046 112.57 Z"
	   style=" stroke:#000000; stroke-width:1; fill:#0000ff; fill-opacity:100%"	   class="TAG:Ribbon"></path>
	  <ellipse  cx="193.293" cy="98.4864" rx="36.204" ry="57.1531"
	   style=" stroke:#000000; stroke-width:1; fill:#0000ff; fill-opacity:100%"	   class="TAG:Ribbon"></ellipse>
	  <ellipse  cx="193.293" cy="98.4864" rx="17.4746" ry="27.5597"
	   style=" stroke:#000000; stroke-width:1; fill:#a5a500; fill-opacity:100%"	   class="TAG:RibbonCenter"></ellipse>
	</g>
      </g>
    </g>
  </symbol>
 </defs>
</svg>
