<?xml version="1.0" encoding="UTF-8" standalone="no"?>
<svg xmlns:rdf="http://www.w3.org/1999/02/22-rdf-syntax-ns#" xmlns="http://www.w3.org/2000/svg" version="1.1" xml:space="preserve" viewBox="0 0 219 219" height="219" width="219" enable-background="new -0.947 -0.615 111 214" y="0px" x="0px" xmlns:cc="http://creativecommons.org/ns#" xmlns:xlink="http://www.w3.org/1999/xlink" xmlns:dc="http://purl.org/dc/elements/1.1/"><metadata><rdf:RDF><cc:Work rdf:about=""><dc:format>image/svg+xml</dc:format><dc:type rdf:resource="http://purl.org/dc/dcmitype/StillImage"/><dc:title/></cc:Work></rdf:RDF></metadata><defs><linearGradient id="linearGradient4076" y2="258" gradientUnits="userSpaceOnUse" x2="-51" gradientTransform="matrix(0.13891521,0,0,0.13658075,73.752156,100.46035)" y1="45" x1="-230"><stop stop-color="#000" offset="0"/><stop stop-color="#000" stop-opacity="0" offset="1"/></linearGradient><linearGradient id="linearGradient4079" y2="258" gradientUnits="userSpaceOnUse" x2="-51" gradientTransform="matrix(0.13891521,0,0,0.13658075,73.752156,75.859923)" y1="45" x1="-230"><stop stop-color="#000" offset="0"/><stop stop-color="#000" stop-opacity="0" offset="1"/></linearGradient><linearGradient id="linearGradient4082" y2="258" gradientUnits="userSpaceOnUse" x2="-51" gradientTransform="matrix(0.13891521,0,0,0.13658075,73.752156,51.25951)" y1="45" x1="-230"><stop stop-color="#000" offset="0"/><stop stop-color="#000" stop-opacity="0" offset="1"/></linearGradient><linearGradient id="linearGradient4085" y2="258" gradientUnits="userSpaceOnUse" x2="-51" gradientTransform="matrix(0.13891521,0,0,0.13658075,73.86917,24.60698)" y1="45" x1="-230"><stop stop-color="#000" offset="0"/><stop stop-color="#000" stop-opacity="0" offset="1"/></linearGradient><linearGradient id="linearGradient4088" y2="-163" gradientUnits="userSpaceOnUse" x2="236" gradientTransform="matrix(0.46556303,0,0,0.39622445,-81.247512,41.317516)" y1="454" x1="317"><stop stop-color="#8f8f8f" offset="0"/><stop stop-color="#e6e0e0" offset="1"/></linearGradient><linearGradient id="linearGradient4091" y2="367" gradientUnits="userSpaceOnUse" x2="393" gradientTransform="matrix(1.3643728,0,0,1.3414447,-282.1977,-357.22003)" y1="288" x1="255"><stop stop-color="#008000" offset="0"/><stop stop-color="#b3d8b3" offset="0.492"/><stop stop-color="#067706" offset="1"/></linearGradient><filter id="filter4978"><feGaussianBlur stdDeviation="1.9564093"/></filter></defs><path opacity="0.5" d="m42,16.2,0,197c16.5,6.47,15.9-8.27,16.8-18.8l140-54.8v-74.6l-119-32.1-1.47,8.06v-24.7c-12.2,0.000982-24.5-0.001-36.8,0z" fill-rule="evenodd" filter="url(#filter4978)" fill="#000"/><path d="m70.8,26.8c39.7,10.7,79.4,21.4,119,32.1v74.6c-49.7,19.4-99.4,38.8-149,58.1,9.8-55,19.8-110,29.8-165z" fill-rule="evenodd" stroke="#9f9f9f" stroke-miterlimit="4" stroke-width="4.05857992" fill="url(#linearGradient4091)"/><path d="m32.6,10.2v197c18.2,7.14,15.5-11.6,17.2-21.9,8.28-8,23.2-12.9,19.5-27v-148c-12.2,0.000982-24.5,0.002-36.7,0.003z" fill-rule="evenodd" stroke="#535353" stroke-dasharray="none" stroke-miterlimit="4" stroke-width="4.05857992" fill="url(#linearGradient4088)"/><path d="m40.3,30.3v21c8.66,3.38,22.5-2.64,11.7-11.3,13.7-11.8-3.7-9.9-11.7-9.7z" fill-rule="evenodd" stroke="#9f9f9f" stroke-dasharray="none" stroke-miterlimit="4" stroke-width="0.27548605" fill="url(#linearGradient4085)"/><path d="m40.2,57v21c8.6,3.4,22.5-2.6,11.6-11.4,13.5-12.8-3-9.2-11.6-9.6z" fill-rule="evenodd" stroke="#9f9f9f" stroke-dasharray="none" stroke-miterlimit="4" stroke-width="0.27548605" fill="url(#linearGradient4082)"/><path d="m40.2,81.6v21c8.66,3.38,22.5-2.64,11.7-11.3,13.5-12.9-3.03-9.28-11.7-9.68z" fill-rule="evenodd" stroke="#9f9f9f" stroke-dasharray="none" stroke-miterlimit="4" stroke-width="0.27548605" fill="url(#linearGradient4079)"/><path d="m40.2,106v21c8.66,3.38,22.5-2.64,11.7-11.3,13.5-12.9-3.03-9.28-11.7-9.68z" fill-rule="evenodd" stroke="#9f9f9f" stroke-dasharray="none" stroke-miterlimit="4" stroke-width="0.27548605" fill="url(#linearGradient4076)"/><path d="m118,81.3c12,3.23,24,6.46,36,9.69v22.5c-11.9,0.998-23.9,2-35.8,2.99-0.0527-11.7-0.105-23.5-0.158-35.2z" fill-rule="evenodd" stroke="#9f9f9f" stroke-miterlimit="4" stroke-width="1.22499013" fill="#4d4d4d"/><path stroke-linejoin="miter" d="m120,117v3.87" stroke="#000" stroke-linecap="butt" stroke-width="0.7091015px" fill="none"/><path stroke-linejoin="miter" d="m123,117v3.87" stroke="#000" stroke-linecap="butt" stroke-width="0.7091015px" fill="none"/><path stroke-linejoin="miter" d="m126,116v3.87" stroke="#000" stroke-linecap="butt" stroke-width="0.7091015px" fill="none"/><path stroke-linejoin="miter" d="m129,116v3.87" stroke="#000" stroke-linecap="butt" stroke-width="0.7091015px" fill="none"/><path stroke-linejoin="miter" d="m132,116v3.87" stroke="#000" stroke-linecap="butt" stroke-width="0.7091015px" fill="none"/><path stroke-linejoin="miter" d="m135,116v3.87" stroke="#000" stroke-linecap="butt" stroke-width="0.7091015px" fill="none"/><path stroke-linejoin="miter" d="m138,116v3.87" stroke="#000" stroke-linecap="butt" stroke-width="0.7091015px" fill="none"/><path stroke-linejoin="miter" d="m141,115v3.87" stroke="#000" stroke-linecap="butt" stroke-width="0.7091015px" fill="none"/><path stroke-linejoin="miter" d="m145,115v3.87" stroke="#000" stroke-linecap="butt" stroke-width="0.7091015px" fill="none"/><path stroke-linejoin="miter" d="m148,115v3.87" stroke="#000" stroke-linecap="butt" stroke-width="0.7091015px" fill="none"/><path stroke-linejoin="miter" d="m151,115v3.87" stroke="#000" stroke-linecap="butt" stroke-width="0.7091015px" fill="none"/><path stroke-linejoin="miter" d="m154,114v3.87" stroke="#000" stroke-linecap="butt" stroke-width="0.7091015px" fill="none"/><path stroke-linejoin="miter" d="m119,76.1v3.87" stroke="#000" stroke-linecap="butt" stroke-width="0.7091015px" fill="none"/><path stroke-linejoin="miter" d="m122,77.1v3.87" stroke="#000" stroke-linecap="butt" stroke-width="0.7091015px" fill="none"/><path stroke-linejoin="miter" d="m125,78v3.87" stroke="#000" stroke-linecap="butt" stroke-width="0.7091015px" fill="none"/><path stroke-linejoin="miter" d="m128,78.9v3.87" stroke="#000" stroke-linecap="butt" stroke-width="0.7091015px" fill="none"/><path stroke-linejoin="miter" d="m131,79.6v3.87" stroke="#000" stroke-linecap="butt" stroke-width="0.7091015px" fill="none"/><path stroke-linejoin="miter" d="m134,80.6v3.87" stroke="#000" stroke-linecap="butt" stroke-width="0.7091015px" fill="none"/><path stroke-linejoin="miter" d="m137,81.5v3.87" stroke="#000" stroke-linecap="butt" stroke-width="0.7091015px" fill="none"/><path stroke-linejoin="miter" d="m140,82.4v3.87" stroke="#000" stroke-linecap="butt" stroke-width="0.7091015px" fill="none"/><path stroke-linejoin="miter" d="m143,83.2v3.87" stroke="#000" stroke-linecap="butt" stroke-width="0.7091015px" fill="none"/><path stroke-linejoin="miter" d="m146,84.2v3.87" stroke="#000" stroke-linecap="butt" stroke-width="0.7091015px" fill="none"/><path stroke-linejoin="miter" d="m149,85.2v3.87" stroke="#000" stroke-linecap="butt" stroke-width="0.7091015px" fill="none"/><path stroke-linejoin="miter" d="m152,86.1v3.87" stroke="#000" stroke-linecap="butt" stroke-width="0.7091015px" fill="none"/><path stroke-linejoin="miter" d="M117,83.3c-2-0.3-3-0.5-4-0.7" stroke="#000" stroke-linecap="butt" stroke-width="0.7091015px" fill="none"/><path stroke-linejoin="miter" d="m117,86.8c-1.29-0.213-2.59-0.425-3.88-0.638" stroke="#000" stroke-linecap="butt" stroke-width="0.7091015px" fill="none"/><path stroke-linejoin="miter" d="m117,90.6c-1.29-0.213-2.59-0.425-3.88-0.638" stroke="#000" stroke-linecap="butt" stroke-width="0.7091015px" fill="none"/><path stroke-linejoin="miter" d="m117,94.3c-1.29-0.213-2.59-0.425-3.88-0.638" stroke="#000" stroke-linecap="butt" stroke-width="0.7091015px" fill="none"/><path stroke-linejoin="miter" d="m117,97.9c-1.29-0.213-2.59-0.425-3.88-0.638" stroke="#000" stroke-linecap="butt" stroke-width="0.7091015px" fill="none"/><path stroke-linejoin="miter" d="m117,101c-1.29-0.213-2.59-0.425-3.88-0.638" stroke="#000" stroke-linecap="butt" stroke-width="0.7091015px" fill="none"/><path stroke-linejoin="miter" d="m117,105c-1.29-0.213-2.59-0.426-3.88-0.638" stroke="#000" stroke-linecap="butt" stroke-width="0.7091015px" fill="none"/><path stroke-linejoin="miter" d="m117,109c-1.29-0.213-2.59-0.426-3.88-0.638" stroke="#000" stroke-linecap="butt" stroke-width="0.7091015px" fill="none"/><path stroke-linejoin="miter" d="m117,113c-1.29-0.213-2.59-0.425-3.88-0.638" stroke="#000" stroke-linecap="butt" stroke-width="0.7091015px" fill="none"/><path stroke-linejoin="miter" d="m158,92.3c-1.29-0.213-2.59-0.425-3.88-0.638" stroke="#000" stroke-linecap="butt" stroke-width="0.7091015px" fill="none"/><path stroke-linejoin="miter" d="m158,96.2c-1.29-0.213-2.59-0.425-3.88-0.638" stroke="#000" stroke-linecap="butt" stroke-width="0.7091015px" fill="none"/><path stroke-linejoin="miter" d="m158,99.8c-1.29-0.213-2.59-0.425-3.88-0.638" stroke="#000" stroke-linecap="butt" stroke-width="0.7091015px" fill="none"/><path stroke-linejoin="miter" d="m158,103c-1.29-0.213-2.58-0.426-3.88-0.638" stroke="#000" stroke-linecap="butt" stroke-width="0.7091015px" fill="none"/><path stroke-linejoin="miter" d="m158,107c-1.29-0.213-2.58-0.426-3.88-0.638" stroke="#000" stroke-linecap="butt" stroke-width="0.7091015px" fill="none"/><path stroke-linejoin="miter" d="m158,111c-1.29-0.213-2.58-0.425-3.88-0.638" stroke="#000" stroke-linecap="butt" stroke-width="0.7091015px" fill="none"/></svg>
