<?xml version="1.0"?>
<?metis version="3.1"?>
<?metisxml version="1.0"?>
<!DOCTYPE svg  PUBLIC "-//W3C//DTD SVG August 1999//EN"
 "http://www.w3.org/Graphics/SVG/svg-19990812.dtd">

<svg width="200" height="200">
 <title>Symbol library: component_closed.svg</title>
 <defs>
  <symbol id="oid0" xml:space="preserve" class="METIS_SYMBOL">
   <title>Untitled</title>
    <polygon points="25.6 123.479 89.9119 123.479 123.629 89.1793 
     123.005 25.5688 183.571 0.62363 239.141 56.7504 272.859 57.3737 
     328.429 0 388.995 25.5688 389.619 89.1793 422.088 122.855 
     485.776 124.102 512 183.347 455.18 239.474 455.805 271.903 
     512 327.406 487.024 389.145 422.712 387.898 388.995 422.821 
     388.995 487.055 327.805 510.753 272.859 455.25 238.517 455.873 
     182.946 512 123.005 487.055 123.629 420.327 91.1611 387.898 
     24.9756 388.522 1.24878 328.653 57.4439 271.279 57.4439 240.098 
     0 180.853 25.6 123.479 25.6 123.479 "
     style=" stroke:#000000; stroke-width:1; fill:#2d96ff; fill-opacity:100%"></polygon>
    <ellipse  cx="257.645" cy="257.668" rx="177.367" ry="177.151"
     style=" stroke:#000000; stroke-width:4; fill:#000000; fill-opacity:100%"></ellipse>
    <rect x="63.0482" y="249.639" width="19.6683" height="18.7089"
     style=" stroke:#000000; stroke-width:4; fill:#000000; fill-opacity:100%"></rect>
    <g>
      <desc>METIS_TEXT_GROUP</desc>
      <text  x="80" y="176"
       style=" stroke:#ffffff; stroke-width:4; font-family:sans-serif; font-weight:bold; font-size:48; text-align:center vertical-align:middle;"
       class="TAG:text">test</text>
      <rect x="80" y="128" width="352" height="256"
       style=" stroke:#000000; stroke-width:1; fill:#000000; fill-opacity:0%"></rect>
    </g>
  </symbol>
 </defs>
</svg>
