<?xml version="1.0"?>
<?metis version="3.1"?>
<?metisxml version="1.0"?>
<!DOCTYPE svg  PUBLIC "-//W3C//DTD SVG August 1999//EN"
 "http://www.w3.org/Graphics/SVG/svg-19990812.dtd">

<svg width="200" height="200">
 <title>Symbol library: competence_profile.svg</title>
 <defs>
  <symbol id="oid0" xml:space="preserve" class="METIS_SYMBOL">
   <title>Competence Profile</title>
    <g>
      <polygon points="7.10543e-015 0 7.10543e-015 304 16.2963 320 
       880 320 880 16 863.704 0 7.10543e-015 0 
       7.10543e-015 0 7.10543e-015 0 7.10543e-015 0 7.10543e-015 0 
       7.10543e-015 0 7.10543e-015 0 "
       style=" stroke:#000000; stroke-width:1; fill:#9b9b9b; fill-opacity:100%"       class="TAG:shadow"></polygon>
      <rect x="7.10543e-015" y="0" width="240" height="304"
       style=" stroke:#000000; stroke-width:1; fill:#ffffa5; fill-opacity:100%"       class="TAG:PictureBackground"></rect>
      <rect x="240" y="0" width="624" height="304"
       style=" stroke:#000000; stroke-width:1; fill:#96a5ff; fill-opacity:100%"       class="TAG:canvas"></rect>
      <rect x="245.357" y="25.7143" width="569.522" height="231.429"
       style="stroke:none; fill:#878787; fill-opacity:0%"       class="TAG:grid"></rect>
      <g>
	<desc>METIS_TEXT_GROUP</desc>
	<text  x="256" y="15.8"
	 style=" stroke:#000000; stroke-width:1; font-family:sans-serif; font-size:16;"
	 class="TAG:text">text</text>
	<rect x="256" y="0" width="608" height="304"
	 style=" stroke:#000000; stroke-width:1; fill:#ffffff; fill-opacity:0%"></rect>
      </g>
      <polyline points="864 304 880 320"
       style=" stroke:#000000; stroke-width:1;"></polyline>
      <g>
	<polyline points="76.8547 66.5764 76.8547 271.986 223.993 271.986"
	 style=" stroke:#000000; stroke-width:1;"	 class="TAG:BarChart"></polyline>
	<polyline points="223.993 270.395 223.993 66.5764 76.1078 66.5764"
	 style=" stroke:#000000; stroke-width:1;"	 class="TAG:BarChart"></polyline>
	<polyline points="76.8547 170.077 223.993 170.077"
	 style=" stroke:#000000; stroke-width:1;"	 class="TAG:BarChart"></polyline>
	<polyline points="77.2281 116.992 224 116.992"
	 style=" stroke:#000000; stroke-width:1;"	 class="TAG:BarChart"></polyline>
	<polyline points="150.051 66.5764 150.051 271.986"
	 style=" stroke:#000000; stroke-width:1;"	 class="TAG:BarChart"></polyline>
	<polyline points="183.957 66.6558 183.957 271.736"
	 style=" stroke:#000000; stroke-width:1;"	 class="TAG:BarChart"></polyline>
	<polyline points="113.452 65.7799 113.452 271.191"
	 style=" stroke:#000000; stroke-width:1;"	 class="TAG:BarChart"></polyline>
	<rect x="157.147" y="225.026" width="18.6726" height="46.9736"
	 style=" stroke:#000000; stroke-width:1; fill:#ffffff; fill-opacity:100%"	 class="TAG:BarChart"></rect>
	<polyline points="76.8055 220.601 223.945 220.601"
	 style=" stroke:#000000; stroke-width:1;"	 class="TAG:BarChart"></polyline>
	<rect x="86.3895" y="197.147" width="18.6726" height="74.8401"
	 style=" stroke:#000000; stroke-width:1; fill:#ffffff; fill-opacity:100%"	 class="TAG:BarChart"></rect>
	<rect x="123.536" y="183.626" width="18.6726" height="88.3737"
	 style=" stroke:#000000; stroke-width:1; fill:#ffffff; fill-opacity:100%"	 class="TAG:BarChart"></rect>
	<rect x="192.997" y="164.517" width="18.6726" height="107.482"
	 style=" stroke:#000000; stroke-width:1; fill:#ffffff; fill-opacity:100%"	 class="TAG:BarChart"></rect>
	<path d="M 87.2272 81.6318 C 62.583 109.529 64.3156 117.556 
	 56.5723 140.707 C 50.2612 159.58 49.0589 172.707 43.0484 182.553 
	 C 40.1403 187.317 50.2612 180.092 51.1628 185.835 C 52.8118 196.34 
	 50.5425 211.27 52.0643 207.988 C 57.7746 195.681 58.8237 184.545 
	 67.6922 156.297 C 74.9051 133.323 73.1022 135.785 93.5386 110.349 Z"
	 style=" stroke:#000000; stroke-width:1; fill:#0000ff; fill-opacity:100%"	 class="TAG:Ribbon"></path>
	<path d="M 88.1287 63.5805 C 67.3921 55.3759 58.3756 84.9139 
	 52.6655 99.6829 C 38.7671 135.63 25.7569 148.817 19.6064 153.016 
	 C 16 155.476 27.3592 147.987 29.2237 161.221 C 30.7264 171.886 
	 27.3935 184.302 29.2237 182.553 C 35.2344 176.81 47.2558 160.4 
	 59.5779 128.401 C 66.8295 109.568 71.8996 91.4778 91.7352 92.2984 
	 C 91.7352 92.2984 91.1344 89.0162 91.1344 89.0162 Z"
	 style=" stroke:#000000; stroke-width:1; fill:#0000ff; fill-opacity:100%"	 class="TAG:Ribbon"></path>
	<ellipse  cx="102.345" cy="77.7432" rx="16.7392" ry="45.7432"
	 style=" stroke:#000000; stroke-width:1; fill:#0000ff; fill-opacity:100%"	 class="TAG:Ribbon"></ellipse>
	<ellipse  cx="102.345" cy="77.7432" rx="8.07948" ry="22.0579"
	 style=" stroke:#000000; stroke-width:1; fill:#a5a500; fill-opacity:100%"	 class="TAG:RibbonCenter"></ellipse>
      </g>
    </g>
  </symbol>
 </defs>
</svg>
