<?xml version="1.0"?>
<?metis version="3.1"?>
<?metisxml version="1.0"?>
<!DOCTYPE svg  PUBLIC "-//W3C//DTD SVG August 1999//EN"
 "http://www.w3.org/Graphics/SVG/svg-19990812.dtd">

<svg width="200" height="200">
 <title>Symbol library: concept.svg</title>
 <defs>
  <symbol id="oid0" xml:space="preserve" class="METIS_SYMBOL">
   <title>Concept</title>
    <g>
      <polygon points="0 0 0 304 16 320 
       880 320 880 16 864 0 0 0 
       0 0 0 0 0 0 0 0 0 0 "
       style=" stroke:#000000; stroke-width:1; fill:#9b9b9b; fill-opacity:100%"       class="TAG:shadow"></polygon>
      <rect x="0" y="0" width="240" height="304"
       style=" stroke:#000000; stroke-width:1; fill:#b9b9b9; fill-opacity:100%"       class="TAG:PictureBackground"></rect>
      <rect x="240" y="0" width="624" height="304"
       style=" stroke:#000000; stroke-width:1; fill:#ffb4b4; fill-opacity:100%"       class="TAG:canvas"></rect>
      <g>
	<desc>METIS_TEXT_GROUP</desc>
	<text  x="256" y="15.8"
	 style=" stroke:#000000; stroke-width:1; font-family:sans-serif; font-size:16;"
	 class="TAG:text">text</text>
	<rect x="256" y="0" width="608" height="304"
	 style=" stroke:#000000; stroke-width:1; fill:#ffffff; fill-opacity:0%"></rect>
      </g>
      <polyline points="864 304 880 320"
       style=" stroke:#000000; stroke-width:1;"></polyline>
      <g>
	<polygon points="72.3198 212.188 201.88 272 202.919 271.675 
	 203.612 271.025 203.959 270.05 204.305 268.749 204.651 267.449 
	 204.651 266.149 204.305 265.174 201.88 258.672 200.841 259.647 
	 200.148 260.623 199.802 261.273 199.455 261.923 198.762 262.898 
	 198.416 263.548 198.069 264.523 197.377 265.499 71.9735 206.986 
	 72.3198 212.188 72.3198 212.188 72.3198 212.188 72.3198 212.188 "
	 style=" stroke:#000000; stroke-width:1; fill:#006532; fill-opacity:100%"></polygon>
	<polygon points="104.18 187.632 216.399 250.92 215.706 251.244 
	 213.628 252.218 212.243 253.191 211.204 254.165 209.818 254.814 
	 208.779 255.788 207.74 257.086 206.355 258.06 205.662 259.033 
	 204.277 260.007 203.584 261.305 202.545 262.604 201.852 263.902 
	 200.813 264.875 200.12 266.174 199.428 267.472 73.7011 209.377 
	 74.3937 172.054 104.18 187.632 104.18 187.632 104.18 187.632 104.18 187.632 "
	 style=" stroke:#000000; stroke-width:1; fill:#ffffff; fill-opacity:100%"></polygon>
	<polyline points="204.306 268.437 203.96 269.087 202.92 269.412 
	 201.881 269.087 201.188 268.762 73.0101 208.927"
	 style=" stroke:#000000; stroke-width:1;"></polyline>
	<polygon points="44.792 32.324 103.07 186.239 102.029 186.239 
	 100.642 186.239 98.5603 186.563 95.785 187.211 93.357 188.183 
	 90.5819 189.803 87.8065 191.099 85.3785 193.043 82.9502 194.988 
	 80.5219 196.932 78.4405 199.2 76.7061 201.468 74.9717 203.736 
	 73.931 206.005 73.2371 208.273 72.5435 210.217 72.5435 212.485 
	 16 51.1178 16 50.1457 16.6938 47.5535 17.7345 45.6093 
	 18.7752 43.9892 20.1627 42.045 21.8972 40.4248 23.9785 38.8047 
	 25.713 37.1845 28.1412 35.8884 30.5694 34.5923 32.6508 33.6202 
	 35.4259 32.6481 37.8542 32.324 40.2823 32 42.7105 32 
	 44.792 32.324 44.792 32.324 44.792 32.324 44.792 32.324 "
	 style=" stroke:#000000; stroke-width:1; fill:#006532; fill-opacity:100%"></polygon>
	<polygon points="45.0245 32.3234 47.7938 35.8866 145.071 116.544 
	 145.763 117.192 146.456 117.839 147.148 118.487 147.84 119.135 
	 148.187 119.783 148.879 120.431 149.571 121.079 149.917 121.727 
	 150.61 122.698 150.956 123.022 151.648 123.994 151.995 124.642 
	 152.341 125.29 152.687 126.262 153.033 126.909 153.379 127.557 
	 221.231 244.818 221.577 245.466 221.923 246.114 222.269 247.409 
	 222.961 248.705 223.308 249.677 223.654 250.649 224 251.62 
	 224 252.592 223.308 253.24 221.923 253.24 221.231 252.916 
	 219.846 252.592 218.807 251.944 217.076 251.296 105.26 190.399 
	 102.837 186.511 44.3322 32.6474 45.0245 32.3234 45.0245 32.3234 
	 45.0245 32.3234 45.0245 32.3234 "
	 style=" stroke:#000000; stroke-width:1; fill:#006532; fill-opacity:100%"></polygon>
	<polyline points="105.834 186.933 218.461 249.03 219.5 249.355 
	 220.54 249.68 221.579 250.005 222.272 249.68"
	 style=" stroke:#000000; stroke-width:1;"></polyline>
	<polygon points="102.389 185.962 105.162 190.188 213.635 249.03 
	 211.902 250.005 102.043 191.164 98.9236 186.287 102.389 185.962 
	 102.389 185.962 102.389 185.962 102.389 185.962 "
	 style=" stroke:#000000; stroke-width:1; fill:#000000; fill-opacity:100%"></polygon>
	<polyline points="79.2293 201.488 196.704 258.415"
	 style=" stroke:#000000; stroke-width:1;"></polyline>
	<polyline points="87.5217 196.313 173.555 240.625"
	 style=" stroke:#000000; stroke-width:1;"></polyline>
	<polyline points="93.0499 192.108 148.678 221.542"
	 style=" stroke:#000000; stroke-width:1;"></polyline>
	<polyline points="47.7873 35.8814 106.179 187.256"
	 style=" stroke:#000000; stroke-width:1;"></polyline>
	<polygon points="67.0006 129.682 70.8758 129.682 73.6941 136.929 
	 73.6941 136.929 74.0464 137.588 74.0464 138.247 74.0464 139.236 
	 74.0464 139.894 73.6941 140.553 73.3417 141.212 72.6374 141.871 
	 71.9327 142.201 71.2281 142.53 70.5235 142.53 69.8191 142.86 
	 68.7622 142.86 68.0575 142.53 67.0006 142.201 66.2962 141.871 
	 64.887 140.883 64.887 140.883 64.887 141.212 64.5347 141.542 
	 64.1823 141.871 63.8303 142.53 63.478 142.53 63.1257 142.86 
	 62.7733 143.518 62.421 143.848 62.0687 144.177 62.0687 144.507 
	 61.7164 144.836 61.3641 145.166 61.0118 145.824 60.6597 146.154 
	 60.3074 146.483 59.6028 147.472 56.0796 144.836 56.0796 144.836 
	 56.4319 144.507 56.7843 143.848 57.1368 143.189 57.8412 142.53 
	 58.1935 141.871 58.8981 141.212 59.6028 140.553 59.9551 139.894 
	 60.6597 139.565 61.0118 138.906 61.7164 138.247 62.0687 137.918 
	 62.421 137.259 63.1257 136.929 63.478 136.6 63.8303 136.271 
	 63.8303 136.271 64.1823 136.271 64.1823 136.271 64.5347 136.6 
	 64.887 136.6 65.2393 136.929 65.2393 136.929 65.5916 137.259 
	 65.9439 137.259 66.2962 137.588 66.6485 137.588 67.0006 137.918 
	 67.3529 137.918 67.7052 138.247 68.0575 138.247 68.4099 138.247 
	 69.1145 138.247 69.1145 138.247 69.1145 138.247 69.1145 138.247 
	 69.4668 138.247 69.4668 138.247 69.4668 137.918 69.4668 137.918 
	 69.4668 137.918 69.4668 137.588 69.8191 137.588 69.8191 137.259 
	 69.4668 137.259 69.4668 136.929 69.4668 136.6 69.4668 136.6 
	 69.4668 136.271 69.1145 135.612 67.0006 129.682 67.0006 129.682 
	 67.0006 129.682 67.0006 129.682 "
	 style="stroke:none; fill:#00ff00; fill-opacity:100%"></polygon>
	<polygon points="55.0431 134.702 67.0997 130.652 68.5181 134.702 
	 56.4615 138.415 55.0431 134.702 55.0431 134.702 55.0431 134.702 55.0431 134.702 "
	 style="stroke:none; fill:#00ff00; fill-opacity:100%"></polygon>
	<polygon points="48.4783 123.014 48.4783 123.014 48.4783 123.014 
	 48.8296 122.684 48.8296 122.353 49.1809 122.022 49.5321 121.691 
	 49.8834 121.36 50.2347 121.03 50.5859 120.699 51.2885 120.368 
	 51.6397 120.037 51.991 119.706 52.3423 119.376 53.0448 119.045 
	 53.3961 118.714 54.0986 118.383 55.1524 118.052 55.1524 118.052 
	 55.5037 118.052 56.5575 117.722 57.6116 117.391 58.6654 117.391 
	 59.7192 117.391 60.773 117.391 61.4755 117.391 62.5293 117.722 
	 63.2319 118.052 64.2857 118.383 64.9882 119.045 65.6907 119.706 
	 66.7445 120.368 67.0958 121.36 67.7983 122.353 68.8521 124.007 
	 69.5547 126.653 66.3933 128.638 65.3395 125.992 65.3395 125.992 
	 65.3395 125.661 64.9882 125.33 64.9882 124.999 64.6369 124.669 
	 64.6369 124.007 64.2857 123.676 63.9344 123.345 63.5831 123.014 
	 63.5831 123.014 63.2319 122.684 62.8806 122.353 62.178 122.022 
	 61.8268 122.022 61.1242 121.691 60.773 121.691 59.7192 121.691 
	 61.1242 125.33 64.2857 124.338 65.6907 128.307 54.0986 131.946 
	 52.6935 127.976 57.6116 126.653 55.855 122.353 55.855 122.353 
	 55.855 122.353 55.5037 122.684 55.1524 122.684 54.8012 123.014 
	 54.8012 123.014 54.4499 123.014 54.0986 123.345 53.7473 123.676 
	 53.3961 123.676 53.0448 124.007 53.0448 124.338 52.6935 124.669 
	 52.3423 124.669 52.3423 124.999 51.991 125.33 51.991 125.661 
	 48.4783 123.014 48.4783 123.014 48.4783 123.014 48.4783 123.014 "
	 style="stroke:none; fill:#00ff00; fill-opacity:100%"></polygon>
	<polygon points="44.3322 105.185 60.1439 100.248 61.5493 103.868 
	 58.0358 108.476 63.6577 110.122 65.063 113.742 49.2512 119.008 
	 47.8459 115.059 57.333 112.096 52.0621 110.451 54.8731 106.172 
	 45.7378 109.134 44.3322 105.185 44.3322 105.185 44.3322 105.185 44.3322 105.185 "
	 style="stroke:none; fill:#00ff00; fill-opacity:100%"></polygon>
	<polygon points="38.4585 89.665 54.2699 84.399 55.6755 88.0194 
	 52.1618 92.627 57.7839 94.602 59.1895 97.893 43.729 103.159 
	 41.9721 99.2096 51.459 96.2474 46.1884 94.602 49.3509 90.6523 
	 39.8639 93.6145 38.4585 89.665 38.4585 89.665 38.4585 89.665 38.4585 89.665 "
	 style="stroke:none; fill:#00ff00; fill-opacity:100%"></polygon>
	<polygon points="31.8937 78.0549 31.8937 78.0549 31.8937 78.0549 
	 32.245 77.7241 32.245 77.3933 32.5962 77.0625 32.9475 76.7317 
	 33.2988 76.4009 33.6501 76.0701 34.0013 75.7393 34.3526 75.4085 
	 35.0552 75.0777 35.4065 74.747 35.7578 74.4162 36.4603 74.0854 
	 37.1629 73.7546 37.5141 73.4238 38.5679 73.093 38.5679 73.093 
	 38.9192 73.093 39.9729 72.7622 41.0268 72.4314 42.0806 72.4314 
	 43.1345 72.4314 44.1883 72.4314 44.8908 72.7622 45.9446 72.7622 
	 46.6472 73.093 47.701 73.4238 48.4035 74.0854 49.1061 74.747 
	 50.1599 75.4085 50.5111 76.4009 51.2137 77.3933 52.2675 79.0475 
	 52.97 81.6939 49.8086 84.0094 48.7548 81.0323 48.7548 81.0323 
	 48.4035 80.7015 48.4035 80.3707 48.4035 80.0399 48.0523 79.7091 
	 47.701 79.3783 47.701 78.7167 47.3497 78.3857 46.9984 78.0549 
	 46.6472 77.7241 46.6472 77.7241 45.9446 77.3933 45.5934 77.0625 
	 45.2421 77.0625 44.8908 76.7317 44.1883 76.7317 43.1345 76.7317 
	 44.5396 80.3707 47.701 79.3783 49.1061 83.3479 37.5141 86.9866 
	 36.109 83.3479 41.0268 81.6939 39.2705 77.3933 39.2705 77.3933 
	 39.2705 77.7241 38.9192 77.7241 38.5679 77.7241 38.2167 78.0549 
	 38.2167 78.0549 37.8654 78.3857 37.5141 78.3857 37.1629 78.7167 
	 36.8116 79.0475 36.4603 79.0475 36.4603 79.3783 36.109 79.7091 
	 35.7578 79.7091 35.7578 80.0399 35.4065 80.3707 35.0552 80.7015 
	 31.8937 78.0549 31.8937 78.0549 31.8937 78.0549 31.8937 78.0549 "
	 style="stroke:none; fill:#00ff00; fill-opacity:100%"></polygon>
	<polygon points="40.3961 58.2053 44.2712 57.8759 47.0895 65.1235 
	 47.0895 65.1235 47.0895 65.7824 47.4418 66.7707 47.4418 67.4296 
	 47.4418 68.0885 47.0895 69.0767 46.7374 69.4062 46.0328 70.0651 
	 45.6805 70.3945 44.6235 70.724 43.9189 71.0536 43.2143 71.0536 
	 42.1576 71.0536 41.4529 70.724 40.3961 70.724 39.6915 70.0651 
	 38.2824 69.4062 38.2824 69.4062 38.2824 69.4062 37.9301 69.7356 
	 37.5778 70.0651 37.2255 70.724 36.8732 71.0536 36.5209 71.3829 
	 36.1687 71.7125 35.8164 72.0418 35.4641 72.3714 35.4641 72.7007 
	 35.1118 73.0303 34.7595 73.3596 34.4072 74.0185 34.0549 74.3478 
	 33.7026 75.0067 33.3503 75.6656 29.4751 73.3596 29.4751 73.3596 
	 29.8274 73.0303 30.1797 72.0418 30.8843 71.3829 31.2365 70.724 
	 31.5889 70.0651 32.2934 69.4062 32.998 68.7473 33.3503 68.4178 
	 34.0549 67.7589 34.4072 67.1002 35.1118 66.7707 35.4641 66.1118 
	 36.1687 65.7824 36.5209 65.1235 36.8732 64.794 37.5778 64.4646 
	 37.5778 64.4646 37.5778 64.4646 37.9301 64.4646 37.9301 64.794 
	 38.2824 64.794 38.6347 65.1235 38.6347 65.1235 38.987 65.4529 
	 39.3393 65.4529 39.6915 65.7824 40.0438 65.7824 40.3961 66.1118 
	 40.7484 66.1118 41.1006 66.4413 41.4529 66.4413 41.8052 66.4413 
	 42.5099 66.4413 42.5099 66.4413 42.5099 66.4413 42.5099 66.4413 
	 42.8622 66.4413 42.8622 66.4413 42.8622 66.4413 42.8622 66.1118 
	 42.8622 66.1118 43.2143 65.7824 43.2143 65.7824 43.2143 65.7824 
	 43.2143 65.4529 42.8622 65.1235 42.8622 65.1235 42.8622 64.794 
	 42.8622 64.4646 42.5099 63.8058 40.3961 58.2053 40.3961 58.2053 
	 40.3961 58.2053 40.3961 58.2053 "
	 style="stroke:none; fill:#00ff00; fill-opacity:100%"></polygon>
	<polygon points="28.7841 62.8895 40.4942 58.8463 41.9137 62.8895 
	 30.2035 66.9325 28.7841 62.8895 28.7841 62.8895 28.7841 62.8895 28.7841 62.8895 "
	 style="stroke:none; fill:#00ff00; fill-opacity:100%"></polygon>
	<polygon points="32.3732 45.5984 32.3732 45.5984 32.7258 45.2682 
	 33.7835 45.2682 34.4886 44.938 35.1938 44.938 35.8989 44.938 
	 36.604 44.938 37.3092 45.2682 37.6617 45.2682 38.3669 45.5984 
	 38.7194 45.9286 39.4246 46.2588 39.7771 46.9192 40.1296 47.2493 
	 40.4822 47.9097 40.8348 48.5701 41.1873 49.5607 42.9501 54.5135 
	 39.7771 56.8248 38.0143 51.2117 38.0143 51.2117 37.6617 51.2117 
	 37.6617 50.8814 37.3092 50.5513 37.3092 50.2211 36.9566 49.8909 
	 36.9566 49.8909 36.604 49.5607 36.2515 49.5607 36.2515 49.2305 
	 35.8989 49.2305 35.5463 49.2305 35.1938 49.2305 34.8412 49.2305 
	 34.4886 49.2305 34.1361 49.2305 33.7835 49.5607 33.7835 49.5607 
	 33.4309 49.5607 32.7258 49.8909 32.3732 50.2211 31.6681 50.5513 
	 31.3155 50.8814 30.963 51.2117 30.6104 51.872 30.2578 52.2022 
	 30.2578 52.8626 29.9053 53.1928 29.9053 53.8532 29.9053 54.1833 
	 29.5527 54.5135 29.5527 55.1738 29.9053 55.504 29.9053 55.8342 
	 33.4309 54.5135 32.7258 53.1928 36.604 51.872 38.3669 57.1551 
	 27.7899 60.787 26.7321 57.8155 26.7321 57.8155 26.3796 57.1551 
	 26.027 55.504 25.6744 54.5135 25.6744 53.1928 26.027 52.2022 
	 26.3796 51.2117 26.7321 50.2211 27.0847 49.2305 27.7899 48.5701 
	 28.495 47.9097 29.2001 47.2493 29.9053 46.9192 30.6104 46.2588 
	 30.963 45.9286 31.6681 45.5984 32.3732 45.5984 32.3732 45.5984 
	 32.3732 45.5984 32.3732 45.5984 "
	 style="stroke:none; fill:#00ff00; fill-opacity:100%"></polygon>
	<polygon points="137.639 123.584 136.585 118.038 142.561 122.932 
	 142.561 122.932 143.265 123.258 143.968 123.91 144.671 124.889 
	 145.374 126.194 146.077 127.173 146.781 128.478 147.484 129.783 
	 148.187 131.088 148.538 132.393 148.89 133.698 149.242 135.003 
	 149.593 135.982 149.593 136.961 149.593 137.94 149.593 138.592 
	 148.89 139.245 148.89 139.245 149.242 139.897 149.593 140.876 
	 150.296 141.528 150.648 142.507 150.999 143.16 151.351 144.138 
	 151.703 144.791 152.054 145.77 152.757 146.422 153.109 147.401 
	 153.46 148.054 153.812 149.032 154.515 150.011 154.867 150.99 
	 155.57 151.969 156.624 153.6 155.218 155.558 155.218 155.558 
	 154.867 154.905 153.812 153.6 153.109 151.969 152.406 150.664 
	 151.703 149.032 150.999 147.727 150.296 146.096 149.242 144.791 
	 148.538 143.486 148.187 142.181 147.484 140.876 146.781 139.571 
	 146.077 138.266 145.726 137.287 145.023 136.308 144.671 135.003 
	 144.671 135.003 144.671 135.003 144.671 134.677 144.671 134.677 
	 144.671 134.351 145.023 134.351 145.023 134.024 145.023 134.024 
	 145.023 133.698 145.374 133.372 145.374 133.372 145.374 133.046 
	 145.374 132.72 145.374 132.393 145.374 131.741 145.374 131.414 
	 145.374 130.762 145.374 130.762 145.374 130.436 145.023 130.436 
	 145.023 130.109 145.023 130.109 145.023 129.783 144.671 129.457 
	 144.671 129.457 144.671 129.13 144.32 129.13 144.32 128.804 
	 143.968 128.478 143.968 128.478 143.616 128.152 143.265 128.152 
	 143.265 127.825 142.913 127.499 137.639 123.584 137.639 123.584 
	 137.639 123.584 137.639 123.584 "
	 style="stroke:none; fill:#00ff00; fill-opacity:100%"></polygon>
	<polygon points="145.449 144.847 138.658 124.507 141.875 127.131 
	 149.023 147.472 145.449 144.847 145.449 144.847 145.449 144.847 145.449 144.847 "
	 style="stroke:none; fill:#00ff00; fill-opacity:100%"></polygon>
	<polygon points="136.431 140.651 136.431 140.651 136.431 140.324 
	 136.078 139.67 135.725 139.016 135.372 138.035 135.018 137.381 
	 134.312 136.4 133.959 135.747 133.606 134.766 133.252 133.785 
	 132.546 132.804 132.193 131.823 131.84 130.842 131.486 129.534 
	 130.78 128.553 130.427 127.572 130.074 125.938 130.074 125.938 
	 129.72 124.957 129.014 123.322 128.661 121.687 128.308 120.052 
	 127.954 118.744 127.601 117.437 127.601 116.456 127.601 115.475 
	 127.601 114.494 127.601 113.84 127.954 113.513 128.308 113.186 
	 129.014 113.186 129.72 113.186 130.427 113.513 131.84 114.494 
	 133.959 116.129 137.138 122.995 134.665 121.36 134.665 121.36 
	 134.312 121.033 133.959 121.033 133.606 120.706 133.252 120.379 
	 132.899 120.379 132.899 120.052 132.546 120.052 132.193 120.052 
	 132.193 120.052 131.84 120.052 131.84 120.379 131.486 120.706 
	 131.486 121.033 131.486 121.687 131.486 122.341 131.84 123.649 
	 135.018 125.938 133.252 120.706 136.784 123.322 143.495 143.267 
	 139.963 140.651 137.138 132.15 133.606 129.534 133.606 129.534 
	 133.959 129.861 133.959 130.188 134.312 130.842 134.312 131.496 
	 134.665 132.15 135.018 132.804 135.372 133.458 135.372 134.112 
	 135.725 134.766 136.078 135.419 136.431 136.073 136.784 136.4 
	 137.138 137.054 137.138 137.708 137.491 138.035 137.844 139.016 
	 136.431 140.651 136.431 140.651 136.431 140.651 136.431 140.651 "
	 style="stroke:none; fill:#00ff00; fill-opacity:100%"></polygon>
	<polygon points="120.849 125.071 111.362 98.3073 114.525 100.592 
	 119.795 110.384 119.795 104.835 122.957 107.12 132.093 134.21 
	 128.931 131.599 123.66 115.606 123.309 121.155 118.741 112.016 
	 124.011 128.009 120.849 125.071 120.849 125.071 120.849 125.071 120.849 125.071 "
	 style="stroke:none; fill:#00ff00; fill-opacity:100%"></polygon>
	<polygon points="107.368 114.722 98.2326 87.6335 101.395 89.918 
	 106.665 99.7089 106.665 94.1608 109.828 96.7716 118.963 123.86 
	 115.801 121.249 110.179 105.257 110.179 110.479 105.26 101.341 
	 110.531 117.333 107.368 114.722 107.368 114.722 107.368 114.722 107.368 114.722 "
	 style="stroke:none; fill:#00ff00; fill-opacity:100%"></polygon>
	<polygon points="98.428 110.247 98.428 110.247 98.0749 110.247 
	 97.7218 109.593 97.369 108.612 97.0159 107.958 96.6628 107.304 
	 96.3097 106.323 95.9568 105.342 95.6037 104.688 95.2506 103.708 
	 94.5447 102.727 94.1916 101.419 93.8385 100.438 93.4857 99.4569 
	 92.7795 98.476 92.4264 97.1683 91.7204 95.5334 91.7204 95.5334 
	 91.7204 94.8794 91.0145 92.9176 90.6614 91.2828 89.9552 89.975 
	 89.9552 88.667 89.6023 87.3593 89.6023 86.3784 89.2492 85.3975 
	 89.6023 84.4166 89.6023 83.7626 89.9552 83.4358 90.3083 83.1086 
	 91.0145 82.7818 91.3673 83.1086 92.4264 83.4358 93.8385 84.0895 
	 95.9568 85.7244 98.7808 92.9176 96.3097 90.9559 96.3097 90.9559 
	 96.3097 90.9559 95.9568 90.629 95.6037 90.629 95.2506 90.3019 
	 94.8978 89.975 94.8978 89.975 94.5447 89.975 94.1916 89.975 
	 94.1916 89.975 93.8385 89.975 93.8385 90.3019 93.4857 90.629 
	 93.4857 90.9559 93.4857 91.6099 93.4857 92.2636 93.8385 93.2445 
	 97.0159 95.8603 95.2506 90.629 98.428 93.2445 105.488 112.863 
	 101.958 110.247 99.1339 102.073 95.6037 99.4569 95.6037 99.4569 
	 95.6037 99.784 95.9568 100.111 95.9568 100.765 96.3097 101.419 
	 96.6628 102.073 96.6628 102.4 97.0159 103.054 97.369 103.708 
	 97.7218 104.362 98.0749 105.015 98.428 105.669 98.428 106.323 
	 98.7808 106.977 99.1339 107.631 99.487 107.958 99.8401 108.612 
	 98.428 110.247 98.428 110.247 98.428 110.247 98.428 110.247 "
	 style="stroke:none; fill:#00ff00; fill-opacity:100%"></polygon>
	<polygon points="76.8293 75.3902 75.7742 69.8435 81.7528 74.7376 
	 81.7528 74.7376 82.1046 75.064 83.1595 75.7166 83.863 76.6952 
	 84.5664 78.0003 85.2697 78.979 85.973 80.284 86.6763 81.5891 
	 87.3799 82.8941 87.7314 84.1992 88.0832 85.5043 88.4348 86.8093 
	 88.7866 87.788 88.7866 88.7669 88.7866 89.7456 88.4348 90.3981 
	 88.0832 91.0506 88.0832 91.0506 88.4348 91.7032 88.7866 92.6819 
	 89.1383 93.3344 89.4899 94.3133 90.1932 94.9658 90.545 95.9445 
	 90.8965 96.597 91.2483 97.5759 91.9516 98.2285 92.3034 99.2071 
	 92.655 99.8597 93.0067 100.838 93.7101 101.817 94.0619 102.796 
	 94.7652 103.775 95.4685 105.406 94.4134 107.364 94.4134 107.364 
	 94.0619 106.711 93.0067 105.406 92.3034 103.775 91.6001 102.47 
	 90.8965 100.838 89.8417 99.5335 89.1383 97.9021 88.4348 96.597 
	 87.7314 95.292 87.0281 93.9869 86.6763 92.6819 85.973 91.377 
	 85.2697 90.072 84.9179 89.0931 84.2146 88.1144 83.863 86.8093 
	 83.863 86.8093 83.863 86.8093 83.863 86.4829 83.863 86.4829 
	 83.863 86.1568 84.2146 86.1568 84.2146 85.8304 84.2146 85.8304 
	 84.2146 85.5043 84.5664 85.1779 84.5664 84.8517 84.5664 84.8517 
	 84.5664 84.5256 84.5664 84.1992 84.5664 83.8731 84.5664 83.2205 
	 84.5664 82.568 84.5664 82.568 84.2146 82.568 84.2146 82.2416 
	 84.2146 81.9155 84.2146 81.9155 84.2146 81.5891 83.863 81.2629 
	 83.863 81.2629 83.863 80.9366 83.5113 80.9366 83.5113 80.6104 
	 83.1595 80.284 83.1595 80.284 82.8079 79.9579 82.4561 79.6315 
	 82.4561 79.6315 81.7528 79.3054 76.8293 75.3902 76.8293 75.3902 
	 76.8293 75.3902 76.8293 75.3902 "
	 style="stroke:none; fill:#00ff00; fill-opacity:100%"></polygon>
	<polygon points="84.9958 96.9812 77.8473 76.3128 81.0641 78.9373 
	 88.2127 99.2777 84.9958 96.9812 84.9958 96.9812 84.9958 96.9812 84.9958 96.9812 "
	 style="stroke:none; fill:#00ff00; fill-opacity:100%"></polygon>
	<polygon points="67.1646 71.2167 67.1646 71.2167 66.812 70.5632 
	 66.4594 69.2559 66.1069 67.9491 66.1069 66.9687 65.7543 65.9886 
	 65.7543 65.3351 65.7543 64.6816 65.7543 64.0281 65.7543 63.7012 
	 66.1069 63.3746 66.1069 63.3746 66.4594 63.3746 66.812 63.3746 
	 67.1646 63.3746 67.8697 63.7012 68.5749 64.3547 72.8055 67.6223 
	 75.6262 74.4842 71.3952 70.89 71.3952 70.89 71.0427 70.89 
	 70.6901 70.5632 70.6901 70.5632 70.3378 70.5632 69.9852 70.5632 
	 69.9852 70.5632 69.9852 70.5632 69.9852 70.89 69.9852 70.89 
	 69.9852 71.2167 69.9852 71.5436 69.9852 71.8702 69.9852 72.1971 
	 69.9852 72.8506 70.3378 73.1772 70.6901 74.1573 70.6901 74.1573 
	 70.6901 74.8109 71.0427 75.7912 71.7478 77.0983 72.1004 78.0784 
	 72.8055 79.0588 73.1581 80.0389 73.5107 81.0191 74.2159 81.9995 
	 74.5684 82.9796 75.2736 83.6331 75.6262 84.2866 76.3313 84.9401 
	 76.6839 85.5936 77.0365 86.2471 77.389 86.5738 77.7416 86.9007 
	 75.6262 80.6924 74.2159 79.3854 72.1004 73.1772 76.6839 77.0983 
	 83.03 95.396 80.562 93.4355 80.562 93.4355 79.8571 93.1089 
	 78.7993 91.8019 77.389 90.4948 76.3313 89.1878 75.2736 87.5542 
	 74.2159 86.2471 73.1581 84.2866 72.453 82.9796 71.3952 81.3459 
	 70.6901 79.7121 69.9852 78.0784 69.28 76.4448 68.5749 75.1377 
	 68.2223 73.8307 67.5172 72.8506 67.1646 71.2167 67.1646 71.2167 
	 67.1646 71.2167 67.1646 71.2167 "
	 style="stroke:none; fill:#00ff00; fill-opacity:100%"></polygon>
      </g>
    </g>
  </symbol>
 </defs>
</svg>
