<?xml version="1.0"?>
<?metis version="3.1"?>
<?metisxml version="1.0"?>
<!DOCTYPE svg  PUBLIC "-//W3C//DTD SVG August 1999//EN"
 "http://www.w3.org/Graphics/SVG/svg-19990812.dtd">

<svg width="200" height="200">
 <title>Symbol library: conclusion.svg</title>
 <defs>
  <symbol id="oid0" xml:space="preserve" class="METIS_SYMBOL">
   <title>Conclusion</title>
    <g>
      <polygon points="-2.84217e-014 0 -2.84217e-014 304 16 320 
       880 320 880 16 864 0 -2.84217e-014 0 
       -2.84217e-014 0 -2.84217e-014 0 -2.84217e-014 0 -2.84217e-014 0 "
       style=" stroke:#000000; stroke-width:1; fill:#9b9b9b; fill-opacity:100%"       class="TAG:shadow"></polygon>
      <rect x="-2.84217e-014" y="0" width="240" height="304"
       style=" stroke:#000000; stroke-width:1; fill:#ffffff; fill-opacity:100%"       class="TAG:PictureBackground"></rect>
      <rect x="240" y="0" width="624" height="304"
       style=" stroke:#000000; stroke-width:1; fill:#96a5ff; fill-opacity:100%"       class="TAG:canvas"></rect>
      <rect x="245.357" y="25.7143" width="569.522" height="231.429"
       style="stroke:none; fill:#878787; fill-opacity:0%"       class="TAG:grid"></rect>
      <g>
	<desc>METIS_TEXT_GROUP</desc>
	<text  x="256" y="15.8"
	 style=" stroke:#000000; stroke-width:1; font-family:sans-serif; font-size:16;"
	 class="TAG:text">text</text>
	<rect x="256" y="0" width="608" height="304"
	 style=" stroke:#000000; stroke-width:1; fill:#ffffff; fill-opacity:0%"></rect>
      </g>
      <polyline points="864 304 880 320"
       style=" stroke:#000000; stroke-width:1;"></polyline>
      <g>
	<g>
	  <polygon points="91.5357 66.2858 121.75 32 151.964 66.2858 
	   136.857 66.2858 136.857 134.857 121.75 152.001 106.643 134.857 
	   106.643 66.2858 106.643 66.2858 91.5357 66.2858 91.5357 66.2858 
	   91.5357 66.2858 91.5357 66.2858 "
	   style=" stroke:#000000; stroke-width:1; fill:#0000a5; fill-opacity:100%"></polygon>
	  <polygon points="121.75 152.001 106.643 169.144 106.643 237.715 
	   91.5357 237.715 121.75 272 151.964 237.715 136.857 237.715 
	   136.857 169.144 121.75 152.001 121.75 152.001 121.75 152.001 121.75 152.001 "
	   style=" stroke:#000000; stroke-width:1; fill:#ffff00; fill-opacity:100%"></polygon>
	  <polygon points="121.75 152.001 136.857 134.857 197.286 134.857 
	   197.286 117.714 227.5 152.001 197.286 186.287 197.286 169.144 
	   136.857 169.144 136.857 169.144 121.75 152.001 121.75 152.001 
	   121.75 152.001 121.75 152.001 "
	   style=" stroke:#000000; stroke-width:1; fill:#00a500; fill-opacity:100%"></polygon>
	  <polygon points="121.75 152.001 106.643 134.857 46.2144 134.857 
	   46.2144 117.714 16 152.001 46.2144 186.287 46.2144 169.144 
	   106.643 169.144 121.75 152.001 121.75 152.001 121.75 152.001 121.75 152.001 "
	   style=" stroke:#000000; stroke-width:1; fill:#dc0000; fill-opacity:100%"></polygon>
	</g>
	<g>
	  <ellipse  cx="121.75" cy="181.443" rx="13.5" ry="12.5"
	   style=" stroke:#000000; stroke-width:1; fill:#000000; fill-opacity:100%"></ellipse>
	  <ellipse  cx="121.75" cy="181.443" rx="4.5" ry="4.16669"
	   style=" stroke:#000000; stroke-width:1; fill:#ffff00; fill-opacity:100%"></ellipse>
	</g>
	<polygon points="108.25 203.943 108.25 203.943 108.25 228.943 
	 117.25 228.943 117.25 220.609 126.25 228.943 135.25 228.943 
	 124 216.442 135.25 203.943 126.25 203.943 117.25 212.276 
	 117.25 203.943 108.25 203.943 108.25 203.943 108.25 203.943 108.25 203.943 "
	 style=" stroke:#000000; stroke-width:1; fill:#000000; fill-opacity:100%"></polygon>
      </g>
    </g>
  </symbol>
 </defs>
</svg>
