<?xml version="1.0"?>
<?metis version="3.1"?>
<?metisxml version="1.0"?>
<!DOCTYPE svg  PUBLIC "-//W3C//DTD SVG August 1999//EN"
 "http://www.w3.org/Graphics/SVG/svg-19990812.dtd">

<svg width="200" height="200">
 <title>Symbol library: connector_closed.svg</title>
 <defs>
  <symbol id="oid0" xml:space="preserve" class="METIS_SYMBOL">
   <title>Con network</title>
    <g>
      <ellipse  cx="256" cy="256" rx="192" ry="192"
       style=" stroke:#000000; stroke-width:1; fill:#9fcfff; fill-opacity:50%"></ellipse>
      <polygon points="240 0 240 48 224 48 
       256 64 288 48 272 48 272 0 
       272 0 240 0 240 0 "
       style=" stroke:#000000; stroke-width:1; fill:#9fcfff; fill-opacity:100%"></polygon>
      <polygon points="240 512 240 464 224 464 
       256 448 288 464 272 464 272 512 
       272 512 240 512 240 512 "
       style=" stroke:#000000; stroke-width:1; fill:#9fcfff; fill-opacity:100%"></polygon>
      <polygon points="448 256 464 224 464 240 
       512 240 512 272 464 272 464 288 
       448 256 448 256 "
       style=" stroke:#000000; stroke-width:1; fill:#9fcfff; fill-opacity:100%"></polygon>
      <polygon points="64 256 48 224 48 240 
       0 240 0 272 48 272 48 288 
       64 256 64 256 "
       style=" stroke:#000000; stroke-width:1; fill:#9fcfff; fill-opacity:100%"></polygon>
    </g>
    <g>
      <desc>METIS_TEXT_GROUP</desc>
      <text  x="62.8266" y="235.464"
       style=" stroke:#000000; stroke-width:1; font-family:sans-serif; font-size:48; text-align:center vertical-align:middle;"
       class="TAG:text"></text>
      <rect x="62.8266" y="187.464" width="384" height="144"
       style=" stroke:#000000; stroke-width:1; fill:#ffffff; fill-opacity:0%"></rect>
    </g>
  </symbol>
 </defs>
</svg>
