<?xml version="1.0"?>
<?metis version="3.0.2"?>
<?metisxml version="1.0"?>
<!DOCTYPE svg  PUBLIC "-//W3C//DTD SVG August 1999//EN"
 "http://www.w3.org/Graphics/SVG/svg-19990812.dtd">

<svg width="200" height="200">
 <title>Symbol library: containersymbols.svg</title>
 <defs>
  <symbol id="oid13" xml:space="preserve" class="METIS_SYMBOL">
   <title>Closed - Red 5 top center w desc</title>
    <rect x="0" y="0" width="415" height="311"
     style=" stroke:#000000; stroke-width:1; fill:#ff0000; fill-opacity:100%"></rect>
    <g>
      <desc>METIS_TEXT_GROUP</desc>
      <text  x="11" y="24.5"
       style=" stroke:#000000; stroke-width:1; font-family:sans-serif; font-size:20; text-align:center"
       class="TAG:text">text</text>
      <rect x="11" y="5" width="399" height="70.5"
       style=" stroke:#000000; stroke-width:1; fill:#ffffff; fill-opacity:0%"></rect>
    </g>
    <g>
      <desc>METIS_TEXT_GROUP</desc>
      <text  x="31.5" y="88.3"
       style=" stroke:#000000; stroke-width:1; font-family:sans-serif; font-size:16;"
       class="TAG:description">description</text>
      <rect x="31.5" y="72.5" width="356" height="226"
       style=" stroke:#000000; stroke-width:1; fill:#96a5ff; fill-opacity:0%"></rect>
    </g>
  </symbol>
  <symbol id="oid12" xml:space="preserve" class="METIS_SYMBOL">
   <title>Closed - Orange 5 top center w desc</title>
    <rect x="0" y="0" width="415" height="311"
     style=" stroke:#ff962d; stroke-width:1; fill:#ff962d; fill-opacity:100%"></rect>
    <g>
      <desc>METIS_TEXT_GROUP</desc>
      <text  x="11" y="24.5"
       style=" stroke:#000000; stroke-width:1; font-family:sans-serif; font-size:20; text-align:center"
       class="TAG:text">text</text>
      <rect x="11" y="5" width="399" height="70.5"
       style=" stroke:#000000; stroke-width:1; fill:#ffffff; fill-opacity:0%"></rect>
    </g>
    <g>
      <desc>METIS_TEXT_GROUP</desc>
      <text  x="31.5" y="88.3"
       style=" stroke:#000000; stroke-width:1; font-family:sans-serif; font-size:16;"
       class="TAG:description">description</text>
      <rect x="31.5" y="72.5" width="356" height="226"
       style=" stroke:#000000; stroke-width:1; fill:#96a5ff; fill-opacity:0%"></rect>
    </g>
  </symbol>
  <symbol id="oid11" xml:space="preserve" class="METIS_SYMBOL">
   <title>Closed - Yellow 5 top center w desc</title>
    <rect x="0" y="0" width="415" height="311"
     style=" stroke:#000000; stroke-width:1; fill:#ffff00; fill-opacity:100%"></rect>
    <g>
      <desc>METIS_TEXT_GROUP</desc>
      <text  x="11" y="24.5"
       style=" stroke:#000000; stroke-width:1; font-family:sans-serif; font-size:20; text-align:center"
       class="TAG:text">text</text>
      <rect x="11" y="5" width="399" height="70.5"
       style=" stroke:#000000; stroke-width:1; fill:#ffffff; fill-opacity:0%"></rect>
    </g>
    <g>
      <desc>METIS_TEXT_GROUP</desc>
      <text  x="31.5" y="88.3"
       style=" stroke:#000000; stroke-width:1; font-family:sans-serif; font-size:16;"
       class="TAG:description">description</text>
      <rect x="31.5" y="72.5" width="356" height="226"
       style=" stroke:#000000; stroke-width:1; fill:#96a5ff; fill-opacity:0%"></rect>
    </g>
  </symbol>
  <symbol id="oid10" xml:space="preserve" class="METIS_SYMBOL">
   <title>Closed - Green 5 top center w desc</title>
    <rect x="0" y="0" width="415" height="311"
     style=" stroke:#000000; stroke-width:1; fill:#00ff00; fill-opacity:100%"></rect>
    <g>
      <desc>METIS_TEXT_GROUP</desc>
      <text  x="11" y="24.5"
       style=" stroke:#000000; stroke-width:1; font-family:sans-serif; font-size:20; text-align:center"
       class="TAG:text">text</text>
      <rect x="11" y="5" width="399" height="70.5"
       style=" stroke:#000000; stroke-width:1; fill:#ffffff; fill-opacity:0%"></rect>
    </g>
    <g>
      <desc>METIS_TEXT_GROUP</desc>
      <text  x="31.5" y="88.3"
       style=" stroke:#000000; stroke-width:1; font-family:sans-serif; font-size:16;"
       class="TAG:description">description</text>
      <rect x="31.5" y="72.5" width="356" height="226"
       style=" stroke:#000000; stroke-width:1; fill:#96a5ff; fill-opacity:0%"></rect>
    </g>
  </symbol>
  <symbol id="oid9" xml:space="preserve" class="METIS_SYMBOL">
   <title>Closed - Violet 5 top center w desc</title>
    <rect x="0" y="0" width="415" height="311"
     style=" stroke:#000000; stroke-width:1; fill:#ff00ff; fill-opacity:100%"></rect>
    <g>
      <desc>METIS_TEXT_GROUP</desc>
      <text  x="11" y="24.5"
       style=" stroke:#000000; stroke-width:1; font-family:sans-serif; font-size:20; text-align:center"
       class="TAG:text">text</text>
      <rect x="11" y="5" width="399" height="70.5"
       style=" stroke:#000000; stroke-width:1; fill:#ffffff; fill-opacity:0%"></rect>
    </g>
    <g>
      <desc>METIS_TEXT_GROUP</desc>
      <text  x="31.5" y="88.3"
       style=" stroke:#000000; stroke-width:1; font-family:sans-serif; font-size:16;"
       class="TAG:description">description</text>
      <rect x="31.5" y="72.5" width="356" height="226"
       style=" stroke:#000000; stroke-width:1; fill:#96a5ff; fill-opacity:0%"></rect>
    </g>
  </symbol>
  <symbol id="oid24" xml:space="preserve" class="METIS_SYMBOL">
   <title>Closed - Red 5 center center</title>
    <rect x="0" y="0" width="415" height="311"
     style=" stroke:#000000; stroke-width:1; fill:#ff0000; fill-opacity:100%"></rect>
    <g>
      <desc>METIS_TEXT_GROUP</desc>
      <text  x="7" y="33"
       style=" stroke:#000000; stroke-width:1; font-family:sans-serif; font-weight:bold; font-size:26; text-align:center vertical-align:middle;"
       class="TAG:text">text</text>
      <rect x="7" y="7.5" width="399" height="294"
       style=" stroke:#000000; stroke-width:1; fill:#ffffff; fill-opacity:0%"></rect>
    </g>
  </symbol>
  <symbol id="oid16" xml:space="preserve" class="METIS_SYMBOL">
   <title>Closed - Yellow 5 center center</title>
    <rect x="0" y="0" width="415" height="311"
     style=" stroke:#000000; stroke-width:1; fill:#ffff00; fill-opacity:100%"></rect>
    <g>
      <desc>METIS_TEXT_GROUP</desc>
      <text  x="7" y="33"
       style=" stroke:#000000; stroke-width:1; font-family:sans-serif; font-weight:bold; font-size:26; text-align:center vertical-align:middle;"
       class="TAG:text">text</text>
      <rect x="7" y="7.5" width="399" height="294"
       style=" stroke:#000000; stroke-width:1; fill:#ffffff; fill-opacity:0%"></rect>
    </g>
  </symbol>
  <symbol id="oid20" xml:space="preserve" class="METIS_SYMBOL">
   <title>Closed - Green 5 center center</title>
    <rect x="0" y="0" width="415" height="311"
     style=" stroke:#000000; stroke-width:1; fill:#00ff00; fill-opacity:100%"></rect>
    <g>
      <desc>METIS_TEXT_GROUP</desc>
      <text  x="7" y="33"
       style=" stroke:#000000; stroke-width:1; font-family:sans-serif; font-weight:bold; font-size:26; text-align:center vertical-align:middle;"
       class="TAG:text">text</text>
      <rect x="7" y="7.5" width="399" height="294"
       style=" stroke:#000000; stroke-width:1; fill:#ffffff; fill-opacity:0%"></rect>
    </g>
  </symbol>
  <symbol id="oid15" xml:space="preserve" class="METIS_SYMBOL">
   <title>Closed - Green 3 center center</title>
    <rect x="0" y="0" width="415" height="311"
     style=" stroke:#000000; stroke-width:1; fill:#6eff6e; fill-opacity:100%"></rect>
    <g>
      <desc>METIS_TEXT_GROUP</desc>
      <text  x="7" y="33"
       style=" stroke:#000000; stroke-width:1; font-family:sans-serif; font-weight:bold; font-size:26; text-align:center vertical-align:middle;"
       class="TAG:text">text</text>
      <rect x="7" y="7.5" width="399" height="294"
       style=" stroke:#000000; stroke-width:1; fill:#ffffff; fill-opacity:0%"></rect>
    </g>
  </symbol>
  <symbol id="oid19" xml:space="preserve" class="METIS_SYMBOL">
   <title>Closed - Green center name 1</title>
    <rect x="0" y="0" width="415" height="311"
     style=" stroke:#000000; stroke-width:1; fill:#c8ffc8; fill-opacity:100%"></rect>
    <g>
      <desc>METIS_TEXT_GROUP</desc>
      <text  x="7" y="33"
       style=" stroke:#000000; stroke-width:1; font-family:sans-serif; font-weight:bold; font-size:26; text-align:center vertical-align:middle;"
       class="TAG:text">text</text>
      <rect x="7" y="7.5" width="399" height="294"
       style=" stroke:#000000; stroke-width:1; fill:#ffffff; fill-opacity:0%"></rect>
    </g>
  </symbol>
  <symbol id="oid14" xml:space="preserve" class="METIS_SYMBOL">
   <title>Closed - Blue center name</title>
    <rect x="0" y="0" width="415" height="311"
     style=" stroke:#000000; stroke-width:1; fill:#96a5ff; fill-opacity:100%"></rect>
    <g>
      <desc>METIS_TEXT_GROUP</desc>
      <text  x="11" y="30.5"
       style=" stroke:#000000; stroke-width:1; font-family:sans-serif; font-weight:bold; font-size:26; text-align:center vertical-align:middle;"
       class="TAG:text">text</text>
      <rect x="11" y="5" width="399" height="294"
       style=" stroke:#000000; stroke-width:1; fill:#ffffff; fill-opacity:0%"></rect>
    </g>
  </symbol>
  <symbol id="oid8" xml:space="preserve" class="METIS_SYMBOL">
   <title>Closed - Blue w desc</title>
    <rect x="0" y="0" width="415" height="311"
     style=" stroke:#000000; stroke-width:1; fill:#96a5ff; fill-opacity:100%"></rect>
    <g>
      <desc>METIS_TEXT_GROUP</desc>
      <text  x="11" y="26.8"
       style=" stroke:#000000; stroke-width:1; font-family:sans-serif; font-size:22; text-align:center"
       class="TAG:text">text</text>
      <rect x="11" y="5" width="399" height="66.0988"
       style=" stroke:#000000; stroke-width:1; fill:#ffffff; fill-opacity:0%"></rect>
    </g>
    <g>
      <desc>METIS_TEXT_GROUP</desc>
      <text  x="31.5" y="88.3"
       style=" stroke:#000000; stroke-width:1; font-family:sans-serif; font-size:16;"
       class="TAG:description">description</text>
      <rect x="31.5" y="72.5" width="356" height="226"
       style=" stroke:#000000; stroke-width:1; fill:#96a5ff; fill-opacity:0%"></rect>
    </g>
  </symbol>
  <symbol id="oid7" xml:space="preserve" class="METIS_SYMBOL">
   <title>Open - gray top center name</title>
    <rect x="0" y="0" width="415" height="311"
     style=" stroke:#000000; stroke-width:1; fill:#dcdcdc; fill-opacity:100%"></rect>
    <g>
      <desc>METIS_TEXT_GROUP</desc>
      <text  x="11" y="20.8"
       style=" stroke:#000000; stroke-width:1; font-family:sans-serif; font-size:16; text-align:center"
       class="TAG:text">text</text>
      <rect x="11" y="5" width="399" height="69"
       style=" stroke:#000000; stroke-width:1; fill:#ffffff; fill-opacity:0%"></rect>
    </g>
  </symbol>
  <symbol id="oid6" xml:space="preserve" class="METIS_SYMBOL">
   <title>Open - pink top center name</title>
    <rect x="0" y="0" width="415" height="311"
     style=" stroke:#000000; stroke-width:1; fill:#ffdcdc; fill-opacity:100%"></rect>
    <g>
      <desc>METIS_TEXT_GROUP</desc>
      <text  x="11" y="20.8"
       style=" stroke:#000000; stroke-width:1; font-family:sans-serif; font-size:16; text-align:center"
       class="TAG:text">text</text>
      <rect x="11" y="5" width="399" height="69"
       style=" stroke:#000000; stroke-width:1; fill:#ffffff; fill-opacity:0%"></rect>
    </g>
  </symbol>
  <symbol id="oid5" xml:space="preserve" class="METIS_SYMBOL">
   <title>Open - light orange top center name</title>
    <rect x="0" y="0" width="415" height="311"
     style=" stroke:#000000; stroke-width:1; fill:#ffecd9; fill-opacity:100%"></rect>
    <g>
      <desc>METIS_TEXT_GROUP</desc>
      <text  x="11" y="20.8"
       style=" stroke:#000000; stroke-width:1; font-family:sans-serif; font-size:16; text-align:center"
       class="TAG:text">text</text>
      <rect x="11" y="5" width="399" height="69"
       style=" stroke:#000000; stroke-width:1; fill:#ffffff; fill-opacity:0%"></rect>
    </g>
  </symbol>
  <symbol id="oid4" xml:space="preserve" class="METIS_SYMBOL">
   <title>Open - light yellow top center name</title>
    <rect x="0" y="0" width="415" height="311"
     style=" stroke:#000000; stroke-width:1; fill:#ffffdc; fill-opacity:100%"></rect>
    <g>
      <desc>METIS_TEXT_GROUP</desc>
      <text  x="11" y="20.8"
       style=" stroke:#000000; stroke-width:1; font-family:sans-serif; font-size:16; text-align:center"
       class="TAG:text">text</text>
      <rect x="11" y="5" width="399" height="69"
       style=" stroke:#000000; stroke-width:1; fill:#ffffff; fill-opacity:0%"></rect>
    </g>
  </symbol>
  <symbol id="oid3" xml:space="preserve" class="METIS_SYMBOL">
   <title>Open - blue top center name</title>
    <rect x="0" y="0" width="415" height="311"
     style=" stroke:#000000; stroke-width:1; fill:#c8c8ff; fill-opacity:100%"></rect>
    <g>
      <desc>METIS_TEXT_GROUP</desc>
      <text  x="11" y="20.8"
       style=" stroke:#000000; stroke-width:1; font-family:sans-serif; font-size:16; text-align:center"
       class="TAG:text">text</text>
      <rect x="11" y="5" width="399" height="69"
       style=" stroke:#000000; stroke-width:1; fill:#ffffff; fill-opacity:0%"></rect>
    </g>
  </symbol>
  <symbol id="oid2" xml:space="preserve" class="METIS_SYMBOL">
   <title>Open - light purple top center name</title>
    <rect x="0" y="0" width="415" height="311"
     style=" stroke:#000000; stroke-width:1; fill:#ffdcff; fill-opacity:100%"></rect>
    <g>
      <desc>METIS_TEXT_GROUP</desc>
      <text  x="11" y="20.8"
       style=" stroke:#000000; stroke-width:1; font-family:sans-serif; font-size:16; text-align:center"
       class="TAG:text">text</text>
      <rect x="11" y="5" width="399" height="69"
       style=" stroke:#000000; stroke-width:1; fill:#ffffff; fill-opacity:0%"></rect>
    </g>
  </symbol>
  <symbol id="oid23" xml:space="preserve" class="METIS_SYMBOL">
   <title>Text - Left</title>
    <g>
      <desc>METIS_TEXT_GROUP</desc>
      <text  x="0" y="15.8"
       style=" stroke:#000000; stroke-width:1; font-family:sans-serif; font-size:16; vertical-align:middle;"
       class="TAG:text">text</text>
      <rect x="0" y="0" width="408" height="81"
       style=" stroke:#000000; stroke-width:1; fill:#000000; fill-opacity:0%"></rect>
    </g>
  </symbol>
  <symbol id="oid22" xml:space="preserve" class="METIS_SYMBOL">
   <title>Open - Milestone</title>
    <polygon points="136.325 112.063 207.325 240.063 278.325 112.063 
     136.325 112.063 136.325 112.063 "
     style=" stroke:#000000; stroke-width:1; fill:#ffffff; fill-opacity:100%"></polygon>
    <g>
      <desc>METIS_TEXT_GROUP</desc>
      <text  x="0" y="30"
       style=" stroke:#000000; stroke-width:1; font-family:sans-serif; font-size:30; text-align:center vertical-align:bottom;"
       class="TAG:text">name</text>
      <rect x="0" y="0" width="414.65" height="110.708"
       style=" stroke:#000000; stroke-width:1; fill:#ffffff; fill-opacity:0%"></rect>
    </g>
  </symbol>
  <symbol id="oid21" xml:space="preserve" class="METIS_SYMBOL">
   <title>Closed - Milestone</title>
    <polygon points="136.325 112.708 207.325 240.708 278.325 112.708 
     136.325 112.708 136.325 112.708 "
     style=" stroke:#000000; stroke-width:1; fill:#000000; fill-opacity:100%"></polygon>
    <g>
      <desc>METIS_TEXT_GROUP</desc>
      <text  x="0" y="30"
       style=" stroke:#000000; stroke-width:1; font-family:sans-serif; font-size:30; text-align:center vertical-align:bottom;"
       class="TAG:text">name</text>
      <rect x="0" y="0" width="414.65" height="110.708"
       style=" stroke:#000000; stroke-width:1; fill:#ffffff; fill-opacity:0%"></rect>
    </g>
  </symbol>
  <symbol id="oid18" xml:space="preserve" class="METIS_SYMBOL">
   <title>CLOSED TOP CONTAINER</title>
    <rect x="0" y="0" width="415" height="311"
     style=" stroke:#000000; stroke-width:1; fill:#c8ffc8; fill-opacity:100%"></rect>
    <g>
      <desc>METIS_TEXT_GROUP</desc>
      <text  x="11" y="29"
       style=" stroke:#000000; stroke-width:1; font-family:sans-serif; font-size:24; text-align:center vertical-align:middle;"
       class="TAG:text">text</text>
      <rect x="11" y="5" width="399" height="60"
       style=" stroke:#000000; stroke-width:1; fill:#ffffff; fill-opacity:0%"></rect>
    </g>
    <g>
      <polygon points="136.881 245.242 152.176 245.242 153.91 245.037 
       155.541 244.423 156.969 243.503 158.192 242.275 159.11 240.843 
       159.62 239.206 159.824 237.569 159.62 235.83 159.11 234.193 
       158.192 232.76 156.969 231.533 155.541 230.612 153.91 229.998 
       152.176 229.896 136.881 229.896 135.147 229.998 133.516 230.612 
       132.088 231.533 130.865 232.76 129.947 234.193 129.437 235.83 
       129.233 237.569 129.437 239.206 129.947 240.843 130.865 242.275 
       132.088 243.503 133.516 244.423 135.147 245.037 136.881 245.242 
       136.881 245.242 136.881 245.242 136.881 245.242 136.881 245.242 "
       style=" stroke:#000000; stroke-width:1; fill:#ffffff; fill-opacity:100%"></polygon>
      <polygon points="136.881 226.136 152.176 226.136 153.91 225.931 
       155.541 225.419 156.969 224.499 158.192 223.271 159.11 221.839 
       159.62 220.202 159.824 218.463 159.62 216.723 159.11 215.087 
       158.192 213.654 156.969 212.427 155.541 211.506 153.91 210.994 
       152.176 210.79 136.881 210.79 135.147 210.994 133.516 211.506 
       132.088 212.427 130.865 213.654 129.947 215.087 129.437 216.723 
       129.233 218.463 129.437 220.202 129.947 221.839 130.865 223.271 
       132.088 224.499 133.516 225.419 135.147 225.931 136.881 226.136 
       136.881 226.136 136.881 226.136 136.881 226.136 136.881 226.136 "
       style=" stroke:#000000; stroke-width:1; fill:#ffffff; fill-opacity:100%"></polygon>
      <polygon points="91.1476 149.914 106.443 149.914 108.176 149.709 
       109.808 149.198 111.235 148.277 112.459 147.049 113.377 145.617 
       113.886 143.98 114.09 142.241 113.886 140.501 113.377 138.865 
       112.459 137.432 111.235 136.205 109.808 135.284 108.176 134.772 
       106.443 134.568 91.1476 134.568 89.4141 134.772 87.7826 135.284 
       86.3551 136.205 85.1315 137.432 84.2138 138.865 83.7039 140.501 
       83.5 142.241 83.7039 143.98 84.2138 145.617 85.1315 147.049 
       86.3551 148.277 87.7826 149.198 89.4141 149.709 91.1476 149.914 
       91.1476 149.914 91.1476 149.914 91.1476 149.914 91.1476 149.914 "
       style=" stroke:#000000; stroke-width:1; fill:#ffffff; fill-opacity:100%"></polygon>
      <polygon points="136.881 149.914 152.176 149.914 153.91 149.709 
       155.541 149.198 156.969 148.277 158.192 147.049 159.11 145.617 
       159.62 143.98 159.824 142.241 159.62 140.501 159.11 138.865 
       158.192 137.432 156.969 136.205 155.541 135.284 153.91 134.772 
       152.176 134.568 136.881 134.568 135.147 134.772 133.516 135.284 
       132.088 136.205 130.865 137.432 129.947 138.865 129.437 140.501 
       129.233 142.241 129.437 143.98 129.947 145.617 130.865 147.049 
       132.088 148.277 133.516 149.198 135.147 149.709 136.881 149.914 
       136.881 149.914 136.881 149.914 136.881 149.914 136.881 149.914 "
       style=" stroke:#000000; stroke-width:1; fill:#ffffff; fill-opacity:100%"></polygon>
      <polygon points="182.614 264.247 197.909 264.247 199.643 264.042 
       201.274 263.53 202.702 262.61 203.925 261.382 204.843 259.95 
       205.353 258.313 205.557 256.574 205.353 254.834 204.843 253.198 
       203.925 251.765 202.702 250.538 201.274 249.617 199.643 249.105 
       197.909 248.901 182.614 248.901 180.88 249.105 179.249 249.617 
       177.821 250.538 176.598 251.765 175.68 253.198 175.17 254.834 
       174.966 256.574 175.17 258.313 175.68 259.95 176.598 261.382 
       177.821 262.61 179.249 263.53 180.88 264.042 182.614 264.247 
       182.614 264.247 182.614 264.247 182.614 264.247 182.614 264.247 "
       style=" stroke:#000000; stroke-width:1; fill:#ffffff; fill-opacity:100%"></polygon>
      <polygon points="136.881 207.131 152.176 207.131 153.91 206.926 
       155.541 206.312 156.969 205.392 158.192 204.164 159.11 202.732 
       159.62 201.095 159.824 199.458 159.62 197.719 159.11 196.082 
       158.192 194.649 156.969 193.422 155.541 192.501 153.91 191.887 
       152.176 191.785 136.881 191.785 135.147 191.887 133.516 192.501 
       132.088 193.422 130.865 194.649 129.947 196.082 129.437 197.719 
       129.233 199.458 129.437 201.095 129.947 202.732 130.865 204.164 
       132.088 205.392 133.516 206.312 135.147 206.926 136.881 207.131 
       136.881 207.131 136.881 207.131 136.881 207.131 136.881 207.131 "
       style=" stroke:#000000; stroke-width:1; fill:#ffffff; fill-opacity:100%"></polygon>
      <polygon points="182.614 188.025 197.909 188.025 199.643 187.82 
       201.274 187.308 202.702 186.388 203.925 185.16 204.843 183.728 
       205.353 182.091 205.557 180.352 205.353 178.612 204.843 176.976 
       203.925 175.543 202.702 174.316 201.274 173.395 199.643 172.883 
       197.909 172.679 182.614 172.679 180.88 172.883 179.249 173.395 
       177.821 174.316 176.598 175.543 175.68 176.976 175.17 178.612 
       174.966 180.352 175.17 182.091 175.68 183.728 176.598 185.16 
       177.821 186.388 179.249 187.308 180.88 187.82 182.614 188.025 
       182.614 188.025 182.614 188.025 182.614 188.025 182.614 188.025 "
       style=" stroke:#000000; stroke-width:1; fill:#ffffff; fill-opacity:100%"></polygon>
      <polygon points="182.614 226.136 197.909 226.136 199.643 225.931 
       201.274 225.419 202.702 224.499 203.925 223.271 204.843 221.839 
       205.353 220.202 205.557 218.463 205.353 216.723 204.843 215.087 
       203.925 213.654 202.702 212.427 201.274 211.506 199.643 210.994 
       197.909 210.79 182.614 210.79 180.88 210.994 179.249 211.506 
       177.821 212.427 176.598 213.654 175.68 215.087 175.17 216.723 
       174.966 218.463 175.17 220.202 175.68 221.839 176.598 223.271 
       177.821 224.499 179.249 225.419 180.88 225.931 182.614 226.136 
       182.614 226.136 182.614 226.136 182.614 226.136 182.614 226.136 "
       style=" stroke:#000000; stroke-width:1; fill:#ffffff; fill-opacity:100%"></polygon>
      <polygon points="182.614 245.242 197.909 245.242 199.643 245.037 
       201.274 244.423 202.702 243.503 203.925 242.275 204.843 240.843 
       205.353 239.206 205.557 237.569 205.353 235.83 204.843 234.193 
       203.925 232.76 202.702 231.533 201.274 230.612 199.643 229.998 
       197.909 229.896 182.614 229.896 180.88 229.998 179.249 230.612 
       177.821 231.533 176.598 232.76 175.68 234.193 175.17 235.83 
       174.966 237.569 175.17 239.206 175.68 240.843 176.598 242.275 
       177.821 243.503 179.249 244.423 180.88 245.037 182.614 245.242 
       182.614 245.242 182.614 245.242 182.614 245.242 182.614 245.242 "
       style=" stroke:#000000; stroke-width:1; fill:#ffffff; fill-opacity:100%"></polygon>
      <polygon points="228.347 264.247 243.642 264.247 245.376 264.042 
       247.007 263.53 248.435 262.61 249.658 261.382 250.576 259.95 
       251.086 258.313 251.29 256.574 251.086 254.834 250.576 253.198 
       249.658 251.765 248.435 250.538 247.007 249.617 245.376 249.105 
       243.642 248.901 228.347 248.901 226.614 249.105 224.982 249.617 
       223.555 250.538 222.331 251.765 221.413 253.198 220.903 254.834 
       220.699 256.574 220.903 258.313 221.413 259.95 222.331 261.382 
       223.555 262.61 224.982 263.53 226.614 264.042 228.347 264.247 
       228.347 264.247 228.347 264.247 228.347 264.247 228.347 264.247 "
       style=" stroke:#000000; stroke-width:1; fill:#ffffff; fill-opacity:100%"></polygon>
      <polygon points="228.347 226.136 243.642 226.136 245.376 225.931 
       247.007 225.419 248.435 224.499 249.658 223.271 250.576 221.839 
       251.086 220.202 251.29 218.463 251.086 216.723 250.576 215.087 
       249.658 213.654 248.435 212.427 247.007 211.506 245.376 210.994 
       243.642 210.79 228.347 210.79 226.614 210.994 224.982 211.506 
       223.555 212.427 222.331 213.654 221.413 215.087 220.903 216.723 
       220.699 218.463 220.903 220.202 221.413 221.839 222.331 223.271 
       223.555 224.499 224.982 225.419 226.614 225.931 228.347 226.136 
       228.347 226.136 228.347 226.136 228.347 226.136 228.347 226.136 "
       style=" stroke:#000000; stroke-width:1; fill:#ffffff; fill-opacity:100%"></polygon>
      <polygon points="228.347 245.242 243.642 245.242 245.376 245.037 
       247.007 244.423 248.435 243.503 249.658 242.275 250.576 240.843 
       251.086 239.206 251.29 237.569 251.086 235.83 250.576 234.193 
       249.658 232.76 248.435 231.533 247.007 230.612 245.376 229.998 
       243.642 229.896 228.347 229.896 226.614 229.998 224.982 230.612 
       223.555 231.533 222.331 232.76 221.413 234.193 220.903 235.83 
       220.699 237.569 220.903 239.206 221.413 240.843 222.331 242.275 
       223.555 243.503 224.982 244.423 226.614 245.037 228.347 245.242 
       228.347 245.242 228.347 245.242 228.347 245.242 228.347 245.242 "
       style=" stroke:#000000; stroke-width:1; fill:#ffffff; fill-opacity:100%"></polygon>
      <polygon points="274.08 264.247 289.375 264.247 291.109 264.042 
       292.74 263.53 294.168 262.61 295.391 261.382 296.309 259.95 
       296.819 258.313 297.023 256.574 296.819 254.834 296.309 253.198 
       295.391 251.765 294.168 250.538 292.74 249.617 291.109 249.105 
       289.375 248.901 274.08 248.901 272.347 249.105 270.715 249.617 
       269.288 250.538 268.064 251.765 267.146 253.198 266.637 254.834 
       266.433 256.574 266.637 258.313 267.146 259.95 268.064 261.382 
       269.288 262.61 270.715 263.53 272.347 264.042 274.08 264.247 
       274.08 264.247 274.08 264.247 274.08 264.247 274.08 264.247 "
       style=" stroke:#000000; stroke-width:1; fill:#ffffff; fill-opacity:100%"></polygon>
      <polygon points="228.347 283.353 243.642 283.353 245.376 283.148 
       247.007 282.534 248.435 281.614 249.658 280.386 250.576 278.954 
       251.086 277.317 251.29 275.68 251.086 273.941 250.576 272.304 
       249.658 270.871 248.435 269.644 247.007 268.723 245.376 268.109 
       243.642 268.007 228.347 268.007 226.614 268.109 224.982 268.723 
       223.555 269.644 222.331 270.871 221.413 272.304 220.903 273.941 
       220.699 275.68 220.903 277.317 221.413 278.954 222.331 280.386 
       223.555 281.614 224.982 282.534 226.614 283.148 228.347 283.353 
       228.347 283.353 228.347 283.353 228.347 283.353 228.347 283.353 "
       style=" stroke:#000000; stroke-width:1; fill:#ffffff; fill-opacity:100%"></polygon>
      <polygon points="136.881 130.909 152.176 130.909 153.91 130.704 
       155.541 130.091 156.969 129.17 158.192 127.942 159.11 126.51 
       159.62 124.873 159.824 123.236 159.62 121.497 159.11 119.86 
       158.192 118.428 156.969 117.2 155.541 116.279 153.91 115.665 
       152.176 115.563 136.881 115.563 135.147 115.665 133.516 116.279 
       132.088 117.2 130.865 118.428 129.947 119.86 129.437 121.497 
       129.233 123.236 129.437 124.873 129.947 126.51 130.865 127.942 
       132.088 129.17 133.516 130.091 135.147 130.704 136.881 130.909 
       136.881 130.909 136.881 130.909 136.881 130.909 136.881 130.909 "
       style=" stroke:#000000; stroke-width:1; fill:#ffffff; fill-opacity:100%"></polygon>
      <polygon points="182.614 169.02 197.909 169.02 199.643 168.815 
       201.274 168.202 202.702 167.281 203.925 166.053 204.843 164.621 
       205.353 162.984 205.557 161.347 205.353 159.608 204.843 157.971 
       203.925 156.539 202.702 155.311 201.274 154.39 199.643 153.776 
       197.909 153.674 182.614 153.674 180.88 153.776 179.249 154.39 
       177.821 155.311 176.598 156.539 175.68 157.971 175.17 159.608 
       174.966 161.347 175.17 162.984 175.68 164.621 176.598 166.053 
       177.821 167.281 179.249 168.202 180.88 168.815 182.614 169.02 
       182.614 169.02 182.614 169.02 182.614 169.02 182.614 169.02 "
       style=" stroke:#000000; stroke-width:1; fill:#ffffff; fill-opacity:100%"></polygon>
      <polygon points="182.614 130.909 197.909 130.909 199.643 130.704 
       201.274 130.091 202.702 129.17 203.925 127.942 204.843 126.51 
       205.353 124.873 205.557 123.236 205.353 121.497 204.843 119.86 
       203.925 118.428 202.702 117.2 201.274 116.279 199.643 115.665 
       197.909 115.563 182.614 115.563 180.88 115.665 179.249 116.279 
       177.821 117.2 176.598 118.428 175.68 119.86 175.17 121.497 
       174.966 123.236 175.17 124.873 175.68 126.51 176.598 127.942 
       177.821 129.17 179.249 130.091 180.88 130.704 182.614 130.909 
       182.614 130.909 182.614 130.909 182.614 130.909 182.614 130.909 "
       style=" stroke:#000000; stroke-width:1; fill:#ffffff; fill-opacity:100%"></polygon>
      <polygon points="182.614 111.803 197.909 111.803 199.643 111.598 
       201.274 111.087 202.702 110.166 203.925 108.938 204.843 107.506 
       205.353 105.869 205.557 104.13 205.353 102.39 204.843 100.754 
       203.925 99.3213 202.702 98.0938 201.274 97.1729 199.643 96.6614 
       197.909 96.4567 182.614 96.4567 180.88 96.6614 179.249 97.1729 
       177.821 98.0938 176.598 99.3213 175.68 100.754 175.17 102.39 
       174.966 104.13 175.17 105.869 175.68 107.506 176.598 108.938 
       177.821 110.166 179.249 111.087 180.88 111.598 182.614 111.803 
       182.614 111.803 182.614 111.803 182.614 111.803 182.614 111.803 "
       style=" stroke:#000000; stroke-width:1; fill:#ffffff; fill-opacity:100%"></polygon>
      <polygon points="91.1476 130.909 106.443 130.909 108.176 130.704 
       109.808 130.091 111.235 129.17 112.459 127.942 113.377 126.51 
       113.886 124.873 114.09 123.236 113.886 121.497 113.377 119.86 
       112.459 118.428 111.235 117.2 109.808 116.279 108.176 115.665 
       106.443 115.563 91.1476 115.563 89.4141 115.665 87.7826 116.279 
       86.3551 117.2 85.1315 118.428 84.2138 119.86 83.7039 121.497 
       83.5 123.236 83.7039 124.873 84.2138 126.51 85.1315 127.942 
       86.3551 129.17 87.7826 130.091 89.4141 130.704 91.1476 130.909 
       91.1476 130.909 91.1476 130.909 91.1476 130.909 91.1476 130.909 "
       style=" stroke:#000000; stroke-width:1; fill:#ffffff; fill-opacity:100%"></polygon>
      <polygon points="228.347 111.803 243.642 111.803 245.376 111.598 
       247.007 111.087 248.435 110.166 249.658 108.938 250.576 107.506 
       251.086 105.869 251.29 104.13 251.086 102.39 250.576 100.754 
       249.658 99.3213 248.435 98.0938 247.007 97.1729 245.376 96.6614 
       243.642 96.4567 228.347 96.4567 226.614 96.6614 224.982 97.1729 
       223.555 98.0938 222.331 99.3213 221.413 100.754 220.903 102.39 
       220.699 104.13 220.903 105.869 221.413 107.506 222.331 108.938 
       223.555 110.166 224.982 111.087 226.614 111.598 228.347 111.803 
       228.347 111.803 228.347 111.803 228.347 111.803 228.347 111.803 "
       style=" stroke:#000000; stroke-width:1; fill:#ffffff; fill-opacity:100%"></polygon>
      <polygon points="228.347 130.909 243.642 130.909 245.376 130.704 
       247.007 130.091 248.435 129.17 249.658 127.942 250.576 126.51 
       251.086 124.873 251.29 123.236 251.086 121.497 250.576 119.86 
       249.658 118.428 248.435 117.2 247.007 116.279 245.376 115.665 
       243.642 115.563 228.347 115.563 226.614 115.665 224.982 116.279 
       223.555 117.2 222.331 118.428 221.413 119.86 220.903 121.497 
       220.699 123.236 220.903 124.873 221.413 126.51 222.331 127.942 
       223.555 129.17 224.982 130.091 226.614 130.704 228.347 130.909 
       228.347 130.909 228.347 130.909 228.347 130.909 228.347 130.909 "
       style=" stroke:#000000; stroke-width:1; fill:#ffffff; fill-opacity:100%"></polygon>
      <polygon points="228.347 169.02 243.642 169.02 245.376 168.815 
       247.007 168.202 248.435 167.281 249.658 166.053 250.576 164.621 
       251.086 162.984 251.29 161.347 251.086 159.608 250.576 157.971 
       249.658 156.539 248.435 155.311 247.007 154.39 245.376 153.776 
       243.642 153.674 228.347 153.674 226.614 153.776 224.982 154.39 
       223.555 155.311 222.331 156.539 221.413 157.971 220.903 159.608 
       220.699 161.347 220.903 162.984 221.413 164.621 222.331 166.053 
       223.555 167.281 224.982 168.202 226.614 168.815 228.347 169.02 
       228.347 169.02 228.347 169.02 228.347 169.02 228.347 169.02 "
       style=" stroke:#000000; stroke-width:1; fill:#ffffff; fill-opacity:100%"></polygon>
      <polygon points="136.881 188.025 152.176 188.025 153.91 187.82 
       155.541 187.308 156.969 186.388 158.192 185.16 159.11 183.728 
       159.62 182.091 159.824 180.352 159.62 178.612 159.11 176.976 
       158.192 175.543 156.969 174.316 155.541 173.395 153.91 172.883 
       152.176 172.679 136.881 172.679 135.147 172.883 133.516 173.395 
       132.088 174.316 130.865 175.543 129.947 176.976 129.437 178.612 
       129.233 180.352 129.437 182.091 129.947 183.728 130.865 185.16 
       132.088 186.388 133.516 187.308 135.147 187.82 136.881 188.025 
       136.881 188.025 136.881 188.025 136.881 188.025 136.881 188.025 "
       style=" stroke:#000000; stroke-width:1; fill:#ffffff; fill-opacity:100%"></polygon>
      <polygon points="182.614 207.131 197.909 207.131 199.643 206.926 
       201.274 206.312 202.702 205.392 203.925 204.164 204.843 202.732 
       205.353 201.095 205.557 199.458 205.353 197.719 204.843 196.082 
       203.925 194.649 202.702 193.422 201.274 192.501 199.643 191.887 
       197.909 191.785 182.614 191.785 180.88 191.887 179.249 192.501 
       177.821 193.422 176.598 194.649 175.68 196.082 175.17 197.719 
       174.966 199.458 175.17 201.095 175.68 202.732 176.598 204.164 
       177.821 205.392 179.249 206.312 180.88 206.926 182.614 207.131 
       182.614 207.131 182.614 207.131 182.614 207.131 182.614 207.131 "
       style=" stroke:#000000; stroke-width:1; fill:#ffffff; fill-opacity:100%"></polygon>
      <polygon points="274.08 111.803 289.375 111.803 291.109 111.598 
       292.74 111.087 294.168 110.166 295.391 108.938 296.309 107.506 
       296.819 105.869 297.023 104.13 296.819 102.39 296.309 100.754 
       295.391 99.3213 294.168 98.0938 292.74 97.1729 291.109 96.6614 
       289.375 96.4567 274.08 96.4567 272.347 96.6614 270.715 97.1729 
       269.288 98.0938 268.064 99.3213 267.146 100.754 266.637 102.39 
       266.433 104.13 266.637 105.869 267.146 107.506 268.064 108.938 
       269.288 110.166 270.715 111.087 272.347 111.598 274.08 111.803 
       274.08 111.803 274.08 111.803 274.08 111.803 274.08 111.803 "
       style=" stroke:#000000; stroke-width:1; fill:#ffffff; fill-opacity:100%"></polygon>
      <polygon points="274.08 188.025 289.375 188.025 291.109 187.82 
       292.74 187.308 294.168 186.388 295.391 185.16 296.309 183.728 
       296.819 182.091 297.023 180.352 296.819 178.612 296.309 176.976 
       295.391 175.543 294.168 174.316 292.74 173.395 291.109 172.883 
       289.375 172.679 274.08 172.679 272.347 172.883 270.715 173.395 
       269.288 174.316 268.064 175.543 267.146 176.976 266.637 178.612 
       266.433 180.352 266.637 182.091 267.146 183.728 268.064 185.16 
       269.288 186.388 270.715 187.308 272.347 187.82 274.08 188.025 
       274.08 188.025 274.08 188.025 274.08 188.025 274.08 188.025 "
       style=" stroke:#000000; stroke-width:1; fill:#ffffff; fill-opacity:100%"></polygon>
      <polygon points="228.347 188.025 243.642 188.025 245.376 187.82 
       247.007 187.308 248.435 186.388 249.658 185.16 250.576 183.728 
       251.086 182.091 251.29 180.352 251.086 178.612 250.576 176.976 
       249.658 175.543 248.435 174.316 247.007 173.395 245.376 172.883 
       243.642 172.679 228.347 172.679 226.614 172.883 224.982 173.395 
       223.555 174.316 222.331 175.543 221.413 176.976 220.903 178.612 
       220.699 180.352 220.903 182.091 221.413 183.728 222.331 185.16 
       223.555 186.388 224.982 187.308 226.614 187.82 228.347 188.025 
       228.347 188.025 228.347 188.025 228.347 188.025 228.347 188.025 "
       style=" stroke:#000000; stroke-width:1; fill:#ffffff; fill-opacity:100%"></polygon>
      <polygon points="228.347 207.131 243.642 207.131 245.376 206.926 
       247.007 206.312 248.435 205.392 249.658 204.164 250.576 202.732 
       251.086 201.095 251.29 199.458 251.086 197.719 250.576 196.082 
       249.658 194.649 248.435 193.422 247.007 192.501 245.376 191.887 
       243.642 191.785 228.347 191.785 226.614 191.887 224.982 192.501 
       223.555 193.422 222.331 194.649 221.413 196.082 220.903 197.719 
       220.699 199.458 220.903 201.095 221.413 202.732 222.331 204.164 
       223.555 205.392 224.982 206.312 226.614 206.926 228.347 207.131 
       228.347 207.131 228.347 207.131 228.347 207.131 228.347 207.131 "
       style=" stroke:#000000; stroke-width:1; fill:#ffffff; fill-opacity:100%"></polygon>
      <polygon points="296.477 89.8251 327.067 89.8251 327.067 66.8568 
       296.477 66.8568 296.477 89.8251 296.477 89.8251 296.477 89.8251 
       296.477 89.8251 296.477 89.8251 "
       style=" stroke:#000000; stroke-width:1; fill:#ffffff; fill-opacity:100%"></polygon>
      <polyline points="296.921 104.18 312.267 104.18 312.267 90.867"
       style=" stroke:#000000; stroke-width:1;"></polyline>
      <polygon points="311.048 91.2737 312.214 88.8346 313.487 91.2737 
       311.048 91.2737 311.048 91.2737 311.048 91.2737 311.048 91.2737 311.048 91.2737 "
       style="stroke:none; fill:#000000; fill-opacity:100%"></polygon>
      <polyline points="296.921 180.402 312.267 180.402 312.267 90.867"
       style=" stroke:#000000; stroke-width:1;"></polyline>
      <polygon points="311.048 91.2737 312.214 88.8346 313.487 91.2737 
       311.048 91.2737 311.048 91.2737 311.048 91.2737 311.048 91.2737 311.048 91.2737 "
       style="stroke:none; fill:#000000; fill-opacity:100%"></polygon>
      <polyline points="251.188 180.301 264.502 180.301"
       style=" stroke:#000000; stroke-width:1;"></polyline>
      <polygon points="264.095 179.183 266.534 180.349 264.095 181.622 
       264.095 179.183 264.095 179.183 264.095 179.183 264.095 179.183 264.095 179.183 "
       style="stroke:none; fill:#000000; fill-opacity:100%"></polygon>
      <polyline points="251.188 199.509 258.833 199.333 258.833 180.222 
       264.502 180.301"
       style=" stroke:#000000; stroke-width:1;"></polyline>
      <polygon points="264.095 179.183 266.534 180.349 264.095 181.622 
       264.095 179.183 264.095 179.183 264.095 179.183 264.095 179.183 264.095 179.183 "
       style="stroke:none; fill:#000000; fill-opacity:100%"></polygon>
      <polyline points="251.188 218.513 258.869 218.513 258.869 180.301 
       264.502 180.301"
       style=" stroke:#000000; stroke-width:1;"></polyline>
      <polygon points="264.095 179.183 266.534 180.349 264.095 181.622 
       264.095 179.183 264.095 179.183 264.095 179.183 264.095 179.183 264.095 179.183 "
       style="stroke:none; fill:#000000; fill-opacity:100%"></polygon>
      <polyline points="251.188 237.62 258.869 237.62 258.869 180.301 
       264.502 180.301"
       style=" stroke:#000000; stroke-width:1;"></polyline>
      <polygon points="264.095 179.183 266.534 180.349 264.095 181.622 
       264.095 179.183 264.095 179.183 264.095 179.183 264.095 179.183 264.095 179.183 "
       style="stroke:none; fill:#000000; fill-opacity:100%"></polygon>
      <polyline points="251.188 104.079 264.502 104.079"
       style=" stroke:#000000; stroke-width:1;"></polyline>
      <polygon points="264.095 102.961 266.534 104.127 264.095 105.4 
       264.095 102.961 264.095 102.961 264.095 102.961 264.095 102.961 264.095 102.961 "
       style="stroke:none; fill:#000000; fill-opacity:100%"></polygon>
      <polyline points="205.455 104.079 218.769 104.079"
       style=" stroke:#000000; stroke-width:1;"></polyline>
      <polygon points="218.362 102.961 220.801 104.127 218.362 105.4 
       218.362 102.961 218.362 102.961 218.362 102.961 218.362 102.961 218.362 102.961 "
       style="stroke:none; fill:#000000; fill-opacity:100%"></polygon>
      <polyline points="251.188 123.287 258.833 123.333 258.833 104.222 
       264.502 104.079"
       style=" stroke:#000000; stroke-width:1;"></polyline>
      <polygon points="264.095 102.961 266.534 104.127 264.095 105.4 
       264.095 102.961 264.095 102.961 264.095 102.961 264.095 102.961 264.095 102.961 "
       style="stroke:none; fill:#000000; fill-opacity:100%"></polygon>
      <polyline points="205.455 123.185 218.769 123.185"
       style=" stroke:#000000; stroke-width:1;"></polyline>
      <polygon points="218.362 121.966 220.801 123.238 218.362 124.405 
       218.362 121.966 218.362 121.966 218.362 121.966 218.362 121.966 218.362 121.966 "
       style="stroke:none; fill:#000000; fill-opacity:100%"></polygon>
      <polyline points="251.188 161.398 258.869 161.398 258.869 104.079 
       264.502 104.079"
       style=" stroke:#000000; stroke-width:1;"></polyline>
      <polygon points="264.095 102.961 266.534 104.127 264.095 105.4 
       264.095 102.961 264.095 102.961 264.095 102.961 264.095 102.961 264.095 102.961 "
       style="stroke:none; fill:#000000; fill-opacity:100%"></polygon>
      <polyline points="205.455 161.296 218.769 161.296"
       style=" stroke:#000000; stroke-width:1;"></polyline>
      <polygon points="218.362 160.077 220.801 161.349 218.362 162.516 
       218.362 160.077 218.362 160.077 218.362 160.077 218.362 160.077 218.362 160.077 "
       style="stroke:none; fill:#000000; fill-opacity:100%"></polygon>
      <polyline points="159.722 123.185 173.035 123.185"
       style=" stroke:#000000; stroke-width:1;"></polyline>
      <polygon points="172.629 121.966 175.068 123.238 172.629 124.405 
       172.629 121.966 172.629 121.966 172.629 121.966 172.629 121.966 172.629 121.966 "
       style="stroke:none; fill:#000000; fill-opacity:100%"></polygon>
      <polyline points="159.722 142.292 167.403 142.292 167.403 123.185 
       173.035 123.185"
       style=" stroke:#000000; stroke-width:1;"></polyline>
      <polygon points="172.629 121.966 175.068 123.238 172.629 124.405 
       172.629 121.966 172.629 121.966 172.629 121.966 172.629 121.966 172.629 121.966 "
       style="stroke:none; fill:#000000; fill-opacity:100%"></polygon>
      <polyline points="113.989 142.19 127.302 142.19"
       style=" stroke:#000000; stroke-width:1;"></polyline>
      <polygon points="126.896 141.072 129.335 142.238 126.896 143.511 
       126.896 141.072 126.896 141.072 126.896 141.072 126.896 141.072 126.896 141.072 "
       style="stroke:none; fill:#000000; fill-opacity:100%"></polygon>
      <polyline points="113.989 123.185 127.302 123.185"
       style=" stroke:#000000; stroke-width:1;"></polyline>
      <polygon points="126.896 121.966 129.335 123.238 126.896 124.405 
       126.896 121.966 126.896 121.966 126.896 121.966 126.896 121.966 126.896 121.966 "
       style="stroke:none; fill:#000000; fill-opacity:100%"></polygon>
      <polyline points="205.455 218.412 218.769 218.412"
       style=" stroke:#000000; stroke-width:1;"></polyline>
      <polygon points="218.362 217.294 220.801 218.46 218.362 219.733 
       218.362 217.294 218.362 217.294 218.362 217.294 218.362 217.294 218.362 217.294 "
       style="stroke:none; fill:#000000; fill-opacity:100%"></polygon>
      <polyline points="205.455 237.62 213.136 237.62 213.136 218.412 
       218.769 218.412"
       style=" stroke:#000000; stroke-width:1;"></polyline>
      <polygon points="218.362 217.294 220.801 218.46 218.362 219.733 
       218.362 217.294 218.362 217.294 218.362 217.294 218.362 217.294 218.362 217.294 "
       style="stroke:none; fill:#000000; fill-opacity:100%"></polygon>
      <polyline points="159.722 218.412 173.035 218.412"
       style=" stroke:#000000; stroke-width:1;"></polyline>
      <polygon points="172.629 217.294 175.068 218.46 172.629 219.733 
       172.629 217.294 172.629 217.294 172.629 217.294 172.629 217.294 172.629 217.294 "
       style="stroke:none; fill:#000000; fill-opacity:100%"></polygon>
      <polyline points="159.722 237.518 173.035 237.518"
       style=" stroke:#000000; stroke-width:1;"></polyline>
      <polygon points="172.629 236.298 175.068 237.571 172.629 238.738 
       172.629 236.298 172.629 236.298 172.629 236.298 172.629 236.298 172.629 236.298 "
       style="stroke:none; fill:#000000; fill-opacity:100%"></polygon>
      <polyline points="205.455 199.407 218.769 199.407"
       style=" stroke:#000000; stroke-width:1;"></polyline>
      <polygon points="218.362 198.188 220.801 199.46 218.362 200.627 
       218.362 198.188 218.362 198.188 218.362 198.188 218.362 198.188 218.362 198.188 "
       style="stroke:none; fill:#000000; fill-opacity:100%"></polygon>
      <polyline points="205.455 180.301 218.769 180.301"
       style=" stroke:#000000; stroke-width:1;"></polyline>
      <polygon points="218.362 179.183 220.801 180.349 218.362 181.622 
       218.362 179.183 218.362 179.183 218.362 179.183 218.362 179.183 218.362 179.183 "
       style="stroke:none; fill:#000000; fill-opacity:100%"></polygon>
      <polygon points="182.614 283.353 197.909 283.353 199.643 283.148 
       201.274 282.534 202.702 281.614 203.925 280.386 204.843 278.954 
       205.353 277.317 205.557 275.68 205.353 273.941 204.843 272.304 
       203.925 270.871 202.702 269.644 201.274 268.723 199.643 268.109 
       197.909 268.007 182.614 268.007 180.88 268.109 179.249 268.723 
       177.821 269.644 176.598 270.871 175.68 272.304 175.17 273.941 
       174.966 275.68 175.17 277.317 175.68 278.954 176.598 280.386 
       177.821 281.614 179.249 282.534 180.88 283.148 182.614 283.353 
       182.614 283.353 182.614 283.353 182.614 283.353 182.614 283.353 "
       style=" stroke:#000000; stroke-width:1; fill:#ffffff; fill-opacity:100%"></polygon>
      <polyline points="296.921 256.624 312.267 256.624 312.267 90.867"
       style=" stroke:#000000; stroke-width:1;"></polyline>
      <polygon points="311.048 91.2737 312.214 88.8346 313.487 91.2737 
       311.048 91.2737 311.048 91.2737 311.048 91.2737 311.048 91.2737 311.048 91.2737 "
       style="stroke:none; fill:#000000; fill-opacity:100%"></polygon>
      <polyline points="251.188 256.523 264.502 256.523"
       style=" stroke:#000000; stroke-width:1;"></polyline>
      <polygon points="264.095 255.405 266.534 256.571 264.095 257.844 
       264.095 255.405 264.095 255.405 264.095 255.405 264.095 255.405 264.095 255.405 "
       style="stroke:none; fill:#000000; fill-opacity:100%"></polygon>
      <polyline points="251.188 275.731 258.869 275.731 258.869 256.523 
       264.502 256.523"
       style=" stroke:#000000; stroke-width:1;"></polyline>
      <polygon points="264.095 255.405 266.534 256.571 264.095 257.844 
       264.095 255.405 264.095 255.405 264.095 255.405 264.095 255.405 264.095 255.405 "
       style="stroke:none; fill:#000000; fill-opacity:100%"></polygon>
      <polyline points="205.455 275.629 218.769 275.629"
       style=" stroke:#000000; stroke-width:1;"></polyline>
      <polygon points="218.362 274.409 220.801 275.682 218.362 276.849 
       218.362 274.409 218.362 274.409 218.362 274.409 218.362 274.409 218.362 274.409 "
       style="stroke:none; fill:#000000; fill-opacity:100%"></polygon>
      <polyline points="205.455 256.523 218.769 256.523"
       style=" stroke:#000000; stroke-width:1;"></polyline>
      <polygon points="218.362 255.405 220.801 256.571 218.362 257.844 
       218.362 255.405 218.362 255.405 218.362 255.405 218.362 255.405 218.362 255.405 "
       style="stroke:none; fill:#000000; fill-opacity:100%"></polygon>
      <polyline points="159.722 199.509 167.403 199.509 167.403 180.301 
       173.035 180.301"
       style=" stroke:#000000; stroke-width:1;"></polyline>
      <polygon points="172.629 179.183 175.068 180.349 172.629 181.622 
       172.629 179.183 172.629 179.183 172.629 179.183 172.629 179.183 172.629 179.183 "
       style="stroke:none; fill:#000000; fill-opacity:100%"></polygon>
      <polyline points="159.722 180.301 173.035 180.301"
       style=" stroke:#000000; stroke-width:1;"></polyline>
      <polygon points="172.629 179.183 175.068 180.349 172.629 181.622 
       172.629 179.183 172.629 179.183 172.629 179.183 172.629 179.183 172.629 179.183 "
       style="stroke:none; fill:#000000; fill-opacity:100%"></polygon>
      <polygon points="91.1476 188.025 106.443 188.025 108.176 187.82 
       109.808 187.308 111.235 186.388 112.459 185.16 113.377 183.728 
       113.886 182.091 114.09 180.352 113.886 178.612 113.377 176.976 
       112.459 175.543 111.235 174.316 109.808 173.395 108.176 172.883 
       106.443 172.679 91.1476 172.679 89.4141 172.883 87.7826 173.395 
       86.3551 174.316 85.1315 175.543 84.2138 176.976 83.7039 178.612 
       83.5 180.352 83.7039 182.091 84.2138 183.728 85.1315 185.16 
       86.3551 186.388 87.7826 187.308 89.4141 187.82 91.1476 188.025 
       91.1476 188.025 91.1476 188.025 91.1476 188.025 91.1476 188.025 "
       style=" stroke:#000000; stroke-width:1; fill:#ffffff; fill-opacity:100%"></polygon>
      <polygon points="91.1476 207.131 106.443 207.131 108.176 206.926 
       109.808 206.312 111.235 205.392 112.459 204.164 113.377 202.732 
       113.886 201.095 114.09 199.458 113.886 197.719 113.377 196.082 
       112.459 194.649 111.235 193.422 109.808 192.501 108.176 191.887 
       106.443 191.785 91.1476 191.785 89.4141 191.887 87.7826 192.501 
       86.3551 193.422 85.1315 194.649 84.2138 196.082 83.7039 197.719 
       83.5 199.458 83.7039 201.095 84.2138 202.732 85.1315 204.164 
       86.3551 205.392 87.7826 206.312 89.4141 206.926 91.1476 207.131 
       91.1476 207.131 91.1476 207.131 91.1476 207.131 91.1476 207.131 "
       style=" stroke:#000000; stroke-width:1; fill:#ffffff; fill-opacity:100%"></polygon>
      <polyline points="113.989 199.407 127.302 199.407"
       style=" stroke:#000000; stroke-width:1;"></polyline>
      <polygon points="126.896 198.188 129.335 199.46 126.896 200.627 
       126.896 198.188 126.896 198.188 126.896 198.188 126.896 198.188 126.896 198.188 "
       style="stroke:none; fill:#000000; fill-opacity:100%"></polygon>
      <polyline points="113.989 180.301 127.302 180.301"
       style=" stroke:#000000; stroke-width:1;"></polyline>
      <polygon points="126.896 179.183 129.335 180.349 126.896 181.622 
       126.896 179.183 126.896 179.183 126.896 179.183 126.896 179.183 126.896 179.183 "
       style="stroke:none; fill:#000000; fill-opacity:100%"></polygon>
      <polygon points="85.431 123.237 85.6397 122.298 86.1616 121.672 
       86.8922 121.254 87.8316 121.254 88.5622 121.672 89.0841 122.298 
       89.2929 123.237 89.0841 124.072 88.5622 124.699 87.8316 125.116 
       86.8922 125.116 86.1616 124.699 85.6397 124.072 85.431 123.237 
       85.431 123.237 85.431 123.237 85.431 123.237 85.431 123.237 "
       style=" stroke:#000000; stroke-width:1; fill:#ff00ff; fill-opacity:100%"></polygon>
      <polygon points="85.431 199.459 85.6397 198.52 86.1616 197.894 
       86.8922 197.476 87.8316 197.476 88.5622 197.894 89.0841 198.52 
       89.2929 199.459 89.0841 200.294 88.5622 200.92 87.8316 201.338 
       86.8922 201.338 86.1616 200.92 85.6397 200.294 85.431 199.459 
       85.431 199.459 85.431 199.459 85.431 199.459 85.431 199.459 "
       style=" stroke:#000000; stroke-width:1; fill:#ff00ff; fill-opacity:100%"></polygon>
      <polygon points="176.897 180.352 177.106 179.516 177.628 178.785 
       178.359 178.471 179.298 178.471 180.029 178.785 180.551 179.516 
       180.759 180.352 180.551 181.187 180.029 181.918 179.298 182.232 
       178.359 182.232 177.628 181.918 177.106 181.187 176.897 180.352 
       176.897 180.352 176.897 180.352 176.897 180.352 176.897 180.352 "
       style=" stroke:#000000; stroke-width:1; fill:#0000ff; fill-opacity:100%"></polygon>
      <polygon points="176.897 199.459 177.106 198.52 177.628 197.894 
       178.359 197.476 179.298 197.476 180.029 197.894 180.551 198.52 
       180.759 199.459 180.551 200.294 180.029 200.92 179.298 201.338 
       178.359 201.338 177.628 200.92 177.106 200.294 176.897 199.459 
       176.897 199.459 176.897 199.459 176.897 199.459 176.897 199.459 "
       style=" stroke:#000000; stroke-width:1; fill:#ff00ff; fill-opacity:100%"></polygon>
      <polygon points="176.897 218.463 177.106 217.627 177.628 216.896 
       178.359 216.582 179.298 216.582 180.029 216.896 180.551 217.627 
       180.759 218.463 180.551 219.298 180.029 220.029 179.298 220.343 
       178.359 220.343 177.628 220.029 177.106 219.298 176.897 218.463 
       176.897 218.463 176.897 218.463 176.897 218.463 176.897 218.463 "
       style=" stroke:#000000; stroke-width:1; fill:#0000ff; fill-opacity:100%"></polygon>
      <polygon points="176.897 237.57 177.106 236.631 177.628 236.005 
       178.359 235.587 179.298 235.587 180.029 236.005 180.551 236.631 
       180.759 237.57 180.551 238.405 180.029 239.032 179.298 239.449 
       178.359 239.449 177.628 239.032 177.106 238.405 176.897 237.57 
       176.897 237.57 176.897 237.57 176.897 237.57 176.897 237.57 "
       style=" stroke:#000000; stroke-width:1; fill:#0000ff; fill-opacity:100%"></polygon>
      <polygon points="176.897 161.348 177.106 160.409 177.628 159.783 
       178.359 159.365 179.298 159.365 180.029 159.783 180.551 160.409 
       180.759 161.348 180.551 162.183 180.029 162.81 179.298 163.227 
       178.359 163.227 177.628 162.81 177.106 162.183 176.897 161.348 
       176.897 161.348 176.897 161.348 176.897 161.348 176.897 161.348 "
       style=" stroke:#000000; stroke-width:1; fill:#ff00ff; fill-opacity:100%"></polygon>
      <polygon points="176.897 123.237 177.106 122.298 177.628 121.672 
       178.359 121.254 179.298 121.254 180.029 121.672 180.551 122.298 
       180.759 123.237 180.551 124.072 180.029 124.699 179.298 125.116 
       178.359 125.116 177.628 124.699 177.106 124.072 176.897 123.237 
       176.897 123.237 176.897 123.237 176.897 123.237 176.897 123.237 "
       style=" stroke:#000000; stroke-width:1; fill:#0000ff; fill-opacity:100%"></polygon>
      <polygon points="176.897 256.574 177.106 255.738 177.628 255.007 
       178.359 254.694 179.298 254.694 180.029 255.007 180.551 255.738 
       180.759 256.574 180.551 257.409 180.029 258.14 179.298 258.454 
       178.359 258.454 177.628 258.14 177.106 257.409 176.897 256.574 
       176.897 256.574 176.897 256.574 176.897 256.574 176.897 256.574 "
       style=" stroke:#000000; stroke-width:1; fill:#ff00ff; fill-opacity:100%"></polygon>
      <polygon points="176.897 104.13 177.106 103.294 177.628 102.563 
       178.359 102.249 179.298 102.249 180.029 102.563 180.551 103.294 
       180.759 104.13 180.551 104.965 180.029 105.697 179.298 106.01 
       178.359 106.01 177.628 105.697 177.106 104.965 176.897 104.13 
       176.897 104.13 176.897 104.13 176.897 104.13 176.897 104.13 "
       style=" stroke:#000000; stroke-width:1; fill:#ff00ff; fill-opacity:100%"></polygon>
      <polygon points="85.431 142.241 85.6397 141.405 86.1616 140.674 
       86.8922 140.36 87.8316 140.36 88.5622 140.674 89.0841 141.405 
       89.2929 142.241 89.0841 143.076 88.5622 143.807 87.8316 144.121 
       86.8922 144.121 86.1616 143.807 85.6397 143.076 85.431 142.241 
       85.431 142.241 85.431 142.241 85.431 142.241 85.431 142.241 "
       style=" stroke:#000000; stroke-width:1; fill:#ff00ff; fill-opacity:100%"></polygon>
    </g>
  </symbol>
  <symbol id="oid17" xml:space="preserve" class="METIS_SYMBOL">
   <title>Open - light green top center name</title>
    <rect x="0" y="0" width="415" height="311"
     style=" stroke:#000000; stroke-width:1; fill:#c8ffc8; fill-opacity:100%"></rect>
    <g>
      <desc>METIS_TEXT_GROUP</desc>
      <text  x="11" y="20.8"
       style=" stroke:#000000; stroke-width:1; font-family:sans-serif; font-size:16; text-align:center"
       class="TAG:text">text</text>
      <rect x="11" y="5" width="399" height="69"
       style=" stroke:#000000; stroke-width:1; fill:#ffffff; fill-opacity:0%"></rect>
    </g>
  </symbol>
  <symbol id="oid1" xml:space="preserve" class="METIS_SYMBOL">
   <title>Open - light blue top center name</title>
    <rect x="0" y="0" width="415" height="311"
     style=" stroke:#000000; stroke-width:1; fill:#e1fcff; fill-opacity:100%"></rect>
    <g>
      <desc>METIS_TEXT_GROUP</desc>
      <text  x="11" y="20.8"
       style=" stroke:#000000; stroke-width:1; font-family:sans-serif; font-size:16; text-align:center"
       class="TAG:text">text</text>
      <rect x="11" y="5" width="399" height="69"
       style=" stroke:#000000; stroke-width:1; fill:#ffffff; fill-opacity:0%"></rect>
    </g>
  </symbol>
  <symbol id="oid0" xml:space="preserve" class="METIS_SYMBOL">
   <title>Open - white top center name</title>
    <rect x="0" y="0" width="415" height="311"
     style=" stroke:#000000; stroke-width:1; fill:#ffffff; fill-opacity:100%"></rect>
    <g>
      <desc>METIS_TEXT_GROUP</desc>
      <text  x="11" y="20.8"
       style=" stroke:#000000; stroke-width:1; font-family:sans-serif; font-size:16; text-align:center"
       class="TAG:text">text</text>
      <rect x="11" y="5" width="399" height="69"
       style=" stroke:#000000; stroke-width:1; fill:#ffffff; fill-opacity:0%"></rect>
    </g>
  </symbol>
 </defs>
</svg>
