<?xml version="1.0"?>
<?metis version="3.1"?>
<?metisxml version="1.0"?>
<!DOCTYPE svg  PUBLIC "-//W3C//DTD SVG August 1999//EN"
 "http://www.w3.org/Graphics/SVG/svg-19990812.dtd">

<svg width="200" height="200">
 <title>Symbol library: contract.svg</title>
 <defs>
  <symbol id="oid1" xml:space="preserve" class="METIS_SYMBOL">
   <title>Contract</title>
    <g>
      <polygon points="7.10543e-015 0 7.10543e-015 304 16.2963 320 
       880 320 880 16 863.704 0 7.10543e-015 0 
       7.10543e-015 0 7.10543e-015 0 7.10543e-015 0 7.10543e-015 0 7.10543e-015 0 "
       style=" stroke:#000000; stroke-width:1; fill:#9b9b9b; fill-opacity:100%"       class="TAG:shadow"></polygon>
      <rect x="7.10543e-015" y="0" width="240" height="304"
       style=" stroke:#000000; stroke-width:1; fill:#ffffa5; fill-opacity:100%"       class="TAG:PictureBackground"></rect>
      <rect x="240" y="0" width="624" height="304"
       style=" stroke:#000000; stroke-width:1; fill:#ffffdc; fill-opacity:100%"       class="TAG:canvas"></rect>
      <rect x="245.357" y="25.7143" width="569.522" height="231.429"
       style="stroke:none; fill:#878787; fill-opacity:0%"       class="TAG:grid"></rect>
      <g>
	<desc>METIS_TEXT_GROUP</desc>
	<text  x="256" y="15.8"
	 style=" stroke:#000000; stroke-width:1; font-family:sans-serif; font-size:16;"
	 class="TAG:text">text</text>
	<rect x="256" y="0" width="608" height="304"
	 style=" stroke:#000000; stroke-width:1; fill:#ffffff; fill-opacity:0%"></rect>
      </g>
      <polyline points="864 304 880 320"
       style=" stroke:#000000; stroke-width:1;"></polyline>
      <g>
	<polygon points="188.804 32 188.804 32 201.349 39.5 
	 207.621 47.0001 213.893 62 213.893 77.0001 207.621 92 
	 195.076 99.5 107.266 99.5 138.627 32 188.804 32 
	 188.804 32 188.804 32 188.804 32 "
	 style=" stroke:#000000; stroke-width:1; fill:#a50000; fill-opacity:100%"	 class="TAG:polygon"></polygon>
	<polyline points="100.994 62 100.994 62 213.893 62"
	 style=" stroke:#000000; stroke-width:1;"	 class="TAG:polyline"></polyline>
	<polyline points="100.994 77.0001 100.994 77.0001 213.893 77.0001"
	 style=" stroke:#000000; stroke-width:1;"	 class="TAG:polyline"></polyline>
	<polyline points="100.994 69.5 100.994 69.5 213.893 69.5"
	 style=" stroke:#000000; stroke-width:1;"	 class="TAG:polyline"></polyline>
	<polyline points="97.8578 84.5 97.8578 84.5 210.757 84.5"
	 style=" stroke:#000000; stroke-width:1;"	 class="TAG:polyline"></polyline>
	<polyline points="94.7217 92 94.7217 92 207.621 92"
	 style=" stroke:#000000; stroke-width:1;"	 class="TAG:polyline"></polyline>
	<polyline points="97.8578 54.5 97.8578 54.5 210.757 54.5"
	 style=" stroke:#000000; stroke-width:1;"	 class="TAG:polyline"></polyline>
	<polyline points="94.7217 47.0001 94.7217 47.0001 207.621 47.0001"
	 style=" stroke:#000000; stroke-width:1;"	 class="TAG:polyline"></polyline>
	<polyline points="88.4496 39.5 88.4496 39.5 201.349 39.5"
	 style=" stroke:#000000; stroke-width:1;"	 class="TAG:polyline"></polyline>
	<polygon points="50.8165 39.5 44.5443 47.0001 38.2722 62 
	 38.2722 84.5 44.5443 107 69.633 152 88.4496 197 
	 94.7217 219.5 94.7217 272 176.26 272 195.076 264.5 
	 201.349 257 207.621 241.999 207.621 219.5 201.349 197 
	 182.532 152 157.443 107 151.171 84.5 151.171 62 
	 157.443 47.0001 163.716 39.5 182.532 32 69.633 32 
	 50.8165 39.5 50.8165 39.5 50.8165 39.5 50.8165 39.5 "
	 style=" stroke:#000000; stroke-width:1; fill:#ff5050; fill-opacity:100%"	 class="TAG:polygon"></polygon>
	<polygon points="50.8165 204.5 50.8165 204.5 163.716 204.5 
	 151.171 212 144.899 227 144.899 241.999 151.171 257 
	 157.443 264.5 169.988 272 57.0887 272 44.5443 264.5 
	 38.2722 257 32 241.999 32 227 38.2722 212 
	 50.8165 204.5 50.8165 204.5 50.8165 204.5 50.8165 204.5 "
	 style=" stroke:#000000; stroke-width:1; fill:#ff8c8c; fill-opacity:100%"	 class="TAG:polygon"></polygon>
	<polyline points="38.2722 212 38.2722 212 151.171 212"
	 style=" stroke:#000000; stroke-width:1;"	 class="TAG:polyline"></polyline>
	<polyline points="32 227 32 227 144.899 227"
	 style=" stroke:#000000; stroke-width:1;"	 class="TAG:polyline"></polyline>
	<polyline points="32 241.999 32 241.999 144.899 241.999"
	 style=" stroke:#000000; stroke-width:1;"	 class="TAG:polyline"></polyline>
	<polyline points="38.2722 257 38.2722 257 151.171 257"
	 style=" stroke:#000000; stroke-width:1;"	 class="TAG:polyline"></polyline>
	<polyline points="44.5443 264.5 44.5443 264.5 157.443 264.5"
	 style=" stroke:#000000; stroke-width:1;"	 class="TAG:polyline"></polyline>
	<polyline points="35.1361 249.5 35.1361 249.5 148.035 249.5"
	 style=" stroke:#000000; stroke-width:1;"	 class="TAG:polyline"></polyline>
	<polyline points="32 234.5 32 234.5 144.899 234.5"
	 style=" stroke:#000000; stroke-width:1;"	 class="TAG:polyline"></polyline>
	<polyline points="35.1361 219.5 35.1361 219.5 148.035 219.5"
	 style=" stroke:#000000; stroke-width:1;"	 class="TAG:polyline"></polyline>
      </g>
    </g>
  </symbol>
 </defs>
</svg>
