<?xml version="1.0"?>
<?metis version="3.5"?>
<?metisxml version="1.1"?>
<!DOCTYPE svg  PUBLIC "-//W3C//DTD SVG August 1999//EN"
 "http://www.w3.org/Graphics/SVG/svg-19990812.dtd">



<!--
Troux Technologies, Inc. Confidential and Proprietary.
This work contains valuable confidential, proprietary and trade secret
information of Troux Technologies, Inc. and is protected by the laws of 
the United States and other countries. Any disclosure, use or reproduction
of this work without the prior written authorization of Troux Technologies, Inc.
is strictly prohibited.
Copyright (C) 2000-2006 Troux Technologies, Inc. All rights reserved.
-->


<svg
 width="200" height="200">
 <title>Symbol library: coordinate_value.svg</title>
 <defs>
  <symbol id="oid4" xml:space="preserve" class="METIS_SYMBOL">
   <title>Coordinate Width</title>
    <rect x="128" y="16" width="804.789" height="144"
     style=" stroke:#464646; stroke-width:1; fill:#ffffa5; fill-opacity:100%"     class="TAG:canvas"></rect>
    <g>
      <desc>METIS_TEXT_GROUP</desc>
      <text  x="144" y="53"
       style=" stroke:#000000; stroke-width:1; font-family:sans-serif; font-size:22;"
       class="TAG:text">text</text>
      <rect x="144" y="32" width="771.509" height="112"
       style=" stroke:#000000; stroke-width:1; fill:#ffffff; fill-opacity:0%"></rect>
    </g>
    <rect x="128" y="16" width="804.789" height="144"
     style=" stroke:#464646; stroke-width:1; fill:#dcdcdc; fill-opacity:100%"     class="TAG:canvas"></rect>
    <g>
      <desc>METIS_TEXT_GROUP</desc>
      <text  x="144" y="53"
       style=" stroke:#000000; stroke-width:1; font-family:sans-serif; font-size:22;"
       class="TAG:text">text</text>
      <rect x="144" y="32" width="771.509" height="112"
       style=" stroke:#000000; stroke-width:1; fill:#ffffff; fill-opacity:0%"></rect>
    </g>
    <polygon points="0 0 111.117 30.6869 111.117 153.612 
     0 176 0 0 0 0 0 0 "
     style=" stroke:#ffffff; stroke-width:1; fill:#ffffff; fill-opacity:100%"     class="TAG:IDBox"></polygon>
    <g>
      <polygon points="104.085 124.049 108.605 0.0494715 81.4836 0.0494715 
       76.9634 124.049 104.085 124.049 104.085 124.049 "
       style=" stroke:#000000; stroke-width:1; fill:#000000; fill-opacity:100%"></polygon>
      <polygon points="31.761 124.049 4.63968 124.049 0.119449 0.0494715 
       27.0764 0.0494715 31.761 124.049 31.761 124.049 "
       style=" stroke:#000000; stroke-width:1; fill:#000000; fill-opacity:100%"></polygon>
      <polygon points="76.9634 124.049 45.3217 52.0495 63.4027 52.0495 
       99.5645 124.049 76.9634 124.049 76.9634 124.049 "
       style=" stroke:#000000; stroke-width:1; fill:#000000; fill-opacity:100%"></polygon>
      <polygon points="31.761 124.049 63.4027 52.0495 45.3217 52.0495 
       9.15992 124.049 31.761 124.049 31.761 124.049 "
       style=" stroke:#000000; stroke-width:1; fill:#000000; fill-opacity:100%"></polygon>
    </g>
    <polygon points="3.98361 145.979 29.1729 127.979 29.1729 136.979 
     79.5515 136.979 79.5515 127.979 104.741 145.979 79.5515 163.979 
     79.5515 154.979 29.1729 154.979 29.1729 163.979 3.98361 145.979 3.98361 145.979 "
     style=" stroke:#464646; stroke-width:1; fill:#464646; fill-opacity:100%"></polygon>
  </symbol>
  <symbol id="oid3" xml:space="preserve" class="METIS_SYMBOL">
   <title>Coordinate Height</title>
    <rect x="128" y="16.7245" width="804.789" height="144"
     style=" stroke:#464646; stroke-width:1; fill:#ffffa5; fill-opacity:100%"     class="TAG:canvas"></rect>
    <g>
      <desc>METIS_TEXT_GROUP</desc>
      <text  x="144" y="53.7245"
       style=" stroke:#000000; stroke-width:1; font-family:sans-serif; font-size:22;"
       class="TAG:text">text</text>
      <rect x="144" y="32.7245" width="771.509" height="112"
       style=" stroke:#000000; stroke-width:1; fill:#ffffff; fill-opacity:0%"></rect>
    </g>
    <rect x="128" y="16.7245" width="804.789" height="144"
     style=" stroke:#464646; stroke-width:1; fill:#dcdcdc; fill-opacity:100%"     class="TAG:canvas"></rect>
    <g>
      <desc>METIS_TEXT_GROUP</desc>
      <text  x="144" y="53.7245"
       style=" stroke:#000000; stroke-width:1; font-family:sans-serif; font-size:22;"
       class="TAG:text">text</text>
      <rect x="144" y="32.7245" width="771.509" height="112"
       style=" stroke:#000000; stroke-width:1; fill:#ffffff; fill-opacity:0%"></rect>
    </g>
    <polygon points="0 0.724476 111.117 31.4114 111.117 154.336 
     0 176.724 0 0.724476 0 0.724476 0 0.724476 "
     style=" stroke:#ffffff; stroke-width:1; fill:#ffffff; fill-opacity:100%"     class="TAG:IDBox"></polygon>
    <g>
      <rect x="1.34262" y="0" width="21.1268" height="124"
       style=" stroke:#000000; stroke-width:1; fill:#000000; fill-opacity:100%"></rect>
      <rect x="64.7229" y="0" width="21.1268" height="124"
       style=" stroke:#000000; stroke-width:1; fill:#000000; fill-opacity:100%"></rect>
      <rect x="1.34262" y="52" width="84.507" height="20"
       style=" stroke:#000000; stroke-width:1; fill:#000000; fill-opacity:100%"></rect>
    </g>
    <polygon points="120.066 39.6722 112.066 39.6722 112.066 127.672 
     120.066 127.672 108.066 153.672 96.0664 127.672 104.066 127.672 
     104.066 39.6722 96.0664 39.6722 108.066 13.6722 120.066 39.6722 "
     style=" stroke:#464646; stroke-width:1; fill:#464646; fill-opacity:100%"></polygon>
  </symbol>
  <symbol id="oid2" xml:space="preserve" class="METIS_SYMBOL">
   <title>Coordinate Value Y</title>
    <rect x="128" y="16.059" width="804.789" height="144"
     style=" stroke:#464646; stroke-width:1; fill:#ffffa5; fill-opacity:100%"     class="TAG:canvas"></rect>
    <g>
      <desc>METIS_TEXT_GROUP</desc>
      <text  x="144" y="53.059"
       style=" stroke:#000000; stroke-width:1; font-family:sans-serif; font-size:22;"
       class="TAG:text">text</text>
      <rect x="144" y="32.059" width="771.509" height="112"
       style=" stroke:#000000; stroke-width:1; fill:#ffffff; fill-opacity:0%"></rect>
    </g>
    <rect x="128" y="16.059" width="804.789" height="144"
     style=" stroke:#464646; stroke-width:1; fill:#dcdcdc; fill-opacity:100%"     class="TAG:canvas"></rect>
    <g>
      <desc>METIS_TEXT_GROUP</desc>
      <text  x="144" y="53.059"
       style=" stroke:#000000; stroke-width:1; font-family:sans-serif; font-size:22;"
       class="TAG:text">text</text>
      <rect x="144" y="32.059" width="771.509" height="112"
       style=" stroke:#000000; stroke-width:1; fill:#ffffff; fill-opacity:0%"></rect>
    </g>
    <polygon points="0 0.0589921 111.117 30.7459 111.117 153.671 
     0 176.059 0 0.0589921 0 0.0589921 0 0.0589921 "
     style=" stroke:#ffffff; stroke-width:1; fill:#ffffff; fill-opacity:100%"     class="TAG:IDBox"></polygon>
    <ellipse  cx="114.667" cy="137.683" rx="22.7799" ry="21.9203"
     style=" stroke:#464646; stroke-width:1; fill:#464646; fill-opacity:100%"></ellipse>
    <g>
      <polygon points="58.5405 64.6754 95.7115 0 71.8571 0 
       35.9975 62.141 58.5405 64.6754 58.5405 64.6754 "
       style=" stroke:#000000; stroke-width:1; fill:#000000; fill-opacity:100%"></polygon>
      <polygon points="57.7402 73.2124 38.2652 66.1427 0.293865 0 
       24.1483 0 60.1412 62.141 57.7402 73.2124 57.7402 73.2124 "
       style=" stroke:#000000; stroke-width:1; fill:#000000; fill-opacity:100%"></polygon>
      <rect x="35.8937" y="61.9991" width="24.2104" height="62.0266"
       style=" stroke:#000000; stroke-width:1; fill:#000000; fill-opacity:100%"></rect>
    </g>
  </symbol>
  <symbol id="oid1" xml:space="preserve" class="METIS_SYMBOL">
   <title>Coordinate Value X</title>
    <rect x="128" y="16.0556" width="804.789" height="144"
     style=" stroke:#464646; stroke-width:1; fill:#ffffa5; fill-opacity:100%"     class="TAG:canvas"></rect>
    <g>
      <desc>METIS_TEXT_GROUP</desc>
      <text  x="144" y="53.0556"
       style=" stroke:#000000; stroke-width:1; font-family:sans-serif; font-size:22;"
       class="TAG:text">text</text>
      <rect x="144" y="32.0556" width="771.509" height="112"
       style=" stroke:#000000; stroke-width:1; fill:#ffffff; fill-opacity:0%"></rect>
    </g>
    <rect x="128" y="16.0556" width="804.789" height="144"
     style=" stroke:#464646; stroke-width:1; fill:#dcdcdc; fill-opacity:100%"     class="TAG:canvas"></rect>
    <g>
      <desc>METIS_TEXT_GROUP</desc>
      <text  x="144" y="53.0556"
       style=" stroke:#000000; stroke-width:1; font-family:sans-serif; font-size:22;"
       class="TAG:text">text</text>
      <rect x="144" y="32.0556" width="771.509" height="112"
       style=" stroke:#000000; stroke-width:1; fill:#ffffff; fill-opacity:0%"></rect>
    </g>
    <polygon points="0 0.0556353 111.117 30.7425 111.117 153.668 
     0 176.056 0 0.0556353 0 0.0556353 0 0.0556353 "
     style=" stroke:#ffffff; stroke-width:1; fill:#ffffff; fill-opacity:100%"     class="TAG:IDBox"></polygon>
    <g>
      <polygon points="0.308013 123.482 24.1624 123.482 95.7257 0 
       71.8712 0 0.308013 123.482 0.308013 123.482 0.308013 123.482 
       0.308013 123.482 0.308013 123.482 "
       style=" stroke:#000000; stroke-width:1; fill:#000000; fill-opacity:100%"></polygon>
      <polygon points="95.7257 123.482 71.8712 123.482 0.308013 0 
       24.1624 0 95.7257 123.482 95.7257 123.482 95.7257 123.482 
       95.7257 123.482 95.7257 123.482 "
       style=" stroke:#000000; stroke-width:1; fill:#000000; fill-opacity:100%"></polygon>
    </g>
    <ellipse  cx="114.667" cy="137.68" rx="22.7799" ry="21.9203"
     style=" stroke:#464646; stroke-width:1; fill:#464646; fill-opacity:100%"></ellipse>
  </symbol>
 </defs>
</svg>
