<?xml version="1.0"?>
<?metis version="3.0"?>
<?metisxml version="1.0"?>
<!DOCTYPE svg  PUBLIC "-//W3C//DTD SVG August 1999//EN"
 "http://www.w3.org/Graphics/SVG/svg-19990812.dtd">

<svg width="200" height="200">
 <title>Symbol library: cost.svg</title>
 <defs>
  <symbol id="oid1" xml:space="preserve" class="METIS_SYMBOL">
   <title>Incurrence</title>
    <polygon points="84 108 316 108 316 0 
     84 0 84 108 "
     style=" stroke:#000000; stroke-width:1; fill:#95f5ff; fill-opacity:100%" class="TAG:polygon"></polygon>
    <g>
      <desc>METIS_TEXT_GROUP</desc>
      <text  x="100" y="27.8"
       style=" stroke:#000000; stroke-width:1; font-family:sans-serif; font-size:16;" class="TAG:text"
>text</text>
      <rect x="100" y="12" width="208" height="88"
       style=" stroke:#000000; stroke-width:1; fill:#000000; fill-opacity:0%"></rect>
    </g>
    <ellipse  cx="40" cy="56" rx="40" ry="44"
     style=" stroke:#000000; stroke-width:1; fill:#95f5ff; fill-opacity:100%" class="TAG:polygon"></ellipse>
    <polygon points="40 20 40 20 36 34 
     40 50 44 34 40 20 "
     style=" stroke:#000000; stroke-width:1; fill:#008d9c; fill-opacity:100%" class="TAG:polygon"></polygon>
    <ellipse  cx="40" cy="56" rx="4" ry="4"
     style=" stroke:#000000; stroke-width:1; fill:#008d9c; fill-opacity:100%" class="TAG:polygon"></ellipse>
    <polygon points="44 62 50 74 60 80 
     56 68 44 62 "
     style=" stroke:#000000; stroke-width:1; fill:#008d9c; fill-opacity:100%" class="TAG:polygon"></polygon>
    <g>
      <desc>METIS_TEXT_GROUP</desc>
      <text  x="32" y="33"
       style=" stroke:#000000; stroke-width:1; font-family:sans-serif; font-size:18;"
>12</text>
      <rect x="32" y="15" width="8" height="6"
       style=" stroke:#000000; stroke-width:1; fill:#000000; fill-opacity:0%"></rect>
    </g>
    <g>
      <desc>METIS_TEXT_GROUP</desc>
      <text  x="68" y="65"
       style=" stroke:#000000; stroke-width:1; font-family:sans-serif; font-size:18;"
>3</text>
      <rect x="68" y="47" width="8" height="6"
       style=" stroke:#000000; stroke-width:1; fill:#000000; fill-opacity:0%"></rect>
    </g>
    <g>
      <desc>METIS_TEXT_GROUP</desc>
      <text  x="4" y="65"
       style=" stroke:#000000; stroke-width:1; font-family:sans-serif; font-size:18;"
>9</text>
      <rect x="4" y="47" width="8" height="6"
       style=" stroke:#000000; stroke-width:1; fill:#000000; fill-opacity:0%"></rect>
    </g>
    <g>
      <desc>METIS_TEXT_GROUP</desc>
      <text  x="36" y="99"
       style=" stroke:#000000; stroke-width:1; font-family:sans-serif; font-size:18;"
>6</text>
      <rect x="36" y="81" width="8" height="6"
       style=" stroke:#000000; stroke-width:1; fill:#000000; fill-opacity:0%"></rect>
    </g>
  </symbol>
 </defs>
</svg>
