<?xml version="1.0"?>
<?metis version="5.2"?>
<?metisxml version="1.2"?>
<!DOCTYPE svg  PUBLIC "-//W3C//DTD SVG 1.0//EN"
 "http://www.w3.org/TR/2001/REC-SVG-20010904/DTD/svg10.dtd">

<svg>
 <title>Symbol library: cpv_symbols.svg</title>
 <defs>
  <symbol id="_002asoc00vi4mrg5bbm3" xml:space="preserve" class="METIS_SYMBOL">
   <title>Arrow1</title>
    <polygon points="2.27374e-013 512 32 480 64 512 
     64 128 2.27374e-013 128 2.27374e-013 512"
     style="stroke:none; fill:#a9c800; fill-opacity:1.0"     class="TAG:canvas"></polygon>
    <polygon points="128 0 736 0 768 32 
     736 64 128 64 128 0"
     style="stroke:none; fill:#a9c800; fill-opacity:1.0"     class="TAG:canvas"></polygon>
    <path d="M 64 128 C 64 64 64 64 
     128 64 C 145.259 64 152.89 5.68434e-014 128 2.84217e-014 
     C 96 0 80 0 64 0 C 16 0 
     0 16 0 64 C 1.13687e-013 76.9445 1.13687e-013 96 
     1.13687e-013 128 Z"
     style="stroke:none; fill:#a9c800; fill-opacity:1.0"     class="TAG:canvas"></path>
    <g>
      <desc>METIS_TEXT_GROUP</desc>
      <text  x="64" y="15"
       style=" stroke:#000000; stroke-width:1; font-family:sans-serif; font-size:16; text-align:center vertical-align:middle;"
       class="TAG:text"></text>
      <rect x="64" y="0" width="664" height="64"
       style=" stroke:#000000; stroke-width:1; fill:#a9c800; fill-opacity:0.0"></rect>
    </g>
  </symbol>
  <symbol id="_002asoc010j289ufgn1u" xml:space="preserve" class="METIS_SYMBOL">
   <title>Arrow3</title>
    <polygon points="704 0 736 32 768 0 
     768 384 704 384 704 0"
     style="stroke:none; fill:#a9c800; fill-opacity:1.0"     class="TAG:canvas"></polygon>
    <polygon points="640 448 32 448 0 480 
     32 512 640 512 640 448"
     style="stroke:none; fill:#a9c800; fill-opacity:1.0"     class="TAG:canvas"></polygon>
    <path d="M 704.89 384 C 704.89 448 704.89 448 
     640.89 448 C 623.63 448 616 512 640.89 512 
     C 672.89 512 688.89 512 704.89 512 C 752.89 512 
     768.89 496 768.89 448 C 768.89 435.056 768.89 416 
     768.89 384 Z"
     style="stroke:none; fill:#a9c800; fill-opacity:1.0"     class="TAG:canvas"></path>
    <g>
      <desc>METIS_TEXT_GROUP</desc>
      <text  x="32" y="463"
       style=" stroke:#000000; stroke-width:1; font-family:sans-serif; font-size:16; text-align:center vertical-align:middle;"
       class="TAG:text"></text>
      <rect x="32" y="448" width="664" height="64"
       style=" stroke:#000000; stroke-width:1; fill:#a9c800; fill-opacity:0.0"></rect>
    </g>
  </symbol>
  <symbol id="_002asoc010maqu7a2i0t" xml:space="preserve" class="METIS_SYMBOL">
   <title>Arrow2</title>
    <polygon points="704 512 704 480 736 512 
     768 480 768 128 704 128 704 512"
     style="stroke:none; fill:#c8c866; fill-opacity:1.0"     class="TAG:canvas"></polygon>
    <polygon points="640 0 0 0 32 32 
     0 64 640 64 640 0"
     style="stroke:none; fill:#c8c866; fill-opacity:1.0"     class="TAG:canvas"></polygon>
    <path d="M 704.89 128 C 704.89 64 704.89 64 
     640.89 64 C 623.63 64 616 5.68434e-014 640.89 0 
     C 672.89 0 688.89 0 704.89 0 C 752.89 0 
     768.89 16 768.89 64 C 768.89 76.9445 768.89 96 
     768.89 128 Z"
     style="stroke:none; fill:#c8c866; fill-opacity:1.0"     class="TAG:canvas"></path>
    <g>
      <desc>METIS_TEXT_GROUP</desc>
      <text  x="32" y="15"
       style=" stroke:#000000; stroke-width:1; font-family:sans-serif; font-size:16; text-align:center vertical-align:middle;"
       class="TAG:text"></text>
      <rect x="32" y="0" width="664" height="64"
       style=" stroke:#000000; stroke-width:1; fill:#a9c800; fill-opacity:0.0"></rect>
    </g>
  </symbol>
  <symbol id="_002asoc010rmh1j670i9" xml:space="preserve" class="METIS_SYMBOL">
   <title>Arrow4</title>
    <polygon points="0 0 0 32 32 0 
     64 32 64 384 0 384 0 0"
     style="stroke:none; fill:#c8c866; fill-opacity:1.0"     class="TAG:canvas"></polygon>
    <polygon points="128 512 768 512 736 480 
     768 448 128 448 128 512"
     style="stroke:none; fill:#c8c866; fill-opacity:1.0"     class="TAG:canvas"></polygon>
    <path d="M 64 384 C 64 448 64 448 
     128 448 C 145.259 448 152.89 512 128 512 
     C 96 512 80 512 64 512 C 16 512 
     0 496 0 448 C 1.13687e-013 435.056 1.13687e-013 416 
     1.13687e-013 384 Z"
     style="stroke:none; fill:#c8c866; fill-opacity:1.0"     class="TAG:canvas"></path>
    <g>
      <desc>METIS_TEXT_GROUP</desc>
      <text  x="80" y="463"
       style=" stroke:#000000; stroke-width:1; font-family:sans-serif; font-size:16; text-align:center vertical-align:middle;"
       class="TAG:text"></text>
      <rect x="80" y="448" width="664" height="64"
       style=" stroke:#000000; stroke-width:1; fill:#a9c800; fill-opacity:0.0"></rect>
    </g>
  </symbol>
  <symbol id="_002asoc010tttrndnh21" xml:space="preserve" class="METIS_SYMBOL">
   <title>Fish</title>
    <polygon points="0 128 64 64 0 0 
     448 0 512 64 448 128 0 128"
     style="stroke:none; fill:#9999c8; fill-opacity:1.0"     class="TAG:canvas"></polygon>
    <g>
      <desc>METIS_TEXT_GROUP</desc>
      <text  x="64" y="15"
       style=" stroke:#ffffff; stroke-width:1; font-family:sans-serif; font-size:16; text-align:center vertical-align:middle;"
       class="TAG:text"></text>
      <rect x="64" y="0" width="384" height="128"
       style=" stroke:#000000; stroke-width:1; fill:#a9c800; fill-opacity:0.0"></rect>
    </g>
  </symbol>
  <symbol id="_002asoc0111prh80hc47" xml:space="preserve" class="METIS_SYMBOL">
   <title>Rectangle</title>
    <rect x="0" y="0" width="384" height="128"
     style="stroke:none; fill:#c7c7c7; fill-opacity:1.0"     class="TAG:canvas"></rect>
    <g>
      <desc>METIS_TEXT_GROUP</desc>
      <text  x="0" y="15"
       style=" stroke:#000000; stroke-width:1; font-family:sans-serif; font-size:16; text-align:center vertical-align:middle;"
       class="TAG:text"></text>
      <rect x="0" y="0" width="384" height="128"
       style=" stroke:#000000; stroke-width:1; fill:#000000; fill-opacity:1.0"></rect>
    </g>
  </symbol>
  <symbol id="_002asoc0118j99mj6or9" xml:space="preserve" class="METIS_SYMBOL">
   <title>House</title>
    <polygon points="0 128 192 0 384 128 
     384 320 0 320 0 128"
     style="stroke:none; fill:#c8c866; fill-opacity:1.0"     class="TAG:canvas"></polygon>
    <g>
      <desc>METIS_TEXT_GROUP</desc>
      <text  x="0" y="143"
       style=" stroke:#000000; stroke-width:1; font-family:sans-serif; font-size:16; text-align:center vertical-align:middle;"
       class="TAG:text"></text>
      <rect x="0" y="128" width="384" height="192"
       style=" stroke:#000000; stroke-width:1; fill:#c8c866; fill-opacity:1.0"></rect>
    </g>
  </symbol>
  <symbol id="_002asoc0165rob9md8vj" xml:space="preserve" class="METIS_SYMBOL">
   <title>Milestone</title>
    <polygon points="96 320 288 688 480 320 
     352 320 224 320 96 320"
     style="stroke:none; fill:#dc0000; fill-opacity:1.0"     class="TAG:canvas"></polygon>
    <g>
      <desc>METIS_TEXT_GROUP</desc>
      <text  x="0" y="15"
       style=" stroke:#000000; stroke-width:1; font-family:sans-serif; font-size:16; text-align:center vertical-align:middle;"
       class="TAG:text"></text>
      <rect x="0" y="0" width="544" height="320"
       style=" stroke:#000000; stroke-width:1; fill:#ffffff; fill-opacity:1.0"></rect>
    </g>
  </symbol>
 </defs>
 <use xlink:href="#_002asoc00vi4mrg5bbm3"/>
</svg>
