<?xml version="1.0"?>
<?metis version="3.0.1"?>
<?metisxml version="1.0"?>
<!DOCTYPE svg  PUBLIC "-//W3C//DTD SVG August 1999//EN"
 "http://www.w3.org/Graphics/SVG/svg-19990812.dtd">

<svg width="200" height="200">
 <title>Symbol library: csg_laser_printer.svg</title>
 <defs>
  <symbol id="oid0" xml:space="preserve" class="METIS_SYMBOL">
   <title>text</title>
    <g>
      <polygon points="1046.86 698.502 1252.11 699.127 1262.36 697.127 
       1722.11 473.38 1737.86 418.38 1752.36 412.13 1752.36 36.13 
       1611.36 36.13 1593.36 0 951.359 0 671.859 52.25 
       619.609 26.25 614.609 26.63 611.359 28.38 609.359 35.88 
       609.359 39.13 594.359 32.5 587.359 27.63 581.109 26.63 
       577.359 27.63 574.359 30.63 572.359 34.5 572.359 75.5 
       288.859 128 271.359 168 183.609 194 138.359 436.25 
       151.859 478.5 151.359 509.75 102.609 522.75 27.3586 566 
       27.3586 640.63 29.3586 652.627 35.8586 655.877 46.1086 656.377 
       269.609 656.252 269.859 738.502 1001.86 738.502 1046.86 698.502 "
       style=" stroke:#000000; stroke-width:1; fill:#a5ffa5; fill-opacity:100%"       class="TAG:polygon"></polygon>
      <polyline points="1590.36 5.69 1062.36 126.69 1049.36 167.69"
       style=" stroke:#000000; stroke-width:1;"       class="TAG:polyline"></polyline>
      <polyline points="1062.36 129.69 288.859 129.19"
       style=" stroke:#000000; stroke-width:1;"       class="TAG:polyline"></polyline>
      <polyline points="1665.36 40.69 1285.36 145.69 1187.36 139.69 
       1187.36 97.69 455.359 96.19"
       style=" stroke:#000000; stroke-width:1;"       class="TAG:polyline"></polyline>
      <polyline points="1104.36 86.69 1467.36 8.19 953.359 8.19 
       693.359 56.19"
       style=" stroke:#000000; stroke-width:1;"       class="TAG:polyline"></polyline>
      <polyline points="1148.36 76.69 1063.36 45.69 1055.36 45.69 
       1051.36 49.69 1050.86 97.19"
       style=" stroke:#000000; stroke-width:1;"       class="TAG:polyline"></polyline>
      <polyline points="1051.36 65.69 1021.36 50.69 1008.36 46.69 
       1003.36 52.69 1002.86 96.19"
       style=" stroke:#000000; stroke-width:1;"       class="TAG:polyline"></polyline>
      <polyline points="1206.36 63.69 1101.36 59.69"
       style=" stroke:#000000; stroke-width:1;"       class="TAG:polyline"></polyline>
      <polyline points="270.859 169.19 1047.36 169.69 1603.36 32.69"
       style=" stroke:#000000; stroke-width:1;"       class="TAG:polyline"></polyline>
      <polyline points="680.109 56.69 620.359 26.69 614.359 26.69 
       611.359 28.69 609.359 35.69 609.359 46.69 609.359 56.69 
       609.359 63.69"
       style=" stroke:#000000; stroke-width:1;"       class="TAG:polyline"></polyline>
      <polyline points="608.359 38.69 594.359 32.69 587.359 27.69 
       581.359 26.69 577.359 27.69 574.359 30.69 572.359 34.69 
       572.359 40.69 572.359 45.69 572.359 53.69 572.359 59.69 
       572.359 63.69 572.109 97.69"
       style=" stroke:#000000; stroke-width:1;"       class="TAG:polyline"></polyline>
      <polyline points="951.359 54.69 951.359 20.69 951.359 15.69"
       style=" stroke:#000000; stroke-width:1;"       class="TAG:polyline"></polyline>
      <polyline points="1105.36 86.69 1069.86 91.19"
       style=" stroke:#000000; stroke-width:1;"       class="TAG:polyline"></polyline>
      <polygon points="138.359 436.19 1226.36 436.19 1255.36 195.69 
       183.359 195.69 138.359 436.19 "
       style=" stroke:#000000; stroke-width:1; fill:#a5ffa5; fill-opacity:100%"       class="TAG:polygon"></polygon>
      <polyline points="211.359 247.69 211.359 247.69 371.359 247.69"
       style=" stroke:#000000; stroke-width:1;"       class="TAG:polyline"></polyline>
      <polygon points="890.359 402.69 1188.36 402.69 1211.36 223.69 
       919.359 223.69 890.359 402.69 "
       style=" stroke:#000000; stroke-width:1; fill:#a5ffa5; fill-opacity:100%"       class="TAG:polygon"></polygon>
      <polygon points="939.859 263.69 939.859 263.69 1086.86 263.69 
       1080.36 308.69 933.359 308.69 939.859 263.69 "
       style=" stroke:#000000; stroke-width:1; fill:#a5ffa5; fill-opacity:100%"       class="TAG:polygon"></polygon>
      <polyline points="900.859 341.69 900.859 341.69 1196.36 341.69"
       style=" stroke:#000000; stroke-width:1;"       class="TAG:polyline"></polyline>
      <polyline points="1154.86 223.69 1154.86 223.69 1136.86 341.69"
       style=" stroke:#000000; stroke-width:1;"       class="TAG:polyline"></polyline>
      <polyline points="1120.86 223.69 1120.86 223.69 1102.86 341.69"
       style=" stroke:#000000; stroke-width:1;"       class="TAG:polyline"></polyline>
      <polygon points="1163.36 238.69 1163.36 238.69 1158.36 272.69 
       1195.36 272.69 1200.36 238.69 1163.36 238.69 "
       style=" stroke:#000000; stroke-width:1; fill:#a5ffa5; fill-opacity:100%"       class="TAG:polygon"></polygon>
      <polygon points="1155.36 286.69 1155.36 286.69 1150.36 320.69 
       1187.36 320.69 1192.36 286.69 1155.36 286.69 "
       style=" stroke:#000000; stroke-width:1; fill:#a5ffa5; fill-opacity:100%"       class="TAG:polygon"></polygon>
      <polygon points="915.359 355.69 915.359 355.69 910.359 389.69 
       947.359 389.69 952.359 355.69 915.359 355.69 "
       style=" stroke:#000000; stroke-width:1; fill:#a5ffa5; fill-opacity:100%"       class="TAG:polygon"></polygon>
      <polygon points="968.359 355.69 968.359 355.69 963.359 389.69 
       1000.36 389.69 1005.36 355.69 968.359 355.69 "
       style=" stroke:#000000; stroke-width:1; fill:#a5ffa5; fill-opacity:100%"       class="TAG:polygon"></polygon>
      <polygon points="1023.36 354.69 1023.36 354.69 1018.36 388.69 
       1055.36 388.69 1060.36 354.69 1023.36 354.69 "
       style=" stroke:#000000; stroke-width:1; fill:#a5ffa5; fill-opacity:100%"       class="TAG:polygon"></polygon>
      <polygon points="1078.36 354.69 1078.36 354.69 1073.36 388.69 
       1110.36 388.69 1115.36 354.69 1078.36 354.69 "
       style=" stroke:#000000; stroke-width:1; fill:#a5ffa5; fill-opacity:100%"       class="TAG:polygon"></polygon>
      <polygon points="1132.36 355.69 1132.36 355.69 1127.36 389.69 
       1164.36 389.69 1169.36 355.69 1132.36 355.69 "
       style=" stroke:#000000; stroke-width:1; fill:#a5ffa5; fill-opacity:100%"       class="TAG:polygon"></polygon>
      <polyline points="135.859 435.69 135.859 435.69 151.859 477.69 
       151.484 509.56"
       style=" stroke:#000000; stroke-width:1;"       class="TAG:polyline"></polyline>
      <polyline points="1225.36 438.19 1239.36 458.19 1239.36 624.19 
       1002.48 623.31 1001.48 615.81 993.984 614.31 870.484 614.31"
       style=" stroke:#000000; stroke-width:1;"       class="TAG:polyline"></polyline>
      <polyline points="1003.36 56.19 1003.36 56.19 671.359 56.19 
       596.859 64.19"
       style=" stroke:#000000; stroke-width:1;"       class="TAG:polyline"></polyline>
      <polygon points="596.359 80.19 952.359 80.19 952.359 63.19 
       596.359 63.19 596.359 80.19 "
       style=" stroke:#000000; stroke-width:1; fill:#a5ffa5; fill-opacity:100%"       class="TAG:polygon"></polygon>
      <polyline points="950.859 62.19 1003.36 56.19"
       style=" stroke:#000000; stroke-width:1;"       class="TAG:polyline"></polyline>
      <polyline points="950.859 79.19 1003.36 74.19"
       style=" stroke:#000000; stroke-width:1;"       class="TAG:polyline"></polyline>
      <polyline points="183.359 194.19 183.359 194.19 271.359 168.19 
       288.859 128.19 569.359 76.19"
       style=" stroke:#000000; stroke-width:1;"       class="TAG:polyline"></polyline>
      <polyline points="672.859 52.19 951.859 0.19 1589.36 0.19"
       style=" stroke:#000000; stroke-width:1;"       class="TAG:polyline"></polyline>
      <polyline points="1595.36 4.19 1595.36 4.19 1611.36 36.19 
       1751.36 36.19"
       style=" stroke:#000000; stroke-width:1;"       class="TAG:polyline"></polyline>
      <polyline points="1252.36 192.19 1252.36 192.19 1752.36 36.19"
       style=" stroke:#000000; stroke-width:1;"       class="TAG:polyline"></polyline>
      <polyline points="1752.36 36.19 1752.36 36.19 1752.36 412.19 
       1255.86 622.19 1256.36 192.19"
       style=" stroke:#000000; stroke-width:1;"       class="TAG:polyline"></polyline>
      <polyline points="1256.36 280.19 1256.36 280.19 1752.36 112.19"
       style=" stroke:#000000; stroke-width:1;"       class="TAG:polyline"></polyline>
      <polyline points="1238.86 624.19 1238.86 624.19 1255.86 621.19"
       style=" stroke:#000000; stroke-width:1;"       class="TAG:polyline"></polyline>
      <polyline points="1738.36 417.19 1738.36 417.19 1722.36 473.19 
       1262.36 697.19 1251.61 699.19 1241.61 699.19 1046.98 698.565 
       1001.98 738.565 269.984 738.565 269.484 656.565"
       style=" stroke:#000000; stroke-width:1;"       class="TAG:polyline"></polyline>
      <polyline points="1648.11 456.69 1648.11 456.69 1648.11 472.19 
       1509.61 535.69 1509.61 514.19"
       style=" stroke:#000000; stroke-width:1;"       class="TAG:polyline"></polyline>
      <polyline points="27.4836 594.56 729.672 594.81 738.672 594.69 
       747.297 593.44 756.922 590.81 956.797 529.19"
       style=" stroke:#000000; stroke-width:1;"       class="TAG:polyline"></polyline>
      <polyline points="101.984 523.31 28.4836 565.56 731.797 566.44 
       744.422 564.94 755.297 560.31 795.734 535.31 851.359 509.69 
       906.359 497.69 956.359 493.69"
       style=" stroke:#000000; stroke-width:1;"       class="TAG:polyline"></polyline>
      <polyline points="956.359 484.69 904.109 490.69 861.359 499.19 
       847.359 503.19 800.859 503.19 848.359 491.19 848.359 485.19 
       852.359 479.69 858.859 477.69 901.359 475.69 912.859 482.19 
       956.359 477.69"
       style=" stroke:#000000; stroke-width:1;"       class="TAG:polyline"></polyline>
      <polyline points="848.359 486.19 848.359 503.69"
       style=" stroke:#000000; stroke-width:1;"       class="TAG:polyline"></polyline>
      <polyline points="303.734 489.31 843.359 489.69"
       style=" stroke:#000000; stroke-width:1;"       class="TAG:polyline"></polyline>
      <polyline points="755.359 498.69 604.234 498.06"
       style=" stroke:#000000; stroke-width:1;"       class="TAG:polyline"></polyline>
      <polyline points="296.234 499.06 426.359 499.69"
       style=" stroke:#000000; stroke-width:1;"       class="TAG:polyline"></polyline>
      <polyline points="584.359 608.69 717.359 608.69 717.359 639.69 
       583.359 639.69 583.359 609.69"
       style=" stroke:#000000; stroke-width:1;"       class="TAG:polyline"></polyline>
      <polyline points="303.609 486.31 319.609 486.31 228.984 503.69 
       186.359 503.69 186.359 490.56 189.859 486.06 195.859 484.31 
       236.609 484.81 262.359 487.81 303.859 481.56"
       style=" stroke:#000000; stroke-width:1;"       class="TAG:polyline"></polyline>
      <polyline points="101.484 521.56 186.234 501.31"
       style=" stroke:#000000; stroke-width:1;"       class="TAG:polyline"></polyline>
      <polyline points="941.984 590.81 951.672 590.81 954.422 590.31 
       956.422 588.81 956.609 585.81 956.984 468.81 953.922 461.44 
       945.984 459.31 279.265 459.25 274.828 460.38 272.578 463.19 
       272.14 467.75 272.171 486.44"
       style=" stroke:#000000; stroke-width:1;"       class="TAG:polyline"></polyline>
      <polyline points="187.484 503.19 187.484 503.19 304.109 486.06"
       style=" stroke:#000000; stroke-width:1;"       class="TAG:polyline"></polyline>
      <polyline points="303.984 481.94 303.921 485.31"
       style=" stroke:#000000; stroke-width:1;"       class="TAG:polyline"></polyline>
      <polyline points="818.984 522.81 818.984 522.81 102.234 522.81"
       style=" stroke:#000000; stroke-width:1;"       class="TAG:polyline"></polyline>
      <polyline points="1048.24 700.315 1048.74 626.81"
       style=" stroke:#000000; stroke-width:1;"       class="TAG:polyline"></polyline>
      <polyline points="1000.98 738.565 1002.73 620.81"
       style=" stroke:#000000; stroke-width:1;"       class="TAG:polyline"></polyline>
      <polyline points="956.547 585.94 754.672 653.44 743.172 655.94 
       730.047 656.44 49.4836 656.315 35.9836 655.815 29.4836 652.315 
       27.4836 640.56 27.4836 567.56"
       style=" stroke:#000000; stroke-width:1;"       class="TAG:polyline"></polyline>
      <polyline points="825.484 628.56 901.984 628.56 901.984 710.565 
       620.484 710.565 620.484 655.565"
       style=" stroke:#000000; stroke-width:1;"       class="TAG:polyline"></polyline>
      <polyline points="642.484 654.565 642.484 693.565 901.484 693.565"
       style=" stroke:#000000; stroke-width:1;"       class="TAG:polyline"></polyline>
      <polyline points="641.484 694.565 641.484 694.565 620.484 710.565"
       style=" stroke:#000000; stroke-width:1;"       class="TAG:polyline"></polyline>
      <polyline points="580.484 656.565 580.984 711.565 299.484 711.565 
       299.484 656.565"
       style=" stroke:#000000; stroke-width:1;"       class="TAG:polyline"></polyline>
      <polyline points="321.484 655.565 321.484 694.565 580.484 694.565"
       style=" stroke:#000000; stroke-width:1;"       class="TAG:polyline"></polyline>
      <polyline points="320.484 695.565 320.484 695.565 299.484 711.565"
       style=" stroke:#000000; stroke-width:1;"       class="TAG:polyline"></polyline>
    </g>
    <g>
      <desc>METIS_TEXT_GROUP</desc>
      <text  x="0" y="847.516"
       style=" stroke:#000000; stroke-width:1; font-family:sans-serif; font-size:18; text-align:center"
       class="TAG:text">text</text>
      <rect x="0" y="829.516" width="1784" height="248"
       style=" stroke:#000000; stroke-width:1; fill:#000000; fill-opacity:0%"></rect>
    </g>
  </symbol>
 </defs>
</svg>
