<?xml version="1.0"?>
<?metis version="3.0.1"?>
<?metisxml version="1.0"?>
<!DOCTYPE svg  PUBLIC "-//W3C//DTD SVG August 1999//EN"
 "http://www.w3.org/Graphics/SVG/svg-19990812.dtd">

<svg width="200" height="200">
 <title>Symbol library: csg_server_small.svg</title>
 <defs>
  <symbol id="oid0" xml:space="preserve" class="METIS_SYMBOL">
   <title>small server</title>
    <g>
      <polygon points="1.5 464.625 215.5 464.625 215.5 59.625 
       1.5 59.625 1.5 464.625 "
       style=" stroke:#000000; stroke-width:1; fill:#ffec35; fill-opacity:100%"       class="TAG:polygon"></polygon>
      <polyline points="153.5 59.625 153.5 59.625 153.5 464.625"
       style=" stroke:#000000; stroke-width:1;"       class="TAG:polyline"></polyline>
      <polyline points="148.5 58.625 148.5 58.625 148.5 464.625"
       style=" stroke:#000000; stroke-width:1;"       class="TAG:polyline"></polyline>
      <polyline points="134.5 59.625 134.5 59.625 134.5 464.625"
       style=" stroke:#000000; stroke-width:1;"       class="TAG:polyline"></polyline>
      <polyline points="1.5 266.625 1.5 266.625 133.5 266.625"
       style=" stroke:#000000; stroke-width:1;"       class="TAG:polyline"></polyline>
      <polyline points="1.5 267.625 1.5 267.625 133.5 267.625"
       style=" stroke:#000000; stroke-width:1;"       class="TAG:polyline"></polyline>
      <polyline points="2.5 268.625 2.5 268.625 134.5 268.625"
       style=" stroke:#000000; stroke-width:1;"       class="TAG:polyline"></polyline>
      <polyline points="1.5 272.625 1.5 272.625 133.5 272.625"
       style=" stroke:#000000; stroke-width:1;"       class="TAG:polyline"></polyline>
      <polyline points="1.5 273.625 1.5 273.625 133.5 273.625"
       style=" stroke:#000000; stroke-width:1;"       class="TAG:polyline"></polyline>
      <polyline points="2.5 274.625 2.5 274.625 134.5 274.625"
       style=" stroke:#000000; stroke-width:1;"       class="TAG:polyline"></polyline>
      <polyline points="1.75 278.625 1.75 278.625 133.75 278.625"
       style=" stroke:#000000; stroke-width:1;"       class="TAG:polyline"></polyline>
      <polyline points="1.75 279.625 1.75 279.625 133.75 279.625"
       style=" stroke:#000000; stroke-width:1;"       class="TAG:polyline"></polyline>
      <polyline points="1.5 280.625 1.5 280.625 133.5 280.625"
       style=" stroke:#000000; stroke-width:1;"       class="TAG:polyline"></polyline>
      <polyline points="1.75 285.125 1.75 285.125 133.75 285.125"
       style=" stroke:#000000; stroke-width:1;"       class="TAG:polyline"></polyline>
      <polyline points="1.75 286.125 1.75 286.125 133.75 286.125"
       style=" stroke:#000000; stroke-width:1;"       class="TAG:polyline"></polyline>
      <polyline points="1.5 287.125 1.5 287.125 133.5 287.125"
       style=" stroke:#000000; stroke-width:1;"       class="TAG:polyline"></polyline>
      <polyline points="1.75 291.625 1.75 291.625 133.75 291.625"
       style=" stroke:#000000; stroke-width:1;"       class="TAG:polyline"></polyline>
      <polyline points="1.75 292.625 1.75 292.625 133.75 292.625"
       style=" stroke:#000000; stroke-width:1;"       class="TAG:polyline"></polyline>
      <polyline points="1.5 293.625 1.5 293.625 133.5 293.625"
       style=" stroke:#000000; stroke-width:1;"       class="TAG:polyline"></polyline>
      <polyline points="2 297.625 2 297.625 134 297.625"
       style=" stroke:#000000; stroke-width:1;"       class="TAG:polyline"></polyline>
      <polyline points="2 298.625 2 298.625 134 298.625"
       style=" stroke:#000000; stroke-width:1;"       class="TAG:polyline"></polyline>
      <polyline points="1.5 299.625 1.5 299.625 133.5 299.625"
       style=" stroke:#000000; stroke-width:1;"       class="TAG:polyline"></polyline>
      <polyline points="1.75 302.875 1.75 302.875 133.75 302.875"
       style=" stroke:#000000; stroke-width:1;"       class="TAG:polyline"></polyline>
      <polyline points="1.75 303.875 1.75 303.875 133.75 303.875"
       style=" stroke:#000000; stroke-width:1;"       class="TAG:polyline"></polyline>
      <polyline points="2.25 304.875 2.25 304.875 134.25 304.875"
       style=" stroke:#000000; stroke-width:1;"       class="TAG:polyline"></polyline>
      <polyline points="2 308.625 2 308.625 134 308.625"
       style=" stroke:#000000; stroke-width:1;"       class="TAG:polyline"></polyline>
      <polyline points="2 309.625 2 309.625 134 309.625"
       style=" stroke:#000000; stroke-width:1;"       class="TAG:polyline"></polyline>
      <polyline points="1.5 310.625 1.5 310.625 133.5 310.625"
       style=" stroke:#000000; stroke-width:1;"       class="TAG:polyline"></polyline>
      <polyline points="1.5 314.125 1.5 314.125 133.5 314.125"
       style=" stroke:#000000; stroke-width:1;"       class="TAG:polyline"></polyline>
      <polyline points="1.5 315.125 1.5 315.125 133.5 315.125"
       style=" stroke:#000000; stroke-width:1;"       class="TAG:polyline"></polyline>
      <polyline points="2.5 316.125 2.5 316.125 134.5 316.125"
       style=" stroke:#000000; stroke-width:1;"       class="TAG:polyline"></polyline>
      <polyline points="2 319.875 2 319.875 134 319.875"
       style=" stroke:#000000; stroke-width:1;"       class="TAG:polyline"></polyline>
      <polyline points="2 320.875 2 320.875 134 320.875"
       style=" stroke:#000000; stroke-width:1;"       class="TAG:polyline"></polyline>
      <polyline points="2.25 321.875 2.25 321.875 134.25 321.875"
       style=" stroke:#000000; stroke-width:1;"       class="TAG:polyline"></polyline>
      <polyline points="1.5 326.125 1.5 326.125 133.5 326.125"
       style=" stroke:#000000; stroke-width:1;"       class="TAG:polyline"></polyline>
      <polyline points="1.5 327.125 1.5 327.125 133.5 327.125"
       style=" stroke:#000000; stroke-width:1;"       class="TAG:polyline"></polyline>
      <polyline points="2.5 328.125 2.5 328.125 134.5 328.125"
       style=" stroke:#000000; stroke-width:1;"       class="TAG:polyline"></polyline>
      <polyline points="1.5 331.875 1.5 331.875 133.5 331.875"
       style=" stroke:#000000; stroke-width:1;"       class="TAG:polyline"></polyline>
      <polyline points="1.5 332.875 1.5 332.875 133.5 332.875"
       style=" stroke:#000000; stroke-width:1;"       class="TAG:polyline"></polyline>
      <polyline points="2.5 333.875 2.5 333.875 134.5 333.875"
       style=" stroke:#000000; stroke-width:1;"       class="TAG:polyline"></polyline>
      <polyline points="2 337.375 2 337.375 134 337.375"
       style=" stroke:#000000; stroke-width:1;"       class="TAG:polyline"></polyline>
      <polyline points="2 338.375 2 338.375 134 338.375"
       style=" stroke:#000000; stroke-width:1;"       class="TAG:polyline"></polyline>
      <polyline points="2.25 339.375 2.25 339.375 134.25 339.375"
       style=" stroke:#000000; stroke-width:1;"       class="TAG:polyline"></polyline>
      <polyline points="1.75 343.375 1.75 343.375 133.75 343.375"
       style=" stroke:#000000; stroke-width:1;"       class="TAG:polyline"></polyline>
      <polyline points="1.75 344.375 1.75 344.375 133.75 344.375"
       style=" stroke:#000000; stroke-width:1;"       class="TAG:polyline"></polyline>
      <polyline points="2.75 345.375 2.75 345.375 134.75 345.375"
       style=" stroke:#000000; stroke-width:1;"       class="TAG:polyline"></polyline>
      <polyline points="1.75 349.125 1.75 349.125 133.75 349.125"
       style=" stroke:#000000; stroke-width:1;"       class="TAG:polyline"></polyline>
      <polyline points="1.75 350.125 1.75 350.125 133.75 350.125"
       style=" stroke:#000000; stroke-width:1;"       class="TAG:polyline"></polyline>
      <polyline points="2.75 351.125 2.75 351.125 134.75 351.125"
       style=" stroke:#000000; stroke-width:1;"       class="TAG:polyline"></polyline>
      <polyline points="1.75 354.625 1.75 354.625 133.75 354.625"
       style=" stroke:#000000; stroke-width:1;"       class="TAG:polyline"></polyline>
      <polyline points="1.75 355.625 1.75 355.625 133.75 355.625"
       style=" stroke:#000000; stroke-width:1;"       class="TAG:polyline"></polyline>
      <polyline points="2.75 356.625 2.75 356.625 134.75 356.625"
       style=" stroke:#000000; stroke-width:1;"       class="TAG:polyline"></polyline>
      <polyline points="1.75 359.875 1.75 359.875 133.75 359.875"
       style=" stroke:#000000; stroke-width:1;"       class="TAG:polyline"></polyline>
      <polyline points="1.75 360.875 1.75 360.875 133.75 360.875"
       style=" stroke:#000000; stroke-width:1;"       class="TAG:polyline"></polyline>
      <polyline points="2.75 361.875 2.75 361.875 134.75 361.875"
       style=" stroke:#000000; stroke-width:1;"       class="TAG:polyline"></polyline>
      <polyline points="1.75 365.625 1.75 365.625 133.75 365.625"
       style=" stroke:#000000; stroke-width:1;"       class="TAG:polyline"></polyline>
      <polyline points="1.75 366.625 1.75 366.625 133.75 366.625"
       style=" stroke:#000000; stroke-width:1;"       class="TAG:polyline"></polyline>
      <polyline points="2.75 367.625 2.75 367.625 134.75 367.625"
       style=" stroke:#000000; stroke-width:1;"       class="TAG:polyline"></polyline>
      <polyline points="1.75 370.875 1.75 370.875 133.75 370.875"
       style=" stroke:#000000; stroke-width:1;"       class="TAG:polyline"></polyline>
      <polyline points="1.75 371.875 1.75 371.875 133.75 371.875"
       style=" stroke:#000000; stroke-width:1;"       class="TAG:polyline"></polyline>
      <polyline points="2.75 372.875 2.75 372.875 134.75 372.875"
       style=" stroke:#000000; stroke-width:1;"       class="TAG:polyline"></polyline>
      <polyline points="1.75 376.875 1.75 376.875 133.75 376.875"
       style=" stroke:#000000; stroke-width:1;"       class="TAG:polyline"></polyline>
      <polyline points="1.75 377.875 1.75 377.875 133.75 377.875"
       style=" stroke:#000000; stroke-width:1;"       class="TAG:polyline"></polyline>
      <polyline points="2.75 378.875 2.75 378.875 134.75 378.875"
       style=" stroke:#000000; stroke-width:1;"       class="TAG:polyline"></polyline>
      <polyline points="1.75 381.875 1.75 381.875 133.75 381.875"
       style=" stroke:#000000; stroke-width:1;"       class="TAG:polyline"></polyline>
      <polyline points="1.75 382.875 1.75 382.875 133.75 382.875"
       style=" stroke:#000000; stroke-width:1;"       class="TAG:polyline"></polyline>
      <polyline points="2.75 383.875 2.75 383.875 134.75 383.875"
       style=" stroke:#000000; stroke-width:1;"       class="TAG:polyline"></polyline>
      <polyline points="1.75 387.875 1.75 387.875 133.75 387.875"
       style=" stroke:#000000; stroke-width:1;"       class="TAG:polyline"></polyline>
      <polyline points="1.75 388.875 1.75 388.875 133.75 388.875"
       style=" stroke:#000000; stroke-width:1;"       class="TAG:polyline"></polyline>
      <polyline points="2.75 389.875 2.75 389.875 134.75 389.875"
       style=" stroke:#000000; stroke-width:1;"       class="TAG:polyline"></polyline>
      <polyline points="1.75 394.125 1.75 394.125 133.75 394.125"
       style=" stroke:#000000; stroke-width:1;"       class="TAG:polyline"></polyline>
      <polyline points="1.75 395.125 1.75 395.125 133.75 395.125"
       style=" stroke:#000000; stroke-width:1;"       class="TAG:polyline"></polyline>
      <polyline points="2.75 396.125 2.75 396.125 134.75 396.125"
       style=" stroke:#000000; stroke-width:1;"       class="TAG:polyline"></polyline>
      <polyline points="1.75 399.875 1.75 399.875 133.75 399.875"
       style=" stroke:#000000; stroke-width:1;"       class="TAG:polyline"></polyline>
      <polyline points="1.75 400.875 1.75 400.875 133.75 400.875"
       style=" stroke:#000000; stroke-width:1;"       class="TAG:polyline"></polyline>
      <polyline points="2.75 401.875 2.75 401.875 134.75 401.875"
       style=" stroke:#000000; stroke-width:1;"       class="TAG:polyline"></polyline>
      <polyline points="1.75 405.875 1.75 405.875 133.75 405.875"
       style=" stroke:#000000; stroke-width:1;"       class="TAG:polyline"></polyline>
      <polyline points="1.75 406.875 1.75 406.875 133.75 406.875"
       style=" stroke:#000000; stroke-width:1;"       class="TAG:polyline"></polyline>
      <polyline points="2.75 407.875 2.75 407.875 134.75 407.875"
       style=" stroke:#000000; stroke-width:1;"       class="TAG:polyline"></polyline>
      <polyline points="1.75 411.875 1.75 411.875 133.75 411.875"
       style=" stroke:#000000; stroke-width:1;"       class="TAG:polyline"></polyline>
      <polyline points="1.75 412.875 1.75 412.875 133.75 412.875"
       style=" stroke:#000000; stroke-width:1;"       class="TAG:polyline"></polyline>
      <polyline points="2.75 413.875 2.75 413.875 134.75 413.875"
       style=" stroke:#000000; stroke-width:1;"       class="TAG:polyline"></polyline>
      <polyline points="1.75 417.875 1.75 417.875 133.75 417.875"
       style=" stroke:#000000; stroke-width:1;"       class="TAG:polyline"></polyline>
      <polyline points="1.75 418.875 1.75 418.875 133.75 418.875"
       style=" stroke:#000000; stroke-width:1;"       class="TAG:polyline"></polyline>
      <polyline points="2.75 419.875 2.75 419.875 134.75 419.875"
       style=" stroke:#000000; stroke-width:1;"       class="TAG:polyline"></polyline>
      <polyline points="1.75 423.125 1.75 423.125 133.75 423.125"
       style=" stroke:#000000; stroke-width:1;"       class="TAG:polyline"></polyline>
      <polyline points="1.75 424.125 1.75 424.125 133.75 424.125"
       style=" stroke:#000000; stroke-width:1;"       class="TAG:polyline"></polyline>
      <polyline points="2.75 425.125 2.75 425.125 134.75 425.125"
       style=" stroke:#000000; stroke-width:1;"       class="TAG:polyline"></polyline>
      <polyline points="1.75 429.125 1.75 429.125 133.75 429.125"
       style=" stroke:#000000; stroke-width:1;"       class="TAG:polyline"></polyline>
      <polyline points="1.75 430.125 1.75 430.125 133.75 430.125"
       style=" stroke:#000000; stroke-width:1;"       class="TAG:polyline"></polyline>
      <polyline points="2.75 431.125 2.75 431.125 134.75 431.125"
       style=" stroke:#000000; stroke-width:1;"       class="TAG:polyline"></polyline>
      <polyline points="1.75 434.875 1.75 434.875 133.75 434.875"
       style=" stroke:#000000; stroke-width:1;"       class="TAG:polyline"></polyline>
      <polyline points="1.75 435.875 1.75 435.875 133.75 435.875"
       style=" stroke:#000000; stroke-width:1;"       class="TAG:polyline"></polyline>
      <polyline points="2.75 436.875 2.75 436.875 134.75 436.875"
       style=" stroke:#000000; stroke-width:1;"       class="TAG:polyline"></polyline>
      <polyline points="1.75 440.875 1.75 440.875 133.75 440.875"
       style=" stroke:#000000; stroke-width:1;"       class="TAG:polyline"></polyline>
      <polyline points="1.75 441.875 1.75 441.875 133.75 441.875"
       style=" stroke:#000000; stroke-width:1;"       class="TAG:polyline"></polyline>
      <polyline points="2.75 442.875 2.75 442.875 134.75 442.875"
       style=" stroke:#000000; stroke-width:1;"       class="TAG:polyline"></polyline>
      <polyline points="1.75 446.625 1.75 446.625 133.75 446.625"
       style=" stroke:#000000; stroke-width:1;"       class="TAG:polyline"></polyline>
      <polyline points="1.75 447.625 1.75 447.625 133.75 447.625"
       style=" stroke:#000000; stroke-width:1;"       class="TAG:polyline"></polyline>
      <polyline points="2.75 448.625 2.75 448.625 134.75 448.625"
       style=" stroke:#000000; stroke-width:1;"       class="TAG:polyline"></polyline>
      <polyline points="1.75 452.625 1.75 452.625 133.75 452.625"
       style=" stroke:#000000; stroke-width:1;"       class="TAG:polyline"></polyline>
      <polyline points="1.75 453.625 1.75 453.625 133.75 453.625"
       style=" stroke:#000000; stroke-width:1;"       class="TAG:polyline"></polyline>
      <polyline points="2.75 454.625 2.75 454.625 134.75 454.625"
       style=" stroke:#000000; stroke-width:1;"       class="TAG:polyline"></polyline>
      <polyline points="1.75 458.375 1.75 458.375 133.75 458.375"
       style=" stroke:#000000; stroke-width:1;"       class="TAG:polyline"></polyline>
      <polyline points="1.75 459.375 1.75 459.375 133.75 459.375"
       style=" stroke:#000000; stroke-width:1;"       class="TAG:polyline"></polyline>
      <polyline points="2.75 460.375 2.75 460.375 134.75 460.375"
       style=" stroke:#000000; stroke-width:1;"       class="TAG:polyline"></polyline>
      <polygon points="168 274.375 167.957 272.809 167.83 271.269 
       167.619 269.783 167.33 268.375 166.967 267.07 166.536 265.89 
       166.044 264.855 165.5 263.983 164.913 263.288 164.294 262.784 
       163.653 262.478 163 262.375 162.347 262.478 161.706 262.784 
       161.087 263.288 160.5 263.983 159.956 264.855 159.464 265.89 
       159.033 267.07 158.67 268.375 158.381 269.783 158.17 271.269 
       158.043 272.809 158 274.375 158.043 275.941 158.17 277.481 
       158.381 278.967 158.67 280.375 159.033 281.68 159.464 282.86 
       159.956 283.895 160.5 284.767 161.087 285.462 161.706 285.966 
       162.347 286.272 163 286.375 163.653 286.272 164.294 285.966 
       164.913 285.462 165.5 284.767 166.044 283.895 166.536 282.86 
       166.967 281.68 167.33 280.375 167.619 278.967 167.83 277.481 
       167.957 275.941 168 274.375 "
       style=" stroke:#000000; stroke-width:1; fill:#ffffff; fill-opacity:100%"       class="TAG:polygon"></polygon>
      <polygon points="12 102.375 65 102.375 65 85.375 
       12 85.375 12 102.375 "
       style=" stroke:#000000; stroke-width:1; fill:#ffffff; fill-opacity:100%"       class="TAG:polygon"></polygon>
      <polyline points="29 85.375 29 85.375 29 102.375"
       style=" stroke:#000000; stroke-width:1;"       class="TAG:polyline"></polyline>
      <polyline points="44 85.375 44 85.375 44 102.375"
       style=" stroke:#000000; stroke-width:1;"       class="TAG:polyline"></polyline>
      <polygon points="0 60 0 60 214 60 
       355 0 208 0 0 60 "
       style=" stroke:#000000; stroke-width:1; fill:#c2b000; fill-opacity:100%"       class="TAG:polygon"></polygon>
      <polygon points="214 60 214 60 214 464 
       355 369 355 0 214 60 "
       style=" stroke:#000000; stroke-width:1; fill:#c2b000; fill-opacity:100%"       class="TAG:polygon"></polygon>
      <g>
	<desc>METIS_TEXT_GROUP</desc>
	<text  x="0" y="492"
	 style=" stroke:#000000; stroke-width:1; font-family:sans-serif; font-size:18; text-align:center"
	 class="TAG:text">text</text>
	<rect x="0" y="474" width="359" height="117.903"
	 style=" stroke:#000000; stroke-width:1; fill:#000000; fill-opacity:0%"></rect>
      </g>
    </g>
  </symbol>
 </defs>
</svg>
