<?xml version="1.0"?>
<?metis version="5.2.2"?>
<?metisxml version="1.2"?>
<!DOCTYPE svg  PUBLIC "-//W3C//DTD SVG 1.0//EN"
 "http://www.w3.org/TR/2001/REC-SVG-20010904/DTD/svg10.dtd">

<svg>
 <title>Symbol library: curesymbol.svg</title>
 <defs>
  <symbol id="_002asrv01f58d8emo9te" xml:space="preserve" class="METIS_SYMBOL">
   <title>Untitled1</title>
  </symbol>
  <symbol id="_002asrv01f58d8qhroqa" xml:space="preserve" class="METIS_SYMBOL">
   <title>CURE Symbol</title>
    <path d="M 11.52 0 C 5.76 0 0 4.8 
     0 9.6 C 0 9.6 0 182.4 0 182.4 
     C 0 187.2 5.76 192 11.52 192 C 11.52 192 
     564.48 192 564.48 192 C 570.24 192 576 187.2 
     576 182.4 C 576 182.4 576 9.6 576 9.6 
     C 576 4.8 570.24 0 564.48 0 Z"
     style=" stroke:#000000; stroke-width:2; fill:#000000; fill-opacity:1.0"     class="TAG:canvas"></path>
    <path d="M 17.7778 8 C 12.8889 8 8 12.8889 
     8 17.7778 C 8 17.7778 8 174.222 8 174.222 
     C 8 179.111 12.8889 184 17.7778 184 C 17.7778 184 
     174.222 184 174.222 184 C 179.111 184 184 179.111 
     184 174.222 C 184 174.222 184 17.7778 184 17.7778 
     C 184 12.8889 179.111 8 174.222 8 Z"
     style="stroke:none; fill:#ffffff; fill-opacity:1.0"     class="TAG:iconbackground"></path>
    <path d="M 204.966 8 C 198.483 8 192 12.8889 
     192 17.7778 C 192 17.7778 192 174.222 192 174.222 
     C 192 179.111 198.483 184 204.966 184 C 204.966 184 
     555.034 184 555.034 184 C 561.517 184 568 179.111 
     568 174.222 C 568 174.222 568 17.7778 568 17.7778 
     C 568 12.8889 561.517 8 555.034 8 Z"
     style="stroke:none; fill:#ffffff; fill-opacity:1.0"     class="TAG:textbackground"></path>
    <g>
      <desc>METIS_TEXT_GROUP</desc>
      <text  x="200" y="31"
       style=" stroke:#000000; stroke-width:1; font-family:sans-serif; font-size:16;"
       class="TAG:text"></text>
      <rect x="200" y="16" width="360" height="160"
       style=" stroke:#000000; stroke-width:1; fill:#ffffff; fill-opacity:0.0"></rect>
    </g>
    <g>
      <desc>METIS_TEXT_GROUP</desc>
      <text  x="200" y="149"
       style=" stroke:#000000; stroke-width:1; font-family:sans-serif; font-size:14;"
       class="TAG:extratext"></text>
      <rect x="200" y="136" width="360" height="48"
       style=" stroke:#000000; stroke-width:1; fill:#ffffff; fill-opacity:0.0"></rect>
    </g>
    <g>
      <polygon points="14.6945 169.557 14.6945 159.598 14.6945 149.689 
       14.6945 140.022 14.6945 130.064 14.6945 120.154 14.6945 110.44 
       14.6945 100.53 14.6945 90.6201 14.6945 80.7108 14.6945 70.9967 
       14.6945 61.0866 14.6945 51.1764 14.6945 41.4624 14.6945 31.5526 
       14.6945 21.6429 14.6945 11.9284 24.6039 11.9284 34.2695 11.9284 
       44.2281 11.9284 54.1383 11.9284 63.8524 11.9284 73.7618 11.9284 
       83.6719 11.9284 93.5821 11.9284 103.296 11.9284 113.206 11.9284 
       123.116 11.9284 133.074 11.9284 142.74 11.9284 152.649 11.9284 
       162.608 11.9284 172.518 11.9284 172.518 21.6429 172.518 31.5526 
       172.518 41.4624 172.518 51.1764 172.518 61.0866 172.518 70.9967 
       172.518 80.7108 172.518 90.6201 172.518 100.53 172.518 110.44 
       172.518 120.154 172.518 130.064 172.518 140.022 172.518 149.689 
       172.518 159.598 172.518 169.557 162.608 169.557 152.649 169.557 
       142.74 169.557 133.074 169.557 123.116 169.557 113.206 169.557 
       103.296 169.557 93.5821 169.557 83.6719 169.557 73.7618 169.557 
       63.8524 169.557 54.1383 169.557 44.2281 169.557 34.2695 169.557 
       24.6039 169.557 14.6945 169.557"
       style="stroke:none; fill:#ffffff; fill-opacity:1.0"></polygon>
      <polygon points="36.9246 165.653 35.1652 165.653 33.6506 165.457 
       31.0601 165.017 28.7143 164.138 26.5147 163.062 24.6091 161.793 
       23.0945 160.277 21.7746 158.518 20.6994 156.612 19.8198 154.658 
       19.1848 152.507 18.9894 150.357 18.7446 147.963 18.7446 145.569 
       19.1848 143.224 19.6243 140.829 20.2592 138.483 21.1397 136.089 
       22.4588 134.379 23.9734 132.62 25.2448 131.788 26.5147 130.91 
       27.8346 130.274 29.35 129.834 30.6199 129.394 32.3792 128.955 
       33.8946 128.76 35.41 128.515 38.6347 128.76 41.6655 129.15 
       43.1801 129.59 44.6947 130.029 45.9661 130.665 47.4807 131.349 
       49.1908 133.06 50.7062 135.21 51.3904 136.333 52.0261 137.408 
       52.4171 138.679 52.661 139.754 50.5107 140.389 47.9209 141.074 
       45.5259 141.513 43.1801 141.709 42.4959 140.633 42.1049 139.754 
       41.2252 138.874 40.5895 138.239 39.9061 137.799 39.0749 137.408 
       38.1952 137.164 37.3156 136.969 36.4844 136.969 35.6055 137.164 
       34.725 137.408 33.8946 137.799 33.0149 138.239 32.3792 138.874 
       31.5003 139.754 30.8646 140.633 30.2289 143.615 29.7894 146.644 
       29.7894 148.159 29.7894 149.674 29.9849 151.188 30.4244 152.507 
       30.8646 153.779 31.5003 154.853 32.3792 155.733 33.4551 156.368 
       34.5295 156.808 36.0449 157.248 37.7558 157.052 39.4659 156.808 
       40.3456 156.173 40.9805 155.538 41.6655 154.853 42.1049 154.218 
       42.9353 152.507 43.6203 150.553 47.0405 151.433 49.1908 152.068 
       50.9502 152.703 53.296 153.339 52.4171 155.733 51.3904 157.883 
       50.2667 159.838 48.7514 161.548 47.0405 162.867 45.3304 163.943 
       42.9353 164.773 40.5895 165.457 38.6347 165.457 36.9246 165.653"
       style="stroke:none; fill:#29176e; fill-opacity:1.0"></polygon>
      <polygon points="69.6597 129.15 69.6597 134.818 69.6597 140.388 
       69.6597 146.008 69.8552 151.629 69.8552 152.507 70.0999 153.583 
       70.5401 154.462 70.9796 155.098 71.6145 155.733 72.2502 156.173 
       73.1299 156.612 73.7648 157.052 74.6453 157.248 75.4757 157.248 
       76.5509 157.248 77.4305 157.052 78.2609 156.808 79.1414 156.368 
       80.0203 155.977 80.656 155.293 81.5357 153.339 81.9751 151.629 
       81.9751 146.008 81.9751 140.388 81.9751 134.818 81.9751 129.15 
       84.5657 129.15 87.3517 129.15 89.9415 129.15 92.7267 129.15 
       92.7267 134.573 92.7267 139.997 92.7267 145.374 92.9715 150.748 
       92.7267 152.703 92.3358 154.462 91.8963 156.173 91.2614 157.688 
       90.3809 159.203 89.502 160.473 88.2306 161.793 86.716 163.063 
       85.4453 163.698 83.93 164.382 82.4154 164.773 80.9007 165.213 
       77.626 165.653 74.205 165.653 72.6904 165.653 70.9796 165.213 
       69.4642 165.017 67.9496 164.382 66.435 163.943 65.1151 163.063 
       63.5997 162.232 62.5253 161.353 61.6448 160.034 60.8144 158.762 
       60.375 157.443 59.9348 156.368 59.299 153.779 58.6641 150.748 
       58.6641 145.374 58.6641 139.997 58.6641 134.573 58.6641 129.15 
       61.4494 129.15 64.0399 129.15 66.8259 129.15 69.6597 129.15"
       style="stroke:none; fill:#29176e; fill-opacity:1.0"></polygon>
      <polygon points="100.536 129.15 100.536 133.694 100.536 138.238 
       100.536 142.539 100.536 147.084 100.536 151.629 100.536 155.978 
       100.536 160.474 100.536 165.019 100.536 163.504 100.243 159.399 
       100.243 153.78 100.243 147.084 100.243 140.633 100.243 134.818 
       100.536 130.664 100.536 129.15"
       style="stroke:none; fill:#6874a9; fill-opacity:1.0"></polygon>
      <polygon points="100.486 165.019 100.486 160.474 100.486 155.978 
       100.486 151.629 100.486 147.084 100.486 142.539 100.486 138.239 
       100.486 133.694 100.486 129.15 106.937 129.15 113.437 128.954 
       116.858 128.954 120.084 129.15 123.357 129.589 126.388 130.029 
       128.098 130.909 129.417 131.788 130.493 133.059 131.323 134.378 
       131.958 135.649 132.448 137.164 132.448 138.483 132.448 139.998 
       132.203 141.513 131.567 142.979 130.884 144.298 130.053 145.57 
       128.978 146.644 127.658 147.768 126.143 148.599 124.433 149.284 
       125.703 149.919 127.903 151.434 130.053 154.658 131.763 158.08 
       133.474 161.549 135.233 164.775 132.203 164.775 129.173 164.775 
       126.143 164.775 123.113 164.775 121.207 161.549 119.252 158.324 
       117.542 155.099 115.588 151.825 114.512 151.189 113.633 150.749 
       112.558 150.749 111.482 150.554 111.482 154.219 111.287 157.689 
       111.287 161.354 111.287 165.019 108.453 165.019 105.863 165.019 
       103.077 165.019 100.486 165.019"
       style="stroke:none; fill:#29176e; fill-opacity:1.0"></polygon>
      <polygon points="139.089 129.15 139.089 133.694 139.089 138.238 
       139.089 142.539 139.089 147.084 139.089 151.629 139.089 155.978 
       139.089 160.474 139.089 165.019 138.845 165.019 138.845 160.474 
       138.845 155.978 138.845 151.629 138.845 147.084 138.845 142.539 
       138.845 138.238 138.845 133.694 138.845 129.15 139.089 129.15"
       style="stroke:none; fill:#a4accb; fill-opacity:1.0"></polygon>
      <polygon points="139.04 165.019 139.04 160.474 139.04 155.978 
       139.04 151.629 139.04 147.084 139.04 142.539 139.04 138.238 
       139.04 133.694 139.04 129.15 146.372 129.15 153.753 129.15 
       161.086 129.15 168.418 129.15 168.418 131.104 168.418 133.059 
       168.418 135.014 168.418 136.724 163.677 136.969 159.13 136.969 
       154.584 136.969 150.087 136.969 150.087 139.754 150.087 142.343 
       154.145 142.343 158.495 142.539 162.796 142.539 167.098 142.539 
       167.098 144.298 167.098 146.253 167.098 147.964 167.098 149.675 
       162.796 149.675 158.495 149.919 154.145 149.919 150.087 149.919 
       150.087 151.629 150.087 153.339 150.087 155.099 150.087 156.809 
       154.829 156.809 159.571 157.053 164.312 157.053 169.053 157.053 
       169.053 158.959 169.053 161.109 169.053 163.064 169.053 165.019 
       161.526 165.019 153.949 165.019 146.372 165.019 139.04 165.019"
       style="stroke:none; fill:#29176e; fill-opacity:1.0"></polygon>
      <polygon points="169.052 165.018 169.004 163.054 169.004 161.09 
       169.004 158.929 169.004 157.015 169.004 158.046 169.004 160.894 
       169.004 163.693 169.004 165.018 169.052 165.018 "
       style="stroke:none; fill:#8e96be; fill-opacity:1.0"></polygon>
      <polygon points="150.069 156.77 154.815 156.77 159.561 156.77 
       164.307 156.77 169.052 157.063 164.307 157.063 159.561 157.063 
       154.815 156.77 150.069 156.77"
       style="stroke:none; fill:#5368a3; fill-opacity:1.0"></polygon>
      <polygon points="150.069 149.939 154.131 149.939 158.487 149.939 
       162.793 149.646 167.1 149.646 167.1 149.939 162.793 149.939 
       158.487 149.939 154.131 149.939 150.069 149.939"
       style="stroke:none; fill:#395394; fill-opacity:1.0"></polygon>
      <polygon points="167.052 149.938 167.052 149.693 167.052 147.973 
       167.052 146.254 167.052 144.289 167.052 142.52 167.344 142.52 
       167.052 144.485 167.052 146.254 167.052 147.973 167.052 149.938"
       style="stroke:none; fill:#445d9b; fill-opacity:1.0"></polygon>
      <polygon points="116.225 143.887 113.821 143.642 111.467 143.642 
       111.467 141.922 111.467 140.006 111.467 138.237 111.467 136.518 
       114.067 136.518 116.666 136.518 118.187 136.715 119.265 137.157 
       120.344 137.796 120.982 138.68 121.423 139.122 121.423 139.564 
       121.423 140.202 121.423 140.645 120.785 141.922 119.707 143.003 
       117.99 143.445 116.225 143.887"
       style="stroke:none; fill:#ffffff; fill-opacity:1.0"></polygon>
      <polygon points="111.516 136.518 111.516 138.238 111.516 140.006 
       111.516 141.923 111.516 143.643 111.272 142.561 111.272 140.203 
       111.272 137.599 111.516 136.518"
       style="stroke:none; fill:#2e2778; fill-opacity:1.0"></polygon>
      <polygon points="150.069 142.325 154.375 142.325 158.682 142.569 
       163.038 142.569 167.344 142.569 167.099 142.569 162.793 142.569 
       158.486 142.569 154.131 142.325 150.069 142.325"
       style="stroke:none; fill:#c6c9d9; fill-opacity:1.0"></polygon>
      <polygon points="150.069 137.006 154.57 137.006 159.121 137.006 
       163.672 137.006 168.417 136.713 168.613 136.713 163.867 137.006 
       159.317 137.006 154.57 137.006 150.069 137.006"
       style="stroke:none; fill:#8089b6; fill-opacity:1.0"></polygon>
      <polygon points="168.37 136.763 168.37 135.044 168.37 133.079 
       168.37 131.114 168.37 129.15 168.37 131.114 168.37 133.079 
       168.37 135.044 168.614 136.763 168.37 136.763"
       style="stroke:none; fill:#2e2778; fill-opacity:1.0"></polygon>
      <polygon points="18.3567 125.587 17.4776 125.148 16.8431 124.709 
       16.1586 124.269 15.9632 123.829 15.3287 122.56 15.0849 121.046 
       16.8431 116.505 18.552 112.209 20.2609 107.862 22.2145 103.761 
       24.168 99.6593 26.3169 95.6069 28.7103 91.5054 31.4945 87.8428 
       35.4015 83.7413 37.1104 81.7881 34.717 80.2741 32.7635 78.5655 
       31.2991 76.6123 30.2239 74.4639 29.3456 72.0709 28.7103 69.6787 
       28.4657 67.335 28.4657 64.7475 28.9057 62.1592 29.3456 59.5709 
       29.9801 56.9834 30.8592 54.5912 31.7383 52.0029 32.7635 49.6591 
       34.0825 47.5107 35.4015 45.3134 37.1104 43.3603 39.064 41.456 
       40.9682 39.9423 42.9218 38.6239 45.0706 37.5497 47.4641 36.9149 
       49.8575 36.4755 52.6409 36.4755 55.4243 37.5497 58.453 38.8681 
       61.2848 39.5028 63.6291 40.3817 65.7779 41.456 67.7315 42.7255 
       69.2458 44.2392 70.5648 45.997 71.8338 47.9013 72.7137 50.099 
       73.3482 52.2474 73.7874 54.3959 74.2273 56.7396 74.4227 59.3271 
       74.4227 64.5029 74.2273 69.6787 73.5436 71.6319 72.9091 73.585 
       71.8338 75.2944 70.7602 76.8077 68.1714 78.7608 65.7779 80.7139 
       68.8067 82.8624 71.6385 85.4507 72.9091 86.7194 73.9827 88.2335 
       75.0579 89.9913 75.9362 91.7007 77.2553 98.8288 78.2805 106.154 
       79.5995 113.282 80.6739 120.412 80.4786 121.485 80.0386 122.316 
       79.5995 123.195 78.965 123.634 78.2805 124.073 77.4506 124.269 
       76.5715 124.269 75.4971 124.269 74.6672 123.634 73.9827 122.999 
       73.3482 122.12 72.9091 121.046 72.7137 116.066 72.4691 110.694 
       72.2738 107.862 71.8338 105.274 71.3947 102.687 70.7602 100.099 
       70.1249 97.7554 69.0505 95.6069 67.976 93.4093 66.4625 91.2608 
       64.7043 89.5522 62.5554 88.0382 60.162 86.7194 57.6224 85.646 
       54.3506 85.2061 51.7618 85.2061 49.173 85.4507 47.0242 85.8897 
       44.6799 86.7194 42.7264 88.0382 40.3337 89.7475 38.1849 91.896 
       35.5968 95.3624 33.2034 99.2687 31.2991 103.126 29.3456 107.227 
       25.8777 115.43 22.459 123.634 21.3362 124.513 20.5055 124.904 
       19.4311 125.343 18.3567 125.587"
       style="stroke:none; fill:#2d2629; fill-opacity:1.0"></polygon>
      <polygon points="40.3285 123.83 37.9831 123.634 35.3938 123.39 
       32.9992 122.755 30.8492 121.924 29.9697 121.044 29.5303 120.165 
       29.3349 119.285 29.3349 118.455 29.7743 116.939 30.4091 115.424 
       31.0447 114.105 31.4848 112.59 31.4848 111.955 31.4848 111.319 
       31.2894 110.684 30.8492 109.805 30.4091 108.729 30.2136 107.654 
       30.4091 106.579 30.8492 105.7 31.2894 104.82 31.9242 104.185 
       32.7545 103.549 33.8787 103.109 38.1785 101.399 42.0875 100.08 
       42.0875 99.4444 40.9633 97.4896 41.208 96.4145 41.4034 95.3394 
       41.8436 94.5082 42.2829 93.6294 42.9178 92.9937 43.6026 92.3095 
       44.4329 91.6746 45.3124 91.2344 47.0222 90.3548 49.1721 89.7199 
       51.3713 89.0842 53.2765 88.644 55.4264 88.4485 57.1855 88.4485 
       58.896 88.4485 60.1665 88.644 60.8505 88.8887 61.4853 89.3289 
       61.9255 89.7199 62.3656 90.1593 63.1959 91.6746 63.6353 93.6294 
       65.3458 94.0688 66.8609 94.7037 67.7397 95.5841 68.3753 96.6585 
       68.62 97.9298 68.3753 99.4444 67.9844 100.763 66.8609 102.035 
       64.0754 103.549 61.046 104.429 61.046 104.624 61.046 104.82 
       62.1209 105.064 63.0005 105.259 63.88 105.7 64.711 106.14 
       65.1504 106.579 65.7852 107.019 66.0299 107.654 66.47 108.29 
       66.47 108.925 66.47 109.805 66.2253 110.44 66.0299 111.319 
       65.5898 111.955 65.1504 112.834 64.5156 113.469 63.6353 114.105 
       64.0754 114.789 65.3458 115.864 65.7852 117.379 66.0299 118.65 
       65.7852 119.725 65.3458 120.8 64.711 121.484 63.88 122.119 
       62.5611 122.755 61.046 123.195 55.8666 123.39 50.6872 123.634 
       45.5078 123.634 40.3285 123.83"
       style="stroke:none; fill:#cfd2e2; fill-opacity:1.0"></polygon>
      <polygon points="39.6934 123.195 36.2237 123 33.1942 122.316 
       31.9237 121.68 30.8487 120.801 30.4086 120.41 30.2131 119.53 
       29.7737 118.895 29.7737 117.77 30.2131 116.305 30.604 114.985 
       31.0442 114.105 31.4843 113.715 31.9237 113.03 32.5586 112.591 
       32.5586 112.2 32.754 111.76 31.9237 110.441 31.4843 109.169 
       31.2889 107.85 31.2889 107.019 31.4843 105.944 31.9237 105.259 
       32.5586 104.625 33.4389 103.99 35.3934 102.914 37.7389 102.035 
       40.3283 101.154 42.7222 100.519 42.4783 99.004 41.648 97.4894 
       41.8435 96.4142 42.0874 95.3391 42.4783 94.5079 43.1624 93.629 
       43.798 92.9933 44.4328 92.3091 45.3124 91.6742 46.3874 91.2339 
       50.6874 89.7193 54.792 88.8881 56.5511 88.8881 58.0662 88.8881 
       59.3359 89.0836 60.4117 89.3284 61.2904 89.9633 62.1215 90.7937 
       62.5617 92.1136 63.0011 93.8245 63.8806 94.2639 66.4708 95.1436 
       67.3011 96.2188 67.7405 97.2939 67.9852 98.1251 67.9852 99.004 
       67.7405 99.8845 67.3011 100.519 66.6662 101.154 66.0306 101.839 
       64.0761 102.67 62.1215 103.549 59.9715 104.185 58.0662 104.625 
       58.0662 105.064 58.0662 105.259 59.7761 105.504 61.0465 105.504 
       62.3662 105.7 63.6359 106.14 64.5162 106.775 65.1511 107.655 
       65.5905 108.925 65.5905 110.441 65.1511 111.515 64.5162 112.395 
       63.6359 113.274 62.8056 113.91 62.5617 114.35 62.5617 114.79 
       63.6359 115.425 64.5162 116.06 64.9556 116.94 65.1511 118.015 
       65.1511 119.09 64.9556 119.97 64.2715 121.045 63.4405 121.925 
       62.3662 122.12 61.2904 122.561 55.867 122.756 50.4919 123 
       45.0677 123 39.6934 123.195"
       style="stroke:none; fill:#a4aed1; fill-opacity:1.0"></polygon>
      <polygon points="36.6621 122.561 34.9522 122.121 33.4377 121.485 
       32.3618 120.802 31.483 120.166 31.0428 119.091 30.8473 117.771 
       31.0428 116.501 31.727 114.79 32.3618 114.106 32.9975 113.47 
       33.4377 112.591 33.8771 111.76 32.9975 110.441 32.5573 109.169 
       32.3618 108.095 32.3618 107.215 32.5573 106.336 32.9975 105.504 
       33.6332 104.82 34.512 104.429 36.4667 103.354 38.6168 102.474 
       40.9624 101.839 43.602 100.959 43.602 100.324 43.602 99.4441 
       43.1618 97.9294 42.9171 96.6579 43.1618 95.3387 43.993 93.8241 
       45.7029 92.9928 47.9023 91.8691 50.2479 90.7931 53.0815 89.9627 
       54.3528 89.7187 55.6718 89.5232 56.9423 89.3277 58.2621 89.5232 
       59.3364 89.7187 60.1676 90.1582 61.0472 90.7931 61.4866 91.6736 
       61.6821 92.9928 61.9268 94.2635 63.8815 95.1432 65.3475 96.023 
       66.0316 96.4139 66.4718 97.0489 66.8627 97.9294 66.8627 99.0038 
       66.4718 100.08 65.5914 100.959 64.9565 101.839 63.8815 102.474 
       60.1676 103.354 57.8219 103.99 56.112 104.625 53.5216 105.504 
       53.5216 105.7 53.5216 105.945 56.7469 105.945 60.4123 105.945 
       62.1222 106.336 63.4413 107.215 64.0769 107.655 64.5171 108.29 
       64.7126 109.169 64.7126 110.05 64.0769 111.32 63.4413 112.396 
       61.6821 113.715 60.8517 114.546 62.5624 115.621 63.8815 116.697 
       64.2724 117.38 64.5171 118.211 64.5171 119.091 64.0769 119.971 
       63.0019 121.241 61.6821 121.926 55.4271 122.121 49.1721 122.317 
       42.9171 122.561 36.6621 122.561"
       style="stroke:none; fill:#788dc0; fill-opacity:1.0"></polygon>
      <polygon points="41.6474 122.122 39.6926 122.122 37.7378 121.926 
       35.5875 121.682 33.8767 121.047 32.997 120.607 32.3613 120.167 
       31.7264 119.727 31.4824 118.896 31.2869 118.212 31.2869 117.137 
       31.7264 116.061 32.1173 114.986 33.6327 113.275 34.2676 112.201 
       34.2676 111.76 34.0722 111.124 33.6327 110.441 32.997 109.365 
       32.7523 108.29 32.7523 107.459 32.997 106.579 33.4372 105.7 
       34.0722 105.064 34.7071 104.624 35.5875 104.185 36.6619 103.745 
       40.767 102.474 44.2371 101.154 43.9932 99.2481 43.6022 97.7334 
       43.6022 96.8528 43.6022 96.0223 43.7977 95.1426 44.2371 94.2628 
       45.948 93.1875 48.3422 92.1123 51.1274 91.037 54.1582 90.1573 
       55.428 89.9618 56.9434 89.9618 58.0678 89.9618 59.1422 90.3528 
       59.9733 90.7922 60.609 91.6728 60.853 92.7473 60.853 94.2628 
       61.6834 94.8978 63.0033 95.5828 64.5186 96.0223 65.593 96.4133 
       66.0332 97.2931 66.2287 97.9289 66.2287 98.5638 66.2287 99.0033 
       65.7885 100.079 65.1536 100.958 64.0784 101.594 63.0033 102.23 
       61.6834 102.669 60.4136 103.109 56.5524 103.989 54.1582 104.624 
       52.3989 105.259 50.2486 105.944 50.2486 106.14 50.4925 106.335 
       54.3537 106.579 59.7779 106.579 61.0485 106.775 62.1236 107.019 
       63.0033 107.459 63.6382 108.095 64.0784 108.73 64.2739 109.61 
       64.0784 110.685 63.1988 112.201 61.2924 113.275 58.4588 114.547 
       58.4588 114.986 58.4588 115.23 60.609 115.621 62.5638 116.306 
       63.1988 116.941 63.6382 117.576 63.6382 118.652 63.4427 119.971 
       62.5638 120.607 61.4879 121.242 56.5524 121.486 51.5677 121.682 
       46.5829 121.926 41.6474 122.122"
       style="stroke:none; fill:#3865a5; fill-opacity:1.0"></polygon>
      <polygon points="38.6155 121.048 35.7817 120.609 33.191 119.728 
       32.5553 118.653 32.3598 117.773 32.5553 116.698 32.9955 115.867 
       34.5102 114.352 36.2212 113.032 36.4651 112.592 36.4651 112.201 
       35.146 110.685 33.8753 108.926 33.6313 108.095 33.6313 107.215 
       34.0707 106.579 34.9505 105.7 38.3716 104.429 41.4017 103.353 
       43.9924 102.473 45.7025 101.838 45.9473 101.153 45.9473 100.762 
       45.9473 100.079 45.7025 99.4429 44.8713 98.3675 44.2363 97.2921 
       44.2363 96.6563 44.2363 95.7772 45.507 94.7011 47.2172 93.6265 
       49.6124 92.5503 52.0076 91.6712 54.3535 91.0354 56.7478 91.0354 
       57.8231 91.0354 58.7028 91.2309 59.5332 91.8667 60.169 92.3063 
       59.9735 93.3817 59.5332 94.2615 58.0678 94.7011 56.5524 94.8966 
       55.0369 95.3369 53.7177 96.0212 53.7177 96.2168 53.9132 96.4123 
       56.7478 96.4123 59.3377 96.2168 60.8532 96.2168 62.1239 96.4123 
       63.6386 96.6563 64.9585 97.0473 65.3495 97.928 65.3495 98.563 
       65.3495 99.2474 64.9585 99.6384 64.0788 100.762 62.8081 101.594 
       58.2633 102.473 53.5222 103.549 51.3718 104.185 48.9766 105.064 
       46.8262 105.944 44.8713 107.019 44.8713 107.215 44.8713 107.655 
       47.0217 108.095 49.4169 108.095 51.7628 107.85 53.9132 107.459 
       56.3084 107.215 58.7028 107.215 59.778 107.215 60.8532 107.459 
       61.9284 107.85 62.8081 108.291 63.1991 109.365 63.1991 110.441 
       62.5641 111.125 61.9284 111.956 60.8532 112.592 59.5332 113.032 
       58.2633 113.471 56.5524 113.912 49.8571 114.987 44.8713 115.867 
       44.8713 116.062 44.8713 116.307 46.3868 116.698 48.0977 116.942 
       49.8571 117.138 51.7628 117.138 55.8681 116.698 59.1422 116.698 
       60.8532 116.942 61.6836 117.138 62.1239 117.382 62.3686 117.773 
       62.5641 118.213 62.8081 119.093 62.1239 119.533 61.2927 119.973 
       60.6092 120.168 59.778 120.413 54.5974 120.413 49.1721 120.609 
       43.9924 120.804 38.6155 121.048"
       style="stroke:none; fill:#2c64a5; fill-opacity:1.0"></polygon>
      <polygon points="123.082 118.881 124.206 119.276 125.476 119.72 
       128.701 119.72 131.925 119.522 134.76 119.276 137.544 118.881 
       141.649 118.634 144.042 118.437 145.313 118.437 146.192 118.437 
       147.707 118.881 150.101 119.078 152.446 119.276 155.281 119.276 
       158.065 119.078 160.459 118.634 161.29 118.189 162.169 117.744 
       162.804 117.103 163.244 116.461 163.684 116.461 164.124 116.659 
       163.489 117.547 162.804 118.189 162.169 118.881 161.29 119.276 
       158.309 119.276 155.281 119.276 152.251 119.276 149.222 119.522 
       146.192 119.078 143.408 119.078 140.378 119.078 137.349 119.276 
       131.534 119.967 125.671 120.609 124.206 119.967 122.887 119.276 
       122.887 119.078 123.082 118.881"
       style="stroke:none; fill:#cedfd8; fill-opacity:1.0"></polygon>
      <polygon points="125.473 119.73 128.719 119.73 131.963 119.486 
       128.719 119.73 125.473 119.73"
       style="stroke:none; fill:#bcd7c7; fill-opacity:1.0"></polygon>
      <polygon points="125.488 119.73 124.216 119.286 123.09 118.892 
       122.699 118.645 122.455 118.448 121.181 117.115 120.056 115.831 
       120.301 115.584 120.301 115.387 120.937 116.029 121.377 116.671 
       122.014 117.361 122.895 117.756 122.895 118.003 122.895 118.201 
       124.412 118.892 125.929 119.533 128.719 119.286 131.752 119.089 
       134.542 119.089 137.576 118.892 134.787 119.286 131.948 119.533 
       128.719 119.73 125.488 119.73"
       style="stroke:none; fill:#afd1c0; fill-opacity:1.0"></polygon>
      <polygon points="120.301 115.396 120.496 114.952 120.496 114.509 
       121.179 115.593 121.57 116.284 122.255 117.121 123.085 117.564 
       123.085 117.761 123.085 118.008 125.919 118.649 128.948 118.895 
       131.732 118.895 134.762 118.895 140.576 118.452 146.634 118.205 
       149.859 118.452 153.328 118.649 156.797 118.452 160.021 118.008 
       161.732 116.678 162.61 116.037 162.806 116.037 163.246 116.284 
       163.246 116.481 162.806 117.121 162.171 117.761 161.292 118.205 
       160.461 118.649 158.067 119.093 155.282 119.29 152.448 119.29 
       150.103 119.093 147.709 118.895 146.194 118.452 145.316 118.452 
       144.044 118.452 141.651 118.649 137.547 118.895 134.518 119.093 
       131.732 119.093 128.704 119.29 125.919 119.536 124.405 118.895 
       122.89 118.205 122.89 118.008 122.89 117.761 122.01 117.367 
       121.375 116.678 120.935 116.037 120.301 115.396"
       style="stroke:none; fill:#a8ccbb; fill-opacity:1.0"></polygon>
      <polygon points="93.5771 119.291 92.305 118.9 91.4256 118.216 
       90.7895 117.58 90.1535 116.945 89.7138 115.234 89.2741 112.84 
       88.638 112.205 88.1975 111.324 87.9534 110.689 87.7579 109.81 
       87.7579 108.295 87.7579 106.34 86.2416 104.189 84.5306 102.234 
       84.0901 101.403 83.6504 100.328 83.6504 99.0076 84.0901 97.4929 
       85.8019 96.2221 87.1226 94.7066 86.8777 93.3873 86.8777 92.3121 
       86.8777 91.4816 87.3182 90.7965 87.7579 90.1616 88.3931 89.5266 
       89.2741 89.0863 90.3491 88.646 93.3815 88.2065 96.1683 87.8155 
       99.2 87.376 102.232 87.1313 104.188 87.1313 105.899 87.5715 
       106.535 87.8155 107.17 88.2065 107.611 88.4505 108.051 88.8908 
       108.295 89.5266 108.295 89.9661 108.295 90.601 108.295 91.4816 
       107.855 92.9963 106.779 94.7066 104.579 96.4176 102.671 97.9332 
       102.427 100.523 102.232 103.113 102.671 104.433 102.867 105.508 
       102.671 106.34 102.427 107.463 101.792 109.369 100.911 111.52 
       100.715 113.72 100.52 115.234 99.8361 116.506 99.2 117.385 
       98.3199 118.021 97.0485 118.656 95.5331 119.096 93.5771 119.291"
       style="stroke:none; fill:#a2acd1; fill-opacity:1.0"></polygon>
      <polygon points="120.496 114.551 120.74 113.28 120.935 112.596 
       122.01 111.52 123.329 110.445 125.674 109.369 128.069 108.295 
       128.069 106.144 127.873 103.553 128.948 101.843 130.023 100.327 
       130.218 100.327 130.218 100.083 130.658 98.1282 130.658 96.026 
       131.098 95.1462 131.733 94.0709 134.127 92.1158 136.472 90.3562 
       136.472 90.1606 136.717 89.9651 138.231 89.3301 139.941 88.645 
       141.651 88.2055 143.41 87.8145 145.121 87.8145 146.83 88.2055 
       147.514 88.645 148.149 89.0853 148.785 89.7211 149.42 90.6002 
       152.009 92.3113 153.084 93.1911 153.329 94.2664 153.329 95.1462 
       153.084 96.026 152.644 96.8565 151.57 98.1282 150.935 99.8878 
       152.644 99.643 154.403 99.643 155.283 99.8878 156.114 100.083 
       156.798 100.327 157.629 100.767 158.312 101.843 158.507 102.038 
       158.703 102.917 158.947 103.749 158.312 104.629 156.993 106.34 
       154.843 107.855 152.449 108.93 151.57 109.369 150.739 109.614 
       150.739 109.81 150.739 110.25 151.179 110.25 151.57 110.445 
       152.253 110.689 152.889 110.689 155.039 111.129 157.188 111.129 
       158.947 111.129 160.657 111.129 160.852 111.129 160.852 111.52 
       160.852 111.765 159.778 112.205 158.507 112.205 156.993 112.205 
       155.479 111.96 152.449 111.324 150.104 110.689 149.42 110.445 
       148.785 110.25 148.785 110.054 148.785 109.81 149.225 109.614 
       149.664 109.369 152.253 108.099 155.039 107.023 156.114 106.144 
       156.993 105.264 157.433 104.629 157.629 103.994 157.629 103.113 
       157.629 102.234 156.993 101.403 156.114 100.962 155.479 100.523 
       154.599 100.523 152.889 100.523 150.935 100.523 149.664 100.523 
       148.345 100.523 148.589 100.083 148.785 99.643 150.104 98.8117 
       151.375 97.9326 152.009 97.2968 152.449 96.417 152.644 95.782 
       152.644 95.3417 152.644 94.7059 152.644 94.2664 152.253 93.8269 
       152.009 93.3866 150.104 91.6763 147.905 89.7211 147.075 89.0853 
       145.999 88.645 144.681 88.4495 143.606 88.4495 142.335 88.4495 
       141.017 88.8898 139.697 89.3301 138.427 89.7211 136.277 91.0404 
       134.127 92.7508 133.248 93.6314 132.613 94.7059 131.928 95.5865 
       131.537 96.661 131.537 97.7371 131.537 98.5677 131.293 99.4475 
       131.098 100.083 130.218 101.403 128.704 103.113 128.704 105.949 
       128.948 108.539 125.919 110.054 122.89 111.96 122.255 112.596 
       121.815 113.036 121.57 113.72 121.57 114.356 121.57 114.991 
       122.01 115.871 122.694 116.506 123.524 117.385 124.844 118.021 
       126.114 118.461 129.778 118.461 133.248 118.461 136.912 118.217 
       140.576 118.021 143.606 117.776 146.635 117.581 149.664 118.021 
       153.329 118.217 156.798 118.021 160.022 117.581 161.293 116.702 
       162.611 115.871 162.611 116.066 161.733 116.702 160.022 118.021 
       156.798 118.461 153.329 118.657 149.86 118.461 146.635 118.217 
       140.576 118.461 134.763 118.901 131.733 118.901 128.948 118.901 
       125.919 118.657 123.085 118.021 123.085 117.776 123.085 117.581 
       122.255 117.141 121.57 116.311 121.179 115.626 120.496 114.551"
       style="stroke:none; fill:#589e7d; fill-opacity:1.0"></polygon>
      <polygon points="126.108 118.462 129.78 118.19 133.257 118.19 
       136.93 117.974 140.602 117.974 136.93 118.19 133.257 118.462 
       129.78 118.462 126.108 118.462"
       style="stroke:none; fill:#49976d; fill-opacity:1.0"></polygon>
      <polygon points="119.666 116.274 119.864 116.025 120.063 115.826 
       121.205 117.119 122.496 118.462 120.957 117.367 119.666 116.274"
       style="stroke:none; fill:#d3e3dc; fill-opacity:1.0"></polygon>
      <polygon points="148.784 99.6423 147.904 100.083 147.074 100.327 
       147.074 100.522 147.074 100.766 149.029 100.766 150.934 100.522 
       152.888 100.522 154.598 100.522 155.478 100.522 156.113 100.962 
       156.992 101.402 157.628 102.233 157.628 103.112 157.628 103.993 
       157.432 104.628 156.992 105.263 156.113 106.144 155.038 107.023 
       152.252 108.099 149.663 109.369 149.029 109.614 148.344 109.809 
       148.148 110.25 148.148 110.445 149.029 110.689 150.103 110.689 
       152.448 111.324 155.478 111.96 156.992 112.205 158.507 112.205 
       159.778 112.205 160.852 111.764 160.852 111.96 161.096 112.205 
       161.096 113.035 161.096 113.915 160.656 113.279 160.022 113.035 
       156.552 112.84 153.328 112.205 150.103 111.96 146.829 111.764 
       145.559 111.324 144.484 110.885 144.484 110.689 144.484 110.25 
       145.559 109.614 146.634 108.929 148.148 108.538 149.663 108.099 
       151.178 107.659 152.643 107.218 153.963 106.583 155.283 105.948 
       156.357 104.628 156.797 103.553 156.797 102.673 156.357 102.233 
       155.673 101.598 154.598 101.402 153.524 101.402 152.252 101.157 
       146.194 101.842 142.53 102.477 141.894 102.233 141.211 102.038 
       141.211 101.842 141.211 101.598 142.53 100.766 144.24 100.083 
       146.194 99.4468 148.148 98.811 149.029 98.3715 149.859 97.9319 
       150.494 97.4916 151.178 96.8558 151.569 96.2208 151.813 95.5857 
       151.813 94.7051 151.569 93.6305 149.029 92.3104 148.148 91.4798 
       147.27 90.5992 146.634 89.9642 145.559 89.5247 144.484 89.3291 
       143.409 89.3291 142.334 89.3291 141.016 89.7202 139.94 90.1597 
       137.546 91.4798 135.396 93.1902 133.686 94.7051 132.416 96.2208 
       132.612 98.1275 132.807 99.8871 131.536 101.402 130.462 102.477 
       130.022 103.112 129.582 103.748 129.386 104.628 129.386 105.508 
       130.217 106.779 130.853 108.099 130.462 108.538 130.022 109.173 
       129.142 109.614 128.263 110.054 126.113 111.129 124.403 112.205 
       123.523 112.596 122.888 113.279 122.449 113.915 122.253 114.551 
       122.449 115.235 123.084 115.87 124.208 116.702 125.673 117.581 
       131.927 117.385 135.836 117.385 138.621 117.581 141.016 117.581 
       143.409 117.141 145.755 117.141 148.148 117.141 150.494 117.141 
       152.888 117.141 155.283 117.141 157.628 116.702 160.217 116.311 
       160.852 115.43 161.292 114.355 161.732 114.991 162.171 115.43 
       160.656 116.506 158.947 117.385 156.797 117.776 154.598 118.217 
       152.448 118.217 150.298 118.217 148.344 118.021 146.634 117.581 
       143.605 117.776 140.575 118.021 136.911 118.021 133.247 118.217 
       129.777 118.217 126.113 118.461 124.843 118.021 123.523 117.385 
       122.693 116.506 122.009 115.87 121.569 114.991 121.569 114.355 
       121.569 113.72 121.813 113.035 122.253 112.596 122.888 111.96 
       125.918 110.054 128.947 108.538 128.703 105.948 128.703 103.112 
       130.217 101.402 131.097 100.083 131.292 99.4468 131.536 98.567 
       131.536 97.7364 131.536 96.6603 131.927 95.5857 132.612 94.7051 
       133.247 93.6305 134.126 92.7499 136.276 91.0395 138.426 89.7202 
       139.696 89.3291 141.016 88.8888 142.334 88.4485 143.605 88.4485 
       144.68 88.4485 145.998 88.644 147.074 89.0843 147.904 89.7202 
       150.103 91.6754 152.009 93.3857 152.252 93.8261 152.643 94.2656 
       152.643 94.7051 152.643 95.3409 152.643 95.7812 152.448 96.4163 
       152.009 97.2961 151.374 97.9319 150.103 98.811 148.784 99.6423"
       style="stroke:none; fill:#31885c; fill-opacity:1.0"></polygon>
      <polygon points="146.604 117.571 148.317 118.019 150.275 118.217 
       152.429 118.217 154.583 118.217 156.786 117.77 158.94 117.373 
       160.653 116.48 162.171 115.387 162.367 115.387 162.367 115.585 
       162.611 115.834 161.29 116.679 160.017 117.571 156.786 118.019 
       153.311 118.217 149.639 118.019 146.604 117.571"
       style="stroke:none; fill:#499775; fill-opacity:1.0"></polygon>
      <polygon points="161.097 112.207 161.733 113.038 162.172 113.722 
       162.172 114.553 162.367 115.433 162.172 115.433 161.733 114.993 
       161.292 114.358 160.852 115.433 160.217 116.313 157.628 116.705 
       155.283 117.144 152.888 117.144 150.494 117.144 148.148 117.144 
       145.755 117.144 143.409 117.144 141.015 117.584 138.621 117.584 
       135.835 117.388 131.926 117.388 125.672 117.584 124.207 116.705 
       123.083 115.873 122.448 115.237 122.253 114.553 122.448 113.918 
       122.887 113.282 123.522 112.598 124.403 112.207 126.112 111.131 
       128.262 110.056 129.142 109.615 130.021 109.175 130.461 108.54 
       130.852 108.1 130.217 106.78 129.386 105.509 129.386 104.629 
       129.581 103.749 130.021 103.113 130.461 102.478 131.536 101.402 
       132.807 99.8873 132.611 98.1274 132.416 96.2204 133.685 94.7045 
       135.396 93.1894 137.546 91.4788 139.94 90.1584 141.015 89.7188 
       142.334 89.3277 143.409 89.3277 144.484 89.3277 145.559 89.5233 
       146.634 89.9629 147.27 90.598 148.148 91.4788 149.029 92.3094 
       151.569 93.6298 151.813 94.7045 151.813 95.5853 151.569 96.2204 
       151.179 96.8556 150.494 97.4915 149.859 97.9319 149.029 98.3715 
       148.148 98.811 146.194 99.447 144.239 100.083 142.53 100.767 
       141.211 101.598 141.211 101.843 141.211 102.038 141.894 102.234 
       142.53 102.478 146.194 101.843 152.253 101.158 153.524 101.402 
       154.598 101.402 155.674 101.598 156.357 102.234 156.797 102.674 
       156.797 103.553 156.357 104.629 155.283 105.949 153.963 106.584 
       152.644 107.22 151.179 107.66 149.663 108.1 148.148 108.54 
       146.634 108.931 145.559 109.615 144.484 110.251 144.484 110.691 
       144.484 110.887 145.559 111.326 146.829 111.767 150.103 111.962 
       153.328 112.207 156.552 112.842 160.022 113.038 160.657 113.282 
       161.097 113.918 161.097 113.038 161.097 112.207"
       style="stroke:none; fill:#006939; fill-opacity:1.0"></polygon>
      <polygon points="164.118 116.705 163.679 116.51 163.239 116.51 
       163.239 116.315 163.239 114.362 162.799 113.043 162.604 112.604 
       162.165 112.213 161.53 111.773 160.846 111.138 160.65 111.138 
       160.65 110.699 160.455 110.455 160.455 110.065 160.455 109.82 
       160.016 107.867 159.332 105.718 159.332 105.278 159.136 104.644 
       159.136 104.205 158.941 103.765 158.696 102.935 158.501 102.056 
       158.501 101.421 158.306 100.786 158.306 100.542 158.062 100.103 
       158.062 99.6634 157.867 99.2727 157.867 99.0282 157.183 96.4406 
       156.352 93.6577 154.594 91.0693 152.445 88.4809 151.371 87.4075 
       150.1 86.5277 148.586 85.8933 147.073 85.2097 144.679 85.4543 
       142.725 85.6496 140.576 86.0887 138.867 86.7231 136.913 87.6028 
       135.203 88.4809 133.689 89.556 132.175 90.6295 130.661 91.8998 
       129.391 93.4132 128.072 94.9265 126.998 96.4406 124.849 99.9079 
       122.895 103.765 122.26 106.793 121.576 109.82 121.576 110.455 
       121.38 110.894 121.38 111.333 121.185 111.773 121.185 112.213 
       120.941 112.604 120.746 113.287 120.502 114.557 120.502 114.996 
       120.307 115.435 120.307 115.63 120.062 115.875 119.867 116.07 
       119.671 116.315 117.962 116.949 116.448 117.144 115.764 117.144 
       115.324 116.949 114.933 116.705 114.494 116.315 113.81 115.435 
       113.615 114.117 113.419 112.847 113.615 111.333 114.689 104.839 
       116.008 100.103 117.522 96.8797 119.231 94.0968 121.185 91.5092 
       123.09 88.9208 125.239 86.7231 127.632 84.5745 130.221 82.426 
       133.25 80.4728 133.054 80.0822 132.175 78.7642 130.466 76.6157 
       127.632 72.514 126.754 70.3654 126.363 67.9724 125.923 66.0192 
       125.678 63.8707 125.483 61.9667 125.678 59.769 125.923 57.4251 
       126.363 55.0328 127.193 52.6406 128.268 50.2967 129.391 48.1478 
       130.661 45.9993 131.93 44.0461 133.445 42.2882 134.959 40.5792 
       136.718 39.0655 138.622 37.7959 140.576 36.7216 142.725 35.6474 
       144.923 34.7684 147.268 34.1336 149.661 33.6942 152.249 33.2547 
       154.838 33.0594 156.987 33.6942 158.941 34.329 160.846 35.4032 
       162.36 36.7216 163.875 38.1865 165.193 39.7002 166.268 41.4581 
       167.098 43.3625 167.977 45.3157 168.612 47.513 169.051 49.4174 
       169.491 51.5655 170.127 55.9118 170.37 60.2088 169.931 61.7221 
       169.296 63.2363 168.612 64.7504 167.977 66.2637 166.268 69.0474 
       164.118 71.4397 161.969 73.7835 159.332 75.9805 156.547 77.6899 
       153.764 79.204 155.278 80.4728 156.792 81.7916 158.062 83.3058 
       159.576 84.8191 160.846 86.3324 161.969 88.0419 163.044 89.556 
       163.875 91.5092 165.193 96.6844 166.268 102.056 167.538 107.232 
       168.612 112.604 168.612 113.726 168.417 114.557 167.977 115.24 
       167.342 115.875 166.707 116.07 165.828 116.51 164.948 116.51 
       164.118 116.705"
       style="stroke:none; fill:#2d2629; fill-opacity:1.0"></polygon>
      <polygon points="162.597 116.067 162.597 115.87 162.349 115.624 
       162.349 115.427 162.15 114.541 162.15 113.703 161.702 113.014 
       161.054 112.177 160.805 111.93 160.805 111.733 160.805 111.486 
       160.805 111.092 161.503 111.733 162.15 112.177 162.597 112.571 
       162.797 113.014 163.245 114.344 163.245 116.314 162.797 116.067 
       162.597 116.067"
       style="stroke:none; fill:#154c33; fill-opacity:1.0"></polygon>
      <polygon points="120.935 112.606 121.183 112.207 121.183 111.757 
       122.728 110.659 123.375 110.41 122.03 111.507 120.935 112.606"
       style="stroke:none; fill:#80b59d; fill-opacity:1.0"></polygon>
      <polygon points="121.178 111.776 121.375 111.334 121.375 110.894 
       124.418 109.62 127.459 108.101 127.459 107.463 127.459 106.777 
       127.214 105.944 127.018 104.817 127.018 103.984 127.459 102.905 
       127.901 102.023 128.294 101.386 129.177 100.748 130.06 100.308 
       128.981 101.827 127.901 103.542 128.097 106.14 128.097 108.297 
       125.693 109.374 123.337 110.453 122.7 110.698 121.178 111.776"
       style="stroke:none; fill:#a8ccbb; fill-opacity:1.0"></polygon>
      <polygon points="152.851 110.654 155.022 110.871 157.194 111.142 
       155.022 111.142 152.851 110.654"
       style="stroke:none; fill:#88bca4; fill-opacity:1.0"></polygon>
      <polygon points="157.176 111.142 155.018 110.896 152.859 110.7 
       152.221 110.7 151.535 110.455 151.338 110.062 151.338 109.619 
       151.779 109.373 152.417 108.931 154.821 107.85 156.98 106.328 
       158.304 104.608 158.943 103.724 159.139 104.166 159.139 104.608 
       158.697 104.805 157.618 106.573 153.938 108.931 152.417 109.619 
       152.859 110.258 153.742 110.455 154.821 110.7 156.097 110.7 
       158.501 110.455 160.463 110.455 160.659 110.7 160.659 111.142 
       158.943 111.142 157.176 111.142"
       style="stroke:none; fill:#a8ccbb; fill-opacity:1.0"></polygon>
      <polygon points="121.373 110.897 121.569 110.457 121.569 109.821 
       124.208 108.746 126.75 107.67 126.554 106.154 126.359 104.834 
       126.359 103.563 126.993 101.851 128.264 100.775 129.583 99.4551 
       129.388 97.7441 129.388 95.7882 130.854 93.8323 132.809 91.6808 
       135.398 89.7249 137.988 88.2087 139.308 87.5734 140.823 86.9373 
       142.093 86.6924 143.608 86.3013 144.928 86.3013 146.393 86.4969 
       147.713 86.9373 149.032 87.3778 149.863 88.4528 150.938 90.1646 
       152.013 90.6042 152.893 91.0447 153.528 91.6808 154.163 92.1205 
       154.602 93.0006 154.847 93.8323 155.043 94.7116 155.043 95.7882 
       153.968 97.9397 153.772 98.5749 154.847 98.5749 155.922 98.5749 
       156.802 98.819 157.877 99.0146 157.877 99.2595 156.557 99.2595 
       152.893 98.819 153.088 98.1353 154.407 96.4235 154.602 95.1521 
       154.602 94.0764 154.163 93.1962 153.772 92.3161 153.088 91.6808 
       152.257 91.0447 151.378 90.6042 150.302 90.3602 149.423 89.0888 
       148.788 88.4528 148.152 87.8175 147.517 87.3778 145.758 87.1329 
       143.412 87.1329 140.138 87.8175 137.158 89.0888 137.158 89.3337 
       136.914 89.5293 136.914 89.7249 134.764 90.7998 133.053 92.1205 
       132.173 93.0006 131.538 93.8323 130.854 94.7116 130.219 95.7882 
       130.219 97.9397 130.219 100.091 130.219 100.335 130.023 100.335 
       129.144 100.775 128.264 101.411 127.873 102.047 127.433 102.926 
       126.993 104.003 126.993 104.834 127.189 105.959 127.433 106.79 
       127.433 107.474 127.433 108.11 124.404 109.626 121.373 110.897"
       style="stroke:none; fill:#cedfd8; fill-opacity:1.0"></polygon>
      <polygon points="149.668 109.335 149.218 109.589 148.767 109.791 
       148.767 110.045 148.767 110.247 149.418 110.449 150.117 110.702 
       149.018 110.702 148.117 110.449 148.117 110.247 148.317 109.791 
       149.018 109.589 149.668 109.335"
       style="stroke:none; fill:#499775; fill-opacity:1.0"></polygon>
      <polygon points="159.138 104.602 159.334 105.241 159.334 105.684 
       156.535 107.849 153.737 109.62 153.737 110.063 154.13 110.26 
       157.174 110.26 160.463 110.457 158.499 110.457 156.094 110.702 
       154.817 110.702 153.737 110.457 152.853 110.26 152.411 109.62 
       153.934 108.931 157.616 106.57 158.696 104.799 159.138 104.602"
       style="stroke:none; fill:#cedfd8; fill-opacity:1.0"></polygon>
      <polygon points="152.46 108.897 151.808 109.35 151.357 109.602 
       151.357 110.055 151.557 110.458 151.156 110.257 150.703 110.257 
       150.703 109.803 150.703 109.602 151.557 109.35 152.46 108.897"
       style="stroke:none; fill:#80b59d; fill-opacity:1.0"></polygon>
      <polygon points="154.12 110.248 157.169 110.038 160.464 109.775 
       160.464 110.038 160.464 110.458 157.169 110.248 154.12 110.248"
       style="stroke:none; fill:#d3e3dc; fill-opacity:1.0"></polygon>
      <polygon points="154.122 110.263 153.729 110.066 153.729 109.622 
       156.531 107.846 159.333 105.676 160.022 107.846 160.464 109.819 
       157.17 110.066 154.122 110.263"
       style="stroke:none; fill:#ffffff; fill-opacity:1.0"></polygon>
      <polygon points="121.569 109.824 122.254 106.792 122.888 103.761 
       124.843 99.898 126.993 96.4258 128.068 94.9096 129.387 93.3941 
       130.659 91.8787 132.173 90.6065 133.688 89.5315 135.203 88.455 
       136.914 87.5756 138.868 86.6947 140.578 86.0594 142.728 85.6197 
       144.683 85.4241 147.078 85.1792 148.592 85.8638 150.107 86.4991 
       151.378 87.38 152.452 88.455 154.602 91.047 156.362 93.639 
       157.193 96.4258 157.877 99.017 156.802 98.8214 155.922 98.5773 
       154.847 98.5773 153.772 98.5773 153.968 97.942 155.043 95.7905 
       155.043 94.714 154.847 93.8346 154.602 93.0029 154.163 92.1228 
       153.528 91.6831 152.892 91.047 152.013 90.6065 150.938 90.1668 
       149.863 88.455 149.032 87.38 147.713 86.9396 146.393 86.4991 
       144.928 86.3035 143.608 86.3035 142.093 86.6947 140.823 86.9396 
       139.308 87.5756 137.988 88.2109 135.398 89.7271 132.809 91.6831 
       130.854 93.8346 129.387 95.7905 129.387 97.7464 129.583 99.4575 
       128.264 100.777 126.993 101.854 126.358 103.565 126.358 104.836 
       126.554 106.157 126.749 107.672 124.208 108.748 121.569 109.824"
       style="stroke:none; fill:#ffffff; fill-opacity:1.0"></polygon>
      <polygon points="136.698 89.9698 136.698 89.7254 136.894 89.7254 
       136.894 89.5295 137.138 89.3337 139.681 88.4515 142.322 87.8153 
       143.594 87.5709 144.915 87.5709 146.186 87.8153 147.703 88.0112 
       149.219 89.5295 150.295 90.8019 151.567 91.4882 152.447 92.1243 
       153.083 92.7605 153.524 93.6427 153.768 94.5233 153.768 95.3561 
       153.524 96.4334 153.083 97.5106 152.447 97.9517 152.007 98.392 
       151.811 98.8323 151.567 99.4693 153.524 99.4693 155.285 99.6651 
       156.801 100.106 158.316 100.791 158.512 101.428 158.512 102.065 
       158.316 101.869 157.632 100.791 156.801 100.351 156.116 100.106 
       155.285 99.9104 154.403 99.6651 152.643 99.6651 150.931 99.9104 
       151.567 98.1476 152.643 96.8737 153.083 96.0416 153.328 95.1602 
       153.328 94.2789 153.083 93.2016 152.007 92.3202 149.415 90.606 
       148.779 89.7254 148.143 89.0884 147.507 88.6474 146.822 88.207 
       145.111 87.8153 143.398 87.8153 141.638 88.207 139.925 88.6474 
       138.214 89.3337 136.698 89.9698"
       style="stroke:none; fill:#80b59d; fill-opacity:1.0"></polygon>
      <polygon points="148.773 99.6244 148.576 100.083 148.328 100.541 
       149.663 100.541 150.948 100.541 149.021 100.796 147.044 100.796 
       147.044 100.541 147.044 100.338 147.884 100.083 148.773 99.6244"
       style="stroke:none; fill:#49976d; fill-opacity:1.0"></polygon>
      <polygon points="153.057 97.4772 152.614 98.1215 152.418 98.5669 
       152.221 99.0124 152.418 99.4586 153.942 99.4586 155.27 99.4586 
       156.547 99.6567 158.071 100.103 158.317 100.548 158.317 100.796 
       156.793 100.103 155.27 99.6567 153.5 99.4586 151.533 99.4586 
       151.779 98.8142 151.976 98.3688 152.418 97.9234 153.057 97.4772"
       style="stroke:none; fill:#98c4b5; fill-opacity:1.0"></polygon>
      <polygon points="130.207 100.113 130.207 97.9554 130.207 95.798 
       130.846 94.7186 131.534 93.8368 132.173 93.0029 133.058 92.1203 
       134.779 90.796 136.941 89.7181 136.745 89.7181 136.745 89.9629 
       136.499 90.159 136.499 90.3552 135.221 90.796 133.696 91.8755 
       132.419 93.0029 131.73 94.0816 131.092 95.1602 130.65 96.0428 
       130.65 98.1516 130.207 100.113"
       style="stroke:none; fill:#a8ccbb; fill-opacity:1.0"></polygon>
      <polygon points="153.083 97.5159 153.524 96.4382 153.768 95.3606 
       153.768 94.5275 153.524 93.6465 153.083 92.764 152.447 92.1276 
       151.567 91.4912 150.295 90.8047 149.219 89.5319 147.702 88.013 
       146.186 87.8171 144.915 87.5725 143.594 87.5725 142.322 87.8171 
       139.68 88.4535 137.137 89.3359 137.137 89.0906 140.12 87.8171 
       143.398 87.1313 145.746 87.1313 147.507 87.3766 148.142 87.8171 
       148.779 88.4535 149.415 89.0906 150.295 90.3642 151.371 90.6087 
       152.251 91.05 153.083 91.6872 153.768 92.3236 154.159 93.2053 
       154.599 94.087 154.599 95.1647 154.403 96.4382 153.083 98.1531 
       152.887 98.8381 156.556 99.2793 157.877 99.2793 158.072 99.6712 
       158.072 100.112 156.556 99.6712 155.285 99.4752 153.964 99.4752 
       152.447 99.4752 152.251 99.034 152.447 98.5935 152.642 98.1531 
       153.083 97.5159"
       style="stroke:none; fill:#a8ccbb; fill-opacity:1.0"></polygon>
      <polygon points="131.719 94.1099 132.41 93.0221 133.691 91.8853 
       135.22 90.7968 136.502 90.3522 134.135 92.1321 131.719 94.1099"
       style="stroke:none; fill:#88bca4; fill-opacity:1.0"></polygon>
      <polygon points="115.804 76.1932 115.804 75.7541 115.608 75.5588 
       115.608 74.6797 115.364 73.8007 115.364 73.6054 115.364 73.1662 
       115.168 70.3822 114.534 67.5498 113.85 64.9619 112.775 62.1779 
       112.58 61.2989 112.336 60.2245 112.336 59.7846 112.14 59.5893 
       112.14 58.711 111.945 58.0758 111.505 56.5623 110.869 55.4871 
       110.186 54.6089 109.551 53.7783 108.671 53.0946 107.841 52.4601 
       106.766 52.0202 105.643 51.8249 103.542 51.3849 101.148 51.5803 
       98.7541 51.8249 96.1654 52.0202 93.1366 53.7783 90.547 55.4871 
       88.2022 57.4405 86.2481 59.5893 84.7341 62.1779 83.4639 64.7666 
       82.3892 67.7936 81.266 71.2128 81.0706 74.2398 81.0706 77.0731 
       80.8752 80.1001 80.6305 82.8841 80.1905 83.7631 79.5558 84.3976 
       78.6764 84.8375 78.041 85.0328 77.2109 84.8375 76.3316 84.5929 
       75.6961 83.9584 75.013 83.0794 75.2568 79.6609 75.2568 76.3886 
       75.4522 73.1662 75.6961 69.6986 76.527 66.9153 77.6017 64.1313 
       78.6764 61.738 79.7512 59.3455 81.266 57.1967 82.78 55.048 
       84.7341 52.8992 86.8835 50.5067 86.6881 49.8714 86.0527 49.0412 
       85.418 48.1622 84.5387 47.0878 82.5846 44.8902 81.266 43.6205 
       80.6305 42.302 79.9951 41.0323 79.7512 39.7137 79.3604 38.444 
       79.1165 36.0999 79.3604 33.707 79.7512 31.5582 80.6305 29.1653 
       81.9491 26.7724 83.2201 24.1841 84.5387 22.9144 86.0527 21.4005 
       87.3236 20.1308 88.8376 19.0076 90.547 17.9332 92.0618 17.103 
       93.5766 16.224 95.3353 15.5891 97.0447 15.1496 98.7541 14.7101 
       100.708 14.7101 102.418 14.7101 104.372 14.9542 106.083 15.1496 
       108.037 15.7844 110.186 16.6635 112.14 17.9332 114.094 19.4471 
       115.804 21.6447 117.318 24.1841 118.833 27.0165 119.907 30.0443 
       120.543 33.0721 120.982 36.0999 120.982 37.565 120.787 39.0789 
       120.543 40.3974 120.347 41.9113 118.833 44.06 117.562 46.0135 
       116.048 47.918 114.29 49.8714 114.729 50.7505 116.048 52.4601 
       117.318 55.927 118.198 59.5893 118.833 63.057 119.467 66.9153 
       120.103 69.6986 120.787 72.531 121.421 75.315 122.301 78.342 
       121.861 79.4172 121.421 80.2954 120.982 80.9307 120.103 81.1752 
       119.467 81.1752 118.637 81.1752 117.758 80.7353 116.879 80.1001 
       116.488 78.1467 115.804 76.1932"
       style="stroke:none; fill:#2d2629; fill-opacity:1.0"></polygon>
      <polygon points="111.955 58.0547 112.15 58.6906 112.15 59.5696 
       110.439 58.0547 108.924 56.7354 108.045 55.2197 107.164 54.1443 
       106.089 53.5085 105.013 53.069 103.743 52.8734 102.228 53.069 
       100.712 53.069 99.1972 53.313 99.1972 53.5085 97.9263 53.7533 
       96.4107 54.1443 95.5317 54.3891 94.4556 54.5846 93.5765 55.0242 
       92.9407 55.6592 90.7901 57.1749 88.8349 58.9346 87.9551 60.01 
       87.3201 61.0853 86.6843 62.3562 86.244 63.4801 86.6843 65.3868 
       87.3201 66.9025 87.3201 67.5375 87.1246 68.2219 86.6843 68.8577 
       86.0485 69.6883 84.7291 70.1278 84.0933 70.5681 83.4583 71.0084 
       83.0188 71.448 82.5785 71.8875 82.383 72.5233 82.1382 73.5987 
       81.9427 74.9188 82.383 75.7494 82.774 76.3845 83.4583 77.0696 
       84.0933 77.7046 85.4134 78.3397 87.1246 78.9755 88.8349 80.4904 
       90.5453 81.6151 91.4259 82.0061 92.3049 82.2501 93.5765 82.4456 
       94.8959 82.2501 98.5614 82.0061 102.423 81.6151 105.894 80.9307 
       109.559 79.6598 109.804 79.6598 110 79.6598 108.289 80.7352 
       106.968 81.371 103.303 81.6151 99.833 82.0061 96.1667 82.4456 
       92.5004 82.8859 91.4259 82.6412 90.5453 82.4456 89.7147 82.0061 
       88.8349 81.371 87.5641 80.0994 86.244 78.9755 84.7291 78.1442 
       83.2143 77.2651 82.5785 76.6293 82.1382 76.189 81.9427 75.5539 
       81.6987 74.9188 81.5031 74.0382 81.6987 73.1592 82.1382 72.083 
       82.774 71.0084 84.5336 69.9323 86.8798 68.6129 86.6843 66.9025 
       86.244 65.1913 86.0485 64.3114 86.0485 63.4801 86.0485 62.601 
       86.244 61.5249 88.3946 59.1301 90.3498 57.1749 92.5004 55.4637 
       94.6511 54.3891 97.0465 53.313 99.6375 52.8734 102.423 52.4339 
       105.649 52.4339 107.164 53.069 108.045 53.9488 108.68 55.0242 
       109.559 56.5399 110.635 57.1749 111.955 58.0547"
       style="stroke:none; fill:#e9d1d2; fill-opacity:1.0"></polygon>
      <polygon points="84.0973 70.5388 84.0973 70.7348 84.0973 70.9802 
       83.4609 71.8615 83.0204 72.499 82.7751 73.1364 82.5792 73.7731 
       82.5792 74.4591 82.7751 75.0966 83.0204 75.5372 83.2163 75.9778 
       84.0973 76.8113 85.4202 77.6934 86.6938 78.33 87.9674 78.7715 
       88.6532 79.8495 89.2904 80.4862 90.1713 81.173 91.0044 81.6137 
       92.7185 82.0057 94.9231 82.2503 93.601 82.4463 92.3266 82.2503 
       91.4457 82.0057 90.5632 81.6137 88.8491 80.4862 87.1351 78.9675 
       85.4202 78.33 84.0973 77.6934 83.4609 77.0567 82.7751 76.3699 
       82.3832 75.7332 81.942 74.9005 82.1379 73.5771 82.3832 72.499 
       82.5792 71.8615 83.0204 71.4209 83.4609 70.9802 84.0973 70.5388"
       style="stroke:none; fill:#e4bbbc; fill-opacity:1.0"></polygon>
      <polygon points="87.9449 78.7664 88.3845 79.2086 89.0697 79.405 
       90.34 80.4841 91.6119 81.3684 93.5674 81.6134 95.3273 81.6134 
       97.2336 81.6134 98.9935 81.3684 101.585 81.172 104.176 80.7299 
       107.402 79.8463 110.629 78.7664 111.704 78.3243 112.584 77.8829 
       113.464 77.2452 114.1 76.3609 114.979 74.8891 115.37 73.7597 
       115.615 74.6432 115.615 75.5268 115.175 76.3609 114.296 77.2452 
       113.464 78.1279 112.584 78.7664 111.068 78.9628 109.553 79.65 
       105.887 80.9262 102.416 81.6134 98.5531 82.0061 94.887 82.2511 
       92.6866 82.0061 90.976 81.6134 90.1445 81.172 89.2653 80.4841 
       88.6294 79.8463 87.9449 78.7664"
       style="stroke:none; fill:#d69d9d; fill-opacity:1.0"></polygon>
      <polygon points="89.0765 79.4163 87.1214 78.1441 85.1663 77.0691 
       84.2857 76.3837 83.8947 75.5528 83.4552 74.4771 83.4552 72.9616 
       83.8947 72.0806 84.5305 71.6409 84.9708 71.0056 85.8013 70.5651 
       87.1214 69.4893 88.3914 68.4136 88.1959 66.4576 87.9519 64.7465 
       87.7564 63.8655 87.7564 63.0347 87.9519 61.9589 88.3914 60.8346 
       91.4226 57.8021 92.3017 57.4109 90.151 59.5624 88.6362 61.5184 
       88.1959 62.595 88.1959 63.8655 88.3914 65.1862 88.8317 66.7025 
       88.8317 67.7775 88.6362 68.6092 88.1959 69.2937 87.7564 69.929 
       86.2408 70.7607 84.5305 71.885 83.8947 73.1572 83.8947 74.4771 
       84.0902 75.3087 84.5305 76.1881 86.4363 77.5088 88.6362 78.5846 
       90.151 79.6604 91.6182 80.9317 93.8173 81.3722 96.1634 81.3722 
       96.1634 81.1766 96.1634 80.9317 99.1938 80.7361 102.224 80.4913 
       105.01 80.1001 108.041 79.4163 109.996 78.5846 111.315 77.7044 
       112.342 77.0691 113.221 76.1881 113.857 75.3087 114.102 74.0366 
       114.297 72.5211 114.541 70.5651 114.737 71.2012 114.981 71.885 
       114.981 72.0806 114.981 72.2762 114.541 74.0366 114.102 76.3837 
       112.586 77.7044 110.631 78.7802 107.405 79.856 104.179 80.7361 
       101.589 80.9317 98.9983 81.3722 97.2387 81.6163 95.3329 81.6163 
       93.5733 81.6163 91.6182 81.3722 90.3466 80.4913 89.0765 79.4163"
       style="stroke:none; fill:#c15d5c; fill-opacity:1.0"></polygon>
      <polygon points="92.3011 57.417 93.8168 56.5378 95.5279 55.657 
       97.483 55.0219 99.3889 54.3867 101.344 54.1419 103.104 53.9464 
       104.179 54.1419 105.01 54.3867 105.645 54.8263 106.525 55.2174 
       107.16 56.7333 107.845 58.2485 108.92 58.9329 109.996 59.324 
       110.875 60.0084 111.706 60.8399 112.586 63.4791 113.026 64.115 
       113.221 64.5061 113.466 65.1905 113.661 66.4616 114.541 70.5682 
       114.297 72.5237 114.102 74.0388 113.857 75.3106 113.221 76.1898 
       112.342 77.0706 111.315 77.7058 109.996 78.5857 108.041 79.4172 
       105.01 80.1009 102.224 80.492 99.1934 80.7368 96.1629 80.9323 
       96.1629 81.1772 96.1629 81.3727 93.8168 81.3727 91.6176 80.9323 
       90.1505 79.6613 88.6356 78.5857 86.4357 77.5102 84.5298 76.1898 
       84.0895 75.3106 83.894 74.4792 83.894 73.1596 84.5298 71.8877 
       86.2402 70.7637 87.7558 69.9322 88.1953 69.2971 88.6356 68.6126 
       88.8311 67.7812 88.8311 66.7064 88.3908 65.1905 88.1953 63.8702 
       88.1953 62.5999 88.6356 61.5235 90.1505 59.568 92.3011 57.417"
       style="stroke:none; fill:#b22a28; fill-opacity:1.0"></polygon>
      <polygon points="98.974 81.3727 101.585 80.8996 104.196 80.6895 
       101.585 81.1626 98.974 81.3727"
       style="stroke:none; fill:#cf7b7a; fill-opacity:1.0"></polygon>
      <polygon points="93.1322 80.2987 92.0567 79.859 91.226 79.2237 
       90.5408 78.5877 89.7101 77.7075 87.9502 76.8274 86.2387 76.1913 
       85.6036 75.556 85.164 74.9208 84.9684 74.2354 84.9684 73.1605 
       87.1195 71.6442 88.8301 70.3729 89.2705 69.6883 89.7101 68.8575 
       90.1497 67.5369 90.1497 66.0206 89.7101 65.1898 89.466 64.114 
       89.2705 63.2339 89.466 62.3537 89.9056 61.7177 90.3452 60.8383 
       90.9812 60.2022 91.6171 59.3221 93.377 58.2464 95.0877 57.1706 
       97.0432 56.2905 98.7538 55.6544 103.741 55.4588 105.256 55.6544 
       105.647 58.4912 106.527 61.278 107.407 60.6427 108.043 60.2022 
       108.922 60.2022 109.999 60.6427 111.318 64.114 112.589 67.9765 
       113.029 70.128 113.224 72.0839 113.029 74.0398 112.589 75.7516 
       110.194 77.2678 108.043 78.3428 105.647 78.9789 103.301 79.6634 
       98.3142 80.1031 93.1322 80.2987"
       style="stroke:none; fill:#aa2926; fill-opacity:1.0"></polygon>
      <polygon points="109.515 79.6647 111.052 78.9435 112.59 78.7374 
       112.342 78.7374 112.342 78.9435 111.052 79.4075 109.962 79.6647 
       109.763 79.6647 109.515 79.6647"
       style="stroke:none; fill:#e4c4c4; fill-opacity:1.0"></polygon>
      <polygon points="87.9536 78.7843 86.6827 78.3439 85.4118 77.7087 
       84.0917 76.8286 83.2126 75.9971 83.0171 75.5574 82.7723 75.1178 
       82.5768 74.4818 82.5768 73.7973 82.7723 73.1621 83.0171 72.5261 
       83.4566 71.8901 84.0917 71.0109 85.1678 70.3749 86.8782 69.6904 
       87.3186 69.0552 87.7581 68.4192 87.7581 67.9788 87.7581 67.3436 
       87.5626 66.2679 87.123 64.7527 87.3186 62.797 87.9536 60.8413 
       89.0782 59.5694 90.3484 58.2497 91.62 56.9785 92.9394 55.658 
       94.6498 54.8272 96.4095 54.1427 97.9252 53.7516 99.1961 53.5068 
       100.271 53.5068 101.592 53.5068 103.938 53.5068 105.648 53.9472 
       106.333 54.3876 106.968 55.0228 107.603 55.9028 108.288 56.9785 
       109.999 58.2497 111.709 59.5694 112.15 60.0098 112.345 60.2053 
       112.589 61.281 112.785 62.161 113.029 63.2366 113.029 64.1167 
       112.589 63.4807 111.709 60.8413 111.514 60.4502 111.074 59.7649 
       110.878 59.3253 110.195 58.9342 109.363 58.2497 108.288 57.6137 
       107.603 56.294 106.968 55.4624 106.089 54.8272 105.257 54.1427 
       104.377 53.7516 103.302 53.5068 102.422 53.5068 101.347 53.5068 
       99.0006 53.9472 96.8498 54.5832 94.6498 55.658 92.6946 56.5388 
       92.4991 56.9785 92.3036 57.4181 91.4245 57.8092 88.3931 60.8413 
       87.9536 61.9655 87.7581 63.0411 87.7581 63.8718 87.9536 64.7527 
       88.1976 66.4635 88.3931 68.4192 87.123 69.4948 85.8029 70.5704 
       84.9723 71.0109 84.532 71.6461 83.8962 72.0857 83.4566 72.9665 
       83.4566 74.4818 83.8962 75.5574 84.2872 76.3882 85.1678 77.0735 
       87.123 78.1483 89.0782 79.4203 88.3931 79.2247 87.9536 78.7843"
       style="stroke:none; fill:#cf7b7a; fill-opacity:1.0"></polygon>
      <polygon points="112.297 78.9814 112.297 78.7835 112.544 78.7835 
       113.435 78.1396 114.277 77.2494 115.167 76.3576 115.613 75.5166 
       115.811 75.7145 115.811 76.1596 115.167 77.0514 114.277 78.1396 
       112.989 78.7835 112.297 78.9814"
       style="stroke:none; fill:#eacaca; fill-opacity:1.0"></polygon>
      <polygon points="110.589 78.7859 112.568 77.6905 114.102 76.3458 
       113.459 77.2428 112.568 77.8896 111.677 78.3374 110.589 78.7859"
       style="stroke:none; fill:#c86c6b; fill-opacity:1.0"></polygon>
      <polygon points="138.854 78.347 138.854 77.0773 139.05 75.7576 
       138.609 75.1227 137.974 74.0469 136.703 72.0923 134.308 68.4277 
       133.672 65.8375 133.428 63.248 133.428 60.854 133.672 58.7039 
       134.112 56.5538 134.748 54.4038 135.823 52.009 137.143 49.4191 
       138.854 47.5134 140.81 45.7542 142.961 44.2394 145.307 42.7245 
       147.702 41.6495 150.292 41.0143 151.564 40.8188 152.884 40.8188 
       154.154 40.8188 155.475 41.0143 156.549 41.8938 157.626 42.7245 
       158.505 43.7996 159.141 44.8746 160.46 47.0736 161.292 49.4191 
       161.976 52.009 162.171 54.5992 162.367 57.1887 162.611 59.7782 
       161.732 61.7328 160.851 63.4919 159.581 65.2026 158.309 66.9133 
       156.794 68.2323 155.279 69.6982 153.519 70.7733 151.808 71.8968 
       150.292 72.0923 149.218 72.5324 148.337 72.9726 147.702 73.412 
       147.262 74.2423 147.067 75.3182 147.067 76.3924 147.067 77.7122 
       145.111 77.5167 142.961 77.7122 141.005 77.9076 138.854 78.347"
       style="stroke:none; fill:#ffffff; fill-opacity:1.0"></polygon>
      <polygon points="45.3075 77.7126 43.7928 77.2732 42.2773 76.8329 
       40.9572 76.3927 39.8828 75.7578 39.0515 75.1229 38.1717 74.4872 
       37.5368 73.6075 36.901 72.7278 36.4607 71.6527 36.0212 70.5775 
       35.7773 69.5024 35.5818 68.2318 35.3863 65.3973 35.3863 62.3673 
       35.7773 60.217 36.4607 58.2622 37.0965 56.1119 37.9762 54.1571 
       38.8067 52.2515 39.8828 50.2967 41.202 48.5859 42.4728 47.0709 
       43.9883 45.5559 45.503 44.4808 47.2133 43.7966 48.9728 43.3567 
       50.9278 43.1613 52.8343 43.6011 55.0333 44.4808 57.1838 45.5559 
       58.8948 45.7514 60.4103 45.5559 61.4848 46.1912 62.5608 46.6311 
       63.4398 47.2664 64.0756 47.9017 65.3463 49.4167 66.2261 51.1756 
       66.8618 52.8865 67.3013 55.0368 67.5453 56.9916 67.9856 59.1419 
       67.7408 64.7624 67.7408 67.7915 67.7408 69.3069 67.5453 69.9418 
       66.4708 71.6527 65.1508 72.9726 63.6353 74.0469 61.925 74.9274 
       58.2598 76.3927 54.3498 77.2732 52.0038 77.2732 50.2443 77.2732 
       48.3378 77.5171 45.3075 77.7126"
       style="stroke:none; fill:#ffffff; fill-opacity:1.0"></polygon>
      <polygon points="114.054 76.3946 114.51 74.0242 114.966 72.2465 
       115.169 72.6913 115.372 73.1361 115.372 73.5802 115.372 73.7777 
       114.966 74.9139 114.054 76.3946"
       style="stroke:none; fill:#c86c6b; fill-opacity:1.0"></polygon>
      <polygon points="105.232 73.1741 104.541 72.7323 104.147 72.2906 
       104.147 71.6535 104.147 71.4573 104.788 70.3784 105.873 69.2995 
       105.873 68.2207 105.873 67.338 104.985 66.2591 104.344 65.1802 
       104.344 64.7392 104.541 64.2975 104.985 63.8557 105.626 63.2186 
       106.07 63.2186 106.514 63.2186 107.154 64.1013 107.599 65.3764 
       108.289 66.897 108.683 68.4168 108.93 69.9367 108.93 71.2125 
       108.683 71.8983 108.486 72.5362 108.043 72.7323 107.599 73.1741 
       106.317 73.1741 105.232 73.1741"
       style="stroke:none; fill:#b22a28; fill-opacity:1.0"></polygon>
      <polygon points="114.973 72.291 114.973 72.0949 114.973 71.8989 
       114.725 70.1343 114.278 68.4191 113.83 66.7039 113.432 65.184 
       113.183 64.4978 112.984 64.1056 112.984 63.2233 112.736 62.145 
       113.83 64.9393 114.526 67.5368 115.172 70.3798 115.371 73.1741 
       115.172 72.7325 114.973 72.291"
       style="stroke:none; fill:#6d282a; fill-opacity:1.0"></polygon>
      <polygon points="106.064 72.9793 105.617 72.5342 105.221 72.2867 
       105.221 71.4471 105.617 70.5577 106.064 69.915 106.956 69.0264 
       107.154 69.0264 107.601 69.0264 108.048 70.3601 108.295 71.6448 
       107.849 72.0891 107.402 72.5342 106.757 72.7318 106.064 72.9793"
       style="stroke:none; fill:#ba3d3b; fill-opacity:1.0"></polygon>
      <polygon points="106.062 72.2953 105.862 72.2953 105.611 72.2953 
       105.862 71.4472 106.062 70.5488 106.511 70.3492 107.412 70.0992 
       107.412 70.9984 107.612 71.896 106.961 72.2953 106.062 72.2953"
       style="stroke:none; fill:#c86c6b; fill-opacity:1.0"></polygon>
      <polygon points="106.294 71.9053 106.294 71.4472 106.294 70.9891 
       106.759 70.734 107.173 70.734 107.173 71.1929 107.173 71.651 
       106.759 71.9053 106.294 71.9053"
       style="stroke:none; fill:#cf8484; fill-opacity:1.0"></polygon>
      <polygon points="114.528 70.5783 113.621 66.4488 113.419 65.1707 
       113.822 66.695 114.276 68.4153 114.729 70.1355 114.981 71.9053 
       114.729 71.2178 114.528 70.5783"
       style="stroke:none; fill:#822829; fill-opacity:1.0"></polygon>
      <polygon points="84.0892 71.0268 84.0892 70.7735 84.0892 70.5711 
       84.7351 70.1153 86.0752 69.6604 86.4725 69.6604 86.9197 69.6604 
       85.1823 70.3687 84.0892 71.0268"
       style="stroke:none; fill:#dda5a5; fill-opacity:1.0"></polygon>
      <polygon points="86.0413 69.7088 86.6806 68.8767 87.1233 68.2397 
       87.3198 67.5541 87.3198 66.9179 86.6806 65.3994 86.2379 63.4892 
       86.6806 62.3633 87.3198 61.0901 87.9583 60.0127 88.8429 58.9354 
       90.8087 57.1725 92.9711 55.654 91.6446 56.9766 90.366 58.2498 
       89.089 59.5716 87.9583 60.8456 87.3198 61.9715 87.1233 62.8044 
       87.1233 63.6851 87.1233 64.7632 87.5652 66.2809 87.7617 67.3582 
       87.7617 67.9945 87.7617 68.4356 87.3198 69.0726 86.8771 69.7088 
       86.4344 69.7088 86.0413 69.7088"
       style="stroke:none; fill:#ddadad; fill-opacity:1.0"></polygon>
      <polygon points="105.875 66.0495 105.62 65.8453 105.416 65.8453 
       105.416 65.3862 105.62 64.927 105.875 64.927 106.079 64.927 
       106.334 65.3862 106.538 66.0495 106.079 66.0495 105.875 66.0495"
       style="stroke:none; fill:#ba3d3b; fill-opacity:1.0"></polygon>
      <polygon points="87.9941 60.8277 87.3225 62.8042 87.1157 64.7806 
       87.1157 63.6928 87.1157 62.8042 87.3225 61.9638 87.9941 60.8277"
       style="stroke:none; fill:#d69494; fill-opacity:1.0"></polygon>
      <polygon points="92.2879 57.4365 92.4835 56.9948 92.6792 56.5531 
       94.6362 55.6681 96.8381 54.5882 98.9907 53.9492 101.339 53.5068 
       102.415 53.5068 103.296 53.5068 104.372 53.7528 105.253 54.1457 
       106.085 54.8334 106.965 55.4716 107.601 56.3071 108.286 57.633 
       109.362 58.2719 110.195 58.9596 110.879 59.3526 111.074 59.7943 
       111.515 60.4828 111.711 60.8758 110.879 60.0403 109.999 59.3526 
       108.922 58.9596 107.846 58.2719 107.161 56.7496 106.525 55.2264 
       105.644 54.8334 105.008 54.3917 104.177 54.1457 103.1 53.9492 
       101.339 54.1457 99.3821 54.3917 97.4745 55.0299 95.5176 55.6681 
       93.8049 56.5531 92.2879 57.4365"
       style="stroke:none; fill:#c15454; fill-opacity:1.0"></polygon>
      <polygon points="111.708 59.6027 110.631 58.5227 109.357 57.6376 
       107.594 55.476 106.321 53.9535 105.439 53.757 104.361 53.511 
       103.284 53.3145 101.57 53.511 100.247 53.511 99.1692 53.511 
       99.1692 53.3145 100.687 53.0692 102.206 53.0692 103.725 52.8727 
       104.998 53.0692 106.076 53.511 107.153 54.15 108.035 55.2308 
       108.916 56.7541 110.435 58.0802 112.15 59.6027 112.346 59.7992 
       112.346 60.2417 112.15 60.0452 111.708 59.6027"
       style="stroke:none; fill:#d69d9d; fill-opacity:1.0"></polygon>
      <polygon points="101.561 53.5083 103.277 53.3115 104.356 53.5083 
       105.435 53.7546 106.317 53.9513 107.592 55.4756 109.358 57.6396 
       110.633 58.5257 111.712 59.6069 109.996 58.2794 108.279 57.0006 
       107.592 55.9186 106.954 55.0333 106.317 54.3944 105.631 53.9513 
       103.915 53.5083 101.561 53.5083"
       style="stroke:none; fill:#cf8484; fill-opacity:1.0"></polygon>
      <polygon points="92.9227 55.7032 93.5665 55.0486 94.4566 54.5955 
       95.5463 54.3939 96.4364 54.1416 94.6546 54.847 92.9227 55.7032"
       style="stroke:none; fill:#dda5a5; fill-opacity:1.0"></polygon>
      <polygon points="92.0561 47.3094 89.9053 45.1582 87.7546 42.7626 
       86.6792 41.4914 85.7994 40.1714 85.1643 38.6558 84.724 37.3846 
       84.9688 35.2334 85.4084 33.0823 86.2389 31.1266 87.1196 29.171 
       88.1941 27.4599 89.4658 25.9443 90.9807 24.4287 92.4956 23.3531 
       94.2068 22.2775 95.9665 21.3975 97.9217 20.9574 99.8284 20.5174 
       102.028 20.5174 103.934 20.7619 106.085 21.3975 108.284 22.2775 
       109.115 22.9131 109.996 23.5486 110.875 24.4287 111.315 25.0642 
       112.342 27.0199 113.466 29.4155 114.297 31.9578 114.981 34.7934 
       115.176 36.309 115.176 37.8246 114.981 39.0958 114.737 40.6114 
       113.466 42.127 112.146 43.6426 110.875 45.1582 109.996 46.8694 
       107.6 46.2338 105.254 45.7938 103.103 45.5982 100.903 45.5982 
       98.7523 45.7938 96.6016 46.2338 94.4508 46.6738 92.0561 47.3094"
       style="stroke:none; fill:#ffffff; fill-opacity:1.0"></polygon>
    </g>
  </symbol>
  <symbol id="_002asrv01f58d8si5vb5" xml:space="preserve" class="METIS_SYMBOL">
   <title>Object open</title>
    <rect x="0" y="0" width="1024" height="256"
     style=" stroke:#000000; stroke-width:1; fill:#ffffff; fill-opacity:1.0"     class="TAG:canvas"></rect>
    <g>
      <desc>METIS_TEXT_GROUP</desc>
      <text  x="16" y="78"
       style=" stroke:#000000; stroke-width:1; font-family:sans-serif; font-size:64;"
       class="TAG:text">text</text>
      <rect x="16" y="16" width="992" height="224"
       style=" stroke:#000000; stroke-width:1; fill:#ffffff; fill-opacity:0.0"></rect>
    </g>
  </symbol>
 </defs>
 <use xlink:href="#_002asrv01f58d8emo9te"/>
</svg>
