<?xml version="1.0"?>
<?metis version="3.6"?>
<?metisxml version="1.1"?>
<!DOCTYPE svg  PUBLIC "-//W3C//DTD SVG August 1999//EN"
 "http://www.w3.org/Graphics/SVG/svg-19990812.dtd">



<!--
Troux Technologies, Inc. Confidential and Proprietary.
This work contains valuable confidential, proprietary and trade secret
information of Troux Technologies, Inc. and is protected by the laws of 
the United States and other countries. Any disclosure, use or reproduction
of this work without the prior written authorization of Troux Technologies, Inc.
is strictly prohibited.
Copyright (C) 2000-2006 Troux Technologies, Inc. All rights reserved.
-->


<svg
 width="200" height="200">
 <title>Symbol library: database_stored_procedure.svg</title>
 <defs>
  <symbol id="oid1" xml:space="preserve" class="METIS_SYMBOL">
   <title>Database Stored Procedure</title>
    <polygon points="844.91 0.00214249 844.91 280.137 110.919 280.137 
     113.513 0 844.91 0.00214249 "
     style=" stroke:#6e6eff; stroke-width:1; fill:#e1fcff; fill-opacity:100%"></polygon>
    <rect x="185.822" y="42.0222" width="659.088" height="196.094"
     style=" stroke:#4b4bff; stroke-width:1; fill:#c8c8ff; fill-opacity:100%"     class="TAG:canvas"></rect>
    <g>
      <desc>METIS_TEXT_GROUP</desc>
      <text  x="236.385" y="61.0823"
       style=" stroke:#000000; stroke-width:1; font-family:sans-serif; font-size:16;"
       class="TAG:text">text</text>
      <rect x="236.385" y="46.0823" width="603.668" height="86.5275"
       style=" stroke:#000000; stroke-width:1; fill:#ffffff; fill-opacity:0%"></rect>
    </g>
    <g>
      <desc>METIS_TEXT_GROUP</desc>
      <text  x="241.199" y="135.631"
       style=" stroke:#000000; stroke-width:1; font-family:sans-serif; font-size:8;"
       class="TAG:query_string">query_string</text>
      <rect x="241.199" y="128.631" width="600.942" height="101.185"
       style=" stroke:#000000; stroke-width:1; fill:#c8c8ff; fill-opacity:100%"></rect>
    </g>
    <g>
      <g>
	<polygon points="0 34.241 0 246.278 1.83123 252.361 
	 9.15615 259.024 19.6203 264.816 37.4094 270.609 58.861 275.244 
	 84.7598 278.431 110.92 279.59 128.448 279.3 149.638 277.853 
	 166.904 276.403 190.971 270.609 207.714 265.396 221.84 257.863 
	 227.334 251.493 228.904 245.699 228.904 33.9513 0 34.241 
	 0 34.241 0 34.241 0 34.241 0 34.241 
	 0 34.241 0 34.241 0 34.241 0 34.241 
	 0 34.241 0 34.241 0 34.241 0 34.241 "
	 style=" stroke:#000000; stroke-width:1; fill:#00a500; fill-opacity:100%"	 class="TAG:DBBody"></polygon>
	<ellipse  cx="114.452" cy="33.9898" rx="114.393" ry="33.9877"
	 style=" stroke:#000000; stroke-width:1; fill:#4bff4b; fill-opacity:100%"	 class="TAG:DBLid"></ellipse>
      </g>
      <g>
	<polygon points="78.5574 55.1636 55.5961 50.8136 30.0192 58.3526 
	 33.7977 52.8436 44.5516 46.7546 41.0639 40.9556 45.7142 35.4468 
	 80.8825 12.8304 87.858 11.0907 93.671 16.3098 100.065 17.1797 
	 105.878 13.1204 112.854 15.15 114.888 22.9787 121.282 25.8783 
	 131.164 23.8486 137.558 28.7778 137.558 38.0566 142.79 42.4056 
	 154.126 42.9856 158.777 48.2046 157.904 56.9036 161.393 61.2526 
	 171.564 62.9926 175.634 68.5016 172.437 78.0696 175.925 83.5786 
	 184.934 84.7386 187.841 91.1176 183.48 97.4966 185.516 103.005 
	 195.978 107.065 198.014 113.733 190.748 118.083 191.619 123.012 
	 201.21 128.521 201.501 132.581 192.491 139.828 201.791 147.077 
	 200.339 152.877 190.166 159.546 194.816 165.345 190.457 170.564 
	 178.83 175.493 179.121 178.682 151.219 199.269 143.371 199.269 
	 139.593 194.34 129.711 201.009 123.317 199.269 119.829 190.571 
	 114.016 186.221 101.519 189.701 95.7054 187.091 94.8336 175.493 
	 90.7644 171.143 76.232 172.013 71.8725 166.795 73.6164 153.747 
	 70.7097 150.267 57.6307 149.688 54.4336 144.758 56.4682 133.74 
	 54.4336 130.26 41.0639 126.201 38.448 121.272 46.2955 111.703 
	 44.5516 107.934 30.0192 100.685 29.1473 94.3066 37.8667 88.7976 
	 37.2855 84.7386 27.6941 79.8096 27.1128 74.8806 34.6696 69.9506 
	 30.0192 58.3526 55.5961 51.3936 78.5574 56.0336 78.5574 60.0926 
	 79.4293 68.5016 81.1732 76.9106 84.0795 85.3186 91.927 101.555 
	 102.1 116.922 113.726 130.26 125.933 141.569 137.849 149.978 
	 143.371 152.877 151.219 155.486 165.752 122.142 111.982 54.5836 
	 78.5574 55.1636 78.5574 55.1636 78.5574 55.1636 78.5574 55.1636 
	 78.5574 55.1636 78.5574 55.1636 78.5574 55.1636 78.5574 55.1636 
	 78.5574 55.1636 78.5574 55.1636 78.5574 55.1636 78.5574 55.1636 78.5574 55.1636 "
	 style="stroke:none; fill:#0085ff; fill-opacity:100%"></polygon>
	<polyline points="78.5574 55.1636 55.5961 50.8136 30.0192 58.3526 
	 33.7977 52.8436 44.5516 46.7546 41.0639 40.9556 45.7142 35.4468 
	 80.8825 12.8304 87.858 11.0907 93.671 16.3098 100.065 17.1797 
	 105.878 13.1204 112.854 15.15 114.888 22.9787 121.282 25.8783 
	 131.164 23.8486 137.558 28.7778 137.558 38.0566 142.79 42.4056 
	 154.126 42.9856 158.777 48.2046 157.904 56.9036 161.393 61.2526 
	 171.564 62.9926 175.634 68.5016 172.437 78.0696 175.925 83.5786 
	 184.934 84.7386 187.841 91.1176 183.48 97.4966 185.516 103.005 
	 195.978 107.065 198.014 113.733 190.748 118.083 191.619 123.012 
	 201.21 128.521 201.501 132.581 192.491 139.828 201.791 147.077 
	 200.339 152.877 190.166 159.546 194.816 165.345 190.457 170.564 
	 178.83 175.493 179.121 178.682 151.219 199.269 143.371 199.269 
	 139.593 194.34 129.711 201.009 123.317 199.269 119.829 190.571 
	 114.016 186.221 101.519 189.701 95.7054 187.091 94.8336 175.493 
	 90.7644 171.143 76.232 172.013 71.8725 166.795 73.6164 153.747 
	 70.7097 150.267 57.6307 149.688 54.4336 144.758 56.4682 133.74 
	 54.4336 130.26 41.0639 126.201 38.448 121.272 46.2955 111.703 
	 44.5516 107.934 30.0192 100.685 29.1473 94.3066 37.8667 88.7976 
	 37.2855 84.7386 27.6941 79.8096 27.1128 74.8806 34.6696 69.9506 
	 30.0192 58.3526 55.5961 51.3936 78.5574 56.0336 78.5574 60.0926 
	 79.4293 68.5016 81.1732 76.9106 84.0795 85.3186 91.927 101.555 
	 102.1 116.922 113.726 130.26 125.933 141.569 137.849 149.978 
	 143.371 152.877 151.219 155.486 165.752 122.142 111.982 54.5836 
	 78.5574 55.1636 78.5574 55.1636 78.5574 55.1636"
	 style=" stroke:#0085ff; stroke-width:1;"></polyline>
	<polyline points="179.16 178.422 172.179 180.452 167.816 173.783 
	 161.707 173.783 157.055 181.032 151.236 180.162 146.874 172.333 
	 139.02 169.432 128.55 172.623 123.314 168.562 122.151 156.673 
	 117.207 152.902 105.282 152.612 101.791 148.841 100.628 135.211 
	 97.7192 132.022 86.0849 131.44 82.0128 126.51 85.2123 115.2 
	 82.8856 112.01 71.2512 108.82 68.0518 103.89 74.1596 94.9006 
	 72.4145 90.5496 60.7804 83.5896 58.4533 75.7596 65.4341 71.6996 
	 64.8523 67.9296 57.29 60.9686 57.29 54.5886 66.3066 52.2686 
	 66.3066 49.6586 60.4893 42.4086 61.6529 36.6086 69.7969 37.1886 
	 70.6694 34.8679 65.4341 26.4578 69.5059 20.6575 78.8133 24.4277 
	 82.0128 22.1076 80.5584 13.1173"
	 style=" stroke:#000000; stroke-width:1;"></polyline>
	<polyline points="144.049 199.562 171.905 179.874"
	 style=" stroke:#000000; stroke-width:1;"></polyline>
	<polyline points="139.696 194.64 157.397 180.454"
	 style=" stroke:#000000; stroke-width:1;"></polyline>
	<polyline points="124.028 199.272 151.302 179.874"
	 style=" stroke:#000000; stroke-width:1;"></polyline>
	<polyline points="119.675 190.587 146.95 172.058"
	 style=" stroke:#000000; stroke-width:1;"></polyline>
	<polyline points="114.162 186.244 138.826 169.452"
	 style=" stroke:#000000; stroke-width:1;"></polyline>
	<polyline points="101.975 189.717 128.96 171.768"
	 style=" stroke:#000000; stroke-width:1;"></polyline>
	<polyline points="95.8819 186.823 123.448 168.293"
	 style=" stroke:#000000; stroke-width:1;"></polyline>
	<polyline points="95.0113 175.242 122.286 156.714"
	 style=" stroke:#000000; stroke-width:1;"></polyline>
	<polyline points="76.1505 171.479 105.747 152.082"
	 style=" stroke:#000000; stroke-width:1;"></polyline>
	<polyline points="72.9588 167.137 102.266 147.739"
	 style=" stroke:#000000; stroke-width:1;"></polyline>
	<polyline points="57.8704 149.765 86.3066 131.237"
	 style=" stroke:#000000; stroke-width:1;"></polyline>
	<polyline points="54.3883 144.265 82.8243 125.447"
	 style=" stroke:#000000; stroke-width:1;"></polyline>
	<polyline points="41.0408 126.025 71.508 108.655"
	 style=" stroke:#000000; stroke-width:1;"></polyline>
	<polyline points="38.7194 121.393 68.6062 103.443"
	 style=" stroke:#000000; stroke-width:1;"></polyline>
	<polyline points="46.2636 111.55 74.1194 94.7596"
	 style=" stroke:#000000; stroke-width:1;"></polyline>
	<polyline points="45.1029 108.076 72.6687 90.4166"
	 style=" stroke:#000000; stroke-width:1;"></polyline>
	<polyline points="30.5948 100.838 60.772 83.1786"
	 style=" stroke:#000000; stroke-width:1;"></polyline>
	<polyline points="37.5587 88.9686 59.0309 75.6516"
	 style=" stroke:#000000; stroke-width:1;"></polyline>
	<polyline points="28.2734 79.7046 57.5802 60.8866"
	 style=" stroke:#000000; stroke-width:1;"></polyline>
	<polyline points="34.9472 69.8616 57.5799 54.5166"
	 style=" stroke:#000000; stroke-width:1;"></polyline>
	<polyline points="30.0144 58.2806 60.4817 42.3576"
	 style=" stroke:#000000; stroke-width:1;"></polyline>
	<polyline points="44.5226 46.9896 62.2226 36.8566"
	 style=" stroke:#000000; stroke-width:1;"></polyline>
	<polyline points="41.3308 41.1996 65.7047 26.4347"
	 style=" stroke:#000000; stroke-width:1;"></polyline>
	<polyline points="37.2686 85.2046 64.8343 67.8346"
	 style=" stroke:#000000; stroke-width:1;"></polyline>
	<polyline points="178.6 175.532 177.708 168.97 182.464 165.689 
	 189.895 170.461"
	 style=" stroke:#000000; stroke-width:1;"></polyline>
	<polyline points="199.761 152.995 191.13 151.792 188.154 157.204 
	 189.939 159.61"
	 style=" stroke:#000000; stroke-width:1;"></polyline>
	<polyline points="191.926 139.922 192.824 133.007 201.212 132.105"
	 style=" stroke:#000000; stroke-width:1;"></polyline>
	<polyline points="191.056 123.131 198.019 113.577"
	 style=" stroke:#000000; stroke-width:1;"></polyline>
	<polyline points="70.6377 34.5411 66.2852 37.1466"
	 style=" stroke:#000000; stroke-width:1;"></polyline>
	<polygon points="70.3474 20.54 80.7635 13.6963 81.954 22.0278 
	 78.9779 24.4083 70.3474 20.54 70.3474 20.54 70.3474 20.54 
	 70.3474 20.54 70.3474 20.54 70.3474 20.54 70.3474 20.54 
	 70.3474 20.54 70.3474 20.54 70.3474 20.54 70.3474 20.54 
	 70.3474 20.54 70.3474 20.54 "
	 style="stroke:none; fill:#001221; fill-opacity:100%"></polygon>
	<polyline points="70.3474 20.54 80.7635 13.6963 81.954 22.0278 
	 78.9779 24.4083 70.3474 20.54 70.3474 20.54 70.3474 20.54"
	 style=" stroke:#001221; stroke-width:1;"></polyline>
	<polygon points="27.7 79.1256 27.4029 75.2116 39.8801 71.5986 
	 27.7 79.1256 27.7 79.1256 27.7 79.1256 27.7 79.1256 
	 27.7 79.1256 27.7 79.1256 27.7 79.1256 27.7 79.1256 
	 27.7 79.1256 27.7 79.1256 27.7 79.1256 27.7 79.1256 27.7 79.1256 "
	 style="stroke:none; fill:#001221; fill-opacity:100%"></polygon>
	<polyline points="27.7 79.1256 27.4029 75.2116 39.8801 71.5986 
	 27.7 79.1256 27.7 79.1256 27.7 79.1256"
	 style=" stroke:#001221; stroke-width:1;"></polyline>
	<polygon points="28.8538 79.9346 57.5228 61.7546 64.544 67.9126 
	 37.3374 84.6266 28.8538 79.9346 28.8538 79.9346 28.8538 79.9346 
	 28.8538 79.9346 28.8538 79.9346 28.8538 79.9346 28.8538 79.9346 
	 28.8538 79.9346 28.8538 79.9346 28.8538 79.9346 28.8538 79.9346 
	 28.8538 79.9346 28.8538 79.9346 "
	 style="stroke:none; fill:#001221; fill-opacity:100%"></polygon>
	<polyline points="28.8538 79.9346 57.5228 61.7546 64.544 67.9126 
	 37.3374 84.6266 28.8538 79.9346 28.8538 79.9346 28.8538 79.9346"
	 style=" stroke:#001221; stroke-width:1;"></polyline>
	<polygon points="38.1452 88.3906 37.5587 85.1576 64.8281 68.4136 
	 65.4145 71.6446 38.1452 88.3906 38.1452 88.3906 38.1452 88.3906 
	 38.1452 88.3906 38.1452 88.3906 38.1452 88.3906 38.1452 88.3906 
	 38.1452 88.3906 38.1452 88.3906 38.1452 88.3906 38.1452 88.3906 
	 38.1452 88.3906 38.1452 88.3906 "
	 style="stroke:none; fill:#001221; fill-opacity:100%"></polygon>
	<polyline points="38.1452 88.3906 37.5587 85.1576 64.8281 68.4136 
	 65.4145 71.6446 38.1452 88.3906 38.1452 88.3906 38.1452 88.3906"
	 style=" stroke:#001221; stroke-width:1;"></polyline>
	<polygon points="41.9112 41.4146 65.3639 27.0137 70.3474 34.6552 
	 65.9501 36.7126 61.5526 36.4186 44.5495 46.4106 41.9112 41.4146 
	 41.9112 41.4146 41.9112 41.4146 41.9112 41.4146 41.9112 41.4146 
	 41.9112 41.4146 41.9112 41.4146 41.9112 41.4146 41.9112 41.4146 
	 41.9112 41.4146 41.9112 41.4146 41.9112 41.4146 41.9112 41.4146 "
	 style="stroke:none; fill:#001221; fill-opacity:100%"></polygon>
	<polyline points="41.9112 41.4146 65.3639 27.0137 70.3474 34.6552 
	 65.9501 36.7126 61.5526 36.4186 44.5495 46.4106 41.9112 41.4146 
	 41.9112 41.4146 41.9112 41.4146"
	 style=" stroke:#001221; stroke-width:1;"></polyline>
	<polygon points="66.8653 37.1466 70.6375 35.1201 70.0089 37.1466 
	 66.8653 37.1466 66.8653 37.1466 66.8653 37.1466 66.8653 37.1466 
	 66.8653 37.1466 66.8653 37.1466 66.8653 37.1466 66.8653 37.1466 
	 66.8653 37.1466 66.8653 37.1466 66.8653 37.1466 66.8653 37.1466 66.8653 37.1466 "
	 style="stroke:none; fill:#000065; fill-opacity:100%"></polygon>
	<polyline points="66.8653 37.1466 70.6375 35.1201 70.0089 37.1466 
	 66.8653 37.1466 66.8653 37.1466 66.8653 37.1466"
	 style=" stroke:#000065; stroke-width:1;"></polyline>
	<polygon points="57.8704 55.0266 66.9325 52.4036 67.225 49.7806 
	 61.0859 41.9136 62.2552 36.9596 70.4405 37.8336 71.3175 34.9195 
	 65.7632 26.4688 69.5635 21.2236 97.0426 32.0054 95.5808 32.2968 
	 92.6575 32.8797 90.0266 33.7539 87.9802 34.9195 85.9339 36.6676 
	 84.1801 38.4166 82.7183 40.4556 81.5491 42.4956 79.7951 47.4496 
	 78.918 52.9866 78.6257 61.4376 78.918 65.8076 76.8718 58.8146 
	 57.8704 55.0266 57.8704 55.0266 57.8704 55.0266 57.8704 55.0266 
	 57.8704 55.0266 57.8704 55.0266 57.8704 55.0266 57.8704 55.0266 
	 57.8704 55.0266 57.8704 55.0266 57.8704 55.0266 57.8704 55.0266 57.8704 55.0266 "
	 style="stroke:none; fill:#83c2ff; fill-opacity:100%"></polygon>
	<polygon points="34.9829 69.2826 30.5948 58.4516 60.7266 42.9366 
	 66.2848 49.6696 65.9924 52.0116 57.2161 54.3536 34.9829 69.2826 
	 34.9829 69.2826 34.9829 69.2826 34.9829 69.2826 34.9829 69.2826 
	 34.9829 69.2826 34.9829 69.2826 34.9829 69.2826 34.9829 69.2826 
	 34.9829 69.2826 34.9829 69.2826 34.9829 69.2826 34.9829 69.2826 "
	 style="stroke:none; fill:#001221; fill-opacity:100%"></polygon>
	<polyline points="34.9829 69.2826 30.5948 58.4516 60.7266 42.9366 
	 66.2848 49.6696 65.9924 52.0116 57.2161 54.3536 34.9829 69.2826 
	 34.9829 69.2826 34.9829 69.2826"
	 style=" stroke:#001221; stroke-width:1;"></polyline>
	<polygon points="30.3118 100.549 29.7243 94.6336 53.2275 86.9426 
	 30.3118 100.549 30.3118 100.549 30.3118 100.549 30.3118 100.549 
	 30.3118 100.549 30.3118 100.549 30.3118 100.549 30.3118 100.549 
	 30.3118 100.549 30.3118 100.549 30.3118 100.549 30.3118 100.549 30.3118 100.549 "
	 style="stroke:none; fill:#001221; fill-opacity:100%"></polygon>
	<polyline points="30.3118 100.549 29.7243 94.6336 53.2275 86.9426 
	 30.3118 100.549 30.3118 100.549 30.3118 100.549"
	 style=" stroke:#001221; stroke-width:1;"></polyline>
	<polygon points="31.4653 101.047 60.6919 83.7576 71.7982 90.7916 
	 44.9098 107.786 31.4653 101.047 31.4653 101.047 31.4653 101.047 
	 31.4653 101.047 31.4653 101.047 31.4653 101.047 31.4653 101.047 
	 31.4653 101.047 31.4653 101.047 31.4653 101.047 31.4653 101.047 
	 31.4653 101.047 31.4653 101.047 "
	 style="stroke:none; fill:#001221; fill-opacity:100%"></polygon>
	<polyline points="31.4653 101.047 60.6919 83.7576 71.7982 90.7916 
	 44.9098 107.786 31.4653 101.047 31.4653 101.047 31.4653 101.047"
	 style=" stroke:#001221; stroke-width:1;"></polyline>
	<polygon points="46.5684 111.261 45.1029 108.324 72.6566 90.9956 
	 73.8294 94.5196 46.5684 111.261 46.5684 111.261 46.5684 111.261 
	 46.5684 111.261 46.5684 111.261 46.5684 111.261 46.5684 111.261 
	 46.5684 111.261 46.5684 111.261 46.5684 111.261 46.5684 111.261 
	 46.5684 111.261 46.5684 111.261 "
	 style="stroke:none; fill:#001221; fill-opacity:100%"></polygon>
	<polyline points="46.5684 111.261 45.1029 108.324 72.6566 90.9956 
	 73.8294 94.5196 46.5684 111.261 46.5684 111.261 46.5684 111.261"
	 style=" stroke:#001221; stroke-width:1;"></polyline>
	<polygon points="39.2998 120.525 46.6391 111.706 64.2538 101.417 
	 39.2998 120.525 39.2998 120.525 39.2998 120.525 39.2998 120.525 
	 39.2998 120.525 39.2998 120.525 39.2998 120.525 39.2998 120.525 
	 39.2998 120.525 39.2998 120.525 39.2998 120.525 39.2998 120.525 39.2998 120.525 "
	 style="stroke:none; fill:#001221; fill-opacity:100%"></polygon>
	<polyline points="39.2998 120.525 46.6391 111.706 64.2538 101.417 
	 39.2998 120.525 39.2998 120.525 39.2998 120.525"
	 style=" stroke:#001221; stroke-width:1;"></polyline>
	<polygon points="41.0595 125.447 39.0096 121.323 70.6373 108.365 
	 41.0595 125.447 41.0595 125.447 41.0595 125.447 41.0595 125.447 
	 41.0595 125.447 41.0595 125.447 41.0595 125.447 41.0595 125.447 
	 41.0595 125.447 41.0595 125.447 41.0595 125.447 41.0595 125.447 41.0595 125.447 "
	 style="stroke:none; fill:#001221; fill-opacity:100%"></polygon>
	<polyline points="41.0595 125.447 39.0096 121.323 70.6373 108.365 
	 41.0595 125.447 41.0595 125.447 41.0595 125.447"
	 style=" stroke:#001221; stroke-width:1;"></polyline>
	<polygon points="59.321 149.334 86.4977 131.527 97.6021 132.11 
	 100.524 135.614 72.4711 166.557 74.2244 153.128 71.01 149.917 
	 59.321 149.334 59.321 149.334 59.321 149.334 59.321 149.334 
	 59.321 149.334 59.321 149.334 59.321 149.334 59.321 149.334 
	 59.321 149.334 59.321 149.334 59.321 149.334 59.321 149.334 59.321 149.334 "
	 style="stroke:none; fill:#001221; fill-opacity:100%"></polygon>
	<polyline points="59.321 149.334 86.4977 131.527 97.6021 132.11 
	 100.524 135.614 72.4711 166.557 74.2244 153.128 71.01 149.917 
	 59.321 149.334 59.321 149.334 59.321 149.334"
	 style=" stroke:#001221; stroke-width:1;"></polyline>
	<polyline points="70.6373 150.344 97.9128 131.816"
	 style=" stroke:#000000; stroke-width:1;"></polyline>
	<polyline points="73.5391 153.529 100.814 135.29"
	 style=" stroke:#000000; stroke-width:1;"></polyline>
	<polygon points="41.9112 125.878 71.7093 108.945 82.8106 112.156 
	 84.8555 115.368 55.0576 143.396 56.8102 133.469 55.0576 129.675 
	 41.9112 125.878 41.9112 125.878 41.9112 125.878 41.9112 125.878 
	 41.9112 125.878 41.9112 125.878 41.9112 125.878 41.9112 125.878 
	 41.9112 125.878 41.9112 125.878 41.9112 125.878 41.9112 125.878 41.9112 125.878 "
	 style="stroke:none; fill:#001221; fill-opacity:100%"></polygon>
	<polyline points="41.9112 125.878 71.7093 108.945 82.8106 112.156 
	 84.8555 115.368 55.0576 143.396 56.8102 133.469 55.0576 129.675 
	 41.9112 125.878 41.9112 125.878 41.9112 125.878"
	 style=" stroke:#001221; stroke-width:1;"></polyline>
	<polyline points="53.8077 129.79 83.1145 111.84"
	 style=" stroke:#000000; stroke-width:1;"></polyline>
	<polyline points="56.1293 133.843 85.1456 115.603"
	 style=" stroke:#000000; stroke-width:1;"></polyline>
	<polygon points="191.388 122.262 190.476 118.354 196.859 114.445 
	 191.388 122.262 191.388 122.262 191.388 122.262 191.388 122.262 
	 191.388 122.262 191.388 122.262 191.388 122.262 191.388 122.262 
	 191.388 122.262 191.388 122.262 191.388 122.262 191.388 122.262 191.388 122.262 "
	 style="stroke:none; fill:#001221; fill-opacity:100%"></polygon>
	<polyline points="191.388 122.262 190.476 118.354 196.859 114.445 
	 191.388 122.262 191.388 122.262 191.388 122.262"
	 style=" stroke:#001221; stroke-width:1;"></polyline>
	<polygon points="192.507 139.343 193.407 133.29 200.921 132.684 
	 192.507 139.343 192.507 139.343 192.507 139.343 192.507 139.343 
	 192.507 139.343 192.507 139.343 192.507 139.343 192.507 139.343 
	 192.507 139.343 192.507 139.343 192.507 139.343 192.507 139.343 192.507 139.343 "
	 style="stroke:none; fill:#001221; fill-opacity:100%"></polygon>
	<polyline points="192.507 139.343 193.407 133.29 200.921 132.684 
	 192.507 139.343 192.507 139.343 192.507 139.343"
	 style=" stroke:#001221; stroke-width:1;"></polyline>
	<polygon points="190.235 159.32 188.444 157.209 191.429 152.082 
	 198.891 153.287 190.235 159.32 190.235 159.32 190.235 159.32 
	 190.235 159.32 190.235 159.32 190.235 159.32 190.235 159.32 
	 190.235 159.32 190.235 159.32 190.235 159.32 190.235 159.32 
	 190.235 159.32 190.235 159.32 "
	 style="stroke:none; fill:#001221; fill-opacity:100%"></polygon>
	<polyline points="190.235 159.32 188.444 157.209 191.429 152.082 
	 198.891 153.287 190.235 159.32 190.235 159.32 190.235 159.32"
	 style=" stroke:#001221; stroke-width:1;"></polyline>
	<polygon points="178.893 174.953 177.999 169.262 182.171 166.267 
	 189.024 170.461 178.893 174.953 178.893 174.953 178.893 174.953 
	 178.893 174.953 178.893 174.953 178.893 174.953 178.893 174.953 
	 178.893 174.953 178.893 174.953 178.893 174.953 178.893 174.953 
	 178.893 174.953 178.893 174.953 "
	 style="stroke:none; fill:#001221; fill-opacity:100%"></polygon>
	<polyline points="178.893 174.953 177.999 169.262 182.171 166.267 
	 189.024 170.461 178.893 174.953 178.893 174.953 178.893 174.953"
	 style=" stroke:#001221; stroke-width:1;"></polyline>
	<polygon points="77.6016 171.436 105.665 152.951 116.774 152.951 
	 95.1414 174.663 91.6333 170.556 77.6016 171.436 77.6016 171.436 
	 77.6016 171.436 77.6016 171.436 77.6016 171.436 77.6016 171.436 
	 77.6016 171.436 77.6016 171.436 77.6016 171.436 77.6016 171.436 
	 77.6016 171.436 77.6016 171.436 77.6016 171.436 "
	 style="stroke:none; fill:#001221; fill-opacity:100%"></polygon>
	<polyline points="77.6016 171.436 105.665 152.951 116.774 152.951 
	 95.1414 174.663 91.6333 170.556 77.6016 171.436 77.6016 171.436 
	 77.6016 171.436"
	 style=" stroke:#001221; stroke-width:1;"></polyline>
	<polyline points="90.6587 171.189 117.354 152.371"
	 style=" stroke:#000000; stroke-width:1;"></polyline>
	<polygon points="143.792 198.982 140.277 194.589 157.849 180.824 
	 162.243 173.795 167.514 173.795 171.614 179.652 143.792 198.982 
	 143.792 198.982 143.792 198.982 143.792 198.982 143.792 198.982 
	 143.792 198.982 143.792 198.982 143.792 198.982 143.792 198.982 
	 143.792 198.982 143.792 198.982 143.792 198.982 143.792 198.982 "
	 style="stroke:none; fill:#001221; fill-opacity:100%"></polygon>
	<polyline points="143.792 198.982 140.277 194.589 157.849 180.824 
	 162.243 173.795 167.514 173.795 171.614 179.652 143.792 198.982 
	 143.792 198.982 143.792 198.982"
	 style=" stroke:#001221; stroke-width:1;"></polyline>
	<polygon points="123.478 198.982 120.256 191.077 146.621 172.926 
	 150.723 179.952 123.478 198.982 123.478 198.982 123.478 198.982 
	 123.478 198.982 123.478 198.982 123.478 198.982 123.478 198.982 
	 123.478 198.982 123.478 198.982 123.478 198.982 123.478 198.982 
	 123.478 198.982 123.478 198.982 "
	 style="stroke:none; fill:#001221; fill-opacity:100%"></polygon>
	<polyline points="123.478 198.982 120.256 191.077 146.621 172.926 
	 150.723 179.952 123.478 198.982 123.478 198.982 123.478 198.982"
	 style=" stroke:#001221; stroke-width:1;"></polyline>
	<polygon points="113.661 185.916 105.167 188.271 128.598 172.965 
	 136.505 170.61 113.661 185.916 113.661 185.916 113.661 185.916 
	 113.661 185.916 113.661 185.916 113.661 185.916 113.661 185.916 
	 113.661 185.916 113.661 185.916 113.661 185.916 113.661 185.916 
	 113.661 185.916 113.661 185.916 "
	 style="stroke:none; fill:#001221; fill-opacity:100%"></polygon>
	<polyline points="113.661 185.916 105.167 188.271 128.598 172.965 
	 136.505 170.61 113.661 185.916 113.661 185.916 113.661 185.916"
	 style=" stroke:#001221; stroke-width:1;"></polyline>
	<polygon points="78.4721 56.0206 82.5458 56.6006 90.6935 58.6326 
	 98.2588 61.5336 105.824 65.5966 112.808 70.5296 119.5 76.3336 
	 131.431 89.3916 141.033 104.48 147.726 120.44 150.054 128.565 
	 151.509 136.4 152.091 144.235 151.218 155.552 155 156.422 
	 162.276 157.293 168.095 156.422 172.751 154.39 176.533 151.199 
	 179.153 146.557 180.898 141.333 181.48 135.239 181.48 128.275 
	 180.317 121.021 175.952 105.35 168.677 89.1006 154.418 67.3376 
	 145.689 57.4716 134.632 47.6056 121.829 39.4796 115.427 36.2876 
	 109.026 33.6764 102.914 32.5157 97.095 31.9354 91.8573 32.8058 
	 87.2015 35.1273 83.4187 38.8996 80.509 44.4126 78.4721 56.0206 
	 78.4721 56.0206 78.4721 56.0206 78.4721 56.0206 78.4721 56.0206 
	 78.4721 56.0206 78.4721 56.0206 78.4721 56.0206 78.4721 56.0206 
	 78.4721 56.0206 78.4721 56.0206 78.4721 56.0206 78.4721 56.0206 "
	 style="stroke:none; fill:#83c2ff; fill-opacity:100%"></polygon>
	<polyline points="78.4721 56.0206 82.5458 56.6006 90.6935 58.6326 
	 98.2588 61.5336 105.824 65.5966 112.808 70.5296 119.5 76.3336 
	 131.431 89.3916 141.033 104.48 147.726 120.44 150.054 128.565 
	 151.509 136.4 152.091 144.235 151.218 155.552 155 156.422 
	 162.276 157.293 168.095 156.422 172.751 154.39 176.533 151.199 
	 179.153 146.557 180.898 141.333 181.48 135.239 181.48 128.275 
	 180.317 121.021 175.952 105.35 168.677 89.1006 154.418 67.3376 
	 145.689 57.4716 134.632 47.6056 121.829 39.4796 115.427 36.2876 
	 109.026 33.6764 102.914 32.5157 97.095 31.9354 91.8573 32.8058 
	 87.2015 35.1273 83.4187 38.8996 80.509 44.4126 78.4721 56.0206 
	 78.4721 56.0206 78.4721 56.0206"
	 style=" stroke:#83c2ff; stroke-width:1;"></polyline>
	<polygon points="150.839 92.2616 164.904 83.1786 168.712 90.2106 
	 142.928 107.496 138.826 100.172 150.839 92.2616 150.839 92.2616 
	 150.839 92.2616 150.839 92.2616 150.839 92.2616 150.839 92.2616 
	 150.839 92.2616 150.839 92.2616 150.839 92.2616 150.839 92.2616 
	 150.839 92.2616 150.839 92.2616 150.839 92.2616 "
	 style="stroke:none; fill:#001221; fill-opacity:100%"></polygon>
	<polyline points="150.839 92.2616 164.904 83.1786 168.712 90.2106 
	 142.928 107.496 138.826 100.172 150.839 92.2616 150.839 92.2616 
	 150.839 92.2616"
	 style=" stroke:#001221; stroke-width:1;"></polyline>
	<polygon points="146.08 116.131 173.048 98.5236 174.807 103.218 
	 147.546 119.946 146.08 116.131 146.08 116.131 146.08 116.131 
	 146.08 116.131 146.08 116.131 146.08 116.131 146.08 116.131 
	 146.08 116.131 146.08 116.131 146.08 116.131 146.08 116.131 
	 146.08 116.131 146.08 116.131 "
	 style="stroke:none; fill:#001221; fill-opacity:100%"></polygon>
	<polyline points="146.08 116.131 173.048 98.5236 174.807 103.218 
	 147.546 119.946 146.08 116.131 146.08 116.131 146.08 116.131"
	 style=" stroke:#001221; stroke-width:1;"></polyline>
	<polygon points="150.143 127.964 177.978 112.129 180.03 120.339 
	 151.608 135.001 150.143 127.964 150.143 127.964 150.143 127.964 
	 150.143 127.964 150.143 127.964 150.143 127.964 150.143 127.964 
	 150.143 127.964 150.143 127.964 150.143 127.964 150.143 127.964 
	 150.143 127.964 150.143 127.964 "
	 style="stroke:none; fill:#001221; fill-opacity:100%"></polygon>
	<polyline points="150.143 127.964 177.978 112.129 180.03 120.339 
	 151.608 135.001 150.143 127.964 150.143 127.964 150.143 127.964"
	 style=" stroke:#001221; stroke-width:1;"></polyline>
	<polygon points="152.469 145.892 181.189 132.394 180.898 137.09 
	 180.311 141.198 180.018 142.078 151.883 154.108 152.469 145.892 
	 152.469 145.892 152.469 145.892 152.469 145.892 152.469 145.892 
	 152.469 145.892 152.469 145.892 152.469 145.892 152.469 145.892 
	 152.469 145.892 152.469 145.892 152.469 145.892 152.469 145.892 "
	 style="stroke:none; fill:#001221; fill-opacity:100%"></polygon>
	<polyline points="152.469 145.892 181.189 132.394 180.898 137.09 
	 180.311 141.198 180.018 142.078 151.883 154.108 152.469 145.892 
	 152.469 145.892 152.469 145.892"
	 style=" stroke:#001221; stroke-width:1;"></polyline>
	<polyline points="151.593 155.267 179.739 143.396"
	 style=" stroke:#000000; stroke-width:1;"></polyline>
	<polyline points="153.915 156.425 177.128 146.871"
	 style=" stroke:#000000; stroke-width:1;"></polyline>
	<polygon points="152.174 136.99 180.317 122.841 180.609 125.199 
	 152.174 139.053 152.174 136.99 152.174 136.99 152.174 136.99 
	 152.174 136.99 152.174 136.99 152.174 136.99 152.174 136.99 
	 152.174 136.99 152.174 136.99 152.174 136.99 152.174 136.99 
	 152.174 136.99 152.174 136.99 "
	 style="stroke:none; fill:#001221; fill-opacity:100%"></polygon>
	<polyline points="152.174 136.99 180.317 122.841 180.609 125.199 
	 152.174 139.053 152.174 136.99 152.174 136.99 152.174 136.99"
	 style=" stroke:#001221; stroke-width:1;"></polyline>
	<polygon points="153.334 66.5776 127.991 84.3376 116.047 72.4006 
	 103.522 63.9576 93.6174 59.2996 87.2088 56.9706 79.0524 55.5146 
	 79.6349 51.4386 80.5088 46.1976 81.3828 43.5776 82.5479 41.2486 
	 84.0046 39.2106 85.461 37.4636 87.2088 35.7166 89.2478 34.5525 
	 91.8697 33.388 94.4914 32.8056 97.4045 32.5146 100.609 32.8056 
	 104.104 33.0967 110.222 34.5525 123.913 41.2486 138.187 51.4386 
	 148.091 60.7546 153.334 66.5776 153.334 66.5776 153.334 66.5776 
	 153.334 66.5776 153.334 66.5776 153.334 66.5776 153.334 66.5776 
	 153.334 66.5776 153.334 66.5776 153.334 66.5776 153.334 66.5776 
	 153.334 66.5776 153.334 66.5776 "
	 style="stroke:none; fill:#001221; fill-opacity:100%"></polygon>
	<polyline points="153.334 66.5776 127.991 84.3376 116.047 72.4006 
	 103.522 63.9576 93.6174 59.2996 87.2088 56.9706 79.0524 55.5146 
	 79.6349 51.4386 80.5088 46.1976 81.3828 43.5776 82.5479 41.2486 
	 84.0046 39.2106 85.461 37.4636 87.2088 35.7166 89.2478 34.5525 
	 91.8697 33.388 94.4914 32.8056 97.4045 32.5146 100.609 32.8056 
	 104.104 33.0967 110.222 34.5525 123.913 41.2486 138.187 51.4386 
	 148.091 60.7546 153.334 66.5776 153.334 66.5776 153.334 66.5776"
	 style=" stroke:#001221; stroke-width:1;"></polyline>
      </g>
    </g>
  </symbol>
 </defs>
</svg>
