<?xml version="1.0"?>
<?metis version="3.3"?>
<?metisxml version="1.1"?>
<!DOCTYPE svg  PUBLIC "-//W3C//DTD SVG August 1999//EN"
 "http://www.w3.org/Graphics/SVG/svg-19990812.dtd">

<svg width="200" height="200">
 <title>Symbol library: datastore.svg</title>
 <defs>
  <symbol id="oid0" xml:space="preserve" class="METIS_SYMBOL">
   <title>Database</title>
    <g>
      <polygon points="0 0 0 303.158 16.2963 320 
       880 319.737 880 21.3158 863.704 0 0 0 
       0 0 0 0 0 0 "
       style=" stroke:#000000; stroke-width:1; fill:#9b9b9b; fill-opacity:100%"       class="TAG:shadow"></polygon>
      <rect x="0" y="0" width="243" height="303.158"
       style=" stroke:#000000; stroke-width:1; fill:#ffffff; fill-opacity:100%"       class="TAG:PictureBackground"></rect>
      <rect x="243" y="0" width="621" height="303.158"
       style=" stroke:#000000; stroke-width:1; fill:#b9b9b9; fill-opacity:100%"       class="TAG:canvas"></rect>
      <rect x="250.813" y="26.6447" width="582.187" height="239.803"
       style="stroke:none; fill:#878787; fill-opacity:0%"       class="TAG:grid"></rect>
      <g>
	<desc>METIS_TEXT_GROUP</desc>
	<text  x="255.876" y="15"
	 style=" stroke:#000000; stroke-width:1; font-family:sans-serif; font-size:16;"
	 class="TAG:text">text</text>
	<rect x="255.876" y="0" width="608.124" height="303.158"
	 style=" stroke:#000000; stroke-width:1; fill:#ffffff; fill-opacity:0%"></rect>
      </g>
      <polyline points="864 303.158 880 320"
       style=" stroke:#000000; stroke-width:1;"></polyline>
      <g>
	<polygon points="18.3318 44.9421 19.2646 43.6913 20.6637 42.4403 
	 27.1928 40.2513 37.4529 38.0623 50.5112 36.4986 65.9016 35.2478 
	 82.6905 34.3097 101.345 33.9969 120 33.6842 139.121 33.9969 
	 157.309 34.3097 174.565 35.2478 189.955 36.4986 203.014 38.0623 
	 212.807 40.2513 219.336 42.4403 221.668 44.9421 221.668 71.2104 
	 221.668 108.112 221.679 108.163 221.679 116.505 221.668 116.555 
	 221.668 149.391 221.668 180.349 221.679 180.373 221.679 188.446 
	 221.668 188.479 221.668 190.356 221.668 192.233 221.668 195.985 
	 221.668 199.424 221.668 203.177 221.668 206.617 221.668 210.369 
	 221.668 214.123 221.668 217.563 221.668 221.316 221.668 224.755 
	 221.668 228.507 221.668 232.26 221.668 235.7 221.668 239.453 
	 221.668 243.205 221.668 246.645 222.601 247.271 223.534 248.208 
	 224 249.147 224 250.398 224 251.336 223.534 252.275 
	 222.601 253.212 221.668 254.151 219.803 254.776 218.404 255.715 
	 214.673 256.965 210.476 258.528 205.812 260.093 201.148 261.343 
	 195.551 262.594 189.955 263.845 183.426 265.096 176.897 266.034 
	 169.902 266.972 162.439 267.598 154.511 268.223 146.583 268.848 
	 137.722 269.161 128.861 269.474 119.534 269.474 114.87 269.474 
	 110.206 269.474 100.879 269.161 92.0181 268.536 83.1572 267.911 
	 74.7625 266.972 66.834 266.034 59.3721 265.096 51.9105 263.845 
	 45.3812 262.594 39.3184 261.343 34.1883 260.093 29.5247 258.841 
	 25.3273 257.591 22.0628 256.34 19.7309 255.088 18.3318 254.151 
	 17.8655 253.525 17.3991 252.9 16.9327 252.275 16.4664 251.649 
	 16.4664 251.023 16 250.398 16 249.459 16 248.522 
	 16.4664 247.583 17.3991 246.958 18.3318 246.645 18.3318 188.479 
	 18.2961 188.463 18.2961 180.389 18.3318 180.349 18.3318 149.391 
	 18.3318 116.555 18.2961 116.516 18.2961 108.143 18.3318 108.112 
	 18.3318 71.2104 18.3318 44.9421 18.3318 44.9421 18.3318 44.9421 
	 18.3318 44.9421 18.3318 44.9421 18.3318 44.9421 18.3318 44.9421 "
	 style=" stroke:#000000; stroke-width:1; fill:#a50000; fill-opacity:100%"></polygon>
	<polyline points="221.676 45.0755 221.676 46.08 221.21 47.0846 
	 219.345 49.0938 217.013 50.6006 213.748 52.6098 209.55 54.1167 
	 204.42 55.6236 198.823 57.1305 192.293 58.1351 184.831 59.1397 
	 177.368 60.6465 168.973 61.1488 160.112 62.1534 150.783 62.6558 
	 140.989 63.1579 131.195 63.1579 120.934 63.1579 115.337 63.1579 
	 110.207 63.1579 99.9457 63.1579 90.6181 62.6558 81.2896 62.1534 
	 71.9615 61.6511 63.5668 60.6465 55.6375 59.6419 48.6416 58.6374 
	 41.6457 57.6327 36.0489 56.1259 30.4521 54.6189 26.2544 53.1121 
	 22.9896 51.6053 20.1912 50.0984 18.792 48.0892 18.3256 46.08"
	 style=" stroke:#000000; stroke-width:1;"></polyline>
	<polyline points="221.676 242.113 221.676 242.814 221.21 243.866 
	 219.345 245.269 217.013 246.673 213.748 248.076 209.55 249.829 
	 204.42 251.232 198.823 252.985 192.293 254.388 184.831 255.792 
	 177.368 257.195 168.973 258.246 160.112 259.299 150.783 260 
	 140.989 260.702 131.195 261.053 120.934 261.053 115.337 261.053 
	 110.207 261.053 100.412 260.702 90.6181 260 81.2896 259.299 
	 72.4282 258.246 63.5668 257.195 56.1041 256.142 48.6416 254.739 
	 42.1121 253.336 36.0489 251.934 30.9185 250.531 26.7208 248.777 
	 22.9896 247.374 20.6577 245.971 19.2585 244.217 18.3256 243.164"
	 style=" stroke:#000000; stroke-width:1;"></polyline>
	<ellipse  cx="117.986" cy="48.4211" rx="94.7011" ry="10.5263"
	 style=" stroke:#000000; stroke-width:1; fill:#6e0000; fill-opacity:100%"></ellipse>
      </g>
    </g>
  </symbol>
 </defs>
</svg>
