<?xml version="1.0"?>
<?metis version="3.6"?>
<?metisxml version="1.1"?>
<!DOCTYPE svg  PUBLIC "-//W3C//DTD SVG August 1999//EN"
 "http://www.w3.org/Graphics/SVG/svg-19990812.dtd">



<!--
Troux Technologies, Inc. Confidential and Proprietary.
This work contains valuable confidential, proprietary and trade secret
information of Troux Technologies, Inc. and is protected by the laws of 
the United States and other countries. Any disclosure, use or reproduction
of this work without the prior written authorization of Troux Technologies, Inc.
is strictly prohibited.
Copyright (C) 2000-2006 Troux Technologies, Inc. All rights reserved.
-->


<svg
 width="200" height="200">
 <title>Symbol library: database_symbol_components.svg</title>
 <defs>
  <symbol id="oid1" xml:space="preserve" class="METIS_SYMBOL">
   <title>Database Drum</title>
    <g>
      <polygon points="0 25.9741 0 186.828 1.83123 191.443 
       9.15615 196.497 19.6203 200.891 37.4094 205.286 58.861 208.802 
       84.7598 211.22 110.92 212.099 128.448 211.879 149.638 210.781 
       166.904 209.681 190.971 205.286 207.714 201.331 221.84 195.617 
       227.334 190.784 228.904 186.389 228.904 25.7543 0 25.9741 
       0 25.9741 0 25.9741 0 25.9741 0 25.9741 
       0 25.9741 0 25.9741 0 25.9741 0 25.9741 
       0 25.9741 0 25.9741 0 25.9741 0 25.9741 
       0 25.9741 0 25.9741 0 25.9741 0 25.9741 
       0 25.9741 0 25.9741 0 25.9741 0 25.9741 0 25.9741 "
       style=" stroke:#006e00; stroke-width:1; fill:#00a500; fill-opacity:100%"       class="TAG:DBBody"></polygon>
      <ellipse  cx="114.452" cy="25.7835" rx="114.393" ry="25.7835"
       style=" stroke:#006e00; stroke-width:1; fill:#4bff4b; fill-opacity:100%"       class="TAG:DBLid"></ellipse>
    </g>
  </symbol>
 </defs>
</svg>
