<?xml version="1.0"?>
<?metis version="3.1"?>
<?metisxml version="1.0"?>
<!DOCTYPE svg  PUBLIC "-//W3C//DTD SVG August 1999//EN"
 "http://www.w3.org/Graphics/SVG/svg-19990812.dtd">

<svg width="200" height="200">
 <title>Symbol library: datastore_area.svg</title>
 <defs>
  <symbol id="oid0" xml:space="preserve" class="METIS_SYMBOL">
   <title>Datastore Area</title>
    <g>
      <polygon points="0 0 0 304 16 320 
       880 320 880 16 864 0 0 0 
       0 0 0 0 0 0 0 0 0 0 "
       style=" stroke:#000000; stroke-width:1; fill:#9b9b9b; fill-opacity:100%"       class="TAG:shadow"></polygon>
      <rect x="240" y="0" width="624" height="304"
       style=" stroke:#000000; stroke-width:1; fill:#96a5ff; fill-opacity:100%"       class="TAG:canvas"></rect>
      <g>
	<desc>METIS_TEXT_GROUP</desc>
	<text  x="256" y="15.8"
	 style=" stroke:#000000; stroke-width:1; font-family:sans-serif; font-size:16;"
	 class="TAG:text">text</text>
	<rect x="256" y="0" width="608" height="304"
	 style=" stroke:#000000; stroke-width:1; fill:#ffffff; fill-opacity:0%"></rect>
      </g>
      <polyline points="864 304 880 320"
       style=" stroke:#000000; stroke-width:1;"></polyline>
      <g>
	<rect x="0" y="0" width="240" height="304"
	 style=" stroke:#000000; stroke-width:1; fill:#ffffff; fill-opacity:100%"	 class="TAG:PictureBackground"></rect>
	<g>
	  <polygon points="17.3548 43.4589 18.2886 42.1857 19.6891 40.9125 
	   26.2254 38.6843 36.4965 36.4562 49.5689 34.8647 64.9759 33.5915 
	   81.783 32.6366 100.457 32.3183 119.133 32 138.274 32.3183 
	   156.483 32.6366 173.757 33.5915 189.163 34.8647 202.236 36.4562 
	   212.04 38.6843 218.576 40.9125 220.911 43.4589 220.911 70.1963 
	   220.911 107.756 220.921 107.808 220.921 116.299 220.911 116.35 
	   220.911 149.772 220.911 181.284 220.921 181.307 220.921 189.526 
	   220.911 189.559 220.911 191.469 220.911 193.38 220.911 197.199 
	   220.911 200.7 220.911 204.52 220.911 208.021 220.911 211.841 
	   220.911 215.661 220.911 219.162 220.911 222.982 220.911 226.483 
	   220.911 230.303 220.911 234.122 220.911 237.623 220.911 241.443 
	   220.911 245.262 220.911 248.764 221.844 249.4 222.778 250.356 
	   223.245 251.31 223.245 252.584 223.245 253.538 222.778 254.493 
	   221.844 255.448 220.911 256.403 219.044 257.04 217.643 257.995 
	   213.908 259.268 209.706 260.859 205.037 262.451 200.369 263.724 
	   194.766 264.997 189.163 266.271 182.628 267.544 176.091 268.499 
	   169.089 269.454 161.618 270.09 153.681 270.727 145.745 271.364 
	   136.874 271.682 128.003 272 118.666 272 113.997 272 
	   109.328 272 99.9909 271.682 91.1206 271.045 82.2501 270.408 
	   73.8464 269.454 65.9093 268.499 58.4394 267.544 50.9697 266.271 
	   44.4333 264.997 38.3639 263.724 33.2285 262.451 28.5597 261.178 
	   24.3579 259.905 21.0898 258.631 18.7553 257.358 17.3548 256.403 
	   16.8879 255.766 16.421 255.13 15.9541 254.493 15.4873 253.857 
	   15.4873 253.221 15.0204 252.584 15.0204 251.628 15.0204 250.674 
	   15.4873 249.719 16.421 249.082 17.3548 248.764 17.3548 189.559 
	   17.319 189.542 17.319 181.324 17.3548 181.284 17.3548 149.772 
	   17.3548 116.35 17.319 116.311 17.319 107.789 17.3548 107.756 
	   17.3548 70.1963 17.3548 43.4589 17.3548 43.4589 17.3548 43.4589 
	   17.3548 43.4589 17.3548 43.4589 "
	   style=" stroke:#000000; stroke-width:1; fill:#96a5ff; fill-opacity:100%"></polygon>
	  <polyline points="220.918 43.5946 220.918 44.6171 220.452 45.6397 
	   218.585 47.6847 216.25 49.2185 212.982 51.2635 208.779 52.7973 
	   203.644 54.3311 198.04 55.8649 191.505 56.8874 184.034 57.91 
	   176.563 59.4437 168.159 59.955 159.288 60.9775 149.95 61.4889 
	   140.144 62 130.34 62 120.068 62 114.465 62 
	   109.329 62 99.0568 62 89.7191 61.4889 80.3805 60.9775 
	   71.0424 60.4662 62.6386 59.4437 54.7008 58.4212 47.6973 57.3987 
	   40.6938 56.3762 35.091 54.8424 29.4881 53.3086 25.2859 51.7748 
	   22.0176 50.241 19.2162 48.7073 17.8154 46.6622 17.3486 44.6171"
	   style=" stroke:#000000; stroke-width:1;"></polyline>
	  <polyline points="220.918 244.15 220.918 244.864 220.452 245.935 
	   218.585 247.364 216.25 248.791 212.982 250.219 208.779 252.004 
	   203.644 253.433 198.04 255.218 191.505 256.646 184.034 258.074 
	   176.563 259.502 168.159 260.573 159.288 261.644 149.95 262.358 
	   140.144 263.072 130.34 263.429 120.068 263.429 114.465 263.429 
	   109.329 263.429 99.5244 263.072 89.7191 262.358 80.3805 261.644 
	   71.5096 260.573 62.6386 259.502 55.1678 258.431 47.6973 257.003 
	   41.1607 255.574 35.091 254.146 29.955 252.719 25.7529 250.934 
	   22.0176 249.505 19.6831 248.077 18.2824 246.293 17.3486 245.221"
	   style=" stroke:#000000; stroke-width:1;"></polyline>
	  <polyline points="24.3361 45.9505 24.8031 47.631 26.671 48.8914 
	   29.0059 50.1518 32.7418 50.9921 36.9447 52.2525 41.6145 53.0928 
	   47.6852 53.9331 53.7559 54.7733 60.7608 55.6136 68.2325 56.0337 
	   75.7046 56.4539 84.1102 56.874 92.5163 57.2942 100.921 57.2942 
	   109.795 57.7143 118.667 57.7143 127.539 57.7143 136.413 57.2942 
	   145.285 57.2942 153.223 56.874 161.629 56.4539 169.568 56.0337 
	   177.04 55.1935 184.045 54.7733 190.116 53.9331 196.186 53.0928 
	   200.857 52.2525 205.526 50.9921 208.795 49.7317 211.597 48.8914 
	   212.998 47.631 213.932 45.9505 212.998 45.1102 211.597 43.8498 
	   209.262 43.0095 205.993 41.7491 202.257 41.329 198.055 40.0686 
	   192.918 39.6484 187.314 38.8081 181.71 37.9679 175.172 37.5478 
	   168.168 36.7075 161.163 36.2873 153.691 36.2873 145.752 35.8672 
	   138.281 35.447 129.875 35.447 121.936 35.447 113.53 35.447 
	   105.592 35.447 97.6534 35.447 89.7141 35.8672 81.7752 36.2873 
	   74.3036 36.7075 67.2986 37.5478 60.2937 37.9679 53.2892 38.8081 
	   47.2183 39.6484 41.6145 40.9088 36.4776 41.7491 31.8079 43.4297 
	   27.605 44.6901 24.3361 45.9505 24.3361 45.9505 24.3361 45.9505"
	   style=" stroke:#000000; stroke-width:1;"></polyline>
	</g>
      </g>
    </g>
  </symbol>
 </defs>
</svg>
