<?xml version="1.0"?>
<?metis version="9.1"?>
<?metisxml version="1.2"?>
<!DOCTYPE svg  PUBLIC "-//W3C//DTD SVG 1.0//EN"
 "http://www.w3.org/TR/2001/REC-SVG-20010904/DTD/svg10.dtd">

<svg>
 <title>Symbol library: data_asset.svg</title>
 <defs>
  <symbol id="UUID4_91387E2C-F06F-48AA-B8D9-2B623BF6D84D" xml:space="preserve" class="METIS_SYMBOL">
   <title>Untitled</title>
    <g>
      <g>
	<polygon points="52.859 116.828 52.859 138.302 84.2445 138.302 
	 84.2445 116.828 69.3781 116.828 67.1019 115.177 54.5107 115.177 
	 52.859 116.828"
	 style=" stroke:#878787; stroke-width:1; fill:#dcdc00; fill-opacity:1.0"></polygon>
	<polygon points="52.859 85.4428 52.859 106.917 84.2445 106.917 
	 84.2445 85.4428 69.3781 85.4428 67.7256 83.7908 54.5107 83.7908 
	 52.859 85.4428"
	 style=" stroke:#878787; stroke-width:1; fill:#dcdc00; fill-opacity:1.0"></polygon>
	<polyline points="16.5183 73.8798 16.5183 126.739 52.859 126.739"
	 style=" stroke:#6e6e00; stroke-width:1;"></polyline>
	<polygon points="0 52.4058 0 73.8798 31.3849 73.8798 
	 31.3849 52.4058 16.5183 52.4058 14.8666 50.7541 1.6516 50.7541 
	 0 52.4058"
	 style=" stroke:#878787; stroke-width:1; fill:#a5a500; fill-opacity:1.0"></polygon>
	<polyline points="16.5183 73.8798 16.5183 95.3538 52.859 95.3538"
	 style=" stroke:#6e6e00; stroke-width:1;"></polyline>
	<g>
	  <rect x="13.2149" y="92.0508" width="6.60743" height="6.60741"
	   style=" stroke:#000000; stroke-width:1; fill:#ffffff; fill-opacity:1.0"></rect>
	  <polyline points="16.5183 93.7018 16.5183 97.0058"
	   style=" stroke:#000000; stroke-width:2;"></polyline>
	  <polyline points="14.8666 95.3538 18.1699 95.3538"
	   style=" stroke:#000000; stroke-width:2;"></polyline>
	</g>
	<rect x="13.2149" y="123.436" width="6.60743" height="6.60741"
	 style=" stroke:#000000; stroke-width:1; fill:#ffffff; fill-opacity:1.0"></rect>
	<polyline points="16.5183 125.088 16.5183 128.392"
	 style=" stroke:#000000; stroke-width:2;"></polyline>
	<polyline points="14.8666 126.739 18.1699 126.739"
	 style=" stroke:#000000; stroke-width:2;"></polyline>
      </g>
      <g>
	<ellipse  cx="142.848" cy="168.966" rx="33.2816" ry="8.61929"
	 style=" stroke:#696969; stroke-width:1; fill:#ffcf9f; fill-opacity:1.0"></ellipse>
	<rect x="109.565" y="108.025" width="66.5633" height="60.3348"
	 style=" stroke:#ffcf9f; stroke-width:1; fill:#ffcf9f; fill-opacity:1.0"></rect>
	<polygon points="176.13 109.103 176.107 167.332 176.077 168.29 
	 175.982 169.024 175.714 169.493 175.326 170.109 174.7 170.779 
	 173.952 171.336 172.977 171.928 171.837 172.505 169.368 173.449 
	 166.717 174.259 164.714 174.737 162.804 175.152 162.744 114.75 
	 176.13 109.103"
	 style=" stroke:#e7a98b; stroke-width:1; fill:#e7a98b; fill-opacity:1.0"></polygon>
	<polygon points="149.899 116.411 162.582 114.933 162.809 175.139 
	 161.688 175.41 159.433 175.754 158.56 175.909 157.578 176.025 
	 156.559 176.14 155.614 176.256 154.463 176.372 153.197 176.468 
	 151.668 176.622 150.158 176.699 149.899 116.411"
	 style=" stroke:#f4b392; stroke-width:1; fill:#f4b392; fill-opacity:1.0"></polygon>
	<polygon points="109.612 108.391 122.083 113.813 121.696 174.925 
	 120.202 174.527 118.78 174.164 117.321 173.729 116.183 173.366 
	 114.867 172.857 113.763 172.422 112.696 171.842 111.309 170.971 
	 110.491 170.1 110.064 169.52 109.779 169.012 109.637 168.395 
	 109.612 108.391"
	 style=" stroke:#f4b392; stroke-width:1; fill:#f4b392; fill-opacity:1.0"></polygon>
	<polygon points="122.302 114.398 138.536 116.096 138.64 176.583 
	 135.385 176.485 132.61 176.253 129.891 176.08 127.343 175.791 
	 125.19 175.387 122.981 174.983 121.622 174.405 122.302 114.398"
	 style=" stroke:#fad1ad; stroke-width:1; fill:#fad1ad; fill-opacity:1.0"></polygon>
	<ellipse  cx="142.848" cy="108.025" rx="33.2816" ry="8.61929"
	 style=" stroke:#696969; stroke-width:1; fill:#ffcf9f; fill-opacity:1.0"></ellipse>
      </g>
      <g>
	<g>
	  <polygon points="88.0605 19.1873 93.3625 13.8854 127.697 0 
	   145.118 47.2108 141.331 53.0178 124.162 4.7969 88.0605 19.1873"
	   style=" stroke:#000000; stroke-width:1; fill:#dcdcdc; fill-opacity:1.0"></polygon>
	  <polyline points="93.6145 14.6429 127.193 1.2623 144.107 48.4731"
	   style=" stroke:#000000; stroke-width:1;"></polyline>
	  <polyline points="90.9635 17.2042 125.293 3.787 142.088 50.9977"
	   style=" stroke:#000000; stroke-width:1;"></polyline>
	  <polygon points="88.3135 18.9349 105.986 66.6508 142.088 52.7648 
	   124.667 4.5444 88.3135 18.9349"
	   style=" stroke:#000000; stroke-width:1; fill:#96a5ff; fill-opacity:1.0"></polygon>
	  <polygon points="96.3915 23.7316 99.9265 33.0728 125.172 23.2267 
	   121.638 13.8854 96.3915 23.7316"
	   style=" stroke:#000000; stroke-width:1; fill:#dcdcdc; fill-opacity:1.0"></polygon>
	  <polyline points="92.6195 15.8351 126.196 2.4544 143.238 49.539"
	   style=" stroke:#000000; stroke-width:1;"></polyline>
	</g>
	<g>
	  <polyline points="128.917 46.4861 147.599 38.9123"
	   style=" stroke:#000000; stroke-width:1;"></polyline>
	  <polyline points="129.17 50.0207 148.862 41.9418"
	   style=" stroke:#000000; stroke-width:1;"></polyline>
	  <polygon points="125.146 1.0426 165.369 1.0426 170.321 15.6855 
	   166.281 30.3285 171.331 43.709 168.302 56.3328 125.146 56.3328 
	   128.665 43.4566 124.937 30.3285 129.674 15.6855 125.146 1.0426"
	   style=" stroke:#000000; stroke-width:1; fill:#ffffff; fill-opacity:1.0"></polygon>
	  <polyline points="128.917 43.709 171.331 43.709"
	   style=" stroke:#000000; stroke-width:1;"></polyline>
	  <polyline points="125.004 30.3285 166.168 30.3285"
	   style=" stroke:#000000; stroke-width:1;"></polyline>
	  <polyline points="129.863 15.6855 170.069 15.6855"
	   style=" stroke:#000000; stroke-width:1;"></polyline>
	  <polygon points="125.382 1.2951 128.16 8.8691 167.543 8.3641 
	   164.767 1.2951 125.382 1.2951"
	   style=" stroke:#ffffff; stroke-width:1; fill:#c8ffc8; fill-opacity:1.0"></polygon>
	  <polygon points="125.382 30.581 127.149 37.6499 168.805 37.6499 
	   165.921 30.581 125.382 30.581"
	   style=" stroke:#ffffff; stroke-width:1; fill:#c8ffc8; fill-opacity:1.0"></polygon>
	  <polygon points="129.927 15.938 169.815 16.1905 167.797 23.2594 
	   127.402 23.0069 129.927 15.938"
	   style=" stroke:#ffffff; stroke-width:1; fill:#c8ffc8; fill-opacity:1.0"></polygon>
	  <polygon points="129.17 43.9615 170.826 43.9615 169.31 51.2828 
	   127.149 51.0304 129.17 43.9615"
	   style=" stroke:#ffffff; stroke-width:1; fill:#c8ffc8; fill-opacity:1.0"></polygon>
	  <ellipse  cx="129.547" cy="4.4509" rx="0.88362" ry="0.88362"
	   style=" stroke:#000000; stroke-width:1; fill:#ffffff; fill-opacity:1.0"></ellipse>
	  <ellipse  cx="131.189" cy="10.8888" rx="0.88362" ry="0.88362"
	   style=" stroke:#000000; stroke-width:1; fill:#ffffff; fill-opacity:1.0"></ellipse>
	  <ellipse  cx="130.937" cy="19.4725" rx="0.88362" ry="0.88362"
	   style=" stroke:#000000; stroke-width:1; fill:#ffffff; fill-opacity:1.0"></ellipse>
	  <ellipse  cx="128.917" cy="25.5317" rx="0.88362" ry="0.88362"
	   style=" stroke:#000000; stroke-width:1; fill:#ffffff; fill-opacity:1.0"></ellipse>
	  <ellipse  cx="128.665" cy="33.863" rx="0.88362" ry="0.88362"
	   style=" stroke:#000000; stroke-width:1; fill:#ffffff; fill-opacity:1.0"></ellipse>
	  <ellipse  cx="129.927" cy="38.9121" rx="0.88362" ry="0.88362"
	   style=" stroke:#000000; stroke-width:1; fill:#ffffff; fill-opacity:1.0"></ellipse>
	  <ellipse  cx="130.432" cy="47.2436" rx="0.88362" ry="0.88362"
	   style=" stroke:#000000; stroke-width:1; fill:#ffffff; fill-opacity:1.0"></ellipse>
	  <ellipse  cx="128.665" cy="52.7978" rx="0.88362" ry="0.88362"
	   style=" stroke:#000000; stroke-width:1; fill:#ffffff; fill-opacity:1.0"></ellipse>
	  <ellipse  cx="163.315" cy="4.1353" rx="0.88362" ry="0.88362"
	   style=" stroke:#000000; stroke-width:1; fill:#ffffff; fill-opacity:1.0"></ellipse>
	  <ellipse  cx="165.461" cy="10.8256" rx="0.88362" ry="0.88362"
	   style=" stroke:#000000; stroke-width:1; fill:#ffffff; fill-opacity:1.0"></ellipse>
	  <ellipse  cx="165.965" cy="53.7448" rx="0.88362" ry="0.88362"
	   style=" stroke:#000000; stroke-width:1; fill:#ffffff; fill-opacity:1.0"></ellipse>
	  <ellipse  cx="167.481" cy="48.1901" rx="0.88362" ry="0.88362"
	   style=" stroke:#000000; stroke-width:1; fill:#ffffff; fill-opacity:1.0"></ellipse>
	  <ellipse  cx="166.724" cy="39.859" rx="0.88362" ry="0.88362"
	   style=" stroke:#000000; stroke-width:1; fill:#ffffff; fill-opacity:1.0"></ellipse>
	  <ellipse  cx="164.451" cy="34.5573" rx="0.88362" ry="0.88362"
	   style=" stroke:#000000; stroke-width:1; fill:#ffffff; fill-opacity:1.0"></ellipse>
	  <ellipse  cx="164.199" cy="26.9834" rx="0.88362" ry="0.88362"
	   style=" stroke:#000000; stroke-width:1; fill:#ffffff; fill-opacity:1.0"></ellipse>
	  <ellipse  cx="165.714" cy="19.9143" rx="0.88362" ry="0.88362"
	   style=" stroke:#000000; stroke-width:1; fill:#ffffff; fill-opacity:1.0"></ellipse>
	</g>
	<g>
	  <polygon points="167.876 10.4643 150.855 49.0632 184.731 62.6568 
	   203.503 17.1292 177.539 6.0529 167.876 10.4643"
	   style=" stroke:#b9b9b9; stroke-width:1; fill:#ffffff; fill-opacity:1.0"></polygon>
	  <polygon points="167.876 10.3683 177.563 6.1488 174.781 13.0536 
	   167.876 10.3683"
	   style=" stroke:#dcdcdc; stroke-width:1; fill:#dcdcdc; fill-opacity:1.0"></polygon>
	  <polyline points="176.839 19.5613 195.439 26.9738"
	   style=" stroke:#b9b9b9; stroke-width:1;"></polyline>
	  <polyline points="172.149 21.7548 193.995 30.4935"
	   style=" stroke:#b9b9b9; stroke-width:1;"></polyline>
	  <polyline points="170.491 25.7062 192.337 34.4449"
	   style=" stroke:#b9b9b9; stroke-width:1;"></polyline>
	  <polyline points="160.848 46.0559 182.695 54.7948"
	   style=" stroke:#b9b9b9; stroke-width:1;"></polyline>
	  <polyline points="164.516 38.5039 186.363 47.2426"
	   style=" stroke:#b9b9b9; stroke-width:1;"></polyline>
	  <polyline points="162.642 42.4553 184.488 51.1938"
	   style=" stroke:#b9b9b9; stroke-width:1;"></polyline>
	  <polyline points="168.251 29.9406 190.099 38.6793"
	   style=" stroke:#b9b9b9; stroke-width:1;"></polyline>
	  <polyline points="170.152 35.6121 188.224 43.0622"
	   style=" stroke:#b9b9b9; stroke-width:1;"></polyline>
	</g>
      </g>
    </g>
  </symbol>
 </defs>
 <use xlink:href="#UUID4_91387E2C-F06F-48AA-B8D9-2B623BF6D84D"/>
</svg>
