<?xml version="1.0" encoding="UTF-8" standalone="no"?>
<svg
   xmlns:dc="http://purl.org/dc/elements/1.1/"
   xmlns:cc="http://creativecommons.org/ns#"
   xmlns:rdf="http://www.w3.org/1999/02/22-rdf-syntax-ns#"
   xmlns:svg="http://www.w3.org/2000/svg"
   xmlns="http://www.w3.org/2000/svg"
   xmlns:sodipodi="http://sodipodi.sourceforge.net/DTD/sodipodi-0.dtd"
   xmlns:inkscape="http://www.inkscape.org/namespaces/inkscape"
   version="1.1"
   x="0px"
   y="0px"
   width="219px"
   height="219px"
   viewBox="0 0 219 219"
   enable-background="new 0 0 219 219"
   xml:space="preserve"
   id="svg2"
   inkscape:version="0.47 r22583"
   sodipodi:docname="databaseview.svg"><metadata
   id="metadata332"><rdf:RDF><cc:Work
       rdf:about=""><dc:format>image/svg+xml</dc:format><dc:type
         rdf:resource="http://purl.org/dc/dcmitype/StillImage" /><dc:title></dc:title></cc:Work></rdf:RDF></metadata><sodipodi:namedview
   pagecolor="#ffffff"
   bordercolor="#666666"
   borderopacity="1"
   objecttolerance="10"
   gridtolerance="10"
   guidetolerance="10"
   inkscape:pageopacity="0"
   inkscape:pageshadow="2"
   inkscape:window-width="640"
   inkscape:window-height="480"
   id="namedview330"
   showgrid="false"
   inkscape:zoom="2.1984163"
   inkscape:cx="123.22796"
   inkscape:cy="111.44823"
   inkscape:current-layer="svg2" />
   
<defs id="defs3140">
  <filter id="filter3980" color-interpolation-filters="sRGB">
   <feGaussianBlur id="feGaussianBlur3982" stdDeviation="2.9151562"/>
  </filter>
 </defs>
 <metadata id="metadata3143">
  <rdf:RDF>
   <cc:Work rdf:about="">
    <dc:format>image/svg+xml</dc:format>
    <dc:type rdf:resource="http://purl.org/dc/dcmitype/StillImage"/>
    <dc:title/>
   </cc:Work>
  </rdf:RDF>
 </metadata>
 <g id="layer1" transform="translate(0,-833.36218)">
  <g id="g3984" transform="translate(0,2)">
   <path id="path3173" opacity="0.5" d="m118.75,846.93c-11.669,0-22.858,0.68153-33.188,1.875-2.5293,0.29282-5.0155,0.58381-7.4375,0.9375-32.17,4.689-54.406,14.563-54.406,24.656v39.906c0,1.9716,0.86236,3.8775,2.4688,5.7188-1.5876,1.8308-2.4688,3.7282-2.4688,5.6875v42.125c0,1.7686,0.69979,3.4906,2,5.1562-1.3002,1.6656-2,3.3879-2,5.1562v42.094c0,13.958,42.554,25.281,95.031,25.281,52.473,0,95.062-11.323,95.062-25.281v-42.094c0-0.8723-0.17543-1.7443-0.5-2.5938-0.0811-0.21233-0.1805-0.41426-0.28125-0.625-0.31342-0.65531-0.72022-1.2989-1.2188-1.9375,1.3003-1.6656,2-3.3877,2-5.1562v-42.125c0-0.8628-0.18226-1.722-0.5-2.5625-0.003-0.009,0.003-0.0227,0-0.0312-0.40896-1.0702-1.1044-2.0986-2-3.125,1.5878-1.831,2.4688-3.7278,2.4688-5.6875v-39.906c0-0.22823-0.009-0.4283-0.0312-0.65625-0.0207-0.21783-0.0527-0.40753-0.0937-0.625-0.041-0.21744-0.095-0.43926-0.15625-0.65625-0.18142-0.64291-0.45844-1.3004-0.8125-1.9375-0.004-0.007,0.004-0.024,0-0.0312-0.24046-0.43004-0.52713-0.85485-0.84375-1.2812-0.94535-1.2739-2.2232-2.5227-3.8125-3.75-0.006-0.005-0.0248,0.005-0.0312,0-1.0658-0.8215-2.2593-1.6449-3.5938-2.4375-1.3351-0.79237-2.7871-1.5555-4.375-2.3125-0.78534-0.37471-1.6244-0.7601-2.4688-1.125-0.009-0.004-0.0226,0.004-0.0312,0-1.6994-0.73369-3.5114-1.467-5.4375-2.1562-0.009-0.003-0.0222,0.003-0.0312,0-0.96823-0.34617-1.9463-0.66626-2.9688-1-8.1829-2.6686-18.076-4.9509-29.156-6.5938-2.779-0.41244-5.61-0.76201-8.5312-1.0938-8.724-0.99079-18.044-1.6244-27.75-1.7812-0.0103-0.00017-0.0209,0.00017-0.0312,0-1.6195-0.026-3.2352-0.0312-4.875-0.0312z" filter="url(#filter3980)" fill="#000"/>
   <path id="path2832-8-8_3_" style="stroke-dasharray:none;" d="m109.73,943.42c-52.478,0-95.04,11.303-95.04,25.26v42.12c0,13.958,42.563,25.259,95.04,25.259,52.473,0,95.039-11.301,95.039-25.259v-42.12c0-13.957-42.566-25.26-95.039-25.26z" stroke="#6680a6" stroke-miterlimit="4" stroke-width="2" fill="#e0e0e0"/>
   <path id="path2832-7-7-81_3_" style="stroke-dasharray:none;" d="m204.75,968.68c0,13.961-42.542,25.273-95.018,25.273-52.478,0-95.014-11.313-95.014-25.273,0-13.953,42.536-25.266,95.014-25.266,52.476,0,95.018,11.313,95.018,25.266z" stroke="#6680a6" stroke-miterlimit="4" stroke-width="2" fill="#91afdb"/>
   <path id="path2832-8-9-2_3_" style="stroke-dasharray:none;" d="m109.73,891.01c-52.478,0-95.04,11.303-95.04,25.259v42.122c0,13.958,42.563,25.259,95.04,25.259,52.473,0,95.039-11.301,95.039-25.259v-42.122c0-13.954-42.566-25.259-95.039-25.259z" stroke="#6680a6" stroke-miterlimit="4" stroke-width="2" fill="#e0e0e0"/>
   <path id="path2832-7-7-8-3_3_" style="stroke-dasharray:none;" d="m204.75,916.27c0,13.957-42.542,25.269-95.018,25.269-52.478,0-95.014-11.312-95.014-25.269,0-13.956,42.536-25.269,95.014-25.269,52.476-0.001,95.018,11.313,95.018,25.269z" stroke="#6680a6" stroke-miterlimit="4" stroke-width="2" fill="#91afdb"/>
   <path id="path2832-8-9-2-6_3_" style="stroke-dasharray:none;" d="m109.71,837.48c-52.476,0-95.039,13.523-95.039,27.479v39.9c0,13.958,42.563,25.26,95.039,25.26s95.044-11.302,95.044-25.26v-39.9c0-13.958-42.57-27.481-95.044-27.481z" stroke="#6680a6" stroke-miterlimit="4" stroke-width="2" fill="#e0e0e0"/>
   <path id="path2832-7-7-8-3-3_3_" style="stroke-dasharray:none;" d="m204.73,864.96c0,13.957-42.542,23.051-95.019,23.051-52.476,0-95.016-9.0939-95.016-23.051,0-13.956,42.54-27.491,95.016-27.491,52.477,0,95.019,13.535,95.019,27.491z" stroke="#667fa6" stroke-miterlimit="4" stroke-width="2" fill="#91afdb"/>
   <path id="path278" fill="#bababa" d="m186.69,880.39s-13.581,40.587-75.472,48.517c0,0,81.407,0.38814,92.292-22.47l0.0771-35.61c0-0.001-2.0464,4.5084-16.898,9.5629z"/>
   <path id="path280" fill="#bababa" d="m187.34,932.25s-14.306,41.992-76.197,50.15c0,0,82.805,0.38814,92.447-22.859l-0.1555-37.244c0,0.001-0.54365,3.4223-16.094,9.9535z"/>
   <path id="path282" fill="#bababa" d="m190.01,983.54s-15.758,43.158-77.649,51.316c0,0,82.625-0.2078,91.541-23.222l-0.31101-37.113s-0.51876,3.0068-13.581,9.0192z"/>
  </g>
  <path id="path288" d="m206.95,958.68c1.507-5.489-4.445-17.241-4.445-17.241,0.805-1.09,0.664-2.039-1.463-6.956-2.125-4.917-7.571,0.666-7.571,0.666l-5.114,4.484c-3.176,1.524-5.094,3.226-3.271,7.352,1.824,4.124,6.332-1.945,6.332-1.945s1.3-2.342,4.365-6.703c3.062-4.361,3.63-0.414,3.924,0.853,0.294,1.264,1.063,2.38,1.063,2.38,1.836,3.335,3.078,14.069,2.727,16.426-0.354,2.355-2.012,7.369-2.012,7.369l-2.673-0.2c-0.192-7.564-9.805-7.405-12.161-7.759-2.357-0.352-20.64,0.137-26.785,0.353-6.148,0.214-23.188,1.985-28.405,3.002-5.213,1.021-7.182,5.87-7.182,5.87-4.865-1.182-24.419,0.078-24.419,0.078-1.729-9.797-34.347-9.224-39.54-9.466-5.196-0.241-23.313-0.064-28.68,0.637-5.367,0.699-5.939,6.833-5.939,6.833-2.531,0.591-4.242-0.697-4.242-0.697,0.816-1.72-0.857-5.369-0.857-5.369s-0.599-1.9-0.062-5.987c0.54-4.087,3.343-11.761,3.343-11.761,1.752-1.23,2.098-3.116,2.098-3.116,1.818-5.168,4.392,1.174,4.392,1.174s3.669,6.991,5.077,7.486c1.411,0.496,2.978,0.993,2.74-3.737-0.24-4.729-4.477-5.742-4.477-5.742s-2.159-2.712-4.183-4.165c-2.026-1.449-3.929-0.693-5.862,1.955-1.934,2.646-1.508,5.488-1.508,5.488-3.688,4.036-5.965,18.175-5.965,18.175-2.089,2.487-0.117,7.245-0.117,7.245s0.128,1.734,1.841,3.023c1.711,1.286,7.686,2.014,7.686,2.014s-0.164,0.313,0.814,8.046c0.976,7.734,3.76,10.933,3.76,10.933,6.057,5.294,27.297,6.9,31.548,6.969s21.268-0.126,25.859-1.471c4.589-1.342,6.37-4.307,8.01-8.374,1.643-4.067,4.054-16.788,4.054-16.788,4.128-1.981,22.694-0.576,24.263-0.236,1.571,0.341,2.383,8.544,2.383,8.544s1.553,11.053,6.689,14.76c5.139,3.705,25.939,3.255,33.35,2.747,7.41-0.511,25.58-3.682,28.149-6.788,2.571-3.11,4.084-18.521,4.084-18.521,8.355-0.494,9.041-3.951,9.041-3.951,2.955-7.356-0.659-7.889-0.659-7.889zm-109.51,11.45s-2.954,16.966-5.37,20.232c-2.415,3.27-17.877,4.751-27.169,4.601s-32.908-0.851-34.652-9.858c0,0-4.814-23.547,0.713-24.403,5.528-0.854,6.943-0.676,6.943-0.676s20.004,0.012,25.67,0.26c5.666,0.251,24.062,2.283,24.062,2.283s11.636,1.291,9.803,7.561zm98.941-1.069c-0.381,4.089-1.227,17.309-5.674,19.6,0,0-14.932,7.476-46.87,5.223,0,0-10.076-0.32-11.876-5.862,0,0-6.062-14.75-4.558-20.081,0,0,0.103-6.299,14.915-6.688,0,0,28.546-2.057,35.943-1.621,0,0,7.725-0.348,13.223,0.528,5.501,0.879,5.278,4.812,4.897,8.901z" stroke="#494949" stroke-width="3" fill="#494949"/>
 </g>
</svg>