<?xml version="1.0"?>
<?metis version="3.1"?>
<?metisxml version="1.0"?>
<!DOCTYPE svg  PUBLIC "-//W3C//DTD SVG August 1999//EN"
 "http://www.w3.org/Graphics/SVG/svg-19990812.dtd">

<svg width="200" height="200">
 <title>Symbol library: dbms.svg</title>
 <defs>
  <symbol id="oid1" xml:space="preserve" class="METIS_SYMBOL">
   <title>DBMS</title>
    <g>
      <polygon points="0 0 0 304 16.2963 320 
       880 320 880 16 863.704 0 0 0 
       0 0 0 0 0 0 0 0 
       0 0 0 0 0 0 0 0 
       0 0 0 0 0 0 "
       style=" stroke:#000000; stroke-width:1; fill:#9b9b9b; fill-opacity:100%"       class="TAG:shadow"></polygon>
      <rect x="0" y="0" width="240" height="304"
       style=" stroke:#000000; stroke-width:1; fill:#ffffa5; fill-opacity:100%"       class="TAG:PictureBackground"></rect>
      <rect x="240" y="0" width="624" height="304"
       style=" stroke:#000000; stroke-width:1; fill:#6e6eff; fill-opacity:100%"       class="TAG:canvas"></rect>
      <rect x="245.357" y="25.7143" width="569.522" height="231.429"
       style="stroke:none; fill:#878787; fill-opacity:0%"       class="TAG:grid"></rect>
      <g>
	<desc>METIS_TEXT_GROUP</desc>
	<text  x="256" y="15.8"
	 style=" stroke:#000000; stroke-width:1; font-family:sans-serif; font-size:16;"
	 class="TAG:text">text</text>
	<rect x="256" y="0" width="592" height="304"
	 style=" stroke:#000000; stroke-width:1; fill:#ffffff; fill-opacity:0%"></rect>
      </g>
      <polyline points="864 304 880 320"
       style=" stroke:#000000; stroke-width:1;"></polyline>
      <g>
	<polygon points="121.726 201.749 121.726 201.749 101.02 201.749 
	 92.3922 206.411 137.255 255.366 145.883 250.704 208 166.782 
	 187.294 166.782 178.667 171.445 145.883 225.061 121.726 201.749 
	 121.726 201.749 121.726 201.749 121.726 201.749 121.726 201.749 
	 121.726 201.749 121.726 201.749 121.726 201.749 "
	 style=" stroke:#000000; stroke-width:1; fill:#ffff00; fill-opacity:100%"	 class="TAG:text"></polygon>
	<polygon points="113.098 206.411 113.098 206.411 92.3922 206.411 
	 137.255 255.366 199.373 171.445 178.667 171.445 137.255 229.723 
	 113.098 206.411 113.098 206.411 113.098 206.411 113.098 206.411 
	 113.098 206.411 113.098 206.411 113.098 206.411 113.098 206.411 "
	 style=" stroke:#000000; stroke-width:1; fill:#ffff6e; fill-opacity:100%"	 class="TAG:text"></polygon>
	<polygon points="61.3334 166.782 61.3334 166.782 40.6274 166.782 
	 32 171.445 94.1177 255.366 102.745 250.704 144.156 201.749 
	 123.451 201.749 114.823 206.411 102.745 225.061 61.3334 166.782 
	 61.3334 166.782 61.3334 166.782 61.3334 166.782 61.3334 166.782 
	 61.3334 166.782 61.3334 166.782 61.3334 166.782 "
	 style=" stroke:#000000; stroke-width:1; fill:#ffff00; fill-opacity:100%"	 class="TAG:text"></polygon>
	<polygon points="104.471 174.942 83.7646 174.942 76.8627 178.438 
	 90.6666 188.929 107.921 193.591 121.725 195.922 132.078 195.922 
	 142.431 193.591 152.784 193.591 161.795 188.796 164.735 184.533 
	 166.588 177.272 166.205 170.679 161.795 164.285 152.784 157.458 
	 144.156 153.961 135.529 151.63 125.177 149.298 114.823 146.968 
	 106.196 143.471 104.471 137.643 107.921 130.649 118.274 125.987 
	 128.628 125.987 140.707 127.152 147.607 130.649 149.334 135.312 
	 159.686 138.809 166.588 135.312 166.588 130.649 163.137 123.656 
	 154.51 117.828 145.883 114.331 132.078 112 121.725 112 
	 107.921 114.331 101.02 117.828 94.1177 123.656 87.2157 130.649 
	 85.4901 137.643 87.2157 144.636 90.6666 151.63 97.1853 156.825 
	 105.813 160.022 116.549 162.12 128.628 164.451 140.707 167.948 
	 144.156 170.279 147.607 174.942 145.883 179.604 142.431 181.935 
	 135.529 184.266 125.177 184.266 114.823 181.935 106.196 178.438 
	 104.471 174.942 104.471 174.942 104.471 174.942 104.471 174.942 
	 104.471 174.942 104.471 174.942 104.471 174.942 104.471 174.942 "
	 style=" stroke:#000000; stroke-width:1; fill:#ffff00; fill-opacity:100%"	 class="TAG:text"></polygon>
	<polygon points="97.5686 178.438 76.8627 178.438 76.8627 183.1 
	 83.7646 192.425 101.02 197.087 114.823 199.419 125.177 199.419 
	 135.529 197.087 144.605 195.488 154.894 192.291 157.833 188.03 
	 159.686 180.769 159.304 174.176 154.894 167.781 145.883 160.955 
	 137.255 157.458 128.628 155.126 118.274 152.796 107.921 150.464 
	 99.2941 146.968 97.5686 141.139 101.02 134.146 111.372 129.484 
	 121.725 129.484 133.804 130.649 140.707 134.146 142.431 138.809 
	 159.686 138.809 159.686 134.146 156.235 127.152 147.607 121.325 
	 138.98 117.828 125.177 115.497 114.823 115.497 101.02 117.828 
	 94.1177 122.49 87.2157 127.152 80.3137 134.146 78.5883 141.139 
	 80.3137 148.133 83.7646 155.126 90.2833 160.321 98.9107 163.519 
	 109.647 165.617 121.725 167.948 133.804 171.445 137.255 173.775 
	 140.707 178.438 138.98 183.1 135.529 185.432 128.628 187.762 
	 118.274 187.762 107.921 185.432 99.2941 181.935 97.5686 178.438 
	 97.5686 178.438 97.5686 178.438 97.5686 178.438 97.5686 178.438 
	 97.5686 178.438 97.5686 178.438 97.5686 178.438 "
	 style=" stroke:#000000; stroke-width:1; fill:#ffff6e; fill-opacity:100%"	 class="TAG:text"></polygon>
	<polyline points="97.5686 178.438 97.5686 178.438 104.471 174.942"
	 style=" stroke:#000000; stroke-width:1;"	 class="TAG:text"></polyline>
	<polygon points="52.7059 171.445 52.7059 171.445 32 171.445 
	 94.1177 255.366 135.529 206.411 114.823 206.411 94.1177 229.723 
	 52.7059 171.445 52.7059 171.445 52.7059 171.445 52.7059 171.445 
	 52.7059 171.445 52.7059 171.445 52.7059 171.445 52.7059 171.445 "
	 style=" stroke:#000000; stroke-width:1; fill:#ffff6e; fill-opacity:100%"	 class="TAG:text"></polygon>
	<polyline points="52.7059 171.445 52.7059 171.445 61.3334 166.782"
	 style=" stroke:#000000; stroke-width:1;"	 class="TAG:text"></polyline>
	<polyline points="113.098 206.411 113.098 206.411 121.725 201.749"
	 style=" stroke:#000000; stroke-width:1;"	 class="TAG:text"></polyline>
	<polyline points="135.529 206.411 135.529 206.411 144.156 201.749"
	 style=" stroke:#000000; stroke-width:1;"	 class="TAG:text"></polyline>
	<polyline points="199.371 171.445 199.371 171.445 208 166.782"
	 style=" stroke:#000000; stroke-width:1;"	 class="TAG:text"></polyline>
      </g>
      <g>
	<polygon points="16 33.1196 25.791 33.1196 35.582 33.1196 
	 39.0384 33.1196 42.2048 33.4938 44.7963 33.8682 46.8128 34.6168 
	 48.5411 35.5527 50.2675 36.8626 51.9958 38.1728 53.724 40.0443 
	 55.1638 42.103 56.6038 44.3488 57.7553 46.7819 58.6187 49.7765 
	 59.4836 52.958 60.0585 56.3268 60.3468 60.2573 60.3468 64.5618 
	 60.3468 68.4924 60.0585 72.2356 59.4836 75.6041 58.6187 78.5979 
	 57.467 81.4054 56.3155 83.8392 55.1638 86.0845 53.724 87.9561 
	 52.2841 89.453 50.5558 90.9511 46.8128 93.1963 44.5096 93.9447 
	 41.9165 94.5069 39.325 94.6942 36.1586 94.8806 26.0793 94.8806 
	 16 94.8806 16 33.1196 16 33.1196 16 33.1196 
	 16 33.1196 16 33.1196 16 33.1196 16 33.1196 "
	 style=" stroke:#000000; stroke-width:1; fill:#6e0000; fill-opacity:100%"></polygon>
	<polygon points="26.5855 43.5685 26.5855 64.0004 26.5855 84.4316 
	 30.6432 84.4316 34.6991 84.4316 37.0163 84.4316 39.3335 84.2438 
	 41.0723 84.0562 42.2309 83.4943 44.2597 82.3693 45.9984 80.6825 
	 46.5769 79.7452 47.4472 78.4337 48.0256 76.7469 48.6057 74.8722 
	 48.8941 72.6224 49.1841 70.186 49.4742 67.3742 49.4742 64.1871 
	 49.4742 60.8133 49.1841 58.0018 48.8941 55.3775 48.6057 53.3157 
	 48.0256 51.4412 47.157 49.7542 45.4182 46.9426 44.2597 46.0053 
	 43.101 45.0681 40.2037 43.9435 38.755 43.756 37.0163 43.5685 
	 34.4091 43.5685 31.5117 43.5685 29.1945 43.5685 26.5855 43.5685 
	 26.5855 43.5685 26.5855 43.5685 26.5855 43.5685 26.5855 43.5685 
	 26.5855 43.5685 26.5855 43.5685 "
	 style=" stroke:#000000; stroke-width:1; fill:#ffffa5; fill-opacity:100%"></polygon>
	<polygon points="69.2156 33.1196 79.8714 33.1196 90.2375 33.1196 
	 94.2688 33.1196 97.7252 33.4938 100.605 33.8682 102.62 34.6168 
	 104.348 35.5527 105.788 36.6754 107.228 38.1728 108.668 39.8572 
	 110.396 43.9746 110.684 46.2205 110.971 48.6534 110.396 52.958 
	 109.819 54.8295 108.956 56.7012 107.804 58.3857 106.651 59.8827 
	 105.213 61.0057 103.485 62.129 105.788 63.0648 107.804 64.1869 
	 109.531 65.6848 110.971 67.5565 112.124 69.6144 112.987 71.8609 
	 113.276 74.2935 113.562 76.9136 113.276 80.0959 112.699 83.277 
	 111.547 85.8971 110.108 88.331 108.379 90.3889 106.365 92.0731 
	 104.348 93.3837 102.045 94.1321 101.18 94.3196 100.028 94.5069 
	 96.8619 94.6942 92.5422 94.8806 87.0709 94.8806 78.1433 94.8806 
	 69.2156 94.8806 69.2156 33.1196 69.2156 33.1196 69.2156 33.1196 
	 69.2156 33.1196 69.2156 33.1196 69.2156 33.1196 69.2156 33.1196 "
	 style=" stroke:#000000; stroke-width:1; fill:#6e0000; fill-opacity:100%"></polygon>
	<polygon points="79.8027 43.3819 79.8027 50.5656 79.8027 57.7493 
	 86.7647 57.7493 89.6657 57.7493 91.9858 57.7493 93.7266 57.7493 
	 94.8867 57.5603 97.2067 56.8042 98.0781 56.237 98.9477 55.2918 
	 99.8173 54.3465 100.398 53.2122 100.689 50.3766 100.398 47.919 
	 99.238 45.8394 98.0781 44.5162 97.2067 43.9491 96.3372 43.76 
	 95.1771 43.571 92.8553 43.3819 89.956 43.3819 85.8934 43.3819 
	 79.8027 43.3819 79.8027 43.3819 79.8027 43.3819 79.8027 43.3819 
	 79.8027 43.3819 79.8027 43.3819 79.8027 43.3819 "
	 style=" stroke:#000000; stroke-width:1; fill:#ffffa5; fill-opacity:100%"></polygon>
	<polygon points="79.8027 67.8247 79.8027 76.1279 79.8027 84.4313 
	 84.7276 84.4313 89.6541 84.4313 92.5517 84.4313 95.1591 84.2423 
	 96.898 84.0534 98.0567 83.8656 98.9252 83.4876 99.7939 82.922 
	 101.243 81.2238 102.403 79.1476 102.691 77.8263 102.691 76.317 
	 102.403 73.4862 101.243 71.2222 100.664 70.2787 99.7939 69.712 
	 97.7666 68.5794 96.3178 68.2027 94.2889 68.0138 91.6814 67.8247 
	 88.4954 67.8247 79.8027 67.8247 79.8027 67.8247 79.8027 67.8247 
	 79.8027 67.8247 79.8027 67.8247 79.8027 67.8247 79.8027 67.8247 "
	 style=" stroke:#000000; stroke-width:1; fill:#ffffa5; fill-opacity:100%"></polygon>
	<polygon points="122.146 94.8806 122.146 33.1196 130.202 33.1196 
	 137.972 33.1196 142.862 54.2681 147.754 75.2294 157.248 33.1196 
	 165.303 33.1196 173.36 33.1196 173.36 94.8806 168.469 94.8806 
	 163.289 94.8806 163.289 70.5503 163.289 46.2205 158.111 70.5503 
	 152.933 94.8806 142.573 94.8806 137.395 70.5503 131.929 46.2205 
	 131.929 70.5503 131.929 94.8806 127.038 94.8806 122.146 94.8806 
	 122.146 94.8806 122.146 94.8806 122.146 94.8806 122.146 94.8806 122.146 94.8806 "
	 style=" stroke:#000000; stroke-width:1; fill:#6e0000; fill-opacity:100%"></polygon>
	<polygon points="180.797 74.667 185.984 74.1049 191.455 73.5439 
	 192.03 76.3511 192.896 78.7836 193.758 80.6549 195.199 82.3389 
	 196.639 83.6494 198.656 84.5851 200.671 85.1462 202.975 85.3336 
	 205.28 85.1462 207.296 84.7725 209.024 84.0231 210.464 83.0874 
	 211.616 81.778 212.481 80.2813 213.056 78.7836 213.345 77.0994 
	 213.056 75.0407 212.192 73.3565 211.04 72.0472 209.312 70.9241 
	 208.161 70.3632 205.855 69.6137 203.263 68.8654 199.808 67.7434 
	 196.639 66.8076 193.758 65.6845 191.455 64.5614 189.727 63.4383 
	 188.287 62.129 186.847 60.8186 184.831 57.4504 183.967 55.579 
	 183.392 53.5205 182.814 49.2165 183.103 46.7836 183.392 44.5381 
	 185.118 40.2339 186.559 38.3626 187.998 36.6784 189.727 35.1813 
	 191.744 34.0585 194.047 33.1229 196.639 32.5614 199.231 32.1871 
	 202.399 32 206.72 32.3743 210.464 33.1229 213.921 34.6199 
	 216.799 36.8654 219.105 39.4854 220.833 42.6667 221.985 46.4094 
	 222.56 50.7135 217.088 51.0877 211.616 51.2749 211.328 49.0293 
	 210.753 46.9708 209.888 45.4737 208.736 44.3509 207.583 43.4153 
	 205.855 42.8539 204.129 42.4797 202.112 42.2925 200.096 42.4797 
	 198.368 42.6667 196.639 43.2281 195.488 43.9767 194.336 44.9124 
	 193.758 46.035 193.182 47.158 193.182 48.2808 193.758 50.7135 
	 194.336 51.6493 195.199 52.5849 196.639 53.5205 198.656 54.4562 
	 201.534 55.3918 204.991 56.5148 208.736 57.6374 211.904 58.7603 
	 214.496 59.8828 216.513 61.1932 218.24 62.5027 219.68 64.0005 
	 221.119 65.6845 221.985 67.556 222.849 69.6137 223.425 71.8598 
	 224 74.2923 224 76.9121 223.711 80.8423 222.849 84.3978 
	 221.119 87.5787 218.816 90.3858 215.937 92.8193 212.192 94.6907 
	 207.872 95.6264 202.688 96 198.079 95.6264 193.758 94.6907 
	 190.304 93.0055 187.423 90.7604 184.831 87.766 183.103 84.0231 
	 181.663 79.7192 180.797 74.667 180.797 74.667 180.797 74.667 
	 180.797 74.667 180.797 74.667 180.797 74.667 "
	 style=" stroke:#000000; stroke-width:1; fill:#6e0000; fill-opacity:100%"></polygon>
      </g>
    </g>
  </symbol>
 </defs>
</svg>
