<?xml version="1.0" encoding="UTF-8" standalone="no"?>

<svg
 xmlns:dc="http://purl.org/dc/elements/1.1/"
   xmlns:cc="http://creativecommons.org/ns#"
   xmlns:rdf="http://www.w3.org/1999/02/22-rdf-syntax-ns#"
   xmlns:svg="http://www.w3.org/2000/svg"
   xmlns="http://www.w3.org/2000/svg"
   xmlns:xlink="http://www.w3.org/1999/xlink"
   xmlns:sodipodi="http://sodipodi.sourceforge.net/DTD/sodipodi-0.dtd"
   xmlns:inkscape="http://www.inkscape.org/namespaces/inkscape"
   id="svg2"
   version="1.1"
   inkscape:version="0.47 r22583"
   width="100"
   height="100"
   sodipodi:docname="demandcomponent.svg">
  <metadata
     id="metadata36">
    <rdf:RDF>
      <cc:Work
         rdf:about="">
        <dc:format>image/svg+xml</dc:format>
        <dc:type
           rdf:resource="http://purl.org/dc/dcmitype/StillImage" />
      </cc:Work>
    </rdf:RDF>
  </metadata>
  <defs
     id="defs34">
    <linearGradient
       inkscape:collect="always"
       id="linearGradient3656">
      <stop
         style="stop-color:#000000;stop-opacity:1;"
         offset="0"
         id="stop3658" />
      <stop
         style="stop-color:#000000;stop-opacity:0;"
         offset="1"
         id="stop3660" />
    </linearGradient>
    <linearGradient
       inkscape:collect="always"
       id="linearGradient3648">
      <stop
         style="stop-color:#000000;stop-opacity:1;"
         offset="0"
         id="stop3650" />
      <stop
         style="stop-color:#000000;stop-opacity:0;"
         offset="1"
         id="stop3652" />
    </linearGradient>
    <linearGradient
       inkscape:collect="always"
       id="linearGradient3640">
      <stop
         style="stop-color:#000000;stop-opacity:1;"
         offset="0"
         id="stop3642" />
      <stop
         style="stop-color:#000000;stop-opacity:0;"
         offset="1"
         id="stop3644" />
    </linearGradient>
    <linearGradient
       inkscape:collect="always"
       id="linearGradient3632">
      <stop
         style="stop-color:#ebae5e;stop-opacity:1;"
         offset="0"
         id="stop3634" />
      <stop
         style="stop-color:#ebae5e;stop-opacity:0;"
         offset="1"
         id="stop3636" />
    </linearGradient>
    <inkscape:perspective
       sodipodi:type="inkscape:persp3d"
       inkscape:vp_x="0 : 0.5 : 1"
       inkscape:vp_y="0 : 1000 : 0"
       inkscape:vp_z="1 : 0.5 : 1"
       inkscape:persp3d-origin="0.5 : 0.33333333 : 1"
       id="perspective38" />
    <linearGradient
       inkscape:collect="always"
       xlink:href="#linearGradient3632"
       id="linearGradient3638"
       x1="31.25"
       y1="375.00049"
       x2="476.56201"
       y2="375.00049"
       gradientUnits="userSpaceOnUse" />
    <linearGradient
       inkscape:collect="always"
       xlink:href="#linearGradient3640"
       id="linearGradient3646"
       x1="296.875"
       y1="320.3125"
       x2="734.375"
       y2="320.3125"
       gradientUnits="userSpaceOnUse" />
    <linearGradient
       inkscape:collect="always"
       xlink:href="#linearGradient3648"
       id="linearGradient3654"
       x1="781.25"
       y1="308.59299"
       x2="914.06201"
       y2="308.59299"
       gradientUnits="userSpaceOnUse" />
    <linearGradient
       inkscape:collect="always"
       xlink:href="#linearGradient3656"
       id="linearGradient3662"
       x1="781.25"
       y1="640.625"
       x2="914.06201"
       y2="640.625"
       gradientUnits="userSpaceOnUse" />
  </defs>
  <sodipodi:namedview
     pagecolor="#ffffff"
     bordercolor="#666666"
     borderopacity="1"
     objecttolerance="10"
     gridtolerance="10"
     guidetolerance="10"
     inkscape:pageopacity="0"
     inkscape:pageshadow="2"
     inkscape:window-width="1280"
     inkscape:window-height="962"
     id="namedview32"
     showgrid="false"
     inkscape:zoom="0.22425739"
     inkscape:cx="-283.44954"
     inkscape:cy="481.62891"
     inkscape:window-x="-8"
     inkscape:window-y="-8"
     inkscape:window-maximized="1"
     inkscape:current-layer="svg2" />
  <title
     id="title4">Symbol library: demandcomponent.svg</title>
  <polygon
     points="1007.81,1007.81 0,1007.81 0,0 1007.81,0 1007.81,1007.81 "
     style="fill:#ffffff;fill-opacity:0;stroke:none"
     id="polygon6"
     transform="matrix(0.09922505,0,0,0.09922505,0,2.4414062e-6)" />
  <polygon
     points="330.708,787.402 338.583,1000 559.055,787.402 897.637,787.402 937.008,779.528 968.504,755.906 992.125,716.536 1000,677.165 1000,102.362 992.125,62.9921 968.504,31.4961 937.008,7.87351 897.637,0 102.362,0 102.362,0 62.9921,7.87351 31.496,31.4961 7.87401,62.9921 0,102.362 0,677.165 7.87401,716.536 31.496,755.906 62.9921,779.528 102.362,787.402 "
     style="fill:#000000;fill-opacity:1;stroke:none"
     id="polygon8"
     transform="matrix(0.09922505,0,0,0.09922505,0,2.4414062e-6)" />
  <polygon
     points="976.563,102.23 976.563,677.418 968.686,708.935 952.931,740.452 929.3,756.21 897.792,764.089 551.201,764.089 354.274,945.313 354.274,764.089 102.208,764.089 70.6999,756.21 47.0687,740.452 31.3146,708.935 23.4375,677.418 23.4375,677.418 23.4375,102.23 31.3146,70.7127 47.0687,47.0753 70.6999,31.3168 102.208,23.438 897.792,23.438 929.3,31.3168 952.931,47.0753 968.686,70.7127 "
     style="fill:#ffffff;fill-opacity:1;stroke:none"
     id="polygon10"
     transform="matrix(0.09922505,0,0,0.09922505,0,2.4414062e-6)" />
  <polygon
     points="914.062,189.153 905.762,244.892 889.159,443.96 889.159,475.811 880.859,499.7 864.258,515.624 847.656,515.624 831.054,515.624 814.453,499.7 806.153,443.96 806.153,443.96 789.55,252.854 781.25,165.264 789.55,141.376 806.153,117.488 822.753,101.562 855.956,101.562 880.859,101.562 897.461,125.451 905.762,149.339 "
     style="fill:url(#linearGradient3654);fill-opacity:1;stroke:none"
     id="polygon12"
     transform="matrix(0.09922505,0,0,0.09922505,0,2.4414062e-6)" />
  <polygon
     points="897.461,594.792 905.762,619.792 914.062,644.792 905.762,669.792 897.461,686.459 872.559,703.125 847.656,703.125 847.656,703.125 822.753,703.125 806.153,686.459 789.55,669.792 781.25,644.792 789.55,619.792 806.153,594.792 822.753,586.459 847.656,578.125 872.559,586.459 "
     style="fill:url(#linearGradient3662);fill-opacity:1;stroke:none"
     id="polygon14"
     transform="matrix(0.09922505,0,0,0.09922505,0,2.4414062e-6)" />
  <polygon
     points="309.555,663.762 317.495,640.023 325.435,624.199 325.435,616.286 341.317,624.199 365.138,624.199 388.96,608.372 412.782,592.548 420.722,576.722 428.663,552.984 420.722,529.247 444.544,529.247 460.425,513.421 476.306,497.596 492.188,473.858 492.188,442.207 492.188,426.382 476.306,410.557 476.306,236.478 484.246,196.914 476.306,157.352 468.366,141.526 452.484,125.701 404.842,101.963 349.257,78.2252 293.673,70.312 261.91,70.312 261.91,70.312 166.623,78.2252 23.6936,78.2252 7.8125,78.2252 7.8125,608.372 15.7531,608.372 206.327,679.587 246.03,687.5 277.793,679.587 293.673,671.674 "
     style="fill:#5a3d1b;fill-opacity:1;stroke:none"
     id="polygon16"
     transform="matrix(0.09922505,0,0,0.09922505,0,2.4414062e-6)" />
  <polygon
     points="341.379,339.363 325.473,355.201 349.33,363.121 468.611,434.397 476.562,442.316 468.611,466.075 452.705,497.753 436.803,505.672 428.85,513.591 373.187,497.753 253.906,442.316 245.955,458.155 285.714,481.913 365.234,513.591 404.995,545.27 404.995,553.19 404.995,569.029 381.138,592.788 365.234,600.707 341.379,600.707 285.714,584.868 198.241,545.27 190.29,561.11 277.763,600.707 301.618,616.546 301.618,624.466 301.618,632.385 293.665,648.224 277.763,656.144 261.857,664.063 238.002,664.063 206.194,656.144 31.25,592.788 31.25,101.776 158.482,93.857 230.049,93.857 269.81,85.938 269.81,85.938 293.665,85.938 341.379,101.776 397.042,117.616 436.803,141.374 452.705,149.294 452.705,165.132 460.658,196.81 452.705,236.409 452.705,394.799 "
     style="fill:url(#linearGradient3638);fill-opacity:1;stroke:none"
     id="polygon18"
     transform="matrix(0.09922505,0,0,0.09922505,0,2.4414062e-6)" />
  <polygon
     points="726.421,444.36 734.375,428.354 734.375,412.348 726.421,388.338 710.512,372.333 495.739,260.289 296.875,156.25 320.738,340.321 320.738,340.321 352.556,356.326 455.966,412.348 559.376,452.363 615.057,468.37 646.875,476.372 662.785,484.375 686.649,484.375 702.557,476.372 718.467,460.366 "
     style="fill:#ebae5e;fill-opacity:1;stroke:none"
     id="polygon20"
     transform="matrix(0.09922505,0,0,0.09922505,0,2.4414062e-6)" />
  <polyline
     points="320.738 340.321  352.556 356.326         455.966 412.348  559.376 452.363  615.057 468.37  646.875 476.372 662.785 484.375          686.649 484.375 702.557 476.372 718.467 460.366         726.421 444.36 734.375 428.354 734.375 412.348 726.421 388.338         710.512 372.333  495.739 260.289 296.875 156.25"
     style="fill:url(#linearGradient3646);fill-opacity:1;stroke:none"
     id="polyline22"
     transform="matrix(0.09922505,0,0,0.09922505,0,2.4414062e-6)" />
  <polygon
     points="654.634,468.206 614.897,460.211 567.214,444.223 463.901,396.258 360.587,348.292 320.851,332.304 312.904,348.292 344.693,364.281 455.953,420.24 559.267,460.211 606.95,484.193 654.634,492.188 662.58,492.188 686.422,492.188 710.264,484.193 726.158,468.206 742.052,444.223 750,420.24 742.052,404.252 734.105,380.269 718.211,364.281 519.531,260.356 297.01,148.438 289.062,164.425 289.062,164.425 702.316,380.269 718.211,388.263 726.158,404.252 726.158,420.24 726.158,436.229 710.264,452.216 702.316,460.211 686.422,468.206 662.58,468.206 "
     style="fill:#5a3d1b;fill-opacity:1;stroke:none"
     id="polygon24"
     transform="matrix(0.09922505,0,0,0.09922505,0,2.4414062e-6)" />
  <polygon
     points="726.563,385.416 709.736,368.49 692.909,360.026 650.842,351.562 634.014,351.562 617.188,368.49 617.188,368.49 617.188,393.88 625.601,419.27 634.014,436.198 659.255,453.124 676.082,453.124 701.322,453.124 718.15,436.198 726.563,419.27 726.563,402.344 "
     style="fill:#996a37;fill-opacity:1;stroke:none"
     id="polygon26"
     transform="matrix(0.09922505,0,0,0.09922505,0,2.4414062e-6)" />
  <polygon
     points="718.75,419.531 710.227,428.125 693.181,445.313 676.136,445.313 659.091,445.313 659.091,445.313 642.045,428.125 633.522,410.938 625,393.75 625,376.563 633.522,367.969 642.045,359.375 684.659,367.969 710.227,385.156 718.75,402.344 "
     style="fill:#ffe1c2;fill-opacity:1;stroke:none"
     id="polygon28"
     transform="matrix(0.09922505,0,0,0.09922505,0,2.4414062e-6)" />
  <use
     href="#oid1"
     id="use30"
     x="0"
     y="0"
     width="744.09448"
     height="1052.3622"
     transform="matrix(0.09922505,0,0,0.09922505,0,2.4414062e-6)" />
</svg>
