<?xml version="1.0" encoding="UTF-8" standalone="no"?>
<svg
   xmlns:dc="http://purl.org/dc/elements/1.1/"
   xmlns:cc="http://creativecommons.org/ns#"
   xmlns:rdf="http://www.w3.org/1999/02/22-rdf-syntax-ns#"
   xmlns:svg="http://www.w3.org/2000/svg"
   xmlns="http://www.w3.org/2000/svg"
   xmlns:xlink="http://www.w3.org/1999/xlink"
   xmlns:sodipodi="http://sodipodi.sourceforge.net/DTD/sodipodi-0.dtd"
   xmlns:inkscape="http://www.inkscape.org/namespaces/inkscape"
   version="1.1"
   xml:space="preserve"
   height="219px"
   viewBox="21.027 45.083 219 219"
   width="219px"
   enable-background="new 21.027 45.083 219 219"
   y="0px"
   x="0px"
   id="svg2"
   inkscape:version="0.47 r22583"
   sodipodi:docname="deployedsoftware.svg"><sodipodi:namedview
     pagecolor="#ffffff"
     bordercolor="#666666"
     borderopacity="1"
     objecttolerance="10"
     gridtolerance="10"
     guidetolerance="10"
     inkscape:pageopacity="0"
     inkscape:pageshadow="2"
     inkscape:window-width="640"
     inkscape:window-height="483"
     id="namedview123"
     showgrid="false"
     inkscape:zoom="1.0776256"
     inkscape:cx="109.5"
     inkscape:cy="109.5"
     inkscape:window-x="0"
     inkscape:window-y="0"
     inkscape:window-maximized="0"
     inkscape:current-layer="svg2" /><metadata
     id="metadata4"><rdf:RDF><cc:Work
         rdf:about=""><dc:format>image/svg+xml</dc:format><dc:type
           rdf:resource="http://purl.org/dc/dcmitype/StillImage" /><dc:title /></cc:Work></rdf:RDF></metadata><defs
     id="defs6"><filter
       id="filter4791"><feGaussianBlur
         stdDeviation="1.3862323"
         id="feGaussianBlur9" /></filter><filter
       id="filter4539"
       color-interpolation-filters="sRGB"><feGaussianBlur
         stdDeviation="2.1999998"
         id="feGaussianBlur12" /></filter><linearGradient
       id="linearGradient3280"
       y2="521"
       xlink:href="#linearGradient5241"
       spreadMethod="reflect"
       gradientUnits="userSpaceOnUse"
       x2="-3.6"
       gradientTransform="translate(235.86516,-28.363359)"
       y1="515"
       x1="-73.3" /><linearGradient
       id="linearGradient5241"><stop
         stop-color="#7c7c7c"
         offset="0"
         id="stop16" /><stop
         stop-color="#c6c6c6"
         offset="1"
         id="stop18" /></linearGradient><linearGradient
       id="linearGradient3282"
       y2="521"
       xlink:href="#linearGradient5241"
       spreadMethod="reflect"
       gradientUnits="userSpaceOnUse"
       x2="-3.6"
       gradientTransform="translate(241.35512,-29.278352)"
       y1="515"
       x1="-73.3" /><linearGradient
       id="linearGradient3284"
       y2="369"
       spreadMethod="reflect"
       gradientUnits="userSpaceOnUse"
       x2="214"
       y1="474"
       x1="390"><stop
         stop-color="#6f6f6f"
         offset="0"
         id="stop22" /><stop
         stop-color="#f5f5f5"
         offset="1"
         id="stop24" /></linearGradient><filter
       id="filter11193"
       height="1.204561"
       width="1.6059247"
       y="-0.10228051"
       x="-0.30296236"
       color-interpolation-filters="sRGB"><feGaussianBlur
         stdDeviation="18.143585"
         id="feGaussianBlur33" /></filter><filter
       id="filter11189"
       height="1.2111586"
       width="1.3552474"
       y="-0.10557931"
       x="-0.17762369"
       color-interpolation-filters="sRGB"><feGaussianBlur
         stdDeviation="18.143585"
         id="feGaussianBlur39" /></filter><filter
       id="filter11185"
       height="1.2424628"
       width="1.2640786"
       y="-0.12123133"
       x="-0.13203932"
       color-interpolation-filters="sRGB"><feGaussianBlur
         stdDeviation="18.143585"
         id="feGaussianBlur45" /></filter><filter
       id="filter11181"
       height="1.3091427"
       width="1.2171913"
       y="-0.15457135"
       x="-0.10859563"
       color-interpolation-filters="sRGB"><feGaussianBlur
         stdDeviation="18.143585"
         id="feGaussianBlur51" /></filter><inkscape:perspective
       id="perspective2890"
       inkscape:persp3d-origin="0.5 : 0.33333333 : 1"
       inkscape:vp_z="1 : 0.5 : 1"
       inkscape:vp_y="0 : 1000 : 0"
       inkscape:vp_x="0 : 0.5 : 1"
       sodipodi:type="inkscape:persp3d" /><linearGradient
       inkscape:collect="always"
       xlink:href="#linearGradient3284-1"
       id="linearGradient3708"
       gradientUnits="userSpaceOnUse"
       spreadMethod="reflect"
       x1="390.20001"
       y1="473.79999"
       x2="213.7"
       y2="368.70001"
       gradientTransform="matrix(0.49330515,0,0,0.49330515,-75.823499,-123.84818)" /><linearGradient
       id="linearGradient3284-1"
       x1="390.20001"
       spreadMethod="reflect"
       gradientUnits="userSpaceOnUse"
       y1="473.79999"
       x2="213.7"
       y2="368.70001"><stop
         stop-color="#6f6f6f"
         offset="0"
         id="stop14" /><stop
         stop-color="#f5f5f5"
         offset="1"
         id="stop16-7" /></linearGradient><linearGradient
       inkscape:collect="always"
       xlink:href="#linearGradient3664"
       id="linearGradient3688"
       x1="-103.06042"
       y1="167.63292"
       x2="-28.059572"
       y2="123.86324"
       gradientUnits="userSpaceOnUse"
       gradientTransform="translate(181.84722,-37.00117)" /><linearGradient
       id="linearGradient3664"><stop
         style="stop-color:#0000ff;stop-opacity:0;"
         offset="0"
         id="stop3666" /><stop
         id="stop3668"
         offset="0.20762333"
         style="stop-color:#0000ff;stop-opacity:0.09803922;" /><stop
         id="stop3670"
         offset="0.32430306"
         style="stop-color:#00ff00;stop-opacity:0.09803922;" /><stop
         id="stop3672"
         offset="0.49649313"
         style="stop-color:#ffff00;stop-opacity:0.09803922;" /><stop
         id="stop3674"
         offset="0.63897055"
         style="stop-color:#ff0000;stop-opacity:0.09803922;" /><stop
         style="stop-color:#ff0000;stop-opacity:0;"
         offset="1"
         id="stop3676" /></linearGradient><filter
       color-interpolation-filters="sRGB"
       inkscape:collect="always"
       id="filter3714"><feGaussianBlur
         inkscape:collect="always"
         stdDeviation="2.8267969"
         id="feGaussianBlur3716" /></filter><linearGradient
       inkscape:collect="always"
       xlink:href="#linearGradient5241-4"
       id="linearGradient3753"
       x1="539.03125"
       y1="423.84375"
       x2="434.03125"
       y2="318.84375"
       gradientUnits="userSpaceOnUse"
       gradientTransform="translate(-325.92592,-208.96396)" /><linearGradient
       id="linearGradient5241-4"><stop
         stop-color="#7c7c7c"
         offset="0"
         id="stop8" /><stop
         stop-color="#c6c6c6"
         offset="1"
         id="stop10" /></linearGradient><linearGradient
       y2="318.84375"
       x2="434.03125"
       y1="423.84375"
       x1="539.03125"
       gradientTransform="translate(-325.92592,-208.96396)"
       gradientUnits="userSpaceOnUse"
       id="linearGradient2923"
       xlink:href="#linearGradient5241-4"
       inkscape:collect="always" /></defs><filter
     id="filter53"><feGaussianBlur
       stdDeviation="4"
       id="feGaussianBlur55" /></filter><path
     opacity="0.5"
     d="m230,80.9-9.94,8.09s0.929,1.48,1.28,2.28c0.586,1.33,0.792,2.24,1.12,3.88,0.471,2.3,0.286,4.8,0.312,7.12,0.0436,3.88-0.22,7.81-0.219,11.7,0.004,5.3,0.0486,10.6,0.0625,15.9,0.0174,6.09-0.0891,12.2-0.0625,18.3,0.0307,6.36,0.136,12.6,0.156,19,0.0208,6.21-0.0785,12.4-0.0625,18.6,0.0174,5.73-0.0174,11.7,0,17.4,0.001,0.305,0.0625,0.445,0.0625,0.75l-0.281,4.78c0.001,0.355-0.0003,0.894,0,1.31h-76.1v23.3c0,7.17,5.84,13,13,13h50.4c2.67,0,5.07-0.824,7.06-2.22,0,0,0.0548-0.025,0.0625-0.0312,0.0545-0.0386,0.102-0.0855,0.156-0.125l8.84-6.16c7.7-5.85,7.09-11.6,7.09-11.6l-0.2-139s-0.473-3.54-2.78-5.84zm-45.4,139c4.42,0,8,3.6,8,8.03s-3.58,8.03-8,8.03c-4.43,0-8-3.6-8-8.03s3.57-8.03,8-8.03z"
     transform="matrix(1.230792,0,0,1.151343,-51.373367,-26.053061)"
     filter="url(#filter4791)"
     stroke-miterlimit="4"
     stroke-width="0"
     fill="#000"
     id="path57" /><path
     opacity="0.89655175"
     d="m155,222s24.1-27.5,32.2-43.4c11.8-23.2,22.7-74.1,22.7-74.1l1.42,97.7z"
     stroke-miterlimit="4"
     stroke-width="0"
     fill="#613e61"
     id="path59" /><path
     d="m122,203,0,3.32,0,3.19,0,17.4c0,8.26,8.14,15,18.2,15h70.4c10,0,18.1-6.7,18.1-15v-26.8h-106v2.87z"
     stroke="#494848"
     stroke-width="1.92527485"
     fill="#707070"
     id="path61" /><path
     d="m229,70.3c0-8.54-7.17-15.5-16-15.5h-62.1c-8.85,0-16,6.92-16,15.5v128h94.1v-128z"
     stroke="#494848"
     stroke-width="1.92527485"
     fill="#8e8e8e"
     id="path63" /><path
     d="m122,236c0,8.26,7.18,15,16,15h62.1c8.85,0,15.3-6.86,16-15v-26.8h-94.1v26.8zm47.1-15c5.44,0,9.85,4.14,9.85,9.24s-4.41,9.23-9.85,9.23c-5.45,0-9.87-4.13-9.87-9.23s4.42-9.24,9.87-9.24z"
     stroke="#494848"
     stroke-width="1.92527485"
     fill="#b7b6b6"
     id="path65" /><path
     d="m216,79c0-8.28-7.17-15-16-15h-62.1c-8.85,0-16,6.7-16,15v124h94.1v-124zm-12.9,10.9c0,1.58-1.4,2.86-3.08,2.86h-62.1c-1.69,0-3.06-1.28-3.06-2.86v-9.61c0-1.58,1.37-2.87,3.06-2.87h62.1c1.68,0,3.08,1.29,3.08,2.87v9.61z"
     stroke="#494848"
     stroke-width="1.92527485"
     fill="#b7b6b6"
     id="path67" /><path
     d="m126,69.5c0.007-0.0035,12.7-10,12.7-10s5.97-5.23,15.4-4.87c1.72,0,3.44,0,5.17-0.000943,4.2-0.0052,8.41,0,12.6-0.000961,5.3-0.000908,10.6-0.0052,15.9,0,5,0.0052,9.99-0.0171,15,0.0035,3.48,0.0137,6.96-0.129,10.4,0.0466,2.57,0.13,4.45,1.01,6.52,1.92,2.14,0.941,5.52,4.24,5.52,4.24l-11.9,9.3s-4.36-5.93-11.3-5.76c-1.84-0.012-3.68-0.0259-5.52-0.0307-4.5-0.012-9-0.0399-13.5-0.0782-5.65-0.0483-11.3-0.0828-17-0.0884-5.23-0.0052-10.5-0.012-15.7-0.102-3.53-0.0624-7.05-0.142-10.8,0.0706-2.21,0.127-4.56-0.0298-6.6,0.763-2.45,0.945-4.96,3-7.01,4.6z"
     stroke="#494848"
     stroke-width="1.92527485"
     fill="#b2b2b2"
     id="path69" /><path
     d="m216,208c0.0111,2.67-0.0111,7.16,0,9.83,0.0165,3.38-0.153,6.46-0.143,9.83,0.005,1.43,0.0708,3.29,0.0708,4.72,0,11.4-6.82,16.3-6.82,16.3l11.2-7.27c9.47-6.73,8.71-13.3,8.71-13.3l-0.29-160s-0.568-4.07-3.41-6.73l-12.2,9.3s1.13,1.73,1.56,2.66c0.722,1.54,0.964,2.54,1.37,4.43,0.579,2.65,0.346,5.56,0.379,8.24,0.0537,4.46-0.264,8.98-0.262,13.4,0.005,6.1,0.0537,12.2,0.0708,18.3,0.0214,7.01-0.104,14-0.0708,21.1,0.0378,7.32,0.189,14.5,0.214,21.9,0.0256,7.15-0.0916,14.2-0.0719,21.4,0.0214,6.59-0.0214,13.5,0,20.1,0.001,0.351,0.0719,0.513,0.0719,0.864"
     stroke="#494848"
     stroke-width="1.92527485"
     fill="#6b6a6a"
     id="path71" /><line
     stroke-width="1.93"
     y2="189"
     y1="203"
     stroke="#494848"
     x2="230"
     x1="217"
     fill="#353434"
     id="line73" /><line
     stroke-width="1.93"
     y2="196"
     y1="210"
     stroke="#494848"
     x2="230"
     x1="217"
     fill="#353434"
     id="line75" /><line
     stroke-width="1.93"
     y2="210"
     y1="201"
     stroke="#494848"
     x2="216"
     x1="216"
     fill="#8e8e8e"
     id="line77" /><path
     fill="#999"
     d="m137,202s78.5,0.0672,78.5,0.0672l-0.253-90.8c-8.37,83.6-78.2,90.7-78.2,90.7z"
     id="path79" /><path
     fill="#999"
     d="m148,250,51.4,0c11.3,0.645,16.1-7.35,16.1-14.9l-0.0815-21.2c-5.71,37.2-67.4,36.1-67.4,36.1z"
     id="path81" /><g
     transform="matrix(0.73486683,0,0,0.73486683,23.244998,102.94679)"
     id="g2870"><path
       id="maindisk"
       d="m 108.08067,4.855128 c -57.914035,0 -104.975345,47.061311 -104.975345,105.024672 0,57.96335 47.03664,105.02466 104.975345,105.02466 57.96335,0 105.02466,-47.05145 105.02466,-105.02466 0,-57.973228 -47.05145,-104.975345 -105.02466,-104.975345 z m 0,78.928818 c 14.39464,0 26.08597,11.676543 26.08597,26.066244 0,14.39465 -11.69133,26.08598 -26.08597,26.08598 -14.394655,0 -26.066245,-11.69133 -26.066245,-26.08598 0,-14.394641 11.67652,-26.066244 26.066245,-26.066244 z"
       style="color:#000000;fill:url(#linearGradient3708)" /><path
       id="whiteouter"
       d="m 108.10533,83.332919 c -14.665937,0 -26.562504,11.896559 -26.562504,26.562501 0,14.66593 11.896567,26.53125 26.562504,26.53125 14.66594,0 26.5625,-11.86532 26.5625,-26.53125 0,-14.665942 -11.89656,-26.562501 -26.5625,-26.562501 z m 0,7.0625 c 10.76956,0 19.5,8.73044 19.5,19.500001 0,10.76956 -8.73044,19.5 -19.5,19.5 -10.769569,0 -19.500004,-8.73044 -19.500004,-19.5 0,-10.769561 8.730435,-19.500001 19.500004,-19.500001 z"
       style="color:#000000;fill:#ffffff;fill-opacity:1;fill-rule:nonzero;stroke:none;stroke-width:1;marker:none;visibility:visible;display:inline;overflow:visible;enable-background:accumulate" /><path
       id="mediumgrey"
       d="m 108.10533,90.879788 c -10.493415,0 -19.000005,8.506601 -19.000005,19.000002 0,10.49342 8.50659,19.00001 19.000005,19.00001 10.49341,0 19,-8.50659 19,-19.00001 0,-10.493401 -8.50659,-19.000002 -19,-19.000002 z m 0,3.437501 c 8.58803,0 15.5625,6.974481 15.5625,15.562501 0,8.58805 -6.97447,15.53126 -15.5625,15.53126 -8.588035,0 -15.531255,-6.94321 -15.531255,-15.53126 0,-8.58802 6.94322,-15.562501 15.531255,-15.562501 z"
       style="color:#000000;fill:#b7b6b6;fill-opacity:1;fill-rule:nonzero;stroke:none;stroke-width:1;marker:none;visibility:visible;display:inline;overflow:visible;enable-background:accumulate" /><path
       id="whiteinner"
       d="m 108.12095,94.317288 c -8.588026,0 -15.562496,6.974482 -15.562496,15.562502 0,8.58805 6.97447,15.56251 15.562496,15.56251 8.58803,0 15.53125,-6.97446 15.53125,-15.56251 0,-8.58802 -6.94322,-15.562502 -15.53125,-15.562502 z m 0,1.21875 c 7.9253,0 14.34375,6.418472 14.34375,14.343752 0,7.92531 -6.41845,14.34376 -14.34375,14.34376 -7.92529,0 -14.343746,-6.41845 -14.343746,-14.34376 0,-7.92528 6.418456,-14.343752 14.343746,-14.343752 z"
       style="color:#000000;fill:#eaeaea;fill-opacity:1;fill-rule:nonzero;stroke:none;stroke-width:1;marker:none;visibility:visible;display:inline;overflow:visible;enable-background:accumulate" /><path
       id="lightgrey"
       d="m 108.0897,95.536038 c -7.92529,0 -14.343746,6.418472 -14.343746,14.343752 0,7.92531 6.418456,14.34376 14.343746,14.34376 7.9253,0 14.375,-6.41845 14.375,-14.34376 0,-7.92528 -6.4497,-14.343752 -14.375,-14.343752 z m 0,5.250002 c 5.02579,0 9.125,4.06797 9.125,9.09375 0,5.02581 -4.09921,9.09376 -9.125,9.09376 -5.02578,0 -9.093746,-4.06795 -9.093746,-9.09376 0,-5.02578 4.067966,-9.09375 9.093746,-9.09375 z"
       style="color:#000000;fill:#dddddd;fill-opacity:1;fill-rule:nonzero;stroke:none;stroke-width:1;marker:none;visibility:visible;display:inline;overflow:visible;enable-background:accumulate" /><path
       id="blackhole"
       d="m 108.0897,100.77042 c -5.0258,0 -9.093746,4.06797 -9.093746,9.09375 0,5.0258 4.067946,9.125 9.093746,9.125 5.02579,0 9.125,-4.0992 9.125,-9.125 0,-5.02578 -4.09922,-9.09375 -9.125,-9.09375 z m 0,1.09375 c 4.41827,0 8,3.58174 8,8 0,4.41828 -3.58173,8 -8,8 -4.41827,0 -8,-3.58172 -8,-8 0,-4.41826 3.58173,-8 8,-8 z"
       style="color:#000000;fill:#3a3a3a;fill-opacity:1;fill-rule:nonzero;stroke:none;stroke-width:1;marker:none;visibility:visible;display:inline;overflow:visible;enable-background:accumulate" /><path
       id="translucentring"
       d="m 108.10533,71.752198 c -21.057301,0 -38.127595,17.070304 -38.127595,38.127602 0,21.05731 17.070294,38.12759 38.127595,38.12759 21.05732,0 38.12759,-17.07028 38.12759,-38.12759 0,-21.057298 -17.07027,-38.127602 -38.12759,-38.127602 z m 0,9.393752 c 15.86929,0 28.73383,12.864636 28.73383,28.73385 0,15.86927 -12.86454,28.73384 -28.73383,28.73384 -15.869286,0 -28.733842,-12.86457 -28.733842,-28.73384 0,-15.869214 12.864556,-28.73385 28.733842,-28.73385 z"
       style="color:#000000;fill:#ffffff;fill-opacity:0.32352941;fill-rule:nonzero;stroke:none;stroke-width:1;marker:none;visibility:visible;display:inline;overflow:visible;enable-background:accumulate" /><path
       id="blackring"
       d="m 108.10533,90.379788 c -10.769575,0 -19.500005,8.730453 -19.500005,19.500012 0,10.76956 8.73043,19.5 19.500005,19.5 10.76955,0 19.5,-8.73044 19.5,-19.5 0,-10.769559 -8.73045,-19.500012 -19.5,-19.500012 z m 0,0.75 c 10.35534,0 18.75,8.39466 18.75,18.750012 0,10.35535 -8.39466,18.75 -18.75,18.75 -10.355364,0 -18.750005,-8.39465 -18.750005,-18.75 0,-10.355352 8.39465,-18.750012 18.750005,-18.750012 z"
       style="color:#000000;fill:#000000;fill-opacity:1;fill-rule:nonzero;stroke:none;stroke-width:1;marker:none;visibility:visible;display:inline;overflow:visible;enable-background:accumulate" /><path
       id="path2856"
       d="M 95.375,6.0762339 C 66.360386,9.5861729 40.950926,24.954697 24.187496,47.201234 L 84.65625,98.888728 c 4.236235,-8.66815 13.144849,-14.65625 23.4375,-14.65625 0.92066,0 1.82256,0.0318 2.71875,0.125 L 95.375,6.0762339 z M 131.0625,122.66998 c -4.40541,8.1564 -13.02936,13.70706 -22.9375,13.71875 l 12.71875,78.1875 c 29.35794,-3.56606 55.00348,-19.24439 71.75,-41.90625 l -61.53125,-50 z"
       style="fill:url(#linearGradient3688);fill-opacity:1;stroke:none;filter:url(#filter3714)" /><path
       id="diskedge"
       d="m 108.07408,4.879788 c -57.963355,0 -104.968755,47.030071 -104.968755,104.968762 0,57.96335 47.03007,105.03125 104.968755,105.03125 57.96335,0 105.03125,-47.05802 105.03125,-105.03125 0,-57.973232 -47.05802,-104.968762 -105.03125,-104.968762 z m 0.0312,5.000001 c 55.22848,0 100,44.77152 100,100.000011 0,55.22847 -44.77152,100 -100,100 -55.228485,0 -100.000005,-44.77153 -100.000005,-100 0,-55.228492 44.77152,-100.000012 100.000005,-100.000012 z"
       style="color:#000000;fill:url(#linearGradient2923);fill-opacity:1;stroke:none;enable-background:accumulate" /></g></svg>