<?xml version="1.0" encoding="UTF-8" standalone="no"?>
<!-- Generator: Adobe Illustrator 13.0.2, SVG Export Plug-In  -->

<svg
   xmlns:dc="http://purl.org/dc/elements/1.1/"
   xmlns:cc="http://creativecommons.org/ns#"
   xmlns:rdf="http://www.w3.org/1999/02/22-rdf-syntax-ns#"
   xmlns:svg="http://www.w3.org/2000/svg"
   xmlns="http://www.w3.org/2000/svg"
   xmlns:xlink="http://www.w3.org/1999/xlink"
   xmlns:sodipodi="http://sodipodi.sourceforge.net/DTD/sodipodi-0.dtd"
   xmlns:inkscape="http://www.inkscape.org/namespaces/inkscape"
   version="1.1"
   xml:space="preserve"
   height="219"
   width="219"
   enable-background="new -0.633 -0.046 188 207"
   y="0px"
   x="0px"
   viewBox="-0.633 -0.046 219 219"
   id="svg3093"
   inkscape:version="0.48.0 r9654"
   sodipodi:docname="deployment_environment.svg"><sodipodi:namedview
     pagecolor="#ffffff"
     bordercolor="#666666"
     borderopacity="1"
     objecttolerance="10"
     gridtolerance="10"
     guidetolerance="10"
     inkscape:pageopacity="0"
     inkscape:pageshadow="2"
     inkscape:window-width="1159"
     inkscape:window-height="672"
     id="namedview3157"
     showgrid="false"
     inkscape:zoom="0.98242188"
     inkscape:cx="109.5"
     inkscape:cy="110.87375"
     inkscape:window-x="178"
     inkscape:window-y="169"
     inkscape:window-maximized="0"
     inkscape:current-layer="svg3093" /><metadata
     id="metadata3095"><rdf:RDF><cc:Work
         rdf:about=""><dc:format>image/svg+xml</dc:format><dc:type
           rdf:resource="http://purl.org/dc/dcmitype/StillImage" /><dc:title></dc:title></cc:Work></rdf:RDF></metadata><defs
     id="defs3097"><filter
       id="filter4079-8"
       color-interpolation-filters="sRGB"><feGaussianBlur
         stdDeviation="1.3451605"
         id="feGaussianBlur3103" /></filter><radialGradient
       id="radialGradient3063"
       gradientUnits="userSpaceOnUse"
       cy="104"
       cx="-122"
       r="62.3"><stop
         stop-color="#f9f9f9"
         offset="0"
         id="stop3106" /><stop
         stop-color="#f9f9f9"
         stop-opacity="0"
         offset="1"
         id="stop3108" /></radialGradient><filter
       id="filter3914"><feGaussianBlur
         stdDeviation="1.6389349"
         id="feGaussianBlur3111" /></filter><radialGradient
       inkscape:collect="always"
       xlink:href="#radialGradient3063"
       id="radialGradient3159"
       gradientUnits="userSpaceOnUse"
       cx="-122"
       cy="104"
       r="62.3" /><filter
       id="filter4318"
       color-interpolation-filters="sRGB"><feGaussianBlur
         stdDeviation="1.5906562"
         id="feGaussianBlur3286" /></filter><radialGradient
       inkscape:collect="always"
       xlink:href="#radialGradient3063"
       id="radialGradient3577"
       gradientUnits="userSpaceOnUse"
       cx="-122"
       cy="104"
       r="62.3" /></defs><path
     style="fill:#79bde8;stroke:#55b9df;stroke-width:1.40219629"
     d="m 182.19906,97.92911 c 0.69011,38.75382 -27.61338,75.58576 -65.28934,84.7653 C 81.433686,192.46778 41.130095,176.37129 21.871514,145.08299 0.27438651,112.3837 4.7386529,65.535594 32.199757,37.556296 57.57127,9.8383946 101.63546,2.2570498 134.77923,19.989679 c 28.74022,14.519817 47.76878,45.721239 47.41983,77.939431 z"
     id="path3131"
     inkscape:connector-curvature="0" /><path
     style="fill:#4d4d4d"
     d="m 74.251584,77.503005 c 5.722003,-7.539935 -6.940652,-2.413867 -1.440891,-0.441792 l 1.227949,0.119307 -0.20334,-0.318152"
     id="path3133"
     inkscape:connector-curvature="0" /><path
     style="fill:#4d4d4d"
     d="m 79.298159,67.228052 c -7.673522,3.459334 2.14549,7.351209 -3.276331,9.399724 3.855205,4.25044 -5.840499,3.275646 2.193721,4.018219 7.356846,1.20794 -0.04254,-7.500958 1.919115,-9.652111 -2.29001,-1.168318 0.978842,-2.363737 -0.836505,-3.765832 z"
     id="path3135"
     inkscape:connector-curvature="0" /><path
     style="fill:#4d4d4d"
     d="m 86.929566,64.752161 c -1.128691,4.06546 1.728,7.955143 4.422764,3.184121 -1.317671,7.247496 4.082082,5.921669 6.00579,0.779906 -4.223,-4.339788 1.812112,-4.894896 2.84578,-8.586394 -2.117129,5.297457 0.80731,10.823762 6.30512,4.828755 6.40577,-0.226347 -5.29507,-8.883033 3.53104,-7.351834 -2.58737,-4.650591 -7.59043,-3.706119 -10.843835,-4.545964 -5.401016,5.370115 -5.204392,9.441984 -12.266659,11.69141 z"
     id="path3137"
     inkscape:connector-curvature="0" /><path
     style="fill:#4d4d4d"
     d="m 74.251584,82.578584 c 6.209736,7.059661 -19.600731,9.951728 -4.271588,17.133018 8.494385,1.477918 10.629339,-14.985333 20.227388,-6.719985 3.01734,2.769787 9.510146,11.982373 6.758866,2.98479 -6.210102,-10.039357 4.41343,0.83605 7.07612,4.287993 3.42023,-1.107933 2.08884,-6.280978 5.99032,-1.143616 -6.19491,-8.722617 11.12114,-20.813731 11.96888,-8.076428 -3.23089,2.985354 -12.77446,1.015421 -8.6107,9.101374 1.87254,7.81661 9.65389,-4.606984 6.68759,4.07609 -4.08134,7.91863 -15.18531,1.35847 -22.284123,5.99389 -8.372982,0.33452 -13.030455,-13.395059 -22.933764,-8.66547 -13.576714,0.0131 -26.729674,10.694 -27.203565,24.72707 -1.158878,12.28818 11.446865,19.50727 22.348209,18.82938 12.30194,-2.47378 14.667529,8.97061 18.261213,17.50472 1.391954,8.83302 3.115338,21.40423 15.2456,21.21176 11.65946,-1.25683 19.82232,-10.32289 26.19782,-19.41284 -1.7303,-9.1288 5.61197,-16.7966 11.49122,-23.54032 3.55632,-4.9938 1.50927,-12.14317 -5.17925,-8.49784 -7.3155,-3.88189 -17.08769,-10.70203 -17.9084,-19.09183 8.66425,-0.0852 12.79201,20.65265 23.81964,13.80715 8.38645,-3.29144 11.7896,-24.45734 -1.5441,-16.47348 -5.23087,-2.11317 -1.38098,-10.16547 2.3606,-4.25517 9.01868,-3.28001 23.23251,-9.071099 25.2206,5.71413 5.20606,7.99211 2.56917,-10.34065 4.46565,-13.404634 2.06466,-5.667601 -1.29823,-16.463405 6.74864,-9.851283 7.57965,-5.714545 -2.54497,-18.723449 -4.05132,-26.724993 -6.95823,-15.908389 -18.41072,-30.221014 -33.65488,-38.838309 -10.81673,4.063715 -19.32344,-8.206873 -29.84073,-9.453055 -3.89882,-1.869019 -15.413504,-1.467157 -5.72122,0.658371 6.1444,1.433417 20.41079,13.798219 13.36141,17.551643 -12.44548,2.384183 14.39256,17.23188 -0.2795,15.183726 -5.74748,7.001241 -6.75618,-12.118986 -9.52017,-2.308817 5.31597,8.658354 3.26659,17.847514 -4.54817,24.145907 -3.61967,7.115502 -11.906758,6.918267 -16.717471,6.060064 -2.645289,5.586274 -8.111545,7.657434 -13.960815,7.486994 z"
     id="path3139"
     inkscape:connector-curvature="0" /><path
     style="fill:#4d4d4d"
     d="m 91.97614,10.554884 c -29.772756,0.03357 -57.038507,18.768727 -72.110641,43.747774 4.355995,3.354768 11.128969,0.935293 15.806567,5.396548 8.945725,-1.850865 -8.498252,-13.40613 1.797982,-10.720335 4.23197,2.536377 -1.731101,15.511101 5.817466,11.589578 -3.916682,-8.583516 2.784793,-12.817198 9.593883,-15.873335 4.797254,-8.027633 -6.162769,-5.933321 -8.901866,-4.261165 4.173147,-4.39859 6.430428,-14.288906 14.130972,-7.423433 4.491792,-4.349841 9.549497,-9.29201 17.278319,-8.310119 0.76246,-5.822663 5.047033,-10.257838 12.120961,-8.781926 3.134143,0.849853 10.194404,-3.813157 4.466357,-5.363587 z"
     id="path3141"
     inkscape:connector-curvature="0" /><path
     style="fill:#4d4d4d"
     d="m 56.403939,50.639576 c 0.682578,6.183104 5.651523,-5.619848 10.125922,-0.621944 8.154706,0.981787 15.904294,-5.648922 19.115482,-13.073314 4.53079,-0.188099 4.184972,-2.117685 1.83493,-3.190001 6.658332,-5.294999 -5.254861,2.609927 -0.211898,-4.446957 -3.804026,-1.207514 -7.693723,-9.623557 -12.020863,-1.947638 -9.55362,4.801398 14.406787,3.280791 0.887995,6.633886 C 68.704602,38.411867 62.527742,44.31361 56.40763,50.669162 l -0.0037,-0.02959 z"
     id="path3143"
     inkscape:connector-curvature="0" /><path
     style="fill:#4d4d4d"
     d="m 70.435879,54.477209 c 6.677901,-2.305984 3.768168,9.452785 -0.494809,2.541256 0.741486,-0.558243 -0.440365,-2.057112 0.494809,-2.541256 z"
     id="path3145"
     inkscape:connector-curvature="0" /><path
     style="fill:#4d4d4d"
     d="m 93.3301,41.478775 c 1.686031,9.448125 8.79285,-4.96258 -0.16481,0.0012"
     id="path3147"
     inkscape:connector-curvature="0" /><path
     style="fill:#4d4d4d"
     d="m 134.15196,161.71395 c 1.19257,-4.98296 10.08691,-7.6668 11.01291,-14.86388 2.368,7.73435 -5.01875,16.87094 -11.39046,18.44329 -1.17573,-0.90734 -1.28271,-3.16361 0.37755,-3.57941 z"
     id="path3149"
     inkscape:connector-curvature="0" /><path
     style="fill:#4d4d4d"
     d="m 8.301456,92.853536 c -0.098448,19.253094 2.545689,40.297204 15.360054,55.535494 8.270847,-4.86658 -1.125295,-16.68452 -5.587852,-20.0687 -6.221822,-3.26639 -0.08133,-13.14767 -5.655746,-18.62765 C 9.3415109,105.14219 11.081895,94.629383 8.301456,92.853536 z"
     id="path3151"
     inkscape:connector-curvature="0" /><path
     style="opacity:0.67672412;fill:url(#radialGradient3577);fill-rule:evenodd;stroke-width:0;stroke-miterlimit:4;filter:url(#filter4079-8)"
     d="m -60.8,104 c 1.554046,39.46681 -42.20052,72.13017 -79.55452,58.37828 -32.0172,-9.42185 -51.59226,-47.11387 -39.36892,-78.485796 10.1059,-33.016381 50.6038,-50.416701 81.797662,-36.29929 C -75.83765,56.680502 -60.612161,80.270304 -60.8,104 z"
     id="path3153"
     inkscape:connector-curvature="0"
     transform="matrix(0.50553966,0,0,0.50844505,120.39659,-9.6036629)" /><path
     style="fill:#505050;fill-opacity:0.50196078;fill-rule:evenodd;stroke-miterlimit:4;filter:url(#filter3914)"
     d="m -148,152 c -6.93147,-0.86448 -18.61338,-5.61194 -21.1852,-8.2178 22.85007,5.46501 49.27912,-0.6763 64.66008,-19.19528 C -88.387288,106.14956 -83.764168,77.837596 -94.9,55.74 c 5.498856,0.960296 8.61104,10.807 11.489687,16.093242 10.102361,25.324292 0.51523,57.369208 -23.156307,71.549808 C -118.71489,151.02913 -133.92739,154.51554 -148,152 z"
     id="path3155"
     inkscape:connector-curvature="0"
     transform="matrix(1.510701,0,0,1.4062198,303.10852,-29.660705)" /><g
     transform="matrix(0.64886135,0,0,0.56927893,105.22587,89.055129)"
     id="g3370"><path
       style="opacity:0.5;fill:#000000;fill-rule:evenodd;stroke-width:0;stroke-miterlimit:4;filter:url(#filter4318)"
       d="M 75.9,214 C 63.81917,203.88464 70.610862,184.57454 68.588827,170.45103 68.53628,126.8316 69.212973,83.216321 69.636,39.6 c 8.912269,-9.239799 19.372849,-18.636724 33.37383,-16.323812 18.34411,1.041619 37.907,-2.583839 55.41742,2.719312 7.22017,3.185579 7.43702,9.852619 6.72563,16.626139 -0.3729,50.909233 0.11763,101.875351 -1.91611,152.733141 -0.70822,10.8764 -12.51631,14.28021 -19.64777,20.50522 -21.68369,-0.2827 -43.43427,0.71596 -65.064063,-0.78806 L 75.889,214.13 75.9,214 z"
       id="path3372"
       inkscape:connector-curvature="0" /><path
       style="fill:#707070;stroke:#494848;stroke-width:1.86454809"
       d="m 56.7,161 c 0.949301,10.77156 -2.425895,22.57698 2.905664,32.38037 9.207618,10.31759 23.974966,5.49488 36.136054,6.61963 15.757972,-0.1827 31.548922,0.37837 47.284712,-0.30451 13.41241,-1.56325 14.41723,-15.65536 13.57357,-26.19552 -1.26457,-4.50764 2.54975,-14.09418 -1.91667,-15.39997 -32.66111,0 -65.32222,0 -97.98333,0 0,0.96667 0,1.93333 0,2.9 z"
       id="path3374"
       inkscape:connector-curvature="0" /><path
       style="fill:#8e8e8e;stroke:#494848;stroke-width:1.86454809"
       d="M 157,27.8 C 157.36456,13.687061 142.38297,11.063288 131.45831,12.3 114.5687,12.495851 97.638011,11.899347 80.775332,12.614512 67.166278,15.449543 68.625753,30.575398 68.8,41.216698 c 0,38.194434 0,76.388872 0,114.583302 29.4,0 58.8,0 88.2,0 0,-42.66667 0,-85.333333 0,-128 z"
       id="path3376"
       inkscape:connector-curvature="0" /><path
       style="fill:#b7b6b6;stroke:#494848;stroke-width:1.86454809"
       d="m 56.8,194 c -0.183656,13.95356 14.807399,16.11493 25.541691,15 16.88008,-0.194 33.800789,0.39668 50.654269,-0.31107 13.5667,-3.09219 12.22783,-18.31497 12.00404,-29.06396 -0.72664,-5.33169 2.96736,-15.08401 -5.75001,-12.42497 -27.48333,0 -54.966661,0 -82.44999,0 0,8.93333 0,17.86667 0,26.8 z m 44.1,-15.1 c 20.24335,1.70435 0.94576,30.88428 -8.523281,12.84953 C 89.679918,185.93598 94.493808,178.66919 100.9,178.9 z"
       id="path3378"
       inkscape:connector-curvature="0" /><path
       style="fill:#b7b6b6;stroke:#494848;stroke-width:1.86454809"
       d="M 145,36.5 C 145.19596,22.536315 130.19258,20.387964 119.45831,21.5 102.56841,21.689634 85.639986,21.112072 68.775332,21.804512 55.633438,24.249134 56.463625,38.688036 56.8,48.958363 c 0,37.180545 0,74.361087 0,111.541637 29.4,0 58.8,0 88.2,0 0,-41.33333 0,-82.666667 0,-124 z m -12.1,10.9 c -3.87361,5.55422 -12.94672,1.729013 -19.1817,2.86 -13.969437,0 -27.938868,0 -41.9083,0 -4.803736,-2.8195 -5.033837,-17.8991 3.833342,-15.35 18.12222,0 36.244438,0 54.366658,0 5.04126,1.44403 2.09385,8.631452 2.89,12.49 z"
       id="path3380"
       inkscape:connector-curvature="0" /><path
       style="fill:#b2b2b2;stroke:#494848;stroke-width:1.86454809"
       d="m 60.2,26.9 c 11.530702,-14.671128 29.380521,-16.718665 46.76031,-14.882919 12.39974,2.160812 42.77084,-5.9111182 44.00879,8.04827 -6.71652,8.82305 -11.14918,5.970541 -19.5891,1.702185 -21.52648,0.459358 -43.241654,-1.462199 -64.65,0.5341 C 64.268417,23.355744 62.116018,25.268677 60.2,26.9 z"
       id="path3382"
       inkscape:connector-curvature="0" /><path
       style="fill:#6b6a6a;stroke:#494848;stroke-width:1.86454809"
       d="m 145,165 c 0.64492,12.28536 0.29365,34.84307 -4.88168,39.62792 8.60206,-5.46769 19.18779,-12.60595 17.07684,-24.27959 -0.0873,-52.06944 -0.17464,-104.138887 -0.26196,-156.20833 -1.31824,-12.6122 -9.44147,-0.66639 -14.59,2.57 6.60916,14.618666 1.26638,31.540413 2.9262,47.14 -0.0408,28.45426 0.12611,56.91424 0.1338,85.365"
       id="path3384"
       inkscape:connector-curvature="0" /><path
       style="fill:#353434;stroke:#494848;stroke-width:1.86000001"
       d="m 145,160 c 4,-4.33333 8,-8.66667 12,-13"
       id="line3386"
       inkscape:connector-curvature="0" /><path
       style="fill:#353434;stroke:#494848;stroke-width:1.86000001"
       d="m 145,167 c 4,-4.33333 8,-8.66667 12,-13"
       id="line3388"
       inkscape:connector-curvature="0" /><path
       style="fill:#8e8e8e;stroke:#494848;stroke-width:1.86000001"
       d="m 145,159 c 0,2.66667 0,5.33333 0,8"
       id="line3390"
       inkscape:connector-curvature="0" /><path
       style="fill:#999999"
       d="m 70.5,160 c 24.5,0.0224 49,0.0447 73.5,0.0671 -0.079,-30.3 -0.158,-60.6 -0.237,-90.9 -2.19119,36.24086 -22.40338,73.65181 -57.876355,86.59895 C 80.938425,157.69219 75.624306,159.20566 70.5,160 z"
       id="path3392"
       inkscape:connector-curvature="0" /><path
       style="fill:#999999"
       d="m 80.7,208 c 17.263237,-0.0904 34.53369,0.18524 51.79219,-0.1457 14.10793,-2.55649 11.1515,-18.64908 11.35601,-29.22924 1.12887,-17.23364 -4.76309,16.68729 -14.52289,16.41308 C 115.23369,204.77055 97.500131,207.67118 80.7,208 z"
       id="path3394"
       inkscape:connector-curvature="0" /><path
       style="fill:#e50a39"
       d="m 84.743287,71.010836 c -3.305892,20.477593 -28.541763,-4.758277 -8.06417,-8.06417 4.319273,-0.108749 8.17292,3.744897 8.06417,8.06417 z"
       id="circle3396"
       inkscape:connector-curvature="0" /><path
       style="fill:#e50a39"
       d="m 122.06222,73.341522 c -9.62167,15.023242 -9.7041,-14.690918 0,0 z"
       id="circle3398"
       inkscape:connector-curvature="0" /><path
       style="fill:#ffb509"
       d="m 111.06138,73.434748 c -9.62167,15.023242 -9.70409,-14.690918 0,0 z"
       id="circle3400"
       inkscape:connector-curvature="0" /><path
       style="fill:#96c93c"
       d="m 99.967324,73.434748 c -9.621669,15.023242 -9.704095,-14.690918 0,0 z"
       id="circle3402"
       inkscape:connector-curvature="0" /></g></svg>