<?xml version="1.0" encoding="UTF-8" standalone="no"?>
<!--
Troux Technologies, Inc. Confidential and Proprietary.
This work contains valuable confidential, proprietary and trade secret
information of Troux Technologies, Inc. and is protected by the laws of 
the United States and other countries. Any disclosure, use or reproduction
of this work without the prior written authorization of Troux Technologies, Inc.
is strictly prohibited.
Copyright (C) 2000-2006 Troux Technologies, Inc. All rights reserved.
-->

<svg
   xmlns:dc="http://purl.org/dc/elements/1.1/"
   xmlns:cc="http://creativecommons.org/ns#"
   xmlns:rdf="http://www.w3.org/1999/02/22-rdf-syntax-ns#"
   xmlns:svg="http://www.w3.org/2000/svg"
   xmlns="http://www.w3.org/2000/svg"
   xmlns:sodipodi="http://sodipodi.sourceforge.net/DTD/sodipodi-0.dtd"
   xmlns:inkscape="http://www.inkscape.org/namespaces/inkscape"
   version="1.1"
   x="0px"
   y="0px"
   width="219px"
   height="219px"
   viewBox="-0.253 -0.016 219 219"
   enable-background="new -0.253 -0.016 168 198"
   xml:space="preserve"
   id="svg2"
   inkscape:version="0.47 r22583"
   sodipodi:docname="design_pattern_category.svg"><metadata
   id="metadata251"><rdf:RDF><cc:Work
       rdf:about=""><dc:format>image/svg+xml</dc:format><dc:type
         rdf:resource="http://purl.org/dc/dcmitype/StillImage" /><dc:title /></cc:Work></rdf:RDF></metadata><sodipodi:namedview
   pagecolor="#ffffff"
   bordercolor="#666666"
   borderopacity="1"
   objecttolerance="10"
   gridtolerance="10"
   guidetolerance="10"
   inkscape:pageopacity="0"
   inkscape:pageshadow="2"
   inkscape:window-width="1239"
   inkscape:window-height="804"
   id="namedview249"
   showgrid="false"
   inkscape:zoom="2.4006522"
   inkscape:cx="102.22621"
   inkscape:cy="110.05216"
   inkscape:window-x="0"
   inkscape:window-y="334"
   inkscape:window-maximized="0"
   inkscape:current-layer="svg2" />

 <defs
   id="defs3917"><inkscape:perspective
   sodipodi:type="inkscape:persp3d"
   inkscape:vp_x="0 : 109.5 : 1"
   inkscape:vp_y="0 : 1000 : 0"
   inkscape:vp_z="219 : 109.5 : 1"
   inkscape:persp3d-origin="109.5 : 73 : 1"
   id="perspective63" />
  <filter
   id="filter4083">
   <feGaussianBlur
   id="feGaussianBlur4085"
   stdDeviation="1.9595469" />
  </filter>
 <inkscape:perspective
   id="perspective2849"
   inkscape:persp3d-origin="0.5 : 0.33333333 : 1"
   inkscape:vp_z="1 : 0.5 : 1"
   inkscape:vp_y="0 : 1000 : 0"
   inkscape:vp_x="0 : 0.5 : 1"
   sodipodi:type="inkscape:persp3d" /><filter
   id="filter4102"
   color-interpolation-filters="sRGB"><feGaussianBlur
     stdDeviation="1.9852141"
     id="feGaussianBlur9" /></filter></defs>
 <metadata
   id="metadata3920">
  <rdf:RDF>
   <cc:Work
   rdf:about="">
    <dc:format>image/svg+xml</dc:format>
    <dc:type
   rdf:resource="http://purl.org/dc/dcmitype/StillImage" />
    <dc:title />
   </cc:Work>
  </rdf:RDF>
 </metadata>
 
 
 
 <path
   style="fill:#e6e4a6;stroke:#cecc5f;stroke-width:3.24324608"
   d="m 188.37973,18.676815 h -74.3 c -13.03,0 -23.600001,13.02 -23.600001,29.09 v 0.1665 h -61.15 c -13.029999,0 -23.5899994,13.02 -23.5899994,29.11 v 96.599995 c 0,16.06 10.5700004,29.09 17.9299994,29.09 H 182.66973 c 18.68,0 29.23,-13.03 29.23,-29.09 V 47.843315 c 0,-16.06 -10.5,-29.08 -23.5,-29.08 z"
   id="path13" /><path
   style="color:#000000;fill:#d2ce5e;fill-rule:nonzero;stroke:#bdbb3a;stroke-width:3.24324608;stroke-linecap:butt;stroke-linejoin:miter;stroke-miterlimit:4;stroke-dasharray:none;stroke-dashoffset:0;enable-background:accumulate"
   d="m 211.87973,48.036815 c 0,-16.48 -10.54,-29.83 -23.54,-29.83 h -74.21 c -13.01,0 -23.210001,12.44 -23.210001,28.92 v 0.5622"
   stroke-miterlimit="4"
   id="path15" /><g
   id="g4109">
  <g
   id="g3164"
   fill="#002ec4"
   transform="matrix(-2.6823125,0,0,2.6823125,910.52128,-1579.7489)">
   <path
   id="path3166"
   fill="#002ec4"
   d="m269.56,621.36,0,22.501,25.181,10.18,0-22.502-25.181-10.179z" />
  </g>
  <g
   id="g3168"
   fill="#0085e7"
   transform="matrix(-2.6823125,0,0,2.6823125,910.52128,-1579.7489)">
   <path
   id="path3170"
   fill="#0085e7"
   d="m325.55,644.24,0-21.76-30.939,9.195,0,22.501,30.939-9.936z" />
  </g>
  <g
   id="g3172"
   fill="#2da6ff"
   transform="matrix(-2.6823125,0,0,2.6823125,910.52128,-1579.7489)">
   <path
   id="path3174"
   d="m269.56,621.63,31.192-9.192,24.794,10.042-30.805,9.462-25.181-10.312z" />
  </g>
  <g
   id="g3176"
   fill="#002ec4"
   transform="matrix(-2.6823125,0,0,2.6823125,910.52128,-1579.7489)">
   <path
   id="path3178"
   d="m289.92,622.97,0,4.554c2.41,2.143,10.713,2.01,12.723-0.268v-4.688l-12.723,0.402z" />
  </g>
  <g
   id="g3180"
   fill="#2da6ff"
   transform="matrix(-2.6823125,0,0,2.6823125,910.52128,-1579.7489)">
   <path
   id="path3182"
   d="m289.92,622.64c0-0.85,2.848-1.54,6.361-1.54,3.514,0,6.362,0.69,6.362,1.54,0,0.851-2.848,1.54-6.362,1.54-3.513,0-6.361-0.689-6.361-1.54z" />
  </g>
  <g
   id="g3188"
   fill="#002ec4"
   transform="matrix(-2.6823125,0,0,2.6823125,910.52128,-1579.7489)">
   <path
   id="path3190"
   d="m305.79,618.35,0,4.554c2.411,2.144,10.714,2.01,12.723-0.267v-4.688l-12.723,0.401z" />
  </g>
  <g
   id="g3192"
   fill="#2da6ff"
   transform="matrix(-2.6823125,0,0,2.6823125,910.52128,-1579.7489)">
   <path
   id="path3194"
   d="m305.79,618.02c0-0.851,2.848-1.54,6.362-1.54,3.513,0,6.361,0.689,6.361,1.54,0,0.85-2.848,1.54-6.361,1.54-3.514,0-6.362-0.69-6.362-1.54z" />
  </g>
  <g
   id="g3200"
   fill="#002ec4"
   transform="matrix(-2.6823125,0,0,2.6823125,910.52128,-1579.7489)">
   <path
   id="path3202"
   d="m292.6,612.79,0,4.554c2.411,2.143,10.714,2.009,12.723-0.268v-4.688l-12.723,0.402z" />
  </g>
  <g
   id="g3204"
   fill="#2da6ff"
   transform="matrix(-2.6823125,0,0,2.6823125,910.52128,-1579.7489)">
   <path
   id="path3206"
   d="m292.6,612.46c0-0.85,2.848-1.54,6.362-1.54,3.513,0,6.361,0.69,6.361,1.54,0,0.851-2.848,1.54-6.361,1.54-3.514,0-6.362-0.689-6.362-1.54z" />
  </g>
  <g
   id="g3212"
   fill="#002ec4"
   transform="matrix(-2.6823125,0,0,2.6823125,910.52128,-1579.7489)">
   <path
   id="path3214"
   d="m277,617.28,0,4.554c2.411,2.143,10.714,2.009,12.723-0.268v-4.688l-12.723,0.402z" />
  </g>
  <g
   id="g3216"
   fill="#2da6ff"
   transform="matrix(-2.6823125,0,0,2.6823125,910.52128,-1579.7489)">
   <path
   id="path3218"
   d="m277,616.95c0-0.851,2.848-1.54,6.362-1.54,3.513,0,6.361,0.689,6.361,1.54s-2.848,1.54-6.361,1.54c-3.514,0-6.362-0.689-6.362-1.54z" />
  </g>
 </g>
 <g
   id="g2860"
   fill="#f5fa40"
   transform="matrix(2.9182834,0,0,2.9182834,-781.05467,-1139.102)" />
 <g
   id="g2872"
   fill="#f5fa40"
   transform="matrix(2.9182834,0,0,2.9182834,-781.05467,-1139.102)" />
 <g
   id="g2884"
   fill="#f5fa40"
   transform="matrix(2.9182834,0,0,2.9182834,-781.05467,-1139.102)" />
 <g
   id="g2896"
   fill="#f5fa40"
   transform="matrix(2.9182834,0,0,2.9182834,-781.05467,-1139.102)" />
 <g
   id="g2908"
   fill="#f5fa40"
   transform="matrix(2.9182834,0,0,2.9182834,-781.05467,-1139.102)" />
 <g
   id="g2920"
   fill="#f5fa40"
   transform="matrix(2.9182834,0,0,2.9182834,-781.05467,-1139.102)" />
 <g
   id="g2932"
   fill="#f5fa40"
   transform="matrix(2.9182834,0,0,2.9182834,-781.05467,-1139.102)" />
 <g
   id="g2944"
   fill="#f5fa40"
   transform="matrix(2.9182834,0,0,2.9182834,-781.05467,-1139.102)" />
 <g
   id="g2968"
   fill="#ff212c"
   transform="matrix(2.9182834,0,0,2.9182834,-781.05467,-1139.102)" />
 <g
   id="g2980"
   fill="#ff212c"
   transform="matrix(2.9182834,0,0,2.9182834,-781.05467,-1139.102)" />
 <g
   id="g2992"
   fill="#ff212c"
   transform="matrix(2.9182834,0,0,2.9182834,-781.05467,-1139.102)" />
 <g
   id="g3004"
   fill="#ff212c"
   transform="matrix(2.9182834,0,0,2.9182834,-781.05467,-1139.102)" />
 <g
   id="g3016"
   fill="#ff212c"
   transform="matrix(2.9182834,0,0,2.9182834,-781.05467,-1139.102)" />
 <g
   id="g3028"
   fill="#ff212c"
   transform="matrix(2.9182834,0,0,2.9182834,-781.05467,-1139.102)" />
 <g
   id="g3040"
   fill="#ff212c"
   transform="matrix(2.9182834,0,0,2.9182834,-781.05467,-1139.102)" />
 <g
   id="g3052"
   fill="#ff212c"
   transform="matrix(2.9182834,0,0,2.9182834,-781.05467,-1139.102)" />
 <g
   id="g3076"
   fill="#2da6ff"
   transform="matrix(2.9182834,0,0,2.9182834,-781.05467,-1139.102)" />
 <g
   id="g3088"
   fill="#2da6ff"
   transform="matrix(2.9182834,0,0,2.9182834,-781.05467,-1139.102)" />
 <g
   id="g3100"
   fill="#2da6ff"
   transform="matrix(2.9182834,0,0,2.9182834,-781.05467,-1139.102)" />
 <g
   id="g3112"
   fill="#2da6ff"
   transform="matrix(2.9182834,0,0,2.9182834,-781.05467,-1139.102)" />
 <g
   id="g3124"
   fill="#2da6ff"
   transform="matrix(2.9182834,0,0,2.9182834,-781.05467,-1139.102)" />
 <g
   id="g3136"
   fill="#2da6ff"
   transform="matrix(2.9182834,0,0,2.9182834,-781.05467,-1139.102)" />
 <g
   id="g3148"
   fill="#2da6ff"
   transform="matrix(2.9182834,0,0,2.9182834,-781.05467,-1139.102)" />
 <g
   id="g3160"
   fill="#2da6ff"
   transform="matrix(2.9182834,0,0,2.9182834,-781.05467,-1139.102)" />
 <g
   id="g3184"
   fill="#2da6ff"
   transform="matrix(2.9182834,0,0,2.9182834,-781.05467,-1139.102)" />
 <g
   id="g3196"
   fill="#2da6ff"
   transform="matrix(2.9182834,0,0,2.9182834,-781.05467,-1139.102)" />
 <g
   id="g3208"
   fill="#2da6ff"
   transform="matrix(2.9182834,0,0,2.9182834,-781.05467,-1139.102)" />
 <g
   id="g3220"
   fill="#2da6ff"
   transform="matrix(2.9182834,0,0,2.9182834,-781.05467,-1139.102)" />
</svg>