<?xml version="1.0" encoding="UTF-8" standalone="no"?>
<svg
   xmlns:dc="http://purl.org/dc/elements/1.1/"
   xmlns:cc="http://creativecommons.org/ns#"
   xmlns:rdf="http://www.w3.org/1999/02/22-rdf-syntax-ns#"
   xmlns:svg="http://www.w3.org/2000/svg"
   xmlns="http://www.w3.org/2000/svg"
   xmlns:xlink="http://www.w3.org/1999/xlink"
   xmlns:sodipodi="http://sodipodi.sourceforge.net/DTD/sodipodi-0.dtd"
   xmlns:inkscape="http://www.inkscape.org/namespaces/inkscape"
   version="1.1"
   xml:space="preserve"
   height="219"
   width="219"
   enable-background="new -0.162 -0.016 195 215"
   y="0px"
   x="0px"
   id="svg2"
   inkscape:version="0.47 r22583"
   sodipodi:docname="designprinciple.svg"><sodipodi:namedview
     pagecolor="#ffffff"
     bordercolor="#666666"
     borderopacity="1"
     objecttolerance="10"
     gridtolerance="10"
     guidetolerance="10"
     inkscape:pageopacity="0"
     inkscape:pageshadow="2"
     inkscape:window-width="1600"
     inkscape:window-height="1178"
     id="namedview94"
     showgrid="false"
     inkscape:zoom="4.2511416"
     inkscape:cx="102.50774"
     inkscape:cy="93.513859"
     inkscape:window-x="1272"
     inkscape:window-y="-8"
     inkscape:window-maximized="1"
     inkscape:current-layer="svg2" /><metadata
     id="metadata4"><rdf:RDF><cc:Work
         rdf:about=""><dc:format>image/svg+xml</dc:format><dc:type
           rdf:resource="http://purl.org/dc/dcmitype/StillImage" /><dc:title /></cc:Work></rdf:RDF></metadata><defs
     id="defs6"><linearGradient
       id="linearGradient3917"><stop
         style="stop-color:#7a7a7a;stop-opacity:1;"
         offset="0"
         id="stop3919" /><stop
         style="stop-color:#dfdfdf;stop-opacity:1;"
         offset="1"
         id="stop3921" /></linearGradient><linearGradient
       id="linearGradient3055"
       y2="70.9"
       gradientUnits="userSpaceOnUse"
       y1="128"
       gradientTransform="matrix(1.0509817,0,0,1.0509817,4.3810714,-26.303488)"
       x2="28.5"
       x1="165"><stop
         stop-color="#60011b"
         offset="0"
         id="stop18" /><stop
         stop-color="#8c0128"
         offset="0.238"
         id="stop20" /><stop
         stop-color="#b00837"
         offset="1"
         id="stop22" /></linearGradient><linearGradient
       inkscape:collect="always"
       xlink:href="#linearGradient3917"
       id="linearGradient3923"
       x1="218.86234"
       y1="120.96875"
       x2="308.20016"
       y2="120.96875"
       gradientUnits="userSpaceOnUse"
       gradientTransform="translate(-163.95265,10.845848)" /><linearGradient
       inkscape:collect="always"
       xlink:href="#linearGradient3917"
       id="linearGradient3931"
       x1="291.89359"
       y1="120.98438"
       x2="381.23141"
       y2="120.98438"
       gradientUnits="userSpaceOnUse"
       gradientTransform="translate(-164.36777,10.743306)" /><linearGradient
       inkscape:collect="always"
       xlink:href="#linearGradient3055"
       id="linearGradient3653"
       gradientUnits="userSpaceOnUse"
       gradientTransform="matrix(1.0509817,0,0,1.0509817,-180.03998,-22.539793)"
       x1="165"
       y1="128"
       x2="28.5"
       y2="70.9" /><linearGradient
       inkscape:collect="always"
       xlink:href="#linearGradient3055"
       id="linearGradient3658"
       gradientUnits="userSpaceOnUse"
       gradientTransform="matrix(1.0509817,0,0,1.0509817,-163.10335,-23.010255)"
       x1="165"
       y1="128"
       x2="28.5"
       y2="70.9" /><linearGradient
       inkscape:collect="always"
       xlink:href="#linearGradient3055"
       id="linearGradient3693"
       gradientUnits="userSpaceOnUse"
       gradientTransform="matrix(1.0509817,0,0,1.0509817,-155.61893,-26.303488)"
       x1="165"
       y1="128"
       x2="28.5"
       y2="70.9" /><linearGradient
       inkscape:collect="always"
       xlink:href="#linearGradient3055"
       id="linearGradient3696"
       gradientUnits="userSpaceOnUse"
       gradientTransform="matrix(1.0509817,0,0,1.0509817,4.38107,-26.303488)"
       x1="165"
       y1="128"
       x2="28.5"
       y2="70.9" /></defs><path
     style="fill:url(#linearGradient3696)"
     d="M 209,104 C 172.80197,76.83712 135.52414,50.919121 102,20.4 70.319551,21.444019 39.21839,29.485705 9.82253,41.023535 -1.2841,48.327771 8.75811,62.29681 12.55125,71.185313 c 5.04968,8.429349 9.56526,16.992303 14.14465,25.60238 3.07351,9.594407 10.96877,16.397267 14.50801,25.802937 5.69733,8.24105 7.93483,17.90924 15.61143,24.97783 2.65628,11.14222 11.538883,18.73284 16.63466,28.63154 2.647203,10.5229 14.792131,19.51087 23.451243,9.31028 16.377637,-9.9959 34.334267,-17.00739 51.532707,-25.4375 16.95697,-7.87682 33.7866,-16.1358 49.65275,-26.06678 -8.26209,-7.52413 -0.11891,-20.58329 5.71771,-26.80795 C 205.546,106.25417 208.45984,106.16635 209,104 z m -8.65,5.6 c -6.10592,7.09946 -7.40149,18.23545 -7.02915,25.57743 -32.13693,18.85473 -68.89612,28.9428 -99.821386,49.90939 -11.327613,5.02666 -14.964987,-11.94085 -5.858884,-16.89991 10.144878,-9.76971 23.51536,-15.10647 35.66697,-21.8574 25.63145,-12.75069 51.41898,-25.1888 77.38245,-37.24951 0.39283,-1.19898 -0.41558,0.85666 -0.34,0.52 z"
     id="path3691" /><path
     style="color:#000000;fill:#b3b3b3;fill-opacity:1;fill-rule:nonzero;stroke:none;stroke-width:1;marker:none;visibility:visible;display:inline;overflow:visible;enable-background:accumulate"
     d="m 64.353282,106.47986 c -9.922437,1.21525 -16.17006,11.49538 -16.204865,20.8931 -0.221971,4.48868 1.387609,8.83927 3.428702,12.69585 4.028974,1.87031 -1.404344,-3.99538 -1.232764,-6.03035 -2.532646,-8.45107 0.266306,-18.47948 7.38772,-23.87072 1.249679,-2.70404 5.718091,-0.73683 6.621207,-3.68788 z"
     id="path3665" /><path
     d="m82.3,182c-2.54-5.79,0.945-12.3,11.2-19.4,16-10.4,31.3-17,44.9-23.7,19.1-9.39,61.4-29.9,61.9-29.9,0.124,0-1.95,4.13-3.45,7.13-1.72,3.46-2.95,6.7-3.35,9.04-0.604,3.54-0.336,4.77,0.99,9.41,0.152,0.532-13.7,7.38-44.4,22.3l-44.5,21.7-2.37-3.05c-3.95-5.07-4.38-6.12-9.72-3.25l-3.69,1.98,2.84,0.535c2.13,0.402,3.21,1.28,4.49,3.89l1.88,3.47-7.02,3.15c-5.39,3.23-7.36,1.79-9.75-3.26z"
     stroke-width="0"
     fill="#FFF"
     id="path26" /><path
     fill="#d59f0f"
     d="m106,178c-2.36-3.64-5.06-6.59-8.04-8.61l-8.49,4.4c1.86,0.523,3.41-0.193,6.18,3.01,0.983,1.13,2.11,2.78,3.25,4.72l1.58,2.85c2.6,4.88,5.12,10.7,6.33,14.7,0.472-1.54,1.96-4.77,2.4-6.95,1.75,2.15,5.01,4.05,6.78,5.02-2.59-4.16-5.15-10.7-8.32-16.3l-1.67-2.79z"
     id="path30" /><path
     style="color:#000000;fill:#be8e0d;fill-rule:nonzero;enable-background:accumulate;fill-opacity:1"
     d="m 44.6,52.1 c 14.340305,-5.024312 27.770162,-13.850449 43.366085,-14.350493 5.492926,-0.338191 11.910238,0.410945 15.367095,5.253318 2.99209,3.62169 3.2787,9.841077 -0.8853,12.730247 -6.754855,5.771236 -15.468519,8.208831 -23.395736,11.862404 -0.856233,3.675324 2.836107,5.98857 4.802948,8.523125 3.093051,3.953637 5.539153,8.579162 9.566555,11.712718 3.449451,0.612894 6.898903,1.225787 10.348353,1.838681 -9.3,3.766667 -27.9,11.3 -27.9,11.3 0,0 3.013333,-5.84 4.52,-8.76 -3.933333,-5.566667 -7.866667,-11.133333 -11.8,-16.7 -2.178649,1.065911 -6.796864,2.713585 -6.796864,2.713585 0,0 6.267719,-4.023698 2.923095,-4.550628 -2.168888,0.610844 -7.73194,1.775551 -7.73194,1.775551 0,0 7.663166,-4.309198 5.25416,-8.680261 C 60.544289,62.805229 56.945546,60.078223 55.071533,56.201256 53.829166,53.720913 51.243604,52.753311 48.644551,52.694009 47.293368,52.488006 44.591,52.076 44.591,52.076 m 17.8,-3.32 c 4.233333,5.433333 8.466667,10.866667 12.7,16.3 3.198056,-3.152617 -1.277647,-6.60615 -3.354396,-8.878806 -2.448272,-1.868776 -6.813894,-7.15973 -2.038525,-8.902456 4.3906,-1.277414 8.893633,-2.360936 13.384724,-3.099841 4.131916,0.775501 -2.286006,0.869544 -3.493189,1.181121 -3.399978,0.544189 -7.22581,1.294206 -9.546017,4.054857 -1.089582,3.776071 3.714402,5.940096 5.256712,8.946162 2.048282,2.286129 3.641104,6.600825 7.1099,3.792285 4.537323,-1.856827 9.34874,-4.717316 11.084526,-9.560539 0.831029,-4.839825 -3.971049,-8.513163 -8.280819,-9.26229 C 77.151424,41.560236 69.51399,45.641804 62.341,48.71 m 30.5,-12.5 c 7.70192,-0.939863 16.31208,3.578082 18.69277,11.192042 0.96653,4.536341 -2.0768,8.783004 -5.75199,11.108853 -5.977466,4.595997 -13.17694,7.100579 -20.121124,9.820683 -2.214959,4.066882 3.602852,6.185651 5.073118,9.374653 2.410341,2.961883 4.423284,6.560998 7.740456,8.560527 C 103.53982,87.684505 113.671,90.52 113.671,90.52 c 0,0 -30.6,12.4 -30.6,12.4 0,0 5.430741,-3.562254 8.296477,-4.809635 C 97.12431,95.288791 109.131,90.666 109.131,90.666 c 0,0 -12.377497,-1.774527 -16.072434,-6.937554 C 89.434913,78.551941 85.283512,73.778102 81.431,68.776 c 9.46696,-3.825816 20.16062,-6.529433 27.03899,-14.635096 3.69875,-3.973517 1.41893,-10.549915 -2.76258,-13.222824 -3.6628,-2.83945 -8.238693,-4.340899 -12.826409,-4.712079"
     id="path92"
     sodipodi:nodetypes="ccccccccccccccccccccccccccccccccccccccccccccc" /><path
     style="color:#000000;fill:#b3b3b3;fill-opacity:1;fill-rule:nonzero;stroke:none;stroke-width:1;marker:none;visibility:visible;display:inline;overflow:visible;enable-background:accumulate"
     d="m 42.329718,75.583479 c -6.401991,0.278482 -11.090798,6.055254 -12.460113,11.93397 -1.733311,6.416288 -0.612017,13.655661 3.245767,19.094951 2.23167,0.45254 -1.111684,-2.78273 -1.217283,-4.05552 -3.532975,-7.939786 -2.087056,-18.227199 4.543991,-24.12537 1.063901,-1.430571 6.231183,-1.569165 5.887638,-2.848031 z"
     id="path3667" /><path
     style="fill:url(#linearGradient3931);fill-opacity:1;stroke:#000000;stroke-width:1.02534771;stroke-miterlimit:4;stroke-opacity:1;stroke-dasharray:none"
     d="m 146.91348,71.587056 c -2.85029,2.913907 -6.8206,4.71875 -11.21875,4.71875 -2.78872,0 -5.3864,-0.725059 -7.65625,-2 l 22,38.125004 c 17.7214,0.6505 28.66851,38.619 43,57.93749 6.23575,-4.29916 7.97267,5.6259 23.3125,21.5 L 146.91348,71.587056 z"
     id="path4101" /><path
     style="fill:url(#linearGradient3923);fill-opacity:1;stroke:#000000;stroke-width:1.02534771;stroke-miterlimit:4;stroke-opacity:1;stroke-dasharray:none"
     d="M 124.85984,71.658348 55.422346,191.97085 c 15.33983,-15.8741 17.07676,-25.79916 23.3125,-21.5 14.33149,-19.31849 25.278604,-57.287 42.999994,-57.9375 l 22,-38.093752 c -2.26131,1.262129 -4.85139,1.96875 -7.625,1.96875 -4.41383,0 -8.39761,-1.817805 -11.25,-4.75 z"
     id="rect3129" /><path
     style="color:#000000;fill:#b3b3b3;fill-opacity:1;fill-rule:nonzero;stroke:none;stroke-width:1;marker:none;visibility:visible;display:inline;overflow:visible;enable-background:accumulate"
     d="m 24.170917,51.060184 c -4.375493,-0.141605 -8.234606,3.198982 -9.466351,7.274858 -1.722926,4.806925 -1.34495,10.342201 1.059234,14.848674 0.480815,1.028397 1.431629,4.372895 2.63537,3.03754 -2.920597,-3.694352 -4.23319,-8.562581 -4.005345,-13.237966 0.252472,-4.291931 2.209374,-8.929808 6.21342,-10.952266 1.145366,-0.871446 3.214173,-0.01078 3.946412,-0.902335 l -0.38274,-0.06851 0,0 z"
     id="path3669" /><path
     style="fill:#000000;fill-opacity:1;stroke:none"
     d="m 136.39617,45.643046 c -4.17882,-0.1168 -8.37822,1.552028 -11.37458,4.520226 -2.99635,2.968198 -4.75017,7.196634 -4.75042,11.453236 0.11914,4.103154 1.86264,8.133944 4.75513,10.993366 2.89249,2.859423 6.90091,4.514803 10.93237,4.514803 4.03146,0 8.03988,-1.65538 10.93237,-4.514803 2.89249,-2.859422 4.63599,-6.890212 4.75513,-10.993366 -1.4e-4,-4.108155 -1.62868,-8.192707 -4.44096,-11.138397 -2.81227,-2.945689 -6.77605,-4.718752 -10.80904,-4.835065 z m -0.15625,5.600258 c 2.62004,0.07301 5.19603,1.223571 7.02326,3.136925 1.82722,1.913354 2.88465,4.567478 2.88299,7.236279 0,2.715699 -1.09794,5.158446 -2.98385,7.078734 -1.88591,1.920288 -4.63906,2.986992 -7.30614,2.986992 -2.66708,0 -5.164,-1.015458 -7.04991,-2.935746 -1.88591,-1.920288 -3.0351,-4.414281 -3.0351,-7.12998 -0.002,-2.764297 1.13618,-5.511071 3.0818,-7.438931 1.94561,-1.927861 4.67319,-3.011321 7.38695,-2.934273 z"
     id="path3894"
     sodipodi:nodetypes="cscssscsccsssssssc" /><path
     style="fill:#d29d10;fill-opacity:1;stroke:none"
     d="m 136.38055,46.688815 a 14.695466,14.695466 0 0 0 -15.125,14.6875 14.703125,14.703125 0 0 0 29.40625,0 14.695466,14.695466 0 0 0 -14.28125,-14.6875 z m -1.21875,3.4375 a 11.261035,11.261035 0 0 1 12.0625,11.25 11.265625,11.265625 0 0 1 -22.53125,0 11.261035,11.261035 0 0 1 10.46875,-11.25 z"
     id="path7010" /><path
     style="color:#000000;fill:#b3b3b3;fill-opacity:1;fill-rule:nonzero;stroke:none;stroke-width:1;marker:none;visibility:visible;display:inline;overflow:visible;enable-background:accumulate"
     d="m 52.139231,89.764769 c -6.25822,1.699969 -11.084107,7.070238 -12.470312,13.363361 -1.748966,6.66848 -0.442099,14.06317 3.286942,19.80042 3.142266,0.51243 -1.949137,-4.10671 -1.736069,-6.11223 -2.9743,-8.58675 -0.493878,-19.403895 7.284021,-24.57907 0.813951,-0.410268 6.810334,-1.569228 3.635418,-2.472481 z"
     id="path3671" /><path
     style="fill:#b3b3b3;stroke:none"
     d="m 78.063404,125.55052 c -12.928852,2.31642 -20.210948,17.64342 -16.341491,29.65758 0.885328,1.95237 2.166317,7.12248 4.409167,5.8903 -2.454285,-3.83135 -4.215537,-8.20252 -3.992385,-12.89197 0.122066,-7.09881 3.349366,-14.38072 9.112636,-18.64578 2.183132,-1.38813 5.595735,-1.42195 6.812073,-4.01013 z"
     id="path3661" /><path
     style="color:#000000;fill:#b3b3b3;fill-opacity:1;fill-rule:nonzero;stroke:none;stroke-width:1;marker:none;visibility:visible;display:inline;overflow:visible;enable-background:accumulate"
     d="m 32.030712,62.577705 c -1.993349,-0.05515 -3.6974,1.309987 -5.313794,2.300596 -4.979535,4.015511 -6.012719,11.050689 -5.039182,17.041668 0.39692,2.331862 1.055206,4.653901 2.283328,6.675847 0.208935,1.166272 1.681755,3.983556 2.512591,2.983609 -1.41414,-2.377428 -2.823596,-4.789162 -3.483115,-7.507406 -1.783332,-6.291537 -0.933674,-13.876559 3.972954,-18.572823 1.583347,-1.914361 4.295573,-1.717409 6.215286,-2.626197 -0.297965,-0.288151 -0.755741,-0.293613 -1.148068,-0.295294 z"
     id="rect3648" /><path
     sodipodi:nodetypes="ccccccccccccccccccccccccccccccccccccccccccccc"
     id="path3663"
     d="m -211.30901,101.15471 c -10.16,0.1 -12.46125,13.33625 -9.03125,20.90625 0.93,0.94 1.50875,5.42425 3.46875,4.65625 -5.094,-6.4 -6.44375,-18.1025 0.65625,-23.8125 l 0.0937,-0.0937 1.59375,-0.90625 1.8125,-0.3125 c 0.37,0.345 3.34625,-0.3967 1.40625,-0.4375 z m 8.09375,11.53125 c -0.97913,-0.0214 -2.12025,0.1525 -1.84375,0.4375 -9.59,3.3 -10.42875,16.22125 -6.96875,24.28125 0.96,0.96 1.70375,5.54275 3.59375,4.59375 -5.678,-7.4 -6.9675,-20.07125 0.5625,-26.78125 l 0,-0.0312 c 1.58,-1.212 3.56125,-1.7631 5.53125,-1.8125 0.91,-0.4505 0.10413,-0.66613 -0.875,-0.6875 z m 10.3125,13 c -10.54,0.7 -14.7325,13.60375 -12.8125,22.59375 0.31508,0.87187 0.7592,2.82696 1.375,4.6875 l 2.1875,3.875 c 0.41529,0.26961 0.86977,0.37102 1.375,0.15625 -6.26,-8 -6.07375,-21.42125 1.90625,-28.28125 l -0.0312,-0.0312 c 0.9,-0.678 1.8775,-1.22375 2.9375,-1.59375 0.31,-0.436 4.7825,-0.29625 3.0625,-1.40625 z m 9.5625,14.1875 c -0.29467,0.0163 -0.568,0.12125 -0.71875,0.40625 -12.09,3.2 -15.2475,19.39375 -10.1875,29.59375 0.78,0.77 1.96125,5.12875 3.53125,3.71875 -6.67,-8.4 -6.5325,-22.525 1.9375,-29.875 l 0,-0.0312 c 1.78,-1.45 3.99125,-2.408 6.28125,-2.625 1.1625,-0.351 0.0403,-1.23644 -0.84375,-1.1875 z m 12.6875,16.71875 c -13.23,1.6 -19.56625,18.81875 -14.40625,30.21875 0.56,0.59 2.52625,6.22375 3.90625,4.09375 -7.11501,-8.79384 -5.3864,-23.21723 3.4375,-30.3125 l 1.09375,-0.78125 c 0.62,-1.96 7.11875,-1.06875 5.96875,-3.21875 z m 13.25,19.0625 c -13.82,2.3 -21.2125,20.08125 -15.3125,32.28125 0.54,0.69 2.6275,5.95125 3.9375,3.78125 -6.689,-8.1 -5.67375,-20.56625 0.90625,-28.40625 2.23396,-4.18991 7.8238,-4.9047 10.9375,-7.15625 l -0.46875,-0.5 z"
     style="color:#000000;fill:#00ffff;fill-opacity:1;fill-rule:nonzero;stroke:none;stroke-width:1;marker:none;visibility:visible;display:inline;overflow:visible;enable-background:accumulate" /><g
     id="g3879"
     transform="matrix(0.70710678,-0.70710678,0.70710678,0.70710678,-172.37232,31.101503)"><path
       sodipodi:nodetypes="cccccccc"
       d="m 83.930023,227.46689 20.430117,-0.077 0.41813,99.90691 100.03134,-0.42022 0.0773,20.47367 -120.461431,0.49827 -0.495456,-120.38159 0,-4e-5 z"
       style="fill:#000000;fill-opacity:1;stroke:none;stroke-width:1.02534771;marker-start:none;marker-mid:none;marker-end:none"
       id="path3747" /><g
       id="g3848"><path
         d="m 84.870941,228.39668 18.521839,-0.0703 0.37908,99.81904 99.75388,-0.37883 0.0701,18.45667 -118.275699,0.44919 -0.44918,-118.27573 z"
         style="fill:#d39e0f;fill-opacity:1;stroke:none;stroke-width:1.02534771;marker-start:none;marker-mid:none;marker-end:none"
         id="rect7985" /><path
         id="path3752"
         d="m 84.663229,235.30389 6.341627,0 0,1.40925 -6.341627,0 0,-1.40925 z"
         style="color:#000000;fill:#000000;fill-opacity:1;fill-rule:nonzero;stroke:none;stroke-width:1;marker:none;visibility:visible;display:inline;overflow:visible;enable-background:accumulate" /><path
         style="color:#000000;fill:#000000;fill-opacity:1;fill-rule:nonzero;stroke:none;stroke-width:1;marker:none;visibility:visible;display:inline;overflow:visible;enable-background:accumulate"
         d="m 84.663229,243.23348 6.341627,0 0,1.40925 -6.341627,0 0,-1.40925 z"
         id="path3754" /><path
         id="path3756"
         d="m 84.663229,251.16306 6.341627,0 0,1.40925 -6.341627,0 0,-1.40925 z"
         style="color:#000000;fill:#000000;fill-opacity:1;fill-rule:nonzero;stroke:none;stroke-width:1;marker:none;visibility:visible;display:inline;overflow:visible;enable-background:accumulate" /><path
         style="color:#000000;fill:#000000;fill-opacity:1;fill-rule:nonzero;stroke:none;stroke-width:1;marker:none;visibility:visible;display:inline;overflow:visible;enable-background:accumulate"
         d="m 84.663229,259.09265 6.341627,0 0,1.40925 -6.341627,0 0,-1.40925 z"
         id="path3758" /><path
         id="path3760"
         d="m 84.663229,267.02224 6.341627,0 0,1.40925 -6.341627,0 0,-1.40925 z"
         style="color:#000000;fill:#000000;fill-opacity:1;fill-rule:nonzero;stroke:none;stroke-width:1;marker:none;visibility:visible;display:inline;overflow:visible;enable-background:accumulate" /><path
         style="color:#000000;fill:#000000;fill-opacity:1;fill-rule:nonzero;stroke:none;stroke-width:1;marker:none;visibility:visible;display:inline;overflow:visible;enable-background:accumulate"
         d="m 84.663229,274.95183 6.341627,0 0,1.40925 -6.341627,0 0,-1.40925 z"
         id="path3762" /><path
         id="path3764"
         d="m 84.663229,282.88142 6.341627,0 0,1.40925 -6.341627,0 0,-1.40925 z"
         style="color:#000000;fill:#000000;fill-opacity:1;fill-rule:nonzero;stroke:none;stroke-width:1;marker:none;visibility:visible;display:inline;overflow:visible;enable-background:accumulate" /><path
         style="color:#000000;fill:#000000;fill-opacity:1;fill-rule:nonzero;stroke:none;stroke-width:1;marker:none;visibility:visible;display:inline;overflow:visible;enable-background:accumulate"
         d="m 84.663229,290.811 6.341627,0 0,1.40925 -6.341627,0 0,-1.40925 z"
         id="path3766" /><path
         id="path3768"
         d="m 84.663229,298.74059 6.341627,0 0,1.40925 -6.341627,0 0,-1.40925 z"
         style="color:#000000;fill:#000000;fill-opacity:1;fill-rule:nonzero;stroke:none;stroke-width:1;marker:none;visibility:visible;display:inline;overflow:visible;enable-background:accumulate" /><path
         style="color:#000000;fill:#000000;fill-opacity:1;fill-rule:nonzero;stroke:none;stroke-width:1;marker:none;visibility:visible;display:inline;overflow:visible;enable-background:accumulate"
         d="m 84.663229,306.67018 6.341627,0 0,1.40925 -6.341627,0 0,-1.40925 z"
         id="path3770" /><path
         id="path3772"
         d="m 84.663229,314.59976 6.341627,0 0,1.40925 -6.341627,0 0,-1.40925 z"
         style="color:#000000;fill:#000000;fill-opacity:1;fill-rule:nonzero;stroke:none;stroke-width:1;marker:none;visibility:visible;display:inline;overflow:visible;enable-background:accumulate" /><path
         style="color:#000000;fill:#000000;fill-opacity:1;fill-rule:nonzero;stroke:none;stroke-width:1;marker:none;visibility:visible;display:inline;overflow:visible;enable-background:accumulate"
         d="m 84.663229,322.52935 6.341627,0 0,1.40925 -6.341627,0 0,-1.40925 z"
         id="path3774" /><path
         id="path3776"
         d="m 84.663229,330.45894 6.341627,0 0,1.40925 -6.341627,0 0,-1.40925 z"
         style="color:#000000;fill:#000000;fill-opacity:1;fill-rule:nonzero;stroke:none;stroke-width:1;marker:none;visibility:visible;display:inline;overflow:visible;enable-background:accumulate" /><path
         style="color:#000000;fill:#000000;fill-opacity:1;fill-rule:nonzero;stroke:none;stroke-width:1;marker:none;visibility:visible;display:inline;overflow:visible;enable-background:accumulate"
         d="m 84.663229,338.38852 6.341627,0 0,1.40925 -6.341627,0 0,-1.40925 z"
         id="path3778" /><path
         style="color:#000000;fill:#000000;fill-opacity:1;fill-rule:nonzero;stroke:none;stroke-width:1;marker:none;visibility:visible;display:inline;overflow:visible;enable-background:accumulate"
         d="m 196.9065,340.75004 0,6.34163 -1.40925,0 0,-6.34163 1.40925,0 z"
         id="path3784" /><path
         id="path3786"
         d="m 188.97691,340.75004 0,6.34163 -1.40925,0 0,-6.34163 1.40925,0 z"
         style="color:#000000;fill:#000000;fill-opacity:1;fill-rule:nonzero;stroke:none;stroke-width:1;marker:none;visibility:visible;display:inline;overflow:visible;enable-background:accumulate" /><path
         style="color:#000000;fill:#000000;fill-opacity:1;fill-rule:nonzero;stroke:none;stroke-width:1;marker:none;visibility:visible;display:inline;overflow:visible;enable-background:accumulate"
         d="m 181.04733,340.75004 0,6.34163 -1.40925,0 0,-6.34163 1.40925,0 z"
         id="path3788" /><path
         id="path3790"
         d="m 173.11774,340.75004 0,6.34163 -1.40925,0 0,-6.34163 1.40925,0 z"
         style="color:#000000;fill:#000000;fill-opacity:1;fill-rule:nonzero;stroke:none;stroke-width:1;marker:none;visibility:visible;display:inline;overflow:visible;enable-background:accumulate" /><path
         style="color:#000000;fill:#000000;fill-opacity:1;fill-rule:nonzero;stroke:none;stroke-width:1;marker:none;visibility:visible;display:inline;overflow:visible;enable-background:accumulate"
         d="m 165.18815,340.75004 0,6.34163 -1.40925,0 0,-6.34163 1.40925,0 z"
         id="path3792" /><path
         id="path3794"
         d="m 157.25856,340.75004 0,6.34163 -1.40925,0 0,-6.34163 1.40925,0 z"
         style="color:#000000;fill:#000000;fill-opacity:1;fill-rule:nonzero;stroke:none;stroke-width:1;marker:none;visibility:visible;display:inline;overflow:visible;enable-background:accumulate" /><path
         style="color:#000000;fill:#000000;fill-opacity:1;fill-rule:nonzero;stroke:none;stroke-width:1;marker:none;visibility:visible;display:inline;overflow:visible;enable-background:accumulate"
         d="m 149.32897,340.75004 0,6.34163 -1.40925,0 0,-6.34163 1.40925,0 z"
         id="path3796" /><path
         id="path3798"
         d="m 141.39939,340.75004 0,6.34163 -1.40925,0 0,-6.34163 1.40925,0 z"
         style="color:#000000;fill:#000000;fill-opacity:1;fill-rule:nonzero;stroke:none;stroke-width:1;marker:none;visibility:visible;display:inline;overflow:visible;enable-background:accumulate" /><path
         style="color:#000000;fill:#000000;fill-opacity:1;fill-rule:nonzero;stroke:none;stroke-width:1;marker:none;visibility:visible;display:inline;overflow:visible;enable-background:accumulate"
         d="m 133.4698,340.75004 0,6.34163 -1.40925,0 0,-6.34163 1.40925,0 z"
         id="path3800" /><path
         id="path3802"
         d="m 125.54021,340.75004 0,6.34163 -1.40925,0 0,-6.34163 1.40925,0 z"
         style="color:#000000;fill:#000000;fill-opacity:1;fill-rule:nonzero;stroke:none;stroke-width:1;marker:none;visibility:visible;display:inline;overflow:visible;enable-background:accumulate" /><path
         style="color:#000000;fill:#000000;fill-opacity:1;fill-rule:nonzero;stroke:none;stroke-width:1;marker:none;visibility:visible;display:inline;overflow:visible;enable-background:accumulate"
         d="m 117.61063,340.75004 0,6.34163 -1.40925,0 0,-6.34163 1.40925,0 z"
         id="path3804" /><path
         id="path3806"
         d="m 109.68104,340.75004 0,6.34163 -1.40925,0 0,-6.34163 1.40925,0 z"
         style="color:#000000;fill:#000000;fill-opacity:1;fill-rule:nonzero;stroke:none;stroke-width:1;marker:none;visibility:visible;display:inline;overflow:visible;enable-background:accumulate" /><path
         style="color:#000000;fill:#000000;fill-opacity:1;fill-rule:nonzero;stroke:none;stroke-width:1;marker:none;visibility:visible;display:inline;overflow:visible;enable-background:accumulate"
         d="m 101.75145,340.75004 0,6.34163 -1.40925,0 0,-6.34163 1.40925,0 z"
         id="path3808" /><path
         id="path3810"
         d="m 93.82187,340.75004 0,6.34163 -1.40925,0 0,-6.34163 1.40925,0 z"
         style="color:#000000;fill:#000000;fill-opacity:1;fill-rule:nonzero;stroke:none;stroke-width:1;marker:none;visibility:visible;display:inline;overflow:visible;enable-background:accumulate" /></g></g></svg>