<?xml version="1.0"?>
<?metis version="3.1"?>
<?metisxml version="1.0"?>
<!DOCTYPE svg  PUBLIC "-//W3C//DTD SVG August 1999//EN"
 "http://www.w3.org/Graphics/SVG/svg-19990812.dtd">

<svg width="200" height="200">
 <title>Symbol library: design_rule.svg</title>
 <defs>
  <symbol id="oid0" xml:space="preserve" class="METIS_SYMBOL">
   <title>Design Rule</title>
    <g>
      <polygon points="0 0 0 304 16 320 
       880 320 880 16 864 0 0 0 
       0 0 0 0 0 0 0 0 "
       style=" stroke:#000000; stroke-width:1; fill:#9b9b9b; fill-opacity:100%"       class="TAG:shadow"></polygon>
      <rect x="0" y="0" width="240" height="304"
       style=" stroke:#000000; stroke-width:1; fill:#ffffa5; fill-opacity:100%"       class="TAG:PictureBackground"></rect>
      <rect x="240" y="0" width="624" height="304"
       style=" stroke:#000000; stroke-width:1; fill:#6eff6e; fill-opacity:100%"       class="TAG:canvas"></rect>
      <g>
	<desc>METIS_TEXT_GROUP</desc>
	<text  x="256" y="15.8"
	 style=" stroke:#000000; stroke-width:1; font-family:sans-serif; font-size:16;"
	 class="TAG:text">text</text>
	<rect x="256" y="0" width="608" height="304"
	 style=" stroke:#000000; stroke-width:1; fill:#ffffff; fill-opacity:0%"></rect>
      </g>
      <polyline points="864 304 880 320"
       style=" stroke:#000000; stroke-width:1;"></polyline>
      <polygon points="213.872 159.583 217.91 156.454 220.335 153.773 
       221.947 150.647 222.756 147.966 221.947 145.285 220.335 142.159 
       218.718 140.817 215.489 138.583 212.26 136.349 207.414 133.67 
       194.493 126.074 180.768 118.033 177.539 120.267 175.922 121.606 
       174.31 123.395 172.693 126.074 171.885 128.755 172.693 132.776 
       175.114 136.796 179.96 140.817 185.614 144.393 199.339 151.986 
       213.872 159.583 213.872 159.583 213.872 159.583 213.872 159.583 
       213.872 159.583 213.872 159.583 213.872 159.583 213.872 159.583 213.872 159.583 "
       style=" stroke:#000000; stroke-width:1; fill:#ffffff; fill-opacity:100%"></polygon>
      <g>
	<polygon points="216.559 92.0686 203.908 93.474 191.261 94.4077 
	 189.771 88.7951 187.541 85.0537 183.076 82.714 177.125 81.7774 
	 171.915 82.2457 168.194 84.1169 165.964 86.456 165.219 89.732 
	 165.964 93.0054 168.194 96.2814 170.429 98.6206 174.894 101.426 
	 180.845 105.17 189.031 109.849 197.212 114.525 203.167 118.737 
	 208.373 122.011 212.094 124.819 217.304 130.431 219.535 132.771 
	 221.025 135.578 223.255 141.659 224 147.743 223.255 155.227 
	 219.535 162.245 214.329 168.328 207.628 173.941 212.094 179.088 
	 215.814 183.766 217.304 189.379 218.049 194.995 217.304 201.544 
	 215.069 207.157 212.094 211.835 207.628 216.045 202.423 219.321 
	 195.727 222.129 187.541 223.532 179.355 224 171.174 223.532 
	 162.988 222.129 156.292 219.321 150.337 216.045 145.131 211.835 
	 141.411 206.691 138.435 200.607 136.945 193.589 149.596 192.655 
	 162.243 191.25 164.474 197.799 167.454 202.478 170.429 203.883 
	 172.659 205.285 175.635 206.222 179.355 206.222 185.31 205.754 
	 189.031 203.415 191.261 202.012 192.006 200.139 192.751 196.397 
	 192.751 194.526 192.006 192.655 191.261 191.25 189.771 189.379 
	 186.796 187.508 182.335 184.235 174.894 180.022 165.964 174.409 
	 156.292 168.794 148.852 163.649 142.901 158.503 138.435 154.293 
	 135.46 150.083 133.225 145.872 132.48 141.193 131.739 136.515 
	 133.225 128.092 136.2 120.609 141.411 114.525 148.852 109.38 
	 145.131 105.17 142.156 100.492 139.921 95.8131 139.18 91.1346 
	 139.921 85.5191 142.156 80.3749 145.131 75.6963 149.596 71.4863 
	 154.802 68.2103 161.498 65.8709 168.194 64.4683 176.38 64 
	 184.565 64.4683 191.261 65.8709 197.957 68.2103 203.908 71.4863 
	 208.373 75.2277 212.094 80.3749 215.069 85.9877 216.559 92.0686 
	 216.559 92.0686 216.559 92.0686 216.559 92.0686 216.559 92.0686 
	 216.559 92.0686 216.559 92.0686 216.559 92.0686 216.559 92.0686 "
	 style=" stroke:#000000; stroke-width:1; fill:#000000; fill-opacity:100%"></polygon>
	<polygon points="16 64 37.2943 64 58.5887 64 
	 66.106 64 72.9927 64.9694 78.629 65.9391 83.0146 67.8786 
	 86.7732 70.3031 90.5282 73.6969 94.2871 77.0909 98.0455 81.9391 
	 101.177 87.2726 104.309 93.0909 106.813 99.394 108.691 107.152 
	 110.572 115.394 111.823 124.121 112.45 134.304 112.45 145.455 
	 112.45 155.638 111.823 165.335 110.572 174.062 108.691 181.817 
	 106.186 189.091 103.682 195.396 101.177 201.212 98.0455 206.061 
	 94.914 209.939 91.1552 213.82 83.0146 219.637 78.0052 221.575 
	 72.3656 223.032 66.7293 223.517 59.8428 224 37.9213 224 
	 16 224 16 64 16 64 16 64 
	 16 64 16 64 16 64 16 64 
	 16 64 16 64 "
	 style=" stroke:#000000; stroke-width:1; fill:#000000; fill-opacity:100%"></polygon>
      </g>
      <polygon points="40.7932 90.8169 40.7932 143.255 40.7932 195.691 
       50.2972 195.691 59.7967 195.691 65.2241 195.691 70.6515 195.209 
       74.724 194.728 77.4378 193.286 82.1896 190.398 86.262 186.069 
       87.617 183.664 89.6551 180.298 91.0101 175.968 92.3687 171.157 
       93.0444 165.383 93.7237 159.13 94.403 151.914 94.403 143.734 
       94.403 135.075 93.7237 127.86 93.0444 121.124 92.3687 115.833 
       91.0101 111.022 88.9758 106.692 84.9031 99.4763 82.1896 97.0709 
       79.4757 94.6657 72.6897 91.7791 69.2966 91.298 65.2241 90.8169 
       59.1174 90.8169 52.3314 90.8169 46.904 90.8169 40.7932 90.8169 
       40.7932 90.8169 40.7932 90.8169 40.7932 90.8169 40.7932 90.8169 
       40.7932 90.8169 40.7932 90.8169 40.7932 90.8169 40.7932 90.8169 "
       style=" stroke:#000000; stroke-width:1; fill:#ffffa5; fill-opacity:100%"></polygon>
    </g>
  </symbol>
 </defs>
</svg>
