<?xml version="1.0"?>
<?metis version="3.5"?>
<?metisxml version="1.1"?>
<!DOCTYPE svg  PUBLIC "-//W3C//DTD SVG August 1999//EN"
 "http://www.w3.org/Graphics/SVG/svg-19990812.dtd">

<svg width="200" height="200">
 <title>Symbol library: diagram.svg</title>
 <defs>
  <symbol id="oid1" xml:space="preserve" class="METIS_SYMBOL">
   <desc>A place holder for a model.</desc>
   <title>Closed Diagram</title>
    <polygon points="1 1 3 0 155 0 
     157 1 175 19 176 21 176 125 
     175 127 173 128 3 128 1 127 
     0 125 0 3 1 1 1 1 
     1 1 1 1 1 1 1 1 
     1 1 1 1 1 1 1 1 
     1 1 1 1 1 1 1 1 
     1 1 1 1 1 1 1 1 
     1 1 1 1 1 1 1 1 
     1 1 1 1 1 1 1 1 
     1 1 1 1 1 1 1 1 "
     style=" stroke:#00a500; stroke-width:1; fill:#ffffdc; fill-opacity:100%"     class="TAG:canvas"></polygon>
    <path d="M 157 1 C 157 13 154.945 19.8808 
     157 19 C 164 16 167 19 175 19 Z"
     style=" stroke:#4b4bff; stroke-width:1; fill:#00a500; fill-opacity:50%"     class="TAG:corner"></path>
    <g>
      <desc>METIS_TEXT_GROUP</desc>
      <text  x="156" y="35"
       style=" stroke:#00a500; stroke-width:1; font-family:sans-serif; font-size:16; vertical-align:middle;"
       class="TAG:kind" transform="rotate(270);">Diagram</text>
      <rect x="156" y="20" width="20" height="104"
       style=" stroke:#000000; stroke-width:1; fill:#00dc00; fill-opacity:0%"></rect>
    </g>
    <g>
      <desc>METIS_TEXT_GROUP</desc>
      <text  x="4" y="29"
       style=" stroke:#000000; stroke-width:1; font-family:sans-serif; font-size:22;"
       class="TAG:text">text</text>
      <rect x="4" y="8" width="152" height="116"
       style=" stroke:#000000; stroke-width:1; fill:#dcdcdc; fill-opacity:0%"></rect>
    </g>
    <image x="40" y="56" width="96" height="56" xlink:role="symbol" xlink:title="Sequence Diagram Icon" xlink:href="#oid2"     class="TAG:icon"></image>
    <g>
      <desc>METIS_TEXT_GROUP</desc>
      <text  x="2.11783" y="123.895"
       style=" stroke:#000000; stroke-width:1; font-family:sans-serif; font-weight:bold; font-size:10;"
       class="TAG:sec1"></text>
      <rect x="2.11783" y="114.895" width="139" height="11"
       style=" stroke:#000000; stroke-width:1; fill:#ffffff; fill-opacity:0%"></rect>
    </g>
  </symbol>
  <symbol id="oid2" xml:space="preserve" class="METIS_SYMBOL">
   <desc>A place holder for a model.</desc>
   <title>Sequence Diagram Icon</title>
    <rect x="0" y="0" width="96" height="56"
     style=" stroke:#ffffa5; stroke-width:1; fill:#ffffa5; fill-opacity:50%"></rect>
    <rect x="14" y="0" width="12" height="8"
     style=" stroke:#c8c8ff; stroke-width:1; fill:#dcdcdc; fill-opacity:50%"></rect>
    <polyline points="20 8 20 56"
     style=" stroke:#dcdcdc; stroke-width:1; stroke-dasharray: 2 2;"></polyline>
    <polyline points="34 8 34 56"
     style=" stroke:#dcdcdc; stroke-width:1; stroke-dasharray: 2 2;"></polyline>
    <polyline points="48 8 48 56"
     style=" stroke:#dcdcdc; stroke-width:1; stroke-dasharray: 2 2;"></polyline>
    <polyline points="62 8 62 56"
     style=" stroke:#dcdcdc; stroke-width:1; stroke-dasharray: 2 2;"></polyline>
    <polyline points="76 8 76 56"
     style=" stroke:#dcdcdc; stroke-width:1; stroke-dasharray: 2 2;"></polyline>
    <polyline points="90 8 90 56"
     style=" stroke:#dcdcdc; stroke-width:1; stroke-dasharray: 2 2;"></polyline>
    <rect x="28" y="0" width="12" height="8"
     style=" stroke:#c8c8ff; stroke-width:1; fill:#dcdcdc; fill-opacity:50%"></rect>
    <rect x="42" y="0" width="12" height="8"
     style=" stroke:#c8c8ff; stroke-width:1; fill:#dcdcdc; fill-opacity:50%"></rect>
    <rect x="56" y="0" width="12" height="8"
     style=" stroke:#c8c8ff; stroke-width:1; fill:#dcdcdc; fill-opacity:50%"></rect>
    <rect x="70" y="0" width="12" height="8"
     style=" stroke:#c8c8ff; stroke-width:1; fill:#dcdcdc; fill-opacity:50%"></rect>
    <rect x="84" y="0" width="12" height="8"
     style=" stroke:#c8c8ff; stroke-width:1; fill:#dcdcdc; fill-opacity:50%"></rect>
    <rect x="19" y="12" width="2" height="8"
     style=" stroke:#96a5ff; stroke-width:1; fill:#c8c8ff; fill-opacity:100%"></rect>
    <rect x="47" y="19" width="2" height="10"
     style=" stroke:#96a5ff; stroke-width:1; fill:#c8c8ff; fill-opacity:100%"></rect>
    <polyline points="21 14 33 14"
     style=" stroke:#96a5ff; stroke-width:1;"     class="TAG:END_ARROW"></polyline>
    <polyline points="35 21 47 21"
     style=" stroke:#96a5ff; stroke-width:1;"     class="TAG:END_ARROW"></polyline>
    <polyline points="49 27 75 27"
     style=" stroke:#96a5ff; stroke-width:1;"     class="TAG:END_ARROW"></polyline>
    <polyline points="62 41 35 41"
     style=" stroke:#96a5ff; stroke-width:1;"     class="TAG:END_ARROW"></polyline>
    <polyline points="34 46 21 46"
     style=" stroke:#96a5ff; stroke-width:1;"     class="TAG:END_ARROW"></polyline>
    <polyline points="77 36 89 36"
     style=" stroke:#96a5ff; stroke-width:1;"     class="TAG:END_ARROW"></polyline>
    <polyline points="75 36 63 36"
     style=" stroke:#96a5ff; stroke-width:1;"     class="TAG:END_ARROW"></polyline>
    <rect x="75" y="25" width="2" height="13"
     style=" stroke:#96a5ff; stroke-width:1; fill:#c8c8ff; fill-opacity:100%"></rect>
    <rect x="89" y="34" width="2" height="4"
     style=" stroke:#96a5ff; stroke-width:1; fill:#c8c8ff; fill-opacity:100%"></rect>
    <rect x="61" y="34" width="2" height="9"
     style=" stroke:#96a5ff; stroke-width:1; fill:#c8c8ff; fill-opacity:100%"></rect>
    <rect x="19" y="44" width="2" height="4"
     style=" stroke:#96a5ff; stroke-width:1; fill:#c8c8ff; fill-opacity:100%"></rect>
    <rect x="33" y="12" width="2" height="36"
     style=" stroke:#96a5ff; stroke-width:1; fill:#c8c8ff; fill-opacity:100%"></rect>
  </symbol>
  <symbol id="oid3" xml:space="preserve" class="METIS_SYMBOL">
   <desc>A place holder for a model.</desc>
   <title>Transistion State Diagram Icon</title>
    <g>
      <rect x="0" y="0" width="96" height="56"
       style=" stroke:#ffffa5; stroke-width:1; fill:#ffffa5; fill-opacity:50%"></rect>
      <rect x="24" y="12" width="48" height="16"
       style=" stroke:#96a5ff; stroke-width:1; stroke-dasharray: 2 2; fill:#dcdcdc; fill-opacity:0%"></rect>
      <rect x="26" y="14" width="44" height="12" rx="10" ry="10"
       style=" stroke:#96a5ff; stroke-width:1; fill:#dcdcdc; fill-opacity:50%"></rect>
      <rect x="32" y="18" width="12" height="4" rx="10" ry="10"
       style=" stroke:#96a5ff; stroke-width:1; fill:#dcdcdc; fill-opacity:50%"></rect>
      <rect x="52" y="18" width="12" height="4" rx="10" ry="10"
       style=" stroke:#96a5ff; stroke-width:1; fill:#dcdcdc; fill-opacity:50%"></rect>
      <polyline points="29 20 32 20"
       style=" stroke:#96a5ff; stroke-width:1;"       class="TAG:END_ARROW"></polyline>
      <ellipse  cx="28" cy="20" rx="1" ry="1"
       style=" stroke:#96a5ff; stroke-width:1; fill:#c8c8ff; fill-opacity:100%"></ellipse>
      <polyline points="64 20 67 20"
       style=" stroke:#96a5ff; stroke-width:1;"       class="TAG:END_ARROW"></polyline>
      <polyline points="44 20 52 20"
       style=" stroke:#96a5ff; stroke-width:1;"       class="TAG:END_ARROW"></polyline>
      <ellipse  cx="68" cy="20" rx="1" ry="1"
       style=" stroke:#96a5ff; stroke-width:1; fill:#c8c8ff; fill-opacity:100%"></ellipse>
      <ellipse  cx="68" cy="20" rx="0.75" ry="0.75"
       style=" stroke:#96a5ff; stroke-width:1; fill:#c8c8ff; fill-opacity:100%"></ellipse>
      <rect x="32" y="34" width="12" height="4" rx="10" ry="10"
       style=" stroke:#96a5ff; stroke-width:1; fill:#dcdcdc; fill-opacity:50%"></rect>
      <rect x="52" y="34" width="12" height="4" rx="10" ry="10"
       style=" stroke:#96a5ff; stroke-width:1; fill:#dcdcdc; fill-opacity:50%"></rect>
      <polyline points="44 36 52 36"
       style=" stroke:#96a5ff; stroke-width:1;"       class="TAG:END_ARROW"></polyline>
      <rect x="24" y="28" width="48" height="16"
       style=" stroke:#96a5ff; stroke-width:1; stroke-dasharray: 2 2; fill:#dcdcdc; fill-opacity:0%"></rect>
      <rect x="18" y="22" width="2" height="12"
       style=" stroke:#96a5ff; stroke-width:1; fill:#dcdcdc; fill-opacity:50%"></rect>
      <rect x="76" y="22" width="2" height="12"
       style=" stroke:#96a5ff; stroke-width:1; fill:#dcdcdc; fill-opacity:50%"></rect>
      <rect x="2" y="26" width="12" height="4" rx="10" ry="10"
       style=" stroke:#96a5ff; stroke-width:1; fill:#dcdcdc; fill-opacity:50%"></rect>
      <rect x="82" y="26" width="12" height="4" rx="10" ry="10"
       style=" stroke:#96a5ff; stroke-width:1; fill:#dcdcdc; fill-opacity:50%"></rect>
      <polyline points="14 28 18 28"
       style=" stroke:#96a5ff; stroke-width:1;"       class="TAG:END_ARROW"></polyline>
      <polyline points="78 28 82 28"
       style=" stroke:#96a5ff; stroke-width:1;"       class="TAG:END_ARROW"></polyline>
      <polyline points="20 26 26 20"
       style=" stroke:#96a5ff; stroke-width:1;"       class="TAG:END_ARROW"></polyline>
      <polyline points="64 36 76 30"
       style=" stroke:#96a5ff; stroke-width:1;"       class="TAG:END_ARROW"></polyline>
      <polyline points="20 30 32 36"
       style=" stroke:#96a5ff; stroke-width:1;"       class="TAG:END_ARROW"></polyline>
      <polyline points="70 20 76 26"
       style=" stroke:#96a5ff; stroke-width:1;"       class="TAG:END_ARROW"></polyline>
    </g>
  </symbol>
  <symbol id="oid4" xml:space="preserve" class="METIS_SYMBOL">
   <desc>A place holder for a model.</desc>
   <title>Timeline Diagram Icon</title>
    <g>
      <rect x="0" y="0" width="96" height="56"
       style=" stroke:#ffffa5; stroke-width:1; fill:#ffffa5; fill-opacity:50%"></rect>
      <g>
	<rect x="4" y="26" width="12" height="4" rx="10" ry="10"
	 style=" stroke:#96a5ff; stroke-width:1; fill:#dcdcdc; fill-opacity:50%"></rect>
	<rect x="80" y="26" width="12" height="4" rx="10" ry="10"
	 style=" stroke:#96a5ff; stroke-width:1; fill:#dcdcdc; fill-opacity:50%"></rect>
	<polyline points="24 30 24 26"
	 style=" stroke:#96a5ff; stroke-width:1;"	 class="TAG:END_ARROW"></polyline>
	<polyline points="16 28 80 28"
	 style=" stroke:#96a5ff; stroke-width:1;"	 class="TAG:END_ARROW"></polyline>
	<polyline points="32 30 32 26"
	 style=" stroke:#96a5ff; stroke-width:1;"	 class="TAG:END_ARROW"></polyline>
	<polyline points="40 30 40 26"
	 style=" stroke:#96a5ff; stroke-width:1;"	 class="TAG:END_ARROW"></polyline>
	<polyline points="48 30 48 26"
	 style=" stroke:#96a5ff; stroke-width:1;"	 class="TAG:END_ARROW"></polyline>
	<polyline points="56 30 56 26"
	 style=" stroke:#96a5ff; stroke-width:1;"	 class="TAG:END_ARROW"></polyline>
	<polyline points="64 30 64 26"
	 style=" stroke:#96a5ff; stroke-width:1;"	 class="TAG:END_ARROW"></polyline>
	<polyline points="72 30 72 26"
	 style=" stroke:#96a5ff; stroke-width:1;"	 class="TAG:END_ARROW"></polyline>
      </g>
      <rect x="4" y="6" width="12" height="6"
       style=" stroke:#96a5ff; stroke-width:1; fill:#dcdcdc; fill-opacity:50%"></rect>
      <rect x="4" y="16" width="12" height="6"
       style=" stroke:#96a5ff; stroke-width:1; fill:#dcdcdc; fill-opacity:50%"></rect>
      <rect x="4" y="34" width="12" height="6"
       style=" stroke:#96a5ff; stroke-width:1; fill:#dcdcdc; fill-opacity:50%"></rect>
      <rect x="4" y="44" width="12" height="6"
       style=" stroke:#96a5ff; stroke-width:1; fill:#dcdcdc; fill-opacity:50%"></rect>
      <polyline points="16 22 28 22 28 26 
       32 28"
       style=" stroke:#96a5ff; stroke-width:1;"></polyline>
      <polyline points="16 40 36 40 36 30 
       40 28"
       style=" stroke:#96a5ff; stroke-width:1;"></polyline>
      <polyline points="16 12 52 12 52 26 
       56 28"
       style=" stroke:#96a5ff; stroke-width:1;"></polyline>
      <polyline points="16 50 68 50 68 30 
       72 28"
       style=" stroke:#96a5ff; stroke-width:1;"></polyline>
    </g>
  </symbol>
  <symbol id="oid7" xml:space="preserve" class="METIS_SYMBOL">
   <desc>A place holder for a model.</desc>
   <title>Node Connectivity Diagram Icon</title>
    <g>
      <rect x="0" y="0" width="96" height="56"
       style=" stroke:#ffffa5; stroke-width:1; fill:#ffffa5; fill-opacity:50%"></rect>
      <g>
	<polyline points="31.696 29.3922 43.0055 37.5639"
	 style=" stroke:#96a5ff; stroke-width:1;"	 class="TAG:END_ARROW"></polyline>
	<polyline points="19.6272 17.586 31.954 26.6186"
	 style=" stroke:#96a5ff; stroke-width:1;"	 class="TAG:END_ARROW"></polyline>
	<g>
	  <ellipse  cx="14" cy="12" rx="8" ry="8"
	   style=" stroke:#96a5ff; stroke-width:1; fill:#dcdcdc; fill-opacity:100%"></ellipse>
	  <ellipse  cx="48" cy="44" rx="8" ry="8"
	   style=" stroke:#96a5ff; stroke-width:1; fill:#dcdcdc; fill-opacity:100%"></ellipse>
	  <ellipse  cx="82" cy="12" rx="8" ry="8"
	   style=" stroke:#96a5ff; stroke-width:1; fill:#dcdcdc; fill-opacity:100%"></ellipse>
	  <rect x="19.5" y="26.5" width="23" height="3"
	   style=" stroke:#96a5ff; stroke-width:1; fill:#dcdcdc; fill-opacity:50%"></rect>
	  <rect x="53.5" y="26.5" width="23" height="3"
	   style=" stroke:#96a5ff; stroke-width:1; fill:#dcdcdc; fill-opacity:50%"></rect>
	  <rect x="36.5" y="10.5" width="23" height="3"
	   style=" stroke:#96a5ff; stroke-width:1; fill:#dcdcdc; fill-opacity:50%"></rect>
	</g>
	<polyline points="76.2665 17.4798 64.1523 26.406"
	 style=" stroke:#96a5ff; stroke-width:1;"	 class="TAG:END_ARROW"></polyline>
	<polyline points="64.046 29.4877 52.9945 37.6701"
	 style=" stroke:#96a5ff; stroke-width:1;"	 class="TAG:END_ARROW"></polyline>
	<polyline points="21.9841 11.923 36.6296 11.954"
	 style=" stroke:#96a5ff; stroke-width:1;"	 class="TAG:END_ARROW"></polyline>
	<polyline points="59.4378 11.9714 74.0833 12.0023"
	 style=" stroke:#96a5ff; stroke-width:1;"	 class="TAG:END_ARROW"></polyline>
      </g>
    </g>
  </symbol>
  <symbol id="oid8" xml:space="preserve" class="METIS_SYMBOL">
   <desc>A place holder for a model.</desc>
   <title>Activity Diagram Icon</title>
    <rect x="0" y="0" width="96" height="56"
     style=" stroke:#ffffa5; stroke-width:1; fill:#ffffa5; fill-opacity:50%"></rect>
    <polygon points="58.0011 43.0011 59.0011 42.0011 69.0011 42.0011 
     70.0011 43.0011 70.0011 49.0011 69.0011 50.0011 59.0011 50.0011 
     58.0011 49.0011 58.0011 43.0011 58.0011 43.0011 58.0011 43.0011 
     58.0011 43.0011 58.0011 43.0011 58.0011 43.0011 58.0011 43.0011 
     58.0011 43.0011 58.0011 43.0011 58.0011 43.0011 58.0011 43.0011 
     58.0011 43.0011 58.0011 43.0011 "
     style=" stroke:#c8c8ff; stroke-width:1; fill:#c8c8ff; fill-opacity:50%"></polygon>
    <polygon points="6.00109 27.0011 7.00109 26.0011 17.0011 26.0011 
     18.0011 27.0011 18.0011 33.0011 17.0011 34.0011 7.00109 34.0011 
     6.00109 33.0011 6.00109 27.0011 6.00109 27.0011 6.00109 27.0011 
     6.00109 27.0011 6.00109 27.0011 6.00109 27.0011 6.00109 27.0011 
     6.00109 27.0011 6.00109 27.0011 6.00109 27.0011 6.00109 27.0011 
     6.00109 27.0011 6.00109 27.0011 "
     style=" stroke:#c8c8ff; stroke-width:1; fill:#c8c8ff; fill-opacity:50%"></polygon>
    <polyline points="70.0011 30.0011 78.0011 30.0011"
     style=" stroke:#c8c8ff; stroke-width:1;"     class="TAG:END_ARROW"></polyline>
    <polygon points="32.0011 43.0011 33.0011 42.0011 43.0011 42.0011 
     44.0011 43.0011 44.0011 49.0011 43.0011 50.0011 33.0011 50.0011 
     32.0011 49.0011 32.0011 43.0011 32.0011 43.0011 32.0011 43.0011 
     32.0011 43.0011 32.0011 43.0011 32.0011 43.0011 32.0011 43.0011 
     32.0011 43.0011 32.0011 43.0011 32.0011 43.0011 32.0011 43.0011 
     32.0011 43.0011 32.0011 43.0011 "
     style=" stroke:#c8c8ff; stroke-width:1; fill:#c8c8ff; fill-opacity:50%"></polygon>
    <polygon points="78.0011 27.0011 79.0011 26.0011 89.0011 26.0011 
     90.0011 27.0011 90.0011 33.0011 89.0011 34.0011 79.0011 34.0011 
     78.0011 33.0011 78.0011 27.0011 78.0011 27.0011 78.0011 27.0011 
     78.0011 27.0011 78.0011 27.0011 78.0011 27.0011 78.0011 27.0011 
     78.0011 27.0011 78.0011 27.0011 78.0011 27.0011 78.0011 27.0011 
     78.0011 27.0011 78.0011 27.0011 "
     style=" stroke:#c8c8ff; stroke-width:1; fill:#c8c8ff; fill-opacity:50%"></polygon>
    <polygon points="58.0011 27.0011 59.0011 26.0011 69.0011 26.0011 
     70.0011 27.0011 70.0011 33.0011 69.0011 34.0011 59.0011 34.0011 
     58.0011 33.0011 58.0011 27.0011 58.0011 27.0011 58.0011 27.0011 
     58.0011 27.0011 58.0011 27.0011 58.0011 27.0011 58.0011 27.0011 
     58.0011 27.0011 58.0011 27.0011 58.0011 27.0011 58.0011 27.0011 
     58.0011 27.0011 58.0011 27.0011 "
     style=" stroke:#c8c8ff; stroke-width:1; fill:#c8c8ff; fill-opacity:50%"></polygon>
    <polygon points="32.0011 27.0011 33.0011 26.0011 43.0011 26.0011 
     44.0011 27.0011 44.0011 33.0011 43.0011 34.0011 33.0011 34.0011 
     32.0011 33.0011 32.0011 27.0011 32.0011 27.0011 32.0011 27.0011 
     32.0011 27.0011 32.0011 27.0011 32.0011 27.0011 32.0011 27.0011 
     32.0011 27.0011 32.0011 27.0011 32.0011 27.0011 32.0011 27.0011 
     32.0011 27.0011 32.0011 27.0011 "
     style=" stroke:#c8c8ff; stroke-width:1; fill:#c8c8ff; fill-opacity:50%"></polygon>
    <polyline points="18.0011 30.0011 32.0011 30.0011"
     style=" stroke:#c8c8ff; stroke-width:1;"     class="TAG:END_ARROW"></polyline>
    <polyline points="44.0011 30.0011 58.0011 30.0011"
     style=" stroke:#c8c8ff; stroke-width:1;"     class="TAG:END_ARROW"></polyline>
    <polyline points="38.0011 34.0011 38.0011 42.0011"
     style=" stroke:#c8c8ff; stroke-width:1;"     class="TAG:END_ARROW"></polyline>
    <polyline points="44.0011 46.0011 58.0011 46.0011"
     style=" stroke:#c8c8ff; stroke-width:1;"     class="TAG:END_ARROW"></polyline>
    <ellipse  cx="84.0011" cy="46.0011" rx="2" ry="2"
     style=" stroke:#c8c8ff; stroke-width:1; fill:#ffffff; fill-opacity:100%"></ellipse>
    <polyline points="84.0011 34.0011 84.0011 44.0011"
     style=" stroke:#c8c8ff; stroke-width:1;"     class="TAG:END_ARROW"></polyline>
    <polyline points="70.0011 46.0011 82.0011 46.0011"
     style=" stroke:#c8c8ff; stroke-width:1;"     class="TAG:END_ARROW"></polyline>
    <ellipse  cx="12.0011" cy="14.0011" rx="2" ry="2"
     style=" stroke:#c8c8ff; stroke-width:1; fill:#c8c8ff; fill-opacity:100%"></ellipse>
    <polyline points="12.0011 16.0011 12.0011 26.0011"
     style=" stroke:#c8c8ff; stroke-width:1;"     class="TAG:END_ARROW"></polyline>
    <ellipse  cx="84.0011" cy="46.0011" rx="1.375" ry="1.375"
     style=" stroke:#c8c8ff; stroke-width:1; fill:#c8c8ff; fill-opacity:100%"></ellipse>
  </symbol>
  <symbol id="oid6" xml:space="preserve" class="METIS_SYMBOL">
   <desc>A place holder for a model.</desc>
   <title>Swimlane Diagram Icon</title>
    <rect x="0" y="0" width="96" height="56"
     style=" stroke:#ffffa5; stroke-width:1; fill:#ffffa5; fill-opacity:50%"></rect>
    <polygon points="40 5 41 4 51 4 
     52 5 52 11 51 12 41 12 
     40 11 40 5 40 5 40 5 
     40 5 40 5 40 5 40 5 
     40 5 40 5 40 5 40 5 
     40 5 40 5 "
     style=" stroke:#c8c8ff; stroke-width:1; fill:#dcdcdc; fill-opacity:50%"></polygon>
    <polygon points="8 5 9 4 19 4 
     20 5 20 11 19 12 9 12 
     8 11 8 5 8 5 8 5 
     8 5 8 5 8 5 8 5 
     8 5 8 5 8 5 8 5 
     8 5 8 5 "
     style=" stroke:#c8c8ff; stroke-width:1; fill:#dcdcdc; fill-opacity:50%"></polygon>
    <polyline points="0 14.0991 96 14"
     style=" stroke:#dcdcdc; stroke-width:1; stroke-dasharray: 2 2;"></polyline>
    <polyline points="0 28.0991 96 28"
     style=" stroke:#dcdcdc; stroke-width:1; stroke-dasharray: 2 2;"></polyline>
    <polyline points="0 42.0991 96 42"
     style=" stroke:#dcdcdc; stroke-width:1; stroke-dasharray: 2 2;"></polyline>
    <polyline points="20 8 30 16"
     style=" stroke:#96a5ff; stroke-width:1;"     class="TAG:END_ARROW"></polyline>
    <polyline points="36 20 46 12"
     style=" stroke:#96a5ff; stroke-width:1;"     class="TAG:END_ARROW"></polyline>
    <polyline points="36 20 46 46"
     style=" stroke:#96a5ff; stroke-width:1;"     class="TAG:END_ARROW"></polyline>
    <polyline points="52 50 64 38"
     style=" stroke:#96a5ff; stroke-width:1;"     class="TAG:END_ARROW"></polyline>
    <polyline points="52 8 64 30"
     style=" stroke:#96a5ff; stroke-width:1;"     class="TAG:END_ARROW"></polyline>
    <polyline points="70 34 78 34"
     style=" stroke:#96a5ff; stroke-width:1;"     class="TAG:END_ARROW"></polyline>
    <polygon points="40 47 41 46 51 46 
     52 47 52 53 51 54 41 54 
     40 53 40 47 40 47 40 47 
     40 47 40 47 40 47 40 47 
     40 47 40 47 40 47 40 47 
     40 47 40 47 "
     style=" stroke:#c8c8ff; stroke-width:1; fill:#dcdcdc; fill-opacity:50%"></polygon>
    <polygon points="78 31 79 30 89 30 
     90 31 90 37 89 38 79 38 
     78 37 78 31 78 31 78 31 
     78 31 78 31 78 31 78 31 
     78 31 78 31 78 31 78 31 
     78 31 78 31 "
     style=" stroke:#c8c8ff; stroke-width:1; fill:#dcdcdc; fill-opacity:50%"></polygon>
    <polygon points="58 31 59 30 69 30 
     70 31 70 37 69 38 59 38 
     58 37 58 31 58 31 58 31 
     58 31 58 31 58 31 58 31 
     58 31 58 31 58 31 58 31 
     58 31 58 31 "
     style=" stroke:#c8c8ff; stroke-width:1; fill:#dcdcdc; fill-opacity:50%"></polygon>
    <polygon points="24 17 25 16 35 16 
     36 17 36 23 35 24 25 24 
     24 23 24 17 24 17 24 17 
     24 17 24 17 24 17 24 17 
     24 17 24 17 24 17 24 17 
     24 17 24 17 "
     style=" stroke:#c8c8ff; stroke-width:1; fill:#dcdcdc; fill-opacity:50%"></polygon>
  </symbol>
  <symbol id="oid5" xml:space="preserve" class="METIS_SYMBOL">
   <desc>A place holder for a model.</desc>
   <title>Open Diagram</title>
    <rect x="80" y="32.5" width="431.5" height="47.5"
     style="stroke:none; fill:#ffffff; fill-opacity:100%"     class="TAG:NodeLayoutArea"></rect>
    <rect x="0.5" y="80" width="79.5" height="303.5"
     style="stroke:none; fill:#ffffff; fill-opacity:100%"     class="TAG:LineLayoutArea"></rect>
    <rect x="0" y="0" width="512" height="384"
     style=" stroke:#000000; stroke-width:1; fill:#ffffff; fill-opacity:100%"     class="TAG:canvas"></rect>
    <rect x="0" y="0" width="512" height="32"
     style=" stroke:#000000; stroke-width:1; fill:#ffffa5; fill-opacity:100%"     class="TAG:heading"></rect>
    <g>
      <desc>METIS_TEXT_GROUP</desc>
      <text  x="0" y="15"
       style=" stroke:#000000; stroke-width:2; font-family:sans-serif; font-weight:bold; font-size:16; text-align:center vertical-align:middle;"
       class="TAG:text"></text>
      <rect x="0" y="0" width="464" height="32"
       style=" stroke:#000000; stroke-width:1; fill:#ffffff; fill-opacity:0%"></rect>
    </g>
    <image x="464" y="0" width="48" height="32" xlink:role="symbol" xlink:title="Sequence Diagram Icon" xlink:href="#oid2"     class="TAG:icon"></image>
    <rect x="464" y="0" width="48" height="32"
     style=" stroke:#000000; stroke-width:1; fill:#ffffff; fill-opacity:0%"></rect>
    <polyline points="0 32 512 32"
     style=" stroke:#000000; stroke-width:2;"></polyline>
    <rect x="4" y="36" width="80" height="344"
     style="stroke:none; fill:#ffffff; fill-opacity:0%"     class="TAG:EventLayoutArea"></rect>
    <g>
      <desc>METIS_TEXT_GROUP</desc>
      <text  x="3.10593" y="41.8611"
       style=" stroke:#000000; stroke-width:1; font-family:sans-serif; font-weight:bold; font-size:10;"
       class="TAG:sec1"></text>
      <rect x="3.10593" y="32.8611" width="233" height="19"
       style=" stroke:#000000; stroke-width:1; fill:#ffffff; fill-opacity:0%"></rect>
    </g>
    <g>
      <desc>METIS_TEXT_GROUP</desc>
      <text  x="276.356" y="373.111"
       style=" stroke:#000000; stroke-width:1; font-family:sans-serif; font-weight:bold; font-size:10; text-align:right"
       class="TAG:sec2"></text>
      <rect x="276.356" y="364.111" width="233" height="19"
       style=" stroke:#000000; stroke-width:1; fill:#ffffff; fill-opacity:0%"></rect>
    </g>
    <image x="4" y="4" width="24" height="24" xlink:role="symbol" xlink:title="EmptyFeedback" xlink:href="#oid10"     class="TAG:mode"></image>
  </symbol>
  <symbol id="oid9" xml:space="preserve" class="METIS_SYMBOL">
   <desc>Used in some diagrams to reflect insert-mode.</desc>
   <title>InsertFeedback</title>
    <g>
      <rect x="0" y="0" width="512" height="512"
       style="stroke:none; fill:#ffffff; fill-opacity:0%"></rect>
      <rect x="128" y="0" width="384" height="128"
       style=" stroke:#c8c8ff; stroke-width:1; fill:#ffffff; fill-opacity:100%"></rect>
      <rect x="128" y="384" width="384" height="128"
       style=" stroke:#c8c8ff; stroke-width:1; fill:#ffffff; fill-opacity:100%"></rect>
      <rect x="256" y="192" width="256" height="128"
       style=" stroke:#c8c8ff; stroke-width:1; fill:#6e6eff; fill-opacity:100%"></rect>
      <polygon points="0 224 128 224 128 160 
       224 256 128 352 128 288 0 288 
       0 288 0 224 0 224 0 224 
       0 224 0 224 0 224 "
       style=" stroke:#c8c8ff; stroke-width:1; fill:#00006e; fill-opacity:100%"></polygon>
    </g>
  </symbol>
  <symbol id="oid10" xml:space="preserve" class="METIS_SYMBOL">
   <desc>Used in some diagrams to reflect insert-mode.</desc>
   <title>EmptyFeedback</title>
    <rect x="0" y="0" width="512" height="512"
     style="stroke:none; fill:#ffffff; fill-opacity:0%"></rect>
  </symbol>
 </defs>
</svg>
