<?xml version="1.0"?>
<?metis version="3.2"?>
<?metisxml version="1.1"?>
<!DOCTYPE svg  PUBLIC "-//W3C//DTD SVG August 1999//EN"
 "http://www.w3.org/Graphics/SVG/svg-19990812.dtd">

<svg width="200" height="200">
 <title>Symbol library: directory.svg</title>
 <defs>
  <symbol id="oid0" xml:space="preserve" class="METIS_SYMBOL">
   <title>Directory</title>
    <polygon points="0 1.42109e-014 0 288 16 304 
     864 303.75 864 20.25 848 1.42109e-014 0 1.42109e-014 0 1.42109e-014 "
     style=" stroke:#000000; stroke-width:1; fill:#9b9b9b; fill-opacity:100%"     class="TAG:shadow"></polygon>
    <rect x="0" y="1.42109e-014" width="243" height="288"
     style=" stroke:#000000; stroke-width:1; fill:#ffffff; fill-opacity:100%"     class="TAG:PictureBackground"></rect>
    <rect x="243" y="1.42109e-014" width="605" height="288"
     style=" stroke:#000000; stroke-width:1; fill:#b9b9b9; fill-opacity:100%"     class="TAG:canvas"></rect>
    <g>
      <desc>METIS_TEXT_GROUP</desc>
      <text  x="255.876" y="15.8"
       style=" stroke:#000000; stroke-width:1; font-family:sans-serif; font-size:16;"
       class="TAG:text">text</text>
      <rect x="255.876" y="1.42109e-014" width="592.124" height="288"
       style=" stroke:#000000; stroke-width:1; fill:#ffffff; fill-opacity:0%"></rect>
    </g>
    <polyline points="848 288 864 304"
     style=" stroke:#000000; stroke-width:1;"></polyline>
    <g>
      <polygon points="146.389 197.896 146.389 257.5 229.375 257.5 
       229.375 197.896 190.066 197.896 184.048 193.312 150.757 193.312 
       146.389 197.896 146.389 197.896 146.389 197.896 "
       style=" stroke:#878787; stroke-width:1; fill:#dcdc00; fill-opacity:100%"       class="TAG:Subdirectory"></polygon>
      <polygon points="146.389 110.783 146.389 170.387 229.375 170.387 
       229.375 110.783 190.066 110.783 185.698 106.198 150.757 106.198 
       146.389 110.783 146.389 110.783 146.389 110.783 "
       style=" stroke:#878787; stroke-width:1; fill:#dcdc00; fill-opacity:100%"       class="TAG:Subdirectory"></polygon>
      <polyline points="50.3015 78.6885 50.3015 225.406 146.389 225.406"
       style=" stroke:#6e6e00; stroke-width:1;"></polyline>
      <polygon points="6.625 19.0849 6.625 78.6885 89.6105 78.6885 
       89.6105 19.0849 50.3015 19.0849 45.934 14.5 10.9925 14.5 
       6.625 19.0849 6.625 19.0849 6.625 19.0849 "
       style=" stroke:#878787; stroke-width:1; fill:#ffffa5; fill-opacity:100%"       class="TAG:Directory"></polygon>
      <polyline points="50.3015 78.6885 50.3015 138.292 146.389 138.292"
       style=" stroke:#6e6e00; stroke-width:1;"></polyline>
      <g>
	<rect x="41.566" y="129.123" width="17.4706" height="18.3396"
	 style=" stroke:#000000; stroke-width:1; fill:#ffffff; fill-opacity:100%"></rect>
	<polyline points="50.3015 133.708 50.3015 142.877 50.3015 142.877"
	 style=" stroke:#000000; stroke-width:2;"></polyline>
	<polyline points="45.934 138.292 54.669 138.292"
	 style=" stroke:#000000; stroke-width:2;"></polyline>
      </g>
      <rect x="41.566" y="216.236" width="17.4706" height="18.3396"
       style=" stroke:#000000; stroke-width:1; fill:#ffffff; fill-opacity:100%"></rect>
      <polyline points="50.3015 220.821 50.3015 229.99 50.3015 229.99"
       style=" stroke:#000000; stroke-width:2;"></polyline>
      <polyline points="45.934 225.406 54.669 225.406"
       style=" stroke:#000000; stroke-width:2;"></polyline>
    </g>
  </symbol>
 </defs>
</svg>
