<?xml version="1.0"?>
<?metis version="3.1"?>
<?metisxml version="1.0"?>
<!DOCTYPE svg  PUBLIC "-//W3C//DTD SVG August 1999//EN"
 "http://www.w3.org/Graphics/SVG/svg-19990812.dtd">

<svg width="200" height="200">
 <title>Symbol library: disk.svg</title>
 <defs>
  <symbol id="oid0" xml:space="preserve" class="METIS_SYMBOL">
   <title>Disk</title>
    <g>
      <polygon points="0 0 0 304 16.2963 320 
       880 320 880 16 863.704 0 0 0 
       0 0 0 0 0 0 0 0 
       0 0 0 0 0 0 0 0 
       0 0 0 0 0 0 "
       style=" stroke:#000000; stroke-width:1; fill:#9b9b9b; fill-opacity:100%"       class="TAG:shadow"></polygon>
      <rect x="0" y="0" width="240" height="304"
       style=" stroke:#000000; stroke-width:1; fill:#ffffff; fill-opacity:100%"       class="TAG:PictureBackground"></rect>
      <rect x="240" y="0" width="624" height="304"
       style=" stroke:#000000; stroke-width:1; fill:#bbf9ff; fill-opacity:100%"       class="TAG:canvas"></rect>
      <g>
	<desc>METIS_TEXT_GROUP</desc>
	<text  x="256" y="15.8"
	 style=" stroke:#000000; stroke-width:1; font-family:sans-serif; font-size:16;"
	 class="TAG:text">text</text>
	<rect x="256" y="0" width="608" height="304"
	 style=" stroke:#000000; stroke-width:1; fill:#ffffff; fill-opacity:0%"></rect>
      </g>
      <polyline points="880 320 864 304"
       style=" stroke:#000000; stroke-width:1;"></polyline>
      <g>
	<polygon points="18.312 43.4588 19.2368 42.1857 20.6239 40.9124 
	 27.0976 38.6843 37.2703 36.4562 50.2174 34.8647 65.4768 33.5915 
	 82.1225 32.6366 100.619 32.3183 119.115 32 138.073 32.3183 
	 156.107 32.6366 173.215 33.5915 188.474 34.8647 201.422 36.4562 
	 211.132 38.6843 217.605 40.9124 219.917 43.4588 219.917 70.1962 
	 219.917 107.756 219.928 107.808 219.928 116.299 219.917 116.35 
	 219.917 149.772 219.917 181.283 219.928 181.308 219.928 189.527 
	 219.917 189.56 219.917 191.47 219.917 193.379 219.917 197.198 
	 219.917 200.7 219.917 204.52 219.917 208.022 219.917 211.841 
	 219.917 215.66 219.917 219.162 219.917 222.981 219.917 226.483 
	 219.917 230.302 219.917 234.122 219.917 237.622 219.917 241.443 
	 219.917 245.262 219.917 248.764 220.842 249.4 221.767 250.355 
	 222.229 251.309 222.229 252.583 222.229 253.537 221.767 254.493 
	 220.842 255.447 219.917 256.403 218.068 257.039 216.68 257.995 
	 212.981 259.267 208.82 260.858 204.196 262.451 199.571 263.723 
	 194.023 264.996 188.474 266.27 182.001 267.544 175.527 268.498 
	 168.591 269.453 161.193 270.09 153.332 270.726 145.471 271.363 
	 136.686 271.682 127.9 272 118.652 272 114.029 272 
	 109.404 272 100.157 271.682 91.3709 271.045 82.5853 270.408 
	 74.2624 269.453 66.4014 268.498 59.0029 267.544 51.6047 266.27 
	 45.1311 264.996 39.1199 263.723 34.0335 262.451 29.4096 261.178 
	 25.2479 259.904 22.0112 258.63 19.6992 257.358 18.312 256.403 
	 17.8496 255.767 17.3872 255.13 16.9248 254.493 16.4624 253.856 
	 16.4624 253.22 16 252.583 16 251.629 16 250.673 
	 16.4624 249.718 17.3872 249.081 18.312 248.764 18.312 189.56 
	 18.2765 189.543 18.2765 181.324 18.312 181.283 18.312 149.772 
	 18.312 116.35 18.2765 116.311 18.2765 107.788 18.312 107.756 
	 18.312 70.1962 18.312 43.4588 18.312 43.4588 18.312 43.4588 
	 18.312 43.4588 18.312 43.4588 18.312 43.4588 "
	 style=" stroke:#000000; stroke-width:1; fill:#ffffa5; fill-opacity:100%"></polygon>
	<polyline points="224 43.8263 224 44.8692 223.529 45.9122 
	 221.642 47.9981 219.284 49.5625 215.982 51.6484 211.737 53.2129 
	 206.548 54.7773 200.888 56.3418 194.285 57.3847 186.738 58.4277 
	 179.192 59.9921 170.702 60.5135 161.74 61.5565 152.306 62.0781 
	 142.401 62.5994 132.496 62.5994 122.119 62.5994 116.459 62.5994 
	 111.271 62.5994 100.894 62.5994 91.4611 62.0781 82.0272 61.5565 
	 72.5938 61.035 64.1042 59.9921 56.0854 58.9491 49.0104 57.9062 
	 41.9354 56.8632 36.2754 55.2988 30.6154 53.7343 26.3703 52.1699 
	 23.0686 50.6054 20.2386 49.0412 18.8236 46.9551 18.3519 44.8692"
	 style=" stroke:#000000; stroke-width:1;"></polyline>
	<polyline points="224 248.389 224 249.118 223.529 250.21 
	 221.642 251.666 219.284 253.123 215.982 254.579 211.737 256.4 
	 206.548 257.856 200.888 259.678 194.285 261.134 186.738 262.59 
	 179.192 264.048 170.702 265.139 161.74 266.233 152.306 266.961 
	 142.401 267.688 132.496 268.053 122.119 268.053 116.459 268.053 
	 111.271 268.053 101.366 267.688 91.4611 266.961 82.0272 266.233 
	 73.0657 265.139 64.1042 264.048 56.5572 262.955 49.0104 261.499 
	 42.4071 260.042 36.2754 258.584 31.087 257.128 26.842 255.308 
	 23.0686 253.851 20.7103 252.394 19.2953 250.574 18.3519 249.482"
	 style=" stroke:#000000; stroke-width:1;"></polyline>
	<polyline points="25.4107 46.2292 25.8825 47.9434 27.7695 49.2289 
	 30.1283 50.5145 33.9023 51.3716 38.148 52.6572 42.8655 53.5143 
	 48.9982 54.3713 55.1309 55.2283 62.2072 56.0854 69.7552 56.5139 
	 77.3036 56.9425 85.795 57.371 94.2869 57.7995 102.778 57.7995 
	 111.741 58.2281 120.704 58.2281 129.668 58.2281 138.631 57.7995 
	 147.594 57.7995 155.614 57.371 164.105 56.9425 172.125 56.5139 
	 179.673 55.6568 186.75 55.2283 192.883 54.3713 199.015 53.5143 
	 203.733 52.6572 208.45 51.3716 211.752 50.086 214.583 49.2289 
	 215.998 47.9434 216.941 46.2292 215.998 45.3722 214.583 44.0865 
	 212.224 43.2295 208.922 41.9439 205.148 41.5154 200.902 40.2298 
	 195.713 39.8012 190.052 38.9442 184.391 38.0871 177.786 37.6586 
	 170.71 36.8015 163.634 36.373 156.086 36.373 148.066 35.9445 
	 140.518 35.5159 132.027 35.5159 124.007 35.5159 115.515 35.5159 
	 107.495 35.5159 99.476 35.5159 91.4561 35.9445 83.4362 36.373 
	 75.8882 36.8015 68.8118 37.6586 61.7355 38.0871 54.6593 38.9442 
	 48.5265 39.8012 42.8655 41.0868 37.6763 41.9439 32.9588 43.6581 
	 28.713 44.9436 25.4107 46.2292 25.4107 46.2292 25.4107 46.2292"
	 style=" stroke:#000000; stroke-width:1;"></polyline>
      </g>
    </g>
  </symbol>
 </defs>
</svg>
