<?xml version="1.0"?>
<?metis version="3.2"?>
<?metisxml version="1.1"?>
<!DOCTYPE svg  PUBLIC "-//W3C//DTD SVG August 1999//EN"
 "http://www.w3.org/Graphics/SVG/svg-19990812.dtd">

<svg width="200" height="200">
 <title>Symbol library: document_class.svg</title>
 <defs>
  <symbol id="oid0" xml:space="preserve" class="METIS_SYMBOL">
   <title>Document Class</title>
    <g>
      <polygon points="0 0 0 303.158 20.093 319.737 
       864 319.737 864 21.3158 848 0 0 0 0 0 "
       style=" stroke:#000000; stroke-width:1; fill:#9b9b9b; fill-opacity:100%"       class="TAG:shadow"></polygon>
      <rect x="0" y="0" width="243" height="303.158"
       style=" stroke:#000000; stroke-width:1; fill:#ffffff; fill-opacity:100%"       class="TAG:PictureBackgrund"></rect>
      <rect x="243" y="0" width="605" height="303.158"
       style=" stroke:#000000; stroke-width:1; fill:#b9b9b9; fill-opacity:100%"       class="TAG:canvas"></rect>
      <g>
	<rect x="113.711" y="74.3053" width="47.4102" height="182.125"
	 style=" stroke:#000000; stroke-width:1; fill:#96a5ff; fill-opacity:100%"	 class="TAG:Book"></rect>
	<polyline points="124.096 98.0606 150.058 98.0606"
	 style=" stroke:#000000; stroke-width:1;"></polyline>
	<polyline points="124.096 121.817 150.058 121.817"
	 style=" stroke:#000000; stroke-width:1;"></polyline>
	<polyline points="124.096 105.979 150.058 105.979"
	 style=" stroke:#000000; stroke-width:1;"></polyline>
	<rect x="66.9809" y="74.3053" width="46.7309" height="182.125"
	 style=" stroke:#000000; stroke-width:1; fill:#96a5ff; fill-opacity:100%"	 class="TAG:Book"></rect>
	<polyline points="77.3656 98.0606 103.327 98.0606"
	 style=" stroke:#000000; stroke-width:1;"></polyline>
	<polyline points="77.3656 121.817 103.327 121.817"
	 style=" stroke:#000000; stroke-width:1;"></polyline>
	<polyline points="77.3656 105.979 103.327 105.979"
	 style=" stroke:#000000; stroke-width:1;"></polyline>
	<rect x="20.25" y="74.3053" width="46.7309" height="182.125"
	 style=" stroke:#000000; stroke-width:1; fill:#96a5ff; fill-opacity:100%"	 class="TAG:Book"></rect>
	<polygon points="82.5577 42.6316 82.5577 74.3053 20.25 74.3053 
	 82.5577 42.6316 82.5577 42.6316 82.5577 42.6316 82.5577 42.6316 
	 82.5577 42.6316 82.5577 42.6316 "
	 style=" stroke:#000000; stroke-width:1; fill:#96a5ff; fill-opacity:100%"	 class="TAG:Book"></polygon>
	<polyline points="30.6347 98.0606 56.5962 98.0606"
	 style=" stroke:#000000; stroke-width:1;"></polyline>
	<polyline points="30.6347 121.817 56.5962 121.817"
	 style=" stroke:#000000; stroke-width:1;"></polyline>
	<polyline points="30.6347 105.979 56.5962 105.979"
	 style=" stroke:#000000; stroke-width:1;"></polyline>
	<polygon points="66.9809 74.3053 129.289 42.6316 129.289 74.3053 
	 66.9809 74.3053 66.9809 74.3053 66.9809 74.3053 66.9809 74.3053 
	 66.9809 74.3053 66.9809 74.3053 "
	 style=" stroke:#000000; stroke-width:1; fill:#96a5ff; fill-opacity:100%"></polygon>
	<polygon points="176.019 42.6316 176.019 74.3053 113.711 74.3053 
	 176.019 42.6316 176.019 42.6316 176.019 42.6316 176.019 42.6316 
	 176.019 42.6316 176.019 42.6316 "
	 style=" stroke:#000000; stroke-width:1; fill:#96a5ff; fill-opacity:100%"	 class="TAG:Book"></polygon>
	<polygon points="160.442 74.3053 222.75 42.6316 222.75 224.757 
	 160.442 256.432 160.442 74.3053 160.442 74.3053 160.442 74.3053 
	 160.442 74.3053 160.442 74.3053 160.442 74.3053 "
	 style=" stroke:#000000; stroke-width:1; fill:#96a5ff; fill-opacity:100%"	 class="TAG:Book"></polygon>
	<g>
	  <polygon points="25.4422 74.3053 72.173 50.5501 113.457 50.6493 
	   66.9809 74.3053 25.4422 74.3053 25.4422 74.3053 25.4422 74.3053 
	   25.4422 74.3053 25.4422 74.3053 25.4422 74.3053 "
	   style=" stroke:#000000; stroke-width:1; fill:#9b9b9b; fill-opacity:100%"	   class="TAG:Pages"></polygon>
	  <polyline points="56.5962 74.3053 103.327 50.5501"
	   style=" stroke:#000000; stroke-width:1;"></polyline>
	  <polyline points="46.2115 74.3053 92.9424 50.5501"
	   style=" stroke:#000000; stroke-width:1;"	   class="TAG:Pages"></polyline>
	  <polyline points="35.8269 74.3053 82.5577 50.5501"
	   style=" stroke:#000000; stroke-width:1;"></polyline>
	</g>
	<g>
	  <polygon points="72.173 74.3053 118.904 50.5501 160.188 50.6493 
	   113.711 74.3053 72.173 74.3053 72.173 74.3053 72.173 74.3053 
	   72.173 74.3053 72.173 74.3053 72.173 74.3053 "
	   style=" stroke:#000000; stroke-width:1; fill:#9b9b9b; fill-opacity:100%"	   class="TAG:Pages"></polygon>
	  <polyline points="103.327 74.3053 150.058 50.5501"
	   style=" stroke:#000000; stroke-width:1;"></polyline>
	  <polyline points="92.9424 74.3053 139.673 50.5501"
	   style=" stroke:#000000; stroke-width:1;"	   class="TAG:Pages"></polyline>
	  <polyline points="82.5577 74.3053 129.289 50.5501"
	   style=" stroke:#000000; stroke-width:1;"></polyline>
	</g>
	<g>
	  <polygon points="118.904 74.3053 165.634 50.5501 206.919 50.6493 
	   160.442 74.3053 118.904 74.3053 118.904 74.3053 118.904 74.3053 
	   118.904 74.3053 118.904 74.3053 118.904 74.3053 "
	   style=" stroke:#000000; stroke-width:1; fill:#9b9b9b; fill-opacity:100%"	   class="TAG:Pages"></polygon>
	  <polyline points="150.058 74.3053 196.788 50.5501"
	   style=" stroke:#000000; stroke-width:1;"></polyline>
	  <polyline points="139.673 74.3053 186.404 50.5501"
	   style=" stroke:#000000; stroke-width:1;"	   class="TAG:Pages"></polyline>
	  <polyline points="129.289 74.3053 176.019 50.5501"
	   style=" stroke:#000000; stroke-width:1;"></polyline>
	</g>
	<polyline points="176.019 224.757 207.173 208.92"
	 style=" stroke:#000000; stroke-width:1;"></polyline>
	<polyline points="176.019 208.92 207.173 193.083"
	 style=" stroke:#000000; stroke-width:1;"></polyline>
	<polygon points="173.423 105.979 212.365 86.1829 212.365 125.776 
	 173.423 145.572 173.423 105.979 173.423 105.979 173.423 105.979 
	 173.423 105.979 173.423 105.979 173.423 105.979 "
	 style=" stroke:#dcdcdc; stroke-width:1; fill:#dcdcdc; fill-opacity:100%"	 class="TAG:BookTitle"></polygon>
      </g>
      <rect x="258.188" y="26.6447" width="582.188" height="239.803"
       style="stroke:none; fill:#878787; fill-opacity:0%"       class="TAG:grid"></rect>
      <g>
	<desc>METIS_TEXT_GROUP</desc>
	<text  x="256" y="15.8"
	 style=" stroke:#000000; stroke-width:1; font-family:sans-serif; font-size:16;"
	 class="TAG:text">text</text>
	<rect x="256" y="0" width="592" height="303.158"
	 style=" stroke:#000000; stroke-width:1; fill:#ffffff; fill-opacity:0%"></rect>
      </g>
      <polyline points="848 303.158 864 320"
       style=" stroke:#000000; stroke-width:1;"></polyline>
    </g>
  </symbol>
 </defs>
</svg>
