<?xml version="1.0" encoding="UTF-8" standalone="no"?><!-- Generator: Adobe Illustrator 13.0.2, SVG Export Plug-In  --><svg xmlns:rdf="http://www.w3.org/1999/02/22-rdf-syntax-ns#" xmlns="http://www.w3.org/2000/svg" enable-background="new -0.529 -0.94 192 167" xml:space="preserve" height="219" width="219" version="1.1" y="0px" x="0px" xmlns:cc="http://creativecommons.org/ns#" xmlns:dc="http://purl.org/dc/elements/1.1/" viewBox="-0.529 -0.94 219 219">	<metadata>		<rdf:RDF>			<cc:Work rdf:about="">				<dc:format>image/svg+xml</dc:format>				<dc:type rdf:resource="http://purl.org/dc/dcmitype/StillImage"/>				<dc:title/>			</cc:Work>		</rdf:RDF>	</metadata>	<defs>		<filter id="filter4102" color-interpolation-filters="sRGB">			<feGaussianBlur stdDeviation="1.9852141"/>		</filter>	</defs>	<path d="m209.5,54.33h-68.72c-12.06,0-21.83,12.04-21.83,26.91v0.154h-56.67c-12.05,0-21.82,12.05-21.82,26.92v89.36c0,14.85,9.773,26.9,16.59,26.9h147.1c17.28,0,27.04-12.05,27.04-26.9v-116.5c0.001-14.86-9.761-26.91-21.8-26.91z" fill-opacity="0.50196078" transform="matrix(1.081082,0,0,1.081082,-32.910596,-34.687883)" filter="url(#filter4102)" stroke-miterlimit="4" fill="#000"/>	<path d="m187.4,17.1h-74.3c-13.03,0-23.6,13.02-23.6,29.09v0.1665h-61.15c-13.03,0-23.59,13.02-23.59,29.11v96.6c0,16.06,10.57,29.09,17.93,29.09h159c18.68,0,29.23-13.03,29.23-29.09v-125.8c0-16.06-10.5-29.08-23.5-29.08z" stroke="#cecc5f" stroke-width="3.24324608" fill="#e6e4a6"/>	<path stroke-linejoin="miter" style="enable-background:accumulate;color:#000000;" d="m210.9,46.46c0-16.48-10.54-29.83-23.54-29.83h-74.21c-13.01,0-23.21,12.44-23.21,28.92v0.5622" fill-rule="nonzero" stroke-dashoffset="0" stroke="#bdbb3a" stroke-linecap="butt" stroke-miterlimit="4" stroke-dasharray="none" stroke-width="3.24324608" fill="#d2ce5e"/>	<path d="M121.7,55.28h-57.38c-6.602,0-11.95,5.57-11.95,12.44v113.7c0,6.87,5.352,12.44,11.95,12.44h84.01c6.601,0,11.95-5.571,11.95-12.44l0.5-99.69-39-26.53z" stroke="#5b5b5b" stroke-width="3.23791647" fill="#f2f2f2"/>	<line stroke-width="3.238" y2="120.2" x2="137" stroke="#231f20" y1="119.8" x1="73.94" fill="#919191"/>	<line stroke-width="3.238" y2="135.8" x2="137" stroke="#231f20" y1="135.5" x1="73.86" fill="#919191"/>	<line stroke-width="3.238" y2="152.2" x2="136.8" stroke="#231f20" y1="151.9" x1="73.69" fill="#919191"/>	<line stroke-width="3.238" y2="167.8" x2="136.7" stroke="#231f20" y1="167.5" x1="73.61" fill="#919191"/>	<line stroke-width="3.238" y2="90.23" x2="136.4" stroke="#231f20" y1="89.92" x1="73.27" fill="#919191"/>	<line stroke-width="3.238" y2="105.2" x2="136.3" stroke="#231f20" y1="104.9" x1="73.19" fill="#919191"/>	<path d="m159.6,83.87h-26.7c-7.171,0-12.98-7.292-12.98-16.29v-11.29" stroke="#5b5b5b" stroke-width="3.23791671" fill="none"/></svg>