<?xml version="1.0"?>
<?metis version="3.1"?>
<?metisxml version="1.0"?>
<!DOCTYPE svg  PUBLIC "-//W3C//DTD SVG August 1999//EN"
 "http://www.w3.org/Graphics/SVG/svg-19990812.dtd">

<svg width="200" height="200">
 <title>Symbol library: document.svg</title>
 <defs>
  <symbol id="oid0" xml:space="preserve" class="METIS_SYMBOL">
   <title>Document</title>
    <polygon points="0 0 0 288 16 304 
     864 303.75 864 20.25 848 0 0 0 "
     style=" stroke:#000000; stroke-width:1; fill:#9b9b9b; fill-opacity:100%"     class="TAG:shadow"></polygon>
    <rect x="0" y="0" width="243" height="288"
     style=" stroke:#000000; stroke-width:1; fill:#ffffff; fill-opacity:100%"     class="TAG:PictureBackground"></rect>
    <g>
      <g>
	<polygon points="20.25 98.7957 29.2875 82.6873 87.8161 40.5 
	 117.511 183.938 111.056 201.58 81.7913 55.0739 20.25 98.7957 
	 20.25 98.7957 20.25 98.7957 20.25 98.7957 20.25 98.7957 
	 20.25 98.7957 20.25 98.7957 "
	 style=" stroke:#000000; stroke-width:1; fill:#dcdcdc; fill-opacity:100%"></polygon>
	<polyline points="29.7179 84.9887 86.9555 44.3352 115.79 187.773"
	 style=" stroke:#000000; stroke-width:1;"></polyline>
	<polyline points="25.1992 92.7703 83.7186 52.0055 112.347 195.443"
	 style=" stroke:#000000; stroke-width:1;"></polyline>
	<polygon points="20.6804 98.0287 50.8052 243 112.347 200.813 
	 82.6524 54.307 20.6804 98.0287 20.6804 98.0287 20.6804 98.0287 
	 20.6804 98.0287 20.6804 98.0287 20.6804 98.0287 20.6804 98.0287 "
	 style=" stroke:#000000; stroke-width:1; fill:#96a5ff; fill-opacity:100%"></polygon>
	<polygon points="34.4519 112.602 40.477 140.983 83.513 111.068 
	 77.4876 82.6873 34.4519 112.602 34.4519 112.602 34.4519 112.602 
	 34.4519 112.602 34.4519 112.602 34.4519 112.602 34.4519 112.602 "
	 style=" stroke:#000000; stroke-width:1; fill:#dcdcdc; fill-opacity:100%"></polygon>
	<polyline points="28.0208 88.611 85.2586 47.957 114.308 191.012"
	 style=" stroke:#000000; stroke-width:1;"></polyline>
      </g>
      <g>
	<polyline points="89.8948 181.736 121.741 158.725"
	 style=" stroke:#000000; stroke-width:1;"></polyline>
	<polyline points="90.3251 192.475 123.894 167.93"
	 style=" stroke:#000000; stroke-width:1;"></polyline>
	<polygon points="83.467 43.6678 152.031 43.6678 160.474 88.1563 
	 153.588 132.645 162.195 173.298 157.031 211.651 83.467 211.651 
	 89.4645 172.532 83.1101 132.645 91.1863 88.1563 83.467 43.6678 
	 83.467 43.6678 83.467 43.6678 83.467 43.6678 83.467 43.6678 
	 83.467 43.6678 83.467 43.6678 "
	 style=" stroke:#000000; stroke-width:1; fill:#ffffff; fill-opacity:100%"></polygon>
	<polyline points="89.8948 173.298 162.195 173.298"
	 style=" stroke:#000000; stroke-width:1;"></polyline>
	<polyline points="83.2245 132.645 153.396 132.645"
	 style=" stroke:#000000; stroke-width:1;"></polyline>
	<polyline points="91.5087 88.1563 160.043 88.1563"
	 style=" stroke:#000000; stroke-width:1;"></polyline>
	<polygon points="83.8699 44.4348 88.6039 67.4467 155.74 65.9122 
	 151.006 44.4348 83.8699 44.4348 83.8699 44.4348 83.8699 44.4348 
	 83.8699 44.4348 83.8699 44.4348 83.8699 44.4348 83.8699 44.4348 "
	 style=" stroke:#ffffff; stroke-width:1; fill:#c8ffc8; fill-opacity:100%"></polygon>
	<polygon points="83.8699 133.413 86.8826 154.889 157.891 154.889 
	 152.974 133.413 83.8699 133.413 83.8699 133.413 83.8699 133.413 
	 83.8699 133.413 83.8699 133.413 83.8699 133.413 83.8699 133.413 "
	 style=" stroke:#ffffff; stroke-width:1; fill:#c8ffc8; fill-opacity:100%"></polygon>
	<polygon points="91.6166 88.9233 159.613 89.6908 156.17 111.167 
	 87.3129 110.4 91.6166 88.9233 91.6166 88.9233 91.6166 88.9233 
	 91.6166 88.9233 91.6166 88.9233 91.6166 88.9233 91.6166 88.9233 "
	 style=" stroke:#ffffff; stroke-width:1; fill:#c8ffc8; fill-opacity:100%"></polygon>
	<polygon points="90.3251 174.065 161.335 174.065 158.752 196.31 
	 86.8826 195.543 90.3251 174.065 90.3251 174.065 90.3251 174.065 
	 90.3251 174.065 90.3251 174.065 90.3251 174.065 90.3251 174.065 "
	 style=" stroke:#ffffff; stroke-width:1; fill:#c8ffc8; fill-opacity:100%"></polygon>
	<ellipse  cx="90.9706" cy="54.023" rx="1.50625" ry="2.68465"
	 style=" stroke:#000000; stroke-width:1; fill:#ffffff; fill-opacity:100%"></ellipse>
	<ellipse  cx="93.7681" cy="73.5824" rx="1.50625" ry="2.68465"
	 style=" stroke:#000000; stroke-width:1; fill:#ffffff; fill-opacity:100%"></ellipse>
	<ellipse  cx="93.3378" cy="99.6624" rx="1.50625" ry="2.68465"
	 style=" stroke:#000000; stroke-width:1; fill:#ffffff; fill-opacity:100%"></ellipse>
	<ellipse  cx="89.8948" cy="118.072" rx="1.50625" ry="2.68465"
	 style=" stroke:#000000; stroke-width:1; fill:#ffffff; fill-opacity:100%"></ellipse>
	<ellipse  cx="89.4645" cy="143.384" rx="1.50625" ry="2.68465"
	 style=" stroke:#000000; stroke-width:1; fill:#ffffff; fill-opacity:100%"></ellipse>
	<ellipse  cx="91.6166" cy="158.725" rx="1.50625" ry="2.68465"
	 style=" stroke:#000000; stroke-width:1; fill:#ffffff; fill-opacity:100%"></ellipse>
	<ellipse  cx="92.4772" cy="184.038" rx="1.50625" ry="2.68465"
	 style=" stroke:#000000; stroke-width:1; fill:#ffffff; fill-opacity:100%"></ellipse>
	<ellipse  cx="89.4645" cy="200.912" rx="1.50625" ry="2.68465"
	 style=" stroke:#000000; stroke-width:1; fill:#ffffff; fill-opacity:100%"></ellipse>
	<ellipse  cx="148.531" cy="53.0641" rx="1.50625" ry="2.68465"
	 style=" stroke:#000000; stroke-width:1; fill:#ffffff; fill-opacity:100%"></ellipse>
	<ellipse  cx="152.189" cy="73.3906" rx="1.50625" ry="2.68465"
	 style=" stroke:#000000; stroke-width:1; fill:#ffffff; fill-opacity:100%"></ellipse>
	<ellipse  cx="153.05" cy="203.789" rx="1.50625" ry="2.68465"
	 style=" stroke:#000000; stroke-width:1; fill:#ffffff; fill-opacity:100%"></ellipse>
	<ellipse  cx="155.632" cy="186.913" rx="1.50625" ry="2.68465"
	 style=" stroke:#000000; stroke-width:1; fill:#ffffff; fill-opacity:100%"></ellipse>
	<ellipse  cx="154.341" cy="161.601" rx="1.50625" ry="2.68465"
	 style=" stroke:#000000; stroke-width:1; fill:#ffffff; fill-opacity:100%"></ellipse>
	<ellipse  cx="150.468" cy="145.493" rx="1.50625" ry="2.68465"
	 style=" stroke:#000000; stroke-width:1; fill:#ffffff; fill-opacity:100%"></ellipse>
	<ellipse  cx="150.038" cy="122.482" rx="1.50625" ry="2.68465"
	 style=" stroke:#000000; stroke-width:1; fill:#ffffff; fill-opacity:100%"></ellipse>
	<ellipse  cx="152.62" cy="101.004" rx="1.50625" ry="2.68465"
	 style=" stroke:#000000; stroke-width:1; fill:#ffffff; fill-opacity:100%"></ellipse>
      </g>
      <g>
	<polygon points="156.308 72.293 127.291 189.566 185.038 230.867 
	 217.037 92.5425 172.778 58.89 156.308 72.293 156.308 72.293 
	 156.308 72.293 156.308 72.293 156.308 72.293 156.308 72.293 156.308 72.293 "
	 style=" stroke:#b9b9b9; stroke-width:1; fill:#ffffff; fill-opacity:100%"></polygon>
	<polygon points="156.308 72.0014 172.819 59.1816 168.078 80.1596 
	 156.308 72.0014 156.308 72.0014 156.308 72.0014 156.308 72.0014 
	 156.308 72.0014 156.308 72.0014 156.308 72.0014 "
	 style=" stroke:#dcdcdc; stroke-width:1; fill:#dcdcdc; fill-opacity:100%"></polygon>
	<polyline points="171.585 99.9322 203.29 122.453"
	 style=" stroke:#b9b9b9; stroke-width:1;"></polyline>
	<polyline points="163.59 106.597 200.831 133.147"
	 style=" stroke:#b9b9b9; stroke-width:1;"></polyline>
	<polyline points="160.763 118.602 198.003 145.152"
	 style=" stroke:#b9b9b9; stroke-width:1;"></polyline>
	<polyline points="144.326 180.429 181.567 206.979"
	 style=" stroke:#b9b9b9; stroke-width:1;"></polyline>
	<polyline points="150.578 157.484 187.819 184.035"
	 style=" stroke:#b9b9b9; stroke-width:1;"></polyline>
	<polyline points="147.383 169.489 184.624 196.04"
	 style=" stroke:#b9b9b9; stroke-width:1;"></polyline>
	<polyline points="156.946 131.467 194.187 158.017"
	 style=" stroke:#b9b9b9; stroke-width:1;"></polyline>
	<polyline points="160.185 148.698 190.992 171.333"
	 style=" stroke:#b9b9b9; stroke-width:1;"></polyline>
      </g>
    </g>
    <rect x="243" y="0" width="605" height="288"
     style=" stroke:#000000; stroke-width:1; fill:#b9b9b9; fill-opacity:100%"     class="TAG:canvas"></rect>
    <rect x="250.813" y="25.3125" width="582.187" height="227.813"
     style="stroke:none; fill:#878787; fill-opacity:0%"     class="TAG:grid"></rect>
    <g>
      <desc>METIS_TEXT_GROUP</desc>
      <text  x="255.876" y="15.8"
       style=" stroke:#000000; stroke-width:1; font-family:sans-serif; font-size:16;"
       class="TAG:text">text</text>
      <rect x="255.876" y="0" width="592.124" height="288"
       style=" stroke:#000000; stroke-width:1; fill:#ffffff; fill-opacity:0%"></rect>
    </g>
    <polyline points="848 288 864 304"
     style=" stroke:#000000; stroke-width:1;"></polyline>
  </symbol>
 </defs>
</svg>
