<?xml version="1.0"?>
<?metis version="3.1"?>
<?metisxml version="1.0"?>
<!DOCTYPE svg  PUBLIC "-//W3C//DTD SVG August 1999//EN"
 "http://www.w3.org/Graphics/SVG/svg-19990812.dtd">

<svg width="200" height="200">
 <title>Symbol library: environmental.svg</title>
 <defs>
  <symbol id="oid1" xml:space="preserve" class="METIS_SYMBOL">
   <title>Environmental</title>
    <g>
      <polygon points="0 0 0 304 16.2963 320 
       880 320 880 16 863.704 0 0 0 
       0 0 0 0 0 0 0 0 
       0 0 0 0 0 0 0 0 
       0 0 0 0 "
       style=" stroke:#000000; stroke-width:1; fill:#9b9b9b; fill-opacity:100%"       class="TAG:shadow"></polygon>
      <polyline points="864 304 880 320"
       style=" stroke:#000000; stroke-width:1;"></polyline>
      <rect x="0" y="0" width="240" height="304"
       style=" stroke:#000000; stroke-width:1; fill:#ffffff; fill-opacity:100%"       class="TAG:PictureBackground"></rect>
      <rect x="240" y="0" width="624" height="304"
       style=" stroke:#000000; stroke-width:1; fill:#ffa5ff; fill-opacity:100%"       class="TAG:canvas"></rect>
      <rect x="245.357" y="25.7143" width="569.522" height="231.429"
       style="stroke:none; fill:#878787; fill-opacity:0%"       class="TAG:grid"></rect>
      <g>
	<desc>METIS_TEXT_GROUP</desc>
	<text  x="256" y="15.8"
	 style=" stroke:#000000; stroke-width:1; font-family:sans-serif; font-size:16;"
	 class="TAG:text">text</text>
	<rect x="256" y="0" width="608" height="304"
	 style=" stroke:#000000; stroke-width:1; fill:#ffffff; fill-opacity:0%"></rect>
      </g>
      <g>
	<desc>METIS_TEXT_GROUP</desc>
	<text  x="48" y="37.5"
	 style=" stroke:#000000; stroke-width:1; font-family:sans-serif; font-weight:bold; font-size:38; text-align:center vertical-align:middle;"
	 class="TAG:swot">SWOT
</text>
	<rect x="48" y="0" width="192" height="304"
	 style=" stroke:#000000; stroke-width:1; fill:#ffffff; fill-opacity:0%"></rect>
      </g>
    </g>
  </symbol>
 </defs>
</svg>
