<?xml version="1.0"?>
<?metis version="3.1"?>
<?metisxml version="1.0"?>
<!DOCTYPE svg  PUBLIC "-//W3C//DTD SVG August 1999//EN"
 "http://www.w3.org/Graphics/SVG/svg-19990812.dtd">

<svg width="200" height="200">
 <title>Symbol library: equipment.svg</title>
 <defs>
  <symbol id="oid1" xml:space="preserve" class="METIS_SYMBOL">
   <title>Equipment</title>
    <g>
      <polygon points="0 0 0 304 16.2963 320 
       880 320 880 16 863.704 0 0 0 
       0 0 0 0 0 0 0 0 
       0 0 0 0 0 0 0 0 
       0 0 0 0 0 0 "
       style=" stroke:#000000; stroke-width:1; fill:#9b9b9b; fill-opacity:100%"       class="TAG:shadow"></polygon>
      <rect x="0" y="0" width="240" height="304"
       style=" stroke:#000000; stroke-width:1; fill:#ffffa5; fill-opacity:100%"       class="TAG:PictureBackground"></rect>
      <rect x="240" y="0" width="624" height="304"
       style=" stroke:#000000; stroke-width:1; fill:#9b9b9b; fill-opacity:100%"       class="TAG:canvas"></rect>
      <g>
	<desc>METIS_TEXT_GROUP</desc>
	<text  x="256" y="15.8"
	 style=" stroke:#000000; stroke-width:1; font-family:sans-serif; font-size:16;"
	 class="TAG:text">text</text>
	<rect x="256" y="0" width="608" height="304"
	 style=" stroke:#000000; stroke-width:1; fill:#ffffff; fill-opacity:0%"></rect>
      </g>
      <polyline points="880 320 864 304"
       style=" stroke:#000000; stroke-width:1;"></polyline>
      <g>
	<polygon points="35.035 99.5789 60.2994 120.546 16 172.092 
	 16 191.313 18.7688 193.497 21.8836 195.244 24.9984 196.991 
	 27.767 198.739 30.8818 200.486 33.6506 202.233 36.7655 203.981 
	 39.8801 205.29 42.649 207.039 45.7638 208.348 48.5325 209.659 
	 51.6473 210.97 54.762 212.28 57.8768 213.59 60.6456 214.901 
	 63.7604 216.212 66.8752 217.085 69.9901 218.396 73.1049 219.269 
	 75.8737 220.143 78.9885 221.017 82.103 221.891 85.2179 222.764 
	 88.3329 223.638 91.4476 224.511 94.5624 224.949 97.6774 225.822 
	 100.792 226.259 103.907 226.695 107.368 227.569 110.137 228.006 
	 113.597 228.442 157.897 155.93 191.122 154.182 224 96.521 
	 224 76.8639 35.035 80.3585 35.035 99.5789 35.035 99.5789 
	 35.035 99.5789 35.035 99.5789 35.035 99.5789 35.035 99.5789 35.035 99.5789 "
	 style=" stroke:#000000; stroke-width:1; fill:#ababab; fill-opacity:100%"></polygon>
	<polyline points="157.661 136.538 157.661 156.138"
	 style=" stroke:#000000; stroke-width:1;"></polyline>
	<polygon points="35.035 80.4676 60.2994 101.426 16 172.162 
	 18.7688 173.909 21.5374 175.656 24.3062 177.402 27.0748 179.149 
	 30.1896 180.896 32.9584 182.206 35.727 183.952 38.4957 185.262 
	 41.6107 187.009 44.7255 188.319 47.4942 189.628 50.6092 190.938 
	 53.3775 192.249 56.4925 193.558 59.6073 194.868 62.7223 196.177 
	 66.183 197.488 68.9519 198.362 72.0667 199.235 75.1812 200.545 
	 78.296 201.418 81.7571 202.292 84.8719 203.164 87.9867 204.037 
	 91.1015 204.911 94.2163 205.784 97.3311 206.22 100.792 207.094 
	 103.907 207.531 107.022 208.404 110.137 208.841 113.597 209.277 
	 157.897 136.795 191.122 135.048 224 76.9743 69.2978 32 
	 35.035 80.4676 35.035 80.4676 35.035 80.4676 35.035 80.4676 
	 35.035 80.4676 35.035 80.4676 35.035 80.4676 "
	 style=" stroke:#ababab; stroke-width:1; fill:#ffffff; fill-opacity:100%"></polygon>
	<polygon points="68.1632 213.729 56.6567 233.444 51.7751 236.511 
	 50.3804 238.264 48.9856 240.454 47.9396 242.207 46.8935 244.398 
	 45.8474 246.588 45.1502 248.779 44.4526 250.532 43.4066 253.16 
	 43.058 255.351 42.7092 257.541 42.3607 259.732 42.012 262.361 
	 41.6632 264.551 41.3144 267.18 41.3144 269.809 41.3144 272 
	 31.2027 272 31.2027 268.933 31.2027 265.866 31.5513 262.799 
	 31.5513 260.17 31.9001 257.103 32.5975 254.036 32.9461 251.407 
	 33.6435 248.779 34.3408 245.712 35.0382 243.084 36.0842 240.892 
	 37.1302 238.264 38.1765 236.073 39.5711 233.882 40.9659 231.692 
	 42.7092 229.939 43.7554 220.3 55.2618 199.27 57.354 198.394 
	 59.0974 197.955 60.8408 197.517 62.2357 197.955 63.9791 198.394 
	 65.0252 199.27 66.0711 200.584 67.1173 201.461 67.8147 203.212 
	 68.512 204.965 68.8605 206.279 69.2093 208.032 69.2093 209.346 
	 69.2093 211.099 68.8605 212.414 68.1632 213.729 68.1632 213.729 
	 68.1632 213.729 68.1632 213.729 68.1632 213.729 68.1632 213.729 68.1632 213.729 "
	 style=" stroke:#ababab; stroke-width:1; fill:#000000; fill-opacity:100%"></polygon>
	<polyline points="42.6046 229.873 44.3986 228.049 46.1926 227.136 
	 47.9868 227.592 49.422 228.049 50.8572 229.873 51.5746 231.699 
	 51.9334 233.981 51.9334 236.719"
	 style=" stroke:#ababab; stroke-width:1;"></polyline>
	<polyline points="43.6413 220.218 45.4142 219.321 46.4782 218.425 
	 47.8966 218.425 49.315 218.425 50.7335 218.874 51.7973 219.321 
	 53.2157 220.218 54.2795 221.115 54.9886 222.46 56.0526 223.805 
	 56.4071 225.15 57.1164 226.944 57.1164 228.289 57.1164 230.082 
	 57.1164 231.876 56.7618 233.669"
	 style=" stroke:#ababab; stroke-width:1;"></polyline>
	<polyline points="66.7907 205.792 56.4252 222.344"
	 style=" stroke:#ababab; stroke-width:1;"></polyline>
	<polyline points="49.1694 233.234 47.7454 234.996 45.9655 237.199 
	 44.8976 239.402 43.4736 242.044 42.4057 243.806 41.3376 246.449 
	 40.6258 248.652 39.9137 251.295 39.2018 253.498 38.8459 256.14 
	 38.4898 258.784 38.1339 261.427 37.778 264.071 37.778 266.713 
	 37.778 269.357 37.4219 272"
	 style=" stroke:#ababab; stroke-width:1;"></polyline>
	<polygon points="69.7277 117.372 70.7967 117.372 71.8656 117.372 
	 72.5782 116.916 73.6472 116.003 74.3598 115.547 74.7162 114.634 
	 75.0725 113.721 75.4287 112.809 75.0725 111.896 74.7162 110.984 
	 74.3598 110.071 73.6472 109.158 72.5782 108.702 71.8656 108.246 
	 70.7967 108.246 69.7277 107.789 68.3025 108.246 67.2334 108.246 
	 66.5209 108.702 65.8081 109.158 64.7392 110.071 64.3828 110.984 
	 64.0266 111.896 64.0266 112.809 64.0266 113.721 64.3828 114.634 
	 64.7392 115.547 65.8081 116.003 66.5209 116.916 67.2334 117.372 
	 68.3025 117.372 69.7277 117.372 69.7277 117.372 69.7277 117.372 
	 69.7277 117.372 69.7277 117.372 69.7277 117.372 69.7277 117.372 "
	 style=" stroke:#000000; stroke-width:1; fill:#ababab; fill-opacity:100%"></polygon>
	<polygon points="69.7276 117.372 70.4499 117.372 71.1725 117.372 
	 71.8948 116.906 72.6172 116.439 72.9784 115.972 73.3396 115.505 
	 73.3396 115.039 73.7009 114.105 73.3396 113.638 73.3396 113.172 
	 72.9784 112.238 72.6172 111.772 71.8948 111.772 71.1725 111.305 
	 70.4499 110.839 69.7276 110.839 68.6438 110.839 67.9216 111.305 
	 67.5603 111.772 66.8379 111.772 66.4767 112.238 66.1154 113.172 
	 65.7541 113.638 65.7541 114.105 65.7541 115.039 66.1154 115.505 
	 66.4767 115.972 66.8379 116.439 67.5603 116.906 67.9216 117.372 
	 68.6438 117.372 69.7276 117.372 69.7276 117.372 69.7276 117.372 
	 69.7276 117.372 69.7276 117.372 69.7276 117.372 69.7276 117.372 "
	 style=" stroke:#024402; stroke-width:1; fill:#00ff00; fill-opacity:100%"></polygon>
	<polygon points="79.291 32 51.5911 70.5156 50.2061 77.0808 
	 53.3221 80.1443 56.4384 82.7702 59.901 85.3963 63.0171 88.0223 
	 66.4797 90.211 69.9422 92.8371 73.751 95.0253 77.2135 97.2138 
	 80.676 99.4022 84.4847 101.153 88.2935 103.341 92.4487 105.092 
	 96.2573 106.405 100.412 108.156 104.221 109.906 108.722 111.219 
	 112.531 112.532 117.032 113.845 121.188 115.159 125.688 116.034 
	 129.843 116.909 134.345 118.222 138.846 119.097 143.693 119.535 
	 148.195 120.411 153.042 120.848 157.544 121.286 162.391 121.724 
	 167.238 122.161 172.086 122.161 176.934 122.161 182.127 122.599 
	 210.866 73.5792 212.944 74.017 208.789 69.2025 79.291 32 
	 79.291 32 79.291 32 79.291 32 79.291 32 
	 79.291 32 79.291 32 "
	 style=" stroke:#ababab; stroke-width:1; fill:#000000; fill-opacity:100%"></polygon>
	<polyline points="51.5881 70.3426 54.7044 73.42 58.1673 76.4974 
	 61.63 79.1352 65.0929 81.7732 68.5555 84.411 72.0185 86.6093 
	 75.8275 88.8076 79.2902 91.0058 83.0993 93.2038 86.9082 94.9624 
	 90.7172 97.1608 94.5263 98.9192 98.3352 100.238 102.144 101.997 
	 106.3 103.316 110.455 105.074 114.61 105.954 118.42 107.272 
	 122.575 108.591 126.73 109.471 131.232 110.35 135.387 111.229 
	 139.542 112.109 144.044 112.988 148.546 113.428 153.047 113.867 
	 157.549 114.307 162.05 114.747 166.552 115.186 171.4 115.626 
	 175.901 115.626 180.749 116.065 208.797 69.0235"
	 style=" stroke:#ababab; stroke-width:1;"></polyline>
	<polygon points="96.2557 106.222 85.4516 124.248 85.103 127.325 
	 103.226 134.359 115.773 113.696 117.515 107.981 125.182 95.2311 
	 123.44 92.5935 106.711 87.3176 97.9983 100.507 96.2557 106.222 
	 96.2557 106.222 96.2557 106.222 96.2557 106.222 96.2557 106.222 
	 96.2557 106.222 96.2557 106.222 "
	 style=" stroke:#ababab; stroke-width:1; fill:#ffffff; fill-opacity:100%"></polygon>
	<polyline points="123.456 92.5445 114.738 107.084 112.995 112.811 
	 102.186 130.874 85.4485 124.266"
	 style=" stroke:#ababab; stroke-width:1;"></polyline>
	<polyline points="96.1595 106.047 113.09 113.016"
	 style=" stroke:#ababab; stroke-width:1;"></polyline>
	<polyline points="97.8872 100.385 114.818 107.354"
	 style=" stroke:#ababab; stroke-width:1;"></polyline>
	<polyline points="102.033 130.439 103.415 134.359"
	 style=" stroke:#ababab; stroke-width:1;"></polyline>
	<polyline points="92.7043 118.679 102.724 122.599"
	 style=" stroke:#ababab; stroke-width:1;"></polyline>
	<polyline points="94.4319 115.194 104.797 119.55"
	 style=" stroke:#ababab; stroke-width:1;"></polyline>
	<polyline points="93.3954 116.936 103.415 120.857"
	 style=" stroke:#ababab; stroke-width:1;"></polyline>
	<polygon points="113.09 102.563 112.373 92.1088 103.415 98.9266 
	 113.09 102.563 113.09 102.563 113.09 102.563 113.09 102.563 
	 113.09 102.563 113.09 102.563 113.09 102.563 "
	 style=" stroke:#020285; stroke-width:1; fill:#0000ff; fill-opacity:100%"></polygon>
	<polyline points="109.085 94.3203 108.377 94.3203 106.959 93.8511 
	 105.896 93.8511 104.833 93.8511 104.124 93.8511 103.77 94.3203 
	 103.415 94.7892 103.77 95.7274 104.479 96.1966 105.187 96.6655 
	 106.25 97.1346 107.668 97.6038 108.731 98.5418 110.149 99.0109 
	 111.566 99.4801 112.983 99.4801 114.047 99.9492 115.11 99.9492 
	 116.173 99.9492 116.527 99.9492 117.236 99.9492 117.236 99.4801 
	 117.236 99.0109 116.881 98.5418 116.527 98.0728 115.819 97.1346 
	 114.755 96.6655 113.692 96.1966 112.629 95.7274"
	 style=" stroke:#ff0085; stroke-width:1;"></polyline>
	<polygon points="80.6317 45.5027 190.485 78.0572 183.555 89.4954 
	 128.801 73.2181 73.7009 56.9406 77.1665 51.2218 80.6317 45.5027 
	 80.6317 45.5027 80.6317 45.5027 80.6317 45.5027 80.6317 45.5027 
	 80.6317 45.5027 80.6317 45.5027 "
	 style=" stroke:#850202; stroke-width:1; fill:#ff0016; fill-opacity:100%"></polygon>
	<polyline points="72.3189 54.8086 79.9427 42.8893 190.14 75.5572"
	 style=" stroke:#ababab; stroke-width:1;"></polyline>
	<polyline points="190.831 134.795 190.831 154.396"
	 style=" stroke:#ffffff; stroke-width:1;"></polyline>
	<polyline points="113.435 208.842 113.435 228.442"
	 style=" stroke:#ffffff; stroke-width:1;"></polyline>
	<polyline points="180.465 115.63 182.193 122.599"
	 style=" stroke:#ababab; stroke-width:1;"></polyline>
      </g>
    </g>
  </symbol>
 </defs>
</svg>
