<?xml version="1.0" encoding="UTF-8" standalone="no"?>

<svg
 xmlns:dc="http://purl.org/dc/elements/1.1/"
   xmlns:cc="http://creativecommons.org/ns#"
   xmlns:rdf="http://www.w3.org/1999/02/22-rdf-syntax-ns#"
   xmlns:svg="http://www.w3.org/2000/svg"
   xmlns="http://www.w3.org/2000/svg"
   xmlns:xlink="http://www.w3.org/1999/xlink"
   xmlns:sodipodi="http://sodipodi.sourceforge.net/DTD/sodipodi-0.dtd"
   xmlns:inkscape="http://www.inkscape.org/namespaces/inkscape"
   id="svg2"
   version="1.1"
   inkscape:version="0.47 r22583"
   width="100"
   height="100"
   sodipodi:docname="external_influencer_category.svg">
  <metadata
     id="metadata90">
    <rdf:RDF>
      <cc:Work
         rdf:about="">
        <dc:format>image/svg+xml</dc:format>
        <dc:type
           rdf:resource="http://purl.org/dc/dcmitype/StillImage" />
      </cc:Work>
    </rdf:RDF>
  </metadata>
  <defs
     id="defs88">
    <linearGradient
       inkscape:collect="always"
       id="linearGradient3750">
      <stop
         style="stop-color:#ffffff;stop-opacity:1;"
         offset="0"
         id="stop3752" />
      <stop
         style="stop-color:#ffffff;stop-opacity:0;"
         offset="1"
         id="stop3754" />
    </linearGradient>
    <linearGradient
       inkscape:collect="always"
       id="linearGradient3742">
      <stop
         style="stop-color:#ffffff;stop-opacity:1;"
         offset="0"
         id="stop3744" />
      <stop
         style="stop-color:#ffffff;stop-opacity:0;"
         offset="1"
         id="stop3746" />
    </linearGradient>
    <linearGradient
       inkscape:collect="always"
       id="linearGradient3734">
      <stop
         style="stop-color:#e0c170;stop-opacity:1;"
         offset="0"
         id="stop3736" />
      <stop
         style="stop-color:#e0c170;stop-opacity:0;"
         offset="1"
         id="stop3738" />
    </linearGradient>
    <linearGradient
       inkscape:collect="always"
       id="linearGradient3726">
      <stop
         style="stop-color:#f2d791;stop-opacity:1;"
         offset="0"
         id="stop3728" />
      <stop
         style="stop-color:#f2d791;stop-opacity:0;"
         offset="1"
         id="stop3730" />
    </linearGradient>
    <linearGradient
       inkscape:collect="always"
       id="linearGradient3718">
      <stop
         style="stop-color:#ff7711;stop-opacity:1;"
         offset="0"
         id="stop3720" />
      <stop
         style="stop-color:#ff7711;stop-opacity:0;"
         offset="1"
         id="stop3722" />
    </linearGradient>
    <linearGradient
       inkscape:collect="always"
       id="linearGradient3710">
      <stop
         style="stop-color:#7faa48;stop-opacity:1;"
         offset="0"
         id="stop3712" />
      <stop
         style="stop-color:#7faa48;stop-opacity:0;"
         offset="1"
         id="stop3714" />
    </linearGradient>
    <linearGradient
       inkscape:collect="always"
       id="linearGradient3702">
      <stop
         style="stop-color:#7faa48;stop-opacity:1;"
         offset="0"
         id="stop3704" />
      <stop
         style="stop-color:#7faa48;stop-opacity:0;"
         offset="1"
         id="stop3706" />
    </linearGradient>
    <linearGradient
       inkscape:collect="always"
       id="linearGradient3694">
      <stop
         style="stop-color:#775599;stop-opacity:1;"
         offset="0"
         id="stop3696" />
      <stop
         style="stop-color:#775599;stop-opacity:0;"
         offset="1"
         id="stop3698" />
    </linearGradient>
    <linearGradient
       inkscape:collect="always"
       id="linearGradient3686">
      <stop
         style="stop-color:#775599;stop-opacity:1;"
         offset="0"
         id="stop3688" />
      <stop
         style="stop-color:#775599;stop-opacity:0;"
         offset="1"
         id="stop3690" />
    </linearGradient>
    <linearGradient
       inkscape:collect="always"
       id="linearGradient3678">
      <stop
         style="stop-color:#775599;stop-opacity:1;"
         offset="0"
         id="stop3680" />
      <stop
         style="stop-color:#775599;stop-opacity:0;"
         offset="1"
         id="stop3682" />
    </linearGradient>
    <linearGradient
       inkscape:collect="always"
       id="linearGradient3670">
      <stop
         style="stop-color:#775599;stop-opacity:1;"
         offset="0"
         id="stop3672" />
      <stop
         style="stop-color:#775599;stop-opacity:0;"
         offset="1"
         id="stop3674" />
    </linearGradient>
    <inkscape:perspective
       sodipodi:type="inkscape:persp3d"
       inkscape:vp_x="0 : 0.5 : 1"
       inkscape:vp_y="0 : 1000 : 0"
       inkscape:vp_z="1 : 0.5 : 1"
       inkscape:persp3d-origin="0.5 : 0.33333333 : 1"
       id="perspective92" />
    <linearGradient
       inkscape:collect="always"
       xlink:href="#linearGradient3670"
       id="linearGradient3676"
       x1="165.478"
       y1="236.9285"
       x2="173.567"
       y2="236.9285"
       gradientUnits="userSpaceOnUse" />
    <linearGradient
       inkscape:collect="always"
       xlink:href="#linearGradient3678"
       id="linearGradient3684"
       x1="177.08299"
       y1="236.9285"
       x2="185.172"
       y2="236.9285"
       gradientUnits="userSpaceOnUse" />
    <linearGradient
       inkscape:collect="always"
       xlink:href="#linearGradient3686"
       id="linearGradient3692"
       x1="189.392"
       y1="236.9285"
       x2="197.481"
       y2="236.9285"
       gradientUnits="userSpaceOnUse" />
    <linearGradient
       inkscape:collect="always"
       xlink:href="#linearGradient3694"
       id="linearGradient3700"
       x1="200.998"
       y1="236.9285"
       x2="209.086"
       y2="236.9285"
       gradientUnits="userSpaceOnUse" />
    <linearGradient
       inkscape:collect="always"
       xlink:href="#linearGradient3702"
       id="linearGradient3708"
       x1="189.392"
       y1="220.39951"
       x2="209.086"
       y2="220.39951"
       gradientUnits="userSpaceOnUse" />
    <linearGradient
       inkscape:collect="always"
       xlink:href="#linearGradient3710"
       id="linearGradient3716"
       x1="165.478"
       y1="220.39951"
       x2="185.172"
       y2="220.39951"
       gradientUnits="userSpaceOnUse" />
    <linearGradient
       inkscape:collect="always"
       xlink:href="#linearGradient3718"
       id="linearGradient3724"
       x1="165.478"
       y1="203.8705"
       x2="209.086"
       y2="203.8705"
       gradientUnits="userSpaceOnUse" />
    <linearGradient
       inkscape:collect="always"
       xlink:href="#linearGradient3726"
       id="linearGradient3732"
       x1="20.0931"
       y1="165.20979"
       x2="281.30301"
       y2="165.20979"
       gradientUnits="userSpaceOnUse" />
    <linearGradient
       inkscape:collect="always"
       xlink:href="#linearGradient3734"
       id="linearGradient3740"
       x1="11.1628"
       y1="152.93065"
       x2="238.884"
       y2="152.93065"
       gradientUnits="userSpaceOnUse" />
    <linearGradient
       inkscape:collect="always"
       xlink:href="#linearGradient3742"
       id="linearGradient3748"
       x1="46.883701"
       y1="154.0466"
       x2="245.582"
       y2="154.0466"
       gradientUnits="userSpaceOnUse" />
    <linearGradient
       inkscape:collect="always"
       xlink:href="#linearGradient3750"
       id="linearGradient3756"
       x1="31.255899"
       y1="142.88396"
       x2="227.72099"
       y2="142.88396"
       gradientUnits="userSpaceOnUse" />
  </defs>
  <sodipodi:namedview
     pagecolor="#ffffff"
     bordercolor="#666666"
     borderopacity="1"
     objecttolerance="10"
     gridtolerance="10"
     guidetolerance="10"
     inkscape:pageopacity="0"
     inkscape:pageshadow="2"
     inkscape:window-width="1680"
     inkscape:window-height="994"
     id="namedview86"
     showgrid="false"
     inkscape:zoom="2.3702532"
     inkscape:cx="158"
     inkscape:cy="158"
     inkscape:window-x="-4"
     inkscape:window-y="-4"
     inkscape:window-maximized="1"
     inkscape:current-layer="svg2" />
  <polygon
     points="288,0 288,288 288,288 0,288 0,0 "
     style="fill:#ffffff;fill-opacity:0;stroke:none"
     id="polygon4"
     transform="scale(0.3164557,0.3164557)" />
  <polygon
     points="241.096,213.813 243.35,202.538 243.35,170.97 243.35,49.2056 241.096,44.6959 241.096,42.4411 236.588,40.1861 234.334,40.1861 126.15,64.9897 126.15,64.9897 103.612,46.9506 15.713,64.9897 11.2053,67.2447 8.95152,69.5 6.69769,71.7547 6.69769,74.0094 13.4592,258.911 13.4592,261.165 15.713,263.42 17.9668,265.675 22.4745,265.675 241.096,216.067 "
     style="fill:#8c4b28;fill-opacity:1;stroke:none"
     id="polygon6"
     transform="scale(0.3164557,0.3164557)" />
  <polygon
     points="126.151,71.7209 126.151,71.7209 234.375,44.6513 236.629,46.9068 236.629,49.163 238.884,170.977 238.884,211.582 20.1815,261.21 17.9268,256.698 11.1628,73.9768 13.4175,71.7209 15.6722,71.7209 101.349,51.4188 123.896,71.7209 "
     style="fill:url(#linearGradient3740);fill-opacity:1;stroke:none"
     id="polygon8"
     transform="scale(0.3164557,0.3164557)" />
  <polygon
     points="24.5582,107.715 24.5582,252.28 229.954,204.845 229.954,60.2794 227.697,60.2794 227.697,60.2794 "
     style="fill:#666666;fill-opacity:1;stroke:none"
     id="polygon10"
     transform="scale(0.3164557,0.3164557)" />
  <polygon
     points="29.0232,107.708 227.721,62.5118 227.721,62.5118 227.721,202.619 29.0232,247.815 "
     style="fill:#ffffff;fill-opacity:1;stroke:none"
     id="polygon12"
     transform="scale(0.3164557,0.3164557)" />
  <polygon
     points="38.076,87.5165 26.7908,232.187 220.901,196.019 232.187,51.3491 229.929,51.3491 229.929,51.3491 "
     style="fill:#666666;fill-opacity:1;stroke:none"
     id="polygon14"
     transform="scale(0.3164557,0.3164557)" />
  <polygon
     points="40.2887,89.7375 227.721,55.8139 227.721,55.8139 218.689,193.769 31.2559,229.954 "
     style="fill:url(#linearGradient3756);fill-opacity:1;stroke:none"
     id="polygon16"
     transform="scale(0.3164557,0.3164557)" />
  <polygon
     points="46.9328,100.955 42.4189,245.582 241.043,204.906 247.815,60.2794 245.557,60.2794 245.557,60.2794 "
     style="fill:#666666;fill-opacity:1;stroke:none"
     id="polygon18"
     transform="scale(0.3164557,0.3164557)" />
  <polygon
     points="49.1418,103.178 245.582,64.7442 245.582,64.7442 238.808,202.654 46.8837,243.349 "
     style="fill:url(#linearGradient3748);fill-opacity:1;stroke:none"
     id="polygon20"
     transform="scale(0.3164557,0.3164557)" />
  <polygon
     points="247.498,206.976 285.768,76.0326 283.517,67.0021 276.763,64.7442 143.944,98.6092 143.944,98.6092 132.689,114.413 74.158,130.216 71.907,130.216 69.656,132.474 67.4047,134.731 65.1534,139.247 15.6279,258.902 15.6279,265.675 24.6326,265.675 238.493,216.007 242.996,213.749 245.247,211.491 "
     style="fill:#8c4b28;fill-opacity:1;stroke:none"
     id="polygon22"
     transform="scale(0.3164557,0.3164557)" />
  <polygon
     points="276.8,69.2096 279.051,71.4683 281.303,73.727 243.022,204.739 238.519,209.257 22.3449,261.21 20.0931,261.21 71.8847,139.233 71.8847,136.974 74.1363,134.716 137.187,118.904 146.194,103.092 276.8,69.2096 "
     style="fill:url(#linearGradient3732);fill-opacity:1;stroke:none"
     id="polygon24"
     transform="scale(0.3164557,0.3164557)" />
  <polygon
     points="168.086,194.346 166.855,195.352 165.626,196.433 164.471,197.588 163.316,198.743 162.235,199.972 161.229,201.203 160.298,202.507 159.441,203.811 158.658,205.151 157.95,206.53 157.391,207.946 156.833,209.362 156.348,210.815 155.938,212.305 155.603,213.833 155.342,215.361 155.156,216.963 155.044,218.566 155.081,220.242 155.044,221.844 155.156,223.446 155.342,225.011 155.603,226.576 155.938,228.067 156.348,229.594 156.833,231.047 157.391,232.5 157.95,233.879 158.658,235.258 159.441,236.562 160.298,237.904 161.229,239.17 162.235,240.437 163.316,241.629 164.471,242.859 165.626,243.94 166.855,245.02 168.086,246.026 169.39,246.957 170.694,247.777 172.034,248.56 173.413,249.267 174.83,249.9 176.245,250.422 177.698,250.907 179.188,251.317 180.716,251.652 182.243,251.913 183.846,252.099 185.448,252.211 187.125,252.285 188.728,252.211 190.366,252.099 191.932,251.913 193.497,251.652 194.987,251.317 195.732,251.093 196.105,250.981 196.515,250.907 196.849,250.757 197.222,250.646 197.967,250.422 199.42,249.9 200.091,249.566 200.799,249.267 201.47,248.895 201.619,248.783 201.805,248.709 202.178,248.56 202.476,248.336 202.625,248.224 202.812,248.149 203.482,247.777 204.823,246.957 206.09,246.026 207.357,245.02 208.549,243.94 209.146,243.38 209.779,242.859 210.3,242.226 210.86,241.629 211.94,240.437 212.946,239.17 213.878,237.904 214.697,236.562 215.069,235.891 215.144,235.705 215.256,235.555 215.479,235.258 215.629,234.885 215.703,234.698 215.815,234.55 216.187,233.879 216.486,233.171 216.821,232.5 217.343,231.047 217.566,230.303 217.678,229.929 217.827,229.594 217.901,229.185 218.014,228.812 218.237,228.067 218.572,226.576 218.833,225.011 219.019,223.446 219.057,222.627 219.132,221.844 219.132,221.024 219.132,220.614 219.168,220.242 219.132,218.566 219.019,216.963 218.833,215.361 218.572,213.833 218.237,212.305 217.827,210.815 217.343,209.362 216.821,207.946 216.187,206.53 215.479,205.151 214.697,203.811 213.878,202.507 212.946,201.203 211.94,199.972 210.86,198.743 209.779,197.588 208.549,196.433 207.357,195.352 206.09,194.346 204.823,193.415 203.482,192.558 202.178,191.776 200.799,191.067 199.42,190.509 197.967,189.949 196.515,189.466 194.987,189.056 193.497,188.72 191.932,188.459 190.366,188.273 188.728,188.162 187.125,188.198 187.125,188.198 185.448,188.162 183.846,188.273 182.243,188.459 180.716,188.72 179.188,189.056 177.698,189.466 176.245,189.949 174.83,190.509 173.413,191.067 172.034,191.776 170.694,192.558 169.39,193.415 "
     style="fill:#ff0000;fill-opacity:1;stroke:none"
     id="polygon26"
     transform="scale(0.3164557,0.3164557)" />
  <polygon
     points="209.79,197.54 209.79,242.907 209.79,242.907 164.423,242.907 164.423,197.54 "
     style="fill:#ffffff;fill-opacity:0;stroke:none"
     id="polygon28"
     transform="scale(0.3164557,0.3164557)" />
  <polygon
     points="176.732,208.442 174.622,208.442 174.622,208.442 174.622,215.476 176.732,215.476 "
     style="fill:#444444;fill-opacity:1;stroke:none"
     id="polygon30"
     transform="scale(0.3164557,0.3164557)" />
  <polygon
     points="199.943,208.442 198.184,208.442 198.184,208.442 198.184,215.476 199.943,215.476 "
     style="fill:#444444;fill-opacity:1;stroke:none"
     id="polygon32"
     transform="scale(0.3164557,0.3164557)" />
  <polygon
     points="205.921,223.213 204.163,223.213 204.163,223.213 204.163,233.411 205.921,233.411 "
     style="fill:#444444;fill-opacity:1;stroke:none"
     id="polygon34"
     transform="scale(0.3164557,0.3164557)" />
  <polygon
     points="194.667,223.213 192.557,223.213 192.557,223.213 192.557,233.411 194.667,233.411 "
     style="fill:#444444;fill-opacity:1;stroke:none"
     id="polygon36"
     transform="scale(0.3164557,0.3164557)" />
  <polygon
     points="182.007,223.213 180.249,223.213 180.249,223.213 180.249,233.411 182.007,233.411 "
     style="fill:#444444;fill-opacity:1;stroke:none"
     id="polygon38"
     transform="scale(0.3164557,0.3164557)" />
  <polygon
     points="170.753,223.213 168.643,223.213 168.643,223.213 168.643,233.411 170.753,233.411 "
     style="fill:#444444;fill-opacity:1;stroke:none"
     id="polygon40"
     transform="scale(0.3164557,0.3164557)" />
  <polygon
     points="209.432,224.574 209.79,223.485 209.79,217.314 209.432,216.225 209.074,215.499 208.359,215.136 207.286,214.772 191.192,214.772 191.192,214.772 190.477,215.136 189.404,215.499 189.047,216.225 188.689,217.314 188.689,223.485 189.047,224.574 189.404,225.3 190.477,225.663 191.192,226.026 207.286,226.026 208.359,225.663 209.074,225.3 "
     style="fill:#465900;fill-opacity:1;stroke:none"
     id="polygon42"
     transform="scale(0.3164557,0.3164557)" />
  <polygon
     points="208.728,224.958 208.012,225.323 207.296,225.323 191.183,225.323 190.466,225.323 190.108,224.958 189.75,224.229 189.392,223.499 189.392,223.499 189.392,217.299 189.75,216.57 190.108,216.205 190.466,215.841 191.183,215.476 207.296,215.476 208.012,215.841 208.728,216.205 209.086,216.57 209.086,217.299 209.086,223.499 209.086,224.229 "
     style="fill:url(#linearGradient3708);fill-opacity:1;stroke:none"
     id="polygon44"
     transform="scale(0.3164557,0.3164557)" />
  <polygon
     points="185.518,224.574 185.875,223.485 185.875,217.314 185.518,216.225 185.16,215.499 184.445,215.136 183.372,214.772 167.278,214.772 167.278,214.772 166.205,215.136 165.49,215.499 165.132,216.225 164.775,217.314 164.775,223.485 165.132,224.574 165.49,225.3 166.205,225.663 167.278,226.026 183.372,226.026 184.445,225.663 185.16,225.3 "
     style="fill:#465900;fill-opacity:1;stroke:none"
     id="polygon46"
     transform="scale(0.3164557,0.3164557)" />
  <polygon
     points="184.814,224.958 184.098,225.323 183.382,225.323 167.268,225.323 166.552,225.323 166.194,224.958 165.836,224.229 165.478,223.499 165.478,223.499 165.478,217.299 165.836,216.57 166.194,216.205 166.552,215.841 167.268,215.476 183.382,215.476 184.098,215.841 184.814,216.205 185.172,216.57 185.172,217.299 185.172,223.499 185.172,224.229 "
     style="fill:url(#linearGradient3716);fill-opacity:1;stroke:none"
     id="polygon48"
     transform="scale(0.3164557,0.3164557)" />
  <polygon
     points="174.27,241.103 174.27,240.014 174.27,233.843 174.27,232.754 173.54,232.028 172.809,231.664 172.079,231.301 167.331,231.301 167.331,231.301 166.235,231.664 165.505,232.028 165.14,232.754 164.775,233.843 164.775,240.014 165.14,241.103 165.505,241.829 166.235,242.192 167.331,242.555 172.079,242.555 172.809,242.192 173.54,241.829 "
     style="fill:#4e3966;fill-opacity:1;stroke:none"
     id="polygon50"
     transform="scale(0.3164557,0.3164557)" />
  <polygon
     points="173.199,241.122 172.464,241.487 172.096,241.852 167.316,241.852 166.581,241.487 166.213,241.122 165.846,240.758 165.478,240.028 165.478,240.028 165.478,233.828 165.846,233.099 166.213,232.37 166.581,232.005 167.316,232.005 172.096,232.005 172.464,232.005 173.199,232.37 173.567,233.099 173.567,233.828 173.567,240.028 173.567,240.758 "
     style="fill:url(#linearGradient3676);fill-opacity:1;stroke:none"
     id="polygon52"
     transform="scale(0.3164557,0.3164557)" />
  <polygon
     points="185.51,241.103 185.875,240.014 185.875,233.843 185.51,232.754 185.145,232.028 184.415,231.664 183.319,231.301 178.937,231.301 178.937,231.301 177.841,231.664 177.111,232.028 176.745,232.754 176.38,233.843 176.38,240.014 176.745,241.103 177.111,241.829 177.841,242.192 178.937,242.555 183.319,242.555 184.415,242.192 185.145,241.829 "
     style="fill:#4e3966;fill-opacity:1;stroke:none"
     id="polygon54"
     transform="scale(0.3164557,0.3164557)" />
  <polygon
     points="184.804,241.122 184.069,241.487 183.334,241.852 178.922,241.852 178.186,241.487 177.451,241.122 177.083,240.758 177.083,240.028 177.083,240.028 177.083,233.828 177.083,233.099 177.451,232.37 178.186,232.005 178.922,232.005 183.334,232.005 184.069,232.005 184.804,232.37 185.172,233.099 185.172,233.828 185.172,240.028 185.172,240.758 "
     style="fill:url(#linearGradient3684);fill-opacity:1;stroke:none"
     id="polygon56"
     transform="scale(0.3164557,0.3164557)" />
  <polygon
     points="209.425,241.103 209.79,240.014 209.79,233.843 209.425,232.754 209.059,232.028 208.329,231.664 207.233,231.301 202.851,231.301 202.851,231.301 201.755,231.664 201.025,232.028 200.66,232.754 200.294,233.843 200.294,240.014 200.66,241.103 201.025,241.829 201.755,242.192 202.851,242.555 207.233,242.555 208.329,242.192 209.059,241.829 "
     style="fill:#4e3966;fill-opacity:1;stroke:none"
     id="polygon58"
     transform="scale(0.3164557,0.3164557)" />
  <polygon
     points="208.719,241.122 207.983,241.487 207.248,241.852 202.836,241.852 202.101,241.487 201.733,241.122 201.365,240.758 200.998,240.028 200.998,240.028 200.998,233.828 201.365,233.099 201.733,232.37 202.101,232.005 202.836,232.005 207.248,232.005 207.983,232.005 208.719,232.37 209.086,233.099 209.086,233.828 209.086,240.028 209.086,240.758 "
     style="fill:url(#linearGradient3700);fill-opacity:1;stroke:none"
     id="polygon60"
     transform="scale(0.3164557,0.3164557)" />
  <polygon
     points="198.184,241.103 198.184,240.014 198.184,233.843 198.184,232.754 197.454,232.028 196.723,231.664 195.993,231.301 191.245,231.301 191.245,231.301 190.515,231.664 189.419,232.028 189.054,232.754 188.689,233.843 188.689,240.014 189.054,241.103 189.419,241.829 190.515,242.192 191.245,242.555 195.993,242.555 196.723,242.192 197.454,241.829 "
     style="fill:#4e3966;fill-opacity:1;stroke:none"
     id="polygon62"
     transform="scale(0.3164557,0.3164557)" />
  <polygon
     points="197.113,241.122 196.378,241.487 196.01,241.852 191.231,241.852 190.495,241.487 190.128,241.122 189.76,240.758 189.392,240.028 189.392,240.028 189.392,233.828 189.76,233.099 190.128,232.37 190.495,232.005 191.231,232.005 196.01,232.005 196.378,232.005 197.113,232.37 197.481,233.099 197.481,233.828 197.481,240.028 197.481,240.758 "
     style="fill:url(#linearGradient3692);fill-opacity:1;stroke:none"
     id="polygon64"
     transform="scale(0.3164557,0.3164557)" />
  <polygon
     points="209.438,208.754 209.438,208.03 209.438,200.072 209.438,198.987 208.729,198.264 208.02,197.902 207.311,197.54 167.256,197.54 167.256,197.54 166.547,197.902 165.484,198.264 165.129,198.987 164.775,200.072 164.775,208.03 165.129,208.754 165.484,209.477 166.547,210.201 167.256,210.201 207.311,210.201 208.02,210.201 208.729,209.477 "
     style="fill:#99460d;fill-opacity:1;stroke:none"
     id="polygon66"
     transform="scale(0.3164557,0.3164557)" />
  <polygon
     points="208.377,209.134 208.023,209.497 207.314,209.497 167.251,209.497 166.542,209.497 166.187,209.134 165.833,208.408 165.478,208.045 165.478,208.045 165.478,200.059 165.833,199.333 166.187,198.607 166.542,198.244 167.251,198.244 207.314,198.244 208.023,198.244 208.377,198.607 208.732,199.333 209.086,200.059 209.086,208.045 208.732,208.408 "
     style="fill:url(#linearGradient3724);fill-opacity:1;stroke:none"
     id="polygon68"
     transform="scale(0.3164557,0.3164557)" />
  <polygon
     points="210.752,175.783 210.752,194.604 229.572,194.604 229.572,194.604 224.244,189.274 257.635,155.882 249.735,147.981 216.342,181.373 "
     style="fill:#ff0000;fill-opacity:1;stroke:none"
     id="polygon70"
     transform="scale(0.3164557,0.3164557)" />
  <polygon
     points="282.25,223.155 282.25,211.967 235.04,211.967 235.04,211.967 235.04,204.062 221.738,217.375 235.04,230.687 235.04,223.155 "
     style="fill:#ff0000;fill-opacity:1;stroke:none"
     id="polygon72"
     transform="scale(0.3164557,0.3164557)" />
  <polygon
     points="251.782,291.051 259.683,283.149 226.292,249.757 226.292,249.757 231.621,244.428 212.8,244.428 212.8,263.249 218.39,257.658 "
     style="fill:#ff0000;fill-opacity:1;stroke:none"
     id="polygon74"
     transform="scale(0.3164557,0.3164557)" />
  <polygon
     points="199.432,171.21 191.899,171.21 191.899,124 191.899,124 180.712,124 180.712,171.21 172.807,171.21 186.119,184.512 "
     style="fill:#ff0000;fill-opacity:1;stroke:none"
     id="polygon76"
     transform="scale(0.3164557,0.3164557)" />
  <polygon
     points="143.336,194.604 162.157,194.604 162.157,175.783 162.157,175.783 156.827,181.112 123.435,147.721 115.534,155.621 148.926,189.013 "
     style="fill:#ff0000;fill-opacity:1;stroke:none"
     id="polygon78"
     transform="scale(0.3164557,0.3164557)" />
  <polygon
     points="139.21,222.781 139.21,230.687 152.512,217.375 152.512,217.375 139.21,204.062 139.21,211.594 92,211.594 92,222.781 "
     style="fill:#ff0000;fill-opacity:1;stroke:none"
     id="polygon80"
     transform="scale(0.3164557,0.3164557)" />
  <polygon
     points="191.527,268.79 199.432,268.79 186.119,255.488 186.119,255.488 172.807,268.79 180.34,268.79 180.34,316 191.527,316 "
     style="fill:#ff0000;fill-opacity:1;stroke:none"
     id="polygon82"
     transform="scale(0.3164557,0.3164557)" />
  <polygon
     points="157.013,257.658 162.603,263.249 162.603,244.428 162.603,244.428 143.783,244.428 149.112,249.757 115.721,283.149 123.621,291.051 "
     style="fill:#ff0000;fill-opacity:1;stroke:none"
     id="polygon84"
     transform="scale(0.3164557,0.3164557)" />
</svg>
