<?xml version="1.0"?>
<?metis version="3.0.2"?>
<?metisxml version="1.0"?>
<!DOCTYPE svg  PUBLIC "-//W3C//DTD SVG August 1999//EN"
 "http://www.w3.org/Graphics/SVG/svg-19990812.dtd">

<svg width="200" height="200">
 <title>Symbol library: external_closed.svg</title>
 <defs>
  <symbol id="oid4" xml:space="preserve" class="METIS_SYMBOL">
   <title>Cont_external_open</title>
    <polygon points="8 0 0 8 8 480 
     608 480 616 472 616 0 616 0 
     8 0 8 0 "
     style=" stroke:#000000; stroke-width:1; fill:#ff0000; fill-opacity:100%"></polygon>
    <rect x="0.082483" y="10.4046" width="607.918" height="85"
     style=" stroke:#000000; stroke-width:2; fill:#ffffff; fill-opacity:100%"></rect>
    <rect x="0" y="104.405" width="608" height="375.595"
     style=" stroke:#000000; stroke-width:2; fill:#fffce1; fill-opacity:100%"></rect>
    <g>
      <desc>METIS_TEXT_GROUP</desc>
      <text  x="18" y="28.8"
       style=" stroke:#000000; stroke-width:3; font-family:serif;  font-weight:bold; font-size:16;"
       class="TAG:text">text</text>
      <rect x="18" y="13" width="366" height="80"
       style=" stroke:#000000; stroke-width:1; fill:#ffffff; fill-opacity:0%"></rect>
    </g>
    <polygon points="0 96 608 96 608 104 
     0 104 0 96 0 96 "
     style=" stroke:#000000; stroke-width:2; fill:#ff0000; fill-opacity:100%"></polygon>
    <polyline points="608 8 616 0"
     style=" stroke:#000000; stroke-width:1;"></polyline>
    <image x="384" y="16" width="221.108" height="73.494" id="oid5" xlink:role="owned" xlink:href="external_closed_5.png"></image>
  </symbol>
  <symbol id="oid0" xml:space="preserve" class="METIS_SYMBOL">
   <title>Cont_external_closed</title>
    <rect x="0" y="0" width="432" height="336"
     style=" stroke:#000000; stroke-width:3; fill:#ff4b4b; fill-opacity:100%"></rect>
    <rect x="8" y="8" width="416" height="320"
     style=" stroke:#000000; stroke-width:1; fill:#ffffff; fill-opacity:100%"></rect>
    <g>
      <desc>METIS_TEXT_GROUP</desc>
      <text  x="32" y="229.8"
       style=" stroke:#000000; stroke-width:2; font-family:serif;  font-weight:bold; font-size:22;"
       class="TAG:text">text</text>
      <rect x="32" y="208" width="376" height="88"
       style=" stroke:#000000; stroke-width:1; fill:#ffffff; fill-opacity:0%"></rect>
    </g>
    <image x="16" y="16" width="400" height="160" id="oid3" xlink:role="owned" xlink:href="external_closed_3.png"></image>
  </symbol>
 </defs>
</svg>
