<?xml version="1.0" encoding="UTF-8" standalone="no"?>
<svg id="svg2" xmlns:rdf="http://www.w3.org/1999/02/22-rdf-syntax-ns#" xmlns="http://www.w3.org/2000/svg" enable-background="new 21.152 45.375 219 219" xml:space="preserve" height="219px" width="219px" version="1.1" y="0px" x="0px" xmlns:cc="http://creativecommons.org/ns#" xmlns:xlink="http://www.w3.org/1999/xlink" viewBox="21.152 45.375 219 219" xmlns:dc="http://purl.org/dc/elements/1.1/"><metadata id="metadata324"><rdf:RDF><cc:Work rdf:about=""><dc:format>image/svg+xml</dc:format><dc:type rdf:resource="http://purl.org/dc/dcmitype/StillImage"/><dc:title/></cc:Work></rdf:RDF></metadata>
<defs id="defs4">
<linearGradient id="linearGradient3990" y2="219.12" gradientUnits="userSpaceOnUse" x2="130.59" gradientTransform="translate(-251.47881,-20.415254)" y1="128.07" x1="125.54"><stop id="stop273" stop-color="#FFF" offset="0.2978"/><stop id="stop275" stop-color="#FFF" offset="0.5955"/><stop id="stop277" stop-color="#EEE7E5" offset="0.9045"/></linearGradient><radialGradient id="radialGradient3992" gradientUnits="userSpaceOnUse" cy="94.318" cx="75.525" gradientTransform="matrix(0.8529,0,0,0.8529,-250.05811,19.425646)" r="78.096"><stop id="stop294" stop-color="#FFF" offset="0.1573"/><stop id="stop296" stop-color="#724548" offset="0.8989"/></radialGradient><filter id="filter3998"><feGaussianBlur id="feGaussianBlur4000" stdDeviation="1.597965"/></filter></defs>
<path id="path3149" style="stroke-dasharray:none;" d="M94.291,62.213,80.232,76.271,52.115,48.154,24.49,75.778l28.118,28.118-14.059,14.059h55.742v-55.742z" stroke="#a2541f" stroke-miterlimit="4" stroke-width="1.39523888" fill="#d97b3b"/><path id="path3154" opacity="0.49800001999999999" d="m118.35,93.605c-22.232-0.045-36.746,15.229-35.156,21.312,0.2113,0.80643,0.6099,1.3935,1.0938,1.8438h-45.469c-3.551,0-6.4375,2.8268-6.4375,5.2188v46.344c0,1.8636,0.45942,3.3801,2.5625,4.5312v56.594c0,6.188,5.2118,11.219,11.594,11.219h143.31c6.385,0,11.562-5.0308,11.562-11.219v-57.281c2.653-1.481,2.5625-3.8451,2.5625-5.9688v-45.094c0-2.39-2.8632-4.3438-6.4062-4.3438h-45.875c4.857-3.8495-10.855-23.111-33.344-23.156zm-1.625,6.5c0.61957-0.0143,1.2618-0.01,1.9062,0,17.289,0.261,24.902,7.3508,27.594,11.844,0,0-0.76642,3.3242,0.84375,4.8125h-57.063c0.93455-1.3259,0.22564-4.3659,0.1875-4.5938,0,0,7.3246-11.62,26.531-12.062z" transform="matrix(1.0653539,0,0,1,9.1892677,21.450282)" filter="url(#filter3998)" fill="#000"/><g id="g3973" transform="matrix(1.0653539,0,0,1,260.88663,28.435272)"><path id="path266" fill="#919090" d="m-157.16,102.58c0.922,3.519,5.137,3.346,6.553,2.106,1.282-1.124,0.48-4.601,0.439-4.846,0,0,7.796-12.383,28.419-12.071,17.289,0.261,24.907,7.373,27.599,11.866,0,0-1.53,6.59,4.239,5.358,8.173-1.748-8.115-23.675-32.103-23.723-22.232-0.045-36.736,15.227-35.146,21.31z"/><path id="path268" fill="#7c7c7c" d="m-155.86,101.91c0.724,2.078,3.407,2.376,4.259,1.484,1.05-1.104,0.234-3.827,0.702-4.87,0,0,9.001-13.107,29.196-12.792,15.988,0.248,27.364,9.456,28.641,13.547,0,0-0.813,6.55,3.158,4.529,4.989-2.538-10.814-20.736-31.747-20.843-20.922-0.11-35.513,15.204-34.209,18.945z"/><path id="path270" fill="#8e8682" d="m-38.968,217.12c0,6.188-5.177,11.205-11.562,11.205h-143.31c-6.382,0-11.563-5.017-11.563-11.205v-83.768c0-6.186,5.181-11.206,11.563-11.206h143.31c6.385,0,11.562,5.02,11.562,11.206v83.768z"/><path id="path279" fill="url(#linearGradient3990)" d="m-41.262,215.66c0,5.969-5.035,10.81-11.248,10.81h-139.35c-6.213,0-11.25-4.841-11.25-10.81v-80.843c0-5.97,5.037-10.814,11.25-10.814h139.35c6.213,0,11.248,4.844,11.248,10.814v80.843z"/><path id="path281" fill="#c1c1c1" d="m-43.879,212.98c0,5.685-4.868,10.301-10.882,10.301h-134.86c-6.008,0-10.881-4.616-10.881-10.301v-77.02c0-5.688,4.873-10.302,10.881-10.302h134.86c6.014,0,10.882,4.614,10.882,10.302v77.02z"/><path id="path283" opacity="0.43999999" fill="#8e8682" d="m-54.761,125.66h-28.461c-2.199,26.809,1.345,46.633-18.115,73.572-12.482,21.437-37.742,19.051-53.704,24.05h100.28c6.014,0,10.882-4.616,10.882-10.301v-77.02c0.001-5.688-4.868-10.301-10.881-10.301z"/><path id="path285" fill="#5b5b5b" d="m-40.077,160.36c3.813-1.395,3.688-4.1,3.688-6.49v-45.102c0-2.39-2.878-4.328-6.421-4.328h-158.75c-3.551,0-6.425,2.816-6.425,5.208v46.335c0,2.391,0.708,4.251,4.749,5.438,0,0,28.856,5.11,82.904,5.11,54.052,0.001,80.258-6.171,80.258-6.171z"/><path id="path287" fill="#d8d8d8" d="m-42.708,158.69c3.686-1.301,3.573-3.823,3.573-6.055v-42.072c0-2.23-2.789-4.039-6.221-4.039h-153.67c-3.434,0-6.22,2.627-6.22,4.858v43.224c0,2.232,0.683,3.966,4.596,5.071,0,0,27.933,4.771,80.254,4.771s77.684-5.758,77.684-5.758z"/><path id="path289" opacity="0.6" fill="#5b5b5b" d="m-46.696,107.53h-35.091c-1.584,18.364-2.213,37.001-6.955,54.091,29.984-1.495,44.647-4.694,44.647-4.694,3.623-1.235,3.507-3.622,3.507-5.735v-39.836c0.001-2.114-2.734-3.826-6.108-3.826z"/><path id="path291" fill="#f0f0f0" d="M-46.479,107.2h-149.43c-3.339,0-6.042,1.574-6.042,2.287v2.742c0-0.714,2.703-1.294,6.042-1.294h149.43c3.338,0,6.048,0.58,6.048,1.294v-2.748c-0.09-1.341-2.71-2.281-6.048-2.281z"/><path id="path298" opacity="0.70999995" fill="url(#radialGradient3992)" d="m-202.2,146.62v-34.488h108.22s-91.792-0.93-108.22,34.488z"/><path id="path300" opacity="0.70999995" fill="#a2a2a2" d="m-202.2,146.62v-34.488h108.22s-91.792-0.93-108.22,34.488z"/><path id="path302" fill="#4f4f4f" d="m-110.81,181.98c0,2.87-2.031,5.197-4.537,5.197h-11.91c-2.506,0-4.537-2.327-4.537-5.197v-23.604c0-2.87,2.031-5.197,4.537-5.197h11.91c2.506,0,4.537,2.327,4.537,5.197v23.604z"/><path id="path304" fill="#bcbcbc" d="m-112.25,180.44c0,2.467-1.745,4.465-3.897,4.465h-10.231c-2.153,0-3.897-1.998-3.897-4.465v-20.275c0-2.466,1.744-4.465,3.897-4.465h10.231c2.152,0,3.897,1.999,3.897,4.465v20.275z"/><rect id="rect306" height="4.122" width="20.983" y="173.46" x="-131.79" fill="#4f4f4f"/></g><path id="path4002" style="stroke-dasharray:none;" d="m223.14,117.95-14.059-14.059,28.118-28.118-27.624-27.624-28.118,28.118-14.059-14.059,0,55.742,55.742-0.00001z" stroke="#a2541f" stroke-miterlimit="4" stroke-width="1.39523888" fill="#d97b3b"/></svg>