<?xml version="1.0"?>
<?metis version="3.0"?>
<?metisxml version="1.0"?>
<!DOCTYPE svg  PUBLIC "-//W3C//DTD SVG August 1999//EN"
 "http://www.w3.org/Graphics/SVG/svg-19990812.dtd">

<svg width="200" height="200">
 <title>Symbol library: factors.svg</title>
 <defs>
  <symbol id="oid1" xml:space="preserve" class="METIS_SYMBOL">
   <title>Factors</title>
    <rect x="0.365167" y="0" width="112" height="128"
     style=" stroke:#000000; stroke-width:1; fill:#ffffff; fill-opacity:100%"></rect>
    <polygon points="48.3681 56 65.5014 32 75.9038 48 
     81.105 40 86.3062 48 96.7085 32 107.111 52 
     112.312 64 96.7085 68 70.7027 60 55.099 68 48.3681 56 "
     style=" stroke:#000000; stroke-width:1; fill:#464646; fill-opacity:100%"></polygon>
    <rect x="112.365" y="0" width="256" height="128"
     style=" stroke:#000000; stroke-width:1; fill:#ffa596; fill-opacity:100%"></rect>
    <g>
      <desc>METIS_TEXT_GROUP</desc>
      <text  x="112.365" y="13.5"
       style=" stroke:#000000; stroke-width:1; font-family:sans-serif;  font-size:13;" class="TAG:text"
>text</text>
      <rect x="112.365" y="0" width="256" height="32"
       style=" stroke:#000000; stroke-width:1; fill:#ffffff; fill-opacity:0%"></rect>
    </g>
    <ellipse  cx="16.3652" cy="14" rx="16" ry="14"
     style=" stroke:#000000; stroke-width:1; fill:#fff16f; fill-opacity:100%"></ellipse>
    <path d="M 57.7796 0 C 52.0476 1.97247 49.5939 2.85723 
     47.9648 3.53905 C 46.2135 4.27198 40.9076 4.86422 40.6037 7.0781 
     C 40.3652 8.81481 44.5578 9.66335 45.5111 10.6171 C 46.2647 11.3712 
     46.5181 13.5114 47.9648 14.1562 C 49.9056 15.0212 53.5884 13.8604 
     55.3259 14.1562 C 56.6209 14.3767 58.5789 16 60.2333 15.9257 
     C 62.9009 15.806 65.4656 12.8515 67.5944 12.3867 C 68.7752 12.1288 
     71.2791 12.7519 72.5018 12.3867 C 74.2309 11.8702 76.693 10.0946 
     77.4092 8.84762 C 77.9157 7.96588 78.449 6.26899 77.4092 5.30857 
     C 75.2656 3.32863 69.7757 4.4297 67.5944 3.53905 C 66.8462 3.23356 
     65.8566 2.0886 65.1407 1.76952 C 63.9401 1.23443 62.4 0.925819 
     57.7796 0 Z"
     style=" stroke:#000000; stroke-width:1; fill:#dcdcdc; fill-opacity:100%"></path>
    <path d="M 32.8923 68.0585 C 47.8765 82.5323 57.6649 88.3426 
     72.046 91.2996 C 80.1761 92.9713 93.365 94.0035 103.369 94.0035 
     C 113.783 94.0035 112.861 85.0304 112.301 75.4966 C 112.051 71.2439 
     114.544 65.402 110.618 64.8412 C 106.674 64.2777 93.3325 65.8579 
     88.1857 64.8412 C 82.9373 63.8044 77.5166 62.4827 73.6046 60.9155 
     C 69.7069 59.354 62.1039 63.5248 57.341 62.5979 C 51.2116 61.4051 
     47.9418 55.154 43.8815 53.0641 C 42.7407 52.4769 34.8786 58.1674 
     29.8612 56.429 Z"
     style=" stroke:#000000; stroke-width:1; fill:#5050ff; fill-opacity:100%"></path>
    <g>
      <polygon points="67.5814 106.953 87.5814 106.953 87.5814 86.9527 
       67.5814 86.9527 67.5814 106.953 "
       style=" stroke:#000000; stroke-width:1; fill:#dc0000; fill-opacity:100%"></polygon>
      <polygon points="87.5814 106.953 87.5814 106.953 99.5814 102.953 
       99.5814 84.4527 87.5814 86.9527 87.5814 106.953 "
       style=" stroke:#000000; stroke-width:1; fill:#dc0000; fill-opacity:100%"></polygon>
      <polygon points="79.5814 74.9527 67.5814 86.9527 87.5814 86.9527 79.5814 74.9527 "
       style=" stroke:#000000; stroke-width:1; fill:#464646; fill-opacity:100%"></polygon>
      <polygon points="79.5814 74.9527 91.5814 74.9527 99.5814 84.4527 
       87.5814 86.9527 79.5814 74.9527 "
       style=" stroke:#000000; stroke-width:1; fill:#000000; fill-opacity:100%"></polygon>
      <polygon points="74.5814 106.953 74.5814 106.953 74.5814 100.953 
       81.5814 100.953 81.5814 106.953 74.5814 106.953 "
       style=" stroke:#000000; stroke-width:1; fill:#9b9b9b; fill-opacity:100%"></polygon>
      <polygon points="69.5814 96.4527 69.5814 96.4527 69.5814 90.4527 
       75.0814 90.4527 75.0814 96.4527 69.5814 96.4527 "
       style=" stroke:#000000; stroke-width:1; fill:#9b9b9b; fill-opacity:100%"></polygon>
      <polygon points="90.5814 98.9527 90.5814 94.9527 97.566 92.9527 
       97.5814 96.9527 90.5814 98.9527 "
       style=" stroke:#000000; stroke-width:1; fill:#9b9b9b; fill-opacity:100%"></polygon>
      <polygon points="79.5814 96.4527 79.5814 96.4527 79.5814 90.4527 
       85.0814 90.4527 85.0814 96.4527 79.5814 96.4527 "
       style=" stroke:#000000; stroke-width:1; fill:#9b9b9b; fill-opacity:100%"></polygon>
    </g>
    <path d="M 21.7796 20 C 16.0476 21.9725 13.5939 22.8572 
     11.9647 23.5391 C 10.2134 24.272 4.90761 24.8642 4.60363 27.0781 
     C 4.36517 28.8148 8.55777 29.6634 9.51104 30.6171 C 10.2647 31.3712 
     10.5181 33.5114 11.9647 34.1562 C 13.9056 35.0212 17.5884 33.8604 
     19.3259 34.1562 C 20.6209 34.3767 22.5789 36 24.2333 35.9257 
     C 26.9009 35.806 29.4656 32.8515 31.5944 32.3867 C 32.7752 32.1288 
     35.2791 32.7519 36.5018 32.3867 C 38.2309 31.8702 40.693 30.0946 
     41.4092 28.8476 C 41.9157 27.9659 42.449 26.269 41.4092 25.3086 
     C 39.2656 23.3286 33.7757 24.4297 31.5944 23.5391 C 30.8462 23.2336 
     29.8566 22.0886 29.1407 21.7695 C 27.9401 21.2344 26.4 20.9258 
     21.7796 20 Z"
     style=" stroke:#000000; stroke-width:1; fill:#dcdcdc; fill-opacity:100%"></path>
    <path d="M 65.7796 24 C 60.0476 25.9725 57.5939 26.8572 
     55.9648 27.5391 C 54.2135 28.272 48.9076 28.8642 48.6037 31.0781 
     C 48.3652 32.8148 52.5578 33.6634 53.5111 34.6171 C 54.2647 35.3712 
     54.5181 37.5114 55.9648 38.1562 C 57.9056 39.0212 61.5884 37.8604 
     63.3259 38.1562 C 64.6209 38.3767 66.5789 40 68.2333 39.9257 
     C 70.9009 39.806 73.4656 36.8515 75.5944 36.3867 C 76.7752 36.1288 
     79.2791 36.7519 80.5018 36.3867 C 82.2309 35.8702 84.693 34.0946 
     85.4092 32.8476 C 85.9157 31.9659 86.449 30.269 85.4092 29.3086 
     C 83.2656 27.3286 77.7757 28.4297 75.5944 27.5391 C 74.8462 27.2336 
     73.8566 26.0886 73.1407 25.7695 C 71.9401 25.2344 70.4 24.9258 
     65.7796 24 Z"
     style=" stroke:#000000; stroke-width:1; fill:#dcdcdc; fill-opacity:100%"></path>
    <polygon points="0.365167 56 8.36517 40 16.3652 56 
     20.3652 48 24.3652 56 32.3652 40 40.3652 60 
     44.3652 72 32.3652 76 12.3652 68 0.365167 76 0.365167 56 "
     style=" stroke:#000000; stroke-width:1; fill:#464646; fill-opacity:100%"></polygon>
    <polygon points="14.3652 72 14.3652 72 14.3652 88 
     18.3652 88 18.3652 68 14.3652 68 14.3652 68 14.3652 72 "
     style=" stroke:#000000; stroke-width:1; fill:#9c8d00; fill-opacity:100%"></polygon>
    <path d="M 16.3652 72 C 10.3652 69.2999 8.36517 67.2999 
     8.36517 64 C 8.36517 59.6001 11.9653 56 16.3652 56 
     C 20.7651 56 24.3652 59.6001 24.3652 64 C 24.3652 67.2999 
     22.3652 68.475 16.3652 72 Z"
     style=" stroke:#000000; stroke-width:1; fill:#006e00; fill-opacity:100%"></path>
    <polygon points="22.3652 80 22.3652 80 22.3652 96 
     26.3652 96 26.3652 76 22.3652 76 22.3652 76 22.3652 80 "
     style=" stroke:#000000; stroke-width:1; fill:#9c8d00; fill-opacity:100%"></polygon>
    <path d="M 24.3652 80 C 18.3652 77.2999 16.3652 75.2999 
     16.3652 72 C 16.3652 67.6001 19.9653 64 24.3652 64 
     C 28.7651 64 32.3652 67.6001 32.3652 72 C 32.3652 75.2999 
     30.3652 76.475 24.3652 80 Z"
     style=" stroke:#000000; stroke-width:1; fill:#006e00; fill-opacity:100%"></path>
    <polygon points="35.5611 82.6554 35.5611 82.6554 35.5611 98.6554 
     39.5611 98.6554 39.5611 78.6554 35.5611 78.6554 35.5611 78.6554 35.5611 82.6554 "
     style=" stroke:#000000; stroke-width:1; fill:#9c8d00; fill-opacity:100%"></polygon>
    <path d="M 37.0003 83.2163 C 31.0003 80.5162 29.0003 78.5162 
     29.0003 75.2163 C 29.0003 70.8164 32.6004 67.2163 37.0003 67.2163 
     C 41.4002 67.2163 45.0003 70.8164 45.0003 75.2163 C 45.0003 78.5162 
     43.0003 79.6913 37.0003 83.2163 Z"
     style=" stroke:#000000; stroke-width:1; fill:#006e00; fill-opacity:100%"></path>
    <polygon points="46.926 79.4392 46.926 79.4392 46.926 95.4392 
     50.926 95.4392 50.926 75.4392 46.926 75.4392 46.926 75.4392 46.926 79.4392 "
     style=" stroke:#000000; stroke-width:1; fill:#9c8d00; fill-opacity:100%"></polygon>
    <path d="M 48.926 79.4392 C 42.926 76.7391 40.926 74.7391 
     40.926 71.4392 C 40.926 67.0393 44.5261 63.4392 48.926 63.4392 
     C 53.3259 63.4392 56.926 67.0393 56.926 71.4392 C 56.926 74.7391 
     54.926 75.9142 48.926 79.4392 Z"
     style=" stroke:#000000; stroke-width:1; fill:#006e00; fill-opacity:100%"></path>
    <polygon points="17.7231 94.2839 17.7231 94.2839 17.7231 110.284 
     21.7231 110.284 21.7231 90.2839 17.7231 90.2839 17.7231 90.2839 17.7231 94.2839 "
     style=" stroke:#000000; stroke-width:1; fill:#9c8d00; fill-opacity:100%"></polygon>
    <path d="M 19.7231 94.2839 C 13.7231 91.5838 11.7231 89.5838 
     11.7231 86.2839 C 11.7231 81.884 15.3232 78.2839 19.7231 78.2839 
     C 24.123 78.2839 27.7231 81.884 27.7231 86.2839 C 27.7231 89.5838 
     25.7231 90.7589 19.7231 94.2839 Z"
     style=" stroke:#000000; stroke-width:1; fill:#006e00; fill-opacity:100%"></path>
    <polygon points="32.2096 97.5745 32.2096 97.5745 32.2096 113.575 
     36.2096 113.575 36.2096 93.5745 32.2096 93.5745 32.2096 93.5745 32.2096 97.5745 "
     style=" stroke:#000000; stroke-width:1; fill:#9c8d00; fill-opacity:100%"></polygon>
    <path d="M 34.2096 97.5745 C 28.2096 94.8744 26.2096 92.8744 
     26.2096 89.5745 C 26.2096 85.1746 29.8097 81.5745 34.2096 81.5745 
     C 38.6095 81.5745 42.2096 85.1746 42.2096 89.5745 C 42.2096 92.8744 
     40.2096 94.0495 34.2096 97.5745 Z"
     style=" stroke:#000000; stroke-width:1; fill:#006e00; fill-opacity:100%"></path>
    <polygon points="6 83.7028 6 83.7028 6 99.7028 
     10 99.7028 10 79.7028 6 79.7028 6 79.7028 6 83.7028 "
     style=" stroke:#000000; stroke-width:1; fill:#9c8d00; fill-opacity:100%"></polygon>
    <path d="M 8 83.7028 C 2 81.0027 0 79.0027 
     0 75.7028 C 0 71.3029 3.60008 67.7028 8 67.7028 
     C 12.3999 67.7028 16 71.3029 16 75.7028 C 16 79.0027 
     14 80.1778 8 83.7028 Z"
     style=" stroke:#000000; stroke-width:1; fill:#006e00; fill-opacity:100%"></path>
  </symbol>
 </defs>
</svg>
