<?xml version="1.0"?>
<?metis version="3.1"?>
<?metisxml version="1.0"?>
<!DOCTYPE svg  PUBLIC "-//W3C//DTD SVG August 1999//EN"
 "http://www.w3.org/Graphics/SVG/svg-19990812.dtd">

<svg width="200" height="200">
 <title>Symbol library: female.svg</title>
 <defs>
  <symbol id="oid0" xml:space="preserve" class="METIS_SYMBOL">
   <title>Female</title>
    <rect x="0" y="0" width="48" height="56"
     style=" stroke:#000000; stroke-width:1; fill:#ffffff; fill-opacity:100%"     class="TAG:PictureBackground"></rect>
    <g>
      <ellipse  cx="24.3847" cy="8.76495" rx="5.01636" ry="4.76495"
       style=" stroke:#4b4bff; stroke-width:1; fill:#ffffff; fill-opacity:100%"       class="TAG:Female"></ellipse>
      <polygon points="36.7887 28.6565 35.238 32.3385 27.6407 17.9051 
       27.6407 21.4399 33.4151 37.0468 26.4781 37.0881 26.4781 52 
       22.4661 52 22.4661 37.0881 15.2744 37.0468 21.1287 21.5135 
       21.1287 17.8684 13.5701 32.228 12 28.638 19.2281 14.955 
       29.5778 14.955 36.7887 28.6565 36.7887 28.6565 36.7887 28.6565 "
       style=" stroke:#4b4bff; stroke-width:1; fill:#ffffff; fill-opacity:100%"       class="TAG:Female"></polygon>
    </g>
    <rect x="52" y="4" width="118.543" height="56"
     style=" stroke:#9b9b9b; stroke-width:1; fill:#9b9b9b; fill-opacity:100%"     class="TAG:shadow"></rect>
    <rect x="48" y="0" width="118.543" height="56"
     style=" stroke:#000000; stroke-width:1; fill:#96a5ff; fill-opacity:100%"     class="TAG:canvas"></rect>
    <rect x="49.5434" y="5" width="115" height="45"
     style="stroke:none; fill:#878787; fill-opacity:0%"     class="TAG:grid"></rect>
    <g>
      <desc>METIS_TEXT_GROUP</desc>
      <text  x="50.5434" y="15.8"
       style=" stroke:#000000; stroke-width:1; font-family:sans-serif; font-size:16;"
       class="TAG:text">text</text>
      <rect x="50.5434" y="0" width="117.457" height="56"
       style=" stroke:#000000; stroke-width:1; fill:#ffffff; fill-opacity:0%"></rect>
    </g>
  </symbol>
 </defs>
</svg>
