<?xml version="1.0" encoding="UTF-8" standalone="no"?><svg xmlns:rdf="http://www.w3.org/1999/02/22-rdf-syntax-ns#" xmlns="http://www.w3.org/2000/svg" version="1.1" xml:space="preserve" height="219px" viewBox="21.027 45.083 219 219" width="219px" enable-background="new 21.027 45.083 219 219" y="0px" x="0px" xmlns:cc="http://creativecommons.org/ns#" xmlns:xlink="http://www.w3.org/1999/xlink" xmlns:dc="http://purl.org/dc/elements/1.1/">	<metadata>		<rdf:RDF>			<cc:Work rdf:about="">				<dc:format>image/svg+xml</dc:format>				<dc:type rdf:resource="http://purl.org/dc/dcmitype/StillImage"/>				<dc:title/>			</cc:Work>		</rdf:RDF>	</metadata>	<defs>		<filter id="filter4145-1" color-interpolation-filters="sRGB">			<feGaussianBlur stdDeviation="1.2777221"/>		</filter>		<filter id="filter4102-1" color-interpolation-filters="sRGB">			<feGaussianBlur stdDeviation="1.9852141"/>		</filter>		<radialGradient id="radialGradient3032" gradientUnits="userSpaceOnUse" cy="240.6" cx="129.5" gradientTransform="matrix(0.45924015,0.45923983,-0.46422934,0.46422945,181.14456,69.786912)" r="11.68">			<stop stop-color="#FFF" offset="0"/>			<stop stop-color="#d97b3b" offset="1"/>		</radialGradient>	</defs>	<path d="m136.4,217.5c-3.031-0.0318-5.812,1.188-5.812,1.188s-0.8845,18.15-2.25,19.06c-3.399,2.276-5.658,6.088-5.812,10.44-0.3134-2.63-2.564-4.656-5.281-4.656h-70.09c-2.929,0-5.312,2.384-5.312,5.312,0,2.933,2.385,5.281,5.312,5.281h37.56c0.2336,0.0323,0.4764,0.0312,0.7188,0.0312h24.72c0.2363,0,0.4596-0.00078,0.6875-0.0312h6.344c2.748,0,5.009-2.074,5.281-4.75,0.3766,6.922,6.109,12.47,13.12,12.47,7.254,0,13.12-5.931,13.12-13.19,0-3.521-1.344-6.822-3.844-9.312-0.7499-0.7451-1.581-1.401-2.469-1.938-1.259-0.7658-2-18.84-2-18.84-1.236-0.7672-2.685-1.048-4.062-1.062zm24.41,25.69c-0.1798,0-0.3562,0.0134-0.5312,0.0312h-5.75c-2.931,0-5.312,2.35-5.312,5.281,0,2.93,2.382,5.312,5.312,5.312h70.03c2.931,0,5.312-2.384,5.312-5.312,0-2.931-2.382-5.28-5.312-5.281h-38.28c-0.1746-0.0178-0.352-0.0312-0.5312-0.0312h-24.94z" fill-opacity="0.50196081" filter="url(#filter4145-1)" stroke-miterlimit="4" stroke-width="0" fill="#000"/>	<path d="m118.6,244c0,2.931-2.377,5.307-5.308,5.307h-70.03c-2.928,0-5.304-2.374-5.304-5.307,0-2.929,2.376-5.303,5.304-5.303h70.02c2.931,0,5.308,2.374,5.308,5.303z" stroke="#88471a" stroke-width="2.44279337" fill="#d97b3b"/>	<path d="m225.9,243.7c0,2.929-2.374,5.303-5.306,5.303h-70.02c-2.93,0-5.308-2.373-5.308-5.303,0-2.931,2.377-5.308,5.308-5.308h70.02c2.93,0.001,5.306,2.377,5.306,5.308z" stroke="#88471a" stroke-width="2.44279337" fill="#d97b3b"/>	<path d="M106.3,239h-24.75c-2.868,0-5.196,2.34-5.196,5.208,0,2.867,2.328,5.202,5.196,5.202h24.72c2.879,0,5.207-2.335,5.207-5.202,0-2.868-2.327-5.208-5.207-5.208z" stroke="#88471a" stroke-width="2.44279337" fill="#d97b3b"/>	<path d="m181.8,238.4h-24.92c-2.878,0-5.195,2.34-5.195,5.206,0,2.869,2.316,5.204,5.195,5.204h24.92c2.869,0,5.195-2.335,5.195-5.204,0-2.865-2.327-5.206-5.195-5.206z" stroke="#88471a" stroke-width="2.44279337" fill="#d97b3b"/>	<path d="m126.7,213.9s-0.8941,18.13-2.26,19.05c-3.521,2.358-5.844,6.377-5.844,10.92,0,7.256,5.904,13.17,13.16,13.17,7.254,0,13.14-5.904,13.14-13.16,0-3.521-1.352-6.832-3.852-9.323-0.7499-0.7451-1.577-1.391-2.465-1.927-1.259-0.7658-2.015-18.87-2.015-18.87-3.955-2.455-9.864,0.138-9.864,0.138z" stroke="#88471a" stroke-width="2.44279337" fill="#d97b3b"/>	<path fill="url(#radialGradient3032)" d="m138.1,234.2c3.104,2.098,5.148,5.653,5.148,9.684,0,6.454-5.229,11.68-11.68,11.68-2.418,0-4.666-0.7377-6.532-1.997-3.106-2.097-5.148-5.654-5.148-9.687,0-6.449,5.229-11.68,11.68-11.68,2.42,0.002,4.668,0.7353,6.534,1.996z"/>	<path d="m209.5,54.33h-68.72c-12.06,0-21.83,12.04-21.83,26.91v0.154h-56.72c-12.05,0-21.82,12.05-21.82,26.92v89.36c0,14.85,9.773,26.9,16.59,26.9h147.1c17.28,0,27.04-12.05,27.04-26.9v-116.5c0.001-14.86-9.761-26.91-21.8-26.91z" fill-opacity="0.50196078" transform="matrix(0.97928517,0,0,0.98511635,2.4086252,3.112054)" filter="url(#filter4102-1)" stroke-miterlimit="4" fill="#000"/>	<path d="m202,50.3h-67.3c-11.8,0-21.38,11.86-21.38,26.51v0.1517h-55.4c-11.8,0-21.37,11.86-21.37,26.53v88.02c0,14.63,9.575,26.51,16.24,26.51h144c16.92,0,26.48-11.87,26.48-26.51v-114.6c0-14.63-9.511-26.5-21.29-26.5z" stroke="#cecc5f" stroke-width="3.24324608" fill="#e6e4a6"/>	<path stroke-linejoin="miter" style="enable-background:accumulate;color:#000000;" d="m223.3,77.06c0-15.02-9.548-27.18-21.32-27.18h-67.22c-11.78,0-21.02,11.34-21.02,26.35v0.5123" fill-rule="nonzero" stroke-dashoffset="0" stroke="#bdbb3a" stroke-linecap="butt" stroke-miterlimit="4" stroke-dasharray="none" stroke-width="3.24324608" fill="#d2ce5e"/></svg>