<?xml version="1.0"?>
<?metis version="3.1"?>
<?metisxml version="1.0"?>
<!DOCTYPE svg  PUBLIC "-//W3C//DTD SVG August 1999//EN"
 "http://www.w3.org/Graphics/SVG/svg-19990812.dtd">

<svg width="200" height="200">
 <title>Symbol library: file_document.svg</title>
 <defs>
  <symbol id="oid0" xml:space="preserve" class="METIS_SYMBOL">
   <title>File Document</title>
    <g>
      <polygon points="0 0 0 288 20.093 303.75 
       864 303.75 864 20.25 848 0 0 0 "
       style=" stroke:#000000; stroke-width:1; fill:#9b9b9b; fill-opacity:100%"       class="TAG:shadow"></polygon>
      <rect x="0" y="0" width="241.116" height="288"
       style=" stroke:#000000; stroke-width:1; fill:#ffffff; fill-opacity:100%"       class="TAG:PictureBackgrund"></rect>
      <g>
	<polygon points="62.5114 20.25 200.93 20.25 200.93 263.25 
	 40.186 263.25 40.186 48.484 62.5114 20.25 62.5114 20.25 
	 62.5114 20.25 62.5114 20.25 "
	 style=" stroke:#878787; stroke-width:1; fill:#ffffff; fill-opacity:100%"	 class="TAG:Paper"></polygon>
	<polygon points="62.5114 48.484 40.186 48.484 62.5114 20.25 
	 62.5114 48.484 62.5114 48.484 62.5114 48.484 62.5114 48.484 "
	 style=" stroke:#878787; stroke-width:1; fill:#dcdcdc; fill-opacity:100%"	 class="TAG:FoldedCorner"></polygon>
	<polyline points="71.9707 73.2518 176.278 73.2518"
	 style=" stroke:#dcdcdc; stroke-width:1;"	 class="TAG:TextLines"></polyline>
	<polyline points="71.2252 98.7031 175.533 98.7031"
	 style=" stroke:#dcdcdc; stroke-width:1;"	 class="TAG:TextLines"></polyline>
	<polyline points="73.4601 129.811 177.767 129.811"
	 style=" stroke:#dcdcdc; stroke-width:1;"	 class="TAG:TextLines"></polyline>
	<polyline points="71.2252 162.802 175.533 162.802"
	 style=" stroke:#dcdcdc; stroke-width:1;"	 class="TAG:TextLines"></polyline>
	<polyline points="74.9505 188.254 179.258 188.254"
	 style=" stroke:#dcdcdc; stroke-width:1;"	 class="TAG:TextLines"></polyline>
	<polyline points="72.7146 221.245 177.023 221.245"
	 style=" stroke:#dcdcdc; stroke-width:1;"	 class="TAG:TextLines"></polyline>
	<g>
	  <rect x="89.9404" y="65.4242" width="61.236" height="45.1744"
	   style=" stroke:#000000; stroke-width:1; fill:#00dc00; fill-opacity:100%"	   class="TAG:directory"></rect>
	  <rect x="130.764" y="155.773" width="61.236" height="45.1744"
	   style=" stroke:#000000; stroke-width:1; fill:#00dc00; fill-opacity:100%"	   class="TAG:directory"></rect>
	  <rect x="49.1162" y="155.773" width="61.236" height="45.1744"
	   style=" stroke:#000000; stroke-width:1; fill:#00dc00; fill-opacity:100%"	   class="TAG:directory"></rect>
	  <polyline points="120.558 110.599 120.558 133.186 79.7336 133.186 
	   79.7336 155.773"
	   style=" stroke:#000000; stroke-width:1;"></polyline>
	  <polyline points="120.558 110.599 120.558 133.186 161.383 133.186 
	   161.383 155.773"
	   style=" stroke:#000000; stroke-width:1;"></polyline>
	</g>
      </g>
      <rect x="241.116" y="0" width="606.884" height="288"
       style=" stroke:#000000; stroke-width:1; fill:#b9b9b9; fill-opacity:100%"       class="TAG:canvas"></rect>
      <rect x="248.869" y="25.3125" width="577.674" height="227.813"
       style="stroke:none; fill:#878787; fill-opacity:0%"       class="TAG:grid"></rect>
      <g>
	<desc>METIS_TEXT_GROUP</desc>
	<text  x="253.892" y="15.8"
	 style=" stroke:#000000; stroke-width:1; font-family:sans-serif; font-size:16;"
	 class="TAG:text">text</text>
	<rect x="253.892" y="0" width="594.108" height="283.5"
	 style=" stroke:#000000; stroke-width:1; fill:#ffffff; fill-opacity:0%"></rect>
      </g>
      <polyline points="848 288 864 303.75"
       style=" stroke:#000000; stroke-width:1;"></polyline>
    </g>
  </symbol>
 </defs>
</svg>
