<?xml version="1.0" encoding="UTF-8" standalone="no"?>
<svg id="svg4827" 
	xmlns:rdf="http://www.w3.org/1999/02/22-rdf-syntax-ns#" 
	xmlns="http://www.w3.org/2000/svg" 

	xmlns:cc="http://creativecommons.org/ns#" 
	xmlns:xlink="http://www.w3.org/1999/xlink" 
	xmlns:dc="http://purl.org/dc/elements/1.1/"
	
	version="1.1" 	
	x="0px"
	y="0px"
	width="219px"
	height="219px"
	viewBox="0 0 219 219"
	enable-background="new 0 0 219 219"
	>

 <defs id="defs3917">
  <filter id="filter3888" color-interpolation-filters="sRGB">
   <feGaussianBlur id="feGaussianBlur3890" stdDeviation="2.7006865"/>
  </filter>
 </defs>
 <metadata id="metadata3920">
  <rdf:RDF>
   <cc:Work rdf:about="">
    <dc:format>image/svg+xml</dc:format>
    <dc:type rdf:resource="http://purl.org/dc/dcmitype/StillImage"/>
    <dc:title/>
   </cc:Work>
  </rdf:RDF>
 </metadata>
 <g id="layer1" transform="translate(0,-833.36218)">
  <path id="path3098" opacity="0.5" d="m159.11,56.346-83.103,0c-9.5618,0-17.313,8.1688-17.313,18.247v166.76c0,10.076,7.7508,18.246,17.313,18.246h121.66c9.5588,0,17.311-8.1688,17.311-18.246l0.55499-146.1-56.422-38.909z" transform="matrix(1,0,0,1.0075368,-19.31061,786.35748)" filter="url(#filter3888)" fill="#000"/>
  <path id="path276" d="m131.8,837.08-83.103,0c-9.5618,0-17.313,8.2304-17.313,18.384v168.02c0,10.152,7.7508,18.383,17.313,18.383h121.66c9.5588,0,17.311-8.2304,17.311-18.383l0.55499-147.2-56.422-39.202z" stroke="#b5b5b5" stroke-width="3.11404014" fill="#f2f2f2"/>
  <path id="path284" d="m187.12,878.49-38.669,0c-10.384,0-18.802-10.569-18.802-23.607v-16.366" stroke="#b5b5b5" stroke-width="3.23591542" fill="#f2f2f2"/>
 </g>
</svg>