<?xml version="1.0"?>
<?metis version="3.0.1"?>
<?metisxml version="1.0"?>
<!DOCTYPE svg  PUBLIC "-//W3C//DTD SVG August 1999//EN"
 "http://www.w3.org/Graphics/SVG/svg-19990812.dtd">

<svg width="200" height="200">
 <title>Symbol library: fin_atm.svg</title>
 <defs>
  <symbol id="oid0" xml:space="preserve" class="METIS_SYMBOL">
    <g>
      <desc>METIS_TEXT_GROUP</desc>
      <text  x="0" y="78.944"
       style=" stroke:#000000; stroke-width:1; font-family:sans-serif; font-size:10; text-align:center"
       class="TAG:text">text</text>
      <rect x="0" y="69.144" width="110.667" height="33.5227"
       style=" stroke:#000000; stroke-width:1; fill:#000000; fill-opacity:0%"></rect>
    </g>
    <g>
      <polygon points="52.3942 0.161341 52.3942 0.161341 94.2222 0.161341 
       94.2222 48.1079 82.458 66.1147 25.3952 66.1147 25.4178 59.8795 
       25.4178 54.7193 25.9361 47.4091 26.77 40.6364 27.6715 33.3261 
       29.249 25.8009 31.2774 17.2006 33.1253 11.0192 35.4241 5.85903 52.3942 0.161341 "
       style=" stroke:#000000; stroke-width:1; fill:#00a500; fill-opacity:100%"       class="TAG:polygon"></polygon>
      <polygon points="68.0628 52.6097 30.2012 52.6097 27.1362 58.1999 
       27.1812 52.3947 27.9024 42.5043 29.7053 32.184 31.5083 24.2287 
       33.1309 17.2947 34.8437 12.7795 38.089 10.7369 44.1288 9.4469 
       55.3971 9.23189 68.1078 9.33939 71.5334 9.6619 73.6969 11.0595 
       74.2378 13.0484 72.7954 19.4986 71.894 26.8088 70.8122 33.689 
       69.7304 41.2143 69.0093 46.3745 68.2881 52.3947 68.0628 52.6097 "
       style=" stroke:#000000; stroke-width:1; fill:#00a500; fill-opacity:100%"       class="TAG:polygon"></polygon>
      <polygon points="30.2012 52.6097 68.0628 52.6097 68.9643 46.1595 
       70.2263 36.6991 71.9841 26.8088 72.7954 20.4661 73.8322 15.1984 
       37.0524 15.1984 35.0691 22.2937 32.7253 31.969 31.1027 42.0743 30.2012 52.6097 "
       style=" stroke:#000000; stroke-width:1; fill:#00a500; fill-opacity:100%"       class="TAG:polygon"></polygon>
      <polyline points="34.7536 13.102 34.7536 13.102 36.9171 15.3596"
       style=" stroke:#000000; stroke-width:1;"       class="TAG:polyline"></polyline>
      <polyline points="25.4234 59.7049 25.4234 59.7049"
       style=" stroke:#000000; stroke-width:1;"       class="TAG:polyline"></polyline>
      <polygon points="72.5701 43.3644 72.5701 43.3644 72.0293 46.8045 
       82.1257 46.8045 82.306 43.3644 72.5701 43.3644 "
       style=" stroke:#000000; stroke-width:1; fill:#00a500; fill-opacity:100%"       class="TAG:polygon"></polygon>
      <polyline points="82.4863 59.9199 25.3333 59.9199"
       style=" stroke:#000000; stroke-width:1;"       class="TAG:polyline"></polyline>
      <polyline points="68.2431 18.4235 64.6372 41.8593 37.9538 41.8593 
       42.2809 18.2085 68.2431 18.2085"
       style=" stroke:#000000; stroke-width:1;"       class="TAG:polyline"></polyline>
      <polyline points="30.2012 52.6097 30.2012 52.6097 27.1362 58.1999"
       style=" stroke:#000000; stroke-width:1;"       class="TAG:polyline"></polyline>
      <polygon points="41.9203 43.7944 41.1765 46.2131 40.1848 47.9332 
       57.6058 47.8795 59.0481 43.7944 41.9203 43.7944 "
       style=" stroke:#000000; stroke-width:1; fill:#00a500; fill-opacity:100%"       class="TAG:polygon"></polygon>
      <polygon points="32.7253 56.6948 61.392 56.6948 62.2934 53.6847 
       34.348 53.6847 32.7253 56.6948 "
       style=" stroke:#000000; stroke-width:1; fill:#00a500; fill-opacity:100%"       class="TAG:polygon"></polygon>
      <polyline points="41.0188 45.9444 41.0188 45.9444 58.327 45.9444"
       style=" stroke:#000000; stroke-width:1;"       class="TAG:polyline"></polyline>
      <polygon points="44.3542 55.6198 44.3542 55.6198 49.7179 55.6198 
       49.4024 57.3398 43.1372 57.3398 44.3542 55.6198 "
       style=" stroke:#000000; stroke-width:1; fill:#00a500; fill-opacity:100%"       class="TAG:polygon"></polygon>
      <polygon points="78.7001 12.8333 78.7001 12.8333 77.2578 17.7785 
       75.8154 28.3139 81.7651 28.3139 83.0271 17.7785 84.2892 13.0484 78.7001 12.8333 "
       style=" stroke:#000000; stroke-width:1; fill:#00a500; fill-opacity:100%"       class="TAG:polygon"></polygon>
      <polygon points="74.5534 30.6789 74.5534 30.6789 82.8468 30.6789 
       82.306 35.6241 74.0125 35.6241 74.5534 30.6789 "
       style=" stroke:#000000; stroke-width:1; fill:#00a500; fill-opacity:100%"       class="TAG:polygon"></polygon>
      <polyline points="74.0125 12.4033 74.0125 12.4033 74.7337 8.74821 
       88.6162 8.74821 85.5512 20.3586 83.568 31.754 82.1257 45.0844 
       81.4045 54.9747 81.2242 58.1999 68.0628 58.1999"
       style=" stroke:#000000; stroke-width:1;"       class="TAG:polyline"></polyline>
      <polyline points="27.1362 58.1999 27.1362 58.1999 68.0628 58.1999"
       style=" stroke:#000000; stroke-width:1;"       class="TAG:polyline"></polyline>
      <polyline points="68.2431 52.6097 68.2431 52.6097 68.0628 54.7597 
       80.8636 54.7597"
       style=" stroke:#000000; stroke-width:1;"       class="TAG:polyline"></polyline>
      <polyline points="78.7001 13.0484 78.7001 13.0484 79.241 16.9185 
       77.0775 18.6385"
       style=" stroke:#000000; stroke-width:1;"       class="TAG:polyline"></polyline>
      <polyline points="79.241 16.4885 79.241 16.4885 83.3877 16.4885"
       style=" stroke:#000000; stroke-width:1;"       class="TAG:polyline"></polyline>
      <polyline points="79.241 16.7035 79.241 16.7035 83.3877 16.7035"
       style=" stroke:#000000; stroke-width:1;"       class="TAG:polyline"></polyline>
      <polyline points="79.241 16.9185 79.241 16.9185 83.3877 16.9185"
       style=" stroke:#000000; stroke-width:1;"       class="TAG:polyline"></polyline>
      <polyline points="76.8972 18.8535 76.8972 18.8535 83.0271 18.8535"
       style=" stroke:#000000; stroke-width:1;"       class="TAG:polyline"></polyline>
      <polyline points="42.7033 18.3294 42.7033 18.3294 38.3313 41.7652"
       style=" stroke:#000000; stroke-width:1;"       class="TAG:polyline"></polyline>
      <polyline points="43.1091 18.4369 43.1091 18.4369 38.7369 41.8727"
       style=" stroke:#000000; stroke-width:1;"       class="TAG:polyline"></polyline>
      <polyline points="43.5598 18.2219 43.5598 18.2219 39.1876 41.6577"
       style=" stroke:#000000; stroke-width:1;"       class="TAG:polyline"></polyline>
      <polyline points="44.1007 18.2756 44.1007 18.2756 39.7285 41.7114"
       style=" stroke:#000000; stroke-width:1;"       class="TAG:polyline"></polyline>
      <polyline points="44.5964 18.3294 44.5964 18.3294 40.2244 41.7652"
       style=" stroke:#000000; stroke-width:1;"       class="TAG:polyline"></polyline>
      <polyline points="45.1373 18.2756 45.1373 18.2756 40.7652 41.7114"
       style=" stroke:#000000; stroke-width:1;"       class="TAG:polyline"></polyline>
      <polyline points="45.6332 18.2756 45.6332 18.2756 41.261 41.7114"
       style=" stroke:#000000; stroke-width:1;"       class="TAG:polyline"></polyline>
      <polyline points="46.174 18.2756 46.174 18.2756 41.8019 41.7114"
       style=" stroke:#000000; stroke-width:1;"       class="TAG:polyline"></polyline>
      <polyline points="46.7149 18.3294 46.7149 18.3294 42.3427 41.7652"
       style=" stroke:#000000; stroke-width:1;"       class="TAG:polyline"></polyline>
      <polyline points="47.2107 18.2756 47.2107 18.2756 42.8386 41.7114"
       style=" stroke:#000000; stroke-width:1;"       class="TAG:polyline"></polyline>
      <polyline points="47.7065 18.3831 47.7065 18.3831 43.3344 41.8189"
       style=" stroke:#000000; stroke-width:1;"       class="TAG:polyline"></polyline>
      <polyline points="48.2474 18.3831 48.2474 18.3831 43.8752 41.8189"
       style=" stroke:#000000; stroke-width:1;"       class="TAG:polyline"></polyline>
      <polyline points="49.1939 18.3294 49.1939 18.3294 44.8218 41.7652"
       style=" stroke:#000000; stroke-width:1;"       class="TAG:polyline"></polyline>
      <polyline points="48.6982 18.3831 48.6982 18.3831 44.326 41.8189"
       style=" stroke:#000000; stroke-width:1;"       class="TAG:polyline"></polyline>
      <polyline points="49.6898 18.3831 49.6898 18.3831 45.3176 41.8189"
       style=" stroke:#000000; stroke-width:1;"       class="TAG:polyline"></polyline>
      <polyline points="50.2306 18.3831 50.2306 18.3831 45.8585 41.8189"
       style=" stroke:#000000; stroke-width:1;"       class="TAG:polyline"></polyline>
      <polyline points="50.7264 18.2756 50.7264 18.2756 46.3543 41.7114"
       style=" stroke:#000000; stroke-width:1;"       class="TAG:polyline"></polyline>
      <polyline points="51.1771 18.2756 51.1771 18.2756 46.8051 41.7114"
       style=" stroke:#000000; stroke-width:1;"       class="TAG:polyline"></polyline>
      <polyline points="51.6278 18.3831 51.6278 18.3831 47.2558 41.8189"
       style=" stroke:#000000; stroke-width:1;"       class="TAG:polyline"></polyline>
      <polyline points="52.1687 18.2756 52.1687 18.2756 47.7967 41.7114"
       style=" stroke:#000000; stroke-width:1;"       class="TAG:polyline"></polyline>
      <polyline points="52.7096 18.2756 52.7096 18.2756 48.3376 41.7114"
       style=" stroke:#000000; stroke-width:1;"       class="TAG:polyline"></polyline>
      <polyline points="53.1603 18.3294 53.1603 18.3294 48.7883 41.7652"
       style=" stroke:#000000; stroke-width:1;"       class="TAG:polyline"></polyline>
      <polyline points="53.7012 18.3294 53.7012 18.3294 49.3292 41.7652"
       style=" stroke:#000000; stroke-width:1;"       class="TAG:polyline"></polyline>
      <polyline points="54.152 18.4369 54.152 18.4369 49.7799 41.8727"
       style=" stroke:#000000; stroke-width:1;"       class="TAG:polyline"></polyline>
      <polyline points="54.6478 18.2756 54.6478 18.2756 50.2756 41.7114"
       style=" stroke:#000000; stroke-width:1;"       class="TAG:polyline"></polyline>
      <polyline points="55.0986 18.3294 55.0986 18.3294 50.7264 41.7652"
       style=" stroke:#000000; stroke-width:1;"       class="TAG:polyline"></polyline>
      <polyline points="55.5493 18.2756 55.5493 18.2756 51.1771 41.7114"
       style=" stroke:#000000; stroke-width:1;"       class="TAG:polyline"></polyline>
      <polyline points="55.9549 18.2219 55.9549 18.2219 51.5828 41.6577"
       style=" stroke:#000000; stroke-width:1;"       class="TAG:polyline"></polyline>
      <polyline points="56.4056 18.2219 56.4056 18.2219 52.0336 41.6577"
       style=" stroke:#000000; stroke-width:1;"       class="TAG:polyline"></polyline>
      <polyline points="56.7662 18.2219 56.7662 18.2219 52.3942 41.6577"
       style=" stroke:#000000; stroke-width:1;"       class="TAG:polyline"></polyline>
      <polyline points="57.1268 18.2219 57.1268 18.2219 52.7548 41.6577"
       style=" stroke:#000000; stroke-width:1;"       class="TAG:polyline"></polyline>
      <polyline points="57.4874 18.2219 57.4874 18.2219 53.1153 41.6577"
       style=" stroke:#000000; stroke-width:1;"       class="TAG:polyline"></polyline>
      <polyline points="57.9381 18.2219 57.9381 18.2219 53.5661 41.6577"
       style=" stroke:#000000; stroke-width:1;"       class="TAG:polyline"></polyline>
      <polyline points="58.3438 18.2219 58.3438 18.2219 53.9717 41.6577"
       style=" stroke:#000000; stroke-width:1;"       class="TAG:polyline"></polyline>
      <polyline points="58.7494 18.2219 58.7494 18.2219 54.3774 41.6577"
       style=" stroke:#000000; stroke-width:1;"       class="TAG:polyline"></polyline>
      <polyline points="59.2002 18.2219 59.2002 18.2219 54.8281 41.6577"
       style=" stroke:#000000; stroke-width:1;"       class="TAG:polyline"></polyline>
      <polyline points="59.696 18.2219 59.696 18.2219 55.3239 41.6577"
       style=" stroke:#000000; stroke-width:1;"       class="TAG:polyline"></polyline>
      <polyline points="60.1918 18.2219 60.1918 18.2219 55.8197 41.6577"
       style=" stroke:#000000; stroke-width:1;"       class="TAG:polyline"></polyline>
      <polyline points="60.6425 18.2219 60.6425 18.2219 56.2705 41.6577"
       style=" stroke:#000000; stroke-width:1;"       class="TAG:polyline"></polyline>
      <polyline points="61.0932 18.2756 61.0932 18.2756 56.7212 41.7114"
       style=" stroke:#000000; stroke-width:1;"       class="TAG:polyline"></polyline>
      <polyline points="61.544 18.2219 61.544 18.2219 57.1719 41.6577"
       style=" stroke:#000000; stroke-width:1;"       class="TAG:polyline"></polyline>
      <polyline points="61.9046 18.2219 61.9046 18.2219 57.5325 41.6577"
       style=" stroke:#000000; stroke-width:1;"       class="TAG:polyline"></polyline>
      <polyline points="62.2651 18.2219 62.2651 18.2219 57.8931 41.6577"
       style=" stroke:#000000; stroke-width:1;"       class="TAG:polyline"></polyline>
      <polyline points="62.5356 18.3294 62.5356 18.3294 58.1635 41.7652"
       style=" stroke:#000000; stroke-width:1;"       class="TAG:polyline"></polyline>
      <polyline points="62.9863 18.3294 62.9863 18.3294 58.6143 41.7652"
       style=" stroke:#000000; stroke-width:1;"       class="TAG:polyline"></polyline>
      <polyline points="63.3921 18.4369 63.3921 18.4369 59.0199 41.8727"
       style=" stroke:#000000; stroke-width:1;"       class="TAG:polyline"></polyline>
      <polyline points="63.7976 18.3831 63.7976 18.3831 59.4256 41.8189"
       style=" stroke:#000000; stroke-width:1;"       class="TAG:polyline"></polyline>
      <polyline points="64.2935 18.3831 64.2935 18.3831 59.9213 41.8189"
       style=" stroke:#000000; stroke-width:1;"       class="TAG:polyline"></polyline>
      <polyline points="64.6541 18.5445 64.6541 18.5445 60.2819 41.9802"
       style=" stroke:#000000; stroke-width:1;"       class="TAG:polyline"></polyline>
      <polyline points="65.1498 18.3831 65.1498 18.3831 60.7778 41.8189"
       style=" stroke:#000000; stroke-width:1;"       class="TAG:polyline"></polyline>
      <polyline points="66.0513 18.3294 66.0513 18.3294 61.6793 41.7652"
       style=" stroke:#000000; stroke-width:1;"       class="TAG:polyline"></polyline>
      <polyline points="66.9528 18.3294 66.9528 18.3294 62.5807 41.7652"
       style=" stroke:#000000; stroke-width:1;"       class="TAG:polyline"></polyline>
      <polyline points="67.8542 18.2756 67.8542 18.2756 63.4822 41.7114"
       style=" stroke:#000000; stroke-width:1;"       class="TAG:polyline"></polyline>
      <polyline points="68.26 18.2219 68.26 18.2219 63.8878 41.6577"
       style=" stroke:#000000; stroke-width:1;"       class="TAG:polyline"></polyline>
      <polyline points="67.4487 18.2219 67.4487 18.2219 63.0765 41.6577"
       style=" stroke:#000000; stroke-width:1;"       class="TAG:polyline"></polyline>
      <polyline points="66.5472 18.2756 66.5472 18.2756 62.175 41.7114"
       style=" stroke:#000000; stroke-width:1;"       class="TAG:polyline"></polyline>
      <polyline points="65.5556 18.3294 65.5556 18.3294 61.1834 41.7652"
       style=" stroke:#000000; stroke-width:1;"       class="TAG:polyline"></polyline>
      <polyline points="64.316 41.7652 66.074 31.9286"
       style=" stroke:#000000; stroke-width:1;"       class="TAG:polyline"></polyline>
      <polygon points="56.0677 24.7797 56.0677 24.7797 42.8611 35.1537 
       42.0048 39.9913 56.0677 24.7797 "
       style=" stroke:#000000; stroke-width:1; fill:#00a500; fill-opacity:100%"       class="TAG:polygon"></polygon>
      <polygon points="60.0115 26.6072 60.0115 26.6072 58.0283 29.2948 
       60.1016 31.5524 62.7159 28.1123 60.0115 26.6072 "
       style=" stroke:#000000; stroke-width:1; fill:#00a500; fill-opacity:100%"       class="TAG:polygon"></polygon>
      <polyline points="82.413 59.772 82.413 59.772 82.413 66.2222"
       style=" stroke:#000000; stroke-width:1;"       class="TAG:polyline"></polyline>
      <polyline points="90.436 5.37518 90.436 5.37518 94.2222 0"
       style=" stroke:#000000; stroke-width:1;"       class="TAG:polyline"></polyline>
      <polyline points="35.3113 5.9127 35.3113 5.9127 37.0241 5.48268 
       90.3909 5.48268 88.7683 12.5779 86.6949 21.6082 84.7117 33.2186 
       83.4496 44.5065 82.7284 53.9668 82.3678 59.8795"
       style=" stroke:#000000; stroke-width:1;"       class="TAG:polyline"></polyline>
    </g>
  </symbol>
 </defs>
</svg>
