<?xml version="1.0" encoding="UTF-8" standalone="no"?>

<svg
 xmlns:dc="http://purl.org/dc/elements/1.1/"
   xmlns:cc="http://creativecommons.org/ns#"
   xmlns:rdf="http://www.w3.org/1999/02/22-rdf-syntax-ns#"
   xmlns:svg="http://www.w3.org/2000/svg"
   xmlns="http://www.w3.org/2000/svg"
   xmlns:xlink="http://www.w3.org/1999/xlink"
   xmlns:sodipodi="http://sodipodi.sourceforge.net/DTD/sodipodi-0.dtd"
   xmlns:inkscape="http://www.inkscape.org/namespaces/inkscape"
   id="svg2"
   version="1.1"
   inkscape:version="0.47 r22583"
   width="100"
   height="100"
   sodipodi:docname="financialcomponent.svg">
  <metadata
     id="metadata76">
    <rdf:RDF>
      <cc:Work
         rdf:about="">
        <dc:format>image/svg+xml</dc:format>
        <dc:type
           rdf:resource="http://purl.org/dc/dcmitype/StillImage" />
      </cc:Work>
    </rdf:RDF>
  </metadata>
  <defs
     id="defs74">
    <inkscape:perspective
       sodipodi:type="inkscape:persp3d"
       inkscape:vp_x="0 : 503.905 : 1"
       inkscape:vp_y="0 : 1000 : 0"
       inkscape:vp_z="1007.81 : 503.905 : 1"
       inkscape:persp3d-origin="503.905 : 335.93667 : 1"
       id="perspective4175" />
    <linearGradient
       inkscape:collect="always"
       id="linearGradient3768">
      <stop
         style="stop-color:#ffda3b;stop-opacity:1;"
         offset="0"
         id="stop3770" />
      <stop
         style="stop-color:#ffda3b;stop-opacity:0;"
         offset="1"
         id="stop3772" />
    </linearGradient>
    <linearGradient
       inkscape:collect="always"
       id="linearGradient3760">
      <stop
         style="stop-color:#ffda3b;stop-opacity:1;"
         offset="0"
         id="stop3762" />
      <stop
         style="stop-color:#ffda3b;stop-opacity:0;"
         offset="1"
         id="stop3764" />
    </linearGradient>
    <linearGradient
       inkscape:collect="always"
       id="linearGradient3752">
      <stop
         style="stop-color:#a56d2f;stop-opacity:1;"
         offset="0"
         id="stop3754" />
      <stop
         style="stop-color:#a56d2f;stop-opacity:0;"
         offset="1"
         id="stop3756" />
    </linearGradient>
    <linearGradient
       inkscape:collect="always"
       id="linearGradient3744">
      <stop
         style="stop-color:#a56d2f;stop-opacity:1;"
         offset="0"
         id="stop3746" />
      <stop
         style="stop-color:#a56d2f;stop-opacity:0;"
         offset="1"
         id="stop3748" />
    </linearGradient>
    <linearGradient
       inkscape:collect="always"
       id="linearGradient3736">
      <stop
         style="stop-color:#d89432;stop-opacity:1;"
         offset="0"
         id="stop3738" />
      <stop
         style="stop-color:#d89432;stop-opacity:0;"
         offset="1"
         id="stop3740" />
    </linearGradient>
    <linearGradient
       inkscape:collect="always"
       id="linearGradient3728">
      <stop
         style="stop-color:#d89432;stop-opacity:1;"
         offset="0"
         id="stop3730" />
      <stop
         style="stop-color:#d89432;stop-opacity:0;"
         offset="1"
         id="stop3732" />
    </linearGradient>
    <linearGradient
       inkscape:collect="always"
       id="linearGradient3720">
      <stop
         style="stop-color:#ffda3b;stop-opacity:1;"
         offset="0"
         id="stop3722" />
      <stop
         style="stop-color:#ffda3b;stop-opacity:0;"
         offset="1"
         id="stop3724" />
    </linearGradient>
    <linearGradient
       inkscape:collect="always"
       id="linearGradient3712">
      <stop
         style="stop-color:#a56d2f;stop-opacity:1;"
         offset="0"
         id="stop3714" />
      <stop
         style="stop-color:#a56d2f;stop-opacity:0;"
         offset="1"
         id="stop3716" />
    </linearGradient>
    <linearGradient
       inkscape:collect="always"
       id="linearGradient3704">
      <stop
         style="stop-color:#d89432;stop-opacity:1;"
         offset="0"
         id="stop3706" />
      <stop
         style="stop-color:#d89432;stop-opacity:0;"
         offset="1"
         id="stop3708" />
    </linearGradient>
    <linearGradient
       inkscape:collect="always"
       id="linearGradient3696">
      <stop
         style="stop-color:#ffda3b;stop-opacity:1;"
         offset="0"
         id="stop3698" />
      <stop
         style="stop-color:#ffda3b;stop-opacity:0;"
         offset="1"
         id="stop3700" />
    </linearGradient>
    <linearGradient
       inkscape:collect="always"
       id="linearGradient3688">
      <stop
         style="stop-color:#a56d2f;stop-opacity:1;"
         offset="0"
         id="stop3690" />
      <stop
         style="stop-color:#a56d2f;stop-opacity:0;"
         offset="1"
         id="stop3692" />
    </linearGradient>
    <linearGradient
       inkscape:collect="always"
       id="linearGradient3680">
      <stop
         style="stop-color:#d89432;stop-opacity:1;"
         offset="0"
         id="stop3682" />
      <stop
         style="stop-color:#d89432;stop-opacity:0;"
         offset="1"
         id="stop3684" />
    </linearGradient>
    <linearGradient
       inkscape:collect="always"
       id="linearGradient3672">
      <stop
         style="stop-color:#ffda3b;stop-opacity:1;"
         offset="0"
         id="stop3674" />
      <stop
         style="stop-color:#ffda3b;stop-opacity:0;"
         offset="1"
         id="stop3676" />
    </linearGradient>
    <linearGradient
       inkscape:collect="always"
       id="linearGradient3664">
      <stop
         style="stop-color:#a56d2f;stop-opacity:1;"
         offset="0"
         id="stop3666" />
      <stop
         style="stop-color:#a56d2f;stop-opacity:0;"
         offset="1"
         id="stop3668" />
    </linearGradient>
    <linearGradient
       inkscape:collect="always"
       id="linearGradient3656">
      <stop
         style="stop-color:#d89432;stop-opacity:1;"
         offset="0"
         id="stop3658" />
      <stop
         style="stop-color:#d89432;stop-opacity:0;"
         offset="1"
         id="stop3660" />
    </linearGradient>
    <linearGradient
       inkscape:collect="always"
       xlink:href="#linearGradient3656"
       id="linearGradient3662"
       x1="875"
       y1="593.75"
       x2="992.18799"
       y2="593.75"
       gradientUnits="userSpaceOnUse" />
    <linearGradient
       inkscape:collect="always"
       xlink:href="#linearGradient3664"
       id="linearGradient3670"
       x1="648.43799"
       y1="773.43701"
       x2="890.62598"
       y2="773.43701"
       gradientUnits="userSpaceOnUse" />
    <linearGradient
       inkscape:collect="always"
       xlink:href="#linearGradient3672"
       id="linearGradient3678"
       x1="664.06201"
       y1="523.4375"
       x2="976.56201"
       y2="523.4375"
       gradientUnits="userSpaceOnUse" />
    <linearGradient
       inkscape:collect="always"
       xlink:href="#linearGradient3680"
       id="linearGradient3686"
       x1="687.5"
       y1="601.5625"
       x2="937.5"
       y2="601.5625"
       gradientUnits="userSpaceOnUse" />
    <linearGradient
       inkscape:collect="always"
       xlink:href="#linearGradient3688"
       id="linearGradient3694"
       x1="460.93799"
       y1="753.90698"
       x2="687.5"
       y2="753.90698"
       gradientUnits="userSpaceOnUse" />
    <linearGradient
       inkscape:collect="always"
       xlink:href="#linearGradient3696"
       id="linearGradient3702"
       x1="484.375"
       y1="515.62451"
       x2="890.625"
       y2="515.62451"
       gradientUnits="userSpaceOnUse" />
    <linearGradient
       inkscape:collect="always"
       xlink:href="#linearGradient3704"
       id="linearGradient3710"
       x1="476.56201"
       y1="644.53101"
       x2="734.37402"
       y2="644.53101"
       gradientUnits="userSpaceOnUse" />
    <linearGradient
       inkscape:collect="always"
       xlink:href="#linearGradient3712"
       id="linearGradient3718"
       x1="265.625"
       y1="761.71899"
       x2="476.56299"
       y2="761.71899"
       gradientUnits="userSpaceOnUse" />
    <linearGradient
       inkscape:collect="always"
       xlink:href="#linearGradient3720"
       id="linearGradient3726"
       x1="289.06201"
       y1="554.68799"
       x2="726.56201"
       y2="554.68799"
       gradientUnits="userSpaceOnUse" />
    <linearGradient
       inkscape:collect="always"
       xlink:href="#linearGradient3728"
       id="linearGradient3734"
       x1="242.188"
       y1="425.78201"
       x2="710.93799"
       y2="425.78201"
       gradientUnits="userSpaceOnUse" />
    <linearGradient
       inkscape:collect="always"
       xlink:href="#linearGradient3736"
       id="linearGradient3742"
       x1="218.75"
       y1="542.96802"
       x2="523.43799"
       y2="542.96802"
       gradientUnits="userSpaceOnUse" />
    <linearGradient
       inkscape:collect="always"
       xlink:href="#linearGradient3744"
       id="linearGradient3750"
       x1="7.8125"
       y1="671.87451"
       x2="218.75"
       y2="671.87451"
       gradientUnits="userSpaceOnUse" />
    <linearGradient
       inkscape:collect="always"
       xlink:href="#linearGradient3752"
       id="linearGradient3758"
       x1="93.75"
       y1="480.46799"
       x2="257.81201"
       y2="480.46799"
       gradientUnits="userSpaceOnUse" />
    <linearGradient
       inkscape:collect="always"
       xlink:href="#linearGradient3760"
       id="linearGradient3766"
       x1="39.0625"
       y1="453.12549"
       x2="476.56201"
       y2="453.12549"
       gradientUnits="userSpaceOnUse" />
    <linearGradient
       inkscape:collect="always"
       xlink:href="#linearGradient3768"
       id="linearGradient3774"
       x1="140.625"
       y1="304.6875"
       x2="648.43701"
       y2="304.6875"
       gradientUnits="userSpaceOnUse" />
  </defs>
  <sodipodi:namedview
     pagecolor="#ffffff"
     bordercolor="#666666"
     borderopacity="1"
     objecttolerance="10"
     gridtolerance="10"
     guidetolerance="10"
     inkscape:pageopacity="0"
     inkscape:pageshadow="2"
     inkscape:window-width="1280"
     inkscape:window-height="962"
     id="namedview72"
     showgrid="false"
     inkscape:zoom="0.44851479"
     inkscape:cx="187.97281"
     inkscape:cy="542.80636"
     inkscape:window-x="-8"
     inkscape:window-y="-8"
     inkscape:window-maximized="1"
     inkscape:current-layer="svg2" />
  <title
     id="title4">Symbol library: financialcomponent.svg</title>
  <polygon
     points="1007.81,1007.81 0,1007.81 0,0 1007.81,0 1007.81,1007.81 "
     style="fill:#ffffff;fill-opacity:0;stroke:none"
     id="polygon6"
     transform="matrix(0.09922505,0,0,0.09922505,0,2.4414062e-6)" />
  <polygon
     points="632.812,793.899 640.862,802.084 890.387,859.375 898.437,851.191 882.339,736.607 882.339,728.422 665.009,687.5 656.96,695.684 656.96,695.684 "
     style="fill:#7f5226;fill-opacity:1;stroke:none"
     id="polygon8"
     transform="matrix(0.09922505,0,0,0.09922505,0,2.4414062e-6)" />
  <polygon
     points="664.583,695.312 874.481,736.431 890.626,851.562 648.438,793.996 664.583,695.312 "
     style="fill:url(#linearGradient3670);fill-opacity:1;stroke:none"
     id="polygon10"
     transform="matrix(0.09922505,0,0,0.09922505,0,2.4414062e-6)" />
  <polygon
     points="664.253,702.415 880.336,742.188 984.375,352.414 984.375,344.46 976.372,344.46 768.293,304.688 768.293,304.688 656.25,702.415 "
     style="fill:#7f5226;fill-opacity:1;stroke:none"
     id="polygon12"
     transform="matrix(0.09922505,0,0,0.09922505,0,2.4414062e-6)" />
  <polygon
     points="768.229,312.5 976.562,352.299 872.396,734.375 664.062,694.576 768.229,312.5 "
     style="fill:url(#linearGradient3678);fill-opacity:1;stroke:none"
     id="polygon14"
     transform="matrix(0.09922505,0,0,0.09922505,0,2.4414062e-6)" />
  <polygon
     points="883.788,851.443 883.788,859.375 892.09,851.443 1000,407.212 983.397,343.75 975.097,343.75 975.097,343.75 867.188,740.385 "
     style="fill:#7f5226;fill-opacity:1;stroke:none"
     id="polygon16"
     transform="matrix(0.09922505,0,0,0.09922505,0,2.4414062e-6)" />
  <polygon
     points="875,740.731 975.447,359.375 992.188,407.045 883.37,828.125 875,740.731 "
     style="fill:url(#linearGradient3662);fill-opacity:1;stroke:none"
     id="polygon18"
     transform="matrix(0.09922505,0,0,0.09922505,0,2.4414062e-6)" />
  <polygon
     points="0,675.926 226.562,781.25 226.562,659.722 40.4575,562.5 40.4575,562.5 32.366,570.601 0,667.823 "
     style="fill:#7f5226;fill-opacity:1;stroke:none"
     id="polygon20"
     transform="matrix(0.09922505,0,0,0.09922505,0,2.4414062e-6)" />
  <polygon
     points="40.2644,570.312 218.75,667.812 218.75,773.437 7.8125,667.812 40.2644,570.312 "
     style="fill:url(#linearGradient3750);fill-opacity:1;stroke:none"
     id="polygon22"
     transform="matrix(0.09922505,0,0,0.09922505,0,2.4414062e-6)" />
  <polygon
     points="210.938,773.438 218.75,781.25 218.75,781.25 "
     style="fill:#a56d2f;fill-opacity:1;stroke:none"
     id="polygon24"
     transform="matrix(0.09922505,0,0,0.09922505,0,2.4414062e-6)" />
  <polygon
     points="31.25,576.42 214.091,671.875 222.04,671.875 484.375,313.921 484.375,305.967 285.636,234.375 285.636,234.375 31.25,568.466 "
     style="fill:#7f5226;fill-opacity:1;stroke:none"
     id="polygon26"
     transform="matrix(0.09922505,0,0,0.09922505,0,2.4414062e-6)" />
  <polygon
     points="285.653,242.188 476.562,313.827 214.063,664.063 39.0625,576.503 285.653,242.188 "
     style="fill:url(#linearGradient3766);fill-opacity:1;stroke:none"
     id="polygon28"
     transform="matrix(0.09922505,0,0,0.09922505,0,2.4414062e-6)" />
  <polygon
     points="475.195,312.63 210.938,662.109 210.938,781.25 218.945,781.25 531.25,360.286 531.25,352.343 483.202,304.688 475.195,304.688 475.195,304.688 "
     style="fill:#7f5226;fill-opacity:1;stroke:none"
     id="polygon30"
     transform="matrix(0.09922505,0,0,0.09922505,0,2.4414062e-6)" />
  <polygon
     points="218.75,662.249 483.347,320.312 523.438,360.073 218.75,765.624 218.75,662.249 "
     style="fill:url(#linearGradient3742);fill-opacity:1;stroke:none"
     id="polygon32"
     transform="matrix(0.09922505,0,0,0.09922505,0,2.4414062e-6)" />
  <polygon
     points="476.283,882.813 484.374,874.732 484.374,769.666 282.087,648.438 282.087,648.438 257.812,753.502 257.812,761.584 "
     style="fill:#7f5226;fill-opacity:1;stroke:none"
     id="polygon34"
     transform="matrix(0.09922505,0,0,0.09922505,0,2.4414062e-6)" />
  <polygon
     points="281.851,656.25 476.563,777.946 476.563,867.188 265.625,753.606 281.851,656.25 "
     style="fill:url(#linearGradient3718);fill-opacity:1;stroke:none"
     id="polygon36"
     transform="matrix(0.09922505,0,0,0.09922505,0,2.4414062e-6)" />
  <polygon
     points="472.04,781.25 734.375,415.57 734.375,407.621 543.585,328.125 543.585,328.125 281.25,654.057 281.25,662.006 "
     style="fill:#7f5226;fill-opacity:1;stroke:none"
     id="polygon38"
     transform="matrix(0.09922505,0,0,0.09922505,0,2.4414062e-6)" />
  <polygon
     points="543.607,335.938 726.562,415.483 472.017,773.438 289.062,654.12 543.607,335.938 "
     style="fill:url(#linearGradient3726);fill-opacity:1;stroke:none"
     id="polygon40"
     transform="matrix(0.09922505,0,0,0.09922505,0,2.4414062e-6)" />
  <polygon
     points="468.75,874.87 468.75,882.812 468.75,874.87 742.188,501.562 734.145,414.192 726.103,406.25 726.103,406.25 468.75,771.614 "
     style="fill:#7f5226;fill-opacity:1;stroke:none"
     id="polygon42"
     transform="matrix(0.09922505,0,0,0.09922505,0,2.4414062e-6)" />
  <polygon
     points="476.562,771.763 726.318,421.875 734.374,501.395 476.562,867.187 476.562,771.763 "
     style="fill:url(#linearGradient3710);fill-opacity:1;stroke:none"
     id="polygon44"
     transform="matrix(0.09922505,0,0,0.09922505,0,2.4414062e-6)" />
  <polygon
     points="132.929,348.571 125,348.571 251.866,492.188 259.794,492.188 656.25,244.848 656.25,236.869 537.313,117.188 529.384,117.188 529.384,117.188 "
     style="fill:#7f5226;fill-opacity:1;stroke:none"
     id="polygon46"
     transform="matrix(0.09922505,0,0,0.09922505,0,2.4414062e-6)" />
  <polygon
     points="529.419,125 648.437,244.792 251.709,484.375 140.625,348.611 529.419,125 "
     style="fill:url(#linearGradient3774);fill-opacity:1;stroke:none"
     id="polygon48"
     transform="matrix(0.09922505,0,0,0.09922505,0,2.4414062e-6)" />
  <polygon
     points="85.9375,440.258 241.123,617.188 265.625,488.511 134.943,343.75 134.943,343.75 126.776,343.75 85.9375,432.216 "
     style="fill:#7f5226;fill-opacity:1;stroke:none"
     id="polygon50"
     transform="matrix(0.09922505,0,0,0.09922505,0,2.4414062e-6)" />
  <polygon
     points="134.765,351.562 257.812,488.525 241.406,609.374 93.75,432.129 134.765,351.562 "
     style="fill:url(#linearGradient3758);fill-opacity:1;stroke:none"
     id="polygon52"
     transform="matrix(0.09922505,0,0,0.09922505,0,2.4414062e-6)" />
  <polygon
     points="226.562,617.187 234.501,617.187 718.75,322.102 718.75,314.128 655.242,234.375 647.303,234.375 647.303,234.375 250.378,481.607 "
     style="fill:#7f5226;fill-opacity:1;stroke:none"
     id="polygon54"
     transform="matrix(0.09922505,0,0,0.09922505,0,2.4414062e-6)" />
  <polygon
     points="258.077,489.641 655.324,242.188 710.938,322.011 242.188,609.376 258.077,489.641 "
     style="fill:url(#linearGradient3734);fill-opacity:1;stroke:none"
     id="polygon56"
     transform="matrix(0.09922505,0,0,0.09922505,0,2.4414062e-6)" />
  <polygon
     points="476.562,646.716 476.562,654.661 683.52,750 691.48,742.055 898.437,352.754 898.437,344.809 707.399,281.25 699.439,281.25 699.439,281.25 "
     style="fill:#7f5226;fill-opacity:1;stroke:none"
     id="polygon58"
     transform="matrix(0.09922505,0,0,0.09922505,0,2.4414062e-6)" />
  <polygon
     points="707.414,289.062 890.625,352.658 683.518,742.187 484.375,646.792 707.414,289.062 "
     style="fill:url(#linearGradient3702);fill-opacity:1;stroke:none"
     id="polygon60"
     transform="matrix(0.09922505,0,0,0.09922505,0,2.4414062e-6)" />
  <polygon
     points="687.241,867.187 695.313,867.187 695.313,859.095 695.313,737.723 485.417,640.625 477.343,640.625 477.343,640.625 453.125,753.906 "
     style="fill:#7f5226;fill-opacity:1;stroke:none"
     id="polygon62"
     transform="matrix(0.09922505,0,0,0.09922505,0,2.4414062e-6)" />
  <polygon
     points="485.212,648.438 687.5,745.794 687.5,859.376 460.938,753.907 485.212,648.438 "
     style="fill:url(#linearGradient3694);fill-opacity:1;stroke:none"
     id="polygon64"
     transform="matrix(0.09922505,0,0,0.09922505,0,2.4414062e-6)" />
  <polygon
     points="679.688,851.326 679.688,859.257 687.737,867.188 945.313,407.197 945.313,399.267 897.017,343.75 897.017,343.75 679.688,740.294 "
     style="fill:#7f5226;fill-opacity:1;stroke:none"
     id="polygon66"
     transform="matrix(0.09922505,0,0,0.09922505,0,2.4414062e-6)" />
  <polygon
     points="687.5,740.522 897.177,359.375 937.5,407.018 687.5,843.75 687.5,740.522 "
     style="fill:url(#linearGradient3686);fill-opacity:1;stroke:none"
     id="polygon68"
     transform="matrix(0.09922505,0,0,0.09922505,0,2.4414062e-6)" />
  <use
     href="#oid1"
     id="use70"
     x="0"
     y="0"
     width="744.09448"
     height="1052.3622"
     transform="matrix(0.09922505,0,0,0.09922505,0,2.4414062e-6)" />
</svg>
