<?xml version="1.0"?>
<?metis version="3.0"?>
<?metisxml version="1.0"?>
<!DOCTYPE svg  PUBLIC "-//W3C//DTD SVG August 1999//EN"
 "http://www.w3.org/Graphics/SVG/svg-19990812.dtd">

<svg width="200" height="200">
 <title>Symbol library: financial.svg</title>
 <defs>
  <symbol id="oid1" xml:space="preserve" class="METIS_SYMBOL">
   <title>financial</title>
    <rect x="1.83506" y="0" width="199.152" height="227.602"
     style=" stroke:#000000; stroke-width:1; fill:#ffffff; fill-opacity:100%"></rect>
    <rect x="200.987" y="0" width="455.204" height="227.602"
     style=" stroke:#000000; stroke-width:1; fill:#ffa596; fill-opacity:100%"></rect>
    <g>
      <desc>METIS_TEXT_GROUP</desc>
      <text  x="200.987" y="15.8"
       style=" stroke:#000000; stroke-width:1; font-family:sans-serif;  font-size:15;" class="TAG:text"
>text</text>
      <rect x="200.987" y="0" width="455.204" height="229.469"
       style=" stroke:#000000; stroke-width:1; fill:#ffffff; fill-opacity:0%"></rect>
    </g>
    <g>
      <polygon points="87.191 76.6652 117.656 43.8087 136.153 65.7131 
       145.402 54.7609 154.65 65.7131 173.147 43.8087 191.644 71.1891 
       200.892 87.6174 173.147 93.0935 126.905 82.1413 99.1595 93.0935 87.191 76.6652 "
       style=" stroke:#000000; stroke-width:1; fill:#464646; fill-opacity:100%"></polygon>
      <ellipse  cx="30.2853" cy="19.1663" rx="28.4502" ry="19.1663"
       style=" stroke:#000000; stroke-width:1; fill:#fff16f; fill-opacity:100%"></ellipse>
      <path d="M 103.926 0 C 93.7336 2.70036 89.3707 3.91161 
       86.4738 4.84504 C 83.3597 5.84844 73.9252 6.65922 73.3847 9.69008 
       C 72.9607 12.0677 80.4157 13.2293 82.1108 14.535 C 83.4508 15.5674 
       83.9015 18.4974 86.4738 19.3802 C 89.9249 20.5644 96.4734 18.9752 
       99.5629 19.3802 C 101.866 19.682 105.347 21.9044 108.289 21.8026 
       C 113.032 21.6388 117.593 17.594 121.378 16.9577 C 123.478 16.6046 
       127.93 17.4576 130.104 16.9577 C 133.179 16.2506 137.557 13.8197 
       138.83 12.1126 C 139.731 10.9055 140.679 8.58239 138.83 7.26755 
       C 135.018 4.55697 125.257 6.06436 121.378 4.84504 C 120.048 4.42682 
       118.288 2.85934 117.015 2.42251 C 114.88 1.68996 112.142 1.26747 
       103.926 0 Z"
       style=" stroke:#000000; stroke-width:1; fill:#dcdcdc; fill-opacity:100%"></path>
      <path d="M 59.6728 93.1736 C 86.3168 112.989 103.722 120.943 
       129.294 124.991 C 143.75 127.28 167.202 128.693 184.99 128.693 
       C 203.508 128.693 201.869 116.408 200.872 103.357 C 200.427 97.5345 
       204.861 89.5368 197.88 88.769 C 190.867 87.9976 167.144 90.1609 
       157.992 88.769 C 148.66 87.3496 139.021 85.5402 132.065 83.3947 
       C 125.134 81.2569 111.615 86.9669 103.146 85.6979 C 92.2471 84.065 
       86.4329 75.5071 79.2132 72.646 C 77.1847 71.842 63.2048 79.6325 
       54.2831 77.2525 Z"
       style=" stroke:#000000; stroke-width:1; fill:#5050ff; fill-opacity:100%"></path>
      <g>
	<polygon points="121.355 146.421 156.918 146.421 156.918 119.04 
	 121.355 119.04 121.355 146.421 "
	 style=" stroke:#000000; stroke-width:1; fill:#dc0000; fill-opacity:100%"></polygon>
	<polygon points="156.918 146.421 156.918 146.421 178.255 140.945 
	 178.255 115.618 156.918 119.04 156.918 146.421 "
	 style=" stroke:#000000; stroke-width:1; fill:#dc0000; fill-opacity:100%"></polygon>
	<polygon points="142.693 102.612 121.355 119.04 156.918 119.04 142.693 102.612 "
	 style=" stroke:#000000; stroke-width:1; fill:#464646; fill-opacity:100%"></polygon>
	<polygon points="142.693 102.612 164.03 102.612 178.255 115.618 
	 156.918 119.04 142.693 102.612 "
	 style=" stroke:#000000; stroke-width:1; fill:#000000; fill-opacity:100%"></polygon>
	<polygon points="133.802 146.421 133.802 146.421 133.802 138.206 
	 146.249 138.206 146.249 146.421 133.802 146.421 "
	 style=" stroke:#000000; stroke-width:1; fill:#9b9b9b; fill-opacity:100%"></polygon>
	<polygon points="124.911 132.046 124.911 132.046 124.911 123.832 
	 134.691 123.832 134.691 132.046 124.911 132.046 "
	 style=" stroke:#000000; stroke-width:1; fill:#9b9b9b; fill-opacity:100%"></polygon>
	<polygon points="162.252 135.468 162.252 129.992 174.672 127.254 
	 174.699 132.73 162.252 135.468 "
	 style=" stroke:#000000; stroke-width:1; fill:#9b9b9b; fill-opacity:100%"></polygon>
	<polygon points="142.693 132.046 142.693 132.046 142.693 123.832 
	 152.472 123.832 152.472 132.046 142.693 132.046 "
	 style=" stroke:#000000; stroke-width:1; fill:#9b9b9b; fill-opacity:100%"></polygon>
      </g>
      <path d="M 39.9128 27.3804 C 29.7206 30.0808 25.3576 31.2921 
       22.4607 32.2255 C 19.3467 33.2289 9.91214 34.0397 9.37163 37.0705 
       C 8.94762 39.4481 16.4026 40.6098 18.0977 41.9155 C 19.4377 42.9479 
       19.8884 45.8778 22.4607 46.7606 C 25.9118 47.9448 32.4603 46.3556 
       35.5498 46.7606 C 37.8525 47.0625 41.3341 49.2848 44.2759 49.1831 
       C 49.0192 49.0192 53.5796 44.9744 57.3649 44.3381 C 59.4646 43.985 
       63.9168 44.8381 66.091 44.3381 C 69.1655 43.631 73.5435 41.2002 
       74.817 39.493 C 75.7176 38.2859 76.6659 35.9628 74.817 34.648 
       C 71.0054 31.9374 61.2436 33.4448 57.3649 32.2255 C 56.0345 31.8073 
       54.2749 30.2398 53.0019 29.803 C 50.8671 29.0704 48.1286 28.6479 
       39.9128 27.3804 Z"
       style=" stroke:#000000; stroke-width:1; fill:#dcdcdc; fill-opacity:100%"></path>
      <path d="M 118.151 32.8565 C 107.959 35.5569 103.596 36.7681 
       100.699 37.7016 C 97.5848 38.705 88.1503 39.5158 87.6098 42.5466 
       C 87.1858 44.9242 94.6408 46.0859 96.3359 47.3916 C 97.6759 48.424 
       98.1266 51.3539 100.699 52.2367 C 104.15 53.4209 110.698 51.8317 
       113.788 52.2367 C 116.091 52.5386 119.572 54.7609 122.514 54.6592 
       C 127.257 54.4953 131.818 50.4505 135.603 49.8142 C 137.703 49.4611 
       142.155 50.3142 144.329 49.8142 C 147.404 49.1071 151.782 46.6763 
       153.055 44.9691 C 153.956 43.762 154.904 41.4389 153.055 40.1241 
       C 149.244 37.4135 139.482 38.9209 135.603 37.7016 C 134.273 37.2833 
       132.513 35.7159 131.24 35.279 C 129.105 34.5465 126.367 34.124 
       118.151 32.8565 Z"
       style=" stroke:#000000; stroke-width:1; fill:#dcdcdc; fill-opacity:100%"></path>
      <polygon points="1.83506 76.6652 16.0602 54.7609 30.2853 76.6652 
       37.3978 65.7131 44.5104 76.6652 58.7355 54.7609 72.9606 82.1413 
       80.0732 98.5696 58.7355 104.046 23.1727 93.0935 1.83506 104.046 1.83506 76.6652 "
       style=" stroke:#000000; stroke-width:1; fill:#464646; fill-opacity:100%"></polygon>
      <polygon points="26.7291 98.5696 26.7291 98.5696 26.7291 120.474 
       33.8416 120.474 33.8416 93.0935 26.7291 93.0935 26.7291 93.0935 26.7291 98.5696 "
       style=" stroke:#000000; stroke-width:1; fill:#9c8d00; fill-opacity:100%"></polygon>
      <path d="M 30.2853 98.5696 C 19.6165 94.8731 16.0602 92.1351 
       16.0602 87.6174 C 16.0602 81.5938 22.4616 76.6652 30.2853 76.6652 
       C 38.1089 76.6652 44.5104 81.5938 44.5104 87.6174 C 44.5104 92.1351 
       40.9541 93.7438 30.2853 98.5696 Z"
       style=" stroke:#000000; stroke-width:1; fill:#006e00; fill-opacity:100%"></path>
      <polygon points="40.9542 109.522 40.9542 109.522 40.9542 131.426 
       48.0667 131.426 48.0667 104.046 40.9542 104.046 40.9542 104.046 40.9542 109.522 "
       style=" stroke:#000000; stroke-width:1; fill:#9c8d00; fill-opacity:100%"></polygon>
      <path d="M 44.5105 109.522 C 33.8416 105.825 30.2853 103.087 
       30.2853 98.5696 C 30.2853 92.546 36.6868 87.6174 44.5105 87.6174 
       C 52.3341 87.6174 58.7356 92.546 58.7356 98.5696 C 58.7356 103.087 
       55.1793 104.696 44.5105 109.522 Z"
       style=" stroke:#000000; stroke-width:1; fill:#006e00; fill-opacity:100%"></path>
      <polygon points="64.4183 113.157 64.4183 113.157 64.4183 135.061 
       71.5309 135.061 71.5309 107.681 64.4183 107.681 64.4183 107.681 64.4183 113.157 "
       style=" stroke:#000000; stroke-width:1; fill:#9c8d00; fill-opacity:100%"></polygon>
      <path d="M 66.9774 113.925 C 56.3086 110.228 52.7523 107.49 
       52.7523 102.973 C 52.7523 96.9492 59.1538 92.0206 66.9774 92.0206 
       C 74.8011 92.0206 81.2025 96.9492 81.2025 102.973 C 81.2025 107.49 
       77.6463 109.099 66.9774 113.925 Z"
       style=" stroke:#000000; stroke-width:1; fill:#006e00; fill-opacity:100%"></path>
      <polygon points="84.6267 108.754 84.6267 108.754 84.6267 130.658 
       91.7393 130.658 91.7393 103.278 84.6267 103.278 84.6267 103.278 84.6267 108.754 "
       style=" stroke:#000000; stroke-width:1; fill:#9c8d00; fill-opacity:100%"></polygon>
      <path d="M 88.183 108.754 C 77.5141 105.058 73.9579 102.319 
       73.9579 97.8018 C 73.9579 91.7783 80.3593 86.8497 88.183 86.8497 
       C 96.0066 86.8497 102.408 91.7783 102.408 97.8018 C 102.408 102.319 
       98.8518 103.928 88.183 108.754 Z"
       style=" stroke:#000000; stroke-width:1; fill:#006e00; fill-opacity:100%"></path>
      <polygon points="32.6999 129.077 32.6999 129.077 32.6999 150.981 
       39.8124 150.981 39.8124 123.601 32.6999 123.601 32.6999 123.601 32.6999 129.077 "
       style=" stroke:#000000; stroke-width:1; fill:#9c8d00; fill-opacity:100%"></polygon>
      <path d="M 36.2562 129.077 C 25.5873 125.38 22.031 122.642 
       22.031 118.125 C 22.031 112.101 28.4325 107.172 36.2562 107.172 
       C 44.0798 107.172 50.4813 112.101 50.4813 118.125 C 50.4813 122.642 
       46.925 124.251 36.2562 129.077 Z"
       style=" stroke:#000000; stroke-width:1; fill:#006e00; fill-opacity:100%"></path>
      <polygon points="58.4589 133.582 58.4589 133.582 58.4589 155.486 
       65.5714 155.486 65.5714 128.106 58.4589 128.106 58.4589 128.106 58.4589 133.582 "
       style=" stroke:#000000; stroke-width:1; fill:#9c8d00; fill-opacity:100%"></polygon>
      <path d="M 62.0152 133.582 C 51.3463 129.885 47.7901 127.147 
       47.7901 122.629 C 47.7901 116.606 54.1915 111.677 62.0152 111.677 
       C 69.8388 111.677 76.2403 116.606 76.2403 122.629 C 76.2403 127.147 
       72.684 128.756 62.0152 133.582 Z"
       style=" stroke:#000000; stroke-width:1; fill:#006e00; fill-opacity:100%"></path>
      <polygon points="11.8546 114.591 11.8546 114.591 11.8546 136.495 
       18.9671 136.495 18.9671 109.115 11.8546 109.115 11.8546 109.115 11.8546 114.591 "
       style=" stroke:#000000; stroke-width:1; fill:#9c8d00; fill-opacity:100%"></polygon>
      <path d="M 15.4109 114.591 C 4.74202 110.894 1.18574 108.156 
       1.18574 103.639 C 1.18574 97.6152 7.58718 92.6866 15.4109 92.6866 
       C 23.2345 92.6866 29.636 97.6152 29.636 103.639 C 29.636 108.156 
       26.0797 109.765 15.4109 114.591 Z"
       style=" stroke:#000000; stroke-width:1; fill:#006e00; fill-opacity:100%"></path>
    </g>
    <g>
      <desc>METIS_TEXT_GROUP</desc>
      <text  x="-4.44089e-015" y="165.286"
       style=" stroke:#000000; stroke-width:1; font-family:sans-serif; font-weight:bold; font-size:9; text-align:center vertical-align:middle;"
>Financial</text>
      <rect x="-4.44089e-015" y="155.486" width="199.152" height="71.1256"
       style=" stroke:#000000; stroke-width:1; fill:#ffffff; fill-opacity:0%"></rect>
    </g>
  </symbol>
 </defs>
</svg>
