<?xml version="1.0"?>
<?metis version="3.1"?>
<?metisxml version="1.0"?>
<!DOCTYPE svg  PUBLIC "-//W3C//DTD SVG August 1999//EN"
 "http://www.w3.org/Graphics/SVG/svg-19990812.dtd">

<svg width="200" height="200">
 <title>Symbol library: finding.svg</title>
 <defs>
  <symbol id="oid0" xml:space="preserve" class="METIS_SYMBOL">
   <title>Finding</title>
    <g>
      <polygon points="0 0 0 304 16 320 
       880 320 880 16 864 0 0 0 
       0 0 0 0 0 0 0 0 "
       style=" stroke:#000000; stroke-width:1; fill:#9b9b9b; fill-opacity:100%"       class="TAG:shadow"></polygon>
      <rect x="0" y="0" width="240" height="304"
       style=" stroke:#000000; stroke-width:1; fill:#ffffff; fill-opacity:100%"       class="TAG:PictureBackground"></rect>
      <rect x="240" y="0" width="624" height="304"
       style=" stroke:#000000; stroke-width:1; fill:#96a5ff; fill-opacity:100%"       class="TAG:canvas"></rect>
      <g>
	<desc>METIS_TEXT_GROUP</desc>
	<text  x="256" y="15.8"
	 style=" stroke:#000000; stroke-width:1; font-family:sans-serif; font-size:16;"
	 class="TAG:text">text</text>
	<rect x="256" y="0" width="608" height="304"
	 style=" stroke:#000000; stroke-width:1; fill:#ffffff; fill-opacity:0%"></rect>
      </g>
      <polyline points="864 304 880 320"
       style=" stroke:#000000; stroke-width:1;"></polyline>
      <g>
	<polygon points="90.2858 64 120 32 149.714 64 
	 134.857 64 134.857 128 120 144 105.143 128 
	 105.143 64 105.143 64 90.2858 64 90.2858 64 
	 90.2858 64 90.2858 64 "
	 style=" stroke:#000000; stroke-width:1; fill:#0000a5; fill-opacity:100%"></polygon>
	<polygon points="120 144 105.143 160 105.143 224 
	 90.2858 224 120 256 149.714 224 134.857 224 
	 134.857 160 120 144 120 144 120 144 120 144 "
	 style=" stroke:#000000; stroke-width:1; fill:#ffff00; fill-opacity:100%"></polygon>
	<polygon points="120 144 134.857 128 194.286 128 
	 194.286 112 224 144 194.286 176 194.286 160 
	 134.857 160 134.857 160 120 144 120 144 
	 120 144 120 144 "
	 style=" stroke:#000000; stroke-width:1; fill:#00a500; fill-opacity:100%"></polygon>
	<polygon points="120 144 105.143 128 45.7142 128 
	 45.7142 112 16 144 45.7142 176 45.7142 160 
	 105.143 160 120 144 120 144 120 144 120 144 "
	 style=" stroke:#000000; stroke-width:1; fill:#dc0000; fill-opacity:100%"></polygon>
      </g>
    </g>
  </symbol>
 </defs>
</svg>
