<?xml version="1.0" encoding="UTF-8" standalone="no"?><svg xmlns:rdf="http://www.w3.org/1999/02/22-rdf-syntax-ns#" xmlns="http://www.w3.org/2000/svg" y="0px" xml:space="preserve" height="219" width="219" version="1.1" enable-background="new -0.469 -0.11 215 159" x="0px" xmlns:cc="http://creativecommons.org/ns#" xmlns:dc="http://purl.org/dc/elements/1.1/" viewBox="-0.469 -0.11 219 219">	<metadata>		<rdf:RDF>			<cc:Work rdf:about="">				<dc:format>image/svg+xml</dc:format>				<dc:type rdf:resource="http://purl.org/dc/dcmitype/StillImage"/>				<dc:title/>			</cc:Work>		</rdf:RDF>	</metadata>	<defs>		<linearGradient id="linearGradient4823" y2="15.5" gradientUnits="userSpaceOnUse" x2="13.4" y1="126" x1="173">			<stop stop-color="#c9c9c9" offset="0"/>			<stop stop-color="#c7985e" offset="1"/>		</linearGradient>		<filter id="filter5204">			<feGaussianBlur stdDeviation="1.909875"/>		</filter>		<filter id="filter5337">			<feGaussianBlur stdDeviation="2.9920867"/>		</filter>		<filter id="filter5345">			<feGaussianBlur stdDeviation="1.5009775"/>		</filter>		<filter id="filter5349">			<feGaussianBlur stdDeviation="0.94118275"/>		</filter>		<filter id="filter5391">			<feGaussianBlur stdDeviation="1.6394384"/>		</filter>		<filter id="filter5411">			<feGaussianBlur stdDeviation="0.96552723"/>		</filter>		<filter id="filter5427">			<feGaussianBlur stdDeviation="1.2038493"/>		</filter>		<linearGradient id="linearGradient3250" y2="121" gradientUnits="userSpaceOnUse" y1="121" x2="206" x1="188">			<stop stop-color="#c9c5c0" offset="0"/>			<stop stop-color="#605f5f" stop-opacity="0" offset="1"/>		</linearGradient>		<linearGradient id="linearGradient3256" x1="249" gradientUnits="userSpaceOnUse" y1="121" gradientTransform="translate(-40.365887,-1.8074278)" x2="227" y2="121">			<stop stop-color="#999" offset="0"/>			<stop stop-color="#f7deb8" offset="1"/>		</linearGradient>	</defs>	<path d="m22.7,11.3-22,15.1,0,0.0938-0.375,0.25-1.03,127,184,0.5,0-0.0937,0.156,0,3.22-2.31c-0.0831,0.1-0.166,0.187-0.25,0.281l2.91-2.22,13.5-9.78v-0.531l0.0312-0.0312v-4.81l0.594-123,0.0312-0.219h-0.875l-180-0.219zm164,140-2.62,2c0.916-0.369,1.79-1.06,2.62-2z" fill-opacity="0.50196081" transform="matrix(0.94100283,0,0,0.94100283,18.6188,34.487578)" filter="url(#filter5204)" fill="#000"/>	<path d="M206,40.8,36.5,41,15,55.2,187,55z" fill="#b6b8ba"/>	<path d="m206,41.9-19.2,13.8,0.952,119,18.3-13.5z" fill="url(#linearGradient3256)"/>	<polygon points="1.56,8.83,0.501,139,193,139,192,9.34" transform="matrix(0.90184742,0,0,0.91744599,13.611604,47.1033)" fill="url(#linearGradient4823)"/>	<path stroke="#000" stroke-width="0.90961325" d="M188,175,187,55.3,207,40.9" fill="none"/>	<path stroke="#000" stroke-width="0.90961325" d="M15.2,55.2,187,55.4" fill="none"/>	<path d="m188,175,18-13.7-0.0792-93.9s-2.11,101-17.9,108z" fill="url(#linearGradient3250)"/>	<path d="m206,41.6-18.6,13.8,0.0792,60.4s1.63-59.2,18.5-74.1z" fill="#7c7c7c"/>	<path d="M139,41,36.9,40.9,17.2,54.6s46.5-14.3,122-13.6z" fill="#e2e2e2"/>	<line y2="72" stroke-width="0.91" x2="62.8" stroke="#000" y1="55.4" x1="62.9" fill="none"/>	<line y2="72.1" stroke-width="0.91" x2="88.9" stroke="#000" y1="55.5" x1="88.9" fill="none"/>	<line y2="72.1" stroke-width="0.91" x2="114" stroke="#000" y1="55.5" x1="114" fill="none"/>	<line y2="72.1" stroke-width="0.91" x2="139" stroke="#000" y1="55.5" x1="139" fill="none"/>	<line y2="72.1" stroke-width="0.91" x2="164" stroke="#000" y1="55.5" x1="164" fill="none"/>	<line y2="89.1" stroke-width="0.91" x2="27.7" stroke="#000" y1="72.5" x1="27.7" fill="none"/>	<line y2="89" stroke-width="0.91" x2="53.7" stroke="#000" y1="72.3" x1="53.7" fill="none"/>	<line y2="89.1" stroke-width="0.91" x2="79.7" stroke="#000" y1="72.5" x1="79.7" fill="none"/>	<line y2="89.1" stroke-width="0.91" x2="105" stroke="#000" y1="72.5" x1="105" fill="none"/>	<line y2="89.1" stroke-width="0.91" x2="130" stroke="#000" y1="72.5" x1="130" fill="none"/>	<line y2="89.1" stroke-width="0.91" x2="155" stroke="#000" y1="72.5" x1="155" fill="none"/>	<path stroke="#000" stroke-width="0.90961325" d="m179,72.5-0.0189,16.6" fill="none"/>	<line y2="106" stroke-width="0.91" x2="37" stroke="#000" y1="89.6" x1="37" fill="none"/>	<line y2="106" stroke-width="0.91" x2="63" stroke="#000" y1="89.5" x1="63" fill="none"/>	<line y2="106" stroke-width="0.91" x2="89" stroke="#000" y1="89.6" x1="89" fill="none"/>	<line y2="106" stroke-width="0.91" x2="114" stroke="#000" y1="89.6" x1="114" fill="none"/>	<line y2="106" stroke-width="0.91" x2="140" stroke="#000" y1="89.6" x1="140" fill="none"/>	<line y2="106" stroke-width="0.91" x2="165" stroke="#000" y1="89.6" x1="165" fill="none"/>	<line y2="123" stroke-width="0.91" x2="27.8" stroke="#000" y1="107" x1="27.8" fill="none"/>	<line y2="123" stroke-width="0.91" x2="53.8" stroke="#000" y1="106" x1="53.9" fill="none"/>	<line y2="123" stroke-width="0.91" x2="79.8" stroke="#000" y1="107" x1="79.9" fill="none"/>	<line y2="123" stroke-width="0.91" x2="105" stroke="#000" y1="107" x1="105" fill="none"/>	<line y2="123" stroke-width="0.91" x2="130" stroke="#000" y1="107" x1="130" fill="none"/>	<line y2="123" stroke-width="0.91" x2="155" stroke="#000" y1="107" x1="155" fill="none"/>	<path stroke="#000" stroke-width="0.90961325" d="m179,107-0.0189,16.6" fill="none"/>	<line y2="141" stroke-width="0.91" x2="36.8" stroke="#000" y1="124" x1="36.9" fill="none"/>	<line y2="141" stroke-width="0.91" x2="62.8" stroke="#000" y1="123" x1="62.9" fill="none"/>	<line y2="141" stroke-width="0.91" x2="88.9" stroke="#000" y1="124" x1="88.9" fill="none"/>	<line y2="141" stroke-width="0.91" x2="114" stroke="#000" y1="124" x1="114" fill="none"/>	<line y2="141" stroke-width="0.91" x2="139" stroke="#000" y1="124" x1="139" fill="none"/>	<line y2="141" stroke-width="0.91" x2="164" stroke="#000" y1="124" x1="164" fill="none"/>	<line y2="158" stroke-width="0.91" x2="27.7" stroke="#000" y1="141" x1="27.7" fill="none"/>	<line y2="158" stroke-width="0.91" x2="53.7" stroke="#000" y1="141" x1="53.7" fill="none"/>	<line y2="158" stroke-width="0.91" x2="79.7" stroke="#000" y1="141" x1="79.7" fill="none"/>	<line y2="158" stroke-width="0.91" x2="105" stroke="#000" y1="141" x1="105" fill="none"/>	<line y2="158" stroke-width="0.91" x2="130" stroke="#000" y1="141" x1="130" fill="none"/>	<line y2="158" stroke-width="0.91" x2="155" stroke="#000" y1="141" x1="155" fill="none"/>	<path stroke="#000" stroke-width="0.90961325" d="m179,141-0.0189,17.2" fill="none"/>	<line y2="175" stroke-width="0.91" x2="37" stroke="#000" y1="158" x1="37" fill="none"/>	<line y2="175" stroke-width="0.91" x2="63" stroke="#000" y1="158" x1="63" fill="none"/>	<line y2="175" stroke-width="0.91" x2="89" stroke="#000" y1="158" x1="89" fill="none"/>	<line y2="175" stroke-width="0.91" x2="114" stroke="#000" y1="158" x1="114" fill="none"/>	<line y2="175" stroke-width="0.91" x2="140" stroke="#000" y1="158" x1="140" fill="none"/>	<line y2="175" stroke-width="0.91" x2="165" stroke="#000" y1="158" x1="165" fill="none"/>	<line y2="71.5" stroke-width="1.82" x2="64.4" stroke="#ededed" y1="55.7" x1="64.4" fill="none"/>	<line y2="71.7" stroke-width="1.82" x2="90.4" stroke="#ededed" y1="55.9" x1="90.4" fill="none"/>	<line y2="71.7" stroke-width="1.82" x2="115" stroke="#ededed" y1="55.9" x1="115" fill="none"/>	<line y2="71.7" stroke-width="1.82" x2="141" stroke="#ededed" y1="55.9" x1="141" fill="none"/>	<line y2="71.7" stroke-width="1.82" x2="166" stroke="#ededed" y1="55.9" x1="166" fill="none"/>	<line y2="89.1" stroke-width="1.82" x2="29.2" stroke="#ededed" y1="72.9" x1="29.2" fill="none"/>	<line y2="88.9" stroke-width="1.82" x2="55.2" stroke="#ededed" y1="72.8" x1="55.2" fill="none"/>	<line y2="89.1" stroke-width="1.82" x2="81.2" stroke="#ededed" y1="72.9" x1="81.2" fill="none"/>	<line y2="89.1" stroke-width="1.82" x2="106" stroke="#ededed" y1="72.9" x1="106" fill="none"/>	<line y2="89.1" stroke-width="1.82" x2="132" stroke="#ededed" y1="72.9" x1="132" fill="none"/>	<line y2="89.1" stroke-width="1.82" x2="157" stroke="#ededed" y1="72.9" x1="157" fill="none"/>	<path stroke="#ededed" stroke-width="1.8192265" d="m180,72.9-0.0189,16.2" fill="none"/>	<line y2="106" stroke-width="1.82" x2="38.5" stroke="#ededed" y1="89.6" x1="38.5" fill="none"/>	<line y2="106" stroke-width="1.82" x2="64.5" stroke="#ededed" y1="89.4" x1="64.5" fill="none"/>	<line y2="106" stroke-width="1.82" x2="90.5" stroke="#ededed" y1="89.6" x1="90.5" fill="none"/>	<line y2="106" stroke-width="1.82" x2="116" stroke="#ededed" y1="89.6" x1="116" fill="none"/>	<line y2="106" stroke-width="1.82" x2="141" stroke="#ededed" y1="89.6" x1="141" fill="none"/>	<line y2="106" stroke-width="1.82" x2="166" stroke="#ededed" y1="89.6" x1="166" fill="none"/>	<line y2="123" stroke-width="1.82" x2="29.3" stroke="#ededed" y1="107" x1="29.3" fill="none"/>	<line y2="123" stroke-width="1.82" x2="55.3" stroke="#ededed" y1="107" x1="55.4" fill="none"/>	<line y2="123" stroke-width="1.82" x2="81.4" stroke="#ededed" y1="107" x1="81.4" fill="none"/>	<line y2="123" stroke-width="1.82" x2="106" stroke="#ededed" y1="107" x1="106" fill="none"/>	<line y2="123" stroke-width="1.82" x2="132" stroke="#ededed" y1="107" x1="132" fill="none"/>	<line y2="123" stroke-width="1.82" x2="157" stroke="#ededed" y1="107" x1="157" fill="none"/>	<path stroke="#ededed" stroke-width="1.8192265" d="m180,107-0.0189,16.2" fill="none"/>	<line y2="142" stroke-width="1.82" x2="38.3" stroke="#ededed" y1="124" x1="38.4" fill="none"/>	<line y2="141" stroke-width="1.82" x2="64.4" stroke="#ededed" y1="124" x1="64.4" fill="none"/>	<line y2="142" stroke-width="1.82" x2="90.4" stroke="#ededed" y1="124" x1="90.4" fill="none"/>	<line y2="142" stroke-width="1.82" x2="115" stroke="#ededed" y1="124" x1="115" fill="none"/>	<line y2="142" stroke-width="1.82" x2="141" stroke="#ededed" y1="124" x1="141" fill="none"/>	<line y2="142" stroke-width="1.82" x2="166" stroke="#ededed" y1="124" x1="166" fill="none"/>	<line y2="158" stroke-width="1.82" x2="29.2" stroke="#ededed" y1="141" x1="29.2" fill="none"/>	<line y2="158" stroke-width="1.82" x2="55.2" stroke="#ededed" y1="141" x1="55.2" fill="none"/>	<line y2="158" stroke-width="1.82" x2="81.2" stroke="#ededed" y1="141" x1="81.2" fill="none"/>	<line y2="158" stroke-width="1.82" x2="106" stroke="#ededed" y1="141" x1="106" fill="none"/>	<line y2="158" stroke-width="1.82" x2="132" stroke="#ededed" y1="141" x1="132" fill="none"/>	<line y2="158" stroke-width="1.82" x2="157" stroke="#ededed" y1="141" x1="157" fill="none"/>	<path stroke="#ededed" stroke-width="1.8192265" d="m180,141-0.0189,16.7" fill="none"/>	<line y2="174" stroke-width="1.82" x2="38.5" stroke="#ededed" y1="158" x1="38.5" fill="none"/>	<line y2="174" stroke-width="1.82" x2="64.5" stroke="#ededed" y1="158" x1="64.5" fill="none"/>	<line y2="174" stroke-width="1.82" x2="90.5" stroke="#ededed" y1="158" x1="90.5" fill="none"/>	<line y2="174" stroke-width="1.82" x2="116" stroke="#ededed" y1="158" x1="116" fill="none"/>	<line y2="174" stroke-width="1.82" x2="141" stroke="#ededed" y1="158" x1="141" fill="none"/>	<line y2="174" stroke-width="1.82" x2="166" stroke="#ededed" y1="158" x1="166" fill="none"/>	<line y2="72.3" stroke-width="0.91" x2="187" stroke="#000" y1="72.4" x1="15.2" fill="none"/>	<line y2="89.3" stroke-width="0.91" x2="187" stroke="#000" y1="89.4" x1="15.2" fill="none"/>	<line y2="107" stroke-width="0.91" x2="187" stroke="#000" y1="107" x1="14.9" fill="none"/>	<line y2="124" stroke-width="0.91" x2="187" stroke="#000" y1="124" x1="14.9" fill="none"/>	<line y2="141" stroke-width="0.91" x2="187" stroke="#000" y1="141" x1="14.5" fill="none"/>	<line y2="158" stroke-width="0.91" x2="187" stroke="#000" y1="158" x1="14.3" fill="none"/>	<path stroke="#000" stroke-width="0.89024508" d="M187,72.4,206,57.3" fill="none"/>	<path stroke="#000" stroke-width="0.88516468" d="M187,89.2,206,74.2" fill="none"/>	<path stroke="#000" stroke-width="0.88547349" d="M187,107,206,91.8" fill="none"/>	<path stroke="#000" stroke-width="0.88168645" d="m187,123,18.7-14.7" fill="none"/>	<path stroke="#000" stroke-width="0.88180321" d="m187,142,18.6-14.8" fill="none"/>	<path stroke="#000" stroke-width="0.86735731" d="m187,158,18.4-14.5" fill="none"/>	<path stroke="#000" stroke-width="0.88787526" d="M36.9,55.2,59.1,40.9" fill="none"/>	<path stroke="#000" stroke-width="0.90961325" d="M63,55.3,85.8,40.6" fill="none"/>	<path stroke="#000" stroke-width="0.88787526" d="M89.2,55.2,111,40.9" fill="none"/>	<path stroke="#000" stroke-width="0.88482648" d="M114,55.2,136,40.9" fill="none"/>	<path stroke="#000" stroke-width="0.88482648" d="M140,55.3,162,41" fill="none"/>	<path stroke="#000" stroke-width="0.89308876" d="M164,55.3,187,40.9" fill="none"/>	<line y2="71.9" stroke-width="0.91" x2="36.5" stroke="#000" y1="55.3" x1="36.6" fill="none"/>	<line y2="71.4" stroke-width="1.82" x2="38" stroke="#ededed" y1="55.6" x1="38.1" fill="none"/>	<path stroke-linejoin="miter" d="m14.8,54.9,20.7-14.2,170,0.2-0.601,121-18.2,13.2-173-0.401z" stroke="#000" stroke-linecap="butt" stroke-width="0.94100285px" fill="none"/>	<path filter="url(#filter5411)" fill="#e96d1f" d="m409-114c3.24,9.45,8.76,18.7,14.5,27.4,5.42,8.12,14.9,15.9,15.6,25.4,0.726,9.91-8.27,19.8-16.9,26.5,0,0-20.7,16.6-31,25.9-0.003-0.002,46.9-41.8,17.8-105z" transform="matrix(0.38784352,0,0,0.38784352,-29.417854,143.86882)"/>	<path filter="url(#filter5391)" fill="#ee3424" d="m456-164c-0.392,8.92-1.59,17.4,0.139,26.4,3.8,19.7,29.7,34.7,42.5,51.4,10.3,13.3,19.7,27.9,23.6,43.2,4.48,17.8-2.06,29.9-9.96,46.1-4.34,8.99-22,45.6-5.58,52.7,0,0,21.6,9.37,28.2-10.8,0,0,6.57-25.2,16.9-23.1,0,0-15,23.1-1.88,41.1,0,0,38.5,64.9-52.6,83.6,0,0-96.5,13.7-130-29.6,0,0-48.8-56.9,17.8-99.5,0,0,69.5-41.8,68.5-80.7-0.964-5.29-2.31-11.4-3.77-16.9-2.34-8.83-8.23-16.7-8.45-25.9-0.164-6.31,0.905-13,1.68-19.3,0.93-7.64,2.07-15.4,4.32-22.9,1.51-5.07,7.28-11.2,8.09-15.8z" transform="matrix(0.38784352,0,0,0.38784352,-29.417854,143.86882)"/>	<path filter="url(#filter5427)" fill="#ee3424" d="m393-10.4c5.49-5.37,16.1-9.37,22.5-14.5,10.4-8.38,20.9-19.4,23.7-31,3.05-12.6-10.4-25.6-19.3-35.2,0,0,15.7,17.1,9.08,27.9,0.003,0-5.01,22.6-36,52.9z" transform="matrix(0.38784352,0,0,0.38784352,-29.417854,143.86882)"/>	<path filter="url(#filter5337)" fill="#e96d1f" d="m377,120c-2.21-2.41-4.01-4.96-5.09-7.61-2.51-6.19-1.41-13.2-1.48-19.6-0.189-17.8,1.6-35,12.1-51.2,6.35-9.78,16-17.8,26.9-24.8,0.0493-0.0284,63.9-41.1,59.2-77.1,0,0,0-19.5-3.76-23.8,0,0,31.9,14.4,32.9,82.9,0,0-16.9,85.8,14.1,89.4,0,0,19.6,7.52,25-25.3,0.139-0.919,0.284-1.85,0.398-2.83,0,0,17.8,47.6-2.83,70.6-5.51,6.17-32.6,14.8-41.4,16.2-26.6,4.33-49.2,0.401-76.9-3.93-9.88-1.54-17.7-5.79-25.6-10.6-5.15-3.15-9.25-7.84-13.4-12.4z" transform="matrix(0.38784352,0,0,0.38784352,-29.417854,143.86882)"/>	<path filter="url(#filter5345)" fill="#fff100" d="m390,91.4c0.856,1.79,1.75,3.53,2.58,5.19,4.03,7.97,7.35,16.4,13,23.8,3.98,5.22,11.1,8.05,15.2,13.1,0,0-46-57.7,6.58-93.7,0,0,53.5-34.6,40.4-56.2,0,0,33.8,40.4,0.93,86.5,0,0-11.3,26-1.88,37.5,0,0,13.8-43.5,26-40.6-0.951-0.226-1.72,15.5-1.58,16.5,1.57,10.7,11.8,19.1,13.5,29.9,1.67,10.9-2.57,21.6-12.5,29.6-4.51,3.6-23.9,3.26-29.6,3.42-18.9,0.504-44.3,1.36-60.2-7.11-9.96-5.27-12.7-15.6-16-24.1-5.61-14.6-5.83-29.8,1.4-44-3.29,6.46-0.828,13.8,2.26,20.4z" transform="matrix(0.38784352,0,0,0.38784352,-29.417854,143.86882)"/>	<path filter="url(#filter5349)" fill="#f2f2f2" d="m431,47.8s-26.3,21.6-9.39,42.5c-3.48-4.29,2.49-18.3,4.41-22.8,3.57-8.27,13.5-13.9,20.6-20.7,7.53-7.22,15-14.6,21.9-22.1,0,0-30.1,37.5-16.9,66.3,0,0,8.45,17.3,16,22.3,0,0,8.75-32,18.8-38.2-5.34,0.825,10.1,28.1,12.6,30.8-0.695-1.09-1.35-2.16-2.12-3.22,7.47,10.3,10.4,34.3-2.43,42.9-3.44,2.33-14,2.5-18.5,2.95-7.48,0.732-13.3,0.588-23.1,0.588-13.4,0-26.3-5.24-32.5-14.2-5.33-7.74-6.17-17.8-9.22-26.2-3.93-10.8-9.01-22.1-6.9-33.4,1.94-10.7,13.3-23.3,26.6-27.7z" transform="matrix(0.38784352,0,0,0.38784352,-29.417854,143.86882)"/></svg>