<?xml version="1.0"?>
<?metis version="3.1"?>
<?metisxml version="1.0"?>
<!DOCTYPE svg  PUBLIC "-//W3C//DTD SVG August 1999//EN"
 "http://www.w3.org/Graphics/SVG/svg-19990812.dtd">

<svg width="200" height="200">
 <title>Symbol library: formal_competence.svg</title>
 <defs>
  <symbol id="oid0" xml:space="preserve" class="METIS_SYMBOL">
   <title>Formal Competence</title>
    <g>
      <polygon points="7.10543e-015 0 7.10543e-015 304 16.2963 320 
       880 320 880 16 863.704 0 7.10543e-015 0 
       7.10543e-015 0 7.10543e-015 0 7.10543e-015 0 7.10543e-015 0 
       7.10543e-015 0 7.10543e-015 0 "
       style=" stroke:#000000; stroke-width:1; fill:#9b9b9b; fill-opacity:100%"       class="TAG:shadow"></polygon>
      <rect x="7.10543e-015" y="0" width="240" height="304"
       style=" stroke:#000000; stroke-width:1; fill:#ffffa5; fill-opacity:100%"       class="TAG:PictureBackground"></rect>
      <rect x="240" y="0" width="624" height="304"
       style=" stroke:#000000; stroke-width:1; fill:#96a5ff; fill-opacity:100%"       class="TAG:canvas"></rect>
      <rect x="245.357" y="25.7143" width="569.522" height="231.429"
       style="stroke:none; fill:#878787; fill-opacity:0%"       class="TAG:grid"></rect>
      <g>
	<desc>METIS_TEXT_GROUP</desc>
	<text  x="256" y="15.8"
	 style=" stroke:#000000; stroke-width:1; font-family:sans-serif; font-size:16;"
	 class="TAG:text">text</text>
	<rect x="256" y="0" width="608" height="304"
	 style=" stroke:#000000; stroke-width:1; fill:#ffffff; fill-opacity:0%"></rect>
      </g>
      <polyline points="864 304 880 320"
       style=" stroke:#000000; stroke-width:1;"></polyline>
      <g>
	<polygon points="64.2974 131.488 64.2974 175.158 81.6839 189.715 
	 102.935 197.655 123.541 198.978 145.437 196.331 164.112 188.391 
	 178.923 175.158 178.923 131.488 64.2974 131.488 64.2974 131.488 
	 64.2974 131.488 64.2974 131.488 64.2974 131.488 64.2974 131.488 64.2974 131.488 "
	 style=" stroke:#000000; stroke-width:1; fill:#000000; fill-opacity:100%"	 class="TAG:GraduationCap"></polygon>
	<polygon points="211.765 139.429 208.545 232.06 224 240 
	 216.272 135.459 211.765 139.429 211.765 139.429 211.765 139.429 
	 211.765 139.429 211.765 139.429 211.765 139.429 211.765 139.429 "
	 style=" stroke:#000000; stroke-width:1; fill:#000000; fill-opacity:100%"	 class="TAG:GraduationCap"></polygon>
	<path d="M 217.083 106.346 C 221.73 114.429 221.064 118.903 
	 221.075 124.243 C 221.088 129.905 220.543 136.138 218.415 138.561 
	 C 216.55 140.685 212.892 143.399 210.874 139.456 C 206.613 131.117 
	 206.927 115.859 211.319 107.241 C 211.319 107.241 211.319 107.241 
	 211.319 107.241 Z"
	 style=" stroke:#000000; stroke-width:1; fill:#000000; fill-opacity:100%"	 class="TAG:GraduationCap"></path>
	<polygon points="100.359 64 223.356 99.7296 147.369 160.601 
	 16 118.256 100.359 64 100.359 64 100.359 64 
	 100.359 64 100.359 64 100.359 64 100.359 64 "
	 style=" stroke:#000000; stroke-width:1; fill:#000000; fill-opacity:100%"	 class="TAG:GraduationCap"></polygon>
	<polyline points="64.0851 134.046 147.207 160.008 178.063 135.344"
	 style=" stroke:#9b9b9b; stroke-width:1;"></polyline>
      </g>
    </g>
  </symbol>
 </defs>
</svg>
