<?xml version="1.0"?>
<?metis version="3.0.1"?>
<?metisxml version="1.0"?>
<!DOCTYPE svg  PUBLIC "-//W3C//DTD SVG August 1999//EN"
 "http://www.w3.org/Graphics/SVG/svg-19990812.dtd">

<svg width="200" height="200">
 <title>Symbol library: front_end_proc.svg</title>
 <defs>
  <symbol id="oid0" xml:space="preserve" class="METIS_SYMBOL">
   <title>Untitled</title>
    <polygon points="71.1677 94.3312 71.1677 94.3312 6.81907 136.989 
     6.81907 343.049 262.767 343.772 285.904 296.053 285.904 94.3312 71.1677 94.3312 "
     style=" stroke:#000000; stroke-width:1; fill:#00dc00; fill-opacity:100%"     class="TAG:polygon"></polygon>
    <polyline points="118.209 93.0885 118.209 106.284 118.209 106.555"
     style=" stroke:#000000; stroke-width:1;"></polyline>
    <polyline points="84.4983 101.042 138.634 101.042 138.634 98.5112 
     144.147 98.5112 144.147 101.042 169.091 101.042 169.091 98.5112 
     172.797 98.5112 172.797 101.042 181.112 101.042 181.112 94.0827 
     185.72 94.0827 185.72 101.042 190.42 101.042 191.053 101.042"
     style=" stroke:#000000; stroke-width:1;"></polyline>
    <polyline points="139.357 98.5112 139.357 102.036 142.972 102.036 
     142.972 98.5112"
     style=" stroke:#000000; stroke-width:1;"></polyline>
    <polyline points="185.449 101.042 184.455 99.5053 181.654 99.5053 
     181.292 99.5053"
     style=" stroke:#000000; stroke-width:1;"></polyline>
    <polyline points="184.184 99.5053 184.184 95.9806 181.382 95.9806 
     181.292 95.9806"
     style=" stroke:#000000; stroke-width:1;"></polyline>
    <polyline points="181.202 96.794 184.004 96.794 184.275 96.794"
     style=" stroke:#000000; stroke-width:1;"></polyline>
    <polyline points="148.937 102.578 148.937 105.199"
     style=" stroke:#000000; stroke-width:1;"></polyline>
    <polyline points="150.654 102.578 150.654 105.199"
     style=" stroke:#000000; stroke-width:1;"></polyline>
    <polyline points="152.552 102.578 152.552 105.199"
     style=" stroke:#000000; stroke-width:1;"></polyline>
    <polyline points="154.36 102.578 154.36 105.199"
     style=" stroke:#000000; stroke-width:1;"></polyline>
    <polyline points="156.258 102.578 156.258 105.199"
     style=" stroke:#000000; stroke-width:1;"></polyline>
    <polyline points="158.065 102.578 158.065 105.199"
     style=" stroke:#000000; stroke-width:1;"></polyline>
    <polyline points="159.873 102.578 159.873 105.199"
     style=" stroke:#000000; stroke-width:1;"></polyline>
    <polyline points="161.771 102.578 161.771 105.199"
     style=" stroke:#000000; stroke-width:1;"></polyline>
    <polyline points="163.578 102.578 163.578 105.199"
     style=" stroke:#000000; stroke-width:1;"></polyline>
    <polyline points="165.386 102.578 165.386 105.199"
     style=" stroke:#000000; stroke-width:1;"></polyline>
    <polyline points="167.284 102.578 167.284 105.199"
     style=" stroke:#000000; stroke-width:1;"></polyline>
    <polyline points="105.737 88.2082 168.097 88.2082 168.368 88.2082"
     style=" stroke:#000000; stroke-width:1;"></polyline>
    <polyline points="175.147 93.0885 175.147 106.284 175.147 106.555"
     style=" stroke:#000000; stroke-width:1;"></polyline>
    <polyline points="146.587 93.0885 146.587 106.555"
     style=" stroke:#000000; stroke-width:1;"></polyline>
    <polyline points="78.2623 111.164 154.36 111.164 154.45 111.164 
     149.57 119.885 67.1459 119.885 78.2623 110.983"
     style=" stroke:#000000; stroke-width:1;"></polyline>
    <polyline points="75.0991 113.017 153.456 112.972"
     style=" stroke:#000000; stroke-width:1;"></polyline>
    <polyline points="72.7493 115.186 152.281 115.141"
     style=" stroke:#000000; stroke-width:1;"></polyline>
    <polyline points="70.0379 117.355 151.016 117.491"
     style=" stroke:#000000; stroke-width:1;"></polyline>
    <polyline points="158.698 111.616 172.481 111.593"
     style=" stroke:#000000; stroke-width:1;"></polyline>
    <polyline points="157.433 113.537 171.713 113.514 171.893 113.514"
     style=" stroke:#000000; stroke-width:1;"></polyline>
    <polyline points="161.409 116.044 171.079 116.044"
     style=" stroke:#000000; stroke-width:1;"></polyline>
    <polyline points="154.541 119.388 170.176 119.388"
     style=" stroke:#000000; stroke-width:1;"></polyline>
    <polyline points="79.166 110.984 80.7928 109.628 84.2271 109.628 
     84.2271 111.345"
     style=" stroke:#000000; stroke-width:1;"></polyline>
    <polyline points="82.9619 111.074 84.2272 109.718"
     style=" stroke:#000000; stroke-width:1;"></polyline>
    <polyline points="67.3637 119.84 65.3383 121.376 65.3383 123.907 
     71.521 123.907 71.7342 121.467 73.653 119.84"
     style=" stroke:#000000; stroke-width:1;"     class="TAG:polyline"></polyline>
    <polyline points="73.5627 122.1 77.1778 122.1"
     style=" stroke:#000000; stroke-width:1;"     class="TAG:polyline"></polyline>
    <polyline points="138.182 121.738 77.0874 121.738"
     style=" stroke:#000000; stroke-width:1;"     class="TAG:polyline"></polyline>
    <polyline points="89.7402 111.164 91.2766 109.537 110.166 109.537 
     110.346 109.537 109.533 111.345"
     style=" stroke:#000000; stroke-width:1;"></polyline>
    <polyline points="113.781 111.164 114.594 109.718 114.594 109.628 
     132.67 109.628 132.76 109.628 132.308 111.255"
     style=" stroke:#000000; stroke-width:1;"></polyline>
    <polyline points="136.646 111.164 137.459 109.628 155.806 109.628 
     154.993 111.255"
     style=" stroke:#000000; stroke-width:1;"></polyline>
    <polyline points="95.0724 109.718 93.9879 111.254"
     style=" stroke:#000000; stroke-width:1;"></polyline>
    <polyline points="118.571 109.628 118.119 111.345"
     style=" stroke:#000000; stroke-width:1;"></polyline>
    <polyline points="141.707 109.628 140.984 111.255"
     style=" stroke:#000000; stroke-width:1;"></polyline>
    <polyline points="146.226 109.628 145.413 111.164"
     style=" stroke:#000000; stroke-width:1;"></polyline>
    <polyline points="150.925 109.628 150.112 111.345"
     style=" stroke:#000000; stroke-width:1;"></polyline>
    <polyline points="183.563 109.345 182.84 111.604"
     style=" stroke:#000000; stroke-width:1;"></polyline>
    <polyline points="189.889 109.345 189.076 111.695"
     style=" stroke:#000000; stroke-width:1;"></polyline>
    <polyline points="172.899 123.444 172.978 121.376 172.978 121.286"
     style=" stroke:#000000; stroke-width:1;"     class="TAG:polyline"></polyline>
    <polyline points="81.8773 111.345 79.9794 112.972"
     style=" stroke:#000000; stroke-width:1;"></polyline>
    <polyline points="115.408 111.254 114.504 113.152"
     style=" stroke:#000000; stroke-width:1;"></polyline>
    <polyline points="119.384 111.254 118.299 113.062"
     style=" stroke:#000000; stroke-width:1;"></polyline>
    <polyline points="85.3117 113.152 83.8657 115.14"
     style=" stroke:#000000; stroke-width:1;"></polyline>
    <polyline points="89.2883 113.062 88.023 115.141"
     style=" stroke:#000000; stroke-width:1;"></polyline>
    <polyline points="96.7896 113.062 95.7955 115.321"
     style=" stroke:#000000; stroke-width:1;"></polyline>
    <polyline points="132.127 112.972 130.771 115.322"
     style=" stroke:#000000; stroke-width:1;"></polyline>
    <polyline points="118.661 115.231 117.486 117.4"
     style=" stroke:#000000; stroke-width:1;"></polyline>
    <polyline points="80.3409 117.4 78.8045 119.931"
     style=" stroke:#000000; stroke-width:1;"></polyline>
    <polyline points="85.5828 117.4 84.4079 119.75"
     style=" stroke:#000000; stroke-width:1;"></polyline>
    <polyline points="90.1017 117.31 89.1979 119.569"
     style=" stroke:#000000; stroke-width:1;"></polyline>
    <polyline points="98.326 117.49 97.5126 119.749"
     style=" stroke:#000000; stroke-width:1;"></polyline>
    <polyline points="102.755 117.49 101.851 119.84"
     style=" stroke:#000000; stroke-width:1;"></polyline>
    <polyline points="107.273 117.49 106.279 119.84"
     style=" stroke:#000000; stroke-width:1;"></polyline>
    <polyline points="115.588 117.581 114.684 119.84"
     style=" stroke:#000000; stroke-width:1;"></polyline>
    <polyline points="127.88 117.49 126.524 119.84"
     style=" stroke:#000000; stroke-width:1;"></polyline>
    <polyline points="137.82 117.49 136.284 119.749"
     style=" stroke:#000000; stroke-width:1;"></polyline>
    <polyline points="142.25 117.4 140.623 119.84"
     style=" stroke:#000000; stroke-width:1;"></polyline>
    <polyline points="85.4925 120.292 84.9502 122.009 84.9502 123.726 
     84.9502 123.997"
     style=" stroke:#000000; stroke-width:1;"     class="TAG:polyline"></polyline>
    <polyline points="132.669 120.111 131.133 121.919 131.133 123.816 
     131.223 123.997"
     style=" stroke:#000000; stroke-width:1;"     class="TAG:polyline"></polyline>
    <polyline points="195.03 113.152 175.96 113.152 175.418 113.152"
     style=" stroke:#000000; stroke-width:1;"></polyline>
    <polyline points="175.056 114.96 194.68 114.949"
     style=" stroke:#000000; stroke-width:1;"></polyline>
    <polyline points="174.514 116.857 194.318 116.846"
     style=" stroke:#000000; stroke-width:1;"></polyline>
    <polyline points="65.4287 121.467 71.5744 121.467"
     style=" stroke:#000000; stroke-width:1;"     class="TAG:polyline"></polyline>
    <polyline points="196.216 111.695 196.759 109.345 177.948 109.352 
     176.966 111.695"
     style=" stroke:#000000; stroke-width:1;"></polyline>
    <polyline points="73.5627 119.931 73.6531 122.01 71.5744 123.817"
     style=" stroke:#000000; stroke-width:1;"     class="TAG:polyline"></polyline>
    <polyline points="81.4255 113.062 79.7083 115.05"
     style=" stroke:#000000; stroke-width:1;"></polyline>
    <polyline points="85.7636 111.164 83.7753 112.972"
     style=" stroke:#000000; stroke-width:1;"></polyline>
    <polyline points="80.612 115.141 79.166 117.129"
     style=" stroke:#000000; stroke-width:1;"></polyline>
    <polyline points="86.0347 115.321 84.8598 117.4"
     style=" stroke:#000000; stroke-width:1;"></polyline>
    <polyline points="90.0113 115.321 89.1075 117.219"
     style=" stroke:#000000; stroke-width:1;"></polyline>
    <polyline points="89.1075 111.254 87.5711 113.062"
     style=" stroke:#000000; stroke-width:1;"></polyline>
    <polyline points="92.9034 111.164 91.367 113.062"
     style=" stroke:#000000; stroke-width:1;"></polyline>
    <polyline points="78.5334 119.931 77.0874 121.829 77.0874 123.908 
     77.0874 123.998 137.894 123.998 138.092 123.998 138.092 121.919 
     138.092 121.829 139.267 120.021"
     style=" stroke:#000000; stroke-width:1;"     class="TAG:polyline"></polyline>
    <polyline points="100.224 111.074 98.8683 113.062"
     style=" stroke:#000000; stroke-width:1;"></polyline>
    <polyline points="96.6992 111.164 95.2532 113.062"
     style=" stroke:#000000; stroke-width:1;"></polyline>
    <polyline points="104.02 111.164 103.026 113.152"
     style=" stroke:#000000; stroke-width:1;"></polyline>
    <polyline points="107.635 111.254 106.55 113.062"
     style=" stroke:#000000; stroke-width:1;"></polyline>
    <polyline points="110.618 115.231 109.714 117.219"
     style=" stroke:#000000; stroke-width:1;"></polyline>
    <polyline points="99.8624 109.628 98.8683 111.074"
     style=" stroke:#000000; stroke-width:1;"></polyline>
    <polyline points="104.652 109.718 103.839 111.345"
     style=" stroke:#000000; stroke-width:1;"></polyline>
    <polyline points="93.8071 115.321 92.813 117.4"
     style=" stroke:#000000; stroke-width:1;"></polyline>
    <polyline points="97.8741 115.412 96.88 117.4"
     style=" stroke:#000000; stroke-width:1;"></polyline>
    <polyline points="94.2591 117.4 93.3553 119.659"
     style=" stroke:#000000; stroke-width:1;"></polyline>
    <polyline points="102.031 115.502 101.218 117.4"
     style=" stroke:#000000; stroke-width:1;"></polyline>
    <polyline points="104.833 113.152 104.02 115.411"
     style=" stroke:#000000; stroke-width:1;"></polyline>
    <polyline points="101.037 113.243 100.043 115.322"
     style=" stroke:#000000; stroke-width:1;"></polyline>
    <polyline points="108.9 113.243 107.906 115.141"
     style=" stroke:#000000; stroke-width:1;"></polyline>
    <polyline points="111.702 111.254 110.708 113.062"
     style=" stroke:#000000; stroke-width:1;"></polyline>
    <polyline points="114.865 115.231 113.871 117.4"
     style=" stroke:#000000; stroke-width:1;"></polyline>
    <polyline points="92.813 113.062 91.7285 115.141"
     style=" stroke:#000000; stroke-width:1;"></polyline>
    <polyline points="106.188 115.231 105.375 117.219"
     style=" stroke:#000000; stroke-width:1;"></polyline>
    <polyline points="111.702 117.4 110.527 119.931"
     style=" stroke:#000000; stroke-width:1;"></polyline>
    <polyline points="112.425 113.152 111.702 115.321"
     style=" stroke:#000000; stroke-width:1;"></polyline>
    <polyline points="121.191 112.881 119.926 115.321"
     style=" stroke:#000000; stroke-width:1;"></polyline>
    <polyline points="121.914 115.141 121.101 117.4"
     style=" stroke:#000000; stroke-width:1;"></polyline>
    <polyline points="124.535 112.881 123.541 115.05"
     style=" stroke:#000000; stroke-width:1;"></polyline>
    <polyline points="122.909 109.628 122.547 111.345"
     style=" stroke:#000000; stroke-width:1;"></polyline>
    <polyline points="123.089 111.254 122.276 113.062"
     style=" stroke:#000000; stroke-width:1;"></polyline>
    <polyline points="127.699 109.718 127.247 111.164"
     style=" stroke:#000000; stroke-width:1;"></polyline>
    <polyline points="120.017 117.49 118.932 119.93"
     style=" stroke:#000000; stroke-width:1;"></polyline>
    <polyline points="123.722 117.49 122.547 119.84"
     style=" stroke:#000000; stroke-width:1;"></polyline>
    <polyline points="128.06 113.152 126.795 115.231"
     style=" stroke:#000000; stroke-width:1;"></polyline>
    <polyline points="126.975 111.254 126.162 113.062"
     style=" stroke:#000000; stroke-width:1;"></polyline>
    <polyline points="125.8 115.141 124.987 117.31"
     style=" stroke:#000000; stroke-width:1;"></polyline>
    <polyline points="130.32 111.164 129.687 112.881"
     style=" stroke:#000000; stroke-width:1;"></polyline>
    <polyline points="129.958 115.231 128.964 117.219"
     style=" stroke:#000000; stroke-width:1;"></polyline>
    <polyline points="135.562 112.972 134.477 115.141"
     style=" stroke:#000000; stroke-width:1;"></polyline>
    <polyline points="133.935 111.164 133.212 113.062"
     style=" stroke:#000000; stroke-width:1;"></polyline>
    <polyline points="138.273 111.254 137.369 113.062"
     style=" stroke:#000000; stroke-width:1;"></polyline>
    <polyline points="140.171 115.141 138.996 117.491"
     style=" stroke:#000000; stroke-width:1;"></polyline>
    <polyline points="132.76 117.581 131.133 119.84"
     style=" stroke:#000000; stroke-width:1;"></polyline>
    <polyline points="144.147 113.062 143.334 115.231"
     style=" stroke:#000000; stroke-width:1;"></polyline>
    <polyline points="142.34 111.164 141.436 112.881"
     style=" stroke:#000000; stroke-width:1;"></polyline>
    <polyline points="148.215 113.062 147.13 115.141"
     style=" stroke:#000000; stroke-width:1;"></polyline>
    <polyline points="146.949 111.345 146.045 112.972"
     style=" stroke:#000000; stroke-width:1;"></polyline>
    <polyline points="159.511 109.718 173.158 109.718 170.989 116.044 
     156.054 116.047 159.511 109.808 156.054 116.056 156.054 118.36"
     style=" stroke:#000000; stroke-width:1;"></polyline>
    <polyline points="153.546 121.286 169.543 121.286"
     style=" stroke:#000000; stroke-width:1;"     class="TAG:polyline"></polyline>
    <polyline points="154.451 119.388 153.366 121.286 153.366 123.365 
     169.453 123.365 169.453 123.365 169.453 121.286 170.086 119.478"
     style=" stroke:#000000; stroke-width:1;"     class="TAG:polyline"></polyline>
    <polyline points="165.567 118.327 171.01 118.304 171.08 118.304 
     171.08 117.4 171.08 116.316 171.08 116.135"
     style=" stroke:#000000; stroke-width:1;"></polyline>
    <polyline points="164.302 109.718 161.229 116.044 161.229 117.4"
     style=" stroke:#000000; stroke-width:1;"></polyline>
    <polyline points="168.368 109.718 165.657 116.044 165.657 118.304"
     style=" stroke:#000000; stroke-width:1;"></polyline>
    <polyline points="122.276 81.2491 121.644 81.4298 121.372 81.701 
     121.282 81.8817 121.282 82.0625 121.463 82.2432 121.915 82.6047 
     125.078 83.4181 129.235 83.7796 137.459 84.1411 143.696 84.3219 
     151.468 83.9604 156.258 83.6893 159.512 83.2374 161.681 82.6047 
     162.132 82.2432 162.223 82.0625 162.223 81.8817 162.042 81.701 
     161.861 81.4298 161.5 81.3395 161.138 81.1587"
     style=" stroke:#000000; stroke-width:1;"></polyline>
    <polyline points="82.8715 107.911 82.8715 91.9137 82.8715 91.7329 
     98.7327 81.5203 112.832 81.5203"
     style=" stroke:#000000; stroke-width:1;"></polyline>
    <polyline points="192.77 107.91 192.77 91.9137 192.77 91.7329 
     197.244 81.4299 173.113 81.4751"
     style=" stroke:#000000; stroke-width:1;"></polyline>
    <polyline points="82.9619 91.8233 192.138 91.8233 192.861 91.8233"
     style=" stroke:#000000; stroke-width:1;"></polyline>
    <polyline points="100.224 69.8616 100.224 18.3465 100.224 18.2562 
     100.405 17.6235 100.857 16.8101 101.309 16.2679 101.76 15.9967 
     102.574 15.816 103.297 15.7256 174.153 15.7256 175.327 15.816 
     175.87 16.1775 176.502 16.6294 176.864 16.9005 176.954 17.6235 
     177.135 18.0754 177.135 69.5904 177.135 70.1327 176.954 70.7653 
     176.502 71.5787 176.051 71.9402 175.418 72.2114 174.695 72.5729 
     174.062 72.6633 103.568 72.6633 103.116 72.6633 102.212 72.5729 
     101.58 72.2114 101.037 71.9402 100.586 71.4883 100.405 70.9461 
     100.224 70.4038 100.224 69.8616"
     style=" stroke:#000000; stroke-width:1;"></polyline>
    <polyline points="102.573 67.331 102.573 20.2445 103.025 19.4311 
     103.929 18.6177 104.562 18.3466 105.285 18.2562 172.164 18.2562 
     173.068 18.5273 173.61 18.6177 174.152 19.0696 174.514 19.5215 
     174.785 20.2445 174.785 20.4252 174.785 68.1444 174.694 68.5059 
     174.333 68.9578 174.062 69.5905 173.881 69.8616 173.429 70.0424 
     172.797 70.3135 105.465 70.3135 104.833 70.3135 103.929 70.2231 
     103.206 69.8616 102.754 69.4097 102.664 69.1386 102.483 68.4156 
     102.573 67.6925 102.573 67.5118 102.573 67.331"
     style=" stroke:#000000; stroke-width:1;"     class="TAG:polyline"></polyline>
    <polyline points="171.622 77.7244 171.622 76.6399 173.701 76.6399 
     173.701 77.7244 171.622 77.7244"
     style=" stroke:#000000; stroke-width:1;"></polyline>
    <polyline points="92.6323 77.4533 92.5419 10.1223 92.7227 9.30885 
     93.3553 8.3147 93.9879 7.86282 94.4398 7.59169 95.0725 7.32055 
     96.0666 7.1398 181.292 7.1398 182.558 7.41093 183.552 7.86282 
     184.004 8.3147 184.275 8.67621 184.636 9.57999 184.727 10.303 
     184.727 77.4533 184.636 78.1763 184.456 79.0801 183.823 79.7127 
     183.01 80.3454 182.106 80.6165 181.654 80.7972 95.7051 80.7972 
     94.6206 80.6165 93.8072 80.1646 93.3553 79.7127 92.9034 78.9897 
     92.7227 78.3571 92.5419 77.3629"
     style=" stroke:#000000; stroke-width:1;"></polyline>
    <polyline points="94.0783 76.2784 94.0783 11.2972 94.2591 10.3934 
     94.8917 9.57998 95.5243 9.1281 95.9762 8.76659 96.6089 8.49546 
     97.4223 8.40508 180.117 8.40508 181.292 8.67621 182.196 9.1281 
     182.648 9.57998 183.01 9.85112 183.281 10.7549 183.461 11.4779 
     183.461 76.2784 183.281 77.0918 183.1 77.9052 182.558 78.5378 
     181.744 79.0801 180.84 79.4416 180.389 79.532 97.1511 79.532 
     96.0666 79.4416 95.3436 78.9897 94.8917 78.5378 94.4398 77.8148 
     94.2591 77.1822 94.0783 76.2784"
     style=" stroke:#000000; stroke-width:1;"></polyline>
    <polyline points="84.4079 93.0885 190.963 93.0885 190.963 106.284 
     190.963 106.555 84.7694 106.555 84.4079 106.555 84.4079 93.45 
     84.4079 93.0885"
     style=" stroke:#000000; stroke-width:1;"></polyline>
    <polyline points="120.288 96.1614 144.057 96.1614 144.057 96.9748 
     120.288 96.9748 120.288 96.1614"
     style=" stroke:#000000; stroke-width:1;"></polyline>
    <polyline points="127.608 96.1613 127.608 93.9019 137.278 93.9019 
     137.278 96.1613"
     style=" stroke:#000000; stroke-width:1;"></polyline>
    <polyline points="137.278 96.9748 137.278 99.2342 127.608 99.2342 
     127.608 96.9748"
     style=" stroke:#000000; stroke-width:1;"></polyline>
    <polyline points="120.288 93.9019 122.457 93.9019 122.457 94.896 
     120.288 94.896 120.288 93.9019"
     style=" stroke:#000000; stroke-width:1;"></polyline>
    <polyline points="169.634 102.578 169.634 101.765 171.803 101.765 
     171.803 102.578 169.634 102.578"
     style=" stroke:#000000; stroke-width:1;"></polyline>
    <polyline points="187.528 98.5112 187.618 98.1497 187.709 97.8785 
     188.161 97.6074 188.432 97.6074 188.793 97.6978 189.064 97.9689 
     189.245 98.4208 189.245 98.6015 189.155 98.8727 188.884 99.2342 
     188.613 99.3246 188.161 99.3246 187.799 99.1438 187.618 98.8727 
     187.528 98.5112"
     style=" stroke:#000000; stroke-width:1;"></polyline>
    <polyline points="78.8837 108.092 202.893 108.092 198.952 127.104 
     55.5889 127.104 78.7161 107.775"
     style=" stroke:#000000; stroke-width:1;"     class="TAG:polyline"></polyline>
    <g>
      <desc>METIS_TEXT_GROUP</desc>
      <text  x="88.1586" y="150.493"
       style=" stroke:#000000; stroke-width:1; font-family:sans-serif; font-size:18;"
       class="TAG:text_unknown_"></text>
      <rect x="88.1586" y="132.493" width="0" height="0"
       style=" stroke:#000000; stroke-width:1; fill:#00dc00; fill-opacity:100%"></rect>
    </g>
    <polyline points="94.3042 7.09461 94.3042 7.09461 125.867 0 
     191.098 0 181.699 7.23018"
     style=" stroke:#000000; stroke-width:1;"></polyline>
    <polyline points="190.872 0.700424 190.872 0.700424 191.55 0.83599 
     192.228 1.24269 192.589 1.83014 192.905 2.82428 192.951 3.32136"
     style=" stroke:#000000; stroke-width:1;"></polyline>
    <polyline points="192.905 2.25943 192.905 2.25943 184.681 10.0771"
     style=" stroke:#000000; stroke-width:1;"></polyline>
    <polyline points="192.906 2.25943 192.906 2.25943 192.906 63.7114 
     184.591 78.0859"
     style=" stroke:#000000; stroke-width:1;"></polyline>
    <polyline points="193.268 52.0573 193.268 52.0573 199.413 39.4045 
     199.413 7.9532 192.906 9.1281"
     style=" stroke:#000000; stroke-width:1;"></polyline>
    <polyline points="199.774 7.59169 199.774 7.59169 193.267 7.59169"
     style=" stroke:#000000; stroke-width:1;"></polyline>
    <polyline points="168.323 88.3889 168.323 88.3889 173.023 80.7972"
     style=" stroke:#000000; stroke-width:1;"></polyline>
    <polyline points="105.24 88.1178 105.24 88.1178 113.374 80.7069"
     style=" stroke:#000000; stroke-width:1;"></polyline>
    <polyline points="105.059 88.1178 105.059 88.1178 105.059 89.9253 
     168.504 89.7446"
     style=" stroke:#000000; stroke-width:1;"></polyline>
    <polyline points="168.414 88.163 168.414 88.163 168.414 89.6994 
     172.933 82.1981 172.933 80.7521"
     style=" stroke:#000000; stroke-width:1;"></polyline>
    <polyline points="197.244 81.4299 197.244 81.4299 197.244 95.7095 
     192.725 108.001"
     style=" stroke:#000000; stroke-width:1;"></polyline>
    <polyline points="154.541 111.187 155.038 111.187"
     style=" stroke:#000000; stroke-width:1;"></polyline>
    <polyline points="116.492 113.062 116.492 113.062 115.769 115.05"
     style=" stroke:#000000; stroke-width:1;"></polyline>
    <polyline points="144.87 115.231 143.424 117.49"
     style=" stroke:#000000; stroke-width:1;"></polyline>
    <polyline points="139.267 120.111 139.267 120.111 139.267 122.461 
     138.002 124.088"
     style=" stroke:#000000; stroke-width:1;"     class="TAG:polyline"></polyline>
    <polyline points="139.719 112.972 139.719 112.972 138.815 115.141"
     style=" stroke:#000000; stroke-width:1;"></polyline>
    <polyline points="135.02 115.141 135.02 115.141 133.935 117.491"
     style=" stroke:#000000; stroke-width:1;"></polyline>
    <polygon points="132.94 121.829 132.94 121.829 132.94 121.829 
     132.94 121.829 132.94 121.829 "
     style=" stroke:#000000; stroke-width:1; fill:#00dc00; fill-opacity:100%"     class="TAG:polygon"></polygon>
    <polygon points="142.43 123.726 148.847 123.726 148.847 121.467 
     142.43 121.467 142.43 123.726 "
     style=" stroke:#000000; stroke-width:1; fill:#00dc00; fill-opacity:100%"     class="TAG:polygon"></polygon>
    <polyline points="149.66 119.84 149.66 119.84 148.847 121.467"
     style=" stroke:#000000; stroke-width:1;"     class="TAG:polyline"></polyline>
    <polyline points="143.425 119.931 143.425 119.931 142.34 121.467"
     style=" stroke:#000000; stroke-width:1;"     class="TAG:polyline"></polyline>
    <polyline points="149.57 119.84 149.57 119.84 149.57 122.28 
     148.847 123.726"
     style=" stroke:#000000; stroke-width:1;"     class="TAG:polyline"></polyline>
    <polyline points="155.806 109.628 155.806 109.628 155.806 111.707 
     155.083 112.882 155.083 111.164"
     style=" stroke:#000000; stroke-width:1;"></polyline>
    <polyline points="154.541 111.164 154.541 111.164 154.541 113.333 
     149.57 122.19"
     style=" stroke:#000000; stroke-width:1;"     class="TAG:polyline"></polyline>
    <polyline points="153.456 112.972 153.456 112.972 153.456 115.231"
     style=" stroke:#000000; stroke-width:1;"></polyline>
    <polyline points="152.281 115.141 152.281 115.141 152.281 117.4"
     style=" stroke:#000000; stroke-width:1;"></polyline>
    <polyline points="150.926 117.49 150.926 117.49 150.926 119.659"
     style=" stroke:#000000; stroke-width:1;"></polyline>
    <polyline points="139.267 122.19 140.713 122.19 142.43 122.19"
     style=" stroke:#000000; stroke-width:1;"     class="TAG:polyline"></polyline>
    <polyline points="158.427 123.365 158.427 121.286 160.506 117.4 
     165.476 117.4 163.669 121.377 163.669 123.365"
     style=" stroke:#000000; stroke-width:1;"     class="TAG:polyline"></polyline>
    <polyline points="155.987 118.394 155.987 118.394 160.054 118.394"
     style=" stroke:#000000; stroke-width:1;"></polyline>
    <polyline points="165.567 117.4 165.567 117.4 165.567 119.388"
     style=" stroke:#000000; stroke-width:1;"></polyline>
    <polyline points="173.159 109.808 173.159 112 171.08 118.303"
     style=" stroke:#000000; stroke-width:1;"></polyline>
    <polyline points="172.526 111.706 172.526 111.706 172.526 113.694"
     style=" stroke:#000000; stroke-width:1;"></polyline>
    <polyline points="171.893 113.559 171.893 113.559 171.893 115.909"
     style=" stroke:#000000; stroke-width:1;"></polyline>
    <polyline points="155.083 112.859 155.083 112.859 154.541 112.859"
     style=" stroke:#000000; stroke-width:1;"></polyline>
    <polyline points="170.131 119.321 170.131 119.321 170.131 121.445 
     169.498 123.343"
     style=" stroke:#000000; stroke-width:1;"     class="TAG:polyline"></polyline>
    <polyline points="175.791 111.605 175.791 111.605 195.222 111.605"
     style=" stroke:#000000; stroke-width:1;"></polyline>
    <polyline points="175.972 111.514 172.899 121.184 193.415 121.184 
     195.403 111.711 175.881 111.711"
     style=" stroke:#000000; stroke-width:1;"     class="TAG:polyline"></polyline>
    <polyline points="173.712 119.106 173.712 119.106 193.956 119.106"
     style=" stroke:#000000; stroke-width:1;"></polyline>
    <polyline points="180.31 111.695 180.31 111.695 177.508 121.185 
     177.508 123.534"
     style=" stroke:#000000; stroke-width:1;"     class="TAG:polyline"></polyline>
    <polyline points="185.461 111.695 185.461 111.695 183.021 121.185 
     183.021 123.534"
     style=" stroke:#000000; stroke-width:1;"     class="TAG:polyline"></polyline>
    <polyline points="190.432 111.695 190.432 111.695 188.263 121.185 
     188.263 123.354"
     style=" stroke:#000000; stroke-width:1;"     class="TAG:polyline"></polyline>
    <polyline points="193.505 121.185 193.505 121.185 193.505 123.444"
     style=" stroke:#000000; stroke-width:1;"     class="TAG:polyline"></polyline>
    <polyline points="195.493 111.605 195.493 111.605 195.493 113.864 
     193.505 123.444 172.899 123.444"
     style=" stroke:#000000; stroke-width:1;"     class="TAG:polyline"></polyline>
    <polyline points="196.126 111.695 196.126 111.695 194.861 111.695"
     style=" stroke:#000000; stroke-width:1;"></polyline>
    <polyline points="55.5889 127.104 55.5889 127.104 55.5889 130.177 
     199.289 130.357 202.882 113.163 202.882 108.102"
     style=" stroke:#000000; stroke-width:1;"     class="TAG:polyline"></polyline>
    <polyline points="199.108 127.104 199.108 127.104 199.108 130.358"
     style=" stroke:#000000; stroke-width:1;"     class="TAG:polyline"></polyline>
    <polyline points="215.715 110.746 215.715 110.746 212.733 117.75 
     212.733 120.462 213.998 123.083 216.8 124.528 220.325 124.619 
     222.674 123.444 224.121 121.637 224.844 118.473 226.199 111.695"
     style=" stroke:#000000; stroke-width:1;"     class="TAG:polyline"></polyline>
    <polyline points="215.715 110.656 215.715 110.656 217.342 109.797 
     220.053 109.074 222.674 109.074 224.572 109.797 226.289 111.695"
     style=" stroke:#000000; stroke-width:1;"></polyline>
    <polyline points="213.998 114.677 215.173 113.593 217.342 112.96 
     220.324 112.96 223.307 113.864 225.295 115.491"
     style=" stroke:#000000; stroke-width:1;"></polyline>
    <polyline points="221.138 109.074 220.053 113.141"
     style=" stroke:#000000; stroke-width:1;"></polyline>
    <polyline points="226.289 111.876 226.289 114.226 224.21 123.535 
     222.312 125.071 220.234 125.794 216.709 125.613 213.817 124.167 
     212.642 122.269 212.642 120.643"
     style=" stroke:#000000; stroke-width:1;"     class="TAG:polyline"></polyline>
    <polyline points="196.917 107.944 196.917 107.944 199.99 104.51 
     203.424 97.4605 202.34 92.5802 199.086 91.3149 197.098 91.3149"
     style=" stroke:#000000; stroke-width:1;"></polyline>
    <polyline points="198.002 107.944 198.002 107.944 200.713 105.052 
     204.328 97.8221 202.882 91.9927 199.267 90.5467 197.369 90.5467"
     style=" stroke:#000000; stroke-width:1;"></polyline>
    <polyline points="221.68 109.074 221.68 109.074 222.584 106.363 
     221.409 101.03 217.252 94.4329 211.377 90.9082 203.966 88.6483 
     197.188 88.6483"
     style=" stroke:#000000; stroke-width:1;"></polyline>
    <polyline points="221.047 109.074 221.047 109.074 222.041 106.363 
     220.776 101.03 216.89 94.704 210.925 91.2697 203.695 89.1002 
     197.097 89.1002"
     style=" stroke:#000000; stroke-width:1;"></polyline>
    <polygon points="6.81907 343.772 262.767 343.772 262.767 136.989 
     6.81907 136.989 6.81907 343.772 "
     style=" stroke:#000000; stroke-width:1; fill:#00dc00; fill-opacity:100%"     class="TAG:polygon"></polygon>
    <polyline points="6.81907 136.989 6.81907 136.989 71.1677 94.3312 
     82.736 94.3312"
     style=" stroke:#000000; stroke-width:1;"     class="TAG:polyline"></polyline>
    <polyline points="196.973 94.3312 285.904 94.3312 262.045 138.435"
     style=" stroke:#000000; stroke-width:1;"     class="TAG:polyline"></polyline>
    <polyline points="285.904 94.3312 285.904 94.3312 285.904 294.607 
     262.767 344.495"
     style=" stroke:#000000; stroke-width:1;"     class="TAG:polyline"></polyline>
    <polyline points="81.2899 137.712 81.2899 137.712 81.2899 343.772"
     style=" stroke:#000000; stroke-width:1;"     class="TAG:polyline"></polyline>
    <polygon points="14.0492 155.788 38.6318 155.788 38.6318 147.112 
     14.0492 147.112 14.0492 155.788 "
     style=" stroke:#000000; stroke-width:1; fill:#00dc00; fill-opacity:100%"     class="TAG:polygon"></polygon>
    <polyline points="21.4602 147.112 21.4602 147.112 21.4602 155.788"
     style=" stroke:#000000; stroke-width:1;"     class="TAG:polyline"></polyline>
    <polyline points="29.0519 147.112 29.0519 147.112 29.0519 155.788"
     style=" stroke:#000000; stroke-width:1;"     class="TAG:polyline"></polyline>
    <polyline points="6.81907 202.784 6.81907 202.784 262.767 202.784"
     style=" stroke:#000000; stroke-width:1;"     class="TAG:polyline"></polyline>
    <polyline points="6.81907 212.906 6.81907 212.906 262.767 212.906"
     style=" stroke:#000000; stroke-width:1;"     class="TAG:polyline"></polyline>
    <polyline points="6.81907 223.028 6.81907 223.028 262.767 223.028"
     style=" stroke:#000000; stroke-width:1;"     class="TAG:polyline"></polyline>
    <polyline points="6.81907 233.874 6.81907 233.874 262.767 233.874"
     style=" stroke:#000000; stroke-width:1;"     class="TAG:polyline"></polyline>
    <polyline points="6.09605 244.719 6.09605 244.719 262.044 244.719"
     style=" stroke:#000000; stroke-width:1;"     class="TAG:polyline"></polyline>
    <polyline points="7.54209 256.287 7.54209 256.287 263.49 256.287"
     style=" stroke:#000000; stroke-width:1;"     class="TAG:polyline"></polyline>
    <polyline points="7.54209 267.132 7.54209 267.132 263.49 267.132"
     style=" stroke:#000000; stroke-width:1;"     class="TAG:polyline"></polyline>
    <polyline points="8.26511 277.255 8.26511 277.255 264.213 277.255"
     style=" stroke:#000000; stroke-width:1;"     class="TAG:polyline"></polyline>
    <polyline points="8.26511 287.377 8.26511 287.377 264.213 287.377"
     style=" stroke:#000000; stroke-width:1;"     class="TAG:polyline"></polyline>
    <polyline points="6.81907 298.945 6.81907 298.945 262.767 298.945"
     style=" stroke:#000000; stroke-width:1;"     class="TAG:polyline"></polyline>
    <polyline points="7.54209 310.514 7.54209 310.514 263.49 310.514"
     style=" stroke:#000000; stroke-width:1;"     class="TAG:polyline"></polyline>
    <polyline points="7.54209 320.636 7.54209 320.636 263.49 320.636"
     style=" stroke:#000000; stroke-width:1;"     class="TAG:polyline"></polyline>
    <polyline points="7.54209 331.481 7.54209 331.481 263.49 331.481"
     style=" stroke:#000000; stroke-width:1;"     class="TAG:polyline"></polyline>
    <g>
      <desc>METIS_TEXT_GROUP</desc>
      <text  x="0" y="366.048"
       style=" stroke:#000000; stroke-width:1; font-family:sans-serif; font-size:16; text-align:center"
       class="TAG:text">text</text>
      <rect x="0" y="350.248" width="305" height="99"
       style=" stroke:#000000; stroke-width:1; fill:#ffffff; fill-opacity:0%"></rect>
    </g>
  </symbol>
 </defs>
</svg>
