<?xml version="1.0"?>
<?metis version="3.2"?>
<?metisxml version="1.1"?>
<!DOCTYPE svg  PUBLIC "-//W3C//DTD SVG August 1999//EN"
 "http://www.w3.org/Graphics/SVG/svg-19990812.dtd">

<svg width="200" height="200">
 <title>Symbol library: function.svg</title>
 <defs>
  <symbol id="oid1" xml:space="preserve" class="METIS_SYMBOL">
   <title>Untitled</title>
    <g>
      <rect x="0" y="0" width="199.71" height="218.625"
       style=" stroke:#000000; stroke-width:1; fill:#ffffa5; fill-opacity:100%"       class="TAG:PictureBackground"></rect>
      <rect x="199.71" y="0" width="456.48" height="218.625"
       style=" stroke:#000000; stroke-width:1; fill:#ffa596; fill-opacity:100%"></rect>
      <g>
	<desc>METIS_TEXT_GROUP</desc>
	<text  x="199.71" y="14"
	 style=" stroke:#000000; stroke-width:1; font-family:sans-serif; font-size:15;"
	 class="TAG:text">text</text>
	<rect x="199.71" y="0" width="456.48" height="217.381"
	 style=" stroke:#000000; stroke-width:1; fill:#ffffff; fill-opacity:0%"></rect>
      </g>
      <g>
	<g>
	  <polygon points="93.4903 70.5572 81.4342 68.2482 68.0047 72.2506 
	   69.9886 69.3258 75.6351 66.0931 73.8038 63.0144 76.2456 60.0897 
	   94.7111 48.0826 98.3737 47.159 101.426 49.9298 104.783 50.3917 
	   107.835 48.2365 111.498 49.3141 112.566 53.4704 115.924 55.0097 
	   121.112 53.9322 124.47 56.5491 124.47 61.4751 127.217 63.784 
	   133.168 64.092 135.61 66.8629 135.152 71.4809 136.984 73.7899 
	   142.325 74.7136 144.461 77.6383 142.783 82.7182 144.614 85.643 
	   149.345 86.2587 150.871 89.6454 148.582 93.032 149.65 95.9567 
	   155.144 98.1118 156.212 101.652 152.397 103.961 152.855 106.578 
	   157.891 109.503 158.044 111.658 153.313 115.507 158.196 119.355 
	   157.433 122.434 152.092 125.974 154.534 129.053 152.244 131.824 
	   146.14 134.441 146.293 136.134 131.642 147.063 127.522 147.063 
	   125.538 144.447 120.349 147.987 116.992 147.063 115.161 142.445 
	   112.109 140.136 105.546 141.983 102.494 140.598 102.036 134.441 
	   99.8998 132.132 92.2693 132.593 89.9803 129.823 90.896 122.895 
	   89.3698 121.048 82.5025 120.74 80.8238 118.124 81.8921 112.274 
	   80.8238 110.427 73.8038 108.272 72.4303 105.655 76.5507 100.575 
	   75.6351 98.5737 68.0047 94.7252 67.5469 91.3386 72.1251 88.4138 
	   71.8199 86.2587 66.7838 83.6419 66.4786 81.0249 70.4464 78.408 
	   68.0047 72.2506 81.4342 68.5561 93.4903 71.0191 93.4903 73.1741 
	   93.9482 77.6383 94.8637 82.1025 96.3898 86.5666 100.51 95.187 
	   105.852 103.346 111.956 110.427 118.365 116.43 124.622 120.894 
	   127.522 122.434 131.642 123.819 139.273 106.116 111.04 70.2494 
	   93.4903 70.5572 93.4903 70.5572 93.4903 70.5572 93.4903 70.5572 93.4903 70.5572 "
	   style="stroke:none; fill:#0085ff; fill-opacity:100%"></polygon>
	  <polyline points="93.4903 70.5572 81.4342 68.2482 68.0047 72.2506 
	   69.9886 69.3258 75.6351 66.0931 73.8038 63.0144 76.2456 60.0897 
	   94.7111 48.0826 98.3737 47.159 101.426 49.9298 104.783 50.3917 
	   107.835 48.2365 111.498 49.3141 112.566 53.4704 115.924 55.0097 
	   121.112 53.9322 124.47 56.5491 124.47 61.4751 127.217 63.784 
	   133.168 64.092 135.61 66.8629 135.152 71.4809 136.984 73.7899 
	   142.325 74.7136 144.461 77.6383 142.783 82.7182 144.614 85.643 
	   149.345 86.2587 150.871 89.6454 148.582 93.032 149.65 95.9567 
	   155.144 98.1118 156.212 101.652 152.397 103.961 152.855 106.578 
	   157.891 109.503 158.044 111.658 153.313 115.507 158.196 119.355 
	   157.433 122.434 152.092 125.974 154.534 129.053 152.244 131.824 
	   146.14 134.441 146.293 136.134 131.642 147.063 127.522 147.063 
	   125.538 144.447 120.349 147.987 116.992 147.063 115.161 142.445 
	   112.109 140.136 105.546 141.983 102.494 140.598 102.036 134.441 
	   99.8998 132.132 92.2693 132.593 89.9803 129.823 90.896 122.895 
	   89.3698 121.048 82.5025 120.74 80.8238 118.124 81.8921 112.274 
	   80.8238 110.427 73.8038 108.272 72.4303 105.655 76.5507 100.575 
	   75.6351 98.5737 68.0047 94.7252 67.5469 91.3386 72.1251 88.4138 
	   71.8199 86.2587 66.7838 83.6419 66.4786 81.0249 70.4464 78.408 
	   68.0047 72.2506 81.4342 68.5561 93.4903 71.0191 93.4903 73.1741 
	   93.9482 77.6383 94.8637 82.1025 96.3898 86.5666 100.51 95.187 
	   105.852 103.346 111.956 110.427 118.365 116.43 124.622 120.894 
	   127.522 122.434 131.642 123.819 139.273 106.116 111.04 70.2494 
	   93.4903 70.5572 93.4903 70.5572 93.4903 70.5572"
	   style=" stroke:#0085ff; stroke-width:1;"></polyline>
	  <polyline points="146.313 135.996 142.647 137.074 140.357 133.533 
	   137.15 133.533 134.706 137.382 131.652 136.92 129.361 132.763 
	   125.237 131.223 119.74 132.917 116.991 130.761 116.38 124.449 
	   113.784 122.447 107.522 122.293 105.69 120.291 105.079 113.055 
	   103.551 111.361 97.4427 111.053 95.3047 108.436 96.9845 102.431 
	   95.7629 100.738 89.6541 99.044 87.9742 96.4265 91.1812 91.6535 
	   90.2649 89.344 84.1562 85.6489 82.9344 81.4917 86.5997 79.3362 
	   86.2942 77.3347 82.3236 73.6394 82.3236 70.2521 87.0579 69.0204 
	   87.0579 67.6347 84.0034 63.7855 84.6144 60.7062 88.8905 61.0142 
	   89.3486 59.7824 86.5997 55.3174 88.7377 52.238 93.6247 54.2396 
	   95.3047 53.0079 94.541 48.2349"
	   style=" stroke:#000000; stroke-width:1;"></polyline>
	  <polyline points="127.878 147.218 142.504 136.767"
	   style=" stroke:#000000; stroke-width:1;"></polyline>
	  <polyline points="125.592 144.606 134.886 137.074"
	   style=" stroke:#000000; stroke-width:1;"></polyline>
	  <polyline points="117.365 147.065 131.687 136.767"
	   style=" stroke:#000000; stroke-width:1;"></polyline>
	  <polyline points="115.08 142.454 129.401 132.617"
	   style=" stroke:#000000; stroke-width:1;"></polyline>
	  <polyline points="112.185 140.148 125.135 131.234"
	   style=" stroke:#000000; stroke-width:1;"></polyline>
	  <polyline points="105.786 141.993 119.955 132.463"
	   style=" stroke:#000000; stroke-width:1;"></polyline>
	  <polyline points="102.587 140.456 117.061 130.619"
	   style=" stroke:#000000; stroke-width:1;"></polyline>
	  <polyline points="102.13 134.308 116.451 124.471"
	   style=" stroke:#000000; stroke-width:1;"></polyline>
	  <polyline points="92.2266 132.31 107.767 122.012"
	   style=" stroke:#000000; stroke-width:1;"></polyline>
	  <polyline points="90.5507 130.004 105.939 119.706"
	   style=" stroke:#000000; stroke-width:1;"></polyline>
	  <polyline points="82.6283 120.782 97.5591 110.945"
	   style=" stroke:#000000; stroke-width:1;"></polyline>
	  <polyline points="80.7999 117.862 95.7308 107.871"
	   style=" stroke:#000000; stroke-width:1;"></polyline>
	  <polyline points="73.7916 108.178 89.7889 98.9564"
	   style=" stroke:#000000; stroke-width:1;"></polyline>
	  <polyline points="72.5728 105.719 88.2653 96.1896"
	   style=" stroke:#000000; stroke-width:1;"></polyline>
	  <polyline points="76.534 100.493 91.1601 91.5786"
	   style=" stroke:#000000; stroke-width:1;"></polyline>
	  <polyline points="75.9246 98.6488 90.3984 89.2731"
	   style=" stroke:#000000; stroke-width:1;"></polyline>
	  <polyline points="68.3069 94.8063 84.1518 85.4305"
	   style=" stroke:#000000; stroke-width:1;"></polyline>
	  <polyline points="71.9634 88.5046 83.2376 81.4343"
	   style=" stroke:#000000; stroke-width:1;"></polyline>
	  <polyline points="67.088 83.5861 82.4759 73.5955"
	   style=" stroke:#000000; stroke-width:1;"></polyline>
	  <polyline points="70.5922 78.3603 82.4758 70.2141"
	   style=" stroke:#000000; stroke-width:1;"></polyline>
	  <polyline points="68.0021 72.2123 83.9994 63.7588"
	   style=" stroke:#000000; stroke-width:1;"></polyline>
	  <polyline points="75.6199 66.2179 84.9135 60.8383"
	   style=" stroke:#000000; stroke-width:1;"></polyline>
	  <polyline points="73.944 63.1439 86.7418 55.3052"
	   style=" stroke:#000000; stroke-width:1;"></polyline>
	  <polyline points="71.811 86.5065 86.2848 77.2844"
	   style=" stroke:#000000; stroke-width:1;"></polyline>
	  <polyline points="146.019 134.461 145.551 130.977 148.048 129.235 
	   151.95 131.769"
	   style=" stroke:#000000; stroke-width:1;"></polyline>
	  <polyline points="157.13 122.496 152.598 121.858 151.036 124.731 
	   151.973 126.008"
	   style=" stroke:#000000; stroke-width:1;"></polyline>
	  <polyline points="153.016 115.556 153.488 111.885 157.892 111.406"
	   style=" stroke:#000000; stroke-width:1;"></polyline>
	  <polyline points="152.559 106.641 156.216 101.569"
	   style=" stroke:#000000; stroke-width:1;"></polyline>
	  <polyline points="89.3319 59.6089 87.0466 60.9922"
	   style=" stroke:#000000; stroke-width:1;"></polyline>
	  <polygon points="89.1795 52.1756 94.6487 48.5423 95.2737 52.9655 
	   93.7111 54.2293 89.1795 52.1756 89.1795 52.1756 89.1795 52.1756 
	   89.1795 52.1756 89.1795 52.1756 "
	   style="stroke:none; fill:#001221; fill-opacity:100%"></polygon>
	  <polyline points="89.1795 52.1756 94.6487 48.5423 95.2737 52.9655 
	   93.7111 54.2293 89.1795 52.1756 89.1795 52.1756 89.1795 52.1756"
	   style=" stroke:#001221; stroke-width:1;"></polyline>
	  <polygon points="66.7869 83.2789 66.631 81.2008 73.1822 79.2826 
	   66.7869 83.2789 66.7869 83.2789 66.7869 83.2789 66.7869 83.2789 66.7869 83.2789 "
	   style="stroke:none; fill:#001221; fill-opacity:100%"></polygon>
	  <polyline points="66.7869 83.2789 66.631 81.2008 73.1822 79.2826 
	   66.7869 83.2789 66.7869 83.2789 66.7869 83.2789"
	   style=" stroke:#001221; stroke-width:1;"></polyline>
	  <polygon points="67.3927 83.7083 82.4458 74.0566 86.1324 77.3258 
	   71.8472 86.1991 67.3927 83.7083 67.3927 83.7083 67.3927 83.7083 
	   67.3927 83.7083 67.3927 83.7083 "
	   style="stroke:none; fill:#001221; fill-opacity:100%"></polygon>
	  <polyline points="67.3927 83.7083 82.4458 74.0566 86.1324 77.3258 
	   71.8472 86.1991 67.3927 83.7083 67.3927 83.7083 67.3927 83.7083"
	   style=" stroke:#001221; stroke-width:1;"></polyline>
	  <polygon points="72.2713 88.1973 71.9634 86.4817 86.2815 77.5919 
	   86.5895 79.3075 72.2713 88.1973 72.2713 88.1973 72.2713 88.1973 
	   72.2713 88.1973 72.2713 88.1973 "
	   style="stroke:none; fill:#001221; fill-opacity:100%"></polygon>
	  <polyline points="72.2713 88.1973 71.9634 86.4817 86.2815 77.5919 
	   86.5895 79.3075 72.2713 88.1973 72.2713 88.1973 72.2713 88.1973"
	   style=" stroke:#001221; stroke-width:1;"></polyline>
	  <polygon points="74.2487 63.2581 86.5629 55.6126 89.1795 59.6694 
	   86.8707 60.7616 84.5617 60.6056 75.634 65.9106 74.2487 63.2581 
	   74.2487 63.2581 74.2487 63.2581 74.2487 63.2581 74.2487 63.2581 "
	   style="stroke:none; fill:#001221; fill-opacity:100%"></polygon>
	  <polyline points="74.2487 63.2581 86.5629 55.6126 89.1795 59.6694 
	   86.8707 60.7616 84.5617 60.6056 75.634 65.9106 74.2487 63.2581 
	   74.2487 63.2581 74.2487 63.2581"
	   style=" stroke:#001221; stroke-width:1;"></polyline>
	  <polygon points="87.3513 60.9921 89.3319 59.9162 89.0018 60.9921 
	   87.3513 60.9921 87.3513 60.9921 87.3513 60.9921 87.3513 60.9921 87.3513 60.9921 "
	   style="stroke:none; fill:#000065; fill-opacity:100%"></polygon>
	  <polyline points="87.3513 60.9921 89.3319 59.9162 89.0018 60.9921 
	   87.3513 60.9921 87.3513 60.9921 87.3513 60.9921"
	   style=" stroke:#000065; stroke-width:1;"></polyline>
	  <polygon points="82.6283 70.4845 87.3865 69.0921 87.5401 67.6997 
	   84.3167 63.5227 84.9306 60.8926 89.2284 61.3568 89.6889 59.8097 
	   86.7725 55.3233 88.7679 52.5385 103.196 58.2627 102.429 58.4173 
	   100.894 58.7268 99.5124 59.1909 98.4379 59.8097 97.3635 60.738 
	   96.4426 61.6662 95.675 62.7491 95.0612 63.8321 94.1402 66.4621 
	   93.6797 69.4015 93.5262 73.888 93.6797 76.2085 92.6053 72.4956 
	   82.6283 70.4845 82.6283 70.4845 82.6283 70.4845 82.6283 70.4845 82.6283 70.4845 "
	   style="stroke:none; fill:#83c2ff; fill-opacity:100%"></polygon>
	  <polygon points="70.6109 78.053 68.3069 72.3029 84.128 64.0662 
	   87.0465 67.6406 86.8929 68.8839 82.2848 70.1271 70.6109 78.053 
	   70.6109 78.053 70.6109 78.053 70.6109 78.053 70.6109 78.053 "
	   style="stroke:none; fill:#001221; fill-opacity:100%"></polygon>
	  <polyline points="70.6109 78.053 68.3069 72.3029 84.128 64.0662 
	   87.0465 67.6406 86.8929 68.8839 82.2848 70.1271 70.6109 78.053 
	   70.6109 78.053 70.6109 78.053"
	   style=" stroke:#001221; stroke-width:1;"></polyline>
	  <polygon points="68.1583 94.6527 67.8498 91.5119 80.1905 87.4287 
	   68.1583 94.6527 68.1583 94.6527 68.1583 94.6527 68.1583 94.6527 68.1583 94.6527 "
	   style="stroke:none; fill:#001221; fill-opacity:100%"></polygon>
	  <polyline points="68.1583 94.6527 67.8498 91.5119 80.1905 87.4287 
	   68.1583 94.6527 68.1583 94.6527 68.1583 94.6527"
	   style=" stroke:#001221; stroke-width:1;"></polyline>
	  <polygon points="68.7639 94.917 84.1098 85.738 89.9413 89.4718 
	   75.8231 98.4952 68.7639 94.917 68.7639 94.917 68.7639 94.917 
	   68.7639 94.917 68.7639 94.917 "
	   style="stroke:none; fill:#001221; fill-opacity:100%"></polygon>
	  <polyline points="68.7639 94.917 84.1098 85.738 89.9413 89.4718 
	   75.8231 98.4952 68.7639 94.917 68.7639 94.917 68.7639 94.917"
	   style=" stroke:#001221; stroke-width:1;"></polyline>
	  <polygon points="76.6941 100.34 75.9246 98.7804 90.392 89.5806 
	   91.0078 91.4518 76.6941 100.34 76.6941 100.34 76.6941 100.34 
	   76.6941 100.34 76.6941 100.34 "
	   style="stroke:none; fill:#001221; fill-opacity:100%"></polygon>
	  <polyline points="76.6941 100.34 75.9246 98.7804 90.392 89.5806 
	   91.0078 91.4518 76.6941 100.34 76.6941 100.34 76.6941 100.34"
	   style=" stroke:#001221; stroke-width:1;"></polyline>
	  <polygon points="72.8775 105.258 76.7312 100.576 85.9801 95.1137 
	   72.8775 105.258 72.8775 105.258 72.8775 105.258 72.8775 105.258 72.8775 105.258 "
	   style="stroke:none; fill:#001221; fill-opacity:100%"></polygon>
	  <polyline points="72.8775 105.258 76.7312 100.576 85.9801 95.1137 
	   72.8775 105.258 72.8775 105.258 72.8775 105.258"
	   style=" stroke:#001221; stroke-width:1;"></polyline>
	  <polygon points="73.8015 107.871 72.7252 105.682 89.3318 98.8026 
	   73.8015 107.871 73.8015 107.871 73.8015 107.871 73.8015 107.871 73.8015 107.871 "
	   style="stroke:none; fill:#001221; fill-opacity:100%"></polygon>
	  <polyline points="73.8015 107.871 72.7252 105.682 89.3318 98.8026 
	   73.8015 107.871 73.8015 107.871 73.8015 107.871"
	   style=" stroke:#001221; stroke-width:1;"></polyline>
	  <polygon points="83.39 120.553 97.6595 111.099 103.49 111.409 
	   105.024 113.269 90.2946 129.697 91.2152 122.567 89.5275 120.863 
	   83.39 120.553 83.39 120.553 83.39 120.553 83.39 120.553 83.39 120.553 "
	   style="stroke:none; fill:#001221; fill-opacity:100%"></polygon>
	  <polyline points="83.39 120.553 97.6595 111.099 103.49 111.409 
	   105.024 113.269 90.2946 129.697 91.2152 122.567 89.5275 120.863 
	   83.39 120.553 83.39 120.553 83.39 120.553"
	   style=" stroke:#001221; stroke-width:1;"></polyline>
	  <polyline points="89.3318 121.089 103.653 111.252"
	   style=" stroke:#000000; stroke-width:1;"></polyline>
	  <polyline points="90.8554 122.78 105.177 113.097"
	   style=" stroke:#000000; stroke-width:1;"></polyline>
	  <polygon points="74.2487 108.1 89.8946 99.1101 95.7235 100.815 
	   96.7972 102.52 81.1514 117.4 82.0716 112.13 81.1514 110.115 
	   74.2487 108.1 74.2487 108.1 74.2487 108.1 74.2487 108.1 74.2487 108.1 "
	   style="stroke:none; fill:#001221; fill-opacity:100%"></polygon>
	  <polyline points="74.2487 108.1 89.8946 99.1101 95.7235 100.815 
	   96.7972 102.52 81.1514 117.4 82.0716 112.13 81.1514 110.115 
	   74.2487 108.1 74.2487 108.1 74.2487 108.1"
	   style=" stroke:#001221; stroke-width:1;"></polyline>
	  <polyline points="80.4952 110.177 95.8831 100.647"
	   style=" stroke:#000000; stroke-width:1;"></polyline>
	  <polyline points="81.7141 112.328 96.9495 102.645"
	   style=" stroke:#000000; stroke-width:1;"></polyline>
	  <polygon points="152.733 106.18 152.255 104.105 155.606 102.03 
	   152.733 106.18 152.733 106.18 152.733 106.18 152.733 106.18 152.733 106.18 "
	   style="stroke:none; fill:#001221; fill-opacity:100%"></polygon>
	  <polyline points="152.733 106.18 152.255 104.105 155.606 102.03 
	   152.733 106.18 152.733 106.18 152.733 106.18"
	   style=" stroke:#001221; stroke-width:1;"></polyline>
	  <polygon points="153.321 115.249 153.794 112.035 157.739 111.714 
	   153.321 115.249 153.321 115.249 153.321 115.249 153.321 115.249 153.321 115.249 "
	   style="stroke:none; fill:#001221; fill-opacity:100%"></polygon>
	  <polyline points="153.321 115.249 153.794 112.035 157.739 111.714 
	   153.321 115.249 153.321 115.249 153.321 115.249"
	   style=" stroke:#001221; stroke-width:1;"></polyline>
	  <polygon points="152.128 125.854 151.188 124.733 152.755 122.012 
	   156.673 122.652 152.128 125.854 152.128 125.854 152.128 125.854 
	   152.128 125.854 152.128 125.854 "
	   style="stroke:none; fill:#001221; fill-opacity:100%"></polygon>
	  <polyline points="152.128 125.854 151.188 124.733 152.755 122.012 
	   156.673 122.652 152.128 125.854 152.128 125.854 152.128 125.854"
	   style=" stroke:#001221; stroke-width:1;"></polyline>
	  <polygon points="146.173 134.154 145.703 131.133 147.894 129.543 
	   151.493 131.769 146.173 134.154 146.173 134.154 146.173 134.154 
	   146.173 134.154 146.173 134.154 "
	   style="stroke:none; fill:#001221; fill-opacity:100%"></polygon>
	  <polyline points="146.173 134.154 145.703 131.133 147.894 129.543 
	   151.493 131.769 146.173 134.154 146.173 134.154 146.173 134.154"
	   style=" stroke:#001221; stroke-width:1;"></polyline>
	  <polygon points="92.9884 132.287 107.724 122.473 113.556 122.473 
	   102.198 134 100.356 131.819 92.9884 132.287 92.9884 132.287 
	   92.9884 132.287 92.9884 132.287 92.9884 132.287 "
	   style="stroke:none; fill:#001221; fill-opacity:100%"></polygon>
	  <polyline points="92.9884 132.287 107.724 122.473 113.556 122.473 
	   102.198 134 100.356 131.819 92.9884 132.287 92.9884 132.287 
	   92.9884 132.287"
	   style=" stroke:#001221; stroke-width:1;"></polyline>
	  <polyline points="99.8443 132.156 113.861 122.165"
	   style=" stroke:#000000; stroke-width:1;"></polyline>
	  <polygon points="127.742 146.911 125.897 144.579 135.124 137.271 
	   137.43 133.539 140.199 133.539 142.351 136.649 127.742 146.911 
	   127.742 146.911 127.742 146.911 127.742 146.911 127.742 146.911 "
	   style="stroke:none; fill:#001221; fill-opacity:100%"></polygon>
	  <polyline points="127.742 146.911 125.897 144.579 135.124 137.271 
	   137.43 133.539 140.199 133.539 142.351 136.649 127.742 146.911 
	   127.742 146.911 127.742 146.911"
	   style=" stroke:#001221; stroke-width:1;"></polyline>
	  <polygon points="117.076 146.911 115.385 142.715 129.228 133.078 
	   131.382 136.808 117.076 146.911 117.076 146.911 117.076 146.911 
	   117.076 146.911 117.076 146.911 "
	   style="stroke:none; fill:#001221; fill-opacity:100%"></polygon>
	  <polyline points="117.076 146.911 115.385 142.715 129.228 133.078 
	   131.382 136.808 117.076 146.911 117.076 146.911 117.076 146.911"
	   style=" stroke:#001221; stroke-width:1;"></polyline>
	  <polygon points="111.922 139.974 107.462 141.224 119.764 133.099 
	   123.916 131.848 111.922 139.974 111.922 139.974 111.922 139.974 
	   111.922 139.974 111.922 139.974 "
	   style="stroke:none; fill:#001221; fill-opacity:100%"></polygon>
	  <polyline points="111.922 139.974 107.462 141.224 119.764 133.099 
	   123.916 131.848 111.922 139.974 111.922 139.974 111.922 139.974"
	   style=" stroke:#001221; stroke-width:1;"></polyline>
	  <polygon points="93.4455 71.0121 95.5845 71.3203 99.8625 72.3988 
	   103.835 73.9393 107.807 76.096 111.474 78.7151 114.988 81.7962 
	   121.252 88.7287 126.294 96.7397 129.808 105.213 131.031 109.526 
	   131.795 113.686 132.1 117.846 131.642 123.854 133.628 124.316 
	   137.448 124.778 140.503 124.316 142.948 123.238 144.934 121.543 
	   146.309 119.078 147.226 116.305 147.532 113.07 147.532 109.372 
	   146.92 105.521 144.629 97.2019 140.809 88.5748 133.323 77.0204 
	   128.739 71.7825 122.933 66.5445 116.211 62.2309 112.849 60.5363 
	   109.488 59.1498 106.279 58.5336 103.224 58.2254 100.474 58.6876 
	   98.029 59.92 96.0428 61.9229 94.515 64.8498 93.4455 71.0121 
	   93.4455 71.0121 93.4455 71.0121 93.4455 71.0121 93.4455 71.0121 "
	   style="stroke:none; fill:#83c2ff; fill-opacity:100%"></polygon>
	  <polyline points="93.4455 71.0121 95.5845 71.3203 99.8625 72.3988 
	   103.835 73.9393 107.807 76.096 111.474 78.7151 114.988 81.7962 
	   121.252 88.7287 126.294 96.7397 129.808 105.213 131.031 109.526 
	   131.795 113.686 132.1 117.846 131.642 123.854 133.628 124.316 
	   137.448 124.778 140.503 124.316 142.948 123.238 144.934 121.543 
	   146.309 119.078 147.226 116.305 147.532 113.07 147.532 109.372 
	   146.92 105.521 144.629 97.2019 140.809 88.5748 133.323 77.0204 
	   128.739 71.7825 122.933 66.5445 116.211 62.2309 112.849 60.5363 
	   109.488 59.1498 106.279 58.5336 103.224 58.2254 100.474 58.6876 
	   98.029 59.92 96.0428 61.9229 94.515 64.8498 93.4455 71.0121 
	   93.4455 71.0121 93.4455 71.0121"
	   style=" stroke:#83c2ff; stroke-width:1;"></polyline>
	  <polygon points="131.443 90.2527 138.828 85.4305 140.828 89.1638 
	   127.289 98.3414 125.135 94.4527 131.443 90.2527 131.443 90.2527 
	   131.443 90.2527 131.443 90.2527 131.443 90.2527 "
	   style="stroke:none; fill:#001221; fill-opacity:100%"></polygon>
	  <polyline points="131.443 90.2527 138.828 85.4305 140.828 89.1638 
	   127.289 98.3414 125.135 94.4527 131.443 90.2527 131.443 90.2527 
	   131.443 90.2527"
	   style=" stroke:#001221; stroke-width:1;"></polyline>
	  <polygon points="128.944 102.925 143.104 93.5768 144.027 96.0697 
	   129.714 104.951 128.944 102.925 128.944 102.925 128.944 102.925 
	   128.944 102.925 128.944 102.925 "
	   style="stroke:none; fill:#001221; fill-opacity:100%"></polygon>
	  <polyline points="128.944 102.925 143.104 93.5768 144.027 96.0697 
	   129.714 104.951 128.944 102.925 128.944 102.925 128.944 102.925"
	   style=" stroke:#001221; stroke-width:1;"></polyline>
	  <polygon points="131.077 109.207 145.693 100.801 146.77 105.16 
	   131.846 112.943 131.077 109.207 131.077 109.207 131.077 109.207 
	   131.077 109.207 131.077 109.207 "
	   style="stroke:none; fill:#001221; fill-opacity:100%"></polygon>
	  <polyline points="131.077 109.207 145.693 100.801 146.77 105.16 
	   131.846 112.943 131.077 109.207 131.077 109.207 131.077 109.207"
	   style=" stroke:#001221; stroke-width:1;"></polyline>
	  <polygon points="132.299 118.726 147.379 111.56 147.225 114.052 
	   146.917 116.233 146.764 116.701 131.991 123.087 132.299 118.726 
	   132.299 118.726 132.299 118.726 132.299 118.726 132.299 118.726 "
	   style="stroke:none; fill:#001221; fill-opacity:100%"></polygon>
	  <polyline points="132.299 118.726 147.379 111.56 147.225 114.052 
	   146.917 116.233 146.764 116.701 131.991 123.087 132.299 118.726 
	   132.299 118.726 132.299 118.726"
	   style=" stroke:#001221; stroke-width:1;"></polyline>
	  <polyline points="131.839 123.702 146.617 117.4"
	   style=" stroke:#000000; stroke-width:1;"></polyline>
	  <polyline points="133.058 124.317 145.246 119.245"
	   style=" stroke:#000000; stroke-width:1;"></polyline>
	  <polygon points="132.144 113.999 146.92 106.488 147.074 107.74 
	   132.144 115.095 132.144 113.999 132.144 113.999 132.144 113.999 
	   132.144 113.999 132.144 113.999 "
	   style="stroke:none; fill:#001221; fill-opacity:100%"></polygon>
	  <polyline points="132.144 113.999 146.92 106.488 147.074 107.74 
	   132.144 115.095 132.144 113.999 132.144 113.999 132.144 113.999"
	   style=" stroke:#001221; stroke-width:1;"></polyline>
	  <polygon points="132.753 76.617 119.446 86.0455 113.175 79.7085 
	   106.598 75.226 101.398 72.7529 98.0329 71.5165 93.7503 70.7436 
	   94.0561 68.5797 94.515 65.7975 94.9738 64.4065 95.5856 63.1699 
	   96.3504 62.088 97.1151 61.1606 98.0329 60.2331 99.1035 59.6149 
	   100.48 58.9967 101.857 58.6875 103.386 58.533 105.069 58.6875 
	   106.904 58.842 110.116 59.6149 117.305 63.1699 124.8 68.5797 
	   130 73.5258 132.753 76.617 132.753 76.617 132.753 76.617 
	   132.753 76.617 132.753 76.617 "
	   style="stroke:none; fill:#001221; fill-opacity:100%"></polygon>
	  <polyline points="132.753 76.617 119.446 86.0455 113.175 79.7085 
	   106.598 75.226 101.398 72.7529 98.0329 71.5165 93.7503 70.7436 
	   94.0561 68.5797 94.515 65.7975 94.9738 64.4065 95.5856 63.1699 
	   96.3504 62.088 97.1151 61.1606 98.0329 60.2331 99.1035 59.6149 
	   100.48 58.9967 101.857 58.6875 103.386 58.533 105.069 58.6875 
	   106.904 58.842 110.116 59.6149 117.305 63.1699 124.8 68.5797 
	   130 73.5258 132.753 76.617 132.753 76.617 132.753 76.617"
	   style=" stroke:#001221; stroke-width:1;"></polyline>
	</g>
	<g>
	  <polygon points="54.4076 97.8048 45.5127 95.9648 35.6045 99.1543 
	   37.0682 96.8235 41.2342 94.2474 39.8831 91.7941 41.6846 89.4634 
	   55.3083 79.895 58.0106 79.159 60.2624 81.3671 62.7395 81.7351 
	   64.9913 80.0177 67.6937 80.8764 68.4818 84.1885 70.9588 85.4152 
	   74.7871 84.5565 77.264 86.6419 77.264 90.5674 79.2907 92.4073 
	   83.6819 92.6528 85.4833 94.8609 85.1456 98.5409 86.4967 100.381 
	   90.4374 101.117 92.0137 103.448 90.7753 107.496 92.1264 109.827 
	   95.6167 110.317 96.7427 113.016 95.0538 115.715 95.8419 118.046 
	   99.8952 119.763 100.684 122.584 97.8687 124.424 98.2064 126.51 
	   101.922 128.84 102.035 130.558 98.5442 133.625 102.147 136.691 
	   101.584 139.145 97.6434 141.966 99.445 144.42 97.756 146.628 
	   93.2523 148.713 93.3649 150.062 82.5559 158.772 79.516 158.772 
	   78.0523 156.687 74.224 159.508 71.747 158.772 70.3958 155.092 
	   68.144 153.252 63.3025 154.724 61.0506 153.62 60.7128 148.713 
	   59.1365 146.873 53.5068 147.241 51.818 145.033 52.4936 139.513 
	   51.3675 138.041 46.3009 137.795 45.0623 135.71 45.8505 131.049 
	   45.0623 129.576 39.8831 127.859 38.8697 125.774 41.9097 121.726 
	   41.2342 120.131 35.6045 117.064 35.2668 114.365 38.6446 112.035 
	   38.4194 110.317 34.7038 108.232 34.4786 106.146 37.406 104.061 
	   35.6045 99.1543 45.5127 96.2102 54.4076 98.1729 54.4076 99.8902 
	   54.7454 103.448 55.4209 107.005 56.5469 110.563 59.5869 117.432 
	   63.5277 123.934 68.0314 129.576 72.7603 134.361 77.3767 137.918 
	   79.516 139.145 82.5559 140.249 88.1856 126.142 67.3558 97.5595 
	   54.4076 97.8048 54.4076 97.8048 54.4076 97.8048 54.4076 97.8048 54.4076 97.8048 "
	   style="stroke:none; fill:#0085ff; fill-opacity:100%"></polygon>
	  <polyline points="54.4076 97.8048 45.5127 95.9648 35.6045 99.1543 
	   37.0682 96.8235 41.2342 94.2474 39.8831 91.7941 41.6846 89.4634 
	   55.3083 79.895 58.0106 79.159 60.2624 81.3671 62.7395 81.7351 
	   64.9913 80.0177 67.6937 80.8764 68.4818 84.1885 70.9588 85.4152 
	   74.7871 84.5565 77.264 86.6419 77.264 90.5674 79.2907 92.4073 
	   83.6819 92.6528 85.4833 94.8609 85.1456 98.5409 86.4967 100.381 
	   90.4374 101.117 92.0137 103.448 90.7753 107.496 92.1264 109.827 
	   95.6167 110.317 96.7427 113.016 95.0538 115.715 95.8419 118.046 
	   99.8952 119.763 100.684 122.584 97.8687 124.424 98.2064 126.51 
	   101.922 128.84 102.035 130.558 98.5442 133.625 102.147 136.691 
	   101.584 139.145 97.6434 141.966 99.445 144.42 97.756 146.628 
	   93.2523 148.713 93.3649 150.062 82.5559 158.772 79.516 158.772 
	   78.0523 156.687 74.224 159.508 71.747 158.772 70.3958 155.092 
	   68.144 153.252 63.3025 154.724 61.0506 153.62 60.7128 148.713 
	   59.1365 146.873 53.5068 147.241 51.818 145.033 52.4936 139.513 
	   51.3675 138.041 46.3009 137.795 45.0623 135.71 45.8505 131.049 
	   45.0623 129.576 39.8831 127.859 38.8697 125.774 41.9097 121.726 
	   41.2342 120.131 35.6045 117.064 35.2668 114.365 38.6446 112.035 
	   38.4194 110.317 34.7038 108.232 34.4786 106.146 37.406 104.061 
	   35.6045 99.1543 45.5127 96.2102 54.4076 98.1729 54.4076 99.8902 
	   54.7454 103.448 55.4209 107.005 56.5469 110.563 59.5869 117.432 
	   63.5277 123.934 68.0314 129.576 72.7603 134.361 77.3767 137.918 
	   79.516 139.145 82.5559 140.249 88.1856 126.142 67.3558 97.5595 
	   54.4076 97.8048 54.4076 97.8048 54.4076 97.8048"
	   style=" stroke:#0085ff; stroke-width:1;"></polyline>
	  <polyline points="93.3795 149.952 90.6754 150.811 88.9852 147.989 
	   86.6191 147.989 84.8163 151.057 82.5628 150.689 80.8726 147.376 
	   77.8304 146.149 73.7742 147.499 71.746 145.781 71.2953 140.75 
	   69.3799 139.155 64.7602 139.033 63.4081 137.438 62.9574 131.671 
	   61.8307 130.321 57.3237 130.076 55.7462 127.99 56.9856 123.205 
	   56.0843 121.855 51.5773 120.506 50.3379 118.42 52.704 114.616 
	   52.028 112.776 47.521 109.831 46.6196 106.518 49.3238 104.801 
	   49.0984 103.206 46.1689 100.261 46.1689 97.5617 49.6618 96.5802 
	   49.6618 95.476 47.4083 92.4085 47.859 89.9547 51.0139 90.2001 
	   51.3519 89.2185 49.3238 85.6603 50.9012 83.2064 54.5068 84.8015 
	   55.7462 83.8199 55.1828 80.0164"
	   style=" stroke:#000000; stroke-width:1;"></polyline>
	  <polyline points="79.7784 158.896 90.5694 150.567"
	   style=" stroke:#000000; stroke-width:1;"></polyline>
	  <polyline points="78.0922 156.813 84.949 150.812"
	   style=" stroke:#000000; stroke-width:1;"></polyline>
	  <polyline points="72.0224 158.773 82.5885 150.567"
	   style=" stroke:#000000; stroke-width:1;"></polyline>
	  <polyline points="70.3362 155.099 80.9023 147.26"
	   style=" stroke:#000000; stroke-width:1;"></polyline>
	  <polyline points="68.2005 153.261 77.7551 146.157"
	   style=" stroke:#000000; stroke-width:1;"></polyline>
	  <polyline points="63.4794 154.731 73.9332 147.137"
	   style=" stroke:#000000; stroke-width:1;"></polyline>
	  <polyline points="61.119 153.506 71.7976 145.667"
	   style=" stroke:#000000; stroke-width:1;"></polyline>
	  <polyline points="60.7817 148.607 71.3478 140.768"
	   style=" stroke:#000000; stroke-width:1;"></polyline>
	  <polyline points="53.4753 147.015 64.9407 138.808"
	   style=" stroke:#000000; stroke-width:1;"></polyline>
	  <polyline points="52.2388 145.178 63.5918 136.971"
	   style=" stroke:#000000; stroke-width:1;"></polyline>
	  <polyline points="46.3937 137.828 57.4096 129.99"
	   style=" stroke:#000000; stroke-width:1;"></polyline>
	  <polyline points="45.0448 135.501 56.0606 127.54"
	   style=" stroke:#000000; stroke-width:1;"></polyline>
	  <polyline points="39.8741 127.785 51.6768 120.436"
	   style=" stroke:#000000; stroke-width:1;"></polyline>
	  <polyline points="38.9749 125.825 50.5527 118.231"
	   style=" stroke:#000000; stroke-width:1;"></polyline>
	  <polyline points="41.8974 121.661 52.6884 114.557"
	   style=" stroke:#000000; stroke-width:1;"></polyline>
	  <polyline points="41.4478 120.191 52.1264 112.719"
	   style=" stroke:#000000; stroke-width:1;"></polyline>
	  <polyline points="35.8275 117.129 47.5178 109.657"
	   style=" stroke:#000000; stroke-width:1;"></polyline>
	  <polyline points="38.5252 112.107 46.8433 106.473"
	   style=" stroke:#000000; stroke-width:1;"></polyline>
	  <polyline points="34.9282 108.187 46.2813 100.226"
	   style=" stroke:#000000; stroke-width:1;"></polyline>
	  <polyline points="37.5136 104.023 46.2812 97.5314"
	   style=" stroke:#000000; stroke-width:1;"></polyline>
	  <polyline points="35.6027 99.1238 47.4053 92.3872"
	   style=" stroke:#000000; stroke-width:1;"></polyline>
	  <polyline points="41.223 94.3469 48.0797 90.0599"
	   style=" stroke:#000000; stroke-width:1;"></polyline>
	  <polyline points="39.9865 91.8973 49.4286 85.6506"
	   style=" stroke:#000000; stroke-width:1;"></polyline>
	  <polyline points="38.4128 110.515 49.0915 103.166"
	   style=" stroke:#000000; stroke-width:1;"></polyline>
	  <polyline points="93.1629 148.729 92.8175 145.953 94.6598 144.565 
	   97.5385 146.584"
	   style=" stroke:#000000; stroke-width:1;"></polyline>
	  <polyline points="101.36 139.195 98.017 138.686 96.8642 140.975 
	   97.5559 141.993"
	   style=" stroke:#000000; stroke-width:1;"></polyline>
	  <polyline points="98.3254 133.664 98.6735 130.739 101.922 130.357"
	   style=" stroke:#000000; stroke-width:1;"></polyline>
	  <polyline points="97.9881 126.56 100.686 122.518"
	   style=" stroke:#000000; stroke-width:1;"></polyline>
	  <polyline points="51.3396 89.0802 49.6535 90.1825"
	   style=" stroke:#000000; stroke-width:1;"></polyline>
	  <polygon points="51.2272 83.1567 55.2623 80.2613 55.7234 83.7861 
	   54.5705 84.7932 51.2272 83.1567 51.2272 83.1567 51.2272 83.1567 
	   51.2272 83.1567 51.2272 83.1567 "
	   style="stroke:none; fill:#001221; fill-opacity:100%"></polygon>
	  <polyline points="51.2272 83.1567 55.2623 80.2613 55.7234 83.7861 
	   54.5705 84.7932 51.2272 83.1567 51.2272 83.1567 51.2272 83.1567"
	   style=" stroke:#001221; stroke-width:1;"></polyline>
	  <polygon points="34.7061 107.943 34.591 106.287 39.4245 104.758 
	   34.7061 107.943 34.7061 107.943 34.7061 107.943 34.7061 107.943 34.7061 107.943 "
	   style="stroke:none; fill:#001221; fill-opacity:100%"></polygon>
	  <polyline points="34.7061 107.943 34.591 106.287 39.4245 104.758 
	   34.7061 107.943 34.7061 107.943 34.7061 107.943"
	   style=" stroke:#001221; stroke-width:1;"></polyline>
	  <polygon points="35.153 108.285 46.2591 100.594 48.979 103.199 
	   38.4395 110.27 35.153 108.285 35.153 108.285 35.153 108.285 
	   35.153 108.285 35.153 108.285 "
	   style="stroke:none; fill:#001221; fill-opacity:100%"></polygon>
	  <polyline points="35.153 108.285 46.2591 100.594 48.979 103.199 
	   38.4395 110.27 35.153 108.285 35.153 108.285 35.153 108.285"
	   style=" stroke:#001221; stroke-width:1;"></polyline>
	  <polygon points="38.7524 111.862 38.5252 110.495 49.0891 103.411 
	   49.3162 104.778 38.7524 111.862 38.7524 111.862 38.7524 111.862 
	   38.7524 111.862 38.7524 111.862 "
	   style="stroke:none; fill:#001221; fill-opacity:100%"></polygon>
	  <polyline points="38.7524 111.862 38.5252 110.495 49.0891 103.411 
	   49.3162 104.778 38.7524 111.862 38.7524 111.862 38.7524 111.862"
	   style=" stroke:#001221; stroke-width:1;"></polyline>
	  <polygon points="40.2113 91.9882 49.2966 85.8956 51.2272 89.1284 
	   49.5237 89.9988 47.8202 89.8745 41.2334 94.102 40.2113 91.9882 
	   40.2113 91.9882 40.2113 91.9882 40.2113 91.9882 40.2113 91.9882 "
	   style="stroke:none; fill:#001221; fill-opacity:100%"></polygon>
	  <polyline points="40.2113 91.9882 49.2966 85.8956 51.2272 89.1284 
	   49.5237 89.9988 47.8202 89.8745 41.2334 94.102 40.2113 91.9882 
	   40.2113 91.9882 40.2113 91.9882"
	   style=" stroke:#001221; stroke-width:1;"></polyline>
	  <polygon points="49.8783 90.1825 51.3396 89.3251 51.0961 90.1825 
	   49.8783 90.1825 49.8783 90.1825 49.8783 90.1825 49.8783 90.1825 49.8783 90.1825 "
	   style="stroke:none; fill:#000065; fill-opacity:100%"></polygon>
	  <polyline points="49.8783 90.1825 51.3396 89.3251 51.0961 90.1825 
	   49.8783 90.1825 49.8783 90.1825 49.8783 90.1825"
	   style=" stroke:#000065; stroke-width:1;"></polyline>
	  <polygon points="46.3937 97.7469 49.9043 96.6373 50.0176 95.5277 
	   47.6394 92.1991 48.0924 90.1032 51.2632 90.4731 51.603 89.2402 
	   49.4513 85.665 50.9235 83.4459 61.5686 88.0074 61.0023 88.1307 
	   59.8699 88.3773 58.8506 88.7471 58.0579 89.2402 57.2652 89.98 
	   56.5858 90.7197 56.0195 91.5826 55.5666 92.4456 54.8871 94.5415 
	   54.5474 96.8839 54.4341 100.459 54.5474 102.308 53.7546 99.3495 
	   46.3937 97.7469 46.3937 97.7469 46.3937 97.7469 46.3937 97.7469 46.3937 97.7469 "
	   style="stroke:none; fill:#83c2ff; fill-opacity:100%"></polygon>
	  <polygon points="37.5274 103.778 35.8275 99.196 47.5002 92.6322 
	   49.6534 95.4806 49.5401 96.4714 46.1403 97.4621 37.5274 103.778 
	   37.5274 103.778 37.5274 103.778 37.5274 103.778 37.5274 103.778 "
	   style="stroke:none; fill:#001221; fill-opacity:100%"></polygon>
	  <polyline points="37.5274 103.778 35.8275 99.196 47.5002 92.6322 
	   49.6534 95.4806 49.5401 96.4714 46.1403 97.4621 37.5274 103.778 
	   37.5274 103.778 37.5274 103.778"
	   style=" stroke:#001221; stroke-width:1;"></polyline>
	  <polygon points="35.7179 117.006 35.4903 114.503 44.5951 111.25 
	   35.7179 117.006 35.7179 117.006 35.7179 117.006 35.7179 117.006 35.7179 117.006 "
	   style="stroke:none; fill:#001221; fill-opacity:100%"></polygon>
	  <polyline points="35.7179 117.006 35.4903 114.503 44.5951 111.25 
	   35.7179 117.006 35.7179 117.006 35.7179 117.006"
	   style=" stroke:#001221; stroke-width:1;"></polyline>
	  <polygon points="36.1647 117.217 47.4868 109.902 51.7892 112.878 
	   41.3729 120.068 36.1647 117.217 36.1647 117.217 36.1647 117.217 
	   36.1647 117.217 36.1647 117.217 "
	   style="stroke:none; fill:#001221; fill-opacity:100%"></polygon>
	  <polyline points="36.1647 117.217 47.4868 109.902 51.7892 112.878 
	   41.3729 120.068 36.1647 117.217 36.1647 117.217 36.1647 117.217"
	   style=" stroke:#001221; stroke-width:1;"></polyline>
	  <polygon points="42.0155 121.538 41.4478 120.296 52.1218 112.964 
	   52.576 114.456 42.0155 121.538 42.0155 121.538 42.0155 121.538 
	   42.0155 121.538 42.0155 121.538 "
	   style="stroke:none; fill:#001221; fill-opacity:100%"></polygon>
	  <polyline points="42.0155 121.538 41.4478 120.296 52.1218 112.964 
	   52.576 114.456 42.0155 121.538 42.0155 121.538 42.0155 121.538"
	   style=" stroke:#001221; stroke-width:1;"></polyline>
	  <polygon points="39.1997 125.458 42.0429 121.727 48.8666 117.374 
	   39.1997 125.458 39.1997 125.458 39.1997 125.458 39.1997 125.458 39.1997 125.458 "
	   style="stroke:none; fill:#001221; fill-opacity:100%"></polygon>
	  <polyline points="39.1997 125.458 42.0429 121.727 48.8666 117.374 
	   39.1997 125.458 39.1997 125.458 39.1997 125.458"
	   style=" stroke:#001221; stroke-width:1;"></polyline>
	  <polygon points="39.8814 127.54 39.0873 125.795 51.3395 120.313 
	   39.8814 127.54 39.8814 127.54 39.8814 127.54 39.8814 127.54 39.8814 127.54 "
	   style="stroke:none; fill:#001221; fill-opacity:100%"></polygon>
	  <polyline points="39.8814 127.54 39.0873 125.795 51.3395 120.313 
	   39.8814 127.54 39.8814 127.54 39.8814 127.54"
	   style=" stroke:#001221; stroke-width:1;"></polyline>
	  <polygon points="46.9557 137.646 57.4837 130.112 61.7853 130.359 
	   62.9174 131.841 52.0499 144.933 52.7291 139.251 51.4839 137.893 
	   46.9557 137.646 46.9557 137.646 46.9557 137.646 46.9557 137.646 46.9557 137.646 "
	   style="stroke:none; fill:#001221; fill-opacity:100%"></polygon>
	  <polyline points="46.9557 137.646 57.4837 130.112 61.7853 130.359 
	   62.9174 131.841 52.0499 144.933 52.7291 139.251 51.4839 137.893 
	   46.9557 137.646 46.9557 137.646 46.9557 137.646"
	   style=" stroke:#001221; stroke-width:1;"></polyline>
	  <polyline points="51.3395 138.073 61.9056 130.235"
	   style=" stroke:#000000; stroke-width:1;"></polyline>
	  <polyline points="52.4636 139.421 63.0298 131.704"
	   style=" stroke:#000000; stroke-width:1;"></polyline>
	  <polygon points="40.2113 127.723 51.7548 120.558 56.0553 121.917 
	   56.8474 123.276 45.3041 135.134 45.983 130.934 45.3041 129.328 
	   40.2113 127.723 40.2113 127.723 40.2113 127.723 40.2113 127.723 40.2113 127.723 "
	   style="stroke:none; fill:#001221; fill-opacity:100%"></polygon>
	  <polyline points="40.2113 127.723 51.7548 120.558 56.0553 121.917 
	   56.8474 123.276 45.3041 135.134 45.983 130.934 45.3041 129.328 
	   40.2113 127.723 40.2113 127.723 40.2113 127.723"
	   style=" stroke:#001221; stroke-width:1;"></polyline>
	  <polyline points="44.8199 129.377 56.173 121.783"
	   style=" stroke:#000000; stroke-width:1;"></polyline>
	  <polyline points="45.7192 131.092 56.9598 123.375"
	   style=" stroke:#000000; stroke-width:1;"></polyline>
	  <polygon points="98.1167 126.193 97.7634 124.539 100.236 122.886 
	   98.1167 126.193 98.1167 126.193 98.1167 126.193 98.1167 126.193 98.1167 126.193 "
	   style="stroke:none; fill:#001221; fill-opacity:100%"></polygon>
	  <polyline points="98.1167 126.193 97.7634 124.539 100.236 122.886 
	   98.1167 126.193 98.1167 126.193 98.1167 126.193"
	   style=" stroke:#001221; stroke-width:1;"></polyline>
	  <polygon points="98.5502 133.419 98.8995 130.858 101.81 130.602 
	   98.5502 133.419 98.5502 133.419 98.5502 133.419 98.5502 133.419 98.5502 133.419 "
	   style="stroke:none; fill:#001221; fill-opacity:100%"></polygon>
	  <polyline points="98.5502 133.419 98.8995 130.858 101.81 130.602 
	   98.5502 133.419 98.5502 133.419 98.5502 133.419"
	   style=" stroke:#001221; stroke-width:1;"></polyline>
	  <polygon points="97.6703 141.87 96.9766 140.977 98.1328 138.808 
	   101.023 139.319 97.6703 141.87 97.6703 141.87 97.6703 141.87 
	   97.6703 141.87 97.6703 141.87 "
	   style="stroke:none; fill:#001221; fill-opacity:100%"></polygon>
	  <polyline points="97.6703 141.87 96.9766 140.977 98.1328 138.808 
	   101.023 139.319 97.6703 141.87 97.6703 141.87 97.6703 141.87"
	   style=" stroke:#001221; stroke-width:1;"></polyline>
	  <polygon points="93.2762 148.485 92.9299 146.077 94.5461 144.81 
	   97.2013 146.584 93.2762 148.485 93.2762 148.485 93.2762 148.485 
	   93.2762 148.485 93.2762 148.485 "
	   style="stroke:none; fill:#001221; fill-opacity:100%"></polygon>
	  <polyline points="93.2762 148.485 92.9299 146.077 94.5461 144.81 
	   97.2013 146.584 93.2762 148.485 93.2762 148.485 93.2762 148.485"
	   style=" stroke:#001221; stroke-width:1;"></polyline>
	  <polygon points="54.0373 146.997 64.9088 139.176 69.2122 139.176 
	   60.8321 148.362 59.4731 146.624 54.0373 146.997 54.0373 146.997 
	   54.0373 146.997 54.0373 146.997 54.0373 146.997 "
	   style="stroke:none; fill:#001221; fill-opacity:100%"></polygon>
	  <polyline points="54.0373 146.997 64.9088 139.176 69.2122 139.176 
	   60.8321 148.362 59.4731 146.624 54.0373 146.997 54.0373 146.997 
	   54.0373 146.997"
	   style=" stroke:#001221; stroke-width:1;"></polyline>
	  <polyline points="59.0956 146.892 69.437 138.931"
	   style=" stroke:#000000; stroke-width:1;"></polyline>
	  <polygon points="79.6785 158.651 78.3171 156.792 85.1245 150.968 
	   86.8263 147.995 88.8686 147.995 90.457 150.473 79.6785 158.651 
	   79.6785 158.651 79.6785 158.651 79.6785 158.651 79.6785 158.651 "
	   style="stroke:none; fill:#001221; fill-opacity:100%"></polygon>
	  <polyline points="79.6785 158.651 78.3171 156.792 85.1245 150.968 
	   86.8263 147.995 88.8686 147.995 90.457 150.473 79.6785 158.651 
	   79.6785 158.651 79.6785 158.651"
	   style=" stroke:#001221; stroke-width:1;"></polyline>
	  <polygon points="71.8093 158.651 70.561 155.306 80.7748 147.627 
	   82.3637 150.6 71.8093 158.651 71.8093 158.651 71.8093 158.651 
	   71.8093 158.651 71.8093 158.651 "
	   style="stroke:none; fill:#001221; fill-opacity:100%"></polygon>
	  <polyline points="71.8093 158.651 70.561 155.306 80.7748 147.627 
	   82.3637 150.6 71.8093 158.651 71.8093 158.651 71.8093 158.651"
	   style=" stroke:#001221; stroke-width:1;"></polyline>
	  <polygon points="68.0062 153.123 64.7159 154.119 73.7925 147.643 
	   76.8558 146.647 68.0062 153.123 68.0062 153.123 68.0062 153.123 
	   68.0062 153.123 68.0062 153.123 "
	   style="stroke:none; fill:#001221; fill-opacity:100%"></polygon>
	  <polyline points="68.0062 153.123 64.7159 154.119 73.7925 147.643 
	   76.8558 146.647 68.0062 153.123 68.0062 153.123 68.0062 153.123"
	   style=" stroke:#001221; stroke-width:1;"></polyline>
	  <polygon points="54.3746 98.1674 55.9527 98.4129 59.109 99.2724 
	   62.0398 100.5 64.9706 102.219 67.676 104.306 70.2686 106.761 
	   74.8903 112.286 78.6102 118.669 81.2028 125.422 82.1046 128.859 
	   82.6682 132.174 82.8937 135.489 82.5555 140.276 84.0209 140.645 
	   86.839 141.013 89.0935 140.645 90.8971 139.785 92.3624 138.435 
	   93.377 136.471 94.0534 134.261 94.2788 131.683 94.2788 128.736 
	   93.8279 125.667 92.1371 119.038 89.319 112.163 83.7955 102.955 
	   80.4137 98.7813 76.1302 94.6072 71.1704 91.1697 68.6906 89.8193 
	   66.2106 88.7144 63.8434 88.2233 61.5889 87.9778 59.5598 88.3461 
	   57.7563 89.3282 56.2909 90.9242 55.1636 93.2567 54.3746 98.1674 
	   54.3746 98.1674 54.3746 98.1674 54.3746 98.1674 54.3746 98.1674 "
	   style="stroke:none; fill:#83c2ff; fill-opacity:100%"></polygon>
	  <polyline points="54.3746 98.1674 55.9527 98.4129 59.109 99.2724 
	   62.0398 100.5 64.9706 102.219 67.676 104.306 70.2686 106.761 
	   74.8903 112.286 78.6102 118.669 81.2028 125.422 82.1046 128.859 
	   82.6682 132.174 82.8937 135.489 82.5555 140.276 84.0209 140.645 
	   86.839 141.013 89.0935 140.645 90.8971 139.785 92.3624 138.435 
	   93.377 136.471 94.0534 134.261 94.2788 131.683 94.2788 128.736 
	   93.8279 125.667 92.1371 119.038 89.319 112.163 83.7955 102.955 
	   80.4137 98.7813 76.1302 94.6072 71.1704 91.1697 68.6906 89.8193 
	   66.2106 88.7144 63.8434 88.2233 61.5889 87.9778 59.5598 88.3461 
	   57.7563 89.3282 56.2909 90.9242 55.1636 93.2567 54.3746 98.1674 
	   54.3746 98.1674 54.3746 98.1674"
	   style=" stroke:#83c2ff; stroke-width:1;"></polyline>
	  <polygon points="82.4089 113.5 87.8572 109.657 89.3329 112.632 
	   79.3441 119.946 77.755 116.847 82.4089 113.5 82.4089 113.5 
	   82.4089 113.5 82.4089 113.5 82.4089 113.5 "
	   style="stroke:none; fill:#001221; fill-opacity:100%"></polygon>
	  <polyline points="82.4089 113.5 87.8572 109.657 89.3329 112.632 
	   79.3441 119.946 77.755 116.847 82.4089 113.5 82.4089 113.5 
	   82.4089 113.5"
	   style=" stroke:#001221; stroke-width:1;"></polyline>
	  <polygon points="80.5653 123.599 91.0123 116.149 91.6935 118.136 
	   81.133 125.213 80.5653 123.599 80.5653 123.599 80.5653 123.599 
	   80.5653 123.599 80.5653 123.599 "
	   style="stroke:none; fill:#001221; fill-opacity:100%"></polygon>
	  <polyline points="80.5653 123.599 91.0123 116.149 91.6935 118.136 
	   81.133 125.213 80.5653 123.599 80.5653 123.599 80.5653 123.599"
	   style=" stroke:#001221; stroke-width:1;"></polyline>
	  <polygon points="82.1389 128.605 92.9222 121.906 93.7168 125.379 
	   82.7065 131.582 82.1389 128.605 82.1389 128.605 82.1389 128.605 
	   82.1389 128.605 82.1389 128.605 "
	   style="stroke:none; fill:#001221; fill-opacity:100%"></polygon>
	  <polyline points="82.1389 128.605 92.9222 121.906 93.7168 125.379 
	   82.7065 131.582 82.1389 128.605 82.1389 128.605 82.1389 128.605"
	   style=" stroke:#001221; stroke-width:1;"></polyline>
	  <polygon points="83.0404 136.19 94.1664 130.48 94.0529 132.466 
	   93.8257 134.204 93.7122 134.576 82.8133 139.666 83.0404 136.19 
	   83.0404 136.19 83.0404 136.19 83.0404 136.19 83.0404 136.19 "
	   style="stroke:none; fill:#001221; fill-opacity:100%"></polygon>
	  <polyline points="83.0404 136.19 94.1664 130.48 94.0529 132.466 
	   93.8257 134.204 93.7122 134.576 82.8133 139.666 83.0404 136.19 
	   83.0404 136.19 83.0404 136.19"
	   style=" stroke:#001221; stroke-width:1;"></polyline>
	  <polyline points="82.701 140.156 93.6044 135.134"
	   style=" stroke:#000000; stroke-width:1;"></polyline>
	  <polyline points="83.6001 140.646 92.5926 136.604"
	   style=" stroke:#000000; stroke-width:1;"></polyline>
	  <polygon points="82.9257 132.424 93.8279 126.437 93.9415 127.435 
	   82.9257 133.297 82.9257 132.424 82.9257 132.424 82.9257 132.424 
	   82.9257 132.424 82.9257 132.424 "
	   style="stroke:none; fill:#001221; fill-opacity:100%"></polygon>
	  <polyline points="82.9257 132.424 93.8279 126.437 93.9415 127.435 
	   82.9257 133.297 82.9257 132.424 82.9257 132.424 82.9257 132.424"
	   style=" stroke:#001221; stroke-width:1;"></polyline>
	  <polygon points="83.3754 102.634 73.5577 110.147 68.931 105.097 
	   64.0786 101.525 60.2417 99.5546 57.7591 98.5693 54.5994 97.9534 
	   54.8251 96.229 55.1636 94.0118 55.5022 92.9034 55.9535 91.918 
	   56.5178 91.0558 57.082 90.3167 57.7591 89.5777 58.549 89.085 
	   59.5646 88.5924 60.5803 88.346 61.7087 88.2228 62.9501 88.346 
	   64.3042 88.4691 66.6741 89.085 71.9779 91.918 77.5074 96.229 
	   81.3442 100.17 83.3754 102.634 83.3754 102.634 83.3754 102.634 
	   83.3754 102.634 83.3754 102.634 "
	   style="stroke:none; fill:#001221; fill-opacity:100%"></polygon>
	  <polyline points="83.3754 102.634 73.5577 110.147 68.931 105.097 
	   64.0786 101.525 60.2417 99.5546 57.7591 98.5693 54.5994 97.9534 
	   54.8251 96.229 55.1636 94.0118 55.5022 92.9034 55.9535 91.918 
	   56.5178 91.0558 57.082 90.3167 57.7591 89.5777 58.549 89.085 
	   59.5646 88.5924 60.5803 88.346 61.7087 88.2228 62.9501 88.346 
	   64.3042 88.4691 66.6741 89.085 71.9779 91.918 77.5074 96.229 
	   81.3442 100.17 83.3754 102.634 83.3754 102.634 83.3754 102.634"
	   style=" stroke:#001221; stroke-width:1;"></polyline>
	</g>
      </g>
    </g>
  </symbol>
 </defs>
</svg>
