<?xml version="1.0"?>
<?metis version="3.4"?>
<?metisxml version="1.1"?>
<!DOCTYPE svg  PUBLIC "-//W3C//DTD SVG August 1999//EN"
 "http://www.w3.org/Graphics/SVG/svg-19990812.dtd">

<svg width="200" height="200">
 <title>Symbol library: gem_event.svg</title>
 <defs>
  <symbol id="oid0" xml:space="preserve" class="METIS_SYMBOL">
   <title>Event</title>
    <polygon points="37.3065 64 222.355 64 229.321 63.303 
     234.841 61.7928 239.967 59.5853 243.647 57.2618 248.115 53.5442 
     251.006 49.9427 253.241 45.8765 255.212 40.8809 256 34.9559 
     255.607 29.4956 254.16 24.1515 251.663 19.9692 249.298 16.3678 
     245.749 13.1148 242.333 10.2104 236.681 7.306 230.24 5.21482 
     222.355 4.51777 37.3065 4.51777 30.9981 4.98247 25.2152 6.37659 
     20.7467 8.70011 16.2782 10.7913 11.8097 14.5089 7.86688 20.0854 
     4.97548 24.9648 3.92407 31.4708 3.92407 38.6735 5.50119 44.4824 
     8.12972 49.5943 12.0725 53.7765 16.2782 57.7265 21.5353 60.2824 
     26.2667 62.6059 32.8379 63.7677 37.3065 64 37.3065 64 37.3065 64 "
     style=" stroke:#b9b9b9; stroke-width:1; fill:#878787; fill-opacity:100%"     class="TAG:Shadow"></polygon>
    <polygon points="33.3825 59.4822 218.431 59.4822 225.397 58.7852 
     230.917 57.275 236.043 55.0676 239.723 52.744 244.191 49.0264 
     247.082 45.4249 249.317 41.3587 251.288 36.3632 252.076 30.4381 
     251.683 24.9779 250.236 19.6337 247.739 15.4514 245.374 11.85 
     241.825 8.59705 238.409 5.69264 232.757 2.78823 226.316 0.697058 
     218.431 0 33.3825 0 27.074 0.464706 21.2911 1.85883 
     16.8226 4.18235 12.3541 6.27353 7.88561 9.99116 3.94281 15.5676 
     1.05142 20.4471 0 26.953 0 34.1558 1.57712 39.9647 
     4.20565 45.0765 8.14847 49.2587 12.3541 53.2088 17.6112 55.7646 
     22.3426 58.0882 28.9139 59.2499 33.3825 59.4822 33.3825 59.4822 33.3825 59.4822 "
     style=" stroke:#000000; stroke-width:1; fill:#ffffff; fill-opacity:100%"     class="TAG:canvas"></polygon>
    <g>
      <desc>METIS_TEXT_GROUP</desc>
      <text  x="23.5294" y="19.0938"
       style=" stroke:#000000; stroke-width:1; font-family:sans-serif; font-size:16;"
       class="TAG:text">text</text>
      <rect x="23.5294" y="4.09382" width="206.224" height="51.8764"
       style=" stroke:#000000; stroke-width:1; fill:#000000; fill-opacity:0%"></rect>
    </g>
  </symbol>
 </defs>
</svg>
