<?xml version="1.0"?>
<?metis version="3.0"?>
<!DOCTYPE svg  PUBLIC "-//W3C//DTD SVG August 1999//EN"
 "http://www.w3.org/Graphics/SVG/svg-19990812.dtd">

<svg width="200" height="200">
 <title>Symbol library: GEM_PROCESS_ROLE.svg</title>
 <defs>
  <symbol id="oid0" xml:space="preserve" class="METIS_SYMBOL">
   <title>Process Role</title>
    <g>
      <g>
	<desc>METIS_TEXT_GROUP</desc>
	<text  x="0" y="169.4"
	 style=" stroke:#000000; stroke-width:1; font-family:sans-serif; font-size:16;" class="TAG:text"
>text</text>
	<rect x="0" y="153.6" width="319.295" height="102.4"
	 style=" stroke:#000000; stroke-width:1; fill:#ffffff; fill-opacity:0%"></rect>
      </g>
      <g>
	<polygon points="117.106 9.31579 72.3747 43.4382 69.3926 135.569 
	 176.749 135.569 161.838 33.2015 117.106 9.31579 "
	 style=" stroke:#ffffff; stroke-width:1; fill:#ffff00; fill-opacity:100%"></polygon>
	<polygon points="3.67607 137.886 169.369 137.886 169.369 129.268 
	 3.67607 129.268 3.67607 137.886 "
	 style=" stroke:#000000; stroke-width:1; fill:#6e6eff; fill-opacity:100%" class="TAG:Hat3Strap"></polygon>
	<polygon points="320 133.577 319.291 130.764 317.177 128 
	 313.693 125.332 308.9 122.804 302.88 120.461 295.734 118.342 
	 287.587 116.484 278.577 114.918 268.857 113.672 258.596 112.766 
	 247.967 112.216 237.154 112.032 226.34 112.216 215.711 112.766 
	 205.449 113.672 195.73 114.918 186.72 116.484 178.572 118.342 
	 171.427 120.461 165.406 122.804 154.307 120.65 155.016 136.389 
	 157.13 139.152 160.613 141.822 165.406 144.349 171.427 146.692 
	 178.572 148.811 186.72 150.669 195.73 152.235 205.449 153.482 
	 215.711 154.388 226.34 154.937 237.154 155.121 247.967 154.937 
	 258.596 154.388 268.857 153.482 278.577 152.235 287.587 150.669 
	 295.734 148.811 302.88 146.692 308.9 144.349 313.693 141.822 
	 317.177 139.152 319.291 136.389 320 133.577 "
	 style=" stroke:#000000; stroke-width:1; fill:#6e6eff; fill-opacity:100%" class="TAG:Hat3"></polygon>
	<polygon points="78.9912 129.268 78.9912 94.7961 94.0543 43.0892 
	 116.649 8.61783 101.903 9.65003 87.4095 12.7289 73.4162 17.8018 
	 60.1626 24.7818 47.8756 33.5497 36.7649 43.9553 27.0219 55.8208 
	 18.8116 68.943 12.2752 83.0971 7.52562 98.0411 4.64293 113.52 
	 3.67607 129.268 78.9912 129.268 "
	 style=" stroke:#000000; stroke-width:1; fill:#dc0000; fill-opacity:100%" class="TAG:Hat3"></polygon>
	<polygon points="228.655 113.52 225.772 98.0411 221.022 83.0971 
	 214.486 68.943 206.276 55.8208 196.532 43.9553 185.422 33.5497 
	 173.135 24.7818 159.882 17.8018 145.888 12.7289 131.395 9.65003 
	 116.649 8.61783 139.243 43.0892 154.306 94.7961 154.306 129.268 
	 207.027 129.268 222.09 120.65 228.655 113.52 "
	 style=" stroke:#000000; stroke-width:1; fill:#00a500; fill-opacity:100%" class="TAG:Hat3"></polygon>
	<polyline points="3.67607 129.268 3.67607 129.268 207.027 129.268"
	 style=" stroke:#000000; stroke-width:1;"></polyline>
	<ellipse  cx="116.649" cy="8.61785" rx="15.063" ry="8.61785"
	 style=" stroke:#000000; stroke-width:1; fill:#4b4bff; fill-opacity:100%" class="TAG:Hat3Button"></ellipse>
      </g>
    </g>
  </symbol>
 </defs>
</svg>
