<?xml version="1.0"?>
<?metis version="3.0"?>
<?metisxml version="1.0"?>
<!DOCTYPE svg  PUBLIC "-//W3C//DTD SVG August 1999//EN"
 "http://www.w3.org/Graphics/SVG/svg-19990812.dtd">

<svg width="200" height="200">
 <title>Symbol library: gem_female.svg</title>
 <defs>
  <symbol id="oid0" xml:space="preserve" class="METIS_SYMBOL">
   <title>Female</title>
    <rect x="4" y="4" width="121" height="96"
     style=" stroke:#9b9b9b; stroke-width:1; fill:#9b9b9b; fill-opacity:100%" class="TAG:shadow"></rect>
    <rect x="0" y="0" width="123" height="98"
     style=" stroke:#000000; stroke-width:1; fill:#ffffff; fill-opacity:100%" class="TAG:border"></rect>
    <rect x="4" y="4" width="115" height="90"
     style="stroke:none; fill:#96a5ff; fill-opacity:100%" class="TAG:canvas"></rect>
    <g>
      <desc>METIS_TEXT_GROUP</desc>
      <text  x="5" y="67.8"
       style=" stroke:#000000; stroke-width:1; font-family:sans-serif; font-size:16; text-align:center" class="TAG:text"
>text</text>
      <rect x="5" y="52" width="113" height="41"
       style=" stroke:#000000; stroke-width:1; fill:#ffffff; fill-opacity:0%"></rect>
    </g>
    <g>
      <ellipse  cx="62.9607" cy="10.1938" rx="5.01636" ry="4.34352"
       style=" stroke:#4b4bff; stroke-width:1; fill:#ffffff; fill-opacity:100%" class="TAG:Female"></ellipse>
      <polygon points="75.3647 28.3261 73.814 31.6824 66.2167 18.5256 
       66.2167 21.7477 71.9911 35.9743 65.0541 36.012 65.0541 49.605 
       61.0421 49.605 61.0421 36.012 53.8504 35.9743 59.7047 21.8148 
       59.7047 18.4921 52.1461 31.5817 50.576 28.3092 57.8041 15.8364 
       68.1538 15.8364 75.3647 28.3261 75.3647 28.3261 "
       style=" stroke:#4b4bff; stroke-width:1; fill:#ffffff; fill-opacity:100%" class="TAG:Female"></polygon>
    </g>
  </symbol>
 </defs>
</svg>
