<?xml version="1.0"?>
<?metis version="3.4"?>
<?metisxml version="1.1"?>
<!DOCTYPE svg  PUBLIC "-//W3C//DTD SVG August 1999//EN"
 "http://www.w3.org/Graphics/SVG/svg-19990812.dtd">

<svg width="200" height="200">
 <title>Symbol library: gem_mechanism.svg</title>
 <defs>
  <symbol id="oid0" xml:space="preserve" class="METIS_SYMBOL">
   <title>Mechanism</title>
    <g>
      <polygon points="7.38462 320 480 320 480 92.4444 
       288 92.4444 288 49.7778 332.308 49.7778 243.692 7.11111 
       155.077 49.7778 199.385 49.7778 199.385 92.4444 7.38462 92.4444 
       7.38462 320 7.38462 320 "
       style=" stroke:#000000; stroke-width:1; fill:#000000; fill-opacity:100%"       class="TAG:shadow"></polygon>
      <polygon points="0 312.889 472.615 312.889 472.615 85.3333 
       280.615 85.3333 280.615 42.6667 324.923 42.6667 236.308 0 
       147.692 42.6667 192 42.6667 192 85.3333 0 85.3333 
       0 312.889 0 312.889 "
       style=" stroke:#000000; stroke-width:1; fill:#ffff6e; fill-opacity:100%"       class="TAG:canvas"></polygon>
      <g>
	<desc>METIS_TEXT_GROUP</desc>
	<text  x="11.0769" y="122.556"
	 style=" stroke:#000000; stroke-width:1; font-family:sans-serif; font-size:24;"
	 class="TAG:text">text</text>
	<rect x="11.0769" y="99.5556" width="446.769" height="199.111"
	 style=" stroke:#000000; stroke-width:1; fill:#000000; fill-opacity:0%"></rect>
      </g>
    </g>
  </symbol>
 </defs>
</svg>
