<?xml version="1.0"?>
<?metis version="3.0"?>
<!DOCTYPE svg  PUBLIC "-//W3C//DTD SVG August 1999//EN"
 "http://www.w3.org/Graphics/SVG/svg-19990812.dtd">

<svg width="200" height="200">
 <title>Symbol library: GEM_COMMUNICATION.svg</title>
 <defs>
  <symbol id="oid0" xml:space="preserve" class="METIS_SYMBOL">
   <title>Communication</title>
    <g>
      <rect x="4" y="4" width="121" height="96"
       style=" stroke:#9b9b9b; stroke-width:1; fill:#9b9b9b; fill-opacity:100%" class="TAG:shadow"></rect>
      <rect x="0" y="0" width="123" height="98"
       style=" stroke:#000000; stroke-width:1; fill:#ffffff; fill-opacity:100%" class="TAG:border"></rect>
      <rect x="4" y="4" width="115" height="90"
       style="stroke:none; fill:#96a5ff; fill-opacity:100%" class="TAG:canvas"></rect>
      <g>
	<desc>METIS_TEXT_GROUP</desc>
	<text  x="5" y="67.8"
	 style=" stroke:#000000; stroke-width:1; font-family:sans-serif; font-size:16; text-align:center" class="TAG:text"
>text</text>
	<rect x="5" y="52" width="113" height="41"
	 style=" stroke:#000000; stroke-width:1; fill:#ffffff; fill-opacity:0%"></rect>
      </g>
    </g>
    <g>
      <path d="M 52.9396 31.0105 C 55.2498 31.9969 54.9824 33.206 
       55.0422 34.0476 C 55.1211 35.1584 54.6268 36.7732 53.4068 37.3183 
       C 53.3537 37.342 53.3229 37.4121 53.1732 37.5519"
       style=" stroke:#4b4bff; stroke-width:1;" class="TAG:VoiceLines"></path>
      <path d="M 55.0422 28.4407 C 57.7418 29.505 58.5725 30.8548 
       58.7801 33.814 C 58.9585 36.3559 57.3265 40.5111 55.0422 41.2899 
       C 55.002 41.3035 55.0349 41.3793 55.0422 41.5235"
       style=" stroke:#4b4bff; stroke-width:1;" class="TAG:VoiceLines"></path>
      <path d="M 56.6775 24.9364 C 61.4546 29.1147 62.1027 30.3356 
       62.3104 34.0736 C 62.5583 38.5363 60.3376 41.9648 56.392 44.9759"
       style=" stroke:#4b4bff; stroke-width:1;" class="TAG:VoiceLines"></path>
      <path d="M 48.7486 20.8992 C 48.0059 22.4748 47.7787 23.1989 
       47.8396 23.7955 C 47.9269 24.6507 47.6615 25.369 48.0768 26.3381 
       C 48.1888 26.5996 48.2152 26.8226 49.0459 27.9302 C 49.3945 28.395 
       49.8766 28.4147 50.0842 29.3838 C 50.2218 30.0259 49.5997 30.0068 
       48.7486 30.6226 C 48.3258 30.9285 49.2641 31.631 48.9759 32.0708 
       C 48.1504 33.3302 44.7796 33.2917 44.6579 33.5189 C 44.1529 34.4614 
       48.2902 33.898 48.7486 35.3809 C 48.9635 36.0761 47.6881 35.7487 
       47.6123 37.036 C 47.5827 37.5384 47.7694 38.0822 47.6881 38.5991 
       C 47.5927 39.2041 47.0464 39.6152 46.577 39.7024 C 44.1024 40.1622 
       41.1638 38.7726 38.9763 40.1392 C 36.7239 41.5465 39.2036 48.6214 
       38.5218 48.6214 C 35.0716 48.6214 29.6552 46.459 27.8405 43.8631 
       C 26.2497 41.5874 30.3404 30.002 36.7037 21.5198 C 36.7037 21.5198 
       36.7037 21.5198 36.7037 21.5198 Z"
       style=" stroke:#ffb367; stroke-width:1; fill:#ffcf9f; fill-opacity:100%" class="TAG:Woman"></path>
      <polyline points="46.8076 24.6246 44.4557 25.7227 46.8076 26.0364"
       style=" stroke:#000000; stroke-width:1;" class="TAG:Women&#39;sEye"></polyline>
      <path d="M 21.0227 38.3807 C 20 34.3465 22.6135 41.3805 
       23.7498 33.519 C 24.1047 31.0639 24.3628 25.3783 25.5679 22.9681 
       C 26.3301 21.4436 26.2068 18.2808 27.8405 17.3822 C 28.7086 16.9048 
       30.8251 15.8371 32.3857 15.3134 C 35.8895 14.1375 42.1787 14.076 
       44.6579 14.6927 C 47.0901 15.2979 49.757 18.6411 49.2031 20.6923 
       C 48.6328 22.8038 46.0215 22.7612 41.4762 23.5887 C 39.8525 23.8843 
       39.4937 26.5917 38.5218 28.1401 C 37.8606 29.1935 35.2995 29.728 
       34.8856 30.6227 C 33.5927 33.4179 35.3351 35.9098 34.6583 37.4497 
       C 33.3932 40.3288 33.5255 38.899 32.2721 41.7943 C 31.7111 43.0901 
       28.8632 43.9665 24.4316 42.7252 Z"
       style=" stroke:#464646; stroke-width:1; fill:#6e6e00; fill-opacity:100%" class="TAG:Woman&#39;sHair"></path>
      <path d="M 75.2818 23.8542 C 72.2708 25.7473 70.6928 28.7358 
       70.8677 30.2666 C 71.1519 32.7534 73.1591 35.0981 75.415 36.306"
       style=" stroke:#4b4bff; stroke-width:1;" class="TAG:VoiceLines"></path>
      <path d="M 71.6848 21.2165 C 68.5758 23.3783 66.6757 27.7088 
       66.8178 30.4087 C 67.053 34.8788 69.6598 37.354 73.2835 40.0007"
       style=" stroke:#4b4bff; stroke-width:1;" class="TAG:VoiceLines"></path>
      <path d="M 76.9604 26.0124 C 75.2019 26.9983 74.7756 28.7746 
       74.9177 30.0535 C 75.052 31.2622 75.9834 32.0429 77.44 32.7268 
       C 77.44 32.7268 77.44 32.7268 77.44 32.7268"
       style=" stroke:#4b4bff; stroke-width:1;" class="TAG:VoiceLines"></path>
      <path d="M 89.5844 8.70596 C 94.6386 8.51234 96.7445 9.28684 
       99.4822 11.0295 C 101.021 12.0087 102.593 15.3285 103.062 16.8382 
       C 103.905 19.549 103.483 24.9705 102.009 28.0685 C 100.247 31.7726 
       96.4785 32.8411 96.1253 34.6506 C 95.9849 35.3701 97.9542 39.9412 
       96.9521 40.5684 C 93.5154 42.7195 88.3677 43.3219 83.1262 43.2359 
       C 81.7533 43.2133 84.8098 37.4731 84.9044 36.2079 C 84.9492 35.6088 
       85.4445 34.2953 84.7863 33.6123 C 83.8104 32.5997 82.1786 33.2319 
       81.0671 32.8231 C 79.6632 32.3068 80.4539 31.2996 80.4119 30.5857 
       C 80.3829 30.0914 80.0278 29.7193 80.0376 29.2518 C 80.043 28.9925 
       84.8401 28.1086 84.5302 27.2295 C 84.521 27.2034 81.0371 27.4109 
       80.298 26.6562 C 80.0999 26.454 81.1657 24.8311 80.8885 24.3722 
       C 80.6215 23.93 79.0133 24.6266 78.6389 23.5079 C 78.228 22.28 
       80.5953 20.7082 81.0067 19.4925 C 81.2741 18.7023 80.5946 17.197 
       80.6523 16.4817 C 80.7014 15.8733 82.0283 12.7626 82.3059 12.4326 
       C 82.4638 12.2449 82.8454 9.67409 88.5314 8.70596 Z"
       style=" stroke:#ffb367; stroke-width:1; fill:#ffe2c5; fill-opacity:100%" class="TAG:Man"></path>
      <path d="M 80.666 15.216 C 80.666 15.216 88.2539 15.9245 
       89.7478 17.62 C 90.6048 18.5926 89.0423 20.6706 90.282 21.6266 
       C 91.603 22.6454 93.2618 20.2371 94.5558 21.0924 C 96.3085 22.2509 
       96.3016 25.1611 96.1585 26.7017 C 96.0412 27.9635 93.9787 29.5732 
       94.0216 30.9755 C 94.0742 32.6966 95.1247 35.8983 96.9598 36.0506 
       C 99.4534 36.2576 101.3 31.8103 102.035 29.9071 C 103.614 25.8196 
       106 17.5788 102.836 12.812 C 100.259 8.92821 93.3903 8.00997 
       89.7478 8.00401 C 87.2976 8 82.457 8.16052 80.6957 10.6751 
       C 80.6957 10.6751 80.1021 16.7296 80.577 14.474 Z"
       style=" stroke:#464646; stroke-width:1; fill:#000000; fill-opacity:100%" class="TAG:Man&#39;sHair"></path>
      <polyline points="81.8871 18.7372 84.5307 19.6122 82.3101 20.39"
       style=" stroke:#464646; stroke-width:1;" class="TAG:Man&#39;sEye"></polyline>
    </g>
  </symbol>
 </defs>
</svg>
