<?xml version="1.0"?>
<?metis version="3.0"?>
<!DOCTYPE svg  PUBLIC "-//W3C//DTD SVG August 1999//EN"
 "http://www.w3.org/Graphics/SVG/svg-19990812.dtd">

<svg width="200" height="200">
 <title>Symbol library: GEM_DOCUMENT_CLASS.svg</title>
 <defs>
  <symbol id="oid0" xml:space="preserve" class="METIS_SYMBOL">
   <title>Document Class</title>
    <rect x="4" y="4" width="121" height="96"
     style=" stroke:#9b9b9b; stroke-width:1; fill:#9b9b9b; fill-opacity:100%" class="TAG:shadow"></rect>
    <rect x="-3.55271e-015" y="0" width="123" height="98"
     style=" stroke:#000000; stroke-width:1; fill:#ffffff; fill-opacity:100%" class="TAG:border"></rect>
    <rect x="4" y="4" width="115" height="90"
     style="stroke:none; fill:#b9b9b9; fill-opacity:100%" class="TAG:canvas"></rect>
    <g>
      <desc>METIS_TEXT_GROUP</desc>
      <text  x="5" y="67.8"
       style=" stroke:#000000; stroke-width:1; font-family:sans-serif; font-size:16; text-align:center" class="TAG:text"
>text</text>
      <rect x="5" y="52" width="113" height="41"
       style=" stroke:#000000; stroke-width:1; fill:#ffffff; fill-opacity:0%"></rect>
    </g>
    <g>
      <rect x="59.8881" y="13.1619" width="13.5679" height="34.1766"
       style=" stroke:#000000; stroke-width:1; fill:#96a5ff; fill-opacity:100%" class="TAG:Book"></rect>
      <polyline points="62.86 17.6197 70.2897 17.6197"
       style=" stroke:#000000; stroke-width:1;"></polyline>
      <polyline points="62.86 22.0776 70.2897 22.0776"
       style=" stroke:#000000; stroke-width:1;"></polyline>
      <polyline points="62.86 19.1057 70.2897 19.1057"
       style=" stroke:#000000; stroke-width:1;"></polyline>
      <rect x="46.5147" y="13.1619" width="13.3735" height="34.1766"
       style=" stroke:#000000; stroke-width:1; fill:#96a5ff; fill-opacity:100%" class="TAG:Book"></rect>
      <polyline points="49.4866 17.6197 56.9163 17.6197"
       style=" stroke:#000000; stroke-width:1;"></polyline>
      <polyline points="49.4866 22.0776 56.9163 22.0776"
       style=" stroke:#000000; stroke-width:1;"></polyline>
      <polyline points="49.4866 19.1057 56.9163 19.1057"
       style=" stroke:#000000; stroke-width:1;"></polyline>
      <rect x="33.1412" y="13.1619" width="13.3735" height="34.1766"
       style=" stroke:#000000; stroke-width:1; fill:#96a5ff; fill-opacity:100%" class="TAG:Book"></rect>
      <polygon points="50.9725 7.21816 50.9725 13.1619 33.1412 13.1619 50.9725 7.21816 "
       style=" stroke:#000000; stroke-width:1; fill:#96a5ff; fill-opacity:100%" class="TAG:Book"></polygon>
      <polyline points="36.1131 17.6197 43.5428 17.6197"
       style=" stroke:#000000; stroke-width:1;"></polyline>
      <polyline points="36.1131 22.0776 43.5428 22.0776"
       style=" stroke:#000000; stroke-width:1;"></polyline>
      <polyline points="36.1131 19.1057 43.5428 19.1057"
       style=" stroke:#000000; stroke-width:1;"></polyline>
      <polygon points="46.5147 13.1619 64.346 7.21816 64.346 13.1619 46.5147 13.1619 "
       style=" stroke:#000000; stroke-width:1; fill:#96a5ff; fill-opacity:100%"></polygon>
      <polygon points="77.7194 7.21816 77.7194 13.1619 59.8881 13.1619 77.7194 7.21816 "
       style=" stroke:#000000; stroke-width:1; fill:#96a5ff; fill-opacity:100%" class="TAG:Book"></polygon>
      <polygon points="73.2616 13.1619 91.0929 7.21816 91.0929 41.3948 
       73.2616 47.3386 73.2616 13.1619 "
       style=" stroke:#000000; stroke-width:1; fill:#96a5ff; fill-opacity:100%" class="TAG:Book"></polygon>
      <g>
	<polygon points="34.6271 13.1619 48.0006 8.7041 59.8154 8.72271 
	 46.5147 13.1619 34.6271 13.1619 "
	 style=" stroke:#000000; stroke-width:1; fill:#9b9b9b; fill-opacity:100%" class="TAG:Pages"></polygon>
	<polyline points="43.5428 13.1619 56.9163 8.7041"
	 style=" stroke:#000000; stroke-width:1;"></polyline>
	<polyline points="40.5709 13.1619 53.9444 8.7041"
	 style=" stroke:#000000; stroke-width:1;" class="TAG:Pages"></polyline>
	<polyline points="37.599 13.1619 50.9725 8.7041"
	 style=" stroke:#000000; stroke-width:1;"></polyline>
      </g>
      <g>
	<polygon points="48.0006 13.1619 61.3741 8.7041 73.1889 8.72271 
	 59.8881 13.1619 48.0006 13.1619 "
	 style=" stroke:#000000; stroke-width:1; fill:#9b9b9b; fill-opacity:100%" class="TAG:Pages"></polygon>
	<polyline points="56.9163 13.1619 70.2897 8.7041"
	 style=" stroke:#000000; stroke-width:1;"></polyline>
	<polyline points="53.9444 13.1619 67.3178 8.7041"
	 style=" stroke:#000000; stroke-width:1;" class="TAG:Pages"></polyline>
	<polyline points="50.9725 13.1619 64.346 8.7041"
	 style=" stroke:#000000; stroke-width:1;"></polyline>
      </g>
      <g>
	<polygon points="61.3741 13.1619 74.7475 8.7041 86.5623 8.72271 
	 73.2616 13.1619 61.3741 13.1619 "
	 style=" stroke:#000000; stroke-width:1; fill:#9b9b9b; fill-opacity:100%" class="TAG:Pages"></polygon>
	<polyline points="70.2897 13.1619 83.6632 8.7041"
	 style=" stroke:#000000; stroke-width:1;"></polyline>
	<polyline points="67.3178 13.1619 80.6913 8.7041"
	 style=" stroke:#000000; stroke-width:1;" class="TAG:Pages"></polyline>
	<polyline points="64.346 13.1619 77.7194 8.7041"
	 style=" stroke:#000000; stroke-width:1;"></polyline>
      </g>
      <polyline points="77.7194 41.3948 86.6351 38.4229"
       style=" stroke:#000000; stroke-width:1;"></polyline>
      <polyline points="77.7194 38.4229 86.6351 35.451"
       style=" stroke:#000000; stroke-width:1;"></polyline>
      <polygon points="76.9765 19.1057 88.121 15.3908 88.121 22.8205 
       76.9765 26.5354 76.9765 19.1057 "
       style=" stroke:#dcdcdc; stroke-width:1; fill:#dcdcdc; fill-opacity:100%" class="TAG:BookTitle"></polygon>
    </g>
    <rect x="4" y="4" width="115" height="45"
     style="stroke:none; fill:#878787; fill-opacity:0%" class="TAG:grid"></rect>
  </symbol>
 </defs>
</svg>
