<?xml version="1.0"?>
<?metis version="3.0"?>
<!DOCTYPE svg  PUBLIC "-//W3C//DTD SVG August 1999//EN"
 "http://www.w3.org/Graphics/SVG/svg-19990812.dtd">

<svg width="200" height="200">
 <title>Symbol library: GEM_STANDARD.svg</title>
 <defs>
  <symbol id="oid0" xml:space="preserve" class="METIS_SYMBOL">
   <title>Standard</title>
    <g>
      <rect x="4" y="4" width="121" height="96"
       style=" stroke:#9b9b9b; stroke-width:1; fill:#9b9b9b; fill-opacity:100%" class="TAG:shadow"></rect>
      <rect x="0" y="0" width="123" height="98"
       style=" stroke:#000000; stroke-width:1; fill:#ffffff; fill-opacity:100%" class="TAG:border"></rect>
      <rect x="4" y="4" width="115" height="90"
       style="stroke:none; fill:#b9b9b9; fill-opacity:100%" class="TAG:canvas"></rect>
      <g>
	<desc>METIS_TEXT_GROUP</desc>
	<text  x="5" y="67.8"
	 style=" stroke:#000000; stroke-width:1; font-family:sans-serif; font-size:16; text-align:center" class="TAG:text"
>text</text>
	<rect x="5" y="52" width="113" height="41"
	 style=" stroke:#000000; stroke-width:1; fill:#ffffff; fill-opacity:0%"></rect>
      </g>
    </g>
    <g>
      <rect x="46" y="8" width="34.449" height="40"
       style=" stroke:#000000; stroke-width:1; fill:#ffffff; fill-opacity:100%" class="TAG:Paper"></rect>
      <rect x="63.8025" y="13.1397" width="13.9132" height="5.24809"
       style=" stroke:#dcdcdc; stroke-width:1; fill:#dcdcdc; fill-opacity:100%" class="TAG:TextBlock"></rect>
      <polygon points="51.4386 18.6281 51.1844 19.7536 52.3462 19.6084 
       52.4551 20.7702 53.4717 20.2982 54.0526 21.3874 54.8876 20.6976 
       55.6863 21.5689 56.3761 20.5887 57.5016 21.2785 57.8284 20.1167 
       59.0628 20.7702 58.8812 19.3906 60.3698 19.6447 59.7163 18.3014 
       61.0596 17.9383 60.1157 17.0307 61.2048 16.232 60.0068 15.6511 
       60.7691 14.5619 59.4259 14.4167 59.8978 13.0007 58.4819 13.3638 
       58.4093 12.1294 57.1748 12.7103 56.4851 11.5122 55.4322 12.3109 
       54.5972 11.4396 53.98 12.5651 52.564 11.9842 52.4188 13.3638 
       51.0755 13.1097 51.5112 14.2715 49.8774 14.816 50.8214 15.7237 
       49.6233 16.7402 50.8214 17.1759 50.0226 18.4466 51.4386 18.6281 "
       style=" stroke:#6e6e00; stroke-width:1; fill:#dcdc00; fill-opacity:100%"></polygon>
      <ellipse  cx="55.7489" cy="16.497" rx="4.33827" ry="3.89561"
       style=" stroke:#dcdc00; stroke-width:1; fill:#dcdc00; fill-opacity:100%" class="TAG:Seal"></ellipse>
      <polyline points="50.2414 26.6022 76.9246 26.6022"
       style=" stroke:#000000; stroke-width:1;" class="TAG:TextLines"></polyline>
      <polyline points="50.2414 30.2409 76.9246 30.2409"
       style=" stroke:#000000; stroke-width:1;" class="TAG:TextLines"></polyline>
      <polyline points="50.2414 34.1827 76.9246 34.1827"
       style=" stroke:#000000; stroke-width:1;" class="TAG:TextLines"></polyline>
      <polyline points="50.2414 38.4278 76.9246 38.4278"
       style=" stroke:#000000; stroke-width:1;" class="TAG:TextLines"></polyline>
      <polyline points="50.2414 42.3696 76.9246 42.3696"
       style=" stroke:#000000; stroke-width:1;" class="TAG:TextLines"></polyline>
    </g>
  </symbol>
 </defs>
</svg>
