<?xml version="1.0"?>
<?metis version="3.0"?>
<?metisxml version="1.0"?>
<!DOCTYPE svg  PUBLIC "-//W3C//DTD SVG August 1999//EN"
 "http://www.w3.org/Graphics/SVG/svg-19990812.dtd">

<svg width="200" height="200">
 <title>Symbol library: gem_supplier.svg</title>
 <defs>
  <symbol id="oid0" xml:space="preserve" class="METIS_SYMBOL">
   <title>Supplier</title>
    <rect x="4" y="4" width="121" height="96"
     style=" stroke:#9b9b9b; stroke-width:1; fill:#9b9b9b; fill-opacity:100%" class="TAG:shadow"></rect>
    <rect x="0" y="0" width="123" height="98"
     style=" stroke:#000000; stroke-width:1; fill:#ffffff; fill-opacity:100%" class="TAG:border"></rect>
    <rect x="4" y="4" width="115" height="90"
     style="stroke:none; fill:#96a5ff; fill-opacity:100%" class="TAG:canvas"></rect>
    <g>
      <desc>METIS_TEXT_GROUP</desc>
      <text  x="5" y="67.8"
       style=" stroke:#000000; stroke-width:1; font-family:sans-serif; font-size:16; text-align:center" class="TAG:text"
>text</text>
      <rect x="5" y="52" width="113" height="41"
       style=" stroke:#000000; stroke-width:1; fill:#ffffff; fill-opacity:0%"></rect>
    </g>
    <g>
      <polygon points="30.6205 22.3539 37.4404 22.3539 37.4404 29.7583 
       30.6205 29.7583 30.6205 22.3539 30.6205 22.3539 "
       style=" stroke:#000000; stroke-width:1; fill:#ffffff; fill-opacity:100%" class="TAG:Window"></polygon>
      <ellipse  cx="20.4504" cy="40.6609" rx="4.08123" ry="4.00836"
       style=" stroke:#000000; stroke-width:1; fill:#000000; fill-opacity:100%" class="TAG:Tire"></ellipse>
      <ellipse  cx="20.5233" cy="40.5881" rx="2.25925" ry="2.33213"
       style=" stroke:#000000; stroke-width:1; fill:#ffffff; fill-opacity:100%" class="TAG:WheelRim"></ellipse>
      <ellipse  cx="44.9378" cy="40.4423" rx="4.08123" ry="4.00835"
       style=" stroke:#000000; stroke-width:1; fill:#000000; fill-opacity:100%" class="TAG:Tire"></ellipse>
      <ellipse  cx="45.0107" cy="40.3694" rx="2.25925" ry="2.33213"
       style=" stroke:#000000; stroke-width:1; fill:#ffffff; fill-opacity:100%" class="TAG:WheelRim"></ellipse>
      <ellipse  cx="89.6856" cy="40.5881" rx="4.08123" ry="4.00836"
       style=" stroke:#000000; stroke-width:1; fill:#000000; fill-opacity:100%" class="TAG:Tire"></ellipse>
      <ellipse  cx="89.7585" cy="40.5152" rx="2.25925" ry="2.33213"
       style=" stroke:#000000; stroke-width:1; fill:#ffffff; fill-opacity:100%" class="TAG:WheelRim"></ellipse>
      <ellipse  cx="98.5769" cy="40.8796" rx="4.08123" ry="4.00835"
       style=" stroke:#000000; stroke-width:1; fill:#000000; fill-opacity:100%" class="TAG:Tire"></ellipse>
      <ellipse  cx="98.6498" cy="40.8067" rx="2.25925" ry="2.33213"
       style=" stroke:#000000; stroke-width:1; fill:#ffffff; fill-opacity:100%" class="TAG:WheelRim"></ellipse>
      <polygon points="15.4946 40.2965 13.7455 40.1508 13.7455 38.9847 
       13.0168 37.9644 14.7659 37.3814 14.7659 30.8223 15.9319 29.9477 
       17.681 28.9274 28.7587 28.9274 30.0705 29.6562 37.9414 29.6562 
       36.3381 38.5474 36.1923 41.6084 34.4432 41.6084 34.589 42.4829 
       25.6977 42.4829 25.6977 43.2117 25.6977 41.0253 24.5317 37.5271 
       23.3656 35.9238 22.1995 35.4865 20.3047 35.4865 18.4098 35.4865 
       17.3895 36.2153 16.6607 37.2356 16.0777 38.2559 15.4946 39.1305 
       16.0777 39.422 15.4946 40.2965 15.4946 40.2965 "
       style=" stroke:#000000; stroke-width:1; fill:#000000; fill-opacity:100%" class="TAG:Truck"></polygon>
      <polygon points="28.0299 28.7816 29.3417 21.0564 30.5078 22.2225 
       30.5078 29.6562 28.0299 28.7816 28.0299 28.7816 "
       style=" stroke:#000000; stroke-width:1; fill:#ffffff; fill-opacity:100%" class="TAG:Window"></polygon>
      <polygon points="30.5078 22.2225 29.3417 20.9107 28.7587 20.7649 
       29.0502 19.3073 30.5078 18.7243 31.6738 19.5989 39.2533 19.5989 
       39.2533 11.7279 40.4193 10.8534 39.5448 11.7279 40.5651 11.4364 
       40.5651 19.8904 41.4396 20.1819 41.4396 37.9644 36.0466 37.5271 
       37.5042 29.6562 37.5042 22.2225 30.5078 22.2225 30.5078 22.2225 "
       style=" stroke:#000000; stroke-width:1; fill:#000000; fill-opacity:100%" class="TAG:Truck"></polygon>
      <polygon points="36.3381 37.3814 42.3142 37.3814 40.2736 38.1102 
       40.1278 40.2965 35.7551 40.2965 36.3381 37.3814 36.3381 37.3814 "
       style=" stroke:#000000; stroke-width:1; fill:#000000; fill-opacity:100%"></polygon>
      <polygon points="45.3751 37.0899 43.3345 37.0899 42.6057 36.5068 
       42.6057 16.9752 44.1887 15.3719 107.905 15.3719 109.8 15.3719 
       110.675 15.9549 110.675 31.4053 110.675 34.9035 107.76 36.7983 
       105.573 37.8187 102.95 37.8187 101.929 36.9441 100.034 35.9238 
       97.8481 35.9238 95.8075 36.5068 94.557 38.1102 93.1838 36.7983 
       91.872 36.0696 89.6856 35.6323 88.0823 35.778 86.6247 36.6526 
       85.3129 38.1102 49.9451 38.1102 46.9784 36.7983 45.3751 37.0899 45.3751 37.0899 "
       style=" stroke:#000000; stroke-width:1; fill:#000000; fill-opacity:100%" class="TAG:Truck"></polygon>
      <ellipse  cx="53.7562" cy="38.0373" rx="0.655913" ry="0.801671"
       style=" stroke:#000000; stroke-width:1; fill:#ffffff; fill-opacity:100%" class="TAG:Ellipses"></ellipse>
      <ellipse  cx="55.724" cy="37.9644" rx="0.655913" ry="0.801671"
       style=" stroke:#000000; stroke-width:1; fill:#ffffff; fill-opacity:100%" class="TAG:Ellipses"></ellipse>
      <ellipse  cx="57.7646" cy="37.9644" rx="0.655913" ry="0.801671"
       style=" stroke:#000000; stroke-width:1; fill:#ffffff; fill-opacity:100%" class="TAG:Ellipses"></ellipse>
    </g>
  </symbol>
 </defs>
</svg>
