<?xml version="1.0"?>
<?metis version="3.2"?>
<?metisxml version="1.1"?>
<!DOCTYPE svg  PUBLIC "-//W3C//DTD SVG August 1999//EN"
 "http://www.w3.org/Graphics/SVG/svg-19990812.dtd">

<svg width="200" height="200">
 <title>Symbol library: gem_info_flow.svg</title>
 <defs>
  <symbol id="oid0" xml:space="preserve" class="METIS_SYMBOL">
   <title>Information Flow</title>
    <polygon points="0 0 0 304 16.2963 320 
     880 320 880 16 863.704 0 0 0 
     0 0 0 0 0 0 0 0 
     0 0 0 0 0 0 0 0 0 0 "
     style=" stroke:#000000; stroke-width:1; fill:#9b9b9b; fill-opacity:100%"     class="TAG:shadow"></polygon>
    <rect x="0" y="0" width="240" height="304"
     style=" stroke:#000000; stroke-width:1; fill:#ffffa5; fill-opacity:100%"     class="TAG:PictureBackground"></rect>
    <rect x="240" y="0" width="624" height="304"
     style=" stroke:#000000; stroke-width:1; fill:#ffffff; fill-opacity:100%"     class="TAG:canvas"></rect>
    <g>
      <desc>METIS_TEXT_GROUP</desc>
      <text  x="256" y="15.8"
       style=" stroke:#000000; stroke-width:1; font-family:sans-serif; font-size:16;"
       class="TAG:text">text</text>
      <rect x="256" y="0" width="608" height="304"
       style=" stroke:#000000; stroke-width:1; fill:#ffffff; fill-opacity:0%"></rect>
    </g>
    <polyline points="864 304 880 320"
     style=" stroke:#000000; stroke-width:1;"></polyline>
    <g>
      <polygon points="102.182 101.863 105.413 102.138 108.644 102.414 
       114.519 103.239 120.394 104.615 125.976 106.542 131.556 109.294 
       136.551 112.046 141.249 115.348 145.657 119.201 149.767 123.329 
       153.293 127.733 156.524 132.686 159.168 137.915 160.93 143.144 
       162.694 148.648 163.573 154.427 163.868 160.482 163.868 163.509 
       163.573 166.536 162.694 172.316 160.93 177.82 159.168 183.049 
       156.524 188.278 153.293 192.956 149.767 197.36 145.657 201.763 
       141.249 205.616 136.551 208.918 131.556 211.671 125.976 214.423 
       120.394 216.349 114.519 217.725 108.644 218.551 102.182 218.826 
       98.9511 218.826 95.7201 218.551 89.8454 217.725 83.9706 216.349 
       78.0959 214.423 72.8084 211.671 67.8156 208.918 63.1154 205.616 
       58.7099 201.763 54.5969 197.36 51.0711 192.956 47.8401 188.278 
       45.1964 183.049 43.1421 177.82 41.6729 172.316 40.7909 166.536 
       40.4984 160.482 40.4984 157.455 40.7909 154.427 41.6729 148.648 
       43.1421 143.144 45.1964 137.915 47.8401 132.686 51.0711 127.733 
       54.5969 123.329 58.7099 119.201 63.1154 115.348 67.8156 112.046 
       72.8084 109.294 78.0959 106.542 83.9706 104.615 89.8454 103.239 
       95.7201 102.414 102.182 101.863 102.182 101.863 102.182 101.863 "
       style=" stroke:#000000; stroke-width:1; fill:#000000; fill-opacity:100%"></polygon>
      <polygon points="102.182 103.511 105.413 103.511 108.352 103.786 
       114.226 104.612 120.101 105.987 125.683 107.914 130.971 110.391 
       135.964 113.143 140.371 116.446 144.777 120.024 148.595 124.152 
       152.121 128.556 155.352 133.235 157.703 138.189 159.757 143.418 
       161.227 148.923 162.109 154.427 162.401 160.207 162.401 163.234 
       162.109 166.262 161.227 171.766 159.757 177.27 157.703 182.5 
       155.352 187.454 152.121 192.133 148.595 196.536 144.777 200.664 
       140.371 204.242 135.964 207.545 130.971 210.573 125.683 212.774 
       120.101 214.701 114.226 216.352 108.352 217.178 102.182 217.453 
       99.2459 217.178 96.0126 217.178 90.1379 216.352 84.5579 214.701 
       78.9756 212.774 73.6881 210.573 68.6954 207.545 63.9951 204.242 
       59.5874 200.664 55.7691 196.536 52.2434 192.133 49.3071 187.454 
       46.9559 182.5 44.6069 177.27 43.1376 171.766 42.2556 166.262 
       41.9631 160.207 41.9631 157.454 42.2556 154.427 43.1376 148.923 
       44.6069 143.418 46.9559 138.189 49.3071 133.235 52.2434 128.556 
       55.7691 124.152 59.5874 120.024 63.9951 116.446 68.6954 113.143 
       73.6881 110.391 78.9756 107.914 84.5579 105.987 90.1379 104.612 
       96.0126 103.786 102.182 103.511 102.182 103.511 102.182 103.511 "
       style=" stroke:#ffffff; stroke-width:1; fill:#ababab; fill-opacity:100%"></polygon>
      <polygon points="49.0124 133.51 50.4816 131.033 51.9509 128.556 
       55.4744 124.152 59.5874 120.024 63.9951 116.446 68.6954 113.144 
       73.6881 110.391 78.9756 107.914 84.5579 105.987 90.1379 104.612 
       95.7201 104.061 101.595 103.511 107.47 103.786 113.344 104.612 
       119.514 105.987 125.096 107.639 130.676 110.116 133.027 111.767 
       135.964 113.144 140.664 116.721 145.072 120.299 148.89 124.703 
       152.416 128.831 155.352 133.785 157.703 138.74 159.757 143.969 
       161.227 149.198 162.109 154.702 162.401 159.932 162.109 165.436 
       161.521 171.216 160.052 176.445 158.29 181.95 155.647 187.179 
       154.177 189.656 152.416 192.133 148.89 196.812 144.777 200.94 
       140.371 204.518 135.671 207.821 130.676 210.573 125.389 212.775 
       119.809 214.702 114.226 216.078 108.644 216.903 102.769 217.179 
       96.8946 217.179 91.0199 216.353 85.1451 214.977 79.5629 213.05 
       73.9829 210.573 71.3391 209.197 68.6954 207.821 63.9951 204.243 
       59.2949 200.39 55.4744 196.262 51.9509 191.858 49.0124 187.179 
       46.6634 181.95 44.6069 176.996 43.1376 171.766 42.2556 166.262 
       41.9631 160.758 42.2556 155.253 42.8429 149.473 44.3121 144.244 
       46.3686 138.74 49.0124 133.51 49.0124 133.51 49.0124 133.51 "
       style=" stroke:#ffffff; stroke-width:1; fill:#ababab; fill-opacity:100%"></polygon>
      <polygon points="86.7989 138.595 85.6154 139.425 84.7289 140.256 
       83.5476 141.086 82.6589 141.917 81.7724 143.024 80.8859 143.855 
       79.9994 144.685 79.4076 145.793 52.5111 128.628 53.3999 127.521 
       54.2864 126.413 55.1729 125.306 56.0594 124.198 57.2406 123.091 
       58.1271 121.984 59.0136 120.877 60.1971 120.046 61.0836 118.938 
       62.2649 117.831 63.4484 117 64.6296 116.17 65.8131 115.34 
       66.9944 114.509 68.4726 113.678 69.9509 112.571 86.7989 138.595 
       86.7989 138.595 86.7989 138.595 "
       style=" stroke:#ff00ff; stroke-width:1; fill:#ff00ff; fill-opacity:100%"></polygon>
      <polygon points="117.275 182.367 118.456 181.813 119.638 180.982 
       120.524 180.152 121.413 179.321 122.594 178.491 123.481 177.383 
       124.072 176.553 124.959 175.445 151.561 192.887 150.969 193.44 
       149.491 195.379 148.604 196.486 147.718 197.593 146.831 198.701 
       145.648 199.531 144.761 200.639 143.58 201.746 142.396 202.577 
       141.51 203.684 140.329 204.514 139.145 205.345 137.669 206.175 
       136.486 207.006 135.304 207.837 133.826 208.667 117.275 182.367 
       117.275 182.367 117.275 182.367 "
       style=" stroke:#ff00ff; stroke-width:1; fill:#ff00ff; fill-opacity:100%"></polygon>
      <polygon points="79.4729 145.755 52.5471 128.496 51.6584 129.609 
       51.0666 130.444 50.1801 131.558 49.5884 132.949 48.9966 133.785 
       77.4006 148.538 79.4729 145.755 79.4729 145.755 79.4729 145.755 "
       style=" stroke:#00ffff; stroke-width:1; fill:#00ffff; fill-opacity:100%"></polygon>
      <polygon points="124.894 175.483 151.23 193.017 152.413 191.904 
       153.005 190.79 153.892 189.677 154.483 188.564 155.077 187.451 
       126.669 172.7 124.894 175.483 124.894 175.483 124.894 175.483 "
       style=" stroke:#00ffff; stroke-width:1; fill:#00ffff; fill-opacity:100%"></polygon>
      <polygon points="48.7109 134.261 77.4209 148.528 77.1239 149.088 
       47.8244 135.94 48.7109 134.261 48.7109 134.261 48.7109 134.261 "
       style=" stroke:#0000ff; stroke-width:1; fill:#0000ff; fill-opacity:100%"></polygon>
      <polygon points="155.361 187.526 126.651 172.714 127.243 171.876 
       156.247 185.57 155.361 187.526 155.361 187.526 155.361 187.526 "
       style=" stroke:#0000ff; stroke-width:1; fill:#0000ff; fill-opacity:100%"></polygon>
      <polygon points="47.8379 136.183 46.3574 138.982 76.5389 150.735 
       76.8336 149.056 47.8379 136.183 47.8379 136.183 47.8379 136.183 "
       style=" stroke:#00ff00; stroke-width:1; fill:#00ff00; fill-opacity:100%"></polygon>
      <polygon points="156.234 185.604 157.714 182.528 127.83 170.503 
       127.238 171.901 156.234 185.604 156.234 185.604 156.234 185.604 "
       style=" stroke:#00ff00; stroke-width:1; fill:#00ff00; fill-opacity:100%"></polygon>
      <polygon points="85.6266 139.466 84.1394 140.576 63.9411 116.707 
       66.3171 115.042 85.6266 139.466 85.6266 139.466 85.6266 139.466 "
       style=" stroke:#ff8500; stroke-width:1; fill:#ff8500; fill-opacity:100%"></polygon>
      <polygon points="118.445 181.497 119.932 180.387 139.838 204.806 
       137.462 206.471 118.445 181.497 118.445 181.497 118.445 181.497 "
       style=" stroke:#ff0016; stroke-width:1; fill:#ff0016; fill-opacity:100%"></polygon>
      <polygon points="74.4891 160.344 41.9631 160.344 41.9631 155.952 
       74.4891 158.295 74.4891 160.344 74.4891 160.344 74.4891 160.344 "
       style=" stroke:#ababab; stroke-width:1; fill:#ffffff; fill-opacity:100%"></polygon>
      <polygon points="130.177 160.893 162.403 161.175 160.925 172.7 
       129.288 165.953 130.177 160.893 130.177 160.893 130.177 160.893 "
       style=" stroke:#ababab; stroke-width:1; fill:#ffffff; fill-opacity:100%"></polygon>
      <polygon points="128.116 150.979 157.993 139.752 159.472 143.121 
       128.707 152.382 128.116 150.979 128.116 150.979 128.116 150.979 "
       style=" stroke:#ffffff; stroke-width:1; fill:#ffffff; fill-opacity:100%"></polygon>
      <polygon points="102.182 133.712 103.654 133.712 105.127 133.712 
       107.778 134.264 110.431 135.092 113.081 135.92 115.437 137.024 
       117.795 138.404 119.856 140.06 121.919 141.44 123.98 143.647 
       125.454 145.58 126.925 147.787 128.104 149.995 128.989 152.479 
       129.873 154.963 130.165 157.723 130.46 160.207 130.165 161.863 
       130.165 162.967 129.873 165.726 128.989 168.21 128.104 170.694 
       126.925 172.902 125.454 175.11 123.98 177.318 121.919 179.25 
       119.856 180.905 117.795 182.561 115.437 183.941 113.081 185.045 
       110.431 185.873 107.778 186.425 105.127 186.977 102.182 186.977 
       100.708 186.977 99.5316 186.977 96.5841 186.425 93.9336 185.873 
       91.5779 185.045 88.9251 183.941 86.5694 182.561 84.5084 180.905 
       82.4451 179.25 80.6789 177.318 78.9104 175.11 77.4366 172.902 
       76.2599 170.694 75.3756 168.21 74.7861 165.726 74.1966 162.967 
       74.1966 160.207 74.1966 159.103 74.1966 157.723 74.7861 154.963 
       75.3756 152.479 76.2599 149.995 77.4366 147.787 78.9104 145.58 
       80.6789 143.647 82.4451 141.44 84.5084 140.06 86.5694 138.404 
       88.9251 137.024 91.5779 135.92 93.9336 135.092 96.5841 134.264 
       99.5316 133.712 102.182 133.712 102.182 133.712 102.182 133.712 "
       style=" stroke:#000000; stroke-width:1; fill:#000000; fill-opacity:100%"></polygon>
      <polygon points="101.593 186.977 100.414 186.977 98.9421 186.977 
       95.9946 186.425 93.6389 185.873 90.9884 184.769 88.6304 183.665 
       86.2746 182.285 84.2136 180.629 82.1504 178.974 80.3841 177.042 
       78.6156 174.834 77.1419 172.626 76.2599 170.418 75.3756 167.934 
       74.4914 165.174 74.1966 162.69 74.1966 159.93 74.1966 158.551 
       74.4914 157.171 74.7861 154.687 75.3756 151.927 76.5546 149.719 
       77.7314 147.235 79.2051 145.303 80.9714 143.096 82.7399 141.44 
       84.8009 139.508 87.1589 138.128 89.5146 136.748 91.8726 135.644 
       94.5231 134.816 97.1736 133.988 99.8241 133.712 102.772 133.712 
       104.243 133.712 105.717 133.712 108.367 134.264 111.02 135.092 
       113.671 135.92 116.026 137.3 118.384 138.404 120.445 140.336 
       122.212 141.992 124.275 143.647 125.749 145.855 126.925 148.339 
       128.399 150.547 129.283 152.755 129.873 155.515 130.165 157.999 
       130.46 160.759 130.165 162.138 130.165 163.519 129.873 166.278 
       128.989 168.762 127.81 171.246 126.631 173.454 125.159 175.662 
       123.685 177.593 121.624 179.801 119.561 181.182 117.5 182.837 
       115.142 183.941 112.492 185.321 110.136 186.149 107.483 186.701 
       104.538 186.977 101.593 186.977 101.593 186.977 101.593 186.977 "
       style=" stroke:#000000; stroke-width:1; fill:#000000; fill-opacity:100%"></polygon>
      <polygon points="102.182 139.203 103.363 139.203 104.542 139.203 
       106.608 139.756 108.671 140.309 110.737 140.862 112.802 141.69 
       114.571 142.796 116.341 143.901 117.815 145.56 119.586 146.941 
       120.47 148.599 121.651 150.534 122.83 152.192 123.42 154.127 
       124.009 156.061 124.304 158.272 124.601 160.206 124.304 161.588 
       124.304 162.417 124.009 164.628 123.42 166.562 122.83 168.497 
       121.651 170.431 120.47 172.366 119.586 173.748 117.815 175.406 
       116.341 176.787 114.571 177.893 112.802 178.998 110.737 180.104 
       108.671 180.656 106.608 181.209 104.542 181.485 102.182 181.485 
       101.298 181.485 99.8219 181.485 97.7586 181.209 95.6931 180.656 
       93.6276 180.104 91.5644 178.998 89.7936 177.893 88.0251 176.787 
       86.5491 175.406 85.0754 173.748 83.8941 172.366 82.7151 170.431 
       81.5339 168.497 80.9444 166.562 80.3549 164.628 80.0601 162.417 
       79.7654 160.206 79.7654 159.377 80.0601 158.272 80.3549 156.061 
       80.9444 154.127 81.5339 152.192 82.7151 150.534 83.8941 148.599 
       85.0754 146.941 86.5491 145.56 88.0251 143.901 89.7936 142.796 
       91.5644 141.69 93.6276 140.862 95.6931 140.309 97.7586 139.756 
       99.8219 139.203 102.182 139.203 102.182 139.203 102.182 139.203 "
       style=" stroke:#ffffff; stroke-width:1; fill:#ffffff; fill-opacity:100%"></polygon>
      <polygon points="101.887 181.485 100.706 181.485 99.5271 181.485 
       97.4616 181.209 95.1014 180.656 93.3329 179.827 91.2674 178.722 
       89.4966 177.617 87.7281 176.511 86.2521 175.129 84.7784 173.471 
       83.5971 172.089 82.4181 170.155 81.5339 168.221 80.9421 166.286 
       80.3526 164.352 80.0579 162.141 80.0579 159.93 80.0579 159.101 
       80.0579 157.719 80.6474 155.785 80.9421 153.85 81.8286 151.916 
       83.0076 149.981 83.8919 148.323 85.3679 146.665 86.8416 145.283 
       88.3176 143.901 90.0884 142.796 91.8569 141.414 93.9224 140.862 
       95.9879 140.309 98.0511 139.756 100.411 139.203 102.772 139.203 
       103.951 139.203 104.837 139.203 107.197 139.756 109.261 140.309 
       111.031 141.138 113.097 141.967 114.865 143.072 116.636 144.178 
       118.11 145.836 119.586 147.218 121.06 148.876 121.946 150.534 
       122.83 152.468 123.715 154.403 124.304 156.614 124.304 158.548 
       124.601 160.759 124.601 161.864 124.304 162.97 124.009 164.904 
       123.42 167.115 122.536 169.05 121.651 170.708 120.47 172.642 
       118.996 174.3 117.52 175.682 116.047 177.064 114.276 178.169 
       112.21 179.275 110.442 180.104 108.376 180.656 106.311 181.209 
       104.245 181.485 101.887 181.485 101.887 181.485 101.887 181.485 "
       style=" stroke:#ffffff; stroke-width:1; fill:#ffffff; fill-opacity:100%"></polygon>
      <polygon points="102.477 140.301 103.361 140.301 104.542 140.578 
       106.608 140.855 108.673 141.131 110.739 141.96 112.51 142.789 
       114.278 143.619 115.754 145.001 117.525 146.106 118.704 147.489 
       119.885 149.147 121.066 150.806 121.951 152.741 122.835 154.399 
       123.427 156.611 123.721 158.546 123.721 160.481 123.721 161.586 
       123.721 162.692 123.427 164.627 122.835 166.562 121.951 168.221 
       121.066 170.156 119.885 171.814 118.704 173.473 117.525 174.855 
       115.754 176.237 114.278 177.343 112.51 178.448 110.739 179.278 
       108.673 180.107 106.608 180.384 104.542 180.66 102.477 180.936 
       101.296 180.936 100.411 180.66 98.0511 180.384 95.9856 180.107 
       94.2149 179.278 92.1494 178.448 90.3786 177.343 88.9026 176.237 
       87.4289 174.855 85.9529 173.473 84.7739 171.814 83.5926 170.156 
       82.7084 168.221 82.1166 166.562 81.5271 164.627 80.9376 162.692 
       80.9376 160.481 80.9376 159.651 80.9376 158.546 81.5271 156.611 
       82.1166 154.399 82.7084 152.741 83.5926 150.806 84.7739 149.147 
       85.9529 147.489 87.4289 146.106 88.9026 145.001 90.3786 143.619 
       92.1494 142.789 94.2149 141.96 95.9856 141.131 98.0511 140.855 
       100.411 140.578 102.477 140.301 102.477 140.301 102.477 140.301 "
       style=" stroke:#000000; stroke-width:1; fill:#ababab; fill-opacity:100%"></polygon>
      <polygon points="75.3531 169.68 46.3574 179.718 50.2049 187.526 
       77.1284 173.304 75.3531 169.68 75.3531 169.68 75.3531 169.68 "
       style=" stroke:#ffffff; stroke-width:1; fill:#ffffff; fill-opacity:100%"></polygon>
      <polygon points="106.565 133.712 111.999 104.612 102.036 104.334 
       102.036 133.158 106.565 133.712 106.565 133.712 106.565 133.712 "
       style=" stroke:#ffffff; stroke-width:1; fill:#ffffff; fill-opacity:100%"></polygon>
      <polygon points="78.5301 175.994 53.9781 192.898 54.5699 194.006 
       55.4564 194.837 56.3429 195.669 57.8234 197.331 59.3016 198.994 
       60.7799 200.656 62.5551 202.042 64.6274 203.427 65.5139 204.259 
       66.4004 205.09 67.5839 205.921 85.3319 182.368 84.4454 181.536 
       82.9671 180.428 81.7836 179.32 80.6001 177.934 79.4166 177.103 
       78.5301 175.994 78.5301 175.994 78.5301 175.994 "
       style=" stroke:#ffffff; stroke-width:1; fill:#ffffff; fill-opacity:100%"></polygon>
      <polygon points="99.3989 133.139 95.5379 104.609 94.9461 104.609 
       93.1641 105.163 91.9761 105.163 90.7881 105.44 89.6001 105.717 
       88.4144 105.994 87.2264 106.271 86.3354 106.548 85.1474 106.825 
       83.9594 107.102 82.7714 107.379 81.5856 107.656 80.6946 108.21 
       79.5066 108.764 78.3186 109.04 76.8336 109.595 90.1941 135.909 
       91.3821 135.632 92.5701 135.078 93.7581 134.524 94.6491 134.247 
       95.8349 133.97 96.7259 133.693 97.9139 133.416 99.3989 133.139 
       99.3989 133.139 99.3989 133.139 "
       style=" stroke:#ffffff; stroke-width:1; fill:#ffffff; fill-opacity:100%"></polygon>
      <polyline points="49.0124 133.51 50.4816 131.033 51.9509 128.556 
       55.4744 124.152 59.5874 120.024 63.9951 116.446 68.6954 113.144 
       73.6881 110.391 78.9756 107.914 84.5579 105.987 90.1379 104.612 
       95.7201 104.061 101.595 103.511 107.47 103.786 113.344 104.612 
       119.514 105.987 125.096 107.639 130.676 110.116 133.027 111.767 
       135.964 113.144 140.664 116.721 145.072 120.299 148.89 124.703 
       152.416 128.831 155.352 133.785 157.703 138.74 159.757 143.969 
       161.227 149.198 162.109 154.702 162.401 159.932 162.109 165.436 
       161.521 171.216 160.052 176.445 158.29 181.95 155.647 187.179 
       154.177 189.656 152.416 192.133 148.89 196.812 144.777 200.94 
       140.371 204.518 135.671 207.821 130.676 210.573 125.389 212.775 
       119.809 214.702 114.226 216.078 108.644 216.903 102.769 217.179 
       96.8946 217.179 91.0199 216.353 85.1451 214.977 79.5629 213.05 
       73.9829 210.573 71.3391 209.197 68.6954 207.821 63.9951 204.243 
       59.2949 200.39 55.4744 196.262 51.9509 191.858 49.0124 187.179 
       46.6634 181.95 44.6069 176.996 43.1376 171.766 42.2556 166.262 
       41.9631 160.758 42.2556 155.253 42.8429 149.473 44.3121 144.244 
       46.3686 138.74 49.0124 133.51 49.0124 133.51 49.0124 133.51"
       style=" stroke:#ffffff; stroke-width:1;"></polyline>
      <polyline points="86.7989 183.682 70.0949 207.843"
       style=" stroke:#ffffff; stroke-width:1;"></polyline>
      <polyline points="112.586 185.33 123.134 212.511"
       style=" stroke:#ffffff; stroke-width:1;"></polyline>
      <polyline points="128.703 148.264 155.37 136.458"
       style=" stroke:#ffffff; stroke-width:1;"></polyline>
      <polyline points="108.777 133.438 115.516 105.982"
       style=" stroke:#ffffff; stroke-width:1;"></polyline>
      <polyline points="102.328 187.8 102.328 216.904"
       style=" stroke:#ffffff; stroke-width:1;"></polyline>
      <polygon points="155.224 63.1501 158.16 63.1501 161.391 63.4253 
       167.56 64.251 173.435 65.9023 179.015 67.8288 184.597 70.3056 
       189.59 73.0575 194.29 76.6353 198.696 80.2128 202.514 84.6162 
       206.332 89.0197 209.271 93.9731 211.915 98.9271 213.971 104.156 
       215.733 109.935 216.615 115.714 216.907 121.494 216.907 124.521 
       216.615 127.548 215.733 133.328 213.971 138.832 211.915 144.061 
       209.271 149.29 206.332 154.243 202.514 158.647 198.696 162.775 
       194.29 166.628 189.59 169.93 184.597 172.958 179.015 175.434 
       173.435 177.361 167.56 178.737 161.391 179.838 155.224 180.113 
       151.993 180.113 148.762 179.838 142.592 178.737 136.717 177.361 
       131.137 175.434 125.555 172.958 120.562 169.93 115.862 166.628 
       111.457 162.775 107.344 158.647 104.113 154.243 100.882 149.29 
       98.2379 144.061 96.1814 138.832 94.4196 133.328 93.5376 127.548 
       93.2451 121.494 93.5376 118.467 93.5376 115.714 94.4196 109.935 
       96.1814 104.156 98.2379 98.9271 100.882 93.9731 104.113 89.0197 
       107.344 84.6162 111.457 80.2128 115.862 76.6353 120.562 73.0575 
       125.555 70.3056 131.137 67.8288 136.717 65.9023 142.592 64.251 
       148.762 63.4253 155.224 63.1501 155.224 63.1501 155.224 63.1501 "
       style=" stroke:#000000; stroke-width:1; fill:#000000; fill-opacity:100%"></polygon>
      <polygon points="155.224 64.5231 158.16 64.5231 161.391 64.7982 
       167.268 65.624 173.143 67.0001 178.43 68.9265 183.718 71.4036 
       188.71 74.4309 193.411 77.7337 197.524 81.3117 201.637 85.1648 
       205.16 89.8434 208.099 94.5223 210.742 99.4761 212.799 104.706 
       214.268 110.21 215.148 115.714 215.443 121.494 215.443 124.522 
       215.148 127.274 214.268 133.054 212.799 138.283 210.742 143.787 
       208.099 148.741 205.16 153.42 201.637 157.548 197.524 161.677 
       193.411 165.255 188.71 168.833 183.718 171.585 178.43 174.062 
       173.143 175.989 167.268 177.364 161.391 178.19 155.224 178.465 
       151.99 178.465 149.054 178.19 143.179 177.364 137.305 175.989 
       131.722 174.062 126.435 171.585 121.442 168.833 117.034 165.255 
       112.629 161.677 108.811 157.548 105.285 153.42 102.054 148.741 
       99.7026 143.787 97.6461 138.283 96.1791 133.054 95.2971 127.274 
       95.0024 121.494 95.0024 118.467 95.2971 115.714 96.1791 110.21 
       97.6461 104.706 99.7026 99.4761 102.054 94.5223 105.285 89.8434 
       108.811 85.1648 112.629 81.3117 117.034 77.7337 121.442 74.4309 
       126.435 71.4036 131.722 68.9265 137.305 67.0001 143.179 65.624 
       149.054 64.7982 155.224 64.5231 155.224 64.5231 155.224 64.5231 "
       style=" stroke:#ffffff; stroke-width:1; fill:#ababab; fill-opacity:100%"></polygon>
      <polygon points="101.759 94.7973 103.228 92.0448 104.99 89.843 
       108.516 85.1643 112.629 81.0358 117.034 77.4579 121.735 74.1553 
       126.727 71.4029 132.017 68.9259 137.597 67.2746 143.179 65.8985 
       149.054 65.0727 154.634 64.7976 160.511 64.7976 166.386 65.6233 
       172.261 66.9994 177.841 68.9259 183.718 71.4029 186.067 72.7792 
       188.71 74.4305 193.703 77.733 198.111 81.5864 201.929 85.7147 
       205.455 90.1184 208.391 94.7973 210.742 99.7511 212.799 104.981 
       214.266 110.21 215.148 115.714 215.735 121.219 215.443 126.723 
       214.561 132.503 213.091 137.732 211.33 143.237 208.686 148.466 
       207.217 150.943 205.455 153.42 201.929 157.824 197.816 161.952 
       193.411 165.53 188.71 168.833 183.718 171.86 178.428 173.787 
       172.848 175.713 167.266 177.365 161.686 177.915 155.811 178.466 
       149.934 178.19 144.059 177.64 138.184 175.989 132.604 174.337 
       126.727 171.86 124.378 170.484 121.735 168.833 116.742 165.255 
       112.334 161.677 108.516 157.273 104.99 152.87 102.054 148.191 
       99.4101 143.237 97.6461 138.008 96.1791 132.778 95.2971 127.274 
       95.0024 121.769 95.0024 116.265 95.8844 110.76 97.3536 105.256 
       99.4101 100.026 101.759 94.7973 101.759 94.7973 101.759 94.7973 "
       style=" stroke:#ffffff; stroke-width:1; fill:#ababab; fill-opacity:100%"></polygon>
      <polygon points="139.838 99.6066 138.657 100.437 137.473 101.268 
       136.292 102.099 135.406 102.929 134.814 104.036 133.927 104.867 
       133.041 105.975 132.154 106.805 105.553 89.9163 106.439 88.8087 
       107.326 87.4245 108.212 86.317 109.099 85.2096 109.985 84.1021 
       110.872 83.2714 112.055 82.164 113.236 81.0565 114.123 79.9491 
       115.306 79.1184 116.193 78.2879 117.671 77.4574 118.852 76.3497 
       120.036 75.5193 121.217 74.6886 122.695 73.8581 139.838 99.6066 
       139.838 99.6066 139.838 99.6066 "
       style=" stroke:#ff00ff; stroke-width:1; fill:#ff00ff; fill-opacity:100%"></polygon>
      <polygon points="170.314 143.656 171.201 142.825 172.384 141.995 
       173.566 141.164 174.749 140.334 175.636 139.503 176.225 138.396 
       177.114 137.565 178 136.458 204.307 153.899 204.01 154.73 
       202.534 156.391 201.646 157.498 200.759 158.606 199.578 159.713 
       198.691 160.821 197.508 161.651 196.621 162.758 195.44 163.866 
       194.551 164.696 193.075 165.527 191.892 166.358 190.711 167.188 
       189.527 168.019 188.346 168.849 186.868 169.68 170.314 143.656 
       170.314 143.656 170.314 143.656 "
       style=" stroke:#ff00ff; stroke-width:1; fill:#ff00ff; fill-opacity:100%"></polygon>
      <polygon points="132.22 106.767 105.586 89.7825 104.7 90.6179 
       104.108 91.4531 103.219 92.8452 102.628 93.9589 102.036 95.0727 
       130.739 109.551 132.22 106.767 132.22 106.767 132.22 106.767 "
       style=" stroke:#00ffff; stroke-width:1; fill:#00ffff; fill-opacity:100%"></polygon>
      <polygon points="177.933 136.495 204.269 154.03 205.453 152.916 
       206.044 152.082 206.933 150.69 207.525 149.576 208.117 148.463 
       179.708 133.712 177.933 136.495 177.933 136.495 177.933 136.495 "
       style=" stroke:#00ffff; stroke-width:1; fill:#00ffff; fill-opacity:100%"></polygon>
      <polygon points="101.455 95.5483 130.46 109.535 129.868 110.374 
       100.864 96.9471 101.455 95.5483 101.455 95.5483 101.455 95.5483 "
       style=" stroke:#0000ff; stroke-width:1; fill:#0000ff; fill-opacity:100%"></polygon>
      <polygon points="208.105 148.539 179.692 134.002 179.987 133.163 
       209.289 146.861 208.105 148.539 208.105 148.539 208.105 148.539 "
       style=" stroke:#0000ff; stroke-width:1; fill:#0000ff; fill-opacity:100%"></polygon>
      <polygon points="100.877 97.1955 99.3989 100.274 129.578 111.747 
       129.875 110.348 100.877 97.1955 100.877 97.1955 100.877 97.1955 "
       style=" stroke:#00ff00; stroke-width:1; fill:#00ff00; fill-opacity:100%"></polygon>
      <polygon points="209.275 146.616 210.754 143.539 180.869 131.79 
       180.277 133.189 209.275 146.616 209.275 146.616 209.275 146.616 "
       style=" stroke:#00ff00; stroke-width:1; fill:#00ff00; fill-opacity:100%"></polygon>
      <polygon points="138.666 100.479 137.181 101.589 116.688 77.7198 
       119.361 76.0545 138.666 100.479 138.666 100.479 138.666 100.479 "
       style=" stroke:#ff8500; stroke-width:1; fill:#ff8500; fill-opacity:100%"></polygon>
      <polygon points="171.487 142.784 172.972 141.674 192.877 166.095 
       190.501 167.483 171.487 142.784 171.487 142.784 171.487 142.784 "
       style=" stroke:#ff0016; stroke-width:1; fill:#ff0016; fill-opacity:100%"></polygon>
      <polygon points="127.238 121.631 95.0024 121.631 95.0024 116.964 
       127.238 119.59 127.238 121.631 127.238 121.631 127.238 121.631 "
       style=" stroke:#ababab; stroke-width:1; fill:#ffffff; fill-opacity:100%"></polygon>
      <polygon points="182.921 121.906 215.735 122.187 213.667 133.712 
       182.329 127.247 182.921 121.906 182.921 121.906 182.921 121.906 "
       style=" stroke:#ababab; stroke-width:1; fill:#ffffff; fill-opacity:100%"></polygon>
      <polygon points="180.865 111.986 211.033 100.765 212.513 104.412 
       181.751 113.669 180.865 111.986 180.865 111.986 180.865 111.986 "
       style=" stroke:#ffffff; stroke-width:1; fill:#ffffff; fill-opacity:100%"></polygon>
      <polygon points="155.224 94.7246 156.403 95.0004 157.874 95.0004 
       160.822 95.5526 163.472 96.1045 165.828 96.9325 168.481 98.0364 
       170.836 99.4161 172.897 101.072 174.961 102.728 176.727 104.66 
       178.495 106.592 179.967 108.799 180.851 111.283 182.03 113.767 
       182.62 115.975 182.914 118.735 183.209 121.494 183.209 122.874 
       182.914 124.254 182.62 126.738 182.03 129.222 180.851 131.706 
       179.967 134.189 178.495 136.397 176.727 138.329 174.961 140.261 
       172.897 141.917 170.836 143.572 168.481 144.952 165.828 146.056 
       163.472 146.884 160.822 147.712 157.874 148.264 155.224 148.264 
       153.75 148.264 152.278 148.264 149.626 147.712 146.975 146.884 
       144.325 146.056 141.967 144.952 139.611 143.572 137.55 141.917 
       135.192 140.261 133.72 138.329 131.657 136.397 130.48 134.189 
       129.301 131.706 128.417 129.222 127.533 126.738 127.238 124.254 
       126.943 121.494 126.943 120.114 127.238 118.735 127.533 115.975 
       128.417 113.767 129.301 111.283 130.48 108.799 131.657 106.592 
       133.72 104.66 135.192 102.728 137.55 101.072 139.611 99.4161 
       141.967 98.0364 144.325 96.9325 146.975 96.1045 149.626 95.5526 
       152.278 95.0004 155.224 94.7246 155.224 94.7246 155.224 94.7246 "
       style=" stroke:#000000; stroke-width:1; fill:#000000; fill-opacity:100%"></polygon>
      <polygon points="154.634 148.264 153.16 148.264 151.689 148.264 
       149.038 147.436 146.386 146.884 143.735 146.056 141.379 144.676 
       139.316 143.296 136.96 141.64 134.897 140.261 133.131 138.053 
       131.657 136.121 130.48 133.637 129.301 131.429 128.122 128.946 
       127.533 126.462 127.238 123.702 126.943 120.942 127.238 119.838 
       127.238 118.459 127.828 115.699 128.417 113.215 129.596 110.731 
       130.773 108.523 132.247 106.316 134.015 104.384 135.781 102.452 
       137.845 100.796 139.906 99.1402 142.261 97.7603 144.914 96.6564 
       147.27 95.8287 150.215 95.2765 152.868 95.0004 155.813 94.7246 
       156.992 95.0004 158.464 95.0004 161.409 95.5526 164.062 96.1045 
       166.417 97.2084 169.068 98.3122 171.131 99.6921 173.192 101.348 
       175.255 103.004 177.022 104.936 178.79 107.143 179.967 109.351 
       181.146 111.559 182.03 114.043 182.914 116.802 183.209 119.286 
       183.209 122.046 183.209 123.426 182.914 124.806 182.62 127.29 
       182.03 130.05 180.851 132.533 179.672 134.465 178.201 136.673 
       176.432 138.605 174.666 140.812 172.603 142.192 170.247 143.848 
       167.891 145.228 165.533 146.332 162.883 147.16 160.232 147.712 
       157.579 148.264 154.634 148.264 154.634 148.264 154.634 148.264 "
       style=" stroke:#000000; stroke-width:1; fill:#000000; fill-opacity:100%"></polygon>
      <polygon points="155.224 100.216 156.403 100.492 157.289 100.492 
       159.649 100.769 161.713 101.321 163.778 101.874 165.844 102.979 
       167.612 104.085 169.383 105.19 170.859 106.572 172.333 107.954 
       173.806 109.888 174.988 111.546 175.872 113.205 176.461 115.139 
       177.053 117.35 177.348 119.284 177.348 121.495 177.348 122.601 
       177.348 123.706 177.053 125.917 176.461 127.851 175.872 129.786 
       174.988 131.72 173.806 133.378 172.333 135.037 170.859 136.418 
       169.383 137.8 167.612 138.905 165.844 140.287 163.778 141.116 
       161.713 141.669 159.649 142.222 157.289 142.498 155.224 142.498 
       154.045 142.498 152.863 142.498 150.8 142.222 148.735 141.669 
       146.669 141.116 144.604 140.287 142.835 138.905 141.064 137.8 
       139.591 136.418 138.115 135.037 136.641 133.378 135.754 131.72 
       134.575 129.786 133.986 127.851 133.394 125.917 132.805 123.706 
       132.805 121.495 132.805 120.39 132.805 119.284 133.394 117.35 
       133.986 115.139 134.575 113.205 135.754 111.546 136.641 109.888 
       138.115 107.954 139.591 106.572 141.064 105.19 142.835 104.085 
       144.604 102.979 146.669 101.874 148.735 101.321 150.8 100.769 
       152.863 100.492 155.224 100.216 155.224 100.216 155.224 100.216 "
       style=" stroke:#ffffff; stroke-width:1; fill:#ffffff; fill-opacity:100%"></polygon>
      <polygon points="154.634 142.773 153.453 142.773 152.569 142.497 
       150.208 142.22 148.145 141.667 146.08 141.115 144.309 140.009 
       142.246 138.904 140.77 137.799 139.296 136.141 137.82 134.759 
       136.346 133.101 135.46 131.166 134.575 129.508 133.691 127.574 
       133.394 125.363 132.805 123.152 132.805 120.942 132.805 120.112 
       133.099 119.007 133.394 117.073 133.986 114.862 134.87 112.928 
       135.754 111.27 136.936 109.335 138.115 107.677 139.885 106.295 
       141.359 104.914 143.13 103.808 144.898 102.703 146.964 101.874 
       149.029 101.321 151.095 100.769 153.158 100.492 155.518 100.216 
       156.7 100.492 157.584 100.492 159.944 100.769 162.007 101.321 
       164.073 102.15 166.138 102.979 167.907 104.085 169.678 105.466 
       171.154 106.848 172.627 108.23 173.806 110.164 174.988 111.822 
       175.872 113.757 176.461 115.691 177.053 117.626 177.348 119.836 
       177.348 121.771 177.348 122.876 177.348 123.982 176.758 125.916 
       176.167 128.127 175.577 130.061 174.693 131.995 173.512 133.653 
       172.038 135.312 170.562 136.693 169.088 138.075 167.317 139.18 
       165.254 140.286 163.189 141.115 161.418 141.944 159.355 142.22 
       156.994 142.497 154.634 142.773 154.634 142.773 154.634 142.773 "
       style=" stroke:#ffffff; stroke-width:1; fill:#ffffff; fill-opacity:100%"></polygon>
      <polygon points="155.221 101.314 156.403 101.59 157.582 101.59 
       159.647 101.867 161.713 102.42 163.483 102.973 165.549 103.802 
       167.32 104.908 168.796 106.013 170.269 107.395 171.745 108.778 
       172.927 110.436 174.106 112.095 174.99 114.03 175.582 115.688 
       176.171 117.623 176.466 119.558 176.761 121.77 176.466 122.875 
       176.466 123.705 176.171 125.916 175.582 127.851 174.99 129.51 
       174.106 131.445 172.927 133.103 171.745 134.485 170.269 136.144 
       168.796 137.25 167.32 138.355 165.549 139.461 163.483 140.567 
       161.713 141.12 159.647 141.672 157.582 141.949 155.221 141.949 
       154.337 141.949 153.156 141.949 151.09 141.672 149.025 141.12 
       146.959 140.567 145.189 139.461 143.42 138.355 141.649 137.25 
       140.173 136.144 138.697 134.485 137.518 133.103 136.337 131.445 
       135.748 129.51 134.863 127.851 134.566 125.916 133.977 123.705 
       133.977 121.77 133.977 120.664 133.977 119.558 134.566 117.623 
       134.863 115.688 135.748 114.03 136.337 112.095 137.518 110.436 
       138.697 108.778 140.173 107.395 141.649 106.013 143.42 104.908 
       145.189 103.802 146.959 102.973 149.025 102.42 151.09 101.867 
       153.156 101.59 155.221 101.314 155.221 101.314 155.221 101.314 "
       style=" stroke:#000000; stroke-width:1; fill:#ababab; fill-opacity:100%"></polygon>
      <polygon points="128.395 130.692 99.1064 140.728 103.249 148.813 
       129.875 134.595 128.395 130.692 128.395 130.692 128.395 130.692 "
       style=" stroke:#ffffff; stroke-width:1; fill:#ffffff; fill-opacity:100%"></polygon>
      <polygon points="159.609 94.7246 164.746 65.901 155.075 65.3466 
       155.075 94.4476 159.609 94.7246 159.609 94.7246 159.609 94.7246 "
       style=" stroke:#ffffff; stroke-width:1; fill:#ffffff; fill-opacity:100%"></polygon>
      <polygon points="131.866 137.281 107.017 154.186 107.609 155.018 
       108.496 155.849 109.384 156.958 110.568 158.62 112.343 160.006 
       113.821 161.669 115.597 163.054 117.372 164.717 118.258 165.271 
       119.442 166.103 120.625 166.934 138.373 143.378 137.485 142.824 
       136.006 141.438 134.823 140.33 133.639 139.221 132.456 138.113 
       131.866 137.281 131.866 137.281 131.866 137.281 "
       style=" stroke:#ffffff; stroke-width:1; fill:#ffffff; fill-opacity:100%"></polygon>
      <polygon points="152.146 94.428 148.582 65.8958 147.691 65.8958 
       145.911 66.1728 145.02 66.4497 143.535 66.4497 142.644 66.7269 
       141.456 67.0039 140.268 67.2809 139.377 67.5579 138.189 67.8348 
       137.001 68.1118 135.813 68.666 134.625 68.943 133.736 69.2199 
       132.251 69.7739 131.36 70.3281 129.875 70.605 143.238 96.921 
       144.426 96.6441 145.614 96.0901 146.505 95.8129 147.691 95.5359 
       148.879 95.259 149.77 94.982 150.958 94.705 152.146 94.428 
       152.146 94.428 152.146 94.428 "
       style=" stroke:#ffffff; stroke-width:1; fill:#ffffff; fill-opacity:100%"></polygon>
      <polyline points="101.759 94.7973 103.228 92.0448 104.99 89.843 
       108.516 85.1643 112.629 81.0358 117.034 77.4579 121.735 74.1553 
       126.727 71.4029 132.017 68.9259 137.597 67.2746 143.179 65.8985 
       149.054 65.0727 154.634 64.7976 160.511 64.7976 166.386 65.6233 
       172.261 66.9994 177.841 68.9259 183.718 71.4029 186.067 72.7792 
       188.71 74.4305 193.703 77.733 198.111 81.5864 201.929 85.7147 
       205.455 90.1184 208.391 94.7973 210.742 99.7511 212.799 104.981 
       214.266 110.21 215.148 115.714 215.735 121.219 215.443 126.723 
       214.561 132.503 213.091 137.732 211.33 143.237 208.686 148.466 
       207.217 150.943 205.455 153.42 201.929 157.824 197.816 161.952 
       193.411 165.53 188.71 168.833 183.718 171.86 178.428 173.787 
       172.848 175.713 167.266 177.365 161.686 177.915 155.811 178.466 
       149.934 178.19 144.059 177.64 138.184 175.989 132.604 174.337 
       126.727 171.86 124.378 170.484 121.735 168.833 116.742 165.255 
       112.334 161.677 108.516 157.273 104.99 152.87 102.054 148.191 
       99.4101 143.237 97.6461 138.008 96.1791 132.778 95.2971 127.274 
       95.0024 121.769 95.0024 116.265 95.8844 110.76 97.3536 105.256 
       99.4101 100.026 101.759 94.7973 101.759 94.7973 101.759 94.7973"
       style=" stroke:#ffffff; stroke-width:1;"></polyline>
      <polyline points="139.838 144.695 123.429 169.13"
       style=" stroke:#ffffff; stroke-width:1;"></polyline>
      <polyline points="165.333 146.617 175.883 173.798"
       style=" stroke:#ffffff; stroke-width:1;"></polyline>
      <polyline points="181.742 109.276 208.117 97.7448"
       style=" stroke:#ffffff; stroke-width:1;"></polyline>
      <polyline points="161.816 94.4501 168.262 66.994"
       style=" stroke:#ffffff; stroke-width:1;"></polyline>
      <polyline points="155.37 148.813 155.37 177.916"
       style=" stroke:#ffffff; stroke-width:1;"></polyline>
    </g>
  </symbol>
 </defs>
</svg>
