<?xml version="1.0"?>
<?metis version="3.0"?>
<!DOCTYPE svg  PUBLIC "-//W3C//DTD SVG August 1999//EN"
 "http://www.w3.org/Graphics/SVG/svg-19990812.dtd">

<svg width="200" height="200">
 <title>Symbol library: GEM_SUBSTANCE.svg</title>
 <defs>
  <symbol id="oid0" xml:space="preserve" class="METIS_SYMBOL">
   <title>Substance</title>
    <rect x="4" y="4" width="121" height="96"
     style=" stroke:#9b9b9b; stroke-width:1; fill:#9b9b9b; fill-opacity:100%" class="TAG:shadow"></rect>
    <rect x="0" y="0" width="123" height="98"
     style=" stroke:#000000; stroke-width:1; fill:#ffffff; fill-opacity:100%" class="TAG:border"></rect>
    <rect x="4" y="4" width="115" height="90"
     style="stroke:none; fill:#ffcf9f; fill-opacity:100%" class="TAG:canvas"></rect>
    <g>
      <desc>METIS_TEXT_GROUP</desc>
      <text  x="5" y="67.8"
       style=" stroke:#000000; stroke-width:1; font-family:sans-serif; font-size:16; text-align:center" class="TAG:text"
>text</text>
      <rect x="5" y="52" width="113" height="41"
       style=" stroke:#000000; stroke-width:1; fill:#ffffff; fill-opacity:0%"></rect>
    </g>
    <g>
      <ellipse  cx="78.5632" cy="16.1505" rx="5.43677" ry="5.39184"
       style=" stroke:#000000; stroke-width:1; fill:#000000; fill-opacity:100%" class="TAG:Element2"></ellipse>
      <path d="M 76.7251 12.2873 C 75.1925 13.7239 74.6674 14.4877 
       74.6247 15.3425 C 74.571 16.4152 75.8429 18.5146 76.305 18.3978 
       C 76.7476 18.2858 76.106 15.8545 76.305 15.0648 C 76.4461 14.5054 
       76.8003 13.3536 77.4253 12.9817 C 77.4253 12.9817 77.4253 12.9817 
       77.4253 12.9817 Z"
       style=" stroke:#696969; stroke-width:1; fill:#696969; fill-opacity:100%" class="TAG:Element2Shading"></path>
      <ellipse  cx="62.2529" cy="42.6082" rx="5.43677" ry="5.39184"
       style=" stroke:#000000; stroke-width:1; fill:#000000; fill-opacity:100%" class="TAG:Element2"></ellipse>
      <path d="M 60.4148 38.745 C 58.8822 40.1816 58.357 40.9454 
       58.3143 41.8002 C 58.2607 42.8728 59.5326 44.9722 59.9947 44.8554 
       C 60.4372 44.7435 59.7956 42.3121 59.9947 41.5224 C 60.1357 40.9631 
       60.4899 39.8112 61.1149 39.4393 C 61.1149 39.4393 61.1149 39.4393 
       61.1149 39.4393 Z"
       style=" stroke:#696969; stroke-width:1; fill:#696969; fill-opacity:100%" class="TAG:Element2Shading"></path>
      <polyline points="56.6897 15.5235 73.1265 15.5235"
       style=" stroke:#696969; stroke-width:2;" class="TAG:Lines"></polyline>
      <polyline points="51.3793 23.7994 59.977 37.8433"
       style=" stroke:#696969; stroke-width:2;" class="TAG:Lines"></polyline>
      <ellipse  cx="48.2184" cy="16.1505" rx="8.21839" ry="8.15046"
       style=" stroke:#ff0000; stroke-width:1; fill:#ff0000; fill-opacity:100%" class="TAG:Element1"></ellipse>
      <path d="M 45.4368 9.63009 C 42.6691 12.2244 41.7208 13.6037 
       41.6437 15.1473 C 41.5468 17.0844 43.8437 20.8756 44.6782 20.6646 
       C 45.4773 20.4625 44.3187 16.0719 44.6782 14.6458 C 44.9328 13.6356 
       45.5725 11.5556 46.7011 10.884 C 46.7011 10.884 46.7011 10.884 
       46.7011 10.884 Z"
       style=" stroke:#dc0000; stroke-width:1; fill:#dc0000; fill-opacity:100%" class="TAG:Element1Shading"></path>
    </g>
    <rect x="4" y="4" width="115" height="45"
     style="stroke:none; fill:#878787; fill-opacity:0%" class="TAG:grid"></rect>
  </symbol>
 </defs>
</svg>
