<?xml version="1.0"?>
<?metis version="3.4"?>
<?metisxml version="1.1"?>
<!DOCTYPE svg  PUBLIC "-//W3C//DTD SVG August 1999//EN"
 "http://www.w3.org/Graphics/SVG/svg-19990812.dtd">

<svg width="200" height="200">
 <title>Symbol library: gem_physical_flow.svg</title>
 <defs>
  <symbol id="oid0" xml:space="preserve" class="METIS_SYMBOL">
   <title>Physical Flow</title>
    <g>
      <polygon points="14.7692 13.8378 295.385 13.8378 384 96.8649 
       384 512 14.7692 512 14.7692 13.8378 14.7692 13.8378 "
       style=" stroke:#9b9b9b; stroke-width:1; fill:#9b9b9b; fill-opacity:100%"></polygon>
      <polygon points="0 0 280.615 0 369.231 83.027 
       369.231 498.162 0 498.162 0 0 0 0 "
       style=" stroke:#000000; stroke-width:1; fill:#ffffff; fill-opacity:100%"       class="TAG:canvas"></polygon>
      <polygon points="280.615 0 280.615 83.027 369.231 83.027 
       280.615 0 280.615 0 "
       style=" stroke:#000000; stroke-width:1; fill:#ffffa5; fill-opacity:100%"></polygon>
      <g>
	<desc>METIS_TEXT_GROUP</desc>
	<text  x="29.5385" y="125.703"
	 style=" stroke:#000000; stroke-width:1; font-family:sans-serif; font-size:16; text-align:center vertical-align:middle;"
	 class="TAG:text">text</text>
	<rect x="29.5385" y="110.703" width="324.923" height="359.784"
	 style=" stroke:#000000; stroke-width:1; fill:#000000; fill-opacity:0%"></rect>
      </g>
      <g>
	<polygon points="100.514 70.4925 100.514 59.6562 126.531 59.6562 
	 126.531 70.4925 100.514 70.4925 100.514 70.4925 100.514 70.4925 "
	 style=" stroke:#000000; stroke-width:1; fill:#ababab; fill-opacity:100%"></polygon>
	<polygon points="108.14 54.4247 120.251 54.4247 117.922 57.0404 
	 110.469 57.0404 108.14 54.4247 108.14 54.4247 108.14 54.4247 "
	 style=" stroke:#000000; stroke-width:1; fill:#ababab; fill-opacity:100%"></polygon>
	<polygon points="188.024 57.414 204.081 57.414 204.998 57.414 
	 205.457 57.8127 205.916 58.2113 206.375 58.6099 206.375 59.0083 
	 206.375 59.4069 206.375 61.3998 206.375 61.7984 206.375 62.1968 
	 205.916 62.9941 205.457 62.9941 204.998 63.3927 204.081 63.3927 
	 188.024 63.3927 187.566 63.3927 187.107 63.3927 186.648 62.9941 
	 186.189 62.5954 186.189 61.7984 186.189 61.3998 186.189 59.4069 
	 186.189 59.0083 186.189 58.6099 186.648 58.2113 186.648 57.8127 
	 187.566 57.414 188.024 57.414 188.024 57.414 188.024 57.414 "
	 style=" stroke:#000000; stroke-width:1; fill:#ababab; fill-opacity:100%"></polygon>
	<polygon points="217.589 55.5459 268.725 55.5459 268.725 63.7665 
	 217.589 63.7665 217.589 55.5459 217.589 55.5459 217.589 55.5459 "
	 style=" stroke:#000000; stroke-width:1; fill:#ababab; fill-opacity:100%"></polygon>
	<polygon points="237.325 64.5139 249.436 64.5139 249.436 70.8662 
	 237.325 70.8662 237.325 64.5139 237.325 64.5139 237.325 64.5139 "
	 style=" stroke:#000000; stroke-width:1; fill:#ababab; fill-opacity:100%"></polygon>
	<polygon points="237.774 65.2611 248.988 65.2611 248.988 66.0084 
	 237.774 66.0084 237.774 65.2611 237.774 65.2611 237.774 65.2611 "
	 style=" stroke:#000000; stroke-width:1; fill:#000000; fill-opacity:100%"></polygon>
	<polygon points="237.774 66.382 248.988 66.382 248.988 67.1294 
	 237.774 67.1294 237.774 66.382 237.774 66.382 237.774 66.382 "
	 style=" stroke:#000000; stroke-width:1; fill:#000000; fill-opacity:100%"></polygon>
	<polygon points="237.774 67.503 248.988 67.503 248.988 68.2503 
	 237.774 68.2503 237.774 67.503 237.774 67.503 237.774 67.503 "
	 style=" stroke:#000000; stroke-width:1; fill:#000000; fill-opacity:100%"></polygon>
	<polygon points="237.774 68.6242 248.988 68.6242 248.988 69.3715 
	 237.774 69.3715 237.774 68.6242 237.774 68.6242 237.774 68.6242 "
	 style=" stroke:#000000; stroke-width:1; fill:#000000; fill-opacity:100%"></polygon>
	<polygon points="237.774 69.3714 248.988 69.3714 248.988 70.1187 
	 237.774 70.1187 237.774 69.3714 237.774 69.3714 237.774 69.3714 "
	 style=" stroke:#000000; stroke-width:1; fill:#000000; fill-opacity:100%"></polygon>
	<polygon points="107.691 63.7664 118.905 63.7664 118.905 64.5138 
	 107.691 64.5138 107.691 63.7664 107.691 63.7664 107.691 63.7664 "
	 style=" stroke:#000000; stroke-width:1; fill:#000000; fill-opacity:100%"></polygon>
	<polygon points="107.691 64.8874 118.905 64.8874 118.905 65.6347 
	 107.691 65.6347 107.691 64.8874 107.691 64.8874 107.691 64.8874 "
	 style=" stroke:#000000; stroke-width:1; fill:#000000; fill-opacity:100%"></polygon>
	<polygon points="107.691 66.0086 118.905 66.0086 118.905 66.7559 
	 107.691 66.7559 107.691 66.0086 107.691 66.0086 107.691 66.0086 "
	 style=" stroke:#000000; stroke-width:1; fill:#000000; fill-opacity:100%"></polygon>
	<polygon points="107.691 67.1295 118.905 67.1295 118.905 67.8768 
	 107.691 67.8768 107.691 67.1295 107.691 67.1295 107.691 67.1295 "
	 style=" stroke:#000000; stroke-width:1; fill:#000000; fill-opacity:100%"></polygon>
	<polygon points="107.691 68.2504 118.905 68.2504 118.905 68.9978 
	 107.691 68.9978 107.691 68.2504 107.691 68.2504 107.691 68.2504 "
	 style=" stroke:#000000; stroke-width:1; fill:#000000; fill-opacity:100%"></polygon>
	<polygon points="65.5261 53.6775 69.4733 53.6775 69.4733 12.2454 
	 70.4603 11.1154 70.4603 10.3621 70.4603 9.60878 70.4603 8.85547 
	 70.4603 8.10216 70.4603 7.72551 70.4603 6.9722 70.4603 6.59555 
	 69.4733 6.59555 68.9802 6.9722 67.9932 7.34887 67.4997 7.34887 
	 67.0065 7.72551 66.0196 8.47883 66.0196 8.85547 65.5261 9.23215 
	 65.5261 9.60878 65.5261 10.3621 65.5261 10.7388 65.5261 53.6775 
	 65.5261 53.6775 65.5261 53.6775 "
	 style=" stroke:#000000; stroke-width:1; fill:#ffffff; fill-opacity:100%"></polygon>
	<polygon points="50.8583 27.5209 54.3123 27.5209 54.3123 29.0156 
	 49.3781 29.0156 49.3781 28.5172 49.8713 28.0189 50.8583 28.0189 
	 50.8583 27.5209 50.8583 27.5209 50.8583 27.5209 "
	 style=" stroke:#000000; stroke-width:1; fill:#ffffff; fill-opacity:100%"></polygon>
	<polygon points="30.0897 62.8379 86.8703 62.8379 88.2223 62.8379 
	 89.1234 62.4529 90.0248 62.0678 102.192 56.6781 102.642 56.6781 
	 103.544 56.2931 103.995 56.2931 104.896 56.2931 127.428 56.2931 
	 127.428 61.683 126.076 61.683 125.175 61.683 124.273 61.683 
	 107.6 61.683 106.248 61.683 105.346 61.683 104.445 61.683 
	 90.0248 68.6127 89.1234 68.6127 88.2223 68.9977 87.3209 68.9977 
	 30.0897 68.9977 30.0897 62.8379 30.0897 62.8379 30.0897 62.8379 "
	 style=" stroke:#000000; stroke-width:1; fill:#ababab; fill-opacity:100%"></polygon>
	<polygon points="6.31605 62.2718 10.7568 62.6766 11.2502 67.1294 
	 6.80949 67.1294 6.31605 62.2718 6.31605 62.2718 6.31605 62.2718 "
	 style=" stroke:#ababab; stroke-width:1; fill:#000000; fill-opacity:100%"></polygon>
	<polygon points="12.5959 67.5032 37.2668 67.5032 37.2668 58.5352 
	 12.5959 58.5352 12.5959 67.5032 12.5959 67.5032 12.5959 67.5032 "
	 style=" stroke:#ababab; stroke-width:1; fill:#000000; fill-opacity:100%"></polygon>
	<polygon points="37.7153 66.0083 66.8717 66.0083 66.8717 54.4247 
	 37.7153 54.4247 37.7153 66.0083 37.7153 66.0083 37.7153 66.0083 "
	 style=" stroke:#ababab; stroke-width:1; fill:#000000; fill-opacity:100%"></polygon>
	<polygon points="70.0942 52.5823 70.5503 52.9687 71.0061 53.3553 
	 71.9183 53.7419 72.3744 54.1285 72.3744 54.5149 72.8303 55.2881 
	 73.2864 56.0611 73.2864 56.4477 73.2864 57.2209 73.7425 57.6073 
	 88.3358 57.6073 89.2478 57.9939 89.7039 57.9939 90.16 57.9939 
	 90.6158 58.7671 91.0719 59.1535 91.5281 59.5401 92.44 61.0863 
	 90.16 62.2459 89.7039 62.6325 88.7917 63.0191 87.8797 63.0191 
	 68.27 63.0191 65.0777 57.9939 65.0777 51.8091 66.9019 51.8091 
	 67.8139 51.8091 69.1819 52.1957 70.0942 52.5823 70.0942 52.5823 70.0942 52.5823 "
	 style=" stroke:#000000; stroke-width:1; fill:#ffff56; fill-opacity:100%"></polygon>
	<polygon points="46.0748 30.1508 45.6226 29.7735 46.0748 29.3962 
	 46.5265 29.0191 47.4307 29.0191 47.8829 29.0191 51.4991 28.6419 
	 54.6633 28.6419 56.9233 28.6419 59.1836 28.6419 60.5398 28.6419 
	 61.8959 28.6419 62.3479 29.0191 62.7998 29.0191 63.7043 29.3962 
	 63.7043 29.7735 64.156 30.528 65.5124 40.7131 65.9641 41.4674 
	 66.4163 42.222 66.8682 43.3536 67.3205 54.2933 67.3205 55.4248 
	 67.3205 56.1792 67.3205 56.9338 67.3205 57.6882 66.8682 58.0653 
	 66.4163 58.4428 65.5124 58.8199 45.6226 58.8199 44.7184 58.8199 
	 43.8145 58.8199 43.3622 58.4428 42.9103 58.4428 42.4583 58.4428 
	 42.9103 59.5743 43.3622 61.0833 43.8145 62.9694 44.2664 64.8556 
	 44.2664 66.3645 44.7184 67.8733 44.2664 68.2504 38.3899 68.2504 
	 37.938 68.2504 37.0338 68.2504 37.0338 67.8733 30.7052 59.5743 
	 30.2531 59.1969 29.3492 59.1969 17.5962 59.1969 17.1441 59.1969 
	 16.6921 59.5743 16.24 59.9515 15.336 60.7059 14.8839 61.8379 
	 14.4319 62.9694 13.9799 64.101 13.5278 65.2325 13.0758 66.7415 
	 12.6237 67.4961 12.6237 67.8733 10.3636 67.8733 9.91151 67.8733 
	 9.00743 60.7059 9.00743 59.9515 9.45948 59.5743 10.8156 58.8199 
	 10.8156 56.1792 9.91151 55.4248 10.3636 54.6702 11.2676 54.6702 
	 11.7197 54.2933 12.6237 54.2933 13.5278 53.9159 14.4319 53.9159 
	 15.336 53.5387 16.6921 53.5387 17.5962 53.5387 17.5962 42.222 
	 18.0482 41.8447 18.9523 41.8447 19.4043 41.8447 42.4583 40.7131 
	 42.9103 40.7131 43.3622 39.5815 43.3622 39.2042 43.8145 38.8269 
	 46.0748 30.1508 46.0748 30.1508 46.0748 30.1508 "
	 style=" stroke:#000000; stroke-width:1; fill:#ffff56; fill-opacity:100%"></polygon>
	<polygon points="67.3204 11.4758 67.8437 10.722 67.8437 9.59131 
	 68.3671 8.83753 68.8905 8.83753 69.9369 8.83753 70.4603 8.83753 
	 70.4603 9.59131 69.9369 10.722 69.4135 11.4758 68.8905 11.4758 
	 68.8905 12.2295 68.8905 12.9833 68.8905 52.5564 67.3204 52.1794 
	 67.3204 11.4758 67.3204 11.4758 67.3204 11.4758 "
	 style=" stroke:#000000; stroke-width:1; fill:#ababab; fill-opacity:100%"></polygon>
	<polygon points="174.018 52.941 153.444 63.7115 153.444 65.6349 
	 177.218 52.5565 174.018 52.941 174.018 52.941 174.018 52.941 "
	 style=" stroke:#ababab; stroke-width:1; fill:#ababab; fill-opacity:100%"></polygon>
	<polygon points="149.407 52.93 149.407 66.6565 150.903 69.7068 
	 150.404 71.6133 153.893 71.6133 153.893 52.93 149.407 52.93 
	 149.407 52.93 149.407 52.93 "
	 style=" stroke:#ababab; stroke-width:1; fill:#ababab; fill-opacity:100%"></polygon>
	<polyline points="49.047 29.3891 48.5877 29.7681 48.1284 29.7681 
	 47.6693 30.5263 44.4544 40.0011 43.9954 45.6863 43.9954 50.6132 
	 43.9954 52.5084 44.4544 54.4033 44.4544 55.9194 62.8242 55.9194 
	 62.8242 54.4033 63.2835 52.1292 62.8242 41.1383 62.3649 39.6223 
	 62.3649 38.4851 61.4465 30.9051 60.9872 30.5263 60.5279 30.1472 
	 60.0689 29.7681 59.6096 29.3891 58.6909 29.7681 49.9654 29.7681 
	 49.047 29.3891 49.047 29.3891 49.047 29.3891"
	 style=" stroke:#000000; stroke-width:1;"></polyline>
	<polyline points="44.4437 55.5459 62.8348 55.5459"
	 style=" stroke:#000000; stroke-width:1;"></polyline>
	<polygon points="48.0322 70.1188 59.2463 70.1188 59.2463 71.9872 
	 48.0322 71.9872 48.0322 70.1188 48.0322 70.1188 48.0322 70.1188 "
	 style=" stroke:#000000; stroke-width:1; fill:#ffffff; fill-opacity:100%"></polygon>
	<polyline points="48.0322 70.8661 58.7977 70.8661"
	 style=" stroke:#000000; stroke-width:1;"></polyline>
	<polygon points="103.701 56.6668 126.979 56.6668 126.979 58.1615 
	 100.963 58.1615 101.876 58.1615 102.332 57.6632 103.245 56.6668 
	 103.701 56.6668 103.701 56.6668 103.701 56.6668 "
	 style=" stroke:#000000; stroke-width:1; fill:#000000; fill-opacity:100%"></polygon>
	<polyline points="20.67 42.8413 63.7141 42.8413 64.1669 42.8413 
	 65.0733 42.8413 65.5263 41.9069 65.5263 41.9069 65.5263 40.9729"
	 style=" stroke:#000000; stroke-width:1;"></polyline>
	<polyline points="186.189 58.9087 206.375 58.9087"
	 style=" stroke:#000000; stroke-width:1;"></polyline>
	<polyline points="186.189 59.6562 206.375 59.6562"
	 style=" stroke:#000000; stroke-width:1;"></polyline>
	<polyline points="186.189 60.7771 206.375 60.7771"
	 style=" stroke:#000000; stroke-width:1;"></polyline>
	<polyline points="186.189 61.5245 206.375 61.5245"
	 style=" stroke:#000000; stroke-width:1;"></polyline>
	<polygon points="155.687 71.0404 155.687 71.0404 155.687 71.0404 
	 155.687 71.0404 155.687 70.6418 155.687 70.6418 155.209 70.2434 
	 155.209 70.2434 155.209 69.8448 155.209 69.8448 155.209 69.8448 
	 155.209 69.4461 154.73 69.4461 154.73 69.4461 154.73 69.0475 
	 154.252 69.0475 154.252 69.0475 154.252 68.6491 153.773 68.6491 
	 153.773 68.6491 153.773 68.6491 153.295 68.6491 153.295 68.2504 
	 153.295 68.2504 152.816 68.2504 152.816 68.2504 152.338 68.2504 
	 152.338 68.2504 152.338 68.2504 151.86 68.2504 151.86 68.2504 
	 151.381 68.2504 151.381 68.2504 150.902 68.2504 150.902 68.2504 
	 150.902 68.6491 150.424 68.6491 150.424 68.6491 149.946 68.6491 
	 149.946 68.6491 149.946 69.0475 149.467 69.0475 149.467 69.0475 
	 149.467 69.4461 149.467 69.4461 148.989 69.4461 148.989 69.8448 
	 148.989 69.8448 148.989 69.8448 148.989 70.2434 148.51 70.2434 
	 148.51 70.6418 148.51 70.6418 148.51 71.0404 148.51 71.0404 
	 148.51 71.0404 148.51 71.4391 148.51 71.4391 148.51 71.8377 
	 148.51 71.8377 148.51 72.2361 148.989 72.2361 148.989 72.2361 
	 148.989 72.6348 148.989 72.6348 148.989 72.6348 149.467 73.0334 
	 149.467 73.0334 149.467 73.0334 149.467 73.432 149.946 73.432 
	 149.946 73.432 149.946 73.8304 150.424 73.8304 150.424 73.8304 
	 150.902 73.8304 150.902 73.8304 150.902 74.2291 151.381 74.2291 
	 151.381 74.2291 151.86 74.2291 151.86 74.2291 152.338 74.2291 
	 152.338 74.2291 152.338 74.2291 152.816 74.2291 152.816 74.2291 
	 153.295 74.2291 153.295 73.8304 153.295 73.8304 153.773 73.8304 
	 153.773 73.8304 153.773 73.8304 154.252 73.432 154.252 73.432 
	 154.252 73.432 154.73 73.0334 154.73 73.0334 154.73 73.0334 
	 155.209 72.6348 155.209 72.6348 155.209 72.6348 155.209 72.2361 
	 155.209 72.2361 155.209 72.2361 155.687 71.8377 155.687 71.8377 
	 155.687 71.4391 155.687 71.4391 155.687 71.0404 155.687 71.0404 
	 155.687 71.0404 155.687 71.0404 155.687 71.0404 "
	 style=" stroke:#ababab; stroke-width:1; fill:#000000; fill-opacity:100%"></polygon>
	<polygon points="149.407 52.9534 153.893 52.5565 153.893 58.9089 
	 149.407 58.9089 149.407 52.9534 149.407 52.9534 149.407 52.9534 149.407 52.9534 "
	 style=" stroke:#ababab; stroke-width:1; fill:#000000; fill-opacity:100%"></polygon>
	<polygon points="173.977 52.93 177.218 52.93 166.105 58.9087 
	 162.864 58.9087 173.977 52.93 173.977 52.93 173.977 52.93 "
	 style=" stroke:#ababab; stroke-width:1; fill:#000000; fill-opacity:100%"></polygon>
	<polygon points="194.712 64.1402 194.712 55.5459 197.852 55.5459 
	 197.852 64.1402 194.712 64.1402 194.712 64.1402 194.712 64.1402 "
	 style=" stroke:#ababab; stroke-width:1; fill:#000000; fill-opacity:100%"></polygon>
	<polygon points="152.355 72.7344 152.868 72.7344 153.38 72.7344 
	 153.893 72.3073 153.893 71.8805 153.893 71.4533 153.893 70.5991 
	 153.893 70.1722 153.38 69.7451 152.868 69.7451 152.355 69.7451 
	 151.842 69.7451 151.33 69.7451 150.817 70.1722 150.304 70.5991 
	 150.304 71.4533 150.304 71.8805 150.817 72.3073 151.33 72.7344 
	 151.842 72.7344 152.355 72.7344 152.355 72.7344 152.355 72.7344 "
	 style=" stroke:#000000; stroke-width:1; fill:#ffffff; fill-opacity:100%"></polygon>
	<polygon points="8.05426 62.2967 7.04499 61.898 5.02645 61.898 
	 4.52183 62.2967 4.52183 63.094 5.02645 63.4924 5.02645 66.2826 
	 5.02645 67.0797 5.02645 67.4783 5.5311 67.8767 8.05426 67.8767 
	 8.55888 66.681 8.05426 62.2967 8.05426 62.2967 8.05426 62.2967 "
	 style=" stroke:#000000; stroke-width:1; fill:#ffffff; fill-opacity:100%"></polygon>
	<polygon points="9.90456 63.3928 12.0577 63.3928 12.5959 62.9444 
	 12.5959 61.5993 12.0577 61.1508 9.90456 61.1508 9.90456 61.5993 
	 9.90456 62.9444 9.90456 63.3928 9.90456 63.3928 9.90456 63.3928 "
	 style=" stroke:#000000; stroke-width:1; fill:#ffffff; fill-opacity:100%"></polygon>
	<polygon points="11.2502 56.3865 9.90456 55.5459 9.90456 58.9089 
	 11.2502 58.9089 11.2502 56.3865 11.2502 56.3865 11.2502 56.3865 "
	 style=" stroke:#000000; stroke-width:1; fill:#ffffff; fill-opacity:100%"></polygon>
	<polygon points="10.3531 54.9134 11.2629 54.5109 11.7178 54.1087 
	 12.6275 54.1087 13.0824 53.7062 13.5373 53.7062 13.9921 53.7062 
	 14.9019 53.7062 15.3568 53.3038 15.8117 53.3038 16.2665 53.3038 
	 16.7214 53.3038 17.1763 53.3038 18.0861 53.3038 18.541 53.3038 
	 19.4507 53.3038 19.9056 53.3038 20.8153 53.3038 21.7251 53.3038 
	 22.6349 53.7062 23.9995 53.7062 25.3642 53.7062 27.1836 54.1087 
	 29.913 54.5109 32.6421 55.3158 34.9166 55.7183 37.6458 56.1205 
	 39.4652 56.9255 40.3752 56.9255 40.8302 57.3279 41.7397 57.7301 
	 42.6497 58.5351 41.7397 58.1326 40.3752 57.7301 39.4652 57.3279 
	 37.6458 56.9255 35.3716 56.523 33.5521 56.1205 31.7325 55.7183 
	 29.4581 55.3158 27.1836 55.3158 25.819 54.9134 24.4544 54.9134 
	 22.6349 54.9134 21.2702 54.9134 20.3605 54.5109 18.9958 54.5109 
	 17.6312 54.5109 16.7214 54.5109 15.3568 54.9134 14.447 54.9134 
	 13.0824 54.9134 12.1726 55.3158 11.2629 55.7183 10.808 55.7183 
	 10.3531 54.9134 10.3531 54.9134 10.3531 54.9134 "
	 style=" stroke:#000000; stroke-width:1; fill:#ffffff; fill-opacity:100%"></polygon>
	<polyline points="65.5261 21.5422 66.8718 21.5422"
	 style=" stroke:#ababab; stroke-width:1;"></polyline>
	<polyline points="65.5261 22.6632 66.8718 22.6632"
	 style=" stroke:#ababab; stroke-width:1;"></polyline>
	<polyline points="65.5261 23.7842 66.8718 23.7842"
	 style=" stroke:#ababab; stroke-width:1;"></polyline>
	<polyline points="65.5261 24.9052 66.8718 24.9052"
	 style=" stroke:#ababab; stroke-width:1;"></polyline>
	<polyline points="65.5261 26.0262 66.8718 26.0262"
	 style=" stroke:#ababab; stroke-width:1;"></polyline>
	<polyline points="65.5261 27.5209 66.8718 27.5209"
	 style=" stroke:#ababab; stroke-width:1;"></polyline>
	<polyline points="65.5261 28.6419 66.8718 28.6419"
	 style=" stroke:#ababab; stroke-width:1;"></polyline>
	<polyline points="65.5261 29.7628 66.8718 29.7628"
	 style=" stroke:#ababab; stroke-width:1;"></polyline>
	<polyline points="65.5261 30.8837 66.8718 30.8837"
	 style=" stroke:#ababab; stroke-width:1;"></polyline>
	<polyline points="65.5261 32.0049 66.8718 32.0049"
	 style=" stroke:#ababab; stroke-width:1;"></polyline>
	<polyline points="65.5261 33.1259 66.8718 33.1259"
	 style=" stroke:#ababab; stroke-width:1;"></polyline>
	<polyline points="65.5261 34.2468 66.8718 34.2468"
	 style=" stroke:#ababab; stroke-width:1;"></polyline>
	<polyline points="65.5261 35.7415 66.8718 35.7415"
	 style=" stroke:#ababab; stroke-width:1;"></polyline>
	<polyline points="65.5261 36.8624 66.8718 36.8624"
	 style=" stroke:#ababab; stroke-width:1;"></polyline>
	<polyline points="65.5261 37.9836 66.8718 37.9836"
	 style=" stroke:#ababab; stroke-width:1;"></polyline>
	<polyline points="67.3204 21.5422 69.5632 21.5422"
	 style=" stroke:#ababab; stroke-width:1;"></polyline>
	<polyline points="67.3204 22.6632 69.5632 22.6632"
	 style=" stroke:#ababab; stroke-width:1;"></polyline>
	<polyline points="67.3204 23.7842 69.5632 23.7842"
	 style=" stroke:#ababab; stroke-width:1;"></polyline>
	<polyline points="67.3204 24.9052 69.5632 24.9052"
	 style=" stroke:#ababab; stroke-width:1;"></polyline>
	<polyline points="67.3204 26.0262 69.5632 26.0262"
	 style=" stroke:#ababab; stroke-width:1;"></polyline>
	<polyline points="67.3204 27.5209 69.5632 27.5209"
	 style=" stroke:#ababab; stroke-width:1;"></polyline>
	<polyline points="67.3204 28.6419 69.5632 28.6419"
	 style=" stroke:#ababab; stroke-width:1;"></polyline>
	<polyline points="67.3204 29.7628 69.5632 29.7628"
	 style=" stroke:#ababab; stroke-width:1;"></polyline>
	<polyline points="67.3204 30.8837 69.5632 30.8837"
	 style=" stroke:#ababab; stroke-width:1;"></polyline>
	<polyline points="67.3204 32.0049 69.5632 32.0049"
	 style=" stroke:#ababab; stroke-width:1;"></polyline>
	<polyline points="67.3204 33.1259 69.5632 33.1259"
	 style=" stroke:#ababab; stroke-width:1;"></polyline>
	<polyline points="67.3204 34.2468 69.5632 34.2468"
	 style=" stroke:#ababab; stroke-width:1;"></polyline>
	<polyline points="67.3204 35.7415 69.5632 35.7415"
	 style=" stroke:#ababab; stroke-width:1;"></polyline>
	<polyline points="67.3204 36.8624 69.5632 36.8624"
	 style=" stroke:#ababab; stroke-width:1;"></polyline>
	<polyline points="67.3204 37.9836 69.5632 37.9836"
	 style=" stroke:#ababab; stroke-width:1;"></polyline>
	<polygon points="267.715 72.3608 267.715 72.3608 267.715 72.3608 
	 267.715 72.3608 267.715 72.3608 267.715 72.3608 268.22 72.3608 
	 268.22 72.3608 268.22 72.3608 268.22 72.3608 268.22 72.3608 
	 268.22 72.3608 268.22 72.3608 268.22 72.3608 268.22 72.3608 
	 268.22 72.3608 268.22 72.3608 268.22 72.3608 268.22 72.3608 
	 268.22 72.3608 268.22 72.3608 268.22 72.3608 268.22 72.3608 
	 268.22 72.3608 268.22 72.3608 268.22 72.3608 268.725 72.3608 
	 268.725 72.3608 268.725 72.3608 268.725 72.3608 268.725 72.3608 
	 268.725 72.3608 268.725 72.3608 268.725 72.3608 268.725 72.3608 
	 268.725 72.3608 268.725 72.3608 268.725 71.9789 265.192 55.9279 
	 265.192 55.5459 265.192 55.5459 265.192 55.5459 265.192 55.5459 
	 265.192 55.5459 265.192 55.5459 265.192 55.5459 265.192 55.5459 
	 265.192 55.5459 265.192 55.5459 265.192 55.5459 265.192 55.5459 
	 265.192 55.5459 265.192 55.5459 265.192 55.5459 264.687 55.5459 
	 264.687 55.5459 264.687 55.5459 264.687 55.5459 264.687 55.5459 
	 264.687 55.5459 264.687 55.5459 264.687 55.5459 264.687 55.5459 
	 264.687 55.5459 264.687 55.5459 264.687 55.5459 264.687 55.5459 
	 264.687 55.5459 264.687 55.5459 264.687 55.5459 264.687 55.5459 
	 264.687 55.9279 264.687 55.9279 264.687 55.9279 264.687 55.9279 
	 264.687 55.9279 267.715 72.3608 267.715 72.3608 267.715 72.3608 "
	 style=" stroke:#ffffff; stroke-width:1; fill:#ffffff; fill-opacity:100%"></polygon>
	<polygon points="82.123 55.9194 274.556 55.9194 274.556 17.8055 
	 82.123 17.8055 82.123 55.9194 82.123 55.9194 82.123 55.9194 "
	 style=" stroke:#000000; stroke-width:1; fill:#ffffff; fill-opacity:100%"></polygon>
	<polygon points="67.5765 64.1401 68.0892 64.1401 68.6019 63.7197 
	 68.6019 63.2995 69.1146 62.879 69.1146 62.4586 69.1146 62.0382 
	 68.6019 61.618 68.6019 60.7771 68.0892 60.7771 67.5765 60.7771 
	 67.0642 60.7771 66.5515 60.7771 66.0388 61.618 65.5261 62.0382 
	 65.5261 62.4586 65.5261 62.879 66.0388 63.2995 66.5515 63.7197 
	 67.0642 64.1401 67.5765 64.1401 67.5765 64.1401 67.5765 64.1401 "
	 style=" stroke:#000000; stroke-width:1; fill:#ffffff; fill-opacity:100%"></polygon>
	<polygon points="49.4762 30.5102 48.5509 30.5102 48.0883 31.2886 
	 46.238 38.684 46.238 39.4626 46.7006 39.8519 47.1633 39.8519 
	 48.0883 39.8519 59.6528 39.8519 60.1155 39.8519 60.5778 39.8519 
	 61.0405 39.0733 60.5778 31.6779 60.5778 31.2886 60.1155 30.5102 
	 59.1902 30.5102 58.7275 30.5102 49.4762 30.5102 49.4762 30.5102 49.4762 30.5102 "
	 style=" stroke:#000000; stroke-width:1; fill:#000000; fill-opacity:100%"></polygon>
	<polygon points="56.1065 40.5992 57.5867 40.5992 59.5605 40.5992 
	 61.0407 40.5992 61.0407 42.0939 60.054 42.0939 59.5605 41.5955 
	 58.0802 41.5955 58.0802 41.5955 58.0802 41.5955 58.0802 41.5955 
	 57.5867 41.5955 57.5867 41.5955 57.0932 41.5955 56.5997 41.5955 
	 56.1065 40.5992 56.1065 40.5992 56.1065 40.5992 "
	 style=" stroke:#000000; stroke-width:1; fill:#ababab; fill-opacity:100%"></polygon>
	<polygon points="48.8654 36.1152 49.3781 36.5076 49.3781 42.7852 
	 49.3781 43.5698 48.8654 43.5698 48.3527 43.9622 46.302 43.5698 
	 45.7896 36.5076 46.302 36.1152 48.8654 36.1152 48.8654 36.1152 48.8654 36.1152 "
	 style=" stroke:#000000; stroke-width:1; fill:#ffffff; fill-opacity:100%"></polygon>
	<polygon points="21.1186 42.3927 42.1736 41.4958 42.6314 41.0476 
	 43.0889 41.0476 43.5467 40.5992 43.5467 41.0476 43.0889 41.9443 
	 42.6314 41.9443 41.7158 41.9443 40.8005 41.9443 21.1186 42.8412 
	 21.1186 42.3927 21.1186 42.3927 21.1186 42.3927 "
	 style=" stroke:#ffffff; stroke-width:1; fill:#ffffff; fill-opacity:100%"></polygon>
	<polygon points="47.1833 58.5352 46.7266 58.9216 45.8136 58.9216 
	 45.357 59.3082 44.9004 59.6948 44.9004 60.4678 44.9004 61.6277 
	 44.4437 63.1739 44.4437 64.7201 44.9004 66.2664 44.9004 67.426 
	 44.9004 68.199 45.357 68.9722 45.8136 69.3586 46.27 69.7452 
	 46.7266 69.7452 67.7288 69.7452 68.6421 69.7452 69.0987 69.3586 
	 69.5551 68.5856 69.5551 68.199 70.0117 67.0394 70.0117 65.8797 
	 70.0117 65.1065 70.0117 63.9469 70.0117 62.7873 70.0117 62.0141 
	 69.5551 60.8544 69.5551 60.4678 69.0987 60.0814 68.6421 59.3082 
	 68.1855 59.3082 67.7288 58.9216 66.8158 58.9216 47.1833 58.5352 
	 47.1833 58.5352 47.1833 58.5352 "
	 style=" stroke:#000000; stroke-width:1; fill:#ffffff; fill-opacity:100%"></polygon>
	<polygon points="49.4446 30.9149 48.9793 30.9149 48.5141 31.7246 
	 47.5839 35.3679 48.5141 35.3679 48.9793 34.963 49.4446 34.963 
	 49.9095 35.3679 50.84 35.3679 51.3053 35.3679 52.2355 34.963 
	 52.7008 34.963 53.631 34.963 55.0264 35.3679 55.4917 34.963 
	 55.9569 34.963 56.8871 34.5582 57.3524 34.963 58.2829 35.3679 
	 59.2131 34.963 59.6784 34.963 60.1436 34.963 60.1436 32.1295 
	 59.6784 31.7246 59.6784 30.9149 58.7479 30.5102 58.2829 30.9149 
	 49.4446 30.9149 49.4446 30.9149 49.4446 30.9149 "
	 style=" stroke:#00ffff; stroke-width:1; fill:#00ffff; fill-opacity:100%"></polygon>
	<polygon points="48.0322 36.1152 48.0322 43.1951 48.7051 43.5885 
	 49.3779 36.5086 48.0322 36.1152 48.0322 36.1152 48.0322 36.1152 "
	 style=" stroke:#000000; stroke-width:1; fill:#ababab; fill-opacity:100%"></polygon>
	<polygon points="46.7988 39.8891 47.3595 39.8891 47.9203 39.8891 
	 47.9203 43.1775 48.4808 43.5886 46.7988 43.5886 46.238 42.7666 
	 46.238 39.4783 46.7988 39.8891 46.7988 39.8891 46.7988 39.8891 "
	 style=" stroke:#000000; stroke-width:1; fill:#ababab; fill-opacity:100%"></polygon>
	<polygon points="67.7691 60.4034 66.3955 60.4034 65.9375 60.4034 
	 65.0218 60.4034 63.6481 60.4034 62.2742 60.4034 60.4425 60.4034 
	 59.5268 60.4034 58.6109 60.4034 57.6952 60.4034 56.7792 60.4034 
	 51.2846 60.4034 50.3686 60.4034 49.9106 60.4034 48.9949 60.4034 
	 48.5369 60.4034 46.7053 60.4034 45.7896 60.4034 45.7896 59.8429 
	 46.7053 59.8429 47.1633 59.2824 66.3955 59.2824 66.8534 59.2824 
	 67.3114 59.8429 67.7691 59.8429 67.7691 60.4034 67.7691 60.4034 67.7691 60.4034 "
	 style=" stroke:#00ffff; stroke-width:1; fill:#00ffff; fill-opacity:100%"></polygon>
	<polygon points="45.357 64.5406 45.8136 64.5406 46.7266 64.9408 
	 47.1833 64.5406 48.0963 64.9408 49.4662 64.9408 50.8359 64.5406 
	 53.1185 64.5406 54.4884 64.5406 55.4014 64.5406 56.3147 64.9408 
	 57.2277 64.9408 64.0762 64.9408 64.5329 64.5406 65.4461 64.5406 
	 66.3592 64.5406 66.8158 64.5406 69.0987 64.5406 70.0117 64.1402 
	 70.0117 64.9408 70.0117 65.7416 70.0117 66.5422 69.5551 67.3431 
	 69.5551 68.1437 69.5551 68.5441 69.0987 68.9445 68.6421 69.7452 
	 68.1855 69.7452 46.7266 69.7452 46.27 69.7452 45.8136 69.3447 
	 45.357 68.5441 44.9004 68.1437 44.9004 66.9427 44.9004 66.142 
	 44.9004 65.3412 44.4437 64.5406 45.357 64.5406 45.357 64.5406 45.357 64.5406 "
	 style=" stroke:#000000; stroke-width:1; fill:#ababab; fill-opacity:100%"></polygon>
	<polygon points="10.3531 63.0192 10.3531 63.0192 10.3531 63.0192 
	 10.3531 63.0192 10.3531 63.0192 10.3531 62.5209 10.3531 62.5209 
	 10.3531 62.0226 10.3531 62.0226 10.3531 62.0226 10.3531 61.5245 
	 10.3531 61.5245 10.3531 61.5245 11.5493 61.5245 11.5493 61.5245 
	 11.5493 61.5245 11.5493 62.0226 12.1474 62.0226 12.1474 62.5209 
	 11.5493 63.0192 11.5493 63.0192 11.5493 63.0192 11.5493 63.0192 
	 11.5493 63.0192 10.3531 63.0192 10.3531 63.0192 10.3531 63.0192 "
	 style=" stroke:#000000; stroke-width:1; fill:#ff5600; fill-opacity:100%"></polygon>
	<polygon points="49.9162 27.8944 50.4546 27.8944 52.0695 27.8944 
	 51.5314 29.0154 50.993 29.0154 49.9162 29.0154 49.3781 28.4549 
	 49.9162 27.8944 49.9162 27.8944 49.9162 27.8944 "
	 style=" stroke:#000000; stroke-width:1; fill:#ff5600; fill-opacity:100%"></polygon>
	<polygon points="73.6004 57.7878 89.2326 57.7878 90.1523 58.2149 
	 90.6119 59.0689 91.0717 59.496 91.5316 59.9231 91.9914 60.7771 
	 90.1523 59.496 89.6925 59.0689 89.2326 59.0689 73.6004 59.0689 
	 73.6004 57.7878 73.6004 57.7878 73.6004 57.7878 "
	 style=" stroke:#ffffff; stroke-width:1; fill:#ffffff; fill-opacity:100%"></polygon>
	<polygon points="9.90456 57.4888 10.8017 57.0405 10.8017 58.8343 
	 9.90456 59.2825 9.90456 57.4888 9.90456 57.4888 9.90456 57.4888 "
	 style=" stroke:#000000; stroke-width:1; fill:#ababab; fill-opacity:100%"></polygon>
	<polygon points="47.0454 41.0145 47.0454 40.2255 47.5837 41.8032 
	 45.969 45.7477 45.969 47.3251 44.8924 47.3251 44.8924 44.9587 
	 45.4307 44.9587 47.0454 41.0145 47.0454 41.0145 47.0454 41.0145 "
	 style=" stroke:#000000; stroke-width:1; fill:#ffffff; fill-opacity:100%"></polygon>
	<polygon points="47.5837 39.6383 47.5837 38.3571 47.0454 38.3571 
	 47.0454 38.7842 45.4307 40.0652 44.8924 41.3464 45.4307 41.3464 
	 45.4307 40.4922 47.0454 39.2112 47.5837 39.6383 47.5837 39.6383 47.5837 39.6383 "
	 style=" stroke:#000000; stroke-width:1; fill:#ffffff; fill-opacity:100%"></polygon>
	<polygon points="56.5548 40.5992 60.5919 41.1599 57.0596 41.7202 
	 56.5548 40.5992 56.5548 40.5992 56.5548 40.5992 "
	 style=" stroke:#000000; stroke-width:1; fill:#ffffff; fill-opacity:100%"></polygon>
	<polygon points="68.2088 61.1507 67.7513 61.1507 66.8368 61.1507 
	 66.3793 61.1507 65.4647 61.1507 64.0925 61.1507 62.7205 61.1507 
	 60.891 61.1507 59.519 61.1507 58.6042 61.1507 58.147 61.1507 
	 56.7747 61.1507 50.8293 61.1507 50.3719 61.1507 49.4573 61.1507 
	 48.5424 61.1507 48.085 61.1507 46.2556 61.1507 45.341 61.1507 
	 45.7984 60.4034 46.2556 60.4034 47.1704 60.4034 66.8368 60.4034 
	 67.2942 60.4034 67.7513 60.4034 68.6662 61.1507 68.2088 61.1507 
	 68.2088 61.1507 68.2088 61.1507 "
	 style=" stroke:#000000; stroke-width:1; fill:#000000; fill-opacity:100%"></polygon>
	<polygon points="68.5168 59.6562 69.0402 60.4608 69.5633 60.8633 
	 69.5633 61.6682 69.5633 62.0704 69.5633 62.8754 69.5633 63.6801 
	 69.5633 64.485 69.5633 64.485 67.9933 64.8875 67.4699 64.8875 
	 66.4234 64.8875 66.9468 64.8875 67.4699 64.485 68.5168 64.0825 
	 69.0402 63.2778 69.0402 62.8754 69.0402 62.0704 69.0402 61.2658 
	 69.0402 60.8633 68.5168 60.4608 68.5168 59.6562 68.5168 59.6562 68.5168 59.6562 "
	 style=" stroke:#000000; stroke-width:1; fill:#000000; fill-opacity:100%"></polygon>
	<polygon points="69.5633 65.2611 69.5633 66.0833 69.0886 66.9053 
	 68.6136 67.3164 68.6136 68.1384 68.1385 68.1384 67.6635 68.5495 
	 66.7137 68.9606 66.2387 68.9606 65.2889 68.9606 64.8139 68.9606 
	 64.3388 68.9606 63.8638 68.9606 61.4892 69.3714 67.6635 69.3714 
	 68.1385 69.3714 68.6136 68.9606 69.0886 68.5495 69.5633 68.1384 
	 69.5633 67.7272 69.5633 66.9053 69.5633 66.0833 69.5633 65.2611 
	 69.5633 65.2611 69.5633 65.2611 "
	 style=" stroke:#000000; stroke-width:1; fill:#000000; fill-opacity:100%"></polygon>
	<polygon points="45.341 67.1295 45.8028 68.0262 45.8028 68.4747 
	 46.7262 68.9233 48.1114 68.9233 52.7291 68.9233 55.0377 68.9233 
	 57.8084 69.3715 58.2702 68.9233 61.0406 69.3715 47.6498 69.3715 
	 46.7262 69.3715 46.2644 69.3715 45.8028 68.4747 45.341 68.0262 
	 45.341 67.1295 45.341 67.1295 45.341 67.1295 "
	 style=" stroke:#000000; stroke-width:1; fill:#000000; fill-opacity:100%"></polygon>
	<polygon points="48.9295 70.8661 50.7237 70.8661 50.7237 65.6348 
	 48.9295 65.6348 48.9295 70.8661 48.9295 70.8661 48.9295 70.8661 "
	 style=" stroke:#000000; stroke-width:1; fill:#ffffff; fill-opacity:100%"></polygon>
	<polygon points="56.5548 70.8662 57.9005 70.8662 57.9005 66.0086 
	 56.5548 66.0086 56.5548 70.8662 56.5548 70.8662 56.5548 70.8662 "
	 style=" stroke:#000000; stroke-width:1; fill:#ffffff; fill-opacity:100%"></polygon>
	<polyline points="39.9582 40.9729 41.0346 41.3547 41.5729 41.7368 
	 41.5729 42.1188 41.5729 57.3977 42.6496 58.1616"
	 style=" stroke:#000000; stroke-width:1;"></polyline>
	<polyline points="39.5096 40.9729 40.0704 40.9729 40.6312 41.3549 
	 41.7524 41.7371 41.7524 57.7879"
	 style=" stroke:#000000; stroke-width:1;"></polyline>
	<polygon points="68.6661 62.4853 68.6661 62.0582 68.6661 62.0582 
	 68.6661 62.0582 68.6661 62.0582 68.6661 61.6313 68.6661 61.6313 
	 68.6661 61.6313 68.6661 61.6313 68.6661 61.6313 68.1278 61.2042 
	 68.1278 61.2042 68.1278 61.2042 68.1278 61.2042 68.1278 61.2042 
	 67.5894 60.7771 67.5894 60.7771 67.5894 60.7771 67.5894 60.7771 
	 67.0514 60.7771 67.0514 60.7771 67.0514 60.7771 67.0514 61.2042 
	 66.5131 61.2042 66.5131 61.2042 66.5131 61.2042 66.5131 61.2042 
	 66.5131 61.6313 66.5131 61.6313 65.9747 61.6313 65.9747 61.6313 
	 65.9747 61.6313 65.9747 62.0582 65.9747 62.0582 65.9747 62.0582 
	 65.9747 62.0582 65.9747 62.4853 65.9747 62.4853 65.9747 62.4853 
	 65.9747 62.9125 65.9747 62.9125 65.9747 62.9125 65.9747 62.9125 
	 65.9747 62.9125 66.5131 63.3396 66.5131 63.3396 66.5131 63.3396 
	 66.5131 63.3396 66.5131 63.7664 66.5131 63.7664 67.0514 63.7664 
	 67.0514 63.7664 67.0514 63.7664 67.0514 63.7664 67.5894 63.7664 
	 67.5894 63.7664 67.5894 63.7664 67.5894 63.7664 68.1278 63.7664 
	 68.1278 63.7664 68.1278 63.7664 68.1278 63.3396 68.1278 63.3396 
	 68.6661 63.3396 68.6661 63.3396 68.6661 62.9125 68.6661 62.9125 
	 68.6661 62.9125 68.6661 62.9125 68.6661 62.9125 68.6661 62.4853 
	 68.6661 62.4853 68.6661 62.4853 68.6661 62.4853 "
	 style=" stroke:#000000; stroke-width:1; fill:#ffffff; fill-opacity:100%"></polygon>
	<polygon points="85.2629 20.0475 270.519 20.0475 270.519 52.9302 
	 269.62 52.9302 269.62 26.0949 261.526 26.0949 249.835 26.0949 
	 249.835 52.9302 248.486 52.9302 248.486 26.0949 229.151 26.0949 
	 229.151 52.9302 227.802 52.9302 227.802 26.0949 208.467 26.0949 
	 208.467 52.9302 207.118 52.9302 207.118 26.0949 187.333 26.0949 
	 187.333 52.9302 186.434 52.9302 186.434 26.0949 166.65 26.0949 
	 166.65 52.9302 165.75 52.9302 165.75 26.0949 145.966 26.0949 
	 145.966 52.9302 145.066 52.9302 145.066 26.0949 125.282 26.0949 
	 125.282 52.9302 124.382 52.9302 124.382 26.0949 103.699 26.0949 
	 103.699 52.9302 103.249 52.9302 103.249 26.0949 88.4104 26.0949 
	 88.4104 52.9302 85.2629 52.9302 85.2629 20.0475 85.2629 20.0475 85.2629 20.0475 "
	 style=" stroke:#ababab; stroke-width:1; fill:#ababab; fill-opacity:100%"></polygon>
	<polygon points="102.961 70.8661 103.45 70.8661 103.939 70.8661 
	 104.918 70.4553 104.918 70.0441 105.407 69.633 105.897 69.2219 
	 105.897 68.8111 105.897 68.4 105.407 67.9888 105.407 67.5777 
	 104.918 67.1669 103.939 66.7558 103.45 66.7558 102.961 66.7558 
	 102.471 66.7558 101.982 66.7558 101.493 67.1669 101.003 67.5777 
	 100.514 67.9888 100.514 68.4 100.514 68.8111 100.514 69.2219 
	 100.514 69.633 101.003 70.0441 101.493 70.4553 102.471 70.8661 
	 102.961 70.8661 102.961 70.8661 102.961 70.8661 102.961 70.8661 "
	 style=" stroke:#000000; stroke-width:1; fill:#ffffff; fill-opacity:100%"></polygon>
	<polygon points="125.409 70.8661 125.903 70.8661 126.396 70.8661 
	 126.89 70.4553 127.383 70.0441 127.876 69.633 127.876 69.2219 
	 127.876 68.8111 127.876 68.4 127.876 67.9888 127.383 67.5777 
	 126.89 67.1669 126.396 66.7558 125.903 66.7558 125.409 66.7558 
	 124.916 66.7558 124.422 66.7558 123.929 67.1669 123.436 67.5777 
	 122.942 67.9888 122.942 68.4 122.942 68.8111 122.942 69.2219 
	 122.942 69.633 123.436 70.0441 123.929 70.4553 124.916 70.8661 
	 125.409 70.8661 125.409 70.8661 125.409 70.8661 125.409 70.8661 "
	 style=" stroke:#000000; stroke-width:1; fill:#ffffff; fill-opacity:100%"></polygon>
	<polygon points="24.0343 77.2185 24.4931 77.2185 24.9518 77.2185 
	 26.3281 77.2185 27.2456 76.8365 28.1631 76.4547 29.0806 76.0727 
	 29.5394 75.6906 30.4568 75.3086 31.3745 74.9268 31.8333 74.1627 
	 32.7507 73.3989 33.2095 72.6348 33.6683 71.871 33.6683 71.1069 
	 34.1269 70.3431 34.1269 69.579 34.1269 68.4332 34.1269 68.0512 
	 34.1269 67.6691 34.1269 66.9053 33.6683 66.1415 33.6683 65.3774 
	 33.2095 64.6136 32.7507 63.8495 31.8333 63.0857 31.3745 62.7036 
	 30.4568 61.9396 29.5394 61.5578 29.0806 61.1757 28.1631 60.7937 
	 27.2456 60.4117 26.3281 60.4117 24.9518 60.0299 24.0343 60.0299 
	 23.5755 60.0299 23.1168 60.0299 22.1993 60.4117 21.2817 60.4117 
	 20.3642 60.7937 19.4467 61.1757 18.5292 61.5578 17.6117 61.9396 
	 17.1529 62.7036 16.2354 63.0857 15.7766 63.8495 15.3179 64.6136 
	 14.8591 65.3774 14.4004 66.1415 14.4004 66.9053 13.9416 67.6691 
	 13.9416 68.4332 13.9416 69.197 13.9416 69.579 14.4004 70.3431 
	 14.4004 71.1069 14.8591 71.871 15.3179 72.6348 15.7766 73.3989 
	 16.2354 74.1627 17.1529 74.9268 17.6117 75.3086 18.5292 75.6906 
	 19.4467 76.0727 20.3642 76.4547 21.2817 76.8365 22.1993 77.2185 
	 23.1168 77.2185 24.0343 77.2185 24.0343 77.2185 24.0343 77.2185 "
	 style=" stroke:#ababab; stroke-width:1; fill:#000000; fill-opacity:100%"></polygon>
	<polygon points="24.4829 73.8554 24.4829 73.8554 25.4145 73.8554 
	 25.8803 73.468 26.3462 73.468 27.2778 73.0805 27.7436 73.0805 
	 28.2094 72.6929 28.6753 72.3053 29.141 71.5304 29.6069 71.1429 
	 29.6069 70.7553 30.0728 69.9804 30.0728 69.5928 30.0728 69.2053 
	 30.5384 68.8179 30.0728 68.4304 30.0728 67.6552 30.0728 67.2679 
	 29.6069 66.8803 29.6069 66.1055 29.141 65.7179 28.6753 65.3303 
	 28.6753 64.9427 28.2094 64.5554 27.7436 64.5554 27.2778 64.1678 
	 26.3462 64.1678 25.8803 63.7803 25.4145 63.7803 24.9487 63.7803 
	 24.4829 63.3927 24.0171 63.3927 23.0854 63.7803 22.6196 63.7803 
	 22.1538 64.1678 21.2221 64.1678 20.7563 64.5554 20.2905 64.5554 
	 19.8247 65.3303 19.3589 65.7179 18.893 66.1055 18.893 66.8803 
	 18.4272 67.2679 18.4272 67.6552 18.4272 68.0428 18.4272 68.8179 
	 18.4272 68.8179 18.4272 69.5928 18.4272 69.9804 18.893 70.7553 
	 18.893 71.1429 19.3589 71.5304 19.8247 71.918 20.2905 72.6929 
	 20.7563 73.0805 21.2221 73.0805 22.1538 73.468 22.6196 73.468 
	 23.0854 73.8554 23.5512 73.8554 24.4829 73.8554 24.4829 73.8554 24.4829 73.8554 "
	 style=" stroke:#000000; stroke-width:1; fill:#ffffff; fill-opacity:100%"></polygon>
	<polygon points="24.4828 73.1082 24.9517 73.1082 25.4207 73.1082 
	 25.8897 73.1082 26.3586 72.7175 26.8276 72.7175 27.7655 71.9363 
	 28.2344 71.5456 28.7034 70.7641 29.1722 70.3737 29.1722 69.9829 
	 29.1722 69.5922 29.6413 69.2015 29.6413 68.811 29.6413 68.4203 
	 29.1722 68.0296 29.1722 67.6389 29.1722 66.8577 28.7034 66.8577 
	 28.2344 66.0765 27.7655 65.2951 26.8276 64.9044 26.3586 64.9044 
	 25.8897 64.5139 25.4207 64.5139 24.9517 64.5139 24.4828 64.5139 
	 24.0139 64.5139 23.5449 64.5139 23.0759 64.5139 22.607 64.9044 
	 22.138 64.9044 21.2001 65.2951 20.2623 66.0765 19.7933 66.8577 
	 19.7933 66.8577 19.3244 67.6389 19.3244 68.0296 19.3244 68.4203 
	 19.3244 68.811 19.3244 69.2015 19.3244 69.5922 19.3244 69.9829 
	 19.7933 70.3737 19.7933 70.7641 20.2623 71.5456 21.2001 71.9363 
	 22.138 72.7175 22.607 72.7175 23.0759 73.1082 23.5449 73.1082 
	 24.0139 73.1082 24.4828 73.1082 24.4828 73.1082 24.4828 73.1082 "
	 style=" stroke:#000000; stroke-width:1; fill:#ffffff; fill-opacity:100%"></polygon>
	<polygon points="24.4978 71.9872 24.9762 71.9872 25.9331 71.5901 
	 26.4116 71.193 26.8901 70.7959 27.3685 70.3991 27.847 70.002 
	 27.847 69.2078 27.847 68.811 27.847 68.0168 27.847 67.6197 
	 27.3685 66.8258 26.8901 66.4287 26.4116 66.0319 25.9331 66.0319 
	 24.9762 65.6348 24.4978 65.6348 23.5408 65.6348 23.0624 66.0319 
	 22.5839 66.0319 21.627 66.4287 21.1485 66.8258 21.1485 67.6197 
	 20.67 68.0168 20.67 68.811 20.67 69.2078 21.1485 70.002 
	 21.1485 70.3991 21.627 70.7959 22.5839 71.193 23.0624 71.5901 
	 23.5408 71.9872 24.4978 71.9872 24.4978 71.9872 24.4978 71.9872 "
	 style=" stroke:#000000; stroke-width:1; fill:#ffffff; fill-opacity:100%"></polygon>
	<polygon points="19.3439 66.9694 19.8119 66.1688 19.8119 65.7683 
	 20.28 65.3679 20.748 64.9675 21.2161 64.5673 21.6842 64.5673 
	 22.6203 64.1669 23.0884 64.1669 23.5565 63.7664 24.0245 63.7664 
	 24.9606 63.7664 25.8968 64.1669 26.8329 64.5673 27.3009 64.5673 
	 27.769 64.9675 28.2371 65.3679 28.7051 65.7683 29.1731 66.1688 
	 29.6413 66.9694 29.6413 67.3698 29.6413 68.1704 29.6413 68.5708 
	 29.6413 69.3714 29.1731 68.9713 29.6413 68.5708 29.6413 67.77 
	 28.7051 66.5689 28.2371 65.7683 26.8329 64.9675 26.3648 64.5673 
	 24.9606 64.5673 23.5565 64.5673 22.6203 64.5673 22.1522 64.9675 
	 21.2161 65.3679 20.748 65.7683 19.8119 66.9694 19.3439 68.1704 
	 19.3439 68.9713 19.8119 68.5708 19.3439 68.9713 18.8758 69.3714 
	 18.8758 68.9713 18.8758 68.1704 18.8758 67.77 18.8758 67.3698 
	 19.3439 66.9694 19.3439 66.9694 19.3439 66.9694 "
	 style=" stroke:#000000; stroke-width:1; fill:#ababab; fill-opacity:100%"></polygon>
	<polygon points="29.1722 70.2913 28.7034 70.6935 28.2344 71.4984 
	 27.7655 71.9009 27.2965 71.9009 26.8276 72.7056 25.8897 72.7056 
	 25.4207 73.108 24.9517 73.108 24.4828 73.108 24.0139 73.108 
	 23.0759 73.108 22.138 72.7056 21.6691 72.3031 21.2001 71.9009 
	 20.7312 71.4984 20.2623 71.096 19.7933 70.6935 19.7933 70.2913 
	 19.3244 69.4863 19.3244 68.6816 19.3244 68.2792 19.3244 67.8767 
	 20.2623 68.2792 20.7312 68.2792 20.7312 69.0839 21.2001 69.8888 
	 22.138 71.096 22.607 71.4984 24.0139 71.9009 24.9517 71.9009 
	 26.3586 71.4984 27.2965 70.2913 27.7655 69.4863 27.7655 69.0839 
	 28.2344 68.2792 28.7034 67.8767 29.6413 68.2792 29.6413 68.6816 
	 29.1722 69.0839 29.1722 69.8888 29.1722 70.2913 29.1722 70.2913 29.1722 70.2913 "
	 style=" stroke:#000000; stroke-width:1; fill:#ababab; fill-opacity:100%"></polygon>
	<polygon points="24.4828 70.866 24.9762 70.866 25.4697 70.866 
	 25.9631 70.4586 26.4565 70.0509 26.9499 69.6432 26.9499 69.2355 
	 26.9499 68.828 26.9499 68.4203 26.9499 68.0126 26.4565 67.6049 
	 25.9631 67.1975 25.4697 66.7897 24.9762 66.7897 24.4828 66.382 
	 23.9894 66.7897 23.496 66.7897 23.0025 67.1975 22.5091 67.6049 
	 22.0157 68.0126 22.0157 68.4203 22.0157 68.828 22.0157 69.2355 
	 22.0157 69.6432 22.5091 70.0509 23.0025 70.4586 23.496 70.866 
	 23.9894 70.866 24.4828 70.866 24.4828 70.866 24.4828 70.866 "
	 style=" stroke:#000000; stroke-width:1; fill:#ababab; fill-opacity:100%"></polygon>
	<polygon points="102.981 77.2185 103.44 77.2185 103.899 77.2185 
	 104.816 77.2185 105.734 76.8365 106.651 76.4547 107.569 76.4547 
	 108.486 75.6906 109.404 75.3086 109.862 74.9268 110.78 74.1627 
	 111.239 73.3989 111.697 72.6348 112.156 71.871 112.615 71.1069 
	 112.615 70.3431 113.074 69.579 113.074 68.8152 113.074 68.0512 
	 113.074 68.0512 112.615 66.9053 112.615 66.1415 112.156 65.3774 
	 111.697 64.6136 111.239 63.8495 110.78 63.0857 109.862 62.7036 
	 109.404 61.9396 108.486 61.5578 107.569 61.1757 106.651 60.7937 
	 105.734 60.4117 104.816 60.4117 103.899 60.0299 102.981 60.0299 
	 102.522 60.0299 102.064 60.0299 100.687 60.4117 99.7698 60.4117 
	 98.8524 60.7937 97.9347 61.1757 97.4759 61.5578 96.5585 61.9396 
	 95.6409 62.7036 95.1824 63.0857 94.7235 63.8495 93.8059 64.6136 
	 93.3473 65.3774 93.3473 66.1415 92.8885 66.9053 92.8885 68.0512 
	 92.8885 68.8152 92.8885 69.197 92.8885 69.579 92.8885 70.3431 
	 93.3473 71.1069 93.3473 71.871 93.8059 72.6348 94.7235 73.3989 
	 95.1824 74.1627 95.6409 74.9268 96.5585 75.3086 97.4759 75.6906 
	 97.9347 76.4547 98.8524 76.4547 99.7698 76.8365 100.687 77.2185 
	 102.064 77.2185 102.981 77.2185 102.981 77.2185 102.981 77.2185 "
	 style=" stroke:#ababab; stroke-width:1; fill:#000000; fill-opacity:100%"></polygon>
	<polygon points="102.981 73.8554 103.447 73.8554 103.913 73.8554 
	 104.844 73.468 105.31 73.468 105.776 73.0805 106.242 73.0805 
	 106.708 72.6929 107.174 72.3053 108.105 71.5304 108.105 71.1429 
	 108.571 70.7553 108.571 70.368 109.037 69.5928 109.037 69.2053 
	 109.037 68.8179 109.037 68.4304 109.037 67.6552 108.571 67.2679 
	 108.571 66.8803 108.105 66.1055 108.105 65.7179 107.639 65.3303 
	 107.174 64.9427 106.708 64.9427 106.242 64.5554 105.776 64.1678 
	 105.31 64.1678 104.844 63.7803 103.913 63.7803 103.447 63.7803 
	 102.981 63.3927 102.515 63.7803 102.05 63.7803 101.118 63.7803 
	 100.652 64.1678 100.186 64.1678 99.7204 64.5554 99.2545 64.9427 
	 98.323 65.3303 97.8571 65.7179 97.8571 66.1055 97.3912 66.8803 
	 97.3912 67.2679 97.3912 67.6552 96.9256 68.0428 96.9256 68.8179 
	 96.9256 68.8179 97.3912 69.5928 97.3912 70.368 97.3912 70.7553 
	 97.8571 71.1429 97.8571 71.5304 98.323 71.918 99.2545 72.6929 
	 99.7204 73.0805 100.186 73.0805 100.652 73.468 101.118 73.468 
	 102.05 73.8554 102.515 73.8554 102.981 73.8554 102.981 73.8554 102.981 73.8554 "
	 style=" stroke:#000000; stroke-width:1; fill:#ffffff; fill-opacity:100%"></polygon>
	<polygon points="102.981 73.1082 103.45 73.1082 103.919 73.1082 
	 104.857 73.1082 104.857 72.7175 105.795 72.7175 106.264 71.9363 
	 107.202 71.5456 107.671 70.7641 107.671 70.3737 108.14 69.9829 
	 108.14 69.5922 108.14 69.2015 108.14 68.811 108.14 68.4203 
	 108.14 68.0296 108.14 67.6389 107.671 67.2484 107.671 66.8577 
	 107.202 66.0765 106.264 65.2951 105.795 64.9044 104.857 64.9044 
	 104.857 64.5139 103.919 64.5139 103.45 64.5139 102.981 64.5139 
	 102.512 64.5139 102.043 64.5139 101.574 64.5139 101.105 64.9044 
	 100.637 64.9044 99.6985 65.2951 99.2294 66.0765 98.7607 66.8577 
	 98.2917 67.2484 98.2917 67.6389 97.8226 68.0296 97.8226 68.4203 
	 97.8226 68.811 97.8226 69.2015 97.8226 69.5922 98.2917 69.9829 
	 98.2917 70.3737 98.7607 70.7641 99.2294 71.5456 99.6985 71.9363 
	 100.637 72.7175 101.105 72.7175 101.574 73.1082 102.043 73.1082 
	 102.512 73.1082 102.981 73.1082 102.981 73.1082 102.981 73.1082 "
	 style=" stroke:#000000; stroke-width:1; fill:#ffffff; fill-opacity:100%"></polygon>
	<polygon points="107.671 70.2913 107.671 70.6935 107.202 71.4984 
	 106.733 71.9009 106.264 71.9009 105.326 72.7056 104.857 72.7056 
	 104.388 73.108 103.919 73.108 102.981 73.108 102.512 73.108 
	 101.574 73.108 101.105 72.7056 100.167 72.3031 99.6985 71.9009 
	 99.2294 71.4984 98.7607 71.096 98.7607 70.6935 98.2917 70.2913 
	 97.8226 69.4863 97.8226 68.6816 97.8226 68.2792 98.2917 67.8767 
	 99.2294 68.2792 102.981 68.6816 106.733 68.2792 107.671 67.8767 
	 108.14 68.2792 108.14 68.6816 108.14 69.4863 108.14 69.8888 
	 107.671 70.2913 107.671 70.2913 107.671 70.2913 "
	 style=" stroke:#000000; stroke-width:1; fill:#ababab; fill-opacity:100%"></polygon>
	<polygon points="102.981 71.9872 103.934 71.9872 104.411 71.5901 
	 104.887 71.193 105.841 70.7959 106.317 70.3991 106.317 70.002 
	 106.794 69.2078 106.794 68.811 106.794 68.0168 106.317 67.6197 
	 106.317 66.8258 105.841 66.8258 104.887 66.0319 104.411 66.0319 
	 103.934 65.6348 102.981 65.6348 102.504 65.6348 101.551 66.0319 
	 101.075 66.0319 100.598 66.8258 100.122 66.8258 99.6449 67.6197 
	 99.6449 68.0168 99.1682 68.811 99.6449 69.2078 99.6449 70.002 
	 100.122 70.3991 100.598 70.7959 101.075 71.193 101.551 71.5901 
	 102.504 71.9872 102.981 71.9872 102.981 71.9872 102.981 71.9872 "
	 style=" stroke:#000000; stroke-width:1; fill:#ffffff; fill-opacity:100%"></polygon>
	<polygon points="99.6169 67.7107 100.095 66.8804 101.052 66.4651 
	 101.531 66.0501 102.488 66.0501 102.966 65.6348 103.923 66.0501 
	 104.88 66.0501 105.359 66.4651 105.837 66.8804 106.315 67.7107 
	 106.315 68.1259 106.794 68.5412 106.794 69.3715 105.837 68.9565 
	 102.966 68.5412 100.574 68.9565 99.6169 68.9565 99.6169 68.5412 
	 99.6169 68.1259 99.6169 67.7107 99.6169 67.7107 99.6169 67.7107 "
	 style=" stroke:#000000; stroke-width:1; fill:#ababab; fill-opacity:100%"></polygon>
	<polygon points="102.956 70.4924 103.953 70.4924 104.451 70.4924 
	 104.95 70.0772 104.95 69.6619 105.448 68.8317 105.448 68.4165 
	 105.448 68.0012 104.95 67.586 104.451 67.171 103.953 66.7558 
	 103.455 66.7558 102.956 66.7558 102.458 66.7558 101.959 67.171 
	 101.461 67.586 100.963 68.0012 100.963 68.4165 100.963 68.8317 
	 100.963 69.2467 101.461 69.6619 101.461 70.0772 102.458 70.4924 
	 102.956 70.4924 102.956 70.4924 102.956 70.4924 102.956 70.4924 "
	 style=" stroke:#000000; stroke-width:1; fill:#ffffff; fill-opacity:100%"></polygon>
	<polygon points="103.654 67.8768 103.654 67.8768 103.654 67.1295 
	 102.757 67.8768 103.654 67.8768 103.654 67.8768 103.654 67.8768 "
	 style=" stroke:#000000; stroke-width:1; fill:#ffffff; fill-opacity:100%"></polygon>
	<polygon points="104.327 68.9977 105 68.4372 104.327 67.8767 
	 103.654 68.4372 104.327 68.9977 104.327 68.9977 104.327 68.9977 "
	 style=" stroke:#000000; stroke-width:1; fill:#ffffff; fill-opacity:100%"></polygon>
	<polygon points="103.878 70.1187 104.551 69.5582 103.878 68.9977 
	 103.205 69.5582 103.878 70.1187 103.878 70.1187 103.878 70.1187 "
	 style=" stroke:#000000; stroke-width:1; fill:#ffffff; fill-opacity:100%"></polygon>
	<polygon points="102.757 70.1187 102.757 69.5582 102.757 68.9977 
	 101.86 69.5582 102.757 70.1187 102.757 70.1187 102.757 70.1187 "
	 style=" stroke:#000000; stroke-width:1; fill:#ffffff; fill-opacity:100%"></polygon>
	<polygon points="101.635 68.9977 102.308 68.4372 101.635 67.8767 
	 100.963 68.4372 101.635 68.9977 101.635 68.9977 101.635 68.9977 "
	 style=" stroke:#000000; stroke-width:1; fill:#ffffff; fill-opacity:100%"></polygon>
	<polygon points="102.906 69.3714 103.504 69.3714 104.102 68.8734 
	 104.102 68.375 103.504 67.8767 102.308 67.8767 102.308 68.375 
	 102.308 68.8734 102.906 69.3714 102.906 69.3714 102.906 69.3714 102.906 69.3714 "
	 style=" stroke:#000000; stroke-width:1; fill:#ffffff; fill-opacity:100%"></polygon>
	<polygon points="125.409 77.2185 125.868 77.2185 126.327 77.2185 
	 127.244 77.2185 128.162 76.8365 129.079 76.4547 129.997 76.4547 
	 130.914 75.6906 131.373 75.3086 132.291 74.9268 133.208 74.1627 
	 133.667 73.3989 134.126 72.6348 134.584 71.871 135.043 71.1069 
	 135.043 70.3431 135.043 69.579 135.502 68.8152 135.043 68.0512 
	 135.043 68.0512 135.043 66.9053 135.043 66.1415 134.584 65.3774 
	 134.126 64.6136 133.667 63.8495 133.208 63.0857 132.291 62.7036 
	 131.373 61.9396 130.914 61.5578 129.997 61.1757 129.079 60.7937 
	 128.162 60.4117 127.244 60.4117 126.327 60.0299 125.409 60.0299 
	 124.492 60.0299 124.033 60.0299 123.115 60.4117 122.198 60.4117 
	 121.28 60.7937 120.363 61.1757 119.445 61.5578 118.528 61.9396 
	 118.069 62.7036 117.152 63.0857 116.693 63.8495 116.234 64.6136 
	 115.775 65.3774 115.775 66.1415 115.317 66.9053 115.317 68.0512 
	 115.317 68.8152 115.317 69.197 115.317 69.579 115.317 70.3431 
	 115.775 71.1069 115.775 71.871 116.234 72.6348 116.693 73.3989 
	 117.152 74.1627 118.069 74.9268 118.528 75.3086 119.445 75.6906 
	 120.363 76.4547 121.28 76.4547 122.198 76.8365 123.115 77.2185 
	 124.033 77.2185 125.409 77.2185 125.409 77.2185 125.409 77.2185 "
	 style=" stroke:#ababab; stroke-width:1; fill:#000000; fill-opacity:100%"></polygon>
	<polygon points="125.409 73.8554 125.409 73.8554 126.341 73.8554 
	 127.272 73.468 127.738 73.468 128.204 73.0805 128.67 73.0805 
	 129.136 72.6929 129.602 72.3053 130.067 71.5304 130.533 71.1429 
	 130.999 70.7553 130.999 70.368 130.999 69.5928 130.999 69.2053 
	 131.465 68.8179 131.465 68.4304 130.999 67.6552 130.999 67.2679 
	 130.999 66.8803 130.533 66.1055 130.067 65.7179 130.067 65.3303 
	 129.602 64.9427 129.136 64.9427 128.67 64.5554 128.204 64.1678 
	 127.738 64.1678 127.272 63.7803 126.341 63.7803 125.875 63.7803 
	 125.409 63.3927 124.943 63.7803 124.012 63.7803 123.546 63.7803 
	 123.08 64.1678 122.614 64.1678 122.148 64.5554 121.683 64.9427 
	 120.751 65.3303 120.285 65.7179 119.82 66.1055 119.82 66.8803 
	 119.82 67.2679 119.354 67.6552 119.354 68.0428 119.354 68.8179 
	 119.354 68.8179 119.354 69.5928 119.82 70.368 119.82 70.7553 
	 119.82 71.1429 120.285 71.5304 120.751 71.918 121.683 72.6929 
	 122.148 73.0805 122.614 73.0805 123.08 73.468 123.546 73.468 
	 124.012 73.8554 124.943 73.8554 125.409 73.8554 125.409 73.8554 125.409 73.8554 "
	 style=" stroke:#000000; stroke-width:1; fill:#ffffff; fill-opacity:100%"></polygon>
	<polygon points="125.409 73.1082 125.878 73.1082 126.347 73.1082 
	 126.816 73.1082 127.285 72.7175 127.754 72.7175 128.692 71.9363 
	 129.16 71.5456 129.63 70.7641 130.099 70.3737 130.099 69.9829 
	 130.568 69.5922 130.568 69.2015 130.568 68.811 130.568 68.4203 
	 130.568 68.0296 130.099 67.6389 130.099 67.2484 129.63 66.8577 
	 129.16 66.0765 128.692 65.2951 127.754 64.9044 127.285 64.9044 
	 126.816 64.5139 126.347 64.5139 125.878 64.5139 125.409 64.5139 
	 124.94 64.5139 124.471 64.5139 124.002 64.5139 123.533 64.9044 
	 123.064 64.9044 122.126 65.2951 121.658 66.0765 120.72 66.8577 
	 120.72 67.2484 120.72 67.6389 120.251 68.0296 120.251 68.4203 
	 120.251 68.811 120.251 69.2015 120.251 69.5922 120.72 69.9829 
	 120.72 70.3737 120.72 70.7641 121.658 71.5456 122.126 71.9363 
	 123.064 72.7175 123.533 72.7175 124.002 73.1082 124.471 73.1082 
	 124.94 73.1082 125.409 73.1082 125.409 73.1082 125.409 73.1082 "
	 style=" stroke:#000000; stroke-width:1; fill:#ffffff; fill-opacity:100%"></polygon>
	<polygon points="130.099 70.2913 129.63 70.6935 129.63 71.4984 
	 129.16 71.9009 128.692 71.9009 127.754 72.7056 127.285 72.7056 
	 126.347 73.108 125.878 73.108 125.409 73.108 124.94 73.108 
	 124.002 73.108 123.064 72.7056 122.595 72.3031 122.126 71.9009 
	 121.658 71.4984 121.189 71.096 120.72 70.6935 120.72 70.2913 
	 120.251 69.4863 120.251 68.6816 120.251 68.2792 120.251 67.8767 
	 121.658 68.2792 125.409 68.6816 129.16 68.2792 130.099 67.8767 
	 130.568 68.2792 130.568 68.6816 130.568 69.4863 130.099 69.8888 
	 130.099 70.2913 130.099 70.2913 130.099 70.2913 "
	 style=" stroke:#000000; stroke-width:1; fill:#ababab; fill-opacity:100%"></polygon>
	<polygon points="125.409 71.9872 125.886 71.9872 126.839 71.5901 
	 127.316 71.193 127.792 70.7959 128.269 70.3991 128.746 70.002 
	 128.746 69.2078 129.222 68.811 128.746 68.0168 128.746 67.6197 
	 128.269 66.8258 127.792 66.8258 127.316 66.0319 126.839 66.0319 
	 125.886 65.6348 125.409 65.6348 124.933 65.6348 123.979 66.0319 
	 123.503 66.0319 122.55 66.8258 122.55 66.8258 122.073 67.6197 
	 121.597 68.0168 121.597 68.811 121.597 69.2078 122.073 70.002 
	 122.55 70.3991 122.55 70.7959 123.503 71.193 123.979 71.5901 
	 124.933 71.9872 125.409 71.9872 125.409 71.9872 125.409 71.9872 "
	 style=" stroke:#000000; stroke-width:1; fill:#ffffff; fill-opacity:100%"></polygon>
	<polygon points="122.045 67.7107 122.526 66.8804 123.006 66.4651 
	 123.967 66.0501 124.448 66.0501 125.409 65.6348 126.37 66.0501 
	 126.851 66.0501 127.331 66.4651 128.293 66.8804 128.293 67.7107 
	 128.773 68.1259 128.773 68.5412 128.773 69.3715 128.293 68.9565 
	 125.409 68.5412 122.526 68.9565 122.045 68.9565 122.045 68.5412 
	 122.045 68.1259 122.045 67.7107 122.045 67.7107 122.045 67.7107 "
	 style=" stroke:#000000; stroke-width:1; fill:#ababab; fill-opacity:100%"></polygon>
	<polygon points="125.409 70.4924 125.914 70.4924 126.419 70.4924 
	 126.923 70.0772 127.428 69.6619 127.428 68.8317 127.428 68.4165 
	 127.428 68.0012 127.428 67.586 126.923 67.171 126.419 66.7558 
	 125.409 66.7558 125.409 66.7558 124.905 66.7558 124.4 67.171 
	 123.895 67.586 123.391 68.0012 123.391 68.4165 123.391 68.8317 
	 123.391 69.2467 123.391 69.6619 123.895 70.0772 124.4 70.4924 
	 125.409 70.4924 125.409 70.4924 125.409 70.4924 125.409 70.4924 "
	 style=" stroke:#000000; stroke-width:1; fill:#ffffff; fill-opacity:100%"></polygon>
	<polygon points="125.409 67.8768 126.082 67.8768 125.409 67.1295 
	 124.736 67.8768 125.409 67.8768 125.409 67.8768 125.409 67.8768 "
	 style=" stroke:#000000; stroke-width:1; fill:#ffffff; fill-opacity:100%"></polygon>
	<polygon points="126.755 68.9977 127.428 68.4372 126.755 67.8767 
	 126.082 68.4372 126.755 68.9977 126.755 68.9977 126.755 68.9977 "
	 style=" stroke:#000000; stroke-width:1; fill:#ffffff; fill-opacity:100%"></polygon>
	<polygon points="126.306 70.1187 126.979 69.5582 126.306 68.9977 
	 125.633 69.5582 126.306 70.1187 126.306 70.1187 126.306 70.1187 "
	 style=" stroke:#000000; stroke-width:1; fill:#ffffff; fill-opacity:100%"></polygon>
	<polygon points="124.512 70.1187 125.185 69.5582 124.512 68.9977 
	 123.839 69.5582 124.512 70.1187 124.512 70.1187 124.512 70.1187 "
	 style=" stroke:#000000; stroke-width:1; fill:#ffffff; fill-opacity:100%"></polygon>
	<polygon points="124.063 68.9977 124.736 68.4372 124.063 67.8767 
	 123.391 68.4372 124.063 68.9977 124.063 68.9977 124.063 68.9977 "
	 style=" stroke:#000000; stroke-width:1; fill:#ffffff; fill-opacity:100%"></polygon>
	<polygon points="125.335 69.3714 125.932 69.3714 126.531 68.8734 
	 125.932 68.375 125.335 67.8767 124.736 67.8767 124.736 68.375 
	 124.736 68.8734 125.335 69.3714 125.335 69.3714 125.335 69.3714 125.335 69.3714 "
	 style=" stroke:#000000; stroke-width:1; fill:#ffffff; fill-opacity:100%"></polygon>
	<polygon points="232.172 77.2185 232.631 77.2185 233.089 77.2185 
	 234.006 77.2185 234.923 76.8365 235.84 76.4547 236.757 76.4547 
	 237.674 75.6906 238.133 75.3086 239.05 74.9268 239.508 74.1627 
	 240.425 73.3989 240.884 72.6348 241.343 71.871 241.801 71.1069 
	 241.801 70.3431 241.801 69.579 242.26 68.8152 241.801 68.0512 
	 241.801 68.0512 241.801 66.9053 241.801 66.1415 241.343 65.3774 
	 240.884 64.6136 240.425 63.8495 239.508 63.0857 239.05 62.7036 
	 238.133 61.9396 237.674 61.5578 236.757 61.1757 235.84 60.7937 
	 234.923 60.4117 234.006 60.4117 233.089 60.0299 232.172 60.0299 
	 231.255 60.0299 230.796 60.0299 229.879 60.4117 228.962 60.4117 
	 228.045 60.7937 227.128 61.1757 226.211 61.5578 225.753 61.9396 
	 224.835 62.7036 224.377 63.0857 223.46 63.8495 223.001 64.6136 
	 222.543 65.3774 222.084 66.1415 222.084 66.9053 221.626 68.0512 
	 221.626 68.8152 221.626 69.197 221.626 69.579 222.084 70.3431 
	 222.084 71.1069 222.543 71.871 223.001 72.6348 223.46 73.3989 
	 224.377 74.1627 224.835 74.9268 225.753 75.3086 226.211 75.6906 
	 227.128 76.4547 228.045 76.4547 228.962 76.8365 229.879 77.2185 
	 230.796 77.2185 232.172 77.2185 232.172 77.2185 232.172 77.2185 "
	 style=" stroke:#ababab; stroke-width:1; fill:#000000; fill-opacity:100%"></polygon>
	<polygon points="232.167 73.8554 232.167 73.8554 233.098 73.8554 
	 234.03 73.468 234.496 73.468 234.961 73.0805 235.427 73.0805 
	 235.893 72.6929 236.359 72.3053 236.825 71.5304 237.291 71.1429 
	 237.756 70.7553 237.756 70.368 237.756 69.5928 237.756 69.2053 
	 238.222 68.8179 238.222 68.4304 237.756 67.6552 237.756 67.2679 
	 237.756 66.8803 237.291 66.1055 236.825 65.7179 236.825 65.3303 
	 236.359 64.9427 235.893 64.9427 235.427 64.5554 234.961 64.1678 
	 234.496 64.1678 234.03 63.7803 233.098 63.7803 232.633 63.7803 
	 232.167 63.3927 231.701 63.7803 230.769 63.7803 230.304 63.7803 
	 229.838 64.1678 229.372 64.1678 228.906 64.5554 227.974 64.9427 
	 227.509 65.3303 227.043 65.7179 226.577 66.1055 226.577 66.8803 
	 226.577 67.2679 226.111 67.6552 226.111 68.0428 226.111 68.8179 
	 226.111 68.8179 226.111 69.5928 226.577 70.368 226.577 70.7553 
	 226.577 71.1429 227.043 71.5304 227.509 71.918 227.974 72.6929 
	 228.906 73.0805 229.372 73.0805 229.838 73.468 230.304 73.468 
	 230.769 73.8554 231.235 73.8554 232.167 73.8554 232.167 73.8554 232.167 73.8554 "
	 style=" stroke:#000000; stroke-width:1; fill:#ffffff; fill-opacity:100%"></polygon>
	<polygon points="232.167 73.1082 232.636 73.1082 233.105 73.1082 
	 233.574 73.1082 234.043 72.7175 234.512 72.7175 235.45 71.9363 
	 236.388 71.5456 236.856 70.7641 236.856 70.3737 236.856 69.9829 
	 237.325 69.5922 237.325 69.2015 237.325 68.811 237.325 68.4203 
	 237.325 68.0296 236.856 67.6389 236.856 67.2484 236.856 66.8577 
	 236.388 66.0765 235.45 65.2951 234.512 64.9044 234.043 64.9044 
	 233.574 64.5139 233.105 64.5139 232.636 64.5139 232.167 64.5139 
	 231.698 64.5139 231.229 64.5139 230.76 64.5139 230.291 64.9044 
	 229.822 64.9044 228.884 65.2951 227.946 66.0765 227.477 66.8577 
	 227.477 67.2484 227.008 67.6389 227.008 68.0296 227.008 68.4203 
	 227.008 68.811 227.008 69.2015 227.008 69.5922 227.008 69.9829 
	 227.477 70.3737 227.477 70.7641 227.946 71.5456 228.884 71.9363 
	 229.822 72.7175 230.291 72.7175 230.76 73.1082 231.229 73.1082 
	 231.698 73.1082 232.167 73.1082 232.167 73.1082 232.167 73.1082 "
	 style=" stroke:#000000; stroke-width:1; fill:#ffffff; fill-opacity:100%"></polygon>
	<polygon points="236.856 70.2913 236.388 70.6935 236.388 71.4984 
	 235.919 71.9009 235.45 71.9009 234.512 72.7056 234.043 72.7056 
	 233.105 73.108 232.636 73.108 232.167 73.108 231.698 73.108 
	 230.76 73.108 229.822 72.7056 229.353 72.3031 228.884 71.9009 
	 228.415 71.4984 227.946 71.096 227.477 70.6935 227.477 70.2913 
	 227.008 69.4863 227.008 68.6816 227.008 68.2792 227.008 67.8767 
	 227.946 68.2792 232.167 68.6816 235.919 68.2792 236.856 67.8767 
	 237.325 68.2792 237.325 68.6816 237.325 69.4863 236.856 69.8888 
	 236.856 70.2913 236.856 70.2913 236.856 70.2913 "
	 style=" stroke:#000000; stroke-width:1; fill:#ababab; fill-opacity:100%"></polygon>
	<polygon points="232.167 71.9872 232.644 71.9872 233.597 71.5901 
	 234.073 71.193 234.55 70.7959 235.026 70.3991 235.503 70.002 
	 235.98 69.2078 235.98 68.811 235.98 68.0168 235.503 67.6197 
	 235.026 66.8258 234.55 66.8258 234.073 66.0319 233.597 66.0319 
	 232.644 65.6348 232.167 65.6348 231.214 65.6348 230.737 66.0319 
	 230.26 66.0319 229.307 66.8258 229.307 66.8258 228.831 67.6197 
	 228.354 68.0168 228.354 68.811 228.354 69.2078 228.831 70.002 
	 229.307 70.3991 229.307 70.7959 230.26 71.193 230.737 71.5901 
	 231.214 71.9872 232.167 71.9872 232.167 71.9872 232.167 71.9872 "
	 style=" stroke:#000000; stroke-width:1; fill:#ffffff; fill-opacity:100%"></polygon>
	<polygon points="228.803 67.7107 229.283 66.8804 229.764 66.4651 
	 230.725 66.0501 231.206 66.0501 232.167 65.6348 233.128 66.0501 
	 233.609 66.0501 234.57 66.4651 235.05 66.8804 235.531 67.7107 
	 235.531 68.1259 235.531 68.5412 235.531 69.3715 235.05 68.9565 
	 232.167 68.5412 229.283 68.9565 228.803 68.9565 228.803 68.5412 
	 228.803 68.1259 228.803 67.7107 228.803 67.7107 228.803 67.7107 "
	 style=" stroke:#000000; stroke-width:1; fill:#ababab; fill-opacity:100%"></polygon>
	<polygon points="232.167 70.8661 232.66 70.8661 233.153 70.8661 
	 233.647 70.4553 234.14 70.0441 234.634 69.633 234.634 69.2219 
	 234.634 68.8111 234.634 68.4 234.634 67.9888 234.634 67.5777 
	 233.647 67.1669 233.153 66.7558 232.66 66.7558 232.167 66.7558 
	 231.673 66.7558 231.18 66.7558 230.687 67.1669 230.193 67.5777 
	 229.7 67.9888 229.7 68.4 229.7 68.8111 229.7 69.2219 
	 229.7 69.633 230.193 70.0441 230.687 70.4553 231.673 70.8661 
	 232.167 70.8661 232.167 70.8661 232.167 70.8661 232.167 70.8661 "
	 style=" stroke:#000000; stroke-width:1; fill:#ffffff; fill-opacity:100%"></polygon>
	<polygon points="232.167 70.4924 232.66 70.4924 233.647 70.4924 
	 234.14 70.0772 234.14 69.6619 234.634 68.8317 234.634 68.4165 
	 234.14 68.0012 234.14 67.586 233.647 67.171 233.153 66.7558 
	 232.167 66.7558 232.167 66.7558 231.673 66.7558 230.687 67.171 
	 230.193 67.586 230.193 68.0012 229.7 68.4165 229.7 68.8317 
	 230.193 69.2467 230.193 69.6619 230.687 70.0772 231.18 70.4924 
	 232.167 70.4924 232.167 70.4924 232.167 70.4924 232.167 70.4924 "
	 style=" stroke:#000000; stroke-width:1; fill:#ffffff; fill-opacity:100%"></polygon>
	<polygon points="231.943 67.8768 232.84 67.8768 231.943 67.1295 
	 231.943 67.8768 231.943 67.8768 231.943 67.8768 231.943 67.8768 "
	 style=" stroke:#000000; stroke-width:1; fill:#ffffff; fill-opacity:100%"></polygon>
	<polygon points="233.512 68.9977 234.185 68.4372 233.512 67.8767 
	 232.84 68.4372 233.512 68.9977 233.512 68.9977 233.512 68.9977 "
	 style=" stroke:#000000; stroke-width:1; fill:#ffffff; fill-opacity:100%"></polygon>
	<polygon points="233.064 70.1187 233.737 69.5582 233.064 68.9977 
	 232.391 69.5582 233.064 70.1187 233.064 70.1187 233.064 70.1187 "
	 style=" stroke:#000000; stroke-width:1; fill:#ffffff; fill-opacity:100%"></polygon>
	<polygon points="231.27 70.1187 231.943 69.5582 231.27 68.9977 
	 230.597 69.5582 231.27 70.1187 231.27 70.1187 231.27 70.1187 "
	 style=" stroke:#000000; stroke-width:1; fill:#ffffff; fill-opacity:100%"></polygon>
	<polygon points="230.821 68.9977 231.494 68.4372 230.821 67.8767 
	 230.148 68.4372 230.821 68.9977 230.821 68.9977 230.821 68.9977 "
	 style=" stroke:#000000; stroke-width:1; fill:#ffffff; fill-opacity:100%"></polygon>
	<polygon points="232.092 69.3714 232.69 69.3714 233.288 68.8734 
	 232.69 68.375 232.092 67.8767 231.494 67.8767 231.494 68.375 
	 231.494 68.8734 232.092 69.3714 232.092 69.3714 232.092 69.3714 232.092 69.3714 "
	 style=" stroke:#000000; stroke-width:1; fill:#ffffff; fill-opacity:100%"></polygon>
	<polygon points="255.054 77.2185 255.054 77.2185 255.971 77.2185 
	 256.889 77.2185 257.806 76.8365 258.724 76.4547 259.641 76.4547 
	 260.559 75.6906 261.018 75.3086 261.935 74.9268 262.394 74.1627 
	 263.311 73.3989 263.77 72.6348 264.229 71.871 264.229 71.1069 
	 264.688 70.3431 264.688 69.579 264.688 68.8152 264.688 68.0512 
	 264.688 68.0512 264.688 66.9053 264.229 66.1415 264.229 65.3774 
	 263.77 64.6136 263.311 63.8495 262.394 63.0857 261.935 62.7036 
	 261.018 61.9396 260.559 61.5578 259.641 61.1757 258.724 60.7937 
	 257.806 60.4117 256.889 60.4117 255.971 60.0299 255.054 60.0299 
	 254.136 60.0299 253.677 60.0299 252.76 60.4117 251.842 60.4117 
	 250.925 60.7937 250.007 61.1757 249.09 61.5578 248.172 61.9396 
	 247.714 62.7036 246.796 63.0857 246.337 63.8495 245.879 64.6136 
	 245.42 65.3774 244.961 66.1415 244.961 66.9053 244.961 68.0512 
	 244.502 68.8152 244.502 69.197 244.961 69.579 244.961 70.3431 
	 244.961 71.1069 245.42 71.871 245.879 72.6348 246.337 73.3989 
	 246.796 74.1627 247.714 74.9268 248.172 75.3086 249.09 75.6906 
	 250.007 76.4547 250.925 76.4547 251.842 76.8365 252.76 77.2185 
	 253.677 77.2185 255.054 77.2185 255.054 77.2185 255.054 77.2185 "
	 style=" stroke:#ababab; stroke-width:1; fill:#000000; fill-opacity:100%"></polygon>
	<polygon points="255.043 73.8554 255.043 73.8554 255.975 73.8554 
	 256.441 73.468 257.373 73.468 257.838 73.0805 258.304 73.0805 
	 258.77 72.6929 259.236 72.3053 259.701 71.5304 260.167 71.1429 
	 260.167 70.7553 260.633 70.368 260.633 69.5928 260.633 69.2053 
	 261.099 68.8179 261.099 68.4304 260.633 67.6552 260.633 67.2679 
	 260.167 66.8803 260.167 66.1055 259.701 65.7179 259.236 65.3303 
	 259.236 64.9427 258.77 64.9427 258.304 64.5554 257.838 64.1678 
	 257.373 64.1678 256.441 63.7803 255.975 63.7803 255.509 63.7803 
	 255.043 63.3927 254.578 63.7803 253.646 63.7803 253.18 63.7803 
	 252.714 64.1678 251.783 64.1678 251.783 64.5554 250.851 64.9427 
	 250.385 65.3303 249.92 65.7179 249.92 66.1055 249.454 66.8803 
	 248.988 67.2679 248.988 67.6552 248.988 68.0428 248.988 68.8179 
	 248.988 68.8179 248.988 69.5928 248.988 70.368 249.454 70.7553 
	 249.92 71.1429 249.92 71.5304 250.385 71.918 250.851 72.6929 
	 251.783 73.0805 251.783 73.0805 252.714 73.468 253.18 73.468 
	 253.646 73.8554 254.578 73.8554 255.043 73.8554 255.043 73.8554 255.043 73.8554 "
	 style=" stroke:#000000; stroke-width:1; fill:#ffffff; fill-opacity:100%"></polygon>
	<polygon points="255.044 73.1082 255.513 73.1082 255.981 73.1082 
	 256.45 73.1082 256.919 72.7175 257.388 72.7175 258.326 71.9363 
	 258.795 71.5456 259.264 70.7641 259.733 70.3737 259.733 69.9829 
	 260.202 69.5922 260.202 69.2015 260.202 68.811 260.202 68.4203 
	 260.202 68.0296 259.733 67.6389 259.733 67.2484 259.264 66.8577 
	 258.795 66.0765 258.326 65.2951 257.388 64.9044 256.919 64.9044 
	 256.45 64.5139 255.981 64.5139 255.513 64.5139 255.044 64.5139 
	 254.575 64.5139 254.106 64.5139 253.637 64.5139 253.168 64.9044 
	 252.699 64.9044 251.761 65.2951 251.292 66.0765 250.354 66.8577 
	 250.354 67.2484 250.354 67.6389 249.885 68.0296 249.885 68.4203 
	 249.885 68.811 249.885 69.2015 249.885 69.5922 250.354 69.9829 
	 250.354 70.3737 250.354 70.7641 251.292 71.5456 251.761 71.9363 
	 252.699 72.7175 253.168 72.7175 253.637 73.1082 254.106 73.1082 
	 254.575 73.1082 255.044 73.1082 255.044 73.1082 255.044 73.1082 "
	 style=" stroke:#000000; stroke-width:1; fill:#ffffff; fill-opacity:100%"></polygon>
	<polygon points="259.733 70.2913 259.264 70.6935 258.795 71.4984 
	 258.326 71.9009 258.326 71.9009 257.388 72.7056 256.919 72.7056 
	 255.981 73.108 255.513 73.108 255.044 73.108 254.575 73.108 
	 253.637 73.108 252.699 72.7056 252.23 72.3031 251.761 71.9009 
	 251.292 71.4984 250.823 71.096 250.354 70.6935 250.354 70.2913 
	 249.885 69.4863 249.885 68.6816 249.885 68.2792 249.885 67.8767 
	 251.292 68.2792 255.044 68.6816 258.795 68.2792 259.264 67.8767 
	 260.202 68.2792 260.202 68.6816 259.733 69.4863 259.733 69.8888 
	 259.733 70.2913 259.733 70.2913 259.733 70.2913 "
	 style=" stroke:#000000; stroke-width:1; fill:#ababab; fill-opacity:100%"></polygon>
	<polygon points="255.058 71.9872 255.537 71.9872 256.494 71.5901 
	 256.972 71.193 257.451 70.7959 257.929 70.3991 258.408 70.002 
	 258.408 69.2078 258.408 68.811 258.408 68.0168 258.408 67.6197 
	 257.929 66.8258 257.451 66.8258 256.972 66.0319 256.494 66.0319 
	 255.537 65.6348 255.058 65.6348 254.58 65.6348 253.623 66.0319 
	 253.145 66.0319 252.188 66.8258 251.709 66.8258 251.709 67.6197 
	 251.231 68.0168 251.231 68.811 251.231 69.2078 251.709 70.002 
	 251.709 70.3991 252.188 70.7959 253.145 71.193 253.623 71.5901 
	 254.58 71.9872 255.058 71.9872 255.058 71.9872 255.058 71.9872 "
	 style=" stroke:#000000; stroke-width:1; fill:#ffffff; fill-opacity:100%"></polygon>
	<polygon points="251.679 67.7107 252.16 66.8804 252.64 66.4651 
	 253.602 66.0501 254.082 66.0501 255.044 65.6348 256.005 66.0501 
	 256.485 66.0501 256.966 66.4651 257.927 66.8804 257.927 67.7107 
	 258.408 68.1259 258.408 68.5412 258.408 69.3715 257.927 68.9565 
	 255.044 68.5412 252.16 68.9565 251.679 68.9565 251.679 68.5412 
	 251.679 68.1259 251.679 67.7107 251.679 67.7107 251.679 67.7107 "
	 style=" stroke:#000000; stroke-width:1; fill:#ababab; fill-opacity:100%"></polygon>
	<polygon points="255.043 70.8661 255.537 70.8661 256.03 70.8661 
	 256.524 70.4553 257.017 70.0441 257.511 69.633 257.511 69.2219 
	 257.511 68.8111 257.511 68.4 257.511 67.9888 257.017 67.5777 
	 256.524 67.1669 256.03 66.7558 255.537 66.7558 255.043 66.7558 
	 254.55 66.7558 254.056 66.7558 253.563 67.1669 253.07 67.5777 
	 252.576 67.9888 252.576 68.4 252.576 68.8111 252.576 69.2219 
	 252.576 69.633 253.07 70.0441 253.563 70.4553 254.55 70.8661 
	 255.043 70.8661 255.043 70.8661 255.043 70.8661 255.043 70.8661 "
	 style=" stroke:#000000; stroke-width:1; fill:#ffffff; fill-opacity:100%"></polygon>
	<polygon points="255.068 70.4924 255.567 70.4924 256.065 70.4924 
	 256.563 70.0772 257.062 69.6619 257.062 68.8317 257.062 68.4165 
	 257.062 68.0012 257.062 67.586 256.563 67.171 256.065 66.7558 
	 255.068 66.7558 255.068 66.7558 254.57 66.7558 253.573 67.171 
	 253.075 67.586 253.075 68.0012 252.576 68.4165 252.576 68.8317 
	 253.075 69.2467 253.075 69.6619 253.573 70.0772 254.071 70.4924 
	 255.068 70.4924 255.068 70.4924 255.068 70.4924 255.068 70.4924 "
	 style=" stroke:#000000; stroke-width:1; fill:#ffffff; fill-opacity:100%"></polygon>
	<polygon points="253.698 68.9977 254.371 68.4372 253.698 67.8767 
	 253.025 68.4372 253.698 68.9977 253.698 68.9977 253.698 68.9977 "
	 style=" stroke:#000000; stroke-width:1; fill:#ffffff; fill-opacity:100%"></polygon>
	<polygon points="255.043 67.8768 255.716 67.8768 255.043 67.1295 
	 254.371 67.8768 255.043 67.8768 255.043 67.8768 255.043 67.8768 "
	 style=" stroke:#000000; stroke-width:1; fill:#ffffff; fill-opacity:100%"></polygon>
	<polygon points="256.389 68.9977 257.062 68.4372 256.389 67.8767 
	 255.716 68.4372 256.389 68.9977 256.389 68.9977 256.389 68.9977 "
	 style=" stroke:#000000; stroke-width:1; fill:#ffffff; fill-opacity:100%"></polygon>
	<polygon points="255.94 70.1187 256.614 69.5582 255.94 68.9977 
	 255.268 69.5582 255.94 70.1187 255.94 70.1187 255.94 70.1187 "
	 style=" stroke:#000000; stroke-width:1; fill:#ffffff; fill-opacity:100%"></polygon>
	<polygon points="254.146 70.1187 254.819 69.5582 254.146 68.9977 
	 253.474 69.5582 254.146 70.1187 254.146 70.1187 254.146 70.1187 "
	 style=" stroke:#000000; stroke-width:1; fill:#ffffff; fill-opacity:100%"></polygon>
	<polygon points="255.043 69.3714 255.716 69.3714 255.716 68.8734 
	 255.716 68.375 255.043 67.8767 254.371 67.8767 254.371 68.375 
	 254.371 68.8734 255.043 69.3714 255.043 69.3714 255.043 69.3714 255.043 69.3714 "
	 style=" stroke:#000000; stroke-width:1; fill:#ffffff; fill-opacity:100%"></polygon>
	<polygon points="20.67 41.7201 20.67 53.6775 20.1467 53.6775 
	 19.1001 53.6775 18.0534 53.6775 17.5301 53.6775 17.5301 42.1059 
	 18.5768 41.7201 19.1001 41.7201 20.1467 41.7201 20.67 41.7201 
	 20.67 41.7201 20.67 41.7201 "
	 style=" stroke:#000000; stroke-width:1; fill:#ffffff; fill-opacity:100%"></polygon>
	<polygon points="19.1449 42.0939 18.6067 42.5299 17.5301 42.5299 
	 17.5301 44.7095 18.0684 44.2738 18.6067 43.8377 19.1449 43.4017 
	 20.2215 42.5299 20.2215 42.0939 19.6832 42.0939 19.1449 42.0939 
	 19.1449 42.0939 19.1449 42.0939 "
	 style=" stroke:#000000; stroke-width:1; fill:#ababab; fill-opacity:100%"></polygon>
	<polygon points="20.67 47.3251 20.1317 47.7222 19.5935 48.1193 
	 18.5169 48.5161 17.9787 48.5161 17.9787 53.6774 18.5169 53.6774 
	 19.0552 53.6774 20.1317 53.6774 20.67 53.6774 20.67 47.3251 
	 20.67 47.3251 20.67 47.3251 "
	 style=" stroke:#000000; stroke-width:1; fill:#ababab; fill-opacity:100%"></polygon>
	<polygon points="17.9787 49.567 18.5394 49.567 19.1001 49.567 
	 19.6608 49.131 20.2215 49.131 20.2215 46.9514 20.2215 47.8233 
	 19.6608 47.8233 19.1001 48.2593 18.5394 48.2593 17.9787 48.695 
	 17.9787 49.567 17.9787 49.567 17.9787 49.567 "
	 style=" stroke:#000000; stroke-width:1; fill:#000000; fill-opacity:100%"></polygon>
      </g>
    </g>
  </symbol>
 </defs>
</svg>
