<?xml version="1.0"?>
<?metis version="3.0"?>
<!DOCTYPE svg  PUBLIC "-//W3C//DTD SVG August 1999//EN"
 "http://www.w3.org/Graphics/SVG/svg-19990812.dtd">

<svg width="200" height="200">
 <title>Symbol library: GEM_CAUSE.svg</title>
 <defs>
  <symbol id="oid0" xml:space="preserve" class="METIS_SYMBOL">
   <title>Cause</title>
    <rect x="4" y="4" width="121" height="96"
     style=" stroke:#9b9b9b; stroke-width:1; fill:#9b9b9b; fill-opacity:100%" class="TAG:shadow"></rect>
    <rect x="0" y="0" width="123" height="98"
     style=" stroke:#000000; stroke-width:1; fill:#ffffff; fill-opacity:100%" class="TAG:border"></rect>
    <rect x="4" y="4" width="115" height="90"
     style="stroke:none; fill:#ffffa5; fill-opacity:100%" class="TAG:canvas"></rect>
    <g>
      <desc>METIS_TEXT_GROUP</desc>
      <text  x="5" y="67.8"
       style=" stroke:#000000; stroke-width:1; font-family:sans-serif; font-size:16; text-align:center" class="TAG:text"
>text</text>
      <rect x="5" y="52" width="113" height="41"
       style=" stroke:#000000; stroke-width:1; fill:#ffffff; fill-opacity:0%"></rect>
    </g>
    <g>
      <polygon points="43.7659 37.8511 57.1705 8.15813 66.0411 19.2093 
       52.1438 48.3442 43.7659 37.8511 "
       style=" stroke:#000000; stroke-width:1; fill:#464646; fill-opacity:100%" class="TAG:Dominoes"></polygon>
      <polygon points="38.8378 15.5256 50.6653 23.5628 24.9405 46.6697 
       14 39.3024 38.8378 15.5256 "
       style=" stroke:#000000; stroke-width:1; fill:#464646; fill-opacity:100%" class="TAG:Dominoes"></polygon>
      <polygon points="50.5558 23.6124 52.1437 26.5768 26.5503 49.4604 
       15.7741 42.3163 14.0657 39.3396 24.9405 46.335 50.5558 23.6124 "
       style=" stroke:#000000; stroke-width:1; fill:#464646; fill-opacity:100%" class="TAG:Dominoes"></polygon>
      <polyline points="24.9733 46.3348 26.4189 49.3116"
       style=" stroke:#000000; stroke-width:1;" class="TAG:Dominoes"></polyline>
      <polygon points="57.3018 8.38139 60.193 8.67906 68.8665 19.5442 
       54.9363 48.7162 52.1766 48.2325 65.8439 19.156 57.3018 8.38139 "
       style=" stroke:#000000; stroke-width:1; fill:#464646; fill-opacity:100%" class="TAG:Dominoes"></polygon>
      <g>
	<polygon points="70.7783 6.14884 80.8469 10.8372 80.8469 48.0093 
	 70.7783 41.6465 70.7783 6.14884 "
	 style=" stroke:#000000; stroke-width:1; fill:#464646; fill-opacity:100%"></polygon>
	<polygon points="70.5749 6 74.5074 6 84.2709 11.3581 
	 84.2709 47.9721 80.8808 47.9721 80.8808 11.2093 70.5749 6 "
	 style=" stroke:#000000; stroke-width:1; fill:#464646; fill-opacity:100%"></polygon>
	<polygon points="80.8808 11.2093 83.9997 11.2093 80.8808 11.2093 "
	 style=" stroke:#000000; stroke-width:1; fill:#464646; fill-opacity:100%"></polygon>
      </g>
      <g>
	<polygon points="96.924 8.13954 106.682 12.8279 106.682 50 
	 96.924 43.6372 96.924 8.13954 "
	 style=" stroke:#000000; stroke-width:1; fill:#464646; fill-opacity:100%"></polygon>
	<polygon points="96.7269 7.9907 100.538 7.9907 110 13.3488 
	 110 49.9628 106.715 49.9628 106.715 13.2 96.7269 7.9907 "
	 style=" stroke:#000000; stroke-width:1; fill:#464646; fill-opacity:100%"></polygon>
	<polygon points="106.715 13.2 109.737 13.2 106.715 13.2 "
	 style=" stroke:#000000; stroke-width:1; fill:#464646; fill-opacity:100%"></polygon>
      </g>
      <ellipse  cx="38.345" cy="20.7984" rx="1.47844" ry="1.47743"
       style=" stroke:#dcdcdc; stroke-width:1; fill:#ffffff; fill-opacity:100%" class="TAG:Spots"></ellipse>
      <ellipse  cx="37.9014" cy="31.2355" rx="1.47844" ry="1.47743"
       style=" stroke:#dcdcdc; stroke-width:1; fill:#ffffff; fill-opacity:100%" class="TAG:Spots"></ellipse>
      <ellipse  cx="38.0493" cy="25.8216" rx="1.47844" ry="1.47743"
       style=" stroke:#dcdcdc; stroke-width:1; fill:#ffffff; fill-opacity:100%" class="TAG:Spots"></ellipse>
      <ellipse  cx="24.8419" cy="37.4309" rx="1.47844" ry="1.47743"
       style=" stroke:#dcdcdc; stroke-width:1; fill:#ffffff; fill-opacity:100%" class="TAG:Spots"></ellipse>
      <ellipse  cx="54.9528" cy="34.2495" rx="1.47844" ry="1.47743"
       style=" stroke:#dcdcdc; stroke-width:1; fill:#ffffff; fill-opacity:100%" class="TAG:Spots"></ellipse>
      <ellipse  cx="47.2156" cy="36.8727" rx="1.47844" ry="1.47743"
       style=" stroke:#dcdcdc; stroke-width:1; fill:#ffffff; fill-opacity:100%" class="TAG:Spots"></ellipse>
      <ellipse  cx="50.7145" cy="29.896" rx="1.47844" ry="1.47743"
       style=" stroke:#dcdcdc; stroke-width:1; fill:#ffffff; fill-opacity:100%" class="TAG:Spots"></ellipse>
      <ellipse  cx="51.7494" cy="41.3379" rx="1.47844" ry="1.47743"
       style=" stroke:#dcdcdc; stroke-width:1; fill:#ffffff; fill-opacity:100%" class="TAG:Spots"></ellipse>
      <ellipse  cx="58.0082" cy="26.9936" rx="1.47844" ry="1.47743"
       style=" stroke:#dcdcdc; stroke-width:1; fill:#ffffff; fill-opacity:100%" class="TAG:Spots"></ellipse>
      <ellipse  cx="75.5031" cy="17.5612" rx="1.47844" ry="1.47743"
       style=" stroke:#dcdcdc; stroke-width:1; fill:#ffffff; fill-opacity:100%" class="TAG:Spots"></ellipse>
      <ellipse  cx="77.8193" cy="40.2775" rx="1.47844" ry="1.47743"
       style=" stroke:#dcdcdc; stroke-width:1; fill:#ffffff; fill-opacity:100%" class="TAG:Spots"></ellipse>
      <ellipse  cx="73.4333" cy="29.7286" rx="1.47844" ry="1.47743"
       style=" stroke:#dcdcdc; stroke-width:1; fill:#ffffff; fill-opacity:100%" class="TAG:Spots"></ellipse>
      <ellipse  cx="104.382" cy="25.0403" rx="1.47844" ry="1.47743"
       style=" stroke:#dcdcdc; stroke-width:1; fill:#ffffff; fill-opacity:100%" class="TAG:Spots"></ellipse>
      <ellipse  cx="99.4046" cy="31.9053" rx="1.47844" ry="1.47743"
       style=" stroke:#dcdcdc; stroke-width:1; fill:#ffffff; fill-opacity:100%" class="TAG:Spots"></ellipse>
      <ellipse  cx="103.495" cy="43.9053" rx="1.47844" ry="1.47743"
       style=" stroke:#dcdcdc; stroke-width:1; fill:#ffffff; fill-opacity:100%" class="TAG:Spots"></ellipse>
      <ellipse  cx="100.137" cy="15.3937" rx="1.47844" ry="1.47743"
       style=" stroke:#dcdcdc; stroke-width:1; fill:#ffffff; fill-opacity:100%" class="TAG:Spots"></ellipse>
      <ellipse  cx="57.7675" cy="15.9925" rx="1.47844" ry="1.47743"
       style=" stroke:#dcdcdc; stroke-width:1; fill:#ffffff; fill-opacity:100%" class="TAG:Spots"></ellipse>
    </g>
  </symbol>
 </defs>
</svg>
