<?xml version="1.0"?>
<?metis version="3.4"?>
<?metisxml version="1.1"?>
<!DOCTYPE svg  PUBLIC "-//W3C//DTD SVG August 1999//EN"
 "http://www.w3.org/Graphics/SVG/svg-19990812.dtd">

<svg width="200" height="200">
 <title>Symbol library: gem_control.svg</title>
 <defs>
  <symbol id="oid0" xml:space="preserve" class="METIS_SYMBOL">
   <title>Control</title>
    <g>
      <polygon points="7.38462 234.667 199.385 234.667 199.385 277.333 
       155.077 277.333 243.692 320 332.308 277.333 288 277.333 
       288 234.667 480 234.667 480 7.11111 7.38462 7.11111 
       7.38462 234.667 7.38462 234.667 "
       style=" stroke:#000000; stroke-width:1; fill:#000000; fill-opacity:100%"       class="TAG:shadow"></polygon>
      <polygon points="0 227.556 192 227.556 192 270.222 
       147.692 270.222 236.308 312.889 324.923 270.222 280.615 270.222 
       280.615 227.556 472.615 227.556 472.615 0 0 0 
       0 227.556 0 227.556 "
       style=" stroke:#000000; stroke-width:1; fill:#ffff6e; fill-opacity:100%"       class="TAG:canvas"></polygon>
      <g>
	<desc>METIS_TEXT_GROUP</desc>
	<text  x="11.0769" y="37.2222"
	 style=" stroke:#000000; stroke-width:1; font-family:sans-serif; font-size:24;"
	 class="TAG:text">text</text>
	<rect x="11.0769" y="14.2222" width="446.769" height="199.111"
	 style=" stroke:#000000; stroke-width:1; fill:#000000; fill-opacity:0%"></rect>
      </g>
    </g>
  </symbol>
 </defs>
</svg>
