<?xml version="1.0"?>
<?metis version="3.0"?>
<?metisxml version="1.0"?>
<!DOCTYPE svg  PUBLIC "-//W3C//DTD SVG August 1999//EN"
 "http://www.w3.org/Graphics/SVG/svg-19990812.dtd">

<svg width="200" height="200">
 <title>Symbol library: gem_paragraph.svg</title>
 <defs>
  <symbol id="oid0" xml:space="preserve" class="METIS_SYMBOL">
   <title>Paragraph</title>
    <rect x="4" y="4" width="121" height="96"
     style=" stroke:#9b9b9b; stroke-width:1; fill:#9b9b9b; fill-opacity:100%" class="TAG:shadow"></rect>
    <rect x="0" y="0" width="123" height="98"
     style=" stroke:#000000; stroke-width:1; fill:#ffffff; fill-opacity:100%" class="TAG:border"></rect>
    <rect x="4" y="4" width="115" height="90"
     style="stroke:none; fill:#b9b9b9; fill-opacity:100%" class="TAG:canvas"></rect>
    <g>
      <desc>METIS_TEXT_GROUP</desc>
      <text  x="5" y="67.8"
       style=" stroke:#000000; stroke-width:1; font-family:sans-serif; font-size:16; text-align:center" class="TAG:text"
>text</text>
      <rect x="5" y="52" width="113" height="41"
       style=" stroke:#000000; stroke-width:1; fill:#ffffff; fill-opacity:0%"></rect>
    </g>
    <rect x="4" y="4" width="115" height="45"
     style="stroke:none; fill:#878787; fill-opacity:0%" class="TAG:grid"></rect>
    <g>
      <polygon points="54.6698 31.3568 59.8562 31.3272 59.8562 25.7419 
       68.6332 34.5188 59.8709 43.2958 59.8709 37.74 54.6698 37.74 
       54.6698 31.3568 54.6698 31.3568 "
       style=" stroke:#000000; stroke-width:1; fill:#ffff6e; fill-opacity:100%" class="TAG:Arrow"></polygon>
      <polyline points="72.7314 40.88 88.675 35.8392"
       style=" stroke:#000000; stroke-width:1;"></polyline>
      <polyline points="72.9469 43.2323 89.7522 37.8555"
       style=" stroke:#000000; stroke-width:1;"></polyline>
      <polygon points="69.5134 10.6355 103.839 10.6355 108.066 20.3809 
       104.619 30.1264 108.928 39.0317 106.342 47.4329 69.5134 47.4329 
       72.516 38.8637 69.3346 30.1264 73.3778 20.3809 69.5134 10.6355 69.5134 10.6355 "
       style=" stroke:#000000; stroke-width:1; fill:#ffffff; fill-opacity:100%" class="TAG:Report"></polygon>
      <polyline points="72.7314 39.0317 108.928 39.0317"
       style=" stroke:#000000; stroke-width:1;"></polyline>
      <polyline points="69.3919 30.1264 104.522 30.1264"
       style=" stroke:#000000; stroke-width:1;"></polyline>
      <polyline points="73.5394 20.3809 107.85 20.3809"
       style=" stroke:#000000; stroke-width:1;"></polyline>
      <polygon points="69.7151 10.8035 72.0851 15.8443 105.696 15.5082 
       103.326 10.8035 69.7151 10.8035 69.7151 10.8035 "
       style=" stroke:#ffffff; stroke-width:1; fill:#c8ffc8; fill-opacity:100%" class="TAG:ReportShading"></polygon>
      <polygon points="69.7151 30.2944 71.2233 34.9991 106.773 34.9991 
       104.311 30.2944 69.7151 30.2944 69.7151 30.2944 "
       style=" stroke:#ffffff; stroke-width:1; fill:#c8ffc8; fill-opacity:100%" class="TAG:ReportShading"></polygon>
      <polygon points="73.5933 20.549 107.635 20.717 105.911 25.4217 
       71.4387 25.2537 73.5933 20.549 73.5933 20.549 "
       style=" stroke:#ffffff; stroke-width:1; fill:#c8ffc8; fill-opacity:100%" class="TAG:ReportShading"></polygon>
      <polygon points="72.9469 39.1997 108.497 39.1997 107.204 44.0724 
       71.2233 43.9044 72.9469 39.1997 72.9469 39.1997 "
       style=" stroke:#ffffff; stroke-width:1; fill:#c8ffc8; fill-opacity:100%" class="TAG:ReportShading"></polygon>
      <ellipse  cx="73.2701" cy="12.9038" rx="0.754086" ry="0.588087"
       style=" stroke:#000000; stroke-width:1; fill:#ffffff; fill-opacity:100%"></ellipse>
      <ellipse  cx="74.6705" cy="17.1885" rx="0.754086" ry="0.588087"
       style=" stroke:#000000; stroke-width:1; fill:#ffffff; fill-opacity:100%"></ellipse>
      <ellipse  cx="74.4551" cy="22.9013" rx="0.754086" ry="0.588087"
       style=" stroke:#000000; stroke-width:1; fill:#ffffff; fill-opacity:100%"></ellipse>
      <ellipse  cx="72.7314" cy="26.9339" rx="0.754086" ry="0.588087"
       style=" stroke:#000000; stroke-width:1; fill:#ffffff; fill-opacity:100%"></ellipse>
      <ellipse  cx="72.516" cy="32.4787" rx="0.754086" ry="0.588087"
       style=" stroke:#000000; stroke-width:1; fill:#ffffff; fill-opacity:100%"></ellipse>
      <ellipse  cx="73.5933" cy="35.8392" rx="0.754086" ry="0.588087"
       style=" stroke:#000000; stroke-width:1; fill:#ffffff; fill-opacity:100%"></ellipse>
      <ellipse  cx="74.0242" cy="41.384" rx="0.754086" ry="0.588087"
       style=" stroke:#000000; stroke-width:1; fill:#ffffff; fill-opacity:100%"></ellipse>
      <ellipse  cx="72.516" cy="45.0806" rx="0.754086" ry="0.588087"
       style=" stroke:#000000; stroke-width:1; fill:#ffffff; fill-opacity:100%"></ellipse>
      <ellipse  cx="102.087" cy="12.6938" rx="0.754086" ry="0.588087"
       style=" stroke:#000000; stroke-width:1; fill:#ffffff; fill-opacity:100%"></ellipse>
      <ellipse  cx="103.918" cy="17.1465" rx="0.754086" ry="0.588087"
       style=" stroke:#000000; stroke-width:1; fill:#ffffff; fill-opacity:100%"></ellipse>
      <ellipse  cx="104.349" cy="45.7107" rx="0.754086" ry="0.588087"
       style=" stroke:#000000; stroke-width:1; fill:#ffffff; fill-opacity:100%"></ellipse>
      <ellipse  cx="105.642" cy="42.0141" rx="0.754086" ry="0.588087"
       style=" stroke:#000000; stroke-width:1; fill:#ffffff; fill-opacity:100%"></ellipse>
      <ellipse  cx="104.996" cy="36.4693" rx="0.754086" ry="0.588087"
       style=" stroke:#000000; stroke-width:1; fill:#ffffff; fill-opacity:100%"></ellipse>
      <ellipse  cx="103.057" cy="32.9408" rx="0.754086" ry="0.588087"
       style=" stroke:#000000; stroke-width:1; fill:#ffffff; fill-opacity:100%"></ellipse>
      <ellipse  cx="102.841" cy="27.9" rx="0.754086" ry="0.588087"
       style=" stroke:#000000; stroke-width:1; fill:#ffffff; fill-opacity:100%"></ellipse>
      <ellipse  cx="104.134" cy="23.1954" rx="0.754086" ry="0.588087"
       style=" stroke:#000000; stroke-width:1; fill:#ffffff; fill-opacity:100%"></ellipse>
      <rect x="14.764" y="20.5786" width="37.5403" height="28.4516"
       style=" stroke:#000000; stroke-width:1; fill:#ffffff; fill-opacity:100%" class="TAG:Rectangle"></rect>
      <g>
	<polyline points="24.0057 23.4414 24.0057 34.9053"
	 style=" stroke:#000000; stroke-width:1;"></polyline>
	<polyline points="26.1931 23.4539 26.1931 34.9178"
	 style=" stroke:#000000; stroke-width:1;"></polyline>
	<path d="M 24.011 23.4042 C 18.8314 23.4229 17.1848 25.0487 
	 17.1848 26.6745 C 17.1848 28.1695 18.9088 29.9804 24.0179 29.9813 Z"
	 style=" stroke:#000000; stroke-width:1; fill:#ffffff; fill-opacity:100%"></path>
      </g>
      <polyline points="31.5304 24.9439 47.4886 24.9439"
       style=" stroke:#000000; stroke-width:1;" class="TAG:ParagraphText"></polyline>
      <polyline points="31.5304 29.7314 47.4886 29.7314"
       style=" stroke:#000000; stroke-width:1;" class="TAG:ParagraphText"></polyline>
      <polyline points="31.5304 34.5188 47.4886 34.5188"
       style=" stroke:#000000; stroke-width:1;" class="TAG:ParagraphText"></polyline>
      <polyline points="19.1628 39.3063 47.4886 39.3063"
       style=" stroke:#000000; stroke-width:1;" class="TAG:ParagraphText"></polyline>
      <polyline points="19.9607 43.6948 47.8875 43.6948"
       style=" stroke:#000000; stroke-width:1;" class="TAG:ParagraphText"></polyline>
    </g>
  </symbol>
 </defs>
</svg>
