<?xml version="1.0"?>
<?metis version="3.0"?>
<!DOCTYPE svg  PUBLIC "-//W3C//DTD SVG August 1999//EN"
 "http://www.w3.org/Graphics/SVG/svg-19990812.dtd">

<svg width="200" height="200">
 <title>Symbol library: GEM_FORMAL_COMPETENCE.svg</title>
 <defs>
  <symbol id="oid0" xml:space="preserve" class="METIS_SYMBOL">
   <title>Formal Competence</title>
    <g>
      <rect x="4" y="4" width="121" height="96"
       style=" stroke:#9b9b9b; stroke-width:1; fill:#9b9b9b; fill-opacity:100%" class="TAG:shadow"></rect>
      <rect x="0" y="-8.88178e-016" width="123" height="98"
       style=" stroke:#000000; stroke-width:1; fill:#ffffff; fill-opacity:100%" class="TAG:border"></rect>
      <rect x="4" y="4" width="115" height="90"
       style="stroke:none; fill:#96a5ff; fill-opacity:100%" class="TAG:canvas"></rect>
      <g>
	<desc>METIS_TEXT_GROUP</desc>
	<text  x="5" y="67.8"
	 style=" stroke:#000000; stroke-width:1; font-family:sans-serif; font-size:16; text-align:center" class="TAG:text"
>text</text>
	<rect x="5" y="52" width="113" height="41"
	 style=" stroke:#000000; stroke-width:1; fill:#ffffff; fill-opacity:0%"></rect>
      </g>
    </g>
    <g>
      <polygon points="36.2012 22.8027 36.2012 32.441 44.1118 35.6537 
       53.7804 37.4061 63.1559 37.6982 73.1175 37.114 81.6141 35.3616 
       88.3528 32.441 88.3528 22.8027 36.2012 22.8027 "
       style=" stroke:#000000; stroke-width:1; fill:#000000; fill-opacity:100%" class="TAG:GraduationCap"></polygon>
      <polygon points="103.295 24.5551 101.83 44.9998 108.862 46.7522 
       105.346 23.6789 103.295 24.5551 "
       style=" stroke:#000000; stroke-width:1; fill:#000000; fill-opacity:100%" class="TAG:GraduationCap"></polygon>
      <path d="M 105.715 17.2534 C 107.829 19.0374 107.526 20.0249 
       107.531 21.2035 C 107.537 22.4533 107.289 23.8289 106.321 24.3635 
       C 105.472 24.8324 103.808 25.4313 102.89 24.5611 C 100.951 22.7206 
       101.094 19.353 103.092 17.4509 C 103.092 17.4509 103.092 17.4509 
       103.092 17.4509 Z"
       style=" stroke:#000000; stroke-width:1; fill:#000000; fill-opacity:100%" class="TAG:GraduationCap"></path>
      <polygon points="52.6084 7.90723 108.569 15.7931 73.9964 29.2282 
       14.2272 19.882 52.6084 7.90723 "
       style=" stroke:#000000; stroke-width:1; fill:#000000; fill-opacity:100%" class="TAG:GraduationCap"></polygon>
      <polyline points="36.1046 23.3672 73.923 29.0972 87.9617 23.6537"
       style=" stroke:#9b9b9b; stroke-width:1;"></polyline>
    </g>
  </symbol>
 </defs>
</svg>
