<?xml version="1.0"?>
<?metis version="3.0"?>
<!DOCTYPE svg  PUBLIC "-//W3C//DTD SVG August 1999//EN"
 "http://www.w3.org/Graphics/SVG/svg-19990812.dtd">

<svg width="200" height="200">
 <title>Symbol library: GEM_TRAINING_PROGRAM.svg</title>
 <defs>
  <symbol id="oid0" xml:space="preserve" class="METIS_SYMBOL">
   <title>Course</title>
    <g>
      <polygon points="43.4951 92.4444 43.4951 92.4444 31.068 106.667 
       12.4272 99.5556 0 71.1111 12.4272 28.4444 37.2816 7.11111 
       49.7087 0 86.9903 0 105.631 7.11111 121.165 35.5556 
       127.379 64 130.485 99.5556 118.058 103.111 105.631 99.5556 
       99.4175 92.4444 105.631 64 99.4175 35.5556 74.5631 21.3333 
       49.7087 28.4444 37.2816 42.6667 37.2816 60.4444 31.068 56.8889 
       24.8544 67.5556 31.068 78.2222 37.2816 78.2222 43.4951 92.4444 43.4951 92.4444 "
       style=" stroke:#000000; stroke-width:1; fill:#ff6eff; fill-opacity:100%" class="TAG:canvas"></polygon>
      <polyline points="161.553 256 161.553 256 161.553 28.4444 
       310.68 28.4444"
       style=" stroke:#000000; stroke-width:1;" class="TAG:icon"></polyline>
      <polygon points="74.5631 192 37.2816 128 43.4951 113.778 
       12.4272 128 0 156.444 0 213.333 12.4272 256 
       136.699 256 130.485 227.556 136.699 199.111 167.767 213.333 
       198.835 227.556 229.903 220.444 217.476 199.111 217.476 184.889 
       198.835 184.889 155.34 163.556 130.485 128 99.4175 113.778 
       105.631 128 74.5631 192 "
       style=" stroke:#000000; stroke-width:1; fill:#ff6eff; fill-opacity:100%" class="TAG:icon"></polygon>
      <polyline points="43.4951 113.778 43.4951 113.778 55.9223 120.889 
       86.9903 120.889 99.4175 113.778 99.4175 92.4444 86.9903 99.5556 
       62.1359 99.5556 43.4951 92.4444 43.4951 113.778"
       style=" stroke:#000000; stroke-width:1;" class="TAG:icon"></polyline>
      <polyline points="43.4951 92.4444 37.2816 78.2222 31.068 78.2222 
       24.8544 67.5556 31.068 56.8889 37.2816 60.4444 37.2816 42.6667 
       49.7087 28.4444 74.5631 21.3333 99.4175 35.5556 105.631 64 
       99.4175 92.4444"
       style=" stroke:#000000; stroke-width:1;" class="TAG:icon"></polyline>
      <polyline points="217.476 199.111 217.476 199.111 223.689 184.889 
       245.437 181.333 254.757 188.444 251.65 209.778 226.796 213.333"
       style=" stroke:#000000; stroke-width:1;" class="TAG:icon"></polyline>
      <polyline points="250.097 209.778 250.097 209.778 239.223 211.556 
       237.67 206.222"
       style=" stroke:#000000; stroke-width:1;" class="TAG:icon"></polyline>
      <polyline points="250.097 202.667 250.097 202.667 236.117 206.222 
       234.563 200.889"
       style=" stroke:#000000; stroke-width:1;" class="TAG:icon"></polyline>
      <polyline points="251.65 193.778 246.99 197.333 233.01 200.889 
       231.456 195.556"
       style=" stroke:#000000; stroke-width:1;" class="TAG:icon"></polyline>
      <polyline points="245.437 181.333 245.437 181.333 246.99 184.889 
       228.35 190.222 226.796 193.778"
       style=" stroke:#000000; stroke-width:1;" class="TAG:icon"></polyline>
      <polygon points="242.33 186.667 246.99 184.889 271.845 124.444 
       271.845 120.889 268.738 122.667 242.33 186.667 "
       style=" stroke:#000000; stroke-width:1; fill:#ffffff; fill-opacity:100%" class="TAG:icon"></polygon>
      <polyline points="248.544 188.444 243.883 192 229.903 195.556 
       228.35 190.222"
       style=" stroke:#000000; stroke-width:1;" class="TAG:icon"></polyline>
      <g>
	<desc>METIS_TEXT_GROUP</desc>
	<text  x="167.767" y="47.8"
	 style=" stroke:#000000; stroke-width:1; font-family:sans-serif; font-weight:bold; font-size:16;" class="TAG:text"
></text>
	<rect x="167.767" y="32" width="152.233" height="85.3333"
	 style=" stroke:#000000; stroke-width:1; fill:#000000; fill-opacity:0%"></rect>
      </g>
      <polygon points="74.5631 56.8889 74.5631 56.8889 80.7767 53.3333 
       86.9903 53.3333 93.2039 56.8889 86.9903 60.4444 80.7767 60.4444 74.5631 56.8889 "
       style=" stroke:#000000; stroke-width:1; fill:#ffffff; fill-opacity:100%" class="TAG:icon"></polygon>
      <polygon points="46.6019 56.8889 46.6019 56.8889 52.8155 53.3333 
       59.0291 53.3333 65.2427 56.8889 59.0291 60.4444 52.8155 60.4444 46.6019 56.8889 "
       style=" stroke:#000000; stroke-width:1; fill:#ffffff; fill-opacity:100%" class="TAG:icon"></polygon>
      <polygon points="71.4563 60.4444 71.4563 60.4444 68.3495 60.4444 
       65.2427 71.1111 69.9029 74.6667 74.5631 71.1111 71.4563 60.4444 "
       style=" stroke:#000000; stroke-width:1; fill:#ffffff; fill-opacity:100%" class="TAG:icon"></polygon>
      <polygon points="57.4757 78.2222 65.2427 87.1111 74.5631 87.1111 
       82.3301 78.2222 69.9029 80 57.4757 78.2222 "
       style=" stroke:#000000; stroke-width:1; fill:#ffffff; fill-opacity:100%" class="TAG:icon"></polygon>
    </g>
  </symbol>
 </defs>
</svg>
