<?xml version="1.0"?>
<?metis version="3.0"?>
<!DOCTYPE svg  PUBLIC "-//W3C//DTD SVG August 1999//EN"
 "http://www.w3.org/Graphics/SVG/svg-19990812.dtd">

<svg width="200" height="200">
 <title>Symbol library: GEM_DOC_ON_LINE.svg</title>
 <defs>
  <symbol id="oid0" xml:space="preserve" class="METIS_SYMBOL">
   <title>Online Document</title>
    <g>
      <rect x="4" y="4" width="121" height="96"
       style=" stroke:#9b9b9b; stroke-width:1; fill:#9b9b9b; fill-opacity:100%" class="TAG:shadow"></rect>
      <rect x="0" y="-8.88178e-016" width="123" height="98"
       style=" stroke:#000000; stroke-width:1; fill:#ffffff; fill-opacity:100%" class="TAG:border"></rect>
      <rect x="4" y="4" width="115" height="90"
       style="stroke:none; fill:#b9b9b9; fill-opacity:100%" class="TAG:canvas"></rect>
      <g>
	<desc>METIS_TEXT_GROUP</desc>
	<text  x="5" y="67.8"
	 style=" stroke:#000000; stroke-width:1; font-family:sans-serif; font-size:16; text-align:center" class="TAG:text"
>text</text>
	<rect x="5" y="52" width="113" height="41"
	 style=" stroke:#000000; stroke-width:1; fill:#ffffff; fill-opacity:0%"></rect>
      </g>
    </g>
    <g>
      <polygon points="55.8582 6.06282 86 6.06282 86 49.0332 
       50.9601 49.0332 50.9601 10.963 55.8582 6.06282 "
       style=" stroke:#878787; stroke-width:1; fill:#ffffff; fill-opacity:100%" class="TAG:Paper"></polygon>
      <polygon points="55.6907 6 55.6907 11.0258 51.0019 11.0258 
       55.5232 6 55.6907 6 "
       style=" stroke:#878787; stroke-width:1; fill:#dcdcdc; fill-opacity:100%" class="TAG:FoldedCorner"></polygon>
      <polyline points="57.5785 15.3862 80.9391 15.3862"
       style=" stroke:#dcdcdc; stroke-width:1;" class="TAG:TextLines"></polyline>
      <polyline points="57.4116 19.8934 80.7722 19.8934"
       style=" stroke:#dcdcdc; stroke-width:1;" class="TAG:TextLines"></polyline>
      <polyline points="57.9121 25.4022 81.2727 25.4022"
       style=" stroke:#dcdcdc; stroke-width:1;" class="TAG:TextLines"></polyline>
      <polyline points="57.4116 31.2447 80.7722 31.2447"
       style=" stroke:#dcdcdc; stroke-width:1;" class="TAG:TextLines"></polyline>
      <polyline points="58.2459 35.752 81.6065 35.752"
       style=" stroke:#dcdcdc; stroke-width:1;" class="TAG:TextLines"></polyline>
      <polyline points="57.7452 41.5945 81.1059 41.5945"
       style=" stroke:#dcdcdc; stroke-width:1;" class="TAG:TextLines"></polyline>
      <polygon points="38 7.03959 68.925 31.9125 57.5785 32.4133 
       74.487 52 47.3998 28.9077 58.2459 29.0746 38 7.03959 "
       style=" stroke:#6e6e00; stroke-width:1; fill:#ffff00; fill-opacity:100%" class="TAG:LightningBolt"></polygon>
    </g>
  </symbol>
 </defs>
</svg>
