<?xml version="1.0"?>
<?metis version="3.0"?>
<!DOCTYPE svg  PUBLIC "-//W3C//DTD SVG August 1999//EN"
 "http://www.w3.org/Graphics/SVG/svg-19990812.dtd">

<svg width="200" height="200">
 <title>Symbol library: GEM_NETWORK.svg</title>
 <defs>
  <symbol id="oid0" xml:space="preserve" class="METIS_SYMBOL">
   <title>Network</title>
    <g>
      <rect x="4" y="4" width="121" height="96"
       style=" stroke:#9b9b9b; stroke-width:1; fill:#9b9b9b; fill-opacity:100%" class="TAG:shadow"></rect>
      <rect x="0" y="0" width="123" height="98"
       style=" stroke:#000000; stroke-width:1; fill:#ffffff; fill-opacity:100%" class="TAG:border"></rect>
      <rect x="4" y="4" width="115" height="90"
       style="stroke:none; fill:#96a5ff; fill-opacity:100%" class="TAG:canvas"></rect>
      <g>
	<desc>METIS_TEXT_GROUP</desc>
	<text  x="5" y="67.8"
	 style=" stroke:#000000; stroke-width:1; font-family:sans-serif; font-size:16; text-align:center" class="TAG:text"
>text</text>
	<rect x="5" y="52" width="113" height="41"
	 style=" stroke:#000000; stroke-width:1; fill:#ffffff; fill-opacity:0%"></rect>
      </g>
    </g>
    <g>
      <ellipse  cx="51.4213" cy="30.4861" rx="2.08796" ry="1.70833"
       style=" stroke:#000000; stroke-width:1; fill:#ffb367; fill-opacity:100%" class="TAG:skin2"></ellipse>
      <ellipse  cx="64.1389" cy="10.5556" rx="3.03704" ry="3.7963"
       style=" stroke:#464646; stroke-width:1; fill:#ffb367; fill-opacity:100%" class="TAG:skin2"></ellipse>
      <ellipse  cx="49.5232" cy="30.4861" rx="2.08796" ry="1.70833"
       style=" stroke:#000000; stroke-width:1; fill:#ffe2c5; fill-opacity:100%" class="TAG:skin1"></ellipse>
      <ellipse  cx="24.088" cy="30.4861" rx="2.08796" ry="1.70833"
       style=" stroke:#000000; stroke-width:1; fill:#ffe2c5; fill-opacity:100%" class="TAG:skin1"></ellipse>
      <ellipse  cx="36.8056" cy="9.7963" rx="3.03704" ry="3.7963"
       style=" stroke:#464646; stroke-width:1; fill:#ffe2c5; fill-opacity:100%" class="TAG:skin1"></ellipse>
      <polygon points="61.4815 37.1296 61.8611 47 64.1389 47 
       64.1389 37.1296 64.1389 47 66.4167 47 66.7963 37.1296 61.4815 37.1296 "
       style=" stroke:#000000; stroke-width:1; fill:#ffb367; fill-opacity:100%" class="TAG:skin2"></polygon>
      <ellipse  cx="104.19" cy="30.4861" rx="2.08796" ry="1.70833"
       style=" stroke:#000000; stroke-width:1; fill:#a85400; fill-opacity:100%" class="TAG:skin3"></ellipse>
      <ellipse  cx="78.7546" cy="30.4861" rx="2.08796" ry="1.70833"
       style=" stroke:#000000; stroke-width:1; fill:#a85400; fill-opacity:100%" class="TAG:skin3"></ellipse>
      <ellipse  cx="91.4722" cy="9.7963" rx="3.03704" ry="3.7963"
       style=" stroke:#464646; stroke-width:1; fill:#a85400; fill-opacity:100%" class="TAG:skin3"></ellipse>
      <polygon points="91.0926 14.3519 91.4722 13.9722 91.8519 14.3519 
       91.8519 14.7315 91.4722 15.1111 91.0926 15.1111 90.3334 18.5278 
       91.4722 21.9444 92.6111 18.5278 91.8519 15.1111 91.4722 15.1111 
       91.0926 14.7315 91.0926 14.3519 "
       style=" stroke:#000000; stroke-width:1; fill:#a50000; fill-opacity:100%"></polygon>
      <polygon points="85.3982 15.1111 89.5741 14.3519 91.4722 20.8056 
       93.3704 14.3519 97.5463 15.1111 100.583 24.2222 103.62 28.7778 
       102.102 31.8148 97.5463 25.7407 96.0278 21.1852 96.0278 33.3333 
       88.4352 33.3333 94.5093 33.3333 94.5093 47 91.4722 47 
       91.4722 33.3333 91.4722 47 88.4352 47 88.4352 33.3333 
       86.9167 33.3333 86.9167 21.1852 85.3982 25.7407 80.8426 31.8148 
       79.3241 28.7778 82.3611 24.2222 85.3982 15.1111 "
       style=" stroke:#000000; stroke-width:1; fill:#00a500; fill-opacity:100%" class="TAG:body3"></polygon>
      <polygon points="36.4259 14.3519 36.8056 13.9722 37.1852 14.3519 
       37.1852 14.7315 36.8056 15.1111 36.4259 15.1111 35.6667 18.5278 
       36.8056 21.9444 37.9444 18.5278 37.1852 15.1111 36.8056 15.1111 
       36.4259 14.7315 36.4259 14.3519 "
       style=" stroke:#000000; stroke-width:1; fill:#a5ffa5; fill-opacity:100%"></polygon>
      <polygon points="30.7315 15.1111 34.9074 14.3519 36.8056 20.8056 
       38.7037 14.3519 42.8796 15.1111 45.9167 24.2222 48.9537 28.7778 
       47.4352 31.8148 42.8796 25.7407 41.3611 21.1852 41.3611 33.3333 
       33.7685 33.3333 39.8426 33.3333 39.8426 47 36.8056 47 
       36.8056 33.3333 36.8056 47 33.7685 47 33.7685 33.3333 
       32.25 33.3333 32.25 21.1852 30.7315 25.7407 26.1759 31.8148 
       24.6574 28.7778 27.6944 24.2222 30.7315 15.1111 "
       style=" stroke:#000000; stroke-width:1; fill:#00006e; fill-opacity:100%" class="TAG:body1"></polygon>
      <ellipse  cx="76.8565" cy="30.4861" rx="2.08796" ry="1.70833"
       style=" stroke:#000000; stroke-width:1; fill:#ffb367; fill-opacity:100%" class="TAG:skin2"></ellipse>
      <polygon points="58.4445 15.8704 62.2408 15.1111 64.1389 18.9074 
       66.037 15.1111 70.213 15.8704 73.25 24.2222 76.2871 28.7778 
       74.7685 31.8148 70.5926 25.7407 68.6945 21.1852 66.7963 25.7407 
       69.8333 33.3333 59.963 33.3333 68.3148 33.3333 68.3148 37.1296 
       59.963 37.1296 59.963 33.3333 58.4445 33.3333 61.4815 25.7407 
       59.5833 21.1852 57.6852 25.7407 53.5093 31.8148 51.9907 28.7778 
       55.0278 24.2222 58.4445 15.8704 "
       style=" stroke:#000000; stroke-width:1; fill:#a50000; fill-opacity:100%" class="TAG:body2"></polygon>
    </g>
  </symbol>
 </defs>
</svg>
