<?xml version="1.0"?>
<?metis version="3.0"?>
<!DOCTYPE svg  PUBLIC "-//W3C//DTD SVG August 1999//EN"
 "http://www.w3.org/Graphics/SVG/svg-19990812.dtd">

<svg width="200" height="200">
 <title>Symbol library: gem_resource.svg</title>
 <defs>
  <symbol id="oid0" xml:space="preserve" class="METIS_SYMBOL">
   <title>Resource</title>
    <rect x="4" y="4" width="121" height="96"
     style=" stroke:#9b9b9b; stroke-width:1; fill:#9b9b9b; fill-opacity:100%" class="TAG:shadow"></rect>
    <rect x="0" y="0" width="123" height="98"
     style=" stroke:#000000; stroke-width:1; fill:#ffffff; fill-opacity:100%" class="TAG:border"></rect>
    <rect x="4" y="4" width="115" height="90"
     style="stroke:none; fill:#96a5ff; fill-opacity:100%" class="TAG:canvas"></rect>
    <g>
      <desc>METIS_TEXT_GROUP</desc>
      <text  x="5" y="67.8"
       style=" stroke:#000000; stroke-width:1; font-family:sans-serif; font-size:16; text-align:center" class="TAG:text"
>text</text>
      <rect x="5" y="52" width="113" height="41"
       style=" stroke:#000000; stroke-width:1; fill:#ffffff; fill-opacity:0%"></rect>
    </g>
    <g>
      <ellipse  cx="63" cy="10.2496" rx="4.46668" ry="4.24964"
       style=" stroke:#4b4bff; stroke-width:1; fill:#ffffff; fill-opacity:100%" class="TAG:Male"></ellipse>
      <polygon points="72 17.2901 72 30.3561 68.9333 31.8783 
       68.9333 19.0661 67.3333 19.0661 67.3333 48.75 63.8667 48.75 
       63.8667 32.2589 62.1333 32.2589 62.1333 48.75 58.6667 48.75 
       58.6667 19.0661 57.0667 19.0661 57.0667 31.7515 54 30.1024 
       54 17.4169 55.7333 15.7678 70.4 15.7678 72 17.2901 
       72 17.2901 72 17.2901 "
       style=" stroke:#4b4bff; stroke-width:1; fill:#ffffff; fill-opacity:100%" class="TAG:Male"></polygon>
    </g>
    <g>
      <g>
	<polygon points="100.46 24.25 100.46 15.5519 102.341 13.5054 
	 104.222 13.5054 105.28 14.324 107.514 14.324 108.22 13.5054 
	 108.22 9.9238 107.044 9.20749 104.34 9.20749 103.869 10.0261 
	 103.046 10.0261 101.047 8.28652 95.7557 8.28652 92.5809 11.0494 
	 89.0533 16.7799 88.9358 18.7241 91.0523 17.3939 94.6974 13.9147 
	 95.7557 13.9147 96.5788 15.0403 96.5788 24.4547 100.46 24.25 
	 100.46 24.25 100.46 24.25 "
	 style=" stroke:#000000; stroke-width:1; fill:#dcdcdc; fill-opacity:100%"></polygon>
	<polygon points="96.5919 24.2699 96.0366 24.8498 95.8145 41.4728 
	 95.3703 45.8218 102.033 45.8218 101.256 41.3762 101.034 24.7532 
	 100.478 24.2699 96.5919 24.2699 96.5919 24.2699 96.5919 24.2699 "
	 style=" stroke:#000000; stroke-width:1; fill:#a50000; fill-opacity:100%"></polygon>
      </g>
      <g>
	<polygon points="113.055 18.9544 110.557 18.4108 87.5688 34.8284 
	 80.1976 34.8284 76.0748 40.0472 76.3247 41.4606 78.6984 41.4606 
	 81.0722 40.3734 81.1971 38.7426 81.1971 37.3292 82.0716 37.003 
	 82.0716 40.2647 82.8212 41.7869 80.9473 42.7654 76.0748 42.7654 
	 76.0748 44.9398 82.5714 45.4835 86.8192 44.8312 89.3179 39.6123 
	 113.805 22.6511 114.055 19.7155 113.055 18.9544 113.055 18.9544 113.055 18.9544 "
	 style=" stroke:#000000; stroke-width:1; fill:#9b9b9b; fill-opacity:100%"></polygon>
	<rect x="83.6958" y="36.568" width="2.62362" height="3.15306" rx="10" ry="10"
	 style=" stroke:#000000; stroke-width:1; fill:#464646; fill-opacity:100%"></rect>
	<polyline points="83.6958 37.764 86.3195 37.764"
	 style=" stroke:#000000; stroke-width:1;"></polyline>
	<polyline points="83.6958 38.7426 86.3195 38.7426"
	 style=" stroke:#000000; stroke-width:1;"></polyline>
	<ellipse  cx="111.244" cy="21.0745" rx="0.937008" ry="1.14163"
	 style=" stroke:#000000; stroke-width:1; fill:#ffffff; fill-opacity:100%"></ellipse>
	<polygon points="88.5682 35.807 109.682 21.3464 110.432 23.3034 
	 89.5677 37.764 88.5682 35.807 88.5682 35.807 88.5682 35.807 "
	 style=" stroke:#000000; stroke-width:1; fill:#9b9b9b; fill-opacity:100%"></polygon>
      </g>
      <g>
	<polygon points="78.5686 13.5916 75.52 16.2447 75.52 18.4734 
	 89.0559 28.9796 90.6411 28.7674 90.6411 29.9347 92.2264 30.1469 
	 93.6897 32.9062 98.8115 27.8122 95.275 27.0694 95.275 25.5836 
	 93.4459 25.4775 93.6897 24.2041 80.6417 13.5916 78.5686 13.5916 
	 78.5686 13.5916 78.5686 13.5916 "
	 style=" stroke:#000000; stroke-width:1; fill:#006e00; fill-opacity:100%"></polygon>
	<polygon points="96.9822 29.7225 95.6408 31.102 108.933 41.7144 
	 109.177 43.4124 114.664 45.2165 115.274 44.3676 111.86 40.547 
	 110.396 40.3348 96.9822 29.7225 96.9822 29.7225 96.9822 29.7225 "
	 style=" stroke:#000000; stroke-width:1; fill:#dcdcdc; fill-opacity:100%"></polygon>
	<polygon points="80.032 16.0325 78.3248 17.5182 95.0311 30.3593 
	 96.3726 29.0857 80.032 16.0325 80.032 16.0325 80.032 16.0325 "
	 style=" stroke:#000000; stroke-width:1; fill:#006e00; fill-opacity:100%"></polygon>
      </g>
    </g>
    <g>
      <polygon points="18.3482 16.5965 18.3482 16.5965 22.0718 30.7818 
       40.69 23.6892 36.9664 9.50387 18.3482 16.5965 18.3482 16.5965 "
       style=" stroke:#000000; stroke-width:1; fill:#696969; fill-opacity:100%" class="TAG:right"></polygon>
      <polygon points="14.6246 30.7819 14.6246 37.8745 29.5191 37.8745 
       29.5191 30.7819 33.2428 16.5965 25.7955 16.5965 22.0718 30.7819 
       18.3482 16.5965 10.9009 16.5965 14.6246 30.7819 14.6246 30.7819 "
       style=" stroke:#000000; stroke-width:1; fill:#b9b9b9; fill-opacity:100%" class="TAG:front"></polygon>
      <polygon points="10.9009 16.5965 10.9009 16.5965 29.5191 9.50387 
       36.9664 9.50387 18.3482 16.5965 10.9009 16.5965 10.9009 16.5965 "
       style=" stroke:#000000; stroke-width:1; fill:#dcdcdc; fill-opacity:100%" class="TAG:top"></polygon>
      <polygon points="25.7955 16.5965 25.7955 16.5965 44.4137 9.50387 
       51.861 9.50387 33.2428 16.5965 25.7955 16.5965 25.7955 16.5965 "
       style=" stroke:#000000; stroke-width:1; fill:#dcdcdc; fill-opacity:100%" class="TAG:top"></polygon>
      <polygon points="43.6282 37.2649 24.5445 44.5515 29.5191 37.8746 
       29.5191 30.7818 33.2428 16.5965 51.861 9.50387 48.1373 23.6892 
       48.1373 30.8095 48.05 32.1118 47.5555 33.5247 46.8573 34.7991 
       45.9554 35.8521 44.9082 36.6001 43.6282 37.2649 43.6282 37.2649 "
       style=" stroke:#000000; stroke-width:1; fill:#696969; fill-opacity:100%" class="TAG:right"></polygon>
      <ellipse  cx="22.0718" cy="37.8745" rx="7.44728" ry="7.09267"
       style=" stroke:#000000; stroke-width:1; fill:#b9b9b9; fill-opacity:100%" class="TAG:front"></ellipse>
      <polygon points="26.2609 10.3905 26.2609 10.3905 26.2609 11.7203 
       28.7046 11.7203 28.7046 10.3905 26.2609 10.3905 26.2609 10.3905 "
       style=" stroke:#000000; stroke-width:1; fill:#b9b9b9; fill-opacity:100%" class="TAG:front"></polygon>
      <polygon points="26.2609 10.3905 28.7046 9.50387 31.0318 9.50387 
       28.7046 10.3905 26.2609 10.3905 26.2609 10.3905 "
       style=" stroke:#000000; stroke-width:1; fill:#dcdcdc; fill-opacity:100%" class="TAG:top"></polygon>
      <polygon points="31.0318 9.50387 28.7046 10.3905 28.7046 11.7203 
       31.0318 10.8338 31.0318 9.50387 31.0318 9.50387 "
       style=" stroke:#000000; stroke-width:1; fill:#696969; fill-opacity:100%" class="TAG:right"></polygon>
      <polygon points="27.6573 37.8745 27.6094 37.1802 27.4669 36.4978 
       27.2322 35.8388 26.9089 35.2147 26.5031 34.6361 26.0213 34.113 
       25.4721 33.6542 24.8646 33.2677 24.2093 32.9599 23.5174 32.7362 
       22.8008 32.6005 22.0718 32.555 21.3427 32.6005 20.6262 32.7362 
       19.9344 32.9599 10.93 36.3507 14.8863 46.297 24.2093 42.789 
       24.8646 42.4813 25.4721 42.0947 26.0213 41.6359 26.5031 41.1128 
       26.9089 40.5342 27.2322 39.9102 27.4669 39.2512 27.6094 38.5688 
       27.6573 37.8745 27.6573 37.8745 "
       style=" stroke:#000000; stroke-width:1; fill:#696969; fill-opacity:100%" class="TAG:right"></polygon>
      <ellipse  cx="12.7627" cy="41.4208" rx="5.58546" ry="5.31949"
       style=" stroke:#000000; stroke-width:1; fill:#b9b9b9; fill-opacity:100%" class="TAG:front"></ellipse>
      <polygon points="22.4209 11.7203 22.4209 11.7203 22.4209 13.0502 
       24.8646 13.0502 24.8646 11.7203 22.4209 11.7203 22.4209 11.7203 "
       style=" stroke:#000000; stroke-width:1; fill:#b9b9b9; fill-opacity:100%" class="TAG:front"></polygon>
      <polygon points="22.4209 11.7203 24.8646 10.8338 27.1918 10.8338 
       24.8646 11.7203 22.4209 11.7203 22.4209 11.7203 "
       style=" stroke:#000000; stroke-width:1; fill:#dcdcdc; fill-opacity:100%" class="TAG:top"></polygon>
      <polygon points="27.1918 10.8338 24.8646 11.7203 24.8646 13.0502 
       27.1918 12.1636 27.1918 10.8338 27.1918 10.8338 "
       style=" stroke:#000000; stroke-width:1; fill:#696969; fill-opacity:100%" class="TAG:right"></polygon>
      <polygon points="18.6973 13.0502 18.6973 13.0502 18.6973 14.3801 
       21.1409 14.3801 21.1409 13.0502 18.6973 13.0502 18.6973 13.0502 "
       style=" stroke:#000000; stroke-width:1; fill:#b9b9b9; fill-opacity:100%" class="TAG:front"></polygon>
      <polygon points="18.6973 13.0502 21.1409 12.1636 23.4682 12.1636 
       21.1409 13.0502 18.6973 13.0502 18.6973 13.0502 "
       style=" stroke:#000000; stroke-width:1; fill:#dcdcdc; fill-opacity:100%" class="TAG:top"></polygon>
      <polygon points="23.4682 12.1636 21.1409 13.0502 21.1409 14.3801 
       23.4682 13.4935 23.4682 12.1636 23.4682 12.1636 "
       style=" stroke:#000000; stroke-width:1; fill:#696969; fill-opacity:100%" class="TAG:right"></polygon>
      <polygon points="14.9736 14.3801 14.9736 14.3801 14.9736 15.71 
       17.4173 15.71 17.4173 14.3801 14.9736 14.3801 14.9736 14.3801 "
       style=" stroke:#000000; stroke-width:1; fill:#b9b9b9; fill-opacity:100%" class="TAG:front"></polygon>
      <polygon points="14.9736 14.3801 17.4173 13.4935 19.7446 13.4935 
       17.4173 14.3801 14.9736 14.3801 14.9736 14.3801 "
       style=" stroke:#000000; stroke-width:1; fill:#dcdcdc; fill-opacity:100%" class="TAG:top"></polygon>
      <polygon points="19.7446 13.4935 17.4173 14.3801 17.4173 15.71 
       19.7446 14.8234 19.7446 13.4935 19.7446 13.4935 "
       style=" stroke:#000000; stroke-width:1; fill:#696969; fill-opacity:100%" class="TAG:right"></polygon>
      <polygon points="41.1555 10.3905 41.1555 10.3905 41.1555 11.7203 
       43.5991 11.7203 43.5991 10.3905 41.1555 10.3905 41.1555 10.3905 "
       style=" stroke:#000000; stroke-width:1; fill:#b9b9b9; fill-opacity:100%" class="TAG:front"></polygon>
      <polygon points="41.1555 10.3905 43.5991 9.50387 45.9264 9.50387 
       43.5991 10.3905 41.1555 10.3905 41.1555 10.3905 "
       style=" stroke:#000000; stroke-width:1; fill:#dcdcdc; fill-opacity:100%" class="TAG:top"></polygon>
      <polygon points="45.9264 9.50387 43.5991 10.3905 43.5991 11.7203 
       45.9264 10.8338 45.9264 9.50387 45.9264 9.50387 "
       style=" stroke:#000000; stroke-width:1; fill:#696969; fill-opacity:100%" class="TAG:right"></polygon>
      <polygon points="37.3155 11.7203 37.3155 11.7203 37.3155 13.0502 
       39.7591 13.0502 39.7591 11.7203 37.3155 11.7203 37.3155 11.7203 "
       style=" stroke:#000000; stroke-width:1; fill:#b9b9b9; fill-opacity:100%" class="TAG:front"></polygon>
      <polygon points="37.3155 11.7203 39.7591 10.8338 42.0864 10.8338 
       39.7591 11.7203 37.3155 11.7203 37.3155 11.7203 "
       style=" stroke:#000000; stroke-width:1; fill:#dcdcdc; fill-opacity:100%" class="TAG:top"></polygon>
      <polygon points="42.0864 10.8338 39.7591 11.7203 39.7591 13.0502 
       42.0864 12.1636 42.0864 10.8338 42.0864 10.8338 "
       style=" stroke:#000000; stroke-width:1; fill:#696969; fill-opacity:100%" class="TAG:right"></polygon>
      <polygon points="33.5918 13.0502 33.5918 13.0502 33.5918 14.3801 
       36.0355 14.3801 36.0355 13.0502 33.5918 13.0502 33.5918 13.0502 "
       style=" stroke:#000000; stroke-width:1; fill:#b9b9b9; fill-opacity:100%" class="TAG:front"></polygon>
      <polygon points="33.5918 13.0502 36.0355 12.1636 38.3628 12.1636 
       36.0355 13.0502 33.5918 13.0502 33.5918 13.0502 "
       style=" stroke:#000000; stroke-width:1; fill:#dcdcdc; fill-opacity:100%" class="TAG:top"></polygon>
      <polygon points="38.3628 12.1636 36.0355 13.0502 36.0355 14.3801 
       38.3628 13.4935 38.3628 12.1636 38.3628 12.1636 "
       style=" stroke:#000000; stroke-width:1; fill:#696969; fill-opacity:100%" class="TAG:right"></polygon>
      <polygon points="29.8682 14.3801 29.8682 14.3801 29.8682 15.71 
       32.3118 15.71 32.3118 14.3801 29.8682 14.3801 29.8682 14.3801 "
       style=" stroke:#000000; stroke-width:1; fill:#b9b9b9; fill-opacity:100%" class="TAG:front"></polygon>
      <polygon points="29.8682 14.3801 32.3118 13.4935 34.6391 13.4935 
       32.3118 14.3801 29.8682 14.3801 29.8682 14.3801 "
       style=" stroke:#000000; stroke-width:1; fill:#dcdcdc; fill-opacity:100%" class="TAG:top"></polygon>
      <polygon points="34.6391 13.4935 32.3118 14.3801 32.3118 15.71 
       34.6391 14.8234 34.6391 13.4935 34.6391 13.4935 "
       style=" stroke:#000000; stroke-width:1; fill:#696969; fill-opacity:100%" class="TAG:right"></polygon>
    </g>
  </symbol>
 </defs>
</svg>
