<?xml version="1.0"?>
<?metis version="3.0"?>
<!DOCTYPE svg  PUBLIC "-//W3C//DTD SVG August 1999//EN"
 "http://www.w3.org/Graphics/SVG/svg-19990812.dtd">

<svg width="200" height="200">
 <title>Symbol library: GEM_TOPHAT.svg</title>
 <defs>
  <symbol id="oid0" xml:space="preserve" class="METIS_SYMBOL">
   <title>Responsible Position</title>
    <rect x="4" y="4" width="121" height="96"
     style=" stroke:#9b9b9b; stroke-width:1; fill:#9b9b9b; fill-opacity:100%" class="TAG:shadow"></rect>
    <rect x="0" y="-2.66454e-015" width="123" height="98"
     style=" stroke:#000000; stroke-width:1; fill:#ffffff; fill-opacity:100%" class="TAG:border"></rect>
    <rect x="4" y="4" width="115" height="90"
     style="stroke:none; fill:#b9b9b9; fill-opacity:100%" class="TAG:canvas"></rect>
    <g>
      <desc>METIS_TEXT_GROUP</desc>
      <text  x="5" y="67.8"
       style=" stroke:#000000; stroke-width:1; font-family:sans-serif; font-size:16; text-align:center" class="TAG:text"
>text</text>
      <rect x="5" y="52" width="113" height="41"
       style=" stroke:#000000; stroke-width:1; fill:#ffffff; fill-opacity:0%"></rect>
    </g>
    <g>
      <ellipse  cx="62.6452" cy="40.2581" rx="20.6452" ry="7.74194"
       style=" stroke:#000000; stroke-width:1; fill:#464646; fill-opacity:100%" class="TAG:polygon"></ellipse>
      <polygon points="75.5484 37.6774 75.5484 32.5161 70.5001 34.6064 
       69.0968 34.3251 67.583 34.1011 65.9848 33.9384 64.3294 33.8396 
       62.6452 33.8065 60.9609 33.8396 59.3056 33.9384 57.7073 34.1011 
       56.1935 34.3251 54.7902 34.6064 49.7419 32.5161 49.7419 37.6774 
       49.8523 38.1827 50.1816 38.6793 50.7241 39.1588 51.4706 39.6129 
       52.4083 40.0339 53.5212 40.4146 54.7902 40.7485 56.1935 41.0298 
       57.7073 41.2538 59.3056 41.4165 60.9609 41.5153 62.6452 41.5484 
       64.3294 41.5153 65.9848 41.4165 67.583 41.2538 69.0968 41.0298 
       70.5001 40.7485 71.7692 40.4146 72.8819 40.0339 73.8196 39.6129 
       74.5661 39.1588 75.1087 38.6793 75.4381 38.1827 75.5484 37.6774 "
       style=" stroke:#000000; stroke-width:1; fill:#dcdcdc; fill-opacity:100%" class="TAG:polygon"></polygon>
      <polyline points="62.6452 36.3871 62.6452 36.3871 62.6452 41.5484"
       style=" stroke:#000000; stroke-width:1;" class="TAG:polyline"></polyline>
      <polyline points="63.9355 36.3871 63.9355 36.3871 63.9355 41.5484"
       style=" stroke:#000000; stroke-width:1;" class="TAG:polyline"></polyline>
      <polyline points="65.2258 36.3871 65.2258 36.3871 65.2258 41.5484"
       style=" stroke:#000000; stroke-width:1;" class="TAG:polyline"></polyline>
      <polyline points="66.5161 36.3871 66.5161 36.3871 66.5085 41.3989"
       style=" stroke:#000000; stroke-width:1;" class="TAG:polyline"></polyline>
      <polyline points="67.8064 36.3871 67.8064 36.3871 67.7963 41.2081"
       style=" stroke:#000000; stroke-width:1;" class="TAG:polyline"></polyline>
      <polyline points="69.0968 36.3871 69.0968 36.3871 69.1079 41.0412"
       style=" stroke:#000000; stroke-width:1;" class="TAG:polyline"></polyline>
      <polyline points="70.3871 35.0968 70.3871 35.0968 70.3957 40.8027"
       style=" stroke:#000000; stroke-width:1;" class="TAG:polyline"></polyline>
      <polyline points="71.6774 35.0968 71.6774 35.0968 71.6835 40.445"
       style=" stroke:#000000; stroke-width:1;" class="TAG:polyline"></polyline>
      <polyline points="72.9677 35.0968 72.9677 35.0968 72.9713 39.968"
       style=" stroke:#000000; stroke-width:1;" class="TAG:polyline"></polyline>
      <polyline points="74.258 33.8065 74.258 33.8065 74.259 39.348"
       style=" stroke:#000000; stroke-width:1;" class="TAG:polyline"></polyline>
      <polyline points="61.3548 36.3871 61.3548 36.3871 61.3548 41.5484"
       style=" stroke:#000000; stroke-width:1;" class="TAG:polyline"></polyline>
      <polyline points="60.0645 36.3871 60.0645 36.3871 60.0696 41.5181"
       style=" stroke:#000000; stroke-width:1;" class="TAG:polyline"></polyline>
      <polyline points="58.7742 36.3871 58.7742 36.3871 58.7818 41.3512"
       style=" stroke:#000000; stroke-width:1;" class="TAG:polyline"></polyline>
      <polyline points="57.4839 36.3871 57.4839 36.3871 57.494 41.2319"
       style=" stroke:#000000; stroke-width:1;" class="TAG:polyline"></polyline>
      <polyline points="56.1936 36.3871 56.1936 36.3871 56.1824 41.0412"
       style=" stroke:#000000; stroke-width:1;" class="TAG:polyline"></polyline>
      <polyline points="54.9032 35.0968 54.9032 35.0968 54.8946 40.7788"
       style=" stroke:#000000; stroke-width:1;" class="TAG:polyline"></polyline>
      <polyline points="53.6129 35.0968 53.6129 35.0968 53.6307 40.433"
       style=" stroke:#000000; stroke-width:1;" class="TAG:polyline"></polyline>
      <polyline points="52.3226 35.0968 52.3226 35.0968 52.3429 40.0038"
       style=" stroke:#000000; stroke-width:1;" class="TAG:polyline"></polyline>
      <polyline points="51.0323 33.8065 51.0323 33.8065 51.0551 39.3837"
       style=" stroke:#000000; stroke-width:1;" class="TAG:polyline"></polyline>
      <polygon points="75.5484 32.5161 75.5484 11.871 49.7419 11.871 
       49.7419 32.5161 50.3871 33.8065 50.8345 34.5027 51.581 34.9569 
       52.5187 35.3779 53.6316 35.7585 54.9006 36.0924 56.3039 36.3737 
       57.8177 36.5978 59.416 36.7605 61.0713 36.8592 62.7555 36.8924 
       64.4397 36.8592 66.0952 36.7605 67.6934 36.5978 69.2071 36.3737 
       70.6105 36.0924 71.8795 35.7585 72.9924 35.3779 73.93 34.9569 
       74.6766 34.5027 75.2192 34.0232 75.5484 33.5266 75.5484 32.5161 "
       style=" stroke:#000000; stroke-width:1; fill:#000000; fill-opacity:100%" class="TAG:polygon"></polygon>
      <ellipse  cx="62.6452" cy="11.871" rx="12.9032" ry="3.87097"
       style=" stroke:#000000; stroke-width:1; fill:#696969; fill-opacity:100%" class="TAG:polygon"></ellipse>
    </g>
  </symbol>
 </defs>
</svg>
