<?xml version="1.0"?>
<?metis version="3.0"?>
<!DOCTYPE svg  PUBLIC "-//W3C//DTD SVG August 1999//EN"
 "http://www.w3.org/Graphics/SVG/svg-19990812.dtd">

<svg width="200" height="200">
 <title>Symbol library: GEM_INFO_GROUP.svg</title>
 <defs>
  <symbol id="oid0" xml:space="preserve" class="METIS_SYMBOL">
   <title>Information Group</title>
    <rect x="4" y="4" width="121" height="96"
     style=" stroke:#9b9b9b; stroke-width:1; fill:#9b9b9b; fill-opacity:100%" class="TAG:shadow"></rect>
    <rect x="0" y="0" width="123" height="98"
     style=" stroke:#000000; stroke-width:1; fill:#ffffff; fill-opacity:100%" class="TAG:border"></rect>
    <rect x="4" y="4" width="115" height="90"
     style="stroke:none; fill:#6e6eff; fill-opacity:100%" class="TAG:canvas"></rect>
    <g>
      <desc>METIS_TEXT_GROUP</desc>
      <text  x="5" y="67.8"
       style=" stroke:#000000; stroke-width:1; font-family:sans-serif; font-size:16; text-align:center" class="TAG:text"
>text</text>
      <rect x="5" y="52" width="113" height="41"
       style=" stroke:#000000; stroke-width:1; fill:#ffffff; fill-opacity:0%"></rect>
    </g>
    <g>
      <ellipse  cx="61.7948" cy="28.008" rx="20.8489" ry="20.8489"
       style=" stroke:#ffffff; stroke-width:2; fill:#000000; fill-opacity:0%" class="TAG:Circle"></ellipse>
      <path d="M 49.3807 27.4417 C 50.7953 27.3998 51.512 27.2866 
       52.4927 26.4945 C 52.5371 26.4586 55.0069 26.234 54.9727 26.3847 
       C 53.662 32.1524 54.1146 30.3419 52.3551 37.6819 C 52.1124 38.6943 
       52.4247 39.6458 53.0082 39.1557 C 53.6368 38.6276 53.9039 38.018 
       54.2403 37.3451 C 54.2906 37.2446 54.6646 37.5423 54.5421 37.7726 
       C 53.9134 38.9545 53.2473 40.5167 51.218 40.5167 C 49.7995 40.5167 
       48.4517 40.8149 48.9895 37.7161 C 49.4756 34.9147 51.0216 28.7954 
       51.1536 28.3449 C 51.1645 28.3078 50.5575 28.1549 49.2726 28.1549 Z"
       style=" stroke:#ffffff; stroke-width:1; fill:#ffffff; fill-opacity:100%" class="TAG:i"></path>
      <ellipse  cx="53.6451" cy="23.2257" rx="1.85501" ry="1.63269"
       style=" stroke:#ffffff; stroke-width:1; fill:#ffffff; fill-opacity:100%" class="TAG:i"></ellipse>
      <path d="M 59.17 24.2478 C 60.5845 24.2059 61.3012 24.0927 
       62.2819 23.3006 C 62.3264 23.2647 64.7962 23.0401 64.762 23.1908 
       C 63.4512 28.9585 63.9039 27.148 62.1443 34.488 C 61.9016 35.5003 
       62.2139 36.4518 62.7974 35.9617 C 63.4261 35.4336 63.6932 34.824 
       64.0296 34.1512 C 64.0799 34.0506 64.4538 34.3484 64.3313 34.5787 
       C 63.7027 35.7606 63.0366 37.3228 61.0072 37.3228 C 59.5888 37.3228 
       58.241 37.621 58.7787 34.5221 C 59.2649 31.7207 60.8109 25.6015 
       60.9429 25.151 C 60.9538 25.1139 60.3468 24.961 59.0619 24.961 Z"
       style=" stroke:#ffffff; stroke-width:1; fill:#ffffff; fill-opacity:100%" class="TAG:i"></path>
      <ellipse  cx="63.4344" cy="20.0318" rx="1.85501" ry="1.63269"
       style=" stroke:#ffffff; stroke-width:1; fill:#ffffff; fill-opacity:100%" class="TAG:i"></ellipse>
      <path d="M 69.0195 21.3812 C 70.4341 21.3393 71.1507 21.2261 
       72.1314 20.434 C 72.1759 20.3981 74.6457 20.1736 74.6115 20.3242 
       C 73.3007 26.0919 73.7534 24.2814 71.9938 31.6214 C 71.7512 32.6338 
       72.0635 33.5853 72.6469 33.0952 C 73.2756 32.5671 73.5427 31.9575 
       73.8791 31.2847 C 73.9294 31.1841 74.3034 31.4818 74.1809 31.7121 
       C 73.5522 32.894 72.8861 34.4562 70.8567 34.4562 C 69.4383 34.4562 
       68.0905 34.7544 68.6283 31.6556 C 69.1144 28.8542 70.6604 22.7349 
       70.7924 22.2844 C 70.8033 22.2473 70.1963 22.0944 68.9114 22.0944 Z"
       style=" stroke:#ffffff; stroke-width:1; fill:#ffffff; fill-opacity:100%" class="TAG:i"></path>
      <ellipse  cx="73.2839" cy="17.1652" rx="1.85501" ry="1.63269"
       style=" stroke:#ffffff; stroke-width:1; fill:#ffffff; fill-opacity:100%" class="TAG:i"></ellipse>
    </g>
    <rect x="4" y="4" width="115" height="45"
     style="stroke:none; fill:#878787; fill-opacity:0%" class="TAG:grid"></rect>
  </symbol>
 </defs>
</svg>
