<?xml version="1.0"?>
<?metis version="3.0"?>
<!DOCTYPE svg  PUBLIC "-//W3C//DTD SVG August 1999//EN"
 "http://www.w3.org/Graphics/SVG/svg-19990812.dtd">

<svg width="200" height="200">
 <title>Symbol library: GEM_PROBLEM.svg</title>
 <defs>
  <symbol id="oid0" xml:space="preserve" class="METIS_SYMBOL">
   <title>Problem</title>
    <rect x="4" y="4" width="121" height="96"
     style=" stroke:#9b9b9b; stroke-width:1; fill:#9b9b9b; fill-opacity:100%" class="TAG:shadow"></rect>
    <rect x="0" y="0" width="123" height="98"
     style=" stroke:#000000; stroke-width:1; fill:#ffffff; fill-opacity:100%" class="TAG:border"></rect>
    <rect x="4" y="4" width="115" height="90"
     style="stroke:none; fill:#ffffa5; fill-opacity:100%" class="TAG:canvas"></rect>
    <g>
      <desc>METIS_TEXT_GROUP</desc>
      <text  x="5" y="67.8"
       style=" stroke:#000000; stroke-width:1; font-family:sans-serif; font-size:16; text-align:center" class="TAG:text"
>text</text>
      <rect x="5" y="52" width="113" height="41"
       style=" stroke:#000000; stroke-width:1; fill:#ffffff; fill-opacity:0%"></rect>
    </g>
    <g>
      <polygon points="93.33 8 93.33 38.535 80.8923 45.6235 
       80.8923 13.7253 93.33 8 "
       style=" stroke:#00006e; stroke-width:1; fill:#96a5ff; fill-opacity:100%" class="TAG:BrokenBlock"></polygon>
      <polygon points="81.0028 13.6015 67.4543 13.6015 64.2145 23.321 
       69.8106 30.9788 64.509 38.3422 67.7488 45.7055 81.0028 45.7055 81.0028 13.6015 "
       style=" stroke:#00006e; stroke-width:1; fill:#96a5ff; fill-opacity:100%" class="TAG:BrokenBlock"></polygon>
      <polygon points="67.1598 13.6015 79.8246 8.00537 93.6676 8.00537 
       81.0028 13.6015 67.1598 13.6015 "
       style=" stroke:#00006e; stroke-width:1; fill:#96a5ff; fill-opacity:100%" class="TAG:BrokenBlock"></polygon>
      <polygon points="32 13.896 51.1446 13.896 47.6102 23.6156 
       53.2063 31.2734 47.9048 38.6367 51.1446 46 32 46 32 13.896 "
       style=" stroke:#00006e; stroke-width:1; fill:#96a5ff; fill-opacity:100%" class="TAG:BrokenBlock"></polygon>
      <polygon points="32 13.896 45.5485 8.29991 62.9259 8.29991 
       51.1446 13.896 32 13.896 "
       style=" stroke:#00006e; stroke-width:1; fill:#96a5ff; fill-opacity:100%" class="TAG:BrokenBlock"></polygon>
      <polygon points="63.2204 8.00537 50.8501 14.1905 47.3157 23.9101 
       52.9118 31.568 47.6102 38.9312 51.1446 45.7054 63.2204 39.8148 
       59.6861 32.7461 65.5767 25.3827 59.6861 17.7249 63.2204 8.00537 "
       style=" stroke:#00006e; stroke-width:1; fill:#6e6eff; fill-opacity:100%" class="TAG:BlockInside"></polygon>
      <polyline points="59.3915 18.0195 47.3157 23.6156"
       style=" stroke:#00006e; stroke-width:1;" class="TAG:BrokenBlock"></polyline>
      <polyline points="65.2821 25.0883 53.059 31.1262"
       style=" stroke:#00006e; stroke-width:1;" class="TAG:BrokenBlock"></polyline>
      <polyline points="59.9805 33.0406 48.1992 38.9312"
       style=" stroke:#00006e; stroke-width:1;" class="TAG:BrokenBlock"></polyline>
    </g>
    <rect x="4" y="4" width="115" height="45"
     style="stroke:none; fill:#878787; fill-opacity:0%" class="TAG:grid"></rect>
  </symbol>
 </defs>
</svg>
