<?xml version="1.0"?>
<?metis version="3.4"?>
<?metisxml version="1.1"?>
<!DOCTYPE svg  PUBLIC "-//W3C//DTD SVG August 1999//EN"
 "http://www.w3.org/Graphics/SVG/svg-19990812.dtd">

<svg width="200" height="200">
 <title>Symbol library: gem_ipm_process_closed.svg</title>
 <defs>
  <symbol id="oid0" xml:space="preserve" class="METIS_SYMBOL">
   <title>IPM Process Closed</title>
    <g>
      <polygon points="3.03448 121.905 166.897 121.905 169.931 118.857 
       169.931 3.04762 166.897 0 3.03448 0 0 3.04762 
       0 118.857 3.03448 121.905 3.03448 121.905 "
       style=" stroke:#000000; stroke-width:1; fill:#ff00ff; fill-opacity:100%"       class="TAG:canvas"></polygon>
      <g>
	<desc>METIS_TEXT_GROUP</desc>
	<text  x="6.06897" y="68.0952"
	 style=" stroke:#000000; stroke-width:1; font-family:sans-serif; font-size:64;"
	 class="TAG:text">text</text>
	<rect x="6.06897" y="6.09524" width="157.793" height="109.714"
	 style=" stroke:#000000; stroke-width:1; fill:#000000; fill-opacity:0%"></rect>
      </g>
      <polyline points="6.06897 124.952 9.10345 128 172.966 128 
       176 124.952 176 9.14286 172.966 6.09524"
       style=" stroke:#000000; stroke-width:1;"       class="TAG:polyline"></polyline>
      <polyline points="4.55172 123.429 7.58621 126.476 171.448 126.476 
       174.483 123.429 174.483 7.61905 171.448 4.57143"
       style=" stroke:#000000; stroke-width:1;"       class="TAG:polyline"></polyline>
      <polyline points="3.03448 121.905 6.06897 124.952 169.931 124.952 
       172.966 121.905 172.966 6.09524 169.931 3.04762"
       style=" stroke:#000000; stroke-width:1;"       class="TAG:polyline"></polyline>
      <polyline points="1.51724 120.381 4.55172 123.429 168.414 123.429 
       171.448 120.381 171.448 4.57143 168.414 1.52381"
       style=" stroke:#000000; stroke-width:1;"       class="TAG:polyline"></polyline>
      <polyline points="5.31034 124.19 8.34483 127.238 172.207 127.238 
       175.241 124.19 175.241 8.38095 172.207 5.33333"
       style=" stroke:#000000; stroke-width:1;"       class="TAG:polyline"></polyline>
      <polyline points="3.7931 122.667 6.82759 125.714 170.69 125.714 
       173.724 122.667 173.724 6.85714 170.69 3.80952"
       style=" stroke:#000000; stroke-width:1;"       class="TAG:polyline"></polyline>
      <polyline points="2.27586 121.143 5.31034 124.19 169.172 124.19 
       172.207 121.143 172.207 5.33333 169.172 2.28571"
       style=" stroke:#000000; stroke-width:1;"       class="TAG:polyline"></polyline>
      <polyline points="0.758621 119.619 3.7931 122.667 167.655 122.667 
       170.69 119.619 170.69 3.80952 167.655 0.761905"
       style=" stroke:#000000; stroke-width:1;"       class="TAG:polyline"></polyline>
    </g>
  </symbol>
 </defs>
</svg>
