<?xml version="1.0"?>
<?metis version="3.0"?>
<!DOCTYPE svg  PUBLIC "-//W3C//DTD SVG August 1999//EN"
 "http://www.w3.org/Graphics/SVG/svg-19990812.dtd">

<svg width="200" height="200">
 <title>Symbol library: GEM_FUNCTION.svg</title>
 <defs>
  <symbol id="oid0" xml:space="preserve" class="METIS_SYMBOL">
   <title>Function</title>
    <rect x="4" y="4" width="121" height="96"
     style=" stroke:#9b9b9b; stroke-width:1; fill:#9b9b9b; fill-opacity:100%" class="TAG:shadow"></rect>
    <rect x="0" y="-8.88178e-016" width="123" height="98"
     style=" stroke:#000000; stroke-width:1; fill:#ffffff; fill-opacity:100%" class="TAG:border"></rect>
    <rect x="4" y="4" width="115" height="90"
     style="stroke:none; fill:#c8c8ff; fill-opacity:100%" class="TAG:canvas"></rect>
    <g>
      <desc>METIS_TEXT_GROUP</desc>
      <text  x="5" y="67.8"
       style=" stroke:#000000; stroke-width:1; font-family:sans-serif; font-size:16; text-align:center" class="TAG:text"
>text</text>
      <rect x="5" y="52" width="113" height="41"
       style=" stroke:#000000; stroke-width:1; fill:#ffffff; fill-opacity:0%"></rect>
    </g>
    <g>
      <polygon points="39.0739 16.5266 37.3802 15.5588 35.9285 19.1881 
       37.8641 19.914 37.6222 25.2371 35.5252 25.721 36.3317 30.3988 
       38.832 29.3503 41.4935 33.4636 39.5578 35.3993 42.7839 37.9801 
       44.6389 35.8832 48.9942 37.8188 48.2683 39.9158 53.4301 40.2384 
       53.1075 37.8188 58.4305 36.6091 59.8822 39.2706 63.7536 36.1252 
       61.8179 34.1894 64.9634 30.3181 66.899 31.5279 69.0766 26.6888 
       66.1732 25.9629 66.4151 21.3657 68.3508 21.3657 67.9475 17.3331 
       65.4473 17.7364 63.5117 14.349 65.6893 12.8972 62.947 10.0744 
       61.334 11.6874 57.2207 9.75178 58.1079 7.49352 53.2688 6.68699 
       52.7849 8.94526 47.7844 9.59048 46.6552 7.49352 42.4613 9.75178 
       43.5905 11.6874 42.2194 12.8972 39.0739 16.5266 "
       style=" stroke:#000000; stroke-width:1; fill:#878787; fill-opacity:100%" class="TAG:Gears"></polygon>
      <ellipse  cx="52.2404" cy="23.6038" rx="12.0777" ry="12.0777"
       style=" stroke:#464646; stroke-width:1; fill:#878787; fill-opacity:100%" class="TAG:Gears"></ellipse>
      <ellipse  cx="52.3816" cy="23.3014" rx="2.33892" ry="2.25827"
       style=" stroke:#464646; stroke-width:1; fill:#464646; fill-opacity:100%" class="TAG:Circles"></ellipse>
      <polygon points="66.6994 31.4791 65.5107 30.7999 64.4918 33.347 
       65.8503 33.8564 65.6805 37.5922 64.2088 37.9318 64.7749 41.2148 
       66.5295 40.479 68.3974 43.3657 67.039 44.7242 69.3031 46.5355 
       70.605 45.0638 73.6615 46.4223 73.1521 47.894 76.7747 48.1204 
       76.5483 46.4223 80.2841 45.5732 81.3029 47.4412 84.0199 45.2337 
       82.6614 43.8752 84.869 41.1582 86.2274 42.0073 87.7557 38.6111 
       85.718 38.1016 85.8878 34.8752 87.2463 34.8752 86.9632 32.0451 
       85.2085 32.3281 83.8501 29.9508 85.3783 28.932 83.4539 26.9509 
       82.3218 28.0829 79.4351 26.7245 80.0577 25.1396 76.6615 24.5735 
       76.3218 26.1584 72.8125 26.6112 72.02 25.1396 69.0767 26.7245 
       69.8691 28.0829 68.9069 28.932 66.6994 31.4791 "
       style=" stroke:#000000; stroke-width:1; fill:#878787; fill-opacity:100%" class="TAG:Gears"></polygon>
      <ellipse  cx="75.9398" cy="36.446" rx="8.47631" ry="8.4763"
       style=" stroke:#464646; stroke-width:1; fill:#878787; fill-opacity:100%" class="TAG:Gears"></ellipse>
      <ellipse  cx="76.0388" cy="36.2337" rx="1.64149" ry="1.58488"
       style=" stroke:#464646; stroke-width:1; fill:#464646; fill-opacity:100%" class="TAG:Circles"></ellipse>
    </g>
    <rect x="4" y="4" width="115" height="45"
     style="stroke:none; fill:#878787; fill-opacity:0%" class="TAG:grid"></rect>
  </symbol>
 </defs>
</svg>
