<?xml version="1.0"?>
<?metis version="3.4"?>
<?metisxml version="1.1"?>
<!DOCTYPE svg  PUBLIC "-//W3C//DTD SVG August 1999//EN"
 "http://www.w3.org/Graphics/SVG/svg-19990812.dtd">

<svg width="200" height="200">
 <title>Symbol library: gem_internal_flow.svg</title>
 <defs>
  <symbol id="oid1" xml:space="preserve" class="METIS_SYMBOL">
   <title>Feedback Flow</title>
    <g>
      <polygon points="72.7075 256 512 256 512 256 
       512 164 484 164 484 192 445.933 122.121 
       484 60 484 100 512 100 512 8 
       72.7075 7.75758 72.9708 97.6965 38.5124 97.6965 38.5124 69.2017 
       8.10787 130.262 38.5124 195.393 38.5124 162.828 72.9708 162.828 
       72.7075 256 72.7075 256 72.7075 256 "
       style=" stroke:#000000; stroke-width:1; fill:#000000; fill-opacity:100%"       class="TAG:polygon"></polygon>
      <polygon points="64.863 248.242 504 248 504 156 
       476 156 476 188 437.825 122.121 476 60 
       476 96 504 96 504 0 64.863 0 
       64.863 93.6259 32.4315 93.6259 32.4315 61.0603 0 122.121 
       32.4315 187.252 32.4315 154.686 64.863 154.686 64.863 248.242 
       64.863 248.242 64.863 248.242 "
       style=" stroke:#000000; stroke-width:1; fill:#ffb367; fill-opacity:100%"       class="TAG:canvas"></polygon>
      <g>
	<desc>METIS_TEXT_GROUP</desc>
	<text  x="143.308" y="30.5152"
	 style=" stroke:#000000; stroke-width:1; font-family:sans-serif; font-size:16;"
	 class="TAG:text">text</text>
	<rect x="143.308" y="15.5152" width="345.159" height="217.212"
	 style=" stroke:#000000; stroke-width:1; fill:#000000; fill-opacity:0%"></rect>
      </g>
    </g>
  </symbol>
  <symbol id="oid0" xml:space="preserve" class="METIS_SYMBOL">
   <title>Internal Flow</title>
    <g>
      <polygon points="7.87692 256 448.985 256 448.985 256 
       448.985 162.909 480.492 162.909 480.492 193.939 512 131.879 
       480.492 69.8182 480.492 100.848 448.985 100.848 448.985 7.75758 
       7.87692 7.75758 7.87692 100.848 39.3846 100.848 39.3846 69.8182 
       70.8923 131.879 39.3846 193.939 39.3846 162.909 7.87692 162.909 
       7.87692 256 7.87692 256 7.87692 256 "
       style=" stroke:#000000; stroke-width:1; fill:#000000; fill-opacity:100%"       class="TAG:polygon"></polygon>
      <polygon points="0 248.242 441.108 248.242 441.108 248.242 
       441.108 155.152 472.615 155.152 472.615 186.182 504.123 124.121 
       472.615 62.0606 472.615 93.0909 441.108 93.0909 441.108 0 
       0 0 0 93.0909 31.5077 93.0909 31.5077 62.0606 
       63.0154 124.121 31.5077 186.182 31.5077 155.152 0 155.152 
       0 248.242 0 248.242 0 248.242 "
       style=" stroke:#000000; stroke-width:1; fill:#ffb367; fill-opacity:100%"       class="TAG:canvas"></polygon>
      <g>
	<desc>METIS_TEXT_GROUP</desc>
	<text  x="78.7692" y="30.5152"
	 style=" stroke:#000000; stroke-width:1; font-family:sans-serif; font-size:16;"
	 class="TAG:text">text</text>
	<rect x="78.7692" y="15.5152" width="346.585" height="217.212"
	 style=" stroke:#000000; stroke-width:1; fill:#000000; fill-opacity:0%"></rect>
      </g>
    </g>
  </symbol>
 </defs>
</svg>
