<?xml version="1.0"?>
<?metis version="3.0"?>
<!DOCTYPE svg  PUBLIC "-//W3C//DTD SVG August 1999//EN"
 "http://www.w3.org/Graphics/SVG/svg-19990812.dtd">

<svg width="200" height="200">
 <title>Symbol library: GEM_HATS.svg</title>
 <defs>
  <symbol id="oid0" xml:space="preserve" class="METIS_SYMBOL">
   <title>Hats</title>
    <g>
      <rect x="4" y="4" width="121" height="96"
       style=" stroke:#9b9b9b; stroke-width:1; fill:#9b9b9b; fill-opacity:100%" class="TAG:shadow"></rect>
      <rect x="0" y="-8.88178e-016" width="123" height="98"
       style=" stroke:#000000; stroke-width:1; fill:#ffffff; fill-opacity:100%" class="TAG:border"></rect>
      <rect x="4" y="4" width="115" height="90"
       style="stroke:none; fill:#b9b9b9; fill-opacity:100%" class="TAG:canvas"></rect>
      <g>
	<desc>METIS_TEXT_GROUP</desc>
	<text  x="5" y="67.8"
	 style=" stroke:#000000; stroke-width:1; font-family:sans-serif; font-size:16; text-align:center" class="TAG:text"
>text</text>
	<rect x="5" y="52" width="113" height="41"
	 style=" stroke:#000000; stroke-width:1; fill:#ffffff; fill-opacity:0%"></rect>
      </g>
    </g>
    <g>
      <path d="M 42.0523 44.094 C 41.3352 44.094 41.0255 44.094 
       40.814 44.094 C 39.8265 44.094 37.4685 44.0486 36.4795 44.094 
       C 33.4991 44.2306 27.2791 47.6768 23.4762 45.2887 C 22.336 44.5727 
       21.5014 42.6902 22.2378 41.7046 C 25.3233 37.5747 34.1344 46.0577 
       38.6467 41.7046 C 38.6467 41.7046 38.6467 41.7046 38.6467 41.7046 Z"
       style=" stroke:#464646; stroke-width:1; fill:#6e6e00; fill-opacity:100%"></path>
      <path d="M 35.8508 35.9618 C 39.8503 35.3454 41.6275 35.2806 
       42.9596 35.7025 C 44.8521 36.302 47.479 39.2291 48.8381 40.2401 
       C 50.2209 41.2685 56.9733 41.3098 56.8415 43.5479 C 56.6811 46.2701 
       53.93 47.401 51.2184 47.5472 C 47.839 47.7295 44.6821 46.73 
       42.3151 45.5475 C 41.3774 45.0791 39.4517 44.6145 36.692 43.5479 
       C 33.8204 42.4379 28.2546 41.3744 28.1951 39.9808 C 28.1032 37.8296 
       34.6015 36.9731 34.2103 35.8322 C 34.2103 35.8322 34.2103 35.8322 
       34.2103 35.8322 Z"
       style=" stroke:#464646; stroke-width:1; fill:#6e6e00; fill-opacity:100%" class="TAG:Hat1"></path>
      <path d="M 20.3001 40.5442 C 20.1313 41.9998 22.0302 45.2268 
       24.7491 45.2268 C 25.4436 45.2268 28.0474 45.0006 31.1754 44.7586 
       C 33.5087 44.578 37.2068 44.0816 38.0961 44.2903 C 39.8985 44.7132 
       45.7606 45.7777 47.5307 45.0789 C 49.0455 44.4807 52.1461 43.0619 
       52.5784 42.0734 C 52.8841 41.3743 51.7523 39.8225 51.2804 38.7947 
       C 50.1524 36.3376 44.6091 35.1228 42.6273 34.6963 C 41.7178 34.5006 
       39.2482 34.5588 36.8602 34.4569 C 33.5641 34.3161 30.1689 34.0904 
       28.9509 34.4569 C 28.0685 34.7223 22.7717 34.9251 20.5472 38.4371 Z"
       style=" stroke:#464646; stroke-width:1; fill:#6e6e00; fill-opacity:100%" class="TAG:Hat1"></path>
      <ellipse  cx="35.3345" cy="35.1379" rx="1.43545" ry="0.453755"
       style=" stroke:#a85400; stroke-width:1; fill:#a85400; fill-opacity:100%" class="TAG:Hat1Button"></ellipse>
      <path d="M 53.884 23.1696 C 53.884 12.7502 56.2826 8.54554 
       59.5799 7.19328 C 60.6667 6.74751 62.8253 8.28197 64.2106 8.30467 
       C 65.9018 8.33239 64.7664 7.37851 68.2858 7.37851 C 72.1757 7.37851 
       71.4347 18.6776 73.4722 21.9192 C 74.7389 23.9344 78.6794 22.2198 
       77.9179 24.4199 C 76.2507 29.2359 68.8457 31.8291 63.2846 31.8291 
       C 57.5423 31.8291 49.0216 27.9392 49.0216 25.9017 C 49.0216 23.1079 
       51.1925 23.8343 54.3008 23.1696 Z"
       style=" stroke:#000000; stroke-width:1; fill:#a85400; fill-opacity:100%" class="TAG:Hat2"></path>
      <path d="M 60.5523 11.0831 C 61.1389 12.226 61.3473 12.7469 
       61.3859 13.167 C 61.4833 14.2277 59.6127 16.1886 60.5523 17.3347 
       C 60.5523 17.3347 60.5523 17.3347 60.5523 17.3347"
       style=" stroke:#000000; stroke-width:1;" class="TAG:Hat2"></path>
      <path d="M 66.3872 11.4999 C 65.076 13.8499 64.7634 14.996 
       65.1369 16.0844 C 65.3552 16.7208 66.5375 16.8019 66.8039 17.3347 
       C 66.8439 17.4146 66.8339 17.4989 66.8039 17.7515"
       style=" stroke:#000000; stroke-width:1;" class="TAG:Hat2"></path>
      <path d="M 53.8377 20.1595 C 57.1718 22.7528 61.3631 24.1306 
       63.6549 24.0494 C 66.0946 23.963 71.8891 21.886 72.9166 20.3448 
       C 73.287 19.7891 74.2132 22.938 74.2132 22.938 C 71.8052 26.2722 
       66.8806 28.0302 62.9141 27.754 C 60.3237 27.5737 53.3021 24.9524 
       53.6524 23.6789 C 53.6524 23.6789 53.6524 23.6789 53.6524 23.6789 Z"
       style=" stroke:#000000; stroke-width:1; fill:#ff962d; fill-opacity:100%" class="TAG:Hat2Band"></path>
      <polygon points="68.9834 45.0526 86.5964 45.0526 86.5964 44.252 
       68.9834 44.252 68.9834 45.0526 "
       style=" stroke:#000000; stroke-width:1; fill:#0000a5; fill-opacity:100%" class="TAG:Hat3Strap"></polygon>
      <polygon points="102.608 44.6523 102.533 44.391 102.308 44.1343 
       101.938 43.8864 101.428 43.6516 100.788 43.4339 100.029 43.237 
       99.1627 43.0644 98.205 42.919 97.1718 42.8032 96.081 42.719 
       94.9512 42.6679 93.8017 42.6508 92.6522 42.6679 91.5224 42.719 
       90.4316 42.8032 89.3984 42.919 88.4406 43.0644 87.5746 43.237 
       86.815 43.4339 86.175 43.6516 84.9952 43.4514 85.0705 44.9136 
       85.2953 45.1703 85.6655 45.4183 86.175 45.653 86.815 45.8707 
       87.5746 46.0675 88.4406 46.2402 89.3984 46.3857 90.4316 46.5015 
       91.5224 46.5856 92.6522 46.6367 93.8017 46.6538 94.9512 46.6367 
       96.081 46.5856 97.1718 46.5015 98.205 46.3857 99.1627 46.2402 
       100.029 46.0675 100.788 45.8707 101.428 45.653 101.938 45.4183 
       102.308 45.1703 102.533 44.9136 102.608 44.6523 "
       style=" stroke:#000000; stroke-width:1; fill:#6e6eff; fill-opacity:100%" class="TAG:Hat3"></polygon>
      <polygon points="76.9893 44.252 76.9893 41.0497 78.5905 36.2461 
       80.9922 33.0438 79.4248 33.1397 77.8841 33.4257 76.3967 33.8969 
       74.9878 34.5454 73.6817 35.3599 72.5007 36.3266 71.465 37.4289 
       70.5923 38.6479 69.8975 39.9628 69.3926 41.3511 69.0861 42.7891 
       68.9834 44.252 76.9893 44.252 "
       style=" stroke:#000000; stroke-width:1; fill:#6e6eff; fill-opacity:100%" class="TAG:Hat3"></polygon>
      <polygon points="92.8983 42.7891 92.5919 41.3511 92.087 39.9628 
       91.3922 38.6479 90.5195 37.4289 89.4838 36.3266 88.3028 35.3599 
       86.9967 34.5454 85.5878 33.8969 84.1003 33.4257 82.5597 33.1397 
       80.9922 33.0438 83.394 36.2461 84.9952 41.0497 84.9952 44.252 
       90.5994 44.252 92.2005 43.4514 92.8983 42.7891 "
       style=" stroke:#000000; stroke-width:1; fill:#6e6eff; fill-opacity:100%" class="TAG:Hat3"></polygon>
      <polyline points="68.9834 44.252 68.9834 44.252 90.5994 44.252"
       style=" stroke:#000000; stroke-width:1;"></polyline>
      <ellipse  cx="80.9922" cy="33.0438" rx="1.60118" ry="0.800591"
       style=" stroke:#000000; stroke-width:1; fill:#0000a5; fill-opacity:100%" class="TAG:Hat3Button"></ellipse>
    </g>
  </symbol>
 </defs>
</svg>
