<?xml version="1.0"?>
<?metis version="3.0"?>
<!DOCTYPE svg  PUBLIC "-//W3C//DTD SVG August 1999//EN"
 "http://www.w3.org/Graphics/SVG/svg-19990812.dtd">

<svg width="200" height="200">
 <title>Symbol library: GEM_ACTION.svg</title>
 <defs>
  <symbol id="oid0" xml:space="preserve" class="METIS_SYMBOL">
   <title>Action</title>
    <rect x="4" y="4" width="121" height="96"
     style=" stroke:#9b9b9b; stroke-width:1; fill:#9b9b9b; fill-opacity:100%" class="TAG:shadow"></rect>
    <rect x="0" y="0" width="123" height="98"
     style=" stroke:#000000; stroke-width:1; fill:#ffffff; fill-opacity:100%" class="TAG:border"></rect>
    <rect x="4" y="4" width="115" height="90"
     style="stroke:none; fill:#ffffa5; fill-opacity:100%" class="TAG:canvas"></rect>
    <g>
      <desc>METIS_TEXT_GROUP</desc>
      <text  x="5" y="67.8"
       style=" stroke:#000000; stroke-width:1; font-family:sans-serif; font-size:16; text-align:center" class="TAG:text"
>text</text>
      <rect x="5" y="52" width="113" height="41"
       style=" stroke:#000000; stroke-width:1; fill:#ffffff; fill-opacity:0%"></rect>
    </g>
    <g>
      <polygon points="46.7363 25.2902 80.2556 25.2902 80.2556 47.9123 
       46.7363 47.9123 46.7363 25.2902 "
       style=" stroke:#000000; stroke-width:1; fill:#ffffff; fill-opacity:100%" class="TAG:BaseColor"></polygon>
      <polygon points="46.7363 25.4656 44 19.1524 73.928 6 
       76.8353 12.6639 46.7363 25.4656 "
       style=" stroke:#000000; stroke-width:1; fill:#ffffff; fill-opacity:100%" class="TAG:BaseColor"></polygon>
      <polyline points="46.7363 31.2527 80.2556 31.2527"
       style=" stroke:#000000; stroke-width:1;"></polyline>
      <polygon points="46.7363 26.5177 51.3538 31.2526 55.2871 31.2526 
       49.4726 25.2902 46.7363 25.2902 46.7363 26.5177 "
       style=" stroke:#000000; stroke-width:1; fill:#000000; fill-opacity:100%" class="TAG:Stripes"></polygon>
      <polygon points="53.919 25.2902 59.7336 31.2526 63.838 31.2526 
       58.0234 25.2902 53.919 25.2902 "
       style=" stroke:#000000; stroke-width:1; fill:#000000; fill-opacity:100%" class="TAG:Stripes"></polygon>
      <polygon points="62.4698 25.2902 68.2844 31.2526 72.3888 31.2526 
       66.5742 25.2902 62.4698 25.2902 "
       style=" stroke:#000000; stroke-width:1; fill:#000000; fill-opacity:100%" class="TAG:Stripes"></polygon>
      <polygon points="70.3367 25.2902 76.1513 31.2526 80.2557 31.2526 
       74.4411 25.2902 70.3367 25.2902 "
       style=" stroke:#000000; stroke-width:1; fill:#000000; fill-opacity:100%" class="TAG:Stripes"></polygon>
      <polygon points="46.7363 24.7642 49.6436 16.6973 53.2349 15.119 
       49.9856 24.0626 46.7363 25.4656 46.7363 24.7642 "
       style=" stroke:#000000; stroke-width:1; fill:#000000; fill-opacity:100%" class="TAG:Stripes"></polygon>
      <polygon points="56.3987 13.8038 59.9046 12.1378 56.9973 21.2568 
       53.4914 22.5721 56.3987 13.8038 "
       style=" stroke:#000000; stroke-width:1; fill:#000000; fill-opacity:100%" class="TAG:Stripes"></polygon>
      <polygon points="63.3677 10.691 66.8736 9.02505 63.9663 18.1441 
       60.4604 19.4593 63.3677 10.691 "
       style=" stroke:#000000; stroke-width:1; fill:#000000; fill-opacity:100%" class="TAG:Stripes"></polygon>
      <polygon points="70.3794 7.70981 73.8853 6.04384 70.978 15.1629 
       67.4721 16.4781 70.3794 7.70981 "
       style=" stroke:#000000; stroke-width:1; fill:#000000; fill-opacity:100%" class="TAG:Stripes"></polygon>
      <rect x="46.8218" y="31.1649" width="33.3484" height="16.8351"
       style=" stroke:#000000; stroke-width:1; fill:#000000; fill-opacity:100%" class="TAG:Rectangle"></rect>
    </g>
  </symbol>
 </defs>
</svg>
