<?xml version="1.0"?>
<?metis version="3.0"?>
<!DOCTYPE svg  PUBLIC "-//W3C//DTD SVG August 1999//EN"
 "http://www.w3.org/Graphics/SVG/svg-19990812.dtd">

<svg width="200" height="200">
 <title>Symbol library: GEM_COMPETITOR.svg</title>
 <defs>
  <symbol id="oid0" xml:space="preserve" class="METIS_SYMBOL">
   <title>Competitor</title>
    <rect x="4" y="4" width="121" height="96"
     style=" stroke:#9b9b9b; stroke-width:1; fill:#9b9b9b; fill-opacity:100%" class="TAG:shadow"></rect>
    <rect x="0" y="0" width="123" height="98"
     style=" stroke:#000000; stroke-width:1; fill:#ffffff; fill-opacity:100%" class="TAG:border"></rect>
    <rect x="4" y="4" width="115" height="90"
     style="stroke:none; fill:#96a5ff; fill-opacity:100%" class="TAG:canvas"></rect>
    <g>
      <desc>METIS_TEXT_GROUP</desc>
      <text  x="5" y="67.8"
       style=" stroke:#000000; stroke-width:1; font-family:sans-serif; font-size:16; text-align:center" class="TAG:text"
>text</text>
      <rect x="5" y="52" width="113" height="41"
       style=" stroke:#000000; stroke-width:1; fill:#ffffff; fill-opacity:0%"></rect>
    </g>
    <g>
      <polygon points="102 42.2069 89.0335 34.6955 81.3631 29.5897 
       79.3998 25.1897 78.7149 23.7414 76.2494 21.931 62.2784 33.5173 
       58.3519 35.972 64.7439 37.2484 69.8575 38.5249 74.9711 42.3542 
       81.4543 48 102 48 102 42.2069 "
       style=" stroke:#ff962d; stroke-width:1; fill:#ffcf9f; fill-opacity:100%" class="TAG:hand1"></polygon>
      <polygon points="41.9154 48 51.5034 40.7586 55.6125 37.8621 
       63.6481 35.3583 68.7617 32.8054 76.4321 26.4232 78.8976 23.7414 
       79.5824 25.1897 80.2673 22.5938 80.2673 20.0409 79.6281 18.7645 
       78.9888 18.7645 75.1536 20.0409 71.3185 23.8703 75.1536 20.0409 
       78.9888 18.7645 78.9888 16.2115 77.7105 14.9351 75.1536 14.9351 
       72.5969 16.2115 67.4833 20.0409 72.5969 16.2115 75.1536 14.9351 
       75.1536 12.3822 73.8753 11.1058 71.3185 11.1058 68.7617 12.3822 
       63.6481 16.2115 68.7617 12.3822 71.3185 11.1058 70.0401 11.744 
       70.0401 9.82934 68.7617 8.55289 66.2049 8.55289 63.0089 10.4676 
       59.0368 13.9655 52.8731 19.0345 59.0368 13.9655 63.0089 10.4676 
       66.2049 8.55289 67.4833 8.55289 67.4833 7.27645 66.2049 6 
       62.3698 8.55289 56.617 11.1058 54.6994 12.3822 52.1425 13.6587 
       50.1336 16.1379 47.029 21.3173 43.2851 29.1724 39.1759 32.069 
       33.6971 34.9655 20 40.7586 20 48 41.9154 48 "
       style=" stroke:#ffb367; stroke-width:1; fill:#ffe2c5; fill-opacity:100%" class="TAG:hand2"></polygon>
      <polygon points="45.8419 20.4827 44.5635 20.4827 43.2851 21.7592 
       43.2851 24.3121 45.8419 27.5032 47.7595 28.7796 50.3163 30.056 
       51.5946 29.4179 52.2339 28.7796 52.2339 27.5032 51.5946 26.2267 45.8419 20.4827 "
       style=" stroke:#ff962d; stroke-width:1; fill:#ffcf9f; fill-opacity:100%" class="TAG:hand1"></polygon>
      <polygon points="46.4811 16.1379 46.4811 16.1379 45.2027 16.1379 
       43.9243 16.7761 43.2851 18.0526 43.9243 19.9672 48.3987 23.7966 
       49.6771 25.073 54.1515 27.626 55.4298 27.626 56.7083 26.9877 
       57.3474 26.3495 57.3474 25.073 56.7083 23.7966 56.7083 23.1584 46.4811 16.1379 "
       style=" stroke:#ff962d; stroke-width:1; fill:#ffcf9f; fill-opacity:100%" class="TAG:hand1"></polygon>
      <polygon points="47.8508 11.7931 47.8508 11.7931 46.5724 11.7931 
       45.294 12.4313 44.6548 13.7078 45.294 15.6224 49.7684 19.4518 
       51.0467 20.7282 56.1603 23.2812 57.4388 23.9194 58.7171 23.9194 
       59.9955 22.6429 59.9955 21.3664 59.3563 20.09 58.0779 18.8136 47.8508 11.7931 "
       style=" stroke:#ff962d; stroke-width:1; fill:#ffcf9f; fill-opacity:100%" class="TAG:hand1"></polygon>
      <polygon points="51.2751 8.89655 51.2751 8.89655 49.9967 8.89655 
       48.7183 9.53478 48.0791 10.8112 48.7183 12.7259 51.9143 15.917 
       53.8319 17.1934 57.0279 19.1081 58.9455 19.7464 60.2238 19.7464 
       61.5022 18.4699 61.5022 17.8317 60.8631 16.5553 57.6671 14.6406 
       55.1103 12.7259 53.8319 10.8112 55.1103 12.7259 57.0279 11.4494 51.2751 8.89655 "
       style=" stroke:#ff962d; stroke-width:1; fill:#ffcf9f; fill-opacity:100%" class="TAG:hand1"></polygon>
      <polygon points="63.1459 10.3448 59.1737 8.00059 57.2562 7.36236 
       55.3386 7.36236 52.7818 6.72414 51.5034 6.72414 51.5034 8.00059 
       52.7818 9.91525 54.6994 11.1917 56.617 11.8299 59.0368 13.9655 63.1459 10.3448 "
       style=" stroke:#ff962d; stroke-width:1; fill:#ffcf9f; fill-opacity:100%" class="TAG:hand1"></polygon>
    </g>
  </symbol>
 </defs>
</svg>
