<?xml version="1.0"?>
<?metis version="3.0"?>
<!DOCTYPE svg  PUBLIC "-//W3C//DTD SVG August 1999//EN"
 "http://www.w3.org/Graphics/SVG/svg-19990812.dtd">

<svg width="200" height="200">
 <title>Symbol library: GEM_ORG_UNIT.svg</title>
 <defs>
  <symbol id="oid0" xml:space="preserve" class="METIS_SYMBOL">
   <title>Organization Unit</title>
    <g>
      <rect x="4" y="4" width="121" height="96"
       style=" stroke:#9b9b9b; stroke-width:1; fill:#9b9b9b; fill-opacity:100%" class="TAG:shadow"></rect>
      <rect x="0" y="0" width="123" height="98"
       style=" stroke:#000000; stroke-width:1; fill:#ffffff; fill-opacity:100%" class="TAG:border"></rect>
      <rect x="4" y="4" width="115" height="90"
       style="stroke:none; fill:#96a5ff; fill-opacity:100%" class="TAG:canvas"></rect>
      <g>
	<desc>METIS_TEXT_GROUP</desc>
	<text  x="5" y="67.8"
	 style=" stroke:#000000; stroke-width:1; font-family:sans-serif; font-size:16; text-align:center" class="TAG:text"
>text</text>
	<rect x="5" y="52" width="113" height="41"
	 style=" stroke:#000000; stroke-width:1; fill:#ffffff; fill-opacity:0%"></rect>
      </g>
    </g>
    <g>
      <rect x="57.2777" y="6" width="11.4696" height="7.47272"
       style=" stroke:#ffecd9; stroke-width:1; fill:#ffffff; fill-opacity:100%"></rect>
      <polyline points="62.7778 13.4727 62.7778 17.9933"
       style=" stroke:#ffecd9; stroke-width:1;"></polyline>
      <polyline points="43.3934 22.3293 43.3934 18.1778 82.2291 18.1778 
       82.2291 22.3293"
       style=" stroke:#ffecd9; stroke-width:1;"></polyline>
      <polyline points="43.7929 30.0788 43.7929 34.5993"
       style=" stroke:#ffecd9; stroke-width:1;"></polyline>
      <polyline points="33.2318 38.9353 33.2318 34.7838 54.36 34.7838 
       54.36 38.9353"
       style=" stroke:#ffecd9; stroke-width:1;"></polyline>
      <polyline points="82.1256 30.0788 82.1256 34.5993"
       style=" stroke:#ffecd9; stroke-width:1;"></polyline>
      <polyline points="71.5644 38.9353 71.5644 34.7838 92.6927 34.7838 
       92.6927 38.9353"
       style=" stroke:#ffecd9; stroke-width:1;"></polyline>
      <rect x="76.6955" y="22.1909" width="11.4696" height="7.47272"
       style=" stroke:#ffecd9; stroke-width:1; fill:#ffffff; fill-opacity:100%"></rect>
      <rect x="37.8599" y="22.1909" width="11.4696" height="7.47272"
       style=" stroke:#ffecd9; stroke-width:1; fill:#ffffff; fill-opacity:100%"></rect>
      <rect x="47.7197" y="38.9353" width="11.4696" height="7.47272"
       style=" stroke:#ffecd9; stroke-width:1; fill:#ffffff; fill-opacity:100%"></rect>
      <rect x="28" y="38.9353" width="11.4696" height="7.47272"
       style=" stroke:#ffecd9; stroke-width:1; fill:#ffffff; fill-opacity:100%"></rect>
      <rect x="86.3542" y="39.4889" width="11.4696" height="7.47272"
       style=" stroke:#ffecd9; stroke-width:1; fill:#ffffff; fill-opacity:100%"></rect>
      <rect x="67.037" y="39.4889" width="11.4696" height="7.47272"
       style=" stroke:#ffecd9; stroke-width:1; fill:#ffffff; fill-opacity:100%"></rect>
    </g>
    <rect x="4" y="4" width="115" height="45"
     style="stroke:none; fill:#878787; fill-opacity:0%" class="TAG:grid"></rect>
  </symbol>
 </defs>
</svg>
