<?xml version="1.0"?>
<?metis version="3.0"?>
<!DOCTYPE svg  PUBLIC "-//W3C//DTD SVG August 1999//EN"
 "http://www.w3.org/Graphics/SVG/svg-19990812.dtd">

<svg width="200" height="200">
 <title>Symbol library: GEM_GOAL.svg</title>
 <defs>
  <symbol id="oid0" xml:space="preserve" class="METIS_SYMBOL">
   <title>Goal</title>
    <rect x="4" y="4" width="121" height="96"
     style=" stroke:#9b9b9b; stroke-width:1; fill:#9b9b9b; fill-opacity:100%" class="TAG:shadow"></rect>
    <rect x="0" y="-8.88178e-016" width="123" height="98"
     style=" stroke:#000000; stroke-width:1; fill:#ffffff; fill-opacity:100%" class="TAG:border"></rect>
    <rect x="4" y="4" width="115" height="90"
     style="stroke:none; fill:#ffffa5; fill-opacity:100%" class="TAG:canvas"></rect>
    <g>
      <desc>METIS_TEXT_GROUP</desc>
      <text  x="5" y="67.8"
       style=" stroke:#000000; stroke-width:1; font-family:sans-serif; font-size:16; text-align:center" class="TAG:text"
>text</text>
      <rect x="5" y="52" width="113" height="41"
       style=" stroke:#000000; stroke-width:1; fill:#ffffff; fill-opacity:0%"></rect>
    </g>
    <g>
      <path d="M 80.6748 6.73129 C 87.1169 7.07035 91.2918 8.41108 
       92.1274 9.29306 C 94.8399 12.1562 98.4759 19.3775 98.3058 26.7357 
       C 98.1551 33.2531 95.5933 45.3839 88.8122 46.7401 C 88.4797 46.8066 
       79.3186 47.7573 79.3186 47.7573 Z"
       style=" stroke:#464646; stroke-width:1; fill:#878787; fill-opacity:100%" class="TAG:TargetSide"></path>
      <ellipse  cx="78.9385" cy="27.2907" rx="13.6336" ry="20.4797"
       style=" stroke:#464646; stroke-width:1; fill:#b9b9b9; fill-opacity:100%" class="TAG:Circle5"></ellipse>
      <ellipse  cx="78.6585" cy="27.1682" rx="10.3653" ry="16.6802"
       style=" stroke:#000000; stroke-width:1; fill:#000000; fill-opacity:100%" class="TAG:Circle4"></ellipse>
      <ellipse  cx="78.4717" cy="26.923" rx="7.19033" ry="13.1901"
       style=" stroke:#000000; stroke-width:1; fill:#0000dc; fill-opacity:100%" class="TAG:Circle3"></ellipse>
      <ellipse  cx="78.4367" cy="27.2265" rx="4.35389" ry="9.52487"
       style=" stroke:#000000; stroke-width:1; fill:#ff0000; fill-opacity:100%" class="TAG:Circle2"></ellipse>
      <ellipse  cx="78.2849" cy="27.2641" rx="1.58748" ry="5.26114"
       style=" stroke:#000000; stroke-width:1; fill:#ffff37; fill-opacity:100%" class="TAG:Circle1"></ellipse>
      <polygon points="26.9003 24.4439 42.7599 24.4439 47.5177 27.6158 
       42.7599 30.7877 26.9003 30.7877 31.6582 27.6158 31.6582 27.6158 26.9003 24.4439 "
       style=" stroke:#a5a500; stroke-width:1; fill:#dcdc00; fill-opacity:100%"></polygon>
      <polyline points="72.8931 27.6158 31.6582 27.6158"
       style=" stroke:#a85400; stroke-width:3;" class="TAG:ArrowShaft"></polyline>
      <polygon points="78.4439 27.6158 60.2054 32.3737 63.3773 27.6158 
       60.2054 22.8579 78.4439 27.6158 "
       style=" stroke:#9b9b9b; stroke-width:1; fill:#dcdcdc; fill-opacity:100%" class="TAG:ArrowHead"></polygon>
    </g>
    <rect x="4" y="4" width="115" height="45"
     style="stroke:none; fill:#878787; fill-opacity:0%" class="TAG:grid"></rect>
  </symbol>
 </defs>
</svg>
