<?xml version="1.0"?>
<?metis version="3.0"?>
<!DOCTYPE svg  PUBLIC "-//W3C//DTD SVG August 1999//EN"
 "http://www.w3.org/Graphics/SVG/svg-19990812.dtd">

<svg width="200" height="200">
 <title>Symbol library: GEM_CATALOG_PART.svg</title>
 <defs>
  <symbol id="oid0" xml:space="preserve" class="METIS_SYMBOL">
   <title>Catalog Part</title>
    <rect x="4" y="4" width="121" height="96"
     style=" stroke:#9b9b9b; stroke-width:1; fill:#9b9b9b; fill-opacity:100%" class="TAG:shadow"></rect>
    <rect x="0" y="0" width="123" height="98"
     style=" stroke:#000000; stroke-width:1; fill:#ffffff; fill-opacity:100%" class="TAG:border"></rect>
    <rect x="4" y="4" width="115" height="90"
     style="stroke:none; fill:#b9b9b9; fill-opacity:100%" class="TAG:canvas"></rect>
    <g>
      <desc>METIS_TEXT_GROUP</desc>
      <text  x="5" y="67.8"
       style=" stroke:#000000; stroke-width:1; font-family:sans-serif; font-size:16; text-align:center" class="TAG:text"
>text</text>
      <rect x="5" y="52" width="113" height="41"
       style=" stroke:#000000; stroke-width:1; fill:#ffffff; fill-opacity:0%"></rect>
    </g>
    <g>
      <polygon points="69.3167 25.7777 70.647 26.9418 78.1789 25.3199 
       80.1028 25.3199 80.0926 25.8954 83.4083 25.8954 83.4083 25.3068 
       85.4652 25.3199 92.8948 26.8371 93.9796 25.4245 92.0659 22.3639 
       71.9876 22.3639 69.3167 25.7777 "
       style=" stroke:#696969; stroke-width:1; fill:#dcdcdc; fill-opacity:100%" class="TAG:BookEdge"></polygon>
      <polygon points="81.5663 5.29489 83.3162 4.11772 85.4345 4.11772 
       94 6.11891 94 25.4245 85.5266 23.541 83.5004 23.541 
       81.5663 24.6005 81.5663 5.29489 "
       style=" stroke:#696969; stroke-width:1; fill:#ffffff; fill-opacity:100%" class="TAG:Catalog"></polygon>
      <polygon points="81.5663 5.29489 80.1847 4 77.698 4 
       69.3167 7.17836 69.3167 25.6599 78.0663 23.541 80.0926 23.541 
       81.5663 24.6005 81.5663 5.29489 "
       style=" stroke:#696969; stroke-width:1; fill:#ffffff; fill-opacity:100%" class="TAG:Catalog"></polygon>
      <rect x="32" y="8.93605" width="45.094" height="39.064"
       style=" stroke:#696969; stroke-width:1; fill:#ffffff; fill-opacity:100%" class="TAG:Rectangle"></rect>
      <polyline points="37.1357 20.9434 56.6764 20.9434"
       style=" stroke:#000000; stroke-width:1;"></polyline>
      <polyline points="37.0104 26.8671 56.5512 26.8671"
       style=" stroke:#000000; stroke-width:1;"></polyline>
      <polyline points="36.6347 33.4311 56.1754 33.4311"
       style=" stroke:#000000; stroke-width:1;"></polyline>
      <polyline points="36.7599 40.6355 56.3006 40.6355"
       style=" stroke:#000000; stroke-width:1;"></polyline>
      <rect x="37.0104" y="13.4188" width="20.0418" height="3.20197"
       style=" stroke:#dcdcdc; stroke-width:1; fill:#dcdcdc; fill-opacity:100%" class="TAG:TextBlock"></rect>
      <polygon points="73.3362 14.6996 60.8101 14.6996 64.3228 20.4585 
       64.3228 41.2551 66.9614 44.3466 69.5783 41.2759 69.5783 19.8227 73.3362 14.6996 "
       style=" stroke:#464646; stroke-width:1; fill:#b9b9b9; fill-opacity:100%" class="TAG:Screw"></polygon>
      <polyline points="65.57 22.1116 69.5783 25.2661"
       style=" stroke:#464646; stroke-width:1;"></polyline>
      <polyline points="65.4586 26.2385 69.467 29.3931"
       style=" stroke:#464646; stroke-width:1;"></polyline>
      <polyline points="65.3473 30.5552 69.3556 33.7098"
       style=" stroke:#464646; stroke-width:1;"></polyline>
      <polyline points="65.2359 34.8719 69.2443 38.0265"
       style=" stroke:#464646; stroke-width:1;"></polyline>
      <ellipse  cx="67.2777" cy="14.6409" rx="6.13781" ry="1.76108"
       style=" stroke:#464646; stroke-width:1; fill:#b9b9b9; fill-opacity:100%" class="TAG:Screw"></ellipse>
      <polyline points="70.6597 12.8798 64.8977 16.4019"
       style=" stroke:#464646; stroke-width:1;"></polyline>
    </g>
    <rect x="4" y="4" width="115" height="45"
     style="stroke:none; fill:#878787; fill-opacity:0%" class="TAG:grid"></rect>
  </symbol>
 </defs>
</svg>
