<?xml version="1.0"?>
<?metis version="3.0"?>
<?metisxml version="1.0"?>
<!DOCTYPE svg  PUBLIC "-//W3C//DTD SVG August 1999//EN"
 "http://www.w3.org/Graphics/SVG/svg-19990812.dtd">

<svg width="200" height="200">
 <title>Symbol library: gem_report_gen.svg</title>
 <defs>
  <symbol id="oid0" xml:space="preserve" class="METIS_SYMBOL">
   <title>Report Gen</title>
    <rect x="4" y="4" width="121" height="96"
     style=" stroke:#9b9b9b; stroke-width:1; fill:#9b9b9b; fill-opacity:100%" class="TAG:shadow"></rect>
    <rect x="0" y="0" width="123" height="98"
     style=" stroke:#000000; stroke-width:1; fill:#ffffff; fill-opacity:100%" class="TAG:border"></rect>
    <rect x="4" y="4" width="115" height="90"
     style="stroke:none; fill:#b9b9b9; fill-opacity:100%" class="TAG:canvas"></rect>
    <g>
      <desc>METIS_TEXT_GROUP</desc>
      <text  x="5" y="67.8"
       style=" stroke:#000000; stroke-width:1; font-family:sans-serif; font-size:16; text-align:center" class="TAG:text"
>text</text>
      <rect x="5" y="52" width="113" height="41"
       style=" stroke:#000000; stroke-width:1; fill:#ffffff; fill-opacity:0%"></rect>
    </g>
    <rect x="4" y="4" width="115" height="45"
     style="stroke:none; fill:#878787; fill-opacity:0%" class="TAG:grid"></rect>
    <g>
      <polyline points="40.549 44.1532 60.3443 37.8947"
       style=" stroke:#000000; stroke-width:1;"></polyline>
      <polyline points="40.8165 47.0738 61.6818 40.3981"
       style=" stroke:#000000; stroke-width:1;"></polyline>
      <polygon points="36.5536 6.60217 79.1719 6.60217 84.4195 18.702 
       80.1395 30.8017 85.4895 41.8584 82.2795 52.2892 36.5536 52.2892 
       40.2815 41.6498 36.3316 30.8017 41.3515 18.702 36.5536 6.60217 36.5536 6.60217 "
       style=" stroke:#000000; stroke-width:1; fill:#ffffff; fill-opacity:100%"></polygon>
      <polyline points="40.549 41.8584 85.4895 41.8584"
       style=" stroke:#000000; stroke-width:1;"></polyline>
      <polyline points="36.4027 30.8017 80.02 30.8017"
       style=" stroke:#000000; stroke-width:1;"></polyline>
      <polyline points="41.5521 18.702 84.152 18.702"
       style=" stroke:#000000; stroke-width:1;"></polyline>
      <polygon points="36.804 6.81077 39.7465 13.0693 81.477 12.6521 
       78.5344 6.81077 36.804 6.81077 36.804 6.81077 "
       style=" stroke:#ffffff; stroke-width:1; fill:#c8ffc8; fill-opacity:100%" class="TAG:ReportShading"></polygon>
      <polygon points="36.804 31.0103 38.6765 36.8517 82.8145 36.8517 
       79.7575 31.0103 36.804 31.0103 36.804 31.0103 "
       style=" stroke:#ffffff; stroke-width:1; fill:#c8ffc8; fill-opacity:100%" class="TAG:ReportShading"></polygon>
      <polygon points="41.619 18.9106 83.8845 19.1192 81.7445 24.9605 
       38.944 24.7518 41.619 18.9106 41.619 18.9106 "
       style=" stroke:#ffffff; stroke-width:1; fill:#c8ffc8; fill-opacity:100%" class="TAG:ReportShading"></polygon>
      <polygon points="40.8165 42.0671 84.9545 42.0671 83.3495 48.117 
       38.6765 47.9084 40.8165 42.0671 40.8165 42.0671 "
       style=" stroke:#ffffff; stroke-width:1; fill:#c8ffc8; fill-opacity:100%" class="TAG:ReportShading"></polygon>
      <ellipse  cx="41.2178" cy="9.41853" rx="0.93626" ry="0.730159"
       style=" stroke:#000000; stroke-width:1; fill:#ffffff; fill-opacity:100%"></ellipse>
      <ellipse  cx="42.9565" cy="14.7382" rx="0.93626" ry="0.730159"
       style=" stroke:#000000; stroke-width:1; fill:#ffffff; fill-opacity:100%"></ellipse>
      <ellipse  cx="42.689" cy="21.8312" rx="0.93626" ry="0.730159"
       style=" stroke:#000000; stroke-width:1; fill:#ffffff; fill-opacity:100%"></ellipse>
      <ellipse  cx="40.549" cy="26.838" rx="0.93626" ry="0.730159"
       style=" stroke:#000000; stroke-width:1; fill:#ffffff; fill-opacity:100%"></ellipse>
      <ellipse  cx="40.2815" cy="33.7223" rx="0.93626" ry="0.730159"
       style=" stroke:#000000; stroke-width:1; fill:#ffffff; fill-opacity:100%"></ellipse>
      <ellipse  cx="41.619" cy="37.8947" rx="0.93626" ry="0.730159"
       style=" stroke:#000000; stroke-width:1; fill:#ffffff; fill-opacity:100%"></ellipse>
      <ellipse  cx="42.154" cy="44.7791" rx="0.93626" ry="0.730159"
       style=" stroke:#000000; stroke-width:1; fill:#ffffff; fill-opacity:100%"></ellipse>
      <ellipse  cx="40.2815" cy="49.3686" rx="0.93626" ry="0.730159"
       style=" stroke:#000000; stroke-width:1; fill:#ffffff; fill-opacity:100%"></ellipse>
      <ellipse  cx="76.9963" cy="9.1578" rx="0.93626" ry="0.730159"
       style=" stroke:#000000; stroke-width:1; fill:#ffffff; fill-opacity:100%"></ellipse>
      <ellipse  cx="79.2701" cy="14.6861" rx="0.93626" ry="0.730159"
       style=" stroke:#000000; stroke-width:1; fill:#ffffff; fill-opacity:100%"></ellipse>
      <ellipse  cx="79.8051" cy="50.1509" rx="0.93626" ry="0.730159"
       style=" stroke:#000000; stroke-width:1; fill:#ffffff; fill-opacity:100%"></ellipse>
      <ellipse  cx="81.4101" cy="45.5614" rx="0.93626" ry="0.730159"
       style=" stroke:#000000; stroke-width:1; fill:#ffffff; fill-opacity:100%"></ellipse>
      <ellipse  cx="80.6076" cy="38.677" rx="0.93626" ry="0.730159"
       style=" stroke:#000000; stroke-width:1; fill:#ffffff; fill-opacity:100%"></ellipse>
      <ellipse  cx="78.2001" cy="34.296" rx="0.93626" ry="0.730159"
       style=" stroke:#000000; stroke-width:1; fill:#ffffff; fill-opacity:100%"></ellipse>
      <ellipse  cx="77.9326" cy="28.0376" rx="0.93626" ry="0.730159"
       style=" stroke:#000000; stroke-width:1; fill:#ffffff; fill-opacity:100%"></ellipse>
      <ellipse  cx="79.5376" cy="22.1963" rx="0.93626" ry="0.730159"
       style=" stroke:#000000; stroke-width:1; fill:#ffffff; fill-opacity:100%"></ellipse>
    </g>
  </symbol>
 </defs>
</svg>
