<?xml version="1.0"?>
<?metis version="3.1"?>
<?metisxml version="1.0"?>
<!DOCTYPE svg  PUBLIC "-//W3C//DTD SVG August 1999//EN"
 "http://www.w3.org/Graphics/SVG/svg-19990812.dtd">

<svg width="200" height="200">
 <title>Symbol library: gem_tool.svg</title>
 <defs>
  <symbol id="oid0" xml:space="preserve" class="METIS_SYMBOL">
   <title>Tool</title>
    <rect x="4" y="4" width="121" height="96"
     style=" stroke:#9b9b9b; stroke-width:1; fill:#9b9b9b; fill-opacity:100%"     class="TAG:shadow"></rect>
    <rect x="0" y="0" width="123" height="98"
     style=" stroke:#000000; stroke-width:1; fill:#ffffff; fill-opacity:100%"     class="TAG:border"></rect>
    <rect x="4" y="4" width="115" height="90"
     style="stroke:none; fill:#96a5ff; fill-opacity:100%"     class="TAG:canvas"></rect>
    <g>
      <desc>METIS_TEXT_GROUP</desc>
      <text  x="5" y="67.8"
       style=" stroke:#000000; stroke-width:1; font-family:sans-serif; font-size:16; text-align:center"
       class="TAG:text">text</text>
      <rect x="5" y="52" width="113" height="41"
       style=" stroke:#000000; stroke-width:1; fill:#ffffff; fill-opacity:0%"></rect>
    </g>
    <g>
      <g>
	<polygon points="70.5394 25.3398 70.5394 15.8918 72.5415 13.6688 
	 74.5435 13.6688 75.6698 14.558 78.0472 14.558 78.7979 13.6688 
	 78.7979 9.77844 77.5467 9.00037 74.6687 9.00037 74.1682 9.88959 
	 73.2923 9.88959 71.1651 8 65.5342 8 62.1556 11.0011 
	 58.4017 17.2256 58.2766 19.3375 60.5289 17.8926 64.408 14.1134 
	 65.5342 14.1134 66.4101 15.3361 66.4101 25.5621 70.5394 25.3398 70.5394 25.3398 "
	 style=" stroke:#000000; stroke-width:1; fill:#dcdcdc; fill-opacity:100%"></polygon>
	<polygon points="66.424 25.3614 65.8331 25.9913 65.5967 44.0474 
	 65.124 48.7713 72.2147 48.7713 71.3875 43.9424 71.1511 25.8863 
	 70.5602 25.3614 66.424 25.3614 66.424 25.3614 "
	 style=" stroke:#000000; stroke-width:1; fill:#a50000; fill-opacity:100%"></polygon>
      </g>
      <g>
	<polygon points="83.944 19.5876 81.2848 18.9971 56.8219 36.8301 
	 48.9777 36.8301 44.5904 42.4989 44.8563 44.0341 47.3823 44.0341 
	 49.9084 42.8532 50.0414 41.0818 50.0414 39.5465 50.972 39.1922 
	 50.972 42.7351 51.7697 44.3885 49.7755 45.4514 44.5904 45.4514 
	 44.5904 47.8133 51.5038 48.4039 56.0242 47.6953 58.6832 42.0265 
	 84.7417 23.603 85.0075 20.4143 83.944 19.5876 83.944 19.5876 "
	 style=" stroke:#000000; stroke-width:1; fill:#9b9b9b; fill-opacity:100%"></polygon>
	<rect x="52.7004" y="38.7197" width="2.79198" height="3.42489" rx="10" ry="10"
	 style=" stroke:#000000; stroke-width:1; fill:#464646; fill-opacity:100%"></rect>
	<polyline points="52.7004 40.0188 55.4924 40.0188"
	 style=" stroke:#000000; stroke-width:1;"></polyline>
	<polyline points="52.7004 41.0818 55.4924 41.0818"
	 style=" stroke:#000000; stroke-width:1;"></polyline>
	<ellipse  cx="82.0162" cy="21.8905" rx="0.997135" ry="1.24005"
	 style=" stroke:#000000; stroke-width:1; fill:#ffffff; fill-opacity:100%"></ellipse>
	<polygon points="57.8854 37.8931 80.3542 22.1858 81.1519 24.3116 
	 58.9491 40.0188 57.8854 37.8931 57.8854 37.8931 "
	 style=" stroke:#000000; stroke-width:1; fill:#9b9b9b; fill-opacity:100%"></polygon>
      </g>
      <g>
	<polygon points="47.2442 13.7625 44 16.6443 44 19.0651 
	 58.4044 30.4771 60.0914 30.2466 60.0914 31.5145 61.7784 31.745 
	 63.3356 34.7422 68.786 29.2091 65.0226 28.4022 65.0226 26.7883 
	 63.0761 26.6731 63.3356 25.2899 49.4503 13.7625 47.2442 13.7625 47.2442 13.7625 "
	 style=" stroke:#000000; stroke-width:1; fill:#006e00; fill-opacity:100%"></polygon>
	<polygon points="66.8394 31.284 65.4119 32.7825 79.5568 44.3098 
	 79.8163 46.1542 85.6559 48.1138 86.3047 47.1917 82.6713 43.0418 
	 81.114 42.8113 66.8394 31.284 66.8394 31.284 "
	 style=" stroke:#000000; stroke-width:1; fill:#dcdcdc; fill-opacity:100%"></polygon>
	<polygon points="48.8015 16.4138 46.9847 18.0276 64.7631 31.9757 
	 66.1906 30.5923 48.8015 16.4138 48.8015 16.4138 "
	 style=" stroke:#000000; stroke-width:1; fill:#006e00; fill-opacity:100%"></polygon>
      </g>
    </g>
  </symbol>
 </defs>
</svg>
