<?xml version="1.0"?>
<?metis version="3.0"?>
<!DOCTYPE svg  PUBLIC "-//W3C//DTD SVG August 1999//EN"
 "http://www.w3.org/Graphics/SVG/svg-19990812.dtd">

<svg width="200" height="200">
 <title>Symbol library: GEM_DIRECTORY.svg</title>
 <defs>
  <symbol id="oid0" xml:space="preserve" class="METIS_SYMBOL">
   <title>Directory</title>
    <rect x="4" y="4" width="121" height="96"
     style=" stroke:#9b9b9b; stroke-width:1; fill:#9b9b9b; fill-opacity:100%" class="TAG:shadow"></rect>
    <rect x="0" y="0" width="123" height="98"
     style=" stroke:#000000; stroke-width:1; fill:#ffffff; fill-opacity:100%" class="TAG:border"></rect>
    <rect x="4" y="4" width="115" height="90"
     style="stroke:none; fill:#b9b9b9; fill-opacity:100%" class="TAG:canvas"></rect>
    <g>
      <desc>METIS_TEXT_GROUP</desc>
      <text  x="5" y="67.8"
       style=" stroke:#000000; stroke-width:1; font-family:sans-serif; font-size:16; text-align:center" class="TAG:text"
>text</text>
      <rect x="5" y="52" width="113" height="41"
       style=" stroke:#000000; stroke-width:1; fill:#ffffff; fill-opacity:0%"></rect>
    </g>
    <g>
      <polygon points="68.3529 38.9412 68.3529 49.6471 84 49.6471 
       84 38.9412 76.5882 38.9412 75.4536 38.1177 69.1765 38.1177 68.3529 38.9412 "
       style=" stroke:#878787; stroke-width:1; fill:#dcdc00; fill-opacity:100%" class="TAG:Subdirectory"></polygon>
      <polygon points="68.3529 23.2941 68.3529 34 84 34 
       84 23.2941 76.5882 23.2941 75.7647 22.4706 69.1765 22.4706 68.3529 23.2941 "
       style=" stroke:#878787; stroke-width:1; fill:#dcdc00; fill-opacity:100%" class="TAG:Subdirectory"></polygon>
      <polyline points="50.2353 17.5294 50.2353 43.8824 68.3529 43.8824"
       style=" stroke:#6e6e00; stroke-width:1;"></polyline>
      <polygon points="42 6.82353 42 17.5294 57.6471 17.5294 
       57.6471 6.82353 50.2353 6.82353 49.4118 6 42.8235 6 42 6.82353 "
       style=" stroke:#878787; stroke-width:1; fill:#ffffa5; fill-opacity:100%" class="TAG:Directory"></polygon>
      <polyline points="50.2353 17.5294 50.2353 28.2353 68.3529 28.2353"
       style=" stroke:#6e6e00; stroke-width:1;"></polyline>
      <g>
	<rect x="48.5882" y="26.5883" width="3.29412" height="3.29412"
	 style=" stroke:#000000; stroke-width:1; fill:#ffffff; fill-opacity:100%"></rect>
	<polyline points="50.2353 27.4118 50.2353 29.0588 50.2353 29.0588"
	 style=" stroke:#000000; stroke-width:2;"></polyline>
	<polyline points="49.4118 28.2353 51.0588 28.2353"
	 style=" stroke:#000000; stroke-width:2;"></polyline>
      </g>
      <rect x="48.5882" y="42.2353" width="3.29412" height="3.29412"
       style=" stroke:#000000; stroke-width:1; fill:#ffffff; fill-opacity:100%"></rect>
      <polyline points="50.2353 43.0589 50.2353 44.7059 50.2353 44.7059"
       style=" stroke:#000000; stroke-width:2;"></polyline>
      <polyline points="49.4118 43.8824 51.0588 43.8824"
       style=" stroke:#000000; stroke-width:2;"></polyline>
    </g>
    <rect x="4" y="4" width="115" height="45"
     style="stroke:none; fill:#878787; fill-opacity:0%" class="TAG:grid"></rect>
  </symbol>
 </defs>
</svg>
