<?xml version="1.0"?>
<?metis version="3.0"?>
<!DOCTYPE svg  PUBLIC "-//W3C//DTD SVG August 1999//EN"
 "http://www.w3.org/Graphics/SVG/svg-19990812.dtd">

<svg width="200" height="200">
 <title>Symbol library: GEM_CONCEPT.svg</title>
 <defs>
  <symbol id="oid0" xml:space="preserve" class="METIS_SYMBOL">
   <title>Concept</title>
    <rect x="4" y="4" width="121" height="96"
     style=" stroke:#9b9b9b; stroke-width:1; fill:#9b9b9b; fill-opacity:100%" class="TAG:shadow"></rect>
    <rect x="0" y="0" width="123" height="98"
     style=" stroke:#000000; stroke-width:1; fill:#ffffff; fill-opacity:100%" class="TAG:border"></rect>
    <rect x="4" y="4" width="115" height="90"
     style="stroke:none; fill:#ffb4b4; fill-opacity:100%" class="TAG:canvas"></rect>
    <g>
      <desc>METIS_TEXT_GROUP</desc>
      <text  x="5" y="67.8"
       style=" stroke:#000000; stroke-width:1; font-family:sans-serif; font-size:16; text-align:center" class="TAG:text"
>text</text>
      <rect x="5" y="52" width="113" height="41"
       style=" stroke:#000000; stroke-width:1; fill:#ffffff; fill-opacity:0%"></rect>
    </g>
    <g>
      <path d="M 56.8709 38.6229 C 56.7623 37.4626 56.6298 34.3074 
       56.0608 33.2606 C 54.812 30.9631 51.3818 28.2776 50.441 26.409 
       C 49.5626 24.6644 48 22.5387 48.3406 18.2718 C 48.7166 13.5609 
       50.4977 11.2697 52.4845 9.17728 C 54.83 6.7071 60.0674 6 
       62.5114 6.00983 C 64.5758 6.01813 68.7764 6.56517 71.0471 8.75332 
       C 73.8854 11.4885 75.4748 13.5673 75.7303 18.0393 C 76 22.7599 
       74.8857 24.1143 73.8854 26.1491 C 72.8636 28.2278 69.7043 30.8611 
       68.6629 33.37 C 68.2088 34.4641 67.7547 37.0898 67.5276 38.5122 
       C 67.4285 39.1328 67.4683 42.4766 67.4141 43.1073 C 67.3339 44.0405 
       67.7391 45.737 67.2117 46.7761 C 66.5437 48.0925 64.1745 49.7846 
       62.3051 49.8906 C 60.3751 50 58.524 48.7546 57.5935 47.087 
       C 57.0541 46.1203 56.7834 45.4484 56.8271 43.1483 Z"
       style=" stroke:#000000; stroke-width:1; fill:#ffffff; fill-opacity:100%" class="TAG:LightBulb"></path>
      <path d="M 59.5803 40.8645 C 59.5803 33.8624 59.8831 29.9237 
       59.2965 27.927 C 59.0208 26.9886 57.4578 25.1706 56.2311 21.6908 
       C 55.3922 19.3112 55.9809 17.8605 57.6965 17.8605 C 59.1446 17.8605 
       60.6568 19.0584 60.6568 20.389 C 60.6568 21.7506 59.6685 23.1954 
       59.0421 23.1445 C 58.3429 23.0877 57.7638 21.7834 57.7638 20.4863 
       C 57.7638 19.0924 59.3077 17.8929 60.7577 17.8929 C 61.9351 17.8929 
       63.5529 18.9964 63.4825 20.4215 C 63.4152 21.783 62.6178 23.1117 
       61.9014 23.1445 C 61.0379 23.184 60.6929 21.8489 60.6568 20.4215 
       C 60.6231 19.0924 62.1373 17.862 63.5834 17.8929 C 65.0972 17.9253 
       66.5437 19.1572 66.5437 20.5511 C 66.5437 21.9451 65.8045 23.1324 
       64.9963 23.1121 C 64.2132 23.0924 63.4848 21.7506 63.5161 20.4215 
       C 63.5498 18.9951 64.819 17.8929 66.5437 17.8929 C 68.2929 17.8929 
       68.9656 19.4084 68.1583 21.6857 C 66.8869 25.2722 65.4514 26.9489 
       65.0867 28.0912 C 64.4055 30.2246 64.5758 40.7277 64.5758 40.7277"
       style=" stroke:#000000; stroke-width:1;" class="TAG:LightBulb"></path>
      <path d="M 56.8555 40.0825 C 58.7445 40.5706 59.8557 41.4459 
       62.078 41.3323 C 64.7089 41.1978 66.1893 40.68 67.3006 39.9689 
       C 67.3006 39.9689 67.3006 39.9689 67.3006 39.9689"
       style=" stroke:#000000; stroke-width:1;" class="TAG:LightBulb"></path>
      <path d="M 56.9691 42.2433 C 58.858 42.7314 59.9692 43.6067 
       62.1916 43.4931 C 64.8225 43.3586 66.3029 42.8408 67.4141 42.1297 
       C 67.4141 42.1297 67.4141 42.1297 67.4141 42.1297"
       style=" stroke:#000000; stroke-width:1;" class="TAG:LightBulb"></path>
      <path d="M 56.9691 44.4314 C 58.858 44.9196 59.9692 45.7948 
       62.1916 45.6812 C 64.8225 45.5467 66.3029 45.029 67.4141 44.3178 
       C 67.4141 44.3178 67.4141 44.3178 67.4141 44.3178"
       style=" stroke:#000000; stroke-width:1;" class="TAG:LightBulb"></path>
      <path d="M 57.4232 46.5881 C 59.3122 47.0762 60.1963 47.7642 
       62.4186 47.6506 C 65.0495 47.5161 66.0758 47.0804 67.187 46.3693"
       style=" stroke:#000000; stroke-width:1;" class="TAG:LightBulb"></path>
    </g>
    <rect x="4" y="4" width="115" height="45"
     style="stroke:none; fill:#878787; fill-opacity:0%" class="TAG:grid"></rect>
  </symbol>
 </defs>
</svg>
