<?xml version="1.0"?>
<?metis version="3.0"?>
<!DOCTYPE svg  PUBLIC "-//W3C//DTD SVG August 1999//EN"
 "http://www.w3.org/Graphics/SVG/svg-19990812.dtd">

<svg width="200" height="200">
 <title>Symbol library: GEM_DOC_OFF_LINE.svg</title>
 <defs>
  <symbol id="oid0" xml:space="preserve" class="METIS_SYMBOL">
   <title>Offline Document</title>
    <g>
      <rect x="4" y="4" width="121" height="96"
       style=" stroke:#9b9b9b; stroke-width:1; fill:#9b9b9b; fill-opacity:100%" class="TAG:shadow"></rect>
      <rect x="0" y="-8.88178e-016" width="123" height="98"
       style=" stroke:#000000; stroke-width:1; fill:#ffffff; fill-opacity:100%" class="TAG:border"></rect>
      <rect x="4" y="4" width="115" height="90"
       style="stroke:none; fill:#b9b9b9; fill-opacity:100%" class="TAG:canvas"></rect>
      <g>
	<desc>METIS_TEXT_GROUP</desc>
	<text  x="5" y="67.8"
	 style=" stroke:#000000; stroke-width:1; font-family:sans-serif; font-size:16; text-align:center" class="TAG:text"
>text</text>
	<rect x="5" y="52" width="113" height="41"
	 style=" stroke:#000000; stroke-width:1; fill:#ffffff; fill-opacity:0%"></rect>
      </g>
    </g>
    <g>
      <polyline points="63.8973 40.1058 72.9282 36.8948"
       style=" stroke:#000000; stroke-width:1;"></polyline>
      <rect x="45.8688" y="11.6415" width="13.4461" height="35.9231"
       style=" stroke:#000000; stroke-width:1; fill:#96a5ff; fill-opacity:100%" class="TAG:BookCover"></rect>
      <polygon points="59.3149 11.6415 76.9754 6.42362 76.9754 41.1426 
       59.3421 47.5788 59.3149 11.6415 "
       style=" stroke:#000000; stroke-width:1; fill:#96a5ff; fill-opacity:100%" class="TAG:BookCover"></polygon>
      <polyline points="63.9976 37.4968 73.0286 34.2858"
       style=" stroke:#000000; stroke-width:1;"></polyline>
      <polygon points="45.9118 11.6415 64.1744 6.62431 64.1744 10.2367 
       59.3579 11.6415 45.9118 11.6415 "
       style=" stroke:#000000; stroke-width:1; fill:#96a5ff; fill-opacity:100%" class="TAG:BookCover"></polygon>
      <polygon points="47.2736 11.6415 63.1279 7.62775 73.207 7.6166 
       59.3818 11.6304 47.2736 11.6415 "
       style=" stroke:#000000; stroke-width:1; fill:#dcdcdc; fill-opacity:100%" class="TAG:Pages"></polygon>
      <polyline points="52.2908 11.5412 67.0526 7.6166"
       style=" stroke:#000000; stroke-width:1;"></polyline>
      <polyline points="55.2565 11.4297 68.3012 7.91763"
       style=" stroke:#000000; stroke-width:1;"></polyline>
      <polyline points="57.7094 11.3405 70.9548 7.62774"
       style=" stroke:#000000; stroke-width:1;" class="TAG:Pages"></polyline>
      <polyline points="49.8826 11.6415 64.3767 7.70579"
       style=" stroke:#000000; stroke-width:1;"></polyline>
      <polygon points="62.1915 16.2239 74.032 12.0094 74.032 19.0335 
       62.1915 23.4486 62.1915 16.2239 "
       style=" stroke:#dcdcdc; stroke-width:1; fill:#dcdcdc; fill-opacity:100%" class="TAG:BookTitle"></polygon>
      <polyline points="49.1467 16.0232 56.1708 16.0232"
       style=" stroke:#000000; stroke-width:1;"></polyline>
      <polyline points="49.0464 21.0404 56.0704 21.0404"
       style=" stroke:#000000; stroke-width:1;"></polyline>
      <polyline points="49.0464 18.4314 56.0704 18.4314"
       style=" stroke:#000000; stroke-width:1;"></polyline>
    </g>
  </symbol>
 </defs>
</svg>
