<?xml version="1.0"?>
<?metis version="3.0"?>
<!DOCTYPE svg  PUBLIC "-//W3C//DTD SVG August 1999//EN"
 "http://www.w3.org/Graphics/SVG/svg-19990812.dtd">

<svg width="200" height="200">
 <title>Symbol library: GEM_STORAGE.svg</title>
 <defs>
  <symbol id="oid0" xml:space="preserve" class="METIS_SYMBOL">
   <title>Storage</title>
    <rect x="4" y="4" width="121" height="96"
     style=" stroke:#9b9b9b; stroke-width:1; fill:#9b9b9b; fill-opacity:100%" class="TAG:shadow"></rect>
    <rect x="0" y="0" width="123" height="98"
     style=" stroke:#000000; stroke-width:1; fill:#ffffff; fill-opacity:100%" class="TAG:border"></rect>
    <rect x="4" y="4" width="115" height="90"
     style="stroke:none; fill:#b9b9b9; fill-opacity:100%" class="TAG:canvas"></rect>
    <g>
      <desc>METIS_TEXT_GROUP</desc>
      <text  x="5" y="67.8"
       style=" stroke:#000000; stroke-width:1; font-family:sans-serif; font-size:16; text-align:center" class="TAG:text"
>text</text>
      <rect x="5" y="52" width="113" height="41"
       style=" stroke:#000000; stroke-width:1; fill:#ffffff; fill-opacity:0%"></rect>
    </g>
    <g>
      <path d="M 44 11.7215 C 44 30.379 44 27.2695 
       44 43.9835 C 44 45.1495 52.3104 47.8677 62.2366 47.8677 
       C 71.6747 47.8677 79.8223 45.5383 79.8223 44.1779 C 79.8223 29.0186 
       79.8223 22.2164 79.8223 11.3328 C 79.8223 9.97236 69.5716 8 
       61.5857 8 C 53.1435 8 44.0247 10.157 44.2282 11.3328 
       C 44.2282 11.3328 44.2282 11.3328 44.2282 11.3328 Z"
       style=" stroke:#878787; stroke-width:1; fill:#464646; fill-opacity:100%" class="TAG:StorageDevice"></path>
      <path d="M 44.4563 12.4017 C 48.7915 15.7057 55.1802 16.4831 
       62.0253 16.4831 C 69.3266 16.4831 75.0054 16.1375 79.5688 12.4449"
       style=" stroke:#b9b9b9; stroke-width:1;"></path>
    </g>
    <rect x="4" y="4" width="115" height="45"
     style="stroke:none; fill:#878787; fill-opacity:0%" class="TAG:grid"></rect>
  </symbol>
 </defs>
</svg>
