<?xml version="1.0"?>
<?metis version="3.0"?>
<!DOCTYPE svg  PUBLIC "-//W3C//DTD SVG August 1999//EN"
 "http://www.w3.org/Graphics/SVG/svg-19990812.dtd">

<svg width="200" height="200">
 <title>Symbol library: GEM_REPORT.svg</title>
 <defs>
  <symbol id="oid0" xml:space="preserve" class="METIS_SYMBOL">
   <title>Report</title>
    <g>
      <polygon points="0 256 160 256 192 236 
       192 32 160 0 0 0 0 256 "
       style=" stroke:#000000; stroke-width:1; fill:#a5ffa5; fill-opacity:100%" class="TAG:canvas"></polygon>
      <polyline points="152 0 152 0 184 32 
       184 240"
       style=" stroke:#000000; stroke-width:1;" class="TAG:icon"></polyline>
      <polyline points="144 0 144 0 176 32 
       176 246"
       style=" stroke:#000000; stroke-width:1;" class="TAG:icon"></polyline>
      <polyline points="136 0 136 0 168 32 
       168 250"
       style=" stroke:#000000; stroke-width:1;" class="TAG:icon"></polyline>
      <polyline points="128 0 128 0 160 32 
       160 256"
       style=" stroke:#000000; stroke-width:1;" class="TAG:icon"></polyline>
      <polyline points="128 0 128 0 128 32 
       160 32"
       style=" stroke:#000000; stroke-width:1;" class="TAG:icon"></polyline>
      <polyline points="16 48 16 48 144 48"
       style=" stroke:#000000; stroke-width:1;" class="TAG:icon"></polyline>
      <polyline points="16 64 16 64 144 64"
       style=" stroke:#000000; stroke-width:1;" class="TAG:icon"></polyline>
      <polyline points="16 80 16 80 144 80"
       style=" stroke:#000000; stroke-width:1;" class="TAG:icon"></polyline>
      <polyline points="16 96 16 96 144 96"
       style=" stroke:#000000; stroke-width:1;" class="TAG:icon"></polyline>
      <g>
	<desc>METIS_TEXT_GROUP</desc>
	<text  x="4" y="127.8"
	 style=" stroke:#000000; stroke-width:1; font-family:sans-serif; font-weight:bold; font-size:16;" class="TAG:text"
></text>
	<rect x="4" y="112" width="152" height="140"
	 style=" stroke:#000000; stroke-width:1; fill:#000000; fill-opacity:0%"></rect>
      </g>
    </g>
  </symbol>
 </defs>
</svg>
