<?xml version="1.0"?>
<?metis version="3.0"?>
<!DOCTYPE svg  PUBLIC "-//W3C//DTD SVG August 1999//EN"
 "http://www.w3.org/Graphics/SVG/svg-19990812.dtd">

<svg width="200" height="200">
 <title>Symbol library: GEM_MACHINE.svg</title>
 <defs>
  <symbol id="oid0" xml:space="preserve" class="METIS_SYMBOL">
   <title>Machine</title>
    <rect x="4" y="4" width="121" height="96"
     style=" stroke:#9b9b9b; stroke-width:1; fill:#9b9b9b; fill-opacity:100%" class="TAG:shadow"></rect>
    <rect x="0" y="0" width="123" height="98"
     style=" stroke:#000000; stroke-width:1; fill:#ffffff; fill-opacity:100%" class="TAG:border"></rect>
    <rect x="4" y="4" width="115" height="90"
     style="stroke:none; fill:#96a5ff; fill-opacity:100%" class="TAG:canvas"></rect>
    <g>
      <desc>METIS_TEXT_GROUP</desc>
      <text  x="5" y="67.8"
       style=" stroke:#000000; stroke-width:1; font-family:sans-serif; font-size:16; text-align:center" class="TAG:text"
>text</text>
      <rect x="5" y="52" width="113" height="41"
       style=" stroke:#000000; stroke-width:1; fill:#ffffff; fill-opacity:0%"></rect>
    </g>
    <g>
      <polygon points="49.0141 16.3193 49.0141 16.3193 53.0141 31.5574 
       73.0141 23.9384 69.0141 8.70029 49.0141 16.3193 "
       style=" stroke:#000000; stroke-width:1; fill:#696969; fill-opacity:100%" class="TAG:right"></polygon>
      <polygon points="45.0141 31.5575 45.0141 39.1765 61.0141 39.1765 
       61.0141 31.5575 65.0141 16.3193 57.0141 16.3193 53.0141 31.5575 
       49.0141 16.3193 41.0141 16.3193 45.0141 31.5575 "
       style=" stroke:#000000; stroke-width:1; fill:#b9b9b9; fill-opacity:100%" class="TAG:front"></polygon>
      <polygon points="41.0141 16.3193 41.0141 16.3193 61.0141 8.70029 
       69.0141 8.70029 49.0141 16.3193 41.0141 16.3193 "
       style=" stroke:#000000; stroke-width:1; fill:#dcdcdc; fill-opacity:100%" class="TAG:top"></polygon>
      <polygon points="57.0141 16.3193 57.0141 16.3193 77.0141 8.70029 
       85.0141 8.70029 65.0141 16.3193 57.0141 16.3193 "
       style=" stroke:#000000; stroke-width:1; fill:#dcdcdc; fill-opacity:100%" class="TAG:top"></polygon>
      <polygon points="76.1703 38.5217 55.6703 46.3491 61.0141 39.1766 
       61.0141 31.5574 65.0141 16.3193 85.0141 8.70029 81.0141 23.9384 
       81.0141 31.5872 80.9203 32.9861 80.3891 34.5039 79.6391 35.8729 
       78.6703 37.004 77.5453 37.8075 76.1703 38.5217 "
       style=" stroke:#000000; stroke-width:1; fill:#696969; fill-opacity:100%" class="TAG:right"></polygon>
      <ellipse  cx="53.0141" cy="39.1765" rx="8" ry="7.61907"
       style=" stroke:#000000; stroke-width:1; fill:#b9b9b9; fill-opacity:100%" class="TAG:front"></ellipse>
      <polygon points="57.5141 9.65267 57.5141 9.65267 57.5141 11.0812 
       60.1391 11.0812 60.1391 9.65267 57.5141 9.65267 "
       style=" stroke:#000000; stroke-width:1; fill:#b9b9b9; fill-opacity:100%" class="TAG:front"></polygon>
      <polygon points="57.5141 9.65267 60.1391 8.70029 62.6391 8.70029 
       60.1391 9.65267 57.5141 9.65267 "
       style=" stroke:#000000; stroke-width:1; fill:#dcdcdc; fill-opacity:100%" class="TAG:top"></polygon>
      <polygon points="62.6391 8.70029 60.1391 9.65267 60.1391 11.0812 
       62.6391 10.1289 62.6391 8.70029 "
       style=" stroke:#000000; stroke-width:1; fill:#696969; fill-opacity:100%" class="TAG:right"></polygon>
      <polygon points="59.0141 39.1765 58.9627 38.4307 58.8096 37.6976 
       58.5574 36.9897 58.2102 36.3193 57.7742 35.6978 57.2567 35.1359 
       56.6667 34.643 56.0141 34.2278 55.3102 33.8972 54.567 33.6569 
       53.7972 33.5111 53.0141 33.4622 52.2309 33.5111 51.4612 33.6569 
       50.718 33.8972 41.0453 37.5396 45.2953 48.2241 55.3102 44.4558 
       56.0141 44.1252 56.6667 43.7099 57.2567 43.2171 57.7742 42.6552 
       58.2102 42.0336 58.5574 41.3633 58.8096 40.6554 58.9627 39.9223 59.0141 39.1765 "
       style=" stroke:#000000; stroke-width:1; fill:#696969; fill-opacity:100%" class="TAG:right"></polygon>
      <ellipse  cx="43.0141" cy="42.986" rx="6" ry="5.71429"
       style=" stroke:#000000; stroke-width:1; fill:#b9b9b9; fill-opacity:100%" class="TAG:front"></ellipse>
      <polygon points="53.3891 11.0812 53.3891 11.0812 53.3891 12.5098 
       56.0141 12.5098 56.0141 11.0812 53.3891 11.0812 "
       style=" stroke:#000000; stroke-width:1; fill:#b9b9b9; fill-opacity:100%" class="TAG:front"></polygon>
      <polygon points="53.3891 11.0812 56.0141 10.1289 58.5141 10.1289 
       56.0141 11.0812 53.3891 11.0812 "
       style=" stroke:#000000; stroke-width:1; fill:#dcdcdc; fill-opacity:100%" class="TAG:top"></polygon>
      <polygon points="58.5141 10.1289 56.0141 11.0812 56.0141 12.5098 
       58.5141 11.5574 58.5141 10.1289 "
       style=" stroke:#000000; stroke-width:1; fill:#696969; fill-opacity:100%" class="TAG:right"></polygon>
      <polygon points="49.3891 12.5098 49.3891 12.5098 49.3891 13.9384 
       52.0141 13.9384 52.0141 12.5098 49.3891 12.5098 "
       style=" stroke:#000000; stroke-width:1; fill:#b9b9b9; fill-opacity:100%" class="TAG:front"></polygon>
      <polygon points="49.3891 12.5098 52.0141 11.5574 54.5141 11.5574 
       52.0141 12.5098 49.3891 12.5098 "
       style=" stroke:#000000; stroke-width:1; fill:#dcdcdc; fill-opacity:100%" class="TAG:top"></polygon>
      <polygon points="54.5141 11.5574 52.0141 12.5098 52.0141 13.9384 
       54.5141 12.986 54.5141 11.5574 "
       style=" stroke:#000000; stroke-width:1; fill:#696969; fill-opacity:100%" class="TAG:right"></polygon>
      <polygon points="45.3891 13.9384 45.3891 13.9384 45.3891 15.367 
       48.0141 15.367 48.0141 13.9384 45.3891 13.9384 "
       style=" stroke:#000000; stroke-width:1; fill:#b9b9b9; fill-opacity:100%" class="TAG:front"></polygon>
      <polygon points="45.3891 13.9384 48.0141 12.986 50.5141 12.986 
       48.0141 13.9384 45.3891 13.9384 "
       style=" stroke:#000000; stroke-width:1; fill:#dcdcdc; fill-opacity:100%" class="TAG:top"></polygon>
      <polygon points="50.5141 12.986 48.0141 13.9384 48.0141 15.367 
       50.5141 14.4146 50.5141 12.986 "
       style=" stroke:#000000; stroke-width:1; fill:#696969; fill-opacity:100%" class="TAG:right"></polygon>
      <polygon points="73.5141 9.65267 73.5141 9.65267 73.5141 11.0812 
       76.1391 11.0812 76.1391 9.65267 73.5141 9.65267 "
       style=" stroke:#000000; stroke-width:1; fill:#b9b9b9; fill-opacity:100%" class="TAG:front"></polygon>
      <polygon points="73.5141 9.65267 76.1391 8.70029 78.6391 8.70029 
       76.1391 9.65267 73.5141 9.65267 "
       style=" stroke:#000000; stroke-width:1; fill:#dcdcdc; fill-opacity:100%" class="TAG:top"></polygon>
      <polygon points="78.6391 8.70029 76.1391 9.65267 76.1391 11.0812 
       78.6391 10.1289 78.6391 8.70029 "
       style=" stroke:#000000; stroke-width:1; fill:#696969; fill-opacity:100%" class="TAG:right"></polygon>
      <polygon points="69.3891 11.0812 69.3891 11.0812 69.3891 12.5098 
       72.0141 12.5098 72.0141 11.0812 69.3891 11.0812 "
       style=" stroke:#000000; stroke-width:1; fill:#b9b9b9; fill-opacity:100%" class="TAG:front"></polygon>
      <polygon points="69.3891 11.0812 72.0141 10.1289 74.5141 10.1289 
       72.0141 11.0812 69.3891 11.0812 "
       style=" stroke:#000000; stroke-width:1; fill:#dcdcdc; fill-opacity:100%" class="TAG:top"></polygon>
      <polygon points="74.5141 10.1289 72.0141 11.0812 72.0141 12.5098 
       74.5141 11.5574 74.5141 10.1289 "
       style=" stroke:#000000; stroke-width:1; fill:#696969; fill-opacity:100%" class="TAG:right"></polygon>
      <polygon points="65.3891 12.5098 65.3891 12.5098 65.3891 13.9384 
       68.0141 13.9384 68.0141 12.5098 65.3891 12.5098 "
       style=" stroke:#000000; stroke-width:1; fill:#b9b9b9; fill-opacity:100%" class="TAG:front"></polygon>
      <polygon points="65.3891 12.5098 68.0141 11.5574 70.5141 11.5574 
       68.0141 12.5098 65.3891 12.5098 "
       style=" stroke:#000000; stroke-width:1; fill:#dcdcdc; fill-opacity:100%" class="TAG:top"></polygon>
      <polygon points="70.5141 11.5574 68.0141 12.5098 68.0141 13.9384 
       70.5141 12.986 70.5141 11.5574 "
       style=" stroke:#000000; stroke-width:1; fill:#696969; fill-opacity:100%" class="TAG:right"></polygon>
      <polygon points="61.3891 13.9384 61.3891 13.9384 61.3891 15.367 
       64.0141 15.367 64.0141 13.9384 61.3891 13.9384 "
       style=" stroke:#000000; stroke-width:1; fill:#b9b9b9; fill-opacity:100%" class="TAG:front"></polygon>
      <polygon points="61.3891 13.9384 64.0141 12.986 66.5141 12.986 
       64.0141 13.9384 61.3891 13.9384 "
       style=" stroke:#000000; stroke-width:1; fill:#dcdcdc; fill-opacity:100%" class="TAG:top"></polygon>
      <polygon points="66.5141 12.986 64.0141 13.9384 64.0141 15.367 
       66.5141 14.4146 66.5141 12.986 "
       style=" stroke:#000000; stroke-width:1; fill:#696969; fill-opacity:100%" class="TAG:right"></polygon>
    </g>
  </symbol>
 </defs>
</svg>
