<?xml version="1.0"?>
<?metis version="3.0"?>
<!DOCTYPE svg  PUBLIC "-//W3C//DTD SVG August 1999//EN"
 "http://www.w3.org/Graphics/SVG/svg-19990812.dtd">

<svg width="200" height="200">
 <title>Symbol library: GEM_CONDITION.svg</title>
 <defs>
  <symbol id="oid0" xml:space="preserve" class="METIS_SYMBOL">
   <title>Condition</title>
    <rect x="4" y="4" width="121" height="96"
     style=" stroke:#9b9b9b; stroke-width:1; fill:#9b9b9b; fill-opacity:100%" class="TAG:shadow"></rect>
    <rect x="0" y="0" width="123" height="98"
     style=" stroke:#000000; stroke-width:1; fill:#ffffff; fill-opacity:100%" class="TAG:border"></rect>
    <rect x="4" y="4" width="115" height="90"
     style="stroke:none; fill:#ffffa5; fill-opacity:100%" class="TAG:canvas"></rect>
    <g>
      <desc>METIS_TEXT_GROUP</desc>
      <text  x="5" y="67.8"
       style=" stroke:#000000; stroke-width:1; font-family:sans-serif; font-size:16; text-align:center" class="TAG:text"
>text</text>
      <rect x="5" y="52" width="113" height="41"
       style=" stroke:#000000; stroke-width:1; fill:#ffffff; fill-opacity:0%"></rect>
    </g>
    <g>
      <polyline points="76.2145 31.8791 88.0958 31.8791 88.0958 41.7265"
       style=" stroke:#000000; stroke-width:1;" class="TAG:Arrows"></polyline>
      <polygon points="86.3845 40.0067 90 40.0079 88.096 44.1423 86.3845 40.0067 "
       style=" stroke:#000000; stroke-width:1; fill:#000000; fill-opacity:100%" class="TAG:Arrows"></polygon>
      <polyline points="63.0185 6 63.0185 15.1269"
       style=" stroke:#000000; stroke-width:1;" class="TAG:Arrows"></polyline>
      <polygon points="61.3492 11.3991 64.9647 11.4003 63.0606 15.5346 61.3492 11.3991 "
       style=" stroke:#000000; stroke-width:1; fill:#000000; fill-opacity:100%" class="TAG:Arrows"></polygon>
      <polyline points="53.1106 31.9279 37.7302 31.7905 37.7273 40.456"
       style=" stroke:#000000; stroke-width:1;" class="TAG:Arrows"></polyline>
      <polygon points="36 40.108 39.6155 40.1092 37.7115 44.2435 36 40.108 "
       style=" stroke:#000000; stroke-width:1; fill:#000000; fill-opacity:100%" class="TAG:Arrows"></polygon>
      <polygon points="62.9196 15.5797 79.2678 31.9279 62.9196 48.2761 
       46.5713 31.9279 62.9196 15.5797 "
       style=" stroke:#000000; stroke-width:1; fill:#dcdcdc; fill-opacity:100%" class="TAG:Diamond"></polygon>
    </g>
  </symbol>
 </defs>
</svg>
