<?xml version="1.0"?>
<?metis version="3.0"?>
<!DOCTYPE svg  PUBLIC "-//W3C//DTD SVG August 1999//EN"
 "http://www.w3.org/Graphics/SVG/svg-19990812.dtd">

<svg width="200" height="200">
 <title>Symbol library: GEM_COMPETENCE_PROFILE.svg</title>
 <defs>
  <symbol id="oid0" xml:space="preserve" class="METIS_SYMBOL">
   <title>Competence Profile</title>
    <rect x="4" y="4" width="121" height="96"
     style=" stroke:#9b9b9b; stroke-width:1; fill:#9b9b9b; fill-opacity:100%" class="TAG:shadow"></rect>
    <rect x="0" y="0" width="123" height="98"
     style=" stroke:#000000; stroke-width:1; fill:#ffffff; fill-opacity:100%" class="TAG:border"></rect>
    <rect x="4" y="4" width="115" height="90"
     style="stroke:none; fill:#96a5ff; fill-opacity:100%" class="TAG:canvas"></rect>
    <g>
      <desc>METIS_TEXT_GROUP</desc>
      <text  x="5" y="67.8"
       style=" stroke:#000000; stroke-width:1; font-family:sans-serif; font-size:16; text-align:center" class="TAG:text"
>text</text>
      <rect x="5" y="52" width="113" height="41"
       style=" stroke:#000000; stroke-width:1; fill:#ffffff; fill-opacity:0%"></rect>
    </g>
    <g>
      <polyline points="40.3565 11.9207 40.3565 48.7946 106.852 48.7946"
       style=" stroke:#000000; stroke-width:1;" class="TAG:BarChart"></polyline>
      <polyline points="106.852 48.5088 106.852 11.9207 40.0189 11.9207"
       style=" stroke:#000000; stroke-width:1;" class="TAG:BarChart"></polyline>
      <polyline points="40.3565 30.5005 106.852 30.5005"
       style=" stroke:#000000; stroke-width:1;" class="TAG:BarChart"></polyline>
      <polyline points="40.5253 20.9709 106.855 20.9709"
       style=" stroke:#000000; stroke-width:1;" class="TAG:BarChart"></polyline>
      <polyline points="73.4356 11.9207 73.4356 48.7946"
       style=" stroke:#000000; stroke-width:1;" class="TAG:BarChart"></polyline>
      <polyline points="88.7584 11.9349 88.7584 48.7497"
       style=" stroke:#000000; stroke-width:1;" class="TAG:BarChart"></polyline>
      <polyline points="56.896 11.7777 56.896 48.6517"
       style=" stroke:#000000; stroke-width:1;" class="TAG:BarChart"></polyline>
      <rect x="76.6423" y="40.3646" width="8.43855" height="8.43242"
       style=" stroke:#000000; stroke-width:1; fill:#ffffff; fill-opacity:100%" class="TAG:BarChart"></rect>
      <polyline points="40.3343 39.5702 106.83 39.5702"
       style=" stroke:#000000; stroke-width:1;" class="TAG:BarChart"></polyline>
      <rect x="44.6657" y="35.36" width="8.43855" height="13.4348"
       style=" stroke:#000000; stroke-width:1; fill:#ffffff; fill-opacity:100%" class="TAG:BarChart"></rect>
      <rect x="61.4529" y="32.9326" width="8.43855" height="15.8643"
       style=" stroke:#000000; stroke-width:1; fill:#ffffff; fill-opacity:100%" class="TAG:BarChart"></rect>
      <rect x="92.8443" y="29.5025" width="8.43855" height="19.2945"
       style=" stroke:#000000; stroke-width:1; fill:#ffffff; fill-opacity:100%" class="TAG:BarChart"></rect>
      <path d="M 45.0441 14.6233 C 33.9069 19.6312 34.6898 21.0721 
       31.1905 25.2282 C 28.3383 28.616 27.795 30.9726 25.0787 32.74 
       C 23.7645 33.5952 28.3383 32.2983 28.7458 33.3292 C 29.491 35.2149 
       28.4655 37.895 29.1532 37.3061 C 31.7338 35.0967 32.208 33.0976 
       36.2159 28.0268 C 39.4756 23.9026 38.6606 24.3445 47.8964 19.7785 Z"
       style=" stroke:#000000; stroke-width:1; fill:#0000ff; fill-opacity:100%" class="TAG:Ribbon"></path>
      <path d="M 45.4516 11.3829 C 36.0801 9.91 32.0054 15.2125 
       29.4249 17.8637 C 23.1439 24.3166 17.2643 26.684 14.4847 27.4377 
       C 12.8549 27.8794 17.9884 26.535 18.831 28.9105 C 19.5101 30.8253 
       18.0039 33.054 18.831 32.7401 C 21.5474 31.7091 26.9801 28.7632 
       32.5488 23.0189 C 35.8259 19.6383 38.1173 16.3908 47.0814 16.5381 
       C 47.0814 16.5381 46.8098 15.9489 46.8098 15.9489 Z"
       style=" stroke:#000000; stroke-width:1; fill:#0000ff; fill-opacity:100%" class="TAG:Ribbon"></path>
      <ellipse  cx="51.8762" cy="13.9253" rx="7.56484" ry="8.21157"
       style=" stroke:#000000; stroke-width:1; fill:#0000ff; fill-opacity:100%" class="TAG:Ribbon"></ellipse>
      <ellipse  cx="51.8762" cy="13.9253" rx="3.65131" ry="3.9597"
       style=" stroke:#000000; stroke-width:1; fill:#a5a500; fill-opacity:100%" class="TAG:RibbonCenter"></ellipse>
    </g>
    <rect x="4" y="4" width="115" height="45"
     style="stroke:none; fill:#878787; fill-opacity:0%" class="TAG:grid"></rect>
  </symbol>
 </defs>
</svg>
