<?xml version="1.0"?>
<?metis version="3.4"?>
<?metisxml version="1.1"?>
<!DOCTYPE svg  PUBLIC "-//W3C//DTD SVG August 1999//EN"
 "http://www.w3.org/Graphics/SVG/svg-19990812.dtd">

<svg width="200" height="200">
 <title>Symbol library: gem_process.svg</title>
 <defs>
  <symbol id="oid0" xml:space="preserve" class="METIS_SYMBOL">
   <title>Process Open</title>
    <g>
      <polygon points="3.95877 5.95135 3.95877 5.95135 339.289 5.95135 
       384 66.9757 339.289 128 3.95877 128 37.4918 66.9757 
       3.95877 5.95135 3.95877 5.95135 3.95877 5.95135 "
       style=" stroke:#b9b9b9; stroke-width:1; fill:#9b9b9b; fill-opacity:100%"       class="TAG:Shadow"></polygon>
      <polygon points="0 0 0 0 335.331 0 
       380.041 61.0243 335.331 122.049 0 122.049 33.5331 61.0243 
       0 0 0 0 0 0 "
       style=" stroke:#000000; stroke-width:1; fill:#ffffff; fill-opacity:100%"       class="TAG:canvas"></polygon>
      <g>
	<desc>METIS_TEXT_GROUP</desc>
	<text  x="39.0712" y="20.8961"
	 style=" stroke:#000000; stroke-width:1; font-family:sans-serif; font-size:16; text-align:center vertical-align:middle;"
	 class="TAG:text">text</text>
	<rect x="39.0712" y="5.89607" width="293.464" height="111.196"
	 style=" stroke:#000000; stroke-width:1; fill:#ffffff; fill-opacity:100%"></rect>
      </g>
    </g>
  </symbol>
  <symbol id="oid1" xml:space="preserve" class="METIS_SYMBOL">
   <title>Process Closed</title>
    <g>
      <polygon points="5.66667 9.36232 5.66667 9.36232 485.667 9.36232 
       549.667 105.362 485.667 201.362 5.66667 201.362 53.6667 105.362 
       5.66667 9.36232 5.66667 9.36232 5.66667 9.36232 "
       style=" stroke:#b9b9b9; stroke-width:1; fill:#9b9b9b; fill-opacity:100%"       class="TAG:Shadow"></polygon>
      <polygon points="0 0 0 0 480 0 
       544 96 480 192 0 192 48 96 
       0 0 0 0 0 0 "
       style=" stroke:#000000; stroke-width:1; fill:#ffffff; fill-opacity:100%"></polygon>
      <polygon points="0 0 0 0 480 0 
       544 96 480 192 0 192 48 96 
       0 0 0 0 0 0 "
       style=" stroke:#000000; stroke-width:1; fill:#dcdcdc; fill-opacity:100%"       class="TAG:canvas"></polygon>
      <g>
	<desc>METIS_TEXT_GROUP</desc>
	<text  x="55.9275" y="24.2754"
	 style=" stroke:#000000; stroke-width:1; font-family:sans-serif; font-size:16; text-align:center vertical-align:middle;"
	 class="TAG:text">text</text>
	<rect x="55.9275" y="9.27536" width="420.072" height="174.928"
	 style=" stroke:#000000; stroke-width:1; fill:#dcdcdc; fill-opacity:100%"></rect>
      </g>
    </g>
  </symbol>
 </defs>
</svg>
