<?xml version="1.0"?>
<?metis version="3.0"?>
<!DOCTYPE svg  PUBLIC "-//W3C//DTD SVG August 1999//EN"
 "http://www.w3.org/Graphics/SVG/svg-19990812.dtd">

<svg width="200" height="200">
 <title>Symbol library: GEM_LOCATION.svg</title>
 <defs>
  <symbol id="oid0" xml:space="preserve" class="METIS_SYMBOL">
   <title>Location</title>
    <rect x="4" y="4" width="121" height="96"
     style=" stroke:#9b9b9b; stroke-width:1; fill:#9b9b9b; fill-opacity:100%" class="TAG:shadow"></rect>
    <rect x="0" y="0" width="123" height="98"
     style=" stroke:#000000; stroke-width:1; fill:#ffffff; fill-opacity:100%" class="TAG:border"></rect>
    <rect x="4" y="4" width="115" height="90"
     style="stroke:none; fill:#bbf9ff; fill-opacity:100%" class="TAG:canvas"></rect>
    <g>
      <desc>METIS_TEXT_GROUP</desc>
      <text  x="5" y="67.8"
       style=" stroke:#000000; stroke-width:1; font-family:sans-serif; font-size:16; text-align:center" class="TAG:text"
>text</text>
      <rect x="5" y="52" width="113" height="41"
       style=" stroke:#000000; stroke-width:1; fill:#ffffff; fill-opacity:0%"></rect>
    </g>
    <g>
      <polygon points="42.3773 8 38 19.5653 48.6926 13.625 42.3773 8 "
       style=" stroke:#464646; stroke-width:1; fill:#ff0000; fill-opacity:100%" class="TAG:Flag"></polygon>
      <path d="M 88 27.6046 C 87.9333 26.1558 87.8923 25.5306 
       87.8359 25.1039 C 87.7611 24.5349 87.4956 23.2002 87.347 22.6459 
       C 87.1987 22.0916 86.761 20.803 86.5416 20.2729 C 86.322 19.7427 
       85.7201 18.5222 85.4332 18.0252 C 85.1462 17.5282 84.3902 16.3968 
       84.0409 15.9415 C 83.6915 15.4862 82.7943 14.4631 82.3885 14.0573 
       C 81.9827 13.6516 80.9596 12.7543 80.5043 12.405 C 80.0491 12.0556 
       78.9176 11.2996 78.4206 11.0127 C 77.9236 10.7257 76.7032 10.1239 
       76.173 9.90425 C 75.6428 9.68464 74.3542 9.2472 73.7999 9.09868 
       C 73.2456 8.95016 71.9109 8.68474 71.342 8.60984 C 70.773 8.53494 
       69.4151 8.44589 68.8413 8.44589 C 68.2674 8.44589 66.9095 8.53494 
       66.3406 8.60984 C 65.7717 8.68474 64.437 8.95017 63.8827 9.09868 
       C 63.3284 9.2472 62.0398 9.68464 61.5096 9.90425 C 60.9794 10.1239 
       59.7589 10.7257 59.262 11.0127 C 58.765 11.2996 57.6335 12.0556 
       57.1783 12.405 C 56.723 12.7543 55.6998 13.6516 55.294 14.0573 
       C 54.8883 14.4631 53.991 15.4862 53.6417 15.9415 C 53.2924 16.3968 
       52.5363 17.5282 52.2494 18.0252 C 51.9625 18.5222 51.3606 19.7427 
       51.141 20.2729 C 50.9214 20.803 50.4839 22.0916 50.3354 22.6459 
       C 50.1869 23.2002 49.9215 24.5349 49.8466 25.1039 C 49.7717 25.6728 
       49.6826 27.0307 49.6826 27.6046 C 49.6826 28.1784 49.7717 29.5363 
       49.8466 30.1053 C 49.9215 30.6742 50.1869 32.0089 50.3354 32.5632 
       C 50.4839 33.1175 50.9214 34.4061 51.141 34.9363 C 51.3606 35.4664 
       51.9625 36.6869 52.2494 37.1839 C 52.5363 37.6809 53.2924 38.8123 
       53.6417 39.2676 C 53.991 39.7229 54.8883 40.746 55.294 41.1518 
       C 55.6998 41.5576 56.723 42.4548 57.1783 42.8042 C 57.6335 43.1535 
       58.765 43.9095 59.262 44.1965 C 59.7589 44.4834 60.9794 45.0853 
       61.5096 45.3049 C 62.0398 45.5243 63.3284 45.962 63.8827 46.1103 
       C 64.437 46.2589 65.7717 46.5244 66.3406 46.5992 C 66.9095 46.6741 
       68.2674 46.7633 68.8413 46.7633 C 69.4151 46.7633 70.773 46.6741 
       71.342 46.5992 C 71.9109 46.5244 73.2456 46.2589 73.7999 46.1103 
       C 74.3542 45.962 75.6428 45.5243 76.173 45.3049 C 76.7032 45.0853 
       77.9236 44.4834 78.4206 44.1965 C 78.9176 43.9095 80.0491 43.1535 
       80.5043 42.8042 C 80.9596 42.4548 81.9827 41.5576 82.3885 41.1518 
       C 82.7943 40.746 83.6915 39.7229 84.0409 39.2676 C 84.3902 38.8123 
       85.1462 37.6809 85.4332 37.1839 C 85.7201 36.6869 86.322 35.4664 
       86.5416 34.9363 C 86.761 34.4061 87.1987 33.1175 87.347 32.5632 
       C 87.4587 32.1474 87.5527 31.6369 87.8359 30.1053 Z"
       style=" stroke:#008d9c; stroke-width:1; fill:#35ecff; fill-opacity:100%" class="TAG:Water"></path>
      <polygon points="51.7413 19.047 53.8731 20.3869 54.4213 21.7269 
       54.9086 21.9096 54.4822 23.9806 55.4567 24.8333 56.4313 25.4423 
       55.944 25.5641 56.7358 26.7823 56.5531 25.8687 57.284 26.7823 
       57.3449 27.3305 59.2939 28.4877 60.2685 28.7314 61.4866 29.645 
       61.7912 29.0359 63.0702 28.7314 65.0802 29.7059 66.2984 30.8632 
       67.0293 30.8022 68.552 31.4722 67.7602 32.5686 67.4556 33.8476 
       66.1766 35.0658 63.6184 37.9894 63.253 39.9994 63.8012 40.8521 
       62.3393 39.6948 62.7048 38.3549 62.2785 37.6849 63.0702 33.9086 
       62.1566 32.5686 61.1212 31.0459 61.7912 29.8886 61.4866 29.0968 
       61.0603 28.8532 60.573 28.2441 60.5121 27.8177 59.7812 27.5741 
       59.7812 27.0868 59.3548 27.2696 58.3803 26.7823 58.8067 25.8078 
       59.7812 25.625 60.7558 25.8687 61.3648 26.356 61.3648 25.8687 
       61.243 25.4423 61.7303 24.6505 61.8521 23.9806 62.3393 23.676 
       63.0702 22.8842 63.5575 22.7015 64.4102 22.7624 63.862 22.2751 
       63.6184 21.666 64.4711 21.4833 65.2629 20.8742 63.6184 19.1079 
       63.0702 19.1079 62.4002 18.1942 61.913 18.0724 61.5475 19.4733 
       62.0348 20.2651 61.4257 21.0569 60.9994 20.3261 59.2331 18.6815 
       61.3648 15.8188 60.8775 15.0879 60.3294 15.5752 60.2685 16.1843 
       58.9894 14.357 59.0503 15.9407 57.4058 16.0016 56.614 16.1234 
       56.3094 16.4888 54.4213 15.027 53.3249 16.2452 52.4722 17.4634 51.7413 19.047 "
       style=" stroke:#00a500; stroke-width:1; fill:#00a500; fill-opacity:100%" class="TAG:Land"></polygon>
      <polygon points="83.4136 15.1488 82.3781 15.1488 80.7945 16.367 
       78.9064 17.2806 79.2109 16.6106 79.5155 16.1843 77.9928 14.9052 
       76.7137 15.027 75.6173 16.5497 74.3383 18.6206 74.8255 19.5342 
       76.1046 20.0215 76.47 18.8642 76.47 17.5852 77.3228 16.9761 
       77.3228 18.0724 77.0791 18.7424 77.8709 18.6815 76.6528 20.326 
       75.4346 20.6915 72.9983 22.1533 73.3028 22.8842 72.0237 23.3714 
       72.4501 24.2851 74.1555 23.4933 74.7037 23.006 75.8001 23.676 
       75.8609 22.7015 77.0182 23.3714 77.9928 23.676 78.48 22.6406 
       79.4545 22.336 79.9418 22.8842 80.0027 23.3106 78.1146 23.676 
       78.9673 24.6505 78.7845 25.625 80.5509 28.4877 82.3781 27.1478 
       80.9772 25.3205 85.0581 27.3305 85.4235 29.0359 87.8598 27.2696 
       87.738 24.1633 86.9462 21.3006 85.9108 18.8033 84.6926 16.7934 
       83.4745 15.2707 83.4136 15.1488 "
       style=" stroke:#00a500; stroke-width:1; fill:#00a500; fill-opacity:100%" class="TAG:Land"></polygon>
      <polygon points="72.6599 20.3057 72.3892 20.1974 72.0373 20.5764 
       71.9019 20.6847 72.0373 21.2261 72.5516 21.0637 72.687 20.414 72.6599 20.3057 "
       style=" stroke:#00a500; stroke-width:1; fill:#00a500; fill-opacity:100%" class="TAG:Land"></polygon>
      <polygon points="72.6599 19.6831 72.6599 20.3599 73.0389 21.0366 
       73.0118 21.199 73.1201 21.5239 73.6615 21.4968 74.0675 21.0908 
       73.472 20.6847 73.1472 19.2229 72.6599 19.6831 "
       style=" stroke:#00a500; stroke-width:1; fill:#00a500; fill-opacity:100%" class="TAG:Land"></polygon>
      <polygon points="75.0691 24.2851 72.4298 24.9347 70.8868 27.3711 
       70.9274 28.508 71.5771 29.2795 72.6328 30.0916 74.2976 29.5638 
       74.9473 30.1322 75.0691 31.0662 75.597 31.8783 75.4752 32.8934 
       75.7188 34.3146 76.5715 35.6546 77.8709 36.2637 79.0079 34.9643 
       79.9418 32.6092 79.7388 31.4722 80.6321 29.9292 81.5254 28.9953 
       78.3988 26.5996 78.4394 25.5438 75.0691 24.2851 "
       style=" stroke:#00a500; stroke-width:1; fill:#00a500; fill-opacity:100%" class="TAG:Land"></polygon>
      <polygon points="80.9165 32.4061 80.0232 33.4213 80.3074 34.5176 
       80.7541 34.4364 81.0789 32.4874 80.9165 32.4061 "
       style=" stroke:#00a500; stroke-width:1; fill:#00a500; fill-opacity:100%" class="TAG:Land"></polygon>
      <polyline points="60.2946 23.5109 42.7452 8.35202"
       style=" stroke:#464646; stroke-width:1;" class="TAG:FlagStick"></polyline>
    </g>
    <rect x="4" y="4" width="115" height="45"
     style="stroke:none; fill:#878787; fill-opacity:0%" class="TAG:grid"></rect>
  </symbol>
 </defs>
</svg>
