<?xml version="1.0"?>
<?metis version="3.4"?>
<?metisxml version="1.1"?>
<!DOCTYPE svg  PUBLIC "-//W3C//DTD SVG August 1999//EN"
 "http://www.w3.org/Graphics/SVG/svg-19990812.dtd">

<svg width="200" height="200">
 <title>Symbol library: gem_output.svg</title>
 <defs>
  <symbol id="oid0" xml:space="preserve" class="METIS_SYMBOL">
   <title>Output</title>
    <g>
      <polygon points="8.67797 256 512 256 512 256 
       512 7.75758 8.67797 7.75758 8.67797 100.848 43.3898 100.848 
       43.3898 69.8182 78.1017 131.879 43.3898 193.939 43.3898 162.909 
       8.67797 162.909 8.67797 256 8.67797 256 "
       style=" stroke:#000000; stroke-width:1; fill:#000000; fill-opacity:100%"       class="TAG:shadow"></polygon>
      <polygon points="0 248.242 503.322 248.242 503.322 248.242 
       503.322 0 0 0 0 93.0909 34.7119 93.0909 
       34.7119 62.0606 69.4237 124.121 34.7119 186.182 34.7119 155.152 
       0 155.152 0 248.242 0 248.242 "
       style=" stroke:#000000; stroke-width:1; fill:#ffff6e; fill-opacity:100%"       class="TAG:canvas"></polygon>
      <g>
	<desc>METIS_TEXT_GROUP</desc>
	<text  x="86.7797" y="38.5152"
	 style=" stroke:#000000; stroke-width:1; font-family:sans-serif; font-size:24;"
	 class="TAG:text">text</text>
	<rect x="86.7797" y="15.5152" width="399.186" height="217.212"
	 style=" stroke:#000000; stroke-width:1; fill:#000000; fill-opacity:0%"></rect>
      </g>
    </g>
  </symbol>
 </defs>
</svg>
