<?xml version="1.0"?>
<?metis version="3.4"?>
<?metisxml version="1.1"?>
<!DOCTYPE svg  PUBLIC "-//W3C//DTD SVG August 1999//EN"
 "http://www.w3.org/Graphics/SVG/svg-19990812.dtd">

<svg width="200" height="200">
 <title>Symbol library: gem_ipm_process_open.svg</title>
 <defs>
  <symbol id="oid0" xml:space="preserve" class="METIS_SYMBOL">
   <title>IPM Process Open</title>
    <g>
      <polygon points="3.11504 126.42 171.327 126.42 174.442 123.259 
       174.442 3.16049 171.327 0 4.67257 0 0 4.74074 
       0 123.259 3.11504 126.42 3.11504 126.42 "
       style=" stroke:#000000; stroke-width:1; fill:#ffffff; fill-opacity:100%"       class="TAG:canvas"></polygon>
      <g>
	<desc>METIS_TEXT_GROUP</desc>
	<text  x="7.78761" y="22.9012"
	 style=" stroke:#000000; stroke-width:1; font-family:sans-serif; font-size:16;"
	 class="TAG:text">text</text>
	<rect x="7.78761" y="7.90123" width="161.982" height="113.778"
	 style=" stroke:#000000; stroke-width:1; fill:#000000; fill-opacity:0%"></rect>
      </g>
      <polyline points="171.717 0.395062 171.717 0.395062 174.832 3.55556 
       174.832 123.654 171.717 126.815 3.50442 126.815 0.389381 123.654"
       style=" stroke:#000000; stroke-width:1;"       class="TAG:polyline"></polyline>
      <polyline points="172.106 0.790123 172.106 0.790123 175.221 3.95062 
       175.221 124.049 172.106 127.21 3.89381 127.21 0.778761 124.049"
       style=" stroke:#000000; stroke-width:1;"       class="TAG:polyline"></polyline>
      <polyline points="172.496 1.18519 172.496 1.18519 175.611 4.34568 
       175.611 124.444 172.496 127.605 4.28319 127.605 1.16814 124.444"
       style=" stroke:#000000; stroke-width:1;"       class="TAG:polyline"></polyline>
      <polyline points="172.885 1.58025 172.885 1.58025 176 4.74074 
       176 124.84 172.885 128 4.67257 128 1.55752 124.84"
       style=" stroke:#000000; stroke-width:1;"       class="TAG:polyline"></polyline>
    </g>
  </symbol>
 </defs>
</svg>
