<?xml version="1.0"?>
<?metis version="3.0"?>
<!DOCTYPE svg  PUBLIC "-//W3C//DTD SVG August 1999//EN"
 "http://www.w3.org/Graphics/SVG/svg-19990812.dtd">

<svg width="200" height="200">
 <title>Symbol library: GEM_MESSAGE.svg</title>
 <defs>
  <symbol id="oid0" xml:space="preserve" class="METIS_SYMBOL">
   <title>Message</title>
    <rect x="4" y="4" width="121" height="96"
     style=" stroke:#9b9b9b; stroke-width:1; fill:#9b9b9b; fill-opacity:100%" class="TAG:shadow"></rect>
    <rect x="0" y="0" width="123" height="98"
     style=" stroke:#000000; stroke-width:1; fill:#ffffff; fill-opacity:100%" class="TAG:border"></rect>
    <rect x="4" y="4" width="115" height="90"
     style="stroke:none; fill:#b9b9b9; fill-opacity:100%" class="TAG:canvas"></rect>
    <g>
      <desc>METIS_TEXT_GROUP</desc>
      <text  x="5" y="67.8"
       style=" stroke:#000000; stroke-width:1; font-family:sans-serif; font-size:16; text-align:center" class="TAG:text"
>text</text>
      <rect x="5" y="52" width="113" height="41"
       style=" stroke:#000000; stroke-width:1; fill:#ffffff; fill-opacity:0%"></rect>
    </g>
    <g>
      <polyline points="44.7346 16.1285 4 16.1285"
       style=" stroke:#6e6e00; stroke-width:1;" class="TAG:MotionLines"></polyline>
      <polyline points="43.9089 30.7158 7.02757 30.7158"
       style=" stroke:#6e6e00; stroke-width:1;" class="TAG:MotionLines"></polyline>
      <polyline points="44.9442 38.2316 16.4877 38.2316"
       style=" stroke:#6e6e00; stroke-width:1;" class="TAG:MotionLines"></polyline>
      <polyline points="48.0374 23.5598 13.9084 23.5598"
       style=" stroke:#6e6e00; stroke-width:1;" class="TAG:MotionLines"></polyline>
      <rect x="52.9916" y="12" width="66.3313" height="32"
       style=" stroke:#6e6e00; stroke-width:1; fill:#ffffdc; fill-opacity:100%" class="TAG:Envelope"></rect>
      <polyline points="76.091 26.6225 52.9916 41.8808"
       style=" stroke:#6e6e00; stroke-width:1;" class="TAG:EnvelopeLines"></polyline>
      <polyline points="96.4355 26.1987 119.323 41.4569"
       style=" stroke:#6e6e00; stroke-width:1;" class="TAG:EnvelopeLines"></polyline>
      <polygon points="52.9916 12 54.2631 16.8742 86.0513 30.0133 
       118.263 16.6623 119.323 12 52.9916 12 "
       style=" stroke:#6e6e00; stroke-width:1; fill:#000000; fill-opacity:0%" class="TAG:EnvelopeLines"></polygon>
    </g>
    <rect x="4" y="4" width="115" height="45"
     style="stroke:none; fill:#878787; fill-opacity:0%" class="TAG:grid"></rect>
  </symbol>
 </defs>
</svg>
