<?xml version="1.0"?>
<?metis version="3.0"?>
<!DOCTYPE svg  PUBLIC "-//W3C//DTD SVG August 1999//EN"
 "http://www.w3.org/Graphics/SVG/svg-19990812.dtd">

<svg width="200" height="200">
 <title>Symbol library: GEM_DOCUMENT.svg</title>
 <defs>
  <symbol id="oid0" xml:space="preserve" class="METIS_SYMBOL">
   <title>Document</title>
    <rect x="4" y="4" width="121" height="96"
     style=" stroke:#9b9b9b; stroke-width:1; fill:#9b9b9b; fill-opacity:100%" class="TAG:shadow"></rect>
    <rect x="0" y="0" width="123" height="98"
     style=" stroke:#000000; stroke-width:1; fill:#ffffff; fill-opacity:100%" class="TAG:border"></rect>
    <rect x="4" y="4" width="115" height="90"
     style="stroke:none; fill:#b9b9b9; fill-opacity:100%" class="TAG:canvas"></rect>
    <g>
      <desc>METIS_TEXT_GROUP</desc>
      <text  x="5" y="67.8"
       style=" stroke:#000000; stroke-width:1; font-family:sans-serif; font-size:16; text-align:center" class="TAG:text"
>text</text>
      <rect x="5" y="52" width="113" height="41"
       style=" stroke:#000000; stroke-width:1; fill:#ffffff; fill-opacity:0%"></rect>
    </g>
    <g>
      <g>
	<polygon points="26.9475 18.9822 30.2023 15.7273 51.281 7.20285 
	 61.9754 36.1862 59.6505 39.751 49.1112 10.1477 26.9475 18.9822 "
	 style=" stroke:#000000; stroke-width:1; fill:#dcdcdc; fill-opacity:100%"></polygon>
	<polyline points="30.3573 16.1923 50.9711 7.97781 61.3554 36.9611"
	 style=" stroke:#000000; stroke-width:1;"></polyline>
	<polyline points="28.7299 17.7647 49.8052 9.52772 60.1155 38.511"
	 style=" stroke:#000000; stroke-width:1;"></polyline>
	<polygon points="27.1025 18.8272 37.9518 48.1205 60.1155 39.596 
	 49.4212 9.99269 27.1025 18.8272 "
	 style=" stroke:#000000; stroke-width:1; fill:#96a5ff; fill-opacity:100%"></polygon>
	<polygon points="32.0622 21.772 34.2321 27.5067 49.7312 21.462 
	 47.5612 15.7273 32.0622 21.772 "
	 style=" stroke:#000000; stroke-width:1; fill:#dcdcdc; fill-opacity:100%"></polygon>
	<polyline points="29.7461 16.9242 50.3599 8.70962 60.8217 37.6155"
	 style=" stroke:#000000; stroke-width:1;"></polyline>
      </g>
      <g>
	<polyline points="52.0296 35.7413 63.4989 31.0916"
	 style=" stroke:#000000; stroke-width:1;"></polyline>
	<polyline points="52.1846 37.9112 64.2739 32.9515"
	 style=" stroke:#000000; stroke-width:1;"></polyline>
	<polygon points="49.7147 7.84294 74.4076 7.84294 77.4481 16.8324 
	 74.9682 25.8219 78.0681 34.0364 76.2082 41.786 49.7147 41.786 
	 51.8746 33.8814 49.5861 25.8219 52.4946 16.8324 49.7147 7.84294 "
	 style=" stroke:#000000; stroke-width:1; fill:#ffffff; fill-opacity:100%"></polygon>
	<polyline points="52.0296 34.0364 78.0681 34.0364"
	 style=" stroke:#000000; stroke-width:1;"></polyline>
	<polyline points="49.6273 25.8219 74.899 25.8219"
	 style=" stroke:#000000; stroke-width:1;"></polyline>
	<polyline points="52.6109 16.8324 77.2931 16.8324"
	 style=" stroke:#000000; stroke-width:1;"></polyline>
	<polygon points="49.8598 7.99793 51.5647 12.6477 75.7432 12.3377 
	 74.0383 7.99793 49.8598 7.99793 "
	 style=" stroke:#ffffff; stroke-width:1; fill:#c8ffc8; fill-opacity:100%"></polygon>
	<polygon points="49.8598 25.9769 50.9447 30.3166 76.5181 30.3166 
	 74.7469 25.9769 49.8598 25.9769 "
	 style=" stroke:#ffffff; stroke-width:1; fill:#c8ffc8; fill-opacity:100%"></polygon>
	<polygon points="52.6496 16.9874 77.1381 17.1424 75.8982 21.4821 
	 51.0997 21.3271 52.6496 16.9874 "
	 style=" stroke:#ffffff; stroke-width:1; fill:#c8ffc8; fill-opacity:100%"></polygon>
	<polygon points="52.1846 34.1914 77.7581 34.1914 76.8282 38.6861 
	 50.9447 38.5311 52.1846 34.1914 "
	 style=" stroke:#ffffff; stroke-width:1; fill:#c8ffc8; fill-opacity:100%"></polygon>
	<ellipse  cx="52.4171" cy="9.93532" rx="0.542466" ry="0.542466"
	 style=" stroke:#000000; stroke-width:1; fill:#ffffff; fill-opacity:100%"></ellipse>
	<ellipse  cx="53.4246" cy="13.8876" rx="0.542466" ry="0.542466"
	 style=" stroke:#000000; stroke-width:1; fill:#ffffff; fill-opacity:100%"></ellipse>
	<ellipse  cx="53.2696" cy="19.1573" rx="0.542466" ry="0.542466"
	 style=" stroke:#000000; stroke-width:1; fill:#ffffff; fill-opacity:100%"></ellipse>
	<ellipse  cx="52.0296" cy="22.8771" rx="0.542466" ry="0.542466"
	 style=" stroke:#000000; stroke-width:1; fill:#ffffff; fill-opacity:100%"></ellipse>
	<ellipse  cx="51.8746" cy="27.9918" rx="0.542466" ry="0.542466"
	 style=" stroke:#000000; stroke-width:1; fill:#ffffff; fill-opacity:100%"></ellipse>
	<ellipse  cx="52.6496" cy="31.0915" rx="0.542466" ry="0.542466"
	 style=" stroke:#000000; stroke-width:1; fill:#ffffff; fill-opacity:100%"></ellipse>
	<ellipse  cx="52.9596" cy="36.2063" rx="0.542466" ry="0.542466"
	 style=" stroke:#000000; stroke-width:1; fill:#ffffff; fill-opacity:100%"></ellipse>
	<ellipse  cx="51.8746" cy="39.6161" rx="0.542466" ry="0.542466"
	 style=" stroke:#000000; stroke-width:1; fill:#ffffff; fill-opacity:100%"></ellipse>
	<ellipse  cx="73.1471" cy="9.74158" rx="0.542466" ry="0.542466"
	 style=" stroke:#000000; stroke-width:1; fill:#ffffff; fill-opacity:100%"></ellipse>
	<ellipse  cx="74.4645" cy="13.8488" rx="0.542466" ry="0.542466"
	 style=" stroke:#000000; stroke-width:1; fill:#ffffff; fill-opacity:100%"></ellipse>
	<ellipse  cx="74.7745" cy="40.1973" rx="0.542466" ry="0.542466"
	 style=" stroke:#000000; stroke-width:1; fill:#ffffff; fill-opacity:100%"></ellipse>
	<ellipse  cx="75.7044" cy="36.7874" rx="0.542466" ry="0.542466"
	 style=" stroke:#000000; stroke-width:1; fill:#ffffff; fill-opacity:100%"></ellipse>
	<ellipse  cx="75.2395" cy="31.6728" rx="0.542466" ry="0.542466"
	 style=" stroke:#000000; stroke-width:1; fill:#ffffff; fill-opacity:100%"></ellipse>
	<ellipse  cx="73.8445" cy="28.418" rx="0.542466" ry="0.542466"
	 style=" stroke:#000000; stroke-width:1; fill:#ffffff; fill-opacity:100%"></ellipse>
	<ellipse  cx="73.6896" cy="23.7683" rx="0.542466" ry="0.542466"
	 style=" stroke:#000000; stroke-width:1; fill:#ffffff; fill-opacity:100%"></ellipse>
	<ellipse  cx="74.6195" cy="19.4285" rx="0.542466" ry="0.542466"
	 style=" stroke:#000000; stroke-width:1; fill:#ffffff; fill-opacity:100%"></ellipse>
      </g>
      <g>
	<polygon points="75.9477 13.627 65.4978 37.3234 86.2947 45.6687 
	 97.8191 17.7187 81.8792 10.9188 75.9477 13.627 "
	 style=" stroke:#b9b9b9; stroke-width:1; fill:#ffffff; fill-opacity:100%"></polygon>
	<polygon points="75.9477 13.5681 81.8939 10.9777 80.1866 15.2166 75.9477 13.5681 "
	 style=" stroke:#dcdcdc; stroke-width:1; fill:#dcdcdc; fill-opacity:100%"></polygon>
	<polyline points="81.4498 19.2118 92.8682 23.7624"
	 style=" stroke:#b9b9b9; stroke-width:1;"></polyline>
	<polyline points="78.5704 20.5584 91.9824 25.9232"
	 style=" stroke:#b9b9b9; stroke-width:1;"></polyline>
	<polyline points="77.5521 22.9842 90.9641 28.349"
	 style=" stroke:#b9b9b9; stroke-width:1;"></polyline>
	<polyline points="71.6325 35.4772 85.0446 40.842"
	 style=" stroke:#b9b9b9; stroke-width:1;"></polyline>
	<polyline points="73.8844 30.8409 87.2964 36.2057"
	 style=" stroke:#b9b9b9; stroke-width:1;"></polyline>
	<polyline points="72.7336 33.2667 86.1457 38.6315"
	 style=" stroke:#b9b9b9; stroke-width:1;"></polyline>
	<polyline points="76.1777 25.5838 89.5897 30.9486"
	 style=" stroke:#b9b9b9; stroke-width:1;"></polyline>
	<polyline points="77.3441 29.0656 88.439 33.6393"
	 style=" stroke:#b9b9b9; stroke-width:1;"></polyline>
      </g>
    </g>
    <rect x="4" y="4" width="115" height="45"
     style="stroke:none; fill:#878787; fill-opacity:0%" class="TAG:grid"></rect>
  </symbol>
 </defs>
</svg>
