<?xml version="1.0"?>
<?metis version="3.0"?>
<!DOCTYPE svg  PUBLIC "-//W3C//DTD SVG August 1999//EN"
 "http://www.w3.org/Graphics/SVG/svg-19990812.dtd">

<svg width="200" height="200">
 <title>Symbol library: GEM_OPPORTUNITY.svg</title>
 <defs>
  <symbol id="oid0" xml:space="preserve" class="METIS_SYMBOL">
   <title>Opportunity</title>
    <g>
      <rect x="4" y="4" width="121" height="96"
       style=" stroke:#9b9b9b; stroke-width:1; fill:#9b9b9b; fill-opacity:100%" class="TAG:shadow"></rect>
      <rect x="0" y="0" width="123" height="98"
       style=" stroke:#000000; stroke-width:1; fill:#ffffff; fill-opacity:100%" class="TAG:border"></rect>
      <rect x="4" y="4" width="115" height="90"
       style="stroke:none; fill:#ffffa5; fill-opacity:100%" class="TAG:canvas"></rect>
      <g>
	<desc>METIS_TEXT_GROUP</desc>
	<text  x="5" y="67.8"
	 style=" stroke:#000000; stroke-width:1; font-family:sans-serif; font-size:16; text-align:center" class="TAG:text"
>text</text>
	<rect x="5" y="52" width="113" height="41"
	 style=" stroke:#000000; stroke-width:1; fill:#ffffff; fill-opacity:0%"></rect>
      </g>
    </g>
    <g>
      <polygon points="56.5159 11.0877 56.3177 41.019 59.8856 41.019 
       59.8856 11.2859 74.1576 12.8717 56.7141 10.0966 56.5159 11.0877 "
       style=" stroke:#a5a500; stroke-width:1; fill:#ce6700; fill-opacity:100%" class="TAG:DoorFrame"></polygon>
      <polyline points="81.2935 48.155 73.8602 45.8754"
       style=" stroke:#a5a500; stroke-width:1;"></polyline>
      <polygon points="59.6874 11.2859 74.4218 12.8717 74.4218 45.7763 
       59.6874 41.2172 59.6874 11.2859 "
       style=" stroke:#ffffdc; stroke-width:1; fill:#ffffdc; fill-opacity:100%"></polygon>
      <polygon points="87.3392 6.03304 87.3392 48.254 81.3492 48.2974 
       74.1575 46.1727 74.1575 12.7395 56.8004 10.2136 56.8004 41.5119 
       44.8208 35.8653 44.5565 6 87.3392 6.03304 "
       style=" stroke:#ce6700; stroke-width:1; fill:#ffcf9f; fill-opacity:100%" class="TAG:Wall"></polygon>
      <polygon points="37.4112 41.2172 36 41.019 36 9.89834 
       55.0516 9.89834 56.698 10.493 37.4112 10.6912 37.4112 41.2172 "
       style=" stroke:#ce6700; stroke-width:1; fill:#ce6700; fill-opacity:100%" class="TAG:DoorSide"></polygon>
      <rect x="37.2884" y="10.5818" width="19.512" height="30.9301"
       style=" stroke:#ffb367; stroke-width:1; fill:#ffb367; fill-opacity:100%" class="TAG:DoorFront"></rect>
      <ellipse  cx="40.674" cy="26.5991" rx="1.27124" ry="1.28876"
       style=" stroke:#6e6e00; stroke-width:1; fill:#a5a500; fill-opacity:100%" class="TAG:Doorknob"></ellipse>
    </g>
  </symbol>
 </defs>
</svg>
