<?xml version="1.0"?>
<?metis version="3.6"?>
<?metisxml version="1.1"?>
<!DOCTYPE svg  PUBLIC "-//W3C//DTD SVG 1.0//EN"
 "http://www.w3.org/TR/2001/REC-SVG-20010904/DTD/svg10.dtd">

<svg>
 <title>Symbol library: generalobject.svg</title>
 <defs>
  <symbol id="oid1" xml:space="preserve" class="METIS_SYMBOL">
   <title>Untitled</title>
    <g>
      <polygon points="1007.81 1007.81 0 1007.81 0 0 
       1007.81 0 1007.81 1007.81"
       style="stroke:none; fill:#ffffff; fill-opacity:0%"></polygon>
      <polygon points="94.9706 234.375 523.437 338.3 459.961 578.125 
       15.625 578.125 94.9706 234.375"
       style="stroke:none; fill:#12376f; fill-opacity:100%"></polygon>
      <polygon points="15.625 570.312 460.937 570.312  460.937 585.937       15.625 585.937 
            15.625 570.312  "
       style="stroke:none; fill:#184993; fill-opacity:100%"></polygon>
      <polyline points="15.625 570.312 460.937 570.312  460.937 585.937       15.625 585.937 
            15.625 570.312  "
       style="stroke:none;"></polyline>
      <polygon points="15.625 578.125 460.937 578.125  460.937 589.844       15.625 601.563 
        15.625 589.844      15.625 578.125"
       style="stroke:none; fill:#194b97; fill-opacity:100%"></polygon>
      <polyline points="15.625 578.125 460.937 578.125  460.937 589.844       15.625 601.563 
        15.625 589.844      15.625 578.125"
       style="stroke:none;"></polyline>
      <polygon points="15.7621 597.657 460.938 585.938  460.938 597.657      460.938 609.375 7.8125 609.375 
        15.7621 609.375    15.7621 597.657  "
       style="stroke:none; fill:#1a4e9b; fill-opacity:100%"></polygon>
      <polyline points="15.7621 597.657 460.938 585.938  460.938 597.657      460.938 609.375 7.8125 609.375 
        15.7621 609.375    15.7621 597.657  "
       style="stroke:none;"></polyline>
      <polygon points="7.8125 601.562 460.938 601.562      460.938 613.281   7.8125 625 
          7.8125 613.281 
          7.8125 601.562"
       style="stroke:none; fill:#1b509f; fill-opacity:100%"></polygon>
      <polyline points="7.8125 601.562 460.938 601.562      460.938 613.281   7.8125 625 
          7.8125 613.281 
          7.8125 601.562"
       style="stroke:none;"></polyline>
      <polygon points="7.8125 619.141 460.938 609.375    460.938 619.141     15.7621 648.438 
        15.7621 638.671  7.8125 638.671 
        7.8125 628.906  7.8125 619.141"
       style="stroke:none; fill:#1b52a3; fill-opacity:100%"></polygon>
      <polyline points="7.8125 619.141 460.938 609.375    460.938 619.141     15.7621 648.438 
        15.7621 638.671  7.8125 638.671 
        7.8125 628.906  7.8125 619.141"
       style="stroke:none;"></polyline>
      <polygon points="15.625 642.428 460.669 617.188  460.669 634.014  468.616 650.842  476.563 667.668  476.563 684.496 39.4666 726.563 
        23.5722 709.736  23.5722 684.496 
        15.625 659.255  15.625 642.428"
       style="stroke:none; fill:#1c54a7; fill-opacity:100%"></polygon>
      <polyline points="15.625 642.428 460.669 617.188  460.669 634.014  468.616 650.842  476.563 667.668  476.563 684.496 39.4666 726.563 
        23.5722 709.736  23.5722 684.496 
        15.625 659.255  15.625 642.428"
       style="stroke:none;"></polyline>
      <polygon points="39.0625 724.331 476.423 679.688  484.375 679.688    484.375 688.616   47.0145 742.188 
        39.0625 733.259    39.0625 724.331  "
       style="stroke:none; fill:#1b52a3; fill-opacity:100%"></polygon>
      <polyline points="39.0625 724.331 476.423 679.688  484.375 679.688    484.375 688.616   47.0145 742.188 
        39.0625 733.259    39.0625 724.331  "
       style="stroke:none;"></polyline>
      <polygon points="46.875 741.071 484.234 687.5  492.187 687.5  492.187 696.428     54.827 750 
          46.875 750 
        46.875 741.071  "
       style="stroke:none; fill:#1b509f; fill-opacity:100%"></polygon>
      <polyline points="46.875 741.071 484.234 687.5  492.187 687.5  492.187 696.428     54.827 750 
          46.875 750 
        46.875 741.071  "
       style="stroke:none;"></polyline>
      <polygon points="54.6875 748.884 492.047 695.312    500 695.312  500 704.241   62.6395 757.812 
          54.6875 757.812 
          54.6875 748.884"
       style="stroke:none; fill:#1a4e9b; fill-opacity:100%"></polygon>
      <polyline points="54.6875 748.884 492.047 695.312    500 695.312  500 704.241   62.6395 757.812 
          54.6875 757.812 
          54.6875 748.884"
       style="stroke:none;"></polyline>
      <polygon points="62.5 756.697 499.861 703.125      507.812 703.125   70.452 765.625 
          62.5 765.625 
          62.5 756.697"
       style="stroke:none; fill:#194b97; fill-opacity:100%"></polygon>
      <polyline points="62.5 756.697 499.861 703.125      507.812 703.125   70.452 765.625 
          62.5 765.625 
          62.5 756.697"
       style="stroke:none;"></polyline>
      <polygon points="70.3125 764.648 507.673 703.125  507.673 711.915      515.625 711.915 78.2645 773.438 
        70.3125 773.438      70.3125 764.648"
       style="stroke:none; fill:#184993; fill-opacity:100%"></polygon>
      <polyline points="70.3125 764.648 507.673 703.125  507.673 711.915      515.625 711.915 78.2645 773.438 
        70.3125 773.438      70.3125 764.648"
       style="stroke:none;"></polyline>
      <polygon points="78.125 772.461 515.625 710.938        515.625 719.726 86.0796 781.25 
        78.125 781.25    78.125 772.461  "
       style="stroke:none; fill:#18478f; fill-opacity:100%"></polygon>
      <polyline points="78.125 772.461 515.625 710.938        515.625 719.726 86.0796 781.25 
        78.125 781.25    78.125 772.461  "
       style="stroke:none;"></polyline>
      <polygon points="85.9375 780.274 515.482 718.75  523.438 718.75       93.892 789.063 
        85.9375 780.274      "
       style="stroke:none; fill:#17458b; fill-opacity:100%"></polygon>
      <polyline points="85.9375 780.274 515.482 718.75  523.438 718.75       93.892 789.063 
        85.9375 780.274      "
       style="stroke:none;"></polyline>
      <polygon points="93.75 789.063 523.295 718.75    531.25 718.75     101.704 789.063 
        93.75 789.063      "
       style="stroke:none; fill:#164387; fill-opacity:100%"></polygon>
      <polyline points="93.75 789.063 523.295 718.75    531.25 718.75     101.704 789.063 
        93.75 789.063      "
       style="stroke:none;"></polyline>
      <polygon points="101.562 788.195 531.108 718.75    531.108 727.43  539.062 727.43   109.517 796.875 
          101.562 788.195 
          "
       style="stroke:none; fill:#164183; fill-opacity:100%"></polygon>
      <polyline points="101.562 788.195 531.108 718.75    531.108 727.43  539.062 727.43   109.517 796.875 
          101.562 788.195 
          "
       style="stroke:none;"></polyline>
      <polygon points="109.375 796.875 539.063 726.562        109.375 796.875        "
       style="stroke:none; fill:#153f7e; fill-opacity:100%"></polygon>
      <polyline points="109.375 796.875 539.063 726.562        109.375 796.875        "
       style="stroke:none;"></polyline>
      <polygon points="267.548 93.75 656.25 248.641  632.451 248.641  608.653 248.641  584.855 264.945  561.058 281.25 140.625 142.663 
        172.356 118.207  204.086 101.902 
        235.817 93.75  267.548 93.75"
       style="stroke:none; fill:#12356a; fill-opacity:100%"></polygon>
      <polyline points="267.548 93.75 656.25 248.641  632.451 248.641  608.653 248.641  584.855 264.945  561.058 281.25 140.625 142.663 
        172.356 118.207  204.086 101.902 
        235.817 93.75  267.548 93.75"
       style="stroke:none;"></polyline>
      <polygon points="140.77 140.625 562.5 280.817    554.542 280.817    554.542 289.063 132.812 148.872 
          140.77 140.625 
          "
       style="stroke:none; fill:#12376e; fill-opacity:100%"></polygon>
      <polyline points="140.77 140.625 562.5 280.817    554.542 280.817    554.542 289.063 132.812 148.872 
          140.77 140.625 
          "
       style="stroke:none;"></polyline>
      <polygon points="132.957 148.438 554.688 288.63  546.73 288.63    546.73 296.876   125 164.93 
        125 156.684    132.957 156.684  132.957 148.438"
       style="stroke:none; fill:#133972; fill-opacity:100%"></polygon>
      <polyline points="132.957 148.438 554.688 288.63  546.73 288.63    546.73 296.876   125 164.93 
        125 156.684    132.957 156.684  132.957 148.438"
       style="stroke:none;"></polyline>
      <polygon points="125.145 164.062 546.876 296.414    538.919 296.414    538.919 304.687 117.188 172.335 
            117.188 164.062  125.145 164.062"
       style="stroke:none; fill:#143b76; fill-opacity:100%"></polygon>
      <polyline points="125.145 164.062 546.876 296.414    538.919 296.414    538.919 304.687 117.188 172.335 
            117.188 164.062  125.145 164.062"
       style="stroke:none;"></polyline>
      <polygon points="117.333 171.875 539.063 304.227        539.063 312.5 109.375 188.419 
        109.375 180.148    117.333 180.148  117.333 171.875"
       style="stroke:none; fill:#143d7a; fill-opacity:100%"></polygon>
      <polyline points="117.333 171.875 539.063 304.227        539.063 312.5 109.375 188.419 
        109.375 180.148    117.333 180.148  117.333 171.875"
       style="stroke:none;"></polyline>
      <polygon points="109.517 187.5 539.062 312.012  531.108 312.012      531.108 320.312 101.562 195.8 
        109.517 195.8  109.517 187.5 
          "
       style="stroke:none; fill:#153f7e; fill-opacity:100%"></polygon>
      <polyline points="109.517 187.5 539.062 312.012  531.108 312.012      531.108 320.312 101.562 195.8 
        109.517 195.8  109.517 187.5 
          "
       style="stroke:none;"></polyline>
      <polygon points="101.562 195.312 531.25 320.312         101.562 203.646 
          101.562 195.312 
          "
       style="stroke:none; fill:#164183; fill-opacity:100%"></polygon>
      <polyline points="101.562 195.312 531.25 320.312         101.562 203.646 
          101.562 195.312 
          "
       style="stroke:none;"></polyline>
      <polygon points="101.704 203.125 531.25 319.792  531.25 328.125  523.295 328.125     93.75 211.459 
        101.704 211.459    101.704 203.125  "
       style="stroke:none; fill:#164387; fill-opacity:100%"></polygon>
      <polyline points="101.704 203.125 531.25 319.792  531.25 328.125  523.295 328.125     93.75 211.459 
        101.704 211.459    101.704 203.125  "
       style="stroke:none;"></polyline>
      <polygon points="93.75 210.938 523.438 327.604  523.438 335.938       93.75 227.604 
        93.75 219.271      93.75 210.938"
       style="stroke:none; fill:#17458b; fill-opacity:100%"></polygon>
      <polyline points="93.75 210.938 523.438 327.604  523.438 335.938       93.75 227.604 
        93.75 219.271      93.75 210.938"
       style="stroke:none;"></polyline>
      <polygon points="93.75 226.562 523.438 335.379    523.438 343.75     93.75 234.933 
          93.75 226.562 
          "
       style="stroke:none; fill:#18478f; fill-opacity:100%"></polygon>
      <polyline points="93.75 226.562 523.438 335.379    523.438 343.75     93.75 234.933 
          93.75 226.562 
          "
       style="stroke:none;"></polyline>
      <polygon points="93.75 234.375 523.438 343.75         93.75 234.375 
             "
       style="stroke:none; fill:#184993; fill-opacity:100%"></polygon>
      <polyline points="93.75 234.375 523.438 343.75         93.75 234.375 
             "
       style="stroke:none;"></polyline>
      <polygon points="109.375 791.779 536.333 726.562 765.625 808.085 
       401.921 914.062 109.375 791.779"
       style="stroke:none; fill:#143c78; fill-opacity:100%"></polygon>
      <polygon points="398.438 913.505 765.626 804.688         406.42 921.876 
            398.438 913.505  "
       style="stroke:none; fill:#153f7e; fill-opacity:100%"></polygon>
      <polyline points="398.438 913.505 765.626 804.688         406.42 921.876 
            398.438 913.505  "
       style="stroke:none;"></polyline>
      <polygon points="406.25 921.876 765.292 804.688  773.271 804.688      781.25 804.688 422.207 921.876 
          414.228 921.876 
          406.25 921.876"
       style="stroke:none; fill:#143d7a; fill-opacity:100%"></polygon>
      <polyline points="406.25 921.876 765.292 804.688  773.271 804.688      781.25 804.688 422.207 921.876 
          414.228 921.876 
          406.25 921.876"
       style="stroke:none;"></polyline>
      <polygon points="421.875 921.355 781.081 804.688    781.081 813.021    789.063 813.021 437.84 929.688 
        429.858 921.355    421.875 921.355  "
       style="stroke:none; fill:#143b76; fill-opacity:100%"></polygon>
      <polyline points="421.875 921.355 781.081 804.688    781.081 813.021    789.063 813.021 437.84 929.688 
        429.858 921.355    421.875 921.355  "
       style="stroke:none;"></polyline>
      <polygon points="437.5 929.688 788.889 812.5      796.875 812.5   445.486 929.688 
          437.5 929.688 
          "
       style="stroke:none; fill:#133972; fill-opacity:100%"></polygon>
      <polyline points="437.5 929.688 788.889 812.5      796.875 812.5   445.486 929.688 
          437.5 929.688 
          "
       style="stroke:none;"></polyline>
      <polygon points="445.312 929.688 796.534 812.5  804.517 812.5      812.5 812.5 469.259 929.688 
        461.278 929.688    453.295 929.688  445.312 929.688"
       style="stroke:none; fill:#12376e; fill-opacity:100%"></polygon>
      <polyline points="445.312 929.688 796.534 812.5  804.517 812.5      812.5 812.5 469.259 929.688 
        461.278 929.688    453.295 929.688  445.312 929.688"
       style="stroke:none;"></polyline>
      <polygon points="468.75 929.688 811.991 813.021  819.973 813.021  827.955 804.688    835.938 804.688 500.679 921.355 
        492.698 921.355  484.715 921.355 
        476.732 929.688  468.75 929.688"
       style="stroke:none; fill:#12356a; fill-opacity:100%"></polygon>
      <polyline points="468.75 929.688 811.991 813.021  819.973 813.021  827.955 804.688    835.938 804.688 500.679 921.355 
        492.698 921.355  484.715 921.355 
        476.732 929.688  468.75 929.688"
       style="stroke:none;"></polyline>
      <polygon points="589.942 158.75 898.437 296.875 653.223 248.126 
       265.625 93.75 589.942 158.75"
       style="stroke:none; fill:#113366; fill-opacity:100%"></polygon>
      <polygon points="617.932 164.473 921.876 312.5  913.878 304.276  905.88 304.276  897.881 304.276  897.881 296.052 585.938 156.25 
        593.936 156.25  601.934 156.25 
        609.933 164.473  617.932 164.473"
       style="stroke:none; fill:#12356a; fill-opacity:100%"></polygon>
      <polyline points="617.932 164.473 921.876 312.5  913.878 304.276  905.88 304.276  897.881 304.276  897.881 296.052 585.938 156.25 
        593.936 156.25  601.934 156.25 
        609.933 164.473  617.932 164.473"
       style="stroke:none;"></polyline>
      <polygon points="632.812 796.875 929.687 718.75       632.812 796.875        "
       style="stroke:none; fill:#184993; fill-opacity:100%"></polygon>
      <polyline points="632.812 796.875 929.687 718.75       632.812 796.875        "
       style="stroke:none;"></polyline>
      <polygon points="633.018 795.454 929.688 718.75  929.688 727.272      929.688 735.795 625 812.5 
          625 803.977 
          633.018 795.454"
       style="stroke:none; fill:#18478f; fill-opacity:100%"></polygon>
      <polyline points="633.018 795.454 929.688 718.75  929.688 727.272      929.688 735.795 625 812.5 
          625 803.977 
          633.018 795.454"
       style="stroke:none;"></polyline>
      <polygon points="625.2 811.081 929.688 734.375    921.675 734.375    921.675 742.898 617.188 828.125 
        625.2 819.603      625.2 811.081"
       style="stroke:none; fill:#17458b; fill-opacity:100%"></polygon>
      <polyline points="625.2 811.081 929.688 734.375    921.675 734.375    921.675 742.898 617.188 828.125 
        625.2 819.603      625.2 811.081"
       style="stroke:none;"></polyline>
      <polygon points="617.188 827.415 921.876 742.188        921.876 750.71 617.188 835.938 
            617.188 827.415  "
       style="stroke:none; fill:#164387; fill-opacity:100%"></polygon>
      <polyline points="617.188 827.415 921.876 742.188        921.876 750.71 617.188 835.938 
            617.188 827.415  "
       style="stroke:none;"></polyline>
      <polygon points="617.388 834.635 921.875 750    913.863 750    913.863 758.463 609.375 851.562 
        609.375 843.099    617.388 843.099  617.388 834.635"
       style="stroke:none; fill:#164183; fill-opacity:100%"></polygon>
      <polyline points="617.388 834.635 921.875 750    913.863 750    913.863 758.463 609.375 851.562 
        609.375 843.099    617.388 843.099  617.388 834.635"
       style="stroke:none;"></polyline>
      <polygon points="609.575 850.911 914.062 757.812        914.062 766.276 601.562 859.374 
          609.575 859.374 
        609.575 850.911  "
       style="stroke:none; fill:#153f7e; fill-opacity:100%"></polygon>
      <polyline points="609.575 850.911 914.062 757.812        914.062 766.276 601.562 859.374 
          609.575 859.374 
        609.575 850.911  "
       style="stroke:none;"></polyline>
      <polygon points="601.757 858.172 914.062 765.625  906.055 765.625      906.055 774.039 593.75 875 
        593.75 866.586  601.757 866.586 
          601.757 858.172"
       style="stroke:none; fill:#143d7a; fill-opacity:100%"></polygon>
      <polyline points="601.757 858.172 914.062 765.625  906.055 765.625      906.055 774.039 593.75 875 
        593.75 866.586  601.757 866.586 
          601.757 858.172"
       style="stroke:none;"></polyline>
      <polygon points="593.945 874.4 906.25 773.438    898.242 773.438  898.242 781.851   585.938 882.813 
          593.945 882.813 
        593.945 874.4  "
       style="stroke:none; fill:#143b76; fill-opacity:100%"></polygon>
      <polyline points="593.945 874.4 906.25 773.438    898.242 773.438  898.242 781.851   585.938 882.813 
          593.945 882.813 
        593.945 874.4  "
       style="stroke:none;"></polyline>
      <polygon points="586.319 881.697 898.437 781.25    890.433 781.25  890.433 789.62   570.312 898.438 
        578.316 898.438  578.316 890.067 
        586.319 890.067  586.319 881.697"
       style="stroke:none; fill:#133972; fill-opacity:100%"></polygon>
      <polyline points="586.319 881.697 898.437 781.25    890.433 781.25  890.433 789.62   570.312 898.438 
        578.316 898.438  578.316 890.067 
        586.319 890.067  586.319 881.697"
       style="stroke:none;"></polyline>
      <polygon points="570.684 897.395 890.626 789.062  882.628 789.062  882.628 797.396    874.63 797.396 554.688 914.062 
        562.686 905.729    570.684 897.395  "
       style="stroke:none; fill:#12376e; fill-opacity:100%"></polygon>
      <polyline points="570.684 897.395 890.626 789.062  882.628 789.062  882.628 797.396    874.63 797.396 554.688 914.062 
        562.686 905.729    570.684 897.395  "
       style="stroke:none;"></polyline>
      <polygon points="555.707 912.684 875 796.875  867.017 805.148  859.034 805.148  851.053 813.419  843.071 813.419 507.812 937.5 
        523.778 929.228  531.759 929.228 
        547.724 920.956  555.707 912.684"
       style="stroke:none; fill:#12356a; fill-opacity:100%"></polygon>
      <polyline points="555.707 912.684 875 796.875  867.017 805.148  859.034 805.148  851.053 813.419  843.071 813.419 507.812 937.5 
        523.778 929.228  531.759 929.228 
        547.724 920.956  555.707 912.684"
       style="stroke:none;"></polyline>
      <polygon points="728.6 398.438 1000 462.188 928.159 725.157 
       632.812 796.876 728.6 398.438"
       style="stroke:none; fill:#12376e; fill-opacity:100%"></polygon>
      <polygon points="632.812 148.438 929.687 296.464      929.687 304.688   632.812 156.661 
          632.812 148.438 
          "
       style="stroke:none; fill:#18478f; fill-opacity:100%"></polygon>
      <polyline points="632.812 148.438 929.687 296.464      929.687 304.688   632.812 156.661 
          632.812 148.438 
          "
       style="stroke:none;"></polyline>
      <polygon points="632.812 156.25 929.481 304.688    937.5 304.688     648.849 156.25 
        640.831 156.25      632.812 156.25"
       style="stroke:none; fill:#184993; fill-opacity:100%"></polygon>
      <polyline points="632.812 156.25 929.481 304.688    937.5 304.688     648.849 156.25 
        640.831 156.25      632.812 156.25"
       style="stroke:none;"></polyline>
      <polygon points="648.438 156.25 937.29 304.276  945.313 304.276    945.313 312.5   656.461 164.473 
          648.438 164.473 
          648.438 156.25"
       style="stroke:none; fill:#194b97; fill-opacity:100%"></polygon>
      <polyline points="648.438 156.25 937.29 304.276  945.313 304.276    945.313 312.5   656.461 164.473 
          648.438 164.473 
          648.438 156.25"
       style="stroke:none;"></polyline>
      <polygon points="656.25 164.062 945.102 312.089  953.125 312.089      953.125 320.312 672.297 180.51 
        664.273 172.286      656.25 164.062"
       style="stroke:none; fill:#1a4e9b; fill-opacity:100%"></polygon>
      <polyline points="656.25 164.062 945.102 312.089  953.125 312.089      953.125 320.312 672.297 180.51 
        664.273 172.286      656.25 164.062"
       style="stroke:none;"></polyline>
      <polygon points="671.875 179.688 952.702 319.88  960.726 319.88      968.75 328.126 679.899 187.934 
          671.875 179.688 
          "
       style="stroke:none; fill:#1b509f; fill-opacity:100%"></polygon>
      <polyline points="671.875 179.688 952.702 319.88  960.726 319.88      968.75 328.126 679.899 187.934 
          671.875 179.688 
          "
       style="stroke:none;"></polyline>
      <polygon points="679.688 187.5 968.54 327.691    968.54 335.938  976.563 335.938   695.734 203.993 
          687.711 195.746 
          679.688 187.5"
       style="stroke:none; fill:#1b52a3; fill-opacity:100%"></polygon>
      <polyline points="679.688 187.5 968.54 327.691    968.54 335.938  976.563 335.938   695.734 203.993 
          687.711 195.746 
          679.688 187.5"
       style="stroke:none;"></polyline>
      <polygon points="695.312 203.125 975.945 333.125  983.963 349.375  991.981 365.625  1000 389.999  1000 406.25 735.403 308.75 
        727.384 284.375  719.367 251.875 
        711.349 227.499  695.312 203.125"
       style="stroke:none; fill:#1c54a7; fill-opacity:100%"></polygon>
      <polyline points="695.312 203.125 975.945 333.125  983.963 349.375  991.981 365.625  1000 389.999  1000 406.25 735.403 308.75 
        727.384 284.375  719.367 251.875 
        711.349 227.499  695.312 203.125"
       style="stroke:none;"></polyline>
      <polygon points="734.375 304.688 999.771 405.136  1007.81 405.136  1007.81 413.506    1007.81 421.876 734.375 329.799 
        734.375 321.428    734.375 313.058  734.375 304.688"
       style="stroke:none; fill:#1b52a3; fill-opacity:100%"></polygon>
      <polyline points="734.375 304.688 999.771 405.136  1007.81 405.136  1007.81 413.506    1007.81 421.876 734.375 329.799 
        734.375 321.428    734.375 313.058  734.375 304.688"
       style="stroke:none;"></polyline>
      <polygon points="734.375 328.125 1007.81 420.672    1007.81 429.086    1007.81 437.5 734.375 353.365 
        734.375 344.952  734.375 336.539 
          734.375 328.125"
       style="stroke:none; fill:#1b509f; fill-opacity:100%"></polygon>
      <polyline points="734.375 328.125 1007.81 420.672    1007.81 429.086    1007.81 437.5 734.375 353.365 
        734.375 344.952  734.375 336.539 
          734.375 328.125"
       style="stroke:none;"></polyline>
      <polygon points="734.375 351.562 1007.81 436.79      1007.81 445.312   734.375 368.608 
        734.375 360.085    734.375 351.562  "
       style="stroke:none; fill:#1a4e9b; fill-opacity:100%"></polygon>
      <polyline points="734.375 351.562 1007.81 436.79      1007.81 445.312   734.375 368.608 
        734.375 360.085    734.375 351.562  "
       style="stroke:none;"></polyline>
      <polygon points="734.375 367.188 1007.81 444.532  999.771 444.532  999.771 453.125     734.375 384.375 
        734.375 375.781    734.375 367.188  "
       style="stroke:none; fill:#194b97; fill-opacity:100%"></polygon>
      <polyline points="734.375 367.188 1007.81 444.532  999.771 444.532  999.771 453.125     734.375 384.375 
        734.375 375.781    734.375 367.188  "
       style="stroke:none;"></polyline>
      <polygon points="734.605 382.812 1000 451.561  1000 460.155      1000 468.75 726.562 400 
        734.605 391.406    734.605 382.812  "
       style="stroke:none; fill:#184993; fill-opacity:100%"></polygon>
      <polyline points="734.605 382.812 1000 451.561  1000 460.155      1000 468.75 726.562 400 
        734.605 391.406    734.605 382.812  "
       style="stroke:none;"></polyline>
      <polygon points="592.172 141.193  631.649 149.077 
       663.232 172.727  694.814 196.377 718.502 227.912 
        734.292 267.33 742.188 306.748  742.188 354.048 734.292 401.35 639.544 795.525  623.754 842.828 600.067 874.362  576.38 905.896 
       544.797 921.662  505.319 937.429 473.737 945.313 
        434.259 945.313 402.677 929.546 102.643 811.294 
        78.9562 795.525 55.2693 771.875  31.5825 740.341 15.7912 716.691  7.89562 677.273 
       0 645.739  0 606.321 7.89562 566.904 
       78.9562 235.796  94.7474 196.377 110.539 164.843 
        126.33 133.309 150.017 109.659  181.6 93.8921 213.182 78.125  244.765 78.125 
       276.347 78.125 592.172 141.193"
       style="stroke:none; fill:#113366; fill-opacity:100%"></polygon>
      <polygon points="623.872 795.622 718.664 393.426  726.563 353.994 726.563 314.564  718.664 275.133 
       702.865 235.702  679.167 212.044 655.47 180.499 
        623.872 164.725 592.275 156.84 268.403 93.75 
        244.706 93.75 213.108 93.75  181.511 109.522 157.813 125.295  134.114 148.954 
       118.317 172.612  102.517 204.157 94.6181 235.702 
       15.625 574.808  15.625 606.353 15.625 645.785 
        15.625 677.329 31.4236 708.874  39.3229 732.532 63.0209 756.191  86.7188 779.851 
       110.417 795.622 402.692 913.916  434.289 929.688 
       473.785 929.688  505.382 921.802 536.98 906.03 
        560.678 890.256 584.375 866.598  608.073 827.167 623.872 795.622"
       style="stroke:none; fill:#729100; fill-opacity:100%"></polygon>
      <polyline points="623.872 795.622 718.664 393.426  726.563 353.994 726.563 314.564  718.664 275.133 
       702.865 235.702  679.167 212.044 655.47 180.499 
        623.872 164.725 592.275 156.84 268.403 93.75 
        244.706 93.75 213.108 93.75  181.511 109.522 157.813 125.295  134.114 148.954 
       118.317 172.612  102.517 204.157 94.6181 235.702 
       15.625 574.808  15.625 606.353 15.625 645.785 
        15.625 677.329 31.4236 708.874  39.3229 732.532 63.0209 756.191  86.7188 779.851 
       110.417 795.622 402.692 913.916  434.289 929.688 
       473.785 929.688  505.382 921.802 536.98 906.03 
        560.678 890.256 584.375 866.598  608.073 827.167 623.872 795.622"
       style="stroke:none;"></polyline>
    </g>
  </symbol>
 </defs>
 <use xlink:href="#oid1"/>
</svg>
