<?xml version="1.0"?>
<?metis version="3.6"?>
<?metisxml version="1.1"?>
<!DOCTYPE svg  PUBLIC "-//W3C//DTD SVG 1.0//EN"
 "http://www.w3.org/TR/2001/REC-SVG-20010904/DTD/svg10.dtd">



<!--
Troux Technologies, Inc. Confidential and Proprietary.
This work contains valuable confidential, proprietary and trade secret
information of Troux Technologies, Inc. and is protected by the laws of 
the United States and other countries. Any disclosure, use or reproduction
of this work without the prior written authorization of Troux Technologies, Inc.
is strictly prohibited.
Copyright (C) 2000-2006 Troux Technologies, Inc. All rights reserved.
-->


<svg>
 <title>Symbol library: genericcomponent.svg</title>
 <defs>
  <symbol id="oid1" xml:space="preserve" class="METIS_SYMBOL">
   <title>Untitled</title>
    <g>
      <polygon points="1007.81 1007.81 0 1007.81 0 0 
       1007.81 0 1007.81 1007.81"
       style="stroke:none; fill:#ffffff; fill-opacity:0%"></polygon>
      <polygon points="320.312 796.875 476.562 750      320.312 796.875        "
       style="stroke:none; fill:#184993; fill-opacity:100%"></polygon>
      <polyline points="320.312 796.875 476.562 750      320.312 796.875        "
       style="stroke:none;"></polyline>
      <polygon points="320.312 795.572 476.562 750    476.562 759.114     320.312 804.688 
          320.312 795.572 
          "
       style="stroke:none; fill:#18478f; fill-opacity:100%"></polygon>
      <polyline points="320.312 795.572 476.562 750    476.562 759.114     320.312 804.688 
          320.312 795.572 
          "
       style="stroke:none;"></polyline>
      <polygon points="320.312 803.385 476.562 757.812         320.312 812.5 
        320.312 803.385      "
       style="stroke:none; fill:#17458b; fill-opacity:100%"></polygon>
      <polyline points="320.312 803.385 476.562 757.812         320.312 812.5 
        320.312 803.385      "
       style="stroke:none;"></polyline>
      <polygon points="320.703 812.5 476.562 757.812  476.562 766.927    468.359 766.927   312.5 812.5 
              320.703 812.5"
       style="stroke:none; fill:#164387; fill-opacity:100%"></polygon>
      <polyline points="320.703 812.5 476.562 757.812  476.562 766.927    468.359 766.927   312.5 812.5 
              320.703 812.5"
       style="stroke:none;"></polyline>
      <polygon points="312.5 811.198 468.75 765.625        468.75 774.74 312.5 820.313 
              312.5 811.198"
       style="stroke:none; fill:#164183; fill-opacity:100%"></polygon>
      <polyline points="312.5 811.198 468.75 765.625        468.75 774.74 312.5 820.313 
              312.5 811.198"
       style="stroke:none;"></polyline>
      <polygon points="312.891 819.011 468.75 773.438         304.688 828.125 
        312.891 828.125    312.891 819.011  "
       style="stroke:none; fill:#153f7e; fill-opacity:100%"></polygon>
      <polyline points="312.891 819.011 468.75 773.438         304.688 828.125 
        312.891 828.125    312.891 819.011  "
       style="stroke:none;"></polyline>
      <polygon points="304.688 827.009 468.75 773.438        460.546 782.366 304.688 835.938 
          304.688 827.009 
          "
       style="stroke:none; fill:#143d7a; fill-opacity:100%"></polygon>
      <polyline points="304.688 827.009 468.75 773.438        460.546 782.366 304.688 835.938 
          304.688 827.009 
          "
       style="stroke:none;"></polyline>
      <polygon points="305.079 834.821 460.937 781.25         296.875 843.75 
        305.079 834.821      "
       style="stroke:none; fill:#143b76; fill-opacity:100%"></polygon>
      <polyline points="305.079 834.821 460.937 781.25         296.875 843.75 
        305.079 834.821      "
       style="stroke:none;"></polyline>
      <polygon points="296.875 843.75 460.937 781.25      460.937 790.178  452.733 790.178 296.875 843.75 
              "
       style="stroke:none; fill:#133972; fill-opacity:100%"></polygon>
      <polyline points="296.875 843.75 460.937 781.25      460.937 790.178  452.733 790.178 296.875 843.75 
              "
       style="stroke:none;"></polyline>
      <polygon points="297.266 842.634 453.124 789.062         289.062 851.562 
              297.266 842.634"
       style="stroke:none; fill:#12376e; fill-opacity:100%"></polygon>
      <polyline points="297.266 842.634 453.124 789.062         289.062 851.562 
              297.266 842.634"
       style="stroke:none;"></polyline>
      <polygon points="290.081 849.826 453.125 789.062  444.973 797.743    436.822 797.743   265.625 867.187 
          273.778 858.506 
        281.929 858.506  290.081 849.826"
       style="stroke:none; fill:#12356a; fill-opacity:100%"></polygon>
      <polyline points="290.081 849.826 453.125 789.062  444.973 797.743    436.822 797.743   265.625 867.187 
          273.778 858.506 
        281.929 858.506  290.081 849.826"
       style="stroke:none;"></polyline>
      <polygon points="369.226 585.938 507.812 618.39 475.203 756.311 
       320.312 796.876 369.226 585.938"
       style="stroke:none; fill:#12376e; fill-opacity:100%"></polygon>
      <polygon points="312.5 460.938 468.75 539.063         312.5 460.938 
              "
       style="stroke:none; fill:#18478f; fill-opacity:100%"></polygon>
      <polyline points="312.5 460.938 468.75 539.063         312.5 460.938 
              "
       style="stroke:none;"></polyline>
      <polygon points="468.359 546.875      468.359 538.282 
       312.5 460.938      320.703 469.531   476.562 546.875  468.359 546.875 
       "
       style="stroke:none; fill:#184993; fill-opacity:100%"></polygon>
      <polygon points="476.562 546.875       320.312 468.75         476.562 546.875   "
       style="stroke:none; fill:#194b97; fill-opacity:100%"></polygon>
      <polygon points="484.374 546.093  476.171 546.093 
           320.312 468.75  328.516 468.75    328.516 477.343   484.374 554.688  484.374 546.093 
       "
       style="stroke:none; fill:#1a4e9b; fill-opacity:100%"></polygon>
      <polygon points="484.375 554.687       328.125 476.562    336.349 476.562    336.349 485.243 484.375 554.687   "
       style="stroke:none; fill:#1b509f; fill-opacity:100%"></polygon>
      <polygon points="492.188 562.5  492.188 553.819 
          483.964 553.819 
       335.938 484.375    344.161 484.375    344.161 493.056 492.188 562.5   "
       style="stroke:none; fill:#1b52a3; fill-opacity:100%"></polygon>
      <polygon points="507.812 585.286  499.609 576.822 
        499.609 568.359  491.406 559.896 
       343.75 492.188  351.953 500.651  360.156 517.578  360.156 526.042  368.36 542.968 507.812 593.75  507.812 585.286 
       "
       style="stroke:none; fill:#1c54a7; fill-opacity:100%"></polygon>
      <polygon points="507.813 601.562    507.813 592.634   367.188 539.062  367.188 547.991      367.188 556.92 507.813 601.562   "
       style="stroke:none; fill:#1b52a3; fill-opacity:100%"></polygon>
      <polygon points="507.813 600.261 367.188 554.688      367.188 563.802   507.813 609.375 
            507.813 600.261   "
       style="stroke:none; fill:#1b509f; fill-opacity:100%"></polygon>
      <polygon points="367.188 562.5  367.188 571.614 
           507.813 617.188    507.813 608.072     367.188 562.5   "
       style="stroke:none; fill:#1a4e9b; fill-opacity:100%"></polygon>
      <polygon points="367.188 570.312  367.188 579.427 
           507.813 625  507.813 615.885       367.188 570.312   "
       style="stroke:none; fill:#194b97; fill-opacity:100%"></polygon>
      <polygon points="367.188 578.125  367.188 587.5 
           507.813 625         367.188 578.125   "
       style="stroke:none; fill:#184993; fill-opacity:100%"></polygon>
      <polygon points="295.212 453.683  335.106 469.587 
        359.042 501.395  375 541.154 
        375 588.868 327.127 795.618  311.17 835.379  279.255 859.234  247.341 867.187  207.447 867.187 55.851 803.571 
        23.9361 779.716  7.97871 747.908 
        0 716.1  0 676.339 
       31.9149 509.346  47.8723 469.587  63.8297 445.73  95.7446 429.828  127.659 421.875 295.212 453.683"
       style="stroke:none; fill:#113366; fill-opacity:100%"></polygon>
      <polygon points="319.294 795.718 367.188 588.832  367.188 541.088  351.223 509.259  327.276 477.43  295.346 461.517 127.718 429.688 
        95.7882 437.645  71.8411 445.601 
        47.8941 477.43  39.9117 509.259 
       7.98235 676.361  0 716.147  15.9647 747.976  31.9294 771.847  55.8764 795.718 207.541 859.376  247.453 859.376 
        279.383 851.419  303.329 827.547 
        319.294 795.718"
       style="stroke:none; fill:#82c7d9; fill-opacity:100%"></polygon>
      <polyline points="319.294 795.718 367.188 588.832  367.188 541.088  351.223 509.259  327.276 477.43  295.346 461.517 127.718 429.688 
        95.7882 437.645  71.8411 445.601 
        47.8941 477.43  39.9117 509.259 
       7.98235 676.361  0 716.147  15.9647 747.976  31.9294 771.847  55.8764 795.718 207.541 859.376  247.453 859.376 
        279.383 851.419  303.329 827.547 
        319.294 795.718"
       style="stroke:none;"></polyline>
      <polygon points="710.938 921.875 882.813 875     710.938 921.875 
             "
       style="stroke:none; fill:#184993; fill-opacity:100%"></polygon>
      <polyline points="710.938 921.875 882.813 875     710.938 921.875 
             "
       style="stroke:none;"></polyline>
      <polygon points="711.293 920.573 882.813 875    882.813 884.114     703.125 929.688 
              711.293 920.573"
       style="stroke:none; fill:#18478f; fill-opacity:100%"></polygon>
      <polyline points="711.293 920.573 882.813 875    882.813 884.114     703.125 929.688 
              711.293 920.573"
       style="stroke:none;"></polyline>
      <polygon points="703.125 928.385 882.813 882.812        874.646 891.927 703.125 937.5 
              703.125 928.385"
       style="stroke:none; fill:#17458b; fill-opacity:100%"></polygon>
      <polyline points="703.125 928.385 882.813 882.812        874.646 891.927 703.125 937.5 
              703.125 928.385"
       style="stroke:none;"></polyline>
      <polygon points="703.125 936.198 875 890.625         703.125 945.313 
              703.125 936.198"
       style="stroke:none; fill:#164387; fill-opacity:100%"></polygon>
      <polyline points="703.125 936.198 875 890.625         703.125 945.313 
              703.125 936.198"
       style="stroke:none;"></polyline>
      <polygon points="703.48 944.196 875 890.625      875 899.554   695.312 953.125 
            695.312 944.196  703.48 944.196"
       style="stroke:none; fill:#164183; fill-opacity:100%"></polygon>
      <polyline points="703.48 944.196 875 890.625      875 899.554   695.312 953.125 
            695.312 944.196  703.48 944.196"
       style="stroke:none;"></polyline>
      <polygon points="695.312 952.009 875 898.438         695.312 960.938 
            695.312 952.009  "
       style="stroke:none; fill:#153f7e; fill-opacity:100%"></polygon>
      <polyline points="695.312 952.009 875 898.438         695.312 960.938 
            695.312 952.009  "
       style="stroke:none;"></polyline>
      <polygon points="695.652 959.961 875 898.438  866.847 898.438  866.847 907.227     687.5 968.75 
          687.5 959.961 
          695.652 959.961"
       style="stroke:none; fill:#143d7a; fill-opacity:100%"></polygon>
      <polyline points="695.652 959.961 875 898.438  866.847 898.438  866.847 907.227     687.5 968.75 
          687.5 959.961 
          695.652 959.961"
       style="stroke:none;"></polyline>
      <polygon points="687.84 967.773 867.188 906.25         679.688 976.563 
        687.84 967.773      "
       style="stroke:none; fill:#143b76; fill-opacity:100%"></polygon>
      <polyline points="687.84 967.773 867.188 906.25         679.688 976.563 
        687.84 967.773      "
       style="stroke:none;"></polyline>
      <polygon points="680.014 975.694 867.187 906.25  859.048 914.931       671.875 984.375 
        680.014 975.694      "
       style="stroke:none; fill:#133972; fill-opacity:100%"></polygon>
      <polyline points="680.014 975.694 867.187 906.25  859.048 914.931       671.875 984.375 
        680.014 975.694      "
       style="stroke:none;"></polyline>
      <polygon points="672.201 983.507 859.374 914.063      851.237 922.743   664.062 992.188 
        672.201 983.507      "
       style="stroke:none; fill:#12376e; fill-opacity:100%"></polygon>
      <polyline points="672.201 983.507 859.374 914.063      851.237 922.743   664.062 992.188 
        672.201 983.507      "
       style="stroke:none;"></polyline>
      <polygon points="664.963 991.319 851.563 921.875    843.451 930.556  835.337 930.556   640.625 1000 
        648.739 1000  656.851 1000 
        656.851 991.319  664.963 991.319"
       style="stroke:none; fill:#12356a; fill-opacity:100%"></polygon>
      <polyline points="664.963 991.319 851.563 921.875    843.451 930.556  835.337 930.556   640.625 1000 
        648.739 1000  656.851 1000 
        656.851 991.319  664.963 991.319"
       style="stroke:none;"></polyline>
      <polygon points="767.729 687.5 921.876 727.909 881.311 881.466 
       710.938 921.875 767.729 687.5"
       style="stroke:none; fill:#12376e; fill-opacity:100%"></polygon>
      <polygon points="710.938 554.688 882.813 640.625         710.938 554.688 
              "
       style="stroke:none; fill:#18478f; fill-opacity:100%"></polygon>
      <polyline points="710.938 554.688 882.813 640.625         710.938 554.688 
              "
       style="stroke:none;"></polyline>
      <polygon points="882.459 640.625       710.938 554.688      719.105 554.688   890.626 640.625  882.459 640.625 
       "
       style="stroke:none; fill:#184993; fill-opacity:100%"></polygon>
      <polygon points="890.625 648.438    890.625 639.915   718.75 554.688    718.75 563.21    726.934 563.21 890.625 648.438   "
       style="stroke:none; fill:#194b97; fill-opacity:100%"></polygon>
      <polygon points="898.437 648.438    890.252 648.438   726.562 562.5        726.562 571.093 898.437 648.438   "
       style="stroke:none; fill:#1a4e9b; fill-opacity:100%"></polygon>
      <polygon points="898.437 656.25    898.437 647.655   726.562 570.312  734.747 570.312       898.437 656.25   "
       style="stroke:none; fill:#1b509f; fill-opacity:100%"></polygon>
      <polygon points="906.25 664.062  906.25 655.54 
          898.065 655.54 
       734.375 570.312  742.56 578.835      742.56 587.358 906.25 664.062   "
       style="stroke:none; fill:#1b52a3; fill-opacity:100%"></polygon>
      <polygon points="921.876 686.386  921.876 678.015 
        913.709 669.643  905.542 661.273 
       742.188 585.938  750.355 594.308  758.522 611.049  766.691 627.791  766.691 644.532 921.876 703.126  921.876 686.386 
       "
       style="stroke:none; fill:#1c54a7; fill-opacity:100%"></polygon>
      <polygon points="921.875 710.938  921.875 702.148 
           765.625 640.625    765.625 649.415    765.625 658.203 921.875 710.938   "
       style="stroke:none; fill:#1b52a3; fill-opacity:100%"></polygon>
      <polygon points="921.875 709.821 765.625 656.25      765.625 665.178   921.875 718.75 
          921.875 709.821 
           "
       style="stroke:none; fill:#1b509f; fill-opacity:100%"></polygon>
      <polygon points="765.625 664.062  765.625 672.991 
           921.875 726.562  921.875 717.634       765.625 664.062   "
       style="stroke:none; fill:#1a4e9b; fill-opacity:100%"></polygon>
      <polygon points="765.625 680.99       921.875 726.563         765.625 671.875  765.625 680.99 
       "
       style="stroke:none; fill:#194b97; fill-opacity:100%"></polygon>
      <polygon points="765.625 688.802       921.875 734.375      921.875 725.261   765.625 679.688  765.625 688.802 
       "
       style="stroke:none; fill:#184993; fill-opacity:100%"></polygon>
      <polygon points="693.838 547.495  709.758 547.495 
       733.637 563.368  749.558 579.241 757.517 595.114 
        773.437 642.733  773.437 666.542 
       773.437 690.352 717.718 920.511  709.758 944.32 
       693.838 968.13  661.998 999.876  622.199 1007.81  598.319 1007.81 582.399 999.876 
       407.282 928.447  383.402 904.638  359.522 872.892  351.562 833.209  351.562 793.526 399.322 603.05  407.282 563.368 
        439.121 531.622  470.961 507.812 
        502.801 507.812 693.838 547.495"
       style="stroke:none; fill:#113366; fill-opacity:100%"></polygon>
      <polygon points="701.899 920.594 765.625 690.318  765.625 642.674  749.695 602.971  725.797 571.209  709.866 563.268 685.969 555.328 
       502.758 515.625  470.895 523.566  439.032 539.446  415.134 563.268  399.204 602.971 359.375 793.545  359.375 833.248 
        367.341 872.951  383.272 904.714 
        415.134 920.594 582.414 992.059  622.243 1000  654.106 984.119  685.969 960.297  701.899 920.594"
       style="stroke:none; fill:#82c7d9; fill-opacity:100%"></polygon>
      <polyline points="701.899 920.594 765.625 690.318  765.625 642.674  749.695 602.971  725.797 571.209  709.866 563.268 685.969 555.328 
       502.758 515.625  470.895 523.566  439.032 539.446  415.134 563.268  399.204 602.971 359.375 793.545  359.375 833.248 
        367.341 872.951  383.272 904.714 
        415.134 920.594 582.414 992.059  622.243 1000  654.106 984.119  685.969 960.297  701.899 920.594"
       style="stroke:none;"></polyline>
      <polygon points="531.25 499.4  499.399 507.813 
        300.33 457.332 117.188 398.438 379.958 432.092 
       531.25 499.4"
       style="stroke:none; fill:#0f2b57; fill-opacity:100%"></polygon>
      <polygon points="398.438 343.75 554.688 445.312      398.438 343.75        "
       style="stroke:none; fill:#184993; fill-opacity:100%"></polygon>
      <polyline points="398.438 343.75 554.688 445.312      398.438 343.75        "
       style="stroke:none;"></polyline>
      <polygon points="398.438 343.75 554.688 445.312         398.438 352.213 
        398.438 343.75      "
       style="stroke:none; fill:#18478f; fill-opacity:100%"></polygon>
      <polyline points="398.438 343.75 554.688 445.312         398.438 352.213 
        398.438 343.75      "
       style="stroke:none;"></polyline>
      <polygon points="398.438 351.562 554.688 444.661  554.688 453.124       398.438 360.026 
        398.438 351.562      "
       style="stroke:none; fill:#17458b; fill-opacity:100%"></polygon>
      <polyline points="398.438 351.562 554.688 444.661  554.688 453.124       398.438 360.026 
        398.438 351.562      "
       style="stroke:none;"></polyline>
      <polygon points="398.829 359.375 554.687 452.473        554.687 460.937 390.625 359.375 
          398.829 359.375 
          "
       style="stroke:none; fill:#164387; fill-opacity:100%"></polygon>
      <polyline points="398.829 359.375 554.687 452.473        554.687 460.937 390.625 359.375 
          398.829 359.375 
          "
       style="stroke:none;"></polyline>
      <polygon points="390.625 359.375 554.687 460.937  546.483 460.937       390.625 367.839 
              390.625 359.375"
       style="stroke:none; fill:#164183; fill-opacity:100%"></polygon>
      <polyline points="390.625 359.375 554.687 460.937  546.483 460.937       390.625 367.839 
              390.625 359.375"
       style="stroke:none;"></polyline>
      <polygon points="390.625 367.188 546.875 460.286      546.875 468.75   390.625 375.651 
              390.625 367.188"
       style="stroke:none; fill:#153f7e; fill-opacity:100%"></polygon>
      <polyline points="390.625 367.188 546.875 460.286      546.875 468.75   390.625 375.651 
              390.625 367.188"
       style="stroke:none;"></polyline>
      <polygon points="391.016 375 546.874 468.75         382.812 383.522 
            382.812 375  391.016 375"
       style="stroke:none; fill:#143d7a; fill-opacity:100%"></polygon>
      <polyline points="391.016 375 546.874 468.75         382.812 383.522 
            382.812 375  391.016 375"
       style="stroke:none;"></polyline>
      <polygon points="383.184 382.812 546.875 468.04  538.691 476.562       375 391.335 
        383.184 391.335    383.184 382.812  "
       style="stroke:none; fill:#143b76; fill-opacity:100%"></polygon>
      <polyline points="383.184 382.812 546.875 468.04  538.691 476.562       375 391.335 
        383.184 391.335    383.184 382.812  "
       style="stroke:none;"></polyline>
      <polygon points="375 390.625 539.062 475.853      539.062 484.375   375 399.148 
          375 390.625 
          "
       style="stroke:none; fill:#133972; fill-opacity:100%"></polygon>
      <polyline points="375 390.625 539.062 475.853      539.062 484.375   375 399.148 
          375 390.625 
          "
       style="stroke:none;"></polyline>
      <polygon points="375.372 398.438 539.063 483.665  530.879 483.665      530.879 492.188 367.188 406.96 
            367.188 398.438  375.372 398.438"
       style="stroke:none; fill:#12376e; fill-opacity:100%"></polygon>
      <polyline points="375.372 398.438 539.063 483.665  530.879 483.665      530.879 492.188 367.188 406.96 
            367.188 398.438  375.372 398.438"
       style="stroke:none;"></polyline>
      <polygon points="368.207 406.25 531.25 491.477  523.097 491.477    514.945 500   343.75 423.295 
          351.902 414.772 
        360.054 414.772  368.207 406.25"
       style="stroke:none; fill:#12356a; fill-opacity:100%"></polygon>
      <polyline points="368.207 406.25 531.25 491.477  523.097 491.477    514.945 500   343.75 423.295 
          351.902 414.772 
        360.054 414.772  368.207 406.25"
       style="stroke:none;"></polyline>
      <polygon points="455.403 132.812 593.75 301.081 553.059 445.312 
       398.438 349.158 455.403 132.812"
       style="stroke:none; fill:#12376e; fill-opacity:100%"></polygon>
      <polygon points="398.438 15.625 554.688 226.563         398.438 15.625 
              "
       style="stroke:none; fill:#18478f; fill-opacity:100%"></polygon>
      <polyline points="398.438 15.625 554.688 226.563         398.438 15.625 
              "
       style="stroke:none;"></polyline>
      <polygon points="554.296 226.563       398.438 15.625    406.641 15.625    406.641 23.7385 562.5 226.563  554.296 226.563 
       "
       style="stroke:none; fill:#184993; fill-opacity:100%"></polygon>
      <polygon points="562.5 226.563       406.25 23.438      414.473 23.438   562.5 226.563   "
       style="stroke:none; fill:#194b97; fill-opacity:100%"></polygon>
      <polygon points="570.312 234.376  562.089 234.376 
          562.089 226.263 
       414.062 23.438        422.286 23.438 570.312 234.376   "
       style="stroke:none; fill:#1a4e9b; fill-opacity:100%"></polygon>
      <polygon points="570.313 234.376       421.875 23.438    421.875 31.5505     570.313 234.376   "
       style="stroke:none; fill:#1b509f; fill-opacity:100%"></polygon>
      <polygon points="578.125 242.188    569.902 234.074   421.875 31.25  430.099 31.25    430.099 39.3625   578.125 242.188   "
       style="stroke:none; fill:#1b52a3; fill-opacity:100%"></polygon>
      <polygon points="593.75 265.355  585.546 257.273 
        585.546 249.192  577.343 241.109 
       429.688 39.062  437.891 47.1444  446.093 55.2268  454.297 71.3895  454.297 87.5543 593.75 273.437  593.75 265.355 
       "
       style="stroke:none; fill:#1c54a7; fill-opacity:100%"></polygon>
      <polygon points="593.75 281.25  593.75 273.111 
           453.125 85.938    453.125 94.0755     593.75 281.25   "
       style="stroke:none; fill:#1b52a3; fill-opacity:100%"></polygon>
      <polygon points="593.75 280.925 453.125 93.75  453.125 101.887      453.125 110.026 593.75 289.062 
        593.75 280.925       "
       style="stroke:none; fill:#1b509f; fill-opacity:100%"></polygon>
      <polygon points="453.125 109.375      453.125 117.543 
       593.75 289.063         453.125 109.375   "
       style="stroke:none; fill:#1a4e9b; fill-opacity:100%"></polygon>
      <polygon points="453.125 117.188      453.125 125.355 
       593.75 296.876        593.75 288.709 453.125 117.188   "
       style="stroke:none; fill:#194b97; fill-opacity:100%"></polygon>
      <polygon points="453.125 125      453.125 133.167 
       593.75 304.688    593.75 296.52     453.125 125   "
       style="stroke:none; fill:#184993; fill-opacity:100%"></polygon>
      <polygon points="381.185 15.625  405.111 15.625 
       421.06 23.5827  437.012 31.5394 444.986 47.4537 
        460.937 87.2402  460.937 134.982 
       405.111 349.827  389.159 389.612  357.258 421.441  325.357 437.356  285.481 445.313 133.951 413.484  102.05 397.57 
        86.1003 373.699  78.125 341.87 
        78.125 302.084 118.002 119.069  125.977 87.2402  149.903 55.4114  181.804 31.5394  213.705 23.5827 381.185 15.625"
       style="stroke:none; fill:#113366; fill-opacity:100%"></polygon>
      <polygon points="397.274 349.909 453.125 134.915  453.125 87.1398  437.169 55.2889  413.232 31.4002  381.317 23.438 213.764 31.4002 
        181.849 39.3624  157.912 55.2889 
        133.976 87.1398  118.019 118.991 
       86.1037 302.133  78.125 341.947  86.1037 365.835  110.04 389.723  133.976 405.649 285.572 437.5  325.465 429.537 
        357.38 413.611  381.317 389.723 
        397.274 349.909"
       style="stroke:none; fill:#82c7d9; fill-opacity:100%"></polygon>
      <polyline points="397.274 349.909 453.125 134.915  453.125 87.1398  437.169 55.2889  413.232 31.4002  381.317 23.438 213.764 31.4002 
        181.849 39.3624  157.912 55.2889 
        133.976 87.1398  118.019 118.991 
       86.1037 302.133  78.125 341.947  86.1037 365.835  110.04 389.723  133.976 405.649 285.572 437.5  325.465 429.537 
        357.38 413.611  381.317 389.723 
        397.274 349.909"
       style="stroke:none;"></polyline>
      <polygon points="914.062 593.75  882.244 593.75 
        675.426 543.268 476.562 484.375 747.017 509.615 
       914.062 593.75"
       style="stroke:none; fill:#0f2b57; fill-opacity:100%"></polygon>
      <polygon points="820.312 421.875 960.937 523.437     820.312 421.875 
              "
       style="stroke:none; fill:#184993; fill-opacity:100%"></polygon>
      <polyline points="820.312 421.875 960.937 523.437     820.312 421.875 
              "
       style="stroke:none;"></polyline>
      <polygon points="820.746 421.875 960.938 522.836  960.938 531.25       812.5 430.289 
        820.746 421.875      "
       style="stroke:none; fill:#18478f; fill-opacity:100%"></polygon>
      <polyline points="820.746 421.875 960.938 522.836  960.938 531.25       812.5 430.289 
        820.746 421.875      "
       style="stroke:none;"></polyline>
      <polygon points="812.5 429.688 960.938 530.65      960.938 539.063   812.5 438.101 
          812.5 429.688 
          "
       style="stroke:none; fill:#17458b; fill-opacity:100%"></polygon>
      <polyline points="812.5 429.688 960.938 530.65      960.938 539.063   812.5 438.101 
          812.5 429.688 
          "
       style="stroke:none;"></polyline>
      <polygon points="812.5 437.5 960.938 538.462        960.938 546.875 812.5 445.913 
          812.5 437.5 
          "
       style="stroke:none; fill:#164387; fill-opacity:100%"></polygon>
      <polyline points="812.5 437.5 960.938 538.462        960.938 546.875 812.5 445.913 
          812.5 437.5 
          "
       style="stroke:none;"></polyline>
      <polygon points="812.911 445.312 960.938 546.874  952.714 546.874       804.688 453.776 
          804.688 445.312 
        812.911 445.312  "
       style="stroke:none; fill:#164183; fill-opacity:100%"></polygon>
      <polyline points="812.911 445.312 960.938 546.874  952.714 546.874       804.688 453.776 
          804.688 445.312 
        812.911 445.312  "
       style="stroke:none;"></polyline>
      <polygon points="804.688 453.125 953.126 546.223    953.126 554.687     804.688 461.589 
          804.688 453.125 
          "
       style="stroke:none; fill:#153f7e; fill-opacity:100%"></polygon>
      <polyline points="804.688 453.125 953.126 546.223    953.126 554.687     804.688 461.589 
          804.688 453.125 
          "
       style="stroke:none;"></polyline>
      <polygon points="805.099 460.938 953.125 554.036      944.902 554.036  944.902 562.5 796.875 469.401 
          796.875 460.938 
        805.099 460.938  "
       style="stroke:none; fill:#143d7a; fill-opacity:100%"></polygon>
      <polyline points="805.099 460.938 953.125 554.036      944.902 554.036  944.902 562.5 796.875 469.401 
          796.875 460.938 
        805.099 460.938  "
       style="stroke:none;"></polyline>
      <polygon points="797.286 468.75 945.312 562.5         789.062 477.272 
        797.286 477.272  797.286 468.75 
          "
       style="stroke:none; fill:#143b76; fill-opacity:100%"></polygon>
      <polyline points="797.286 468.75 945.312 562.5         789.062 477.272 
        797.286 477.272  797.286 468.75 
          "
       style="stroke:none;"></polyline>
      <polygon points="789.453 476.562 945.312 561.79  945.312 570.312  937.109 570.312     781.25 485.085 
        789.453 485.085    789.453 476.562  "
       style="stroke:none; fill:#133972; fill-opacity:100%"></polygon>
      <polyline points="789.453 476.562 945.312 561.79  945.312 570.312  937.109 570.312     781.25 485.085 
        789.453 485.085    789.453 476.562  "
       style="stroke:none;"></polyline>
      <polygon points="781.641 484.375 937.5 569.603    937.5 578.125  929.296 578.125   773.438 492.898 
          781.641 492.898 
        781.641 484.375  "
       style="stroke:none; fill:#12376e; fill-opacity:100%"></polygon>
      <polyline points="781.641 484.375 937.5 569.603    937.5 578.125  929.296 578.125   773.438 492.898 
          781.641 492.898 
        781.641 484.375  "
       style="stroke:none;"></polyline>
      <polygon points="774.503 492.188 929.688 576.822  929.688 585.286  921.52 585.286  913.353 593.75   750 517.578 
          758.167 509.114 
        766.335 500.651  774.503 492.188"
       style="stroke:none; fill:#12356a; fill-opacity:100%"></polygon>
      <polyline points="774.503 492.188 929.688 576.822  929.688 585.286  921.52 585.286  913.353 593.75   750 517.578 
          758.167 509.114 
        766.335 500.651  774.503 492.188"
       style="stroke:none;"></polyline>
      <polygon points="877.378 164.062 1007.81 355.728 958.899 523.437 
       820.312 427.604 877.378 164.062"
       style="stroke:none; fill:#12376e; fill-opacity:100%"></polygon>
      <polygon points="812.5 31.25 960.938 265.625         820.746 31.25 
            812.5 31.25  "
       style="stroke:none; fill:#18478f; fill-opacity:100%"></polygon>
      <polyline points="812.5 31.25 960.938 265.625         820.746 31.25 
            812.5 31.25  "
       style="stroke:none;"></polyline>
      <polygon points="968.75 265.365  960.503 265.365 
           820.312 31.25        828.559 31.25 968.75 273.438  968.75 265.365 
       "
       style="stroke:none; fill:#184993; fill-opacity:100%"></polygon>
      <polygon points="968.75 273.438       828.125 31.25  828.125 39.3224       968.75 273.438   "
       style="stroke:none; fill:#194b97; fill-opacity:100%"></polygon>
      <polygon points="976.563 273.437      968.317 273.437 
       828.125 39.062  836.372 39.062       976.563 273.437   "
       style="stroke:none; fill:#1a4e9b; fill-opacity:100%"></polygon>
      <polygon points="984.376 281.25  976.13 273.177 
           835.938 39.062  844.184 47.1354       984.376 281.25   "
       style="stroke:none; fill:#1b509f; fill-opacity:100%"></polygon>
      <polygon points="983.941 281.25       843.75 46.875  851.996 46.875  851.996 54.9574    860.243 54.9574 992.188 281.25  983.941 281.25 
       "
       style="stroke:none; fill:#1b52a3; fill-opacity:100%"></polygon>
      <polygon points="1007.81 312.264  999.567 304.214 
        991.32 288.116  991.32 280.067 
       859.375 54.688  867.622 70.7855  875.868 78.8353  875.868 94.9338  884.114 111.032 1007.81 320.313  1007.81 312.264 
       "
       style="stroke:none; fill:#1c54a7; fill-opacity:100%"></polygon>
      <polygon points="1007.81 328.125      1007.81 320.024 
       882.812 109.375  882.812 117.477    882.812 125.579   1007.81 328.125   "
       style="stroke:none; fill:#1b52a3; fill-opacity:100%"></polygon>
      <polygon points="1007.81 327.824 882.812 125  882.812 133.112      882.812 141.226 1007.81 335.938 
              1007.81 327.824 
       "
       style="stroke:none; fill:#1b509f; fill-opacity:100%"></polygon>
      <polygon points="882.812 140.625    882.812 148.75   1007.81 343.75        1007.81 335.625 882.812 140.625   "
       style="stroke:none; fill:#1a4e9b; fill-opacity:100%"></polygon>
      <polygon points="882.812 148.438  882.812 156.563 
           1007.81 351.563        1007.81 343.438 882.812 148.438   "
       style="stroke:none; fill:#194b97; fill-opacity:100%"></polygon>
      <polygon points="883.3 164.375    875 164.375   1007.81 359.375      1007.81 351.25   883.3 156.25  883.3 164.375 
       "
       style="stroke:none; fill:#184993; fill-opacity:100%"></polygon>
      <polygon points="795.259 31.25  819.101 31.25 
       842.944 39.1841  858.837 55.0542 874.733 70.9223 
        882.679 86.7924 890.626 110.596  890.626 142.334 882.679 166.137 827.048 427.978  819.101 451.781 803.207 475.586  771.418 515.258 
        747.577 523.193 723.735 531.128  699.893 539.062 676.051 539.062 493.266 499.39  477.37 491.455 461.477 483.52  437.635 451.781 
        429.688 412.109  429.688 364.502 
       477.37 150.269  493.266 102.661  517.107 70.9223  556.844 39.1841  596.579 31.25 795.259 31.25"
       style="stroke:none; fill:#113366; fill-opacity:100%"></polygon>
      <polygon points="819.196 420.209 874.861 166.111  882.812 142.29 874.861 118.469  874.861 94.6465 
       866.908 78.7653  851.004 62.8842 835.1 47.0031 
        811.245 39.062 795.339 39.062 596.54 39.062 
        556.781 47.0031  524.973 70.8243 
        501.116 110.528  485.212 150.231 
       437.5 364.626  437.5 404.329  445.451 444.031  469.308 475.794  501.116 483.734 684.013 523.437  699.915 523.437 
       723.772 523.437  763.531 507.556  795.339 467.854  819.196 420.209"
       style="stroke:none; fill:#82c7d9; fill-opacity:100%"></polygon>
      <polyline points="819.196 420.209 874.861 166.111  882.812 142.29 874.861 118.469  874.861 94.6465 
       866.908 78.7653  851.004 62.8842 835.1 47.0031 
        811.245 39.062 795.339 39.062 596.54 39.062 
        556.781 47.0031  524.973 70.8243 
        501.116 110.528  485.212 150.231 
       437.5 364.626  437.5 404.329  445.451 444.031  469.308 475.794  501.116 483.734 684.013 523.437  699.915 523.437 
       723.772 523.437  763.531 507.556  795.339 467.854  819.196 420.209"
       style="stroke:none;"></polyline>
    </g>
  </symbol>
 </defs>
 <use xlink:href="#oid1"/>
</svg>
