<?xml version="1.0"?>
<?metis version="3.1"?>
<?metisxml version="1.0"?>
<!DOCTYPE svg  PUBLIC "-//W3C//DTD SVG August 1999//EN"
 "http://www.w3.org/Graphics/SVG/svg-19990812.dtd">

<svg width="200" height="200">
 <title>Symbol library: goal1.svg</title>
 <defs>
  <symbol id="oid1" xml:space="preserve" class="METIS_SYMBOL">
   <title>goal</title>
    <rect x="16" y="16" width="235.637" height="242.546"
     style=" stroke:#000000; stroke-width:1; fill:#ffffff; fill-opacity:100%"></rect>
    <rect x="8" y="0" width="8.25212" height="258.5"
     style=" stroke:#000000; stroke-width:1; fill:#878787; fill-opacity:100%"></rect>
    <rect x="251" y="0" width="8.25212" height="258.5"
     style=" stroke:#000000; stroke-width:1; fill:#878787; fill-opacity:100%"></rect>
    <ellipse  cx="12.3782" cy="8" rx="12.3782" ry="8"
     style=" stroke:#000000; stroke-width:1; fill:#000000; fill-opacity:100%"></ellipse>
    <ellipse  cx="255.378" cy="8" rx="12.3782" ry="8"
     style=" stroke:#000000; stroke-width:1; fill:#000000; fill-opacity:100%"></ellipse>
    <rect x="40" y="24" width="185.252" height="48"
     style=" stroke:#000000; stroke-width:1; fill:#ffa596; fill-opacity:100%"></rect>
    <polyline points="16 80 40.7564 72"
     style=" stroke:#000000; stroke-width:1;"></polyline>
    <polyline points="16 16 40.7564 24"
     style=" stroke:#000000; stroke-width:1;"></polyline>
    <polyline points="251.757 80 224.711 72.6228"
     style=" stroke:#000000; stroke-width:1;"></polyline>
    <polyline points="251.757 16 224.711 23.8982"
     style=" stroke:#000000; stroke-width:1;"></polyline>
    <g>
      <desc>METIS_TEXT_GROUP</desc>
      <text  x="20" y="215.776"
       style=" stroke:#000000; stroke-width:1; font-family:sans-serif; font-size:13;"
       class="TAG:weight">weight</text>
      <rect x="20" y="202.976" width="236" height="57.024"
       style=" stroke:#000000; stroke-width:1; fill:#ffffff; fill-opacity:0%"></rect>
    </g>
    <g>
      <desc>METIS_TEXT_GROUP</desc>
      <text  x="21.3334" y="97.3"
       style=" stroke:#000000; stroke-width:1; font-family:sans-serif; font-size:13;"
       class="TAG:text">text</text>
      <rect x="21.3334" y="84.5" width="222.919" height="122"
       style=" stroke:#000000; stroke-width:1; fill:#ffffff; fill-opacity:0%"></rect>
    </g>
    <g>
      <polygon points="48.1534 66.4815 48.1534 29.7495 74.7217 29.7495 
       74.7217 32.866 74.7217 35.9826 65.4231 35.9826 55.9029 35.9826 
       55.9029 44.6649 64.0944 44.6649 72.2859 44.6649 72.2859 47.7815 
       72.2859 50.898 64.0944 50.898 55.9029 50.898 55.9029 58.6901 
       55.9029 66.4815 52.1383 66.4815 48.1534 66.4815 48.1534 66.4815 
       48.1534 66.4815 48.1534 66.4815 48.1534 66.4815 "
       style=" stroke:#000000; stroke-width:1; fill:#00a500; fill-opacity:100%"></polygon>
      <polygon points="80.8698 66.4815 80.8698 29.7495 84.7084 29.7495 
       88.7744 29.7495 88.7744 66.4815 84.7084 66.4815 80.8698 66.4815 
       80.8698 66.4815 80.8698 66.4815 80.8698 66.4815 80.8698 66.4815 "
       style=" stroke:#000000; stroke-width:1; fill:#00a500; fill-opacity:100%"></polygon>
      <polygon points="96.0195 66.4815 96.0195 29.7495 100.001 29.7495 
       103.76 29.7495 111.721 41.9935 119.682 54.2375 119.682 41.9935 
       119.682 29.7495 126.979 29.7495 126.979 66.4815 119.019 66.4815 
       111.279 54.5712 103.318 42.55 103.318 54.4597 103.318 66.4815 
       96.0195 66.4815 96.0195 66.4815 96.0195 66.4815 96.0195 66.4815 96.0195 66.4815 "
       style=" stroke:#000000; stroke-width:1; fill:#00a500; fill-opacity:100%"></polygon>
      <polygon points="134.665 66.4815 134.665 29.7495 142.789 29.7495 
       142.789 66.4815 134.665 66.4815 134.665 66.4815 134.665 66.4815 
       134.665 66.4815 134.665 66.4815 "
       style=" stroke:#000000; stroke-width:1; fill:#00a500; fill-opacity:100%"></polygon>
      <polygon points="148.059 54.4588 151.818 54.1252 155.577 53.7915 
       156.019 55.4611 156.682 56.9077 157.345 58.0208 158.451 59.0224 
       159.556 59.8011 160.883 60.3576 162.432 60.6919 163.979 60.8033 
       165.749 60.6919 167.296 60.469 168.623 60.024 169.728 59.4674 
       170.613 58.6887 171.276 57.7979 171.497 56.9077 171.718 55.9062 
       171.497 54.6817 171.055 53.6801 170.17 52.9007 168.844 52.2334 
       167.96 51.8991 166.412 51.4541 164.422 51.009 161.768 50.341 
       159.556 49.7845 157.567 49.1166 155.798 48.4493 154.471 47.7813 
       153.365 47.002 152.26 46.2232 150.713 44.2201 149.828 41.8826 
       149.386 39.3229 149.607 37.8756 149.828 36.5403 151.154 33.9806 
       152.038 32.8676 153.365 31.866 154.692 30.9752 156.019 30.3079 
       157.567 29.7514 159.556 29.4171 161.548 29.1949 163.758 29.0835 
       166.854 29.3057 169.728 29.7514 172.381 30.6416 174.371 31.9768 
       175.919 33.5356 177.246 35.4273 178.131 37.6534 178.352 40.213 
       174.592 40.4359 170.613 40.5467 170.17 39.2115 169.728 37.987 
       169.064 37.0968 168.401 36.4289 167.517 35.8724 166.412 35.5387 
       165.085 35.3159 163.537 35.2044 161.989 35.3159 160.662 35.4273 
       159.556 35.761 158.672 36.2067 157.345 37.4305 157.125 38.0984 
       156.904 38.7664 157.345 40.213 157.788 40.7696 158.451 41.3261 
       159.556 41.8826 161.105 42.4391 163.095 42.9956 165.527 43.6635 
       168.401 44.3308 170.613 44.9988 172.603 45.6667 174.151 46.4455 
       175.477 47.2248 176.582 48.115 177.468 49.1166 178.131 50.2296 
       178.794 51.4541 179.236 52.7899 179.458 54.2366 179.458 55.7947 
       179.236 58.1322 178.573 60.2468 177.468 62.1386 175.698 63.8081 
       173.487 65.2548 170.834 66.3678 167.517 66.9243 163.758 67.1472 
       160.442 66.9243 157.345 66.3678 154.914 65.3662 152.703 64.031 
       150.934 62.25 149.607 60.024 148.501 57.4643 148.059 54.4588 
       148.059 54.4588 148.059 54.4588 148.059 54.4588 148.059 54.4588 "
       style=" stroke:#000000; stroke-width:1; fill:#00a500; fill-opacity:100%"></polygon>
      <polygon points="185.825 66.4815 185.825 29.7495 193.786 29.7495 
       193.786 36.9843 193.786 44.2198 209.044 44.2198 209.044 36.9843 
       209.044 29.7495 217.004 29.7495 217.004 66.4815 209.044 66.4815 
       209.044 50.4529 193.786 50.4529 193.786 66.4815 185.825 66.4815 
       185.825 66.4815 185.825 66.4815 185.825 66.4815 185.825 66.4815 "
       style=" stroke:#000000; stroke-width:1; fill:#00a500; fill-opacity:100%"></polygon>
    </g>
  </symbol>
 </defs>
</svg>
