<?xml version="1.0"?>
<?metis version="3.2"?>
<?metisxml version="1.1"?>
<!DOCTYPE svg  PUBLIC "-//W3C//DTD SVG August 1999//EN"
 "http://www.w3.org/Graphics/SVG/svg-19990812.dtd">

<svg width="200" height="200">
 <title>Symbol library: goal3.svg</title>
 <defs>
  <symbol id="oid1" xml:space="preserve" class="METIS_SYMBOL">
   <title>Goal basic</title>
    <g>
      <polygon points="0 0 0 304 16 320 
       880 320 880 16 864 0 0 0 
       0 0 0 0 0 0 0 0 
       0 0 0 0 0 0 "
       style=" stroke:#000000; stroke-width:1; fill:#9b9b9b; fill-opacity:100%"       class="TAG:shadow"></polygon>
      <rect x="0" y="0" width="240" height="304"
       style=" stroke:#000000; stroke-width:1; fill:#ffff6e; fill-opacity:100%"       class="TAG:PictureBackground"></rect>
      <rect x="240" y="0" width="624" height="304"
       style=" stroke:#000000; stroke-width:1; fill:#ff8c8c; fill-opacity:100%"       class="TAG:canvas"></rect>
      <g>
	<desc>METIS_TEXT_GROUP</desc>
	<text  x="256" y="15"
	 style=" stroke:#000000; stroke-width:1; font-family:sans-serif; font-size:16;"
	 class="TAG:text">text</text>
	<rect x="256" y="5.68434e-014" width="608" height="304"
	 style=" stroke:#000000; stroke-width:1; fill:#ffffff; fill-opacity:0%"></rect>
      </g>
      <polyline points="864 304 880 320"
       style=" stroke:#000000; stroke-width:1;"></polyline>
      <g>
	<path d="M 174.958 64 C 195.918 65.1895 209.501 69.8944 
	 212.22 72.9886 C 221.045 83.0351 232.875 108.374 232.322 134.193 
	 C 231.831 157.061 223.496 199.627 201.434 204.385 C 200.352 204.618 
	 170.546 207.954 170.546 207.954 Z"
	 style=" stroke:#464646; stroke-width:1; fill:#878787; fill-opacity:100%"	 class="TAG:TargetSide"></path>
	<ellipse  cx="169.309" cy="136.14" rx="44.3576" ry="71.8601"
	 style=" stroke:#464646; stroke-width:1; fill:#b9b9b9; fill-opacity:100%"	 class="TAG:Circle5"></ellipse>
	<ellipse  cx="168.398" cy="135.711" rx="33.724" ry="58.5282"
	 style=" stroke:#000000; stroke-width:1; fill:#000000; fill-opacity:100%"	 class="TAG:Circle4"></ellipse>
	<ellipse  cx="167.79" cy="134.85" rx="23.3941" ry="46.2821"
	 style=" stroke:#000000; stroke-width:1; fill:#0000dc; fill-opacity:100%"	 class="TAG:Circle3"></ellipse>
	<ellipse  cx="167.677" cy="135.914" rx="14.1656" ry="33.4213"
	 style=" stroke:#000000; stroke-width:1; fill:#ff0000; fill-opacity:100%"	 class="TAG:Circle2"></ellipse>
	<ellipse  cx="167.182" cy="136.046" rx="5.16497" ry="18.4606"
	 style=" stroke:#000000; stroke-width:1; fill:#ffff37; fill-opacity:100%"	 class="TAG:Circle1"></ellipse>
	<polygon points="0 126.151 51.6 126.151 67.0796 137.28 
	 51.6 148.41 0 148.41 15.4801 137.28 15.4801 137.28 
	 0 126.151 0 126.151 0 126.151 0 126.151 
	 0 126.151 0 126.151 0 126.151 0 126.151 "
	 style=" stroke:#a5a500; stroke-width:1; fill:#dcdc00; fill-opacity:100%"></polygon>
	<polyline points="149.64 137.28 15.4801 137.28"
	 style=" stroke:#a85400; stroke-width:3;"	 class="TAG:ArrowShaft"></polyline>
	<polygon points="167.7 137.28 108.36 153.975 118.68 137.28 
	 108.36 120.586 167.7 137.28 167.7 137.28 167.7 137.28 
	 167.7 137.28 167.7 137.28 167.7 137.28 167.7 137.28 167.7 137.28 "
	 style=" stroke:#9b9b9b; stroke-width:1; fill:#dcdcdc; fill-opacity:100%"	 class="TAG:ArrowHead"></polygon>
      </g>
    </g>
  </symbol>
  <symbol id="oid0" xml:space="preserve" class="METIS_SYMBOL">
   <title>Goal</title>
    <g>
      <polygon points="0 0 0 304 16 320 
       880 320 880 16 864 0 0 0 
       0 0 0 0 0 0 0 0 
       0 0 0 0 0 0 "
       style=" stroke:#000000; stroke-width:1; fill:#9b9b9b; fill-opacity:100%"       class="TAG:shadow"></polygon>
      <rect x="5.68434e-014" y="0" width="240" height="304"
       style=" stroke:#000000; stroke-width:1; fill:#ffff6e; fill-opacity:100%"       class="TAG:PictureBackground"></rect>
      <rect x="240" y="0" width="624" height="304"
       style=" stroke:#000000; stroke-width:1; fill:#ff8c8c; fill-opacity:100%"       class="TAG:canvas"></rect>
      <g>
	<desc>METIS_TEXT_GROUP</desc>
	<text  x="256" y="15"
	 style=" stroke:#000000; stroke-width:1; font-family:sans-serif; font-size:16;"
	 class="TAG:text">text</text>
	<rect x="256" y="5.68434e-014" width="608" height="304"
	 style=" stroke:#000000; stroke-width:1; fill:#ffffff; fill-opacity:0%"></rect>
      </g>
      <polyline points="864 304 880 320"
       style=" stroke:#000000; stroke-width:1;"></polyline>
      <g>
	<path d="M 174.958 64 C 195.918 65.1895 209.501 69.8944 
	 212.22 72.9886 C 221.045 83.0351 232.875 108.374 232.322 134.193 
	 C 231.831 157.061 223.496 199.627 201.434 204.385 C 200.352 204.618 
	 170.546 207.954 170.546 207.954 Z"
	 style=" stroke:#464646; stroke-width:1; fill:#878787; fill-opacity:100%"	 class="TAG:TargetSide"></path>
	<ellipse  cx="169.309" cy="136.14" rx="44.3576" ry="71.8601"
	 style=" stroke:#464646; stroke-width:1; fill:#b9b9b9; fill-opacity:100%"	 class="TAG:Circle5"></ellipse>
	<ellipse  cx="168.398" cy="135.711" rx="33.724" ry="58.5282"
	 style=" stroke:#000000; stroke-width:1; fill:#000000; fill-opacity:100%"	 class="TAG:Circle4"></ellipse>
	<ellipse  cx="167.79" cy="134.85" rx="23.3941" ry="46.2821"
	 style=" stroke:#000000; stroke-width:1; fill:#0000dc; fill-opacity:100%"	 class="TAG:Circle3"></ellipse>
	<ellipse  cx="167.677" cy="135.914" rx="14.1656" ry="33.4213"
	 style=" stroke:#000000; stroke-width:1; fill:#ff0000; fill-opacity:100%"	 class="TAG:Circle2"></ellipse>
	<ellipse  cx="167.182" cy="136.046" rx="5.16497" ry="18.4606"
	 style=" stroke:#000000; stroke-width:1; fill:#ffff37; fill-opacity:100%"	 class="TAG:Circle1"></ellipse>
	<polygon points="0 126.151 51.6 126.151 67.0796 137.28 
	 51.6 148.41 0 148.41 15.4801 137.28 15.4801 137.28 
	 0 126.151 0 126.151 0 126.151 0 126.151 
	 0 126.151 0 126.151 0 126.151 0 126.151 "
	 style=" stroke:#a5a500; stroke-width:1; fill:#dcdc00; fill-opacity:100%"></polygon>
	<polyline points="149.64 137.28 15.4801 137.28"
	 style=" stroke:#a85400; stroke-width:3;"	 class="TAG:ArrowShaft"></polyline>
	<polygon points="167.7 137.28 108.36 153.975 118.68 137.28 
	 108.36 120.586 167.7 137.28 167.7 137.28 167.7 137.28 
	 167.7 137.28 167.7 137.28 167.7 137.28 167.7 137.28 167.7 137.28 "
	 style=" stroke:#9b9b9b; stroke-width:1; fill:#dcdcdc; fill-opacity:100%"	 class="TAG:ArrowHead"></polygon>
      </g>
      <rect x="240" y="224" width="624" height="80"
       style=" stroke:#000000; stroke-width:1; fill:#dcdcdc; fill-opacity:100%"       class="TAG:PropertyBackground"></rect>
      <g>
	<desc>METIS_TEXT_GROUP</desc>
	<text  x="256" y="236"
	 style=" stroke:#000000; stroke-width:1; font-family:sans-serif; font-size:13;"
	 class="TAG:weight">weight</text>
	<rect x="256" y="224" width="608" height="77.4242"
	 style=" stroke:#000000; stroke-width:1; fill:#ffffff; fill-opacity:0%"></rect>
      </g>
    </g>
  </symbol>
 </defs>
</svg>
