<?xml version="1.0"?>
<?metis version="3.0"?>
<?metisxml version="1.0"?>
<!DOCTYPE svg  PUBLIC "-//W3C//DTD SVG August 1999//EN"
 "http://www.w3.org/Graphics/SVG/svg-19990812.dtd">

<svg width="200" height="200">
 <title>Symbol library: gpm_glossary.svg</title>
 <defs>
  <symbol id="oid1" xml:space="preserve" class="METIS_SYMBOL">
   <title>Glossary</title>
    <g>
      <polygon points="156.804 0 156.804 0 169.349 6.27213 
       175.621 12.5443 181.893 25.0885 181.893 37.6328 175.621 50.177 
       163.076 56.4491 75.2661 56.4491 106.627 0 156.804 0 "
       style=" stroke:#000000; stroke-width:1; fill:#a500a5; fill-opacity:100%" class="TAG:polygon"></polygon>
      <polyline points="68.9939 25.0885 68.9939 25.0885 181.893 25.0885"
       style=" stroke:#000000; stroke-width:1;" class="TAG:polyline"></polyline>
      <polyline points="68.9939 37.6328 68.9939 37.6328 181.893 37.6328"
       style=" stroke:#000000; stroke-width:1;" class="TAG:polyline"></polyline>
      <polyline points="68.9939 31.3606 68.9939 31.3606 181.893 31.3606"
       style=" stroke:#000000; stroke-width:1;" class="TAG:polyline"></polyline>
      <polyline points="65.8578 43.9049 65.8578 43.9049 178.757 43.9049"
       style=" stroke:#000000; stroke-width:1;" class="TAG:polyline"></polyline>
      <polyline points="62.7217 50.177 62.7217 50.177 175.621 50.177"
       style=" stroke:#000000; stroke-width:1;" class="TAG:polyline"></polyline>
      <polyline points="65.8578 18.8164 65.8578 18.8164 178.757 18.8164"
       style=" stroke:#000000; stroke-width:1;" class="TAG:polyline"></polyline>
      <polyline points="62.7217 12.5443 62.7217 12.5443 175.621 12.5443"
       style=" stroke:#000000; stroke-width:1;" class="TAG:polyline"></polyline>
      <polyline points="56.4496 6.27213 56.4496 6.27213 169.349 6.27213"
       style=" stroke:#000000; stroke-width:1;" class="TAG:polyline"></polyline>
      <polygon points="18.8165 6.27213 12.5443 12.5443 6.27217 25.0885 
       6.27217 43.9049 12.5443 62.7212 37.633 100.354 56.4496 137.987 
       62.7217 156.803 62.7217 200.708 144.26 200.708 163.076 194.436 
       169.349 188.164 175.621 175.619 175.621 156.803 169.349 137.987 
       150.532 100.354 125.443 62.7212 119.171 43.9049 119.171 25.0885 
       125.443 12.5443 131.716 6.27213 150.532 0 37.633 0 18.8165 6.27213 "
       style=" stroke:#000000; stroke-width:1; fill:#ff6eff; fill-opacity:100%" class="TAG:polygon"></polygon>
      <polygon points="18.8165 144.259 18.8165 144.259 131.716 144.259 
       119.171 150.531 112.899 163.075 112.899 175.619 119.171 188.164 
       125.443 194.436 137.988 200.708 25.0887 200.708 12.5443 194.436 
       6.27217 188.164 0 175.619 0 163.075 6.27217 150.531 18.8165 144.259 "
       style=" stroke:#000000; stroke-width:1; fill:#ffa5ff; fill-opacity:100%" class="TAG:polygon"></polygon>
      <polyline points="6.27217 150.531 6.27217 150.531 119.171 150.531"
       style=" stroke:#000000; stroke-width:1;" class="TAG:polyline"></polyline>
      <polyline points="0 163.075 0 163.075 112.899 163.075"
       style=" stroke:#000000; stroke-width:1;" class="TAG:polyline"></polyline>
      <polyline points="0 175.619 0 175.619 112.899 175.619"
       style=" stroke:#000000; stroke-width:1;" class="TAG:polyline"></polyline>
      <polyline points="6.27217 188.164 6.27217 188.164 119.171 188.164"
       style=" stroke:#000000; stroke-width:1;" class="TAG:polyline"></polyline>
      <polyline points="12.5443 194.436 12.5443 194.436 125.443 194.436"
       style=" stroke:#000000; stroke-width:1;" class="TAG:polyline"></polyline>
      <polyline points="3.13609 181.892 3.13609 181.892 116.035 181.892"
       style=" stroke:#000000; stroke-width:1;" class="TAG:polyline"></polyline>
      <polyline points="0 169.347 0 169.347 112.899 169.347"
       style=" stroke:#000000; stroke-width:1;" class="TAG:polyline"></polyline>
      <polyline points="3.13609 156.803 3.13609 156.803 116.035 156.803"
       style=" stroke:#000000; stroke-width:1;" class="TAG:polyline"></polyline>
    </g>
    <g>
      <desc>METIS_TEXT_GROUP</desc>
      <text  x="13.0785" y="22.4503"
       style=" stroke:#000000; stroke-width:1; font-family:sans-serif; font-size:16;" class="TAG:text"
>text</text>
      <rect x="13.0785" y="6.65026" width="153.368" height="155.887"
       style=" stroke:#000000; stroke-width:1; fill:#000000; fill-opacity:0%"></rect>
    </g>
  </symbol>
 </defs>
</svg>
