<?xml version="1.0"?>
<?metis version="3.0.1"?>
<?metisxml version="1.0"?>
<!DOCTYPE svg  PUBLIC "-//W3C//DTD SVG August 1999//EN"
 "http://www.w3.org/Graphics/SVG/svg-19990812.dtd">

<svg width="200" height="200">
 <title>Symbol library: gpm_navigation.svg</title>
 <defs>
  <symbol id="oid0" xml:space="preserve" class="METIS_SYMBOL">
   <title>Untitled</title>
    <rect x="144" y="16" width="704" height="128"
     style=" stroke:#000000; stroke-width:1; fill:#fffce1; fill-opacity:100%"     class="TAG:rectangle"></rect>
    <g>
      <desc>METIS_TEXT_GROUP</desc>
      <text  x="144" y="47.8"
       style=" stroke:#000000; stroke-width:1; font-family:sans-serif; font-size:16;"
       class="TAG:text"></text>
      <rect x="144" y="32" width="704" height="112"
       style=" stroke:#000000; stroke-width:1; fill:#fffce1; fill-opacity:0%"></rect>
    </g>
    <rect x="0" y="16" width="128" height="128"
     style=" stroke:#000000; stroke-width:1; fill:#000000; fill-opacity:100%"></rect>
    <rect x="2" y="18" width="124" height="124"
     style=" stroke:#000000; stroke-width:1; fill:#464646; fill-opacity:100%"></rect>
    <rect x="4" y="20" width="120" height="120"
     style=" stroke:#000000; stroke-width:1; fill:#696969; fill-opacity:100%"></rect>
    <rect x="6" y="22" width="116" height="116"
     style=" stroke:#000000; stroke-width:1; fill:#878787; fill-opacity:100%"></rect>
    <rect x="8" y="24" width="112" height="112"
     style=" stroke:#000000; stroke-width:1; fill:#b9b9b9; fill-opacity:100%"></rect>
    <rect x="10" y="26" width="108" height="108"
     style=" stroke:#000000; stroke-width:1; fill:#dcdcdc; fill-opacity:100%"></rect>
    <rect x="12" y="28" width="104" height="104"
     style=" stroke:#000000; stroke-width:1; fill:#ffffff; fill-opacity:100%"></rect>
    <path d="M 34 62.766 C 35.7911 62.766 40.325 70.5651 
     43.5745 80.6383 C 49.9574 100.426 57.617 124.681 62.0851 124.681 
     C 67.1915 124.681 77.4043 81.2766 85.7021 54.4681 C 86.9364 50.4803 
     88.7666 35.8367 96.5532 24.4681 C 106.447 10.0224 125.565 0.468942 
     128 0"
     style=" stroke:#dc0000; stroke-width:4;"></path>
  </symbol>
 </defs>
</svg>
