<?xml version="1.0"?>
<?metis version="3.0"?>
<?metisxml version="1.0"?>
<!DOCTYPE svg  PUBLIC "-//W3C//DTD SVG August 1999//EN"
 "http://www.w3.org/Graphics/SVG/svg-19990812.dtd">

<svg width="200" height="200">
 <title>Symbol library: gpm_action.svg</title>
 <defs>
  <symbol id="oid1" xml:space="preserve" class="METIS_SYMBOL">
   <title>Action</title>
    <polygon points="48 192 48 192 0 80 
     0 32 16 0 80 0 96 32 
     96 80 48 192 "
     style=" stroke:#000000; stroke-width:1; fill:#ff0000; fill-opacity:100%" class="TAG:polygon"></polygon>
    <polygon points="32 224 32 224 32 256 
     64 256 64 224 32 224 "
     style=" stroke:#000000; stroke-width:1; fill:#ff0000; fill-opacity:100%" class="TAG:polygon"></polygon>
    <polygon points="28.8 102 28.8 102 16 102 
     48 16 80 102 67.2 102 60.8 84.8 
     35.2 84.8 28.8 102 "
     style=" stroke:#000000; stroke-width:1; fill:#ffffff; fill-opacity:100%" class="TAG:polygon"></polygon>
    <polygon points="128 0 128 0 128 256 
     464 256 464 0 128 0 128 0 "
     style=" stroke:#000000; stroke-width:1; fill:#ff0000; fill-opacity:100%" class="TAG:polyline"></polygon>
    <g>
      <desc>METIS_TEXT_GROUP</desc>
      <text  x="144" y="31.8"
       style=" stroke:#000000; stroke-width:1; font-family:sans-serif; font-size:16;" class="TAG:text"
>text</text>
      <rect x="144" y="16" width="304" height="224"
       style=" stroke:#000000; stroke-width:1; fill:#000000; fill-opacity:0%"></rect>
    </g>
    <polygon points="48.1217 38.0004 38.5217 75.2671 57.7217 75.2671 48.1217 38.0004 "
     style=" stroke:#000000; stroke-width:1; fill:#ff0000; fill-opacity:100%" class="TAG:polygon"></polygon>
  </symbol>
 </defs>
</svg>
