<?xml version="1.0"?>
<?metis version="3.0"?>
<?metisxml version="1.0"?>
<!DOCTYPE svg  PUBLIC "-//W3C//DTD SVG August 1999//EN"
 "http://www.w3.org/Graphics/SVG/svg-19990812.dtd">

<svg width="200" height="200">
 <title>Symbol library: gpm_task_closed.svg</title>
 <defs>
  <symbol id="oid1" xml:space="preserve" class="METIS_SYMBOL">
   <title>Task Closed</title>
    <polygon points="4 160 220 160 224 156 
     224 4 220 0 4 0 0 4 
     0 156 4 160 "
     style=" stroke:#000000; stroke-width:1; fill:#ff8c8c; fill-opacity:100%" class="TAG:polygon"></polygon>
    <polyline points="8 164 12 168 228 168 
     232 164 232 12 228 8"
     style=" stroke:#000000; stroke-width:1;" class="TAG:polyline"></polyline>
    <polyline points="6 162 10 166 226 166 
     230 162 230 10 226 6"
     style=" stroke:#000000; stroke-width:1;" class="TAG:polyline"></polyline>
    <polyline points="4 160 8 164 224 164 
     228 160 228 8 224 4"
     style=" stroke:#000000; stroke-width:1;" class="TAG:polyline"></polyline>
    <polyline points="2 158 6 162 222 162 
     226 158 226 6 222 2"
     style=" stroke:#000000; stroke-width:1;" class="TAG:polyline"></polyline>
    <polyline points="7 163 11 167 227 167 
     231 163 231 11 227 7"
     style=" stroke:#000000; stroke-width:1;" class="TAG:polyline"></polyline>
    <polyline points="5 161 9 165 225 165 
     229 161 229 9 225 5"
     style=" stroke:#000000; stroke-width:1;" class="TAG:polyline"></polyline>
    <polyline points="3 159 7 163 223 163 
     227 159 227 7 223 3"
     style=" stroke:#000000; stroke-width:1;" class="TAG:polyline"></polyline>
    <polyline points="1 157 5 161 221 161 
     225 157 225 5 221 1"
     style=" stroke:#000000; stroke-width:1;" class="TAG:polyline"></polyline>
    <g>
      <desc>METIS_TEXT_GROUP</desc>
      <text  x="0" y="121.8"
       style=" stroke:#000000; stroke-width:1; font-family:sans-serif; font-size:58; text-align:center vertical-align:middle;" class="TAG:text"
>text</text>
      <rect x="0" y="64" width="224" height="96"
       style=" stroke:#000000; stroke-width:1; fill:#000000; fill-opacity:0%"></rect>
    </g>
    <g>
      <desc>METIS_TEXT_GROUP</desc>
      <text  x="0" y="63.8"
       style=" stroke:#000000; stroke-width:1; font-family:sans-serif; font-size:64; text-align:center" class="TAG:wp"
>wp</text>
      <rect x="0" y="0" width="224" height="64"
       style=" stroke:#000000; stroke-width:1; fill:#ffa5ff; fill-opacity:0%"></rect>
    </g>
  </symbol>
  <symbol id="oid2" xml:space="preserve" class="METIS_SYMBOL">
   <title>Pres task closed</title>
    <polygon points="4 160 220 160 224 156 
     224 4 220 0 4 0 0 4 
     0 156 4 160 "
     style=" stroke:#000000; stroke-width:1; fill:#ff8c8c; fill-opacity:100%" class="TAG:polygon"></polygon>
    <g>
      <desc>METIS_TEXT_GROUP</desc>
      <text  x="0" y="121.8"
       style=" stroke:#000000; stroke-width:1; font-family:sans-serif; font-size:58; text-align:center vertical-align:middle;" class="TAG:text"
>text</text>
      <rect x="0" y="64" width="224" height="96"
       style=" stroke:#000000; stroke-width:1; fill:#000000; fill-opacity:0%"></rect>
    </g>
    <g>
      <desc>METIS_TEXT_GROUP</desc>
      <text  x="0" y="63.8"
       style=" stroke:#000000; stroke-width:1; font-family:sans-serif; font-size:64; text-align:center" class="TAG:wp"
>wp</text>
      <rect x="0" y="0" width="224" height="64"
       style=" stroke:#000000; stroke-width:1; fill:#ffa5ff; fill-opacity:0%"></rect>
    </g>
  </symbol>
 </defs>
</svg>
