<?xml version="1.0"?>
<?metis version="3.0"?>
<?metisxml version="1.0"?>
<!DOCTYPE svg  PUBLIC "-//W3C//DTD SVG August 1999//EN"
 "http://www.w3.org/Graphics/SVG/svg-19990812.dtd">

<svg width="200" height="200">
 <title>Symbol library: gpm_sw.svg</title>
 <defs>
  <symbol id="oid1" xml:space="preserve" class="METIS_SYMBOL">
   <title>Software</title>
    <polygon points="63.6177 105.214 63.6177 105.214 48.9367 105.214 
     42.8196 110.108 74.6284 161.491 80.7455 156.597 124.789 68.5114 
     110.107 68.5114 103.99 73.4051 80.7455 129.682 63.6177 105.214 "
     style=" stroke:#000000; stroke-width:1; fill:#ffff00; fill-opacity:100%" class="TAG:text"></polygon>
    <polygon points="57.5006 110.107 57.5006 110.107 42.8196 110.107 
     74.6284 161.491 118.672 73.405 103.99 73.405 74.6284 134.576 57.5006 110.107 "
     style=" stroke:#000000; stroke-width:1; fill:#ffff6e; fill-opacity:100%" class="TAG:text"></polygon>
    <polygon points="20.7981 68.5114 20.7981 68.5114 6.11708 68.5114 
     0 73.4051 44.043 161.491 50.1601 156.597 79.5221 105.214 
     64.8411 105.214 58.724 110.108 50.1601 129.682 20.7981 68.5114 "
     style=" stroke:#000000; stroke-width:1; fill:#ffff00; fill-opacity:100%" class="TAG:text"></polygon>
    <polygon points="51.3835 77.0753 36.7025 77.0753 31.8088 80.7456 
     41.5961 91.7563 53.8303 96.65 63.6176 99.0968 70.9581 99.0968 
     78.2986 96.65 85.6391 96.65 92.0278 91.6165 94.1125 87.1423 
     95.4265 79.5222 95.1549 72.6011 92.0278 65.8898 85.6391 58.7241 
     79.5221 55.0538 73.405 52.607 66.0645 50.1601 58.724 47.7133 
     52.6069 44.0431 51.3835 37.926 53.8303 30.5855 61.1708 25.6918 
     68.5113 25.6918 77.0752 26.9152 81.9689 30.5855 83.1923 35.4791 
     90.5328 39.1494 95.4265 35.4791 95.4265 30.5855 92.9796 23.245 
     86.8626 17.1279 80.7455 13.4576 70.9581 11.0108 63.6176 11.0108 
     53.8303 13.4576 48.9366 17.1279 44.043 23.245 39.1493 30.5855 
     37.9259 37.926 39.1493 45.2665 41.5961 52.607 46.218 58.0597 
     52.335 61.4156 59.9474 63.6177 68.5113 66.0646 77.0752 69.7348 
     79.5221 72.1816 81.9689 77.0753 80.7455 81.969 78.2986 84.4158 
     73.405 86.8627 66.0645 86.8627 58.724 84.4158 52.6069 80.7456 51.3835 77.0753 "
     style=" stroke:#000000; stroke-width:1; fill:#ffff00; fill-opacity:100%" class="TAG:text"></polygon>
    <polygon points="46.4898 80.7455 31.8088 80.7455 31.8088 85.6392 
     36.7025 95.4265 48.9366 100.32 58.724 102.767 66.0645 102.767 
     73.405 100.32 79.8395 98.6423 87.1342 95.2867 89.2189 90.8125 
     90.5328 83.1924 90.2612 76.2713 87.1342 69.56 80.7455 62.3943 
     74.6284 58.724 68.5113 56.2772 61.1708 53.8303 53.8303 51.3835 
     47.7132 47.7133 46.4898 41.5962 48.9366 34.2557 56.2771 29.362 
     63.6176 29.362 72.1816 30.5854 77.0752 34.2557 78.2986 39.1493 
     90.5328 39.1493 90.5328 34.2557 88.086 26.9152 81.9689 20.7981 
     75.8518 17.1278 66.0645 14.681 58.724 14.681 48.9366 17.1278 
     44.043 22.0215 39.1493 26.9152 34.2556 34.2557 33.0322 41.5962 
     34.2556 48.9367 36.7025 56.2772 41.3243 61.7299 47.4414 65.0858 
     55.0537 67.2879 63.6176 69.7348 72.1816 73.405 74.6284 75.8518 
     77.0752 80.7455 75.8518 85.6392 73.405 88.086 68.5113 90.5329 
     61.1708 90.5329 53.8303 88.086 47.7132 84.4158 46.4898 80.7455 "
     style=" stroke:#000000; stroke-width:1; fill:#ffff6e; fill-opacity:100%" class="TAG:text"></polygon>
    <polyline points="46.4898 80.7455 46.4898 80.7455 51.3835 77.0753"
     style=" stroke:#000000; stroke-width:1;" class="TAG:text"></polyline>
    <polygon points="14.681 73.405 14.681 73.405 0 73.405 
     44.043 161.491 73.405 110.107 58.724 110.107 44.043 134.576 14.681 73.405 "
     style=" stroke:#000000; stroke-width:1; fill:#ffff6e; fill-opacity:100%" class="TAG:text"></polygon>
    <polyline points="14.681 73.4051 14.681 73.4051 20.7981 68.5114"
     style=" stroke:#000000; stroke-width:1;" class="TAG:text"></polyline>
    <polyline points="57.5006 110.108 57.5006 110.108 63.6177 105.214"
     style=" stroke:#000000; stroke-width:1;" class="TAG:text"></polyline>
    <polyline points="73.405 110.108 73.405 110.108 79.5221 105.214"
     style=" stroke:#000000; stroke-width:1;" class="TAG:text"></polyline>
    <polyline points="118.671 73.4051 118.671 73.4051 124.788 68.5114"
     style=" stroke:#000000; stroke-width:1;" class="TAG:text"></polyline>
    <polygon points="130.294 166.385 512 166.385 512 0 
     130.294 0 130.294 166.385 "
     style=" stroke:#000000; stroke-width:1; fill:#ffff37; fill-opacity:100%" class="TAG:text"></polygon>
    <g>
      <desc>METIS_TEXT_GROUP</desc>
      <text  x="141.916" y="23.1405"
       style=" stroke:#000000; stroke-width:1; font-family:sans-serif; font-size:16;" class="TAG:text"
>text</text>
      <rect x="141.916" y="7.3405" width="360.296" height="149.257"
       style=" stroke:#000000; stroke-width:1; fill:#000000; fill-opacity:0%"></rect>
    </g>
  </symbol>
 </defs>
</svg>
