<?xml version="1.0"?>
<?metis version="3.0"?>
<?metisxml version="1.0"?>
<!DOCTYPE svg  PUBLIC "-//W3C//DTD SVG August 1999//EN"
 "http://www.w3.org/Graphics/SVG/svg-19990812.dtd">

<svg width="200" height="200">
 <title>Symbol library: gpm_task_open.svg</title>
 <defs>
  <symbol id="oid1" xml:space="preserve" class="METIS_SYMBOL">
   <title>Task Open</title>
    <polygon points="4 160 220 160 224 156 
     224 4 220 0 6 0 0 6 
     0 156 4 160 "
     style=" stroke:#000000; stroke-width:1; fill:#ffffff; fill-opacity:100%" class="TAG:polygon"></polygon>
    <polyline points="220.5 0.5 220.5 0.5 224.5 4.5 
     224.5 156.5 220.5 160.5 4.5 160.5 0.5 156.5"
     style=" stroke:#000000; stroke-width:1;" class="TAG:polyline"></polyline>
    <polyline points="221 1 221 1 225 5 
     225 157 221 161 5 161 1 157"
     style=" stroke:#000000; stroke-width:1;" class="TAG:polyline"></polyline>
    <polyline points="221.5 1.5 221.5 1.5 225.5 5.5 
     225.5 157.5 221.5 161.5 5.5 161.5 1.5 157.5"
     style=" stroke:#000000; stroke-width:1;" class="TAG:polyline"></polyline>
    <polyline points="222 2 222 2 226 6 
     226 158 222 162 6 162 2 158"
     style=" stroke:#000000; stroke-width:1;" class="TAG:polyline"></polyline>
    <g>
      <desc>METIS_TEXT_GROUP</desc>
      <text  x="10" y="25.8"
       style=" stroke:#000000; stroke-width:1; font-family:sans-serif; font-size:16; text-align:center" class="TAG:text"
>text</text>
      <rect x="10" y="10" width="208" height="70"
       style=" stroke:#000000; stroke-width:1; fill:#000000; fill-opacity:0%"></rect>
    </g>
    <g>
      <desc>METIS_TEXT_GROUP</desc>
      <text  x="176" y="24"
       style=" stroke:#dc0000; stroke-width:1; font-family:sans-serif; font-size:24; text-align:center vertical-align:middle;" class="TAG:wp"
>wp</text>
      <rect x="176" y="0" width="48" height="32"
       style=" stroke:#000000; stroke-width:1; fill:#ffffff; fill-opacity:0%"></rect>
    </g>
    <g>
      <desc>METIS_TEXT_GROUP</desc>
      <text  x="8" y="151.8"
       style=" stroke:#000000; stroke-width:1; font-family:sans-serif; font-size:16;"
>Start:</text>
      <rect x="8" y="136" width="24" height="16"
       style=" stroke:#000000; stroke-width:1; fill:#fffce1; fill-opacity:0%"></rect>
    </g>
    <g>
      <desc>METIS_TEXT_GROUP</desc>
      <text  x="29" y="151.8"
       style=" stroke:#dc0000; stroke-width:1; font-family:sans-serif; font-size:16;" class="TAG:start"
>Start</text>
      <rect x="29" y="136" width="29.7143" height="16"
       style=" stroke:#000000; stroke-width:1; fill:#fffce1; fill-opacity:0%"></rect>
    </g>
    <g>
      <desc>METIS_TEXT_GROUP</desc>
      <text  x="168" y="151.8"
       style=" stroke:#000000; stroke-width:1; font-family:sans-serif; font-size:16;"
>Finish:</text>
      <rect x="168" y="136" width="28" height="16"
       style=" stroke:#000000; stroke-width:1; fill:#fffce1; fill-opacity:0%"></rect>
    </g>
    <g>
      <desc>METIS_TEXT_GROUP</desc>
      <text  x="192" y="151.8"
       style=" stroke:#dc0000; stroke-width:1; font-family:sans-serif; font-size:16;" class="TAG:finish"
>Finish</text>
      <rect x="192" y="136" width="28" height="16"
       style=" stroke:#000000; stroke-width:1; fill:#fffce1; fill-opacity:0%"></rect>
    </g>
  </symbol>
 </defs>
</svg>
