<?xml version="1.0"?>
<?metis version="3.1"?>
<?metisxml version="1.0"?>
<!DOCTYPE svg  PUBLIC "-//W3C//DTD SVG August 1999//EN"
 "http://www.w3.org/Graphics/SVG/svg-19990812.dtd">

<svg width="200" height="200">
 <title>Symbol library: gpm_risk.svg</title>
 <defs>
  <symbol id="oid1" xml:space="preserve" class="METIS_SYMBOL">
   <title>Risk</title>
    <rect x="184" y="0" width="328" height="144"
     style=" stroke:#000000; stroke-width:1; fill:#ffffff; fill-opacity:100%"     class="TAG:polygon"></rect>
    <ellipse  cx="54.8571" cy="128" rx="18.2857" ry="18.2857"
     style=" stroke:#000000; stroke-width:1; fill:#6e0000; fill-opacity:100%"     class="TAG:polygon"></ellipse>
    <polyline points="54.8572 27.4286 54.8572 27.4286 45.7143 82.2857 
     36.5715 91.4286 18.2857 100.572 9.14286 109.714"
     style=" stroke:#000000; stroke-width:1;"     class="TAG:polyline"></polyline>
    <polyline points="109.714 27.4286 109.714 27.4286 128 82.2857 
     137.143 91.4286 155.428 100.572 164.571 109.714"
     style=" stroke:#000000; stroke-width:1;"     class="TAG:polyline"></polyline>
    <polyline points="118.857 27.4286 118.857 27.4286 137.143 76.1903 
     146.286 84.3177 164.571 92.4446 173.714 100.572"
     style=" stroke:#000000; stroke-width:1;"     class="TAG:polyline"></polyline>
    <polyline points="45.7143 27.4286 45.7143 27.4286 36.5714 76.1903 
     27.4286 84.3177 9.14286 92.4446 0 100.572"
     style=" stroke:#000000; stroke-width:1;"     class="TAG:polyline"></polyline>
    <ellipse  cx="82.2857" cy="13.7143" rx="9.14285" ry="13.7143"
     style=" stroke:#000000; stroke-width:1; fill:#dc0000; fill-opacity:100%"     class="TAG:polygon"></ellipse>
    <polygon points="73.1428 18.2857 73.1428 18.2857 91.4286 18.2857 
     100.571 27.4286 118.857 91.4286 128 100.571 146.286 109.714 
     155.429 118.857 155.429 128 18.2857 128 18.2857 118.857 
     27.4286 109.714 45.7143 100.571 54.8571 91.4286 64 27.4286 
     73.1428 18.2857 73.1428 18.2857 73.1428 18.2857 "
     style=" stroke:#000000; stroke-width:1; fill:#dc0000; fill-opacity:100%"     class="TAG:polygon"></polygon>
    <g>
      <desc>METIS_TEXT_GROUP</desc>
      <text  x="192" y="15.8"
       style=" stroke:#000000; stroke-width:1; font-family:sans-serif; font-size:16;"
       class="TAG:text">text</text>
      <rect x="192" y="0" width="320" height="144"
       style=" stroke:#000000; stroke-width:1; fill:#000000; fill-opacity:0%"></rect>
    </g>
  </symbol>
 </defs>
</svg>
