<?xml version="1.0"?>
<?metis version="3.0"?>
<?metisxml version="1.0"?>
<!DOCTYPE svg  PUBLIC "-//W3C//DTD SVG August 1999//EN"
 "http://www.w3.org/Graphics/SVG/svg-19990812.dtd">

<svg width="200" height="200">
 <title>Symbol library: gpm_deliverable.svg</title>
 <defs>
  <symbol id="oid1" xml:space="preserve" class="METIS_SYMBOL">
   <title>Untitled</title>
    <rect x="88" y="0" width="192" height="128"
     style=" stroke:#000000; stroke-width:1; fill:#fffce1; fill-opacity:100%"></rect>
    <g>
      <desc>METIS_TEXT_GROUP</desc>
      <text  x="88" y="15.8"
       style=" stroke:#000000; stroke-width:1; font-family:sans-serif; font-size:16; text-align:center" class="TAG:del"
>del</text>
      <rect x="88" y="0" width="192" height="32"
       style=" stroke:#000000; stroke-width:1; fill:#fffce1; fill-opacity:0%"></rect>
    </g>
    <g>
      <desc>METIS_TEXT_GROUP</desc>
      <text  x="88" y="39.8"
       style=" stroke:#000000; stroke-width:1; font-family:sans-serif; font-size:16;" class="TAG:text"
>name</text>
      <rect x="88" y="24" width="192" height="40"
       style=" stroke:#000000; stroke-width:1; fill:#fffce1; fill-opacity:0%"></rect>
    </g>
    <g>
      <desc>METIS_TEXT_GROUP</desc>
      <text  x="144" y="79.8"
       style=" stroke:#000000; stroke-width:1; font-family:sans-serif; font-size:16;" class="TAG:nature"
>nature</text>
      <rect x="144" y="64" width="128" height="48"
       style=" stroke:#000000; stroke-width:1; fill:#fffce1; fill-opacity:0%"></rect>
    </g>
    <g>
      <desc>METIS_TEXT_GROUP</desc>
      <text  x="88" y="79.8"
       style=" stroke:#000000; stroke-width:1; font-family:sans-serif; font-size:16;"
>Nature:</text>
      <rect x="88" y="64" width="96" height="48"
       style=" stroke:#000000; stroke-width:1; fill:#fffce1; fill-opacity:0%"></rect>
    </g>
    <g>
      <g>
	<polygon points="60.4037 73.2297 25.2347 73.2297 25.3221 70.9198 
	 25.4096 68.61 25.3221 66.3926 25.1471 64.1751 24.7972 61.9577 
	 24.4472 59.9251 23.9223 57.8 23.3974 55.7673 22.6975 53.7347 
	 21.9976 51.7944 21.2103 49.8541 20.4229 47.9139 19.5481 45.9736 
	 18.6732 44.0334 17.7984 42.1855 16.8361 40.2453 15.9611 38.3974 
	 15.0863 36.5495 14.2114 34.6092 13.2491 32.669 12.4618 30.8212 
	 11.6744 28.8809 10.887 26.9407 10.1871 25.0003 9.66222 22.9677 
	 9.13732 20.935 8.69988 18.9024 8.34994 16.7773 8.08749 14.6523 
	 8 12.5273 8 10.3098 8.08749 8 43.2566 8 
	 43.0816 10.3098 43.0816 12.5273 43.1691 14.6523 43.4315 16.7773 
	 43.7815 18.9024 44.219 20.935 44.6563 22.9677 45.3562 25.0003 
	 45.9686 26.9407 46.756 28.8809 47.5434 30.8212 48.3307 32.669 
	 49.2056 34.6092 50.0804 36.5495 51.0428 38.3974 51.9176 40.2453 
	 52.88 42.1855 53.7548 44.0334 54.6296 45.9736 55.5045 47.9139 
	 56.2919 49.8541 57.0793 51.7944 57.7791 53.7347 58.479 55.7673 
	 59.0915 57.8 59.5289 59.9251 59.9663 61.9577 60.3162 64.1751 
	 60.4912 66.3926 60.5787 68.61 60.4912 70.9198 60.4037 73.2297 60.4037 73.2297 "
	 style=" stroke:#000000; stroke-width:1; fill:#ffffff; fill-opacity:100%"></polygon>
	<polyline points="28.9616 67.6017 29.609 66.5385 28.9616 65.5719 
	 29.239 65.5719 29.7015 66.3452 30.2563 65.5719 30.5337 65.5719 
	 29.7939 66.5385 30.5337 67.6017 30.2563 67.6017 29.7015 66.7318 
	 29.1465 67.6017 28.9616 67.6017 28.9616 67.6017 28.9616 67.6017"
	 style=" stroke:#ff0016; stroke-width:1;"></polyline>
	<polygon points="37.8245 17.2263 37.7349 15.5336 36.1235 12.3363 
	 36.6606 12.3363 38.0035 15.0634 39.1673 12.3363 39.7045 12.3363 
	 38.2721 15.5336 38.2721 17.2263 37.8245 17.2263 37.8245 17.2263 "
	 style=" stroke:#0000ff; stroke-width:1; fill:#0000ff; fill-opacity:100%"></polygon>
	<polygon points="32.8094 17.2263 32.6299 12.3363 33.7071 12.3363 
	 34.6945 12.5244 35.3228 12.9006 35.6819 13.4648 35.7717 13.935 
	 35.7717 14.4992 35.5024 14.9694 35.1433 15.2515 34.6047 15.4396 
	 35.8615 17.2263 35.2331 17.2263 33.6173 14.9694 34.0662 14.9694 
	 34.4252 14.9694 34.6945 14.9694 34.9638 14.8753 35.1433 14.6873 
	 35.2331 14.4992 35.2331 14.3111 35.3228 13.935 35.2331 13.5588 
	 35.1433 13.2767 34.7843 13.0886 34.4252 12.9006 34.0662 12.9006 
	 33.6173 12.9006 33.348 12.9006 33.0787 12.9006 33.2582 17.2263 
	 32.8094 17.2263 32.8094 17.2263 "
	 style=" stroke:#0000ff; stroke-width:1; fill:#0000ff; fill-opacity:100%"></polygon>
	<polygon points="29.317 17.2263 29.1363 12.3363 31.5758 12.3363 
	 31.6661 12.9006 29.5881 12.9006 29.5881 14.4992 31.6661 14.4992 
	 31.6661 14.9694 29.6784 14.9694 29.6784 16.7561 31.7565 16.7561 
	 31.7565 17.2263 29.317 17.2263 29.317 17.2263 "
	 style=" stroke:#0000ff; stroke-width:1; fill:#0000ff; fill-opacity:100%"></polygon>
	<polygon points="26.2076 17.2263 24.2453 12.3363 24.6912 12.3363 
	 26.386 16.568 27.9024 12.3363 28.4376 12.3363 26.6536 17.2263 
	 26.2076 17.2263 26.2076 17.2263 "
	 style=" stroke:#0000ff; stroke-width:1; fill:#0000ff; fill-opacity:100%"></polygon>
	<polygon points="23.6338 17.2263 23.1348 17.2263 22.9351 12.3363 
	 23.534 12.3363 23.6338 17.2263 23.6338 17.2263 "
	 style=" stroke:#0000ff; stroke-width:1; fill:#0000ff; fill-opacity:100%"></polygon>
	<polygon points="20.5083 16.7561 22.4985 16.7561 22.4985 17.2263 
	 20.1465 17.2263 19.9656 12.3363 20.4179 12.3363 20.5083 16.7561 20.5083 16.7561 "
	 style=" stroke:#0000ff; stroke-width:1; fill:#0000ff; fill-opacity:100%"></polygon>
	<polygon points="16.5651 17.2263 16.3846 12.3363 18.9116 12.3363 
	 18.9116 12.9006 16.8359 12.9006 16.9262 14.4992 18.9116 14.4992 
	 19.0019 14.9694 16.9262 14.9694 17.0164 16.7561 19.0019 16.7561 
	 19.0922 17.2263 16.5651 17.2263 16.5651 17.2263 "
	 style=" stroke:#0000ff; stroke-width:1; fill:#0000ff; fill-opacity:100%"></polygon>
	<polygon points="11.7596 17.2263 11.5809 12.3363 12.8315 12.3363 
	 13.4568 12.4304 13.9927 12.6185 14.4393 12.8065 14.7967 13.0886 
	 15.0646 13.4648 15.3326 13.8409 15.4219 14.3111 15.5112 14.8753 
	 15.5112 15.2515 15.4219 15.6277 15.2433 16.0979 14.9753 16.474 
	 14.4393 16.7561 13.8141 17.0382 12.9208 17.2263 11.7596 17.2263 11.7596 17.2263 "
	 style=" stroke:#0000ff; stroke-width:1; fill:#0000ff; fill-opacity:100%"></polygon>
	<polygon points="12.105 12.8899 12.195 16.7649 12.7349 16.7649 
	 13.1848 16.6704 13.6347 16.6704 14.1746 16.4814 14.5346 16.2924 
	 14.8046 15.9144 14.9846 15.5363 15.0745 14.8747 14.9846 14.3076 
	 14.8046 13.8351 14.5346 13.457 14.1746 13.1735 13.7247 12.9844 
	 13.1848 12.8899 12.7349 12.8899 12.105 12.8899 12.105 12.8899 "
	 style=" stroke:#0000ff; stroke-width:1; fill:#ffffff; fill-opacity:100%"></polygon>
	<polygon points="30.0097 32.2651 30.2426 32.2651 30.3591 32.7264 
	 30.1262 32.7264 30.0097 32.2651 30.0097 32.2651 "
	 style=" stroke:#0000ff; stroke-width:1; fill:#0000ff; fill-opacity:100%"></polygon>
	<polygon points="30.1844 33.28 30.4173 33.28 30.5337 33.7413 
	 30.3008 33.7413 30.1844 33.28 30.1844 33.28 "
	 style=" stroke:#0000ff; stroke-width:1; fill:#0000ff; fill-opacity:100%"></polygon>
	<polygon points="26.177 33.2465 25.9921 31.896 26.177 31.896 
	 26.4544 33.3429 26.5469 33.5358 26.6394 33.7287 26.7319 33.7287 
	 27.0093 33.8252 27.1017 33.7287 27.2867 33.7287 27.3792 33.5358 
	 27.3792 33.3429 27.1017 31.896 27.3792 31.896 27.5642 33.3429 
	 27.5642 33.6323 27.3792 33.8252 27.2867 33.9216 27.0093 34.0181 
	 26.7319 33.9216 26.5469 33.8252 26.362 33.6323 26.177 33.2465 26.177 33.2465 "
	 style=" stroke:#0000ff; stroke-width:1; fill:#0000ff; fill-opacity:100%"></polygon>
	<polygon points="23.4776 33.9258 23.1099 31.896 23.2937 31.896 
	 23.4776 33.0559 24.2131 31.896 24.4889 31.896 23.8454 32.8626 
	 24.8567 33.9258 24.4889 33.9258 23.7534 33.0559 23.5696 33.4426 
	 23.6615 33.9258 23.4776 33.9258 23.4776 33.9258 "
	 style=" stroke:#0000ff; stroke-width:1; fill:#0000ff; fill-opacity:100%"></polygon>
	<polygon points="21.101 32.7659 21.1922 32.5726 21.1922 32.476 
	 21.2833 32.2827 21.3744 32.186 21.5567 31.9927 21.6479 31.896 
	 21.8301 31.896 21.9213 31.896 22.1035 31.896 22.2858 31.896 
	 22.3769 31.9927 22.5592 32.0893 22.7415 32.186 22.8326 32.2827 
	 23.0149 32.476 22.7415 32.476 22.5592 32.2827 22.2858 32.0893 
	 22.1035 32.0893 21.8301 32.0893 21.6479 32.2827 21.4656 32.3793 
	 21.3744 32.6693 21.3744 32.9593 21.4656 33.2493 21.6479 33.5392 
	 21.9213 33.7325 22.1947 33.7325 22.3769 33.7325 22.5592 33.7325 
	 22.7415 33.6359 22.9237 33.4426 23.1972 33.4426 23.106 33.6359 
	 22.9237 33.7325 22.8326 33.9258 22.6503 33.9258 22.4681 33.9258 
	 22.3769 33.9258 22.1947 33.9258 22.0124 33.9258 21.8301 33.9258 
	 21.6479 33.8292 21.5567 33.7325 21.4656 33.5392 21.2833 33.4426 
	 21.1922 33.2493 21.1922 32.9593 21.101 32.7659 21.101 32.7659 "
	 style=" stroke:#0000ff; stroke-width:1; fill:#0000ff; fill-opacity:100%"></polygon>
	<polygon points="21.1883 33.9258 20.8826 33.9258 20.577 31.896 
	 20.7807 31.896 21.1883 33.9258 21.1883 33.9258 "
	 style=" stroke:#0000ff; stroke-width:1; fill:#0000ff; fill-opacity:100%"></polygon>
	<polygon points="19.4649 33.9258 19.0922 31.896 19.6512 31.896 
	 19.7444 31.896 19.9307 31.896 20.2102 32.0893 20.3033 32.2827 
	 20.4897 32.476 20.4897 32.6693 20.4897 32.8626 20.4897 32.9593 
	 20.2102 33.0559 20.0239 33.1526 19.7444 33.1526 19.4649 33.1526 
	 19.6512 33.9258 19.4649 33.9258 19.4649 33.9258 "
	 style=" stroke:#0000ff; stroke-width:1; fill:#0000ff; fill-opacity:100%"></polygon>
	<polygon points="27.9369 33.9258 27.5642 31.896 28.1232 31.896 
	 28.2163 31.896 28.4027 31.896 28.4958 31.9927 28.589 32.0893 
	 28.7753 32.2827 28.9616 32.476 28.9616 32.6693 28.9616 32.8626 
	 28.8685 32.9593 28.6822 33.0559 28.4958 33.1526 28.2163 33.1526 
	 27.9369 33.1526 28.1232 33.9258 27.9369 33.9258 27.9369 33.9258 "
	 style=" stroke:#0000ff; stroke-width:1; fill:#0000ff; fill-opacity:100%"></polygon>
	<polygon points="19.2669 32.0806 19.4575 33.0032 19.648 33.0032 
	 19.8386 33.0032 19.9339 33.0032 20.1244 32.9007 20.315 32.7981 
	 20.315 32.4906 20.2197 32.3881 20.0291 32.1831 19.9339 32.0806 
	 19.7433 32.0806 19.648 32.0806 19.4575 32.0806 19.2669 32.0806 19.2669 32.0806 "
	 style=" stroke:#0000ff; stroke-width:1; fill:#ffffff; fill-opacity:100%"></polygon>
	<polygon points="27.8262 32.0806 27.9223 33.0032 28.1144 33.0032 
	 28.3066 33.0032 28.4027 33.0032 28.5948 32.9007 28.6909 32.7981 
	 28.787 32.4906 28.6909 32.3881 28.4987 32.1831 28.4027 32.0806 
	 28.2105 32.0806 28.1144 32.0806 27.9223 32.0806 27.8262 32.0806 27.8262 32.0806 "
	 style=" stroke:#0000ff; stroke-width:1; fill:#ffffff; fill-opacity:100%"></polygon>
	<polygon points="35.3169 44.3515 35.1319 43.5798 34.1147 42.2295 
	 34.3921 42.2295 35.2244 43.3869 35.4094 42.2295 35.6868 42.2295 
	 35.3169 43.5798 35.5943 44.3515 35.3169 44.3515 35.3169 44.3515 "
	 style=" stroke:#0000ff; stroke-width:1; fill:#0000ff; fill-opacity:100%"></polygon>
	<polygon points="33.1789 44.3515 32.6299 42.2295 33.1789 42.2295 
	 33.5449 42.3259 33.8194 42.5188 34.0939 42.7117 34.1854 42.9047 
	 34.1854 43.194 34.1854 43.2905 34.0024 43.4834 33.8194 43.4834 
	 34.5514 44.3515 34.2769 44.3515 33.3619 43.3869 33.5449 43.3869 
	 33.7279 43.2905 33.8194 43.2905 33.9109 43.2905 34.0024 43.0011 
	 34.0024 42.9047 33.9109 42.7117 33.8194 42.6153 33.6364 42.5188 
	 33.4534 42.5188 33.3619 42.4224 33.1789 42.4224 32.9959 42.4224 
	 32.9044 42.5188 33.3619 44.3515 33.1789 44.3515 33.1789 44.3515 "
	 style=" stroke:#0000ff; stroke-width:1; fill:#0000ff; fill-opacity:100%"></polygon>
	<polygon points="31.7905 44.3515 31.1451 42.2295 32.2514 42.2295 
	 32.3436 42.4224 31.4217 42.4224 31.6061 43.194 32.528 43.194 
	 32.528 43.3869 31.6983 43.3869 31.8827 44.0622 32.8046 44.0622 
	 32.8046 44.3515 31.7905 44.3515 31.7905 44.3515 "
	 style=" stroke:#0000ff; stroke-width:1; fill:#0000ff; fill-opacity:100%"></polygon>
	<polygon points="30.5119 44.3515 29.1363 42.2295 29.3197 42.2295 
	 30.5119 44.0622 30.787 42.2295 30.9704 42.2295 30.6953 44.3515 
	 30.5119 44.3515 30.5119 44.3515 "
	 style=" stroke:#0000ff; stroke-width:1; fill:#0000ff; fill-opacity:100%"></polygon>
	<polygon points="29.3983 44.3515 29.2018 44.3515 28.6122 42.2295 
	 28.8088 42.2295 29.3983 44.3515 29.3983 44.3515 "
	 style=" stroke:#0000ff; stroke-width:1; fill:#0000ff; fill-opacity:100%"></polygon>
	<polygon points="28.0397 44.0622 28.8695 44.0622 28.9616 44.3515 
	 27.9475 44.3515 27.3022 42.2295 27.5788 42.2295 28.0397 44.0622 28.0397 44.0622 "
	 style=" stroke:#0000ff; stroke-width:1; fill:#0000ff; fill-opacity:100%"></polygon>
	<polygon points="26.3705 44.3515 25.8174 42.2295 26.9237 42.2295 
	 27.0158 42.4224 26.094 42.4224 26.2783 43.194 27.2002 43.194 
	 27.2002 43.3869 26.3705 43.3869 26.5549 44.0622 27.4769 44.0622 
	 27.4769 44.3515 26.3705 44.3515 26.3705 44.3515 "
	 style=" stroke:#0000ff; stroke-width:1; fill:#0000ff; fill-opacity:100%"></polygon>
	<polygon points="24.4449 44.3515 23.8959 42.2295 24.3534 42.2295 
	 24.6279 42.3259 24.9024 42.3259 25.0854 42.4224 25.3599 42.5188 
	 25.4514 42.7117 25.6344 42.9047 25.7259 43.0976 25.8174 43.2905 
	 25.8174 43.4834 25.8174 43.6763 25.8174 43.8692 25.7259 43.9656 
	 25.5429 44.1586 25.2684 44.2551 24.9024 44.3515 24.4449 44.3515 24.4449 44.3515 "
	 style=" stroke:#0000ff; stroke-width:1; fill:#0000ff; fill-opacity:100%"></polygon>
	<polygon points="24.1579 42.414 24.5291 44.0747 24.8075 44.0747 
	 24.9931 44.0747 25.1787 44.0747 25.3643 43.977 25.5499 43.977 
	 25.6427 43.7816 25.6427 43.5862 25.6427 43.2932 25.5499 43.0001 
	 25.3643 42.8047 25.1787 42.7071 24.9931 42.6094 24.8075 42.5117 
	 24.5291 42.5117 24.3435 42.414 24.1579 42.414 24.1579 42.414 "
	 style=" stroke:#0000ff; stroke-width:1; fill:#ffffff; fill-opacity:100%"></polygon>
	<polygon points="36.7349 42.5985 36.9678 42.5985 37.0842 42.9676 
	 36.8513 42.9676 36.7349 42.5985 36.7349 42.5985 "
	 style=" stroke:#0000ff; stroke-width:1; fill:#0000ff; fill-opacity:100%"></polygon>
	<polygon points="36.9969 43.6134 37.2298 43.6134 37.3462 43.9824 
	 37.1133 43.9824 36.9969 43.6134 36.9969 43.6134 "
	 style=" stroke:#0000ff; stroke-width:1; fill:#0000ff; fill-opacity:100%"></polygon>
	<polygon points="41.8006 55.8843 42.0334 55.8843 42.1499 56.3457 
	 41.917 56.3457 41.8006 55.8843 41.8006 55.8843 "
	 style=" stroke:#0000ff; stroke-width:1; fill:#0000ff; fill-opacity:100%"></polygon>
	<polygon points="42.0626 56.8992 42.2956 56.8992 42.412 57.3605 
	 42.1791 57.3605 42.0626 56.8992 42.0626 56.8992 "
	 style=" stroke:#0000ff; stroke-width:1; fill:#0000ff; fill-opacity:100%"></polygon>
	<polygon points="40.1641 57.7296 39.7044 55.6998 40.2561 55.6998 
	 40.4399 55.6998 40.6238 55.7965 40.8077 55.7965 40.8996 55.8931 
	 40.9915 55.9898 41.1754 56.2797 41.1754 56.3764 41.2673 56.5697 
	 41.1754 56.763 40.9915 56.9563 40.8077 56.9563 41.4512 57.7296 
	 41.2673 57.7296 40.348 56.763 40.5319 56.763 40.7157 56.763 
	 40.8077 56.763 40.8996 56.6664 40.9915 56.473 40.9915 56.3764 
	 40.8996 56.1831 40.8077 56.0864 40.6238 55.8931 40.5319 55.8931 
	 40.348 55.8931 40.1641 55.8931 40.0722 55.8931 40.348 57.7296 
	 40.1641 57.7296 40.1641 57.7296 "
	 style=" stroke:#0000ff; stroke-width:1; fill:#0000ff; fill-opacity:100%"></polygon>
	<polygon points="38.8583 57.7296 38.3943 55.6998 39.5079 55.6998 
	 39.5079 55.8931 38.6727 55.8931 38.7655 56.5697 39.6935 56.5697 
	 39.6935 56.763 38.8583 56.763 38.9511 57.5363 39.8791 57.5363 
	 39.8791 57.7296 38.8583 57.7296 38.8583 57.7296 "
	 style=" stroke:#0000ff; stroke-width:1; fill:#0000ff; fill-opacity:100%"></polygon>
	<polygon points="36.5764 57.7296 36.1235 55.6998 36.4858 55.6998 
	 37.4821 57.4396 37.8445 55.6998 38.1162 55.6998 38.569 57.7296 
	 38.3879 57.7296 38.0256 55.8931 37.6632 57.7296 37.4821 57.7296 
	 36.3952 55.8931 36.7575 57.7296 36.5764 57.7296 36.5764 57.7296 "
	 style=" stroke:#0000ff; stroke-width:1; fill:#0000ff; fill-opacity:100%"></polygon>
	<polygon points="34.1147 56.1821 34.2058 55.9892 34.3881 55.7963 
	 34.5704 55.6998 34.7526 55.6998 35.026 55.6998 35.2083 55.6998 
	 35.4817 55.7963 35.7552 55.9892 35.8463 56.0856 35.9375 56.2785 
	 36.0286 56.4714 36.1197 56.5679 36.2109 56.7608 36.2109 56.9537 
	 36.2109 57.0502 36.1197 57.4361 35.9375 57.629 35.7552 57.7254 
	 35.4817 57.8219 35.2083 57.8219 35.026 57.7254 34.7526 57.629 
	 34.4792 57.3396 34.3881 57.2431 34.1147 56.9537 34.1147 56.7608 
	 34.1147 56.5679 34.1147 56.375 34.1147 56.1821 34.1147 56.1821 "
	 style=" stroke:#0000ff; stroke-width:1; fill:#0000ff; fill-opacity:100%"></polygon>
	<polygon points="33.6634 57.7296 33.1903 55.8931 32.8118 55.8931 
	 32.7172 55.6998 33.8526 55.6998 33.8526 55.8931 33.3795 55.8931 
	 33.8526 57.7296 33.6634 57.7296 33.6634 57.7296 "
	 style=" stroke:#0000ff; stroke-width:1; fill:#0000ff; fill-opacity:100%"></polygon>
	<polygon points="32.1308 57.1466 32.2244 57.3396 32.4116 57.5325 
	 32.5051 57.5325 32.6923 57.5325 32.8795 57.3396 32.8795 57.1466 
	 32.7859 56.9537 32.5987 56.8573 32.4116 56.7608 32.2244 56.6644 
	 32.0373 56.6644 31.8501 56.4714 31.7565 56.375 31.7565 56.0856 
	 31.7565 55.8927 31.9437 55.6998 32.0373 55.6998 32.2244 55.6998 
	 32.318 55.6998 32.5987 55.7963 32.6923 55.8927 32.7859 56.1821 
	 32.5987 56.1821 32.4116 55.8927 32.1308 55.8927 31.9437 55.9892 
	 31.9437 56.1821 32.0373 56.375 32.2244 56.4714 32.4116 56.5679 
	 32.5987 56.5679 32.6923 56.6644 32.8795 56.8573 33.0666 57.0502 
	 33.0666 57.2431 33.0666 57.4361 32.973 57.629 32.6923 57.8219 
	 32.4116 57.7254 32.1308 57.629 31.9437 57.3396 31.8501 57.1466 
	 32.1308 57.1466 32.1308 57.1466 "
	 style=" stroke:#0000ff; stroke-width:1; fill:#0000ff; fill-opacity:100%"></polygon>
	<polygon points="30.3745 57.0502 30.097 55.6998 30.282 55.6998 
	 30.5594 57.0502 30.7444 57.3396 30.8368 57.4361 30.9293 57.5325 
	 31.2067 57.629 31.2992 57.5325 31.4841 57.4361 31.5767 57.3396 
	 31.5767 57.0502 31.2067 55.6998 31.3917 55.6998 31.6692 57.0502 
	 31.6692 57.3396 31.6692 57.629 31.4841 57.7254 31.2067 57.8219 
	 30.9293 57.7254 30.7444 57.629 30.5594 57.4361 30.3745 57.0502 30.3745 57.0502 "
	 style=" stroke:#0000ff; stroke-width:1; fill:#0000ff; fill-opacity:100%"></polygon>
	<polygon points="28.0882 56.5697 28.1794 56.1831 28.2705 55.8931 
	 28.4528 55.7965 28.8173 55.6998 29.0907 55.6998 29.3641 55.7965 
	 29.6376 55.8931 29.911 56.1831 29.7287 56.1831 29.5464 55.9898 
	 29.273 55.8931 28.9996 55.8931 28.8173 55.8931 28.5439 55.9898 
	 28.4528 56.1831 28.3616 56.3764 28.3616 56.6664 28.5439 57.053 
	 28.7262 57.343 28.9084 57.4396 29.1818 57.5363 29.4553 57.5363 
	 29.6376 57.5363 29.8198 57.343 29.911 57.2463 30.1844 57.2463 
	 30.0021 57.5363 29.7287 57.7296 29.4553 57.7296 29.0907 57.7296 
	 28.7262 57.633 28.4528 57.343 28.2705 56.9563 28.0882 56.5697 28.0882 56.5697 "
	 style=" stroke:#0000ff; stroke-width:1; fill:#0000ff; fill-opacity:100%"></polygon>
	<polygon points="34.3816 56.0797 34.2894 56.4705 34.3816 56.8612 
	 34.4737 57.0566 34.7503 57.3497 35.0269 57.5451 35.3034 57.5451 
	 35.6722 57.5451 35.9488 57.2519 35.9488 56.9589 35.9488 56.6658 
	 35.7644 56.3728 35.4878 56.0797 35.2113 55.8843 34.9347 55.8843 
	 34.5659 55.8843 34.3816 56.0797 34.3816 56.0797 "
	 style=" stroke:#0000ff; stroke-width:1; fill:#ffffff; fill-opacity:100%"></polygon>
	<polygon points="40.5778 11.4137 10.7949 11.4137 10.7949 10.8601 
	 40.5778 10.8601 40.5778 11.4137 40.5778 11.4137 "
	 style=" stroke:#ff0016; stroke-width:1; fill:#ff0016; fill-opacity:100%"></polygon>
	<polygon points="41.0145 18.6102 11.2316 18.6102 11.2316 18.0567 
	 41.0145 18.0567 41.0145 18.6102 41.0145 18.6102 "
	 style=" stroke:#ff0016; stroke-width:1; fill:#ff0016; fill-opacity:100%"></polygon>
	<polygon points="36.6039 20.9168 36.8823 20.9168 37.1607 22.4572 
	 37.3463 22.4572 37.3463 22.746 37.2535 22.746 37.2535 23.1311 
	 37.0679 23.1311 36.9751 22.746 35.8615 22.746 35.8615 22.4572 
	 36.6039 20.9168 36.6039 20.9168 "
	 style=" stroke:#ff0016; stroke-width:1; fill:#ff0016; fill-opacity:100%"></polygon>
	<polygon points="34.7635 23.1311 35.325 21.1093 34.2956 21.1093 
	 34.202 20.9168 35.4185 20.9168 35.5121 21.1093 35.0442 23.1311 
	 34.7635 23.1311 34.7635 23.1311 "
	 style=" stroke:#ff0016; stroke-width:1; fill:#ff0016; fill-opacity:100%"></polygon>
	<polygon points="41.2204 23.1311 41.7819 21.1093 40.7525 21.1093 
	 40.7525 20.9168 41.969 20.9168 42.0626 21.1093 41.5011 23.1311 
	 41.2204 23.1311 41.2204 23.1311 "
	 style=" stroke:#ff0016; stroke-width:1; fill:#ff0016; fill-opacity:100%"></polygon>
	<polygon points="32.7172 21.4972 32.7172 21.2089 32.9016 21.0167 
	 33.086 20.9206 33.2704 20.8245 33.5469 20.9206 33.7314 21.0167 
	 33.9157 21.2089 34.1923 21.4972 34.3767 22.4584 34.2845 22.8428 
	 34.1923 23.035 33.9157 23.1311 33.7314 23.1311 33.4547 23.1311 
	 33.1782 23.035 32.9938 22.8428 32.9016 22.5545 32.7172 21.4972 32.7172 21.4972 "
	 style=" stroke:#ff0016; stroke-width:1; fill:#ff0016; fill-opacity:100%"></polygon>
	<polygon points="37.4336 21.4972 37.4336 21.2089 37.5264 21.0167 
	 37.712 20.9206 37.8976 20.8245 38.176 20.9206 38.3616 21.0167 
	 38.64 21.2089 38.8256 21.4972 38.9184 22.4584 38.9184 22.8428 
	 38.8256 23.035 38.5472 23.1311 38.3616 23.1311 38.0832 23.1311 
	 37.8048 23.035 37.6192 22.8428 37.5264 22.5545 37.4336 21.4972 37.4336 21.4972 "
	 style=" stroke:#ff0016; stroke-width:1; fill:#ff0016; fill-opacity:100%"></polygon>
	<polygon points="39.093 21.4972 39.093 21.2089 39.278 21.0167 
	 39.4629 20.9206 39.6479 20.8245 39.9253 20.9206 40.1103 21.0167 
	 40.3877 21.2089 40.5727 21.4972 40.6652 22.4584 40.6652 22.8428 
	 40.5727 23.035 40.2953 23.1311 40.1103 23.1311 39.8328 23.1311 
	 39.5554 23.035 39.3705 22.8428 39.278 22.5545 39.093 21.4972 39.093 21.4972 "
	 style=" stroke:#ff0016; stroke-width:1; fill:#ff0016; fill-opacity:100%"></polygon>
	<polygon points="31.885 20.9168 32.1624 20.9168 32.4398 22.4572 
	 32.6247 22.4572 32.7172 22.746 32.5323 22.746 32.6247 23.1311 
	 32.3473 23.1311 32.2548 22.746 31.1451 22.746 31.1451 22.4572 
	 31.885 20.9168 31.885 20.9168 "
	 style=" stroke:#ff0016; stroke-width:1; fill:#ff0016; fill-opacity:100%"></polygon>
	<polygon points="30.2241 21.1093 29.843 21.1093 29.7477 20.9168 
	 30.4147 20.9168 30.7958 23.1311 30.6052 23.1311 30.2241 21.1093 30.2241 21.1093 "
	 style=" stroke:#ff0016; stroke-width:1; fill:#ff0016; fill-opacity:100%"></polygon>
	<polygon points="28.3824 21.6869 28.4743 20.9168 28.6582 20.9168 
	 28.4743 21.6869 28.8421 21.6869 29.0259 20.9168 29.1179 20.9168 
	 29.0259 21.6869 29.4857 21.6869 29.4857 21.8796 29.0259 21.8796 
	 28.934 22.1684 29.3937 22.1684 29.3937 22.3609 28.8421 22.3609 
	 28.7501 23.1311 28.5663 23.1311 28.7501 22.3609 28.3824 22.3609 
	 28.2905 23.1311 28.1066 23.1311 28.1985 22.3609 27.7389 22.3609 
	 27.7389 22.1684 28.2905 22.1684 28.3824 21.8796 27.8308 21.8796 
	 27.8308 21.6869 28.3824 21.6869 28.3824 21.6869 "
	 style=" stroke:#ff0016; stroke-width:1; fill:#ff0016; fill-opacity:100%"></polygon>
	<polygon points="36.7058 21.1936 36.1235 22.4852 36.9969 22.4852 
	 36.7058 21.1936 36.7058 21.1936 "
	 style=" stroke:#ff0016; stroke-width:1; fill:#ffffff; fill-opacity:100%"></polygon>
	<polygon points="32.9792 21.5869 33.0739 22.461 33.1685 22.6552 
	 33.2631 22.8494 33.4523 22.9466 33.6416 22.9466 33.8308 22.9466 
	 34.02 22.9466 34.1147 22.7523 34.1147 22.461 33.9254 21.5869 
	 33.8308 21.3926 33.7362 21.1984 33.5469 21.1013 33.3577 21.1013 
	 33.1685 21.1013 33.0739 21.1984 32.9792 21.3926 32.9792 21.5869 32.9792 21.5869 "
	 style=" stroke:#ff0016; stroke-width:1; fill:#ffffff; fill-opacity:100%"></polygon>
	<polygon points="37.6082 21.5869 37.7029 22.461 37.7975 22.6552 
	 37.8922 22.8494 38.0814 22.9466 38.2706 22.9466 38.5544 22.9466 
	 38.6491 22.9466 38.7437 22.7523 38.7437 22.461 38.6491 21.5869 
	 38.5544 21.3926 38.3652 21.1984 38.176 21.1013 37.9868 21.1013 
	 37.7975 21.1013 37.7029 21.1984 37.6082 21.3926 37.6082 21.5869 37.6082 21.5869 "
	 style=" stroke:#ff0016; stroke-width:1; fill:#ffffff; fill-opacity:100%"></polygon>
	<polygon points="39.3618 21.5869 39.4558 22.461 39.5499 22.6552 
	 39.6439 22.8494 39.832 22.9466 40.0202 22.9466 40.2083 22.9466 
	 40.3964 22.9466 40.4905 22.7523 40.4905 22.461 40.3964 21.5869 
	 40.3024 21.3926 40.1143 21.1984 39.9261 21.1013 39.738 21.1013 
	 39.5499 21.1013 39.4558 21.1984 39.2677 21.3926 39.3618 21.5869 39.3618 21.5869 "
	 style=" stroke:#ff0016; stroke-width:1; fill:#ffffff; fill-opacity:100%"></polygon>
	<polygon points="31.9894 21.1936 31.4071 22.4852 32.2805 22.4852 
	 31.9894 21.1936 31.9894 21.1936 "
	 style=" stroke:#ff0016; stroke-width:1; fill:#ffffff; fill-opacity:100%"></polygon>
	<polygon points="28.4376 21.8394 28.4376 22.2085 28.7651 22.2085 
	 28.8743 21.8394 28.4376 21.8394 28.4376 21.8394 "
	 style=" stroke:#ff0016; stroke-width:1; fill:#ff0016; fill-opacity:100%"></polygon>
	<polygon points="28.9616 67.6017 29.609 66.5385 28.9616 65.5719 
	 29.239 65.5719 29.7015 66.3452 30.2563 65.5719 30.5337 65.5719 
	 29.7939 66.5385 30.5337 67.6017 30.2563 67.6017 29.7015 66.7318 
	 29.1465 67.6017 28.9616 67.6017 28.9616 67.6017 "
	 style="stroke:none; fill:#ff0016; fill-opacity:100%"></polygon>
	<polyline points="42.8486 24.7918 13.0657 24.7918"
	 style=" stroke:#000000; stroke-width:1;"></polyline>
	<polyline points="43.722 26.7294 13.9391 26.7294"
	 style=" stroke:#000000; stroke-width:1;"></polyline>
	<polyline points="44.5955 28.5746 14.8999 28.5746"
	 style=" stroke:#000000; stroke-width:1;"></polyline>
	<polyline points="36.9096 30.5121 16.1226 30.5121"
	 style=" stroke:#000000; stroke-width:1;"></polyline>
	<polyline points="47.4777 35.3098 17.7821 35.3098"
	 style=" stroke:#000000; stroke-width:1;"></polyline>
	<polyline points="48.2637 37.155 18.5681 37.155"
	 style=" stroke:#000000; stroke-width:1;"></polyline>
	<polyline points="49.0498 39.0925 19.2669 39.0925"
	 style=" stroke:#000000; stroke-width:1;"></polyline>
	<polyline points="49.9232 41.03 20.1403 41.03"
	 style=" stroke:#000000; stroke-width:1;"></polyline>
	<polyline points="52.7181 46.289 22.9351 46.289"
	 style=" stroke:#000000; stroke-width:1;"></polyline>
	<polyline points="53.5042 48.2265 23.8086 48.2265"
	 style=" stroke:#000000; stroke-width:1;"></polyline>
	<polyline points="54.4649 50.164 24.6819 50.164"
	 style=" stroke:#000000; stroke-width:1;"></polyline>
	<polyline points="55.3383 52.1016 25.5554 52.1016"
	 style=" stroke:#000000; stroke-width:1;"></polyline>
	<polyline points="56.1243 54.0391 26.3414 54.0391"
	 style=" stroke:#000000; stroke-width:1;"></polyline>
	<polyline points="57.7838 59.8517 28.0009 59.8517"
	 style=" stroke:#000000; stroke-width:1;"></polyline>
	<polyline points="58.3952 61.6969 28.6122 61.6969"
	 style=" stroke:#000000; stroke-width:1;"></polyline>
	<polyline points="58.3952 68.063 28.6122 68.063"
	 style=" stroke:#000000; stroke-width:1;"></polyline>
      </g>
      <polygon points="80 87.3083 79.3847 86.2253 78.1537 84.4924 
       77.3332 83.1928 76.1024 81.8932 75.0768 80.5935 74.0511 78.8607 
       73.4356 77.3444 72.8203 75.6115 71.7946 73.6621 70.5639 71.7126 
       69.9484 70.413 69.1279 69.33 68.5124 68.4636 67.6919 67.1638 
       66.6663 65.2144 65.6406 63.2649 64.8201 61.532 63.5893 60.2324 
       61.7431 59.3662 60.7174 59.1494 59.4865 58.7162 58.0506 58.0664 
       57.025 57.2 55.7941 56.3335 54.7684 55.6837 53.7429 54.8173 
       52.1017 53.5176 50.8709 52.218 49.6401 51.135 47.5888 50.2685 
       46.1528 49.6187 44.7169 48.969 43.486 48.1025 42.4604 47.2361 
       40.4091 45.2866 38.5628 43.987 36.7167 43.1206 35.2807 42.6873 
       34.0499 42.904 32.614 44.8535 32.4088 46.5863 32.614 48.319 
       33.2293 50.2685 33.8447 51.3516 34.6652 52.4347 35.691 53.7343 
       36.9218 55.034 38.1526 55.9004 39.1783 57.6333 39.1783 59.1494 
       38.1526 61.9653 37.1268 63.0483 35.691 63.6981 34.255 63.9148 
       32.614 63.9148 30.9729 63.6981 29.3318 63.4816 27.8959 63.4816 
       25.8445 62.6152 24.4086 61.9653 23.1778 62.6152 22.5623 64.5646 
       22.5623 66.081 22.5623 67.1638 22.3573 68.8967 22.7675 69.9797 
       24.8188 71.9292 26.0496 72.7957 27.2804 73.6621 28.3061 74.3119 
       29.9472 75.1784 29.742 76.2614 28.9215 77.9943 28.7164 79.2938 
       28.7164 80.5935 31.1781 81.2433 30.3575 82.9762 29.9472 84.2758 
       29.537 86.0086 30.7677 86.8751 32.4088 87.3083 34.8704 89.0412 
       35.4858 91.4238 36.1011 92.5069 37.7423 93.5899 38.5628 94.6729 
       40.2039 95.1063 41.6399 95.3227 42.8707 95.5394 44.1015 95.5394 
       45.3323 95.756 46.5632 95.9726 47.999 96.1891 49.2298 95.9726 
       50.6657 96.1891 52.3068 98.1386 52.9224 99.4383 53.5377 100.738 
       54.153 102.038 54.9736 103.77 56.4096 105.72 57.6403 107.669 
       58.8711 109.619 60.1019 111.568 80 87.3083 80 87.3083 "
       style=" stroke:#000000; stroke-width:1; fill:#ffc283; fill-opacity:100%"></polygon>
      <polygon points="36.9478 54.9953 37.5697 55.6574 38.3989 56.0988 
       39.228 56.7611 39.8499 57.2025 40.679 57.644 41.3008 57.8646 
       41.9227 58.3061 42.3373 58.9683 42.9591 59.4098 43.7883 59.6304 
       44.4101 60.2926 45.2393 60.7341 45.6539 61.3963 45.8612 61.8378 
       46.0684 62.7207 45.6539 63.3829 44.8248 64.045 44.203 64.4865 
       43.1665 64.7072 42.3373 64.9279 41.3008 64.9279 40.0572 64.9279 
       39.0207 64.9279 37.7769 64.7072 36.7406 64.4865 35.4968 64.2658 
       34.4605 64.045 34.0458 64.045 32.3875 63.6036 31.5584 63.3829 
       31.3511 63.3829 31.973 63.3829 32.5949 62.9413 33.0094 63.1621 
       33.6313 62.9413 34.2532 62.9413 34.875 62.7207 35.4968 62.7207 
       36.1186 62.2792 36.7406 62.0584 37.3624 61.8378 37.9843 60.7341 
       38.3989 60.2926 38.3989 59.4098 38.3989 58.7475 38.1916 58.0854 
       37.9843 57.4232 37.7769 56.7611 37.3624 55.8782 37.1551 55.2159 
       36.9478 54.9953 36.9478 54.9953 "
       style=" stroke:#000000; stroke-width:1; fill:#000000; fill-opacity:100%"></polygon>
      <polygon points="35.0924 42.9033 34.6711 43.1279 34.0394 43.3523 
       33.4076 43.8016 33.197 44.4752 32.9863 44.9244 33.197 45.8227 
       33.6182 46.4964 34.25 47.1701 35.0924 47.8437 35.9348 48.2929 
       36.7772 48.5174 37.8301 48.5174 38.2514 48.5174 39.0938 48.0683 
       39.7255 47.6193 39.9362 46.9454 39.7255 46.2718 39.3044 45.5981 
       39.0938 45.1489 38.462 44.6998 37.8301 44.0262 37.1983 43.5769 
       36.7772 43.3523 36.1453 43.1279 35.5135 42.9033 35.0924 42.9033 35.0924 42.9033 "
       style=" stroke:#000000; stroke-width:1; fill:#ffffff; fill-opacity:100%"></polygon>
      <polyline points="37.8921 52.1882 38.3265 52.4581 38.5436 52.7279 
       38.7608 52.7279 38.9781 52.7279 39.1953 52.9978 39.6296 52.9978 
       39.8468 53.2678 40.064 53.2678 40.2811 53.2678 40.7155 53.2678 
       40.9327 53.2678 41.1498 52.9978 41.367 52.9978"
       style=" stroke:#000000; stroke-width:1;"></polyline>
      <polyline points="39.9363 53.4838 40.5878 53.4838 41.2393 53.4838 
       41.6737 53.2138 42.3252 53.2138 42.9767 52.6739 43.4112 52.4041"
       style=" stroke:#000000; stroke-width:1;"></polyline>
      <polygon points="32.8904 73.5945 30.6147 73.1589 28.1323 72.5056 
       25.8567 71.4167 23.7881 70.1102 24.2018 72.0702 25.2362 73.3767 
       26.2705 74.2478 26.8911 74.9011 27.098 75.3367 27.098 76.4255 
       27.098 77.7322 27.3048 79.2566 27.5117 80.5633 27.7186 81.8699 
       28.753 83.1766 28.753 85.3543 29.5805 87.0965 31.2354 88.4031 
       33.0972 89.0564 33.3041 90.5808 34.1316 91.8873 35.166 92.9763 
       36.2002 94.0652 37.0277 94.5007 37.6485 94.9363 38.269 95.3718 
       39.0964 95.3718 39.9239 95.5896 40.9583 95.5896 40.3376 95.1541 
       39.7171 94.283 39.3034 93.4119 39.3034 92.7585 38.0621 91.452 
       37.4415 90.363 37.0277 89.7097 36.614 88.6209 36.8209 87.9675 
       37.0277 87.3143 37.6485 86.4431 36.614 86.0075 35.5796 84.7009 
       34.7521 82.741 33.9247 80.781 33.3041 78.3855 32.8904 76.4255 
       32.6835 74.6833 32.8904 73.5945 32.8904 73.5945 "
       style=" stroke:#000000; stroke-width:1; fill:#000000; fill-opacity:100%"></polygon>
      <polygon points="41.1626 95.3844 42.4001 95.3844 43.4312 95.3844 
       44.4623 95.6031 45.2873 95.8217 46.3185 96.2589 47.1434 96.4776 
       48.1745 96.2589 49.4119 96.0403 50.2368 96.2589 51.0618 96.9148 
       51.8867 98.2266 52.7116 99.7569 53.5365 101.287 54.3615 102.818 
       54.9801 104.129 55.5987 105.223 56.2176 105.878 56.8362 106.753 
       57.455 107.627 58.0736 108.502 58.6922 109.376 59.1047 110.251 
       59.7235 111.125 60.136 112 60.7546 111.563 61.7858 110.469 
       62.6107 109.376 63.6418 108.283 64.2606 107.846 63.0231 106.972 
       62.1982 106.097 61.3732 105.004 60.7546 104.129 59.9297 102.818 
       59.5171 101.725 59.1047 100.631 58.4861 99.5383 57.6612 98.8824 
       56.8362 98.4451 55.8051 98.0079 54.9801 97.5706 54.3615 97.1334 
       53.949 96.4776 53.949 95.6031 54.3615 95.3844 54.9801 95.3844 
       55.5987 95.3844 56.2176 95.1658 56.8362 95.3844 57.455 95.3844 
       57.8675 95.3844 56.0113 94.7286 53.949 94.5099 51.8867 94.5099 
       49.6182 94.5099 47.3495 94.7286 45.2873 95.1658 43.0188 95.3844 
       41.1626 95.3844 41.1626 95.3844 "
       style=" stroke:#000000; stroke-width:1; fill:#000000; fill-opacity:100%"></polygon>
    </g>
    <polyline points="80 0 0 0 0 128 
     80 128"
     style=" stroke:#000000; stroke-width:1;"></polyline>
    <g>
      <desc>METIS_TEXT_GROUP</desc>
      <text  x="144" y="103.8"
       style=" stroke:#000000; stroke-width:1; font-family:sans-serif; font-size:16;" class="TAG:date"
>date</text>
      <rect x="144" y="88" width="128" height="48"
       style=" stroke:#000000; stroke-width:1; fill:#fffce1; fill-opacity:0%"></rect>
    </g>
    <g>
      <desc>METIS_TEXT_GROUP</desc>
      <text  x="88" y="103.8"
       style=" stroke:#000000; stroke-width:1; font-family:sans-serif; font-size:16;"
>Del. date:</text>
      <rect x="88" y="88" width="96" height="48"
       style=" stroke:#000000; stroke-width:1; fill:#fffce1; fill-opacity:0%"></rect>
    </g>
  </symbol>
  <symbol id="oid2" xml:space="preserve" class="METIS_SYMBOL">
   <title>Closed</title>
    <rect x="88" y="0" width="192" height="128"
     style=" stroke:#000000; stroke-width:1; fill:#fffce1; fill-opacity:100%"></rect>
    <g>
      <desc>METIS_TEXT_GROUP</desc>
      <text  x="88" y="20.3413"
       style=" stroke:#000000; stroke-width:1; font-family:sans-serif; font-size:16;" class="TAG:text"
>name</text>
      <rect x="88" y="4.54125" width="192" height="120"
       style=" stroke:#000000; stroke-width:1; fill:#fffce1; fill-opacity:0%"></rect>
    </g>
    <g>
      <g>
	<polygon points="60.4037 73.2297 25.2347 73.2297 25.3221 70.9198 
	 25.4096 68.61 25.3221 66.3926 25.1471 64.1751 24.7972 61.9577 
	 24.4472 59.9251 23.9223 57.8 23.3974 55.7673 22.6975 53.7347 
	 21.9976 51.7944 21.2103 49.8541 20.4229 47.9139 19.5481 45.9736 
	 18.6732 44.0334 17.7984 42.1855 16.8361 40.2453 15.9611 38.3974 
	 15.0863 36.5495 14.2114 34.6092 13.2491 32.669 12.4618 30.8212 
	 11.6744 28.8809 10.887 26.9407 10.1871 25.0003 9.66222 22.9677 
	 9.13732 20.935 8.69988 18.9024 8.34994 16.7773 8.08749 14.6523 
	 8 12.5273 8 10.3098 8.08749 8 43.2566 8 
	 43.0816 10.3098 43.0816 12.5273 43.1691 14.6523 43.4315 16.7773 
	 43.7815 18.9024 44.219 20.935 44.6563 22.9677 45.3562 25.0003 
	 45.9686 26.9407 46.756 28.8809 47.5434 30.8212 48.3307 32.669 
	 49.2056 34.6092 50.0804 36.5495 51.0428 38.3974 51.9176 40.2453 
	 52.88 42.1855 53.7548 44.0334 54.6296 45.9736 55.5045 47.9139 
	 56.2919 49.8541 57.0793 51.7944 57.7791 53.7347 58.479 55.7673 
	 59.0915 57.8 59.5289 59.9251 59.9663 61.9577 60.3162 64.1751 
	 60.4912 66.3926 60.5787 68.61 60.4912 70.9198 60.4037 73.2297 60.4037 73.2297 "
	 style=" stroke:#000000; stroke-width:1; fill:#ffffff; fill-opacity:100%"></polygon>
	<polyline points="28.9616 67.6017 29.609 66.5385 28.9616 65.5719 
	 29.239 65.5719 29.7015 66.3452 30.2563 65.5719 30.5337 65.5719 
	 29.7939 66.5385 30.5337 67.6017 30.2563 67.6017 29.7015 66.7318 
	 29.1465 67.6017 28.9616 67.6017 28.9616 67.6017 28.9616 67.6017"
	 style=" stroke:#ff0016; stroke-width:1;"></polyline>
	<polygon points="37.8245 17.2263 37.7349 15.5336 36.1235 12.3363 
	 36.6606 12.3363 38.0035 15.0634 39.1673 12.3363 39.7045 12.3363 
	 38.2721 15.5336 38.2721 17.2263 37.8245 17.2263 37.8245 17.2263 "
	 style=" stroke:#0000ff; stroke-width:1; fill:#0000ff; fill-opacity:100%"></polygon>
	<polygon points="32.8094 17.2263 32.6299 12.3363 33.7071 12.3363 
	 34.6945 12.5244 35.3228 12.9006 35.6819 13.4648 35.7717 13.935 
	 35.7717 14.4992 35.5024 14.9694 35.1433 15.2515 34.6047 15.4396 
	 35.8615 17.2263 35.2331 17.2263 33.6173 14.9694 34.0662 14.9694 
	 34.4252 14.9694 34.6945 14.9694 34.9638 14.8753 35.1433 14.6873 
	 35.2331 14.4992 35.2331 14.3111 35.3228 13.935 35.2331 13.5588 
	 35.1433 13.2767 34.7843 13.0886 34.4252 12.9006 34.0662 12.9006 
	 33.6173 12.9006 33.348 12.9006 33.0787 12.9006 33.2582 17.2263 
	 32.8094 17.2263 32.8094 17.2263 "
	 style=" stroke:#0000ff; stroke-width:1; fill:#0000ff; fill-opacity:100%"></polygon>
	<polygon points="29.317 17.2263 29.1363 12.3363 31.5758 12.3363 
	 31.6661 12.9006 29.5881 12.9006 29.5881 14.4992 31.6661 14.4992 
	 31.6661 14.9694 29.6784 14.9694 29.6784 16.7561 31.7565 16.7561 
	 31.7565 17.2263 29.317 17.2263 29.317 17.2263 "
	 style=" stroke:#0000ff; stroke-width:1; fill:#0000ff; fill-opacity:100%"></polygon>
	<polygon points="26.2076 17.2263 24.2453 12.3363 24.6912 12.3363 
	 26.386 16.568 27.9024 12.3363 28.4376 12.3363 26.6536 17.2263 
	 26.2076 17.2263 26.2076 17.2263 "
	 style=" stroke:#0000ff; stroke-width:1; fill:#0000ff; fill-opacity:100%"></polygon>
	<polygon points="23.6338 17.2263 23.1348 17.2263 22.9351 12.3363 
	 23.534 12.3363 23.6338 17.2263 23.6338 17.2263 "
	 style=" stroke:#0000ff; stroke-width:1; fill:#0000ff; fill-opacity:100%"></polygon>
	<polygon points="20.5083 16.7561 22.4985 16.7561 22.4985 17.2263 
	 20.1465 17.2263 19.9656 12.3363 20.4179 12.3363 20.5083 16.7561 20.5083 16.7561 "
	 style=" stroke:#0000ff; stroke-width:1; fill:#0000ff; fill-opacity:100%"></polygon>
	<polygon points="16.5651 17.2263 16.3846 12.3363 18.9116 12.3363 
	 18.9116 12.9006 16.8359 12.9006 16.9262 14.4992 18.9116 14.4992 
	 19.0019 14.9694 16.9262 14.9694 17.0164 16.7561 19.0019 16.7561 
	 19.0922 17.2263 16.5651 17.2263 16.5651 17.2263 "
	 style=" stroke:#0000ff; stroke-width:1; fill:#0000ff; fill-opacity:100%"></polygon>
	<polygon points="11.7596 17.2263 11.5809 12.3363 12.8315 12.3363 
	 13.4568 12.4304 13.9927 12.6185 14.4393 12.8065 14.7967 13.0886 
	 15.0646 13.4648 15.3326 13.8409 15.4219 14.3111 15.5112 14.8753 
	 15.5112 15.2515 15.4219 15.6277 15.2433 16.0979 14.9753 16.474 
	 14.4393 16.7561 13.8141 17.0382 12.9208 17.2263 11.7596 17.2263 11.7596 17.2263 "
	 style=" stroke:#0000ff; stroke-width:1; fill:#0000ff; fill-opacity:100%"></polygon>
	<polygon points="12.105 12.8899 12.195 16.7649 12.7349 16.7649 
	 13.1848 16.6704 13.6347 16.6704 14.1746 16.4814 14.5346 16.2924 
	 14.8046 15.9144 14.9846 15.5363 15.0745 14.8747 14.9846 14.3076 
	 14.8046 13.8351 14.5346 13.457 14.1746 13.1735 13.7247 12.9844 
	 13.1848 12.8899 12.7349 12.8899 12.105 12.8899 12.105 12.8899 "
	 style=" stroke:#0000ff; stroke-width:1; fill:#ffffff; fill-opacity:100%"></polygon>
	<polygon points="30.0097 32.2651 30.2426 32.2651 30.3591 32.7264 
	 30.1262 32.7264 30.0097 32.2651 30.0097 32.2651 "
	 style=" stroke:#0000ff; stroke-width:1; fill:#0000ff; fill-opacity:100%"></polygon>
	<polygon points="30.1844 33.28 30.4173 33.28 30.5337 33.7413 
	 30.3008 33.7413 30.1844 33.28 30.1844 33.28 "
	 style=" stroke:#0000ff; stroke-width:1; fill:#0000ff; fill-opacity:100%"></polygon>
	<polygon points="26.177 33.2465 25.9921 31.896 26.177 31.896 
	 26.4544 33.3429 26.5469 33.5358 26.6394 33.7287 26.7319 33.7287 
	 27.0093 33.8252 27.1017 33.7287 27.2867 33.7287 27.3792 33.5358 
	 27.3792 33.3429 27.1017 31.896 27.3792 31.896 27.5642 33.3429 
	 27.5642 33.6323 27.3792 33.8252 27.2867 33.9216 27.0093 34.0181 
	 26.7319 33.9216 26.5469 33.8252 26.362 33.6323 26.177 33.2465 26.177 33.2465 "
	 style=" stroke:#0000ff; stroke-width:1; fill:#0000ff; fill-opacity:100%"></polygon>
	<polygon points="23.4776 33.9258 23.1099 31.896 23.2937 31.896 
	 23.4776 33.0559 24.2131 31.896 24.4889 31.896 23.8454 32.8626 
	 24.8567 33.9258 24.4889 33.9258 23.7534 33.0559 23.5696 33.4426 
	 23.6615 33.9258 23.4776 33.9258 23.4776 33.9258 "
	 style=" stroke:#0000ff; stroke-width:1; fill:#0000ff; fill-opacity:100%"></polygon>
	<polygon points="21.101 32.7659 21.1922 32.5726 21.1922 32.476 
	 21.2833 32.2827 21.3744 32.186 21.5567 31.9927 21.6479 31.896 
	 21.8301 31.896 21.9213 31.896 22.1035 31.896 22.2858 31.896 
	 22.3769 31.9927 22.5592 32.0893 22.7415 32.186 22.8326 32.2827 
	 23.0149 32.476 22.7415 32.476 22.5592 32.2827 22.2858 32.0893 
	 22.1035 32.0893 21.8301 32.0893 21.6479 32.2827 21.4656 32.3793 
	 21.3744 32.6693 21.3744 32.9593 21.4656 33.2493 21.6479 33.5392 
	 21.9213 33.7325 22.1947 33.7325 22.3769 33.7325 22.5592 33.7325 
	 22.7415 33.6359 22.9237 33.4426 23.1972 33.4426 23.106 33.6359 
	 22.9237 33.7325 22.8326 33.9258 22.6503 33.9258 22.4681 33.9258 
	 22.3769 33.9258 22.1947 33.9258 22.0124 33.9258 21.8301 33.9258 
	 21.6479 33.8292 21.5567 33.7325 21.4656 33.5392 21.2833 33.4426 
	 21.1922 33.2493 21.1922 32.9593 21.101 32.7659 21.101 32.7659 "
	 style=" stroke:#0000ff; stroke-width:1; fill:#0000ff; fill-opacity:100%"></polygon>
	<polygon points="21.1883 33.9258 20.8826 33.9258 20.577 31.896 
	 20.7807 31.896 21.1883 33.9258 21.1883 33.9258 "
	 style=" stroke:#0000ff; stroke-width:1; fill:#0000ff; fill-opacity:100%"></polygon>
	<polygon points="19.4649 33.9258 19.0922 31.896 19.6512 31.896 
	 19.7444 31.896 19.9307 31.896 20.2102 32.0893 20.3033 32.2827 
	 20.4897 32.476 20.4897 32.6693 20.4897 32.8626 20.4897 32.9593 
	 20.2102 33.0559 20.0239 33.1526 19.7444 33.1526 19.4649 33.1526 
	 19.6512 33.9258 19.4649 33.9258 19.4649 33.9258 "
	 style=" stroke:#0000ff; stroke-width:1; fill:#0000ff; fill-opacity:100%"></polygon>
	<polygon points="27.9369 33.9258 27.5642 31.896 28.1232 31.896 
	 28.2163 31.896 28.4027 31.896 28.4958 31.9927 28.589 32.0893 
	 28.7753 32.2827 28.9616 32.476 28.9616 32.6693 28.9616 32.8626 
	 28.8685 32.9593 28.6822 33.0559 28.4958 33.1526 28.2163 33.1526 
	 27.9369 33.1526 28.1232 33.9258 27.9369 33.9258 27.9369 33.9258 "
	 style=" stroke:#0000ff; stroke-width:1; fill:#0000ff; fill-opacity:100%"></polygon>
	<polygon points="19.2669 32.0806 19.4575 33.0032 19.648 33.0032 
	 19.8386 33.0032 19.9339 33.0032 20.1244 32.9007 20.315 32.7981 
	 20.315 32.4906 20.2197 32.3881 20.0291 32.1831 19.9339 32.0806 
	 19.7433 32.0806 19.648 32.0806 19.4575 32.0806 19.2669 32.0806 19.2669 32.0806 "
	 style=" stroke:#0000ff; stroke-width:1; fill:#ffffff; fill-opacity:100%"></polygon>
	<polygon points="27.8262 32.0806 27.9223 33.0032 28.1144 33.0032 
	 28.3066 33.0032 28.4027 33.0032 28.5948 32.9007 28.6909 32.7981 
	 28.787 32.4906 28.6909 32.3881 28.4987 32.1831 28.4027 32.0806 
	 28.2105 32.0806 28.1144 32.0806 27.9223 32.0806 27.8262 32.0806 27.8262 32.0806 "
	 style=" stroke:#0000ff; stroke-width:1; fill:#ffffff; fill-opacity:100%"></polygon>
	<polygon points="35.3169 44.3515 35.1319 43.5798 34.1147 42.2295 
	 34.3921 42.2295 35.2244 43.3869 35.4094 42.2295 35.6868 42.2295 
	 35.3169 43.5798 35.5943 44.3515 35.3169 44.3515 35.3169 44.3515 "
	 style=" stroke:#0000ff; stroke-width:1; fill:#0000ff; fill-opacity:100%"></polygon>
	<polygon points="33.1789 44.3515 32.6299 42.2295 33.1789 42.2295 
	 33.5449 42.3259 33.8194 42.5188 34.0939 42.7117 34.1854 42.9047 
	 34.1854 43.194 34.1854 43.2905 34.0024 43.4834 33.8194 43.4834 
	 34.5514 44.3515 34.2769 44.3515 33.3619 43.3869 33.5449 43.3869 
	 33.7279 43.2905 33.8194 43.2905 33.9109 43.2905 34.0024 43.0011 
	 34.0024 42.9047 33.9109 42.7117 33.8194 42.6153 33.6364 42.5188 
	 33.4534 42.5188 33.3619 42.4224 33.1789 42.4224 32.9959 42.4224 
	 32.9044 42.5188 33.3619 44.3515 33.1789 44.3515 33.1789 44.3515 "
	 style=" stroke:#0000ff; stroke-width:1; fill:#0000ff; fill-opacity:100%"></polygon>
	<polygon points="31.7905 44.3515 31.1451 42.2295 32.2514 42.2295 
	 32.3436 42.4224 31.4217 42.4224 31.6061 43.194 32.528 43.194 
	 32.528 43.3869 31.6983 43.3869 31.8827 44.0622 32.8046 44.0622 
	 32.8046 44.3515 31.7905 44.3515 31.7905 44.3515 "
	 style=" stroke:#0000ff; stroke-width:1; fill:#0000ff; fill-opacity:100%"></polygon>
	<polygon points="30.5119 44.3515 29.1363 42.2295 29.3197 42.2295 
	 30.5119 44.0622 30.787 42.2295 30.9704 42.2295 30.6953 44.3515 
	 30.5119 44.3515 30.5119 44.3515 "
	 style=" stroke:#0000ff; stroke-width:1; fill:#0000ff; fill-opacity:100%"></polygon>
	<polygon points="29.3983 44.3515 29.2018 44.3515 28.6122 42.2295 
	 28.8088 42.2295 29.3983 44.3515 29.3983 44.3515 "
	 style=" stroke:#0000ff; stroke-width:1; fill:#0000ff; fill-opacity:100%"></polygon>
	<polygon points="28.0397 44.0622 28.8695 44.0622 28.9616 44.3515 
	 27.9475 44.3515 27.3022 42.2295 27.5788 42.2295 28.0397 44.0622 28.0397 44.0622 "
	 style=" stroke:#0000ff; stroke-width:1; fill:#0000ff; fill-opacity:100%"></polygon>
	<polygon points="26.3705 44.3515 25.8174 42.2295 26.9237 42.2295 
	 27.0158 42.4224 26.094 42.4224 26.2783 43.194 27.2002 43.194 
	 27.2002 43.3869 26.3705 43.3869 26.5549 44.0622 27.4769 44.0622 
	 27.4769 44.3515 26.3705 44.3515 26.3705 44.3515 "
	 style=" stroke:#0000ff; stroke-width:1; fill:#0000ff; fill-opacity:100%"></polygon>
	<polygon points="24.4449 44.3515 23.8959 42.2295 24.3534 42.2295 
	 24.6279 42.3259 24.9024 42.3259 25.0854 42.4224 25.3599 42.5188 
	 25.4514 42.7117 25.6344 42.9047 25.7259 43.0976 25.8174 43.2905 
	 25.8174 43.4834 25.8174 43.6763 25.8174 43.8692 25.7259 43.9656 
	 25.5429 44.1586 25.2684 44.2551 24.9024 44.3515 24.4449 44.3515 24.4449 44.3515 "
	 style=" stroke:#0000ff; stroke-width:1; fill:#0000ff; fill-opacity:100%"></polygon>
	<polygon points="24.1579 42.414 24.5291 44.0747 24.8075 44.0747 
	 24.9931 44.0747 25.1787 44.0747 25.3643 43.977 25.5499 43.977 
	 25.6427 43.7816 25.6427 43.5862 25.6427 43.2932 25.5499 43.0001 
	 25.3643 42.8047 25.1787 42.7071 24.9931 42.6094 24.8075 42.5117 
	 24.5291 42.5117 24.3435 42.414 24.1579 42.414 24.1579 42.414 "
	 style=" stroke:#0000ff; stroke-width:1; fill:#ffffff; fill-opacity:100%"></polygon>
	<polygon points="36.7349 42.5985 36.9678 42.5985 37.0842 42.9676 
	 36.8513 42.9676 36.7349 42.5985 36.7349 42.5985 "
	 style=" stroke:#0000ff; stroke-width:1; fill:#0000ff; fill-opacity:100%"></polygon>
	<polygon points="36.9969 43.6134 37.2298 43.6134 37.3462 43.9824 
	 37.1133 43.9824 36.9969 43.6134 36.9969 43.6134 "
	 style=" stroke:#0000ff; stroke-width:1; fill:#0000ff; fill-opacity:100%"></polygon>
	<polygon points="41.8006 55.8843 42.0334 55.8843 42.1499 56.3457 
	 41.917 56.3457 41.8006 55.8843 41.8006 55.8843 "
	 style=" stroke:#0000ff; stroke-width:1; fill:#0000ff; fill-opacity:100%"></polygon>
	<polygon points="42.0626 56.8992 42.2956 56.8992 42.412 57.3605 
	 42.1791 57.3605 42.0626 56.8992 42.0626 56.8992 "
	 style=" stroke:#0000ff; stroke-width:1; fill:#0000ff; fill-opacity:100%"></polygon>
	<polygon points="40.1641 57.7296 39.7044 55.6998 40.2561 55.6998 
	 40.4399 55.6998 40.6238 55.7965 40.8077 55.7965 40.8996 55.8931 
	 40.9915 55.9898 41.1754 56.2797 41.1754 56.3764 41.2673 56.5697 
	 41.1754 56.763 40.9915 56.9563 40.8077 56.9563 41.4512 57.7296 
	 41.2673 57.7296 40.348 56.763 40.5319 56.763 40.7157 56.763 
	 40.8077 56.763 40.8996 56.6664 40.9915 56.473 40.9915 56.3764 
	 40.8996 56.1831 40.8077 56.0864 40.6238 55.8931 40.5319 55.8931 
	 40.348 55.8931 40.1641 55.8931 40.0722 55.8931 40.348 57.7296 
	 40.1641 57.7296 40.1641 57.7296 "
	 style=" stroke:#0000ff; stroke-width:1; fill:#0000ff; fill-opacity:100%"></polygon>
	<polygon points="38.8583 57.7296 38.3943 55.6998 39.5079 55.6998 
	 39.5079 55.8931 38.6727 55.8931 38.7655 56.5697 39.6935 56.5697 
	 39.6935 56.763 38.8583 56.763 38.9511 57.5363 39.8791 57.5363 
	 39.8791 57.7296 38.8583 57.7296 38.8583 57.7296 "
	 style=" stroke:#0000ff; stroke-width:1; fill:#0000ff; fill-opacity:100%"></polygon>
	<polygon points="36.5764 57.7296 36.1235 55.6998 36.4858 55.6998 
	 37.4821 57.4396 37.8445 55.6998 38.1162 55.6998 38.569 57.7296 
	 38.3879 57.7296 38.0256 55.8931 37.6632 57.7296 37.4821 57.7296 
	 36.3952 55.8931 36.7575 57.7296 36.5764 57.7296 36.5764 57.7296 "
	 style=" stroke:#0000ff; stroke-width:1; fill:#0000ff; fill-opacity:100%"></polygon>
	<polygon points="34.1147 56.1821 34.2058 55.9892 34.3881 55.7963 
	 34.5704 55.6998 34.7526 55.6998 35.026 55.6998 35.2083 55.6998 
	 35.4817 55.7963 35.7552 55.9892 35.8463 56.0856 35.9375 56.2785 
	 36.0286 56.4714 36.1197 56.5679 36.2109 56.7608 36.2109 56.9537 
	 36.2109 57.0502 36.1197 57.4361 35.9375 57.629 35.7552 57.7254 
	 35.4817 57.8219 35.2083 57.8219 35.026 57.7254 34.7526 57.629 
	 34.4792 57.3396 34.3881 57.2431 34.1147 56.9537 34.1147 56.7608 
	 34.1147 56.5679 34.1147 56.375 34.1147 56.1821 34.1147 56.1821 "
	 style=" stroke:#0000ff; stroke-width:1; fill:#0000ff; fill-opacity:100%"></polygon>
	<polygon points="33.6634 57.7296 33.1903 55.8931 32.8118 55.8931 
	 32.7172 55.6998 33.8526 55.6998 33.8526 55.8931 33.3795 55.8931 
	 33.8526 57.7296 33.6634 57.7296 33.6634 57.7296 "
	 style=" stroke:#0000ff; stroke-width:1; fill:#0000ff; fill-opacity:100%"></polygon>
	<polygon points="32.1308 57.1466 32.2244 57.3396 32.4116 57.5325 
	 32.5051 57.5325 32.6923 57.5325 32.8795 57.3396 32.8795 57.1466 
	 32.7859 56.9537 32.5987 56.8573 32.4116 56.7608 32.2244 56.6644 
	 32.0373 56.6644 31.8501 56.4714 31.7565 56.375 31.7565 56.0856 
	 31.7565 55.8927 31.9437 55.6998 32.0373 55.6998 32.2244 55.6998 
	 32.318 55.6998 32.5987 55.7963 32.6923 55.8927 32.7859 56.1821 
	 32.5987 56.1821 32.4116 55.8927 32.1308 55.8927 31.9437 55.9892 
	 31.9437 56.1821 32.0373 56.375 32.2244 56.4714 32.4116 56.5679 
	 32.5987 56.5679 32.6923 56.6644 32.8795 56.8573 33.0666 57.0502 
	 33.0666 57.2431 33.0666 57.4361 32.973 57.629 32.6923 57.8219 
	 32.4116 57.7254 32.1308 57.629 31.9437 57.3396 31.8501 57.1466 
	 32.1308 57.1466 32.1308 57.1466 "
	 style=" stroke:#0000ff; stroke-width:1; fill:#0000ff; fill-opacity:100%"></polygon>
	<polygon points="30.3745 57.0502 30.097 55.6998 30.282 55.6998 
	 30.5594 57.0502 30.7444 57.3396 30.8368 57.4361 30.9293 57.5325 
	 31.2067 57.629 31.2992 57.5325 31.4841 57.4361 31.5767 57.3396 
	 31.5767 57.0502 31.2067 55.6998 31.3917 55.6998 31.6692 57.0502 
	 31.6692 57.3396 31.6692 57.629 31.4841 57.7254 31.2067 57.8219 
	 30.9293 57.7254 30.7444 57.629 30.5594 57.4361 30.3745 57.0502 30.3745 57.0502 "
	 style=" stroke:#0000ff; stroke-width:1; fill:#0000ff; fill-opacity:100%"></polygon>
	<polygon points="28.0882 56.5697 28.1794 56.1831 28.2705 55.8931 
	 28.4528 55.7965 28.8173 55.6998 29.0907 55.6998 29.3641 55.7965 
	 29.6376 55.8931 29.911 56.1831 29.7287 56.1831 29.5464 55.9898 
	 29.273 55.8931 28.9996 55.8931 28.8173 55.8931 28.5439 55.9898 
	 28.4528 56.1831 28.3616 56.3764 28.3616 56.6664 28.5439 57.053 
	 28.7262 57.343 28.9084 57.4396 29.1818 57.5363 29.4553 57.5363 
	 29.6376 57.5363 29.8198 57.343 29.911 57.2463 30.1844 57.2463 
	 30.0021 57.5363 29.7287 57.7296 29.4553 57.7296 29.0907 57.7296 
	 28.7262 57.633 28.4528 57.343 28.2705 56.9563 28.0882 56.5697 28.0882 56.5697 "
	 style=" stroke:#0000ff; stroke-width:1; fill:#0000ff; fill-opacity:100%"></polygon>
	<polygon points="34.3816 56.0797 34.2894 56.4705 34.3816 56.8612 
	 34.4737 57.0566 34.7503 57.3497 35.0269 57.5451 35.3034 57.5451 
	 35.6722 57.5451 35.9488 57.2519 35.9488 56.9589 35.9488 56.6658 
	 35.7644 56.3728 35.4878 56.0797 35.2113 55.8843 34.9347 55.8843 
	 34.5659 55.8843 34.3816 56.0797 34.3816 56.0797 "
	 style=" stroke:#0000ff; stroke-width:1; fill:#ffffff; fill-opacity:100%"></polygon>
	<polygon points="40.5778 11.4137 10.7949 11.4137 10.7949 10.8601 
	 40.5778 10.8601 40.5778 11.4137 40.5778 11.4137 "
	 style=" stroke:#ff0016; stroke-width:1; fill:#ff0016; fill-opacity:100%"></polygon>
	<polygon points="41.0145 18.6102 11.2316 18.6102 11.2316 18.0567 
	 41.0145 18.0567 41.0145 18.6102 41.0145 18.6102 "
	 style=" stroke:#ff0016; stroke-width:1; fill:#ff0016; fill-opacity:100%"></polygon>
	<polygon points="36.6039 20.9168 36.8823 20.9168 37.1607 22.4572 
	 37.3463 22.4572 37.3463 22.746 37.2535 22.746 37.2535 23.1311 
	 37.0679 23.1311 36.9751 22.746 35.8615 22.746 35.8615 22.4572 
	 36.6039 20.9168 36.6039 20.9168 "
	 style=" stroke:#ff0016; stroke-width:1; fill:#ff0016; fill-opacity:100%"></polygon>
	<polygon points="34.7635 23.1311 35.325 21.1093 34.2956 21.1093 
	 34.202 20.9168 35.4185 20.9168 35.5121 21.1093 35.0442 23.1311 
	 34.7635 23.1311 34.7635 23.1311 "
	 style=" stroke:#ff0016; stroke-width:1; fill:#ff0016; fill-opacity:100%"></polygon>
	<polygon points="41.2204 23.1311 41.7819 21.1093 40.7525 21.1093 
	 40.7525 20.9168 41.969 20.9168 42.0626 21.1093 41.5011 23.1311 
	 41.2204 23.1311 41.2204 23.1311 "
	 style=" stroke:#ff0016; stroke-width:1; fill:#ff0016; fill-opacity:100%"></polygon>
	<polygon points="32.7172 21.4972 32.7172 21.2089 32.9016 21.0167 
	 33.086 20.9206 33.2704 20.8245 33.5469 20.9206 33.7314 21.0167 
	 33.9157 21.2089 34.1923 21.4972 34.3767 22.4584 34.2845 22.8428 
	 34.1923 23.035 33.9157 23.1311 33.7314 23.1311 33.4547 23.1311 
	 33.1782 23.035 32.9938 22.8428 32.9016 22.5545 32.7172 21.4972 32.7172 21.4972 "
	 style=" stroke:#ff0016; stroke-width:1; fill:#ff0016; fill-opacity:100%"></polygon>
	<polygon points="37.4336 21.4972 37.4336 21.2089 37.5264 21.0167 
	 37.712 20.9206 37.8976 20.8245 38.176 20.9206 38.3616 21.0167 
	 38.64 21.2089 38.8256 21.4972 38.9184 22.4584 38.9184 22.8428 
	 38.8256 23.035 38.5472 23.1311 38.3616 23.1311 38.0832 23.1311 
	 37.8048 23.035 37.6192 22.8428 37.5264 22.5545 37.4336 21.4972 37.4336 21.4972 "
	 style=" stroke:#ff0016; stroke-width:1; fill:#ff0016; fill-opacity:100%"></polygon>
	<polygon points="39.093 21.4972 39.093 21.2089 39.278 21.0167 
	 39.4629 20.9206 39.6479 20.8245 39.9253 20.9206 40.1103 21.0167 
	 40.3877 21.2089 40.5727 21.4972 40.6652 22.4584 40.6652 22.8428 
	 40.5727 23.035 40.2953 23.1311 40.1103 23.1311 39.8328 23.1311 
	 39.5554 23.035 39.3705 22.8428 39.278 22.5545 39.093 21.4972 39.093 21.4972 "
	 style=" stroke:#ff0016; stroke-width:1; fill:#ff0016; fill-opacity:100%"></polygon>
	<polygon points="31.885 20.9168 32.1624 20.9168 32.4398 22.4572 
	 32.6247 22.4572 32.7172 22.746 32.5323 22.746 32.6247 23.1311 
	 32.3473 23.1311 32.2548 22.746 31.1451 22.746 31.1451 22.4572 
	 31.885 20.9168 31.885 20.9168 "
	 style=" stroke:#ff0016; stroke-width:1; fill:#ff0016; fill-opacity:100%"></polygon>
	<polygon points="30.2241 21.1093 29.843 21.1093 29.7477 20.9168 
	 30.4147 20.9168 30.7958 23.1311 30.6052 23.1311 30.2241 21.1093 30.2241 21.1093 "
	 style=" stroke:#ff0016; stroke-width:1; fill:#ff0016; fill-opacity:100%"></polygon>
	<polygon points="28.3824 21.6869 28.4743 20.9168 28.6582 20.9168 
	 28.4743 21.6869 28.8421 21.6869 29.0259 20.9168 29.1179 20.9168 
	 29.0259 21.6869 29.4857 21.6869 29.4857 21.8796 29.0259 21.8796 
	 28.934 22.1684 29.3937 22.1684 29.3937 22.3609 28.8421 22.3609 
	 28.7501 23.1311 28.5663 23.1311 28.7501 22.3609 28.3824 22.3609 
	 28.2905 23.1311 28.1066 23.1311 28.1985 22.3609 27.7389 22.3609 
	 27.7389 22.1684 28.2905 22.1684 28.3824 21.8796 27.8308 21.8796 
	 27.8308 21.6869 28.3824 21.6869 28.3824 21.6869 "
	 style=" stroke:#ff0016; stroke-width:1; fill:#ff0016; fill-opacity:100%"></polygon>
	<polygon points="36.7058 21.1936 36.1235 22.4852 36.9969 22.4852 
	 36.7058 21.1936 36.7058 21.1936 "
	 style=" stroke:#ff0016; stroke-width:1; fill:#ffffff; fill-opacity:100%"></polygon>
	<polygon points="32.9792 21.5869 33.0739 22.461 33.1685 22.6552 
	 33.2631 22.8494 33.4523 22.9466 33.6416 22.9466 33.8308 22.9466 
	 34.02 22.9466 34.1147 22.7523 34.1147 22.461 33.9254 21.5869 
	 33.8308 21.3926 33.7362 21.1984 33.5469 21.1013 33.3577 21.1013 
	 33.1685 21.1013 33.0739 21.1984 32.9792 21.3926 32.9792 21.5869 32.9792 21.5869 "
	 style=" stroke:#ff0016; stroke-width:1; fill:#ffffff; fill-opacity:100%"></polygon>
	<polygon points="37.6082 21.5869 37.7029 22.461 37.7975 22.6552 
	 37.8922 22.8494 38.0814 22.9466 38.2706 22.9466 38.5544 22.9466 
	 38.6491 22.9466 38.7437 22.7523 38.7437 22.461 38.6491 21.5869 
	 38.5544 21.3926 38.3652 21.1984 38.176 21.1013 37.9868 21.1013 
	 37.7975 21.1013 37.7029 21.1984 37.6082 21.3926 37.6082 21.5869 37.6082 21.5869 "
	 style=" stroke:#ff0016; stroke-width:1; fill:#ffffff; fill-opacity:100%"></polygon>
	<polygon points="39.3618 21.5869 39.4558 22.461 39.5499 22.6552 
	 39.6439 22.8494 39.832 22.9466 40.0202 22.9466 40.2083 22.9466 
	 40.3964 22.9466 40.4905 22.7523 40.4905 22.461 40.3964 21.5869 
	 40.3024 21.3926 40.1143 21.1984 39.9261 21.1013 39.738 21.1013 
	 39.5499 21.1013 39.4558 21.1984 39.2677 21.3926 39.3618 21.5869 39.3618 21.5869 "
	 style=" stroke:#ff0016; stroke-width:1; fill:#ffffff; fill-opacity:100%"></polygon>
	<polygon points="31.9894 21.1936 31.4071 22.4852 32.2805 22.4852 
	 31.9894 21.1936 31.9894 21.1936 "
	 style=" stroke:#ff0016; stroke-width:1; fill:#ffffff; fill-opacity:100%"></polygon>
	<polygon points="28.4376 21.8394 28.4376 22.2085 28.7651 22.2085 
	 28.8743 21.8394 28.4376 21.8394 28.4376 21.8394 "
	 style=" stroke:#ff0016; stroke-width:1; fill:#ff0016; fill-opacity:100%"></polygon>
	<polygon points="28.9616 67.6017 29.609 66.5385 28.9616 65.5719 
	 29.239 65.5719 29.7015 66.3452 30.2563 65.5719 30.5337 65.5719 
	 29.7939 66.5385 30.5337 67.6017 30.2563 67.6017 29.7015 66.7318 
	 29.1465 67.6017 28.9616 67.6017 28.9616 67.6017 "
	 style="stroke:none; fill:#ff0016; fill-opacity:100%"></polygon>
	<polyline points="42.8486 24.7918 13.0657 24.7918"
	 style=" stroke:#000000; stroke-width:1;"></polyline>
	<polyline points="43.722 26.7294 13.9391 26.7294"
	 style=" stroke:#000000; stroke-width:1;"></polyline>
	<polyline points="44.5955 28.5746 14.8999 28.5746"
	 style=" stroke:#000000; stroke-width:1;"></polyline>
	<polyline points="36.9096 30.5121 16.1226 30.5121"
	 style=" stroke:#000000; stroke-width:1;"></polyline>
	<polyline points="47.4777 35.3098 17.7821 35.3098"
	 style=" stroke:#000000; stroke-width:1;"></polyline>
	<polyline points="48.2637 37.155 18.5681 37.155"
	 style=" stroke:#000000; stroke-width:1;"></polyline>
	<polyline points="49.0498 39.0925 19.2669 39.0925"
	 style=" stroke:#000000; stroke-width:1;"></polyline>
	<polyline points="49.9232 41.03 20.1403 41.03"
	 style=" stroke:#000000; stroke-width:1;"></polyline>
	<polyline points="52.7181 46.289 22.9351 46.289"
	 style=" stroke:#000000; stroke-width:1;"></polyline>
	<polyline points="53.5042 48.2265 23.8086 48.2265"
	 style=" stroke:#000000; stroke-width:1;"></polyline>
	<polyline points="54.4649 50.164 24.6819 50.164"
	 style=" stroke:#000000; stroke-width:1;"></polyline>
	<polyline points="55.3383 52.1016 25.5554 52.1016"
	 style=" stroke:#000000; stroke-width:1;"></polyline>
	<polyline points="56.1243 54.0391 26.3414 54.0391"
	 style=" stroke:#000000; stroke-width:1;"></polyline>
	<polyline points="57.7838 59.8517 28.0009 59.8517"
	 style=" stroke:#000000; stroke-width:1;"></polyline>
	<polyline points="58.3952 61.6969 28.6122 61.6969"
	 style=" stroke:#000000; stroke-width:1;"></polyline>
	<polyline points="58.3952 68.063 28.6122 68.063"
	 style=" stroke:#000000; stroke-width:1;"></polyline>
      </g>
      <polygon points="80 87.3083 79.3847 86.2253 78.1537 84.4924 
       77.3332 83.1928 76.1024 81.8932 75.0768 80.5935 74.0511 78.8607 
       73.4356 77.3444 72.8203 75.6115 71.7946 73.6621 70.5639 71.7126 
       69.9484 70.413 69.1279 69.33 68.5124 68.4636 67.6919 67.1638 
       66.6663 65.2144 65.6406 63.2649 64.8201 61.532 63.5893 60.2324 
       61.7431 59.3662 60.7174 59.1494 59.4865 58.7162 58.0506 58.0664 
       57.025 57.2 55.7941 56.3335 54.7684 55.6837 53.7429 54.8173 
       52.1017 53.5176 50.8709 52.218 49.6401 51.135 47.5888 50.2685 
       46.1528 49.6187 44.7169 48.969 43.486 48.1025 42.4604 47.2361 
       40.4091 45.2866 38.5628 43.987 36.7167 43.1206 35.2807 42.6873 
       34.0499 42.904 32.614 44.8535 32.4088 46.5863 32.614 48.319 
       33.2293 50.2685 33.8447 51.3516 34.6652 52.4347 35.691 53.7343 
       36.9218 55.034 38.1526 55.9004 39.1783 57.6333 39.1783 59.1494 
       38.1526 61.9653 37.1268 63.0483 35.691 63.6981 34.255 63.9148 
       32.614 63.9148 30.9729 63.6981 29.3318 63.4816 27.8959 63.4816 
       25.8445 62.6152 24.4086 61.9653 23.1778 62.6152 22.5623 64.5646 
       22.5623 66.081 22.5623 67.1638 22.3573 68.8967 22.7675 69.9797 
       24.8188 71.9292 26.0496 72.7957 27.2804 73.6621 28.3061 74.3119 
       29.9472 75.1784 29.742 76.2614 28.9215 77.9943 28.7164 79.2938 
       28.7164 80.5935 31.1781 81.2433 30.3575 82.9762 29.9472 84.2758 
       29.537 86.0086 30.7677 86.8751 32.4088 87.3083 34.8704 89.0412 
       35.4858 91.4238 36.1011 92.5069 37.7423 93.5899 38.5628 94.6729 
       40.2039 95.1063 41.6399 95.3227 42.8707 95.5394 44.1015 95.5394 
       45.3323 95.756 46.5632 95.9726 47.999 96.1891 49.2298 95.9726 
       50.6657 96.1891 52.3068 98.1386 52.9224 99.4383 53.5377 100.738 
       54.153 102.038 54.9736 103.77 56.4096 105.72 57.6403 107.669 
       58.8711 109.619 60.1019 111.568 80 87.3083 80 87.3083 "
       style=" stroke:#000000; stroke-width:1; fill:#ffc283; fill-opacity:100%"></polygon>
      <polygon points="36.9478 54.9953 37.5697 55.6574 38.3989 56.0988 
       39.228 56.7611 39.8499 57.2025 40.679 57.644 41.3008 57.8646 
       41.9227 58.3061 42.3373 58.9683 42.9591 59.4098 43.7883 59.6304 
       44.4101 60.2926 45.2393 60.7341 45.6539 61.3963 45.8612 61.8378 
       46.0684 62.7207 45.6539 63.3829 44.8248 64.045 44.203 64.4865 
       43.1665 64.7072 42.3373 64.9279 41.3008 64.9279 40.0572 64.9279 
       39.0207 64.9279 37.7769 64.7072 36.7406 64.4865 35.4968 64.2658 
       34.4605 64.045 34.0458 64.045 32.3875 63.6036 31.5584 63.3829 
       31.3511 63.3829 31.973 63.3829 32.5949 62.9413 33.0094 63.1621 
       33.6313 62.9413 34.2532 62.9413 34.875 62.7207 35.4968 62.7207 
       36.1186 62.2792 36.7406 62.0584 37.3624 61.8378 37.9843 60.7341 
       38.3989 60.2926 38.3989 59.4098 38.3989 58.7475 38.1916 58.0854 
       37.9843 57.4232 37.7769 56.7611 37.3624 55.8782 37.1551 55.2159 
       36.9478 54.9953 36.9478 54.9953 "
       style=" stroke:#000000; stroke-width:1; fill:#000000; fill-opacity:100%"></polygon>
      <polygon points="35.0924 42.9033 34.6711 43.1279 34.0394 43.3523 
       33.4076 43.8016 33.197 44.4752 32.9863 44.9244 33.197 45.8227 
       33.6182 46.4964 34.25 47.1701 35.0924 47.8437 35.9348 48.2929 
       36.7772 48.5174 37.8301 48.5174 38.2514 48.5174 39.0938 48.0683 
       39.7255 47.6193 39.9362 46.9454 39.7255 46.2718 39.3044 45.5981 
       39.0938 45.1489 38.462 44.6998 37.8301 44.0262 37.1983 43.5769 
       36.7772 43.3523 36.1453 43.1279 35.5135 42.9033 35.0924 42.9033 35.0924 42.9033 "
       style=" stroke:#000000; stroke-width:1; fill:#ffffff; fill-opacity:100%"></polygon>
      <polyline points="37.8921 52.1882 38.3265 52.4581 38.5436 52.7279 
       38.7608 52.7279 38.9781 52.7279 39.1953 52.9978 39.6296 52.9978 
       39.8468 53.2678 40.064 53.2678 40.2811 53.2678 40.7155 53.2678 
       40.9327 53.2678 41.1498 52.9978 41.367 52.9978"
       style=" stroke:#000000; stroke-width:1;"></polyline>
      <polyline points="39.9363 53.4838 40.5878 53.4838 41.2393 53.4838 
       41.6737 53.2138 42.3252 53.2138 42.9767 52.6739 43.4112 52.4041"
       style=" stroke:#000000; stroke-width:1;"></polyline>
      <polygon points="32.8904 73.5945 30.6147 73.1589 28.1323 72.5056 
       25.8567 71.4167 23.7881 70.1102 24.2018 72.0702 25.2362 73.3767 
       26.2705 74.2478 26.8911 74.9011 27.098 75.3367 27.098 76.4255 
       27.098 77.7322 27.3048 79.2566 27.5117 80.5633 27.7186 81.8699 
       28.753 83.1766 28.753 85.3543 29.5805 87.0965 31.2354 88.4031 
       33.0972 89.0564 33.3041 90.5808 34.1316 91.8873 35.166 92.9763 
       36.2002 94.0652 37.0277 94.5007 37.6485 94.9363 38.269 95.3718 
       39.0964 95.3718 39.9239 95.5896 40.9583 95.5896 40.3376 95.1541 
       39.7171 94.283 39.3034 93.4119 39.3034 92.7585 38.0621 91.452 
       37.4415 90.363 37.0277 89.7097 36.614 88.6209 36.8209 87.9675 
       37.0277 87.3143 37.6485 86.4431 36.614 86.0075 35.5796 84.7009 
       34.7521 82.741 33.9247 80.781 33.3041 78.3855 32.8904 76.4255 
       32.6835 74.6833 32.8904 73.5945 32.8904 73.5945 "
       style=" stroke:#000000; stroke-width:1; fill:#000000; fill-opacity:100%"></polygon>
      <polygon points="41.1626 95.3844 42.4001 95.3844 43.4312 95.3844 
       44.4623 95.6031 45.2873 95.8217 46.3185 96.2589 47.1434 96.4776 
       48.1745 96.2589 49.4119 96.0403 50.2368 96.2589 51.0618 96.9148 
       51.8867 98.2266 52.7116 99.7569 53.5365 101.287 54.3615 102.818 
       54.9801 104.129 55.5987 105.223 56.2176 105.878 56.8362 106.753 
       57.455 107.627 58.0736 108.502 58.6922 109.376 59.1047 110.251 
       59.7235 111.125 60.136 112 60.7546 111.563 61.7858 110.469 
       62.6107 109.376 63.6418 108.283 64.2606 107.846 63.0231 106.972 
       62.1982 106.097 61.3732 105.004 60.7546 104.129 59.9297 102.818 
       59.5171 101.725 59.1047 100.631 58.4861 99.5383 57.6612 98.8824 
       56.8362 98.4451 55.8051 98.0079 54.9801 97.5706 54.3615 97.1334 
       53.949 96.4776 53.949 95.6031 54.3615 95.3844 54.9801 95.3844 
       55.5987 95.3844 56.2176 95.1658 56.8362 95.3844 57.455 95.3844 
       57.8675 95.3844 56.0113 94.7286 53.949 94.5099 51.8867 94.5099 
       49.6182 94.5099 47.3495 94.7286 45.2873 95.1658 43.0188 95.3844 
       41.1626 95.3844 41.1626 95.3844 "
       style=" stroke:#000000; stroke-width:1; fill:#000000; fill-opacity:100%"></polygon>
    </g>
    <polyline points="80 0 0 0 0 128 
     80 128"
     style=" stroke:#000000; stroke-width:1;"></polyline>
  </symbol>
 </defs>
</svg>
