<?xml version="1.0"?>
<?metis version="3.0"?>
<?metisxml version="1.0"?>
<!DOCTYPE svg  PUBLIC "-//W3C//DTD SVG August 1999//EN"
 "http://www.w3.org/Graphics/SVG/svg-19990812.dtd">

<svg width="200" height="200">
 <title>Symbol library: gpm_change.svg</title>
 <defs>
  <symbol id="oid1" xml:space="preserve" class="METIS_SYMBOL">
   <title>Change</title>
    <polygon points="64 96 320 96 320 0 
     64 0 64 96 "
     style=" stroke:#000000; stroke-width:1; fill:#ffff6e; fill-opacity:100%" class="TAG:polygon"></polygon>
    <polygon points="24 16 16 21.3333 12 32 
     12 48 16 58.6667 24 64 24 96 
     36 96 36 64 44 58.6667 48 48 
     48 32 44 21.3333 36 16 24 16 "
     style=" stroke:#000000; stroke-width:1; fill:#ffff6e; fill-opacity:100%" class="TAG:polygon"></polygon>
    <polyline points="24 69.3333 24 69.3333 36 74.6667"
     style=" stroke:#000000; stroke-width:1;" class="TAG:polyline"></polyline>
    <polyline points="24 74.6667 24 74.6667 36 80"
     style=" stroke:#000000; stroke-width:1;" class="TAG:polyline"></polyline>
    <polyline points="24 80 24 80 36 85.3333"
     style=" stroke:#000000; stroke-width:1;" class="TAG:polyline"></polyline>
    <polyline points="24 85.3333 24 85.3333 36 90.6666"
     style=" stroke:#000000; stroke-width:1;" class="TAG:polyline"></polyline>
    <polyline points="24 90.6667 24 90.6667 36 96"
     style=" stroke:#000000; stroke-width:1;" class="TAG:polyline"></polyline>
    <polyline points="24 10.6667 24 0"
     style=" stroke:#000000; stroke-width:1;" class="TAG:polyline"></polyline>
    <polyline points="36 10.6667 36 0"
     style=" stroke:#000000; stroke-width:1;" class="TAG:polyline"></polyline>
    <polyline points="44 16 48 5.3333"
     style=" stroke:#000000; stroke-width:1;" class="TAG:polyline"></polyline>
    <polyline points="52 26.6667 60 21.3333"
     style=" stroke:#000000; stroke-width:1;" class="TAG:polyline"></polyline>
    <polyline points="60 42.6667 52 42.6667"
     style=" stroke:#000000; stroke-width:1;" class="TAG:polyline"></polyline>
    <polyline points="0 42.6667 8 42.6667"
     style=" stroke:#000000; stroke-width:1;" class="TAG:polyline"></polyline>
    <polyline points="8 26.6667 0 21.3333"
     style=" stroke:#000000; stroke-width:1;" class="TAG:polyline"></polyline>
    <polyline points="16 16 12 5.3333"
     style=" stroke:#000000; stroke-width:1;" class="TAG:polyline"></polyline>
    <g>
      <desc>METIS_TEXT_GROUP</desc>
      <text  x="72" y="23.8"
       style=" stroke:#000000; stroke-width:1; font-family:sans-serif; font-size:16;" class="TAG:text"
>text</text>
      <rect x="72" y="8" width="240" height="80"
       style=" stroke:#000000; stroke-width:1; fill:#000000; fill-opacity:0%"></rect>
    </g>
  </symbol>
 </defs>
</svg>
