<?xml version="1.0"?>
<?metis version="3.0"?>
<?metisxml version="1.0"?>
<!DOCTYPE svg  PUBLIC "-//W3C//DTD SVG August 1999//EN"
 "http://www.w3.org/Graphics/SVG/svg-19990812.dtd">

<svg width="200" height="200">
 <title>Symbol library: hardware.svg</title>
 <defs>
  <symbol id="oid1" xml:space="preserve" class="METIS_SYMBOL">
   <title>Hardware</title>
    <g>
      <polygon points="8 85.3334 114.667 85.3334 114.667 10.6667 
       8 10.6667 8 85.3334 "
       style=" stroke:#000000; stroke-width:1; fill:#ff962d; fill-opacity:100%" class="TAG:polygon"></polygon>
      <polyline points="13.3333 21.3334 13.3333 21.3334 18.6666 16 
       104 16 109.333 21.3334 109.333 74.6667 104 80 
       18.6666 80 13.3333 74.6667 13.3333 21.3334"
       style=" stroke:#000000; stroke-width:1;" class="TAG:polyline"></polyline>
      <polygon points="8 85.3334 8 85.3334 21.3333 109.333 
       125.333 109.333 114.667 85.3334 8 85.3334 "
       style=" stroke:#000000; stroke-width:1; fill:#ff962d; fill-opacity:100%" class="TAG:polygon"></polygon>
      <polygon points="21.3333 96 26.6666 96 26.6666 90.6667 
       21.3333 90.6667 21.3333 96 "
       style=" stroke:#000000; stroke-width:1; fill:#ce6700; fill-opacity:100%" class="TAG:polygon"></polygon>
      <polygon points="21.3333 106.667 26.6666 106.667 26.6666 101.333 
       21.3333 101.333 21.3333 106.667 "
       style=" stroke:#000000; stroke-width:1; fill:#ce6700; fill-opacity:100%" class="TAG:polygon"></polygon>
      <polygon points="32 96 37.3333 96 37.3333 90.6667 
       32 90.6667 32 96 "
       style=" stroke:#000000; stroke-width:1; fill:#ce6700; fill-opacity:100%" class="TAG:polygon"></polygon>
      <polygon points="32 106.667 37.3333 106.667 37.3333 101.333 
       32 101.333 32 106.667 "
       style=" stroke:#000000; stroke-width:1; fill:#ce6700; fill-opacity:100%" class="TAG:polygon"></polygon>
      <polygon points="42.6667 96 48 96 48 90.6667 
       42.6667 90.6667 42.6667 96 "
       style=" stroke:#000000; stroke-width:1; fill:#ce6700; fill-opacity:100%" class="TAG:polygon"></polygon>
      <polygon points="42.6667 106.667 48 106.667 48 101.333 
       42.6667 101.333 42.6667 106.667 "
       style=" stroke:#000000; stroke-width:1; fill:#ce6700; fill-opacity:100%" class="TAG:polygon"></polygon>
      <polygon points="53.3333 96 58.6666 96 58.6666 90.6667 
       53.3333 90.6667 53.3333 96 "
       style=" stroke:#000000; stroke-width:1; fill:#ce6700; fill-opacity:100%" class="TAG:polygon"></polygon>
      <polygon points="53.3333 106.667 58.6666 106.667 58.6666 101.333 
       53.3333 101.333 53.3333 106.667 "
       style=" stroke:#000000; stroke-width:1; fill:#ce6700; fill-opacity:100%" class="TAG:polygon"></polygon>
      <polygon points="64 96 69.3333 96 69.3333 90.6667 
       64 90.6667 64 96 "
       style=" stroke:#000000; stroke-width:1; fill:#ce6700; fill-opacity:100%" class="TAG:polygon"></polygon>
      <polygon points="64 106.667 69.3333 106.667 69.3333 101.333 
       64 101.333 64 106.667 "
       style=" stroke:#000000; stroke-width:1; fill:#ce6700; fill-opacity:100%" class="TAG:polygon"></polygon>
      <polygon points="74.6667 96 80 96 80 90.6667 
       74.6667 90.6667 74.6667 96 "
       style=" stroke:#000000; stroke-width:1; fill:#ce6700; fill-opacity:100%" class="TAG:polygon"></polygon>
      <polygon points="74.6667 106.667 80 106.667 80 101.333 
       74.6667 101.333 74.6667 106.667 "
       style=" stroke:#000000; stroke-width:1; fill:#ce6700; fill-opacity:100%" class="TAG:polygon"></polygon>
      <polygon points="85.3333 96 90.6666 96 90.6666 90.6667 
       85.3333 90.6667 85.3333 96 "
       style=" stroke:#000000; stroke-width:1; fill:#ce6700; fill-opacity:100%" class="TAG:polygon"></polygon>
      <polygon points="85.3333 106.667 90.6666 106.667 90.6666 101.333 
       85.3333 101.333 85.3333 106.667 "
       style=" stroke:#000000; stroke-width:1; fill:#ce6700; fill-opacity:100%" class="TAG:polygon"></polygon>
      <polygon points="96 96 101.333 96 101.333 90.6667 
       96 90.6667 96 96 "
       style=" stroke:#000000; stroke-width:1; fill:#ce6700; fill-opacity:100%" class="TAG:polygon"></polygon>
      <polygon points="96 106.667 101.333 106.667 101.333 101.333 
       96 101.333 96 106.667 "
       style=" stroke:#000000; stroke-width:1; fill:#ce6700; fill-opacity:100%" class="TAG:polygon"></polygon>
      <polygon points="106.667 96 112 96 112 90.6667 
       106.667 90.6667 106.667 96 "
       style=" stroke:#000000; stroke-width:1; fill:#ce6700; fill-opacity:100%" class="TAG:polygon"></polygon>
      <polygon points="106.667 106.667 112 106.667 112 101.333 
       106.667 101.333 106.667 106.667 "
       style=" stroke:#000000; stroke-width:1; fill:#ce6700; fill-opacity:100%" class="TAG:polygon"></polygon>
      <polygon points="18.6667 69.3334 50.6667 69.3334 50.6667 26.6667 
       18.6667 26.6667 18.6667 69.3334 "
       style=" stroke:#000000; stroke-width:1; fill:#ce6700; fill-opacity:100%" class="TAG:polygon"></polygon>
      <polyline points="18.6667 37.3333 24 37.3333 24 32 
       29.3334 37.3333 29.3334 32 34.6667 37.3333 34.6667 32 
       40 37.3333 40 32 45.3334 37.3333"
       style=" stroke:#000000; stroke-width:1;" class="TAG:polyline"></polyline>
      <polyline points="18.6667 48 24 48 24 42.6667 
       29.3334 48 29.3334 42.6667 34.6667 48 34.6667 42.6667 
       40 48 40 42.6667 45.3334 48"
       style=" stroke:#000000; stroke-width:1;" class="TAG:polyline"></polyline>
      <polyline points="18.6667 58.6667 24 58.6667 24 53.3334 
       29.3334 58.6667 29.3334 53.3334 34.6667 58.6667 34.6667 53.3334 
       40 58.6667 40 53.3334 45.3334 58.6667"
       style=" stroke:#000000; stroke-width:1;" class="TAG:polyline"></polyline>
      <polygon points="45.3333 64.0001 77.3333 64.0001 77.3333 21.3334 
       45.3333 21.3334 45.3333 64.0001 "
       style=" stroke:#000000; stroke-width:1; fill:#ce6700; fill-opacity:100%" class="TAG:polygon"></polygon>
      <polyline points="45.3333 32 50.6666 32 50.6666 26.6667 
       56 32 56 26.6667 61.3333 32 61.3333 26.6667 
       66.6666 32 66.6666 26.6667 72 32"
       style=" stroke:#000000; stroke-width:1;" class="TAG:polyline"></polyline>
      <polyline points="45.3333 42.6667 50.6666 42.6667 50.6666 37.3334 
       56 42.6667 56 37.3334 61.3333 42.6667 61.3333 37.3334 
       66.6666 42.6667 66.6666 37.3334 72 42.6667"
       style=" stroke:#000000; stroke-width:1;" class="TAG:polyline"></polyline>
      <polyline points="45.3333 53.3333 50.6666 53.3333 50.6666 48 
       56 53.3333 56 48 61.3333 53.3333 61.3333 48 
       66.6666 53.3333 66.6666 48 72 53.3333"
       style=" stroke:#000000; stroke-width:1;" class="TAG:polyline"></polyline>
      <polygon points="66.6667 69.3334 98.6667 69.3334 98.6667 26.6667 
       66.6667 26.6667 66.6667 69.3334 "
       style=" stroke:#000000; stroke-width:1; fill:#ce6700; fill-opacity:100%" class="TAG:polygon"></polygon>
      <polyline points="66.6667 37.3333 72 37.3333 72 32 
       77.3334 37.3333 77.3334 32 82.6667 37.3333 82.6667 32 
       88 37.3333 88 32 93.3334 37.3333"
       style=" stroke:#000000; stroke-width:1;" class="TAG:polyline"></polyline>
      <polyline points="66.6667 48 72 48 72 42.6667 
       77.3334 48 77.3334 42.6667 82.6667 48 82.6667 42.6667 
       88 48 88 42.6667 93.3334 48"
       style=" stroke:#000000; stroke-width:1;" class="TAG:polyline"></polyline>
      <polyline points="66.6667 58.6667 72 58.6667 72 53.3334 
       77.3334 58.6667 77.3334 53.3334 82.6667 58.6667 82.6667 53.3334 
       88 58.6667 88 53.3334 93.3334 58.6667"
       style=" stroke:#000000; stroke-width:1;" class="TAG:polyline"></polyline>
      <polygon points="8 85.3334 8 85.3334 8 90.6667 
       21.3333 114.667 125.333 114.667 125.333 109.333 21.3333 109.333 8 85.3334 "
       style=" stroke:#000000; stroke-width:1; fill:#a85400; fill-opacity:100%" class="TAG:polygon"></polygon>
      <polyline points="21.3333 109.333 21.3333 109.333 21.3333 114.667"
       style=" stroke:#000000; stroke-width:1;" class="TAG:polyline"></polyline>
      <polygon points="8 10.6667 8 10.6667 0 40 
       0 64 8 85.3334 8 10.6667 "
       style=" stroke:#000000; stroke-width:1; fill:#ce6700; fill-opacity:100%" class="TAG:polygon"></polygon>
    </g>
    <polygon points="130.667 128 493.334 128 493.334 0 
     130.667 0 130.667 128 "
     style=" stroke:#000000; stroke-width:1; fill:#ff962d; fill-opacity:100%" class="TAG:polygon"></polygon>
    <g>
      <desc>METIS_TEXT_GROUP</desc>
      <text  x="136" y="21.1333"
       style=" stroke:#000000; stroke-width:1; font-family:sans-serif; font-size:16;" class="TAG:text"
>text</text>
      <rect x="136" y="5.33333" width="352" height="117.333"
       style=" stroke:#000000; stroke-width:1; fill:#000000; fill-opacity:0%"></rect>
    </g>
  </symbol>
 </defs>
</svg>
