<?xml version="1.0"?>
<?metis version="3.1"?>
<?metisxml version="1.0"?>
<!DOCTYPE svg  PUBLIC "-//W3C//DTD SVG August 1999//EN"
 "http://www.w3.org/Graphics/SVG/svg-19990812.dtd">

<svg width="200" height="200">
 <title>Symbol library: hardware_platform.svg</title>
 <defs>
  <symbol id="oid1" xml:space="preserve" class="METIS_SYMBOL">
   <title>Hardware Platform</title>
    <g>
      <polygon points="0 0 0 304 16.2963 320 
       880 320 880 16 863.704 0 0 0 
       0 0 0 0 0 0 0 0 
       0 0 0 0 0 0 0 0 
       0 0 0 0 0 0 "
       style=" stroke:#000000; stroke-width:1; fill:#9b9b9b; fill-opacity:100%"       class="TAG:shadow"></polygon>
      <rect x="0" y="0" width="240" height="304"
       style=" stroke:#000000; stroke-width:1; fill:#ffffa5; fill-opacity:100%"       class="TAG:PictureBackground"></rect>
      <rect x="240" y="0" width="624" height="304"
       style=" stroke:#000000; stroke-width:1; fill:#b9b9b9; fill-opacity:100%"       class="TAG:canvas"></rect>
      <g>
	<desc>METIS_TEXT_GROUP</desc>
	<text  x="256" y="15.8"
	 style=" stroke:#000000; stroke-width:1; font-family:sans-serif; font-size:16;"
	 class="TAG:text">text</text>
	<rect x="256" y="0" width="608" height="304"
	 style=" stroke:#000000; stroke-width:1; fill:#ffffff; fill-opacity:0%"></rect>
      </g>
      <polyline points="880 320 864 304"
       style=" stroke:#000000; stroke-width:1;"></polyline>
      <g>
	<polygon points="108.159 32 213.072 36.0677 213.072 261.153 
	 211.98 263.186 224 267.933 102.696 272 99.4165 272 
	 108.159 267.933 108.159 235.39 108.159 32 108.159 32 
	 108.159 32 108.159 32 108.159 32 108.159 32 "
	 style=" stroke:#000000; stroke-width:1; fill:#ffffff; fill-opacity:100%"></polygon>
	<polygon points="108.592 32 27.9826 48.2712 26.8932 253.017 
	 16 255.729 99.8776 272 108.592 267.933 212.077 263.186 
	 213.168 261.153 108.592 265.22 108.592 32 108.592 32 
	 108.592 32 108.592 32 108.592 32 108.592 32 "
	 style=" stroke:#000000; stroke-width:1; fill:#ababab; fill-opacity:100%"></polygon>
	<polyline points="109.167 267.944 26.8332 253.07"
	 style=" stroke:#000000; stroke-width:1;"></polyline>
	<polyline points="96.1666 265.915 96.1666 34.0282"
	 style=" stroke:#000000; stroke-width:1;"></polyline>
	<polygon points="115.667 32 117.86 33.3561 118.957 35.3902 
	 118.957 169.645 121.15 170.324 132.118 170.324 132.118 168.968 
	 133.215 168.289 191.339 168.289 192.436 168.968 192.436 170.324 
	 204.5 170.324 202.306 173.036 192.436 173.036 192.436 259.149 
	 132.118 261.183 132.118 173.036 118.957 173.036 115.667 170.324 
	 115.667 32 115.667 32 115.667 32 115.667 32 
	 115.667 32 115.667 32 "
	 style=" stroke:#000000; stroke-width:1; fill:#ababab; fill-opacity:100%"></polygon>
	<polyline points="118.917 36.0563 205.584 39.4535 205.584 170.585 
	 203.39 171.944"
	 style=" stroke:#000000; stroke-width:1;"></polyline>
	<polyline points="200.166 36.0563 205.584 40.1126"
	 style=" stroke:#000000; stroke-width:1;"></polyline>
	<polygon points="115.667 158.422 118.956 158.422 205.584 158.422 
	 205.584 140.845 118.956 140.845 115.667 140.845 115.667 158.422 
	 115.667 158.422 115.667 158.422 115.667 158.422 115.667 158.422 115.667 158.422 "
	 style=" stroke:#000000; stroke-width:1; fill:#000000; fill-opacity:100%"></polygon>
	<polygon points="200.166 109.071 200.166 42.1674 123.25 39.4366 
	 123.25 107.705 200.166 109.071 200.166 109.071 200.166 109.071 
	 200.166 109.071 200.166 109.071 200.166 109.071 "
	 style=" stroke:#000000; stroke-width:1; fill:#ffffff; fill-opacity:100%"></polygon>
	<polygon points="195.834 44.8741 126.5 42.1408 126.5 105.007 
	 195.834 105.69 195.834 44.8741 195.834 44.8741 195.834 44.8741 
	 195.834 44.8741 195.834 44.8741 195.834 44.8741 "
	 style=" stroke:#000000; stroke-width:1; fill:#ababab; fill-opacity:100%"></polygon>
	<polyline points="121.083 156.394 121.083 144.225 201.25 144.225"
	 style=" stroke:#ffffff; stroke-width:1;"></polyline>
	<polygon points="136.611 169.239 139.5 169.239 139.5 169.92 
	 139.5 260.497 139.5 261.859 136.611 261.859 135.166 261.859 
	 135.166 260.497 135.166 169.92 135.166 169.239 136.611 169.239 
	 136.611 169.239 136.611 169.239 136.611 169.239 136.611 169.239 136.611 169.239 "
	 style=" stroke:#000000; stroke-width:1; fill:#ffffff; fill-opacity:100%"></polygon>
	<polygon points="144.555 168.563 146 169.244 146 169.925 
	 146 260.497 146 261.859 144.555 261.859 141.666 261.859 
	 141.666 260.497 141.666 169.925 141.666 169.244 144.555 168.563 
	 144.555 168.563 144.555 168.563 144.555 168.563 144.555 168.563 144.555 168.563 "
	 style=" stroke:#000000; stroke-width:1; fill:#ffffff; fill-opacity:100%"></polygon>
	<polygon points="151.055 169.239 152.5 169.239 152.5 169.92 
	 152.5 260.497 152.5 261.178 151.055 261.859 148.166 261.178 
	 148.166 260.497 148.166 169.92 149.611 169.239 151.055 169.239 
	 151.055 169.239 151.055 169.239 151.055 169.239 151.055 169.239 151.055 169.239 "
	 style=" stroke:#000000; stroke-width:1; fill:#ffffff; fill-opacity:100%"></polygon>
	<polygon points="157.195 169.239 160.084 169.239 160.084 169.92 
	 160.084 260.502 160.084 261.183 157.195 261.183 155.75 261.183 
	 155.75 260.502 155.75 169.92 155.75 169.239 157.195 169.239 
	 157.195 169.239 157.195 169.239 157.195 169.239 157.195 169.239 157.195 169.239 "
	 style=" stroke:#000000; stroke-width:1; fill:#ffffff; fill-opacity:100%"></polygon>
	<polygon points="165.139 169.239 166.584 169.239 166.584 169.92 
	 166.584 259.82 166.584 260.502 165.139 261.183 162.25 260.502 
	 162.25 259.82 162.25 169.92 162.25 169.239 165.139 169.239 
	 165.139 169.239 165.139 169.239 165.139 169.239 165.139 169.239 165.139 169.239 "
	 style=" stroke:#000000; stroke-width:1; fill:#ffffff; fill-opacity:100%"></polygon>
	<polygon points="171.279 169.239 174.166 169.239 174.166 169.92 
	 174.166 259.826 174.166 260.507 171.279 260.507 169.834 260.507 
	 169.834 259.826 169.834 169.92 169.834 169.239 171.279 169.239 
	 171.279 169.239 171.279 169.239 171.279 169.239 171.279 169.239 171.279 169.239 "
	 style=" stroke:#000000; stroke-width:1; fill:#ffffff; fill-opacity:100%"></polygon>
	<polygon points="179.041 169.239 181.75 169.239 181.75 169.92 
	 181.75 259.145 180.396 259.826 179.041 260.507 177.688 259.826 
	 176.334 259.145 176.334 169.92 177.688 169.239 179.041 169.239 
	 179.041 169.239 179.041 169.239 179.041 169.239 179.041 169.239 179.041 169.239 "
	 style=" stroke:#000000; stroke-width:1; fill:#ffffff; fill-opacity:100%"></polygon>
	<polygon points="186.625 169.239 187.979 169.239 189.334 169.92 
	 189.334 259.145 187.979 259.826 186.625 260.507 185.271 259.826 
	 183.918 259.145 183.918 169.92 185.271 169.239 186.625 169.239 
	 186.625 169.239 186.625 169.239 186.625 169.239 186.625 169.239 186.625 169.239 "
	 style=" stroke:#000000; stroke-width:1; fill:#ffffff; fill-opacity:100%"></polygon>
	<polygon points="126.5 122.591 139.5 122.591 139.5 137.465 
	 126.5 137.465 126.5 122.591 126.5 122.591 126.5 122.591 
	 126.5 122.591 126.5 122.591 126.5 122.591 "
	 style=" stroke:#000000; stroke-width:1; fill:#ababab; fill-opacity:100%"></polygon>
	<polygon points="128.668 124.62 139.5 124.62 139.5 136.113 
	 128.668 136.113 128.668 124.62 128.668 124.62 128.668 124.62 
	 128.668 124.62 128.668 124.62 128.668 124.62 "
	 style=" stroke:#000000; stroke-width:1; fill:#ffffff; fill-opacity:100%"></polygon>
	<polyline points="126.5 42.8169 195.834 46.1972"
	 style=" stroke:#000000; stroke-width:1;"></polyline>
	<polygon points="195.834 60.2253 126.5 57.6901 195.834 61.0704 
	 195.834 60.2253 195.834 60.2253 195.834 60.2253 195.834 60.2253 
	 195.834 60.2253 195.834 60.2253 "
	 style=" stroke:#000000; stroke-width:1; fill:#000000; fill-opacity:100%"></polygon>
	<polygon points="195.834 75.1323 126.5 71.8873 195.834 75.9436 
	 195.834 75.1323 195.834 75.1323 195.834 75.1323 195.834 75.1323 
	 195.834 75.1323 195.834 75.1323 "
	 style=" stroke:#000000; stroke-width:1; fill:#000000; fill-opacity:100%"></polygon>
	<polygon points="195.834 89.9153 126.5 88.1127 195.834 90.8169 
	 195.834 89.9153 195.834 89.9153 195.834 89.9153 195.834 89.9153 
	 195.834 89.9153 195.834 89.9153 "
	 style=" stroke:#000000; stroke-width:1; fill:#000000; fill-opacity:100%"></polygon>
	<polyline points="126.5 73.2393 195.834 75.9435"
	 style=" stroke:#ffffff; stroke-width:1;"></polyline>
	<polyline points="126.5 88.7888 195.834 90.817"
	 style=" stroke:#ffffff; stroke-width:1;"></polyline>
	<polyline points="126.5 105.014 195.834 106.366"
	 style=" stroke:#000000; stroke-width:1;"></polyline>
	<polygon points="127.584 48.3755 149.611 49.0891 149.611 45.5211 
	 169.436 46.2347 169.436 49.8028 193.666 50.5164 193.666 53.3709 
	 169.436 51.9437 169.436 58.3662 149.611 57.6526 149.611 51.23 
	 127.584 51.23 127.584 48.3755 127.584 48.3755 127.584 48.3755 
	 127.584 48.3755 127.584 48.3755 127.584 48.3755 "
	 style=" stroke:#000000; stroke-width:1; fill:#000000; fill-opacity:100%"></polygon>
	<polygon points="127.584 63.2488 149.611 63.9623 149.611 60.3943 
	 169.436 61.1079 169.436 64.6761 193.666 65.3896 193.666 67.5304 
	 169.436 66.8168 169.436 73.2394 149.611 72.5258 149.611 66.1032 
	 127.584 65.3896 127.584 63.2488 127.584 63.2488 127.584 63.2488 
	 127.584 63.2488 127.584 63.2488 127.584 63.2488 "
	 style=" stroke:#000000; stroke-width:1; fill:#000000; fill-opacity:100%"></polygon>
	<polyline points="169.834 58.3662 167.539 52.3568 150.334 51.6056"
	 style=" stroke:#ababab; stroke-width:1;"></polyline>
	<polyline points="169.834 72.5634 167.539 66.4788 150.334 66.4788"
	 style=" stroke:#ababab; stroke-width:1;"></polyline>
	<polyline points="127.584 49.5774 193.666 51.6056"
	 style=" stroke:#ababab; stroke-width:1;"></polyline>
	<polyline points="127.584 63.7746 193.666 66.4788"
	 style=" stroke:#ababab; stroke-width:1;"></polyline>
	<polygon points="133 45.5211 139.5 45.5211 139.5 48.2253 
	 133 48.2253 133 45.5211 133 45.5211 133 45.5211 
	 133 45.5211 133 45.5211 133 45.5211 "
	 style=" stroke:#000000; stroke-width:1; fill:#ff0016; fill-opacity:100%"></polygon>
	<polygon points="133 60.3943 139.5 60.3943 139.5 62.4225 
	 133 62.4225 133 60.3943 133 60.3943 133 60.3943 
	 133 60.3943 133 60.3943 133 60.3943 "
	 style=" stroke:#000000; stroke-width:1; fill:#ff0016; fill-opacity:100%"></polygon>
	<polygon points="169.834 48.3943 173.264 47.5493 173.264 48.3943 
	 174.408 50.0844 175.551 50.0844 190.416 50.9296 186.986 50.9296 
	 172.12 50.9296 170.978 50.0844 169.834 49.2394 169.834 48.3943 
	 169.834 48.3943 169.834 48.3943 169.834 48.3943 169.834 48.3943 169.834 48.3943 "
	 style=" stroke:#000000; stroke-width:1; fill:#000000; fill-opacity:100%"></polygon>
	<polygon points="169.834 62.5577 173.264 61.7465 173.264 63.369 
	 174.408 64.1803 175.551 64.1803 190.416 64.9915 186.986 65.8028 
	 172.12 64.9915 170.978 64.9915 169.834 63.369 169.834 62.5577 
	 169.834 62.5577 169.834 62.5577 169.834 62.5577 169.834 62.5577 169.834 62.5577 "
	 style=" stroke:#000000; stroke-width:1; fill:#000000; fill-opacity:100%"></polygon>
	<polyline points="169.834 48.631 170.975 47.8197 172.114 47.0085 
	 175.536 46.1972 176.675 46.1972 177.816 46.1972 180.097 47.0085 
	 181.237 48.631 182.377 48.631 190.359 48.631 191.5 50.2535"
	 style=" stroke:#ffffff; stroke-width:1;"></polyline>
	<polyline points="169.834 62.8281 170.975 62.0169 172.114 61.2056 
	 175.536 60.3943 176.675 60.3943 177.816 61.2056 180.097 62.0169 
	 181.237 62.8281 182.377 62.8281 190.359 63.6394 191.5 64.4507"
	 style=" stroke:#ffffff; stroke-width:1;"></polyline>
	<polyline points="173.084 48.2253 173.084 48.2253 173.084 47.2113 
	 173.084 47.2113 174.709 46.1972 174.709 46.1972 176.334 46.1972"
	 style=" stroke:#ffffff; stroke-width:1;"></polyline>
	<polyline points="173.084 62.4225 173.084 62.4225 173.084 61.4084 
	 173.084 61.4084 174.709 61.4084 174.709 61.4084 176.334 60.3943"
	 style=" stroke:#ffffff; stroke-width:1;"></polyline>
	<polyline points="126.5 58.3662 195.834 61.0704"
	 style=" stroke:#ffffff; stroke-width:1;"></polyline>
	<polygon points="138.416 75.9435 185 77.3859 185 86.7604 
	 138.416 86.0391 138.416 75.9435 138.416 75.9435 138.416 75.9435 
	 138.416 75.9435 138.416 75.9435 138.416 75.9435 "
	 style=" stroke:#000000; stroke-width:1; fill:#000000; fill-opacity:100%"></polygon>
	<polygon points="138.416 92.845 185 93.5694 185 102.986 
	 138.416 102.986 138.416 92.845 138.416 92.845 138.416 92.845 
	 138.416 92.845 138.416 92.845 138.416 92.845 "
	 style=" stroke:#000000; stroke-width:1; fill:#000000; fill-opacity:100%"></polygon>
	<polygon points="138.416 76.6196 183.916 78.0685 183.916 86.7605 
	 138.416 86.0361 138.416 76.6196 138.416 76.6196 138.416 76.6196 
	 138.416 76.6196 138.416 76.6196 138.416 76.6196 "
	 style=" stroke:#000000; stroke-width:1; fill:#ababab; fill-opacity:100%"></polygon>
	<polygon points="138.416 93.5212 183.916 94.2494 183.916 102.986 
	 138.416 102.986 138.416 93.5212 138.416 93.5212 138.416 93.5212 
	 138.416 93.5212 138.416 93.5212 138.416 93.5212 "
	 style=" stroke:#000000; stroke-width:1; fill:#ababab; fill-opacity:100%"></polygon>
	<polyline points="183.916 87.4366 138.416 85.9881 138.416 77.2958"
	 style=" stroke:#ffffff; stroke-width:1;"></polyline>
	<polyline points="183.916 103.662 138.416 102.938 138.416 93.5212"
	 style=" stroke:#ffffff; stroke-width:1;"></polyline>
	<polyline points="179.584 81.3521 179.584 79.7294 170.661 79.7294 
	 170.661 78.1071 151.704 77.2958 151.704 78.918 141.666 78.918"
	 style=" stroke:#000000; stroke-width:1;"></polyline>
	<polyline points="179.584 97.5776 179.584 95.8872 170.661 95.8872 
	 170.661 94.1973 151.704 94.1973 151.704 95.8872 141.666 95.8872"
	 style=" stroke:#000000; stroke-width:1;"></polyline>
	<polyline points="177.416 80.9015 170.713 80.9015 170.713 85.4083 
	 151.722 84.657 151.722 80.1502 141.666 80.1502 141.666 78.6477"
	 style=" stroke:#ffffff; stroke-width:1;"></polyline>
	<polyline points="177.416 97.0706 170.713 97.0706 170.713 101.634 
	 151.722 101.634 151.722 97.0706 141.666 97.0706 141.666 95.5492"
	 style=" stroke:#ffffff; stroke-width:1;"></polyline>
	<polygon points="144.916 82.7042 149.25 82.7042 149.25 84.0563 
	 144.916 84.0563 144.916 82.7042 144.916 82.7042 144.916 82.7042 
	 144.916 82.7042 144.916 82.7042 144.916 82.7042 "
	 style=" stroke:#000000; stroke-width:1; fill:#00ff00; fill-opacity:100%"></polygon>
	<polygon points="144.916 99.6058 149.25 99.6058 149.25 100.958 
	 144.916 100.958 144.916 99.6058 144.916 99.6058 144.916 99.6058 
	 144.916 99.6058 144.916 99.6058 144.916 99.6058 "
	 style=" stroke:#000000; stroke-width:1; fill:#00ff00; fill-opacity:100%"></polygon>
	<polygon points="172 82.0281 177.416 82.0281 177.416 84.7323 
	 172 84.7323 172 82.0281 172 82.0281 172 82.0281 
	 172 82.0281 172 82.0281 172 82.0281 "
	 style=" stroke:#000000; stroke-width:1; fill:#ababab; fill-opacity:100%"></polygon>
	<polygon points="172 98.2535 177.416 98.2535 177.416 100.958 
	 172 100.958 172 98.2535 172 98.2535 172 98.2535 
	 172 98.2535 172 98.2535 172 98.2535 "
	 style=" stroke:#000000; stroke-width:1; fill:#ababab; fill-opacity:100%"></polygon>
	<polyline points="144.916 82.7042 144.916 84.7324 149.25 84.7324"
	 style=" stroke:#000000; stroke-width:1;"></polyline>
	<polyline points="144.916 99.6058 144.916 101.634 149.25 101.634"
	 style=" stroke:#000000; stroke-width:1;"></polyline>
	<polyline points="172 82.7042 172 85.4085 177.416 85.4085"
	 style=" stroke:#000000; stroke-width:1;"></polyline>
	<polyline points="172 98.9296 172 101.634 177.416 101.634"
	 style=" stroke:#000000; stroke-width:1;"></polyline>
	<polyline points="170.916 85.4085 169.766 82.2535 169.766 80.6761 
	 168.615 81.4646 152.5 81.4646"
	 style=" stroke:#ababab; stroke-width:1;"></polyline>
	<polyline points="170.916 101.634 169.766 98.4789 169.766 96.9015 
	 168.615 98.4789 152.5 98.4789"
	 style=" stroke:#ababab; stroke-width:1;"></polyline>
      </g>
    </g>
  </symbol>
 </defs>
</svg>
