<?xml version="1.0"?>
<?metis version="3.3"?>
<?metisxml version="1.1"?>
<!DOCTYPE svg  PUBLIC "-//W3C//DTD SVG August 1999//EN"
 "http://www.w3.org/Graphics/SVG/svg-19990812.dtd">

<svg width="200" height="200">
 <title>Symbol library: hats.svg</title>
 <defs>
  <symbol id="oid0" xml:space="preserve" class="METIS_SYMBOL">
   <title>Hats</title>
    <g>
      <polygon points="0 0 0 304 16 320 
       880 320 880 16 864 0 0 0 
       0 0 0 0 0 0 0 0 
       0 0 0 0 0 0 0 0 
       0 0 0 0 "
       style=" stroke:#000000; stroke-width:1; fill:#9b9b9b; fill-opacity:100%"       class="TAG:shadow"></polygon>
      <rect x="0" y="0" width="240" height="304"
       style=" stroke:#000000; stroke-width:1; fill:#ffffa5; fill-opacity:100%"       class="TAG:PictureBackground"></rect>
      <rect x="240" y="0" width="624" height="304"
       style=" stroke:#000000; stroke-width:1; fill:#c8ffc8; fill-opacity:100%"       class="TAG:canvas"></rect>
      <rect x="245.357" y="25.7143" width="569.522" height="231.429"
       style="stroke:none; fill:#878787; fill-opacity:0%"></rect>
      <g>
	<desc>METIS_TEXT_GROUP</desc>
	<text  x="256" y="15"
	 style=" stroke:#000000; stroke-width:1; font-family:sans-serif; font-size:16;"
	 class="TAG:text">text</text>
	<rect x="256" y="0" width="608" height="304"
	 style=" stroke:#000000; stroke-width:1; fill:#ffffff; fill-opacity:0%"></rect>
      </g>
      <polyline points="864 304 880 320"
       style=" stroke:#000000; stroke-width:1;"></polyline>
      <g>
	<g>
	  <path d="M 83.5052 163.281 C 81.2969 163.281 80.3434 163.281 
	   79.692 163.281 C 76.6514 163.281 69.3896 163.174 66.344 163.281 
	   C 57.166 163.604 38.0116 171.75 26.3005 166.105 C 22.7893 164.413 
	   20.2192 159.963 22.487 157.633 C 31.9886 147.872 59.1224 167.923 
	   73.018 157.633 C 73.018 157.633 73.018 157.633 73.018 157.633 Z"
	   style=" stroke:#464646; stroke-width:1; fill:#6e6e00; fill-opacity:100%"></path>
	  <path d="M 64.408 144.06 C 76.7242 142.603 82.1969 142.45 
	   86.2995 143.447 C 92.1273 144.864 100.217 151.782 104.402 154.172 
	   C 108.66 156.603 129.455 156.7 129.048 161.99 C 128.554 168.425 
	   120.083 171.098 111.732 171.443 C 101.325 171.874 91.6035 169.512 
	   84.3145 166.717 C 81.4273 165.61 75.4967 164.512 66.9985 161.99 
	   C 58.1555 159.367 41.0155 156.853 40.8324 153.559 C 40.5494 148.474 
	   60.5607 146.45 59.3562 143.753 C 59.3562 143.753 59.3562 143.753 
	   59.3562 143.753 Z"
	   style=" stroke:#464646; stroke-width:1; fill:#6e6e00; fill-opacity:100%"	   class="TAG:Hat1"></path>
	  <path d="M 16.5198 154.891 C 16 158.331 21.8476 165.959 
	   30.2203 165.959 C 32.3592 165.959 40.3776 165.424 50.0101 164.852 
	   C 57.1956 164.425 68.5838 163.252 71.3223 163.745 C 76.8729 164.745 
	   94.9249 167.261 100.376 165.609 C 105.041 164.195 114.589 160.842 
	   115.92 158.505 C 116.862 156.853 113.376 153.185 111.923 150.756 
	   C 108.449 144.948 91.3792 142.077 85.2761 141.068 C 82.4754 140.606 
	   74.8701 140.743 67.5164 140.503 C 57.366 140.17 46.9107 139.636 
	   43.1598 140.503 C 40.4424 141.13 24.1311 141.61 17.2808 149.91 Z"
	   style=" stroke:#464646; stroke-width:1; fill:#6e6e00; fill-opacity:100%"	   class="TAG:Hat1"></path>
	  <ellipse  cx="62.818" cy="142.112" rx="4.42045" ry="1.07251"
	   style=" stroke:#a85400; stroke-width:1; fill:#a85400; fill-opacity:100%"	   class="TAG:Hat1Button"></ellipse>
	</g>
	<g>
	  <path d="M 89.0033 102.816 C 89.0033 78.1882 97.0318 68.2499 
	   108.069 65.0537 C 111.707 64 118.932 67.627 123.569 67.6805 
	   C 129.23 67.7461 125.43 65.4916 137.21 65.4916 C 150.23 65.4916 
	   147.75 92.1984 154.57 99.8606 C 158.81 104.624 172 100.571 
	   169.451 105.771 C 163.87 117.155 139.084 123.284 120.469 123.284 
	   C 101.248 123.284 72.7273 114.089 72.7273 109.274 C 72.7273 102.67 
	   79.9938 104.387 90.3981 102.816 Z"
	   style=" stroke:#000000; stroke-width:1; fill:#a85400; fill-opacity:100%"	   class="TAG:Hat2"></path>
	  <path d="M 111.324 74.2478 C 113.287 76.9491 113.985 78.1804 
	   114.114 79.1736 C 114.44 81.6805 108.179 86.3156 111.324 89.0243 
	   C 111.324 89.0243 111.324 89.0243 111.324 89.0243"
	   style=" stroke:#000000; stroke-width:1;"	   class="TAG:Hat2"></path>
	  <path d="M 130.855 75.2331 C 126.465 80.7875 125.419 83.4965 
	   126.669 86.069 C 127.4 87.5735 131.358 87.7649 132.25 89.0243 
	   C 132.383 89.2131 132.35 89.4124 132.25 90.0095"
	   style=" stroke:#000000; stroke-width:1;"	   class="TAG:Hat2"></path>
	  <path d="M 88.8482 95.7011 C 100.008 101.831 114.038 105.087 
	   121.709 104.895 C 129.875 104.691 149.271 99.7819 152.71 96.1393 
	   C 153.95 94.8256 157.05 102.269 157.05 102.269 C 148.99 110.15 
	   132.506 114.305 119.229 113.652 C 110.559 113.226 87.0554 107.03 
	   88.2282 104.02 C 88.2282 104.02 88.2282 104.02 88.2282 104.02 Z"
	   style=" stroke:#000000; stroke-width:1; fill:#ff962d; fill-opacity:100%"	   class="TAG:Hat2Band"></path>
	</g>
	<g>
	  <polygon points="110.545 226.64 169.974 226.64 169.974 224.748 
	   110.545 224.748 110.545 226.64 110.545 226.64 110.545 226.64 
	   110.545 226.64 110.545 226.64 "
	   style=" stroke:#000000; stroke-width:1; fill:#0000a5; fill-opacity:100%"	   class="TAG:Hat3Strap"></polygon>
	  <polygon points="224 225.694 223.747 225.077 222.988 224.47 
	   221.74 223.884 220.02 223.329 217.859 222.814 215.297 222.349 
	   212.376 221.941 209.142 221.597 205.658 221.323 201.976 221.124 
	   198.165 221.004 194.287 220.963 190.408 221.004 186.595 221.124 
	   182.915 221.323 179.429 221.597 176.197 221.941 173.275 222.349 
	   170.712 222.814 168.552 223.329 164.572 222.856 164.826 226.312 
	   165.584 226.918 166.833 227.505 168.552 228.059 170.712 228.574 
	   173.275 229.039 176.197 229.447 179.429 229.791 182.915 230.065 
	   186.595 230.264 190.408 230.384 194.287 230.425 198.165 230.384 
	   201.976 230.264 205.658 230.065 209.142 229.791 212.376 229.447 
	   215.297 229.039 217.859 228.574 220.02 228.059 221.74 227.505 
	   222.988 226.918 223.747 226.312 224 225.694 224 225.694 
	   224 225.694 224 225.694 224 225.694 "
	   style=" stroke:#000000; stroke-width:1; fill:#6e6eff; fill-opacity:100%"	   class="TAG:Hat3"></polygon>
	  <polygon points="137.559 224.748 137.559 217.179 142.961 205.825 
	   151.065 198.256 145.776 198.482 140.577 199.159 135.559 200.272 
	   130.805 201.805 126.398 203.73 122.413 206.015 118.918 208.621 
	   115.974 211.502 113.63 214.61 111.926 217.891 110.892 221.29 
	   110.545 224.748 137.559 224.748 137.559 224.748 137.559 224.748 
	   137.559 224.748 137.559 224.748 "
	   style=" stroke:#000000; stroke-width:1; fill:#6e6eff; fill-opacity:100%"	   class="TAG:Hat3"></polygon>
	  <polygon points="191.238 221.29 190.205 217.891 188.501 214.61 
	   186.156 211.502 183.211 208.621 179.717 206.015 175.732 203.73 
	   171.325 201.805 166.571 200.272 161.552 199.159 156.354 198.482 
	   151.065 198.256 159.169 205.825 164.572 217.179 164.572 224.748 
	   183.481 224.748 188.883 222.856 191.238 221.29 191.238 221.29 
	   191.238 221.29 191.238 221.29 191.238 221.29 "
	   style=" stroke:#000000; stroke-width:1; fill:#6e6eff; fill-opacity:100%"	   class="TAG:Hat3"></polygon>
	  <polyline points="110.545 224.748 110.545 224.748 183.481 224.748"
	   style=" stroke:#000000; stroke-width:1;"></polyline>
	  <ellipse  cx="151.065" cy="198.256" rx="5.40263" ry="1.8923"
	   style=" stroke:#000000; stroke-width:1; fill:#0000a5; fill-opacity:100%"	   class="TAG:Hat3Button"></ellipse>
	</g>
      </g>
    </g>
  </symbol>
 </defs>
</svg>
