<?xml version="1.0"?>
<?metis version="3.1.1"?>
<?metisxml version="1.0"?>
<!DOCTYPE svg  PUBLIC "-//W3C//DTD SVG August 1999//EN"
 "http://www.w3.org/Graphics/SVG/svg-19990812.dtd">

<svg width="200" height="200">
 <title>Symbol library: help.svg</title>
 <defs>
  <symbol id="oid0" xml:space="preserve" class="METIS_SYMBOL">
   <title>Help</title>
    <g>
      <path d="M 126.827 25.3643 C 123.413 31.7721 125.395 37.2283 
       126.08 40.1823 C 126.383 41.4892 127.718 41.3356 126.933 42.3183 
       C 108.082 65.9104 76.8 105.195 73.3867 109.467 C 71.3628 112 
       68.9067 97.8526 72.32 93.5807 C 72.32 93.5807 72.32 93.5807 
       72.32 93.5807 Z"
       style=" stroke:#6e006e; stroke-width:2; fill:#ffffff; fill-opacity:100%"></path>
      <polygon points="5.12 59.8062 5.12 59.8062 59.7333 0 
       128 25.6312 128 25.6312 73.3867 93.9812 73.3867 93.9812 
       5.12 59.8062 5.12 59.8062 5.12 59.8062 "
       style=" stroke:#000000; stroke-width:2; fill:#6e006e; fill-opacity:100%"></polygon>
      <path d="M 4.69333 60.3402 C 0 71.5539 1.41813 75.0405 
       5.12 76.8937 C 73.3867 111.069 74.7255 111.446 73.3867 108.933 
       C 70.4776 103.472 70.9333 98.2531 72.64 95.0492 C 72.8289 94.6944 
       72.8533 94.6487 73.1733 94.2482 C 73.7067 93.5807 73.3067 93.9479 
       73.3867 93.9812 C 73.5298 94.0409 3.41333 59.0053 5.12 59.8062 Z"
       style=" stroke:#6e006e; stroke-width:2; fill:#ffffff; fill-opacity:100%"></path>
      <polyline points="5.12 59.8062 73.3867 93.9812"
       style=" stroke:#6e006e; stroke-width:2;"></polyline>
      <g>
	<desc>METIS_TEXT_GROUP</desc>
	<text  x="46.08" y="41.4312"
	 style=" stroke:#ffff00; stroke-width:2; font-family:serif;  font-style:italic; font-size:16;"
>Help</text>
	<rect x="46.08" y="25.6312" width="47.7867" height="34.175"
	 style=" stroke:#000000; stroke-width:1; fill:#00006e; fill-opacity:0%"></rect>
      </g>
      <polygon points="73.48 93.8477 73.4 93.8477 73.36 93.9646 
       73.3867 93.9812 73.48 93.8477 73.48 93.8477 73.48 93.8477 73.48 93.8477 "
       style=" stroke:#6e006e; stroke-width:2; fill:#6e006e; fill-opacity:100%"></polygon>
    </g>
  </symbol>
 </defs>
</svg>
