<?xml version="1.0"?>
<?metis version="3.0.1"?>
<?metisxml version="1.0"?>
<!DOCTYPE svg  PUBLIC "-//W3C//DTD SVG August 1999//EN"
 "http://www.w3.org/Graphics/SVG/svg-19990812.dtd">

<svg width="200" height="200">
 <title>Symbol library: high_speed_item_proc.svg</title>
 <defs>
  <symbol id="oid0" xml:space="preserve" class="METIS_SYMBOL">
    <polygon points="351.547 104.047 351.547 104.047 377.172 80.4219 
     377.172 17.0469 252.297 17.1719 252.297 15.2969 63.14 15.2969 
     63.75 14.9219 63.719 13.3438 68.219 10.7188 68.219 2.4688 
     63.719 1.7188 63.719 0.0157 47.508 0 43.726 1 
     43.765 15.9688 33.469 17.5469 30.469 23.1094 0 36.5782 
     0 108.578 220.687 108.578 226.719 104.109 351.547 104.047 "
     style=" stroke:#000000; stroke-width:1; fill:#ffa596; fill-opacity:100%"     class="TAG:polygon"></polygon>
    <polygon points="43.765 16.002 62.265 16.002 62.265 1.002 
     43.734 1 43.765 16.002 "
     style=" stroke:#000000; stroke-width:1; fill:#ffa596; fill-opacity:100%"     class="TAG:polygon"></polygon>
    <polygon points="0.015 108.627 31.078 108.627 31.078 36.627 
     0.015 36.627 0.015 108.627 "
     style=" stroke:#000000; stroke-width:1; fill:#ffa596; fill-opacity:100%"     class="TAG:polygon"></polygon>
    <polygon points="31.078 108.627 220.703 108.627 220.703 36.627 
     31.078 36.627 31.078 108.627 "
     style=" stroke:#000000; stroke-width:1; fill:#ffa596; fill-opacity:100%"     class="TAG:polygon"></polygon>
    <polyline points="58.453 17.5801 242.016 17.4004"
     style=" stroke:#000000; stroke-width:1;"     class="TAG:polyline"></polyline>
    <polyline points="168.266 108.752 168.328 36.752 192.828 22.8692"
     style=" stroke:#000000; stroke-width:1;"     class="TAG:polyline"></polyline>
    <polyline points="220.953 36.627 241.203 23.0567"
     style=" stroke:#000000; stroke-width:1;"     class="TAG:polyline"></polyline>
    <polyline points="270.453 104.244 270.578 34.127 285.453 23.1817 
     288.828 18.8067 296.078 17.1817"
     style=" stroke:#000000; stroke-width:1;"     class="TAG:polyline"></polyline>
    <polygon points="45.765 13.002 59.765 13.002 59.765 3.252 
     45.765 3.252 45.765 13.002 "
     style=" stroke:#000000; stroke-width:1; fill:#ffa596; fill-opacity:100%"     class="TAG:polygon"></polygon>
    <polyline points="43.765 1.002 43.765 1.002 47.515 0.002 
     63.765 0.002 63.765 14.9395 62.39 15.9395"
     style=" stroke:#000000; stroke-width:1;"     class="TAG:polyline"></polyline>
    <polyline points="63.765 1.752 63.765 1.752 68.265 2.502 
     68.265 10.752 63.765 13.377"
     style=" stroke:#000000; stroke-width:1;"     class="TAG:polyline"></polyline>
    <polyline points="351.531 104.078 226.75 104.141"
     style=" stroke:#000000; stroke-width:1;"     class="TAG:polyline"></polyline>
    <polyline points="0.078 36.5625 30.453 23.125 33.453 17.5313 
     43.734 15.9688"
     style=" stroke:#000000; stroke-width:1;"     class="TAG:polyline"></polyline>
    <polyline points="47.203 15.9864 47.203 15.9864 47.203 16.5176 
     47.672 16.8301 48.828 16.9864 52.172 17.0489 56.265 16.9551 
     57.484 16.7989 58.203 16.5801 58.203 15.9864"
     style=" stroke:#000000; stroke-width:1;"     class="TAG:polyline"></polyline>
    <polyline points="47.234 16.1739 42.578 16.9395 57.609 17.5489 
     60.422 16.2989 58.203 16.2989"
     style=" stroke:#000000; stroke-width:1;"     class="TAG:polyline"></polyline>
    <polyline points="42.578 16.9239 42.578 16.9239 42.578 17.3301 
     57.672 17.9864 60.359 16.7051 60.359 16.2989"
     style=" stroke:#000000; stroke-width:1;"     class="TAG:polyline"></polyline>
    <polyline points="63.031 15.2813 251.828 15.3692"
     style=" stroke:#000000; stroke-width:1;"     class="TAG:polyline"></polyline>
    <polyline points="31.515 36.5332 31.515 36.5332 60.515 22.9082 
     63.265 17.6426 74.484 15.4629"
     style=" stroke:#000000; stroke-width:1;"     class="TAG:polyline"></polyline>
    <polyline points="30.515 23.0332 30.515 23.0332 240.953 23.0567"
     style=" stroke:#000000; stroke-width:1;"     class="TAG:polyline"></polyline>
    <polyline points="111.859 36.6192 139.328 23.1192 140.953 17.6192 
     152.234 15.3692"
     style=" stroke:#000000; stroke-width:1;"     class="TAG:polyline"></polyline>
    <polyline points="130.265 36.5332 130.265 36.5332 159.828 22.7442 
     161.453 17.4942 172.328 15.3692"
     style=" stroke:#000000; stroke-width:1;"     class="TAG:polyline"></polyline>
    <polygon points="31.015 25.9082 31.015 25.9082 18.765 31.4082 
     37.265 31.4082 48.265 25.9082 31.015 25.9082 "
     style=" stroke:#000000; stroke-width:1; fill:#ffa596; fill-opacity:100%"     class="TAG:polygon"></polygon>
    <polyline points="36.828 27.5723 37.578 27.1739 38.578 27.0489 
     39.453 27.2364 39.797 27.5801 39.828 27.9864 39.203 28.5801 
     38.297 29.3926 37.672 30.1114 37.078 30.2676 36.422 30.2989 
     35.39 30.1114 35.14 29.7364 35.297 29.3614 35.828 28.5489 
     36.828 27.5801"
     style=" stroke:#000000; stroke-width:1;"     class="TAG:polyline"></polyline>
    <polyline points="39.828 27.9942 39.828 27.9942 39.765 28.4629 
     39.094 29.4004 38.125 30.2286 37.703 30.4629 36.922 30.6036 
     36.281 30.5723 35.625 30.4004 35.39 30.1036"
     style=" stroke:#000000; stroke-width:1;"     class="TAG:polyline"></polyline>
    <polyline points="39.094 27.1817 39.094 27.1817 38.562 27.3536 
     38.172 27.5567 37.953 27.7286"
     style=" stroke:#000000; stroke-width:1;"     class="TAG:polyline"></polyline>
    <polyline points="36.906 27.5411 36.906 27.5411 37.344 27.5411 
     37.969 27.7129 38.484 27.9786 38.875 28.2754 39.14 28.6192"
     style=" stroke:#000000; stroke-width:1;"     class="TAG:polyline"></polyline>
    <polyline points="33.578 17.4551 33.578 17.4551 45.64 17.4551"
     style=" stroke:#000000; stroke-width:1;"     class="TAG:polyline"></polyline>
    <polyline points="39.64 27.2676 39.64 27.2676 42.015 26.8926 
     44.765 26.8926 48.828 26.0801 51.765 24.4551 55.578 22.9551 
     57.515 19.5176 60.078 17.5176 61.265 15.8926"
     style=" stroke:#000000; stroke-width:1;"     class="TAG:polyline"></polyline>
    <polyline points="39.515 27.1426 39.515 27.1426 41.89 26.7676 
     44.64 26.7676 48.703 25.9551 51.64 24.3301 55.453 22.8301 
     57.39 19.3926 59.953 17.3926 61.14 15.7676"
     style=" stroke:#000000; stroke-width:1;"     class="TAG:polyline"></polyline>
    <polyline points="18.781 31.4004 18.781 31.4004 18.781 31.6348 
     37.281 31.6348 48.125 26.2286"
     style=" stroke:#000000; stroke-width:1;"     class="TAG:polyline"></polyline>
    <polyline points="48.25 25.9004 48.25 25.9004"
     style=" stroke:#000000; stroke-width:1;"     class="TAG:polyline"></polyline>
    <polyline points="48.265 25.9043 48.265 25.9043 48.265 26.0528"
     style=" stroke:#000000; stroke-width:1;"     class="TAG:polyline"></polyline>
    <polyline points="74.922 15.8379 66.672 17.2129 83.359 17.2129 
     91.172 15.8379 74.922 15.8379"
     style=" stroke:#000000; stroke-width:1;"     class="TAG:polyline"></polyline>
    <polyline points="94.172 15.8379 85.922 17.2129 102.609 17.2129 
     110.422 15.8379 94.172 15.8379"
     style=" stroke:#000000; stroke-width:1;"     class="TAG:polyline"></polyline>
    <polyline points="113.047 15.8379 104.797 17.2129 121.484 17.2129 
     129.297 15.8379 113.047 15.8379"
     style=" stroke:#000000; stroke-width:1;"     class="TAG:polyline"></polyline>
    <polyline points="131.672 15.8379 123.422 17.2129 140.109 17.2129 
     147.922 15.8379 131.672 15.8379"
     style=" stroke:#000000; stroke-width:1;"     class="TAG:polyline"></polyline>
    <polyline points="103.734 17.4942 103.734 17.4942 101.453 22.9942"
     style=" stroke:#000000; stroke-width:1;"     class="TAG:polyline"></polyline>
    <polygon points="113.203 21.3692 137.953 21.3692 138.609 18.2442 
     113.859 18.2442 113.203 21.3692 "
     style=" stroke:#000000; stroke-width:1; fill:#ffa596; fill-opacity:100%"     class="TAG:polygon"></polygon>
    <polyline points="121.859 18.3692 121.328 21.3692"
     style=" stroke:#000000; stroke-width:1;"     class="TAG:polyline"></polyline>
    <polyline points="126.109 18.3692 125.578 21.3692"
     style=" stroke:#000000; stroke-width:1;"     class="TAG:polyline"></polyline>
    <polyline points="130.234 18.3692 129.703 21.4942"
     style=" stroke:#000000; stroke-width:1;"     class="TAG:polyline"></polyline>
    <polyline points="134.484 18.4942 133.953 21.6192"
     style=" stroke:#000000; stroke-width:1;"     class="TAG:polyline"></polyline>
    <polyline points="117.734 18.3692 117.203 21.3692"
     style=" stroke:#000000; stroke-width:1;"     class="TAG:polyline"></polyline>
    <polygon points="130.484 23.4942 130.484 23.4942 113.609 29.9942 
     92.609 29.9942 110.734 23.4942 130.484 23.4942 "
     style=" stroke:#000000; stroke-width:1; fill:#ffa596; fill-opacity:100%"     class="TAG:polygon"></polygon>
    <polyline points="110.734 23.4942 110.734 23.4942 110.734 29.9942"
     style=" stroke:#000000; stroke-width:1;"     class="TAG:polyline"></polyline>
    <polyline points="96.359 30.1192 96.359 30.1192 110.734 24.8692 
     127.109 24.8692"
     style=" stroke:#000000; stroke-width:1;"     class="TAG:polyline"></polyline>
    <polygon points="91.547 26.3223 82.547 33.0879 40.234 33.0879 
     54.422 26.3379 91.547 26.3223 91.547 26.3223 "
     style=" stroke:#000000; stroke-width:1; fill:#ffa596; fill-opacity:100%"     class="TAG:polygon"></polygon>
    <polyline points="91.484 26.3379 91.484 26.3379 91.234 27.3379 
     82.547 34.1504 40.859 34.0254 40.359 33.0879"
     style=" stroke:#000000; stroke-width:1;"     class="TAG:polyline"></polyline>
    <polygon points="89.547 26.9786 88.545 27.8379 83.234 27.8379 
     84.297 26.9786 89.547 26.9786 "
     style=" stroke:#000000; stroke-width:1; fill:#ffa596; fill-opacity:100%"     class="TAG:polygon"></polygon>
    <polygon points="77.765 26.9786 76.609 27.8223 69.922 27.8379 
     70.953 26.9473 77.765 26.9786 "
     style=" stroke:#000000; stroke-width:1; fill:#ffa596; fill-opacity:100%"     class="TAG:polygon"></polygon>
    <polygon points="70.078 26.9473 68.797 27.8223 62.422 27.8379 
     63.609 26.9473 70.078 26.9473 "
     style=" stroke:#000000; stroke-width:1; fill:#ffa596; fill-opacity:100%"     class="TAG:polygon"></polygon>
    <polygon points="62.828 26.9473 61.484 27.8223 55.047 27.8379 
     56.359 26.9473 62.828 26.9473 "
     style=" stroke:#000000; stroke-width:1; fill:#ffa596; fill-opacity:100%"     class="TAG:polygon"></polygon>
    <polygon points="83.609 26.9473 82.422 27.8223 77.422 27.8379 
     78.547 26.9473 83.609 26.9473 "
     style=" stroke:#000000; stroke-width:1; fill:#ffa596; fill-opacity:100%"     class="TAG:polygon"></polygon>
    <polygon points="53.984 26.9786 52.422 27.8223 54.265 27.8223 
     55.515 26.9786 53.984 26.9786 "
     style=" stroke:#000000; stroke-width:1; fill:#ffa596; fill-opacity:100%"     class="TAG:polygon"></polygon>
    <polyline points="87.672 28.4473 82.297 32.2754 76.859 32.2754 
     82.297 28.4629 87.672 28.4629"
     style=" stroke:#000000; stroke-width:1;"     class="TAG:polyline"></polyline>
    <polyline points="81.484 28.4473 79.609 29.6504 74.797 29.6504 
     76.547 28.4262 81.484 28.4262"
     style=" stroke:#000000; stroke-width:1;"     class="TAG:polyline"></polyline>
    <polyline points="77.172 31.3848 75.859 32.3379 71.047 32.3379 
     72.422 31.4004 77.172 31.4004"
     style=" stroke:#000000; stroke-width:1;"     class="TAG:polyline"></polyline>
    <polyline points="74.172 31.3848 74.172 31.3848 75.14 30.7598 
     76.203 30.7598 75.39 31.3848"
     style=" stroke:#000000; stroke-width:1;"     class="TAG:polyline"></polyline>
    <polygon points="75.703 28.4004 75.703 28.4004 51.578 28.4004 
     43.578 32.3379 70.265 32.3379 75.703 28.4004 "
     style=" stroke:#000000; stroke-width:1; fill:#ffa596; fill-opacity:100%"     class="TAG:polygon"></polygon>
    <polyline points="50.203 29.1504 50.203 29.1504 74.765 29.1504"
     style=" stroke:#000000; stroke-width:1;"     class="TAG:polyline"></polyline>
    <polyline points="48.578 29.9004 48.578 29.9004 73.64 29.9004"
     style=" stroke:#000000; stroke-width:1;"     class="TAG:polyline"></polyline>
    <polyline points="46.953 30.7129 46.953 30.7129 72.578 30.7129"
     style=" stroke:#000000; stroke-width:1;"     class="TAG:polyline"></polyline>
    <polyline points="45.265 31.5254 45.265 31.5254 71.39 31.5254"
     style=" stroke:#000000; stroke-width:1;"     class="TAG:polyline"></polyline>
    <polyline points="74.078 31.4004 74.078 31.4004 72.765 32.4004"
     style=" stroke:#000000; stroke-width:1;"     class="TAG:polyline"></polyline>
    <polyline points="75.328 31.4629 75.328 31.4629 74.015 32.4629"
     style=" stroke:#000000; stroke-width:1;"     class="TAG:polyline"></polyline>
    <polyline points="78.078 28.4004 78.078 28.4004 76.453 29.6504"
     style=" stroke:#000000; stroke-width:1;"     class="TAG:polyline"></polyline>
    <polyline points="79.453 28.4629 79.453 28.4629 77.828 29.7129"
     style=" stroke:#000000; stroke-width:1;"     class="TAG:polyline"></polyline>
    <polyline points="86.14 26.9004 86.14 26.9004 85.015 27.7754"
     style=" stroke:#000000; stroke-width:1;"     class="TAG:polyline"></polyline>
    <polyline points="87.64 26.9004 87.64 26.9004 86.578 27.8379"
     style=" stroke:#000000; stroke-width:1;"     class="TAG:polyline"></polyline>
    <polyline points="81.765 26.9004 81.765 26.9004 80.765 27.8379"
     style=" stroke:#000000; stroke-width:1;"     class="TAG:polyline"></polyline>
    <polyline points="80.078 26.9629 80.078 26.9629 79.015 27.8379"
     style=" stroke:#000000; stroke-width:1;"     class="TAG:polyline"></polyline>
    <polyline points="75.953 26.9004 75.953 26.9004 74.89 27.7754"
     style=" stroke:#000000; stroke-width:1;"     class="TAG:polyline"></polyline>
    <polyline points="74.203 26.9629 74.203 26.9629 73.14 27.8379"
     style=" stroke:#000000; stroke-width:1;"     class="TAG:polyline"></polyline>
    <polyline points="72.578 26.9004 72.578 26.9004 71.515 27.7754"
     style=" stroke:#000000; stroke-width:1;"     class="TAG:polyline"></polyline>
    <polyline points="68.14 26.9629 68.14 26.9629 67.078 27.8379"
     style=" stroke:#000000; stroke-width:1;"     class="TAG:polyline"></polyline>
    <polyline points="66.578 26.9629 66.578 26.9629 65.515 27.8379"
     style=" stroke:#000000; stroke-width:1;"     class="TAG:polyline"></polyline>
    <polyline points="65.078 26.9629 65.078 26.9629 64.015 27.8379"
     style=" stroke:#000000; stroke-width:1;"     class="TAG:polyline"></polyline>
    <polyline points="59.328 26.9004 59.328 26.9004 58.265 27.7754"
     style=" stroke:#000000; stroke-width:1;"     class="TAG:polyline"></polyline>
    <polyline points="60.765 26.9004 60.765 26.9004 59.703 27.7754"
     style=" stroke:#000000; stroke-width:1;"     class="TAG:polyline"></polyline>
    <polyline points="57.578 26.9004 57.578 26.9004 56.515 27.7754"
     style=" stroke:#000000; stroke-width:1;"     class="TAG:polyline"></polyline>
    <polyline points="83.39 28.4629 83.39 28.4629 78.078 32.2754"
     style=" stroke:#000000; stroke-width:1;"     class="TAG:polyline"></polyline>
    <polyline points="84.64 28.4629 84.64 28.4629 79.328 32.2754"
     style=" stroke:#000000; stroke-width:1;"     class="TAG:polyline"></polyline>
    <polyline points="86.015 28.4629 86.015 28.4629 80.703 32.2754"
     style=" stroke:#000000; stroke-width:1;"     class="TAG:polyline"></polyline>
    <polyline points="86.765 29.0254 86.765 29.0254 81.515 29.0254"
     style=" stroke:#000000; stroke-width:1;"     class="TAG:polyline"></polyline>
    <polyline points="85.765 29.7129 85.765 29.7129 80.515 29.7129"
     style=" stroke:#000000; stroke-width:1;"     class="TAG:polyline"></polyline>
    <polyline points="83.515 31.3379 83.515 31.3379 78.265 31.3379"
     style=" stroke:#000000; stroke-width:1;"     class="TAG:polyline"></polyline>
    <polyline points="84.765 30.4629 84.765 30.4629 79.515 30.4629"
     style=" stroke:#000000; stroke-width:1;"     class="TAG:polyline"></polyline>
    <polyline points="53.203 28.4004 53.203 28.4004 51.953 29.0879"
     style=" stroke:#000000; stroke-width:1;"     class="TAG:polyline"></polyline>
    <polyline points="54.953 28.4004 54.953 28.4004 53.703 29.0879"
     style=" stroke:#000000; stroke-width:1;"     class="TAG:polyline"></polyline>
    <polyline points="56.703 28.4629 56.703 28.4629 55.453 29.1504"
     style=" stroke:#000000; stroke-width:1;"     class="TAG:polyline"></polyline>
    <polyline points="58.203 28.4629 58.203 28.4629 56.953 29.1504"
     style=" stroke:#000000; stroke-width:1;"     class="TAG:polyline"></polyline>
    <polyline points="59.89 28.4629 59.89 28.4629 58.64 29.1504"
     style=" stroke:#000000; stroke-width:1;"     class="TAG:polyline"></polyline>
    <polyline points="61.578 28.4629 61.578 28.4629 60.328 29.1504"
     style=" stroke:#000000; stroke-width:1;"     class="TAG:polyline"></polyline>
    <polyline points="63.265 28.4629 63.265 28.4629 62.015 29.1504"
     style=" stroke:#000000; stroke-width:1;"     class="TAG:polyline"></polyline>
    <polyline points="65.078 28.4629 65.078 28.4629 63.828 29.1504"
     style=" stroke:#000000; stroke-width:1;"     class="TAG:polyline"></polyline>
    <polyline points="66.828 28.4629 66.828 28.4629 65.578 29.1504"
     style=" stroke:#000000; stroke-width:1;"     class="TAG:polyline"></polyline>
    <polyline points="68.703 28.4004 68.703 28.4004 67.453 29.0879"
     style=" stroke:#000000; stroke-width:1;"     class="TAG:polyline"></polyline>
    <polyline points="70.39 28.4629 70.39 28.4629 69.14 29.1504"
     style=" stroke:#000000; stroke-width:1;"     class="TAG:polyline"></polyline>
    <polyline points="72.14 28.4004 72.14 28.4004 70.89 29.0879"
     style=" stroke:#000000; stroke-width:1;"     class="TAG:polyline"></polyline>
    <polyline points="52.89 29.2129 52.89 29.2129 51.64 29.9004"
     style=" stroke:#000000; stroke-width:1;"     class="TAG:polyline"></polyline>
    <polyline points="54.703 29.2129 54.703 29.2129 53.453 29.9004"
     style=" stroke:#000000; stroke-width:1;"     class="TAG:polyline"></polyline>
    <polyline points="56.14 29.2129 56.14 29.2129 54.89 29.9004"
     style=" stroke:#000000; stroke-width:1;"     class="TAG:polyline"></polyline>
    <polyline points="57.89 29.2129 57.89 29.2129 56.64 29.9004"
     style=" stroke:#000000; stroke-width:1;"     class="TAG:polyline"></polyline>
    <polyline points="59.578 29.2129 59.578 29.2129 58.328 29.9004"
     style=" stroke:#000000; stroke-width:1;"     class="TAG:polyline"></polyline>
    <polyline points="61.453 29.1504 61.453 29.1504 60.203 29.8379"
     style=" stroke:#000000; stroke-width:1;"     class="TAG:polyline"></polyline>
    <polyline points="63.078 29.2129 63.078 29.2129 61.828 29.9004"
     style=" stroke:#000000; stroke-width:1;"     class="TAG:polyline"></polyline>
    <polyline points="64.765 29.2129 64.765 29.2129 63.515 29.9004"
     style=" stroke:#000000; stroke-width:1;"     class="TAG:polyline"></polyline>
    <polyline points="66.578 29.2129 66.578 29.2129 65.328 29.9004"
     style=" stroke:#000000; stroke-width:1;"     class="TAG:polyline"></polyline>
    <polyline points="68.265 29.2129 68.265 29.2129 67.015 29.9004"
     style=" stroke:#000000; stroke-width:1;"     class="TAG:polyline"></polyline>
    <polyline points="70.14 29.2129 70.14 29.2129 68.89 29.9004"
     style=" stroke:#000000; stroke-width:1;"     class="TAG:polyline"></polyline>
    <polyline points="72.078 29.1504 72.078 29.1504 70.828 29.8379"
     style=" stroke:#000000; stroke-width:1;"     class="TAG:polyline"></polyline>
    <polyline points="52.265 29.9629 52.265 29.9629 51.015 30.6504"
     style=" stroke:#000000; stroke-width:1;"     class="TAG:polyline"></polyline>
    <polyline points="54.015 29.9629 54.015 29.9629 52.765 30.6504"
     style=" stroke:#000000; stroke-width:1;"     class="TAG:polyline"></polyline>
    <polyline points="55.453 29.9629 55.453 29.9629 54.203 30.6504"
     style=" stroke:#000000; stroke-width:1;"     class="TAG:polyline"></polyline>
    <polyline points="57.14 29.9629 57.14 29.9629 55.89 30.6504"
     style=" stroke:#000000; stroke-width:1;"     class="TAG:polyline"></polyline>
    <polyline points="58.703 29.9629 58.703 29.9629 57.453 30.6504"
     style=" stroke:#000000; stroke-width:1;"     class="TAG:polyline"></polyline>
    <polyline points="61.015 29.9004 61.015 29.9004 59.765 30.5879"
     style=" stroke:#000000; stroke-width:1;"     class="TAG:polyline"></polyline>
    <polyline points="62.89 29.9004 62.89 29.9004 61.64 30.5879"
     style=" stroke:#000000; stroke-width:1;"     class="TAG:polyline"></polyline>
    <polyline points="64.515 29.9004 64.515 29.9004 63.265 30.5879"
     style=" stroke:#000000; stroke-width:1;"     class="TAG:polyline"></polyline>
    <polyline points="66.203 30.0254 66.203 30.0254 64.953 30.7129"
     style=" stroke:#000000; stroke-width:1;"     class="TAG:polyline"></polyline>
    <polyline points="67.703 29.9629 67.703 29.9629 66.453 30.6504"
     style=" stroke:#000000; stroke-width:1;"     class="TAG:polyline"></polyline>
    <polyline points="69.703 29.9629 69.703 29.9629 68.453 30.6504"
     style=" stroke:#000000; stroke-width:1;"     class="TAG:polyline"></polyline>
    <polyline points="51.953 30.7754 51.953 30.7754 50.703 31.4629"
     style=" stroke:#000000; stroke-width:1;"     class="TAG:polyline"></polyline>
    <polyline points="53.64 30.7129 53.64 30.7129 52.39 31.4004"
     style=" stroke:#000000; stroke-width:1;"     class="TAG:polyline"></polyline>
    <polyline points="55.328 30.7754 55.328 30.7754 54.078 31.4629"
     style=" stroke:#000000; stroke-width:1;"     class="TAG:polyline"></polyline>
    <polyline points="56.953 30.7754 56.953 30.7754 55.703 31.4629"
     style=" stroke:#000000; stroke-width:1;"     class="TAG:polyline"></polyline>
    <polyline points="59.14 30.7129 59.14 30.7129 57.89 31.4004"
     style=" stroke:#000000; stroke-width:1;"     class="TAG:polyline"></polyline>
    <polyline points="61.203 30.7129 61.203 30.7129 59.953 31.4004"
     style=" stroke:#000000; stroke-width:1;"     class="TAG:polyline"></polyline>
    <polyline points="62.765 30.7129 62.765 30.7129 61.515 31.4004"
     style=" stroke:#000000; stroke-width:1;"     class="TAG:polyline"></polyline>
    <polyline points="64.328 30.7129 64.328 30.7129 63.078 31.4004"
     style=" stroke:#000000; stroke-width:1;"     class="TAG:polyline"></polyline>
    <polyline points="65.828 30.7754 65.828 30.7754 64.578 31.4629"
     style=" stroke:#000000; stroke-width:1;"     class="TAG:polyline"></polyline>
    <polyline points="67.453 30.7129 67.453 30.7129 66.203 31.4004"
     style=" stroke:#000000; stroke-width:1;"     class="TAG:polyline"></polyline>
    <polyline points="48.64 31.5879 48.64 31.5879 47.39 32.2754"
     style=" stroke:#000000; stroke-width:1;"     class="TAG:polyline"></polyline>
    <polyline points="51.828 31.5254 51.828 31.5254 50.578 32.2129"
     style=" stroke:#000000; stroke-width:1;"     class="TAG:polyline"></polyline>
    <polyline points="53.203 31.5879 53.203 31.5879 51.953 32.2754"
     style=" stroke:#000000; stroke-width:1;"     class="TAG:polyline"></polyline>
    <polyline points="67.89 31.5879 67.89 31.5879 66.64 32.2754"
     style=" stroke:#000000; stroke-width:1;"     class="TAG:polyline"></polyline>
    <polyline points="65.515 31.5254 65.515 31.5254 64.265 32.2129"
     style=" stroke:#000000; stroke-width:1;"     class="TAG:polyline"></polyline>
    <polyline points="63.765 31.5254 63.765 31.5254 62.515 32.2129"
     style=" stroke:#000000; stroke-width:1;"     class="TAG:polyline"></polyline>
    <polyline points="112.078 36.1817 112.078 36.1817 112.078 108.682"
     style=" stroke:#000000; stroke-width:1;"     class="TAG:polyline"></polyline>
    <polyline points="130.078 36.9317 130.078 36.9317 130.078 108.807"
     style=" stroke:#000000; stroke-width:1;"     class="TAG:polyline"></polyline>
    <polyline points="151.672 15.9629 143.422 17.3379 160.11 17.3379 
     167.922 15.9629 151.672 15.9629"
     style=" stroke:#000000; stroke-width:1;"     class="TAG:polyline"></polyline>
    <polygon points="114.703 105.494 126.703 105.494 126.703 90.3692 
     114.703 90.3692 114.703 105.494 "
     style=" stroke:#000000; stroke-width:1; fill:#ffa596; fill-opacity:100%"     class="TAG:polygon"></polygon>
    <polyline points="172.797 15.8379 164.547 17.2129 192.203 17.1192 
     201.078 15.7442 172.797 15.8379"
     style=" stroke:#000000; stroke-width:1;"     class="TAG:polyline"></polyline>
    <polyline points="192.578 22.9942 192.578 22.9942 193.953 17.3692 
     205.453 15.3692"
     style=" stroke:#000000; stroke-width:1;"     class="TAG:polyline"></polyline>
    <polyline points="113.328 29.9942 113.328 29.9942 215.203 29.9942 
     217.016 29.7129 218.766 28.9004 219.641 27.6504 220.891 27.0879 
     222.703 26.7754 224.328 26.7754 361.578 26.6817"
     style=" stroke:#000000; stroke-width:1;"     class="TAG:polyline"></polyline>
    <polyline points="192.391 108.752 192.453 36.752 215.703 23.0567"
     style=" stroke:#000000; stroke-width:1;"     class="TAG:polyline"></polyline>
    <polyline points="215.953 23.0567 216.953 17.5567 229.703 15.3692"
     style=" stroke:#000000; stroke-width:1;"     class="TAG:polyline"></polyline>
    <polyline points="205.547 15.8379 197.297 17.2129 216.578 17.1192 
     223.828 15.7442 205.547 15.8379"
     style=" stroke:#000000; stroke-width:1;"     class="TAG:polyline"></polyline>
    <polyline points="230.297 15.8379 222.047 17.2129 241.328 17.1192 
     248.578 15.7442 230.297 15.8379"
     style=" stroke:#000000; stroke-width:1;"     class="TAG:polyline"></polyline>
    <polyline points="242.016 17.4004 241.078 23.0254"
     style=" stroke:#000000; stroke-width:1;"     class="TAG:polyline"></polyline>
    <polyline points="241.953 17.4942 241.953 17.4942 252.203 15.3692"
     style=" stroke:#000000; stroke-width:1;"     class="TAG:polyline"></polyline>
    <polyline points="252.328 15.4317 252.328 17.2129"
     style=" stroke:#000000; stroke-width:1;"     class="TAG:polyline"></polyline>
    <polyline points="220.656 108.641 226.75 104.141"
     style=" stroke:#000000; stroke-width:1;"     class="TAG:polyline"></polyline>
    <polyline points="226.703 103.744 226.703 42.9942 225.203 36.1817 
     224.703 34.0254 241.203 23.0254 244.703 18.6817 252.328 17.2129"
     style=" stroke:#000000; stroke-width:1;"     class="TAG:polyline"></polyline>
    <polyline points="252.328 17.2129 376.953 17.1817"
     style=" stroke:#000000; stroke-width:1;"     class="TAG:polyline"></polyline>
    <polyline points="244.828 18.6817 244.828 18.6817 370.203 18.6817"
     style=" stroke:#000000; stroke-width:1;"     class="TAG:polyline"></polyline>
    <polyline points="240.953 23.0567 240.953 23.0567 366.953 23.0567"
     style=" stroke:#000000; stroke-width:1;"     class="TAG:polyline"></polyline>
    <polyline points="224.703 34.1192 224.703 34.1192 351.703 34.0567"
     style=" stroke:#000000; stroke-width:1;"     class="TAG:polyline"></polyline>
    <polyline points="226.703 42.4942 226.703 42.4942 351.953 42.4942"
     style=" stroke:#000000; stroke-width:1;"     class="TAG:polyline"></polyline>
    <polyline points="237.359 33.7598 246.453 26.9942 247.078 26.9629 
     237.797 33.8223"
     style=" stroke:#000000; stroke-width:1;"     class="TAG:polyline"></polyline>
    <polyline points="235.766 27.0254 235.766 27.0254 225.641 33.8379 
     352.203 33.8067"
     style=" stroke:#000000; stroke-width:1;"     class="TAG:polyline"></polyline>
    <polyline points="242.984 33.8223 252.078 27.0567 252.703 27.0254 
     243.422 33.8848"
     style=" stroke:#000000; stroke-width:1;"     class="TAG:polyline"></polyline>
    <polyline points="248.734 33.7598 257.828 26.9942 258.453 26.9629 
     249.172 33.8223"
     style=" stroke:#000000; stroke-width:1;"     class="TAG:polyline"></polyline>
    <polyline points="254.234 33.7598 263.328 26.9942 263.953 26.9629 
     254.672 33.8223"
     style=" stroke:#000000; stroke-width:1;"     class="TAG:polyline"></polyline>
    <polyline points="259.484 33.8223 268.578 27.0567 269.203 27.0254 
     259.921 33.8848"
     style=" stroke:#000000; stroke-width:1;"     class="TAG:polyline"></polyline>
    <polyline points="265.234 33.7598 274.328 26.9942 274.953 26.9629 
     265.671 33.8223"
     style=" stroke:#000000; stroke-width:1;"     class="TAG:polyline"></polyline>
    <polyline points="270.734 33.6973 279.828 26.9317 280.453 26.9004 
     271.171 33.7598"
     style=" stroke:#000000; stroke-width:1;"     class="TAG:polyline"></polyline>
    <polyline points="231.234 33.6973 240.328 26.9317 240.953 26.9004 
     231.672 33.7598"
     style=" stroke:#000000; stroke-width:1;"     class="TAG:polyline"></polyline>
    <polyline points="310.703 104.244 310.828 33.8067 325.828 22.9317 
     329.203 18.5567 335.828 17.1817"
     style=" stroke:#000000; stroke-width:1;"     class="TAG:polyline"></polyline>
    <polyline points="282.984 33.5098 292.078 26.7442 292.703 26.7129 
     283.421 33.5723"
     style=" stroke:#000000; stroke-width:1;"     class="TAG:polyline"></polyline>
    <polyline points="288.609 33.5723 297.703 26.8067 298.328 26.7754 
     289.046 33.6348"
     style=" stroke:#000000; stroke-width:1;"     class="TAG:polyline"></polyline>
    <polyline points="294.359 33.5098 303.453 26.7442 304.078 26.7129 
     294.796 33.5723"
     style=" stroke:#000000; stroke-width:1;"     class="TAG:polyline"></polyline>
    <polyline points="299.859 33.5098 308.953 26.7442 309.578 26.7129 
     300.296 33.5723"
     style=" stroke:#000000; stroke-width:1;"     class="TAG:polyline"></polyline>
    <polyline points="305.109 33.5723 314.203 26.8067 314.828 26.7754 
     305.546 33.6348"
     style=" stroke:#000000; stroke-width:1;"     class="TAG:polyline"></polyline>
    <polyline points="310.859 33.5098 319.953 26.7442 320.578 26.7129 
     311.296 33.5723"
     style=" stroke:#000000; stroke-width:1;"     class="TAG:polyline"></polyline>
    <polyline points="276.859 33.4473 285.953 26.6817 286.578 26.6504 
     277.296 33.5098"
     style=" stroke:#000000; stroke-width:1;"     class="TAG:polyline"></polyline>
    <polyline points="351.453 104.244 351.578 34.0567 366.578 23.1817 
     369.953 18.8067 377.203 17.1817"
     style=" stroke:#000000; stroke-width:1;"     class="TAG:polyline"></polyline>
    <polyline points="323.734 33.7598 332.828 26.9942 333.453 26.9629 
     324.171 33.8223"
     style=" stroke:#000000; stroke-width:1;"     class="TAG:polyline"></polyline>
    <polyline points="329.359 33.8223 338.453 27.0567 339.078 27.0254 
     329.796 33.8848"
     style=" stroke:#000000; stroke-width:1;"     class="TAG:polyline"></polyline>
    <polyline points="335.109 33.7598 344.203 26.9942 344.828 26.9629 
     335.546 33.8223"
     style=" stroke:#000000; stroke-width:1;"     class="TAG:polyline"></polyline>
    <polyline points="340.609 33.7598 349.703 26.9942 350.328 26.9629 
     341.047 33.8223"
     style=" stroke:#000000; stroke-width:1;"     class="TAG:polyline"></polyline>
    <polyline points="345.859 33.8223 354.953 27.0567 355.578 27.0254 
     346.297 33.8848"
     style=" stroke:#000000; stroke-width:1;"     class="TAG:polyline"></polyline>
    <polyline points="351.609 33.7598 360.703 26.9942 361.328 26.9629 
     352.047 33.8223"
     style=" stroke:#000000; stroke-width:1;"     class="TAG:polyline"></polyline>
    <polyline points="317.609 33.6973 326.703 26.9317 327.328 26.9004 
     318.046 33.7598"
     style=" stroke:#000000; stroke-width:1;"     class="TAG:polyline"></polyline>
    <polyline points="377.203 17.1817 377.203 17.1817 377.203 80.4942 
     351.703 103.994"
     style=" stroke:#000000; stroke-width:1;"     class="TAG:polyline"></polyline>
    <g>
      <desc>METIS_TEXT_GROUP</desc>
      <text  x="10.609" y="145.404"
       style=" stroke:#000000; stroke-width:1; font-family:sans-serif; font-size:18; text-align:center"
       class="TAG:text">text</text>
      <rect x="10.609" y="127.404" width="341" height="72.8452"
       style=" stroke:#000000; stroke-width:1; fill:#000000; fill-opacity:0%"></rect>
    </g>
  </symbol>
 </defs>
</svg>
