<?xml version="1.0"?>
<?metis version="3.0.1"?>
<?metisxml version="1.0"?>
<!DOCTYPE svg  PUBLIC "-//W3C//DTD SVG August 1999//EN"
 "http://www.w3.org/Graphics/SVG/svg-19990812.dtd">

<svg width="200" height="200">
 <title>Symbol library: image_processing.svg</title>
 <defs>
  <symbol id="oid0" xml:space="preserve" class="METIS_SYMBOL">
    <g>
      <polygon points="36.2903 28.9346 57.8023 21.834 57.8023 20.5918 
       61.3843 20.5908 64.5403 19.6221 76.1963 19.6221 79.7903 17.9658 
       79.8023 0.875 85.4233 0 105.54 0 105.54 3.2705 
       111.79 3.833 111.79 14.2705 105.54 17.458 105.477 18.8955 
       102.29 20.208 98.8523 20.208 98.8373 20.5517 101.805 20.5517 
       107.462 19.458 119.962 19.458 119.899 23.208 128.899 23.1767 
       128.899 26.0517 151.852 26.0205 151.821 38.0205 146.665 41.2392 
       142.915 41.2392 142.352 42.9267 130.04 47.6767 125.884 47.6767 
       122.852 43.958 119.259 45.3955 117.352 47.6767 115.321 47.6767 
       113.04 43.1142 92.6653 43.1142 92.6653 42.2392 75.9773 42.2392 
       67.6773 48.3721 33.2903 48.3408 33.2273 47.7783 42.1023 42.3408 
       36.2903 42.3408 36.2903 28.9346 "
       style=" stroke:#000000; stroke-width:1; fill:#fff16f; fill-opacity:100%"       class="TAG:polygon"></polygon>
      <polygon points="79.8023 20.251 102.302 20.251 102.302 0.876 
       79.8023 0.876 79.8023 20.251 "
       style=" stroke:#000000; stroke-width:1; fill:#fff16f; fill-opacity:100%"       class="TAG:polygon"></polygon>
      <polyline points="120.231 23.2213 120.231 23.2213 128.918 23.19 
       128.918 26.0025"
       style=" stroke:#000000; stroke-width:1;"       class="TAG:polyline"></polyline>
      <polyline points="118.981 27.7213 118.981 27.7213 128.731 23.4713"
       style=" stroke:#000000; stroke-width:1;"       class="TAG:polyline"></polyline>
      <polyline points="98.4273 26.501 99.4813 20.9713 114.802 20.876 
       113.981 26.4713 98.5523 26.376"
       style=" stroke:#000000; stroke-width:1;"       class="TAG:polyline"></polyline>
      <polyline points="99.7313 20.9713 99.7313 20.9713 107.481 19.4713 
       119.981 19.4713 119.927 23.251 114.052 26.251"
       style=" stroke:#000000; stroke-width:1;"       class="TAG:polyline"></polyline>
      <polyline points="114.677 21.001 119.981 19.4713"
       style=" stroke:#000000; stroke-width:1;"       class="TAG:polyline"></polyline>
      <polyline points="104.481 20.2213 104.481 20.2213 117.231 20.2213 
       117.231 24.9713 125.481 24.9713 125.481 26.9088"
       style=" stroke:#000000; stroke-width:1;"       class="TAG:polyline"></polyline>
      <polyline points="98.6773 25.001 91.2393 27.9072"
       style=" stroke:#000000; stroke-width:1;"       class="TAG:polyline"></polyline>
      <polyline points="127.278 26.026 121.606 28.5807 121.606 34.9088 
       121.606 28.5963 127.293 26.0338 151.856 26.0338 127.231 26.0338"
       style=" stroke:#000000; stroke-width:1;"       class="TAG:polyline"></polyline>
      <polyline points="121.606 28.6588 121.606 28.6588 146.731 28.6588"
       style=" stroke:#000000; stroke-width:1;"       class="TAG:polyline"></polyline>
      <polyline points="151.856 26.0338 151.856 26.0338 151.856 38.0338 
       146.606 41.2838"
       style=" stroke:#000000; stroke-width:1;"       class="TAG:polyline"></polyline>
      <polyline points="125.481 26.8775 125.481 26.8775 140.231 26.8775 
       141.481 26.8619 142.106 27.0494 142.325 27.3619 142.325 27.7057 
       142.043 28.1744 140.918 28.69 140.918 33.815"
       style=" stroke:#000000; stroke-width:1;"       class="TAG:polyline"></polyline>
      <polyline points="130.793 26.8619 130.825 26.8619 131.45 27.0494 
       131.668 27.3619 131.668 27.7057 131.387 28.1744 130.293 28.69 
       130.293 33.94"
       style=" stroke:#000000; stroke-width:1;"       class="TAG:polyline"></polyline>
      <polyline points="121.606 33.315 121.606 33.315 111.106 37.94 
       111.106 39.44 115.356 47.69 117.356 47.69 121.668 42.5338 
       125.856 47.69 127.731 47.69 129.981 47.69 131.106 45.69 
       131.106 43.065 129.106 39.4088 129.106 37.9088 111.106 37.94"
       style=" stroke:#000000; stroke-width:1;"       class="TAG:polyline"></polyline>
      <polyline points="119.293 45.4088 119.293 45.4088 122.793 43.9713"
       style=" stroke:#000000; stroke-width:1;"       class="TAG:polyline"></polyline>
      <polyline points="129.106 37.9088 129.106 37.9088 141.168 33.7213"
       style=" stroke:#000000; stroke-width:1;"       class="TAG:polyline"></polyline>
      <polyline points="129.106 39.4713 129.106 39.4713 141.168 35.1588 
       142.918 38.6588 142.918 41.2838 142.356 42.9088 129.981 47.7213"
       style=" stroke:#000000; stroke-width:1;"       class="TAG:polyline"></polyline>
      <polyline points="131.106 42.9713 131.106 42.9713 142.856 38.6588"
       style=" stroke:#000000; stroke-width:1;"       class="TAG:polyline"></polyline>
      <polyline points="131.106 45.6588 131.106 45.6588 143.106 41.1588"
       style=" stroke:#000000; stroke-width:1;"       class="TAG:polyline"></polyline>
      <polyline points="130.481 33.9088 130.481 33.9088 120.543 37.9088"
       style=" stroke:#000000; stroke-width:1;"       class="TAG:polyline"></polyline>
      <polyline points="121.606 34.8463 121.606 34.8463 122.606 37.1588"
       style=" stroke:#000000; stroke-width:1;"       class="TAG:polyline"></polyline>
      <polyline points="130.543 35.4088 130.543 35.4088 131.481 37.0963"
       style=" stroke:#000000; stroke-width:1;"       class="TAG:polyline"></polyline>
      <polyline points="151.856 26.0025 151.856 26.0025 146.731 28.6275 
       146.731 41.2525 142.918 41.2525"
       style=" stroke:#000000; stroke-width:1;"       class="TAG:polyline"></polyline>
      <polyline points="91.3023 27.9072 119.043 27.9088 119.043 34.5025"
       style=" stroke:#000000; stroke-width:1;"       class="TAG:polyline"></polyline>
      <polyline points="141.106 35.1275 141.106 35.1275 141.106 33.69"
       style=" stroke:#000000; stroke-width:1;"       class="TAG:polyline"></polyline>
      <polyline points="130.543 33.8775 130.543 33.8775 130.543 35.5025"
       style=" stroke:#000000; stroke-width:1;"       class="TAG:polyline"></polyline>
      <polyline points="91.3023 27.876 91.3023 27.876 91.3023 41.501 
       112.177 41.501"
       style=" stroke:#000000; stroke-width:1;"       class="TAG:polyline"></polyline>
      <polyline points="91.4273 39.126 91.8023 39.126 111.052 39.126"
       style=" stroke:#000000; stroke-width:1;"       class="TAG:polyline"></polyline>
      <polygon points="91.9273 41.126 93.9273 41.126 93.9273 40.501 
       91.9273 40.501 91.9273 41.126 "
       style=" stroke:#000000; stroke-width:1; fill:#fff16f; fill-opacity:100%"       class="TAG:polygon"></polygon>
      <polyline points="92.6773 41.501 92.6773 41.501 92.6773 43.126 
       113.052 43.126"
       style=" stroke:#000000; stroke-width:1;"       class="TAG:polyline"></polyline>
      <polygon points="82.6773 17.501 99.5523 17.501 99.5523 3.626 
       82.6773 3.626 82.6773 17.501 "
       style=" stroke:#000000; stroke-width:1; fill:#fff16f; fill-opacity:100%"       class="TAG:polygon"></polygon>
      <polyline points="79.8023 0.876 79.8023 0.876 85.4273 0.001 
       105.54 0 105.552 18.876 102.302 20.251"
       style=" stroke:#000000; stroke-width:1;"       class="TAG:polyline"></polyline>
      <polyline points="102.302 0.876 102.302 0.876 105.552 0.0039"
       style=" stroke:#000000; stroke-width:1;"       class="TAG:polyline"></polyline>
      <polyline points="105.677 3.876 111.78 3.875 111.802 14.251 
       105.552 17.501"
       style=" stroke:#000000; stroke-width:1;"       class="TAG:polyline"></polyline>
      <polyline points="111.784 3.8281 105.55 3.2656"
       style=" stroke:#000000; stroke-width:1;"       class="TAG:polyline"></polyline>
      <polyline points="84.4893 20.2197 84.5213 21.6728 85.1143 22.2041 
       86.2393 22.5166 87.7393 22.6416 91.7713 22.7041 96.0523 22.5791 
       97.1143 22.3916 98.1143 22.0791 98.8643 21.6728 98.8643 20.2353"
       style=" stroke:#000000; stroke-width:1;"       class="TAG:polyline"></polyline>
      <polyline points="84.4893 20.5322 84.4893 20.5322 82.5523 20.626 
       76.6773 23.1572 98.9893 23.1572"
       style=" stroke:#000000; stroke-width:1;"       class="TAG:polyline"></polyline>
      <polyline points="80.9273 20.251 80.9273 20.251 68.3023 25.751 
       65.1773 35.376 89.3023 35.376 91.6773 25.751 96.8023 25.751"
       style=" stroke:#000000; stroke-width:1;"       class="TAG:polyline"></polyline>
      <polyline points="76.8023 23.126 76.8023 23.126 76.8023 24.376"
       style=" stroke:#000000; stroke-width:1;"       class="TAG:polyline"></polyline>
      <polyline points="71.6773 24.376 71.6773 24.376 98.8023 24.376"
       style=" stroke:#000000; stroke-width:1;"       class="TAG:polyline"></polyline>
      <polyline points="79.8023 17.9697 66.3023 24.0947 51.4273 24.0947"
       style=" stroke:#000000; stroke-width:1;"       class="TAG:polyline"></polyline>
      <polyline points="59.4273 36.751 62.4273 35.501 65.6773 25.751 
       92.9273 25.751"
       style=" stroke:#000000; stroke-width:1;"       class="TAG:polyline"></polyline>
      <polyline points="65.8023 33.376 65.8023 33.376 89.8023 33.376"
       style=" stroke:#000000; stroke-width:1;"       class="TAG:polyline"></polyline>
      <polyline points="59.5523 36.751 59.5523 36.751 36.3023 36.7197"
       style=" stroke:#000000; stroke-width:1;"       class="TAG:polyline"></polyline>
      <polyline points="75.9273 19.626 75.9273 19.626 64.5523 19.626 
       61.3023 20.626"
       style=" stroke:#000000; stroke-width:1;"       class="TAG:polyline"></polyline>
      <polyline points="71.5523 21.501 71.5523 21.501 67.9273 21.4697"
       style=" stroke:#000000; stroke-width:1;"       class="TAG:polyline"></polyline>
      <polyline points="59.6773 28.7197 59.6773 36.7197"
       style=" stroke:#000000; stroke-width:1;"       class="TAG:polyline"></polyline>
      <polyline points="62.8023 30.376 62.8023 30.376"
       style=" stroke:#000000; stroke-width:1;"       class="TAG:polyline"></polyline>
      <polyline points="59.4273 36.751 59.4273 36.751 91.3023 36.751"
       style=" stroke:#000000; stroke-width:1;"       class="TAG:polyline"></polyline>
      <polyline points="91.3023 40.751 91.3023 40.751 64.9273 40.751 
       64.9273 42.251 92.8023 42.251"
       style=" stroke:#000000; stroke-width:1;"       class="TAG:polyline"></polyline>
      <polyline points="64.9273 40.751 64.9273 40.751"
       style=" stroke:#000000; stroke-width:1;"       class="TAG:polyline"></polyline>
      <polyline points="64.9273 40.7197 64.9273 40.7197"
       style=" stroke:#000000; stroke-width:1;"       class="TAG:polyline"></polyline>
      <polyline points="64.9273 40.7353 64.9273 40.7353 64.5213 40.7353 
       64.5213 42.4228 36.4273 42.3447"
       style=" stroke:#000000; stroke-width:1;"       class="TAG:polyline"></polyline>
      <polyline points="65.1773 41.7666 65.1773 41.7666 64.7713 41.9541"
       style=" stroke:#000000; stroke-width:1;"       class="TAG:polyline"></polyline>
      <polyline points="67.9273 22.5947 67.9273 20.5947 57.8023 20.5947 
       57.8023 22.3594"
       style=" stroke:#000000; stroke-width:1;"       class="TAG:polyline"></polyline>
      <polyline points="65.6773 25.7197 65.6773 25.7197 59.5523 28.7197"
       style=" stroke:#000000; stroke-width:1;"       class="TAG:polyline"></polyline>
      <polyline points="59.6773 28.8447 59.6773 28.8447 36.4273 28.8447"
       style=" stroke:#000000; stroke-width:1;"       class="TAG:polyline"></polyline>
      <polyline points="67.9273 22.4697 67.9273 22.4697 57.8023 22.4697"
       style=" stroke:#000000; stroke-width:1;"       class="TAG:polyline"></polyline>
      <polyline points="57.8013 21.8369 36.5573 28.8467"
       style=" stroke:#000000; stroke-width:1;"       class="TAG:polyline"></polyline>
      <polyline points="36.3023 28.9697 36.3023 28.9697 36.3023 42.3447"
       style=" stroke:#000000; stroke-width:1;"       class="TAG:polyline"></polyline>
      <polygon points="33.1773 47.7822 67.6773 47.7822 75.9273 41.5322 
       43.4273 41.5322 33.1773 47.7822 "
       style=" stroke:#000000; stroke-width:1; fill:#fff16f; fill-opacity:100%"       class="TAG:polygon"></polygon>
      <polyline points="75.9273 41.4697 75.9273 41.4697"
       style=" stroke:#000000; stroke-width:1;"       class="TAG:polyline"></polyline>
      <polyline points="75.9273 41.5166 75.9273 41.5166 75.9273 42.3603 
       67.6773 48.376 33.3023 48.3447 33.2393 47.751"
       style=" stroke:#000000; stroke-width:1;"       class="TAG:polyline"></polyline>
      <polygon points="73.9583 42.1416 69.2713 42.1416 68.1773 42.9853 
       72.8333 42.9853 73.9583 42.1416 "
       style=" stroke:#000000; stroke-width:1; fill:#fff16f; fill-opacity:100%"       class="TAG:polygon"></polygon>
      <polygon points="71.9273 43.3135 67.2393 46.6885 63.0523 46.6885 
       67.9273 43.3135 71.9273 43.3135 "
       style=" stroke:#000000; stroke-width:1; fill:#fff16f; fill-opacity:100%"       class="TAG:polygon"></polygon>
      <polygon points="68.5523 41.6572 68.5523 41.6572 67.6143 42.2666 
       63.7713 42.2666 64.8643 41.6572 68.5523 41.6572 "
       style=" stroke:#000000; stroke-width:1; fill:#fff16f; fill-opacity:100%"       class="TAG:polygon"></polygon>
      <polygon points="44.1463 41.6416 42.9893 42.2978 44.2393 42.2978 
       45.3963 41.6416 44.1463 41.6416 "
       style=" stroke:#000000; stroke-width:1; fill:#fff16f; fill-opacity:100%"       class="TAG:polygon"></polygon>
      <polygon points="64.1143 41.6416 62.8643 42.3291 57.4893 42.3291 
       58.6143 41.6416 64.1143 41.6416 "
       style=" stroke:#000000; stroke-width:1; fill:#fff16f; fill-opacity:100%"       class="TAG:polygon"></polygon>
      <polygon points="42.5523 43.251 38.4273 45.8135 57.1773 45.8135 
       61.3643 43.2666 42.5523 43.251 "
       style=" stroke:#000000; stroke-width:1; fill:#fff16f; fill-opacity:100%"       class="TAG:polygon"></polygon>
      <polygon points="62.0523 43.2353 60.0523 44.4228 64.8643 44.4385 
       66.6463 43.2353 62.0523 43.2353 "
       style=" stroke:#000000; stroke-width:1; fill:#fff16f; fill-opacity:100%"       class="TAG:polygon"></polygon>
      <polygon points="62.7393 45.9385 62.7393 45.9385 61.6773 46.6728 
       57.6773 46.6728 58.8963 45.9385 62.7393 45.9385 "
       style=" stroke:#000000; stroke-width:1; fill:#fff16f; fill-opacity:100%"       class="TAG:polygon"></polygon>
      <polygon points="60.9303 45.2978 60.0523 45.9228 61.1933 45.9228 
       62.1143 45.2978 60.9303 45.2978 "
       style=" stroke:#000000; stroke-width:1; fill:#fff16f; fill-opacity:100%"       class="TAG:polygon"></polygon>
      <polyline points="70.7393 42.1728 70.7393 42.1728 69.6463 42.9853"
       style=" stroke:#000000; stroke-width:1;"       class="TAG:polyline"></polyline>
      <polyline points="72.2713 42.1728 72.2713 42.1728 71.1463 43.0166"
       style=" stroke:#000000; stroke-width:1;"       class="TAG:polyline"></polyline>
      <polyline points="70.8643 43.3291 70.8643 43.3291 70.1143 43.8291"
       style=" stroke:#000000; stroke-width:1;"       class="TAG:polyline"></polyline>
      <polyline points="70.8963 43.2978 70.8963 43.2978 66.1773 46.7041"
       style=" stroke:#000000; stroke-width:1;"       class="TAG:polyline"></polyline>
      <polyline points="69.8643 43.2666 69.8643 43.2666 65.1463 46.6728"
       style=" stroke:#000000; stroke-width:1;"       class="TAG:polyline"></polyline>
      <polyline points="68.8023 43.2978 68.8023 43.2978 65.0833 45.8916"
       style=" stroke:#000000; stroke-width:1;"       class="TAG:polyline"></polyline>
      <polyline points="67.0523 43.8603 67.0523 43.8603 71.1463 43.8603"
       style=" stroke:#000000; stroke-width:1;"       class="TAG:polyline"></polyline>
      <polyline points="66.1773 44.4541 66.1773 44.4541 70.2713 44.4541"
       style=" stroke:#000000; stroke-width:1;"       class="TAG:polyline"></polyline>
      <polyline points="65.1463 45.2041 65.1463 45.2041 69.2393 45.2041"
       style=" stroke:#000000; stroke-width:1;"       class="TAG:polyline"></polyline>
      <polyline points="64.2393 45.8916 64.2393 45.8916 68.3333 45.8916"
       style=" stroke:#000000; stroke-width:1;"       class="TAG:polyline"></polyline>
      <polyline points="71.8963 43.2978 71.8963 43.2978 71.8963 43.9541 
       67.2713 47.3603 63.0523 47.3603 63.0523 46.6728"
       style=" stroke:#000000; stroke-width:1;"       class="TAG:polyline"></polyline>
      <polyline points="67.2393 46.6728 67.2393 46.6728 67.2393 47.3916"
       style=" stroke:#000000; stroke-width:1;"       class="TAG:polyline"></polyline>
      <polyline points="66.2393 46.6728 66.2393 46.6728 66.2393 47.3916"
       style=" stroke:#000000; stroke-width:1;"       class="TAG:polyline"></polyline>
      <polyline points="65.1773 46.6728 65.1773 46.6728 65.1773 47.3916"
       style=" stroke:#000000; stroke-width:1;"       class="TAG:polyline"></polyline>
      <polyline points="68.3023 45.9228 68.3023 45.9228 68.3023 46.6416"
       style=" stroke:#000000; stroke-width:1;"       class="TAG:polyline"></polyline>
      <polyline points="69.2713 45.2353 69.2713 45.2353 69.2713 45.9541"
       style=" stroke:#000000; stroke-width:1;"       class="TAG:polyline"></polyline>
      <polyline points="70.3023 44.4853 70.3023 44.4853 70.3023 45.2041"
       style=" stroke:#000000; stroke-width:1;"       class="TAG:polyline"></polyline>
      <polyline points="71.1463 43.8916 71.1463 43.8916 71.1463 44.6103"
       style=" stroke:#000000; stroke-width:1;"       class="TAG:polyline"></polyline>
      <polyline points="67.1773 41.6416 67.1773 41.6416 66.1143 42.2666"
       style=" stroke:#000000; stroke-width:1;"       class="TAG:polyline"></polyline>
      <polyline points="65.9583 41.6416 65.9583 41.6416 64.8963 42.2353"
       style=" stroke:#000000; stroke-width:1;"       class="TAG:polyline"></polyline>
      <polyline points="65.2083 43.2666 65.2083 43.2666 63.2713 44.4853"
       style=" stroke:#000000; stroke-width:1;"       class="TAG:polyline"></polyline>
      <polyline points="63.7393 43.2353 63.7393 43.2353 61.8023 44.4541"
       style=" stroke:#000000; stroke-width:1;"       class="TAG:polyline"></polyline>
      <polyline points="61.0833 43.7978 65.8333 43.7978"
       style=" stroke:#000000; stroke-width:1;"       class="TAG:polyline"></polyline>
      <polyline points="61.2083 45.9228 61.2083 45.9228 60.0523 46.6728"
       style=" stroke:#000000; stroke-width:1;"       class="TAG:polyline"></polyline>
      <polyline points="60.0523 45.9228 60.0523 45.9228 58.8963 46.6728"
       style=" stroke:#000000; stroke-width:1;"       class="TAG:polyline"></polyline>
      <polyline points="68.5523 41.6103 68.5523 41.6103 68.5523 42.2041 
       67.5833 42.9853 63.7083 42.9853"
       style=" stroke:#000000; stroke-width:1;"       class="TAG:polyline"></polyline>
      <polyline points="67.5523 42.2978 67.5523 42.2978 67.5523 42.8916"
       style=" stroke:#000000; stroke-width:1;"       class="TAG:polyline"></polyline>
      <polyline points="66.2083 42.2978 66.2083 42.2978 66.2083 42.9853"
       style=" stroke:#000000; stroke-width:1;"       class="TAG:polyline"></polyline>
      <polyline points="64.9893 42.2978 64.9893 42.2978 64.9893 42.9853"
       style=" stroke:#000000; stroke-width:1;"       class="TAG:polyline"></polyline>
      <polyline points="63.7393 42.2666 63.7393 42.2666 63.7393 43.0166"
       style=" stroke:#000000; stroke-width:1;"       class="TAG:polyline"></polyline>
      <polyline points="66.6463 43.2353 66.6463 43.2353 66.6463 43.7978 
       64.8643 45.1416 60.0523 45.1416 60.0523 44.4228"
       style=" stroke:#000000; stroke-width:1;"       class="TAG:polyline"></polyline>
      <polyline points="65.7713 43.8291 65.7713 43.8291 65.7713 44.4228"
       style=" stroke:#000000; stroke-width:1;"       class="TAG:polyline"></polyline>
      <polyline points="64.8643 44.4541 64.8643 44.4541 64.8643 45.1728"
       style=" stroke:#000000; stroke-width:1;"       class="TAG:polyline"></polyline>
      <polyline points="63.3643 44.4541 63.3643 44.4541 63.3643 45.1728"
       style=" stroke:#000000; stroke-width:1;"       class="TAG:polyline"></polyline>
      <polyline points="61.8333 44.4541 61.8333 44.4541 61.8333 45.1728"
       style=" stroke:#000000; stroke-width:1;"       class="TAG:polyline"></polyline>
      <polyline points="62.0833 45.2978 62.0833 45.2978 62.0833 45.9541"
       style=" stroke:#000000; stroke-width:1;"       class="TAG:polyline"></polyline>
      <polyline points="62.7083 45.9228 62.7083 45.9228 62.7083 46.6416 
       61.6773 47.4228 57.6463 47.4228 57.6463 46.6728"
       style=" stroke:#000000; stroke-width:1;"       class="TAG:polyline"></polyline>
      <polyline points="61.7083 46.6728 61.7083 46.6728 61.7083 47.4228"
       style=" stroke:#000000; stroke-width:1;"       class="TAG:polyline"></polyline>
      <polyline points="60.2083 46.6728 60.2083 46.6728 60.2083 47.4228"
       style=" stroke:#000000; stroke-width:1;"       class="TAG:polyline"></polyline>
      <polyline points="58.9583 46.7041 58.9583 46.7041 58.9583 47.4541"
       style=" stroke:#000000; stroke-width:1;"       class="TAG:polyline"></polyline>
      <polyline points="64.0833 41.6103 64.0833 41.6103 64.0833 42.0791"
       style=" stroke:#000000; stroke-width:1;"       class="TAG:polyline"></polyline>
      <polyline points="63.7393 42.5166 62.8963 43.0166 57.4583 43.0166 
       57.4583 42.3603"
       style=" stroke:#000000; stroke-width:1;"       class="TAG:polyline"></polyline>
      <polyline points="62.6463 41.6728 62.6463 41.6728 61.5833 42.2978"
       style=" stroke:#000000; stroke-width:1;"       class="TAG:polyline"></polyline>
      <polyline points="61.1463 41.6728 61.1463 41.6728 60.0833 42.2978"
       style=" stroke:#000000; stroke-width:1;"       class="TAG:polyline"></polyline>
      <polyline points="59.8643 41.6728 59.8643 41.6728 58.8023 42.2978"
       style=" stroke:#000000; stroke-width:1;"       class="TAG:polyline"></polyline>
      <polyline points="61.5833 42.3291 61.5833 42.3291 61.5833 43.0166"
       style=" stroke:#000000; stroke-width:1;"       class="TAG:polyline"></polyline>
      <polyline points="60.0833 42.3291 60.0833 42.3291 60.0833 43.0166"
       style=" stroke:#000000; stroke-width:1;"       class="TAG:polyline"></polyline>
      <polyline points="58.7713 42.3916 58.7713 42.3916 58.7713 43.0791"
       style=" stroke:#000000; stroke-width:1;"       class="TAG:polyline"></polyline>
      <polyline points="62.8643 42.3603 62.8643 42.3603 62.8643 43.0478"
       style=" stroke:#000000; stroke-width:1;"       class="TAG:polyline"></polyline>
      <polygon points="57.8023 41.6416 56.5523 42.3291 51.1773 42.3291 
       52.3023 41.6416 57.8023 41.6416 "
       style=" stroke:#000000; stroke-width:1; fill:#fff16f; fill-opacity:100%"       class="TAG:polygon"></polygon>
      <polyline points="57.7713 41.6103 57.7713 41.6103 57.7713 42.0791"
       style=" stroke:#000000; stroke-width:1;"       class="TAG:polyline"></polyline>
      <polyline points="57.4273 42.5166 56.5833 43.0166 51.1463 43.0166 
       51.1463 42.3603"
       style=" stroke:#000000; stroke-width:1;"       class="TAG:polyline"></polyline>
      <polyline points="56.3333 41.6728 56.3333 41.6728 55.2713 42.2978"
       style=" stroke:#000000; stroke-width:1;"       class="TAG:polyline"></polyline>
      <polyline points="54.8333 41.6728 54.8333 41.6728 53.7713 42.2978"
       style=" stroke:#000000; stroke-width:1;"       class="TAG:polyline"></polyline>
      <polyline points="53.5523 41.6728 53.5523 41.6728 52.4893 42.2978"
       style=" stroke:#000000; stroke-width:1;"       class="TAG:polyline"></polyline>
      <polyline points="55.2713 42.3291 55.2713 42.3291 55.2713 43.0166"
       style=" stroke:#000000; stroke-width:1;"       class="TAG:polyline"></polyline>
      <polyline points="53.7713 42.3291 53.7713 42.3291 53.7713 43.0166"
       style=" stroke:#000000; stroke-width:1;"       class="TAG:polyline"></polyline>
      <polyline points="52.4583 42.3916 52.4583 42.3916 52.4583 43.0791"
       style=" stroke:#000000; stroke-width:1;"       class="TAG:polyline"></polyline>
      <polyline points="56.5523 42.3603 56.5523 42.3603 56.5523 43.0478"
       style=" stroke:#000000; stroke-width:1;"       class="TAG:polyline"></polyline>
      <polygon points="51.5213 41.6416 50.2713 42.3291 44.8963 42.3291 
       46.0213 41.6416 51.5213 41.6416 "
       style=" stroke:#000000; stroke-width:1; fill:#fff16f; fill-opacity:100%"       class="TAG:polygon"></polygon>
      <polyline points="51.4893 41.6103 51.4893 41.6103 51.4893 42.0791"
       style=" stroke:#000000; stroke-width:1;"       class="TAG:polyline"></polyline>
      <polyline points="51.1463 42.5166 50.3023 43.0166 44.8643 43.0166 
       44.8643 42.3603"
       style=" stroke:#000000; stroke-width:1;"       class="TAG:polyline"></polyline>
      <polyline points="50.0523 41.6728 50.0523 41.6728 48.9893 42.2978"
       style=" stroke:#000000; stroke-width:1;"       class="TAG:polyline"></polyline>
      <polyline points="48.5523 41.6728 48.5523 41.6728 47.4893 42.2978"
       style=" stroke:#000000; stroke-width:1;"       class="TAG:polyline"></polyline>
      <polyline points="47.2713 41.6728 47.2713 41.6728 46.2083 42.2978"
       style=" stroke:#000000; stroke-width:1;"       class="TAG:polyline"></polyline>
      <polyline points="48.9893 42.3291 48.9893 42.3291 48.9893 43.0166"
       style=" stroke:#000000; stroke-width:1;"       class="TAG:polyline"></polyline>
      <polyline points="47.4893 42.3291 47.4893 42.3291 47.4893 43.0166"
       style=" stroke:#000000; stroke-width:1;"       class="TAG:polyline"></polyline>
      <polyline points="46.1773 42.3916 46.1773 42.3916 46.1773 43.0791"
       style=" stroke:#000000; stroke-width:1;"       class="TAG:polyline"></polyline>
      <polyline points="50.2713 42.3603 50.2713 42.3603 50.2713 43.0478"
       style=" stroke:#000000; stroke-width:1;"       class="TAG:polyline"></polyline>
      <polyline points="45.3643 41.6416 45.3643 41.6416 45.3643 42.0791"
       style=" stroke:#000000; stroke-width:1;"       class="TAG:polyline"></polyline>
      <polyline points="44.8643 42.6728 44.8643 42.6728 44.2713 43.0478 
       42.9583 43.0478 42.9583 42.2978"
       style=" stroke:#000000; stroke-width:1;"       class="TAG:polyline"></polyline>
      <polyline points="44.2083 42.2978 44.2083 42.2978 44.2083 43.0478"
       style=" stroke:#000000; stroke-width:1;"       class="TAG:polyline"></polyline>
      <polyline points="60.4273 43.8291 60.4273 43.8291 41.6463 43.8291"
       style=" stroke:#000000; stroke-width:1;"       class="TAG:polyline"></polyline>
      <polyline points="59.3963 44.4541 59.3963 44.4541 40.6143 44.4541"
       style=" stroke:#000000; stroke-width:1;"       class="TAG:polyline"></polyline>
      <polyline points="58.3963 45.0791 58.3963 45.0791 39.6143 45.0791"
       style=" stroke:#000000; stroke-width:1;"       class="TAG:polyline"></polyline>
      <polyline points="43.8333 43.2353 43.8333 43.2353 42.8963 43.8291"
       style=" stroke:#000000; stroke-width:1;"       class="TAG:polyline"></polyline>
      <polyline points="44.9893 43.2353 44.9893 43.2353 44.0523 43.8291"
       style=" stroke:#000000; stroke-width:1;"       class="TAG:polyline"></polyline>
      <polyline points="46.0833 43.2353 46.0833 43.2353 45.1463 43.8291"
       style=" stroke:#000000; stroke-width:1;"       class="TAG:polyline"></polyline>
      <polyline points="47.3023 43.2353 47.3023 43.2353 46.3643 43.8291"
       style=" stroke:#000000; stroke-width:1;"       class="TAG:polyline"></polyline>
      <polyline points="48.4583 43.2353 48.4583 43.2353 47.5213 43.8291"
       style=" stroke:#000000; stroke-width:1;"       class="TAG:polyline"></polyline>
      <polyline points="49.6773 43.2353 49.6773 43.2353 48.7393 43.8291"
       style=" stroke:#000000; stroke-width:1;"       class="TAG:polyline"></polyline>
      <polyline points="50.9273 43.2666 50.9273 43.2666 49.9893 43.8603"
       style=" stroke:#000000; stroke-width:1;"       class="TAG:polyline"></polyline>
      <polyline points="52.2083 43.2666 52.2083 43.2666 51.2713 43.8603"
       style=" stroke:#000000; stroke-width:1;"       class="TAG:polyline"></polyline>
      <polyline points="53.5213 43.2978 53.5213 43.2978 52.5833 43.8916"
       style=" stroke:#000000; stroke-width:1;"       class="TAG:polyline"></polyline>
      <polyline points="54.8023 43.2666 54.8023 43.2666 53.8643 43.8603"
       style=" stroke:#000000; stroke-width:1;"       class="TAG:polyline"></polyline>
      <polyline points="56.0833 43.2666 56.0833 43.2666 55.1463 43.8603"
       style=" stroke:#000000; stroke-width:1;"       class="TAG:polyline"></polyline>
      <polyline points="57.4893 43.2353 57.4893 43.2353 56.5523 43.8291"
       style=" stroke:#000000; stroke-width:1;"       class="TAG:polyline"></polyline>
      <polyline points="58.6143 43.2978 58.6143 43.2978 57.6773 43.8916"
       style=" stroke:#000000; stroke-width:1;"       class="TAG:polyline"></polyline>
      <polyline points="43.3643 43.8603 43.3643 43.8603 42.4273 44.4541"
       style=" stroke:#000000; stroke-width:1;"       class="TAG:polyline"></polyline>
      <polyline points="44.5523 43.8603 44.5523 43.8603 43.6143 44.4541"
       style=" stroke:#000000; stroke-width:1;"       class="TAG:polyline"></polyline>
      <polyline points="45.7713 43.8603 45.7713 43.8603 44.8333 44.4541"
       style=" stroke:#000000; stroke-width:1;"       class="TAG:polyline"></polyline>
      <polyline points="46.9273 43.8603 46.9273 43.8603 45.9893 44.4541"
       style=" stroke:#000000; stroke-width:1;"       class="TAG:polyline"></polyline>
      <polyline points="48.1773 43.8603 48.1773 43.8603 47.2393 44.4541"
       style=" stroke:#000000; stroke-width:1;"       class="TAG:polyline"></polyline>
      <polyline points="49.4273 43.8603 49.4273 43.8603 48.4893 44.4541"
       style=" stroke:#000000; stroke-width:1;"       class="TAG:polyline"></polyline>
      <polyline points="50.7083 43.8603 50.7083 43.8603 49.7713 44.4541"
       style=" stroke:#000000; stroke-width:1;"       class="TAG:polyline"></polyline>
      <polyline points="51.9893 43.8603 51.9893 43.8603 51.0523 44.4541"
       style=" stroke:#000000; stroke-width:1;"       class="TAG:polyline"></polyline>
      <polyline points="53.3023 43.8291 53.3023 43.8291 52.3643 44.4228"
       style=" stroke:#000000; stroke-width:1;"       class="TAG:polyline"></polyline>
      <polyline points="54.4893 43.8603 54.4893 43.8603 53.5523 44.4541"
       style=" stroke:#000000; stroke-width:1;"       class="TAG:polyline"></polyline>
      <polyline points="55.7713 43.8603 55.7713 43.8603 54.8333 44.4541"
       style=" stroke:#000000; stroke-width:1;"       class="TAG:polyline"></polyline>
      <polyline points="57.1143 43.8603 57.1143 43.8603 56.1773 44.4541"
       style=" stroke:#000000; stroke-width:1;"       class="TAG:polyline"></polyline>
      <polyline points="58.2083 43.8603 58.2083 43.8603 57.2713 44.4541"
       style=" stroke:#000000; stroke-width:1;"       class="TAG:polyline"></polyline>
      <polyline points="42.8643 44.4853 42.8643 44.4853 41.9273 45.0791"
       style=" stroke:#000000; stroke-width:1;"       class="TAG:polyline"></polyline>
      <polyline points="44.1463 44.4541 44.1463 44.4541 43.2083 45.0478"
       style=" stroke:#000000; stroke-width:1;"       class="TAG:polyline"></polyline>
      <polyline points="45.3963 44.4541 45.3963 44.4541 44.4583 45.0478"
       style=" stroke:#000000; stroke-width:1;"       class="TAG:polyline"></polyline>
      <polyline points="46.6143 44.4541 46.6143 44.4541 45.6773 45.0478"
       style=" stroke:#000000; stroke-width:1;"       class="TAG:polyline"></polyline>
      <polyline points="47.9583 44.4541 47.9583 44.4541 47.0213 45.0478"
       style=" stroke:#000000; stroke-width:1;"       class="TAG:polyline"></polyline>
      <polyline points="49.2393 44.4541 49.2393 44.4541 48.3023 45.0478"
       style=" stroke:#000000; stroke-width:1;"       class="TAG:polyline"></polyline>
      <polyline points="50.4273 44.4541 50.4273 44.4541 49.4893 45.0478"
       style=" stroke:#000000; stroke-width:1;"       class="TAG:polyline"></polyline>
      <polyline points="51.6773 44.4853 51.6773 44.4853 50.7393 45.0791"
       style=" stroke:#000000; stroke-width:1;"       class="TAG:polyline"></polyline>
      <polyline points="53.0213 44.4541 53.0213 44.4541 52.0833 45.0478"
       style=" stroke:#000000; stroke-width:1;"       class="TAG:polyline"></polyline>
      <polyline points="54.3333 44.4541 54.3333 44.4541 53.3963 45.0478"
       style=" stroke:#000000; stroke-width:1;"       class="TAG:polyline"></polyline>
      <polyline points="55.4893 44.4541 55.4893 44.4541 54.5523 45.0478"
       style=" stroke:#000000; stroke-width:1;"       class="TAG:polyline"></polyline>
      <polyline points="56.7083 44.4541 56.7083 44.4541 55.7713 45.0478"
       style=" stroke:#000000; stroke-width:1;"       class="TAG:polyline"></polyline>
      <polyline points="42.4583 45.1103 42.4583 45.1103 41.4273 45.7978"
       style=" stroke:#000000; stroke-width:1;"       class="TAG:polyline"></polyline>
      <polyline points="43.8643 45.1103 43.8643 45.1103 42.8333 45.7978"
       style=" stroke:#000000; stroke-width:1;"       class="TAG:polyline"></polyline>
      <polyline points="45.1143 45.1103 45.1143 45.1103 44.0833 45.7978"
       style=" stroke:#000000; stroke-width:1;"       class="TAG:polyline"></polyline>
      <polyline points="46.3643 45.0478 46.3643 45.0478 45.3333 45.7353"
       style=" stroke:#000000; stroke-width:1;"       class="TAG:polyline"></polyline>
      <polyline points="47.7083 45.1103 47.7083 45.1103 46.6773 45.7978"
       style=" stroke:#000000; stroke-width:1;"       class="TAG:polyline"></polyline>
      <polyline points="48.9273 45.1103 48.9273 45.1103 47.8963 45.7978"
       style=" stroke:#000000; stroke-width:1;"       class="TAG:polyline"></polyline>
      <polyline points="50.3023 45.1103 50.3023 45.1103 49.2713 45.7978"
       style=" stroke:#000000; stroke-width:1;"       class="TAG:polyline"></polyline>
      <polyline points="51.5213 45.1103 51.5213 45.1103 50.4893 45.7978"
       style=" stroke:#000000; stroke-width:1;"       class="TAG:polyline"></polyline>
      <polyline points="52.8643 45.1103 52.8643 45.1103 51.8333 45.7978"
       style=" stroke:#000000; stroke-width:1;"       class="TAG:polyline"></polyline>
      <polyline points="54.0213 45.1103 54.0213 45.1103 52.9893 45.7978"
       style=" stroke:#000000; stroke-width:1;"       class="TAG:polyline"></polyline>
      <polyline points="55.2083 45.1103 55.2083 45.1103 54.1773 45.7978"
       style=" stroke:#000000; stroke-width:1;"       class="TAG:polyline"></polyline>
      <polyline points="61.3333 43.2978 61.3333 43.2978 61.3333 43.6416"
       style=" stroke:#000000; stroke-width:1;"       class="TAG:polyline"></polyline>
      <polyline points="60.0523 44.6728 60.0523 44.6728 56.1773 47.0791 
       53.9893 47.0791 53.9893 46.3696"
       style=" stroke:#000000; stroke-width:1;"       class="TAG:polyline"></polyline>
      <polyline points="57.1773 45.7834 57.1773 45.7834 56.1773 46.3387 
       53.9893 46.3387 54.9273 45.7834"
       style=" stroke:#000000; stroke-width:1;"       class="TAG:polyline"></polyline>
      <polyline points="56.1773 46.3603 56.1773 46.3603 56.1773 47.0791"
       style=" stroke:#000000; stroke-width:1;"       class="TAG:polyline"></polyline>
      <polyline points="57.1463 45.8143 57.1463 45.8143 57.1463 46.5238"
       style=" stroke:#000000; stroke-width:1;"       class="TAG:polyline"></polyline>
      <polyline points="58.3333 45.1416 58.3333 45.1416 58.3333 45.7353"
       style=" stroke:#000000; stroke-width:1;"       class="TAG:polyline"></polyline>
      <polyline points="59.3643 44.4853 59.3643 44.4853 59.3643 45.0791"
       style=" stroke:#000000; stroke-width:1;"       class="TAG:polyline"></polyline>
      <polyline points="60.3963 43.8603 60.3963 43.8603 60.3963 44.2666"
       style=" stroke:#000000; stroke-width:1;"       class="TAG:polyline"></polyline>
      <polyline points="54.3333 45.8291 54.3333 45.8291 53.3333 46.3916 
       51.1463 46.3916 52.0833 45.8291"
       style=" stroke:#000000; stroke-width:1;"       class="TAG:polyline"></polyline>
      <polyline points="54.3333 45.7978 54.3333 45.7978 54.3333 46.1728"
       style=" stroke:#000000; stroke-width:1;"       class="TAG:polyline"></polyline>
      <polyline points="53.9893 46.7353 53.9893 46.7353 53.3333 47.1416 
       51.1463 47.1416 51.1463 46.3916"
       style=" stroke:#000000; stroke-width:1;"       class="TAG:polyline"></polyline>
      <polyline points="53.3643 46.3916 53.3643 46.3916 53.3643 47.1103"
       style=" stroke:#000000; stroke-width:1;"       class="TAG:polyline"></polyline>
      <polyline points="51.1463 46.3916 51.1463 46.3916 43.0833 46.3916 
       43.8643 45.7978"
       style=" stroke:#000000; stroke-width:1;"       class="TAG:polyline"></polyline>
      <polyline points="51.1463 47.1416 51.1463 47.1416 43.0523 47.1416 
       43.0523 46.3916"
       style=" stroke:#000000; stroke-width:1;"       class="TAG:polyline"></polyline>
      <polyline points="43.0523 46.3916 43.0523 46.3916 41.1463 46.3916 
       42.0213 45.7978"
       style=" stroke:#000000; stroke-width:1;"       class="TAG:polyline"></polyline>
      <polyline points="43.0523 47.1416 43.0523 47.1416 41.1143 47.1416 
       41.1143 46.3916"
       style=" stroke:#000000; stroke-width:1;"       class="TAG:polyline"></polyline>
      <polyline points="40.7393 46.4853 39.7393 47.0791 37.5523 47.0791 
       37.5523 46.3696"
       style=" stroke:#000000; stroke-width:1;"       class="TAG:polyline"></polyline>
      <polyline points="40.7393 45.7834 40.7393 45.7834 39.7393 46.3387 
       37.5523 46.3387 38.4893 45.7834"
       style=" stroke:#000000; stroke-width:1;"       class="TAG:polyline"></polyline>
      <polyline points="40.7083 45.8143 40.7083 45.8143 40.7083 46.5238"
       style=" stroke:#000000; stroke-width:1;"       class="TAG:polyline"></polyline>
      <polyline points="39.7393 46.3291 39.7393 46.3291 39.7393 47.0791"
       style=" stroke:#000000; stroke-width:1;"       class="TAG:polyline"></polyline>
      <polyline points="40.7083 46.4853 40.7083 46.4853 41.1143 46.4853"
       style=" stroke:#000000; stroke-width:1;"       class="TAG:polyline"></polyline>
    </g>
    <g>
      <desc>METIS_TEXT_GROUP</desc>
      <text  x="0" y="68.9385"
       style=" stroke:#000000; stroke-width:1; font-family:sans-serif; font-size:18; text-align:center"
       class="TAG:text">text</text>
      <rect x="0" y="50.9385" width="190.667" height="56.0868"
       style=" stroke:#000000; stroke-width:1; fill:#000000; fill-opacity:0%"></rect>
    </g>
  </symbol>
 </defs>
</svg>
