<?xml version="1.0" encoding="UTF-8" standalone="no"?>
<svg
   xmlns:svg="http://www.w3.org/2000/svg"
   xmlns="http://www.w3.org/2000/svg"
   xmlns:sodipodi="http://sodipodi.sourceforge.net/DTD/sodipodi-0.dtd"
   xmlns:inkscape="http://www.inkscape.org/namespaces/inkscape"
   id="svg2"
   enable-background="new 21.152 45.375 219 219"
   xml:space="preserve"
   height="219px"
   width="219px"
   version="1.1"
   y="0px"
   x="0px"
   viewBox="21.152 45.375 219 219"
   inkscape:version="0.47 r22583"
   sodipodi:docname="implication.svg"><sodipodi:namedview
     pagecolor="#ffffff"
     bordercolor="#666666"
     borderopacity="1"
     objecttolerance="10"
     gridtolerance="10"
     guidetolerance="10"
     inkscape:pageopacity="0"
     inkscape:pageshadow="2"
     inkscape:window-width="1600"
     inkscape:window-height="1178"
     id="namedview44"
     showgrid="false"
     inkscape:zoom="2.7953829"
     inkscape:cx="50.344632"
     inkscape:cy="106.53716"
     inkscape:window-x="1272"
     inkscape:window-y="-8"
     inkscape:window-maximized="1"
     inkscape:current-layer="svg2" /><defs /><g
     id="g2993"><path
       id="path266"
       d="m 164.09227,66.021589 c 7.5825,-5.781282 17.4081,-1.612553 25.92575,-1.341815 12.01241,1.525755 24.16724,2.335023 36.08247,4.384552 7.85975,3.045303 4.31498,12.273117 3.65598,18.374395 -4.1956,31.167279 -8.08975,62.442059 -12.38018,93.554429 -1.96928,5.48338 -11.59487,11.24555 -15.96355,7.33732 -3.09503,-12.58523 -7.55029,-24.90484 -11.17692,-37.38596 -8.72112,-28.3056 -17.44597,-56.610067 -26.14355,-84.922921 z"
       style="fill:#000000;stroke:none;fill-opacity:1" /><path
       id="path268"
       d="m 159.23936,72.830647 c 0.12586,-7.674267 9.61232,-8.480364 15.26957,-6.827851 14.67797,1.73291 29.4163,3.100782 44.04094,5.197601 8.12225,5.279173 1.40547,16.32795 1.73032,24.071057 -4.21016,30.029056 -8.17932,60.102406 -12.54676,90.102856 -2.15397,6.21321 -9.22026,5.48126 -14.4076,4.80013 -14.51098,-1.16085 -29.02195,-2.32171 -43.53293,-3.48256 3.14882,-37.95374 6.29764,-75.90749 9.44646,-113.861233 z"
       style="fill:#777676;stroke:none" /><path
       id="path270"
       d="m 162.30556,77.1706 c -0.0839,-4.407359 3.91685,-8.718096 8.51746,-7.327599 14.40044,1.649466 28.80035,3.321456 43.19445,5.033136 4.74055,1.085894 5.43632,6.949448 4.47456,10.936648 -1.96172,13.247676 -3.71466,26.548295 -5.88324,39.751795 -1.96932,4.36895 -7.56004,3.70362 -11.46628,3.20458 -14.61855,-1.35117 -29.239,-2.6816 -43.85815,-4.02622 1.67373,-15.85745 3.34747,-31.714893 5.0212,-47.57234 z"
       style="fill:#424242;stroke:none" /><path
       id="path272"
       d="m 182.30508,130.70245 c 7.86638,0.71462 15.7416,1.35672 23.60243,2.11694 2.58063,0.29913 4.65633,2.75166 4.20013,5.37343 -1.92699,14.51698 -3.90757,29.02975 -5.82937,43.54572 -0.44573,2.98335 -3.62963,4.58084 -6.42305,4.21412 -10.16363,-0.87325 -20.32525,-1.77232 -30.48811,-2.65551 4.97932,-17.53157 9.95865,-35.06313 14.93797,-52.5947 z"
       style="fill:#424242;stroke:none" /><path
       id="path274"
       d="m 167.76941,84.214811 c -0.21851,-2.187552 0.1667,-4.649009 1.80762,-6.239335 1.6885,-1.616697 4.63937,-1.920662 6.44047,-0.322299 1.5456,1.408496 1.749,3.732928 1.34721,5.674409 -0.34989,2.064532 -1.9395,3.824144 -3.94891,4.403045 -1.42825,0.53949 -3.21208,0.401355 -4.30168,-0.760088 -0.72623,-0.746324 -1.14517,-1.745331 -1.34471,-2.755732 z"
       style="fill:#e8e8e8;stroke:none" /><path
       id="path276"
       d="m 199.67642,87.661414 c -0.21849,-2.187541 0.16668,-4.649004 1.80761,-6.239313 1.68833,-1.616246 4.6389,-1.921373 6.44004,-0.323249 1.54514,1.408634 1.74814,3.732877 1.34756,5.674294 -0.3492,2.064676 -1.93845,3.82473 -3.94779,4.40396 -1.42836,0.539722 -3.21239,0.401499 -4.30217,-0.759981 -0.72633,-0.746318 -1.14543,-1.745297 -1.34525,-2.755711 z"
       style="fill:#e8e8e8;stroke:none" /><path
       id="path280"
       d="m 195.54972,119.99378 c -0.21928,-2.18742 0.16548,-4.64922 1.80673,-6.23928 1.68858,-1.61605 4.63925,-1.92154 6.44051,-0.32322 1.54556,1.40863 1.74859,3.73315 1.34691,5.67465 -0.34984,2.06465 -1.93929,3.82465 -3.94887,4.40363 -1.42806,0.5395 -3.2119,0.40153 -4.30112,-0.76021 -0.72596,-0.7464 -1.1446,-1.74532 -1.34416,-2.75557 z"
       style="fill:#e8e8e8;stroke:none" /><path
       id="path282"
       d="m 191.8841,144.21221 c -0.21897,-2.18744 0.16618,-4.64929 1.8072,-6.23934 1.68867,-1.61626 4.63941,-1.92128 6.44089,-0.32322 1.54573,1.40845 1.74905,3.73302 1.34762,5.67458 -0.34962,2.06472 -1.93958,3.82446 -3.94929,4.40284 -1.42869,0.53923 -3.21265,0.40126 -4.30279,-0.76019 -0.72623,-0.74585 -1.14381,-1.74487 -1.34363,-2.75467 z"
       style="fill:#e8e8e8;stroke:none" /><path
       id="path284"
       d="m 189.59021,160.67291 c -0.21893,-2.18718 0.16618,-4.64852 1.80723,-6.23831 1.6886,-1.61576 4.63923,-1.92181 6.4405,-0.32352 1.54504,1.40885 1.74804,3.73317 1.34748,5.6747 -0.3492,2.06473 -1.9385,3.82477 -3.94786,4.40406 -1.4286,0.53918 -3.21282,0.40084 -4.30263,-0.76069 -0.72631,-0.74648 -1.1452,-1.74568 -1.34472,-2.75624 z"
       style="fill:#e8e8e8;stroke:none" /><path
       id="path286"
       d="m 187.54991,177.22583 c -0.21926,-2.19304 0.16907,-4.66287 1.82088,-6.25154 1.68598,-1.59886 4.61437,-1.90335 6.41254,-0.32378 1.52484,1.3725 1.75593,3.64506 1.38754,5.5575 -0.3114,2.07081 -1.85262,3.88352 -3.85981,4.49535 -1.41109,0.5554 -3.17944,0.4887 -4.31208,-0.61994 -0.79091,-0.75217 -1.23965,-1.80146 -1.44907,-2.85759 z"
       style="fill:#e8e8e8;stroke:none" /></g><g
     id="g2941"
     transform="translate(45.789791,-72.97748)"><path
       id="path288"
       d="m 132.34615,182.30816 c 7.92849,0.44432 14.21859,9.64147 10.37579,16.98105 -3.82014,8.68368 -6.52666,17.88163 -9.92493,26.76197 -9.09918,25.24159 -18.27406,50.45581 -27.47536,75.66032 -4.06686,6.53893 -12.721534,5.62411 -19.254711,4.55052 -15.034151,-1.94069 -30.081062,-3.78811 -45.120312,-5.69158 30.467683,-39.41985 60.925993,-78.84695 91.399523,-118.26228 z"
       style="fill:#282828;stroke:none" /><path
       id="path290"
       d="m 76.681794,184.92481 c 2.413188,-7.69391 11.785288,-6.6504 18.06578,-5.81582 12.321426,0.90027 24.717086,1.22284 36.978626,2.68101 7.01663,2.29669 4.52129,10.24487 2.05555,15.04737 -12.02685,34.09646 -24.05284,68.19321 -36.079136,102.28986 -4.132008,5.47967 -11.654251,2.09809 -17.311971,2.06465 -10.975204,-1.28012 -22.042217,-1.99171 -32.94682,-3.74886 -6.303734,-0.89011 -8.369298,-7.25463 -4.913896,-12.20026 11.382885,-33.43968 22.782714,-66.87359 34.151867,-100.31795 z"
       style="fill:#777676;stroke:none" /><path
       id="path292"
       d="m 80.255194,187.23023 c 1.252782,-3.68724 5.587584,-4.59987 9.019348,-4.07113 12.652308,0.86347 25.309088,1.68211 37.958598,2.57359 3.40416,0.23284 5.39532,3.9961 4.02168,7.02465 -5.17124,14.3023 -10.25265,28.64788 -15.48032,42.92294 -1.99409,3.64557 -6.58529,3.74638 -10.21186,3.19693 -13.966905,-1.41547 -27.933806,-2.83093 -41.900706,-4.24639 5.531087,-15.8002 11.062173,-31.60039 16.59326,-47.40059 z"
       style="fill:#424242;stroke:none" /><path
       id="path294"
       d="m 63.667694,239.56326 c 14.222645,1.29458 28.449558,2.55188 42.669536,3.86974 3.46201,0.57697 4.24919,4.6527 3.50488,7.54663 -1.1917,4.50113 -2.88535,8.86246 -4.29119,13.30557 -3.27018,9.80424 -6.534419,19.61305 -9.807994,29.4145 -1.54092,4.16621 -6.394723,6.1055 -10.549412,5.11278 -12.45238,-1.70867 -24.90476,-3.41735 -37.35714,-5.12602 5.277107,-18.04107 10.554213,-36.08213 15.83132,-54.1232 z"
       style="fill:#424242;stroke:none" /><path
       id="path296"
       d="m 68.428384,267.50496 c 0.304358,-2.23767 1.39213,-4.57169 3.480116,-5.64596 1.845136,-0.94735 4.376039,-0.79243 5.838018,0.77559 1.154829,1.33451 1.068068,3.28351 0.508621,4.85492 -0.605187,1.84669 -2.048192,3.44848 -3.951041,3.98353 -1.498226,0.45205 -3.318491,0.5721 -4.593123,-0.50033 -1.028437,-0.81793 -1.322418,-2.21717 -1.282591,-3.46775 z"
       style="fill:#e8e8e8;stroke:none" /><path
       id="path298"
       d="m 91.240514,254.30643 c 0.304812,-2.23831 1.392624,-4.57304 3.481056,-5.64803 1.845058,-0.94755 4.375929,-0.79279 5.83818,0.77491 1.15493,1.33418 1.06803,3.28298 0.50895,4.85423 -0.60495,1.84685 -2.048178,3.44863 -3.951105,3.98355 -1.49812,0.45156 -3.318143,0.57278 -4.593009,-0.49929 -1.028515,-0.81763 -1.323136,-2.21475 -1.284072,-3.46537 z"
       style="fill:#e8e8e8;stroke:none" /><path
       id="path300"
       d="m 79.367604,287.63127 c 0.305243,-2.23821 1.392804,-4.57285 3.48103,-5.64817 1.84519,-0.9477 4.376138,-0.79219 5.838448,0.77542 1.15512,1.33444 1.067714,3.2836 0.508419,4.855 -0.605165,1.8467 -2.048192,3.44848 -3.951033,3.98353 -1.49822,0.45179 -3.318238,0.57241 -4.593408,-0.49917 -1.028934,-0.81779 -1.322765,-2.21579 -1.283456,-3.46661 z"
       style="fill:#e8e8e8;stroke:none" /><path
       id="path302"
       d="m 82.433814,194.57299 c 0.288344,-2.08422 1.230634,-4.22316 3.048878,-5.40099 1.798773,-1.15138 4.380581,-1.15784 6.027304,0.27759 1.073625,0.99915 1.333824,2.59136 1.044731,3.97743 -0.350435,1.94697 -1.480611,3.86052 -3.311074,4.73711 -1.162891,0.56351 -2.496122,0.81046 -3.780991,0.65385 -1.24008,-0.18933 -2.391869,-1.05388 -2.7638,-2.27664 -0.218782,-0.63033 -0.281907,-1.30455 -0.265048,-1.96835 z"
       style="fill:#e8e8e8;stroke:none" /><path
       id="path304"
       d="m 111.53974,197.12048 c 0.30436,-2.23796 1.39195,-4.57243 3.48014,-5.64703 1.84524,-0.94747 4.37632,-0.79251 5.83848,0.77548 1.15468,1.33446 1.06744,3.2833 0.50841,4.8546 -0.60498,1.84671 -2.04839,3.44809 -3.95116,3.98284 -1.49824,0.45172 -3.31825,0.57209 -4.59324,-0.4997 -1.02867,-0.81778 -1.32229,-2.21556 -1.28263,-3.46619 z"
       style="fill:#e8e8e8;stroke:none" /><path
       id="path306"
       d="m 91.240514,211.67921 c 0.304829,-2.23798 1.393125,-4.57183 3.481089,-5.64665 1.845162,-0.94794 4.37644,-0.7926 5.838167,0.776 1.15464,1.33453 1.06821,3.2834 0.50892,4.85485 -0.60499,1.8467 -2.048379,3.44809 -3.951157,3.98284 -1.498247,0.45187 -3.318335,0.57192 -4.59308,-0.50026 -1.028388,-0.8176 -1.323129,-2.21632 -1.283939,-3.46678 z"
       style="fill:#e8e8e8;stroke:none" /><path
       id="path308"
       d="m 100.30081,229.16582 c 0.30483,-2.23784 1.39272,-4.57175 3.48054,-5.64666 1.84499,-0.94781 4.37608,-0.79294 5.83809,0.77511 1.15475,1.33453 1.06737,3.28345 0.50843,4.85484 -0.60489,1.84677 -2.04825,3.44839 -3.95118,3.98294 -1.49826,0.45125 -3.31821,0.57205 -4.59329,-0.49958 -1.02882,-0.81784 -1.32221,-2.21593 -1.28259,-3.46665 z"
       style="fill:#e8e8e8;stroke:none" /></g><g
     id="g2961"
     transform="translate(97.66104,9.3010514)"><path
       id="path310"
       d="m 37.15934,131.16354 c 11.817574,3.7473 7.72288,16.04133 2.399566,23.73698 -14.812221,31.75038 -29.194815,63.72422 -44.2482112,95.34757 -5.4072488,5.48094 -13.4751858,-0.087 -19.9485258,-0.20608 -11.612084,-2.414 -23.485117,-3.93132 -34.900588,-7.07216 -8.682547,-2.4787 -11.795422,-10.29688 -2.898051,-14.79461 33.19843,-32.33741 66.3971896,-64.67448 99.59581,-97.0117 z"
       style="fill:#282828;stroke:none" /><path
       id="path312"
       d="m -70.147586,228.90182 c 16.338896,-34.03953 32.677791,-68.07905 49.016687,-102.11858 5.000095,-6.87051 14.3176519,-3.02554 21.24208102,-2.5436 11.22849498,1.57353 22.50871798,2.83953 33.69626998,4.66787 7.574976,2.28013 2.977963,9.29008 0.752921,13.8651 -15.72809,33.36208 -31.4561812,66.72415 -47.184272,100.08622 -7.435288,6.5391 -17.986701,-0.31274 -26.703648,-0.55318 -9.543593,-1.89485 -19.282071,-3.12639 -28.678729,-5.56907 -2.696591,-1.51426 -3.198005,-5.16562 -2.14131,-7.83476 z"
       style="fill:#777676;stroke:none" /><path
       id="path314"
       d="m -38.662465,173.92908 c 6.978122,-14.55258 13.956244,-29.10516 20.934366,-43.65774 2.630737,-3.33876 7.311083,-2.68268 10.9785765,-1.98602 11.6448144,1.78101 23.3678175,3.10485 34.9637465,5.16502 3.61177,0.13728 4.557439,4.00061 2.911654,6.72303 -6.106699,13.66373 -12.143838,27.36846 -18.373454,40.97211 -1.751114,3.16629 -5.4918888,5.57757 -9.1592909,4.30402 -13.3978,-2.57063 -26.7956001,-5.14125 -40.1934001,-7.71187 -1.784703,-0.3327 -2.922527,-2.20231 -2.062198,-3.80855 z"
       style="fill:#424242;stroke:none" /><path
       id="path316"
       d="m -64.703337,228.556 c 6.844014,-14.59096 13.442219,-29.30694 20.442986,-43.81828 2.66963,-3.94098 8.166098,-3.95032 12.222061,-2.50294 12.346897,2.41859 24.7657585,4.5623 37.0664206,7.15883 4.1820711,2.12118 1.3795159,6.85068 -0.2789788,9.69758 -6.23885,12.80597 -11.7466406,25.95816 -18.0201018,38.74244 -1.993702,4.82504 -8.033326,3.63673 -12.066429,2.76811 -12.263616,-2.4005 -24.57585,-4.56999 -36.80823,-7.11897 -2.007383,-0.58296 -3.684798,-2.87929 -2.557728,-4.92677 z"
       style="fill:#424242;stroke:none" /><path
       id="path318"
       d="m 12.65273,141.50335 c 1.441802,-2.89398 5.173248,-5.0103 8.273807,-3.37551 2.253613,1.00681 3.066922,3.94986 1.653651,5.96362 -1.673634,3.14484 -6.190468,4.44312 -9.101256,2.22503 -1.471599,-1.17236 -1.679184,-3.21473 -0.826202,-4.81314 z"
       style="fill:#e8e8e8;stroke:none" /><path
       id="path320"
       d="m -9.813592,154.52897 c 1.4847123,-3.2454 6.0513971,-5.2674 9.10227813,-2.88456 2.47320147,1.90608 1.58483067,5.81282 -0.79521663,7.3943 -2.4269114,1.994 -6.926988,2.05132 -8.4939305,-1.02619 -0.481074,-1.10562 -0.41614,-2.43721 0.186869,-3.48355 z"
       style="fill:#e8e8e8;stroke:none" /><path
       id="path322"
       d="m -31.514511,167.54306 c 1.500202,-3.45444 6.643894,-5.42023 9.541418,-2.49312 2.48555,2.76361 0.131872,7.14332 -3.095324,8.02928 -2.638448,1.06228 -6.682152,-0.0566 -6.937229,-3.28074 -0.05313,-0.77802 0.120764,-1.56948 0.491135,-2.25542 z"
       style="fill:#e8e8e8;stroke:none" /><path
       id="path324"
       d="m -42.934409,192.9949 c 0.497537,-3.18231 3.386973,-6.32238 6.827097,-5.72599 2.434373,0.253 4.129701,2.76155 3.433802,5.10573 -0.603833,3.575 -4.637157,6.25952 -8.121891,4.91315 -1.710465,-0.70533 -2.446125,-2.54864 -2.139008,-4.29289 z"
       style="fill:#e8e8e8;stroke:none" /><path
       id="path326"
       d="m -13.450392,198.62013 c 0.520371,-2.70721 2.499929,-5.48068 5.4337543,-5.74425 2.0821266,-0.2649 4.5958488,0.93758 4.8804745,3.19857 0.4398837,3.23666 -2.0055839,6.68955 -5.3130087,7.07425 -1.7747511,0.28749 -3.9990131,-0.18409 -4.7175731,-2.04609 -0.3582,-0.77623 -0.36635,-1.6481 -0.283647,-2.48248 z"
       style="fill:#e8e8e8;stroke:none" /><path
       id="path328"
       d="m -58.125974,224.39472 c 0.520354,-2.70631 2.499424,-5.47872 5.432353,-5.74194 2.081612,-0.26501 4.596044,0.9358 4.880714,3.19678 0.439143,3.23642 -2.004856,6.69027 -5.312309,7.07594 -1.77509,0.28819 -3.999745,-0.1845 -4.717336,-2.04738 -0.357938,-0.77662 -0.366107,-1.64873 -0.283422,-2.4834 z"
       style="fill:#e8e8e8;stroke:none" /><path
       id="path330"
       d="m -28.38375,230.40034 c 0.518218,-2.74212 2.559073,-5.54448 5.534905,-5.75812 2.10213,-0.23151 4.605415,1.06146 4.79735,3.35245 0.369482,3.31873 -2.259917,6.7643 -5.663124,6.97352 -1.620435,0.18299 -3.565424,-0.28688 -4.295399,-1.90389 -0.437334,-0.8191 -0.48506,-1.76028 -0.373732,-2.66396 z"
       style="fill:#e8e8e8;stroke:none" /></g></svg>