<?xml version="1.0" encoding="UTF-8" standalone="no"?>
<svg id="svg2" xmlns:rdf="http://www.w3.org/1999/02/22-rdf-syntax-ns#" xmlns="http://www.w3.org/2000/svg" enable-background="new 21.152 45.375 219 219" xml:space="preserve" height="219px" width="219px" version="1.1" y="0px" x="0px" xmlns:cc="http://creativecommons.org/ns#" xmlns:xlink="http://www.w3.org/1999/xlink" viewBox="21.152 45.375 219 219" xmlns:dc="http://purl.org/dc/elements/1.1/"><metadata id="metadata317"><rdf:RDF><cc:Work rdf:about=""><dc:format>image/svg+xml</dc:format><dc:type rdf:resource="http://purl.org/dc/dcmitype/StillImage"/><dc:title/></cc:Work></rdf:RDF></metadata>
<defs id="defs4"><filter id="filter4034" height="1.4264328" width="1.0904634" y="-0.21321641" x="-0.045231704"><feGaussianBlur id="feGaussianBlur4036" stdDeviation="2.6991784"/></filter><filter id="filter4038" height="1.4068306" width="1.407319" y="-0.20341529" x="-0.20365951"><feGaussianBlur id="feGaussianBlur4040" stdDeviation="2.6991784"/></filter><filter id="filter4042" height="1.8524306" width="1.364588" y="-0.42621532" x="-0.18229399"><feGaussianBlur id="feGaussianBlur4044" stdDeviation="2.6991784"/></filter><filter id="filter4046" height="1.8524306" width="1.3645777" y="-0.42621532" x="-0.18228887"><feGaussianBlur id="feGaussianBlur4048" stdDeviation="2.6991784"/></filter><filter id="filter4050" height="1.452807" width="1.3790914" y="-0.22640348" x="-0.18954572"><feGaussianBlur id="feGaussianBlur4052" stdDeviation="2.6991784"/></filter><filter id="filter4054" height="1.3651032" width="1.5158699" y="-0.18255159" x="-0.25793497"><feGaussianBlur id="feGaussianBlur4056" stdDeviation="2.6991784"/></filter><filter id="filter4058" height="1.3703457" width="1.4837166" y="-0.18517285" x="-0.2418583"><feGaussianBlur id="feGaussianBlur4060" stdDeviation="2.6991784"/></filter><filter id="filter4062"><feGaussianBlur id="feGaussianBlur4064" stdDeviation="2.6991784"/></filter><radialGradient id="radialGradient4097" gradientUnits="userSpaceOnUse" cy="128.34" cx="117.57" gradientTransform="matrix(0.7045897,0.79367566,-0.67489195,0.59914073,119.02364,-45.122478)" r="50.734"><stop id="stop3129" stop-color="#dcddde" offset="0"/><stop id="stop3131" stop-color="#d45500" offset="1"/></radialGradient></defs>
<g id="g4076" transform="matrix(1.1046753,0,0,1.1046753,-14.631432,-12.77627)"><g id="g4066" fill="#000" transform="translate(219.82176,6.163227)"><path id="path3915" opacity="0.5" d="m-136.23,195.03c0-28.405-7.566-68.16,22.63-84.858,7.943-4.392,16.918-5.104,25.775-5.906,0.007,0,51.998-4.705,52.22,41.684l-0.449,49.754-100.18-0.674z" filter="url(#filter4062)"/><path id="path3919" opacity="0.5" d="m-58.823,95.396c-1.129,2.082-3.885,2.772-6.151,1.543l-4.791-2.6c-2.268-1.231-3.187-3.917-2.058-6l12.819-23.621c1.13-2.082,3.885-2.775,6.151-1.545l4.791,2.601c2.267,1.23,3.188,3.917,2.058,6l-12.819,23.622z" filter="url(#filter4058)"/><path id="path3921" opacity="0.5" d="m-95.698,89.426c0.962,2.164-0.168,4.77-2.526,5.817l-4.983,2.214c-2.355,1.048-5.045,0.138-6.007-2.027l-10.913-24.56c-0.962-2.165,0.17-4.77,2.525-5.815l4.982-2.214c2.356-1.046,5.049-0.14,6.01,2.025l10.912,24.56z" filter="url(#filter4054)"/><path id="path3923" opacity="0.5" d="m-129.11,107.13c1.966,1.321,2.398,4.127,0.961,6.27l-3.038,4.528c-1.436,2.141-4.198,2.804-6.163,1.484l-22.317-14.974c-1.968-1.319-2.397-4.127-0.961-6.267l3.038-4.529c1.437-2.14,4.198-2.806,6.166-1.485l22.314,14.973z" filter="url(#filter4050)"/><path id="path3925" opacity="0.5" d="m-148.46,143.72c2.37-0.035,4.321,2.024,4.362,4.604l0.082,5.454c0.039,2.578-1.852,4.696-4.221,4.731l-26.872,0.409c-2.369,0.038-4.32-2.024-4.36-4.602l-0.083-5.453c-0.038-2.577,1.85-4.699,4.22-4.734l26.872-0.409z" filter="url(#filter4046)"/><path id="path3927" opacity="0.5" d="m3.244,144.42c2.368-0.035,4.319,2.025,4.359,4.602l0.083,5.455c0.04,2.576-1.852,4.697-4.22,4.731l-26.872,0.41c-2.368,0.038-4.319-2.024-4.359-4.604l-0.084-5.45c-0.037-2.578,1.85-4.698,4.222-4.733l26.871-0.411z" filter="url(#filter4042)"/><path id="path3929" opacity="0.5" d="m-29.548,119.67c-1.673,1.679-4.509,1.563-6.335-0.258l-3.862-3.852c-1.825-1.819-1.949-4.659-0.273-6.334l18.979-19.028c1.672-1.68,4.509-1.562,6.335,0.26l3.86,3.85c1.824,1.82,1.949,4.658,0.275,6.336l-18.979,19.026z" filter="url(#filter4038)"/><path id="path3931" opacity="0.5" d="m-158.81,159.31c-2.5965,0.25003-4.625,2.3475-4.625,4.875v3.6875c0,0.58784,0.11177,1.1343,0.3125,1.6562h-6.875c-3.481,0-6.3125,3.2665-6.3125,7.3125v5.5312c0,4.048,2.8315,7.3125,6.3125,7.3125h130.59c3.48,0,6.3125-3.2645,6.3125-7.3125v-5.5312c0-4.046-2.8335-7.3125-6.3125-7.3125h-7.3438c0.20086-0.52198,0.3125-1.0684,0.3125-1.6562v-3.6875c0-2.696-2.3122-4.875-5.1562-4.875h-106.69c-0.17775,0-0.35815-0.0167-0.53125,0z" transform="translate(21.152,45.375)" filter="url(#filter4034)"/></g><path id="path285" fill="url(#radialGradient4097)" stroke="#ffae0e" d="m79.77,195.03c0-28.405-7.566-68.16,22.63-84.858,7.943-4.392,16.918-5.104,25.775-5.906,0.007,0,51.998-4.705,52.22,41.684l-0.45,49.76-100.18-0.67z"/><path id="path287" opacity="0.35" fill="#dcddde" d="m131.65,115.35s-11.93,13.946-11.93,30.148l-0.084,49.444h-20.843l0.222-49.283s1.716-34.568,32.635-30.309z"/><path id="path289" fill="#e96d1f" stroke="#ffae0e" d="m157.18,95.396c-1.129,2.082-3.885,2.772-6.151,1.543l-4.791-2.6c-2.268-1.231-3.187-3.917-2.058-6l12.819-23.621c1.13-2.082,3.885-2.775,6.151-1.545l4.791,2.601c2.267,1.23,3.188,3.917,2.058,6l-12.819,23.622z"/><path id="path291" fill="#e96d1f" stroke="#ffae0e" d="m120.3,89.426c0.962,2.164-0.168,4.77-2.526,5.817l-4.983,2.214c-2.355,1.048-5.045,0.138-6.007-2.027l-10.907-24.56c-0.962-2.165,0.17-4.77,2.525-5.815l4.982-2.214c2.356-1.046,5.049-0.14,6.01,2.025l10.912,24.56z"/><path id="path293" fill="#e96d1f" stroke="#ffae0e" d="m86.887,107.13c1.966,1.321,2.398,4.127,0.961,6.27l-3.038,4.528c-1.436,2.141-4.198,2.804-6.163,1.484l-22.317-14.97c-1.968-1.319-2.397-4.127-0.961-6.267l3.038-4.529c1.437-2.14,4.198-2.806,6.166-1.485l22.314,14.973z"/><path id="path295" fill="#e96d1f" stroke="#ffae0e" d="m67.545,143.72c2.37-0.035,4.321,2.024,4.362,4.604l0.082,5.454c0.039,2.578-1.852,4.696-4.221,4.731l-26.872,0.409c-2.369,0.038-4.32-2.024-4.36-4.602l-0.083-5.453c-0.038-2.577,1.85-4.699,4.22-4.734l26.872-0.409z"/><path id="path297" fill="#e96d1f" stroke="#ffae0e" d="m219.24,144.42c2.368-0.035,4.319,2.025,4.359,4.602l0.083,5.455c0.04,2.576-1.852,4.697-4.22,4.731l-26.872,0.41c-2.368,0.038-4.319-2.024-4.359-4.604l-0.084-5.45c-0.037-2.578,1.85-4.698,4.222-4.733l26.871-0.411z"/><path id="path299" fill="#e96d1f" stroke="#ffae0e" d="m186.45,119.67c-1.673,1.679-4.509,1.563-6.335-0.258l-3.862-3.852c-1.825-1.819-1.949-4.659-0.273-6.334l18.979-19.028c1.672-1.68,4.509-1.562,6.335,0.26l3.86,3.85c1.824,1.82,1.949,4.658,0.275,6.336l-18.979,19.026z"/><path id="path301" fill="#7e8082" stroke="#626262" d="m190.7,213.24c0,2.696-2.305,4.882-5.148,4.882h-106.68c-2.845,0-5.148-2.186-5.148-4.882v-3.682c0-2.696,2.304-4.882,5.148-4.882h106.69c2.844,0,5.148,2.186,5.148,4.882v3.682z"/><path id="path303" fill="#4d4d4d" stroke="#414141" d="m204.05,227.74c0,4.048-2.822,7.324-6.302,7.324h-130.6c-3.481,0-6.301-3.276-6.301-7.324v-5.521c0-4.046,2.82-7.324,6.301-7.324h130.6c3.479,0,6.302,3.278,6.302,7.324v5.521z"/></g>
</svg>