<?xml version="1.0" encoding="UTF-8" standalone="no"?>
<svg xmlns:rdf="http://www.w3.org/1999/02/22-rdf-syntax-ns#" xmlns="http://www.w3.org/2000/svg" xml:space="preserve" height="204px" viewBox="-0.059 -0.316 214 204" width="214px" version="1.1" y="0px" x="0px" xmlns:cc="http://creativecommons.org/ns#" xmlns:dc="http://purl.org/dc/elements/1.1/" enable-background="new -0.059 -0.316 214 204">
	<metadata>
		<rdf:RDF>
			<cc:Work rdf:about="">
				<dc:format>image/svg+xml</dc:format>
				<dc:type rdf:resource="http://purl.org/dc/dcmitype/StillImage"/>
				<dc:title/>
			</cc:Work>
		</rdf:RDF>
	</metadata>
<defs><filter id="filter4131">
			<feGaussianBlur stdDeviation="2.1400133"/>
		</filter><linearGradient id="linearGradient4164" y2="53.4" gradientUnits="userSpaceOnUse" y1="157" x2="55.7" x1="143">
			<stop stop-color="#e5c5a8" offset="0"/>
			<stop stop-color="#e5c5a8" stop-opacity="0" offset="1"/>
		</linearGradient></defs>
<path d="M13,81c-1.7-10.3,1.5-31.2,10.7-38.3,9.2-7.2,13.3-11.9,21.7-12.2,8.31-0.297,18.4,0,25.8-3.86,7.42-3.86,15.1-8.9,19.6-10.1,4.45-1.19,24.3-3.27,32.1-1.78,7.72,1.48,22.3,5.34,31.5,14.5,9.2,9.2,14.5,13.4,20.5,14.8,5.94,1.48,19,4.75,17.8,18.4-1.19,13.7-1.93,20,4.9,28.6,6.83,8.61,13.2,23,13.8,27.5,0.592,4.45,0,11.3-6.83,16.6-6.83,5.34-14.2,15.7-16.3,26.4-2.08,10.7-6.53,22.3-10.4,26.1-3.86,3.86-16.3,5.64-24.3,5.64-8.01,0-22.9,2.38-30.6,4.75-7.72,2.37-24.6,9.5-39.5,4.15-14.8-5.34-24.6-15.1-32.1-22.9-7.42-7.72-24.9-15.7-30.3-22-5.34-6.23-10.4-14.8-8.01-31.2,2.37-16.3,3.26-25.8-0.00095-45.4z" fill-opacity="0.50196081000000004" transform="matrix(0.97134014,0,0,0.97134014,4.4963232,-1.3169769)" filter="url(#filter4131)" fill="#000"/>
	<path d="m75.7,11.1c14.8-11.4,58.9-10.7,75.9,9.72,12.6,15.2,21,8.06,31.8,18.8,7.62,7.62,1.88,22.8,5.11,32.1,7.43,21.3,18,22.3,16.2,38.6-1.64,14.5-16.1,15.9-20.9,31.8-5.6,18.4-7.06,45.2-40.7,40.2-22.6-3.32-61.7,26.7-90.8-9.55-21.3-26-29.5-12-41.5-37-7.43-15,3.3-33,0.7-48.5-2.76-16.6-6.78-41.4,9.7-57.9,17.5-17.5,34.4-2,54.6-17.6z" fill="#e0c398"/>
	<path d="m10.6,70c-1.66-9.99,1.44-30.3,10.4-37.2,8.94-6.92,13-11.5,21-11.8,8.07-0.289,17.9,0,25.1-3.75,7.21-3.75,14.7-8.65,19-9.8,4.32-1.15,23.6-3.17,31.1-1.73s21.6,5.19,30.6,14.1c8.94,8.94,14.1,13,19.9,14.4,5.77,1.44,18.5,4.61,17.3,17.9-1.15,13.3-1.88,19.5,4.76,27.8,6.63,8.36,12.8,22.3,13.4,26.7,0.576,4.32,0,11-6.63,16.1-6.63,5.19-13.8,15.3-15.9,25.7-2.02,10.4-6.34,21.6-10.1,25.4-3.75,3.75-15.9,5.48-23.6,5.48-7.78,0-22.2,2.31-29.7,4.62-7.5,2.3-23.9,9.22-38.3,4.03-13.2-5-22.7-15-29.9-22-7.2-8-24.2-16-29.4-22s-10.1-14-7.8-30c2.3-15.8,3.2-25,0-44z" fill="#cfaa7a"/>
	<path d="m25.2,64.2c2.43-15.2,16.9-30.3,26.4-35,9.51-4.76,16.4-6.49,22.1-9.08,5.62-2.59,12.5,0.432,22.5-2.16,9.95-2.59,32.9-8.65,40.7,0.433,7.78,9.08,19,17.7,28.1,20.8,9.08,3.03,18.2,16.4,17.7,26.8-0.433,10.4,2.59,22.1,5.62,27.7,3.03,5.62,1.73,22.5-3.46,32-5.19,9.51-9.51,21.2-12.1,27.7-2.59,6.49-14.7,19.5-26.4,21.2-11.7,1.73-21.6,3.89-32.9,6.92-11.2,3.03-30.3,2.59-41.9-3.89-11.7-6.49-28.5-20.3-33.7-23.8-5.19-3.47-17.7-16.9-18.2-29.4-0.434-12.5-4.33-19.5-3.89-33.7,0.221-7.36,7.78-15.6,9.51-26.4z" fill="#ddb78a"/>
	<path d="m135,23.4c10.1,10.1,19.7,16.1,30.5,23,6.34,3.99,12.4,16.4,12.4,26.1,0,8.74,6.49,21.9,6.49,31.1,0,12.5-8.45,20.6-11.1,33.5-2.42,11.8-9.21,17.2-18.3,24.8-8.79,7.36-18.9,13.2-33.4,13.2-7.35,0-11.1,4.65-23.2,4.65-16.1,0-25.1-5.19-37.7-13.1-8.96-5.61-18.7-11-24.9-19.5-5.82-8-10-16.8-10-26.9,0-8.63-7.85-15.7-5.62-25.2,2.74-11.7,8.74-15.5,10.5-28.2,2.29-16.7,28.4-39.5,45.1-43.1,8.63-1.87,17.6-1.11,26.6-3.46,11.6-3.03,25-4.41,32.7,3.32z" fill="#eac9a4"/>
	<circle d="m 179.868,103.15 c 0,42.72917 -34.63884,77.368 -77.368,77.368 -42.729164,0 -77.367996,-34.63883 -77.367996,-77.368 0,-42.729163 34.638832,-77.367995 77.367996,-77.367995 42.72916,0 77.368,34.638832 77.368,77.367995 z" transform="matrix(0.92229716,0,0,0.92229716,8.0509676,3.6595563)" cy="103" cx="102" r="77.4" fill="#efd6bd"/>
	<circle d="m 173.57,103.15 c 0,39.25088 -31.81912,71.07 -71.07,71.07 -39.250877,0 -71.07,-31.81912 -71.07,-71.07 0,-39.250875 31.819123,-71.069998 71.07,-71.069998 39.25088,0 71.07,31.819123 71.07,71.069998 z" transform="matrix(0.92229716,0,0,0.92229716,8.0509676,3.6595563)" cy="103" cx="102" r="71.1" fill="#f7e3d0"/>
	<circle d="m 171.321,103.15 c 0,38.00879 -30.81221,68.821 -68.821,68.821 -38.008788,0 -68.820999,-30.81221 -68.820999,-68.821 0,-38.008787 30.812211,-68.820998 68.820999,-68.820998 38.00879,0 68.821,30.812211 68.821,68.820998 z" transform="matrix(0.92229716,0,0,0.92229716,8.0509676,3.6595563)" cy="103" cx="102" r="68.8" fill="url(#linearGradient4164)"/>
	<path d="M76.6,13.2c4.8-3.86,10.2-4.79,15.2-5.44,4.97-0.648,22.7-3.03,31.4,0-5-0.22-23.9-0.43-28,0.43s-11.2,1.73-18.4,5.01z" fill="#FFF"/>
	<path d="m188,93.6c3.68,7.06,3.17,14.6-0.071,22.8,1.15-8.36,2.52-13.8,0.071-22.8z" fill="#a07f58"/>
	<path d="m21.7,74.6c1.51-6.81,1.73-7.57,2.16-12.2,0.433-4.65,2.7-10.2,7.13-16.2,4.43-6.05,11.4-12.9,15-15,3.67-2.16,8.22-3.89,12.5-5.3-9.19,5.84-10.9,4.22-18.7,12.5-7.78,8.33-12.1,17-12.8,19.6-0.648,2.59-1.73,7.89-2.49,9.84-0.756,1.95-1.41,4.86-2.92,6.81z" fill="#cfaa7a"/>
	<path d="m94.7,21.5c6.2-1.51,9.08-1.8,12.2-2.45,3.1-0.65,8.65-1.44,11.1-1.37,2.45,0.0729,9.01,0.289,11.5,1.66,2.45,1.37,6.27,3.89,8.15,6.42-4.32-3.03-9.08-5.12-12.8-5.62-3.75-0.505-10.9-0.865-16.4,0-5.55,0.864-10.6,0.72-13.6,1.37z" fill="#cfaa7a"/>
	<path d="m58.5,164c5.33,3.82,13.4,8.65,17.9,10.5,4.47,1.88,9.51,3.25,17.4,4.33-8.22-1.73-13.7-3.39-18.1-5.41-4.11-1.87-14.3-7.71-17.2-9.44z" fill="#e5c5a8"/>
	<path d="m195,89.1c-1.3-1.95-5.55,1.59-3.96,4.54,1.59,2.96,2.23,15.8-0.071,21.1-2.31,5.33-5.33,11.6-5.33,14,0,2.38,1.58,4.47,3.67,1.95s8.51-8.22,9.95-9.95,6.49-6.05,4.47-13.9c-2.02-7.86-4.25-13.2-8.72-17.7z" fill="#cfaa7a"/>
	<path d="m195,89.1c4,5.78,5.35,9.62,5.95,11.2,0.594,1.62,1.62,8.65,0.701,12.1-0.918,3.41,2,2.2,2.38-2.11,0.54-6.16-1.08-10-2.86-13.3-1.95-3.57-3.24-5.08-6.16-7.89z" fill="#a07f58"/>
	<path d="m22,36.1c-4.3,3.97-8.33,6.92-11,17.3,1.73-13,4.33-14,6.2-17,1.87-3.03,8.66-10.5,14.3-12.9,3.3-1.4,9.19-2.92,13.2-2.78,4.04,0.144,1.49,3.72-4.58,5.69-6.2,2.02-11,3.13-18.2,9.73z" fill="#e5c5a8"/>
	<path d="m57.1,175c9.3,6.6,13.6,11.2,23.1,12.3,9.51,1.08,19.5,0.323,24.2,0-9.3,2.7-22.2,2.27-28.5,0-6.38-2.27-11.6-5.52-18.8-12.3z" fill="#a07f58"/>
	<path d="m44.5,21.5c0.511,0.0231-1.58,2.16-4.61,2.81-3.03,0.648-5.69,1.44-7.35,2.09-1.66,0.648-0.576-0.865,0.649-1.66,1.23-0.793,4.69-3.53,11.3-3.24z" fill="#FFF"/>
	<path d="m10.3,117c-0.288,6.63,0.938,14,2.45,16.9,1.51,2.92,4.14,9.23,9.01,13.9-4.68-3.28-8.61-10.5-9.59-12.6-0.973-2.16-3.46-8.5-1.87-18.2z" fill="#a07f58"/>
	<path d="m24.8,139c2.96,5.12,7.4,9.52,9.39,11.3,2.59,2.32,8.05,6.16,14.5,11.2-6.13-5.12-10.2-8.44-13-10.5-2.74-2.02-6.2-5.12-11-12z" fill="#e5c5a8"/>
	<path d="m148,29.4c2.97,2.7,7.3,5.68,9.95,6.76-3.24-2-7.08-4.43-9.95-6.76z" fill="#e5c5a8"/>
	<path d="m159,42.1c3.53,2.74,8.22,6.85,9.37,8.36s4.54,4.04,5.62,6.13c-1.8-4.69-3.53-6.27-5.26-7.93s-7.79-5.19-9.73-6.56z" fill="#a07f58"/>
	<path d="m75.61,60.18,3.86,43.5c0,1.86,2.85,1.24,2.85,1.24l17.3-11.2c2.23-1.29,2.14,1.45,2.14,1.45v9.52s0.445,0.7,1.6-0.232l15.3-10.7c2.14-1.03,2.37,0.828,2.37,0.828v10.1s0.178,0.7,1.51,0l14.9-10.8c2.76-1.66,3.12,1.22,3.12,1.22v9.54h4.9s1.33-0.232,1.33,1.32l2.23,32.5c-0.0884,2.02-3.38,2.17-3.38,2.17l-87.3-0.209c-2.14,0-1.43-2.28-1.43-2.28l6.18-78,12.5-0.0506z" stroke="#666" stroke-width="0.92085654" fill="#b3b3b3"/><rect height="11.2" width="6.5" stroke="#666" y="112.2" x="79.61" stroke-width="0.921" fill="#FFF"/><rect height="11.2" width="6.5" stroke="#666" y="112.1" x="91.61" stroke-width="0.921" fill="#FFF"/><rect height="11.2" width="6.5" stroke="#666" y="112.1" x="104.6" stroke-width="0.921" fill="#FFF"/><rect height="11.2" width="6.5" stroke="#666" y="112.1" x="117.6" stroke-width="0.921" fill="#FFF"/><rect height="11.2" width="6.5" stroke="#666" y="112.1" x="130.6" stroke-width="0.921" fill="#FFF"/><polygon points="73.4,70.7,58.7,70.6,59,67.5,73.2,67.5" transform="matrix(0.92085655,0,0,0.92085655,8.34115,2.011806)" fill="#666"/><path stroke="#CCC" stroke-width="0.46042827" d="m71.61,59.3s5.7-9.45,10.6-7,11.9,3.32,14-4.66c1.3-5.01,6.51-3.99,10.2-4.24,4.31-0.296,8.7-1.7,12.9-2.56,2.1-0.425,4.52-0.834,6.79-1.12,0,0,6.7-0.534-3.67,2.22-2.51,0.669-6.57,1.27-9.14,1.87-2.49,0.589-1.33,2.46-3.89,2.53-2.18,0.0571-5.28-0.313-7.45,0.0774-0.804,0.145-1.82,0.414-2.44,1.04-1.01,1.02-0.444,1.31-0.337,2.5,0,0.000921,0.457,5.15-8.94,4.98-2.17-0.0387-4.35-0.44-6.54-0.467-1.43-0.0184-2.97-0.0663-4.37,0.314-1.33,0.363-2.45,1.7-3.82,2.23-1.03,0.398-3.5,1.03-3.98,2.28z" fill="#f9f9f9"/><rect height="19" width="9.18" stroke="#666" y="121.5" x="64.61" stroke-width="0.921" fill="#FFF"/><circle r="1" d="m 64.799999,141 c 0,0.55228 -0.447715,1 -1,1 -0.552285,0 -1,-0.44772 -1,-1 0,-0.55228 0.447715,-1 1,-1 0.552285,0 1,0.44772 1,1 z" stroke="#666" transform="matrix(0.92085655,0,0,0.92085655,8.34115,2.011806)" cy="141" cx="63.8" stroke-width="0.5" fill="#666"/><path d="m83.61,106.1,17-11.3c0.0543-0.499-0.162-0.786-0.162-0.786-0.317-0.547-0.993-0.144-0.993-0.144l-17.6,11.3s-0.331,0.389,0.0663,0.91,0.466,0.442,1.04,0z" fill="#666"/><path d="m102.6,105,15.6-11s0.806-0.561,1.41-0.1,0.336,0.182,0.259,0.873l-16.1,11.4s-0.997,0.768-1.46,0.0773c0.00092-0.00093-0.613-0.576,0.231-1.27z" fill="#666"/><path d="m122.6,104.9,15-10.8s0.921-0.489,1.35-0.259,0.748,0.115,0.834,1.24l-15.7,11.2s-1.21,0.921-1.81,0.173c0.00092-0.00093-0.661-0.778,0.375-1.5z" fill="#666"/>
	<g transform="translate(198.39175,56.783505)" fill="#000">
		<g transform="scale(1.0886232,0.91859149)">
			<path d="m-76.3,31.7,0-6.83,6.83,0,0,6.83z"/>
			<path d="m-63.3,31.7,18.9-25.5-16.7-23.4,7.7,0,8.87,12.5c1.84,2.6,3.16,4.6,3.93,6,1.09-1.78,2.38-3.63,3.87-5.57l9.83-13h7.03l-17.2,23,18.5,25.8h-8l-12.3-17.4c-0.689-1-1.4-2.09-2.13-3.27-1.09,1.78-1.87,3-2.33,3.67l-12.3,17z"/>
		</g>
		<g transform="scale(1.0949495,0.91328412)">
			<path d="m-91.4,32.3-6.14,0,0-39.1c-1.48,1.41-3.42,2.82-5.81,4.23-2.4,1.41-4.55,2.47-6.46,3.17v-5.93c3.43-1.61,6.43-3.57,9-5.86,2.57-2.3,4.39-4.52,5.46-6.68h3.96z" fill="#000"/>
		</g>
	</g>
</svg>
