<?xml version="1.0" encoding="UTF-8" standalone="no"?>

<svg
 xmlns:dc="http://purl.org/dc/elements/1.1/"
   xmlns:cc="http://creativecommons.org/ns#"
   xmlns:rdf="http://www.w3.org/1999/02/22-rdf-syntax-ns#"
   xmlns:svg="http://www.w3.org/2000/svg"
   xmlns="http://www.w3.org/2000/svg"
   xmlns:xlink="http://www.w3.org/1999/xlink"
   xmlns:sodipodi="http://sodipodi.sourceforge.net/DTD/sodipodi-0.dtd"
   xmlns:inkscape="http://www.inkscape.org/namespaces/inkscape"
   id="svg2"
   version="1.1"
   inkscape:version="0.47 r22583"
   width="100"
   height="100"
   sodipodi:docname="influencer.svg">
  <metadata
     id="metadata68">
    <rdf:RDF>
      <cc:Work
         rdf:about="">
        <dc:format>image/svg+xml</dc:format>
        <dc:type
           rdf:resource="http://purl.org/dc/dcmitype/StillImage" />
      </cc:Work>
    </rdf:RDF>
  </metadata>
  <defs
     id="defs66">
    <linearGradient
       inkscape:collect="always"
       id="linearGradient3696">
      <stop
         style="stop-color:#ff7711;stop-opacity:1;"
         offset="0"
         id="stop3698" />
      <stop
         style="stop-color:#ff7711;stop-opacity:0;"
         offset="1"
         id="stop3700" />
    </linearGradient>
    <linearGradient
       inkscape:collect="always"
       id="linearGradient3688">
      <stop
         style="stop-color:#7faa48;stop-opacity:1;"
         offset="0"
         id="stop3690" />
      <stop
         style="stop-color:#7faa48;stop-opacity:0;"
         offset="1"
         id="stop3692" />
    </linearGradient>
    <linearGradient
       inkscape:collect="always"
       id="linearGradient3680">
      <stop
         style="stop-color:#7faa48;stop-opacity:1;"
         offset="0"
         id="stop3682" />
      <stop
         style="stop-color:#7faa48;stop-opacity:0;"
         offset="1"
         id="stop3684" />
    </linearGradient>
    <linearGradient
       inkscape:collect="always"
       id="linearGradient3672">
      <stop
         style="stop-color:#775599;stop-opacity:1;"
         offset="0"
         id="stop3674" />
      <stop
         style="stop-color:#775599;stop-opacity:0;"
         offset="1"
         id="stop3676" />
    </linearGradient>
    <linearGradient
       inkscape:collect="always"
       id="linearGradient3664">
      <stop
         style="stop-color:#775599;stop-opacity:1;"
         offset="0"
         id="stop3666" />
      <stop
         style="stop-color:#775599;stop-opacity:0;"
         offset="1"
         id="stop3668" />
    </linearGradient>
    <linearGradient
       inkscape:collect="always"
       id="linearGradient3656">
      <stop
         style="stop-color:#775599;stop-opacity:1;"
         offset="0"
         id="stop3658" />
      <stop
         style="stop-color:#775599;stop-opacity:0;"
         offset="1"
         id="stop3660" />
    </linearGradient>
    <linearGradient
       inkscape:collect="always"
       id="linearGradient3648">
      <stop
         style="stop-color:#775599;stop-opacity:1;"
         offset="0"
         id="stop3650" />
      <stop
         style="stop-color:#775599;stop-opacity:0;"
         offset="1"
         id="stop3652" />
    </linearGradient>
    <inkscape:perspective
       sodipodi:type="inkscape:persp3d"
       inkscape:vp_x="0 : 0.5 : 1"
       inkscape:vp_y="0 : 1000 : 0"
       inkscape:vp_z="1 : 0.5 : 1"
       inkscape:persp3d-origin="0.5 : 0.33333333 : 1"
       id="perspective70" />
    <linearGradient
       inkscape:collect="always"
       xlink:href="#linearGradient3648"
       id="linearGradient3654"
       x1="127.052"
       y1="131.633"
       x2="136.48"
       y2="131.633"
       gradientUnits="userSpaceOnUse" />
    <linearGradient
       inkscape:collect="always"
       xlink:href="#linearGradient3656"
       id="linearGradient3662"
       x1="113.524"
       y1="131.633"
       x2="122.952"
       y2="131.633"
       gradientUnits="userSpaceOnUse" />
    <linearGradient
       inkscape:collect="always"
       xlink:href="#linearGradient3664"
       id="linearGradient3670"
       x1="99.1763"
       y1="131.633"
       x2="108.605"
       y2="131.633"
       gradientUnits="userSpaceOnUse" />
    <linearGradient
       inkscape:collect="always"
       xlink:href="#linearGradient3672"
       id="linearGradient3678"
       x1="85.648598"
       y1="131.633"
       x2="95.077003"
       y2="131.633"
       gradientUnits="userSpaceOnUse" />
    <linearGradient
       inkscape:collect="always"
       xlink:href="#linearGradient3680"
       id="linearGradient3686"
       x1="113.524"
       y1="112.367"
       x2="136.48"
       y2="112.367"
       gradientUnits="userSpaceOnUse" />
    <linearGradient
       inkscape:collect="always"
       xlink:href="#linearGradient3688"
       id="linearGradient3694"
       x1="85.648598"
       y1="112.367"
       x2="108.605"
       y2="112.367"
       gradientUnits="userSpaceOnUse" />
    <linearGradient
       inkscape:collect="always"
       xlink:href="#linearGradient3696"
       id="linearGradient3702"
       x1="85.648598"
       y1="93.0998"
       x2="136.48"
       y2="93.0998"
       gradientUnits="userSpaceOnUse" />
  </defs>
  <sodipodi:namedview
     pagecolor="#ffffff"
     bordercolor="#666666"
     borderopacity="1"
     objecttolerance="10"
     gridtolerance="10"
     guidetolerance="10"
     inkscape:pageopacity="0"
     inkscape:pageshadow="2"
     inkscape:window-width="1680"
     inkscape:window-height="994"
     id="namedview64"
     showgrid="false"
     inkscape:zoom="3.5881183"
     inkscape:cx="91.260076"
     inkscape:cy="59.831612"
     inkscape:window-x="-4"
     inkscape:window-y="-4"
     inkscape:window-maximized="1"
     inkscape:current-layer="svg2" />
  <polygon
     points="88.688,81.998 87.2542,83.171 85.821,84.43 84.4747,85.777 83.1284,87.123 81.8687,88.556 80.6961,89.99 79.6104,91.51 78.6113,93.03 77.6994,94.593 76.8742,96.2 76.2226,97.851 75.5713,99.501 75.0065,101.195 74.5289,102.932 74.1381,104.713 73.8339,106.494 73.6169,108.361 73.4865,110.229 73.53,112.183 73.4865,114.051 73.6169,115.918 73.8339,117.742 74.1381,119.566 74.5289,121.304 75.0065,123.084 75.5713,124.778 76.2226,126.472 76.8742,128.079 77.6994,129.686 78.6113,131.206 79.6104,132.77 80.6961,134.246 81.8687,135.723 83.1284,137.113 84.4747,138.546 85.821,139.806 87.2542,141.065 88.688,142.238 90.208,143.323 91.728,144.279 93.291,145.191 94.898,146.016 96.549,146.754 98.199,147.362 99.893,147.927 101.63,148.405 103.411,148.796 105.191,149.1 107.059,149.317 108.926,149.447 110.881,149.534 112.749,149.447 114.659,149.317 116.484,149.1 118.308,148.796 120.045,148.405 120.914,148.144 121.348,148.014 121.826,147.927 122.216,147.753 122.651,147.623 123.519,147.362 125.213,146.754 125.995,146.364 126.82,146.016 127.602,145.582 127.776,145.452 127.993,145.365 128.427,145.191 128.775,144.93 128.948,144.8 129.166,144.713 129.947,144.279 131.511,143.323 132.987,142.238 134.464,141.065 135.854,139.806 136.549,139.154 137.287,138.546 137.895,137.808 138.547,137.113 139.806,135.723 140.979,134.246 142.065,132.77 143.02,131.206 143.454,130.424 143.541,130.207 143.671,130.033 143.932,129.686 144.106,129.252 144.193,129.034 144.323,128.861 144.757,128.079 145.105,127.254 145.496,126.472 146.104,124.778 146.364,123.91 146.495,123.475 146.668,123.084 146.755,122.607 146.886,122.172 147.146,121.304 147.537,119.566 147.841,117.742 148.058,115.918 148.102,114.963 148.189,114.051 148.189,113.095 148.189,112.617 148.232,112.183 148.189,110.229 148.058,108.361 147.841,106.494 147.537,104.713 147.146,102.932 146.668,101.195 146.104,99.501 145.496,97.851 144.757,96.2 143.932,94.593 143.02,93.03 142.065,91.51 140.979,89.99 139.806,88.556 138.547,87.123 137.287,85.777 135.854,84.43 134.464,83.171 132.987,81.998 131.511,80.912 129.947,79.914 128.427,79.002 126.82,78.176 125.213,77.525 123.519,76.873 121.826,76.309 120.045,75.831 118.308,75.44 116.484,75.136 114.659,74.919 112.749,74.789 110.881,74.832 110.881,74.832 108.926,74.789 107.059,74.919 105.191,75.136 103.411,75.44 101.63,75.831 99.893,76.309 98.199,76.873 96.549,77.525 94.898,78.176 93.291,79.002 91.728,79.914 90.208,80.912 "
     style="fill:#ff962d;fill-opacity:1;stroke:none"
     id="polygon4"
     transform="matrix(0.44682353,0,0,0.44682353,0,-1.953125e-6)" />
  <polygon
     points="137.3,85.721 137.3,138.602 137.3,138.602 84.4188,138.602 84.4188,85.721 "
     style="fill:#ffffff;fill-opacity:0;stroke:none"
     id="polygon6"
     transform="matrix(0.44682353,0,0,0.44682353,0,-1.953125e-6)" />
  <polygon
     points="98.7663,98.4289 96.3068,98.4289 96.3068,98.4289 96.3068,106.628 98.7663,106.628 "
     style="fill:#444444;fill-opacity:1;stroke:none"
     id="polygon8"
     transform="matrix(0.44682353,0,0,0.44682353,0,-1.953125e-6)" />
  <polygon
     points="125.822,98.4289 123.772,98.4289 123.772,98.4289 123.772,106.628 125.822,106.628 "
     style="fill:#444444;fill-opacity:1;stroke:none"
     id="polygon10"
     transform="matrix(0.44682353,0,0,0.44682353,0,-1.953125e-6)" />
  <polygon
     points="132.791,115.646 130.741,115.646 130.741,115.646 130.741,127.534 132.791,127.534 "
     style="fill:#444444;fill-opacity:1;stroke:none"
     id="polygon12"
     transform="matrix(0.44682353,0,0,0.44682353,0,-1.953125e-6)" />
  <polygon
     points="119.673,115.646 117.213,115.646 117.213,115.646 117.213,127.534 119.673,127.534 "
     style="fill:#444444;fill-opacity:1;stroke:none"
     id="polygon14"
     transform="matrix(0.44682353,0,0,0.44682353,0,-1.953125e-6)" />
  <polygon
     points="104.915,115.646 102.866,115.646 102.866,115.646 102.866,127.534 104.915,127.534 "
     style="fill:#444444;fill-opacity:1;stroke:none"
     id="polygon16"
     transform="matrix(0.44682353,0,0,0.44682353,0,-1.953125e-6)" />
  <polygon
     points="91.7975,115.646 89.338,115.646 89.338,115.646 89.338,127.534 91.7975,127.534 "
     style="fill:#444444;fill-opacity:1;stroke:none"
     id="polygon18"
     transform="matrix(0.44682353,0,0,0.44682353,0,-1.953125e-6)" />
  <polygon
     points="136.883,117.233 137.3,115.963 137.3,108.77 136.883,107.5 136.466,106.654 135.632,106.231 134.382,105.808 115.622,105.808 115.622,105.808 114.788,106.231 113.538,106.654 113.121,107.5 112.704,108.77 112.704,115.963 113.121,117.233 113.538,118.079 114.788,118.502 115.622,118.925 134.382,118.925 135.632,118.502 136.466,118.079 "
     style="fill:#465900;fill-opacity:1;stroke:none"
     id="polygon20"
     transform="matrix(0.44682353,0,0,0.44682353,0,-1.953125e-6)" />
  <polygon
     points="136.063,117.68 135.228,118.106 134.393,118.106 115.611,118.106 114.776,118.106 114.359,117.68 113.941,116.83 113.524,115.98 113.524,115.98 113.524,108.753 113.941,107.903 114.359,107.478 114.776,107.053 115.611,106.628 134.393,106.628 135.228,107.053 136.063,107.478 136.48,107.903 136.48,108.753 136.48,115.98 136.48,116.83 "
     style="fill:url(#linearGradient3686);fill-opacity:1;stroke:none"
     id="polygon22"
     transform="matrix(0.44682353,0,0,0.44682353,0,-1.953125e-6)" />
  <polygon
     points="109.008,117.233 109.425,115.963 109.425,108.77 109.008,107.5 108.591,106.654 107.757,106.231 106.506,105.808 87.7469,105.808 87.7469,105.808 86.4962,106.231 85.6625,106.654 85.2456,107.5 84.8287,108.77 84.8287,115.963 85.2456,117.233 85.6625,118.079 86.4962,118.502 87.7469,118.925 106.506,118.925 107.757,118.502 108.591,118.079 "
     style="fill:#465900;fill-opacity:1;stroke:none"
     id="polygon24"
     transform="matrix(0.44682353,0,0,0.44682353,0,-1.953125e-6)" />
  <polygon
     points="108.187,117.68 107.353,118.106 106.518,118.106 87.7355,118.106 86.9007,118.106 86.4834,117.68 86.066,116.83 85.6486,115.98 85.6486,115.98 85.6486,108.753 86.066,107.903 86.4834,107.478 86.9007,107.053 87.7355,106.628 106.518,106.628 107.353,107.053 108.187,107.478 108.605,107.903 108.605,108.753 108.605,115.98 108.605,116.83 "
     style="fill:url(#linearGradient3694);fill-opacity:1;stroke:none"
     id="polygon26"
     transform="matrix(0.44682353,0,0,0.44682353,0,-1.953125e-6)" />
  <polygon
     points="95.8969,136.5 95.8969,135.23 95.8969,128.036 95.8969,126.767 95.0455,125.921 94.1941,125.498 93.3427,125.074 87.8086,125.074 87.8086,125.074 86.5315,125.498 85.6801,125.921 85.2544,126.767 84.8287,128.036 84.8287,135.23 85.2544,136.5 85.6801,137.346 86.5315,137.769 87.8086,138.192 93.3427,138.192 94.1941,137.769 95.0455,137.346 "
     style="fill:#4e3966;fill-opacity:1;stroke:none"
     id="polygon28"
     transform="matrix(0.44682353,0,0,0.44682353,0,-1.953125e-6)" />
  <polygon
     points="94.6485,136.522 93.7913,136.947 93.3628,137.372 87.7914,137.372 86.9343,136.947 86.5057,136.522 86.0772,136.097 85.6486,135.247 85.6486,135.247 85.6486,128.02 86.0772,127.17 86.5057,126.319 86.9343,125.894 87.7914,125.894 93.3628,125.894 93.7913,125.894 94.6485,126.319 95.077,127.17 95.077,128.02 95.077,135.247 95.077,136.097 "
     style="fill:url(#linearGradient3678);fill-opacity:1;stroke:none"
     id="polygon30"
     transform="matrix(0.44682353,0,0,0.44682353,0,-1.953125e-6)" />
  <polygon
     points="108.999,136.5 109.425,135.23 109.425,128.036 108.999,126.767 108.573,125.921 107.722,125.498 106.445,125.074 101.336,125.074 101.336,125.074 100.059,125.498 99.2078,125.921 98.7822,126.767 98.3564,128.036 98.3564,135.23 98.7822,136.5 99.2078,137.346 100.059,137.769 101.336,138.192 106.445,138.192 107.722,137.769 108.573,137.346 "
     style="fill:#4e3966;fill-opacity:1;stroke:none"
     id="polygon32"
     transform="matrix(0.44682353,0,0,0.44682353,0,-1.953125e-6)" />
  <polygon
     points="108.176,136.522 107.319,136.947 106.462,137.372 101.319,137.372 100.462,136.947 99.6048,136.522 99.1763,136.097 99.1763,135.247 99.1763,135.247 99.1763,128.02 99.1763,127.17 99.6048,126.319 100.462,125.894 101.319,125.894 106.462,125.894 107.319,125.894 108.176,126.319 108.605,127.17 108.605,128.02 108.605,135.247 108.605,136.097 "
     style="fill:url(#linearGradient3670);fill-opacity:1;stroke:none"
     id="polygon34"
     transform="matrix(0.44682353,0,0,0.44682353,0,-1.953125e-6)" />
  <polygon
     points="136.874,136.5 137.3,135.23 137.3,128.036 136.874,126.767 136.448,125.921 135.597,125.498 134.32,125.074 129.212,125.074 129.212,125.074 127.935,125.498 127.083,125.921 126.657,126.767 126.232,128.036 126.232,135.23 126.657,136.5 127.083,137.346 127.935,137.769 129.212,138.192 134.32,138.192 135.597,137.769 136.448,137.346 "
     style="fill:#4e3966;fill-opacity:1;stroke:none"
     id="polygon36"
     transform="matrix(0.44682353,0,0,0.44682353,0,-1.953125e-6)" />
  <polygon
     points="136.051,136.522 135.194,136.947 134.337,137.372 129.194,137.372 128.337,136.947 127.909,136.522 127.48,136.097 127.052,135.247 127.052,135.247 127.052,128.02 127.48,127.17 127.909,126.319 128.337,125.894 129.194,125.894 134.337,125.894 135.194,125.894 136.051,126.319 136.48,127.17 136.48,128.02 136.48,135.247 136.48,136.097 "
     style="fill:url(#linearGradient3654);fill-opacity:1;stroke:none"
     id="polygon38"
     transform="matrix(0.44682353,0,0,0.44682353,0,-1.953125e-6)" />
  <polygon
     points="123.772,136.5 123.772,135.23 123.772,128.036 123.772,126.767 122.921,125.921 122.069,125.498 121.218,125.074 115.684,125.074 115.684,125.074 114.832,125.498 113.555,125.921 113.13,126.767 112.704,128.036 112.704,135.23 113.13,136.5 113.555,137.346 114.832,137.769 115.684,138.192 121.218,138.192 122.069,137.769 122.921,137.346 "
     style="fill:#4e3966;fill-opacity:1;stroke:none"
     id="polygon40"
     transform="matrix(0.44682353,0,0,0.44682353,0,-1.953125e-6)" />
  <polygon
     points="122.524,136.522 121.667,136.947 121.238,137.372 115.667,137.372 114.81,136.947 114.381,136.522 113.952,136.097 113.524,135.247 113.524,135.247 113.524,128.02 113.952,127.17 114.381,126.319 114.81,125.894 115.667,125.894 121.238,125.894 121.667,125.894 122.524,126.319 122.952,127.17 122.952,128.02 122.952,135.247 122.952,136.097 "
     style="fill:url(#linearGradient3662);fill-opacity:1;stroke:none"
     id="polygon42"
     transform="matrix(0.44682353,0,0,0.44682353,0,-1.953125e-6)" />
  <polygon
     points="136.89,98.792 136.89,97.9487 136.89,88.6726 136.89,87.4076 136.063,86.5643 135.237,86.1427 134.411,85.721 87.721,85.721 87.721,85.721 86.8946,86.1427 85.6551,86.5643 85.2419,87.4076 84.8287,88.6726 84.8287,97.9487 85.2419,98.792 85.6551,99.6352 86.8946,100.479 87.721,100.479 134.411,100.479 135.237,100.479 136.063,99.6352 "
     style="fill:#99460d;fill-opacity:1;stroke:none"
     id="polygon44"
     transform="matrix(0.44682353,0,0,0.44682353,0,-1.953125e-6)" />
  <polygon
     points="135.653,99.2356 135.24,99.6587 134.414,99.6587 87.7149,99.6587 86.8884,99.6587 86.4751,99.2356 86.0619,98.3893 85.6486,97.9661 85.6486,97.9661 85.6486,88.6567 86.0619,87.8103 86.4751,86.9641 86.8884,86.5409 87.7149,86.5409 134.414,86.5409 135.24,86.5409 135.653,86.9641 136.067,87.8103 136.48,88.6567 136.48,97.9661 136.067,98.3893 "
     style="fill:url(#linearGradient3702);fill-opacity:1;stroke:none"
     id="polygon46"
     transform="matrix(0.44682353,0,0,0.44682353,0,-1.953125e-6)" />
  <polygon
     points="138.422,60.3603 138.422,82.298 160.359,82.298 160.359,82.298 154.148,76.086 193.07,37.163 183.861,27.9535 144.938,66.876 "
     style="fill:#ce6700;fill-opacity:1;stroke:none"
     id="polygon48"
     transform="matrix(0.44682353,0,0,0.44682353,0,-1.953125e-6)" />
  <polygon
     points="221.762,115.578 221.762,102.538 166.732,102.538 166.732,102.538 166.732,93.323 151.227,108.841 166.732,124.358 166.732,115.578 "
     style="fill:#ce6700;fill-opacity:1;stroke:none"
     id="polygon50"
     transform="matrix(0.44682353,0,0,0.44682353,0,-1.953125e-6)" />
  <polygon
     points="186.248,194.72 195.457,185.51 156.535,146.587 156.535,146.587 162.747,140.375 140.809,140.375 140.809,162.313 147.325,155.797 "
     style="fill:#ce6700;fill-opacity:1;stroke:none"
     id="polygon52"
     transform="matrix(0.44682353,0,0,0.44682353,0,-1.953125e-6)" />
  <polygon
     points="125.226,55.0294 116.446,55.0294 116.446,0 116.446,0 103.406,0 103.406,55.0294 94.191,55.0294 109.709,70.535 "
     style="fill:#ce6700;fill-opacity:1;stroke:none"
     id="polygon54"
     transform="matrix(0.44682353,0,0,0.44682353,0,-1.953125e-6)" />
  <polygon
     points="59.8394,82.298 81.777,82.298 81.777,60.3604 81.777,60.3604 75.5649,66.572 36.6421,27.6497 27.4326,36.859 66.3555,75.782 "
     style="fill:#ce6700;fill-opacity:1;stroke:none"
     id="polygon56"
     transform="matrix(0.44682353,0,0,0.44682353,0,-1.953125e-6)" />
  <polygon
     points="55.0294,115.143 55.0294,124.358 70.5349,108.841 70.5349,108.841 55.0294,93.323 55.0294,102.103 0,102.103 0,115.143 "
     style="fill:#ce6700;fill-opacity:1;stroke:none"
     id="polygon58"
     transform="matrix(0.44682353,0,0,0.44682353,0,-1.953125e-6)" />
  <polygon
     points="116.012,168.772 125.226,168.772 109.709,153.267 109.709,153.267 94.191,168.772 102.972,168.772 102.972,223.802 116.012,223.802 "
     style="fill:#ce6700;fill-opacity:1;stroke:none"
     id="polygon60"
     transform="matrix(0.44682353,0,0,0.44682353,0,-1.953125e-6)" />
  <polygon
     points="75.7818,155.797 82.2979,162.313 82.2979,140.375 82.2979,140.375 60.3604,140.375 66.5723,146.587 27.6497,185.51 36.859,194.72 "
     style="fill:#ce6700;fill-opacity:1;stroke:none"
     id="polygon62"
     transform="matrix(0.44682353,0,0,0.44682353,0,-1.953125e-6)" />
</svg>
