<?xml version="1.0"?>
<?metis version="3.1"?>
<?metisxml version="1.0"?>
<!DOCTYPE svg  PUBLIC "-//W3C//DTD SVG August 1999//EN"
 "http://www.w3.org/Graphics/SVG/svg-19990812.dtd">

<svg width="200" height="200">
 <title>Symbol library: info_object.svg</title>
 <defs>
  <symbol id="oid1" xml:space="preserve" class="METIS_SYMBOL">
   <title>Information Object</title>
    <g>
      <polygon points="0 0 0 304 16.2963 320 
       880 320 880 16 863.704 0 0 0 
       0 0 0 0 0 0 0 0 
       0 0 0 0 "
       style=" stroke:#000000; stroke-width:1; fill:#9b9b9b; fill-opacity:100%"       class="TAG:shadow"></polygon>
      <rect x="0" y="0" width="240" height="304"
       style=" stroke:#000000; stroke-width:1; fill:#ff5050; fill-opacity:100%"       class="TAG:PictureBackground"></rect>
      <rect x="240" y="0" width="624" height="304"
       style=" stroke:#000000; stroke-width:1; fill:#ffe2c5; fill-opacity:100%"       class="TAG:canvas"></rect>
      <g>
	<desc>METIS_TEXT_GROUP</desc>
	<text  x="256" y="15.8"
	 style=" stroke:#000000; stroke-width:1; font-family:sans-serif; font-size:16;"
	 class="TAG:text">text</text>
	<rect x="256" y="0" width="608" height="304"
	 style=" stroke:#000000; stroke-width:1; fill:#ffffff; fill-opacity:0%"></rect>
      </g>
      <g>
	<path d="M 78.7621 105.024 C 101.24 104.502 112.629 103.088 
	 128.211 93.1986 C 128.918 92.7504 168.164 89.9464 167.62 91.8278 
	 C 146.792 163.842 153.985 141.236 126.025 232.882 C 122.167 245.522 
	 127.131 257.402 136.403 251.282 C 146.393 244.69 150.636 237.077 
	 155.982 228.677 C 156.782 227.421 162.724 231.139 160.777 234.014 
	 C 150.788 248.771 140.204 268.277 107.957 268.277 C 85.4166 268.277 
	 64 272 72.5454 233.308 C 80.2704 198.331 104.835 121.928 
	 106.934 116.302 C 107.107 115.838 97.4618 113.929 77.0449 113.929 Z"
	 style=" stroke:#ffffff; stroke-width:1; fill:#0000a5; fill-opacity:100%"	 class="TAG:i"></path>
	<ellipse  cx="146.524" cy="52.3855" rx="29.4764" ry="20.3855"
	 style=" stroke:#ffffff; stroke-width:1; fill:#0000a5; fill-opacity:100%"	 class="TAG:i"></ellipse>
      </g>
      <polyline points="864 304 880 320"
       style=" stroke:#000000; stroke-width:1;"></polyline>
    </g>
  </symbol>
 </defs>
</svg>
