<?xml version="1.0"?>
<?metis version="3.1"?>
<?metisxml version="1.0"?>
<!DOCTYPE svg  PUBLIC "-//W3C//DTD SVG August 1999//EN"
 "http://www.w3.org/Graphics/SVG/svg-19990812.dtd">

<svg width="200" height="200">
 <title>Symbol library: info_need.svg</title>
 <defs>
  <symbol id="oid1" xml:space="preserve" class="METIS_SYMBOL">
   <title>Information Need</title>
    <g>
      <polygon points="0 0 0 304 16 320 
       880 320 880 16 864 0 0 0 
       0 0 0 0 0 0 0 0 "
       style=" stroke:#000000; stroke-width:1; fill:#9b9b9b; fill-opacity:100%"       class="TAG:shadow"></polygon>
      <rect x="240" y="0" width="624" height="224"
       style=" stroke:#000000; stroke-width:1; fill:#ffb4b4; fill-opacity:100%"       class="TAG:canvas"></rect>
      <g>
	<desc>METIS_TEXT_GROUP</desc>
	<text  x="256" y="15.8"
	 style=" stroke:#000000; stroke-width:1; font-family:sans-serif; font-size:16;"
	 class="TAG:text">text</text>
	<rect x="256" y="0" width="608" height="224"
	 style=" stroke:#000000; stroke-width:1; fill:#ffffff; fill-opacity:0%"></rect>
      </g>
      <polyline points="848 288 880 320"
       style=" stroke:#000000; stroke-width:1;"></polyline>
      <g>
	<rect x="0" y="0" width="240" height="304"
	 style=" stroke:#000000; stroke-width:1; fill:#ffff6e; fill-opacity:100%"	 class="TAG:PictureBackground"></rect>
	<g>
	  <path d="M 134.974 147.898 C 133.125 137.367 134.882 130.306 
	   136.823 124.916 C 139.56 117.318 146.619 111.011 149.768 107.872 
	   C 156.383 101.275 163.247 100.43 170.106 98.2982 C 177.504 96 
	   190.585 96.9588 194.145 98.2982 C 200.561 100.713 211.99 108.268 
	   216.336 114.385 C 219.032 118.181 222.81 130.598 223.731 135.45 
	   C 224.556 139.788 225 149.346 223.731 153.835 C 219.675 168.208 
	   203.325 184.833 197.843 198.458 C 194.145 207.65 199.901 219.141 
	   194.145 219.141 C 186.749 219.141 183.052 219.141 171.955 219.141 
	   C 166.203 219.141 171.133 202.801 171.955 198.458 C 172.879 193.61 
	   177.081 185.331 179.353 181.415 C 183.667 173.982 199.308 165.6 
	   201.541 153.835 C 203.207 145.067 200.437 131.893 194.145 126.258 
	   C 188.177 120.908 177.486 122.07 171.955 124.916 C 168.048 126.929 
	   159.013 135.069 157.164 147.898 Z"
	   style=" stroke:#000000; stroke-width:1; fill:#0000a5; fill-opacity:100%"></path>
	  <ellipse  cx="183.052" cy="253.615" rx="22.1893" ry="18.3855"
	   style=" stroke:#000000; stroke-width:1; fill:#0000a5; fill-opacity:100%"></ellipse>
	</g>
	<g>
	  <path d="M 28.8396 105.025 C 49.9121 104.502 60.5883 103.088 
	   75.1978 93.1988 C 75.86 92.751 112.654 89.946 112.143 91.8274 
	   C 92.6167 163.84 99.36 141.235 73.1479 232.881 C 69.5326 245.522 
	   74.1852 257.402 82.8772 251.282 C 92.2421 244.689 96.2212 237.077 
	   101.233 228.677 C 101.982 227.42 107.552 231.137 105.727 234.016 
	   C 96.3628 248.772 86.44 268.276 56.2088 268.276 C 35.078 268.276 
	   15 272 23.0112 233.308 C 30.2532 198.33 53.2836 121.926 
	   55.2503 116.301 C 55.4123 115.838 46.3701 113.929 27.2296 113.929 Z"
	   style=" stroke:#ffffff; stroke-width:1; fill:#0000a5; fill-opacity:100%"	   class="TAG:i"></path>
	  <ellipse  cx="92.3661" cy="52.3857" rx="27.6339" ry="20.3857"
	   style=" stroke:#ffffff; stroke-width:1; fill:#0000a5; fill-opacity:100%"	   class="TAG:i"></ellipse>
	</g>
      </g>
      <rect x="240" y="224" width="624" height="79.7079"
       style=" stroke:#000000; stroke-width:1; fill:#dcdcdc; fill-opacity:100%"></rect>
      <g>
	<desc>METIS_TEXT_GROUP</desc>
	<text  x="256" y="236.8"
	 style=" stroke:#000000; stroke-width:1; font-family:sans-serif; font-size:13;"
	 class="TAG:strat_value">strat_value</text>
	<rect x="256" y="224" width="608" height="80"
	 style=" stroke:#000000; stroke-width:1; fill:#ffffff; fill-opacity:0%"></rect>
      </g>
    </g>
  </symbol>
 </defs>
</svg>
