<?xml version="1.0"?>
<?metis version="3.2"?>
<?metisxml version="1.1"?>
<!DOCTYPE svg  PUBLIC "-//W3C//DTD SVG August 1999//EN"
 "http://www.w3.org/Graphics/SVG/svg-19990812.dtd">

<svg width="200" height="200">
 <title>Symbol library: info_group.svg</title>
 <defs>
  <symbol id="oid1" xml:space="preserve" class="METIS_SYMBOL">
   <title>Information Group</title>
    <polygon points="-7.10543e-015 0 -7.10543e-015 304 16.2963 320 
     880 320 880 16 863.704 0 -7.10543e-015 0 
     -7.10543e-015 0 -7.10543e-015 0 -7.10543e-015 0 -7.10543e-015 0 
     -7.10543e-015 0 -7.10543e-015 0 -7.10543e-015 0 -7.10543e-015 0 
     -7.10543e-015 0 -7.10543e-015 0 "
     style=" stroke:#000000; stroke-width:1; fill:#9b9b9b; fill-opacity:100%"     class="TAG:shadow"></polygon>
    <polygon points="-7.10543e-015 0 240 0 240 304 
     -7.10543e-015 304 -7.10543e-015 0 "
     style=" stroke:#000000; stroke-width:1; fill:#ff5050; fill-opacity:100%"     class="TAG:PictureBackground"></polygon>
    <rect x="240" y="0" width="624" height="304"
     style=" stroke:#000000; stroke-width:1; fill:#ffe2c5; fill-opacity:100%"     class="TAG:canvas"></rect>
    <g>
      <desc>METIS_TEXT_GROUP</desc>
      <text  x="256" y="15"
       style=" stroke:#000000; stroke-width:1; font-family:sans-serif; font-size:16;"
       class="TAG:text">text</text>
      <rect x="256" y="0" width="608" height="304"
       style=" stroke:#000000; stroke-width:1; fill:#ffffff; fill-opacity:0%"></rect>
    </g>
    <g>
      <ellipse  cx="120" cy="152" rx="104" ry="120"
       style=" stroke:#0000ff; stroke-width:2; fill:#ff5050; fill-opacity:100%"></ellipse>
      <g>
	<g>
	  <path d="M 65.0131 102.065 C 76.3009 101.822 82.0197 101.163 
	   89.8454 96.5488 C 90.1997 96.3397 109.908 95.0317 109.635 95.9095 
	   C 99.1752 129.503 102.788 118.958 88.7473 161.71 C 86.8104 167.606 
	   89.3025 173.148 93.9589 170.293 C 98.9747 167.218 101.107 163.666 
	   103.791 159.748 C 104.192 159.161 107.177 160.895 106.199 162.238 
	   C 101.182 169.122 95.8669 178.221 79.6738 178.221 C 68.3547 178.221 
	   57.6 179.958 61.8912 161.908 C 65.7704 145.591 78.1066 109.951 
	   79.1604 107.327 C 79.247 107.11 74.4036 106.219 64.1509 106.219 Z"
	   style=" stroke:#ffffff; stroke-width:1; fill:#0000a5; fill-opacity:100%"	   class="TAG:i"></path>
	  <ellipse  cx="99.0415" cy="77.5101" rx="14.8022" ry="9.50956"
	   style=" stroke:#ffffff; stroke-width:1; fill:#0000a5; fill-opacity:100%"	   class="TAG:i"></ellipse>
	</g>
	<g>
	  <path d="M 99.7089 129.734 C 110.998 129.491 116.717 128.832 
	   124.543 124.218 C 124.895 124.01 144.605 122.701 144.331 123.579 
	   C 133.873 157.172 137.483 146.627 123.443 189.377 C 121.507 195.273 
	   123.999 200.817 128.656 197.962 C 133.672 194.885 135.803 191.335 
	   138.487 187.417 C 138.888 186.83 141.872 188.564 140.895 189.907 
	   C 135.879 196.791 130.563 205.89 114.369 205.89 C 103.052 205.89 
	   92.2964 207.627 96.5875 189.577 C 100.467 173.26 112.803 137.618 
	   113.857 134.996 C 113.943 134.779 109.1 133.888 98.8471 133.888 Z"
	   style=" stroke:#ffffff; stroke-width:1; fill:#0000a5; fill-opacity:100%"	   class="TAG:i"></path>
	  <ellipse  cx="133.737" cy="105.179" rx="14.8022" ry="9.50956"
	   style=" stroke:#ffffff; stroke-width:1; fill:#0000a5; fill-opacity:100%"	   class="TAG:i"></ellipse>
	</g>
	<g>
	  <path d="M 133.57 157.818 C 144.857 157.573 150.576 156.914 
	   158.402 152.3 C 158.756 152.092 178.465 150.785 178.192 151.661 
	   C 167.732 185.256 171.345 174.711 157.304 217.463 C 155.366 223.359 
	   157.858 228.899 162.515 226.045 C 167.532 222.971 169.662 219.418 
	   172.347 215.501 C 172.749 214.914 175.733 216.65 174.756 217.99 
	   C 169.738 224.873 164.424 233.973 148.231 233.973 C 136.911 233.973 
	   126.157 235.709 130.448 217.66 C 134.327 201.344 146.662 165.703 
	   147.717 163.08 C 147.803 162.862 142.96 161.972 132.708 161.972 Z"
	   style=" stroke:#ffffff; stroke-width:1; fill:#0000a5; fill-opacity:100%"	   class="TAG:i"></path>
	  <ellipse  cx="167.599" cy="133.263" rx="14.8022" ry="9.50956"
	   style=" stroke:#ffffff; stroke-width:1; fill:#0000a5; fill-opacity:100%"	   class="TAG:i"></ellipse>
	</g>
      </g>
    </g>
    <polyline points="864 304 880 320"
     style=" stroke:#000000; stroke-width:1;"></polyline>
  </symbol>
 </defs>
</svg>
