<?xml version="1.0" encoding="UTF-8" standalone="no"?>
<svg id="svg2" xmlns:rdf="http://www.w3.org/1999/02/22-rdf-syntax-ns#" xmlns="http://www.w3.org/2000/svg" enable-background="new -0.872 -0.134 214 209" xml:space="preserve" height="219" width="219" version="1.1" y="0px" x="0px" xmlns:cc="http://creativecommons.org/ns#" xmlns:xlink="http://www.w3.org/1999/xlink" viewBox="-0.872 -0.134 219 219" xmlns:dc="http://purl.org/dc/elements/1.1/"><metadata id="metadata261"><rdf:RDF><cc:Work rdf:about=""><dc:format>image/svg+xml</dc:format><dc:type rdf:resource="http://purl.org/dc/dcmitype/StillImage"/><dc:title/></cc:Work></rdf:RDF></metadata>
<defs id="defs4"><filter id="filter4206" color-interpolation-filters="sRGB"><feGaussianBlur id="feGaussianBlur4208" stdDeviation="1.2613468"/></filter><filter id="filter4095" color-interpolation-filters="sRGB"><feGaussianBlur id="feGaussianBlur4097" stdDeviation="1.8826198"/></filter><linearGradient id="linearGradient3740" y2="23.441" gradientUnits="userSpaceOnUse" x2="58.162" y1="99.658" x1="153.17"><stop id="stop4000" stop-color="#ffbb19" offset="0"/><stop id="stop4012" stop-color="#d5c34c" offset="0.78835"/><stop id="stop4002" stop-color="#fcf0f0" offset="1"/></linearGradient></defs>
<path id="path4092" opacity="0.5" d="m26.845,203.65c-5.2541-1.4057-10.335-5.4389-12.865-10.212-2.5496-4.8105-2.4697-3.6667-2.6473-37.867-0.10158-19.562,0.0217-33.209,0.31711-35.107,1.3874-8.9116,8.2335-15.986,17.096-17.667,3.4734-0.65871,117.42-0.67936,121.44-0.022,8.857,1.4504,15.984,8.6666,17.386,17.605,0.62616,3.9901,0.66165,61.583,0.0406,65.878-1.1973,8.2802-7.475,15.354-15.475,17.438-4.2014,1.0943-121.19,1.0522-125.29-0.0451zm101.02-8.533c12.396-2.8369,22.831-11.455,28.455-23.502,2.6203-5.6125,3.4434-9.0056,3.7749-15.561,0.61625-12.187-3.1337-22.422-11.482-31.337-8.1452-8.6985-18.554-13.206-30.541-13.224-21.993-0.0342-40.121,16.232-42.309,37.964-1.3307,13.217,3.1682,25.491,12.741,34.763,10.723,10.385,24.695,14.254,39.361,10.897zm-41.152-96.556c-14.44-1.2843-26.833-9.8342-32.986-22.756-2.602-5.4648-3.4476-8.9068-3.7688-15.343-0.55771-11.174,3.1628-20.949,11.129-29.24,13.424-13.972,34.897-16.293,50.793-5.4901,2.9236,1.9868,8.0022,6.8697,10.061,9.6729,2.2474,3.0604,4.7404,8.217,6.114,12.647,1.6358,5.2752,1.6688,15.627,0.0673,21.16-3.5769,12.358-12.861,22.531-24.55,26.9-5.0367,1.8824-11.95,2.8872-16.86,2.4505z" fill-rule="evenodd" transform="matrix(1.0882904,0,0,1.0882904,17.81852,-8.4538041)" filter="url(#filter4095)" stroke-miterlimit="4" stroke-width="0" fill="#000"/><g id="g239" transform="matrix(1.0882904,0,0,1.0882904,20.977368,-16.963086)">
	<g id="g241">
		<path id="path243" fill="#3f3f3f" d="m80.593,102.06c22.757,0,41.194-18.45,41.194-41.181,0-22.755-18.438-41.181-41.194-41.181-22.74,0-41.194,18.426-41.194,41.181,0,22.731,18.455,41.181,41.194,41.181zm57.29,1.162h-5.694l0.009-0.028-91.384,0.103-0.024-0.075h-17.502c-12.316,0-22.29,9.98-22.29,22.28v60.074c0,12.314,9.974,22.289,22.29,22.289h51.609l-0.032-0.1,11.465,0.016-0.027,0.084h51.579c12.303,0,22.277-9.975,22.277-22.289v-60.07c0-12.303-9.975-22.277-22.278-22.277zm-29.146,94.075c-22.825,0-41.327-18.504-41.327-41.326,0-22.824,18.502-41.324,41.327-41.324,22.822,0,41.324,18.5,41.324,41.324,0,22.822-18.502,41.326-41.324,41.326z"/>
	</g>
	<g id="g245">
		<path id="path247" d="m80.593,102.06c22.757,0,41.194-18.45,41.194-41.181,0-22.755-18.438-41.181-41.194-41.181-22.74,0-41.194,18.426-41.194,41.181,0,22.731,18.455,41.181,41.194,41.181zm57.29,1.162h-5.694l0.009-0.028-91.384,0.103-0.024-0.075h-17.502c-12.316,0-22.29,9.98-22.29,22.28v60.074c0,12.314,9.974,22.289,22.29,22.289h51.609l-0.032-0.1,11.465,0.016-0.027,0.084h51.579c12.303,0,22.277-9.975,22.277-22.289v-60.07c0-12.303-9.975-22.277-22.278-22.277zm-29.146,94.075c-22.825,0-41.327-18.504-41.327-41.326,0-22.824,18.502-41.324,41.327-41.324,22.822,0,41.324,18.5,41.324,41.324,0,22.822-18.502,41.326-41.324,41.326z" stroke="#FFF" stroke-width="2" fill="none"/>
	</g>
</g><path id="path249" d="m153.52,49.292c0-24.764-20.066-44.817-44.831-44.817-24.748,0-44.831,20.053-44.831,44.817,0,24.738,20.084,44.817,44.831,44.817,24.765,0,44.831-20.079,44.831-44.817z" stroke="#FFF" stroke-width="2.17658091" fill="#bababa"/><path id="path251" d="m155.76,110.81c-0.008-0.004-0.0174-0.006-0.0228-0.008m-26.16,85.69c-19.879-4.6549-34.98-22.415-34.98-43.71,0-24.839,20.136-44.973,44.977-44.973,5.6961,0,11.146,1.0589,16.163,2.9928l0.062-0.20243,4.6927-15.255-103.78,0.11645,33.648,113.67,35.117,0.049,3.7851-11.646,0.31995-1.0458z" stroke="#FFF" stroke-width="2.17658091" fill="#828282"/><path id="path253" d="m125.21,110.05-15.851-13.296-21.914,18.392,8.2764,25.392c4.1105-14.441,15.247-25.917,29.488-30.488z" stroke="#FFF" stroke-width="2.17658091" fill="#3f3f3f"/><path id="path4204" opacity="0.5" d="m180.6,77.292a57.334,57.334,0,1,1,-114.67,0,57.334,57.334,0,1,1,114.67,0z" fill-rule="evenodd" transform="matrix(0.72065992,0,0,0.72432629,70.387511,90.14751)" filter="url(#filter4206)" stroke-miterlimit="4" stroke-width="0" fill="#000"/><circle id="circle247" stroke-width="2" d="m 160.948,58.306 c 0,31.649781 -25.65722,57.307 -57.307,57.307 -31.649783,0 -57.307,-25.657219 -57.307,-57.307 0,-31.649782 25.657217,-57.30699945 57.307,-57.30699945 31.64978,0 57.307,25.65721745 57.307,57.30699945 z" stroke="#ffcc51" transform="matrix(0.70366947,0,0,0.70366947,82.756963,103.20193)" cy="58.306" cx="103.64" r="57.307" fill="url(#linearGradient3740)"/><path id="path249-7" fill="#FFF" d="m148.98,123.27v-11.944h12.91v11.945h-12.91zm0,55.404v-48.789h12.91v48.789h-12.91z"/></svg>