<?xml version="1.0" encoding="UTF-8" standalone="no"?>

<svg
 xmlns:dc="http://purl.org/dc/elements/1.1/"
   xmlns:cc="http://creativecommons.org/ns#"
   xmlns:rdf="http://www.w3.org/1999/02/22-rdf-syntax-ns#"
   xmlns:svg="http://www.w3.org/2000/svg"
   xmlns="http://www.w3.org/2000/svg"
   xmlns:xlink="http://www.w3.org/1999/xlink"
   xmlns:sodipodi="http://sodipodi.sourceforge.net/DTD/sodipodi-0.dtd"
   xmlns:inkscape="http://www.inkscape.org/namespaces/inkscape"
   id="svg2"
   version="1.1"
   inkscape:version="0.47 r22583"
   width="100"
   height="100"
   sodipodi:docname="information_architecture.svg">
  <metadata
     id="metadata94">
    <rdf:RDF>
      <cc:Work
         rdf:about="">
        <dc:format>image/svg+xml</dc:format>
        <dc:type
           rdf:resource="http://purl.org/dc/dcmitype/StillImage" />
      </cc:Work>
    </rdf:RDF>
  </metadata>
  <defs
     id="defs92">
    <linearGradient
       inkscape:collect="always"
       id="linearGradient3738">
      <stop
         style="stop-color:#f57210;stop-opacity:1;"
         offset="0"
         id="stop3740" />
      <stop
         style="stop-color:#f57210;stop-opacity:0;"
         offset="1"
         id="stop3742" />
    </linearGradient>
    <linearGradient
       inkscape:collect="always"
       id="linearGradient3730">
      <stop
         style="stop-color:#ff7711;stop-opacity:1;"
         offset="0"
         id="stop3732" />
      <stop
         style="stop-color:#ff7711;stop-opacity:0;"
         offset="1"
         id="stop3734" />
    </linearGradient>
    <linearGradient
       inkscape:collect="always"
       id="linearGradient3722">
      <stop
         style="stop-color:#ff7711;stop-opacity:1;"
         offset="0"
         id="stop3724" />
      <stop
         style="stop-color:#ff7711;stop-opacity:0;"
         offset="1"
         id="stop3726" />
    </linearGradient>
    <linearGradient
       inkscape:collect="always"
       id="linearGradient3714">
      <stop
         style="stop-color:#ffffff;stop-opacity:1;"
         offset="0"
         id="stop3716" />
      <stop
         style="stop-color:#ffffff;stop-opacity:0;"
         offset="1"
         id="stop3718" />
    </linearGradient>
    <linearGradient
       inkscape:collect="always"
       id="linearGradient3706">
      <stop
         style="stop-color:#ffffff;stop-opacity:1;"
         offset="0"
         id="stop3708" />
      <stop
         style="stop-color:#ffffff;stop-opacity:0;"
         offset="1"
         id="stop3710" />
    </linearGradient>
    <linearGradient
       inkscape:collect="always"
       id="linearGradient3698">
      <stop
         style="stop-color:#ffffff;stop-opacity:1;"
         offset="0"
         id="stop3700" />
      <stop
         style="stop-color:#ffffff;stop-opacity:0;"
         offset="1"
         id="stop3702" />
    </linearGradient>
    <linearGradient
       inkscape:collect="always"
       id="linearGradient3690">
      <stop
         style="stop-color:#567500;stop-opacity:1;"
         offset="0"
         id="stop3692" />
      <stop
         style="stop-color:#567500;stop-opacity:0;"
         offset="1"
         id="stop3694" />
    </linearGradient>
    <linearGradient
       inkscape:collect="always"
       id="linearGradient3682">
      <stop
         style="stop-color:#ff7711;stop-opacity:1;"
         offset="0"
         id="stop3684" />
      <stop
         style="stop-color:#ff7711;stop-opacity:0;"
         offset="1"
         id="stop3686" />
    </linearGradient>
    <linearGradient
       inkscape:collect="always"
       id="linearGradient3674">
      <stop
         style="stop-color:#775599;stop-opacity:1;"
         offset="0"
         id="stop3676" />
      <stop
         style="stop-color:#775599;stop-opacity:0;"
         offset="1"
         id="stop3678" />
    </linearGradient>
    <inkscape:perspective
       sodipodi:type="inkscape:persp3d"
       inkscape:vp_x="0 : 0.5 : 1"
       inkscape:vp_y="0 : 1000 : 0"
       inkscape:vp_z="1 : 0.5 : 1"
       inkscape:persp3d-origin="0.5 : 0.33333333 : 1"
       id="perspective96" />
    <linearGradient
       inkscape:collect="always"
       xlink:href="#linearGradient3674"
       id="linearGradient3680"
       x1="15.625"
       y1="761.71899"
       x2="281.25"
       y2="761.71899"
       gradientUnits="userSpaceOnUse" />
    <linearGradient
       inkscape:collect="always"
       xlink:href="#linearGradient3682"
       id="linearGradient3688"
       x1="7.8125"
       y1="457.03201"
       x2="273.43799"
       y2="457.03201"
       gradientUnits="userSpaceOnUse" />
    <linearGradient
       inkscape:collect="always"
       xlink:href="#linearGradient3690"
       id="linearGradient3696"
       x1="375"
       y1="246.09399"
       x2="640.625"
       y2="246.09399"
       gradientUnits="userSpaceOnUse" />
    <linearGradient
       inkscape:collect="always"
       xlink:href="#linearGradient3698"
       id="linearGradient3704"
       x1="653.53998"
       y1="803.7605"
       x2="973.703"
       y2="803.7605"
       gradientUnits="userSpaceOnUse" />
    <linearGradient
       inkscape:collect="always"
       xlink:href="#linearGradient3706"
       id="linearGradient3712"
       x1="700.01501"
       y1="739.21198"
       x2="1020.18"
       y2="739.21198"
       gradientUnits="userSpaceOnUse" />
    <linearGradient
       inkscape:collect="always"
       xlink:href="#linearGradient3714"
       id="linearGradient3720"
       x1="741.32703"
       y1="672.08148"
       x2="1061.49"
       y2="672.08148"
       gradientUnits="userSpaceOnUse" />
    <linearGradient
       inkscape:collect="always"
       xlink:href="#linearGradient3722"
       id="linearGradient3728"
       x1="734.375"
       y1="613.28198"
       x2="992.18701"
       y2="613.28198"
       gradientUnits="userSpaceOnUse" />
    <linearGradient
       inkscape:collect="always"
       xlink:href="#linearGradient3730"
       id="linearGradient3736"
       x1="367.18799"
       y1="531.25"
       x2="632.81299"
       y2="531.25"
       gradientUnits="userSpaceOnUse" />
    <linearGradient
       inkscape:collect="always"
       xlink:href="#linearGradient3738"
       id="linearGradient3744"
       x1="441.82001"
       y1="873.47247"
       x2="1035.67"
       y2="873.47247"
       gradientUnits="userSpaceOnUse" />
  </defs>
  <sodipodi:namedview
     pagecolor="#ffffff"
     bordercolor="#666666"
     borderopacity="1"
     objecttolerance="10"
     gridtolerance="10"
     guidetolerance="10"
     inkscape:pageopacity="0"
     inkscape:pageshadow="2"
     inkscape:window-width="1680"
     inkscape:window-height="994"
     id="namedview90"
     showgrid="false"
     inkscape:zoom="7.49"
     inkscape:cx="50"
     inkscape:cy="50"
     inkscape:window-x="-4"
     inkscape:window-y="-4"
     inkscape:window-maximized="1"
     inkscape:current-layer="svg2" />
  <polygon
     points="0,1007.81 0,0 1007.81,0 1007.81,1007.81 1007.81,1007.81 "
     style="fill:#ffffff;fill-opacity:0;stroke:none"
     id="polygon4"
     transform="matrix(0.08450871,0,0,0.08450871,0,-5.859375e-5)" />
  <polygon
     points="109.375,695.312 140.625,695.312 140.625,531.25 109.375,531.25 109.375,531.25 "
     style="fill:#000000;fill-opacity:1;stroke:none"
     id="polygon6"
     transform="matrix(0.08450871,0,0,0.08450871,0,-5.859375e-5)" />
  <polygon
     points="390.625,515.625 390.625,497.769 226.934,453.125 218.75,479.91 218.75,479.91 "
     style="fill:#000000;fill-opacity:1;stroke:none"
     id="polygon8"
     transform="matrix(0.08450871,0,0,0.08450871,0,-5.859375e-5)" />
  <polygon
     points="780.896,601.562 789.063,583.705 617.543,539.062 609.375,565.848 609.375,565.848 "
     style="fill:#000000;fill-opacity:1;stroke:none"
     id="polygon10"
     transform="matrix(0.08450871,0,0,0.08450871,0,-5.859375e-5)" />
  <polygon
     points="484.375,468.75 515.625,468.75 515.625,304.688 484.375,304.688 484.375,304.688 "
     style="fill:#000000;fill-opacity:1;stroke:none"
     id="polygon12"
     transform="matrix(0.08450871,0,0,0.08450871,0,-5.859375e-5)" />
  <polygon
     points="383.258,117.425 375.223,125.473 367.188,133.522 367.188,133.522 367.188,222.064 367.188,302.556 367.188,318.655 375.223,326.704 399.331,334.753 616.295,375 632.367,375 640.402,375 648.438,366.95 648.438,358.901 648.438,197.916 640.402,181.819 632.367,173.769 616.295,165.719 391.295,109.375 "
     style="fill:#465900;fill-opacity:1;stroke:none"
     id="polygon14"
     transform="matrix(0.08450871,0,0,0.08450871,0,-5.859375e-5)" />
  <polygon
     points="399.148,318.75 383.049,310.678 375,302.605 375,205.729 375,141.146 383.049,125 391.099,125 616.478,173.438 624.528,181.511 632.576,189.583 640.625,205.729 640.625,359.115 632.576,367.188 616.478,367.188 616.478,367.188 "
     style="fill:url(#linearGradient3696);fill-opacity:1;stroke:none"
     id="polygon16"
     transform="matrix(0.08450871,0,0,0.08450871,0,-5.859375e-5)" />
  <polygon
     points="23.8839,632.812 15.8482,640.862 7.8125,656.96 7.8125,656.96 7.8125,737.452 7.8125,825.993 7.8125,834.043 15.8482,842.093 39.9554,850.142 256.92,898.437 272.991,898.437 281.027,890.387 289.063,882.339 289.063,874.29 289.063,721.354 281.027,705.256 272.991,689.157 256.92,681.108 31.9196,632.812 "
     style="fill:#143a72;fill-opacity:1;stroke:none"
     id="polygon18"
     transform="matrix(0.08450871,0,0,0.08450871,0,-5.859375e-5)" />
  <polygon
     points="39.7727,842.449 23.6742,834.375 15.625,826.302 15.625,721.354 15.625,656.771 23.6742,640.625 31.7235,640.625 257.102,689.063 265.151,697.135 273.2,705.208 281.25,721.354 281.25,874.741 273.2,882.813 257.102,882.813 257.102,882.813 "
     style="fill:url(#linearGradient3680);fill-opacity:1;stroke:none"
     id="polygon20"
     transform="matrix(0.08450871,0,0,0.08450871,0,-5.859375e-5)" />
  <polygon
     points="8.0357,336.411 0,344.46 0,344.46 0,433.002 0,513.493 8.0357,529.593 16.0714,537.642 32.1428,545.69 257.142,585.937 265.178,585.937 281.25,585.937 281.25,569.839 281.25,408.854 281.25,392.756 265.178,384.706 249.107,376.657 32.1428,320.312 16.0714,328.362 "
     style="fill:#99460d;fill-opacity:1;stroke:none"
     id="polygon22"
     transform="matrix(0.08450871,0,0,0.08450871,0,-5.859375e-5)" />
  <polygon
     points="40.0095,529.689 15.8617,521.616 15.8617,513.542 7.8125,416.667 15.8617,352.083 23.911,335.938 31.9602,335.938 249.29,384.375 257.339,392.448 265.388,400.522 273.438,408.594 273.438,570.054 273.438,578.126 257.339,578.126 257.339,578.126 "
     style="fill:url(#linearGradient3688);fill-opacity:1;stroke:none"
     id="polygon24"
     transform="matrix(0.08450871,0,0,0.08450871,0,-5.859375e-5)" />
  <polygon
     points="1000,572.832 1000,572.832 1000,726.059 1000,734.123 991.957,742.188 975.873,742.188 758.731,701.865 742.648,693.801 734.605,685.737 726.562,677.672 726.562,597.026 726.562,508.316 742.648,492.188 750.689,492.188 975.873,540.574 983.914,548.639 1000,556.704 "
     style="fill:#ff7711;fill-opacity:1;stroke:none"
     id="polygon26"
     transform="matrix(0.08450871,0,0,0.08450871,0,-5.859375e-5)" />
  <polygon
     points="742.839,484.375 734.809,492.425 726.779,508.522 726.779,508.522 718.75,589.015 726.779,677.556 726.779,685.606 734.809,693.655 758.897,701.704 975.694,750 991.753,750 999.783,741.95 1007.81,733.901 1007.81,725.852 1007.81,572.916 999.783,556.819 991.753,540.719 975.694,532.67 750.868,484.375 "
     style="fill:#99460d;fill-opacity:1;stroke:none"
     id="polygon28"
     transform="matrix(0.08450871,0,0,0.08450871,0,-5.859375e-5)" />
  <polygon
     points="758.544,694.012 742.432,685.939 734.375,677.866 734.375,572.917 734.375,508.333 742.432,500.26 750.488,492.188 968.018,548.698 984.13,548.698 992.187,556.772 992.187,572.917 992.187,726.304 992.187,734.376 976.074,734.376 976.074,734.376 "
     style="fill:url(#linearGradient3728);fill-opacity:1;stroke:none"
     id="polygon30"
     transform="matrix(0.08450871,0,0,0.08450871,0,-5.859375e-5)" />
  <polygon
     points="367.188,607.718 367.188,398.438 632.813,462.832 632.813,664.063 632.813,664.063 "
     style="fill:#ff7711;fill-opacity:1;stroke:none"
     id="polygon32"
     transform="matrix(0.08450871,0,0,0.08450871,0,-5.859375e-5)" />
  <polygon
     points="375.446,406.487 367.411,406.487 359.375,422.585 359.375,422.585 359.375,503.078 359.375,591.62 359.375,599.669 367.411,607.718 391.518,615.767 608.482,664.063 624.555,664.063 632.59,656.014 640.625,647.964 640.625,639.915 640.625,486.979 632.59,470.881 624.555,454.782 608.482,446.733 383.482,398.438 "
     style="fill:#99460d;fill-opacity:1;stroke:none"
     id="polygon34"
     transform="matrix(0.08450871,0,0,0.08450871,0,-5.859375e-5)" />
  <polygon
     points="391.335,607.862 375.237,599.798 367.188,591.734 367.188,486.895 367.188,422.379 375.237,414.314 383.285,406.25 600.616,462.702 616.714,470.766 624.764,478.83 632.813,486.895 632.813,648.185 624.764,648.185 608.665,656.25 608.665,656.25 "
     style="fill:url(#linearGradient3736);fill-opacity:1;stroke:none"
     id="polygon36"
     transform="matrix(0.08450871,0,0,0.08450871,0,-5.859375e-5)" />
  <polygon
     points="462.869,1105.18 452.454,1079.14 447.246,1053.1 416,719.758 416,693.716 421.208,672.883 431.623,646.84 447.246,626.007 462.869,610.382 483.7,599.964 509.738,589.548 530.569,584.339 858.653,579.131 884.69,579.131 910.729,584.339 931.56,599.964 952.39,615.59 973.221,631.215 983.637,652.049 994.052,678.091 999.26,704.134 1009.68,797.885 1020.09,891.637 1020.09,891.637 1030.51,1037.47 1030.51,1063.51 1025.3,1089.56 1020.09,1110.39 1004.47,1131.22 988.844,1146.85 968.014,1162.48 941.975,1167.68 915.937,1172.89 587.853,1183.31 561.815,1178.1 540.984,1172.89 514.946,1162.48 494.115,1146.85 478.492,1126.02 "
     style="fill:#93430c;fill-opacity:1;stroke:none"
     id="polygon38"
     transform="matrix(0.08450871,0,0,0.08450871,0,-5.859375e-5)" />
  <polygon
     points="478.284,1068.87 478.284,1042.81 441.82,714.556 441.82,688.504 447.029,667.661 457.447,646.82 467.866,631.189 488.702,615.558 504.33,599.926 525.167,594.716 551.213,589.505 874.184,584.295 900.23,584.295 921.067,589.505 941.905,599.926 962.741,615.558 978.369,631.189 988.787,652.03 999.206,672.872 1004.42,698.924 1035.67,1027.18 1035.67,1027.18 1035.67,1053.23 1030.46,1074.08 1020.04,1094.92 1009.62,1115.76 993.997,1131.39 973.16,1141.81 952.323,1147.02 931.486,1152.23 603.305,1162.65 582.468,1157.44 556.422,1152.23 535.585,1141.81 519.958,1126.18 504.33,1110.55 488.702,1089.71 "
     style="fill:url(#linearGradient3744);fill-opacity:1;stroke:none"
     id="polygon40"
     transform="matrix(0.08450871,0,0,0.08450871,0,-5.859375e-5)" />
  <polygon
     points="529.999,1048.42 524.78,1032.75 519.559,1011.87 493.459,740.359 493.459,724.695 498.679,703.811 503.899,688.147 514.339,672.483 529.999,662.04 545.659,651.597 561.319,646.376 582.199,641.155 843.201,635.934 864.082,635.934 884.962,641.155 900.622,651.597 916.282,662.04 926.723,677.704 937.163,693.368 947.603,709.032 947.603,729.917 958.042,813.457 963.262,876.113 963.262,876.113 973.703,996.202 973.703,1017.09 968.483,1037.97 963.262,1053.64 952.822,1069.3 942.382,1079.74 926.723,1090.19 905.842,1095.41 890.182,1095.41 623.96,1105.85 608.3,1105.85 587.42,1100.63 571.759,1090.19 556.099,1079.74 540.439,1064.08 "
     style="fill:#ffffff;fill-opacity:1;stroke:none"
     id="polygon42"
     transform="matrix(0.08450871,0,0,0.08450871,0,-5.859375e-5)" />
  <polygon
     points="777.24,764.343 782.638,769.851 771.841,769.851 680.064,775.36 674.665,775.36 674.665,764.343 663.868,698.245 663.868,692.737 674.665,692.737 766.442,692.737 766.442,692.737 771.841,692.737 771.841,698.245 "
     style="fill:#93430c;fill-opacity:1;stroke:none"
     id="polygon44"
     transform="matrix(0.08450871,0,0,0.08450871,0,-5.859375e-5)" />
  <polygon
     points="761.659,703.065 679.36,708.745 684.847,759.868 767.146,759.868 767.146,759.868 "
     style="fill:#f57210;fill-opacity:1;stroke:none"
     id="polygon46"
     transform="matrix(0.08450871,0,0,0.08450871,0,-5.859375e-5)" />
  <polyline
     points="767.146 759.868 761.659 703.065 679.36 708.745    684.847 759.868 767.146 759.868"
     style="stroke:none"
     id="polyline48"
     transform="matrix(0.08450871,0,0,0.08450871,0,-5.859375e-5)" />
  <polygon
     points="808.457,1048.84 808.457,1054.11 803.078,1054.11 711.634,1059.37 700.876,1059.37 700.876,1054.11 679.36,811.717 679.36,801.179 684.739,801.179 776.183,801.179 776.183,801.179 786.941,801.179 786.941,806.448 "
     style="fill:#93430c;fill-opacity:1;stroke:none"
     id="polygon50"
     transform="matrix(0.08450871,0,0,0.08450871,0,-5.859375e-5)" />
  <polygon
     points="771.02,811.507 689.688,816.788 716.798,1043.88 798.13,1043.88 798.13,1043.88 "
     style="fill:#f57210;fill-opacity:1;stroke:none"
     id="polygon52"
     transform="matrix(0.08450871,0,0,0.08450871,0,-5.859375e-5)" />
  <polyline
     points="798.13 1043.88 771.02 811.507 689.688 816.788    716.798 1043.88 798.13 1043.88"
     style="stroke:none"
     id="polyline54"
     transform="matrix(0.08450871,0,0,0.08450871,0,-5.859375e-5)" />
  <polygon
     points="805.714,940.266 821.448,929.769 852.916,908.774 868.649,903.525 889.628,898.277 931.585,903.525 952.562,914.022 968.297,919.271 968.297,924.52 978.786,935.017 978.786,919.271 984.031,803.803 984.031,740.82 978.786,719.826 978.786,709.329 968.297,704.081 957.807,698.832 942.074,704.081 947.319,672.589 942.074,656.843 936.829,651.595 931.585,646.346 921.096,646.346 889.628,641.098 852.916,651.595 810.959,662.092 810.959,662.092 774.247,677.837 737.534,683.087 706.066,683.087 679.844,677.837 653.621,667.34 648.376,667.34 648.376,919.271 648.376,929.769 664.11,945.514 674.6,950.763 690.333,956.012 711.311,961.26 737.534,961.26 769.002,961.26 789.98,950.763 "
     style="fill:#444444;fill-opacity:1;stroke:none"
     id="polygon56"
     transform="matrix(0.08450871,0,0,0.08450871,0,-5.859375e-5)" />
  <polygon
     points="973.703,735.472 973.703,772.244 968.454,908.819 957.957,903.567 942.212,898.313 921.217,893.06 889.726,893.06 863.483,893.06 847.737,898.313 816.246,919.326 784.754,945.59 763.76,950.843 737.517,956.096 716.523,950.843 695.529,950.843 669.286,935.084 658.789,924.578 653.54,919.326 653.54,677.69 690.281,688.196 737.517,693.449 737.517,693.449 774.257,682.943 810.997,672.438 852.986,661.931 889.726,651.425 921.217,656.679 926.466,656.679 936.963,661.931 936.963,672.438 936.963,682.943 931.714,709.208 926.466,719.713 936.963,714.461 947.46,709.208 957.957,709.208 968.454,714.461 "
     style="fill:url(#linearGradient3704);fill-opacity:1;stroke:none"
     id="polygon58"
     transform="matrix(0.08450871,0,0,0.08450871,0,-5.859375e-5)" />
  <polygon
     points="937.556,713.823 932.286,713.823 890.131,708.229 853.247,719.417 816.361,730.605 816.361,730.605 790.014,747.388 758.399,752.983 732.053,752.983 710.975,747.388 689.898,736.2 679.36,758.577 700.437,769.765 726.783,775.36 763.668,775.36 795.284,769.765 826.9,752.983 858.516,741.794 890.131,736.2 927.017,736.2 932.286,736.2 "
     style="fill:#999999;fill-opacity:1;stroke:none"
     id="polygon60"
     transform="matrix(0.08450871,0,0,0.08450871,0,-5.859375e-5)" />
  <polygon
     points="932.286,793.003 937.556,770.626 911.209,770.626 884.862,765.032 884.862,765.032 847.978,776.22 811.092,793.003 779.477,804.191 747.861,809.785 721.514,809.785 705.706,804.191 689.898,798.598 679.36,815.38 695.168,826.568 716.244,832.163 753.13,832.163 784.745,826.568 821.631,809.785 853.247,798.598 884.862,793.003 "
     style="fill:#999999;fill-opacity:1;stroke:none"
     id="polygon62"
     transform="matrix(0.08450871,0,0,0.08450871,0,-5.859375e-5)" />
  <polygon
     points="816.41,871.885 848.013,849.641 863.815,844.079 879.616,844.079 932.288,849.641 937.556,827.396 916.487,821.835 879.616,821.835 879.616,821.835 858.547,821.835 842.746,827.396 805.875,849.641 779.54,866.324 747.937,871.885 721.6,871.885 705.798,860.763 695.265,849.641 674.196,866.324 679.463,871.885 695.265,883.007 716.333,894.129 747.937,894.129 769.006,894.129 784.807,888.568 "
     style="fill:#999999;fill-opacity:1;stroke:none"
     id="polygon64"
     transform="matrix(0.08450871,0,0,0.08450871,0,-5.859375e-5)" />
  <polygon
     points="852.27,878.3 868.003,862.553 894.227,841.559 909.961,836.311 936.184,836.311 972.896,836.311 999.119,846.808 1009.61,852.056 1014.85,857.305 1020.1,873.051 1020.1,857.305 1025.34,736.587 1025.34,673.605 1025.34,652.611 1020.1,642.113 1014.85,636.865 1004.36,636.865 983.385,636.865 993.874,605.374 988.63,589.628 983.385,584.379 972.896,579.131 967.651,579.131 936.184,579.131 894.227,584.379 852.27,600.125 852.27,600.125 815.558,610.622 778.846,615.871 747.378,615.871 721.155,610.622 694.932,605.374 689.688,600.125 689.688,857.305 694.932,862.553 705.421,878.3 715.911,883.548 731.644,888.796 757.868,894.045 784.09,899.293 810.313,894.045 831.291,888.796 "
     style="fill:#444444;fill-opacity:1;stroke:none"
     id="polygon66"
     transform="matrix(0.08450871,0,0,0.08450871,0,-5.859375e-5)" />
  <polygon
     points="1014.93,668.276 1020.18,705.058 1014.93,841.675 1004.43,836.421 988.686,831.166 962.443,825.911 936.201,825.911 909.958,825.911 888.963,836.421 862.721,857.439 831.23,878.457 810.235,883.712 783.992,888.965 757.75,888.965 736.755,883.712 715.761,873.202 700.015,857.439 700.015,852.184 700.015,615.731 731.506,620.986 783.992,626.241 783.992,626.241 815.483,620.986 857.472,605.222 894.212,594.713 936.201,589.459 962.443,589.459 972.94,589.459 978.188,594.713 983.438,605.222 978.188,620.986 972.94,642.004 967.691,652.513 978.188,647.258 993.935,647.258 1004.43,642.004 1014.93,647.258 "
     style="fill:url(#linearGradient3712);fill-opacity:1;stroke:none"
     id="polygon68"
     transform="matrix(0.08450871,0,0,0.08450871,0,-5.859375e-5)" />
  <polygon
     points="978.867,651.895 973.597,646.262 936.712,646.262 894.558,651.895 862.943,668.795 862.943,668.795 831.326,680.062 804.979,685.695 773.364,685.695 752.287,680.062 731.209,674.428 720.671,696.962 747.017,702.595 773.364,708.228 804.979,708.228 841.865,702.595 873.48,691.328 905.096,674.428 936.712,668.795 973.597,674.428 978.867,674.428 "
     style="fill:#999999;fill-opacity:1;stroke:none"
     id="polygon70"
     transform="matrix(0.08450871,0,0,0.08450871,0,-5.859375e-5)" />
  <polygon
     points="978.867,731.036 978.867,703.065 957.789,703.065 926.174,703.065 926.174,703.065 889.289,708.659 852.404,725.441 826.057,736.63 794.441,742.224 768.095,742.224 752.287,736.63 736.479,731.036 720.671,747.819 741.748,759.007 762.826,764.601 794.441,770.196 831.326,759.007 862.943,747.819 894.558,731.036 931.443,725.441 "
     style="fill:#999999;fill-opacity:1;stroke:none"
     id="polygon72"
     transform="matrix(0.08450871,0,0,0.08450871,0,-5.859375e-5)" />
  <polygon
     points="862.943,804.498 894.558,787.901 910.366,782.368 926.174,776.835 978.867,782.368 978.867,760.237 957.789,754.704 920.905,754.704 920.905,754.704 905.096,760.237 884.019,765.769 852.404,782.368 820.788,798.967 794.441,804.498 768.095,804.498 752.287,798.967 736.479,787.901 720.671,798.967 725.94,804.498 736.479,815.564 762.826,826.63 794.441,832.163 810.249,826.63 831.326,821.097 "
     style="fill:#999999;fill-opacity:1;stroke:none"
     id="polygon74"
     transform="matrix(0.08450871,0,0,0.08450871,0,-5.859375e-5)" />
  <polygon
     points="856.869,826.914 877.847,816.417 893.581,805.92 904.07,790.174 930.294,769.18 946.028,758.683 967.006,758.683 1008.96,758.683 1035.19,769.18 1050.92,779.677 1056.16,779.677 1066.65,790.174 1066.65,779.677 1066.65,580.231 1056.16,548.74 1040.43,527.746 1029.94,517.249 1019.45,517.249 987.984,512 956.516,517.249 956.516,517.249 925.049,532.994 872.602,548.74 851.625,559.237 825.401,559.237 793.933,559.237 767.711,548.74 741.488,538.243 730.999,532.994 730.999,790.174 736.243,795.423 751.978,811.168 762.467,816.417 778.2,826.914 799.179,832.163 825.401,832.163 "
     style="fill:#444444;fill-opacity:1;stroke:none"
     id="polygon76"
     transform="matrix(0.08450871,0,0,0.08450871,0,-5.859375e-5)" />
  <polygon
     points="925.027,758.781 909.281,769.29 898.783,785.053 888.286,800.817 872.541,811.326 851.547,821.835 825.304,821.835 804.309,821.835 783.315,816.58 757.072,806.071 746.575,795.563 741.327,790.308 741.327,548.601 778.067,564.364 799.061,569.618 825.304,569.618 825.304,569.618 851.547,569.618 877.789,559.109 930.275,538.092 961.766,527.582 988.009,522.328 1014.25,522.328 1030,532.837 1045.74,553.855 1061.49,585.382 1061.49,595.891 1056.24,769.29 1024.75,753.526 998.507,748.272 967.015,748.272 940.772,753.526 "
     style="fill:#cccccc;fill-opacity:1;stroke:none"
     id="polygon78"
     transform="matrix(0.08450871,0,0,0.08450871,0,-5.859375e-5)" />
  <polygon
     points="893.543,811.168 909.273,795.423 940.733,779.677 956.463,769.18 977.436,769.18 1019.38,774.428 1040.36,779.677 1056.09,790.174 1066.57,805.92 1066.57,790.174 1071.82,669.457 1071.82,606.474 1066.57,585.48 1066.57,574.983 1056.09,569.734 1045.6,569.734 1029.87,569.734 1035.11,543.492 1029.87,522.497 1024.63,517.249 1019.38,517.249 1008.9,512 977.436,512 935.49,517.249 898.786,532.994 898.786,532.994 856.839,543.492 825.379,548.74 793.919,548.74 767.703,543.492 741.486,538.243 730.999,532.994 730.999,790.174 736.242,795.423 751.972,811.168 762.459,816.417 778.189,826.914 799.162,832.163 825.379,832.163 856.839,826.914 877.812,821.665 "
     style="fill:#444444;fill-opacity:1;stroke:none"
     id="polygon80"
     transform="matrix(0.08450871,0,0,0.08450871,0,-5.859375e-5)" />
  <polygon
     points="1061.49,601.146 1061.49,637.927 1056.24,779.799 1045.74,769.29 1030,764.035 1009,758.781 977.512,758.781 951.269,764.035 935.524,769.29 904.033,790.308 872.541,811.326 851.547,821.835 825.304,821.835 804.309,821.835 783.315,816.58 757.072,806.071 746.575,795.563 741.327,790.308 741.327,548.601 778.067,553.855 825.304,559.109 825.304,559.109 862.044,553.855 898.783,538.092 940.772,527.582 977.512,522.328 1009,522.328 1014.25,522.328 1024.75,527.582 1024.75,538.092 1024.75,553.855 1019.5,574.873 1014.25,585.382 1024.75,580.127 1035.25,580.127 1045.74,580.127 1056.24,585.382 "
     style="fill:url(#linearGradient3720);fill-opacity:1;stroke:none"
     id="polygon82"
     transform="matrix(0.08450871,0,0,0.08450871,0,-5.859375e-5)" />
  <polygon
     points="1025.34,584.764 1020.07,584.764 977.918,579.131 941.034,584.764 904.148,601.664 904.148,601.664 877.801,612.932 846.186,618.565 819.839,618.565 798.762,612.932 777.685,607.298 767.146,629.832 788.223,635.465 814.57,641.098 846.186,641.098 883.07,635.465 914.687,624.198 946.303,607.298 977.918,601.664 1014.8,607.298 1020.07,607.298 "
     style="fill:#999999;fill-opacity:1;stroke:none"
     id="polygon84"
     transform="matrix(0.08450871,0,0,0.08450871,0,-5.859375e-5)" />
  <polygon
     points="1020.07,663.905 1025.34,641.528 998.995,635.934 972.649,635.934 972.649,635.934 935.764,641.528 898.879,658.311 867.263,669.499 835.647,680.687 809.301,675.093 793.492,675.093 777.685,663.905 767.146,680.687 782.954,691.876 804.031,703.064 840.917,703.064 872.532,697.47 909.418,680.687 941.034,663.905 972.649,658.311 "
     style="fill:#999999;fill-opacity:1;stroke:none"
     id="polygon86"
     transform="matrix(0.08450871,0,0,0.08450871,0,-5.859375e-5)" />
  <polygon
     points="904.196,737.367 935.8,720.769 951.601,715.237 967.403,709.704 1020.07,715.237 1025.34,693.106 1004.27,693.106 967.403,687.573 967.403,687.573 946.334,693.106 930.532,698.638 893.662,715.237 867.326,731.835 835.723,742.9 809.387,737.367 793.585,731.835 783.051,720.769 761.982,731.835 767.25,737.367 783.051,748.433 804.119,759.499 835.723,765.032 856.792,759.499 872.593,753.966 "
     style="fill:#999999;fill-opacity:1;stroke:none"
     id="polygon88"
     transform="matrix(0.08450871,0,0,0.08450871,0,-5.859375e-5)" />
</svg>
