<?xml version="1.0" encoding="UTF-8" standalone="no"?>

<svg
 xmlns:dc="http://purl.org/dc/elements/1.1/"
   xmlns:cc="http://creativecommons.org/ns#"
   xmlns:rdf="http://www.w3.org/1999/02/22-rdf-syntax-ns#"
   xmlns:svg="http://www.w3.org/2000/svg"
   xmlns="http://www.w3.org/2000/svg"
   xmlns:xlink="http://www.w3.org/1999/xlink"
   xmlns:sodipodi="http://sodipodi.sourceforge.net/DTD/sodipodi-0.dtd"
   xmlns:inkscape="http://www.inkscape.org/namespaces/inkscape"
   id="svg2"
   version="1.1"
   inkscape:version="0.47 r22583"
   width="100"
   height="100"
   sodipodi:docname="infrastructure_service.svg">
  <metadata
     id="metadata314">
    <rdf:RDF>
      <cc:Work
         rdf:about="">
        <dc:format>image/svg+xml</dc:format>
        <dc:type
           rdf:resource="http://purl.org/dc/dcmitype/StillImage" />
      </cc:Work>
    </rdf:RDF>
  </metadata>
  <defs
     id="defs312">
    <linearGradient
       inkscape:collect="always"
       id="linearGradient3902">
      <stop
         style="stop-color:#999999;stop-opacity:1;"
         offset="0"
         id="stop3904" />
      <stop
         style="stop-color:#999999;stop-opacity:0;"
         offset="1"
         id="stop3906" />
    </linearGradient>
    <inkscape:perspective
       sodipodi:type="inkscape:persp3d"
       inkscape:vp_x="0 : 0.5 : 1"
       inkscape:vp_y="0 : 1000 : 0"
       inkscape:vp_z="1 : 0.5 : 1"
       inkscape:persp3d-origin="0.5 : 0.33333333 : 1"
       id="perspective316" />
    <linearGradient
       inkscape:collect="always"
       xlink:href="#linearGradient3902"
       id="linearGradient3908"
       x1="281.25"
       y1="539.06201"
       x2="500"
       y2="539.06201"
       gradientUnits="userSpaceOnUse" />
    <linearGradient
       inkscape:collect="always"
       xlink:href="#linearGradient3902"
       id="linearGradient3910"
       x1="54.6875"
       y1="539.06201"
       x2="265.625"
       y2="539.06201"
       gradientUnits="userSpaceOnUse" />
  </defs>
  <sodipodi:namedview
     pagecolor="#ffffff"
     bordercolor="#666666"
     borderopacity="1"
     objecttolerance="10"
     gridtolerance="10"
     guidetolerance="10"
     inkscape:pageopacity="0"
     inkscape:pageshadow="2"
     inkscape:window-width="1680"
     inkscape:window-height="994"
     id="namedview310"
     showgrid="false"
     inkscape:zoom="0.63429569"
     inkscape:cx="168.83345"
     inkscape:cy="500.84597"
     inkscape:window-x="-4"
     inkscape:window-y="-4"
     inkscape:window-maximized="1"
     inkscape:current-layer="svg2" />
  <polygon
     points="265.625,85.938 277.344,94.531 277.344,94.531 289.063,171.875 289.063,163.282 "
     style="fill:#023702;fill-opacity:1;stroke:none"
     id="polygon4"
     transform="scale(0.09722897,0.09722897)" />
  <polygon
     points="328.125,164.062 328.125,172.656 328.125,172.656 351.563,250 351.563,241.405 "
     style="fill:#004d00;fill-opacity:1;stroke:none"
     id="polygon6"
     transform="scale(0.09722897,0.09722897)" />
  <polygon
     points="351.563,250 328.125,171.875 328.125,171.875 "
     style="fill:#025302;fill-opacity:1;stroke:none"
     id="polygon8"
     transform="scale(0.09722897,0.09722897)" />
  <polygon
     points="554.687,186.633 554.687,195.313 539.062,117.188 539.062,117.188 "
     style="fill:#025202;fill-opacity:1;stroke:none"
     id="polygon10"
     transform="scale(0.09722897,0.09722897)" />
  <polygon
     points="179.688,351.563 156.25,273.438 156.25,273.438 "
     style="fill:#023702;fill-opacity:1;stroke:none"
     id="polygon12"
     transform="scale(0.09722897,0.09722897)" />
  <polygon
     points="171.875,278.055 335.228,171.875 335.228,171.875 351.563,245.384 180.043,351.563 "
     style="fill:#025302;fill-opacity:1;stroke:none"
     id="polygon14"
     transform="scale(0.09722897,0.09722897)" />
  <polygon
     points="421.875,351.563 398.438,273.438 410.157,273.438 410.157,273.438 "
     style="fill:#007400;fill-opacity:1;stroke:none"
     id="polygon16"
     transform="scale(0.09722897,0.09722897)" />
  <polygon
     points="429.688,351.563 417.968,351.563 406.25,273.438 406.25,273.438 "
     style="fill:#004d00;fill-opacity:1;stroke:none"
     id="polygon18"
     transform="scale(0.09722897,0.09722897)" />
  <polygon
     points="242.188,379.617 405.542,273.438 405.542,273.438 421.876,346.947 258.522,453.126 "
     style="fill:#465900;fill-opacity:1;stroke:none"
     id="polygon20"
     transform="scale(0.09722897,0.09722897)" />
  <polygon
     points="171.875,273.438 248.581,379.617 248.581,379.617 265.625,453.126 180.398,346.947 "
     style="fill:#004d00;fill-opacity:1;stroke:none"
     id="polygon22"
     transform="scale(0.09722897,0.09722897)" />
  <polygon
     points="156.25,273.438 240.885,387.568 240.885,387.568 257.812,460.938 173.177,346.807 "
     style="fill:#023702;fill-opacity:1;stroke:none"
     id="polygon24"
     transform="scale(0.09722897,0.09722897)" />
  <polygon
     points="242.188,387.429 405.542,281.25 405.542,281.25 421.876,354.758 258.522,460.938 "
     style="fill:#465900;fill-opacity:1;stroke:none"
     id="polygon26"
     transform="scale(0.09722897,0.09722897)" />
  <polygon
     points="234.375,391.406 244.793,382.812 244.793,382.812 265.625,460.155 255.209,468.75 "
     style="fill:#025302;fill-opacity:1;stroke:none"
     id="polygon28"
     transform="scale(0.09722897,0.09722897)" />
  <polygon
     points="234.375,382.812 234.375,391.406 234.375,391.406 257.813,468.75 257.813,460.155 "
     style="fill:#023702;fill-opacity:1;stroke:none"
     id="polygon30"
     transform="scale(0.09722897,0.09722897)" />
  <polygon
     points="406.25,273.438 458.984,347.657 458.984,347.657 476.563,421.876 423.828,347.657 "
     style="fill:#004d00;fill-opacity:1;stroke:none"
     id="polygon32"
     transform="scale(0.09722897,0.09722897)" />
  <polygon
     points="398.438,281.25 459.961,363.716 459.961,363.716 468.75,429.688 416.015,355.468 "
     style="fill:#465900;fill-opacity:1;stroke:none"
     id="polygon34"
     transform="scale(0.09722897,0.09722897)" />
  <polygon
     points="453.125,359.375 453.125,368.056 453.125,368.056 476.563,437.5 464.844,428.819 "
     style="fill:#023702;fill-opacity:1;stroke:none"
     id="polygon36"
     transform="scale(0.09722897,0.09722897)" />
  <polygon
     points="453.125,368.75 464.844,351.562 464.844,351.562 476.563,428.905 476.563,437.5 "
     style="fill:#025202;fill-opacity:1;stroke:none"
     id="polygon38"
     transform="scale(0.09722897,0.09722897)" />
  <polygon
     points="46.875,601.562 54.9665,820.31 265.345,820.31 273.437,601.562 265.345,601.562 265.345,601.562 "
     style="fill:#333333;fill-opacity:1;stroke:none"
     id="polygon40"
     transform="scale(0.09722897,0.09722897)" />
  <polygon
     points="54.6875,609.375 257.813,609.375 257.813,609.375 257.813,812.5 62.8125,812.5 "
     style="fill:#666666;fill-opacity:1;stroke:none"
     id="polygon42"
     transform="scale(0.09722897,0.09722897)" />
  <polygon
     points="111.8,578.906 79.472,587.5 55.2263,596.093 39.0625,613.281 39.0625,613.281 55.2263,630.468 79.472,647.655 111.8,656.25 160.291,656.25 200.7,656.25 241.11,647.655 265.355,630.468 273.438,613.281 265.355,596.093 241.11,587.5 200.7,578.906 160.291,570.312 "
     style="fill:#333333;fill-opacity:1;stroke:none"
     id="polygon44"
     transform="scale(0.09722897,0.09722897)" />
  <polygon
     points="289.062,156.25 222.396,593.75 222.396,593.75 164.062,585.795 230.728,156.25 "
     style="fill:#555555;fill-opacity:1;stroke:none"
     id="polygon46"
     transform="scale(0.09722897,0.09722897)" />
  <polygon
     points="226.562,158.854 235.491,158.854 262.276,148.438 280.134,158.854 289.062,169.27 289.062,169.27 280.134,179.688 253.348,179.688 235.491,169.27 "
     style="fill:#000000;fill-opacity:1;stroke:none"
     id="polygon48"
     transform="scale(0.09722897,0.09722897)" />
  <polygon
     points="251.563,85.938 289.063,94.531 279.688,171.875 279.688,171.875 270.313,171.875 260.937,171.875 242.188,171.875 242.188,163.282 "
     style="fill:#b87b23;fill-opacity:1;stroke:none"
     id="polygon50"
     transform="scale(0.09722897,0.09722897)" />
  <polygon
     points="269.531,85.938 289.063,101.563 289.063,101.563 269.531,101.563 250,85.938 "
     style="fill:#ffb240;fill-opacity:1;stroke:none"
     id="polygon52"
     transform="scale(0.09722897,0.09722897)" />
  <polygon
     points="253.907,171.875 265.625,93.75 242.188,171.875 242.188,171.875 "
     style="fill:#ffb240;fill-opacity:1;stroke:none"
     id="polygon54"
     transform="scale(0.09722897,0.09722897)" />
  <polygon
     points="250,171.875 180.556,585.937 180.556,585.937 171.875,585.937 241.319,171.875 "
     style="fill:#999999;fill-opacity:1;stroke:none"
     id="polygon56"
     transform="scale(0.09722897,0.09722897)" />
  <polygon
     points="281.25,171.875 212.5,585.937 212.5,585.937 195.312,585.937 264.061,171.875 "
     style="fill:#333333;fill-opacity:1;stroke:none"
     id="polygon58"
     transform="scale(0.09722897,0.09722897)" />
  <polygon
     points="335.937,203.409 221.354,625 221.354,625 164.062,617.045 286.83,187.5 "
     style="fill:#555555;fill-opacity:1;stroke:none"
     id="polygon60"
     transform="scale(0.09722897,0.09722897)" />
  <polygon
     points="281.25,197.916 290.364,187.5 308.594,187.5 335.938,197.916 335.938,208.333 335.938,208.333 326.822,218.75 308.594,218.75 281.25,208.333 "
     style="fill:#000000;fill-opacity:1;stroke:none"
     id="polygon62"
     transform="scale(0.09722897,0.09722897)" />
  <polygon
     points="324.776,210.938 324.776,210.938 306.92,210.938 297.991,202.343 289.062,202.343 315.848,125 351.562,133.593 "
     style="fill:#b87b23;fill-opacity:1;stroke:none"
     id="polygon64"
     transform="scale(0.09722897,0.09722897)" />
  <polygon
     points="332.031,125 351.563,140.625 351.563,140.625 332.031,140.625 312.5,125 "
     style="fill:#ffb240;fill-opacity:1;stroke:none"
     id="polygon66"
     transform="scale(0.09722897,0.09722897)" />
  <polygon
     points="317.709,132.812 296.875,202.256 296.875,202.256 307.293,210.937 328.125,132.812 "
     style="fill:#ffb240;fill-opacity:1;stroke:none"
     id="polygon68"
     transform="scale(0.09722897,0.09722897)" />
  <polygon
     points="304.687,211.088 188.476,617.187 188.476,617.187 171.875,617.187 288.086,203.125 "
     style="fill:#999999;fill-opacity:1;stroke:none"
     id="polygon70"
     transform="scale(0.09722897,0.09722897)" />
  <polygon
     points="335.937,210.938 211.857,625 211.857,625 195.312,617.037 311.121,210.938 "
     style="fill:#333333;fill-opacity:1;stroke:none"
     id="polygon72"
     transform="scale(0.09722897,0.09722897)" />
  <polygon
     points="178.571,70.312 187.5,585.937 187.5,585.937 133.928,585.937 125,70.312 "
     style="fill:#555555;fill-opacity:1;stroke:none"
     id="polygon74"
     transform="scale(0.09722897,0.09722897)" />
  <polygon
     points="125,82.031 133.928,70.312 151.786,70.312 178.571,70.312 187.5,82.031 187.5,82.031 178.571,93.75 151.786,93.75 133.928,93.75 "
     style="fill:#000000;fill-opacity:1;stroke:none"
     id="polygon76"
     transform="scale(0.09722897,0.09722897)" />
  <polygon
     points="171.875,85.937 171.875,85.937 152.344,85.937 142.578,85.937 132.812,85.937 132.812,7.812 171.875,7.812 "
     style="fill:#b87b23;fill-opacity:1;stroke:none"
     id="polygon78"
     transform="scale(0.09722897,0.09722897)" />
  <polygon
     points="152.344,0 171.875,15.625 171.875,15.625 152.344,15.625 132.812,15.625 "
     style="fill:#ffb240;fill-opacity:1;stroke:none"
     id="polygon80"
     transform="scale(0.09722897,0.09722897)" />
  <polygon
     points="140.625,7.812 140.625,85.937 140.625,85.937 156.25,85.937 156.25,16.493 "
     style="fill:#ffb240;fill-opacity:1;stroke:none"
     id="polygon82"
     transform="scale(0.09722897,0.09722897)" />
  <polygon
     points="144.531,93.876 156.25,578.126 156.25,578.126 144.531,578.126 132.812,85.938 "
     style="fill:#999999;fill-opacity:1;stroke:none"
     id="polygon84"
     transform="scale(0.09722897,0.09722897)" />
  <polygon
     points="179.688,85.938 179.688,578.126 179.688,578.126 156.25,578.126 156.25,85.938 "
     style="fill:#333333;fill-opacity:1;stroke:none"
     id="polygon86"
     transform="scale(0.09722897,0.09722897)" />
  <polygon
     points="112.981,140.625 171.875,578.125 171.875,578.125 121.395,578.125 62.5,148.58 "
     style="fill:#555555;fill-opacity:1;stroke:none"
     id="polygon88"
     transform="scale(0.09722897,0.09722897)" />
  <polygon
     points="62.5,152.344 71.4285,152.344 89.2855,140.625 107.142,140.625 125,152.344 125,152.344 116.071,164.063 89.2855,164.063 71.4285,164.063 "
     style="fill:#000000;fill-opacity:1;stroke:none"
     id="polygon90"
     transform="scale(0.09722897,0.09722897)" />
  <polygon
     points="109.375,155.469 109.375,155.469 90.6254,164.063 81.2502,155.469 71.8751,155.469 62.5,78.125 100,78.125 "
     style="fill:#b87b23;fill-opacity:1;stroke:none"
     id="polygon92"
     transform="scale(0.09722897,0.09722897)" />
  <polygon
     points="82.0313,78.125 101.563,78.125 101.563,78.125 82.0313,93.75 62.5,78.125 "
     style="fill:#ffb240;fill-opacity:1;stroke:none"
     id="polygon94"
     transform="scale(0.09722897,0.09722897)" />
  <polygon
     points="70.3125,85.938 82.0313,155.383 82.0313,155.383 93.75,164.063 82.0313,85.938 "
     style="fill:#ffb240;fill-opacity:1;stroke:none"
     id="polygon96"
     transform="scale(0.09722897,0.09722897)" />
  <polygon
     points="79.1016,164.062 140.625,578.124 140.625,578.124 123.048,578.124 70.3125,164.062 "
     style="fill:#999999;fill-opacity:1;stroke:none"
     id="polygon98"
     transform="scale(0.09722897,0.09722897)" />
  <polygon
     points="111.328,156.25 164.063,578.125 164.063,578.125 146.484,578.125 93.75,164.209 "
     style="fill:#333333;fill-opacity:1;stroke:none"
     id="polygon100"
     transform="scale(0.09722897,0.09722897)" />
  <polygon
     points="57.7259,195.312 148.438,624.858 148.438,624.858 98.9587,632.812 0,203.267 "
     style="fill:#555555;fill-opacity:1;stroke:none"
     id="polygon102"
     transform="scale(0.09722897,0.09722897)" />
  <polygon
     points="0,207.031 8.92857,195.312 26.7857,195.312 53.5714,195.312 62.5,195.312 62.5,195.312 53.5714,207.031 35.7143,218.75 8.92857,218.75 "
     style="fill:#000000;fill-opacity:1;stroke:none"
     id="polygon104"
     transform="scale(0.09722897,0.09722897)" />
  <polygon
     points="54.6875,202.256 54.6875,202.256 45.5729,210.937 36.4583,210.937 18.2292,210.937 0,132.812 36.4583,132.812 "
     style="fill:#b87b23;fill-opacity:1;stroke:none"
     id="polygon106"
     transform="scale(0.09722897,0.09722897)" />
  <polygon
     points="19.5313,125 39.0625,140.625 39.0625,140.625 19.5313,140.625 0,140.625 "
     style="fill:#ffb240;fill-opacity:1;stroke:none"
     id="polygon108"
     transform="scale(0.09722897,0.09722897)" />
  <polygon
     points="31.25,210.938 7.8125,140.625 19.5313,210.938 19.5313,210.938 "
     style="fill:#ffb240;fill-opacity:1;stroke:none"
     id="polygon110"
     transform="scale(0.09722897,0.09722897)" />
  <polygon
     points="24.0885,218.9 117.187,625 117.187,625 108.723,625 15.625,210.938 "
     style="fill:#999999;fill-opacity:1;stroke:none"
     id="polygon112"
     transform="scale(0.09722897,0.09722897)" />
  <polygon
     points="56.4905,210.938 140.625,617.037 140.625,617.037 123.799,625 31.25,210.938 "
     style="fill:#333333;fill-opacity:1;stroke:none"
     id="polygon114"
     transform="scale(0.09722897,0.09722897)" />
  <polygon
     points="242.188,140.767 167.187,570.312 167.187,570.312 117.188,570.312 183.855,132.812 "
     style="fill:#555555;fill-opacity:1;stroke:none"
     id="polygon116"
     transform="scale(0.09722897,0.09722897)" />
  <polygon
     points="179.688,143.229 188.616,132.812 206.473,132.812 233.259,143.229 242.188,153.646 242.188,153.646 224.331,153.646 206.473,164.062 188.616,153.646 "
     style="fill:#000000;fill-opacity:1;stroke:none"
     id="polygon118"
     transform="scale(0.09722897,0.09722897)" />
  <polygon
     points="223.437,147.655 223.437,147.655 223.437,156.25 204.687,156.25 195.312,147.655 204.687,70.312 242.187,78.906 "
     style="fill:#b87b23;fill-opacity:1;stroke:none"
     id="polygon120"
     transform="scale(0.09722897,0.09722897)" />
  <polygon
     points="222.656,70.312 242.188,85.937 242.188,85.937 222.656,85.937 203.125,70.312 "
     style="fill:#ffb240;fill-opacity:1;stroke:none"
     id="polygon122"
     transform="scale(0.09722897,0.09722897)" />
  <polygon
     points="207.031,78.125 195.312,147.569 195.312,147.569 207.031,156.25 218.75,78.125 "
     style="fill:#ffb240;fill-opacity:1;stroke:none"
     id="polygon124"
     transform="scale(0.09722897,0.09722897)" />
  <polygon
     points="203.125,156.397 133.68,570.313 133.68,570.313 125,570.313 194.445,148.438 "
     style="fill:#999999;fill-opacity:1;stroke:none"
     id="polygon126"
     transform="scale(0.09722897,0.09722897)" />
  <polygon
     points="234.375,156.25 165.625,570.312 165.625,570.312 148.438,570.312 208.594,156.25 "
     style="fill:#333333;fill-opacity:1;stroke:none"
     id="polygon128"
     transform="scale(0.09722897,0.09722897)" />
  <polygon
     points="195.313,257.812 195.313,601.562 195.313,601.562 140.625,601.562 140.625,257.812 "
     style="fill:#555555;fill-opacity:1;stroke:none"
     id="polygon130"
     transform="scale(0.09722897,0.09722897)" />
  <polygon
     points="140.625,270.833 149.74,260.416 167.968,250 186.199,260.416 195.313,270.833 195.313,270.833 186.199,270.833 167.968,281.25 149.74,270.833 "
     style="fill:#000000;fill-opacity:1;stroke:none"
     id="polygon132"
     transform="scale(0.09722897,0.09722897)" />
  <polygon
     points="148.438,187.5 187.5,187.5 187.5,264.843 187.5,264.843 187.5,273.438 167.968,273.438 158.203,273.438 148.438,264.843 "
     style="fill:#b87b23;fill-opacity:1;stroke:none"
     id="polygon134"
     transform="scale(0.09722897,0.09722897)" />
  <polygon
     points="167.968,187.5 187.5,187.5 187.5,187.5 167.968,203.125 148.438,187.5 "
     style="fill:#ffb240;fill-opacity:1;stroke:none"
     id="polygon136"
     transform="scale(0.09722897,0.09722897)" />
  <polygon
     points="156.25,195.312 156.25,273.437 156.25,273.437 171.875,273.437 171.875,195.312 "
     style="fill:#ffb240;fill-opacity:1;stroke:none"
     id="polygon138"
     transform="scale(0.09722897,0.09722897)" />
  <polygon
     points="164.063,273.438 164.063,601.563 164.063,601.563 148.438,601.563 148.438,273.438 "
     style="fill:#999999;fill-opacity:1;stroke:none"
     id="polygon140"
     transform="scale(0.09722897,0.09722897)" />
  <polygon
     points="195.312,273.438 195.312,601.563 195.312,601.563 164.062,601.563 164.062,273.438 "
     style="fill:#333333;fill-opacity:1;stroke:none"
     id="polygon142"
     transform="scale(0.09722897,0.09722897)" />
  <polygon
     points="63.256,510.995 71.3206,543.403 71.3206,592.015 71.3206,616.32 79.3851,616.32 95.5141,632.524 119.708,640.625 168.094,640.625 208.417,640.625 232.61,632.524 240.675,624.422 240.675,616.32 256.804,535.301 272.933,470.486 280.998,438.079 289.063,421.875 272.933,429.977 272.933,429.977 248.74,446.18 208.417,454.282 160.03,454.282 143.901,454.282 143.901,462.385 95.5141,454.282 71.3206,446.18 55.1915,438.079 47.127,429.977 39.0625,429.977 39.0625,438.079 47.127,470.486 "
     style="fill:#333333;fill-opacity:1;stroke:none"
     id="polygon144"
     transform="scale(0.09722897,0.09722897)" />
  <polygon
     points="79.0266,461.617 103.365,469.769 143.931,469.769 152.044,469.769 152.044,461.617 160.157,461.617 200.721,461.617 233.173,453.465 265.625,445.312 265.625,445.312 249.4,534.986 233.173,616.508 225.061,624.66 200.721,632.812 160.157,632.812 127.705,632.812 103.365,624.66 87.1396,616.508 79.0266,543.138 70.9135,510.529 54.6875,469.769 54.6875,445.312 "
     style="fill:url(#linearGradient3910);fill-opacity:1;stroke:none"
     id="polygon146"
     transform="scale(0.09722897,0.09722897)" />
  <polygon
     points="109.375,649.148 109.375,812.5 109.375,812.5 70.3125,812.5 70.3125,632.812 "
     style="fill:#aaaaaa;fill-opacity:1;stroke:none"
     id="polygon148"
     transform="scale(0.09722897,0.09722897)" />
  <polygon
     points="257.161,812.5 257.161,812.5 164.062,812.5 164.062,649.457 214.844,641.304 248.698,633.152 265.624,625 "
     style="fill:#333333;fill-opacity:1;stroke:none"
     id="polygon150"
     transform="scale(0.09722897,0.09722897)" />
  <polygon
     points="273.438,601.562 281.529,820.31 491.908,820.31 500,601.562 491.908,601.562 491.908,601.562 "
     style="fill:#333333;fill-opacity:1;stroke:none"
     id="polygon152"
     transform="scale(0.09722897,0.09722897)" />
  <polygon
     points="281.25,609.375 492.188,609.375 492.188,609.375 484.074,812.5 289.362,812.5 "
     style="fill:#666666;fill-opacity:1;stroke:none"
     id="polygon154"
     transform="scale(0.09722897,0.09722897)" />
  <polygon
     points="338.17,578.906 305.804,587.5 281.529,596.093 273.438,613.281 273.438,613.281 281.529,630.468 305.804,647.655 346.261,656.25 386.718,656.25 427.176,656.25 467.634,647.655 491.908,630.468 500,613.281 491.908,596.093 467.634,587.5 435.268,578.906 386.718,570.312 "
     style="fill:#333333;fill-opacity:1;stroke:none"
     id="polygon156"
     transform="scale(0.09722897,0.09722897)" />
  <polygon
     points="515.625,156.25 448.958,593.75 448.958,593.75 390.625,585.795 465.626,156.25 "
     style="fill:#555555;fill-opacity:1;stroke:none"
     id="polygon158"
     transform="scale(0.09722897,0.09722897)" />
  <polygon
     points="453.125,158.854 462.054,158.854 488.84,148.438 506.697,158.854 515.625,169.27 515.625,169.27 506.697,179.688 488.84,179.688 462.054,169.27 "
     style="fill:#000000;fill-opacity:1;stroke:none"
     id="polygon160"
     transform="scale(0.09722897,0.09722897)" />
  <polygon
     points="478.125,85.938 515.625,94.531 506.25,171.875 506.25,171.875 496.876,171.875 487.5,171.875 468.75,171.875 468.75,163.282 "
     style="fill:#b87b23;fill-opacity:1;stroke:none"
     id="polygon162"
     transform="scale(0.09722897,0.09722897)" />
  <polygon
     points="496.094,85.938 515.625,101.563 515.625,101.563 496.094,101.563 476.562,85.938 "
     style="fill:#ffb240;fill-opacity:1;stroke:none"
     id="polygon164"
     transform="scale(0.09722897,0.09722897)" />
  <polygon
     points="489.583,93.75 468.75,171.875 468.75,171.875 479.166,171.875 500,93.75 "
     style="fill:#ffb240;fill-opacity:1;stroke:none"
     id="polygon166"
     transform="scale(0.09722897,0.09722897)" />
  <polygon
     points="476.563,171.875 415.798,585.937 415.798,585.937 398.438,585.937 467.883,171.875 "
     style="fill:#999999;fill-opacity:1;stroke:none"
     id="polygon168"
     transform="scale(0.09722897,0.09722897)" />
  <polygon
     points="515.625,171.875 438.921,585.937 438.921,585.937 421.875,585.937 490.057,171.875 "
     style="fill:#333333;fill-opacity:1;stroke:none"
     id="polygon170"
     transform="scale(0.09722897,0.09722897)" />
  <polygon
     points="562.5,203.409 447.656,625 447.656,625 398.438,617.045 513.28,187.5 "
     style="fill:#555555;fill-opacity:1;stroke:none"
     id="polygon172"
     transform="scale(0.09722897,0.09722897)" />
  <polygon
     points="507.812,197.916 516.927,187.5 544.27,187.5 562.5,197.916 562.5,208.333 562.5,208.333 553.385,218.75 535.156,218.75 516.927,208.333 "
     style="fill:#000000;fill-opacity:1;stroke:none"
     id="polygon174"
     transform="scale(0.09722897,0.09722897)" />
  <polygon
     points="532.552,210.938 523.438,202.343 541.666,125 578.125,133.593 550.782,210.938 550.782,210.938 "
     style="fill:#b87b23;fill-opacity:1;stroke:none"
     id="polygon176"
     transform="scale(0.09722897,0.09722897)" />
  <polygon
     points="558.594,125 578.125,140.625 578.125,140.625 558.594,140.625 539.062,125 "
     style="fill:#ffb240;fill-opacity:1;stroke:none"
     id="polygon178"
     transform="scale(0.09722897,0.09722897)" />
  <polygon
     points="544.27,132.812 523.438,202.256 523.438,202.256 533.854,210.937 554.688,132.812 "
     style="fill:#ffb240;fill-opacity:1;stroke:none"
     id="polygon180"
     transform="scale(0.09722897,0.09722897)" />
  <polygon
     points="531.25,211.088 414.583,617.187 414.583,617.187 406.25,617.187 522.916,203.125 "
     style="fill:#999999;fill-opacity:1;stroke:none"
     id="polygon182"
     transform="scale(0.09722897,0.09722897)" />
  <polygon
     points="562.5,210.938 438.419,625 438.419,625 421.875,617.037 537.683,210.938 "
     style="fill:#333333;fill-opacity:1;stroke:none"
     id="polygon184"
     transform="scale(0.09722897,0.09722897)" />
  <polygon
     points="405.134,70.312 414.062,585.937 414.062,585.937 360.491,585.937 351.562,70.312 "
     style="fill:#555555;fill-opacity:1;stroke:none"
     id="polygon186"
     transform="scale(0.09722897,0.09722897)" />
  <polygon
     points="351.562,82.031 360.491,70.312 378.348,70.312 405.134,70.312 414.062,82.031 414.062,82.031 405.134,93.75 378.348,93.75 360.491,93.75 "
     style="fill:#000000;fill-opacity:1;stroke:none"
     id="polygon188"
     transform="scale(0.09722897,0.09722897)" />
  <polygon
     points="378.906,85.937 369.141,85.937 359.375,7.812 398.438,7.812 398.438,85.937 398.438,85.937 "
     style="fill:#b87b23;fill-opacity:1;stroke:none"
     id="polygon190"
     transform="scale(0.09722897,0.09722897)" />
  <polygon
     points="378.906,0 398.438,15.625 398.438,15.625 378.906,15.625 359.375,15.625 "
     style="fill:#ffb240;fill-opacity:1;stroke:none"
     id="polygon192"
     transform="scale(0.09722897,0.09722897)" />
  <polygon
     points="367.188,7.812 367.188,85.937 367.188,85.937 382.813,85.937 382.813,16.493 "
     style="fill:#ffb240;fill-opacity:1;stroke:none"
     id="polygon194"
     transform="scale(0.09722897,0.09722897)" />
  <polygon
     points="371.094,93.876 382.813,578.126 382.813,578.126 371.094,578.126 359.375,85.938 "
     style="fill:#999999;fill-opacity:1;stroke:none"
     id="polygon196"
     transform="scale(0.09722897,0.09722897)" />
  <polygon
     points="403.646,85.938 414.062,578.126 414.062,578.126 382.812,578.126 382.812,85.938 "
     style="fill:#333333;fill-opacity:1;stroke:none"
     id="polygon198"
     transform="scale(0.09722897,0.09722897)" />
  <polygon
     points="339.544,140.625 398.437,578.125 398.437,578.125 347.956,578.125 289.062,148.58 "
     style="fill:#555555;fill-opacity:1;stroke:none"
     id="polygon200"
     transform="scale(0.09722897,0.09722897)" />
  <polygon
     points="289.062,152.344 297.991,152.344 315.848,140.625 342.634,140.625 351.562,152.344 351.562,152.344 342.634,164.063 315.848,164.063 297.991,164.063 "
     style="fill:#000000;fill-opacity:1;stroke:none"
     id="polygon202"
     transform="scale(0.09722897,0.09722897)" />
  <polygon
     points="326.171,164.063 306.641,155.469 296.875,78.125 326.171,78.125 335.938,155.469 335.938,155.469 "
     style="fill:#b87b23;fill-opacity:1;stroke:none"
     id="polygon204"
     transform="scale(0.09722897,0.09722897)" />
  <polygon
     points="307.293,78.125 328.125,78.125 328.125,78.125 317.709,93.75 296.875,78.125 "
     style="fill:#ffb240;fill-opacity:1;stroke:none"
     id="polygon206"
     transform="scale(0.09722897,0.09722897)" />
  <polygon
     points="296.875,85.938 308.594,155.383 308.594,155.383 320.313,164.063 308.594,85.938 "
     style="fill:#ffb240;fill-opacity:1;stroke:none"
     id="polygon208"
     transform="scale(0.09722897,0.09722897)" />
  <polygon
     points="305.665,164.062 367.188,578.124 367.188,578.124 358.398,578.124 296.875,164.062 "
     style="fill:#999999;fill-opacity:1;stroke:none"
     id="polygon210"
     transform="scale(0.09722897,0.09722897)" />
  <polygon
     points="337.891,156.25 390.625,578.125 390.625,578.125 373.048,578.125 320.312,164.209 "
     style="fill:#333333;fill-opacity:1;stroke:none"
     id="polygon212"
     transform="scale(0.09722897,0.09722897)" />
  <polygon
     points="284.288,195.312 375,624.858 375,624.858 325.52,632.812 226.562,203.267 "
     style="fill:#555555;fill-opacity:1;stroke:none"
     id="polygon214"
     transform="scale(0.09722897,0.09722897)" />
  <polygon
     points="226.562,207.031 235.491,195.312 253.348,195.312 280.134,195.312 289.062,195.312 289.062,195.312 280.134,207.031 262.276,218.75 244.42,218.75 "
     style="fill:#000000;fill-opacity:1;stroke:none"
     id="polygon216"
     transform="scale(0.09722897,0.09722897)" />
  <polygon
     points="281.25,202.256 281.25,202.256 272.135,210.937 263.02,210.937 244.792,210.937 226.562,132.812 263.02,132.812 "
     style="fill:#b87b23;fill-opacity:1;stroke:none"
     id="polygon218"
     transform="scale(0.09722897,0.09722897)" />
  <polygon
     points="246.094,125 265.625,140.625 265.625,140.625 246.094,140.625 226.562,140.625 "
     style="fill:#ffb240;fill-opacity:1;stroke:none"
     id="polygon220"
     transform="scale(0.09722897,0.09722897)" />
  <polygon
     points="246.094,140.625 234.375,140.625 257.813,210.938 257.813,210.938 "
     style="fill:#ffb240;fill-opacity:1;stroke:none"
     id="polygon222"
     transform="scale(0.09722897,0.09722897)" />
  <polygon
     points="250.651,218.9 343.75,625 343.75,625 335.286,625 242.188,210.938 "
     style="fill:#999999;fill-opacity:1;stroke:none"
     id="polygon224"
     transform="scale(0.09722897,0.09722897)" />
  <polygon
     points="283.053,210.938 367.187,617.037 367.187,617.037 350.36,625 257.812,210.938 "
     style="fill:#333333;fill-opacity:1;stroke:none"
     id="polygon226"
     transform="scale(0.09722897,0.09722897)" />
  <polygon
     points="468.75,140.767 402.084,570.312 402.084,570.312 343.75,570.312 410.416,132.812 "
     style="fill:#555555;fill-opacity:1;stroke:none"
     id="polygon228"
     transform="scale(0.09722897,0.09722897)" />
  <polygon
     points="406.25,143.229 415.178,132.812 441.964,132.812 459.821,143.229 468.75,153.646 468.75,153.646 459.821,153.646 433.036,164.062 415.178,153.646 "
     style="fill:#000000;fill-opacity:1;stroke:none"
     id="polygon230"
     transform="scale(0.09722897,0.09722897)" />
  <polygon
     points="459.375,147.655 459.375,147.655 449.999,156.25 431.25,156.25 421.875,147.655 431.25,70.312 468.75,78.906 "
     style="fill:#b87b23;fill-opacity:1;stroke:none"
     id="polygon232"
     transform="scale(0.09722897,0.09722897)" />
  <polygon
     points="449.218,70.312 468.75,85.937 468.75,85.937 449.218,85.937 429.688,70.312 "
     style="fill:#ffb240;fill-opacity:1;stroke:none"
     id="polygon234"
     transform="scale(0.09722897,0.09722897)" />
  <polygon
     points="433.594,78.125 421.875,147.569 421.875,147.569 433.594,156.25 445.313,78.125 "
     style="fill:#ffb240;fill-opacity:1;stroke:none"
     id="polygon236"
     transform="scale(0.09722897,0.09722897)" />
  <polygon
     points="429.687,156.397 360.243,570.313 360.243,570.313 351.562,570.313 421.006,148.438 "
     style="fill:#999999;fill-opacity:1;stroke:none"
     id="polygon238"
     transform="scale(0.09722897,0.09722897)" />
  <polygon
     points="460.938,156.25 392.188,570.312 392.188,570.312 375,570.312 443.75,156.25 "
     style="fill:#333333;fill-opacity:1;stroke:none"
     id="polygon240"
     transform="scale(0.09722897,0.09722897)" />
  <polygon
     points="421.875,257.812 421.875,601.562 421.875,601.562 367.188,601.562 367.188,257.812 "
     style="fill:#555555;fill-opacity:1;stroke:none"
     id="polygon242"
     transform="scale(0.09722897,0.09722897)" />
  <polygon
     points="367.188,270.833 376.116,260.416 393.973,250 420.759,260.416 429.688,270.833 429.688,270.833 420.759,270.833 393.973,281.25 376.116,270.833 "
     style="fill:#000000;fill-opacity:1;stroke:none"
     id="polygon244"
     transform="scale(0.09722897,0.09722897)" />
  <polygon
     points="375,187.5 414.063,187.5 414.063,264.843 414.063,264.843 414.063,273.438 394.531,273.438 384.765,273.438 375,264.843 "
     style="fill:#b87b23;fill-opacity:1;stroke:none"
     id="polygon246"
     transform="scale(0.09722897,0.09722897)" />
  <polygon
     points="394.531,187.5 414.063,187.5 414.063,187.5 394.531,203.125 375,187.5 "
     style="fill:#ffb240;fill-opacity:1;stroke:none"
     id="polygon248"
     transform="scale(0.09722897,0.09722897)" />
  <polygon
     points="382.812,195.312 382.812,273.437 382.812,273.437 398.437,273.437 398.437,195.312 "
     style="fill:#ffb240;fill-opacity:1;stroke:none"
     id="polygon250"
     transform="scale(0.09722897,0.09722897)" />
  <polygon
     points="390.625,273.438 390.625,601.563 390.625,601.563 375,601.563 375,273.438 "
     style="fill:#999999;fill-opacity:1;stroke:none"
     id="polygon252"
     transform="scale(0.09722897,0.09722897)" />
  <polygon
     points="421.875,273.438 421.875,601.563 421.875,601.563 398.438,601.563 398.438,273.438 "
     style="fill:#333333;fill-opacity:1;stroke:none"
     id="polygon254"
     transform="scale(0.09722897,0.09722897)" />
  <polygon
     points="289.818,510.995 297.883,543.403 297.883,592.015 305.948,616.32 322.076,632.524 346.27,640.625 394.658,640.625 434.981,640.625 459.174,632.524 467.239,624.422 467.239,616.32 483.367,535.301 499.497,470.486 507.561,438.079 515.625,421.875 499.497,429.977 499.497,429.977 475.303,446.18 443.045,454.282 386.592,454.282 370.464,454.282 370.464,462.385 322.076,454.282 297.883,446.18 281.754,438.079 273.69,429.977 265.625,429.977 265.625,438.079 273.69,470.486 "
     style="fill:#333333;fill-opacity:1;stroke:none"
     id="polygon256"
     transform="scale(0.09722897,0.09722897)" />
  <polygon
     points="305.556,461.617 337.963,469.769 370.371,469.769 378.472,469.769 378.472,461.617 386.573,461.617 427.083,461.617 459.49,453.465 500,445.312 500,445.312 475.694,534.986 459.49,616.508 451.388,624.66 427.083,632.812 394.676,632.812 354.166,632.812 329.861,624.66 313.657,616.508 305.556,543.138 297.454,510.529 281.25,469.769 281.25,445.312 "
     style="fill:url(#linearGradient3908);fill-opacity:1;stroke:none"
     id="polygon258"
     transform="scale(0.09722897,0.09722897)" />
  <polygon
     points="343.75,649.148 343.75,812.5 343.75,812.5 296.875,812.5 296.875,632.812 "
     style="fill:#aaaaaa;fill-opacity:1;stroke:none"
     id="polygon260"
     transform="scale(0.09722897,0.09722897)" />
  <polygon
     points="483.723,812.5 483.723,812.5 390.625,812.5 399.089,649.457 441.406,641.304 475.26,633.152 492.187,625 "
     style="fill:#333333;fill-opacity:1;stroke:none"
     id="polygon262"
     transform="scale(0.09722897,0.09722897)" />
  <polygon
     points="1024,324.5 1024,1028.5 1024,1028.5 320,1028.5 320,324.5 "
     style="fill:#ffffff;fill-opacity:0;stroke:none"
     id="polygon264"
     transform="scale(0.09722897,0.09722897)" />
  <polygon
     points="1002.04,867.509 980.041,856.253 963.54,833.741 947.039,794.346 864.535,788.718 776.529,783.09 672.022,777.463 485.01,777.463 424.507,783.09 402.506,788.718 391.504,794.346 380.504,805.602 375.003,816.858 364.003,839.369 353.002,856.253 336.501,867.509 320,878.764 320,912.533 320,912.533 342.001,918.16 408.005,935.045 518.012,951.928 600.518,957.556 694.024,957.556 787.529,957.556 859.034,951.928 914.037,946.299 958.04,935.045 1007.54,918.16 1018.54,912.533 1018.54,878.764 "
     style="fill:#000000;fill-opacity:1;stroke:none"
     id="polygon266"
     transform="scale(0.09722897,0.09722897)" />
  <polygon
     points="953.056,787.842 953.056,782.278 953.056,765.585 947.545,726.634 931.015,676.554 919.993,654.297 903.462,632.04 870.4,593.088 848.359,576.396 826.318,559.703 793.255,548.573 760.193,537.445 721.62,531.88 672.027,531.88 616.923,531.88 578.352,537.445 539.779,548.573 512.227,559.703 490.186,576.396 468.144,593.088 435.082,626.475 435.082,626.475 418.551,648.733 407.53,676.554 390.999,726.634 385.489,765.585 385.489,782.278 385.489,787.842 390.999,787.842 479.164,798.971 567.33,810.1 672.027,815.664 776.724,810.1 864.89,798.971 "
     style="fill:#000000;fill-opacity:1;stroke:none"
     id="polygon268"
     transform="scale(0.09722897,0.09722897)" />
  <polygon
     points="864.927,598.619 897.995,637.616 914.53,654.33 925.553,676.615 942.087,721.183 947.598,760.181 947.598,782.465 853.904,793.606 765.722,804.749 672.028,804.749 572.822,804.749 490.151,793.606 390.946,782.465 390.946,760.181 401.969,721.183 412.991,671.044 424.015,648.759 440.549,632.046 440.549,632.046 473.617,598.619 495.663,581.907 517.708,565.193 545.265,554.051 578.334,542.909 622.426,537.338 672.028,537.338 721.63,537.338 760.21,542.909 793.278,554.051 820.836,565.193 842.881,581.907 "
     style="fill:#aaaaaa;fill-opacity:1;stroke:none"
     id="polygon270"
     transform="scale(0.09722897,0.09722897)" />
  <polygon
     points="556.815,738.696 573.455,744.341 595.643,755.633 617.83,755.633 689.939,755.633 728.767,749.987 745.407,749.987 756.502,738.696 762.048,727.404 762.048,716.114 756.502,699.177 745.407,682.24 712.126,648.368 684.392,631.431 662.205,631.431 640.017,642.721 634.47,642.721 623.377,642.721 606.736,631.431 584.549,620.139 573.455,603.203 562.361,597.557 551.268,591.911 540.174,591.911 540.174,591.911 512.44,597.557 484.706,608.848 468.066,625.785 451.424,642.721 434.783,670.949 429.237,699.177 423.691,721.759 423.691,733.05 429.237,738.696 440.331,738.696 490.253,744.341 540.174,738.696 "
     style="fill:#666666;fill-opacity:1;stroke:none"
     id="polygon272"
     transform="scale(0.09722897,0.09722897)" />
  <polygon
     points="584.801,682.64 607.58,659.446 636.053,642.051 647.443,636.252 647.443,630.454 630.358,624.656 584.801,624.656 584.801,624.656 573.412,630.454 550.634,636.252 533.55,642.051 522.16,653.648 516.466,665.245 516.466,682.64 516.466,700.035 522.16,711.633 533.55,717.431 544.938,717.431 562.023,711.633 573.412,711.633 "
     style="fill:#e5f2ff;fill-opacity:1;stroke:none"
     id="polygon274"
     transform="scale(0.09722897,0.09722897)" />
  <polygon
     points="641.986,422.733 641.986,488.221 685.645,488.221 685.645,422.733 679.407,422.733 679.407,422.733 "
     style="fill:#000000;fill-opacity:1;stroke:none"
     id="polygon276"
     transform="scale(0.09722897,0.09722897)" />
  <polygon
     points="647.443,428.191 680.187,428.191 680.187,428.191 680.187,482.764 647.443,482.764 "
     style="fill:#8c8c8c;fill-opacity:1;stroke:none"
     id="polygon278"
     transform="scale(0.09722897,0.09722897)" />
  <polygon
     points="636.528,558.328 642.592,558.328 648.655,564.206 666.847,570.082 678.974,570.082 691.102,564.206 691.102,558.328 691.102,493.679 685.038,493.679 685.038,493.679 636.528,493.679 "
     style="fill:#000000;fill-opacity:1;stroke:none"
     id="polygon280"
     transform="scale(0.09722897,0.09722897)" />
  <polygon
     points="647.443,558.671 647.443,499.136 685.645,499.136 685.645,499.136 685.645,558.671 679.277,558.671 666.544,564.625 653.809,558.671 "
     style="fill:#8c8c8c;fill-opacity:1;stroke:none"
     id="polygon282"
     transform="scale(0.09722897,0.09722897)" />
  <polygon
     points="685.645,553.71 691.102,559.168 691.102,559.168 "
     style="fill:#000000;fill-opacity:1;stroke:none"
     id="polygon284"
     transform="scale(0.09722897,0.09722897)" />
  <polygon
     points="637.368,471.85 625.613,477.852 625.613,477.852 625.613,483.855 625.613,519.875 631.49,525.878 643.245,531.88 666.754,531.88 684.385,531.88 696.14,525.878 702.016,519.875 702.016,483.855 696.14,477.852 666.754,471.85 649.122,471.85 "
     style="fill:#000000;fill-opacity:1;stroke:none"
     id="polygon286"
     transform="scale(0.09722897,0.09722897)" />
  <polygon
     points="696.559,483.446 696.559,520.284 690.606,520.284 666.792,526.423 642.978,526.423 631.07,520.284 631.07,483.446 642.978,477.307 666.792,477.307 666.792,477.307 684.652,477.307 "
     style="fill:#aaaaaa;fill-opacity:1;stroke:none"
     id="polygon288"
     transform="scale(0.09722897,0.09722897)" />
  <polygon
     points="702.017,442.379 690.324,448.928 661.087,455.477 631.85,448.928 626.003,442.379 620.156,435.831 626.003,435.831 631.85,429.282 661.087,422.733 690.324,429.282 702.017,435.831 702.017,435.831 "
     style="fill:#555555;fill-opacity:1;stroke:none"
     id="polygon290"
     transform="scale(0.09722897,0.09722897)" />
  <polygon
     points="620.156,430.919 626.003,437.741 643.545,444.562 661.087,444.562 684.476,444.562 696.17,437.741 702.017,430.919 696.17,424.097 684.476,417.275 661.087,417.275 643.545,417.275 626.003,424.097 620.156,430.919 "
     style="fill:#000000;fill-opacity:1;stroke:none"
     id="polygon292"
     transform="scale(0.09722897,0.09722897)" />
  <polygon
     points="660.838,439.105 642.978,439.105 631.07,430.919 642.978,422.733 660.838,422.733 660.838,422.733 684.652,422.733 696.559,430.919 684.652,439.105 "
     style="fill:#aaaaaa;fill-opacity:1;stroke:none"
     id="polygon294"
     transform="scale(0.09722897,0.09722897)" />
  <polygon
     points="780.143,565.121 768.654,565.121 768.654,565.121 757.164,559.168 751.42,565.121 745.675,571.074 745.675,577.028 751.42,582.982 785.887,594.888 820.356,606.796 849.079,618.702 854.823,624.656 849.079,618.702 831.844,594.888 797.378,571.074 "
     style="fill:#e5f2ff;fill-opacity:1;stroke:none"
     id="polygon296"
     transform="scale(0.09722897,0.09722897)" />
  <polygon
     points="358.202,767.912 358.202,779.509 363.707,791.105 363.707,796.904 391.235,802.703 457.303,820.098 556.406,831.695 611.462,837.493 672.025,837.493 793.15,831.695 886.747,814.299 947.309,802.703 974.837,796.904 974.837,791.105 980.343,779.509 980.343,767.912 974.837,762.114 963.825,750.516 958.32,744.718 958.32,744.718 936.297,756.316 870.229,773.71 782.139,791.105 727.082,796.904 672.025,796.904 616.968,796.904 561.912,791.105 468.316,773.71 402.247,756.316 380.224,744.718 374.719,750.516 363.707,762.114 "
     style="fill:#333333;fill-opacity:1;stroke:none"
     id="polygon298"
     transform="scale(0.09722897,0.09722897)" />
  <polygon
     points="561.861,826.16 468.242,814.405 402.159,796.773 369.116,790.896 369.116,773.264 369.116,761.51 380.13,755.633 407.665,761.51 473.749,779.142 567.368,796.773 616.931,802.651 672.001,802.651 672.001,802.651 727.07,802.651 776.634,796.773 870.252,779.142 930.83,761.51 958.364,755.633 969.378,761.51 974.885,779.142 969.378,790.896 941.843,796.773 875.759,808.528 787.648,826.16 672.001,832.036 "
     style="fill:#cccccc;fill-opacity:1;stroke:none"
     id="polygon300"
     transform="scale(0.09722897,0.09722897)" />
  <polygon
     points="492.229,792.275 554.026,798.512 576.497,804.749 480.992,798.512 419.196,779.801 385.489,773.564 391.106,761.09 391.106,761.09 424.814,773.564 458.521,786.038 "
     style="fill:#e5f2ff;fill-opacity:1;stroke:none"
     id="polygon302"
     transform="scale(0.09722897,0.09722897)" />
  <polygon
     points="830.947,802.269 764.435,814.175 609.241,832.036 670.21,826.083 786.605,820.129 847.575,808.222 903.001,796.315 963.97,778.455 952.885,766.547 952.885,766.547 891.916,784.408 "
     style="fill:#999999;fill-opacity:1;stroke:none"
     id="polygon304"
     transform="scale(0.09722897,0.09722897)" />
  <polygon
     points="475.856,890.509 537.653,896.745 560.125,902.982 464.62,896.745 402.824,884.272 369.116,871.797 374.734,859.323 374.734,859.323 408.441,871.797 442.149,884.272 "
     style="fill:#bbbbbb;fill-opacity:1;stroke:none"
     id="polygon306"
     transform="scale(0.09722897,0.09722897)" />
  <polygon
     points="524.378,773.824 484.267,766.547 472.807,766.547 530.109,781.101 570.22,788.377 587.411,788.377 587.411,773.824 587.411,773.824 564.491,781.101 547.299,781.101 "
     style="fill:#e5f2ff;fill-opacity:1;stroke:none"
     id="polygon308"
     transform="scale(0.09722897,0.09722897)" />
</svg>
