<?xml version="1.0" encoding="UTF-8" standalone="no"?>
<svg xmlns:rdf="http://www.w3.org/1999/02/22-rdf-syntax-ns#" xmlns="http://www.w3.org/2000/svg" version="1.1" xml:space="preserve" height="219px" viewBox="21.152 45.375 219 219" width="219px" enable-background="new 21.152 45.375 219 219" y="0px" x="0px" xmlns:cc="http://creativecommons.org/ns#" xmlns:xlink="http://www.w3.org/1999/xlink" xmlns:dc="http://purl.org/dc/elements/1.1/"><metadata><rdf:RDF><cc:Work rdf:about=""><dc:format>image/svg+xml</dc:format><dc:type rdf:resource="http://purl.org/dc/dcmitype/StillImage"/><dc:title/></cc:Work></rdf:RDF></metadata><defs><radialGradient id="radialGradient3046" gradientUnits="userSpaceOnUse" cy="142.6" cx="78.68" gradientTransform="matrix(2.60938,7.2169273e-4,-8.6005888e-4,3.1096461,-134.66769,-304.0441)" r="30.62"><stop stop-color="#FF0" offset="0"/><stop stop-color="#FF0" stop-opacity="0" offset="1"/></radialGradient><radialGradient id="radialGradient3061" gradientUnits="userSpaceOnUse" cy="65.18" cx="69.53" gradientTransform="matrix(0.99185709,0,0,0.99185709,-17.850769,14.817558)" r="81.26"><stop stop-color="#FFF" offset="0.1573"/><stop stop-color="#724548" offset="0.8989"/></radialGradient><linearGradient id="linearGradient3070" y2="194" gradientUnits="userSpaceOnUse" x2="130.5" gradientTransform="matrix(1.1370596,0,0,1.1370596,-18.954854,-21.503992)" y1="97.09" x1="125.2"><stop stop-color="#FFF" offset="0.2978"/><stop stop-color="#FFF" offset="0.5955"/><stop stop-color="#EEE7E5" offset="0.9045"/></linearGradient>
					<filter id="filter3995"><feGaussianBlur stdDeviation="2.1336348"/></filter></defs>
<g opacity="0.4" filter="url(#AI_GaussianBlur_2)" transform="matrix(1.1370596,0,0,1.1370596,-18.954854,-21.503992)">
</g><path d="m130.2,59.92c-16.6,0.0144-34.88,7.13-42.58,22.74,2.894,12.67-15.81,3.588-22.62,6.421-11.45,2.04-28.74-5.143-36.31,4.83-4.536,11.48,0.7207,23.89-1.561,35.73-0.3857,11.89,0.2091,23.97,3.567,35.45-0.732,19.76-0.3152,39.56-0.2062,59.32-0.6647,15.12,16.99,15.58,27.88,14.6,54.11-0.395,108.2,0.2979,162.4-0.3577,10.44-1.865,12.42-14.31,11.03-23.07v-59.52c6.881-11.72,1.24-25.49,3.141-38.11-0.6653-10.72,5.013-32.13-13.25-28.9-42.52-0.1244-85.03-0.0162-127.6-0.0528,4.148-16.67,23.52-22.07,38.77-21.28,9.53,0.5091,18.9,3.496,27.01,8.519-0.2773,7.888,13.91,17.61,9.481,4.016-5.999-11.72-19.64-16.76-31.65-19.74-2.484-0.3999-5-0.6079-7.516-0.6099z" fill-opacity="0.50196078" filter="url(#filter3995)" fill="#000"/><path fill="#919090" d="m85.58,82.75c1.115,4.257,6.216,4.049,7.93,2.549,1.551-1.361,0.5822-5.567,0.5321-5.865,0,0,9.433-14.98,34.39-14.61,20.92,0.3161,30.14,8.921,33.39,14.36,0,0-1.852,7.974,5.13,6.484,9.89-2.115-9.82-28.65-38.85-28.71-26.9-0.05231-44.46,18.43-42.53,25.79z"/><path fill="#7c7c7c" d="m87.16,81.94c0.8755,2.514,4.123,2.876,5.152,1.795,1.271-1.336,0.2843-4.63,0.8505-5.892,0,0,10.89-15.86,35.33-15.48,19.34,0.3002,33.11,11.44,34.66,16.39,0,0-0.9824,7.926,3.823,5.481,6-3.07-13.1-25.09-38.4-25.22-25.4-0.13-43.02,18.4-41.44,22.92z"/><path fill="#8e8682" d="m228.6,221.4c0,7.489-6.263,13.56-13.99,13.56h-173.4c-7.723,0-13.99-6.071-13.99-13.56v-101.4c0-7.485,6.27-13.56,13.99-13.56h173.4c7.727,0,13.99,6.074,13.99,13.56v101.4z"/><path fill="url(#linearGradient3070)" d="m225.8,219.6c0,7.223-6.094,13.08-13.61,13.08h-168.6c-7.518,0-13.61-5.857-13.61-13.08v-97.83c0-7.224,6.095-13.09,13.61-13.09h168.6c7.515,0,13.61,5.863,13.61,13.09v97.83z"/><path fill="#c1c1c1" d="m222.7,216.3c0,6.878-5.891,12.46-13.17,12.46h-163.2c-7.27,0-13.17-5.586-13.17-12.46v-93.2c0-6.883,5.897-12.47,13.17-12.47h163.2c7.276,0,13.17,5.583,13.17,12.47v93.2z"/><path opacity="0.43999999" d="m209.5,110.7h-34.44c-2.661,32.44,1.628,56.43-21.92,89.03-15.1,25.94-45.67,23.05-64.98,29.1h121.3c7.276,0,13.17-5.586,13.17-12.46v-93.2c-0.001-6.883-5.891-12.47-13.17-12.47z" fill="#8e8682"/><path fill="#5b5b5b" d="m227.3,152.7c4.613-1.687,4.462-4.961,4.462-7.854v-54.56c0-2.893-3.483-5.238-7.77-5.238h-192.1c-4.298,0-7.774,3.409-7.774,6.303v56.07c0,2.894,0.8562,5.145,5.746,6.581,0,0,34.92,6.184,100.3,6.184,65.4,0,97.12-7.468,97.12-7.468z"/><path fill="#d8d8d8" d="m224.1,150.6c4.461-1.574,4.325-4.627,4.325-7.326v-50.89c0-2.698-3.377-4.887-7.527-4.887h-186c-4.155,0-7.526,3.178-7.526,5.879v52.3c0,2.701,0.8266,4.798,5.561,6.136,0,0,33.8,5.774,97.11,5.774,63.31,0.001,94-6.968,94-6.968z"/><path opacity="0.6" d="m219.2,89.44h-42.46c-1.917,21.99-2.678,44.3-8.418,64.75,36.28-1.79,54.03-5.62,54.03-5.62,4.383-1.479,4.244-4.336,4.244-6.866v-47.68c0-2.529-3.31-4.578-7.393-4.578z" fill="#5b5b5b"/><path fill="#f0f0f0" d="M219.5,89.44h-180.8c-4.04,0-7.311,1.905-7.311,2.769v3.317c0-0.863,3.271-1.566,7.311-1.566h180.8c4.041,0,7.32,0.7027,7.32,1.566v-3.326c-0.1103-1.623-3.279-2.76-7.319-2.76z"/><path opacity="0.70999995" d="M31.08,136v-41.69h131s-111.1-1.123-131,41.73z" fill="url(#radialGradient3061)"/><path opacity="0.70999995" d="M31.08,136v-41.69h131s-111.1-1.123-131,41.73z" fill="#a2a2a2"/><path fill="#4f4f4f" d="m141.7,178.8c0,3.473-2.457,6.288-5.49,6.288h-14.42c-3.033,0-5.49-2.816-5.49-6.288v-28.53c0-3.473,2.457-6.288,5.49-6.288h14.41c3.033,0,5.49,2.815,5.49,6.288v28.56z"/><path fill="#bcbcbc" d="m139.9,177c0,2.985-2.112,5.402-4.714,5.402h-12.37c-2.606,0-4.717-2.417-4.717-5.402v-24.54c0-2.983,2.11-5.401,4.717-5.401h12.38c2.603,0,4.714,2.419,4.714,5.401v24.54z"/><rect height="4.988" width="25.39" y="168.5" x="116.3" fill="#4f4f4f"/><g opacity="0.5" filter="url(#AI_GaussianBlur_2.2)" transform="matrix(1.1370596,0,0,1.1370596,-18.954854,-21.503992)">
	<path d="M92.22,191.4h-22.53c-0.812,0-1.471,0.657-1.471,1.466,0,0.817,0.659,1.486,1.471,1.486h22.53c0.821,0,1.478-0.669,1.478-1.486,0-0.808-0.656-1.466-1.477-1.466"/>
	<path d="M92.22,199.1h-22.53c-0.812,0-1.471,0.655-1.471,1.479,0,0.809,0.659,1.472,1.471,1.472h22.53c0.821,0,1.478-0.663,1.478-1.472,0-0.824-0.656-1.479-1.477-1.479"/>
	<path d="M92.22,206.8h-22.53c-0.812,0-1.471,0.661-1.471,1.479s0.659,1.474,1.471,1.474h4.374c0.033,1.509,1.252,2.724,2.771,2.724h8.243c1.514,0,2.742-1.215,2.767-2.724h4.374c0.821,0,1.478-0.656,1.478-1.474s-0.657-1.479-1.478-1.479"/>
	<path d="m80.96,115.3c-16.33,0-29.62,13.29-29.62,29.62,0,7.424,4.633,15.18,6.054,17.39-0.038-0.051,2.099,3.334,2.099,3.334,3.728,5.842,7.243,11.36,8.071,18.11,0.178,1.442,1.398,2.524,2.846,2.524h21.54c1.44,0,2.669-1.082,2.845-2.518,0.898-7.269,4.563-13.16,8.445-19.38l1.313-2.115c1.392-2.156,6.021-9.909,6.021-17.34,0-16.33-13.29-29.62-29.62-29.62"/>
</g><path d="M83.8,194h-25.61c-0.9244,0-1.674,0.747-1.674,1.667,0,0.929,0.7482,1.69,1.674,1.69h25.62c0.9335,0,1.681-0.7607,1.681-1.69,0-0.9199-0.747-1.667-1.681-1.667" stroke="#333" stroke-width="1.13705957" fill="#545454"/><path d="M83.8,202.8h-25.61c-0.9244,0-1.674,0.7436-1.674,1.682,0,0.9187,0.7482,1.673,1.674,1.673h25.62c0.9335,0,1.681-0.7539,1.681-1.673,0-0.9381-0.747-1.682-1.681-1.682" stroke="#333" stroke-width="1.13705957" fill="#545454"/><path d="M83.8,211.6h-25.61c-0.9244,0-1.674,0.7516-1.674,1.682,0,0.9301,0.7482,1.677,1.674,1.677h4.973c0.03752,1.715,1.424,3.097,3.151,3.097h9.372c1.724,0,3.119-1.383,3.147-3.097h4.973c0.9335,0,1.681-0.747,1.681-1.677,0-0.9301-0.7482-1.682-1.682-1.682" stroke="#333" stroke-width="1.13705957" fill="#545454"/><path d="m70.53,106.6c-18.57,0-33.68,15.11-33.68,33.68,0,8.442,5.269,17.26,6.885,19.78-0.04321-0.058,2.386,3.791,2.386,3.791,4.24,6.643,8.236,12.92,9.177,20.59,0.2024,1.639,1.59,2.87,3.236,2.87h24.5c1.639,0,3.034-1.231,3.236-2.863,1.021-8.265,5.187-14.96,9.601-22.04l1.494-2.406c1.581-2.452,6.846-11.27,6.846-19.72,0-18.57-15.11-33.68-33.68-33.68" stroke="#333" stroke-width="2.27411914" fill="url(#radialGradient3046)"/>
</svg>
