<?xml version="1.0" encoding="UTF-8" standalone="no"?><svg xmlns:rdf="http://www.w3.org/1999/02/22-rdf-syntax-ns#" xmlns="http://www.w3.org/2000/svg" version="1.1" xml:space="preserve" height="219" viewBox="-0.646 -0.961 219 219" width="219" enable-background="new -0.646 -0.961 209 151" y="0px" x="0px" xmlns:cc="http://creativecommons.org/ns#" xmlns:xlink="http://www.w3.org/1999/xlink" xmlns:dc="http://purl.org/dc/elements/1.1/">	<metadata>		<rdf:RDF>			<cc:Work rdf:about="">				<dc:format>image/svg+xml</dc:format>				<dc:type rdf:resource="http://purl.org/dc/dcmitype/StillImage"/>				<dc:title/>			</cc:Work>		</rdf:RDF>	</metadata>	<defs>		<filter id="filter4406" color-interpolation-filters="sRGB">			<feGaussianBlur stdDeviation="0.68619537"/>		</filter>		<filter id="filter4209">			<feGaussianBlur stdDeviation="0.55583092"/>		</filter>		<filter id="filter4209-0" color-interpolation-filters="sRGB">			<feGaussianBlur stdDeviation="0.55583092"/>		</filter>		<filter id="filter4255">			<feGaussianBlur stdDeviation="0.47541134"/>		</filter>		<filter id="filter4255-4" color-interpolation-filters="sRGB">			<feGaussianBlur stdDeviation="0.47541134"/>		</filter>		<filter id="filter4255-45" color-interpolation-filters="sRGB">			<feGaussianBlur stdDeviation="0.47541134"/>		</filter>		<linearGradient id="linearGradient3913" y2="10.94" gradientUnits="userSpaceOnUse" x2="131.2" gradientTransform="translate(-24.862592,102.94745)" y1="47.38" x1="210.7">			<stop stop-color="#d59f0f" offset="0"/>			<stop stop-color="#f7ca12" offset="1"/>		</linearGradient>	</defs>	<path d="M203.8,174.6v0.5,22.7c0,2-1.6,3.6-3.6,3.6h-49.3c-0.3,0-0.7-0.1-1.1-0.2,0.3,1.8,1.8,3.1,3.6,3.1h49.3c2,0,3.6-1.6,3.6-3.5v-22.8c0-1.6-1-3-2.5-3.4z" fill-opacity="0.50196081000000004" transform="translate(-0.646,-0.961)" filter="url(#filter4255-45)" fill="#000"/>	<path d="M130.7,174.9c0.1,0.3,0.1,0.6,0.1,0.9v22.7c0,2-1.6,3.6-3.6,3.6h-49.32c-0.27,0-0.51,0-0.76-0.1,0.39,1.6,1.76,2.7,3.44,2.7h49.34c2,0,3.6-1.6,3.6-3.6v0.1-22.8c0-1.7-1.2-3.1-2.8-3.5z" fill-opacity="0.50196081000000004" transform="translate(-0.646,-0.961)" filter="url(#filter4255-4)" fill="#000"/>	<path d="M60.81,175.2c0.04,0.2,0.07,0.4,0.07,0.6v22.8h-0.04c0,1.9-1.58,3.6-3.56,3.6h-49.34c-0.162,0-0.314-0.1-0.469-0.1,0.286,1.7,1.725,3,3.501,3h49.34c1.98,0,3.6-1.6,3.6-3.6v-22.7c0-1.8-1.36-3.3-3.1-3.6z" fill-opacity="0.50196081000000004" transform="translate(-0.646,-0.961)" filter="url(#filter4255)" fill="#000"/>	<path d="M95.88,122.6c0.1,0.4,0.15,0.8,0.15,1.2v26.6c0,2.3-1.87,4.2-4.19,4.2h-57.65c-0.37,0-0.73-0.1-1.07-0.2,0.5,1.8,2.12,3.1,4.04,3.1h57.65c2.32,0,4.22-1.9,4.22-4.2v-26.6c0-2-1.35-3.6-3.15-4.1z" fill-opacity="0.50196081000000004" transform="translate(-0.646,-0.961)" filter="url(#filter4209-0)" fill="#000"/>	<path d="M95.44,67.94c0.14,0.42,0.22,0.87,0.22,1.34v26.63c0,2.31-1.88,4.19-4.19,4.19h-57.66c-0.2,0-0.42,0-0.62-0.1,0.56,1.7,2.13,2.9,3.97,2.9h57.65c2.32,0,4.22-1.9,4.22-4.21v-26.63c0-2.1-1.58-3.82-3.59-4.12z" fill-opacity="0.50196081000000004" transform="translate(-0.646,-0.961)" filter="url(#filter4209)" fill="#000"/>	<path d="M187.8,115.8c0.1,0.4,0.2,0.8,0.2,1.3v32.7c0,2.9-2.3,5.2-5.2,5.2h-71.3c-0.3,0-0.5,0-0.8-0.1,0.6,2.3,2.6,3.9,5,3.9h71.3c2.9,0,5.2-2.3,5.2-5.1v-32.8c0-2.6-1.9-4.7-4.4-5.1z" fill-opacity="0.50196081" transform="translate(-0.646,-0.961)" filter="url(#filter4406)" fill="#000"/>	<line stroke-width="5.627" x1="63.24" y1="100.2" stroke="#b7b7b7" x2="63.24" y2="117.6" fill="#c6c6c6"/>	<line stroke-width="5.627" x1="41.22" y1="154.7" stroke="#b7b7b6" x2="41.22" y2="170.2" fill="#c6c6c6"/>	<line stroke-width="5.627" x1="82.28" y1="154.6" stroke="#bbbcb8" x2="82.28" y2="170.3" fill="#c6c6c6"/>	<line stroke-width="5.627" x1="121.4" y1="155" stroke="#b1b2b1" x2="121.4" y2="170.2" fill="#c6c6c6"/>	<line stroke-width="5.627" x1="160.4" y1="155" stroke="#b7b7b7" x2="160.4" y2="169.6" fill="none"/>	<line stroke-width="5.627" x1="95.98" y1="81.27" stroke="#b7b7b7" x2="125" y2="81.19" fill="#c6c6c6"/>	<line stroke-width="5.627" x1="123.3" y1="78.42" stroke="#b7b7b7" x2="123.3" y2="110" fill="#c6c6c6"/>	<path d="m130.1,197.5c0,1.981-1.606,3.585-3.586,3.585h-49.26c-1.98,0-3.585-1.605-3.585-3.585v-22.77c0-1.978,1.606-3.585,3.585-3.585h49.33c1.981,0,3.586,1.607,3.586,3.585v22.77z" stroke="#000" stroke-dasharray="none" stroke-miterlimit="4" stroke-width="2" fill="#d3d3d3"/>	<path d="m203.2,196.9c0,1.983-1.607,3.585-3.588,3.585h-49.32c-1.981,0-3.586-1.602-3.586-3.585v-22.76c0-1.981,1.606-3.585,3.586-3.585h49.33c1.981,0,3.588,1.605,3.588,3.585v22.76z" stroke="#000" stroke-dasharray="none" stroke-miterlimit="4" stroke-width="2" fill="#d3d3d3"/>	<path d="m60.21,197.6c0,1.983-1.607,3.588-3.588,3.588h-49.32c-1.98,0-3.585-1.605-3.585-3.588v-22.76c0-1.981,1.606-3.585,3.585-3.585h49.33c1.981,0,3.588,1.605,3.588,3.585v22.76z" stroke="#000" stroke-dasharray="none" stroke-miterlimit="4" stroke-width="2" fill="#d3d3d3"/>	<path d="m95.39,149.4c0,2.315-1.878,4.192-4.193,4.192h-57.67c-2.315,0-4.192-1.877-4.192-4.192v-26.61c0-2.316,1.877-4.193,4.192-4.193h57.67c2.315,0,4.193,1.877,4.193,4.193v26.62z" stroke="#000" stroke-dasharray="none" stroke-miterlimit="4" stroke-width="2" fill="#d3d3d3"/>	<path d="m95.02,94.93c0,2.316-1.878,4.193-4.193,4.193h-57.67c-2.315,0-4.192-1.877-4.192-4.193v-26.62c0-2.316,1.877-4.193,4.192-4.193h57.67c2.315,0,4.193,1.877,4.193,4.193v26.62z" stroke="#000" stroke-dasharray="none" stroke-miterlimit="4" stroke-width="2" fill="#d3d3d3"/>	<g fill-rule="nonzero" fill="#000">		<rect style="enable-background:accumulate;color:#000000;" transform="matrix(0.98460547,0.17479152,-0.17479152,0.98460547,0,0)" height="4.025" width="4.025" y="7.574" x="20.2"/>		<rect style="enable-background:accumulate;color:#000000;" transform="matrix(0.97778091,0.20962943,-0.20962943,0.97778091,0,0)" height="4.025" width="4.025" y="6.564" x="32.93"/>		<rect style="enable-background:accumulate;color:#000000;" transform="matrix(0.96860139,0.2486189,-0.2486189,0.96860139,0,0)" height="4.025" width="4.025" y="4.944" x="45.62"/>		<rect style="enable-background:accumulate;color:#000000;" transform="matrix(0.95922608,0.28263994,-0.28263994,0.95922608,0,0)" height="4.025" width="4.025" y="2.996" x="58.25"/>		<rect style="enable-background:accumulate;color:#000000;" transform="matrix(0.95242553,0.30477139,-0.30477139,0.95242553,0,0)" height="4.025" width="4.025" y="1.473" x="70.75"/>		<rect style="enable-background:accumulate;color:#000000;" transform="matrix(0.93891037,0.34416177,-0.34416177,0.93891037,0,0)" height="4.025" width="4.025" y="-1.816" x="83.22"/>		<rect style="enable-background:accumulate;color:#000000;" transform="matrix(0.93287545,0.36019911,-0.36019911,0.93287545,0,0)" height="4.025" width="4.025" y="-3.352" x="95.61"/>		<rect style="enable-background:accumulate;color:#000000;" transform="matrix(0.91981576,0.39235057,-0.39235057,0.91981576,0,0)" height="4.025" width="4.025" y="-6.884" x="107.9"/>		<rect style="enable-background:accumulate;color:#000000;" transform="matrix(0.90057541,0.43469982,-0.43469982,0.90057541,0,0)" height="4.025" width="4.025" y="-12.3" x="120"/>		<rect style="enable-background:accumulate;color:#000000;" transform="matrix(0.88670579,0.46233413,-0.46233413,0.88670579,0,0)" height="4.025" width="4.025" y="-16.36" x="132"/>		<rect style="enable-background:accumulate;color:#000000;" transform="matrix(0.87681862,0.48082128,-0.48082128,0.87681862,0,0)" height="4.025" width="4.025" y="-19.27" x="144.1"/>		<rect style="enable-background:accumulate;color:#000000;" transform="matrix(0.85246382,0.52278623,-0.52278623,0.85246382,0,0)" height="4.025" width="4.025" y="-26.57" x="155.4"/>		<rect style="enable-background:accumulate;color:#000000;" transform="matrix(0.83177494,0.55511301,-0.55511301,0.83177494,0,0)" height="4.025" width="4.025" y="-32.79" x="166.8"/>		<rect style="enable-background:accumulate;color:#000000;" transform="matrix(0.79651234,0.60462227,-0.60462227,0.79651234,0,0)" height="4.025" width="4.025" y="-43.33" x="177"/>		<rect style="enable-background:accumulate;color:#000000;" transform="matrix(0.76926813,0.63892609,-0.63892609,0.76926813,0,0)" height="4.025" width="4.025" y="-51.39" x="187.4"/>		<rect style="enable-background:accumulate;color:#000000;" transform="matrix(0.72608303,0.68760703,-0.68760703,0.72608303,0,0)" height="4.025" width="4.025" y="-63.91" x="196.2"/>		<rect style="enable-background:accumulate;color:#000000;" transform="matrix(0.67723218,0.73576937,-0.73576937,0.67723218,0,0)" height="4.025" width="4.025" y="-77.63" x="203.9"/>		<rect style="enable-background:accumulate;color:#000000;" transform="matrix(0.61087898,0.79172399,-0.79172399,0.61087898,0,0)" height="4.025" width="4.025" y="-95.58" x="209"/>	</g>	<rect style="enable-background:accumulate;color:#000000;" fill-rule="nonzero" transform="matrix(0.52360608,0.85196049,-0.85196049,0.52360608,0,0)" height="4.025" width="4.025" y="-117.9" x="210.2" fill="#000"/>	<path d="m187.3,148.9c0,2.852-2.322,5.163-5.184,5.163h-71.3c-2.862,0-5.182-2.311-5.182-5.163v-32.78c0-2.852,2.32-5.163,5.182-5.163h71.3c2.862,0,5.184,2.311,5.184,5.163v32.78z" stroke="#9b6600" stroke-dasharray="none" stroke-miterlimit="4" stroke-width="2" fill="url(#linearGradient3913)"/></svg>