<?xml version="1.0" encoding="UTF-8" standalone="no"?>
<svg id="svg2" xmlns:rdf="http://www.w3.org/1999/02/22-rdf-syntax-ns#" xmlns="http://www.w3.org/2000/svg" enable-background="new -0.3 -0.103 209 195" xml:space="preserve" height="219" width="219" version="1.1" y="0px" x="0px" xmlns:cc="http://creativecommons.org/ns#" xmlns:xlink="http://www.w3.org/1999/xlink" viewBox="-0.3 -0.103 219 219" xmlns:dc="http://purl.org/dc/elements/1.1/">
	<metadata id="metadata292">
		<rdf:RDF>
			<cc:Work rdf:about="">
				<dc:format>image/svg+xml</dc:format>
				<dc:type rdf:resource="http://purl.org/dc/dcmitype/StillImage"/>
				<dc:title/>
			</cc:Work>
		</rdf:RDF>
	</metadata>
	<defs id="defs4">
		<filter id="filter4297">
			<feGaussianBlur id="feGaussianBlur4299" stdDeviation="1.9321776"/>
		</filter>
		<radialGradient id="radialGradient4318" gradientUnits="userSpaceOnUse" cy="118.21" cx="104.95" gradientTransform="matrix(2.5025331,0.00303871,0.01411382,2.1896929,-159.92227,-148.5954)" r="86.297">
			<stop id="stop4257" stop-color="#FFF" offset="0"/>
			<stop id="stop4259" stop-color="#5191cd" offset="1"/>
		</radialGradient>
	</defs>
	<g id="g4339" stroke-miterlimit="4" fill-rule="evenodd">
		<path id="path3470-1" opacity="0.5" d="m46.822,271.83c-50.793,0-91.965,32.412-91.965,72.392,0,23.299,14.015,44.011,35.736,57.252,9.0875,17.25-4.5138,27.914-25.073,37.696,25.114-6.7823,44.268-14.91,55.796-24.769,9.5542,2.6461,14.803,2.2125,25.507,2.2125,50.793,0,91.999-32.412,91.999-72.392,0-39.981-41.206-72.392-91.999-72.392z" transform="matrix(1.119711,0,0,0.95895808,61.927479,-222.93695)" filter="url(#filter4297)" stroke-width="0" fill="#000"/>
		<path id="path3470" style="stroke-dasharray:none;" d="m104.38,32.789c-55.132,0-99.821,30.13-99.821,67.295,0,21.658,15.212,40.912,38.788,53.221,9.8638,16.035-4.8994,25.949-27.215,35.042,27.26-6.3048,48.049-13.86,60.562-23.025,10.37,2.4598,16.068,2.0567,27.686,2.0567,55.132,0,99.858-30.13,99.858-67.295,0-37.166-44.726-67.295-99.858-67.295z" stroke-dashoffset="0" stroke="#000" stroke-width="4.38427401000000039" fill="url(#radialGradient4318)"/>
	</g>
</svg>
