<?xml version="1.0" encoding="UTF-8" standalone="no"?>
<svg id="svg4827" 
	xmlns:rdf="http://www.w3.org/1999/02/22-rdf-syntax-ns#" 
	xmlns="http://www.w3.org/2000/svg" 

	xmlns:cc="http://creativecommons.org/ns#" 
	xmlns:xlink="http://www.w3.org/1999/xlink" 
	xmlns:dc="http://purl.org/dc/elements/1.1/"
	
	version="1.1" 	
	x="0px"
	y="0px"
	width="219px"
	height="219px"
	viewBox="0 0 219 219"
	enable-background="new 0 0 219 219"
	>

 <defs id="defs4">
  <filter id="filter4341">
   <feGaussianBlur id="feGaussianBlur4343" stdDeviation="1.6880025"/>
  </filter>
 </defs>
 <metadata id="metadata7">
  <rdf:RDF>
   <cc:Work rdf:about="">
    <dc:format>image/svg+xml</dc:format>
    <dc:type rdf:resource="http://purl.org/dc/dcmitype/StillImage"/>
    <dc:title/>
   </cc:Work>
  </rdf:RDF>
 </metadata>
 <g id="layer1" transform="translate(0,-833.36218)">
  <g id="g2850" fill-rule="evenodd" stroke-miterlimit="4" transform="matrix(1.228169,0,0,1.228169,-28.771199,-214.56649)">
   <path id="rect3005-8-9" opacity="0.5" d="m169.01,866.01c-1.3663,0.0486-2.6946,0.69074-3.625,1.8438l-29.563,36.625c-0.56814-0.21692-1.1404-0.42092-1.7188-0.59375-2.176-0.65019-7.0487-0.88017-9.25-0.59375l-28.779-23.23c-4.0652-3.2804-9.9696-2.6589-13.25,1.4062l-8.6875,10.75c-3.2804,4.0652-2.6589,10.001,1.4062,13.281l85.25,68.75c4.0652,3.2803,9.9696,2.6589,13.25-1.4063l8.6875-10.75c3.2804-4.0651,2.6589-10.001-1.4062-13.281l-28.219-22.75c-0.02-0.3945-0.0252-0.7228-0.0625-1.1875-0.26686-3.3246-1.6788-6.7714-3.875-9.9063l29.41-36.46c1.7013-2.1084,1.3896-5.1737-0.71875-6.875l-5.5938-4.5c-0.79064-0.638-1.7186-1.0133-2.6562-1.0938-0.19535-0.0168-0.39856-0.0382-0.59375-0.0312zm-113.59,161.69c1.3663-0.049,2.6946-0.6908,3.625-1.8438l29.562-36.625c0.56814,0.2169,1.1404,0.4209,1.7188,0.5937,2.176,0.6502,7.0487,0.8802,9.25,0.5938l28.781,23.219c4.0652,3.2804,9.9696,2.6589,13.25-1.4062l8.6875-10.75c3.2804-4.0652,2.6589-10.001-1.4062-13.281l-85.248-68.89c-4.0652-3.2804-9.9696-2.6589-13.25,1.4062l-8.6875,10.75c-3.2804,4.0651-2.6589,10.001,1.4062,13.281l28.219,22.75c0.02,0.3945,0.0252,0.7228,0.0625,1.1875,0.26686,3.3246,1.6788,6.7714,3.875,9.9063l-29.406,36.469c-1.7013,2.1084-1.3896,5.1737,0.71875,6.875l5.5938,4.5c0.79064,0.638,1.7186,1.0133,2.6562,1.0937,0.19535,0.017,0.39856,0.038,0.59375,0.031z" filter="url(#filter4341)" stroke-width="0" fill="#000"/>
   <path id="rect3005-8-8" style="stroke-dasharray:none;" d="m53.277,1020c1.3663-0.049,2.6946-0.6908,3.625-1.8438l29.563-36.625c0.56814,0.21692,1.1404,0.42092,1.7188,0.59375,2.176,0.65019,7.0487,0.88017,9.25,0.59375l28.781,23.219c4.0652,3.2804,9.9696,2.6589,13.25-1.4062l8.6875-10.75c3.2804-4.0652,2.6589-10.001-1.4062-13.281l-85.25-68.75c-4.0652-3.2804-9.9696-2.6589-13.25,1.4062l-8.6875,10.75c-3.2804,4.0652-2.6589,10.001,1.4062,13.281l28.219,22.75c0.02,0.3945,0.0252,0.72271,0.0625,1.1875,0.26686,3.3245,1.6788,6.7714,3.875,9.9062l-29.406,36.469c-1.7013,2.1084-1.3896,5.1737,0.71875,6.875l5.5938,4.5c0.79064,0.638,1.7186,1.0133,2.6562,1.0937,0.19535,0.017,0.39856,0.038,0.59375,0.031z" stroke="#6c6969" stroke-width="2" fill="#4d4d4d"/>
   <path id="rect3005-8" style="stroke-dasharray:none;" d="m166.86,858.34c-1.3663,0.0486-2.6946,0.69073-3.625,1.8438l-29.562,36.625c-0.56814-0.21692-1.1404-0.42093-1.7188-0.59375-2.176-0.65019-7.0487-0.88017-9.25-0.59375l-28.786-23.22c-4.0652-3.2804-9.9696-2.6589-13.25,1.4062l-8.6875,10.75c-3.2804,4.0652-2.6589,10.001,1.4062,13.281l85.25,68.75c4.0652,3.2804,9.9696,2.6589,13.25-1.4062l8.6875-10.75c3.2804-4.0652,2.6589-10.001-1.4062-13.281l-28.219-22.75c-0.02-0.39451-0.0252-0.72272-0.0625-1.1875-0.26686-3.3245-1.6788-6.7714-3.875-9.9062l29.406-36.469c1.7013-2.1084,1.3896-5.1737-0.71875-6.875l-5.5938-4.5c-0.79064-0.638-1.7186-1.0133-2.6562-1.0938-0.19535-0.0168-0.39856-0.0382-0.59375-0.0312z" stroke="#6c6969" stroke-width="2" fill="#999"/>
   <rect id="rect3061" ry="0.78058" rx="0.78058" transform="matrix(0.77318922,0.63417539,-0.63417539,0.77318922,0,0)" height="6.5008" width="6.7794" y="623.17" x="649.74" stroke-width="0" fill="#FFF"/>
   <rect id="rect3061-1" ry="0.78058" rx="0.78058" transform="matrix(0.77318922,0.63417539,-0.63417539,0.77318922,0,0)" height="6.5008" width="6.7794" y="623.02" x="657.5" stroke-width="0" fill="#FFF"/>
   <rect id="rect3061-8" ry="0.78058" rx="0.78058" transform="matrix(0.77318922,0.63417539,-0.63417539,0.77318922,0,0)" height="6.5008" width="6.7794" y="630.69" x="649.51" stroke-width="0" fill="#FFF"/>
   <rect id="rect3061-83" ry="0.78058" rx="0.78058" transform="matrix(0.77318922,0.63417539,-0.63417539,0.77318922,0,0)" height="6.5008" width="6.7794" y="630.55" x="657.27" stroke-width="0" fill="#FFF"/>
   <rect id="rect3061-6" ry="0.78058" rx="0.78058" transform="matrix(0.77318922,0.63417539,-0.63417539,0.77318922,0,0)" height="6.5008" width="6.7794" y="623.07" x="665.24" stroke-width="0" fill="#FFF"/>
   <rect id="rect3061-1-7" ry="0.78058" rx="0.78058" transform="matrix(0.77318922,0.63417539,-0.63417539,0.77318922,0,0)" height="6.5008" width="6.7794" y="622.92" x="673" stroke-width="0" fill="#FFF"/>
   <rect id="rect3061-8-8" ry="0.78058" rx="0.78058" transform="matrix(0.77318922,0.63417539,-0.63417539,0.77318922,0,0)" height="6.5008" width="6.7794" y="630.59" x="665.01" stroke-width="0" fill="#FFF"/>
   <rect id="rect3061-83-4" ry="0.78058" rx="0.78058" transform="matrix(0.77318922,0.63417539,-0.63417539,0.77318922,0,0)" height="6.5008" width="6.7794" y="630.45" x="672.77" stroke-width="0" fill="#FFF"/>
   <rect id="rect3061-17" ry="0.78058" rx="0.78058" transform="matrix(0.77318922,0.63417539,-0.63417539,0.77318922,0,0)" height="6.5008" width="6.7794" y="622.99" x="680.85" stroke-width="0" fill="#FFF"/>
   <rect id="rect3061-1-1" ry="0.78058" rx="0.78058" transform="matrix(0.77318922,0.63417539,-0.63417539,0.77318922,0,0)" height="6.5008" width="6.7794" y="622.84" x="688.6" stroke-width="0" fill="#FFF"/>
   <rect id="rect3061-8-87" ry="0.78058" rx="0.78058" transform="matrix(0.77318922,0.63417539,-0.63417539,0.77318922,0,0)" height="6.5008" width="6.7794" y="630.51" x="680.61" stroke-width="0" fill="#FFF"/>
   <rect id="rect3061-83-8" ry="0.78058" rx="0.78058" transform="matrix(0.77318922,0.63417539,-0.63417539,0.77318922,0,0)" height="6.5008" width="6.7794" y="630.37" x="688.38" stroke-width="0" fill="#FFF"/>
   <rect id="rect3061-6-7" ry="0.78058" rx="0.78058" transform="matrix(0.77318922,0.63417539,-0.63417539,0.77318922,0,0)" height="6.5008" width="6.7794" y="622.89" x="696.35" stroke-width="0" fill="#FFF"/>
   <rect id="rect3061-1-7-7" ry="0.78058" rx="0.78058" transform="matrix(0.77318922,0.63417539,-0.63417539,0.77318922,0,0)" height="6.5008" width="6.7794" y="622.74" x="704.11" stroke-width="0" fill="#FFF"/>
   <rect id="rect3061-8-8-4" ry="0.78058" rx="0.78058" transform="matrix(0.77318922,0.63417539,-0.63417539,0.77318922,0,0)" height="6.5008" width="6.7794" y="630.41" x="696.12" stroke-width="0" fill="#FFF"/>
   <rect id="rect3061-83-4-4" ry="0.78058" rx="0.78058" transform="matrix(0.77318922,0.63417539,-0.63417539,0.77318922,0,0)" height="6.5008" width="6.7794" y="630.27" x="703.88" stroke-width="0" fill="#FFF"/>
   <rect id="rect3061-9" ry="0.78058" rx="0.78058" transform="matrix(0.77318922,0.63417539,-0.63417539,0.77318922,0,0)" height="6.5008" width="6.7794" y="675.4" x="648.22" stroke-width="0" fill="#FFF"/>
   <rect id="rect3061-1-15" ry="0.78058" rx="0.78058" transform="matrix(0.77318922,0.63417539,-0.63417539,0.77318922,0,0)" height="6.5008" width="6.7794" y="675.25" x="655.97" stroke-width="0" fill="#FFF"/>
   <rect id="rect3061-8-5" ry="0.78058" rx="0.78058" transform="matrix(0.77318922,0.63417539,-0.63417539,0.77318922,0,0)" height="6.5008" width="6.7794" y="682.91" x="647.98" stroke-width="0" fill="#FFF"/>
   <rect id="rect3061-83-5" ry="0.78058" rx="0.78058" transform="matrix(0.77318922,0.63417539,-0.63417539,0.77318922,0,0)" height="6.5008" width="6.7794" y="682.77" x="655.75" stroke-width="0" fill="#FFF"/>
   <rect id="rect3061-6-8" ry="0.78058" rx="0.78058" transform="matrix(0.77318922,0.63417539,-0.63417539,0.77318922,0,0)" height="6.5008" width="6.7794" y="675.3" x="663.72" stroke-width="0" fill="#FFF"/>
   <rect id="rect3061-1-7-2" ry="0.78058" rx="0.78058" transform="matrix(0.77318922,0.63417539,-0.63417539,0.77318922,0,0)" height="6.5008" width="6.7794" y="675.15" x="671.47" stroke-width="0" fill="#FFF"/>
   <rect id="rect3061-8-8-9" ry="0.78058" rx="0.78058" transform="matrix(0.77318922,0.63417539,-0.63417539,0.77318922,0,0)" height="6.5008" width="6.7794" y="682.82" x="663.48" stroke-width="0" fill="#FFF"/>
   <rect id="rect3061-83-4-8" ry="0.78058" rx="0.78058" transform="matrix(0.77318922,0.63417539,-0.63417539,0.77318922,0,0)" height="6.5008" width="6.7794" y="682.67" x="671.25" stroke-width="0" fill="#FFF"/>
   <rect id="rect3061-17-2" ry="0.78058" rx="0.78058" transform="matrix(0.77318922,0.63417539,-0.63417539,0.77318922,0,0)" height="6.5008" width="6.7794" y="675.22" x="679.33" stroke-width="0" fill="#FFF"/>
   <rect id="rect3061-1-1-0" ry="0.78058" rx="0.78058" transform="matrix(0.77318922,0.63417539,-0.63417539,0.77318922,0,0)" height="6.5008" width="6.7794" y="675.07" x="687.08" stroke-width="0" fill="#FFF"/>
   <rect id="rect3061-8-87-7" ry="0.78058" rx="0.78058" transform="matrix(0.77318922,0.63417539,-0.63417539,0.77318922,0,0)" height="6.5008" width="6.7794" y="682.73" x="679.09" stroke-width="0" fill="#FFF"/>
   <rect id="rect3061-83-8-4" ry="0.78058" rx="0.78058" transform="matrix(0.77318922,0.63417539,-0.63417539,0.77318922,0,0)" height="6.5008" width="6.7794" y="682.59" x="686.85" stroke-width="0" fill="#FFF"/>
   <rect id="rect3061-6-7-8" ry="0.78058" rx="0.78058" transform="matrix(0.77318922,0.63417539,-0.63417539,0.77318922,0,0)" height="6.5008" width="6.7794" y="675.12" x="694.83" stroke-width="0" fill="#FFF"/>
   <rect id="rect3061-1-7-7-5" ry="0.78058" rx="0.78058" transform="matrix(0.77318922,0.63417539,-0.63417539,0.77318922,0,0)" height="6.5008" width="6.7794" y="674.97" x="702.58" stroke-width="0" fill="#FFF"/>
   <rect id="rect3061-8-8-4-8" ry="0.78058" rx="0.78058" transform="matrix(0.77318922,0.63417539,-0.63417539,0.77318922,0,0)" height="6.5008" width="6.7794" y="682.64" x="694.59" stroke-width="0" fill="#FFF"/>
   <rect id="rect3061-83-4-4-3" ry="0.78058" rx="0.78058" transform="matrix(0.77318922,0.63417539,-0.63417539,0.77318922,0,0)" height="6.5008" width="6.7794" y="682.5" x="702.36" stroke-width="0" fill="#FFF"/>
  </g>
 </g>
</svg>