<?xml version="1.0" encoding="UTF-8" standalone="no"?>
<svg
   xmlns:dc="http://purl.org/dc/elements/1.1/"
   xmlns:cc="http://creativecommons.org/ns#"
   xmlns:rdf="http://www.w3.org/1999/02/22-rdf-syntax-ns#"
   xmlns:svg="http://www.w3.org/2000/svg"
   xmlns="http://www.w3.org/2000/svg"
   xmlns:sodipodi="http://sodipodi.sourceforge.net/DTD/sodipodi-0.dtd"
   xmlns:inkscape="http://www.inkscape.org/namespaces/inkscape"
   version="1.1"
   xml:space="preserve"
   height="219px"
   viewBox="-0.001 -0.68 219 219"
   width="219px"
   enable-background="new -0.001 -0.68 198 170"
   y="0px"
   x="0px"
   id="svg2"
   inkscape:version="0.48.4 r9939"
   sodipodi:docname="it_business_service_catalog.svg"><sodipodi:namedview
   pagecolor="#ffffff"
   bordercolor="#666666"
   borderopacity="1"
   objecttolerance="10"
   gridtolerance="10"
   guidetolerance="10"
   inkscape:pageopacity="0"
   inkscape:pageshadow="2"
   inkscape:window-width="640"
   inkscape:window-height="480"
   id="namedview55"
   showgrid="false"
   inkscape:zoom="1.3169244"
   inkscape:cx="109.5"
   inkscape:cy="109.5"
   inkscape:window-x="518"
   inkscape:window-y="54"
   inkscape:window-maximized="0"
   inkscape:current-layer="svg2" />
	<metadata
   id="metadata4">
		<rdf:RDF>
			<cc:Work
   rdf:about="">
				<dc:title />
				<dc:format>image/svg+xml</dc:format>
				<dc:type
   rdf:resource="http://purl.org/dc/dcmitype/StillImage" />
			</cc:Work>
		</rdf:RDF>
	</metadata>
	<defs
   id="defs6">
		<filter
   id="filter4110">
			<feGaussianBlur
   stdDeviation="2.0494406"
   id="feGaussianBlur9" />
		</filter>
		<radialGradient
   id="radialGradient3013"
   gradientUnits="userSpaceOnUse"
   cy="15.97"
   cx="25.89"
   gradientTransform="matrix(0.99725076,0,0,0.99725076,9.8360101,23.412523)"
   r="78.09">
			<stop
   stop-color="#FFF"
   offset="0.1573"
   id="stop12" />
			<stop
   stop-color="#724548"
   offset="0.8989"
   id="stop14" />
		</radialGradient>
		<linearGradient
   id="linearGradient3022"
   y2="135.1"
   gradientUnits="userSpaceOnUse"
   x2="100.2"
   gradientTransform="matrix(1.0161512,0,0,1.0161512,9.5309621,17.601662)"
   y1="30.36"
   x1="94.41">
			<stop
   stop-color="#FFF"
   offset="0.2978"
   id="stop17" />
			<stop
   stop-color="#FFF"
   offset="0.5955"
   id="stop19" />
			<stop
   stop-color="#EEE7E5"
   offset="0.9045"
   id="stop21" />
		</linearGradient>
	</defs>
	<path
   d="m113.6,22.17c-26-0.0518-42.95,17.82-41.09,24.94,0.2452,0.9368,0.6895,1.631,1.25,2.156h-53.16c-4.152,0-7.531,3.296-7.531,6.094v54.19c0,2.196,0.5209,3.994,3.031,5.344v66.16c0,7.237,6.037,13.09,13.5,13.09h167.6c7.466,0,13.5-5.858,13.5-13.09v-66.97c3.14-1.73,3.031-4.507,3.031-7v-52.68c0-2.794-3.358-5.062-7.5-5.062h-53.62c5.679-4.502-12.7-27.04-39-27.09zm-1.906,7.625c0.7245-0.0167,1.465-0.0114,2.219,0,20.22,0.3059,29.13,8.622,32.28,13.88,0,0-0.8961,3.858,1,5.594h-66.72c1.097-1.549,0.2945-5.107,0.25-5.375,0,0,8.541-13.58,31-14.09z"
   fill-opacity="0.50196078"
   filter="url(#filter4110)"
   fill="#000"
   id="path23" />
	<path
   fill="#919090"
   d="m68.96,42.52c1.077,4.114,6.006,3.914,7.662,2.464,1.5-1.315,0.5619-5.38,0.5142-5.667,0,0,9.115-14.48,33.23-14.11,20.22,0.3059,29.12,8.621,32.27,13.88,0,0-1.789,7.706,4.957,6.265,9.556-2.044-9.49-27.68-37.54-27.74-26-0.053-42.96,17.8-41.1,24.92z"
   id="path25" />
	<path
   fill="#7c7c7c"
   d="m70.49,41.74c0.8464,2.43,3.984,2.778,4.979,1.736,1.228-1.29,0.2744-4.473,0.82-5.694,0,0,10.52-15.33,34.14-14.96,18.69,0.2896,32,11.06,33.49,15.84,0,0-0.9511,7.66,3.693,5.296,5.835-2.967-12.64-24.24-37.12-24.37-24.47-0.129-41.53,17.78-40,22.15z"
   id="path27" />
	<path
   fill="#8e8682"
   d="m207.2,176.4c0,7.236-6.053,13.1-13.52,13.1h-167.6c-7.463,0-13.52-5.865-13.52-13.1v-97.9c0-7.233,6.057-13.1,13.52-13.1h167.6c7.466,0,13.52,5.869,13.52,13.1v97.95z"
   id="path29" />
	<path
   fill="url(#linearGradient3022)"
   d="m204.5,174.7c0,6.979-5.888,12.64-13.15,12.64h-163c-7.266,0-13.15-5.659-13.15-12.64v-94.49c0-6.98,5.889-12.64,13.15-12.64h162.9c7.264,0,13.15,5.664,13.15,12.64v94.53z"
   id="path31" />
	<path
   fill="#c1c1c1"
   d="m201.4,171.6c0,6.646-5.692,12.04-12.72,12.04h-157.7c-7.025,0-12.72-5.398-12.72-12.04v-90.05c0-6.651,5.699-12.04,12.72-12.04h157.7c7.032,0,12.72,5.395,12.72,12.04v90.06z"
   id="path33" />
	<path
   opacity="0.43999999"
   d="m188.7,69.5h-33.28c-2.571,31.35,1.573,54.53-21.18,86.02-14.59,25.07-44.13,22.28-62.79,28.12h117.3c7.032,0,12.72-5.398,12.72-12.04v-90.05c0-6.651-5.692-12.04-12.72-12.04z"
   fill="#8e8682"
   id="path35" />
	<path
   fill="#5b5b5b"
   d="m205.9,110.1c4.459-1.631,4.314-4.794,4.314-7.589v-52.74c0-2.794-3.366-5.061-7.508-5.061h-185.6c-4.152,0-7.513,3.292-7.513,6.09v54.18c0,2.795,0.8271,4.971,5.552,6.359,0,0,33.74,5.976,96.94,5.976s93.84-7.217,93.84-7.217z"
   id="path37" />
	<path
   fill="#d8d8d8"
   d="m202.8,108.1c4.31-1.521,4.177-4.47,4.177-7.079v-49.15c0-2.606-3.261-4.722-7.273-4.722h-179.7c-4.016,0-7.273,3.072-7.273,5.68v50.54c0,2.61,0.7997,4.636,5.374,5.929,0,0,32.66,5.58,93.84,5.58s90.83-6.734,90.83-6.734z"
   id="path39" />
	<path
   opacity="0.6"
   d="m198.1,48.31h-41.03c-1.851,21.47-2.588,43.26-8.133,63.24,35.06-1.748,52.21-5.488,52.21-5.488,4.235-1.444,4.099-4.235,4.099-6.707v-46.58c0.00095-2.471-3.197-4.472-7.142-4.472z"
   fill="#5b5b5b"
   id="path41" />
	<path
   fill="#f0f0f0"
   d="M198.4,47.92h-174.8c-3.904,0-7.064,1.84-7.064,2.674v3.206c0-0.8353,3.16-1.514,7.064-1.514h174.7c3.902,0,7.07,0.6778,7.07,1.514v-3.214c-0.1036-1.566-3.168-2.665-7.07-2.665z"
   id="path43" />
	<path
   opacity="0.70999995"
   d="m16.3,94.01v-40.33h126.5s-107.3-1.086-126.5,40.33z"
   fill="url(#radialGradient3013)"
   id="path45" />
	<path
   opacity="0.70999995"
   d="m16.3,94.01v-40.33h126.5s-107.3-1.086-126.5,40.33z"
   fill="#a2a2a2"
   id="path47" />
	<path
   fill="#4f4f4f"
   d="m123.2,135.4c0,3.356-2.376,6.077-5.305,6.077h-13.93c-2.931,0-5.305-2.721-5.305-6.077v-27.6c0-3.355,2.375-6.076,5.305-6.076h13.93c2.93,0,5.305,2.721,5.305,6.076v27.6z"
   id="path49" />
	<path
   fill="#bcbcbc"
   d="m121.5,133.6c0,2.884-2.04,5.22-4.557,5.22h-11.96c-2.518,0-4.557-2.336-4.557-5.22v-23.71c0-2.883,2.039-5.22,4.557-5.22h11.96c2.518,0,4.557,2.337,4.557,5.22v23.71z"
   id="path51" />
	<rect
   height="4.821"
   width="24.54"
   y="125.4"
   x="98.63"
   fill="#4f4f4f"
   id="rect53" />
<g
   id="g3030"
   transform="matrix(0.76453054,0,0,0.95506016,60.841836,103.67283)"><path
     id="path3032"
     d="m 20.622047,48.862206 c 0,0 -2.196851,1.948819 -1.736221,3.295276 0,0 3.401575,-0.248031 3.862205,1.736221 0,0 -2.940945,3.614173 -2.976378,5.31496 0,0 -2.692913,4.925197 -2.728346,6.590552 0,0 -2.692914,2.976378 -1.984252,5.633858 0,0 1.913386,0.07087 1.629921,3.047245 0,0 -12.0118108,19.665355 -15.165354,17.362205 0,0 4.03937,4.110236 16.440945,-0.956693 10.594487,-3.295276 16.866141,-5.208662 27.602361,-7.299213 4.322835,-0.850394 14.562992,-2.515748 18.92126,-1.84252 0,0 30.224408,-0.389764 35.893702,12.401576 0,0 -0.28347,2.161417 0.0709,4.003937 0,0 0.4252,2.87008 5.17323,1.452756 0,0 1.98425,-0.354331 1.31103,-6.023623 -0.1063,-0.956693 9.60236,-4.641732 10.16929,-4.854331 8.1496,-3.259842 16.58267,-5.846456 25.12204,-6.307086 10.20473,-0.531496 19.38189,2.303149 29.23229,5.350394 8.50393,2.586614 17.0433,5.244094 25.65354,7.086614 1.70079,0.389764 5.49212,2.019685 7.22835,0.673228 0,0 -11.23229,-12.897638 -9.99213,-17.574803 0,0 0.49606,-0.318898 1.20472,0.389763 0,0 -7.05118,-17.858268 -6.05905,-20.870079 0,0 -1.66536,-3.366142 -1.13386,-5.350394 l -6.69685,-8.503937"
     style="fill:#b7b7b7;fill-opacity:1;fill-rule:nonzero;stroke:#0c0c0c;stroke-width:1.70078731px;stroke-linecap:butt;stroke-linejoin:miter;stroke-miterlimit:4;stroke-opacity:1;stroke-dasharray:none"
     inkscape:connector-curvature="0" /><path
     id="path3034"
     d="m 103.3937,33.590552 c 0,0 -3.15354,-20.799213 -18.637796,-22.783465 0,0 -30.933071,-3.3307088 -30.897638,-6.3425199 0,0 -35.078739,40.6771669 -35.114172,43.3346469 0,0 4.322835,2.444882 8.185039,2.515748 0,0 41.350393,4.216536 45.212598,7.653544 0,0 24.094487,9.531496 31.322829,33.377954 0,0 10.27559,-31.145671 45.70866,-39.082679 0,0 36.17717,-10.240158 38.83465,-9.177165 0,0 -0.2126,-2.692914 -4.03937,-6.094489 0,0 -32.81102,-32.7755914 -32.77559,-36.1063002 0,0 -13.03937,3.1181103 -29.37402,8.362205 0,0 -15.09448,7.0511812 -18.42519,24.3425202 z"
     style="fill:#eaeaea;fill-opacity:1;fill-rule:nonzero;stroke:#0c0c0c;stroke-width:1.70078731px;stroke-linecap:butt;stroke-linejoin:miter;stroke-miterlimit:4;stroke-opacity:1;stroke-dasharray:none"
     inkscape:connector-curvature="0" /><path
     id="path3036"
     d="m 103.5,90.566932 -0.1063,-56.97638"
     style="fill:#adadad;fill-opacity:1;fill-rule:nonzero;stroke:#0c0c0c;stroke-width:1.70078731px;stroke-linecap:butt;stroke-linejoin:miter;stroke-miterlimit:4;stroke-opacity:1;stroke-dasharray:none"
     inkscape:connector-curvature="0" /><path
     id="path3038"
     d="m 22.748031,53.85827 c 0,0 71.362203,3.933071 80.433069,37.700788"
     style="fill:none;stroke:#0c0c0c;stroke-width:1.70078731px;stroke-linecap:butt;stroke-linejoin:miter;stroke-miterlimit:4;stroke-opacity:1;stroke-dasharray:none"
     inkscape:connector-curvature="0" /><path
     id="path3040"
     d="M 103.3937,91.34646 C 86.137793,58.748034 19.771653,59.17323 19.771653,59.17323"
     style="fill:none;stroke:#0c0c0c;stroke-width:1.70078731px;stroke-linecap:butt;stroke-linejoin:miter;stroke-miterlimit:4;stroke-opacity:1;stroke-dasharray:none"
     inkscape:connector-curvature="0" /><path
     id="path3042"
     d="m 17.043307,65.763782 c 0,0 74.161415,-3.188977 86.066923,26.114174"
     style="fill:none;stroke:#0c0c0c;stroke-width:1.70078731px;stroke-linecap:butt;stroke-linejoin:miter;stroke-miterlimit:4;stroke-opacity:1;stroke-dasharray:none"
     inkscape:connector-curvature="0" /><path
     id="path3044"
     d="M 16.724409,74.444884 C 92.834644,66.295278 105.34252,96.200791 103.25197,92.338586"
     style="fill:none;stroke:#0c0c0c;stroke-width:1.70078731px;stroke-linecap:butt;stroke-linejoin:miter;stroke-miterlimit:4;stroke-opacity:1;stroke-dasharray:none"
     inkscape:connector-curvature="0" /><path
     id="path3046"
     d="m 188.39763,52.157482 c 0,0 -63.63779,-2.19685 -84.57873,38.763781"
     style="fill:none;stroke:#0c0c0c;stroke-width:1.70078731px;stroke-linecap:butt;stroke-linejoin:miter;stroke-miterlimit:4;stroke-opacity:1;stroke-dasharray:none"
     inkscape:connector-curvature="0" /><path
     id="path3048"
     d="M 104.38582,90.744098 C 124.72441,58.464569 189.49606,57.507876 189.49606,57.507876"
     style="fill:none;stroke:#0c0c0c;stroke-width:1.70078731px;stroke-linecap:butt;stroke-linejoin:miter;stroke-miterlimit:4;stroke-opacity:1;stroke-dasharray:none"
     inkscape:connector-curvature="0" /><path
     id="path3050"
     d="m 194.38582,77.952759 c 0,0 -58.88976,-24.519686 -91.09842,14.42126"
     style="fill:none;stroke:#0c0c0c;stroke-width:1.70078731px;stroke-linecap:butt;stroke-linejoin:miter;stroke-miterlimit:4;stroke-opacity:1;stroke-dasharray:none"
     inkscape:connector-curvature="0" /><path
     id="path3052"
     d="m 204.59055,95.066932 c 0.17716,-0.177165 -0.81496,1.275591 -7.79528,-0.212598 -8.61023,-1.877953 -17.1496,-4.5 -25.65354,-7.122048 -9.81496,-3.011811 -19.02756,-5.881889 -29.23228,-5.350393 -8.50394,0.46063 -16.93701,3.082677 -25.12205,6.342519 -0.5315,0.212599 -10.24016,3.897638 -10.13386,4.818898 0.67323,5.704725 -1.31102,6.059056 -1.31102,6.059056 -4.74803,1.381894 -5.20866,-1.452756 -5.20866,-1.452756 -0.318902,-1.84252 -0.0709,-4.003937 -0.0709,-4.003937 C 94.393699,81.3189 64.16929,81.744097 64.16929,81.744097 59.811022,81.035436 49.570865,82.70079 45.283464,83.551184 34.51181,85.677168 28.27559,87.555121 17.681102,90.850397 5.2795274,95.952759 1.7362204,93.366145 1.7362204,93.366145 c 0,0 -0.1771653,-1.062992 1.5590551,-0.956693"
     style="fill:none;stroke:#513a20;stroke-width:3.4370079px;stroke-linecap:butt;stroke-linejoin:miter;stroke-miterlimit:4;stroke-opacity:1;stroke-dasharray:none"
     inkscape:connector-curvature="0" /><path
     id="path3054"
     d="M 52.688975,9.1417326 78.803148,14.208662 74.834644,23.917324 45.35433,18.425197 z"
     style="fill:#d59f0f;fill-opacity:1;fill-rule:evenodd;stroke:#000000;stroke-width:1.16929126px;stroke-linecap:butt;stroke-linejoin:miter;stroke-miterlimit:4;stroke-opacity:1;stroke-dasharray:none"
     inkscape:connector-curvature="0" /><path
     id="path3056"
     d="m 44.362204,20.30315 30.01181,5.492126 -3.968504,9.673229 -33.377952,-5.88189 z"
     style="fill:#820024;fill-opacity:1;fill-rule:evenodd;stroke:#000000;stroke-width:1.16929126px;stroke-linecap:butt;stroke-linejoin:miter;stroke-miterlimit:4;stroke-opacity:1;stroke-dasharray:none"
     inkscape:connector-curvature="0" /><path
     id="path3058"
     d="m 35.185039,32.562993 34.547243,5.88189 -3.968504,9.673229 -37.913385,-6.307087 z"
     style="fill:#5191cd;fill-opacity:1;fill-rule:evenodd;stroke:#000000;stroke-width:1.16929126px;stroke-linecap:butt;stroke-linejoin:miter;stroke-miterlimit:4;stroke-opacity:1;stroke-dasharray:none"
     inkscape:connector-curvature="0" /><path
     id="path3060"
     d="m 81.212597,15.413386 c 7.051181,1.700788 13.570865,5.811024 18.956693,14.952757"
     style="fill:none;stroke:#000000;stroke-width:1.16929126px;stroke-linecap:butt;stroke-linejoin:miter;stroke-miterlimit:4;stroke-opacity:1;stroke-dasharray:none"
     inkscape:connector-curvature="0" /><path
     id="path3062"
     d="m 80.610234,19.133859 c 5.775591,1.062992 11.728347,3.791339 18.354331,14.137796"
     style="fill:none;stroke:#000000;stroke-width:1.16929126px;stroke-linecap:butt;stroke-linejoin:miter;stroke-miterlimit:4;stroke-opacity:1;stroke-dasharray:none"
     inkscape:connector-curvature="0" /><path
     id="path3064"
     d="m 79.830707,23.52756 c 6.874015,0.496063 12.188976,5.137795 17.326771,13.074803"
     style="fill:none;stroke:#000000;stroke-width:1.16929126px;stroke-linecap:butt;stroke-linejoin:miter;stroke-miterlimit:4;stroke-opacity:1;stroke-dasharray:none"
     inkscape:connector-curvature="0" /><path
     id="path3066"
     d="m 77.598423,32.031497 c 2.090552,0.566929 4.996063,1.169292 8.18504,3.826772"
     style="fill:none;stroke:#000000;stroke-width:1.16929126px;stroke-linecap:butt;stroke-linejoin:miter;stroke-miterlimit:4;stroke-opacity:1;stroke-dasharray:none"
     inkscape:connector-curvature="0" /><path
     id="path3068"
     d="m 76.677164,34.511812 c 6.448818,1.311024 11.870078,6.059056 17.185039,11.232284"
     style="fill:none;stroke:#000000;stroke-width:1.16929126px;stroke-linecap:butt;stroke-linejoin:miter;stroke-miterlimit:4;stroke-opacity:1;stroke-dasharray:none"
     inkscape:connector-curvature="0" /><path
     id="path3070"
     d="m 73.381888,41.17323 c 2.834646,-0.03543 5.704724,0.92126 8.574803,2.480315"
     style="fill:none;stroke:#000000;stroke-width:1.16929126px;stroke-linecap:butt;stroke-linejoin:miter;stroke-miterlimit:4;stroke-opacity:1;stroke-dasharray:none"
     inkscape:connector-curvature="0" /><path
     id="path3072"
     d="m 72.779526,44.362206 c 7.299212,0.885827 17.043307,6.129922 25.263779,17.078741"
     style="fill:none;stroke:#000000;stroke-width:1.16929126px;stroke-linecap:butt;stroke-linejoin:miter;stroke-miterlimit:4;stroke-opacity:1;stroke-dasharray:none"
     inkscape:connector-curvature="0" /><path
     id="path3074"
     d="m 71.574802,47.87008 c 10.27559,2.055119 18.850393,9.000001 25.866141,17.397639"
     style="fill:none;stroke:#000000;stroke-width:1.16929126px;stroke-linecap:butt;stroke-linejoin:miter;stroke-miterlimit:4;stroke-opacity:1;stroke-dasharray:none"
     inkscape:connector-curvature="0" /><path
     id="path3076"
     d="m 126.17716,16.618111 c -7.05118,1.700787 -13.6063,5.846457 -18.95669,14.952756"
     style="fill:none;stroke:#000000;stroke-width:1.16929126px;stroke-linecap:butt;stroke-linejoin:miter;stroke-miterlimit:4;stroke-opacity:1;stroke-dasharray:none"
     inkscape:connector-curvature="0" /><path
     id="path3078"
     d="m 126.77952,20.374016 c -5.77559,1.062993 -11.72834,3.755906 -18.35433,14.137796"
     style="fill:none;stroke:#000000;stroke-width:1.16929126px;stroke-linecap:butt;stroke-linejoin:miter;stroke-miterlimit:4;stroke-opacity:1;stroke-dasharray:none"
     inkscape:connector-curvature="0" /><path
     id="path3080"
     d="m 129.79134,33.236222 c -2.12599,0.602362 -5.0315,1.169291 -8.18504,3.862204"
     style="fill:none;stroke:#000000;stroke-width:1.16929126px;stroke-linecap:butt;stroke-linejoin:miter;stroke-miterlimit:4;stroke-opacity:1;stroke-dasharray:none"
     inkscape:connector-curvature="0" /><path
     id="path3082"
     d="m 130.67716,35.75197 c -6.41338,1.27559 -11.83464,6.059055 -17.1496,11.232284"
     style="fill:none;stroke:#000000;stroke-width:1.16929126px;stroke-linecap:butt;stroke-linejoin:miter;stroke-miterlimit:4;stroke-opacity:1;stroke-dasharray:none"
     inkscape:connector-curvature="0" /><path
     id="path3084"
     d="m 133.97244,42.342521 c -2.83465,0 -5.70473,0.956693 -8.57481,2.515748"
     style="fill:none;stroke:#000000;stroke-width:1.16929126px;stroke-linecap:butt;stroke-linejoin:miter;stroke-miterlimit:4;stroke-opacity:1;stroke-dasharray:none"
     inkscape:connector-curvature="0" /><path
     id="path3086"
     d="m 134.5748,45.566931 c -7.26378,0.885826 -17.04331,6.129921 -25.26378,17.043307"
     style="fill:none;stroke:#000000;stroke-width:1.16929126px;stroke-linecap:butt;stroke-linejoin:miter;stroke-miterlimit:4;stroke-opacity:1;stroke-dasharray:none"
     inkscape:connector-curvature="0" /><path
     id="path3088"
     d="m 135.77952,49.074805 c -10.31102,2.019685 -18.85039,9 -25.90157,17.397638"
     style="fill:none;stroke:#000000;stroke-width:1.16929126px;stroke-linecap:butt;stroke-linejoin:miter;stroke-miterlimit:4;stroke-opacity:1;stroke-dasharray:none"
     inkscape:connector-curvature="0" /><path
     id="path3090"
     d="m 151.37008,6.6614176 -24.37796,5.9527564 3.96851,9.708661 28.20472,-6.661417 z"
     style="fill:#ee3424;fill-opacity:1;fill-rule:evenodd;stroke:#000000;stroke-width:1.16929126px;stroke-linecap:butt;stroke-linejoin:miter;stroke-miterlimit:4;stroke-opacity:1;stroke-dasharray:none"
     inkscape:connector-curvature="0" /><path
     id="path3092"
     d="m 160.58267,19.02756 -28.73622,6.944882 3.96851,9.673229 32.95275,-7.653544 z"
     style="fill:#e96d1f;fill-opacity:1;fill-rule:evenodd;stroke:#000000;stroke-width:1.16929126px;stroke-linecap:butt;stroke-linejoin:miter;stroke-miterlimit:4;stroke-opacity:1;stroke-dasharray:none"
     inkscape:connector-curvature="0" /><path
     id="path3094"
     d="m 170.7874,30.968505 -33.90945,8.220473 4.00394,9.708661 38.94094,-9.248031 z"
     style="fill:#96c93c;fill-opacity:1;fill-rule:evenodd;stroke:#000000;stroke-width:1.16929126px;stroke-linecap:butt;stroke-linejoin:miter;stroke-miterlimit:4;stroke-opacity:1;stroke-dasharray:none"
     inkscape:connector-curvature="0" /></g></svg>