<?xml version="1.0"?>
<?metis version="3.1"?>
<?metisxml version="1.0"?>
<!DOCTYPE svg  PUBLIC "-//W3C//DTD SVG August 1999//EN"
 "http://www.w3.org/Graphics/SVG/svg-19990812.dtd">

<svg width="200" height="200">
 <title>Symbol library: it_constraint.svg</title>
 <defs>
  <symbol id="oid1" xml:space="preserve" class="METIS_SYMBOL">
   <title>Constraint</title>
    <g>
      <polygon points="0 0 0 303.158 20.4651 319.737 
       880 319.737 880 21.3158 863.704 0 0 0 
       0 0 0 0 0 0 0 0 "
       style=" stroke:#000000; stroke-width:1; fill:#9b9b9b; fill-opacity:100%"       class="TAG:shadow"></polygon>
      <polyline points="864 304 880 320.842"
       style=" stroke:#000000; stroke-width:1;"></polyline>
      <rect x="0" y="0" width="240" height="303.158"
       style=" stroke:#000000; stroke-width:1; fill:#ffffff; fill-opacity:100%"       class="TAG:PictureBackground"></rect>
      <rect x="240" y="0" width="624" height="303.158"
       style=" stroke:#000000; stroke-width:1; fill:#ffffa5; fill-opacity:100%"       class="TAG:canvas"></rect>
      <g>
	<desc>METIS_TEXT_GROUP</desc>
	<text  x="256" y="15.8"
	 style=" stroke:#000000; stroke-width:1; font-family:sans-serif; font-size:16;"
	 class="TAG:text">text</text>
	<rect x="256" y="0" width="608" height="302.224"
	 style=" stroke:#000000; stroke-width:1; fill:#ffffff; fill-opacity:0%"></rect>
      </g>
      <g>
	<polygon points="68.5715 124.355 77.1428 155.301 68.5715 186.247 
	 68.5715 186.247 102.857 186.247 94.2857 155.301 102.857 124.355 
	 68.5715 124.355 68.5715 124.355 68.5715 124.355 68.5715 124.355 
	 68.5715 124.355 68.5715 124.355 68.5715 124.355 "
	 style=" stroke:#000000; stroke-width:1; fill:#dc0000; fill-opacity:100%"></polygon>
	<polygon points="188.572 124.355 188.572 144.985 162.857 144.985 
	 154.285 165.617 162.857 186.247 137.143 186.247 128.572 186.247 
	 137.143 165.617 128.572 144.985 102.857 144.985 102.857 124.355 
	 145.715 124.355 188.572 124.355 188.572 124.355 188.572 124.355 
	 188.572 124.355 188.572 124.355 188.572 124.355 188.572 124.355 "
	 style=" stroke:#000000; stroke-width:1; fill:#dc0000; fill-opacity:100%"></polygon>
	<polygon points="51.4285 124.355 205.715 124.355 240 62.4604 
	 0 62.4604 0 62.4604 51.4285 124.355 51.4285 124.355 
	 51.4285 124.355 51.4285 124.355 51.4285 124.355 51.4285 124.355 51.4285 124.355 "
	 style=" stroke:#000000; stroke-width:1; fill:#696969; fill-opacity:100%"></polygon>
	<polygon points="0 248.141 240 248.141 205.715 186.247 
	 51.4285 186.247 0 248.141 0 248.141 0 248.141 
	 0 248.141 0 248.141 0 248.141 0 248.141 "
	 style=" stroke:#000000; stroke-width:1; fill:#696969; fill-opacity:100%"></polygon>
      </g>
    </g>
  </symbol>
 </defs>
</svg>
