<?xml version="1.0"?>
<?metis version="3.1"?>
<?metisxml version="1.0"?>
<!DOCTYPE svg  PUBLIC "-//W3C//DTD SVG August 1999//EN"
 "http://www.w3.org/Graphics/SVG/svg-19990812.dtd">

<svg width="200" height="200">
 <title>Symbol library: it_implicate.svg</title>
 <defs>
  <symbol id="oid1" xml:space="preserve" class="METIS_SYMBOL">
   <title>IT Implication</title>
    <g>
      <polygon points="0 0 0 304 16 320 
       880 320 880 16 864 0 0 0 
       0 0 0 0 0 0 0 0 "
       style=" stroke:#000000; stroke-width:1; fill:#9b9b9b; fill-opacity:100%"       class="TAG:shadow"></polygon>
      <rect x="240" y="0" width="624" height="304"
       style=" stroke:#000000; stroke-width:1; fill:#ffb4b4; fill-opacity:100%"       class="TAG:canvas"></rect>
      <g>
	<desc>METIS_TEXT_GROUP</desc>
	<text  x="256" y="15.8"
	 style=" stroke:#000000; stroke-width:1; font-family:sans-serif; font-size:16;"
	 class="TAG:text">text</text>
	<rect x="256" y="0" width="608" height="304"
	 style=" stroke:#000000; stroke-width:1; fill:#ffffff; fill-opacity:0%"></rect>
      </g>
      <polyline points="864 304 880 320"
       style=" stroke:#000000; stroke-width:1;"></polyline>
      <g>
	<rect x="0" y="0" width="239.674" height="304"
	 style=" stroke:#000000; stroke-width:1; fill:#ffff6e; fill-opacity:100%"	 class="TAG:PictureBackground"></rect>
	<g>
	  <polygon points="105.255 270.623 124.26 258.068 124.665 257.137 
	   125.473 257.137 125.878 256.673 126.686 256.208 127.495 256.208 
	   127.899 256.208 128.708 256.208 129.517 256.208 129.922 256.673 
	   130.73 257.137 131.135 257.137 131.943 257.603 132.348 258.533 
	   132.752 258.997 132.752 259.928 133.156 261.323 133.156 263.183 
	   133.156 264.578 133.156 265.972 133.156 267.368 132.752 268.763 
	   132.348 269.693 132.348 270.623 131.943 272.018 131.135 272.948 
	   130.73 273.878 130.326 274.808 129.517 275.272 128.708 276.203 
	   127.899 276.668 127.091 277.598 126.282 278.063 125.473 278.528 
	   124.26 278.993 123.452 279.458 122.643 279.923 121.43 280.388 
	   120.621 280.388 119.408 280.853 118.599 280.853 117.386 280.853 
	   116.577 281.318 115.364 281.318 114.555 281.318 113.343 281.318 
	   112.129 281.318 111.321 281.318 109.703 281.318 108.489 281.318 
	   107.681 280.853 106.872 280.388 106.063 279.923 105.659 278.993 
	   105.255 278.528 104.85 277.598 104.85 276.668 104.85 276.203 
	   104.85 274.808 104.85 273.878 104.85 272.948 105.255 272.483 
	   105.255 271.553 105.255 270.623 105.255 270.623 105.255 270.623 
	   105.255 270.623 105.255 270.623 105.255 270.623 105.255 270.623 "
	   style=" stroke:#ababab; stroke-width:1; fill:#000000; fill-opacity:100%"></polygon>
	  <polygon points="96.1406 264.425 95.7272 265.368 95.3128 266.782 
	   94.8984 267.724 94.8984 269.139 94.485 270.552 94.485 271.495 
	   94.485 272.438 94.8984 273.851 95.3128 274.794 95.7272 275.736 
	   96.555 276.679 97.3828 277.15 98.2116 277.622 99.4537 278.564 
	   100.695 278.564 101.937 279.035 103.179 279.035 104.007 278.564 
	   104.835 278.092 105.249 277.15 105.249 266.782 96.1406 264.425 
	   96.1406 264.425 96.1406 264.425 96.1406 264.425 96.1406 264.425 
	   96.1406 264.425 96.1406 264.425 "
	   style=" stroke:#ababab; stroke-width:1; fill:#000000; fill-opacity:100%"></polygon>
	  <polygon points="26.3123 240.228 220.066 240.228 220.066 64 
	   26.3123 64 26.3123 240.228 26.3123 240.228 26.3123 240.228 
	   26.3123 240.228 26.3123 240.228 26.3123 240.228 26.3123 240.228 "
	   style=" stroke:#000000; stroke-width:1; fill:#ababab; fill-opacity:100%"></polygon>
	  <polygon points="33.887 232.923 214.087 232.923 214.087 72.2179 
	   33.887 72.2179 33.887 232.923 33.887 232.923 33.887 232.923 
	   33.887 232.923 33.887 232.923 33.887 232.923 33.887 232.923 "
	   style=" stroke:#000000; stroke-width:1; fill:#32cc32; fill-opacity:100%"></polygon>
	  <polygon points="4.79201 240.228 235.208 240.228 240 246.62 
	   0 246.62 4.79201 240.228 4.79201 240.228 4.79201 240.228 
	   4.79201 240.228 4.79201 240.228 4.79201 240.228 4.79201 240.228 "
	   style=" stroke:#000000; stroke-width:1; fill:#ababab; fill-opacity:100%"></polygon>
	  <polygon points="0 248.903 240 248.903 240 246.164 
	   0 246.164 0 248.903 0 248.903 0 248.903 
	   0 248.903 0 248.903 0 248.903 0 248.903 "
	   style=" stroke:#000000; stroke-width:1; fill:#ababab; fill-opacity:100%"></polygon>
	  <polygon points="4.78404 240.228 235.216 240.228 235.216 242.054 
	   4.78404 242.054 4.78404 240.228 4.78404 240.228 4.78404 240.228 
	   4.78404 240.228 4.78404 240.228 4.78404 240.228 4.78404 240.228 4.78404 240.228 "
	   style=" stroke:#000000; stroke-width:1; fill:#000000; fill-opacity:100%"></polygon>
	  <polyline points="5.18273 241.598 1.19601 246.62"
	   style=" stroke:#000000; stroke-width:1;"></polyline>
	  <polyline points="234.818 241.598 238.804 246.62"
	   style=" stroke:#000000; stroke-width:1;"></polyline>
	  <polygon points="111.229 176.768 118.007 176.768 117.583 176.261 
	   117.583 175.246 116.736 174.232 116.736 173.724 115.889 173.217 
	   115.042 172.203 114.194 172.203 113.77 172.203 113.348 172.709 
	   112.924 173.217 112.076 174.232 111.653 175.246 111.229 175.754 
	   111.229 176.768 111.229 176.768 111.229 176.768 111.229 176.768 
	   111.229 176.768 111.229 176.768 111.229 176.768 111.229 176.768 "
	   style=" stroke:#000000; stroke-width:1; fill:#ffc285; fill-opacity:100%"></polygon>
	  <polyline points="26.3123 64 34.2856 72.6744"
	   style=" stroke:#000000; stroke-width:1;"></polyline>
	  <polyline points="213.688 72.6744 220.067 64"
	   style=" stroke:#000000; stroke-width:1;"></polyline>
	  <polygon points="105.273 267.165 122.759 267.165 123.572 267.165 
	   123.979 267.165 124.386 268.143 124.386 268.633 124.386 269.611 
	   124.386 270.1 123.979 271.078 122.352 271.568 121.133 272.546 
	   119.913 272.546 118.692 273.035 117.473 273.524 116.253 274.013 
	   115.439 274.013 114.219 274.013 112.999 274.013 111.779 274.013 
	   110.559 273.524 109.34 273.035 108.12 272.546 106.899 272.056 
	   105.68 271.078 104.46 270.1 104.053 269.611 104.053 268.633 
	   104.46 268.143 104.866 267.654 105.273 267.165 105.273 267.165 
	   105.273 267.165 105.273 267.165 105.273 267.165 105.273 267.165 
	   105.273 267.165 105.273 267.165 "
	   style=" stroke:#000000; stroke-width:1; fill:#ff00ff; fill-opacity:100%"></polygon>
	  <polygon points="96.5522 261.23 96.1388 261.23 95.7253 261.23 
	   94.8984 261.709 94.485 262.189 94.485 263.147 94.485 264.585 
	   95.3119 265.544 95.7253 266.503 96.1388 267.462 96.9656 267.941 
	   97.7925 268.9 98.2059 269.379 99.0328 269.859 99.8597 270.338 
	   100.687 270.817 101.513 270.817 102.34 270.817 103.167 270.817 
	   103.994 270.817 104.821 270.817 105.648 270.817 105.648 267.462 
	   96.5522 261.23 96.5522 261.23 96.5522 261.23 96.5522 261.23 
	   96.5522 261.23 96.5522 261.23 96.5522 261.23 "
	   style=" stroke:#000000; stroke-width:1; fill:#ff00ff; fill-opacity:100%"></polygon>
	  <polygon points="94.8834 226.989 98.4712 226.989 98.0231 248.903 
	   97.575 247.504 97.1269 246.572 96.6778 245.173 96.2288 243.774 
	   95.7806 242.375 95.3316 240.976 95.3316 239.578 95.3316 238.645 
	   94.8834 236.78 94.8834 235.381 94.8834 233.983 94.8834 232.584 
	   94.8834 231.185 94.8834 229.786 94.8834 228.387 94.8834 226.989 
	   94.8834 226.989 94.8834 226.989 94.8834 226.989 94.8834 226.989 
	   94.8834 226.989 94.8834 226.989 "
	   style=" stroke:#000000; stroke-width:1; fill:#ffc285; fill-opacity:100%"></polygon>
	  <polyline points="26.3123 240.228 34.2856 232.467"
	   style=" stroke:#000000; stroke-width:1;"></polyline>
	  <polyline points="213.688 232.467 220.067 240.228"
	   style=" stroke:#000000; stroke-width:1;"></polyline>
	  <polygon points="136.106 202.792 136.957 203.262 137.382 203.262 
	   138.232 204.205 138.658 204.677 138.658 205.619 139.083 205.619 
	   139.508 206.561 139.508 207.033 139.508 207.504 139.933 208.447 
	   139.933 208.918 139.933 209.861 139.933 210.332 139.933 211.274 
	   139.933 211.745 139.933 212.688 139.933 213.16 139.933 214.102 
	   139.508 214.573 139.508 215.045 139.083 215.987 138.658 216.458 
	   137.807 217.401 137.382 217.401 136.957 217.401 136.532 216.929 
	   135.681 216.458 135.256 215.516 134.83 214.573 134.406 214.102 
	   134.406 213.16 133.98 212.688 133.98 211.745 133.98 211.274 
	   133.98 210.332 133.98 210.332 133.554 208.918 133.554 208.447 
	   133.98 207.504 133.98 207.033 133.98 206.561 133.98 205.619 
	   134.406 205.147 134.83 204.205 135.256 203.734 135.681 203.262 
	   136.106 202.792 136.106 202.792 136.106 202.792 136.106 202.792 
	   136.106 202.792 136.106 202.792 136.106 202.792 "
	   style=" stroke:#000000; stroke-width:1; fill:#000000; fill-opacity:100%"></polygon>
	  <polygon points="104.85 178.187 104.442 177.258 104.034 177.258 
	   103.219 176.328 102.811 176.328 101.995 176.328 101.588 175.863 
	   101.18 175.863 100.363 175.398 99.9553 175.398 99.1388 175.398 
	   98.7309 175.398 97.9153 175.398 97.5075 175.398 96.6919 175.398 
	   95.8762 175.398 95.4675 175.398 94.6519 175.863 93.8353 176.328 
	   93.4279 176.328 92.6123 176.793 92.2044 177.258 91.3882 178.187 
	   90.9804 178.653 90.5726 179.582 90.1643 180.512 89.7569 181.441 
	   89.3485 182.371 88.9407 182.836 88.9407 183.301 88.1251 184.696 
	   88.1251 186.09 87.7167 187.02 87.7167 188.414 87.3089 189.343 
	   87.3089 190.274 87.7167 191.203 87.7167 192.133 87.7167 192.598 
	   88.1251 193.528 88.1251 194.457 88.5324 194.922 88.9407 195.387 
	   89.3485 195.852 89.7569 196.781 90.1643 197.247 90.5726 197.711 
	   91.3882 197.711 91.7961 198.176 92.2044 198.64 92.6123 198.64 
	   93.4279 199.106 93.8353 199.571 94.2441 199.571 94.6519 200.035 
	   95.4675 200.035 95.8762 200.035 96.6919 200.5 97.0997 200.965 
	   104.85 178.187 104.85 178.187 104.85 178.187 104.85 178.187 
	   104.85 178.187 104.85 178.187 104.85 178.187 "
	   style=" stroke:#000000; stroke-width:1; fill:#ff0088; fill-opacity:100%"></polygon>
	  <polygon points="97.3022 233.381 125.182 233.381 124.778 234.767 
	   124.778 236.616 124.778 238.466 124.778 240.315 124.778 242.165 
	   124.778 244.476 124.778 246.325 124.778 248.175 124.778 250.024 
	   124.778 251.412 124.374 253.261 123.97 254.647 123.566 256.034 
	   123.162 257.421 122.354 258.346 121.546 259.271 121.95 259.733 
	   122.354 260.196 123.162 261.12 123.162 261.583 123.162 262.507 
	   123.162 262.97 123.162 263.432 123.162 264.356 123.162 264.818 
	   123.162 265.281 123.162 265.743 123.162 266.668 122.758 267.593 
	   121.95 268.517 121.142 268.517 119.93 268.98 118.718 269.442 
	   117.505 269.442 116.293 269.442 115.081 269.905 113.465 269.905 
	   112.253 269.442 110.636 269.442 109.424 268.98 107.808 268.517 
	   107.405 268.517 107 268.517 106.596 268.055 106.192 268.055 
	   105.788 267.593 104.979 268.055 104.172 268.517 103.363 268.517 
	   102.556 268.517 101.747 268.055 100.94 268.055 100.131 267.593 
	   99.7266 267.131 98.9184 266.206 98.5144 265.743 97.7072 264.818 
	   97.3022 264.356 96.8981 263.432 96.8981 262.507 96.495 262.045 
	   96.495 261.12 96.495 251.874 96.0909 250.487 95.6859 249.562 
	   95.2819 248.175 95.2819 246.788 95.2819 244.938 95.2819 243.552 
	   95.2819 242.165 95.6859 240.777 95.6859 239.39 96.0909 238.003 
	   96.0909 236.616 96.495 235.692 96.8981 234.767 96.8981 233.843 
	   97.3022 233.381 97.3022 233.381 97.3022 233.381 97.3022 233.381 
	   97.3022 233.381 97.3022 233.381 97.3022 233.381 97.3022 233.381 "
	   style=" stroke:#000000; stroke-width:1; fill:#ff00ff; fill-opacity:100%"></polygon>
	  <polygon points="99.3169 206.028 123.859 206.49 124.663 207.414 
	   126.273 207.876 127.479 207.876 129.089 207.876 130.296 206.952 
	   132.307 206.028 133.917 204.641 136.331 202.792 135.526 203.716 
	   134.722 205.103 134.319 206.49 134.319 207.414 133.917 208.8 
	   134.319 209.725 134.319 211.112 134.319 212.498 134.722 213.423 
	   135.124 214.348 135.928 215.734 136.733 216.659 137.94 217.121 
	   136.331 218.508 135.526 218.971 133.917 220.357 132.307 220.82 
	   130.699 221.282 129.491 221.282 127.882 221.744 127.077 221.744 
	   126.273 222.669 125.871 223.593 125.871 224.98 125.871 226.828 
	   125.871 228.677 125.871 229.602 125.871 230.989 125.468 231.914 
	   125.065 232.838 124.663 234.225 123.859 234.687 123.054 235.149 
	   122.249 235.612 121.042 236.074 120.238 236.536 119.433 236.999 
	   118.628 237.461 117.019 238.385 116.214 238.385 115.41 238.848 
	   114.605 239.31 113.398 239.31 111.789 239.31 110.18 239.772 
	   108.57 239.772 106.961 239.31 105.352 238.848 103.34 238.385 
	   101.731 237.461 100.121 236.074 98.9137 234.687 96.9028 228.215 
	   94.0866 228.215 94.4887 214.348 94.8909 212.961 94.8909 211.574 
	   95.2931 210.187 95.6953 209.263 96.5006 208.338 97.7072 206.952 
	   98.5116 206.028 99.3169 206.028 99.3169 206.028 99.3169 206.028 
	   99.3169 206.028 99.3169 206.028 99.3169 206.028 99.3169 206.028 "
	   style=" stroke:#000000; stroke-width:1; fill:#ababab; fill-opacity:100%"></polygon>
	  <polygon points="113.023 174.485 114.233 174.485 115.04 174.947 
	   116.652 174.947 118.265 175.41 119.877 176.334 121.491 176.796 
	   123.103 177.72 124.313 179.107 125.522 180.031 126.732 181.417 
	   127.538 182.803 128.748 184.652 129.554 186.038 129.957 187.886 
	   130.36 189.735 130.763 191.583 130.763 193.432 130.763 194.356 
	   130.763 195.28 130.36 197.128 129.957 198.977 129.554 200.826 
	   128.748 202.212 127.538 204.061 126.732 205.447 125.522 206.834 
	   124.313 207.758 123.103 209.144 121.491 210.068 119.877 210.531 
	   118.265 211.455 116.652 211.917 115.04 211.917 113.023 212.379 
	   112.217 212.379 111.411 211.917 109.394 211.917 107.782 211.455 
	   106.169 210.531 104.556 210.068 103.346 209.144 101.734 207.758 
	   100.524 206.834 99.315 205.447 98.5078 204.061 97.7016 202.212 
	   96.8953 200.826 96.0891 198.977 95.6859 197.128 95.6859 195.28 
	   95.2819 193.432 95.2819 192.507 95.6859 191.583 95.6859 189.735 
	   96.0891 187.886 96.8953 186.038 97.7016 184.652 98.5078 182.803 
	   99.315 181.417 100.524 180.031 101.734 179.107 103.346 177.72 
	   104.556 176.796 106.169 176.334 107.782 175.41 109.394 174.947 
	   111.411 174.947 113.023 174.485 113.023 174.485 113.023 174.485 
	   113.023 174.485 113.023 174.485 113.023 174.485 113.023 174.485 "
	   style=" stroke:#000000; stroke-width:1; fill:#ff0088; fill-opacity:100%"></polygon>
	  <polyline points="110.83 191.834 109.594 191.264 107.944 190.122 
	   106.706 190.122 105.056 189.551 103.407 189.551 101.757 190.122 
	   100.52 190.122 98.8706 190.693"
	   style=" stroke:#000000; stroke-width:1;"></polyline>
	  <polyline points="111.628 193.204 110.788 193.678 109.949 194.151 
	   109.53 195.097 108.691 195.571 107.851 196.518 107.431 196.992 
	   106.592 197.938 106.173 198.885 105.753 199.359 105.333 200.306 
	   104.914 201.252 104.494 202.199 104.074 203.147 104.074 204.093 
	   103.655 205.04 103.655 205.987"
	   style=" stroke:#000000; stroke-width:1;"></polyline>
	  <polyline points="112.425 193.66 113.337 194.601 113.792 195.542 
	   114.248 196.483 114.248 197.423 114.704 198.364 115.16 199.305 
	   115.16 200.245 115.16 201.187 115.614 202.127 115.614 203.068 
	   115.614 204.009 115.614 204.949 115.614 205.891 115.614 207.302 
	   115.614 208.242 115.614 209.183"
	   style=" stroke:#000000; stroke-width:1;"></polyline>
	  <polyline points="113.223 190.465 114.12 189.04 114.568 187.616 
	   115.464 186.191 115.913 184.767 115.913 182.867 116.362 181.443 
	   116.362 180.018 116.811 178.594"
	   style=" stroke:#000000; stroke-width:1;"></polyline>
	  <polyline points="114.02 191.948 114.849 191.435 115.678 191.435 
	   116.508 190.921 117.337 190.921 118.166 190.921 118.581 190.921 
	   119.41 190.921 120.239 191.435 120.653 191.435 121.483 191.948 
	   121.898 192.462 122.312 192.976 123.142 193.489 123.556 194.003 
	   123.97 194.517 124.385 195.03"
	   style=" stroke:#000000; stroke-width:1;"></polyline>
	  <polygon points="114.418 192.062 114.418 191.549 114.418 191.549 
	   114.418 191.549 114.418 191.035 113.976 191.035 113.976 191.035 
	   113.976 190.522 113.976 190.522 113.976 190.522 113.532 190.008 
	   113.532 190.008 113.532 190.008 113.09 190.008 113.09 190.008 
	   113.09 190.008 112.647 190.008 112.647 190.008 112.647 190.008 
	   112.204 190.008 112.204 190.008 112.204 190.008 111.761 190.008 
	   111.761 190.008 111.318 190.008 111.318 190.008 111.318 190.008 
	   111.318 190.522 110.874 190.522 110.874 190.522 110.874 191.035 
	   110.874 191.035 110.874 191.035 110.432 191.549 110.432 191.549 
	   110.432 191.549 110.432 192.062 110.432 192.062 110.432 192.062 
	   110.432 192.576 110.874 192.576 110.874 192.576 110.874 193.09 
	   110.874 193.09 110.874 193.09 111.318 193.09 111.318 193.603 
	   111.318 193.603 111.318 193.603 111.761 193.603 111.761 194.117 
	   112.204 194.117 112.204 194.117 112.204 194.117 112.647 194.117 
	   112.647 194.117 112.647 194.117 113.09 194.117 113.09 194.117 
	   113.09 193.603 113.532 193.603 113.532 193.603 113.532 193.603 
	   113.976 193.09 113.976 193.09 113.976 193.09 113.976 193.09 
	   113.976 192.576 114.418 192.576 114.418 192.576 114.418 192.062 
	   114.418 192.062 114.418 192.062 114.418 192.062 114.418 192.062 
	   114.418 192.062 114.418 192.062 114.418 192.062 114.418 192.062 "
	   style=" stroke:#000000; stroke-width:1; fill:#000000; fill-opacity:100%"></polygon>
	  <polyline points="112.027 190.465 111.115 189.038 110.66 187.611 
	   110.204 186.184 109.748 184.757 109.293 183.331 109.293 181.904 
	   108.837 180.477 108.837 179.05"
	   style=" stroke:#000000; stroke-width:1;"></polyline>
	  <polygon points="132.359 181.814 135.775 181.333 138.338 189.023 
	   138.338 189.503 137.484 189.984 137.058 190.465 136.63 190.465 
	   132.359 181.814 132.359 181.814 132.359 181.814 132.359 181.814 
	   132.359 181.814 132.359 181.814 132.359 181.814 "
	   style=" stroke:#000000; stroke-width:1; fill:#ffc285; fill-opacity:100%"></polygon>
	  <polygon points="124.802 185.072 133.768 178.605 134.991 178.143 
	   136.213 177.681 137.435 178.143 138.658 178.605 139.881 179.529 
	   140.695 180.452 141.103 181.838 140.695 183.686 140.695 185.072 
	   140.695 185.996 140.695 187.381 140.695 188.305 140.695 189.691 
	   141.103 190.615 141.103 191.539 141.103 192.924 141.511 193.848 
	   141.511 195.234 141.511 196.157 141.918 197.082 141.918 198.468 
	   141.918 199.392 142.326 200.315 142.326 201.701 142.326 202.625 
	   142.326 203.548 142.326 204.935 142.326 205.858 142.326 206.782 
	   142.326 207.706 142.326 208.63 141.918 210.015 141.511 210.939 
	   141.511 211.864 141.103 212.787 140.695 213.711 139.881 214.635 
	   139.473 215.559 138.658 216.944 136.62 216.944 136.62 215.097 
	   136.213 214.173 135.805 212.787 135.398 211.864 134.991 210.015 
	   134.991 208.168 135.398 206.782 135.398 205.397 135.805 204.01 
	   136.62 201.701 137.028 200.315 137.028 198.468 137.435 197.082 
	   137.843 195.234 137.843 193.848 138.25 192.001 138.25 190.615 
	   138.25 189.229 130.915 190.153 129.692 189.691 129.285 189.229 
	   129.285 188.767 129.285 188.767 129.285 187.843 130.1 187.843 
	   131.322 187.843 132.545 187.381 133.36 187.381 134.175 186.92 
	   135.398 185.996 136.62 184.61 136.213 183.224 134.991 182.3 
	   133.768 182.3 132.138 182.762 131.322 183.224 130.507 183.686 
	   129.692 184.148 128.877 184.61 128.062 185.072 127.247 185.996 
	   125.617 186.92 124.802 186.92 123.986 185.996 124.802 185.072 
	   124.802 185.072 124.802 185.072 124.802 185.072 124.802 185.072 
	   124.802 185.072 124.802 185.072 "
	   style=" stroke:#000000; stroke-width:1; fill:#ffc285; fill-opacity:100%"></polygon>
	  <polyline points="105.409 237.945 105.409 236.089 105.409 234.231 
	   105.409 232.374 104.931 230.517 104.931 228.196 104.931 226.338 
	   104.452 224.482 104.452 222.624 104.452 220.767 104.452 218.445 
	   104.452 216.589 104.931 214.731 105.887 213.339 106.365 211.481 
	   106.844 210.552 106.844 210.552"
	   style=" stroke:#000000; stroke-width:1;"></polyline>
	  <polyline points="96.8775 228.358 96.8775 217.857"
	   style=" stroke:#000000; stroke-width:1;"></polyline>
	  <polyline points="103.256 246.62 103.256 248.487 103.256 249.887 
	   103.256 250.821 103.734 251.753 103.734 252.688 104.212 253.154 
	   104.691 254.087 105.17 254.554 105.17 255.02 105.648 255.954 
	   105.648 257.354 105.648 259.221 105.648 261.554 105.648 263.888 
	   105.17 267.621"
	   style=" stroke:#000000; stroke-width:1;"></polyline>
	  <polyline points="28.3057 67.6524 28.3057 237.033"
	   style=" stroke:#ffffff; stroke-width:1;"></polyline>
	  <polyline points="28.7044 65.3696 217.276 65.3696"
	   style=" stroke:#ffffff; stroke-width:1;"></polyline>
	  <polyline points="215.283 71.3048 215.283 233.381"
	   style=" stroke:#ffffff; stroke-width:1;"></polyline>
	  <polygon points="126.777 267.849 126.777 267.849 126.777 267.849 
	   126.777 267.849 126.18 267.849 126.18 267.849 126.18 267.849 
	   126.18 267.165 126.18 267.165 126.18 267.165 126.18 267.165 
	   126.18 267.165 125.582 267.849 125.582 267.849 125.582 267.849 
	   125.582 267.849 125.582 267.849 125.582 267.849 125.582 267.849 
	   125.582 267.849 125.582 268.534 125.582 268.534 125.582 268.534 
	   126.18 268.534 126.18 268.534 126.18 268.534 126.18 268.534 
	   126.18 268.534 126.18 268.534 126.18 268.534 126.18 268.534 
	   126.777 267.849 126.777 267.849 126.777 267.849 126.777 267.849 
	   126.777 267.849 126.777 267.849 126.777 267.849 126.777 267.849 
	   126.777 267.849 126.777 267.849 "
	   style=" stroke:#ffffff; stroke-width:1; fill:#ababab; fill-opacity:100%"></polygon>
	  <polygon points="127.574 266.48 127.574 266.48 127.574 266.48 
	   127.574 266.48 127.574 266.48 127.574 265.795 126.977 265.795 
	   126.977 265.795 126.977 265.795 126.977 265.795 126.977 265.795 
	   126.977 265.795 126.379 265.795 126.379 265.795 126.379 266.48 
	   126.379 266.48 126.379 266.48 126.379 266.48 126.379 266.48 
	   126.379 266.48 126.379 266.48 126.379 267.165 126.379 267.165 
	   126.977 267.165 126.977 267.165 126.977 267.165 126.977 267.165 
	   126.977 267.165 126.977 267.165 127.574 267.165 127.574 266.48 
	   127.574 266.48 127.574 266.48 127.574 266.48 127.574 266.48 
	   127.574 266.48 127.574 266.48 127.574 266.48 127.574 266.48 
	   127.574 266.48 127.574 266.48 "
	   style=" stroke:#ffffff; stroke-width:1; fill:#ababab; fill-opacity:100%"></polygon>
	  <polygon points="128.372 264.883 128.372 264.883 128.372 263.969 
	   128.372 263.969 128.372 263.969 128.372 263.969 127.775 263.969 
	   127.775 263.969 127.775 263.969 127.775 263.969 127.775 263.969 
	   127.775 263.969 127.775 263.969 127.775 263.969 127.176 263.969 
	   127.176 263.969 127.176 263.969 127.176 264.883 127.176 264.883 
	   127.176 264.883 127.176 264.883 127.775 264.883 127.775 264.883 
	   127.775 264.883 127.775 264.883 127.775 264.883 127.775 264.883 
	   127.775 264.883 127.775 264.883 128.372 264.883 128.372 264.883 
	   128.372 264.883 128.372 264.883 128.372 264.883 128.372 264.883 
	   128.372 264.883 128.372 264.883 128.372 264.883 128.372 264.883 
	   128.372 264.883 128.372 264.883 "
	   style=" stroke:#ffffff; stroke-width:1; fill:#ababab; fill-opacity:100%"></polygon>
	  <polygon points="129.17 262.371 129.17 262.371 129.17 262.371 
	   129.17 262.371 129.17 262.371 129.17 262.371 129.17 262.371 
	   129.17 261.687 128.372 261.687 128.372 261.687 128.372 261.687 
	   128.372 261.687 128.372 262.371 128.372 262.371 128.372 262.371 
	   128.372 262.371 128.372 262.371 128.372 262.371 128.372 262.371 
	   128.372 262.371 128.372 263.056 128.372 263.056 128.372 263.056 
	   128.372 263.056 128.372 263.056 128.372 263.056 128.372 263.056 
	   129.17 263.056 129.17 263.056 129.17 263.056 129.17 263.056 
	   129.17 262.371 129.17 262.371 129.17 262.371 129.17 262.371 
	   129.17 262.371 129.17 262.371 129.17 262.371 129.17 262.371 
	   129.17 262.371 129.17 262.371 "
	   style=" stroke:#ffffff; stroke-width:1; fill:#ababab; fill-opacity:100%"></polygon>
	  <polygon points="89.1028 177.681 87.3089 176.116 89.1028 174.029 
	   90.8968 176.116 89.1028 177.681 89.1028 177.681 89.1028 177.681 
	   89.1028 177.681 89.1028 177.681 89.1028 177.681 89.1028 177.681 "
	   style=" stroke:#000000; stroke-width:1; fill:#000000; fill-opacity:100%"></polygon>
	  <polygon points="83.2548 167.438 85.1157 169.569 82.3256 172.762 
	   80.4645 169.569 78.6037 167.438 77.6742 166.372 77.6742 163.177 
	   77.6742 159.98 76.7438 155.718 76.7438 153.587 75.8134 152.523 
	   75.8134 151.457 74.8829 150.392 73.022 149.328 72.0926 148.262 
	   71.1622 148.262 69.3013 148.262 67.4415 149.328 66.511 151.457 
	   64.6511 152.523 64.6511 154.654 63.7208 156.785 64.6511 159.98 
	   65.5806 163.177 67.4415 164.241 64.6511 168.503 61.8596 165.305 
	   60.9292 162.11 60.9292 159.98 60 156.785 60 155.718 
	   60.9292 153.587 60.9292 151.457 62.7903 150.392 63.7208 148.262 
	   65.5806 146.131 67.4415 145.064 69.3013 144 70.2317 144 
	   71.1622 144 73.022 144 73.9524 144 75.8134 145.064 
	   76.7438 146.131 78.6037 147.195 79.534 149.328 80.4645 152.523 
	   81.395 155.718 81.395 159.98 81.395 163.177 82.3256 164.241 
	   82.3256 166.372 83.2548 167.438 83.2548 167.438 83.2548 167.438 
	   83.2548 167.438 83.2548 167.438 83.2548 167.438 83.2548 167.438 "
	   style=" stroke:#000000; stroke-width:1; fill:#000000; fill-opacity:100%"></polygon>
	  <polyline points="110.83 193.66 113.223 194.574"
	   style=" stroke:#880588; stroke-width:1;"></polyline>
	  <polyline points="110.033 194.117 113.621 194.117"
	   style=" stroke:#880588; stroke-width:1;"></polyline>
	  <polyline points="109.635 194.117 113.621 195.03"
	   style=" stroke:#880588; stroke-width:1;"></polyline>
	  <polyline points="109.236 194.574 113.621 195.487"
	   style=" stroke:#880588; stroke-width:1;"></polyline>
	  <polyline points="108.837 195.03 114.02 196.4"
	   style=" stroke:#880588; stroke-width:1;"></polyline>
	  <polyline points="108.039 196.4 114.418 197.313"
	   style=" stroke:#880588; stroke-width:1;"></polyline>
	  <polyline points="106.844 197.77 115.216 199.138"
	   style=" stroke:#880588; stroke-width:1;"></polyline>
	  <polyline points="115.216 201.878 105.249 200.052"
	   style=" stroke:#880588; stroke-width:1;"></polyline>
	  <polyline points="110.033 191.378 111.229 193.66"
	   style=" stroke:#880588; stroke-width:1;"></polyline>
	  <polyline points="109.635 190.921 110.83 194.117"
	   style=" stroke:#880588; stroke-width:1;"></polyline>
	  <polyline points="109.236 190.921 110.432 194.117"
	   style=" stroke:#880588; stroke-width:1;"></polyline>
	  <polyline points="108.439 190.921 110.432 194.574"
	   style=" stroke:#880588; stroke-width:1;"></polyline>
	  <polyline points="108.039 190.921 110.033 195.03"
	   style=" stroke:#880588; stroke-width:1;"></polyline>
	  <polyline points="106.844 190.465 109.237 195.943"
	   style=" stroke:#880588; stroke-width:1;"></polyline>
	  <polyline points="105.249 190.465 108.439 196.856"
	   style=" stroke:#880588; stroke-width:1;"></polyline>
	  <polyline points="106.446 198.226 102.458 190.008"
	   style=" stroke:#880588; stroke-width:1;"></polyline>
	  <polyline points="113.621 193.66 115.216 191.378"
	   style=" stroke:#880588; stroke-width:1;"></polyline>
	  <polyline points="113.223 194.574 115.615 191.378"
	   style=" stroke:#880588; stroke-width:1;"></polyline>
	  <polyline points="113.621 195.03 116.014 191.378"
	   style=" stroke:#880588; stroke-width:1;"></polyline>
	  <polyline points="113.621 195.943 116.412 191.378"
	   style=" stroke:#880588; stroke-width:1;"></polyline>
	  <polyline points="113.621 196.4 116.811 191.378"
	   style=" stroke:#880588; stroke-width:1;"></polyline>
	  <polyline points="114.02 197.77 118.007 191.378"
	   style=" stroke:#880588; stroke-width:1;"></polyline>
	  <polyline points="114.818 200.052 119.602 191.834"
	   style=" stroke:#880588; stroke-width:1;"></polyline>
	  <polyline points="121.993 192.747 115.614 202.791"
	   style=" stroke:#880588; stroke-width:1;"></polyline>
	  <polyline points="111.628 189.551 110.033 191.378"
	   style=" stroke:#880588; stroke-width:1;"></polyline>
	  <polyline points="111.628 189.095 109.635 191.378"
	   style=" stroke:#880588; stroke-width:1;"></polyline>
	  <polyline points="111.229 188.638 109.635 191.378"
	   style=" stroke:#880588; stroke-width:1;"></polyline>
	  <polyline points="111.229 187.725 109.236 190.921"
	   style=" stroke:#880588; stroke-width:1;"></polyline>
	  <polyline points="110.83 187.269 108.837 190.465"
	   style=" stroke:#880588; stroke-width:1;"></polyline>
	  <polyline points="110.432 186.355 107.641 190.465"
	   style=" stroke:#880588; stroke-width:1;"></polyline>
	  <polyline points="110.033 184.529 106.446 190.008"
	   style=" stroke:#880588; stroke-width:1;"></polyline>
	  <polyline points="103.256 190.008 109.236 181.333"
	   style=" stroke:#880588; stroke-width:1;"></polyline>
	  <polyline points="114.817 191.378 113.621 189.551"
	   style=" stroke:#880588; stroke-width:1;"></polyline>
	  <polyline points="115.216 191.834 113.621 189.095"
	   style=" stroke:#880588; stroke-width:1;"></polyline>
	  <polyline points="115.614 191.378 114.02 188.638"
	   style=" stroke:#880588; stroke-width:1;"></polyline>
	  <polyline points="116.014 191.378 114.02 188.182"
	   style=" stroke:#880588; stroke-width:1;"></polyline>
	  <polyline points="116.412 191.378 114.418 187.725"
	   style=" stroke:#880588; stroke-width:1;"></polyline>
	  <polyline points="117.607 190.921 114.818 186.812"
	   style=" stroke:#880588; stroke-width:1;"></polyline>
	  <polyline points="119.203 191.378 115.614 185.442"
	   style=" stroke:#880588; stroke-width:1;"></polyline>
	  <polyline points="115.614 182.246 122.791 192.747"
	   style=" stroke:#880588; stroke-width:1;"></polyline>
	  <polyline points="113.223 189.551 111.229 189.551"
	   style=" stroke:#880588; stroke-width:1;"></polyline>
	  <polyline points="113.621 189.095 111.229 189.095"
	   style=" stroke:#880588; stroke-width:1;"></polyline>
	  <polyline points="113.621 188.638 110.83 188.638"
	   style=" stroke:#880588; stroke-width:1;"></polyline>
	  <polyline points="114.418 188.182 110.83 188.182"
	   style=" stroke:#880588; stroke-width:1;"></polyline>
	  <polyline points="114.817 187.269 110.432 187.269"
	   style=" stroke:#880588; stroke-width:1;"></polyline>
	  <polyline points="114.818 186.355 110.033 186.355"
	   style=" stroke:#880588; stroke-width:1;"></polyline>
	  <polyline points="115.614 184.986 109.635 184.986"
	   style=" stroke:#880588; stroke-width:1;"></polyline>
	  <polyline points="109.236 182.246 116.014 183.16"
	   style=" stroke:#880588; stroke-width:1;"></polyline>
	  <polyline points="124.386 183.616 131.961 178.594"
	   style=" stroke:#ffffff; stroke-width:1;"></polyline>
	  <polyline points="124.386 182.246 130.365 178.594"
	   style=" stroke:#ffffff; stroke-width:1;"></polyline>
	</g>
      </g>
    </g>
  </symbol>
 </defs>
</svg>
