<?xml version="1.0"?>
<?metis version="3.2"?>
<?metisxml version="1.1"?>
<!DOCTYPE svg  PUBLIC "-//W3C//DTD SVG August 1999//EN"
 "http://www.w3.org/Graphics/SVG/svg-19990812.dtd">

<svg width="200" height="200">
 <title>Symbol library: it_initiative.svg</title>
 <defs>
  <symbol id="oid2" xml:space="preserve" class="METIS_SYMBOL">
   <title>Initiative basic</title>
    <g>
      <polygon points="0 0 0 303.158 16.2963 320 
       880 320 880 16 863.704 0 0 0 
       0 0 0 0 0 0 0 0 
       0 0 0 0 0 0 "
       style=" stroke:#000000; stroke-width:1; fill:#9b9b9b; fill-opacity:100%"       class="TAG:shadow"></polygon>
      <rect x="0" y="0" width="240" height="304"
       style=" stroke:#000000; stroke-width:1; fill:#ffffff; fill-opacity:100%"       class="TAG:PictureBackground"></rect>
      <rect x="240" y="0" width="624" height="304"
       style=" stroke:#000000; stroke-width:1; fill:#ffffa5; fill-opacity:100%"       class="TAG:canvas"></rect>
      <g>
	<desc>METIS_TEXT_GROUP</desc>
	<text  x="256" y="15.2974"
	 style=" stroke:#000000; stroke-width:1; font-family:sans-serif; font-size:16;"
	 class="TAG:text">text</text>
	<rect x="256" y="0.297447" width="608" height="303.703"
	 style=" stroke:#000000; stroke-width:1; fill:#ffffff; fill-opacity:0%"></rect>
      </g>
      <g>
	<polygon points="102.037 126.65 104.833 123.614 105.183 122.604 
	 105.533 121.592 105.882 120.58 106.232 119.567 106.582 118.556 
	 106.582 117.04 106.931 116.027 106.931 115.015 107.98 113.499 
	 108.679 112.486 109.378 111.475 110.427 110.463 111.126 109.958 
	 112.175 108.947 113.224 108.441 113.923 107.429 119.516 102.37 
	 120.565 101.865 121.264 101.358 121.963 101.358 122.663 101.358 
	 123.361 101.865 124.061 102.37 124.41 102.877 124.759 103.888 
	 126.158 103.888 127.206 104.899 128.256 105.405 128.955 106.922 
	 129.654 108.441 130.004 110.463 129.654 112.993 128.955 116.027 
	 130.353 116.533 131.052 118.052 131.401 119.062 131.401 120.58 
	 131.052 122.604 130.702 124.12 130.004 125.133 129.304 125.638 
	 129.654 126.65 129.654 127.66 129.654 128.673 129.654 129.685 
	 129.304 130.19 128.606 130.697 127.905 131.202 126.857 131.708 
	 126.508 133.225 125.459 134.237 124.41 135.249 122.663 135.754 
	 121.264 135.754 119.516 135.754 117.768 135.754 115.321 136.766 
	 114.272 137.272 112.874 138.283 111.825 138.283 110.427 138.283 
	 109.378 138.283 107.98 137.779 106.582 137.272 104.833 138.283 
	 101.688 133.731 102.037 126.65 102.037 126.65 102.037 126.65 
	 102.037 126.65 102.037 126.65 102.037 126.65 102.037 126.65 
	 102.037 126.65 102.037 126.65 102.037 126.65 102.037 126.65 
	 102.037 126.65 102.037 126.65 102.037 126.65 102.037 126.65 
	 102.037 126.65 102.037 126.65 "
	 style=" stroke:#000000; stroke-width:1; fill:#ffc283; fill-opacity:100%"></polygon>
	<polygon points="36.4299 201.655 35.3813 203.665 34.6821 206.179 
	 33.983 208.188 33.6334 209.697 33.2838 209.697 33.6334 209.697 
	 33.6334 209.697 33.2838 210.199 33.2838 211.204 32.9343 212.208 
	 32.9343 213.215 32.9343 217.236 32.9343 220.251 32.5847 221.256 
	 32.9343 222.262 33.6334 225.779 35.0317 229.298 37.1291 244.378 
	 37.1291 247.393 37.1291 250.409 37.1291 253.927 37.4786 257.445 
	 37.4786 260.461 37.4786 263.98 37.1291 266.995 37.1291 270.514 
	 57.7543 270.514 57.4048 267.498 57.4048 264.483 57.4048 260.964 
	 57.4048 257.948 57.7543 254.431 58.1038 251.413 58.4534 247.895 
	 58.4534 244.88 60.5508 226.283 61.2501 222.262 61.9492 218.24 
	 62.2988 214.723 62.2988 211.204 61.9492 208.188 61.2501 205.675 
	 60.2015 203.163 58.8031 201.655 36.4299 201.655 36.4299 201.655 
	 36.4299 201.655 36.4299 201.655 36.4299 201.655 36.4299 201.655 
	 36.4299 201.655 36.4299 201.655 36.4299 201.655 36.4299 201.655 
	 36.4299 201.655 36.4299 201.655 36.4299 201.655 36.4299 201.655 
	 36.4299 201.655 36.4299 201.655 36.4299 201.655 "
	 style=" stroke:#000000; stroke-width:1; fill:#ababab; fill-opacity:100%"></polygon>
	<polygon points="34.3122 207.364 35.7117 208.917 37.4612 209.952 
	 38.8606 211.505 40.6102 212.54 42.3597 213.574 44.109 214.092 
	 45.8585 214.609 47.958 215.127 49.7072 215.127 51.4568 215.127 
	 53.2063 214.609 55.3055 214.092 57.0552 213.056 58.4546 211.505 
	 60.204 209.952 61.9534 207.882 61.2537 205.813 60.5538 204.26 
	 59.8542 202.707 58.8045 201.673 36.7615 201.156 35.7117 202.707 
	 35.3618 204.26 34.662 205.813 34.3122 207.364 34.3122 207.364 
	 34.3122 207.364 34.3122 207.364 34.3122 207.364 34.3122 207.364 
	 34.3122 207.364 34.3122 207.364 34.3122 207.364 34.3122 207.364 
	 34.3122 207.364 34.3122 207.364 34.3122 207.364 34.3122 207.364 
	 34.3122 207.364 34.3122 207.364 34.3122 207.364 "
	 style=" stroke:#000000; stroke-width:1; fill:#000000; fill-opacity:100%"></polygon>
	<polygon points="27.0982 80.4008 26.4025 76.3678 25.7068 71.8297 
	 25.359 67.7967 25.0112 63.2588 24.6633 58.7213 25.0112 53.6796 
	 25.359 49.1421 25.7068 44.6044 24.6633 44.1002 23.6198 43.5961 
	 22.9242 42.0836 22.5763 41.0752 22.2285 39.5625 21.8807 38.5544 
	 21.5328 37.0417 20.8371 36.0333 21.5328 36.5377 22.2285 37.5459 
	 23.2719 38.5544 23.9676 39.0585 24.6633 40.0669 25.359 40.571 
	 26.0546 41.0752 27.0982 41.0752 26.4025 33.5125 29.1852 40.571 
	 32.6634 33.5125 32.3156 39.5625 34.0549 37.5459 36.1418 36.0333 
	 37.881 35.025 39.9678 34.0166 41.7071 33.5125 43.7944 33.0084 
	 45.8811 32.5041 47.9682 32 45.5333 35.5292 47.2726 36.0333 
	 48.6638 36.0333 50.4032 36.5377 52.1424 37.5459 53.5334 38.05 
	 54.9247 38.5544 56.3162 39.5625 58.0553 40.0669 59.4466 40.571 
	 60.8381 41.0752 62.5771 41.0752 64.3165 41.0752 66.4033 41.0752 
	 68.1427 40.571 70.2295 40.0669 72.6642 39.0585 72.3165 40.0669 
	 71.6207 41.5793 70.9253 42.5877 69.8818 43.5961 69.186 44.6044 
	 68.1427 45.1085 67.0991 45.1085 66.0554 45.6128 66.7513 49.6461 
	 67.4469 53.6796 67.7948 58.2172 68.1427 62.7547 68.1427 67.2924 
	 67.7948 71.8297 67.4469 76.3678 67.0991 80.4008 27.0982 80.4008 
	 27.0982 80.4008 27.0982 80.4008 27.0982 80.4008 27.0982 80.4008 
	 27.0982 80.4008 27.0982 80.4008 27.0982 80.4008 27.0982 80.4008 
	 27.0982 80.4008 27.0982 80.4008 27.0982 80.4008 27.0982 80.4008 
	 27.0982 80.4008 27.0982 80.4008 27.0982 80.4008 27.0982 80.4008 "
	 style=" stroke:#000000; stroke-width:1; fill:#850202; fill-opacity:100%"></polygon>
	<polygon points="169.754 270.514 182.192 270.514 182.192 185.688 
	 169.754 185.688 169.754 270.514 169.754 270.514 169.754 270.514 
	 169.754 270.514 169.754 270.514 169.754 270.514 169.754 270.514 
	 169.754 270.514 169.754 270.514 169.754 270.514 169.754 270.514 
	 169.754 270.514 169.754 270.514 169.754 270.514 169.754 270.514 
	 169.754 270.514 169.754 270.514 "
	 style=" stroke:#000000; stroke-width:1; fill:#ababab; fill-opacity:100%"></polygon>
	<polygon points="130.711 186.684 224 186.684 224 44.4744 
	 130.711 44.4744 130.711 186.684 130.711 186.684 130.711 186.684 
	 130.711 186.684 130.711 186.684 130.711 186.684 130.711 186.684 
	 130.711 186.684 130.711 186.684 130.711 186.684 130.711 186.684 
	 130.711 186.684 130.711 186.684 130.711 186.684 130.711 186.684 
	 130.711 186.684 130.711 186.684 "
	 style=" stroke:#000000; stroke-width:1; fill:#ff0016; fill-opacity:100%"></polygon>
	<polygon points="136.585 178.203 218.816 178.203 218.816 59.9431 
	 136.585 59.9431 136.585 178.203 136.585 178.203 136.585 178.203 
	 136.585 178.203 136.585 178.203 136.585 178.203 136.585 178.203 
	 136.585 178.203 136.585 178.203 136.585 178.203 136.585 178.203 
	 136.585 178.203 136.585 178.203 136.585 178.203 136.585 178.203 
	 136.585 178.203 136.585 178.203 "
	 style=" stroke:#000000; stroke-width:1; fill:#ffffff; fill-opacity:100%"></polygon>
	<polyline points="146.604 59.9431 146.604 178.203"
	 style=" stroke:#000000; stroke-width:1;"></polyline>
	<polyline points="156.97 59.9431 156.97 178.203"
	 style=" stroke:#000000; stroke-width:1;"></polyline>
	<polyline points="168.026 59.9431 168.026 178.203"
	 style=" stroke:#000000; stroke-width:1;"></polyline>
	<polyline points="178.737 59.9431 178.737 178.203"
	 style=" stroke:#000000; stroke-width:1;"></polyline>
	<polyline points="188.756 59.9431 188.756 178.203"
	 style=" stroke:#000000; stroke-width:1;"></polyline>
	<polyline points="199.122 59.9431 199.122 178.203"
	 style=" stroke:#000000; stroke-width:1;"></polyline>
	<polyline points="208.797 59.9431 208.797 178.203"
	 style=" stroke:#000000; stroke-width:1;"></polyline>
	<polygon points="52.4168 136.848 58.6598 138.352 61.0875 144.873 
	 64.9027 145.373 65.2495 146.878 68.0243 146.878 68.3711 145.874 
	 70.7989 144.873 73.2266 144.371 75.3074 143.367 77.3885 142.364 
	 79.8162 140.86 81.8973 139.856 83.9782 138.352 86.4059 136.848 
	 88.487 135.342 90.5678 133.839 92.6489 132.334 95.0766 130.83 
	 97.1575 129.324 99.2386 127.82 101.319 126.316 103.748 124.81 
	 103.054 126.817 102.707 128.823 102.707 130.83 102.707 132.334 
	 103.4 133.839 104.094 135.342 105.482 136.346 107.216 136.848 
	 99.9322 145.373 91.9552 153.398 87.7932 153.899 73.9201 165.936 
	 71.4924 167.441 69.0646 167.942 66.6369 167.942 64.2092 168.443 
	 63.5153 169.949 64.5558 172.959 64.5558 174.963 63.5153 177.472 
	 62.1281 179.979 62.4749 184.493 62.4749 187.503 62.1281 190.01 
	 61.7813 192.017 61.0875 193.52 60.3938 194.524 59.7004 196.028 
	 59.3532 197.532 58.3131 203.049 57.6193 204.052 56.9256 205.056 
	 56.5788 205.056 55.8853 205.557 55.1914 206.06 54.4979 206.06 
	 54.151 206.56 53.4573 206.56 52.4168 207.061 51.7233 207.061 
	 51.0297 207.061 50.3359 207.061 49.6423 207.563 48.6016 207.563 
	 47.9082 207.563 46.8677 207.563 46.1739 207.061 45.4802 207.061 
	 44.4397 207.061 43.7463 207.061 43.0526 206.56 42.3589 206.56 
	 41.3183 206.06 40.6248 205.557 39.931 205.557 39.2375 205.056 
	 38.8906 204.554 38.1969 204.052 37.5032 203.55 36.8097 202.549 
	 35.0755 193.52 34.7286 191.515 34.3819 190.01 33.6882 188.504 
	 33.6882 187 33.3413 184.993 33.6882 182.988 34.0349 180.481 
	 35.0755 177.472 33.6882 169.447 28.1389 179.979 27.0985 182.988 
	 26.7517 184.993 27.4453 187 28.4858 188.504 28.8325 189.507 
	 29.5261 192.517 31.9541 196.028 31.6072 199.038 35.0755 204.554 
	 34.7286 205.557 34.3819 207.061 34.0349 208.064 33.6882 209.068 
	 33.6882 209.068 33.3413 210.07 33.3413 210.572 33.3413 211.074 
	 32.9946 212.077 32.9946 213.582 32.9946 214.585 32.9946 215.588 
	 32.9946 216.592 32.9946 218.095 32.9946 219.099 32.9946 220.604 
	 32.9946 221.606 32.9946 223.111 27.7921 212.077 18.4278 192.517 
	 17.3872 190.01 16.6936 188.004 16 186.499 16 184.493 
	 16 182.988 16.6936 181.485 17.3872 179.478 18.4278 177.472 
	 19.4681 174.963 20.1619 173.46 21.2024 171.954 22.2427 170.45 
	 23.2833 168.443 24.3238 165.936 25.3643 162.928 26.0579 159.918 
	 34.0349 144.873 42.3589 135.845 52.4168 136.848 52.4168 136.848 
	 52.4168 136.848 52.4168 136.848 52.4168 136.848 52.4168 136.848 
	 52.4168 136.848 52.4168 136.848 52.4168 136.848 52.4168 136.848 
	 52.4168 136.848 52.4168 136.848 52.4168 136.848 52.4168 136.848 
	 52.4168 136.848 52.4168 136.848 52.4168 136.848 "
	 style=" stroke:#000000; stroke-width:1; fill:#ffffff; fill-opacity:100%"></polygon>
	<polygon points="45.0455 141.281 52.892 140.777 50.3953 146.309 
	 51.1086 148.321 51.4653 149.83 51.1086 151.338 50.7521 153.35 
	 51.1086 157.877 51.1086 162.905 51.4653 168.436 51.8221 173.466 
	 52.5352 178.494 53.2486 184.026 54.3186 188.552 55.3885 193.581 
	 50.3953 205.146 44.3321 194.084 45.0455 188.552 45.402 183.524 
	 45.7588 178.494 46.1154 173.466 46.4721 168.436 46.4721 163.408 
	 46.8286 158.378 47.1853 153.853 46.8286 151.841 46.4721 149.83 
	 46.8286 148.321 47.1853 146.309 45.0455 141.281 45.0455 141.281 
	 45.0455 141.281 45.0455 141.281 45.0455 141.281 45.0455 141.281 
	 45.0455 141.281 45.0455 141.281 45.0455 141.281 45.0455 141.281 
	 45.0455 141.281 45.0455 141.281 45.0455 141.281 45.0455 141.281 
	 45.0455 141.281 45.0455 141.281 45.0455 141.281 "
	 style=" stroke:#000000; stroke-width:1; fill:#850285; fill-opacity:100%"></polygon>
	<polyline points="47.0962 146.267 50.5513 146.267"
	 style=" stroke:#000000; stroke-width:1;"></polyline>
	<polyline points="47.0962 154.251 50.8969 153.253"
	 style=" stroke:#000000; stroke-width:1;"></polyline>
	<polyline points="95.8904 129.801 95.1611 132.381 94.4315 134.447 
	 94.4315 136.511 94.7963 139.092 95.5256 140.641 96.9845 142.189 
	 98.4433 143.737 100.997 144.769"
	 style=" stroke:#000000; stroke-width:1;"></polyline>
	<polyline points="31.8936 198.66 28.0929 212.133"
	 style=" stroke:#000000; stroke-width:1;"></polyline>
	<polyline points="49.1693 240.576 48.4783 270.514"
	 style=" stroke:#000000; stroke-width:1;"></polyline>
	<polygon points="45.3686 215.626 55.7339 215.626 55.7339 205.148 
	 45.3686 205.148 45.3686 215.626 45.3686 215.626 45.3686 215.626 
	 45.3686 215.626 45.3686 215.626 45.3686 215.626 45.3686 215.626 
	 45.3686 215.626 45.3686 215.626 45.3686 215.626 45.3686 215.626 
	 45.3686 215.626 45.3686 215.626 45.3686 215.626 45.3686 215.626 
	 45.3686 215.626 45.3686 215.626 "
	 style=" stroke:#000000; stroke-width:1; fill:#ffff14; fill-opacity:100%"></polygon>
	<polygon points="46.7506 214.128 54.6975 214.128 54.6975 206.643 
	 46.7506 206.643 46.7506 214.128 46.7506 214.128 46.7506 214.128 
	 46.7506 214.128 46.7506 214.128 46.7506 214.128 46.7506 214.128 
	 46.7506 214.128 46.7506 214.128 46.7506 214.128 46.7506 214.128 
	 46.7506 214.128 46.7506 214.128 46.7506 214.128 46.7506 214.128 
	 46.7506 214.128 46.7506 214.128 "
	 style=" stroke:#000000; stroke-width:1; fill:#000000; fill-opacity:100%"></polygon>
	<polyline points="109.288 118.163 109.641 116.627 110.346 115.605 
	 111.403 114.582 112.108 113.56 112.813 113.048 113.518 112.535 
	 114.575 112.535 115.633 112.023 121.623 105.886 122.681 104.864 
	 123.738 104.353 124.795 104.353 125.853 105.376 126.205 106.398 
	 126.91 107.421 126.91 108.444 126.91 108.956 126.91 109.468 
	 126.91 109.978 126.557 110.49 126.557 111.001 126.557 111.513 
	 126.205 112.023 126.205 112.535 125.853 113.048 125.853 113.56 
	 125.147 114.07 124.795 114.582 124.443 115.093 124.09 115.605 
	 123.738 116.115 123.386 116.115 123.033 116.115 122.681 116.627 
	 120.566 116.627 118.452 116.115 118.452 117.651 118.804 118.673 
	 118.452 120.207 118.1 121.23 117.747 122.255 117.394 123.277 
	 117.042 123.788 116.337 124.81"
	 style=" stroke:#000000; stroke-width:1;"></polyline>
	<polyline points="117.235 123.755 118.303 124.282 119.371 124.282 
	 120.439 124.81 121.508 124.282 122.22 124.282 123.287 123.755 
	 123.999 123.226 124.711 122.697 125.423 122.169 126.135 121.112 
	 126.847 120.055 127.203 119.528 127.915 118.47 128.27 117.415 
	 128.627 116.885 128.982 115.83"
	 style=" stroke:#000000; stroke-width:1;"></polyline>
	<polyline points="119.309 124.311 119.309 125.452 119.666 126.593 
	 120.023 127.734 120.738 128.303 121.096 128.303 122.168 128.303 
	 122.883 128.303 123.598 128.303 124.67 128.303 125.385 127.734 
	 126.457 127.164 127.171 126.593 127.887 126.593 128.602 126.022 
	 128.96 126.022 129.674 125.452"
	 style=" stroke:#000000; stroke-width:1;"></polyline>
	<polyline points="121.382 128.303 121.382 129.467 121.382 130.633 
	 122.119 131.215 122.856 131.797 123.593 131.797 124.699 131.797 
	 125.804 131.797 126.91 131.797"
	 style=" stroke:#000000; stroke-width:1;"></polyline>
	<polygon points="44.4316 131.797 39.1494 147.266 48.3054 143.656 
	 57.4616 146.234 51.827 132.313 44.4316 131.797 44.4316 131.797 
	 44.4316 131.797 44.4316 131.797 44.4316 131.797 44.4316 131.797 
	 44.4316 131.797 44.4316 131.797 44.4316 131.797 44.4316 131.797 
	 44.4316 131.797 44.4316 131.797 44.4316 131.797 44.4316 131.797 
	 44.4316 131.797 44.4316 131.797 44.4316 131.797 "
	 style=" stroke:#000000; stroke-width:1; fill:#ffffff; fill-opacity:100%"></polygon>
	<polygon points="43.2956 128.303 43.655 130.367 44.3735 132.428 
	 44.7329 134.492 45.4514 136.553 45.8109 138.617 46.5297 140.163 
	 47.2482 142.226 48.3261 143.773 49.4043 141.709 50.4822 140.163 
	 50.8417 138.101 51.5602 136.038 51.9195 133.975 51.9195 131.913 
	 52.279 129.85 52.279 128.303 43.2956 128.303 43.2956 128.303 
	 43.2956 128.303 43.2956 128.303 43.2956 128.303 43.2956 128.303 
	 43.2956 128.303 43.2956 128.303 43.2956 128.303 43.2956 128.303 
	 43.2956 128.303 43.2956 128.303 43.2956 128.303 43.2956 128.303 
	 43.2956 128.303 43.2956 128.303 43.2956 128.303 "
	 style=" stroke:#000000; stroke-width:1; fill:#ffc283; fill-opacity:100%"></polygon>
	<polygon points="29.1678 88.1366 30.212 90.6462 30.9082 93.6571 
	 31.6044 96.668 32.3005 99.1763 32.6486 102.187 33.3447 105.198 
	 34.0408 108.208 34.7371 111.22 35.0851 112.224 35.4332 113.73 
	 35.7812 115.234 36.4774 116.739 36.8254 118.245 37.5215 119.75 
	 38.2179 121.757 39.262 123.264 40.3062 125.271 41.3503 126.776 
	 42.3947 128.282 43.7869 129.284 44.831 130.289 46.2235 131.291 
	 47.6157 131.794 49.3562 132.295 50.4003 131.794 51.7927 131.291 
	 52.4887 130.79 53.5329 129.787 54.2291 128.783 55.2732 127.78 
	 55.9696 126.275 56.6655 124.769 57.3618 123.264 57.7097 121.757 
	 58.0579 120.252 58.7541 118.746 59.1019 117.242 59.4502 115.737 
	 59.7983 114.732 60.1463 113.227 60.8424 110.719 61.1905 107.708 
	 61.8866 104.696 62.2346 102.187 62.5827 99.1763 63.2788 96.668 
	 64.3232 94.1585 65.3674 91.1476 66.4116 91.6502 67.4558 91.6502 
	 68.1519 91.1476 68.848 90.6462 70.2402 88.6393 70.5885 87.6352 
	 70.5885 86.6311 70.9366 85.6283 70.5885 84.1229 70.5885 83.1188 
	 70.2402 82.116 68.848 80.6105 68.1519 80.1078 67.1078 80.1078 
	 66.7597 76.0941 66.4116 71.5777 66.0634 67.0613 65.7156 63.0469 
	 65.3674 58.5306 65.0193 54.5162 64.3232 50.5018 63.2788 45.9857 
	 56.6655 45.4838 59.7983 48.9965 44.483 43.4765 48.6599 48.4946 
	 42.0466 45.4838 38.9138 48.4946 34.0408 49.4981 30.9082 45.4838 
	 30.212 53.0107 29.5159 44.982 28.4718 48.9965 27.7756 53.0107 
	 27.7756 57.0253 27.7756 61.5415 28.1237 65.5559 28.4718 70.0722 
	 28.8198 74.5886 28.8198 79.1051 27.4274 78.6024 26.3833 79.1051 
	 25.339 79.6064 24.643 80.1078 23.9467 82.116 23.9467 83.1188 
	 23.9467 84.1229 24.2949 85.6283 24.643 86.6311 25.6871 87.6352 
	 26.3833 88.1366 27.0794 88.6393 28.1237 88.6393 29.1678 88.1366 
	 29.1678 88.1366 29.1678 88.1366 29.1678 88.1366 29.1678 88.1366 
	 29.1678 88.1366 29.1678 88.1366 29.1678 88.1366 29.1678 88.1366 
	 29.1678 88.1366 29.1678 88.1366 29.1678 88.1366 29.1678 88.1366 
	 29.1678 88.1366 29.1678 88.1366 29.1678 88.1366 29.1678 88.1366 "
	 style=" stroke:#000000; stroke-width:1; fill:#ffc283; fill-opacity:100%"></polygon>
	<polygon points="40.7098 62.9369 41.0665 62.9369 41.7798 62.9369 
	 42.1364 63.4515 42.8496 63.4515 43.2064 63.966 43.5632 64.4805 
	 44.2763 64.9952 44.6331 65.5097 44.9897 66.0246 45.3465 66.5388 
	 45.3465 67.0535 45.7029 68.0829 45.7029 68.5971 46.0597 69.6265 
	 46.0597 70.1413 46.0597 71.1697 46.0597 71.6851 46.0597 72.7135 
	 45.7029 73.7432 45.7029 74.2574 45.3465 75.287 45.3465 75.8012 
	 44.9897 76.3154 44.6331 76.8309 44.2763 77.345 43.5632 77.8592 
	 43.2064 78.3747 42.8496 78.8889 42.1364 78.8889 41.7798 79.4031 
	 41.0665 79.4031 40.7098 79.4031 40.3531 79.4031 39.6399 79.4031 
	 38.9265 78.8889 38.5697 78.8889 38.2132 78.3747 37.4998 77.8592 
	 37.143 77.345 36.7866 76.8309 36.4298 76.3154 36.0732 75.8012 
	 35.7165 75.287 35.7165 74.2574 35.3599 73.7432 35.3599 72.7135 
	 35.0032 72.1993 35.0032 71.1697 35.0032 70.6555 35.3599 69.6265 
	 35.3599 68.5971 35.7165 68.0829 35.7165 67.0535 36.0732 66.5388 
	 36.4298 66.0246 36.7866 65.5097 37.143 64.9952 37.4998 64.4805 
	 38.2132 63.966 38.5697 63.4515 38.9265 63.4515 39.6399 62.9369 
	 39.9963 62.9369 40.7098 62.9369 40.7098 62.9369 40.7098 62.9369 
	 40.7098 62.9369 40.7098 62.9369 40.7098 62.9369 40.7098 62.9369 
	 40.7098 62.9369 40.7098 62.9369 40.7098 62.9369 40.7098 62.9369 
	 40.7098 62.9369 40.7098 62.9369 40.7098 62.9369 40.7098 62.9369 
	 40.7098 62.9369 40.7098 62.9369 "
	 style=" stroke:#000000; stroke-width:1; fill:#ffffff; fill-opacity:100%"></polygon>
	<polygon points="55.9125 61.44 55.9125 61.44 56.9825 61.9547 
	 57.3391 61.9547 58.0523 62.4689 58.4091 62.4689 58.7658 62.9837 
	 59.1222 63.4983 59.8357 64.013 59.8357 64.5272 60.1924 65.5566 
	 60.549 66.0713 60.9056 66.5855 60.9056 67.6149 61.2623 68.1296 
	 61.2623 69.1586 61.2623 69.6731 61.2623 70.1873 61.2623 71.7312 
	 60.9056 72.2466 60.9056 73.275 60.549 73.7892 60.1924 74.3047 
	 59.8357 75.3331 59.8357 75.8485 59.1222 76.3627 58.7658 76.8769 
	 58.4091 76.8769 58.0523 77.3911 57.3391 77.9066 56.9825 77.9066 
	 56.2689 77.9066 55.9125 77.9066 55.5558 77.9066 54.8423 77.9066 
	 54.1292 77.9066 53.4156 77.3911 53.0592 76.8769 52.7025 76.8769 
	 52.3457 76.3627 51.9893 75.8485 51.6325 75.3331 51.2759 74.3047 
	 50.9191 73.7892 50.5626 73.275 50.5626 72.2466 50.5626 71.7312 
	 50.2059 70.7028 50.2059 69.6731 50.2059 69.6731 50.5626 68.1296 
	 50.5626 67.6149 50.5626 66.5855 50.9191 66.0713 51.2759 65.5566 
	 51.6325 64.5272 51.9893 64.013 52.3457 63.4983 52.7025 62.9837 
	 53.0592 62.4689 53.4156 62.4689 54.1292 61.9547 54.8423 61.9547 
	 55.199 61.44 55.9125 61.44 55.9125 61.44 55.9125 61.44 
	 55.9125 61.44 55.9125 61.44 55.9125 61.44 55.9125 61.44 
	 55.9125 61.44 55.9125 61.44 55.9125 61.44 55.9125 61.44 
	 55.9125 61.44 55.9125 61.44 55.9125 61.44 55.9125 61.44 
	 55.9125 61.44 55.9125 61.44 "
	 style=" stroke:#000000; stroke-width:1; fill:#ffffff; fill-opacity:100%"></polygon>
	<polygon points="43.2954 73.1663 43.2954 73.1663 42.9115 72.6048 
	 42.9115 72.6048 42.9115 72.6048 42.9115 72.0433 42.9115 72.0433 
	 42.9115 72.0433 42.9115 72.0433 42.5278 71.4818 42.5278 71.4818 
	 42.5278 71.4818 42.1439 71.4818 42.1439 71.4818 42.1439 71.4818 
	 41.7599 70.9202 41.7599 70.9202 41.7599 70.9202 41.3759 70.9202 
	 41.3759 70.9202 40.9922 70.9202 40.9922 70.9202 40.9922 71.4818 
	 40.6082 71.4818 40.6082 71.4818 40.6082 71.4818 40.2242 71.4818 
	 40.2242 71.4818 40.2242 72.0433 40.2242 72.0433 39.8403 72.0433 
	 39.8403 72.0433 39.8403 72.6048 39.8403 72.6048 39.8403 72.6048 
	 39.8403 73.1663 39.8403 73.1663 39.8403 73.1663 39.8403 73.7278 
	 39.8403 73.7278 39.8403 73.7278 39.8403 74.2893 39.8403 74.2893 
	 40.2242 74.2893 40.2242 74.2893 40.2242 74.8496 40.2242 74.8496 
	 40.6082 74.8496 40.6082 74.8496 40.6082 74.8496 40.9922 74.8496 
	 40.9922 75.4111 40.9922 75.4111 41.3759 75.4111 41.3759 75.4111 
	 41.7599 75.4111 41.7599 75.4111 41.7599 75.4111 42.1439 74.8496 
	 42.1439 74.8496 42.1439 74.8496 42.5278 74.8496 42.5278 74.8496 
	 42.5278 74.8496 42.9115 74.2893 42.9115 74.2893 42.9115 74.2893 
	 42.9115 74.2893 42.9115 73.7278 42.9115 73.7278 42.9115 73.7278 
	 43.2954 73.1663 43.2954 73.1663 43.2954 73.1663 43.2954 73.1663 
	 43.2954 73.1663 43.2954 73.1663 43.2954 73.1663 43.2954 73.1663 
	 43.2954 73.1663 43.2954 73.1663 43.2954 73.1663 43.2954 73.1663 
	 43.2954 73.1663 43.2954 73.1663 43.2954 73.1663 43.2954 73.1663 
	 43.2954 73.1663 43.2954 73.1663 "
	 style=" stroke:#000000; stroke-width:1; fill:#000000; fill-opacity:100%"></polygon>
	<polygon points="57.116 72.1686 56.7321 72.1686 56.7321 71.6071 
	 56.7321 71.6071 56.7321 71.6071 56.7321 71.0456 56.7321 71.0456 
	 56.7321 71.0456 56.3482 71.0456 56.3482 70.4841 56.3482 70.4841 
	 56.3482 70.4841 55.9644 70.4841 55.9644 70.4841 55.9644 69.9226 
	 55.5804 69.9226 55.5804 69.9226 55.1965 69.9226 55.1965 69.9226 
	 55.1965 69.9226 54.8126 69.9226 54.8126 69.9226 54.8126 69.9226 
	 54.4289 70.4841 54.4289 70.4841 54.4289 70.4841 54.0448 70.4841 
	 54.0448 70.4841 54.0448 71.0456 53.6609 71.0456 53.6609 71.0456 
	 53.6609 71.0456 53.6609 71.6071 53.6609 71.6071 53.6609 71.6071 
	 53.6609 72.1686 53.6609 72.1686 53.6609 72.1686 53.6609 72.7289 
	 53.6609 72.7289 53.6609 72.7289 53.6609 72.7289 53.6609 73.2904 
	 53.6609 73.2904 54.0448 73.2904 54.0448 73.8519 54.0448 73.8519 
	 54.4289 73.8519 54.4289 73.8519 54.4289 73.8519 54.8126 73.8519 
	 54.8126 74.4134 54.8126 74.4134 55.1965 74.4134 55.1965 74.4134 
	 55.1965 74.4134 55.5804 74.4134 55.5804 74.4134 55.9644 73.8519 
	 55.9644 73.8519 55.9644 73.8519 56.3482 73.8519 56.3482 73.8519 
	 56.3482 73.8519 56.3482 73.2904 56.7321 73.2904 56.7321 73.2904 
	 56.7321 72.7289 56.7321 72.7289 56.7321 72.7289 56.7321 72.7289 
	 56.7321 72.1686 57.116 72.1686 57.116 72.1686 57.116 72.1686 
	 57.116 72.1686 57.116 72.1686 57.116 72.1686 57.116 72.1686 
	 57.116 72.1686 57.116 72.1686 57.116 72.1686 57.116 72.1686 
	 57.116 72.1686 57.116 72.1686 57.116 72.1686 57.116 72.1686 
	 57.116 72.1686 57.116 72.1686 "
	 style=" stroke:#000000; stroke-width:1; fill:#000000; fill-opacity:100%"></polygon>
	<polyline points="36.0397 62.4379 36.4236 60.2605 37.1914 58.6276 
	 38.3433 57.5388 39.4948 56.4502"
	 style=" stroke:#000000; stroke-width:1;"></polyline>
	<polyline points="54.0065 56.949 55.4873 56.949 56.9682 57.5194 
	 58.0787 58.6599 59.1893 60.941"
	 style=" stroke:#000000; stroke-width:1;"></polyline>
	<polygon points="37.7673 90.3814 38.8223 91.9163 39.8773 93.4512 
	 41.2841 94.9873 42.3393 96.0106 43.746 97.0339 44.801 97.5455 
	 46.2077 98.0571 47.6145 98.0571 48.6695 98.0571 50.0762 97.5455 
	 51.483 97.0339 52.538 96.5222 53.9448 94.9873 54.9996 93.9628 
	 56.0549 91.9163 57.4616 90.3814 56.7582 92.4279 56.0549 94.9873 
	 55.3514 97.0339 54.6481 99.5933 53.9448 101.64 53.593 104.199 
	 53.2414 107.27 53.2414 110.34 52.538 109.317 51.1312 108.292 
	 49.7244 107.781 47.9662 107.27 46.5594 107.27 44.801 107.781 
	 43.0426 108.292 41.6358 109.83 41.9876 107.27 41.6358 104.711 
	 41.2841 102.153 40.5808 100.105 39.8773 97.5455 39.1741 94.9873 
	 38.4705 92.4279 37.7673 90.3814 37.7673 90.3814 37.7673 90.3814 
	 37.7673 90.3814 37.7673 90.3814 37.7673 90.3814 37.7673 90.3814 
	 37.7673 90.3814 37.7673 90.3814 37.7673 90.3814 37.7673 90.3814 
	 37.7673 90.3814 37.7673 90.3814 37.7673 90.3814 37.7673 90.3814 
	 37.7673 90.3814 37.7673 90.3814 "
	 style=" stroke:#000000; stroke-width:1; fill:#ffffff; fill-opacity:100%"></polygon>
	<polyline points="40.8771 100.444 42.2945 101.608 44.4207 102.19 
	 46.1926 102.772 48.3188 103.354 50.0906 102.772 51.8626 102.19 
	 53.28 101.027 54.6975 99.8619"
	 style=" stroke:#000000; stroke-width:1;"></polyline>
	<polyline points="43.2956 96.8676 43.2956 108.345"
	 style=" stroke:#000000; stroke-width:1;"></polyline>
	<polyline points="47.7873 97.8653 47.7873 107.346"
	 style=" stroke:#000000; stroke-width:1;"></polyline>
	<polyline points="51.9334 96.8676 51.9334 108.844"
	 style=" stroke:#000000; stroke-width:1;"></polyline>
	<polyline points="44.3321 116.329 45.7908 114.997 47.6145 114.332 
	 49.4381 114.997 50.8969 116.329"
	 style=" stroke:#000000; stroke-width:1;"></polyline>
	<polyline points="25.3289 83.1226 25.3289 82.0341 26.0966 80.4008 
	 28.0162 80.4008 28.4001 80.9456 28.4001 82.0341 26.8645 82.0341 
	 26.4805 84.2124 27.2483 84.2124 27.6323 84.756 28.0162 84.756 
	 28.4001 84.2124 28.4001 84.2124 28.784 84.756 28.784 85.8445 
	 28.784 86.3894 28.4001 86.3894"
	 style=" stroke:#000000; stroke-width:1;"></polyline>
	<polyline points="69.2091 84.559 69.2091 83.4782 68.8251 82.9384 
	 68.4414 82.9384 68.0574 82.3974 67.2895 82.3974 66.9058 82.3974 
	 66.1379 83.4782 66.1379 85.6411 66.5217 85.6411 66.9058 86.1809 
	 67.2895 85.6411 67.6734 85.6411 68.0574 85.6411 68.0574 87.263 
	 67.6734 87.8028 67.2895 87.8028 66.9058 87.8028 66.5217 87.8028 
	 66.1379 87.8028 65.7539 87.8028 65.7539 88.3438 65.7539 88.8836"
	 style=" stroke:#000000; stroke-width:1;"></polyline>
	<polyline points="120.691 108.095 122.165 105.932 122.902 105.391 
	 123.639 104.852 124.745 105.391 125.482 105.932 126.219 107.014 
	 126.219 108.095 125.482 109.717 125.113 110.798 124.376 111.338 
	 122.902 110.798 121.428 109.717 120.691 108.635 120.691 108.095"
	 style=" stroke:#000000; stroke-width:1;"></polyline>
	<polygon points="121.036 108.345 121.468 108.345 121.9 108.969 
	 122.332 109.592 122.764 110.215 122.764 110.839 121.468 109.592 
	 121.036 108.969 121.036 108.345 121.036 108.345 121.036 108.345 
	 121.036 108.345 121.036 108.345 121.036 108.345 121.036 108.345 
	 121.036 108.345 121.036 108.345 121.036 108.345 121.036 108.345 
	 121.036 108.345 121.036 108.345 121.036 108.345 121.036 108.345 
	 121.036 108.345 121.036 108.345 "
	 style=" stroke:#000000; stroke-width:1; fill:#ffffff; fill-opacity:100%"></polygon>
	<polyline points="136.585 71.9192 218.816 71.9192"
	 style=" stroke:#000000; stroke-width:1;"></polyline>
	<polyline points="136.585 84.8916 218.816 84.8916"
	 style=" stroke:#000000; stroke-width:1;"></polyline>
	<polyline points="136.585 97.8653 218.816 97.8653"
	 style=" stroke:#000000; stroke-width:1;"></polyline>
	<polyline points="136.585 110.839 218.816 110.839"
	 style=" stroke:#000000; stroke-width:1;"></polyline>
	<polyline points="136.585 123.814 218.816 123.814"
	 style=" stroke:#000000; stroke-width:1;"></polyline>
	<polyline points="136.585 136.786 218.816 136.786"
	 style=" stroke:#000000; stroke-width:1;"></polyline>
	<polyline points="136.585 150.259 218.816 150.259"
	 style=" stroke:#000000; stroke-width:1;"></polyline>
	<polyline points="136.585 163.232 218.816 163.232"
	 style=" stroke:#000000; stroke-width:1;"></polyline>
	<polygon points="125.528 105.318 170.444 68.9246 126.921 107.845 
	 125.528 105.318 125.528 105.318 125.528 105.318 125.528 105.318 
	 125.528 105.318 125.528 105.318 125.528 105.318 125.528 105.318 
	 125.528 105.318 125.528 105.318 125.528 105.318 125.528 105.318 
	 125.528 105.318 125.528 105.318 125.528 105.318 125.528 105.318 125.528 105.318 "
	 style=" stroke:#000000; stroke-width:1; fill:#ffff14; fill-opacity:100%"></polygon>
	<polygon points="173.555 68.1764 173.555 68.1764 173.555 68.1764 
	 173.174 67.6149 173.174 67.6149 173.174 67.0535 173.174 67.0535 
	 173.174 67.0535 173.174 66.492 172.794 66.492 172.794 66.492 
	 172.794 66.492 172.414 66.492 172.414 65.9308 172.414 65.9308 
	 172.034 65.9308 172.034 65.9308 171.654 65.9308 171.654 65.9308 
	 171.654 65.9308 171.275 65.9308 171.275 65.9308 171.275 65.9308 
	 170.893 65.9308 170.893 66.492 170.514 66.492 170.514 66.492 
	 170.514 66.492 170.514 66.492 170.134 67.0535 170.134 67.0535 
	 170.134 67.0535 170.134 67.6149 170.134 67.6149 169.754 68.1764 
	 169.754 68.1764 169.754 68.1764 169.754 68.7375 169.754 68.7375 
	 170.134 68.7375 170.134 69.2989 170.134 69.2989 170.134 69.2989 
	 170.134 69.8599 170.514 69.8599 170.514 69.8599 170.514 69.8599 
	 170.514 70.4214 170.893 70.4214 170.893 70.4214 171.275 70.4214 
	 171.275 70.4214 171.275 70.4214 171.654 70.4214 171.654 70.4214 
	 171.654 70.4214 172.034 70.4214 172.034 70.4214 172.414 70.4214 
	 172.414 70.4214 172.414 70.4214 172.794 70.4214 172.794 69.8599 
	 172.794 69.8599 173.174 69.8599 173.174 69.8599 173.174 69.2989 
	 173.174 69.2989 173.174 69.2989 173.174 68.7375 173.555 68.7375 
	 173.555 68.7375 173.555 68.1764 173.555 68.1764 173.555 68.1764 
	 173.555 68.1764 173.555 68.1764 173.555 68.1764 173.555 68.1764 
	 173.555 68.1764 173.555 68.1764 173.555 68.1764 173.555 68.1764 
	 173.555 68.1764 173.555 68.1764 173.555 68.1764 173.555 68.1764 
	 173.555 68.1764 173.555 68.1764 "
	 style=" stroke:#000000; stroke-width:1; fill:#ffff14; fill-opacity:100%"></polygon>
	<polyline points="43.9864 81.0927 44.3453 82.7044 44.7042 83.7788 
	 45.4217 84.8532 46.1394 84.8532 47.2157 85.3904 49.0098 85.3904 
	 50.4449 85.3904 51.5214 84.8532 51.8802 84.316 52.9565 82.7044 
	 52.9565 81.0927 53.3153 80.017 53.3153 78.4054"
	 style=" stroke:#000000; stroke-width:1;"></polyline>
	<polyline points="45.3686 77.4077 46.4849 76.0775 47.229 76.0775 
	 48.3453 75.4111 49.0896 76.0775 50.2058 76.0775"
	 style=" stroke:#000000; stroke-width:1;"></polyline>
      </g>
      <polyline points="139.345 180.326 149.667 172.486 159.989 162.033 
       170.31 156.806 183.213 151.579 193.535 138.512 203.856 133.285 
       224.5 172.486"
       style=" stroke:#000000; stroke-width:1;"></polyline>
      <polyline points="864 304 880 320.842"
       style=" stroke:#000000; stroke-width:1;"></polyline>
    </g>
  </symbol>
  <symbol id="oid1" xml:space="preserve" class="METIS_SYMBOL">
   <title>Initiative</title>
    <g>
      <polygon points="0 0 0 303.158 16.2963 320 
       880 320 880 16 863.704 0 0 0 
       0 0 0 0 0 0 0 0 
       0 0 0 0 0 0 "
       style=" stroke:#000000; stroke-width:1; fill:#9b9b9b; fill-opacity:100%"       class="TAG:shadow"></polygon>
      <rect x="240" y="209.075" width="624" height="94.0835"
       style=" stroke:#000000; stroke-width:1; fill:#dcdcdc; fill-opacity:100%"       class="TAG:PropertyBackground"></rect>
      <rect x="0" y="0" width="240" height="303.158"
       style=" stroke:#000000; stroke-width:1; fill:#ffffff; fill-opacity:100%"       class="TAG:PictureBackground"></rect>
      <rect x="240" y="0" width="624" height="209.075"
       style=" stroke:#000000; stroke-width:1; fill:#ffffa5; fill-opacity:100%"       class="TAG:canvas"></rect>
      <g>
	<desc>METIS_TEXT_GROUP</desc>
	<text  x="256" y="15.2974"
	 style=" stroke:#000000; stroke-width:1; font-family:sans-serif; font-size:16;"
	 class="TAG:text">text</text>
	<rect x="256" y="0.297447" width="608" height="208.777"
	 style=" stroke:#000000; stroke-width:1; fill:#ffffff; fill-opacity:0%"></rect>
      </g>
      <g>
	<desc>METIS_TEXT_GROUP</desc>
	<text  x="256" y="217.098"
	 style=" stroke:#000000; stroke-width:1; font-family:sans-serif; font-size:13;"
	 class="TAG:strat_value">strat_value</text>
	<rect x="256" y="205.098" width="608" height="98.0597"
	 style=" stroke:#000000; stroke-width:1; fill:#ffffff; fill-opacity:0%"></rect>
      </g>
      <g>
	<polygon points="102.037 126.65 104.833 123.614 105.183 122.604 
	 105.533 121.592 105.882 120.58 106.232 119.567 106.582 118.556 
	 106.582 117.04 106.931 116.027 106.931 115.015 107.98 113.499 
	 108.679 112.486 109.378 111.475 110.427 110.463 111.126 109.958 
	 112.175 108.947 113.224 108.441 113.923 107.429 119.516 102.37 
	 120.565 101.865 121.264 101.358 121.963 101.358 122.663 101.358 
	 123.361 101.865 124.061 102.37 124.41 102.877 124.759 103.888 
	 126.158 103.888 127.206 104.899 128.256 105.405 128.955 106.922 
	 129.654 108.441 130.004 110.463 129.654 112.993 128.955 116.027 
	 130.353 116.533 131.052 118.052 131.401 119.062 131.401 120.58 
	 131.052 122.604 130.702 124.12 130.004 125.133 129.304 125.638 
	 129.654 126.65 129.654 127.66 129.654 128.673 129.654 129.685 
	 129.304 130.19 128.606 130.697 127.905 131.202 126.857 131.708 
	 126.508 133.225 125.459 134.237 124.41 135.249 122.663 135.754 
	 121.264 135.754 119.516 135.754 117.768 135.754 115.321 136.766 
	 114.272 137.272 112.874 138.283 111.825 138.283 110.427 138.283 
	 109.378 138.283 107.98 137.779 106.582 137.272 104.833 138.283 
	 101.688 133.731 102.037 126.65 102.037 126.65 102.037 126.65 
	 102.037 126.65 102.037 126.65 102.037 126.65 102.037 126.65 
	 102.037 126.65 102.037 126.65 102.037 126.65 102.037 126.65 
	 102.037 126.65 102.037 126.65 102.037 126.65 102.037 126.65 
	 102.037 126.65 102.037 126.65 "
	 style=" stroke:#000000; stroke-width:1; fill:#ffc283; fill-opacity:100%"></polygon>
	<polygon points="36.4299 201.655 35.3813 203.665 34.6821 206.179 
	 33.983 208.188 33.6334 209.697 33.2838 209.697 33.6334 209.697 
	 33.6334 209.697 33.2838 210.199 33.2838 211.204 32.9343 212.208 
	 32.9343 213.215 32.9343 217.236 32.9343 220.251 32.5847 221.256 
	 32.9343 222.262 33.6334 225.779 35.0317 229.298 37.1291 244.378 
	 37.1291 247.393 37.1291 250.409 37.1291 253.927 37.4786 257.445 
	 37.4786 260.461 37.4786 263.98 37.1291 266.995 37.1291 270.514 
	 57.7543 270.514 57.4048 267.498 57.4048 264.483 57.4048 260.964 
	 57.4048 257.948 57.7543 254.431 58.1038 251.413 58.4534 247.895 
	 58.4534 244.88 60.5508 226.283 61.2501 222.262 61.9492 218.24 
	 62.2988 214.723 62.2988 211.204 61.9492 208.188 61.2501 205.675 
	 60.2015 203.163 58.8031 201.655 36.4299 201.655 36.4299 201.655 
	 36.4299 201.655 36.4299 201.655 36.4299 201.655 36.4299 201.655 
	 36.4299 201.655 36.4299 201.655 36.4299 201.655 36.4299 201.655 
	 36.4299 201.655 36.4299 201.655 36.4299 201.655 36.4299 201.655 
	 36.4299 201.655 36.4299 201.655 36.4299 201.655 "
	 style=" stroke:#000000; stroke-width:1; fill:#ababab; fill-opacity:100%"></polygon>
	<polygon points="34.3122 207.364 35.7117 208.917 37.4612 209.952 
	 38.8606 211.505 40.6102 212.54 42.3597 213.574 44.109 214.092 
	 45.8585 214.609 47.958 215.127 49.7072 215.127 51.4568 215.127 
	 53.2063 214.609 55.3055 214.092 57.0552 213.056 58.4546 211.505 
	 60.204 209.952 61.9534 207.882 61.2537 205.813 60.5538 204.26 
	 59.8542 202.707 58.8045 201.673 36.7615 201.156 35.7117 202.707 
	 35.3618 204.26 34.662 205.813 34.3122 207.364 34.3122 207.364 
	 34.3122 207.364 34.3122 207.364 34.3122 207.364 34.3122 207.364 
	 34.3122 207.364 34.3122 207.364 34.3122 207.364 34.3122 207.364 
	 34.3122 207.364 34.3122 207.364 34.3122 207.364 34.3122 207.364 
	 34.3122 207.364 34.3122 207.364 34.3122 207.364 "
	 style=" stroke:#000000; stroke-width:1; fill:#000000; fill-opacity:100%"></polygon>
	<polygon points="27.0982 80.4008 26.4025 76.3678 25.7068 71.8297 
	 25.359 67.7967 25.0112 63.2588 24.6633 58.7213 25.0112 53.6796 
	 25.359 49.1421 25.7068 44.6044 24.6633 44.1002 23.6198 43.5961 
	 22.9242 42.0836 22.5763 41.0752 22.2285 39.5625 21.8807 38.5544 
	 21.5328 37.0417 20.8371 36.0333 21.5328 36.5377 22.2285 37.5459 
	 23.2719 38.5544 23.9676 39.0585 24.6633 40.0669 25.359 40.571 
	 26.0546 41.0752 27.0982 41.0752 26.4025 33.5125 29.1852 40.571 
	 32.6634 33.5125 32.3156 39.5625 34.0549 37.5459 36.1418 36.0333 
	 37.881 35.025 39.9678 34.0166 41.7071 33.5125 43.7944 33.0084 
	 45.8811 32.5041 47.9682 32 45.5333 35.5292 47.2726 36.0333 
	 48.6638 36.0333 50.4032 36.5377 52.1424 37.5459 53.5334 38.05 
	 54.9247 38.5544 56.3162 39.5625 58.0553 40.0669 59.4466 40.571 
	 60.8381 41.0752 62.5771 41.0752 64.3165 41.0752 66.4033 41.0752 
	 68.1427 40.571 70.2295 40.0669 72.6642 39.0585 72.3165 40.0669 
	 71.6207 41.5793 70.9253 42.5877 69.8818 43.5961 69.186 44.6044 
	 68.1427 45.1085 67.0991 45.1085 66.0554 45.6128 66.7513 49.6461 
	 67.4469 53.6796 67.7948 58.2172 68.1427 62.7547 68.1427 67.2924 
	 67.7948 71.8297 67.4469 76.3678 67.0991 80.4008 27.0982 80.4008 
	 27.0982 80.4008 27.0982 80.4008 27.0982 80.4008 27.0982 80.4008 
	 27.0982 80.4008 27.0982 80.4008 27.0982 80.4008 27.0982 80.4008 
	 27.0982 80.4008 27.0982 80.4008 27.0982 80.4008 27.0982 80.4008 
	 27.0982 80.4008 27.0982 80.4008 27.0982 80.4008 27.0982 80.4008 "
	 style=" stroke:#000000; stroke-width:1; fill:#850202; fill-opacity:100%"></polygon>
	<polygon points="169.754 270.514 182.192 270.514 182.192 185.688 
	 169.754 185.688 169.754 270.514 169.754 270.514 169.754 270.514 
	 169.754 270.514 169.754 270.514 169.754 270.514 169.754 270.514 
	 169.754 270.514 169.754 270.514 169.754 270.514 169.754 270.514 
	 169.754 270.514 169.754 270.514 169.754 270.514 169.754 270.514 
	 169.754 270.514 169.754 270.514 "
	 style=" stroke:#000000; stroke-width:1; fill:#ababab; fill-opacity:100%"></polygon>
	<polygon points="130.711 186.684 224 186.684 224 44.4744 
	 130.711 44.4744 130.711 186.684 130.711 186.684 130.711 186.684 
	 130.711 186.684 130.711 186.684 130.711 186.684 130.711 186.684 
	 130.711 186.684 130.711 186.684 130.711 186.684 130.711 186.684 
	 130.711 186.684 130.711 186.684 130.711 186.684 130.711 186.684 
	 130.711 186.684 130.711 186.684 "
	 style=" stroke:#000000; stroke-width:1; fill:#ff0016; fill-opacity:100%"></polygon>
	<polygon points="136.585 178.203 218.816 178.203 218.816 59.9431 
	 136.585 59.9431 136.585 178.203 136.585 178.203 136.585 178.203 
	 136.585 178.203 136.585 178.203 136.585 178.203 136.585 178.203 
	 136.585 178.203 136.585 178.203 136.585 178.203 136.585 178.203 
	 136.585 178.203 136.585 178.203 136.585 178.203 136.585 178.203 
	 136.585 178.203 136.585 178.203 "
	 style=" stroke:#000000; stroke-width:1; fill:#ffffff; fill-opacity:100%"></polygon>
	<polyline points="146.604 59.9431 146.604 178.203"
	 style=" stroke:#000000; stroke-width:1;"></polyline>
	<polyline points="156.97 59.9431 156.97 178.203"
	 style=" stroke:#000000; stroke-width:1;"></polyline>
	<polyline points="168.026 59.9431 168.026 178.203"
	 style=" stroke:#000000; stroke-width:1;"></polyline>
	<polyline points="178.737 59.9431 178.737 178.203"
	 style=" stroke:#000000; stroke-width:1;"></polyline>
	<polyline points="188.756 59.9431 188.756 178.203"
	 style=" stroke:#000000; stroke-width:1;"></polyline>
	<polyline points="199.122 59.9431 199.122 178.203"
	 style=" stroke:#000000; stroke-width:1;"></polyline>
	<polyline points="208.797 59.9431 208.797 178.203"
	 style=" stroke:#000000; stroke-width:1;"></polyline>
	<polygon points="52.4168 136.848 58.6598 138.352 61.0875 144.873 
	 64.9027 145.373 65.2495 146.878 68.0243 146.878 68.3711 145.874 
	 70.7989 144.873 73.2266 144.371 75.3074 143.367 77.3885 142.364 
	 79.8162 140.86 81.8973 139.856 83.9782 138.352 86.4059 136.848 
	 88.487 135.342 90.5678 133.839 92.6489 132.334 95.0766 130.83 
	 97.1575 129.324 99.2386 127.82 101.319 126.316 103.748 124.81 
	 103.054 126.817 102.707 128.823 102.707 130.83 102.707 132.334 
	 103.4 133.839 104.094 135.342 105.482 136.346 107.216 136.848 
	 99.9322 145.373 91.9552 153.398 87.7932 153.899 73.9201 165.936 
	 71.4924 167.441 69.0646 167.942 66.6369 167.942 64.2092 168.443 
	 63.5153 169.949 64.5558 172.959 64.5558 174.963 63.5153 177.472 
	 62.1281 179.979 62.4749 184.493 62.4749 187.503 62.1281 190.01 
	 61.7813 192.017 61.0875 193.52 60.3938 194.524 59.7004 196.028 
	 59.3532 197.532 58.3131 203.049 57.6193 204.052 56.9256 205.056 
	 56.5788 205.056 55.8853 205.557 55.1914 206.06 54.4979 206.06 
	 54.151 206.56 53.4573 206.56 52.4168 207.061 51.7233 207.061 
	 51.0297 207.061 50.3359 207.061 49.6423 207.563 48.6016 207.563 
	 47.9082 207.563 46.8677 207.563 46.1739 207.061 45.4802 207.061 
	 44.4397 207.061 43.7463 207.061 43.0526 206.56 42.3589 206.56 
	 41.3183 206.06 40.6248 205.557 39.931 205.557 39.2375 205.056 
	 38.8906 204.554 38.1969 204.052 37.5032 203.55 36.8097 202.549 
	 35.0755 193.52 34.7286 191.515 34.3819 190.01 33.6882 188.504 
	 33.6882 187 33.3413 184.993 33.6882 182.988 34.0349 180.481 
	 35.0755 177.472 33.6882 169.447 28.1389 179.979 27.0985 182.988 
	 26.7517 184.993 27.4453 187 28.4858 188.504 28.8325 189.507 
	 29.5261 192.517 31.9541 196.028 31.6072 199.038 35.0755 204.554 
	 34.7286 205.557 34.3819 207.061 34.0349 208.064 33.6882 209.068 
	 33.6882 209.068 33.3413 210.07 33.3413 210.572 33.3413 211.074 
	 32.9946 212.077 32.9946 213.582 32.9946 214.585 32.9946 215.588 
	 32.9946 216.592 32.9946 218.095 32.9946 219.099 32.9946 220.604 
	 32.9946 221.606 32.9946 223.111 27.7921 212.077 18.4278 192.517 
	 17.3872 190.01 16.6936 188.004 16 186.499 16 184.493 
	 16 182.988 16.6936 181.485 17.3872 179.478 18.4278 177.472 
	 19.4681 174.963 20.1619 173.46 21.2024 171.954 22.2427 170.45 
	 23.2833 168.443 24.3238 165.936 25.3643 162.928 26.0579 159.918 
	 34.0349 144.873 42.3589 135.845 52.4168 136.848 52.4168 136.848 
	 52.4168 136.848 52.4168 136.848 52.4168 136.848 52.4168 136.848 
	 52.4168 136.848 52.4168 136.848 52.4168 136.848 52.4168 136.848 
	 52.4168 136.848 52.4168 136.848 52.4168 136.848 52.4168 136.848 
	 52.4168 136.848 52.4168 136.848 52.4168 136.848 "
	 style=" stroke:#000000; stroke-width:1; fill:#ffffff; fill-opacity:100%"></polygon>
	<polygon points="45.0455 141.281 52.892 140.777 50.3953 146.309 
	 51.1086 148.321 51.4653 149.83 51.1086 151.338 50.7521 153.35 
	 51.1086 157.877 51.1086 162.905 51.4653 168.436 51.8221 173.466 
	 52.5352 178.494 53.2486 184.026 54.3186 188.552 55.3885 193.581 
	 50.3953 205.146 44.3321 194.084 45.0455 188.552 45.402 183.524 
	 45.7588 178.494 46.1154 173.466 46.4721 168.436 46.4721 163.408 
	 46.8286 158.378 47.1853 153.853 46.8286 151.841 46.4721 149.83 
	 46.8286 148.321 47.1853 146.309 45.0455 141.281 45.0455 141.281 
	 45.0455 141.281 45.0455 141.281 45.0455 141.281 45.0455 141.281 
	 45.0455 141.281 45.0455 141.281 45.0455 141.281 45.0455 141.281 
	 45.0455 141.281 45.0455 141.281 45.0455 141.281 45.0455 141.281 
	 45.0455 141.281 45.0455 141.281 45.0455 141.281 "
	 style=" stroke:#000000; stroke-width:1; fill:#850285; fill-opacity:100%"></polygon>
	<polyline points="47.0962 146.267 50.5513 146.267"
	 style=" stroke:#000000; stroke-width:1;"></polyline>
	<polyline points="47.0962 154.251 50.8969 153.253"
	 style=" stroke:#000000; stroke-width:1;"></polyline>
	<polyline points="95.8904 129.801 95.1611 132.381 94.4315 134.447 
	 94.4315 136.511 94.7963 139.092 95.5256 140.641 96.9845 142.189 
	 98.4433 143.737 100.997 144.769"
	 style=" stroke:#000000; stroke-width:1;"></polyline>
	<polyline points="31.8936 198.66 28.0929 212.133"
	 style=" stroke:#000000; stroke-width:1;"></polyline>
	<polyline points="49.1693 240.576 48.4783 270.514"
	 style=" stroke:#000000; stroke-width:1;"></polyline>
	<polygon points="45.3686 215.626 55.7339 215.626 55.7339 205.148 
	 45.3686 205.148 45.3686 215.626 45.3686 215.626 45.3686 215.626 
	 45.3686 215.626 45.3686 215.626 45.3686 215.626 45.3686 215.626 
	 45.3686 215.626 45.3686 215.626 45.3686 215.626 45.3686 215.626 
	 45.3686 215.626 45.3686 215.626 45.3686 215.626 45.3686 215.626 
	 45.3686 215.626 45.3686 215.626 "
	 style=" stroke:#000000; stroke-width:1; fill:#ffff14; fill-opacity:100%"></polygon>
	<polygon points="46.7506 214.128 54.6975 214.128 54.6975 206.643 
	 46.7506 206.643 46.7506 214.128 46.7506 214.128 46.7506 214.128 
	 46.7506 214.128 46.7506 214.128 46.7506 214.128 46.7506 214.128 
	 46.7506 214.128 46.7506 214.128 46.7506 214.128 46.7506 214.128 
	 46.7506 214.128 46.7506 214.128 46.7506 214.128 46.7506 214.128 
	 46.7506 214.128 46.7506 214.128 "
	 style=" stroke:#000000; stroke-width:1; fill:#000000; fill-opacity:100%"></polygon>
	<polyline points="109.288 118.163 109.641 116.627 110.346 115.605 
	 111.403 114.582 112.108 113.56 112.813 113.048 113.518 112.535 
	 114.575 112.535 115.633 112.023 121.623 105.886 122.681 104.864 
	 123.738 104.353 124.795 104.353 125.853 105.376 126.205 106.398 
	 126.91 107.421 126.91 108.444 126.91 108.956 126.91 109.468 
	 126.91 109.978 126.557 110.49 126.557 111.001 126.557 111.513 
	 126.205 112.023 126.205 112.535 125.853 113.048 125.853 113.56 
	 125.147 114.07 124.795 114.582 124.443 115.093 124.09 115.605 
	 123.738 116.115 123.386 116.115 123.033 116.115 122.681 116.627 
	 120.566 116.627 118.452 116.115 118.452 117.651 118.804 118.673 
	 118.452 120.207 118.1 121.23 117.747 122.255 117.394 123.277 
	 117.042 123.788 116.337 124.81"
	 style=" stroke:#000000; stroke-width:1;"></polyline>
	<polyline points="117.235 123.755 118.303 124.282 119.371 124.282 
	 120.439 124.81 121.508 124.282 122.22 124.282 123.287 123.755 
	 123.999 123.226 124.711 122.697 125.423 122.169 126.135 121.112 
	 126.847 120.055 127.203 119.528 127.915 118.47 128.27 117.415 
	 128.627 116.885 128.982 115.83"
	 style=" stroke:#000000; stroke-width:1;"></polyline>
	<polyline points="119.309 124.311 119.309 125.452 119.666 126.593 
	 120.023 127.734 120.738 128.303 121.096 128.303 122.168 128.303 
	 122.883 128.303 123.598 128.303 124.67 128.303 125.385 127.734 
	 126.457 127.164 127.171 126.593 127.887 126.593 128.602 126.022 
	 128.96 126.022 129.674 125.452"
	 style=" stroke:#000000; stroke-width:1;"></polyline>
	<polyline points="121.382 128.303 121.382 129.467 121.382 130.633 
	 122.119 131.215 122.856 131.797 123.593 131.797 124.699 131.797 
	 125.804 131.797 126.91 131.797"
	 style=" stroke:#000000; stroke-width:1;"></polyline>
	<polygon points="44.4316 131.797 39.1494 147.266 48.3054 143.656 
	 57.4616 146.234 51.827 132.313 44.4316 131.797 44.4316 131.797 
	 44.4316 131.797 44.4316 131.797 44.4316 131.797 44.4316 131.797 
	 44.4316 131.797 44.4316 131.797 44.4316 131.797 44.4316 131.797 
	 44.4316 131.797 44.4316 131.797 44.4316 131.797 44.4316 131.797 
	 44.4316 131.797 44.4316 131.797 44.4316 131.797 "
	 style=" stroke:#000000; stroke-width:1; fill:#ffffff; fill-opacity:100%"></polygon>
	<polygon points="43.2956 128.303 43.655 130.367 44.3735 132.428 
	 44.7329 134.492 45.4514 136.553 45.8109 138.617 46.5297 140.163 
	 47.2482 142.226 48.3261 143.773 49.4043 141.709 50.4822 140.163 
	 50.8417 138.101 51.5602 136.038 51.9195 133.975 51.9195 131.913 
	 52.279 129.85 52.279 128.303 43.2956 128.303 43.2956 128.303 
	 43.2956 128.303 43.2956 128.303 43.2956 128.303 43.2956 128.303 
	 43.2956 128.303 43.2956 128.303 43.2956 128.303 43.2956 128.303 
	 43.2956 128.303 43.2956 128.303 43.2956 128.303 43.2956 128.303 
	 43.2956 128.303 43.2956 128.303 43.2956 128.303 "
	 style=" stroke:#000000; stroke-width:1; fill:#ffc283; fill-opacity:100%"></polygon>
	<polygon points="29.1678 88.1366 30.212 90.6462 30.9082 93.6571 
	 31.6044 96.668 32.3005 99.1763 32.6486 102.187 33.3447 105.198 
	 34.0408 108.208 34.7371 111.22 35.0851 112.224 35.4332 113.73 
	 35.7812 115.234 36.4774 116.739 36.8254 118.245 37.5215 119.75 
	 38.2179 121.757 39.262 123.264 40.3062 125.271 41.3503 126.776 
	 42.3947 128.282 43.7869 129.284 44.831 130.289 46.2235 131.291 
	 47.6157 131.794 49.3562 132.295 50.4003 131.794 51.7927 131.291 
	 52.4887 130.79 53.5329 129.787 54.2291 128.783 55.2732 127.78 
	 55.9696 126.275 56.6655 124.769 57.3618 123.264 57.7097 121.757 
	 58.0579 120.252 58.7541 118.746 59.1019 117.242 59.4502 115.737 
	 59.7983 114.732 60.1463 113.227 60.8424 110.719 61.1905 107.708 
	 61.8866 104.696 62.2346 102.187 62.5827 99.1763 63.2788 96.668 
	 64.3232 94.1585 65.3674 91.1476 66.4116 91.6502 67.4558 91.6502 
	 68.1519 91.1476 68.848 90.6462 70.2402 88.6393 70.5885 87.6352 
	 70.5885 86.6311 70.9366 85.6283 70.5885 84.1229 70.5885 83.1188 
	 70.2402 82.116 68.848 80.6105 68.1519 80.1078 67.1078 80.1078 
	 66.7597 76.0941 66.4116 71.5777 66.0634 67.0613 65.7156 63.0469 
	 65.3674 58.5306 65.0193 54.5162 64.3232 50.5018 63.2788 45.9857 
	 56.6655 45.4838 59.7983 48.9965 44.483 43.4765 48.6599 48.4946 
	 42.0466 45.4838 38.9138 48.4946 34.0408 49.4981 30.9082 45.4838 
	 30.212 53.0107 29.5159 44.982 28.4718 48.9965 27.7756 53.0107 
	 27.7756 57.0253 27.7756 61.5415 28.1237 65.5559 28.4718 70.0722 
	 28.8198 74.5886 28.8198 79.1051 27.4274 78.6024 26.3833 79.1051 
	 25.339 79.6064 24.643 80.1078 23.9467 82.116 23.9467 83.1188 
	 23.9467 84.1229 24.2949 85.6283 24.643 86.6311 25.6871 87.6352 
	 26.3833 88.1366 27.0794 88.6393 28.1237 88.6393 29.1678 88.1366 
	 29.1678 88.1366 29.1678 88.1366 29.1678 88.1366 29.1678 88.1366 
	 29.1678 88.1366 29.1678 88.1366 29.1678 88.1366 29.1678 88.1366 
	 29.1678 88.1366 29.1678 88.1366 29.1678 88.1366 29.1678 88.1366 
	 29.1678 88.1366 29.1678 88.1366 29.1678 88.1366 29.1678 88.1366 "
	 style=" stroke:#000000; stroke-width:1; fill:#ffc283; fill-opacity:100%"></polygon>
	<polygon points="40.7098 62.9369 41.0665 62.9369 41.7798 62.9369 
	 42.1364 63.4515 42.8496 63.4515 43.2064 63.966 43.5632 64.4805 
	 44.2763 64.9952 44.6331 65.5097 44.9897 66.0246 45.3465 66.5388 
	 45.3465 67.0535 45.7029 68.0829 45.7029 68.5971 46.0597 69.6265 
	 46.0597 70.1413 46.0597 71.1697 46.0597 71.6851 46.0597 72.7135 
	 45.7029 73.7432 45.7029 74.2574 45.3465 75.287 45.3465 75.8012 
	 44.9897 76.3154 44.6331 76.8309 44.2763 77.345 43.5632 77.8592 
	 43.2064 78.3747 42.8496 78.8889 42.1364 78.8889 41.7798 79.4031 
	 41.0665 79.4031 40.7098 79.4031 40.3531 79.4031 39.6399 79.4031 
	 38.9265 78.8889 38.5697 78.8889 38.2132 78.3747 37.4998 77.8592 
	 37.143 77.345 36.7866 76.8309 36.4298 76.3154 36.0732 75.8012 
	 35.7165 75.287 35.7165 74.2574 35.3599 73.7432 35.3599 72.7135 
	 35.0032 72.1993 35.0032 71.1697 35.0032 70.6555 35.3599 69.6265 
	 35.3599 68.5971 35.7165 68.0829 35.7165 67.0535 36.0732 66.5388 
	 36.4298 66.0246 36.7866 65.5097 37.143 64.9952 37.4998 64.4805 
	 38.2132 63.966 38.5697 63.4515 38.9265 63.4515 39.6399 62.9369 
	 39.9963 62.9369 40.7098 62.9369 40.7098 62.9369 40.7098 62.9369 
	 40.7098 62.9369 40.7098 62.9369 40.7098 62.9369 40.7098 62.9369 
	 40.7098 62.9369 40.7098 62.9369 40.7098 62.9369 40.7098 62.9369 
	 40.7098 62.9369 40.7098 62.9369 40.7098 62.9369 40.7098 62.9369 
	 40.7098 62.9369 40.7098 62.9369 "
	 style=" stroke:#000000; stroke-width:1; fill:#ffffff; fill-opacity:100%"></polygon>
	<polygon points="55.9125 61.44 55.9125 61.44 56.9825 61.9547 
	 57.3391 61.9547 58.0523 62.4689 58.4091 62.4689 58.7658 62.9837 
	 59.1222 63.4983 59.8357 64.013 59.8357 64.5272 60.1924 65.5566 
	 60.549 66.0713 60.9056 66.5855 60.9056 67.6149 61.2623 68.1296 
	 61.2623 69.1586 61.2623 69.6731 61.2623 70.1873 61.2623 71.7312 
	 60.9056 72.2466 60.9056 73.275 60.549 73.7892 60.1924 74.3047 
	 59.8357 75.3331 59.8357 75.8485 59.1222 76.3627 58.7658 76.8769 
	 58.4091 76.8769 58.0523 77.3911 57.3391 77.9066 56.9825 77.9066 
	 56.2689 77.9066 55.9125 77.9066 55.5558 77.9066 54.8423 77.9066 
	 54.1292 77.9066 53.4156 77.3911 53.0592 76.8769 52.7025 76.8769 
	 52.3457 76.3627 51.9893 75.8485 51.6325 75.3331 51.2759 74.3047 
	 50.9191 73.7892 50.5626 73.275 50.5626 72.2466 50.5626 71.7312 
	 50.2059 70.7028 50.2059 69.6731 50.2059 69.6731 50.5626 68.1296 
	 50.5626 67.6149 50.5626 66.5855 50.9191 66.0713 51.2759 65.5566 
	 51.6325 64.5272 51.9893 64.013 52.3457 63.4983 52.7025 62.9837 
	 53.0592 62.4689 53.4156 62.4689 54.1292 61.9547 54.8423 61.9547 
	 55.199 61.44 55.9125 61.44 55.9125 61.44 55.9125 61.44 
	 55.9125 61.44 55.9125 61.44 55.9125 61.44 55.9125 61.44 
	 55.9125 61.44 55.9125 61.44 55.9125 61.44 55.9125 61.44 
	 55.9125 61.44 55.9125 61.44 55.9125 61.44 55.9125 61.44 
	 55.9125 61.44 55.9125 61.44 "
	 style=" stroke:#000000; stroke-width:1; fill:#ffffff; fill-opacity:100%"></polygon>
	<polygon points="43.2954 73.1663 43.2954 73.1663 42.9115 72.6048 
	 42.9115 72.6048 42.9115 72.6048 42.9115 72.0433 42.9115 72.0433 
	 42.9115 72.0433 42.9115 72.0433 42.5278 71.4818 42.5278 71.4818 
	 42.5278 71.4818 42.1439 71.4818 42.1439 71.4818 42.1439 71.4818 
	 41.7599 70.9202 41.7599 70.9202 41.7599 70.9202 41.3759 70.9202 
	 41.3759 70.9202 40.9922 70.9202 40.9922 70.9202 40.9922 71.4818 
	 40.6082 71.4818 40.6082 71.4818 40.6082 71.4818 40.2242 71.4818 
	 40.2242 71.4818 40.2242 72.0433 40.2242 72.0433 39.8403 72.0433 
	 39.8403 72.0433 39.8403 72.6048 39.8403 72.6048 39.8403 72.6048 
	 39.8403 73.1663 39.8403 73.1663 39.8403 73.1663 39.8403 73.7278 
	 39.8403 73.7278 39.8403 73.7278 39.8403 74.2893 39.8403 74.2893 
	 40.2242 74.2893 40.2242 74.2893 40.2242 74.8496 40.2242 74.8496 
	 40.6082 74.8496 40.6082 74.8496 40.6082 74.8496 40.9922 74.8496 
	 40.9922 75.4111 40.9922 75.4111 41.3759 75.4111 41.3759 75.4111 
	 41.7599 75.4111 41.7599 75.4111 41.7599 75.4111 42.1439 74.8496 
	 42.1439 74.8496 42.1439 74.8496 42.5278 74.8496 42.5278 74.8496 
	 42.5278 74.8496 42.9115 74.2893 42.9115 74.2893 42.9115 74.2893 
	 42.9115 74.2893 42.9115 73.7278 42.9115 73.7278 42.9115 73.7278 
	 43.2954 73.1663 43.2954 73.1663 43.2954 73.1663 43.2954 73.1663 
	 43.2954 73.1663 43.2954 73.1663 43.2954 73.1663 43.2954 73.1663 
	 43.2954 73.1663 43.2954 73.1663 43.2954 73.1663 43.2954 73.1663 
	 43.2954 73.1663 43.2954 73.1663 43.2954 73.1663 43.2954 73.1663 
	 43.2954 73.1663 43.2954 73.1663 "
	 style=" stroke:#000000; stroke-width:1; fill:#000000; fill-opacity:100%"></polygon>
	<polygon points="57.116 72.1686 56.7321 72.1686 56.7321 71.6071 
	 56.7321 71.6071 56.7321 71.6071 56.7321 71.0456 56.7321 71.0456 
	 56.7321 71.0456 56.3482 71.0456 56.3482 70.4841 56.3482 70.4841 
	 56.3482 70.4841 55.9644 70.4841 55.9644 70.4841 55.9644 69.9226 
	 55.5804 69.9226 55.5804 69.9226 55.1965 69.9226 55.1965 69.9226 
	 55.1965 69.9226 54.8126 69.9226 54.8126 69.9226 54.8126 69.9226 
	 54.4289 70.4841 54.4289 70.4841 54.4289 70.4841 54.0448 70.4841 
	 54.0448 70.4841 54.0448 71.0456 53.6609 71.0456 53.6609 71.0456 
	 53.6609 71.0456 53.6609 71.6071 53.6609 71.6071 53.6609 71.6071 
	 53.6609 72.1686 53.6609 72.1686 53.6609 72.1686 53.6609 72.7289 
	 53.6609 72.7289 53.6609 72.7289 53.6609 72.7289 53.6609 73.2904 
	 53.6609 73.2904 54.0448 73.2904 54.0448 73.8519 54.0448 73.8519 
	 54.4289 73.8519 54.4289 73.8519 54.4289 73.8519 54.8126 73.8519 
	 54.8126 74.4134 54.8126 74.4134 55.1965 74.4134 55.1965 74.4134 
	 55.1965 74.4134 55.5804 74.4134 55.5804 74.4134 55.9644 73.8519 
	 55.9644 73.8519 55.9644 73.8519 56.3482 73.8519 56.3482 73.8519 
	 56.3482 73.8519 56.3482 73.2904 56.7321 73.2904 56.7321 73.2904 
	 56.7321 72.7289 56.7321 72.7289 56.7321 72.7289 56.7321 72.7289 
	 56.7321 72.1686 57.116 72.1686 57.116 72.1686 57.116 72.1686 
	 57.116 72.1686 57.116 72.1686 57.116 72.1686 57.116 72.1686 
	 57.116 72.1686 57.116 72.1686 57.116 72.1686 57.116 72.1686 
	 57.116 72.1686 57.116 72.1686 57.116 72.1686 57.116 72.1686 
	 57.116 72.1686 57.116 72.1686 "
	 style=" stroke:#000000; stroke-width:1; fill:#000000; fill-opacity:100%"></polygon>
	<polyline points="36.0397 62.4379 36.4236 60.2605 37.1914 58.6276 
	 38.3433 57.5388 39.4948 56.4502"
	 style=" stroke:#000000; stroke-width:1;"></polyline>
	<polyline points="54.0065 56.949 55.4873 56.949 56.9682 57.5194 
	 58.0787 58.6599 59.1893 60.941"
	 style=" stroke:#000000; stroke-width:1;"></polyline>
	<polygon points="37.7673 90.3814 38.8223 91.9163 39.8773 93.4512 
	 41.2841 94.9873 42.3393 96.0106 43.746 97.0339 44.801 97.5455 
	 46.2077 98.0571 47.6145 98.0571 48.6695 98.0571 50.0762 97.5455 
	 51.483 97.0339 52.538 96.5222 53.9448 94.9873 54.9996 93.9628 
	 56.0549 91.9163 57.4616 90.3814 56.7582 92.4279 56.0549 94.9873 
	 55.3514 97.0339 54.6481 99.5933 53.9448 101.64 53.593 104.199 
	 53.2414 107.27 53.2414 110.34 52.538 109.317 51.1312 108.292 
	 49.7244 107.781 47.9662 107.27 46.5594 107.27 44.801 107.781 
	 43.0426 108.292 41.6358 109.83 41.9876 107.27 41.6358 104.711 
	 41.2841 102.153 40.5808 100.105 39.8773 97.5455 39.1741 94.9873 
	 38.4705 92.4279 37.7673 90.3814 37.7673 90.3814 37.7673 90.3814 
	 37.7673 90.3814 37.7673 90.3814 37.7673 90.3814 37.7673 90.3814 
	 37.7673 90.3814 37.7673 90.3814 37.7673 90.3814 37.7673 90.3814 
	 37.7673 90.3814 37.7673 90.3814 37.7673 90.3814 37.7673 90.3814 
	 37.7673 90.3814 37.7673 90.3814 "
	 style=" stroke:#000000; stroke-width:1; fill:#ffffff; fill-opacity:100%"></polygon>
	<polyline points="40.8771 100.444 42.2945 101.608 44.4207 102.19 
	 46.1926 102.772 48.3188 103.354 50.0906 102.772 51.8626 102.19 
	 53.28 101.027 54.6975 99.8619"
	 style=" stroke:#000000; stroke-width:1;"></polyline>
	<polyline points="43.2956 96.8676 43.2956 108.345"
	 style=" stroke:#000000; stroke-width:1;"></polyline>
	<polyline points="47.7873 97.8653 47.7873 107.346"
	 style=" stroke:#000000; stroke-width:1;"></polyline>
	<polyline points="51.9334 96.8676 51.9334 108.844"
	 style=" stroke:#000000; stroke-width:1;"></polyline>
	<polyline points="44.3321 116.329 45.7908 114.997 47.6145 114.332 
	 49.4381 114.997 50.8969 116.329"
	 style=" stroke:#000000; stroke-width:1;"></polyline>
	<polyline points="25.3289 83.1226 25.3289 82.0341 26.0966 80.4008 
	 28.0162 80.4008 28.4001 80.9456 28.4001 82.0341 26.8645 82.0341 
	 26.4805 84.2124 27.2483 84.2124 27.6323 84.756 28.0162 84.756 
	 28.4001 84.2124 28.4001 84.2124 28.784 84.756 28.784 85.8445 
	 28.784 86.3894 28.4001 86.3894"
	 style=" stroke:#000000; stroke-width:1;"></polyline>
	<polyline points="69.2091 84.559 69.2091 83.4782 68.8251 82.9384 
	 68.4414 82.9384 68.0574 82.3974 67.2895 82.3974 66.9058 82.3974 
	 66.1379 83.4782 66.1379 85.6411 66.5217 85.6411 66.9058 86.1809 
	 67.2895 85.6411 67.6734 85.6411 68.0574 85.6411 68.0574 87.263 
	 67.6734 87.8028 67.2895 87.8028 66.9058 87.8028 66.5217 87.8028 
	 66.1379 87.8028 65.7539 87.8028 65.7539 88.3438 65.7539 88.8836"
	 style=" stroke:#000000; stroke-width:1;"></polyline>
	<polyline points="120.691 108.095 122.165 105.932 122.902 105.391 
	 123.639 104.852 124.745 105.391 125.482 105.932 126.219 107.014 
	 126.219 108.095 125.482 109.717 125.113 110.798 124.376 111.338 
	 122.902 110.798 121.428 109.717 120.691 108.635 120.691 108.095"
	 style=" stroke:#000000; stroke-width:1;"></polyline>
	<polygon points="121.036 108.345 121.468 108.345 121.9 108.969 
	 122.332 109.592 122.764 110.215 122.764 110.839 121.468 109.592 
	 121.036 108.969 121.036 108.345 121.036 108.345 121.036 108.345 
	 121.036 108.345 121.036 108.345 121.036 108.345 121.036 108.345 
	 121.036 108.345 121.036 108.345 121.036 108.345 121.036 108.345 
	 121.036 108.345 121.036 108.345 121.036 108.345 121.036 108.345 
	 121.036 108.345 121.036 108.345 "
	 style=" stroke:#000000; stroke-width:1; fill:#ffffff; fill-opacity:100%"></polygon>
	<polyline points="136.585 71.9192 218.816 71.9192"
	 style=" stroke:#000000; stroke-width:1;"></polyline>
	<polyline points="136.585 84.8916 218.816 84.8916"
	 style=" stroke:#000000; stroke-width:1;"></polyline>
	<polyline points="136.585 97.8653 218.816 97.8653"
	 style=" stroke:#000000; stroke-width:1;"></polyline>
	<polyline points="136.585 110.839 218.816 110.839"
	 style=" stroke:#000000; stroke-width:1;"></polyline>
	<polyline points="136.585 123.814 218.816 123.814"
	 style=" stroke:#000000; stroke-width:1;"></polyline>
	<polyline points="136.585 136.786 218.816 136.786"
	 style=" stroke:#000000; stroke-width:1;"></polyline>
	<polyline points="136.585 150.259 218.816 150.259"
	 style=" stroke:#000000; stroke-width:1;"></polyline>
	<polyline points="136.585 163.232 218.816 163.232"
	 style=" stroke:#000000; stroke-width:1;"></polyline>
	<polygon points="125.528 105.318 170.444 68.9246 126.921 107.845 
	 125.528 105.318 125.528 105.318 125.528 105.318 125.528 105.318 
	 125.528 105.318 125.528 105.318 125.528 105.318 125.528 105.318 
	 125.528 105.318 125.528 105.318 125.528 105.318 125.528 105.318 
	 125.528 105.318 125.528 105.318 125.528 105.318 125.528 105.318 125.528 105.318 "
	 style=" stroke:#000000; stroke-width:1; fill:#ffff14; fill-opacity:100%"></polygon>
	<polygon points="173.555 68.1764 173.555 68.1764 173.555 68.1764 
	 173.174 67.6149 173.174 67.6149 173.174 67.0535 173.174 67.0535 
	 173.174 67.0535 173.174 66.492 172.794 66.492 172.794 66.492 
	 172.794 66.492 172.414 66.492 172.414 65.9308 172.414 65.9308 
	 172.034 65.9308 172.034 65.9308 171.654 65.9308 171.654 65.9308 
	 171.654 65.9308 171.275 65.9308 171.275 65.9308 171.275 65.9308 
	 170.893 65.9308 170.893 66.492 170.514 66.492 170.514 66.492 
	 170.514 66.492 170.514 66.492 170.134 67.0535 170.134 67.0535 
	 170.134 67.0535 170.134 67.6149 170.134 67.6149 169.754 68.1764 
	 169.754 68.1764 169.754 68.1764 169.754 68.7375 169.754 68.7375 
	 170.134 68.7375 170.134 69.2989 170.134 69.2989 170.134 69.2989 
	 170.134 69.8599 170.514 69.8599 170.514 69.8599 170.514 69.8599 
	 170.514 70.4214 170.893 70.4214 170.893 70.4214 171.275 70.4214 
	 171.275 70.4214 171.275 70.4214 171.654 70.4214 171.654 70.4214 
	 171.654 70.4214 172.034 70.4214 172.034 70.4214 172.414 70.4214 
	 172.414 70.4214 172.414 70.4214 172.794 70.4214 172.794 69.8599 
	 172.794 69.8599 173.174 69.8599 173.174 69.8599 173.174 69.2989 
	 173.174 69.2989 173.174 69.2989 173.174 68.7375 173.555 68.7375 
	 173.555 68.7375 173.555 68.1764 173.555 68.1764 173.555 68.1764 
	 173.555 68.1764 173.555 68.1764 173.555 68.1764 173.555 68.1764 
	 173.555 68.1764 173.555 68.1764 173.555 68.1764 173.555 68.1764 
	 173.555 68.1764 173.555 68.1764 173.555 68.1764 173.555 68.1764 
	 173.555 68.1764 173.555 68.1764 "
	 style=" stroke:#000000; stroke-width:1; fill:#ffff14; fill-opacity:100%"></polygon>
	<polyline points="43.9864 81.0927 44.3453 82.7044 44.7042 83.7788 
	 45.4217 84.8532 46.1394 84.8532 47.2157 85.3904 49.0098 85.3904 
	 50.4449 85.3904 51.5214 84.8532 51.8802 84.316 52.9565 82.7044 
	 52.9565 81.0927 53.3153 80.017 53.3153 78.4054"
	 style=" stroke:#000000; stroke-width:1;"></polyline>
	<polyline points="45.3686 77.4077 46.4849 76.0775 47.229 76.0775 
	 48.3453 75.4111 49.0896 76.0775 50.2058 76.0775"
	 style=" stroke:#000000; stroke-width:1;"></polyline>
      </g>
      <polyline points="139.345 180.326 149.667 172.486 159.989 162.033 
       170.31 156.806 183.213 151.579 193.535 138.512 203.856 133.285 
       224.5 172.486"
       style=" stroke:#000000; stroke-width:1;"></polyline>
      <polyline points="864 304 880 320.842"
       style=" stroke:#000000; stroke-width:1;"></polyline>
    </g>
  </symbol>
 </defs>
</svg>
