<?xml version="1.0"?>
<?metis version="3.1"?>
<?metisxml version="1.0"?>
<!DOCTYPE svg  PUBLIC "-//W3C//DTD SVG August 1999//EN"
 "http://www.w3.org/Graphics/SVG/svg-19990812.dtd">

<svg width="200" height="200">
 <title>Symbol library: it_product.svg</title>
 <defs>
  <symbol id="oid1" xml:space="preserve" class="METIS_SYMBOL">
   <title>IT Product</title>
    <g>
      <polygon points="0 0 0 304 16.2963 320 
       880 320 880 16 863.704 0 0 0 
       0 0 0 0 0 0 0 0 
       0 0 0 0 "
       style=" stroke:#000000; stroke-width:1; fill:#9b9b9b; fill-opacity:100%"       class="TAG:shadow"></polygon>
      <rect x="240" y="240" width="624" height="64"
       style=" stroke:#000000; stroke-width:1; fill:#dcdcdc; fill-opacity:100%"       class="TAG:PropertyBackground"></rect>
      <rect x="0" y="0" width="240" height="304"
       style=" stroke:#000000; stroke-width:1; fill:#00a500; fill-opacity:100%"       class="TAG:PictureBackground"></rect>
      <rect x="240" y="0" width="624" height="240"
       style=" stroke:#000000; stroke-width:1; fill:#c8ffc8; fill-opacity:100%"       class="TAG:canvas"></rect>
      <g>
	<desc>METIS_TEXT_GROUP</desc>
	<text  x="256" y="15.8"
	 style=" stroke:#000000; stroke-width:1; font-family:sans-serif; font-size:16;"
	 class="TAG:text">text</text>
	<rect x="256" y="0" width="608" height="240"
	 style=" stroke:#000000; stroke-width:1; fill:#ffffff; fill-opacity:0%"></rect>
      </g>
      <g>
	<desc>METIS_TEXT_GROUP</desc>
	<text  x="256" y="252.8"
	 style=" stroke:#000000; stroke-width:1; font-family:sans-serif; font-size:13;"
	 class="TAG:type">type</text>
	<rect x="256" y="240" width="608" height="64"
	 style=" stroke:#000000; stroke-width:1; fill:#ffffff; fill-opacity:0%"></rect>
      </g>
      <polyline points="864 304 880 320"
       style=" stroke:#000000; stroke-width:1;"></polyline>
      <g>
	<polygon points="94.3451 48.5961 23.9468 74.2238 46.835 230.97 
	 116.54 195.807 116.54 195.807 116.54 195.807 116.887 195.807 
	 117.233 195.21 117.233 195.21 117.58 195.21 117.58 195.21 
	 117.58 194.614 117.58 194.614 117.927 194.019 117.927 194.019 
	 117.927 194.019 117.927 193.421 117.927 193.421 117.58 192.825 
	 117.58 192.825 117.58 192.23 98.5066 52.1718 98.16 51.5759 
	 98.16 51.5759 98.16 50.9801 98.16 50.384 97.8132 49.7881 
	 97.8132 49.192 97.8132 49.192 97.4664 48.5961 97.1195 48.5961 
	 97.1195 48 96.7728 48 96.426 48 96.0791 48 
	 95.7323 48 95.3857 48 95.0388 48 94.3451 48.5961 
	 94.3451 48.5961 94.3451 48.5961 94.3451 48.5961 94.3451 48.5961 
	 94.3451 48.5961 94.3451 48.5961 "
	 style=" stroke:#000000; stroke-width:1; fill:#ffffff; fill-opacity:100%"></polygon>
	<polygon points="16 81.2944 24.0361 74.1386 47.0964 230.97 
	 37.6625 227.391 16 81.2944 16 81.2944 16 81.2944 
	 16 81.2944 16 81.2944 16 81.2944 16 81.2944 "
	 style=" stroke:#000000; stroke-width:1; fill:#ababab; fill-opacity:100%"></polygon>
	<polygon points="39.8404 111.088 52.6927 200.079 105.143 174.397 
	 92.6382 88.9898 39.8404 111.088 39.8404 111.088 39.8404 111.088 
	 39.8404 111.088 39.8404 111.088 39.8404 111.088 39.8404 111.088 "
	 style=" stroke:#ffff00; stroke-width:1; fill:#000000; fill-opacity:100%"></polygon>
	<polygon points="63.0763 111.565 52.279 181.662 95.4684 163.69 
	 63.0763 111.565 63.0763 111.565 63.0763 111.565 63.0763 111.565 
	 63.0763 111.565 63.0763 111.565 63.0763 111.565 "
	 style=" stroke:#ab0202; stroke-width:1; fill:#ab0202; fill-opacity:100%"></polygon>
	<polygon points="64.8171 108 52.279 177.504 95.8139 163.123 
	 64.8171 108 64.8171 108 64.8171 108 64.8171 108 
	 64.8171 108 64.8171 108 64.8171 108 "
	 style=" stroke:#ff0000; stroke-width:1; fill:#ff0000; fill-opacity:100%"></polygon>
	<polygon points="67.2512 103.842 52.6246 171.565 96.5051 161.376 
	 67.2512 103.842 67.2512 103.842 67.2512 103.842 67.2512 103.842 
	 67.2512 103.842 67.2512 103.842 67.2512 103.842 "
	 style=" stroke:#ff00ab; stroke-width:1; fill:#ff00ab; fill-opacity:100%"></polygon>
	<polygon points="90.9768 149.936 90.2761 151.768 89.2244 153.597 
	 88.1733 154.818 87.1219 156.039 85.7201 156.647 84.3183 157.868 
	 83.267 158.478 81.8652 158.478 80.4633 159.09 79.0616 158.478 
	 77.6597 158.478 76.2578 157.868 74.8561 156.647 73.8045 156.039 
	 72.7533 154.818 71.3514 153.597 70.3002 151.768 69.5992 149.936 
	 68.8984 148.106 68.1976 145.667 67.4965 143.837 67.146 141.395 
	 66.4453 138.955 66.4453 136.515 67.4965 140.175 68.5478 143.225 
	 69.5992 145.667 70.6507 148.717 72.4029 150.546 74.155 152.987 
	 76.2578 154.208 78.3605 154.818 80.8135 154.818 82.9164 154.208 
	 85.019 152.987 86.4209 151.768 88.1733 149.936 88.8742 148.106 
	 89.575 146.887 90.9768 149.936 90.9768 149.936 90.9768 149.936 
	 90.9768 149.936 90.9768 149.936 90.9768 149.936 90.9768 149.936 "
	 style=" stroke:#ffab00; stroke-width:1; fill:#ffab00; fill-opacity:100%"></polygon>
	<polygon points="79.7474 107.406 81.1468 107.406 82.5461 107.406 
	 83.9454 108.008 85.3448 108.609 86.3942 109.812 87.7936 111.015 
	 88.4932 112.217 89.5427 114.022 90.5923 115.827 91.2919 117.63 
	 91.9916 119.436 92.6913 121.841 93.0408 124.246 93.3909 126.053 
	 93.7407 128.457 93.7407 131.465 93.7407 133.871 93.3909 136.277 
	 93.0408 138.684 92.6913 140.488 91.9916 142.893 91.2919 144.697 
	 90.5923 146.503 89.5427 148.307 88.4932 150.111 87.7936 151.315 
	 86.3942 152.518 85.3448 153.72 83.9454 154.32 82.5461 154.924 
	 81.1468 155.526 79.7474 155.526 78.3481 155.526 76.9487 154.924 
	 75.5494 154.32 74.5 153.72 73.1006 152.518 72.0513 151.315 
	 71.0018 150.111 69.952 148.307 68.9026 146.503 68.2031 144.697 
	 67.5033 142.893 66.8038 140.488 66.454 138.684 66.1039 136.277 
	 66.1039 133.871 65.7541 131.465 66.1039 128.457 66.1039 126.053 
	 66.454 124.246 66.8038 121.841 67.5033 119.436 68.2031 117.63 
	 68.9026 115.827 69.952 114.022 71.0018 112.217 72.0513 111.015 
	 73.1006 109.812 74.5 108.609 75.5494 108.008 76.9487 107.406 
	 78.3481 107.406 79.7474 107.406 79.7474 107.406 79.7474 107.406 
	 79.7474 107.406 79.7474 107.406 79.7474 107.406 79.7474 107.406 "
	 style=" stroke:#ffff00; stroke-width:1; fill:#ffff00; fill-opacity:100%"></polygon>
	<polygon points="26.6209 99.0889 20.4917 103.401 22.2944 115.723 
	 28.7841 112.027 26.6209 99.0889 26.6209 99.0889 26.6209 99.0889 
	 26.6209 99.0889 26.6209 99.0889 26.6209 99.0889 26.6209 99.0889 "
	 style=" stroke:#ffff00; stroke-width:1; fill:#000000; fill-opacity:100%"></polygon>
	<polygon points="27.0564 105.772 21.5282 103.247 23.0024 113.346 
	 27.0564 105.772 27.0564 105.772 27.0564 105.772 27.0564 105.772 
	 27.0564 105.772 27.0564 105.772 27.0564 105.772 "
	 style=" stroke:#ab0202; stroke-width:1; fill:#ab0202; fill-opacity:100%"></polygon>
	<polygon points="27.402 106.403 21.8737 103.247 22.9794 113.346 
	 27.402 106.403 27.402 106.403 27.402 106.403 27.402 106.403 
	 27.402 106.403 27.402 106.403 27.402 106.403 "
	 style=" stroke:#ff0000; stroke-width:1; fill:#ff0000; fill-opacity:100%"></polygon>
	<polygon points="27.7475 106.392 22.2193 103.247 23.3249 113.94 
	 27.7475 106.392 27.7475 106.392 27.7475 106.392 27.7475 106.392 
	 27.7475 106.392 27.7475 106.392 27.7475 106.392 "
	 style=" stroke:#ff00ab; stroke-width:1; fill:#ff00ab; fill-opacity:100%"></polygon>
	<polygon points="24.085 112.753 24.085 112.099 23.6704 112.099 
	 23.6704 112.099 23.6704 111.445 23.6704 110.792 23.2558 110.792 
	 23.2558 110.792 23.2558 110.139 23.2558 109.486 23.2558 109.486 
	 23.2558 108.832 23.2558 108.832 23.6704 108.178 23.6704 108.178 
	 23.6704 108.178 23.6704 107.525 24.085 107.525 24.085 106.871 
	 24.085 106.871 24.4997 106.871 24.4997 106.871 24.4997 106.217 
	 24.9143 106.217 25.3289 106.217 24.9143 106.871 24.4997 106.871 
	 24.4997 107.525 24.085 107.525 24.085 108.178 24.085 108.178 
	 23.6704 108.832 23.6704 109.486 23.6704 110.139 23.6704 110.139 
	 24.085 110.792 24.085 110.792 24.085 111.445 24.4997 111.445 
	 24.085 112.099 24.085 112.753 24.085 112.753 24.085 112.753 
	 24.085 112.753 24.085 112.753 24.085 112.753 24.085 112.753 "
	 style=" stroke:#ffab00; stroke-width:1; fill:#ffab00; fill-opacity:100%"></polygon>
	<polygon points="25.5017 106.217 25.8817 106.217 26.2618 106.217 
	 26.6419 106.871 27.0219 107.525 27.0219 107.525 27.402 108.178 
	 27.402 108.832 27.402 109.486 27.402 110.139 27.402 110.792 
	 27.0219 111.445 27.0219 112.099 26.6419 112.753 26.2618 112.753 
	 25.8817 112.753 25.5017 112.753 25.1216 112.753 24.7415 112.753 
	 24.3615 112.753 23.9814 112.099 23.9814 111.445 23.6013 110.792 
	 23.6013 110.139 23.6013 109.486 23.6013 108.832 23.6013 108.178 
	 23.9814 107.525 23.9814 107.525 24.3615 106.871 24.7415 106.217 
	 25.1216 106.217 25.5017 106.217 25.5017 106.217 25.5017 106.217 
	 25.5017 106.217 25.5017 106.217 25.5017 106.217 25.5017 106.217 "
	 style=" stroke:#000000; stroke-width:1; fill:#ffff00; fill-opacity:100%"></polygon>
	<polygon points="42.7692 87.3229 42.0452 87.3229 42.4072 91.002 
	 44.2169 90.389 46.0268 92.8417 46.7508 98.3612 45.6649 101.427 
	 43.1311 102.653 40.9594 100.201 40.5974 97.1343 43.1311 96.521 
	 43.4931 98.3612 44.5788 98.3612 43.8551 94.6813 42.0452 94.6813 
	 39.8732 92.8417 39.1495 87.9362 40.5974 84.8699 43.1311 83.6436 
	 44.941 85.4832 45.6649 88.5492 43.1311 89.7757 42.7692 87.3229 
	 42.7692 87.3229 42.7692 87.3229 42.7692 87.3229 42.7692 87.3229 
	 42.7692 87.3229 42.7692 87.3229 "
	 style=" stroke:#000000; stroke-width:1; fill:#ff0000; fill-opacity:100%"></polygon>
	<polygon points="47.1622 81.8995 49.6959 80.6732 51.8678 83.1261 
	 53.3155 95.3908 52.2298 98.4567 49.3342 99.683 47.5242 97.8434 
	 45.7143 85.5789 47.1622 81.8995 47.1622 81.8995 47.1622 81.8995 
	 47.1622 81.8995 47.1622 81.8995 47.1622 81.8995 47.1622 81.8995 "
	 style=" stroke:#000000; stroke-width:1; fill:#ff0000; fill-opacity:100%"></polygon>
	<polygon points="52.279 80.151 57.0703 77.703 57.4389 81.3754 
	 55.2274 82.5992 55.5961 85.6595 57.4389 85.0473 57.8073 88.1079 
	 55.9648 89.3319 57.0703 96.6764 54.4903 97.9007 52.279 80.151 
	 52.279 80.151 52.279 80.151 52.279 80.151 52.279 80.151 
	 52.279 80.151 52.279 80.151 "
	 style=" stroke:#000000; stroke-width:1; fill:#ff0000; fill-opacity:100%"></polygon>
	<polygon points="58.5944 80.8216 57.5001 81.4343 56.7708 78.3712 
	 62.2415 75.9207 62.6062 78.9838 61.1474 79.5964 63.3356 94.2991 
	 60.7827 95.5249 58.5944 80.8216 58.5944 80.8216 58.5944 80.8216 
	 58.5944 80.8216 58.5944 80.8216 58.5944 80.8216 58.5944 80.8216 "
	 style=" stroke:#000000; stroke-width:1; fill:#ff0000; fill-opacity:100%"></polygon>
	<polygon points="67.7028 85.1915 67.3434 85.1915 68.0622 92.5361 
	 66.2655 93.1487 61.9535 76.0107 64.4689 75.3987 66.2655 83.9676 
	 66.2655 83.9676 65.5469 74.7866 66.625 74.1746 68.4217 82.7433 
	 68.4217 82.7433 68.0622 73.5624 70.2182 72.9504 70.9367 91.3121 
	 69.1401 91.9239 67.7028 85.1915 67.7028 85.1915 67.7028 85.1915 
	 67.7028 85.1915 67.7028 85.1915 67.7028 85.1915 67.7028 85.1915 "
	 style=" stroke:#000000; stroke-width:1; fill:#ff0000; fill-opacity:100%"></polygon>
	<polygon points="75.2803 85.871 73.8327 86.4839 74.1946 90.1594 
	 71.6608 90.7724 70.937 73.0061 74.1946 71.1682 78.5382 88.3217 
	 76.0045 89.5466 75.2803 85.871 75.2803 85.871 75.2803 85.871 
	 75.2803 85.871 75.2803 85.871 75.2803 85.871 75.2803 85.871 "
	 style=" stroke:#000000; stroke-width:1; fill:#ff0000; fill-opacity:100%"></polygon>
	<polygon points="80.8065 79.8193 79.7251 80.4318 80.8065 87.1703 
	 78.6434 88.3961 76.1197 70.6298 80.0855 68.7921 82.2487 70.6298 
	 82.9699 75.5309 81.8884 77.3688 83.3304 78.594 84.4121 85.9454 
	 81.8884 87.1703 80.8065 79.8193 80.8065 79.8193 80.8065 79.8193 
	 80.8065 79.8193 80.8065 79.8193 80.8065 79.8193 80.8065 79.8193 "
	 style=" stroke:#000000; stroke-width:1; fill:#ff0000; fill-opacity:100%"></polygon>
	<polygon points="82.6845 67.6597 87.0489 65.8217 87.7761 69.4975 
	 85.594 70.1102 85.9579 73.7859 87.7761 73.1732 88.14 76.2363 
	 86.685 76.849 87.0489 81.7502 89.2311 80.5245 89.5947 84.2007 
	 85.2303 85.4257 82.6845 67.6597 82.6845 67.6597 82.6845 67.6597 
	 82.6845 67.6597 82.6845 67.6597 82.6845 67.6597 82.6845 67.6597 "
	 style=" stroke:#000000; stroke-width:1; fill:#ff0000; fill-opacity:100%"></polygon>
	<polygon points="48.4784 84.8316 50.0907 96.1186 50.897 96.1186 
	 49.2846 84.8316 48.4784 84.8316 48.4784 84.8316 48.4784 84.8316 
	 48.4784 84.8316 48.4784 84.8316 48.4784 84.8316 48.4784 84.8316 "
	 style=" stroke:#000000; stroke-width:1; fill:#ffffff; fill-opacity:100%"></polygon>
	<polygon points="73.01 75.3267 73.4419 83.6435 74.7376 83.0036 
	 73.01 75.3267 73.01 75.3267 73.01 75.3267 73.01 75.3267 
	 73.01 75.3267 73.01 75.3267 73.01 75.3267 73.01 75.3267 "
	 style=" stroke:#000000; stroke-width:1; fill:#ffffff; fill-opacity:100%"></polygon>
	<polygon points="80.1793 72.3563 78.8838 73.0353 79.3155 77.1088 
	 80.6115 76.4299 80.1793 72.3563 80.1793 72.3563 80.1793 72.3563 
	 80.1793 72.3563 80.1793 72.3563 80.1793 72.3563 80.1793 72.3563 "
	 style=" stroke:#000000; stroke-width:1; fill:#ffffff; fill-opacity:100%"></polygon>
	<polygon points="29.072 124.336 29.072 123.05 27.6131 123.05 
	 27.9779 125.624 27.2484 127.554 24.6954 128.198 23.966 126.911 
	 23.6013 124.336 24.6954 122.405 25.7896 121.762 25.7896 124.336 
	 25.0602 124.979 25.4249 126.267 26.519 125.624 26.1543 122.405 
	 26.8838 121.119 28.7072 120.476 29.8014 121.762 30.1661 124.336 
	 29.8014 126.267 28.3426 126.911 28.3426 124.979 29.072 124.336 
	 29.072 124.336 29.072 124.336 29.072 124.336 29.072 124.336 
	 29.072 124.336 29.072 124.336 "
	 style=" stroke:#000000; stroke-width:1; fill:#ab0202; fill-opacity:100%"></polygon>
	<polygon points="30.4732 127.108 31.2026 129.682 30.4732 131.613 
	 26.0968 133.545 25.0026 132.901 24.6379 130.326 25.3673 127.753 
	 29.3792 125.822 30.4732 127.108 30.4732 127.108 30.4732 127.108 
	 30.4732 127.108 30.4732 127.108 30.4732 127.108 30.4732 127.108 "
	 style=" stroke:#000000; stroke-width:1; fill:#ab0202; fill-opacity:100%"></polygon>
	<polygon points="31.1642 131.763 31.8937 135.772 30.7996 136.44 
	 30.4349 133.766 29.3407 134.435 29.3407 136.44 28.2466 137.109 
	 27.8818 135.105 25.3289 136.44 25.3289 133.766 31.1642 131.763 
	 31.1642 131.763 31.1642 131.763 31.1642 131.763 31.1642 131.763 
	 31.1642 131.763 31.1642 131.763 "
	 style=" stroke:#000000; stroke-width:1; fill:#ab0202; fill-opacity:100%"></polygon>
	<polygon points="31.1259 137.9 30.7611 136.581 31.8553 135.921 
	 32.5847 141.2 31.4906 141.2 31.1259 139.881 26.3846 141.86 
	 26.0199 139.22 31.1259 137.9 31.1259 137.9 31.1259 137.9 
	 31.1259 137.9 31.1259 137.9 31.1259 137.9 31.1259 137.9 "
	 style=" stroke:#000000; stroke-width:1; fill:#ab0202; fill-opacity:100%"></polygon>
	<polygon points="29.6305 145.179 26.7282 145.179 26.3654 143.891 
	 32.5329 140.674 32.8956 142.605 29.9934 143.891 32.8956 143.891 
	 33.2585 144.534 30.3561 146.465 33.2585 146.465 33.6212 148.397 
	 27.0911 148.397 27.0911 147.109 29.6305 145.179 29.6305 145.179 
	 29.6305 145.179 29.6305 145.179 29.6305 145.179 29.6305 145.179 29.6305 145.179 "
	 style=" stroke:#000000; stroke-width:1; fill:#ab0202; fill-opacity:100%"></polygon>
	<polygon points="29.2205 151.663 29.2205 151.01 27.7657 151.01 
	 27.402 149.049 33.9487 148.397 34.3123 151.663 28.1294 154.932 
	 27.7657 152.969 29.2205 151.663 29.2205 151.663 29.2205 151.663 
	 29.2205 151.663 29.2205 151.663 29.2205 151.663 29.2205 151.663 "
	 style=" stroke:#000000; stroke-width:1; fill:#ab0202; fill-opacity:100%"></polygon>
	<polygon points="30.9915 157.653 30.9915 156.366 28.4385 157.009 
	 28.4385 155.08 34.6387 153.147 35.0033 157.009 34.6387 158.941 
	 32.4504 159.584 31.721 159.584 30.9915 159.584 29.168 160.87 
	 28.8033 158.941 30.9915 157.653 30.9915 157.653 30.9915 157.653 
	 30.9915 157.653 30.9915 157.653 30.9915 157.653 30.9915 157.653 "
	 style=" stroke:#000000; stroke-width:1; fill:#ab0202; fill-opacity:100%"></polygon>
	<polygon points="35.3126 159.09 36.0399 163.768 34.9488 163.768 
	 34.5852 161.762 33.494 162.43 33.8578 163.768 32.4029 164.435 
	 32.4029 162.43 30.5844 162.43 30.5844 164.435 29.4932 164.435 
	 29.1295 160.426 35.3126 159.09 35.3126 159.09 35.3126 159.09 
	 35.3126 159.09 35.3126 159.09 35.3126 159.09 35.3126 159.09 "
	 style=" stroke:#000000; stroke-width:1; fill:#ab0202; fill-opacity:100%"></polygon>
	<polygon points="29.8206 128.792 25.6744 130.376 26.0513 131.169 
	 29.8206 129.584 29.8206 128.792 29.8206 128.792 29.8206 128.792 
	 29.8206 128.792 29.8206 128.792 29.8206 128.792 29.8206 128.792 "
	 style=" stroke:#000000; stroke-width:1; fill:#ababab; fill-opacity:100%"></polygon>
	<polygon points="32.9302 150.177 30.1661 151.07 30.1661 151.961 
	 32.9302 150.177 32.9302 150.177 32.9302 150.177 32.9302 150.177 
	 32.9302 150.177 32.9302 150.177 32.9302 150.177 32.9302 150.177 "
	 style=" stroke:#000000; stroke-width:1; fill:#ababab; fill-opacity:100%"></polygon>
	<polygon points="33.9668 157.306 33.9668 155.526 31.8937 156.416 
	 32.3083 157.306 33.9668 157.306 33.9668 157.306 33.9668 157.306 
	 33.9668 157.306 33.9668 157.306 33.9668 157.306 33.9668 157.306 "
	 style=" stroke:#000000; stroke-width:1; fill:#ababab; fill-opacity:100%"></polygon>
	<polygon points="27.0564 108.95 27.0564 108.237 26.6678 107.525 
	 26.6678 107.525 26.2791 107.525 26.2791 106.811 25.8903 106.811 
	 25.5017 106.811 25.113 106.811 24.7243 106.811 24.7243 107.525 
	 24.3356 107.525 23.9468 108.237 23.9468 108.95 23.9468 108.95 
	 23.9468 109.664 23.9468 110.376 23.9468 109.664 24.3356 108.95 
	 24.3356 108.95 24.7243 108.237 25.113 108.237 25.5017 108.237 
	 25.5017 108.237 25.8903 108.95 26.2791 108.95 26.2791 108.95 
	 26.6678 108.95 26.6678 108.95 27.0564 108.95 27.0564 108.95 
	 27.0564 108.95 27.0564 108.95 27.0564 108.95 27.0564 108.95 
	 27.0564 108.95 27.0564 108.95 27.0564 108.95 "
	 style=" stroke:#ffffff; stroke-width:1; fill:#ffffff; fill-opacity:100%"></polygon>
	<polygon points="27.0564 110.376 27.0564 111.267 27.0564 111.267 
	 26.5958 111.267 26.5958 112.159 26.1351 112.159 26.1351 112.159 
	 26.1351 112.159 25.6744 111.267 26.1351 111.267 26.1351 111.267 
	 26.1351 111.267 26.5958 110.376 26.5958 110.376 27.0564 110.376 
	 27.0564 110.376 27.0564 110.376 27.0564 110.376 27.0564 110.376 
	 27.0564 110.376 27.0564 110.376 "
	 style=" stroke:#ffffff; stroke-width:1; fill:#ffffff; fill-opacity:100%"></polygon>
	<polygon points="76.655 111.565 75.5927 112.166 74.8845 112.771 
	 73.8218 113.976 73.1136 114.578 72.4052 115.783 71.697 117.592 
	 70.9888 118.797 70.2803 120.606 69.9262 121.811 69.5722 123.62 
	 69.2182 125.428 69.2182 127.237 68.8638 129.646 68.8638 131.456 
	 68.8638 133.265 69.2182 135.073 69.2182 136.882 69.5722 138.689 
	 69.9262 140.499 70.6347 142.307 70.9888 144.115 71.697 145.321 
	 72.4052 147.128 73.4679 148.335 74.1761 149.541 75.2384 150.144 
	 76.3011 151.348 77.3634 151.951 78.78 152.555 80.1966 152.555 
	 81.6134 152.555 83.03 152.555 81.2591 150.745 79.8425 149.541 
	 78.78 147.731 77.7177 146.527 76.655 144.718 75.9468 142.911 
	 75.5927 141.101 75.2384 139.896 74.8845 138.089 74.8845 136.279 
	 74.8845 134.47 74.8845 132.662 74.8845 131.456 75.2384 129.646 
	 75.2384 127.839 75.5927 126.031 75.9468 124.825 76.3011 123.017 
	 76.655 121.811 77.0093 120.606 77.7177 118.194 78.0716 115.783 
	 78.4259 113.976 78.4259 112.771 78.0716 112.166 76.655 111.565 
	 76.655 111.565 76.655 111.565 76.655 111.565 76.655 111.565 
	 76.655 111.565 76.655 111.565 "
	 style=" stroke:#ffffff; stroke-width:1; fill:#ffffff; fill-opacity:100%"></polygon>
	<polygon points="84.7575 112.159 85.126 112.159 86.2316 113.406 
	 87.7057 114.654 88.8115 116.525 89.5485 119.02 90.2856 120.891 
	 89.9171 122.139 89.5485 124.01 89.1799 124.634 88.0744 124.634 
	 87.3374 124.634 86.9688 123.386 86.6002 121.515 86.6002 119.644 
	 86.2316 117.149 85.4946 114.654 84.7575 112.159 84.7575 112.159 
	 84.7575 112.159 84.7575 112.159 84.7575 112.159 84.7575 112.159 84.7575 112.159 "
	 style=" stroke:#ffffff; stroke-width:1; fill:#ffffff; fill-opacity:100%"></polygon>
	<polyline points="53.3155 204.831 105.834 178.098"
	 style=" stroke:#000000; stroke-width:1;"></polyline>
	<polyline points="53.6611 208.395 106.179 181.662"
	 style=" stroke:#000000; stroke-width:1;"></polyline>
	<polyline points="54.0066 211.366 106.871 184.633"
	 style=" stroke:#000000; stroke-width:1;"></polyline>
	<polyline points="54.3522 214.929 107.562 187.603"
	 style=" stroke:#000000; stroke-width:1;"></polyline>
      </g>
      <g>
	<polygon points="144 129.618 159.114 64 209.376 64 
	 220.271 129.618 220.271 221.714 144 221.714 144 129.618 
	 144 129.618 144 129.618 144 129.618 144 129.618 
	 144 129.618 144 129.618 "
	 style=" stroke:#000000; stroke-width:1; fill:#ababab; fill-opacity:100%"></polygon>
	<polyline points="145.749 121.143 218.872 121.143"
	 style=" stroke:#ffffff; stroke-width:1;"></polyline>
	<polyline points="144 193.143 220.271 193.143"
	 style=" stroke:#000000; stroke-width:1;"></polyline>
	<polyline points="144 172.573 220.271 172.573"
	 style=" stroke:#000000; stroke-width:1;"></polyline>
	<polyline points="145.749 122.286 218.872 122.286"
	 style=" stroke:#000000; stroke-width:1;"></polyline>
	<polyline points="144 194.287 220.271 194.287"
	 style=" stroke:#ffffff; stroke-width:1;"></polyline>
	<polyline points="144 173.715 220.271 173.715"
	 style=" stroke:#ffffff; stroke-width:1;"></polyline>
	<polyline points="220.271 221.714 220.271 129.618 209.076 64"
	 style=" stroke:#ffffff; stroke-width:1;"></polyline>
	<polygon points="144 129.143 220.271 129.143 144 131.429 
	 144 129.143 144 129.143 144 129.143 144 129.143 
	 144 129.143 144 129.143 144 129.143 "
	 style=" stroke:#ffffff; stroke-width:1; fill:#ffffff; fill-opacity:100%"></polygon>
	<polygon points="208.725 133.714 210.475 133.714 210.475 140.571 
	 208.725 140.571 208.725 133.714 208.725 133.714 208.725 133.714 
	 208.725 133.714 208.725 133.714 208.725 133.714 208.725 133.714 "
	 style=" stroke:#000000; stroke-width:1; fill:#ff0016; fill-opacity:100%"></polygon>
	<polygon points="210.825 133.714 212.924 133.714 212.924 135.086 
	 211.245 135.086 211.245 137.829 212.924 137.829 212.924 140.571 
	 210.825 140.571 210.825 133.714 210.825 133.714 210.825 133.714 
	 210.825 133.714 210.825 133.714 210.825 133.714 210.825 133.714 "
	 style=" stroke:#000000; stroke-width:1; fill:#ff0016; fill-opacity:100%"></polygon>
	<polyline points="148.548 144 215.373 144 215.373 168"
	 style=" stroke:#000000; stroke-width:1;"></polyline>
	<polyline points="215.373 168 148.548 168 148.548 144"
	 style=" stroke:#ffffff; stroke-width:1;"></polyline>
	<polygon points="215.373 168 148.548 168 153.472 162.286 
	 210.801 162.286 215.373 168 215.373 168 215.373 168 
	 215.373 168 215.373 168 215.373 168 215.373 168 "
	 style=" stroke:#ffffff; stroke-width:1; fill:#ffffff; fill-opacity:100%"></polygon>
	<polygon points="210.801 147.429 153.472 147.429 148.548 144 
	 215.373 144 210.801 147.429 210.801 147.429 210.801 147.429 
	 210.801 147.429 210.801 147.429 210.801 147.429 210.801 147.429 "
	 style=" stroke:#000000; stroke-width:1; fill:#000000; fill-opacity:100%"></polygon>
	<polyline points="153.447 163.428 153.447 147.429 210.825 147.429 
	 210.825 163.428 153.447 163.428 153.447 163.428 153.447 163.428"
	 style=" stroke:#000000; stroke-width:1;"></polyline>
	<polyline points="154.146 149.715 209.426 149.715 209.426 161.143"
	 style=" stroke:#000000; stroke-width:1;"></polyline>
	<polyline points="209.426 161.143 154.146 161.143 154.146 149.715"
	 style=" stroke:#ffffff; stroke-width:1;"></polyline>
	<polygon points="206.276 188.285 206.276 180.858 206.276 179.62 
	 205.913 179.62 205.913 178.383 205.548 177.142 205.183 177.142 
	 205.183 177.142 198.624 177.142 198.259 177.142 198.259 177.142 
	 197.894 177.142 197.53 178.383 197.53 179.62 197.53 180.858 
	 197.53 188.285 197.53 189.525 197.53 189.525 197.53 190.763 
	 197.894 192 198.259 192 198.259 192 198.624 192 
	 204.819 192 205.183 192 205.183 192 205.548 192 
	 205.913 190.763 205.913 189.525 206.276 189.525 206.276 188.285 
	 206.276 188.285 206.276 188.285 206.276 188.285 206.276 188.285 
	 206.276 188.285 206.276 188.285 "
	 style=" stroke:#000000; stroke-width:1; fill:#ababab; fill-opacity:100%"></polygon>
	<polyline points="197.53 180.953 197.53 180.953 197.53 179.683 
	 197.53 178.414 197.894 178.414 198.26 177.142 198.26 177.142 
	 204.832 177.142 204.832 177.142 205.196 177.142 205.561 178.414 
	 205.561 179.683 205.927 179.683 205.927 180.953 205.927 188.573"
	 style=" stroke:#ffffff; stroke-width:1;"></polyline>
	<polygon points="212.458 181.715 212.458 181.715 212.924 183.24 
	 212.924 183.24 212.924 184.763 212.924 186.288 212.458 186.288 
	 212.458 186.288 211.991 186.288 211.525 184.763 211.525 184.763 
	 211.525 183.24 211.525 183.24 211.991 181.715 212.458 181.715 
	 212.458 181.715 212.458 181.715 212.458 181.715 212.458 181.715 
	 212.458 181.715 212.458 181.715 "
	 style=" stroke:#000000; stroke-width:1; fill:#00ff00; fill-opacity:100%"></polygon>
	<polyline points="212.924 185.999 212.924 185.999 212.458 187.43 
	 212.458 187.43 211.991 185.999 211.991 185.999 211.525 184.572 
	 211.525 184.572 211.525 183.142 211.525 183.142 211.991 181.715"
	 style=" stroke:#ffffff; stroke-width:1;"></polyline>
	<polygon points="150.838 177.142 151.22 177.142 151.602 177.142 
	 151.983 178.391 151.983 178.391 152.365 179.637 152.747 180.884 
	 152.747 182.13 152.747 184.624 152.747 184.624 152.747 185.87 
	 152.747 187.116 152.365 188.363 151.983 189.612 151.983 189.612 
	 151.602 190.857 151.22 190.857 150.838 190.857 150.457 190.857 
	 150.075 190.857 149.693 190.857 149.312 189.612 148.93 188.363 
	 148.93 187.116 148.548 185.87 148.548 184.624 148.548 184.624 
	 148.548 182.13 148.548 180.884 148.93 179.637 149.312 178.391 
	 149.312 178.391 149.693 177.142 150.457 177.142 150.838 177.142 
	 150.838 177.142 150.838 177.142 150.838 177.142 150.838 177.142 
	 150.838 177.142 150.838 177.142 "
	 style=" stroke:#000000; stroke-width:1; fill:#000000; fill-opacity:100%"></polygon>
	<polyline points="152.397 188.316 152.012 189.588 151.627 189.588 
	 151.627 190.857 151.242 190.857 150.858 190.857 150.473 190.857 
	 150.473 190.857 150.088 190.857 149.703 190.857 149.318 189.588 
	 149.318 189.588 148.933 188.316 148.933 187.047 148.548 187.047 
	 148.548 185.778 148.548 184.509 148.548 184.509 148.548 183.24 
	 148.548 181.968 148.933 180.7 148.933 179.431 148.933 179.431"
	 style=" stroke:#ffffff; stroke-width:1;"></polyline>
	<polygon points="150.848 178.288 150.848 179.571 151.247 179.571 
	 151.647 179.571 151.647 180.858 152.047 180.858 152.047 182.144 
	 152.047 183.429 152.047 184.716 152.047 184.716 152.047 185.999 
	 152.047 187.286 151.647 187.286 151.647 188.573 151.247 188.573 
	 150.848 188.573 150.848 188.573 150.448 188.573 150.048 188.573 
	 149.648 188.573 149.648 187.286 149.248 185.999 149.248 185.999 
	 149.248 184.716 149.248 184.716 149.248 183.429 149.248 182.144 
	 149.248 180.858 149.648 180.858 150.048 179.571 150.448 179.571 
	 150.448 178.288 150.848 178.288 150.848 178.288 150.848 178.288 
	 150.848 178.288 150.848 178.288 150.848 178.288 150.848 178.288 "
	 style=" stroke:#ffffff; stroke-width:1; fill:#ababab; fill-opacity:100%"></polygon>
	<polygon points="150.858 180.572 150.858 180.572 151.277 180.572 
	 151.697 181.943 151.697 183.315 151.697 184.685 151.697 184.685 
	 151.697 186.057 151.697 187.43 151.277 187.43 150.858 187.43 
	 150.858 187.43 150.438 187.43 150.018 187.43 149.598 186.057 
	 149.598 184.685 149.598 184.685 149.598 183.315 149.598 181.943 
	 150.018 180.572 150.438 180.572 150.858 180.572 150.858 180.572 
	 150.858 180.572 150.858 180.572 150.858 180.572 150.858 180.572 150.858 180.572 "
	 style=" stroke:#000000; stroke-width:1; fill:#000000; fill-opacity:100%"></polygon>
	<polyline points="150.997 187.43 150.531 187.43 150.064 187.43 
	 150.064 187.43 149.598 185.715 149.598 183.999 149.598 183.999"
	 style=" stroke:#ffffff; stroke-width:1;"></polyline>
	<polyline points="150.648 185.142 150.648 185.142"
	 style=" stroke:#ffffff; stroke-width:1;"></polyline>
	<polygon points="157.47 174.857 157.842 174.857 158.213 174.857 
	 158.585 174.857 158.957 174.857 158.957 176.071 159.329 176.071 
	 159.329 177.287 159.7 178.501 160.072 178.501 160.072 179.715 
	 160.444 180.929 160.444 180.929 160.444 182.144 160.444 183.358 
	 160.444 184.572 160.444 184.572 160.444 187.002 160.444 187.002 
	 160.444 188.213 160.072 189.43 160.072 189.43 159.7 190.644 
	 159.329 191.859 159.329 193.07 158.957 193.07 158.957 193.07 
	 158.585 194.287 158.213 194.287 157.842 194.287 157.47 194.287 
	 157.47 194.287 157.098 194.287 156.727 194.287 156.355 193.07 
	 156.355 193.07 155.983 193.07 155.611 191.859 155.24 190.644 
	 155.24 189.43 154.868 189.43 154.868 188.213 154.868 187.002 
	 154.868 187.002 154.496 185.786 154.496 184.572 154.496 184.572 
	 154.868 182.144 154.868 180.929 154.868 180.929 154.868 179.715 
	 155.24 178.501 155.24 178.501 155.611 177.287 155.983 176.071 
	 156.355 176.071 156.355 174.857 156.727 174.857 157.098 174.857 
	 157.47 174.857 157.47 174.857 157.47 174.857 157.47 174.857 
	 157.47 174.857 157.47 174.857 157.47 174.857 157.47 174.857 "
	 style=" stroke:#000000; stroke-width:1; fill:#000000; fill-opacity:100%"></polygon>
	<polygon points="157.458 174.857 157.831 174.857 158.205 174.857 
	 158.578 176.078 158.578 176.078 158.951 176.078 158.951 177.295 
	 159.697 177.295 159.697 179.733 160.07 179.733 160.07 180.953 
	 160.07 182.172 160.444 182.172 160.444 183.389 160.444 184.609 
	 160.444 184.609 160.444 185.83 160.07 187.047 160.07 188.267 
	 160.07 188.267 159.697 189.488 159.697 190.705 158.951 191.925 
	 158.951 191.925 158.578 193.143 158.578 193.143 158.205 193.143 
	 157.831 193.143 157.458 193.143 157.458 193.143 157.085 193.143 
	 156.712 193.143 156.339 193.143 156.339 191.925 155.965 191.925 
	 155.592 190.705 155.219 189.488 155.219 188.267 154.846 188.267 
	 154.846 187.047 154.846 185.83 154.846 185.83 154.846 184.609 
	 154.846 183.389 154.846 182.172 154.846 182.172 154.846 180.953 
	 155.219 179.733 155.219 179.733 155.592 177.295 155.965 177.295 
	 156.339 176.078 156.339 176.078 156.712 176.078 157.085 174.857 
	 157.458 174.857 157.458 174.857 157.458 174.857 157.458 174.857 
	 157.458 174.857 157.458 174.857 157.458 174.857 157.458 174.857 "
	 style=" stroke:#000000; stroke-width:1; fill:#ababab; fill-opacity:100%"></polygon>
	<polyline points="155.546 177.431 155.923 177.431 155.923 176.144 
	 156.299 176.144 156.676 176.144 157.053 176.144 157.053 174.857 
	 157.43 174.857 157.43 174.857 157.806 174.857 158.183 174.857 
	 158.56 176.144 158.56 176.144 158.937 176.144 158.937 177.431 
	 159.313 177.431 159.69 178.717 159.69 180.001 160.067 180.001 
	 160.067 181.286 160.067 182.572 160.444 182.572 160.444 183.859 
	 160.444 185.142"
	 style=" stroke:#ffffff; stroke-width:1;"></polyline>
	<polygon points="159.044 176.07 158.636 176.07 158.228 176.07 
	 158.228 176.07 157.82 176.07 157.82 177.277 157.82 195.43 
	 157.004 195.43 157.004 177.277 157.004 177.277 157.004 176.07 
	 156.595 176.07 156.595 176.07 156.595 174.857 157.004 174.857 
	 157.412 174.857 157.82 174.857 158.228 174.857 158.636 176.07 
	 159.044 176.07 159.044 176.07 159.044 176.07 159.044 176.07 
	 159.044 176.07 159.044 176.07 159.044 176.07 "
	 style=" stroke:#ffffff; stroke-width:1; fill:#ffffff; fill-opacity:100%"></polygon>
	<polygon points="157.295 177.142 157.295 177.142 157.295 195.43 
	 157.295 195.43 157.295 177.142 157.295 177.142 157.295 177.142 
	 157.295 177.142 157.295 177.142 157.295 177.142 157.295 177.142 "
	 style=" stroke:#ababab; stroke-width:1; fill:#ababab; fill-opacity:100%"></polygon>
	<polyline points="155.196 188.573 155.196 188.573 155.196 190.285 
	 155.196 190.285 155.196 190.285 155.721 192 155.721 192 
	 155.721 192 155.721 192 156.245 192"
	 style=" stroke:#ffffff; stroke-width:1;"></polyline>
	<polygon points="149.248 211.429 152.747 211.429 152.747 218.285 
	 149.248 218.285 149.248 211.429 149.248 211.429 149.248 211.429 
	 149.248 211.429 149.248 211.429 149.248 211.429 149.248 211.429 "
	 style=" stroke:#000000; stroke-width:1; fill:#00ff00; fill-opacity:100%"></polygon>
	<polygon points="154.146 211.429 157.645 211.429 157.645 218.285 
	 154.146 218.285 154.146 211.429 154.146 211.429 154.146 211.429 
	 154.146 211.429 154.146 211.429 154.146 211.429 154.146 211.429 "
	 style=" stroke:#000000; stroke-width:1; fill:#0000ff; fill-opacity:100%"></polygon>
	<polygon points="144 220.573 220.271 220.573 218.866 224 
	 144.703 224 144 220.573 144 220.573 144 220.573 
	 144 220.573 144 220.573 144 220.573 144 220.573 "
	 style=" stroke:#000000; stroke-width:1; fill:#000000; fill-opacity:100%"></polygon>
      </g>
    </g>
  </symbol>
 </defs>
</svg>
