<?xml version="1.0"?>
<?metis version="3.1"?>
<?metisxml version="1.0"?>
<!DOCTYPE svg  PUBLIC "-//W3C//DTD SVG August 1999//EN"
 "http://www.w3.org/Graphics/SVG/svg-19990812.dtd">

<svg width="200" height="200">
 <title>Symbol library: it_req.svg</title>
 <defs>
  <symbol id="oid1" xml:space="preserve" class="METIS_SYMBOL">
   <title>IT Requirement</title>
    <g>
      <polygon points="0 0 0 304 16 320 
       880 320 880 16 864 0 0 0 
       0 0 0 0 0 0 0 0 "
       style=" stroke:#000000; stroke-width:1; fill:#9b9b9b; fill-opacity:100%"       class="TAG:shadow"></polygon>
      <rect x="240" y="0" width="624" height="304"
       style=" stroke:#000000; stroke-width:1; fill:#ffb4b4; fill-opacity:100%"       class="TAG:canvas"></rect>
      <g>
	<desc>METIS_TEXT_GROUP</desc>
	<text  x="256" y="15.8"
	 style=" stroke:#000000; stroke-width:1; font-family:sans-serif; font-size:16;"
	 class="TAG:text">text</text>
	<rect x="256" y="0" width="608" height="304"
	 style=" stroke:#000000; stroke-width:1; fill:#ffffff; fill-opacity:0%"></rect>
      </g>
      <g>
	<rect x="0" y="0" width="240" height="304"
	 style=" stroke:#000000; stroke-width:1; fill:#ffff6e; fill-opacity:100%"	 class="TAG:PictureBackground"></rect>
	<g>
	  <polygon points="15.0204 82.5202 15.0204 32.9791 30.7772 32.9791 
	   46.1077 32.9791 51.646 32.9791 56.329 33.3716 60.1641 33.5686 
	   62.7174 34.1579 65.2734 34.9451 67.4028 36.124 69.5324 37.3037 
	   71.2355 38.876 73.7907 42.4154 74.2176 44.5772 74.6411 46.7401 
	   74.2176 49.4923 73.3656 52.0489 71.6618 54.2107 69.5324 56.1766 
	   66.5501 57.7489 63.5702 58.9288 59.7375 59.9119 55.4786 60.5021 
	   59.7375 62.6639 63.1439 64.63 64.8471 66.0067 66.9764 67.7759 
	   69.1059 70.1344 71.6618 72.6908 75.9215 77.6047 80.1795 82.5202 
	   71.6618 82.5202 62.7174 82.5202 57.6083 77.0152 52.0725 71.7079 
	   49.5167 68.9557 47.387 66.7928 45.6839 65.2205 44.4048 64.2374 
	   42.2752 63.0575 40.1458 62.2714 37.1659 61.8778 35.4628 61.681 
	   32.907 61.681 31.2036 61.681 29.9245 61.681 29.9245 72.1004 
	   29.9245 82.5202 22.6855 82.5202 15.0204 82.5202 15.0204 82.5202 
	   15.0204 82.5202 15.0204 82.5202 15.0204 82.5202 15.0204 82.5202 
	   15.0204 82.5202 15.0204 82.5202 "
	   style=" stroke:#000000; stroke-width:1; fill:#008d9c; fill-opacity:100%"></polygon>
	  <polygon points="29.8276 53.9308 35.4093 53.9308 40.559 53.9308 
	   45.2813 53.9308 49.144 53.7319 51.7201 53.7319 53.4365 53.5327 
	   56.0125 52.7374 57.7293 51.5438 59.016 49.7542 59.4457 47.5664 
	   59.4457 46.3739 59.016 45.3796 57.7293 43.5887 56.0125 42.3965 
	   53.0069 41.6012 51.7201 41.4022 49.144 41.4022 45.7111 41.203 
	   41.4185 41.203 29.8276 41.203 29.8276 47.5664 29.8276 53.9308 
	   29.8276 53.9308 29.8276 53.9308 29.8276 53.9308 29.8276 53.9308 
	   29.8276 53.9308 29.8276 53.9308 29.8276 53.9308 "
	   style=" stroke:#000000; stroke-width:1; fill:#ffff6e; fill-opacity:100%"></polygon>
	  <polygon points="87.7946 82.5202 87.7946 32.9791 114.657 32.9791 
	   141.941 32.9791 141.941 41.2357 102.292 41.2357 102.292 46.7401 
	   102.292 52.2446 120.625 52.2446 138.959 52.2446 138.959 56.3732 
	   138.959 60.6979 120.625 60.6979 102.292 60.6979 102.292 67.3822 
	   102.292 74.0665 143.223 74.0665 143.223 78.1957 143.223 82.5202 
	   115.507 82.5202 87.7946 82.5202 87.7946 82.5202 87.7946 82.5202 
	   87.7946 82.5202 87.7946 82.5202 87.7946 82.5202 87.7946 82.5202 "
	   style=" stroke:#000000; stroke-width:1; fill:#008d9c; fill-opacity:100%"></polygon>
	  <polygon points="213.39 76.2142 218.924 78.3757 225.306 80.3407 
	   222.328 83.8777 219.774 87.4147 216.794 86.6287 213.39 85.6462 
	   212.54 85.2532 210.413 84.2707 207.431 82.8952 203.602 81.1267 
	   199.774 82.1092 195.942 82.6987 191.687 83.0932 187.004 83.2882 
	   183.174 83.2882 179.771 82.8952 176.365 82.3057 172.962 81.7162 
	   169.982 80.7337 167.003 79.5547 164.451 78.1792 161.895 76.6072 
	   157.64 73.0697 154.662 68.747 152.959 63.6374 152.108 57.7418 
	   152.108 54.5984 152.959 51.8474 153.385 49.0963 154.662 46.7378 
	   157.64 42.2183 161.895 38.6815 164.451 37.1086 167.003 35.7337 
	   169.982 34.5544 172.962 33.5717 176.365 32.9825 179.771 32.3924 
	   183.6 32.1955 187.432 32 191.26 32.1955 194.664 32.3924 
	   198.071 32.9825 201.475 33.5717 204.454 34.5544 207.431 35.7337 
	   209.985 37.1086 212.54 38.6815 216.794 42.2183 219.774 46.7378 
	   221.053 49.0963 221.901 51.8474 222.328 54.5984 222.328 57.7418 
	   221.901 63.245 221.053 65.7994 220.199 68.1569 218.924 70.3189 
	   217.645 72.2839 213.39 76.2142 213.39 76.2142 213.39 76.2142 
	   213.39 76.2142 213.39 76.2142 213.39 76.2142 213.39 76.2142 213.39 76.2142 "
	   style=" stroke:#000000; stroke-width:1; fill:#008d9c; fill-opacity:100%"></polygon>
	  <polygon points="201.551 70.5499 204.117 67.99 205.825 65.0357 
	   207.108 61.6873 207.535 57.7484 207.108 53.6134 206.254 50.0689 
	   204.117 47.1146 201.977 44.7509 198.984 42.9787 195.563 41.6006 
	   191.716 40.8119 187.44 40.616 183.164 40.8119 179.316 41.6006 
	   175.898 42.9787 172.903 44.7509 170.335 47.1146 168.625 50.0689 
	   167.345 53.6134 166.918 57.7484 167.345 61.8844 168.625 65.429 
	   170.335 68.3831 172.903 70.7468 175.898 72.5192 178.889 73.8973 
	   182.737 74.8822 187.014 75.0787 190.005 74.8822 192.998 74.2912 
	   188.296 72.5192 183.593 71.1401 185.729 68.3831 187.868 65.429 
	   191.288 66.4136 194.709 67.5955 198.131 68.9746 201.551 70.5499 
	   201.551 70.5499 201.551 70.5499 201.551 70.5499 201.551 70.5499 
	   201.551 70.5499 201.551 70.5499 201.551 70.5499 "
	   style=" stroke:#000000; stroke-width:1; fill:#ffff6e; fill-opacity:100%"></polygon>
	</g>
	<g>
	  <polygon points="73.5543 112.592 225.306 112.592 225.306 119.178 
	   73.5543 119.178 73.5543 119.178 73.5543 112.592 73.5543 112.592 
	   73.5543 112.592 73.5543 112.592 73.5543 112.592 73.5543 112.592 
	   73.5543 112.592 73.5543 112.592 "
	   style=" stroke:#000000; stroke-width:1; fill:#000000; fill-opacity:100%"></polygon>
	  <polygon points="73.5543 244.29 225.306 244.29 225.306 250.876 
	   73.5543 250.876 73.5543 250.876 73.5543 244.29 73.5543 244.29 
	   73.5543 244.29 73.5543 244.29 73.5543 244.29 73.5543 244.29 
	   73.5543 244.29 73.5543 244.29 "
	   style=" stroke:#000000; stroke-width:1; fill:#000000; fill-opacity:100%"></polygon>
	  <polygon points="73.5543 178.441 225.306 178.441 225.306 185.026 
	   73.5543 185.026 73.5543 185.026 73.5543 178.441 73.5543 178.441 
	   73.5543 178.441 73.5543 178.441 73.5543 178.441 73.5543 178.441 
	   73.5543 178.441 73.5543 178.441 "
	   style=" stroke:#000000; stroke-width:1; fill:#000000; fill-opacity:100%"></polygon>
	  <g>
	    <polygon points="50.8357 137.985 44.5774 137.985 38.3192 137.985 
	     38.3192 122.843 38.3192 107.702 35.0253 109.765 31.0728 111.315 
	     26.791 112.691 22.509 113.896 22.509 110.283 22.509 106.497 
	     25.1441 105.808 27.779 105.12 30.414 103.915 33.0492 102.539 
	     35.6842 100.99 37.6606 99.441 39.6367 97.7198 40.9543 96 
	     50.8357 96 50.8357 116.993 50.8357 137.985 50.8357 137.985 
	     50.8357 137.985 50.8357 137.985 50.8357 137.985 50.8357 137.985 50.8357 137.985 "
	     style=" stroke:#000000; stroke-width:1; fill:#008d9c; fill-opacity:100%"></polygon>
	    <polygon points="58.3246 197.25 58.3246 201.037 58.3246 204.651 
	     15.0204 204.651 15.6765 202.585 16.3327 200.52 17.6447 198.457 
	     19.2851 196.563 21.5814 194.499 24.5343 192.089 28.471 189.506 
	     33.0637 186.584 36.6724 184.346 39.625 182.454 41.9215 180.904 
	     43.2336 179.871 45.202 177.464 45.5303 176.086 45.8582 174.882 
	     45.8582 173.506 45.202 172.472 44.5458 171.44 43.5617 170.751 
	     42.2495 170.064 40.9372 169.547 39.2969 169.375 37.6567 169.203 
	     35.6881 169.375 34.0479 169.547 32.4077 170.064 31.4235 170.925 
	     30.4391 171.784 29.4551 172.99 29.127 174.194 28.7989 175.742 
	     22.5657 175.397 16.3327 175.053 17.3169 172.127 18.9571 169.547 
	     20.9256 167.309 23.2218 165.59 26.1744 164.213 29.7832 163.352 
	     33.7199 162.837 37.9849 162.664 42.5774 162.837 46.8423 163.524 
	     50.1229 164.557 53.0755 166.107 55.3719 167.998 57.0122 169.892 
	     57.9965 171.957 58.3246 174.194 57.9965 176.776 57.0122 179.184 
	     55.3719 181.593 52.7474 184.002 51.435 185.379 49.4669 186.926 
	     46.8423 188.475 43.8898 190.196 41.2653 191.917 38.9689 193.123 
	     37.3286 194.326 36.3443 195.016 35.0319 196.046 33.7199 197.25 
	     58.3246 197.25 58.3246 197.25 58.3246 197.25 58.3246 197.25 
	     58.3246 197.25 58.3246 197.25 58.3246 197.25 "
	     style=" stroke:#000000; stroke-width:1; fill:#008d9c; fill-opacity:100%"></polygon>
	    <polygon points="15.3461 260.128 21.2518 259.784 27.1575 259.268 
	     28.1418 261.85 29.1262 262.882 30.1103 263.742 31.4229 264.428 
	     33.0633 264.945 34.7038 265.118 36.3443 265.289 37.9849 265.118 
	     39.6254 264.945 41.2658 264.257 42.9063 263.398 43.8906 262.366 
	     44.875 261.161 45.203 259.784 45.5311 258.236 45.203 256.86 
	     44.875 255.654 43.8906 254.45 42.9063 253.591 41.5939 252.728 
	     39.9533 252.213 38.3128 251.869 36.6724 251.697 34.0476 251.869 
	     31.0946 252.384 31.751 249.117 32.4071 245.848 34.7038 245.848 
	     36.6724 245.503 38.3128 245.16 39.9533 244.471 41.2658 243.781 
	     42.2501 242.751 42.5781 241.717 42.9063 240.513 42.9063 239.479 
	     42.2501 238.621 40.6096 237.072 39.6254 236.556 38.3128 236.212 
	     35.6881 235.869 34.0476 235.869 32.7352 236.212 31.4229 236.556 
	     30.1103 237.245 29.1262 237.932 28.47 238.964 27.4857 241.373 
	     21.9079 240.858 16.0021 240.171 17.3146 237.588 18.6268 235.352 
	     20.5956 233.458 22.8922 231.91 25.845 230.706 28.798 229.844 
	     32.4071 229.329 36.0161 229.157 40.2815 229.329 43.8906 230.018 
	     47.1714 231.051 50.1246 232.599 52.4212 234.319 53.7337 236.04 
	     54.718 237.932 55.046 239.997 54.3898 242.578 53.7337 243.781 
	     52.7493 244.987 51.4368 246.019 49.7965 246.88 45.8593 248.772 
	     48.4839 249.289 50.7807 249.977 52.7493 251.008 54.718 252.213 
	     56.3583 253.591 57.3428 255.139 57.6707 256.86 57.999 258.751 
	     57.6707 261.506 56.3583 263.913 54.3898 266.151 51.765 268.215 
	     48.4839 269.935 44.5468 271.141 40.6096 271.829 36.3443 272 
	     32.4071 271.829 28.47 271.141 25.189 270.109 22.2359 268.731 
	     19.6112 267.011 17.6425 265.118 16.0021 262.709 15.3461 260.128 
	     15.3461 260.128 15.3461 260.128 15.3461 260.128 15.3461 260.128 
	     15.3461 260.128 15.3461 260.128 "
	     style=" stroke:#000000; stroke-width:1; fill:#008d9c; fill-opacity:100%"></polygon>
	  </g>
	</g>
      </g>
      <polyline points="864 304 880 320"
       style=" stroke:#000000; stroke-width:1;"></polyline>
    </g>
  </symbol>
 </defs>
</svg>
