<?xml version="1.0"?>
<?metis version="3.2"?>
<?metisxml version="1.1"?>
<!DOCTYPE svg  PUBLIC "-//W3C//DTD SVG August 1999//EN"
 "http://www.w3.org/Graphics/SVG/svg-19990812.dtd">

<svg width="200" height="200">
 <title>Symbol library: it_risk.svg</title>
 <defs>
  <symbol id="oid1" xml:space="preserve" class="METIS_SYMBOL">
   <title>Transitin Risk</title>
    <g>
      <polygon points="0 0 0 304 16.2963 320 
       880 320 880 16 863.704 0 0 0 
       0 0 0 0 0 0 0 0 
       0 0 0 0 0 0 "
       style=" stroke:#000000; stroke-width:1; fill:#9b9b9b; fill-opacity:100%"       class="TAG:shadow"></polygon>
      <rect x="0" y="0" width="240" height="304"
       style=" stroke:#000000; stroke-width:1; fill:#ffffff; fill-opacity:100%"       class="TAG:PictureBackground"></rect>
      <rect x="240" y="0" width="624" height="304"
       style=" stroke:#000000; stroke-width:1; fill:#ffffa5; fill-opacity:100%"       class="TAG:canvas"></rect>
      <rect x="245.357" y="25.7143" width="569.522" height="231.429"
       style="stroke:none; fill:#878787; fill-opacity:0%"       class="TAG:grid"></rect>
      <g>
	<desc>METIS_TEXT_GROUP</desc>
	<text  x="256" y="15"
	 style=" stroke:#000000; stroke-width:1; font-family:sans-serif; font-size:16;"
	 class="TAG:text">text</text>
	<rect x="256" y="0" width="608" height="304"
	 style=" stroke:#000000; stroke-width:1; fill:#ffffff; fill-opacity:0%"></rect>
      </g>
      <polyline points="864 304 880 320"
       style=" stroke:#000000; stroke-width:1;"></polyline>
      <g>
	<ellipse  cx="81.6843" cy="242" rx="21.8948" ry="29.9999"
	 style=" stroke:#000000; stroke-width:1; fill:#6e0000; fill-opacity:100%"	 class="TAG:polygon"></ellipse>
	<polyline points="81.6844 77 81.6844 77 70.7369 167 
	 59.7896 181.999 37.8948 197.001 26.9474 212"
	 style=" stroke:#000000; stroke-width:1;"	 class="TAG:polyline"></polyline>
	<polyline points="147.368 77 147.368 77 169.263 167 
	 180.211 181.999 202.105 197.001 213.052 212"
	 style=" stroke:#000000; stroke-width:1;"	 class="TAG:polyline"></polyline>
	<polyline points="158.316 77 158.316 77 180.211 156.999 
	 191.159 170.333 213.052 183.666 224 197.001"
	 style=" stroke:#000000; stroke-width:1;"	 class="TAG:polyline"></polyline>
	<polyline points="70.7369 77 70.7369 77 59.7895 156.999 
	 48.8422 170.333 26.9474 183.666 16 197.001"
	 style=" stroke:#000000; stroke-width:1;"	 class="TAG:polyline"></polyline>
	<ellipse  cx="114.526" cy="54.4999" rx="10.9474" ry="22.4999"
	 style=" stroke:#000000; stroke-width:1; fill:#dc0000; fill-opacity:100%"	 class="TAG:Picture"></ellipse>
	<polygon points="103.579 61.9999 103.579 61.9999 125.474 61.9999 
	 136.421 77 158.316 181.999 169.263 196.999 191.159 212 
	 202.106 226.999 202.106 242 37.8948 242 37.8948 226.999 
	 48.8422 212 70.7369 196.999 81.6843 181.999 92.6317 77 
	 103.579 61.9999 103.579 61.9999 103.579 61.9999 103.579 61.9999 
	 103.579 61.9999 103.579 61.9999 103.579 61.9999 "
	 style=" stroke:#000000; stroke-width:1; fill:#dc0000; fill-opacity:100%"	 class="TAG:Picture"></polygon>
      </g>
    </g>
  </symbol>
 </defs>
</svg>
