<?xml version="1.0"?>
<?metis version="3.1"?>
<?metisxml version="1.0"?>
<!DOCTYPE svg  PUBLIC "-//W3C//DTD SVG August 1999//EN"
 "http://www.w3.org/Graphics/SVG/svg-19990812.dtd">

<svg width="200" height="200">
 <title>Symbol library: it_strategy.svg</title>
 <defs>
  <symbol id="oid1" xml:space="preserve" class="METIS_SYMBOL">
   <title>IT Strategy</title>
    <g>
      <polygon points="0 0 0 304 16 320 
       880 320 880 16 864 0 0 0 
       0 0 0 0 0 0 0 0 "
       style=" stroke:#000000; stroke-width:1; fill:#9b9b9b; fill-opacity:100%"       class="TAG:shadow"></polygon>
      <rect x="240" y="0" width="624" height="224"
       style=" stroke:#000000; stroke-width:1; fill:#ffb4b4; fill-opacity:100%"       class="TAG:canvas"></rect>
      <g>
	<desc>METIS_TEXT_GROUP</desc>
	<text  x="256" y="15.8"
	 style=" stroke:#000000; stroke-width:1; font-family:sans-serif; font-size:16;"
	 class="TAG:text">text</text>
	<rect x="256" y="0" width="608" height="224"
	 style=" stroke:#000000; stroke-width:1; fill:#ffffff; fill-opacity:0%"></rect>
      </g>
      <polyline points="848 288 880 320"
       style=" stroke:#000000; stroke-width:1;"></polyline>
      <rect x="240" y="224" width="624" height="80.253"
       style=" stroke:#000000; stroke-width:1; fill:#dcdcdc; fill-opacity:100%"></rect>
      <g>
	<desc>METIS_TEXT_GROUP</desc>
	<text  x="256" y="236.8"
	 style=" stroke:#000000; stroke-width:1; font-family:sans-serif; font-size:13;"
	 class="TAG:strat_value">strat_value</text>
	<rect x="256" y="224" width="608" height="80"
	 style=" stroke:#000000; stroke-width:1; fill:#ffffff; fill-opacity:0%"></rect>
      </g>
      <g>
	<rect x="0" y="0" width="240" height="304"
	 style=" stroke:#000000; stroke-width:1; fill:#ffff6e; fill-opacity:100%"	 class="TAG:PictureBackground"></rect>
	<g>
	  <polygon points="90.1225 55.0637 90.1225 16 94.2475 16 
	   98.3725 16 98.3725 55.0637 94.2475 55.0637 90.1225 55.0637 
	   90.1225 55.0637 90.1225 55.0637 90.1225 55.0637 90.1225 55.0637 
	   90.1225 55.0637 90.1225 55.0637 90.1225 55.0637 "
	   style=" stroke:#000000; stroke-width:1; fill:#006e00; fill-opacity:100%"></polygon>
	  <polygon points="114.74 55.0637 114.74 38.844 114.74 22.6249 
	   108.989 22.6249 103.026 22.6249 103.026 19.3125 103.026 16 
	   118.786 16 134.758 16 134.758 19.3125 134.758 22.6249 
	   128.795 22.6249 122.832 22.6249 122.832 38.844 122.832 55.0637 
	   118.786 55.0637 114.74 55.0637 114.74 55.0637 114.74 55.0637 
	   114.74 55.0637 114.74 55.0637 114.74 55.0637 114.74 55.0637 114.74 55.0637 "
	   style=" stroke:#000000; stroke-width:1; fill:#006e00; fill-opacity:100%"></polygon>
	</g>
	<polygon points="78.6358 151.111 98.0739 186.667 107.793 165.333 
	 127.232 179.556 136.951 158.222 180.245 272 30.0408 272 
	 78.6358 151.111 78.6358 151.111 78.6358 151.111 78.6358 151.111 
	 78.6358 151.111 78.6358 151.111 "
	 style=" stroke:#000000; stroke-width:1; fill:#ff8c8c; fill-opacity:100%"	 class="TAG:polygon"></polygon>
	<polyline points="78.6358 151.111 107.793 80 136.951 158.222"
	 style=" stroke:#000000; stroke-width:1;"	 class="TAG:polyline"></polyline>
      </g>
    </g>
  </symbol>
 </defs>
</svg>
