<?xml version="1.0"?>
<?metis version="3.1"?>
<?metisxml version="1.0"?>
<!DOCTYPE svg  PUBLIC "-//W3C//DTD SVG August 1999//EN"
 "http://www.w3.org/Graphics/SVG/svg-19990812.dtd">

<svg width="200" height="200">
 <title>Symbol library: it_standard.svg</title>
 <defs>
  <symbol id="oid1" xml:space="preserve" class="METIS_SYMBOL">
   <title>IT Standard</title>
    <g>
      <polygon points="-1.42109e-014 0 -1.42109e-014 304 16.2963 320 
       880 320 880 16 863.704 0 -1.42109e-014 0 
       -1.42109e-014 0 -1.42109e-014 0 -1.42109e-014 0 -1.42109e-014 0 
       -1.42109e-014 0 -1.42109e-014 0 "
       style=" stroke:#000000; stroke-width:1; fill:#9b9b9b; fill-opacity:100%"       class="TAG:shadow"></polygon>
      <rect x="-1.42109e-014" y="0" width="240" height="304"
       style=" stroke:#000000; stroke-width:1; fill:#00a500; fill-opacity:100%"       class="TAG:PictureBackground"></rect>
      <rect x="240" y="0" width="624" height="304"
       style=" stroke:#000000; stroke-width:1; fill:#c8ffc8; fill-opacity:100%"       class="TAG:canvas"></rect>
      <g>
	<desc>METIS_TEXT_GROUP</desc>
	<text  x="256" y="15.8"
	 style=" stroke:#000000; stroke-width:1; font-family:sans-serif; font-size:16;"
	 class="TAG:text">text</text>
	<rect x="256" y="0" width="608" height="304"
	 style=" stroke:#000000; stroke-width:1; fill:#ffffff; fill-opacity:0%"></rect>
      </g>
      <g>
	<ellipse  cx="110.989" cy="152" rx="77.0663" ry="104"
	 style=" stroke:#000000; stroke-width:1; fill:#ffffff; fill-opacity:100%"></ellipse>
	<ellipse  cx="110.989" cy="152" rx="55.5595" ry="104"
	 style=" stroke:#000000; stroke-width:1; fill:#ffffff; fill-opacity:100%"></ellipse>
	<ellipse  cx="109.197" cy="152" rx="32.2604" ry="104"
	 style=" stroke:#000000; stroke-width:1; fill:#ffffff; fill-opacity:100%"></ellipse>
	<polyline points="109.197 48 109.197 48"
	 style=" stroke:#000000; stroke-width:1;"></polyline>
	<polyline points="109.197 48 109.197 256"
	 style=" stroke:#000000; stroke-width:1;"></polyline>
	<path d="M 62.5983 70.1276 C 80.5207 87.8297 98.4431 87.8297 
	 109.197 87.8297 C 122.077 87.8297 141.457 87.8297 155.794 65.7022 
	 C 155.794 65.7022 155.794 65.7022 155.794 65.7022 Z"
	 style=" stroke:#000000; stroke-width:1; fill:#000000; fill-opacity:0%"></path>
	<path d="M 62.5983 233.873 C 84.1052 207.318 98.4431 211.746 
	 109.197 211.746 C 119.826 211.746 137.872 207.318 162.964 229.445 Z"
	 style=" stroke:#000000; stroke-width:1; fill:#000000; fill-opacity:0%"></path>
	<ellipse  cx="109.197" cy="52.4256" rx="14.3379" ry="4.42553"
	 style=" stroke:#000000; stroke-width:1; fill:#464646; fill-opacity:100%"></ellipse>
	<ellipse  cx="109.197" cy="251.573" rx="14.3379" ry="4.42553"
	 style=" stroke:#000000; stroke-width:1; fill:#464646; fill-opacity:100%"></ellipse>
	<g>
	  <polygon points="19.5845 101.107 19.5845 123.234 30.3379 123.234 
	   30.3379 171.915 19.5845 171.915 19.5845 194.042 69.7672 194.042 
	   69.7672 171.915 59.0137 171.915 59.0137 123.234 69.7672 123.234 
	   69.7672 101.107 19.5845 101.107 19.5845 101.107 19.5845 101.107 
	   19.5845 101.107 19.5845 101.107 19.5845 101.107 "
	   style=" stroke:#000000; stroke-width:1; fill:#464646; fill-opacity:100%"></polygon>
	  <polygon points="16 105.532 16 127.659 26.7535 127.659 
	   26.7535 176.34 16 176.34 16 198.467 66.1828 198.467 
	   66.1828 176.34 55.4293 176.34 55.4293 127.659 66.1828 127.659 
	   66.1828 105.532 16 105.532 16 105.532 16 105.532 
	   16 105.532 16 105.532 16 105.532 "
	   style=" stroke:#000000; stroke-width:1; fill:#000000; fill-opacity:100%"></polygon>
	</g>
	<g>
	  <polygon points="91.2741 158.637 76.9363 158.637 76.9363 194.042 
	   91.2741 194.042 91.2741 185.191 105.612 194.042 130.703 194.042 
	   141.457 180.766 141.457 145.361 123.535 136.51 105.612 136.51 
	   98.4431 127.659 98.4431 123.234 119.95 123.234 123.535 132.085 
	   141.457 132.085 141.457 101.107 127.119 101.107 127.119 109.958 
	   119.95 101.107 91.2741 101.107 76.9363 118.808 76.9363 140.936 
	   87.6896 154.212 109.197 163.064 123.535 163.064 123.535 167.489 
	   119.95 176.34 105.612 176.34 98.4431 171.915 91.2741 167.489 
	   91.2741 167.489 91.2741 158.637 91.2741 158.637 91.2741 158.637 
	   91.2741 158.637 91.2741 158.637 91.2741 158.637 "
	   style=" stroke:#000000; stroke-width:1; fill:#464646; fill-opacity:100%"></polygon>
	  <polygon points="87.6896 163.064 73.3517 163.064 73.3517 198.467 
	   87.6896 198.467 87.6896 189.617 102.028 198.467 127.119 198.467 
	   137.872 185.191 137.872 149.788 119.95 140.936 102.028 140.936 
	   94.8587 132.085 94.8587 127.659 116.365 127.659 119.95 136.51 
	   137.872 136.51 137.872 105.532 123.535 105.532 123.535 114.383 
	   116.365 105.532 87.6896 105.532 73.3517 123.234 73.3517 145.361 
	   84.1052 158.637 105.612 167.489 119.95 167.489 119.95 171.915 
	   116.365 180.766 102.028 180.766 94.8587 176.34 87.6896 171.915 
	   87.6896 171.915 87.6896 163.064 87.6896 163.064 87.6896 163.064 
	   87.6896 163.064 87.6896 163.064 87.6896 163.064 "
	   style=" stroke:#000000; stroke-width:1; fill:#000000; fill-opacity:100%"></polygon>
	</g>
	<g>
	  <polygon points="148.626 134.971 166.548 101.107 205.977 101.107 
	   223.9 134.971 223.9 160.37 205.977 194.235 166.548 194.235 
	   148.626 160.37 148.626 134.971 148.626 134.971 148.626 134.971 
	   148.626 134.971 148.626 134.971 148.626 134.971 "
	   style=" stroke:#000000; stroke-width:1; fill:#464646; fill-opacity:100%"></polygon>
	  <polygon points="145.042 139.204 162.964 105.34 202.394 105.34 
	   220.316 139.204 220.316 164.603 202.394 198.467 162.964 198.467 
	   145.042 164.603 145.042 139.204 145.042 139.204 145.042 139.204 
	   145.042 139.204 145.042 139.204 145.042 139.204 "
	   style=" stroke:#000000; stroke-width:1; fill:#000000; fill-opacity:100%"></polygon>
	  <polygon points="170.133 147.67 176.05 130.738 189.068 130.738 
	   194.985 147.67 194.985 160.37 189.068 177.302 176.05 177.302 
	   170.133 160.37 170.133 147.67 170.133 147.67 170.133 147.67 
	   170.133 147.67 170.133 147.67 170.133 147.67 "
	   style=" stroke:#000000; stroke-width:1; fill:#ffffff; fill-opacity:100%"></polygon>
	</g>
      </g>
      <polyline points="864 304 880 320"
       style=" stroke:#000000; stroke-width:1;"></polyline>
    </g>
  </symbol>
 </defs>
</svg>
