<?xml version="1.0" encoding="UTF-8" standalone="no"?>
<svg
   xmlns:dc="http://purl.org/dc/elements/1.1/"
   xmlns:cc="http://creativecommons.org/ns#"
   xmlns:rdf="http://www.w3.org/1999/02/22-rdf-syntax-ns#"
   xmlns:svg="http://www.w3.org/2000/svg"
   xmlns="http://www.w3.org/2000/svg"
   xmlns:sodipodi="http://sodipodi.sourceforge.net/DTD/sodipodi-0.dtd"
   xmlns:inkscape="http://www.inkscape.org/namespaces/inkscape"
   version="1.1"
   height="219px"
   width="219px"
   enable-background="new 0 0 219 219"
   y="0px"
   x="0px"
   viewBox="0 0 219 219"
   id="svg2"
   inkscape:version="0.47 r22583"
   sodipodi:docname="itfunction.svg">
  <sodipodi:namedview
     pagecolor="#ffffff"
     bordercolor="#666666"
     borderopacity="1"
     objecttolerance="10"
     gridtolerance="10"
     guidetolerance="10"
     inkscape:pageopacity="0"
     inkscape:pageshadow="2"
     inkscape:window-width="1280"
     inkscape:window-height="778"
     id="namedview69"
     showgrid="false"
     inkscape:zoom="1.0776256"
     inkscape:cx="109.5"
     inkscape:cy="109.5"
     inkscape:window-x="-8"
     inkscape:window-y="216"
     inkscape:window-maximized="1"
     inkscape:current-layer="svg2" />
  <defs
     id="defs4">
    <inkscape:perspective
       sodipodi:type="inkscape:persp3d"
       inkscape:vp_x="0 : 109.5 : 1"
       inkscape:vp_y="0 : 1000 : 0"
       inkscape:vp_z="219 : 109.5 : 1"
       inkscape:persp3d-origin="109.5 : 73 : 1"
       id="perspective71" />
    <radialGradient
       id="radialGradient3061-4-1"
       gradientUnits="userSpaceOnUse"
       cy="179"
       cx="176"
       gradientTransform="matrix(-1.25069,-0.80517636,1.0356633,-1.608708,268.6168,607.12894)"
       r="64.8">
      <stop
         stop-color="#993"
         offset="0"
         id="stop7" />
      <stop
         stop-color="#cccc64"
         offset="1"
         id="stop9" />
    </radialGradient>
    <radialGradient
       id="radialGradient3057-5-0"
       gradientUnits="userSpaceOnUse"
       cy="390"
       cx="380"
       gradientTransform="matrix(0.52636952,-0.05969132,0.06371377,0.5618392,-100.53747,-70.186289)"
       r="149">
      <stop
         stop-color="#bedcdc"
         offset="0"
         id="stop12" />
      <stop
         stop-opacity="0.74149668"
         stop-color="#8e9e9e"
         offset="0.5"
         id="stop14" />
      <stop
         stop-opacity="0.8392157"
         stop-color="#404f5c"
         offset="1"
         id="stop16" />
    </radialGradient>
    <radialGradient
       id="radialGradient3122-8"
       gradientUnits="userSpaceOnUse"
       cy="456"
       cx="-81.6"
       gradientTransform="matrix(0.17966648,0.02687068,-0.02894857,0.19245289,120.12125,88.722837)"
       r="149">
      <stop
         stop-color="#488d8d"
         offset="0"
         id="stop19" />
      <stop
         stop-color="#ede3d0"
         offset="0.5"
         id="stop21" />
      <stop
         stop-color="#d59f0f"
         offset="1"
         id="stop23" />
    </radialGradient>
    <filter
       id="filter3340"
       color-interpolation-filters="sRGB">
      <feGaussianBlur
         stdDeviation="3.9590909"
         id="feGaussianBlur26" />
    </filter>
    <filter
       id="filter3819">
      <feGaussianBlur
         stdDeviation="2.1762922"
         id="feGaussianBlur29" />
    </filter>
    <inkscape:perspective
       id="perspective2901"
       inkscape:persp3d-origin="0.5 : 0.33333333 : 1"
       inkscape:vp_z="1 : 0.5 : 1"
       inkscape:vp_y="0 : 1000 : 0"
       inkscape:vp_x="0 : 0.5 : 1"
       sodipodi:type="inkscape:persp3d" />
  </defs>
  <metadata
     id="metadata31">
    <rdf:RDF>
      <cc:Work
         rdf:about="">
        <dc:format>image/svg+xml</dc:format>
        <dc:type
           rdf:resource="http://purl.org/dc/dcmitype/StillImage" />
        <dc:title />
      </cc:Work>
    </rdf:RDF>
  </metadata>
  <g
     style="fill:#000000;fill-opacity:0.50196078;filter:url(#filter3819)"
     id="g35"
     transform="matrix(0.86503361,0,0,1.0663193,206.89805,12.311745)">
    <path
       id="path37"
       d="m -145,168 0,4.35 -83.4,0 0,-4.35 5.29,0 c 4.63,0 8.35,-0.823 11.2,-2.47 2.04,-1.1 3.61,-2.98 4.71,-5.65 0.863,-1.88 1.29,-6.82 1.29,-14.8 v -105 c -3e-5,-8.16 -0.431,-13.3 -1.29,-15.3 -0.863,-2.04 -2.61,-3.82 -5.23,-5.35 -2.63,-1.53 -6.18,-2.29 -10.6,-2.29 h -5.29 v -4.35 h 83.4 v 4.35 h -5.29 c -4.63,1.55e-4 -8.35,0.824 -11.2,2.47 -2.04,1.1 -3.65,2.98 -4.82,5.65 -0.863,1.88 -1.29,6.82 -1.29,14.8 v 105 c -6e-5,8.16 0.451,13.3 1.35,15.3 0.902,2.04 2.67,3.82 5.29,5.35 2.63,1.53 6.18,2.29 10.6,2.29 z" />
    <path
       id="path39"
       d="m 12.3,12.8 0,43.2 -4.23,0 C 5.56,46 2.77,38.8 -0.29,34.5 c -3.05,-4.4 -7.25,-7.9 -12.6,-10.4 -2.98,-1.41 -8.2,-2.12 -15.6,-2.12 h -11.9 v 123 c -9.9e-5,8.16 0.451,13.3 1.35,15.3 0.902,2.04 2.67,3.82 5.29,5.35 2.63,1.53 6.21,2.29 10.8,2.29 h 5.29 v 4.35 h -83.5 v -4.35 h 5.29 c 4.63,0 8.35,-0.823 11.2,-2.47 2.04,-1.1 3.65,-2.98 4.82,-5.65 0.863,-1.88 1.29,-6.82 1.29,-14.8 V 22 h -11.5 c -10.7,1.5e-4 -18.5,2.27 -23.4,6.82 -6.82,6.35 -11.1,15.4 -12.9,27.2 h -4.47 v -43.2 z" />
  </g>
  <g
     style="fill:#000000"
     id="g41"
     transform="matrix(0.86503361,0,0,1.0663193,203.19312,8.3282866)">
    <path
       id="path43"
       d="m -145,168 0,4.35 -83.4,0 0,-4.35 5.29,0 c 4.63,0 8.35,-0.823 11.2,-2.47 2.04,-1.1 3.61,-2.98 4.71,-5.65 0.863,-1.88 1.29,-6.82 1.29,-14.8 v -105 c -3e-5,-8.16 -0.431,-13.3 -1.29,-15.3 -0.863,-2.04 -2.61,-3.82 -5.23,-5.35 -2.63,-1.53 -6.18,-2.29 -10.6,-2.29 h -5.29 v -4.35 h 83.4 v 4.35 h -5.29 c -4.63,1.55e-4 -8.35,0.824 -11.2,2.47 -2.04,1.1 -3.65,2.98 -4.82,5.65 -0.863,1.88 -1.29,6.82 -1.29,14.8 v 105 c -6e-5,8.16 0.451,13.3 1.35,15.3 0.902,2.04 2.67,3.82 5.29,5.35 2.63,1.53 6.18,2.29 10.6,2.29 z" />
    <path
       id="path45"
       d="m 12.3,12.8 0,43.2 -4.23,0 C 5.56,46 2.77,38.8 -0.29,34.5 c -3.05,-4.4 -7.25,-7.9 -12.6,-10.4 -2.98,-1.41 -8.2,-2.12 -15.6,-2.12 h -11.9 v 123 c -9.9e-5,8.16 0.451,13.3 1.35,15.3 0.902,2.04 2.67,3.82 5.29,5.35 2.63,1.53 6.21,2.29 10.8,2.29 h 5.29 v 4.35 h -83.5 v -4.35 h 5.29 c 4.63,0 8.35,-0.823 11.2,-2.47 2.04,-1.1 3.65,-2.98 4.82,-5.65 0.863,-1.88 1.29,-6.82 1.29,-14.8 V 22 h -11.5 c -10.7,1.5e-4 -18.5,2.27 -23.4,6.82 -6.82,6.35 -11.1,15.4 -12.9,27.2 h -4.47 v -43.2 z" />
  </g>
  <path
     style="color:#000000;fill:#775919;fill-opacity:1;fill-rule:nonzero;stroke:#2b2b2b;stroke-width:0.50616693;stroke-linecap:butt;stroke-linejoin:miter;stroke-miterlimit:4;stroke-opacity:1;stroke-dasharray:none;stroke-dashoffset:0;marker:none;visibility:visible;display:inline;overflow:visible;enable-background:accumulate"
     d="m 184.16993,120.17252 c -16.98648,-17.67239 -45.0845,-18.22846 -62.7569,-1.24198 -17.6724,16.9865 -18.22845,45.0845 -1.24197,62.75689 16.98649,17.67241 45.08449,18.22848 62.75689,1.24198 17.6724,-16.98649 18.22847,-45.08448 1.24198,-62.75689 z m -22.82114,22.59359 c 4.92387,5.1227 4.74049,13.25864 -0.38221,18.1825 -5.1227,4.92388 -13.25952,4.78522 -18.18339,-0.33748 -4.92389,-5.12269 -4.76243,-13.28142 0.36028,-18.20531 5.1227,-4.92386 13.28145,-4.76239 18.20532,0.36029 z"
     id="path4151" />
  <path
     style="color:#000000;fill:#8d6a1e;fill-opacity:1;fill-rule:nonzero;stroke:#2b2b2b;stroke-width:0.50616693;stroke-miterlimit:4;stroke-opacity:1;stroke-dasharray:none;marker:none;visibility:visible;display:inline;overflow:visible;enable-background:accumulate"
     d="m 159.60323,113.12936 -6.1299,22.06853 c -5.10254,-0.50934 -10.05882,1.4341 -13.47777,5.02279 l -19.10515,-12.66138 -3.11581,4.71616 19.10514,12.66139 c -0.30018,0.69151 -0.59341,1.4273 -0.80096,2.17434 -1.18445,4.26425 -0.51817,8.58397 1.44123,12.18743 l -17.95503,14.28576 3.50033,4.41975 17.95501,-14.28576 c 1.80889,1.60832 3.98106,2.84596 6.47055,3.53745 2.48951,0.6915 5.01927,0.7599 7.39851,0.3149 l 7.98464,21.49092 5.3088,-1.97287 -8.02358,-21.46891 c 3.55811,-2.0743 6.33943,-5.4469 7.52877,-9.7287 0.20751,-0.74706 0.33563,-1.5287 0.43518,-2.27594 l 22.89821,-0.99429 -0.26762,-5.65597 -22.86774,1.00275 c -1.07461,-4.84479 -4.3475,-9.06506 -8.98702,-11.26275 l 6.12989,-22.06853 -5.42568,-1.50707 z m -4.21124,25.91763 c 6.8462,1.90163 10.83115,8.99721 8.92951,15.8434 -1.90164,6.8462 -8.9752,10.87009 -15.82139,8.96845 -6.84619,-1.90164 -10.86163,-9.00568 -8.95998,-15.85187 1.90163,-6.84619 9.00568,-10.86163 15.85187,-8.95999 z"
     id="path3270" />
  <path
     style="fill:#be8f28;fill-opacity:1;stroke:#000000;stroke-width:0.38127699;stroke-miterlimit:4;stroke-opacity:1;stroke-dasharray:none"
     d="m 155.79424,85.494057 -2.10877,4.781847 -0.41309,2.038873 -0.0521,2.787705 -6.3236,0.233129 -0.25827,-2.772322 -0.56488,-2.017816 -2.44882,-4.619839 -4.21454,0.69579 -0.85534,5.149694 0.11034,2.076967 0.6407,2.735043 -6.07989,1.789268 -0.92979,-2.623716 -1.04648,-1.840229 -3.51898,-3.838449 -3.90829,1.705344 0.45417,5.209186 0.61316,1.995297 1.29166,2.466701 -5.42797,3.23733 -1.55824,-2.30708 -1.46116,-1.49394 -4.37996,-2.860668 -3.36121,2.626108 1.72511,4.93388 1.11988,1.7707 1.85057,2.07667 -4.46122,4.50326 -2.07144,-1.84429 -1.80568,-1.09805 -4.93643,-1.6839 -2.595224,3.38597 2.885364,4.34566 1.51011,1.44758 2.34189,1.54174 -3.20017,5.46729 -2.491946,-1.28359 -2.009874,-0.60301 -5.185831,-0.40339 -1.680482,3.93531 3.86285,3.46639 1.831456,1.02724 2.644601,0.93018 -1.738824,6.0792 -2.724497,-0.62245 -2.095611,-0.0808 -5.150031,0.90871 -0.638835,4.20206 4.630472,2.41455 2.034996,0.55601 2.759342,0.21814 -0.172485,6.33638 -2.767123,0.0677 -2.062225,0.44448 -4.754981,2.15907 0.408642,4.25439 5.093622,1.16373 2.096903,0.0333 2.75433,-0.47331 1.405531,6.16478 -2.691298,0.78494 -1.88462,0.92608 -4.046358,3.27493 1.464547,3.99709 5.200106,-0.12067 2.039703,-0.49276 2.55744,-1.12232 2.89864,5.60946 -2.42229,1.41207 -1.587272,1.3871 -3.11686,4.15843 2.407174,3.52214 5.020738,-1.41284 1.8621,-0.97438 2.16934,-1.75267 4.20963,4.73927 -1.9608,1.9729 -1.21456,1.70718 -1.99097,4.83271 3.21337,2.80509 4.5291,-2.61817 1.54027,-1.41223 1.68144,-2.21889 5.24382,3.52782 -1.42394,2.39279 -0.72145,1.9828 -0.73624,5.15294 3.80973,1.91544 3.72259,-3.64133 1.14439,-1.75675 1.07115,-2.56925 5.97354,2.11738 -0.7879,2.67231 -0.22381,2.09171 0.57458,5.16479 4.17045,0.92404 2.69651,-4.47978 0.67382,-1.98411 0.40871,-2.75416 6.30154,0.5768 -0.0996,2.78641 0.3009,2.08215 1.84616,4.86566 4.27109,-0.14596 1.49526,-5.01309 0.17617,-2.093 -0.30591,-2.77361 6.24904,-0.99799 0.59372,2.70993 0.82885,1.95349 2.98325,4.25297 4.10906,-1.19927 0.21335,-5.21486 -0.37237,-2.0841 -0.97809,-2.6012 5.79032,-2.53614 1.26718,2.48987 1.26541,1.67931 3.96073,3.37371 3.68304,-2.18825 -1.10057,-5.10759 -0.87779,-1.90714 -1.5827,-2.28392 4.96907,-3.89346 1.85055,2.07666 1.63311,1.3079 4.70519,2.2974 2.99111,-3.04144 -2.32842,-4.66425 -1.31434,-1.63297 -2.09591,-1.82111 3.85484,-4.99653 2.2936,1.56428 1.90732,0.86272 5.1207,1.04527 2.1504,-3.68413 -3.42046,-3.95497 -1.6827,-1.23773 -2.49324,-1.23597 2.49462,-5.82024 2.62013,0.95335 2.06464,0.34227 5.20401,-0.26359 1.18412,-4.09185 -4.28143,-2.97719 -1.95703,-0.79226 -2.7258,-0.57481 0.95664,-6.24354 2.78187,0.26645 2.10272,-0.18116 4.97633,-1.53323 0.11672,-4.28778 -4.88555,-1.8017 -2.0904,-0.27145 -2.79225,0.1147 -0.61491,-6.31014 2.75304,-0.42567 1.99722,-0.68462 4.43706,-2.73986 -0.95977,-4.15021 -5.18195,-0.54632 -2.08085,0.25326 -2.66747,0.78557 -2.17495,-5.92349 2.55745,-1.12233 1.74753,-1.14435 3.63055,-3.76304 -1.94679,-3.79565 -5.17062,0.78895 -1.95091,0.73357 -2.37595,1.461 -3.57667,-5.22267 2.19188,-1.70439 1.40123,-1.55905 2.57873,-4.53067 -2.82123,-3.19965 -4.8232,2.03802 -1.70184,1.21712 -1.96079,1.97291 -4.7499,-4.15802 1.7046,-2.19443 0.98025,-1.85657 1.3768,-5.040155 -3.55854,-2.385375 -4.13905,3.177062 -1.35424,1.584168 -1.40077,2.41724 -5.64376,-2.847391 1.11818,-2.544128 0.48518,-2.060753 0.07,-5.194919 -4.03708,-1.444853 -3.21086,4.108197 -0.93321,1.881698 -0.74026,2.673614 -6.1855,-1.336467 0.45634,-2.752864 -0.062,-2.099487 -1.22033,-5.087009 -4.25683,-0.378105 z m -2.56761,26.891613 c 21.29127,0.57957 38.07277,18.30026 37.4932,39.59151 -0.57957,21.29127 -18.30025,38.07277 -39.59153,37.4932 -21.29125,-0.57957 -38.09657,-18.30091 -37.51701,-39.59218 0.57957,-21.29125 18.32409,-38.0721 39.61534,-37.49253 z"
     id="path2943" />
  <g
     transform="matrix(1.011959,0.02754665,-0.02754665,1.011959,3.2327202,-5.7901415)"
     id="SmallGear">
    <path
       id="spokes"
       d="m 80.46875,163.8125 -6.5,2.625 6.0625,14.9375 c -0.636824,0.8482 -1.069756,1.84626 -1.25,2.9375 l -14.96875,6.0625 2.625,6.5 14.9375,-6.0625 c 0.854436,0.64318 1.867417,1.07124 2.96875,1.25 l 6.0625,14.96875 6.5,-2.625 -6.0625,-14.96875 c 0.634652,-0.85197 1.07448,-1.84294 1.25,-2.9375 l 14.9375,-6.0625 -2.625,-6.46875 L 89.46875,180 c -0.845234,-0.63018 -1.852719,-1.0714 -2.9375,-1.25 l -6.0625,-14.9375 z m 4.96875,18.59375 c 1.665947,0 3,1.33406 3,3 0,1.66595 -1.334053,3.03125 -3,3.03125 -1.665947,0 -3.03125,-1.3653 -3.03125,-3.03125 0,-1.66594 1.365303,-3 3.03125,-3 z"
       style="color:#000000;fill:#684e16;fill-opacity:1;stroke:#000000" />
    <path
       d="m 71.353709,156.14116 -2.721509,1.43873 0.580081,4.18159 0.392401,0.88628 1.622875,2.34355 -3.741544,3.16642 -2.02772,-2.01111 -0.826259,-0.54209 -3.991947,-1.28347 -1.916625,2.42774 2.225681,3.58292 0.733841,0.64693 2.42015,1.48143 -2.129027,4.40164 -2.684986,-0.96968 -0.952467,-0.18758 -4.199533,0.45249 -0.742072,2.99741 3.485736,2.36491 0.929709,0.29794 2.816019,0.37723 -0.148224,4.88095 -2.848428,0.20902 -0.9566,0.21864 -3.629826,2.10982 0.529031,3.05601 4.134716,0.72 1.003503,-0.10276 2.712551,-0.79456 1.82912,4.51884 -2.501499,1.31596 -0.79245,0.62419 -2.458022,3.42228 1.733919,2.53461 4.087106,-0.98012 0.839349,-0.50831 2.180096,-1.86012 3.501611,3.40358 -1.760757,2.22981 -0.44898,0.8897 -0.871031,4.09472 2.618094,1.6373 3.343597,-2.56708 0.553814,-0.79729 1.254519,-2.56429 4.579579,1.65244 -0.708281,2.74775 -0.06551,1.00419 0.881478,4.09332 3.077414,0.43999 1.975224,-3.69885 0.204827,-0.99316 0.06962,-2.82636 4.878881,-0.35664 0.464197,2.81256 0.346284,0.93866 2.480176,3.37877 2.967736,-0.83043 0.319278,-4.20851 -0.218643,-0.95659 -1.066992,-2.63599 4.290555,-2.30984 1.605645,2.38425 0.65866,0.71106 3.64712,2.09731 2.38838,-2.01186 -1.42634,-3.9402 -0.59521,-0.80417 -2.07392,-1.9587 3.02494,-3.85404 2.40291,1.52212 0.92419,0.3676 4.15678,0.44135 1.35797,-2.80845 -2.90226,-3.00564 -0.87247,-0.48967 -2.68499,-0.96968 1.1876,-4.72855 2.82775,0.4062 0.99798,-0.0331 3.9871,-1.31046 0.0917,-3.105 -3.87127,-1.56831 -0.98696,-0.1062 -2.84842,0.20901 -0.867,-4.80715 2.75324,-0.77731 0.90349,-0.43314 3.11048,-2.80985 -1.16078,-2.86773 -4.20093,0.11593 -0.95039,0.31726 -2.51874,1.35666 -2.72088,-4.05674 2.20354,-1.80219 0.6352,-0.76281 1.67867,-3.8485 -2.21394,-2.13802 -3.77605,1.83187 -0.74003,0.67039 -1.74904,2.25876 -4.154055,-2.60009 1.26625,-2.53533 0.28621,-0.95867 -0.0173,-4.20712 -2.917413,-1.04416 -2.679412,3.20848 -0.408288,0.90695 -0.667589,2.76498 -4.854067,-0.6648 0.127558,-2.84981 -0.131745,-0.99178 -1.716001,-3.82294 -3.115342,0.21587 -1.161393,4.04368 0.02139,0.96902 0.493165,2.80084 -4.677479,1.35392 -1.066986,-2.63599 -0.508313,-0.83935 -3.156758,-2.80149 z m 6.590144,10.78395 c 10.213773,-4.1343 21.827252,0.78649 25.961557,11.00027 4.13428,10.21378 -0.77479,21.85622 -10.988565,25.99052 -10.213774,4.13429 -21.838969,-0.81548 -25.973261,-11.02925 -4.134295,-10.21378 0.786497,-21.82725 11.000269,-25.96154 z"
       style="fill:#333333;fill-opacity:1;stroke:#000000;stroke-width:0.5;stroke-miterlimit:4;stroke-opacity:1;stroke-dasharray:none"
       id="path3119" />
  </g>
</svg>
