<?xml version="1.0" encoding="UTF-8" standalone="no"?>
<svg
   xmlns:dc="http://purl.org/dc/elements/1.1/"
   xmlns:cc="http://creativecommons.org/ns#"
   xmlns:rdf="http://www.w3.org/1999/02/22-rdf-syntax-ns#"
   xmlns:svg="http://www.w3.org/2000/svg"
   xmlns="http://www.w3.org/2000/svg"
   xmlns:sodipodi="http://sodipodi.sourceforge.net/DTD/sodipodi-0.dtd"
   xmlns:inkscape="http://www.inkscape.org/namespaces/inkscape"
   y="0px"
   xml:space="preserve"
   height="219"
   viewBox="-0.717 -0.128 219 219"
   width="219"
   version="1.1"
   enable-background="new -0.717 -0.128 228 203"
   x="0px"
   id="svg2"
   inkscape:version="0.47 r22583"
   sodipodi:docname="itproduct.svg"><sodipodi:namedview
     pagecolor="#ffffff"
     bordercolor="#666666"
     borderopacity="1"
     objecttolerance="10"
     gridtolerance="10"
     guidetolerance="10"
     inkscape:pageopacity="0"
     inkscape:pageshadow="2"
     inkscape:window-width="1280"
     inkscape:window-height="778"
     id="namedview43"
     showgrid="false"
     inkscape:zoom="2.6145554"
     inkscape:cx="95.11265"
     inkscape:cy="103.41895"
     inkscape:window-x="-8"
     inkscape:window-y="216"
     inkscape:window-maximized="1"
     inkscape:current-layer="svg2" /><metadata
     id="metadata4">
		<rdf:RDF>
			<cc:Work
   rdf:about="">
				<dc:format>image/svg+xml</dc:format>
				<dc:type
   rdf:resource="http://purl.org/dc/dcmitype/StillImage" />
				<dc:title></dc:title>
			</cc:Work>
		</rdf:RDF>
	</metadata><defs
     id="defs6"><linearGradient
       id="linearGradient3075"
       y2="24.64"
       gradientUnits="userSpaceOnUse"
       x2="-15.82"
       gradientTransform="translate(-17.54646,15.894169)"
       y1="147.9"
       x1="171">
			<stop
   stop-color="#9CF"
   offset="0"
   id="stop12"
   style="stop-color:#2b5c8d;stop-opacity:1;" /><stop
   id="stop3661"
   offset="0.27777779"
   stop-color="#9CF"
   style="stop-color:#8c66bf;stop-opacity:1;" />
			<stop
   stop-color="#800080"
   stop-opacity="0"
   offset="1"
   id="stop14"
   style="stop-color:#800080;stop-opacity:1;" />
		</linearGradient><inkscape:perspective
       id="perspective3773"
       inkscape:persp3d-origin="0.5 : 0.33333333 : 1"
       inkscape:vp_z="1 : 0.5 : 1"
       inkscape:vp_y="0 : 1000 : 0"
       inkscape:vp_x="0 : 0.5 : 1"
       sodipodi:type="inkscape:persp3d" /></defs><path
     style="fill:#d4d4d4;stroke:none"
     d="m 154.9904,191.43503 -120.580005,-9.9 -0.56,-88.180002 -0.43,-69.033 121.570005,-9.887 z"
     id="BoxFace" /><path
     style="fill:#858585;stroke:none"
     d="m 155.16159,14.648699 28.30317,6.933101 0.70008,158.46658 -29.00325,10.91906 z"
     id="BoxSide" /><path
     d="m 33.50978,76.794561 c 0,0 24.55022,-62.602132 112.57022,30.367869 14.22,15.02 37.22028,-24.312713 37.22028,-24.312713 l 1.86602,97.092713 -28.8,10.82 -2.42,0.0138 -119.2,-9.468 -1.23652,-104.513669 z"
     id="BigWave"
     style="fill:url(#linearGradient3075);stroke:none" /><path
     d="m 155.09189,190.70808 c 0,0 12.39,-15.12 16.53,-23.87 6.045,-12.76 12.18809,-44.00257 12.18809,-44.00257 l 0.22001,56.98257 -28.9381,10.89 z"
     id="LittleWave"
     style="fill:#613e61;stroke:none" /><path
     style="fill:#3c3636;fill-opacity:1;stroke:none"
     d="m 154.66779,14.002321 0,0.657397 0,176.307722 0,0.72 0.65632,-0.25043 29.00325,-10.92532 0.34379,-0.12522 0,-0.34435 -0.71883,-158.464077 0,-0.375655 -0.37505,-0.09391 -28.28441,-6.94963 -0.62507,-0.156523 z m 1.00011,1.28349 27.2843,6.699193 0.71884,157.712766 -28.00314,10.54966 0,-174.961619 z"
     id="BoxSideFrame" /><path
     style="fill:#736d6d;fill-opacity:1;stroke:none"
     d="m 155.5,13.90625 -0.5625,0.03125 -121.5625,9.875 -0.46875,0.0625 0,0.4375 0.4375,69.03125 0.5625,88.1875 0,0.46875 0.46875,0.0312 120.5625,9.90625 0.5625,0.0312 0,-0.53125 0,-177 0,-0.53125 z m -1,1.0625 0,175.9375 L 34.90625,181.0625 34.34375,93.34375 33.90625,24.78125 154.5,14.96875 z"
     id="BoxFaceFrame" /><path
     style="fill:#000000;stroke:none"
     d="m 54.514074,213.36998 0,3.13649 -50.4012859,0 0,-3.13649 3.1969161,0 c 2.7980568,0 5.0461718,-0.5934 6.7685178,-1.78094 1.232837,-0.79314 2.181639,-2.14868 2.846404,-4.07383 0.521538,-1.35554 0.779588,-4.91744 0.779588,-10.67127 l 0,-75.70834 c -1.8e-5,-5.88362 -0.260467,-9.58972 -0.779588,-11.03178 -0.521539,-1.47091 -1.577307,-2.75435 -3.160656,-3.85752 -1.589393,-1.10318 -3.734772,-1.65117 -6.4059193,-1.65117 l -3.1969161,0 0,-3.13648 50.4012864,0 0,3.13648 -3.196916,0 c -2.798057,1.2e-4 -5.046172,0.59413 -6.768518,1.78095 -1.232837,0.79314 -2.205812,2.14868 -2.91288,4.07383 -0.521539,1.35554 -0.779589,4.91744 -0.779589,10.67127 l 0,75.70834 c -3.6e-5,5.88362 0.272554,9.58972 0.815849,11.03178 0.545107,1.47091 1.613566,2.75434 3.196916,3.85752 1.589393,1.10318 3.734771,1.65116 6.405919,1.65116 z"
     id="I" /><path
     style="fill:#000000;stroke:none"
     d="m 149.57549,101.46586 0,31.14857 -2.55632,0 c -1.51687,-7.21032 -3.20296,-12.40175 -5.05222,-15.50219 -1.84321,-3.17254 -4.3814,-5.69615 -7.61458,-7.49873 -1.80091,-1.01665 -4.95552,-1.52858 -9.42758,-1.52858 l -7.19155,0 0,88.6869 c -6e-5,5.88362 0.27256,9.58973 0.81585,11.03179 0.54511,1.4709 1.61357,2.75434 3.19692,3.85752 1.58939,1.10318 3.7529,1.65116 6.52678,1.65116 l 3.19692,0 0,3.13649 -50.461722,0 0,-3.13649 3.196916,0 c 2.798057,0 5.046172,-0.59341 6.768518,-1.78095 1.232837,-0.79313 2.205812,-2.14867 2.91288,-4.07383 0.521539,-1.35554 0.779588,-4.91743 0.779588,-10.67127 l 0,-88.5427 -6.949817,0 c -6.466352,1.1e-4 -11.180142,1.63675 -14.141368,4.91744 -4.121544,4.57855 -6.708085,11.10389 -7.795883,19.61206 l -2.701364,0 0,-31.14857 z"
     id="T" /><path
     style="fill:#a1a1a1;fill-opacity:1;stroke:none"
     d="m 3.65625,100.96875 0,0.5 0,3.125 0,0.5 0.5,0 3.1875,0 c 2.6027635,0 4.645031,0.53527 6.125,1.5625 1.519642,1.05878 2.518873,2.26806 3,3.625 0.222351,0.61767 0.402564,1.89521 0.53125,3.71875 0.128686,1.82354 0.218741,4.19057 0.21875,7.125 l 0,75.71875 c 0,2.86944 -0.09047,5.17792 -0.21875,6.9375 -0.128278,1.75958 -0.31326,2.99592 -0.53125,3.5625 l -0.03125,0 c -0.640491,1.85485 -1.511997,3.09645 -2.625,3.8125 l 0,0.0312 -0.03125,0 c -1.619034,1.11631 -3.741385,1.6875 -6.46875,1.6875 l -3.1875,0 -0.5,0 0,0.5 0,3.125 0,0.5 0.5,0 50.375,0 0.5,0 0,-0.5 0,-3.125 0,-0.5 -0.5,0 -3.1875,0 c -2.602765,0 -4.645032,-0.53527 -6.125,-1.5625 -1.520674,-1.05951 -2.49594,-2.26485 -3,-3.625 -0.231552,-0.61461 -0.459139,-1.89606 -0.59375,-3.71875 -0.134611,-1.82269 -0.187518,-4.19091 -0.1875,-7.125 l 0,-75.71875 c 0,-2.86944 0.05922,-5.17792 0.1875,-6.9375 0.128278,-1.75958 0.34451,-2.99592 0.5625,-3.5625 0.682078,-1.85711 1.603246,-3.1261 2.71875,-3.84375 1.619141,-1.1157 3.772696,-1.68738 6.5,-1.6875 l 3.1875,0 0.5,0 0,-0.5 0,-3.125 0,-0.5 -0.5,0 -50.40625,0 -0.5,0 z m 1,1 49.40625,0 0,2.125 -2.6875,0 c -2.86881,1.2e-4 -5.236949,0.61706 -7.0625,1.875 -1.35017,0.86863 -2.361692,2.31931 -3.09375,4.3125 -0.303549,0.78896 -0.493869,2.01379 -0.625,3.8125 -0.131131,1.79871 -0.1875,4.14686 -0.1875,7.03125 l 0,75.71875 c -1.8e-5,2.94953 0.08125,5.35697 0.21875,7.21875 0.137499,1.86178 0.313257,3.1413 0.625,3.96875 0.586154,1.58167 1.728974,2.9469 3.375,4.09375 1.698818,1.17913 3.947969,1.75 6.6875,1.75 l 2.6875,0 0,2.125 -49.375,0 0,-2.125 2.6875,0 c 2.856899,0 5.208755,-0.62676 7.03125,-1.875 0.01207,-0.008 0.01923,-0.0234 0.03125,-0.0312 1.334481,-0.87299 2.348362,-2.30361 3.03125,-4.28125 0.303548,-0.78896 0.462619,-2.01379 0.59375,-3.8125 0.131131,-1.79871 0.21875,-4.14686 0.21875,-7.03125 l 0,-75.71875 c -9e-6,-2.94919 -0.08743,-5.35782 -0.21875,-7.21875 -0.131324,-1.86093 -0.29698,-3.14436 -0.59375,-3.96875 -0.561951,-1.58488 -1.696694,-2.94619 -3.34375,-4.09375 -1.698817,-1.17913 -3.979219,-1.75 -6.71875,-1.75 l -2.6875,0 0,-2.125 z"
     id="Iborder" /><path
     style="fill:#a1a1a1;fill-opacity:1;stroke:none"
     d="m 149.5625,100.96875 -86.5,0.15625 -0.5,0 0,0.5 0,31.15625 0,0.5 0.5,0 2.71875,0 0.4375,0 0.0625,-0.4375 c 1.079232,-8.44117 3.623158,-14.86346 7.65625,-19.34375 2.839809,-3.14617 7.399261,-4.74989 13.78125,-4.75 l 6.4375,0 0,88.03125 c 0,2.86945 -0.05922,5.20917 -0.1875,6.96875 -0.128278,1.75958 -0.34451,2.96467 -0.5625,3.53125 -0.682078,1.85712 -1.603249,3.12611 -2.71875,3.84375 -1.619035,1.11631 -3.741386,1.6875 -6.46875,1.6875 l -3.21875,0 -0.5,0 0,0.5 0,3.125 0,0.5 0.5,0 50.46875,0 0.5,0 0,-0.5 0,-3.125 0,-0.5 -0.5,0 -3.1875,0 c -2.70803,0 -4.7715,-0.53629 -6.25,-1.5625 -1.52067,-1.05951 -2.49594,-2.26486 -3,-3.625 -0.23155,-0.61461 -0.45913,-1.89606 -0.59375,-3.71875 -0.13462,-1.82269 -0.21878,-4.19091 -0.21875,-7.125 l 0,-88.1875 6.71875,0 c 4.4339,0 7.51044,0.53966 9.15625,1.46875 3.15703,1.76012 5.63659,4.21277 7.4375,7.3125 1.79197,3.00439 3.48854,8.15916 5,15.34375 l 0.0937,0.40625 0.40625,0 2.53125,0 0.5,0 0,-0.5 0,-31.15625 0,-0.5 -0.5,0 z m -0.5,1 0,30.15625 -1.65625,0 c -1.49493,-6.99708 -3.13655,-12.11593 -5,-15.25 -0.004,-0.007 0.004,-0.024 0,-0.0312 l -0.0312,0 c -1.88375,-3.22733 -4.48505,-5.81853 -7.78125,-7.65625 -1.95601,-1.10421 -5.14603,-1.59375 -9.65625,-1.59375 l -7.21875,0 -0.5,0 0,0.5 0,88.6875 c -3e-5,2.94953 0.0812,5.35696 0.21875,7.21875 0.1375,1.86179 0.34451,3.1413 0.65625,3.96875 0.58616,1.58166 1.72897,2.9469 3.375,4.09375 1.70028,1.18015 3.97277,1.75 6.8125,1.75 l 2.6875,0 0,2.125 -49.46875,0 0,-2.125 2.71875,0 c 2.86875,0 5.205593,-0.61623 7.03125,-1.875 1.350173,-0.86862 2.361692,-2.3193 3.09375,-4.3125 0.303549,-0.78896 0.493869,-2.01379 0.625,-3.8125 0.131131,-1.79871 0.1875,-4.14686 0.1875,-7.03125 l 0,-88.53125 0,-0.5 -0.5,0 -6.9375,0 c -6.550715,1.1e-4 -11.417357,1.64729 -14.5,5.0625 l -0.03125,0 c -4.133651,4.592 -6.681953,11.11831 -7.8125,19.46875 l -1.8125,0 0,-30.15625 85.5,-0.15625 z"
     id="Tborder" /><path
     style="fill:#000000"
     d="m 46.304124,72.507591 -9.66,-29.5 3.57,-1.03 4.75,14.6 c 1.35,4.4 2.89,7.79 3.81,11.6 h 0.0963 c 0.918,-3.77 2.22,-7.88 3.72,-12.1 l 5.78,-16.7 4.23,-0.452 -11.7,33.6 h -4.64 z"
     id="path3741" /><path
     style="fill:#000000"
     d="m 80.304124,36.207591 -0.145,1.03 -8.99,4.28 -1.81,-8.27 12.5,-5.8 9.07,-1.03 v 46.1 h -10.7 v -36.3 z"
     id="path3743" /><path
     style="fill:#000000"
     d="m 140.20412,73.607591 -5.52,-9.94 c -1.81,-3.41 -2.97,-5.95 -4.35,-8.78 h -0.146 c -1.02,2.83 -2.25,5.37 -3.85,8.78 l -3.99,8.85 h -12.6 l 14.1,-24.7 -12.6,-22.1 12.7,-1.03 3.25,7.9 c 1.45,2.97 2.54,5.37 3.7,8.12 h 0.144 c 1.16,-3.12 2.1,-5.29 3.34,-8.12 l 4.13,-8.92 12.6,-1.03 -13.8,24.9 15.6,26.1 h -12.8 z"
     id="path3745" /></svg>