<!-- Generator: Adobe Illustrator 13.0.2, SVG Export Plug-In  -->
<svg xmlns:rdf="http://www.w3.org/1999/02/22-rdf-syntax-ns#" xmlns="http://www.w3.org/2000/svg" enable-background="new 21.152 45.375 219 219" xml:space="preserve" height="219px" width="219px" version="1.1" y="0px" x="0px" xmlns:cc="http://creativecommons.org/ns#" xmlns:dc="http://purl.org/dc/elements/1.1/" viewBox="21.152 45.375 219 219">
	<metadata>
		<rdf:RDF>
			<cc:Work rdf:about="">
				<dc:format>image/svg+xml</dc:format>
				<dc:type rdf:resource="http://purl.org/dc/dcmitype/StillImage"/>
				<dc:title/>
			</cc:Work>
		</rdf:RDF>
	</metadata>
	<defs>
		<filter id="filter4181">
			<feGaussianBlur stdDeviation="2.0551094"/>
		</filter>
		<filter id="filter3819" color-interpolation-filters="sRGB">
			<feGaussianBlur stdDeviation="2.1762922"/>
		</filter>
	</defs>
	<filter id="AI_GaussianBlur_2">
		<feGaussianBlur stdDeviation="2"/>
	</filter>
	<filter>
		<feGaussianBlur stdDeviation="3"/>
	</filter>
	<path opacity="0.5" d="M63.5,66.8v2.2h-46.3c-0.4,0-0.7,0.5-0.7,1.1s0.3,1,0.7,2.1h6.6c1.3,4.5,5.1,5.7,5.1,5.7h37.9l-5.2,0.1s-3.2,3-1.9,4.3c0,0,0.8,2.5,2.2,3.9l18.1,14.8s10.1,9,11.5,24l7.3-2,2.2,4-8.5,4h0.2-0.2l6.6,12c-0.2,0-0.6,2-0.6,3,0.1,0,0.1,1,0.2,1,0.7,1,23.3,51,47.3,51,0,0,18,1,26-37,0,0,4-11,7-20,1,4,5,17,10,24l2,37,14-3,1-108v-23.3l-19,4.9s-23,2.4-29,12.7c-2,1.7-3,4.2-4,7.4-6,16.2-11,47.2-12,50.2v1l-1,6-1-1h-2l-9-16-3-2-3-13-7,3-1-1,4-2s-5-24,12-34.4c0,0,4-7.6-9-4.4,0,0-14,15.3-17,12.2l-16.5-10.7s1-1.2-0.8-2.6c0,0-0.4-0.1-1-0.2l66.3-0.1c4,0.4,6-3.1,6-5.6h8v-2.1-1.1h-58v-2.2h-8v2.2h-30.4v-2.2h-7.1zm6.4,11.1h4.3c-0.4,0.2-0.8,0.6-0.9,1.1l-3.4-1.1zm10.5,0h1.5c-0.2,0.1-0.4,0.2-0.5,0.4l-1-0.4z" transform="translate(21.152,45.375)" filter="url(#filter4181)" fill="#000"/>
	<rect height="63.6" filter="url(#AI_GaussianBlur_2_3_)" width="164" y="58.1" x="82" fill="none"/>
	<path fill="#757575" d="m44.2,120,0,0s-5.03-1.65-5.43-7.95h136s-1.28,8.49-6.68,7.81h-124z"/>
	<path fill="#444445" d="m183,112c0,0.597-0.323,1.08-0.723,2.17h-149c-0.4-1.09-0.724-1.57-0.724-2.17,0-0.596,0.323-1.08,0.724-1.08h149c0.399,0,0.723,0.482,0.723,1.08z"/>
	<rect height="63.6" width="164" y="56.3" x="78.4" fill="none"/>
	<path fill="#c6b298" d="m68.2,112-32.4,0.54s-4.82,0.212-2.48-0.484c0-0.001,12.8-0.109,34.9-0.056z"/>
	<g filter="url(#AI_GaussianBlur_2)">
		<polygon points="136,168,121,175,118,169,135,166" fill="#5b5b5b"/>
	</g>
	<path fill="#EEE" stroke="#727272" d="m156,192-1.29-1.54-1.36,0.137-9.17-15.8-3.25-1.47-2.82-13-6.89,3.08-0.74-2.02,3.82-1.2s-5.12-24.3,12-34.8c0,0,3.68-7.58-8.86-4.33,0,0-14.3,15.2-17.4,12.1l-17-10s1.04-1.16-0.818-2.56c0,0-5.31-1.41-6.27,0.233l-1.63-0.697s-5.58-1.4-6.5,1.39l-3.48-1.16-8.24,0.103s-3.13,3.04-1.86,4.37c0,0,0.802,2.49,2.19,3.89l18.1,14.9s10.1,8.84,11.5,24.1l7.28-2.03,2.1,4.21-8.4,3.28,6.65,12.2s-1.14,2.41-0.446,3.81c0.694,1.39,22.9,50.9,46.8,50.8,0,0,18.6,1.68,26.7-36.4,0,0,9.19-28.6,9.94-30.5,0.745-1.82,4.93-18.1,4.93-20.9,0,0,4.84-9.71-0.562-37,0,0-22.2,2.45-29,12.7-1.07,1.64-2.2,4.19-3.33,7.33-5.97,16.6-12.2,49.4-12,50.8l-1.42,6.5z"/>
	<path fill="#757575" stroke="#727272" d="m194,181s5.21,17.3,11.2,26.4l1.48,36.6,14.6-2.47,0.223-108v-23.2l-19.2,4.89"/>
	<polygon points="132,164,117,171,114,165,131,162" stroke="#727272" fill="#e2bd98"/>
	<path fill="#9b9b9b" stroke="#727272" d="m131,164,6.89-3.08,2.82,13,3.25,1.46,9.17,15.8,1.36-0.135,1.29,1.54,1.42-6.5c-0.194-1.37,6.01-34.2,12-50.8,1.13-3.14,2.26-5.69,3.33-7.33,6.71-10.3,29-12.7,29-12.7,5.4,27.3,0.562,37,0.562,37,0,2.79-4.18,19-4.93,20.9-0.749,1.82-9.94,30.5-9.94,30.5-8.13,38.1-26.7,36.4-26.7,36.4-23.9,0.178-46.1-49.4-46.8-50.8-0.695-1.4,0.446-3.81,0.446-3.81l-6.65-12.2,8.4-3.28,15.1-5.77z"/>
	<path fill="none" stroke="#757575" d="m156,192s9.59,14.1,8.99,23.5"/>
	<circle cx="134" cy="168" r="2.36" fill="#d8bc32"/>
	<path fill="none" stroke="#818182" d="m121,154s-2.13-14.7-16.4-14.8"/>
	<rect height="63.6" filter="url(#AI_GaussianBlur_2_3_)" width="164" y="73.4" x="-135" fill="none"/>
	<rect height="63.6" width="164" y="71.6" x="-139" fill="none"/>
	<g fill-opacity="0.50196078" transform="matrix(0.31091651,0,0,0.38326406,148.60912,46.590818)" filter="url(#filter3819)" fill="#000">
		<path d="m-145,168,0,4.35-83.4,0,0-4.35,5.29,0c4.63,0,8.35-0.823,11.2-2.47,2.04-1.1,3.61-2.98,4.71-5.65,0.863-1.88,1.29-6.82,1.29-14.8v-105c-0.00003-8.16-0.431-13.3-1.29-15.3-0.863-2.04-2.61-3.82-5.23-5.35-2.63-1.53-6.18-2.29-10.6-2.29h-5.29v-4.35h83.4v4.35h-5.29c-4.63,0.000155-8.35,0.824-11.2,2.47-2.04,1.1-3.65,2.98-4.82,5.65-0.863,1.88-1.29,6.82-1.29,14.8v105c-0.00006,8.16,0.451,13.3,1.35,15.3,0.902,2.04,2.67,3.82,5.29,5.35,2.63,1.53,6.18,2.29,10.6,2.29z"/>
		<path d="m12.3,12.8,0,43.2-4.23,0c-2.51-10-5.3-17.2-8.36-21.5-3.05-4.4-7.25-7.9-12.6-10.4-2.98-1.41-8.2-2.12-15.6-2.12h-11.9v123c-0.000099,8.16,0.451,13.3,1.35,15.3,0.902,2.04,2.67,3.82,5.29,5.35,2.63,1.53,6.21,2.29,10.8,2.29h5.29v4.35h-83.5v-4.35h5.29c4.63,0,8.35-0.823,11.2-2.47,2.04-1.1,3.65-2.98,4.82-5.65,0.863-1.88,1.29-6.82,1.29-14.8v-122h-11.5c-10.7,0.00015-18.5,2.27-23.4,6.82-6.82,6.35-11.1,15.4-12.9,27.2h-4.47v-43.2z"/>
	</g>
	<g fill="#000" transform="matrix(0.31091651,0,0,0.38326406,145.27747,43.159055)">
		<path d="m-145,168,0,4.35-83.4,0,0-4.35,5.29,0c4.63,0,8.35-0.823,11.2-2.47,2.04-1.1,3.61-2.98,4.71-5.65,0.863-1.88,1.29-6.82,1.29-14.8v-105c-0.00003-8.16-0.431-13.3-1.29-15.3-0.863-2.04-2.61-3.82-5.23-5.35-2.63-1.53-6.18-2.29-10.6-2.29h-5.29v-4.35h83.4v4.35h-5.29c-4.63,0.000155-8.35,0.824-11.2,2.47-2.04,1.1-3.65,2.98-4.82,5.65-0.863,1.88-1.29,6.82-1.29,14.8v105c-0.00006,8.16,0.451,13.3,1.35,15.3,0.902,2.04,2.67,3.82,5.29,5.35,2.63,1.53,6.18,2.29,10.6,2.29z"/>
		<path d="m12.3,12.8,0,43.2-4.23,0c-2.51-10-5.3-17.2-8.36-21.5-3.05-4.4-7.25-7.9-12.6-10.4-2.98-1.41-8.2-2.12-15.6-2.12h-11.9v123c-0.000099,8.16,0.451,13.3,1.35,15.3,0.902,2.04,2.67,3.82,5.29,5.35,2.63,1.53,6.21,2.29,10.8,2.29h5.29v4.35h-83.5v-4.35h5.29c4.63,0,8.35-0.823,11.2-2.47,2.04-1.1,3.65-2.98,4.82-5.65,0.863-1.88,1.29-6.82,1.29-14.8v-122h-11.5c-10.7,0.00015-18.5,2.27-23.4,6.82-6.82,6.35-11.1,15.4-12.9,27.2h-4.47v-43.2z"/>
	</g>
</svg>