<!-- Generator: Adobe Illustrator 13.0.2, SVG Export Plug-In  -->
<svg xmlns:rdf="http://www.w3.org/1999/02/22-rdf-syntax-ns#" xmlns="http://www.w3.org/2000/svg" version="1.1" xml:space="preserve" height="219px" width="219px" enable-background="new 21.152 45.375 219 219" y="0px" x="0px" xmlns:cc="http://creativecommons.org/ns#" xmlns:dc="http://purl.org/dc/elements/1.1/" viewBox="21.152 45.375 219 219">
	<metadata>
		<rdf:RDF>
			<cc:Work rdf:about="">
				<dc:format>image/svg+xml</dc:format>
				<dc:type rdf:resource="http://purl.org/dc/dcmitype/StillImage"/>
				<dc:title/>
			</cc:Work>
		</rdf:RDF>
	</metadata>
	<defs>
		<filter id="AI_GaussianBlur_2-9" color-interpolation-filters="sRGB">
			<feGaussianBlur stdDeviation="2"/>
		</filter>
		<filter id="filter4359">
			<feGaussianBlur stdDeviation="1.7761565"/>
		</filter>
		<filter id="filter4449">
			<feGaussianBlur stdDeviation="1.0358267"/>
		</filter>
	</defs>
	<filter>
		<feGaussianBlur stdDeviation="3"/>
	</filter>
	<rect height="63.6" filter="url(#AI_GaussianBlur_2_3_)" width="164" y="62.8" x="-147" fill="none"/>
	<rect height="63.6" width="164" y="61" x="-150" fill="none"/>
	<path opacity="0.5" d="m111,110c-0.3-0.3-0.546-0.985-0.546-1.52v-0.974l-29.6-0.277c-19.6-0.183-30.5-0.118-32.2,0.191-3.09,0.572-5.64,0.204-5.27-0.76,0.141-0.366,0.517-0.666,0.838-0.666,0.853,0,5.16-3.69,7.48-6.41,1.81-2.12,1.94-2.42,1.25-2.92-1.17-0.858-1.27-0.636,2.96-6.97,1.38-2.07,1.35-2.82-0.104-2.82-0.964,0-1.18-0.672-0.38-1.17,0.358-0.221,0.341-0.412-0.0605-0.66-1.13-0.696,0.603-2.4,15.8-15.5,7.35-6.35,7.9-6.74,9.04-6.3,1.61,0.612,8.61,1.62,15.9,2.28,3.49,0.319,6.89,0.905,8.3,1.43,2.85,1.06,6.01,4,7.53,6.98l1.1,2.16,1.2-2.05c1.55-2.65,4.95-5.69,8.44-7.55,3.21-1.71,7.28-2.8,16.4-4.39l6.55-1.14,2.1,2c2.62,2.5,7.37,6.25,15.4,12.2,6,4.4,7.85,6,7.85,6.77,0,0.195-0.745,0.494-1.65,0.665l-1.65,0.31,1.73,1.77c1.62,1.66,2.92,4.29,2.94,5.94,0.004,0.394,0.938,2.63,2.08,4.97,1.51,3.1,1.92,4.35,1.52,4.59-0.769,0.475,0.452,2.26,3.77,5.52,1.45,1.43,2.49,2.68,2.31,2.79-0.182,0.107-5.15,0.0258-11-0.182-5.88-0.207-20.6-0.388-32.8-0.402l-22.1-0.0252-0.516,1.37c-0.451,1.19-0.737,1.37-2.29,1.37-0.973,0-2.02-0.246-2.32-0.546z" fill-rule="evenodd" transform="matrix(1.0878468,0,0,1.0878468,-11.947935,-7.037739)" filter="url(#filter4449)" stroke-miterlimit="4" stroke-width="0" fill="#000"/>
	<path stroke="#0c0c0c" stroke-width="1.08784676" d="m41.5,81s-1.64,1.06-1.29,1.78,2.52-0.14,2.86,0.943c0,0-2.19,1.95-2.2,2.85,0,0-2.02,2.67-2.03,3.57,0,0-2,1.59-1.49,3.04,0,0,1.44,0.0228,1.23,1.64,0,0-8.93,10.6-11.3,9.34,0,0,3.03,2.22,12.2-0.51,7.88-1.77,12.5-2.8,20.5-3.94,3.2-0.456,10.8-1.35,14.1-0.98,0,0,22.5-0.222,26.7,6.68,0,0-0.198,1.17,0.0555,2.16,0,0,0.337,1.54,3.86,0.78,0,0,1.47-0.188,0.98-3.25-0.0805-0.503,7.13-2.49,7.53-2.6,6.07-1.76,12.3-3.16,18.7-3.41,7.58-0.294,14.4,1.25,21.7,2.88,6.32,1.41,12.7,2.83,19.1,3.83,1.28,0.201,4.1,1.08,5.37,0.367,0,0-8.35-6.97-7.41-9.47,0,0,0.361-0.173,0.896,0.195,0,0-5.25-9.62-4.51-11.2,0,0-1.23-1.82-0.855-2.89l-4.97-4.57" fill="#b7b7b7"/>
	<path stroke="#0c0c0c" stroke-width="1.08784676" d="m103,72.8s-2.34-11.2-13.8-12.3-23-1.8-23-3.41c0,0-26.1,21.9-26.1,23.3,0,0,3.22,1.31,6.1,1.35,0,0,30.7,2.28,33.6,4.12,0,0,17.9,5.14,23.3,18,0,0,7.64-16.8,34-21.1,0,0,26.9-5.52,28.9-4.95,0,0-0.159-1.44-3.01-3.29,0,0-24.4-17.7-24.3-19.5,0,0-21.1,3.27-21.8,4.52,0.001,0.0011-11.2,3.79-13.7,13.1z" fill="#eaeaea"/>
	<line stroke-width="1.09" x1="103" x2="103" stroke="#0c0c0c" y1="104" y2="72.8" fill="#adadad"/>
	<path stroke="#0c0c0c" stroke-width="1.08784676" d="m43,83.8s53,2.12,59.8,20.3" fill="none"/>
	<path stroke="#0c0c0c" stroke-width="1.08784676" d="M103,104c-12.9-17.6-62.2-17.4-62.2-17.4" fill="none"/>
	<path stroke="#0c0c0c" stroke-width="1.08784676" d="m38.8,90.2s55.1-1.72,64,14.1" fill="none"/>
	<path stroke="#0c0c0c" stroke-width="1.08784676" d="m38.6,94.8c56.6-4.4,65.9,11.7,64.3,9.64" fill="none"/>
	<path stroke="#0c0c0c" stroke-width="1.08784676" d="m166,82.8s-47.3-1.18-62.8,20.9" fill="none"/>
	<path stroke="#0c0c0c" stroke-width="1.08784676" d="M104,104c15-17.8,63-18.3,63-18.3" fill="none"/>
	<path stroke="#0c0c0c" stroke-width="1.08784676" d="m171,96.7s-43.8-13.2-67.7,7.76" fill="none"/>
	<path stroke="#513a20" stroke-width="2.17569351" d="m178,106c0.126-0.099-0.606,0.698-5.79-0.114-6.4-1-12.7-2.42-19.1-3.83-7.31-1.63-14.1-3.17-21.7-2.88-6.33,0.249-12.6,1.65-18.7,3.41-0.405,0.114-7.61,2.1-7.53,2.6,0.493,3.07-0.981,3.25-0.981,3.25-3.52,0.755-3.86-0.78-3.86-0.78-0.253-0.994-0.0555-2.16-0.0555-2.16-4.21-6.9-26.7-6.68-26.7-6.68-3.24-0.371-10.9,0.523-14,0.98-7.99,1.14-12.6,2.17-20.5,3.94-9.22,2.73-11.9,1.35-11.9,1.35s-0.129-0.583,1.17-0.519" fill="none"/>
	<rect transform="matrix(0.95601869,0.29330575,-0.29330575,0.95601869,0,0)" height="23.8" width="134" y="36.1" x="87" fill="none"/>
	<g style="letter-spacing:1.83700000999999990;" font-size="25.05109978px" transform="matrix(2.2643531,0.69469897,-0.31906547,1.0399815,66.901812,78.700363)" stroke="#a75621" font-family="Arial-BoldMT" fill="#d97b3b">
		<path fill="#d97b3b" d="m2.46-18.3c0.769-0.386,1.58-0.484,2.47,0l-1.73,19.2c-0.82-0.072-1.66,0.153-2.53,0.753l1.73-19.2" stroke="#a75621"/>
	</g>
	<rect transform="matrix(0.95879508,-0.28409855,0.28409855,0.95879508,0,0)" height="30.4" width="43.9" y="95.2" x="83.5" fill="none"/>
	<g stroke-linejoin="miter" style="letter-spacing:1.49699998000000000;enable-background:accumulate;color:#000000;" stroke-width="1.0422707" fill-rule="nonzero" stroke-dashoffset="0" font-size="25.0510006px" transform="matrix(2.0904064,-0.61941997,0.30905728,1.0430275,112.66046,86.230765)" stroke="#a75621" stroke-linecap="butt" stroke-miterlimit="4" stroke-dasharray="none" font-family="Arial-BoldMT" fill="#d97b3b">
		<path stroke-linejoin="miter" style="enable-background:accumulate;color:#000000;" d="m0.548-17.7c4.72-4.05,9.37-2.95,14.3-0.821l0.426,2.81c-2.14-1.07-4.35-1.67-6.62-1.86l0.31,17.6c-0.779-0.328-1.62-0.252-2.48,0,0,0,0.00178-14.2-0.0242-17.6-2.3,0.0044-5.75,2.69-5.75,2.69" fill-rule="nonzero" stroke-dashoffset="0" stroke="#a75621" stroke-linecap="butt" stroke-miterlimit="4" stroke-dasharray="none" stroke-width="1.0422707" fill="#d97b3b"/>
	</g>
	<g transform="matrix(1.0878468,0,0,1.0878468,238.65513,-16.942999)">
		<path opacity="0.5" d="m-185,123c0.781,5.58,5.34,7.09,5.34,7.09l38.8-0.0312-6.19,0.0625s-3.11,3.04-1.84,4.38,0.796,2.48,2.19,3.88l18.1,14.9s10.1,8.84,11.5,24.1l7.28-2.03,2.09,4.22-8.41,3.28,0.125,0.219-0.125,0.0625,6.59,12.1c-0.119,0.27-0.468,1.14-0.562,2.12-0.0152,0.159-0.0345,0.312-0.0312,0.469-0.003,0.0529,0.001,0.104,0,0.156,0.007,0.104,0.0136,0.213,0.0312,0.312,0.0209,0.31,0.0573,0.613,0.188,0.875,0.694,1.39,22.9,50.9,46.8,50.8,0,0,18.6,1.69,26.7-36.4,0,0,3.71-11.5,6.62-20.5,1.43,4.46,5.62,16.9,10.6,24.3l1.5,36.7,14.6-2.47,0.219-108v-23.2l-19.2,4.91s-22.2,2.46-28.9,12.8c-1.07,1.64-2.21,4.17-3.34,7.31-5.78,16-11.7,47.3-11.9,50.5-0.006,0.103-0.0374,0.27-0.0312,0.312l-1.44,6.5-1.28-1.53-1.34,0.125-9.19-15.8-3.25-1.47-2.81-12.9-6.69,2.97-0.938-1.91,3.81-1.22s-5.13-24.3,12-34.8,3.7-7.6-8.84-4.34c0,0-14.3,15.2-17.4,12.2l-16.4-10.8s1.05-1.17-0.812-2.56-0.394-0.1-0.969-0.219l66.5-0.0625c4.37,0.551,6.02-4.87,6.5-6.97h7.31c0.4-1.09,0.75-1.56,0.75-2.16,0-0.596-0.351-1.09-0.75-1.09-32.8-2.01-146,1.32-143,3.25zm56.8,7.03,1.47,0c-0.205,0.114-0.36,0.251-0.469,0.438zm-10.6,0.0312,4.31,0c-0.417,0.265-0.738,0.618-0.906,1.12z" filter="url(#filter4359)" stroke-miterlimit="4" stroke-width="0" fill="#000"/>
		<path d="m-185,125,0,0s-5.03-1.65-5.43-7.95h136s-1.28,8.49-6.68,7.81l-124,0.136z" fill="#757575"/>
		<path d="m-46.2,117c0,0.597-0.323,1.08-0.723,2.17h-149c-0.4-1.09-0.724-1.57-0.724-2.17,0-0.596,0.323-1.08,0.724-1.08h149c0.399,0,0.723,0.482,0.723,1.08z" fill="#444445"/>
		<path d="m-161,116-32.4,0.54s-4.82,0.212-2.48-0.484c0-0.001,12.8-0.109,34.9-0.056z" fill="#c6b298"/>
		<g filter="url(#AI_GaussianBlur_2-9)" transform="translate(-228.78231,4.6570624)">
			<polygon points="135,166,136,168,121,175,118,169" fill="#5b5b5b"/>
		</g>
		<path stroke="#727272" d="m-72.6,197-1.29-1.54-1.36,0.137-9.17-15.8-3.25-1.47-2.82-13-6.89,3.08-0.74-2.02,3.82-1.2s-5.12-24.3,12-34.8,3.68-7.58-8.86-4.33c0,0-14.3,15.2-17.4,12.1l-16.4-10.7s1.04-1.16-0.818-2.56-5.31-1.41-6.27,0.233l-1.63-0.697s-5.58-1.4-6.5,1.39l-3.48-1.16-8.24,0.103s-3.13,3.04-1.86,4.37,0.802,2.49,2.19,3.89l18.1,14.9s10.1,8.84,11.5,24.1l7.28-2.03,2.1,4.21-8.4,3.28,6.65,12.2s-1.14,2.41-0.446,3.81c0.694,1.39,22.9,50.9,46.8,50.8,0,0,18.6,1.68,26.7-36.4,0,0,9.19-28.6,9.94-30.5,0.745-1.82,4.93-18.1,4.93-20.9,0,0,4.84-9.71-0.562-37,0,0-22.2,2.45-29,12.7-1.07,1.64-2.2,4.19-3.33,7.33-5.97,16.6-12.2,49.4-12,50.8l-1.42,6.5z" fill="#EEE"/>
		<path stroke="#727272" d="m-35.3,185s5.21,17.3,11.2,26.4l1.48,36.6,14.6-2.47,0.223-108v-23.2l-19.2,4.89" fill="#757575"/>
		<polygon stroke="#727272" points="131,162,132,164,117,171,114,165" transform="translate(-228.78231,4.6570624)" fill="#e2bd98"/>
		<path stroke="#727272" d="m-97.4,168,6.89-3.08,2.82,13,3.25,1.46,9.17,15.8,1.36-0.135,1.29,1.54,1.42-6.5c-0.194-1.37,6.01-34.2,12-50.8,1.13-3.14,2.26-5.69,3.33-7.33,6.71-10.3,29-12.7,29-12.7,5.4,27.3,0.562,37,0.562,37,0,2.79-4.18,19-4.93,20.9-0.749,1.82-9.94,30.5-9.94,30.5-8.13,38.1-26.7,36.4-26.7,36.4-23.9,0.178-46.1-49.4-46.8-50.8-0.695-1.4,0.446-3.81,0.446-3.81l-6.65-12.2,8.4-3.28,15.1-5.77z" fill="#9b9b9b"/>
		<path stroke="#757575" d="m-72.6,197s9.59,14.1,8.99,23.5" fill="none"/>
		<circle d="m 136.36,168 c 0,1.30339 -1.05661,2.36 -2.36,2.36 -1.30339,0 -2.36,-1.05661 -2.36,-2.36 0,-1.30339 1.05661,-2.36 2.36,-2.36 1.30339,0 2.36,1.05661 2.36,2.36 z" transform="translate(-228.78231,4.6570624)" cy="168" cx="134" r="2.36" fill="#d8bc32"/>
		<path stroke="#818182" d="m-107,159s-2.13-14.7-16.4-14.8" fill="none"/>
	</g>
</svg>