<?xml version="1.0"?>
<?metis version="5.2.2"?>
<?metisxml version="1.2"?>
<!DOCTYPE svg  PUBLIC "-//W3C//DTD SVG 1.0//EN"
 "http://www.w3.org/TR/2001/REC-SVG-20010904/DTD/svg10.dtd">

<svg>
 <title>Symbol library: ka.svg</title>
 <defs>
  <symbol id="_002ash600eh8nfsuqhqg" xml:space="preserve" class="METIS_SYMBOL">
   <title>HeaderLogo</title>
    <image x="0" y="0" width="96.2462" height="40" id="_002ash600euv8ps597nm" xlink:href="../views/akm-logo.png"></image>
  </symbol>
  <symbol id="_002ash600djc8v3cu4pj" xml:space="preserve" class="METIS_SYMBOL">
   <title>Header</title>
    <polygon points="0 256 320 256 320 0 
     0 0 0 256"
     style=" stroke:#bfd4d9; stroke-width:1; fill:#bfd4d9; fill-opacity:100%"     class="TAG:canvas"></polygon>
    <g>
      <desc>METIS_TEXT_GROUP</desc>
      <text  x="8" y="23"
       style=" stroke:#000000; stroke-width:1; font-family:sans-serif; font-weight:bold; font-size:16; vertical-align:middle;"
       class="TAG:text">text</text>
      <rect x="8" y="8" width="304" height="240"
       style=" stroke:#000000; stroke-width:1; fill:#bfd4d9; fill-opacity:100%"></rect>
    </g>
  </symbol>
  <symbol id="_002ash600dp7aeotibnf" xml:space="preserve" class="METIS_SYMBOL">
   <title>Button_gray</title>
    <polygon points="0 256 320 256 320 0 
     0 0 0 256"
     style=" stroke:#dfeaec; stroke-width:1; fill:#9cc7ce; fill-opacity:100%"     class="TAG:canvas"></polygon>
    <g>
      <desc>METIS_TEXT_GROUP</desc>
      <text  x="8" y="23"
       style=" stroke:#000000; stroke-width:1; font-family:sans-serif; font-weight:bold; font-size:16; text-align:center vertical-align:middle;"
       class="TAG:text">text</text>
      <rect x="8" y="8" width="304" height="240"
       style=" stroke:#000000; stroke-width:1; fill:#9cc7ce; fill-opacity:100%"></rect>
    </g>
    <polyline points="0 256 0 0"
     style=" stroke:#ffffff; stroke-width:1;"></polyline>
    <polyline points="0 256 320 256"
     style=" stroke:#000000; stroke-width:1;"></polyline>
    <polyline points="320 256 320 0"
     style=" stroke:#000000; stroke-width:1;"></polyline>
    <polyline points="0 0 320 0"
     style=" stroke:#ffffff; stroke-width:1;"></polyline>
  </symbol>
  <symbol id="_002ash600ginsu5hcr63" xml:space="preserve" class="METIS_SYMBOL">
   <title>Header_Light</title>
    <polygon points="0 256 320 256 320 0 
     0 0 0 256"
     style=" stroke:#dfeaec; stroke-width:1; fill:#dfeaec; fill-opacity:100%"     class="TAG:canvas"></polygon>
    <g>
      <desc>METIS_TEXT_GROUP</desc>
      <text  x="8" y="23"
       style=" stroke:#000000; stroke-width:1; font-family:sans-serif; font-weight:bold; font-size:16; vertical-align:middle;"
       class="TAG:text">text</text>
      <rect x="8" y="8" width="304" height="240"
       style=" stroke:#000000; stroke-width:1; fill:#dfeaec; fill-opacity:100%"></rect>
    </g>
    <polyline points="0 256 0 0"
     style=" stroke:#ffffff; stroke-width:1;"></polyline>
    <polyline points="0 256 320 256"
     style=" stroke:#000000; stroke-width:1;"></polyline>
    <polyline points="320 256 320 0"
     style=" stroke:#000000; stroke-width:1;"></polyline>
    <polyline points="0 0 320 0"
     style=" stroke:#ffffff; stroke-width:1;"></polyline>
  </symbol>
  <symbol id="_002ash6026qsg6um7j7o" xml:space="preserve" class="METIS_SYMBOL">
   <title>Header_Light_base</title>
    <polygon points="0 256 320 256 320 0 
     0 0 0 256"
     style=" stroke:#dfeaec; stroke-width:1; fill:#dfeaec; fill-opacity:100%"     class="TAG:canvas"></polygon>
    <g>
      <desc>METIS_TEXT_GROUP</desc>
      <text  x="8" y="23"
       style=" stroke:#000000; stroke-width:1; font-family:sans-serif; font-weight:bold; font-size:16; vertical-align:middle;"
       class="TAG:text">text</text>
      <rect x="8" y="8" width="304" height="240"
       style=" stroke:#000000; stroke-width:1; fill:#dfeaec; fill-opacity:100%"></rect>
    </g>
  </symbol>
  <symbol id="_002ash6026vj80lls6ub" xml:space="preserve" class="METIS_SYMBOL">
   <title>Header_Light_Round</title>
    <ellipse  cx="288" cy="32" rx="32" ry="32"
     style=" stroke:#000000; stroke-width:1; fill:#dfeaec; fill-opacity:100%"></ellipse>
    <ellipse  cx="32" cy="32" rx="32" ry="32"
     style=" stroke:#ffffff; stroke-width:1; fill:#dfeaec; fill-opacity:100%"></ellipse>
    <polygon points="0 88 320 88 320 32 
     0 32 0 88"
     style=" stroke:#dfeaec; stroke-width:1; fill:#dfeaec; fill-opacity:100%"     class="TAG:canvas"></polygon>
    <g>
      <desc>METIS_TEXT_GROUP</desc>
      <text  x="16" y="31"
       style=" stroke:#000000; stroke-width:1; font-family:sans-serif; font-weight:bold; font-size:16; text-align:center vertical-align:middle;"
       class="TAG:text">text</text>
      <rect x="16" y="16" width="288" height="64"
       style=" stroke:#000000; stroke-width:1; fill:#dfeaec; fill-opacity:100%"></rect>
    </g>
    <polyline points="0 88 320 88"
     style=" stroke:#000000; stroke-width:1;"></polyline>
    <polyline points="320.266 88 320 32"
     style=" stroke:#000000; stroke-width:1;"></polyline>
    <polyline points="0.265875 32 0 88"
     style=" stroke:#ffffff; stroke-width:1;"></polyline>
    <rect x="32" y="0" width="256" height="24"
     style=" stroke:#dfeaec; stroke-width:1; fill:#dfeaec; fill-opacity:100%"></rect>
    <polyline points="32 0.265875 288 0"
     style=" stroke:#ffffff; stroke-width:1;"></polyline>
  </symbol>
  <symbol id="_002ash60271es1unmfr0" xml:space="preserve" class="METIS_SYMBOL">
   <title>Header_Light_center</title>
    <polygon points="0 256 320 256 320 0 
     0 0 0 256"
     style=" stroke:#dfeaec; stroke-width:1; fill:#dfeaec; fill-opacity:100%"     class="TAG:canvas"></polygon>
    <g>
      <desc>METIS_TEXT_GROUP</desc>
      <text  x="8" y="23"
       style=" stroke:#000000; stroke-width:1; font-family:sans-serif; font-weight:bold; font-size:16; text-align:center vertical-align:middle;"
       class="TAG:text">text</text>
      <rect x="8" y="8" width="304" height="232"
       style=" stroke:#000000; stroke-width:1; fill:#dfeaec; fill-opacity:100%"></rect>
    </g>
    <polyline points="0 256 0 0"
     style=" stroke:#ffffff; stroke-width:1;"></polyline>
    <polyline points="0 256 320 256"
     style=" stroke:#000000; stroke-width:1;"></polyline>
    <polyline points="320 256 320 0"
     style=" stroke:#000000; stroke-width:1;"></polyline>
    <polyline points="0 0 320 0"
     style=" stroke:#ffffff; stroke-width:1;"></polyline>
  </symbol>
  <symbol id="_002ash6027k7906qdnsd" xml:space="preserve" class="METIS_SYMBOL">
   <title>Button_Folder_Light</title>
    <polygon points="0 86.6848 325.452 86.6848 325.452 0 
     0 0 0 86.6848"
     style="stroke:none; fill:#9cc7ce; fill-opacity:100%"     class="TAG:canvas"></polygon>
    <g>
      <desc>METIS_TEXT_GROUP</desc>
      <text  x="8" y="23"
       style=" stroke:#000000; stroke-width:1; font-family:sans-serif; font-weight:bold; font-size:16; vertical-align:middle;"
       class="TAG:text">text</text>
      <rect x="8" y="8" width="309.452" height="72"
       style=" stroke:#000000; stroke-width:1; fill:#9cc7ce; fill-opacity:100%"></rect>
    </g>
  </symbol>
  <symbol id="_002ash6029ahp5ftj9rg" xml:space="preserve" class="METIS_SYMBOL">
   <title>Background_gray</title>
    <polygon points="0 256 320 256 320 0 
     0 0 0 256"
     style=" stroke:#9cc7ce; stroke-width:1; fill:#9cc7ce; fill-opacity:100%"     class="TAG:canvas"></polygon>
  </symbol>
  <symbol id="_002ash70039j0l3ri11i" xml:space="preserve" class="METIS_SYMBOL">
   <title>Button_Togle</title>
    <polygon points="0 256 320 256 320 0 
     0 0 0 256"
     style=" stroke:#dfeaec; stroke-width:1; fill:#9cc7ce; fill-opacity:100%"     class="TAG:canvas"></polygon>
    <g>
      <desc>METIS_TEXT_GROUP</desc>
      <text  x="8" y="23"
       style=" stroke:#000000; stroke-width:1; font-family:sans-serif; font-weight:bold; font-size:16; text-align:center vertical-align:middle;"
       class="TAG:text">text</text>
      <rect x="8" y="8" width="304" height="240"
       style=" stroke:#000000; stroke-width:1; fill:#9cc7ce; fill-opacity:100%"></rect>
    </g>
    <polyline points="0 256 0 0"
     style=" stroke:#ffffff; stroke-width:1;"></polyline>
    <polyline points="0 256 320 256"
     style=" stroke:#000000; stroke-width:1;"></polyline>
    <polyline points="320 256 320 0"
     style=" stroke:#000000; stroke-width:1;"></polyline>
    <polyline points="0 0 320 0"
     style=" stroke:#ffffff; stroke-width:1;"></polyline>
    <g>
      <rect x="17.9436" y="13.3989" width="112" height="51.5399"
       style=" stroke:#000000; stroke-width:1; fill:#ffffff; fill-opacity:100%"></rect>
      <rect x="17.9436" y="65.859" width="112" height="51.5399"
       style=" stroke:#000000; stroke-width:1; fill:#ffffff; fill-opacity:100%"></rect>
    </g>
    <g>
      <rect x="241.944" y="141.399" width="56" height="104"
       style=" stroke:#000000; stroke-width:1; fill:#ffffff; fill-opacity:100%"></rect>
      <rect x="185.944" y="141.399" width="56" height="104"
       style=" stroke:#000000; stroke-width:1; fill:#ffffff; fill-opacity:100%"></rect>
    </g>
    <path d="M 248.41 109.399 C 249.944 94.6097 244.289 87.381 
     242.439 82.68 C 239.835 76.0595 232.224 68.2681 225.226 64.3793 
     C 217.923 60.3216 212.755 56.3949 185.944 53.3989"
     style=" stroke:#000000; stroke-width:1;"></path>
    <path d="M 67.4773 165.399 C 65.9436 180.188 71.5983 187.417 
     73.4478 192.118 C 76.0525 198.738 83.6632 206.53 90.6613 210.418 
     C 97.9637 214.476 103.132 218.403 129.944 221.399"
     style=" stroke:#000000; stroke-width:1;"></path>
  </symbol>
  <symbol id="_002ashk023vs0h1bv5fg" xml:space="preserve" class="METIS_SYMBOL">
   <title>Button_Folder_Light_flat_open</title>
    <g>
      <desc>METIS_TEXT_GROUP</desc>
      <text  x="32" y="15"
       style=" stroke:#000000; stroke-width:1; font-family:sans-serif; font-weight:bold; font-size:16; vertical-align:middle;"
       class="TAG:text">text</text>
      <rect x="32" y="0" width="271.5" height="67"
       style=" stroke:#000000; stroke-width:1; fill:#dfeaec; fill-opacity:0%"></rect>
    </g>
    <ellipse  cx="8" cy="36" rx="8" ry="8"
     style=" stroke:#000000; stroke-width:1; fill:#dfeaec; fill-opacity:100%"></ellipse>
    <polyline points="8.0924 71 8 44"
     style=" stroke:#000000; stroke-width:1;"></polyline>
    <polyline points="4 36 12 36"
     style=" stroke:#000000; stroke-width:1;"></polyline>
  </symbol>
  <symbol id="_002ashk024bbkkc9r1jf" xml:space="preserve" class="METIS_SYMBOL">
   <title>Button_Folder_Light_flat_close</title>
    <g>
      <desc>METIS_TEXT_GROUP</desc>
      <text  x="28" y="15"
       style=" stroke:#000000; stroke-width:1; font-family:sans-serif; font-weight:bold; font-size:16; vertical-align:middle;"
       class="TAG:text">text</text>
      <rect x="28" y="0" width="271.918" height="64.123"
       style=" stroke:#000000; stroke-width:1; fill:#dfeaec; fill-opacity:0%"></rect>
    </g>
    <ellipse  cx="8" cy="34" rx="8" ry="8"
     style=" stroke:#000000; stroke-width:1; fill:#dfeaec; fill-opacity:100%"></ellipse>
    <rect x="7.3323" y="29.877" width="1.5" height="8"
     style=" stroke:#000000; stroke-width:1; fill:#000000; fill-opacity:100%"></rect>
    <rect x="4.0823" y="33.127" width="8" height="1.5"
     style=" stroke:#000000; stroke-width:1; fill:#000000; fill-opacity:100%"></rect>
  </symbol>
  <symbol id="_002ashk02aneurklfbkk" xml:space="preserve" class="METIS_SYMBOL">
   <title>Header_Light_Round_close</title>
    <ellipse  cx="288" cy="32" rx="32" ry="32"
     style=" stroke:#000000; stroke-width:1; fill:#bfd4d9; fill-opacity:100%"></ellipse>
    <ellipse  cx="32" cy="32" rx="32" ry="32"
     style=" stroke:#ffffff; stroke-width:1; fill:#bfd4d9; fill-opacity:100%"></ellipse>
    <polygon points="0 88 320 88 320 32 
     0 32 0 88"
     style="stroke:none; fill:#bfd4d9; fill-opacity:100%"     class="TAG:canvas"></polygon>
    <polyline points="0 88 320 88"
     style=" stroke:#000000; stroke-width:1;"></polyline>
    <polyline points="320.266 88 320 32"
     style=" stroke:#000000; stroke-width:1;"></polyline>
    <rect x="32" y="0" width="256" height="24"
     style="stroke:none; fill:#bfd4d9; fill-opacity:100%"></rect>
    <g>
      <desc>METIS_TEXT_GROUP</desc>
      <text  x="16" y="33"
       style=" stroke:#000000; stroke-width:1; font-family:sans-serif; font-weight:bold; font-size:18; text-align:center vertical-align:middle;"
       class="TAG:text">text</text>
      <rect x="16" y="16" width="288" height="64"
       style=" stroke:#000000; stroke-width:1; fill:#bfd4d9; fill-opacity:100%"></rect>
    </g>
  </symbol>
  <symbol id="_002asht025gbhac8tf7s" xml:space="preserve" class="METIS_SYMBOL">
   <title>ToolButton_gray_blu</title>
    <rect x="0" y="0" width="336" height="272"
     style=" stroke:#bfd4d9; stroke-width:1; fill:#bfd4d9; fill-opacity:100%"></rect>
    <polygon points="8 264 328 264 328 8 
     8 8 8 264"
     style=" stroke:#dfeaec; stroke-width:1; fill:#9cc7ce; fill-opacity:100%"     class="TAG:canvas"></polygon>
    <g>
      <desc>METIS_TEXT_GROUP</desc>
      <text  x="16" y="31"
       style=" stroke:#000000; stroke-width:1; font-family:sans-serif; font-weight:bold; font-size:16; text-align:center vertical-align:middle;"
       class="TAG:text">text</text>
      <rect x="16" y="16" width="304" height="240"
       style=" stroke:#000000; stroke-width:1; fill:#9cc7ce; fill-opacity:100%"></rect>
    </g>
    <polyline points="8 264 8 8"
     style=" stroke:#ffffff; stroke-width:1;"></polyline>
    <polyline points="8 264 328 264"
     style=" stroke:#000000; stroke-width:1;"></polyline>
    <polyline points="328 264 328 8"
     style=" stroke:#000000; stroke-width:1;"></polyline>
    <polyline points="8 8 328 8"
     style=" stroke:#ffffff; stroke-width:1;"></polyline>
  </symbol>
  <symbol id="_002asht025jnuc4ifp7i" xml:space="preserve" class="METIS_SYMBOL">
   <title>ToolButtonClose_gray_blu</title>
    <rect x="0" y="0" width="336" height="272"
     style=" stroke:#bfd4d9; stroke-width:1; fill:#bfd4d9; fill-opacity:100%"></rect>
    <polygon points="8 264 328 264 328 8 
     8 8 8 264"
     style=" stroke:#dfeaec; stroke-width:1; fill:#9cc7ce; fill-opacity:100%"     class="TAG:canvas"></polygon>
    <polyline points="8 264 8 8"
     style=" stroke:#ffffff; stroke-width:1;"></polyline>
    <polyline points="8 264 328 264"
     style=" stroke:#000000; stroke-width:1;"></polyline>
    <polyline points="328 264 328 8"
     style=" stroke:#000000; stroke-width:1;"></polyline>
    <polyline points="8 8 328 8"
     style=" stroke:#ffffff; stroke-width:1;"></polyline>
    <polyline points="64 40 272 232"
     style=" stroke:#000000; stroke-width:2;"></polyline>
    <polyline points="64 232 272 40"
     style=" stroke:#000000; stroke-width:2;"></polyline>
  </symbol>
  <symbol id="_002ashu004peemje0pkk" xml:space="preserve" class="METIS_SYMBOL">
   <title>ToolButton_NodeOpen_Gray_Blu</title>
    <rect x="0" y="0" width="336" height="272"
     style=" stroke:#bfd4d9; stroke-width:1; fill:#bfd4d9; fill-opacity:100%"></rect>
    <polygon points="8 264 328 264 328 8 
     8 8 8 264"
     style=" stroke:#dfeaec; stroke-width:1; fill:#9cc7ce; fill-opacity:100%"     class="TAG:canvas"></polygon>
    <polyline points="8 264 8 8"
     style=" stroke:#ffffff; stroke-width:1;"></polyline>
    <polyline points="8 264 328 264"
     style=" stroke:#000000; stroke-width:1;"></polyline>
    <polyline points="328 264 328 8"
     style=" stroke:#000000; stroke-width:1;"></polyline>
    <polyline points="8 8 328 8"
     style=" stroke:#ffffff; stroke-width:1;"></polyline>
    <rect x="120" y="104" width="96" height="48"
     style=" stroke:#ffff6e; stroke-width:1; fill:#ffffa5; fill-opacity:100%"></rect>
    <polyline points="120 152 216 152"
     style=" stroke:#000000; stroke-width:1;"></polyline>
    <polyline points="216 152 216 104"
     style=" stroke:#000000; stroke-width:1;"></polyline>
    <polyline points="160 104 152 96"
     style=" stroke:#000000; stroke-width:1;"></polyline>
    <polyline points="120 152 120 104"
     style=" stroke:#ffffff; stroke-width:1;"></polyline>
    <polyline points="120 104 128 96"
     style=" stroke:#ffffff; stroke-width:1;"></polyline>
    <polyline points="128 96 152 96"
     style=" stroke:#ffffff; stroke-width:1;"></polyline>
    <polyline points="160 104 216 104"
     style=" stroke:#ffffff; stroke-width:1;"></polyline>
    <polygon points="120 104 160 104 152 96 
     128 96 120 104"
     style=" stroke:#ffffff; stroke-width:1; fill:#ffff6e; fill-opacity:100%"></polygon>
    <polygon points="168 216 144 200 192 200 
     168 216"
     style=" stroke:#ffffff; stroke-width:1; fill:#ffffff; fill-opacity:100%"></polygon>
  </symbol>
  <symbol id="_002ashu0065nnnmpaavh" xml:space="preserve" class="METIS_SYMBOL">
   <title>ToolButton_NodeClose_Gray_Blu</title>
    <rect x="0" y="0" width="336" height="272"
     style=" stroke:#bfd4d9; stroke-width:1; fill:#bfd4d9; fill-opacity:100%"></rect>
    <polygon points="8 264 328 264 328 8 
     8 8 8 264"
     style=" stroke:#dfeaec; stroke-width:1; fill:#9cc7ce; fill-opacity:100%"     class="TAG:canvas"></polygon>
    <polyline points="8 264 8 8"
     style=" stroke:#ffffff; stroke-width:1;"></polyline>
    <polyline points="8 264 328 264"
     style=" stroke:#000000; stroke-width:1;"></polyline>
    <polyline points="328 264 328 8"
     style=" stroke:#000000; stroke-width:1;"></polyline>
    <polyline points="8 8 328 8"
     style=" stroke:#ffffff; stroke-width:1;"></polyline>
    <rect x="120" y="104" width="96" height="48"
     style=" stroke:#ffff6e; stroke-width:1; fill:#ffffa5; fill-opacity:100%"></rect>
    <polyline points="120 152 216 152"
     style=" stroke:#000000; stroke-width:1;"></polyline>
    <polyline points="216 152 216 104"
     style=" stroke:#000000; stroke-width:1;"></polyline>
    <polyline points="160 104 152 96"
     style=" stroke:#000000; stroke-width:1;"></polyline>
    <polyline points="120 152 120 104"
     style=" stroke:#ffffff; stroke-width:1;"></polyline>
    <polyline points="120 104 128 96"
     style=" stroke:#ffffff; stroke-width:1;"></polyline>
    <polyline points="128 96 152 96"
     style=" stroke:#ffffff; stroke-width:1;"></polyline>
    <polyline points="160 104 216 104"
     style=" stroke:#ffffff; stroke-width:1;"></polyline>
    <polygon points="120 104 160 104 152 96 
     128 96 120 104"
     style=" stroke:#ffffff; stroke-width:1; fill:#ffff6e; fill-opacity:100%"></polygon>
    <polygon points="168 192 144 208 192 208 
     168 192"
     style=" stroke:#ffffff; stroke-width:1; fill:#ffffff; fill-opacity:100%"></polygon>
  </symbol>
  <symbol id="_002ashu008jrtdpbl9fo" xml:space="preserve" class="METIS_SYMBOL">
   <title>ToolButton_TopNode_Gray_Blu</title>
    <rect x="0" y="0" width="336" height="272"
     style=" stroke:#bfd4d9; stroke-width:1; fill:#bfd4d9; fill-opacity:100%"></rect>
    <polygon points="8 264 328 264 328 8 
     8 8 8 264"
     style=" stroke:#dfeaec; stroke-width:1; fill:#9cc7ce; fill-opacity:100%"     class="TAG:canvas"></polygon>
    <polyline points="8 264 8 8"
     style=" stroke:#ffffff; stroke-width:1;"></polyline>
    <polyline points="8 264 328 264"
     style=" stroke:#000000; stroke-width:1;"></polyline>
    <polyline points="328 264 328 8"
     style=" stroke:#000000; stroke-width:1;"></polyline>
    <polyline points="8 8 328 8"
     style=" stroke:#ffffff; stroke-width:1;"></polyline>
    <rect x="120" y="104" width="96" height="48"
     style=" stroke:#ffff6e; stroke-width:1; fill:#ffffa5; fill-opacity:100%"></rect>
    <polyline points="120 152 216 152"
     style=" stroke:#000000; stroke-width:1;"></polyline>
    <polyline points="216 152 216 104"
     style=" stroke:#000000; stroke-width:1;"></polyline>
    <polyline points="160 104 152 96"
     style=" stroke:#000000; stroke-width:1;"></polyline>
    <polyline points="120 152 120 104"
     style=" stroke:#ffffff; stroke-width:1;"></polyline>
    <polyline points="120 104 128 96"
     style=" stroke:#ffffff; stroke-width:1;"></polyline>
    <polyline points="128 96 152 96"
     style=" stroke:#ffffff; stroke-width:1;"></polyline>
    <polyline points="160 104 216 104"
     style=" stroke:#ffffff; stroke-width:1;"></polyline>
    <polygon points="120 104 160 104 152 96 
     128 96 120 104"
     style=" stroke:#ffffff; stroke-width:1; fill:#ffff6e; fill-opacity:100%"></polygon>
    <polygon points="168 64 144 80 192 80 
     168 64"
     style=" stroke:#ffffff; stroke-width:1; fill:#ffffff; fill-opacity:100%"></polygon>
  </symbol>
  <symbol id="_002ashu00c8jgff5le7p" xml:space="preserve" class="METIS_SYMBOL">
   <title>Header_out</title>
    <polygon points="0 256 320 256 320 0 
     0 0 0 256"
     style=" stroke:#000000; stroke-width:1; fill:#bfd4d9; fill-opacity:100%"     class="TAG:canvas"></polygon>
    <g>
      <desc>METIS_TEXT_GROUP</desc>
      <text  x="8" y="27"
       style=" stroke:#000000; stroke-width:1; font-family:sans-serif; font-weight:bold; font-size:20;"
       class="TAG:text">text</text>
      <rect x="8" y="8" width="304" height="240"
       style=" stroke:#000000; stroke-width:1; fill:#bfd4d9; fill-opacity:100%"></rect>
    </g>
    <polyline points="0 256 0 0"
     style=" stroke:#ffffff; stroke-width:1;"></polyline>
    <polyline points="0 0 320 0"
     style=" stroke:#ffffff; stroke-width:1;"></polyline>
  </symbol>
  <symbol id="_002ashu00cb8bkro1lev" xml:space="preserve" class="METIS_SYMBOL">
   <title>Window_main_bordered</title>
    <polygon points="0 256 320 256 320 0 
     0 0 0 256"
     style=" stroke:#000000; stroke-width:1; fill:#ffffff; fill-opacity:100%"     class="TAG:canvas"></polygon>
    <g>
      <desc>METIS_TEXT_GROUP</desc>
      <text  x="8" y="23"
       style=" stroke:#000000; stroke-width:1; font-family:sans-serif; font-weight:bold; font-size:16;"
       class="TAG:text">text</text>
      <rect x="8" y="8" width="304" height="240"
       style=" stroke:#000000; stroke-width:1; fill:#ffffff; fill-opacity:100%"></rect>
    </g>
    <polyline points="0 256 0 0"
     style=" stroke:#000000; stroke-width:1;"></polyline>
    <polyline points="0 0 320 0"
     style=" stroke:#000000; stroke-width:1;"></polyline>
    <g>
      <desc>METIS_TEXT_GROUP</desc>
      <text  x="4" y="39"
       style=" stroke:#000000; stroke-width:1; font-family:sans-serif; font-size:16;"
       class="TAG:LAYOUTAREA"></text>
      <rect x="4" y="24" width="312" height="228"
       style=" stroke:#000000; stroke-width:1; fill:#ffffff; fill-opacity:0%"></rect>
    </g>
  </symbol>
  <symbol id="_002ashu00d85ds9jiaa4" xml:space="preserve" class="METIS_SYMBOL">
   <title>Background_gray_NoTXT</title>
    <polygon points="0 256 320 256 320 0 
     0 0 0 256"
     style=" stroke:#9cc7ce; stroke-width:1; fill:#9cc7ce; fill-opacity:100%"     class="TAG:canvas"></polygon>
  </symbol>
  <symbol id="_002ashu00eimorp5d4fs" xml:space="preserve" class="METIS_SYMBOL">
   <title>Header_Light_base_noTXT</title>
    <polygon points="0 256 320 256 320 0 
     0 0 0 256"
     style=" stroke:#dfeaec; stroke-width:1; fill:#dfeaec; fill-opacity:100%"     class="TAG:canvas"></polygon>
  </symbol>
  <symbol id="_002asic02bceurovsi1f" xml:space="preserve" class="METIS_SYMBOL">
   <title>ToolButtonMaximize_gray_blu</title>
    <rect x="0" y="0" width="336" height="272"
     style=" stroke:#bfd4d9; stroke-width:1; fill:#bfd4d9; fill-opacity:100%"></rect>
    <polygon points="8 264 328 264 328 8 
     8 8 8 264"
     style=" stroke:#dfeaec; stroke-width:1; fill:#9cc7ce; fill-opacity:100%"     class="TAG:canvas"></polygon>
    <polyline points="8 264 8 8"
     style=" stroke:#ffffff; stroke-width:1;"></polyline>
    <polyline points="8 264 328 264"
     style=" stroke:#000000; stroke-width:1;"></polyline>
    <polyline points="328 264 328 8"
     style=" stroke:#000000; stroke-width:1;"></polyline>
    <polyline points="8 8 328 8"
     style=" stroke:#ffffff; stroke-width:1;"></polyline>
    <polyline points="40 40 296 40"
     style=" stroke:#000000; stroke-width:2;"></polyline>
    <polyline points="296 40 296 232"
     style=" stroke:#000000; stroke-width:2;"></polyline>
    <polyline points="296 232 40 232"
     style=" stroke:#000000; stroke-width:2;"></polyline>
    <polyline points="40 40 40 232"
     style=" stroke:#000000; stroke-width:2;"></polyline>
    <polyline points="40 56 296 56"
     style=" stroke:#000000; stroke-width:2;"></polyline>
  </symbol>
  <symbol id="_002asic02bfoutvm4278" xml:space="preserve" class="METIS_SYMBOL">
   <title>ToolButtonRelOpen_gray_blu</title>
    <rect x="0" y="0" width="336" height="272"
     style=" stroke:#bfd4d9; stroke-width:1; fill:#bfd4d9; fill-opacity:100%"></rect>
    <polygon points="8 264 328 264 328 8 
     8 8 8 264"
     style=" stroke:#dfeaec; stroke-width:1; fill:#9cc7ce; fill-opacity:100%"     class="TAG:canvas"></polygon>
    <polyline points="8 264 8 8"
     style=" stroke:#ffffff; stroke-width:1;"></polyline>
    <polyline points="8 264 328 264"
     style=" stroke:#000000; stroke-width:1;"></polyline>
    <polyline points="328 264 328 8"
     style=" stroke:#000000; stroke-width:1;"></polyline>
    <polyline points="8 8 328 8"
     style=" stroke:#ffffff; stroke-width:1;"></polyline>
    <polyline points="40 136 304 136"
     style=" stroke:#ffffff; stroke-width:1;"></polyline>
    <polygon points="72 152 40 136 72 120 
     72 152"
     style=" stroke:#ffffff; stroke-width:1; fill:#ffffff; fill-opacity:100%"></polygon>
    <polygon points="272 152 304 136 272 120 
     272 152"
     style=" stroke:#ffffff; stroke-width:1; fill:#ffffff; fill-opacity:100%"></polygon>
  </symbol>
  <symbol id="_002asic02bibqs6k4q48" xml:space="preserve" class="METIS_SYMBOL">
   <title>ToolButtonRelClose_gray_blu</title>
    <rect x="0" y="0" width="336" height="272"
     style=" stroke:#bfd4d9; stroke-width:1; fill:#bfd4d9; fill-opacity:100%"></rect>
    <polygon points="8 264 328 264 328 8 
     8 8 8 264"
     style=" stroke:#dfeaec; stroke-width:1; fill:#9cc7ce; fill-opacity:100%"></polygon>
    <polyline points="8 264 8 8"
     style=" stroke:#ffffff; stroke-width:1;"></polyline>
    <polyline points="8 264 328 264"
     style=" stroke:#000000; stroke-width:1;"></polyline>
    <polyline points="328 264 328 8"
     style=" stroke:#000000; stroke-width:1;"></polyline>
    <polyline points="8 8 328 8"
     style=" stroke:#ffffff; stroke-width:1;"></polyline>
    <polyline points="128 88 224 184"
     style=" stroke:#ff0000; stroke-width:2;"></polyline>
    <polyline points="128 184 224 88"
     style=" stroke:#ff0000; stroke-width:2;"></polyline>
    <polyline points="40 136 304 136"
     style=" stroke:#ffffff; stroke-width:1; stroke-dasharray: 2 2;"></polyline>
    <polygon points="72 152 40 136 72 120 
     72 152"
     style=" stroke:#ffffff; stroke-width:1; fill:#ffffff; fill-opacity:100%"></polygon>
    <polygon points="272 152 304 136 272 120 
     272 152"
     style=" stroke:#ffffff; stroke-width:1; fill:#ffffff; fill-opacity:100%"></polygon>
  </symbol>
  <symbol id="_002asjd026g4pld53o26" xml:space="preserve" class="METIS_SYMBOL">
   <title>Argument_gray_blu</title>
    <rect x="0" y="0" width="576" height="192"
     style=" stroke:#bfd4d9; stroke-width:1; fill:#bfd4d9; fill-opacity:100%"></rect>
    <g>
      <desc>METIS_TEXT_GROUP</desc>
      <text  x="32" y="31"
       style=" stroke:#000000; stroke-width:1; font-family:sans-serif; font-weight:bold; font-size:16; vertical-align:middle;"
       class="TAG:name">Arg Name</text>
      <rect x="32" y="16" width="512" height="64"
       style=" stroke:#000000; stroke-width:1; fill:#9cc7ce; fill-opacity:100%"></rect>
    </g>
    <g>
      <desc>METIS_TEXT_GROUP</desc>
      <text  x="32" y="123"
       style=" stroke:#000000; stroke-width:1; font-family:sans-serif; font-size:12; vertical-align:middle;"
       class="TAG:value">Arg Value</text>
      <rect x="32" y="112" width="512" height="64"
       style=" stroke:#000000; stroke-width:1; fill:#9cc7ce; fill-opacity:100%"></rect>
    </g>
    <polyline points="32 176 32 112"
     style=" stroke:#000000; stroke-width:1;"></polyline>
    <polyline points="32 112 544 112"
     style=" stroke:#000000; stroke-width:1;"></polyline>
    <polyline points="32 80 32 16"
     style=" stroke:#000000; stroke-width:1;"></polyline>
    <polyline points="32 16 544 16"
     style=" stroke:#000000; stroke-width:1;"></polyline>
    <polyline points="32 80 544 80"
     style=" stroke:#ffffff; stroke-width:1;"></polyline>
    <polyline points="544 80 544 16"
     style=" stroke:#ffffff; stroke-width:1;"></polyline>
    <polyline points="32 176 544 176"
     style=" stroke:#ffffff; stroke-width:1;"></polyline>
    <polyline points="544 176 544 112"
     style=" stroke:#ffffff; stroke-width:1;"></polyline>
  </symbol>
  <symbol id="_002asjf001nal3eg8iio" xml:space="preserve" class="METIS_SYMBOL">
   <title>ToolButtonObjectList_gray_blu</title>
    <rect x="0" y="0" width="336" height="272"
     style=" stroke:#bfd4d9; stroke-width:1; fill:#bfd4d9; fill-opacity:100%"></rect>
    <polygon points="8 264 328 264 328 8 
     8 8 8 264"
     style=" stroke:#dfeaec; stroke-width:1; fill:#9cc7ce; fill-opacity:100%"     class="TAG:canvas"></polygon>
    <polyline points="8 264 8 8"
     style=" stroke:#ffffff; stroke-width:1;"></polyline>
    <polyline points="8 264 328 264"
     style=" stroke:#000000; stroke-width:1;"></polyline>
    <polyline points="328 264 328 8"
     style=" stroke:#000000; stroke-width:1;"></polyline>
    <polyline points="8 8 328 8"
     style=" stroke:#ffffff; stroke-width:1;"></polyline>
    <polyline points="40 40 296 40"
     style=" stroke:#000000; stroke-width:2;"></polyline>
    <polyline points="296 40 296 232"
     style=" stroke:#000000; stroke-width:2;"></polyline>
    <polyline points="296 232 40 232"
     style=" stroke:#000000; stroke-width:2;"></polyline>
    <polyline points="40 40 40 232"
     style=" stroke:#000000; stroke-width:2;"></polyline>
    <polyline points="40 56 296 56"
     style=" stroke:#000000; stroke-width:2;"></polyline>
    <rect x="64" y="88" width="80" height="24"
     style=" stroke:#000000; stroke-width:1; fill:#bfd4d9; fill-opacity:100%"></rect>
    <rect x="192" y="88" width="80" height="24"
     style=" stroke:#000000; stroke-width:1; fill:#bfd4d9; fill-opacity:100%"></rect>
    <rect x="192" y="136" width="80" height="24"
     style=" stroke:#000000; stroke-width:1; fill:#bfd4d9; fill-opacity:100%"></rect>
    <rect x="64" y="136" width="80" height="24"
     style=" stroke:#000000; stroke-width:1; fill:#bfd4d9; fill-opacity:100%"></rect>
    <rect x="64" y="184" width="80" height="24"
     style=" stroke:#000000; stroke-width:1; fill:#bfd4d9; fill-opacity:100%"></rect>
    <rect x="192" y="184" width="80" height="24"
     style=" stroke:#000000; stroke-width:1; fill:#bfd4d9; fill-opacity:100%"></rect>
  </symbol>
  <symbol id="_002asjf02f4l5s4ir6kd" xml:space="preserve" class="METIS_SYMBOL">
   <title>ToolButtonDuplicate_gray_blu</title>
    <rect x="0" y="0" width="336" height="272"
     style=" stroke:#bfd4d9; stroke-width:1; fill:#bfd4d9; fill-opacity:100%"></rect>
    <polygon points="8 264 328 264 328 8 
     8 8 8 264"
     style=" stroke:#dfeaec; stroke-width:1; fill:#9cc7ce; fill-opacity:100%"     class="TAG:canvas"></polygon>
    <polyline points="8 264 8 8"
     style=" stroke:#ffffff; stroke-width:1;"></polyline>
    <polyline points="8 264 328 264"
     style=" stroke:#000000; stroke-width:1;"></polyline>
    <polyline points="328 264 328 8"
     style=" stroke:#000000; stroke-width:1;"></polyline>
    <polyline points="8 8 328 8"
     style=" stroke:#ffffff; stroke-width:1;"></polyline>
    <polyline points="79.1305 69.3063 207.131 69.3063"
     style=" stroke:#000000; stroke-width:2;"></polyline>
    <polyline points="79.1305 85.3063 207.131 85.3063"
     style=" stroke:#000000; stroke-width:2;"></polyline>
    <polyline points="207.429 69.3063 207.131 101.306"
     style=" stroke:#000000; stroke-width:2;"></polyline>
    <polyline points="127.131 165.605 79.1305 165.306"
     style=" stroke:#000000; stroke-width:2;"></polyline>
    <polyline points="79.1305 69.3063 79.1305 165.306"
     style=" stroke:#000000; stroke-width:2;"></polyline>
    <polyline points="79.1305 69.3063 79.1305 165.306"
     style=" stroke:#000000; stroke-width:2;"></polyline>
    <polyline points="255.131 197.306 127.131 197.306"
     style=" stroke:#000000; stroke-width:2;"></polyline>
    <polyline points="127.131 101.306 127.131 197.306"
     style=" stroke:#000000; stroke-width:2;"></polyline>
    <polyline points="127.131 117.306 255.131 117.306"
     style=" stroke:#000000; stroke-width:2;"></polyline>
    <polyline points="127.131 101.306 255.131 101.306"
     style=" stroke:#000000; stroke-width:2;"></polyline>
    <polyline points="255.131 101.306 255.131 197.306"
     style=" stroke:#000000; stroke-width:2;"></polyline>
  </symbol>
  <symbol id="_002asjg00i9j15u5r9vo" xml:space="preserve" class="METIS_SYMBOL">
   <title>ToolButtonChangeLayout_gray_blu</title>
    <rect x="0" y="0" width="336" height="272"
     style=" stroke:#bfd4d9; stroke-width:1; fill:#bfd4d9; fill-opacity:100%"></rect>
    <polygon points="8 264 328 264 328 8 
     8 8 8 264"
     style=" stroke:#dfeaec; stroke-width:1; fill:#9cc7ce; fill-opacity:100%"     class="TAG:canvas"></polygon>
    <polyline points="8 264 8 8"
     style=" stroke:#ffffff; stroke-width:1;"></polyline>
    <polyline points="8 264 328 264"
     style=" stroke:#000000; stroke-width:1;"></polyline>
    <polyline points="328 264 328 8"
     style=" stroke:#000000; stroke-width:1;"></polyline>
    <polyline points="8 8 328 8"
     style=" stroke:#ffffff; stroke-width:1;"></polyline>
    <g>
      <rect x="40" y="56" width="112" height="31.7169"
       style=" stroke:#000000; stroke-width:1; fill:#ffffff; fill-opacity:100%"></rect>
      <rect x="40" y="88.2831" width="112" height="31.7169"
       style=" stroke:#000000; stroke-width:1; fill:#ffffff; fill-opacity:100%"></rect>
    </g>
    <g>
      <rect x="240" y="168" width="56" height="64"
       style=" stroke:#000000; stroke-width:1; fill:#ffffff; fill-opacity:100%"></rect>
      <rect x="184" y="168" width="56" height="64"
       style=" stroke:#000000; stroke-width:1; fill:#ffffff; fill-opacity:100%"></rect>
    </g>
    <path d="M 254.466 128 C 256 113.211 250.345 105.982 
     248.495 101.281 C 245.891 94.6606 238.28 86.8692 231.282 82.9804 
     C 223.979 78.9227 218.811 74.996 192 72"
     style=" stroke:#000000; stroke-width:1;"></path>
    <path d="M 81.5337 152 C 80 166.789 85.6547 174.018 
     87.5042 178.719 C 90.1089 185.339 97.7196 193.131 104.718 197.019 
     C 112.02 201.077 117.188 205.004 144 208"
     style=" stroke:#000000; stroke-width:1;"></path>
    <polyline points="32 32 160 32"
     style=" stroke:#000000; stroke-width:1;"></polyline>
    <polyline points="32 48 160 48"
     style=" stroke:#000000; stroke-width:1;"></polyline>
    <polyline points="32 32 32 128"
     style=" stroke:#000000; stroke-width:1;"></polyline>
    <polyline points="304 240 176 240"
     style=" stroke:#000000; stroke-width:1;"></polyline>
    <polyline points="176 144 176 240"
     style=" stroke:#000000; stroke-width:1;"></polyline>
    <polyline points="176 160 304 160"
     style=" stroke:#000000; stroke-width:1;"></polyline>
    <polyline points="176 144 304 144"
     style=" stroke:#000000; stroke-width:1;"></polyline>
    <polyline points="304 144 304 240"
     style=" stroke:#000000; stroke-width:1;"></polyline>
    <polyline points="160 32 160 128"
     style=" stroke:#000000; stroke-width:1;"></polyline>
    <polyline points="32 128 160 128"
     style=" stroke:#000000; stroke-width:1;"></polyline>
  </symbol>
  <symbol id="_002asj701t13td0oot6g" xml:space="preserve" class="METIS_SYMBOL">
   <title>ToolButtonNewWindow_gray_blu</title>
    <rect x="0" y="0" width="336" height="272"
     style=" stroke:#bfd4d9; stroke-width:1; fill:#bfd4d9; fill-opacity:100%"></rect>
    <polygon points="8 264 328 264 328 8 
     8 8 8 264"
     style=" stroke:#dfeaec; stroke-width:1; fill:#9cc7ce; fill-opacity:100%"     class="TAG:canvas"></polygon>
    <polyline points="8 264 8 8"
     style=" stroke:#ffffff; stroke-width:1;"></polyline>
    <polyline points="8 264 328 264"
     style=" stroke:#000000; stroke-width:1;"></polyline>
    <polyline points="328 264 328 8"
     style=" stroke:#000000; stroke-width:1;"></polyline>
    <polyline points="8 8 328 8"
     style=" stroke:#ffffff; stroke-width:1;"></polyline>
    <polyline points="40 40 296 40"
     style=" stroke:#000000; stroke-width:2;"></polyline>
    <polyline points="296 40 296 232"
     style=" stroke:#000000; stroke-width:2;"></polyline>
    <polyline points="296 232 40 232"
     style=" stroke:#000000; stroke-width:2;"></polyline>
    <polyline points="40 56 296 56"
     style=" stroke:#000000; stroke-width:2;"></polyline>
    <rect x="64" y="112" width="208" height="96"
     style=" stroke:#000000; stroke-width:1; fill:#ffffff; fill-opacity:100%"></rect>
    <rect x="64" y="72" width="168" height="120"
     style=" stroke:#ffffff; stroke-width:1; fill:#ffffff; fill-opacity:100%"></rect>
    <polygon points="232 112 272 112 232 72 
     232 112"
     style=" stroke:#000000; stroke-width:1; fill:#ffffff; fill-opacity:100%"></polygon>
    <polyline points="64 208 64 72"
     style=" stroke:#000000; stroke-width:1;"></polyline>
    <polyline points="64 72 232 72"
     style=" stroke:#000000; stroke-width:1;"></polyline>
    <polyline points="40 40 40 232"
     style=" stroke:#000000; stroke-width:2;"></polyline>
  </symbol>
  <symbol id="_002astd013t4nh8psboj" xml:space="preserve" class="METIS_SYMBOL">
   <title>ToolButton_left_blu</title>
    <rect x="0" y="0" width="336" height="272"
     style=" stroke:#bfd4d9; stroke-width:1; fill:#bfd4d9; fill-opacity:100%"></rect>
    <polygon points="8 264 328 264 328 8 
     8 8 8 264"
     style=" stroke:#dfeaec; stroke-width:1; fill:#9cc7ce; fill-opacity:100%"     class="TAG:canvas"></polygon>
    <polyline points="8 264 8 8"
     style=" stroke:#ffffff; stroke-width:1;"></polyline>
    <polyline points="8 264 328 264"
     style=" stroke:#000000; stroke-width:1;"></polyline>
    <polyline points="328 264 328 8"
     style=" stroke:#000000; stroke-width:1;"></polyline>
    <polyline points="8 8 328 8"
     style=" stroke:#ffffff; stroke-width:1;"></polyline>
    <polygon points="256 52 68 140 256 228 
     256 52"
     style=" stroke:#000000; stroke-width:1; fill:#ffffff; fill-opacity:100%"></polygon>
  </symbol>
  <symbol id="_002astd013u8amdvrg1e" xml:space="preserve" class="METIS_SYMBOL">
   <title>ToolButton_right_blu</title>
    <rect x="0" y="0" width="336" height="272"
     style=" stroke:#bfd4d9; stroke-width:1; fill:#bfd4d9; fill-opacity:100%"></rect>
    <polygon points="8 264 328 264 328 8 
     8 8 8 264"
     style=" stroke:#dfeaec; stroke-width:1; fill:#9cc7ce; fill-opacity:100%"     class="TAG:canvas"></polygon>
    <polyline points="8 264 8 8"
     style=" stroke:#ffffff; stroke-width:1;"></polyline>
    <polyline points="8 264 328 264"
     style=" stroke:#000000; stroke-width:1;"></polyline>
    <polyline points="328 264 328 8"
     style=" stroke:#000000; stroke-width:1;"></polyline>
    <polyline points="8 8 328 8"
     style=" stroke:#ffffff; stroke-width:1;"></polyline>
    <polygon points="84 52 268 144 84 236 
     84 52"
     style=" stroke:#000000; stroke-width:1; fill:#ffffff; fill-opacity:100%"></polygon>
  </symbol>
  <symbol id="_002astd013v54i1i40d4" xml:space="preserve" class="METIS_SYMBOL">
   <title>ToolButton_vertical_blu</title>
    <rect x="0" y="0" width="336" height="272"
     style=" stroke:#bfd4d9; stroke-width:1; fill:#bfd4d9; fill-opacity:100%"></rect>
    <polygon points="8 264 328 264 328 8 
     8 8 8 264"
     style=" stroke:#dfeaec; stroke-width:1; fill:#9cc7ce; fill-opacity:100%"     class="TAG:canvas"></polygon>
    <polyline points="8 264 8 8"
     style=" stroke:#ffffff; stroke-width:1;"></polyline>
    <polyline points="8 264 328 264"
     style=" stroke:#000000; stroke-width:1;"></polyline>
    <polyline points="328 264 328 8"
     style=" stroke:#000000; stroke-width:1;"></polyline>
    <polyline points="8 8 328 8"
     style=" stroke:#ffffff; stroke-width:1;"></polyline>
    <rect x="44" y="44" width="112" height="188"
     style=" stroke:#000000; stroke-width:1; fill:#dcdcdc; fill-opacity:100%"></rect>
    <rect x="176" y="44" width="112" height="188"
     style=" stroke:#000000; stroke-width:1; fill:#dcdcdc; fill-opacity:100%"></rect>
  </symbol>
  <symbol id="_002astd0140jv3ac96nu" xml:space="preserve" class="METIS_SYMBOL">
   <title>ToolButton_horizontal_blu</title>
    <rect x="0" y="0" width="336" height="272"
     style=" stroke:#bfd4d9; stroke-width:1; fill:#bfd4d9; fill-opacity:100%"></rect>
    <polygon points="8 264 328 264 328 8 
     8 8 8 264"
     style=" stroke:#dfeaec; stroke-width:1; fill:#9cc7ce; fill-opacity:100%"     class="TAG:canvas"></polygon>
    <polyline points="8 264 8 8"
     style=" stroke:#ffffff; stroke-width:1;"></polyline>
    <polyline points="8 264 328 264"
     style=" stroke:#000000; stroke-width:1;"></polyline>
    <polyline points="328 264 328 8"
     style=" stroke:#000000; stroke-width:1;"></polyline>
    <polyline points="8 8 328 8"
     style=" stroke:#ffffff; stroke-width:1;"></polyline>
    <rect x="52" y="60" width="232" height="72"
     style=" stroke:#000000; stroke-width:1; fill:#dcdcdc; fill-opacity:100%"></rect>
    <rect x="52" y="152" width="232" height="72"
     style=" stroke:#000000; stroke-width:1; fill:#dcdcdc; fill-opacity:100%"></rect>
  </symbol>
  <symbol id="_002astd0141rqg9d3man" xml:space="preserve" class="METIS_SYMBOL">
   <title>ToolButton_matrix_blu</title>
    <rect x="0" y="0" width="336" height="272"
     style=" stroke:#bfd4d9; stroke-width:1; fill:#bfd4d9; fill-opacity:100%"></rect>
    <polygon points="8 264 328 264 328 8 
     8 8 8 264"
     style=" stroke:#dfeaec; stroke-width:1; fill:#9cc7ce; fill-opacity:100%"     class="TAG:canvas"></polygon>
    <polyline points="8 264 8 8"
     style=" stroke:#ffffff; stroke-width:1;"></polyline>
    <polyline points="8 264 328 264"
     style=" stroke:#000000; stroke-width:1;"></polyline>
    <polyline points="328 264 328 8"
     style=" stroke:#000000; stroke-width:1;"></polyline>
    <polyline points="8 8 328 8"
     style=" stroke:#ffffff; stroke-width:1;"></polyline>
    <rect x="48" y="52" width="112" height="72"
     style=" stroke:#000000; stroke-width:1; fill:#dcdcdc; fill-opacity:100%"></rect>
    <rect x="180" y="52" width="112" height="72"
     style=" stroke:#000000; stroke-width:1; fill:#dcdcdc; fill-opacity:100%"></rect>
    <rect x="48" y="144" width="112" height="72"
     style=" stroke:#000000; stroke-width:1; fill:#dcdcdc; fill-opacity:100%"></rect>
    <rect x="180" y="144" width="112" height="72"
     style=" stroke:#000000; stroke-width:1; fill:#dcdcdc; fill-opacity:100%"></rect>
  </symbol>
  <symbol id="_002astd0143gckca1hks" xml:space="preserve" class="METIS_SYMBOL">
   <title>FolderHeader</title>
    <g>
      <desc>METIS_TEXT_GROUP</desc>
      <text  x="8" y="15"
       style=" stroke:#000000; stroke-width:3; font-family:sans-serif; font-size:16; text-align:center vertical-align:middle;"
       class="TAG:text">text</text>
      <rect x="8" y="0" width="244" height="72"
       style=" stroke:#000000; stroke-width:1; fill:#bdb3b3; fill-opacity:0%"></rect>
    </g>
    <polyline points="0 0 0 72"
     style=" stroke:#000000; stroke-width:3;"     class="TAG:leftline"></polyline>
    <polyline points="256 0 256 72"
     style=" stroke:#000000; stroke-width:3;"     class="TAG:rightline"></polyline>
  </symbol>
  <symbol id="_002astd015jv8hi3657p" xml:space="preserve" class="METIS_SYMBOL">
   <title>FolderGradient</title>
    <polygon points="0 256 320 256 320 0 
     0 0 0 256"
     style=" stroke:#dcdcdc; stroke-width:1; fill:#dcdcdc; fill-opacity:100%"></polygon>
    <image x="0" y="0" width="320" height="256" id="_002astd015k921uati89" xlink:href="gradient.png"></image>
  </symbol>
  <symbol id="_002astd01upc6tavs0no" xml:space="preserve" class="METIS_SYMBOL">
   <title>HeaderNoText</title>
    <polygon points="0 256 320 256 320 0 
     0 0 0 256"
     style=" stroke:#bfd4d9; stroke-width:1; fill:#bfd4d9; fill-opacity:100%"     class="TAG:canvas"></polygon>
  </symbol>
  <symbol id="_002asvv01n9m5a62vt4n" xml:space="preserve" class="METIS_SYMBOL">
   <title>KA background</title>
    <polygon points="0 256 320 256 320 0 
     0 0 0 256"
     style=" stroke:#9cc7ce; stroke-width:1; fill:#9cc7ce; fill-opacity:100%"     class="TAG:canvas"></polygon>
    <rect x="4" y="4" width="312" height="28"
     style=" stroke:#bfd4d9; stroke-width:1; fill:#bfd4d9; fill-opacity:100%"></rect>
    <g>
      <desc>METIS_TEXT_GROUP</desc>
      <text  x="8" y="41"
       style=" stroke:#000000; stroke-width:1; font-family:sans-serif; font-size:6; text-align:center"
       class="TAG:text">text</text>
      <rect x="8" y="36" width="304" height="212"
       style=" stroke:#000000; stroke-width:1; fill:#9cc7ce; fill-opacity:100%"></rect>
    </g>
    <image x="4" y="36" width="312" height="47.027" id="_002asvv01nabpscplurn" xlink:href="ka-world.jpg"></image>
    <image x="4" y="88.3015" width="312" height="162.5" id="_002asvv01nabpsn4du96" xlink:href="ka-intro.jpg"></image>
    <image x="108" y="4" width="94.3952" height="28" id="_002asvv01nabpsmrup80" xlink:href="ka.jpg"></image>
  </symbol>
 </defs>
 <use xlink:href="#_002ash600eh8nfsuqhqg"/>
</svg>
