<?xml version="1.0"?>
<?metis version="5.2"?>
<?metisxml version="1.2"?>
<!DOCTYPE svg  PUBLIC "-//W3C//DTD SVG 1.0//EN"
 "http://www.w3.org/TR/2001/REC-SVG-20010904/DTD/svg10.dtd">

<svg>
 <title>Symbol library: ka_seat_1.svg</title>
 <defs>
  <symbol id="_002as9j01r204uehnn5q" xml:space="preserve" class="METIS_SYMBOL">
   <title>Untitled</title>
    <rect x="80" y="0" width="400" height="416" rx="10" ry="10"
     style=" stroke:#000000; stroke-width:1; fill:#ffffff; fill-opacity:100%"     class="TAG:seat"></rect>
    <rect x="160" y="64" width="16" height="304" rx="10" ry="10"
     style=" stroke:#000000; stroke-width:1; fill:#ffffff; fill-opacity:100%"></rect>
    <rect x="384" y="64" width="16" height="304" rx="10" ry="10"
     style=" stroke:#000000; stroke-width:1; fill:#ffffff; fill-opacity:100%"></rect>
    <polyline points="208 64 208 112 256 112 
     256 128 208 128 208 144 256 144 
     256 160 208 160 208 176 256 176 
     256 192 208 192 208 208 256 208 
     256 224 208 224 208 240 256 240 
     256 256 208 256 208 272 256 272 
     256 288 208 288 208 304 256 304 
     256 320 208 320 208 336 256 336 
     256 352 208 352 208 368 352 368 
     352 352 304 352 304 336 352 336 
     352 320 304 320 304 304 352 304 
     352 288 304 288 304 272 352 272 
     352 256 304 256 304 240 352 240 
     352 224 304 224 304 208 352 208 
     352 192 304 192 304 176 352 176 
     352 160 304 160 304 144 352 144 
     352 128 304 128 304 112 352 112 
     352 96 216 96 216 72 208 64"
     style=" stroke:#000000; stroke-width:4;"     class="TAG:wires"></polyline>
    <polyline points="304 136 304 80 256 64 
     256 32"
     style=" stroke:#000000; stroke-width:2;"></polyline>
    <g>
      <rect x="296" y="136" width="16" height="24"
       style=" stroke:#000000; stroke-width:1; fill:#ffffff; fill-opacity:100%"       class="TAG:sensor"></rect>
      <ellipse  cx="304" cy="143" rx="2" ry="2"
       style=" stroke:#000000; stroke-width:2; fill:#ffffff; fill-opacity:100%"></ellipse>
    </g>
    <polyline points="208 64 208 32 184 16 
     48 16"
     style=" stroke:#000000; stroke-width:2;"></polyline>
    <rect x="0" y="0" width="48" height="72"
     style=" stroke:#000000; stroke-width:2; fill:#ffffff; fill-opacity:100%"></rect>
    <polyline points="209 65 209 31.6667 184.85 15 
     48 15"
     style=" stroke:#000000; stroke-width:2;"></polyline>
  </symbol>
  <symbol id="_002as9j01rs0er5b7uhi" xml:space="preserve" class="METIS_SYMBOL">
   <title>Seat</title>
    <rect x="0" y="0" width="400" height="416" rx="10" ry="10"
     style=" stroke:#000000; stroke-width:1; fill:#ffffff; fill-opacity:100%"     class="TAG:seat"></rect>
    <rect x="80" y="64" width="16" height="304" rx="10" ry="10"
     style=" stroke:#000000; stroke-width:1; fill:#ffffff; fill-opacity:100%"></rect>
    <rect x="304" y="64" width="16" height="304" rx="10" ry="10"
     style=" stroke:#000000; stroke-width:1; fill:#ffffff; fill-opacity:100%"></rect>
  </symbol>
  <symbol id="_002as9j01rsv2348dptk" xml:space="preserve" class="METIS_SYMBOL">
   <title>Wires</title>
    <polyline points="0 0 0 49.2353 48 49.2353 
     48 65.2353 0 65.2353 0 81.2353 48 81.2353 
     48 97.2353 0 97.2353 0 113.235 48 113.235 
     48 129.235 0 129.235 0 145.235 48 145.235 
     48 161.235 0 161.235 0 177.235 48 177.235 
     48 193.235 0 193.235 0 209.235 48 209.235 
     48 225.235 0 225.235 0 241.235 48 241.235 
     48 257.235 0 257.235 0 273.235 48 273.235 
     48 289.235 0 289.235 0 305.235 144 305.235 
     144 289.235 96 289.235 96 273.235 144 273.235 
     144 257.235 96 257.235 96 241.235 144 241.235 
     144 225.235 96 225.235 96 209.235 144 209.235 
     144 193.235 96 193.235 96 177.235 144 177.235 
     144 161.235 96 161.235 96 145.235 144 145.235 
     144 129.235 96 129.235 96 113.235 144 113.235 
     144 97.2353 96 97.2353 96 81.2353 144 81.2353 
     144 65.2353 96 65.2353 96 49.2353 144 49.2353 
     144 33.2353 3.52353 33.2353 3.52353 0"
     style=" stroke:#000000; stroke-width:4;"     class="TAG:wires"></polyline>
  </symbol>
  <symbol id="_002as9j01s129solj6ad" xml:space="preserve" class="METIS_SYMBOL">
   <title>Sensor</title>
    <polyline points="5 43.28 4.86637 0"
     style=" stroke:#000000; stroke-width:2;"     class="TAG:sensor"></polyline>
    <polyline points="11 43.28 10.8664 0"
     style=" stroke:#000000; stroke-width:2;"     class="TAG:sensor"></polyline>
    <rect x="0" y="43.28" width="16" height="22.72" rx="10" ry="10"
     style=" stroke:#000000; stroke-width:2; fill:#ffffff; fill-opacity:100%"     class="TAG:sensor"></rect>
    <ellipse  cx="8" cy="51" rx="2" ry="2"
     style=" stroke:#000000; stroke-width:2; fill:#00a500; fill-opacity:100%"     class="TAG:sensor"></ellipse>
  </symbol>
  <symbol id="_002as9j01s0a9i4adji8" xml:space="preserve" class="METIS_SYMBOL">
   <title>Untitled3</title>
  </symbol>
 </defs>
 <use xlink:href="#_002as9j01r204uehnn5q"/>
</svg>
