<?xml version="1.0"?>
<?metis version="3.6"?>
<?metisxml version="1.1"?>
<!DOCTYPE svg  PUBLIC "-//W3C//DTD SVG 1.0//EN"
 "http://www.w3.org/TR/2001/REC-SVG-20010904/DTD/svg10.dtd">



<!--
Troux Technologies, Inc. Confidential and Proprietary.
This work contains valuable confidential, proprietary and trade secret
information of Troux Technologies, Inc. and is protected by the laws of 
the United States and other countries. Any disclosure, use or reproduction
of this work without the prior written authorization of Troux Technologies, Inc.
is strictly prohibited.
Copyright (C) 2000-2005 Troux Technologies, Inc. All rights reserved.
-->


<svg>
 <title>Symbol library: keyperformanceindicator.svg</title>
 <defs>
  <symbol id="oid1" xml:space="preserve" class="METIS_SYMBOL">
   <title>Untitled</title>
    <g>
      <polygon points="1007.81 1007.81 0 1007.81 0 0 
       1007.81 0 1007.81 1007.81"
       style="stroke:none; fill:#ffffff; fill-opacity:0%"></polygon>
      <polygon points="0 503.873  0 551.142 
       7.87815 598.411 39.3907 692.949 78.7815 771.73 133.928 834.755 
       204.832 897.781 283.613 937.171 370.273 968.684 417.541 968.684 
       464.811 976.562  512.079 968.684 559.349 968.684 
       646.008 937.171 732.667 897.781 795.692 834.755 858.718 771.73 
       898.109 692.949 929.621 598.411 929.621 551.142 937.5 503.873 
        929.621 456.604 929.621 409.335 898.109 322.675 
       858.718 243.895 795.692 172.991 732.667 117.844 646.008 78.4532 
       559.349 46.9407 512.079 39.062 464.811 39.062  417.541 39.062 370.273 46.9407 283.613 78.4532 204.832 117.844 
       133.928 172.991 78.7815 243.895 39.3907 322.675 7.87815 409.335 
       0 456.604 0 503.873 "
       style="stroke:none; fill:#143a72; fill-opacity:100%"></polygon>
      <polygon points="15.625 503.907  23.506 417.215 
       55.0302 330.524 94.4354 259.594 149.603 188.665 212.651 133.497 
       291.461 94.0927 378.153 70.4491 464.845 54.688  559.417 70.4491 646.108 94.0927 717.038 133.497 787.966 188.665 
       843.134 259.594 882.539 330.524 906.182 417.215 914.063 503.907 
        906.182 598.479 882.539 685.171 843.134 756.1 
       787.966 827.029 717.038 882.197 646.108 921.602 559.417 945.245 
       464.845 953.126  378.153 945.245 291.461 921.602 
       212.651 882.197 149.603 827.029 94.4354 756.1 55.0302 685.171 
       23.506 598.479 15.625 503.907 "
       style="stroke:none; fill:#143a72; fill-opacity:100%"></polygon>
      <polygon points="62.5 543.001  70.3781 590.271 
       78.2563 637.539 101.89 724.199 149.16 802.98 204.307 873.884 
       275.21 929.031 353.991 968.421 440.651 999.934 487.92 1007.81 
       535.189 1007.81  582.458 1007.81 629.727 999.934 
       716.387 968.421 795.167 929.031 866.071 873.884 921.218 802.98 
       960.609 724.199 992.121 637.539 1000 590.271 1000 543.001 
        1000 495.733 992.121 448.463 960.609 361.804 
       921.218 275.145 866.071 212.12 795.167 149.094 716.387 109.703 
       629.727 78.1907 582.458 78.1907 535.189 70.312  487.92 78.1907 440.651 78.1907 353.991 109.703 275.21 149.094 
       204.307 212.12 149.16 275.145 101.89 361.804 78.2563 448.463 
       70.3781 495.733 62.5 543.001 "
       style="stroke:none; fill:#143a72; fill-opacity:100%"></polygon>
      <polygon points="85.9375 542.968  93.8185 448.396 
       117.462 361.705 156.867 290.775 212.035 219.847 282.963 164.679 
       361.774 125.274 440.584 101.631 535.157 93.75  621.849 101.631 708.54 125.274 787.35 164.679 850.398 219.847 
       905.566 290.775 944.971 361.705 976.495 448.396 984.375 542.968 
        976.495 629.66 944.971 716.352 905.566 795.162 
       850.398 858.21 787.35 913.378 708.54 952.783 621.849 984.307 
       535.157 992.188  440.584 984.307 361.774 952.783 
       282.963 913.378 212.035 858.21 156.867 795.162 117.462 716.352 
       93.8185 629.66 85.9375 542.968 "
       style="stroke:none; fill:#6094bf; fill-opacity:100%"></polygon>
      <polygon points="156.25 543.009  164.143 614.062 
       187.826 685.115 219.401 748.273 266.764 803.536 322.021 850.904 
       385.172 890.377 456.217 914.062 535.156 914.062  606.2 914.062 677.246 890.377 748.291 850.904 803.548 803.536 
       843.018 748.273 882.486 685.115 906.169 614.062 914.062 543.009 
        906.169 464.063 882.486 393.01 843.018 329.852 
       803.548 274.589 748.291 227.22 677.246 195.641 606.2 171.957 
       535.156 164.062  456.217 171.957 385.172 195.641 
       322.021 227.22 266.764 274.589 219.401 329.852 187.826 393.01 
       164.143 464.063 156.25 543.009 "
       style="stroke:none; fill:#4c0000; fill-opacity:100%"></polygon>
      <polygon points="171.875 543.01  179.773 464.046 
       195.567 400.874 235.054 337.702 274.542 282.426 329.823 235.047 
       393.003 203.461 456.182 179.772 535.156 171.875  606.232 179.772 677.309 203.461 740.489 235.047 787.873 282.426 
       835.258 337.702 866.847 400.874 890.539 464.046 898.437 543.01 
        890.539 614.079 866.847 685.148 835.258 740.423 
       787.873 795.698 740.489 843.078 677.309 874.664 606.232 898.353 
       535.156 906.25  456.182 898.353 393.003 874.664 
       329.823 843.078 274.542 795.698 235.054 740.423 195.567 685.148 
       179.773 614.079 171.875 543.01 "
       style="stroke:none; fill:#ffffff; fill-opacity:100%"></polygon>
      <polygon points="187.5 546.874 290.216 546.874  290.216 490.944 306.02 450.993 329.723 403.054 361.328 371.094 
       392.933 339.134 440.341 315.163 479.847 299.183 535.156 291.193 
        582.564 299.183 629.971 315.163 669.477 339.134 
       708.984 371.094 740.589 403.054 764.292 450.993 772.194 490.944 
       780.096 546.874 882.812 546.874  874.911 474.964 
       851.207 411.044 819.602 347.123 780.096 299.183 724.787 251.243 
       669.477 219.283 606.267 203.303 535.156 195.312  464.045 203.303 400.835 219.283 337.625 251.243 290.216 299.183 
       242.809 347.123 211.204 411.044 195.401 474.964 187.5 546.874 
       "
       style="stroke:none; fill:#ff0000; fill-opacity:100%"></polygon>
      <polygon points="515.625 554.688 523.69 522.43  636.592 409.526 725.303 336.946 765.625 304.688  733.367 345.01 652.723 425.655 547.883 546.623 515.625 554.688"
       style="stroke:none; fill:#000000; fill-opacity:100%"></polygon>
      <polygon points="508.035 514.062  500 570.312 
       556.25 562.277   692.857 417.633 
       757.142 337.277 781.25 305.134 781.25 297.098 773.214 297.098 
       773.214 289.062 765.178 289.062  749.107 289.062 
       716.964 313.17 508.035 514.062 "
       style="stroke:none; fill:#000000; fill-opacity:100%"></polygon>
      <polygon points="476.562 542.968  476.562 559.711 
       493.304 584.822 510.044 593.193 535.156 601.563  560.268 593.193 577.008 584.822 585.379 559.711 593.75 542.968 
        585.379 517.857 577.008 501.116 560.268 484.375 
       535.156 484.375  510.044 484.375 493.304 501.116 
       476.562 517.857 476.562 542.968 "
       style="stroke:none; fill:#143a72; fill-opacity:100%"></polygon>
      <polygon points="492.188 543.403  492.188 526.042 
       500.781 508.68 517.969 500 535.157 500  552.344 500 560.939 508.68 569.532 526.042 578.125 543.403 
        569.532 552.084 560.939 569.445 552.344 578.125 
       535.157 578.125  517.969 578.125 500.781 569.445 
       492.188 552.084 492.188 543.403 "
       style="stroke:none; fill:#6094bf; fill-opacity:100%"></polygon>
    </g>
  </symbol>
 </defs>
 <use xlink:href="#oid1"/>
</svg>
