<?xml version="1.0"?>
<?metis version="3.1"?>
<?metisxml version="1.0"?>
<!DOCTYPE svg  PUBLIC "-//W3C//DTD SVG August 1999//EN"
 "http://www.w3.org/Graphics/SVG/svg-19990812.dtd">

<svg width="200" height="200">
 <title>Symbol library: knowledge.svg</title>
 <defs>
  <symbol id="oid3" xml:space="preserve" class="METIS_SYMBOL">
   <title>Knowledge Access</title>
    <g>
      <polygon points="0 0 0 304 16.2963 320 
       880 320 880 16 863.704 0 0 0 
       0 0 0 0 0 0 0 0 
       0 0 0 0 0 0 0 0 
       0 0 0 0 0 0 "
       style=" stroke:#000000; stroke-width:1; fill:#9b9b9b; fill-opacity:100%"       class="TAG:shadow"></polygon>
      <rect x="0" y="0" width="240" height="304"
       style=" stroke:#000000; stroke-width:1; fill:#ffdcdc; fill-opacity:100%"       class="TAG:PictureBackground"></rect>
      <rect x="240" y="0" width="624" height="304"
       style=" stroke:#000000; stroke-width:1; fill:#ffb4b4; fill-opacity:100%"       class="TAG:canvas"></rect>
      <rect x="245.357" y="25.7143" width="569.522" height="231.429"
       style="stroke:none; fill:#878787; fill-opacity:0%"       class="TAG:grid"></rect>
      <g>
	<desc>METIS_TEXT_GROUP</desc>
	<text  x="256" y="15.8"
	 style=" stroke:#000000; stroke-width:1; font-family:sans-serif; font-size:16;"
	 class="TAG:text">text</text>
	<rect x="256" y="0" width="608" height="304"
	 style=" stroke:#000000; stroke-width:1; fill:#ffffff; fill-opacity:0%"></rect>
      </g>
      <polyline points="864 304 880 320"
       style=" stroke:#000000; stroke-width:1;"></polyline>
      <g>
	<g>
	  <polygon points="16 32 120 48.0002 224 40 
	   224 146.667 120 154.667 16 138.667 16 32 
	   16 32 16 32 16 32 "
	   style=" stroke:#000000; stroke-width:2; fill:#d56d61; fill-opacity:100%"></polygon>
	  <polygon points="23.5484 38 119.79 53.1365 216.032 45.5681 
	   216.032 141.432 119.79 149.001 23.5484 134.705 23.5484 38 
	   23.5484 38 23.5484 38 23.5484 38 "
	   style=" stroke:#000000; stroke-width:1; fill:#ffffff; fill-opacity:100%"></polygon>
	  <polygon points="27.3226 41 119.79 53.5583 212.258 48.5348 
	   212.258 138.954 119.79 149.001 27.3226 133.093 27.3226 41 
	   27.3226 41 27.3226 41 27.3226 41 "
	   style=" stroke:#000000; stroke-width:1; fill:#ffffff; fill-opacity:100%"></polygon>
	  <polygon points="31.0967 44 119.79 54.0002 208.484 51.5 
	   208.484 136.5 119.79 149.001 31.0967 131.593 31.0967 44 
	   31.0967 44 31.0967 44 31.0967 44 "
	   style=" stroke:#000000; stroke-width:1; fill:#ffffff; fill-opacity:100%"></polygon>
	  <polyline points="121.678 53 121.678 149.001"
	   style=" stroke:#000000; stroke-width:1;"></polyline>
	  <polyline points="130.064 69.3335 130.064 69.3335"
	   style=" stroke:#000000; stroke-width:2;"></polyline>
	  <polyline points="136.774 72.0003 197.161 69.3335"
	   style=" stroke:#000000; stroke-width:2;"></polyline>
	  <polyline points="136.774 88.0002 197.161 85.3334"
	   style=" stroke:#000000; stroke-width:2;"></polyline>
	  <polyline points="136.774 104 197.161 101.333"
	   style=" stroke:#000000; stroke-width:2;"></polyline>
	  <polyline points="136.774 120 197.161 117.334"
	   style=" stroke:#000000; stroke-width:2;"></polyline>
	</g>
	<g>
	  <ellipse  cx="50.1317" cy="254.439" rx="34.1317" ry="17.5611"
	   style=" stroke:#000000; stroke-width:1; fill:#dcdcdc; fill-opacity:100%"></ellipse>
	  <ellipse  cx="126.928" cy="254.439" rx="34.1317" ry="17.5611"
	   style=" stroke:#000000; stroke-width:1; fill:#dcdcdc; fill-opacity:100%"></ellipse>
	  <polyline points="84.2637 254.439 92.7963 254.439"
	   style=" stroke:#000000; stroke-width:4;"></polyline>
	  <path d="M 16 254.439 C 37.0303 185.951 65.4735 164 
	   84.2637 166.634 C 88.6379 167.247 92.7963 175.414 92.7963 184.195"
	   style=" stroke:#000000; stroke-width:1;"></path>
	  <path d="M 161.06 257.073 C 169.594 184.195 184.935 164 
	   203.725 166.634 C 208.099 167.247 212.258 175.414 212.258 184.195"
	   style=" stroke:#000000; stroke-width:1;"></path>
	</g>
      </g>
    </g>
  </symbol>
  <symbol id="oid2" xml:space="preserve" class="METIS_SYMBOL">
   <title>Knowledge Source</title>
    <g>
      <polygon points="0 0 0 304 16.2963 320 
       880 320 880 16 863.704 0 0 0 
       0 0 0 0 0 0 0 0 
       0 0 0 0 0 0 0 0 
       0 0 0 0 0 0 "
       style=" stroke:#000000; stroke-width:1; fill:#9b9b9b; fill-opacity:100%"       class="TAG:shadow"></polygon>
      <rect x="0" y="0" width="240" height="304"
       style=" stroke:#000000; stroke-width:1; fill:#ffdcdc; fill-opacity:100%"       class="TAG:PictureBackground"></rect>
      <rect x="240" y="0" width="624" height="304"
       style=" stroke:#000000; stroke-width:1; fill:#ffb4b4; fill-opacity:100%"       class="TAG:canvas"></rect>
      <rect x="245.357" y="25.7143" width="569.522" height="231.429"
       style="stroke:none; fill:#878787; fill-opacity:0%"       class="TAG:grid"></rect>
      <g>
	<desc>METIS_TEXT_GROUP</desc>
	<text  x="256" y="15.8"
	 style=" stroke:#000000; stroke-width:1; font-family:sans-serif; font-size:16;"
	 class="TAG:text">text</text>
	<rect x="256" y="0" width="608" height="304"
	 style=" stroke:#000000; stroke-width:1; fill:#ffffff; fill-opacity:0%"></rect>
      </g>
      <polyline points="864 304 880 320"
       style=" stroke:#000000; stroke-width:1;"></polyline>
      <g>
	<polygon points="16 64 120 82.7826 224 73.3913 
	 224 198.609 120 208 16 189.217 16 64 
	 16 64 16 64 16 64 "
	 style=" stroke:#000000; stroke-width:2; fill:#d56d61; fill-opacity:100%"></polygon>
	<polygon points="23.5484 71.0435 119.79 88.8122 216.032 79.9279 
	 216.032 192.464 119.79 201.348 23.5484 184.566 23.5484 71.0435 
	 23.5484 71.0435 23.5484 71.0435 23.5484 71.0435 "
	 style=" stroke:#000000; stroke-width:1; fill:#ffffff; fill-opacity:100%"></polygon>
	<polygon points="27.3226 74.5652 119.79 89.3074 212.258 83.4106 
	 212.258 189.554 119.79 201.348 27.3226 182.675 27.3226 74.5652 
	 27.3226 74.5652 27.3226 74.5652 27.3226 74.5652 "
	 style=" stroke:#000000; stroke-width:1; fill:#ffffff; fill-opacity:100%"></polygon>
	<polygon points="31.0968 78.087 119.79 89.8261 208.484 86.8913 
	 208.484 186.673 119.79 201.348 31.0968 180.913 31.0968 78.087 
	 31.0968 78.087 31.0968 78.087 31.0968 78.087 "
	 style=" stroke:#000000; stroke-width:1; fill:#ffffff; fill-opacity:100%"></polygon>
	<polyline points="121.677 88.6522 121.677 201.348"
	 style=" stroke:#000000; stroke-width:1;"></polyline>
	<polyline points="130.064 107.826 130.064 107.826"
	 style=" stroke:#000000; stroke-width:2;"></polyline>
	<polyline points="136.774 110.957 197.161 107.826"
	 style=" stroke:#000000; stroke-width:2;"></polyline>
	<polyline points="136.774 129.739 197.161 126.609"
	 style=" stroke:#000000; stroke-width:2;"></polyline>
	<polyline points="136.774 148.522 197.161 145.391"
	 style=" stroke:#000000; stroke-width:2;"></polyline>
	<polyline points="136.774 167.304 197.161 164.174"
	 style=" stroke:#000000; stroke-width:2;"></polyline>
      </g>
    </g>
  </symbol>
  <symbol id="oid1" xml:space="preserve" class="METIS_SYMBOL">
   <title>Knowledge Element</title>
    <g>
      <polygon points="0 0 0 304 16.2963 320 
       880 320 880 16 863.704 0 0 0 
       0 0 0 0 0 0 0 0 
       0 0 0 0 0 0 0 0 
       0 0 0 0 0 0 "
       style=" stroke:#000000; stroke-width:1; fill:#9b9b9b; fill-opacity:100%"       class="TAG:shadow"></polygon>
      <rect x="0" y="0" width="240" height="304"
       style=" stroke:#000000; stroke-width:1; fill:#ffdcdc; fill-opacity:100%"       class="TAG:PictureBackground"></rect>
      <rect x="240" y="0" width="624" height="304"
       style=" stroke:#000000; stroke-width:1; fill:#ffb4b4; fill-opacity:100%"       class="TAG:canvas"></rect>
      <rect x="245.357" y="25.7143" width="569.522" height="231.429"
       style="stroke:none; fill:#878787; fill-opacity:0%"       class="TAG:grid"></rect>
      <g>
	<desc>METIS_TEXT_GROUP</desc>
	<text  x="256" y="15.8"
	 style=" stroke:#000000; stroke-width:1; font-family:sans-serif; font-size:16;"
	 class="TAG:text">text</text>
	<rect x="256" y="0" width="608" height="304"
	 style=" stroke:#000000; stroke-width:1; fill:#ffffff; fill-opacity:0%"></rect>
      </g>
      <polyline points="864 304 880 320"
       style=" stroke:#000000; stroke-width:1;"></polyline>
      <g>
	<polygon points="136.723 272 38.5322 234.015 40.5704 229.18 
	 42.2694 224 43.9682 218.821 45.3272 213.986 46.0068 208.806 
	 46.3464 203.972 45.6668 198.792 43.6286 193.957 41.25 188.777 
	 38.8718 183.597 35.8139 178.762 33.0957 173.928 30.3777 169.094 
	 27.3198 164.605 24.9416 159.769 22.2234 154.935 19.845 150.101 
	 18.1463 144.92 16.4474 139.74 15.0884 133.87 14.4089 127.654 
	 14.0691 121.095 14.4089 114.188 15.0884 106.59 16.4474 101.065 
	 18.1463 95.5394 19.845 90.3597 21.8837 85.5253 24.2619 80.6909 
	 26.9801 75.8561 29.6981 71.367 33.0957 67.2231 36.8331 63.4246 
	 40.9103 59.2808 45.3272 55.4823 50.4236 52.0285 55.86 48.2301 
	 61.9755 44.7768 68.4313 41.6692 75.2262 38.5612 79.9829 36.8344 
	 85.0793 35.4533 90.1757 34.0721 95.2721 33.0359 100.709 32.6906 
	 105.805 32 111.581 32 117.017 32 122.453 32.3453 
	 127.89 32.6906 133.325 33.7264 138.422 34.4174 143.179 35.7985 
	 148.274 37.1797 153.033 38.9065 157.449 40.2876 161.186 42.3598 
	 165.264 44.7768 169.001 47.5394 172.738 50.6474 176.476 54.1007 
	 179.874 57.554 183.271 61.3524 186.33 65.4963 189.387 69.9854 
	 191.764 74.1296 194.145 78.964 196.181 83.4531 197.542 88.2875 
	 198.899 93.1224 199.92 98.302 199.92 102.101 200.599 104.518 
	 201.278 106.245 202.298 108.316 203.658 111.079 204.336 113.151 
	 204.676 114.878 204.676 116.604 204.336 118.331 203.317 120.058 
	 201.958 122.13 200.599 123.511 199.24 125.237 197.881 127.31 
	 196.861 129.381 196.522 131.799 196.522 134.561 197.881 137.325 
	 200.599 141.467 202.638 144.92 204.676 147.683 206.376 150.101 
	 208.074 152.172 209.772 154.245 212.151 156.317 214.528 158.044 
	 216.227 159.425 217.247 161.496 217.927 163.568 218.266 165.64 
	 217.927 167.367 217.587 168.748 216.227 170.474 215.209 171.511 
	 213.171 172.547 209.092 174.273 203.317 176.692 203.658 179.453 
	 203.996 182.907 204.676 186.36 205.694 188.777 204.676 190.159 
	 203.996 190.851 203.317 191.885 202.638 192.921 201.618 193.612 
	 200.259 193.957 198.899 194.301 196.861 194.301 199.92 196.375 
	 201.618 198.101 202.298 200.174 201.958 202.245 200.599 204.317 
	 198.899 206.388 196.861 207.769 194.145 209.151 194.145 211.224 
	 194.483 214.331 195.502 218.13 196.522 221.582 197.2 224.691 
	 197.542 228.144 197.2 230.907 196.181 233.668 194.145 236.086 
	 191.764 237.813 189.387 238.849 185.31 239.886 177.835 240.23 
	 170.361 239.886 163.904 239.54 158.808 239.54 156.089 240.23 
	 153.371 242.303 150.993 245.064 147.936 249.209 145.897 253.698 
	 143.858 258.878 141.82 263.712 139.441 268.201 136.723 272 
	 136.723 272 136.723 272 136.723 272 136.723 272 
	 136.723 272 136.723 272 136.723 272 "
	 style=" stroke:#ffffff; stroke-width:1; fill:#ffa596; fill-opacity:100%"></polygon>
	<g>
	  <polygon points="129.724 116.528 130.993 114.19 132.475 112.048 
	   134.593 109.905 136.71 107.956 138.615 106.204 140.308 104.061 
	   141.79 101.918 143.061 99.5802 143.908 97.0479 144.754 94.3208 
	   145.177 91.7884 145.39 89.0609 145.177 86.1391 144.754 83.412 
	   143.908 80.8796 143.061 78.5415 141.79 76.0092 140.308 73.8667 
	   138.615 71.7234 136.71 69.7757 134.593 68.0222 132.264 66.464 
	   129.936 65.1004 127.395 63.9316 124.853 62.9575 121.89 62.3733 
	   119.138 61.9834 116.175 61.7887 113.211 61.9834 110.247 62.3733 
	   107.495 62.9575 104.743 63.9316 102.202 65.1004 99.8734 66.464 
	   97.5447 68.0222 95.4276 69.7757 93.5225 71.7234 91.8286 73.8667 
	   90.3468 76.0092 89.0766 78.5415 88.2297 80.8796 87.3832 83.412 
	   86.9595 86.1391 86.9595 89.0609 86.9595 91.7884 87.3832 94.3208 
	   88.2297 97.0479 89.0766 99.5802 90.3468 101.918 91.8286 104.061 
	   93.5225 106.204 95.4276 107.956 97.5447 109.905 100.085 112.242 
	   101.567 114.19 102.838 116.918 107.283 133.67 125.066 133.67 
	   129.724 116.528 129.724 116.528 129.724 116.528 129.724 116.528 
	   129.724 116.528 129.724 116.528 129.724 116.528 129.724 116.528 "
	   style=" stroke:#000000; stroke-width:1; fill:#ffff00; fill-opacity:100%"></polygon>
	  <polygon points="110.144 63.9255 108.01 65.2896 106.09 66.6535 
	   103.957 68.2122 102.037 70.1609 100.331 71.9143 98.6235 73.8629 
	   97.1301 75.8115 95.8503 78.1491 94.7836 80.2928 93.9301 82.6305 
	   93.2902 84.969 93.077 87.307 93.2902 89.8398 93.7169 92.373 
	   94.5705 94.9059 95.8503 97.439 97.1301 99.3872 98.4104 101.141 
	   99.477 102.7 100.757 104.063 101.824 105.622 103.104 106.986 
	   104.17 108.545 105.237 110.103 106.09 111.662 107.157 113.611 
	   108.01 115.559 108.863 117.898 109.504 120.626 110.144 123.548 
	   110.784 126.86 111.21 130.562 111.85 129.003 111.85 127.054 
	   111.85 125.497 111.85 121.404 111.424 117.313 111.21 114.975 
	   110.997 114.001 110.784 113.026 110.571 112.247 110.144 111.273 
	   109.717 110.103 109.077 108.934 108.437 107.765 107.584 106.597 
	   106.73 105.427 106.09 104.063 105.024 102.894 104.17 101.531 
	   103.317 100.361 102.463 98.9973 101.61 97.8285 100.97 96.4645 
	   100.331 95.2957 99.6902 94.1264 99.2634 92.9572 98.8371 91.0091 
	   98.4104 89.0604 98.4104 87.1119 98.4104 85.1637 98.6235 83.2151 
	   99.0503 81.2669 99.6902 79.1236 100.331 77.175 101.184 75.4216 
	   102.037 73.473 103.104 71.7195 104.384 69.9661 105.663 68.4074 
	   107.157 66.8487 108.65 65.2896 110.144 63.9255 110.144 63.9255 
	   110.144 63.9255 110.144 63.9255 110.144 63.9255 110.144 63.9255 
	   110.144 63.9255 110.144 63.9255 "
	   style=" stroke:#ffffff; stroke-width:1; fill:#ffffff; fill-opacity:100%"></polygon>
	  <polyline points="100.957 120.052 82.7814 127.257 89.9671 113.432 
	   73.9048 115.963 85.74 102.528 62.0691 100.191 84.0496 91.6242 
	   64.6053 83.8353 84.0496 80.3306 68.6211 70.0111 87.8541 70.2054 
	   84.2607 54.2392 97.1534 62.8066 98.2099 46.0614 109.412 55.4076 
	   118.288 42.1672 124.84 57.7439 141.96 42.7509 137.521 62.8066 
	   154.217 55.6023 146.187 72.9317 163.094 74.2948 151.681 86.3664 
	   170.07 92.4026 149.991 97.2704 164.574 109.732 147.243 109.343 
	   155.908 122.193 138.156 116.353 141.96 128.814 130.124 122.778"
	   style=" stroke:#ffff00; stroke-width:1;"></polyline>
	</g>
      </g>
    </g>
  </symbol>
  <symbol id="oid0" xml:space="preserve" class="METIS_SYMBOL">
   <title>Knowledge Category</title>
    <g>
      <polygon points="-1.77636e-015 0 -1.77636e-015 304 16.2963 320 
       880 320 880 16 863.704 0 -1.77636e-015 0 
       -1.77636e-015 0 -1.77636e-015 0 -1.77636e-015 0 -1.77636e-015 0 
       -1.77636e-015 0 -1.77636e-015 0 -1.77636e-015 0 -1.77636e-015 0 
       -1.77636e-015 0 -1.77636e-015 0 -1.77636e-015 0 "
       style=" stroke:#000000; stroke-width:1; fill:#9b9b9b; fill-opacity:100%"       class="TAG:shadow"></polygon>
      <rect x="-1.77636e-015" y="0" width="240" height="304"
       style=" stroke:#000000; stroke-width:1; fill:#ffdcdc; fill-opacity:100%"       class="TAG:PictureBackground"></rect>
      <rect x="240" y="0" width="624" height="304"
       style=" stroke:#000000; stroke-width:1; fill:#ffb4b4; fill-opacity:100%"       class="TAG:canvas"></rect>
      <rect x="245.357" y="25.7143" width="569.522" height="231.429"
       style="stroke:none; fill:#878787; fill-opacity:0%"       class="TAG:grid"></rect>
      <g>
	<desc>METIS_TEXT_GROUP</desc>
	<text  x="256" y="15.8"
	 style=" stroke:#000000; stroke-width:1; font-family:sans-serif; font-size:16;"
	 class="TAG:text">text</text>
	<rect x="256" y="0" width="608" height="304"
	 style=" stroke:#000000; stroke-width:1; fill:#ffffff; fill-opacity:0%"></rect>
      </g>
      <polyline points="864 304 880 320"
       style=" stroke:#000000; stroke-width:1;"></polyline>
      <g>
	<g>
	  <polygon points="186.073 171.885 140.402 149.745 141.35 146.927 
	   142.14 143.908 142.931 140.89 143.563 138.072 143.879 135.052 
	   144.037 132.235 143.721 129.216 142.773 126.398 141.666 123.378 
	   140.56 120.359 139.138 117.54 137.874 114.724 136.609 111.906 
	   135.187 109.29 134.081 106.471 132.817 103.653 131.71 100.836 
	   130.92 97.8162 130.13 94.797 129.498 91.3757 129.182 87.7527 
	   129.024 83.929 129.182 79.9032 129.498 75.475 130.13 72.2547 
	   130.92 69.0342 131.71 66.0152 132.659 63.1975 133.765 60.3797 
	   135.029 57.5618 136.293 54.9452 137.874 52.53 139.612 50.316 
	   141.508 47.9007 143.563 45.6867 145.933 43.6737 148.462 41.4597 
	   151.306 39.447 154.309 37.6358 157.469 35.8242 159.682 34.8177 
	   162.052 34.0127 164.423 33.2078 166.793 32.6037 169.322 32.4025 
	   171.692 32 174.379 32 176.907 32 179.436 32.2013 
	   181.964 32.4025 184.492 33.0062 186.863 33.409 189.076 34.214 
	   191.446 35.019 193.659 36.0255 195.713 36.8305 197.451 38.0382 
	   199.348 39.447 201.086 41.0573 202.824 42.8687 204.563 44.8815 
	   206.143 46.8942 207.723 49.1082 209.146 51.5235 210.568 54.14 
	   211.673 56.5555 212.781 59.3732 213.728 61.9898 214.361 64.8075 
	   214.992 67.6255 215.467 70.6445 215.467 72.8585 215.783 74.2675 
	   216.099 75.274 216.573 76.4815 217.205 78.0917 217.521 79.2992 
	   217.679 80.3057 217.679 81.312 217.521 82.3185 217.047 83.3252 
	   216.415 84.5327 215.783 85.3378 215.151 86.3438 214.518 87.552 
	   214.044 88.7592 213.886 90.1682 213.886 91.7785 214.518 93.389 
	   215.783 95.8037 216.731 97.8162 217.679 99.4268 218.47 100.836 
	   219.259 102.043 220.049 103.251 221.156 104.459 222.261 105.465 
	   223.052 106.271 223.526 107.478 223.842 108.685 224 109.893 
	   223.842 110.899 223.684 111.704 223.052 112.71 222.578 113.315 
	   221.63 113.919 219.733 114.925 217.047 116.335 217.205 117.943 
	   217.363 119.957 217.679 121.97 218.153 123.378 217.679 124.183 
	   217.363 124.587 217.047 125.189 216.731 125.793 216.256 126.196 
	   215.624 126.398 214.992 126.598 214.044 126.598 215.467 127.807 
	   216.256 128.813 216.573 130.02 216.415 131.228 215.783 132.435 
	   214.992 133.643 214.044 134.448 212.781 135.253 212.781 136.462 
	   212.938 138.273 213.412 140.487 213.886 142.499 214.202 144.311 
	   214.361 146.323 214.202 147.934 213.728 149.544 212.781 150.953 
	   211.673 151.96 210.568 152.563 208.671 153.167 205.195 153.368 
	   201.718 153.167 198.715 152.966 196.345 152.966 195.08 153.368 
	   193.816 154.576 192.71 156.186 191.288 158.602 190.34 161.217 
	   189.392 164.237 188.444 167.055 187.337 169.671 186.073 171.885 
	   186.073 171.885 186.073 171.885 186.073 171.885 186.073 171.885 
	   186.073 171.885 186.073 171.885 186.073 171.885 "
	   style=" stroke:#ffffff; stroke-width:1; fill:#ffa596; fill-opacity:100%"></polygon>
	  <g>
	    <polygon points="182.817 81.2675 183.408 79.905 184.097 78.6563 
	     185.082 77.4072 186.067 76.2717 186.953 75.25 187.74 74.001 
	     188.429 72.752 189.02 71.3895 189.415 69.9135 189.808 68.324 
	     190.005 66.848 190.104 65.2583 190.005 63.5552 189.808 61.9658 
	     189.415 60.4898 189.02 59.127 188.429 57.651 187.74 56.4023 
	     186.953 55.153 186.067 54.0177 185.082 52.9958 183.999 52.0875 
	     182.916 51.2927 181.734 50.6115 180.552 50.0438 179.174 49.7033 
	     177.894 49.476 176.515 49.3625 175.137 49.476 173.758 49.7033 
	     172.478 50.0438 171.198 50.6115 170.016 51.2927 168.933 52.0875 
	     167.85 52.9958 166.865 54.0177 165.979 55.153 165.191 56.4023 
	     164.502 57.651 163.911 59.127 163.518 60.4898 163.124 61.9658 
	     162.927 63.5552 162.927 65.2583 162.927 66.848 163.124 68.324 
	     163.518 69.9135 163.911 71.3895 164.502 72.752 165.191 74.001 
	     165.979 75.25 166.865 76.2717 167.85 77.4072 169.032 78.7697 
	     169.721 79.905 170.312 81.495 172.38 91.2593 180.651 91.2593 
	     182.817 81.2675 182.817 81.2675 182.817 81.2675 182.817 81.2675 
	     182.817 81.2675 182.817 81.2675 182.817 81.2675 182.817 81.2675 "
	     style=" stroke:#000000; stroke-width:1; fill:#ffff00; fill-opacity:100%"></polygon>
	    <polygon points="173.71 50.608 172.718 51.403 171.825 52.198 
	     170.833 53.1065 169.94 54.2423 169.146 55.2642 168.352 56.4 
	     167.657 57.5357 167.062 58.8983 166.566 60.1478 166.169 61.5102 
	     165.871 62.8733 165.772 64.236 165.871 65.7122 166.07 67.1888 
	     166.467 68.665 167.062 70.1415 167.657 71.277 168.253 72.299 
	     168.749 73.2077 169.344 74.0025 169.84 74.911 170.436 75.706 
	     170.932 76.6145 171.428 77.523 171.825 78.4315 172.321 79.5672 
	     172.718 80.703 173.115 82.066 173.413 83.6558 173.71 85.3592 
	     174.008 87.2897 174.206 89.4475 174.504 88.5385 174.504 87.403 
	     174.504 86.495 174.504 84.1097 174.305 81.7253 174.206 80.3622 
	     174.107 79.7942 174.008 79.2265 173.909 78.7722 173.71 78.2045 
	     173.512 77.523 173.214 76.8417 172.916 76.1603 172.519 75.479 
	     172.122 74.7975 171.825 74.0025 171.329 73.3212 170.932 72.5262 
	     170.535 71.8448 170.138 71.0498 169.741 70.3685 169.443 69.5735 
	     169.146 68.8922 168.848 68.2107 168.65 67.5293 168.451 66.3938 
	     168.253 65.258 168.253 64.1222 168.253 62.9867 168.352 61.851 
	     168.55 60.7155 168.848 59.4662 169.146 58.3305 169.543 57.3085 
	     169.94 56.1728 170.436 55.1507 171.031 54.1287 171.626 53.2202 
	     172.321 52.3118 173.016 51.403 173.71 50.608 173.71 50.608 
	     173.71 50.608 173.71 50.608 173.71 50.608 173.71 50.608 
	     173.71 50.608 173.71 50.608 "
	     style=" stroke:#ffffff; stroke-width:1; fill:#ffffff; fill-opacity:100%"></polygon>
	    <polyline points="169.437 83.3215 160.983 87.5207 164.326 79.463 
	     156.855 80.9385 162.36 73.1075 151.35 71.7458 161.573 66.7523 
	     152.529 62.2125 161.573 60.1697 154.397 54.155 163.343 54.2682 
	     161.671 44.9622 167.668 49.9557 168.16 40.1957 173.37 45.6432 
	     177.498 37.926 180.546 47.005 188.508 38.2662 186.444 49.9557 
	     194.21 45.7568 190.474 55.8572 198.339 56.6517 193.03 63.6878 
	     201.583 67.206 192.244 70.0433 199.027 77.3065 190.966 77.0795 
	     194.996 84.5697 186.739 81.1652 188.508 88.4282 183.004 84.9105"
	     style=" stroke:#ffff00; stroke-width:1;"></polyline>
	  </g>
	</g>
	<g>
	  <polygon points="121.699 255.822 114.863 267.956 114.863 272 
	   199.889 272 199.889 267.956 190.916 255.822 121.699 255.822 
	   121.699 255.822 121.699 255.822 121.699 255.822 121.699 255.822 
	   121.699 255.822 121.699 255.822 121.699 255.822 121.699 255.822 
	   121.699 255.822 121.699 255.822 121.699 255.822 "
	   style=" stroke:#000000; stroke-width:1; fill:#ffffff; fill-opacity:100%"></polygon>
	  <polygon points="119.125 260.235 194.347 260.235 196.912 264.157 
	   116.989 264.157 119.125 260.235 119.125 260.235 119.125 260.235 
	   119.125 260.235 119.125 260.235 119.125 260.235 119.125 260.235 
	   119.125 260.235 119.125 260.235 119.125 260.235 119.125 260.235 119.125 260.235 "
	   style=" stroke:#000000; stroke-width:1; fill:#000000; fill-opacity:100%"></polygon>
	  <polyline points="114.863 267.098 199.463 267.098"
	   style=" stroke:#ababab; stroke-width:1;"></polyline>
	  <polyline points="140.37 260.235 140.37 262.523 141.231 262.523 
	   142.092 263.095 144.244 263.095 146.396 263.095 148.548 263.666 
	   151.13 263.666 153.282 263.666 155.434 263.666 158.016 263.666 
	   160.169 263.666 162.319 263.666 164.901 263.666 167.054 263.666 
	   169.206 263.095 171.358 263.095 173.078 263.095 175.231 262.523 
	   175.231 260.807"
	   style=" stroke:#ababab; stroke-width:1;"></polyline>
	  <polygon points="111.895 172 201.581 172 202.436 172 
	   202.863 172.493 203.29 172.985 203.29 173.971 203.29 259.737 
	   203.29 260.23 202.863 260.723 202.436 261.216 201.581 261.216 
	   111.895 261.216 111.468 261.216 110.614 260.723 110.614 260.23 
	   110.187 259.737 110.187 173.971 110.614 172.985 110.614 172.493 
	   111.468 172 111.895 172 111.895 172 111.895 172 
	   111.895 172 111.895 172 111.895 172 111.895 172 
	   111.895 172 111.895 172 111.895 172 111.895 172 111.895 172 "
	   style=" stroke:#000000; stroke-width:1; fill:#ffffff; fill-opacity:100%"></polygon>
	  <polygon points="196.485 182.785 196.485 183.771 196.485 184.759 
	   196.912 186.733 196.912 188.216 196.912 190.684 196.912 192.659 
	   196.912 194.636 196.912 196.61 196.912 198.584 196.912 200.561 
	   196.912 202.536 196.912 204.51 196.912 206.487 196.912 208.462 
	   196.912 210.93 196.912 212.905 196.912 214.881 196.912 215.869 
	   196.912 216.855 196.912 218.831 196.912 220.807 196.912 222.781 
	   196.912 224.756 196.912 226.732 196.912 228.707 196.912 230.682 
	   196.912 232.658 196.912 234.632 196.912 237.102 196.912 239.078 
	   196.912 241.052 196.912 243.027 196.485 245.003 196.485 246.978 
	   196.485 247.472 196.058 248.46 195.631 248.952 195.203 248.952 
	   194.776 248.952 193.493 249.447 192.211 249.447 190.074 249.447 
	   187.936 249.447 185.371 249.447 183.235 249.447 180.67 249.447 
	   178.533 249.447 175.968 249.941 173.83 249.941 171.267 249.941 
	   169.129 249.941 166.565 249.941 164.427 249.941 161.862 249.941 
	   159.726 249.941 157.161 249.941 156.305 249.941 155.024 249.941 
	   152.459 249.941 150.321 249.941 147.757 249.941 145.62 249.941 
	   143.483 249.941 140.918 249.941 138.781 249.941 136.216 249.447 
	   134.079 249.447 131.515 249.447 129.377 249.447 126.813 249.447 
	   124.676 249.447 122.538 249.447 119.974 248.952 119.546 248.952 
	   119.119 248.46 118.691 247.966 118.264 247.472 118.264 246.978 
	   183.662 239.078 196.485 182.785 196.485 182.785 196.485 182.785 
	   196.485 182.785 196.485 182.785 196.485 182.785 196.485 182.785 
	   196.485 182.785 196.485 182.785 196.485 182.785 196.485 182.785 196.485 182.785 "
	   style=" stroke:#000000; stroke-width:1; fill:#ffffff; fill-opacity:100%"></polygon>
	  <polygon points="187.56 252.392 195.638 252.392 195.638 257.784 
	   187.56 257.784 187.56 252.392 187.56 252.392 187.56 252.392 
	   187.56 252.392 187.56 252.392 187.56 252.392 187.56 252.392 
	   187.56 252.392 187.56 252.392 187.56 252.392 187.56 252.392 187.56 252.392 "
	   style=" stroke:#000000; stroke-width:1; fill:#ababab; fill-opacity:100%"></polygon>
	  <polygon points="127.617 255.333 131.868 255.333 131.868 252.392 
	   127.617 252.392 127.617 255.333 127.617 255.333 127.617 255.333 
	   127.617 255.333 127.617 255.333 127.617 255.333 127.617 255.333 
	   127.617 255.333 127.617 255.333 127.617 255.333 127.617 255.333 127.617 255.333 "
	   style=" stroke:#000000; stroke-width:1; fill:#00ff00; fill-opacity:100%"></polygon>
	  <polygon points="118.266 246.983 118.266 245.995 118.266 245.007 
	   118.266 243.033 118.266 241.059 117.839 239.083 117.839 237.109 
	   117.839 235.135 117.839 233.159 117.839 231.185 117.839 229.211 
	   117.839 227.235 117.839 225.261 117.839 223.287 117.839 220.817 
	   117.839 218.843 117.839 216.868 117.839 214.893 117.839 213.905 
	   117.839 212.919 117.839 210.944 117.839 208.969 117.839 206.995 
	   117.839 205.019 117.839 203.045 117.839 201.071 117.839 198.602 
	   117.839 197.121 117.839 194.653 117.839 192.678 117.839 190.703 
	   118.266 188.728 118.266 186.754 118.266 184.779 118.266 182.804 
	   118.266 181.818 118.694 181.324 119.121 180.829 119.976 180.336 
	   121.258 180.336 122.541 180.336 124.678 180.336 127.242 180.336 
	   129.38 179.843 131.517 179.843 134.082 179.843 136.219 179.843 
	   138.783 179.843 140.921 179.843 143.485 179.843 148.187 179.843 
	   150.325 179.843 152.89 179.843 155.026 179.843 157.591 179.843 
	   158.445 179.843 159.727 179.843 162.292 179.843 164.429 179.843 
	   166.567 179.843 169.132 179.843 171.268 179.843 173.834 179.843 
	   175.97 179.843 178.535 179.843 180.673 179.843 183.236 179.843 
	   185.375 179.843 187.939 180.336 190.076 180.336 192.214 180.336 
	   194.777 180.336 195.206 180.336 196.06 180.829 196.487 181.818 
	   196.487 182.31 196.487 182.804 184.092 239.083 120.403 249.451 
	   119.976 248.957 119.121 248.957 118.694 248.463 118.266 247.477 
	   118.266 246.983 118.266 246.983 118.266 246.983 118.266 246.983 
	   118.266 246.983 118.266 246.983 118.266 246.983 118.266 246.983 
	   118.266 246.983 118.266 246.983 118.266 246.983 118.266 246.983 "
	   style=" stroke:#ababab; stroke-width:1; fill:#ababab; fill-opacity:100%"></polygon>
	  <polyline points="120.406 249.451 119.978 248.957 119.123 248.957 
	   118.696 248.463 118.269 247.477 118.269 246.983 118.269 245.995 
	   118.269 245.007 118.269 243.033 117.841 241.059 117.841 239.083 
	   117.841 237.109 117.841 235.135 117.841 233.159 117.841 231.185 
	   117.841 229.211 117.841 227.235 117.841 225.263 117.414 222.793 
	   117.414 220.819 117.414 218.845 117.414 216.869 117.414 214.895 
	   117.414 213.908 117.414 212.921 117.414 210.945 117.414 208.971 
	   117.414 206.997 117.841 205.021 117.841 203.047 117.841 200.579 
	   117.841 198.605 117.841 196.631 117.841 194.655 117.841 192.681 
	   117.841 190.707 117.841 188.731 118.269 186.757 118.269 184.782 
	   118.269 182.807 118.269 181.821 118.696 181.327 119.123 180.833 
	   119.978 180.339 121.26 180.339 122.543 180.339 124.68 180.339 
	   126.817 179.846 129.382 179.846 131.519 179.846 134.083 179.846 
	   136.221 179.846 138.785 179.846 140.922 179.846 143.487 179.846 
	   148.188 179.846 150.326 179.846 152.89 179.846 155.028 179.846 
	   157.592 179.352 158.447 179.846 159.729 179.846 162.294 179.846 
	   164.43 179.846 166.568 179.846 169.132 179.846 171.27 179.846 
	   173.834 179.846 175.972 179.846 178.537 179.846 180.673 179.846 
	   183.238 179.846 185.375 179.846 187.939 179.846 190.076 180.339 
	   192.214 180.339 194.777 180.339 195.206 180.339 196.06 180.833 
	   196.487 181.327 196.487 182.313 196.487 182.807"
	   style=" stroke:#000000; stroke-width:1;"></polyline>
	  <polygon points="121.247 182.293 193.504 182.293 194.36 182.293 
	   194.787 182.787 194.787 183.776 194.787 246.009 194.787 246.501 
	   194.36 247.489 193.931 247.489 121.247 247.489 120.392 247.489 
	   119.964 246.997 119.964 246.501 119.964 183.776 119.964 182.787 
	   120.392 182.293 121.247 182.293 121.247 182.293 121.247 182.293 
	   121.247 182.293 121.247 182.293 121.247 182.293 121.247 182.293 
	   121.247 182.293 121.247 182.293 121.247 182.293 121.247 182.293 121.247 182.293 "
	   style=" stroke:#000000; stroke-width:1; fill:#000000; fill-opacity:100%"></polygon>
	  <polygon points="122.94 184.745 192.661 184.745 192.661 243.568 
	   122.94 243.568 122.94 184.745 122.94 184.745 122.94 184.745 
	   122.94 184.745 122.94 184.745 122.94 184.745 122.94 184.745 
	   122.94 184.745 122.94 184.745 122.94 184.745 122.94 184.745 122.94 184.745 "
	   style=" stroke:#000000; stroke-width:1; fill:#00ffff; fill-opacity:100%"></polygon>
	  <polygon points="122.94 184.745 192.661 184.745 192.661 187.686 
	   122.94 187.686 122.94 184.745 122.94 184.745 122.94 184.745 
	   122.94 184.745 122.94 184.745 122.94 184.745 122.94 184.745 
	   122.94 184.745 122.94 184.745 122.94 184.745 122.94 184.745 122.94 184.745 "
	   style=" stroke:#000000; stroke-width:1; fill:#0000ff; fill-opacity:100%"></polygon>
	  <polyline points="122.94 189.647 192.661 189.647"
	   style=" stroke:#000000; stroke-width:1;"></polyline>
	  <polyline points="122.94 241.117 192.661 241.117"
	   style=" stroke:#000000; stroke-width:1;"></polyline>
	  <polyline points="156.525 241.607 156.525 189.647"
	   style=" stroke:#000000; stroke-width:1;"></polyline>
	  <polyline points="158.227 189.647 158.227 241.117"
	   style=" stroke:#000000; stroke-width:1;"></polyline>
	  <polygon points="125.066 241.608 156.951 241.608 156.951 218.078 
	   125.066 218.078 125.066 241.608 125.066 241.608 125.066 241.608 
	   125.066 241.608 125.066 241.608 125.066 241.608 125.066 241.608 
	   125.066 241.608 125.066 241.608 125.066 241.608 125.066 241.608 125.066 241.608 "
	   style=" stroke:#000000; stroke-width:1; fill:#00ffff; fill-opacity:100%"></polygon>
	  <polygon points="125.066 221.019 156.951 221.019 156.951 218.078 
	   125.066 218.078 125.066 221.019 125.066 221.019 125.066 221.019 
	   125.066 221.019 125.066 221.019 125.066 221.019 125.066 221.019 
	   125.066 221.019 125.066 221.019 125.066 221.019 125.066 221.019 125.066 221.019 "
	   style=" stroke:#000000; stroke-width:1; fill:#0000ff; fill-opacity:100%"></polygon>
	  <polygon points="158.651 241.608 190.961 241.608 190.961 218.078 
	   158.651 218.078 158.651 241.608 158.651 241.608 158.651 241.608 
	   158.651 241.608 158.651 241.608 158.651 241.608 158.651 241.608 
	   158.651 241.608 158.651 241.608 158.651 241.608 158.651 241.608 158.651 241.608 "
	   style=" stroke:#000000; stroke-width:1; fill:#00ffff; fill-opacity:100%"></polygon>
	  <polygon points="158.651 221.019 190.961 221.019 190.961 218.078 
	   158.651 218.078 158.651 221.019 158.651 221.019 158.651 221.019 
	   158.651 221.019 158.651 221.019 158.651 221.019 158.651 221.019 
	   158.651 221.019 158.651 221.019 158.651 221.019 158.651 221.019 158.651 221.019 "
	   style=" stroke:#000000; stroke-width:1; fill:#0000ff; fill-opacity:100%"></polygon>
	  <polygon points="190.961 216.117 158.651 216.117 158.651 192.097 
	   190.961 192.097 190.961 216.117 190.961 216.117 190.961 216.117 
	   190.961 216.117 190.961 216.117 190.961 216.117 190.961 216.117 
	   190.961 216.117 190.961 216.117 190.961 216.117 190.961 216.117 190.961 216.117 "
	   style=" stroke:#000000; stroke-width:1; fill:#00ffff; fill-opacity:100%"></polygon>
	  <polyline points="158.651 195.038 190.536 195.038"
	   style=" stroke:#000000; stroke-width:1;"></polyline>
	  <polyline points="161.627 198.959 186.71 198.959"
	   style=" stroke:#000000; stroke-width:1;"></polyline>
	  <polyline points="161.627 202.881 186.71 202.881"
	   style=" stroke:#000000; stroke-width:1;"></polyline>
	  <polyline points="162.052 207.294 187.134 207.294"
	   style=" stroke:#000000; stroke-width:1;"></polyline>
	  <polyline points="128.467 223.96 153.55 223.96"
	   style=" stroke:#000000; stroke-width:1;"></polyline>
	  <polyline points="162.052 211.215 187.134 211.215"
	   style=" stroke:#000000; stroke-width:1;"></polyline>
	  <polyline points="162.052 223.96 187.134 223.96"
	   style=" stroke:#000000; stroke-width:1;"></polyline>
	  <polyline points="128.467 227.881 153.55 227.881"
	   style=" stroke:#000000; stroke-width:1;"></polyline>
	  <polyline points="162.052 227.881 187.134 227.881"
	   style=" stroke:#000000; stroke-width:1;"></polyline>
	  <polyline points="128.467 231.803 153.55 231.803"
	   style=" stroke:#000000; stroke-width:1;"></polyline>
	  <polyline points="162.052 231.803 187.134 231.803"
	   style=" stroke:#000000; stroke-width:1;"></polyline>
	  <polyline points="128.467 236.216 153.55 236.216"
	   style=" stroke:#000000; stroke-width:1;"></polyline>
	  <polyline points="162.052 236.216 187.134 236.216"
	   style=" stroke:#000000; stroke-width:1;"></polyline>
	  <polygon points="185.434 223.96 140.37 223.96 140.37 190.627 
	   185.434 190.627 185.434 223.96 185.434 223.96 185.434 223.96 
	   185.434 223.96 185.434 223.96 185.434 223.96 185.434 223.96 
	   185.434 223.96 185.434 223.96 185.434 223.96 185.434 223.96 185.434 223.96 "
	   style=" stroke:#000000; stroke-width:1; fill:#00ffff; fill-opacity:100%"></polygon>
	  <polygon points="185.434 193.568 140.37 193.568 140.37 190.627 
	   185.434 190.627 185.434 193.568 185.434 193.568 185.434 193.568 
	   185.434 193.568 185.434 193.568 185.434 193.568 185.434 193.568 
	   185.434 193.568 185.434 193.568 185.434 193.568 185.434 193.568 185.434 193.568 "
	   style=" stroke:#000000; stroke-width:1; fill:#0000ff; fill-opacity:100%"></polygon>
	  <polyline points="145.047 199.94 179.907 199.94"
	   style=" stroke:#000000; stroke-width:1;"></polyline>
	  <polyline points="145.047 205.822 179.907 205.822"
	   style=" stroke:#000000; stroke-width:1;"></polyline>
	  <polyline points="145.047 211.215 179.907 211.215"
	   style=" stroke:#000000; stroke-width:1;"></polyline>
	  <polyline points="145.047 217.097 179.907 217.097"
	   style=" stroke:#000000; stroke-width:1;"></polyline>
	  <polyline points="142.922 193.077 142.922 223.96"
	   style=" stroke:#000000; stroke-width:1;"></polyline>
	  <polyline points="182.883 193.077 182.883 223.96"
	   style=" stroke:#000000; stroke-width:1;"></polyline>
	  <polyline points="140.37 221.019 185.434 221.019"
	   style=" stroke:#000000; stroke-width:1;"></polyline>
	  <polyline points="195.638 257.784 195.638 252.882 187.985 252.882"
	   style=" stroke:#000000; stroke-width:1;"></polyline>
	  <polyline points="127.192 252.392 127.192 255.333 131.443 255.333"
	   style=" stroke:#000000; stroke-width:1;"></polyline>
	  <polygon points="172.267 268.078 171.83 272 187.985 272 
	   187.549 268.078 187.549 270.879 172.267 270.879 172.267 268.078 
	   172.267 268.078 172.267 268.078 172.267 268.078 172.267 268.078 
	   172.267 268.078 172.267 268.078 172.267 268.078 172.267 268.078 
	   172.267 268.078 172.267 268.078 172.267 268.078 "
	   style=" stroke:#000000; stroke-width:1; fill:#ababab; fill-opacity:100%"></polygon>
	</g>
	<g>
	  <polygon points="16 92 80.8843 105.333 145.768 98.6667 
	   145.768 187.556 80.8843 194.222 16 180.889 16 92 
	   16 92 16 92 16 92 "
	   style=" stroke:#000000; stroke-width:2; fill:#d56d61; fill-opacity:100%"></polygon>
	  <polygon points="18.093 94.2223 80.8843 107.555 143.675 100.889 
	   143.675 185.333 80.8843 192 18.093 179.408 18.093 94.2223 
	   18.093 94.2223 18.093 94.2223 18.093 94.2223 "
	   style=" stroke:#000000; stroke-width:1; fill:#ffffff; fill-opacity:100%"></polygon>
	  <polygon points="20.1861 96.4445 80.8843 107.555 141.582 103.111 
	   141.582 183.111 80.8843 192 20.1861 177.926 20.1861 96.4445 
	   20.1861 96.4445 20.1861 96.4445 20.1861 96.4445 "
	   style=" stroke:#000000; stroke-width:1; fill:#ffffff; fill-opacity:100%"></polygon>
	  <polygon points="22.2791 98.6667 80.8843 107.555 139.489 105.333 
	   139.489 180.889 80.8843 192 22.2791 176.527 22.2791 98.6667 
	   22.2791 98.6667 22.2791 98.6667 22.2791 98.6667 "
	   style=" stroke:#000000; stroke-width:1; fill:#ffffff; fill-opacity:100%"></polygon>
	  <polyline points="80.8843 107.555 80.8843 152 80.8843 192"
	   style=" stroke:#000000; stroke-width:1;"></polyline>
	  <polyline points="87.1632 123.111 87.1632 123.111"
	   style=" stroke:#000000; stroke-width:2;"></polyline>
	  <polyline points="91.3494 125.333 129.024 123.111"
	   style=" stroke:#000000; stroke-width:2;"></polyline>
	  <polyline points="91.3494 138.667 129.024 136.444"
	   style=" stroke:#000000; stroke-width:2;"></polyline>
	  <polyline points="91.3494 152 129.024 149.778"
	   style=" stroke:#000000; stroke-width:2;"></polyline>
	  <polyline points="91.3494 165.333 129.024 163.111"
	   style=" stroke:#000000; stroke-width:2;"></polyline>
	</g>
      </g>
    </g>
  </symbol>
 </defs>
</svg>
