<?xml version="1.0" encoding="UTF-8" standalone="no"?>
<svg xmlns:rdf="http://www.w3.org/1999/02/22-rdf-syntax-ns#" xmlns="http://www.w3.org/2000/svg" version="1.1" xml:space="preserve" height="219px" viewBox="21.027 45.083 219 219" width="219px" enable-background="new 21.027 45.083 219 219" y="0px" x="0px" xmlns:cc="http://creativecommons.org/ns#" xmlns:xlink="http://www.w3.org/1999/xlink" xmlns:dc="http://purl.org/dc/elements/1.1/"><metadata><rdf:RDF><cc:Work rdf:about=""><dc:format>image/svg+xml</dc:format><dc:type rdf:resource="http://purl.org/dc/dcmitype/StillImage"/><dc:title/></cc:Work></rdf:RDF></metadata><defs><filter id="filter4568"><feGaussianBlur stdDeviation="1.9719193"/></filter><linearGradient id="linearGradient3087" y2="154.5" gradientUnits="userSpaceOnUse" x2="204.2" gradientTransform="matrix(1.1377236,0,0,1.1377236,-18.067711,-21.412487)" y1="104.5" x1="153.4"><stop stop-color="#d59f0f" offset="0"/><stop stop-color="#ca8819" offset="1"/></linearGradient><linearGradient id="linearGradient3095" y2="81.52" gradientUnits="userSpaceOnUse" x2="162.1" gradientTransform="matrix(1.1321488,-0.11343104,0.11343104,1.1321488,-40.419884,-22.440193)" y1="106.5" x1="158.3"><stop stop-color="#009F5D" offset="0"/><stop stop-color="#39B873" offset="0.4597"/><stop stop-color="#5FC982" offset="0.8136"/><stop stop-color="#6DCF87" offset="1"/></linearGradient><linearGradient id="linearGradient3111" y2="86.14" gradientUnits="userSpaceOnUse" x2="134.9" gradientTransform="matrix(1.137041,-0.04084428,0.04084428,1.137041,-27.122967,-23.807623)" y1="84.15" x1="91.24"><stop stop-color="#007F9F" offset="0"/><stop stop-color="#19A1B9" offset="0.3389"/><stop stop-color="#34C6D5" offset="0.7712"/><stop stop-color="#3FD4E0" offset="1"/></linearGradient><linearGradient id="linearGradient3128" y2="147.2" gradientUnits="userSpaceOnUse" x2="397.7" gradientTransform="matrix(1.1093943,-0.04505385,0.11764062,1.1621847,-401.16428,-74.461467)" y1="168.3" x1="394.4"><stop stop-color="#009F5D" offset="0"/><stop stop-color="#39B873" offset="0.4597"/><stop stop-color="#5FC982" offset="0.8136"/><stop stop-color="#6DCF87" offset="1"/></linearGradient></defs>
<radialGradient id="SVGID_4_" gradientUnits="userSpaceOnUse" cy="137.1" cx="383.3" gradientTransform="matrix(0.8511,-0.0346,0.0903,0.8916,-284.4624,-5.5038)" r="29.04">
	<stop stop-color="#CDB97C" offset="0"/>
	<stop stop-color="#F7F9FF" offset="1"/>
</radialGradient>
<radialGradient id="SVGID_5_" gradientUnits="userSpaceOnUse" cy="139" cx="379.2" gradientTransform="matrix(0.8511,-0.0346,0.0903,0.8916,-284.4624,-5.5038)" r="29.04">
	<stop stop-color="#CDB97C" offset="0"/>
	<stop stop-color="#F7F9FF" offset="1"/>
</radialGradient>
<radialGradient id="SVGID_6_" gradientUnits="userSpaceOnUse" cy="137.9" cx="390.4" gradientTransform="matrix(0.8511,-0.0346,0.0903,0.8916,-284.4624,-5.5038)" r="29.04">
	<stop stop-color="#CDB97C" offset="0"/>
	<stop stop-color="#F7F9FF" offset="1"/>
</radialGradient>
<radialGradient id="SVGID_8_" gradientUnits="userSpaceOnUse" cy="60.65" cx="108.3" gradientTransform="matrix(0.8724,-0.0313,0.0313,0.8724,2.5067,33.3577)" r="34.31">
	<stop stop-color="#CDB97C" offset="0"/>
	<stop stop-color="#F7F9FF" offset="1"/>
</radialGradient>
<radialGradient id="SVGID_9_" gradientUnits="userSpaceOnUse" cy="62.94" cx="103.4" gradientTransform="matrix(0.8724,-0.0313,0.0313,0.8724,2.5067,33.3577)" r="34.31">
	<stop stop-color="#CDB97C" offset="0"/>
	<stop stop-color="#F7F9FF" offset="1"/>
</radialGradient>
<radialGradient id="SVGID_10_" gradientUnits="userSpaceOnUse" cy="61.61" cx="116.6" gradientTransform="matrix(0.8724,-0.0313,0.0313,0.8724,2.5067,33.3577)" r="34.32">
	<stop stop-color="#CDB97C" offset="0"/>
	<stop stop-color="#F7F9FF" offset="1"/>
</radialGradient>
<radialGradient id="SVGID_12_" gradientUnits="userSpaceOnUse" cy="71.66" cx="157.2" gradientTransform="matrix(0.8686,-0.087,0.087,0.8686,-7.6947,34.4075)" r="34.31">
	<stop stop-color="#CDB97C" offset="0"/>
	<stop stop-color="#F7F9FF" offset="1"/>
</radialGradient>
<radialGradient id="SVGID_13_" gradientUnits="userSpaceOnUse" cy="73.95" cx="152.4" gradientTransform="matrix(0.8686,-0.087,0.087,0.8686,-7.6947,34.4075)" r="34.31">
	<stop stop-color="#CDB97C" offset="0"/>
	<stop stop-color="#F7F9FF" offset="1"/>
</radialGradient>
<radialGradient id="SVGID_14_" gradientUnits="userSpaceOnUse" cy="72.62" cx="165.5" gradientTransform="matrix(0.8686,-0.087,0.087,0.8686,-7.6947,34.4075)" r="34.31">
	<stop stop-color="#CDB97C" offset="0"/>
	<stop stop-color="#F7F9FF" offset="1"/>
</radialGradient>
<path d="m214.3,68.52s-88.63,19.83-131.4,28.76c-11.57,3.178-23.14,6.37-34.72,9.517,4.849,45.85,10.09,91.66,15.17,137.5,7.594,4.36,19.52,7.101,27.02,0.7503,2.805-1.235,8.571-8.799,7.192-1.542,3.251,8.772,15.48,5.872,23.1,7.736,4.873-1.254,9.174-5.395,14.19-8.279,2.776-1.852,5.552-3.705,8.328-5.557-2.25,12.71,19.93,12.21,19.93,12.21s43.3-28.44,58.62-40.2c0,0-5.173-94.29-7.421-140.9z" fill-opacity="0.50196078" transform="matrix(1.1377236,0,0,1.1377236,-16.06771,-23.412487)" filter="url(#filter4568)" fill="#000"/><path fill="url(#linearGradient3128)" d="M30.2,94.61,80.48,80.83s2.529-0.4016,2.769,1.981l0.13,4.18-41.33,17.21-11.85-9.59z"/><path fill="#89726a" d="M30.2,94.61,80.48,80.83s2.529-0.4016,2.769,1.981l0.13,4.18-41.33,17.21-11.85-9.59z"/><path fill="#FFF" d="M34.09,96.75,81.63,83.77s4.594,3.103,22.55,2.969l-24.77,14.76-29.87,3.6-15.47-8.35z"/><polygon points="51.61,104,50.86,103.5,75.61,96.74" fill="url(#SVGID_4_)" transform="matrix(1.1377236,0,0,1.1377236,-18.067711,-21.412487)"/><polygon points="48.31,105.9,47.56,105.4,72.32,98.61" fill="url(#SVGID_5_)" transform="matrix(1.1377236,0,0,1.1377236,-18.067711,-21.412487)"/><polygon points="57.67,104.5,56.92,104,81.68,97.23" fill="url(#SVGID_6_)" transform="matrix(1.1377236,0,0,1.1377236,-18.067711,-21.412487)"/><path d="m56.97,96.91s1.748-2.463,4.454-1.08l53.38-13.82s1.703-0.06826,1.915,2.016l6.527,132.1s-0.5507,3.008-2.674,4.588l-44.34,32.58s-2.048-0.5165-3.062,0.7202l-16.14-157.1z" stroke="#725a51" stroke-width="2.27544713" fill="#b3a59f"/><path opacity="0.6" d="m60.68,96.57c-0.7407-0.3777-1.403-0.4619-1.986-0.3925,0.3561-0.04096,0.7475-0.02389,1.162,0.08419l-0.01707,0.1559,15.42,157.2c0.3095-0.0102,0.5859,0.0148,0.785,0.0455l0.1251-0.0944-15.41-157-0.08078,0.01934z" fill="#FFF"/><path opacity="0.6" d="m59.85,96.26c-2.23-0.5723-3.629,1.388-3.629,1.388l16.19,157.2c0.8305-1.017,2.362-0.8499,2.88-0.7611l-15.46-157.6,0.01593-0.1559z" fill="#8a8a8a"/><path d="m31.16,95.33c-0.1115,21.09,16.95,154.5,16.95,154.5s-0.008,2.794,5.579,3.497l15,2.318s5.092,0.4005,5.296-1.944l-16.23-157.4s-6.23-0.3886-26.6-0.9502z" stroke="#725a51" stroke-width="2.27544713" fill="#b3a59f"/><path opacity="0.6" d="m57.01,97.02s-19.27,0.661-25.2-1.438c2.831,2.521,20.41,2.288,25.28,2.173l-0.07509-0.735z" fill="#FFF"/><path d="m112.8,81.81-46.01,12.08-5.703,1.498c-2.073-1.145-4.404,0.3151-4.404,0.3151-2.658,0.7919-20.5-0.2605-20.5-0.2605-3.172-0.4187-1.165-1.182-1.165-1.182l44.01-12.46c1.603-0.4096,2.961-0.2537,3.918,0.0023-0.7338-1.261-2.469-0.9921-2.469-0.9921l-50.24,13.77c0.02389,0.03868,0.04437,0.07281,0.07395,0.1081l0.562,0.4528c4.167,2.455,23.81,1.93,25.94,1.864,0.7077-0.6019,2.009-1.306,3.707-0.5199,0.04778,0.02389,0.09898,0.03868,0.1502,0.06485l53.33-13.81s1.256-0.04779,1.743,1.262c0.0648-0.1058,0.0956-0.1934,0.0796-0.2731-0.3242-1.902-3.066-1.927-3.066-1.927z" stroke="#725a51" stroke-width="1.13772357" fill="#d6c4bf"/><polygon opacity="0.6" transform="matrix(1.1377236,0,0,1.1377236,-18.067711,-21.412487)" points="69.08,103.6,69.05,104.4,113,92.36" fill="#FFF"/><path fill="#FFF" d="m110.6,113.9c0.2423,3.552-2.077,7.152-5.18,8.047l-27.56,7.932c-3.106,0.8977-5.816-1.257-6.057-4.806l-0.4642-6.79c-0.2446-3.549,2.08-7.147,5.179-8.041l27.56-7.934c3.105-0.8977,5.821,1.257,6.063,4.803l0.4596,6.789z"/><path opacity="0.6" d="m76.12,111.6,27.56-7.933c3.105-0.8931,5.813,1.258,6.058,4.808l0.4608,6.785c0.0523,0.7884-0.0239,1.579-0.2071,2.341,0.4767-1.145,0.7145-2.399,0.6303-3.652l-0.4596-6.79c-0.2423-3.545-2.958-5.7-6.063-4.803l-27.56,7.934c-2.412,0.694-4.346,3.032-4.973,5.702,0.8692-2.098,2.544-3.814,4.553-4.393z" fill="#8a8a8a"/><path fill="url(#linearGradient3111)" d="M78.39,70.83,140.2,55.07s3.087-0.454,3.183,2.298l-0.2,4.83-51.27,19.76-13.54-11.13z"/><path fill="#59699b" d="M78.39,70.83,140.2,55.07s3.087-0.454,3.183,2.298l-0.2,4.83-51.27,19.76-13.54-11.13z"/><path fill="#FFF" d="M82.91,73.31,141.4,58.48s5.295,3.601,27,3.511l-31.1,16.96-36.4,4.06-17.99-9.7z"/><polygon points="95.71,83.46,94.85,82.86,125.3,75.14" fill="url(#SVGID_8_)" transform="matrix(1.1377236,0,0,1.1377236,-18.067711,-21.412487)"/><polygon points="91.58,85.61,90.72,85.01,121.2,77.29" fill="url(#SVGID_9_)" transform="matrix(1.1377236,0,0,1.1377236,-18.067711,-21.412487)"/><polygon points="103,84.04,102.1,83.44,132.6,75.72" fill="url(#SVGID_10_)" transform="matrix(1.1377236,0,0,1.1377236,-18.067711,-21.412487)"/><path d="m109.6,74.43s2.306-2.839,5.467-1.231l65.5-15.78s2.062-0.07281,2.148,2.335l-2.786,152.7s-0.909,3.48-3.597,5.295l-56.19,37.5s-2.435-0.603-3.761,0.8248l-6.7-181.7z" stroke="#4d5b87" stroke-width="2.27544713" fill="#7686c2"/><path opacity="0.6" d="m115,73.2c-0.8658-0.4392-1.664-0.5404-2.37-0.4619,0.4323-0.04778,0.8999-0.02389,1.396,0.09898l-0.0307,0.1854,5.929,181.7c0.3709-0.0137,0.7042,0.0159,0.942,0.0501l0.1627-0.1092-5.924-181.5-0.1047,0.02389z" fill="#FFF"/><path fill="#CCC" d="m114.1,72.84c-2.647-0.6667-4.492,1.594-4.492,1.594l6.86,181.6c1.091-1.171,2.923-0.9739,3.544-0.867l-5.945-182.2,0.0319-0.1854z"/><path d="m78.73,72.6,8.193,179.7s-0.231,3.233,6.461,4.065l17.92,2.727s6.122,0.4767,6.552-2.232l-6.9-182c-0.001,0-5.054,1.209-32.26-2.297z" stroke="#4d5b87" stroke-width="2.27544713" fill="#7686c2"/><path fill="#CCC" d="m112.8,256.4-17.93-2.732c-6.693-0.8294-6.458-4.062-6.458-4.062l-8.06-177.6c-1.14-0.3891-2.024-1.418-2.024-1.418l8.193,180.6s-0.231,3.233,6.461,4.065l17.92,2.727s5.665,0.4346,6.467-1.955c-1.936,0.6326-4.575,0.4312-4.575,0.4312z"/><path opacity="0.6" d="m110.6,73.71s-23.33,0.6929-30.32-1.75c3.208,2.922,24.46,2.712,30.35,2.599l-0.0341-0.8487z" fill="#FFF"/><path d="m179.2,56.33-56.54,13.8-7.01,1.713c-2.411-1.335-5.342,0.347-5.342,0.347-3.4,0.9-24.84-0.38-24.84-0.38-3.8-0.49-1.31-1.36-1.31-1.36l54.15-14.24c1.967-0.4665,3.594-0.2833,4.728,0.01707-0.7782-1.463-2.896-1.158-2.896-1.158l-61.77,15.75c0.02503,0.04096,0.04778,0.08305,0.0785,0.1217l0.6394,0.5268c4.841,2.856,28.6,2.315,31.19,2.247,0.9079-0.694,2.534-1.505,4.517-0.5882,0.0626,0.02617,0.1183,0.04551,0.1798,0.07623l65.6-15.79s1.521-0.04892,2.005,1.468c0.0853-0.1206,0.1286-0.231,0.1183-0.3197-0.2366-2.199-3.546-2.236-3.546-2.236z" stroke="#4d5b87" stroke-width="1.13772357" fill="#97a7db"/><polygon opacity="0.6" transform="matrix(1.1377236,0,0,1.1377236,-18.067711,-21.412487)" points="116.8,83.1,116.8,83.98,170.8,70.21" fill="#FFF"/><path fill="url(#linearGradient3095)" d="m119.5,71.98,60.71-19.68s3.049-0.6496,3.324,2.088l0.1354,4.832-49.94,23-14.23-10.23z"/><path fill="#a57814" d="m119.5,71.98,60.71-19.68s3.049-0.6496,3.324,2.088l0.1354,4.832-49.94,23-14.23-10.23z"/><path fill="#FFF" d="m124.2,74.16,57.4-18.54s5.521,3.253,27.17,1.775l-29.93,18.92-36.03,6.378-18.6-8.53z"/><polygon points="132,83.76,131.1,83.22,161,73.56" fill="url(#SVGID_12_)" transform="matrix(1.1377236,0,0,1.1377236,-18.067711,-21.412487)"/><polygon points="128,86.17,127.1,85.62,157,75.97" fill="url(#SVGID_13_)" transform="matrix(1.1377236,0,0,1.1377236,-18.067711,-21.412487)"/><polygon points="139.3,83.88,138.4,83.33,168.3,73.68" fill="url(#SVGID_14_)" transform="matrix(1.1377236,0,0,1.1377236,-18.067711,-21.412487)"/><path d="m150.9,73.57s2.121-2.981,5.379-1.576l64.4-19.95s2.056-0.2071,2.297,2.194l6.986,152.6s-0.6838,3.528-3.25,5.515l-53.67,41.02s-2.465-0.4448-3.699,1.064l-18.6-180.8z" stroke="#7c591a" stroke-width="2.27544713" fill="url(#linearGradient3087)"/><path opacity="0.6" d="m156.2,72c-0.8942-0.3834-1.693-0.4335-2.394-0.3106,0.4266-0.07281,0.8965-0.08078,1.397,0.01138l-0.0193,0.1866,17.54,180.9c0.3709-0.0364,0.7031-0.0262,0.942-0.009l0.1547-0.1138-17.52-180.7-0.1001,0.03072z" fill="#FFF"/><path fill="#aebdc0" d="m155.2,71.7c-2.682-0.4972-4.383,1.875-4.383,1.875l18.5,180.8c1.014-1.239,2.855-1.162,3.484-1.092l-17.59-181.4,0.0193-0.1866z"/><path d="m120.6,72.51,19.73,179.7s-0.0239,3.24,6.707,3.641l18.06,1.581s6.135,0.083,6.393-2.65l-18.5-181.2s-14.39,1.729-32.39-1.073z" stroke="#7c591a" stroke-width="2.27544713" fill="#d59f0f"/><path fill="#aebdc0" d="m165.1,255-18.06-1.578c-6.73-0.4039-6.707-3.643-6.707-3.643l-19.4-177c-0.801-0.2856-1.332-0.6405-1.478-1.089l19.73,179.7s-0.0239,3.24,6.707,3.641l18.06,1.581s6.111,0.0831,6.392-2.634c-1.853,1.082-5.208,1.042-5.208,1.042z"/><path opacity="0.6" d="m151.8,72.78s-23.24,2.183-30.37,0.1946c3.39,2.71,24.58,1.143,30.46,0.6519l-0.0865-0.8465z" fill="#FFF"/><path d="m219.2,51.05-55.54,17.39-6.891,2.157c-2.49-1.175-5.31,0.6883-5.31,0.6883-3.21,1.114-24.72,1.212-24.72,1.212-3.822-0.2526-1.39-1.283-1.39-1.283l53.13-17.66c1.932-0.5916,3.568-0.5108,4.72-0.2867-0.876-1.409-2.965-0.9693-2.965-0.9693l-60.66,19.67c0.0273,0.03868,0.0535,0.07737,0.0899,0.1149l0.6735,0.4881c5.012,2.538,28.69,0.4767,31.27,0.2446,0.8578-0.7498,2.432-1.662,4.47-0.876,0.0626,0.02389,0.1183,0.03982,0.1832,0.06599l64.4-19.96s1.519-0.1479,2.099,1.336c0.0762-0.1263,0.1104-0.2366,0.0956-0.3254-0.3754-2.178-3.681-2.005-3.681-2.005z" stroke="#7c591a" stroke-width="1.13772357" fill="#f7c148"/><polygon opacity="0.6" transform="matrix(1.1377236,0,0,1.1377236,-18.067711,-21.412487)" points="153,82.04,153,82.94,206,65.73" fill="#FFF"/><path fill="#FFF" d="m216.3,88.4c0.2685,4.092-2.553,8.437-6.3,9.704l-33.27,11.22c-3.744,1.265-6.999-1.028-7.27-5.121l-0.512-7.833c-0.2685-4.092,2.552-8.434,6.3-9.699l33.27-11.23c3.747-1.262,6.999,1.031,7.27,5.124l0.512,7.83z"/><path opacity="0.6" d="m174.8,88.22,33.27-11.23c3.747-1.264,7.002,1.031,7.272,5.122l0.5097,7.832c0.0614,0.9079-0.041,1.827-0.2628,2.725,0.5802-1.36,0.876-2.833,0.7828-4.277l-0.512-7.83c-0.2696-4.094-3.524-6.386-7.27-5.124l-33.3,11.24c-2.915,0.9864-5.263,3.832-6.039,6.975,1.063-2.495,3.095-4.604,5.52-5.424z" fill="#CCC"/>
</svg>
