<?xml version="1.0" encoding="UTF-8" standalone="no"?>
<!-- Generator: Adobe Illustrator 13.0.2, SVG Export Plug-In  -->
<svg xmlns:rdf="http://www.w3.org/1999/02/22-rdf-syntax-ns#" xmlns="http://www.w3.org/2000/svg" enable-background="new -0.476 -0.641 215 159" xml:space="preserve" height="219" width="219" version="1.1" y="0px" x="0px" xmlns:cc="http://creativecommons.org/ns#" xmlns:xlink="http://www.w3.org/1999/xlink" viewBox="-0.476 -0.641 219 219" xmlns:dc="http://purl.org/dc/elements/1.1/"><metadata><rdf:RDF><cc:Work rdf:about=""><dc:format>image/svg+xml</dc:format><dc:type rdf:resource="http://purl.org/dc/dcmitype/StillImage"/><dc:title/></cc:Work></rdf:RDF></metadata><defs><linearGradient id="linearGradient4198" y2="111.4" gradientUnits="userSpaceOnUse" x2="185.3" gradientTransform="translate(0.26558502,-1.5935101)" y1="86.52" x1="23.78"><stop stop-color="#FFF" offset="0"/><stop stop-color="#d6d6d6" offset="0.3623"/><stop stop-color="#8d8d8d" offset="0.4581"/><stop stop-color="#FFF" offset="0.5208"/><stop stop-color="#d6d6d6" offset="0.8295"/><stop stop-color="#acacac" offset="1"/></linearGradient><linearGradient id="linearGradient4216" y2="45.32" gradientUnits="userSpaceOnUse" x2="115.5" gradientTransform="translate(-2,0)" y1="66.44" x1="138.4"><stop stop-color="#d59f0f" offset="0"/><stop stop-color="#d59f0f" stop-opacity="0" offset="1"/></linearGradient><filter id="filter3874"><feGaussianBlur stdDeviation="1.8694484"/></filter></defs><path d="m213.5,53.28-3.922-0.3265-13.4,126.2s-53.93-26.15-86.94-2.288l-27.78-0.9805s-33.66-34.64-73.54-7.354l-2.615,6.863s46.41-17.16,76.15,6.048h28.76s30.72-20.92,88.24,3.267h3.268l11.7-131.4z" fill-opacity="0.50196081000000004" filter="url(#filter3874)" fill="#000"/><path d="m41.04,141.5s41.29-5.396,60.09,23.08" display="none" stroke="#7c7c7c" stroke-width="2" fill="none"/><path d="m44.96,133.3s43.37-1.497,55.21,19.87" display="none" stroke="#7c7c7c" stroke-width="2" fill="none"/><path d="m51.88,125.2s42.45,1.495,47.37,17.1" display="none" stroke="#7c7c7c" stroke-width="2" fill="none"/><path d="m58.19,117.9s33.83,1.924,41.98,15.39" display="none" stroke="#7c7c7c" stroke-width="2" fill="none"/><path d="m63.42,111.9s25.99,0.215,35.99,13.04" display="none" stroke="#7c7c7c" stroke-width="2" fill="none"/><path d="m171.3,132.3s-41.48,0.16-58.21,31.02" display="none" stroke="#7c7c7c" stroke-width="2" fill="none"/><path d="m166.9,124.7s-43.27,4.319-53.57,27.17" display="none" stroke="#7c7c7c" stroke-width="2" fill="none"/><path fill="#3f3f3f" display="none" d="m166.3,121.4-17.69-19.29s-34.91,3.633-40.14,25.22l0.615,25.32c0.001,0,12.46-27.41,57.21-31.25z"/><path d="m159.5,117.6s-42.14,7.173-45.96,23.36" display="none" stroke="#FFF" stroke-width="3" fill="none"/><path d="m152.7,111.2s-33.54,6.445-40.72,20.94" display="none" stroke="#FFF" stroke-width="3" fill="none"/><path d="m147.1,106s-25.85,3.693-34.92,17.79" display="none" stroke="#FFF" stroke-width="3" fill="none"/><path d="m159.4,117.5s-42.14,7.173-45.96,23.36" display="none" stroke="#b38708" stroke-width="2" fill="none"/><path d="m152.6,111.1s-33.54,6.444-40.72,20.94" display="none" stroke="#b38708" stroke-width="2" fill="none"/><path d="m147,105.9s-25.86,3.694-34.92,17.8" display="none" stroke="#b38708" stroke-width="2" fill="none"/><path d="m209.5,49.28-3.922-0.3265-13.4,126.2s-53.93-26.15-86.94-2.288l-27.78-0.9805s-33.66-34.64-73.54-7.354l-2.615,6.863s46.41-17.16,76.15,6.048h28.76s30.72-20.92,88.24,3.267h3.268l11.7-131.4z" stroke="#0c0c0c" stroke-width="0.98048186" fill="#820024"/><path d="m27.36,36.58s39.87-25.49,82.03,0.654c0,0,47.72-21.57,88.9-4.248l-14.7,129.4s-52.95-23.2-91.84,6.863c0,0-46.08-34.64-87.92-8.824l23.52-123.9z" stroke="#0c0c0c" stroke-width="0.98048186" fill="url(#linearGradient4198)"/><path d="M108.5,36.66,91.64,168.4,110.1,36.82z"/><g transform="translate(0.40648994,0)"><polygon transform="matrix(0.98048184,0,0,0.98048184,0.43203853,26.541366)" stroke="#0c0c0c" points="201.9,8.694,209.5,21.19,195.5,151.5,186.5,140.2" fill="#686868"/><line stroke-width="0.9805" x1="200.2" y1="38.42" stroke="#000" x2="185.6" y2="166.6" fill="none"/><line stroke-width="0.9805" x1="202.1" y1="41.44" stroke="#000" x2="187.6" y2="170" fill="none"/><line stroke-width="0.9805" x1="204.2" y1="44.22" stroke="#000" x2="189.7" y2="172.8" fill="none"/></g><g stroke-width="0.98048186" transform="translate(2,0)"><path stroke-linejoin="miter" style="enable-background:accumulate;color:#000000;" d="m5.524,167.3s19.79-8.143,37.79-6.607c17.99,1.536,33.32,10.53,33.32,10.53l13.42,1.428s-14.11-13.12-34.23-18.43c-15.8-4.169-20.74-4.389-34.01-1.207-15.14,3.63-20.08,8.338-20.08,8.338z" fill-rule="nonzero" stroke-dashoffset="0" stroke="#0c0c0c" stroke-linecap="butt" stroke-miterlimit="4" stroke-dasharray="none" fill="#a8a8a8"/><path d="m90.33,172.3,14.87,0.4883s27.7-19.94,80.73,1.145l5.638,1.471-8.252-11.44s-52.29-22.39-92.98,8.336z" stroke="#0c0c0c" fill="#a8a8a8"/><path d="m94.26,172.3s31.7-26.96,90.86-5.72" stroke="#000" fill="none"/><path d="m98.26,172.5s29.05-24.27,88.65-3.472" stroke="#000" fill="none"/><path d="m102.3,172.8s27.29-22.23,86.61-0.8177" stroke="#000" fill="none"/><path d="m88.37,172.2s-43.3-32.85-84.16-8.824" stroke="#000" fill="none"/><path d="m84.12,171.8s-39.38-29.58-78.93-7.518" stroke="#000" fill="none"/><path d="m80.37,171.7s-33.34-25.49-74.52-6.208" stroke="#000" fill="none"/></g><g stroke="#0c0c0c" stroke-width="1.96096373" fill="none"><path d="m31.34,53.04s29.09-17.32,67,0.9805"/><path d="m29.71,70.36s28.11-16.67,66.02,1.634"/><path d="m27.06,88.15s28.36-16.23,65.99,2.657"/><path d="m23.79,106.8s28.36-16.24,65.99,2.64"/><path d="m20.14,125.8s28.82-15.4,65.88,4.577"/><path d="m17.53,143.7s28.82-15.4,65.88,4.579"/></g><path fill="url(#linearGradient4216)" d="m113.9,45.69-9.806,76.64s42.65-16.01,75.99-0.8158l8.824-77.21s-33.58-17.16-75.01,1.39z"/><g stroke="#0c0c0c" stroke-width="1.96096373" fill="none" transform="translate(-2,0)"><path d="m116.3,71.34s36.93-13.4,64.39-2.614"/><path d="m113.7,90.3s36.93-13.4,64.39-2.614"/><path d="m111.7,110.2s36.93-13.4,64.39-2.615"/><path d="m118.6,53.04s36.93-13.4,64.39-2.615"/><path d="m109.1,128.9s36.93-13.4,64.38-2.614"/><path d="m106.5,147.5s36.93-13.4,64.38-2.614"/></g></svg>
