<?xml version="1.0"?>
<?metis version="3.3"?>
<?metisxml version="1.1"?>
<!DOCTYPE svg  PUBLIC "-//W3C//DTD SVG August 1999//EN"
 "http://www.w3.org/Graphics/SVG/svg-19990812.dtd">

<svg width="200" height="200">
 <title>Symbol library: kpi.svg</title>
 <defs>
  <symbol id="oid1" xml:space="preserve" class="METIS_SYMBOL">
   <title>KPI</title>
    <g>
      <polygon points="0 0 0 304 16 320 
       880 320 880 16 864 0 0 0 
       0 0 0 0 0 0 0 0 
       0 0 0 0 "
       style=" stroke:#000000; stroke-width:1; fill:#9b9b9b; fill-opacity:100%"       class="TAG:shadow"></polygon>
      <rect x="0" y="0" width="240" height="304"
       style=" stroke:#000000; stroke-width:1; fill:#ffff6e; fill-opacity:100%"       class="TAG:PictureBackground"></rect>
      <rect x="240" y="224" width="624" height="80"
       style=" stroke:#000000; stroke-width:1; fill:#dcdcdc; fill-opacity:100%"       class="TAG:PropertyBackground"></rect>
      <rect x="240" y="0" width="624" height="224"
       style=" stroke:#000000; stroke-width:1; fill:#ff8c8c; fill-opacity:100%"       class="TAG:canvas"></rect>
      <g>
	<desc>METIS_TEXT_GROUP</desc>
	<text  x="256" y="15"
	 style=" stroke:#000000; stroke-width:1; font-family:sans-serif; font-size:16;"
	 class="TAG:text">text</text>
	<rect x="256" y="0" width="608" height="224"
	 style=" stroke:#000000; stroke-width:1; fill:#ffffff; fill-opacity:0%"></rect>
      </g>
      <polyline points="864 304 880 320"
       style=" stroke:#000000; stroke-width:1;"></polyline>
      <g>
	<desc>METIS_TEXT_GROUP</desc>
	<text  x="560" y="236"
	 style=" stroke:#000000; stroke-width:1; font-family:sans-serif; font-size:13;"
	 class="TAG:actual_value">actual_value</text>
	<rect x="560" y="224" width="304" height="80"
	 style=" stroke:#000000; stroke-width:1; fill:#ffffff; fill-opacity:0%"></rect>
      </g>
      <g>
	<desc>METIS_TEXT_GROUP</desc>
	<text  x="256" y="236"
	 style=" stroke:#000000; stroke-width:1; font-family:sans-serif; font-size:13;"
	 class="TAG:strat_value">strat_value</text>
	<rect x="256" y="224" width="304" height="80"
	 style=" stroke:#000000; stroke-width:1; fill:#ffffff; fill-opacity:0%"></rect>
      </g>
      <g>
	<polygon points="20.5882 85.12 16 18.88 20.5882 16 
	 38.9412 16 38.9412 50.56 75.647 16 94 16 
	 57.2941 50.56 94 85.12 89.4118 88 75.647 85.12 
	 48.1177 56.32 38.9412 62.08 38.9412 85.12 38.9412 85.12 
	 34.353 88 20.5882 85.12 20.5882 85.12 20.5882 85.12 
	 20.5882 85.12 20.5882 85.12 20.5882 85.12 20.5882 85.12 
	 20.5882 85.12 20.5882 85.12 "
	 style=" stroke:#000000; stroke-width:1; fill:#b9b9b9; fill-opacity:100%"></polygon>
	<polygon points="16 88 16 18.88 34.353 18.88 
	 34.353 53.44 71.0589 18.88 89.4118 18.88 52.7059 53.44 
	 89.4118 88 71.0589 88 43.5294 59.2 34.353 64.96 
	 34.353 88 34.353 88 16 88 16 88 
	 16 88 16 88 16 88 16 88 
	 16 88 16 88 16 88 "
	 style=" stroke:#000000; stroke-width:1; fill:#007af4; fill-opacity:100%"></polygon>
      </g>
      <g>
	<polygon points="100.588 181.12 96 114.88 100.588 112 
	 155.648 112 174 123.52 174 135.04 155.648 146.56 
	 118.941 146.56 118.941 181.12 114.353 184 100.588 181.12 
	 100.588 181.12 100.588 181.12 100.588 181.12 100.588 181.12 
	 100.588 181.12 100.588 181.12 100.588 181.12 100.588 181.12 "
	 style=" stroke:#000000; stroke-width:1; fill:#b9b9b9; fill-opacity:100%"></polygon>
	<polygon points="96 184 96 114.88 151.059 114.88 
	 169.411 126.4 169.411 137.92 151.059 149.44 114.353 149.44 
	 114.353 184 96 184 96 184 96 184 
	 96 184 96 184 96 184 96 184 
	 96 184 96 184 "
	 style=" stroke:#000000; stroke-width:1; fill:#007af4; fill-opacity:100%"></polygon>
	<polygon points="114.353 126.4 114.353 137.92 141.882 137.92 
	 151.059 132.16 141.882 126.4 114.353 126.4 114.353 126.4 
	 114.353 126.4 114.353 126.4 114.353 126.4 114.353 126.4 
	 114.353 126.4 114.353 126.4 114.353 126.4 "
	 style=" stroke:#000000; stroke-width:1; fill:#ffff6e; fill-opacity:100%"></polygon>
      </g>
      <g>
	<polygon points="182 192 206 192 206 261.12 
	 200 264 182 261.12 176 194.88 182 192 
	 182 192 182 192 182 192 182 192 
	 182 192 182 192 182 192 182 192 "
	 style=" stroke:#000000; stroke-width:1; fill:#b9b9b9; fill-opacity:100%"></polygon>
	<polygon points="176 194.88 200 194.88 200 264 
	 176 264 176 194.88 176 194.88 176 194.88 
	 176 194.88 176 194.88 176 194.88 176 194.88 
	 176 194.88 176 194.88 "
	 style=" stroke:#000000; stroke-width:1; fill:#007af4; fill-opacity:100%"></polygon>
      </g>
    </g>
  </symbol>
 </defs>
</svg>
