<?xml version="1.0" encoding="UTF-8" standalone="no"?>
<svg
   xmlns:dc="http://purl.org/dc/elements/1.1/"
   xmlns:cc="http://creativecommons.org/ns#"
   xmlns:rdf="http://www.w3.org/1999/02/22-rdf-syntax-ns#"
   xmlns:svg="http://www.w3.org/2000/svg"
   xmlns="http://www.w3.org/2000/svg"
   xmlns:xlink="http://www.w3.org/1999/xlink"
   xmlns:sodipodi="http://sodipodi.sourceforge.net/DTD/sodipodi-0.dtd"
   xmlns:inkscape="http://www.inkscape.org/namespaces/inkscape"
   version="1.1"
   xml:space="preserve"
   height="219"
   viewBox="-0.205 -0.769 219 219"
   width="219"
   enable-background="new -0.205 -0.769 206 211"
   y="0px"
   x="0px"
   id="svg2"
   inkscape:version="0.47 r22583"
   sodipodi:docname="laptop.svg"><sodipodi:namedview
   pagecolor="#ffffff"
   bordercolor="#666666"
   borderopacity="1"
   objecttolerance="10"
   gridtolerance="10"
   guidetolerance="10"
   inkscape:pageopacity="0"
   inkscape:pageshadow="2"
   inkscape:window-width="1280"
   inkscape:window-height="778"
   id="namedview218"
   showgrid="false"
   inkscape:zoom="2.4246575"
   inkscape:cx="109.5"
   inkscape:cy="109.5"
   inkscape:window-x="-8"
   inkscape:window-y="216"
   inkscape:window-maximized="1"
   inkscape:current-layer="svg2" />
	
	<metadata
   id="metadata4">
		<rdf:RDF>
		<cc:Work
   rdf:about="">
		<dc:format>image/svg+xml</dc:format>
		<dc:type
   rdf:resource="http://purl.org/dc/dcmitype/StillImage" />
		<dc:title />
		</cc:Work>
		</rdf:RDF>
	</metadata>
	
	<defs
   id="defs6"><inkscape:perspective
     sodipodi:type="inkscape:persp3d"
     inkscape:vp_x="0 : 109.5 : 1"
     inkscape:vp_y="0 : 1000 : 0"
     inkscape:vp_z="219 : 109.5 : 1"
     inkscape:persp3d-origin="109.5 : 73 : 1"
     id="perspective3912" /><linearGradient
     id="linearGradient4506"
     x1="75.5"
     gradientUnits="userSpaceOnUse"
     y1="69.099998"
     gradientTransform="matrix(1.0119674,0,0,1,2.0108277,1.7525866)"
     x2="161"
     y2="134"
     xlink:href="#linearGradient4603"><stop
   stop-color="#a5a5a5"
   offset="0"
   id="stop12" /><stop
   stop-color="#0e627b"
   offset="1"
   id="stop14" />
		</linearGradient><linearGradient
     id="linearGradient4590"
     x1="86.8"
     gradientUnits="userSpaceOnUse"
     y1="15.8"
     gradientTransform="translate(2.887923,1.3990332)"
     x2="162"
     y2="94.7"><stop
   stop-color="#CCC"
   offset="0"
   id="stop17" /><stop
   stop-color="#66b5f4"
   offset="1"
   id="stop19" />
		</linearGradient><linearGradient
     id="linearGradient4596"
     x1="62.775883"
     gradientUnits="userSpaceOnUse"
     y1="144.23224"
     gradientTransform="translate(2.887923,1.3990332)"
     x2="36.621319"
     y2="119.12753"><stop
   stop-color="#b7b7b7"
   offset="0"
   id="stop22" /><stop
   stop-color="#b7b7b7"
   stop-opacity="0"
   offset="1"
   id="stop24" />
		</linearGradient></defs>
	
	
	
	<path
   d="m 86.1,3.03 c 0,0 2.83,-1.91 4.9,-0.755 l 113,66.9 c 0,0 4.62,3.55 1.95,8.16 l -38.9,70.3 c 0,0 -2.42,1.9 -4.37,1.02"
   id="path38"
   style="fill:#7e7e7e;fill-opacity:1;stroke:none" />
	
	<path
   d="m 3.57,106 -0.175,2.99 c 0,0 -0.175,2.28 0.879,2.99 l 86.3,97 c 0,0 2.81,2.46 5.98,-0.702 6.31,-5.23 12.6,-10.4 18.9,-15.7 11.1,-9.18 22.2,-18.3 33.2,-27.5 2.27,-1.89 4.55,-3.76 6.83,-5.63 4.02,-3.3 8.11,-5.02 7.1,-11.1"
   id="baseSides"
   style="fill:#727272;fill-opacity:1;stroke:none" />
	
	<path
   d="m 4.45,105 63.1,-31.5 c 0,0 3.52,-1.23 4.92,0.176 l 88.4,71.7 c 0,0 4.22,3.34 -0.351,6.68 l -64.8,54.1 c 0,0 -2.11,2.29 -4.39,-0.175 l -43.4,-48.5 c 0,0 0.833,-0.482 0.527,-1.58 l -10.7,-12.1 c 0,0 -0.968,-0.614 -1.58,0.705 l -31.8,-36.4 c 0,0 -1.93,-1.93 0.175,-3.16 z"
   id="path42"
   style="fill:#e8e8e8;stroke:none" />
	
	<path
   d="m 36.1,132 19,-10.9 c 0,0 2.28,-1.4 3.87,0.175 l 23.4,22.5 c 0,0 1.76,2.11 -0.703,3.52 l -19.5,12.8 c 0,0 -1.76,1.76 -3.34,-0.354 l -23.2,-25 c 10e-4,10e-4 -2.11,-1.76 0.528,-2.81 z"
   id="path44"
   style="fill:url(#linearGradient4596);stroke:none" />
	
	<path
   style="fill:#282828;stroke:none"
   d="m 77.49518,82.139706 c 1.128016,-2.23431 3.168551,-0.41562 4.340803,0.669954 22.577467,18.47417 45.154927,36.94835 67.732397,55.42252 -1.64363,1.41387 -2.65094,2.36796 -4.16513,0.36947 -22.64611,-18.80337 -45.29222,-37.60673 -67.938336,-56.410098 l 0.03027,-0.05185 z"
   id="path46" />
	
	
	
	<path
   d="M 72.3,70.3 84.4,7 c 0,0 0.152,-7.21 6.33,-2.81 l 112,66.1 c 0,0 5.98,3.16 -1.05,11.8 l -35.5,64.5 c 0,0 -0.879,1.4 -3.16,2.11 l -91,-74.5 c 0,-0.001 -10e-4,-1.93 0.703,-3.87 z"
   id="path50"
   style="fill:#282828;stroke:none" />
	
	<path
   d="m 76.2,69 12,-58 c 0,0 0.614,-2.55 2.99,-0.878 l 102,61.9 c 0,0 4.83,2.64 1.93,7.73 l -30.6,57.5 c 0,0 -1.4,4.74 -4.39,1.4 l -81.2,-65 c 0,0 -3.52,-2.46 -2.64,-4.57 z"
   id="path52"
   style="fill:url(#linearGradient4590);stroke:none" />
	
	<path
   d="M 44.7,96.4 71.9,82.3 c 0,0 1.93,-1.05 4.22,1.23 l 68.9,56.9 c 0,0 3.34,2.28 -0.703,5.27 l -26.2,20.2 c 0,0 -2.46,2.28 -6.15,-1.58 l -67.8,-64.7 c 0,0 -2.64,-1.93 0.528,-3.34 z"
   id="path56"
   style="fill:#333333;fill-opacity:1;stroke:none" />
	
	
	
	
	
	
	
	
	
	
	
	
	
	
	
	
	
	
	
	
	
	
	
	
	
	
	
	
	
	
	
	
	
	
	
	
	
	
	
	
	
	
	
	
	
	
	
	
	
	
	
	
	
	
	
	
	
	
	
	
	
	
	
	
	
	
	
	
	
	
	
	
	
	
	
	
	
	
	
	
	
	
	
	
	
	
	
	
	
	
	
	
	
	
	
	
	
	
	
	
	
	
	
	
	
	
	
	
	
	
	
	
	
	
	
	
	
	
	
	
	
	
	
	
	
	
	
	
	
	
	
	
	
	
	
	
	
	
	
	
	
	
	
	
	
	
	
	
	
	
	
	
	
	
	
	
	
	<g
   id="powerbutton"><path
     style="fill:#1a1a1a;stroke:none"
     d="m 158.87785,149.39903 c 0,1.09901 -0.89092,1.98993 -1.98993,1.98993 -1.099,0 -1.98992,-0.89092 -1.98992,-1.98993 0,-1.099 0.89092,-1.98992 1.98992,-1.98992 1.09901,0 1.98993,0.89092 1.98993,1.98992 z"
     id="path3800" /><path
     id="circle48"
     d="m 158.66957,149.40791 c 0,0.98307 -0.79693,1.78 -1.78,1.78 -0.98307,0 -1.78,-0.79693 -1.78,-1.78 0,-0.98307 0.79693,-1.78 1.78,-1.78 0.98307,0 1.78,0.79693 1.78,1.78 z"
     style="fill:#b7b7b7;stroke:none" /><path
     id="path214"
     d="m 158.1602,149.41432 c 0.042,-0.0572 0.12058,-0.0864 0.0922,0.0156 -0.0211,0.3919 -0.17448,0.78145 -0.43817,1.07358 -0.23373,0.24094 -0.56271,0.3725 -0.89063,0.42065 -0.50802,0.0739 -1.05222,-0.12254 -1.37402,-0.52748 -0.24707,-0.30095 -0.34549,-0.70371 -0.32918,-1.0876 0.004,-0.0448 0.0185,-0.14077 0.0102,-0.0429 0.0357,0.23291 0.19324,0.42701 0.35478,0.58948 0.31039,0.30596 0.76647,0.46034 1.19772,0.38272 0.54145,-0.0925 0.99579,-0.44435 1.37217,-0.82602 l 0.005,0.002 z"
     style="fill:#727272" /></g>
	
	<path
   d="m 195.41002,79.953553 -1.94297,3.92 -28.73988,53.199997 c 0,0 -1.40663,4.7 -4.39194,1.4 L 79.074249,73.973553 c 0,0 -3.734159,-2.52 -2.722192,-4.86 1.011967,-2.34 76.808323,59.199997 119.412153,10.8 z"
   id="path216"
   style="fill:url(#linearGradient4506);fill-opacity:1;stroke:none" />
	
</svg>