<?xml version="1.0"?>
<?metis version="3.6"?>
<?metisxml version="1.1"?>
<!DOCTYPE svg  PUBLIC "-//W3C//DTD SVG August 1999//EN"
 "http://www.w3.org/Graphics/SVG/svg-19990812.dtd">

<svg width="200" height="200">
 <title>Symbol library: legend_symbols.svg</title>
 <defs>
  <symbol id="oid1" xml:space="preserve" class="METIS_SYMBOL">
   <title>Big Green Dot</title>
    <polygon points="200.051 0 194.882 0 189.714 0.166069 
     184.546 0.500209 179.545 1.00042 174.544 1.50063 169.543 2.1669 
     164.542 3.00025 159.707 4.00067 154.873 5.00109 150.038 6.16757 
     145.203 7.50213 140.536 8.83569 135.868 10.5024 131.2 12.003 
     122.031 15.6705 113.195 19.6712 104.693 24.006 96.1911 28.84 
     88.1888 34.0082 80.3535 39.6766 72.6853 45.6781 65.5163 51.8466 
     58.5144 58.5144 51.8466 65.5163 45.6781 72.6843 39.6766 80.3535 
     34.0082 88.1888 28.841 96.1901 24.006 104.693 19.6712 113.195 
     15.6705 122.031 12.003 131.2 10.5024 135.868 8.83569 140.535 
     7.50213 145.203 6.16857 150.038 5.00109 154.872 4.00067 159.707 
     3.00125 164.541 2.1669 169.543 1.50063 174.544 1.00042 179.545 
     0.500209 184.546 0.16707 189.714 0 194.882 0 200.051 
     0 205.218 0.16707 210.219 0.500209 215.387 1.00042 220.388 
     1.50063 225.39 2.1669 230.391 3.00125 235.392 4.00067 240.226 
     5.00109 245.228 6.16857 250.062 7.50213 254.73 8.83569 259.398 
     10.5024 264.066 12.003 268.734 15.6705 277.903 19.6712 286.739 
     24.006 295.407 28.841 303.743 34.0082 311.911 39.6766 319.746 
     45.6781 327.249 51.8466 334.417 58.5144 341.419 65.5163 348.087 
     72.6853 354.422 80.3535 360.256 88.1888 365.925 96.1911 371.093 
     104.693 375.928 113.195 380.262 122.031 384.262 131.2 387.931 
     135.868 389.431 140.536 391.098 145.203 392.432 150.038 393.765 
     154.873 394.932 159.707 395.932 164.542 396.933 169.543 397.766 
     174.544 398.433 179.545 398.934 184.546 399.434 189.714 399.767 
     194.882 399.934 200.051 400.1 205.218 399.934 210.22 399.767 
     215.387 399.434 220.389 398.934 225.39 398.433 230.391 397.766 
     235.392 396.933 240.227 395.932 245.228 394.932 250.062 393.765 
     254.73 392.432 259.398 391.098 264.066 389.431 268.734 387.931 
     277.903 384.262 286.739 380.262 295.407 375.928 303.743 371.093 
     311.911 365.925 319.746 360.256 327.249 354.422 334.418 348.087 
     341.419 341.419 348.087 334.417 354.422 327.249 360.257 319.746 
     365.925 311.911 371.093 303.743 375.928 295.407 380.262 286.739 
     384.263 277.903 387.931 268.734 389.431 264.066 391.098 259.398 
     392.432 254.73 393.765 250.062 394.933 245.228 395.932 240.226 
     396.933 235.392 397.766 230.391 398.433 225.39 398.934 220.388 
     399.434 215.387 399.767 210.219 399.934 205.218 400.1 200.051 
     399.934 194.882 399.767 189.714 399.434 184.546 398.934 179.545 
     398.433 174.544 397.766 169.543 396.933 164.541 395.932 159.707 
     394.933 154.872 393.765 150.038 392.432 145.203 391.098 140.535 
     389.431 135.868 387.931 131.2 384.263 122.031 380.262 113.195 
     375.928 104.693 371.093 96.1901 365.925 88.1888 360.257 80.3535 
     354.422 72.6843 348.087 65.5163 341.419 58.5144 334.418 51.8466 
     327.249 45.6781 319.746 39.6766 311.911 34.0082 303.743 28.84 
     295.407 24.006 286.739 19.6712 277.903 15.6705 268.734 12.003 
     264.066 10.5024 259.398 8.83569 254.73 7.50213 250.062 6.16757 
     245.228 5.00109 240.227 4.00067 235.392 3.00025 230.391 2.1669 
     225.39 1.50063 220.389 1.00042 215.387 0.500209 210.22 0.166069 
     205.218 0 200.051 0 200.051 0 200.051 0 
     200.051 0 200.051 0 200.051 0 200.051 0 
     200.051 0 200.051 0 200.051 0 200.051 0 
     200.051 0 200.051 0 "
     style="stroke:none; fill:#00cc66; fill-opacity:100%"     class="TAG:canvas"></polygon>
    <polyline points="200.051 0 194.882 0 189.714 0.166069 
     184.546 0.500209 179.545 1.00042 174.544 1.50063 169.543 2.1669 
     164.542 3.00025 159.707 4.00067 154.873 5.00109 150.038 6.16757 
     145.203 7.50213 140.536 8.83569 135.868 10.5024 131.2 12.003 
     122.031 15.6705 113.195 19.6712 104.693 24.006 96.1911 28.84 
     88.1888 34.0082 80.3535 39.6766 72.6853 45.6781 65.5163 51.8466 
     58.5144 58.5144 51.8466 65.5163 45.6781 72.6843 39.6766 80.3535 
     34.0082 88.1888 28.841 96.1901 24.006 104.693 19.6712 113.195 
     15.6705 122.031 12.003 131.2 10.5024 135.868 8.83569 140.535 
     7.50213 145.203 6.16857 150.038 5.00109 154.872 4.00067 159.707 
     3.00125 164.541 2.1669 169.543 1.50063 174.544 1.00042 179.545 
     0.500209 184.546 0.16707 189.714 0 194.882 0 200.051 
     0 205.218 0.16707 210.219 0.500209 215.387 1.00042 220.388 
     1.50063 225.39 2.1669 230.391 3.00125 235.392 4.00067 240.226 
     5.00109 245.228 6.16857 250.062 7.50213 254.73 8.83569 259.398 
     10.5024 264.066 12.003 268.734 15.6705 277.903 19.6712 286.739 
     24.006 295.407 28.841 303.743 34.0082 311.911 39.6766 319.746 
     45.6781 327.249 51.8466 334.417 58.5144 341.419 65.5163 348.087 
     72.6853 354.422 80.3535 360.256 88.1888 365.925 96.1911 371.093 
     104.693 375.928 113.195 380.262 122.031 384.262 131.2 387.931 
     135.868 389.431 140.536 391.098 145.203 392.432 150.038 393.765 
     154.873 394.932 159.707 395.932 164.542 396.933 169.543 397.766 
     174.544 398.433 179.545 398.934 184.546 399.434 189.714 399.767 
     194.882 399.934 200.051 400.1 205.218 399.934 210.22 399.767 
     215.387 399.434 220.389 398.934 225.39 398.433 230.391 397.766 
     235.392 396.933 240.227 395.932 245.228 394.932 250.062 393.765 
     254.73 392.432 259.398 391.098 264.066 389.431 268.734 387.931 
     277.903 384.262 286.739 380.262 295.407 375.928 303.743 371.093 
     311.911 365.925 319.746 360.256 327.249 354.422 334.418 348.087 
     341.419 341.419 348.087 334.417 354.422 327.249 360.257 319.746 
     365.925 311.911 371.093 303.743 375.928 295.407 380.262 286.739 
     384.263 277.903 387.931 268.734 389.431 264.066 391.098 259.398 
     392.432 254.73 393.765 250.062 394.933 245.228 395.932 240.226 
     396.933 235.392 397.766 230.391 398.433 225.39 398.934 220.388 
     399.434 215.387 399.767 210.219 399.934 205.218 400.1 200.051 
     399.934 194.882 399.767 189.714 399.434 184.546 398.934 179.545 
     398.433 174.544 397.766 169.543 396.933 164.541 395.932 159.707 
     394.933 154.872 393.765 150.038 392.432 145.203 391.098 140.535 
     389.431 135.868 387.931 131.2 384.263 122.031 380.262 113.195 
     375.928 104.693 371.093 96.1901 365.925 88.1888 360.257 80.3535 
     354.422 72.6843 348.087 65.5163 341.419 58.5144 334.418 51.8466 
     327.249 45.6781 319.746 39.6766 311.911 34.0082 303.743 28.84 
     295.407 24.006 286.739 19.6712 277.903 15.6705 268.734 12.003 
     264.066 10.5024 259.398 8.83569 254.73 7.50213 250.062 6.16757 
     245.228 5.00109 240.227 4.00067 235.392 3.00025 230.391 2.1669 
     225.39 1.50063 220.389 1.00042 215.387 0.500209 210.22 0.166069 
     205.218 0 200.051 0"
     style=" stroke:#000000; stroke-width:1;"></polyline>
  </symbol>
  <symbol id="oid2" xml:space="preserve" class="METIS_SYMBOL">
   <title>Blue Up Arrow</title>
    <polygon points="0 400.1 200.051 0 400.1 400.1 
     0 400.1 0 400.1 0 400.1 0 400.1 
     0 400.1 0 400.1 0 400.1 0 400.1 
     0 400.1 0 400.1 0 400.1 0 400.1 0 400.1 "
     style="stroke:none; fill:#0000ff; fill-opacity:100%"     class="TAG:canvas"></polygon>
    <polygon points="0 400.1 200.051 0 400.1 400.1 
     0 400.1 0 400.1 0 400.1 0 400.1 
     0 400.1 0 400.1 0 400.1 0 400.1 
     0 400.1 0 400.1 0 400.1 0 400.1 0 400.1 "
     style=" stroke:#000000; stroke-width:1; fill:#000000; fill-opacity:0%"></polygon>
  </symbol>
  <symbol id="oid3" xml:space="preserve" class="METIS_SYMBOL">
   <title>Grey Slanted Hyphen</title>
    <polygon points="0 241.727 400.1 400.1 400.1 158.373 
     0 0 0 241.727 0 241.727 0 241.727 
     0 241.727 0 241.727 0 241.727 0 241.727 
     0 241.727 0 241.727 0 241.727 0 241.727 0 241.727 "
     style="stroke:none; fill:#c0c0c0; fill-opacity:100%"     class="TAG:canvas"></polygon>
    <polygon points="0 241.727 400.1 400.1 400.1 158.373 
     0 0 0 241.727 0 241.727 0 241.727 
     0 241.727 0 241.727 0 241.727 0 241.727 
     0 241.727 0 241.727 0 241.727 0 241.727 0 241.727 "
     style=" stroke:#000000; stroke-width:1; fill:#000000; fill-opacity:0%"     class="TAG:canvas"></polygon>
  </symbol>
  <symbol id="oid4" xml:space="preserve" class="METIS_SYMBOL">
   <title>Brown O</title>
    <g>
      <polygon points="0 200.051 0 194.882 0.16707 189.714 
       0.500209 184.546 1.00042 179.545 1.50063 174.544 2.1669 169.543 
       3.00125 164.541 4.00067 159.707 5.00109 154.872 6.16857 150.038 
       7.50213 145.203 8.83569 140.535 10.5024 135.868 12.003 131.2 
       15.6705 122.031 19.6712 113.195 24.006 104.693 28.841 96.1901 
       34.0082 88.1888 39.6766 80.3535 45.6781 72.6843 51.8466 65.5163 
       58.5144 58.5144 65.5163 51.8466 72.6853 45.6781 80.3535 39.6766 
       88.1888 34.0082 96.1911 28.84 104.693 24.006 113.195 19.6712 
       122.031 15.6705 131.2 12.003 135.868 10.5024 140.536 8.83569 
       145.203 7.50213 150.038 6.16757 154.873 5.00109 159.707 4.00067 
       164.542 3.00025 169.543 2.1669 174.544 1.50063 179.545 1.00042 
       184.546 0.500209 189.714 0.166069 194.882 0 200.051 0 
       205.218 0 210.22 0.166069 215.387 0.500209 220.389 1.00042 
       225.39 1.50063 230.391 2.1669 235.392 3.00025 240.227 4.00067 
       245.228 5.00109 250.062 6.16757 254.73 7.50213 259.398 8.83569 
       264.066 10.5024 268.734 12.003 277.903 15.6705 286.739 19.6712 
       295.407 24.006 303.743 28.84 311.911 34.0082 319.746 39.6766 
       327.249 45.6781 334.418 51.8466 341.419 58.5144 348.087 65.5163 
       354.422 72.6843 360.257 80.3535 365.925 88.1888 371.093 96.1901 
       375.928 104.693 380.262 113.195 384.263 122.031 387.931 131.2 
       389.431 135.868 391.098 140.535 392.432 145.203 393.765 150.038 
       394.933 154.872 395.932 159.707 396.933 164.541 397.766 169.543 
       398.433 174.544 398.934 179.545 399.434 184.546 399.767 189.714 
       399.934 194.882 400.1 200.051 399.934 205.218 399.767 210.219 
       399.434 215.387 398.934 220.388 398.433 225.39 397.766 230.391 
       396.933 235.392 395.932 240.226 394.933 245.228 393.765 250.062 
       392.432 254.73 391.098 259.398 389.431 264.066 387.931 268.734 
       384.263 277.903 380.262 286.739 375.928 295.407 371.093 303.743 
       365.925 311.911 360.257 319.746 354.422 327.249 348.087 334.417 
       341.419 341.419 334.418 348.087 327.249 354.422 319.746 360.256 
       311.911 365.925 303.743 371.093 295.407 375.928 286.739 380.262 
       277.903 384.262 268.734 387.931 264.066 389.431 259.398 391.098 
       254.73 392.432 250.062 393.765 245.228 394.932 240.227 395.932 
       235.392 396.933 230.391 397.766 225.39 398.433 220.389 398.934 
       215.387 399.434 210.22 399.767 205.218 399.934 200.051 400.1 
       194.882 399.934 189.714 399.767 184.546 399.434 179.545 398.934 
       174.544 398.433 169.543 397.766 164.542 396.933 159.707 395.932 
       154.873 394.932 150.038 393.765 145.203 392.432 140.536 391.098 
       135.868 389.431 131.2 387.931 122.031 384.262 113.195 380.262 
       104.693 375.928 96.1911 371.093 88.1888 365.925 80.3535 360.256 
       72.6853 354.422 65.5163 348.087 58.5144 341.419 51.8466 334.417 
       45.6781 327.249 39.6766 319.746 34.0082 311.911 28.841 303.743 
       24.006 295.407 19.6712 286.739 15.6705 277.903 12.003 268.734 
       10.5024 264.066 8.83569 259.398 7.50213 254.73 6.16857 250.062 
       5.00109 245.228 4.00067 240.226 3.00125 235.392 2.1669 230.391 
       1.50063 225.39 1.00042 220.388 0.500209 215.387 0.16707 210.219 
       0 205.218 0 200.051 0 200.051 0 200.051 
       0 200.051 0 200.051 0 200.051 0 200.051 
       0 200.051 0 200.051 0 200.051 0 200.051 
       0 200.051 0 200.051 0 200.051 "
       style="stroke:none; fill:#993300; fill-opacity:100%"       class="TAG:canvas"></polygon>
      <polygon points="99.9831 200.051 99.9831 202.552 99.9831 205.054 
       100.15 207.722 100.484 210.223 100.651 212.725 100.984 215.227 
       101.484 217.728 101.985 220.063 102.485 222.565 102.986 225.067 
       103.652 227.401 104.487 229.736 105.153 232.071 105.987 234.406 
       106.822 236.741 107.822 238.909 108.823 241.078 109.823 243.413 
       110.824 245.581 111.991 247.748 113.159 249.75 114.326 251.918 
       115.66 253.92 116.995 255.921 118.329 257.922 119.83 259.924 
       121.331 261.758 122.832 263.593 124.333 265.427 125.834 267.262 
       127.502 269.096 129.169 270.764 131.004 272.432 132.672 274.099 
       134.507 275.601 136.341 277.268 138.176 278.769 140.177 280.103 
       142.011 281.605 144.013 282.939 146.015 284.273 148.015 285.607 
       150.184 286.775 152.352 287.942 154.354 289.11 156.521 290.111 
       158.856 291.278 161.024 292.111 163.192 293.112 165.527 293.946 
       167.862 294.78 170.197 295.614 172.532 296.281 174.867 296.948 
       177.369 297.449 179.87 297.949 182.205 298.449 184.707 298.949 
       187.208 299.283 189.71 299.45 192.212 299.784 194.713 299.95 
       197.381 299.95 199.884 299.95 202.552 299.95 205.054 299.95 
       207.722 299.784 210.224 299.45 212.725 299.283 215.227 298.949 
       217.728 298.449 220.063 297.949 222.565 297.449 225.068 296.948 
       227.401 296.281 229.736 295.614 232.071 294.78 234.406 293.946 
       236.741 293.112 238.91 292.111 241.078 291.278 243.413 290.111 
       245.581 289.11 247.748 287.942 249.75 286.775 251.918 285.607 
       253.92 284.273 255.921 282.939 257.922 281.605 259.924 280.103 
       261.758 278.769 263.593 277.268 265.427 275.601 267.262 274.099 
       269.096 272.432 270.765 270.764 272.432 269.096 274.099 267.262 
       275.601 265.427 277.268 263.593 278.769 261.758 280.103 259.924 
       281.605 257.922 282.939 255.921 284.273 253.92 285.607 251.918 
       286.775 249.75 287.942 247.748 289.11 245.581 290.111 243.413 
       291.278 241.078 292.111 238.909 293.112 236.741 293.946 234.406 
       294.781 232.071 295.614 229.736 296.281 227.401 296.948 224.9 
       297.449 222.565 297.949 220.063 298.45 217.728 298.95 215.227 
       299.283 212.725 299.45 210.223 299.784 207.722 299.95 205.054 
       299.95 202.552 299.95 199.884 299.95 197.381 299.95 194.88 
       299.784 192.211 299.45 189.71 299.283 187.208 298.95 184.707 
       298.45 182.205 297.949 179.87 297.449 177.369 296.948 175.034 
       296.281 172.532 295.614 170.197 294.781 167.862 293.946 165.527 
       293.112 163.359 292.111 161.024 291.278 158.856 290.111 156.521 
       289.11 154.353 287.942 152.352 286.775 150.183 285.607 148.015 
       284.273 146.015 282.939 144.013 281.605 142.011 280.103 140.177 
       278.769 138.175 277.268 136.34 275.601 134.506 274.099 132.671 
       272.432 131.004 270.765 129.169 269.096 127.502 267.262 125.834 
       265.427 124.332 263.593 122.832 261.758 121.331 259.924 119.83 
       257.922 118.328 255.921 116.994 253.92 115.66 251.918 114.326 
       249.75 113.159 247.748 111.991 245.581 110.824 243.413 109.823 
       241.078 108.823 238.91 107.822 236.741 106.821 234.406 105.987 
       232.071 105.153 229.736 104.32 227.401 103.652 224.9 102.986 
       222.565 102.485 220.063 101.985 217.728 101.484 215.227 100.984 
       212.725 100.651 210.224 100.484 207.722 100.15 205.054 99.9831 
       202.552 99.9831 199.884 99.817 197.381 99.9831 194.88 99.9831 
       192.212 100.15 189.71 100.484 187.208 100.651 184.707 100.984 
       182.205 101.484 179.87 101.985 177.369 102.485 175.034 102.986 
       172.532 103.652 170.197 104.486 167.862 105.153 165.527 105.987 
       163.359 106.821 161.024 107.822 158.856 108.823 156.521 109.823 
       154.354 110.824 152.352 111.991 150.184 113.159 148.015 114.326 
       146.015 115.66 144.013 116.994 142.011 118.328 140.177 119.83 
       138.176 121.331 136.341 122.832 134.507 124.332 132.672 125.834 
       131.004 127.502 129.169 129.169 127.502 131.004 125.834 132.671 
       124.333 134.506 122.832 136.34 121.331 138.175 119.83 140.177 
       118.329 142.011 116.995 144.013 115.66 146.015 114.326 148.015 
       113.159 150.183 111.991 152.352 110.824 154.353 109.823 156.521 
       108.823 158.856 107.822 161.024 106.822 163.192 105.987 165.527 
       105.153 167.862 104.32 170.197 103.652 172.532 102.986 174.867 
       102.485 177.369 101.985 179.87 101.484 182.205 100.984 184.707 
       100.651 187.208 100.484 189.71 100.15 192.211 99.9831 194.713 
       99.9831 197.381 99.817 199.884 99.9831 200.051 99.9831 200.051 
       99.9831 200.051 99.9831 200.051 99.9831 200.051 99.9831 200.051 
       99.9831 200.051 99.9831 200.051 99.9831 200.051 99.9831 200.051 
       99.9831 200.051 99.9831 200.051 99.9831 200.051 "
       style="stroke:none; fill:#ffffff; fill-opacity:100%"></polygon>
      <polyline points="0 200.051 0 194.882 0.16707 189.714 
       0.500209 184.546 1.00042 179.545 1.50063 174.544 2.1669 169.543 
       3.00125 164.541 4.00067 159.707 5.00109 154.872 6.16857 150.038 
       7.50213 145.203 8.83569 140.535 10.5024 135.868 12.003 131.2 
       15.6705 122.031 19.6712 113.195 24.006 104.693 28.841 96.1901 
       34.0082 88.1888 39.6766 80.3535 45.6781 72.6843 51.8466 65.5163 
       58.5144 58.5144 65.5163 51.8466 72.6853 45.6781 80.3535 39.6766 
       88.1888 34.0082 96.1911 28.84 104.693 24.006 113.195 19.6712 
       122.031 15.6705 131.2 12.003 135.868 10.5024 140.536 8.83569 
       145.203 7.50213 150.038 6.16757 154.873 5.00109 159.707 4.00067 
       164.542 3.00025 169.543 2.1669 174.544 1.50063 179.545 1.00042 
       184.546 0.500209 189.714 0.166069 194.882 0 200.051 0 
       205.218 0 210.22 0.166069 215.387 0.500209 220.389 1.00042 
       225.39 1.50063 230.391 2.1669 235.392 3.00025 240.227 4.00067 
       245.228 5.00109 250.062 6.16757 254.73 7.50213 259.398 8.83569 
       264.066 10.5024 268.734 12.003 277.903 15.6705 286.739 19.6712 
       295.407 24.006 303.743 28.84 311.911 34.0082 319.746 39.6766 
       327.249 45.6781 334.418 51.8466 341.419 58.5144 348.087 65.5163 
       354.422 72.6843 360.257 80.3535 365.925 88.1888 371.093 96.1901 
       375.928 104.693 380.262 113.195 384.263 122.031 387.931 131.2 
       389.431 135.868 391.098 140.535 392.432 145.203 393.765 150.038 
       394.933 154.872 395.932 159.707 396.933 164.541 397.766 169.543 
       398.433 174.544 398.934 179.545 399.434 184.546 399.767 189.714 
       399.934 194.882 400.1 200.051 399.934 205.218 399.767 210.219 
       399.434 215.387 398.934 220.388 398.433 225.39 397.766 230.391 
       396.933 235.392 395.932 240.226 394.933 245.228 393.765 250.062 
       392.432 254.73 391.098 259.398 389.431 264.066 387.931 268.734 
       384.263 277.903 380.262 286.739 375.928 295.407 371.093 303.743 
       365.925 311.911 360.257 319.746 354.422 327.249 348.087 334.417 
       341.419 341.419 334.418 348.087 327.249 354.422 319.746 360.256 
       311.911 365.925 303.743 371.093 295.407 375.928 286.739 380.262 
       277.903 384.262 268.734 387.931 264.066 389.431 259.398 391.098 
       254.73 392.432 250.062 393.765 245.228 394.932 240.227 395.932 
       235.392 396.933 230.391 397.766 225.39 398.433 220.389 398.934 
       215.387 399.434 210.22 399.767 205.218 399.934 200.051 400.1 
       194.882 399.934 189.714 399.767 184.546 399.434 179.545 398.934 
       174.544 398.433 169.543 397.766 164.542 396.933 159.707 395.932 
       154.873 394.932 150.038 393.765 145.203 392.432 140.536 391.098 
       135.868 389.431 131.2 387.931 122.031 384.262 113.195 380.262 
       104.693 375.928 96.1911 371.093 88.1888 365.925 80.3535 360.256 
       72.6853 354.422 65.5163 348.087 58.5144 341.419 51.8466 334.417 
       45.6781 327.249 39.6766 319.746 34.0082 311.911 28.841 303.743 
       24.006 295.407 19.6712 286.739 15.6705 277.903 12.003 268.734 
       10.5024 264.066 8.83569 259.398 7.50213 254.73 6.16857 250.062 
       5.00109 245.228 4.00067 240.226 3.00125 235.392 2.1669 230.391 
       1.50063 225.39 1.00042 220.388 0.500209 215.387 0.16707 210.219 
       0 205.218 0 200.051 0 200.051"
       style=" stroke:#000000; stroke-width:1;"></polyline>
      <polyline points="99.9831 200.051 99.9831 202.552 99.9831 205.054 
       100.15 207.722 100.484 210.223 100.651 212.725 100.984 215.227 
       101.484 217.728 101.985 220.063 102.485 222.565 102.986 225.067 
       103.652 227.401 104.487 229.736 105.153 232.071 105.987 234.406 
       106.822 236.741 107.822 238.909 108.823 241.078 109.823 243.413 
       110.824 245.581 111.991 247.748 113.159 249.75 114.326 251.918 
       115.66 253.92 116.995 255.921 118.329 257.922 119.83 259.924 
       121.331 261.758 122.832 263.593 124.333 265.427 125.834 267.262 
       127.502 269.096 129.169 270.764 131.004 272.432 132.672 274.099 
       134.507 275.601 136.341 277.268 138.176 278.769 140.177 280.103 
       142.011 281.605 144.013 282.939 146.015 284.273 148.015 285.607 
       150.184 286.775 152.352 287.942 154.354 289.11 156.521 290.111 
       158.856 291.278 161.024 292.111 163.192 293.112 165.527 293.946 
       167.862 294.78 170.197 295.614 172.532 296.281 174.867 296.948 
       177.369 297.449 179.87 297.949 182.205 298.449 184.707 298.949 
       187.208 299.283 189.71 299.45 192.212 299.784 194.713 299.95 
       197.381 299.95 199.884 299.95 202.552 299.95 205.054 299.95 
       207.722 299.784 210.224 299.45 212.725 299.283 215.227 298.949 
       217.728 298.449 220.063 297.949 222.565 297.449 225.068 296.948 
       227.401 296.281 229.736 295.614 232.071 294.78 234.406 293.946 
       236.741 293.112 238.91 292.111 241.078 291.278 243.413 290.111 
       245.581 289.11 247.748 287.942 249.75 286.775 251.918 285.607 
       253.92 284.273 255.921 282.939 257.922 281.605 259.924 280.103 
       261.758 278.769 263.593 277.268 265.427 275.601 267.262 274.099 
       269.096 272.432 270.765 270.764 272.432 269.096 274.099 267.262 
       275.601 265.427 277.268 263.593 278.769 261.758 280.103 259.924 
       281.605 257.922 282.939 255.921 284.273 253.92 285.607 251.918 
       286.775 249.75 287.942 247.748 289.11 245.581 290.111 243.413 
       291.278 241.078 292.111 238.909 293.112 236.741 293.946 234.406 
       294.781 232.071 295.614 229.736 296.281 227.401 296.948 224.9 
       297.449 222.565 297.949 220.063 298.45 217.728 298.95 215.227 
       299.283 212.725 299.45 210.223 299.784 207.722 299.95 205.054 
       299.95 202.552 299.95 199.884 299.95 197.381 299.95 194.88 
       299.784 192.211 299.45 189.71 299.283 187.208 298.95 184.707 
       298.45 182.205 297.949 179.87 297.449 177.369 296.948 175.034 
       296.281 172.532 295.614 170.197 294.781 167.862 293.946 165.527 
       293.112 163.359 292.111 161.024 291.278 158.856 290.111 156.521 
       289.11 154.353 287.942 152.352 286.775 150.183 285.607 148.015 
       284.273 146.015 282.939 144.013 281.605 142.011 280.103 140.177 
       278.769 138.175 277.268 136.34 275.601 134.506 274.099 132.671 
       272.432 131.004 270.765 129.169 269.096 127.502 267.262 125.834 
       265.427 124.332 263.593 122.832 261.758 121.331 259.924 119.83 
       257.922 118.328 255.921 116.994 253.92 115.66 251.918 114.326 
       249.75 113.159 247.748 111.991 245.581 110.824 243.413 109.823 
       241.078 108.823 238.91 107.822 236.741 106.821 234.406 105.987 
       232.071 105.153 229.736 104.32 227.401 103.652 224.9 102.986 
       222.565 102.485 220.063 101.985 217.728 101.484 215.227 100.984 
       212.725 100.651 210.224 100.484 207.722 100.15 205.054 99.9831 
       202.552 99.9831 199.884 99.817 197.381 99.9831 194.88 99.9831 
       192.212 100.15 189.71 100.484 187.208 100.651 184.707 100.984 
       182.205 101.484 179.87 101.985 177.369 102.485 175.034 102.986 
       172.532 103.652 170.197 104.486 167.862 105.153 165.527 105.987 
       163.359 106.821 161.024 107.822 158.856 108.823 156.521 109.823 
       154.354 110.824 152.352 111.991 150.184 113.159 148.015 114.326 
       146.015 115.66 144.013 116.994 142.011 118.328 140.177 119.83 
       138.176 121.331 136.341 122.832 134.507 124.332 132.672 125.834 
       131.004 127.502 129.169 129.169 127.502 131.004 125.834 132.671 
       124.333 134.506 122.832 136.34 121.331 138.175 119.83 140.177 
       118.329 142.011 116.995 144.013 115.66 146.015 114.326 148.015 
       113.159 150.183 111.991 152.352 110.824 154.353 109.823 156.521 
       108.823 158.856 107.822 161.024 106.822 163.192 105.987 165.527 
       105.153 167.862 104.32 170.197 103.652 172.532 102.986 174.867 
       102.485 177.369 101.985 179.87 101.484 182.205 100.984 184.707 
       100.651 187.208 100.484 189.71 100.15 192.211 99.9831 194.713 
       99.9831 197.381 99.817 199.884 99.9831 200.051"
       style=" stroke:#000000; stroke-width:1;"></polyline>
    </g>
  </symbol>
  <symbol id="oid5" xml:space="preserve" class="METIS_SYMBOL">
   <title>Gold 5-Pointed Star</title>
    <polygon points="200.051 0 153.372 152.872 0 152.872 
     124.365 248.229 77.6864 400.1 200.051 307.077 322.248 400.1 
     275.569 248.229 400.1 152.872 246.729 152.872 200.051 0 
     200.051 0 200.051 0 200.051 0 200.051 0 
     200.051 0 200.051 0 200.051 0 200.051 0 
     200.051 0 200.051 0 200.051 0 "
     style="stroke:none; fill:#ffcc00; fill-opacity:100%"     class="TAG:canvas"></polygon>
    <polygon points="200.051 0 153.372 152.872 0 152.872 
     124.365 248.229 77.6864 400.1 200.051 307.077 322.248 400.1 
     275.569 248.229 400.1 152.872 246.729 152.872 200.051 0 
     200.051 0 200.051 0 200.051 0 200.051 0 
     200.051 0 200.051 0 200.051 0 200.051 0 
     200.051 0 200.051 0 200.051 0 "
     style=" stroke:#000000; stroke-width:1; fill:#000000; fill-opacity:0%"></polygon>
  </symbol>
  <symbol id="oid6" xml:space="preserve" class="METIS_SYMBOL">
   <title>Black X</title>
    <polygon points="300.242 0 0 400.1 99.8587 400.1 
     400.1 0 300.242 0 300.242 0 300.242 0 
     300.242 0 300.242 0 300.242 0 300.242 0 
     300.242 0 300.242 0 300.242 0 300.242 0 300.242 0 "
     style="stroke:none; fill:#000000; fill-opacity:100%"></polygon>
    <polygon points="300.242 0 0 400.1 99.8587 400.1 
     400.1 0 300.242 0 300.242 0 300.242 0 
     300.242 0 300.242 0 300.242 0 300.242 0 
     300.242 0 300.242 0 300.242 0 300.242 0 300.242 0 "
     style=" stroke:#000000; stroke-width:1; fill:#000000; fill-opacity:0%"></polygon>
    <polygon points="99.8587 0 400.1 400.1 300.242 400.1 
     0 0 99.8587 0 99.8587 0 99.8587 0 
     99.8587 0 99.8587 0 99.8587 0 99.8587 0 
     99.8587 0 99.8587 0 99.8587 0 99.8587 0 99.8587 0 "
     style="stroke:none; fill:#000000; fill-opacity:100%"     class="TAG:canvas"></polygon>
    <polygon points="99.8587 0 400.1 400.1 300.242 400.1 
     0 0 99.8587 0 99.8587 0 99.8587 0 
     99.8587 0 99.8587 0 99.8587 0 99.8587 0 
     99.8587 0 99.8587 0 99.8587 0 99.8587 0 99.8587 0 "
     style=" stroke:#000000; stroke-width:1; fill:#000000; fill-opacity:0%"></polygon>
  </symbol>
  <symbol id="oid7" xml:space="preserve" class="METIS_SYMBOL">
   <title>Lavender 4-Pointed Star</title>
    <polygon points="400.1 200.051 261.565 138.535 200.051 0 
     138.535 138.535 0 200.051 138.535 261.565 200.051 400.1 
     261.565 261.565 400.1 200.051 400.1 200.051 400.1 200.051 
     400.1 200.051 400.1 200.051 400.1 200.051 400.1 200.051 
     400.1 200.051 400.1 200.051 400.1 200.051 400.1 200.051 400.1 200.051 "
     style="stroke:none; fill:#cc99ff; fill-opacity:100%"     class="TAG:canvas"></polygon>
    <polygon points="400.1 200.051 261.565 138.535 200.051 0 
     138.535 138.535 0 200.051 138.535 261.565 200.051 400.1 
     261.565 261.565 400.1 200.051 400.1 200.051 400.1 200.051 
     400.1 200.051 400.1 200.051 400.1 200.051 400.1 200.051 
     400.1 200.051 400.1 200.051 400.1 200.051 400.1 200.051 400.1 200.051 "
     style=" stroke:#000000; stroke-width:1; fill:#000000; fill-opacity:0%"     class="TAG:canvas"></polygon>
  </symbol>
  <symbol id="oid8" xml:space="preserve" class="METIS_SYMBOL">
   <title>Lightgreen Slash</title>
    <polygon points="158.373 0 0 400.1 241.727 400.1 
     400.1 0 158.373 0 158.373 0 158.373 0 
     158.373 0 158.373 0 158.373 0 158.373 0 
     158.373 0 158.373 0 158.373 0 158.373 0 158.373 0 "
     style="stroke:none; fill:#ccffcc; fill-opacity:100%"     class="TAG:canvas"></polygon>
    <polygon points="158.373 0 0 400.1 241.727 400.1 
     400.1 0 158.373 0 158.373 0 158.373 0 
     158.373 0 158.373 0 158.373 0 158.373 0 
     158.373 0 158.373 0 158.373 0 158.373 0 158.373 0 "
     style=" stroke:#000000; stroke-width:1; fill:#000000; fill-opacity:0%"     class="TAG:canvas"></polygon>
  </symbol>
  <symbol id="oid9" xml:space="preserve" class="METIS_SYMBOL">
   <title>Orange Down Arrow</title>
    <polygon points="0 0 200.051 400.1 400.1 0 
     0 0 0 0 0 0 0 0 
     0 0 0 0 0 0 0 0 
     0 0 0 0 0 0 0 0 0 0 "
     style="stroke:none; fill:#ff9966; fill-opacity:100%"     class="TAG:canvas"></polygon>
    <polygon points="0 0 200.051 400.1 400.1 0 
     0 0 0 0 0 0 0 0 
     0 0 0 0 0 0 0 0 
     0 0 0 0 0 0 0 0 0 0 "
     style=" stroke:#000000; stroke-width:1; fill:#000000; fill-opacity:0%"     class="TAG:canvas"></polygon>
  </symbol>
  <symbol id="oid10" xml:space="preserve" class="METIS_SYMBOL">
   <title>Pink Roundtangle</title>
    <polygon points="117.529 0 111.528 0 105.526 0.500209 
     99.5245 1.33356 93.8572 2.33397 88.1888 3.66753 82.5204 5.16816 
     77.0191 7.00192 71.6849 9.16883 66.5168 11.5028 61.5157 14.1699 
     56.5146 17.0041 51.8466 20.0054 47.1787 23.3387 42.6778 26.8402 
     38.5101 30.5077 34.3423 34.3413 30.5077 38.5091 26.8402 42.6768 
     23.3387 47.1787 20.0054 51.8466 17.0041 56.5136 14.1699 61.5157 
     11.5028 66.5168 9.16883 71.6849 7.00192 77.0191 5.16816 82.5204 
     3.66753 88.1888 2.33397 93.8572 1.33356 99.5245 0.500209 105.526 
     0 111.528 0 117.529 0 282.571 0 288.572 
     0.500209 294.574 1.33356 300.408 2.33397 306.243 3.66753 311.911 
     5.16816 317.412 7.00192 322.914 9.16883 328.249 11.5028 333.417 
     14.1699 338.584 17.0041 343.419 20.0054 348.253 23.3387 352.755 
     26.8402 357.256 30.5077 361.591 34.3423 365.592 38.5101 369.426 
     42.6778 373.094 47.1787 376.594 51.8466 379.929 56.5146 382.929 
     61.5157 385.763 66.5168 388.43 71.6849 390.764 77.0191 392.932 
     82.5204 394.766 88.1888 396.265 93.8572 397.6 99.5245 398.599 
     105.526 399.434 111.528 399.934 117.529 400.1 282.571 400.1 
     288.572 399.934 294.574 399.434 300.408 398.599 306.244 397.6 
     311.911 396.265 317.412 394.766 322.915 392.932 328.249 390.764 
     333.417 388.43 338.585 385.763 343.419 382.929 348.254 379.929 
     352.755 376.594 357.256 373.094 361.591 369.426 365.592 365.592 
     369.426 361.591 373.094 357.256 376.594 352.755 379.929 348.253 
     382.93 343.419 385.763 338.584 388.431 333.417 390.765 328.249 
     392.932 322.914 394.766 317.412 396.266 311.911 397.6 306.243 
     398.6 300.408 399.434 294.574 399.934 288.572 400.1 282.571 
     400.1 117.529 399.934 111.528 399.434 105.526 398.6 99.5245 
     397.6 93.8572 396.266 88.1888 394.766 82.5204 392.932 77.0191 
     390.765 71.6849 388.431 66.5168 385.763 61.5157 382.93 56.5136 
     379.929 51.8466 376.594 47.1787 373.094 42.6768 369.426 38.5091 
     365.592 34.3413 361.591 30.5077 357.256 26.8402 352.755 23.3387 
     348.254 20.0054 343.419 17.0041 338.585 14.1699 333.417 11.5028 
     328.249 9.16883 322.915 7.00192 317.412 5.16816 311.911 3.66753 
     306.244 2.33397 300.408 1.33356 294.574 0.500209 288.572 0 
     282.571 0 117.529 0 117.529 0 117.529 0 
     117.529 0 117.529 0 117.529 0 117.529 0 
     117.529 0 117.529 0 117.529 0 117.529 0 
     117.529 0 117.529 0 "
     style="stroke:none; fill:#ff00ff; fill-opacity:100%"     class="TAG:canvas"></polygon>
    <polyline points="117.529 0 111.528 0 105.526 0.500209 
     99.5245 1.33356 93.8572 2.33397 88.1888 3.66753 82.5204 5.16816 
     77.0191 7.00192 71.6849 9.16883 66.5168 11.5028 61.5157 14.1699 
     56.5146 17.0041 51.8466 20.0054 47.1787 23.3387 42.6778 26.8402 
     38.5101 30.5077 34.3423 34.3413 30.5077 38.5091 26.8402 42.6768 
     23.3387 47.1787 20.0054 51.8466 17.0041 56.5136 14.1699 61.5157 
     11.5028 66.5168 9.16883 71.6849 7.00192 77.0191 5.16816 82.5204 
     3.66753 88.1888 2.33397 93.8572 1.33356 99.5245 0.500209 105.526 
     0 111.528 0 117.529 0 282.571 0 288.572 
     0.500209 294.574 1.33356 300.408 2.33397 306.243 3.66753 311.911 
     5.16816 317.412 7.00192 322.914 9.16883 328.249 11.5028 333.417 
     14.1699 338.584 17.0041 343.419 20.0054 348.253 23.3387 352.755 
     26.8402 357.256 30.5077 361.591 34.3423 365.592 38.5101 369.426 
     42.6778 373.094 47.1787 376.594 51.8466 379.929 56.5146 382.929 
     61.5157 385.763 66.5168 388.43 71.6849 390.764 77.0191 392.932 
     82.5204 394.766 88.1888 396.265 93.8572 397.6 99.5245 398.599 
     105.526 399.434 111.528 399.934 117.529 400.1 282.571 400.1 
     288.572 399.934 294.574 399.434 300.408 398.599 306.244 397.6 
     311.911 396.265 317.412 394.766 322.915 392.932 328.249 390.764 
     333.417 388.43 338.585 385.763 343.419 382.929 348.254 379.929 
     352.755 376.594 357.256 373.094 361.591 369.426 365.592 365.592 
     369.426 361.591 373.094 357.256 376.594 352.755 379.929 348.253 
     382.93 343.419 385.763 338.584 388.431 333.417 390.765 328.249 
     392.932 322.914 394.766 317.412 396.266 311.911 397.6 306.243 
     398.6 300.408 399.434 294.574 399.934 288.572 400.1 282.571 
     400.1 117.529 399.934 111.528 399.434 105.526 398.6 99.5245 
     397.6 93.8572 396.266 88.1888 394.766 82.5204 392.932 77.0191 
     390.765 71.6849 388.431 66.5168 385.763 61.5157 382.93 56.5136 
     379.929 51.8466 376.594 47.1787 373.094 42.6768 369.426 38.5091 
     365.592 34.3413 361.591 30.5077 357.256 26.8402 352.755 23.3387 
     348.254 20.0054 343.419 17.0041 338.585 14.1699 333.417 11.5028 
     328.249 9.16883 322.915 7.00192 317.412 5.16816 311.911 3.66753 
     306.244 2.33397 300.408 1.33356 294.574 0.500209 288.572 0 
     282.571 0 117.529 0"
     style=" stroke:#000000; stroke-width:1;"     class="TAG:canvas"></polyline>
  </symbol>
  <symbol id="oid11" xml:space="preserve" class="METIS_SYMBOL">
   <title>Purple Trapezoid</title>
    <polygon points="0 0 100.025 400.1 300.075 400.1 
     400.1 0 0 0 0 0 0 0 
     0 0 0 0 0 0 0 0 
     0 0 0 0 0 0 0 0 0 0 "
     style="stroke:none; fill:#800080; fill-opacity:100%"     class="TAG:canvas"></polygon>
    <polygon points="0 0 100.025 400.1 300.075 400.1 
     400.1 0 0 0 0 0 0 0 
     0 0 0 0 0 0 0 0 
     0 0 0 0 0 0 0 0 0 0 "
     style=" stroke:#000000; stroke-width:1; fill:#000000; fill-opacity:0%"     class="TAG:canvas"></polygon>
  </symbol>
  <symbol id="oid12" xml:space="preserve" class="METIS_SYMBOL">
   <title>Red Octagon</title>
    <polygon points="100.025 0 0 100.025 0 300.075 
     100.025 400.1 300.075 400.1 400.1 300.075 400.1 100.025 
     300.075 0 100.025 0 100.025 0 100.025 0 
     100.025 0 100.025 0 100.025 0 100.025 0 
     100.025 0 100.025 0 100.025 0 100.025 0 
     100.025 0 100.025 0 "
     style="stroke:none; fill:#ff0000; fill-opacity:100%"     class="TAG:canvas"></polygon>
    <polygon points="100.025 0 0 100.025 0 300.075 
     100.025 400.1 300.075 400.1 400.1 300.075 400.1 100.025 
     300.075 0 100.025 0 100.025 0 100.025 0 
     100.025 0 100.025 0 100.025 0 100.025 0 
     100.025 0 100.025 0 100.025 0 100.025 0 
     100.025 0 100.025 0 "
     style=" stroke:#000000; stroke-width:1; fill:#000000; fill-opacity:0%"     class="TAG:canvas"></polygon>
  </symbol>
  <symbol id="oid13" xml:space="preserve" class="METIS_SYMBOL">
   <title>Tan Plus Sign</title>
    <polygon points="131.366 0 131.366 131.366 0 131.366 
     0 268.567 131.366 268.567 131.366 400.1 268.567 400.1 
     268.567 268.567 400.1 268.567 400.1 131.366 268.567 131.366 
     268.567 0 131.366 0 131.366 0 131.366 0 
     131.366 0 131.366 0 131.366 0 131.366 0 
     131.366 0 131.366 0 131.366 0 131.366 0 131.366 0 "
     style="stroke:none; fill:#ffcc99; fill-opacity:100%"     class="TAG:canvas"></polygon>
    <polygon points="131.366 0 131.366 131.366 0 131.366 
     0 268.567 131.366 268.567 131.366 400.1 268.567 400.1 
     268.567 268.567 400.1 268.567 400.1 131.366 268.567 131.366 
     268.567 0 131.366 0 131.366 0 131.366 0 
     131.366 0 131.366 0 131.366 0 131.366 0 
     131.366 0 131.366 0 131.366 0 131.366 0 131.366 0 "
     style=" stroke:#000000; stroke-width:1; fill:#000000; fill-opacity:0%"     class="TAG:canvas"></polygon>
  </symbol>
  <symbol id="oid14" xml:space="preserve" class="METIS_SYMBOL">
   <title>Yellow Diamond Sign</title>
    <polygon points="200.051 0 0 200.051 200.051 400.1 
     400.1 200.051 200.051 0 200.051 0 200.051 0 
     200.051 0 200.051 0 200.051 0 200.051 0 
     200.051 0 200.051 0 200.051 0 200.051 0 
     200.051 0 200.051 0 "
     style="stroke:none; fill:#ffff00; fill-opacity:100%"     class="TAG:canvas"></polygon>
    <polygon points="200.051 0 0 200.051 200.051 400.1 
     400.1 200.051 200.051 0 200.051 0 200.051 0 
     200.051 0 200.051 0 200.051 0 200.051 0 
     200.051 0 200.051 0 200.051 0 200.051 0 
     200.051 0 200.051 0 "
     style=" stroke:#000000; stroke-width:1; fill:#000000; fill-opacity:0%"     class="TAG:canvas"></polygon>
  </symbol>
 </defs>
</svg>
