<?xml version="1.0" encoding="UTF-8" standalone="no"?>
<svg id="svg2" xmlns:rdf="http://www.w3.org/1999/02/22-rdf-syntax-ns#" xmlns="http://www.w3.org/2000/svg" enable-background="new 21.152 45.375 219 219" xml:space="preserve" height="219px" width="219px" version="1.1" y="0px" x="0px" xmlns:cc="http://creativecommons.org/ns#" xmlns:dc="http://purl.org/dc/elements/1.1/" viewBox="21.152 45.375 219 219"><metadata id="metadata285"><rdf:RDF><cc:Work rdf:about=""><dc:format>image/svg+xml</dc:format><dc:type rdf:resource="http://purl.org/dc/dcmitype/StillImage"/><dc:title/></cc:Work></rdf:RDF></metadata>
<defs id="defs4"><filter id="filter3885"><feGaussianBlur id="feGaussianBlur3887" stdDeviation="2.751414"/></filter></defs>
<path id="path3869" opacity="0.50442475" d="m147.62,67.194c-16.275-0.20432-32.783,4.3709-47.312,14.156-0.97587,0.65724-2.0956,1.5145-3.25,2.4375l-49.812,34.063,10.688,5.125c-14.118,38.565,2.1832,82.109,38.812,101.66l-0.09375,0.0625,52.406,31.281,0.1875-11.844c42.099-3.485,75.45-38.416,76.062-81.531,0.0463-3.2558-0.24223-7.5595-0.59375-10.969l-4.2188-60.906-9.8438,6.625c-15.96-19.359-39.25-29.866-63.04-30.165zm-20.406,28.531c19.374-0.1599,38.503,7.76,52.094,22.75l-9.4375,6.3438,40,19.562c-3.2095,32.204-28.344,57.801-60.094,61.938l0.15625-11.375-37.719,21.062,2.5625-1.5625c-22.572-17.65-31.45-47.43-22.773-75.09l10.25,4.9062-3.2188-42.281c9.0339-4.131,18.643-6.1712,28.188-6.25z" filter="url(#filter3885)" fill="#000"/><g id="g253" opacity="0.4" filter="url(#AI_GaussianBlur_2)">
</g>
<path id="path267" d="M200.25,136.89c-2.753,32.706-28.096,58.827-60.197,63.009l0.159-11.368-53.283,29.761,52.417,31.27,0.168-11.856c42.099-3.485,75.467-38.402,76.08-81.517,0.052-3.653-0.308-8.701-0.717-12.234" stroke="#8e1600" stroke-width="2" fill="#EE3424"/>
<path id="path269" d="M83.492,98.553c28.435-16.392,64.345-10.473,86.09,13.511l-9.429,6.351,54.835,26.794-4.211-60.889-9.835,6.623c-26.873-32.591-74.585-40.086-110.35-15.999-3.029,2.04-7.412,5.895-10.081,8.246" stroke="#8e6300" stroke-width="2" fill="#D59F0F"/>
<path id="path271" stroke="#474747" stroke-width="2" d="M105.04,208.04c-22.58-17.657-31.436-47.435-22.759-75.099l10.248,4.92-4.623-60.856-50.396,34.431,10.689,5.135c-14.207,38.809,2.396,82.67,39.516,102.03l17.325-10.57z" fill="#5F6062"/>
<g id="g3867" opacity="0.4" filter="url(#AI_GaussianBlur_2)" transform="translate(-132.49719,0.24765478)">
</g></svg>