<?xml version="1.0"?>
<?metis version="3.1"?>
<?metisxml version="1.0"?>
<!DOCTYPE svg  PUBLIC "-//W3C//DTD SVG August 1999//EN"
 "http://www.w3.org/Graphics/SVG/svg-19990812.dtd">

<svg width="200" height="200">
 <title>Symbol library: location.svg</title>
 <defs>
  <symbol id="oid1" xml:space="preserve" class="METIS_SYMBOL">
   <title>Location Type</title>
    <g>
      <polygon points="0 0 0 304 16.2963 320 
       880 320 880 16 863.704 0 0 0 
       0 0 0 0 0 0 0 0 
       0 0 0 0 0 0 "
       style=" stroke:#000000; stroke-width:1; fill:#9b9b9b; fill-opacity:100%"       class="TAG:shadow"></polygon>
      <rect x="0" y="0" width="240" height="288"
       style=" stroke:#000000; stroke-width:1; fill:#ffffa5; fill-opacity:100%"></rect>
      <rect x="240" y="0" width="624" height="304"
       style=" stroke:#000000; stroke-width:1; fill:#95f5ff; fill-opacity:100%"       class="TAG:canvas"></rect>
      <rect x="245.357" y="25.7143" width="569.522" height="231.429"
       style="stroke:none; fill:#878787; fill-opacity:0%"       class="TAG:grid"></rect>
      <g>
	<desc>METIS_TEXT_GROUP</desc>
	<text  x="256" y="15.8"
	 style=" stroke:#000000; stroke-width:1; font-family:sans-serif; font-size:16;"
	 class="TAG:text">text</text>
	<rect x="256" y="0" width="608" height="304"
	 style=" stroke:#000000; stroke-width:1; fill:#ffffff; fill-opacity:0%"></rect>
      </g>
      <polyline points="864 304 880 320"
       style=" stroke:#000000; stroke-width:1;"></polyline>
      <polygon points="0 181.631 240 181.631 240 0 
       0 0 0 181.631 0 181.631 0 181.631 
       0 181.631 0 181.631 0 181.631 0 181.631 "
       style=" stroke:#000000; stroke-width:1; fill:#00ffff; fill-opacity:100%"       class="TAG:PictureBackground"></polygon>
      <polygon points="0 180.861 240 180.861 240 304 
       0 304 0 180.861 0 180.861 0 180.861 
       0 180.861 0 180.861 0 180.861 0 180.861 "
       style=" stroke:#000000; stroke-width:1; fill:#ababab; fill-opacity:100%"></polygon>
      <polygon points="0 211.358 0 172.413 11.5807 170.855 
       81.4643 172.413 215.241 170.855 240 173.971 240 201.233 
       91.8468 234.726 91.4478 234.726 90.6487 235.505 89.8504 235.505 
       89.0513 235.505 88.253 235.505 87.8536 235.505 87.0549 235.505 
       86.6555 235.505 85.8568 235.505 85.4575 235.505 84.6588 235.505 
       84.2594 235.505 83.4611 235.505 83.0617 235.505 82.263 234.726 
       81.4643 234.726 0 211.358 0 211.358 0 211.358 
       0 211.358 0 211.358 0 211.358 0 211.358 "
       style=" stroke:#000000; stroke-width:1; fill:#00ff00; fill-opacity:100%"></polygon>
      <polygon points="81.3288 172.426 215.22 170.855 240 173.996 
       240 201.472 202.83 210.106 81.3288 172.426 81.3288 172.426 
       81.3288 172.426 81.3288 172.426 81.3288 172.426 81.3288 172.426 81.3288 172.426 "
       style=" stroke:#000000; stroke-width:1; fill:#025602; fill-opacity:100%"></polygon>
      <polygon points="0 196.695 0 193.56 82.662 207.67 
       83.4611 207.67 84.2594 208.454 85.0581 208.454 85.8568 208.454 
       86.6555 208.454 87.4543 208.454 87.8536 207.67 88.6523 207.67 
       181.697 194.345 158.935 172.395 172.113 172.395 201.664 191.209 
       240 186.505 240 189.64 89.451 214.724 88.253 214.724 
       87.0549 214.724 86.2562 214.724 85.4575 214.724 84.6588 214.724 
       83.8604 214.724 83.0617 214.724 82.263 214.724 0 196.695 
       0 196.695 0 196.695 0 196.695 0 196.695 
       0 196.695 0 196.695 "
       style=" stroke:#000000; stroke-width:1; fill:#ffffff; fill-opacity:100%"></polygon>
      <polygon points="57.7755 34.4019 59.7847 34.4019 60.9898 35.1973 
       61.7938 36.7879 61.7938 38.3784 61.3918 39.1737 60.5886 40.7642 
       59.3827 40.7642 57.7755 40.7642 56.1683 40.7642 54.5611 40.7642 
       52.5523 40.7642 50.5432 40.7642 48.936 40.7642 46.9268 40.7642 
       45.7216 40.7642 44.9177 39.969 40.8997 39.969 36.8818 39.969 
       32.8636 40.7642 28.8456 40.7642 24.8274 40.7642 20.8093 40.7642 
       17.1931 40.7642 13.175 41.5595 11.9695 40.7642 11.5677 39.969 
       10.7641 38.3784 10.7641 36.7879 10.7641 35.1973 11.5677 33.6068 
       12.7731 32.8114 14.3804 32.0163 14.3804 30.4257 14.7822 29.6303 
       15.5858 28.0399 16.7913 27.2445 17.5949 27.2445 18.8003 27.2445 
       19.6039 28.8351 20.0057 30.4257 20.8093 29.6303 21.6129 28.8351 
       22.4166 28.8351 23.2201 29.6303 23.622 30.4257 24.0239 31.2208 
       24.4255 32.0163 24.4255 33.6068 24.8274 32.0163 25.6311 30.4257 
       26.4346 28.8351 27.2383 28.8351 28.0419 28.8351 28.8456 28.8351 
       30.0509 29.6303 30.8545 31.2208 31.2563 29.6303 31.6582 28.0399 
       32.4617 27.2445 33.2655 26.4494 34.069 26.4494 34.8727 27.2445 
       35.6762 28.0399 36.0782 28.8351 36.0782 27.2445 36.4798 25.654 
       36.8818 24.8588 37.2835 23.2682 37.6854 22.4729 38.087 21.6777 
       38.489 20.8823 39.2926 20.0871 39.6942 20.0871 40.4978 20.0871 
       40.8997 19.2918 41.3017 19.2918 42.1053 20.0871 42.5069 20.0871 
       42.9089 20.8823 43.3105 20.8823 43.3105 20.0871 43.3105 19.2918 
       43.7125 19.2918 44.5161 18.4966 44.9177 17.7012 45.7216 17.7012 
       46.5249 17.7012 47.7308 17.7012 48.534 18.4966 49.338 19.2918 
       50.1412 20.0871 50.9452 20.8823 51.3468 22.4729 51.7484 24.0634 
       52.1504 26.4494 52.1504 28.8351 52.5523 28.8351 53.7575 28.8351 
       54.5611 28.8351 55.3651 28.8351 56.1683 30.4257 56.9723 31.2208 
       57.3743 32.8114 57.7755 34.4019 57.7755 34.4019 57.7755 34.4019 
       57.7755 34.4019 57.7755 34.4019 57.7755 34.4019 57.7755 34.4019 "
       style=" stroke:#ababab; stroke-width:1; fill:#ffffff; fill-opacity:100%"></polygon>
      <polygon points="129.007 22.4824 129.007 20.8963 129.007 20.1034 
       128.605 19.3105 128.203 18.5175 127.801 17.7246 127.4 16.9316 
       126.998 16.9316 126.194 16.9316 125.792 16.9316 124.988 16.9316 
       124.184 16.9316 123.782 17.7246 122.979 17.7246 122.577 18.5175 
       122.175 19.3105 121.773 20.8963 120.567 20.8963 119.763 20.8963 
       118.959 20.8963 117.754 21.6893 117.352 22.4824 116.548 24.0681 
       116.146 25.654 115.744 28.0328 114.94 26.4469 114.136 25.654 
       113.333 24.861 112.127 24.0681 111.323 24.0681 110.519 24.861 
       109.716 24.861 108.912 25.654 108.51 25.654 107.706 24.861 
       107.304 24.0681 106.098 24.0681 105.295 24.0681 104.491 24.0681 
       103.687 25.654 103.285 26.4469 102.481 27.24 101.677 27.24 
       100.874 28.0328 100.472 28.0328 100.07 28.8259 99.6676 30.4116 
       99.6676 31.2047 100.07 31.9975 100.874 33.5834 102.079 33.5834 
       103.285 34.3765 104.491 34.3765 105.697 34.3765 106.902 34.3765 
       108.108 34.3765 108.912 34.3765 110.118 34.3765 110.921 34.3765 
       111.725 35.1693 112.931 35.1693 113.734 35.9624 114.94 35.9624 
       115.744 35.9624 116.95 35.9624 117.352 36.7552 118.156 38.3412 
       118.959 39.134 119.763 39.9269 120.567 39.9269 121.773 40.72 
       122.979 40.72 123.782 40.72 124.988 40.72 125.792 40.72 
       126.998 40.72 127.801 39.9269 128.605 39.9269 129.409 39.9269 
       130.213 39.134 130.615 39.134 131.017 39.134 131.419 39.9269 
       131.821 40.72 132.624 41.5128 133.428 41.5128 134.232 42.3056 
       135.036 42.3056 136.242 43.0988 137.046 43.0988 137.849 43.0988 
       138.653 43.0988 139.859 43.0988 140.662 43.0988 141.065 43.0988 
       142.27 42.3056 143.074 42.3056 144.28 42.3056 145.084 42.3056 
       146.289 41.5128 147.495 41.5128 148.299 40.72 148.701 39.9269 
       149.103 39.134 148.701 37.5481 148.299 36.7552 147.897 35.9624 
       147.093 35.9624 146.289 35.1693 145.485 35.1693 145.084 35.1693 
       144.28 35.1693 143.878 33.5834 143.476 32.7905 143.074 32.7905 
       142.672 31.9975 141.869 31.9975 141.467 31.2047 140.662 31.2047 
       140.261 31.2047 139.457 31.2047 138.653 31.2047 138.251 31.2047 
       137.447 31.2047 137.046 31.9975 136.242 31.9975 135.84 31.2047 
       135.438 31.2047 135.036 30.4116 134.634 29.6187 134.232 29.6187 
       133.83 29.6187 133.428 29.6187 133.026 30.4116 133.026 28.0328 
       132.624 25.654 132.223 24.0681 131.821 23.2751 131.017 22.4824 
       130.213 21.6893 129.811 21.6893 129.007 22.4824 129.007 22.4824 
       129.007 22.4824 129.007 22.4824 129.007 22.4824 129.007 22.4824 129.007 22.4824 "
       style=" stroke:#ababab; stroke-width:1; fill:#ffffff; fill-opacity:100%"></polygon>
      <polygon points="126.777 66.4507 127.978 64.8982 129.579 63.3452 
       131.181 61.7926 132.781 61.0162 134.383 61.0162 135.984 61.0162 
       137.585 61.0162 139.186 62.5687 139.987 59.4631 141.588 58.6872 
       143.589 59.4631 144.79 61.0162 145.591 58.6872 146.391 56.3577 
       147.592 54.8052 148.793 53.252 150.394 52.4762 151.995 51.6997 
       153.597 52.4762 155.197 53.252 155.197 51.6997 155.197 49.3706 
       155.598 47.8177 156.399 46.2652 157.199 44.7121 158.4 43.9357 
       159.601 43.1598 160.802 43.1598 161.202 40.8305 162.003 39.2778 
       163.203 37.7248 164.404 36.9486 165.205 36.1721 166.406 36.1721 
       167.606 36.9486 168.807 36.9486 169.608 38.5013 170.408 39.2778 
       171.209 40.8305 172.01 43.1598 172.41 44.7121 172.81 47.0413 
       172.81 49.3706 172.41 52.4762 173.611 53.252 174.812 54.8052 
       175.212 57.9106 175.212 61.0162 176.813 61.7926 177.614 63.3452 
       178.414 65.6741 178.414 68.7797 180.015 68.0036 181.216 68.7797 
       182.417 70.3326 183.618 72.6616 185.219 71.1092 186.82 70.3326 
       188.421 71.1092 189.622 73.4382 190.423 72.6616 191.624 71.8851 
       192.024 72.6616 192.824 73.4382 193.625 70.3326 195.226 68.7797 
       197.227 68.0036 198.428 68.7797 199.229 67.2272 200.03 66.4507 
       201.231 64.8982 202.832 64.8982 204.433 65.6741 205.233 66.4507 
       206.034 68.7797 206.834 70.3326 207.235 72.6616 207.635 74.9907 
       208.035 79.6493 209.236 80.4256 210.437 81.9781 211.638 83.5308 
       212.438 86.6361 212.839 89.7415 213.239 92.8472 212.839 96.7292 
       212.038 99.8347 213.639 99.8347 215.24 100.611 216.441 102.164 
       217.242 104.493 218.443 104.493 219.644 105.269 221.245 105.269 
       222.045 106.822 222.846 107.598 223.246 109.928 223.246 112.256 
       222.846 115.362 224.847 117.691 225.648 119.244 225.648 120.797 
       224.847 122.349 223.646 123.126 222.045 123.126 220.044 123.126 
       218.443 121.573 216.842 122.349 215.641 123.126 214.44 123.902 
       213.639 124.679 212.438 124.679 211.237 124.679 210.437 124.679 
       209.636 124.679 131.181 104.493 126.777 66.4507 126.777 66.4507 
       126.777 66.4507 126.777 66.4507 126.777 66.4507 126.777 66.4507 126.777 66.4507 "
       style=" stroke:#ababab; stroke-width:1; fill:#ffffff; fill-opacity:100%"></polygon>
      <polygon points="81.7274 56.182 81.7274 159.312 11.9601 157.76 
       11.9601 139.151 23.187 131.397 23.187 112.787 36.0178 98.0542 
       36.0178 80.9952 81.7274 56.182 81.7274 56.182 81.7274 56.182 
       81.7274 56.182 81.7274 56.182 81.7274 56.182 81.7274 56.182 "
       style=" stroke:#000000; stroke-width:1; fill:#0000ff; fill-opacity:100%"></polygon>
      <polygon points="81.3288 56.182 81.3288 159.284 214.485 163.159 
       214.485 147.655 210.086 143.005 210.086 127.501 203.689 122.074 
       203.689 108.121 81.3288 56.182 81.3288 56.182 81.3288 56.182 
       81.3288 56.182 81.3288 56.182 81.3288 56.182 81.3288 56.182 "
       style=" stroke:#000000; stroke-width:1; fill:#0000ab; fill-opacity:100%"></polygon>
      <polygon points="11.9601 135.453 11.9601 157.772 13.1561 157.772 
       13.1561 135.453 11.9601 135.453 11.9601 135.453 11.9601 135.453 
       11.9601 135.453 11.9601 135.453 11.9601 135.453 11.9601 135.453 "
       style=" stroke:#000000; stroke-width:1; fill:#ababab; fill-opacity:100%"></polygon>
      <polygon points="18.7375 135.453 18.7375 157.002 19.5349 157.002 
       19.5349 135.453 18.7375 135.453 18.7375 135.453 18.7375 135.453 
       18.7375 135.453 18.7375 135.453 18.7375 135.453 18.7375 135.453 "
       style=" stroke:#000000; stroke-width:1; fill:#ababab; fill-opacity:100%"></polygon>
      <polygon points="25.1163 134.684 25.1163 157.002 26.3123 157.002 
       26.3123 134.684 25.1163 134.684 25.1163 134.684 25.1163 134.684 
       25.1163 134.684 25.1163 134.684 25.1163 134.684 25.1163 134.684 "
       style=" stroke:#000000; stroke-width:1; fill:#ababab; fill-opacity:100%"></polygon>
      <polygon points="33.0897 133.914 33.0897 156.233 33.8871 156.233 
       33.8871 133.914 33.0897 133.914 33.0897 133.914 33.0897 133.914 
       33.0897 133.914 33.0897 133.914 33.0897 133.914 33.0897 133.914 "
       style=" stroke:#000000; stroke-width:1; fill:#ababab; fill-opacity:100%"></polygon>
      <polygon points="40.6644 133.914 40.6644 155.463 41.8606 155.463 
       41.8606 133.914 40.6644 133.914 40.6644 133.914 40.6644 133.914 
       40.6644 133.914 40.6644 133.914 40.6644 133.914 40.6644 133.914 "
       style=" stroke:#000000; stroke-width:1; fill:#ababab; fill-opacity:100%"></polygon>
      <polygon points="49.4352 133.145 49.4352 155.463 50.631 155.463 
       50.631 133.145 49.4352 133.145 49.4352 133.145 49.4352 133.145 
       49.4352 133.145 49.4352 133.145 49.4352 133.145 49.4352 133.145 "
       style=" stroke:#000000; stroke-width:1; fill:#ababab; fill-opacity:100%"></polygon>
      <polygon points="58.206 132.375 58.206 154.694 59.4022 154.694 
       59.4022 132.375 58.206 132.375 58.206 132.375 58.206 132.375 
       58.206 132.375 58.206 132.375 58.206 132.375 58.206 132.375 "
       style=" stroke:#000000; stroke-width:1; fill:#ababab; fill-opacity:100%"></polygon>
      <polygon points="68.1726 131.605 68.1726 153.924 68.9698 153.924 
       68.9698 131.605 68.1726 131.605 68.1726 131.605 68.1726 131.605 
       68.1726 131.605 68.1726 131.605 68.1726 131.605 68.1726 131.605 "
       style=" stroke:#000000; stroke-width:1; fill:#ababab; fill-opacity:100%"></polygon>
      <polygon points="23.1228 108.516 23.1228 130.835 23.9202 130.038 
       23.9202 108.516 23.1228 108.516 23.1228 108.516 23.1228 108.516 
       23.1228 108.516 23.1228 108.516 23.1228 108.516 23.1228 108.516 "
       style=" stroke:#000000; stroke-width:1; fill:#ababab; fill-opacity:100%"></polygon>
      <polygon points="29.5016 106.977 29.5016 129.296 30.299 129.296 
       30.299 106.977 29.5016 106.977 29.5016 106.977 29.5016 106.977 
       29.5016 106.977 29.5016 106.977 29.5016 106.977 29.5016 106.977 "
       style=" stroke:#000000; stroke-width:1; fill:#ababab; fill-opacity:100%"></polygon>
      <polygon points="36.6778 105.438 36.6778 127.757 37.4752 127.757 
       37.4752 105.438 36.6778 105.438 36.6778 105.438 36.6778 105.438 
       36.6778 105.438 36.6778 105.438 36.6778 105.438 36.6778 105.438 "
       style=" stroke:#000000; stroke-width:1; fill:#ababab; fill-opacity:100%"></polygon>
      <polygon points="43.854 103.899 43.854 126.218 45.0498 126.218 
       45.0498 103.899 43.854 103.899 43.854 103.899 43.854 103.899 
       43.854 103.899 43.854 103.899 43.854 103.899 43.854 103.899 "
       style=" stroke:#000000; stroke-width:1; fill:#ababab; fill-opacity:100%"></polygon>
      <polygon points="52.6244 102.36 52.6244 124.678 53.422 123.881 
       53.422 102.36 52.6244 102.36 52.6244 102.36 52.6244 102.36 
       52.6244 102.36 52.6244 102.36 52.6244 102.36 52.6244 102.36 "
       style=" stroke:#000000; stroke-width:1; fill:#ababab; fill-opacity:100%"></polygon>
      <polygon points="60.9966 100.051 60.9966 122.37 61.7938 122.37 
       61.7938 100.051 60.9966 100.051 60.9966 100.051 60.9966 100.051 
       60.9966 100.051 60.9966 100.051 60.9966 100.051 60.9966 100.051 "
       style=" stroke:#000000; stroke-width:1; fill:#ababab; fill-opacity:100%"></polygon>
      <polygon points="70.166 98.5112 70.166 120.061 71.3622 120.061 
       71.3622 98.5112 70.166 98.5112 70.166 98.5112 70.166 98.5112 
       70.166 98.5112 70.166 98.5112 70.166 98.5112 70.166 98.5112 "
       style=" stroke:#000000; stroke-width:1; fill:#ababab; fill-opacity:100%"></polygon>
      <polygon points="35.8804 77.7315 35.8804 100.051 36.6777 100.051 
       36.6777 77.7315 35.8804 77.7315 35.8804 77.7315 35.8804 77.7315 
       35.8804 77.7315 35.8804 77.7315 35.8804 77.7315 35.8804 77.7315 "
       style=" stroke:#000000; stroke-width:1; fill:#ababab; fill-opacity:100%"></polygon>
      <polygon points="41.8602 75.4229 41.8602 97.7418 43.0564 96.9446 
       43.0564 75.4229 41.8602 75.4229 41.8602 75.4229 41.8602 75.4229 
       41.8602 75.4229 41.8602 75.4229 41.8602 75.4229 41.8602 75.4229 "
       style=" stroke:#000000; stroke-width:1; fill:#ababab; fill-opacity:100%"></polygon>
      <polygon points="48.638 72.3442 48.638 94.6634 49.8338 94.6634 
       49.8338 72.3442 48.638 72.3442 48.638 72.3442 48.638 72.3442 
       48.638 72.3442 48.638 72.3442 48.638 72.3442 48.638 72.3442 "
       style=" stroke:#000000; stroke-width:1; fill:#ababab; fill-opacity:100%"></polygon>
      <polygon points="56.6112 69.2658 56.6112 91.5849 57.4088 91.5849 
       57.4088 69.2658 56.6112 69.2658 56.6112 69.2658 56.6112 69.2658 
       56.6112 69.2658 56.6112 69.2658 56.6112 69.2658 56.6112 69.2658 "
       style=" stroke:#000000; stroke-width:1; fill:#ababab; fill-opacity:100%"></polygon>
      <polygon points="64.1862 66.1872 64.1862 88.5063 64.9834 87.7092 
       64.9834 66.1872 64.1862 66.1872 64.1862 66.1872 64.1862 66.1872 
       64.1862 66.1872 64.1862 66.1872 64.1862 66.1872 64.1862 66.1872 "
       style=" stroke:#000000; stroke-width:1; fill:#ababab; fill-opacity:100%"></polygon>
      <polygon points="72.5584 62.3391 72.5584 84.6582 73.7542 84.6582 
       73.7542 62.3391 72.5584 62.3391 72.5584 62.3391 72.5584 62.3391 
       72.5584 62.3391 72.5584 62.3391 72.5584 62.3391 72.5584 62.3391 "
       style=" stroke:#000000; stroke-width:1; fill:#ababab; fill-opacity:100%"></polygon>
      <polygon points="92.093 63.1088 92.093 85.4279 91.2958 85.4279 
       91.2958 63.1088 92.093 63.1088 92.093 63.1088 92.093 63.1088 
       92.093 63.1088 92.093 63.1088 92.093 63.1088 92.093 63.1088 "
       style=" stroke:#000000; stroke-width:1; fill:#000000; fill-opacity:100%"></polygon>
      <polygon points="102.458 66.9572 102.458 89.276 101.262 88.4789 
       101.262 66.9572 102.458 66.9572 102.458 66.9572 102.458 66.9572 
       102.458 66.9572 102.458 66.9572 102.458 66.9572 102.458 66.9572 "
       style=" stroke:#000000; stroke-width:1; fill:#000000; fill-opacity:100%"></polygon>
      <polygon points="111.229 70.0357 111.229 92.3546 110.432 91.5574 
       110.432 70.0357 111.229 70.0357 111.229 70.0357 111.229 70.0357 
       111.229 70.0357 111.229 70.0357 111.229 70.0357 111.229 70.0357 "
       style=" stroke:#000000; stroke-width:1; fill:#000000; fill-opacity:100%"></polygon>
      <polygon points="120.399 73.1141 120.399 95.4331 119.203 94.6358 
       119.203 73.1141 120.399 73.1141 120.399 73.1141 120.399 73.1141 
       120.399 73.1141 120.399 73.1141 120.399 73.1141 120.399 73.1141 "
       style=" stroke:#000000; stroke-width:1; fill:#000000; fill-opacity:100%"></polygon>
      <polygon points="128.372 75.4229 128.372 97.7418 127.176 97.7418 
       127.176 75.4229 128.372 75.4229 128.372 75.4229 128.372 75.4229 
       128.372 75.4229 128.372 75.4229 128.372 75.4229 128.372 75.4229 "
       style=" stroke:#000000; stroke-width:1; fill:#000000; fill-opacity:100%"></polygon>
      <polygon points="135.947 78.5289 135.947 100.051 135.149 100.051 
       135.149 77.7315 135.947 78.5289 135.947 78.5289 135.947 78.5289 
       135.947 78.5289 135.947 78.5289 135.947 78.5289 135.947 78.5289 "
       style=" stroke:#000000; stroke-width:1; fill:#000000; fill-opacity:100%"></polygon>
      <polygon points="142.724 80.81 142.724 102.359 141.927 102.359 
       141.927 80.81 142.724 80.81 142.724 80.81 142.724 80.81 
       142.724 80.81 142.724 80.81 142.724 80.81 142.724 80.81 "
       style=" stroke:#000000; stroke-width:1; fill:#000000; fill-opacity:100%"></polygon>
      <polygon points="149.502 82.3496 149.502 104.668 148.704 104.668 
       148.704 82.3496 149.502 82.3496 149.502 82.3496 149.502 82.3496 
       149.502 82.3496 149.502 82.3496 149.502 82.3496 149.502 82.3496 "
       style=" stroke:#000000; stroke-width:1; fill:#000000; fill-opacity:100%"></polygon>
      <polygon points="156.279 85.4281 156.279 107.747 155.482 107.747 
       155.482 85.4281 156.279 85.4281 156.279 85.4281 156.279 85.4281 
       156.279 85.4281 156.279 85.4281 156.279 85.4281 156.279 85.4281 "
       style=" stroke:#000000; stroke-width:1; fill:#000000; fill-opacity:100%"></polygon>
      <polygon points="163.057 87.7643 163.057 109.286 161.86 109.286 
       161.86 86.9671 163.057 87.7643 163.057 87.7643 163.057 87.7643 
       163.057 87.7643 163.057 87.7643 163.057 87.7643 163.057 87.7643 "
       style=" stroke:#000000; stroke-width:1; fill:#000000; fill-opacity:100%"></polygon>
      <polygon points="169.834 90.0456 169.834 112.365 168.638 112.365 
       168.638 90.0456 169.834 90.0456 169.834 90.0456 169.834 90.0456 
       169.834 90.0456 169.834 90.0456 169.834 90.0456 169.834 90.0456 "
       style=" stroke:#000000; stroke-width:1; fill:#000000; fill-opacity:100%"></polygon>
      <polygon points="175.415 93.1241 175.415 114.673 174.219 114.673 
       174.219 93.1241 175.415 93.1241 175.415 93.1241 175.415 93.1241 
       175.415 93.1241 175.415 93.1241 175.415 93.1241 175.415 93.1241 "
       style=" stroke:#000000; stroke-width:1; fill:#000000; fill-opacity:100%"></polygon>
      <polygon points="180.997 95.4327 180.997 117.751 180.199 117.751 
       180.199 95.4327 180.997 95.4327 180.997 95.4327 180.997 95.4327 
       180.997 95.4327 180.997 95.4327 180.997 95.4327 180.997 95.4327 "
       style=" stroke:#000000; stroke-width:1; fill:#000000; fill-opacity:100%"></polygon>
      <polygon points="186.578 96.9723 186.578 119.292 185.78 119.292 
       185.78 96.9723 186.578 96.9723 186.578 96.9723 186.578 96.9723 
       186.578 96.9723 186.578 96.9723 186.578 96.9723 186.578 96.9723 "
       style=" stroke:#000000; stroke-width:1; fill:#000000; fill-opacity:100%"></polygon>
      <polygon points="192.16 99.2811 192.16 121.6 191.362 121.6 
       191.362 99.2811 192.16 99.2811 192.16 99.2811 192.16 99.2811 
       192.16 99.2811 192.16 99.2811 192.16 99.2811 192.16 99.2811 "
       style=" stroke:#000000; stroke-width:1; fill:#000000; fill-opacity:100%"></polygon>
      <polygon points="197.741 102.36 197.741 124.678 196.944 123.881 
       196.944 102.36 197.741 102.36 197.741 102.36 197.741 102.36 
       197.741 102.36 197.741 102.36 197.741 102.36 197.741 102.36 "
       style=" stroke:#000000; stroke-width:1; fill:#000000; fill-opacity:100%"></polygon>
      <polygon points="94.485 100.848 94.485 122.37 93.6878 122.37 
       93.6878 100.051 94.485 100.848 94.485 100.848 94.485 100.848 
       94.485 100.848 94.485 100.848 94.485 100.848 94.485 100.848 "
       style=" stroke:#000000; stroke-width:1; fill:#000000; fill-opacity:100%"></polygon>
      <polygon points="104.452 102.36 104.452 124.678 103.654 124.678 
       103.654 102.36 104.452 102.36 104.452 102.36 104.452 102.36 
       104.452 102.36 104.452 102.36 104.452 102.36 104.452 102.36 "
       style=" stroke:#000000; stroke-width:1; fill:#000000; fill-opacity:100%"></polygon>
      <polygon points="113.621 103.899 113.621 126.218 112.824 125.421 
       112.824 103.899 113.621 103.899 113.621 103.899 113.621 103.899 
       113.621 103.899 113.621 103.899 113.621 103.899 113.621 103.899 "
       style=" stroke:#000000; stroke-width:1; fill:#000000; fill-opacity:100%"></polygon>
      <polygon points="122.392 105.438 122.392 127.757 121.595 126.96 
       121.595 105.438 122.392 105.438 122.392 105.438 122.392 105.438 
       122.392 105.438 122.392 105.438 122.392 105.438 122.392 105.438 "
       style=" stroke:#000000; stroke-width:1; fill:#000000; fill-opacity:100%"></polygon>
      <polygon points="130.365 107.005 130.365 128.527 129.568 128.527 
       129.568 106.208 130.365 107.005 130.365 107.005 130.365 107.005 
       130.365 107.005 130.365 107.005 130.365 107.005 130.365 107.005 "
       style=" stroke:#000000; stroke-width:1; fill:#000000; fill-opacity:100%"></polygon>
      <polygon points="138.339 107.747 138.339 130.066 137.143 130.066 
       137.143 107.747 138.339 107.747 138.339 107.747 138.339 107.747 
       138.339 107.747 138.339 107.747 138.339 107.747 138.339 107.747 "
       style=" stroke:#000000; stroke-width:1; fill:#000000; fill-opacity:100%"></polygon>
      <polygon points="145.116 109.286 145.116 130.836 143.92 130.836 
       143.92 109.286 145.116 109.286 145.116 109.286 145.116 109.286 
       145.116 109.286 145.116 109.286 145.116 109.286 145.116 109.286 "
       style=" stroke:#000000; stroke-width:1; fill:#000000; fill-opacity:100%"></polygon>
      <polygon points="151.894 110.056 151.894 132.375 150.698 132.375 
       150.698 110.056 151.894 110.056 151.894 110.056 151.894 110.056 
       151.894 110.056 151.894 110.056 151.894 110.056 151.894 110.056 "
       style=" stroke:#000000; stroke-width:1; fill:#000000; fill-opacity:100%"></polygon>
      <polygon points="158.272 112.392 158.272 133.914 157.475 133.914 
       157.475 111.595 158.272 112.392 158.272 112.392 158.272 112.392 
       158.272 112.392 158.272 112.392 158.272 112.392 158.272 112.392 "
       style=" stroke:#000000; stroke-width:1; fill:#000000; fill-opacity:100%"></polygon>
      <polygon points="165.449 112.365 165.449 134.684 164.252 134.684 
       164.252 112.365 165.449 112.365 165.449 112.365 165.449 112.365 
       165.449 112.365 165.449 112.365 165.449 112.365 165.449 112.365 "
       style=" stroke:#000000; stroke-width:1; fill:#000000; fill-opacity:100%"></polygon>
      <polygon points="171.827 113.904 171.827 136.223 171.03 136.223 
       171.03 113.904 171.827 113.904 171.827 113.904 171.827 113.904 
       171.827 113.904 171.827 113.904 171.827 113.904 171.827 113.904 "
       style=" stroke:#000000; stroke-width:1; fill:#000000; fill-opacity:100%"></polygon>
      <polygon points="177.409 116.24 177.409 137.763 176.611 137.763 
       176.611 115.443 177.409 116.24 177.409 116.24 177.409 116.24 
       177.409 116.24 177.409 116.24 177.409 116.24 177.409 116.24 "
       style=" stroke:#000000; stroke-width:1; fill:#000000; fill-opacity:100%"></polygon>
      <polygon points="183.389 117.753 183.389 139.302 182.193 139.302 
       182.193 117.753 183.389 117.753 183.389 117.753 183.389 117.753 
       183.389 117.753 183.389 117.753 183.389 117.753 183.389 117.753 "
       style=" stroke:#000000; stroke-width:1; fill:#000000; fill-opacity:100%"></polygon>
      <polygon points="188.97 117.753 188.97 140.071 187.774 140.071 
       187.774 117.753 188.97 117.753 188.97 117.753 188.97 117.753 
       188.97 117.753 188.97 117.753 188.97 117.753 188.97 117.753 "
       style=" stroke:#000000; stroke-width:1; fill:#000000; fill-opacity:100%"></polygon>
      <polygon points="194.552 120.088 194.552 141.61 193.355 141.61 
       193.355 119.292 194.552 120.088 194.552 120.088 194.552 120.088 
       194.552 120.088 194.552 120.088 194.552 120.088 194.552 120.088 "
       style=" stroke:#000000; stroke-width:1; fill:#000000; fill-opacity:100%"></polygon>
      <polygon points="200.133 121.6 200.133 143.149 198.937 143.149 
       198.937 121.6 200.133 121.6 200.133 121.6 200.133 121.6 
       200.133 121.6 200.133 121.6 200.133 121.6 200.133 121.6 "
       style=" stroke:#000000; stroke-width:1; fill:#000000; fill-opacity:100%"></polygon>
      <polygon points="205.714 121.6 205.714 143.919 204.518 143.919 
       204.518 121.6 205.714 121.6 205.714 121.6 205.714 121.6 
       205.714 121.6 205.714 121.6 205.714 121.6 205.714 121.6 "
       style=" stroke:#000000; stroke-width:1; fill:#000000; fill-opacity:100%"></polygon>
      <polygon points="210.099 123.909 210.099 145.459 209.302 145.459 
       209.302 123.909 210.099 123.909 210.099 123.909 210.099 123.909 
       210.099 123.909 210.099 123.909 210.099 123.909 210.099 123.909 "
       style=" stroke:#000000; stroke-width:1; fill:#000000; fill-opacity:100%"></polygon>
      <polygon points="203.721 103.926 203.721 125.449 202.525 125.449 
       202.525 103.129 203.721 103.926 203.721 103.926 203.721 103.926 
       203.721 103.926 203.721 103.926 203.721 103.926 203.721 103.926 "
       style=" stroke:#000000; stroke-width:1; fill:#000000; fill-opacity:100%"></polygon>
      <polygon points="214.485 143.919 214.485 166.237 213.688 166.237 
       213.688 143.919 214.485 143.919 214.485 143.919 214.485 143.919 
       214.485 143.919 214.485 143.919 214.485 143.919 214.485 143.919 "
       style=" stroke:#000000; stroke-width:1; fill:#000000; fill-opacity:100%"></polygon>
      <polygon points="210.099 143.149 210.099 165.469 209.302 165.469 
       209.302 143.149 210.099 143.149 210.099 143.149 210.099 143.149 
       210.099 143.149 210.099 143.149 210.099 143.149 210.099 143.149 "
       style=" stroke:#000000; stroke-width:1; fill:#000000; fill-opacity:100%"></polygon>
      <polygon points="205.714 142.38 205.714 163.929 204.917 163.929 
       204.917 142.38 205.714 142.38 205.714 142.38 205.714 142.38 
       205.714 142.38 205.714 142.38 205.714 142.38 205.714 142.38 "
       style=" stroke:#000000; stroke-width:1; fill:#000000; fill-opacity:100%"></polygon>
      <polygon points="200.133 142.38 200.133 163.929 199.336 163.929 
       199.336 142.38 200.133 142.38 200.133 142.38 200.133 142.38 
       200.133 142.38 200.133 142.38 200.133 142.38 200.133 142.38 "
       style=" stroke:#000000; stroke-width:1; fill:#000000; fill-opacity:100%"></polygon>
      <polygon points="194.551 140.841 194.551 163.159 193.754 163.159 
       193.754 140.841 194.551 140.841 194.551 140.841 194.551 140.841 
       194.551 140.841 194.551 140.841 194.551 140.841 194.551 140.841 "
       style=" stroke:#000000; stroke-width:1; fill:#000000; fill-opacity:100%"></polygon>
      <polygon points="189.369 140.071 189.369 162.39 188.173 162.39 
       188.173 140.071 189.369 140.071 189.369 140.071 189.369 140.071 
       189.369 140.071 189.369 140.071 189.369 140.071 189.369 140.071 "
       style=" stroke:#000000; stroke-width:1; fill:#000000; fill-opacity:100%"></polygon>
      <polygon points="183.787 140.071 183.787 162.39 182.591 162.39 
       182.591 140.071 183.787 140.071 183.787 140.071 183.787 140.071 
       183.787 140.071 183.787 140.071 183.787 140.071 183.787 140.071 "
       style=" stroke:#000000; stroke-width:1; fill:#000000; fill-opacity:100%"></polygon>
      <polygon points="178.206 139.302 178.206 160.851 177.409 160.851 
       177.409 139.302 178.206 139.302 178.206 139.302 178.206 139.302 
       178.206 139.302 178.206 139.302 178.206 139.302 178.206 139.302 "
       style=" stroke:#000000; stroke-width:1; fill:#000000; fill-opacity:100%"></polygon>
      <polygon points="165.847 136.992 165.847 159.312 165.05 159.312 
       165.05 136.992 165.847 136.992 165.847 136.992 165.847 136.992 
       165.847 136.992 165.847 136.992 165.847 136.992 165.847 136.992 "
       style=" stroke:#000000; stroke-width:1; fill:#000000; fill-opacity:100%"></polygon>
      <polygon points="152.691 135.453 152.691 157.772 151.894 157.772 
       151.894 135.453 152.691 135.453 152.691 135.453 152.691 135.453 
       152.691 135.453 152.691 135.453 152.691 135.453 152.691 135.453 "
       style=" stroke:#000000; stroke-width:1; fill:#000000; fill-opacity:100%"></polygon>
      <polygon points="159.468 136.992 159.468 159.312 158.272 159.312 
       158.272 136.992 159.468 136.992 159.468 136.992 159.468 136.992 
       159.468 136.992 159.468 136.992 159.468 136.992 159.468 136.992 "
       style=" stroke:#000000; stroke-width:1; fill:#000000; fill-opacity:100%"></polygon>
      <polygon points="146.312 135.453 146.312 157.002 145.116 157.002 
       145.116 135.453 146.312 135.453 146.312 135.453 146.312 135.453 
       146.312 135.453 146.312 135.453 146.312 135.453 146.312 135.453 "
       style=" stroke:#000000; stroke-width:1; fill:#000000; fill-opacity:100%"></polygon>
      <polygon points="172.625 137.762 172.625 160.081 171.827 160.081 
       171.827 137.762 172.625 137.762 172.625 137.762 172.625 137.762 
       172.625 137.762 172.625 137.762 172.625 137.762 172.625 137.762 "
       style=" stroke:#000000; stroke-width:1; fill:#000000; fill-opacity:100%"></polygon>
      <polygon points="139.535 134.684 139.535 157.002 138.737 157.002 
       138.737 134.684 139.535 134.684 139.535 134.684 139.535 134.684 
       139.535 134.684 139.535 134.684 139.535 134.684 139.535 134.684 "
       style=" stroke:#000000; stroke-width:1; fill:#000000; fill-opacity:100%"></polygon>
      <polygon points="131.96 133.914 131.96 156.233 131.163 156.233 
       131.163 133.914 131.96 133.914 131.96 133.914 131.96 133.914 
       131.96 133.914 131.96 133.914 131.96 133.914 131.96 133.914 "
       style=" stroke:#000000; stroke-width:1; fill:#000000; fill-opacity:100%"></polygon>
      <polygon points="124.385 133.914 124.385 155.463 123.189 155.463 
       123.189 133.914 124.385 133.914 124.385 133.914 124.385 133.914 
       124.385 133.914 124.385 133.914 124.385 133.914 124.385 133.914 "
       style=" stroke:#000000; stroke-width:1; fill:#000000; fill-opacity:100%"></polygon>
      <polygon points="115.615 133.145 115.615 155.463 114.419 155.463 
       114.419 133.145 115.615 133.145 115.615 133.145 115.615 133.145 
       115.615 133.145 115.615 133.145 115.615 133.145 115.615 133.145 "
       style=" stroke:#000000; stroke-width:1; fill:#000000; fill-opacity:100%"></polygon>
      <polygon points="106.445 132.375 106.445 154.694 105.648 154.694 
       105.648 132.375 106.445 132.375 106.445 132.375 106.445 132.375 
       106.445 132.375 106.445 132.375 106.445 132.375 106.445 132.375 "
       style=" stroke:#000000; stroke-width:1; fill:#000000; fill-opacity:100%"></polygon>
      <polygon points="96.4784 131.605 96.4784 153.924 95.6812 153.924 
       95.6812 131.605 96.4784 131.605 96.4784 131.605 96.4784 131.605 
       96.4784 131.605 96.4784 131.605 96.4784 131.605 96.4784 131.605 "
       style=" stroke:#000000; stroke-width:1; fill:#000000; fill-opacity:100%"></polygon>
      <polygon points="81.4384 63.3261 35.0832 84.3501 35.0832 71.8914 
       81.4384 44.6379 204.12 102.259 204.12 110.825 81.4384 63.3261 
       81.4384 63.3261 81.4384 63.3261 81.4384 63.3261 81.4384 63.3261 
       81.4384 63.3261 81.4384 63.3261 "
       style=" stroke:#000000; stroke-width:1; fill:#ffffff; fill-opacity:100%"></polygon>
      <polygon points="22.3256 101.928 22.3256 114.429 81.4538 97.2405 
       210.897 130.836 210.897 122.242 81.4538 79.2711 22.3256 101.928 
       22.3256 101.928 22.3256 101.928 22.3256 101.928 22.3256 101.928 
       22.3256 101.928 22.3256 101.928 "
       style=" stroke:#000000; stroke-width:1; fill:#ffffff; fill-opacity:100%"></polygon>
      <polygon points="11.5614 128.058 11.5614 141.425 81.4654 132.776 
       215.282 150.076 215.282 141.425 81.4654 113.904 11.5614 128.058 
       11.5614 128.058 11.5614 128.058 11.5614 128.058 11.5614 128.058 
       11.5614 128.058 11.5614 128.058 "
       style=" stroke:#000000; stroke-width:1; fill:#ffffff; fill-opacity:100%"></polygon>
      <polygon points="11.5614 154.078 11.5614 171.574 81.4654 173.165 
       215.282 171.574 215.282 159.645 81.4654 149.306 11.5614 154.078 
       11.5614 154.078 11.5614 154.078 11.5614 154.078 11.5614 154.078 
       11.5614 154.078 11.5614 154.078 "
       style=" stroke:#000000; stroke-width:1; fill:#ffffff; fill-opacity:100%"></polygon>
      <polygon points="154.684 173.165 154.684 130.079 157.534 129.296 
       173.82 132.43 173.82 173.165 154.684 173.165 154.684 173.165 
       154.684 173.165 154.684 173.165 154.684 173.165 154.684 173.165 154.684 173.165 "
       style=" stroke:#000000; stroke-width:1; fill:#ababab; fill-opacity:100%"></polygon>
      <polyline points="173.82 132.43 157.475 129.296 157.475 173.165"
       style=" stroke:#ffffff; stroke-width:1;"></polyline>
      <polyline points="170.233 147.767 170.233 173.165"
       style=" stroke:#ffffff; stroke-width:1;"></polyline>
      <polyline points="169.036 146.998 170.631 148.537"
       style=" stroke:#000000; stroke-width:1;"></polyline>
      <polygon points="160.664 173.165 160.664 146.228 169.435 147.02 
       169.435 173.165 160.664 173.165 160.664 173.165 160.664 173.165 
       160.664 173.165 160.664 173.165 160.664 173.165 160.664 173.165 "
       style=" stroke:#000000; stroke-width:1; fill:#0000ab; fill-opacity:100%"></polygon>
      <polygon points="164.841 173.165 164.841 152.44 160.664 151.643 
       160.664 150.845 169.435 151.643 169.435 152.44 165.259 152.44 
       165.259 173.165 164.841 173.165 164.841 173.165 164.841 173.165 
       164.841 173.165 164.841 173.165 164.841 173.165 164.841 173.165 "
       style=" stroke:#000000; stroke-width:1; fill:#ffffff; fill-opacity:100%"></polygon>
      <polygon points="81.4384 55.4563 35.0832 80.4311 35.0832 78.0893 
       81.4384 52.3344 204.12 106.186 204.12 107.747 81.4384 55.4563 
       81.4384 55.4563 81.4384 55.4563 81.4384 55.4563 81.4384 55.4563 
       81.4384 55.4563 81.4384 55.4563 "
       style=" stroke:#ff0000; stroke-width:1; fill:#ff0000; fill-opacity:100%"></polygon>
      <polyline points="81.3288 44.6379 81.3288 173.165"
       style=" stroke:#000000; stroke-width:1;"></polyline>
      <polygon points="3.59515 172.395 2.79069 184.516 39.7959 188.558 
       47.8404 178.86 47.8404 173.203 40.6002 175.628 22.5 175.628 
       22.5 172.395 3.59515 172.395 3.59515 172.395 3.59515 172.395 
       3.59515 172.395 3.59515 172.395 3.59515 172.395 3.59515 172.395 "
       style=" stroke:#000000; stroke-width:1; fill:#ffffff; fill-opacity:100%"></polygon>
      <polyline points="39.4686 188.558 40.6644 175.473"
       style=" stroke:#ababab; stroke-width:1;"></polyline>
      <polygon points="217.657 168.842 216.45 168.014 215.646 167.185 
       215.244 167.185 214.842 167.185 214.44 167.185 214.038 168.014 
       213.233 168.014 212.831 167.185 212.027 167.185 211.625 166.357 
       210.82 166.357 210.418 167.185 209.614 167.185 209.212 168.014 
       208.81 168.842 207.603 168.014 206.397 167.185 205.593 166.357 
       204.386 165.527 203.18 165.527 202.376 165.527 201.571 166.357 
       200.767 168.014 200.365 167.185 199.963 167.185 199.159 166.357 
       198.756 166.357 197.952 166.357 197.148 166.357 196.746 165.527 
       196.344 165.527 195.941 165.527 195.137 164.699 194.333 165.527 
       193.931 165.527 193.126 165.527 192.724 165.527 192.322 166.357 
       191.518 165.527 190.714 165.527 190.312 164.699 189.507 164.699 
       189.105 165.527 188.703 165.527 188.301 166.357 187.496 165.527 
       186.692 164.699 185.888 164.699 185.084 164.699 184.682 165.527 
       184.279 165.527 183.475 166.357 182.671 166.357 181.867 165.527 
       181.464 165.527 180.66 164.699 179.856 165.527 179.454 165.527 
       178.65 165.527 178.247 166.357 177.443 165.527 176.639 164.699 
       175.835 164.699 175.432 164.699 175.03 164.699 174.629 165.527 
       174.629 166.357 174.226 168.014 173.824 168.014 173.422 168.014 
       173.422 168.842 173.422 172.988 173.422 173.816 173.824 173.816 
       174.226 173.816 174.629 173.816 175.03 174.645 175.835 174.645 
       176.237 174.645 177.041 175.473 177.845 175.473 178.65 175.473 
       179.454 174.645 179.856 173.816 180.66 174.645 181.464 175.473 
       182.269 175.473 182.671 175.473 183.475 174.645 184.279 174.645 
       185.084 173.816 185.888 172.988 186.29 173.816 186.692 173.816 
       187.496 173.816 188.301 173.816 189.105 173.816 189.507 172.988 
       190.312 172.988 190.714 172.158 191.116 172.988 191.518 172.988 
       192.322 172.988 193.126 173.816 193.529 173.816 194.333 173.816 
       195.137 172.988 195.539 172.158 196.344 172.988 197.148 172.988 
       197.952 173.816 198.756 173.816 199.561 173.816 200.365 173.816 
       201.169 172.988 201.973 172.988 202.376 172.988 202.778 172.988 
       203.18 172.988 203.582 173.816 203.984 173.816 204.386 173.816 
       204.788 172.988 205.191 172.988 205.995 172.988 206.397 173.816 
       207.201 173.816 208.005 173.816 209.212 173.816 210.016 173.816 
       210.418 172.988 211.222 172.988 212.027 172.988 213.233 173.816 
       214.038 173.816 214.842 173.816 215.646 172.988 216.45 172.988 
       217.255 172.988 218.059 172.988 218.863 172.988 219.265 172.158 
       219.667 172.158 219.667 171.329 219.265 170.501 218.863 169.672 
       218.461 168.842 217.657 168.842 217.657 168.842 217.657 168.842 
       217.657 168.842 217.657 168.842 217.657 168.842 217.657 168.842 "
       style=" stroke:#000000; stroke-width:1; fill:#025602; fill-opacity:100%"></polygon>
      <polygon points="156.265 169.526 155.056 168.686 154.653 168.686 
       154.25 167.847 153.847 168.686 153.443 168.686 152.637 169.526 
       152.234 168.686 151.831 167.847 151.428 167.847 151.025 167.847 
       150.621 168.686 149.815 168.686 149.412 169.526 149.412 169.526 
       148.605 169.526 147.799 168.686 146.993 167.847 145.783 167.847 
       144.978 167.847 144.574 167.847 143.768 168.686 142.962 169.526 
       142.558 168.686 142.558 168.686 142.155 168.686 141.752 167.847 
       140.946 167.847 140.543 167.847 140.139 167.847 139.736 167.847 
       139.333 167.008 138.93 167.008 138.124 167.008 137.72 167.847 
       137.317 167.847 136.914 167.847 136.511 167.847 136.108 167.847 
       135.302 167.847 134.899 167.008 134.495 167.008 134.092 167.847 
       134.092 167.847 133.689 168.686 132.883 167.847 132.48 167.847 
       131.673 167.008 131.27 167.008 130.867 167.847 130.464 167.847 
       129.658 168.686 129.255 168.686 128.851 167.847 128.045 167.847 
       127.642 167.847 127.239 167.847 126.432 167.847 126.03 167.847 
       125.626 168.686 125.223 167.847 124.417 167.847 124.014 167.847 
       123.611 167.847 123.207 167.847 123.207 167.847 122.804 168.686 
       122.804 170.367 122.401 170.367 122.401 170.367 121.998 171.206 
       121.998 172.045 121.595 172.885 121.595 173.724 121.595 174.564 
       121.998 175.404 121.998 175.404 122.401 175.404 123.207 175.404 
       123.611 175.404 124.014 176.243 124.417 176.243 124.82 176.243 
       125.626 176.243 126.03 176.243 126.835 176.243 127.239 175.404 
       127.642 176.243 128.045 176.243 128.851 176.243 129.255 176.243 
       130.061 175.404 130.464 175.404 131.27 174.564 131.673 174.564 
       132.077 174.564 132.48 175.404 132.883 175.404 133.286 175.404 
       134.092 174.564 134.495 174.564 135.302 173.724 135.705 173.724 
       135.705 173.724 136.108 173.724 136.511 174.564 137.317 174.564 
       137.72 174.564 138.124 174.564 138.93 173.724 139.333 173.724 
       139.736 173.724 140.543 173.724 140.946 174.564 141.752 174.564 
       142.155 174.564 142.962 174.564 143.365 173.724 143.768 173.724 
       144.574 173.724 144.574 173.724 144.978 173.724 145.38 174.564 
       145.783 174.564 146.187 174.564 146.187 173.724 146.59 173.724 
       146.993 173.724 147.799 174.564 148.202 174.564 149.009 174.564 
       149.412 174.564 150.218 173.724 150.621 173.724 151.025 173.724 
       151.831 173.724 152.637 173.724 153.443 173.724 153.847 173.724 
       154.653 173.724 155.056 173.724 155.862 173.724 156.265 173.724 
       157.072 172.885 157.475 172.885 157.475 172.045 157.475 171.206 
       157.475 171.206 157.072 170.367 156.669 170.367 156.265 169.526 
       156.265 169.526 156.265 169.526 156.265 169.526 156.265 169.526 
       156.265 169.526 156.265 169.526 "
       style=" stroke:#000000; stroke-width:1; fill:#025602; fill-opacity:100%"></polygon>
      <polygon points="125.568 169.522 124.361 168.701 123.557 167.88 
       123.155 167.88 122.753 167.88 122.351 168.701 121.547 168.701 
       120.742 168.701 120.34 168.701 119.938 167.88 119.134 167.88 
       118.732 167.88 117.928 167.88 117.526 168.701 116.721 169.522 
       116.319 170.342 115.515 169.522 114.309 168.701 113.102 167.88 
       112.298 167.059 111.092 167.059 109.885 167.059 109.081 167.88 
       108.277 169.522 107.875 168.701 107.473 168.701 107.071 167.88 
       106.668 167.88 105.462 167.88 105.06 167.88 104.256 167.88 
       103.854 167.059 103.452 167.059 102.648 167.059 102.245 167.059 
       101.441 167.059 100.637 167.059 100.235 167.88 99.8328 167.88 
       99.4308 167.88 98.2241 167.059 97.8225 167.059 97.4201 167.059 
       97.0178 167.059 96.2138 167.059 95.8118 167.88 95.0075 167.88 
       94.6055 167.059 93.3988 166.238 92.9968 167.059 92.1925 167.059 
       91.7905 167.88 90.9865 168.701 90.5842 167.88 89.7802 167.88 
       88.9759 167.059 88.1715 167.059 87.3672 167.059 86.9652 167.88 
       86.1612 167.88 85.7589 168.701 84.9549 167.88 84.1506 167.059 
       83.3462 167.059 82.9442 167.059 82.5419 167.059 82.1399 167.88 
       82.1399 168.701 82.1399 170.342 81.7379 170.342 81.3356 171.164 
       80.9336 171.985 80.9336 172.805 80.5316 173.626 80.5316 175.269 
       80.5316 176.089 80.5316 176.91 80.9336 176.91 81.7379 176.91 
       82.1399 176.91 82.5419 176.91 83.3462 177.731 83.7486 177.731 
       84.5525 178.553 85.3569 178.553 86.1612 177.731 86.9652 177.731 
       87.3672 176.91 88.1715 177.731 88.9759 177.731 89.7802 177.731 
       90.5842 177.731 91.3885 177.731 91.7905 176.91 92.5948 176.089 
       93.3988 176.089 93.8011 176.089 94.6055 176.91 95.0075 176.91 
       95.8118 176.089 96.6158 176.089 97.4201 176.089 97.8225 175.269 
       98.6264 174.447 99.0284 175.269 99.4308 175.269 99.8328 176.089 
       100.637 176.089 101.441 176.089 102.245 176.089 102.648 175.269 
       103.049 174.447 103.854 175.269 105.06 175.269 105.864 176.089 
       106.668 176.089 107.473 176.089 108.277 176.089 108.679 175.269 
       109.483 174.447 110.288 174.447 110.69 175.269 111.092 175.269 
       111.494 175.269 111.896 175.269 112.298 175.269 112.7 175.269 
       113.102 174.447 113.505 175.269 114.309 176.089 115.113 176.089 
       115.917 176.089 116.721 176.089 117.526 175.269 118.33 175.269 
       118.732 174.447 119.938 175.269 121.547 175.269 122.351 175.269 
       123.557 174.447 124.361 174.447 124.764 174.447 125.97 174.447 
       126.372 174.447 127.176 173.626 127.176 172.805 127.176 171.985 
       127.176 171.164 126.774 170.342 126.372 170.342 125.568 169.522 
       125.568 169.522 125.568 169.522 125.568 169.522 125.568 169.522 
       125.568 169.522 125.568 169.522 "
       style=" stroke:#000000; stroke-width:1; fill:#025602; fill-opacity:100%"></polygon>
      <polygon points="5.98004 173.576 5.98004 171.112 6.38082 170.292 
       6.78157 169.47 7.18235 169.47 7.58313 169.47 7.98391 169.47 
       8.78544 169.47 9.18618 168.649 9.98774 168.649 10.3885 168.649 
       10.7893 168.649 11.19 168.649 11.19 168.649 11.5908 168.649 
       11.9916 168.649 12.7931 168.649 13.5947 169.47 13.9954 168.649 
       14.797 168.649 15.1977 168.649 15.5985 167.828 16.4 168.649 
       16.8008 168.649 17.6024 170.292 18.0031 170.292 18.4039 169.47 
       18.8047 169.47 19.6062 169.47 20.0069 169.47 20.4077 169.47 
       20.8085 170.292 21.2092 170.292 22.0108 170.292 22.4116 170.292 
       23.2131 169.47 23.6139 169.47 24.4153 168.649 24.8161 168.649 
       25.6178 169.47 26.0184 170.292 26.82 170.292 27.2209 170.292 
       27.6214 169.47 28.4231 169.47 28.8239 169.47 29.2245 169.47 
       30.0262 169.47 30.427 169.47 30.8277 168.649 31.6294 168.649 
       32.0301 167.828 32.4308 167.828 33.2324 168.649 33.6331 168.649 
       34.0338 169.47 34.4345 170.292 35.2362 169.47 36.0376 169.47 
       36.4385 168.649 36.8392 168.649 37.2399 168.649 37.6407 168.649 
       38.0416 168.649 38.8429 170.292 40.0455 168.649 40.8468 168.649 
       41.2477 167.828 41.6485 167.828 42.049 168.649 42.4499 169.47 
       43.2516 169.47 43.6521 168.649 44.0529 168.649 44.8546 167.828 
       45.2555 167.828 46.0572 168.649 46.4577 168.649 47.259 169.47 
       47.6602 170.292 48.4616 169.47 49.6638 168.649 50.4651 167.828 
       51.6677 167.828 52.8699 167.828 53.6716 167.828 54.4729 168.649 
       55.2746 170.292 55.6755 169.47 56.076 168.649 56.4768 168.649 
       57.2785 167.828 58.0799 167.828 58.4807 167.828 58.8816 167.828 
       59.2821 167.008 60.0838 167.008 60.4846 167.008 61.2864 167.008 
       61.6868 167.828 62.4882 167.828 62.8894 167.828 63.2899 167.828 
       64.0912 167.828 64.8929 167.828 65.2938 167.008 65.6943 167.008 
       66.0955 167.008 66.8969 167.828 67.2977 168.649 67.6986 167.828 
       68.4999 167.008 69.7025 167.008 70.103 167.008 70.5038 167.828 
       71.3055 167.828 71.706 168.649 72.5077 168.649 73.3091 167.828 
       73.7099 167.828 74.5116 167.828 74.9121 167.828 75.7138 167.828 
       76.5152 168.649 76.916 168.649 77.7177 167.828 78.5191 167.828 
       78.9199 167.008 79.7213 167.008 80.1221 167.828 80.1221 167.828 
       80.523 169.47 80.523 170.292 80.9238 171.112 81.3243 171.112 
       81.3243 171.933 81.7252 172.754 82.126 174.396 82.126 175.217 
       82.126 176.038 81.7252 176.859 81.3243 176.859 80.9238 176.859 
       80.1221 176.859 79.7213 176.859 79.3208 177.68 78.5191 177.68 
       77.7177 178.501 76.916 178.501 76.5152 177.68 75.7138 177.68 
       75.313 176.859 74.5116 177.68 73.7099 177.68 73.3091 177.68 
       72.5077 177.68 71.706 177.68 70.9047 176.859 70.103 176.038 
       69.7025 176.038 69.3016 176.038 68.4999 176.859 67.6986 176.859 
       67.2977 176.038 66.496 176.038 65.6943 176.038 65.2938 175.217 
       64.4925 174.396 64.4925 175.217 63.6908 175.217 63.2899 176.038 
       62.4882 176.038 62.0877 176.038 61.2864 176.038 60.4846 175.217 
       60.0838 174.396 59.2821 175.217 58.4807 175.217 57.679 176.038 
       56.8777 176.038 56.076 176.038 55.6755 176.038 54.8738 175.217 
       54.0724 174.396 53.6716 174.396 53.2707 175.217 52.8699 175.217 
       52.4694 175.217 52.0682 176.038 51.6677 176.038 51.2668 175.217 
       50.8663 174.396 47.259 175.217 38.8429 179.322 5.98004 173.576 
       5.98004 173.576 5.98004 173.576 5.98004 173.576 5.98004 173.576 
       5.98004 173.576 5.98004 173.576 "
       style=" stroke:#000000; stroke-width:1; fill:#025602; fill-opacity:100%"></polygon>
      <polygon points="21.1711 201.641 24.3935 205.626 36.0755 210.408 
       37.2838 210.408 38.0896 210.408 38.8951 211.205 39.7009 211.205 
       40.5064 211.205 41.715 212.004 42.1177 212.801 43.3263 213.596 
       43.729 213.596 44.9372 214.395 45.743 214.395 46.9516 215.192 
       48.1598 216.786 48.9657 217.583 49.7715 218.38 50.1742 219.177 
       51.3824 219.974 52.5914 219.974 53.3968 220.771 54.605 221.569 
       55.0082 222.365 55.814 223.162 55.814 223.162 55.0082 223.959 
       54.2023 223.959 52.9941 223.959 51.7855 223.959 50.5773 223.162 
       49.3688 223.162 48.1598 222.365 46.9516 221.569 46.5489 221.569 
       45.743 221.569 44.9372 221.569 44.1321 220.771 43.3263 219.974 
       42.5204 219.974 41.715 219.177 41.3122 218.38 40.5064 218.38 
       40.1037 218.38 39.2982 218.38 38.4923 217.583 38.0896 217.583 
       37.2838 216.786 36.4783 215.989 35.6726 215.192 34.867 214.395 
       34.0613 214.395 33.6586 213.596 33.2558 211.205 22.3796 207.22 
       17.1428 206.423 19.5598 202.438 21.1711 201.641 21.1711 201.641 
       21.1711 201.641 21.1711 201.641 21.1711 201.641 21.1711 201.641 21.1711 201.641 "
       style=" stroke:#000000; stroke-width:1; fill:#025602; fill-opacity:100%"></polygon>
      <polygon points="17.1428 207.01 17.1428 206.225 17.1428 206.225 
       17.1428 206.225 17.5664 205.439 17.5664 205.439 17.99 204.652 
       17.99 204.652 18.4136 203.868 18.4136 203.868 18.8372 203.08 
       18.8372 203.08 18.8372 203.08 19.2608 202.294 19.2608 202.294 
       19.2608 201.51 19.2608 201.51 19.2608 170.855 21.3787 170.855 
       21.3787 201.51 21.3787 201.51 21.3787 202.294 21.3787 202.294 
       21.8022 202.294 21.8022 203.08 21.8022 203.08 22.2259 203.08 
       22.2259 203.868 22.6495 203.868 22.6495 203.868 23.073 204.652 
       23.073 204.652 23.4966 204.652 23.4966 205.439 23.4966 205.439 
       23.9202 206.225 23.4966 205.439 23.073 205.439 22.6495 205.439 
       22.2259 204.652 22.2259 204.652 21.8022 204.652 21.3787 204.652 
       21.3787 203.868 21.3787 204.652 21.8022 205.439 21.8022 205.439 
       21.8022 206.225 22.2259 206.225 22.2259 207.01 22.2259 207.01 
       22.2259 207.797 22.2259 207.01 21.8022 207.01 21.3787 206.225 
       21.3787 206.225 20.9551 205.439 20.5315 204.652 20.5315 204.652 
       20.1079 203.868 20.1079 204.652 19.6844 205.439 19.6844 205.439 
       19.6844 205.439 19.2608 206.225 19.2608 206.225 18.8372 206.225 
       18.8372 207.01 18.8372 206.225 18.8372 206.225 18.8372 206.225 
       19.2608 205.439 19.2608 205.439 19.2608 204.652 19.2608 204.652 
       19.2608 203.868 18.8372 204.652 18.8372 205.439 18.4136 205.439 
       17.99 205.439 17.5664 206.225 17.5664 206.225 17.1428 206.225 
       17.1428 207.01 17.1428 207.01 17.1428 207.01 17.1428 207.01 
       17.1428 207.01 17.1428 207.01 17.1428 207.01 "
       style=" stroke:#ab0202; stroke-width:1; fill:#ab0202; fill-opacity:100%"></polygon>
      <polygon points="23.7642 113.159 22.1002 110.825 21.2682 121.713 
       18.7722 131.821 17.9402 180.034 19.1882 185.479 19.1882 184.7 
       19.1882 183.923 19.1882 183.146 19.1882 181.59 19.6042 180.812 
       19.6042 180.034 19.6042 179.258 19.6042 179.258 20.0202 178.48 
       20.4362 178.48 20.8522 179.258 20.8522 180.034 20.8522 180.812 
       21.2682 182.367 21.2682 183.923 21.2682 184.7 21.2682 185.479 
       22.5163 183.923 23.3482 182.367 24.1803 180.812 25.0122 178.48 
       25.4282 176.925 25.8443 176.147 25.8443 174.591 25.4282 173.036 
       25.4282 172.258 25.8443 169.925 26.2601 167.593 26.6762 165.26 
       27.0922 162.927 26.6762 161.371 26.2601 159.816 25.8443 159.038 
       26.2601 158.262 26.6762 155.929 27.0922 153.595 27.5083 151.262 
       27.5083 149.707 27.0922 147.375 26.6762 145.819 26.2601 145.819 
       26.2601 144.264 26.6762 143.486 26.6762 141.931 26.6762 140.376 
       26.6762 138.82 26.6762 138.042 26.2601 137.266 25.8443 137.266 
       25.8443 136.488 25.8443 134.932 25.8443 134.155 26.2601 132.599 
       26.2601 131.044 25.8443 130.266 25.8443 129.488 25.4282 129.488 
       25.4282 128.71 25.4282 127.155 25.4282 126.379 25.8443 124.823 
       25.4282 124.046 25.4282 123.268 25.0122 122.49 24.1803 122.49 
       24.1803 120.935 24.1803 119.38 24.1803 117.046 23.7642 114.714 
       23.7642 113.159 23.7642 113.159 23.7642 113.159 23.7642 113.159 
       23.7642 113.159 23.7642 113.159 23.7642 113.159 "
       style=" stroke:#000000; stroke-width:1; fill:#025602; fill-opacity:100%"></polygon>
      <polygon points="19.3355 185.479 18.9187 184.702 18.0852 183.146 
       17.6683 182.369 17.2516 181.59 17.2516 180.813 16.8348 179.259 
       16.8348 177.703 17.2516 176.148 16.418 175.37 16.0012 173.815 
       15.5844 171.482 15.1676 169.928 15.1676 167.595 15.1676 166.04 
       15.5844 164.485 16.0012 163.707 15.5844 161.374 15.1676 159.042 
       15.1676 155.932 14.7508 152.821 14.7508 150.488 15.1676 148.934 
       15.5844 147.379 16.0012 146.601 15.5844 144.268 15.5844 141.157 
       15.5844 138.048 16.0012 134.937 16.0012 132.605 16.418 131.05 
       17.2516 129.494 17.6683 129.494 17.6683 127.94 17.6683 126.384 
       17.6683 124.83 18.0852 124.052 18.502 123.274 18.9187 122.497 
       19.3355 122.497 20.1691 122.497 19.7523 120.941 19.7523 118.609 
       19.7523 116.277 19.7523 114.721 20.1691 113.166 20.5859 111.611 
       21.4195 110.833 22.253 110.056 23.0865 110.833 23.5034 111.611 
       23.9202 113.166 23.5034 114.721 23.5034 116.277 23.5034 117.054 
       23.0865 118.609 23.0865 120.164 23.0865 120.941 22.6699 122.497 
       22.6699 124.052 21.8362 124.052 21.4195 125.607 20.5859 127.162 
       20.1691 127.94 19.7523 130.272 19.7523 131.827 19.7523 132.605 
       19.7523 134.16 20.1691 135.715 20.1691 137.271 20.5859 138.826 
       20.5859 140.38 20.5859 141.935 20.1691 143.491 20.1691 144.268 
       19.7523 145.823 20.5859 145.823 21.4195 147.379 21.8362 148.156 
       21.8362 149.712 22.253 152.044 22.253 153.599 21.8362 155.154 
       21.8362 156.709 22.6699 157.487 23.0865 159.042 23.0865 160.596 
       23.0865 162.152 23.0865 163.707 22.6699 165.263 22.253 167.595 
       21.8362 169.15 21.0027 169.15 20.5859 169.15 20.5859 169.928 
       20.1691 170.706 20.1691 171.482 20.5859 173.038 20.5859 173.815 
       21.0027 175.37 20.1691 176.148 19.7523 176.148 19.7523 176.926 
       19.3355 178.481 19.3355 180.036 19.3355 182.369 19.3355 185.479 
       19.3355 185.479 19.3355 185.479 19.3355 185.479 19.3355 185.479 
       19.3355 185.479 19.3355 185.479 "
       style=" stroke:#025602; stroke-width:1; fill:#00ff00; fill-opacity:100%"></polygon>
      <polyline points="19.5349 180.861 19.5349 201.537 19.5349 202.332 
       19.5349 202.332 19.0033 203.128 19.0033 203.128 18.4717 203.923 
       18.4717 203.923 17.9402 204.72 17.9402 204.72"
       style=" stroke:#ffab00; stroke-width:1;"></polyline>
      <polyline points="19.9336 178.553 19.9336 201.568 19.9336 202.362 
       19.9336 202.362 19.1362 203.155 19.1362 203.95"
       style=" stroke:#ffab00; stroke-width:1;"></polyline>
      <polyline points="19.9335 178.553 19.9335 203.181"
       style=" stroke:#ffab00; stroke-width:1;"></polyline>
      <polygon points="47.4865 207.029 51.1054 211.781 65.5813 218.12 
       66.7876 218.12 67.592 218.912 68.7983 218.912 70.0046 218.912 
       70.809 219.704 72.0149 219.704 73.2212 220.496 74.0256 222.082 
       74.8299 222.082 76.0362 222.082 77.2425 222.873 78.4489 224.458 
       80.0576 225.251 80.8619 226.043 82.0678 227.627 82.4698 228.419 
       83.6761 229.211 85.2848 230.003 86.4911 230.795 87.6975 231.589 
       88.5018 232.381 88.9034 232.381 88.9034 233.965 88.0995 233.965 
       87.2951 233.965 85.6868 233.965 84.0785 233.965 82.8718 233.965 
       81.2635 233.172 79.6552 232.381 78.4489 230.795 77.6449 230.795 
       76.8406 230.795 76.0362 230.795 75.2319 230.795 74.0256 230.003 
       73.2212 229.211 72.4173 228.419 71.6129 226.834 70.809 227.627 
       70.0046 227.627 69.2003 226.834 68.3959 226.834 67.592 226.043 
       66.7876 225.251 65.9837 224.458 65.1793 223.666 63.973 222.873 
       63.1687 222.873 62.3643 221.29 61.9627 219.704 49.0951 214.159 
       42.2592 212.573 45.4762 208.612 47.4865 207.029 47.4865 207.029 
       47.4865 207.029 47.4865 207.029 47.4865 207.029 47.4865 207.029 47.4865 207.029 "
       style=" stroke:#000000; stroke-width:1; fill:#025602; fill-opacity:100%"></polygon>
      <polygon points="42.2592 213.158 42.2592 213.158 42.6777 212.375 
       42.6777 212.375 43.0962 211.592 43.0962 211.592 43.5147 210.808 
       43.5147 210.808 43.9336 210.026 44.3521 210.026 44.3521 209.242 
       44.7706 209.242 44.7706 208.46 44.7706 207.676 45.1894 207.676 
       45.1894 207.676 45.1894 206.892 45.1894 170.086 47.7012 170.086 
       47.7012 206.892 47.7012 207.676 47.7012 207.676 47.7012 207.676 
       48.1197 208.46 48.1197 208.46 48.1197 209.242 48.5382 209.242 
       48.9567 209.242 48.9567 210.026 49.3755 210.026 49.3755 210.808 
       49.794 210.808 49.794 211.592 50.2125 211.592 50.2125 211.592 
       50.6314 212.375 50.2125 211.592 49.794 211.592 49.3755 211.592 
       48.9567 210.808 48.5382 210.808 48.1197 210.808 47.7012 210.026 
       47.7012 210.026 47.7012 210.808 48.1197 211.592 48.1197 211.592 
       48.5382 212.375 48.5382 213.158 48.5382 213.158 48.5382 213.942 
       48.9567 214.724 48.5382 213.942 48.1197 213.158 47.7012 213.158 
       47.7012 212.375 47.2823 211.592 46.8638 210.808 46.4449 210.808 
       46.4449 210.026 46.0268 210.808 46.0268 211.592 45.6079 211.592 
       45.6079 212.375 45.1894 212.375 45.1894 213.158 44.7706 213.158 
       44.7706 213.158 44.7706 213.158 44.7706 212.375 44.7706 212.375 
       44.7706 211.592 45.1894 211.592 45.1894 210.808 45.1894 210.808 
       45.1894 210.026 44.7706 210.808 44.3521 211.592 43.9336 211.592 
       43.9336 212.375 43.5147 212.375 43.0962 213.158 42.6777 213.158 
       42.2592 213.158 42.2592 213.158 42.2592 213.158 42.2592 213.158 
       42.2592 213.158 42.2592 213.158 42.2592 213.158 "
       style=" stroke:#ab0202; stroke-width:1; fill:#ab0202; fill-opacity:100%"></polygon>
      <polygon points="50.4745 100.071 48.823 97.742 47.5844 110.938 
       44.6936 123.359 43.455 181.578 45.1069 187.788 45.1069 187.011 
       45.1069 185.459 45.1069 184.682 45.1069 183.906 45.1069 182.355 
       45.5197 181.578 45.5197 180.801 45.5197 180.025 46.3455 179.249 
       46.7583 179.249 47.1712 180.025 47.1712 181.578 47.1712 182.355 
       47.5844 183.906 47.5844 185.459 47.5844 187.011 47.5844 187.788 
       48.823 185.459 50.0616 183.906 51.3002 181.578 52.1263 180.025 
       52.5392 177.695 52.9521 176.144 52.9521 174.591 52.1263 173.038 
       52.5392 171.487 53.3649 169.157 53.7778 166.828 54.1907 163.724 
       54.1907 161.396 54.1907 159.066 53.7778 157.513 52.9521 155.961 
       53.7778 154.409 54.1907 152.08 54.6035 149.751 55.0164 146.646 
       55.0164 144.317 54.6035 141.988 54.1907 140.436 53.3649 140.436 
       53.7778 138.884 53.7778 137.331 54.1907 135.002 54.1907 133.45 
       54.1907 131.897 53.7778 130.344 53.3649 129.568 52.9521 129.568 
       52.9521 128.792 52.9521 127.24 53.3649 125.687 53.3649 124.134 
       53.3649 122.583 53.3649 121.806 52.9521 121.03 52.5392 120.253 
       52.5392 119.477 52.5392 117.925 52.5392 116.372 52.9521 114.819 
       52.5392 114.043 52.5392 112.491 51.7131 112.491 50.8877 111.715 
       50.8877 110.162 50.8877 107.833 50.8877 105.504 50.4745 103.176 
       50.4745 100.071 50.4745 100.071 50.4745 100.071 50.4745 100.071 
       50.4745 100.071 50.4745 100.071 50.4745 100.071 "
       style=" stroke:#000000; stroke-width:1; fill:#025602; fill-opacity:100%"></polygon>
      <polygon points="45.2491 187.788 44.8351 186.236 44.0071 185.459 
       43.1791 183.906 42.7651 183.131 42.3512 181.578 42.3512 180.026 
       42.3512 178.473 42.3512 176.921 41.9372 175.368 41.1092 173.816 
       40.6952 171.488 40.2812 169.158 40.2812 166.831 40.2812 164.502 
       40.6952 162.949 41.5232 162.173 40.6952 159.068 40.2812 155.964 
       39.8672 152.082 39.8672 148.978 39.8672 145.873 40.2812 143.544 
       40.6952 141.991 41.5232 141.215 41.1092 138.111 40.6952 134.23 
       40.6952 130.348 41.1092 127.244 41.5232 124.14 41.9372 121.811 
       42.3512 120.258 43.1791 120.258 43.1791 117.93 43.1791 116.377 
       43.5931 114.824 43.5931 113.273 44.0071 112.496 44.8351 111.72 
       45.2491 111.72 46.0775 112.496 46.0775 110.168 45.6631 107.839 
       45.6631 104.734 45.6631 102.406 46.0775 100.077 46.9051 98.5245 
       47.7334 96.9723 48.9754 96.9723 49.3894 97.7486 50.2174 98.5245 
       50.6314 100.077 49.803 100.853 49.3894 101.629 48.9754 103.958 
       48.9754 105.51 48.561 107.839 48.561 110.168 48.9754 112.496 
       48.9754 114.049 49.803 115.601 48.9754 116.377 48.1471 117.153 
       47.7334 118.706 47.7334 121.034 46.9051 122.587 46.4911 124.14 
       46.4911 125.691 46.9051 127.244 46.9051 128.02 47.3191 129.573 
       47.7334 131.901 47.7334 133.454 47.7334 135.006 47.7334 136.558 
       48.1471 138.111 48.1471 138.887 46.9051 138.111 46.4911 138.111 
       46.0775 138.887 45.6631 139.664 46.9051 141.991 47.3191 142.768 
       47.3191 144.32 47.3191 145.873 47.7334 147.425 48.1471 148.978 
       48.561 150.53 48.561 152.859 48.9754 154.411 48.1471 155.188 
       47.7334 155.188 47.3191 155.964 46.9051 159.068 47.3191 160.621 
       47.7334 161.397 48.1471 162.949 48.9754 163.726 48.1471 164.502 
       47.7334 166.054 47.7334 167.606 47.7334 169.158 46.4911 169.158 
       46.0775 170.711 46.4911 173.04 46.9051 176.145 46.9051 176.145 
       46.4911 176.145 46.0775 176.921 45.6631 177.696 45.2491 179.249 
       44.8351 181.578 44.8351 183.906 45.2491 187.788 45.2491 187.788 
       45.2491 187.788 45.2491 187.788 45.2491 187.788 45.2491 187.788 45.2491 187.788 "
       style=" stroke:#025602; stroke-width:1; fill:#00ff00; fill-opacity:100%"></polygon>
      <polyline points="45.4484 182.4 45.4484 206.904 45.4484 207.695 
       45.4484 208.485 44.95 208.485 44.95 209.274 44.4519 210.066 
       43.9535 210.066 43.9535 210.856 43.455 211.645"
       style=" stroke:#ffab00; stroke-width:1;"></polyline>
      <polyline points="45.847 179.322 45.847 206.949 45.847 207.739 
       45.847 208.528 45.0498 209.317 45.0498 210.106"
       style=" stroke:#ffab00; stroke-width:1;"></polyline>
      <polyline points="46.2456 179.322 46.2456 209.337"
       style=" stroke:#ffab00; stroke-width:1;"></polyline>
      <polygon points="129.568 226.159 119.478 228.577 118.671 227.771 
       117.46 226.966 117.056 226.159 116.249 223.739 103.738 218.096 
       96.877 217.29 100.106 212.452 101.72 211.645 105.756 216.484 
       120.285 222.932 121.496 222.932 122.303 222.932 123.514 222.932 
       124.321 223.739 125.532 223.739 126.743 224.547 127.55 225.353 
       128.761 226.159 129.568 226.159 129.568 226.159 129.568 226.159 
       129.568 226.159 129.568 226.159 129.568 226.159 129.568 226.159 "
       style=" stroke:#000000; stroke-width:1; fill:#025602; fill-opacity:100%"></polygon>
      <polygon points="129.332 225.498 130.142 226.317 131.764 227.134 
       132.98 227.954 134.196 228.771 135.413 230.406 136.224 231.223 
       136.629 232.04 138.251 232.859 139.873 233.676 140.683 234.495 
       141.9 235.312 142.711 236.129 143.522 236.948 143.522 237.765 
       142.711 238.582 141.494 238.582 140.278 238.582 138.657 238.582 
       137.035 237.765 135.818 237.765 134.196 236.948 132.98 235.312 
       132.17 235.312 131.359 235.312 130.548 235.312 129.332 234.495 
       128.521 233.676 127.305 233.676 126.493 232.04 126.088 231.223 
       125.277 231.223 124.467 231.223 123.656 231.223 122.845 230.406 
       122.034 230.406 119.601 227.954 129.332 225.498 129.332 225.498 
       129.332 225.498 129.332 225.498 129.332 225.498 129.332 225.498 129.332 225.498 "
       style=" stroke:#000000; stroke-width:1; fill:#000000; fill-opacity:100%"></polygon>
      <polygon points="96.877 217.789 96.877 217.006 97.2966 217.006 
       97.2966 216.223 97.7166 216.223 97.7166 215.439 98.1359 215.439 
       98.1359 214.657 98.5555 214.657 98.9755 213.872 98.9755 213.872 
       98.9755 213.09 99.3951 213.09 99.3951 212.308 99.3951 212.308 
       99.8147 211.524 99.8147 211.524 99.8147 173.934 101.913 173.934 
       101.913 211.524 101.913 211.524 102.332 212.308 102.332 212.308 
       102.332 213.09 102.752 213.09 102.752 213.09 103.172 213.872 
       103.172 213.872 103.591 214.657 104.011 214.657 104.011 214.657 
       104.431 215.439 104.431 215.439 104.851 216.223 104.851 216.223 
       104.851 217.006 104.431 216.223 104.011 216.223 103.591 215.439 
       103.591 215.439 103.172 215.439 102.752 214.657 102.332 214.657 
       101.913 214.657 102.332 215.439 102.332 215.439 102.752 216.223 
       102.752 217.006 103.172 217.006 103.172 217.789 103.172 217.789 
       103.172 218.573 102.752 218.573 102.752 217.789 102.332 217.006 
       101.913 217.006 101.913 216.223 101.493 215.439 101.074 214.657 
       101.074 214.657 100.654 215.439 100.654 215.439 100.234 216.223 
       99.8147 216.223 99.8147 217.006 99.3951 217.006 99.3951 217.789 
       99.3951 217.789 99.3951 217.006 99.3951 217.006 99.3951 216.223 
       99.3951 216.223 99.3951 215.439 99.3951 215.439 99.8147 214.657 
       99.8147 214.657 99.3951 215.439 98.9755 215.439 98.5555 216.223 
       98.1359 216.223 98.1359 217.006 97.7166 217.006 97.2966 217.789 
       96.877 217.789 96.877 217.789 96.877 217.789 96.877 217.789 
       96.877 217.789 96.877 217.789 96.877 217.789 "
       style=" stroke:#ab0202; stroke-width:1; fill:#ab0202; fill-opacity:100%"></polygon>
      <polygon points="104.688 104.688 103.034 102.36 101.794 115.557 
       99.3133 127.202 98.0728 185.424 99.7269 191.635 99.7269 190.859 
       99.7269 190.082 99.7269 189.308 99.7269 187.754 99.7269 186.977 
       99.7269 185.424 100.14 184.649 100.14 184.649 100.967 183.096 
       101.381 183.873 101.381 184.649 101.794 185.424 101.794 186.977 
       101.794 188.531 101.794 190.082 101.794 190.859 101.794 191.635 
       103.448 190.082 104.688 187.754 105.929 186.201 106.755 183.873 
       107.169 182.32 107.582 180.767 107.169 179.214 106.755 176.886 
       107.169 176.109 107.996 173.78 108.409 170.675 108.822 168.345 
       108.822 165.241 108.822 162.911 108.409 161.36 107.582 160.583 
       107.996 159.03 108.822 156.701 109.236 154.373 109.236 151.266 
       109.236 148.938 109.236 146.609 108.822 145.057 107.996 144.28 
       108.409 142.728 108.409 141.175 108.822 139.623 108.822 138.07 
       108.822 136.517 108.409 134.964 107.996 134.189 107.582 134.189 
       107.582 132.636 107.582 131.083 107.996 129.53 107.996 128.754 
       107.996 127.202 107.996 126.425 107.582 124.872 107.169 124.872 
       107.169 123.32 107.169 121.768 107.169 120.214 107.169 119.438 
       107.169 117.886 107.169 117.11 106.342 116.334 105.515 116.334 
       105.515 114.004 105.515 112.452 105.515 109.346 105.102 107.018 
       104.688 104.688 104.688 104.688 104.688 104.688 104.688 104.688 
       104.688 104.688 104.688 104.688 104.688 104.688 "
       style=" stroke:#000000; stroke-width:1; fill:#025602; fill-opacity:100%"></polygon>
      <polygon points="99.8752 191.635 99.0461 190.859 98.6313 190.082 
       97.8022 188.531 97.3875 187.754 96.9727 186.201 96.558 184.649 
       96.558 183.097 96.9727 181.544 96.1436 179.992 95.7289 177.663 
       95.3141 175.334 94.8994 173.006 94.8994 170.677 94.8994 169.124 
       95.3141 167.572 95.7289 166.019 95.3141 162.913 94.8994 159.809 
       94.485 156.704 94.485 152.823 94.485 150.494 94.485 147.388 
       95.3141 145.837 95.7289 145.837 95.3141 141.955 95.3141 138.85 
       95.3141 134.969 95.3141 131.863 95.7289 128.759 96.558 126.43 
       96.9727 124.878 97.8022 124.878 97.8022 122.549 97.8022 120.996 
       97.8022 119.444 98.2166 117.891 98.6313 116.339 99.4608 116.339 
       99.8752 115.562 100.704 116.339 100.29 114.01 100.29 111.681 
       100.29 109.352 100.29 107.024 100.704 104.695 101.119 103.143 
       102.363 101.59 103.192 101.59 104.021 101.59 104.436 103.143 
       104.851 104.695 104.851 106.248 104.851 108.577 104.851 110.129 
       104.436 111.681 104.021 113.234 104.021 114.786 104.021 115.562 
       104.021 117.115 102.778 118.668 101.948 119.444 101.533 120.996 
       100.704 123.325 100.704 125.653 100.29 127.206 100.29 128.759 
       100.29 130.312 100.704 132.64 101.119 134.193 101.119 135.744 
       101.119 138.074 101.119 139.627 100.704 141.178 100.704 142.731 
       100.29 144.284 101.533 144.284 101.948 145.837 102.363 147.388 
       102.778 148.941 102.778 151.271 102.778 153.599 102.778 155.928 
       102.778 157.48 103.607 158.256 104.021 159.809 104.436 161.362 
       104.436 163.69 104.021 166.019 104.021 168.347 103.192 170.677 
       102.778 173.006 101.948 172.229 101.533 173.006 101.119 173.006 
       100.704 174.557 101.119 175.334 101.119 176.887 101.119 178.439 
       101.533 179.992 101.119 179.992 100.704 180.767 100.29 181.544 
       99.8752 182.32 99.8752 183.873 99.4608 185.424 99.4608 187.754 
       99.8752 191.635 99.8752 191.635 99.8752 191.635 99.8752 191.635 
       99.8752 191.635 99.8752 191.635 99.8752 191.635 "
       style=" stroke:#025602; stroke-width:1; fill:#00ff00; fill-opacity:100%"></polygon>
      <polyline points="100.066 187.018 100.066 211.538 100.066 211.538 
       99.5681 212.329 99.5681 213.121 99.0697 213.91 99.0697 213.91 
       98.5713 214.702 98.0728 214.702 98.0728 215.494"
       style=" stroke:#ffab00; stroke-width:1;"></polyline>
      <polyline points="100.465 183.939 100.465 211.567 100.465 211.567 
       100.465 213.145 99.6676 213.935 99.6676 214.724"
       style=" stroke:#ffab00; stroke-width:1;"></polyline>
      <polyline points="100.864 183.939 100.864 213.185"
       style=" stroke:#ffab00; stroke-width:1;"></polyline>
      <polygon points="153.371 220.882 152.562 220.882 151.753 220.069 
       151.348 219.257 150.539 217.632 139.617 212.757 133.953 211.132 
       136.785 207.07 137.999 206.26 141.64 210.321 154.18 216.007 
       154.989 216.007 156.203 216.819 157.012 216.819 157.821 216.819 
       158.63 217.632 159.439 217.632 160.653 218.444 161.461 219.257 
       153.371 220.882 153.371 220.882 153.371 220.882 153.371 220.882 
       153.371 220.882 153.371 220.882 153.371 220.882 "
       style=" stroke:#000000; stroke-width:1; fill:#025602; fill-opacity:100%"></polygon>
      <polygon points="153.09 220.222 161.216 218.573 162.842 219.397 
       164.061 220.222 165.28 221.046 166.092 221.87 167.311 222.695 
       168.124 223.52 168.53 224.345 169.75 225.169 170.969 225.993 
       172.187 226.818 173 227.644 173.813 227.644 174.219 228.468 
       174.219 229.292 173.407 230.116 172.594 230.116 171.375 230.116 
       170.156 230.116 168.937 229.292 167.311 229.292 166.092 228.468 
       165.28 226.818 164.467 226.818 164.061 226.818 162.842 226.818 
       162.029 226.818 161.216 225.993 160.404 225.169 159.591 224.345 
       159.185 223.52 158.372 223.52 157.559 223.52 157.153 223.52 
       156.34 222.695 155.528 222.695 154.715 221.87 153.09 220.222 
       153.09 220.222 153.09 220.222 153.09 220.222 153.09 220.222 
       153.09 220.222 153.09 220.222 "
       style=" stroke:#000000; stroke-width:1; fill:#000000; fill-opacity:100%"></polygon>
      <polygon points="133.953 211.615 133.953 211.615 133.953 211.615 
       134.377 210.83 134.377 210.83 134.377 210.044 134.801 210.044 
       134.801 209.26 135.224 209.26 135.224 208.473 135.648 208.473 
       135.648 207.689 136.071 207.689 136.071 207.689 136.071 206.905 
       136.495 206.905 136.495 206.119 136.495 173.934 138.189 173.934 
       138.189 206.119 138.189 206.905 138.613 206.905 138.613 207.689 
       138.613 207.689 138.613 207.689 139.036 207.689 139.46 208.473 
       139.46 208.473 139.884 208.473 139.884 209.26 139.884 209.26 
       140.307 210.044 140.307 210.044 140.731 210.044 140.731 210.83 
       140.731 210.83 140.307 210.83 140.307 210.044 139.884 210.044 
       139.46 210.044 139.46 210.044 139.036 209.26 138.613 209.26 
       138.189 209.26 138.613 210.044 138.613 210.044 139.036 210.83 
       139.036 210.83 139.036 211.615 139.46 211.615 139.46 212.399 
       139.46 213.185 139.036 212.399 139.036 211.615 138.613 211.615 
       138.189 210.83 138.189 210.83 137.766 210.044 137.342 209.26 
       137.342 209.26 136.919 210.044 136.919 210.044 136.919 210.83 
       136.495 210.83 136.495 210.83 136.071 211.615 136.071 211.615 
       135.648 211.615 135.648 211.615 136.071 211.615 136.071 210.83 
       136.071 210.83 136.071 210.044 136.071 210.044 136.495 209.26 
       136.495 209.26 136.071 210.044 135.648 210.044 135.224 210.83 
       135.224 210.83 134.801 210.83 134.377 211.615 133.953 211.615 
       133.953 211.615 133.953 211.615 133.953 211.615 133.953 211.615 
       133.953 211.615 133.953 211.615 133.953 211.615 "
       style=" stroke:#ab0202; stroke-width:1; fill:#ab0202; fill-opacity:100%"></polygon>
      <polygon points="140.565 113.92 139.319 112.365 138.073 123.248 
       135.581 133.355 134.751 183.885 136.412 189.328 136.412 188.551 
       136.412 187.772 136.412 186.995 136.412 186.218 136.412 184.662 
       136.412 183.885 136.412 183.885 136.827 183.108 137.242 182.33 
       137.658 182.33 138.073 183.108 138.073 183.885 138.073 185.441 
       138.073 186.218 138.073 187.772 138.073 188.551 138.073 189.328 
       139.734 187.772 140.565 186.218 141.395 184.662 142.226 183.108 
       142.641 180.775 143.057 179.221 143.057 178.444 142.641 176.889 
       143.057 175.333 143.472 173.779 143.887 171.447 143.887 169.115 
       144.302 166.782 144.302 164.45 143.887 162.895 143.057 162.119 
       143.472 160.563 143.887 159.009 144.302 156.676 144.717 154.344 
       144.717 152.012 144.717 150.457 144.302 148.902 143.472 148.125 
       143.887 147.347 143.887 145.793 143.887 144.237 144.302 142.684 
       143.887 141.128 143.887 140.351 143.472 139.574 143.057 139.574 
       143.057 138.018 143.057 137.241 143.472 135.686 143.472 134.132 
       143.472 133.355 143.472 132.577 143.057 131.8 142.641 131.022 
       142.641 130.245 142.641 128.69 143.057 127.912 143.057 126.357 
       142.641 125.581 142.641 124.804 142.226 124.026 141.395 124.026 
       141.395 122.471 141.395 120.138 141.395 117.806 140.98 116.252 
       140.565 113.92 140.565 113.92 140.565 113.92 140.565 113.92 
       140.565 113.92 140.565 113.92 140.565 113.92 "
       style=" stroke:#000000; stroke-width:1; fill:#025602; fill-opacity:100%"></polygon>
      <polygon points="136.563 189.328 135.729 188.549 135.313 187.772 
       134.896 186.218 134.062 185.441 134.062 184.664 133.645 183.109 
       133.645 181.554 134.062 180 133.228 179.222 132.812 176.89 
       132.395 175.336 131.978 173.005 131.978 171.45 131.978 169.895 
       132.395 168.341 132.812 166.786 132.395 164.455 131.978 161.346 
       131.978 159.014 131.562 155.906 131.562 153.573 131.978 151.242 
       132.395 149.687 132.812 149.687 132.395 146.579 132.395 143.469 
       132.395 140.36 132.812 137.252 132.812 134.919 133.228 132.588 
       134.062 131.034 134.479 131.034 134.479 129.479 134.479 127.925 
       134.896 126.37 134.896 125.593 135.313 124.038 135.729 124.038 
       136.563 124.038 136.98 124.038 136.98 121.707 136.563 120.152 
       136.563 117.821 136.98 115.489 137.397 113.935 137.813 112.38 
       138.647 111.603 139.48 110.825 139.897 111.603 140.731 112.38 
       140.731 113.935 140.314 113.935 139.897 114.711 139.897 116.266 
       139.48 118.598 139.48 120.152 139.48 122.485 139.48 124.038 
       139.897 126.37 140.314 127.147 139.48 127.925 139.064 128.702 
       138.647 129.479 138.23 131.81 137.813 132.588 137.397 134.143 
       137.397 135.697 137.813 136.474 137.813 138.029 138.23 139.583 
       138.647 141.137 138.23 142.692 138.647 143.469 138.647 145.024 
       138.647 146.579 139.064 147.356 137.813 146.579 137.397 146.579 
       136.98 147.356 136.98 148.132 137.813 149.687 138.23 150.464 
       138.23 152.019 138.23 152.797 138.23 155.128 139.064 155.906 
       139.064 157.459 139.064 159.014 139.48 160.569 139.064 161.346 
       138.23 161.346 138.23 162.124 137.813 164.455 138.23 166.009 
       138.647 166.786 139.064 167.564 139.48 169.118 139.064 169.895 
       138.647 170.673 138.23 172.227 138.23 173.781 137.397 173.781 
       137.397 175.336 137.397 176.89 137.813 179.222 137.813 179.222 
       137.397 180 136.98 180 136.563 181.554 136.563 182.33 
       136.146 183.885 136.146 186.218 136.563 189.328 136.563 189.328 
       136.563 189.328 136.563 189.328 136.563 189.328 136.563 189.328 136.563 189.328 "
       style=" stroke:#025602; stroke-width:1; fill:#00ff00; fill-opacity:100%"></polygon>
      <polyline points="136.744 185.479 136.744 206.134 136.744 206.929 
       136.246 207.724 136.246 207.724 135.747 208.518 135.747 208.518 
       135.249 209.312 135.249 209.312 134.751 210.106"
       style=" stroke:#ffab00; stroke-width:1;"></polyline>
      <polyline points="137.143 182.4 137.143 206.168 137.143 206.96 
       136.346 207.753 136.346 208.545 136.346 209.337"
       style=" stroke:#ffab00; stroke-width:1;"></polyline>
      <polyline points="137.143 182.4 137.143 207.797"
       style=" stroke:#ffab00; stroke-width:1;"></polyline>
      <polygon points="215.282 198.538 215.282 198.538 215.282 198.538 
       215.708 197.745 215.708 197.745 216.133 197.745 216.133 196.95 
       216.558 196.95 216.558 196.95 216.983 196.95 216.983 196.157 
       216.983 196.157 217.409 195.363 217.409 195.363 217.409 173.934 
       219.11 173.934 219.11 195.363 219.11 195.363 219.535 196.157 
       219.535 196.157 219.96 196.157 219.96 196.95 220.385 196.95 
       220.385 196.95 220.811 196.95 220.811 196.95 221.236 197.745 
       221.236 197.745 221.236 197.745 221.661 197.745 221.236 197.745 
       220.811 197.745 220.811 197.745 220.385 197.745 219.96 197.745 
       219.96 196.95 219.535 196.95 219.11 196.95 219.535 197.745 
       219.535 197.745 219.535 197.745 219.96 198.538 219.96 198.538 
       219.96 198.538 219.96 199.332 220.385 199.332 219.96 199.332 
       219.535 198.538 219.535 198.538 219.11 198.538 219.11 197.745 
       218.684 197.745 218.684 196.95 218.259 196.95 218.259 197.745 
       217.834 197.745 217.834 197.745 217.834 198.538 217.409 198.538 
       217.409 198.538 216.983 198.538 216.983 198.538 216.983 198.538 
       216.983 197.745 217.409 197.745 217.409 196.95 216.983 197.745 
       216.983 197.745 216.558 197.745 216.133 198.538 216.133 198.538 
       215.708 198.538 215.282 198.538 215.282 198.538 215.282 198.538 
       215.282 198.538 215.282 198.538 215.282 198.538 215.282 198.538 215.282 198.538 "
       style=" stroke:#000000; stroke-width:1; fill:#ab0202; fill-opacity:100%"></polygon>
      <polygon points="221.547 133.168 221.134 132.386 220.721 131.605 
       219.896 131.605 219.07 131.605 218.657 132.386 218.244 133.168 
       217.831 134.729 217.831 136.292 217.831 137.853 217.831 138.635 
       218.244 140.198 217.418 140.198 217.005 140.198 216.592 140.198 
       216.179 140.978 215.766 141.76 215.766 142.541 215.766 144.102 
       215.766 144.883 214.941 144.883 214.528 145.666 214.115 147.227 
       214.115 148.79 213.702 151.133 213.702 152.696 214.115 155.039 
       214.115 157.382 213.702 157.382 213.289 158.163 213.289 159.725 
       213.289 161.288 213.289 163.631 213.702 165.193 213.702 167.537 
       214.115 169.098 213.702 169.879 213.702 170.661 213.289 172.222 
       213.702 173.005 213.702 174.566 214.115 176.128 214.528 176.91 
       215.354 177.69 214.941 179.253 214.941 180.035 214.941 180.815 
       215.354 181.596 215.766 182.378 216.179 182.378 217.005 183.159 
       217.418 183.939 217.418 183.939 217.418 183.159 217.418 182.378 
       217.418 181.596 217.418 180.815 217.418 180.815 217.831 180.035 
       218.244 179.253 218.657 179.253 219.07 180.035 219.07 180.815 
       219.07 181.596 219.07 182.378 219.07 183.159 219.07 183.939 
       220.308 183.159 221.134 181.596 221.96 180.815 222.786 179.253 
       223.199 178.471 223.611 176.91 223.199 176.128 222.786 175.347 
       223.199 174.566 223.611 173.005 224.025 172.222 224.438 169.879 
       224.438 169.098 224.438 167.537 224.025 165.973 223.611 165.973 
       224.025 165.193 224.438 163.631 224.85 162.069 224.85 160.506 
       224.85 158.945 224.85 157.382 224.438 156.6 224.025 156.6 
       224.025 155.82 224.438 154.257 224.438 153.476 224.438 152.696 
       224.438 151.915 224.025 151.133 224.025 150.351 223.611 150.351 
       223.611 149.571 223.611 148.79 223.611 148.008 223.611 147.227 
       224.025 146.447 223.611 145.666 223.611 144.883 223.199 144.883 
       223.199 144.102 223.199 143.322 223.199 142.541 223.199 141.76 
       223.199 140.978 223.199 140.978 222.786 140.198 221.96 140.198 
       221.96 138.635 221.96 137.853 221.96 136.292 221.547 134.729 
       221.547 133.168 221.547 133.168 221.547 133.168 221.547 133.168 
       221.547 133.168 221.547 133.168 221.547 133.168 "
       style=" stroke:#000000; stroke-width:1; fill:#025602; fill-opacity:100%"></polygon>
    </g>
  </symbol>
 </defs>
</svg>
