<?xml version="1.0" encoding="UTF-8" standalone="no"?>
<svg id="svg2" xmlns:rdf="http://www.w3.org/1999/02/22-rdf-syntax-ns#" xmlns="http://www.w3.org/2000/svg" enable-background="new -0.503 -0.588 209 172" xml:space="preserve" height="219" width="219" version="1.1" y="0px" x="0px" xmlns:cc="http://creativecommons.org/ns#" xmlns:xlink="http://www.w3.org/1999/xlink" viewBox="-0.503 -0.588 219 219" xmlns:dc="http://purl.org/dc/elements/1.1/">
	<metadata id="metadata297">
		<rdf:RDF>
			<cc:Work rdf:about="">
				<dc:format>image/svg+xml</dc:format>
				<dc:type rdf:resource="http://purl.org/dc/dcmitype/StillImage"/>
				<dc:title/>
			</cc:Work>
		</rdf:RDF>
	</metadata>
	<defs id="defs4">
		<filter id="filter4129" height="1.137349" width="1.3917555" y="-0.068674522" x="-0.19587773">
			<feGaussianBlur id="feGaussianBlur4131" stdDeviation="2.9766604"/>
		</filter>
		<filter id="filter4207">
			<feGaussianBlur id="feGaussianBlur4209" stdDeviation="1.1245781"/>
		</filter>
		<linearGradient id="linearGradient4217" y2="18.339" gradientUnits="userSpaceOnUse" x2="-131.39" gradientTransform="matrix(1.9573457,0,0,1.9662831,-14.135301,-123.7161)" y1="82.1" x1="-72.093">
			<stop id="stop4221" stop-color="#d71e1e" offset="0"/>
			<stop id="stop4223" stop-color="#FFF" offset="1"/>
		</linearGradient>
		<filter id="filter4267" height="1.1269942" width="1.2706908" y="-0.063497097" x="-0.13534541">
			<feGaussianBlur id="feGaussianBlur4269" stdDeviation="1.1603933"/>
		</filter>
		<filter id="filter4367" height="1.2069293" width="1.5803872" y="-0.10346466" x="-0.29019362">
			<feGaussianBlur id="feGaussianBlur4369" stdDeviation="2.5209796"/>
		</filter>
	</defs>
	<g id="g5049">
		<g id="g4835">
			<polygon id="polygon239-6" points="133.14,95.244,149.86,70.621,148.42,67.745,90.903,83.022,30.153,86.437,9.664,88.594,8.406,84.1,29.435,82.303,89.645,78.708,147.7,63.971,194.61,46.357,205.99,41.923,207.67,46.237,194.79,50.85,165.31,62.353,152.55,74.934,136.91,97.22,84.253,151.14,58.551,170.91,56.035,167.5,82.636,147.01" fill="#ffcd2c" transform="matrix(1.0322469,0,0,1.2952492,1.5937125,-8.4750746)"/>
			<polygon id="polygon241-0" points="37.763,86.077,42.675,85.958,82.216,147.42,78.742,149.94" fill="#cecece" transform="matrix(1.0322469,0,0,1.2952492,1.5937125,-8.4750746)"/>
			<path id="path243-2" fill="#cecece" d="m131.73,131.73,6.371,8.0694c2.0408,2.0944,2.2255,5.1214,2.2255,5.1214l7.4208,50.517,15.028-3.027c3.8348-0.62042,3.8947-3.9583,3.8947-3.9583l2.7829-27.935v-33.755c2.5982-4.8883,4.0815,0.23185,4.0815,0.23185v33.989l-2.7829,30.73c-0.37058,3.2588-3.5241,4.8883-3.5241,4.8883l-19.295,4.4233,0.1858,10.941h-4.2673l-0.92799-19.556-32.838-32.28,2.9687-4.0347,28.942,28.4-5.9375-40.04-7.5447-8.844,3.2154-3.8806z"/>
			<path id="path245-9" fill="#cecece" d="m209.16,48.309-15.584-9.7765,0.74219-10.941s-0.37058-16.529-0.74219-19.788l-4.577,1.7071,0.49445,11.485-6.6797-2.7939-2.9677,4.0347,10.204,5.1227-0.55638,9.5447-42.672-6.2858-12.429,9.7765-15.769,8.3803-10.205-34.454-2.9677,2.5607,9.091,33.755-17.069,11.407-13.544-47.025-3.7099,1.6294,4.0815,15.597-22.82,9.7765s-7.7924,3.7251-11.132,6.7508l-13.154,7.685-4.824-12.572s5.7517-7.449,8.5346-8.8466l-2.2266-4.1901s-7.7924,6.8674-8.7204,8.1484l-4.8227-6.7508-3.1545,1.8626s6.3999,10.359,7.0502,13.037l4.083,11.406-30.055,19.325s-2.4113,4.1901,1.8549,3.9583l13.729-7.915,9.214,24.522,4.144-0.31-9.833-26.306,6.865-4.19,5.566,12.105s2.0408,1.1631,2.2266-1.8626l-4.824-12.105,27.458-16.993,26.531-11.407,6.4939,21.883-7.6077,5.5864-2.4113-3.7238s-3.3393-1.8626-2.7829,2.0957l5.3801,11.407s2.7829,2.0944,2.7829-2.3276l-0.74218-2.5607,6.4939-4.8883,8.5346,25.608,3.7729-1.1644-6.9264-22.348,18.923-11.874,18.738-10.01,7.0502-5.3546,8.4417,34.92,3.8647-1.1644-9.3377-35.384s0.92695-0.69814,1.4844-2.0957l42.858,6.2858,12.862,8.379,5.3161-2.3327z"/>
			<path id="path247-9" fill="#cecece" d="M109.57,151.6,95.845,120.63c-3.8348-4.8106-4.2064,2.018-4.2064,2.018l14.595,33.214,3.3414-4.2678z"/>
			<line id="line251-4" stroke-width="1.1563" y2="184.88" x2="83.122" stroke="#0a0a0a" y1="103.17" x1="40.451" fill="none"/>
			<line id="line253-1" stroke-width="1.1563" y2="181.86" x2="86.647" stroke="#0a0a0a" y1="102.71" x1="45.645" fill="none"/>
			<path id="path255-5" d="m147.87,211.89-0.18477-10.941,19.295-4.4233s3.1535-1.6294,3.5241-4.8883l2.7829-30.73v-33.987s-1.4844-5.1214-4.0815-0.23314v33.755l-2.7829,27.935s0,3.9583-3.8947,3.9583l-15.028,3.027-7.4219-50.517s-0.18477-3.0257-2.2255-5.1214l-6.6797-7.2158" stroke="#0a0a0a" stroke-width="1.15629447" fill="none"/>
			<polyline id="polyline257-9" transform="matrix(1.0322469,0,0,1.2952492,1.5937125,-8.4750746)" stroke="#0a0a0a" points="104.68,130.05,136.67,155.03,137.57,170.13" fill="none"/>
			<polyline id="polyline259-8" transform="matrix(1.0322469,0,0,1.2952492,1.5937125,-8.4750746)" stroke="#0a0a0a" points="122.36,111.6,130.02,118.01,135.78,148.92,107.74,127.36" fill="none"/>
			<path id="path261-6" d="m38.41,30.772s-7.7924,6.8674-8.7204,8.1471l-4.823-6.75" stroke="#0a0a0a" stroke-width="1.15629447" fill="none"/>
			<path id="path263-4" d="m79.967,16.571,4.0825,15.597-22.82,9.7765s-7.7924,3.7251-11.132,6.7508l-13.173,7.683-4.823-12.572s5.7517-7.449,8.5346-8.8466" stroke="#0a0a0a" stroke-width="1.15629447" fill="none"/>
			<polyline id="polyline265-2" transform="matrix(1.0322469,0,0,1.2952492,1.5937125,-8.4750746)" stroke="#0a0a0a" points="100.37,19.517,109.18,45.578,92.64,54.385,79.52,18.079" fill="none"/>
			<polyline id="polyline267-7" transform="matrix(1.0322469,0,0,1.2952492,1.5937125,-8.4750746)" stroke="#0a0a0a" points="172.44,23.651,182.33,27.605,181.79,34.974,140.45,30.121,128.41,37.67,113.13,44.14,103.24,17.54" fill="none"/>
			<polyline id="polyline269-8" transform="matrix(1.0322469,0,0,1.2952492,1.5937125,-8.4750746)" stroke="#0a0a0a" points="181.31,13.825,181.79,22.691,175.32,20.535" fill="none"/>
			<path id="path271-8" d="m208.91,48.231-15.584-9.7765,0.74219-10.941s-0.37058-16.529-0.74219-19.788" stroke="#0a0a0a" stroke-width="1.15629447" fill="none"/>
			<path id="path273-2" d="M155.72,73.373,146.39,37.989s0.92592-0.69944,1.4833-2.0957l42.858,6.2858,12.863,8.3803" stroke="#0a0a0a" stroke-width="1.15629447" fill="none"/>
			<path id="path277-9" d="m21.712,34.031s6.3999,10.361,7.0492,13.037l4.083,11.407-30.055,19.321s-2.4113,4.1901,1.8549,3.957l13.729-7.914,9.2149,24.522,4.1434-0.30956-9.8332-26.307,6.8644-4.1901,5.5659,12.105s2.0408,1.1644,2.2266-1.8626l-4.823-12.104,27.458-16.993,26.531-11.407,6.4928,21.883-7.6066,5.5864-2.4124-3.7238s-3.3393-1.8626-2.7829,2.0944l5.3801,11.407s2.7829,2.0957,2.7829-2.3276l-0.74218-2.5607,6.4928-4.8883,8.5357,25.608" stroke="#0a0a0a" stroke-width="1.15629447" fill="none"/>
			<polyline id="polyline279-3" transform="matrix(1.0322469,0,0,1.2952492,1.5937125,-8.4750746)" stroke="#0a0a0a" points="8.167,84.041,29.196,82.244,89.405,78.649,147.46,63.911,194.37,46.297,205.75,41.863" fill="none"/>
			<polyline id="polyline281-6" transform="matrix(1.0322469,0,0,1.2952492,1.5937125,-8.4750746)" stroke="#0a0a0a" points="55.795,167.44,82.396,146.95,132.9,95.184,149.62,70.561,148.18,67.685,90.664,82.962,29.914,86.376,9.425,88.534" fill="none"/>
			<polyline id="polyline283-4" transform="matrix(1.0322469,0,0,1.2952492,2.0290192,-7.9288577)" stroke="#0a0a0a" points="207.43,46.177,194.55,50.79,165.07,62.293,152.31,74.875,136.67,97.161,84.013,151.08,58.312,170.85" fill="none"/>
			<path id="path285-6" d="M105.99,155.78,91.393,122.57s0.37058-6.8273,4.2064-2.018l13.852,31.35" stroke="#0a0a0a" stroke-width="1.15629447" fill="none"/>
			<path id="path4769" stroke-linejoin="miter" d="m106.36,89.139-6.8022-21.644,44.215-26.9,8.9666,34.32,0.30919-0.30919" transform="translate(-0.503,-0.588)" stroke="#000" stroke-linecap="butt" stroke-width="1px" fill="none"/>
			<path id="path243-2-8" fill="#cecece" d="m166.61,79.541,7.1664,7.3721c2.2451,1.8737,2.7399,4.8657,2.7399,4.8657l12.572,49.488,14.638-4.555c3.7508-1.0111,3.4674-4.3375,3.4674-4.3375l-0.10183-28.073-3.4681-33.577c2.0822-5.1293,4.0837-0.18872,4.0837-0.18872l3.492,33.809,0.38902,30.853c-0.0338,3.2797-3.0032,5.2245-3.0032,5.2245l-18.738,6.3822,1.3089,10.864-4.2447,0.43842-2.9323-19.357-35.981-28.736,2.5385-4.3184,31.707,25.276-10.02-39.218-8.4134-8.022,2.7998-4.1904z"/>
			<path id="path255-5-37" d="m190.9,157.62-1.3079-10.864,18.738-6.3822s2.9694-1.9448,3.0032-5.2245l-0.38901-30.853-3.4919-33.807s-2.0027-4.9418-4.0839,0.18743l3.4681,33.577,0.10184,28.073s0.40664,3.9373-3.4674,4.3375l-14.638,4.555-12.573-49.487s-0.49466-2.9907-2.7399-4.8657l-7.3857-6.4914" stroke="#0a0a0a" stroke-width="1.15629447" fill="none"/>
			<polyline id="polyline257-9-6" transform="matrix(1.0267843,-0.10605476,0.13307605,1.2883948,22.7567,-46.55062)" stroke="#0a0a0a" points="104.68,130.05,136.67,155.03,137.57,170.13" fill="none"/>
			<polyline id="polyline259-8-2" transform="matrix(1.0267843,-0.10605476,0.13307605,1.2883948,22.7567,-46.55062)" stroke="#0a0a0a" points="122.36,111.6,130.02,118.01,135.78,148.92,107.74,127.36" fill="none"/>
		</g>
		<g id="g4371" transform="matrix(0.69149967,0.02532116,-0.02532116,0.69149967,195.2928,58.683813)">
			<path id="circle289-1" opacity="0.5" d="m-73.762,40.231c-20.422,0-36.969,16.547-36.969,36.969,0,13.377,7.1091,25.101,17.75,31.594l19.969,61.969,18.094-61.75c10.857-6.4423,18.125-18.272,18.125-31.812,0-20.422-16.547-36.969-36.969-36.969z" transform="matrix(1.9573457,0,0,1.9662831,-13.150756,-122.55993)" filter="url(#filter4207)" stroke-miterlimit="4" stroke-width="0" fill="#000"/>
			<path id="circle289" d="m-167.3-51.025c-39.973,0-72.361,32.536-72.361,72.691,0,26.304,13.915,49.356,34.743,62.122l39.086,121.85,35.416-121.42c21.251-12.667,35.477-35.929,35.477-62.552,0-40.155-32.388-72.691-72.361-72.691z" stroke="#161616" stroke-width="1.96180928" fill="url(#linearGradient4217)"/>
			<g id="text293" font-family="Arial-BoldMT" font-size="63.38819885px" transform="matrix(1.9573457,0,0,1.9662831,-13.150756,-122.55993)">
				<path id="path4272" d="m-79.43,50.027-8.4806,22.997,16.992,0-8.5116-22.997m-3.5284-6.1593,7.0878,0,17.611,46.21-6.4998,0-4.2094-11.854-20.83,0-4.2094,11.854-6.5926,0,17.642-46.21"/>
			</g>
			<path id="path4111" d="m-79.3,160.63c-0.74765-3.4142,15.634-58.925,17.716-60.032,3.51-1.8664,10.314-9.9233,12.963-15.351,2.7365-5.606,2.8241-6.1038,2.8278-16.062,0.0021-5.6521,0.07145-10.277,0.15406-10.277,0.81404-0.0031,2.7861,10.269,2.7861,14.512,0,10.863-6.2492,23.49-14.243,28.78-3.8501,2.5479-2.6676-0.65026-13.538,36.615-3.8695,13.264-7.2886,24.118-7.598,24.12s-0.7899-1.0354-1.0678-2.3043z" fill-rule="evenodd" transform="matrix(1.9573457,0,0,1.9662831,-13.150756,-122.55993)" filter="url(#filter4129)" stroke-miterlimit="4" stroke-width="0" fill="#000"/>
			<path id="path4265" d="m-115.52,80.332c-2.344-10.638,1.7834-24.014,9.9212-32.152,4.3125-4.3125,9.037-7.4223,9.9259-6.5335,0.25387,0.25388-0.13781,0.6916-0.87042,0.97273-1.6855,0.64679-7.1391,7.839-10.479,13.82-3.3051,5.9184-6.0687,15.196-6.8065,22.851l-0.5844,6.063-1.1064-5.0217z" fill-rule="evenodd" transform="matrix(1.9573457,0,0,1.9662831,-13.150756,-122.55993)" filter="url(#filter4267)" stroke-miterlimit="4" stroke-width="0" fill="#FFF"/>
			<path id="path4357" opacity="0.49568966" d="m-187.63,129.72-7.5461-23.449-7.5461-23.449,2.7243,0,2.7243,0,7.9865,24.76c4.3926,13.618,5.7575,20.2,7.4143,30.293-0.82709,8.3436-3.4984-0.20042-5.7571-8.1546z" fill-rule="evenodd" filter="url(#filter4367)" stroke-miterlimit="4" stroke-width="0" fill="#f9f9f9"/>
		</g>
	</g>
</svg>
