<?xml version="1.0" encoding="UTF-8" standalone="no"?>

<svg
 xmlns:dc="http://purl.org/dc/elements/1.1/"
   xmlns:cc="http://creativecommons.org/ns#"
   xmlns:rdf="http://www.w3.org/1999/02/22-rdf-syntax-ns#"
   xmlns:svg="http://www.w3.org/2000/svg"
   xmlns="http://www.w3.org/2000/svg"
   xmlns:sodipodi="http://sodipodi.sourceforge.net/DTD/sodipodi-0.dtd"
   xmlns:inkscape="http://www.inkscape.org/namespaces/inkscape"
   id="svg2"
   version="1.1"
   inkscape:version="0.47 r22583"
   width="100"
   height="100"
   sodipodi:docname="location_type.svg">
  <metadata
     id="metadata14">
    <rdf:RDF>
      <cc:Work
         rdf:about="">
        <dc:format>image/svg+xml</dc:format>
        <dc:type
           rdf:resource="http://purl.org/dc/dcmitype/StillImage" />
      </cc:Work>
    </rdf:RDF>
  </metadata>
  <defs
     id="defs12">
    <inkscape:perspective
       sodipodi:type="inkscape:persp3d"
       inkscape:vp_x="0 : 0.5 : 1"
       inkscape:vp_y="0 : 1000 : 0"
       inkscape:vp_z="1 : 0.5 : 1"
       inkscape:persp3d-origin="0.5 : 0.33333333 : 1"
       id="perspective16" />
  </defs>
  <sodipodi:namedview
     pagecolor="#ffffff"
     bordercolor="#666666"
     borderopacity="1"
     objecttolerance="10"
     gridtolerance="10"
     guidetolerance="10"
     inkscape:pageopacity="0"
     inkscape:pageshadow="2"
     inkscape:window-width="1680"
     inkscape:window-height="994"
     id="namedview10"
     showgrid="false"
     inkscape:zoom="0.22425739"
     inkscape:cx="372.54724"
     inkscape:cy="-357.68109"
     inkscape:window-x="-4"
     inkscape:window-y="-4"
     inkscape:window-maximized="1"
     inkscape:current-layer="svg2" />
  <path
     d="m 99.7143,53.525195 c -0.155992,-3.49308 -0.252558,-5.00031 -0.385123,-6.029 -0.175419,-1.37205 -0.798816,-4.5896 -1.147369,-5.92564 -0.348554,-1.3365 -1.375358,-4.44332 -1.89076,-5.72119 -0.515402,-1.27834 -1.927901,-4.22087 -2.601581,-5.41892 -0.674251,-1.19829 -2.448445,-3.92597 -3.268403,-5.02358 C 89.601106,24.309269 87.4955,21.842539 86.541835,20.864361 85.589884,19.886125 83.188293,17.722922 82.119777,16.88068 81.050689,16.038437 78.394825,14.215845 77.2286,13.524052 76.062374,12.832259 73.197378,11.38142 71.952871,10.851733 70.707792,10.322331 67.683376,9.2676885 66.381729,8.9096155 c -1.300505,-0.358033 -4.434058,-0.997948 -5.768846,-1.178533 -1.335932,-0.180534 -4.52331,-0.395226 -5.870213,-0.395226 -1.347473,0 -4.534395,0.214692 -5.870041,0.395226 -1.335588,0.180585 -4.468398,0.8205 -5.769017,1.178533 -1.301762,0.358073 -4.326749,1.4127155 -5.570399,1.9421175 -1.245308,0.529687 -4.110075,1.980526 -5.276415,2.672319 -1.166911,0.691793 -3.822946,2.514385 -4.891177,3.356628 -1.068859,0.842242 -3.470564,3.005445 -4.422858,3.983681 -0.95258,0.978178 -3.058986,3.444908 -3.878715,4.542504 -0.819958,1.09761 -2.594609,3.82529 -3.268175,5.02358 -0.673508,1.19805 -2.086464,4.14058 -2.602094,5.41892 -0.515288,1.27787 -1.542207,4.38469 -1.890875,5.72119 -0.348325,1.33604 -0.971207,4.55359 -1.147198,5.92564 -0.1758193,1.37158 -0.3850085,4.64547 -0.3850085,6.029 0,1.38313 0.2091892,4.65702 0.3850085,6.02906 0.175991,1.37119 0.798873,4.58931 1.147198,5.92581 0.348668,1.33593 1.375587,4.44263 1.890875,5.72085 0.51563,1.27822 1.928586,4.22035 2.602094,5.41858 0.673566,1.19822 2.448217,3.92608 3.268175,5.02374 0.819729,1.09766 2.926135,3.56439 3.878715,4.54262 0.952294,0.97824 3.353999,3.14156 4.422858,3.9838 1.068231,0.84224 3.724266,2.66443 4.891177,3.3564 1.16634,0.69196 4.031107,2.14274 5.276415,2.67186 1.24365,0.52969 4.268637,1.58449 5.570399,1.94219 1.300619,0.35826 4.433429,0.99823 5.769017,1.17879 1.335646,0.18056 4.522568,0.39541 5.870041,0.39541 1.346903,0 4.534281,-0.21485 5.870213,-0.39541 1.334788,-0.18056 4.468341,-0.82053 5.768846,-1.17879 1.301647,-0.3577 4.326063,-1.4125 5.571142,-1.94219 1.244507,-0.52912 4.109503,-1.9799 5.275729,-2.67186 1.166225,-0.69197 3.822089,-2.51416 4.891177,-3.3564 1.068516,-0.84224 3.470107,-3.00556 4.422058,-3.9838 0.953665,-0.97823 3.059271,-3.44496 3.879229,-4.54262 0.819958,-1.09766 2.594152,-3.82552 3.268403,-5.02374 0.67368,-1.19823 2.086179,-4.14036 2.601581,-5.41858 0.515402,-1.27822 1.542206,-4.38492 1.89076,-5.72085 0.261701,-1.0028 0.482261,-2.2336 1.147369,-5.92581 z"
     style="fill:#35ecff;fill-opacity:1;stroke:#008d9c;stroke-width:0.57139921"
     class="TAG:Water"
     id="path4" />
  <polyline
     points="92.746 81.029 19.7401 1.839"
     style="stroke:#464646;stroke-width:2"
     class="TAG:FlagStick"
     id="polyline6"
     transform="matrix(0.57139919,0,0,0.57139919,0.28569959,3.7192425)" />
  <polygon
     points="0,60.417 44.4811,29.3853 18.2096,0 18.2096,0 "
     style="fill:#ff0000;fill-opacity:1;stroke:#464646;stroke-width:1"
     class="TAG:Flag"
     id="polygon8"
     transform="matrix(0.57139919,0,0,0.57139919,0.28569959,3.7192425)" />
</svg>
