<?xml version="1.0"?>
<?metis version="3.1"?>
<?metisxml version="1.0"?>
<!DOCTYPE svg  PUBLIC "-//W3C//DTD SVG August 1999//EN"
 "http://www.w3.org/Graphics/SVG/svg-19990812.dtd">

<svg width="200" height="200">
 <title>Symbol library: logical_datastore.svg</title>
 <defs>
  <symbol id="oid0" xml:space="preserve" class="METIS_SYMBOL">
   <title>Logical datastore</title>
    <g>
      <polygon points="0 0 0 304 16 320 
       880 320 880 16 864 0 0 0 
       0 0 0 0 0 0 0 0 0 0 "
       style=" stroke:#000000; stroke-width:1; fill:#9b9b9b; fill-opacity:100%"       class="TAG:shadow"></polygon>
      <rect x="240" y="0" width="624" height="304"
       style=" stroke:#000000; stroke-width:1; fill:#6eff6e; fill-opacity:100%"       class="TAG:canvas"></rect>
      <g>
	<desc>METIS_TEXT_GROUP</desc>
	<text  x="256" y="15.8"
	 style=" stroke:#000000; stroke-width:1; font-family:sans-serif; font-size:16;"
	 class="TAG:text">text</text>
	<rect x="256" y="0" width="608" height="304"
	 style=" stroke:#000000; stroke-width:1; fill:#ffffff; fill-opacity:0%"></rect>
      </g>
      <polyline points="864 304 880 320"
       style=" stroke:#000000; stroke-width:1;"></polyline>
      <g>
	<rect x="0" y="0" width="240" height="304"
	 style=" stroke:#000000; stroke-width:1; fill:#ffffff; fill-opacity:100%"	 class="TAG:PictureBackground"></rect>
	<g>
	  <polygon points="17.3779 43.4589 18.3209 42.1857 19.7353 40.9125 
	   26.3362 38.6843 36.7092 36.4562 49.9109 34.8647 65.4703 33.5915 
	   82.4438 32.6366 101.303 32.3183 120.163 32 139.495 32.3183 
	   157.882 32.6366 175.328 33.5915 190.888 34.8647 204.089 36.4562 
	   213.99 38.6843 220.592 40.9125 222.949 43.4589 222.949 70.1963 
	   222.949 107.756 222.959 107.808 222.959 116.299 222.949 116.35 
	   222.949 149.772 222.949 181.284 222.959 181.307 222.959 189.526 
	   222.949 189.559 222.949 191.469 222.949 193.38 222.949 197.199 
	   222.949 200.7 222.949 204.52 222.949 208.021 222.949 211.841 
	   222.949 215.661 222.949 219.162 222.949 222.982 222.949 226.483 
	   222.949 230.303 222.949 234.122 222.949 237.623 222.949 241.443 
	   222.949 245.262 222.949 248.764 223.892 249.4 224.835 250.356 
	   225.306 251.31 225.306 252.584 225.306 253.538 224.835 254.493 
	   223.892 255.448 222.949 256.403 221.063 257.04 219.648 257.995 
	   215.876 259.268 211.633 260.859 206.918 262.451 202.203 263.724 
	   196.545 264.997 190.888 266.271 184.286 267.544 177.685 268.499 
	   170.613 269.454 163.069 270.09 155.054 270.727 147.039 271.364 
	   138.08 271.682 129.122 272 119.692 272 114.978 272 
	   110.262 272 100.832 271.682 91.874 271.045 82.9156 270.408 
	   74.4287 269.454 66.4131 268.499 58.8692 267.544 51.3255 266.271 
	   44.7245 264.997 38.5951 263.724 33.4086 262.451 28.6937 261.178 
	   24.4502 259.905 21.1498 258.631 18.7923 257.358 17.3779 256.403 
	   16.9064 255.766 16.4349 255.13 15.9634 254.493 15.492 253.857 
	   15.492 253.221 15.0204 252.584 15.0204 251.628 15.0204 250.674 
	   15.492 249.719 16.4349 249.082 17.3779 248.764 17.3779 189.559 
	   17.3417 189.542 17.3417 181.324 17.3779 181.284 17.3779 149.772 
	   17.3779 116.35 17.3417 116.311 17.3417 107.789 17.3779 107.756 
	   17.3779 70.1963 17.3779 43.4589 17.3779 43.4589 17.3779 43.4589 
	   17.3779 43.4589 17.3779 43.4589 "
	   style=" stroke:#000000; stroke-width:1; fill:#6eff6e; fill-opacity:100%"></polygon>
	  <polyline points="222.957 43.5946 222.957 44.6171 222.485 45.6397 
	   220.6 47.6847 218.242 49.2185 214.941 51.2635 210.697 52.7973 
	   205.51 54.3311 199.852 55.8649 193.251 56.8874 185.707 57.91 
	   178.162 59.4437 169.674 59.955 160.716 60.9775 151.285 61.4889 
	   141.383 62 131.481 62 121.108 62 115.449 62 
	   110.262 62 99.8886 62 90.4585 61.4889 81.0275 60.9775 
	   71.5969 60.4662 63.11 59.4437 55.0936 58.4212 48.0207 57.3987 
	   40.9479 56.3762 35.2896 54.8424 29.6313 53.3086 25.3875 51.7748 
	   22.0869 50.241 19.2577 48.7073 17.8431 46.6622 17.3716 44.6171"
	   style=" stroke:#000000; stroke-width:1;"></polyline>
	  <polyline points="222.957 244.15 222.957 244.864 222.485 245.935 
	   220.6 247.364 218.242 248.791 214.941 250.219 210.697 252.004 
	   205.51 253.433 199.852 255.218 193.251 256.646 185.707 258.074 
	   178.162 259.502 169.674 260.573 160.716 261.644 151.285 262.358 
	   141.383 263.072 131.481 263.429 121.108 263.429 115.449 263.429 
	   110.262 263.429 100.361 263.072 90.4585 262.358 81.0275 261.644 
	   72.0687 260.573 63.11 259.502 55.5653 258.431 48.0207 257.003 
	   41.4195 255.574 35.2896 254.146 30.1028 252.719 25.8591 250.934 
	   22.0869 249.505 19.7292 248.077 18.3147 246.293 17.3716 245.221"
	   style=" stroke:#000000; stroke-width:1;"></polyline>
	  <polyline points="24.4283 45.9505 24.8999 47.631 26.7864 48.8914 
	   29.1444 50.1518 32.9172 50.9921 37.1616 52.2525 41.8778 53.0928 
	   48.0085 53.9331 54.1393 54.7733 61.2136 55.6136 68.7592 56.0337 
	   76.3053 56.4539 84.7941 56.874 93.2834 57.2942 101.772 57.2942 
	   110.732 57.7143 119.693 57.7143 128.654 57.7143 137.614 57.2942 
	   146.574 57.2942 154.592 56.874 163.08 56.4539 171.098 56.0337 
	   178.643 55.1935 185.718 54.7733 191.849 53.9331 197.979 53.0928 
	   202.696 52.2525 207.411 50.9921 210.713 49.7317 213.542 48.8914 
	   214.957 47.631 215.901 45.9505 214.957 45.1102 213.542 43.8498 
	   211.184 43.0095 207.884 41.7491 204.111 41.329 199.866 40.0686 
	   194.678 39.6484 189.019 38.8081 183.36 37.9679 176.757 37.5478 
	   169.684 36.7075 162.609 36.2873 155.063 36.2873 147.046 35.8672 
	   139.5 35.447 131.012 35.447 122.994 35.447 114.505 35.447 
	   106.488 35.447 98.471 35.447 90.4534 35.8672 82.436 36.2873 
	   74.8904 36.7075 67.8161 37.5478 60.7419 37.9679 53.668 38.8081 
	   47.537 39.6484 41.8778 40.9088 36.6901 41.7491 31.9741 43.4297 
	   27.7296 44.6901 24.4283 45.9505 24.4283 45.9505 24.4283 45.9505"
	   style=" stroke:#000000; stroke-width:1;"></polyline>
	</g>
      </g>
    </g>
  </symbol>
 </defs>
</svg>
