<?xml version="1.0" encoding="UTF-8" standalone="no"?>
<svg xmlns:rdf="http://www.w3.org/1999/02/22-rdf-syntax-ns#" xmlns="http://www.w3.org/2000/svg" y="0px" xml:space="preserve" height="219" width="219" version="1.1" enable-background="new -0.57 -0.074 264 266" x="0px" xmlns:cc="http://creativecommons.org/ns#" xmlns:dc="http://purl.org/dc/elements/1.1/" viewBox="-0.57 -0.074 219 219"><metadata><rdf:RDF><cc:Work rdf:about=""><dc:format>image/svg+xml</dc:format><dc:type rdf:resource="http://purl.org/dc/dcmitype/StillImage"/><dc:title/></cc:Work></rdf:RDF></metadata><defs><filter id="filter4068" color-interpolation-filters="sRGB"><feGaussianBlur stdDeviation="2.017022"/></filter></defs><path d="m190.7,108.9v-95.84c-0.584-6.909-8.364-4.738-13.08-5.088h-164.5c-6.75,0.8219-4.505,8.56-4.895,13.28v165.9c0.5871,6.907,8.366,4.735,13.09,5.086h84.95c0.9615-5.36,0.3025-11.29,0.6518-16.86,0.0844-5,0.1688-10,0.2533-15-4.384-7.453-14.67,8.564-19.21-2.795-7.063-9.913,6.015-24.52,14.91-13.52,6.146,0.3435,4.021-6.928,4.411-10.84,0.0387-8.263,0.0774-16.53,0.1161-24.79,10.88,0.1233,21.76,0.2465,32.64,0.3698,4.668,5.752-8.273,14.25,1.818,18.95,7.25,6.496,22.63,0.0413,18-10.47-8.495-10.59,8.472-8.297,14.96-8.233,5.277-0.1239,10.71,0.3062,15.9-0.1563z" fill-opacity="0.5" filter="url(#filter4068)" fill="#000"/><path fill="#d6d6d6" d="M182.4,101.8v-95.84c0-2.81-2.19-5.088-4.892-5.088h-172.7c-2.704,0-4.895,2.278-4.895,5.088v174.1c0,2.808,2.191,5.086,4.895,5.086h93.14l0.3753-0.4848,0.5298-31.38s-1.371-3.347-3.446-2.59c-2.079,0.7561-6.857,4.68-10.38,3.99-9.613-2.891-9.445-18.72,0.0892-21.93,5.638-0.2014,7.95,4.458,10.34,4.398,2.392-0.0589,3.473-2.831,3.473-2.831l0.1545-32.98,32.64,0.3698c2.95,3.078,1.302,4.878-0.7902,8.117-2.098,3.241-2.109,5.623,0.0322,8.532,6.356,7.201,17.34,5.845,20.51-0.7258,1.11-2.083,1.31-3.668,0.0681-7.442-1.244-3.776-5.043-4.763-0.7506-8.329,0.3413,0.0699,31.16,0.1398,31.16,0.1398l0.4231-0.1647z"/><g fill="#bfbfbf" transform="matrix(0.91986835,0,0,0.91986835,-16.497849,-52.116793)"><path d="m139.3,167.2c-0.869-7.319-7.092-12.99-14.64-12.99-8.145,0-14.75,6.599-14.75,14.75,0,8.145,6.606,14.75,14.75,14.75,0.29,0,0.578-0.008,0.863-0.025l0.135,14.76c-13.68,0.47-26.07-8.62-29.55-22.11l-78.47,0.287v-15.04h78.47c3.714-14.38,17.54-23.76,32.28-21.89,14.04,1.784,24.73,13.25,25.7,27.18l-14.77,0.33z"/><path d="m115.6,223.7c0.407,0.488,0.441,4.035,0.441,4.035,0,10.64-7.968,19.62-18.6,20.96s-20.61-5.375-23.29-15.67l-56.34,0.207v-10.77h56.34c2.68-10.3,11.71-16.14,22.43-15.87,1.752,0.045,4.27,0.846,6.544,1.75,0.248,0.098,0.103,0.322,0.082,0.609-1.565,21.06,11.99,14.27,12.4,14.76zm-20.68,14.6c5.834,0,10.56-4.73,10.56-10.56,0-5.836-4.727-10.56-10.56-10.56s-10.56,4.725-10.56,10.56c0,5.831,4.73,10.56,10.56,10.56z"/><path d="M32.84,121.3c9.05-9.1,18.09-18.1,27.14-27.17-11.57-19.62,14.31-39.66,30.42-23.55,16.1,16.1-3.946,41.97-23.56,30.4-6.76,6.759-13.52,13.52-20.28,20.28h106.6c5.697-22.05,38.16-17.92,38.16,4.857,0,22.76-32.47,26.89-38.16,4.844l-135.2,0.182-0.244-10.12,15.13,0.237zm139.1,14.55c5.357,0,9.701-4.343,9.701-9.688,0-5.359-4.344-9.701-9.701-9.701-5.346,0-9.689,4.342-9.689,9.701,0,5.344,4.343,9.688,9.689,9.688zm-95.18-41.77c5.359,0,9.689-4.343,9.689-9.702,0-5.346-4.33-9.689-9.689-9.689-5.358,0-9.701,4.343-9.701,9.689,0,5.36,4.343,9.702,9.701,9.702z"/><path d="m216.2,92.87-0.1-4.93-36.9-0.03c-6-5.98-11.9-11.96-17.8-17.94h-28.28c-1.334-4.743-5.959-7.743-10.79-7.006-4.835,0.736-8.37,4.981-8.255,9.909,0.117,4.926,3.849,8.999,8.712,9.502,4.863,0.504,9.34-2.714,10.45-7.513h26.15c5.934,5.98,11.86,11.96,17.8,17.94l39.04,0.075zm-18.5-5.42c-2.681,0-4.854-2.19-4.854-4.894,0-2.703,2.172-4.893,4.854-4.893s4.854,2.19,4.854,4.893-2.172,4.894-4.854,4.894z"/></g><g transform="translate(498,4)"><path fill="#046637" transform="translate(-0.57,-0.074)" d="m-367.3,113.2c-1.829,12.01-4.036,23.97-5.625,36-5.202,5.006-7.945-4.876-13.38-4.688-6.083-1.127-9.744,4.214-10.62,9.031-0.8813,4.818,0.7922,11.42,4.938,13.16,5.048,2.544,9.778-1.145,14.59-1.531,2.716,2.109,0.9883,5.326,0.6875,8.062l-4.969,27.72,82.06,12.78c3.044,0.4744,5.929-1.684,6.438-4.844l6.906-44.34,5.594-36.78c-10.9-1.774-21.78-3.787-32.69-5.406-5.101,3.262,3.314,10.21,0.2812,15.19-2.544,4.46-7.713,8.502-13.09,6.438-4.995-1.342-11.68-4.532-11.59-10.5-1.031-5.483,7.678-6.616,5.594-12.22-0.6314-3.111-4.121-2.293-6.438-3.031l-28.69-5.031z"/><path d="m-361.9,114.2c-1.327,3.862-4.051,6.958-7.5,8.75-0.9165,5.635-1.827,11.27-2.688,16.91,12.15-1.757,22.25-10.8,25.38-23l-15.19-2.656z" fill="#e89931"/><path fill="#e89931" d="m-287.4,168.1-1.672,10.58-21.47-3.451c-4.572,10.26-16.47,15.56-27.78,12.36-11.3-3.188-18.48-13.86-16.75-24.93,1.723-11.06,11.81-19.04,23.55-18.65,11.73,0.403,21.46,9.068,22.7,20.23l21.43,3.851zm-42.91-12.82c-6.37-0.9918-12.29,3.122-13.24,9.185-0.9448,6.065,3.45,11.78,9.82,12.77,6.367,0.9902,12.3-3.117,13.24-9.184,0.9451-6.064-3.454-11.78-9.82-12.77z"/><path d="m-360.1,114.5c-0.0116,0.0832-0.0183,0.1667-0.0312,0.25-0.8872,5.727-4.827,10.22-9.906,12.12-0.892,5.457-1.732,10.91-2.531,16.38,14.01-1.285,25.61-11.88,27.84-26.03l-15.38-2.719z" fill="#bc6a20"/><path d="m-287.9,170.8-1.606,10.87-21.64-3.363c-4.409,10.28-15.69,15.68-26.33,12.59-10.64-3.087-17.34-13.68-15.61-24.75,1.725-11.06,11.32-19.13,22.4-18.83,11.08,0.3009,20.18,8.87,21.25,20l21.53,3.477zm-41.73-12.25c-6.006-0.9353-11.64,3.223-12.58,9.286-0.9443,6.069,3.155,11.74,9.162,12.68,6.004,0.9356,11.64-3.219,12.58-9.286,0.9432-6.063-3.158-11.74-9.164-12.68z" fill="#bc6a20"/></g></svg>
