<?xml version="1.0" encoding="UTF-8" standalone="no"?>
<svg id="svg2" xmlns:rdf="http://www.w3.org/1999/02/22-rdf-syntax-ns#" xmlns="http://www.w3.org/2000/svg" y="0px" xml:space="preserve" height="219" width="219" version="1.1" enable-background="new -0.678 -0.674 193 163" x="0px" xmlns:cc="http://creativecommons.org/ns#" xmlns:xlink="http://www.w3.org/1999/xlink" viewBox="-0.678 -0.674 219 219" xmlns:dc="http://purl.org/dc/elements/1.1/"><defs id="defs4"><linearGradient id="linearGradient3026" y2="21.5" gradientUnits="userSpaceOnUse" y1="147" gradientTransform="matrix(1.2665843,0,0,1.2496301,-12.960493,7.0170424)" x2="22" x1="177"><stop id="stop18-1" stop-color="#202b46" offset="0"/><stop id="stop20" stop-color="#254986" offset="0.352"/><stop id="stop22" stop-color="#357ea1" offset="0.661"/><stop id="stop24" stop-color="#67b4e5" offset="0.787"/><stop id="stop26" stop-color="#5191cd" offset="1"/></linearGradient></defs><metadata id="metadata164"><rdf:RDF><cc:Work rdf:about=""><dc:title/><dc:format>image/svg+xml</dc:format><dc:type rdf:resource="http://purl.org/dc/dcmitype/StillImage"/></cc:Work></rdf:RDF></metadata><g id="g3993"><rect id="rect30" transform="matrix(0.99999906,0.00137397,-0.00142653,0.99999898,0,0)" height="177.56" width="213.93" y="18.814" x="2.4032" fill="url(#linearGradient3026)"/><path id="path32" fill="#FFF" d="m56.976,50.252c-0.0053,0-5.5623-0.07766-5.7227,5.4553,0,0-0.32625,6.1827,6.1292,6.0971,2.4174-0.02952,4.6103-1.412,5.3162-3.8294,0.50274-1.7222,0.3316-3.5513-0.57334-5.1558-1.1125-1.9682-3.0379-2.5351-5.1558-2.5672z"/><path id="path34" fill="#073a77" d="m57.062,52.011c-1.7048-0.03853-3.5046,1.0733-3.8832,2.8024-0.4776,1.7799,0.20978,3.9498,1.9035,4.8282,1.7948,0.91549,4.2914,0.5298,5.4855-1.1706,1.3142-1.8903,0.76458-4.8982-1.309-6.0135-0.67746-0.34074-1.448-0.43172-2.1968-0.44637z"/><path id="path36" fill="#FFF" d="m121.05,21.692c-1.9119,0.04394-3.9525,0.8618-4.9573,2.5702-1.0704,1.8743-0.97518,4.282-0.0145,6.1814,0.73284,1.476,2.2452,2.4613,3.8596,2.6919,1.8149,0.31314,3.821,0.0034,5.2424-1.2374,1.6579-1.3978,2.165-3.786,1.7139-5.8421-0.35203-1.6018-1.3347-3.1582-2.8944-3.8064-0.92183-0.4091-1.9671-0.54252-2.9496-0.55756z"/><path id="path38" fill="#073a77" d="m121.08,23.09c-1.711-0.0088-3.5434,0.97004-4.0858,2.6683-0.65756,1.9057-0.0801,4.3141,1.6781,5.4287,1.8691,1.0917,4.554,0.85791,5.9882-0.84358,1.6258-1.9774,1.1738-5.3767-1.0731-6.6997-0.75423-0.42869-1.6534-0.53767-2.5073-0.55367z"/><path id="path40" fill="#FFF" d="m89.066,178.83c-0.0042,0-5.5623-0.0765-5.7227,5.4553,0,0-0.32732,6.1827,6.1292,6.0971,2.4174-0.0295,4.6103-1.412,5.3162-3.8294,0.50274-1.7222,0.3316-3.562-0.57227-5.1558-1.1125-1.9682-3.0379-2.5351-5.1558-2.5672z"/><path id="path42" fill="#073a77" d="m89.102,180.24c-1.7035-0.007-3.5274,0.96615-4.0679,2.6568-0.66457,1.9174-0.05969,4.3555,1.7384,5.4374,1.8682,1.0528,4.5279,0.79893,5.9253-0.91348,1.4966-1.8746,1.1728-4.9815-0.77912-6.4178-0.80552-0.60344-1.8378-0.7452-2.8167-0.76288z"/><path id="path46" fill="#FFF" d="m122.12,174.55c-0.006,0-5.5623-0.0787-5.7227,5.4553,0,0-0.32731,6.172,6.1292,6.0971,2.4174-0.0296,4.6103-1.412,5.3162-3.8294,0.50167-1.7222,0.33052-3.562-0.57227-5.1558-1.1125-1.9682-3.0379-2.5351-5.1558-2.5672z"/><path id="path48" fill="#073a77" d="m122.16,176.25c-1.559-0.001-3.2326,0.86149-3.7658,2.3956-0.65222,1.7826-0.13155,4.0611,1.5144,5.1235,1.612,0.94837,3.8694,0.84956,5.2705-0.44005,1.6851-1.6078,1.5796-4.6245-0.13489-6.1697-0.7762-0.7044-1.8696-0.89789-2.8842-0.90932z"/><path id="path52" fill="#FFF" d="m206.62,119.99c-2.3708-0.00015-4.9109,1.4023-5.4907,3.834-0.75791,2.7221,0.31493,6.2223,3.1396,7.2702,2.5972,0.99973,6.0451,0.40345,7.5389-2.1327,1.5578-2.6607,0.90162-6.6931-1.9027-8.2555-1.0049-0.53415-2.1603-0.69864-3.2851-0.71604z"/><path id="path54" fill="#073a77" d="m206.68,121.7c-1.9502-0.0934-3.9285,1.463-4.0302,3.466-0.20966,1.783,0.73916,3.7809,2.4889,4.4105,1.6411,0.58723,3.6643,0.24213,4.8322-1.1113,1.6393-1.845,1.0737-5.1379-1.0903-6.3271-0.66855-0.37333-1.451-0.42745-2.2006-0.43808z"/><path id="path56" fill="#FFF" d="m206.62,96.462c-2.3709-0.000739-4.9111,1.4019-5.4907,3.8337-0.75736,2.7209,0.31279,6.2161,3.1332,7.2667,2.595,1.0055,6.0419,0.40556,7.5347-2.1289,1.5581-2.6609,0.90384-6.693-1.9016-8.2555-0.99869-0.53363-2.1747-0.69942-3.2755-0.71603z"/><path id="path58" fill="#073a77" d="m206.67,98.17c-1.9514-0.09438-3.9303,1.4643-4.0308,3.4683-0.21307,1.8085,0.77864,3.8348,2.5692,4.432,1.6516,0.56483,3.6739,0.17888,4.8117-1.2032,1.5793-1.8747,0.97891-5.1354-1.1988-6.2859-0.65799-0.35446-1.4198-0.39815-2.1514-0.41109z"/><path id="path60" fill="#FFF" d="m155.28,29.073c-1.9119,0.04394-3.9525,0.8618-4.9573,2.5702-1.0704,1.8743-0.97517,4.282-0.0145,6.1814,0.73284,1.476,2.2452,2.4613,3.8596,2.6919,1.8149,0.31314,3.821,0.0034,5.2424-1.2374,1.6578-1.3979,2.1651-3.786,1.7144-5.8421-0.35234-1.6017-1.3353-3.1581-2.8949-3.8064-0.92179-0.4091-1.9671-0.54252-2.9496-0.55756z"/><path id="path62" fill="#073a77" d="m155.31,30.47c-1.7112-0.0095-3.5439,0.96974-4.086,2.6683-0.65727,1.9057-0.0802,4.314,1.6781,5.4286,1.8659,1.0896,4.5435,0.85887,5.9805-0.83399,1.6135-1.9525,1.1956-5.2959-0.98308-6.6607-0.7706-0.46568-1.7047-0.58727-2.5895-0.60231z"/><path id="path64" fill="#FFF" d="m27.346,69.399c-0.0053,0-5.5623-0.07765-5.7227,5.4553,0,0-0.32732,6.1827,6.1292,6.0971,2.4174-0.0307,4.6103-1.412,5.3162-3.8294,0.50381-1.7222,0.3316-3.562-0.57227-5.1558-1.1125-1.9682-3.0379-2.5351-5.1558-2.5672z"/><path id="path66" fill="#073a77" d="m27.325,71.05c-1.5842-0.0084-3.2805,0.89807-3.7828,2.4704-0.60876,1.7644-0.0736,3.9939,1.5541,5.0259,1.7327,1.0122,4.2243,0.79382,5.5492-0.78862,1.3991-1.7181,1.1338-4.5752-0.62836-5.9451-0.75945-0.60193-1.7507-0.75082-2.6922-0.76256z"/><path id="path68" fill="#FFF" d="m44.996,76.994c-0.0042,0-4.9633-0.06888-5.1023,4.867,0,0-0.29095,5.5088,5.4767,5.4339,2.15-0.02632,4.1075-1.2622,4.7386-3.4229,0.44819-1.5296,0.2963-3.1769-0.51023-4.5996-0.99479-1.7543-2.7063-2.2677-4.5996-2.2891z"/><path id="path70" fill="#073a77" d="m45.078,78.416c-1.4536-0.0095-3.0151,0.8212-3.4748,2.2649-0.56142,1.6385-0.05531,3.7136,1.4703,4.6524,1.588,0.90388,3.847,0.70866,5.0646-0.72455,1.4042-1.6867,1.0048-4.6122-0.93217-5.7248-0.64945-0.35226-1.4027-0.42857-2.1279-0.46793z"/><path id="path72" fill="#FFF" d="m76.444,77.315c-0.0054,0-4.9633-0.06888-5.1023,4.867,0,0-0.29202,5.5088,5.466,5.4339,2.15-0.02632,4.1075-1.2622,4.7386-3.4229,0.44819-1.5296,0.2963-3.1769-0.51023-4.5996-0.99372-1.7543-2.7063-2.2677-4.5996-2.2891z"/><path id="path74" fill="#073a77" d="m76.411,78.448c-1.5661-0.01059-3.2487,0.88436-3.744,2.4398-0.6064,1.7695-0.05798,4.0175,1.5979,5.0213,1.7096,0.96702,4.1344,0.74981,5.4433-0.78855,1.5128-1.8173,1.0823-4.9694-1.0043-6.1684-0.69983-0.37951-1.5115-0.4617-2.2929-0.50414z"/><path id="path76" fill="#FFF" d="m173.46,73.892c-0.0728,2.2894,1.9555,4.2957,4.2613,4.0647,2.2123,0.08216,4.3748-1.6703,4.2907-3.9785,0.29577-2.4247-1.9093-4.5741-4.3052-4.3842-2.1042-0.06561-4.2293,1.5197-4.2194,3.7398l-0.0188,0.27714-0.008,0.28105z"/><path id="path78" fill="#073a77" d="m174.46,73.902c-0.14194,1.3452,0.89958,2.6194,2.1805,2.9359,1.4301,0.45636,3.2092-0.04109,3.9786-1.3868,0.6911-1.1265,0.52208-2.678-0.36416-3.6516-0.87143-1.0482-2.4218-1.5731-3.7114-1.028-0.96135,0.31696-1.7978,1.1063-1.9905,2.1248-0.0806,0.32821-0.11128,0.66838-0.093,1.0058z"/><path id="path80" fill="#FFF" d="m173.46,48.861c-0.0521,2.1546,1.7444,4.1416,3.9503,4.0636,2.2842,0.19018,4.6757-1.5196,4.6038-3.951,0.28142-2.3553-1.7743-4.5283-4.1393-4.4095-2.1532-0.13608-4.4115,1.4523-4.391,3.7458l-0.0171,0.27638-0.006,0.27468z"/><path id="path82" fill="#073a77" d="m174.46,48.873c-0.14821,1.356,0.91283,2.6354,2.2075,2.937,1.3525,0.4129,3.0245,0.02094,3.8248-1.2075,0.7421-1.0768,0.77162-2.6462-0.0826-3.6714-0.9598-1.2826-2.8862-1.8367-4.3136-1.0177-0.98482,0.47694-1.6306,1.5323-1.634,2.6235-0.006,0.11193-0.006,0.2241-0.001,0.33608z"/><path id="path84" fill="#FFF" d="m182.02,149.94c0.002,0,3.7224,0.0514,3.8294-3.6476,0,0,0.21607-4.1289-4.1075-4.0754-1.6152,0.0196-3.0806,0.94558-3.5513,2.5672-0.33801,1.1446-0.22142,2.3747,0.38401,3.4443,0.74234,1.3157,2.0324,1.7008,3.4443,1.7222z"/><path id="path86" fill="#073a77" d="m182,149.11c1.1515-0.0003,2.3945-0.6289,2.7865-1.7665,0.46965-1.3129,0.10579-2.9864-1.0957-3.783-1.1118-0.67491-2.638-0.65389-3.7011,0.10836-0.86281,0.65216-1.2472,1.7976-1.0932,2.851,0.12082,1.0583,0.80585,2.1151,1.8702,2.412,0.39862,0.12405,0.8175,0.16703,1.2333,0.17813z"/><path id="path88" fill="#FFF" d="m158.49,149.94c0.005,0,3.7224,0.0514,3.8294-3.6476,0,0,0.21821-4.1289-4.1075-4.0754-1.6152,0.0218-3.0806,0.94772-3.5513,2.5672-0.33694,1.1446-0.22034,2.3747,0.38188,3.4443,0.74556,1.3157,2.0324,1.7008,3.4443,1.7222z"/><path id="path90" fill="#073a77" d="m158.47,149.11c1.1514-0.00031,2.3945-0.62887,2.7865-1.7665,0.46955-1.3127,0.10744-2.9869-1.0948-3.7831-1.1124-0.67457-2.6391-0.65406-3.7027,0.10837-0.8623,0.65232-1.2461,1.7974-1.0926,2.8504,0.12005,1.0588,0.80392,2.116,1.8684,2.4139,0.39855,0.12635,0.81835,0.17359,1.2352,0.17688z"/><path id="path92" fill="#FFF" d="m153.14,156.36c0.004-1.6981-1.1766-3.4151-2.9267-3.6514-1.9143-0.3893-4.3122,0.51587-4.7932,2.571-0.51194,1.7369,0.15544,3.8883,1.8927,4.6504,1.9898,0.92926,4.966,0.21445,5.6267-2.0778,0.14503-0.48312,0.19658-0.98944,0.20043-1.4923z"/><path id="path94" fill="#073a77" d="m149.13,153.77c-1.2832-0.018-2.547,0.99674-2.6677,2.3007-0.13201,0.9145,0.18136,1.9251,0.9389,2.4911,0.80578,0.65507,1.963,0.79429,2.921,0.41501,0.77399-0.28685,1.3955-0.9665,1.5671-1.7799,0.20892-0.91776-0.0426-1.9402-0.67114-2.6431-0.54008-0.56297-1.3369-0.74157-2.0882-0.78384z"/><path id="path96" fill="#FFF" d="m153.14,179.9c0.005-1.6984-1.1764-3.4156-2.9267-3.6514-1.9143-0.38918-4.3122,0.51589-4.7932,2.5711-0.51194,1.7369,0.15544,3.8883,1.8927,4.6504,1.9902,0.92702,4.9661,0.21287,5.6267-2.0794,0.14481-0.48263,0.19641-0.98838,0.20043-1.4907z"/><path id="path98" fill="#073a77" d="m151.97,179.94c0.0897-1.5254-1.4422-2.8763-2.9432-2.6372-1.2596,0.0357-2.4719,1.0385-2.5762,2.3258-0.12584,0.87837,0.15861,1.8311,0.85371,2.4077,0.74062,0.65686,1.8208,0.85732,2.7617,0.57384,0.87947-0.22279,1.6098-0.93539,1.8194-1.8233,0.0736-0.27523,0.10354-0.56243,0.0846-0.84684z"/><path id="path104" fill="#FFF" d="m16.542,33.886c-0.0042,0-4.9633-0.06888-5.1023,4.867,0,0-0.29202,5.5088,5.4767,5.4339,2.15-0.0262,4.1075-1.2622,4.7386-3.4229,0.44819-1.5296,0.2963-3.1769-0.51023-4.5996-0.99479-1.7543-2.7063-2.2677-4.5996-2.2891z"/><path id="path106" fill="#073a77" d="m16.62,35.36c-1.7138-0.05241-3.5069,1.0569-3.8063,2.6914-0.40747,1.6532,0.38383,3.6327,2.1137,4.3299,1.777,0.74292,4.1749,0.28284,5.2319-1.3169,1.1579-1.7432,0.53321-4.3963-1.4831-5.3307-0.64334-0.27347-1.3588-0.33786-2.0561-0.37362z"/><path id="path108" fill="#FFF" d="m47.991,34.207c-0.0042,0-4.9633-0.06888-5.1023,4.867,0,0-0.29202,5.5088,5.4767,5.4339,2.15-0.0262,4.1075-1.2622,4.7386-3.4229,0.44819-1.5296,0.29523-3.1662-0.51023-4.5996-0.99479-1.7543-2.7063-2.2677-4.5996-2.2891z"/><path id="path110" fill="#073a77" d="m47.966,35.63c-1.6235-0.05318-3.3221,1.0719-3.6056,2.729-0.38422,1.6712,0.35896,3.6701,1.9881,4.3831,1.6851,0.76106,3.9663,0.2986,4.9699-1.3288,1.0966-1.7676,0.50517-4.4575-1.4047-5.4054-0.60945-0.27712-1.2872-0.34167-1.9477-0.37791z"/><path id="path112" fill="#FFF" d="m192.72,56.563c-0.073,2.2895,1.9555,4.2957,4.2613,4.0647,2.2123,0.08217,4.3748-1.6703,4.2907-3.9785,0.29545-2.4244-1.9094-4.574-4.3052-4.3842-2.1026-0.06413-4.2353,1.5182-4.2225,3.7398l-0.0174,0.27717-0.007,0.28106z"/><path id="path114" fill="#073a77" d="m193.72,56.572c-0.14331,1.3704,0.93807,2.661,2.2479,2.9566,1.455,0.43897,3.2495-0.12232,3.9736-1.5143,0.66713-1.195,0.38787-2.7977-0.59756-3.7352-0.90877-0.9467-2.4068-1.3569-3.6303-0.80639-1.0103,0.35251-1.8314,1.2606-1.9532,2.3414-0.0415,0.25008-0.0549,0.50479-0.0404,0.75787z"/><path id="path116" fill="#FFF" d="m192.72,31.533c-0.073,2.2896,1.9555,4.2956,4.2613,4.0648,2.2128,0.08334,4.3752-1.6701,4.2907-3.9784,0.29637-2.4247-1.9091-4.5736-4.3047-4.3844-2.1-0.06363-4.2238,1.5259-4.2123,3.7409-0.19094-0.0057,0.16426,0.58764-0.035,0.55712z"/><path id="path118" fill="#073a77" d="m193.71,31.544c-0.14208,1.345,0.89911,2.6193,2.1799,2.9355,1.4294,0.45604,3.2071-0.04058,3.9772-1.3848,0.6951-1.1306,0.52301-2.6905-0.37121-3.6646-0.87281-1.0412-2.4169-1.5608-3.7026-1.0192-0.96206,0.31645-1.7954,1.109-1.9875,2.1272-0.0806,0.32826-0.11202,0.66829-0.0957,1.0058z"/><path id="path120" fill="#FFF" d="m60.934,178.83c0.0065,0,5.8725,0.0491,6.0222-5.7976,0,0,0.30913-6.5357-6.5143-6.4073-2.5458,0.0469-4.8563,1.5189-5.5944,4.0861-0.52307,1.8184-0.32839,3.7545,0.63431,5.4446,1.1873,2.0752,3.2304,2.6635,5.466,2.6849z"/><path id="path122" fill="#073a77" d="m60.884,176.97c1.6302-0.006,3.3743-0.91731,3.9221-2.5254,0.66893-1.8609,0.10742-4.2305-1.6156-5.323-1.7147-0.99649-4.1213-0.85952-5.5691,0.55288-1.745,1.7589-1.5168,5.0124,0.44265,6.5205,0.79878,0.60827,1.8421,0.76079,2.8199,0.77506z"/><path id="path124" fill="#FFF" d="m23.709,178.83c0.0065,0,5.8725,0.0514,6.0115-5.7976,0,0,0.31234-6.5357-6.5143-6.4073-2.5458,0.0448-4.867,1.5189-5.5944,4.0861-0.51986,1.8184-0.32946,3.7545,0.63645,5.4446,1.1873,2.0752,3.2197,2.6635,5.4553,2.6849z"/><path id="path126" fill="#073a77" d="m23.674,177.29c1.7789-0.00007,3.6825-1.0278,4.2298-2.8007,0.6643-1.9868,0.04824-4.4813-1.7823-5.6331-1.8946-1.0904-4.5743-0.89688-6.0981,0.7446-1.82,2.0222-1.4144,5.6682,0.95895,7.0907,0.80751,0.47166,1.7732,0.58243,2.6917,0.59849z"/><path id="path128" fill="#FFF" d="m197,170.27c2.0074,0.0132,4.1245-1.2862,4.4417-3.3816,0.49868-2.2667-0.6629-5.058-3.0821-5.5961-2.1269-0.62062-4.8088,0.16645-5.7081,2.3317-1.0372,2.3241-0.0877,5.6863,2.5551,6.402,0.57751,0.17247,1.2071,0.23669,1.7934,0.24405z"/><path id="path130" fill="#073a77" d="m196.96,168.78c1.6418,0.10494,3.2218-1.3989,3.0921-3.0619,0.0368-1.2915-0.80936-2.5663-2.0473-2.9734-0.89711-0.29931-1.9378-0.23647-2.7688,0.22595-1.1813,0.69409-1.767,2.2077-1.4101,3.5234,0.21654,0.95067,0.90425,1.8191,1.8584,2.1029,0.40823,0.14231,0.84408,0.20323,1.2757,0.18306z"/><path id="path132" fill="#FFF" d="m169.18,169.29c2.0074,0.0132,4.1245-1.2862,4.4417-3.3816,0.49889-2.2667-0.66235-5.0582-3.0818-5.5961-2.127-0.62063-4.809,0.16626-5.7084,2.3317-1.0356,2.3242-0.0866,5.6864,2.5562,6.402,0.57621,0.17246,1.2109,0.23688,1.7923,0.24405z"/><path id="path134" fill="#073a77" d="m169.17,168.43c1.9524,0.12434,3.8422-1.64,3.7185-3.6211,0.0772-1.6156-1.0113-3.2191-2.5757-3.6772-1.0517-0.31374-2.2528-0.2304-3.2177,0.30777-1.4214,0.83559-2.1241,2.6575-1.6959,4.2404,0.26043,1.1438,1.0882,2.1884,2.236,2.53,0.49112,0.1712,1.0154,0.24455,1.5347,0.22022z"/><path id="polyline136" style="block-progression:tb;color:#000000;direction:ltr;text-indent:0;text-align:start;enable-background:accumulate;text-transform:none;" fill="#FFF" d="m171.58,93.098-0.31337,0.40991-10.828,12.502-20.647-0.10248,0,2.1862,21.17,0.10247,0.52226,0,0.31338-0.37575,10.828-12.537,9.1224,0,10.863,7.7884,0.27854,0.20497,0.383,0,7.7993,0.10247,0-2.1862-7.4163-0.10247-10.863-7.7542-0.31338-0.23912-0.34817,0-10.028,0-0.52228,0z"/><path id="polyline138" style="block-progression:tb;color:#000000;direction:ltr;text-indent:0;text-align:start;enable-background:accumulate;text-transform:none;" fill="#FFF" d="m170.29,123.84-0.26843,0.68319-4.0263,10.999-7.0461,0-1.9125-6.8661-0.23487-0.78567-0.80527,0-15.032,0,0,2.1862,14.226,0,1.9125,6.8661,0.23487,0.78566,0.80526,0,8.5895,0,0.73816,0,0.26843-0.71734,4.0264-10.965,30.399,0.10248,0-2.1862-31.137-0.10248-0.73817,0z"/><path id="line140" style="block-progression:tb;color:#000000;direction:ltr;text-indent:0;text-align:start;enable-background:accumulate;text-transform:none;" fill="#FFF" d="m50.351,81.252,0,2.2062,21.159,0,0-2.2062-21.159,0z"/><path id="polyline142" style="block-progression:tb;color:#000000;direction:ltr;text-indent:0;text-align:start;enable-background:accumulate;text-transform:none;" fill="#FFF" d="m62.805,55.195,0,1.7463,22.388,0.08186,0,13.179,0,0.54571,0.62673,0.24557,11.977,4.4748,0,13.779,2.2284,0,0-14.325,0-0.54571-0.66155-0.24557-11.943-4.4748,0-13.506,0-0.87313-1.1142,0-23.502-0.08185z"/><path id="polyline144" style="block-progression:tb;color:#000000;direction:ltr;text-indent:0;text-align:start;enable-background:accumulate;text-transform:none;" fill="#FFF" d="m120.85,33.114,0,22.497-7.5208,7.4892-0.27855,0.26227,0,0.32055,0,24.915,2.2284,0,0-24.595,7.5208-7.46,0.27856-0.26227,0-0.32055,0-22.846-2.2284,0z"/><path id="polyline146" style="block-progression:tb;color:#000000;direction:ltr;text-indent:0;text-align:start;enable-background:accumulate;text-transform:none;" fill="#FFF" d="m46.525,111.03-0.26775,0.23911-10.409,8.4032-20.851,0,0,2.1862,21.219,0,0.36816,0,0.26775-0.23913,10.409-8.4032,10.175,0,7.2628,9.3256,0.33469,0.40991,0.50204,0,14.358,0.10248,0-2.1862-13.823-0.10247-7.2963-9.3255-0.30122-0.40992-0.53551,0-11.011,0-0.40163,0z"/><path id="polyline148" style="block-progression:tb;color:#000000;direction:ltr;text-indent:0;text-align:start;enable-background:accumulate;text-transform:none;" fill="#FFF" d="m58.482,131.15-0.3001,0.47822-10.67,15.918-9.5696,0-10.103-11.648-0.33344-0.37575-0.4668,0-4.9015,0,0,2.1862,4.4347,0,10.136,11.648,0.30009,0.37577,0.50014,0,10.537,0,0.56684,0,0.33344-0.47824,10.637-15.918,20.473,0,0-2.1862-21.006,0-0.56684,0z"/><path id="polyline150" style="block-progression:tb;color:#000000;direction:ltr;text-indent:0;text-align:start;enable-background:accumulate;text-transform:none;" fill="#FFF" d="m96.788,135.92,0,19.314-8.3216,10.838-0.27854,0.34835,0,0.46449,0,12.386,2.2284,0,0-11.883,8.3216-10.838,0.27854-0.34835,0-0.46447,0-19.818-2.2284,0z"/><path id="polyline152" style="block-progression:tb;color:#000000;direction:ltr;text-indent:0;text-align:start;enable-background:accumulate;text-transform:none;" fill="#FFF" d="m119.73,135.39,0,11.038-2.0543,3.4941-0.17409,0.31764,0,0.39707,0,8.8941,0,0.47646,0.27855,0.35736,6.4066,8.5368,0,7.1471,2.2284,0,0-7.6235,0-0.47647-0.27854-0.35735-6.4066-8.5368,0-8.0206,2.0543-3.4941,0.1741-0.31765,0-0.39706,0-11.435-2.2284,0z"/><path id="polyline154" style="block-progression:tb;color:#000000;direction:ltr;text-indent:0;text-align:start;enable-background:accumulate;text-transform:none;" fill="#FFF" d="m154.27,40.324,0,8.1163-6.2325,3.7374-0.45262,0.27891,0,0.44626,0,8.4231-17.305,8.7578-0.52227,0.27891,0,0.47415,0,17.683,2.2284,0,0-17.181,17.305-8.7578,0.52227-0.25102,0-0.50204,0-8.4789,6.2325-3.7374,0.45264-0.27891,0-0.44626,0-8.5626-2.2284,0z"/><path id="polyline156" style="block-progression:tb;color:#000000;direction:ltr;text-indent:0;text-align:start;enable-background:accumulate;text-transform:none;" fill="#FFF" d="m26.735,79.775,0.10098,10.931,0,0.40991,0.26931,0.30744,10.133,11.375,0.33665,0.37575,0.4713,0,22.656,0,5.7902,7.5493,0.33664,0.40992,0.50496,0,12.388,0,0-2.1862-11.85,0-5.8238-7.5493-0.30297-0.4099-0.53862,0-22.656,0-9.5605-10.692-0.10098-10.521-2.1545,0z"/><path id="line158" style="block-progression:tb;color:#000000;direction:ltr;text-indent:0;text-align:start;enable-background:accumulate;text-transform:none;" fill="#FFF" d="m176.64,52.706v16.914h2.2062v-16.914h-2.2062z"/><path id="line160" style="block-progression:tb;color:#000000;direction:ltr;text-indent:0;text-align:start;enable-background:accumulate;text-transform:none;" fill="#FFF" d="m161.7,144.56,0,2.2062,16.045,0,0-2.2062-16.045,0z"/><path id="line162" style="block-progression:tb;color:#000000;direction:ltr;text-indent:0;text-align:start;enable-background:accumulate;text-transform:none;" fill="#FFF" d="m147.76,160.64v16.045h2.2062v-16.045h-2.2062z"/><path id="line164" style="block-progression:tb;color:#000000;direction:ltr;text-indent:0;text-align:start;enable-background:accumulate;text-transform:none;" fill="#FFF" d="m22.004,38.232,0,2.2062,21.059,0,0-2.2062-21.059,0z"/><path id="line166" style="block-progression:tb;color:#000000;direction:ltr;text-indent:0;text-align:start;enable-background:accumulate;text-transform:none;" fill="#FFF" d="m195.89,35.39v16.881h2.2062v-16.881h-2.2062z"/><path id="line168" style="block-progression:tb;color:#000000;direction:ltr;text-indent:0;text-align:start;enable-background:accumulate;text-transform:none;" fill="#FFF" d="m54.462,171.3-25.037,1.0697,0.10022,2.2062,25.037-1.0697-0.10023-2.2062z"/><path id="line170" style="block-progression:tb;color:#000000;direction:ltr;text-indent:0;text-align:start;enable-background:accumulate;text-transform:none;" fill="#FFF" d="m173.46,163.82v2.2062h19.254v-2.2062h-19.254z"/><path id="path184" fill="#FFF" d="m9.0547,114.65c-0.00535,0-5.5623-0.0765-5.7227,5.4553,0,0-0.32625,6.1827,6.1292,6.0971,2.4174-0.0296,4.6103-1.412,5.3162-3.8294,0.50381-1.7222,0.3316-3.562-0.57227-5.1558-1.1125-1.9682-3.0379-2.5351-5.1558-2.5672z"/><path id="path186" fill="#073a77" d="m9.1028,116.36c-2.1207-0.14282-4.1567,1.7744-4.0443,3.9181-0.057013,1.8793,1.2972,3.7969,3.2005,4.1108,1.9199,0.42818,4.184-0.59332,4.8331-2.5168,0.71049-1.9468-0.20249-4.4577-2.1866-5.2344-0.57682-0.20652-1.1941-0.26338-1.8026-0.27771z"/><path id="path188" fill="#FFF" d="m16.328,130.69c-0.0053,0-5.5623-0.0787-5.7227,5.4553,0,0-0.32625,6.1827,6.1292,6.0971,2.4174-0.0295,4.6103-1.412,5.3162-3.8294,0.50274-1.7115,0.33053-3.562-0.57227-5.1558-1.1125-1.9682-3.0379-2.5351-5.1558-2.5672z"/><path id="path190" fill="#073a77" d="m16.38,132.71c-1.609-0.0422-3.2992,1.039-3.6205,2.676-0.41544,1.6604,0.26784,3.6666,1.8643,4.4385,1.6596,0.80433,3.9294,0.42102,5.016-1.1373,1.2163-1.7579,0.688-4.5478-1.2408-5.572-0.62365-0.31003-1.3313-0.39097-2.0189-0.40525z"/></g><path id="path17" style="stroke-dasharray:none;" d="m109.04,112.74c-37.519,0-67.946,8.0786-67.946,18.059v30.112c0,9.9803,30.427,18.059,67.946,18.059,37.512,0,67.946-8.0786,67.946-18.059v-30.112c0-9.9803-30.434-18.059-67.946-18.059z" stroke="#b79611" stroke-miterlimit="4" stroke-width="1.42983592" fill="#e0e0e0"/><path id="path19" stroke-linejoin="miter" style="enable-background:accumulate;color:#000000;stroke-dasharray:none;" d="m177.03,130.75c0,9.9803-30.413,18.066-67.932,18.066s-67.924-8.0857-67.924-18.066c0-9.9731,30.413-18.066,67.924-18.066,37.519,0,67.932,8.0857,67.932,18.066z" fill-rule="nonzero" stroke-dashoffset="0" stroke="#b79611" stroke-linecap="butt" stroke-miterlimit="4" stroke-width="1.42983592" fill="#EC2"/><path id="path21" style="stroke-dasharray:none;" d="m109.04,75.24c-37.519,0-67.946,8.0786-67.946,18.059v30.112c0,9.9802,30.427,18.059,67.946,18.059,37.512,0,67.946-8.0786,67.946-18.059v-30.111c0-9.9731-30.434-18.059-67.946-18.059z" stroke="#b79611" stroke-miterlimit="4" stroke-width="1.42983592" fill="#e0e0e0"/><path id="path23" stroke-linejoin="miter" style="enable-background:accumulate;color:#000000;stroke-dasharray:none;" d="m177.03,93.299c0,9.9803-30.413,18.066-67.932,18.066s-67.924-8.0857-67.924-18.066,30.413-18.066,67.924-18.066c37.519-0.00071,67.932,8.0857,67.932,18.066z" fill-rule="nonzero" stroke-dashoffset="0" stroke="#b79611" stroke-linecap="butt" stroke-miterlimit="4" stroke-width="1.42983592" fill="#EC2"/><path id="path25" style="stroke-dasharray:none;" d="m109.04,36.969c-37.519,0-67.946,9.6657-67.946,19.646v28.525c0,9.9802,30.427,18.059,67.946,18.059s67.946-8.0786,67.946-18.059v-28.526c0-9.9803-30.434-19.646-67.946-19.646z" stroke="#b79611" stroke-miterlimit="4" stroke-width="1.42983592" fill="#e0e0e0"/><path id="path27" style="stroke-dasharray:none;" d="m176.96,56.617c0,9.9803-30.413,16.479-67.932,16.479s-67.932-6.5015-67.932-16.479c0-9.9774,30.413-19.653,67.932-19.653s67.932,9.68,67.932,19.653z" stroke="#b79611" stroke-miterlimit="4" stroke-width="1.42983592" fill="#EC2"/><path id="path29" fill="#bababa" d="m164.09,67.648s-9.7086,29.019-53.955,34.688c0,0,58.201,0.27746,65.98-16.064l0.0551-25.458c0-0.000715-1.4627,3.2228-12.082,6.8368z"/><path id="path31" fill="#bababa" d="m164.52,104.73s-10.23,30.019-54.477,35.853c0,0,59.195,0.27746,66.094-16.343l-0.11117-26.624c0,0.00072-0.38862,2.4464-11.503,7.1163z"/><path id="path33" fill="#bababa" d="m166.45,141.41s-11.267,30.856-55.513,36.69c0,0,59.067-0.14856,65.444-16.6l-0.22234-26.531s-0.3709,2.1498-9.7086,6.4478z"/></svg>