<?xml version="1.0"?>
<?metis version="3.1"?>
<?metisxml version="1.0"?>
<!DOCTYPE svg  PUBLIC "-//W3C//DTD SVG August 1999//EN"
 "http://www.w3.org/Graphics/SVG/svg-19990812.dtd">

<svg width="200" height="200">
 <title>Symbol library: machine.svg</title>
 <defs>
  <symbol id="oid0" xml:space="preserve" class="METIS_SYMBOL">
   <title>Machine</title>
    <g>
      <polygon points="7.10543e-015 0 7.10543e-015 304 16.2963 320 
       880 320 880 16 863.704 0 7.10543e-015 0 
       7.10543e-015 0 7.10543e-015 0 7.10543e-015 0 7.10543e-015 0 7.10543e-015 0 "
       style=" stroke:#000000; stroke-width:1; fill:#9b9b9b; fill-opacity:100%"       class="TAG:shadow"></polygon>
      <rect x="7.10543e-015" y="0" width="240" height="304"
       style=" stroke:#000000; stroke-width:1; fill:#ffffff; fill-opacity:100%"       class="TAG:PictureBackground"></rect>
      <rect x="240" y="0" width="624" height="304"
       style=" stroke:#000000; stroke-width:1; fill:#96a5ff; fill-opacity:100%"       class="TAG:canvas"></rect>
      <g>
	<desc>METIS_TEXT_GROUP</desc>
	<text  x="256" y="15.8"
	 style=" stroke:#000000; stroke-width:1; font-family:sans-serif; font-size:16;"
	 class="TAG:text">text</text>
	<rect x="256" y="0" width="608" height="304"
	 style=" stroke:#000000; stroke-width:1; fill:#ffffff; fill-opacity:0%"></rect>
      </g>
      <g>
	<polygon points="68.0003 77.7137 68.0003 77.7137 85.3334 169.142 
	 172 123.428 154.667 32 68.0003 77.7137 68.0003 77.7137 
	 68.0003 77.7137 68.0003 77.7137 68.0003 77.7137 68.0003 77.7137 "
	 style=" stroke:#000000; stroke-width:1; fill:#696969; fill-opacity:100%"	 class="TAG:right"></polygon>
	<polygon points="50.6672 169.143 50.6672 214.856 120 214.856 
	 120 169.143 137.334 77.7137 102.667 77.7137 85.3334 169.143 
	 68.0003 77.7137 33.3333 77.7137 50.6672 169.143 50.6672 169.143 
	 50.6672 169.143 50.6672 169.143 50.6672 169.143 50.6672 169.143 "
	 style=" stroke:#000000; stroke-width:1; fill:#b9b9b9; fill-opacity:100%"	 class="TAG:front"></polygon>
	<polygon points="33.3333 77.7137 33.3333 77.7137 120 32 
	 154.667 32 68.0003 77.7137 33.3333 77.7137 33.3333 77.7137 
	 33.3333 77.7137 33.3333 77.7137 33.3333 77.7137 33.3333 77.7137 "
	 style=" stroke:#000000; stroke-width:1; fill:#dcdcdc; fill-opacity:100%"	 class="TAG:top"></polygon>
	<polygon points="102.667 77.7137 102.667 77.7137 189.333 32 
	 224 32 137.334 77.7137 102.667 77.7137 102.667 77.7137 
	 102.667 77.7137 102.667 77.7137 102.667 77.7137 102.667 77.7137 "
	 style=" stroke:#000000; stroke-width:1; fill:#dcdcdc; fill-opacity:100%"	 class="TAG:top"></polygon>
	<polygon points="185.677 210.927 96.8438 257.892 120 214.856 
	 120 169.142 137.334 77.7137 224 32 206.667 123.428 
	 206.667 169.321 206.26 177.715 203.958 186.821 200.708 195.035 
	 196.51 201.821 191.636 206.643 185.677 210.927 185.677 210.927 
	 185.677 210.927 185.677 210.927 185.677 210.927 185.677 210.927 "
	 style=" stroke:#000000; stroke-width:1; fill:#696969; fill-opacity:100%"	 class="TAG:right"></polygon>
	<ellipse  cx="85.3334" cy="214.856" rx="34.6665" ry="45.7142"
	 style=" stroke:#000000; stroke-width:1; fill:#b9b9b9; fill-opacity:100%"	 class="TAG:front"></ellipse>
	<polygon points="104.833 37.7147 104.833 37.7147 104.833 46.2853 
	 116.209 46.2853 116.209 37.7147 104.833 37.7147 104.833 37.7147 
	 104.833 37.7147 104.833 37.7147 104.833 37.7147 104.833 37.7147 "
	 style=" stroke:#000000; stroke-width:1; fill:#b9b9b9; fill-opacity:100%"	 class="TAG:front"></polygon>
	<polygon points="104.833 37.7147 116.209 32 127.041 32 
	 116.209 37.7147 104.833 37.7147 104.833 37.7147 104.833 37.7147 
	 104.833 37.7147 104.833 37.7147 104.833 37.7147 "
	 style=" stroke:#000000; stroke-width:1; fill:#dcdcdc; fill-opacity:100%"	 class="TAG:top"></polygon>
	<polygon points="127.041 32 116.209 37.7147 116.209 46.2853 
	 127.041 40.5716 127.041 32 127.041 32 127.041 32 
	 127.041 32 127.041 32 127.041 32 "
	 style=" stroke:#000000; stroke-width:1; fill:#696969; fill-opacity:100%"	 class="TAG:right"></polygon>
	<polygon points="111.334 214.856 111.11 210.382 110.447 205.983 
	 109.355 201.736 107.85 197.713 105.961 193.984 103.718 190.612 
	 101.162 187.656 98.3339 185.164 95.2833 183.181 92.0623 181.738 
	 88.7268 180.865 85.3334 180.571 81.9392 180.865 78.6044 181.738 
	 75.3842 183.181 33.4688 205.036 51.8856 269.142 95.2833 246.532 
	 98.3339 244.55 101.162 242.057 103.718 239.1 105.961 235.728 
	 107.85 232 109.355 227.978 110.447 223.731 111.11 219.332 
	 111.334 214.856 111.334 214.856 111.334 214.856 111.334 214.856 
	 111.334 214.856 111.334 214.856 "
	 style=" stroke:#000000; stroke-width:1; fill:#696969; fill-opacity:100%"	 class="TAG:right"></polygon>
	<ellipse  cx="41.9999" cy="237.714" rx="25.9999" ry="34.2856"
	 style=" stroke:#000000; stroke-width:1; fill:#b9b9b9; fill-opacity:100%"	 class="TAG:front"></ellipse>
	<polygon points="86.9582 46.2853 86.9582 46.2853 86.9582 54.8569 
	 98.3339 54.8569 98.3339 46.2853 86.9582 46.2853 86.9582 46.2853 
	 86.9582 46.2853 86.9582 46.2853 86.9582 46.2853 86.9582 46.2853 "
	 style=" stroke:#000000; stroke-width:1; fill:#b9b9b9; fill-opacity:100%"	 class="TAG:front"></polygon>
	<polygon points="86.9582 46.2853 98.3339 40.5716 109.167 40.5716 
	 98.3339 46.2853 86.9582 46.2853 86.9582 46.2853 86.9582 46.2853 
	 86.9582 46.2853 86.9582 46.2853 86.9582 46.2853 "
	 style=" stroke:#000000; stroke-width:1; fill:#dcdcdc; fill-opacity:100%"	 class="TAG:top"></polygon>
	<polygon points="109.167 40.5716 98.3339 46.2853 98.3339 54.8569 
	 109.167 49.1432 109.167 40.5716 109.167 40.5716 109.167 40.5716 
	 109.167 40.5716 109.167 40.5716 109.167 40.5716 "
	 style=" stroke:#000000; stroke-width:1; fill:#696969; fill-opacity:100%"	 class="TAG:right"></polygon>
	<polygon points="69.6251 54.8569 69.6251 54.8569 69.6251 63.4285 
	 81.0001 63.4285 81.0001 54.8569 69.6251 54.8569 69.6251 54.8569 
	 69.6251 54.8569 69.6251 54.8569 69.6251 54.8569 69.6251 54.8569 "
	 style=" stroke:#000000; stroke-width:1; fill:#b9b9b9; fill-opacity:100%"	 class="TAG:front"></polygon>
	<polygon points="69.6251 54.8569 81.0001 49.1432 91.8333 49.1432 
	 81.0001 54.8569 69.6251 54.8569 69.6251 54.8569 69.6251 54.8569 
	 69.6251 54.8569 69.6251 54.8569 69.6251 54.8569 "
	 style=" stroke:#000000; stroke-width:1; fill:#dcdcdc; fill-opacity:100%"	 class="TAG:top"></polygon>
	<polygon points="91.8333 49.1432 81.0001 54.8569 81.0001 63.4285 
	 91.8333 57.7148 91.8333 49.1432 91.8333 49.1432 91.8333 49.1432 
	 91.8333 49.1432 91.8333 49.1432 91.8333 49.1432 "
	 style=" stroke:#000000; stroke-width:1; fill:#696969; fill-opacity:100%"	 class="TAG:right"></polygon>
	<polygon points="52.292 63.4285 52.292 63.4285 52.292 72 
	 63.667 72 63.667 63.4285 52.292 63.4285 52.292 63.4285 
	 52.292 63.4285 52.292 63.4285 52.292 63.4285 52.292 63.4285 "
	 style=" stroke:#000000; stroke-width:1; fill:#b9b9b9; fill-opacity:100%"	 class="TAG:front"></polygon>
	<polygon points="52.292 63.4285 63.667 57.7148 74.5002 57.7148 
	 63.667 63.4285 52.292 63.4285 52.292 63.4285 52.292 63.4285 
	 52.292 63.4285 52.292 63.4285 52.292 63.4285 "
	 style=" stroke:#000000; stroke-width:1; fill:#dcdcdc; fill-opacity:100%"	 class="TAG:top"></polygon>
	<polygon points="74.5002 57.7148 63.667 63.4285 63.667 72 
	 74.5002 66.2862 74.5002 57.7148 74.5002 57.7148 74.5002 57.7148 
	 74.5002 57.7148 74.5002 57.7148 74.5002 57.7148 "
	 style=" stroke:#000000; stroke-width:1; fill:#696969; fill-opacity:100%"	 class="TAG:right"></polygon>
	<polygon points="174.167 37.7147 174.167 37.7147 174.167 46.2853 
	 185.541 46.2853 185.541 37.7147 174.167 37.7147 174.167 37.7147 
	 174.167 37.7147 174.167 37.7147 174.167 37.7147 174.167 37.7147 "
	 style=" stroke:#000000; stroke-width:1; fill:#b9b9b9; fill-opacity:100%"	 class="TAG:front"></polygon>
	<polygon points="174.167 37.7147 185.541 32 196.375 32 
	 185.541 37.7147 174.167 37.7147 174.167 37.7147 174.167 37.7147 
	 174.167 37.7147 174.167 37.7147 174.167 37.7147 "
	 style=" stroke:#000000; stroke-width:1; fill:#dcdcdc; fill-opacity:100%"	 class="TAG:top"></polygon>
	<polygon points="196.375 32 185.541 37.7147 185.541 46.2853 
	 196.375 40.5716 196.375 32 196.375 32 196.375 32 
	 196.375 32 196.375 32 196.375 32 "
	 style=" stroke:#000000; stroke-width:1; fill:#696969; fill-opacity:100%"	 class="TAG:right"></polygon>
	<polygon points="156.292 46.2853 156.292 46.2853 156.292 54.8569 
	 167.666 54.8569 167.666 46.2853 156.292 46.2853 156.292 46.2853 
	 156.292 46.2853 156.292 46.2853 156.292 46.2853 156.292 46.2853 "
	 style=" stroke:#000000; stroke-width:1; fill:#b9b9b9; fill-opacity:100%"	 class="TAG:front"></polygon>
	<polygon points="156.292 46.2853 167.666 40.5716 178.5 40.5716 
	 167.666 46.2853 156.292 46.2853 156.292 46.2853 156.292 46.2853 
	 156.292 46.2853 156.292 46.2853 156.292 46.2853 "
	 style=" stroke:#000000; stroke-width:1; fill:#dcdcdc; fill-opacity:100%"	 class="TAG:top"></polygon>
	<polygon points="178.5 40.5716 167.666 46.2853 167.666 54.8569 
	 178.5 49.1432 178.5 40.5716 178.5 40.5716 178.5 40.5716 
	 178.5 40.5716 178.5 40.5716 178.5 40.5716 "
	 style=" stroke:#000000; stroke-width:1; fill:#696969; fill-opacity:100%"	 class="TAG:right"></polygon>
	<polygon points="138.958 54.8569 138.958 54.8569 138.958 63.4285 
	 150.333 63.4285 150.333 54.8569 138.958 54.8569 138.958 54.8569 
	 138.958 54.8569 138.958 54.8569 138.958 54.8569 138.958 54.8569 "
	 style=" stroke:#000000; stroke-width:1; fill:#b9b9b9; fill-opacity:100%"	 class="TAG:front"></polygon>
	<polygon points="138.958 54.8569 150.333 49.1432 161.167 49.1432 
	 150.333 54.8569 138.958 54.8569 138.958 54.8569 138.958 54.8569 
	 138.958 54.8569 138.958 54.8569 138.958 54.8569 "
	 style=" stroke:#000000; stroke-width:1; fill:#dcdcdc; fill-opacity:100%"	 class="TAG:top"></polygon>
	<polygon points="161.167 49.1432 150.333 54.8569 150.333 63.4285 
	 161.167 57.7148 161.167 49.1432 161.167 49.1432 161.167 49.1432 
	 161.167 49.1432 161.167 49.1432 161.167 49.1432 "
	 style=" stroke:#000000; stroke-width:1; fill:#696969; fill-opacity:100%"	 class="TAG:right"></polygon>
	<polygon points="121.625 63.4285 121.625 63.4285 121.625 72 
	 133 72 133 63.4285 121.625 63.4285 121.625 63.4285 
	 121.625 63.4285 121.625 63.4285 121.625 63.4285 121.625 63.4285 "
	 style=" stroke:#000000; stroke-width:1; fill:#b9b9b9; fill-opacity:100%"	 class="TAG:front"></polygon>
	<polygon points="121.625 63.4285 133 57.7148 143.833 57.7148 
	 133 63.4285 121.625 63.4285 121.625 63.4285 121.625 63.4285 
	 121.625 63.4285 121.625 63.4285 121.625 63.4285 "
	 style=" stroke:#000000; stroke-width:1; fill:#dcdcdc; fill-opacity:100%"	 class="TAG:top"></polygon>
	<polygon points="143.833 57.7148 133 63.4285 133 72 
	 143.833 66.2862 143.833 57.7148 143.833 57.7148 143.833 57.7148 
	 143.833 57.7148 143.833 57.7148 143.833 57.7148 "
	 style=" stroke:#000000; stroke-width:1; fill:#696969; fill-opacity:100%"	 class="TAG:right"></polygon>
      </g>
      <polyline points="864 304 880 320"
       style=" stroke:#000000; stroke-width:1;"></polyline>
    </g>
  </symbol>
 </defs>
</svg>
