<?xml version="1.0" encoding="UTF-8" standalone="no"?>

<svg
 xmlns:dc="http://purl.org/dc/elements/1.1/"
   xmlns:cc="http://creativecommons.org/ns#"
   xmlns:rdf="http://www.w3.org/1999/02/22-rdf-syntax-ns#"
   xmlns:svg="http://www.w3.org/2000/svg"
   xmlns="http://www.w3.org/2000/svg"
   xmlns:sodipodi="http://sodipodi.sourceforge.net/DTD/sodipodi-0.dtd"
   xmlns:inkscape="http://www.inkscape.org/namespaces/inkscape"
   id="svg2"
   version="1.1"
   inkscape:version="0.47 r22583"
   width="182.96001"
   height="182.957"
   sodipodi:docname="magnifying_glass.svg">
  <metadata
     id="metadata178">
    <rdf:RDF>
      <cc:Work
         rdf:about="">
        <dc:format>image/svg+xml</dc:format>
        <dc:type
           rdf:resource="http://purl.org/dc/dcmitype/StillImage" />
      </cc:Work>
    </rdf:RDF>
  </metadata>
  <defs
     id="defs176">
    <inkscape:perspective
       sodipodi:type="inkscape:persp3d"
       inkscape:vp_x="0 : 0.5 : 1"
       inkscape:vp_y="0 : 1000 : 0"
       inkscape:vp_z="1 : 0.5 : 1"
       inkscape:persp3d-origin="0.5 : 0.33333333 : 1"
       id="perspective180" />
 </defs>
  <sodipodi:namedview
     pagecolor="#ffffff"
     bordercolor="#666666"
     borderopacity="1"
     objecttolerance="10"
     gridtolerance="10"
     guidetolerance="10"
     inkscape:pageopacity="0"
     inkscape:pageshadow="2"
     inkscape:window-width="1280"
     inkscape:window-height="975"
     id="namedview174"
     showgrid="false"
     inkscape:zoom="0.89702957"
     inkscape:cx="187.67288"
     inkscape:cy="3.3139124"
     inkscape:window-x="-4"
     inkscape:window-y="-4"
     inkscape:window-maximized="1"
     inkscape:current-layer="svg2" />
  <polygon
     points="73.148,58.2816 85.017,58.2816 85.017,46.4126 79.083,46.4126 79.083,46.4126 73.148,46.4126 "
     style="fill:#ffffff;fill-opacity:1;stroke:none"
     id="polygon4"
     transform="translate(33.443714,1.1147905)" />
  <polygon
     points="126.579,165.224 126.579,158.765 126.579,158.765 125.436,157.14 125.436,165.145 "
     style="fill:#c22020;fill-opacity:1;stroke:none"
     id="polygon6"
     transform="translate(33.443714,1.1147905)" />
  <polygon
     points="124.371,165.145 124.903,165.106 125.475,165.145 125.475,157.147 125.475,157.147 124.371,155.563 "
     style="fill:#c32424;fill-opacity:1;stroke:none"
     id="polygon8"
     transform="translate(33.443714,1.1147905)" />
  <polygon
     points="123.306,165.224 123.838,165.145 124.411,165.145 124.411,155.569 124.411,155.569 123.306,153.986 "
     style="fill:#c42828;fill-opacity:1;stroke:none"
     id="polygon10"
     transform="translate(33.443714,1.1147905)" />
  <polygon
     points="123.346,165.224 123.346,153.99 123.346,153.99 122.242,152.448 122.242,165.342 "
     style="fill:#c52c2c;fill-opacity:1;stroke:none"
     id="polygon12"
     transform="translate(33.443714,1.1147905)" />
  <polygon
     points="121.177,165.579 121.709,165.421 122.281,165.342 122.281,152.452 122.281,152.452 121.177,150.871 "
     style="fill:#c62f2f;fill-opacity:1;stroke:none"
     id="polygon14"
     transform="translate(33.443714,1.1147905)" />
  <polygon
     points="120.113,165.855 120.685,165.697 121.217,165.578 121.217,150.874 121.217,150.874 120.113,149.293 "
     style="fill:#c73333;fill-opacity:1;stroke:none"
     id="polygon16"
     transform="translate(33.443714,1.1147905)" />
  <polygon
     points="126.54,158.757 126.54,165.223 126.54,165.223 127.644,165.422 127.644,160.344 "
     style="fill:#c11c1c;fill-opacity:1;stroke:none"
     id="polygon18"
     transform="translate(33.443714,1.1147905)" />
  <polygon
     points="128.136,165.538 128.709,165.737 128.709,161.923 127.605,160.335 127.605,160.335 127.605,165.419 "
     style="fill:#c01a1a;fill-opacity:1;stroke:none"
     id="polygon20"
     transform="translate(33.443714,1.1147905)" />
  <polygon
     points="128.67,165.733 129.201,165.893 129.774,166.131 129.774,163.464 129.774,163.464 128.67,161.912 "
     style="fill:#bf1414;fill-opacity:1;stroke:none"
     id="polygon22"
     transform="translate(33.443714,1.1147905)" />
  <polygon
     points="129.734,163.45 129.734,166.125 129.734,166.125 130.838,166.644 130.838,165.047 "
     style="fill:#bd1010;fill-opacity:1;stroke:none"
     id="polygon24"
     transform="translate(33.443714,1.1147905)" />
  <polygon
     points="131.372,166.992 131.903,167.393 131.903,166.631 130.799,165.027 130.799,165.027 130.799,166.631 "
     style="fill:#bd0e0e;fill-opacity:1;stroke:none"
     id="polygon26"
     transform="translate(33.443714,1.1147905)" />
  <polygon
     points="133.051,168.586 133.501,169.112 134.032,169.759 132.928,168.182 132.928,168.182 132.928,168.465 "
     style="fill:#bb0606;fill-opacity:1;stroke:none"
     id="polygon28"
     transform="translate(33.443714,1.1147905)" />
  <polygon
     points="131.863,166.604 131.863,167.37 132.436,167.893 132.968,168.497 132.968,168.497 132.968,168.215 "
     style="fill:#bc0a0a;fill-opacity:1;stroke:none"
     id="polygon30"
     transform="translate(33.443714,1.1147905)" />
  <polygon
     points="119.048,166.21 120.152,165.854 120.152,165.854 120.152,149.297 119.048,147.716 "
     style="fill:#c93939;fill-opacity:1;stroke:none"
     id="polygon32"
     transform="translate(33.443714,1.1147905)" />
  <polygon
     points="70.9,98.7396 70.9,82.6906 70.9,82.6906 69.796,82.9676 69.796,96.6846 "
     style="fill:#f9eaea;fill-opacity:1;stroke:none"
     id="polygon34"
     transform="translate(33.443714,1.1147905)" />
  <polygon
     points="70.861,82.6916 70.861,98.7356 71.965,100.791 71.965,82.4936 71.801,82.4546 71.679,82.4936 71.679,82.4936 "
     style="fill:#f8e7e7;fill-opacity:1;stroke:none"
     id="polygon36"
     transform="translate(33.443714,1.1147905)" />
  <polygon
     points="69.836,96.6896 69.836,82.9666 69.836,82.9666 68.731,83.2436 68.731,94.6326 "
     style="fill:#faeeee;fill-opacity:1;stroke:none"
     id="polygon38"
     transform="translate(33.443714,1.1147905)" />
  <polygon
     points="68.771,83.2426 68.648,83.2826 68.117,83.5596 67.667,83.9156 67.667,92.6206 68.28,93.7286 68.771,94.6386 68.771,83.2426 "
     style="fill:#fbf1f1;fill-opacity:1;stroke:none"
     id="polygon40"
     transform="translate(33.443714,1.1147905)" />
  <polygon
     points="67.093,84.4286 66.602,85.0226 66.602,91.0436 67.093,91.5186 67.706,92.6276 67.706,83.9136 67.706,83.9136 "
     style="fill:#fcf7f7;fill-opacity:1;stroke:none"
     id="polygon42"
     transform="translate(33.443714,1.1147905)" />
  <polygon
     points="66.111,90.2566 66.274,90.4946 66.642,91.0506 66.642,85.0176 66.642,85.0176 66.478,85.2556 65.866,86.2086 65.58,87.2006 65.498,88.2326 65.702,89.2646 65.866,89.7006 66.029,90.0586 "
     style="fill:#fdf9f9;fill-opacity:1;stroke:none"
     id="polygon44"
     transform="translate(33.443714,1.1147905)" />
  <polygon
     points="74.34,83.0456 74.094,82.9276 74.094,104.968 75.198,107.021 75.198,83.4806 74.544,83.1246 74.544,83.1246 "
     style="fill:#f5dbdb;fill-opacity:1;stroke:none"
     id="polygon46"
     transform="translate(33.443714,1.1147905)" />
  <polygon
     points="71.926,82.4936 71.926,100.787 73.03,102.842 73.03,82.6126 73.03,82.6126 72.457,82.4936 "
     style="fill:#f7e2e2;fill-opacity:1;stroke:none"
     id="polygon48"
     transform="translate(33.443714,1.1147905)" />
  <polygon
     points="75.159,107.018 76.263,109.072 76.263,84.7826 75.609,83.7956 75.609,83.7956 75.159,83.4796 "
     style="fill:#f4d8d8;fill-opacity:1;stroke:none"
     id="polygon50"
     transform="translate(33.443714,1.1147905)" />
  <polygon
     points="72.99,82.6116 72.99,102.838 74.134,104.971 74.134,82.9286 74.134,82.9286 73.562,82.7306 "
     style="fill:#f6dfdf;fill-opacity:1;stroke:none"
     id="polygon52"
     transform="translate(33.443714,1.1147905)" />
  <polygon
     points="78.353,88.0146 78.353,113.17 79.457,115.223 79.457,89.5936 79.457,89.5936 78.803,88.6066 "
     style="fill:#f0cbcb;fill-opacity:1;stroke:none"
     id="polygon54"
     transform="translate(33.443714,1.1147905)" />
  <polygon
     points="77.493,86.7136 77.411,86.5556 77.288,86.5556 77.288,111.119 78.393,113.173 78.393,88.0166 78.393,88.0166 "
     style="fill:#f1cfcf;fill-opacity:1;stroke:none"
     id="polygon56"
     transform="translate(33.443714,1.1147905)" />
  <polygon
     points="77.246,86.3606 77.164,86.1626 76.224,84.7806 76.224,109.069 77.328,111.122 77.328,86.5586 77.328,86.5586 "
     style="fill:#f2d2d2;fill-opacity:1;stroke:none"
     id="polygon58"
     transform="translate(33.443714,1.1147905)" />
  <polygon
     points="89.118,133.836 89.118,103.711 89.118,103.711 87.975,102.092 87.975,131.704 "
     style="fill:#e7a9a9;fill-opacity:1;stroke:none"
     id="polygon60"
     transform="translate(33.443714,1.1147905)" />
  <polygon
     points="90.183,135.926 90.183,105.288 90.183,105.288 89.079,103.709 89.079,133.833 "
     style="fill:#e6a4a4;fill-opacity:1;stroke:none"
     id="polygon62"
     transform="translate(33.443714,1.1147905)" />
  <polygon
     points="91.248,137.976 91.248,106.826 91.248,106.826 90.144,105.286 90.144,135.923 "
     style="fill:#e5a0a0;fill-opacity:1;stroke:none"
     id="polygon64"
     transform="translate(33.443714,1.1147905)" />
  <polygon
     points="92.312,140.027 92.312,108.403 92.312,108.403 91.208,106.824 91.208,137.974 "
     style="fill:#e49c9c;fill-opacity:1;stroke:none"
     id="polygon66"
     transform="translate(33.443714,1.1147905)" />
  <polygon
     points="93.377,142.077 93.377,109.941 93.377,109.941 92.273,108.401 92.273,140.024 "
     style="fill:#e39898;fill-opacity:1;stroke:none"
     id="polygon68"
     transform="translate(33.443714,1.1147905)" />
  <polygon
     points="102.999,160.69 102.999,124.058 102.999,124.058 101.894,122.518 101.894,158.637 "
     style="fill:#d97676;fill-opacity:1;stroke:none"
     id="polygon70"
     transform="translate(33.443714,1.1147905)" />
  <polygon
     points="101.934,158.639 101.934,122.52 101.934,122.52 100.83,120.941 100.83,156.587 "
     style="fill:#da7a7a;fill-opacity:1;stroke:none"
     id="polygon72"
     transform="translate(33.443714,1.1147905)" />
  <polygon
     points="100.869,156.588 100.869,120.943 100.869,120.943 99.765,119.364 99.765,154.536 "
     style="fill:#db7e7e;fill-opacity:1;stroke:none"
     id="polygon74"
     transform="translate(33.443714,1.1147905)" />
  <polygon
     points="99.805,154.538 99.805,119.365 99.805,119.365 98.701,117.786 98.701,152.445 "
     style="fill:#dc8282;fill-opacity:1;stroke:none"
     id="polygon76"
     transform="translate(33.443714,1.1147905)" />
  <polygon
     points="98.74,152.448 98.74,117.788 98.74,117.788 97.636,116.249 97.636,150.395 "
     style="fill:#dd8484;fill-opacity:1;stroke:none"
     id="polygon78"
     transform="translate(33.443714,1.1147905)" />
  <polygon
     points="95.506,146.218 95.506,113.056 95.506,113.056 94.402,111.517 94.402,144.125 "
     style="fill:#e09090;fill-opacity:1;stroke:none"
     id="polygon80"
     transform="translate(33.443714,1.1147905)" />
  <polygon
     points="96.611,148.347 96.611,114.673 96.611,114.673 95.467,113.054 95.467,146.215 "
     style="fill:#e08d8d;fill-opacity:1;stroke:none"
     id="polygon82"
     transform="translate(33.443714,1.1147905)" />
  <polygon
     points="97.675,150.398 97.675,116.25 97.675,116.25 96.571,114.671 96.571,148.345 "
     style="fill:#de8888;fill-opacity:1;stroke:none"
     id="polygon84"
     transform="translate(33.443714,1.1147905)" />
  <polygon
     points="106.232,166.959 106.232,128.829 106.232,128.829 105.128,127.25 105.128,164.907 "
     style="fill:#d66a6a;fill-opacity:1;stroke:none"
     id="polygon86"
     transform="translate(33.443714,1.1147905)" />
  <polygon
     points="105.167,164.909 105.167,127.252 105.167,127.252 104.063,125.673 104.063,162.817 "
     style="fill:#d76e6e;fill-opacity:1;stroke:none"
     id="polygon88"
     transform="translate(33.443714,1.1147905)" />
  <polygon
     points="104.103,162.819 104.103,125.675 104.103,125.675 102.959,124.056 102.959,160.687 "
     style="fill:#d87272;fill-opacity:1;stroke:none"
     id="polygon90"
     transform="translate(33.443714,1.1147905)" />
  <polygon
     points="94.442,144.128 94.442,111.518 94.442,111.518 93.338,109.939 93.338,142.075 "
     style="fill:#e19494;fill-opacity:1;stroke:none"
     id="polygon92"
     transform="translate(33.443714,1.1147905)" />
  <polygon
     points="81.626,119.403 81.626,92.7486 81.626,92.7486 80.482,91.1296 80.482,117.271 "
     style="fill:#efc4c4;fill-opacity:1;stroke:none"
     id="polygon94"
     transform="translate(33.443714,1.1147905)" />
  <polygon
     points="82.691,121.454 82.691,94.3256 82.691,94.3256 81.586,92.7466 81.586,119.4 "
     style="fill:#edbfbf;fill-opacity:1;stroke:none"
     id="polygon96"
     transform="translate(33.443714,1.1147905)" />
  <polygon
     points="83.755,123.504 83.755,95.8636 83.755,95.8636 82.651,94.3236 82.651,121.451 "
     style="fill:#ecbbbb;fill-opacity:1;stroke:none"
     id="polygon98"
     transform="translate(33.443714,1.1147905)" />
  <polygon
     points="84.82,125.555 84.82,97.4406 84.82,97.4406 83.716,95.8616 83.716,123.502 "
     style="fill:#ebb7b7;fill-opacity:1;stroke:none"
     id="polygon100"
     transform="translate(33.443714,1.1147905)" />
  <polygon
     points="85.885,127.605 85.885,98.9786 85.885,98.9786 84.781,97.4386 84.781,125.552 "
     style="fill:#eab3b3;fill-opacity:1;stroke:none"
     id="polygon102"
     transform="translate(33.443714,1.1147905)" />
  <polygon
     points="86.949,129.656 86.949,100.556 86.949,100.556 85.845,98.9766 85.845,127.603 "
     style="fill:#e9afaf;fill-opacity:1;stroke:none"
     id="polygon104"
     transform="translate(33.443714,1.1147905)" />
  <polygon
     points="79.418,89.5916 79.418,115.22 79.418,115.22 80.522,117.274 80.522,91.1316 "
     style="fill:#efc7c7;fill-opacity:1;stroke:none"
     id="polygon106"
     transform="translate(33.443714,1.1147905)" />
  <polygon
     points="108.362,171.1 108.362,131.945 108.362,131.945 107.258,130.366 107.258,169.008 "
     style="fill:#d46262;fill-opacity:1;stroke:none"
     id="polygon108"
     transform="translate(33.443714,1.1147905)" />
  <polygon
     points="109.426,173.15 109.426,133.522 109.426,133.522 108.322,131.943 108.322,171.098 "
     style="fill:#d35e5e;fill-opacity:1;stroke:none"
     id="polygon110"
     transform="translate(33.443714,1.1147905)" />
  <polygon
     points="110.491,175.201 110.491,135.099 110.491,135.099 109.387,133.52 109.387,173.148 "
     style="fill:#d25a5a;fill-opacity:1;stroke:none"
     id="polygon112"
     transform="translate(33.443714,1.1147905)" />
  <polygon
     points="111.309,175.515 111.309,175.436 111.309,174.567 111.513,173.739 111.595,173.423 111.595,136.716 111.595,136.716 110.451,135.098 110.451,175.199 111.595,177.33 111.595,177.251 111.595,177.212 111.513,177.014 111.35,176.225 "
     style="fill:#d15757;fill-opacity:1;stroke:none"
     id="polygon114"
     transform="translate(33.443714,1.1147905)" />
  <polygon
     points="119.087,166.209 119.087,147.719 119.087,147.719 117.944,146.099 117.944,166.683 "
     style="fill:#c93b3b;fill-opacity:1;stroke:none"
     id="polygon116"
     transform="translate(33.443714,1.1147905)" />
  <polygon
     points="117.983,166.683 117.983,146.102 117.983,146.102 116.879,144.522 116.879,167.196 "
     style="fill:#ca3f3f;fill-opacity:1;stroke:none"
     id="polygon118"
     transform="translate(33.443714,1.1147905)" />
  <polygon
     points="114.789,168.693 114.789,141.409 114.789,141.409 113.685,139.83 113.685,169.72 "
     style="fill:#cd4b4b;fill-opacity:1;stroke:none"
     id="polygon120"
     transform="translate(33.443714,1.1147905)" />
  <polygon
     points="115.854,167.865 115.854,142.986 115.854,142.986 114.75,141.407 114.75,168.694 "
     style="fill:#cc4747;fill-opacity:1;stroke:none"
     id="polygon122"
     transform="translate(33.443714,1.1147905)" />
  <polygon
     points="116.918,167.195 116.918,144.525 116.918,144.525 115.814,142.984 115.814,167.866 "
     style="fill:#cb4343;fill-opacity:1;stroke:none"
     id="polygon124"
     transform="translate(33.443714,1.1147905)" />
  <polygon
     points="111.556,173.426 111.965,172.242 112.66,171.097 112.66,138.254 112.66,138.254 111.556,136.714 "
     style="fill:#d05353;fill-opacity:1;stroke:none"
     id="polygon126"
     transform="translate(33.443714,1.1147905)" />
  <polygon
     points="112.62,171.1 113.356,170.152 113.724,169.718 113.724,139.831 113.724,139.831 112.62,138.252 "
     style="fill:#cf4f4f;fill-opacity:1;stroke:none"
     id="polygon128"
     transform="translate(33.443714,1.1147905)" />
  <polygon
     points="107.297,169.01 107.297,130.367 107.297,130.367 106.193,128.828 106.193,166.957 "
     style="fill:#d56666;fill-opacity:1;stroke:none"
     id="polygon130"
     transform="translate(33.443714,1.1147905)" />
  <polygon
     points="86.91,129.653 88.014,131.706 88.014,131.706 88.014,102.094 86.91,100.554 "
     style="fill:#e9aeae;fill-opacity:1;stroke:none"
     id="polygon132"
     transform="translate(33.443714,1.1147905)" />
  <polygon
     points="111.674,177.488 111.556,177.212 111.556,177.212 111.556,177.304 111.674,177.442 "
     style="fill:#d05555;fill-opacity:1;stroke:none"
     id="polygon134"
     transform="translate(33.443714,1.1147905)" />
  <polygon
     points="128.186,165.501 127.672,165.343 127.198,165.264 126.645,165.146 126.131,165.106 125.105,165.067 123.999,165.067 122.932,165.185 121.786,165.383 120.681,165.659 119.496,165.936 118.429,166.371 117.363,166.805 116.454,167.359 115.546,167.912 114.756,168.584 114.005,169.296 113.333,170.126 112.623,170.995 112.109,171.904 111.714,172.774 111.477,173.722 111.28,174.552 111.28,175.422 111.28,175.501 111.319,176.212 111.477,177.003 111.556,177.2 111.556,177.24 111.635,177.477 111.754,177.833 111.951,178.228 112.228,178.663 112.623,179.137 113.057,179.572 113.61,180.007 114.163,180.362 114.835,180.758 115.546,181.074 116.375,181.429 117.323,181.706 118.35,181.983 119.377,182.101 120.444,182.22 121.51,182.18 122.616,182.101 123.762,181.904 124.947,181.706 126.053,181.351 127.119,180.955 128.107,180.481 129.094,180.007 129.963,179.414 130.793,178.781 131.583,178.109 132.333,177.398 132.926,176.607 133.439,175.857 133.834,175.145 134.19,174.513 134.387,173.841 134.506,173.248 134.506,172.655 134.466,172.141 134.15,171.153 133.913,170.402 133.676,169.809 133.557,169.454 133.479,169.296 133.084,168.584 133.084,168.584 132.689,168.11 132.294,167.715 131.859,167.32 131.424,167.003 130.911,166.648 130.398,166.371 129.213,165.857 "
     style="fill:#ff0000;fill-opacity:1;stroke:none"
     id="polygon136"
     transform="translate(33.443714,1.1147905)" />
  <polygon
     points="133.779,169.544 133.441,169.286 133.525,169.458 133.779,169.63 133.779,169.63 134.032,169.759 "
     style="fill:#bb0606;fill-opacity:1;stroke:none"
     id="polygon138"
     transform="translate(33.443714,1.1147905)" />
  <polygon
     points="12.4236,78.1656 13.0949,79.1926 13.9238,80.2596 14.7526,81.2476 15.7396,82.2746 16.687,83.1836 17.7529,84.0916 18.8582,84.9616 20.082,85.8306 21.3057,86.6206 22.6478,87.4106 24.0297,88.1616 25.5296,88.9126 27.9377,89.9396 30.464,90.8486 33.0299,91.5996 35.7143,92.2316 38.3592,92.6666 41.1224,92.9826 43.9252,93.1406 46.8069,93.1796 45.228,83.1046 41.833,83.1836 38.5566,83.1046 35.2799,82.8676 32.1615,82.4716 29.0429,81.8396 26.0033,81.1286 23.0425,80.1806 20.161,79.1536 18.8187,78.5606 17.5554,78.0076 16.2925,77.4146 15.1476,76.8216 15.1476,76.8216 13.7659,76.0316 12.5422,75.2416 11.3184,74.4116 10.2131,73.5816 10.6473,74.7276 11.1606,75.9126 11.7526,77.0196 "
     style="fill:#ff0000;fill-opacity:1;stroke:none"
     id="polygon140"
     transform="translate(33.443714,1.1147905)" />
  <polygon
     points="66.48,85.2606 66.915,84.6286 67.428,84.1136 67.981,83.6396 68.653,83.2826 67.231,83.6786 66.52,83.8366 66.164,83.9156 65.848,84.0346 64.426,84.3506 63.004,84.6286 62.254,84.7076 61.543,84.8256 60.121,84.9446 58.659,85.0236 57.237,85.0636 55.7364,84.9846 54.9859,84.9046 54.2748,84.8656 52.7738,84.7076 51.2729,84.5096 50.4831,84.3506 50.088,84.2716 49.8904,84.2326 49.7323,84.2326 48.2315,83.9156 46.6909,83.5206 45.1901,83.0846 46.7702,93.1736 47.5995,93.4506 49.1794,93.8466 50.7595,94.2026 52.3394,94.5186 53.9195,94.7956 55.7364,94.9536 56.1708,94.9536 56.645,94.9936 57.593,95.0726 59.41,95.0726 61.227,95.0326 62.965,94.8356 64.782,94.5586 66.52,94.1626 67.389,93.9256 67.586,93.8466 67.823,93.8066 68.297,93.7276 67.112,91.5126 66.836,91.2356 66.638,90.9976 66.283,90.4836 66.283,90.4836 66.125,90.2456 66.046,90.0486 65.888,89.6926 65.73,89.2566 65.532,88.2286 65.611,87.1996 65.888,86.2106 "
     style="fill:#999999;fill-opacity:1;stroke:none"
     id="polygon142"
     transform="translate(33.443714,1.1147905)" />
  <polygon
     points="76.567,80.6306 77.317,80.2356 77.475,80.1176 77.673,80.0386 78.067,79.8796 78.383,79.6426 78.541,79.5246 78.738,79.4456 79.449,79.0506 80.751,78.1806 81.343,77.7066 81.974,77.2726 83.159,76.3236 83.672,75.7706 83.908,75.4936 84.185,75.2566 85.171,74.1506 85.369,73.8346 85.606,73.5576 86.04,73.0046 86.434,72.3716 86.632,72.0556 86.869,71.7796 87.184,71.1076 87.539,70.4756 88.211,69.1316 88.487,68.4206 88.526,68.2226 88.605,68.0646 88.763,67.7486 89.276,66.3266 88.447,66.9586 87.658,67.6306 86.04,68.8946 85.171,69.4876 84.343,70.1196 82.645,71.3056 80.83,72.4116 79.014,73.4786 77.159,74.5056 75.265,75.4936 73.252,76.3636 71.239,77.2326 69.187,78.0226 67.095,78.8136 65.99,79.1296 65.437,79.2876 65.161,79.3666 64.924,79.4846 62.714,80.1566 62.398,80.1966 62.122,80.2756 61.569,80.4336 60.464,80.7496 58.175,81.3426 54.8202,81.9746 51.5444,82.4886 48.308,82.8836 45.1901,83.1206 46.6898,83.5556 48.2292,83.9506 49.7289,84.2666 49.8867,84.2666 50.084,84.3056 50.479,84.3846 51.2683,84.5436 52.7678,84.7406 54.2677,84.8986 54.9782,84.9376 55.7281,85.0176 57.228,85.0966 58.649,85.0566 60.109,84.9776 61.53,84.8596 62.24,84.7406 62.99,84.6616 64.411,84.3846 65.832,84.0686 66.148,83.9506 66.503,83.8716 67.214,83.7126 68.634,83.3186 68.634,83.3186 71.673,82.5276 72.502,82.2116 73.37,81.9346 75.028,81.3026 75.186,81.1846 75.383,81.1056 75.778,80.9476 "
     style="fill:#000000;fill-opacity:1;stroke:none"
     id="polygon144"
     transform="translate(33.443714,1.1147905)" />
  <polygon
     points="77.182,86.3936 77.261,86.5126 77.34,86.5516 77.419,86.5916 77.498,86.5126 77.577,86.2356 77.617,85.9986 77.696,85.7616 77.577,86.2356 77.498,86.7496 78.802,88.6456 80.383,87.8556 81.845,87.1046 83.189,86.3546 84.414,85.6426 85.481,84.9316 86.469,84.2606 87.338,83.5886 88.089,82.9566 88.643,82.2856 89.117,81.7326 89.433,81.1796 89.67,80.7446 89.749,80.2706 89.71,79.9156 89.552,79.5996 89.275,79.3626 89.275,66.3266 88.761,67.7486 88.603,68.0646 88.524,68.2226 88.485,68.4196 88.208,69.1306 87.536,70.4736 87.18,71.1056 86.865,71.7776 86.627,72.0546 86.429,72.3696 86.034,73.0016 85.6,73.5556 85.363,73.8316 85.165,74.1476 84.177,75.2536 83.901,75.4906 83.663,75.7676 83.15,76.3206 81.964,77.2686 81.332,77.7026 80.739,78.1766 79.435,79.0466 78.723,79.4416 78.526,79.5196 78.368,79.6386 78.051,79.8756 77.657,80.0336 77.459,80.1126 77.301,80.2316 76.55,80.6266 75.759,80.9426 75.364,81.0996 75.167,81.1796 75.009,81.2976 73.349,81.9296 72.48,82.2066 71.65,82.5226 72.282,82.4826 72.993,82.6016 73.625,82.7986 74.337,83.0756 74.534,83.1546 74.534,83.1546 75.088,83.4306 75.601,83.8256 76.194,84.4186 76.431,84.7346 76.708,85.1296 76.945,85.6036 77.143,86.1956 "
     style="fill:#666666;fill-opacity:1;stroke:none"
     id="polygon146"
     transform="translate(33.443714,1.1147905)" />
  <polygon
     points="77.497,86.7526 77.587,86.2196 77.722,85.7276 77.632,85.9736 77.587,86.2196 77.497,86.5066 77.407,86.5886 77.497,86.7526 "
     style="fill:#000000;fill-opacity:1;stroke:none"
     id="polygon148"
     transform="translate(33.443714,1.1147905)" />
  <polygon
     points="76.968,85.5986 76.725,85.1176 76.442,84.7166 76.2,84.3966 75.593,83.7946 77.17,86.2006 77.17,86.2006 "
     style="fill:#000000;fill-opacity:1;stroke:none"
     id="polygon150"
     transform="translate(33.443714,1.1147905)" />
  <polygon
     points="92.523,63.2636 90.702,65.0016 90.226,65.3966 89.989,65.5936 89.791,65.8306 89.237,66.3446 89.237,79.3786 90.187,78.4706 91.137,77.6016 91.572,77.1276 92.048,76.6926 92.483,76.2186 92.958,75.7846 93.354,75.2706 93.79,74.7966 94.186,74.2836 94.621,73.8096 95.413,72.7826 96.205,71.7946 96.363,71.4396 96.561,71.1236 96.957,70.4516 97.274,69.7016 97.432,69.3066 97.512,69.1086 97.63,68.9516 97.868,68.0826 98.145,67.2126 98.343,66.2656 98.58,65.2776 98.62,64.7246 98.699,64.2116 98.818,63.1056 98.897,61.9206 98.976,60.7356 98.976,59.4316 98.976,58.1286 98.937,57.4176 98.937,56.7466 98.897,56.0356 98.897,55.3636 98.897,55.3636 98.304,56.1936 97.67,57.1016 96.957,58.0496 96.205,59.0376 95.373,60.0246 94.463,61.0516 93.513,62.1176 "
     style="fill:#ff0000;fill-opacity:1;stroke:none"
     id="polygon152"
     transform="translate(33.443714,1.1147905)" />
  <polygon
     points="111.989,178.237 111.767,177.823 111.635,177.45 111.635,177.409 111.635,177.409 111.635,177.492 "
     style="fill:#ff0000;fill-opacity:1;stroke:none"
     id="polygon154"
     transform="translate(33.443714,1.1147905)" />
  <polygon
     points="4.1421,63.0536 3.6291,61.8306 3.1951,60.6066 2.7614,59.3446 2.4457,58.1216 2.1303,56.8186 1.8935,55.5566 1.6568,54.2146 1.5385,52.9126 1.3412,50.7826 1.3017,48.7306 1.3412,46.6786 1.5385,44.7056 1.8147,42.6936 2.2486,40.7596 2.8009,38.8266 3.4715,36.9716 4.2209,35.0776 5.1283,33.2236 6.1143,31.4086 7.2584,29.6326 8.4812,27.8576 9.8621,26.1206 11.3609,24.4246 13.018,22.7666 14.6748,21.1096 16.4104,19.5706 18.1858,18.1116 20.0792,16.7296 21.9726,15.4276 23.9449,14.2446 25.9569,13.1395 28.0869,12.153 30.1779,11.2058 32.3868,10.3774 34.6354,9.6276 37.0023,8.9568 39.3297,8.3652 41.7754,7.8917 44.2607,7.4968 46.8645,7.2209 49.3892,6.9446 51.9137,6.8262 54.3594,6.787 56.805,6.8658 59.172,7.0236 61.539,7.2997 63.867,7.6549 65.01,7.852 66.194,8.1284 68.403,8.6414 70.651,9.3119 72.821,10.0618 73.886,10.4562 74.991,10.9299 77.082,11.8374 79.172,12.9026 81.184,14.0466 83.236,15.3096 85.129,16.5726 86.944,17.9536 88.601,19.3346 90.218,20.8336 91.678,22.2936 93.058,23.8716 94.32,25.4896 95.504,27.1866 96.53,28.8826 97.476,30.6586 98.265,32.4736 99.015,34.3676 99.607,36.2616 100.12,38.2346 100.514,40.2466 100.829,42.3386 100.948,43.8376 100.987,45.4156 100.987,46.9146 100.948,47.0736 100.948,47.2706 100.948,47.6646 100.948,48.4536 101.145,46.8756 101.303,45.2976 101.421,43.7196 101.461,42.1406 101.421,41.9046 101.421,41.7066 101.421,41.3126 101.421,40.5226 101.342,38.9446 101.185,37.2876 100.987,35.7096 100.554,33.4606 100.041,31.3296 99.409,29.2386 98.699,27.2656 97.831,25.2926 96.884,23.3986 95.82,21.5436 94.676,19.8076 93.374,18.0326 91.993,16.3746 90.494,14.7576 88.916,13.2578 87.18,11.7584 85.366,10.3774 83.433,8.9963 81.461,7.7337 79.33,6.4713 77.2,5.3663 74.991,4.3403 72.821,3.4329 70.573,2.6042 68.324,1.9334 65.997,1.3416 63.709,0.8679 62.486,0.6315 61.302,0.4735 58.936,0.1974 56.49,0.0395 54.044,0 51.5193,0.0395 50.2569,0.0788 49.034,0.1974 47.7321,0.2764 46.47,0.434 43.9453,0.8287 41.3415,1.2628 38.8563,1.8151 36.3713,2.4464 34.0043,3.1963 31.6767,3.9854 29.4281,4.8928 27.2192,5.8793 25.1285,7.0236 23.0377,8.1677 21.0652,9.4305 19.093,10.8114 17.2388,12.2713 15.3849,13.8106 13.6885,15.4276 11.9922,17.1646 10.4144,19.0186 8.8364,20.8736 7.4557,22.7666 6.1538,24.6606 5.0098,26.6336 3.945,28.5676 3.0375,30.5796 2.2091,32.5916 1.578,34.6436 0.9863,36.6566 0.5523,38.7476 0.2366,40.8386 0.0788,42.9696 0,45.0996 0.0788,47.2706 0.2366,49.4406 0.5523,51.6896 0.5523,51.6896 0.7889,53.1496 1.1046,54.6486 1.4597,56.1086 1.8935,57.5686 2.3274,58.9496 2.8797,60.3306 3.4715,61.6726 "
     style="fill:#ff0000;fill-opacity:1;stroke:none"
     id="polygon156"
     transform="translate(33.443714,1.1147905)" />
  <polyline
     points="71.65 82.4946 72.285 82.4546 72.999 82.5736         73.634 82.7726 74.349 83.0516 74.548 83.1306 75.104 83.4096         75.62 83.8076 77.168 86.1966 77.208 86.3956 77.287 86.5146         77.367 86.5546 77.446 86.5946"
     style="stroke:#000000;stroke-width:1"
     id="polyline158"
     transform="translate(33.443714,1.1147905)" />
  <polyline
     points="77.486 86.7126 78.788 88.6066 134.032 169.759"
     style="stroke:#000000;stroke-width:1"
     id="polyline160"
     transform="translate(33.443714,1.1147905)" />
  <polyline
     points="71.65 82.5336 72.48 82.2166 73.349 81.9396         75.009 81.3076 75.167 81.1886 75.365 81.1096 75.76 80.9516         76.55 80.6356 77.301 80.2406 77.459 80.1216 77.657 80.0426         78.052 79.8846 78.368 79.6476 78.526 79.5286 78.724 79.4496         79.435 79.0546 80.739 78.1846 81.332 77.7106 81.965 77.2756         83.15 76.3266 83.664 75.7736 83.901 75.4966 84.178 75.2596         85.166 74.1526 85.363 73.8366 85.601 73.5596 86.035 73.0066         86.43 72.3746 86.628 72.0576 86.865 71.7806 87.182 71.1086         87.537 70.4766 88.209 69.1326 88.486 68.4216 88.525 68.2236         88.604 68.0656 88.762 67.7496 89.276 66.3266 89.276 79.3706"
     style="stroke:#000000;stroke-width:1"
     id="polyline162"
     transform="translate(33.443714,1.1147905)" />
  <polyline
     points="78.787 88.6456 80.37 87.8536 81.834 87.1006         83.18 86.3486 84.406 85.6356 85.475 84.9226 86.464 84.2496         87.335 83.5766 88.087 82.9426 88.641 82.2696 89.116 81.7156         89.432 81.1606 89.67 80.7256 89.749 80.2496 89.71 79.8936         89.551 79.5766 89.274 79.3386"
     style="stroke:#000000;stroke-width:1"
     id="polyline164"
     transform="translate(33.443714,1.1147905)" />
  <polyline
     points="68.653 83.2866 67.231 83.6886 66.52 83.8496         66.164 83.9296 65.848 84.0506 64.426 84.3726 63.004 84.6536         62.254 84.7346 61.543 84.8546 60.121 84.9756 58.659 85.0556         57.237 85.0956 55.7364 85.0156 54.9859 84.9356 54.2748 84.8946         52.7738 84.7346 51.2729 84.5336 50.4831 84.3726 50.088 84.2916         49.8904 84.2516 49.7323 84.2516 48.2315 83.9296 46.6909 83.5276         45.1901 83.0846"
     style="stroke:#000000;stroke-width:1"
     id="polyline166"
     transform="translate(33.443714,1.1147905)" />
  <polyline
     points="68.298 93.7046 67.824 93.7846 67.587 93.8246         67.389 93.9056 66.52 94.1466 64.782 94.5496 62.965 94.8316         61.226 95.0326 59.409 95.0726 57.592 95.0726 56.644 94.9926         56.1697 94.9516 55.735 94.9516 53.9178 94.7906 52.3375 94.5096         50.7574 94.1876 49.1771 93.8246 47.597 93.4226 46.7674 93.1406"
     style="stroke:#000000;stroke-width:1"
     id="polyline168"
     transform="translate(33.443714,1.1147905)" />
  <polyline
     points="45.1901 83.0846 46.8069 93.1796"
     style="stroke:#000000;stroke-width:1"
     id="polyline170"
     transform="translate(33.443714,1.1147905)" />
  <polyline
     points="71.653 82.4936 68.615 83.2826 67.944 83.6376         67.392 84.1106 66.879 84.6236 66.445 85.2546 65.853 86.2016         65.577 87.1876 65.498 88.2136 65.695 89.2396 65.853 89.6736         66.011 90.0286 66.09 90.2256 66.248 90.4626 66.603 90.9756         66.8 91.2116 67.076 91.4876 68.26 93.6966 111.661 177.447         111.661 177.486 111.779 177.841 111.976 178.236 112.252 178.748         112.686 179.301 113.121 179.774 113.673 180.247 114.225 180.642         114.896 181.037 115.567 181.391 116.395 181.746 117.263 182.023         118.171 182.22 119.118 182.338 120.104 182.457 121.051 182.457         122.037 182.417 123.063 182.299 124.128 182.141 125.115 181.904         125.667 181.707 126.259 181.549 126.772 181.312 127.324 181.115         128.35 180.642 128.824 180.366 129.337 180.129 130.244 179.498         130.639 179.143 131.073 178.827 131.862 178.117 132.217 177.723         132.611 177.367 133.085 176.736 133.519 176.105 133.874 175.474         134.19 174.843 134.387 174.212 134.545 173.581 134.624 172.95         134.663 172.318 134.584 171.569 134.466 170.859 134.269 170.306         134.032 169.754"
     style="stroke:#000000;stroke-width:1"
     id="polyline172"
     transform="translate(33.443714,1.1147905)" />
</svg>
