<?xml version="1.0"?>
<?metis version="3.0"?>
<!DOCTYPE svg  PUBLIC "-//W3C//DTD SVG August 1999//EN"
 "http://www.w3.org/Graphics/SVG/svg-19990812.dtd">

<svg width="200" height="200">
 <title>Symbol library: GEM_MALE.svg</title>
 <defs>
  <symbol id="oid0" xml:space="preserve" class="METIS_SYMBOL">
   <title>Male</title>
    <rect x="4" y="4" width="121" height="96"
     style=" stroke:#9b9b9b; stroke-width:1; fill:#9b9b9b; fill-opacity:100%" class="TAG:shadow"></rect>
    <rect x="0" y="0" width="123" height="98"
     style=" stroke:#000000; stroke-width:1; fill:#ffffff; fill-opacity:100%" class="TAG:border"></rect>
    <rect x="4" y="4" width="115" height="90"
     style="stroke:none; fill:#96a5ff; fill-opacity:100%" class="TAG:canvas"></rect>
    <g>
      <desc>METIS_TEXT_GROUP</desc>
      <text  x="5" y="67.8"
       style=" stroke:#000000; stroke-width:1; font-family:sans-serif; font-size:16; text-align:center" class="TAG:text"
>text</text>
      <rect x="5" y="52" width="113" height="41"
       style=" stroke:#000000; stroke-width:1; fill:#ffffff; fill-opacity:0%"></rect>
    </g>
    <g>
      <ellipse  cx="63" cy="10.2496" rx="4.46668" ry="4.24964"
       style=" stroke:#4b4bff; stroke-width:1; fill:#ffffff; fill-opacity:100%" class="TAG:Male"></ellipse>
      <polygon points="72 17.2901 72 30.3561 68.9333 31.8783 
       68.9333 19.0661 67.3333 19.0661 67.3333 48.75 63.8667 48.75 
       63.8667 32.2589 62.1333 32.2589 62.1333 48.75 58.6667 48.75 
       58.6667 19.0661 57.0667 19.0661 57.0667 31.7515 54 30.1024 
       54 17.4169 55.7333 15.7678 70.4 15.7678 72 17.2901 "
       style=" stroke:#4b4bff; stroke-width:1; fill:#ffffff; fill-opacity:100%" class="TAG:Male"></polygon>
    </g>
  </symbol>
 </defs>
</svg>
