<?xml version="1.0"?>
<?metis version="3.4.7"?>
<?metisxml version="1.1"?>
<!DOCTYPE svg  PUBLIC "-//W3C//DTD SVG August 1999//EN"
 "http://www.w3.org/Graphics/SVG/svg-19990812.dtd">

<svg width="200" height="200">
 <title>Symbol library: manpower.svg</title>
 <defs>
  <symbol id="oid1" xml:space="preserve" class="METIS_SYMBOL">
   <title>Manpower</title>
    <polygon points="0 0 0 304 16 320 
     880 320 880 16 864 0 0 0 
     0 0 0 0 0 0 0 0 
     0 0 0 0 0 0 0 0 
     0 0 0 0 "
     style=" stroke:#000000; stroke-width:1; fill:#9b9b9b; fill-opacity:100%"     class="TAG:shadow"></polygon>
    <rect x="0" y="0" width="240" height="304"
     style=" stroke:#000000; stroke-width:1; fill:#ffffff; fill-opacity:100%"     class="TAG:PictureBackground"></rect>
    <rect x="240" y="0" width="624" height="304"
     style=" stroke:#000000; stroke-width:1; fill:#96a5ff; fill-opacity:100%"     class="TAG:canvas"></rect>
    <rect x="245.357" y="25.7143" width="569.522" height="231.429"
     style="stroke:none; fill:#878787; fill-opacity:0%"     class="TAG:grid"></rect>
    <g>
      <desc>METIS_TEXT_GROUP</desc>
      <text  x="256" y="15"
       style=" stroke:#000000; stroke-width:1; font-family:sans-serif; font-size:16;"
       class="TAG:text">text</text>
      <rect x="256" y="0" width="608" height="304"
       style=" stroke:#000000; stroke-width:1; fill:#ffffff; fill-opacity:0%"></rect>
    </g>
    <polyline points="864 304 880 320"
     style=" stroke:#000000; stroke-width:1;"></polyline>
    <g>
      <g>
	<ellipse  cx="197.575" cy="172.371" rx="6.56427" ry="8.88209"
	 style=" stroke:#000000; stroke-width:1; fill:#a85400; fill-opacity:100%"	 class="TAG:skin3"></ellipse>
	<ellipse  cx="117.61" cy="172.371" rx="6.56427" ry="8.88209"
	 style=" stroke:#000000; stroke-width:1; fill:#a85400; fill-opacity:100%"	 class="TAG:skin3"></ellipse>
	<ellipse  cx="157.592" cy="64.799" rx="9.54805" ry="19.738"
	 style=" stroke:#464646; stroke-width:1; fill:#a85400; fill-opacity:100%"	 class="TAG:skin3"></ellipse>
	<polygon points="156.398 88.4851 157.592 86.5108 158.786 88.4851 
	 158.786 90.4585 157.592 92.4323 156.398 92.4323 154.011 110.197 
	 157.592 127.961 161.173 110.197 158.786 92.4323 157.592 92.4323 
	 156.398 90.4585 156.398 88.4851 156.398 88.4851 156.398 88.4851 
	 156.398 88.4851 156.398 88.4851 156.398 88.4851 156.398 88.4851 
	 156.398 88.4851 156.398 88.4851 156.398 88.4851 156.398 88.4851 "
	 style=" stroke:#000000; stroke-width:1; fill:#a50000; fill-opacity:100%"></polygon>
	<polygon points="138.496 92.4323 151.624 88.4851 157.592 122.039 
	 163.56 88.4851 176.688 92.4323 186.236 139.802 195.783 163.491 
	 191.011 179.279 176.688 147.698 171.914 124.014 171.914 187.175 
	 148.045 187.175 167.141 187.175 167.141 258.233 157.592 258.233 
	 157.592 187.175 157.592 258.233 148.045 258.233 148.045 187.175 
	 143.27 187.175 143.27 124.014 138.496 147.698 124.174 179.279 
	 119.4 163.491 128.948 139.802 138.496 92.4323 138.496 92.4323 
	 138.496 92.4323 138.496 92.4323 138.496 92.4323 138.496 92.4323 
	 138.496 92.4323 138.496 92.4323 138.496 92.4323 138.496 92.4323 138.496 92.4323 "
	 style=" stroke:#000000; stroke-width:1; fill:#00a500; fill-opacity:100%"	 class="TAG:body3"></polygon>
      </g>
      <g>
	<ellipse  cx="73.3881" cy="171.692" rx="6.56427" ry="8.88209"
	 style=" stroke:#000000; stroke-width:1; fill:#ffb367; fill-opacity:100%"	 class="TAG:skin2"></ellipse>
	<ellipse  cx="113.371" cy="68.068" rx="9.54805" ry="19.738"
	 style=" stroke:#464646; stroke-width:1; fill:#ffb367; fill-opacity:100%"	 class="TAG:skin2"></ellipse>
	<polygon points="105.016 206.235 106.209 257.554 113.371 257.554 
	 113.371 206.235 113.371 257.554 120.531 257.554 121.725 206.235 
	 105.016 206.235 105.016 206.235 105.016 206.235 105.016 206.235 
	 105.016 206.235 105.016 206.235 105.016 206.235 105.016 206.235 
	 105.016 206.235 105.016 206.235 105.016 206.235 "
	 style=" stroke:#000000; stroke-width:1; fill:#ffb367; fill-opacity:100%"	 class="TAG:skin2"></polygon>
	<ellipse  cx="153.353" cy="171.692" rx="6.56427" ry="8.88209"
	 style=" stroke:#000000; stroke-width:1; fill:#ffb367; fill-opacity:100%"	 class="TAG:skin2"></ellipse>
	<polygon points="95.4683 95.702 107.403 91.7535 113.371 111.491 
	 119.338 91.7535 132.467 95.702 142.014 139.124 151.563 162.812 
	 146.789 178.6 133.661 147.02 127.693 123.336 121.725 147.02 
	 131.273 186.496 100.243 186.496 126.499 186.496 126.499 206.235 
	 100.243 206.235 100.243 186.496 95.4683 186.496 105.016 147.02 
	 99.0478 123.336 93.0812 147.02 79.9525 178.6 75.1782 162.812 
	 84.7264 139.124 95.4683 95.702 95.4683 95.702 95.4683 95.702 
	 95.4683 95.702 95.4683 95.702 95.4683 95.702 95.4683 95.702 
	 95.4683 95.702 95.4683 95.702 95.4683 95.702 95.4683 95.702 "
	 style=" stroke:#000000; stroke-width:1; fill:#a50000; fill-opacity:100%"	 class="TAG:body2"></polygon>
      </g>
      <g>
	<ellipse  cx="111.738" cy="171.692" rx="6.56427" ry="8.88209"
	 style=" stroke:#000000; stroke-width:1; fill:#ffe2c5; fill-opacity:100%"	 class="TAG:skin1"></ellipse>
	<ellipse  cx="31.7735" cy="171.692" rx="6.56427" ry="8.88209"
	 style=" stroke:#000000; stroke-width:1; fill:#ffe2c5; fill-opacity:100%"	 class="TAG:skin1"></ellipse>
	<ellipse  cx="71.7561" cy="64.1203" rx="9.54805" ry="19.738"
	 style=" stroke:#464646; stroke-width:1; fill:#ffe2c5; fill-opacity:100%"	 class="TAG:skin1"></ellipse>
	<polygon points="70.5623 87.8063 71.7561 85.832 72.9495 87.8063 
	 72.9495 89.7798 71.7561 91.7535 70.5623 91.7535 68.1755 109.519 
	 71.7561 127.282 75.3363 109.519 72.9495 91.7535 71.7561 91.7535 
	 70.5623 89.7798 70.5623 87.8063 70.5623 87.8063 70.5623 87.8063 
	 70.5623 87.8063 70.5623 87.8063 70.5623 87.8063 70.5623 87.8063 
	 70.5623 87.8063 70.5623 87.8063 70.5623 87.8063 70.5623 87.8063 "
	 style=" stroke:#000000; stroke-width:1; fill:#a5ffa5; fill-opacity:100%"></polygon>
	<polygon points="52.6599 91.7535 65.7884 87.8063 71.7561 121.36 
	 77.7234 87.8063 90.8519 91.7535 100.4 139.124 109.948 162.812 
	 105.174 178.6 90.8519 147.02 86.078 123.336 86.078 186.496 
	 62.2079 186.496 81.304 186.496 81.304 257.554 71.7561 257.554 
	 71.7561 186.496 71.7561 257.554 62.2079 257.554 62.2079 186.496 
	 57.4339 186.496 57.4339 123.336 52.6599 147.02 38.3376 178.6 
	 33.5637 162.812 43.1116 139.124 52.6599 91.7535 52.6599 91.7535 
	 52.6599 91.7535 52.6599 91.7535 52.6599 91.7535 52.6599 91.7535 
	 52.6599 91.7535 52.6599 91.7535 52.6599 91.7535 52.6599 91.7535 52.6599 91.7535 "
	 style=" stroke:#000000; stroke-width:1; fill:#00006e; fill-opacity:100%"	 class="TAG:body1"></polygon>
      </g>
    </g>
  </symbol>
 </defs>
</svg>
