<?xml version="1.0"?>
<?metis version="3.0.1"?>
<?metisxml version="1.0"?>
<!DOCTYPE svg  PUBLIC "-//W3C//DTD SVG August 1999//EN"
 "http://www.w3.org/Graphics/SVG/svg-19990812.dtd">

<svg width="200" height="200">
 <title>Symbol library: manualtoolrole.svg</title>
 <defs>
  <symbol id="oid1" xml:space="preserve" class="METIS_SYMBOL">
   <title>Manual Tool Role</title>
    <g>
      <desc>METIS_TEXT_GROUP</desc>
      <text  x="0" y="80.696"
       style=" stroke:#000000; stroke-width:2; font-family:sans-serif; font-size:14; text-align:center"
       class="TAG:text">text</text>
      <rect x="0" y="67.196" width="111.471" height="32"
       style=" stroke:#000000; stroke-width:1; fill:#ffffff; fill-opacity:0%"></rect>
    </g>
    <g>
      <polygon points="16.2354 63.598 16.2354 15.598 96.2354 15.598 
       96.2354 63.598 16.2354 63.598 16.2354 63.598 "
       style=" stroke:#000000; stroke-width:1; fill:#ffffff; fill-opacity:100%"></polygon>
      <rect x="15.2354" y="0" width="14" height="12"
       style=" stroke:#000000; stroke-width:1; fill:#ffffff; fill-opacity:100%"></rect>
      <rect x="48.7354" y="0" width="14" height="12"
       style=" stroke:#000000; stroke-width:1; fill:#ffffff; fill-opacity:100%"></rect>
      <rect x="82.2354" y="0" width="14" height="12"
       style=" stroke:#000000; stroke-width:1; fill:#ffffff; fill-opacity:100%"></rect>
    </g>
    <g>
      <polygon points="58.8473 37.6011 58.8473 28.0107 60.9591 25.7542 
       63.0707 25.7542 64.2587 26.6568 66.7664 26.6568 67.5582 25.7542 
       67.5582 21.8052 66.2385 21.0154 63.2028 21.0154 62.6749 21.9181 
       61.751 21.9181 59.5072 20 53.5679 20 50.0042 23.0463 
       46.0446 29.3646 45.9127 31.5083 48.2883 30.0417 52.38 26.2055 
       53.5679 26.2055 54.4917 27.4466 54.4917 37.8267 58.8473 37.6011 
       58.8473 37.6011 58.8473 37.6011 "
       style=" stroke:#000000; stroke-width:1; fill:#dcdcdc; fill-opacity:100%"></polygon>
      <polygon points="54.5064 37.623 53.8831 38.2624 53.6338 56.5906 
       53.1352 61.3856 60.6143 61.3856 59.7418 56.484 59.4925 38.1558 
       58.8692 37.623 54.5064 37.623 54.5064 37.623 54.5064 37.623 "
       style=" stroke:#000000; stroke-width:1; fill:#b9b9b9; fill-opacity:100%"></polygon>
    </g>
  </symbol>
 </defs>
</svg>
