<?xml version="1.0"?>
<?metis version="3.0.1"?>
<?metisxml version="1.0"?>
<!DOCTYPE svg  PUBLIC "-//W3C//DTD SVG August 1999//EN"
 "http://www.w3.org/Graphics/SVG/svg-19990812.dtd">

<svg width="200" height="200">
 <title>Symbol library: manualtool.svg</title>
 <defs>
  <symbol id="oid1" xml:space="preserve" class="METIS_SYMBOL">
   <title>Manual Tool</title>
    <g>
      <desc>METIS_TEXT_GROUP</desc>
      <text  x="0" y="82.098"
       style=" stroke:#000000; stroke-width:2; font-family:sans-serif; font-size:14; text-align:center"
       class="TAG:text">text</text>
      <rect x="0" y="68.598" width="111.471" height="32"
       style=" stroke:#000000; stroke-width:1; fill:#ffffff; fill-opacity:0%"></rect>
    </g>
    <ellipse  cx="22.4709" cy="6" rx="6" ry="6"
     style=" stroke:#000000; stroke-width:1; fill:#96a5ff; fill-opacity:100%"></ellipse>
    <ellipse  cx="82.4709" cy="6" rx="6" ry="6"
     style=" stroke:#000000; stroke-width:1; fill:#96a5ff; fill-opacity:100%"></ellipse>
    <ellipse  cx="52.4709" cy="6" rx="6" ry="6"
     style=" stroke:#000000; stroke-width:1; fill:#96a5ff; fill-opacity:100%"></ellipse>
    <polygon points="12.4709 64 12.4709 16 92.4709 16 
     92.4709 64 12.4709 64 12.4709 64 "
     style=" stroke:#000000; stroke-width:1; fill:#96a5ff; fill-opacity:100%"></polygon>
    <path d="M 13.4709 63.9853 C 24.6299 60.8891 31.8174 63.8896 
     35.4709 64 C 44.8555 64.2835 61.1792 70 70.7459 69.957 
     C 74.9098 69.9382 79.3 68.45 92.4709 63.9853 Z"
     style=" stroke:#000000; stroke-width:1; fill:#96a5ff; fill-opacity:100%"></path>
    <g>
      <polygon points="54.5827 39.3103 54.5827 29.7199 56.6945 27.4634 
       58.8062 27.4634 59.9942 28.366 62.5018 28.366 63.2936 27.4634 
       63.2936 23.5144 61.9739 22.7246 58.9382 22.7246 58.4103 23.6272 
       57.4864 23.6272 55.2427 21.7092 49.3033 21.7092 45.7396 24.7555 
       41.78 31.0738 41.6481 33.2175 44.0238 31.7508 48.1154 27.9147 
       49.3033 27.9147 50.2272 29.1558 50.2272 39.5359 54.5827 39.3103 
       54.5827 39.3103 54.5827 39.3103 "
       style=" stroke:#000000; stroke-width:1; fill:#dcdcdc; fill-opacity:100%"></polygon>
      <polygon points="50.2418 39.3322 49.6186 39.9716 49.3692 58.2998 
       48.8706 63.0948 56.3498 63.0948 55.4773 58.1932 55.2279 39.865 
       54.6046 39.3322 50.2418 39.3322 50.2418 39.3322 50.2418 39.3322 "
       style=" stroke:#000000; stroke-width:1; fill:#a50000; fill-opacity:100%"></polygon>
    </g>
  </symbol>
 </defs>
</svg>
