<svg xmlns:rdf="http://www.w3.org/1999/02/22-rdf-syntax-ns#" xmlns="http://www.w3.org/2000/svg" version="1.1" xml:space="preserve" height="219px" viewBox="21.152 45.375 219 219" width="219px" enable-background="new 21.152 45.375 219 219" y="0px" x="0px" xmlns:cc="http://creativecommons.org/ns#" xmlns:dc="http://purl.org/dc/elements/1.1/">
	<metadata>
		<rdf:RDF>
			<cc:Work rdf:about="">
				<dc:format>image/svg+xml</dc:format>
				<dc:type rdf:resource="http://purl.org/dc/dcmitype/StillImage"/>
				<dc:title/>
			</cc:Work>
		</rdf:RDF>
	</metadata>
<defs>
		<filter id="filter4087">
			<feGaussianBlur stdDeviation="1.3239063"/>
		</filter>
		<radialGradient id="radialGradient4107" gradientUnits="userSpaceOnUse" cy="148" cx="-324" gradientTransform="matrix(0.04273514,-3.2991456,1.640888,0.02125321,-515.36655,-848.05533)" r="54.3">
			<stop stop-color="#0075ff" offset="0"/>
			<stop stop-color="#0075ff" stop-opacity="0" offset="1"/>
		</radialGradient>
		<filter id="filter4202">
			<feGaussianBlur stdDeviation="0.37808994"/>
		</filter>
		<filter id="filter4210">
			<feGaussianBlur stdDeviation="0.37239469"/>
		</filter>
		<filter id="filter4222">
			<feGaussianBlur stdDeviation="0.78334579"/>
		</filter>
	</defs>
<filter y="-0.5338241" x="-1.6671055" width="4.334211" height="2.0676482">
	<feGaussianBlur stdDeviation="0.317632"/>
</filter>
<g transform="translate(400.88135,20.415254)" fill-rule="nonzero">
		<rect opacity="0.5" style="color:#000000;enable-background:accumulate;" rx="4.52" ry="4.52" height="178" width="109" y="44.4" x="-339" fill="#FFF"/>
		<rect opacity="0.5" style="color:#000000;enable-background:accumulate;" rx="4.52" ry="4.52" height="178" width="109" y="44.4" x="-339" fill="url(#radialGradient4107)"/>
	</g>
	<g fill="#000" transform="translate(371.18644,-118.77966)">
		<g opacity="0.5" filter="url(#filter4202)" transform="matrix(2.1710671,0,0,1.7130021,407.61333,-137.49612)">
			<path d="m-318,262,0-6.35-8.11,0,0-2.71,8.11,0,0-2.79-8.11,0,0-2.89,6.66,0-7.93-13.9,3.91,0,5.66,10.1c0.638,1.15,1.13,2.15,1.48,3.01,0.299-0.69,0.833-1.75,1.6-3.18l5.35-9.9h4.18l-7.91,13.9h6.66v2.89h-8.05v2.79h8.05v2.71h-8.05v6.35z"/>
		</g>
		<g transform="matrix(2.1710671,0,0,1.7130021,404.82943,-141.20798)" stroke="#FFF" stroke-dasharray="none" stroke-miterlimit="4" stroke-width="1.03708518">
			<path d="m-318,262,0-6.35-8.11,0,0-2.71,8.11,0,0-2.79-8.11,0,0-2.89,6.66,0-7.93-13.9,3.91,0,5.66,10.1c0.638,1.15,1.13,2.15,1.48,3.01,0.299-0.69,0.833-1.75,1.6-3.18l5.35-9.9h4.18l-7.91,13.9h6.66v2.89h-8.05v2.79h8.05v2.71h-8.05v6.35z" stroke="#FFF" stroke-dasharray="none" stroke-miterlimit="4" stroke-width="1.03708518"/>
		</g>
	</g>
	<g fill="#000" transform="translate(230.13559,68.669492)">
		<g opacity="0.5" filter="url(#filter4210)" transform="matrix(2.2159434,0,0,1.8445163,-86.148479,-406.49315)">
			<path d="m-12.7,296,6.15,0,0,2.89-5.55,0c0.247,0.573,0.371,1.15,0.371,1.72-0.000009,1.13-0.27,2.33-0.811,3.59-0.54,1.26-1.43,2.55-2.67,3.87,1.03-0.286,1.97-0.43,2.81-0.43,1.08,0.00001,2.3,0.163,3.65,0.488,2.24,0.534,3.76,0.801,4.55,0.801,0.964,0,2.21-0.365,3.75-1.09l1.13,3.22c-1.2,0.508-2.13,0.84-2.78,0.996-0.658,0.156-1.31,0.234-1.96,0.234-0.547,0-1.1-0.0521-1.66-0.156-0.352-0.0651-1.19-0.303-2.53-0.713-1.33-0.41-2.2-0.654-2.59-0.732-0.612-0.104-1.22-0.156-1.84-0.156-0.938,0-1.94,0.163-3,0.488-1.06,0.326-2.03,0.768-2.9,1.33l-1.35-3.38c1.25-0.69,2.31-1.68,3.18-2.96,0.872-1.28,1.31-2.85,1.31-4.7-0.000005-0.794-0.111-1.6-0.332-2.42h-3.83v-2.89h3.01c-0.43-1.46-0.703-2.52-0.82-3.19-0.117-0.671-0.176-1.32-0.176-1.96-0.000003-2.71,1-4.82,3.01-6.35,1.61-1.21,3.57-1.82,5.86-1.82,2.36,0.00003,4.3,0.648,5.83,1.94,1.53,1.3,2.47,3.12,2.82,5.46l-3.5,0.527c-0.195-1.56-0.778-2.79-1.75-3.69-0.97-0.898-2.13-1.35-3.49-1.35-1.45,0.00003-2.65,0.466-3.6,1.4-0.957,0.931-1.44,2.05-1.44,3.37-0.000006,1.45,0.371,3.33,1.11,5.66z"/>
		</g>
		<g transform="matrix(2.2159434,0,0,1.8445163,-90.148479,-410.49315)" stroke="#FFF" stroke-dasharray="none" stroke-miterlimit="4" stroke-width="1.00013947">
			<path d="m-12.7,296,6.15,0,0,2.89-5.55,0c0.247,0.573,0.371,1.15,0.371,1.72-0.000009,1.13-0.27,2.33-0.811,3.59-0.54,1.26-1.43,2.55-2.67,3.87,1.03-0.286,1.97-0.43,2.81-0.43,1.08,0.00001,2.3,0.163,3.65,0.488,2.24,0.534,3.76,0.801,4.55,0.801,0.964,0,2.21-0.365,3.75-1.09l1.13,3.22c-1.2,0.508-2.13,0.84-2.78,0.996-0.658,0.156-1.31,0.234-1.96,0.234-0.547,0-1.1-0.0521-1.66-0.156-0.352-0.0651-1.19-0.303-2.53-0.713-1.33-0.41-2.2-0.654-2.59-0.732-0.612-0.104-1.22-0.156-1.84-0.156-0.938,0-1.94,0.163-3,0.488-1.06,0.326-2.03,0.768-2.9,1.33l-1.35-3.38c1.25-0.69,2.31-1.68,3.18-2.96,0.872-1.28,1.31-2.85,1.31-4.7-0.000005-0.794-0.111-1.6-0.332-2.42h-3.83v-2.89h3.01c-0.43-1.46-0.703-2.52-0.82-3.19-0.117-0.671-0.176-1.32-0.176-1.96-0.000003-2.71,1-4.82,3.01-6.35,1.61-1.21,3.57-1.82,5.86-1.82,2.36,0.00003,4.3,0.648,5.83,1.94,1.53,1.3,2.47,3.12,2.82,5.46l-3.5,0.527c-0.195-1.56-0.778-2.79-1.75-3.69-0.97-0.898-2.13-1.35-3.49-1.35-1.45,0.00003-2.65,0.466-3.6,1.4-0.957,0.931-1.44,2.05-1.44,3.37-0.000006,1.45,0.371,3.33,1.11,5.66z" stroke="#FFF" stroke-dasharray="none" stroke-miterlimit="4" stroke-width="1.00013947"/>
		</g>
	</g>
	<g fill="#000" transform="translate(363.76271,44.542373)">
		<g opacity="0.5" filter="url(#filter4222)" transform="matrix(1.166108,0,0,0.85755348,40.974577,-215.92796)">
			<path d="m-239,368,0-7c-3.5-0.441-6.35-1.23-8.54-2.35-2.19-1.13-4.08-2.95-5.68-5.47-1.59-2.52-2.52-5.59-2.78-9.22l7.04-1.32c0.545,3.76,1.5,6.52,2.88,8.29,1.97,2.49,4.33,3.88,7.08,4.16v-22.3c-2.88-0.545-5.82-1.66-8.83-3.35-2.23-1.24-3.95-2.97-5.15-5.17-1.21-2.2-1.81-4.71-1.81-7.51,0-4.98,1.76-9.01,5.29-12.1,2.36-2.07,5.86-3.35,10.5-3.81v-3.35h4.12v3.35c4.07,0.389,7.3,1.58,9.69,3.58,3.06,2.54,4.9,6.03,5.52,10.5l-7.24,1.09c-0.415-2.75-1.28-4.86-2.59-6.32-1.31-1.47-3.11-2.43-5.39-2.9v20.2c3.53,0.882,5.86,1.57,7,2.06,2.18,0.96,3.95,2.13,5.33,3.5,1.37,1.37,2.43,3.01,3.17,4.9,0.739,1.89,1.11,3.94,1.11,6.15-0.00004,4.85-1.54,8.9-4.63,12.1-3.09,3.24-7.08,4.98-12,5.21v7.08zm0-61.3c-2.72,0.415-4.87,1.5-6.44,3.27-1.57,1.76-2.35,3.85-2.35,6.26-0.00002,2.39,0.668,4.38,2,5.99,1.34,1.61,3.6,2.89,6.79,3.85zm4.12,48.4c2.72-0.337,4.97-1.52,6.75-3.54s2.66-4.53,2.66-7.51c-0.00003-2.54-0.629-4.58-1.89-6.13-1.26-1.54-3.77-2.92-7.53-4.14z"/>
		</g>
		<g transform="matrix(1.166108,0,0,0.85755348,38.974576,-219)" stroke="#FFF" stroke-dasharray="none" stroke-miterlimit="4" stroke-width="2">
			<path d="m-239,368,0-7c-3.5-0.441-6.35-1.23-8.54-2.35-2.19-1.13-4.08-2.95-5.68-5.47-1.59-2.52-2.52-5.59-2.78-9.22l7.04-1.32c0.545,3.76,1.5,6.52,2.88,8.29,1.97,2.49,4.33,3.88,7.08,4.16v-22.3c-2.88-0.545-5.82-1.66-8.83-3.35-2.23-1.24-3.95-2.97-5.15-5.17-1.21-2.2-1.81-4.71-1.81-7.51,0-4.98,1.76-9.01,5.29-12.1,2.36-2.07,5.86-3.35,10.5-3.81v-3.35h4.12v3.35c4.07,0.389,7.3,1.58,9.69,3.58,3.06,2.54,4.9,6.03,5.52,10.5l-7.24,1.09c-0.415-2.75-1.28-4.86-2.59-6.32-1.31-1.47-3.11-2.43-5.39-2.9v20.2c3.53,0.882,5.86,1.57,7,2.06,2.18,0.96,3.95,2.13,5.33,3.5,1.37,1.37,2.43,3.01,3.17,4.9,0.739,1.89,1.11,3.94,1.11,6.15-0.00004,4.85-1.54,8.9-4.63,12.1-3.09,3.24-7.08,4.98-12,5.21v7.08zm0-61.3c-2.72,0.415-4.87,1.5-6.44,3.27-1.57,1.76-2.35,3.85-2.35,6.26-0.00002,2.39,0.668,4.38,2,5.99,1.34,1.61,3.6,2.89,6.79,3.85zm4.12,48.4c2.72-0.337,4.97-1.52,6.75-3.54s2.66-4.53,2.66-7.51c-0.00003-2.54-0.629-4.58-1.89-6.13-1.26-1.54-3.77-2.92-7.53-4.14z" stroke="#FFF" stroke-dasharray="none" stroke-miterlimit="4" stroke-width="2"/>
		</g>
	</g>
	<path opacity="0.5" filter="url(#filter4087)" fill="#000" d="m204,60.5-56.8,27.5,0.594,162,55.8,10.2,0,0.938,7.97-1.16-0.125-198-0.0312,0,0.0312-0.938-7.41-0.0625z"/>
	<polygon points="145,81.3,181,64.4,50.8,64.5,50.4,246,69.3,246,69,80.9" transform="translate(0,-2.783898)" fill="#595959"/>
	<polygon points="142,83.4,171,69,55.6,69,55.1,246,71.6,246,72,83.4" transform="translate(0,-2.783898)" fill="#adadad"/>
	<polyline transform="translate(0,-2.783898)" stroke="#595959" points="145,83.4,72.3,83.8,71.6,246" stroke-width="4" fill="none"/>
	<polygon points="165,74.9,171,69.1,55.6,69,55.1,246,60.2,246,61.5,74.6" transform="translate(0,-2.783898)" fill="#8c8c8c"/>
	<line x1="51.8" y1="62.3" stroke="#595959" x2="72" y2="80.6" fill="none"/>
	<polygon points="198,255,142,245,142,83.4,199,55.9,206,55.9,200,254" transform="translate(0,-2.783898)" fill="#dbdbdb"/>
	<polygon points="206,254,198,255,199,55.9,206,55.9" transform="translate(0,-2.783898)" fill="#7a7a7a"/>
	<path opacity="0.57999998" d="m188,58.1-46,22.3,0.516,139s-1.5-134,45.5-161z" fill="#f2f2f2"/>
	<path d="m191,171c0,2.96-1.88,5.36-4.19,5.36h-0.119c-2.32,0-4.19-2.4-4.19-5.36v-22.8c0-2.96,1.88-5.36,4.19-5.36h0.119c2.32,0,4.19,2.4,4.19,5.36v22.8z" fill="#bc860d"/>
	<path d="m190,171c0,2.96-1.88,5.36-4.19,5.36h-0.119c-2.32,0-4.19-2.4-4.19-5.36v-22.8c0-2.96,1.88-5.36,4.19-5.36h0.119c2.32,0,4.19,2.4,4.19,5.36v22.8z" fill="#d59f0f"/>
	<circle d="m 189.26,162.08701 c 0,1.76123 -1.42776,3.189 -3.189,3.189 -1.76124,0 -3.189,-1.42777 -3.189,-3.189 0,-1.76124 1.42776,-3.189 3.189,-3.189 1.76124,0 3.189,1.42776 3.189,3.189 z" transform="translate(0,-2.783898)" cy="162" cx="186" r="3.19" fill="#595959"/>
	<path d="m186,157c-1.3-2.2-3.54-2.75-6.09-2.06-2.55,0.688-5.62,2.37-8.28,2.48-2.66,0.103-3.28-1.96-4.53-1.24-1.25,0.722-0.782,1.34-0.471,2.06,0.313,0.722,2.27,1.65,3.44,1.86,3.98,0.619,9.01-1.72,10.6-1.44,1.61,0.275,2.76,2.68,4.69,2.47,1.93-0.206,1.93-1.92,0.625-4.12z" fill="#d59f0f"/>
	<circle d="m 185.598,148.383 c 0,0.45674 -0.37026,0.827 -0.827,0.827 -0.45674,0 -0.827,-0.37026 -0.827,-0.827 0,-0.45674 0.37026,-0.827 0.827,-0.827 0.45674,0 0.827,0.37026 0.827,0.827 z" transform="translate(0,-2.783898)" cy="148" cx="185" r="0.827" fill="#595959"/>
	<circle d="m 188.55301,148.383 c 0,0.45729 -0.37071,0.828 -0.828,0.828 -0.4573,0 -0.828,-0.37071 -0.828,-0.828 0,-0.4573 0.3707,-0.828 0.828,-0.828 0.45729,0 0.828,0.3707 0.828,0.828 z" transform="translate(0,-2.783898)" cy="148" cx="188" r="0.828" fill="#595959"/>
	<path d="m190,162v8.98c0,2.96-1.88,5.36-4.19,5.36h-0.119c-2.32,0-4.19-2.4-4.19-5.36-0.001,0.001,6.53,5.28,8.5-8.98z" fill="#e2b65d"/>
	<circle d="m 185.362,175.55499 c 0,0.45674 -0.37026,0.827 -0.827,0.827 -0.45674,0 -0.827,-0.37026 -0.827,-0.827 0,-0.45674 0.37026,-0.827 0.827,-0.827 0.45674,0 0.827,0.37026 0.827,0.827 z" transform="translate(0,-2.783898)" cy="176" cx="185" r="0.827" fill="#595959"/>
	<circle d="m 188.31501,175.55499 c 0,0.45674 -0.37026,0.827 -0.827,0.827 -0.45674,0 -0.827,-0.37026 -0.827,-0.827 0,-0.45674 0.37026,-0.827 0.827,-0.827 0.45674,0 0.827,0.37026 0.827,0.827 z" transform="translate(0,-2.783898)" cy="176" cx="187" r="0.827" fill="#595959"/>
	<path d="m142,242,55.8,10.2,0.254-66c-0.001,0-1.96,61.2-56.1,55.8z" fill="#bcbcbc"/>
</svg>