<?xml version="1.0"?>
<?metis version="3.4"?>
<?metisxml version="1.1"?>
<!DOCTYPE svg  PUBLIC "-//W3C//DTD SVG August 1999//EN"
 "http://www.w3.org/Graphics/SVG/svg-19990812.dtd">

<svg width="200" height="200">
 <title>Symbol library: measure.svg</title>
 <defs>
  <symbol id="oid0" xml:space="preserve" class="METIS_SYMBOL">
   <title>Measure</title>
    <g>
      <polygon points="0 0 0 304 16 320 
       880 320 880 16 864 0 0 0 
       0 0 0 0 0 0 0 0 0 0 "
       style=" stroke:#000000; stroke-width:1; fill:#9b9b9b; fill-opacity:100%"       class="TAG:shadow"></polygon>
      <rect x="0" y="0" width="240" height="304"
       style=" stroke:#000000; stroke-width:1; fill:#ffff6e; fill-opacity:100%"       class="TAG:PictureBackground"></rect>
      <rect x="240" y="0" width="624" height="304"
       style=" stroke:#000000; stroke-width:1; fill:#ff8c8c; fill-opacity:100%"       class="TAG:canvas"></rect>
      <g>
	<desc>METIS_TEXT_GROUP</desc>
	<text  x="256" y="15"
	 style=" stroke:#000000; stroke-width:1; font-family:sans-serif; font-size:16;"
	 class="TAG:text">text</text>
	<rect x="256" y="0" width="608" height="224"
	 style=" stroke:#000000; stroke-width:1; fill:#ffffff; fill-opacity:0%"></rect>
      </g>
      <polyline points="864 304 880 320"
       style=" stroke:#000000; stroke-width:1;"></polyline>
      <g>
	<polygon points="16 112 16 182 28.2352 192 
	 211.765 192 224 182 224 112 16 112 
	 16 112 16 112 16 112 16 112 "
	 style=" stroke:#000000; stroke-width:1; fill:#ffffff; fill-opacity:100%"></polygon>
	<polyline points="50.6666 162 62.2222 142 62.2222 182"
	 style=" stroke:#000000; stroke-width:1;"></polyline>
	<polyline points="96.8884 142 108.444 142 108.444 162 
	 96.8884 162 96.8884 182 108.444 182 108.444 182"
	 style=" stroke:#000000; stroke-width:1;"></polyline>
	<polyline points="143.112 142 154.666 142 148.888 162 
	 154.666 182 143.112 182 143.112 182"
	 style=" stroke:#000000; stroke-width:1;"></polyline>
	<polyline points="189.334 142 189.334 162 200.888 162 
	 200.888 142 200.888 182"
	 style=" stroke:#000000; stroke-width:1;"></polyline>
	<polyline points="39.1112 112 39.1112 132"
	 style=" stroke:#000000; stroke-width:1;"></polyline>
	<polyline points="62.2222 112 62.2222 132"
	 style=" stroke:#000000; stroke-width:1;"></polyline>
	<polyline points="85.3334 112 85.3334 132"
	 style=" stroke:#000000; stroke-width:1;"></polyline>
	<polyline points="108.444 112 108.444 132"
	 style=" stroke:#000000; stroke-width:1;"></polyline>
	<polyline points="131.556 112 131.556 132"
	 style=" stroke:#000000; stroke-width:1;"></polyline>
	<polyline points="154.666 112 154.666 132"
	 style=" stroke:#000000; stroke-width:1;"></polyline>
	<polyline points="177.778 112 177.778 132"
	 style=" stroke:#000000; stroke-width:1;"></polyline>
	<polyline points="200.888 112 200.888 132"
	 style=" stroke:#000000; stroke-width:1;"></polyline>
      </g>
      <rect x="240" y="224" width="624" height="79.7079"
       style=" stroke:#000000; stroke-width:1; fill:#dcdcdc; fill-opacity:100%"></rect>
      <g>
	<desc>METIS_TEXT_GROUP</desc>
	<text  x="256" y="236"
	 style=" stroke:#000000; stroke-width:1; font-family:sans-serif; font-size:13;"
	 class="TAG:strat_value">strat_value</text>
	<rect x="256" y="224" width="608" height="80"
	 style=" stroke:#000000; stroke-width:1; fill:#ffffff; fill-opacity:0%"></rect>
      </g>
    </g>
  </symbol>
 </defs>
</svg>
