<?xml version="1.0"?>
<?metis version="3.1"?>
<?metisxml version="1.0"?>
<!DOCTYPE svg  PUBLIC "-//W3C//DTD SVG August 1999//EN"
 "http://www.w3.org/Graphics/SVG/svg-19990812.dtd">

<svg width="200" height="200">
 <title>Symbol library: mechanism_symb.svg</title>
 <defs>
  <symbol id="oid1" xml:space="preserve" class="METIS_SYMBOL">
   <title>Mech_Flowlogic</title>
    <g>
      <polygon points="7.38462 320 480 320 480 92.4444 
       288 92.4444 288 49.7778 332.308 49.7778 243.692 7.11111 
       155.077 49.7778 199.385 49.7778 199.385 92.4444 7.38462 92.4444 
       7.38462 320 7.38462 320 "
       style=" stroke:#000000; stroke-width:1; fill:#000000; fill-opacity:100%"       class="TAG:shadow"></polygon>
      <polygon points="0 312.889 472.615 312.889 472.615 85.3333 
       280.615 85.3333 280.615 42.6667 324.923 42.6667 236.308 0 
       147.692 42.6667 192 42.6667 192 85.3333 0 85.3333 
       0 312.889 0 312.889 "
       style=" stroke:#000000; stroke-width:1; fill:#ffff6e; fill-opacity:100%"       class="TAG:polygon"></polygon>
      <g>
	<desc>METIS_TEXT_GROUP</desc>
	<text  x="11.0769" y="123.556"
	 style=" stroke:#000000; stroke-width:1; font-family:sans-serif; font-size:24;"
	 class="TAG:text">text</text>
	<rect x="11.0769" y="99.5556" width="446.769" height="124.444"
	 style=" stroke:#000000; stroke-width:1; fill:#000000; fill-opacity:0%"></rect>
      </g>
      <g>
	<desc>METIS_TEXT_GROUP</desc>
	<text  x="11.0769" y="247.656"
	 style=" stroke:#000000; stroke-width:2; font-family:sans-serif; font-size:16;"
	 class="TAG:text1">text1</text>
	<rect x="11.0769" y="231.856" width="448" height="72.1443"
	 style=" stroke:#000000; stroke-width:1; fill:#ffffff; fill-opacity:0%"></rect>
      </g>
      <polyline points="5.47051 232.856 469.471 231.856"
       style=" stroke:#000000; stroke-width:2;"></polyline>
    </g>
  </symbol>
  <symbol id="oid0" xml:space="preserve" class="METIS_SYMBOL">
   <title>Mech_IPM</title>
    <polyline points="459 0 474 25 474 290 
     462 310 18 310 12 300"
     style=" stroke:#000000; stroke-width:1;"     class="TAG:polyline"></polyline>
    <polyline points="465 0 480 25 480 300 
     468 320 24 320 18 310"
     style=" stroke:#000000; stroke-width:1;"     class="TAG:polyline"></polyline>
    <polyline points="462 0 477 25 477 295 
     465 315 21 315 15 305"
     style=" stroke:#000000; stroke-width:1;"     class="TAG:polyline"></polyline>
    <polyline points="456 0 471 25 471 285 
     459 305 15 305 9 295"
     style=" stroke:#000000; stroke-width:1;"     class="TAG:polyline"></polyline>
    <polygon points="0 280 12 300 456 300 
     468 280 468 25 453 0 9 0 
     0 10 0 280 0 280 0 280 "
     style=" stroke:#000000; stroke-width:1; fill:#ff962d; fill-opacity:100%"     class="TAG:polygon"></polygon>
    <polyline points="453 0 453 0 465 0"
     style=" stroke:#000000; stroke-width:1;"     class="TAG:polyline"></polyline>
    <g>
      <desc>METIS_TEXT_GROUP</desc>
      <text  x="12" y="22"
       style=" stroke:#000000; stroke-width:1; font-family:sans-serif; font-size:12;"
       class="TAG:text">text</text>
      <rect x="12" y="10" width="444" height="80"
       style=" stroke:#000000; stroke-width:1; fill:#000000; fill-opacity:0%"></rect>
    </g>
    <polyline points="0 100 468 100"
     style=" stroke:#000000; stroke-width:1;"></polyline>
    <g>
      <desc>METIS_TEXT_GROUP</desc>
      <text  x="12" y="122"
       style=" stroke:#000000; stroke-width:1; font-family:sans-serif; font-size:12;"
       class="TAG:text1">text1</text>
      <rect x="12" y="110" width="444" height="190"
       style=" stroke:#000000; stroke-width:1; fill:#ffffff; fill-opacity:0%"></rect>
    </g>
  </symbol>
 </defs>
</svg>
