<?xml version="1.0"?>
<?metis version="3.0"?>
<?metisxml version="1.0"?>
<!DOCTYPE svg  PUBLIC "-//W3C//DTD SVG August 1999//EN"
 "http://www.w3.org/Graphics/SVG/svg-19990812.dtd">

<svg width="200" height="200">
 <title>Symbol library: meeting.svg</title>
 <defs>
  <symbol id="oid1" xml:space="preserve" class="METIS_SYMBOL">
   <title>Meeting</title>
    <ellipse  cx="134" cy="66" rx="122" ry="52"
     style=" stroke:#000000; stroke-width:1; fill:#e8d200; fill-opacity:100%" class="TAG:table"></ellipse>
    <ellipse  cx="134" cy="10" rx="10" ry="10"
     style=" stroke:#000000; stroke-width:1; fill:#a50000; fill-opacity:100%" class="TAG:head"></ellipse>
    <ellipse  cx="138" cy="122" rx="10" ry="10"
     style=" stroke:#000000; stroke-width:1; fill:#a50000; fill-opacity:100%" class="TAG:head"></ellipse>
    <ellipse  cx="258" cy="66" rx="10" ry="10"
     style=" stroke:#000000; stroke-width:1; fill:#a50000; fill-opacity:100%" class="TAG:head"></ellipse>
    <ellipse  cx="10" cy="66" rx="10" ry="10"
     style=" stroke:#000000; stroke-width:1; fill:#a50000; fill-opacity:100%" class="TAG:head"></ellipse>
    <polyline points="124 6 124 6 120 10 
     120 26 124 26 124 14"
     style=" stroke:#000000; stroke-width:1;" class="TAG:polyline"></polyline>
    <polyline points="144 6 144 6 148 10 
     148 26 144 26 144 14"
     style=" stroke:#000000; stroke-width:1;" class="TAG:polyline"></polyline>
    <polyline points="128 126 128 126 124 122 
     124 106 128 106 128 118"
     style=" stroke:#000000; stroke-width:1;" class="TAG:polyline"></polyline>
    <polyline points="148 126 148 126 152 122 
     152 106 148 106 148 118"
     style=" stroke:#000000; stroke-width:1;" class="TAG:polyline"></polyline>
    <polyline points="6 56 6 56 10 52 
     28 52 28 56 14 56"
     style=" stroke:#000000; stroke-width:1;" class="TAG:polyline"></polyline>
    <polyline points="6 76 6 76 10 80 
     28 80 28 76 14 76"
     style=" stroke:#000000; stroke-width:1;" class="TAG:polyline"></polyline>
    <polyline points="262 56 262 56 258 52 
     240 52 240 56 254 56"
     style=" stroke:#000000; stroke-width:1;" class="TAG:polyline"></polyline>
    <polyline points="262 76 262 76 258 80 
     242 80 242 76 254 76"
     style=" stroke:#000000; stroke-width:1;" class="TAG:polyline"></polyline>
    <ellipse  cx="208" cy="18" rx="10" ry="10"
     style=" stroke:#000000; stroke-width:1; fill:#a50000; fill-opacity:100%" class="TAG:head"></ellipse>
    <ellipse  cx="208" cy="114" rx="10" ry="10"
     style=" stroke:#000000; stroke-width:1; fill:#a50000; fill-opacity:100%" class="TAG:head"></ellipse>
    <polyline points="198 14 198 14 194 18 
     194 34 198 34 198 22"
     style=" stroke:#000000; stroke-width:1;" class="TAG:polyline"></polyline>
    <polyline points="218 14 218 14 222 18 
     222 34 218 34 218 22"
     style=" stroke:#000000; stroke-width:1;" class="TAG:polyline"></polyline>
    <polyline points="198 118 198 118 194 114 
     194 98 198 98 198 110"
     style=" stroke:#000000; stroke-width:1;" class="TAG:polyline"></polyline>
    <polyline points="218 118 218 118 222 114 
     222 98 218 98 218 110"
     style=" stroke:#000000; stroke-width:1;" class="TAG:polyline"></polyline>
    <ellipse  cx="68" cy="16" rx="10" ry="10"
     style=" stroke:#000000; stroke-width:1; fill:#a50000; fill-opacity:100%" class="TAG:head"></ellipse>
    <ellipse  cx="68" cy="118" rx="10" ry="10"
     style=" stroke:#000000; stroke-width:1; fill:#a50000; fill-opacity:100%" class="TAG:head"></ellipse>
    <polyline points="58 12 58 12 54 16 
     54 32 58 32 58 20"
     style=" stroke:#000000; stroke-width:1;" class="TAG:polyline"></polyline>
    <polyline points="78 12 78 12 82 16 
     82 32 78 32 78 20"
     style=" stroke:#000000; stroke-width:1;" class="TAG:polyline"></polyline>
    <polyline points="58 122 58 122 54 118 
     54 102 58 102 58 114"
     style=" stroke:#000000; stroke-width:1;" class="TAG:polyline"></polyline>
    <polyline points="78 122 78 122 82 118 
     82 102 78 102 78 114"
     style=" stroke:#000000; stroke-width:1;" class="TAG:polyline"></polyline>
    <g>
      <desc>METIS_TEXT_GROUP</desc>
      <text  x="64" y="47.8"
       style=" stroke:#000000; stroke-width:1; font-family:sans-serif; font-size:16; text-align:center vertical-align:middle;" class="TAG:text"
>text</text>
      <rect x="64" y="32" width="144" height="64"
       style=" stroke:#000000; stroke-width:1; fill:#ffffff; fill-opacity:0%"></rect>
    </g>
  </symbol>
 </defs>
</svg>
