<?xml version="1.0"?>
<?metis version="3.2.1"?>
<?metisxml version="1.1"?>
<!DOCTYPE svg  PUBLIC "-//W3C//DTD SVG August 1999//EN"
 "http://www.w3.org/Graphics/SVG/svg-19990812.dtd">

<svg width="200" height="200">
 <title>Symbol library: meetings.svg</title>
 <defs>
  <symbol id="oid1" xml:space="preserve" class="METIS_SYMBOL">
   <title>Meeting-alt1</title>
    <rect x="0" y="0" width="192" height="224" rx="10" ry="10"
     style=" stroke:#000000; stroke-width:1; fill:#dcdcdc; fill-opacity:100%"     class="TAG:main"></rect>
    <polyline points="0 176 88 176 192 176"
     style=" stroke:#000000; stroke-width:1;"></polyline>
    <polyline points="0 28 88 28 128 28 
     192 28"
     style=" stroke:#000000; stroke-width:1;"></polyline>
    <g>
      <desc>METIS_TEXT_GROUP</desc>
      <text  x="0" y="94"
       style=" stroke:#000000; stroke-width:1; font-family:sans-serif; font-size:40; text-align:center"
       class="TAG:text"></text>
      <rect x="0" y="56" width="192" height="115.173"
       style=" stroke:#000000; stroke-width:1; fill:#ffffff; fill-opacity:0%"></rect>
    </g>
    <g>
      <desc>METIS_TEXT_GROUP</desc>
      <text  x="160" y="62"
       style=" stroke:#000000; stroke-width:1; font-family:monospace; font-weight:bold; font-size:64; text-align:center"
       class="TAG:delayed">!</text>
      <rect x="160" y="0" width="32" height="144"
       style=" stroke:#000000; stroke-width:1; fill:#ffffff; fill-opacity:0%"></rect>
    </g>
    <image x="19" y="13" width="60" height="44" id="oid7" xlink:role="owned" xlink:href="meeting_7.png"></image>
  </symbol>
  <symbol id="oid2" xml:space="preserve" class="METIS_SYMBOL">
   <title>Meeting-alt2</title>
    <rect x="0" y="0" width="192" height="224" rx="10" ry="10"
     style=" stroke:#000000; stroke-width:1; fill:#dcdcdc; fill-opacity:100%"     class="TAG:main"></rect>
    <polyline points="0 176 88 176 192 176"
     style=" stroke:#000000; stroke-width:1;"></polyline>
    <polyline points="0 28 88 28 128 28 
     192 28"
     style=" stroke:#000000; stroke-width:1;"></polyline>
    <g>
      <desc>METIS_TEXT_GROUP</desc>
      <text  x="0" y="94"
       style=" stroke:#000000; stroke-width:1; font-family:sans-serif; font-size:40; text-align:center"
       class="TAG:text"></text>
      <rect x="0" y="56" width="192" height="115.173"
       style=" stroke:#000000; stroke-width:1; fill:#ffffff; fill-opacity:0%"></rect>
    </g>
    <g>
      <desc>METIS_TEXT_GROUP</desc>
      <text  x="160" y="62"
       style=" stroke:#000000; stroke-width:1; font-family:monospace; font-weight:bold; font-size:64; text-align:center"
       class="TAG:delayed">!</text>
      <rect x="160" y="0" width="32" height="144"
       style=" stroke:#000000; stroke-width:1; fill:#ffffff; fill-opacity:0%"></rect>
    </g>
    <image x="17" y="9" width="59" height="44" id="oid4" xlink:role="owned" xlink:href="meeting_4.png"></image>
  </symbol>
  <symbol id="oid3" xml:space="preserve" class="METIS_SYMBOL">
   <title>Meeting-alt3</title>
    <rect x="0" y="0" width="192" height="224" rx="10" ry="10"
     style=" stroke:#000000; stroke-width:1; fill:#dcdcdc; fill-opacity:100%"     class="TAG:main"></rect>
    <polyline points="0 176 88 176 192 176"
     style=" stroke:#000000; stroke-width:1;"></polyline>
    <polyline points="0 28 88 28 128 28 
     192 28"
     style=" stroke:#000000; stroke-width:1;"></polyline>
    <g>
      <desc>METIS_TEXT_GROUP</desc>
      <text  x="0" y="94"
       style=" stroke:#000000; stroke-width:1; font-family:sans-serif; font-size:40; text-align:center"
       class="TAG:text"></text>
      <rect x="0" y="56" width="192" height="115.173"
       style=" stroke:#000000; stroke-width:1; fill:#ffffff; fill-opacity:0%"></rect>
    </g>
    <g>
      <desc>METIS_TEXT_GROUP</desc>
      <text  x="160" y="62"
       style=" stroke:#000000; stroke-width:1; font-family:monospace; font-weight:bold; font-size:64; text-align:center"
       class="TAG:delayed">!</text>
      <rect x="160" y="0" width="32" height="144"
       style=" stroke:#000000; stroke-width:1; fill:#ffffff; fill-opacity:0%"></rect>
    </g>
    <image x="17" y="9" width="55" height="43" id="oid6" xlink:role="owned" xlink:href="meeting_6.png"></image>
  </symbol>
  <symbol id="oid8" xml:space="preserve" class="METIS_SYMBOL">
   <title>Meeting-alt3-open</title>
    <rect x="0" y="0" width="192" height="224" rx="10" ry="10"
     style=" stroke:#000000; stroke-width:1; fill:#dcdcdc; fill-opacity:100%"     class="TAG:main"></rect>
    <polyline points="0 176 88 176 192 176"
     style=" stroke:#000000; stroke-width:1;"></polyline>
    <polyline points="0 28 88 28 128 28 
     192 28"
     style=" stroke:#000000; stroke-width:1;"></polyline>
    <g>
      <desc>METIS_TEXT_GROUP</desc>
      <text  x="58.64" y="24.684"
       style=" stroke:#000000; stroke-width:1; font-family:sans-serif; font-size:24; vertical-align:middle;"
       class="TAG:text"></text>
      <rect x="58.64" y="1.684" width="132" height="25.684"
       style=" stroke:#000000; stroke-width:1; fill:#ffffff; fill-opacity:0%"></rect>
    </g>
    <image x="18.64" y="1.684" width="33.64" height="24.684" id="oid9" xlink:role="owned" xlink:href="meetings_9.png"></image>
  </symbol>
  <symbol id="oid7" xml:space="preserve" class="METIS_SYMBOL">
   <title>CopyOfMeeting-alt1</title>
    <rect x="0" y="0" width="192" height="224" rx="10" ry="10"
     style=" stroke:#000000; stroke-width:1; fill:#dcdcdc; fill-opacity:100%"     class="TAG:main"></rect>
    <polyline points="0 176 88 176 192 176"
     style=" stroke:#000000; stroke-width:1;"></polyline>
    <polyline points="0 28 88 28 128 28 
     192 28"
     style=" stroke:#000000; stroke-width:1;"></polyline>
    <g>
      <desc>METIS_TEXT_GROUP</desc>
      <text  x="0" y="94"
       style=" stroke:#000000; stroke-width:1; font-family:sans-serif; font-size:40; text-align:center"
       class="TAG:text"></text>
      <rect x="0" y="56" width="192" height="115.173"
       style=" stroke:#000000; stroke-width:1; fill:#ffffff; fill-opacity:0%"></rect>
    </g>
    <g>
      <desc>METIS_TEXT_GROUP</desc>
      <text  x="160" y="62"
       style=" stroke:#000000; stroke-width:1; font-family:monospace; font-weight:bold; font-size:64; text-align:center"
       class="TAG:delayed">!</text>
      <rect x="160" y="0" width="32" height="144"
       style=" stroke:#000000; stroke-width:1; fill:#ffffff; fill-opacity:0%"></rect>
    </g>
    <image x="19" y="13" width="60" height="44" id="oid7" xlink:role="owned" xlink:href="meeting_7.png"></image>
  </symbol>
 </defs>
</svg>
