<?xml version="1.0"?>
<?metis version="3.1"?>
<?metisxml version="1.0"?>
<!DOCTYPE svg  PUBLIC "-//W3C//DTD SVG August 1999//EN"
 "http://www.w3.org/Graphics/SVG/svg-19990812.dtd">

<svg width="200" height="200">
 <title>Symbol library: message.svg</title>
 <defs>
  <symbol id="oid0" xml:space="preserve" class="METIS_SYMBOL">
   <title>Message</title>
    <g>
      <polygon points="-3.55271e-015 0 -3.55271e-015 303.158 16.2963 320 
       880 319.737 880 21.3158 863.704 0 -3.55271e-015 0 
       -3.55271e-015 0 -3.55271e-015 0 "
       style=" stroke:#000000; stroke-width:1; fill:#9b9b9b; fill-opacity:100%"       class="TAG:shadow"></polygon>
      <rect x="-3.55271e-015" y="0" width="243" height="304"
       style=" stroke:#000000; stroke-width:1; fill:#ffffff; fill-opacity:100%"       class="TAG:PictureBackground"></rect>
      <rect x="243" y="0" width="621" height="304"
       style=" stroke:#000000; stroke-width:1; fill:#b9b9b9; fill-opacity:100%"       class="TAG:canvas"></rect>
      <rect x="250.813" y="25.3125" width="582.187" height="227.813"
       style="stroke:none; fill:#878787; fill-opacity:0%"       class="TAG:grid"></rect>
      <g>
	<desc>METIS_TEXT_GROUP</desc>
	<text  x="255.876" y="15.8"
	 style=" stroke:#000000; stroke-width:1; font-family:sans-serif; font-size:16;"
	 class="TAG:text">text</text>
	<rect x="255.876" y="0" width="608.124" height="304"
	 style=" stroke:#000000; stroke-width:1; fill:#ffffff; fill-opacity:0%"></rect>
      </g>
      <polyline points="864 304 880 320"
       style=" stroke:#000000; stroke-width:1;"></polyline>
      <g>
	<polyline points="80.2573 109.934 -3.55271e-015 109.934"
	 style=" stroke:#6e6e00; stroke-width:1;"	 class="TAG:MotionLines"></polyline>
	<polyline points="78.6308 159.166 5.96509 159.166"
	 style=" stroke:#6e6e00; stroke-width:1;"	 class="TAG:MotionLines"></polyline>
	<polyline points="80.6704 184.531 24.6039 184.531"
	 style=" stroke:#6e6e00; stroke-width:1;"	 class="TAG:MotionLines"></polyline>
	<polyline points="86.7647 135.014 19.522 135.014"
	 style=" stroke:#6e6e00; stroke-width:1;"	 class="TAG:MotionLines"></polyline>
	<rect x="96.5257" y="96" width="130.689" height="108"
	 style=" stroke:#6e6e00; stroke-width:1; fill:#ffffdc; fill-opacity:100%"	 class="TAG:Envelope"></rect>
	<polyline points="142.037 145.351 96.5257 196.848"
	 style=" stroke:#6e6e00; stroke-width:1;"	 class="TAG:EnvelopeLines"></polyline>
	<polyline points="182.121 143.921 227.215 195.417"
	 style=" stroke:#6e6e00; stroke-width:1;"	 class="TAG:EnvelopeLines"></polyline>
	<polygon points="96.5257 96 99.0311 112.451 161.661 156.795 
	 225.127 111.735 227.215 96 96.5257 96 96.5257 96 
	 96.5257 96 96.5257 96 96.5257 96 "
	 style=" stroke:#6e6e00; stroke-width:1; fill:#000000; fill-opacity:0%"	 class="TAG:EnvelopeLines"></polygon>
      </g>
    </g>
  </symbol>
 </defs>
</svg>
