<?xml version="1.0"?>
<?metis version="5.1"?>
<?metisxml version="1.2"?>
<!DOCTYPE svg  PUBLIC "-//W3C//DTD SVG 1.0//EN"
 "http://www.w3.org/TR/2001/REC-SVG-20010904/DTD/svg10.dtd">

<svg>
 <title>Symbol library: method.svg</title>
 <defs>
  <symbol id="_002as7v00pgf4i7g8g52" xml:space="preserve" class="METIS_SYMBOL">
   <title>Untitled</title>
    <g>
      <polygon points="589.147 261.904 562.569 286.821 544.85 236.987 
       527.132 187.153 553.709 170.542 580.288 212.07 589.147 261.904"
       style="stroke:none; fill:#1b1b1b; fill-opacity:100%"></polygon>
      <polyline points="589.147 261.904 562.569 286.821 544.85 236.987 
       527.132 187.153 553.709 170.542 580.288 212.07 589.147 261.904"
       style="stroke:none;"></polyline>
      <polygon points="604.649 271.318 575.581 291.991 565.891 302.326 
       594.961 271.318 604.649 271.318"
       style="stroke:none; fill:#1a1a1a; fill-opacity:100%"></polygon>
      <polygon points="472.868 74.935 447.951 100.775 406.423 66.322 
       356.589 49.095 381.506 23.256 431.339 49.095 472.868 74.935"
       style="stroke:none; fill:#1b1b1b; fill-opacity:100%"></polygon>
      <polyline points="472.868 74.935 447.951 100.775 406.423 66.322 
       356.589 49.095 381.506 23.256 431.339 49.095 472.868 74.935"
       style="stroke:none;"></polyline>
      <polygon points="379.845 17.442 348.837 46.512 348.837 36.822 
       379.845 7.752 379.845 17.442"
       style="stroke:none; fill:#1a1a1a; fill-opacity:100%"></polygon>
      <polygon points="558.139 170.542 532.559 188.261 472.868 232.558 
       498.45 205.979 558.139 170.542"
       style="stroke:none; fill:#1a1a1a; fill-opacity:100%"></polygon>
      <polygon points="429.263 121.447 403.101 147.286 446.705 95.607 
       472.868 69.767 429.263 121.447"
       style="stroke:none; fill:#1a1a1a; fill-opacity:100%"></polygon>
      <polygon points="503.876 201.55 474.806 232.558 465.116 232.558 
       503.876 201.55"
       style="stroke:none; fill:#1a1a1a; fill-opacity:100%"></polygon>
      <polygon points="503.876 201.55 465.116 232.558 465.116 222.222 
       494.186 201.55 503.876 201.55"
       style="stroke:none; fill:#1a1a1a; fill-opacity:100%"></polygon>
      <polygon points="496.124 208.01 470.754 224.806 403.101 149.225 
       428.47 124.031 496.124 208.01"
       style="stroke:none; fill:#1a1a1a; fill-opacity:100%"></polygon>
      <polygon points="434.109 125.969 403.101 155.039 403.101 145.349 
       434.109 116.279 434.109 125.969"
       style="stroke:none; fill:#1a1a1a; fill-opacity:100%"></polygon>
      <polygon points="434.109 124.031 403.101 155.039 434.109 124.031"
       style="stroke:none; fill:#1a1a1a; fill-opacity:100%"></polygon>
      <polygon points="589.147 255.814 563.953 286.822 488.372 286.822 
       521.964 266.15 589.147 255.814"
       style="stroke:none; fill:#796548; fill-opacity:100%"></polygon>
      <polygon points="596.899 271.318 571.705 302.326 496.124 302.326 
       521.318 271.318 596.899 271.318"
       style="stroke:none; fill:#1a1a1a; fill-opacity:100%"></polygon>
      <polygon points="527.132 263.566 488.372 286.822 517.442 263.566 
       527.132 263.566"
       style="stroke:none; fill:#796548; fill-opacity:100%"></polygon>
      <polygon points="377.907 98.837 348.837 124.031 358.527 48.449 
       387.597 23.256 377.907 98.837"
       style="stroke:none; fill:#796548; fill-opacity:100%"></polygon>
      <polygon points="519.38 263.566 488.372 294.574 488.372 284.238 
       519.38 263.566"
       style="stroke:none; fill:#1a1a1a; fill-opacity:100%"></polygon>
      <polygon points="361.24 91.085 333.333 116.279 351.938 40.698 
       379.845 15.504 361.24 91.085"
       style="stroke:none; fill:#1a1a1a; fill-opacity:100%"></polygon>
      <polygon points="379.845 93.023 341.085 124.031 350.775 124.031 
       379.845 93.023"
       style="stroke:none; fill:#796548; fill-opacity:100%"></polygon>
      <polygon points="379.845 93.023 341.085 124.031 370.155 93.023 
       379.845 93.023"
       style="stroke:none; fill:#1a1a1a; fill-opacity:100%"></polygon>
      <polygon points="519.38 362.791 480.62 387.597 490.31 288.372 
       519.38 263.566 519.38 362.791"
       style="stroke:none; fill:#1a1a1a; fill-opacity:100%"></polygon>
      <polygon points="589.147 382.946 555.555 410.853 488.372 392.248 
       513.566 364.341 589.147 382.946"
       style="stroke:none; fill:#1a1a1a; fill-opacity:100%"></polygon>
      <polygon points="519.38 364.341 490.31 395.349 480.62 395.349 
       519.38 364.341"
       style="stroke:none; fill:#1a1a1a; fill-opacity:100%"></polygon>
      <polygon points="519.38 366.279 480.62 395.349 480.62 385.659 
       519.38 356.589 519.38 366.279"
       style="stroke:none; fill:#1a1a1a; fill-opacity:100%"></polygon>
      <polygon points="372.093 94.961 347.287 124.031 248.062 114.341 
       272.868 85.271 372.093 94.961"
       style="stroke:none; fill:#1a1a1a; fill-opacity:100%"></polygon>
      <polygon points="279.07 83.333 241.86 108.527 232.558 32.946 
       269.767 7.752 279.07 83.333"
       style="stroke:none; fill:#1a1a1a; fill-opacity:100%"></polygon>
      <polygon points="279.07 87.209 240.31 116.279 240.31 106.589 
       279.07 77.519 279.07 87.209"
       style="stroke:none; fill:#1a1a1a; fill-opacity:100%"></polygon>
      <polygon points="279.07 85.271 250 116.279 240.31 116.279 
       279.07 85.271"
       style="stroke:none; fill:#1a1a1a; fill-opacity:100%"></polygon>
      <polygon points="418.604 308.785 394.419 333.333 386.357 284.238 
       362.17 251.507 329.922 226.959 289.612 210.594 281.551 210.594 
       249.302 218.777 217.054 235.142 241.24 210.594 273.489 194.229 
       305.736 186.046 313.798 186.046 354.108 202.411 386.357 226.959 
       410.543 267.873 418.604 308.785"
       style="stroke:none; fill:#7e694a; fill-opacity:100%"></polygon>
      <polyline points="418.604 308.785 394.419 333.333 386.357 284.238 
       362.17 251.507 329.922 226.959 289.612 210.594 281.551 210.594 
       249.302 218.777 217.054 235.142 241.24 210.594 273.489 194.229 
       305.736 186.046 313.798 186.046 354.108 202.411 386.357 226.959 
       410.543 267.873 418.604 308.785"
       style="stroke:none;"></polyline>
      <polygon points="418.604 308.785 394.419 333.333 386.357 284.238 
       362.17 251.507 329.922 226.959 289.612 210.594 281.551 210.594 
       249.302 218.777 217.054 235.142 241.24 210.594 273.489 194.229 
       305.736 186.046 313.798 186.046 354.108 202.411 386.357 226.959 
       410.543 267.873 418.604 308.785"
       style="stroke:none; fill:#7e694a; fill-opacity:100%"></polygon>
      <polyline points="418.604 308.785 394.419 333.333 386.357 284.238 
       362.17 251.507 329.922 226.959 289.612 210.594 281.551 210.594 
       249.302 218.777 217.054 235.142 241.24 210.594 273.489 194.229 
       305.736 186.046 313.798 186.046 354.108 202.411 386.357 226.959 
       410.543 267.873 418.604 308.785"
       style="stroke:none;"></polyline>
      <polygon points="546.08 471.207 511.628 496.124 537.467 454.595 
       554.694 404.762 589.147 379.845 571.921 429.678 546.08 471.207"
       style="stroke:none; fill:#1b1b1b; fill-opacity:100%"></polygon>
      <polyline points="546.08 471.207 511.628 496.124 537.467 454.595 
       554.694 404.762 589.147 379.845 571.921 429.678 546.08 471.207"
       style="stroke:none;"></polyline>
      <polygon points="418.604 308.785 394.419 333.333 386.357 284.238 
       362.17 251.507 329.922 226.959 289.612 210.594 281.551 210.594 
       249.302 218.777 217.054 235.142 241.24 210.594 273.489 194.229 
       305.736 186.046 313.798 186.046 354.108 202.411 386.357 226.959 
       410.543 267.873 418.604 308.785"
       style="stroke:none; fill:#7e694a; fill-opacity:100%"></polygon>
      <polyline points="418.604 308.785 394.419 333.333 386.357 284.238 
       362.17 251.507 329.922 226.959 289.612 210.594 281.551 210.594 
       249.302 218.777 217.054 235.142 241.24 210.594 273.489 194.229 
       305.736 186.046 313.798 186.046 354.108 202.411 386.357 226.959 
       410.543 267.873 418.604 308.785"
       style="stroke:none;"></polyline>
      <polygon points="418.604 308.785 394.419 333.333 386.357 284.238 
       362.17 251.507 329.922 226.959 289.612 210.594 281.551 210.594 
       249.302 218.777 217.054 235.142 241.24 210.594 273.489 194.229 
       305.736 186.046 313.798 186.046 354.108 202.411 386.357 226.959 
       410.543 267.873 418.604 308.785"
       style="stroke:none; fill:#7e694a; fill-opacity:100%"></polygon>
      <polyline points="418.604 308.785 394.419 333.333 386.357 284.238 
       362.17 251.507 329.922 226.959 289.612 210.594 281.551 210.594 
       249.302 218.777 217.054 235.142 241.24 210.594 273.489 194.229 
       305.736 186.046 313.798 186.046 354.108 202.411 386.357 226.959 
       410.543 267.873 418.604 308.785"
       style="stroke:none;"></polyline>
      <polygon points="550.388 480.62 521.318 511.628 511.628 501.292 
       540.697 480.62 550.388 480.62"
       style="stroke:none; fill:#1a1a1a; fill-opacity:100%"></polygon>
      <polygon points="271.318 7.752 238.243 34.884 188.63 43.929 
       147.287 62.016 172.092 43.929 221.705 16.796 271.318 7.752"
       style="stroke:none; fill:#1b1b1b; fill-opacity:100%"></polygon>
      <polyline points="271.318 7.752 238.243 34.884 188.63 43.929 
       147.287 62.016 172.092 43.929 221.705 16.796 271.318 7.752"
       style="stroke:none;"></polyline>
      <polygon points="550.387 470.284 516.279 496.123 465.116 444.444 
       490.698 418.604 550.387 470.284"
       style="stroke:none; fill:#796548; fill-opacity:100%"></polygon>
      <polygon points="496.124 418.604 467.054 449.612 457.364 449.612 
       496.124 418.604"
       style="stroke:none; fill:#796548; fill-opacity:100%"></polygon>
      <polygon points="375 377.906 348.837 403.1 375 369.508 
       392.442 327.519 418.604 302.325 409.884 344.315 375 377.906"
       style="stroke:none; fill:#7e694a; fill-opacity:100%"></polygon>
      <polyline points="375 377.906 348.837 403.1 375 369.508 
       392.442 327.519 418.604 302.325 409.884 344.315 375 377.906"
       style="stroke:none;"></polyline>
      <polygon points="486.434 418.604 457.364 449.612 496.124 418.604 
       486.434 418.604"
       style="stroke:none; fill:#1a1a1a; fill-opacity:100%"></polygon>
      <polygon points="217.054 98.45 190.891 124.031 147.287 55.813 
       173.449 38.76 217.054 98.45"
       style="stroke:none; fill:#796548; fill-opacity:100%"></polygon>
      <polygon points="217.054 102.713 186.046 131.783 186.046 122.093 
       217.054 93.023 217.054 102.713"
       style="stroke:none; fill:#796548; fill-opacity:100%"></polygon>
      <polygon points="162.791 41.344 131.783 62.016 162.791 31.008 
       162.791 41.344"
       style="stroke:none; fill:#1a1a1a; fill-opacity:100%"></polygon>
      <polygon points="375 377.906 348.837 403.1 375 369.508 
       392.442 327.519 418.604 302.325 409.884 344.315 375 377.906"
       style="stroke:none; fill:#7e694a; fill-opacity:100%"></polygon>
      <polyline points="375 377.906 348.837 403.1 375 369.508 
       392.442 327.519 418.604 302.325 409.884 344.315 375 377.906"
       style="stroke:none;"></polyline>
      <polygon points="542.635 486.434 517.055 503.875 457.364 451.55 
       491.473 434.108 542.635 486.434"
       style="stroke:none; fill:#1a1a1a; fill-opacity:100%"></polygon>
      <polygon points="217.054 100.775 186.046 131.783 217.054 100.775"
       style="stroke:none; fill:#796548; fill-opacity:100%"></polygon>
      <polygon points="201.55 106.977 175.387 124.031 131.783 55.813 
       157.946 38.76 201.55 106.977"
       style="stroke:none; fill:#1a1a1a; fill-opacity:100%"></polygon>
      <polygon points="418.604 308.785 394.419 333.333 386.357 284.238 
       362.17 251.507 329.922 226.959 289.612 210.594 281.551 210.594 
       249.302 218.777 217.054 235.142 241.24 210.594 273.489 194.229 
       305.736 186.046 313.798 186.046 354.108 202.411 386.357 226.959 
       410.543 267.873 418.604 308.785"
       style="stroke:none; fill:#7e694a; fill-opacity:100%"></polygon>
      <polyline points="418.604 308.785 394.419 333.333 386.357 284.238 
       362.17 251.507 329.922 226.959 289.612 210.594 281.551 210.594 
       249.302 218.777 217.054 235.142 241.24 210.594 273.489 194.229 
       305.736 186.046 313.798 186.046 354.108 202.411 386.357 226.959 
       410.543 267.873 418.604 308.785"
       style="stroke:none;"></polyline>
      <polygon points="403.101 309.043 378.788 325.581 370.684 292.507 
       354.475 259.432 322.057 234.625 289.64 218.088 281.537 218.088 
       249.119 226.356 224.806 242.894 249.119 218.088 273.432 201.55 
       305.849 201.55 313.953 201.55 354.475 209.819 378.788 234.625 
       403.101 267.7 403.101 309.043"
       style="stroke:none; fill:#1b1b1b; fill-opacity:100%"></polygon>
      <polyline points="403.101 309.043 378.788 325.581 370.684 292.507 
       354.475 259.432 322.057 234.625 289.64 218.088 281.537 218.088 
       249.119 226.356 224.806 242.894 249.119 218.088 273.432 201.55 
       305.849 201.55 313.953 201.55 354.475 209.819 378.788 234.625 
       403.101 267.7 403.101 309.043"
       style="stroke:none;"></polyline>
      <polygon points="376.522 370.542 341.085 387.596 367.663 362.015 
       376.522 319.379 403.101 302.325 394.241 336.434 376.522 370.542"
       style="stroke:none; fill:#1b1b1b; fill-opacity:100%"></polygon>
      <polyline points="376.522 370.542 341.085 387.596 367.663 362.015 
       376.522 319.379 403.101 302.325 394.241 336.434 376.522 370.542"
       style="stroke:none;"></polyline>
      <polygon points="375 377.906 348.837 403.1 375 369.508 
       392.442 327.519 418.604 302.325 409.884 344.315 375 377.906"
       style="stroke:none; fill:#7e694a; fill-opacity:100%"></polygon>
      <polyline points="375 377.906 348.837 403.1 375 369.508 
       392.442 327.519 418.604 302.325 409.884 344.315 375 377.906"
       style="stroke:none;"></polyline>
      <polygon points="412.79 486.821 387.597 503.875 463.178 444.185 
       488.372 418.604 412.79 486.821"
       style="stroke:none; fill:#1a1a1a; fill-opacity:100%"></polygon>
      <polygon points="142.354 152.455 108.527 178.294 176.18 118.002 
       201.55 100.775 142.354 152.455"
       style="stroke:none; fill:#1a1a1a; fill-opacity:100%"></polygon>
      <polygon points="418.605 480.62 387.597 511.628 387.597 501.292 
       418.605 480.62"
       style="stroke:none; fill:#1a1a1a; fill-opacity:100%"></polygon>
      <polygon points="418.605 490.956 387.597 511.628 418.605 480.62 
       418.605 490.956"
       style="stroke:none; fill:#1a1a1a; fill-opacity:100%"></polygon>
      <polygon points="141.473 168.993 116.279 186.046 191.86 126.357 
       217.054 100.775 141.473 168.993"
       style="stroke:none; fill:#796548; fill-opacity:100%"></polygon>
      <polygon points="472.868 550.387 443.798 571.059 434.108 581.395 
       463.178 550.387 472.868 550.387"
       style="stroke:none; fill:#1a1a1a; fill-opacity:100%"></polygon>
      <polygon points="147.287 162.791 108.527 193.799 118.217 183.462 
       147.287 162.791"
       style="stroke:none; fill:#796548; fill-opacity:100%"></polygon>
      <polygon points="147.287 162.791 108.527 193.799 108.527 183.462 
       137.597 162.791 147.287 162.791"
       style="stroke:none; fill:#1a1a1a; fill-opacity:100%"></polygon>
      <polygon points="457.364 548.062 431.201 573.643 387.597 505.426 
       413.759 488.372 457.364 548.062"
       style="stroke:none; fill:#1a1a1a; fill-opacity:100%"></polygon>
      <polygon points="85.271 100.775 46.511 131.783 56.201 121.447 
       85.271 100.775"
       style="stroke:none; fill:#1a1a1a; fill-opacity:100%"></polygon>
      <polygon points="139.534 168.605 113.953 186.046 54.263 133.721 
       79.844 116.279 139.534 168.605"
       style="stroke:none; fill:#1a1a1a; fill-opacity:100%"></polygon>
      <polygon points="386.404 226.241 410.555 266.437 418.604 306.631 
       410.555 346.826 386.404 370.944 354.204 395.061 322.003 403.1 
       305.903 403.1 265.653 387.022 233.452 362.905 217.352 322.709 
       209.302 282.515 217.352 242.32 241.503 210.163 273.703 194.085 
       305.903 186.046 313.953 186.046 354.204 202.124 386.404 226.241"
       style="stroke:none; fill:#313131; fill-opacity:100%"></polygon>
      <polygon points="364.341 506.46 325.581 527.132 364.341 496.124 
       364.341 506.46"
       style="stroke:none; fill:#796548; fill-opacity:100%"></polygon>
      <polygon points="364.341 496.124 325.581 527.132 354.651 496.124 
       364.341 496.124"
       style="stroke:none; fill:#796548; fill-opacity:100%"></polygon>
      <polygon points="124.031 217.054 85.271 248.062 114.341 217.054 
       124.031 217.054"
       style="stroke:none; fill:#796548; fill-opacity:100%"></polygon>
      <polygon points="124.031 227.39 85.271 248.062 124.031 217.054 
       124.031 227.39"
       style="stroke:none; fill:#796548; fill-opacity:100%"></polygon>
      <polygon points="372.093 579.986 334.883 596.899 325.581 520.789 
       362.79 503.876 372.093 579.986"
       style="stroke:none; fill:#796548; fill-opacity:100%"></polygon>
      <polygon points="457.364 542.636 432.558 569.767 382.946 587.855 
       333.333 596.899 366.408 578.811 416.02 560.723 457.364 542.636"
       style="stroke:none; fill:#7e694a; fill-opacity:100%"></polygon>
      <polyline points="457.364 542.636 432.558 569.767 382.946 587.855 
       333.333 596.899 366.408 578.811 416.02 560.723 457.364 542.636"
       style="stroke:none;"></polyline>
      <polygon points="116.279 220.155 91.085 248.062 15.504 220.155 
       40.697 201.55 116.279 220.155"
       style="stroke:none; fill:#796548; fill-opacity:100%"></polygon>
      <polygon points="41.666 208.109 15.504 224.806 32.946 183.064 
       59.108 132.976 85.271 116.279 59.108 158.021 41.666 208.109"
       style="stroke:none; fill:#7e694a; fill-opacity:100%"></polygon>
      <polyline points="41.666 208.109 15.504 224.806 32.946 183.064 
       59.108 132.976 85.271 116.279 59.108 158.021 41.666 208.109"
       style="stroke:none;"></polyline>
      <polygon points="465.116 550.387 440.406 576.965 390.989 603.544 
       333.333 612.403 358.043 585.825 415.697 576.965 465.116 550.387"
       style="stroke:none; fill:#1b1b1b; fill-opacity:100%"></polygon>
      <polyline points="465.116 550.387 440.406 576.965 390.989 603.544 
       333.333 612.403 358.043 585.825 415.697 576.965 465.116 550.387"
       style="stroke:none;"></polyline>
      <polygon points="356.589 587.855 327.519 604.651 317.829 529.07 
       346.899 503.876 356.589 587.855"
       style="stroke:none; fill:#1a1a1a; fill-opacity:100%"></polygon>
      <polygon points="364.341 581.395 335.271 612.403 325.581 612.403 
       354.651 581.395 364.341 581.395"
       style="stroke:none; fill:#1a1a1a; fill-opacity:100%"></polygon>
      <polygon points="356.589 581.395 325.581 612.403 325.581 602.067 
       356.589 581.395"
       style="stroke:none; fill:#1a1a1a; fill-opacity:100%"></polygon>
      <polygon points="34.109 207.848 0 232.558 25.582 174.902 
       51.162 125.485 85.271 100.775 51.162 150.194 34.109 207.848"
       style="stroke:none; fill:#1b1b1b; fill-opacity:100%"></polygon>
      <polyline points="34.109 207.848 0 232.558 25.582 174.902 
       51.162 125.485 85.271 100.775 51.162 150.194 34.109 207.848"
       style="stroke:none;"></polyline>
      <polygon points="108.527 227.907 83.333 255.814 7.752 237.209 
       32.946 209.302 108.527 227.907"
       style="stroke:none; fill:#1a1a1a; fill-opacity:100%"></polygon>
      <polygon points="38.76 209.302 9.69 240.31 0 229.974 
       29.07 209.302 38.76 209.302"
       style="stroke:none; fill:#1a1a1a; fill-opacity:100%"></polygon>
      <polygon points="29.07 211.886 0 232.558 38.76 201.55 
       29.07 211.886"
       style="stroke:none; fill:#1a1a1a; fill-opacity:100%"></polygon>
      <polygon points="356.589 498.062 331.783 527.132 232.558 507.752 
       257.364 488.372 356.589 498.062"
       style="stroke:none; fill:#796548; fill-opacity:100%"></polygon>
      <polygon points="263.566 488.372 234.496 511.628 224.806 511.628 
       263.566 488.372"
       style="stroke:none; fill:#796548; fill-opacity:100%"></polygon>
      <polygon points="348.837 505.814 323.92 534.884 232.558 525.194 
       265.781 496.124 348.837 505.814"
       style="stroke:none; fill:#1a1a1a; fill-opacity:100%"></polygon>
      <polygon points="114.341 324.474 85.271 341.085 85.271 241.417 
       124.031 224.806 114.341 324.474"
       style="stroke:none; fill:#796548; fill-opacity:100%"></polygon>
      <polygon points="253.876 488.372 224.806 519.38 224.806 509.044 
       263.566 488.372 253.876 488.372"
       style="stroke:none; fill:#1a1a1a; fill-opacity:100%"></polygon>
      <polygon points="116.279 317.829 85.271 348.837 85.271 338.501 
       116.279 317.829"
       style="stroke:none; fill:#796548; fill-opacity:100%"></polygon>
      <polygon points="108.527 316.168 77.519 341.085 77.519 249.723 
       108.527 224.806 108.527 316.168"
       style="stroke:none; fill:#1a1a1a; fill-opacity:100%"></polygon>
      <polygon points="116.279 317.829 87.209 348.837 77.519 348.837 
       116.279 317.829"
       style="stroke:none; fill:#1a1a1a; fill-opacity:100%"></polygon>
      <polygon points="209.302 443.798 170.542 472.868 170.542 463.178 
       199.612 434.108 209.302 443.798"
       style="stroke:none; fill:#796548; fill-opacity:100%"></polygon>
      <polygon points="201.55 439.922 176.18 465.116 108.527 389.535 
       133.897 364.341 201.55 439.922"
       style="stroke:none; fill:#796548; fill-opacity:100%"></polygon>
      <polygon points="139.535 364.341 110.465 395.349 100.775 385.013 
       139.535 364.341"
       style="stroke:none; fill:#796548; fill-opacity:100%"></polygon>
      <polygon points="199.612 441.86 170.542 472.868 209.302 441.86 
       199.612 441.86"
       style="stroke:none; fill:#796548; fill-opacity:100%"></polygon>
      <polygon points="139.535 364.341 100.775 385.013 100.775 395.349 
       129.845 364.341 139.535 364.341"
       style="stroke:none; fill:#796548; fill-opacity:100%"></polygon>
      <polygon points="193.798 447.674 159.972 472.868 100.775 397.287 
       126.145 372.093 193.798 447.674"
       style="stroke:none; fill:#1a1a1a; fill-opacity:100%"></polygon>
      <polygon points="246.511 563.953 209.302 589.147 227.907 513.566 
       255.814 488.372 246.511 563.953"
       style="stroke:none; fill:#1a1a1a; fill-opacity:100%"></polygon>
      <polygon points="255.814 573.643 226.744 604.651 217.054 594.315 
       246.124 573.643 255.814 573.643"
       style="stroke:none; fill:#1a1a1a; fill-opacity:100%"></polygon>
      <polygon points="116.279 317.829 82.886 348.837 7.752 348.837 
       32.797 328.165 116.279 317.829"
       style="stroke:none; fill:#1a1a1a; fill-opacity:100%"></polygon>
      <polygon points="31.008 319.767 0 348.837 0 339.147 
       31.008 310.077 31.008 319.767"
       style="stroke:none; fill:#1a1a1a; fill-opacity:100%"></polygon>
      <polygon points="69.768 409.064 43.189 434.108 25.471 392.368 
       7.752 342.278 34.331 325.581 52.048 367.323 69.768 409.064"
       style="stroke:none; fill:#7e694a; fill-opacity:100%"></polygon>
      <polyline points="69.768 409.064 43.189 434.108 25.471 392.368 
       7.752 342.278 34.331 325.581 52.048 367.323 69.768 409.064"
       style="stroke:none;"></polyline>
      <polygon points="131.782 364.341 106.412 390.504 38.759 434.108 
       64.129 407.946 131.782 364.341"
       style="stroke:none; fill:#796548; fill-opacity:100%"></polygon>
      <polygon points="150.388 509.514 116.279 534.883 175.969 467.23 
       201.55 441.86 150.388 509.514"
       style="stroke:none; fill:#796548; fill-opacity:100%"></polygon>
      <polygon points="248.062 563.566 215.116 589.147 165.697 563.566 
       116.279 529.457 149.225 503.876 190.406 537.984 248.062 563.566"
       style="stroke:none; fill:#7e694a; fill-opacity:100%"></polygon>
      <polyline points="248.062 563.566 215.116 589.147 165.697 563.566 
       116.279 529.457 149.225 503.876 190.406 537.984 248.062 563.566"
       style="stroke:none;"></polyline>
      <polygon points="596.794 274.936 526.084 274.936 526.084 361.343 
       596.794 377.054 596.794 384.91 581.081 439.896 549.654 487.028 
       541.797 487.028 494.657 439.896 431.803 494.884 471.087 549.871 
       471.087 557.726 463.23 557.726 416.09 581.292 361.094 589.147 
       353.237 589.147 345.38 510.594 266.813 502.739 251.1 573.436 
       251.1 581.292 243.243 581.292 188.246 557.726 133.25 518.449 
       125.393 510.594 133.25 510.594 188.246 447.751 125.393 377.054 
       62.539 424.185 54.682 424.185 54.682 416.331 31.113 369.199 
       23.256 322.067 23.256 314.211 31.113 314.211 101.823 314.211 
       101.823 227.803 31.113 212.093 23.256 212.093 31.113 204.237 
       46.825 149.251 78.252 102.119 86.109 102.119 141.106 149.251 
       196.103 102.119 156.82 39.277 156.82 31.421 164.676 31.421 
       211.816 7.855 266.813 0 274.67 0 282.527 78.553 
       361.094 86.408 376.807 15.711 376.807 7.855 384.664 7.855 
       439.66 31.421 486.801 62.842 494.657 70.697 486.801 78.553 
       447.517 125.685 502.514 188.527 557.51 157.106 565.367 157.106 
       588.937 212.093 604.649 267.08 604.649 274.936 596.794 274.936"
       style="stroke:none; fill:#313131; fill-opacity:100%"></polygon>
      <polygon points="518.398 267.07 526.259 267.07 589.148 259.212 
       581.287 212.063 557.703 172.772 502.676 204.205 494.815 204.205 
       431.925 125.624 431.925 117.766 471.231 70.617 431.925 47.042 
       384.759 23.468 376.898 94.191 369.036 94.191 274.703 86.333 
       274.703 78.475 266.842 7.752 219.675 15.61 172.508 39.185 
       211.814 94.191 211.814 102.049 141.064 164.915 133.203 164.915 
       78.174 117.766 54.591 157.057 38.868 204.205 109.619 219.921 
       117.48 219.921 117.48 227.779 109.619 322.077 31.008 329.935 
       46.729 369.226 62.452 408.517 125.341 369.226 133.203 369.226 
       196.091 439.948 203.952 447.807 196.091 447.807 148.925 510.672 
       188.23 542.104 243.258 565.679 251.12 494.956 258.981 494.956 
       353.314 502.814 361.175 502.814 361.175 510.672 369.036 581.395 
       416.203 565.679 455.509 549.963 416.203 494.956 416.203 487.098 
       486.953 424.232 494.815 424.232 549.842 471.381 573.426 432.09 
       589.148 384.942 518.398 369.226 518.398 361.368 518.398 267.07"
       style="stroke:none; fill:#e8c289; fill-opacity:100%"></polygon>
      <polyline points="518.398 267.07 526.259 267.07 589.148 259.212 
       581.287 212.063 557.703 172.772 502.676 204.205 494.815 204.205 
       431.925 125.624 431.925 117.766 471.231 70.617 431.925 47.042 
       384.759 23.468 376.898 94.191 369.036 94.191 274.703 86.333 
       274.703 78.475 266.842 7.752 219.675 15.61 172.508 39.185 
       211.814 94.191 211.814 102.049 141.064 164.915 133.203 164.915 
       78.174 117.766 54.591 157.057 38.868 204.205 109.619 219.921 
       117.48 219.921 117.48 227.779 109.619 322.077 31.008 329.935 
       46.729 369.226 62.452 408.517 125.341 369.226 133.203 369.226 
       196.091 439.948 203.952 447.807 196.091 447.807 148.925 510.672 
       188.23 542.104 243.258 565.679 251.12 494.956 258.981 494.956 
       353.314 502.814 361.175 502.814 361.175 510.672 369.036 581.395 
       416.203 565.679 455.509 549.963 416.203 494.956 416.203 487.098 
       486.953 424.232 494.815 424.232 549.842 471.381 573.426 432.09 
       589.148 384.942 518.398 369.226 518.398 361.368 518.398 267.07"
       style="stroke:none;"></polyline>
      <polygon points="418.604 306.631 410.555 266.437 386.404 226.241 
       354.204 202.124 313.953 186.046 305.903 186.046 273.703 194.085 
       241.503 210.163 217.352 242.32 209.302 282.515 217.352 322.709 
       233.452 362.905 265.653 387.022 305.903 403.1 322.003 403.1 
       354.204 395.061 386.404 370.944 410.555 346.826 418.604 306.631"
       style="stroke:none; fill:#1b1b1b; fill-opacity:100%"></polygon>
      <polyline points="418.604 306.631 410.555 266.437 386.404 226.241 
       354.204 202.124 313.953 186.046 305.903 186.046 273.703 194.085 
       241.503 210.163 217.352 242.32 209.302 282.515 217.352 322.709 
       233.452 362.905 265.653 387.022 305.903 403.1 322.003 403.1 
       354.204 395.061 386.404 370.944 410.555 346.826 418.604 306.631"
       style="stroke:none;"></polyline>
      <polygon points="131.782 372.093 106.412 394.558 38.759 432 
       64.129 417.023 131.782 372.093"
       style="stroke:none; fill:#1a1a1a; fill-opacity:100%"></polygon>
      <polygon points="134.109 509.514 108.527 534.883 159.69 467.23 
       193.798 441.86 134.109 509.514"
       style="stroke:none; fill:#1a1a1a; fill-opacity:100%"></polygon>
      <polygon points="62.015 417.055 35.438 441.86 8.86 392.248 
       0 342.635 26.579 317.829 35.438 367.442 62.015 417.055"
       style="stroke:none; fill:#1b1b1b; fill-opacity:100%"></polygon>
      <polyline points="62.015 417.055 35.438 441.86 8.86 392.248 
       0 342.635 26.579 317.829 35.438 367.442 62.015 417.055"
       style="stroke:none;"></polyline>
      <polygon points="69.768 418.604 40.697 439.276 31.008 449.612 
       60.077 418.604 69.768 418.604"
       style="stroke:none; fill:#1a1a1a; fill-opacity:100%"></polygon>
      <polygon points="62.016 420.139 32 448 32 438.712 
       62.016 410.853 62.016 420.139"
       style="stroke:none; fill:#1a1a1a; fill-opacity:100%"></polygon>
      <polygon points="248.062 579.845 223.438 596.899 157.775 571.318 
       108.527 537.209 133.151 511.628 190.606 554.263 248.062 579.845"
       style="stroke:none; fill:#1b1b1b; fill-opacity:100%"></polygon>
      <polyline points="248.062 579.845 223.438 596.899 157.775 571.318 
       108.527 537.209 133.151 511.628 190.606 554.263 248.062 579.845"
       style="stroke:none;"></polyline>
      <polygon points="139.535 513.566 110.465 542.636 100.775 532.946 
       129.845 503.876 139.535 513.566"
       style="stroke:none; fill:#1a1a1a; fill-opacity:100%"></polygon>
      <polygon points="129.845 503.876 100.775 534.884 110.465 534.884 
       139.535 503.876 129.845 503.876"
       style="stroke:none; fill:#1a1a1a; fill-opacity:100%"></polygon>
    </g>
  </symbol>
 </defs>
 <use xlink:href="#_002as7v00pgf4i7g8g52"/>
</svg>
