<?xml version="1.0"?>
<?metis version="3.4"?>
<?metisxml version="1.1"?>
<!DOCTYPE svg  PUBLIC "-//W3C//DTD SVG August 1999//EN"
 "http://www.w3.org/Graphics/SVG/svg-19990812.dtd">



<!--
Troux Technologies, Inc. Confidential and Proprietary.
This work contains valuable confidential, proprietary and trade secret
information of Troux Technologies, Inc. and is protected by the laws of 
the United States and other countries. Any disclosure, use or reproduction
of this work without the prior written authorization of Troux Technologies, Inc.
is strictly prohibited.
Copyright (C) 2000-2006 Troux Technologies, Inc. All rights reserved.
-->


<svg
 width="200" height="200">
 <title>Symbol library: microsoft_media_player.svg</title>
 <defs>
  <symbol id="oid1" xml:space="preserve" class="METIS_SYMBOL">
   <title>Microsoft Media Player Application</title>
    <ellipse  cx="15.5568" cy="14.9992" rx="14.5" ry="14"
     style=" stroke:#000000; stroke-width:1; fill:#b9b9b9; fill-opacity:100%"></ellipse>
    <path d="M 29.0302 14 C 29.0302 9 26.5854 5.5552 
     25.0302 4 C 22.9566 1.9264 19.5302 0 14.5302 0 
     C 14.5302 0 14.5302 5 14.5302 14 C 14.5302 14 
     15.0302 14 15.0302 14 Z"
     style=" stroke:#00dc00; stroke-width:1; fill:#00dc00; fill-opacity:100%"></path>
    <path d="M 29.0568 13.9992 C 29.0568 18.9992 26.612 22.444 
     25.0568 23.9992 C 22.9832 26.0728 19.5568 27.9992 14.5568 27.9992 
     C 14.5568 27.9992 14.5568 22.9992 14.5568 13.9992 C 14.5568 13.9992 
     15.0568 13.9992 15.0568 13.9992 Z"
     style=" stroke:#ffff00; stroke-width:1; fill:#ffff00; fill-opacity:100%"></path>
    <path d="M 0.0567641 13.9992 C 0.0567641 18.9992 2.50154 22.444 
     4.05676 23.9992 C 6.13038 26.0728 9.55676 27.9992 14.5568 27.9992 
     C 14.5568 27.9992 14.5568 22.9992 14.5568 13.9992 C 14.5568 13.9992 
     14.0568 13.9992 14.0568 13.9992 Z"
     style=" stroke:#0000dc; stroke-width:1; fill:#0000dc; fill-opacity:100%"></path>
    <path d="M 0 14.0302 C 0 9.03018 2.44478 5.58538 
     4 4.03018 C 6.07362 1.95658 9.5 0.0301784 14.5 0.0301784 
     C 14.5 0.0301784 14.5 5.03018 14.5 14.0302 C 14.5 14.0302 
     14 14.0302 14 14.0302 Z"
     style=" stroke:#ff0000; stroke-width:1; fill:#ff0000; fill-opacity:100%"></path>
    <ellipse  cx="14.5568" cy="13.9992" rx="8" ry="8"
     style=" stroke:#ffffff; stroke-width:1; fill:#ffffff; fill-opacity:100%"></ellipse>
    <polygon points="11.0568 7.99918 11.0568 18.9992 21.5568 13.9992 
     11.0568 7.99918 11.0568 7.99918 11.0568 7.99918 11.0568 7.99918 
     11.0568 7.99918 11.0568 7.99918 11.0568 7.99918 "
     style=" stroke:#000000; stroke-width:1; fill:#000000; fill-opacity:100%"></polygon>
  </symbol>
 </defs>
</svg>
