<?xml version="1.0"?>
<?metis version="3.4.3"?>
<?metisxml version="1.1"?>
<!DOCTYPE svg  PUBLIC "-//W3C//DTD SVG August 1999//EN"
 "http://www.w3.org/Graphics/SVG/svg-19990812.dtd">



<!--
Troux Technologies, Inc. Confidential and Proprietary.
This work contains valuable confidential, proprietary and trade secret
information of Troux Technologies, Inc. and is protected by the laws of 
the United States and other countries. Any disclosure, use or reproduction
of this work without the prior written authorization of Troux Technologies, Inc.
is strictly prohibited.
Copyright (C) 2000-2006 Troux Technologies, Inc. All rights reserved.
-->


<svg
 width="200" height="200">
 <title>Symbol library: microsoft_excel.svg</title>
 <defs>
  <symbol id="oid4" xml:space="preserve" class="METIS_SYMBOL">
   <title>Micrsoft Excel Metis Shape With Text</title>
    <rect x="234.855" y="-1.06581e-014" width="624" height="304"
     style=" stroke:#000000; stroke-width:1; fill:#dcdcdc; fill-opacity:100%"     class="TAG:canvas"></rect>
    <rect x="240.212" y="25.7143" width="569.522" height="231.429"
     style="stroke:none; fill:#878787; fill-opacity:0%"></rect>
    <g>
      <desc>METIS_TEXT_GROUP</desc>
      <text  x="250.855" y="15"
       style=" stroke:#000000; stroke-width:1; font-family:sans-serif; font-size:16;"
       class="TAG:text">text</text>
      <rect x="250.855" y="-1.06581e-014" width="608" height="304"
       style=" stroke:#000000; stroke-width:1; fill:#ffffff; fill-opacity:0%"></rect>
    </g>
    <g>
      <g>
	<g>
	  <rect x="49.8909" y="42.4685" width="178.182" height="220.81"
	   style=" stroke:#dcdcdc; stroke-width:1; fill:#b9b9b9; fill-opacity:100%"></rect>
	  <rect x="57.0185" y="49.8288" width="156.8" height="198.729"
	   style=" stroke:#ffffff; stroke-width:1; fill:#ffffff; fill-opacity:100%"></rect>
	  <polygon points="171.055 42.4685 171.055 101.351 228.073 101.351 
	   171.055 42.4685 171.055 42.4685 171.055 42.4685 171.055 42.4685 
	   171.055 42.4685 171.055 42.4685 171.055 42.4685 171.055 42.4685 171.055 42.4685 "
	   style=" stroke:#696969; stroke-width:1; fill:#9b9b9b; fill-opacity:100%"></polygon>
	  <polygon points="228.073 101.351 228.073 42.4685 171.055 42.4685 
	   228.073 101.351 228.073 101.351 228.073 101.351 228.073 101.351 
	   228.073 101.351 228.073 101.351 228.073 101.351 228.073 101.351 228.073 101.351 "
	   style=" stroke:#ffffff; stroke-width:1; fill:#ffffff; fill-opacity:100%"></polygon>
	  <polygon points="171.055 42.4685 171.055 101.351 228.073 101.351 
	   220.946 93.9906 178.182 93.9906 178.182 49.8288 171.055 42.4685 
	   171.055 42.4685 171.055 42.4685 171.055 42.4685 171.055 42.4685 
	   171.055 42.4685 171.055 42.4685 171.055 42.4685 171.055 42.4685 "
	   style=" stroke:#ffffff; stroke-width:1; fill:#b9b9b9; fill-opacity:100%"></polygon>
	  <polygon points="228.073 101.351 228.073 263.278 49.8909 263.278 
	   49.8909 255.918 220.946 255.918 220.946 101.351 228.073 101.351 
	   228.073 101.351 228.073 101.351 228.073 101.351 228.073 101.351 
	   228.073 101.351 228.073 101.351 228.073 101.351 228.073 101.351 "
	   style=" stroke:#ffffff; stroke-width:1; fill:#000000; fill-opacity:100%"></polygon>
	  <polygon points="220.946 101.351 220.946 255.918 57.0185 255.918 
	   57.0185 248.558 213.819 248.558 213.819 101.351 220.946 101.351 
	   220.946 101.351 220.946 101.351 220.946 101.351 220.946 101.351 
	   220.946 101.351 220.946 101.351 220.946 101.351 220.946 101.351 "
	   style=" stroke:#ffffff; stroke-width:1; fill:#dcdcdc; fill-opacity:100%"></polygon>
	  <polygon points="178.182 57.1891 178.182 93.9906 213.819 93.9906 
	   178.182 57.1891 178.182 57.1891 178.182 57.1891 178.182 57.1891 
	   178.182 57.1891 178.182 57.1891 178.182 57.1891 178.182 57.1891 178.182 57.1891 "
	   style=" stroke:#ffffff; stroke-width:1; fill:#ffffff; fill-opacity:100%"></polygon>
	</g>
	<polygon points="149.673 97.6709 149.673 105.031 142.546 105.031 
	 142.546 112.391 156.8 112.391 156.8 119.752 149.673 119.752 
	 149.673 127.112 156.8 127.112 156.8 134.473 163.928 134.473 
	 163.928 127.112 178.182 127.112 178.182 119.752 171.055 119.752 
	 171.055 112.391 178.182 112.391 178.182 105.031 163.928 105.031 
	 163.928 97.6709 149.673 97.6709 149.673 97.6709 149.673 97.6709 
	 149.673 97.6709 149.673 97.6709 149.673 97.6709 149.673 97.6709 
	 149.673 97.6709 149.673 97.6709 "
	 style=" stroke:#ffffff; stroke-width:1; fill:#ffffff; fill-opacity:100%"></polygon>
	<polygon points="149.673 97.6709 149.673 105.031 142.546 105.031 
	 142.546 112.391 156.8 112.391 156.8 119.752 149.673 119.752 
	 149.673 127.112 156.8 127.112 156.8 134.473 163.928 134.473 
	 163.928 127.112 178.182 127.112 178.182 119.752 171.055 119.752 
	 171.055 112.391 178.182 112.391 178.182 105.031 163.928 105.031 
	 163.928 97.6709 149.673 97.6709 149.673 97.6709 149.673 97.6709 
	 149.673 97.6709 149.673 97.6709 149.673 97.6709 149.673 97.6709 
	 149.673 97.6709 149.673 97.6709 "
	 style=" stroke:#ffffff; stroke-width:1; fill:#ffffff; fill-opacity:100%"></polygon>
	<g>
	  <rect x="78.4002" y="160.234" width="114.037" height="7.36033"
	   style=" stroke:#b9b9b9; stroke-width:1; fill:#b9b9b9; fill-opacity:100%"></rect>
	  <rect x="78.4002" y="182.315" width="49.8909" height="7.36033"
	   style=" stroke:#b9b9b9; stroke-width:1; fill:#b9b9b9; fill-opacity:100%"></rect>
	  <rect x="149.673" y="93.9906" width="7.12729" height="80.9635"
	   style=" stroke:#b9b9b9; stroke-width:1; fill:#b9b9b9; fill-opacity:100%"></rect>
	  <rect x="78.4002" y="138.153" width="114.037" height="7.36033"
	   style=" stroke:#b9b9b9; stroke-width:1; fill:#b9b9b9; fill-opacity:100%"></rect>
	  <rect x="78.4002" y="116.072" width="114.037" height="7.36033"
	   style=" stroke:#b9b9b9; stroke-width:1; fill:#b9b9b9; fill-opacity:100%"></rect>
	  <rect x="78.4002" y="93.9906" width="114.037" height="7.36033"
	   style=" stroke:#b9b9b9; stroke-width:1; fill:#b9b9b9; fill-opacity:100%"></rect>
	  <rect x="78.4002" y="71.9098" width="114.037" height="7.36033"
	   style=" stroke:#b9b9b9; stroke-width:1; fill:#b9b9b9; fill-opacity:100%"></rect>
	  <rect x="185.31" y="93.9906" width="7.12729" height="73.6033"
	   style=" stroke:#b9b9b9; stroke-width:1; fill:#b9b9b9; fill-opacity:100%"></rect>
	  <rect x="114.037" y="97.6709" width="7.12729" height="136.166"
	   style=" stroke:#b9b9b9; stroke-width:1; fill:#b9b9b9; fill-opacity:100%"></rect>
	  <rect x="78.4002" y="93.9906" width="7.12729" height="139.846"
	   style=" stroke:#b9b9b9; stroke-width:1; fill:#b9b9b9; fill-opacity:100%"></rect>
	  <rect x="78.4002" y="204.396" width="49.8909" height="7.36033"
	   style=" stroke:#b9b9b9; stroke-width:1; fill:#b9b9b9; fill-opacity:100%"></rect>
	  <rect x="78.4002" y="226.477" width="121.164" height="7.36033"
	   style=" stroke:#b9b9b9; stroke-width:1; fill:#b9b9b9; fill-opacity:100%"></rect>
	  <rect x="156.8" y="197.035" width="14.2546" height="7.36033"
	   style=" stroke:#b9b9b9; stroke-width:1; fill:#b9b9b9; fill-opacity:100%"></rect>
	  <rect x="171.055" y="174.954" width="21.3819" height="51.5222"
	   style=" stroke:#b9b9b9; stroke-width:1; fill:#b9b9b9; fill-opacity:100%"></rect>
	  <rect x="135.419" y="182.315" width="21.3819" height="44.1619"
	   style=" stroke:#b9b9b9; stroke-width:1; fill:#b9b9b9; fill-opacity:100%"></rect>
	</g>
      </g>
      <g>
	<polygon points="1.42109e-014 64.5495 113.548 64.5495 113.548 181.738 
	 1.42109e-014 181.738 1.42109e-014 64.5495 1.42109e-014 64.5495 1.42109e-014 64.5495 
	 1.42109e-014 64.5495 1.42109e-014 64.5495 1.42109e-014 64.5495 1.42109e-014 64.5495 
	 1.42109e-014 64.5495 1.42109e-014 64.5495 1.42109e-014 64.5495 1.42109e-014 64.5495 "
	 style=" stroke:#000000; stroke-width:1; fill:#006e00; fill-opacity:100%"></polygon>
	<polygon points="12.1658 77.1055 101.382 77.1055 101.382 169.182 
	 12.1658 169.182 12.1658 77.1055 12.1658 77.1055 12.1658 77.1055 
	 12.1658 77.1055 12.1658 77.1055 12.1658 77.1055 12.1658 77.1055 
	 12.1658 77.1055 12.1658 77.1055 12.1658 77.1055 12.1658 77.1055 "
	 style=" stroke:#ffffff; stroke-width:1; fill:#ffffff; fill-opacity:100%"></polygon>
	<polygon points="20.2764 89.6614 48.6633 89.6614 101.382 152.441 
	 72.995 152.441 20.2764 89.6614 20.2764 89.6614 20.2764 89.6614 
	 20.2764 89.6614 20.2764 89.6614 20.2764 89.6614 20.2764 89.6614 
	 20.2764 89.6614 20.2764 89.6614 20.2764 89.6614 20.2764 89.6614 "
	 style=" stroke:#878787; stroke-width:1; fill:#006e00; fill-opacity:100%"></polygon>
	<polygon points="68.9397 89.6614 20.2764 148.256 89.2161 148.256 
	 97.3266 127.329 60.8291 127.329 97.3266 89.6614 68.9397 89.6614 
	 68.9397 89.6614 68.9397 89.6614 68.9397 89.6614 68.9397 89.6614 
	 68.9397 89.6614 68.9397 89.6614 68.9397 89.6614 68.9397 89.6614 
	 68.9397 89.6614 68.9397 89.6614 "
	 style=" stroke:#006e00; stroke-width:1; fill:#006e00; fill-opacity:100%"></polygon>
	<polygon points="28.3869 93.8466 77.0502 148.256 81.1055 148.256 
	 32.4422 93.8466 28.3869 93.8466 28.3869 93.8466 28.3869 93.8466 
	 28.3869 93.8466 28.3869 93.8466 28.3869 93.8466 28.3869 93.8466 
	 28.3869 93.8466 28.3869 93.8466 28.3869 93.8466 28.3869 93.8466 "
	 style=" stroke:#ffffff; stroke-width:1; fill:#ffffff; fill-opacity:100%"></polygon>
      </g>
    </g>
  </symbol>
  <symbol id="oid3" xml:space="preserve" class="METIS_SYMBOL">
   <title>Microsoft Excel Document With Windows Style Text</title>
    <g>
      <desc>METIS_TEXT_GROUP</desc>
      <text  x="1.42109e-014" y="84.2212"
       style=" stroke:#000000; stroke-width:1; font-family:sans-serif; font-size:10;"
       class="TAG:text">text</text>
      <rect x="1.42109e-014" y="75.2212" width="85.6454" height="29.7137"
       style=" stroke:#000000; stroke-width:1; fill:#dcdcdc; fill-opacity:0%"></rect>
    </g>
    <g>
      <g>
	<g>
	  <rect x="20.4278" y="-2.13163e-014" width="62.208" height="74.6496"
	   style=" stroke:#dcdcdc; stroke-width:1; fill:#b9b9b9; fill-opacity:100%"></rect>
	  <rect x="22.9162" y="2.48832" width="54.743" height="67.1846"
	   style=" stroke:#ffffff; stroke-width:1; fill:#ffffff; fill-opacity:100%"></rect>
	  <polygon points="62.7293 -2.13163e-014 62.7293 19.9066 82.6358 19.9066 
	   62.7293 -2.13163e-014 62.7293 -2.13163e-014 62.7293 -2.13163e-014 62.7293 -2.13163e-014 
	   62.7293 -2.13163e-014 62.7293 -2.13163e-014 62.7293 -2.13163e-014 62.7293 -2.13163e-014 62.7293 -2.13163e-014 "
	   style=" stroke:#696969; stroke-width:1; fill:#9b9b9b; fill-opacity:100%"></polygon>
	  <polygon points="82.6358 19.9066 82.6358 -2.13163e-014 62.7293 -2.13163e-014 
	   82.6358 19.9066 82.6358 19.9066 82.6358 19.9066 82.6358 19.9066 
	   82.6358 19.9066 82.6358 19.9066 82.6358 19.9066 82.6358 19.9066 82.6358 19.9066 "
	   style=" stroke:#ffffff; stroke-width:1; fill:#ffffff; fill-opacity:100%"></polygon>
	  <polygon points="62.7293 -2.13163e-014 62.7293 19.9066 82.6358 19.9066 
	   80.1475 17.4182 65.2176 17.4182 65.2176 2.48832 62.7293 -2.13163e-014 
	   62.7293 -2.13163e-014 62.7293 -2.13163e-014 62.7293 -2.13163e-014 62.7293 -2.13163e-014 
	   62.7293 -2.13163e-014 62.7293 -2.13163e-014 62.7293 -2.13163e-014 62.7293 -2.13163e-014 "
	   style=" stroke:#ffffff; stroke-width:1; fill:#b9b9b9; fill-opacity:100%"></polygon>
	  <polygon points="82.6358 19.9066 82.6358 74.6496 20.4278 74.6496 
	   20.4278 72.1613 80.1475 72.1613 80.1475 19.9066 82.6358 19.9066 
	   82.6358 19.9066 82.6358 19.9066 82.6358 19.9066 82.6358 19.9066 
	   82.6358 19.9066 82.6358 19.9066 82.6358 19.9066 82.6358 19.9066 "
	   style=" stroke:#ffffff; stroke-width:1; fill:#000000; fill-opacity:100%"></polygon>
	  <polygon points="80.1475 19.9066 80.1475 72.1613 22.9162 72.1613 
	   22.9162 69.673 77.6592 69.673 77.6592 19.9066 80.1475 19.9066 
	   80.1475 19.9066 80.1475 19.9066 80.1475 19.9066 80.1475 19.9066 
	   80.1475 19.9066 80.1475 19.9066 80.1475 19.9066 80.1475 19.9066 "
	   style=" stroke:#ffffff; stroke-width:1; fill:#dcdcdc; fill-opacity:100%"></polygon>
	  <polygon points="65.2176 4.97664 65.2176 17.4182 77.6592 17.4182 
	   65.2176 4.97664 65.2176 4.97664 65.2176 4.97664 65.2176 4.97664 
	   65.2176 4.97664 65.2176 4.97664 65.2176 4.97664 65.2176 4.97664 65.2176 4.97664 "
	   style=" stroke:#ffffff; stroke-width:1; fill:#ffffff; fill-opacity:100%"></polygon>
	</g>
	<polygon points="55.2643 18.6624 55.2643 21.1507 52.776 21.1507 
	 52.776 23.639 57.7526 23.639 57.7526 26.1274 55.2643 26.1274 
	 55.2643 28.6157 57.7526 28.6157 57.7526 31.104 60.241 31.104 
	 60.241 28.6157 65.2176 28.6157 65.2176 26.1274 62.7293 26.1274 
	 62.7293 23.639 65.2176 23.639 65.2176 21.1507 60.241 21.1507 
	 60.241 18.6624 55.2643 18.6624 55.2643 18.6624 55.2643 18.6624 
	 55.2643 18.6624 55.2643 18.6624 55.2643 18.6624 55.2643 18.6624 
	 55.2643 18.6624 55.2643 18.6624 "
	 style=" stroke:#ffffff; stroke-width:1; fill:#ffffff; fill-opacity:100%"></polygon>
	<polygon points="55.2643 18.6624 55.2643 21.1507 52.776 21.1507 
	 52.776 23.639 57.7526 23.639 57.7526 26.1274 55.2643 26.1274 
	 55.2643 28.6157 57.7526 28.6157 57.7526 31.104 60.241 31.104 
	 60.241 28.6157 65.2176 28.6157 65.2176 26.1274 62.7293 26.1274 
	 62.7293 23.639 65.2176 23.639 65.2176 21.1507 60.241 21.1507 
	 60.241 18.6624 55.2643 18.6624 55.2643 18.6624 55.2643 18.6624 
	 55.2643 18.6624 55.2643 18.6624 55.2643 18.6624 55.2643 18.6624 
	 55.2643 18.6624 55.2643 18.6624 "
	 style=" stroke:#ffffff; stroke-width:1; fill:#ffffff; fill-opacity:100%"></polygon>
	<g>
	  <rect x="30.3811" y="39.8131" width="39.8131" height="2.48832"
	   style=" stroke:#b9b9b9; stroke-width:1; fill:#b9b9b9; fill-opacity:100%"></rect>
	  <rect x="30.3811" y="47.2781" width="17.4182" height="2.48832"
	   style=" stroke:#b9b9b9; stroke-width:1; fill:#b9b9b9; fill-opacity:100%"></rect>
	  <rect x="55.2643" y="17.4182" width="2.48832" height="27.3715"
	   style=" stroke:#b9b9b9; stroke-width:1; fill:#b9b9b9; fill-opacity:100%"></rect>
	  <rect x="30.3811" y="32.3482" width="39.8131" height="2.48832"
	   style=" stroke:#b9b9b9; stroke-width:1; fill:#b9b9b9; fill-opacity:100%"></rect>
	  <rect x="30.3811" y="24.8832" width="39.8131" height="2.48832"
	   style=" stroke:#b9b9b9; stroke-width:1; fill:#b9b9b9; fill-opacity:100%"></rect>
	  <rect x="30.3811" y="17.4182" width="39.8131" height="2.48832"
	   style=" stroke:#b9b9b9; stroke-width:1; fill:#b9b9b9; fill-opacity:100%"></rect>
	  <rect x="30.3811" y="9.95328" width="39.8131" height="2.48832"
	   style=" stroke:#b9b9b9; stroke-width:1; fill:#b9b9b9; fill-opacity:100%"></rect>
	  <rect x="67.7059" y="17.4182" width="2.48832" height="24.8832"
	   style=" stroke:#b9b9b9; stroke-width:1; fill:#b9b9b9; fill-opacity:100%"></rect>
	  <rect x="42.8227" y="18.6624" width="2.48832" height="46.0339"
	   style=" stroke:#b9b9b9; stroke-width:1; fill:#b9b9b9; fill-opacity:100%"></rect>
	  <rect x="30.3811" y="17.4182" width="2.48832" height="47.2781"
	   style=" stroke:#b9b9b9; stroke-width:1; fill:#b9b9b9; fill-opacity:100%"></rect>
	  <rect x="30.3811" y="54.743" width="17.4182" height="2.48832"
	   style=" stroke:#b9b9b9; stroke-width:1; fill:#b9b9b9; fill-opacity:100%"></rect>
	  <rect x="30.3811" y="62.208" width="42.3014" height="2.48832"
	   style=" stroke:#b9b9b9; stroke-width:1; fill:#b9b9b9; fill-opacity:100%"></rect>
	  <rect x="57.7526" y="52.2547" width="4.97664" height="2.48832"
	   style=" stroke:#b9b9b9; stroke-width:1; fill:#b9b9b9; fill-opacity:100%"></rect>
	  <rect x="62.7293" y="44.7898" width="7.46496" height="17.4182"
	   style=" stroke:#b9b9b9; stroke-width:1; fill:#b9b9b9; fill-opacity:100%"></rect>
	  <rect x="50.2877" y="47.2781" width="7.46496" height="14.9299"
	   style=" stroke:#b9b9b9; stroke-width:1; fill:#b9b9b9; fill-opacity:100%"></rect>
	</g>
      </g>
      <g>
	<polygon points="3.0096 7.46496 42.6521 7.46496 42.6521 47.0831 
	 3.0096 47.0831 3.0096 7.46496 3.0096 7.46496 3.0096 7.46496 
	 3.0096 7.46496 3.0096 7.46496 3.0096 7.46496 3.0096 7.46496 
	 3.0096 7.46496 3.0096 7.46496 3.0096 7.46496 3.0096 7.46496 "
	 style=" stroke:#000000; stroke-width:1; fill:#006e00; fill-opacity:100%"></polygon>
	<polygon points="7.257 11.7098 38.4046 11.7098 38.4046 42.8383 
	 7.257 42.8383 7.257 11.7098 7.257 11.7098 7.257 11.7098 
	 7.257 11.7098 7.257 11.7098 7.257 11.7098 7.257 11.7098 
	 7.257 11.7098 7.257 11.7098 7.257 11.7098 7.257 11.7098 "
	 style=" stroke:#ffffff; stroke-width:1; fill:#ffffff; fill-opacity:100%"></polygon>
	<polygon points="10.0886 15.9546 19.9992 15.9546 38.4046 37.1786 
	 28.494 37.1786 10.0886 15.9546 10.0886 15.9546 10.0886 15.9546 
	 10.0886 15.9546 10.0886 15.9546 10.0886 15.9546 10.0886 15.9546 
	 10.0886 15.9546 10.0886 15.9546 10.0886 15.9546 10.0886 15.9546 "
	 style=" stroke:#878787; stroke-width:1; fill:#006e00; fill-opacity:100%"></polygon>
	<polygon points="27.0782 15.9546 10.0886 35.7637 34.1572 35.7637 
	 36.9888 28.689 24.2466 28.689 36.9888 15.9546 27.0782 15.9546 
	 27.0782 15.9546 27.0782 15.9546 27.0782 15.9546 27.0782 15.9546 
	 27.0782 15.9546 27.0782 15.9546 27.0782 15.9546 27.0782 15.9546 
	 27.0782 15.9546 27.0782 15.9546 "
	 style=" stroke:#006e00; stroke-width:1; fill:#006e00; fill-opacity:100%"></polygon>
	<polygon points="12.9202 17.3695 29.9098 35.7637 31.3256 35.7637 
	 14.336 17.3695 12.9202 17.3695 12.9202 17.3695 12.9202 17.3695 
	 12.9202 17.3695 12.9202 17.3695 12.9202 17.3695 12.9202 17.3695 
	 12.9202 17.3695 12.9202 17.3695 12.9202 17.3695 12.9202 17.3695 "
	 style=" stroke:#ffffff; stroke-width:1; fill:#ffffff; fill-opacity:100%"></polygon>
      </g>
    </g>
  </symbol>
  <symbol id="oid2" xml:space="preserve" class="METIS_SYMBOL">
   <title>Microsoft Excel Document</title>
    <g>
      <g>
	<g>
	  <rect x="7" y="-2.13163e-014" width="25" height="30"
	   style=" stroke:#dcdcdc; stroke-width:1; fill:#b9b9b9; fill-opacity:100%"></rect>
	  <rect x="8" y="1" width="22" height="27"
	   style=" stroke:#ffffff; stroke-width:1; fill:#ffffff; fill-opacity:100%"></rect>
	  <polygon points="24 -2.13163e-014 24 8 32 8 
	   24 -2.13163e-014 24 -2.13163e-014 24 -2.13163e-014 24 -2.13163e-014 
	   24 -2.13163e-014 24 -2.13163e-014 24 -2.13163e-014 24 -2.13163e-014 24 -2.13163e-014 "
	   style=" stroke:#696969; stroke-width:1; fill:#9b9b9b; fill-opacity:100%"></polygon>
	  <polygon points="32 8 32 -2.13163e-014 24 -2.13163e-014 
	   32 8 32 8 32 8 32 8 
	   32 8 32 8 32 8 32 8 32 8 "
	   style=" stroke:#ffffff; stroke-width:1; fill:#ffffff; fill-opacity:100%"></polygon>
	  <polygon points="24 -2.13163e-014 24 8 32 8 
	   31 7 25 7 25 1 24 -2.13163e-014 
	   24 -2.13163e-014 24 -2.13163e-014 24 -2.13163e-014 24 -2.13163e-014 
	   24 -2.13163e-014 24 -2.13163e-014 24 -2.13163e-014 24 -2.13163e-014 "
	   style=" stroke:#ffffff; stroke-width:1; fill:#b9b9b9; fill-opacity:100%"></polygon>
	  <polygon points="32 8 32 30 7 30 
	   7 29 31 29 31 8 32 8 
	   32 8 32 8 32 8 32 8 
	   32 8 32 8 32 8 32 8 "
	   style=" stroke:#ffffff; stroke-width:1; fill:#000000; fill-opacity:100%"></polygon>
	  <polygon points="31 8 31 29 8 29 
	   8 28 30 28 30 8 31 8 
	   31 8 31 8 31 8 31 8 
	   31 8 31 8 31 8 31 8 "
	   style=" stroke:#ffffff; stroke-width:1; fill:#dcdcdc; fill-opacity:100%"></polygon>
	  <polygon points="25 2 25 7 30 7 
	   25 2 25 2 25 2 25 2 
	   25 2 25 2 25 2 25 2 25 2 "
	   style=" stroke:#ffffff; stroke-width:1; fill:#ffffff; fill-opacity:100%"></polygon>
	</g>
	<polygon points="21 7.5 21 8.5 20 8.5 
	 20 9.5 22 9.5 22 10.5 21 10.5 
	 21 11.5 22 11.5 22 12.5 23 12.5 
	 23 11.5 25 11.5 25 10.5 24 10.5 
	 24 9.5 25 9.5 25 8.5 23 8.5 
	 23 7.5 21 7.5 21 7.5 21 7.5 
	 21 7.5 21 7.5 21 7.5 21 7.5 
	 21 7.5 21 7.5 "
	 style=" stroke:#ffffff; stroke-width:1; fill:#ffffff; fill-opacity:100%"></polygon>
	<polygon points="21 7.5 21 8.5 20 8.5 
	 20 9.5 22 9.5 22 10.5 21 10.5 
	 21 11.5 22 11.5 22 12.5 23 12.5 
	 23 11.5 25 11.5 25 10.5 24 10.5 
	 24 9.5 25 9.5 25 8.5 23 8.5 
	 23 7.5 21 7.5 21 7.5 21 7.5 
	 21 7.5 21 7.5 21 7.5 21 7.5 
	 21 7.5 21 7.5 "
	 style=" stroke:#ffffff; stroke-width:1; fill:#ffffff; fill-opacity:100%"></polygon>
	<g>
	  <rect x="11" y="16" width="16" height="1"
	   style=" stroke:#b9b9b9; stroke-width:1; fill:#b9b9b9; fill-opacity:100%"></rect>
	  <rect x="11" y="19" width="7" height="1"
	   style=" stroke:#b9b9b9; stroke-width:1; fill:#b9b9b9; fill-opacity:100%"></rect>
	  <rect x="21" y="7" width="1" height="11"
	   style=" stroke:#b9b9b9; stroke-width:1; fill:#b9b9b9; fill-opacity:100%"></rect>
	  <rect x="11" y="13" width="16" height="1"
	   style=" stroke:#b9b9b9; stroke-width:1; fill:#b9b9b9; fill-opacity:100%"></rect>
	  <rect x="11" y="10" width="16" height="1"
	   style=" stroke:#b9b9b9; stroke-width:1; fill:#b9b9b9; fill-opacity:100%"></rect>
	  <rect x="11" y="7" width="16" height="1"
	   style=" stroke:#b9b9b9; stroke-width:1; fill:#b9b9b9; fill-opacity:100%"></rect>
	  <rect x="11" y="4" width="16" height="1"
	   style=" stroke:#b9b9b9; stroke-width:1; fill:#b9b9b9; fill-opacity:100%"></rect>
	  <rect x="26" y="7" width="1" height="10"
	   style=" stroke:#b9b9b9; stroke-width:1; fill:#b9b9b9; fill-opacity:100%"></rect>
	  <rect x="16" y="7.5" width="1" height="18.5"
	   style=" stroke:#b9b9b9; stroke-width:1; fill:#b9b9b9; fill-opacity:100%"></rect>
	  <rect x="11" y="7" width="1" height="19"
	   style=" stroke:#b9b9b9; stroke-width:1; fill:#b9b9b9; fill-opacity:100%"></rect>
	  <rect x="11" y="22" width="7" height="1"
	   style=" stroke:#b9b9b9; stroke-width:1; fill:#b9b9b9; fill-opacity:100%"></rect>
	  <rect x="11" y="25" width="17" height="1"
	   style=" stroke:#b9b9b9; stroke-width:1; fill:#b9b9b9; fill-opacity:100%"></rect>
	  <rect x="22" y="21" width="2" height="1"
	   style=" stroke:#b9b9b9; stroke-width:1; fill:#b9b9b9; fill-opacity:100%"></rect>
	  <rect x="24" y="18" width="3" height="7"
	   style=" stroke:#b9b9b9; stroke-width:1; fill:#b9b9b9; fill-opacity:100%"></rect>
	  <rect x="19" y="19" width="3" height="6"
	   style=" stroke:#b9b9b9; stroke-width:1; fill:#b9b9b9; fill-opacity:100%"></rect>
	</g>
      </g>
      <g>
	<polygon points="1.42109e-014 3 15.9314 3 15.9314 18.9217 
	 1.42109e-014 18.9217 1.42109e-014 3 1.42109e-014 3 1.42109e-014 3 
	 1.42109e-014 3 1.42109e-014 3 1.42109e-014 3 1.42109e-014 3 
	 1.42109e-014 3 1.42109e-014 3 1.42109e-014 3 1.42109e-014 3 "
	 style=" stroke:#000000; stroke-width:1; fill:#006e00; fill-opacity:100%"></polygon>
	<polygon points="1.70694 4.70589 14.2245 4.70589 14.2245 17.2158 
	 1.70694 17.2158 1.70694 4.70589 1.70694 4.70589 1.70694 4.70589 
	 1.70694 4.70589 1.70694 4.70589 1.70694 4.70589 1.70694 4.70589 
	 1.70694 4.70589 1.70694 4.70589 1.70694 4.70589 1.70694 4.70589 "
	 style=" stroke:#ffffff; stroke-width:1; fill:#ffffff; fill-opacity:100%"></polygon>
	<polygon points="2.8449 6.41178 6.82775 6.41178 14.2245 14.9412 
	 10.2416 14.9412 2.8449 6.41178 2.8449 6.41178 2.8449 6.41178 
	 2.8449 6.41178 2.8449 6.41178 2.8449 6.41178 2.8449 6.41178 
	 2.8449 6.41178 2.8449 6.41178 2.8449 6.41178 2.8449 6.41178 "
	 style=" stroke:#878787; stroke-width:1; fill:#006e00; fill-opacity:100%"></polygon>
	<polygon points="9.67264 6.41178 2.8449 14.3726 12.5175 14.3726 
	 13.6555 11.5295 8.53469 11.5295 13.6555 6.41178 9.67264 6.41178 
	 9.67264 6.41178 9.67264 6.41178 9.67264 6.41178 9.67264 6.41178 
	 9.67264 6.41178 9.67264 6.41178 9.67264 6.41178 9.67264 6.41178 
	 9.67264 6.41178 9.67264 6.41178 "
	 style=" stroke:#006e00; stroke-width:1; fill:#006e00; fill-opacity:100%"></polygon>
	<polygon points="3.98285 6.98041 10.8106 14.3726 11.3796 14.3726 
	 4.55183 6.98041 3.98285 6.98041 3.98285 6.98041 3.98285 6.98041 
	 3.98285 6.98041 3.98285 6.98041 3.98285 6.98041 3.98285 6.98041 
	 3.98285 6.98041 3.98285 6.98041 3.98285 6.98041 3.98285 6.98041 "
	 style=" stroke:#ffffff; stroke-width:1; fill:#ffffff; fill-opacity:100%"></polygon>
      </g>
    </g>
  </symbol>
  <symbol id="oid1" xml:space="preserve" class="METIS_SYMBOL">
   <title>Microsoft Excel Application</title>
    <polygon points="3 -2.13163e-014 31 -2.13163e-014 31 28 
     3 28 3 -2.13163e-014 3 -2.13163e-014 3 -2.13163e-014 
     3 -2.13163e-014 3 -2.13163e-014 3 -2.13163e-014 3 -2.13163e-014 
     3 -2.13163e-014 3 -2.13163e-014 3 -2.13163e-014 3 -2.13163e-014 "
     style=" stroke:#000000; stroke-width:1; fill:#006e00; fill-opacity:100%"></polygon>
    <polygon points="6 3 28 3 28 25 
     6 25 6 3 6 3 6 3 
     6 3 6 3 6 3 6 3 
     6 3 6 3 6 3 6 3 "
     style=" stroke:#ffffff; stroke-width:1; fill:#ffffff; fill-opacity:100%"></polygon>
    <polygon points="8 6 15 6 28 21 
     21 21 8 6 8 6 8 6 
     8 6 8 6 8 6 8 6 
     8 6 8 6 8 6 8 6 "
     style=" stroke:#878787; stroke-width:1; fill:#006e00; fill-opacity:100%"></polygon>
    <polygon points="20 6 8 20 25 20 
     27 15 18 15 27 6 20 6 
     20 6 20 6 20 6 20 6 
     20 6 20 6 20 6 20 6 
     20 6 20 6 "
     style=" stroke:#006e00; stroke-width:1; fill:#006e00; fill-opacity:100%"></polygon>
    <polygon points="10 7 22 20 23 20 
     11 7 10 7 10 7 10 7 
     10 7 10 7 10 7 10 7 
     10 7 10 7 10 7 10 7 "
     style=" stroke:#ffffff; stroke-width:1; fill:#ffffff; fill-opacity:100%"></polygon>
    <polygon points="1.42109e-014 23 11 23 10 24 
     1 24 1 33 1.42109e-014 34 1.42109e-014 23 
     1.42109e-014 23 1.42109e-014 23 1.42109e-014 23 1.42109e-014 23 
     1.42109e-014 23 1.42109e-014 23 1.42109e-014 23 1.42109e-014 23 
     1.42109e-014 23 1.42109e-014 23 "
     style=" stroke:#878787; stroke-width:1; fill:#b9b9b9; fill-opacity:100%"></polygon>
    <polygon points="10 24 11 23 11 34 
     1.42109e-014 34 1 33 10 33 10 24 
     10 24 10 24 10 24 10 24 
     10 24 10 24 10 24 10 24 
     10 24 10 24 "
     style=" stroke:#000000; stroke-width:1; fill:#000000; fill-opacity:100%"></polygon>
    <rect x="1" y="24" width="9" height="9"
     style=" stroke:#878787; stroke-width:1; fill:#ffffff; fill-opacity:100%"></rect>
    <path d="M 4 25 C 6 25 5 25 
     8 25 C 8 25 8 28 8 29 
     C 8 29.2977 7.54999 28 7 28 C 5.35003 28 
     4 29.35 4 31 C 4 31.55 5.11391 31.725 
     5 32 C 4.91945 32.1945 4.24915 32.1032 4 32 
     C 3.64765 31.8541 3.14595 31.3523 3 31 C 2.6904 30.2526 
     2.6904 28.7474 3 28 C 3.21892 27.4715 3.66419 27.1036 
     5 26 Z"
     style=" stroke:#878787; stroke-width:1; fill:#000000; fill-opacity:100%"></path>
  </symbol>
 </defs>
</svg>
