<?xml version="1.0"?>
<?metis version="3.4.1"?>
<?metisxml version="1.1"?>
<!DOCTYPE svg  PUBLIC "-//W3C//DTD SVG August 1999//EN"
 "http://www.w3.org/Graphics/SVG/svg-19990812.dtd">



<!--
Troux Technologies, Inc. Confidential and Proprietary.
This work contains valuable confidential, proprietary and trade secret
information of Troux Technologies, Inc. and is protected by the laws of 
the United States and other countries. Any disclosure, use or reproduction
of this work without the prior written authorization of Troux Technologies, Inc.
is strictly prohibited.
Copyright (C) 2000-2006 Troux Technologies, Inc. All rights reserved.
-->


<svg
 width="200" height="200">
 <title>Symbol library: microsoft_access.svg</title>
 <defs>
  <symbol id="oid3" xml:space="preserve" class="METIS_SYMBOL">
   <title>Micrsoft Access Metis Shape With Text</title>
    <rect x="235.166" y="0" width="624" height="304"
     style=" stroke:#000000; stroke-width:1; fill:#dcdcdc; fill-opacity:100%"     class="TAG:canvas"></rect>
    <rect x="240.523" y="25.7143" width="569.522" height="231.429"
     style="stroke:none; fill:#878787; fill-opacity:0%"></rect>
    <g>
      <desc>METIS_TEXT_GROUP</desc>
      <text  x="251.166" y="15"
       style=" stroke:#000000; stroke-width:1; font-family:sans-serif; font-size:16;"
       class="TAG:text">text</text>
      <rect x="251.166" y="0" width="608" height="304"
       style=" stroke:#000000; stroke-width:1; fill:#ffffff; fill-opacity:0%"></rect>
    </g>
    <g>
      <rect x="44.5805" y="40.5487" width="185.752" height="222.903"
       style=" stroke:#b9b9b9; stroke-width:1; fill:#b9b9b9; fill-opacity:100%"></rect>
      <rect x="52.0106" y="47.9788" width="166.086" height="200.612"
       style=" stroke:#ffffff; stroke-width:1; fill:#ffffff; fill-opacity:100%"></rect>
      <polygon points="170.892 40.5487 170.892 99.9894 230.333 99.9894 
       170.892 40.5487 170.892 40.5487 170.892 40.5487 170.892 40.5487 
       170.892 40.5487 170.892 40.5487 170.892 40.5487 170.892 40.5487 "
       style=" stroke:#9b9b9b; stroke-width:1; fill:#9b9b9b; fill-opacity:100%"></polygon>
      <polygon points="230.333 99.9894 230.333 40.5487 170.892 40.5487 
       230.333 99.9894 230.333 99.9894 230.333 99.9894 230.333 99.9894 
       230.333 99.9894 230.333 99.9894 230.333 99.9894 230.333 99.9894 "
       style=" stroke:#ffffff; stroke-width:1; fill:#ffffff; fill-opacity:100%"></polygon>
      <polygon points="170.892 40.5487 170.892 99.9894 230.333 99.9894 
       222.903 92.5593 178.322 92.5593 178.322 47.9788 170.892 40.5487 
       170.892 40.5487 170.892 40.5487 170.892 40.5487 170.892 40.5487 
       170.892 40.5487 170.892 40.5487 170.892 40.5487 "
       style=" stroke:#b9b9b9; stroke-width:1; fill:#b9b9b9; fill-opacity:100%"></polygon>
      <polygon points="230.333 99.9894 230.333 263.451 44.5805 263.451 
       44.5805 256.021 222.903 256.021 222.903 99.9894 230.333 99.9894 
       230.333 99.9894 230.333 99.9894 230.333 99.9894 230.333 99.9894 
       230.333 99.9894 230.333 99.9894 230.333 99.9894 "
       style=" stroke:#000000; stroke-width:1; fill:#000000; fill-opacity:100%"></polygon>
      <polygon points="222.903 99.9894 222.903 256.021 52.0106 256.021 
       52.0106 248.591 215.472 248.591 215.472 99.9894 222.903 99.9894 
       222.903 99.9894 222.903 99.9894 222.903 99.9894 222.903 99.9894 
       222.903 99.9894 222.903 99.9894 222.903 99.9894 "
       style=" stroke:#dcdcdc; stroke-width:1; fill:#dcdcdc; fill-opacity:100%"></polygon>
      <polygon points="178.322 55.4089 178.322 92.5593 215.472 92.5593 
       178.322 55.4089 178.322 55.4089 178.322 55.4089 178.322 55.4089 
       178.322 55.4089 178.322 55.4089 178.322 55.4089 178.322 55.4089 "
       style=" stroke:#ffffff; stroke-width:1; fill:#ffffff; fill-opacity:100%"></polygon>
      <rect x="78.0159" y="84.6426" width="89.161" height="89.161"
       style=" stroke:#b9b9b9; stroke-width:1; fill:#b9b9b9; fill-opacity:100%"></rect>
      <rect x="85.446" y="99.5027" width="74.3008" height="66.8708"
       style=" stroke:#ffffff; stroke-width:1; fill:#ffffff; fill-opacity:100%"></rect>
      <rect x="96.5911" y="106.933" width="33.4354" height="7.43008"
       style=" stroke:#b9b9b9; stroke-width:1; fill:#b9b9b9; fill-opacity:100%"></rect>
      <rect x="137.457" y="106.933" width="14.8602" height="7.43008"
       style=" stroke:#b9b9b9; stroke-width:1; fill:#b9b9b9; fill-opacity:100%"></rect>
      <rect x="96.5911" y="121.793" width="33.4354" height="7.43008"
       style=" stroke:#b9b9b9; stroke-width:1; fill:#b9b9b9; fill-opacity:100%"></rect>
      <rect x="137.457" y="121.793" width="14.8602" height="7.43008"
       style=" stroke:#b9b9b9; stroke-width:1; fill:#b9b9b9; fill-opacity:100%"></rect>
      <rect x="115.166" y="136.653" width="89.161" height="89.161"
       style=" stroke:#b9b9b9; stroke-width:1; fill:#b9b9b9; fill-opacity:100%"></rect>
      <rect x="122.596" y="151.513" width="74.3008" height="66.8708"
       style=" stroke:#ffffff; stroke-width:1; fill:#ffffff; fill-opacity:100%"></rect>
      <rect x="159.747" y="158.943" width="29.7203" height="22.2903"
       style=" stroke:#b9b9b9; stroke-width:1; fill:#b9b9b9; fill-opacity:100%"></rect>
      <rect x="167.177" y="166.373" width="14.8602" height="7.43008"
       style=" stroke:#ffffff; stroke-width:1; fill:#ffffff; fill-opacity:100%"></rect>
      <rect x="159.747" y="188.664" width="29.7203" height="22.2903"
       style=" stroke:#b9b9b9; stroke-width:1; fill:#b9b9b9; fill-opacity:100%"></rect>
      <rect x="167.177" y="196.094" width="14.8602" height="7.43008"
       style=" stroke:#ffffff; stroke-width:1; fill:#ffffff; fill-opacity:100%"></rect>
      <g>
	<rect x="0" y="51.6939" width="122.596" height="126.311"
	 style=" stroke:#6e6e00; stroke-width:1; fill:#6e006e; fill-opacity:100%"></rect>
	<rect x="13.1353" y="65.2272" width="96.3258" height="99.2444"
	 style=" stroke:#ffffff; stroke-width:1; fill:#ffffff; fill-opacity:100%"></rect>
	<polygon points="91.9473 69.7383 61.2982 69.7383 48.1628 83.2717 
	 48.1628 101.316 43.7844 101.316 43.7844 114.85 39.406 114.85 
	 21.8922 132.894 21.8922 155.45 43.7844 155.45 43.7844 146.427 
	 48.1628 146.427 48.1628 141.917 52.5413 141.917 52.5413 137.405 
	 70.0551 137.405 70.0551 132.894 74.4338 132.894 74.4338 128.383 
	 91.9473 128.383 105.083 114.85 105.083 83.2717 91.9473 69.7383 
	 91.9473 69.7383 91.9473 69.7383 91.9473 69.7383 91.9473 69.7383 
	 91.9473 69.7383 91.9473 69.7383 91.9473 69.7383 91.9473 69.7383 91.9473 69.7383 "
	 style=" stroke:#6e006e; stroke-width:1; fill:#6e006e; fill-opacity:100%"></polygon>
	<rect x="83.1902" y="83.2717" width="8.75687" height="9.02228"
	 style=" stroke:#ffffff; stroke-width:1; fill:#ffffff; fill-opacity:100%"></rect>
	<polygon points="100.704 110.338 91.9473 119.36 74.4338 119.36 
	 65.6767 128.383 52.5413 128.383 52.5413 132.894 48.1628 132.894 
	 48.1628 137.405 43.7844 137.405 43.7844 141.917 39.406 141.917 
	 39.406 146.427 35.0276 146.427 35.0276 141.917 52.5413 123.872 
	 65.6767 123.872 74.4338 114.85 91.9473 114.85 91.9473 110.338 
	 96.3258 110.338 96.3258 105.827 100.704 105.827 100.704 110.338 
	 100.704 110.338 100.704 110.338 100.704 110.338 100.704 110.338 
	 100.704 110.338 100.704 110.338 100.704 110.338 100.704 110.338 100.704 110.338 "
	 style=" stroke:#ffffff; stroke-width:1; fill:#ffffff; fill-opacity:100%"></polygon>
      </g>
      <rect x="130.026" y="189.15" width="22.2903" height="7.43008"
       style=" stroke:#b9b9b9; stroke-width:1; fill:#b9b9b9; fill-opacity:100%"></rect>
      <rect x="130.026" y="159.43" width="22.2903" height="7.43008"
       style=" stroke:#b9b9b9; stroke-width:1; fill:#b9b9b9; fill-opacity:100%"></rect>
    </g>
  </symbol>
  <symbol id="oid4" xml:space="preserve" class="METIS_SYMBOL">
   <title>Microsoft Access With Windows Style Text</title>
    <g>
      <rect x="19.1837" y="0" width="62.208" height="74.6496"
       style=" stroke:#b9b9b9; stroke-width:1; fill:#b9b9b9; fill-opacity:100%"></rect>
      <rect x="21.672" y="2.48832" width="55.6219" height="67.1846"
       style=" stroke:#ffffff; stroke-width:1; fill:#ffffff; fill-opacity:100%"></rect>
      <polygon points="61.4851 0 61.4851 19.9066 81.3917 19.9066 
       61.4851 0 61.4851 0 61.4851 0 61.4851 0 
       61.4851 0 61.4851 0 61.4851 0 61.4851 0 "
       style=" stroke:#9b9b9b; stroke-width:1; fill:#9b9b9b; fill-opacity:100%"></polygon>
      <polygon points="81.3917 19.9066 81.3917 0 61.4851 0 
       81.3917 19.9066 81.3917 19.9066 81.3917 19.9066 81.3917 19.9066 
       81.3917 19.9066 81.3917 19.9066 81.3917 19.9066 81.3917 19.9066 "
       style=" stroke:#ffffff; stroke-width:1; fill:#ffffff; fill-opacity:100%"></polygon>
      <polygon points="61.4851 0 61.4851 19.9066 81.3917 19.9066 
       78.9034 17.4182 63.9734 17.4182 63.9734 2.48832 61.4851 0 
       61.4851 0 61.4851 0 61.4851 0 61.4851 0 
       61.4851 0 61.4851 0 61.4851 0 "
       style=" stroke:#b9b9b9; stroke-width:1; fill:#b9b9b9; fill-opacity:100%"></polygon>
      <polygon points="81.3917 19.9066 81.3917 74.6496 19.1837 74.6496 
       19.1837 72.1613 78.9034 72.1613 78.9034 19.9066 81.3917 19.9066 
       81.3917 19.9066 81.3917 19.9066 81.3917 19.9066 81.3917 19.9066 
       81.3917 19.9066 81.3917 19.9066 81.3917 19.9066 "
       style=" stroke:#000000; stroke-width:1; fill:#000000; fill-opacity:100%"></polygon>
      <polygon points="78.9034 19.9066 78.9034 72.1613 21.672 72.1613 
       21.672 69.673 76.415 69.673 76.415 19.9066 78.9034 19.9066 
       78.9034 19.9066 78.9034 19.9066 78.9034 19.9066 78.9034 19.9066 
       78.9034 19.9066 78.9034 19.9066 78.9034 19.9066 "
       style=" stroke:#dcdcdc; stroke-width:1; fill:#dcdcdc; fill-opacity:100%"></polygon>
      <polygon points="63.9734 4.97664 63.9734 17.4182 76.415 17.4182 
       63.9734 4.97664 63.9734 4.97664 63.9734 4.97664 63.9734 4.97664 
       63.9734 4.97664 63.9734 4.97664 63.9734 4.97664 63.9734 4.97664 "
       style=" stroke:#ffffff; stroke-width:1; fill:#ffffff; fill-opacity:100%"></polygon>
      <rect x="30.3811" y="14.7669" width="29.8598" height="29.8598"
       style=" stroke:#b9b9b9; stroke-width:1; fill:#b9b9b9; fill-opacity:100%"></rect>
      <rect x="32.8694" y="19.7436" width="24.8832" height="22.3949"
       style=" stroke:#ffffff; stroke-width:1; fill:#ffffff; fill-opacity:100%"></rect>
      <rect x="36.6019" y="22.2319" width="11.1974" height="2.48832"
       style=" stroke:#b9b9b9; stroke-width:1; fill:#b9b9b9; fill-opacity:100%"></rect>
      <rect x="50.2877" y="22.2319" width="4.97664" height="2.48832"
       style=" stroke:#b9b9b9; stroke-width:1; fill:#b9b9b9; fill-opacity:100%"></rect>
      <rect x="36.6019" y="27.2085" width="11.1974" height="2.48832"
       style=" stroke:#b9b9b9; stroke-width:1; fill:#b9b9b9; fill-opacity:100%"></rect>
      <rect x="50.2877" y="27.2085" width="4.97664" height="2.48832"
       style=" stroke:#b9b9b9; stroke-width:1; fill:#b9b9b9; fill-opacity:100%"></rect>
      <rect x="42.8227" y="32.1852" width="29.8598" height="29.8598"
       style=" stroke:#b9b9b9; stroke-width:1; fill:#b9b9b9; fill-opacity:100%"></rect>
      <rect x="45.311" y="37.1618" width="24.8832" height="22.3949"
       style=" stroke:#ffffff; stroke-width:1; fill:#ffffff; fill-opacity:100%"></rect>
      <rect x="57.7526" y="39.6501" width="9.95328" height="7.46496"
       style=" stroke:#b9b9b9; stroke-width:1; fill:#b9b9b9; fill-opacity:100%"></rect>
      <rect x="60.241" y="42.1385" width="4.97664" height="2.48832"
       style=" stroke:#ffffff; stroke-width:1; fill:#ffffff; fill-opacity:100%"></rect>
      <rect x="57.7526" y="49.6034" width="9.95328" height="7.46496"
       style=" stroke:#b9b9b9; stroke-width:1; fill:#b9b9b9; fill-opacity:100%"></rect>
      <rect x="60.241" y="52.0917" width="4.97664" height="2.48832"
       style=" stroke:#ffffff; stroke-width:1; fill:#ffffff; fill-opacity:100%"></rect>
      <g>
	<rect x="4.25376" y="3.73248" width="41.0573" height="42.3014"
	 style=" stroke:#6e6e00; stroke-width:1; fill:#6e006e; fill-opacity:100%"></rect>
	<rect x="8.65276" y="8.26478" width="32.2593" height="33.2367"
	 style=" stroke:#ffffff; stroke-width:1; fill:#ffffff; fill-opacity:100%"></rect>
	<polygon points="35.0467 9.77554 24.7824 9.77554 20.3834 14.3078 
	 20.3834 20.3509 18.9171 20.3509 18.9171 24.8832 17.4507 24.8832 
	 11.5854 30.9263 11.5854 38.4801 18.9171 38.4801 18.9171 35.4586 
	 20.3834 35.4586 20.3834 33.9479 21.8497 33.9479 21.8497 32.437 
	 27.7151 32.437 27.7151 30.9263 29.1815 30.9263 29.1815 29.4154 
	 35.0467 29.4154 39.4458 24.8832 39.4458 14.3078 35.0467 9.77554 
	 35.0467 9.77554 35.0467 9.77554 35.0467 9.77554 35.0467 9.77554 
	 35.0467 9.77554 35.0467 9.77554 35.0467 9.77554 35.0467 9.77554 35.0467 9.77554 "
	 style=" stroke:#6e006e; stroke-width:1; fill:#6e006e; fill-opacity:100%"></polygon>
	<rect x="32.114" y="14.3078" width="2.93266" height="3.02154"
	 style=" stroke:#ffffff; stroke-width:1; fill:#ffffff; fill-opacity:100%"></rect>
	<polygon points="37.9795 23.3724 35.0467 26.3939 29.1815 26.3939 
	 26.2487 29.4154 21.8497 29.4154 21.8497 30.9263 20.3834 30.9263 
	 20.3834 32.437 18.9171 32.437 18.9171 33.9479 17.4507 33.9479 
	 17.4507 35.4586 15.9844 35.4586 15.9844 33.9479 21.8497 27.9048 
	 26.2487 27.9048 29.1815 24.8832 35.0467 24.8832 35.0467 23.3724 
	 36.5131 23.3724 36.5131 21.8617 37.9795 21.8617 37.9795 23.3724 
	 37.9795 23.3724 37.9795 23.3724 37.9795 23.3724 37.9795 23.3724 
	 37.9795 23.3724 37.9795 23.3724 37.9795 23.3724 37.9795 23.3724 37.9795 23.3724 "
	 style=" stroke:#ffffff; stroke-width:1; fill:#ffffff; fill-opacity:100%"></polygon>
      </g>
      <rect x="47.7994" y="49.7664" width="7.46496" height="2.48832"
       style=" stroke:#b9b9b9; stroke-width:1; fill:#b9b9b9; fill-opacity:100%"></rect>
      <rect x="47.7994" y="39.8131" width="7.46496" height="2.48832"
       style=" stroke:#b9b9b9; stroke-width:1; fill:#b9b9b9; fill-opacity:100%"></rect>
    </g>
    <g>
      <desc>METIS_TEXT_GROUP</desc>
      <text  x="0" y="84.2212"
       style=" stroke:#000000; stroke-width:1; font-family:sans-serif; font-size:10;"
       class="TAG:text">text</text>
      <rect x="0" y="75.2212" width="85.6454" height="29.7137"
       style=" stroke:#000000; stroke-width:1; fill:#dcdcdc; fill-opacity:0%"></rect>
    </g>
  </symbol>
  <symbol id="oid2" xml:space="preserve" class="METIS_SYMBOL">
   <title>Microsoft Access Database</title>
    <g>
      <rect x="6" y="0" width="25" height="30"
       style=" stroke:#b9b9b9; stroke-width:1; fill:#b9b9b9; fill-opacity:100%"></rect>
      <rect x="7" y="1" width="22.3532" height="27"
       style=" stroke:#ffffff; stroke-width:1; fill:#ffffff; fill-opacity:100%"></rect>
      <polygon points="23 0 23 8 31 8 
       23 0 23 0 23 0 23 0 
       23 0 23 0 23 0 23 0 "
       style=" stroke:#9b9b9b; stroke-width:1; fill:#9b9b9b; fill-opacity:100%"></polygon>
      <polygon points="31 8 31 0 23 0 
       31 8 31 8 31 8 31 8 
       31 8 31 8 31 8 31 8 "
       style=" stroke:#ffffff; stroke-width:1; fill:#ffffff; fill-opacity:100%"></polygon>
      <polygon points="23 0 23 8 31 8 
       30 7 24 7 24 1 23 0 
       23 0 23 0 23 0 23 0 
       23 0 23 0 23 0 "
       style=" stroke:#b9b9b9; stroke-width:1; fill:#b9b9b9; fill-opacity:100%"></polygon>
      <polygon points="31 8 31 30 6 30 
       6 29 30 29 30 8 31 8 
       31 8 31 8 31 8 31 8 
       31 8 31 8 31 8 "
       style=" stroke:#000000; stroke-width:1; fill:#000000; fill-opacity:100%"></polygon>
      <polygon points="30 8 30 29 7 29 
       7 28 29 28 29 8 30 8 
       30 8 30 8 30 8 30 8 
       30 8 30 8 30 8 "
       style=" stroke:#dcdcdc; stroke-width:1; fill:#dcdcdc; fill-opacity:100%"></polygon>
      <polygon points="24 2 24 7 29 7 
       24 2 24 2 24 2 24 2 
       24 2 24 2 24 2 24 2 "
       style=" stroke:#ffffff; stroke-width:1; fill:#ffffff; fill-opacity:100%"></polygon>
      <rect x="10.5" y="5.9345" width="12" height="12"
       style=" stroke:#b9b9b9; stroke-width:1; fill:#b9b9b9; fill-opacity:100%"></rect>
      <rect x="11.5" y="7.9345" width="10" height="9"
       style=" stroke:#ffffff; stroke-width:1; fill:#ffffff; fill-opacity:100%"></rect>
      <rect x="13" y="8.9345" width="4.5" height="1"
       style=" stroke:#b9b9b9; stroke-width:1; fill:#b9b9b9; fill-opacity:100%"></rect>
      <rect x="18.5" y="8.9345" width="2" height="1"
       style=" stroke:#b9b9b9; stroke-width:1; fill:#b9b9b9; fill-opacity:100%"></rect>
      <rect x="13" y="10.9345" width="4.5" height="1"
       style=" stroke:#b9b9b9; stroke-width:1; fill:#b9b9b9; fill-opacity:100%"></rect>
      <rect x="18.5" y="10.9345" width="2" height="1"
       style=" stroke:#b9b9b9; stroke-width:1; fill:#b9b9b9; fill-opacity:100%"></rect>
      <rect x="15.5" y="12.9345" width="12" height="12"
       style=" stroke:#b9b9b9; stroke-width:1; fill:#b9b9b9; fill-opacity:100%"></rect>
      <rect x="16.5" y="14.9345" width="10" height="9"
       style=" stroke:#ffffff; stroke-width:1; fill:#ffffff; fill-opacity:100%"></rect>
      <rect x="21.5" y="15.9345" width="4" height="3"
       style=" stroke:#b9b9b9; stroke-width:1; fill:#b9b9b9; fill-opacity:100%"></rect>
      <rect x="22.5" y="16.9345" width="2" height="1"
       style=" stroke:#ffffff; stroke-width:1; fill:#ffffff; fill-opacity:100%"></rect>
      <rect x="21.5" y="19.9345" width="4" height="3"
       style=" stroke:#b9b9b9; stroke-width:1; fill:#b9b9b9; fill-opacity:100%"></rect>
      <rect x="22.5" y="20.9345" width="2" height="1"
       style=" stroke:#ffffff; stroke-width:1; fill:#ffffff; fill-opacity:100%"></rect>
      <g>
	<rect x="0" y="1.5" width="16.5" height="17"
	 style=" stroke:#6e6e00; stroke-width:1; fill:#6e006e; fill-opacity:100%"></rect>
	<rect x="1.76786" y="3.32143" width="12.9643" height="13.3571"
	 style=" stroke:#ffffff; stroke-width:1; fill:#ffffff; fill-opacity:100%"></rect>
	<polygon points="12.375 3.92857 8.25 3.92857 6.48214 5.75 
	 6.48214 8.17857 5.89286 8.17857 5.89286 10 5.30357 10 
	 2.94643 12.4286 2.94643 15.4643 5.89286 15.4643 5.89286 14.25 
	 6.48214 14.25 6.48214 13.6429 7.07143 13.6429 7.07143 13.0357 
	 9.42857 13.0357 9.42857 12.4286 10.0179 12.4286 10.0179 11.8214 
	 12.375 11.8214 14.1429 10 14.1429 5.75 12.375 3.92857 
	 12.375 3.92857 12.375 3.92857 12.375 3.92857 12.375 3.92857 
	 12.375 3.92857 12.375 3.92857 12.375 3.92857 12.375 3.92857 12.375 3.92857 "
	 style=" stroke:#6e006e; stroke-width:1; fill:#6e006e; fill-opacity:100%"></polygon>
	<rect x="11.1964" y="5.75" width="1.17857" height="1.21429"
	 style=" stroke:#ffffff; stroke-width:1; fill:#ffffff; fill-opacity:100%"></rect>
	<polygon points="13.5536 9.39286 12.375 10.6071 10.0179 10.6071 
	 8.83929 11.8214 7.07143 11.8214 7.07143 12.4286 6.48214 12.4286 
	 6.48214 13.0357 5.89286 13.0357 5.89286 13.6429 5.30357 13.6429 
	 5.30357 14.25 4.71429 14.25 4.71429 13.6429 7.07143 11.2143 
	 8.83929 11.2143 10.0179 10 12.375 10 12.375 9.39286 
	 12.9643 9.39286 12.9643 8.78571 13.5536 8.78571 13.5536 9.39286 
	 13.5536 9.39286 13.5536 9.39286 13.5536 9.39286 13.5536 9.39286 
	 13.5536 9.39286 13.5536 9.39286 13.5536 9.39286 13.5536 9.39286 13.5536 9.39286 "
	 style=" stroke:#ffffff; stroke-width:1; fill:#ffffff; fill-opacity:100%"></polygon>
      </g>
      <rect x="17.5" y="20" width="3" height="1"
       style=" stroke:#b9b9b9; stroke-width:1; fill:#b9b9b9; fill-opacity:100%"></rect>
      <rect x="17.5" y="16" width="3" height="1"
       style=" stroke:#b9b9b9; stroke-width:1; fill:#b9b9b9; fill-opacity:100%"></rect>
    </g>
  </symbol>
  <symbol id="oid1" xml:space="preserve" class="METIS_SYMBOL">
   <title>Microsoft Access Application</title>
    <rect x="2" y="0" width="28" height="28"
     style=" stroke:#6e6e00; stroke-width:1; fill:#6e006e; fill-opacity:100%"></rect>
    <rect x="5" y="3" width="22" height="22"
     style=" stroke:#ffffff; stroke-width:1; fill:#ffffff; fill-opacity:100%"></rect>
    <polygon points="23 4 16 4 13 7 
     13 11 12 11 12 14 11 14 
     7 18 7 23 12 23 12 21 
     13 21 13 20 14 20 14 19 
     18 19 18 18 19 18 19 17 
     23 17 26 14 26 7 23 4 
     23 4 23 4 23 4 23 4 
     23 4 23 4 23 4 23 4 23 4 "
     style=" stroke:#6e006e; stroke-width:1; fill:#6e006e; fill-opacity:100%"></polygon>
    <rect x="21" y="7" width="2" height="2"
     style=" stroke:#ffffff; stroke-width:1; fill:#ffffff; fill-opacity:100%"></rect>
    <polygon points="25 13 23 15 19 15 
     17 17 14 17 14 18 13 18 
     13 19 12 19 12 20 11 20 
     11 21 10 21 10 20 14 16 
     17 16 19 14 23 14 23 13 
     24 13 24 12 25 12 25 13 
     25 13 25 13 25 13 25 13 
     25 13 25 13 25 13 25 13 25 13 "
     style=" stroke:#ffffff; stroke-width:1; fill:#ffffff; fill-opacity:100%"></polygon>
    <g>
      <polygon points="0 19 11 19 10 20 
       1 20 1 29 0 30 0 19 
       0 19 0 19 0 19 0 19 
       0 19 0 19 0 19 0 19 0 19 "
       style=" stroke:#878787; stroke-width:1; fill:#b9b9b9; fill-opacity:100%"></polygon>
      <polygon points="10 20 11 19 11 30 
       0 30 1 29 10 29 10 20 
       10 20 10 20 10 20 10 20 
       10 20 10 20 10 20 10 20 10 20 "
       style=" stroke:#878787; stroke-width:1; fill:#000000; fill-opacity:100%"></polygon>
      <rect x="1" y="20" width="9" height="9"
       style=" stroke:#878787; stroke-width:1; fill:#ffffff; fill-opacity:100%"></rect>
      <path d="M 4 21 C 6 21 5 21 
       8 21 C 8 21 8 24 8 25 
       C 8 25.2977 7.54999 24 7 24 C 5.35003 24 
       4 25.35 4 27 C 4 27.55 5.11391 27.725 
       5 28 C 4.91945 28.1945 4.24915 28.1032 4 28 
       C 3.64765 27.8541 3.14595 27.3523 3 27 C 2.6904 26.2526 
       2.6904 24.7474 3 24 C 3.21892 23.4715 3.66419 23.1036 
       5 22 Z"
       style=" stroke:#878787; stroke-width:1; fill:#000000; fill-opacity:100%"></path>
    </g>
  </symbol>
 </defs>
</svg>
