<?xml version="1.0"?>
<?metis version="3.4.3"?>
<?metisxml version="1.1"?>
<!DOCTYPE svg  PUBLIC "-//W3C//DTD SVG August 1999//EN"
 "http://www.w3.org/Graphics/SVG/svg-19990812.dtd">



<!--
Troux Technologies, Inc. Confidential and Proprietary.
This work contains valuable confidential, proprietary and trade secret
information of Troux Technologies, Inc. and is protected by the laws of 
the United States and other countries. Any disclosure, use or reproduction
of this work without the prior written authorization of Troux Technologies, Inc.
is strictly prohibited.
Copyright (C) 2000-2006 Troux Technologies, Inc. All rights reserved.
-->


<svg
 width="200" height="200">
 <title>Symbol library: microsoft_powerpoint.svg</title>
 <defs>
  <symbol id="oid4" xml:space="preserve" class="METIS_SYMBOL">
   <title>Micrsoft Powerpoint Metis Shape With Text</title>
    <g>
      <g>
	<g>
	  <rect x="49.829" y="42.3362" width="177.961" height="220.317"
	   style=" stroke:#dcdcdc; stroke-width:1; fill:#b9b9b9; fill-opacity:100%"></rect>
	  <rect x="56.9474" y="49.6801" width="156.605" height="198.285"
	   style=" stroke:#ffffff; stroke-width:1; fill:#ffffff; fill-opacity:100%"></rect>
	  <polygon points="170.842 42.3362 170.842 101.087 227.79 101.087 
	   170.842 42.3362 170.842 42.3362 170.842 42.3362 170.842 42.3362 
	   170.842 42.3362 170.842 42.3362 170.842 42.3362 170.842 42.3362 170.842 42.3362 "
	   style=" stroke:#696969; stroke-width:1; fill:#9b9b9b; fill-opacity:100%"></polygon>
	  <polygon points="227.79 101.087 227.79 42.3362 170.842 42.3362 
	   227.79 101.087 227.79 101.087 227.79 101.087 227.79 101.087 
	   227.79 101.087 227.79 101.087 227.79 101.087 227.79 101.087 227.79 101.087 "
	   style=" stroke:#ffffff; stroke-width:1; fill:#ffffff; fill-opacity:100%"></polygon>
	  <polygon points="170.842 42.3362 170.842 101.087 227.79 101.087 
	   220.671 93.7434 177.961 93.7434 177.961 49.6801 170.842 42.3362 
	   170.842 42.3362 170.842 42.3362 170.842 42.3362 170.842 42.3362 
	   170.842 42.3362 170.842 42.3362 170.842 42.3362 170.842 42.3362 "
	   style=" stroke:#ffffff; stroke-width:1; fill:#b9b9b9; fill-opacity:100%"></polygon>
	  <polygon points="227.79 101.087 227.79 262.653 49.829 262.653 
	   49.829 255.309 220.671 255.309 220.671 101.087 227.79 101.087 
	   227.79 101.087 227.79 101.087 227.79 101.087 227.79 101.087 
	   227.79 101.087 227.79 101.087 227.79 101.087 227.79 101.087 "
	   style=" stroke:#ffffff; stroke-width:1; fill:#000000; fill-opacity:100%"></polygon>
	  <polygon points="220.671 101.087 220.671 255.309 56.9474 255.309 
	   56.9474 247.965 213.553 247.965 213.553 101.087 220.671 101.087 
	   220.671 101.087 220.671 101.087 220.671 101.087 220.671 101.087 
	   220.671 101.087 220.671 101.087 220.671 101.087 220.671 101.087 "
	   style=" stroke:#ffffff; stroke-width:1; fill:#dcdcdc; fill-opacity:100%"></polygon>
	  <polygon points="177.961 57.024 177.961 93.7434 213.553 93.7434 
	   177.961 57.024 177.961 57.024 177.961 57.024 177.961 57.024 
	   177.961 57.024 177.961 57.024 177.961 57.024 177.961 57.024 177.961 57.024 "
	   style=" stroke:#ffffff; stroke-width:1; fill:#ffffff; fill-opacity:100%"></polygon>
	</g>
	<g>
	  <g>
	    <g>
	      <rect x="121.013" y="196.558" width="64.0659" height="7.34388"
	       style=" stroke:#dcdcdc; stroke-width:1; fill:#b9b9b9; fill-opacity:100%"></rect>
	      <rect x="99.658" y="196.558" width="7.11843" height="7.34388"
	       style=" stroke:#dcdcdc; stroke-width:1; fill:#b9b9b9; fill-opacity:100%"></rect>
	    </g>
	    <g>
	      <rect x="121.013" y="218.589" width="64.0659" height="7.34388"
	       style=" stroke:#dcdcdc; stroke-width:1; fill:#b9b9b9; fill-opacity:100%"></rect>
	      <rect x="99.658" y="218.589" width="7.11843" height="7.34388"
	       style=" stroke:#dcdcdc; stroke-width:1; fill:#b9b9b9; fill-opacity:100%"></rect>
	    </g>
	    <g>
	      <rect x="121.013" y="174.526" width="64.0659" height="7.34388"
	       style=" stroke:#dcdcdc; stroke-width:1; fill:#b9b9b9; fill-opacity:100%"></rect>
	      <rect x="99.658" y="174.526" width="7.11843" height="7.34388"
	       style=" stroke:#dcdcdc; stroke-width:1; fill:#b9b9b9; fill-opacity:100%"></rect>
	    </g>
	    <g>
	      <rect x="121.013" y="152.494" width="64.0659" height="7.34388"
	       style=" stroke:#dcdcdc; stroke-width:1; fill:#b9b9b9; fill-opacity:100%"></rect>
	      <rect x="99.658" y="152.494" width="7.11843" height="7.34388"
	       style=" stroke:#dcdcdc; stroke-width:1; fill:#b9b9b9; fill-opacity:100%"></rect>
	    </g>
	    <g>
	      <rect x="121.013" y="130.463" width="64.0659" height="7.34388"
	       style=" stroke:#dcdcdc; stroke-width:1; fill:#b9b9b9; fill-opacity:100%"></rect>
	      <rect x="99.658" y="130.463" width="7.11843" height="7.34388"
	       style=" stroke:#dcdcdc; stroke-width:1; fill:#b9b9b9; fill-opacity:100%"></rect>
	    </g>
	  </g>
	  <g>
	    <rect x="113.895" y="93.7434" width="42.7106" height="7.34388"
	     style=" stroke:#dcdcdc; stroke-width:1; fill:#b9b9b9; fill-opacity:100%"></rect>
	    <rect x="113.895" y="79.0556" width="42.7106" height="7.34388"
	     style=" stroke:#dcdcdc; stroke-width:1; fill:#b9b9b9; fill-opacity:100%"></rect>
	  </g>
	</g>
      </g>
      <g>
	<rect x="7.10543e-015" y="64.3679" width="113.895" height="117.502"
	 style=" stroke:#ce6700; stroke-width:1; fill:#ce6700; fill-opacity:100%"></rect>
	<rect x="12.203" y="76.9574" width="89.4886" height="92.3229"
	 style=" stroke:#ce6700; stroke-width:1; fill:#ffffff; fill-opacity:100%"></rect>
	<rect x="20.3383" y="89.5469" width="73.218" height="67.1441"
	 style=" stroke:#ce6700; stroke-width:1; fill:#ce6700; fill-opacity:100%"></rect>
	<rect x="28.4737" y="97.9399" width="56.9474" height="8.39303"
	 style=" stroke:#ce6700; stroke-width:1; fill:#ffffff; fill-opacity:100%"></rect>
	<g>
	  <ellipse  cx="44.7444" cy="131.512" rx="16.2707" ry="16.786"
	   style=" stroke:#ce6700; stroke-width:1; fill:#ffffff; fill-opacity:100%"></ellipse>
	  <polygon points="44.7444 110.529 44.7444 131.512 65.0828 131.512 
	   65.0828 110.529 44.7444 110.529 44.7444 110.529 44.7444 110.529 
	   44.7444 110.529 44.7444 110.529 44.7444 110.529 44.7444 110.529 
	   44.7444 110.529 44.7444 110.529 44.7444 110.529 44.7444 110.529 "
	   style=" stroke:#ce6700; stroke-width:1; fill:#ce6700; fill-opacity:100%"></polygon>
	</g>
	<g>
	  <rect x="65.0828" y="123.119" width="4.06768" height="4.19651"
	   style=" stroke:#ce6700; stroke-width:1; fill:#ffffff; fill-opacity:100%"></rect>
	  <rect x="73.218" y="123.119" width="12.203" height="4.19651"
	   style=" stroke:#ce6700; stroke-width:1; fill:#ffffff; fill-opacity:100%"></rect>
	  <rect x="65.0828" y="114.726" width="4.06768" height="4.19651"
	   style=" stroke:#ce6700; stroke-width:1; fill:#ffffff; fill-opacity:100%"></rect>
	  <rect x="73.218" y="114.726" width="12.203" height="4.19651"
	   style=" stroke:#ce6700; stroke-width:1; fill:#ffffff; fill-opacity:100%"></rect>
	  <rect x="73.218" y="131.512" width="12.203" height="4.19651"
	   style=" stroke:#ce6700; stroke-width:1; fill:#ffffff; fill-opacity:100%"></rect>
	  <rect x="65.0828" y="131.512" width="4.06768" height="4.19651"
	   style=" stroke:#ce6700; stroke-width:1; fill:#ffffff; fill-opacity:100%"></rect>
	</g>
      </g>
    </g>
    <rect x="234.9" y="-1.42109e-014" width="624" height="304"
     style=" stroke:#000000; stroke-width:1; fill:#dcdcdc; fill-opacity:100%"     class="TAG:canvas"></rect>
    <rect x="240.257" y="25.7143" width="569.522" height="231.429"
     style="stroke:none; fill:#878787; fill-opacity:0%"></rect>
    <g>
      <desc>METIS_TEXT_GROUP</desc>
      <text  x="250.9" y="15"
       style=" stroke:#000000; stroke-width:1; font-family:sans-serif; font-size:16;"
       class="TAG:text">text</text>
      <rect x="250.9" y="-1.42109e-014" width="608" height="304"
       style=" stroke:#000000; stroke-width:1; fill:#ffffff; fill-opacity:0%"></rect>
    </g>
  </symbol>
  <symbol id="oid3" xml:space="preserve" class="METIS_SYMBOL">
   <title>Microsoft Powerpoint Document With Windows Style Text</title>
    <g>
      <desc>METIS_TEXT_GROUP</desc>
      <text  x="1.42109e-014" y="84.2378"
       style=" stroke:#000000; stroke-width:1; font-family:sans-serif; font-size:10;"
       class="TAG:text">text</text>
      <rect x="1.42109e-014" y="75.2378" width="85.6454" height="29.7137"
       style=" stroke:#000000; stroke-width:1; fill:#dcdcdc; fill-opacity:0%"></rect>
    </g>
    <g>
      <g>
	<g>
	  <rect x="20.4278" y="-1.42109e-014" width="62.208" height="74.6496"
	   style=" stroke:#dcdcdc; stroke-width:1; fill:#b9b9b9; fill-opacity:100%"></rect>
	  <rect x="22.9162" y="2.48832" width="54.743" height="67.1846"
	   style=" stroke:#ffffff; stroke-width:1; fill:#ffffff; fill-opacity:100%"></rect>
	  <polygon points="62.7293 -1.42109e-014 62.7293 19.9066 82.6358 19.9066 
	   62.7293 -1.42109e-014 62.7293 -1.42109e-014 62.7293 -1.42109e-014 62.7293 -1.42109e-014 
	   62.7293 -1.42109e-014 62.7293 -1.42109e-014 62.7293 -1.42109e-014 62.7293 -1.42109e-014 62.7293 -1.42109e-014 "
	   style=" stroke:#696969; stroke-width:1; fill:#9b9b9b; fill-opacity:100%"></polygon>
	  <polygon points="82.6358 19.9066 82.6358 -1.42109e-014 62.7293 -1.42109e-014 
	   82.6358 19.9066 82.6358 19.9066 82.6358 19.9066 82.6358 19.9066 
	   82.6358 19.9066 82.6358 19.9066 82.6358 19.9066 82.6358 19.9066 82.6358 19.9066 "
	   style=" stroke:#ffffff; stroke-width:1; fill:#ffffff; fill-opacity:100%"></polygon>
	  <polygon points="62.7293 -1.42109e-014 62.7293 19.9066 82.6358 19.9066 
	   80.1475 17.4182 65.2176 17.4182 65.2176 2.48832 62.7293 -1.42109e-014 
	   62.7293 -1.42109e-014 62.7293 -1.42109e-014 62.7293 -1.42109e-014 62.7293 -1.42109e-014 
	   62.7293 -1.42109e-014 62.7293 -1.42109e-014 62.7293 -1.42109e-014 62.7293 -1.42109e-014 "
	   style=" stroke:#ffffff; stroke-width:1; fill:#b9b9b9; fill-opacity:100%"></polygon>
	  <polygon points="82.6358 19.9066 82.6358 74.6496 20.4278 74.6496 
	   20.4278 72.1613 80.1475 72.1613 80.1475 19.9066 82.6358 19.9066 
	   82.6358 19.9066 82.6358 19.9066 82.6358 19.9066 82.6358 19.9066 
	   82.6358 19.9066 82.6358 19.9066 82.6358 19.9066 82.6358 19.9066 "
	   style=" stroke:#ffffff; stroke-width:1; fill:#000000; fill-opacity:100%"></polygon>
	  <polygon points="80.1475 19.9066 80.1475 72.1613 22.9162 72.1613 
	   22.9162 69.673 77.6592 69.673 77.6592 19.9066 80.1475 19.9066 
	   80.1475 19.9066 80.1475 19.9066 80.1475 19.9066 80.1475 19.9066 
	   80.1475 19.9066 80.1475 19.9066 80.1475 19.9066 80.1475 19.9066 "
	   style=" stroke:#ffffff; stroke-width:1; fill:#dcdcdc; fill-opacity:100%"></polygon>
	  <polygon points="65.2176 4.97664 65.2176 17.4182 77.6592 17.4182 
	   65.2176 4.97664 65.2176 4.97664 65.2176 4.97664 65.2176 4.97664 
	   65.2176 4.97664 65.2176 4.97664 65.2176 4.97664 65.2176 4.97664 65.2176 4.97664 "
	   style=" stroke:#ffffff; stroke-width:1; fill:#ffffff; fill-opacity:100%"></polygon>
	</g>
	<g>
	  <g>
	    <g>
	      <rect x="45.311" y="52.2547" width="22.3949" height="2.48832"
	       style=" stroke:#dcdcdc; stroke-width:1; fill:#b9b9b9; fill-opacity:100%"></rect>
	      <rect x="37.8461" y="52.2547" width="2.48832" height="2.48832"
	       style=" stroke:#dcdcdc; stroke-width:1; fill:#b9b9b9; fill-opacity:100%"></rect>
	    </g>
	    <g>
	      <rect x="45.311" y="59.7197" width="22.3949" height="2.48832"
	       style=" stroke:#dcdcdc; stroke-width:1; fill:#b9b9b9; fill-opacity:100%"></rect>
	      <rect x="37.8461" y="59.7197" width="2.48832" height="2.48832"
	       style=" stroke:#dcdcdc; stroke-width:1; fill:#b9b9b9; fill-opacity:100%"></rect>
	    </g>
	    <g>
	      <rect x="45.311" y="44.7898" width="22.3949" height="2.48832"
	       style=" stroke:#dcdcdc; stroke-width:1; fill:#b9b9b9; fill-opacity:100%"></rect>
	      <rect x="37.8461" y="44.7898" width="2.48832" height="2.48832"
	       style=" stroke:#dcdcdc; stroke-width:1; fill:#b9b9b9; fill-opacity:100%"></rect>
	    </g>
	    <g>
	      <rect x="45.311" y="37.3248" width="22.3949" height="2.48832"
	       style=" stroke:#dcdcdc; stroke-width:1; fill:#b9b9b9; fill-opacity:100%"></rect>
	      <rect x="37.8461" y="37.3248" width="2.48832" height="2.48832"
	       style=" stroke:#dcdcdc; stroke-width:1; fill:#b9b9b9; fill-opacity:100%"></rect>
	    </g>
	    <g>
	      <rect x="45.311" y="29.8598" width="22.3949" height="2.48832"
	       style=" stroke:#dcdcdc; stroke-width:1; fill:#b9b9b9; fill-opacity:100%"></rect>
	      <rect x="37.8461" y="29.8598" width="2.48832" height="2.48832"
	       style=" stroke:#dcdcdc; stroke-width:1; fill:#b9b9b9; fill-opacity:100%"></rect>
	    </g>
	  </g>
	  <g>
	    <rect x="42.8227" y="17.4182" width="14.9299" height="2.48832"
	     style=" stroke:#dcdcdc; stroke-width:1; fill:#b9b9b9; fill-opacity:100%"></rect>
	    <rect x="42.8227" y="12.4416" width="14.9299" height="2.48832"
	     style=" stroke:#dcdcdc; stroke-width:1; fill:#b9b9b9; fill-opacity:100%"></rect>
	  </g>
	</g>
      </g>
      <g>
	<rect x="3.0096" y="7.46496" width="39.8131" height="39.8131"
	 style=" stroke:#ce6700; stroke-width:1; fill:#ce6700; fill-opacity:100%"></rect>
	<rect x="7.2753" y="11.7307" width="31.2817" height="31.2817"
	 style=" stroke:#ce6700; stroke-width:1; fill:#ffffff; fill-opacity:100%"></rect>
	<rect x="10.1191" y="15.9963" width="25.5941" height="22.7504"
	 style=" stroke:#ce6700; stroke-width:1; fill:#ce6700; fill-opacity:100%"></rect>
	<rect x="12.9629" y="18.8401" width="19.9066" height="2.8438"
	 style=" stroke:#ce6700; stroke-width:1; fill:#ffffff; fill-opacity:100%"></rect>
	<g>
	  <ellipse  cx="18.6505" cy="30.2154" rx="5.68758" ry="5.68758"
	   style=" stroke:#ce6700; stroke-width:1; fill:#ffffff; fill-opacity:100%"></ellipse>
	  <polygon points="18.6505 23.1058 18.6505 30.2154 25.76 30.2154 
	   25.76 23.1058 18.6505 23.1058 18.6505 23.1058 18.6505 23.1058 
	   18.6505 23.1058 18.6505 23.1058 18.6505 23.1058 18.6505 23.1058 
	   18.6505 23.1058 18.6505 23.1058 18.6505 23.1058 18.6505 23.1058 "
	   style=" stroke:#ce6700; stroke-width:1; fill:#ce6700; fill-opacity:100%"></polygon>
	</g>
	<g>
	  <rect x="25.76" y="27.3715" width="1.4219" height="1.4219"
	   style=" stroke:#ce6700; stroke-width:1; fill:#ffffff; fill-opacity:100%"></rect>
	  <rect x="28.6037" y="27.3715" width="4.2657" height="1.4219"
	   style=" stroke:#ce6700; stroke-width:1; fill:#ffffff; fill-opacity:100%"></rect>
	  <rect x="25.76" y="24.5277" width="1.4219" height="1.4219"
	   style=" stroke:#ce6700; stroke-width:1; fill:#ffffff; fill-opacity:100%"></rect>
	  <rect x="28.6037" y="24.5277" width="4.2657" height="1.4219"
	   style=" stroke:#ce6700; stroke-width:1; fill:#ffffff; fill-opacity:100%"></rect>
	  <rect x="28.6037" y="30.2154" width="4.2657" height="1.4219"
	   style=" stroke:#ce6700; stroke-width:1; fill:#ffffff; fill-opacity:100%"></rect>
	  <rect x="25.76" y="30.2154" width="1.4219" height="1.4219"
	   style=" stroke:#ce6700; stroke-width:1; fill:#ffffff; fill-opacity:100%"></rect>
	</g>
      </g>
    </g>
  </symbol>
  <symbol id="oid2" xml:space="preserve" class="METIS_SYMBOL">
   <title>Microsoft Powerpoint Presentation</title>
    <g>
      <g>
	<g>
	  <rect x="7" y="-8.88178e-015" width="25" height="30"
	   style=" stroke:#dcdcdc; stroke-width:1; fill:#b9b9b9; fill-opacity:100%"></rect>
	  <rect x="8" y="1" width="22" height="27"
	   style=" stroke:#ffffff; stroke-width:1; fill:#ffffff; fill-opacity:100%"></rect>
	  <polygon points="24 -8.88178e-015 24 8 32 8 
	   24 -8.88178e-015 24 -8.88178e-015 24 -8.88178e-015 24 -8.88178e-015 
	   24 -8.88178e-015 24 -8.88178e-015 24 -8.88178e-015 24 -8.88178e-015 24 -8.88178e-015 "
	   style=" stroke:#696969; stroke-width:1; fill:#9b9b9b; fill-opacity:100%"></polygon>
	  <polygon points="32 8 32 -8.88178e-015 24 -8.88178e-015 
	   32 8 32 8 32 8 32 8 
	   32 8 32 8 32 8 32 8 32 8 "
	   style=" stroke:#ffffff; stroke-width:1; fill:#ffffff; fill-opacity:100%"></polygon>
	  <polygon points="24 -8.88178e-015 24 8 32 8 
	   31 7 25 7 25 1 24 -8.88178e-015 
	   24 -8.88178e-015 24 -8.88178e-015 24 -8.88178e-015 24 -8.88178e-015 
	   24 -8.88178e-015 24 -8.88178e-015 24 -8.88178e-015 24 -8.88178e-015 "
	   style=" stroke:#ffffff; stroke-width:1; fill:#b9b9b9; fill-opacity:100%"></polygon>
	  <polygon points="32 8 32 30 7 30 
	   7 29 31 29 31 8 32 8 
	   32 8 32 8 32 8 32 8 
	   32 8 32 8 32 8 32 8 "
	   style=" stroke:#ffffff; stroke-width:1; fill:#000000; fill-opacity:100%"></polygon>
	  <polygon points="31 8 31 29 8 29 
	   8 28 30 28 30 8 31 8 
	   31 8 31 8 31 8 31 8 
	   31 8 31 8 31 8 31 8 "
	   style=" stroke:#ffffff; stroke-width:1; fill:#dcdcdc; fill-opacity:100%"></polygon>
	  <polygon points="25 2 25 7 30 7 
	   25 2 25 2 25 2 25 2 
	   25 2 25 2 25 2 25 2 25 2 "
	   style=" stroke:#ffffff; stroke-width:1; fill:#ffffff; fill-opacity:100%"></polygon>
	</g>
	<g>
	  <g>
	    <g>
	      <rect x="17" y="21" width="9" height="1"
	       style=" stroke:#dcdcdc; stroke-width:1; fill:#b9b9b9; fill-opacity:100%"></rect>
	      <rect x="14" y="21" width="1" height="1"
	       style=" stroke:#dcdcdc; stroke-width:1; fill:#b9b9b9; fill-opacity:100%"></rect>
	    </g>
	    <g>
	      <rect x="17" y="24" width="9" height="1"
	       style=" stroke:#dcdcdc; stroke-width:1; fill:#b9b9b9; fill-opacity:100%"></rect>
	      <rect x="14" y="24" width="1" height="1"
	       style=" stroke:#dcdcdc; stroke-width:1; fill:#b9b9b9; fill-opacity:100%"></rect>
	    </g>
	    <g>
	      <rect x="17" y="18" width="9" height="1"
	       style=" stroke:#dcdcdc; stroke-width:1; fill:#b9b9b9; fill-opacity:100%"></rect>
	      <rect x="14" y="18" width="1" height="1"
	       style=" stroke:#dcdcdc; stroke-width:1; fill:#b9b9b9; fill-opacity:100%"></rect>
	    </g>
	    <g>
	      <rect x="17" y="15" width="9" height="1"
	       style=" stroke:#dcdcdc; stroke-width:1; fill:#b9b9b9; fill-opacity:100%"></rect>
	      <rect x="14" y="15" width="1" height="1"
	       style=" stroke:#dcdcdc; stroke-width:1; fill:#b9b9b9; fill-opacity:100%"></rect>
	    </g>
	    <g>
	      <rect x="17" y="12" width="9" height="1"
	       style=" stroke:#dcdcdc; stroke-width:1; fill:#b9b9b9; fill-opacity:100%"></rect>
	      <rect x="14" y="12" width="1" height="1"
	       style=" stroke:#dcdcdc; stroke-width:1; fill:#b9b9b9; fill-opacity:100%"></rect>
	    </g>
	  </g>
	  <g>
	    <rect x="16" y="7" width="6" height="1"
	     style=" stroke:#dcdcdc; stroke-width:1; fill:#b9b9b9; fill-opacity:100%"></rect>
	    <rect x="16" y="5" width="6" height="1"
	     style=" stroke:#dcdcdc; stroke-width:1; fill:#b9b9b9; fill-opacity:100%"></rect>
	  </g>
	</g>
      </g>
      <g>
	<rect x="1.42109e-014" y="3" width="16" height="16"
	 style=" stroke:#ce6700; stroke-width:1; fill:#ce6700; fill-opacity:100%"></rect>
	<rect x="1.71429" y="4.71429" width="12.5714" height="12.5714"
	 style=" stroke:#ce6700; stroke-width:1; fill:#ffffff; fill-opacity:100%"></rect>
	<rect x="2.85714" y="6.42857" width="10.2857" height="9.14286"
	 style=" stroke:#ce6700; stroke-width:1; fill:#ce6700; fill-opacity:100%"></rect>
	<rect x="4" y="7.57143" width="8" height="1.14286"
	 style=" stroke:#ce6700; stroke-width:1; fill:#ffffff; fill-opacity:100%"></rect>
	<g>
	  <ellipse  cx="6.28571" cy="12.1429" rx="2.28571" ry="2.28571"
	   style=" stroke:#ce6700; stroke-width:1; fill:#ffffff; fill-opacity:100%"></ellipse>
	  <polygon points="6.28571 9.28571 6.28571 12.1429 9.14286 12.1429 
	   9.14286 9.28571 6.28571 9.28571 6.28571 9.28571 6.28571 9.28571 
	   6.28571 9.28571 6.28571 9.28571 6.28571 9.28571 6.28571 9.28571 
	   6.28571 9.28571 6.28571 9.28571 6.28571 9.28571 6.28571 9.28571 "
	   style=" stroke:#ce6700; stroke-width:1; fill:#ce6700; fill-opacity:100%"></polygon>
	</g>
	<g>
	  <rect x="9.14286" y="11" width="0.571429" height="0.571429"
	   style=" stroke:#ce6700; stroke-width:1; fill:#ffffff; fill-opacity:100%"></rect>
	  <rect x="10.2857" y="11" width="1.71429" height="0.571429"
	   style=" stroke:#ce6700; stroke-width:1; fill:#ffffff; fill-opacity:100%"></rect>
	  <rect x="9.14286" y="9.85714" width="0.571429" height="0.571429"
	   style=" stroke:#ce6700; stroke-width:1; fill:#ffffff; fill-opacity:100%"></rect>
	  <rect x="10.2857" y="9.85714" width="1.71429" height="0.571429"
	   style=" stroke:#ce6700; stroke-width:1; fill:#ffffff; fill-opacity:100%"></rect>
	  <rect x="10.2857" y="12.1429" width="1.71429" height="0.571429"
	   style=" stroke:#ce6700; stroke-width:1; fill:#ffffff; fill-opacity:100%"></rect>
	  <rect x="9.14286" y="12.1429" width="0.571429" height="0.571429"
	   style=" stroke:#ce6700; stroke-width:1; fill:#ffffff; fill-opacity:100%"></rect>
	</g>
      </g>
    </g>
  </symbol>
  <symbol id="oid1" xml:space="preserve" class="METIS_SYMBOL">
   <title>Microsoft Powerpoint Application</title>
    <g>
      <rect x="2" y="-9.76996e-015" width="28" height="28"
       style=" stroke:#ce6700; stroke-width:1; fill:#ce6700; fill-opacity:100%"></rect>
      <rect x="5" y="3" width="22" height="22"
       style=" stroke:#ffffff; stroke-width:1; fill:#ffffff; fill-opacity:100%"></rect>
      <rect x="7" y="6" width="18" height="16"
       style=" stroke:#ce6700; stroke-width:1; fill:#ce6700; fill-opacity:100%"></rect>
      <rect x="9" y="8" width="14" height="2"
       style=" stroke:#ffffff; stroke-width:1; fill:#ffffff; fill-opacity:100%"></rect>
      <ellipse  cx="13" cy="16" rx="4" ry="4"
       style=" stroke:#ffffff; stroke-width:1; fill:#ffffff; fill-opacity:100%"></ellipse>
      <polygon points="13 11 13 16 18 16 
       18 11 13 11 13 11 13 11 
       13 11 13 11 13 11 13 11 
       13 11 13 11 13 11 13 11 "
       style=" stroke:#ce6700; stroke-width:1; fill:#ce6700; fill-opacity:100%"></polygon>
      <rect x="18" y="14" width="1" height="1"
       style=" stroke:#ffffff; stroke-width:1; fill:#ffffff; fill-opacity:100%"></rect>
      <rect x="20" y="14" width="3" height="1"
       style=" stroke:#ffffff; stroke-width:1; fill:#ffffff; fill-opacity:100%"></rect>
      <rect x="18" y="12" width="1" height="1"
       style=" stroke:#ffffff; stroke-width:1; fill:#ffffff; fill-opacity:100%"></rect>
      <rect x="20" y="12" width="3" height="1"
       style=" stroke:#ffffff; stroke-width:1; fill:#ffffff; fill-opacity:100%"></rect>
      <rect x="20" y="16" width="3" height="1"
       style=" stroke:#ffffff; stroke-width:1; fill:#ffffff; fill-opacity:100%"></rect>
      <rect x="18" y="16" width="1" height="1"
       style=" stroke:#ffffff; stroke-width:1; fill:#ffffff; fill-opacity:100%"></rect>
    </g>
    <g>
      <polygon points="1.42109e-014 19 11 19 10 20 
       1 20 1 29 1.42109e-014 30 1.42109e-014 19 
       1.42109e-014 19 1.42109e-014 19 1.42109e-014 19 1.42109e-014 19 
       1.42109e-014 19 1.42109e-014 19 1.42109e-014 19 1.42109e-014 19 
       1.42109e-014 19 1.42109e-014 19 "
       style=" stroke:#878787; stroke-width:1; fill:#b9b9b9; fill-opacity:100%"></polygon>
      <polygon points="10 20 11 19 11 30 
       1.42109e-014 30 1 29 10 29 10 20 
       10 20 10 20 10 20 10 20 
       10 20 10 20 10 20 10 20 
       10 20 10 20 "
       style=" stroke:#878787; stroke-width:1; fill:#000000; fill-opacity:100%"></polygon>
      <rect x="1" y="20" width="9" height="9"
       style=" stroke:#878787; stroke-width:1; fill:#ffffff; fill-opacity:100%"></rect>
      <path d="M 4 21 C 6 21 5 21 
       8 21 C 8 21 8 24 8 25 
       C 8 25.2977 7.54999 24 7 24 C 5.35003 24 
       4 25.35 4 27 C 4 27.55 5.11391 27.725 
       5 28 C 4.91945 28.1945 4.24915 28.1032 4 28 
       C 3.64765 27.8541 3.14595 27.3523 3 27 C 2.6904 26.2526 
       2.6904 24.7474 3 24 C 3.21892 23.4715 3.66419 23.1036 
       5 22 Z"
       style=" stroke:#878787; stroke-width:1; fill:#000000; fill-opacity:100%"></path>
    </g>
  </symbol>
 </defs>
</svg>
