<?xml version="1.0"?>
<?metis version="3.4.1"?>
<?metisxml version="1.1"?>
<!DOCTYPE svg  PUBLIC "-//W3C//DTD SVG August 1999//EN"
 "http://www.w3.org/Graphics/SVG/svg-19990812.dtd">



<!--
Troux Technologies, Inc. Confidential and Proprietary.
This work contains valuable confidential, proprietary and trade secret
information of Troux Technologies, Inc. and is protected by the laws of 
the United States and other countries. Any disclosure, use or reproduction
of this work without the prior written authorization of Troux Technologies, Inc.
is strictly prohibited.
Copyright (C) 2000-2006 Troux Technologies, Inc. All rights reserved.
-->


<svg
 width="200" height="200">
 <title>Symbol library: microsoft_internet_explorer.svg</title>
 <defs>
  <symbol id="oid2" xml:space="preserve" class="METIS_SYMBOL">
   <title>Internet Explorer Shortcut With Windows Style Text</title>
    <g>
      <desc>METIS_TEXT_GROUP</desc>
      <text  x="0" y="89.8541"
       style=" stroke:#000000; stroke-width:1; font-family:sans-serif; font-size:10;"
       class="TAG:text">text</text>
      <rect x="0" y="80.8541" width="85.6454" height="29.7137"
       style=" stroke:#000000; stroke-width:1; fill:#dcdcdc; fill-opacity:0%"></rect>
    </g>
    <g>
      <path d="M 25.3053 24.7775 C 33.762 14.1586 65.1725 3.55271e-015 
       73.6291 8.25916 C 84.4696 18.8465 70.0048 46.0153 57.9239 58.994 
       C 45.843 71.9727 21.6811 87.3111 12.0163 77.8721 C 1.17584 67.2848 
       13.2244 40.1159 22.8892 27.1372 Z"
       style=" stroke:#00d2e8; stroke-width:1; fill:#00d2e8; fill-opacity:100%"></path>
      <g>
	<path d="M 28.2149 27.8388 C 35.5742 18.9419 62.9087 7.07928 
	 70.2682 13.9991 C 79.702 22.8696 63.6372 45.7602 53.1239 56.6342 
	 C 42.6106 67.5082 25.0608 80.2318 16.6501 72.3233 C 7.21631 63.453 
	 17.7015 40.6898 26.1121 29.8158 Z"
	 style=" stroke:#ffffff; stroke-width:1; fill:#ffffff; fill-opacity:100%"></path>
	<path d="M 60.3725 12.9787 C 68.5517 13.4481 68.8291 12.9787 
	 70.0372 14.1586 C 71.2453 15.3384 78.4939 22.4177 74.8696 35.3964 
	 C 74.8696 35.3964 65.2048 27.1372 65.2048 23.5976 Z"
	 style=" stroke:#ffffff; stroke-width:1; fill:#ffffff; fill-opacity:100%"></path>
	<g>
	  <ellipse  cx="43.4591" cy="41.7262" rx="32.6185" ry="30.6769"
	   style=" stroke:#00d2e8; stroke-width:1; fill:#00d2e8; fill-opacity:100%"></ellipse>
	  <g>
	    <path d="M 33.7944 46.4457 C 33.7944 52.3451 37.4187 55.8848 
	     42.251 55.8848 C 47.0834 55.8848 50.7077 52.3451 50.7077 46.4457 Z"
	     style=" stroke:#ffffff; stroke-width:1; fill:#ffffff; fill-opacity:100%"></path>
	    <path d="M 33.7944 34.6469 C 33.7944 28.7475 37.4187 25.2079 
	     42.251 25.2079 C 47.0834 25.2079 50.7077 28.7475 50.7077 34.6469 Z"
	     style=" stroke:#ffffff; stroke-width:1; fill:#ffffff; fill-opacity:100%"></path>
	    <rect x="48.2915" y="46.4457" width="28.9943" height="2.35976"
	     style=" stroke:#ffffff; stroke-width:1; fill:#ffffff; fill-opacity:100%"></rect>
	  </g>
	</g>
      </g>
    </g>
  </symbol>
  <symbol id="oid1" xml:space="preserve" class="METIS_SYMBOL">
   <title>Internet Explorer Application</title>
    <g>
      <path d="M 9.9866 10.5 C 13.4866 6 26.4866 4.44089e-015 
       29.9866 3.5 C 34.4732 7.9866 28.4866 19.5 23.4866 25 
       C 18.4866 30.5 8.4866 37 4.4866 33 C -1.77636e-015 28.5134 
       4.9866 17 8.9866 11.5 Z"
       style=" stroke:#00d2e8; stroke-width:1; fill:#00d2e8; fill-opacity:100%"></path>
      <g>
	<path d="M 11.1908 11.7973 C 14.2366 8.02703 25.5497 3 
	 28.5956 5.93243 C 32.5 9.69148 25.8512 19.3919 21.5 24 
	 C 17.1488 28.6081 9.88539 34 6.40442 30.6486 C 2.5 26.8896 
	 6.83954 17.2432 10.3205 12.6351 Z"
	 style=" stroke:#ffffff; stroke-width:1; fill:#ffffff; fill-opacity:100%"></path>
	<path d="M 24.5 5.5 C 27.8852 5.69895 28 5.5 
	 28.5 6 C 29 6.5 32 9.5 30.5 15 
	 C 30.5 15 26.5 11.5 26.5 10 Z"
	 style=" stroke:#ffffff; stroke-width:1; fill:#ffffff; fill-opacity:100%"></path>
	<g>
	  <ellipse  cx="17.5" cy="17.6824" rx="13.5" ry="13"
	   style=" stroke:#00d2e8; stroke-width:1; fill:#00d2e8; fill-opacity:100%"></ellipse>
	  <g>
	    <path d="M 13.5 19.6824 C 13.5 22.1824 15 23.6824 
	     17 23.6824 C 19 23.6824 20.5 22.1824 20.5 19.6824 Z"
	     style=" stroke:#ffffff; stroke-width:1; fill:#ffffff; fill-opacity:100%"></path>
	    <path d="M 13.5 14.6824 C 13.5 12.1824 15 10.6824 
	     17 10.6824 C 19 10.6824 20.5 12.1824 20.5 14.6824 Z"
	     style=" stroke:#ffffff; stroke-width:1; fill:#ffffff; fill-opacity:100%"></path>
	    <rect x="19.5" y="19.6824" width="12" height="1"
	     style=" stroke:#ffffff; stroke-width:1; fill:#ffffff; fill-opacity:100%"></rect>
	  </g>
	</g>
      </g>
    </g>
  </symbol>
 </defs>
</svg>
