<?xml version="1.0"?>
<?metis version="3.4.1"?>
<?metisxml version="1.1"?>
<!DOCTYPE svg  PUBLIC "-//W3C//DTD SVG August 1999//EN"
 "http://www.w3.org/Graphics/SVG/svg-19990812.dtd">



<!--
Troux Technologies, Inc. Confidential and Proprietary.
This work contains valuable confidential, proprietary and trade secret
information of Troux Technologies, Inc. and is protected by the laws of 
the United States and other countries. Any disclosure, use or reproduction
of this work without the prior written authorization of Troux Technologies, Inc.
is strictly prohibited.
Copyright (C) 2000-2006 Troux Technologies, Inc. All rights reserved.
-->


<svg
 width="200" height="200">
 <title>Symbol library: microsoft_word.svg</title>
 <defs>
  <symbol id="oid3" xml:space="preserve" class="METIS_SYMBOL">
   <title>Microsoft Word Document With Windows Style Text</title>
    <g>
      <desc>METIS_TEXT_GROUP</desc>
      <text  x="0" y="83.8281"
       style=" stroke:#000000; stroke-width:1; font-family:sans-serif; font-size:10;"
       class="TAG:text">text</text>
      <rect x="0" y="74.8281" width="85.6454" height="29.7137"
       style=" stroke:#000000; stroke-width:1; fill:#dcdcdc; fill-opacity:0%"></rect>
    </g>
    <g>
      <g>
	<g>
	  <rect x="23.4374" y="0" width="62.208" height="74.6496"
	   style=" stroke:#dcdcdc; stroke-width:1; fill:#b9b9b9; fill-opacity:100%"></rect>
	  <rect x="25.9258" y="2.48832" width="54.743" height="67.1846"
	   style=" stroke:#ffffff; stroke-width:1; fill:#ffffff; fill-opacity:100%"></rect>
	  <polygon points="65.7389 0 65.7389 19.9066 85.6454 19.9066 
	   65.7389 0 65.7389 0 65.7389 0 65.7389 0 
	   65.7389 0 65.7389 0 65.7389 0 65.7389 0 "
	   style=" stroke:#696969; stroke-width:1; fill:#9b9b9b; fill-opacity:100%"></polygon>
	  <polygon points="85.6454 19.9066 85.6454 0 65.7389 0 
	   85.6454 19.9066 85.6454 19.9066 85.6454 19.9066 85.6454 19.9066 
	   85.6454 19.9066 85.6454 19.9066 85.6454 19.9066 85.6454 19.9066 "
	   style=" stroke:#ffffff; stroke-width:1; fill:#ffffff; fill-opacity:100%"></polygon>
	  <polygon points="65.7389 0 65.7389 19.9066 85.6454 19.9066 
	   83.1571 17.4182 68.2272 17.4182 68.2272 2.48832 65.7389 0 
	   65.7389 0 65.7389 0 65.7389 0 65.7389 0 
	   65.7389 0 65.7389 0 65.7389 0 "
	   style=" stroke:#ffffff; stroke-width:1; fill:#b9b9b9; fill-opacity:100%"></polygon>
	  <polygon points="85.6454 19.9066 85.6454 74.6496 23.4374 74.6496 
	   23.4374 72.1613 83.1571 72.1613 83.1571 19.9066 85.6454 19.9066 
	   85.6454 19.9066 85.6454 19.9066 85.6454 19.9066 85.6454 19.9066 
	   85.6454 19.9066 85.6454 19.9066 85.6454 19.9066 "
	   style=" stroke:#ffffff; stroke-width:1; fill:#000000; fill-opacity:100%"></polygon>
	  <polygon points="83.1571 19.9066 83.1571 72.1613 25.9258 72.1613 
	   25.9258 69.673 80.6688 69.673 80.6688 19.9066 83.1571 19.9066 
	   83.1571 19.9066 83.1571 19.9066 83.1571 19.9066 83.1571 19.9066 
	   83.1571 19.9066 83.1571 19.9066 83.1571 19.9066 "
	   style=" stroke:#ffffff; stroke-width:1; fill:#dcdcdc; fill-opacity:100%"></polygon>
	  <polygon points="68.2272 4.97664 68.2272 17.4182 80.6688 17.4182 
	   68.2272 4.97664 68.2272 4.97664 68.2272 4.97664 68.2272 4.97664 
	   68.2272 4.97664 68.2272 4.97664 68.2272 4.97664 68.2272 4.97664 "
	   style=" stroke:#ffffff; stroke-width:1; fill:#ffffff; fill-opacity:100%"></polygon>
	</g>
	<g>
	  <g>
	    <rect x="55.7856" y="60.9638" width="14.9299" height="2.48832"
	     style=" stroke:#b9b9b9; stroke-width:1; fill:#b9b9b9; fill-opacity:100%"></rect>
	    <rect x="30.9024" y="55.9872" width="39.8131" height="2.48832"
	     style=" stroke:#b9b9b9; stroke-width:1; fill:#b9b9b9; fill-opacity:100%"></rect>
	    <rect x="30.9024" y="51.0106" width="39.8131" height="2.48832"
	     style=" stroke:#b9b9b9; stroke-width:1; fill:#b9b9b9; fill-opacity:100%"></rect>
	    <rect x="30.9024" y="46.0339" width="39.8131" height="2.48832"
	     style=" stroke:#b9b9b9; stroke-width:1; fill:#b9b9b9; fill-opacity:100%"></rect>
	    <rect x="30.9024" y="41.0573" width="39.8131" height="2.48832"
	     style=" stroke:#b9b9b9; stroke-width:1; fill:#b9b9b9; fill-opacity:100%"></rect>
	    <rect x="30.9024" y="36.0806" width="39.8131" height="2.48832"
	     style=" stroke:#b9b9b9; stroke-width:1; fill:#b9b9b9; fill-opacity:100%"></rect>
	    <rect x="30.9024" y="31.104" width="17.4182" height="2.48832"
	     style=" stroke:#b9b9b9; stroke-width:1; fill:#b9b9b9; fill-opacity:100%"></rect>
	    <rect x="30.9024" y="26.1274" width="17.4182" height="2.48832"
	     style=" stroke:#b9b9b9; stroke-width:1; fill:#b9b9b9; fill-opacity:100%"></rect>
	    <rect x="30.9024" y="21.1507" width="17.4182" height="2.48832"
	     style=" stroke:#b9b9b9; stroke-width:1; fill:#b9b9b9; fill-opacity:100%"></rect>
	  </g>
	  <polygon points="58.2739 18.6624 58.2739 21.1507 55.7856 21.1507 
	   55.7856 23.639 60.7622 23.639 60.7622 26.1274 58.2739 26.1274 
	   58.2739 28.6157 60.7622 28.6157 60.7622 31.104 63.2506 31.104 
	   63.2506 28.6157 68.2272 28.6157 68.2272 26.1274 65.7389 26.1274 
	   65.7389 23.639 68.2272 23.639 68.2272 21.1507 63.2506 21.1507 
	   63.2506 18.6624 58.2739 18.6624 58.2739 18.6624 58.2739 18.6624 
	   58.2739 18.6624 58.2739 18.6624 58.2739 18.6624 58.2739 18.6624 58.2739 18.6624 "
	   style=" stroke:#ffffff; stroke-width:1; fill:#ffffff; fill-opacity:100%"></polygon>
	  <polygon points="53.2973 13.6858 53.2973 33.5923 70.7155 33.5923 
	   70.7155 21.1507 63.2506 21.1507 63.2506 13.6858 53.2973 13.6858 
	   53.2973 13.6858 53.2973 13.6858 53.2973 13.6858 53.2973 13.6858 
	   53.2973 13.6858 53.2973 13.6858 53.2973 13.6858 "
	   style=" stroke:#dcdcdc; stroke-width:1; fill:#dcdcdc; fill-opacity:100%"></polygon>
	  <polygon points="58.2739 18.6624 58.2739 21.1507 55.7856 21.1507 
	   55.7856 23.639 60.7622 23.639 60.7622 26.1274 58.2739 26.1274 
	   58.2739 28.6157 60.7622 28.6157 60.7622 31.104 63.2506 31.104 
	   63.2506 28.6157 68.2272 28.6157 68.2272 26.1274 65.7389 26.1274 
	   65.7389 23.639 68.2272 23.639 68.2272 21.1507 63.2506 21.1507 
	   63.2506 18.6624 58.2739 18.6624 58.2739 18.6624 58.2739 18.6624 
	   58.2739 18.6624 58.2739 18.6624 58.2739 18.6624 58.2739 18.6624 58.2739 18.6624 "
	   style=" stroke:#ffffff; stroke-width:1; fill:#ffffff; fill-opacity:100%"></polygon>
	</g>
      </g>
      <g>
	<rect x="2.28671" y="7.46496" width="41.0573" height="41.0573"
	 style=" stroke:#878787; stroke-width:1; fill:#00006e; fill-opacity:100%"></rect>
	<rect x="6.68572" y="11.864" width="32.2593" height="32.2593"
	 style=" stroke:#878787; stroke-width:1; fill:#ffffff; fill-opacity:100%"></rect>
	<polygon points="8.15203 17.7293 8.15203 20.6619 11.0847 20.6619 
	 11.0847 39.7243 16.95 39.7243 21.349 32.3927 21.349 39.7243 
	 28.6806 39.7243 37.4788 20.6619 38.9449 20.6619 38.9449 17.7293 
	 30.1469 17.7293 30.1469 20.6619 31.6133 20.6619 28.6806 26.5272 
	 28.6806 17.7293 21.349 17.7293 16.95 27.9936 16.95 20.6619 
	 19.8827 20.6619 19.8827 17.7293 8.15203 17.7293 8.15203 17.7293 
	 8.15203 17.7293 8.15203 17.7293 8.15203 17.7293 8.15203 17.7293 
	 8.15203 17.7293 8.15203 17.7293 8.15203 17.7293 8.15203 17.7293 "
	 style=" stroke:#00006e; stroke-width:1; fill:#00006e; fill-opacity:100%"></polygon>
      </g>
    </g>
  </symbol>
  <symbol id="oid2" xml:space="preserve" class="METIS_SYMBOL">
   <title>Microsoft Word Document</title>
    <g>
      <g>
	<g>
	  <rect x="8.5" y="0" width="25" height="30"
	   style=" stroke:#dcdcdc; stroke-width:1; fill:#b9b9b9; fill-opacity:100%"></rect>
	  <rect x="9.5" y="1" width="22" height="27"
	   style=" stroke:#ffffff; stroke-width:1; fill:#ffffff; fill-opacity:100%"></rect>
	  <polygon points="25.5 0 25.5 8 33.5 8 
	   25.5 0 25.5 0 25.5 0 25.5 0 
	   25.5 0 25.5 0 25.5 0 25.5 0 "
	   style=" stroke:#696969; stroke-width:1; fill:#9b9b9b; fill-opacity:100%"></polygon>
	  <polygon points="33.5 8 33.5 0 25.5 0 
	   33.5 8 33.5 8 33.5 8 33.5 8 
	   33.5 8 33.5 8 33.5 8 33.5 8 "
	   style=" stroke:#ffffff; stroke-width:1; fill:#ffffff; fill-opacity:100%"></polygon>
	  <polygon points="25.5 0 25.5 8 33.5 8 
	   32.5 7 26.5 7 26.5 1 25.5 0 
	   25.5 0 25.5 0 25.5 0 25.5 0 
	   25.5 0 25.5 0 25.5 0 "
	   style=" stroke:#ffffff; stroke-width:1; fill:#b9b9b9; fill-opacity:100%"></polygon>
	  <polygon points="33.5 8 33.5 30 8.5 30 
	   8.5 29 32.5 29 32.5 8 33.5 8 
	   33.5 8 33.5 8 33.5 8 33.5 8 
	   33.5 8 33.5 8 33.5 8 "
	   style=" stroke:#ffffff; stroke-width:1; fill:#000000; fill-opacity:100%"></polygon>
	  <polygon points="32.5 8 32.5 29 9.5 29 
	   9.5 28 31.5 28 31.5 8 32.5 8 
	   32.5 8 32.5 8 32.5 8 32.5 8 
	   32.5 8 32.5 8 32.5 8 "
	   style=" stroke:#ffffff; stroke-width:1; fill:#dcdcdc; fill-opacity:100%"></polygon>
	  <polygon points="26.5 2 26.5 7 31.5 7 
	   26.5 2 26.5 2 26.5 2 26.5 2 
	   26.5 2 26.5 2 26.5 2 26.5 2 "
	   style=" stroke:#ffffff; stroke-width:1; fill:#ffffff; fill-opacity:100%"></polygon>
	</g>
	<g>
	  <g>
	    <rect x="21.5" y="24.5" width="6" height="1"
	     style=" stroke:#b9b9b9; stroke-width:1; fill:#b9b9b9; fill-opacity:100%"></rect>
	    <rect x="11.5" y="22.5" width="16" height="1"
	     style=" stroke:#b9b9b9; stroke-width:1; fill:#b9b9b9; fill-opacity:100%"></rect>
	    <rect x="11.5" y="20.5" width="16" height="1"
	     style=" stroke:#b9b9b9; stroke-width:1; fill:#b9b9b9; fill-opacity:100%"></rect>
	    <rect x="11.5" y="18.5" width="16" height="1"
	     style=" stroke:#b9b9b9; stroke-width:1; fill:#b9b9b9; fill-opacity:100%"></rect>
	    <rect x="11.5" y="16.5" width="16" height="1"
	     style=" stroke:#b9b9b9; stroke-width:1; fill:#b9b9b9; fill-opacity:100%"></rect>
	    <rect x="11.5" y="14.5" width="16" height="1"
	     style=" stroke:#b9b9b9; stroke-width:1; fill:#b9b9b9; fill-opacity:100%"></rect>
	    <rect x="11.5" y="12.5" width="7" height="1"
	     style=" stroke:#b9b9b9; stroke-width:1; fill:#b9b9b9; fill-opacity:100%"></rect>
	    <rect x="11.5" y="10.5" width="7" height="1"
	     style=" stroke:#b9b9b9; stroke-width:1; fill:#b9b9b9; fill-opacity:100%"></rect>
	    <rect x="11.5" y="8.5" width="7" height="1"
	     style=" stroke:#b9b9b9; stroke-width:1; fill:#b9b9b9; fill-opacity:100%"></rect>
	  </g>
	  <polygon points="22.5 7.5 22.5 8.5 21.5 8.5 
	   21.5 9.5 23.5 9.5 23.5 10.5 22.5 10.5 
	   22.5 11.5 23.5 11.5 23.5 12.5 24.5 12.5 
	   24.5 11.5 26.5 11.5 26.5 10.5 25.5 10.5 
	   25.5 9.5 26.5 9.5 26.5 8.5 24.5 8.5 
	   24.5 7.5 22.5 7.5 22.5 7.5 22.5 7.5 
	   22.5 7.5 22.5 7.5 22.5 7.5 22.5 7.5 22.5 7.5 "
	   style=" stroke:#ffffff; stroke-width:1; fill:#ffffff; fill-opacity:100%"></polygon>
	  <polygon points="20.5 5.5 20.5 13.5 27.5 13.5 
	   27.5 8.5 24.5 8.5 24.5 5.5 20.5 5.5 
	   20.5 5.5 20.5 5.5 20.5 5.5 20.5 5.5 
	   20.5 5.5 20.5 5.5 20.5 5.5 "
	   style=" stroke:#dcdcdc; stroke-width:1; fill:#dcdcdc; fill-opacity:100%"></polygon>
	  <polygon points="22.5 7.5 22.5 8.5 21.5 8.5 
	   21.5 9.5 23.5 9.5 23.5 10.5 22.5 10.5 
	   22.5 11.5 23.5 11.5 23.5 12.5 24.5 12.5 
	   24.5 11.5 26.5 11.5 26.5 10.5 25.5 10.5 
	   25.5 9.5 26.5 9.5 26.5 8.5 24.5 8.5 
	   24.5 7.5 22.5 7.5 22.5 7.5 22.5 7.5 
	   22.5 7.5 22.5 7.5 22.5 7.5 22.5 7.5 22.5 7.5 "
	   style=" stroke:#ffffff; stroke-width:1; fill:#ffffff; fill-opacity:100%"></polygon>
	</g>
      </g>
      <g>
	<rect x="-3.55271e-015" y="3" width="16.5" height="16.5"
	 style=" stroke:#878787; stroke-width:1; fill:#00006e; fill-opacity:100%"></rect>
	<rect x="1.76786" y="4.76786" width="12.9643" height="12.9643"
	 style=" stroke:#878787; stroke-width:1; fill:#ffffff; fill-opacity:100%"></rect>
	<polygon points="2.35714 7.125 2.35714 8.30357 3.53571 8.30357 
	 3.53571 15.9643 5.89286 15.9643 7.66071 13.0179 7.66071 15.9643 
	 10.6071 15.9643 14.1429 8.30357 14.7321 8.30357 14.7321 7.125 
	 11.1964 7.125 11.1964 8.30357 11.7857 8.30357 10.6071 10.6607 
	 10.6071 7.125 7.66071 7.125 5.89286 11.25 5.89286 8.30357 
	 7.07143 8.30357 7.07143 7.125 2.35714 7.125 2.35714 7.125 
	 2.35714 7.125 2.35714 7.125 2.35714 7.125 2.35714 7.125 
	 2.35714 7.125 2.35714 7.125 2.35714 7.125 2.35714 7.125 "
	 style=" stroke:#00006e; stroke-width:1; fill:#00006e; fill-opacity:100%"></polygon>
      </g>
    </g>
  </symbol>
  <symbol id="oid1" xml:space="preserve" class="METIS_SYMBOL">
   <title>Microsoft Word Application</title>
    <g>
      <g>
	<rect x="3" y="0" width="28" height="28"
	 style=" stroke:#878787; stroke-width:1; fill:#00006e; fill-opacity:100%"></rect>
	<rect x="6" y="3" width="22" height="22"
	 style=" stroke:#878787; stroke-width:1; fill:#ffffff; fill-opacity:100%"></rect>
	<polygon points="7 7 7 9 9 9 
	 9 22 13 22 16 17 16 22 
	 21 22 27 9 28 9 28 7 
	 22 7 22 9 23 9 21 13 
	 21 7 16 7 13 14 13 9 
	 15 9 15 7 7 7 7 7 
	 7 7 7 7 7 7 7 7 
	 7 7 7 7 7 7 7 7 "
	 style=" stroke:#00006e; stroke-width:1; fill:#00006e; fill-opacity:100%"></polygon>
      </g>
      <g>
	<polygon points="-3.55271e-015 21 11 21 10 22 
	 1 22 1 31 -3.55271e-015 32 -3.55271e-015 21 
	 -3.55271e-015 21 -3.55271e-015 21 -3.55271e-015 21 -3.55271e-015 21 
	 -3.55271e-015 21 -3.55271e-015 21 -3.55271e-015 21 -3.55271e-015 21 -3.55271e-015 21 "
	 style=" stroke:#878787; stroke-width:1; fill:#b9b9b9; fill-opacity:100%"></polygon>
	<polygon points="10 22 11 21 11 32 
	 -3.55271e-015 32 1 31 10 31 10 22 
	 10 22 10 22 10 22 10 22 
	 10 22 10 22 10 22 10 22 10 22 "
	 style=" stroke:#878787; stroke-width:1; fill:#000000; fill-opacity:100%"></polygon>
	<rect x="1" y="22" width="9" height="9"
	 style=" stroke:#878787; stroke-width:1; fill:#ffffff; fill-opacity:100%"></rect>
	<path d="M 4 23 C 6 23 5 23 
	 8 23 C 8 23 8 26 8 27 
	 C 8 27.2977 7.54999 26 7 26 C 5.35003 26 
	 4 27.35 4 29 C 4 29.55 5.11391 29.725 
	 5 30 C 4.91945 30.1945 4.24915 30.1032 4 30 
	 C 3.64765 29.8541 3.14595 29.3523 3 29 C 2.6904 28.2526 
	 2.6904 26.7474 3 26 C 3.21892 25.4715 3.66419 25.1036 
	 5 24 Z"
	 style=" stroke:#878787; stroke-width:1; fill:#000000; fill-opacity:100%"></path>
      </g>
    </g>
  </symbol>
 </defs>
</svg>
