<?xml version="1.0"?>
<?metis version="3.4"?>
<?metisxml version="1.1"?>
<!DOCTYPE svg  PUBLIC "-//W3C//DTD SVG August 1999//EN"
 "http://www.w3.org/Graphics/SVG/svg-19990812.dtd">



<!--
Troux Technologies, Inc. Confidential and Proprietary.
This work contains valuable confidential, proprietary and trade secret
information of Troux Technologies, Inc. and is protected by the laws of 
the United States and other countries. Any disclosure, use or reproduction
of this work without the prior written authorization of Troux Technologies, Inc.
is strictly prohibited.
Copyright (C) 2000-2006 Troux Technologies, Inc. All rights reserved.
-->


<svg
 width="200" height="200">
 <title>Symbol library: microsoft_outlook.svg</title>
 <defs>
  <symbol id="oid1" xml:space="preserve" class="METIS_SYMBOL">
   <title>Microsoft Outlook Application</title>
    <rect x="3" y="0" width="28" height="28"
     style=" stroke:#6e6e00; stroke-width:1; fill:#6e6e00; fill-opacity:100%"></rect>
    <rect x="6" y="3" width="22" height="22"
     style=" stroke:#ffffff; stroke-width:1; fill:#ffffff; fill-opacity:100%"></rect>
    <rect x="10" y="11" width="17" height="12"
     style=" stroke:#6e6e00; stroke-width:1; fill:#6e6e00; fill-opacity:100%"></rect>
    <rect x="12" y="13" width="13" height="8"
     style=" stroke:#ffffff; stroke-width:1; fill:#ffffff; fill-opacity:100%"></rect>
    <rect x="13" y="18" width="8" height="2"
     style=" stroke:#6e6e00; stroke-width:1; fill:#6e6e00; fill-opacity:100%"></rect>
    <rect x="21" y="14" width="3" height="3"
     style=" stroke:#6e6e00; stroke-width:1; fill:#6e6e00; fill-opacity:100%"></rect>
    <ellipse  cx="13.5" cy="10.5" rx="6.5" ry="6.5"
     style=" stroke:#6e6e00; stroke-width:1; fill:#6e6e00; fill-opacity:100%"></ellipse>
    <ellipse  cx="13.5" cy="10.5" rx="4.5" ry="4.5"
     style=" stroke:#ffffff; stroke-width:1; fill:#ffffff; fill-opacity:100%"></ellipse>
    <polygon points="12 7 12 12 17 12 
     17 10 14 10 14 7 12 7 
     12 7 12 7 12 7 12 7 
     12 7 12 7 12 7 12 7 "
     style=" stroke:#6e6e00; stroke-width:1; fill:#6e6e00; fill-opacity:100%"></polygon>
    <g>
      <polygon points="0 20 11 20 10 21 
       1 21 1 30 0 31 0 20 
       0 20 0 20 0 20 0 20 
       0 20 0 20 0 20 0 20 "
       style=" stroke:#000000; stroke-width:1; fill:#b9b9b9; fill-opacity:100%"></polygon>
      <polygon points="10 21 11 20 11 31 
       0 31 1 30 10 30 10 21 
       10 21 10 21 10 21 10 21 
       10 21 10 21 10 21 10 21 "
       style=" stroke:#000000; stroke-width:1; fill:#000000; fill-opacity:100%"></polygon>
      <rect x="1" y="21" width="9" height="9"
       style=" stroke:#000000; stroke-width:1; fill:#ffffff; fill-opacity:100%"></rect>
      <path d="M 4 22 C 6 22 5 22 
       8 22 C 8 22 8 25 8 26 
       C 8 26.2977 7.54999 25 7 25 C 5.35003 25 
       4 26.35 4 28 C 4 28.55 5.11391 28.725 
       5 29 C 4.91945 29.1945 4.24915 29.1032 4 29 
       C 3.64765 28.8541 3.14595 28.3523 3 28 C 2.6904 27.2526 
       2.6904 25.7474 3 25 C 3.21892 24.4715 3.66419 24.1036 
       5 23 Z"
       style=" stroke:#000000; stroke-width:1; fill:#000000; fill-opacity:100%"></path>
    </g>
  </symbol>
 </defs>
</svg>
