<?xml version="1.0"?>
<?metis version="3.1"?>
<?metisxml version="1.0"?>
<!DOCTYPE svg  PUBLIC "-//W3C//DTD SVG August 1999//EN"
 "http://www.w3.org/Graphics/SVG/svg-19990812.dtd">

<svg width="200" height="200">
 <title>Symbol library: middleware.svg</title>
 <defs>
  <symbol id="oid0" xml:space="preserve" class="METIS_SYMBOL">
   <title>Middleware</title>
    <g>
      <polygon points="0 0 0 304 16.2963 320 
       880 320 880 16 863.704 0 0 0 
       0 0 0 0 0 0 0 0 
       0 0 0 0 0 0 0 0 
       0 0 0 0 0 0 "
       style=" stroke:#000000; stroke-width:1; fill:#9b9b9b; fill-opacity:100%"       class="TAG:shadow"></polygon>
      <rect x="0" y="0" width="240" height="304"
       style=" stroke:#000000; stroke-width:1; fill:#ffffa5; fill-opacity:100%"       class="TAG:PictureBackground"></rect>
      <rect x="240" y="0" width="624" height="304"
       style=" stroke:#000000; stroke-width:1; fill:#6e6eff; fill-opacity:100%"       class="TAG:canvas"></rect>
      <rect x="245.357" y="25.7143" width="569.522" height="231.429"
       style="stroke:none; fill:#878787; fill-opacity:0%"       class="TAG:grid"></rect>
      <g>
	<desc>METIS_TEXT_GROUP</desc>
	<text  x="256" y="15.8"
	 style=" stroke:#000000; stroke-width:1; font-family:sans-serif; font-size:16;"
	 class="TAG:text">text</text>
	<rect x="256" y="0" width="608" height="304"
	 style=" stroke:#000000; stroke-width:1; fill:#ffffff; fill-opacity:0%"></rect>
      </g>
      <polyline points="864 304 880 320"
       style=" stroke:#000000; stroke-width:1;"></polyline>
      <g>
	<g>
	  <polygon points="122.04 195.017 122.04 195.017 97.5685 195.017 
	   87.3725 201.711 140.392 272 150.589 265.305 224 144.809 
	   199.529 144.809 189.334 151.504 150.589 228.487 122.04 195.017 
	   122.04 195.017 122.04 195.017 122.04 195.017 122.04 195.017 
	   122.04 195.017 122.04 195.017 122.04 195.017 122.04 195.017 "
	   style=" stroke:#000000; stroke-width:1; fill:#dc0000; fill-opacity:100%"	   class="TAG:text"></polygon>
	  <polygon points="111.843 201.711 111.843 201.711 87.3725 201.711 
	   140.392 272 213.803 151.504 189.334 151.504 140.392 235.182 
	   111.843 201.711 111.843 201.711 111.843 201.711 111.843 201.711 
	   111.843 201.711 111.843 201.711 111.843 201.711 111.843 201.711 111.843 201.711 "
	   style=" stroke:#000000; stroke-width:1; fill:#a50000; fill-opacity:100%"	   class="TAG:text"></polygon>
	  <polygon points="50.6667 144.809 50.6667 144.809 26.196 144.809 
	   16 151.504 89.4117 272 99.6077 265.305 148.548 195.017 
	   124.079 195.017 113.882 201.711 99.6077 228.487 50.6667 144.809 
	   50.6667 144.809 50.6667 144.809 50.6667 144.809 50.6667 144.809 
	   50.6667 144.809 50.6667 144.809 50.6667 144.809 50.6667 144.809 "
	   style=" stroke:#000000; stroke-width:1; fill:#dc0000; fill-opacity:100%"	   class="TAG:text"></polygon>
	  <polygon points="40.4707 151.504 40.4707 151.504 16 151.504 
	   89.4117 272 138.353 201.711 113.882 201.711 89.4117 235.182 
	   40.4707 151.504 40.4707 151.504 40.4707 151.504 40.4707 151.504 
	   40.4707 151.504 40.4707 151.504 40.4707 151.504 40.4707 151.504 40.4707 151.504 "
	   style=" stroke:#000000; stroke-width:1; fill:#a50000; fill-opacity:100%"	   class="TAG:text"></polygon>
	  <polyline points="40.4707 151.504 40.4707 151.504 50.6667 144.809"
	   style=" stroke:#000000; stroke-width:1;"	   class="TAG:text"></polyline>
	  <polyline points="111.843 201.711 111.843 201.711 122.04 195.017"
	   style=" stroke:#000000; stroke-width:1;"	   class="TAG:text"></polyline>
	  <polyline points="138.353 201.711 138.353 201.711 148.548 195.017"
	   style=" stroke:#000000; stroke-width:1;"	   class="TAG:text"></polyline>
	  <polyline points="213.802 151.504 213.802 151.504 224 144.809"
	   style=" stroke:#000000; stroke-width:1;"	   class="TAG:text"></polyline>
	</g>
	<g>
	  <polygon points="74.4999 151.868 67.9999 37.4718 74.4999 32 
	   90.8578 32 106.636 32 116.568 73.0459 126.502 113.729 
	   139.5 37.4718 145.782 32 162.14 32 178.5 32 
	   178.5 151.868 172 157.85 168.568 151.868 158.048 151.868 
	   158.048 104.647 158.048 57.4267 147.534 104.647 137.019 151.868 
	   129.75 157.85 115.981 151.868 105.467 104.647 94.3653 57.4267 
	   94.3653 104.647 94.3653 151.868 87.4999 157.85 84.434 151.868 
	   74.4999 151.868 74.4999 151.868 74.4999 151.868 74.4999 151.868 
	   74.4999 151.868 74.4999 151.868 74.4999 151.868 "
	   style=" stroke:#000000; stroke-width:1; fill:#dc0000; fill-opacity:100%"></polygon>
	  <polygon points="67.9999 37.4718 84.3578 37.4718 100.136 37.4718 
	   110.068 78.5177 120.001 119.2 139.282 37.4718 155.64 37.4718 
	   172 37.4718 172 157.85 162.25 157.85 152.5 157.85 
	   152.5 111.34 152.5 64.8305 141.034 110.119 129.75 157.85 
	   110.25 157.85 98.9665 110.119 87.4999 64.8305 87.4999 111.34 
	   87.4999 157.85 77.7499 157.85 67.9999 157.85 67.9999 37.4718 
	   67.9999 37.4718 67.9999 37.4718 "
	   style=" stroke:#000000; stroke-width:1; fill:#a50000; fill-opacity:100%"></polygon>
	</g>
      </g>
    </g>
  </symbol>
 </defs>
</svg>
