<?xml version="1.0" encoding="UTF-8" standalone="no"?>
<svg id="svg2" xmlns:rdf="http://www.w3.org/1999/02/22-rdf-syntax-ns#" xmlns="http://www.w3.org/2000/svg" xml:space="preserve" height="219" viewBox="-0.653 -0.106 219 219" width="219" version="1.1" x="0px" y="0px" enable-background="new -0.653 -0.106 98 212" xmlns:cc="http://creativecommons.org/ns#" xmlns:xlink="http://www.w3.org/1999/xlink" xmlns:dc="http://purl.org/dc/elements/1.1/"><defs id="defs70"><linearGradient id="linearGradient3699"><stop id="stop3701" stop-color="#ececec" offset="0"/><stop id="stop3703" stop-color="#919191" offset="1"/></linearGradient><linearGradient id="linearGradient3697" y2="89.262" gradientUnits="userSpaceOnUse" x2="129.77" y1="13.176" x1="101.17"><stop id="stop3693" stop-color="#cb7520" offset="0"/><stop id="stop3695" stop-color="#6b3e11" offset="1"/></linearGradient><linearGradient id="linearGradient3705" y2="121.74" xlink:href="#linearGradient3699" gradientUnits="userSpaceOnUse" x2="125.98" y1="121.74" x1="109.44"/><linearGradient id="linearGradient3713" y2="120.96" xlink:href="#linearGradient3699" gradientUnits="userSpaceOnUse" x2="165.21" y1="120.96" x1="134.17"/><linearGradient id="linearGradient3721" y2="120.96" xlink:href="#linearGradient3699" gradientUnits="userSpaceOnUse" x2="84.146" y1="120.96" x1="53.109"/></defs><metadata id="metadata4"><rdf:RDF><cc:Work rdf:about=""><dc:title/><dc:format>image/svg+xml</dc:format><dc:type rdf:resource="http://purl.org/dc/dcmitype/StillImage"/></cc:Work></rdf:RDF></metadata><path id="rect3884" d="m109.05,2.7196c-15.525,0-28.125,24.676-28.125,55.11,0,0.39095-0.0041,0.77352,0,1.1625v74.527h56.219v-74.527c0.004-0.389,0-0.77157,0-1.1625,0-30.434-12.569-55.11-28.094-55.11z" style="color:#000000;enable-background:accumulate;" fill="#000" fill-rule="nonzero"/><path id="path3891" d="m109.05,4.3662c-14.94,0-27.066,24.365-27.066,54.416,0,0.38602-0.0039,0.76378,0,1.1479v73.589h54.102v-73.589c0.004-0.38411,0-0.76186,0-1.1479,0-30.051-12.096-54.416-27.036-54.416z" style="color:#000000;enable-background:accumulate;" fill="url(#linearGradient3697)" fill-rule="nonzero"/><path id="polygon3856" fill="#4c4c4c" stroke-miterlimit="4" d="m163.26,207.65-27.138-0.19441,2.3436-7.3876,22.264,0.0972z"/><path id="path3860" d="m149.69,40.675c1.7156,0,3.1757,0.98418,3.8438,2.389,0.0161,0.03378,0.0474,0.06003,0.0625,0.0943l8.875,15.843h0.0312v134.66l4,7.1042h-33.625l4-7.1042h0.0312v-134.66h0.0312l8.8438-15.812,0.0625-0.12574c0.6684-1.4039,2.1289-2.389,3.8438-2.389z" style="color:#000000;enable-background:accumulate;" fill="#000" fill-rule="nonzero"/><path id="path3862" d="m149.69,42.087c1.5835,0,2.9314,0.96972,3.548,2.3539,0.0148,0.03328,0.0437,0.05915,0.0577,0.09292l8.192,15.61h0.0288v132.69l3.6922,6.9999h-31.037l3.6922-6.9999h0.0289v-132.69h0.0288l8.1632-15.579,0.0577-0.12389c0.61696-1.3833,1.9651-2.3539,3.548-2.3539z" style="color:#000000;enable-background:accumulate;" fill="url(#linearGradient3713)" fill-rule="nonzero"/><path id="rect3864" style="color:#000000;enable-background:accumulate;" fill-rule="nonzero" fill="#000" d="m158.84,59.371-18.251,0,0,0.5,18.251,0,0-0.5z"/><path id="rect3866" style="color:#000000;enable-background:accumulate;" fill-rule="nonzero" fill="#000" d="m158.84,69.985-18.251,0,0,0.5,18.251,0,0-0.5z"/><path id="rect3868" style="color:#000000;enable-background:accumulate;" fill-rule="nonzero" fill="#000" d="m158.84,85.955-18.251,0,0,0.5,18.251,0,0-0.5z"/><path id="rect3870" style="color:#000000;enable-background:accumulate;" fill-rule="nonzero" fill="#000" d="m158.84,114.75-18.251,0,0,0.5,18.251,0,0-0.5z"/><path id="rect3872" style="color:#000000;enable-background:accumulate;" fill-rule="nonzero" fill="#000" d="m161.43,180.75-23.661,0,0,0.5,23.661,0,0-0.5z"/><path id="rect3874" style="color:#000000;enable-background:accumulate;" fill-rule="nonzero" fill="#000" d="m161.43,184.75-23.661,0,0,0.5,23.661,0,0-0.5z"/><path id="rect3876" style="color:#000000;enable-background:accumulate;" fill-rule="nonzero" fill="#000" d="m161.43,192.4-23.661,0,0,0.5,23.661,0,0-0.5z"/><path id="rect3878" fill="#000" d="m159.45,133.94-3.2576,0,0,6.8715,3.2576,0,0-6.8715z"/><path id="rect3880" fill="#4c4c4c" d="m159.1,134.3-2.539,0,0,6.197,2.539,0,0-6.197z"/><path id="polygon57" fill="#4c4c4c" stroke-miterlimit="4" d="m55.059,207.65,27.138-0.19441-2.3436-7.3876-22.264,0.0972z"/><path id="rect3753" d="m68.628,40.675c-1.7155,0-3.1757,0.98418-3.8438,2.389-0.01606,0.03378-0.04738,0.06003-0.0625,0.0943l-8.875,15.843h-0.03125v134.66l-4,7.1042h33.625l-4-7.1042h-0.03125v-134.66h-0.03125l-8.845-15.807-0.062-0.126c-0.668-1.404-2.129-2.389-3.844-2.389z" style="color:#000000;enable-background:accumulate;" fill="#000" fill-rule="nonzero"/><path id="path3773" d="m68.628,42.087c-1.5835,0-2.9314,0.96972-3.548,2.3539-0.01483,0.03328-0.04373,0.05915-0.05769,0.09292l-8.192,15.61h-0.02884v132.69l-3.6922,6.9999h31.037l-3.6922-6.9999h-0.02885v-132.69h-0.02885l-8.1632-15.579-0.05769-0.12389c-0.616-1.388-1.964-2.358-3.547-2.358z" style="color:#000000;enable-background:accumulate;" fill="url(#linearGradient3721)" fill-rule="nonzero"/><path id="rect3733" style="color:#000000;enable-background:accumulate;" fill-rule="nonzero" fill="#000" d="m59.474,59.371,18.251,0,0,0.5-18.251,0,0-0.5z"/><path id="rect3741" style="color:#000000;enable-background:accumulate;" fill-rule="nonzero" fill="#000" d="m59.474,69.985,18.251,0,0,0.5-18.251,0,0-0.5z"/><path id="rect3743" style="color:#000000;enable-background:accumulate;" fill-rule="nonzero" fill="#000" d="m59.474,85.955,18.251,0,0,0.5-18.251,0,0-0.5z"/><path id="rect3745" style="color:#000000;enable-background:accumulate;" fill-rule="nonzero" fill="#000" d="m59.474,114.75,18.251,0,0,0.5-18.251,0,0-0.5z"/><path id="rect3811" style="color:#000000;enable-background:accumulate;" fill-rule="nonzero" fill="#000" d="m56.886,180.75,23.661,0,0,0.5-23.661,0,0-0.5z"/><path id="rect3813" style="color:#000000;enable-background:accumulate;" fill-rule="nonzero" fill="#000" d="m56.886,184.75,23.661,0,0,0.5-23.661,0,0-0.5z"/><path id="rect3815" style="color:#000000;enable-background:accumulate;" fill-rule="nonzero" fill="#000" d="m56.886,192.4,23.661,0,0,0.5-23.661,0,0-0.5z"/><path id="rect3747" fill="#000" d="m58.868,133.94,3.2576,0,0,6.8715-3.2576,0,0-6.8715z"/><path id="rect65" fill="#4c4c4c" d="m59.22,134.3,2.539,0,0,6.197-2.539,0,0-6.197z"/><path id="path97" fill="#000" d="m91.931,181.4-57.42-8.38s-2.084-10.57,9.179-17.86c0,0,23.83-13.24,31.05-22.72,0,0,12.69-13.85,18.16-41.31l-0.9765,90.28z"/><path id="path3834" fill="#FFF" d="m91.947,180.46-56.497-7.9471s-2.0505-10.019,9.0315-16.929c0,0,23.447-12.55,30.551-21.536,0,0,12.486-13.128,17.868-39.157l-0.9608,85.575z"/><path id="rect3836" style="color:#000000;enable-background:accumulate;" fill-rule="nonzero" fill="#8e8e8e" d="m75.964,132.96,16.937,0,0,2.1171-16.937,0,0-2.1171z"/><path id="path107" fill="#323232" d="m88.9,178.9c-17.06-2.552-34.11-5.103-51.17-7.655,0.0933-7.341,5.393-13.59,11.72-16.76,8.894-5.426,17.88-11,25.22-18.48,0.7066-0.9574,4.0593-3.3473,1.159-3.284-1.4299,0.0113-2.0137,0.0986-3.422,1.896-5.567,5.788-12.44,10.1-19.09,14.51-4.027,2.704-8.359,4.94-12.31,7.738-4.83,3.739-7.577,9.993-6.984,16.08,18.1,2.634,36.2,5.267,54.29,7.901,0.1948-0.649,0.3896-1.298,0.5843-1.947l0.0027,0.001z"/><path id="path3846" fill="#000" d="m126.91,181.4,57.42-8.38s2.084-10.57-9.179-17.86c0,0-23.83-13.24-31.05-22.72,0,0-12.69-13.85-18.16-41.31l0.9765,90.28z"/><path id="path3848" fill="#FFF" d="m126.9,180.46,56.497-7.9471s2.0505-10.019-9.0315-16.929c0,0-23.447-12.55-30.551-21.536,0,0-12.486-13.128-17.868-39.157l0.9608,85.575z"/><path id="rect3850" style="color:#000000;enable-background:accumulate;" fill-rule="nonzero" fill="#8e8e8e" d="m142.88,132.96-16.937,0,0,2.1171,16.937,0,0-2.1171z"/><path id="path3852" fill="#323232" d="m129.94,178.9c17.06-2.552,34.11-5.103,51.17-7.655-0.0933-7.341-5.393-13.59-11.72-16.76-8.894-5.426-17.88-11-25.22-18.48-0.7066-0.9574-4.0593-3.3473-1.159-3.284,1.4299,0.0113,2.0137,0.0986,3.422,1.896,5.567,5.788,12.44,10.1,19.09,14.51,4.027,2.704,8.359,4.94,12.31,7.738,4.83,3.739,7.577,9.993,6.984,16.08-18.1,2.634-36.2,5.267-54.29,7.901-0.1948-0.649-0.3896-1.298-0.5843-1.947l-0.003,0.001z"/><path id="path145" fill-rule="nonzero" fill="#97a50a" d="m148.5,161.82s0.99065-2.9965,0.99065-2.9965c-1.3515-1.003-3.2716-0.89671-4.4984,0.33137-1.6874,1.6871-1.6874,4.4241,0,6.107,2.1087,2.1099,5.5295,2.1099,7.6362,0,2.3072-2.3052,2.595-5.8641,0.86747-8.4814,0,0-4.9966,5.0388-4.9966,5.0388"/><path id="path147" fill-rule="nonzero" fill="#97a50a" d="m148.82,149.68c-6.2805,0-11.371,5.0908-11.371,11.371,0,6.2805,5.0908,11.371,11.371,11.371,6.2805,0,11.374-5.0908,11.374-11.371,0-6.2805-5.0908-11.371-11.374-11.371zm0,18.207c-3.7747,0-6.8332-3.0584-6.8332-6.8332,0-3.7772,3.0584-6.8356,6.8332-6.8356,0.25131,0,0.49817,0.0132,0.74131,0.0398,0,0-1.0538-3.1997-1.0538-3.1997s4.8058,4.843,4.8058,4.843c1.4331,1.2529,2.3417,3.0956,2.3417,5.1528,0,3.7747-3.0584,6.8332-6.8332,6.8332"/><path id="path3936" fill="#000" d="m109.1,61.332c-17.381,1.94-16.594,38.25-16.594,38.25l-0.65625,81.625,17.531-0.0312h0.125l17.532,0.03-0.6562-81.622s0.78745-36.31-16.594-38.25c0,0-0.15513,0.02163-0.28125,0.03125-0.0492-0.0032-0.0694,0.0042-0.125,0-0.12612-0.0096-0.28125-0.03125-0.28125-0.03125z"/><path id="path3946" fill="url(#linearGradient3705)" d="m109.12,62.272c-16.335,1.9248-15.595,37.95-15.595,37.95l-0.61677,80.984,16.476-0.031h0.11748l16.476,0.031-0.61677-80.984s0.74007-36.025-15.595-37.95c0,0-0.1458,0.02146-0.26433,0.031-0.0462-0.0031-0.0652,0.0042-0.11748,0-0.11853-0.0095-0.26433-0.031-0.26433-0.031z"/><path id="path113" fill="#323232" d="m99.792,67.76s10.47,2.309,19.301-0.243c0,0-2.2581-5.225-9.2384-6.197,0,0-5.5432,0.1215-10.06,6.44z"/><path id="path115" fill="#4c4c4c" d="m96.76,88.847,4.4778,0.44426s0.85297-5.1098,8.1028-5.5542c0,0,6.3973-0.66638,8.1028,5.3311l4.4778-0.66638s-2.7723-8.8852-13.004-8.4409c0,0-8.9555-0.44426-12.153,8.8852z"/><path id="path3948" fill="#00F" d="m97.555,88.09,3.2962,0.38133s3.1109-5.2067,8.607-5.2767c5.4961-0.07001,6.8333,2.7677,8.2682,5.0854l3.4868-0.572s-2.7296-7.4852-12.101-7.1604c0,0-8.2444,0.18472-11.172,7.0039l-0.38523,0.53842z"/><path id="rect3977" d="m96.942,95.988,0,0.5,12.25,0,0,57.469-12.25,0,0,0.5,25,0,0-0.5-12.25,0,0-57.469,12.25,0,0-0.5-25,0z" style="color:#000000;enable-background:accumulate;" fill="#000" fill-rule="nonzero"/><path id="path119" d="m107.08,191.5s1.9497-8.8714-4.7188-13.016h-8.6106s-5.3344,2.1703-5.7441,13.016h19.077z" fill="#333"/><path id="rect3998" style="color:#000000;enable-background:accumulate;" fill-rule="nonzero" fill="#b3b3b3" d="m90.763,182.36,13.993,0,0.26813,1.1971-14.827,0,0.56605-1.1971z"/><path id="rect4000" style="color:#000000;enable-background:accumulate;" fill-rule="nonzero" fill="#b3b3b3" d="m89.723,184.7,15.726,0,0.32772,1.1971-16.411,0,0.3575-1.1971z"/><path id="rect4002" style="color:#000000;enable-background:accumulate;" fill-rule="nonzero" fill="#b3b3b3" d="m89.142,186.78,16.945,0,0.29792,1.1971-17.452,0,0.20855-1.1971z"/><path id="path4012" d="m90.763,182.36h13.993c0.0894,0.39904,0.17875,0.79808,0.26813,1.1971h-14.827c0.18868-0.39904,0.37737-0.79808,0.56605-1.1971z" style="color:#000000;enable-background:accumulate;" fill="#b3b3b3" fill-rule="nonzero"/><path id="path4014" d="m89.723,184.7h15.726c0.10924,0.39904,0.21848,0.79808,0.32772,1.1971h-16.411c0.11917-0.39904,0.23833-0.79808,0.3575-1.1971z" style="color:#000000;enable-background:accumulate;" fill="#b3b3b3" fill-rule="nonzero"/><path id="path4016" d="m89.142,186.78h16.945c0.0993,0.39904,0.19861,0.79809,0.29792,1.1971h-17.452c0.06952-0.39904,0.13903-0.79809,0.20855-1.1971z" style="color:#000000;enable-background:accumulate;" fill="#b3b3b3" fill-rule="nonzero"/><path id="path4018" d="m88.748,189.07h18.158c-0.11406,0.36238,0.033,1.0167-0.24379,1.1971h-18.004c0.02979-0.39904,0.05963-0.79808,0.08938-1.1971z" style="color:#000000;enable-background:accumulate;" fill="#b3b3b3" fill-rule="nonzero"/><path id="path4020" d="m111.8,191.5s-1.9497-8.8714,4.7188-13.016h8.6162s5.3344,2.1703,5.7441,13.016h-19.077z" fill="#333"/><path id="path4022" style="color:#000000;enable-background:accumulate;" fill-rule="nonzero" fill="#b3b3b3" d="m128.12,182.36-13.993,0-0.26813,1.1971,14.827,0-0.56605-1.1971z"/><path id="path4024" style="color:#000000;enable-background:accumulate;" fill-rule="nonzero" fill="#b3b3b3" d="m129.16,184.7-15.726,0-0.32771,1.1971,16.411,0-0.3575-1.1971z"/><path id="path4026" style="color:#000000;enable-background:accumulate;" fill-rule="nonzero" fill="#b3b3b3" d="m129.74,186.78-16.945,0-0.29792,1.1971,17.452,0-0.20855-1.1971z"/><path id="path4028" d="m130.14,189.07h-18.158c0.0447,0.39904,0.0894,0.79809,0.13406,1.1971h18.114c-0.0298-0.39904-0.0596-0.79813-0.0894-1.1971z" style="color:#000000;enable-background:accumulate;" fill="#b3b3b3" fill-rule="nonzero"/><path id="path137" d="m109.29,158.52-0.6875,0.0312c-1.5625,1.58-3.3125,10.531-3.3125,10.531v13.375l4,13.281v0.3125h0.3124v-0.3125l4-13.281v-13.375s-1.75-8.9512-3.3125-10.531l-0.6875-0.0312h-0.3125z" fill="#000"/><path id="path3991" d="m109.1,158.93-0.40625,0.0312c-1.3668,1.5143-2.875,10.094-2.875,10.094v13.281l3.2812,11.5v-34.906zm0.6875,0,0,34.906,3.2812-11.5,0-13.281s-1.5082-8.5795-2.875-10.094l-0.40625-0.0312z" fill="#f2f2f2"/></svg>