<?xml version="1.0"?>
<?metis version="3.2"?>
<?metisxml version="1.1"?>
<!DOCTYPE svg  PUBLIC "-//W3C//DTD SVG August 1999//EN"
 "http://www.w3.org/Graphics/SVG/svg-19990812.dtd">

<svg width="200" height="200">
 <title>Symbol library: module.svg</title>
 <defs>
  <symbol id="oid1" xml:space="preserve" class="METIS_SYMBOL">
   <title>Module</title>
    <g>
      <polygon points="0 0 0 304 16.2963 320 
       880 320 880 16 863.704 0 0 0 
       0 0 0 0 0 0 0 0 
       0 0 0 0 "
       style=" stroke:#000000; stroke-width:1; fill:#9b9b9b; fill-opacity:100%"       class="TAG:shadow"></polygon>
      <rect x="0" y="0" width="240" height="304"
       style=" stroke:#000000; stroke-width:1; fill:#ffffff; fill-opacity:100%"       class="TAG:PictureBackground"></rect>
      <rect x="240" y="0" width="624" height="304"
       style=" stroke:#000000; stroke-width:1; fill:#ffcf9f; fill-opacity:100%"       class="TAG:canvas"></rect>
      <rect x="245.357" y="25.7143" width="569.522" height="231.429"
       style="stroke:none; fill:#878787; fill-opacity:0%"       class="TAG:grid"></rect>
      <g>
	<desc>METIS_TEXT_GROUP</desc>
	<text  x="256" y="15"
	 style=" stroke:#000000; stroke-width:1; font-family:sans-serif; font-size:16;"
	 class="TAG:text">text</text>
	<rect x="256" y="0" width="608" height="304"
	 style=" stroke:#000000; stroke-width:1; fill:#ffffff; fill-opacity:0%"></rect>
      </g>
      <polyline points="864 304 880 320"
       style=" stroke:#000000; stroke-width:1;"></polyline>
      <g>
	<polygon points="53.1022 77.5544 93.183 64 156.171 64 
	 121.867 77.5544 53.1022 77.5544 53.1022 77.5544 53.1022 77.5544 
	 53.1022 77.5544 53.1022 77.5544 53.1022 77.5544 53.1022 77.5544 53.1022 77.5544 "
	 style=" stroke:#000000; stroke-width:1; fill:#4b4bff; fill-opacity:100%"	 class="TAG:CubeTops"></polygon>
	<polygon points="193.348 148.119 193.348 223.129 223.87 205.819 
	 224 130.72 193.348 148.119 193.348 148.119 193.348 148.119 
	 193.348 148.119 193.348 148.119 193.348 148.119 193.348 148.119 "
	 style=" stroke:#000000; stroke-width:1; fill:#0000a5; fill-opacity:100%"	 class="TAG:CubeSides"></polygon>
	<polygon points="153.81 64 223.882 64 194.358 77.2618 
	 119.953 77.2618 153.81 64 153.81 64 153.81 64 
	 153.81 64 153.81 64 153.81 64 153.81 64 "
	 style=" stroke:#000000; stroke-width:1; fill:#4b4bff; fill-opacity:100%"	 class="TAG:CubeTops"></polygon>
	<polygon points="193.203 76.6031 193.177 148.392 223.882 131.513 
	 223.882 64 193.203 76.6031 193.203 76.6031 193.203 76.6031 
	 193.203 76.6031 193.203 76.6031 193.203 76.6031 193.203 76.6031 "
	 style=" stroke:#000000; stroke-width:1; fill:#0000a5; fill-opacity:100%"	 class="TAG:CubeSides"></polygon>
	<rect x="16.1561" y="164.883" width="73.4807" height="75.0097"
	 style=" stroke:#000000; stroke-width:1; fill:#96a5ff; fill-opacity:100%"	 class="TAG:CubeFronts"></rect>
	<rect x="16" y="90.1411" width="73.4807" height="75.0098"
	 style=" stroke:#000000; stroke-width:1; fill:#96a5ff; fill-opacity:100%"	 class="TAG:CubeFronts"></rect>
	<polygon points="16 90.1411 55.5668 76.2932 123.612 76.2932 
	 89.4807 90.1411 16 90.1411 16 90.1411 16 90.1411 
	 16 90.1411 16 90.1411 16 90.1411 16 90.1411 16 90.1411 "
	 style=" stroke:#000000; stroke-width:1; fill:#4b4bff; fill-opacity:100%"	 class="TAG:CubeTops"></polygon>
	<polygon points="162.544 164.724 162.544 239.733 193.799 222.603 
	 193.552 147.324 162.544 164.724 162.544 164.724 162.544 164.724 
	 162.544 164.724 162.544 164.724 162.544 164.724 162.544 164.724 "
	 style=" stroke:#000000; stroke-width:1; fill:#0000a5; fill-opacity:100%"	 class="TAG:CubeSides"></polygon>
	<rect x="89.3234" y="164.99" width="73.4807" height="75.0097"
	 style=" stroke:#000000; stroke-width:1; fill:#96a5ff; fill-opacity:100%"	 class="TAG:CubeFronts"></rect>
	<rect x="89.3114" y="90.3953" width="73.4808" height="75.0098"
	 style=" stroke:#000000; stroke-width:1; fill:#96a5ff; fill-opacity:100%"	 class="TAG:CubeFronts"></rect>
	<polygon points="89.3114 90.3953 123.612 76.2932 195.013 76.3242 
	 162.793 90.3953 89.3114 90.3953 89.3114 90.3953 89.3114 90.3953 
	 89.3114 90.3953 89.3114 90.3953 89.3114 90.3953 89.3114 90.3953 89.3114 90.3953 "
	 style=" stroke:#000000; stroke-width:1; fill:#4b4bff; fill-opacity:100%"	 class="TAG:CubeTops"></polygon>
	<polygon points="162.793 90.3953 162.793 165.405 193.316 148.095 
	 193.316 76.547 162.793 90.3953 162.793 90.3953 162.793 90.3953 
	 162.793 90.3953 162.793 90.3953 162.793 90.3953 162.793 90.3953 "
	 style=" stroke:#000000; stroke-width:1; fill:#0000a5; fill-opacity:100%"	 class="TAG:CubeSides"></polygon>
      </g>
    </g>
  </symbol>
 </defs>
</svg>
