<?xml version="1.0" encoding="UTF-8" standalone="no"?>
<!-- Generator: Adobe Illustrator 13.0.2, SVG Export Plug-In  -->
<svg xmlns:rdf="http://www.w3.org/1999/02/22-rdf-syntax-ns#" xmlns="http://www.w3.org/2000/svg" enable-background="new -0.253 -0.016 168 198" xml:space="preserve" height="219px" width="219px" version="1.1" y="0px" x="0px" xmlns:cc="http://creativecommons.org/ns#" xmlns:xlink="http://www.w3.org/1999/xlink" viewBox="-0.253 -0.016 219 219" xmlns:dc="http://purl.org/dc/elements/1.1/"><metadata><rdf:RDF><cc:Work rdf:about=""><dc:format>image/svg+xml</dc:format><dc:type rdf:resource="http://purl.org/dc/dcmitype/StillImage"/><dc:title/></cc:Work></rdf:RDF></metadata><defs><filter id="filter3798"><feGaussianBlur stdDeviation="0.94138"/></filter><filter id="filter3806"><feGaussianBlur stdDeviation="1.5075162"/></filter></defs><path style="enable-background:accumulate;color:#000000;" d="m168.2,101.4c-38.12,0.0425-76.28,0.0873-114.3,0.0613-12.76,0.2919-23.23,12.56-21.96,25.17,0.07788,20.91-0.1569,41.83,0.1195,62.73,0.9413,12.49,13.21,22.12,25.53,20.79h25.79c0.1667-6.686-0.2902-13.46,0.2668-20.09,3.844-8.858,11.01-0.6899,12.97,4.459,9.015,0.7029,10.69-11.41,10.52-18.28-0.5069-5.482-2.655-13.49-9.384-13.62-3.972,2.375-5.793,12.91-12.5,7.055-3.127-4.574-1.386-10.38-1.832-15.59,0.1709-7.513-0.3119-15.12,0.2647-22.58,0.4099-2.989,4.534-0.9491,6.713-1.543,9.174-0.0914,18.38,0.2195,27.53-0.1271,9.534-1.988,3.792-11.72-2.839-12.64-2.521-6.548,6.007-10.07,11.21-10.64,7.152-0.6176,18.05,0.2056,20.33,8.362-0.555,5.359-14.38,6.714-6.397,14.01,3.979,2.063,8.705,0.6962,13.04,1.097,7.732,0.007,15.46,0.0144,23.2,0.0215-0.1445,11.8-0.0218,23.6-0.0625,35.41-2.284,8.94-11.75,3.314-12.58-3.222-8.881-2.425-11.32,10.29-11.21,16.94,0.3194,5.746,2.329,14.34,9.404,14.56,3.972-2.368,5.792-12.91,12.49-7.053,3.096,4.585,1.361,10.38,1.802,15.59-0.004,2.594-0.009,5.187-0.0131,7.781,12.58-0.8279,22.32-13.17,20.97-25.56-0.0778-20.77,0.1568-41.55-0.1194-62.31-0.9373-12.48-13.2-22.09-25.5-20.76-1.123-0.0213-2.341,0.0421-3.411-0.0312z" fill-opacity="0.50196078" fill-rule="nonzero" filter="url(#filter3806)" fill="#000"/><path style="enable-background:accumulate;color:#000000;" d="m157.4,52.5c0-23.64-19.16-42.78-42.8-42.78-23.63,0-42.8,19.14-42.8,42.78,0,23.62,19.17,42.78,42.8,42.78,23.64,0,42.8-19.17,42.8-42.78z" fill-rule="nonzero" fill-opacity="0.50196078000000000" filter="url(#filter3798)" fill="#000"/><path stroke-linejoin="miter" style="enable-background:accumulate;color:#000000;" d="m51.31,97.47c-13.17-0.3986-24.47,12.1-23.16,25.13,0.07731,20.93-0.1562,41.87,0.1195,62.8,0.9404,12.45,13.15,22.09,25.44,20.79h25.87c0.1611-6.687-0.2825-13.46,0.2668-20.09,3.151-8.196,11.31-1.817,12.3,4.061,6.802,2.547,10.22-6.423,10.84-11.85,1.076-6.545,0.0431-15.07-5.897-18.99-7.732-4.127-5.581,11.03-13.66,7.69-5.383-2.657-3.446-9.263-3.808-14.1,0.08732-8.311-0.142-16.67,0.1412-24.95-0.02434-3.311,3.723-1.514,5.818-1.955,9.515-0.0916,19.06,0.2208,28.55-0.1262,9.534-1.988,3.792-11.72-2.839-12.64-2.521-6.548,6.007-10.07,11.21-10.64,6.704-0.6851,14.51,0.2991,19.35,5.464,5.519,8.271-10.42,6.173-7.405,14.32,2.112,5.227,8.281,3.323,12.65,3.684,8.522,0.008,17.04,0.0158,25.57,0.0237-0.1442,11.8-0.0221,23.6-0.0625,35.41-2.284,8.94-11.75,3.314-12.58-3.222-6.773-2.535-10.26,6.41-10.8,11.85-1.062,6.536-0.0767,15.07,5.866,18.99,7.731,4.12,5.584-11.03,13.66-7.69,5.364,2.668,3.408,9.269,3.773,14.1-0.006,3.522-0.0118,7.045-0.0177,10.57,12.54-0.8272,22.29-13.11,20.97-25.47-0.0772-20.8,0.156-41.6-0.1194-62.4-0.9357-12.25-12.86-21.94-25.02-20.76-39.02,0.03826-78.03-0.01451-117.1-0.0019z" fill-rule="nonzero" stroke-dashoffset="0" stroke="#787878" stroke-linecap="butt" stroke-miterlimit="4" stroke-dasharray="none" stroke-width="2" fill="#bababa"/><path d="m153.4,48.5c0-23.64-19.16-42.78-42.8-42.78-23.63,0-42.8,19.14-42.8,42.78,0,23.62,19.17,42.78,42.8,42.78,23.64,0,42.8-19.17,42.8-42.78z" stroke="#787878" stroke-width="2" fill="#bababa"/><path stroke-linejoin="miter" d="m137.8,112.1c-5.376,0.3763-12.71,1.822-14.46,7.714-1.489,6.309,10.25,4.381,8.397,11.34-0.7984,4.503-6.013,4.859-9.713,4.656-9.91,0.0402-19.82,0.0804-29.73,0.1207,0.005,11.97-0.4344,23.96-0.0754,35.91,0.1161,5.473,8.45,7.282,10.31,1.899,0.3543-7.433,9.543-5.969,11.09,0.005,3.467,7.391,2.776,16.63-1.498,23.54-2.547,4.881-9.745,3.755-9.864-2.097-1.961-5.781-11.12-3.226-10.21,2.693-0.0681,6.237-0.0987,12.47-0.0141,18.71h92.93c-0.0918-6.813,0.2378-13.66-0.1209-20.45-0.114-5.475-8.449-7.281-10.31-1.899-0.3535,7.426-9.552,5.975-11.08-0.009-3.81-7.888-2.391-17.68,2.555-24.72,3.704-4.488,8.799-0.6839,9.241,4.139,2.921,5.142,10.99,1.423,9.829-4.118,0.1663-11.22,0.1085-22.44,0.0409-33.66-11.2-0.0125-22.39-0.0249-33.59-0.0374-6.585-0.5411-6.096-10.42,0.2642-10.88,6.689-1.465,2.369-9.755-2.423-10.69-3.619-1.506-7.65-2.193-11.56-2.162z" stroke="#7a5200" stroke-linecap="butt" stroke-width="1.21306884px" fill="#de9604"/></svg>
