<?xml version="1.0" encoding="UTF-8" standalone="no"?>
<svg id="svg2" xmlns:rdf="http://www.w3.org/1999/02/22-rdf-syntax-ns#" xmlns="http://www.w3.org/2000/svg" enable-background="new -0.598 -0.666 209 202" xml:space="preserve" height="219" width="219" version="1.1" y="0px" x="0px" xmlns:cc="http://creativecommons.org/ns#" xmlns:xlink="http://www.w3.org/1999/xlink" viewBox="-0.598 -0.666 219 219" xmlns:dc="http://purl.org/dc/elements/1.1/"><metadata id="metadata301"><rdf:RDF><cc:Work rdf:about=""><dc:format>image/svg+xml</dc:format><dc:type rdf:resource="http://purl.org/dc/dcmitype/StillImage"/><dc:title/></cc:Work></rdf:RDF></metadata><defs id="defs4"><filter id="filter4036"><feGaussianBlur id="feGaussianBlur4038" stdDeviation="1.4695312"/></filter><linearGradient id="linearGradient4092" y2="38.544" gradientUnits="userSpaceOnUse" x2="89.656" gradientTransform="matrix(1.6067875,0,0,1.6067875,-114.96153,-31.680672)" y1="132.39" x1="184.24"><stop id="stop4048" stop-color="#979797" offset="0"/><stop id="stop4050" stop-color="#fff6f6" offset="1"/></linearGradient><linearGradient id="linearGradient4095" y2="-26.195" gradientUnits="userSpaceOnUse" x2="15.961" gradientTransform="matrix(1.6067875,0,0,1.6067875,-114.96153,-31.680672)" y1="140.92" x1="192.9"><stop id="stop4056" stop-color="#d59f0f" offset="0"/><stop id="stop4058" stop-color="#d59f0f" stop-opacity="0" offset="1"/></linearGradient></defs><path id="path239-9" opacity="0.5" d="m33.118,70.693c-6.4617,0-11.719,5.257-11.719,11.719v110.16c0,6.4617,5.257,11.719,11.719,11.719h110.16c6.4617,0,11.719-5.257,11.719-11.719v-110.16c0-6.4617-5.257-11.719-11.719-11.719h-110.16z" transform="matrix(1.4654172,0,0,1.4654172,-14.366964,-86.344828)" filter="url(#filter4036)" stroke="#070707" stroke-width="0.97505695" fill="#000"/><path id="path239" d="m202.3,185.53c0,9.4691-7.6773,17.146-17.146,17.146h-161.46c-9.4691,0-17.146-7.6773-17.146-17.146v-161.46c0-9.4691,7.6773-17.146,17.146-17.146h161.46c9.4691,0,17.146,7.6773,17.146,17.146v161.46z" stroke="#070707" stroke-width="1.42886519" fill="url(#linearGradient4095)"/><path id="path241" d="m193.73,177.99c0,8.6375-7.0043,15.642-15.645,15.642h-147.32c-8.6389,0-15.643-7.0043-15.643-15.642v-147.32c0-8.6403,7.0043-15.645,15.643-15.645h147.32c8.6404,0,15.645,7.0029,15.645,15.645v147.32z" stroke="#070707" stroke-width="1.42886519" fill="url(#linearGradient4092)"/><path id="path261" fill="#afafaf" d="M193.01,54.555v122.64c0.71156,8.9747-6.6685,15.718-15.88,15.716h-147.32s133.2-2.3805,163.2-138.36z"/><path id="path263" fill="#d8d8d8" d="M101.92,16.094h-70.443c-8.1417-0.95305-16,6.1913-15.643,15.645v51.631s22.502-54.891,86.088-67.275z"/><g id="g2852" stroke="#070707" transform="matrix(1.6959582,0,0,1.6959582,-71.32863,-69.161126)"><polygon id="polygon243" transform="matrix(1.8592548,0,0,1.9500861,-155.84428,-30.936749)" points="119.28,58.333,119.28,83,161.11,83,161.11,58.333,154.94,58.333,154.94,53.167,125.94,53.167,125.94,58.333" fill="#7c7c7c"/><polygon id="polygon245" transform="matrix(1.8592548,0,0,1.8592548,-155.84428,-26.10752)" points="128.82,60.918,123.44,60.918,123.44,80.832,157.22,80.832,157.22,60.918,152.24,60.918,152.24,56.747,128.82,56.747" fill="#3d3d3d"/><rect id="rect247" height="15.737" width="3.9342" y="107.48" x="78.983" stroke-width="0.92963" fill="#d59f0f"/><rect id="rect249" height="15.737" width="3.9342" y="107.4" x="86.935" stroke-width="0.92963" fill="#d59f0f"/><rect id="rect251" height="15.737" width="3.9342" y="107.48" x="94.969" stroke-width="0.92963" fill="#d59f0f"/><rect id="rect253" height="15.737" width="3.9342" y="107.48" x="102.67" stroke-width="0.92963" fill="#d59f0f"/><rect id="rect255" height="15.737" width="3.9342" y="107.48" x="110.71" stroke-width="0.92963" fill="#d59f0f"/><rect id="rect257" height="15.737" width="3.9323" y="107.48" x="118.74" stroke-width="0.92963" fill="#d59f0f"/><rect id="rect259" height="15.737" width="3.9342" y="107.48" x="126.94" stroke-width="0.92963" fill="#d59f0f"/></g></svg>