<?xml version="1.0"?>
<?metis version="3.1"?>
<?metisxml version="1.0"?>
<!DOCTYPE svg  PUBLIC "-//W3C//DTD SVG August 1999//EN"
 "http://www.w3.org/Graphics/SVG/svg-19990812.dtd">

<svg width="200" height="200">
 <title>Symbol library: network_router.svg</title>
 <defs>
  <symbol id="oid1" xml:space="preserve" class="METIS_SYMBOL">
   <title>Network Router</title>
    <g>
      <polygon points="0 0 0 304 16.2963 320 
       880 320 880 16 863.704 0 0 0 
       0 0 0 0 0 0 0 0 
       0 0 0 0 0 0 0 0 
       0 0 0 0 0 0 "
       style=" stroke:#000000; stroke-width:1; fill:#9b9b9b; fill-opacity:100%"       class="TAG:shadow"></polygon>
      <rect x="0" y="0" width="240" height="304"
       style=" stroke:#000000; stroke-width:1; fill:#ffffa5; fill-opacity:100%"       class="TAG:PictureBackground"></rect>
      <rect x="240" y="0" width="624" height="304"
       style=" stroke:#000000; stroke-width:1; fill:#9b9b9b; fill-opacity:100%"       class="TAG:canvas"></rect>
      <g>
	<desc>METIS_TEXT_GROUP</desc>
	<text  x="256" y="15.8"
	 style=" stroke:#000000; stroke-width:1; font-family:sans-serif; font-size:16;"
	 class="TAG:text">text</text>
	<rect x="256" y="0" width="608" height="304"
	 style=" stroke:#000000; stroke-width:1; fill:#ffffff; fill-opacity:0%"></rect>
      </g>
      <polyline points="880 320 864 304"
       style=" stroke:#000000; stroke-width:1;"></polyline>
      <g>
	<polygon points="23.2558 138.56 136.434 32.9107 139.896 32 
	 220.884 49.3046 221.231 49.3046 221.231 49.3046 221.923 50.2155 
	 221.923 50.2155 222.269 50.2155 222.616 51.1263 222.961 51.1263 
	 222.961 52.037 223.308 52.037 223.308 52.9477 223.653 53.8586 
	 223.653 54.7694 223.653 54.7694 223.653 55.6801 224 56.5908 
	 224 57.5016 224 58.4125 224 63.877 222.961 65.6985 
	 222.961 77.5386 224 77.5386 224 83.9139 224 84.8248 
	 224 85.7357 224 86.6466 223.653 87.557 223.653 87.557 
	 223.653 88.4677 223.653 89.3788 223.653 89.3788 223.308 90.2897 
	 223.308 91.2001 222.961 92.111 222.961 92.111 145.087 244.211 
	 23.2558 138.56 23.2558 138.56 23.2558 138.56 23.2558 138.56 
	 23.2558 138.56 23.2558 138.56 23.2558 138.56 "
	 style=" stroke:#000000; stroke-width:1; fill:#ababab; fill-opacity:100%"></polygon>
	<polygon points="26.0464 134.478 25.7 134.478 25.3535 134.478 
	 25.3535 134.478 25.0072 134.478 25.0072 134.478 24.6607 134.478 
	 24.3143 135.391 19.1179 139.959 18.7714 140.873 18.425 140.873 
	 18.0786 141.787 17.7321 141.787 17.3857 142.7 17.0393 143.616 
	 16.6929 144.527 16.6929 144.527 16.6929 145.443 16.3464 146.356 
	 16.3464 147.27 16.3464 148.184 16 149.097 16 150.011 
	 16 150.924 16 151.838 16 152.752 16 190.214 
	 16 192.041 16 192.955 16.3464 193.869 16.3464 194.782 
	 16.3464 195.696 16.6929 196.609 16.6929 197.523 17.0393 198.437 
	 17.3857 198.437 17.3857 199.35 17.7321 200.265 18.0786 200.265 
	 18.425 201.179 18.7714 201.179 19.1179 202.091 134.132 255.086 
	 134.479 255.086 134.826 255.086 135.171 255.086 135.864 255.086 
	 136.211 256 136.557 256 137.25 256 137.597 256 
	 137.943 256 138.289 256 138.636 256 138.982 256 
	 139.329 256 140.021 255.086 140.368 255.086 140.715 255.086 
	 141.061 254.173 145.218 247.778 145.218 246.862 145.565 246.862 
	 145.911 245.949 145.911 245.035 146.257 244.123 146.257 244.123 
	 146.604 243.208 146.604 242.294 146.604 241.381 146.95 240.467 
	 146.95 239.554 146.95 238.64 146.95 237.726 146.95 236.813 
	 146.95 235.899 146.95 234.986 146.95 192.041 146.95 192.041 
	 146.95 191.128 146.95 188.385 146.95 187.472 146.604 186.56 
	 146.604 185.644 146.257 184.731 146.257 183.817 145.911 182.904 
	 145.565 181.99 145.218 181.076 144.871 181.076 144.526 180.163 
	 144.179 180.163 143.832 179.249 143.139 179.249 109.536 166.457 
	 109.536 166.457 109.536 165.544 109.536 164.63 109.19 163.716 
	 109.19 162.803 109.19 162.803 108.843 161.889 108.843 161.889 
	 108.496 160.976 108.15 160.062 107.804 159.147 107.804 159.147 
	 107.457 159.147 107.111 159.147 53.068 139.046 53.068 139.046 
	 52.7215 139.046 52.7215 139.046 52.3749 139.046 52.0287 139.959 
	 51.6823 140.873 51.3356 141.787 51.3356 141.787 51.3356 142.7 
	 50.9893 142.7 50.9893 143.616 50.9893 144.527 26.0464 134.478 
	 26.0464 134.478 26.0464 134.478 26.0464 134.478 26.0464 134.478 
	 26.0464 134.478 26.0464 134.478 "
	 style=" stroke:#000000; stroke-width:1; fill:#000000; fill-opacity:100%"></polygon>
	<polygon points="220.536 53.7714 146.27 177.953 146.27 177.953 
	 145.922 177.953 145.575 177.953 145.229 178.865 144.881 178.865 
	 144.534 178.865 144.534 178.865 144.188 178.865 143.84 178.865 
	 143.84 178.865 143.84 178.865 144.534 178.865 144.534 178.865 
	 144.881 179.778 145.229 179.778 145.575 180.692 145.922 180.692 
	 145.922 181.604 146.27 181.604 146.27 182.517 146.617 183.431 
	 146.617 183.431 146.964 184.345 146.964 184.345 146.964 185.256 
	 146.964 186.17 221.577 57.4238 221.577 57.4238 221.924 56.5107 
	 222.271 56.5107 222.271 55.5975 222.618 54.6844 222.618 54.6844 
	 222.618 53.7714 222.618 52.8583 222.271 52.8583 221.924 52.8583 
	 221.577 52.8583 221.577 52.8583 221.23 52.8583 220.882 52.8583 
	 220.536 53.7714 220.536 53.7714 220.536 53.7714 220.536 53.7714 
	 220.536 53.7714 220.536 53.7714 220.536 53.7714 "
	 style=" stroke:#ffffff; stroke-width:1; fill:#ffffff; fill-opacity:100%"></polygon>
	<polyline points="147.296 187.077 147.296 236.956"
	 style=" stroke:#000000; stroke-width:1;"></polyline>
	<polygon points="147.641 201.471 147.641 221.539 223.309 77.4131 
	 223.309 65.5546 147.641 201.471 147.641 201.471 147.641 201.471 
	 147.641 201.471 147.641 201.471 147.641 201.471 147.641 201.471 "
	 style=" stroke:#000000; stroke-width:1; fill:#ffffff; fill-opacity:100%"></polygon>
	<polyline points="223.654 78.251 147.296 225.167"
	 style=" stroke:#ffffff; stroke-width:1;"></polyline>
	<polygon points="52.9746 141.733 52.279 144.554 53.3221 143.614 
	 105.831 165.245 106.179 167.126 106.179 161.483 52.9746 141.733 
	 52.9746 141.733 52.9746 141.733 52.9746 141.733 52.9746 141.733 
	 52.9746 141.733 52.9746 141.733 "
	 style=" stroke:#ffffff; stroke-width:1; fill:#ffffff; fill-opacity:100%"></polygon>
	<polygon points="51.2426 143.959 50.8917 147.917 50.1896 149.895 
	 49.4877 149.895 29.1296 139.012 49.4877 146.927 50.1896 145.938 
	 51.2426 143.959 51.2426 143.959 51.2426 143.959 51.2426 143.959 
	 51.2426 143.959 51.2426 143.959 51.2426 143.959 "
	 style=" stroke:#ffffff; stroke-width:1; fill:#ffffff; fill-opacity:100%"></polygon>
	<polyline points="109.634 166.218 108.252 168.939"
	 style=" stroke:#ababab; stroke-width:1;"></polyline>
	<polyline points="143.149 178.009 110.325 165.311"
	 style=" stroke:#000000; stroke-width:1;"></polyline>
	<polyline points="28.4385 133.571 50.8969 142.639"
	 style=" stroke:#000000; stroke-width:1;"></polyline>
	<polyline points="110.325 166.219 191.176 54.6721"
	 style=" stroke:#000000; stroke-width:1;"></polyline>
	<polyline points="109.289 166.219 191.176 54.6721"
	 style=" stroke:#ffffff; stroke-width:1;"></polyline>
	<polygon points="107.907 159.844 107.907 159.844 108.254 159.844 
	 108.601 160.759 108.601 160.759 108.948 161.676 108.948 162.592 
	 182.538 65.5546 107.907 159.844 107.907 159.844 107.907 159.844 
	 107.907 159.844 107.907 159.844 107.907 159.844 107.907 159.844 "
	 style=" stroke:#ffffff; stroke-width:1; fill:#ffffff; fill-opacity:100%"></polygon>
	<polyline points="138.312 244.181 137.273 246.024 21.5303 192.549 
	 20.8372 190.704"
	 style=" stroke:#ffffff; stroke-width:1;"></polyline>
	<polyline points="21.8737 191.611 27.0564 184.355"
	 style=" stroke:#000000; stroke-width:1;"></polyline>
	<polyline points="20.1462 179.821 20.1462 154.491 21.1827 152.616"
	 style=" stroke:#ffffff; stroke-width:1;"></polyline>
	<polyline points="139.003 248.745 141.076 248.745"
	 style=" stroke:#ffffff; stroke-width:1;"></polyline>
	<polygon points="141.076 201.587 141.076 200.627 141.076 199.667 
	 140.715 198.706 140.715 196.786 140.353 195.826 139.991 194.864 
	 139.628 193.906 139.266 191.984 138.904 191.024 138.181 190.064 
	 137.819 189.104 137.095 188.144 136.37 187.184 136.009 186.224 
	 134.923 186.224 134.199 185.264 133.475 185.264 136.37 186.224 
	 136.732 186.224 137.095 186.224 137.457 186.224 137.819 187.184 
	 138.181 187.184 138.542 187.184 138.904 188.144 139.266 189.104 
	 139.266 189.104 139.628 190.064 139.991 191.024 140.353 191.984 
	 140.353 192.944 140.715 193.906 140.715 195.826 141.076 196.786 
	 141.076 201.587 141.076 201.587 141.076 201.587 141.076 201.587 
	 141.076 201.587 141.076 201.587 141.076 201.587 "
	 style=" stroke:#ffffff; stroke-width:1; fill:#ffffff; fill-opacity:100%"></polygon>
	<polygon points="27.7526 185.779 27.4054 185.779 27.0581 185.779 
	 27.0581 184.856 26.7109 183.933 26.7109 183.933 26.7109 183.011 
	 26.7109 182.088 26.7109 155.335 98.2324 184.856 78.4424 208.842 
	 27.7526 185.779 27.7526 185.779 27.7526 185.779 27.7526 185.779 
	 27.7526 185.779 27.7526 185.779 27.7526 185.779 "
	 style="stroke:none; fill:#6565ff; fill-opacity:100%"></polygon>
	<polygon points="80.2658 209.716 100.245 184.355 104.452 186.234 
	 83.7709 210.656 80.2658 209.716 80.2658 209.716 80.2658 209.716 
	 80.2658 209.716 80.2658 209.716 80.2658 209.716 80.2658 209.716 "
	 style="stroke:none; fill:#6565ff; fill-opacity:100%"></polygon>
	<polygon points="89.5947 213.283 109.913 188.891 114.817 190.767 
	 94.1486 216.097 89.5947 213.283 89.5947 213.283 89.5947 213.283 
	 89.5947 213.283 89.5947 213.283 89.5947 213.283 89.5947 213.283 "
	 style="stroke:none; fill:#6565ff; fill-opacity:100%"></polygon>
	<polygon points="115.508 223.997 136.227 198.866 136.93 198.866 
	 136.93 234.235 119.722 226.79 115.508 223.997 115.508 223.997 
	 115.508 223.997 115.508 223.997 115.508 223.997 115.508 223.997 115.508 223.997 "
	 style="stroke:none; fill:#6565ff; fill-opacity:100%"></polygon>
	<polygon points="60.0689 173.473 60.0689 173.473 60.4457 173.473 
	 60.8227 174.445 61.1997 174.445 61.5767 175.418 61.5767 176.389 
	 61.9534 177.36 61.9534 177.36 61.9534 178.332 61.9534 179.303 
	 61.9534 179.303 61.9534 180.276 61.9534 180.276 61.9534 181.246 
	 61.9534 182.219 61.9534 183.19 61.9534 183.19 61.5767 184.162 
	 61.5767 185.133 61.1997 186.106 60.8227 186.106 60.4457 187.077 
	 60.0689 187.077 60.0689 187.077 59.6919 187.077 59.6919 187.077 
	 59.3149 186.106 58.938 186.106 58.5612 185.133 58.1842 184.162 
	 58.1842 183.19 58.1842 183.19 58.1842 182.219 58.1842 181.246 
	 57.8072 181.246 57.8072 180.276 57.8072 179.303 58.1842 179.303 
	 58.1842 178.332 58.1842 177.36 58.1842 177.36 58.1842 176.389 
	 58.5612 175.418 58.938 174.445 59.3149 174.445 59.6919 173.473 
	 59.6919 173.473 60.0689 173.473 60.0689 173.473 60.0689 173.473 
	 60.0689 173.473 60.0689 173.473 60.0689 173.473 60.0689 173.473 "
	 style=" stroke:#000000; stroke-width:1; fill:#ff0016; fill-opacity:100%"></polygon>
	<polygon points="70.0572 178.009 70.4342 178.009 70.8112 178.009 
	 71.1882 178.979 71.565 178.979 71.942 179.952 71.942 180.923 
	 71.942 181.895 72.319 181.895 72.319 182.866 72.319 183.839 
	 72.319 183.839 72.319 184.81 72.319 184.81 72.319 185.782 
	 72.319 186.753 72.319 187.726 71.942 187.726 71.942 188.696 
	 71.942 189.669 71.565 190.64 71.1882 190.64 70.8112 191.611 
	 70.4342 191.611 70.0572 191.611 70.0572 191.611 69.6805 191.611 
	 69.3035 190.64 68.9265 190.64 68.5495 189.669 68.5495 188.696 
	 68.5495 187.726 68.1728 187.726 68.1728 186.753 68.1728 185.782 
	 68.1728 185.782 68.1728 184.81 68.1728 183.839 68.1728 183.839 
	 68.1728 182.866 68.1728 181.895 68.5495 181.895 68.5495 180.923 
	 68.5495 179.952 68.9265 178.979 69.3035 178.979 69.6805 178.009 
	 70.0572 178.009 70.0572 178.009 70.0572 178.009 70.0572 178.009 
	 70.0572 178.009 70.0572 178.009 70.0572 178.009 70.0572 178.009 "
	 style=" stroke:#000000; stroke-width:1; fill:#ff0016; fill-opacity:100%"></polygon>
	<polygon points="80.7996 182.543 80.7996 182.543 81.1766 182.543 
	 81.5536 183.513 81.9305 183.513 82.3073 184.486 82.3073 185.457 
	 82.6843 186.429 82.6843 186.429 82.6843 187.4 82.6843 188.373 
	 82.6843 188.373 82.6843 189.344 82.6843 189.344 82.6843 190.316 
	 82.6843 192.259 82.6843 192.259 82.3073 193.23 82.3073 194.203 
	 81.9305 195.174 81.5536 195.174 81.1766 196.146 80.7996 196.146 
	 80.7996 196.146 80.4229 196.146 80.4229 196.146 80.0459 195.174 
	 79.6689 195.174 79.2919 194.203 78.9152 193.23 78.9152 192.259 
	 78.9152 192.259 78.9152 191.287 78.5382 189.344 78.5382 188.373 
	 78.5382 188.373 78.9152 187.4 78.9152 186.429 78.9152 186.429 
	 78.9152 185.457 79.2919 184.486 79.6689 183.513 80.0459 183.513 
	 80.0459 182.543 80.4229 182.543 80.7996 182.543 80.7996 182.543 
	 80.7996 182.543 80.7996 182.543 80.7996 182.543 80.7996 182.543 80.7996 182.543 "
	 style=" stroke:#000000; stroke-width:1; fill:#ff0016; fill-opacity:100%"></polygon>
	<polygon points="91.4948 187.077 91.8691 187.077 91.8691 187.077 
	 92.2435 187.077 92.6179 188.049 92.992 188.049 93.3664 189.02 
	 93.3664 189.992 93.7408 191.936 93.7408 191.936 93.7408 192.907 
	 93.7408 193.879 93.7408 193.879 93.7408 194.85 93.7408 195.821 
	 93.7408 196.793 93.3664 196.793 93.3664 197.764 92.992 198.737 
	 92.992 199.708 92.2435 199.708 91.8691 200.68 91.8691 200.68 
	 91.4948 200.68 91.4948 200.68 91.1207 200.68 91.1207 199.708 
	 90.7464 199.708 90.372 199.708 89.9978 198.737 89.6235 197.764 
	 89.6235 196.793 89.6235 196.793 89.6235 195.821 89.6235 194.85 
	 89.2491 193.879 89.2491 193.879 89.2491 192.907 89.6235 191.936 
	 89.6235 191.936 89.6235 190.963 89.6235 190.963 89.9978 189.02 
	 89.9978 188.049 90.372 188.049 91.1207 187.077 91.1207 187.077 
	 91.4948 187.077 91.4948 187.077 91.4948 187.077 91.4948 187.077 
	 91.4948 187.077 91.4948 187.077 91.4948 187.077 91.4948 187.077 "
	 style=" stroke:#000000; stroke-width:1; fill:#ff0016; fill-opacity:100%"></polygon>
	<polygon points="102.551 191.611 102.926 191.611 102.926 191.611 
	 103.3 191.611 103.674 192.583 104.048 192.583 104.048 193.556 
	 104.423 194.526 104.423 194.526 104.423 195.497 104.797 196.47 
	 104.797 196.47 104.797 197.441 104.797 198.413 104.797 198.413 
	 104.797 199.384 104.797 200.357 104.423 200.357 104.423 201.327 
	 104.423 202.298 104.048 202.298 104.048 203.271 103.674 204.243 
	 103.3 204.243 102.926 205.214 102.926 205.214 102.551 205.214 
	 102.177 205.214 102.177 205.214 101.803 204.243 101.803 204.243 
	 101.428 204.243 101.054 203.271 100.68 202.298 100.68 201.327 
	 100.68 200.357 100.68 200.357 100.68 199.384 100.306 198.413 
	 100.306 198.413 100.306 197.441 100.68 196.47 100.68 196.47 
	 100.68 195.497 100.68 194.526 100.68 194.526 101.054 193.556 
	 101.054 192.583 101.428 192.583 101.803 191.611 102.177 191.611 
	 102.177 191.611 102.551 191.611 102.551 191.611 102.551 191.611 
	 102.551 191.611 102.551 191.611 102.551 191.611 102.551 191.611 "
	 style=" stroke:#000000; stroke-width:1; fill:#ff0016; fill-opacity:100%"></polygon>
	<polygon points="113.969 196.146 113.969 196.146 114.346 196.146 
	 114.346 196.146 114.723 197.117 115.1 198.09 115.477 198.09 
	 115.854 199.06 115.854 200.033 115.854 200.033 115.854 201.004 
	 115.854 201.976 115.854 201.976 115.854 202.947 115.854 202.947 
	 115.854 203.92 115.854 204.891 115.854 205.863 115.854 205.863 
	 115.854 206.834 115.477 207.807 115.1 208.777 114.723 209.748 
	 114.346 209.748 113.969 209.748 113.969 209.748 113.592 209.748 
	 113.592 209.748 113.215 209.748 112.838 209.748 112.461 208.777 
	 112.461 207.807 112.084 206.834 112.084 205.863 111.707 205.863 
	 111.707 204.891 111.707 203.92 111.707 203.92 111.707 202.947 
	 111.707 201.976 111.707 201.976 111.707 201.004 111.707 200.033 
	 112.084 200.033 112.084 199.06 112.084 198.09 112.461 198.09 
	 112.838 197.117 113.215 196.146 113.592 196.146 113.592 196.146 
	 113.969 196.146 113.969 196.146 113.969 196.146 113.969 196.146 
	 113.969 196.146 113.969 196.146 113.969 196.146 "
	 style=" stroke:#000000; stroke-width:1; fill:#ff0016; fill-opacity:100%"></polygon>
	<polygon points="125.701 200.68 125.701 200.68 126.075 200.68 
	 126.075 201.648 126.449 201.648 126.824 202.615 127.198 202.615 
	 127.573 204.549 127.573 204.549 127.573 205.516 127.573 205.516 
	 127.946 206.484 127.946 207.451 127.946 207.451 127.946 208.42 
	 127.946 209.385 127.573 210.354 127.573 210.354 127.573 211.322 
	 127.573 212.289 127.198 212.289 126.824 213.256 126.824 214.223 
	 126.075 214.223 126.075 214.223 125.701 215.19 125.701 215.19 
	 125.327 215.19 125.327 214.223 124.952 214.223 124.578 214.223 
	 124.203 213.256 123.83 212.289 123.83 212.289 123.455 211.322 
	 123.455 210.354 123.455 210.354 123.455 209.385 123.455 208.42 
	 123.455 207.451 123.455 207.451 123.455 206.484 123.455 205.516 
	 123.455 205.516 123.455 204.549 123.83 204.549 123.83 203.582 
	 124.203 202.615 124.578 201.648 124.952 201.648 125.327 200.68 
	 125.327 200.68 125.701 200.68 125.701 200.68 125.701 200.68 
	 125.701 200.68 125.701 200.68 125.701 200.68 125.701 200.68 "
	 style=" stroke:#000000; stroke-width:1; fill:#ff0016; fill-opacity:100%"></polygon>
	<polygon points="60.744 177.1 61.1761 178.159 61.1761 178.159 
	 61.608 179.217 61.608 180.276 61.608 180.276 61.608 181.332 
	 61.608 181.332 61.1761 182.391 60.744 183.449 60.744 183.449 
	 60.3121 182.391 60.3121 182.391 60.3121 181.332 59.8804 181.332 
	 59.8804 180.276 59.8804 179.217 60.3121 179.217 60.3121 178.159 
	 60.744 178.159 60.744 177.1 60.744 177.1 60.744 177.1 
	 60.744 177.1 60.744 177.1 60.744 177.1 60.744 177.1 "
	 style=" stroke:#880505; stroke-width:1; fill:#880505; fill-opacity:100%"></polygon>
	<polygon points="71.1097 181.636 71.1097 182.694 71.5414 182.694 
	 71.5414 183.751 71.9733 183.751 71.9733 184.81 71.9733 185.868 
	 71.5414 185.868 71.5414 186.926 71.1097 186.926 71.1097 187.983 
	 70.6778 186.926 70.2458 186.926 70.2458 185.868 70.2458 185.868 
	 70.2458 184.81 70.2458 183.751 70.2458 183.751 70.6778 182.694 
	 70.6778 182.694 71.1097 181.636 71.1097 181.636 71.1097 181.636 
	 71.1097 181.636 71.1097 181.636 71.1097 181.636 71.1097 181.636 "
	 style=" stroke:#880505; stroke-width:1; fill:#880505; fill-opacity:100%"></polygon>
	<polygon points="81.4751 187.077 81.907 187.077 81.907 187.077 
	 82.3387 188.165 82.3387 189.254 82.3387 189.254 82.3387 190.341 
	 82.3387 190.341 81.907 191.43 81.4751 192.519 81.4751 192.519 
	 81.0431 191.43 81.0431 191.43 80.6111 189.254 80.6111 189.254 
	 80.6111 188.165 81.0431 188.165 81.0431 187.077 81.4751 187.077 
	 81.4751 187.077 81.4751 187.077 81.4751 187.077 81.4751 187.077 
	 81.4751 187.077 81.4751 187.077 81.4751 187.077 "
	 style=" stroke:#880505; stroke-width:1; fill:#880505; fill-opacity:100%"></polygon>
	<polygon points="92.5892 190.704 92.5892 190.704 93.0497 191.793 
	 93.0497 191.793 93.0497 192.882 93.0497 193.969 93.0497 193.969 
	 93.0497 195.057 93.0497 196.146 92.5892 196.146 92.5892 196.146 
	 92.1284 196.146 91.6676 196.146 91.6676 195.057 91.6676 195.057 
	 91.6676 193.969 91.6676 193.969 91.6676 192.882 91.6676 191.793 
	 91.6676 191.793 92.1284 190.704 92.5892 190.704 92.5892 190.704 
	 92.5892 190.704 92.5892 190.704 92.5892 190.704 92.5892 190.704 92.5892 190.704 "
	 style=" stroke:#880505; stroke-width:1; fill:#880505; fill-opacity:100%"></polygon>
	<polygon points="103.185 195.238 103.646 195.238 104.106 196.327 
	 104.106 196.327 104.106 197.416 104.106 198.503 104.106 199.591 
	 104.106 199.591 104.106 200.68 103.646 200.68 103.185 200.68 
	 103.185 200.68 102.724 200.68 102.724 199.591 102.724 199.591 
	 102.724 198.503 102.724 197.416 102.724 196.327 102.724 196.327 
	 103.185 195.238 103.185 195.238 103.185 195.238 103.185 195.238 
	 103.185 195.238 103.185 195.238 103.185 195.238 103.185 195.238 "
	 style=" stroke:#880505; stroke-width:1; fill:#880505; fill-opacity:100%"></polygon>
	<polygon points="114.644 199.774 115.076 200.832 115.076 200.832 
	 115.508 201.889 115.508 201.889 115.508 202.947 115.508 204.006 
	 115.508 205.064 115.076 205.064 115.076 206.121 114.644 206.121 
	 114.213 206.121 114.213 205.064 114.213 205.064 113.781 204.006 
	 113.781 202.947 113.781 201.889 114.213 201.889 114.213 200.832 
	 114.213 200.832 114.644 199.774 114.644 199.774 114.644 199.774 
	 114.644 199.774 114.644 199.774 114.644 199.774 114.644 199.774 "
	 style=" stroke:#880505; stroke-width:1; fill:#880505; fill-opacity:100%"></polygon>
	<polygon points="126.392 205.214 126.824 205.214 126.824 206.303 
	 127.255 206.303 127.255 207.392 127.255 208.479 127.255 208.479 
	 127.255 209.568 126.824 209.568 126.824 210.656 126.392 210.656 
	 126.392 210.656 125.96 210.656 125.96 209.568 125.528 208.479 
	 125.528 208.479 125.528 207.392 125.528 207.392 125.96 206.303 
	 125.96 205.214 126.392 205.214 126.392 205.214 126.392 205.214 
	 126.392 205.214 126.392 205.214 126.392 205.214 126.392 205.214 126.392 205.214 "
	 style=" stroke:#880505; stroke-width:1; fill:#880505; fill-opacity:100%"></polygon>
	<polyline points="60.4849 176.194 60.4849 176.194 60.0532 176.194 
	 60.0532 176.194 60.0532 176.194 59.6213 176.194 59.6213 177.215 
	 59.6213 177.215 59.6213 177.215 59.6213 178.236 59.6213 178.236 
	 59.1893 178.236 59.1893 179.255 59.1893 179.255 59.1893 180.276 
	 59.1893 180.276 59.1893 180.276 59.1893 181.296 59.1893 181.296 
	 59.1893 182.315 59.1893 182.315 59.1893 183.336 59.6213 183.336 
	 59.6213 183.336 59.6213 184.357 59.6213 184.357 59.6213 184.357 
	 60.0532 184.357 60.0532 184.357 60.0532 184.357 60.4849 184.357 
	 60.4849 184.357 60.9168 184.357"
	 style=" stroke:#ff00ff; stroke-width:1;"></polyline>
	<polyline points="70.9369 180.728 70.4761 180.728 70.4761 180.728 
	 70.4761 180.728 70.0154 180.728 70.0154 180.728 70.0154 181.749 
	 70.0154 181.749 69.5549 181.749 69.5549 182.77 69.5549 182.77 
	 69.5549 182.77 69.5549 183.789 69.5549 183.789 69.5549 184.81 
	 69.5549 184.81 69.5549 184.81 69.5549 185.83 69.5549 185.83 
	 69.5549 186.851 69.5549 186.851 69.5549 187.87 69.5549 187.87 
	 69.5549 187.87 70.0154 188.891 70.0154 188.891 70.0154 188.891 
	 70.0154 188.891 70.4761 188.891 70.4761 188.891 70.4761 188.891 
	 70.9369 188.891 70.9369 188.891"
	 style=" stroke:#ff00ff; stroke-width:1;"></polyline>
	<polyline points="81.2159 185.264 81.2159 185.264 80.7838 185.264 
	 80.7838 185.264 80.7838 185.264 80.3522 185.264 80.3522 186.284 
	 80.3522 186.284 80.3522 186.284 80.3522 187.304 80.3522 187.304 
	 79.9202 187.304 79.9202 188.324 79.9202 188.324 79.9202 189.344 
	 79.9202 189.344 79.9202 190.364 79.9202 190.364 79.9202 190.364 
	 79.9202 191.385 79.9202 191.385 80.3522 192.404 80.3522 192.404 
	 80.3522 192.404 80.3522 193.425 80.3522 193.425 80.7838 193.425 
	 80.7838 193.425 80.7838 193.425 80.7838 193.425 81.2159 193.425 
	 81.2159 193.425 81.6478 193.425"
	 style=" stroke:#ff00ff; stroke-width:1;"></polyline>
	<polyline points="91.9268 189.798 91.9268 189.798 91.9268 189.798 
	 91.4948 189.798 91.4948 189.798 91.4948 189.798 91.0631 189.798 
	 91.0631 190.817 91.0631 190.817 91.0631 190.817 91.0631 191.838 
	 91.0631 191.838 90.6311 192.858 90.6311 192.858 90.6311 193.879 
	 90.6311 193.879 90.6311 193.879 90.6311 194.898 90.6311 194.898 
	 90.6311 195.919 91.0631 195.919 91.0631 196.94 91.0631 196.94 
	 91.0631 196.94 91.0631 197.959 91.0631 197.959 91.4948 197.959 
	 91.4948 197.959 91.4948 197.959 91.9268 197.959 91.9268 197.959 
	 92.3587 197.959 92.3587 197.959"
	 style=" stroke:#ff00ff; stroke-width:1;"></polyline>
	<polyline points="102.983 194.332 102.983 194.332 102.551 194.332 
	 102.551 194.332 102.551 194.332 102.551 194.332 102.12 194.332 
	 102.12 194.332 102.12 195.352 102.12 195.352 102.12 196.373 
	 101.688 196.373 101.688 196.373 101.688 197.392 101.688 197.392 
	 101.688 198.413 101.688 198.413 101.688 199.432 101.688 199.432 
	 101.688 200.453 101.688 200.453 102.12 200.453 102.12 201.474 
	 102.12 201.474 102.12 201.474 102.12 202.493 102.551 202.493 
	 102.551 202.493 102.551 202.493 102.983 202.493 102.983 202.493 
	 102.983 202.493 103.415 202.493"
	 style=" stroke:#ff00ff; stroke-width:1;"></polyline>
	<polyline points="114.472 198.866 114.011 198.866 114.011 198.866 
	 114.011 198.866 113.55 198.866 113.55 198.866 113.55 199.874 
	 113.55 199.874 113.09 199.874 113.09 200.882 113.09 200.882 
	 113.09 200.882 113.09 201.889 113.09 201.889 113.09 202.897 
	 113.09 202.897 113.09 203.906 113.09 203.906 113.09 204.912 
	 113.09 204.912 113.09 204.912 113.09 205.92 113.09 205.92 
	 113.09 205.92 113.55 206.927 113.55 206.927 113.55 206.927 
	 113.55 206.927 114.011 207.935 114.011 207.935 114.472 207.935 
	 114.472 206.927 114.472 206.927"
	 style=" stroke:#ff00ff; stroke-width:1;"></polyline>
	<polyline points="126.133 204.308 126.133 204.308 125.701 204.308 
	 125.701 204.308 125.701 204.308 125.269 204.308 125.269 204.308 
	 125.269 204.308 125.269 205.327 124.837 205.327 124.837 205.327 
	 124.837 206.348 124.837 206.348 124.837 207.369 124.837 207.369 
	 124.837 208.389 124.837 208.389 124.837 209.409 124.837 209.409 
	 124.837 209.409 124.837 210.429 124.837 210.429 124.837 211.45 
	 124.837 211.45 125.269 211.45 125.269 212.469 125.269 212.469 
	 125.701 212.469 125.701 212.469 125.701 212.469 126.133 212.469 
	 126.133 212.469 126.565 212.469"
	 style=" stroke:#ff00ff; stroke-width:1;"></polyline>
	<polyline points="17.0365 143.576 17.383 142.659 17.383 142.659 
	 17.7295 141.742 18.076 141.742 18.4225 141.742 18.7689 140.827 
	 19.1154 140.827 19.4619 140.827 19.8084 140.827 20.1549 140.827 
	 20.5014 140.827 21.1943 140.827 21.5408 140.827 21.8872 141.742 
	 22.2337 141.742 22.5802 141.742 136.572 186.664 136.919 186.664 
	 137.265 186.664 137.612 187.579 137.957 187.579 138.304 187.579 
	 138.651 188.496 138.997 188.496 139.344 189.413 139.691 190.33 
	 140.036 192.163 140.383 193.08 140.73 193.997 140.73 195.83 
	 141.076 197.664 141.076 199.497 141.076 225.165"
	 style=" stroke:#ffffff; stroke-width:1;"></polyline>
	<polyline points="102.033 218.818 27.4051 185.696 27.058 185.696 
	 27.058 184.777 26.7109 184.777 26.7109 183.857 26.7109 182.938 
	 26.7109 182.938 26.7109 155.335"
	 style=" stroke:#ababab; stroke-width:1;"></polyline>
	<polygon points="59.1893 190.704 60.5713 190.704 60.5713 194.332 
	 59.1893 194.332 59.1893 190.704 59.1893 190.704 59.1893 190.704 
	 59.1893 190.704 59.1893 190.704 59.1893 190.704 59.1893 190.704 "
	 style=" stroke:#ffffff; stroke-width:1; fill:#ffffff; fill-opacity:100%"></polygon>
	<polygon points="29.4751 174.381 32.2392 176.396 32.2392 183.449 
	 29.4751 182.442 29.4751 174.381 29.4751 174.381 29.4751 174.381 
	 29.4751 174.381 29.4751 174.381 29.4751 174.381 29.4751 174.381 "
	 style=" stroke:#ffffff; stroke-width:1; fill:#ffffff; fill-opacity:100%"></polygon>
	<polygon points="69.9002 195.238 71.2822 195.238 71.2822 198.866 
	 69.9002 198.866 69.9002 195.238 69.9002 195.238 69.9002 195.238 
	 69.9002 195.238 69.9002 195.238 69.9002 195.238 69.9002 195.238 "
	 style=" stroke:#ffffff; stroke-width:1; fill:#ffffff; fill-opacity:100%"></polygon>
	<polygon points="80.2658 199.774 81.6479 199.774 81.6479 203.401 
	 80.2658 203.401 80.2658 199.774 80.2658 199.774 80.2658 199.774 
	 80.2658 199.774 80.2658 199.774 80.2658 199.774 80.2658 199.774 "
	 style=" stroke:#ffffff; stroke-width:1; fill:#ffffff; fill-opacity:100%"></polygon>
	<polygon points="90.6311 204.308 92.0132 204.308 92.0132 208.842 
	 90.6311 207.708 90.6311 204.308 90.6311 204.308 90.6311 204.308 
	 90.6311 204.308 90.6311 204.308 90.6311 204.308 90.6311 204.308 "
	 style=" stroke:#ffffff; stroke-width:1; fill:#ffffff; fill-opacity:100%"></polygon>
	<polygon points="102.033 208.842 103.415 209.975 103.415 213.376 
	 102.033 213.376 102.033 208.842 102.033 208.842 102.033 208.842 
	 102.033 208.842 102.033 208.842 102.033 208.842 102.033 208.842 "
	 style=" stroke:#ffffff; stroke-width:1; fill:#ffffff; fill-opacity:100%"></polygon>
	<polygon points="113.09 213.376 114.472 214.511 114.472 217.912 
	 113.09 217.912 113.09 213.376 113.09 213.376 113.09 213.376 
	 113.09 213.376 113.09 213.376 113.09 213.376 113.09 213.376 "
	 style=" stroke:#ffffff; stroke-width:1; fill:#ffffff; fill-opacity:100%"></polygon>
	<polygon points="124.837 218.818 126.22 219.952 126.22 223.352 
	 124.837 222.219 124.837 218.818 124.837 218.818 124.837 218.818 
	 124.837 218.818 124.837 218.818 124.837 218.818 124.837 218.818 "
	 style=" stroke:#ffffff; stroke-width:1; fill:#ffffff; fill-opacity:100%"></polygon>
	<polygon points="32.9302 182.024 41.9136 186.17 41.9136 183.061 
	 32.9302 178.915 32.9302 182.024 32.9302 182.024 32.9302 182.024 
	 32.9302 182.024 32.9302 182.024 32.9302 182.024 32.9302 182.024 "
	 style=" stroke:#ffffff; stroke-width:1; fill:#ffffff; fill-opacity:100%"></polygon>
	<polygon points="145.913 184.557 141.841 191.612 141.472 189.596 
	 141.101 187.581 140.731 186.574 141.472 186.574 142.212 186.574 
	 145.543 182.543 145.543 183.549 145.913 184.557 145.913 184.557 
	 145.913 184.557 145.913 184.557 145.913 184.557 145.913 184.557 145.913 184.557 "
	 style=" stroke:#ffffff; stroke-width:1; fill:#ffffff; fill-opacity:100%"></polygon>
	<polyline points="27.402 155.337 21.5282 153.522"
	 style=" stroke:#0000ff; stroke-width:1;"></polyline>
      </g>
    </g>
  </symbol>
 </defs>
</svg>
