<?xml version="1.0" encoding="UTF-8" standalone="no"?>
<svg id="svg2" xmlns:rdf="http://www.w3.org/1999/02/22-rdf-syntax-ns#" xmlns="http://www.w3.org/2000/svg" enable-background="new -0.442 -0.236 189 216" xml:space="preserve" height="219" width="219" version="1.1" y="0px" x="0px" xmlns:cc="http://creativecommons.org/ns#" xmlns:xlink="http://www.w3.org/1999/xlink" viewBox="-0.442 -0.236 219 219" xmlns:dc="http://purl.org/dc/elements/1.1/"><metadata id="metadata276"><rdf:RDF><cc:Work rdf:about=""><dc:format>image/svg+xml</dc:format><dc:type rdf:resource="http://purl.org/dc/dcmitype/StillImage"/><dc:title/></cc:Work></rdf:RDF></metadata><defs id="defs4"><filter id="filter4159" color-interpolation-filters="sRGB"><feGaussianBlur id="feGaussianBlur4161" stdDeviation="1.8886065"/></filter><linearGradient id="linearGradient4714" y2="31.593" gradientUnits="userSpaceOnUse" x2="129.98" y1="166.01" x1="172.48"><stop id="stop4196" stop-color="#4b4b4b" offset="0"/><stop id="stop4198" stop-color="#acacac" offset="1"/></linearGradient><linearGradient id="linearGradient3351" y2="51.829" gradientUnits="userSpaceOnUse" x2="33.7" gradientTransform="matrix(1.1165526,0,0,1.1022038,2.5945348,-13.108907)" y1="195.41" x1="126.82"><stop id="stop4345" stop-color="#656565" offset="0"/><stop id="stop4347" stop-color="#dcdcdc" offset="1"/></linearGradient><linearGradient id="linearGradient4209" y2="51.071" gradientUnits="userSpaceOnUse" x2="36.145" y1="154.06" x1="104.36"><stop id="stop4205" stop-color="#1a1a1a" offset="0"/><stop id="stop4207" stop-color="#877e7e" offset="1"/></linearGradient></defs><g id="g4211"><path id="path3389" opacity="0.5" d="m35.274,155.03c0.25503-27.128,0.46369-61.981,0.46369-77.452v-28.129l21.004-14.479,21.004-14.479h58.143,58.143l-0.17817,77.144-0.17817,77.144-20.662,14.936-20.662,14.936-58.771-0.14904-58.771-0.14905,0.46369-49.323z" fill-rule="evenodd" transform="matrix(1.1165526,0,0,1.1022038,-9.1105652,-9.485342)" filter="url(#filter4159)" stroke-miterlimit="4" stroke-width="0" fill="#000"/><polygon id="polygon243_1_-4" points="47.579,1.049,1.211,32.715,129.12,33.383,174.18,1.049" fill="#b6b8ba" transform="matrix(1.020222,0,0,1.0071112,19.042465,3.187848)"/><polygon id="polygon245_1_-9" points="129.12,32.377,129.83,201.79,173.94,169.52,174.43,1.231" fill="url(#linearGradient4714)" transform="matrix(1.020222,0,0,1.0071112,19.042465,3.187848)"/><polygon id="polygon255_1_-1" transform="matrix(1.020222,0,0,1.0071112,19.042465,3.187848)" stroke="#000" points="1.214,32.31,0.502,202.45,129.83,202.39,174.98,169.83,174.91,0.5,47.092,0.683" fill="none"/><polyline id="polyline257_1_-7" transform="matrix(1.020222,0,0,1.0071112,19.042465,3.187848)" stroke="#000" points="129.83,202.39,129.15,32.559,174.67,0.683" fill="none"/><line id="line259_1_-5" stroke-width="1.0136" x1="20.926" y1="36.13" stroke="#000" x2="150.81" y2="36.13" fill="none"/><path id="path261_1_-5" fill="#605f5f" d="M156.43,202.8,197,173.91,196.75,54.297c-0.001,0.001-1.4661,102.38-40.319,148.5z"/><path id="path263_1_-4" fill="#7c7c7c" d="m195.25,6.2686-43.632,29.996,0.37441,86.949c0.001,0-6.1213-79.82,43.257-116.94z"/><path id="path265_1_-1" fill="#e2e2e2" d="M143.8,4.336,67.648,4.4749,34.983,26.556s51.763-23.226,108.82-22.22z"/><rect id="rect4203" style="stroke-dasharray:none;" fill-rule="evenodd" ry="6.5618" height="147.06" width="108.7" stroke="#000" stroke-miterlimit="4" y="48.404" x="31.529" stroke-width="2.2187" fill="url(#linearGradient4209)"/><polyline id="polyline267_1_-8" transform="matrix(1.020222,0,0,1.0071112,19.042465,3.187848)" stroke="#000" points="9.772,26.629,137.59,26.629,138.92,196.19" fill="none"/><path id="path4333" style="stroke-dasharray:none;" d="m20.478,140.22c0.12994-36.355,0.34253-74.481,0.47242-84.724l0.23617-18.624h64.423,64.423l0.23666,53.556c0.13017,29.456,0.3207,67.581,0.42339,84.724l0.18671,31.168h-65.318-65.318l0.23626-66.1zm116.26,55.86c1.9322-0.79694,3.17-1.9729,4.0436-3.8414,0.69313-1.4825,0.72219-4.2781,0.73045-70.264l0.009-68.72-0.87978-1.6999c-0.48-0.944-1.55-2.24-2.38-2.889l-1.5025-1.1803-50.415-0.10081c-45.974-0.09192-50.526-0.04532-51.675,0.52903-1.7927,0.89627-2.5937,1.6706-3.5497,3.4316l-0.83817,1.5439v69.092c0,66.451,0.0276,69.142,0.72209,70.399,0.89694,1.6241,2.4331,3.0735,3.97,3.7459,0.95518,0.41789,10.38,0.51601,50.746,0.52831,43.883,0.0133,49.74-0.0535,51.022-0.58229z" fill-rule="evenodd" stroke="#434343" stroke-miterlimit="4" stroke-width="1.55396414" fill="url(#linearGradient3351)"/><path id="polygon250-9" d="m47.381,90.318-0.132-7.326-59.569,0.25061,0.006-14.701l59.455-0.271,0.019-7.393,17.818,14.628z" transform="matrix(-0.01094431,1.4771696,-1.1291867,-0.007692,137.02563,92.750066)" stroke="#e6b14b" stroke-miterlimit="4" stroke-width="0.88557076" fill="#FFF"/><path id="polygon250-9-0" d="m64.978,75.506-17.597,14.812-0.132-7.326-59.569,0.25061,0.006-14.701l59.455-0.271,0.019-7.393z" transform="matrix(-0.01094431,1.4771696,-1.1291867,-0.007692,172.45285,92.778087)" stroke="#e6b14b" stroke-miterlimit="4" stroke-width="0.88557076" fill="#FFF"/><path id="polygon250-9-8" d="m47.381,90.318-0.132-7.326-59.569,0.25061,0.006-14.701l59.455-0.271,0.019-7.393,17.818,14.628z" transform="matrix(-0.01094431,1.4771696,-1.1291867,-0.007692,207.3488,92.778087)" stroke="#e6b14b" stroke-miterlimit="4" stroke-width="0.88557076" fill="#FFF"/><rect id="rect3433" style="stroke-dasharray:none;" ry="6.0746" height="44.366" width="98.397" stroke="#FFF" stroke-miterlimit="4" y="58.704" x="37.47" stroke-width="7" fill="none"/></g></svg>