<?xml version="1.0"?>
<?metis version="3.1"?>
<?metisxml version="1.0"?>
<!DOCTYPE svg  PUBLIC "-//W3C//DTD SVG August 1999//EN"
 "http://www.w3.org/Graphics/SVG/svg-19990812.dtd">

<svg width="200" height="200">
 <title>Symbol library: network.svg</title>
 <defs>
  <symbol id="oid1" xml:space="preserve" class="METIS_SYMBOL">
   <title>Network</title>
    <g>
      <polygon points="7.10543e-015 0 7.10543e-015 304 16.2963 320 
       880 320 880 16 863.704 0 7.10543e-015 0 
       7.10543e-015 0 7.10543e-015 0 7.10543e-015 0 7.10543e-015 0 
       7.10543e-015 0 7.10543e-015 0 7.10543e-015 0 7.10543e-015 0 
       7.10543e-015 0 7.10543e-015 0 7.10543e-015 0 "
       style=" stroke:#000000; stroke-width:1; fill:#9b9b9b; fill-opacity:100%"       class="TAG:shadow"></polygon>
      <rect x="7.10543e-015" y="0" width="240" height="304"
       style=" stroke:#000000; stroke-width:1; fill:#ffffff; fill-opacity:100%"       class="TAG:PictureBackground"></rect>
      <rect x="240" y="0" width="624" height="304"
       style=" stroke:#000000; stroke-width:1; fill:#aaaaff; fill-opacity:100%"       class="TAG:canvas"></rect>
      <g>
	<desc>METIS_TEXT_GROUP</desc>
	<text  x="256" y="15.8"
	 style=" stroke:#000000; stroke-width:1; font-family:sans-serif; font-size:16;"
	 class="TAG:text">text</text>
	<rect x="256" y="0" width="608" height="304"
	 style=" stroke:#000000; stroke-width:1; fill:#ffffff; fill-opacity:0%"></rect>
      </g>
      <polyline points="880 320 864 304"
       style=" stroke:#000000; stroke-width:1;"></polyline>
      <g>
	<polygon points="23.4812 135.172 119.9 33.3345 215.643 136 
	 173.3 255.779 67.072 255.999 23.4812 135.172 23.4812 135.172 23.4812 135.172 "
	 style=" stroke:#000000; stroke-width:1; fill:#ffffff; fill-opacity:100%"></polygon>
	<ellipse  cx="120" cy="47.9999" rx="14.8571" ry="15.9999"
	 style=" stroke:#000000; stroke-width:1; fill:#000000; fill-opacity:100%"></ellipse>
	<ellipse  cx="30.8571" cy="135.924" rx="14.8571" ry="15.9247"
	 style=" stroke:#000000; stroke-width:1; fill:#000000; fill-opacity:100%"></ellipse>
	<ellipse  cx="60.5714" cy="253.641" rx="14.8571" ry="18.3589"
	 style=" stroke:#000000; stroke-width:1; fill:#000000; fill-opacity:100%"></ellipse>
	<ellipse  cx="179.429" cy="253.641" rx="14.8571" ry="18.3589"
	 style=" stroke:#000000; stroke-width:1; fill:#000000; fill-opacity:100%"></ellipse>
	<ellipse  cx="209.143" cy="135.924" rx="14.8571" ry="15.9247"
	 style=" stroke:#000000; stroke-width:1; fill:#000000; fill-opacity:100%"></ellipse>
	<polyline points="111.344 42.0742 26.2148 132"
	 style=" stroke:#000000; stroke-width:2;"></polyline>
	<polyline points="63.4715 245.629 27.154 145.186"
	 style=" stroke:#000000; stroke-width:2;"></polyline>
	<polyline points="127.853 42.0742 211.929 132"
	 style=" stroke:#000000; stroke-width:2;"></polyline>
	<polyline points="212.044 145.186 178.202 242.073"
	 style=" stroke:#000000; stroke-width:2;"></polyline>
	<polyline points="68.4238 256.295 169.948 255.407"
	 style=" stroke:#000000; stroke-width:2;"></polyline>
      </g>
    </g>
  </symbol>
 </defs>
</svg>
