<?xml version="1.0"?>
<?metis version="5.1"?>
<?metisxml version="1.2"?>
<!DOCTYPE svg  PUBLIC "-//W3C//DTD SVG 1.0//EN"
 "http://www.w3.org/TR/2001/REC-SVG-20010904/DTD/svg10.dtd">

<svg>
 <title>Symbol library: object_nested_open.svg</title>
 <defs>
  <symbol id="oid1" xml:space="preserve" class="METIS_SYMBOL">
   <title>Object Nested Open</title>
    <path d="M 0 368 C 0 374.102 9.89792 384 
     16 384 C 144 384 368 384 496 384 
     C 502.102 384 512 374.102 512 368 C 512 272 
     512 112 512 16 C 512 9.89792 502.102 0 
     496 0 C 373.237 0 30.9943 0 16 0 
     C 15.3603 0 0 0 0 16 Z"
     style=" stroke:#000000; stroke-width:2; fill:#000000; fill-opacity:100%"     class="TAG:canvas"></path>
    <path d="M 25.1034 8 C 16.5517 8 8 18.2222 
     8 28.4444 C 8 28.4444 8 355.556 8 355.556 
     C 8 365.778 16.5517 376 25.1034 376 C 25.1034 376 
     486.897 376 486.897 376 C 495.448 376 504 365.778 
     504 355.556 C 504 355.556 504 28.4444 504 28.4444 
     C 504 18.2222 495.448 8 486.897 8 Z"
     style="stroke:none; fill:#ffffff; fill-opacity:100%"     class="TAG:textbackground"></path>
    <g>
      <desc>METIS_TEXT_GROUP</desc>
      <text  x="16" y="47"
       style=" stroke:#000000; stroke-width:1; font-family:sans-serif; font-size:32;"
       class="TAG:text"></text>
      <rect x="16" y="16" width="424" height="48"
       style=" stroke:#000000; stroke-width:1; fill:#ffffff; fill-opacity:0%"></rect>
    </g>
    <image x="448" y="16" width="48" height="48" xlink:role="symbol" xlink:title="Text" xlink:href="metis:stdsyms#oid40"     class="TAG:icon"></image>
    <rect x="8" y="64" width="496" height="312"
     style="stroke:none; fill:#ffffff; fill-opacity:0%"     class="TAG:LAYOUTAREA"></rect>
    <g>
      <desc>METIS_TEXT_GROUP</desc>
      <text  x="16" y="61"
       style=" stroke:#000000; stroke-width:2; font-family:sans-serif; font-size:14; text-align:right"
       class="TAG:extratext"></text>
      <rect x="16" y="48" width="424" height="24"
       style=" stroke:#000000; stroke-width:1; fill:#dcdcdc; fill-opacity:0%"></rect>
    </g>
  </symbol>
 </defs>
 <use xlink:href="#oid1"/>
</svg>
