<?xml version="1.0"?>
<?metis version="3.1"?>
<?metisxml version="1.0"?>
<!DOCTYPE svg  PUBLIC "-//W3C//DTD SVG August 1999//EN"
 "http://www.w3.org/Graphics/SVG/svg-19990812.dtd">

<svg width="200" height="200">
 <title>Symbol library: objective1.svg</title>
 <defs>
  <symbol id="oid1" xml:space="preserve" class="METIS_SYMBOL">
   <title>Objective</title>
    <g>
      <polygon points="0 0 0 304 16 320 
       880 320 880 16 864 0 0 0 
       0 0 0 0 0 0 0 0 0 0 "
       style=" stroke:#000000; stroke-width:1; fill:#9b9b9b; fill-opacity:100%"       class="TAG:shadow"></polygon>
      <rect x="0" y="0" width="240" height="304"
       style=" stroke:#000000; stroke-width:1; fill:#ffff6e; fill-opacity:100%"       class="TAG:PictureBackground"></rect>
      <rect x="240" y="224" width="624" height="80"
       style=" stroke:#000000; stroke-width:1; fill:#dcdcdc; fill-opacity:100%"       class="TAG:PropertyBackground"></rect>
      <g>
	<desc>METIS_TEXT_GROUP</desc>
	<text  x="256" y="236.8"
	 style=" stroke:#000000; stroke-width:1; font-family:sans-serif; font-size:13;"
	 class="TAG:strat_value">strat_value</text>
	<rect x="256" y="224" width="583.755" height="80"
	 style=" stroke:#000000; stroke-width:1; fill:#ffffff; fill-opacity:0%"></rect>
      </g>
      <rect x="240" y="0" width="624" height="224"
       style=" stroke:#000000; stroke-width:1; fill:#ff8c8c; fill-opacity:100%"       class="TAG:canvas"></rect>
      <g>
	<desc>METIS_TEXT_GROUP</desc>
	<text  x="256" y="15.8"
	 style=" stroke:#000000; stroke-width:1; font-family:sans-serif; font-size:16;"
	 class="TAG:text">text</text>
	<rect x="256" y="0" width="608" height="224"
	 style=" stroke:#000000; stroke-width:1; fill:#ffffff; fill-opacity:0%"></rect>
      </g>
      <polyline points="864 304 880 320"
       style=" stroke:#000000; stroke-width:1;"></polyline>
      <g>
	<polygon points="64 72 73.5881 72 83.1779 72 
	 86.7392 72 89.7534 72.2909 92.219 72.5819 94.1375 73.1638 
	 95.5075 73.8909 96.8775 74.7637 98.2475 75.9273 99.3431 77.2364 
	 100.439 78.8365 100.987 80.4365 101.534 82.1819 101.534 84.0728 
	 101.26 87.4183 99.8902 90.3274 98.7944 91.6365 97.6988 92.8002 
	 96.3289 93.6729 94.959 94.5456 96.8775 95.2729 98.7944 96.1456 
	 100.164 97.3093 101.534 98.7638 102.63 100.363 103.453 102.109 
	 103.727 104 104 106.036 103.727 108.509 103.179 110.982 
	 102.357 113.018 100.987 114.91 99.3431 116.509 97.4245 117.818 
	 95.5075 118.837 93.5889 119.418 91.672 119.709 88.932 119.855 
	 85.0964 120 80.1637 120 72.2182 120 64 120 
	 64 72 64 72 64 72 64 72 
	 64 72 64 72 64 72 64 72 "
	 style=" stroke:#000000; stroke-width:1; fill:#6e0000; fill-opacity:100%"></polygon>
	<polygon points="73.5227 79.9759 73.5227 85.5588 73.5227 91.142 
	 76.8367 91.142 79.8745 91.142 82.6357 91.142 84.5675 91.142 
	 86.2245 91.142 87.0524 90.9951 89.2622 90.4074 90.09 89.9667 
	 90.9177 89.232 91.4705 88.4974 92.0219 87.6159 92.2983 85.412 
	 92.0219 83.5019 91.1942 81.8859 89.8135 80.8574 89.2622 80.4167 
	 88.4329 80.2697 87.3288 80.1228 85.3953 79.9759 82.6357 79.9759 
	 79.0451 79.9759 76.2839 79.9759 73.5227 79.9759 73.5227 79.9759 
	 73.5227 79.9759 73.5227 79.9759 73.5227 79.9759 73.5227 79.9759 
	 73.5227 79.9759 73.5227 79.9759 "
	 style=" stroke:#000000; stroke-width:1; fill:#ffff6e; fill-opacity:100%"></polygon>
	<polygon points="73.5227 98.9726 73.5227 105.426 73.5227 111.879 
	 82.6229 111.879 85.3788 111.879 87.3095 111.732 88.9643 111.585 
	 90.0669 111.439 90.8935 111.146 91.7216 110.706 92.8243 109.386 
	 93.9269 107.773 94.2031 106.746 94.2031 105.573 93.9269 103.373 
	 92.8243 101.613 92.2722 100.88 91.4456 100.439 89.5149 99.5591 
	 88.1361 99.2662 86.483 99.1194 84.0001 98.9726 81.2443 98.9726 
	 77.3828 98.9726 73.5227 98.9726 73.5227 98.9726 73.5227 98.9726 
	 73.5227 98.9726 73.5227 98.9726 73.5227 98.9726 73.5227 98.9726 73.5227 98.9726 "
	 style=" stroke:#000000; stroke-width:1; fill:#ffff6e; fill-opacity:100%"></polygon>
      </g>
      <polygon points="116 120 112 116.903 112 109.161 
       116 112.258 120 113.806 124 112.258 126 109.161 
       126 72 131.003 72 136 72 136 109.161 
       134 112.258 132 115.355 128 118.452 124 120 
       116 120 116 120 "
       style=" stroke:#000000; stroke-width:1; fill:#6e0000; fill-opacity:100%"></polygon>
      <polygon points="112 192 112 144 115.886 144 
       120 144 120 192 115.886 192 112 192 
       112 192 112 192 112 192 112 192 
       112 192 112 192 112 192 112 192 112 192 "
       style=" stroke:#000000; stroke-width:1; fill:#6e0000; fill-opacity:100%"></polygon>
      <polygon points="47.32 174.175 51.832 175.579 56.344 176.981 
       55.283 180.632 53.69 183.719 51.567 186.245 49.176 188.351 
       46.523 189.894 43.871 191.018 40.685 191.719 37.234 192 
       35.11 191.858 32.988 191.579 30.865 191.158 29.007 190.596 
       27.148 189.754 25.556 188.772 23.962 187.649 22.636 186.245 
       19.717 182.597 17.859 178.385 17.064 176.141 16.532 173.754 
       16 171.088 16 168.421 16 165.473 16.532 162.807 
       17.064 160.14 17.859 157.754 18.656 155.509 19.717 153.404 
       21.043 151.578 22.636 149.754 24.229 148.491 25.556 147.227 
       27.414 146.245 29.271 145.403 31.13 144.841 33.254 144.42 
       35.376 144.14 37.765 144 41.479 144.28 44.931 145.123 
       46.523 145.684 48.115 146.386 49.442 147.368 50.769 148.351 
       52.363 150.176 53.955 152.281 55.283 154.808 56.344 157.614 
       51.567 158.736 47.054 159.719 46.523 158.035 45.727 156.491 
       44.665 155.088 43.604 153.965 42.278 153.122 40.685 152.56 
       39.092 152.14 37.234 151.999 34.846 152.281 32.721 152.982 
       30.599 154.105 29.007 155.649 28.21 156.632 27.679 157.754 
       27.148 159.157 26.618 160.562 26.352 162.105 26.086 163.93 
       25.823 165.755 25.823 167.859 25.823 169.964 26.086 171.93 
       26.352 173.614 26.618 175.298 26.884 176.842 27.414 178.105 
       28.21 179.228 28.741 180.211 30.599 181.894 32.456 183.017 
       34.58 183.719 36.968 184 38.826 183.86 40.418 183.439 
       42.012 182.597 43.338 181.613 44.665 180.211 45.727 178.527 
       46.523 176.561 47.32 174.175 47.32 174.175 47.32 174.175 
       47.32 174.175 47.32 174.175 47.32 174.175 47.32 174.175 
       47.32 174.175 47.32 174.175 47.32 174.175 "
       style=" stroke:#000000; stroke-width:1; fill:#6e0000; fill-opacity:100%"></polygon>
      <g>
	<polygon points="16 96.281 16.2413 92.351 16.7268 88.701 
	 17.4535 85.4735 18.6656 82.6665 20.1205 80.1395 21.8183 77.8945 
	 23.5145 76.0705 25.6962 74.666 27.8779 73.544 30.3023 72.7009 
	 32.9694 72.1403 35.8792 72 38.061 72.1403 40.2427 72.4202 
	 42.1816 72.8413 44.1221 73.544 45.8183 74.3855 47.516 75.509 
	 48.9695 76.7715 50.4245 78.1755 51.6366 79.86 52.8489 81.6835 
	 53.8183 83.649 54.5465 85.7535 55.2732 88.14 55.7588 90.525 
	 56 93.193 56 95.9995 56 98.807 55.7588 101.474 
	 55.2732 104.001 54.5465 106.385 53.8183 108.491 52.8489 110.597 
	 51.6366 112.562 50.1817 114.245 48.9695 115.65 47.2733 116.772 
	 45.8183 117.754 44.1221 118.597 42.1816 119.158 40.2427 119.579 
	 38.3036 119.859 36.1206 120 33.9388 119.859 31.7573 119.579 
	 29.8183 119.158 27.8779 118.597 26.1816 117.754 24.7267 116.772 
	 23.2717 115.65 21.8183 114.245 20.3633 112.562 19.3939 110.738 
	 18.1817 108.632 17.4535 106.527 16.7268 104.14 16.484 101.614 
	 16 99.0875 16 96.281 16 96.281 16 96.281 
	 16 96.281 16 96.281 16 96.281 16 96.281 
	 16 96.281 16 96.281 16 96.281 16 96.281 "
	 style=" stroke:#000000; stroke-width:1; fill:#6e0000; fill-opacity:100%"></polygon>
	<polygon points="24.4327 95.9995 24.6765 99.795 25.4078 103.028 
	 26.3816 105.698 27.8414 107.947 29.5465 109.775 31.494 111.04 
	 33.6851 111.742 36.1202 112.023 38.5551 111.742 40.5039 111.04 
	 42.4513 109.775 44.1564 107.947 44.8864 106.964 45.6163 105.698 
	 46.104 104.433 46.5902 103.028 47.3214 99.654 47.5651 95.859 
	 47.5651 93.892 47.3214 92.0635 47.0776 90.378 46.8339 88.8315 
	 45.6163 86.0205 44.3988 83.912 42.6952 82.2245 40.7465 80.9595 
	 38.5551 80.2575 36.1202 79.976 33.6851 80.2575 31.494 80.9595 
	 29.3027 82.2245 27.599 83.912 26.8677 84.8955 26.3816 86.1605 
	 25.6502 87.426 25.4078 88.8315 24.6765 92.205 24.4327 95.9995 
	 24.4327 95.9995 24.4327 95.9995 24.4327 95.9995 24.4327 95.9995 
	 24.4327 95.9995 24.4327 95.9995 24.4327 95.9995 24.4327 95.9995 
	 24.4327 95.9995 24.4327 95.9995 "
	 style=" stroke:#000000; stroke-width:1; fill:#ffff6e; fill-opacity:100%"></polygon>
      </g>
      <polygon points="128 144 138 144 150 173.793 
       160 144 170 144 150 192 128 144 128 144 "
       style=" stroke:#000000; stroke-width:1; fill:#6e0000; fill-opacity:100%"></polygon>
      <polygon points="78.9634 192 78.9634 171.968 78.9634 152.126 
       71.481 152.126 64 152.126 64 148.157 64 144 
       83.8551 144 104 144 104 148.157 104 152.126 
       96.5176 152.126 89.0359 152.126 89.0359 171.968 89.0359 192 
       83.8551 192 78.9634 192 78.9634 192 78.9634 192 
       78.9634 192 78.9634 192 78.9634 192 78.9634 192 78.9634 192 "
       style=" stroke:#000000; stroke-width:1; fill:#6e0000; fill-opacity:100%"></polygon>
      <polygon points="152 120 152 96.0943 152 72 
       171.55 72 191.097 72 191.097 75.9846 191.097 80.1587 
       176.963 80.1587 162.527 80.1587 162.527 85.4705 162.527 90.7824 
       175.76 90.7824 188.993 90.7824 188.993 94.767 188.993 98.9401 
       175.76 98.9401 162.527 98.9401 162.527 112.032 177.263 112.032 
       192 112.032 192 120 172.152 120 152 120 
       152 120 152 120 152 120 152 120 
       152 120 152 120 152 120 "
       style=" stroke:#000000; stroke-width:1; fill:#6e0000; fill-opacity:100%"></polygon>
      <polygon points="176 192 176 168.094 176 144 
       195.55 144 215.097 144 215.097 147.985 215.097 152.159 
       200.963 152.159 186.527 152.159 186.527 157.471 186.527 162.782 
       199.76 162.782 212.993 162.782 212.993 166.767 212.993 170.94 
       199.76 170.94 186.527 170.94 186.527 184.032 201.263 184.032 
       216 184.032 216 192 196.152 192 176 192 
       176 192 176 192 176 192 176 192 
       176 192 176 192 176 192 "
       style=" stroke:#000000; stroke-width:1; fill:#6e0000; fill-opacity:100%"></polygon>
      <polygon points="200 88 200 96 220 96 
       220 88 200 88 200 88 "
       style=" stroke:#000000; stroke-width:1; fill:#6e0000; fill-opacity:100%"></polygon>
    </g>
  </symbol>
 </defs>
</svg>
