<?xml version="1.0"?>
<?metis version="3.6"?>
<?metisxml version="1.1"?>
<!DOCTYPE svg  PUBLIC "-//W3C//DTD SVG August 1999//EN"
 "http://www.w3.org/Graphics/SVG/svg-19990812.dtd">



<!--
Troux Technologies, Inc. Confidential and Proprietary.
This work contains valuable confidential, proprietary and trade secret
information of Troux Technologies, Inc. and is protected by the laws of 
the United States and other countries. Any disclosure, use or reproduction
of this work without the prior written authorization of Troux Technologies, Inc.
is strictly prohibited.
Copyright (C) 2000-2006 Troux Technologies, Inc. All rights reserved.
-->


<svg
 width="200" height="200">
 <title>Symbol library: object_type_update.svg</title>
 <defs>
  <symbol id="oid1" xml:space="preserve" class="METIS_SYMBOL">
   <title>Object Type Update</title>
    <image x="173.86" y="0" width="475.765" height="239.17" xlink:role="symbol" xlink:title="Update Options Body" xlink:href="common_symbol_components_bodies.svg#oid9"></image>
    <image x="14.5225" y="28.294" width="204.007" height="210.876" xlink:role="symbol" xlink:title="Mapping Background" xlink:href="common_symbol_components_bodies.svg#oid10"></image>
    <image x="18.6267" y="151.6" width="87.1412" height="80.826" xlink:role="symbol" xlink:title="Delete/Discard" xlink:href="delete-discard.svg#oid1"></image>
    <g>
      <path d="M 118.391 159.556 C 118.391 119.794 118.391 107.881 
       118.391 93.5552 C 118.391 92.5462 118.489 89.3692 121.969 89.3692 
       C 129.871 89.3692 141.649 89.3692 149.849 89.3692 C 153.576 89.3692 
       152.831 84.7012 156.26 84.7012 C 169.983 84.7012 186.227 84.7012 
       208.59 84.7012 C 211.87 84.7012 214.391 88.6982 214.391 89.9862 
       C 214.391 110.269 214.391 140.519 214.391 159.836 C 214.391 161.124 
       213.361 162.614 211.275 162.614 C 151.191 162.614 129.686 162.614 
       122.417 162.614 C 118.988 162.614 118.67 159.556 118.391 159.556 Z"
       style=" stroke:#696969; stroke-width:1; fill:#dcdc00; fill-opacity:100%"       class="TAG:canvas"></path>
      <path d="M 149.889 89.3752 C 152.907 89.3752 152.842 84.6912 
       155.657 84.6912 C 181.873 84.6912 195.246 84.6912 208.794 84.6912 
       C 211.961 84.6912 214.391 86.9682 214.391 89.5792 C 214.391 94.9862 
       214.391 105.259 214.391 104.241 C 214.391 101.995 212.666 99.9812 
       208.97 99.9812 C 191.139 99.9812 182.69 99.9812 155.481 99.9812 
       C 152.051 99.9812 153.935 89.3752 149.889 89.3752 Z"
       style=" stroke:#696969; stroke-width:1; fill:#ffffdc; fill-opacity:100%"       class="TAG:FolderInside"></path>
      <g>
	<desc>METIS_TEXT_GROUP</desc>
	<text  x="156.26" y="91.6532"
	 style=" stroke:#696969; stroke-width:1; font-family:sans-serif; font-weight:bold; font-size:6;"
	 class="TAG:ContainerName"></text>
	<rect x="156.26" y="86.6532" width="54.6785" height="13.3704"
	 style=" stroke:#000000; stroke-width:1; fill:#000000; fill-opacity:0%"></rect>
      </g>
      <g>
	<desc>METIS_TEXT_GROUP</desc>
	<text  x="120.803" y="108.414"
	 style=" stroke:#696969; stroke-width:1; font-family:sans-serif; font-size:6;"
	 class="TAG:ContainerDescription"></text>
	<rect x="120.803" y="103.414" width="91.1021" height="56.4541"
	 style=" stroke:#000000; stroke-width:1; fill:#000000; fill-opacity:0%"></rect>
      </g>
    </g>
    <g>
      <rect x="0" y="20" width="101.625" height="68"
       style=" stroke:#696969; stroke-width:1; fill:#dcdcdc; fill-opacity:100%"></rect>
      <image x="81.6253" y="0" width="39.9997" height="40" xlink:role="symbol" xlink:title="Stringy Star" xlink:href="common_symbol_components_field_status.svg#oid6"></image>
    </g>
  </symbol>
  <symbol id="oid2" xml:space="preserve" class="METIS_SYMBOL">
   <title>Relationship Type Update</title>
    <image x="173.86" y="0" width="475.765" height="239.17" xlink:role="symbol" xlink:title="Update Options Body" xlink:href="common_symbol_components_bodies.svg#oid9"></image>
    <image x="14.5225" y="28.294" width="204.007" height="210.876" xlink:role="symbol" xlink:title="Mapping Background" xlink:href="common_symbol_components_bodies.svg#oid10"></image>
    <image x="0" y="0" width="164.929" height="163.553" xlink:role="symbol" xlink:title="Relationship Mapping Relationship Symbol" xlink:href="common_symbol_components.svg#oid12"></image>
    <image x="107.532" y="136.871" width="105.697" height="98.0373" xlink:role="symbol" xlink:title="Delete/Discard" xlink:href="delete-discard.svg#oid1"></image>
    <image x="60.582" y="16.26" width="60.682" height="60.6818" xlink:role="symbol" xlink:title="Stringy Star" xlink:href="common_symbol_components_field_status.svg#oid6"></image>
  </symbol>
 </defs>
</svg>
