<?xml version="1.0" encoding="UTF-8" standalone="no"?>

<svg
 xmlns:dc="http://purl.org/dc/elements/1.1/"
   xmlns:cc="http://creativecommons.org/ns#"
   xmlns:rdf="http://www.w3.org/1999/02/22-rdf-syntax-ns#"
   xmlns:svg="http://www.w3.org/2000/svg"
   xmlns="http://www.w3.org/2000/svg"
   xmlns:xlink="http://www.w3.org/1999/xlink"
   xmlns:sodipodi="http://sodipodi.sourceforge.net/DTD/sodipodi-0.dtd"
   xmlns:inkscape="http://www.inkscape.org/namespaces/inkscape"
   id="svg2"
   version="1.1"
   inkscape:version="0.47 r22583"
   width="100"
   height="100"
   sodipodi:docname="offercomponent.svg">
  <metadata
     id="metadata30">
    <rdf:RDF>
      <cc:Work
         rdf:about="">
        <dc:format>image/svg+xml</dc:format>
        <dc:type
           rdf:resource="http://purl.org/dc/dcmitype/StillImage" />
      </cc:Work>
    </rdf:RDF>
  </metadata>
  <defs
     id="defs28">
    <linearGradient
       inkscape:collect="always"
       id="linearGradient3618">
      <stop
         style="stop-color:#8a5028;stop-opacity:1;"
         offset="0"
         id="stop3620" />
      <stop
         style="stop-color:#8a5028;stop-opacity:0;"
         offset="1"
         id="stop3622" />
    </linearGradient>
    <linearGradient
       inkscape:collect="always"
       id="linearGradient3610">
      <stop
         style="stop-color:#d89a41;stop-opacity:1;"
         offset="0"
         id="stop3612" />
      <stop
         style="stop-color:#d89a41;stop-opacity:0;"
         offset="1"
         id="stop3614" />
    </linearGradient>
    <inkscape:perspective
       sodipodi:type="inkscape:persp3d"
       inkscape:vp_x="0 : 0.5 : 1"
       inkscape:vp_y="0 : 1000 : 0"
       inkscape:vp_z="1 : 0.5 : 1"
       inkscape:persp3d-origin="0.5 : 0.33333333 : 1"
       id="perspective32" />
    <linearGradient
       inkscape:collect="always"
       xlink:href="#linearGradient3610"
       id="linearGradient3616"
       x1="15.625"
       y1="621.09399"
       x2="992.18701"
       y2="621.09399"
       gradientUnits="userSpaceOnUse" />
    <linearGradient
       inkscape:collect="always"
       xlink:href="#linearGradient3618"
       id="linearGradient3624"
       x1="218.75"
       y1="492.18799"
       x2="953.125"
       y2="492.18799"
       gradientUnits="userSpaceOnUse" />
  </defs>
  <sodipodi:namedview
     pagecolor="#ffffff"
     bordercolor="#666666"
     borderopacity="1"
     objecttolerance="10"
     gridtolerance="10"
     guidetolerance="10"
     inkscape:pageopacity="0"
     inkscape:pageshadow="2"
     inkscape:window-width="1280"
     inkscape:window-height="1002"
     id="namedview26"
     showgrid="false"
     inkscape:zoom="0.22425739"
     inkscape:cx="-283.44954"
     inkscape:cy="481.62891"
     inkscape:window-x="1272"
     inkscape:window-y="-8"
     inkscape:window-maximized="1"
     inkscape:current-layer="svg2" />
  <title
     id="title4">Symbol library: offercomponent.svg</title>
  <polygon
     points="0,1007.81 0,0 1007.81,0 1007.81,1007.81 1007.81,1007.81 "
     style="fill:#ffffff;fill-opacity:0;stroke:none"
     id="polygon6"
     transform="matrix(0.09922505,0,0,0.09922505,0,2.4414062e-6)" />
  <polygon
     points="360.938,631.223 408.306,670.947 455.675,694.782 518.832,718.618 589.886,726.562 653.044,718.618 716.201,702.727 763.569,670.947 810.938,639.168 850.412,599.443 874.096,551.774 921.464,480.269 945.149,424.656 953.043,376.986 960.938,337.262 960.938,305.482 953.043,297.537 945.149,289.592 897.78,281.647 779.359,265.757 660.938,257.812 589.886,257.812 589.886,257.812 463.57,257.812 345.148,273.703 250.411,281.647 226.726,297.537 210.938,305.482 210.938,329.317 218.832,369.042 250.411,472.325 289.884,551.774 321.463,591.499 "
     style="fill:#1f1509;fill-opacity:1;stroke:none"
     id="polygon8"
     transform="matrix(0.09922505,0,0,0.09922505,0,2.4414062e-6)" />
  <polygon
     points="803.092,623.438 771.506,655.257 732.023,671.165 684.645,695.029 637.265,702.983 589.887,710.938 534.61,702.983 487.231,695.029 447.748,671.165 408.266,655.257 368.784,623.438 337.198,591.62 289.818,520.029 258.232,448.437 234.543,384.801 218.75,337.074 218.75,313.21 234.543,305.256 258.232,297.301 337.198,289.346 447.748,281.392 589.887,273.438 589.887,273.438 724.127,273.438 842.575,289.346 921.539,297.301 945.229,305.256 953.125,313.21 953.125,337.074 937.333,384.801 913.643,448.437 882.057,520.029 834.678,591.62 "
     style="fill:url(#linearGradient3624);fill-opacity:1;stroke:none"
     id="polygon10"
     transform="matrix(0.09922505,0,0,0.09922505,0,2.4414062e-6)" />
  <polygon
     points="242.275,323.784 265.972,315.104 337.067,297.743 455.556,289.062 589.845,289.062 724.132,289.062 842.622,297.743 913.716,315.104 937.414,323.784 945.313,332.465 945.313,332.465 937.414,341.146 913.716,341.146 842.622,358.506 724.132,367.187 589.845,367.187 455.556,367.187 337.067,358.506 265.972,341.146 242.275,341.146 234.375,332.465 "
     style="fill:#362410;fill-opacity:1;stroke:none"
     id="polygon12"
     transform="matrix(0.09922505,0,0,0.09922505,0,2.4414062e-6)" />
  <polygon
     points="653.502,613.125 740.11,597.188 834.593,581.25 850.34,565.313 873.961,557.344 897.581,549.375 921.201,549.375 952.695,557.344 984.189,581.25 999.937,613.125 1007.81,629.063 1007.81,645 999.937,645 700.742,764.531 661.375,780.47 590.514,796.406 574.766,796.406 519.652,812.345 488.158,820.313 448.79,820.313 401.55,804.375 354.308,788.438 259.826,732.656 181.091,676.875 141.723,645 15.747,645 7.87352,597.188 0,525.469 0,493.594 7.87352,461.719 15.747,437.813 39.3676,421.875 78.7352,421.875 141.723,421.875 212.585,421.875 259.826,429.844 259.826,429.844 299.194,445.781 322.814,469.688 370.056,501.563 409.423,533.438 440.917,549.375 464.538,557.344 551.146,565.313 598.387,573.281 629.881,589.219 645.628,605.156 "
     style="fill:#8c4b28;fill-opacity:1;stroke:none"
     id="polygon14"
     transform="matrix(0.09922505,0,0,0.09922505,0,2.4414062e-6)" />
  <polygon
     points="251.89,445.482 204.637,437.5 141.633,437.5 78.629,437.5 47.127,437.5 31.376,445.482 23.5005,469.429 15.625,525.306 15.625,581.182 31.376,629.076 141.633,629.076 149.509,637.058 181.011,661.006 259.765,716.883 354.271,772.759 401.525,788.723 448.777,804.688 511.781,796.705 566.91,780.741 582.661,780.741 653.541,764.776 692.918,748.812 992.187,637.058 984.311,605.129 968.561,589.165 944.934,573.199 921.307,565.218 897.681,565.218 858.303,581.182 834.677,597.147 795.299,605.129 732.295,621.095 653.541,629.076 645.665,629.076 645.665,629.076 637.789,621.095 622.039,605.129 598.412,589.165 551.159,581.182 464.529,573.199 433.027,565.218 401.525,549.253 362.147,517.323 314.894,477.411 291.267,461.448 "
     style="fill:url(#linearGradient3616);fill-opacity:1;stroke:none"
     id="polygon16"
     transform="matrix(0.09922505,0,0,0.09922505,0,2.4414062e-6)" />
  <polygon
     points="820.312,612.305 853.207,594.726 894.325,585.938 927.22,585.938 927.22,585.938 951.891,603.515 968.339,621.094 976.562,656.25 960.115,656.25 951.891,629.883 943.667,612.305 918.996,603.515 894.325,603.515 861.431,612.305 828.536,629.883 "
     style="fill:#8c4b28;fill-opacity:1;stroke:none"
     id="polygon18"
     transform="matrix(0.09922505,0,0,0.09922505,0,2.4414062e-6)" />
  <polygon
     points="304.688,643.229 440.388,685.547 480.299,694.01 528.194,694.01 520.211,677.083 528.194,651.693 536.176,634.765 552.141,626.302 584.07,617.839 616,609.375 655.912,617.839 655.912,617.839 663.894,626.302 671.876,643.229 671.876,668.619 655.912,685.547 623.983,694.01 560.124,702.473 488.282,710.937 456.353,710.937 432.406,702.473 304.688,660.156 "
     style="fill:#8c4b28;fill-opacity:1;stroke:none"
     id="polygon20"
     transform="matrix(0.09922505,0,0,0.09922505,0,2.4414062e-6)" />
  <polygon
     points="531.25,695.313 606.249,677.734 647.916,668.945 647.916,668.945 656.25,651.368 656.25,642.578 647.916,633.789 614.583,625 581.25,633.789 556.25,642.578 547.917,651.368 539.583,660.156 539.583,677.734 539.583,686.524 "
     style="fill:#d89a41;fill-opacity:1;stroke:none"
     id="polygon22"
     transform="matrix(0.09922505,0,0,0.09922505,0,2.4414062e-6)" />
  <use
     href="#oid1"
     id="use24"
     x="0"
     y="0"
     width="744.09448"
     height="1052.3622"
     transform="translate(0,-907.81)" />
</svg>
