<?xml version="1.0"?>
<?metis version="3.2"?>
<?metisxml version="1.1"?>
<!DOCTYPE svg  PUBLIC "-//W3C//DTD SVG August 1999//EN"
 "http://www.w3.org/Graphics/SVG/svg-19990812.dtd">

<svg width="200" height="200">
 <title>Symbol library: online_document.svg</title>
 <defs>
  <symbol id="oid0" xml:space="preserve" class="METIS_SYMBOL">
   <title>Online Document</title>
    <g>
      <g>
	<polygon points="0 0 0 304 16 320 
	 864 320 864 16 848 0 0 0 
	 0 0 0 0 0 0 0 0 
	 0 0 0 0 0 0 0 0 0 0 "
	 style=" stroke:#000000; stroke-width:1; fill:#9b9b9b; fill-opacity:100%"	 class="TAG:shadow"></polygon>
	<polyline points="848 304 864 320"
	 style=" stroke:#000000; stroke-width:1;"></polyline>
      </g>
      <rect x="0" y="0" width="240" height="304"
       style=" stroke:#000000; stroke-width:1; fill:#ffffff; fill-opacity:100%"       class="TAG:PictureBackgrund"></rect>
      <g>
	<polygon points="93.5099 39.7278 217.905 39.7278 217.905 256.999 
	 73.2957 256.999 73.2957 64.5042 93.5099 39.7278 93.5099 39.7278 
	 93.5099 39.7278 93.5099 39.7278 93.5099 39.7278 93.5099 39.7278 "
	 style=" stroke:#878787; stroke-width:1; fill:#ffffff; fill-opacity:100%"	 class="TAG:Paper"></polygon>
	<polygon points="92.819 39.4102 92.819 64.8224 73.4681 64.8224 
	 92.1277 39.4102 92.819 39.4102 92.819 39.4102 92.819 39.4102 
	 92.819 39.4102 92.819 39.4102 92.819 39.4102 "
	 style=" stroke:#878787; stroke-width:1; fill:#dcdcdc; fill-opacity:100%"	 class="TAG:FoldedCorner"></polygon>
	<polyline points="100.61 86.8695 197.019 86.8695"
	 style=" stroke:#dcdcdc; stroke-width:1;"	 class="TAG:TextLines"></polyline>
	<polyline points="99.9207 109.659 196.33 109.659"
	 style=" stroke:#dcdcdc; stroke-width:1;"	 class="TAG:TextLines"></polyline>
	<polyline points="101.986 137.514 198.395 137.514"
	 style=" stroke:#dcdcdc; stroke-width:1;"	 class="TAG:TextLines"></polyline>
	<polyline points="99.9207 167.055 196.33 167.055"
	 style=" stroke:#dcdcdc; stroke-width:1;"	 class="TAG:TextLines"></polyline>
	<polyline points="103.364 189.845 199.773 189.845"
	 style=" stroke:#dcdcdc; stroke-width:1;"	 class="TAG:TextLines"></polyline>
	<polyline points="101.297 219.386 197.707 219.386"
	 style=" stroke:#dcdcdc; stroke-width:1;"	 class="TAG:TextLines"></polyline>
	<polygon points="19.8095 44.6667 147.436 170.431 100.61 172.964 
	 170.391 272 58.6025 155.237 103.364 156.082 19.8095 44.6667 
	 19.8095 44.6667 19.8095 44.6667 19.8095 44.6667 19.8095 44.6667 19.8095 44.6667 "
	 style=" stroke:#6e6e00; stroke-width:1; fill:#ffff00; fill-opacity:100%"	 class="TAG:LightningBolt"></polygon>
      </g>
      <rect x="240" y="0" width="608" height="304"
       style=" stroke:#000000; stroke-width:1; fill:#b9b9b9; fill-opacity:100%"       class="TAG:canvas"></rect>
      <rect x="250.496" y="25.7143" width="569.524" height="231.429"
       style="stroke:none; fill:#878787; fill-opacity:0%"       class="TAG:grid"></rect>
      <g>
	<desc>METIS_TEXT_GROUP</desc>
	<text  x="256" y="15.8"
	 style=" stroke:#000000; stroke-width:1; font-family:sans-serif; font-size:16;"
	 class="TAG:text">text</text>
	<rect x="256" y="0" width="592" height="304"
	 style=" stroke:#000000; stroke-width:1; fill:#ffffff; fill-opacity:0%"></rect>
      </g>
    </g>
  </symbol>
 </defs>
</svg>
