<?xml version="1.0"?>
<?metis version="3.6"?>
<?metisxml version="1.1"?>
<!DOCTYPE svg  PUBLIC "-//W3C//DTD SVG 1.0//EN"
 "http://www.w3.org/TR/2001/REC-SVG-20010904/DTD/svg10.dtd">



<!--
Troux Technologies, Inc. Confidential and Proprietary.
This work contains valuable confidential, proprietary and trade secret
information of Troux Technologies, Inc. and is protected by the laws of 
the United States and other countries. Any disclosure, use or reproduction
of this work without the prior written authorization of Troux Technologies, Inc.
is strictly prohibited.
Copyright (C) 2000-2006 Troux Technologies, Inc. All rights reserved.
-->


<svg>
 <title>Symbol library: onlinedocument.svg</title>
 <defs>
  <symbol id="oid1" xml:space="preserve" class="METIS_SYMBOL">
   <title>Untitled</title>
    <g>
      <polygon points="1007.81 1007.81 0 1007.81 0 0 
       1007.81 0 1007.81 1007.81"
       style="stroke:none; fill:#ffffff; fill-opacity:0%"></polygon>
      <polygon points="273.76 236.687  250.081 307.717 
       242.188 378.747 250.081 457.669 273.76 520.806 305.332 591.837 
       352.69 647.082 407.941 694.435 471.086 733.896  526.338 757.573 581.588 773.357 628.947 781.25 676.305 781.25 
       723.663 773.357 755.236 765.465 794.7 749.681 826.272 733.896 
       881.524 686.543 920.989 639.189 952.561 591.837 976.241 544.483 
        999.92 473.453 1007.81 402.424 999.92 323.501 
       984.133 252.471 944.669 189.333 905.204 134.087 849.952 86.7352 
       778.915 47.2736  707.877 23.5974 628.947 7.812 
       557.91 15.7047 486.872 39.3809 423.728 70.9497 360.583 110.411 
       313.225 165.656 273.76 236.687 "
       style="stroke:none; fill:#333333; fill-opacity:100%"></polygon>
      <polygon points="289.398 244.456  328.881 181.284 
       376.26 126.008 431.536 78.6291 494.708 54.94 557.88 31.25 
       628.948 31.25 700.016 39.146 771.085 62.836  834.257 94.4221 889.532 141.801 936.912 197.076 968.498 260.248 
       984.29 331.317 992.187 402.387 984.29 465.559 960.601 536.627 
        936.912 584.006 905.326 639.281 857.946 686.661 
       810.568 726.143 747.396 749.833 707.913 757.729 668.43 765.625 
       628.948 765.625 581.569 757.729 534.19 741.936 478.914 718.247 
        415.742 686.661 360.467 639.281 320.984 584.006 
       289.398 520.834 265.709 449.765 257.812 378.696 265.709 307.628 
       289.398 244.456 "
       style="stroke:none; fill:#68a1cb; fill-opacity:100%"></polygon>
      <polygon points="983.773 375.363 894.531 487.282 878.305 535.247 
       837.741 591.207 789.062 703.125 813.401 687.138  829.627 679.143 870.193 655.161 910.757 607.195 935.096 583.213 
       951.321 551.236  975.661 487.282 991.887 431.323 
       1000 383.357 991.887 359.375 983.773 375.363"
       style="stroke:none; fill:#009900; fill-opacity:100%"></polygon>
      <polygon points="852.864 599.609 894.097 543.212 910.591 486.816 
        976.563 406.25  968.317 454.59 
       943.577 527.1  935.331 543.212  910.591 583.496 885.85 615.722 828.125 664.062  852.864 599.609 "
       style="stroke:none; fill:#009900; fill-opacity:100%"></polygon>
      <polygon points="550.944 375.332  519.043 391.29 
       495.118 407.247 471.191 439.162  471.191 447.141 
        463.217 471.077 463.217 502.992 479.166 534.907 
        479.166 558.844  463.217 574.8 
       415.364 590.759 351.562 614.694 359.538 622.674  375.488 646.609 391.439 670.545 423.34 694.482  479.166 718.419 511.067 734.375   590.821 694.482  654.623 694.482 694.498 694.482 
       710.449 686.504 718.425 678.524  726.399 670.545 
        734.374 638.63 734.374 606.715 726.399 574.8 
        726.399 510.97 726.399 471.077 718.425 439.162 
        702.473 431.184 686.524 415.226  662.597 399.269 638.671 375.332  614.746 359.375 
       590.821 359.375 566.894 367.354 550.944 375.332 "
       style="stroke:none; fill:#009900; fill-opacity:100%"></polygon>
      <polygon points="470.93 590.843  486.918 574.854 
       494.913 558.867 494.913 534.883 502.907 534.883 494.913 526.89 
        486.918 502.907 478.924 470.93 486.918 446.947 
        502.907 422.965 526.89 406.977 558.867 390.988 
        582.849 375 606.831 375 622.82 382.994 
        654.797 414.97 678.779 430.96  702.761 446.947  710.755 502.907 710.755 574.854 
        718.75 614.825 718.75 638.807 710.755 662.79 
        702.761 670.784  686.773 678.779 
       654.797 678.779 590.843 678.779   510.9 718.75  478.924 702.761 430.96 678.779 
        390.988 646.802 375 622.82  422.965 606.831  470.93 590.843 "
       style="stroke:none; fill:#009900; fill-opacity:100%"></polygon>
      <polygon points="602.698 15.625  554.972 39.5502 
       554.972 47.526  547.017 87.4028 539.062 119.304 
       539.062 127.278 547.017 127.278  554.972 135.253 
       562.926 127.278  570.88 119.304  554.972 159.179  562.926 183.106 570.88 207.031 
       586.79 230.956   586.79 246.908 
       602.698 294.758  602.698 318.685 594.744 342.611 
        586.79 366.536 570.88 374.512 562.926 390.461 
       618.608 398.437 642.471 310.71  658.381 270.833 
        698.153 230.956  698.153 222.981 
        698.153 215.007  698.153 207.031 
       682.245 199.055 658.381 183.106  658.381 159.179 
          666.335 151.205 
        682.245 159.179 690.199 175.13  690.199 199.055 706.108 207.031  729.971 199.055 
        737.926 191.081 745.881 191.081  753.835 199.055 761.789 230.956  769.744 262.857 
       761.789 278.809 753.835 286.784  745.881 302.734 
       745.881 318.685  753.835 326.659 761.789 334.635 
       769.744 334.635 809.517 278.809  841.335 254.882 
        904.972 286.784 976.562 254.882 968.608 246.908 
        912.926 167.154 865.198 111.328 833.38 87.4028 
       801.562 63.4765  737.926 39.5502 674.29 23.6008 
       602.698 15.625 "
       style="stroke:none; fill:#009900; fill-opacity:100%"></polygon>
      <polygon points="793.75 79.055  849.532 119.048 
       889.376 167.038 953.126 247.024  905.314 271.019 
        841.564 239.025 801.72 263.02  761.875 311.012    761.875 303.013  769.845 295.014 769.845 287.016 
        777.814 279.018  785.782 263.02 
       777.814 231.026  769.845 199.032 753.907 175.037 
        737.969 175.037 722.032 183.036 706.094 191.034 
        706.094 175.037  698.125 143.043 
       682.188 135.044 666.25 135.044  650.313 135.044 
       642.344 143.043  642.344 151.042  634.375 175.037 642.344 191.034    674.219 207.031 682.188 223.028  642.344 263.02   626.407 311.012 
        602.5 375  594.531 375 
        610.469 351.004  618.438 319.01 
       618.438 287.016  602.5 239.025 594.531 223.028 
        586.563 191.034 578.594 159.04  586.563 119.048  602.5 87.054  602.5 63.058 594.531 55.06   578.594 55.06  570.625 71.056  562.656 87.054  562.656 103.05  554.688 111.049  570.625 55.06  602.5 39.062  674.219 47.061 730 55.06 
       793.75 79.055 "
       style="stroke:none; fill:#009900; fill-opacity:100%"></polygon>
      <polygon points="578.125 101.563  593.75 78.125 
        593.75 89.8445  578.125 101.563 
         "
       style="stroke:none; fill:#009900; fill-opacity:100%"></polygon>
      <polygon points="905.041 148.438  905.041 203.864 
       889.194 267.209 865.427 330.554 825.814 409.735 762.434 480.997 
       675.286 560.179 564.371 639.359 429.688 710.622 429.688 726.458 
        493.068 734.376 556.449 734.376 619.829 726.458 
       675.286 710.622 722.822 694.786 770.357 671.031 817.892 639.359 
       857.504 599.769  897.117 560.179 928.808 512.669 
       952.575 465.162 968.421 417.652 992.188 338.472 992.188 290.963 
       976.343 290.963  976.343 354.307 960.498 401.817 
       944.653 449.325  905.041 520.588 849.582 591.851 
        809.97 623.524 770.357 647.277 730.744 671.031 
       683.209 686.868 627.751 702.704 580.216 710.622 524.759 718.541 
       461.378 710.622  548.526 663.114 627.751 615.605 
       691.131 568.097 746.59 520.588 794.124 473.079 825.814 425.571 
       857.504 378.062 881.272 338.472  905.041 283.045 
       912.963 235.537 920.885 148.438 905.041 148.438"
       style="stroke:none; fill:#143a72; fill-opacity:100%"></polygon>
      <polygon points="431.737 387.33  384.093 498.023 
       352.33 624.529  328.509 529.65 320.568 434.771 
       328.509 347.797 360.272 268.731  384.093 229.197 
        415.855 181.759 447.617 142.225 487.321 102.691 
       527.024 78.9721 590.549 39.4385 638.191 23.6263 638.191 7.812 
        590.549 23.6263 519.083 63.1588 479.38 94.7853 
       439.677 126.412 399.975 165.944 368.213 221.291  344.39 268.731 320.568 316.171 312.628 371.518 304.688 426.863 
       304.688 482.209 312.628 537.556 328.509 600.809 344.39 664.062 
       360.272 664.062  399.975 505.93 447.617 387.33 
       503.202 284.544 566.727 205.478 622.311 150.132 685.836 102.691 
       741.42 78.9721 789.063 63.1588 789.063 47.3456  749.361 55.2527 709.657 78.9721 662.014 102.691 614.37 134.318 
       566.727 181.759 519.083 237.104 471.44 308.265 431.737 387.33 
       "
       style="stroke:none; fill:#143a72; fill-opacity:100%"></polygon>
      <polygon points="273.438 242.188  281.356 281.935 
       289.273 313.734 305.11 361.431 328.864 417.078 360.537 472.725 
       408.045 536.322 479.307 591.969  550.571 639.665 
       621.834 671.464 685.179 687.364 740.605 695.313 788.114 695.313 
       819.786 695.313 859.376 687.364 851.458 671.464  819.786 679.414 788.114 679.414 740.605 679.414 685.179 671.464 
       621.834 655.566 558.489 623.767 487.226 576.069  423.881 520.422 376.373 464.776 344.7 409.128 320.946 361.431 
       305.11 313.734 297.192 273.986 297.192 242.188 273.438 242.188"
       style="stroke:none; fill:#143a72; fill-opacity:100%"></polygon>
      <polygon points="304.688 187.5  320.52 219.28 
       360.104 282.839 439.271 370.233 494.688 425.847 565.938 473.517 
        637.187 529.131 700.521 568.856 803.438 624.47 
       866.771 648.305 898.438 656.25 898.438 640.359  874.688 632.415 811.355 608.58 708.438 552.966 645.104 513.241 
       573.854 465.572  510.52 409.957 455.104 362.288 
       375.938 266.949 328.438 211.335 320.52 187.5 304.688 187.5"
       style="stroke:none; fill:#143a72; fill-opacity:100%"></polygon>
      <polygon points="328.125 156.25 328.125 172.135  359.786 180.079 438.939 195.963 486.431 211.849 549.753 235.677 
       613.075 275.391 684.314 323.046  747.636 378.646 
       803.042 434.245 842.619 481.9 866.365 529.557 905.942 601.041 
       913.856 632.812 929.687 632.812  921.771 601.041 
       882.195 521.614 850.534 473.958 810.958 418.359 763.465 362.76 
       692.228 307.162  620.991 259.505 557.669 227.734 
       494.347 195.963 438.939 180.079 359.786 156.25 328.125 156.25 
       "
       style="stroke:none; fill:#143a72; fill-opacity:100%"></polygon>
      <polygon points="359.375 117.566 367.291 133.442  406.867 117.566 446.443 117.566 501.85 109.627 565.173 117.566 
       636.41 133.442 707.648 157.258 778.886 204.889  842.208 260.458 881.784 323.966 913.445 387.475 929.276 443.045 
       937.192 498.615 945.106 546.245 937.192 585.938 960.937 585.938 
        960.937 546.245 953.021 498.615 945.106 443.045 
       929.276 379.537 897.615 316.028 850.123 252.52 826.377 220.766 
       786.801 189.012  715.564 141.381 636.41 117.566 
       565.173 101.688 501.85 93.75 446.443 101.688 398.952 101.688 
       359.375 117.566 "
       style="stroke:none; fill:#143a72; fill-opacity:100%"></polygon>
      <polygon points="382.812 687.302 398.694 703.126 867.187 101.762 
       851.306 85.938 382.812 687.302"
       style="stroke:none; fill:#143a72; fill-opacity:100%"></polygon>
      <polygon points="489.553 172.02 426.326 195.674  323.582 227.213 276.163 242.984 220.839 250.868  157.613 242.984 102.289 227.213 54.8692 203.559 39.0625 195.674 
       39.0625 928.964  46.9658 944.733 70.6759 968.388 
       94.3859 984.158 125.999 992.042 173.419 1007.81 228.742 1007.81 
        284.066 1007.81 331.486 992.042 418.422 960.503 
        489.553 936.849 529.07 928.964 576.489 928.964 
        616.007 913.194 647.62 889.539  671.329 865.885 687.137 826.46 702.943 755.497 710.847 692.419 
       710.847 660.879  718.751 471.643 718.751 313.947 
        710.847 282.407 687.137 235.098 655.524 195.674 
       631.813 179.905 608.103 164.134  544.876 156.25 
       489.553 172.02 "
       style="stroke:none; fill:#444444; fill-opacity:100%"></polygon>
      <polygon points="220.751 266.459  276.106 258.571 
       331.46 250.683 434.262 211.241 497.524 187.576  544.97 179.688 600.325 179.688  624.049 195.464 
       639.863 211.241 671.494 250.683 687.311 290.124 703.125 321.677 
        703.125 337.455  695.218 660.877 
        695.218 684.543  687.311 723.984 
       679.403 779.203 663.587 834.421 655.68 858.085 639.863 881.751 
        608.232 897.528 576.601 905.417  521.247 913.304 481.707 921.193 410.538 944.858  331.46 976.411 284.013 984.3 228.658 992.188  173.304 984.3 133.765 976.411 110.042 968.523 86.3186 960.635 
       62.5953 936.97 54.6875 921.193  54.6875 227.017 
        125.858 250.683 173.304 266.459 220.751 266.459 
       "
       style="stroke:none; fill:#cccccc; fill-opacity:100%"></polygon>
      <polygon points="370.96 195.674  291.936 219.329 
       220.815 227.213  157.597 227.213 102.28 219.329 
       46.9648 203.559 39.0625 195.674 39.0625 928.964  46.9648 944.733 70.6717 968.388 94.3786 984.158 125.988 992.042 
       173.402 1007.81 228.717 1007.81  291.936 999.927 
       347.252 992.042 442.08 960.503  489.494 944.733 
       536.907 928.964  655.442 928.964 718.661 936.849 
       726.563 936.849 726.563 495.298  718.661 337.602 
       718.661 313.947 702.855 306.062  663.344 306.062 
       592.224 306.062  600.126 250.868  615.93 187.789  615.93 172.02 608.028 164.134 
        584.321 156.25 529.006 156.25  449.982 164.134 370.96 195.674 "
       style="stroke:none; fill:#444444; fill-opacity:100%"></polygon>
      <polygon points="220.727 242.864  299.793 234.976 
       378.859 211.314  457.925 187.65 529.086 171.875 
       584.431 179.763 600.245 179.763  584.431 250.751 
       568.618 329.627 584.431 321.739  655.592 321.739 
       703.03 329.627  703.03 369.066 703.03 495.268 
        710.938 913.311  631.871 913.311 
       536.992 913.311  481.645 921.198 434.206 944.861 
        347.233 976.412 291.886 984.299 228.633 992.187 
        173.287 984.299 133.753 976.412 110.034 968.524 
       86.314 960.637 62.5941 936.974 54.6875 921.198  54.6875 227.088  125.847 242.864 173.287 242.864 
       220.727 242.864 "
       style="stroke:none; fill:#ffffff; fill-opacity:100%"></polygon>
      <polygon points="703.125 312.5 695.312 304.688   703.125 312.5 "
       style="stroke:none; fill:#444444; fill-opacity:100%"></polygon>
      <polygon points="386.962 361.779  331.421 378.606 
       267.944 387.018  164.794 387.018 125.122 378.606 
       117.188 429.086  156.86 437.5 267.944 437.5 
        339.356 429.086 402.832 403.846  466.309 387.018 537.719 378.606 609.13 378.606 625 387.018 
       625 336.539 617.065 336.539 529.785 328.125  458.374 344.952 386.962 361.779 "
       style="stroke:none; fill:#999999; fill-opacity:100%"></polygon>
      <polygon points="513.941 468.75  474.278 477.05 
       434.616 485.351 363.221 518.554  307.693 543.456 
       244.231 551.758  196.634 551.758 156.971 551.758 
       133.173 543.456 109.375 584.961  141.106 593.262 
       188.702 601.562 252.163 601.562  283.894 593.262 
       315.625 584.961 387.018 560.059  450.48 535.156 
       482.211 518.554 513.941 518.554  569.471 518.554 
       625 526.856 625 477.05  577.403 477.05 
       513.941 468.75 "
       style="stroke:none; fill:#999999; fill-opacity:100%"></polygon>
      <polygon points="513.941 625  474.278 633.333 
       434.616 641.667 363.221 666.666  307.693 691.666 
       244.231 708.333  196.634 708.333 156.971 699.999 
       133.173 691.666 109.375 733.332  141.106 750 
       188.702 750 252.163 750  283.894 750 
       315.625 741.666 387.018 708.333  450.48 683.334 
       482.211 675 513.941 675  569.471 675 
       625 683.334 625 633.333  577.403 625 
       513.941 625 "
       style="stroke:none; fill:#999999; fill-opacity:100%"></polygon>
      <polygon points="513.941 781.25  474.278 781.25 
       434.616 797.917 363.221 822.916  307.693 847.916 
       244.231 864.583  196.634 864.583 156.971 856.249 
       133.173 847.916 109.375 889.582  141.106 897.916 
       188.702 906.25 252.163 906.25  283.894 906.25 
       315.625 889.582 387.018 864.583  450.48 839.584 
       482.211 831.25 513.941 822.916  561.539 822.916 
       625 831.25 625 789.583  577.403 781.25 
       513.941 781.25 "
       style="stroke:none; fill:#999999; fill-opacity:100%"></polygon>
    </g>
  </symbol>
 </defs>
 <use xlink:href="#oid1"/>
</svg>
