<?xml version="1.0"?>
<?metis version="3.1"?>
<?metisxml version="1.0"?>
<!DOCTYPE svg  PUBLIC "-//W3C//DTD SVG August 1999//EN"
 "http://www.w3.org/Graphics/SVG/svg-19990812.dtd">

<svg width="200" height="200">
 <title>Symbol library: operating_system.svg</title>
 <defs>
  <symbol id="oid1" xml:space="preserve" class="METIS_SYMBOL">
   <title>Operating System</title>
    <g>
      <polygon points="0 0 0 304 16.2963 320 
       880 320 880 16 863.704 0 0 0 
       0 0 0 0 0 0 0 0 
       0 0 0 0 0 0 0 0 
       0 0 0 0 0 0 "
       style=" stroke:#000000; stroke-width:1; fill:#9b9b9b; fill-opacity:100%"       class="TAG:shadow"></polygon>
      <rect x="0" y="0" width="240" height="304"
       style=" stroke:#000000; stroke-width:1; fill:#ffffa5; fill-opacity:100%"       class="TAG:PictureBackground"></rect>
      <rect x="240" y="0" width="624" height="304"
       style=" stroke:#000000; stroke-width:1; fill:#6e6eff; fill-opacity:100%"       class="TAG:canvas"></rect>
      <g>
	<desc>METIS_TEXT_GROUP</desc>
	<text  x="256" y="15.8"
	 style=" stroke:#000000; stroke-width:1; font-family:sans-serif; font-size:16;"
	 class="TAG:text">text</text>
	<rect x="256" y="0" width="608" height="304"
	 style=" stroke:#000000; stroke-width:1; fill:#ffffff; fill-opacity:0%"></rect>
      </g>
      <g>
	<polygon points="140.706 190.912 164.588 210.259 168 208.11 
	 168 190.912 140.706 173.714 113.413 173.714 86.1193 190.912 
	 86.1193 208.11 113.413 225.307 140.706 225.307 140.706 242.505 
	 113.413 242.505 86.1193 225.307 82.7076 227.457 86.1193 242.505 
	 113.413 259.703 140.706 259.703 168 242.505 168 225.307 
	 140.706 208.11 113.413 208.11 113.413 190.912 140.706 190.912 
	 140.706 190.912 140.706 190.912 140.706 190.912 140.706 190.912 140.706 190.912 "
	 style=" stroke:#000000; stroke-width:1; fill:#b9b9b9; fill-opacity:100%"></polygon>
	<polygon points="137.295 194.495 164.588 211.693 164.588 194.495 
	 137.295 177.297 110.001 177.297 82.7076 194.495 82.7076 211.693 
	 110.001 228.89 137.295 228.89 137.295 246.088 110.001 246.088 
	 82.7076 228.89 82.7076 246.088 110.001 263.286 137.295 263.286 
	 164.588 246.088 164.588 228.89 137.295 211.693 110.001 211.693 
	 110.001 194.495 137.295 194.495 137.295 194.495 137.295 194.495 
	 137.295 194.495 137.295 194.495 137.295 194.495 "
	 style=" stroke:#000000; stroke-width:1; fill:#00006e; fill-opacity:100%"></polygon>
      </g>
      <g>
	<polygon points="168 61.3368 168 60.6205 140.706 43.4286 
	 113.413 43.4286 86.1193 60.6205 86.1193 77.8123 86.1193 95.0042 
	 86.1193 112.196 113.413 129.388 140.706 129.388 168 112.196 
	 168 95.0042 168 61.3368 168 61.3368 168 61.3368 
	 168 61.3368 168 61.3368 168 61.3368 "
	 style=" stroke:#000000; stroke-width:1; fill:#b9b9b9; fill-opacity:100%"></polygon>
	<polygon points="164.588 65.0443 164.588 64.328 137.295 47.1362 
	 110.001 47.1362 82.7076 64.328 82.7076 81.5199 82.7076 98.7118 
	 82.7076 115.904 110.001 133.095 137.295 133.095 164.588 115.904 
	 164.588 98.7118 164.588 65.0443 164.588 65.0443 164.588 65.0443 
	 164.588 65.0443 164.588 65.0443 164.588 65.0443 "
	 style=" stroke:#000000; stroke-width:1; fill:#00006e; fill-opacity:100%"></polygon>
	<polygon points="147.53 75.3649 147.53 74.947 131.609 64.9184 
	 115.687 64.9184 99.7661 74.947 99.7661 84.9756 99.7661 95.0042 
	 99.7661 105.033 115.687 115.061 131.609 115.061 147.53 105.033 
	 147.53 95.0042 147.53 75.3649 147.53 75.3649 147.53 75.3649 
	 147.53 75.3649 147.53 75.3649 147.53 75.3649 "
	 style=" stroke:#000000; stroke-width:1; fill:#ffffa5; fill-opacity:100%"></polygon>
      </g>
      <polyline points="880 320 864 304"
       style=" stroke:#000000; stroke-width:1;"></polyline>
    </g>
  </symbol>
 </defs>
</svg>
