<?xml version="1.0"?>
<?metis version="3.3"?>
<?metisxml version="1.1"?>
<!DOCTYPE svg  PUBLIC "-//W3C//DTD SVG August 1999//EN"
 "http://www.w3.org/Graphics/SVG/svg-19990812.dtd">

<svg width="200" height="200">
 <title>Symbol library: opportunity2.svg</title>
 <defs>
  <symbol id="oid1" xml:space="preserve" class="METIS_SYMBOL">
   <title>Opportunity</title>
    <polygon points="0 0 0 304 16 320 
     880 320 880 16 864 0 0 0 
     0 0 0 0 0 0 0 0 
     0 0 0 0 "
     style=" stroke:#000000; stroke-width:1; fill:#9b9b9b; fill-opacity:100%"     class="TAG:shadow"></polygon>
    <rect x="0" y="0" width="240" height="304"
     style=" stroke:#000000; stroke-width:1; fill:#ffffff; fill-opacity:100%"     class="TAG:PictureBackground"></rect>
    <rect x="240" y="0" width="624" height="304"
     style=" stroke:#000000; stroke-width:1; fill:#ff5050; fill-opacity:100%"     class="TAG:canvas"></rect>
    <g>
      <desc>METIS_TEXT_GROUP</desc>
      <text  x="256" y="15"
       style=" stroke:#000000; stroke-width:1; font-family:sans-serif; font-size:16;"
       class="TAG:text">text</text>
      <rect x="256" y="0" width="608" height="304"
       style=" stroke:#000000; stroke-width:1; fill:#ffffff; fill-opacity:0%"></rect>
    </g>
    <polyline points="864 304 880 320"
     style=" stroke:#000000; stroke-width:1;"></polyline>
    <g>
      <path d="M 88.5713 212.11 C 88.5713 235.88 88.5713 247.765 
       88.5713 259.651 C 88.5713 270.331 118.409 272 126.286 271.536 
       C 136.056 270.961 157.714 270.051 157.714 259.651 C 157.714 247.765 
       157.714 229.938 157.714 212.11 C 157.714 212.11 157.714 212.11 
       157.714 212.11 C 157.714 212.11 157.714 212.11 157.714 212.11 
       C 157.714 212.11 157.714 212.11 157.714 212.11 C 157.714 212.11 
       157.714 212.11 157.714 212.11 Z"
       style=" stroke:#000000; stroke-width:1; fill:#ffb4b4; fill-opacity:100%"></path>
      <path d="M 82.668 178.002 C 74.8184 164.348 53.257 148.389 
       47.3434 137.285 C 41.8221 126.916 32 114.285 34.1409 88.9274 
       C 36.5043 60.9322 47.6998 47.3163 60.1883 34.8816 C 74.9313 20.2021 
       107.852 16 123.214 16.0584 C 136.191 16.1078 162.594 19.3587 
       176.868 32.3622 C 194.708 48.6165 204.699 60.9701 206.305 87.5461 
       C 208 115.599 200.996 123.649 194.708 135.741 C 188.286 148.093 
       168.427 163.743 161.881 178.652 C 159.027 185.154 161.169 210.243 
       157.714 212.11 C 146.714 218.052 134.143 219.538 121.571 219.538 
       C 109.42 219.538 101.143 219.538 88.5713 212.11 Z"
       style=" stroke:#000000; stroke-width:1; fill:#ff5050; fill-opacity:100%"       class="TAG:Picture"></path>
      <path d="M 107.429 216.566 C 107.429 174.955 106.694 158.172 
       103.007 146.306 C 101.274 140.729 91.4489 129.925 83.7381 109.246 
       C 78.4655 95.1045 82.1659 86.4838 92.9493 86.4838 C 102.052 86.4838 
       111.557 93.6021 111.557 101.509 C 111.557 109.601 105.345 118.187 
       101.408 117.885 C 97.0124 117.548 93.3727 109.796 93.3727 102.088 
       C 93.3727 93.8043 103.077 86.6762 112.191 86.6762 C 119.592 86.6762 
       129.761 93.2336 129.319 101.703 C 128.895 109.794 123.883 117.69 
       119.38 117.885 C 113.952 118.12 111.784 110.186 111.557 101.703 
       C 111.345 93.8043 120.863 86.4923 129.953 86.6762 C 139.468 86.8688 
       148.56 94.1894 148.56 102.473 C 148.56 110.757 143.914 117.813 
       138.834 117.692 C 133.911 117.575 129.333 109.601 129.53 101.703 
       C 129.742 93.2261 137.719 86.6762 148.56 86.6762 C 159.556 86.6762 
       163.784 95.6822 158.709 109.216 C 150.718 130.529 141.694 140.493 
       139.402 147.282 C 135.12 159.959 135.714 209.138 135.714 215.081"
       style=" stroke:#000000; stroke-width:1;"       class="TAG:LightBulb"></path>
      <path d="M 88.5713 218.052 C 99.5713 223.994 109.174 226.156 
       123.143 225.481 C 139.68 224.681 150.729 222.278 157.714 218.052"
       style=" stroke:#000000; stroke-width:1;"       class="TAG:LightBulb"></path>
      <path d="M 88.5713 229.938 C 99.5713 235.88 109.174 238.042 
       123.143 237.366 C 139.68 236.567 150.729 234.164 157.714 229.938"
       style=" stroke:#000000; stroke-width:1;"       class="TAG:LightBulb"></path>
      <path d="M 88.5713 241.823 C 99.5713 247.765 109.174 249.926 
       123.143 249.251 C 139.68 248.452 150.729 246.048 157.714 241.823"
       style=" stroke:#000000; stroke-width:1;"       class="TAG:LightBulb"></path>
      <path d="M 88.5713 253.708 C 99.5713 259.651 109.174 261.812 
       123.143 261.136 C 139.68 260.338 150.729 257.934 157.714 253.708"
       style=" stroke:#000000; stroke-width:1;"       class="TAG:LightBulb"></path>
      <path d="M 88.5713 223.994 C 99.5713 229.938 109.174 232.098 
       123.143 231.422 C 139.68 230.624 150.729 228.221 157.714 223.994"
       style=" stroke:#000000; stroke-width:1;"       class="TAG:LightBulb"></path>
      <path d="M 88.5713 235.88 C 99.5713 241.823 109.174 243.983 
       123.143 243.308 C 139.68 242.509 150.729 240.106 157.714 235.88"
       style=" stroke:#000000; stroke-width:1;"       class="TAG:LightBulb"></path>
      <path d="M 88.5713 247.765 C 99.5713 253.708 109.174 255.869 
       123.143 255.195 C 139.68 254.395 150.729 251.992 157.714 247.765"
       style=" stroke:#000000; stroke-width:1;"       class="TAG:LightBulb"></path>
      <path d="M 88.5713 259.651 C 99.5713 265.594 109.174 267.754 
       123.143 267.079 C 139.68 266.28 150.729 263.876 157.714 259.651"
       style=" stroke:#000000; stroke-width:1;"       class="TAG:LightBulb"></path>
    </g>
  </symbol>
 </defs>
</svg>
