<?xml version="1.0"?>
<?metis version="3.6"?>
<?metisxml version="1.1"?>
<!DOCTYPE svg  PUBLIC "-//W3C//DTD SVG 1.0//EN"
 "http://www.w3.org/TR/2001/REC-SVG-20010904/DTD/svg10.dtd">



<!--
Troux Technologies, Inc. Confidential and Proprietary.
This work contains valuable confidential, proprietary and trade secret
information of Troux Technologies, Inc. and is protected by the laws of 
the United States and other countries. Any disclosure, use or reproduction
of this work without the prior written authorization of Troux Technologies, Inc.
is strictly prohibited.
Copyright (C) 2000-2006 Troux Technologies, Inc. All rights reserved.
-->


<svg>
 <title>Symbol library: organizationcomponent.svg</title>
 <defs>
  <symbol id="oid1" xml:space="preserve" class="METIS_SYMBOL">
   <title>Untitled</title>
    <g>
      <polygon points="1007.81 1007.81 0 1007.81 0 0 
       1007.81 0 1007.81 1007.81"
       style="stroke:none; fill:#ffffff; fill-opacity:0%"></polygon>
      <polygon points="586.732 539.062  570.842 539.062 
       554.953 554.953 539.062 570.842 539.062 594.677 539.062 952.198 
        539.062 976.032 554.953 991.922 570.842 1007.81 
       586.732 1007.81 952.197 1007.81  976.032 1007.81 
       991.922 991.922 999.868 976.032 1007.81 952.198 1007.81 594.677 
        999.868 570.842 991.922 554.953 976.032 539.062 
       952.197 539.062 586.732 539.062"
       style="stroke:none; fill:#000000; fill-opacity:100%"></polygon>
      <polygon points="554.688 952.415 554.688 594.46  554.688 578.551 562.642 562.642 578.551 554.688 586.506 554.688 
       952.415 554.688  968.325 554.688 976.279 562.642 
       984.233 578.551 992.188 594.46 992.188 952.415  984.233 968.324 976.279 976.279 968.325 984.233 952.415 992.188 
       586.506 992.188  578.551 984.233 562.642 976.279 
       554.688 968.324 554.688 952.415 "
       style="stroke:none; fill:#eeeeee; fill-opacity:100%"></polygon>
      <polygon points="769.531 953.124 687.5 774.089  712.11 765.95 769.531 757.812  818.75 765.95 
       851.562 774.089 769.531 953.124"
       style="stroke:none; fill:#ffffff; fill-opacity:100%"></polygon>
      <polygon points="817.426 765.625 713.656 765.625  689.708 765.625 665.761 773.727 625.849 806.135 609.885 822.337 
       593.92 846.644 585.938 870.95 585.938 895.255 585.938 984.375 
       953.126 984.375 953.126 895.255  953.126 870.95 
       945.144 846.644 929.179 822.337 913.215 806.135 873.303 773.727 
       849.356 765.625 817.426 765.625 "
       style="stroke:none; fill:#567500; fill-opacity:100%"></polygon>
      <polygon points="769.531 953.124 695.312 765.95  711.806 765.95 769.531 757.812  794.27 757.812 
       819.01 765.95 843.75 774.089 769.531 953.124"
       style="stroke:none; fill:#567500; fill-opacity:100%"></polygon>
      <polygon points="713.808 757.812  689.891 757.812 
       658.004 765.894 634.087 782.058 618.145 798.222 602.2 814.386 
       586.257 838.632 578.284 862.877 570.312 895.204 570.312 992.187 
       960.937 992.187 960.937 895.204  960.937 862.877 
       952.965 838.632 937.022 814.386 921.077 798.222 897.162 782.058 
       873.246 765.894 849.33 757.812 817.442 757.812 713.808 757.812"
       style="stroke:none; fill:#465900; fill-opacity:100%"></polygon>
      <polygon points="593.75 895.313  593.75 870.938 
       601.74 846.563 625.71 814.063 665.66 781.563 713.601 773.438 
       817.471 773.438  865.412 781.563 905.362 814.063 
       929.332 846.563 937.322 870.938 945.312 895.313  945.312 976.563  593.75 976.563  593.75 895.313 "
       style="stroke:none; fill:#7faa48; fill-opacity:100%"></polygon>
      <polygon points="769.718 750  712.426 758.091 
       687.872 758.091 679.688 766.183 769.718 976.562 851.563 766.183 
       843.379 766.183  827.009 758.091 802.456 750 
       769.718 750 "
       style="stroke:none; fill:#465900; fill-opacity:100%"></polygon>
      <polygon points="769.792 765.625  803.125 773.829 
       828.125 773.829  769.792 929.687  703.125 773.829  769.792 765.625 "
       style="stroke:none; fill:#ffffff; fill-opacity:100%"></polygon>
      <polygon points="742.188 789.062 787.761 789.062 778.647 821.671 
        787.761 862.432 796.875 895.04 796.875 927.649 
        787.761 952.106 778.647 968.41 769.532 976.562 
        751.302 968.41 742.188 952.106 742.188 935.801 
        751.302 870.585 760.416 821.671 742.188 789.062"
       style="stroke:none; fill:#5d7f00; fill-opacity:100%"></polygon>
      <polygon points="867.188 937.5 867.188 984.375 890.625 984.375 
       890.625 937.5 867.188 937.5"
       style="stroke:none; fill:#465900; fill-opacity:100%"></polygon>
      <polygon points="648.438 976.563 671.875 976.563 671.875 937.5 
       648.438 937.5 648.438 976.563"
       style="stroke:none; fill:#465900; fill-opacity:100%"></polygon>
      <polygon points="664.062 683.315  672.175 723.772 
       696.514 764.229 728.966 796.595 745.193 804.687 769.531 804.687 
        793.869 804.687 810.096 796.595 842.548 764.229 
       866.887 723.772 875 683.315  866.887 642.857 
       842.548 610.491 810.096 586.217 769.531 578.125  728.966 586.217 696.514 610.491 672.175 642.857 664.062 683.315 
       "
       style="stroke:none; fill:#b2510f; fill-opacity:100%"></polygon>
      <polygon points="687.5 683.269  687.5 650.717 
       712.11 618.165 736.719 601.887 769.531 593.75  802.343 601.887 826.952 618.165 843.359 650.717 851.562 683.269 
        843.359 715.821 826.952 748.373 802.343 780.925 
       785.937 789.062 769.531 789.062  753.125 789.062 
       736.719 780.925 712.11 748.373 695.703 715.821 687.5 683.269 
       "
       style="stroke:none; fill:#ff9900; fill-opacity:100%"></polygon>
      <polygon points="720.853 570.723  688.401 595.395 
       672.175 628.289 664.062 661.184 664.062 694.079 680.289 718.75 
       688.401 685.855  688.401 677.631 704.627 661.184 
        737.079 661.184 769.531 652.961 826.321 628.289 
        850.661 685.855 858.773 694.079   866.887 694.079 875 685.855  875 661.184  875 636.512 866.887 620.066 
        842.548 595.395 834.435 587.171  826.321 578.947 793.869 570.723 761.418 562.5 737.079 562.5 
       720.853 570.723 "
       style="stroke:none; fill:#000000; fill-opacity:100%"></polygon>
      <polygon points="729.319 594.726  762.408 585.938 
       787.225 585.938 820.313 603.515  762.408 638.671 
       729.319 647.461 704.504 647.461 696.231 638.671 696.231 647.461 
        679.688 656.25  696.231 621.094 
       712.776 603.515 729.319 594.726 "
       style="stroke:none; fill:#000000; fill-opacity:100%"></polygon>
      <polygon points="835.938 617.188  847.657 626.953 
        859.375 646.484 859.375 656.25  835.938 617.188 "
       style="stroke:none; fill:#000000; fill-opacity:100%"></polygon>
      <polygon points="55.6143 0  31.7796 7.9444 
       15.8898 15.8898 0 31.7796 0 55.6149 0 421.08 
        0 436.97 15.8898 452.859 31.7796 468.75 
       55.6143 468.75 413.135 468.75  436.97 468.75 
       452.859 452.859 468.75 436.97 468.75 421.08 468.75 55.6149 
        468.75 31.7796 452.859 15.8898 436.97 7.9444 
       413.135 0 55.6143 0"
       style="stroke:none; fill:#000000; fill-opacity:100%"></polygon>
      <polygon points="15.625 421.307 15.625 55.3983  23.5796 39.4882 31.5341 31.5341 39.4887 23.5801 55.3978 15.625 
       413.353 15.625  429.262 23.5801 445.171 31.5341 
       453.125 39.4882 453.125 55.3983 453.125 421.307  453.125 429.262 445.171 445.171 429.262 453.125 413.353 453.125 
       55.3978 453.125  39.4887 453.125 31.5341 445.171 
       23.5796 429.262 15.625 421.307 "
       style="stroke:none; fill:#eeeeee; fill-opacity:100%"></polygon>
      <polygon points="230.468 421.875 148.438 235  181.25 226.875 230.468 218.75  287.89 226.875 
       312.5 235 230.468 421.875"
       style="stroke:none; fill:#ffffff; fill-opacity:100%"></polygon>
      <polygon points="286.345 226.562 182.575 226.562  150.646 234.664 126.698 242.767 86.7867 267.072 70.822 283.275 
       54.8573 307.581 46.875 331.886 46.875 356.191 46.875 445.312 
       414.063 445.312 414.063 356.191  414.063 331.886 
       406.081 307.581 390.115 283.275 374.152 267.072 334.24 242.767 
       310.293 234.664 286.345 226.562 "
       style="stroke:none; fill:#567500; fill-opacity:100%"></polygon>
      <polygon points="230.468 414.062 156.25 235.026  172.743 226.887 230.468 218.75  263.455 226.887 
       288.195 226.887 304.688 235.026 230.468 414.062"
       style="stroke:none; fill:#567500; fill-opacity:100%"></polygon>
      <polygon points="182.618 218.75  150.717 226.831 
       126.79 234.914 102.864 242.996 78.9388 259.159 62.9883 283.405 
       47.0378 307.652 39.0625 331.897 39.0625 356.142 39.0625 453.125 
       421.875 453.125 421.875 356.142  421.875 331.897 
       413.9 307.652 397.949 283.405 381.999 259.159 366.048 242.996 
       334.147 234.914 310.222 226.831 286.296 218.75 182.618 218.75"
       style="stroke:none; fill:#465900; fill-opacity:100%"></polygon>
      <polygon points="54.6875 356.119  62.6775 331.705 
       62.6775 307.292 94.6377 274.74 134.587 250.325 182.529 242.188 
       286.398 242.188  334.339 250.325 374.289 274.74 
       398.259 307.292 406.25 331.705 406.25 356.119  406.25 437.5  54.6875 437.5  54.6875 356.119 "
       style="stroke:none; fill:#7faa48; fill-opacity:100%"></polygon>
      <polygon points="230.282 210.938  172.991 219.029 
       156.622 227.12 148.438 227.12 230.282 437.5 320.313 235.212 
       312.129 227.12  287.575 219.029 263.021 210.938 
       230.282 210.938 "
       style="stroke:none; fill:#465900; fill-opacity:100%"></polygon>
      <polygon points="230.208 234.375  271.875 234.375 
       296.875 242.599  230.208 390.625  171.875 242.599  230.208 234.375 "
       style="stroke:none; fill:#ffffff; fill-opacity:100%"></polygon>
      <polygon points="212.24 250 257.813 250 239.583 290.689 
        248.699 323.241 257.813 363.932 257.813 396.484 
        257.813 420.897 248.699 429.036 230.468 445.312 
        221.354 429.036 212.24 420.897 203.125 396.484 
        212.24 331.38 230.468 290.689 212.24 250"
       style="stroke:none; fill:#5d7f00; fill-opacity:100%"></polygon>
      <polygon points="328.125 406.25 328.125 445.313 359.375 445.313 
       359.375 406.25 328.125 406.25"
       style="stroke:none; fill:#465900; fill-opacity:100%"></polygon>
      <polygon points="109.375 445.313 130.209 445.313 140.625 398.438 
       109.375 398.438 109.375 445.313"
       style="stroke:none; fill:#465900; fill-opacity:100%"></polygon>
      <polygon points="132.812 144.127  140.937 184.537 
       157.187 233.027 189.687 257.273 214.063 265.355 230.312 273.437 
        254.687 265.355 270.937 257.273 303.437 233.027 
       327.812 184.537 335.937 144.127  327.812 103.717 
       303.437 71.3895 270.937 47.1444 230.312 39.062  189.687 47.1444 157.187 71.3895 140.937 103.717 132.812 144.127 
       "
       style="stroke:none; fill:#b2510f; fill-opacity:100%"></polygon>
      <polygon points="148.438 144.022  156.622 111.413 
       172.991 86.957 197.544 62.5 230.282 62.5  263.021 62.5 295.759 86.957 312.129 111.413 320.313 144.022 
        312.129 184.783 295.759 217.391 263.021 241.847 
       246.653 250 230.282 250  213.914 250 
       197.544 241.847 172.991 217.391 156.622 184.783 148.438 144.022 
       "
       style="stroke:none; fill:#ff9900; fill-opacity:100%"></polygon>
      <polygon points="181.713 39.496  149.306 64.2362 
       133.101 97.2224 125 130.209 133.101 154.949 141.204 179.688 
       149.306 146.702  157.407 138.455 165.509 121.963 
        197.916 130.209 230.323 113.716 287.037 88.9764 
        311.343 146.702 319.444 154.949 327.545 154.949 
         335.648 146.702  343.75 130.209  335.648 105.468 327.545 80.7293 
        311.343 64.2362 295.138 55.9902  287.037 47.7431 262.731 31.25 222.222 31.25 206.018 31.25 
       181.713 39.496 "
       style="stroke:none; fill:#000000; fill-opacity:100%"></polygon>
      <polygon points="189.941 55.6646  223.144 46.875 
       248.047 46.875 281.25 64.4531  231.444 99.6094 
       198.241 108.398 165.038 108.398  156.738 108.398 
        148.438 117.188  156.738 82.0313 
       173.34 64.4531 189.941 55.6646 "
       style="stroke:none; fill:#000000; fill-opacity:100%"></polygon>
      <polygon points="304.688 85.938    320.313 105.468 320.313 125  304.688 85.938 "
       style="stroke:none; fill:#000000; fill-opacity:100%"></polygon>
      <polygon points="55.6143 539.062  31.7796 539.062 
       15.8898 554.953 0 570.842 0 594.677 0 952.198 
        0 976.032 15.8898 991.922 31.7796 1007.81 
       55.6143 1007.81 413.135 1007.81  436.97 1007.81 
       452.859 991.922 468.75 976.032 468.75 952.198 468.75 594.677 
        468.75 570.842 452.859 554.953 436.97 539.062 
       413.135 539.062 55.6143 539.062"
       style="stroke:none; fill:#000000; fill-opacity:100%"></polygon>
      <polygon points="15.625 952.415 15.625 594.46  23.5796 578.551 31.5341 562.642 39.4887 554.688 55.3978 554.688 
       413.353 554.688  429.262 554.688 445.171 562.642 
       453.125 578.551 453.125 594.46 453.125 952.415  453.125 968.324 445.171 976.279 429.262 984.233 413.353 992.188 
       55.3978 992.188  39.4887 984.233 31.5341 976.279 
       23.5796 968.324 15.625 952.415 "
       style="stroke:none; fill:#eeeeee; fill-opacity:100%"></polygon>
      <polygon points="182.575 750  158.628 750 
       126.698 758.072 110.734 774.219 86.7867 790.364 70.822 806.511 
       54.8573 830.729 46.875 854.948 46.875 887.239 46.875 992.188 
       414.063 992.188 414.063 887.239  414.063 854.948 
       406.081 830.729 390.115 806.511 374.152 790.364 350.204 774.219 
       334.24 758.072 302.31 750 278.364 750 182.575 750"
       style="stroke:none; fill:#4e3966; fill-opacity:100%"></polygon>
      <polygon points="62.5 887.319  62.5 862.981 
       70.4985 838.643 94.4941 798.077 134.486 773.739 158.482 765.625 
       182.478 765.625 278.461 765.625  302.456 765.625 
       326.451 773.739 366.444 798.077 390.439 838.643 398.438 862.981 
       398.438 887.319  398.438 976.563  62.5 976.563  62.5 887.319 "
       style="stroke:none; fill:#775599; fill-opacity:100%"></polygon>
      <polygon points="288.574 750 164.062 750 164.062 766.601 
        197.265 841.309 213.868 866.211 230.468 882.812 
         247.071 866.211 263.671 841.309 
       296.874 766.601 296.874 750 288.574 750"
       style="stroke:none; fill:#4e3966; fill-opacity:100%"></polygon>
      <polygon points="281.25 765.625  247.396 833.333 
       230.468 867.187  205.078 833.333 179.688 765.625 
        281.25 765.625 "
       style="stroke:none; fill:#ffcc66; fill-opacity:100%"></polygon>
      <polygon points="117.188 906.25 117.188 984.375 140.625 984.375 
       140.625 906.25 117.188 906.25"
       style="stroke:none; fill:#4e3966; fill-opacity:100%"></polygon>
      <polygon points="328.125 906.25 328.125 984.375 351.563 984.375 
       351.563 906.25 328.125 906.25"
       style="stroke:none; fill:#4e3966; fill-opacity:100%"></polygon>
      <polygon points="125 667.41  133.112 715.96 
       157.452 756.417 189.904 788.783 214.244 796.874 230.468 796.874 
        246.696 796.874 271.034 788.783 303.486 756.417 
       327.824 715.96 335.938 667.41  327.824 626.953 
       303.486 594.587 271.034 578.404 230.468 570.312  189.904 578.404 157.452 594.587 133.112 626.953 125 667.41 
       "
       style="stroke:none; fill:#b2510f; fill-opacity:100%"></polygon>
      <polygon points="140.625 667.317  148.793 634.765 
       165.127 610.351 197.798 585.938 230.468 585.938  263.139 585.938 295.81 610.351 312.146 634.765 320.313 667.317 
        312.146 708.007 287.642 740.559 263.139 773.111 
       246.805 781.25 230.468 781.25  214.134 781.25 
       197.798 773.111 173.296 740.559 148.793 708.007 140.625 667.317 
       "
       style="stroke:none; fill:#ffcc66; fill-opacity:100%"></polygon>
      <polygon points="230.468 562.5  198.299 570.637 
       174.173 578.776 150.047 595.052 133.961 619.467 117.877 676.432 
       109.835 700.845 93.75 749.675 101.792 749.675 174.173 749.675 
       166.13 741.536  158.088 725.26 150.047 684.571 
           150.047 652.019 158.088 635.741  182.216 643.88 
       230.468 652.019  270.68 643.88 302.85 635.741 
        310.892 660.156 310.892 684.571  310.892 692.708  302.85 725.26 294.807 741.536 
       286.765 757.812 367.188 757.812 359.145 741.536  359.145 733.397 351.103 708.984  343.062 660.156 
       326.976 619.467  310.892 595.052 294.807 578.776 
       262.638 570.637 230.468 562.5 "
       style="stroke:none; fill:#724526; fill-opacity:100%"></polygon>
      <polygon points="125.539 701.171 133.62 676.562 141.703 627.344 
        149.785 619.141 165.948 602.734 190.194 586.329 
       230.603 578.125  254.849 586.329 279.095 594.531 
       303.34 610.937 319.504 627.344  327.585 660.156 
       335.668 709.375  343.75 742.187  311.422 742.187  319.504 717.578 327.585 692.968 
        327.585 684.766  319.504 643.75 
       311.422 627.344 311.422 619.141 303.34 619.141  287.176 627.344 230.603 635.546  174.03 627.344 
       157.866 619.141 149.785 619.141 149.785 627.344  141.703 643.75 133.62 684.766    141.703 717.578 149.785 733.983  109.375 733.983  125.539 701.171 "
       style="stroke:none; fill:#aa6635; fill-opacity:100%"></polygon>
      <polygon points="586.732 0  570.842 7.9444 
       554.953 15.8898 539.062 31.7796 539.062 55.6149 539.062 421.08 
        539.062 436.97 554.953 452.859 570.842 468.75 
       586.732 468.75 952.197 468.75  976.032 468.75 
       991.922 452.859 999.868 436.97 1007.81 421.08 1007.81 55.6149 
        999.868 31.7796 991.922 15.8898 976.032 7.9444 
       952.197 0 586.732 0"
       style="stroke:none; fill:#000000; fill-opacity:100%"></polygon>
      <polygon points="554.688 421.307 554.688 55.3983  554.688 39.4882 562.642 31.5341 578.551 23.5801 586.506 15.625 
       952.415 15.625  968.325 23.5801 976.279 31.5341 
       984.233 39.4882 992.188 55.3983 992.188 421.307  984.233 429.262 976.279 445.171 968.325 453.125 952.415 453.125 
       586.506 453.125  578.551 453.125 562.642 445.171 
       554.688 429.262 554.688 421.307 "
       style="stroke:none; fill:#eeeeee; fill-opacity:100%"></polygon>
      <polygon points="713.764 218.75  689.827 218.75 
       665.891 226.831 641.955 242.996 618.019 259.159 602.061 275.324 
       594.082 299.569 586.104 323.814 578.125 356.142 578.125 453.125 
       953.125 453.125 953.125 356.142  953.125 323.814 
       945.147 299.569 929.189 275.324 913.232 259.159 889.295 242.996 
       873.339 226.831 841.424 218.75 817.487 218.75 713.764 218.75"
       style="stroke:none; fill:#99460d; fill-opacity:100%"></polygon>
      <polygon points="593.75 356.249  601.744 331.875 
       601.744 307.5 633.72 266.875 673.692 242.5 689.68 234.375 
       713.663 234.375 817.587 234.375  841.57 234.375 
       865.552 242.5 905.523 266.875 929.505 307.5 937.5 331.875 
       937.5 356.249  937.5 437.5  593.75 437.5  593.75 356.249 "
       style="stroke:none; fill:#ff7711; fill-opacity:100%"></polygon>
      <polygon points="859.375 375 859.375 437.5 882.813 437.5 
       882.813 375 859.375 375"
       style="stroke:none; fill:#99460d; fill-opacity:100%"></polygon>
      <polygon points="656.25 375 656.25 437.5 679.688 437.5 
       679.688 375 656.25 375"
       style="stroke:none; fill:#99460d; fill-opacity:100%"></polygon>
      <polygon points="664.062 136.314  672.187 176.724 
       696.562 225.216 729.062 249.462 745.313 265.625 769.687 265.625 
        785.937 265.625 810.313 249.462 842.813 225.216 
       859.062 176.724 867.187 136.314  859.062 95.9053 
       842.813 63.5777 810.313 39.3314 769.687 31.25  729.062 39.3314 696.562 63.5777 672.187 95.9053 664.062 136.314 
       "
       style="stroke:none; fill:#b2510f; fill-opacity:100%"></polygon>
      <polygon points="679.688 136.249  687.855 103.749 
       704.191 71.2494 728.693 55.0005 769.532 46.875  802.203 55.0005 826.705 71.2494 851.209 103.749 859.376 136.249 
        851.209 176.875 826.705 209.375 802.203 241.875 
       785.867 250 769.532 250  753.197 250 
       736.861 241.875 704.191 209.375 687.855 176.875 679.688 136.249 
       "
       style="stroke:none; fill:#ffcc66; fill-opacity:100%"></polygon>
      <polygon points="664.062 139.582  664.062 156.25 
       672.175 156.25   680.289 147.916 
        688.401 122.917 696.514 97.9164  712.741 97.9164 737.079 97.9164 769.531 106.249 793.869 106.249 
        818.209 97.9164 834.435 97.9164  850.661 122.917 858.773 147.916 875 147.916 875 139.582 
        866.887 97.9164 842.548 64.5832 810.096 39.5828 
       769.531 31.25  728.966 39.5828 688.401 64.5832 
       672.175 97.9164 664.062 139.582 "
       style="stroke:none; fill:#7f2700; fill-opacity:100%"></polygon>
      <polygon points="769.531 46.875  786.024 46.875 
       810.764 56.2505 827.256 74.999 843.75 93.75  819.01 84.3745 794.27 93.75 769.531 93.75 736.545 93.75 
        711.806 84.3745 695.312 93.75  728.298 56.2505 744.792 46.875 769.531 46.875 "
       style="stroke:none; fill:#7f2700; fill-opacity:100%"></polygon>
    </g>
  </symbol>
 </defs>
 <use xlink:href="#oid1"/>
</svg>
