<?xml version="1.0"?>
<?metis version="3.6"?>
<?metisxml version="1.1"?>
<!DOCTYPE svg  PUBLIC "-//W3C//DTD SVG 1.0//EN"
 "http://www.w3.org/TR/2001/REC-SVG-20010904/DTD/svg10.dtd">



<!--
Troux Technologies, Inc. Confidential and Proprietary.
This work contains valuable confidential, proprietary and trade secret
information of Troux Technologies, Inc. and is protected by the laws of 
the United States and other countries. Any disclosure, use or reproduction
of this work without the prior written authorization of Troux Technologies, Inc.
is strictly prohibited.
Copyright (C) 2000-2006 Troux Technologies, Inc. All rights reserved.
-->


<svg>
 <title>Symbol library: organization.svg</title>
 <defs>
  <symbol id="oid1" xml:space="preserve" class="METIS_SYMBOL">
   <title>Untitled</title>
    <g>
      <polygon points="1007.81 1007.81 0 1007.81 0 0 
       1007.81 0 1007.81 1007.81"
       style="stroke:none; fill:#ffffff; fill-opacity:0%"></polygon>
      <polygon points="226.562 242.188 226.562 398.438 273.437 398.438 
       273.437 242.188 226.562 242.188"
       style="stroke:none; fill:#444444; fill-opacity:100%"></polygon>
      <polygon points="750 242.188 750 398.438 789.063 398.438 
       789.063 242.188 750 242.188"
       style="stroke:none; fill:#444444; fill-opacity:100%"></polygon>
      <polygon points="882.812 570.312 882.812 796.874 921.875 796.874 
       921.875 570.312 882.812 570.312"
       style="stroke:none; fill:#444444; fill-opacity:100%"></polygon>
      <polygon points="625 570.312 625 796.874 671.875 796.874 
       671.875 570.312 625 570.312"
       style="stroke:none; fill:#444444; fill-opacity:100%"></polygon>
      <polygon points="351.562 570.312 351.562 796.874 390.625 796.874 
       390.625 570.312 351.562 570.312"
       style="stroke:none; fill:#444444; fill-opacity:100%"></polygon>
      <polygon points="93.75 570.312 93.75 796.874 140.625 796.874 
       140.625 570.312 93.75 570.312"
       style="stroke:none; fill:#444444; fill-opacity:100%"></polygon>
      <polygon points="594.677 382.812  578.787 390.877 
       554.953 398.942 547.007 415.07 539.062 439.264 539.062 576.36 
        547.007 600.554 554.953 616.683 578.787 624.748 
       594.677 632.812 952.197 632.812  976.032 624.748 
       991.922 616.683 999.868 600.554 1007.81 576.36 1007.81 439.264 
        999.868 415.07 991.922 398.942 976.032 390.877 
       952.197 382.812 594.677 382.812"
       style="stroke:none; fill:#465900; fill-opacity:100%"></polygon>
      <polygon points="554.688 576.678 554.688 438.947  562.642 422.743 570.596 414.641 578.551 406.539 594.46 398.438 
       952.415 398.438  968.325 406.539 984.233 414.641 
       992.188 422.743 992.188 438.947 992.188 576.678  992.188 592.883 984.233 609.086 968.325 617.188 952.415 617.188 
       594.46 617.188  578.551 617.188 570.596 609.086 
       562.642 592.883 554.688 576.678 "
       style="stroke:none; fill:#7faa48; fill-opacity:100%"></polygon>
      <polygon points="63.4269 382.812  39.5922 390.877 
       23.7023 398.942 15.7574 415.07 7.8125 439.264 7.8125 576.36 
        15.7574 600.554 23.7023 616.683 39.5922 624.748 
       63.4269 632.812 420.948 632.812  444.783 624.748 
       460.673 616.683 468.618 600.554 476.563 576.36 476.563 439.264 
        468.618 415.07 460.673 398.942 444.783 390.877 
       420.948 382.812 63.4269 382.812"
       style="stroke:none; fill:#465900; fill-opacity:100%"></polygon>
      <polygon points="23.4375 576.678 23.4375 438.947  31.392 422.743 39.3466 414.641 47.3011 406.539 63.2102 398.438 
       421.164 398.438  437.074 406.539 452.982 414.641 
       460.937 422.743 460.937 438.947 460.937 576.678  460.937 592.883 452.982 609.086 437.074 617.188 421.164 617.188 
       63.2102 617.188  47.3011 617.188 39.3466 609.086 
       31.392 592.883 23.4375 576.678 "
       style="stroke:none; fill:#7faa48; fill-opacity:100%"></polygon>
      <polygon points="64.6034 750  40.2644 758.064 
       24.0385 766.129 15.9255 782.258 7.8125 806.452 7.8125 943.548 
        15.9255 967.742 24.0385 983.871 40.2644 991.935 
       64.6034 1000 170.072 1000  186.299 991.935 
       202.524 983.871 218.75 967.742 218.75 943.548 218.75 806.452 
        218.75 782.258 202.524 766.129 186.299 758.064 
       170.072 750 64.6034 750"
       style="stroke:none; fill:#4e3966; fill-opacity:100%"></polygon>
      <polygon points="23.4375 943.866 23.4375 806.135  31.6052 789.93 39.7728 773.727 47.9405 765.625 64.2758 765.625 
       170.455 765.625  178.623 765.625 194.958 773.727 
       203.125 789.93 203.125 806.135 203.125 943.866  203.125 960.069 194.958 968.171 178.623 976.273 170.455 984.375 
       64.2758 984.375  47.9405 976.273 39.7728 968.171 
       31.6052 960.069 23.4375 943.866 "
       style="stroke:none; fill:#775599; fill-opacity:100%"></polygon>
      <polygon points="322.415 750  298.077 758.064 
       281.851 766.129 273.739 782.258 265.625 806.452 265.625 943.548 
        273.739 967.742 281.851 983.871 298.077 991.935 
       322.415 1000 419.771 1000  444.111 991.935 
       460.337 983.871 468.451 967.742 476.563 943.548 476.563 806.452 
        468.451 782.258 460.337 766.129 444.111 758.064 
       419.771 750 322.415 750"
       style="stroke:none; fill:#4e3966; fill-opacity:100%"></polygon>
      <polygon points="281.25 943.866 281.25 806.135  281.25 789.93 289.417 773.727 305.753 765.625 322.088 765.625 
       420.099 765.625  436.436 765.625 452.77 773.727 
       460.938 789.93 460.938 806.135 460.938 943.866  460.938 960.069 452.77 968.171 436.436 976.273 420.099 984.375 
       322.088 984.375  305.753 976.273 289.417 968.171 
       281.25 960.069 281.25 943.866 "
       style="stroke:none; fill:#775599; fill-opacity:100%"></polygon>
      <polygon points="853.665 750  829.327 758.064 
       813.101 766.129 804.989 782.258 796.875 806.452 796.875 943.548 
        804.989 967.742 813.101 983.871 829.327 991.935 
       853.665 1000 951.021 1000  975.361 991.935 
       991.587 983.871 999.701 967.742 1007.81 943.548 1007.81 806.452 
        999.701 782.258 991.587 766.129 975.361 758.064 
       951.021 750 853.665 750"
       style="stroke:none; fill:#4e3966; fill-opacity:100%"></polygon>
      <polygon points="812.5 943.866 812.5 806.135  820.667 789.93 828.835 773.727 837.003 765.625 853.338 765.625 
       951.349 765.625  967.686 765.625 984.02 773.727 
       992.188 789.93 992.188 806.135 992.188 943.866  992.188 960.069 984.02 968.171 967.686 976.273 951.349 984.375 
       853.338 984.375  837.003 976.273 828.835 968.171 
       820.667 960.069 812.5 943.866 "
       style="stroke:none; fill:#775599; fill-opacity:100%"></polygon>
      <polygon points="595.853 750  579.627 758.064 
       555.289 766.129 547.175 782.258 539.062 806.452 539.062 943.548 
        547.175 967.742 555.289 983.871 579.627 991.935 
       595.853 1000 701.321 1000  717.548 991.935 
       733.773 983.871 750 967.742 750 943.548 750 806.452 
        750 782.258 733.773 766.129 717.548 758.064 
       701.321 750 595.853 750"
       style="stroke:none; fill:#4e3966; fill-opacity:100%"></polygon>
      <polygon points="554.688 943.866 554.688 806.135  562.855 789.93 571.022 773.727 579.191 765.625 595.526 765.625 
       701.705 765.625  709.873 765.625 726.209 773.727 
       734.376 789.93 734.376 806.135 734.376 943.866  734.376 960.069 726.209 968.171 709.873 976.273 701.705 984.375 
       595.526 984.375  579.191 976.273 571.022 968.171 
       562.855 960.069 554.688 943.866 "
       style="stroke:none; fill:#775599; fill-opacity:100%"></polygon>
      <polygon points="62.934 0  47.185 8.03519 
       23.5615 16.0714 15.687 32.1428 7.8125 56.2504 7.8125 233.035 
        15.687 249.107 23.5615 265.178 47.185 281.25 
       62.934 281.25 952.752 281.25  968.502 281.25 
       984.25 265.178 1000 249.107 1000 233.035 1000 56.2504 
        1000 32.1428 984.25 16.0714 968.502 8.03519 
       952.752 0 62.934 0"
       style="stroke:none; fill:#99460d; fill-opacity:100%"></polygon>
      <polygon points="23.4375 233.367 23.4375 55.9482  31.3135 39.8181 39.1895 23.69 47.0655 15.625 62.8176 15.625 
       952.807 15.625  968.56 15.625 976.435 23.69 
       984.311 39.8181 992.187 55.9482 992.187 233.367  984.311 241.432 976.435 257.561 968.56 265.625 952.807 265.625 
       62.8176 265.625  47.0655 265.625 39.1895 257.561 
       31.3135 241.432 23.4375 233.367 "
       style="stroke:none; fill:#ff7711; fill-opacity:100%"></polygon>
    </g>
  </symbol>
 </defs>
 <use xlink:href="#oid1"/>
</svg>
