<?xml version="1.0"?>
<?metis version="3.1"?>
<?metisxml version="1.0"?>
<!DOCTYPE svg  PUBLIC "-//W3C//DTD SVG August 1999//EN"
 "http://www.w3.org/Graphics/SVG/svg-19990812.dtd">

<svg width="200" height="200">
 <title>Symbol library: organization_network.svg</title>
 <defs>
  <symbol id="oid0" xml:space="preserve" class="METIS_SYMBOL">
   <title>Organization Network</title>
    <g>
      <polygon points="0 0 0 304 16 320 
       880 320 880 16 864 0 0 0 
       0 0 0 0 0 0 0 0 "
       style=" stroke:#000000; stroke-width:1; fill:#9b9b9b; fill-opacity:100%"       class="TAG:shadow"></polygon>
      <rect x="0" y="0" width="240" height="304"
       style=" stroke:#000000; stroke-width:1; fill:#ffffa5; fill-opacity:100%"       class="TAG:PictureBackground"></rect>
      <rect x="240" y="0" width="624" height="304"
       style=" stroke:#000000; stroke-width:1; fill:#c8ffc8; fill-opacity:100%"       class="TAG:canvas"></rect>
      <rect x="245.357" y="25.7143" width="569.522" height="231.429"
       style="stroke:none; fill:#878787; fill-opacity:0%"       class="TAG:grid"></rect>
      <g>
	<desc>METIS_TEXT_GROUP</desc>
	<text  x="256" y="15.8"
	 style=" stroke:#000000; stroke-width:1; font-family:sans-serif; font-size:16;"
	 class="TAG:text">text</text>
	<rect x="256" y="0" width="608" height="304"
	 style=" stroke:#000000; stroke-width:1; fill:#ffffff; fill-opacity:0%"></rect>
      </g>
      <polyline points="864 304 880 320"
       style=" stroke:#000000; stroke-width:1;"></polyline>
      <g>
	<ellipse  cx="88.6124" cy="159.278" rx="5.15314" ry="6.69527"
	 style=" stroke:#000000; stroke-width:1; fill:#ffb367; fill-opacity:100%"	 class="TAG:skin2"></ellipse>
	<ellipse  cx="120" cy="81.1667" rx="7.49549" ry="14.8784"
	 style=" stroke:#464646; stroke-width:1; fill:#ffb367; fill-opacity:100%"	 class="TAG:skin2"></ellipse>
	<ellipse  cx="83.9278" cy="159.278" rx="5.15314" ry="6.69527"
	 style=" stroke:#000000; stroke-width:1; fill:#ffe2c5; fill-opacity:100%"	 class="TAG:skin1"></ellipse>
	<ellipse  cx="21.1531" cy="159.278" rx="5.15314" ry="6.69527"
	 style=" stroke:#000000; stroke-width:1; fill:#ffe2c5; fill-opacity:100%"	 class="TAG:skin1"></ellipse>
	<ellipse  cx="52.5405" cy="78.1909" rx="7.49549" ry="14.8784"
	 style=" stroke:#464646; stroke-width:1; fill:#ffe2c5; fill-opacity:100%"	 class="TAG:skin1"></ellipse>
	<polygon points="113.441 185.316 114.378 224 120 224 
	 120 185.316 120 224 125.621 224 126.558 185.316 
	 113.441 185.316 113.441 185.316 113.441 185.316 113.441 185.316 113.441 185.316 "
	 style=" stroke:#000000; stroke-width:1; fill:#ffb367; fill-opacity:100%"	 class="TAG:skin2"></polygon>
	<ellipse  cx="218.847" cy="159.278" rx="5.15314" ry="6.69527"
	 style=" stroke:#000000; stroke-width:1; fill:#a85400; fill-opacity:100%"	 class="TAG:skin3"></ellipse>
	<ellipse  cx="156.072" cy="159.278" rx="5.15314" ry="6.69527"
	 style=" stroke:#000000; stroke-width:1; fill:#a85400; fill-opacity:100%"	 class="TAG:skin3"></ellipse>
	<ellipse  cx="187.459" cy="78.1909" rx="7.49549" ry="14.8784"
	 style=" stroke:#464646; stroke-width:1; fill:#a85400; fill-opacity:100%"	 class="TAG:skin3"></ellipse>
	<polygon points="186.522 96.0453 187.459 94.5571 188.396 96.0453 
	 188.396 97.5329 187.459 99.0207 186.522 99.0207 184.648 112.412 
	 187.459 125.802 190.27 112.412 188.396 99.0207 187.459 99.0207 
	 186.522 97.5329 186.522 96.0453 186.522 96.0453 186.522 96.0453 
	 186.522 96.0453 186.522 96.0453 "
	 style=" stroke:#000000; stroke-width:1; fill:#a50000; fill-opacity:100%"></polygon>
	<polygon points="172.468 99.0207 182.774 96.0453 187.459 121.338 
	 192.144 96.0453 202.45 99.0207 209.945 134.728 217.44 152.584 
	 213.694 164.485 202.45 140.68 198.702 122.827 198.702 170.437 
	 179.964 170.437 194.955 170.437 194.955 224 187.459 224 
	 187.459 170.437 187.459 224 179.964 224 179.964 170.437 
	 176.216 170.437 176.216 122.827 172.468 140.68 161.225 164.485 
	 157.477 152.584 164.973 134.728 172.468 99.0207 172.468 99.0207 
	 172.468 99.0207 172.468 99.0207 172.468 99.0207 "
	 style=" stroke:#000000; stroke-width:1; fill:#00a500; fill-opacity:100%"	 class="TAG:body3"></polygon>
	<polygon points="51.6034 96.0453 52.5405 94.5571 53.4774 96.0453 
	 53.4774 97.5329 52.5405 99.0207 51.6034 99.0207 49.7297 112.412 
	 52.5405 125.802 55.3511 112.412 53.4774 99.0207 52.5405 99.0207 
	 51.6034 97.5329 51.6034 96.0453 51.6034 96.0453 51.6034 96.0453 
	 51.6034 96.0453 51.6034 96.0453 "
	 style=" stroke:#000000; stroke-width:1; fill:#a5ffa5; fill-opacity:100%"></polygon>
	<polygon points="37.5495 99.0207 47.8557 96.0453 52.5405 121.338 
	 57.225 96.0453 67.5313 99.0207 75.0269 134.728 82.5223 152.584 
	 78.7746 164.485 67.5313 140.68 63.7836 122.827 63.7836 170.437 
	 45.0449 170.437 60.0359 170.437 60.0359 224 52.5405 224 
	 52.5405 170.437 52.5405 224 45.0449 224 45.0449 170.437 
	 41.2972 170.437 41.2972 122.827 37.5495 140.68 26.3061 164.485 
	 22.5584 152.584 30.0538 134.728 37.5495 99.0207 37.5495 99.0207 
	 37.5495 99.0207 37.5495 99.0207 37.5495 99.0207 "
	 style=" stroke:#000000; stroke-width:1; fill:#00006e; fill-opacity:100%"	 class="TAG:body1"></polygon>
	<ellipse  cx="151.387" cy="159.278" rx="5.15314" ry="6.69527"
	 style=" stroke:#000000; stroke-width:1; fill:#ffb367; fill-opacity:100%"	 class="TAG:skin2"></ellipse>
	<polygon points="105.946 101.997 115.315 99.0207 120 113.899 
	 124.684 99.0207 134.991 101.997 142.486 134.728 149.982 152.584 
	 146.234 164.485 135.928 140.68 131.243 122.827 126.558 140.68 
	 134.054 170.437 109.694 170.437 130.306 170.437 130.306 185.316 
	 109.694 185.316 109.694 170.437 105.946 170.437 113.441 140.68 
	 108.756 122.827 104.072 140.68 93.7656 164.485 90.0177 152.584 
	 97.5133 134.728 105.946 101.997 105.946 101.997 105.946 101.997 
	 105.946 101.997 105.946 101.997 "
	 style=" stroke:#000000; stroke-width:1; fill:#a50000; fill-opacity:100%"	 class="TAG:body2"></polygon>
      </g>
    </g>
  </symbol>
 </defs>
</svg>
