<?xml version="1.0"?>
<?metis version="3.1"?>
<?metisxml version="1.0"?>
<!DOCTYPE svg  PUBLIC "-//W3C//DTD SVG August 1999//EN"
 "http://www.w3.org/Graphics/SVG/svg-19990812.dtd">

<svg width="200" height="200">
 <title>Symbol library: orgunitrole.svg</title>
 <defs>
  <symbol id="oid2" xml:space="preserve" class="METIS_SYMBOL">
   <title>Vite Actor</title>
    <polygon points="12 64 28 32 68 32 
     84 64 12 64 12 64 12 64 
     12 64 12 64 12 64 12 64 12 64 "
     style=" stroke:#000000; stroke-width:1; fill:#ffffff; fill-opacity:100%"></polygon>
    <g>
      <desc>METIS_TEXT_GROUP</desc>
      <text  x="0" y="79.8"
       style=" stroke:#000000; stroke-width:1; font-family:sans-serif; font-size:16; text-align:center"
       class="TAG:text">text</text>
      <rect x="0" y="64" width="96" height="32"
       style=" stroke:#000000; stroke-width:1; fill:#ffffff; fill-opacity:0%"></rect>
    </g>
    <g>
    </g>
    <polyline points="28.5335 53.3293 28.5335 49.1778 67.3692 49.1778 
     67.3692 53.3293"
     style=" stroke:#000000; stroke-width:1;"></polyline>
    <rect x="42.4178" y="37" width="11.4696" height="7.47272"
     style=" stroke:#000000; stroke-width:1; fill:#ffffff; fill-opacity:100%"></rect>
    <rect x="61.8356" y="53.1909" width="11.4696" height="7.47272"
     style=" stroke:#000000; stroke-width:1; fill:#ffffff; fill-opacity:100%"></rect>
    <rect x="22.7037" y="53.1909" width="11.4696" height="7.47272"
     style=" stroke:#000000; stroke-width:1; fill:#ffffff; fill-opacity:100%"></rect>
    <polyline points="47.6135 44.4809 47.6135 49.0128"
     style=" stroke:#000000; stroke-width:1;"></polyline>
    <rect x="36" y="0" width="24" height="24"
     style=" stroke:#000000; stroke-width:1; fill:#ffffff; fill-opacity:100%"     class="TAG:concrete"></rect>
    <polyline points="12 64 84 64"
     style=" stroke:#000000; stroke-width:1;"></polyline>
    <polygon points="37 2 47 22 49 22 
     59 2 57 2 48 20 39 2 
     39 2 37 2 37 2 "
     style=" stroke:#000000; stroke-width:1; fill:#ffffff; fill-opacity:100%"></polygon>
  </symbol>
  <symbol id="oid1" xml:space="preserve" class="METIS_SYMBOL">
   <title>Organization Unit Role</title>
    <polygon points="12 64 28 32 68 32 
     84 64 12 64 12 64 12 64 
     12 64 12 64 12 64 12 64 12 64 "
     style=" stroke:#000000; stroke-width:1; fill:#ffffff; fill-opacity:100%"></polygon>
    <g>
      <desc>METIS_TEXT_GROUP</desc>
      <text  x="0" y="79.8"
       style=" stroke:#000000; stroke-width:1; font-family:sans-serif; font-size:16; text-align:center"
       class="TAG:text">text</text>
      <rect x="0" y="64" width="96" height="32"
       style=" stroke:#000000; stroke-width:1; fill:#ffffff; fill-opacity:0%"></rect>
    </g>
    <g>
    </g>
    <polyline points="28.5335 53.3293 28.5335 49.1778 67.3692 49.1778 
     67.3692 53.3293"
     style=" stroke:#000000; stroke-width:1;"></polyline>
    <rect x="42.4178" y="37" width="11.4696" height="7.47272"
     style=" stroke:#000000; stroke-width:1; fill:#ffffff; fill-opacity:100%"></rect>
    <rect x="61.8356" y="53.1909" width="11.4696" height="7.47272"
     style=" stroke:#000000; stroke-width:1; fill:#ffffff; fill-opacity:100%"></rect>
    <rect x="22.7037" y="53.1909" width="11.4696" height="7.47272"
     style=" stroke:#000000; stroke-width:1; fill:#ffffff; fill-opacity:100%"></rect>
    <polyline points="47.6135 44.4809 47.6135 49.0128"
     style=" stroke:#000000; stroke-width:1;"></polyline>
    <rect x="35" y="0" width="24" height="24"
     style=" stroke:#000000; stroke-width:1; fill:#ffffff; fill-opacity:100%"     class="TAG:concrete"></rect>
    <polyline points="12 64 84 64"
     style=" stroke:#000000; stroke-width:1;"></polyline>
    <polyline points="0 96 96 96 96 0 
     96 0"
     style=" stroke:#dcdcdc; stroke-width:1;"     class="TAG:frame"></polyline>
  </symbol>
 </defs>
</svg>
