<?xml version="1.0"?>
<?metis version="3.6"?>
<?metisxml version="1.1"?>
<!DOCTYPE svg  PUBLIC "-//W3C//DTD SVG August 1999//EN"
 "http://www.w3.org/Graphics/SVG/svg-19990812.dtd">



<!--
Troux Technologies, Inc. Confidential and Proprietary.
This work contains valuable confidential, proprietary and trade secret
information of Troux Technologies, Inc. and is protected by the laws of 
the United States and other countries. Any disclosure, use or reproduction
of this work without the prior written authorization of Troux Technologies, Inc.
is strictly prohibited.
Copyright (C) 2000-2006 Troux Technologies, Inc. All rights reserved.
-->


<svg
 width="200" height="200">
 <title>Symbol library: parameter.svg</title>
 <defs>
  <symbol id="oid1" xml:space="preserve" class="METIS_SYMBOL">
   <title>Parameter</title>
    <image x="0" y="0" width="932.789" height="176" xlink:role="symbol" xlink:title="Parameter Body" xlink:href="common_symbol_components_bodies.svg#oid5"></image>
    <g>
      <desc>METIS_TEXT_GROUP</desc>
      <text  x="202.573" y="106.263"
       style=" stroke:#000000; stroke-width:1; font-family:sans-serif; font-size:22;"
       class="TAG:defaultValue">defaultValue</text>
      <rect x="202.573" y="85.2635" width="712.936" height="58.1767"
       style=" stroke:#000000; stroke-width:1; fill:#ffffff; fill-opacity:0%"></rect>
    </g>
    <g>
      <desc>METIS_TEXT_GROUP</desc>
      <text  x="144" y="53"
       style=" stroke:#000000; stroke-width:1; font-family:sans-serif; font-size:22;"
       class="TAG:text">text</text>
      <rect x="144" y="32" width="771.509" height="47.2722"
       style=" stroke:#000000; stroke-width:1; fill:#ffffff; fill-opacity:0%"></rect>
    </g>
    <g>
      <polygon points="11.069 66.2773 11.069 66.2773 11.3878 62.5831 
       12.025 58.8888 12.6624 55.5305 13.6184 52.508 14.5742 49.4855 
       15.8489 46.4631 17.1235 43.7764 18.7169 41.0898 20.3103 38.739 
       21.9033 36.388 23.8154 34.373 25.7272 32.358 27.9581 30.679 
       30.1887 28.9997 34.6497 26.3131 36.8804 24.9697 39.4297 23.9623 
       41.979 22.9548 44.5283 22.2831 47.3961 21.6116 49.9453 21.2756 
       52.4946 20.9398 55.3626 20.6038 57.912 20.6038 60.7798 20.9398 
       63.3291 21.2756 66.197 21.6116 69.065 21.9471 71.6143 22.6189 
       76.7128 24.2981 76.7128 24.2981 79.8996 25.6416 82.449 26.9847 
       84.9977 28.6639 87.2283 30.3432 89.459 32.358 91.3709 34.373 
       93.2827 36.388 94.8766 38.739 96.1509 40.7538 97.4252 43.4406 
       98.3816 45.7914 99.3379 48.1422 99.9747 50.8287 100.293 53.5155 
       100.612 56.2021 100.931 58.8888 100.931 61.5755 100.612 64.2621 
       100.293 67.2847 99.6559 69.9714 98.7003 72.3222 98.0628 75.0087 
       96.7885 77.6955 95.5134 80.3823 94.239 82.7331 92.6459 85.0838 
       90.7333 87.4349 88.8222 89.4496 86.9096 91.4647 84.6789 93.4798 
       82.1302 95.159 79.8996 96.8381 79.8996 96.8381 77.9874 97.8453 
       76.394 99.1885 74.8008 100.196 73.5262 101.204 72.5701 102.212 
       71.6143 103.219 70.6582 104.226 69.7023 105.906 69.0863 107.03 
       68.8202 108.339 68.4277 109.935 68.1103 111.799 68.1091 113.294 
       68.1091 115.309 68.1091 118.331 43.2536 118.331 43.2536 118.331 
       43.2536 114.637 43.2536 110.943 43.2536 107.92 43.5722 104.898 
       43.5722 102.212 43.8909 99.5245 44.5283 97.1741 45.1656 95.159 
       46.1214 93.1438 47.0775 91.1287 48.3522 89.4496 49.9453 87.4349 
       51.8573 85.7556 54.088 83.7403 56.3186 82.0613 59.1866 80.0463 
       59.1866 80.0463 61.4171 78.3673 63.3291 76.688 64.9222 75.0087 
       66.5157 72.994 67.4716 70.9789 68.7462 68.9639 69.3835 66.6129 
       70.0209 63.5906 70.3396 61.2398 70.0209 59.2248 69.7023 57.2097 
       69.3835 55.1947 68.4277 53.1797 67.4716 51.5004 65.241 49.1497 
       65.241 49.1497 63.3291 47.8064 61.4171 46.7987 59.1866 46.1271 
       56.9559 45.7914 54.7253 45.7914 52.1761 46.1271 49.6268 46.7987 
       46.4402 48.1422 44.2097 49.8214 42.2975 51.5004 40.7044 53.8513 
       39.1111 56.538 38.155 59.5605 37.5177 63.2546 36.4608 68.0359 
       11.069 66.2773 11.069 66.2773 11.069 66.2773 11.069 66.2773 
       11.069 66.2773 11.069 66.2773 "
       style=" stroke:#ffffff; stroke-width:1; fill:#00006e; fill-opacity:100%"></polygon>
      <polygon points="43.3696 128.482 68.6302 128.482 68.6302 155.396 
       43.3696 155.396 43.3696 128.482 43.3696 128.482 43.3696 128.482 
       43.3696 128.482 43.3696 128.482 43.3696 128.482 "
       style=" stroke:#ffffff; stroke-width:1; fill:#00006e; fill-opacity:100%"></polygon>
    </g>
  </symbol>
 </defs>
</svg>
