<?xml version="1.0"?>
<?metis version="3.0.2"?>
<?metisxml version="1.0"?>
<!DOCTYPE svg  PUBLIC "-//W3C//DTD SVG August 1999//EN"
 "http://www.w3.org/Graphics/SVG/svg-19990812.dtd">

<svg width="200" height="200">
 <title>Symbol library: person3.svg</title>
 <defs>
  <symbol id="oid1" xml:space="preserve" class="METIS_SYMBOL">
   <title>person3</title>
    <g>
      <desc>METIS_TEXT_GROUP</desc>
      <text  x="0" y="188.8"
       style=" stroke:#000000; stroke-width:1; font-family:sans-serif; font-size:16;"
       class="TAG:text">text</text>
      <rect x="0" y="173" width="208" height="140.558"
       style=" stroke:#000000; stroke-width:1; fill:#ffffff; fill-opacity:0%"></rect>
    </g>
    <polygon points="123.648 180 55.0312 151.511 56.4556 147.885 
     57.6429 144 58.83 140.116 59.7797 136.489 60.2546 132.604 
     60.4919 128.979 60.017 125.094 58.5926 121.468 56.9305 117.583 
     55.2685 113.698 53.1317 110.072 51.2322 106.446 49.3328 102.82 
     47.1959 99.4535 45.5339 95.8271 43.6345 92.2015 41.9725 88.5751 
     40.7853 84.6906 39.5982 80.8057 38.6485 76.4028 38.1736 71.7411 
     37.9362 66.8202 38.1736 61.6404 38.6485 55.9424 39.5982 51.7986 
     40.7853 47.6547 41.9725 43.7698 43.3971 40.144 45.0591 36.518 
     46.9585 32.892 48.8579 29.5251 51.2322 26.4173 53.8439 23.5684 
     56.6931 20.4605 59.7797 17.6116 63.3411 15.0216 67.1401 12.1727 
     71.4137 9.58271 75.9249 7.25179 80.6734 4.92086 83.9975 3.62589 
     87.5589 2.58993 91.1204 1.55395 94.6818 0.776977 98.4807 0.517979 
     102.042 0 106.079 0 109.877 0 113.676 0.25898 
     117.475 0.517979 121.274 1.29496 124.835 1.81293 128.159 2.84891 
     131.721 3.88488 135.045 5.17986 138.131 6.21582 140.743 7.76979 
     143.592 9.58271 146.204 11.6547 148.815 13.9856 151.427 16.5756 
     153.802 19.1656 156.176 22.0145 158.313 25.1222 160.449 28.4891 
     162.111 31.5971 163.774 35.2231 165.198 38.5899 166.148 42.2158 
     167.097 45.8417 167.81 49.7267 167.81 52.5756 168.285 54.3884 
     168.76 55.6835 169.472 57.2375 170.422 59.3093 170.896 60.8633 
     171.134 62.1583 171.134 63.4532 170.896 64.7482 170.184 66.0433 
     169.234 67.5971 168.285 68.633 167.335 69.9281 166.385 71.4819 
     165.673 73.0359 165.436 74.8491 165.436 76.9209 166.385 78.9928 
     168.285 82.1008 169.709 84.6906 171.134 86.7624 172.321 88.5751 
     173.508 90.1293 174.695 91.6835 176.357 93.2376 178.019 94.5324 
     179.206 95.5685 179.919 97.1227 180.394 98.676 180.631 100.23 
     180.394 101.525 180.156 102.561 179.206 103.856 178.494 104.633 
     177.07 105.41 174.22 106.705 170.184 108.518 170.422 110.59 
     170.659 113.18 171.134 115.77 171.846 117.583 171.134 118.619 
     170.659 119.137 170.184 119.914 169.709 120.69 168.997 121.209 
     168.047 121.468 167.097 121.727 165.673 121.727 167.81 123.281 
     168.997 124.575 169.472 126.13 169.234 127.684 168.285 129.237 
     167.097 130.791 165.673 131.827 163.774 132.864 163.774 134.418 
     164.011 136.749 164.723 139.597 165.436 142.187 165.91 144.518 
     166.148 147.108 165.91 149.18 165.198 151.252 163.774 153.064 
     162.111 154.36 160.449 155.137 157.6 155.914 152.377 156.173 
     147.154 155.914 142.642 155.655 139.081 155.655 137.182 156.173 
     135.282 157.727 133.62 159.798 131.483 162.907 130.059 166.274 
     128.634 170.159 127.21 173.784 125.548 177.151 123.648 180 
     123.648 180 123.648 180 123.648 180 "
     style=" stroke:#0000dc; stroke-width:1; fill:#ff0000; fill-opacity:100%"></polygon>
  </symbol>
 </defs>
</svg>
