<?xml version="1.0"?>
<?metis version="3.1"?>
<?metisxml version="1.0"?>
<!DOCTYPE svg  PUBLIC "-//W3C//DTD SVG August 1999//EN"
 "http://www.w3.org/Graphics/SVG/svg-19990812.dtd">

<svg width="200" height="200">
 <title>Symbol library: person2.svg</title>
 <defs>
  <symbol id="oid1" xml:space="preserve" class="METIS_SYMBOL">
   <title>Person</title>
    <g>
      <polygon points="0 0 0 304 16 320 
       880 320 880 16 864 0 0 0 
       0 0 0 0 0 0 0 0 
       0 0 0 0 0 0 0 0 0 0 "
       style=" stroke:#000000; stroke-width:1; fill:#9b9b9b; fill-opacity:100%"       class="TAG:shadow"></polygon>
      <rect x="0" y="0" width="240" height="304"
       style=" stroke:#000000; stroke-width:1; fill:#ffffa5; fill-opacity:100%"       class="TAG:PictureBackground"></rect>
      <rect x="240" y="0" width="624" height="304"
       style=" stroke:#000000; stroke-width:1; fill:#c8ffc8; fill-opacity:100%"       class="TAG:canvas"></rect>
      <rect x="245.357" y="25.7143" width="569.522" height="231.429"
       style="stroke:none; fill:#878787; fill-opacity:0%"></rect>
      <g>
	<desc>METIS_TEXT_GROUP</desc>
	<text  x="256" y="15.8"
	 style=" stroke:#000000; stroke-width:1; font-family:sans-serif; font-size:16;"
	 class="TAG:text">text</text>
	<rect x="256" y="0" width="608" height="304"
	 style=" stroke:#000000; stroke-width:1; fill:#ffffff; fill-opacity:0%"></rect>
      </g>
      <polyline points="864 304 880 320"
       style=" stroke:#000000; stroke-width:1;"></polyline>
      <g>
	<polygon points="144.818 250.5 53.7532 220.693 55.6439 216.9 
	 57.2193 212.835 58.7948 208.772 60.0554 204.977 60.6855 200.912 
	 61.0007 197.119 60.3702 193.055 58.4799 189.261 56.274 185.197 
	 54.0681 181.133 51.2324 177.339 48.7113 173.545 46.1905 169.751 
	 43.3545 166.229 41.1489 162.434 38.6282 158.642 36.4223 154.847 
	 34.8468 150.784 33.2714 146.719 32.0108 142.112 31.3807 137.235 
	 31.0655 132.086 31.3807 126.667 32.0108 120.706 33.2714 116.37 
	 34.8468 112.035 36.4223 107.97 38.3129 104.177 40.5188 100.383 
	 43.0396 96.5895 45.5604 93.0669 48.7113 89.8154 52.1778 86.8347 
	 55.9588 83.5832 60.0554 80.6025 64.782 77.8927 69.824 74.9121 
	 75.496 72.2024 81.4829 69.7637 87.784 67.325 92.1968 65.9701 
	 96.9228 64.8863 101.649 63.8023 106.377 62.9895 111.418 62.7185 
	 116.144 62.1766 121.502 62.1766 126.543 62.1766 131.584 62.4475 
	 136.626 62.7185 141.669 63.5314 146.394 64.0733 150.805 65.1573 
	 155.533 66.2411 159.945 67.596 164.04 68.6798 167.507 70.3057 
	 171.288 72.2024 174.754 74.3702 178.22 76.8089 181.686 79.5186 
	 184.839 82.2284 187.988 85.209 190.824 88.4604 193.659 91.983 
	 195.865 95.2347 198.072 99.0283 199.962 102.551 201.224 106.344 
	 202.482 110.138 203.428 114.203 203.428 117.183 204.06 119.08 
	 204.689 120.435 205.634 122.061 206.896 124.228 207.524 125.855 
	 207.841 127.209 207.841 128.564 207.524 129.919 206.579 131.274 
	 205.318 132.899 204.06 133.984 202.798 135.338 201.537 136.964 
	 200.592 138.589 200.279 140.486 200.279 142.655 201.537 144.822 
	 204.06 148.074 205.95 150.784 207.841 152.951 209.415 154.847 
	 210.991 156.474 212.567 158.099 214.772 159.726 216.977 161.08 
	 218.553 162.164 219.499 163.79 220.13 165.416 220.444 167.041 
	 220.13 168.396 219.814 169.48 218.553 170.835 217.608 171.648 
	 215.718 172.461 211.936 173.816 206.579 175.712 206.896 177.88 
	 207.21 180.59 207.841 183.3 208.786 185.197 207.841 186.281 
	 207.21 186.823 206.579 187.636 205.95 188.447 205.005 188.991 
	 203.743 189.261 202.482 189.532 200.592 189.532 203.428 191.159 
	 205.005 192.512 205.634 194.139 205.318 195.765 204.06 197.39 
	 202.482 199.016 200.592 200.1 198.072 201.184 198.072 202.81 
	 198.387 205.249 199.331 208.228 200.279 210.938 200.907 213.377 
	 201.224 216.086 200.907 218.255 199.962 220.423 198.072 222.318 
	 195.865 223.675 193.659 224.487 189.878 225.3 182.947 225.571 
	 176.015 225.3 170.026 225.03 165.3 225.03 162.781 225.571 
	 160.259 227.197 158.054 229.364 155.218 232.617 153.328 236.14 
	 151.437 240.204 149.547 243.997 147.34 247.519 144.818 250.5 
	 144.818 250.5 144.818 250.5 144.818 250.5 144.818 250.5 
	 144.818 250.5 144.818 250.5 144.818 250.5 144.818 250.5 
	 144.818 250.5 144.818 250.5 144.818 250.5 144.818 250.5 144.818 250.5 "
	 style=" stroke:#6e0000; stroke-width:1; fill:#ffecd9; fill-opacity:100%"></polygon>
	<path d="M 205.009 112.396 C 205.009 112.396 209.757 122.638 
	 205.009 120.766 C 194.39 116.581 167.485 111.667 151.922 116.581 
	 C 141.663 119.82 136.51 125.501 130.687 129.136 C 118.636 136.659 
	 125.685 160.562 114.761 179.356 C 107.148 192.453 106.191 226.056 
	 93.5266 233.76 C 82.1238 240.697 59.0273 222.482 51.0576 221.205 
	 C 28.4444 217.582 30.7519 157.544 29.8231 137.506 C 29.4559 129.586 
	 30.7195 111.782 35.1317 104.026 C 40.9495 93.8 60.3645 76.5091 
	 72.2921 70.5465 C 80.4609 66.463 100.53 63.1617 109.453 62.1766 
	 C 115.581 61.5 129.908 61.7014 135.996 62.1766 C 142.205 62.6613 
	 156.58 64.4158 162.54 66.3616 C 166.752 67.7374 175.208 72.2456 
	 178.466 74.7315 C 184.292 79.1793 178.853 72.8362 194.39 91.4713 Z"
	 style=" stroke:#6e0000; stroke-width:1; fill:#a85400; fill-opacity:100%"></path>
	<polygon points="202.595 135.555 196.445 141.086 202.288 146.005 
	 204.094 143.919 204.944 141.086 204.094 138.252 202.595 135.555 
	 202.595 135.555 202.595 135.555 202.595 135.555 202.595 135.555 
	 202.595 135.555 202.595 135.555 202.595 135.555 202.595 135.555 202.595 135.555 "
	 style=" stroke:#6e0000; stroke-width:1; fill:#ffffff; fill-opacity:100%"></polygon>
      </g>
    </g>
  </symbol>
 </defs>
</svg>
