<?xml version="1.0"?>
<?metis version="3.0.1"?>
<?metisxml version="1.0"?>
<!DOCTYPE svg  PUBLIC "-//W3C//DTD SVG August 1999//EN"
 "http://www.w3.org/Graphics/SVG/svg-19990812.dtd">

<svg width="200" height="200">
 <title>Symbol library: personal_image_proc.svg</title>
 <defs>
  <symbol id="oid0" xml:space="preserve" class="METIS_SYMBOL">
    <polygon points="2.016 34.375 2.016 34.375 2 103.25 
     8.188 103.25 8.188 112.5 134.563 112.5 167.828 73.5 
     170.703 75.125 170.703 81.875 174.703 81.875 177.328 76.75 
     178.266 71.3125 178.266 29.8125 174.766 25.625 169.953 23.5 
     168.891 23.4375 168.891 18.375 134.266 18.4375 134.266 0 
     91.4534 0 50.2659 5 44.7034 22.5625 2.016 34.375 "
     style=" stroke:#000000; stroke-width:1; fill:#fff595; fill-opacity:100%"     class="TAG:polygon"></polygon>
    <polygon points="2 95.25 138.219 95.25 138.219 34.5 
     2 34.4375 2 95.25 "
     style=" stroke:#000000; stroke-width:1; fill:#fff595; fill-opacity:100%"     class="TAG:polygon"></polygon>
    <polygon points="2 103.25 138.219 103.25 138.219 95.25 
     2 95.25 2 103.25 "
     style=" stroke:#000000; stroke-width:1; fill:#fff595; fill-opacity:100%"     class="TAG:polygon"></polygon>
    <polygon points="8.219 112.5 134.719 112.5 134.719 103.25 
     8.219 103.25 8.219 112.5 "
     style=" stroke:#000000; stroke-width:1; fill:#fff595; fill-opacity:100%"     class="TAG:polygon"></polygon>
    <polyline points="138.219 103.25 138.219 103.25 164.906 73.0313"
     style=" stroke:#000000; stroke-width:1;"     class="TAG:polyline"></polyline>
    <polyline points="138.719 94.75 138.719 94.75 157.906 72.7812"
     style=" stroke:#000000; stroke-width:1;"     class="TAG:polyline"></polyline>
    <polyline points="138.719 34.75 138.719 34.75 169.031 18.5"
     style=" stroke:#000000; stroke-width:1;"     class="TAG:polyline"></polyline>
    <polyline points="2.016 34.375 44.7034 22.5625"
     style=" stroke:#000000; stroke-width:1;"     class="TAG:polyline"></polyline>
    <polyline points="133.281 18.375 133.281 18.375 169.719 18.375"
     style=" stroke:#000000; stroke-width:1;"     class="TAG:polyline"></polyline>
    <polyline points="158.281 24.375 158.281 24.375 158.281 72.875"
     style=" stroke:#000000; stroke-width:1;"     class="TAG:polyline"></polyline>
    <polyline points="42.719 29 42.719 29 102.219 29"
     style=" stroke:#000000; stroke-width:1;"     class="TAG:polyline"></polyline>
    <polyline points="42.6565 29.0312 50.2424 5.0469"
     style=" stroke:#000000; stroke-width:1;"     class="TAG:polyline"></polyline>
    <polyline points="102.719 28.5 102.719 28.5 108.719 5"
     style=" stroke:#000000; stroke-width:1;"     class="TAG:polyline"></polyline>
    <polyline points="50.219 5 50.219 5 109.719 5"
     style=" stroke:#000000; stroke-width:1;"     class="TAG:polyline"></polyline>
    <polyline points="102.781 28.75 102.781 28.75 119.219 23.5"
     style=" stroke:#000000; stroke-width:1;"     class="TAG:polyline"></polyline>
    <polyline points="119.781 23 119.781 23 134.031 18"
     style=" stroke:#000000; stroke-width:1;"     class="TAG:polyline"></polyline>
    <polyline points="118.625 23.6875 118.625 23.6875 118.625 3"
     style=" stroke:#000000; stroke-width:1;"     class="TAG:polyline"></polyline>
    <polyline points="108.781 5 108.781 5 134.031 0.25"
     style=" stroke:#000000; stroke-width:1;"     class="TAG:polyline"></polyline>
    <polyline points="134.281 18 134.281 18 134.281 0.625"
     style=" stroke:#000000; stroke-width:1;"     class="TAG:polyline"></polyline>
    <polyline points="120.125 2.5 120.125 2.5 120.125 23.1875"
     style=" stroke:#000000; stroke-width:1;"     class="TAG:polyline"></polyline>
    <polyline points="50.219 5 50.219 5 90.7815 0.125"
     style=" stroke:#000000; stroke-width:1;"     class="TAG:polyline"></polyline>
    <polyline points="134.031 0 134.031 0 91.469 0"
     style=" stroke:#000000; stroke-width:1;"     class="TAG:polyline"></polyline>
    <polyline points="120.219 2.5 120.219 2.5 70.219 2.5"
     style=" stroke:#000000; stroke-width:1;"     class="TAG:polyline"></polyline>
    <polyline points="119.219 3 119.219 3 119.219 23.5625"
     style=" stroke:#000000; stroke-width:1;"     class="TAG:polyline"></polyline>
    <polyline points="119.625 2.6875 119.625 2.6875 119.625 23.1875"
     style=" stroke:#000000; stroke-width:1;"     class="TAG:polyline"></polyline>
    <polyline points="160.531 23 160.531 23 120.281 23"
     style=" stroke:#000000; stroke-width:1;"     class="TAG:polyline"></polyline>
    <polyline points="117.031 24.125 117.031 24.125 158.781 24.125"
     style=" stroke:#000000; stroke-width:1;"     class="TAG:polyline"></polyline>
    <polyline points="118.781 3 118.781 3 118.781 24"
     style=" stroke:#000000; stroke-width:1;"     class="TAG:polyline"></polyline>
    <polyline points="119.281 3 119.281 3 119.281 23.5"
     style=" stroke:#000000; stroke-width:1;"     class="TAG:polyline"></polyline>
    <polyline points="119.781 2.5 119.781 2.5 119.781 23.5"
     style=" stroke:#000000; stroke-width:1;"     class="TAG:polyline"></polyline>
    <polyline points="119.531 23.25 119.531 23.25 160.781 23.25"
     style=" stroke:#000000; stroke-width:1;"     class="TAG:polyline"></polyline>
    <polyline points="119.531 23.5 119.531 23.5 160.531 23.5"
     style=" stroke:#000000; stroke-width:1;"     class="TAG:polyline"></polyline>
    <polyline points="118.781 23.75 118.781 23.75 159.781 23.75"
     style=" stroke:#000000; stroke-width:1;"     class="TAG:polyline"></polyline>
    <polyline points="118.531 2.75 118.531 2.75 69.7815 2.75"
     style=" stroke:#000000; stroke-width:1;"     class="TAG:polyline"></polyline>
    <polyline points="117.531 3 117.531 3 67.5315 3"
     style=" stroke:#000000; stroke-width:1;"     class="TAG:polyline"></polyline>
    <polyline points="118.281 3 118.281 3 118.281 24"
     style=" stroke:#000000; stroke-width:1;"     class="TAG:polyline"></polyline>
    <polyline points="168.906 18.5 168.906 18.5 168.906 23.2812"
     style=" stroke:#000000; stroke-width:1;"     class="TAG:polyline"></polyline>
    <polyline points="174.531 34.75 174.531 34.75 174.531 82"
     style=" stroke:#000000; stroke-width:1;"     class="TAG:polyline"></polyline>
    <polyline points="170.781 53.75 170.781 53.75 170.703 81.9688"
     style=" stroke:#000000; stroke-width:1;"     class="TAG:polyline"></polyline>
    <polyline points="178.281 30.5 178.281 30.5 178.281 71.5"
     style=" stroke:#000000; stroke-width:1;"     class="TAG:polyline"></polyline>
    <polyline points="178.188 71.5937 177.385 76.6406 174.75 81.8438"
     style=" stroke:#000000; stroke-width:1;"     class="TAG:polyline"></polyline>
    <polyline points="177.531 63.75 177.531 63.75"
     style=" stroke:#000000; stroke-width:1;"     class="TAG:polyline"></polyline>
    <polyline points="174.344 81.875 174.344 81.875 170.594 81.875"
     style=" stroke:#000000; stroke-width:1;"     class="TAG:polyline"></polyline>
    <polyline points="170.594 73.625 170.594 73.625 174.344 73.625"
     style=" stroke:#000000; stroke-width:1;"     class="TAG:polyline"></polyline>
    <polyline points="174.094 37.375 174.094 37.375 174.094 73.625"
     style=" stroke:#000000; stroke-width:1;"     class="TAG:polyline"></polyline>
    <polyline points="173.844 39.375 173.844 39.375 173.844 73.625"
     style=" stroke:#000000; stroke-width:1;"     class="TAG:polyline"></polyline>
    <polyline points="173.547 42.8125 173.547 42.8125 173.547 73.625"
     style=" stroke:#000000; stroke-width:1;"     class="TAG:polyline"></polyline>
    <polyline points="173.406 44.5312 173.406 44.5312 173.406 73.5312"
     style=" stroke:#000000; stroke-width:1;"     class="TAG:polyline"></polyline>
    <polyline points="173.156 45.2812 173.156 45.2812 173.156 73.5312"
     style=" stroke:#000000; stroke-width:1;"     class="TAG:polyline"></polyline>
    <polyline points="172.906 48.2812 172.906 48.2812 172.906 73.5312"
     style=" stroke:#000000; stroke-width:1;"     class="TAG:polyline"></polyline>
    <polyline points="172.656 49.2812 172.656 49.2812 172.656 73.5312"
     style=" stroke:#000000; stroke-width:1;"     class="TAG:polyline"></polyline>
    <polyline points="172.406 50.7812 172.406 50.7812 172.406 73.2812"
     style=" stroke:#000000; stroke-width:1;"     class="TAG:polyline"></polyline>
    <polyline points="172.156 51.2812 172.156 51.2812 172.156 73.7812"
     style=" stroke:#000000; stroke-width:1;"     class="TAG:polyline"></polyline>
    <polyline points="171.906 51.7812 171.906 51.7812 171.906 73.5312"
     style=" stroke:#000000; stroke-width:1;"     class="TAG:polyline"></polyline>
    <polyline points="171.656 52.5312 171.656 52.5312 171.656 73.5312"
     style=" stroke:#000000; stroke-width:1;"     class="TAG:polyline"></polyline>
    <polyline points="174.156 36.2812 174.156 36.5312 174.156 73.5312"
     style=" stroke:#000000; stroke-width:1;"     class="TAG:polyline"></polyline>
    <polyline points="171.406 73.5312 171.406 73.5312 171.406 52.7812"
     style=" stroke:#000000; stroke-width:1;"     class="TAG:polyline"></polyline>
    <polyline points="171.156 73.7812 171.156 73.7812 171.156 52.7812"
     style=" stroke:#000000; stroke-width:1;"     class="TAG:polyline"></polyline>
    <polyline points="170.906 73.7812 170.906 73.7812 170.906 53.5312"
     style=" stroke:#000000; stroke-width:1;"     class="TAG:polyline"></polyline>
    <polyline points="160.906 22.7812 160.906 22.7812 169.906 23.5312 
     174.656 25.5312 178.156 29.7812 177.906 32.7812 175.406 34.7812"
     style=" stroke:#000000; stroke-width:1;"     class="TAG:polyline"></polyline>
    <polyline points="158.156 27.0312 158.156 27.0312 164.656 27.7812 
     169.656 29.2812 172.656 32.0312 174.156 36.7812 173.406 44.5312 
     172.406 50.7812 170.656 53.7812"
     style=" stroke:#000000; stroke-width:1;"     class="TAG:polyline"></polyline>
    <polyline points="158.156 72.5312 158.156 72.5312 162.656 72.7812 
     167.89 73.5312 170.672 75.125"
     style=" stroke:#000000; stroke-width:1;"     class="TAG:polyline"></polyline>
    <polyline points="134.625 112.438 167.766 73.5625"
     style=" stroke:#000000; stroke-width:1;"     class="TAG:polyline"></polyline>
    <polygon points="121.031 101.531 132.531 101.531 132.531 99.0313 
     121.031 99.0313 121.031 101.531 "
     style=" stroke:#000000; stroke-width:1; fill:#fff595; fill-opacity:100%"     class="TAG:polygon"></polygon>
    <polygon points="12.5315 102.031 24.0315 102.031 24.0315 99.0313 
     12.5315 99.0313 12.5315 102.031 "
     style=" stroke:#000000; stroke-width:1; fill:#fff595; fill-opacity:100%"     class="TAG:polygon"></polygon>
    <g>
      <desc>METIS_TEXT_GROUP</desc>
      <text  x="0" y="140.25"
       style=" stroke:#000000; stroke-width:1; font-family:sans-serif; font-size:18; text-align:center"
       class="TAG:text">text</text>
      <rect x="0" y="122.25" width="176" height="64.2747"
       style=" stroke:#000000; stroke-width:1; fill:#000000; fill-opacity:0%"></rect>
    </g>
  </symbol>
 </defs>
</svg>
