<?xml version="1.0"?>
<?metis version="3.1"?>
<?metisxml version="1.0"?>
<!DOCTYPE svg  PUBLIC "-//W3C//DTD SVG August 1999//EN"
 "http://www.w3.org/Graphics/SVG/svg-19990812.dtd">

<svg width="200" height="200">
 <title>Symbol library: phy_it_tech_comp.svg</title>
 <defs>
  <symbol id="oid0" xml:space="preserve" class="METIS_SYMBOL">
   <title>Physical IT Tech comp</title>
    <g>
      <polygon points="0 0 0 304 16.2963 320 
       880 320 880 16 863.704 0 0 0 
       0 0 0 0 0 0 0 0 
       0 0 0 0 0 0 0 0 
       0 0 0 0 0 0 0 0 "
       style=" stroke:#000000; stroke-width:1; fill:#9b9b9b; fill-opacity:100%"       class="TAG:shadow"></polygon>
      <rect x="0" y="0" width="240" height="304"
       style=" stroke:#000000; stroke-width:1; fill:#ffffff; fill-opacity:100%"       class="TAG:PictureBackground"></rect>
      <rect x="240" y="0" width="624" height="304"
       style=" stroke:#000000; stroke-width:1; fill:#ffffff; fill-opacity:100%"       class="TAG:canvas"></rect>
      <g>
	<desc>METIS_TEXT_GROUP</desc>
	<text  x="256" y="15.8"
	 style=" stroke:#000000; stroke-width:1; font-family:sans-serif; font-size:16;"
	 class="TAG:text">text</text>
	<rect x="256" y="0" width="608" height="304"
	 style=" stroke:#000000; stroke-width:1; fill:#ffffff; fill-opacity:0%"></rect>
      </g>
      <polyline points="880 320 864 304"
       style=" stroke:#000000; stroke-width:1;"></polyline>
      <g>
	<polygon points="0 0 0 76 120 0 
	 120 0 0 0 0 0 0 0 0 0 "
	 style=" stroke:#000000; stroke-width:1; fill:#ffffff; fill-opacity:100%"></polygon>
	<polygon points="0 76 0 152 240 0 
	 120 0 0 76 0 76 0 76 0 76 "
	 style=" stroke:#000000; stroke-width:1; fill:#9b9b9b; fill-opacity:100%"></polygon>
	<polygon points="0 152 0 228 240 76 
	 240 0 0 152 0 152 0 152 0 152 "
	 style=" stroke:#000000; stroke-width:1; fill:#4b4bff; fill-opacity:100%"></polygon>
	<polygon points="0 228 0 304 240 152 
	 240 76 0 228 0 228 0 228 0 228 "
	 style=" stroke:#000000; stroke-width:1; fill:#ffffff; fill-opacity:100%"></polygon>
	<polygon points="0 304 24 304 120 304 
	 240 228 240 152 0 304 0 304 
	 0 304 0 304 "
	 style=" stroke:#000000; stroke-width:1; fill:#9b9b9b; fill-opacity:100%"></polygon>
	<polygon points="120 304 168 304 240 304 
	 240 228 120 304 120 304 120 304 120 304 "
	 style=" stroke:#000000; stroke-width:1; fill:#4b4bff; fill-opacity:100%"></polygon>
      </g>
      <polygon points="96 75.3627 96 50.3475 96 25.3333 
       102.809 25.3333 109.239 25.3333 109.239 50.3475 109.239 75.3627 
       102.809 75.3627 96 75.3627 96 75.3627 96 75.3627 
       96 75.3627 96 75.3627 96 75.3627 96 75.3627 "
       style=" stroke:#000000; stroke-width:1; fill:#ff5050; fill-opacity:100%"></polygon>
      <polygon points="136.223 75.3627 136.223 54.4842 136.223 33.8027 
       126.591 33.8027 116.962 33.8027 116.962 29.6661 116.962 25.3333 
       142.518 25.3333 168.449 25.3333 168.449 29.6661 168.449 33.8027 
       158.817 33.8027 149.187 33.8027 149.187 54.4842 149.187 75.3627 
       142.518 75.3627 136.223 75.3627 136.223 75.3627 136.223 75.3627 
       136.223 75.3627 136.223 75.3627 136.223 75.3627 136.223 75.3627 "
       style=" stroke:#000000; stroke-width:1; fill:#ff5050; fill-opacity:100%"></polygon>
      <polygon points="66 171 66 145.766 66 120.333 
       91.1634 120.333 116.324 120.333 116.324 124.538 116.324 128.945 
       98.1309 128.945 79.5495 128.945 79.5495 134.552 79.5495 140.159 
       96.5827 140.159 113.616 140.159 113.616 144.365 113.616 148.77 
       96.5827 148.77 79.5495 148.77 79.5495 162.589 98.5183 162.589 
       117.487 162.589 117.487 171 91.9386 171 66 171 
       66 171 66 171 66 171 66 171 
       66 171 66 171 "
       style=" stroke:#000000; stroke-width:1; fill:#ff5050; fill-opacity:100%"></polygon>
      <polygon points="25.2609 170.363 25.2609 149.484 25.2609 128.803 
       15.6294 128.803 6 128.803 6 124.666 6 120.333 
       31.5564 120.333 57.4869 120.333 57.4869 124.666 57.4869 128.803 
       47.8554 128.803 38.2254 128.803 38.2254 149.484 38.2254 170.363 
       31.5564 170.363 25.2609 170.363 25.2609 170.363 25.2609 170.363 
       25.2609 170.363 25.2609 170.363 25.2609 170.363 25.2609 170.363 "
       style=" stroke:#000000; stroke-width:1; fill:#ff5050; fill-opacity:100%"></polygon>
      <polygon points="166.084 151.786 171.959 153.247 177.488 154.71 
       176.105 158.515 174.031 161.731 171.267 164.364 168.503 166.56 
       165.047 168.167 161.592 169.338 157.445 170.071 152.953 170.363 
       150.189 170.216 147.424 169.925 145.005 169.485 142.586 168.9 
       140.167 168.022 138.094 166.999 136.021 165.827 134.293 164.364 
       130.838 160.563 128.073 156.173 127.037 153.834 126.691 151.346 
       126 148.566 126 145.786 126 142.714 126.691 139.936 
       127.037 137.156 128.073 134.671 129.11 132.329 130.838 130.136 
       132.22 128.234 134.293 126.331 136.366 125.016 138.094 123.698 
       140.513 122.675 142.932 121.796 145.351 121.212 148.115 120.773 
       150.879 120.481 153.644 120.333 158.481 120.627 162.974 121.506 
       165.047 122.09 167.121 122.821 168.848 123.845 170.576 124.87 
       172.649 126.771 174.723 128.965 176.105 131.599 177.488 134.523 
       171.612 135.694 165.738 136.718 165.047 134.963 164.01 133.354 
       162.629 131.891 161.245 130.72 159.518 129.843 157.445 129.257 
       155.372 128.819 153.298 128.673 150.189 128.965 147.078 129.696 
       144.66 130.866 142.586 132.475 141.55 133.5 140.859 134.671 
       140.167 136.134 139.476 137.597 139.131 139.204 138.785 141.107 
       138.44 143.008 138.44 145.202 138.44 147.397 138.785 149.445 
       139.131 151.2 139.476 152.955 139.822 154.564 140.513 155.881 
       141.55 157.052 142.241 158.075 144.314 159.83 147.078 161.001 
       149.843 161.731 152.953 162.026 155.372 161.878 157.445 161.438 
       159.173 160.563 160.9 159.538 162.629 158.075 164.01 156.319 
       165.047 154.272 166.084 151.786 166.084 151.786 166.084 151.786 
       166.084 151.786 166.084 151.786 166.084 151.786 166.084 151.786 166.084 151.786 "
       style=" stroke:#000000; stroke-width:1; fill:#ff5050; fill-opacity:100%"></polygon>
      <polygon points="186 170.363 186 120.333 192.387 120.333 
       198.777 120.333 198.777 130.187 198.777 140.042 211.555 140.042 
       224.333 140.042 224.333 130.187 224.333 120.333 231.098 120.333 
       237.487 120.333 237.487 170.363 231.098 170.363 224.333 170.363 
       224.333 148.531 211.555 148.531 198.777 148.531 198.777 170.363 
       192.387 170.363 186 170.363 186 170.363 186 170.363 
       186 170.363 186 170.363 186 170.363 186 170.363 186 170.363 "
       style=" stroke:#000000; stroke-width:1; fill:#ff5050; fill-opacity:100%"></polygon>
      <polygon points="45.9824 240.326 51.7355 241.886 57.4869 243.444 
       56.0502 247.185 54.036 250.458 51.4475 253.107 48.5709 255.289 
       45.1184 257.004 41.3795 258.094 37.3526 258.873 33.0378 259.03 
       30.1613 258.873 27.5727 258.718 24.984 258.25 22.3955 257.471 
       20.3813 256.692 18.0807 255.601 16.0665 254.355 14.3417 252.952 
       12.3275 251.237 10.6012 249.21 9.45089 247.185 8.01257 244.847 
       6.57441 240.016 6 234.405 6 231.444 6.57441 228.638 
       7.15029 225.832 8.01257 223.339 9.45089 221 10.6012 218.975 
       12.3275 216.948 14.3417 215.078 16.0665 213.676 18.0807 212.428 
       20.3813 211.337 22.6835 210.558 25.2722 209.936 27.8607 209.312 
       30.7371 209.155 33.6138 209 38.5029 209.312 42.8178 210.091 
       46.8445 211.494 50.2971 213.52 52.5977 215.39 54.324 217.572 
       56.0502 220.221 57.4869 223.182 51.4475 224.43 45.6944 225.521 
       44.832 223.651 43.9682 222.093 42.5298 220.69 41.0915 219.442 
       39.3669 218.506 37.3526 217.884 35.3384 217.415 33.0378 217.26 
       29.8733 217.572 26.9982 218.351 24.696 219.442 22.3955 221.157 
       21.5315 222.248 20.6693 223.339 20.0933 224.742 19.5189 226.144 
       18.9429 227.859 18.6566 229.729 18.3687 231.599 18.3687 233.781 
       18.3687 235.963 18.6566 237.989 18.9429 239.859 19.2309 241.574 
       19.8068 243.132 20.6693 244.535 21.5315 245.626 22.3955 246.717 
       24.408 248.431 26.9982 249.677 29.5869 250.458 32.7498 250.613 
       35.052 250.458 37.3526 249.989 39.0789 249.21 40.8051 248.119 
       42.5298 246.717 43.9682 245.002 45.1184 242.82 45.9824 240.326 
       45.9824 240.326 45.9824 240.326 45.9824 240.326 45.9824 240.326 
       45.9824 240.326 45.9824 240.326 45.9824 240.326 "
       style=" stroke:#000000; stroke-width:1; fill:#ff5050; fill-opacity:100%"></polygon>
      <g>
	<polygon points="66 234.248 66.2591 230.196 66.7756 226.456 
	 67.8104 223.027 69.3632 220.066 71.1748 217.415 73.5033 215.234 
	 75.8318 213.364 78.4193 211.806 81.2657 210.558 84.3696 209.779 
	 87.9918 209.155 91.614 209 94.4604 209.155 97.0479 209.467 
	 99.6354 209.936 102.223 210.715 104.292 211.494 106.361 212.74 
	 108.432 213.988 110.243 215.545 112.055 217.26 113.348 219.13 
	 114.642 221.157 115.677 223.339 116.452 225.832 116.97 228.326 
	 117.487 230.975 117.487 233.936 117.487 236.898 116.97 239.704 
	 116.452 242.353 115.677 244.847 114.642 247.028 113.348 249.21 
	 111.795 251.237 109.985 252.952 108.173 254.355 106.361 255.601 
	 104.292 256.692 102.223 257.471 99.6354 258.25 97.307 258.718 
	 94.7194 258.873 91.8731 259.03 89.0265 258.873 86.4391 258.718 
	 83.8531 258.25 81.5232 257.471 79.1947 256.692 77.1255 255.601 
	 75.3136 254.355 73.5033 252.952 71.6915 251.237 70.1402 249.21 
	 69.1039 247.185 67.8104 244.847 67.0347 242.508 66.5166 239.859 
	 66 237.21 66 234.248 66 234.248 66 234.248 
	 66 234.248 66 234.248 66 234.248 66 234.248 
	 66 234.248 66 234.248 "
	 style=" stroke:#000000; stroke-width:1; fill:#ff5050; fill-opacity:100%"></polygon>
	<polygon points="75.5858 233.592 75.8783 237.617 76.7536 241.158 
	 78.2141 244.055 80.259 246.47 82.8873 248.401 85.5155 249.689 
	 88.7283 250.493 92.232 250.816 95.7375 250.493 98.6564 249.689 
	 101.577 248.401 103.914 246.47 105.958 244.055 107.418 241.158 
	 108.295 237.617 108.586 233.432 108.295 229.408 107.418 225.867 
	 106.25 222.97 104.207 220.555 101.577 218.785 98.9485 217.498 
	 95.7375 216.693 92.232 216.37 88.7283 216.693 85.5155 217.498 
	 82.5948 218.785 79.9667 220.717 77.9217 223.131 76.7536 226.029 
	 75.8783 229.569 75.5858 233.592 75.5858 233.592 75.5858 233.592 
	 75.5858 233.592 75.5858 233.592 75.5858 233.592 75.5858 233.592 
	 75.5858 233.592 75.5858 233.592 "
	 style=" stroke:#000000; stroke-width:1; fill:#ffffa5; fill-opacity:6%"></polygon>
      </g>
      <polygon points="126 259.03 126 234.015 126 209 
       134.02 209 142.041 209 146.957 226.106 151.613 243.214 
       156.529 226.106 161.189 209 177.488 209 177.488 234.015 
       177.488 259.03 167.399 259.03 167.399 239.34 167.399 219.651 
       162.222 239.34 156.789 259.03 151.613 259.03 146.439 259.03 
       141.265 239.34 136.091 219.651 136.091 239.34 136.091 259.03 
       126 259.03 126 259.03 126 259.03 126 259.03 
       126 259.03 126 259.03 126 259.03 126 259.03 "
       style=" stroke:#000000; stroke-width:1; fill:#ff5050; fill-opacity:100%"></polygon>
      <polygon points="186 259.03 186 234.015 186 209 
       197.079 209 207.834 209 213.373 209 217.937 209.162 
       221.522 209.485 223.8 209.807 226.733 210.613 229.341 211.582 
       231.621 213.034 233.578 214.649 235.206 216.747 236.508 219.007 
       237.162 221.587 237.487 224.493 237.162 227.075 236.508 229.496 
       235.533 231.594 234.228 233.531 232.273 235.305 230.318 236.598 
       228.036 237.888 225.756 238.695 222.824 239.34 218.913 239.824 
       214.023 239.986 208.485 240.147 199.686 240.147 199.686 259.03 
       186 259.03 186 259.03 186 259.03 186 259.03 
       186 259.03 186 259.03 186 259.03 186 259.03 186 259.03 "
       style=" stroke:#000000; stroke-width:1; fill:#ff5050; fill-opacity:100%"></polygon>
      <polygon points="200.562 216.871 200.562 223.058 200.562 229.248 
       204.045 229.248 207.844 229.248 211.329 229.248 213.863 229.107 
       216.077 228.966 217.661 228.686 220.194 227.842 222.093 226.575 
       223.361 225.028 223.676 223.058 223.676 221.934 223.361 221.09 
       222.093 219.402 219.879 218.136 217.661 217.292 216.077 217.151 
       213.863 217.01 210.696 216.871 206.895 216.871 203.729 216.871 
       200.562 216.871 200.562 216.871 200.562 216.871 200.562 216.871 
       200.562 216.871 200.562 216.871 200.562 216.871 200.562 216.871 200.562 216.871 "
       style=" stroke:#000000; stroke-width:1; fill:#9b9b9b; fill-opacity:100%"></polygon>
    </g>
  </symbol>
 </defs>
</svg>
