<?xml version="1.0"?>
<?metis version="3.1"?>
<?metisxml version="1.0"?>
<!DOCTYPE svg  PUBLIC "-//W3C//DTD SVG August 1999//EN"
 "http://www.w3.org/Graphics/SVG/svg-19990812.dtd">

<svg width="200" height="200">
 <title>Symbol library: physical_datastore.svg</title>
 <defs>
  <symbol id="oid0" xml:space="preserve" class="METIS_SYMBOL">
   <title>Untitled</title>
    <polygon points="5.12162 21.3899 7.17029 19.0133 10.2432 16.6366 
     24.5838 12.4774 47.1189 8.31832 75.7998 5.34746 109.603 2.97082 
     146.478 1.18834 187.451 0.594163 228.424 0 270.421 0.594163 
     310.37 1.18834 348.27 2.97082 382.073 5.34746 410.754 8.31832 
     432.264 12.4774 446.605 16.6366 451.726 21.3899 451.726 71.2998 
     451.726 141.411 451.75 141.509 451.75 157.359 451.726 157.454 
     451.726 219.841 451.726 278.663 451.75 278.707 451.75 294.049 
     451.726 294.111 451.726 297.676 451.726 301.242 451.726 308.372 
     451.726 314.907 451.726 322.037 451.726 328.573 451.726 335.703 
     451.726 342.833 451.726 349.369 451.726 356.499 451.726 363.035 
     451.726 370.165 451.726 377.295 451.726 383.83 451.726 390.96 
     451.726 398.09 451.726 404.626 453.775 405.814 455.824 407.597 
     456.848 409.379 456.848 411.756 456.848 413.538 455.824 415.321 
     453.775 417.103 451.726 418.886 447.629 420.074 444.556 421.857 
     436.362 424.234 427.143 427.204 416.9 430.175 406.656 432.552 
     394.364 434.928 382.073 437.305 367.732 439.682 353.391 441.464 
     338.027 443.247 321.637 444.435 304.224 445.623 286.811 446.812 
     267.348 447.406 247.886 448 227.4 448 217.157 448 
     206.913 448 186.427 447.406 166.965 446.218 147.503 445.029 
     129.065 443.247 111.651 441.464 95.2618 439.682 78.8732 437.305 
     64.5324 434.928 51.2161 432.552 39.9486 430.175 29.7054 427.799 
     20.4864 425.422 13.3162 423.045 8.19455 420.669 5.12162 418.886 
     4.09728 417.697 3.07295 416.51 2.04861 415.321 1.02435 414.133 
     1.02435 412.945 0 411.756 0 409.973 0 408.191 
     1.02435 406.408 3.07295 405.22 5.12162 404.626 5.12162 294.111 
     5.04309 294.079 5.04309 278.739 5.12162 278.663 5.12162 219.841 
     5.12162 157.454 5.04309 157.38 5.04309 141.472 5.12162 141.411 
     5.12162 71.2998 5.12162 21.3899 5.12162 21.3899 5.12162 21.3899 "
     style=" stroke:#000000; stroke-width:1; fill:#b9b9b9; fill-opacity:100%"></polygon>
    <polyline points="451.744 21.6433 451.744 23.552 450.72 25.4607 
     446.623 29.2781 441.501 32.1412 434.33 35.9586 425.11 38.8217 
     413.842 41.6848 401.549 44.5479 387.208 46.4565 370.817 48.3653 
     354.427 51.2283 335.988 52.1827 316.525 54.0913 296.036 55.046 
     274.524 56 253.012 56 230.475 56 218.182 56 
     206.914 56 184.377 56 163.89 55.046 143.401 54.0913 
     122.913 53.137 104.475 51.2283 87.0593 49.3196 71.6936 47.4109 
     56.3278 45.5022 44.0351 42.6391 31.7423 39.776 22.5227 36.913 
     15.3519 34.0499 9.20555 31.1869 6.1324 27.3694 5.10799 23.552"
     style=" stroke:#000000; stroke-width:1;"></polyline>
    <polyline points="451.744 396.014 451.744 397.347 450.72 399.346 
     446.623 402.012 441.501 404.677 434.33 407.343 425.11 410.675 
     413.842 413.341 401.549 416.673 387.208 419.339 370.817 422.004 
     354.427 424.67 335.988 426.669 316.525 428.669 296.036 430.001 
     274.524 431.334 253.012 432 230.475 432 218.182 432 
     206.914 432 185.402 431.334 163.89 430.001 143.401 428.669 
     123.938 426.669 104.475 424.67 88.0841 422.671 71.6936 420.005 
     57.3522 417.339 44.0351 414.673 32.7667 412.008 23.5471 408.676 
     15.3519 406.01 10.23 403.344 7.15681 400.013 5.10799 398.013"
     style=" stroke:#000000; stroke-width:1;"></polyline>
    <polyline points="20.4387 26.0409 21.4633 29.1779 25.5616 31.5307 
     30.6845 33.8834 38.881 35.452 48.1021 37.8047 58.3478 39.3732 
     71.6671 40.9418 84.9862 42.5102 100.355 44.0788 116.748 44.863 
     133.142 45.6473 151.584 46.4315 170.027 47.2158 188.468 47.2158 
     207.935 48 227.402 48 246.869 48 266.336 47.2158 
     285.802 47.2158 303.22 46.4315 321.662 45.6473 339.08 44.863 
     355.473 43.2945 370.842 42.5102 384.162 40.9418 397.481 39.3732 
     407.727 37.8047 417.972 35.452 425.144 33.0992 431.292 31.5307 
     434.365 29.1779 436.414 26.0409 434.365 24.4724 431.292 22.1196 
     426.168 20.5511 418.997 18.1984 410.8 17.4141 401.579 15.0613 
     390.308 14.277 378.014 12.7085 365.719 11.14 351.375 10.3558 
     336.007 8.78728 320.638 8.00301 304.245 8.00301 286.827 7.21875 
     270.434 6.43448 251.992 6.43448 234.574 6.43448 216.132 6.43448 
     198.714 6.43448 181.297 6.43448 163.879 7.21875 146.461 8.00301 
     130.068 8.78728 114.699 10.3558 99.3304 11.14 83.9621 12.7085 
     70.6426 14.277 58.3478 16.6298 47.0775 18.1984 36.8319 21.3354 
     27.6107 23.6881 20.4387 26.0409 20.4387 26.0409 20.4387 26.0409"
     style=" stroke:#000000; stroke-width:1;"></polyline>
    <g>
      <desc>METIS_TEXT_GROUP</desc>
      <text  x="32" y="76.8"
       style=" stroke:#000000; stroke-width:1; font-family:sans-serif; font-size:13;"
       class="TAG:text">text</text>
      <rect x="32" y="64" width="384" height="352"
       style=" stroke:#000000; stroke-width:1; fill:#ffffff; fill-opacity:0%"></rect>
    </g>
  </symbol>
 </defs>
</svg>
