<?xml version="1.0"?>
<?metis version="3.1"?>
<?metisxml version="1.0"?>
<!DOCTYPE svg  PUBLIC "-//W3C//DTD SVG August 1999//EN"
 "http://www.w3.org/Graphics/SVG/svg-19990812.dtd">

<svg width="200" height="200">
 <title>Symbol library: physical_flow.svg</title>
 <defs>
  <symbol id="oid0" xml:space="preserve" class="METIS_SYMBOL">
   <title>Physical Flow</title>
    <g>
      <polygon points="0 0 0 304 16.2963 320 
       880 320 880 16 863.704 0 0 0 
       0 0 0 0 0 0 0 0 
       0 0 0 0 0 0 0 0 "
       style=" stroke:#000000; stroke-width:1; fill:#9b9b9b; fill-opacity:100%"       class="TAG:shadow"></polygon>
      <rect x="0" y="0" width="240" height="304"
       style=" stroke:#000000; stroke-width:1; fill:#ffffa5; fill-opacity:100%"       class="TAG:PictureBackground"></rect>
      <rect x="240" y="0" width="624" height="304"
       style=" stroke:#000000; stroke-width:1; fill:#ffffff; fill-opacity:100%"       class="TAG:canvas"></rect>
      <g>
	<desc>METIS_TEXT_GROUP</desc>
	<text  x="256" y="15.8"
	 style=" stroke:#000000; stroke-width:1; font-family:sans-serif; font-size:16;"
	 class="TAG:text">text</text>
	<rect x="256" y="0" width="608" height="304"
	 style=" stroke:#000000; stroke-width:1; fill:#ffffff; fill-opacity:0%"></rect>
      </g>
      <polyline points="864 304 880 320"
       style=" stroke:#000000; stroke-width:1;"></polyline>
      <g>
	<polygon points="47.3041 32 194.087 32 224 77.1201 
	 224 272 16 272 16 76.7999 47.3041 32 
	 47.3041 32 47.3041 32 47.3041 32 "
	 style=" stroke:#000000; stroke-width:1; fill:#ffffff; fill-opacity:100%"></polygon>
	<polygon points="35.793 77.0599 206.985 77.0599 193.067 53.4114 
	 49.0152 53.4114 35.793 77.0599 35.793 77.0599 35.793 77.0599 35.793 77.0599 "
	 style=" stroke:#000000; stroke-width:1; fill:#ababab; fill-opacity:100%"></polygon>
	<polyline points="193.049 33.2783 49.0365 33.6002 21.5559 77.3796 
	 219.486 77.3796 193.049 33.6002"
	 style=" stroke:#000000; stroke-width:1;"></polyline>
	<polyline points="16 109.656 223.653 109.656"
	 style=" stroke:#000000; stroke-width:1;"></polyline>
	<polyline points="16 78.3382 223.653 78.3382"
	 style=" stroke:#000000; stroke-width:1;"></polyline>
	<polyline points="16 234.929 223.653 234.929"
	 style=" stroke:#000000; stroke-width:1;"></polyline>
	<polyline points="16 233.331 223.653 233.331"
	 style=" stroke:#000000; stroke-width:1;"></polyline>
	<polyline points="146.912 63.3182 144.788 63.9752 142.31 64.9605 
	 139.833 66.2743 137.002 67.9166 134.17 69.5587 131.693 71.5293 
	 129.923 73.1718 128.507 75.1424"
	 style=" stroke:#ffffff; stroke-width:1;"></polyline>
	<polyline points="144.828 69.39 142.664 70.3968 139.78 72.0744 
	 137.255 74.0878 135.452 76.101"
	 style=" stroke:#ffffff; stroke-width:1;"></polyline>
	<polyline points="92.3942 54.3702 88.5294 55.6746 84.6648 57.305 
	 80.8002 58.9354 76.9354 60.5662 73.4222 62.5228 69.5574 64.8053 
	 66.0442 67.414 62.531 70.3489"
	 style=" stroke:#ffffff; stroke-width:1;"></polyline>
	<polyline points="98.6445 55.968 94.4333 57.9175 89.871 59.8668 
	 85.6596 61.8163 81.4485 64.4156 77.5879 66.6897 73.377 69.6138 
	 69.5164 72.5381 65.6561 75.4621"
	 style=" stroke:#ffffff; stroke-width:1;"></polyline>
	<polyline points="48.9884 53.731 48.9884 33.2783"
	 style=" stroke:#000000; stroke-width:1;"></polyline>
	<polyline points="127.118 32.9587 118.409 34.5679 113.531 35.5334 
	 109.002 36.499 104.473 37.7864 99.9441 38.7519 95.7635 39.7174 
	 91.5829 41.0048 87.4024 42.2921 78.3441 45.1887 69.983 48.0853 
	 61.6216 51.6255 53.6086 55.8096 45.9441 60.3153 38.2797 65.1431 
	 30.2668 70.9359 21.2087 78.3382"
	 style=" stroke:#000000; stroke-width:1;"></polyline>
	<polyline points="114.618 32.6391 109.738 33.6059 105.206 34.5725 
	 100.675 35.5393 96.1433 36.506 91.9604 37.7949 87.7777 39.0839 
	 83.595 40.0505 74.5319 42.9507 66.1663 46.173 57.8006 49.7176 
	 49.7837 53.5845 42.1149 58.0957 34.0978 63.2516 26.4293 68.7296 
	 23.2921 71.3075"
	 style=" stroke:#000000; stroke-width:1;"></polyline>
	<polyline points="99.6861 32.9587 92.3591 34.5738 88.1719 35.5428 
	 83.9849 36.8348 79.798 38.1269 70.7264 41.034 62.3522 43.941 
	 53.9783 47.4941 45.9531 51.6933 38.2771 56.2154 27.1118 62.9985"
	 style=" stroke:#000000; stroke-width:1;"></polyline>
	<polyline points="90.3107 32.6391 86.1192 33.6106 81.9275 34.906 
	 77.3871 36.2013 68.6549 38.792 60.2717 42.0303 51.889 45.5926 
	 43.8553 49.8024 35.8216 54.0122 30.9315 56.9268"
	 style=" stroke:#000000; stroke-width:1;"></polyline>
	<polyline points="72.9482 32.9587 63.4771 36.2288 54.7071 39.4988 
	 46.6389 43.0959 38.571 47.02"
	 style=" stroke:#000000; stroke-width:1;"></polyline>
	<polyline points="67.0451 32.6391 61.7652 34.2903 52.9649 37.5926 
	 44.869 41.225 41.3489 42.5459"
	 style=" stroke:#000000; stroke-width:1;"></polyline>
	<polyline points="60.1004 32.6391 51.5927 35.6591 43.0852 39.3502"
	 style=" stroke:#000000; stroke-width:1;"></polyline>
	<polyline points="79.1987 33.5979 74.9998 34.8978 65.9027 37.4977 
	 57.5051 40.7476 49.1078 44.3225 41.0601 48.5474 33.3623 52.7723"
	 style=" stroke:#000000; stroke-width:1;"></polyline>
	<polyline points="70.1705 48.2144 48.9884 33.5979 58.5204 53.4114"
	 style=" stroke:#000000; stroke-width:1;"></polyline>
	<polyline points="83.2564 43.8242 48.9884 33.2783 98.9918 39.2104"
	 style=" stroke:#000000; stroke-width:1;"></polyline>
	<polyline points="47.5621 59.397 49.3355 33.2783 32.6678 69.0706"
	 style=" stroke:#000000; stroke-width:1;"></polyline>
	<polyline points="192.748 53.731 192.748 33.2783"
	 style=" stroke:#000000; stroke-width:1;"></polyline>
	<polyline points="194.092 36.8176 193.743 36.4953 193.743 35.8508 
	 193.743 35.5286 193.743 35.2064 193.393 34.8841 193.393 34.5619 
	 193.393 34.2397 193.393 33.9174 190.249 36.8176 185.707 40.0399 
	 180.815 43.5845 175.575 46.4846 170.683 49.3847 166.141 51.6404 
	 161.948 53.5738 159.153 54.8627 157.406 55.8296 155.659 56.474 
	 153.912 57.4407 152.165 58.0852 150.069 59.0516 148.322 59.6962 
	 146.575 60.6631 144.828 61.3074 145.876 61.3074 147.274 61.6296 
	 148.671 61.6296 150.069 61.952 151.466 62.2741 152.515 62.9186 
	 153.563 63.5629 154.262 64.5299 154.611 65.1744 154.611 65.819 
	 154.611 66.1409 154.262 66.7854 154.262 67.4299 153.912 68.0745 
	 153.912 68.3966 153.563 69.0409 155.659 68.0745 157.755 67.4299 
	 159.852 66.7854 161.948 66.7854 163.695 66.7854 165.442 67.7521 
	 166.49 68.7188 167.189 70.6524 168.237 70.0079 169.635 69.0409 
	 171.382 68.3966 173.129 67.7521 175.225 67.4299 176.972 68.0745 
	 178.719 69.3633 180.116 72.2634 181.165 70.9746 182.213 69.6855 
	 183.61 69.0409 185.357 68.3966 187.105 68.3966 188.851 69.0409 
	 190.249 70.33 191.297 72.2634 192.345 70.6524 193.393 69.6855 
	 195.14 69.0409 196.538 69.0409 198.285 69.3633 199.682 70.0079 
	 200.73 71.2967 201.429 72.5858 200.73 68.0745 199.682 63.5629 
	 198.634 59.0516 197.586 54.5406 196.887 50.3514 195.839 45.8401 
	 194.791 41.3289 194.092 36.8176 194.092 36.8176 194.092 36.8176"
	 style=" stroke:#000000; stroke-width:1;"></polyline>
	<polyline points="153.857 69.0436 156.309 66.7879 159.111 64.8545 
	 161.914 62.5987 164.716 60.3427 167.169 58.0869 169.971 55.8312 
	 172.423 53.8975 175.226 51.6417 177.328 49.3859 179.78 47.4523 
	 182.232 45.1966 184.685 42.9407 186.787 41.0072 189.239 38.7513 
	 191.341 36.4955 193.443 33.9174 191.341 72.2663"
	 style=" stroke:#000000; stroke-width:1;"></polyline>
	<polyline points="180.071 71.9466 193.443 33.9174 167.052 70.6576"
	 style=" stroke:#000000; stroke-width:1;"></polyline>
	<polyline points="153.162 57.566 154.911 57.9006 156.311 58.2353 
	 157.36 58.5704 158.06 59.2399 159.109 59.5745 159.809 60.244 
	 160.858 61.2487 161.908 62.5879 163.657 62.2528 165.056 61.9182 
	 166.106 61.9182 167.156 61.9182 168.205 61.9182 169.254 62.2528 
	 170.654 62.9226 172.403 63.5921 174.152 63.2574 175.552 62.5879 
	 176.601 62.5879 177.65 62.5879 178.7 62.5879 179.75 63.2574 
	 181.149 63.5921 182.898 64.2618 184.298 63.927 185.347 63.2574 
	 186.397 63.2574 187.096 63.2574 188.146 63.2574 189.195 63.5921 
	 190.245 63.927 191.644 64.5967 193.044 63.927 194.093 63.5921 
	 195.143 63.2574 196.192 63.2574 196.892 63.2574 197.941 63.5921 
	 198.991 63.927 200.04 64.5967"
	 style=" stroke:#000000; stroke-width:1;"></polyline>
	<polyline points="189.276 37.4328 194.137 38.711"
	 style=" stroke:#000000; stroke-width:1;"></polyline>
	<polyline points="186.15 39.6698 194.832 41.9068"
	 style=" stroke:#000000; stroke-width:1;"></polyline>
	<polyline points="181.983 42.5459 183.052 42.5459 183.408 42.5459 
	 184.12 42.901 184.476 42.901 185.189 42.901 185.545 43.2561 
	 185.901 43.2561 186.257 43.6112 187.326 43.6112 188.394 43.6112 
	 189.106 43.9662 189.818 43.9662 190.531 43.9662 191.243 43.9662 
	 191.955 44.3213 192.668 44.6764 193.38 44.6764 194.449 45.0315 
	 195.161 45.0315 195.873 45.7417"
	 style=" stroke:#000000; stroke-width:1;"></polyline>
	<polyline points="177.469 45.4221 178.53 45.4221 179.238 45.4221 
	 179.945 45.7707 180.652 46.1193 181.713 46.1193 182.42 46.1193 
	 182.774 46.468 183.835 46.8166 184.896 47.1652 185.957 47.1652 
	 187.018 47.5138 188.079 48.2111 189.14 48.2111 190.201 48.2111 
	 191.262 48.5597 192.324 48.9084 193.384 48.9084 194.446 48.9084 
	 195.506 48.9084 196.568 49.257"
	 style=" stroke:#000000; stroke-width:1;"></polyline>
	<polyline points="172.608 47.9787 173.312 47.9787 174.016 48.3171 
	 174.368 48.3171 175.073 48.3171 175.425 48.6554 176.129 48.9938 
	 176.481 49.3322 177.185 49.6705 177.89 49.6705 178.242 49.6705 
	 178.946 50.0089 179.299 50.0089 179.65 50.0089 180.355 50.3473 
	 180.707 50.6857 181.411 51.0241 182.116 51.0241 182.82 51.0241 
	 183.524 51.0241 184.228 51.0241 184.58 51.3624 185.285 51.3624 
	 185.989 51.7008 186.693 52.3775 187.398 52.0391 188.454 52.0391 
	 189.158 52.0391 189.862 52.0391 190.215 52.3775 190.919 52.3775 
	 191.623 52.7159 192.327 53.3926 193.032 53.0543 193.736 53.0543 
	 194.44 53.0543 195.145 53.0543 195.497 53.0543 196.201 53.3926 
	 196.905 53.3926 197.61 53.731"
	 style=" stroke:#000000; stroke-width:1;"></polyline>
	<polyline points="163.927 52.4527 164.979 52.7883 166.031 52.7883 
	 166.733 53.1238 167.434 53.1238 168.135 53.4594 168.837 54.1305 
	 169.539 54.8016 170.24 55.8084 171.292 55.4727 172.345 55.4727 
	 173.046 55.4727 173.748 55.8084 174.449 55.8084 175.151 56.1438 
	 175.852 56.4796 176.905 57.1506 178.307 56.815 179.36 56.815 
	 180.061 56.815 181.114 57.1506 181.815 57.1506 182.516 57.4862 
	 183.569 57.8218 184.621 58.4925 186.024 58.1572 186.726 58.1572 
	 187.778 57.8218 188.479 57.8218 189.181 57.8218 189.882 58.1572 
	 190.935 58.4925 191.987 58.8284 193.039 58.4925 194.092 58.4925 
	 194.793 58.1572 195.494 58.1572 195.845 58.1572 196.547 58.1572 
	 197.599 58.4925 198.651 59.1638"
	 style=" stroke:#000000; stroke-width:1;"></polyline>
	<polygon points="27.8063 233.331 212.888 233.331 212.888 109.656 
	 27.8063 109.656 27.8063 233.331 27.8063 233.331 27.8063 233.331 27.8063 233.331 "
	 style=" stroke:#000000; stroke-width:1; fill:#ababab; fill-opacity:100%"></polygon>
	<polygon points="38.2438 109.656 205.93 109.656 212.54 114.462 
	 203.146 114.142 211.844 120.87 204.19 123.113 212.887 131.124 
	 205.582 131.124 212.54 141.376 205.582 142.978 213.235 147.464 
	 208.017 149.386 212.54 157.076 208.365 159.639 212.54 167.969 
	 205.582 169.892 212.192 175.339 208.017 177.261 212.54 184.951 
	 207.321 185.912 212.54 191.679 208.017 191.359 212.887 196.165 
	 208.017 196.485 212.54 204.175 205.93 205.777 212.54 210.903 
	 207.321 212.826 212.54 217.311 208.017 218.272 212.54 223.719 
	 207.321 227.244 212.54 233.331 27.4591 233.331 33.3733 227.244 
	 27.4591 224.36 35.8086 218.272 27.4591 215.389 32.6775 206.097 
	 27.4591 206.097 33.7212 200.009 27.4591 197.446 34.0691 189.116 
	 27.4591 188.475 34.0691 179.824 27.4591 179.504 33.7212 170.533 
	 27.4591 170.212 37.5481 163.804 27.4591 161.561 31.9817 156.755 
	 27.4591 155.153 39.6354 150.027 27.4591 148.745 33.7212 143.939 
	 27.4591 142.338 38.9396 137.211 27.4591 135.929 33.3733 129.842 
	 27.4591 129.201 34.417 125.036 27.4591 122.793 37.5481 119.269 
	 27.4591 116.385 38.2438 109.656 38.2438 109.656 38.2438 109.656 38.2438 109.656 "
	 style=" stroke:#000000; stroke-width:1; fill:#ffffff; fill-opacity:100%"></polygon>
	<polyline points="38.2438 109.656 205.93 109.656 212.54 114.462 
	 203.146 114.142 211.844 120.87 204.19 123.113 212.887 131.124 
	 205.582 131.124 212.54 141.376 205.582 142.978 213.235 147.464 
	 208.017 149.386 212.54 157.076 208.365 159.639 212.54 167.969 
	 205.582 169.892 212.192 175.339 208.017 177.261 212.54 184.951 
	 207.321 185.912 212.54 191.679 208.017 191.359 212.887 196.165 
	 208.017 196.485 212.54 204.175 205.93 205.777 212.54 210.903 
	 207.321 212.826 212.54 217.311 208.017 218.272 212.54 223.719 
	 207.321 227.244 212.54 233.331 27.4591 233.331 33.3733 227.244 
	 27.4591 224.36 35.8086 218.272 27.4591 215.389 32.6775 206.097 
	 27.4591 206.097 33.7212 200.009 27.4591 197.446 34.0691 189.116 
	 27.4591 188.475 34.0691 179.824 27.4591 179.504 33.7212 170.533 
	 27.4591 170.212 37.5481 163.804 27.4591 161.561 31.9817 156.755 
	 27.4591 155.153 39.6354 150.027 27.4591 148.745 33.7212 143.939 
	 27.4591 142.338 38.9396 137.211 27.4591 135.929 33.3733 129.842 
	 27.4591 129.201 34.417 125.036 27.4591 122.793 37.5481 119.269 
	 27.4591 116.385 38.2438 109.656 38.2438 109.656 38.2438 109.656"
	 style=" stroke:#000000; stroke-width:1;"></polyline>
	<polyline points="27.8063 116.687 203.165 114.13"
	 style=" stroke:#000000; stroke-width:1;"></polyline>
	<polyline points="27.8063 122.759 204.207 123.398"
	 style=" stroke:#000000; stroke-width:1;"></polyline>
	<polyline points="34.754 125.316 205.943 131.387 33.3623 130.038"
	 style=" stroke:#000000; stroke-width:1;"></polyline>
	<polyline points="27.8063 135.542 212.193 141.614"
	 style=" stroke:#000000; stroke-width:1;"></polyline>
	<polyline points="38.9182 137.14 205.596 143.212"
	 style=" stroke:#000000; stroke-width:1;"></polyline>
	<polyline points="213.235 147.686 27.4591 142.253"
	 style=" stroke:#000000; stroke-width:1;"></polyline>
	<polyline points="33.7095 143.851 208.027 149.603"
	 style=" stroke:#000000; stroke-width:1;"></polyline>
	<polyline points="212.541 157.273 28.5008 148.644"
	 style=" stroke:#000000; stroke-width:1;"></polyline>
	<polyline points="39.6127 149.923 208.374 159.829"
	 style=" stroke:#000000; stroke-width:1;"></polyline>
	<polyline points="27.4591 155.036 212.194 168.139"
	 style=" stroke:#000000; stroke-width:1;"></polyline>
	<polyline points="31.626 156.634 205.596 170.056"
	 style=" stroke:#000000; stroke-width:1;"></polyline>
	<polyline points="211.846 175.489 27.8063 161.747"
	 style=" stroke:#000000; stroke-width:1;"></polyline>
	<polyline points="37.182 163.664 208.027 177.406"
	 style=" stroke:#000000; stroke-width:1;"></polyline>
	<polyline points="33.3623 226.94 207.332 226.94"
	 style=" stroke:#000000; stroke-width:1;"></polyline>
	<polyline points="212.193 223.425 27.8063 224.383"
	 style=" stroke:#000000; stroke-width:1;"></polyline>
	<polyline points="35.793 217.992 208.027 217.992"
	 style=" stroke:#000000; stroke-width:1;"></polyline>
	<polyline points="212.194 217.353 27.4591 215.116"
	 style=" stroke:#000000; stroke-width:1;"></polyline>
	<polyline points="32.6678 206.168 207.332 212.879"
	 style=" stroke:#000000; stroke-width:1;"></polyline>
	<polyline points="206.291 205.848 33.7095 199.776"
	 style=" stroke:#000000; stroke-width:1;"></polyline>
	<polyline points="27.8063 197.22 212.193 204.25"
	 style=" stroke:#000000; stroke-width:1;"></polyline>
	<polyline points="208.027 196.581 34.0568 188.911"
	 style=" stroke:#000000; stroke-width:1;"></polyline>
	<polyline points="28.1536 188.272 212.541 196.261"
	 style=" stroke:#000000; stroke-width:1;"></polyline>
	<polyline points="208.374 191.467 34.0568 179.643"
	 style=" stroke:#000000; stroke-width:1;"></polyline>
	<polyline points="207.323 186.035 33.3623 170.375 212.194 184.73"
	 style=" stroke:#000000; stroke-width:1;"></polyline>
	<polyline points="212.194 210.961 32.6678 206.168"
	 style=" stroke:#000000; stroke-width:1;"></polyline>
	<polygon points="221.917 79.2968 221.917 108.375 184.067 108.697 
	 195.982 105.79 198.786 104.821 201.59 105.144 205.095 104.821 
	 207.898 104.174 210.702 102.882 211.403 101.59 212.104 100.297 
	 212.805 99.0051 213.506 98.0358 215.608 96.4204 217.01 94.4818 
	 218.062 92.2204 218.762 89.6357 219.463 87.0509 220.515 84.4664 
	 220.865 82.5278 221.917 79.2968 221.917 79.2968 221.917 79.2968 221.917 79.2968 "
	 style=" stroke:#ababab; stroke-width:1; fill:#ababab; fill-opacity:100%"></polygon>
	<polygon points="220.528 239.723 220.528 268.801 182.678 269.124 
	 194.593 266.539 197.397 265.247 200.201 265.57 203.355 265.247 
	 206.509 264.6 208.963 263.308 210.014 262.016 210.715 260.723 
	 211.416 259.431 212.117 258.462 214.219 256.523 215.621 254.908 
	 216.673 252.646 217.023 250.062 218.075 247.477 219.126 244.893 
	 219.476 243.277 220.528 239.723 220.528 239.723 220.528 239.723 220.528 239.723 "
	 style=" stroke:#ababab; stroke-width:1; fill:#ababab; fill-opacity:100%"></polygon>
	<polygon points="100.554 102.889 100.906 102.889 101.961 102.889 
	 102.664 102.565 103.718 102.242 104.422 101.918 105.125 101.595 
	 105.828 100.947 106.531 100.3 106.883 99.9762 107.586 99.0054 
	 107.937 98.3581 108.641 97.7109 108.641 97.0637 108.992 96.4164 
	 108.992 95.4456 109.344 94.4747 108.992 93.8275 108.992 93.1803 
	 108.992 92.533 108.641 91.5622 108.289 90.915 107.937 90.2677 
	 107.586 89.6205 106.883 88.9733 106.18 88.6494 105.828 88.0022 
	 105.125 87.6788 104.422 87.3549 103.367 87.0315 102.664 86.7077 
	 101.609 86.3843 100.554 86.3843 99.851 86.3843 99.1477 86.3843 
	 98.4447 86.7077 97.7414 86.7077 96.6868 87.0315 95.9838 87.3549 
	 95.2805 87.6788 94.5772 88.326 93.8742 88.6494 93.5225 89.2966 
	 92.8195 89.9439 92.4676 90.915 92.1163 91.8858 91.7646 92.8567 
	 91.413 93.8275 91.413 95.122 91.413 96.0926 91.7646 97.0637 
	 92.1163 98.0345 92.4676 98.6818 92.8195 99.6526 93.5225 100.3 
	 93.8742 100.947 94.5772 101.271 95.2805 101.918 95.9838 102.242 
	 96.6868 102.242 97.39 102.565 98.0931 102.889 98.7963 102.889 
	 99.4996 102.889 100.203 102.889 100.554 102.889 100.554 102.889 
	 100.554 107.419 100.203 107.419 98.4447 107.419 96.6868 107.096 
	 94.9291 106.772 93.8742 106.125 92.4676 105.478 91.413 104.507 
	 90.3583 103.86 89.3037 102.889 88.6004 101.918 87.8971 100.947 
	 87.5455 99.6526 87.1941 98.6818 86.8422 97.7109 86.4908 96.7401 
	 86.4908 95.7692 86.4908 94.4747 86.4908 93.1803 86.8422 91.5622 
	 87.1941 90.2677 87.8971 88.6494 88.6004 87.6788 89.3037 86.7077 
	 90.3583 85.7368 91.413 84.7662 92.4676 84.119 93.5225 83.4718 
	 94.9291 83.1479 95.9838 82.5007 97.0381 82.1773 98.4447 82.1773 
	 99.4996 81.8534 100.554 81.8534 102.312 82.1773 104.07 82.1773 
	 105.476 82.8245 106.883 83.4718 108.289 84.119 109.344 84.7662 
	 110.75 85.7368 111.453 86.7077 112.508 88.0022 113.211 88.9733 
	 113.563 89.9439 114.266 91.2386 114.618 92.2094 114.618 93.5039 
	 114.618 94.4747 114.618 95.4456 114.618 96.4164 114.266 97.3873 
	 113.914 98.3581 113.563 99.329 113.211 100.3 112.508 101.271 
	 111.805 102.242 111.102 103.212 110.399 104.183 109.344 104.831 
	 108.289 105.478 106.883 106.125 105.476 106.772 103.718 107.096 
	 101.961 107.419 100.554 107.419 100.554 102.889 100.554 102.889 
	 100.554 102.889 100.554 102.889 "
	 style="stroke:none; fill:#000000; fill-opacity:100%"></polygon>
	<polygon points="118.09 99.6543 118.09 82.1731 122.693 82.1731 
	 122.693 99.0068 123.047 99.9779 123.047 100.949 123.401 101.597 
	 124.109 102.244 124.817 102.568 125.171 102.892 126.233 103.215 
	 126.942 103.215 127.65 103.215 128.358 102.892 129.066 102.568 
	 129.42 102.244 130.128 101.597 130.482 100.949 130.836 99.9779 
	 130.836 99.0068 130.836 82.1731 136.147 82.1731 136.147 99.6543 
	 136.147 100.625 135.793 101.273 135.793 101.92 135.439 102.568 
	 135.085 103.539 134.376 104.186 134.023 104.834 133.314 105.158 
	 132.606 105.805 131.898 106.129 131.19 106.452 130.482 106.776 
	 129.774 107.1 129.066 107.1 128.004 107.1 127.295 107.1 
	 126.233 107.1 125.171 107.1 124.109 107.1 123.401 106.776 
	 122.693 106.452 121.985 106.129 121.276 105.805 120.568 105.158 
	 119.86 104.834 119.506 104.186 118.798 103.539 118.798 102.892 
	 118.444 102.244 118.09 101.273 118.09 100.625 118.09 99.6543 
	 118.09 99.6543 118.09 99.6543 118.09 99.6543 "
	 style="stroke:none; fill:#000000; fill-opacity:100%"></polygon>
	<polygon points="138.23 86.3816 138.23 82.1731 153.162 82.1731 
	 153.162 86.3816 148.54 86.3816 148.54 107.1 143.208 107.1 
	 143.208 86.3816 138.23 86.3816 138.23 86.3816 138.23 86.3816 138.23 86.3816 "
	 style="stroke:none; fill:#000000; fill-opacity:100%"></polygon>
	<polygon points="104.895 241.321 110.104 241.321 110.104 265.928 
	 104.895 265.928 104.895 241.321 104.895 241.321 104.895 241.321 104.895 241.321 "
	 style="stroke:none; fill:#000000; fill-opacity:100%"></polygon>
	<polygon points="114.965 241.321 120.259 241.321 131.906 259.452 
	 131.906 241.321 136.494 241.321 136.494 265.928 131.2 265.928 
	 119.906 248.12 119.906 265.928 114.965 265.928 114.965 241.321 
	 114.965 241.321 114.965 241.321 114.965 241.321 "
	 style="stroke:none; fill:#000000; fill-opacity:100%"></polygon>
	<polygon points="99.1631 102.254 99.8661 101.93 100.569 101.93 
	 101.272 101.607 102.327 101.283 103.03 100.959 103.733 100.636 
	 104.436 99.9882 105.139 99.341 105.842 99.0176 106.194 98.3704 
	 106.897 97.3993 107.248 96.7521 107.6 96.1048 107.6 95.4578 
	 107.951 94.4867 107.951 93.5161 107.951 92.8689 107.6 92.2217 
	 107.6 91.5744 107.248 90.6033 106.897 89.9561 106.545 89.3089 
	 106.194 88.6616 105.842 88.338 105.139 87.6908 104.436 87.0435 
	 103.733 86.7199 103.03 86.3963 102.327 86.0727 101.272 85.7491 
	 100.218 85.4257 99.5148 85.4257 98.4601 85.4257 97.7571 85.4257 
	 97.0538 85.7491 96.3508 85.7491 95.6478 86.0727 94.9451 86.3963 
	 93.8901 86.7199 93.5388 87.3672 92.8358 87.6908 92.1327 88.338 
	 91.4295 89.3089 91.0778 89.9561 90.7265 90.9272 90.3748 91.8978 
	 90.3748 92.8689 90.3748 94.1634 90.3748 95.134 90.3748 96.1048 
	 90.7265 97.0759 91.0778 97.7232 91.4295 98.6938 92.1327 99.341 
	 92.8358 99.9882 93.1871 100.312 93.8901 100.959 94.5932 101.283 
	 95.2964 101.607 95.9994 101.607 96.7025 101.93 97.4055 101.93 
	 98.1087 102.254 98.8118 102.254 99.1631 102.254 99.1631 102.254 
	 99.1631 106.461 98.8118 106.461 97.0538 106.461 95.2964 106.137 
	 93.8901 105.814 92.4841 105.166 91.0778 104.519 90.0234 103.548 
	 88.9685 102.901 88.2655 101.93 87.5625 100.959 86.8595 99.9882 
	 86.1562 99.0176 85.8048 97.7232 85.4532 96.7521 85.4532 95.7814 
	 85.1018 95.134 85.1018 93.5161 85.1018 92.545 85.4532 90.6033 
	 86.1562 89.3089 86.5081 88.0144 87.2111 86.7199 88.2655 85.7491 
	 88.9685 84.7782 90.0234 83.8074 91.0778 83.1601 92.4841 82.5129 
	 93.5388 82.1893 94.5932 81.5421 95.9994 81.2184 97.0538 81.2184 
	 98.1087 80.8948 99.5148 80.8948 100.921 81.2184 102.678 81.2184 
	 104.085 81.8657 105.491 82.5129 106.897 83.1601 108.303 84.131 
	 109.358 84.7782 110.061 85.7491 111.115 87.0435 111.818 88.0144 
	 112.17 88.9852 112.873 90.28 113.225 91.5744 113.225 92.545 
	 113.576 93.5161 113.225 94.4867 113.225 95.4578 112.873 96.4287 
	 112.873 97.3993 112.522 98.3704 111.818 99.341 111.467 100.312 
	 110.764 101.283 110.061 102.254 109.006 103.225 107.951 103.872 
	 106.897 104.843 105.491 105.166 104.085 105.814 102.678 106.137 
	 100.569 106.461 99.1631 106.461 99.1631 102.254 99.1631 102.254 
	 99.1631 102.254 99.1631 102.254 "
	 style="stroke:none; fill:#ff0016; fill-opacity:100%"></polygon>
	<polygon points="116.701 98.6955 116.701 81.2143 121.658 81.2143 
	 121.658 98.048 121.658 99.0193 122.012 99.9904 122.366 100.638 
	 122.72 101.285 123.428 101.609 124.136 101.933 124.844 102.257 
	 125.553 102.257 126.261 102.257 126.969 101.933 127.677 101.609 
	 128.385 101.285 128.739 100.638 129.447 99.9904 129.447 99.0193 
	 129.447 98.048 129.447 81.2143 134.758 81.2143 134.758 98.6955 
	 134.758 99.6668 134.758 100.314 134.404 100.962 134.05 101.933 
	 133.696 102.58 133.342 103.228 132.634 103.875 131.925 104.523 
	 131.571 104.846 130.863 105.17 129.801 105.494 129.447 105.817 
	 128.385 106.141 127.677 106.141 126.615 106.141 125.907 106.141 
	 124.844 106.141 123.782 106.141 123.074 106.141 122.012 105.817 
	 121.304 105.494 120.596 105.17 119.887 104.846 119.179 104.523 
	 118.471 103.875 118.117 103.228 117.763 102.58 117.409 101.933 
	 117.055 101.285 116.701 100.638 116.701 99.6668 116.701 98.6955 
	 116.701 98.6955 116.701 98.6955 116.701 98.6955 "
	 style="stroke:none; fill:#ff0016; fill-opacity:100%"></polygon>
	<polygon points="136.841 85.423 136.841 81.2143 152.12 81.2143 
	 152.12 85.423 147.146 85.423 147.146 106.141 141.816 106.141 
	 141.816 85.423 136.841 85.423 136.841 85.423 136.841 85.423 136.841 85.423 "
	 style="stroke:none; fill:#ff0016; fill-opacity:100%"></polygon>
	<polygon points="103.159 240.362 108.715 240.362 108.715 264.969 
	 103.159 264.969 103.159 240.362 103.159 240.362 103.159 240.362 103.159 240.362 "
	 style="stroke:none; fill:#ff0016; fill-opacity:100%"></polygon>
	<polygon points="113.576 240.362 118.87 240.362 130.164 258.494 
	 130.164 240.362 135.105 240.362 135.105 264.969 129.811 264.969 
	 118.517 247.162 118.517 264.969 113.576 264.969 113.576 240.362 
	 113.576 240.362 113.576 240.362 113.576 240.362 "
	 style="stroke:none; fill:#ff0016; fill-opacity:100%"></polygon>
      </g>
    </g>
  </symbol>
 </defs>
</svg>
