<?xml version="1.0"?>
<?metis version="3.2"?>
<?metisxml version="1.1"?>
<!DOCTYPE svg  PUBLIC "-//W3C//DTD SVG August 1999//EN"
 "http://www.w3.org/Graphics/SVG/svg-19990812.dtd">

<svg width="200" height="200">
 <title>Symbol library: physical_flow.svg</title>
 <defs>
  <symbol id="oid1" xml:space="preserve" class="METIS_SYMBOL">
   <title>physical flow</title>
    <rect x="0" y="0" width="299.565" height="352"
     style=" stroke:#000000; stroke-width:1; fill:#ffffa5; fill-opacity:100%"></rect>
    <rect x="299.565" y="0" width="684.722" height="352"
     style=" stroke:#000000; stroke-width:1; fill:#ffa596; fill-opacity:100%"></rect>
    <g>
      <desc>METIS_TEXT_GROUP</desc>
      <text  x="320" y="12.8"
       style=" stroke:#000000; stroke-width:1; font-family:sans-serif; font-size:13;"
       class="TAG:text">text</text>
      <rect x="320" y="0" width="664.287" height="349.948"
       style=" stroke:#000000; stroke-width:1; fill:#ffffff; fill-opacity:0%"></rect>
    </g>
    <g>
      <polygon points="70.5281 64 251.184 64 288 106.112 
       288 288 32 288 32 105.813 70.5281 64 
       70.5281 64 70.5281 64 "
       style=" stroke:#000000; stroke-width:1; fill:#ffffff; fill-opacity:100%"></polygon>
      <polygon points="56.3606 106.056 267.058 106.056 249.929 83.984 
       72.6341 83.984 56.3606 106.056 56.3606 106.056 56.3606 106.056 "
       style=" stroke:#000000; stroke-width:1; fill:#ababab; fill-opacity:100%"></polygon>
      <polyline points="249.906 65.1931 72.6603 65.4935 38.8381 106.354 
       282.444 106.354 249.906 65.4935"
       style=" stroke:#000000; stroke-width:1;"></polyline>
      <polyline points="32 136.479 287.573 136.479"
       style=" stroke:#000000; stroke-width:1;"></polyline>
      <polyline points="32 107.249 287.573 107.249"
       style=" stroke:#000000; stroke-width:1;"></polyline>
      <polyline points="32 253.401 287.573 253.401"
       style=" stroke:#000000; stroke-width:1;"></polyline>
      <polyline points="32 251.909 287.573 251.909"
       style=" stroke:#000000; stroke-width:1;"></polyline>
      <polyline points="193.122 93.2303 190.508 93.8435 187.459 94.7631 
       184.41 95.9893 180.925 97.5222 177.44 99.0548 174.391 100.894 
       172.213 102.427 170.471 104.266"
       style=" stroke:#ffffff; stroke-width:1;"></polyline>
      <polyline points="190.558 98.8973 187.895 99.8371 184.344 101.403 
       181.237 103.282 179.018 105.161"
       style=" stroke:#ffffff; stroke-width:1;"></polyline>
      <polyline points="126.024 84.8789 121.267 86.0963 116.511 87.618 
       111.754 89.1397 106.997 90.6618 102.673 92.488 97.9168 94.6183 
       93.5928 97.0531 89.2689 99.7923"
       style=" stroke:#ffffff; stroke-width:1;"></polyline>
      <polyline points="133.716 86.3701 128.533 88.1897 122.918 90.009 
       117.735 91.8286 112.552 94.2545 107.8 96.377 102.618 99.1062 
       97.8664 101.836 93.1152 104.565"
       style=" stroke:#ffffff; stroke-width:1;"></polyline>
      <polyline points="72.6011 84.2823 72.6011 65.1931"
       style=" stroke:#000000; stroke-width:1;"></polyline>
      <polyline points="168.761 64.8948 158.042 66.3967 152.039 67.2979 
       146.464 68.199 140.89 69.4006 135.316 70.3017 130.17 71.2029 
       125.025 72.4044 119.88 73.606 108.731 76.3095 98.4406 79.0129 
       88.1496 82.3171 78.2875 86.2223 68.8543 90.4276 59.4211 94.9335 
       49.5591 100.34 38.4107 107.249"
       style=" stroke:#000000; stroke-width:1;"></polyline>
      <polyline points="153.376 64.5965 147.369 65.4988 141.793 66.401 
       136.215 67.3033 130.638 68.2056 125.49 69.4086 120.342 70.6116 
       115.194 71.5138 104.039 74.2206 93.7431 77.2282 83.4469 80.5364 
       73.5799 84.1455 64.1415 88.356 54.2743 93.1681 44.836 98.2809 
       40.9749 100.687"
       style=" stroke:#000000; stroke-width:1;"></polyline>
      <polyline points="134.998 64.8948 125.98 66.4022 120.827 67.3066 
       115.674 68.5125 110.521 69.7184 99.3556 72.4317 89.0489 75.145 
       78.7426 78.4612 68.8654 82.3804 59.418 86.601 45.6761 92.9319"
       style=" stroke:#000000; stroke-width:1;"></polyline>
      <polyline points="123.459 64.5965 118.301 65.5033 113.142 66.7122 
       107.553 67.9212 96.806 70.3392 86.4882 73.3617 76.1711 76.6864 
       66.2834 80.6156 56.3958 84.5447 50.3773 87.265"
       style=" stroke:#000000; stroke-width:1;"></polyline>
      <polyline points="102.09 64.8948 90.4334 67.9468 79.6396 70.9989 
       69.7094 74.3562 59.7796 78.0186"
       style=" stroke:#000000; stroke-width:1;"></polyline>
      <polyline points="94.8247 64.5965 88.3264 66.1376 77.4953 69.2197 
       67.531 72.61 63.1986 73.8429"
       style=" stroke:#000000; stroke-width:1;"></polyline>
      <polyline points="86.2774 64.5965 75.8064 67.4152 65.3357 70.8602"
       style=" stroke:#000000; stroke-width:1;"></polyline>
      <polyline points="109.783 65.4913 104.615 66.7046 93.4187 69.1312 
       83.0832 72.1645 72.748 75.501 62.8432 79.4442 53.3689 83.3875"
       style=" stroke:#000000; stroke-width:1;"></polyline>
      <polyline points="98.6714 79.1335 72.6011 65.4913 84.3328 83.984"
       style=" stroke:#000000; stroke-width:1;"></polyline>
      <polyline points="114.777 75.0359 72.6011 65.1931 134.144 70.7297"
       style=" stroke:#000000; stroke-width:1;"></polyline>
      <polyline points="70.8457 89.5706 73.0283 65.1931 52.5142 98.5992"
       style=" stroke:#000000; stroke-width:1;"></polyline>
      <polyline points="249.536 84.2823 249.536 65.1931"
       style=" stroke:#000000; stroke-width:1;"></polyline>
      <polyline points="251.19 68.4964 250.76 68.1956 250.76 67.5941 
       250.76 67.2934 250.76 66.9926 250.33 66.6919 250.33 66.3911 
       250.33 66.0903 250.33 65.7896 246.46 68.4964 240.87 71.5039 
       234.849 74.8122 228.4 77.519 222.379 80.2257 216.789 82.331 
       211.629 84.1355 208.189 85.3385 206.038 86.2409 203.888 86.8424 
       201.738 87.7446 199.588 88.3462 197.008 89.2482 194.858 89.8498 
       192.707 90.7522 190.558 91.3536 191.848 91.3536 193.568 91.6543 
       195.288 91.6543 197.008 91.9552 198.728 92.2558 200.018 92.8574 
       201.308 93.4587 202.168 94.3612 202.598 94.9628 202.598 95.5644 
       202.598 95.8648 202.168 96.4664 202.168 97.068 201.738 97.6695 
       201.738 97.9702 201.308 98.5715 203.888 97.6695 206.468 97.068 
       209.049 96.4664 211.629 96.4664 213.778 96.4664 215.929 97.3686 
       217.219 98.2709 218.079 100.076 219.369 99.474 221.089 98.5715 
       223.239 97.9702 225.389 97.3686 227.969 97.068 230.12 97.6695 
       232.269 98.8724 233.989 101.579 235.28 100.376 236.57 99.1731 
       238.29 98.5715 240.44 97.9702 242.59 97.9702 244.74 98.5715 
       246.46 99.7747 247.75 101.579 249.04 100.076 250.33 99.1731 
       252.48 98.5715 254.2 98.5715 256.351 98.8724 258.071 99.474 
       259.36 100.677 260.22 101.88 259.36 97.6695 258.071 93.4587 
       256.78 89.2482 255.49 85.0379 254.63 81.128 253.34 76.9175 
       252.05 72.7069 251.19 68.4964 251.19 68.4964 251.19 68.4964"
       style=" stroke:#000000; stroke-width:1;"></polyline>
      <polyline points="201.67 98.5741 204.688 96.4687 208.137 94.6642 
       211.586 92.5588 215.036 90.4532 218.054 88.3478 221.503 86.2425 
       224.521 84.4377 227.97 82.3323 230.557 80.2268 233.575 78.4222 
       236.594 76.3168 239.612 74.2113 242.199 72.4067 245.217 70.3012 
       247.804 68.1958 250.391 65.7896 247.804 101.582"
       style=" stroke:#000000; stroke-width:1;"></polyline>
      <polyline points="233.934 101.284 250.391 65.7896 217.91 100.08"
       style=" stroke:#000000; stroke-width:1;"></polyline>
      <polyline points="200.815 87.8616 202.968 88.1739 204.69 88.4862 
       205.981 88.799 206.843 89.4239 208.135 89.7362 208.996 90.3611 
       210.287 91.2988 211.579 92.5487 213.732 92.236 215.454 91.9236 
       216.746 91.9236 218.038 91.9236 219.329 91.9236 220.621 92.236 
       222.343 92.8611 224.496 93.4859 226.649 93.1736 228.371 92.5487 
       229.663 92.5487 230.954 92.5487 232.247 92.5487 233.538 93.1736 
       235.26 93.4859 237.413 94.111 239.136 93.7985 240.427 93.1736 
       241.719 93.1736 242.58 93.1736 243.872 93.1736 245.163 93.4859 
       246.455 93.7985 248.177 94.4236 249.9 93.7985 251.191 93.4859 
       252.483 93.1736 253.775 93.1736 254.636 93.1736 255.928 93.4859 
       257.219 93.7985 258.511 94.4236"
       style=" stroke:#000000; stroke-width:1;"></polyline>
      <polyline points="245.262 69.0706 251.246 70.2636"
       style=" stroke:#000000; stroke-width:1;"></polyline>
      <polyline points="241.416 71.1585 252.1 73.2463"
       style=" stroke:#000000; stroke-width:1;"></polyline>
      <polyline points="236.287 73.8429 237.602 73.8429 238.041 73.8429 
       238.917 74.1743 239.355 74.1743 240.232 74.1743 240.671 74.5057 
       241.109 74.5057 241.547 74.8371 242.862 74.8371 244.177 74.8371 
       245.054 75.1685 245.93 75.1685 246.807 75.1685 247.684 75.1685 
       248.56 75.4999 249.437 75.8313 250.314 75.8313 251.629 76.1627 
       252.506 76.1627 253.382 76.8255"
       style=" stroke:#000000; stroke-width:1;"></polyline>
      <polyline points="230.731 76.5273 232.037 76.5273 232.908 76.5273 
       233.778 76.8527 234.649 77.1781 235.955 77.1781 236.825 77.1781 
       237.261 77.5034 238.566 77.8288 239.872 78.1542 241.178 78.1542 
       242.484 78.4796 243.79 79.1303 245.096 79.1303 246.402 79.1303 
       247.707 79.4557 249.014 79.7811 250.319 79.7811 251.625 79.7811 
       252.931 79.7811 254.237 80.1065"
       style=" stroke:#000000; stroke-width:1;"></polyline>
      <polyline points="224.748 78.9134 225.615 78.9134 226.482 79.2293 
       226.915 79.2293 227.782 79.2293 228.215 79.5451 229.082 79.8609 
       229.515 80.1767 230.382 80.4925 231.249 80.4925 231.682 80.4925 
       232.549 80.8083 232.983 80.8083 233.416 80.8083 234.283 81.1241 
       234.716 81.44 235.583 81.7558 236.45 81.7558 237.317 81.7558 
       238.183 81.7558 239.05 81.7558 239.483 82.0716 240.35 82.0716 
       241.217 82.3874 242.084 83.019 242.951 82.7032 244.251 82.7032 
       245.117 82.7032 245.984 82.7032 246.418 83.019 247.285 83.019 
       248.152 83.3348 249.018 83.9665 249.885 83.6507 250.752 83.6507 
       251.619 83.6507 252.486 83.6507 252.919 83.6507 253.786 83.9665 
       254.653 83.9665 255.519 84.2823"
       style=" stroke:#000000; stroke-width:1;"></polyline>
      <polyline points="214.064 83.0892 215.359 83.4024 216.654 83.4024 
       217.517 83.7156 218.38 83.7156 219.244 84.0288 220.107 84.6551 
       220.97 85.2815 221.834 86.2212 223.129 85.9079 224.424 85.9079 
       225.288 85.9079 226.151 86.2212 227.014 86.2212 227.878 86.5343 
       228.741 86.8476 230.036 87.4739 231.763 87.1606 233.058 87.1606 
       233.922 87.1606 235.217 87.4739 236.08 87.4739 236.943 87.7871 
       238.239 88.1003 239.533 88.7264 241.26 88.4134 242.124 88.4134 
       243.419 88.1003 244.282 88.1003 245.146 88.1003 246.009 88.4134 
       247.304 88.7264 248.599 89.0398 249.895 88.7264 251.19 88.7264 
       252.053 88.4134 252.916 88.4134 253.348 88.4134 254.212 88.4134 
       255.507 88.7264 256.801 89.3528"
       style=" stroke:#000000; stroke-width:1;"></polyline>
      <polygon points="46.5309 251.909 274.324 251.909 274.324 136.479 
       46.5309 136.479 46.5309 251.909 46.5309 251.909 46.5309 251.909 "
       style=" stroke:#000000; stroke-width:1; fill:#ababab; fill-opacity:100%"></polygon>
      <polygon points="59.377 136.479 265.76 136.479 273.895 140.965 
       262.334 140.666 273.038 146.946 263.618 149.039 274.323 156.515 
       265.331 156.515 273.895 166.084 265.331 167.58 274.751 171.766 
       268.328 173.56 273.895 180.737 268.757 183.13 273.895 190.905 
       265.331 192.699 273.467 197.783 268.328 199.577 273.895 206.754 
       267.472 207.651 273.895 213.034 268.328 212.735 274.323 217.221 
       268.328 217.519 273.895 224.696 265.76 226.192 273.895 230.976 
       267.472 232.771 273.895 236.957 268.328 237.854 273.895 242.938 
       267.472 246.228 273.895 251.909 46.1035 251.909 53.3825 246.228 
       46.1035 243.536 56.3798 237.854 46.1035 235.163 52.5262 226.491 
       46.1035 226.491 53.8107 220.809 46.1035 218.417 54.2389 210.642 
       46.1035 210.044 54.2389 201.969 46.1035 201.67 53.8107 193.297 
       46.1035 192.998 58.5207 187.017 46.1035 184.924 51.6698 180.438 
       46.1035 178.943 61.0898 174.158 46.1035 172.962 53.8107 168.477 
       46.1035 166.982 60.2334 162.197 46.1035 161.001 53.3825 155.319 
       46.1035 154.721 54.6671 150.833 46.1035 148.74 58.5207 145.451 
       46.1035 142.759 59.377 136.479 59.377 136.479 59.377 136.479 "
       style=" stroke:#000000; stroke-width:1; fill:#ffffff; fill-opacity:100%"></polygon>
      <polyline points="59.377 136.479 265.76 136.479 273.895 140.965 
       262.334 140.666 273.038 146.946 263.618 149.039 274.323 156.515 
       265.331 156.515 273.895 166.084 265.331 167.58 274.751 171.766 
       268.328 173.56 273.895 180.737 268.757 183.13 273.895 190.905 
       265.331 192.699 273.467 197.783 268.328 199.577 273.895 206.754 
       267.472 207.651 273.895 213.034 268.328 212.735 274.323 217.221 
       268.328 217.519 273.895 224.696 265.76 226.192 273.895 230.976 
       267.472 232.771 273.895 236.957 268.328 237.854 273.895 242.938 
       267.472 246.228 273.895 251.909 46.1035 251.909 53.3825 246.228 
       46.1035 243.536 56.3798 237.854 46.1035 235.163 52.5262 226.491 
       46.1035 226.491 53.8107 220.809 46.1035 218.417 54.2389 210.642 
       46.1035 210.044 54.2389 201.969 46.1035 201.67 53.8107 193.297 
       46.1035 192.998 58.5207 187.017 46.1035 184.924 51.6698 180.438 
       46.1035 178.943 61.0898 174.158 46.1035 172.962 53.8107 168.477 
       46.1035 166.982 60.2334 162.197 46.1035 161.001 53.3825 155.319 
       46.1035 154.721 54.6671 150.833 46.1035 148.74 58.5207 145.451 
       46.1035 142.759 59.377 136.479 59.377 136.479 59.377 136.479"
       style=" stroke:#000000; stroke-width:1;"></polyline>
      <polyline points="46.5309 143.041 262.357 140.655"
       style=" stroke:#000000; stroke-width:1;"></polyline>
      <polyline points="272.614 146.919 58.4975 145.427"
       style=" stroke:#000000; stroke-width:1;"></polyline>
      <polyline points="46.5309 148.708 263.639 149.305"
       style=" stroke:#000000; stroke-width:1;"></polyline>
      <polyline points="55.0819 151.095 265.776 156.762 53.3689 155.502"
       style=" stroke:#000000; stroke-width:1;"></polyline>
      <polyline points="46.5309 160.639 273.469 166.306"
       style=" stroke:#000000; stroke-width:1;"></polyline>
      <polyline points="60.207 162.13 265.349 167.798"
       style=" stroke:#000000; stroke-width:1;"></polyline>
      <polyline points="274.751 171.973 46.1035 166.903"
       style=" stroke:#000000; stroke-width:1;"></polyline>
      <polyline points="53.7963 168.394 268.341 173.763"
       style=" stroke:#000000; stroke-width:1;"></polyline>
      <polyline points="273.896 180.921 47.3857 172.868"
       style=" stroke:#000000; stroke-width:1;"></polyline>
      <polyline points="61.0618 174.061 268.768 183.308"
       style=" stroke:#000000; stroke-width:1;"></polyline>
      <polyline points="46.1035 178.834 273.469 191.063"
       style=" stroke:#000000; stroke-width:1;"></polyline>
      <polyline points="51.232 180.325 265.349 192.852"
       style=" stroke:#000000; stroke-width:1;"></polyline>
      <polyline points="273.042 197.923 46.5309 185.097"
       style=" stroke:#000000; stroke-width:1;"></polyline>
      <polyline points="58.0701 186.887 268.341 199.712"
       style=" stroke:#000000; stroke-width:1;"></polyline>
      <polyline points="53.3689 245.944 267.486 245.944"
       style=" stroke:#000000; stroke-width:1;"></polyline>
      <polyline points="273.469 242.663 46.5309 243.558"
       style=" stroke:#000000; stroke-width:1;"></polyline>
      <polyline points="56.3606 237.592 268.341 237.592"
       style=" stroke:#000000; stroke-width:1;"></polyline>
      <polyline points="273.469 236.996 46.1035 234.908"
       style=" stroke:#000000; stroke-width:1;"></polyline>
      <polyline points="52.5142 226.556 267.486 232.82"
       style=" stroke:#000000; stroke-width:1;"></polyline>
      <polyline points="266.204 226.258 53.7963 220.591"
       style=" stroke:#000000; stroke-width:1;"></polyline>
      <polyline points="46.5309 218.205 273.469 224.767"
       style=" stroke:#000000; stroke-width:1;"></polyline>
      <polyline points="268.341 217.609 54.2237 210.45"
       style=" stroke:#000000; stroke-width:1;"></polyline>
      <polyline points="46.9583 209.853 273.896 217.31"
       style=" stroke:#000000; stroke-width:1;"></polyline>
      <polyline points="268.768 212.836 54.2237 201.8"
       style=" stroke:#000000; stroke-width:1;"></polyline>
      <polyline points="267.475 207.766 53.3689 193.15 273.469 206.548"
       style=" stroke:#000000; stroke-width:1;"></polyline>
      <polyline points="273.469 231.03 52.5142 226.556"
       style=" stroke:#000000; stroke-width:1;"></polyline>
      <polygon points="285.436 108.144 285.436 135.283 238.852 135.584 
       253.517 132.871 256.968 131.966 260.419 132.267 264.732 131.966 
       268.182 131.363 271.633 130.157 272.496 128.951 273.359 127.744 
       274.221 126.538 275.084 125.633 277.672 124.126 279.397 122.316 
       280.691 120.206 281.554 117.793 282.416 115.381 283.711 112.969 
       284.142 111.159 285.436 108.144 285.436 108.144 285.436 108.144 "
       style=" stroke:#ababab; stroke-width:1; fill:#ababab; fill-opacity:100%"></polygon>
      <polygon points="283.726 257.875 283.726 285.014 237.142 285.315 
       251.807 282.903 255.258 281.697 258.709 281.998 262.591 281.697 
       266.473 281.094 269.492 279.888 270.786 278.681 271.649 277.475 
       272.512 276.269 273.374 275.364 275.962 273.555 277.688 272.047 
       278.982 269.937 279.413 267.524 280.707 265.112 282.001 262.7 
       282.432 261.192 283.726 257.875 283.726 257.875 283.726 257.875 "
       style=" stroke:#ababab; stroke-width:1; fill:#ababab; fill-opacity:100%"></polygon>
      <polygon points="136.067 130.163 136.5 130.163 137.798 130.163 
       138.663 129.861 139.961 129.559 140.827 129.257 141.692 128.955 
       142.557 128.351 143.423 127.747 143.856 127.444 144.721 126.538 
       145.154 125.934 146.019 125.33 146.019 124.726 146.452 124.122 
       146.452 123.216 146.884 122.31 146.452 121.706 146.452 121.102 
       146.452 120.498 146.019 119.591 145.586 118.987 145.154 118.383 
       144.721 117.779 143.856 117.175 142.99 116.873 142.557 116.269 
       141.692 115.967 140.827 115.665 139.528 115.363 138.663 115.061 
       137.365 114.759 136.067 114.759 135.201 114.759 134.336 114.759 
       133.47 115.061 132.605 115.061 131.307 115.363 130.442 115.665 
       129.576 115.967 128.71 116.571 127.845 116.873 127.412 117.477 
       126.547 118.081 126.114 118.987 125.682 119.893 125.249 120.8 
       124.816 121.706 124.816 122.914 124.816 123.82 125.249 124.726 
       125.682 125.632 126.114 126.236 126.547 127.142 127.412 127.747 
       127.845 128.351 128.71 128.653 129.576 129.257 130.442 129.559 
       131.307 129.559 132.172 129.861 133.038 130.163 133.903 130.163 
       134.769 130.163 135.634 130.163 136.067 130.163 136.067 130.163 
       136.067 134.391 135.634 134.391 133.47 134.391 131.307 134.09 
       129.144 133.787 127.845 133.183 126.114 132.579 124.816 131.673 
       123.518 131.069 122.22 130.163 121.354 129.257 120.489 128.351 
       120.056 127.142 119.624 126.236 119.19 125.33 118.758 124.424 
       118.758 123.518 118.758 122.31 118.758 121.102 119.19 119.591 
       119.624 118.383 120.489 116.873 121.354 115.967 122.22 115.061 
       123.518 114.154 124.816 113.248 126.114 112.644 127.412 112.04 
       129.144 111.738 130.442 111.134 131.739 110.832 133.47 110.832 
       134.769 110.53 136.067 110.53 138.23 110.832 140.394 110.832 
       142.125 111.436 143.856 112.04 145.586 112.644 146.884 113.248 
       148.616 114.154 149.481 115.061 150.779 116.269 151.645 117.175 
       152.077 118.081 152.943 119.289 153.376 120.195 153.376 121.404 
       153.376 122.31 153.376 123.216 153.376 124.122 152.943 125.028 
       152.51 125.934 152.077 126.84 151.645 127.747 150.779 128.653 
       149.914 129.559 149.048 130.465 148.183 131.371 146.884 131.975 
       145.586 132.579 143.856 133.183 142.125 133.787 139.961 134.09 
       137.798 134.391 136.067 134.391 136.067 130.163 136.067 130.163 136.067 130.163 "
       style="stroke:none; fill:#000000; fill-opacity:100%"></polygon>
      <polygon points="157.649 127.144 157.649 110.828 163.314 110.828 
       163.314 126.54 163.75 127.446 163.75 128.353 164.186 128.957 
       165.057 129.561 165.929 129.863 166.365 130.166 167.672 130.468 
       168.543 130.468 169.415 130.468 170.286 130.166 171.158 129.863 
       171.594 129.561 172.465 128.957 172.901 128.353 173.336 127.446 
       173.336 126.54 173.336 110.828 179.873 110.828 179.873 127.144 
       179.873 128.05 179.437 128.655 179.437 129.259 179.002 129.863 
       178.566 130.77 177.694 131.374 177.259 131.978 176.387 132.28 
       175.515 132.885 174.644 133.187 173.773 133.489 172.901 133.791 
       172.03 134.093 171.158 134.093 169.851 134.093 168.979 134.093 
       167.672 134.093 166.365 134.093 165.057 134.093 164.186 133.791 
       163.314 133.489 162.443 133.187 161.571 132.885 160.7 132.28 
       159.828 131.978 159.392 131.374 158.521 130.77 158.521 130.166 
       158.085 129.561 157.649 128.655 157.649 128.05 157.649 127.144 
       157.649 127.144 157.649 127.144 "
       style="stroke:none; fill:#000000; fill-opacity:100%"></polygon>
      <polygon points="182.437 114.756 182.437 110.828 200.815 110.828 
       200.815 114.756 195.127 114.756 195.127 134.093 188.563 134.093 
       188.563 114.756 182.437 114.756 182.437 114.756 182.437 114.756 "
       style="stroke:none; fill:#000000; fill-opacity:100%"></polygon>
      <polygon points="141.409 259.366 147.82 259.366 147.82 282.333 
       141.409 282.333 141.409 259.366 141.409 259.366 141.409 259.366 "
       style="stroke:none; fill:#000000; fill-opacity:100%"></polygon>
      <polygon points="153.803 259.366 160.319 259.366 174.654 276.289 
       174.654 259.366 180.301 259.366 180.301 282.333 173.785 282.333 
       159.884 265.712 159.884 282.333 153.803 282.333 153.803 259.366 
       153.803 259.366 153.803 259.366 "
       style="stroke:none; fill:#000000; fill-opacity:100%"></polygon>
      <polygon points="134.355 129.57 135.22 129.268 136.085 129.268 
       136.951 128.966 138.249 128.664 139.114 128.362 139.98 128.06 
       140.845 127.456 141.71 126.852 142.575 126.55 143.008 125.946 
       143.873 125.039 144.306 124.435 144.739 123.831 144.739 123.227 
       145.171 122.321 145.171 121.415 145.171 120.811 144.739 120.207 
       144.739 119.603 144.306 118.696 143.873 118.092 143.441 117.488 
       143.008 116.884 142.575 116.582 141.71 115.978 140.845 115.374 
       139.98 115.072 139.114 114.77 138.249 114.468 136.951 114.166 
       135.653 113.864 134.787 113.864 133.489 113.864 132.624 113.864 
       131.759 114.166 130.893 114.166 130.028 114.468 129.163 114.77 
       127.865 115.072 127.432 115.676 126.567 115.978 125.702 116.582 
       124.836 117.488 124.403 118.092 123.971 118.999 123.538 119.905 
       123.538 120.811 123.538 122.019 123.538 122.925 123.538 123.831 
       123.971 124.738 124.403 125.342 124.836 126.248 125.702 126.852 
       126.567 127.456 127 127.758 127.865 128.362 128.73 128.664 
       129.596 128.966 130.461 128.966 131.326 129.268 132.191 129.268 
       133.057 129.57 133.922 129.57 134.355 129.57 134.355 129.57 
       134.355 133.497 133.922 133.497 131.759 133.497 129.596 133.195 
       127.865 132.893 126.134 132.289 124.403 131.685 123.106 130.778 
       121.807 130.174 120.942 129.268 120.077 128.362 119.212 127.456 
       118.346 126.55 117.914 125.342 117.481 124.435 117.481 123.529 
       117.048 122.925 117.048 121.415 117.048 120.509 117.481 118.696 
       118.346 117.488 118.779 116.28 119.644 115.072 120.942 114.166 
       121.807 113.26 123.106 112.354 124.403 111.749 126.134 111.145 
       127.432 110.843 128.73 110.239 130.461 109.937 131.759 109.937 
       133.057 109.635 134.787 109.635 136.518 109.937 138.681 109.937 
       140.412 110.541 142.142 111.145 143.873 111.749 145.604 112.656 
       146.902 113.26 147.767 114.166 149.065 115.374 149.93 116.28 
       150.363 117.186 151.228 118.395 151.661 119.603 151.661 120.509 
       152.094 121.415 151.661 122.321 151.661 123.227 151.228 124.133 
       151.228 125.039 150.796 125.946 149.93 126.852 149.498 127.758 
       148.632 128.664 147.767 129.57 146.469 130.476 145.171 131.08 
       143.873 131.987 142.142 132.289 140.412 132.893 138.681 133.195 
       136.085 133.497 134.355 133.497 134.355 129.57 134.355 129.57 134.355 129.57 "
       style="stroke:none; fill:#ff0016; fill-opacity:100%"></polygon>
      <polygon points="155.94 126.249 155.94 109.933 162.041 109.933 
       162.041 125.645 162.041 126.551 162.476 127.458 162.912 128.062 
       163.348 128.666 164.219 128.969 165.091 129.271 165.962 129.573 
       166.834 129.573 167.705 129.573 168.577 129.271 169.448 128.969 
       170.32 128.666 170.755 128.062 171.627 127.458 171.627 126.551 
       171.627 125.645 171.627 109.933 178.164 109.933 178.164 126.249 
       178.164 127.156 178.164 127.76 177.728 128.364 177.292 129.271 
       176.856 129.875 176.421 130.479 175.549 131.083 174.677 131.688 
       174.242 131.99 173.37 132.292 172.063 132.594 171.627 132.896 
       170.32 133.198 169.448 133.198 168.141 133.198 167.27 133.198 
       165.962 133.198 164.655 133.198 163.784 133.198 162.476 132.896 
       161.605 132.594 160.733 132.292 159.862 131.99 158.99 131.688 
       158.119 131.083 157.683 130.479 157.247 129.875 156.811 129.271 
       156.376 128.666 155.94 128.062 155.94 127.156 155.94 126.249 
       155.94 126.249 155.94 126.249 "
       style="stroke:none; fill:#ff0016; fill-opacity:100%"></polygon>
      <polygon points="180.728 113.861 180.728 109.933 199.533 109.933 
       199.533 113.861 193.41 113.861 193.41 133.198 186.85 133.198 
       186.85 113.861 180.728 113.861 180.728 113.861 180.728 113.861 "
       style="stroke:none; fill:#ff0016; fill-opacity:100%"></polygon>
      <polygon points="139.272 258.471 146.11 258.471 146.11 281.438 
       139.272 281.438 139.272 258.471 139.272 258.471 139.272 258.471 "
       style="stroke:none; fill:#ff0016; fill-opacity:100%"></polygon>
      <polygon points="152.094 258.471 158.609 258.471 172.51 275.394 
       172.51 258.471 178.591 258.471 178.591 281.438 172.075 281.438 
       158.175 264.817 158.175 281.438 152.094 281.438 152.094 258.471 
       152.094 258.471 152.094 258.471 "
       style="stroke:none; fill:#ff0016; fill-opacity:100%"></polygon>
    </g>
  </symbol>
 </defs>
</svg>
