<?xml version="1.0" encoding="UTF-8" standalone="no"?>

<svg
 xmlns:dc="http://purl.org/dc/elements/1.1/"
   xmlns:cc="http://creativecommons.org/ns#"
   xmlns:rdf="http://www.w3.org/1999/02/22-rdf-syntax-ns#"
   xmlns:svg="http://www.w3.org/2000/svg"
   xmlns="http://www.w3.org/2000/svg"
   xmlns:xlink="http://www.w3.org/1999/xlink"
   xmlns:sodipodi="http://sodipodi.sourceforge.net/DTD/sodipodi-0.dtd"
   xmlns:inkscape="http://www.inkscape.org/namespaces/inkscape"
   id="svg2"
   version="1.1"
   inkscape:version="0.47 r22583"
   width="100"
   height="100"
   sodipodi:docname="policycomponent.svg">
  <metadata
     id="metadata52">
    <rdf:RDF>
      <cc:Work
         rdf:about="">
        <dc:format>image/svg+xml</dc:format>
        <dc:type
           rdf:resource="http://purl.org/dc/dcmitype/StillImage" />
      </cc:Work>
    </rdf:RDF>
  </metadata>
  <defs
     id="defs50">
    <linearGradient
       inkscape:collect="always"
       id="linearGradient3688">
      <stop
         style="stop-color:#513b24;stop-opacity:1;"
         offset="0"
         id="stop3690" />
      <stop
         style="stop-color:#513b24;stop-opacity:0;"
         offset="1"
         id="stop3692" />
    </linearGradient>
    <linearGradient
       inkscape:collect="always"
       id="linearGradient3680">
      <stop
         style="stop-color:#8c683c;stop-opacity:1;"
         offset="0"
         id="stop3682" />
      <stop
         style="stop-color:#8c683c;stop-opacity:0;"
         offset="1"
         id="stop3684" />
    </linearGradient>
    <linearGradient
       inkscape:collect="always"
       id="linearGradient3672">
      <stop
         style="stop-color:#c49749;stop-opacity:1;"
         offset="0"
         id="stop3674" />
      <stop
         style="stop-color:#c49749;stop-opacity:0;"
         offset="1"
         id="stop3676" />
    </linearGradient>
    <linearGradient
       inkscape:collect="always"
       id="linearGradient3664">
      <stop
         style="stop-color:#c49749;stop-opacity:1;"
         offset="0"
         id="stop3666" />
      <stop
         style="stop-color:#c49749;stop-opacity:0;"
         offset="1"
         id="stop3668" />
    </linearGradient>
    <linearGradient
       inkscape:collect="always"
       id="linearGradient3656">
      <stop
         style="stop-color:#8c683c;stop-opacity:1;"
         offset="0"
         id="stop3658" />
      <stop
         style="stop-color:#8c683c;stop-opacity:0;"
         offset="1"
         id="stop3660" />
    </linearGradient>
    <linearGradient
       inkscape:collect="always"
       id="linearGradient3648">
      <stop
         style="stop-color:#c49749;stop-opacity:1;"
         offset="0"
         id="stop3650" />
      <stop
         style="stop-color:#c49749;stop-opacity:0;"
         offset="1"
         id="stop3652" />
    </linearGradient>
    <linearGradient
       inkscape:collect="always"
       id="linearGradient3640">
      <stop
         style="stop-color:#996633;stop-opacity:1;"
         offset="0"
         id="stop3642" />
      <stop
         style="stop-color:#996633;stop-opacity:0;"
         offset="1"
         id="stop3644" />
    </linearGradient>
    <linearGradient
       inkscape:collect="always"
       id="linearGradient3632">
      <stop
         style="stop-color:#8c683c;stop-opacity:1;"
         offset="0"
         id="stop3634" />
      <stop
         style="stop-color:#8c683c;stop-opacity:0;"
         offset="1"
         id="stop3636" />
    </linearGradient>
    <inkscape:perspective
       sodipodi:type="inkscape:persp3d"
       inkscape:vp_x="0 : 0.5 : 1"
       inkscape:vp_y="0 : 1000 : 0"
       inkscape:vp_z="1 : 0.5 : 1"
       inkscape:persp3d-origin="0.5 : 0.33333333 : 1"
       id="perspective54" />
    <linearGradient
       inkscape:collect="always"
       xlink:href="#linearGradient3632"
       id="linearGradient3638"
       x1="359.375"
       y1="156.2505"
       x2="625"
       y2="156.2505"
       gradientUnits="userSpaceOnUse" />
    <linearGradient
       inkscape:collect="always"
       xlink:href="#linearGradient3640"
       id="linearGradient3646"
       x1="343.75"
       y1="175.78101"
       x2="585.93799"
       y2="175.78101"
       gradientUnits="userSpaceOnUse" />
    <linearGradient
       inkscape:collect="always"
       xlink:href="#linearGradient3648"
       id="linearGradient3654"
       x1="93.75"
       y1="449.21899"
       x2="320.31201"
       y2="449.21899"
       gradientUnits="userSpaceOnUse" />
    <linearGradient
       inkscape:collect="always"
       xlink:href="#linearGradient3656"
       id="linearGradient3662"
       x1="101.562"
       y1="421.87451"
       x2="359.37399"
       y2="421.87451"
       gradientUnits="userSpaceOnUse" />
    <linearGradient
       inkscape:collect="always"
       xlink:href="#linearGradient3664"
       id="linearGradient3670"
       x1="156.25"
       y1="292.96899"
       x2="554.68799"
       y2="292.96899"
       gradientUnits="userSpaceOnUse" />
    <linearGradient
       inkscape:collect="always"
       xlink:href="#linearGradient3672"
       id="linearGradient3678"
       x1="429.68799"
       y1="636.71899"
       x2="992.18799"
       y2="636.71899"
       gradientUnits="userSpaceOnUse" />
    <linearGradient
       inkscape:collect="always"
       xlink:href="#linearGradient3680"
       id="linearGradient3686"
       x1="15.625"
       y1="921.87451"
       x2="656.25"
       y2="921.87451"
       gradientUnits="userSpaceOnUse" />
    <linearGradient
       inkscape:collect="always"
       xlink:href="#linearGradient3688"
       id="linearGradient3694"
       x1="7.8125"
       y1="847.65601"
       x2="664.06299"
       y2="847.65601"
       gradientUnits="userSpaceOnUse" />
  </defs>
  <sodipodi:namedview
     pagecolor="#ffffff"
     bordercolor="#666666"
     borderopacity="1"
     objecttolerance="10"
     gridtolerance="10"
     guidetolerance="10"
     inkscape:pageopacity="0"
     inkscape:pageshadow="2"
     inkscape:window-width="1280"
     inkscape:window-height="1002"
     id="namedview48"
     showgrid="false"
     inkscape:zoom="0.23"
     inkscape:cx="340.39325"
     inkscape:cy="705.32762"
     inkscape:window-x="1272"
     inkscape:window-y="-8"
     inkscape:window-maximized="1"
     inkscape:current-layer="svg2" />
  <title
     id="title4">Symbol library: policycomponent.svg</title>
  <polygon
     points="1007.81,0 1007.81,1007.81 1007.81,1007.81 0,1007.81 0,0 "
     style="fill:#ffffff;fill-opacity:0;stroke:none"
     id="polygon6"
     transform="scale(0.09922505,0.09922505)" />
  <polygon
     points="229.228,999.628 331.986,1007.81 434.743,999.628 545.404,991.444 624.45,975.075 656.067,958.706 663.971,950.521 671.875,925.968 663.971,876.86 656.067,844.122 656.067,835.938 648.162,835.938 648.162,835.938 15.8088,835.938 15.8088,844.122 0,909.598 0,934.152 0,950.521 39.5221,966.89 126.471,983.259 "
     style="fill:#513b24;fill-opacity:1;stroke:none"
     id="polygon8"
     transform="scale(0.09922505,0.09922505)" />
  <polygon
     points="229.166,983.915 126.35,967.371 55.1697,950.827 15.625,942.555 15.625,934.283 31.4429,851.562 640.431,851.562 640.431,851.562 648.341,892.923 656.25,926.011 656.25,942.555 616.705,959.099 537.615,975.643 442.708,983.915 331.983,992.187 "
     style="fill:url(#linearGradient3686);fill-opacity:1;stroke:none"
     id="polygon10"
     transform="scale(0.09922505,0.09922505)" />
  <polygon
     points="664.063,953.125 664.063,953.125 656.25,945.313 "
     style="fill:#513b24;fill-opacity:1;stroke:none"
     id="polygon12"
     transform="scale(0.09922505,0.09922505)" />
  <polygon
     points="537.556,905.762 584.996,897.461 624.53,880.859 648.249,872.559 664.063,847.656 648.249,831.054 624.53,814.453 584.996,806.153 537.556,797.851 434.771,789.55 331.984,781.25 237.105,789.55 134.318,797.851 86.8788,806.153 47.3456,814.453 23.6258,831.054 7.8125,847.656 7.8125,847.656 23.6258,872.559 47.3456,880.859 86.8788,897.461 134.318,905.762 237.105,914.062 331.984,914.062 434.771,914.062 "
     style="fill:url(#linearGradient3694);fill-opacity:1;stroke:none"
     id="polygon14"
     transform="scale(0.09922505,0.09922505)" />
  <polygon
     points="624.801,839.193 640.625,847.656 640.625,856.119 624.801,864.583 569.412,881.51 466.548,898.437 332.032,898.437 205.429,898.437 102.564,881.51 47.1755,864.583 31.3502,856.119 23.4375,847.656 23.4375,847.656 31.3502,847.656 47.1755,839.193 102.564,822.265 205.429,805.339 332.032,796.875 466.548,805.339 569.412,822.265 "
     style="fill:#c49749;fill-opacity:1;stroke:none"
     id="polygon16"
     transform="scale(0.09922505,0.09922505)" />
  <polygon
     points="841.591,866.262 881.167,913.754 896.998,937.5 912.829,929.585 936.575,921.669 968.236,890.008 991.981,858.347 1007.81,826.685 999.897,818.771 960.32,779.195 865.337,692.126 794.099,612.973 762.438,573.396 738.692,557.566 722.862,557.566 699.115,565.481 469.572,335.938 461.658,343.853 461.658,343.853 406.25,399.26 643.709,628.803 627.878,660.465 627.878,668.379 643.709,684.211 691.2,715.872 778.269,795.024 "
     style="fill:#513b24;fill-opacity:1;stroke:none"
     id="polygon18"
     transform="scale(0.09922505,0.09922505)" />
  <polygon
     points="952.575,795.201 992.188,826.897 976.343,858.594 960.498,882.367 928.808,906.139 905.041,914.063 897.117,906.139 857.504,858.594 794.124,787.277 699.053,708.036 643.596,660.491 659.441,628.795 429.688,398.996 469.3,359.375 469.3,359.375 699.053,589.175 706.976,581.25 722.822,573.326 738.667,573.326 754.512,589.175 786.202,628.795 857.504,708.036 "
     style="fill:url(#linearGradient3678);fill-opacity:1;stroke:none"
     id="polygon20"
     transform="scale(0.09922505,0.09922505)" />
  <polygon
     points="859.375,710.938 859.375,710.938 851.562,703.125 "
     style="fill:#513b24;fill-opacity:1;stroke:none"
     id="polygon22"
     transform="scale(0.09922505,0.09922505)" />
  <polygon
     points="640.626,264.568 632.608,240.498 608.553,200.379 568.463,152.238 536.391,112.12 448.191,39.9065 408.101,15.8361 384.046,7.812 384.046,7.812 368.011,15.8361 359.992,31.8834 343.956,55.9548 335.938,63.978 584.5,304.687 592.518,304.687 624.591,280.617 "
     style="fill:#513b24;fill-opacity:1;stroke:none"
     id="polygon24"
     transform="scale(0.09922505,0.09922505)" />
  <polygon
     points="359.375,63.6838 383.522,23.438 383.522,23.438 439.867,55.635 480.113,87.8321 520.36,128.078 560.606,168.324 592.803,208.57 625,264.915 584.753,289.063 "
     style="fill:url(#linearGradient3638);fill-opacity:1;stroke:none"
     id="polygon26"
     transform="scale(0.09922505,0.09922505)" />
  <polygon
     points="512.946,288.373 561.162,312.5 585.268,312.5 601.34,304.457 609.375,288.373 601.34,256.204 577.232,215.993 504.911,143.612 424.554,71.2311 392.411,47.1048 360.268,39.062 360.268,39.062 336.161,47.1048 328.125,63.1893 336.161,95.3584 352.232,119.486 384.375,167.738 432.59,215.993 464.733,248.162 "
     style="fill:#513b24;fill-opacity:1;stroke:none"
     id="polygon28"
     transform="scale(0.09922505,0.09922505)" />
  <polygon
     points="529.428,191.964 561.72,232.421 585.938,272.879 585.938,280.971 585.938,289.062 537.5,256.696 456.771,191.964 456.771,191.964 384.114,111.049 343.75,62.5 351.822,62.5 367.969,62.5 400.261,78.683 440.625,111.049 489.063,143.415 "
     style="fill:url(#linearGradient3646);fill-opacity:1;stroke:none"
     id="polygon30"
     transform="scale(0.09922505,0.09922505)" />
  <polygon
     points="343.75,54.6875 343.75,54.6875 335.938,46.875 "
     style="fill:#513b24;fill-opacity:1;stroke:none"
     id="polygon32"
     transform="scale(0.09922505,0.09922505)" />
  <polygon
     points="411.221,101.988 371.449,78.125 363.494,78.125 363.494,78.125 132.812,316.762 331.676,515.625 570.312,276.989 546.448,237.216 522.585,205.398 482.812,157.671 443.039,125.852 "
     style="fill:#513b24;fill-opacity:1;stroke:none"
     id="polygon34"
     transform="scale(0.09922505,0.09922505)" />
  <polygon
     points="371.407,93.75 411.25,117.657 475,173.438 530.782,237.188 554.688,277.032 331.563,492.188 156.25,316.875 371.407,93.75 "
     style="fill:url(#linearGradient3670);fill-opacity:1;stroke:none"
     id="polygon36"
     transform="scale(0.09922505,0.09922505)" />
  <polygon
     points="375,530.018 366.976,505.963 342.905,465.873 310.811,417.763 278.716,377.673 190.456,313.528 150.338,281.456 118.244,273.438 118.244,273.438 110.22,281.456 94.1723,297.492 78.125,321.546 78.125,329.564 318.834,578.126 326.857,570.108 366.976,546.053 "
     style="fill:#513b24;fill-opacity:1;stroke:none"
     id="polygon38"
     transform="scale(0.09922505,0.09922505)" />
  <polygon
     points="101.562,329.309 125.732,289.062 125.732,289.062 182.129,321.259 222.412,353.456 262.695,393.702 302.978,433.949 327.147,474.195 359.374,530.54 327.147,554.687 "
     style="fill:url(#linearGradient3662);fill-opacity:1;stroke:none"
     id="polygon40"
     transform="scale(0.09922505,0.09922505)" />
  <polygon
     points="319.824,578.125 335.937,570.076 335.937,553.978 327.88,537.879 295.653,489.584 239.257,417.14 166.747,352.746 118.409,320.549 94.2382,312.5 78.125,320.549 78.125,320.549 78.125,328.599 78.125,344.697 102.294,384.943 134.521,425.19 174.804,473.485 247.315,537.879 295.653,570.076 "
     style="fill:#513b24;fill-opacity:1;stroke:none"
     id="polygon42"
     transform="scale(0.09922505,0.09922505)" />
  <polygon
     points="190.848,465.402 150.391,416.852 118.025,376.395 101.841,352.12 93.75,335.938 109.933,335.938 134.207,352.12 174.665,384.486 223.214,424.944 223.214,424.944 271.763,481.584 304.129,513.95 320.312,546.316 320.312,562.5 304.129,554.408 279.855,538.225 239.397,505.859 "
     style="fill:url(#linearGradient3654);fill-opacity:1;stroke:none"
     id="polygon44"
     transform="scale(0.09922505,0.09922505)" />
  <use
     href="#oid1"
     id="use46"
     x="0"
     y="0"
     width="744.09448"
     height="1052.3622"
     transform="translate(0,-907.81)" />
</svg>
