<?xml version="1.0" encoding="UTF-8" standalone="no"?>
<svg
   xmlns:dc="http://purl.org/dc/elements/1.1/"
   xmlns:cc="http://creativecommons.org/ns#"
   xmlns:rdf="http://www.w3.org/1999/02/22-rdf-syntax-ns#"
   xmlns:svg="http://www.w3.org/2000/svg"
   xmlns="http://www.w3.org/2000/svg"
   xmlns:sodipodi="http://sodipodi.sourceforge.net/DTD/sodipodi-0.dtd"
   xmlns:inkscape="http://www.inkscape.org/namespaces/inkscape"
   id="svg2"
   xml:space="preserve"
   height="219"
   viewBox="-0.47 -0.382 219 219"
   width="219"
   version="1.1"
   y="0px"
   x="0px"
   enable-background="new -0.47 -0.382 212 191"
   inkscape:version="0.47 r22583"
   sodipodi:docname="policy_exception.svg"><sodipodi:namedview
     pagecolor="#ffffff"
     bordercolor="#666666"
     borderopacity="1"
     objecttolerance="10"
     gridtolerance="10"
     guidetolerance="10"
     inkscape:pageopacity="0"
     inkscape:pageshadow="2"
     inkscape:window-width="1280"
     inkscape:window-height="1002"
     id="namedview40"
     showgrid="false"
     inkscape:zoom="3.4474886"
     inkscape:cx="64.249669"
     inkscape:cy="109.5"
     inkscape:window-x="1272"
     inkscape:window-y="-8"
     inkscape:window-maximized="1"
     inkscape:current-layer="svg2" /><metadata
     id="metadata4"><rdf:RDF><cc:Work
         rdf:about=""><dc:format>image/svg+xml</dc:format><dc:type
           rdf:resource="http://purl.org/dc/dcmitype/StillImage" /><dc:title /></cc:Work></rdf:RDF></metadata><defs
     id="defs6"><inkscape:perspective
       sodipodi:type="inkscape:persp3d"
       inkscape:vp_x="0 : 109.5 : 1"
       inkscape:vp_y="0 : 1000 : 0"
       inkscape:vp_z="219 : 109.5 : 1"
       inkscape:persp3d-origin="109.5 : 73 : 1"
       id="perspective42" /><linearGradient
       id="linearGradient3677"
       y2="-224"
       gradientUnits="userSpaceOnUse"
       x2="-16.4"
       gradientTransform="matrix(1.1926234,0,0,1.1958237,-41.039529,268.84715)"
       y1="-224"
       x1="-52.9"><stop
         id="stop35"
         stop-color="#663700"
         offset="0" /><stop
         id="stop37"
         stop-color="#b4964e"
         stop-opacity="0"
         offset="1" /></linearGradient><linearGradient
       id="linearGradient3681"
       y2="161"
       gradientUnits="userSpaceOnUse"
       x2="-102"
       gradientTransform="matrix(0.1824125,1.1468734,1.2141089,-0.17231077,-170.55736,208.85115)"
       y1="187"
       x1="-62.2"><stop
         id="stop30"
         stop-color="#663700"
         offset="0" /><stop
         id="stop32"
         stop-color="#b4964e"
         stop-opacity="0"
         offset="1" /></linearGradient><linearGradient
       id="linearGradient3686"
       y2="220"
       gradientUnits="userSpaceOnUse"
       x2="-139"
       gradientTransform="matrix(0.1824125,1.1468734,1.2141089,-0.17231077,-170.55736,208.85115)"
       y1="245"
       x1="-104"><stop
         id="stop25"
         stop-color="#663700"
         offset="0" /><stop
         id="stop27"
         stop-color="#b4964e"
         stop-opacity="0"
         offset="1" /></linearGradient><linearGradient
       id="linearGradient3695"
       y2="221"
       gradientUnits="userSpaceOnUse"
       x2="-79.4"
       gradientTransform="matrix(0.1824125,1.1468734,1.2141089,-0.17231077,-168.55736,208.85115)"
       y1="259"
       x1="-27.5"><stop
         id="stop20"
         stop-color="#a06127"
         offset="0" /><stop
         id="stop22"
         stop-color="#b4964e"
         stop-opacity="0"
         offset="1" /></linearGradient><linearGradient
       id="linearGradient3699"
       y2="212"
       gradientUnits="userSpaceOnUse"
       x2="-80.9"
       gradientTransform="matrix(0.18241251,1.1468734,1.2141089,-0.17231078,-170.84743,210.01143)"
       y1="267"
       x1="-11.3"><stop
         id="stop15"
         stop-color="#663700"
         offset="0" /><stop
         id="stop17"
         stop-color="#b49664"
         stop-opacity="0"
         offset="1" /></linearGradient></defs><path
     id="path48"
     style="enable-background:accumulate;color:#000000;"
     fill-rule="nonzero"
     fill="#a09989"
     d="m193.38,192.93c-3.0046,2.7113-4.2016,5.538-4.2016,5.538s-8.3787-2.8382-41.893-35.997c-33.6-33.23-68.405-74.996-68.405-74.996-1.356-1.731-3.713-4.05-4.971-2.908l-0.20397,0.18229c-1.2702,1.1434-3.0901,0.93799-4.0306-0.45458l-4.0183-5.8841,12.58-11.307,6.0336,4.0612c1.429,0.95876,1.5634,2.6882,0.28947,3.8304l-0.32122,0.2919c-1.2702,1.1434,1.0406,3.5074,2.8092,4.8688,0,0,42.504,34.843,76.092,68.071s36.153,41.189,36.153,41.189-2.858,0.82492-5.8626,3.5304z" /><path
     id="path3733"
     fill-rule="nonzero"
     style="block-progression:tb;color:#000000;direction:ltr;text-indent:0;text-align:start;enable-background:accumulate;text-transform:none;"
     fill="#8c531b"
     d="m78.188,66.344-0.34375,0.3125-12.594,11.312-0.375,0.34375,0.28125,0.4375,4.0312,5.875c1.125,1.6659,3.399,1.9192,4.9062,0.5625l0.219-0.188c0.17146-0.15568,0.3052-0.18272,0.59375-0.125s0.70804,0.26512,1.125,0.5625c0.83393,0.59475,1.7209,1.5712,2.375,2.4062h0.03125s34.818,41.804,68.438,75.062c16.769,16.591,27.25,25.592,33.562,30.469,3.1563,2.4382,5.2584,3.8252,6.5938,4.625,1.3353,0.79984,1.9375,1.0312,1.9375,1.0312l0.53125,0.1875,0.21875-0.53125s1.1514-2.5254,3.8438-5.0625l0.0312-0.0312,0.25-0.21875c2.9096-2.62,5.625-3.375,5.625-3.375l0.59375-0.1875-0.1875-0.59375s-0.21799-0.5818-1-1.875-2.1624-3.3511-4.5938-6.4375c-4.8626-6.1728-13.913-16.468-30.719-33.094-33.619-33.258-76.125-68.125-76.125-68.125h-0.03125c-0.839-0.653-1.815-1.586-2.394-2.404-0.289-0.409-0.458-0.772-0.5-1.031-0.04213-0.25907-0.01847-0.37398,0.15625-0.53125l0.3125-0.28125c0.75615-0.67798,1.1302-1.5811,1.0625-2.4688-0.06767-0.88767-0.59235-1.7455-1.4375-2.3125l-6.0312-4.0625-0.375-0.25zm0.125,1.5,5.625,3.8125c0.58386,0.39173,0.86796,0.90395,0.90625,1.4062,0.03829,0.5023-0.16975,1.0358-0.6875,1.5l-0.3125,0.28125c-0.4604,0.41441-0.62042,1.0455-0.53125,1.5938s0.36822,1.0361,0.71875,1.5312c0.70106,0.99035,1.7392,1.9503,2.6562,2.6562,0,0,42.474,34.834,76.031,68.031,16.782,16.602,25.808,26.885,30.625,33,2.4084,3.0573,3.7827,5.0747,4.5312,6.3125,0.53136,0.8787,0.51402,0.96548,0.59375,1.1562-0.75853,0.266-2.6951,1.0718-5.125,3.1562l-0.0937-0.0312-0.28125,0.21875c-2.6175,2.362-3.6904,4.476-4.0312,5.1875-0.1875-0.078-0.33076-0.0869-1.2812-0.65625-1.283-0.76853-3.3722-2.1463-6.5-4.5625-6.2555-4.8324-16.723-13.838-33.469-30.406-33.557-33.197-68.344-74.938-68.344-74.938-0.70161-0.89561-1.6269-1.9131-2.625-2.625-0.49907-0.35593-1.0129-0.64006-1.5625-0.75-0.53984-0.10798-1.1697,0.0089-1.625,0.40625-0.0082,0.0072-0.02311-0.0074-0.03125,0l-0.1875,0.1875c-1.0332,0.93002-2.3691,0.77553-3.125-0.34375h-0.03125l5.28-23.77,11.874-10.656z" /><path
     id="path46"
     fill="#663700"
     d="m192.16,191.77c4.5313-4.0843,11.701-3.9227,16,0.35996,4.3237,4.2689,4.1405,11.041-0.3774,15.114-4.5313,4.0843-11.701,3.9112-16-0.3542-4.3115-4.2804-4.1527-11.053,0.37862-15.114z" /><path
     id="path50"
     fill="url(#linearGradient3699)"
     d="m191.87,191.78c-1.5634,1.4537-2.6626,2.8959-3.371,4.015-1.2336-0.75109-3.2122-2.0767-6.1558-4.3496-6.1802-4.788-16.611-13.73-33.344-30.343-25.038-24.806-47.268-50.995-60.947-66.571-4.3359-4.938-6.9741-7.9954-7.2184-8.2954-0.14534-0.18114-0.29558-0.35074-0.4568-0.50996-1.076-1.0695-2.9802-3.2766-4.1283-3.2997-1.1432-0.02423-2.2962,0.39689-3.1878,1.1999l-0.20397,0.18345c-0.28214,0.24921-0.52031,0.3092-0.72794,0.3092-0.20519-0.0058-0.40428-0.07176-0.62168-0.28267-0.05753-0.05746-0.11322-0.11884-0.16366-0.20075l-3.278-4.808,5.13-4.626,118.71,117.68z" /><path
     id="path52"
     d="m35,293c-0.952,1.36,0.474,4,3.18,5.9s5.68,2.35,6.63,0.992c0.95-1.35-0.191-4.4-2.9-6.3s-5.96-1.95-6.92-0.593z"
     transform="matrix(-1.131811,0.25999358,0.2544882,1.1995779,165.81563,-169.90355)"
     fill="#a06127" /><path
     id="path54"
     opacity="0.98000004"
     fill="url(#linearGradient3695)"
     d="m194.16,190.62c1.771-1.3268,1.8809-1.4768,3.1023-2.0883-0.72672-1.1999-2.8458-3.2766-5.0932-6.1841-4.7145-6.1033-13.802-16.383-30.29-33.112-24.794-25.036-51.176-47.419-66.932-61.264-4.9832-4.3612-8.0611-7.0148-8.3542-7.2801-0.18321-0.14653-0.35543-0.29767-0.51421-0.46034-1.0712-1.0741-3.2977-2.9997-3.2489-4.0727,0.0366-1.0811,0.54718-2.146,1.4412-2.9305l0.20397-0.18114c0.2797-0.25036,0.35786-0.47419,0.36763-0.66917,0.005-0.19268-0.0539-0.38535-0.26381-0.60341-0.0574-0.0563-0.11982-0.11318-0.20275-0.16614l-4.903-3.376-4.824,4.062,119.57,118.83z" /><path
     id="path60"
     fill="#a09989"
     d="M7.4827,73.86c-3.0779-3.046-2.6993-8.134,0.8513-11.33,3.505-3.161,8.867-3.3,11.957-0.323l0.11334,0.10349c0.47145,0.46842,1.4168,0.37612,2.0519-0.20075,0.64-0.57687,0.78291-1.4306,0.31756-1.9152l-0.18687-0.1846c-2.1985-2.1806-1.942-5.7918,0.56428-8.0531,2.0886-1.8806,5.0932-2.2498,7.3161-1.0591l21.253-19.152c-1.1505-2.146-0.62779-4.9611,1.4657-6.8532,2.516-2.2613,6.339-2.3306,8.5497-0.15114l0.20886,0.20883c0.46046,0.43612,1.3679,0.34266,2.0153-0.23421,0.63756-0.57803,0.78168-1.4537,0.30779-1.9268l-0.09429-0.09334c-3.018-3.07-2.615-8.123,0.9-11.284,3.542-3.196,8.928-3.3114,12.018-0.264l31.145,32.305c1.5145,1.4999,2.2473,3.5305,2.0641,5.6995-0.18687,2.0998-1.2177,4.0958-2.9069,5.6187-3.5054,3.1613-8.8672,3.3112-11.957,0.3242l-0.10003-0.09022c-0.48-0.47996-1.4168-0.38304-2.0641,0.19037-0.64,0.57918-0.78291,1.4306-0.31634,1.9152l0.18687,0.18691c2.1985,2.1806,1.942,5.7918-0.5655,8.0531-2.0886,1.8921-5.0932,2.2498-7.3161,1.058l-21.858,18.46c1.1542,2.1575,0.62779,4.9726-1.4657,6.8532-2.516,2.2613-6.339,2.3306-8.5497,0.14999l-0.20886-0.20767c-0.46168-0.43727-1.3802-0.34382-2.0153,0.23075-0.64,0.57918-0.78291,1.4653-0.31145,1.9268l0.09185,0.09368c3.0168,3.069,2.6138,8.1224-0.8965,11.284-3.542,3.1959-8.9405,3.3228-12.018,0.26882l-30.543-31.61z" /><path
     id="path62"
     fill="#663700"
     d="m90.048,63.476c-1.1786,0.82608-3.5176,0.08792-4.4458-0.82723l-30.656-29.998c-0.927-0.918-1.503-3.138-0.579-4.211l36.153,35.766z" /><path
     id="path64"
     fill="#663700"
     d="m92.491,61.168c0.89527-1.0834,0.29924-3.0228-0.62779-3.9458l-30.168-29.997c-0.92581-0.87685-2.4183-2.8382-4.8-1.6037l36.153,35.766z" /><path
     id="path66"
     opacity="0.75000000000000000"
     fill="#a06127"
     d="m103.48,54.246c-1.2458,0.86992-3.6886,0.57226-4.6779-0.39804l-33.585-33.459c-0.97588-0.9703-1.1811-2.9767-0.20397-4.1073l38.351,37.958z" /><path
     id="path68"
     fill="url(#linearGradient3686)"
     d="m108.37,49.631c0.97345-1.1307,0.84031-4.4881-0.13557-5.4457l-32.852-32.189c-0.97588-0.96914-4.91-1.696-6.2901-0.46842l39.329,38.074z" /><path
     id="path70"
     fill="#663700"
     d="m59.758,91.166c-1.1786,0.82147-3.2977-0.01154-4.226-0.92992l-31.023-30.69c-0.92703-0.91723-1.5145-3.3343-0.61802-4.4419l35.909,36.112z" /><path
     id="path72"
     fill="#663700"
     d="m62.323,88.858c0.92581-1.0764,0.38962-3.3689-0.53741-4.2919l-31.024-30.689c-0.92459-0.91954-3.1145-1.8229-4.2871-0.99684l35.787,36.92z" /><path
     id="path74"
     fill="url(#linearGradient3681)"
     d="m46.078,105.24c-1.2458,0.86877-3.9329,0.10338-4.91-0.863l-32.366-31.96c-0.9771-0.972-1.8199-3.958-0.8379-5.088l38.107,37.958z" /><path
     id="path76"
     opacity="0.75000000000000000"
     fill="#a06127"
     d="m51.452,100.4c0.65222-1.5576,0.43726-3.4382-0.3029-4.5342l-33.099-32.309c-0.99543-0.9853-3.4687-1.2807-4.9955-0.82954l38.351,38.074z" /><rect
     id="rect78"
     transform="matrix(-0.71057976,-0.70361666,-0.7428728,0.66943259,0,0)"
     height="24.863"
     width="43.543"
     y="-11.151"
     x="-104.07"
     fill="url(#linearGradient3677)" /><path
     id="path82"
     fill="#d59f0f"
     d="m157,65.4c-48.3-7.43-95.3,22.9-108,71.3-6.68,26.2-1.85,52.7,11.3,74.1-4.01-13.5-4.55-28.2-0.832-42.8,9.99-39.2,47.3-64.3,86.4-60.2l-3.25,12.8,68-19.1-50.6-49.3c-0.8,3.948-3.064,10.18-3.018,13.2z" /><path
     id="path3727"
     fill-rule="nonzero"
     style="block-progression:tb;color:#000000;direction:ltr;text-indent:0;text-align:start;enable-background:accumulate;text-transform:none;"
     fill="#8c531b"
     d="m71.25,8.3438c-2.3215,0.049402-4.6825,0.92869-6.5625,2.625-3.7333,3.3575-4.2025,8.8348-0.9375,12.156l0.09375,0.09375c0.08526,0.08511,0.12614,0.20542,0.09375,0.40625-0.03238,0.20083-0.15072,0.45291-0.375,0.65625-0.23223,0.20695-0.51715,0.31765-0.75,0.34375-0.21792,0.02443-0.35957-0.03063-0.4375-0.09375h-0.03125l-0.1875-0.21875c-2.4601-2.4253-6.64-2.3331-9.375,0.125-2.1345,1.9292-2.7401,4.7934-1.75,7.125l-20.721,18.657c-2.406-1.064-5.418-0.65-7.562,1.281-2.7258,2.4594-3.0425,6.5087-0.59375,8.9375l0.1875,0.15625c0.09029,0.09402,0.12631,0.24167,0.09375,0.4375s-0.14732,0.41978-0.375,0.625c-0.22022,0.20003-0.51,0.32028-0.75,0.34375s-0.41962-0.04513-0.5-0.125l-0.09375-0.09375c-0.0065-0.0063-0.0247,0.0063-0.03125,0-3.3478-3.2028-9.0336-3.039-12.75,0.3125-3.7689,3.3924-4.2064,8.8907-0.875,12.188l30.531,31.594v0.0312c3.3314,3.3055,9.0837,3.1426,12.844-0.25,3.7283-3.3576,4.2025-8.8348,0.9375-12.156l-0.095-0.098c-0.078-0.076-0.126-0.203-0.093-0.406,0.03279-0.20298,0.15085-0.45341,0.375-0.65625,0.22339-0.20209,0.51544-0.31783,0.75-0.34375s0.36548,0.02554,0.4375,0.09375l0.21875,0.1875c2.46,2.4265,6.64,2.3331,9.375-0.125,2.1358-1.9187,2.7421-4.7533,1.75-7.0938l21.312-17.969c2.4053,1.0651,5.4178,0.63052,7.5625-1.3125,2.7271-2.4594,3.0425-6.4774,0.59375-8.9062l-0.187-0.188c-0.09107-0.09459-0.12616-0.21098-0.09375-0.40625,0.03061-0.18439,0.17018-0.42582,0.375-0.625,0.01209-0.01176,0.01851-0.01972,0.03125-0.03125,0.22326-0.18532,0.52206-0.29068,0.75-0.3125,0.23949-0.02293,0.38018,0.03644,0.46875,0.125h0.03125l0.09375,0.09375c3.3452,3.2337,9.0269,3.0451,12.75-0.3125,1.7921-1.6157,2.9239-3.7405,3.125-6v-0.03125c0.19707-2.3331-0.61256-4.5346-2.25-6.1562l-31.125-32.312h-0.03125c-1.665-1.6501-3.923-2.4267-6.244-2.3772zm0,1.1875c2.0206-0.045289,3.9888,0.64479,5.4062,2.0312l31.154,32.313c1.3916,1.3781,2.0756,3.2138,1.9062,5.2188-0.17266,1.9401-1.1325,3.7886-2.7188,5.2188-3.2876,2.9649-8.3213,3.0842-11.156,0.34375l-0.094-0.063c-0.0077-0.0077-0.02344,0.0075-0.03125,0-0.38962-0.37364-0.90554-0.51668-1.4062-0.46875-0.51074,0.04889-1.0194,0.25464-1.4375,0.625-0.41148,0.37237-0.6676,0.84735-0.75,1.3438-0.0824,0.4964,0.03075,1.0475,0.40625,1.4375l0.1875,0.1875c1.9482,1.9323,1.7567,5.1242-0.53125,7.1875-1.9053,1.7261-4.6745,2.0313-6.6562,0.96875l-0.345-0.189-0.313,0.25-21.875,18.468-0.34375,0.3125,0.21875,0.4375c1.0168,1.9006,0.56649,4.409-1.3438,6.125-2.2971,2.0645-5.7574,2.0909-7.7188,0.15625l-0.21875-0.1875v-0.03125c-0.38966-0.36906-0.93862-0.46138-1.4375-0.40625s-0.99452,0.25252-1.4062,0.625c-0.41586,0.37634-0.6692,0.87477-0.75,1.375s0.04384,1.0521,0.4375,1.4375l0.062,0.094c2.7687,2.8165,2.4484,7.4414-0.84375,10.406-3.3117,2.9881-8.3572,3.0834-11.188,0.3125l-0.03-0.03-30.532-31.592c-2.8243-2.796-2.5197-7.47,0.8126-10.469,3.2872-2.965,8.3212-3.075,11.156-0.344v0.03125l0.09375,0.0625,0.031,0.032v-0.031c0.3892,0.37104,0.93802,0.51759,1.4375,0.46875,0.50932-0.0498,0.99136-0.24816,1.4062-0.625,0.41233-0.37165,0.6987-0.84733,0.78125-1.3438,0.08255-0.49642-0.03119-1.0469-0.40625-1.4375h-0.03125l-0.188-0.188c-1.9482-1.9323-1.7243-5.1242,0.5625-7.1875,1.906-1.7162,4.6446-2.0295,6.625-0.96875l0.375,0.188,0.313-0.281,21.25-19.156,0.344-0.313-0.219-0.406c-1.0123-1.8881-0.56796-4.3971,1.3438-6.125,2.2971-2.0645,5.7574-2.1211,7.7188-0.1875l0.21875,0.21875c0.38775,0.36725,0.90841,0.49331,1.4062,0.4375,0.49784-0.05581,0.99114-0.28633,1.4062-0.65625h0.03125c0.41328-0.37469,0.66941-0.84397,0.75-1.3438,0.08059-0.49978-0.04887-1.0496-0.4375-1.4375l-0.09375-0.09375c-2.7687-2.8165-2.4219-7.4725,0.875-10.438,1.662-1.4996,3.7515-2.267,5.7812-2.3125z" /><path
     id="path3739"
     fill-rule="nonzero"
     style="block-progression:tb;color:#000000;direction:ltr;text-indent:0;text-align:start;enable-background:accumulate;text-transform:none;"
     fill="#8c531b"
     d="m200.25,188.22c-3.0428-0.0686-6.1152,0.97548-8.5,3.125l-0.25,0.21875,0.0312,0.0937c-4.4832,4.3044-4.6325,11.243-0.1875,15.656,4.529,4.4933,12.074,4.6744,16.844,0.375,4.7562-4.2876,4.9292-11.472,0.375-15.969-2.2644-2.2557-5.2697-3.4314-8.3125-3.5zm-0.0312,1.1875c2.7496,0.0618,5.4964,1.1293,7.5312,3.1562,4.0932,4.0413,3.9045,10.392-0.375,14.25-4.2926,3.8691-11.118,3.6938-15.188-0.34375-4.083-4.0535-3.916-10.404,0.375-14.25,2.1465-1.9347,4.9067-2.8743,7.6562-2.8125z" /><path
     style="font-size:medium;font-style:normal;font-variant:normal;font-weight:normal;font-stretch:normal;text-indent:0;text-align:start;text-decoration:none;line-height:normal;letter-spacing:normal;word-spacing:normal;text-transform:none;direction:ltr;block-progression:tb;writing-mode:lr-tb;text-anchor:start;color:#000000;fill:#000000;fill-opacity:1;fill-rule:nonzero;stroke:none;stroke-width:1;marker:none;visibility:visible;display:inline;overflow:visible;enable-background:accumulate;font-family:Bitstream Vera Sans;-inkscape-font-specification:Bitstream Vera Sans"
     d="m 159.71875,51.1875 -0.1875,0.90625 c -0.39194,1.93421 -1.14976,4.499348 -1.8125,6.9375 -0.60453,2.223994 -1.05577,4.212536 -1.125,5.8125 -48.38411,-7.199171 -95.340031,23.233118 -108.0625,71.71875 l -0.03125,0 c -6.701836,26.28564 -1.850224,52.88542 11.3125,74.375 0.02428,0.0396 0.03817,0.0854 0.0625,0.125 l 0.90625,-0.40625 C 56.795971,197.23948 56.242164,182.636 59.9375,168.125 c 9.878244,-38.76148 46.64213,-63.60242 85.28125,-59.84375 l -3.09375,12.1875 -0.21875,0.84375 0.84375,-0.21875 68,-19.125 0.84375,-0.21875 -0.625,-0.59375 -50.59375,-49.3125 -0.65625,-0.65625 z m 0.5625,1.96875 49.40625,48.09375 -66.375,18.625 3.03125,-11.9375 0.15625,-0.5625 -0.59375,-0.0625 c -39.34331,-4.12551 -76.886543,21.12331 -86.9375,60.5625 -3.425369,13.45088 -3.088003,26.94591 0.0625,39.5625 C 47.31242,186.70576 43.166629,161.65297 49.5,136.8125 l -0.03125,0 C 62.104903,88.655823 108.88778,58.51475 156.9375,65.90625 l 0.5625,0.0625 0,-0.5625 c -0.021,-1.379862 0.52974,-3.705152 1.1875,-6.125 0.57814,-2.126921 1.16455,-4.25017 1.59375,-6.125 z"
     id="path2848" /></svg>