<?xml version="1.0"?>
<?metis version="3.4"?>
<?metisxml version="1.1"?>
<!DOCTYPE svg  PUBLIC "-//W3C//DTD SVG August 1999//EN"
 "http://www.w3.org/Graphics/SVG/svg-19990812.dtd">

<svg width="200" height="200">
 <title>Symbol library: portal.svg</title>
 <defs>
  <symbol id="oid0" xml:space="preserve" class="METIS_SYMBOL">
   <title>Portal</title>
    <g>
      <polygon points="8 243.683 16.2581 251.81 115.355 251.81 
       123.613 243.683 123.613 16.127 115.355 8 16.2581 8 
       8 16.127 8 243.683 8 243.683 8 243.683 
       8 243.683 8 243.683 "
       style=" stroke:#000000; stroke-width:1; fill:#000000; fill-opacity:100%"       class="TAG:polygon"></polygon>
      <polyline points="107.355 0 111.484 4.06349 111.484 231.619 
       103.226 239.746 4.12903 239.746 0 235.683"
       style=" stroke:#000000; stroke-width:1;"       class="TAG:polyline"></polyline>
      <polygon points="0 235.683 8.25806 243.81 107.355 243.81 
       115.613 235.683 115.613 8.12698 107.355 0 8.25806 0 
       0 8.12698 0 235.683 0 235.683 0 235.683 
       0 235.683 0 235.683 "
       style=" stroke:#000000; stroke-width:1; fill:#ffff6e; fill-opacity:100%"       class="TAG:canvas"></polygon>
      <g>
	<desc>METIS_TEXT_GROUP</desc>
	<text  x="8.25806" y="23.127"
	 style=" stroke:#000000; stroke-width:1; font-family:sans-serif; font-size:16; vertical-align:middle;"
	 class="TAG:text">text</text>
	<rect x="8.25806" y="8.12698" width="99.0968" height="227.556"
	 style=" stroke:#000000; stroke-width:1; fill:#ffff6e; fill-opacity:100%"></rect>
      </g>
    </g>
  </symbol>
 </defs>
</svg>
