<?xml version="1.0"?>
<?metis version="3.1"?>
<?metisxml version="1.0"?>
<!DOCTYPE svg  PUBLIC "-//W3C//DTD SVG August 1999//EN"
 "http://www.w3.org/Graphics/SVG/svg-19990812.dtd">

<svg width="200" height="200">
 <title>Symbol library: printer.svg</title>
 <defs>
  <symbol id="oid1" xml:space="preserve" class="METIS_SYMBOL">
   <title>Printer</title>
    <g>
      <polygon points="0 0 0 304 16.2963 320 
       880 320 880 16 863.704 0 0 0 
       0 0 0 0 0 0 0 0 
       0 0 0 0 0 0 0 0 
       0 0 0 0 0 0 "
       style=" stroke:#000000; stroke-width:1; fill:#9b9b9b; fill-opacity:100%"       class="TAG:shadow"></polygon>
      <rect x="0" y="0" width="240" height="304"
       style=" stroke:#000000; stroke-width:1; fill:#ffffa5; fill-opacity:100%"       class="TAG:PictureBackground"></rect>
      <rect x="240" y="0" width="624" height="304"
       style=" stroke:#000000; stroke-width:1; fill:#9b9b9b; fill-opacity:100%"       class="TAG:canvas"></rect>
      <g>
	<desc>METIS_TEXT_GROUP</desc>
	<text  x="256" y="15.8"
	 style=" stroke:#000000; stroke-width:1; font-family:sans-serif; font-size:16;"
	 class="TAG:text">text</text>
	<rect x="256" y="0" width="608" height="304"
	 style=" stroke:#000000; stroke-width:1; fill:#ffffff; fill-opacity:0%"></rect>
      </g>
      <polyline points="880 320 864 304"
       style=" stroke:#000000; stroke-width:1;"></polyline>
      <g>
	<polygon points="17.0376 142.604 16.6916 143.122 16.3456 144.674 
	 37.8033 227.488 64.1062 268.377 64.4521 268.895 64.7981 269.412 
	 65.1444 269.93 65.8366 270.447 66.5288 270.965 67.2207 271.482 
	 67.9132 271.482 68.6051 272 69.2975 272 69.9896 272 
	 70.3358 272 71.028 271.482 71.7199 271.482 72.4122 271.482 
	 72.7584 271.482 73.4506 270.965 73.7966 270.447 127.441 235.77 
	 131.594 239.911 220.193 175.73 220.885 175.212 221.231 174.695 
	 221.924 174.177 222.616 173.66 223.309 173.142 223.654 172.624 
	 224 170.036 223.654 169.518 223.654 169.001 223.654 168.483 
	 223.654 129.665 223.654 129.147 223.654 128.63 223.654 127.595 
	 223.654 126.559 223.654 126.042 223.654 125.007 223.654 124.489 
	 223.654 123.972 223.309 123.454 223.309 122.936 222.962 122.418 
	 222.616 121.901 221.924 121.384 221.231 120.866 220.54 120.348 
	 219.847 119.831 218.808 119.313 218.117 118.278 217.424 117.243 
	 216.04 114.655 213.964 112.585 211.886 110.514 209.465 108.444 
	 207.042 106.373 204.619 104.303 201.85 102.75 199.081 101.198 
	 196.312 99.6451 193.198 98.6098 190.429 98.0922 187.66 97.5748 
	 184.892 97.0571 182.123 97.5748 179.701 97.5748 157.897 88.2582 
	 17.0376 142.604 17.0376 142.604 17.0376 142.604 17.0376 142.604 
	 17.0376 142.604 17.0376 142.604 17.0376 142.604 "
	 style=" stroke:#000000; stroke-width:1; fill:#ffffff; fill-opacity:100%"></polygon>
	<polyline points="58.4984 133.161 85.7942 121.807"
	 style=" stroke:#000000; stroke-width:1;"></polyline>
	<polygon points="18.4336 203.598 18.4336 203.081 17.7383 202.562 
	 17.3906 201.526 17.043 201.008 16.6954 200.49 16.6954 199.454 
	 16.6954 198.936 16.3477 198.416 16.3477 197.38 16.3477 196.862 
	 16 196.344 16 195.308 16 194.79 16 194.271 
	 16 193.234 16 192.716 16 147.116 16 146.598 
	 16 146.079 16 145.043 16 144.524 16.3477 144.006 
	 16.3477 143.488 16.6954 142.97 17.043 142.452 17.043 143.488 
	 16.6954 143.488 16.6954 144.524 16.6954 145.043 17.043 145.561 
	 17.043 146.598 17.7383 147.116 64.6726 202.562 64.6726 203.081 
	 65.368 203.598 65.7157 204.118 66.0633 204.636 66.411 204.636 
	 66.7586 205.154 67.1063 205.154 67.4538 205.154 67.8015 205.154 
	 68.1492 205.154 68.4969 205.154 68.8444 205.672 69.1921 206.19 
	 69.1921 206.708 69.5401 206.708 69.5401 207.744 69.5401 267.337 
	 69.5401 267.855 69.5401 268.374 69.8877 268.892 69.8877 269.928 
	 70.2352 270.446 70.5829 270.964 70.9306 271.482 71.6258 271.482 
	 71.9735 271.482 71.6258 271.482 70.9306 272 70.2352 272 
	 69.5401 272 68.8444 272 68.1492 271.482 67.4538 271.482 
	 66.7586 270.964 66.411 270.964 65.7157 270.446 65.368 269.928 
	 64.6726 269.41 64.3249 268.892 63.9772 268.374 63.6295 267.855 
	 63.2819 267.337 62.9344 266.818 18.4336 203.598 18.4336 203.598 
	 18.4336 203.598 18.4336 203.598 18.4336 203.598 18.4336 203.598 18.4336 203.598 "
	 style=" stroke:#ababab; stroke-width:1; fill:#ababab; fill-opacity:100%"></polygon>
	<polyline points="78.5383 206.969 221.924 130.085 222.27 130.085 
	 222.616 129.565 222.962 129.565 223.309 129.046 223.655 128.526 
	 223.655 128.007 223.655 127.487 223.655 126.968"
	 style=" stroke:#000000; stroke-width:1;"></polyline>
	<polyline points="16 193.033 16 193.552 16 194.072 
	 16.348 194.592 16.6961 195.112 16.6961 195.632 17.0441 196.151 
	 17.3922 196.671 17.7402 196.671 62.6395 261.118 62.6395 262.677 
	 62.6395 263.198 62.6395 263.717 62.6395 264.757 62.6395 265.276 
	 62.9876 265.797 62.9876 266.316 62.9876 266.835 63.3355 267.356"
	 style=" stroke:#000000; stroke-width:1;"></polyline>
	<polyline points="16 149.162 16 149.681 16.3478 150.202 
	 16.3478 150.722 16.6955 151.243 16.6955 151.763 17.391 152.284 
	 17.391 152.803 64.3385 210.556 64.6863 211.076 65.034 211.076 
	 65.3819 212.116 66.0773 212.637 66.425 213.157 67.1206 213.678 
	 67.4683 213.678 67.816 213.678 68.1639 213.678 68.5116 213.157 
	 68.8593 213.157 69.5549 212.637"
	 style=" stroke:#000000; stroke-width:1;"></polyline>
	<polygon points="31.8937 160.523 67.8274 202.839 67.4784 200.226 
	 66.7809 198.137 65.7344 193.435 63.9899 188.734 62.2454 184.554 
	 60.5009 180.375 58.0589 176.718 55.9659 173.061 53.1748 170.449 
	 50.7328 167.314 47.9418 165.224 45.4996 163.135 42.7086 161.567 
	 39.9176 160.523 37.1267 160.001 34.6846 160.001 31.8937 160.523 
	 31.8937 160.523 31.8937 160.523 31.8937 160.523 31.8937 160.523 
	 31.8937 160.523 31.8937 160.523 "
	 style=" stroke:#ababab; stroke-width:1; fill:#ababab; fill-opacity:100%"></polygon>
	<polyline points="67.1361 202.839 220.199 122.342 218.814 119.226"
	 style=" stroke:#ababab; stroke-width:1;"></polyline>
	<polyline points="31.8937 161.032 76.1196 141.936"
	 style=" stroke:#000000; stroke-width:1;"></polyline>
	<polyline points="179.774 97.5486 161.808 105.807"
	 style=" stroke:#000000; stroke-width:1;"></polyline>
	<polygon points="71.628 144.349 75.7855 144.349 79.25 143.829 
	 92.762 153.715 94.4944 163.6 95.1874 165.162 198.086 115.213 
	 196.701 114.173 195.661 112.612 193.582 110.531 191.157 108.97 
	 189.078 106.889 187.346 105.848 185.267 104.287 183.535 103.247 
	 181.803 102.726 180.071 102.206 178.684 101.686 176.953 101.166 
	 175.913 101.166 174.527 100.645 173.488 100.645 172.795 100.645 
	 171.755 101.166 71.628 144.349 71.628 144.349 71.628 144.349 
	 71.628 144.349 71.628 144.349 71.628 144.349 71.628 144.349 "
	 style=" stroke:#000000; stroke-width:1; fill:#000000; fill-opacity:100%"></polygon>
	<polygon points="75.4286 144.353 75.7751 144.353 76.1217 144.353 
	 77.1611 144.353 78.2007 144.874 79.2401 144.874 80.2798 145.915 
	 81.6659 146.435 83.0519 147.476 84.4378 148.517 85.824 149.558 
	 87.21 151.12 88.5959 153.202 89.982 154.764 91.3679 156.847 
	 92.4075 158.929 93.4471 161.011 94.4865 163.614 196.013 114.682 
	 194.627 113.641 193.587 112.6 191.162 110.518 189.083 108.956 
	 187.004 107.395 184.926 105.833 183.193 105.313 181.459 104.271 
	 179.728 103.751 178.342 103.23 176.955 102.71 175.569 102.71 
	 174.529 102.71 173.49 102.71 172.798 102.71 172.104 102.71 
	 171.411 103.23 75.4286 144.353 75.4286 144.353 75.4286 144.353 
	 75.4286 144.353 75.4286 144.353 75.4286 144.353 75.4286 144.353 "
	 style=" stroke:#000000; stroke-width:1; fill:#020285; fill-opacity:100%"></polygon>
	<polygon points="92.3687 158.452 111.507 149.468 112.551 148.941 
	 113.594 148.413 114.986 147.883 116.378 147.356 117.422 146.826 
	 118.466 146.826 119.162 146.299 119.51 146.299 119.858 146.299 
	 120.206 146.826 120.206 147.356 120.206 147.883 120.206 148.413 
	 120.206 148.941 120.206 149.468 140.04 139.957 140.04 138.9 
	 139.693 138.372 139.344 137.315 138.648 136.786 137.604 136.258 
	 136.561 136.258 135.169 136.258 133.776 136.786 132.037 137.315 
	 130.297 137.843 128.209 138.9 126.122 139.957 123.686 141.015 
	 121.25 142.072 118.466 143.657 115.682 144.712 112.899 146.299 
	 90.9768 156.339 92.3687 158.452 92.3687 158.452 92.3687 158.452 
	 92.3687 158.452 92.3687 158.452 92.3687 158.452 92.3687 158.452 "
	 style=" stroke:#ffffff; stroke-width:1; fill:#ffffff; fill-opacity:100%"></polygon>
	<polygon points="89.5987 154.323 114.27 143.232 115.66 142.704 
	 117.05 141.648 119.83 140.591 122.263 139.535 124.695 138.48 
	 127.127 137.423 129.212 136.367 131.297 135.839 133.035 135.31 
	 134.773 135.31 136.51 134.782 137.9 134.782 138.942 135.31 
	 139.984 135.839 140.679 136.895 141.374 137.95 141.722 139.007 
	 149.714 135.31 149.367 134.782 149.367 134.254 148.325 133.198 
	 147.282 132.141 145.545 132.141 143.806 131.613 141.722 132.141 
	 139.637 132.141 137.205 132.669 134.425 133.726 131.644 134.782 
	 128.865 135.839 125.738 136.895 122.611 137.95 119.483 139.007 
	 116.703 140.591 113.575 142.176 88.9037 153.266 89.5987 154.323 
	 89.5987 154.323 89.5987 154.323 89.5987 154.323 89.5987 154.323 
	 89.5987 154.323 89.5987 154.323 "
	 style=" stroke:#ffffff; stroke-width:1; fill:#ffffff; fill-opacity:100%"></polygon>
	<polygon points="70.937 194.903 71.6502 198.194 81.9935 192.71 
	 81.2801 189.42 70.937 194.903 70.937 194.903 70.937 194.903 
	 70.937 194.903 70.937 194.903 70.937 194.903 70.937 194.903 "
	 style=" stroke:#000000; stroke-width:1; fill:#00ff00; fill-opacity:100%"></polygon>
	<polygon points="203.27 126.264 203.631 128.516 210.87 124.575 
	 210.147 122.323 203.27 126.264 203.27 126.264 203.27 126.264 
	 203.27 126.264 203.27 126.264 203.27 126.264 203.27 126.264 "
	 style=" stroke:#000000; stroke-width:1; fill:#000000; fill-opacity:100%"></polygon>
	<polygon points="131.057 240.001 131.057 235.315 215.017 180.646 
	 215.017 184.29 131.057 240.001 131.057 240.001 131.057 240.001 
	 131.057 240.001 131.057 240.001 131.057 240.001 131.057 240.001 "
	 style=" stroke:#000000; stroke-width:1; fill:#ffffff; fill-opacity:100%"></polygon>
	<polygon points="131.089 235.355 122.419 226.005 122.419 200.553 
	 125.54 203.67 210.161 154.323 210.161 177.178 215.017 180.814 
	 131.089 235.355 131.089 235.355 131.089 235.355 131.089 235.355 
	 131.089 235.355 131.089 235.355 131.089 235.355 "
	 style=" stroke:#000000; stroke-width:1; fill:#ababab; fill-opacity:100%"></polygon>
	<polygon points="210.18 177.549 178.392 172.799 209.83 154.323 
	 210.18 177.549 210.18 177.549 210.18 177.549 210.18 177.549 
	 210.18 177.549 210.18 177.549 210.18 177.549 "
	 style=" stroke:#000000; stroke-width:1; fill:#000000; fill-opacity:100%"></polygon>
	<polygon points="122.419 218.839 130.366 226.868 130.366 233.29 
	 122.419 224.727 122.419 218.839 122.419 218.839 122.419 218.839 
	 122.419 218.839 122.419 218.839 122.419 218.839 122.419 218.839 "
	 style=" stroke:#000000; stroke-width:1; fill:#000000; fill-opacity:100%"></polygon>
	<polyline points="122.764 220.388 129.674 227.614"
	 style=" stroke:#ffffff; stroke-width:1;"></polyline>
	<polyline points="127.946 235.872 122.073 229.91 122.073 225.033"
	 style=" stroke:#000000; stroke-width:1;"></polyline>
	<polygon points="122.073 226.065 123.801 227.2 123.801 231.742 
	 122.073 230.039 122.073 226.065 122.073 226.065 122.073 226.065 
	 122.073 226.065 122.073 226.065 122.073 226.065 122.073 226.065 "
	 style=" stroke:#000000; stroke-width:1; fill:#000000; fill-opacity:100%"></polygon>
	<polygon points="122.419 200.66 122.419 189.42 125.528 203.871 
	 122.419 200.66 122.419 200.66 122.419 200.66 122.419 200.66 
	 122.419 200.66 122.419 200.66 122.419 200.66 "
	 style=" stroke:#000000; stroke-width:1; fill:#000000; fill-opacity:100%"></polygon>
	<polyline points="122.419 189.935 206.365 143.484 209.835 154.445"
	 style=" stroke:#000000; stroke-width:1;"></polyline>
	<polygon points="126.916 199.226 125.528 191.928 205.336 147.097 
	 207.069 152.832 126.916 199.226 126.916 199.226 126.916 199.226 
	 126.916 199.226 126.916 199.226 126.916 199.226 126.916 199.226 "
	 style=" stroke:#000000; stroke-width:1; fill:#ababab; fill-opacity:100%"></polygon>
	<polygon points="142.934 186.322 143.322 186.322 143.711 186.322 
	 144.1 186.897 144.488 187.469 144.488 188.043 144.877 188.617 
	 144.877 189.191 144.877 189.763 144.488 190.338 144.488 190.911 
	 144.1 191.485 143.711 191.485 143.711 191.485 143.322 191.485 
	 142.934 191.485 142.545 190.911 142.157 190.338 141.768 189.763 
	 141.768 189.191 141.768 189.191 141.768 188.617 141.768 188.043 
	 142.157 187.469 142.545 186.897 142.934 186.322 142.934 186.322 
	 142.934 186.322 142.934 186.322 142.934 186.322 142.934 186.322 
	 142.934 186.322 142.934 186.322 "
	 style=" stroke:#000000; stroke-width:1; fill:#ababab; fill-opacity:100%"></polygon>
	<polygon points="142.113 188.904 142.113 188.215 142.113 187.527 
	 142.632 186.839 143.149 186.839 142.632 187.527 142.632 188.215 
	 142.632 188.904 142.113 188.904 142.113 188.904 142.113 188.904 
	 142.113 188.904 142.113 188.904 142.113 188.904 142.113 188.904 142.113 188.904 "
	 style=" stroke:#ffffff; stroke-width:1; fill:#ffffff; fill-opacity:100%"></polygon>
	<polygon points="143.149 191.485 143.61 190.882 144.071 190.28 
	 144.071 189.677 144.532 189.075 144.532 188.473 144.532 187.872 
	 144.532 188.473 144.532 189.075 144.532 189.677 144.071 190.28 
	 144.071 190.882 143.61 191.485 143.149 191.485 143.149 191.485 
	 143.149 191.485 143.149 191.485 143.149 191.485 143.149 191.485 143.149 191.485 "
	 style=" stroke:#ffffff; stroke-width:1; fill:#ffffff; fill-opacity:100%"></polygon>
	<polygon points="151.887 181.161 152.676 181.161 153.071 181.161 
	 153.466 181.735 153.466 182.308 153.86 182.882 153.86 183.455 
	 153.86 184.029 153.86 184.602 153.86 185.176 153.466 185.749 
	 153.071 185.749 152.676 186.322 152.281 186.322 151.887 185.749 
	 151.491 185.749 151.491 185.176 151.096 184.602 151.096 184.029 
	 151.096 183.455 151.096 182.882 151.096 182.308 151.491 181.735 
	 151.887 181.161 151.887 181.161 151.887 181.161 151.887 181.161 
	 151.887 181.161 151.887 181.161 151.887 181.161 151.887 181.161 "
	 style=" stroke:#000000; stroke-width:1; fill:#ababab; fill-opacity:100%"></polygon>
	<polygon points="151.096 183.742 151.557 183.054 151.557 182.366 
	 152.018 181.678 152.479 181.678 152.018 182.366 152.018 183.054 
	 152.018 183.742 151.557 183.742 151.096 183.742 151.096 183.742 
	 151.096 183.742 151.096 183.742 151.096 183.742 151.096 183.742 151.096 183.742 "
	 style=" stroke:#ffffff; stroke-width:1; fill:#ffffff; fill-opacity:100%"></polygon>
	<polygon points="152.134 185.807 152.593 185.807 153.054 185.188 
	 153.515 184.568 153.515 183.949 153.515 183.33 153.515 182.709 
	 153.515 183.33 153.515 183.949 153.515 184.568 153.515 185.188 
	 153.054 185.807 152.593 185.807 152.134 185.807 152.134 185.807 
	 152.134 185.807 152.134 185.807 152.134 185.807 152.134 185.807 152.134 185.807 "
	 style=" stroke:#ffffff; stroke-width:1; fill:#ffffff; fill-opacity:100%"></polygon>
	<polygon points="161.611 176 162.005 176 162.4 176 
	 162.795 176.581 163.19 177.161 163.19 177.742 163.19 177.742 
	 163.19 178.903 163.19 179.484 163.19 180.065 162.795 180.646 
	 162.4 180.646 162.005 180.646 161.611 180.646 161.215 180.646 
	 160.82 180.065 160.425 179.484 160.425 178.903 160.425 178.323 
	 160.425 177.742 160.425 177.161 160.82 176.581 161.215 176 
	 161.611 176 161.611 176 161.611 176 161.611 176 
	 161.611 176 161.611 176 161.611 176 "
	 style=" stroke:#000000; stroke-width:1; fill:#ababab; fill-opacity:100%"></polygon>
	<polygon points="160.425 178.581 160.886 177.204 160.886 177.204 
	 161.347 176.516 161.808 176.516 161.347 176.516 161.347 177.204 
	 161.347 177.893 160.886 178.581 160.425 178.581 160.425 178.581 
	 160.425 178.581 160.425 178.581 160.425 178.581 160.425 178.581 160.425 178.581 "
	 style=" stroke:#ffffff; stroke-width:1; fill:#ffffff; fill-opacity:100%"></polygon>
	<polygon points="161.808 180.646 162.268 180.026 162.729 179.407 
	 162.729 178.788 162.729 178.168 162.729 177.549 163.19 178.168 
	 162.729 178.788 162.729 179.407 162.729 180.026 162.268 180.646 
	 161.808 180.646 161.808 180.646 161.808 180.646 161.808 180.646 
	 161.808 180.646 161.808 180.646 161.808 180.646 "
	 style=" stroke:#ffffff; stroke-width:1; fill:#ffffff; fill-opacity:100%"></polygon>
	<polygon points="170.247 170.84 170.643 170.84 171.038 171.413 
	 171.433 171.413 171.827 171.986 171.827 172.56 171.827 173.133 
	 171.827 173.707 171.827 174.28 171.827 174.854 171.433 175.427 
	 171.038 176 171.038 176 170.247 176 169.853 175.427 
	 169.458 175.427 169.458 174.854 169.063 174.28 169.063 173.707 
	 169.063 173.133 169.063 172.56 169.063 171.986 169.458 171.413 
	 169.853 170.84 170.247 170.84 170.247 170.84 170.247 170.84 
	 170.247 170.84 170.247 170.84 170.247 170.84 170.247 170.84 "
	 style=" stroke:#000000; stroke-width:1; fill:#ababab; fill-opacity:100%"></polygon>
	<polygon points="169.408 173.42 169.408 172.732 169.408 172.043 
	 169.927 171.355 170.445 171.355 169.927 172.043 169.927 172.732 
	 169.927 173.42 169.408 173.42 169.408 173.42 169.408 173.42 
	 169.408 173.42 169.408 173.42 169.408 173.42 169.408 173.42 169.408 173.42 "
	 style=" stroke:#ffffff; stroke-width:1; fill:#ffffff; fill-opacity:100%"></polygon>
	<polygon points="170.445 175.484 170.445 175.484 170.964 174.839 
	 171.482 174.194 171.482 172.903 171.482 172.903 171.482 172.903 
	 171.482 173.549 171.482 174.194 171.482 174.839 170.964 175.484 
	 170.445 175.484 170.445 175.484 170.445 175.484 170.445 175.484 
	 170.445 175.484 170.445 175.484 170.445 175.484 "
	 style=" stroke:#ffffff; stroke-width:1; fill:#ffffff; fill-opacity:100%"></polygon>
	<polygon points="178.176 166.194 178.565 166.194 178.954 166.194 
	 179.343 166.768 179.731 167.341 179.731 167.914 180.119 168.488 
	 180.119 169.061 180.119 169.635 179.731 170.208 179.343 170.782 
	 178.954 171.355 178.954 171.355 178.565 171.355 178.176 171.355 
	 177.787 170.782 177.399 170.208 177.01 169.635 177.01 169.061 
	 177.01 168.488 177.01 167.914 177.399 167.341 177.399 166.768 
	 177.787 166.194 178.176 166.194 178.176 166.194 178.176 166.194 
	 178.176 166.194 178.176 166.194 178.176 166.194 178.176 166.194 "
	 style=" stroke:#000000; stroke-width:1; fill:#ababab; fill-opacity:100%"></polygon>
	<polygon points="177.356 168.775 177.356 168.087 177.356 167.398 
	 177.874 166.71 178.392 166.71 177.874 167.398 177.874 168.087 
	 177.874 168.775 177.356 168.775 177.356 168.775 177.356 168.775 
	 177.356 168.775 177.356 168.775 177.356 168.775 177.356 168.775 177.356 168.775 "
	 style=" stroke:#ffffff; stroke-width:1; fill:#ffffff; fill-opacity:100%"></polygon>
	<polygon points="178.392 170.84 178.852 170.84 179.313 170.193 
	 179.313 169.549 179.313 168.258 179.313 168.258 179.774 168.904 
	 179.774 168.904 179.313 169.549 179.313 170.193 178.852 170.84 
	 178.392 170.84 178.392 170.84 178.392 170.84 178.392 170.84 
	 178.392 170.84 178.392 170.84 178.392 170.84 "
	 style=" stroke:#ffffff; stroke-width:1; fill:#ffffff; fill-opacity:100%"></polygon>
	<polygon points="186.487 162.064 186.881 162.064 187.277 162.064 
	 187.672 162.645 187.672 162.645 188.067 163.226 188.067 163.807 
	 188.067 164.388 188.067 164.969 187.672 165.548 187.672 166.129 
	 187.277 166.71 186.881 166.71 186.487 166.129 186.092 166.129 
	 185.697 165.548 185.697 164.969 185.303 164.388 185.303 163.807 
	 185.697 163.226 185.697 162.645 186.092 162.064 186.487 162.064 
	 186.487 162.064 186.487 162.064 186.487 162.064 186.487 162.064 
	 186.487 162.064 186.487 162.064 "
	 style=" stroke:#000000; stroke-width:1; fill:#ababab; fill-opacity:100%"></polygon>
	<polygon points="185.648 164.129 185.648 163.355 186.166 162.581 
	 186.684 162.581 186.684 162.581 186.166 162.581 186.166 163.355 
	 186.166 164.129 185.648 164.129 185.648 164.129 185.648 164.129 
	 185.648 164.129 185.648 164.129 185.648 164.129 185.648 164.129 185.648 164.129 "
	 style=" stroke:#ffffff; stroke-width:1; fill:#ffffff; fill-opacity:100%"></polygon>
	<polygon points="186.684 166.194 187.203 166.194 187.721 165.574 
	 187.721 164.955 187.721 164.336 187.721 163.097 187.721 163.716 
	 187.721 164.955 187.721 164.955 187.721 165.574 187.203 166.194 
	 186.684 166.194 186.684 166.194 186.684 166.194 186.684 166.194 
	 186.684 166.194 186.684 166.194 186.684 166.194 "
	 style=" stroke:#ffffff; stroke-width:1; fill:#ffffff; fill-opacity:100%"></polygon>
	<polygon points="193.397 157.936 193.793 157.936 194.187 157.936 
	 194.582 158.517 194.582 158.517 194.977 159.677 194.977 159.677 
	 194.977 160.258 194.977 161.42 194.582 162 194.582 162.581 
	 194.187 162.581 193.793 162.581 193.397 162.581 193.002 162 
	 192.607 161.42 192.213 160.839 192.213 160.258 192.213 159.677 
	 192.213 159.096 192.607 158.517 193.002 157.936 193.397 157.936 
	 193.397 157.936 193.397 157.936 193.397 157.936 193.397 157.936 
	 193.397 157.936 193.397 157.936 "
	 style=" stroke:#000000; stroke-width:1; fill:#ababab; fill-opacity:100%"></polygon>
	<polygon points="192.558 160.001 192.558 159.226 192.558 159.226 
	 193.077 158.452 193.595 158.452 193.077 158.452 193.077 159.226 
	 193.077 160.001 192.558 160.001 192.558 160.001 192.558 160.001 
	 192.558 160.001 192.558 160.001 192.558 160.001 192.558 160.001 192.558 160.001 "
	 style=" stroke:#ffffff; stroke-width:1; fill:#ffffff; fill-opacity:100%"></polygon>
	<polygon points="193.595 162.581 194.113 161.961 194.632 161.342 
	 194.632 160.723 194.632 160.103 194.632 159.484 194.632 160.103 
	 194.632 160.723 194.632 161.342 194.113 161.961 193.595 162.581 
	 193.595 162.581 193.595 162.581 193.595 162.581 193.595 162.581 
	 193.595 162.581 193.595 162.581 193.595 162.581 "
	 style=" stroke:#ffffff; stroke-width:1; fill:#ffffff; fill-opacity:100%"></polygon>
	<polygon points="199.617 154.323 200.011 154.323 200.406 154.323 
	 200.801 154.904 200.801 155.485 201.197 156.064 201.197 156.064 
	 201.197 156.645 201.197 157.226 200.801 157.807 200.801 158.388 
	 200.406 158.968 200.011 158.968 199.617 158.388 199.222 158.388 
	 198.827 157.807 198.827 157.226 198.433 156.645 198.433 156.064 
	 198.827 155.485 198.827 154.904 199.222 154.323 199.617 154.323 
	 199.617 154.323 199.617 154.323 199.617 154.323 199.617 154.323 
	 199.617 154.323 199.617 154.323 "
	 style=" stroke:#000000; stroke-width:1; fill:#ababab; fill-opacity:100%"></polygon>
	<polygon points="198.778 156.387 198.778 156.387 199.295 154.839 
	 199.295 154.839 199.814 154.839 199.295 154.839 199.295 155.613 
	 199.295 156.387 198.778 156.387 198.778 156.387 198.778 156.387 
	 198.778 156.387 198.778 156.387 198.778 156.387 198.778 156.387 "
	 style=" stroke:#ffffff; stroke-width:1; fill:#ffffff; fill-opacity:100%"></polygon>
	<polygon points="199.814 158.452 200.332 158.452 200.332 157.807 
	 200.851 157.162 200.851 156.517 200.851 155.871 200.851 155.871 
	 200.851 156.517 200.851 157.162 200.332 157.807 199.814 158.452 
	 199.814 158.452 199.814 158.452 199.814 158.452 199.814 158.452 
	 199.814 158.452 199.814 158.452 199.814 158.452 "
	 style=" stroke:#ffffff; stroke-width:1; fill:#ffffff; fill-opacity:100%"></polygon>
	<polygon points="128.752 195.098 129.213 195.098 129.674 195.742 
	 129.674 195.742 129.674 196.387 129.674 197.033 129.213 197.678 
	 128.752 197.678 128.293 197.033 128.293 196.387 128.293 195.742 
	 128.293 195.098 128.752 195.098 128.752 195.098 128.752 195.098 
	 128.752 195.098 128.752 195.098 128.752 195.098 128.752 195.098 "
	 style=" stroke:#000000; stroke-width:1; fill:#ff0016; fill-opacity:100%"></polygon>
	<polygon points="127.717 191.485 128.177 191.485 128.638 192.129 
	 128.638 192.774 128.638 193.42 128.638 194.065 128.177 194.065 
	 127.717 194.065 127.256 194.065 127.256 193.42 127.256 192.774 
	 127.256 192.129 127.717 191.485 127.717 191.485 127.717 191.485 
	 127.717 191.485 127.717 191.485 127.717 191.485 127.717 191.485 "
	 style=" stroke:#000000; stroke-width:1; fill:#ff0016; fill-opacity:100%"></polygon>
	<polygon points="128.293 196.646 128.293 195.613 128.983 195.613 
	 128.983 195.613 128.293 196.646 128.293 196.646 128.293 196.646 
	 128.293 196.646 128.293 196.646 128.293 196.646 128.293 196.646 "
	 style=" stroke:#ff00ff; stroke-width:1; fill:#ff00ff; fill-opacity:100%"></polygon>
	<polygon points="127.256 193.033 127.946 192 127.946 192 
	 127.946 193.033 127.256 193.033 127.256 193.033 127.256 193.033 
	 127.256 193.033 127.256 193.033 127.256 193.033 127.256 193.033 "
	 style=" stroke:#ff00ff; stroke-width:1; fill:#ff00ff; fill-opacity:100%"></polygon>
	<polygon points="128.638 197.161 129.329 196.387 129.329 195.613 
	 129.329 196.387 128.638 197.161 128.638 197.161 128.638 197.161 
	 128.638 197.161 128.638 197.161 128.638 197.161 128.638 197.161 128.638 197.161 "
	 style=" stroke:#ff00ff; stroke-width:1; fill:#ff00ff; fill-opacity:100%"></polygon>
	<polygon points="127.601 194.065 128.293 193.291 128.293 192.517 
	 128.293 193.291 128.293 194.065 127.601 194.065 127.601 194.065 
	 127.601 194.065 127.601 194.065 127.601 194.065 127.601 194.065 127.601 194.065 "
	 style=" stroke:#ff00ff; stroke-width:1; fill:#ff00ff; fill-opacity:100%"></polygon>
	<polygon points="140.04 185.268 140.387 186.839 201.197 151.757 
	 200.848 150.71 140.04 185.268 140.04 185.268 140.04 185.268 
	 140.04 185.268 140.04 185.268 140.04 185.268 140.04 185.268 "
	 style=" stroke:#000000; stroke-width:1; fill:#ffffff; fill-opacity:100%"></polygon>
	<polygon points="141.422 132.645 144.902 132.645 188.758 112.013 
	 188.061 111.484 141.422 132.645 141.422 132.645 141.422 132.645 
	 141.422 132.645 141.422 132.645 141.422 132.645 141.422 132.645 "
	 style=" stroke:#ffffff; stroke-width:1; fill:#ffffff; fill-opacity:100%"></polygon>
	<polyline points="85.103 263.226 85.4518 262.707 85.8006 262.186 
	 86.1491 261.667 86.4979 261.667 86.4979 261.148 86.4979 260.108 
	 86.4979 259.589 86.8466 259.068 86.8466 258.549 86.8466 209.691 
	 122.764 189.42"
	 style=" stroke:#000000; stroke-width:1;"></polyline>
	<polygon points="177.356 99.9573 179.527 98.5807 184.957 98.5807 
	 181.699 100.645 183.147 99.2691 179.89 99.2691 178.079 99.9573 
	 177.356 99.9573 177.356 99.9573 177.356 99.9573 177.356 99.9573 
	 177.356 99.9573 177.356 99.9573 177.356 99.9573 "
	 style=" stroke:#000000; stroke-width:1; fill:#000000; fill-opacity:100%"></polygon>
	<polygon points="180.604 100.129 180.604 99.0229 180.189 99.0229 
	 179.774 92.9402 181.018 92.3872 181.847 99.0229 181.018 99.0229 
	 181.432 100.129 180.604 100.129 180.604 100.129 180.604 100.129 
	 180.604 100.129 180.604 100.129 180.604 100.129 180.604 100.129 "
	 style=" stroke:#ababab; stroke-width:1; fill:#ababab; fill-opacity:100%"></polygon>
	<polygon points="179.774 92.3872 180.58 92.3872 181.79 92.3872 
	 182.193 99.0969 181.79 99.0969 180.983 92.3872 179.774 92.3872 
	 179.774 92.3872 179.774 92.3872 179.774 92.3872 179.774 92.3872 
	 179.774 92.3872 179.774 92.3872 "
	 style=" stroke:#ababab; stroke-width:1; fill:#ffffff; fill-opacity:100%"></polygon>
	<polygon points="31.2027 141.033 36.5255 138.839 44.3322 147.065 
	 42.9129 147.613 36.5255 140.484 32.2673 142.129 31.2027 141.033 
	 31.2027 141.033 31.2027 141.033 31.2027 141.033 31.2027 141.033 
	 31.2027 141.033 31.2027 141.033 "
	 style=" stroke:#ababab; stroke-width:1; fill:#ababab; fill-opacity:100%"></polygon>
	<polygon points="38.113 138.452 43.7868 136.258 51.5881 144.485 
	 50.1697 145.032 43.7868 137.904 39.1768 139.549 38.113 138.452 
	 38.113 138.452 38.113 138.452 38.113 138.452 38.113 138.452 
	 38.113 138.452 38.113 138.452 "
	 style=" stroke:#ababab; stroke-width:1; fill:#ababab; fill-opacity:100%"></polygon>
	<polyline points="87.5215 123.355 60.2259 134.71"
	 style=" stroke:#000000; stroke-width:1;"></polyline>
	<polyline points="88.9037 124.903 61.9535 136.258"
	 style=" stroke:#000000; stroke-width:1;"></polyline>
	<polyline points="90.9768 126.452 63.6811 137.806"
	 style=" stroke:#000000; stroke-width:1;"></polyline>
	<polyline points="93.3954 128 66.0997 140.387"
	 style=" stroke:#000000; stroke-width:1;"></polyline>
	<polyline points="95.4686 130.065 67.8274 141.936"
	 style=" stroke:#000000; stroke-width:1;"></polyline>
	<polygon points="81.0117 142.452 80.665 139.341 79.9719 136.748 
	 79.2784 131.043 78.5852 125.34 77.8917 119.117 77.5452 113.413 
	 76.8519 107.19 76.1586 100.967 75.4652 94.7449 74.772 89.0409 
	 74.0786 83.3368 73.0386 77.6329 71.652 72.4472 70.2653 67.7801 
	 68.532 63.1133 66.7988 59.4833 64.3721 55.8535 148.611 32 
	 150.691 32.5186 152.077 32.5186 155.197 34.5928 157.971 37.1856 
	 159.703 40.8153 161.437 44.9638 162.823 49.6308 163.517 54.8164 
	 164.211 60.0018 164.903 65.706 165.249 71.9285 165.597 77.6329 
	 165.943 83.8555 166.637 89.5596 167.329 94.7449 168.023 99.9306 
	 169.063 104.597 81.0117 142.452 81.0117 142.452 81.0117 142.452 
	 81.0117 142.452 81.0117 142.452 81.0117 142.452 81.0117 142.452 "
	 style=" stroke:#ababab; stroke-width:1; fill:#ffffff; fill-opacity:100%"></polygon>
	<polyline points="135.894 51.0968 152.134 45.9355"
	 style=" stroke:#000000; stroke-width:1;"></polyline>
	<polyline points="154.552 53.6775 137.967 59.3549"
	 style=" stroke:#000000; stroke-width:1;"></polyline>
	<polyline points="87.1762 91.3551 155.933 67.097"
	 style=" stroke:#000000; stroke-width:1;"></polyline>
	<polyline points="156.97 77.4195 90.2857 102.71"
	 style=" stroke:#000000; stroke-width:1;"></polyline>
	<polyline points="91.6677 114.065 158.007 88.2582"
	 style=" stroke:#000000; stroke-width:1;"></polyline>
	<polyline points="158.352 98.0645 93.741 125.419"
	 style=" stroke:#000000; stroke-width:1;"></polyline>
	<polyline points="90.2857 173.42 204.306 116.645"
	 style=" stroke:#000000; stroke-width:1;"></polyline>
      </g>
    </g>
  </symbol>
 </defs>
</svg>
