<?xml version="1.0" encoding="UTF-8" standalone="no"?>

<svg
 xmlns:dc="http://purl.org/dc/elements/1.1/"
   xmlns:cc="http://creativecommons.org/ns#"
   xmlns:rdf="http://www.w3.org/1999/02/22-rdf-syntax-ns#"
   xmlns:svg="http://www.w3.org/2000/svg"
   xmlns="http://www.w3.org/2000/svg"
   xmlns:xlink="http://www.w3.org/1999/xlink"
   xmlns:sodipodi="http://sodipodi.sourceforge.net/DTD/sodipodi-0.dtd"
   xmlns:inkscape="http://www.inkscape.org/namespaces/inkscape"
   id="svg2"
   version="1.1"
   inkscape:version="0.47 r22583"
   width="100"
   height="100"
   sodipodi:docname="printsettingsbutton.svg">
  <metadata
     id="metadata90">
    <rdf:RDF>
      <cc:Work
         rdf:about="">
        <dc:format>image/svg+xml</dc:format>
        <dc:type
           rdf:resource="http://purl.org/dc/dcmitype/StillImage" />
      </cc:Work>
    </rdf:RDF>
  </metadata>
  <defs
     id="defs88">
    <linearGradient
       inkscape:collect="always"
       id="linearGradient3718">
      <stop
         style="stop-color:#fff0ab;stop-opacity:1;"
         offset="0"
         id="stop3720" />
      <stop
         style="stop-color:#fff0ab;stop-opacity:0;"
         offset="1"
         id="stop3722" />
    </linearGradient>
    <linearGradient
       inkscape:collect="always"
       id="linearGradient3710">
      <stop
         style="stop-color:#fff0ab;stop-opacity:1;"
         offset="0"
         id="stop3712" />
      <stop
         style="stop-color:#fff0ab;stop-opacity:0;"
         offset="1"
         id="stop3714" />
    </linearGradient>
    <linearGradient
       inkscape:collect="always"
       id="linearGradient3702">
      <stop
         style="stop-color:#edce80;stop-opacity:1;"
         offset="0"
         id="stop3704" />
      <stop
         style="stop-color:#edce80;stop-opacity:0;"
         offset="1"
         id="stop3706" />
    </linearGradient>
    <linearGradient
       inkscape:collect="always"
       id="linearGradient3694">
      <stop
         style="stop-color:#edce80;stop-opacity:1;"
         offset="0"
         id="stop3696" />
      <stop
         style="stop-color:#edce80;stop-opacity:0;"
         offset="1"
         id="stop3698" />
    </linearGradient>
    <linearGradient
       inkscape:collect="always"
       id="linearGradient3686">
      <stop
         style="stop-color:#edce80;stop-opacity:1;"
         offset="0"
         id="stop3688" />
      <stop
         style="stop-color:#edce80;stop-opacity:0;"
         offset="1"
         id="stop3690" />
    </linearGradient>
    <linearGradient
       inkscape:collect="always"
       id="linearGradient3678">
      <stop
         style="stop-color:#ffffff;stop-opacity:1;"
         offset="0"
         id="stop3680" />
      <stop
         style="stop-color:#ffffff;stop-opacity:0;"
         offset="1"
         id="stop3682" />
    </linearGradient>
    <linearGradient
       inkscape:collect="always"
       id="linearGradient3670">
      <stop
         style="stop-color:#ffffff;stop-opacity:1;"
         offset="0"
         id="stop3672" />
      <stop
         style="stop-color:#ffffff;stop-opacity:0;"
         offset="1"
         id="stop3674" />
    </linearGradient>
    <inkscape:perspective
       sodipodi:type="inkscape:persp3d"
       inkscape:vp_x="0 : 0.5 : 1"
       inkscape:vp_y="0 : 1000 : 0"
       inkscape:vp_z="1 : 0.5 : 1"
       inkscape:persp3d-origin="0.5 : 0.33333333 : 1"
       id="perspective92" />
    <linearGradient
       inkscape:collect="always"
       xlink:href="#linearGradient3670"
       id="linearGradient3676"
       x1="367.18799"
       y1="265.62451"
       x2="757.81299"
       y2="265.62451"
       gradientUnits="userSpaceOnUse" />
    <linearGradient
       inkscape:collect="always"
       xlink:href="#linearGradient3678"
       id="linearGradient3684"
       x1="179.688"
       y1="722.65601"
       x2="578.12598"
       y2="722.65601"
       gradientUnits="userSpaceOnUse" />
    <linearGradient
       inkscape:collect="always"
       xlink:href="#linearGradient3686"
       id="linearGradient3692"
       x1="304.68799"
       y1="261.71899"
       x2="398.43799"
       y2="261.71899"
       gradientUnits="userSpaceOnUse" />
    <linearGradient
       inkscape:collect="always"
       xlink:href="#linearGradient3694"
       id="linearGradient3700"
       x1="750"
       y1="363.28101"
       x2="835.93799"
       y2="363.28101"
       gradientUnits="userSpaceOnUse" />
    <linearGradient
       inkscape:collect="always"
       xlink:href="#linearGradient3702"
       id="linearGradient3708"
       x1="710.93799"
       y1="609.37549"
       x2="835.93799"
       y2="609.37549"
       gradientUnits="userSpaceOnUse" />
    <linearGradient
       inkscape:collect="always"
       xlink:href="#linearGradient3710"
       id="linearGradient3716"
       x1="125"
       y1="609.375"
       x2="710.93799"
       y2="609.375"
       gradientUnits="userSpaceOnUse" />
    <linearGradient
       inkscape:collect="always"
       xlink:href="#linearGradient3718"
       id="linearGradient3724"
       x1="125"
       y1="453.125"
       x2="835.93799"
       y2="453.125"
       gradientUnits="userSpaceOnUse" />
  </defs>
  <sodipodi:namedview
     pagecolor="#ffffff"
     bordercolor="#666666"
     borderopacity="1"
     objecttolerance="10"
     gridtolerance="10"
     guidetolerance="10"
     inkscape:pageopacity="0"
     inkscape:pageshadow="2"
     inkscape:window-width="1280"
     inkscape:window-height="1002"
     id="namedview86"
     showgrid="false"
     inkscape:zoom="0.44851479"
     inkscape:cx="48.520894"
     inkscape:cy="384.88399"
     inkscape:window-x="1272"
     inkscape:window-y="-8"
     inkscape:window-maximized="1"
     inkscape:current-layer="svg2" />
  <title
     id="title4">Symbol library: printsettingsbutton.svg</title>
  <polygon
     points="0,1007.81 0,0 1007.81,0 1007.81,1007.81 1007.81,1007.81 "
     style="fill:#ffffff;fill-opacity:0;stroke:none"
     id="polygon6"
     transform="matrix(0.09922505,0,0,0.09922505,0,2.4414062e-6)" />
  <polygon
     points="566.841,1007.81 511.718,1007.81 464.472,1007.81 409.35,999.938 362.103,984.189 322.73,968.44 236.111,921.193 165.24,866.072 102.244,787.327 54.9975,708.582 39.2485,661.335 23.4995,614.088 15.625,566.841 15.625,511.718 15.625,464.472 23.4995,409.35 39.2485,362.103 54.9975,322.73 102.244,236.111 165.24,165.24 236.111,102.244 322.73,54.998 362.103,39.248 409.35,23.5 464.472,15.625 511.718,15.625 566.841,15.625 614.088,23.5 661.335,39.248 708.582,54.998 787.327,102.244 866.072,165.24 921.193,236.111 968.441,322.73 984.189,362.103 999.939,409.35 1007.81,464.472 1007.81,511.718 1007.81,511.718 1007.81,566.841 999.939,614.088 984.189,661.335 968.441,708.582 921.193,787.327 866.072,866.072 787.327,921.193 708.582,968.44 661.335,984.189 614.088,999.938 "
     style="fill:#999999;fill-opacity:1;stroke:none"
     id="polygon8"
     transform="matrix(0.09922505,0,0,0.09922505,0,2.4414062e-6)" />
  <polygon
     points="441,976.5 488.25,984.375 543.375,976.5 590.626,968.625 637.875,960.75 677.25,945 763.875,897.75 834.75,834.75 897.75,763.874 945,677.25 960.75,637.874 968.626,590.626 976.5,543.374 984.375,488.25 976.5,441 968.626,393.75 960.75,346.5 945,299.25 897.75,212.626 834.75,141.75 763.875,86.6255 677.25,39.3745 637.875,23.6255 590.626,7.8745 543.375,0 488.25,0 441,0 393.75,7.8745 346.5,23.6255 299.25,39.3745 212.626,86.6255 141.75,141.75 86.625,212.626 39.375,299.25 23.625,346.5 7.875,393.75 0,441 0,488.25 0,488.25 0,543.374 7.875,590.626 23.625,637.874 39.375,677.25 86.625,763.874 141.75,834.75 212.626,897.75 299.25,945 346.5,960.75 393.75,968.625 "
     style="fill:#444444;fill-opacity:1;stroke:none"
     id="polygon10"
     transform="matrix(0.09922505,0,0,0.09922505,0,2.4414062e-6)" />
  <polygon
     points="535.511,15.625 582.773,23.5026 677.298,47.1333 756.069,94.3957 826.962,149.536 889.978,220.429 929.364,307.077 960.872,393.724 968.75,440.987 968.75,488.249 968.75,535.511 960.872,582.774 929.364,677.299 889.978,756.069 826.962,826.962 756.069,889.979 677.298,929.365 582.773,960.873 535.511,968.75 488.249,968.75 440.986,968.75 393.724,960.873 307.077,929.365 220.429,889.979 149.536,826.962 94.3956,756.069 47.1332,677.299 23.5021,582.774 15.625,535.511 15.625,488.249 15.625,488.249 15.625,440.987 23.5021,393.724 47.1332,307.077 94.3956,220.429 149.536,149.536 220.429,94.3957 307.077,47.1333 393.724,23.5026 440.986,15.625 488.249,15.625 "
     style="fill:#cccccc;fill-opacity:1;stroke:none"
     id="polygon12"
     transform="matrix(0.09922505,0,0,0.09922505,0,2.4414062e-6)" />
  <polygon
     points="267.387,827.513 204.274,772.29 156.939,717.067 117.494,646.064 93.8266,575.062 85.9375,488.282 93.8266,409.391 117.494,330.5 156.939,267.387 204.274,204.274 267.387,156.939 330.5,117.494 409.391,93.8266 488.282,85.938 575.061,93.8266 646.064,117.494 717.066,156.939 772.289,204.274 827.513,267.387 859.069,330.5 882.737,409.391 890.625,488.282 890.625,488.282 882.737,575.062 859.069,646.064 827.513,717.067 772.289,772.29 717.066,827.513 646.064,859.07 575.061,882.737 488.282,890.626 409.391,882.737 330.5,859.07 "
     style="fill:#d1d1d1;fill-opacity:1;stroke:none"
     id="polygon14"
     transform="matrix(0.09922505,0,0,0.09922505,0,2.4414062e-6)" />
  <polygon
     points="314.236,757.137 266.782,717.593 227.237,670.138 195.601,614.776 179.784,551.504 171.875,488.233 179.784,424.961 195.601,361.69 227.237,314.236 266.782,266.782 314.236,227.237 361.69,195.601 424.961,179.784 488.233,171.875 551.504,179.784 614.776,195.601 670.138,227.237 717.593,266.782 757.137,314.236 788.773,361.69 804.591,424.961 812.5,488.233 812.5,488.233 804.591,551.504 788.773,614.776 757.137,670.138 717.593,717.593 670.138,757.137 614.776,788.773 551.504,804.591 488.233,812.5 424.961,804.591 361.69,788.773 "
     style="fill:#d6d6d6;fill-opacity:1;stroke:none"
     id="polygon16"
     transform="matrix(0.09922505,0,0,0.09922505,0,2.4414062e-6)" />
  <polygon
     points="258.775,397.519 203.339,429.688 195.419,429.688 187.5,429.688 195.419,405.562 227.097,317.096 250.856,284.927 282.534,252.758 314.212,220.588 345.891,196.461 393.408,172.335 440.925,164.292 496.362,156.25 543.878,156.25 591.396,164.292 630.994,172.335 662.672,196.461 694.35,220.588 726.028,260.799 757.706,309.054 757.706,309.054 765.625,333.18 757.706,341.223 749.787,341.223 718.109,333.18 678.511,325.138 575.556,301.011 512.2,292.968 456.764,292.968 401.328,309.054 345.891,333.18 "
     style="fill:#d7dbde;fill-opacity:1;stroke:none"
     id="polygon18"
     transform="matrix(0.09922505,0,0,0.09922505,0,2.4414062e-6)" />
  <polygon
     points="494.606,953.126 431.362,953.126 376.023,937.212 328.59,921.297 289.062,905.383 328.59,913.34 423.456,913.34 486.7,913.34 549.944,897.426 621.094,873.555 692.243,841.726 755.487,801.939 810.826,754.196 858.258,698.495 889.88,642.795 937.314,555.267 953.124,523.438 953.124,523.438 945.219,555.267 937.314,595.052 921.502,650.753 897.786,706.453 858.258,762.153 802.92,825.81 731.77,881.511 692.243,905.383 644.81,929.254 565.755,945.169 "
     style="fill:#bbbbbb;fill-opacity:1;stroke:none"
     id="polygon20"
     transform="matrix(0.09922505,0,0,0.09922505,0,2.4414062e-6)" />
  <polygon
     points="323.194,78.8246 386.301,55.0378 441.52,39.1786 496.739,31.25 544.068,31.25 591.399,39.1786 638.728,47.1082 678.171,62.9664 741.277,102.611 796.495,134.328 835.938,173.974 788.607,158.116 733.388,142.257 670.282,134.328 591.399,126.399 496.739,134.328 402.079,150.187 307.419,181.903 267.976,205.69 228.534,229.477 165.427,284.981 118.098,348.414 78.6559,411.847 62.8792,475.279 47.1025,522.854 39.2142,562.5 39.2142,562.5 31.3258,522.854 23.4375,475.279 31.3258,411.847 54.9909,340.485 70.7676,300.839 94.4326,261.193 125.986,221.548 157.539,181.903 204.87,142.257 260.087,110.541 "
     style="fill:#dde7f0;fill-opacity:1;stroke:none"
     id="polygon22"
     transform="matrix(0.09922505,0,0,0.09922505,0,2.4414062e-6)" />
  <polygon
     points="481.927,23.438 553.087,23.438 608.433,39.3514 647.966,55.2668 687.5,71.1802 647.966,63.2235 553.087,63.2235 489.834,71.1802 426.581,79.1379 355.421,103.009 284.262,134.838 221.009,174.624 165.662,222.368 118.223,278.069 86.5963,333.768 39.1566,421.297 31.25,453.126 31.25,453.126 31.25,421.297 39.1566,381.512 54.9699,325.811 78.6897,270.111 118.223,214.411 173.569,150.753 244.729,95.0523 284.262,71.1802 331.702,47.3091 410.768,31.3947 "
     style="fill:#ebf5ff;fill-opacity:1;stroke:none"
     id="polygon24"
     transform="matrix(0.09922505,0,0,0.09922505,0,2.4414062e-6)" />
  <polygon
     points="428.803,929.688 373.084,921.719 309.405,905.782 245.726,873.907 205.926,850 174.086,818.125 142.246,778.282 110.407,738.438 86.5271,690.625 54.6875,626.875 86.5271,531.25 86.5271,531.25 86.5271,595 102.446,650.782 126.327,706.563 150.207,746.407 182.046,786.25 213.886,818.125 285.525,865.938 357.163,905.782 412.883,921.719 476.563,929.688 "
     style="fill:#dde7f0;fill-opacity:1;stroke:none"
     id="polygon26"
     transform="matrix(0.09922505,0,0,0.09922505,0,2.4414062e-6)" />
  <polygon
     points="788.221,445.054 843.75,323.959 843.75,315.886 391.586,210.938 391.586,219.01 391.586,219.01 328.125,348.178 788.221,453.126 "
     style="fill:#444444;fill-opacity:1;stroke:none"
     id="polygon28"
     transform="matrix(0.09922505,0,0,0.09922505,0,2.4414062e-6)" />
  <polygon
     points="835.938,323.939 780.383,445.312 335.938,348.214 399.43,218.75 399.43,218.75 "
     style="fill:#c49749;fill-opacity:1;stroke:none"
     id="polygon30"
     transform="matrix(0.09922505,0,0,0.09922505,0,2.4414062e-6)" />
  <polygon
     points="789.063,325.267 789.063,293.254 789.063,269.246 781.114,237.233 749.316,173.209 741.366,157.203 391.584,117.188 391.584,125.191 391.584,125.191 407.484,173.209 415.433,213.225 407.484,253.24 391.584,285.252 359.786,333.27 343.887,349.276 335.938,357.279 733.415,445.313 741.366,437.31 781.114,357.279 "
     style="fill:#444444;fill-opacity:1;stroke:none"
     id="polygon32"
     transform="matrix(0.09922505,0,0,0.09922505,0,2.4414062e-6)" />
  <polygon
     points="359.375,349.507 375.295,333.471 399.175,293.38 415.094,253.29 423.054,205.181 423.054,205.181 415.094,165.09 407.134,125 733.49,165.09 741.45,181.127 765.329,245.272 773.29,269.326 781.25,293.38 773.29,325.452 765.329,349.507 733.49,429.688 "
     style="fill:#444444;fill-opacity:1;stroke:none"
     id="polygon34"
     transform="matrix(0.09922505,0,0,0.09922505,0,2.4414062e-6)" />
  <polygon
     points="765.624,269.709 757.662,205.788 741.736,149.858 741.736,141.868 383.413,85.938 391.376,101.917 391.376,101.917 399.339,141.868 407.302,189.808 399.339,229.758 391.376,269.709 367.488,325.638 359.525,349.609 351.562,357.599 725.811,437.5 757.662,341.619 765.624,301.669 "
     style="fill:#444444;fill-opacity:1;stroke:none"
     id="polygon36"
     transform="matrix(0.09922505,0,0,0.09922505,0,2.4414062e-6)" />
  <polygon
     points="415.019,181.593 415.019,181.593 415.019,141.578 399.076,101.562 733.897,149.581 749.842,213.606 757.813,277.63 749.842,341.654 717.954,429.687 367.188,349.657 399.076,285.632 407.047,237.614 "
     style="fill:url(#linearGradient3676);fill-opacity:1;stroke:none"
     id="polygon38"
     transform="matrix(0.09922505,0,0,0.09922505,0,2.4414062e-6)" />
  <polygon
     points="717.406,585.937 843.75,457.149 843.75,449.1 235.719,320.312 227.822,320.312 227.822,320.312 109.375,449.1 117.272,457.149 "
     style="fill:#000000;fill-opacity:1;stroke:none"
     id="polygon40"
     transform="matrix(0.09922505,0,0,0.09922505,0,2.4414062e-6)" />
  <polygon
     points="835.938,457.158 717.449,578.125 125,449.092 235.59,328.125 235.59,328.125 "
     style="fill:url(#linearGradient3724);fill-opacity:1;stroke:none"
     id="polygon42"
     transform="matrix(0.09922505,0,0,0.09922505,0,2.4414062e-6)" />
  <polygon
     points="703.125,573.288 703.125,581.287 703.125,773.251 711.372,781.25 843.317,661.272 851.563,653.274 851.563,453.311 843.317,445.312 835.07,445.312 835.07,445.312 "
     style="fill:#000000;fill-opacity:1;stroke:none"
     id="polygon44"
     transform="matrix(0.09922505,0,0,0.09922505,0,2.4414062e-6)" />
  <polygon
     points="835.938,653.506 710.938,757.813 710.938,581.292 835.938,460.938 835.938,460.938 "
     style="fill:url(#linearGradient3708);fill-opacity:1;stroke:none"
     id="polygon46"
     transform="matrix(0.09922505,0,0,0.09922505,0,2.4414062e-6)" />
  <polygon
     points="117.289,653.343 718.75,781.25 718.75,773.255 718.75,581.395 718.75,573.4 117.289,437.5 109.375,445.494 109.375,445.494 117.289,645.349 "
     style="fill:#000000;fill-opacity:1;stroke:none"
     id="polygon48"
     transform="matrix(0.09922505,0,0,0.09922505,0,2.4414062e-6)" />
  <polygon
     points="710.938,581.33 710.938,765.625 125,645.433 125,453.125 125,453.125 "
     style="fill:url(#linearGradient3716);fill-opacity:1;stroke:none"
     id="polygon50"
     transform="matrix(0.09922505,0,0,0.09922505,0,2.4414062e-6)" />
  <polygon
     points="203.125,588.816 609.375,687.5 609.375,621.711 203.125,531.25 203.125,531.25 "
     style="fill:#000000;fill-opacity:1;stroke:none"
     id="polygon52"
     transform="matrix(0.09922505,0,0,0.09922505,0,2.4414062e-6)" />
  <polygon
     points="537.906,746.571 545.862,714.559 577.691,666.539 593.606,650.534 601.563,642.531 235.532,562.5 235.532,562.5 187.789,626.524 171.875,658.537 171.875,682.546 171.875,714.559 171.875,738.567 203.704,818.598 561.778,890.625 553.82,882.622 537.906,826.601 529.949,786.586 "
     style="fill:#444444;fill-opacity:1;stroke:none"
     id="polygon54"
     transform="matrix(0.09922505,0,0,0.09922505,0,2.4414062e-6)" />
  <polygon
     points="211.563,810.855 187.656,746.711 179.688,690.584 179.688,690.584 179.688,666.529 195.625,634.457 235.469,570.312 578.126,650.494 562.189,666.529 546.251,698.601 530.314,738.692 522.345,786.801 522.345,826.891 538.283,875 "
     style="fill:url(#linearGradient3684);fill-opacity:1;stroke:none"
     id="polygon56"
     transform="matrix(0.09922505,0,0,0.09922505,0,2.4414062e-6)" />
  <polygon
     points="250,640.625 250,640.625 468.75,687.5 "
     style="fill:#dadce5;fill-opacity:1;stroke:none"
     id="polygon58"
     transform="matrix(0.09922505,0,0,0.09922505,0,2.4414062e-6)" />
  <polyline
     points="250 640.625 468.75 687.5"
     style="stroke:none"
     id="polyline60"
     transform="matrix(0.09922505,0,0,0.09922505,0,2.4414062e-6)" />
  <polygon
     points="468.75,695.312 468.75,686.384 250,632.812 250,641.741 250,641.741 "
     style="fill:#444444;fill-opacity:1;stroke:none"
     id="polygon62"
     transform="matrix(0.09922505,0,0,0.09922505,0,2.4414062e-6)" />
  <polygon
     points="234.375,687.5 234.375,687.5 453.125,742.188 "
     style="fill:#dadce5;fill-opacity:1;stroke:none"
     id="polygon64"
     transform="matrix(0.09922505,0,0,0.09922505,0,2.4414062e-6)" />
  <polyline
     points="234.375 687.5 453.125 742.188"
     style="stroke:none"
     id="polyline66"
     transform="matrix(0.09922505,0,0,0.09922505,0,2.4414062e-6)" />
  <polygon
     points="453.125,742.188 453.125,733.259 234.375,679.688 234.375,697.544 234.375,697.544 "
     style="fill:#444444;fill-opacity:1;stroke:none"
     id="polygon68"
     transform="matrix(0.09922505,0,0,0.09922505,0,2.4414062e-6)" />
  <polygon
     points="234.375,734.375 234.375,734.375 453.125,789.063 "
     style="fill:#dadce5;fill-opacity:1;stroke:none"
     id="polygon70"
     transform="matrix(0.09922505,0,0,0.09922505,0,2.4414062e-6)" />
  <polyline
     points="234.375 734.375 453.125 789.063"
     style="stroke:none"
     id="polyline72"
     transform="matrix(0.09922505,0,0,0.09922505,0,2.4414062e-6)" />
  <polygon
     points="453.125,796.875 453.125,779.019 234.375,734.375 234.375,743.304 234.375,743.304 "
     style="fill:#444444;fill-opacity:1;stroke:none"
     id="polygon74"
     transform="matrix(0.09922505,0,0,0.09922505,0,2.4414062e-6)" />
  <polygon
     points="742.188,436.822 742.188,444.973 750.651,444.973 784.505,453.125 784.505,444.973 843.75,322.69 843.75,314.538 835.286,265.625 826.822,265.625 826.822,265.625 "
     style="fill:#000000;fill-opacity:1;stroke:none"
     id="polygon76"
     transform="matrix(0.09922505,0,0,0.09922505,0,2.4414062e-6)" />
  <polygon
     points="835.938,314.062 775.782,445.312 750,437.109 827.343,281.25 827.343,281.25 "
     style="fill:url(#linearGradient3700);fill-opacity:1;stroke:none"
     id="polygon78"
     transform="matrix(0.09922505,0,0,0.09922505,0,2.4414062e-6)" />
  <polygon
     points="330.529,351.563 338.943,351.563 406.25,220.881 389.422,171.875 381.009,171.875 381.009,171.875 296.875,343.396 296.875,351.563 "
     style="fill:#000000;fill-opacity:1;stroke:none"
     id="polygon80"
     transform="matrix(0.09922505,0,0,0.09922505,0,2.4414062e-6)" />
  <polygon
     points="398.438,220.703 330.256,343.75 304.688,343.75 389.915,179.688 389.915,179.688 "
     style="fill:url(#linearGradient3692);fill-opacity:1;stroke:none"
     id="polygon82"
     transform="matrix(0.09922505,0,0,0.09922505,0,2.4414062e-6)" />
  <use
     href="#oid1"
     id="use84"
     x="0"
     y="0"
     width="744.09448"
     height="1052.3622"
     transform="translate(0,-907.81)" />
</svg>
