<?xml version="1.0"?>
<?metis version="3.1"?>
<?metisxml version="1.0"?>
<!DOCTYPE svg  PUBLIC "-//W3C//DTD SVG August 1999//EN"
 "http://www.w3.org/Graphics/SVG/svg-19990812.dtd">

<svg width="200" height="200">
 <title>Symbol library: problem.svg</title>
 <defs>
  <symbol id="oid0" xml:space="preserve" class="METIS_SYMBOL">
   <title>Problem</title>
    <g>
      <polygon points="-1.42109e-014 0 -1.42109e-014 304 16.2963 320 
       880 320 880 16 863.704 0 -1.42109e-014 0 
       -1.42109e-014 0 -1.42109e-014 0 -1.42109e-014 0 -1.42109e-014 0 
       -1.42109e-014 0 -1.42109e-014 0 "
       style=" stroke:#000000; stroke-width:1; fill:#9b9b9b; fill-opacity:100%"       class="TAG:shadow"></polygon>
      <rect x="-1.42109e-014" y="0" width="240" height="304"
       style=" stroke:#000000; stroke-width:1; fill:#ffffff; fill-opacity:100%"       class="TAG:PictureBackground"></rect>
      <rect x="240" y="0" width="624" height="304"
       style=" stroke:#000000; stroke-width:1; fill:#96a5ff; fill-opacity:100%"       class="TAG:canvas"></rect>
      <g>
	<desc>METIS_TEXT_GROUP</desc>
	<text  x="256" y="15.8"
	 style=" stroke:#000000; stroke-width:1; font-family:sans-serif; font-size:16;"
	 class="TAG:text">text</text>
	<rect x="256" y="0" width="608" height="304"
	 style=" stroke:#000000; stroke-width:1; fill:#ffffff; fill-opacity:0%"></rect>
      </g>
      <polyline points="864 304 880 320"
       style=" stroke:#000000; stroke-width:1;"></polyline>
      <g>
	<polygon points="222.989 80 222.989 183.056 181.012 206.979 
	 181.012 99.3229 222.989 80 222.989 80 222.989 80 222.989 80 "
	 style=" stroke:#00006e; stroke-width:1; fill:#96a5ff; fill-opacity:100%"	 class="TAG:BrokenBlock"></polygon>
	<polygon points="181.384 98.9051 135.658 98.9051 124.724 131.708 
	 143.611 157.553 125.718 182.405 136.652 207.256 181.384 207.256 
	 181.384 98.9051 181.384 98.9051 181.384 98.9051 181.384 98.9051 "
	 style=" stroke:#00006e; stroke-width:1; fill:#96a5ff; fill-opacity:100%"	 class="TAG:BrokenBlock"></polygon>
	<polygon points="134.664 98.9051 177.408 80.0181 224.128 80.0181 
	 181.384 98.9051 134.664 98.9051 134.664 98.9051 134.664 98.9051 134.664 98.9051 "
	 style=" stroke:#00006e; stroke-width:1; fill:#96a5ff; fill-opacity:100%"	 class="TAG:BrokenBlock"></polygon>
	<polygon points="16 99.899 80.613 99.899 68.6844 132.703 
	 87.5713 158.548 69.6787 183.399 80.613 208.25 16 208.25 
	 16 99.899 16 99.899 16 99.899 16 99.899 "
	 style=" stroke:#00006e; stroke-width:1; fill:#96a5ff; fill-opacity:100%"	 class="TAG:BrokenBlock"></polygon>
	<polygon points="16 99.899 61.7262 81.0122 120.375 81.0122 
	 80.613 99.899 16 99.899 16 99.899 16 99.899 16 99.899 "
	 style=" stroke:#00006e; stroke-width:1; fill:#96a5ff; fill-opacity:100%"	 class="TAG:BrokenBlock"></polygon>
	<polygon points="121.369 80.0181 79.6191 100.893 67.6905 133.697 
	 86.5773 159.542 68.6844 184.393 80.613 207.256 121.369 187.375 
	 109.441 163.518 129.321 138.667 109.441 112.822 121.369 80.0181 
	 121.369 80.0181 121.369 80.0181 121.369 80.0181 "
	 style=" stroke:#00006e; stroke-width:1; fill:#6e6eff; fill-opacity:100%"	 class="TAG:BlockInside"></polygon>
	<polyline points="108.446 113.816 67.6905 132.703"
	 style=" stroke:#00006e; stroke-width:1;"	 class="TAG:BrokenBlock"></polyline>
	<polyline points="128.327 137.673 87.0741 158.051"
	 style=" stroke:#00006e; stroke-width:1;"	 class="TAG:BrokenBlock"></polyline>
	<polyline points="110.434 164.512 70.6723 184.393"
	 style=" stroke:#00006e; stroke-width:1;"	 class="TAG:BrokenBlock"></polyline>
      </g>
    </g>
  </symbol>
 </defs>
</svg>
