<?xml version="1.0" encoding="UTF-8" standalone="no"?>
<svg id="svg4827" 
	xmlns:rdf="http://www.w3.org/1999/02/22-rdf-syntax-ns#" 
	xmlns="http://www.w3.org/2000/svg" 

	xmlns:cc="http://creativecommons.org/ns#" 
	xmlns:xlink="http://www.w3.org/1999/xlink" 
	xmlns:dc="http://purl.org/dc/elements/1.1/"
	
	version="1.1" 	
	x="0px"
	y="0px"
	width="219px"
	height="219px"
	viewBox="0 0 219 219"
	enable-background="new 0 0 219 219"
	>

 <metadata id="metadata3889">
  <rdf:RDF>
   <cc:Work rdf:about="">
    <dc:format>image/svg+xml</dc:format>
    <dc:type rdf:resource="http://purl.org/dc/dcmitype/StillImage"/>
    <dc:title/>
   </cc:Work>
  </rdf:RDF>
 </metadata>
 <g id="layer1" transform="translate(0,-833.36218)">
  <g id="g3053" stroke-width="5" stroke="#1e1e1e" fill="#FFF" transform="matrix(1.3676826,0,0,1.3676826,1.8311444,835.19469)">
   <circle id="circle239-4" d="m 155.168,78.833 c 0,42.1581 -34.1759,76.334 -76.334,76.334 C 36.675896,155.167 2.5,120.9911 2.5,78.833 2.5,36.674896 36.675896,2.4990005 78.834,2.4990005 c 42.1581,0 76.334,34.1758955 76.334,76.3339995 z" cx="78.834" cy="78.833" r="76.334"/>
   <circle id="circle241" d="m 134.001,79.334 c 0,30.42205 -24.66195,55.084 -55.084,55.084 -30.422053,0 -55.084,-24.66195 -55.084,-55.084 0,-30.422053 24.661947,-55.084 55.084,-55.084 30.42205,0 55.084,24.661947 55.084,55.084 z" cx="78.917" cy="79.334" r="55.084"/>
  </g>
 </g>
</svg>