<?xml version="1.0" encoding="UTF-8" standalone="no"?>
<svg xmlns:rdf="http://www.w3.org/1999/02/22-rdf-syntax-ns#" xmlns="http://www.w3.org/2000/svg" version="1.1" xml:space="preserve" height="219px" viewBox="21.152 45.375 219 219" width="219px" enable-background="new 21.152 45.375 219 219" y="0px" x="0px" xmlns:cc="http://creativecommons.org/ns#" xmlns:dc="http://purl.org/dc/elements/1.1/">
	<metadata>
		<rdf:RDF>
			<cc:Work rdf:about="">
				<dc:format>image/svg+xml</dc:format>
				<dc:type rdf:resource="http://purl.org/dc/dcmitype/StillImage"/>
				<dc:title/>
			</cc:Work>
		</rdf:RDF>
	</metadata>
	<defs>
		<filter id="filter3882">
			<feGaussianBlur stdDeviation="1.8352357"/>
		</filter>
	</defs>
	<path d="m74.53,253.4c-5.184-1.372-9.987-6.634-11.2-12.26-1.381-6.438-1.381-151.1,0-157.5,1.359-6.338,6.041-11.02,12.38-12.38,2.964-0.6356,18.39-0.9889,43.17-0.9889h38.56l27.13,17.67,27.13,17.67,0.0178,65.48c0.0121,44.3-0.3004,66.97-0.966,70.07-1.329,6.196-5.045,10.3-10.89,12.04-3.872,1.15-13.3,1.338-63.21,1.259-36.97-0.0582-59.94-0.4321-62.13-1.011h-0.00002z" fill-rule="evenodd" fill-opacity="0.50196081" transform="matrix(1.0817557,0,0,1.0851304,-5.1458763,-14.880043)" filter="url(#filter3882)" stroke-miterlimit="4" stroke-width="0" fill="#000"/><path d="M156.6,50.99h-85.96c-9.896,0-17.92,8.046-17.92,17.97v164.2c0,9.925,8.022,17.97,17.92,17.97h125.9c9.894,0,17.92-8.046,17.92-17.97l0.5744-143.9-58.4-38.32z" stroke="#605a5a" stroke-width="3.2503252" fill="#f2f2f2"/>
<text style="writing-mode:lr-tb;letter-spacing:0px;text-anchor:start;word-spacing:0px;text-align:start;" font-weight="bold" xml:space="preserve" font-size="36px" font-style="normal" font-stretch="normal" font-variant="normal" y="100.12203" x="78.924492" font-family="Sans" line-height="125%" fill="#000000"><tspan x="78.924492" y="100.12203">1 0 1 1</tspan><tspan x="78.924492" y="145.12204">1 0 1 0</tspan><tspan x="78.924492" y="190.12204">0 1 0 0</tspan><tspan x="78.924492" y="235.12204">0 1 1 1</tspan></text>
<path d="m213.5,90.16h-38.51c-10.34,0-18.73-9.943-18.73-22.21v-15.4" stroke="#605a5a" stroke-width="3.2503252" fill="#f2f2f2"/></svg>
