<?xml version="1.0"?>
<?metis version="5.1"?>
<?metisxml version="1.2"?>
<!DOCTYPE svg  PUBLIC "-//W3C//DTD SVG 1.0//EN"
 "http://www.w3.org/TR/2001/REC-SVG-20010904/DTD/svg10.dtd">

<svg>
 <title>Symbol library: processstartevent.svg</title>
 <defs>
  <symbol id="oid1" xml:space="preserve" class="METIS_SYMBOL">
   <title>Untitled</title>
    <polygon points="1007.81 1007.81 0 1007.81 0 0 
     1007.81 0 1007.81 1007.81"
     style="stroke:none; fill:#ffffff; fill-opacity:0%"></polygon>
    <polygon points="843.75 601.562 835.846 609.538 464.39 641.439 
     582.939 761.067 527.617 784.993 472.293 792.968 424.873 784.993 
     385.355 769.043 345.839 753.092 306.323 721.191 298.419 721.191 
     164.062 856.77 171.966 864.745 235.193 912.597 306.323 952.473 
     385.355 976.399 472.293 984.374 535.519 976.399 598.746 960.448 
     661.973 936.523 725.199 896.646 812.137 984.374 843.75 601.562"
     style="stroke:none; fill:#333333; fill-opacity:100%"></polygon>
    <polygon points="495.95 649.148 606.674 761.008 575.038 776.989 
     543.403 792.968 503.858 800.959 472.222 800.959 424.769 800.959 
     377.315 784.979 337.771 768.999 306.135 737.038 187.5 856.889 
     250.772 904.83 314.043 944.78 393.133 960.76 472.222 968.75 
     535.494 968.75 606.674 944.78 662.037 920.81 725.309 880.859 
     796.489 960.76 828.125 617.188 495.95 649.148"
     style="stroke:none; fill:#00bf00; fill-opacity:100%"></polygon>
    <polygon points="460.805 132.812 373.411 140.704 293.961 164.378 
     222.457 203.835 166.843 259.075 111.229 322.206 79.4491 393.229 
     55.6143 472.143 39.7245 558.949 47.6694 614.188 55.6143 669.428 
     79.4491 724.668 103.283 772.017 0 882.496 381.356 914.062 
     341.631 535.274 333.686 551.057 246.293 629.971 238.347 598.406 
     238.347 558.949 238.347 511.6 254.237 464.252 278.072 432.687 
     301.906 393.229 333.686 369.555 373.411 345.881 413.135 330.098 
     460.805 322.206 468.75 322.206 468.75 132.812 460.805 132.812"
     style="stroke:none; fill:#333333; fill-opacity:100%"></polygon>
    <polygon points="453.125 306.397 453.125 140.625 373.527 156.413 
     293.927 180.095 230.247 219.564 174.528 266.927 126.769 330.078 
     86.9694 401.123 63.0897 472.168 55.1297 559.001 63.0897 614.257 
     71.0496 669.514 94.9293 724.772 118.81 780.029 31.25 866.861 
     365.566 898.437 333.727 566.894 246.168 653.727 230.247 606.363 
     222.288 559.001 230.247 511.637 238.208 464.274 262.087 424.805 
     285.967 385.335 325.766 361.654 365.566 330.078 405.367 314.29 
     453.125 306.397"
     style="stroke:none; fill:#00bf00; fill-opacity:100%"></polygon>
    <polygon points="550.443 141.89 550.443 7.812 542.534 15.6994 
     257.812 244.42 550.443 488.913 550.443 339.063 582.079 354.836 
     613.715 370.61 637.441 394.271 661.169 425.818 676.987 449.478 
     692.804 488.913 700.713 520.461 708.622 559.896 700.713 599.33 
     692.804 630.878 676.987 670.312 653.26 701.859 787.712 835.937 
     795.62 835.937 835.165 772.842 866.801 701.859 890.528 630.878 
     898.437 559.896 890.528 481.026 866.801 410.044 843.075 346.949 
     795.62 283.854 748.168 236.533 692.804 189.211 621.624 157.664 
     550.443 141.89"
     style="stroke:none; fill:#333333; fill-opacity:100%"></polygon>
    <polygon points="542.454 149.61 542.454 31.25 281.25 244.297 
     542.454 457.343 542.454 323.202 574.115 331.094 613.692 354.765 
     637.438 378.437 669.099 410 692.845 441.562 708.676 481.015 
     716.591 512.577 716.591 559.922 716.591 599.375 708.676 630.937 
     692.845 670.39 669.099 701.952 787.829 820.312 827.404 765.077 
     859.066 694.062 874.897 630.937 882.812 559.922 874.897 481.015 
     859.066 410 827.404 346.875 787.829 291.64 732.421 244.297 
     677.014 196.953 613.692 165.39 542.454 149.61"
     style="stroke:none; fill:#00bf00; fill-opacity:100%"></polygon>
    <polygon points="500.814 952.473 564.616 952.473 620.443 944.498 
     668.293 928.547 724.121 896.646 811.849 984.374 843.75 601.562 
     835.774 609.538 460.938 641.439 580.566 761.067 540.689 784.993 
     524.74 784.993 500.814 792.968 500.814 952.473"
     style="stroke:none; fill:#333333; fill-opacity:100%"></polygon>
    <polygon points="468.75 968.75 532.639 968.75 604.514 944.78 
     660.417 920.81 724.306 880.859 796.181 960.76 828.125 617.188 
     492.709 649.148 604.514 761.008 572.569 776.989 540.625 792.968 
     500.694 800.959 468.75 800.959 468.75 968.75"
     style="stroke:none; fill:#00bf00; fill-opacity:100%"></polygon>
    <polygon points="570.312 66.1456 578.613 91.146 595.215 116.145 
     611.816 132.812 636.718 132.812 669.921 132.812 686.524 116.145 
     703.124 91.146 703.124 66.1456 703.124 41.1452 686.524 24.4797 
     669.921 7.812 636.718 7.812 611.816 7.812 595.215 24.4797 
     578.613 41.1452 570.312 66.1456"
     style="stroke:none; fill:#000000; fill-opacity:100%"></polygon>
    <polygon points="585.938 66.0513 594.401 49.0058 602.864 31.9602 
     619.792 23.438 636.718 23.438 662.109 23.438 679.036 31.9602 
     687.5 49.0058 687.5 66.0513 687.5 91.6202 679.036 100.142 
     662.109 117.188 636.718 117.188 619.792 117.188 602.864 100.142 
     594.401 91.6202 585.938 66.0513"
     style="stroke:none; fill:#666666; fill-opacity:100%"></polygon>
    <polygon points="570.312 941.146 578.613 966.146 595.215 991.145 
     611.816 999.479 636.718 1007.81 669.921 999.479 686.524 991.145 
     703.124 966.146 703.124 941.146 703.124 916.146 686.524 899.48 
     669.921 882.812 636.718 882.812 611.816 882.812 595.215 899.48 
     578.613 916.146 570.312 941.146"
     style="stroke:none; fill:#000000; fill-opacity:100%"></polygon>
    <polygon points="585.938 941.051 594.401 924.006 602.864 906.96 
     619.792 898.438 636.718 898.438 662.109 898.438 679.036 906.96 
     687.5 924.006 687.5 941.051 687.5 958.097 679.036 975.142 
     662.109 992.188 636.718 992.188 619.792 992.188 602.864 975.142 
     594.401 958.097 585.938 941.051"
     style="stroke:none; fill:#666666; fill-opacity:100%"></polygon>
    <polygon points="468.438 132.812 273.438 132.812 273.438 140.877 
     297.813 181.2 322.187 221.522 354.687 253.78 427.813 326.36 
     460.313 366.683 476.563 382.812 476.563 132.812 468.438 132.812"
     style="stroke:none; fill:#000000; fill-opacity:100%"></polygon>
    <polygon points="460.937 148.438 460.937 335.938 419.921 295.176 
     362.5 246.264 337.891 221.807 321.484 189.198 296.875 148.438 
     460.937 148.438"
     style="stroke:none; fill:#999999; fill-opacity:100%"></polygon>
    <polygon points="468.438 398.438 273.438 398.438 273.438 406.51 
     297.813 446.875 322.187 487.24 354.687 519.532 427.813 584.116 
     460.313 624.481 476.563 640.626 476.563 398.438 468.438 398.438"
     style="stroke:none; fill:#000000; fill-opacity:100%"></polygon>
    <polygon points="460.937 414.062 460.937 601.562 419.921 552.649 
     362.5 511.888 337.891 479.279 321.484 454.823 296.875 414.062 
     460.937 414.062"
     style="stroke:none; fill:#999999; fill-opacity:100%"></polygon>
    <polygon points="468.438 656.25 273.438 656.25 273.438 672.379 
     297.813 712.702 322.187 744.96 354.687 785.282 427.813 849.798 
     460.313 890.12 476.563 906.25 476.563 656.25 468.438 656.25"
     style="stroke:none; fill:#000000; fill-opacity:100%"></polygon>
    <polygon points="460.937 671.875 460.937 867.187 419.921 818.359 
     362.5 769.531 337.891 745.118 321.484 720.703 296.875 671.875 
     460.937 671.875"
     style="stroke:none; fill:#999999; fill-opacity:100%"></polygon>
    <polygon points="999.688 132.812 804.688 132.812 804.688 382.812 
     820.937 366.683 853.437 326.36 926.563 253.78 959.063 221.522 
     983.437 181.2 1007.81 140.877 1007.81 132.812 999.688 132.812"
     style="stroke:none; fill:#000000; fill-opacity:100%"></polygon>
    <polygon points="984.374 148.438 959.765 189.198 943.359 221.807 
     918.749 246.264 861.328 295.176 820.312 335.938 820.312 148.438 
     984.374 148.438"
     style="stroke:none; fill:#999999; fill-opacity:100%"></polygon>
    <polygon points="999.688 398.438 804.688 398.438 804.688 640.626 
     820.937 624.481 853.437 584.116 926.563 519.532 959.063 487.24 
     983.437 446.875 1007.81 406.51 1007.81 398.438 999.688 398.438"
     style="stroke:none; fill:#000000; fill-opacity:100%"></polygon>
    <polygon points="984.374 414.062 959.765 454.823 943.359 479.279 
     918.749 511.888 861.328 552.649 820.312 601.562 820.312 414.062 
     984.374 414.062"
     style="stroke:none; fill:#999999; fill-opacity:100%"></polygon>
    <polygon points="999.688 656.25 804.688 656.25 804.688 906.25 
     820.937 890.12 853.437 849.798 926.563 785.282 959.063 744.96 
     983.437 712.702 1007.81 672.379 1007.81 656.25 999.688 656.25"
     style="stroke:none; fill:#000000; fill-opacity:100%"></polygon>
    <polygon points="984.374 671.875 959.765 720.703 943.359 745.118 
     918.749 769.531 861.328 818.359 820.312 867.187 820.312 671.875 
     984.374 671.875"
     style="stroke:none; fill:#999999; fill-opacity:100%"></polygon>
    <polygon points="827.965 54.688 445.312 54.688 445.312 968.75 
     835.937 968.75 835.937 54.688 827.965 54.688"
     style="stroke:none; fill:#000000; fill-opacity:100%"></polygon>
    <polygon points="812.5 70.312 812.5 945.312 460.938 945.312 
     460.938 70.312 812.5 70.312"
     style="stroke:none; fill:#ffdd4d; fill-opacity:100%"></polygon>
    <polygon points="515.625 253.906 515.625 278.125 523.698 294.27 
     547.917 334.635 588.282 358.853 612.5 366.927 636.718 375 
     660.938 366.927 685.157 358.853 717.449 334.635 749.741 294.27 
     757.813 278.125 757.813 253.906 757.813 229.687 749.741 205.469 
     717.449 165.104 685.157 140.885 660.938 132.812 636.718 132.812 
     612.5 132.812 588.282 140.885 547.917 165.104 523.698 205.469 
     515.625 229.687 515.625 253.906"
     style="stroke:none; fill:#000000; fill-opacity:100%"></polygon>
    <polygon points="531.25 254.063 539.362 205.313 563.702 172.813 
     596.154 156.563 636.718 148.438 677.284 156.563 709.736 172.813 
     734.074 205.313 742.188 254.063 734.074 294.687 709.736 327.187 
     677.284 343.438 636.718 351.563 596.154 343.438 563.702 327.187 
     539.362 294.687 531.25 254.063"
     style="stroke:none; fill:#b23535; fill-opacity:100%"></polygon>
    <polygon points="515.625 535.156 515.625 559.375 523.698 583.593 
     547.917 615.885 588.282 648.177 612.5 648.177 636.718 656.25 
     660.938 648.177 685.157 648.177 717.449 615.885 749.741 583.593 
     757.813 559.375 757.813 535.156 757.813 510.937 749.741 486.719 
     717.449 446.354 685.157 422.135 660.938 414.062 636.718 414.062 
     612.5 414.062 588.282 422.135 547.917 446.354 523.698 486.719 
     515.625 510.937 515.625 535.156"
     style="stroke:none; fill:#000000; fill-opacity:100%"></polygon>
    <polygon points="531.25 535.157 539.362 494.592 563.702 462.14 
     596.154 437.801 636.718 429.688 677.284 437.801 709.736 462.14 
     734.074 494.592 742.188 535.157 734.074 575.722 709.736 608.174 
     677.284 632.513 636.718 640.626 596.154 632.513 563.702 608.174 
     539.362 575.722 531.25 535.157"
     style="stroke:none; fill:#b2b236; fill-opacity:100%"></polygon>
    <polygon points="515.625 816.406 515.625 840.626 523.698 856.77 
     547.917 897.135 588.282 921.354 612.5 929.427 636.718 937.5 
     660.938 929.427 685.157 921.354 717.449 897.135 749.741 856.77 
     757.813 840.626 757.813 816.406 757.813 792.187 749.741 767.969 
     717.449 727.604 685.157 703.385 660.938 695.312 636.718 695.312 
     612.5 695.312 588.282 703.385 547.917 727.604 523.698 767.969 
     515.625 792.187 515.625 816.406"
     style="stroke:none; fill:#000000; fill-opacity:100%"></polygon>
    <polygon points="531.25 816.407 539.362 775.842 563.702 735.277 
     596.154 719.051 636.718 710.938 677.284 719.051 709.736 735.277 
     734.074 775.842 742.188 816.407 734.074 856.971 709.736 889.423 
     677.284 913.763 636.718 921.876 596.154 913.763 563.702 889.423 
     539.362 856.971 531.25 816.407"
     style="stroke:none; fill:#01bf11; fill-opacity:100%"></polygon>
    <polygon points="484.375 250 508.445 250 516.47 225.26 
     516.47 200.52 548.564 159.288 588.683 126.302 612.753 126.302 
     636.824 118.056 660.895 126.302 684.966 126.302 725.084 159.288 
     749.155 200.52 757.179 225.26 765.202 250 781.25 250 
     781.25 217.014 773.226 192.274 757.179 167.534 741.131 142.795 
     717.061 126.302 692.99 109.809 668.918 101.562 636.824 101.562 
     604.729 101.562 580.659 109.809 556.588 126.302 532.517 142.795 
     516.47 167.534 500.422 192.274 492.399 217.014 484.375 250"
     style="stroke:none; fill:#555555; fill-opacity:100%"></polygon>
    <polygon points="484.375 539.062 508.445 539.062 516.47 514.391 
     516.47 489.72 548.564 448.601 588.683 415.707 612.753 407.483 
     636.824 407.483 660.895 407.483 684.966 415.707 725.084 448.601 
     749.155 489.72 757.179 514.391 765.202 539.062 781.25 539.062 
     781.25 506.167 773.226 481.496 757.179 448.601 741.131 432.155 
     717.061 407.483 692.99 399.26 668.918 391.036 636.824 382.812 
     604.729 391.036 580.659 399.26 556.588 407.483 532.517 432.155 
     516.47 448.601 500.422 481.496 492.399 506.167 484.375 539.062"
     style="stroke:none; fill:#555555; fill-opacity:100%"></polygon>
    <polygon points="484.375 812.5 508.445 812.5 516.47 787.76 
     516.47 763.02 548.564 721.788 588.683 697.048 612.753 688.802 
     636.824 688.802 660.895 688.802 684.966 697.048 725.084 721.788 
     749.155 763.02 757.179 787.76 765.202 812.5 781.25 812.5 
     781.25 787.76 773.226 754.774 757.179 730.034 741.131 705.295 
     717.061 688.802 692.99 672.309 668.918 664.062 636.824 664.062 
     604.729 664.062 580.659 672.309 556.588 688.802 532.517 705.295 
     516.47 730.034 500.422 754.774 492.399 787.76 484.375 812.5"
     style="stroke:none; fill:#555555; fill-opacity:100%"></polygon>
    <polygon points="789.062 875 735.491 835.938 726.562 865.234 
     789.062 875"
     style="stroke:none; fill:#33cc33; fill-opacity:100%"></polygon>
    <polygon points="558.594 890.625 531.25 953.125 585.938 908.482 
     558.594 890.625"
     style="stroke:none; fill:#33cc33; fill-opacity:100%"></polygon>
    <polygon points="656.25 710.938 636.718 648.438 617.188 710.938 
     636.718 702.009 656.25 710.938"
     style="stroke:none; fill:#33cc33; fill-opacity:100%"></polygon>
    <polygon points="714.844 742.188 750 656.25 679.688 716.407 
     697.265 725 714.844 742.188"
     style="stroke:none; fill:#33cc33; fill-opacity:100%"></polygon>
    <polygon points="593.75 716.407 523.438 656.25 549.805 742.188 
     576.171 725 593.75 716.407"
     style="stroke:none; fill:#33cc33; fill-opacity:100%"></polygon>
    <polygon points="679.688 908.594 750 968.75 714.844 882.812 
     679.688 908.594"
     style="stroke:none; fill:#33cc33; fill-opacity:100%"></polygon>
    <polygon points="453.125 750 530.469 796.875 530.469 778.126 
     539.063 759.375 453.125 750"
     style="stroke:none; fill:#33cc33; fill-opacity:100%"></polygon>
    <polygon points="453.125 875 539.063 865.885 530.469 847.656 
     530.469 820.312 453.125 875"
     style="stroke:none; fill:#33cc33; fill-opacity:100%"></polygon>
    <polygon points="812.5 750 726.562 759.114 735.156 777.344 
     743.75 804.688 812.5 750"
     style="stroke:none; fill:#33cc33; fill-opacity:100%"></polygon>
    <polygon points="609.375 914.063 636.718 1000 664.063 914.063 
     636.718 922.656 609.375 914.063"
     style="stroke:none; fill:#33cc33; fill-opacity:100%"></polygon>
  </symbol>
 </defs>
 <use xlink:href="#oid1"/>
</svg>
