<?xml version="1.0"?>
<?metis version="5.0"?>
<?metisxml version="1.2"?>
<!DOCTYPE svg  PUBLIC "-//W3C//DTD SVG 1.0//EN"
 "http://www.w3.org/TR/2001/REC-SVG-20010904/DTD/svg10.dtd">

<svg>
 <title>Symbol library: process_end_event1.svg</title>
 <defs>
  <symbol id="oid2" xml:space="preserve" class="METIS_SYMBOL">
   <title>EndEvent</title>
    <ellipse  cx="32" cy="32" rx="32" ry="32"
     style=" stroke:#000000; stroke-width:1; fill:#000000; fill-opacity:100%"></ellipse>
    <ellipse  cx="32" cy="32" rx="28" ry="28"
     style=" stroke:#000000; stroke-width:1; fill:#ffffff; fill-opacity:100%"></ellipse>
    <ellipse  cx="32" cy="32" rx="28" ry="28"
     style=" stroke:#000000; stroke-width:1; fill:#ffffff; fill-opacity:100%"     class="TAG:canvas"></ellipse>
    <image x="12" y="12" width="40" height="40" xlink:role="symbol" xlink:title="EndEvent Default" xlink:href="#oid40"     class="TAG:icon"></image>
  </symbol>
  <symbol id="oid6" xml:space="preserve" class="METIS_SYMBOL">
   <title>EndEvent w Message</title>
    <rect x="0" y="0" width="40" height="40"
     style="stroke:none; fill:#ffffff; fill-opacity:0%"></rect>
    <g     class="TAG:envelope">
      <rect x="0" y="6.6942" width="40" height="26.6116"
       style=" stroke:#000000; stroke-width:1; fill:#ffffff; fill-opacity:100%"></rect>
      <polyline points="0 6.6942 20 19.9999 40 6.6942"
       style=" stroke:#000000; stroke-width:1;"></polyline>
    </g>
  </symbol>
  <symbol id="oid29" xml:space="preserve" class="METIS_SYMBOL">
   <title>EndEvent w Exception</title>
    <rect x="0" y="0" width="40" height="40"
     style="stroke:none; fill:#ffffff; fill-opacity:0%"></rect>
    <polygon points="4 40 12 10 27 26.25 
     36 0 28 30 13 13.75 4 40"
     style=" stroke:#000000; stroke-width:1; fill:#000000; fill-opacity:100%"></polygon>
  </symbol>
  <symbol id="oid30" xml:space="preserve" class="METIS_SYMBOL">
   <title>EndEvent w Cancel</title>
    <rect x="0" y="0" width="40" height="40"
     style="stroke:none; fill:#ffffff; fill-opacity:0%"></rect>
    <g>
      <polygon points="2 5.6 5.6 2 38 34.4 
       34.4 38 2 5.6"
       style=" stroke:#000000; stroke-width:1; fill:#000000; fill-opacity:100%"></polygon>
      <polygon points="34.4 2 38 5.4286 5.6 38 
       2 34.4 34.4 2"
       style=" stroke:#000000; stroke-width:1; fill:#000000; fill-opacity:100%"></polygon>
    </g>
  </symbol>
  <symbol id="oid31" xml:space="preserve" class="METIS_SYMBOL">
   <title>EndEvent w Compensation</title>
    <rect x="0" y="0" width="44" height="40"
     style="stroke:none; fill:#ffffff; fill-opacity:0%"></rect>
    <g>
      <polygon points="40 4 40 36 20 20 
       40 4"
       style=" stroke:#000000; stroke-width:1; fill:#000000; fill-opacity:100%"></polygon>
      <polygon points="20 4 20 36 0 20 
       20 4"
       style=" stroke:#000000; stroke-width:1; fill:#000000; fill-opacity:100%"></polygon>
    </g>
  </symbol>
  <symbol id="oid32" xml:space="preserve" class="METIS_SYMBOL">
   <title>EndEvent w Link</title>
    <rect x="0" y="0" width="40" height="40"
     style="stroke:none; fill:#ffffff; fill-opacity:0%"></rect>
    <polygon points="0 14 32 14 32 4 
     40 20 32 36 32 26 0 26 
     0 14"
     style=" stroke:#000000; stroke-width:1; fill:#000000; fill-opacity:100%"></polygon>
  </symbol>
  <symbol id="oid33" xml:space="preserve" class="METIS_SYMBOL">
   <title>EndEvent w Multiple</title>
    <rect x="0" y="0" width="40" height="40"
     style="stroke:none; fill:#ffffff; fill-opacity:0%"></rect>
    <g>
      <polygon points="20 4 4 28 36 28 
       20 4"
       style=" stroke:#000000; stroke-width:1; fill:#000000; fill-opacity:100%"></polygon>
      <polygon points="4 12 36 12 36 12.5 
       20 36 4 12"
       style=" stroke:#000000; stroke-width:1; fill:#000000; fill-opacity:100%"></polygon>
    </g>
  </symbol>
  <symbol id="oid34" xml:space="preserve" class="METIS_SYMBOL">
   <title>EndEvent w Terminate</title>
    <rect x="0" y="0" width="40" height="40"
     style="stroke:none; fill:#ffffff; fill-opacity:0%"></rect>
    <ellipse  cx="20" cy="20" rx="16" ry="16"
     style=" stroke:#000000; stroke-width:1; fill:#000000; fill-opacity:100%"></ellipse>
  </symbol>
  <symbol id="oid40" xml:space="preserve" class="METIS_SYMBOL">
   <title>EndEvent Default</title>
    <rect x="0" y="0" width="72" height="72"
     style="stroke:none; fill:#ffffff; fill-opacity:0%"></rect>
  </symbol>
 </defs>
 <use xlink:href="#oid2"/>
</svg>
