<?xml version="1.0" encoding="UTF-8" standalone="no"?>

<svg
 xmlns:dc="http://purl.org/dc/elements/1.1/"
   xmlns:cc="http://creativecommons.org/ns#"
   xmlns:rdf="http://www.w3.org/1999/02/22-rdf-syntax-ns#"
   xmlns:svg="http://www.w3.org/2000/svg"
   xmlns="http://www.w3.org/2000/svg"
   xmlns:xlink="http://www.w3.org/1999/xlink"
   xmlns:sodipodi="http://sodipodi.sourceforge.net/DTD/sodipodi-0.dtd"
   xmlns:inkscape="http://www.inkscape.org/namespaces/inkscape"
   id="svg2"
   version="1.1"
   inkscape:version="0.47 r22583"
   width="100"
   height="100"
   sodipodi:docname="process_service.svg">
  <metadata
     id="metadata76">
    <rdf:RDF>
      <cc:Work
         rdf:about="">
        <dc:format>image/svg+xml</dc:format>
        <dc:type
           rdf:resource="http://purl.org/dc/dcmitype/StillImage" />
      </cc:Work>
    </rdf:RDF>
  </metadata>
  <defs
     id="defs74">
    <linearGradient
       inkscape:collect="always"
       id="linearGradient3672">
      <stop
         style="stop-color:#ff7711;stop-opacity:1;"
         offset="0"
         id="stop3674" />
      <stop
         style="stop-color:#ff7711;stop-opacity:0;"
         offset="1"
         id="stop3676" />
    </linearGradient>
    <linearGradient
       inkscape:collect="always"
       id="linearGradient3664">
      <stop
         style="stop-color:#8864b2;stop-opacity:1;"
         offset="0"
         id="stop3666" />
      <stop
         style="stop-color:#8864b2;stop-opacity:0;"
         offset="1"
         id="stop3668" />
    </linearGradient>
    <linearGradient
       inkscape:collect="always"
       id="linearGradient3656">
      <stop
         style="stop-color:#77aa00;stop-opacity:1;"
         offset="0"
         id="stop3658" />
      <stop
         style="stop-color:#77aa00;stop-opacity:0;"
         offset="1"
         id="stop3660" />
    </linearGradient>
    <inkscape:perspective
       sodipodi:type="inkscape:persp3d"
       inkscape:vp_x="0 : 0.5 : 1"
       inkscape:vp_y="0 : 1000 : 0"
       inkscape:vp_z="1 : 0.5 : 1"
       inkscape:persp3d-origin="0.5 : 0.33333333 : 1"
       id="perspective78" />
    <linearGradient
       inkscape:collect="always"
       xlink:href="#linearGradient3656"
       id="linearGradient3662"
       x1="507.81201"
       y1="812.49951"
       x2="875"
       y2="812.49951"
       gradientUnits="userSpaceOnUse" />
    <linearGradient
       inkscape:collect="always"
       xlink:href="#linearGradient3664"
       id="linearGradient3670"
       x1="62.5"
       y1="535.15698"
       x2="492.18799"
       y2="535.15698"
       gradientUnits="userSpaceOnUse" />
    <linearGradient
       inkscape:collect="always"
       xlink:href="#linearGradient3672"
       id="linearGradient3678"
       x1="312.5"
       y1="433.59399"
       x2="929.68799"
       y2="433.59399"
       gradientUnits="userSpaceOnUse" />
  </defs>
  <sodipodi:namedview
     pagecolor="#ffffff"
     bordercolor="#666666"
     borderopacity="1"
     objecttolerance="10"
     gridtolerance="10"
     guidetolerance="10"
     inkscape:pageopacity="0"
     inkscape:pageshadow="2"
     inkscape:window-width="1680"
     inkscape:window-height="994"
     id="namedview72"
     showgrid="false"
     inkscape:zoom="7.49"
     inkscape:cx="50"
     inkscape:cy="50"
     inkscape:window-x="-4"
     inkscape:window-y="-4"
     inkscape:window-maximized="1"
     inkscape:current-layer="svg2" />
  <polygon
     points="1007.81,0 1007.81,1007.81 1007.81,1007.81 0,1007.81 0,0 "
     style="fill:#ffffff;fill-opacity:0;stroke:none"
     id="polygon4"
     transform="matrix(0.06188846,0,0,0.06188846,0,-5.859375e-5)" />
  <polygon
     points="0,1000 7.8125,1007.81 7.8125,1007.81 "
     style="fill:#555555;fill-opacity:1;stroke:none"
     id="polygon6"
     transform="matrix(0.06188846,0,0,0.06188846,0,-5.859375e-5)" />
  <polyline
     points="7.8125 1007.81 0 1000"
     style="stroke:none"
     id="polyline8"
     transform="matrix(0.06188846,0,0,0.06188846,0,-5.859375e-5)" />
  <polygon
     points="274.246,936.065 345.366,967.953 424.39,991.869 511.314,999.841 582.436,999.841 645.654,983.897 708.872,952.009 764.188,920.122 859.016,1007.81 890.625,617.188 890.625,617.188 882.723,617.188 503.413,657.047 629.849,776.627 566.631,800.542 511.314,808.515 463.902,800.542 424.39,792.57 376.976,768.655 345.366,736.767 337.465,736.767 203.125,872.29 203.125,880.262 "
     style="fill:#465900;fill-opacity:1;stroke:none"
     id="polygon10"
     transform="matrix(0.06188846,0,0,0.06188846,0,-5.859375e-5)" />
  <polygon
     points="432.229,984.201 511.294,992.187 582.455,984.201 645.708,968.229 708.96,936.284 772.213,904.34 843.374,976.215 875,632.812 535.015,664.756 535.015,664.756 645.708,776.563 614.081,792.534 582.455,808.507 542.921,816.493 511.294,816.493 463.856,816.493 416.415,800.521 376.882,784.548 337.35,752.604 218.75,872.396 282.003,920.312 353.162,960.243 "
     style="fill:#77aa00;fill-opacity:1;stroke:none"
     id="polygon12"
     transform="matrix(0.06188846,0,0,0.06188846,0,-5.859375e-5)" />
  <polygon
     points="31.25,898.055 420.442,937.5 380.729,550.934 372.787,558.824 285.416,645.604 277.474,606.158 269.531,566.713 277.474,519.378 293.359,479.932 309.245,440.487 341.016,401.042 372.787,377.374 412.5,353.707 452.213,337.929 499.87,330.04 507.812,330.04 507.812,132.812 499.87,132.812 499.87,132.812 412.5,140.702 333.073,172.258 261.588,211.704 198.046,266.927 150.391,330.04 110.677,401.042 86.8489,479.932 78.9062,566.713 78.9062,629.825 94.7916,685.05 110.677,740.273 134.505,787.607 "
     style="fill:#4e3966;fill-opacity:1;stroke:none"
     id="polygon14"
     transform="matrix(0.06188846,0,0,0.06188846,0,-5.859375e-5)" />
  <polygon
     points="157.986,795.6 62.5,890.307 404.659,921.876 372.831,574.617 277.345,669.324 261.429,621.972 261.429,566.726 261.429,519.372 277.345,472.019 301.216,432.558 325.087,393.097 364.873,369.42 404.659,337.852 444.445,322.066 492.188,314.174 492.188,314.174 492.188,148.438 412.616,156.33 333.044,187.899 269.387,227.359 205.729,274.714 157.986,337.852 118.201,408.881 94.3287,487.803 86.3716,566.726 94.3287,629.864 102.285,685.11 126.157,740.355 "
     style="fill:url(#linearGradient3670);fill-opacity:1;stroke:none"
     id="polygon16"
     transform="matrix(0.06188846,0,0,0.06188846,0,-5.859375e-5)" />
  <polygon
     points="747.619,567.636 747.619,607.059 739.711,646.484 723.895,678.023 700.171,717.448 834.604,859.374 842.512,851.49 889.958,788.411 921.589,717.448 937.406,646.484 945.313,567.636 937.406,488.787 921.589,417.823 889.958,354.745 842.512,291.666 795.065,236.473 731.802,197.048 668.54,165.509 597.371,141.855 597.371,141.855 597.371,7.812 581.555,15.6973 296.875,252.242 597.371,496.673 597.371,346.86 629.002,362.63 660.633,378.4 684.357,402.055 708.08,433.594 723.895,465.133 739.711,496.673 747.619,528.212 "
     style="fill:#99460d;fill-opacity:1;stroke:none"
     id="polygon18"
     transform="matrix(0.06188846,0,0,0.06188846,0,-5.859375e-5)" />
  <polygon
     points="763.521,607.154 747.697,646.6 739.784,686.046 716.047,717.602 834.736,835.938 874.3,780.715 905.951,709.712 929.688,638.71 929.688,567.709 929.688,496.707 905.951,425.705 874.3,354.703 834.736,299.479 779.348,244.256 723.959,204.81 652.745,173.254 581.531,157.476 581.531,157.476 581.531,31.25 312.5,252.145 581.531,473.039 581.531,323.146 621.095,338.925 652.745,362.592 684.396,386.259 716.047,417.815 731.871,449.372 747.697,488.818 763.521,528.264 763.521,567.709 "
     style="fill:url(#linearGradient3678);fill-opacity:1;stroke:none"
     id="polygon20"
     transform="matrix(0.06188846,0,0,0.06188846,0,-5.859375e-5)" />
  <polygon
     points="539.859,967.953 539.859,967.953 603.635,967.953 659.439,967.953 715.243,952.009 763.074,920.122 858.737,1007.81 890.625,617.188 882.654,617.188 500,657.047 627.551,776.627 587.692,800.542 563.776,800.542 539.859,808.515 "
     style="fill:#465900;fill-opacity:1;stroke:none"
     id="polygon22"
     transform="matrix(0.06188846,0,0,0.06188846,0,-5.859375e-5)" />
  <polygon
     points="507.812,992.187 507.812,992.187 579.653,984.201 643.512,968.229 707.371,936.284 771.229,904.34 843.071,976.215 875,632.812 531.759,664.756 643.512,776.563 611.583,792.534 579.653,808.507 539.741,816.493 507.812,816.493 "
     style="fill:url(#linearGradient3662);fill-opacity:1;stroke:none"
     id="polygon24"
     transform="matrix(0.06188846,0,0,0.06188846,0,-5.859375e-5)" />
  <polygon
     points="1583.81,608 1583.81,1615.81 1583.81,1615.81 576,1615.81 576,608 "
     style="fill:#ffffff;fill-opacity:0;stroke:none"
     id="polygon26"
     transform="matrix(0.06188846,0,0,0.06188846,0,-5.859375e-5)" />
  <polygon
     points="1552.38,1385.34 1520.88,1369.23 1497.26,1337 1473.64,1280.61 1355.53,1272.55 1229.54,1264.49 1079.94,1256.44 812.22,1256.44 725.607,1264.49 694.111,1272.55 678.362,1280.61 662.614,1296.72 654.74,1312.83 638.992,1345.06 623.244,1369.23 599.622,1385.34 576,1401.46 576,1449.8 576,1449.8 607.496,1457.85 701.984,1482.02 859.464,1506.19 977.575,1514.25 1111.43,1514.25 1245.29,1514.25 1347.65,1506.19 1426.39,1498.14 1489.39,1482.02 1560.25,1457.85 1576,1449.8 1576,1401.46 "
     style="fill:#000000;fill-opacity:1;stroke:none"
     id="polygon28"
     transform="matrix(0.06188846,0,0,0.06188846,0,-5.859375e-5)" />
  <polygon
     points="1482.25,1271.3 1482.25,1263.33 1482.25,1239.43 1474.36,1183.67 1450.7,1111.98 1434.92,1080.12 1411.25,1048.26 1363.92,992.497 1332.37,968.601 1300.82,944.704 1253.49,928.772 1206.16,912.841 1150.94,904.875 1079.94,904.875 1001.06,904.875 945.843,912.841 890.624,928.772 851.182,944.704 819.629,968.601 788.076,992.497 740.745,1040.29 740.745,1040.29 717.08,1072.16 701.303,1111.98 677.638,1183.67 669.75,1239.43 669.75,1263.33 669.75,1271.3 677.638,1271.3 803.851,1287.23 930.065,1303.16 1079.94,1311.13 1229.82,1303.16 1356.04,1287.23 "
     style="fill:#000000;fill-opacity:1;stroke:none"
     id="polygon30"
     transform="matrix(0.06188846,0,0,0.06188846,0,-5.859375e-5)" />
  <polygon
     points="1356.09,1000.42 1403.43,1056.24 1427.1,1080.17 1442.88,1112.07 1466.55,1175.87 1474.44,1231.7 1474.44,1263.6 1340.31,1279.55 1214.07,1295.5 1079.94,1295.5 937.927,1295.5 819.58,1279.55 677.562,1263.6 677.562,1231.7 693.343,1175.87 709.121,1104.09 724.902,1072.19 748.571,1048.27 748.571,1048.27 795.91,1000.42 827.47,976.49 859.029,952.564 898.478,936.613 945.818,920.663 1008.94,912.688 1079.94,912.688 1150.95,912.688 1206.18,920.663 1253.52,936.613 1292.97,952.564 1324.53,976.49 "
     style="fill:#aaaaaa;fill-opacity:1;stroke:none"
     id="polygon32"
     transform="matrix(0.06188846,0,0,0.06188846,0,-5.859375e-5)" />
  <polygon
     points="915.012,1200.94 938.833,1209.02 970.596,1225.19 1002.36,1225.19 1105.59,1225.19 1161.17,1217.11 1184.99,1217.11 1200.87,1200.94 1208.81,1184.78 1208.81,1168.61 1200.87,1144.37 1184.99,1120.12 1137.35,1071.63 1097.65,1047.39 1065.88,1047.39 1034.12,1063.55 1026.18,1063.55 1010.3,1063.55 986.477,1047.39 954.714,1031.22 938.833,1006.98 922.952,998.894 907.071,990.812 891.19,990.812 891.19,990.812 851.487,998.894 811.784,1015.06 787.963,1039.3 764.14,1063.55 740.318,1103.96 732.378,1144.37 724.438,1176.7 724.438,1192.86 732.378,1200.94 748.259,1200.94 819.725,1209.02 891.19,1200.94 "
     style="fill:#666666;fill-opacity:1;stroke:none"
     id="polygon34"
     transform="matrix(0.06188846,0,0,0.06188846,0,-5.859375e-5)" />
  <polygon
     points="955.076,1120.69 987.684,1087.49 1028.44,1062.59 1044.75,1054.29 1044.75,1045.99 1020.29,1037.69 955.076,1037.69 955.076,1037.69 938.772,1045.99 906.163,1054.29 881.707,1062.59 865.402,1079.19 857.25,1095.79 857.25,1120.69 857.25,1145.6 865.402,1162.2 881.707,1170.5 898.01,1170.5 922.467,1162.2 938.772,1162.2 "
     style="fill:#e5f2ff;fill-opacity:1;stroke:none"
     id="polygon36"
     transform="matrix(0.06188846,0,0,0.06188846,0,-5.859375e-5)" />
  <polygon
     points="1036.94,748.625 1036.94,842.375 1099.44,842.375 1099.44,748.625 1090.51,748.625 1090.51,748.625 "
     style="fill:#000000;fill-opacity:1;stroke:none"
     id="polygon38"
     transform="matrix(0.06188846,0,0,0.06188846,0,-5.859375e-5)" />
  <polygon
     points="1044.75,756.438 1091.63,756.438 1091.63,756.438 1091.63,834.563 1044.75,834.563 "
     style="fill:#8c8c8c;fill-opacity:1;stroke:none"
     id="polygon40"
     transform="matrix(0.06188846,0,0,0.06188846,0,-5.859375e-5)" />
  <polygon
     points="1029.13,942.736 1037.81,942.736 1046.49,951.15 1072.53,959.563 1089.89,959.563 1107.25,951.15 1107.25,942.736 1107.25,850.188 1098.57,850.188 1098.57,850.188 1029.13,850.188 "
     style="fill:#000000;fill-opacity:1;stroke:none"
     id="polygon42"
     transform="matrix(0.06188846,0,0,0.06188846,0,-5.859375e-5)" />
  <polygon
     points="1044.75,943.227 1044.75,858 1099.44,858 1099.44,858 1099.44,943.227 1090.32,943.227 1072.09,951.75 1053.86,943.227 "
     style="fill:#8c8c8c;fill-opacity:1;stroke:none"
     id="polygon44"
     transform="matrix(0.06188846,0,0,0.06188846,0,-5.859375e-5)" />
  <polygon
     points="1099.44,936.125 1107.25,943.938 1107.25,943.938 "
     style="fill:#000000;fill-opacity:1;stroke:none"
     id="polygon46"
     transform="matrix(0.06188846,0,0,0.06188846,0,-5.859375e-5)" />
  <polygon
     points="1030.33,818.938 1013.5,827.531 1013.5,827.531 1013.5,836.125 1013.5,887.689 1021.91,896.282 1038.74,904.875 1072.4,904.875 1097.64,904.875 1114.46,896.282 1122.88,887.689 1122.88,836.125 1114.46,827.531 1072.4,818.938 1047.15,818.938 "
     style="fill:#000000;fill-opacity:1;stroke:none"
     id="polygon48"
     transform="matrix(0.06188846,0,0,0.06188846,0,-5.859375e-5)" />
  <polygon
     points="1115.06,835.539 1115.06,888.274 1106.54,888.274 1072.45,897.063 1038.36,897.063 1021.31,888.274 1021.31,835.539 1038.36,826.75 1072.45,826.75 1072.45,826.75 1098.02,826.75 "
     style="fill:#aaaaaa;fill-opacity:1;stroke:none"
     id="polygon50"
     transform="matrix(0.06188846,0,0,0.06188846,0,-5.859375e-5)" />
  <polygon
     points="1122.88,776.749 1106.14,786.125 1064.28,795.5 1022.43,786.125 1014.06,776.749 1005.69,767.375 1014.06,767.375 1022.43,758 1064.28,748.625 1106.14,758 1122.88,767.375 1122.88,767.375 "
     style="fill:#555555;fill-opacity:1;stroke:none"
     id="polygon52"
     transform="matrix(0.06188846,0,0,0.06188846,0,-5.859375e-5)" />
  <polygon
     points="1005.69,760.344 1014.06,770.11 1039.17,779.875 1064.28,779.875 1097.76,779.875 1114.51,770.11 1122.88,760.344 1114.51,750.578 1097.76,740.812 1064.28,740.812 1039.17,740.812 1014.06,750.578 1005.69,760.344 "
     style="fill:#000000;fill-opacity:1;stroke:none"
     id="polygon54"
     transform="matrix(0.06188846,0,0,0.06188846,0,-5.859375e-5)" />
  <polygon
     points="1063.93,772.063 1038.36,772.063 1021.31,760.344 1038.36,748.625 1063.93,748.625 1063.93,748.625 1098.02,748.625 1115.06,760.344 1098.02,772.063 "
     style="fill:#aaaaaa;fill-opacity:1;stroke:none"
     id="polygon56"
     transform="matrix(0.06188846,0,0,0.06188846,0,-5.859375e-5)" />
  <polygon
     points="1234.72,952.46 1218.27,952.46 1218.27,952.46 1201.82,943.938 1193.6,952.46 1185.38,960.982 1185.38,969.506 1193.6,978.029 1242.94,995.074 1292.28,1012.12 1333.4,1029.17 1341.63,1037.69 1333.4,1029.17 1308.73,995.074 1259.39,960.982 "
     style="fill:#e5f2ff;fill-opacity:1;stroke:none"
     id="polygon58"
     transform="matrix(0.06188846,0,0,0.06188846,0,-5.859375e-5)" />
  <polygon
     points="630.688,1242.76 630.688,1259.37 638.569,1275.97 638.569,1284.27 677.977,1292.57 772.556,1317.47 914.427,1334.07 993.242,1342.37 1079.94,1342.37 1253.34,1334.07 1387.33,1309.17 1474.02,1292.57 1513.43,1284.27 1513.43,1275.97 1521.31,1259.37 1521.31,1242.76 1513.43,1234.46 1497.67,1217.86 1489.79,1209.56 1489.79,1209.56 1458.26,1226.17 1363.68,1251.07 1237.57,1275.97 1158.76,1284.27 1079.94,1284.27 1001.12,1284.27 922.308,1275.97 788.321,1251.07 693.741,1226.17 662.214,1209.56 654.332,1217.86 638.569,1234.46 "
     style="fill:#333333;fill-opacity:1;stroke:none"
     id="polygon60"
     transform="matrix(0.06188846,0,0,0.06188846,0,-5.859375e-5)" />
  <polygon
     points="922.236,1326.15 788.216,1309.32 693.614,1284.08 646.313,1275.67 646.313,1250.43 646.313,1233.6 662.08,1225.19 701.497,1233.6 796.099,1258.84 930.119,1284.08 1001.07,1292.5 1079.91,1292.5 1079.91,1292.5 1158.74,1292.5 1229.69,1284.08 1363.71,1258.84 1450.43,1233.6 1489.85,1225.19 1505.62,1233.6 1513.5,1258.84 1505.62,1275.67 1466.2,1284.08 1371.6,1300.91 1245.46,1326.15 1079.91,1334.56 "
     style="fill:#cccccc;fill-opacity:1;stroke:none"
     id="polygon62"
     transform="matrix(0.06188846,0,0,0.06188846,0,-5.859375e-5)" />
  <polygon
     points="822.554,1277.64 911.019,1286.57 943.188,1295.5 806.468,1286.57 718.004,1259.79 669.75,1250.86 677.792,1233 677.792,1233 726.047,1250.86 774.299,1268.71 "
     style="fill:#e5f2ff;fill-opacity:1;stroke:none"
     id="polygon64"
     transform="matrix(0.06188846,0,0,0.06188846,0,-5.859375e-5)" />
  <polygon
     points="1307.45,1291.95 1212.23,1308.99 990.062,1334.56 1077.34,1326.04 1243.97,1317.52 1331.25,1300.47 1410.59,1283.43 1497.87,1257.86 1482.01,1240.81 1482.01,1240.81 1394.72,1266.38 "
     style="fill:#999999;fill-opacity:1;stroke:none"
     id="polygon66"
     transform="matrix(0.06188846,0,0,0.06188846,0,-5.859375e-5)" />
  <polygon
     points="799.116,1418.27 887.581,1427.2 919.75,1436.13 783.031,1427.2 694.567,1409.34 646.313,1391.48 654.355,1373.63 654.355,1373.63 702.608,1391.48 750.862,1409.34 "
     style="fill:#bbbbbb;fill-opacity:1;stroke:none"
     id="polygon68"
     transform="matrix(0.06188846,0,0,0.06188846,0,-5.859375e-5)" />
  <polygon
     points="868.577,1251.23 811.156,1240.81 794.75,1240.81 876.781,1261.65 934.202,1272.06 958.812,1272.06 958.812,1251.23 958.812,1251.23 926,1261.65 901.39,1261.65 "
     style="fill:#e5f2ff;fill-opacity:1;stroke:none"
     id="polygon70"
     transform="matrix(0.06188846,0,0,0.06188846,0,-5.859375e-5)" />
</svg>
