<?xml version="1.0"?>
<?metis version="3.6"?>
<?metisxml version="1.1"?>
<!DOCTYPE svg  PUBLIC "-//W3C//DTD SVG 1.0//EN"
 "http://www.w3.org/TR/2001/REC-SVG-20010904/DTD/svg10.dtd">

<svg>
 <title>Symbol library: process_flow1.svg</title>
 <defs>
  <symbol id="oid12" xml:space="preserve" class="METIS_SYMBOL">
   <title>Intflow open</title>
    <polygon points="0 248.242 441.108 248.242 441.108 155.152 
     472.615 155.152 472.615 186.182 504.123 124.121 472.615 62.0606 
     472.615 93.0909 441.108 93.0909 441.108 0 0 0 
     0 93.0909 31.5077 93.0909 31.5077 62.0606 63.0154 124.121 
     31.5077 186.182 31.5077 155.152 0 155.152 0 248.242"
     style=" stroke:#000000; stroke-width:1; fill:#ffb367; fill-opacity:100%"     class="TAG:canvas"></polygon>
    <g     class="TAG:connection_points:EastWest">
    </g>
    <g>
      <desc>METIS_TEXT_GROUP</desc>
      <text  x="56" y="31"
       style=" stroke:#000000; stroke-width:1; font-family:sans-serif; font-size:32;"
       class="TAG:text">text</text>
      <rect x="56" y="0" width="384" height="128"
       style=" stroke:#000000; stroke-width:1; fill:#000000; fill-opacity:0%"></rect>
    </g>
    <g>
      <desc>METIS_TEXT_GROUP</desc>
      <text  x="56" y="159"
       style=" stroke:#000000; stroke-width:1; font-family:sans-serif; font-size:32;"
       class="TAG:value"></text>
      <rect x="56" y="128" width="384" height="120"
       style=" stroke:#000000; stroke-width:1; fill:#000000; fill-opacity:0%"></rect>
    </g>
  </symbol>
  <symbol id="oid11" xml:space="preserve" class="METIS_SYMBOL">
   <title>Intflow closed</title>
    <g     class="TAG:connection_points:EastWest">
    </g>
    <polygon points="0 248.242 441.108 248.242 441.108 155.152 
     472.615 155.152 472.615 186.182 504.123 124.121 472.615 62.0606 
     472.615 93.0909 441.108 93.0909 441.108 0 0 0 
     0 93.0909 31.5077 93.0909 31.5077 62.0606 63.0154 124.121 
     31.5077 186.182 31.5077 155.152 0 155.152 0 248.242"
     style=" stroke:#000000; stroke-width:1; fill:#ffb367; fill-opacity:100%"     class="TAG:canvas"></polygon>
    <g>
      <desc>METIS_TEXT_GROUP</desc>
      <text  x="56" y="62"
       style=" stroke:#000000; stroke-width:1; font-family:sans-serif; font-size:64;"
       class="TAG:text">text</text>
      <rect x="56" y="0" width="384" height="248"
       style=" stroke:#000000; stroke-width:1; fill:#000000; fill-opacity:0%"></rect>
    </g>
  </symbol>
  <symbol id="oid30" xml:space="preserve" class="METIS_SYMBOL">
   <title>Intflow open (Feedback)</title>
    <polygon points="64.863 248.242 504 248 504 156 
     476 156 476 188 437.825 122.121 476 60 
     476 96 504 96 504 0 64.863 0 
     64.863 93.6259 32.4315 93.6259 32.4315 61.0603 0 122.121 
     32.4315 187.252 32.4315 154.686 64.863 154.686 64.863 248.242"
     style=" stroke:#000000; stroke-width:1; fill:#ffb367; fill-opacity:100%"     class="TAG:canvas"></polygon>
    <g>
      <desc>METIS_TEXT_GROUP</desc>
      <text  x="72" y="15"
       style=" stroke:#000000; stroke-width:1; font-family:sans-serif; font-size:16;"
       class="TAG:text">text</text>
      <rect x="72" y="0" width="432" height="248"
       style=" stroke:#000000; stroke-width:1; fill:#000000; fill-opacity:0%"></rect>
    </g>
    <g     class="TAG:connection_points:EastWest">
    </g>
  </symbol>
  <symbol id="oid31" xml:space="preserve" class="METIS_SYMBOL">
   <title>Intflow open (IDEF0)</title>
    <rect x="0" y="0" width="512" height="256"
     style="stroke:none; fill:#000000; fill-opacity:0%"></rect>
    <polyline points="0 0 0 256"
     style="stroke:none;"></polyline>
    <g>
      <desc>METIS_TEXT_GROUP</desc>
      <text  x="8" y="21"
       style=" stroke:#000000; stroke-width:1; font-family:sans-serif; font-size:22;"
       class="TAG:text"></text>
      <rect x="8" y="0" width="504" height="128"
       style=" stroke:#000000; stroke-width:1; fill:#000000; fill-opacity:0%"></rect>
    </g>
    <polyline points="0 128 512 128"
     style=" stroke:#000000; stroke-width:1;"     class="TAG:connection_area"></polyline>
    <g>
      <desc>METIS_TEXT_GROUP</desc>
      <text  x="8" y="149"
       style=" stroke:#000000; stroke-width:1; font-family:sans-serif; font-size:22;"
       class="TAG:value"></text>
      <rect x="8" y="128" width="504" height="128"
       style=" stroke:#000000; stroke-width:1; fill:#000000; fill-opacity:0%"></rect>
    </g>
  </symbol>
  <symbol id="oid32" xml:space="preserve" class="METIS_SYMBOL">
   <title>Intflow closed (IDEF0)</title>
    <rect x="0" y="0" width="512" height="256"
     style="stroke:none; fill:#000000; fill-opacity:0%"></rect>
    <polyline points="0 0 0 256"
     style="stroke:none;"></polyline>
    <polyline points="0 128 512 128"
     style=" stroke:#000000; stroke-width:1;"     class="TAG:connection_area"></polyline>
    <g>
      <desc>METIS_TEXT_GROUP</desc>
      <text  x="4" y="52"
       style=" stroke:#000000; stroke-width:1; font-family:sans-serif; font-size:38; text-align:center"
       class="TAG:text"></text>
      <rect x="4" y="16" width="508" height="240"
       style=" stroke:#000000; stroke-width:1; fill:#000000; fill-opacity:0%"></rect>
    </g>
  </symbol>
 </defs>
 <use xlink:href="#oid12"/>
</svg>
