<?xml version="1.0" encoding="UTF-8" standalone="no"?>

<svg
 xmlns:dc="http://purl.org/dc/elements/1.1/"
   xmlns:cc="http://creativecommons.org/ns#"
   xmlns:rdf="http://www.w3.org/1999/02/22-rdf-syntax-ns#"
   xmlns:svg="http://www.w3.org/2000/svg"
   xmlns="http://www.w3.org/2000/svg"
   xmlns:xlink="http://www.w3.org/1999/xlink"
   xmlns:sodipodi="http://sodipodi.sourceforge.net/DTD/sodipodi-0.dtd"
   xmlns:inkscape="http://www.inkscape.org/namespaces/inkscape"
   id="svg2"
   version="1.1"
   inkscape:version="0.47 r22583"
   width="100"
   height="100"
   sodipodi:docname="processevent.svg">
  <metadata
     id="metadata106">
    <rdf:RDF>
      <cc:Work
         rdf:about="">
        <dc:format>image/svg+xml</dc:format>
        <dc:type
           rdf:resource="http://purl.org/dc/dcmitype/StillImage" />
      </cc:Work>
    </rdf:RDF>
  </metadata>
  <defs
     id="defs104">
    <linearGradient
       inkscape:collect="always"
       id="linearGradient3766">
      <stop
         style="stop-color:#99460d;stop-opacity:1;"
         offset="0"
         id="stop3768" />
      <stop
         style="stop-color:#99460d;stop-opacity:0;"
         offset="1"
         id="stop3770" />
    </linearGradient>
    <linearGradient
       inkscape:collect="always"
       id="linearGradient3758">
      <stop
         style="stop-color:#ffe3ab;stop-opacity:1;"
         offset="0"
         id="stop3760" />
      <stop
         style="stop-color:#ffe3ab;stop-opacity:0;"
         offset="1"
         id="stop3762" />
    </linearGradient>
    <linearGradient
       inkscape:collect="always"
       id="linearGradient3750">
      <stop
         style="stop-color:#ff9900;stop-opacity:1;"
         offset="0"
         id="stop3752" />
      <stop
         style="stop-color:#ff9900;stop-opacity:0;"
         offset="1"
         id="stop3754" />
    </linearGradient>
    <linearGradient
       inkscape:collect="always"
       id="linearGradient3742">
      <stop
         style="stop-color:#000000;stop-opacity:1;"
         offset="0"
         id="stop3744" />
      <stop
         style="stop-color:#000000;stop-opacity:0;"
         offset="1"
         id="stop3746" />
    </linearGradient>
    <linearGradient
       inkscape:collect="always"
       id="linearGradient3734">
      <stop
         style="stop-color:#000000;stop-opacity:1;"
         offset="0"
         id="stop3736" />
      <stop
         style="stop-color:#000000;stop-opacity:0;"
         offset="1"
         id="stop3738" />
    </linearGradient>
    <linearGradient
       inkscape:collect="always"
       id="linearGradient3726">
      <stop
         style="stop-color:#000000;stop-opacity:1;"
         offset="0"
         id="stop3728" />
      <stop
         style="stop-color:#000000;stop-opacity:0;"
         offset="1"
         id="stop3730" />
    </linearGradient>
    <linearGradient
       inkscape:collect="always"
       id="linearGradient3718">
      <stop
         style="stop-color:#8864b2;stop-opacity:1;"
         offset="0"
         id="stop3720" />
      <stop
         style="stop-color:#8864b2;stop-opacity:0;"
         offset="1"
         id="stop3722" />
    </linearGradient>
    <linearGradient
       inkscape:collect="always"
       id="linearGradient3710">
      <stop
         style="stop-color:#000000;stop-opacity:1;"
         offset="0"
         id="stop3712" />
      <stop
         style="stop-color:#000000;stop-opacity:0;"
         offset="1"
         id="stop3714" />
    </linearGradient>
    <linearGradient
       inkscape:collect="always"
       id="linearGradient3702">
      <stop
         style="stop-color:#000000;stop-opacity:1;"
         offset="0"
         id="stop3704" />
      <stop
         style="stop-color:#000000;stop-opacity:0;"
         offset="1"
         id="stop3706" />
    </linearGradient>
    <linearGradient
       inkscape:collect="always"
       id="linearGradient3694">
      <stop
         style="stop-color:#000000;stop-opacity:1;"
         offset="0"
         id="stop3696" />
      <stop
         style="stop-color:#000000;stop-opacity:0;"
         offset="1"
         id="stop3698" />
    </linearGradient>
    <linearGradient
       inkscape:collect="always"
       id="linearGradient3686">
      <stop
         style="stop-color:#000000;stop-opacity:1;"
         offset="0"
         id="stop3688" />
      <stop
         style="stop-color:#000000;stop-opacity:0;"
         offset="1"
         id="stop3690" />
    </linearGradient>
    <inkscape:perspective
       sodipodi:type="inkscape:persp3d"
       inkscape:vp_x="0 : 0.5 : 1"
       inkscape:vp_y="0 : 1000 : 0"
       inkscape:vp_z="1 : 0.5 : 1"
       inkscape:persp3d-origin="0.5 : 0.33333333 : 1"
       id="perspective108" />
    <linearGradient
       inkscape:collect="always"
       xlink:href="#linearGradient3686"
       id="linearGradient3692"
       x1="257.81201"
       y1="417.96899"
       x2="812.5"
       y2="417.96899"
       gradientUnits="userSpaceOnUse" />
    <linearGradient
       inkscape:collect="always"
       xlink:href="#linearGradient3694"
       id="linearGradient3700"
       x1="351.56201"
       y1="656.24951"
       x2="1000"
       y2="656.24951"
       gradientUnits="userSpaceOnUse" />
    <linearGradient
       inkscape:collect="always"
       xlink:href="#linearGradient3702"
       id="linearGradient3708"
       x1="460.93799"
       y1="628.90601"
       x2="867.18799"
       y2="628.90601"
       gradientUnits="userSpaceOnUse" />
    <linearGradient
       inkscape:collect="always"
       xlink:href="#linearGradient3710"
       id="linearGradient3716"
       x1="445.31201"
       y1="703.12451"
       x2="992.18701"
       y2="703.12451"
       gradientUnits="userSpaceOnUse" />
    <linearGradient
       inkscape:collect="always"
       xlink:href="#linearGradient3718"
       id="linearGradient3724"
       x1="23.4375"
       y1="503.90601"
       x2="421.875"
       y2="503.90601"
       gradientUnits="userSpaceOnUse" />
    <linearGradient
       inkscape:collect="always"
       xlink:href="#linearGradient3726"
       id="linearGradient3732"
       x1="171.875"
       y1="757.8125"
       x2="765.625"
       y2="757.8125"
       gradientUnits="userSpaceOnUse" />
    <linearGradient
       inkscape:collect="always"
       xlink:href="#linearGradient3734"
       id="linearGradient3740"
       x1="304.68799"
       y1="656.24951"
       x2="992.18799"
       y2="656.24951"
       gradientUnits="userSpaceOnUse" />
    <linearGradient
       inkscape:collect="always"
       xlink:href="#linearGradient3742"
       id="linearGradient3748"
       x1="296.875"
       y1="656.25"
       x2="1007.81"
       y2="656.25"
       gradientUnits="userSpaceOnUse" />
    <linearGradient
       inkscape:collect="always"
       xlink:href="#linearGradient3750"
       id="linearGradient3756"
       x1="367.18799"
       y1="468.74951"
       x2="539.06299"
       y2="468.74951"
       gradientUnits="userSpaceOnUse" />
    <linearGradient
       inkscape:collect="always"
       xlink:href="#linearGradient3758"
       id="linearGradient3764"
       x1="273.43799"
       y1="390.625"
       x2="492.18799"
       y2="390.625"
       gradientUnits="userSpaceOnUse" />
    <linearGradient
       inkscape:collect="always"
       xlink:href="#linearGradient3766"
       id="linearGradient3772"
       x1="257.81201"
       y1="351.5625"
       x2="437.5"
       y2="351.5625"
       gradientUnits="userSpaceOnUse" />
  </defs>
  <sodipodi:namedview
     pagecolor="#ffffff"
     bordercolor="#666666"
     borderopacity="1"
     objecttolerance="10"
     gridtolerance="10"
     guidetolerance="10"
     inkscape:pageopacity="0"
     inkscape:pageshadow="2"
     inkscape:window-width="1280"
     inkscape:window-height="1002"
     id="namedview102"
     showgrid="false"
     inkscape:zoom="0.44851479"
     inkscape:cx="1102.1504"
     inkscape:cy="313.61259"
     inkscape:window-x="1272"
     inkscape:window-y="-8"
     inkscape:window-maximized="1"
     inkscape:current-layer="svg2" />
  <title
     id="title4">Symbol library: processevent.svg</title>
  <polygon
     points="1007.81,0 1007.81,1007.81 1007.81,1007.81 0,1007.81 0,0 "
     style="fill:#ffffff;fill-opacity:0;stroke:none"
     id="polygon6"
     transform="scale(0.09922505,0.09922505)" />
  <polyline
     points="1007.81 1007.81 0 1007.81 0 0         1007.81 0 1007.81 1007.81"
     style="fill:#ffffff;fill-opacity:0;stroke:none"
     id="polyline8"
     transform="scale(0.09922505,0.09922505)" />
  <polygon
     points="314.478,713.889 282.832,689.931 274.921,689.931 156.25,809.723 156.25,817.708 219.541,865.625 282.832,897.569 354.034,921.528 433.149,929.514 496.44,921.528 559.731,913.542 615.11,889.583 662.579,849.653 749.604,937.5 781.25,578.125 781.25,578.125 773.338,578.125 433.149,618.056 535.997,721.875 488.528,745.834 433.149,753.819 393.592,745.834 354.034,737.847 "
     style="fill:#465900;fill-opacity:1;stroke:none"
     id="polygon10"
     transform="scale(0.09922505,0.09922505)" />
  <polyline
     points="781.25 578.125 773.338 578.125 433.149 618.056         535.997 721.875  488.528 745.834 433.149 753.819          393.592 745.834 354.034 737.847 314.478 713.889         282.832 689.931 274.921 689.931 156.25 809.723 156.25 817.708          219.541 865.625 282.832 897.569 354.034 921.528         433.149 929.514  496.44 921.528 559.731 913.542         615.11 889.583 662.579 849.653 749.604 937.5 781.25 578.125"
     style="stroke:none"
     id="polyline12"
     transform="scale(0.09922505,0.09922505)" />
  <polygon
     points="282.708,705.793 171.875,809.833 227.291,857.85 290.625,889.862 361.875,913.872 433.126,921.875 496.459,913.872 559.793,897.866 615.209,873.857 670.625,833.841 733.958,905.869 765.625,593.75 456.875,625.762 456.875,625.762 559.793,729.801 496.459,753.811 464.792,761.814 433.126,761.814 393.542,761.814 353.958,745.808 314.375,729.801 "
     style="fill:#77aa00;fill-opacity:1;stroke:none"
     id="polygon14"
     transform="scale(0.09922505,0.09922505)" />
  <polyline
     points="456.875 625.762  559.793 729.801          496.459 753.811 464.792 761.814 433.126 761.814          393.542 761.814 353.958 745.808 314.375 729.801         282.708 705.793  171.875 809.833  227.291 857.85 290.625 889.862 361.875 913.872 433.126 921.875          496.459 913.872 559.793 897.866 615.209 873.857         670.625 833.841  733.958 905.869  765.625 593.75  456.875 625.762"
     style="fill:url(#linearGradient3732);fill-opacity:1;stroke:none"
     id="polyline16"
     transform="scale(0.09922505,0.09922505)" />
  <polygon
     points="39.7859,535.496 47.7431,590.778 55.7003,638.162 71.6147,693.444 95.4862,740.828 0,835.597 350.116,867.187 318.287,519.701 310.331,527.599 230.758,606.572 222.801,574.982 214.845,535.496 222.801,496.009 230.758,456.522 254.63,417.034 278.502,385.444 310.331,361.753 342.159,338.061 381.945,322.265 429.688,322.265 429.688,140.625 421.73,140.625 421.73,140.625 350.116,156.42 270.544,180.113 206.887,211.702 151.187,259.086 103.443,322.265 71.6147,385.444 47.7431,456.522 "
     style="fill:#4e3966;fill-opacity:1;stroke:none"
     id="polygon18"
     transform="scale(0.09922505,0.09922505)" />
  <polygon
     points="55.3126,464.4 55.3126,535.511 55.3126,590.821 71.2501,646.129 87.1877,693.537 111.094,740.944 23.4375,827.858 334.22,851.562 310.314,543.412 222.657,630.326 214.688,582.919 206.719,535.511 206.719,496.005 222.657,448.597 238.594,416.991 270.469,377.486 302.344,353.781 334.22,330.078 374.064,314.275 421.875,306.375 421.875,306.375 421.875,156.25 342.189,164.151 278.439,187.855 214.688,227.361 158.907,274.77 111.094,330.078 79.2189,393.288 "
     style="fill:url(#linearGradient3724);fill-opacity:1;stroke:none"
     id="polygon20"
     transform="scale(0.09922505,0.09922505)" />
  <polygon
     points="590.626,386.48 614.375,410.157 630.209,441.726 638.125,473.295 646.042,504.864 653.959,536.433 646.042,575.893 638.125,607.462 622.293,639.031 606.458,670.6 725.209,796.876 733.125,788.984 772.709,733.738 804.375,670.6 820.209,607.462 828.125,536.433 820.209,465.403 804.375,402.265 772.709,339.127 733.125,283.881 693.542,236.528 638.125,197.066 574.791,173.39 511.458,149.714 511.458,149.714 511.458,23.438 495.626,31.3297 234.375,252.312 511.458,473.295 511.458,331.235 535.209,347.019 566.875,362.804 "
     style="fill:#99460d;fill-opacity:1;stroke:none"
     id="polygon22"
     transform="scale(0.09922505,0.09922505)" />
  <polyline
     points="511.458 149.714 511.458 23.438 495.626 31.3297         234.375 252.312 511.458 473.295 511.458 331.235  535.209 347.019 566.875 362.804 590.626 386.48 614.375 410.157         630.209 441.726 638.125 473.295 646.042 504.864 653.959 536.433          646.042 575.893 638.125 607.462 622.293 639.031         606.458 670.6  725.209 796.876 733.125 788.984          772.709 733.738 804.375 670.6 820.209 607.462         828.125 536.433  820.209 465.403 804.375 402.265         772.709 339.127 733.125 283.881 693.542 236.528 638.125 197.066         574.791 173.39 511.458 149.714"
     style="stroke:none"
     id="polyline24"
     transform="scale(0.09922505,0.09922505)" />
  <polygon
     points="614.397,402.174 638.169,425.866 654.018,465.353 661.942,496.943 661.942,536.43 661.942,575.916 654.018,607.506 638.169,639.096 622.322,670.685 725.334,781.25 764.954,725.968 796.651,662.788 812.5,599.609 812.5,536.43 812.5,465.353 788.727,402.174 764.954,346.892 725.334,291.609 677.79,244.226 622.322,204.738 558.929,181.047 495.536,165.251 495.536,165.251 495.536,54.688 257.812,252.123 495.536,449.558 495.536,315.302 535.156,331.097 566.852,346.892 590.625,370.585 "
     style="fill:#ff7711;fill-opacity:1;stroke:none"
     id="polygon26"
     transform="scale(0.09922505,0.09922505)" />
  <polyline
     points="495.536 165.251  495.536 54.688          257.812 252.123  495.536 449.558          495.536 315.302  535.156 331.097         566.852 346.892 590.625 370.585 614.397 402.174 638.169 425.866         654.018 465.353 661.942 496.943 661.942 536.43  661.942 575.916 654.018 607.506 638.169 639.096 622.322 670.685          725.334 781.25  764.954 725.968         796.651 662.788 812.5 599.609 812.5 536.43  812.5 465.353 788.727 402.174 764.954 346.892 725.334 291.609         677.79 244.226 622.322 204.738 558.929 181.047 495.536 165.251"
     style="fill:url(#linearGradient3692);fill-opacity:1;stroke:none"
     id="polyline28"
     transform="scale(0.09922505,0.09922505)" />
  <polygon
     points="429.688,618.056 533.558,721.875 501.598,745.834 485.618,745.834 461.648,753.819 461.648,897.569 461.648,897.569 517.578,897.569 565.518,897.569 613.459,881.597 661.399,849.653 749.29,937.5 781.25,578.125 773.259,578.125 "
     style="fill:#465900;fill-opacity:1;stroke:none"
     id="polygon30"
     transform="scale(0.09922505,0.09922505)" />
  <polyline
     points="461.648 897.569  517.578 897.569         565.518 897.569 613.459 881.597 661.399 849.653 749.29 937.5         781.25 578.125 773.259 578.125 429.688 618.056 533.558 721.875          501.598 745.834 485.618 745.834 461.648 753.819         461.648 897.569"
     style="stroke:none"
     id="polyline32"
     transform="scale(0.09922505,0.09922505)" />
  <polygon
     points="557.665,729.801 493.676,753.811 461.682,761.814 429.688,761.814 429.688,921.875 429.688,921.875 493.676,913.872 557.665,897.866 613.654,873.857 669.643,833.841 733.632,905.869 765.626,593.75 453.683,625.762 "
     style="fill:#77aa00;fill-opacity:1;stroke:none"
     id="polygon34"
     transform="scale(0.09922505,0.09922505)" />
  <polyline
     points="429.688 921.875  493.676 913.872         557.665 897.866 613.654 873.857 669.643 833.841  733.632 905.869  765.626 593.75  453.683 625.762  557.665 729.801  493.676 753.811 461.682 761.814 429.688 761.814 429.688 921.875"
     style="stroke:none"
     id="polyline36"
     transform="scale(0.09922505,0.09922505)" />
  <polygon
     points="802.431,312.5 747.136,320.402 699.739,328.305 644.445,344.109 597.049,367.817 549.653,391.523 510.156,423.132 470.66,454.741 431.164,494.253 399.567,533.764 367.969,581.178 344.271,628.592 328.472,676.006 312.674,731.321 304.775,786.638 296.875,841.955 296.875,841.955 304.775,936.782 312.674,1000 999.914,1000 1007.81,336.207 999.914,328.305 928.82,312.5 857.726,312.5 "
     style="fill:#99460d;fill-opacity:1;stroke:none"
     id="polygon38"
     transform="scale(0.09922505,0.09922505)" />
  <polyline
     points="296.875 841.955  304.775 936.782         312.674 1000  999.914 1000 1007.81 336.207         999.914 328.305  928.82 312.5 857.726 312.5          802.431 312.5 747.136 320.402 699.739 328.305         644.445 344.109 597.049 367.817 549.653 391.523 510.156 423.132         470.66 454.741 431.164 494.253 399.567 533.764 367.969 581.178         344.271 628.592 328.472 676.006 312.674 731.321 304.775 786.638         296.875 841.955"
     style="fill:url(#linearGradient3748);fill-opacity:1;stroke:none"
     id="polyline40"
     transform="scale(0.09922505,0.09922505)" />
  <polygon
     points="439.027,502.114 478.538,462.592 518.05,430.975 557.562,407.261 604.975,375.643 652.389,359.835 699.802,344.026 755.119,328.217 802.533,320.312 857.848,320.312 928.97,328.217 992.188,344.026 992.188,992.187 328.394,992.187 312.59,928.952 304.688,849.908 304.688,849.908 304.688,842.004 312.59,786.672 320.492,731.341 336.297,683.916 360.004,636.488 383.71,589.063 407.417,541.635 "
     style="fill:#ff9900;fill-opacity:1;stroke:none"
     id="polygon42"
     transform="scale(0.09922505,0.09922505)" />
  <polyline
     points="304.688 849.908 304.688 842.004  312.59 786.672 320.492 731.341 336.297 683.916 360.004 636.488         383.71 589.063 407.417 541.635 439.027 502.114 478.538 462.592         518.05 430.975 557.562 407.261 604.975 375.643 652.389 359.835         699.802 344.026 755.119 328.217 802.533 320.312 857.848 320.312          928.97 328.217 992.188 344.026  992.188 992.187  328.394 992.187  312.59 928.952 304.688 849.908"
     style="fill:url(#linearGradient3740);fill-opacity:1;stroke:none"
     id="polyline44"
     transform="scale(0.09922505,0.09922505)" />
  <polygon
     points="554.687,505.313 424.687,367.188 424.687,367.188 351.562,432.188 481.562,570.313 "
     style="fill:#bf5710;fill-opacity:1;stroke:none"
     id="polygon46"
     transform="scale(0.09922505,0.09922505)" />
  <polygon
     points="367.188,431.92 424.479,382.812 424.479,382.812 539.063,505.58 481.771,554.687 "
     style="fill:url(#linearGradient3756);fill-opacity:1;stroke:none"
     id="polygon48"
     transform="scale(0.09922505,0.09922505)" />
  <polygon
     points="419.102,265.625 419.102,265.625 257.812,418.851 346.522,515.625 370.716,499.497 402.974,483.367 443.296,451.109 491.683,394.658 507.812,362.399 "
     style="fill:#bf5710;fill-opacity:1;stroke:none"
     id="polygon50"
     transform="scale(0.09922505,0.09922505)" />
  <polygon
     points="419.271,281.25 492.188,362.268 475.984,394.676 435.475,443.287 378.762,483.795 346.354,500 273.438,418.981 419.271,281.25 "
     style="fill:url(#linearGradient3764);fill-opacity:1;stroke:none"
     id="polygon52"
     transform="scale(0.09922505,0.09922505)" />
  <polygon
     points="363.991,372.024 412.997,322.916 429.332,298.363 437.5,281.994 429.332,273.81 421.164,265.625 412.997,265.625 388.493,281.994 323.153,331.101 323.153,331.101 274.148,380.208 257.812,404.762 257.812,429.315 257.812,437.5 265.98,437.5 274.148,437.5 306.819,421.13 "
     style="fill:url(#linearGradient3772);fill-opacity:1;stroke:none"
     id="polygon54"
     transform="scale(0.09922505,0.09922505)" />
  <polygon
     points="265.625,429.688 265.625,429.688 282.072,396.702 331.415,338.976 397.204,289.496 421.875,281.25 405.429,314.236 356.085,363.716 298.52,413.195 "
     style="fill:#ff9900;fill-opacity:1;stroke:none"
     id="polygon56"
     transform="scale(0.09922505,0.09922505)" />
  <polygon
     points="335.938,818.206 343.842,873.509 351.746,928.81 367.556,999.913 367.556,1007.81 1007.81,1007.81 999.909,320.488 952.482,312.588 881.342,304.688 833.916,304.688 778.585,312.588 731.158,328.388 683.732,344.189 636.305,359.99 588.879,383.69 541.452,415.291 501.93,446.892 501.93,446.892 470.313,486.394 438.695,525.896 407.077,573.297 383.363,620.699 367.556,668.1 351.746,715.503 343.842,762.904 "
     style="fill:#bf5710;fill-opacity:1;stroke:none"
     id="polygon58"
     transform="scale(0.09922505,0.09922505)" />
  <polyline
     points="501.93 446.892  470.313 486.394         438.695 525.896 407.077 573.297 383.363 620.699 367.556 668.1         351.746 715.503 343.842 762.904 335.938 818.206  343.842 873.509 351.746 928.81 367.556 999.913 367.556 1007.81         1007.81 1007.81 999.909 320.488   952.482 312.588 881.342 304.688  833.916 304.688         778.585 312.588 731.158 328.388 683.732 344.189 636.305 359.99         588.879 383.69 541.452 415.291 501.93 446.892"
     style="stroke:none"
     id="polyline60"
     transform="scale(0.09922505,0.09922505)" />
  <polygon
     points="478.086,494.21 517.626,462.592 549.257,423.07 596.703,399.357 636.242,375.643 683.689,351.93 731.135,336.122 778.582,328.217 833.936,320.312 881.383,320.312 944.645,328.217 992.092,336.122 1000,992.187 375.286,992.187 359.47,921.047 351.562,826.194 351.562,826.194 351.562,818.29 351.562,770.864 367.379,715.533 375.286,668.106 399.01,620.68 422.732,581.158 446.455,533.731 "
     style="fill:#ffe3ab;fill-opacity:1;stroke:none"
     id="polygon62"
     transform="scale(0.09922505,0.09922505)" />
  <polyline
     points="351.562 826.194 351.562 818.29  351.562 770.864 367.379 715.533 375.286 668.106 399.01 620.68         422.732 581.158 446.455 533.731 478.086 494.21 517.626 462.592          549.257 423.07 596.703 399.357 636.242 375.643         683.689 351.93 731.135 336.122 778.582 328.217 833.936 320.312         881.383 320.312  944.645 328.217 992.092 336.122          1000 992.187  375.286 992.187          359.47 921.047 351.562 826.194"
     style="fill:url(#linearGradient3700);fill-opacity:1;stroke:none"
     id="polyline64"
     transform="scale(0.09922505,0.09922505)" />
  <polygon
     points="794.013,414.166 714.789,437.917 635.563,469.583 572.182,525.001 516.725,588.334 477.112,659.583 453.345,738.75 437.5,817.917 437.5,817.917 445.422,873.334 453.345,928.75 469.19,1000 1000,1000 1000,430.001 952.464,422.083 881.162,406.25 "
     style="fill:#4c0000;fill-opacity:1;stroke:none"
     id="polygon66"
     transform="scale(0.09922505,0.09922505)" />
  <polyline
     points="437.5 817.917  445.422 873.334         453.345 928.75 469.19 1000  1000 1000         1000 430.001   952.464 422.083         881.162 406.25  794.013 414.166 714.789 437.917         635.563 469.583 572.182 525.001 516.725 588.334 477.112 659.583         453.345 738.75 437.5 817.917"
     style="stroke:none"
     id="polyline68"
     transform="scale(0.09922505,0.09922505)" />
  <polygon
     points="794.044,421.982 881.227,414.062 944.633,429.902 992.187,437.821 992.187,992.187 477.015,992.187 461.164,920.911 453.238,873.395 445.312,825.877 445.312,825.877 445.312,817.958 461.164,738.763 484.941,659.567 524.57,588.292 580.05,532.855 643.455,485.338 714.787,445.74 "
     style="fill:#ffffff;fill-opacity:1;stroke:none"
     id="polygon70"
     transform="scale(0.09922505,0.09922505)" />
  <polyline
     points="445.312 825.877 445.312 817.958  461.164 738.763 484.941 659.567 524.57 588.292 580.05 532.855         643.455 485.338 714.787 445.74 794.044 421.982 881.227 414.062          944.633 429.902 992.187 437.821  992.187 992.187  477.015 992.187  461.164 920.911 453.238 873.395 445.312 825.877"
     style="fill:url(#linearGradient3716);fill-opacity:1;stroke:none"
     id="polyline72"
     transform="scale(0.09922505,0.09922505)" />
  <polygon
     points="500.766,644.831 484.835,676.682 460.938,740.384 460.938,764.272 867.188,835.937 859.222,421.875 859.222,421.875 827.359,421.875 763.633,437.8 683.977,461.689 644.149,493.54 596.354,525.391 556.526,557.242 524.664,605.017 "
     style="fill:#b45161;fill-opacity:1;stroke:none"
     id="polygon74"
     transform="scale(0.09922505,0.09922505)" />
  <polyline
     points="859.222 421.875  827.359 421.875         763.633 437.8 683.977 461.689 644.149 493.54 596.354 525.391          556.526 557.242 524.664 605.017 500.766 644.831         484.835 676.682 460.938 740.384 460.938 764.272 867.188 835.937         859.222 421.875  "
     style="fill:url(#linearGradient3708);fill-opacity:1;stroke:none"
     id="polyline76"
     transform="scale(0.09922505,0.09922505)" />
  <polygon
     points="875,850.26 875,850.26 843.099,867.187 667.642,816.406 548.014,791.015 492.188,765.625 548.014,774.089 675.618,791.015 851.074,824.869 "
     style="fill:#732e00;fill-opacity:1;stroke:none"
     id="polygon78"
     transform="scale(0.09922505,0.09922505)" />
  <polygon
     points="864.063,843.75 864.063,843.75 835.938,819.834 845.313,636.479 845.313,508.928 854.687,453.125 864.063,508.928 873.438,636.479 882.813,811.862 "
     style="fill:#732e00;fill-opacity:1;stroke:none"
     id="polygon80"
     transform="scale(0.09922505,0.09922505)" />
  <polygon
     points="929.688,831.771 921.354,806.771 913.021,790.104 888.021,773.438 863.021,773.438 846.354,773.438 821.354,790.104 804.688,806.771 804.688,831.771 804.688,831.771 804.688,856.771 821.354,873.438 838.021,890.104 863.021,898.438 888.021,890.104 904.688,881.771 921.354,856.771 "
     style="fill:#bf5710;fill-opacity:1;stroke:none"
     id="polygon82"
     transform="scale(0.09922505,0.09922505)" />
  <polygon
     points="863.281,781.25 888.671,789.713 897.135,798.177 914.062,815.104 914.062,832.031 914.062,857.421 897.135,865.885 880.208,882.812 863.281,882.812 863.281,882.812 846.354,874.349 829.427,865.885 820.963,848.958 812.5,832.031 820.963,815.104 829.427,798.177 846.354,789.713 "
     style="fill:#ffe3ab;fill-opacity:1;stroke:none"
     id="polygon84"
     transform="scale(0.09922505,0.09922505)" />
  <polygon
     points="755.208,484.375 773.438,537.109 773.438,537.109 746.094,554.688 718.75,493.165 "
     style="fill:#4c0000;fill-opacity:1;stroke:none"
     id="polygon86"
     transform="scale(0.09922505,0.09922505)" />
  <polygon
     points="635.742,546.875 679.688,590.821 679.688,590.821 653.321,617.188 609.375,573.242 "
     style="fill:#4c0000;fill-opacity:1;stroke:none"
     id="polygon88"
     transform="scale(0.09922505,0.09922505)" />
  <polygon
     points="548.828,640.625 601.563,676.34 601.563,676.34 583.984,703.125 531.25,676.34 "
     style="fill:#4c0000;fill-opacity:1;stroke:none"
     id="polygon90"
     transform="scale(0.09922505,0.09922505)" />
  <polygon
     points="508.928,765.625 562.5,775.391 562.5,775.391 562.5,804.688 500,804.688 "
     style="fill:#4c0000;fill-opacity:1;stroke:none"
     id="polygon92"
     transform="scale(0.09922505,0.09922505)" />
  <polygon
     points="507.812,901.563 569.336,882.812 569.336,882.812 578.125,910.937 516.602,929.687 "
     style="fill:#4c0000;fill-opacity:1;stroke:none"
     id="polygon94"
     transform="scale(0.09922505,0.09922505)" />
  <polygon
     points="882.813,468.75 882.813,531.25 882.813,531.25 843.75,531.25 843.75,468.75 "
     style="fill:#4c0000;fill-opacity:1;stroke:none"
     id="polygon96"
     transform="scale(0.09922505,0.09922505)" />
  <polygon
     points="1000,493.304 981.249,546.875 981.249,546.875 953.125,537.947 962.5,484.375 "
     style="fill:#4c0000;fill-opacity:1;stroke:none"
     id="polygon98"
     transform="scale(0.09922505,0.09922505)" />
  <use
     href="#oid1"
     id="use100"
     x="0"
     y="0"
     width="744.09448"
     height="1052.3622"
     transform="translate(0,-907.81)" />
</svg>
