<?xml version="1.0"?>
<?metis version="5.0"?>
<?metisxml version="1.2"?>
<!DOCTYPE svg  PUBLIC "-//W3C//DTD SVG 1.0//EN"
 "http://www.w3.org/TR/2001/REC-SVG-20010904/DTD/svg10.dtd">

<svg>
 <title>Symbol library: process_gateway2.svg</title>
 <defs>
  <symbol id="oid2" xml:space="preserve" class="METIS_SYMBOL">
   <title>Gateway</title>
    <polygon points="64 0 0 64 64 128 
     128 64 64 0"
     style=" stroke:#000000; stroke-width:1; fill:#ffffff; fill-opacity:100%"     class="TAG:canvas"></polygon>
    <image x="32" y="32" width="63.8951" height="60.4525" xlink:role="symbol" xlink:title="XOR-1" xlink:href="#oid35"     class="TAG:icon"></image>
  </symbol>
  <symbol id="oid38" xml:space="preserve" class="METIS_SYMBOL">
   <title>AND</title>
    <g>
      <rect x="28" y="0" width="8" height="64"
       style=" stroke:#000000; stroke-width:1; fill:#000000; fill-opacity:100%"></rect>
      <rect x="0" y="28" width="64" height="8"
       style=" stroke:#000000; stroke-width:1; fill:#000000; fill-opacity:100%"></rect>
    </g>
  </symbol>
  <symbol id="oid37" xml:space="preserve" class="METIS_SYMBOL">
   <title>Merge</title>
    <g>
      <polygon points="4 10 54 60 60 54 
       10 4 4 10"
       style=" stroke:#000000; stroke-width:1; fill:#000000; fill-opacity:100%"></polygon>
      <polygon points="4 54 54 4 60 10 
       10 60 4 54"
       style=" stroke:#000000; stroke-width:1; fill:#000000; fill-opacity:100%"></polygon>
      <rect x="0" y="28" width="64" height="8"
       style=" stroke:#000000; stroke-width:1; fill:#000000; fill-opacity:100%"></rect>
      <rect x="28" y="0" width="8" height="64"
       style=" stroke:#000000; stroke-width:1; fill:#000000; fill-opacity:100%"></rect>
    </g>
  </symbol>
  <symbol id="oid36" xml:space="preserve" class="METIS_SYMBOL">
   <title>OR</title>
    <ellipse  cx="32" cy="32" rx="32" ry="32"
     style=" stroke:#000000; stroke-width:1; fill:#000000; fill-opacity:100%"></ellipse>
    <ellipse  cx="32" cy="32" rx="28" ry="28"
     style=" stroke:#000000; stroke-width:1; fill:#ffffff; fill-opacity:100%"></ellipse>
    <ellipse  cx="32" cy="32" rx="28" ry="28"
     style=" stroke:#000000; stroke-width:1; fill:#ffffff; fill-opacity:100%"     class="TAG:canvas"></ellipse>
  </symbol>
  <symbol id="oid35" xml:space="preserve" class="METIS_SYMBOL">
   <title>XOR-1</title>
    <rect x="0" y="0" width="64" height="64"
     style="stroke:none; fill:#ffffff; fill-opacity:0%"></rect>
    <g>
      <polygon points="10 0 44 64 52 64 
       18 0 10 0"
       style=" stroke:#000000; stroke-width:1; fill:#000000; fill-opacity:100%"></polygon>
      <polygon points="10 64 46 0 54 0 
       20 64 10 64"
       style=" stroke:#000000; stroke-width:1; fill:#000000; fill-opacity:100%"></polygon>
    </g>
  </symbol>
  <symbol id="oid40" xml:space="preserve" class="METIS_SYMBOL">
   <title>XOR-2</title>
    <g>
      <ellipse  cx="32" cy="32" rx="32" ry="32"
       style=" stroke:#000000; stroke-width:1; fill:#ffffff; fill-opacity:100%"></ellipse>
      <ellipse  cx="32" cy="32" rx="28" ry="28"
       style=" stroke:#000000; stroke-width:1; fill:#ffffff; fill-opacity:100%"       class="TAG:canvas"></ellipse>
      <g>
	<polygon points="32 12 12 42 52.0002 42 
	 32 12"
	 style=" stroke:#000000; stroke-width:1; fill:#000000; fill-opacity:100%"></polygon>
	<polygon points="12 22 52.0002 22 52.0002 22.625 
	 32 52 12 22"
	 style=" stroke:#000000; stroke-width:1; fill:#000000; fill-opacity:100%"></polygon>
      </g>
    </g>
  </symbol>
 </defs>
 <use xlink:href="#oid2"/>
</svg>
