<?xml version="1.0"?>
<?metis version="3.1"?>
<?metisxml version="1.0"?>
<!DOCTYPE svg  PUBLIC "-//W3C//DTD SVG August 1999//EN"
 "http://www.w3.org/Graphics/SVG/svg-19990812.dtd">

<svg width="200" height="200">
 <title>Symbol library: process_input.svg</title>
 <defs>
  <symbol id="oid0" xml:space="preserve" class="METIS_SYMBOL">
   <title>Untitled</title>
    <polygon points="8.12698 256 446.984 256 446.984 256 
     446.984 162.909 479.492 162.909 479.492 193.939 512 131.879 
     479.492 69.8182 479.492 100.848 446.984 100.848 446.984 7.75758 
     8.12698 7.75758 8.12698 256 8.12698 256 "
     style=" stroke:#000000; stroke-width:1; fill:#000000; fill-opacity:100%"     class="TAG:shadow"></polygon>
    <polygon points="0 248.242 438.857 248.242 438.857 248.242 
     438.857 155.152 471.365 155.152 471.365 186.182 503.873 124.121 
     471.365 62.0606 471.365 93.0909 438.857 93.0909 438.857 0 
     0 0 0 248.242 0 248.242 "
     style=" stroke:#000000; stroke-width:1; fill:#ffff6e; fill-opacity:100%"     class="TAG:polygon"></polygon>
    <g>
      <desc>METIS_TEXT_GROUP</desc>
      <text  x="12.1905" y="39.5152"
       style=" stroke:#000000; stroke-width:1; font-family:sans-serif; font-size:24;"
       class="TAG:text">text</text>
      <rect x="12.1905" y="15.5152" width="426.667" height="111.453"
       style=" stroke:#000000; stroke-width:1; fill:#000000; fill-opacity:0%"></rect>
    </g>
    <g>
      <desc>METIS_TEXT_GROUP</desc>
      <text  x="13.0629" y="150.969"
       style=" stroke:#000000; stroke-width:1; font-family:sans-serif; font-size:24;"
       class="TAG:value">value</text>
      <rect x="13.0629" y="126.969" width="426.667" height="119.453"
       style=" stroke:#000000; stroke-width:1; fill:#000000; fill-opacity:0%"></rect>
    </g>
    <polyline points="0.0629004 126.969 501.063 126.969"
     style=" stroke:#000000; stroke-width:1;"></polyline>
  </symbol>
 </defs>
</svg>
