<?xml version="1.0"?>
<?metis version="3.6"?>
<?metisxml version="1.1"?>
<!DOCTYPE svg  PUBLIC "-//W3C//DTD SVG 1.0//EN"
 "http://www.w3.org/TR/2001/REC-SVG-20010904/DTD/svg10.dtd">

<svg>
 <title>Symbol library: process_output1.svg</title>
 <defs>
  <symbol id="oid5" xml:space="preserve" class="METIS_SYMBOL">
   <title>Output open</title>
    <g     class="TAG:connection_points:EastWest">
    </g>
    <polygon points="0 248.242 503.322 248.242 503.322 0 
     0 0 0 93.0909 34.7119 93.0909 34.7119 62.0606 
     69.4237 124.121 34.7119 186.182 34.7119 155.152 0 155.152 
     0 248.242"
     style=" stroke:#000000; stroke-width:1; fill:#ffff6e; fill-opacity:100%"     class="TAG:canvas"></polygon>
    <g>
      <desc>METIS_TEXT_GROUP</desc>
      <text  x="64" y="15.2048"
       style=" stroke:#000000; stroke-width:1; font-family:sans-serif; font-size:16;"
       class="TAG:text">text</text>
      <rect x="64" y="0.2048" width="439.296" height="125.214"
       style=" stroke:#000000; stroke-width:1; fill:#000000; fill-opacity:0%"></rect>
    </g>
    <g>
      <desc>METIS_TEXT_GROUP</desc>
      <text  x="64" y="136.976"
       style=" stroke:#000000; stroke-width:1; font-family:sans-serif; font-size:16;"
       class="TAG:value"></text>
      <rect x="64" y="121.976" width="439.062" height="125.214"
       style=" stroke:#000000; stroke-width:1; fill:#000000; fill-opacity:0%"></rect>
    </g>
  </symbol>
  <symbol id="oid9" xml:space="preserve" class="METIS_SYMBOL">
   <title>Output closed</title>
    <g     class="TAG:connection_points:EastWest">
    </g>
    <polygon points="0 248.242 503.322 248.242 503.322 0 
     0 0 0 93.0909 34.7119 93.0909 34.7119 62.0606 
     69.4237 124.121 34.7119 186.182 34.7119 155.152 0 155.152 
     0 248.242"
     style=" stroke:#000000; stroke-width:1; fill:#ffff6e; fill-opacity:100%"     class="TAG:canvas"></polygon>
    <g>
      <desc>METIS_TEXT_GROUP</desc>
      <text  x="64" y="23.2048"
       style=" stroke:#000000; stroke-width:1; font-family:sans-serif; font-size:24;"
       class="TAG:text">text</text>
      <rect x="64" y="0.2048" width="439.296" height="248.218"
       style=" stroke:#000000; stroke-width:1; fill:#000000; fill-opacity:0%"></rect>
    </g>
  </symbol>
  <symbol id="oid10" xml:space="preserve" class="METIS_SYMBOL">
   <title>Output open (IDEF0)</title>
    <rect x="0" y="0" width="384" height="256"
     style="stroke:none; fill:#000000; fill-opacity:0%"></rect>
    <polyline points="0 0 0 256"
     style="stroke:none;"></polyline>
    <g>
      <desc>METIS_TEXT_GROUP</desc>
      <text  x="8" y="21"
       style=" stroke:#000000; stroke-width:1; font-family:sans-serif; font-size:22;"
       class="TAG:text"></text>
      <rect x="8" y="0" width="376" height="128"
       style=" stroke:#000000; stroke-width:1; fill:#000000; fill-opacity:0%"></rect>
    </g>
    <polyline points="0 128 384 128"
     style=" stroke:#000000; stroke-width:1;"     class="TAG:connection_area"></polyline>
    <g>
      <desc>METIS_TEXT_GROUP</desc>
      <text  x="8" y="149"
       style=" stroke:#000000; stroke-width:1; font-family:sans-serif; font-size:22;"
       class="TAG:value"></text>
      <rect x="8" y="128" width="376" height="128"
       style=" stroke:#000000; stroke-width:1; fill:#000000; fill-opacity:0%"></rect>
    </g>
  </symbol>
  <symbol id="oid11" xml:space="preserve" class="METIS_SYMBOL">
   <title>Output closed (IDEF0)</title>
    <rect x="0" y="0" width="384" height="256"
     style="stroke:none; fill:#000000; fill-opacity:0%"></rect>
    <polyline points="0 0 0 256"
     style="stroke:none;"></polyline>
    <polyline points="0 128 384 128"
     style=" stroke:#000000; stroke-width:1;"     class="TAG:connection_area"></polyline>
    <g>
      <desc>METIS_TEXT_GROUP</desc>
      <text  x="8" y="36"
       style=" stroke:#000000; stroke-width:1; font-family:sans-serif; font-size:38;"
       class="TAG:text"></text>
      <rect x="8" y="0" width="376" height="256"
       style=" stroke:#000000; stroke-width:1; fill:#000000; fill-opacity:0%"></rect>
    </g>
  </symbol>
 </defs>
 <use xlink:href="#oid5"/>
</svg>
