<?xml version="1.0"?>
<?metis version="5.1"?>
<?metisxml version="1.2"?>
<!DOCTYPE svg  PUBLIC "-//W3C//DTD SVG 1.0//EN"
 "http://www.w3.org/TR/2001/REC-SVG-20010904/DTD/svg10.dtd">

<svg>
 <title>Symbol library: process_control1.svg</title>
 <defs>
  <symbol id="oid4" xml:space="preserve" class="METIS_SYMBOL">
   <title>Control open</title>
    <polygon points="0 227.556 192 227.556 192 270.222 
     147.692 270.222 236.308 312.889 324.923 270.222 280.615 270.222 
     280.615 227.556 472.615 227.556 472.615 0 0 0 
     0 227.556"
     style=" stroke:#000000; stroke-width:1; fill:#ffff6e; fill-opacity:100%"     class="TAG:canvas"></polygon>
    <g     class="TAG:connection_points:NorthSouth">
    </g>
    <g>
      <desc>METIS_TEXT_GROUP</desc>
      <text  x="8" y="15"
       style=" stroke:#000000; stroke-width:1; font-family:sans-serif; font-size:16;"
       class="TAG:text">text</text>
      <rect x="8" y="0" width="464.672" height="112"
       style=" stroke:#000000; stroke-width:1; fill:#000000; fill-opacity:0%"></rect>
    </g>
    <g>
      <desc>METIS_TEXT_GROUP</desc>
      <text  x="8" y="127"
       style=" stroke:#000000; stroke-width:1; font-family:sans-serif; font-size:16;"
       class="TAG:value"></text>
      <rect x="8" y="112" width="464.534" height="112"
       style=" stroke:#000000; stroke-width:1; fill:#000000; fill-opacity:0%"></rect>
    </g>
  </symbol>
  <symbol id="oid8" xml:space="preserve" class="METIS_SYMBOL">
   <title>Control closed</title>
    <polygon points="0 227.556 192 227.556 192 270.222 
     147.692 270.222 236.308 312.889 324.923 270.222 280.615 270.222 
     280.615 227.556 472.615 227.556 472.615 0 0 0 
     0 227.556"
     style=" stroke:#000000; stroke-width:1; fill:#ffff6e; fill-opacity:100%"     class="TAG:canvas"></polygon>
    <g     class="TAG:connection_points:NorthSouth">
    </g>
    <g>
      <desc>METIS_TEXT_GROUP</desc>
      <text  x="8" y="23"
       style=" stroke:#000000; stroke-width:1; font-family:sans-serif; font-size:24;"
       class="TAG:text">text</text>
      <rect x="8" y="0" width="464.435" height="228.37"
       style=" stroke:#000000; stroke-width:1; fill:#000000; fill-opacity:0%"></rect>
    </g>
  </symbol>
  <symbol id="oid9" xml:space="preserve" class="METIS_SYMBOL">
   <title>Control open (IDEF0)</title>
    <rect x="0" y="0" width="256" height="320"
     style="stroke:none; fill:#000000; fill-opacity:0%"></rect>
    <g>
      <desc>METIS_TEXT_GROUP</desc>
      <text  x="0" y="21"
       style=" stroke:#000000; stroke-width:1; font-family:sans-serif; font-size:22;"
       class="TAG:text" transform="rotate(90);"></text>
      <rect x="0" y="0" width="128" height="312"
       style=" stroke:#000000; stroke-width:1; fill:#000000; fill-opacity:0%"></rect>
    </g>
    <polyline points="128 0 128 320"
     style=" stroke:#000000; stroke-width:1;"     class="TAG:connection_area"></polyline>
    <g>
      <desc>METIS_TEXT_GROUP</desc>
      <text  x="128" y="21"
       style=" stroke:#000000; stroke-width:1; font-family:sans-serif; font-size:22;"
       class="TAG:value" transform="rotate(90);"></text>
      <rect x="128" y="0" width="128" height="312"
       style=" stroke:#000000; stroke-width:1; fill:#000000; fill-opacity:0%"></rect>
    </g>
  </symbol>
  <symbol id="oid10" xml:space="preserve" class="METIS_SYMBOL">
   <title>Control closed (IDEF0)</title>
    <rect x="191.251" y="0" width="256" height="320"
     style="stroke:none; fill:#000000; fill-opacity:0%"></rect>
    <g>
      <desc>METIS_TEXT_GROUP</desc>
      <text  x="0" y="36"
       style=" stroke:#000000; stroke-width:1; font-family:sans-serif; font-size:38; text-align:center"
       class="TAG:text"></text>
      <rect x="0" y="0" width="639.178" height="320"
       style=" stroke:#000000; stroke-width:1; fill:#000000; fill-opacity:0%"></rect>
    </g>
    <polyline points="191.251 320 447.251 320"
     style="stroke:none;"></polyline>
    <polyline points="319.251 0 319.251 320"
     style=" stroke:#000000; stroke-width:1;"     class="TAG:connection_area"></polyline>
  </symbol>
 </defs>
 <use xlink:href="#oid4"/>
</svg>
