<?xml version="1.0"?>
<?metis version="9.3"?>
<?metisxml version="1.2"?>
<!DOCTYPE svg  PUBLIC "-//W3C//DTD SVG 1.0//EN"
 "http://www.w3.org/TR/2001/REC-SVG-20010904/DTD/svg10.dtd">

<svg>
 <title>Symbol library: process_symbols.svg</title>
 <defs>
  <symbol id="UUID4_2BA60D00-8697-4DEF-802C-482F6A31EFED" xml:space="preserve" class="METIS_SYMBOL">
   <title>Intflow open (Feedback)</title>
    <polygon points="64.863 248.242 504 248 504 156 
     476 156 476 188 437.825 122.121 476 60 
     476 96 504 96 504 0 64.863 0 
     64.863 93.6259 32.4315 93.6259 32.4315 61.0603 0 122.121 
     32.4315 187.252 32.4315 154.686 64.863 154.686 64.863 248.242"
     style=" stroke:#000000; stroke-width:1; fill:#ffb367; fill-opacity:1.0"     class="TAG:canvas"></polygon>
    <g>
      <desc>METIS_TEXT_GROUP</desc>
      <text  x="72" y="15"
       style=" stroke:#000000; stroke-width:1; font-family:sans-serif; font-size:16;"
       class="TAG:text">text</text>
      <rect x="72" y="0" width="432" height="248"
       style=" stroke:#000000; stroke-width:1; fill:#000000; fill-opacity:0.0"></rect>
    </g>
    <g     class="TAG:connection_points:EastWest">
    </g>
  </symbol>
  <symbol id="UUID4_32C0F632-271D-44DB-A9FC-DBC0494024BE" xml:space="preserve" class="METIS_SYMBOL">
   <title>Input open</title>
    <g     class="TAG:connection_points:EastWest">
    </g>
    <polygon points="0 248.242 438.857 248.242 438.857 155.152 
     471.365 155.152 471.365 186.182 503.873 124.121 471.365 62.0606 
     471.365 93.0909 438.857 93.0909 438.857 0 0 0 
     0 248.242"
     style=" stroke:#000000; stroke-width:1; fill:#ffff6e; fill-opacity:1.0"     class="TAG:canvas"></polygon>
    <g>
      <desc>METIS_TEXT_GROUP</desc>
      <text  x="7.95115" y="15.1954"
       style=" stroke:#000000; stroke-width:1; font-family:sans-serif; font-size:16;"
       class="TAG:text">text</text>
      <rect x="7.95115" y="0.19542" width="446.498" height="124.873"
       style=" stroke:#000000; stroke-width:1; fill:#000000; fill-opacity:0.0"></rect>
    </g>
    <g>
      <desc>METIS_TEXT_GROUP</desc>
      <text  x="7.95115" y="138.163"
       style=" stroke:#000000; stroke-width:1; font-family:sans-serif; font-size:16;"
       class="TAG:value"></text>
      <rect x="7.95115" y="123.163" width="446.351" height="124.873"
       style=" stroke:#000000; stroke-width:1; fill:#000000; fill-opacity:0.0"></rect>
    </g>
  </symbol>
  <symbol id="UUID4_42D298BA-40A0-431C-934E-5FC0C2CBFF75" xml:space="preserve" class="METIS_SYMBOL">
   <title>Output closed</title>
    <g     class="TAG:connection_points:EastWest">
    </g>
    <polygon points="0 248.242 503.322 248.242 503.322 0 
     0 0 0 93.0909 34.7119 93.0909 34.7119 62.0606 
     69.4237 124.121 34.7119 186.182 34.7119 155.152 0 155.152 
     0 248.242"
     style=" stroke:#000000; stroke-width:1; fill:#ffff6e; fill-opacity:1.0"     class="TAG:canvas"></polygon>
    <g>
      <desc>METIS_TEXT_GROUP</desc>
      <text  x="64" y="23.2048"
       style=" stroke:#000000; stroke-width:1; font-family:sans-serif; font-size:24;"
       class="TAG:text">text</text>
      <rect x="64" y="0.2048" width="439.296" height="248.218"
       style=" stroke:#000000; stroke-width:1; fill:#000000; fill-opacity:0.0"></rect>
    </g>
  </symbol>
  <symbol id="UUID4_49FE91A6-1051-4E46-AEA4-3AA641B9034E" xml:space="preserve" class="METIS_SYMBOL">
   <title>Intflow open</title>
    <polygon points="0 248.242 441.108 248.242 441.108 155.152 
     472.615 155.152 472.615 186.182 504.123 124.121 472.615 62.0606 
     472.615 93.0909 441.108 93.0909 441.108 0 0 0 
     0 93.0909 31.5077 93.0909 31.5077 62.0606 63.0154 124.121 
     31.5077 186.182 31.5077 155.152 0 155.152 0 248.242"
     style=" stroke:#000000; stroke-width:1; fill:#ffb367; fill-opacity:1.0"     class="TAG:canvas"></polygon>
    <g     class="TAG:connection_points:EastWest">
    </g>
    <g>
      <desc>METIS_TEXT_GROUP</desc>
      <text  x="56" y="31"
       style=" stroke:#000000; stroke-width:1; font-family:sans-serif; font-size:32;"
       class="TAG:text">text</text>
      <rect x="56" y="0" width="384" height="128"
       style=" stroke:#000000; stroke-width:1; fill:#000000; fill-opacity:0.0"></rect>
    </g>
    <g>
      <desc>METIS_TEXT_GROUP</desc>
      <text  x="56" y="159"
       style=" stroke:#000000; stroke-width:1; font-family:sans-serif; font-size:32;"
       class="TAG:value"></text>
      <rect x="56" y="128" width="384" height="120"
       style=" stroke:#000000; stroke-width:1; fill:#000000; fill-opacity:0.0"></rect>
    </g>
  </symbol>
  <symbol id="UUID4_54412EFB-1A20-42E7-8708-ED80E212D8AF" xml:space="preserve" class="METIS_SYMBOL">
   <title>Fish</title>
    <polygon points="0 0 32 128 0 256 
     304 256 352 128 304 0 0 0"
     style=" stroke:#000000; stroke-width:1; fill:#ffc8c8; fill-opacity:1.0"     class="TAG:canvas"></polygon>
    <g>
      <desc>METIS_TEXT_GROUP</desc>
      <text  x="32" y="78"
       style=" stroke:#000000; stroke-width:1; font-family:sans-serif; font-size:64;"
       class="TAG:text">text</text>
      <rect x="32" y="16" width="304" height="224"
       style=" stroke:#000000; stroke-width:1; fill:#000000; fill-opacity:0.0"></rect>
    </g>
  </symbol>
  <symbol id="UUID4_70E3F72F-CB8A-48B7-8FE2-9660B9D2B1FD" xml:space="preserve" class="METIS_SYMBOL">
   <title>Process w/opaque Open</title>
    <path d="M 0 16 C 0 0 8 0 
     24 0 C 40 0 312 0 328 0 
     C 344 0 352 0 352 16 C 352 32 
     352 224 352 240 C 352 256 344 256 
     328 256 C 312 256 40 256 24 256 
     C 8 256 0 256 0 240 Z"
     style=" stroke:#000000; stroke-width:1; fill:#ffffdc; fill-opacity:1.0"     class="TAG:canvas"></path>
    <g>
      <desc>METIS_TEXT_GROUP</desc>
      <text  x="13.3725" y="28.6617"
       style=" stroke:#000000; stroke-width:1; font-family:sans-serif; font-size:20;"
       class="TAG:text">text</text>
      <rect x="13.3725" y="9.66168" width="322.628" height="230.338"
       style=" stroke:#000000; stroke-width:1; fill:#ffffff; fill-opacity:0.0"></rect>
    </g>
    <g>
      <desc>METIS_TEXT_GROUP</desc>
      <text  x="258.429" y="244.378"
       style=" stroke:#000000; stroke-width:1; font-family:monospace; font-size:8; text-align:right vertical-align:bottom;"
       class="TAG:pmchange">text</text>
      <rect x="258.429" y="237.378" width="86.2265" height="18.6217"
       style=" stroke:#000000; stroke-width:1; fill:#ffffff; fill-opacity:0.0"></rect>
    </g>
  </symbol>
  <symbol id="UUID4_7545D584-09CB-421F-8DA1-E2783EDAE64B" xml:space="preserve" class="METIS_SYMBOL">
   <title>Process Open (Transparent)</title>
    <path d="M 0 16 C 0 0 8 0 
     24 0 C 40 0 312 0 328 0 
     C 344 0 352 0 352 16 C 352 32 
     352 224 352 240 C 352 256 344 256 
     328 256 C 312 256 40 256 24 256 
     C 8 256 0 256 0 240 Z"
     style=" stroke:#000000; stroke-width:1; fill:#000000; fill-opacity:0.0"     class="TAG:canvas"></path>
    <g>
      <desc>METIS_TEXT_GROUP</desc>
      <text  x="60.1279" y="62"
       style=" stroke:#000000; stroke-width:1; font-family:sans-serif; font-size:64;"
       class="TAG:text">text</text>
      <rect x="60.1279" y="0" width="277.916" height="40.6784"
       style=" stroke:#000000; stroke-width:1; fill:#ffffff; fill-opacity:0.0"></rect>
    </g>
    <image x="3.22886" y="3.45295" width="54.4943" height="55.982" xlink:role="symbol" xlink:title="XOR-1" xlink:href="http://metadata.troux.info/meaf/symbols/bpm/process_gateway2.svg#oid35"     class="TAG:activiyIcon"></image>
  </symbol>
  <symbol id="UUID4_BDAC7345-6193-42BC-BC9B-611B638560EF" xml:space="preserve" class="METIS_SYMBOL">
   <title>Process Closed</title>
    <path d="M 0 16 C 0 0 8 0 
     24 0 C 40 0 312 0 328 0 
     C 344 0 352 0 352 16 C 352 32 
     352 224 352 240 C 352 256 344 256 
     328 256 C 312 256 40 256 24 256 
     C 8 256 0 256 0 240 Z"
     style=" stroke:#000000; stroke-width:1; fill:#fbffdb; fill-opacity:1.0"     class="TAG:canvas"></path>
    <image x="0" y="0" width="352" height="256" xlink:role="symbol" xlink:title="XOR-1" xlink:href="http://metadata.troux.info/meaf/symbols/bpm/process_gateway2.svg#oid35"     class="TAG:activityIcon"></image>
    <g>
      <desc>METIS_TEXT_GROUP</desc>
      <text  x="255.239" y="244.378"
       style=" stroke:#000000; stroke-width:1; font-family:monospace; font-size:8; text-align:right vertical-align:bottom;"
       class="TAG:pmchange">text</text>
      <rect x="255.239" y="237.378" width="86.2265" height="18.6217"
       style=" stroke:#000000; stroke-width:1; fill:#ffffff; fill-opacity:0.0"></rect>
    </g>
    <image x="9.25373" y="10.6507" width="47.5179" height="44.1706" xlink:role="symbol" xlink:title="XOR-1" xlink:href="http://metadata.troux.info/meaf/symbols/bpm/process_gateway2.svg#oid35"     class="TAG:taskIcon"></image>
    <g>
      <desc>METIS_TEXT_GROUP</desc>
      <text  x="64.493" y="70.9681"
       style=" stroke:#000000; stroke-width:1; font-family:sans-serif; font-size:64;"
       class="TAG:text">text</text>
      <rect x="64.493" y="8.96812" width="276.507" height="231.031"
       style=" stroke:#000000; stroke-width:1; fill:#000000; fill-opacity:0.0"></rect>
    </g>
  </symbol>
  <symbol id="UUID4_8BD75575-ACEE-434D-A100-A808C1EFF6A3" xml:space="preserve" class="METIS_SYMBOL">
   <title>Output open</title>
    <g     class="TAG:connection_points:EastWest">
    </g>
    <polygon points="0 248.242 503.322 248.242 503.322 0 
     0 0 0 93.0909 34.7119 93.0909 34.7119 62.0606 
     69.4237 124.121 34.7119 186.182 34.7119 155.152 0 155.152 
     0 248.242"
     style=" stroke:#000000; stroke-width:1; fill:#ffff6e; fill-opacity:1.0"     class="TAG:canvas"></polygon>
    <g>
      <desc>METIS_TEXT_GROUP</desc>
      <text  x="64" y="15.2048"
       style=" stroke:#000000; stroke-width:1; font-family:sans-serif; font-size:16;"
       class="TAG:text">text</text>
      <rect x="64" y="0.2048" width="439.296" height="125.214"
       style=" stroke:#000000; stroke-width:1; fill:#000000; fill-opacity:0.0"></rect>
    </g>
    <g>
      <desc>METIS_TEXT_GROUP</desc>
      <text  x="64" y="136.976"
       style=" stroke:#000000; stroke-width:1; font-family:sans-serif; font-size:16;"
       class="TAG:value"></text>
      <rect x="64" y="121.976" width="439.062" height="125.214"
       style=" stroke:#000000; stroke-width:1; fill:#000000; fill-opacity:0.0"></rect>
    </g>
  </symbol>
  <symbol id="UUID4_920600C4-366C-4994-9F88-604B76E7753C" xml:space="preserve" class="METIS_SYMBOL">
   <title>Control open</title>
    <polygon points="0 227.556 192 227.556 192 270.222 
     147.692 270.222 236.308 312.889 324.923 270.222 280.615 270.222 
     280.615 227.556 472.615 227.556 472.615 0 0 0 
     0 227.556"
     style=" stroke:#000000; stroke-width:1; fill:#ffff6e; fill-opacity:1.0"     class="TAG:canvas"></polygon>
    <g     class="TAG:connection_points:NorthSouth">
    </g>
    <g>
      <desc>METIS_TEXT_GROUP</desc>
      <text  x="8" y="15"
       style=" stroke:#000000; stroke-width:1; font-family:sans-serif; font-size:16;"
       class="TAG:text">text</text>
      <rect x="8" y="0" width="464.672" height="112"
       style=" stroke:#000000; stroke-width:1; fill:#000000; fill-opacity:0.0"></rect>
    </g>
    <g>
      <desc>METIS_TEXT_GROUP</desc>
      <text  x="8" y="127"
       style=" stroke:#000000; stroke-width:1; font-family:sans-serif; font-size:16;"
       class="TAG:value"></text>
      <rect x="8" y="112" width="464.534" height="112"
       style=" stroke:#000000; stroke-width:1; fill:#000000; fill-opacity:0.0"></rect>
    </g>
  </symbol>
  <symbol id="UUID4_98EED6AE-BD72-49CF-B02D-213A4A2A6FE3" xml:space="preserve" class="METIS_SYMBOL">
   <title>Intflow closed</title>
    <g     class="TAG:connection_points:EastWest">
    </g>
    <polygon points="0 248.242 441.108 248.242 441.108 155.152 
     472.615 155.152 472.615 186.182 504.123 124.121 472.615 62.0606 
     472.615 93.0909 441.108 93.0909 441.108 0 0 0 
     0 93.0909 31.5077 93.0909 31.5077 62.0606 63.0154 124.121 
     31.5077 186.182 31.5077 155.152 0 155.152 0 248.242"
     style=" stroke:#000000; stroke-width:1; fill:#ffb367; fill-opacity:1.0"     class="TAG:canvas"></polygon>
    <g>
      <desc>METIS_TEXT_GROUP</desc>
      <text  x="56" y="62"
       style=" stroke:#000000; stroke-width:1; font-family:sans-serif; font-size:64;"
       class="TAG:text">text</text>
      <rect x="56" y="0" width="384" height="248"
       style=" stroke:#000000; stroke-width:1; fill:#000000; fill-opacity:0.0"></rect>
    </g>
  </symbol>
  <symbol id="UUID4_9E60D4D5-B398-4821-8294-74570496CEF0" xml:space="preserve" class="METIS_SYMBOL">
   <title>Process Reuse Closed</title>
    <path d="M 0 16 C 0 0 8 0 
     24 0 C 40 0 312 0 328 0 
     C 344 0 352 0 352 16 C 352 32 
     352 224 352 240 C 352 256 344 256 
     328 256 C 312 256 40 256 24 256 
     C 8 256 0 256 0 240 Z"
     style=" stroke:#dc0000; stroke-width:2; fill:#ffffa5; fill-opacity:1.0"     class="TAG:canvas"></path>
    <g>
      <desc>METIS_TEXT_GROUP</desc>
      <text  x="255.239" y="244.378"
       style=" stroke:#000000; stroke-width:1; font-family:monospace; font-size:8; text-align:right vertical-align:bottom;"
       class="TAG:pmchange">text</text>
      <rect x="255.239" y="237.378" width="86.2265" height="18.6217"
       style=" stroke:#000000; stroke-width:1; fill:#ffffff; fill-opacity:0.0"></rect>
    </g>
    <g>
      <desc>METIS_TEXT_GROUP</desc>
      <text  x="16" y="78"
       style=" stroke:#000000; stroke-width:1; font-family:sans-serif; font-size:64;"
       class="TAG:text">text</text>
      <rect x="16" y="16" width="320" height="224"
       style=" stroke:#000000; stroke-width:1; fill:#000000; fill-opacity:0.0"></rect>
    </g>
  </symbol>
  <symbol id="UUID4_C1720DE4-5FFE-4F62-8DEB-DB97CFD95FE4" xml:space="preserve" class="METIS_SYMBOL">
   <title>End Portal</title>
    <g     class="TAG:connection_points:West">
    </g>
    <g>
      <polyline points="0 0 0 256"
       style="stroke:none;"></polyline>
      <g>
	<desc>METIS_TEXT_GROUP</desc>
	<text  x="8" y="36"
	 style=" stroke:#000000; stroke-width:1; font-family:sans-serif; font-size:38;"
	 class="TAG:text"></text>
	<rect x="8" y="0" width="376" height="256"
	 style=" stroke:#000000; stroke-width:1; fill:#000000; fill-opacity:0.0"></rect>
      </g>
      <rect x="0" y="0" width="384" height="256"
       style="stroke:none; fill:#000000; fill-opacity:0.0"></rect>
      <polyline points="0 128 384 128"
       style=" stroke:#000000; stroke-width:1;"       class="TAG:END_FILLED_DIAMOND"></polyline>
    </g>
  </symbol>
  <symbol id="UUID4_D677F55C-E478-46ED-AC4B-A519B76A7765" xml:space="preserve" class="METIS_SYMBOL">
   <title>Control closed</title>
    <polygon points="0 227.556 192 227.556 192 270.222 
     147.692 270.222 236.308 312.889 324.923 270.222 280.615 270.222 
     280.615 227.556 472.615 227.556 472.615 0 0 0 
     0 227.556"
     style=" stroke:#000000; stroke-width:1; fill:#ffff6e; fill-opacity:1.0"     class="TAG:canvas"></polygon>
    <g     class="TAG:connection_points:NorthSouth">
    </g>
    <g>
      <desc>METIS_TEXT_GROUP</desc>
      <text  x="8" y="23"
       style=" stroke:#000000; stroke-width:1; font-family:sans-serif; font-size:24;"
       class="TAG:text">text</text>
      <rect x="8" y="0" width="464.435" height="228.37"
       style=" stroke:#000000; stroke-width:1; fill:#000000; fill-opacity:0.0"></rect>
    </g>
  </symbol>
  <symbol id="UUID4_DDD94579-F016-4536-94FF-E70BD4003859" xml:space="preserve" class="METIS_SYMBOL">
   <title>Mech open</title>
    <g     class="TAG:connection_points:NorthSouth">
    </g>
    <polygon points="0 312.889 472.615 312.889 472.615 85.3333 
     280.615 85.3333 280.615 42.6667 324.923 42.6667 236.308 0 
     147.692 42.6667 192 42.6667 192 85.3333 0 85.3333 
     0 312.889"
     style=" stroke:#000000; stroke-width:1; fill:#ffff6e; fill-opacity:1.0"     class="TAG:canvas"></polygon>
    <g>
      <desc>METIS_TEXT_GROUP</desc>
      <text  x="7.89236" y="100.333"
       style=" stroke:#000000; stroke-width:1; font-family:sans-serif; font-size:16;"
       class="TAG:text">text</text>
      <rect x="7.89236" y="85.3327" width="464.672" height="113.771"
       style=" stroke:#000000; stroke-width:1; fill:#000000; fill-opacity:0.0"></rect>
    </g>
    <g>
      <desc>METIS_TEXT_GROUP</desc>
      <text  x="7.89236" y="214.241"
       style=" stroke:#000000; stroke-width:1; font-family:sans-serif; font-size:16;"
       class="TAG:value"></text>
      <rect x="7.89236" y="199.241" width="464.671" height="113.771"
       style=" stroke:#000000; stroke-width:1; fill:#000000; fill-opacity:0.0"></rect>
    </g>
  </symbol>
  <symbol id="UUID4_DEB1F387-5816-4979-9440-F8C9AD9CB60B" xml:space="preserve" class="METIS_SYMBOL">
   <title>Alternative</title>
    <polygon points="128 0 256 128 128 256 
     0 128 128 0"
     style=" stroke:#000000; stroke-width:1; fill:#ffffff; fill-opacity:1.0"     class="TAG:canvas"></polygon>
    <g>
      <desc>METIS_TEXT_GROUP</desc>
      <text  x="0" y="15"
       style=" stroke:#000000; stroke-width:1; font-family:sans-serif; font-size:16; text-align:center vertical-align:middle;"
       class="TAG:text">text</text>
      <rect x="0" y="0" width="256" height="256"
       style=" stroke:#000000; stroke-width:1; fill:#000000; fill-opacity:0.0"></rect>
    </g>
  </symbol>
  <symbol id="UUID4_E842FB4A-159F-4378-9037-6C2770141062" xml:space="preserve" class="METIS_SYMBOL">
   <title>Input closed</title>
    <g     class="TAG:connection_points:EastWest">
    </g>
    <polygon points="0 248.242 438.857 248.242 438.857 155.152 
     471.365 155.152 471.365 186.182 503.873 124.121 471.365 62.0606 
     471.365 93.0909 438.857 93.0909 438.857 0 0 0 
     0 248.242"
     style=" stroke:#000000; stroke-width:1; fill:#ffff6e; fill-opacity:1.0"     class="TAG:canvas"></polygon>
    <g>
      <desc>METIS_TEXT_GROUP</desc>
      <text  x="7.51145" y="23.1954"
       style=" stroke:#000000; stroke-width:1; font-family:sans-serif; font-size:24;"
       class="TAG:text">text</text>
      <rect x="7.51145" y="0.19542" width="451.041" height="247.988"
       style=" stroke:#000000; stroke-width:1; fill:#000000; fill-opacity:0.0"></rect>
    </g>
  </symbol>
  <symbol id="UUID4_F2B08990-2D4F-45CC-AD23-C2855624E821" xml:space="preserve" class="METIS_SYMBOL">
   <title>Condition</title>
    <ellipse  cx="208" cy="128.155" rx="208" ry="128"
     style=" stroke:#000000; stroke-width:1; fill:#ffffff; fill-opacity:1.0"     class="TAG:canvas"></ellipse>
    <g>
      <desc>METIS_TEXT_GROUP</desc>
      <text  x="0.946302" y="15"
       style=" stroke:#000000; stroke-width:1; font-family:sans-serif; font-size:16; text-align:center vertical-align:middle;"
       class="TAG:text">text</text>
      <rect x="0.946302" y="0" width="416" height="160.155"
       style=" stroke:#000000; stroke-width:1; fill:#ffffff; fill-opacity:0.0"></rect>
    </g>
    <g>
      <desc>METIS_TEXT_GROUP</desc>
      <text  x="32.9463" y="181.155"
       style=" stroke:#000000; stroke-width:1; font-family:sans-serif; font-size:6; text-align:center"
       class="TAG:condition">condition
</text>
      <rect x="32.9463" y="176.155" width="352" height="80"
       style=" stroke:#000000; stroke-width:1; fill:#ffffff; fill-opacity:0.0"></rect>
    </g>
  </symbol>
  <symbol id="UUID4_F58A0327-3B71-4B2C-9A33-F26C5B3E65D2" xml:space="preserve" class="METIS_SYMBOL">
   <title>Mech closed</title>
    <g     class="TAG:connection_points:NorthSouth">
    </g>
    <polygon points="0 312.889 472.615 312.889 472.615 85.3333 
     280.615 85.3333 280.615 42.6667 324.923 42.6667 236.308 0 
     147.692 42.6667 192 42.6667 192 85.3333 0 85.3333 
     0 312.889"
     style=" stroke:#000000; stroke-width:1; fill:#ffff6e; fill-opacity:1.0"     class="TAG:canvas"></polygon>
    <g>
      <desc>METIS_TEXT_GROUP</desc>
      <text  x="8" y="108.552"
       style=" stroke:#000000; stroke-width:1; font-family:sans-serif; font-size:24;"
       class="TAG:text">text</text>
      <rect x="8" y="85.5522" width="464.525" height="228.37"
       style=" stroke:#000000; stroke-width:1; fill:#000000; fill-opacity:0.0"></rect>
    </g>
  </symbol>
  <symbol id="UUID4_F697D452-8355-4B8C-81CD-B93266064398" xml:space="preserve" class="METIS_SYMBOL">
   <title>Start Portal</title>
    <g     class="TAG:connection_points:East">
    </g>
    <g>
      <polyline points="0 0 0 256"
       style="stroke:none;"></polyline>
      <g>
	<desc>METIS_TEXT_GROUP</desc>
	<text  x="8" y="36"
	 style=" stroke:#000000; stroke-width:1; font-family:sans-serif; font-size:38;"
	 class="TAG:text"></text>
	<rect x="8" y="0" width="376" height="256"
	 style=" stroke:#000000; stroke-width:1; fill:#000000; fill-opacity:0.0"></rect>
      </g>
      <rect x="0" y="0" width="384" height="256"
       style="stroke:none; fill:#000000; fill-opacity:0.0"></rect>
      <polyline points="0 128 384 128"
       style=" stroke:#000000; stroke-width:1;"       class="TAG:START_FILLED_DIAMOND"></polyline>
    </g>
  </symbol>
 </defs>
 <use xlink:href="#UUID4_2BA60D00-8697-4DEF-802C-482F6A31EFED"/>
</svg>
