<?xml version="1.0"?>
<?metis version="3.6"?>
<?metisxml version="1.1"?>
<!DOCTYPE svg  PUBLIC "-//W3C//DTD SVG 1.0//EN"
 "http://www.w3.org/TR/2001/REC-SVG-20010904/DTD/svg10.dtd">

<svg>
 <title>Symbol library: product.svg</title>
 <defs>
  <symbol id="oid1" xml:space="preserve" class="METIS_SYMBOL">
   <title>Untitled</title>
    <g>
      <polygon points="1000 1000 0 1000 0 0 
       1000 0 1000 1000"
       style="stroke:none; fill:#ffffff; fill-opacity:0%"></polygon>
      <polygon points="452.814 302.326 155.039 419.973  155.039 427.816 155.039 772.915  155.039 780.758 
       515.504 968.993  523.34 968.993 868.133 780.758 
        875.969 772.915 875.969 419.973  868.133 412.13 460.65 302.326  452.814 302.326 
       "
       style="stroke:none; fill:#3b2913; fill-opacity:100%"></polygon>
      <polygon points="852.714 427.697  852.714 765.145 
        523.39 953.488  170.543 765.145 
        170.543 435.543  460.661 317.829 
        852.714 427.697 "
       style="stroke:none; fill:#8c683c; fill-opacity:100%"></polygon>
      <polygon points="527.132 945.736 527.132 575.422 844.961 465.116 
       844.961 772.398 527.132 945.736"
       style="stroke:none; fill:#f2d488; fill-opacity:100%"></polygon>
      <polygon points="299.484 100.775 7.88114 172.129  0 180.057  0 187.984 157.623 441.684 
        165.504 449.612 464.987 322.762  472.868 322.762  472.868 306.907 307.365 100.775 
        299.484 100.775 "
       style="stroke:none; fill:#3b2913; fill-opacity:100%"></polygon>
      <polygon points="449.613 315.046  165.375 426.357 
        23.2558 187.835  299.599 116.279 
        449.613 315.046 "
       style="stroke:none; fill:#d8a461; fill-opacity:100%"></polygon>
      <polygon points="551.87 108.716 449.612 299.3  449.612 307.241  457.478 315.181 858.641 426.356 
        874.373 426.356 984.496 204.008  984.496 196.067  976.63 188.126 559.736 100.775 
        551.87 108.716 "
       style="stroke:none; fill:#3b2913; fill-opacity:100%"></polygon>
      <polygon points="961.24 203.703  858.84 410.853 
        472.868 299.311  567.391 124.031 
        961.24 203.703 "
       style="stroke:none; fill:#8c683c; fill-opacity:100%"></polygon>
      <polygon points="992.002 310.077 637.628 429.679   511.628 573.2  511.628 581.174 
        519.503 589.147 866.002 453.599   999.877 326.024  1007.75 310.077 
        992.002 310.077 "
       style="stroke:none; fill:#3b2913; fill-opacity:100%"></polygon>
      <polygon points="858.528 437.553  550.388 558.139 
        645.2 445.592  961.241 341.085 
        858.528 437.553 "
       style="stroke:none; fill:#d8a461; fill-opacity:100%"></polygon>
      <polygon points="162.791 426.357 519.38 573.644 162.791 426.357 "
       style="stroke:none; fill:#758296; fill-opacity:100%"></polygon>
      <polyline points="162.791 426.357 519.38 573.644"
       style="stroke:none;"></polyline>
      <polygon points="162.956 418.605 519.215 565.117  527.132 565.117 527.132 573.256  519.215 581.396 
       511.298 581.396 155.039 443.023  155.039 434.883 
       155.039 426.745  155.039 418.605 162.956 418.605 
       "
       style="stroke:none; fill:#3b2913; fill-opacity:100%"></polygon>
    </g>
  </symbol>
 </defs>
 <use xlink:href="#oid1"/>
</svg>
