<?xml version="1.0"?>
<?metis version="3.2"?>
<?metisxml version="1.1"?>
<!DOCTYPE svg  PUBLIC "-//W3C//DTD SVG August 1999//EN"
 "http://www.w3.org/Graphics/SVG/svg-19990812.dtd">

<svg width="200" height="200">
 <title>Symbol library: product_item.svg</title>
 <defs>
  <symbol id="oid1" xml:space="preserve" class="METIS_SYMBOL">
   <title>product item</title>
    <g>
      <rect x="0" y="0" width="160.773" height="176"
       style=" stroke:#000000; stroke-width:1; fill:#ffffa5; fill-opacity:100%"       class="TAG:PictureBackground"></rect>
      <rect x="160.773" y="0" width="367.481" height="176"
       style=" stroke:#000000; stroke-width:1; fill:#ffa596; fill-opacity:100%"></rect>
      <g>
	<desc>METIS_TEXT_GROUP</desc>
	<text  x="160.773" y="14"
	 style=" stroke:#000000; stroke-width:1; font-family:sans-serif; font-size:15;"
	 class="TAG:text">text</text>
	<rect x="160.773" y="0" width="367.481" height="174.381"
	 style=" stroke:#000000; stroke-width:1; fill:#ffffff; fill-opacity:0%"></rect>
      </g>
      <g>
	<polygon points="50.8204 46.2854 33.4591 42.8943 14.1201 48.7722 
	 16.977 44.4769 25.1082 39.7293 22.4711 35.208 25.9873 30.9126 
	 52.5784 13.2789 57.8527 11.9225 62.248 15.9918 67.0828 16.67 
	 71.4779 13.505 76.7524 15.0875 78.2906 21.1914 83.1253 23.4522 
	 90.5974 21.8697 95.4319 25.7129 95.4319 32.9472 99.3878 36.3382 
	 107.959 36.7904 111.475 40.8598 110.815 47.6419 113.453 51.033 
	 121.144 52.3895 124.221 56.6846 121.804 64.1451 124.441 68.4404 
	 131.253 69.3447 133.451 74.3184 130.154 79.292 131.693 83.5873 
	 139.604 86.7523 141.143 91.9519 135.649 95.343 136.308 99.1862 
	 143.56 103.482 143.78 106.647 136.967 112.298 143.999 117.95 
	 142.901 122.472 135.209 127.671 138.725 132.193 135.429 136.262 
	 126.638 140.105 126.858 142.592 105.761 158.643 99.8274 158.643 
	 96.9705 154.8 89.4984 160 84.6637 158.643 82.0265 151.861 
	 77.6314 148.47 68.1816 151.183 63.7862 149.148 63.127 140.105 
	 60.0503 136.714 49.0622 137.392 45.7659 133.323 47.0845 123.15 
	 44.8867 120.437 34.9975 119.985 32.5801 116.142 34.1185 107.551 
	 32.5801 104.838 22.4711 101.673 20.4932 97.8297 26.4268 90.3694 
	 25.1082 87.4306 14.1201 81.7787 13.4608 76.8051 20.0537 72.5097 
	 19.6142 69.3447 12.362 65.5016 11.9225 61.6582 17.6363 57.815 
	 14.1201 48.7722 33.4591 43.3465 50.8204 46.9636 50.8204 50.1286 
	 51.4797 56.6846 52.7982 63.2409 54.9958 69.7969 60.9293 82.4568 
	 68.6211 94.4388 77.4116 104.838 86.6416 113.655 95.6519 120.211 
	 99.8274 122.472 105.761 124.506 116.749 98.508 76.093 45.8332 
	 50.8204 46.2854 50.8204 46.2854 50.8204 46.2854 50.8204 46.2854 "
	 style="stroke:none; fill:#0085ff; fill-opacity:100%"></polygon>
	<polyline points="50.8204 46.2854 33.4591 42.8943 14.1201 48.7722 
	 16.977 44.4769 25.1082 39.7293 22.4711 35.208 25.9873 30.9126 
	 52.5784 13.2789 57.8527 11.9225 62.248 15.9918 67.0828 16.67 
	 71.4779 13.505 76.7524 15.0875 78.2906 21.1914 83.1253 23.4522 
	 90.5974 21.8697 95.4319 25.7129 95.4319 32.9472 99.3878 36.3382 
	 107.959 36.7904 111.475 40.8598 110.815 47.6419 113.453 51.033 
	 121.144 52.3895 124.221 56.6846 121.804 64.1451 124.441 68.4404 
	 131.253 69.3447 133.451 74.3184 130.154 79.292 131.693 83.5873 
	 139.604 86.7523 141.143 91.9519 135.649 95.343 136.308 99.1862 
	 143.56 103.482 143.78 106.647 136.967 112.298 143.999 117.95 
	 142.901 122.472 135.209 127.671 138.725 132.193 135.429 136.262 
	 126.638 140.105 126.858 142.592 105.761 158.643 99.8274 158.643 
	 96.9705 154.8 89.4984 160 84.6637 158.643 82.0265 151.861 
	 77.6314 148.47 68.1816 151.183 63.7862 149.148 63.127 140.105 
	 60.0503 136.714 49.0622 137.392 45.7659 133.323 47.0845 123.15 
	 44.8867 120.437 34.9975 119.985 32.5801 116.142 34.1185 107.551 
	 32.5801 104.838 22.4711 101.673 20.4932 97.8297 26.4268 90.3694 
	 25.1082 87.4306 14.1201 81.7787 13.4608 76.8051 20.0537 72.5097 
	 19.6142 69.3447 12.362 65.5016 11.9225 61.6582 17.6363 57.815 
	 14.1201 48.7722 33.4591 43.3465 50.8204 46.9636 50.8204 50.1286 
	 51.4797 56.6846 52.7982 63.2409 54.9958 69.7969 60.9293 82.4568 
	 68.6211 94.4388 77.4116 104.838 86.6416 113.655 95.6519 120.211 
	 99.8274 122.472 105.761 124.506 116.749 98.508 76.093 45.8332 
	 50.8204 46.2854 50.8204 46.2854 50.8204 46.2854"
	 style=" stroke:#0085ff; stroke-width:1;"></polyline>
	<polyline points="126.887 142.389 121.609 143.972 118.31 138.772 
	 113.691 138.772 110.173 144.424 105.774 143.746 102.475 137.641 
	 96.5375 135.38 88.6204 137.867 84.6618 134.701 83.7822 125.431 
	 80.0437 122.491 71.0269 122.265 68.3877 119.325 67.5081 108.698 
	 65.3089 106.211 56.512 105.758 53.4331 101.914 55.8522 93.0959 
	 54.093 90.6084 45.2961 88.1213 42.877 84.2773 47.4952 77.2676 
	 46.1757 73.8759 37.379 68.4491 35.6195 62.3438 40.8977 59.1782 
	 40.4578 56.2388 34.7399 50.8119 34.7399 45.8372 41.5574 44.0284 
	 41.5574 41.9934 37.1589 36.3403 38.0387 31.8181 44.1965 32.2704 
	 44.8562 30.4613 40.8977 23.904 43.9765 19.3816 51.0139 22.3212 
	 53.4331 20.5122 52.3334 13.5026"
	 style=" stroke:#000000; stroke-width:1;"></polyline>
	<polyline points="100.34 158.871 121.402 143.521"
	 style=" stroke:#000000; stroke-width:1;"></polyline>
	<polyline points="97.0485 155.034 110.432 143.973"
	 style=" stroke:#000000; stroke-width:1;"></polyline>
	<polyline points="85.2012 158.645 105.824 143.521"
	 style=" stroke:#000000; stroke-width:1;"></polyline>
	<polyline points="81.9101 151.874 102.533 137.427"
	 style=" stroke:#000000; stroke-width:1;"></polyline>
	<polyline points="77.7416 148.488 96.3905 135.395"
	 style=" stroke:#000000; stroke-width:1;"></polyline>
	<polyline points="68.5268 151.196 88.9308 137.201"
	 style=" stroke:#000000; stroke-width:1;"></polyline>
	<polyline points="63.9197 148.939 84.7625 134.492"
	 style=" stroke:#000000; stroke-width:1;"></polyline>
	<polyline points="63.2614 139.91 83.8847 125.463"
	 style=" stroke:#000000; stroke-width:1;"></polyline>
	<polyline points="49.0006 136.975 71.3791 121.852"
	 style=" stroke:#000000; stroke-width:1;"></polyline>
	<polyline points="46.5872 133.59 68.7463 118.466"
	 style=" stroke:#000000; stroke-width:1;"></polyline>
	<polyline points="35.1787 120.046 56.6797 105.599"
	 style=" stroke:#000000; stroke-width:1;"></polyline>
	<polyline points="32.5458 115.757 54.0467 101.085"
	 style=" stroke:#000000; stroke-width:1;"></polyline>
	<polyline points="22.4536 101.536 45.4903 87.9926"
	 style=" stroke:#000000; stroke-width:1;"></polyline>
	<polyline points="20.6984 97.9244 43.2962 83.9294"
	 style=" stroke:#000000; stroke-width:1;"></polyline>
	<polyline points="26.4027 90.2498 47.4648 77.1576"
	 style=" stroke:#000000; stroke-width:1;"></polyline>
	<polyline points="25.5251 87.541 46.3679 73.7716"
	 style=" stroke:#000000; stroke-width:1;"></polyline>
	<polyline points="14.5553 81.8978 37.3726 68.1284"
	 style=" stroke:#000000; stroke-width:1;"></polyline>
	<polyline points="19.8208 72.643 36.0562 62.2595"
	 style=" stroke:#000000; stroke-width:1;"></polyline>
	<polyline points="12.8001 65.4197 34.9593 50.7475"
	 style=" stroke:#000000; stroke-width:1;"></polyline>
	<polyline points="17.8462 57.745 34.9591 45.7814"
	 style=" stroke:#000000; stroke-width:1;"></polyline>
	<polyline points="14.1165 48.7161 37.1532 36.3011"
	 style=" stroke:#000000; stroke-width:1;"></polyline>
	<polyline points="25.0863 39.9126 38.4695 32.0121"
	 style=" stroke:#000000; stroke-width:1;"></polyline>
	<polyline points="22.673 35.3981 41.1023 23.886"
	 style=" stroke:#000000; stroke-width:1;"></polyline>
	<polyline points="19.6014 69.7086 40.4442 56.165"
	 style=" stroke:#000000; stroke-width:1;"></polyline>
	<polyline points="126.464 140.136 125.79 135.019 129.385 132.461 
	 135.004 136.182"
	 style=" stroke:#000000; stroke-width:1;"></polyline>
	<polyline points="142.464 122.564 135.938 121.626 133.688 125.845 
	 135.038 127.721"
	 style=" stroke:#000000; stroke-width:1;"></polyline>
	<polyline points="136.54 112.371 137.219 106.98 143.561 106.276"
	 style=" stroke:#000000; stroke-width:1;"></polyline>
	<polyline points="135.882 99.279 141.147 91.83"
	 style=" stroke:#000000; stroke-width:1;"></polyline>
	<polyline points="44.8322 30.2065 41.5412 32.238"
	 style=" stroke:#000000; stroke-width:1;"></polyline>
	<polygon points="44.6127 19.29 52.4885 13.954 53.3886 20.45 
	 51.1384 22.306 44.6127 19.29 44.6127 19.29 44.6127 19.29 44.6127 19.29 "
	 style="stroke:none; fill:#001221; fill-opacity:100%"></polygon>
	<polyline points="44.6127 19.29 52.4885 13.954 53.3886 20.45 
	 51.1384 22.306 44.6127 19.29 44.6127 19.29 44.6127 19.29"
	 style=" stroke:#001221; stroke-width:1;"></polyline>
	<polygon points="12.3665 64.9685 12.1419 61.9167 21.576 59.0996 
	 12.3665 64.9685 12.3665 64.9685 12.3665 64.9685 12.3665 64.9685 "
	 style="stroke:none; fill:#001221; fill-opacity:100%"></polygon>
	<polyline points="12.3665 64.9685 12.1419 61.9167 21.576 59.0996 
	 12.3665 64.9685 12.3665 64.9685 12.3665 64.9685"
	 style=" stroke:#001221; stroke-width:1;"></polyline>
	<polygon points="13.2389 65.5992 34.9159 51.4246 40.2247 56.2257 
	 19.6535 69.2571 13.2389 65.5992 13.2389 65.5992 13.2389 65.5992 13.2389 65.5992 "
	 style="stroke:none; fill:#001221; fill-opacity:100%"></polygon>
	<polyline points="13.2389 65.5992 34.9159 51.4246 40.2247 56.2257 
	 19.6535 69.2571 13.2389 65.5992 13.2389 65.5992 13.2389 65.5992"
	 style=" stroke:#001221; stroke-width:1;"></polyline>
	<polygon points="20.2642 72.1917 19.8208 69.6721 40.4395 56.6165 
	 40.8829 59.1361 20.2642 72.1917 20.2642 72.1917 20.2642 72.1917 20.2642 72.1917 "
	 style="stroke:none; fill:#001221; fill-opacity:100%"></polygon>
	<polyline points="20.2642 72.1917 19.8208 69.6721 40.4395 56.6165 
	 40.8829 59.1361 20.2642 72.1917 20.2642 72.1917 20.2642 72.1917"
	 style=" stroke:#001221; stroke-width:1;"></polyline>
	<polygon points="23.1118 35.5657 40.8446 24.3375 44.6127 30.2954 
	 41.2879 31.8994 37.9629 31.6703 25.1066 39.4612 23.1118 35.5657 
	 23.1118 35.5657 23.1118 35.5657 23.1118 35.5657 "
	 style="stroke:none; fill:#001221; fill-opacity:100%"></polygon>
	<polyline points="23.1118 35.5657 40.8446 24.3375 44.6127 30.2954 
	 41.2879 31.8994 37.9629 31.6703 25.1066 39.4612 23.1118 35.5657 
	 23.1118 35.5657 23.1118 35.5657"
	 style=" stroke:#001221; stroke-width:1;"></polyline>
	<polygon points="41.9799 32.238 44.8321 30.6579 44.3568 32.238 
	 41.9799 32.238 41.9799 32.238 41.9799 32.238 41.9799 32.238 "
	 style="stroke:none; fill:#000065; fill-opacity:100%"></polygon>
	<polyline points="41.9799 32.238 44.8321 30.6579 44.3568 32.238 
	 41.9799 32.238 41.9799 32.238 41.9799 32.238"
	 style=" stroke:#000065; stroke-width:1;"></polyline>
	<polygon points="35.1787 46.1786 42.0307 44.1337 42.2518 42.0888 
	 37.61 35.9544 38.4941 32.0919 44.6831 32.7735 45.3462 30.5015 
	 41.1466 23.9126 44.02 19.823 64.7973 28.2294 63.692 28.4566 
	 61.4817 28.9111 59.4924 29.5927 57.9451 30.5015 56.3979 31.8647 
	 55.0718 33.2279 53.9665 34.8183 53.0825 36.4088 51.7562 40.2712 
	 51.0931 44.5881 50.872 51.177 51.0931 54.5849 49.5459 49.1321 
	 35.1787 46.1786 35.1787 46.1786 35.1787 46.1786 35.1787 46.1786 "
	 style="stroke:none; fill:#83c2ff; fill-opacity:100%"></polygon>
	<polygon points="17.8732 57.2937 14.5553 48.8491 37.3383 36.7526 
	 41.541 42.002 41.3199 43.8279 34.684 45.6537 17.8732 57.2937 
	 17.8732 57.2937 17.8732 57.2937 17.8732 57.2937 "
	 style="stroke:none; fill:#001221; fill-opacity:100%"></polygon>
	<polyline points="17.8732 57.2937 14.5553 48.8491 37.3383 36.7526 
	 41.541 42.002 41.3199 43.8279 34.684 45.6537 17.8732 57.2937 
	 17.8732 57.2937 17.8732 57.2937"
	 style=" stroke:#001221; stroke-width:1;"></polyline>
	<polygon points="14.3413 81.6722 13.8971 77.0595 31.6682 71.063 
	 14.3413 81.6722 14.3413 81.6722 14.3413 81.6722 14.3413 81.6722 "
	 style="stroke:none; fill:#001221; fill-opacity:100%"></polygon>
	<polyline points="14.3413 81.6722 13.8971 77.0595 31.6682 71.063 
	 14.3413 81.6722 14.3413 81.6722 14.3413 81.6722"
	 style=" stroke:#001221; stroke-width:1;"></polyline>
	<polygon points="15.2135 82.0603 37.3121 68.5799 45.7097 74.0635 
	 25.379 87.3153 15.2135 82.0603 15.2135 82.0603 15.2135 82.0603 15.2135 82.0603 "
	 style="stroke:none; fill:#001221; fill-opacity:100%"></polygon>
	<polyline points="15.2135 82.0603 37.3121 68.5799 45.7097 74.0635 
	 25.379 87.3153 15.2135 82.0603 15.2135 82.0603 15.2135 82.0603"
	 style=" stroke:#001221; stroke-width:1;"></polyline>
	<polygon points="26.6332 90.0242 25.5251 87.7342 46.3588 74.2233 
	 47.2455 76.9713 26.6332 90.0242 26.6332 90.0242 26.6332 90.0242 26.6332 90.0242 "
	 style="stroke:none; fill:#001221; fill-opacity:100%"></polygon>
	<polyline points="26.6332 90.0242 25.5251 87.7342 46.3588 74.2233 
	 47.2455 76.9713 26.6332 90.0242 26.6332 90.0242 26.6332 90.0242"
	 style=" stroke:#001221; stroke-width:1;"></polyline>
	<polygon points="21.1372 97.2473 26.6866 90.3713 40.0053 82.3493 
	 21.1372 97.2473 21.1372 97.2473 21.1372 97.2473 21.1372 97.2473 "
	 style="stroke:none; fill:#001221; fill-opacity:100%"></polygon>
	<polyline points="21.1372 97.2473 26.6866 90.3713 40.0053 82.3493 
	 21.1372 97.2473 21.1372 97.2473 21.1372 97.2473"
	 style=" stroke:#001221; stroke-width:1;"></polyline>
	<polygon points="22.4678 101.085 20.9178 97.87 44.832 87.7668 
	 22.4678 101.085 22.4678 101.085 22.4678 101.085 22.4678 101.085 "
	 style="stroke:none; fill:#001221; fill-opacity:100%"></polygon>
	<polyline points="22.4678 101.085 20.9178 97.87 44.832 87.7668 
	 22.4678 101.085 22.4678 101.085 22.4678 101.085"
	 style=" stroke:#001221; stroke-width:1;"></polyline>
	<polygon points="36.2756 119.709 56.8242 105.825 65.2204 106.28 
	 67.4299 109.012 46.2185 133.138 47.5442 122.668 45.1138 120.164 
	 36.2756 119.709 36.2756 119.709 36.2756 119.709 36.2756 119.709 "
	 style="stroke:none; fill:#001221; fill-opacity:100%"></polygon>
	<polyline points="36.2756 119.709 56.8242 105.825 65.2204 106.28 
	 67.4299 109.012 46.2185 133.138 47.5442 122.668 45.1138 120.164 
	 36.2756 119.709 36.2756 119.709 36.2756 119.709"
	 style=" stroke:#001221; stroke-width:1;"></polyline>
	<polyline points="44.8319 120.497 65.4552 106.051"
	 style=" stroke:#000000; stroke-width:1;"></polyline>
	<polyline points="47.026 122.98 67.6493 108.76"
	 style=" stroke:#000000; stroke-width:1;"></polyline>
	<polygon points="23.1118 101.421 45.6425 88.2183 54.0363 90.7225 
	 55.5825 93.2264 33.0519 115.08 34.3771 107.34 33.0519 104.381 
	 23.1118 101.421 23.1118 101.421 23.1118 101.421 23.1118 101.421 "
	 style="stroke:none; fill:#001221; fill-opacity:100%"></polygon>
	<polyline points="23.1118 101.421 45.6425 88.2183 54.0363 90.7225 
	 55.5825 93.2264 33.0519 115.08 34.3771 107.34 33.0519 104.381 
	 23.1118 101.421 23.1118 101.421 23.1118 101.421"
	 style=" stroke:#001221; stroke-width:1;"></polyline>
	<polyline points="32.1069 104.471 54.2661 90.4756"
	 style=" stroke:#000000; stroke-width:1;"></polyline>
	<polyline points="33.8622 107.631 55.8018 93.4099"
	 style=" stroke:#000000; stroke-width:1;"></polyline>
	<polygon points="136.133 98.6018 135.443 95.5545 140.27 92.5072 
	 136.133 98.6018 136.133 98.6018 136.133 98.6018 136.133 98.6018 "
	 style="stroke:none; fill:#001221; fill-opacity:100%"></polygon>
	<polyline points="136.133 98.6018 135.443 95.5545 140.27 92.5072 
	 136.133 98.6018 136.133 98.6018 136.133 98.6018"
	 style=" stroke:#001221; stroke-width:1;"></polyline>
	<polygon points="136.979 111.92 137.66 107.2 143.341 106.728 
	 136.979 111.92 136.979 111.92 136.979 111.92 136.979 111.92 "
	 style="stroke:none; fill:#001221; fill-opacity:100%"></polygon>
	<polyline points="136.979 111.92 137.66 107.2 143.341 106.728 
	 136.979 111.92 136.979 111.92 136.979 111.92"
	 style=" stroke:#001221; stroke-width:1;"></polyline>
	<polygon points="135.261 127.495 133.907 125.849 136.164 121.852 
	 141.806 122.792 135.261 127.495 135.261 127.495 135.261 127.495 135.261 127.495 "
	 style="stroke:none; fill:#001221; fill-opacity:100%"></polygon>
	<polyline points="135.261 127.495 133.907 125.849 136.164 121.852 
	 141.806 122.792 135.261 127.495 135.261 127.495 135.261 127.495"
	 style=" stroke:#001221; stroke-width:1;"></polyline>
	<polygon points="126.685 139.684 126.009 135.247 129.164 132.912 
	 134.346 136.182 126.685 139.684 126.685 139.684 126.685 139.684 126.685 139.684 "
	 style="stroke:none; fill:#001221; fill-opacity:100%"></polygon>
	<polyline points="126.685 139.684 126.009 135.247 129.164 132.912 
	 134.346 136.182 126.685 139.684 126.685 139.684 126.685 139.684"
	 style=" stroke:#001221; stroke-width:1;"></polyline>
	<polygon points="50.0977 136.942 71.3169 122.529 79.7162 122.529 
	 63.3598 139.458 60.7073 136.256 50.0977 136.942 50.0977 136.942 
	 50.0977 136.942 50.0977 136.942 "
	 style="stroke:none; fill:#001221; fill-opacity:100%"></polygon>
	<polyline points="50.0977 136.942 71.3169 122.529 79.7162 122.529 
	 63.3598 139.458 60.7073 136.256 50.0977 136.942 50.0977 136.942 
	 50.0977 136.942"
	 style=" stroke:#001221; stroke-width:1;"></polyline>
	<polyline points="59.9704 136.75 80.155 122.077"
	 style=" stroke:#000000; stroke-width:1;"></polyline>
	<polygon points="100.145 158.419 97.4874 154.994 110.774 144.262 
	 114.096 138.781 118.082 138.781 121.182 143.348 100.145 158.419 
	 100.145 158.419 100.145 158.419 100.145 158.419 "
	 style="stroke:none; fill:#001221; fill-opacity:100%"></polygon>
	<polyline points="100.145 158.419 97.4874 154.994 110.774 144.262 
	 114.096 138.781 118.082 138.781 121.182 143.348 100.145 158.419 
	 100.145 158.419 100.145 158.419"
	 style=" stroke:#001221; stroke-width:1;"></polyline>
	<polygon points="84.7854 158.419 82.3489 152.256 102.284 138.104 
	 105.386 143.582 84.7854 158.419 84.7854 158.419 84.7854 158.419 84.7854 158.419 "
	 style="stroke:none; fill:#001221; fill-opacity:100%"></polygon>
	<polyline points="84.7854 158.419 82.3489 152.256 102.284 138.104 
	 105.386 143.582 84.7854 158.419 84.7854 158.419 84.7854 158.419"
	 style=" stroke:#001221; stroke-width:1;"></polyline>
	<polygon points="77.3623 148.232 70.9403 150.068 88.6562 138.134 
	 94.6352 136.298 77.3623 148.232 77.3623 148.232 77.3623 148.232 77.3623 148.232 "
	 style="stroke:none; fill:#001221; fill-opacity:100%"></polygon>
	<polyline points="77.3623 148.232 70.9403 150.068 88.6562 138.134 
	 94.6352 136.298 77.3623 148.232 77.3623 148.232 77.3623 148.232"
	 style=" stroke:#001221; stroke-width:1;"></polyline>
	<polygon points="50.7559 46.9535 53.8361 47.406 59.9966 48.9899 
	 65.7169 51.2523 71.4374 54.4197 76.7179 58.2661 81.7781 62.791 
	 90.7989 72.9722 98.0594 84.7373 103.12 97.181 104.88 103.516 
	 105.98 109.625 106.42 115.734 105.76 124.557 108.62 125.236 
	 114.121 125.915 118.521 125.236 122.041 123.652 124.901 121.164 
	 126.882 117.544 128.202 113.471 128.642 108.72 128.642 103.29 
	 127.762 97.6336 124.462 85.416 118.961 72.7461 108.18 55.7772 
	 101.58 48.0849 93.219 40.3923 83.5384 34.0573 78.6981 31.5686 
	 73.8577 29.5323 69.2373 28.6273 64.8369 28.1748 60.8766 28.8535 
	 57.3563 30.6635 54.4961 33.6048 52.296 37.9035 50.7559 46.9535 
	 50.7559 46.9535 50.7559 46.9535 50.7559 46.9535 "
	 style="stroke:none; fill:#83c2ff; fill-opacity:100%"></polygon>
	<polyline points="50.7559 46.9535 53.8361 47.406 59.9966 48.9899 
	 65.7169 51.2523 71.4374 54.4197 76.7179 58.2661 81.7781 62.791 
	 90.7989 72.9722 98.0594 84.7373 103.12 97.181 104.88 103.516 
	 105.98 109.625 106.42 115.734 105.76 124.557 108.62 125.236 
	 114.121 125.915 118.521 125.236 122.041 123.652 124.901 121.164 
	 126.882 117.544 128.202 113.471 128.642 108.72 128.642 103.29 
	 127.762 97.6336 124.462 85.416 118.961 72.7461 108.18 55.7772 
	 101.58 48.0849 93.219 40.3923 83.5384 34.0573 78.6981 31.5686 
	 73.8577 29.5323 69.2373 28.6273 64.8369 28.1748 60.8766 28.8535 
	 57.3563 30.6635 54.4961 33.6048 52.296 37.9035 50.7559 46.9535 
	 50.7559 46.9535 50.7559 46.9535"
	 style=" stroke:#83c2ff; stroke-width:1;"></polyline>
	<polygon points="105.474 75.2103 116.108 68.1284 118.988 73.6112 
	 99.4919 87.0895 96.3903 81.3784 105.474 75.2103 105.474 75.2103 
	 105.474 75.2103 105.474 75.2103 "
	 style="stroke:none; fill:#001221; fill-opacity:100%"></polygon>
	<polyline points="105.474 75.2103 116.108 68.1284 118.988 73.6112 
	 99.4919 87.0895 96.3903 81.3784 105.474 75.2103 105.474 75.2103 
	 105.474 75.2103"
	 style=" stroke:#001221; stroke-width:1;"></polyline>
	<polygon points="101.875 93.8214 122.266 80.0922 123.596 83.7533 
	 102.984 96.796 101.875 93.8214 101.875 93.8214 101.875 93.8214 101.875 93.8214 "
	 style="stroke:none; fill:#001221; fill-opacity:100%"></polygon>
	<polyline points="101.875 93.8214 122.266 80.0922 123.596 83.7533 
	 102.984 96.796 101.875 93.8214 101.875 93.8214 101.875 93.8214"
	 style=" stroke:#001221; stroke-width:1;"></polyline>
	<polygon points="104.947 103.047 125.994 90.7014 127.545 97.1027 
	 106.055 108.534 104.947 103.047 104.947 103.047 104.947 103.047 104.947 103.047 "
	 style="stroke:none; fill:#001221; fill-opacity:100%"></polygon>
	<polyline points="104.947 103.047 125.994 90.7014 127.545 97.1027 
	 106.055 108.534 104.947 103.047 104.947 103.047 104.947 103.047"
	 style=" stroke:#001221; stroke-width:1;"></polyline>
	<polygon points="106.706 117.026 128.422 106.502 128.201 110.163 
	 127.758 113.366 127.536 114.052 106.263 123.432 106.706 117.026 
	 106.706 117.026 106.706 117.026 106.706 117.026 "
	 style="stroke:none; fill:#001221; fill-opacity:100%"></polygon>
	<polyline points="106.706 117.026 128.422 106.502 128.201 110.163 
	 127.758 113.366 127.536 114.052 106.263 123.432 106.706 117.026 
	 106.706 117.026 106.706 117.026"
	 style=" stroke:#001221; stroke-width:1;"></polyline>
	<polyline points="106.044 124.335 127.325 115.08"
	 style=" stroke:#000000; stroke-width:1;"></polyline>
	<polyline points="107.799 125.238 125.351 117.789"
	 style=" stroke:#000000; stroke-width:1;"></polyline>
	<polygon points="106.483 110.085 127.762 99.0531 127.983 100.892 
	 106.483 111.694 106.483 110.085 106.483 110.085 106.483 110.085 106.483 110.085 "
	 style="stroke:none; fill:#001221; fill-opacity:100%"></polygon>
	<polyline points="106.483 110.085 127.762 99.0531 127.983 100.892 
	 106.483 111.694 106.483 110.085 106.483 110.085 106.483 110.085"
	 style=" stroke:#001221; stroke-width:1;"></polyline>
	<polygon points="107.36 55.1849 88.1979 69.0316 79.1674 59.725 
	 69.6963 53.1419 62.2075 49.51 57.3618 47.6941 51.1947 46.559 
	 51.6351 43.3811 52.2959 39.2951 52.9567 37.2523 53.8377 35.4363 
	 54.9391 33.8473 56.0403 32.4853 57.3618 31.1233 58.9036 30.2154 
	 60.886 29.3074 62.8683 28.8534 65.0709 28.6264 67.4938 28.8534 
	 70.1368 29.0803 74.7623 30.2154 85.1143 35.4363 95.907 43.3811 
	 103.396 50.6451 107.36 55.1849 107.36 55.1849 107.36 55.1849 107.36 55.1849 "
	 style="stroke:none; fill:#001221; fill-opacity:100%"></polygon>
	<polyline points="107.36 55.1849 88.1979 69.0316 79.1674 59.725 
	 69.6963 53.1419 62.2075 49.51 57.3618 47.6941 51.1947 46.559 
	 51.6351 43.3811 52.2959 39.2951 52.9567 37.2523 53.8377 35.4363 
	 54.9391 33.8473 56.0403 32.4853 57.3618 31.1233 58.9036 30.2154 
	 60.886 29.3074 62.8683 28.8534 65.0709 28.6264 67.4938 28.8534 
	 70.1368 29.0803 74.7623 30.2154 85.1143 35.4363 95.907 43.3811 
	 103.396 50.6451 107.36 55.1849 107.36 55.1849 107.36 55.1849"
	 style=" stroke:#001221; stroke-width:1;"></polyline>
      </g>
    </g>
  </symbol>
 </defs>
</svg>
