<?xml version="1.0"?>
<?metis version="3.1"?>
<?metisxml version="1.0"?>
<!DOCTYPE svg  PUBLIC "-//W3C//DTD SVG August 1999//EN"
 "http://www.w3.org/Graphics/SVG/svg-19990812.dtd">

<svg width="200" height="200">
 <title>Symbol library: product_method.svg</title>
 <defs>
  <symbol id="oid1" xml:space="preserve" class="METIS_SYMBOL">
   <title>Product Method</title>
    <g>
      <polygon points="0 0 0 304 16.2963 320 
       880 320 880 16 863.704 0 0 0 
       0 0 0 0 0 0 0 0 
       0 0 0 0 "
       style=" stroke:#000000; stroke-width:1; fill:#9b9b9b; fill-opacity:100%"       class="TAG:shadow"></polygon>
      <rect x="0" y="0" width="240" height="304"
       style=" stroke:#000000; stroke-width:1; fill:#ffffff; fill-opacity:100%"       class="TAG:PictureBackground"></rect>
      <rect x="240" y="0" width="624" height="304"
       style=" stroke:#000000; stroke-width:1; fill:#ffcf9f; fill-opacity:100%"       class="TAG:canvas"></rect>
      <g>
	<desc>METIS_TEXT_GROUP</desc>
	<text  x="256" y="15.8"
	 style=" stroke:#000000; stroke-width:1; font-family:sans-serif; font-size:16;"
	 class="TAG:text">text</text>
	<rect x="256" y="0" width="608" height="304"
	 style=" stroke:#000000; stroke-width:1; fill:#ffffff; fill-opacity:0%"></rect>
      </g>
      <polyline points="864 304 880 320"
       style=" stroke:#000000; stroke-width:1;"></polyline>
      <g>
	<polygon points="31.9509 32 16 52.1343 16 69.0473 
	 86.8225 148.778 95.117 147.169 95.117 156.027 103.411 157.637 
	 111.067 178.578 137.866 139.919 119.362 134.282 119.362 123.006 
	 109.792 122.2 111.067 112.538 42.7976 32 31.9509 32 
	 31.9509 32 31.9509 32 31.9509 32 31.9509 32 
	 31.9509 32 31.9509 32 "
	 style=" stroke:#000000; stroke-width:1; fill:#006e00; fill-opacity:100%"></polygon>
	<polygon points="128.295 154.416 121.277 164.886 190.823 245.422 
	 192.099 258.309 220.811 272 224 265.556 206.136 236.563 
	 198.48 234.952 128.295 154.416 128.295 154.416 128.295 154.416 
	 128.295 154.416 128.295 154.416 128.295 154.416 128.295 154.416 "
	 style=" stroke:#000000; stroke-width:1; fill:#dcdcdc; fill-opacity:100%"></polygon>
	<polygon points="39.6077 50.5238 30.6749 61.7989 118.086 159.249 
	 125.105 149.583 39.6077 50.5238 39.6077 50.5238 39.6077 50.5238 
	 39.6077 50.5238 39.6077 50.5238 39.6077 50.5238 39.6077 50.5238 "
	 style=" stroke:#000000; stroke-width:1; fill:#006e00; fill-opacity:100%"></polygon>
      </g>
    </g>
  </symbol>
 </defs>
</svg>
