<?xml version="1.0"?>
<?metis version="3.1"?>
<?metisxml version="1.0"?>
<!DOCTYPE svg  PUBLIC "-//W3C//DTD SVG August 1999//EN"
 "http://www.w3.org/Graphics/SVG/svg-19990812.dtd">

<svg width="200" height="200">
 <title>Symbol library: product_item2.svg</title>
 <defs>
  <symbol id="oid0" xml:space="preserve" class="METIS_SYMBOL">
   <title>Product Item</title>
    <g>
      <polygon points="0 0 0 304 16.2963 320 
       880 320 880 16 863.704 0 0 0 
       0 0 0 0 0 0 0 0 
       0 0 0 0 "
       style=" stroke:#000000; stroke-width:1; fill:#9b9b9b; fill-opacity:100%"       class="TAG:shadow"></polygon>
      <rect x="0" y="0" width="240" height="304"
       style=" stroke:#000000; stroke-width:1; fill:#ffffff; fill-opacity:100%"       class="TAG:PictureBackground"></rect>
      <rect x="240" y="0" width="624" height="304"
       style=" stroke:#000000; stroke-width:1; fill:#ffcf9f; fill-opacity:100%"       class="TAG:canvas"></rect>
      <g>
	<desc>METIS_TEXT_GROUP</desc>
	<text  x="256" y="15.8"
	 style=" stroke:#000000; stroke-width:1; font-family:sans-serif; font-size:16;"
	 class="TAG:text">text</text>
	<rect x="256" y="0" width="608" height="304"
	 style=" stroke:#000000; stroke-width:1; fill:#ffffff; fill-opacity:0%"></rect>
      </g>
      <polyline points="864 304 880 320"
       style=" stroke:#000000; stroke-width:1;"></polyline>
      <g>
	<polygon points="74.3469 83.5444 48.3049 78.4577 19.2964 87.2746 
	 23.5818 80.8316 35.7786 73.7102 31.8229 66.9282 37.0972 60.4852 
	 76.9839 34.0346 84.8953 32 91.4882 38.1039 98.7405 39.1213 
	 105.333 34.3738 113.245 36.7475 115.552 45.9034 122.804 49.2946 
	 134.012 46.9208 141.264 52.6856 141.264 63.5371 147.198 68.6235 
	 160.055 69.3019 165.329 75.406 164.339 85.5791 168.296 90.6658 
	 179.832 92.7005 184.448 99.1432 180.822 110.334 184.778 116.777 
	 194.996 118.133 198.293 125.594 193.347 133.054 195.656 139.497 
	 207.522 144.245 209.831 152.044 201.59 157.131 202.578 162.896 
	 213.456 169.339 213.786 174.087 203.567 182.563 214.115 191.041 
	 212.468 197.824 200.93 205.623 206.204 212.406 201.26 218.509 
	 188.073 224.274 188.403 228.004 156.758 252.081 147.857 252.081 
	 143.572 246.316 132.364 254.116 125.112 252.081 121.156 241.908 
	 114.563 236.821 100.389 240.891 93.7956 237.838 92.8068 224.274 
	 88.1917 219.187 71.7095 220.204 66.7651 214.101 68.743 198.841 
	 65.4463 194.772 50.6125 194.094 46.9864 188.329 49.294 175.443 
	 46.9864 171.373 31.8229 166.626 28.8561 160.861 37.7565 149.67 
	 35.7786 145.262 19.2964 136.784 18.3075 129.324 28.1968 122.881 
	 27.5376 118.133 16.6593 112.369 16 106.604 24.5707 100.839 
	 19.2964 87.2746 48.3049 79.136 74.3469 84.5617 74.3469 89.3092 
	 75.3358 99.1432 77.3136 108.978 80.6099 118.812 89.5102 137.801 
	 101.048 155.774 114.234 171.373 128.079 184.599 141.594 194.433 
	 147.857 197.824 156.758 200.875 173.24 161.878 112.256 82.8661 
	 74.3469 83.5444 74.3469 83.5444 74.3469 83.5444 74.3469 83.5444 
	 74.3469 83.5444 74.3469 83.5444 74.3469 83.5444 "
	 style="stroke:none; fill:#0085ff; fill-opacity:100%"></polygon>
	<polyline points="74.3469 83.5444 48.3049 78.4577 19.2964 87.2746 
	 23.5818 80.8316 35.7786 73.7102 31.8229 66.9282 37.0972 60.4852 
	 76.9839 34.0346 84.8953 32 91.4882 38.1039 98.7405 39.1213 
	 105.333 34.3738 113.245 36.7475 115.552 45.9034 122.804 49.2946 
	 134.012 46.9208 141.264 52.6856 141.264 63.5371 147.198 68.6235 
	 160.055 69.3019 165.329 75.406 164.339 85.5791 168.296 90.6658 
	 179.832 92.7005 184.448 99.1432 180.822 110.334 184.778 116.777 
	 194.996 118.133 198.293 125.594 193.347 133.054 195.656 139.497 
	 207.522 144.245 209.831 152.044 201.59 157.131 202.578 162.896 
	 213.456 169.339 213.786 174.087 203.567 182.563 214.115 191.041 
	 212.468 197.824 200.93 205.623 206.204 212.406 201.26 218.509 
	 188.073 224.274 188.403 228.004 156.758 252.081 147.857 252.081 
	 143.572 246.316 132.364 254.116 125.112 252.081 121.156 241.908 
	 114.563 236.821 100.389 240.891 93.7956 237.838 92.8068 224.274 
	 88.1917 219.187 71.7095 220.204 66.7651 214.101 68.743 198.841 
	 65.4463 194.772 50.6125 194.094 46.9864 188.329 49.294 175.443 
	 46.9864 171.373 31.8229 166.626 28.8561 160.861 37.7565 149.67 
	 35.7786 145.262 19.2964 136.784 18.3075 129.324 28.1968 122.881 
	 27.5376 118.133 16.6593 112.369 16 106.604 24.5707 100.839 
	 19.2964 87.2746 48.3049 79.136 74.3469 84.5617 74.3469 89.3092 
	 75.3358 99.1432 77.3136 108.978 80.6099 118.812 89.5102 137.801 
	 101.048 155.774 114.234 171.373 128.079 184.599 141.594 194.433 
	 147.857 197.824 156.758 200.875 173.24 161.878 112.256 82.8661 
	 74.3469 83.5444 74.3469 83.5444 74.3469 83.5444"
	 style=" stroke:#0085ff; stroke-width:1;"></polyline>
	<polyline points="188.447 227.7 180.53 230.074 175.581 222.274 
	 168.653 222.274 163.376 230.752 156.777 229.735 151.829 220.578 
	 142.922 217.186 131.047 220.917 125.109 216.168 123.79 202.263 
	 118.182 197.853 104.657 197.514 100.698 193.104 99.3784 177.163 
	 96.0796 173.433 82.8843 172.753 78.2659 166.987 81.8946 153.76 
	 79.2558 150.029 66.0604 146.298 62.4318 140.532 69.359 130.018 
	 67.3798 124.93 54.1848 116.79 51.5455 107.632 59.4628 102.884 
	 58.803 98.4744 50.2261 90.3341 50.2261 82.8721 60.4524 80.1589 
	 60.4524 77.1063 53.8546 68.6267 55.1743 61.8434 64.411 62.5219 
	 65.4006 59.8082 59.4628 49.9723 64.081 43.1887 74.6371 47.5981 
	 78.2659 44.8846 76.6163 34.3702"
	 style=" stroke:#000000; stroke-width:1;"></polyline>
	<polyline points="148.626 252.423 180.219 229.398"
	 style=" stroke:#000000; stroke-width:1;"></polyline>
	<polyline points="143.689 246.667 163.764 230.076"
	 style=" stroke:#000000; stroke-width:1;"></polyline>
	<polyline points="125.918 252.084 156.852 229.398"
	 style=" stroke:#000000; stroke-width:1;"></polyline>
	<polyline points="120.981 241.927 151.916 220.257"
	 style=" stroke:#000000; stroke-width:1;"></polyline>
	<polyline points="114.729 236.848 142.702 217.209"
	 style=" stroke:#000000; stroke-width:1;"></polyline>
	<polyline points="100.906 240.91 131.512 219.918"
	 style=" stroke:#000000; stroke-width:1;"></polyline>
	<polyline points="93.9958 237.525 125.26 215.854"
	 style=" stroke:#000000; stroke-width:1;"></polyline>
	<polyline points="93.0084 223.981 123.943 202.311"
	 style=" stroke:#000000; stroke-width:1;"></polyline>
	<polyline points="71.6171 219.579 105.185 196.894"
	 style=" stroke:#000000; stroke-width:1;"></polyline>
	<polyline points="67.9971 214.501 101.236 191.815"
	 style=" stroke:#000000; stroke-width:1;"></polyline>
	<polyline points="50.8843 194.185 83.1358 172.515"
	 style=" stroke:#000000; stroke-width:1;"></polyline>
	<polyline points="46.935 187.752 79.1863 165.744"
	 style=" stroke:#000000; stroke-width:1;"></polyline>
	<polyline points="31.7967 166.42 66.3517 146.105"
	 style=" stroke:#000000; stroke-width:1;"></polyline>
	<polyline points="29.1639 161.003 63.0605 140.01"
	 style=" stroke:#000000; stroke-width:1;"></polyline>
	<polyline points="37.7203 149.491 69.3134 129.853"
	 style=" stroke:#000000; stroke-width:1;"></polyline>
	<polyline points="36.4039 145.428 67.6681 124.774"
	 style=" stroke:#000000; stroke-width:1;"></polyline>
	<polyline points="19.9492 136.963 54.1752 116.309"
	 style=" stroke:#000000; stroke-width:1;"></polyline>
	<polyline points="27.8474 123.081 52.2005 107.506"
	 style=" stroke:#000000; stroke-width:1;"></polyline>
	<polyline points="17.3164 112.246 50.5552 90.2375"
	 style=" stroke:#000000; stroke-width:1;"></polyline>
	<polyline points="24.8856 100.734 50.5549 82.7883"
	 style=" stroke:#000000; stroke-width:1;"></polyline>
	<polyline points="19.291 87.1904 53.846 68.5679"
	 style=" stroke:#000000; stroke-width:1;"></polyline>
	<polyline points="35.7457 73.9852 55.8205 62.1344"
	 style=" stroke:#000000; stroke-width:1;"></polyline>
	<polyline points="32.1257 67.2134 59.7697 49.9453"
	 style=" stroke:#000000; stroke-width:1;"></polyline>
	<polyline points="27.5184 118.679 58.7826 98.3637"
	 style=" stroke:#000000; stroke-width:1;"></polyline>
	<polyline points="187.812 224.32 186.801 216.645 192.194 212.808 
	 200.622 218.389"
	 style=" stroke:#000000; stroke-width:1;"></polyline>
	<polyline points="211.812 197.962 202.023 196.555 198.648 202.884 
	 200.673 205.698"
	 style=" stroke:#000000; stroke-width:1;"></polyline>
	<polyline points="202.926 182.673 203.945 174.586 213.458 173.53"
	 style=" stroke:#000000; stroke-width:1;"></polyline>
	<polyline points="201.939 163.035 209.837 151.861"
	 style=" stroke:#000000; stroke-width:1;"></polyline>
	<polyline points="65.3646 59.426 60.4281 62.4733"
	 style=" stroke:#000000; stroke-width:1;"></polyline>
	<polygon points="65.0353 43.0513 76.849 35.0473 78.1992 44.7913 
	 74.8238 47.5753 65.0353 43.0513 65.0353 43.0513 65.0353 43.0513 
	 65.0353 43.0513 65.0353 43.0513 65.0353 43.0513 65.0353 43.0513 "
	 style="stroke:none; fill:#001221; fill-opacity:100%"></polygon>
	<polyline points="65.0353 43.0513 76.849 35.0473 78.1992 44.7913 
	 74.8238 47.5753 65.0353 43.0513 65.0353 43.0513 65.0353 43.0513"
	 style=" stroke:#001221; stroke-width:1;"></polyline>
	<polygon points="16.666 111.569 16.3291 106.991 30.4803 102.766 
	 16.666 111.569 16.666 111.569 16.666 111.569 16.666 111.569 
	 16.666 111.569 16.666 111.569 16.666 111.569 "
	 style="stroke:none; fill:#001221; fill-opacity:100%"></polygon>
	<polyline points="16.666 111.569 16.3291 106.991 30.4803 102.766 
	 16.666 111.569 16.666 111.569 16.666 111.569"
	 style=" stroke:#001221; stroke-width:1;"></polyline>
	<polygon points="17.9746 112.515 50.4901 91.2532 58.4533 98.4548 
	 27.5965 118.002 17.9746 112.515 17.9746 112.515 17.9746 112.515 
	 17.9746 112.515 17.9746 112.515 17.9746 112.515 17.9746 112.515 "
	 style="stroke:none; fill:#001221; fill-opacity:100%"></polygon>
	<polyline points="17.9746 112.515 50.4901 91.2532 58.4533 98.4548 
	 27.5965 118.002 17.9746 112.515 17.9746 112.515 17.9746 112.515"
	 style=" stroke:#001221; stroke-width:1;"></polyline>
	<polygon points="28.5126 122.404 27.8474 118.624 58.7755 99.041 
	 59.4406 102.82 28.5126 122.404 28.5126 122.404 28.5126 122.404 
	 28.5126 122.404 28.5126 122.404 28.5126 122.404 28.5126 122.404 "
	 style="stroke:none; fill:#001221; fill-opacity:100%"></polygon>
	<polyline points="28.5126 122.404 27.8474 118.624 58.7755 99.041 
	 59.4406 102.82 28.5126 122.404 28.5126 122.404 28.5126 122.404"
	 style=" stroke:#001221; stroke-width:1;"></polyline>
	<polygon points="32.7839 67.4648 59.3832 50.6225 65.0353 59.5594 
	 60.0481 61.9654 55.0606 61.6217 35.7762 73.308 32.7839 67.4648 
	 32.7839 67.4648 32.7839 67.4648 32.7839 67.4648 32.7839 67.4648 
	 32.7839 67.4648 32.7839 67.4648 "
	 style="stroke:none; fill:#001221; fill-opacity:100%"></polygon>
	<polyline points="32.7839 67.4648 59.3832 50.6225 65.0353 59.5594 
	 60.0481 61.9654 55.0606 61.6217 35.7762 73.308 32.7839 67.4648 
	 32.7839 67.4648 32.7839 67.4648"
	 style=" stroke:#001221; stroke-width:1;"></polyline>
	<polygon points="61.0861 62.4733 65.3644 60.1031 64.6514 62.4733 
	 61.0861 62.4733 61.0861 62.4733 61.0861 62.4733 61.0861 62.4733 
	 61.0861 62.4733 61.0861 62.4733 61.0861 62.4733 "
	 style="stroke:none; fill:#000065; fill-opacity:100%"></polygon>
	<polyline points="61.0861 62.4733 65.3644 60.1031 64.6514 62.4733 
	 61.0861 62.4733 61.0861 62.4733 61.0861 62.4733"
	 style=" stroke:#000065; stroke-width:1;"></polyline>
	<polygon points="50.8843 83.3842 61.1623 80.3168 61.494 77.2494 
	 54.5313 68.0479 55.8574 62.2541 65.1409 63.2765 66.1356 59.8685 
	 59.8361 49.9852 64.1463 43.8508 95.3122 56.4604 93.6543 56.8012 
	 90.3388 57.4829 87.3549 58.5053 85.0339 59.8685 82.7131 61.9133 
	 80.724 63.9581 79.066 66.3437 77.74 68.7295 75.7506 74.5231 
	 74.7559 80.9984 74.4243 90.8818 74.7559 95.9936 72.4351 87.8144 
	 50.8843 83.3842 50.8843 83.3842 50.8843 83.3842 50.8843 83.3842 
	 50.8843 83.3842 50.8843 83.3842 50.8843 83.3842 "
	 style="stroke:none; fill:#83c2ff; fill-opacity:100%"></polygon>
	<polygon points="24.9261 100.057 19.9492 87.3899 54.1237 69.2451 
	 60.4277 77.1192 60.0961 79.8581 50.1422 82.5968 24.9261 100.057 
	 24.9261 100.057 24.9261 100.057 24.9261 100.057 24.9261 100.057 
	 24.9261 100.057 24.9261 100.057 "
	 style="stroke:none; fill:#001221; fill-opacity:100%"></polygon>
	<polyline points="24.9261 100.057 19.9492 87.3899 54.1237 69.2451 
	 60.4277 77.1192 60.0961 79.8581 50.1422 82.5968 24.9261 100.057 
	 24.9261 100.057 24.9261 100.057"
	 style=" stroke:#001221; stroke-width:1;"></polyline>
	<polygon points="19.6282 136.625 18.9619 129.706 45.6185 120.711 
	 19.6282 136.625 19.6282 136.625 19.6282 136.625 19.6282 136.625 
	 19.6282 136.625 19.6282 136.625 19.6282 136.625 "
	 style="stroke:none; fill:#001221; fill-opacity:100%"></polygon>
	<polyline points="19.6282 136.625 18.9619 129.706 45.6185 120.711 
	 19.6282 136.625 19.6282 136.625 19.6282 136.625"
	 style=" stroke:#001221; stroke-width:1;"></polyline>
	<polygon points="20.9365 137.207 54.0844 116.986 66.6808 125.212 
	 36.1848 145.089 20.9365 137.207 20.9365 137.207 20.9365 137.207 
	 20.9365 137.207 20.9365 137.207 20.9365 137.207 20.9365 137.207 "
	 style="stroke:none; fill:#001221; fill-opacity:100%"></polygon>
	<polyline points="20.9365 137.207 54.0844 116.986 66.6808 125.212 
	 36.1848 145.089 20.9365 137.207 20.9365 137.207 20.9365 137.207"
	 style=" stroke:#001221; stroke-width:1;"></polyline>
	<polygon points="38.066 149.153 36.4039 145.718 67.6544 125.451 
	 68.9845 129.573 38.066 149.153 38.066 149.153 38.066 149.153 
	 38.066 149.153 38.066 149.153 38.066 149.153 38.066 149.153 "
	 style="stroke:none; fill:#001221; fill-opacity:100%"></polygon>
	<polyline points="38.066 149.153 36.4039 145.718 67.6544 125.451 
	 68.9845 129.573 38.066 149.153 38.066 149.153 38.066 149.153"
	 style=" stroke:#001221; stroke-width:1;"></polyline>
	<polygon points="29.8221 159.987 38.1461 149.673 58.1242 137.64 
	 29.8221 159.987 29.8221 159.987 29.8221 159.987 29.8221 159.987 
	 29.8221 159.987 29.8221 159.987 29.8221 159.987 "
	 style="stroke:none; fill:#001221; fill-opacity:100%"></polygon>
	<polyline points="29.8221 159.987 38.1461 149.673 58.1242 137.64 
	 29.8221 159.987 29.8221 159.987 29.8221 159.987"
	 style=" stroke:#001221; stroke-width:1;"></polyline>
	<polygon points="31.818 165.744 29.493 160.921 65.3642 145.766 
	 31.818 165.744 31.818 165.744 31.818 165.744 31.818 165.744 
	 31.818 165.744 31.818 165.744 31.818 165.744 "
	 style="stroke:none; fill:#001221; fill-opacity:100%"></polygon>
	<polyline points="31.818 165.744 29.493 160.921 65.3642 145.766 
	 31.818 165.744 31.818 165.744 31.818 165.744"
	 style=" stroke:#001221; stroke-width:1;"></polyline>
	<polygon points="52.5296 193.68 83.3525 172.854 95.9468 173.536 
	 99.2611 177.634 67.444 213.823 69.4325 198.118 65.7869 194.362 
	 52.5296 193.68 52.5296 193.68 52.5296 193.68 52.5296 193.68 
	 52.5296 193.68 52.5296 193.68 52.5296 193.68 "
	 style="stroke:none; fill:#001221; fill-opacity:100%"></polygon>
	<polyline points="52.5296 193.68 83.3525 172.854 95.9468 173.536 
	 99.2611 177.634 67.444 213.823 69.4325 198.118 65.7869 194.362 
	 52.5296 193.68 52.5296 193.68 52.5296 193.68"
	 style=" stroke:#001221; stroke-width:1;"></polyline>
	<polyline points="65.3641 194.862 96.2991 173.193"
	 style=" stroke:#000000; stroke-width:1;"></polyline>
	<polyline points="68.6553 198.586 99.5902 177.256"
	 style=" stroke:#000000; stroke-width:1;"></polyline>
	<polygon points="32.7839 166.248 66.58 146.444 79.1707 150.2 
	 81.49 153.956 47.6941 186.736 49.6819 175.126 47.6941 170.688 
	 32.7839 166.248 32.7839 166.248 32.7839 166.248 32.7839 166.248 
	 32.7839 166.248 32.7839 166.248 32.7839 166.248 "
	 style="stroke:none; fill:#001221; fill-opacity:100%"></polygon>
	<polyline points="32.7839 166.248 66.58 146.444 79.1707 150.2 
	 81.49 153.956 47.6941 186.736 49.6819 175.126 47.6941 170.688 
	 32.7839 166.248 32.7839 166.248 32.7839 166.248"
	 style=" stroke:#001221; stroke-width:1;"></polyline>
	<polyline points="46.2766 170.823 79.5154 149.83"
	 style=" stroke:#000000; stroke-width:1;"></polyline>
	<polyline points="48.9096 175.563 81.819 154.231"
	 style=" stroke:#000000; stroke-width:1;"></polyline>
	<polygon points="202.316 162.019 201.281 157.448 208.521 152.877 
	 202.316 162.019 202.316 162.019 202.316 162.019 202.316 162.019 
	 202.316 162.019 202.316 162.019 202.316 162.019 "
	 style="stroke:none; fill:#001221; fill-opacity:100%"></polygon>
	<polyline points="202.316 162.019 201.281 157.448 208.521 152.877 
	 202.316 162.019 202.316 162.019 202.316 162.019"
	 style=" stroke:#001221; stroke-width:1;"></polyline>
	<polygon points="203.585 181.996 204.606 174.916 213.128 174.208 
	 203.585 181.996 203.585 181.996 203.585 181.996 203.585 181.996 
	 203.585 181.996 203.585 181.996 203.585 181.996 "
	 style="stroke:none; fill:#001221; fill-opacity:100%"></polygon>
	<polyline points="203.585 181.996 204.606 174.916 213.128 174.208 
	 203.585 181.996 203.585 181.996 203.585 181.996"
	 style=" stroke:#001221; stroke-width:1;"></polyline>
	<polygon points="201.008 205.359 198.977 202.89 202.362 196.894 
	 210.825 198.304 201.008 205.359 201.008 205.359 201.008 205.359 
	 201.008 205.359 201.008 205.359 201.008 205.359 201.008 205.359 "
	 style="stroke:none; fill:#001221; fill-opacity:100%"></polygon>
	<polyline points="201.008 205.359 198.977 202.89 202.362 196.894 
	 210.825 198.304 201.008 205.359 201.008 205.359 201.008 205.359"
	 style=" stroke:#001221; stroke-width:1;"></polyline>
	<polygon points="188.144 223.642 187.13 216.987 191.862 213.484 
	 199.635 218.389 188.144 223.642 188.144 223.642 188.144 223.642 
	 188.144 223.642 188.144 223.642 188.144 223.642 188.144 223.642 "
	 style="stroke:none; fill:#001221; fill-opacity:100%"></polygon>
	<polyline points="188.144 223.642 187.13 216.987 191.862 213.484 
	 199.635 218.389 188.144 223.642 188.144 223.642 188.144 223.642"
	 style=" stroke:#001221; stroke-width:1;"></polyline>
	<polygon points="73.2628 219.529 105.092 197.91 117.691 197.91 
	 93.1559 223.303 89.1772 218.5 73.2628 219.529 73.2628 219.529 
	 73.2628 219.529 73.2628 219.529 73.2628 219.529 73.2628 219.529 73.2628 219.529 "
	 style="stroke:none; fill:#001221; fill-opacity:100%"></polygon>
	<polyline points="73.2628 219.529 105.092 197.91 117.691 197.91 
	 93.1559 223.303 89.1772 218.5 73.2628 219.529 73.2628 219.529 
	 73.2628 219.529"
	 style=" stroke:#001221; stroke-width:1;"></polyline>
	<polyline points="88.0718 219.241 118.349 197.232"
	 style=" stroke:#000000; stroke-width:1;"></polyline>
	<polygon points="148.334 251.745 144.347 246.607 164.277 230.509 
	 169.26 222.288 175.239 222.288 179.889 229.138 148.334 251.745 
	 148.334 251.745 148.334 251.745 148.334 251.745 148.334 251.745 
	 148.334 251.745 148.334 251.745 "
	 style="stroke:none; fill:#001221; fill-opacity:100%"></polygon>
	<polyline points="148.334 251.745 144.347 246.607 164.277 230.509 
	 169.26 222.288 175.239 222.288 179.889 229.138 148.334 251.745 
	 148.334 251.745 148.334 251.745"
	 style=" stroke:#001221; stroke-width:1;"></polyline>
	<polygon points="125.294 251.745 121.64 242.5 151.542 221.272 
	 156.195 229.489 125.294 251.745 125.294 251.745 125.294 251.745 
	 125.294 251.745 125.294 251.745 125.294 251.745 125.294 251.745 "
	 style="stroke:none; fill:#001221; fill-opacity:100%"></polygon>
	<polyline points="125.294 251.745 121.64 242.5 151.542 221.272 
	 156.195 229.489 125.294 251.745 125.294 251.745 125.294 251.745"
	 style=" stroke:#001221; stroke-width:1;"></polyline>
	<polygon points="114.16 236.464 104.527 239.218 131.101 221.317 
	 140.069 218.563 114.16 236.464 114.16 236.464 114.16 236.464 
	 114.16 236.464 114.16 236.464 114.16 236.464 114.16 236.464 "
	 style="stroke:none; fill:#001221; fill-opacity:100%"></polygon>
	<polyline points="114.16 236.464 104.527 239.218 131.101 221.317 
	 140.069 218.563 114.16 236.464 114.16 236.464 114.16 236.464"
	 style=" stroke:#001221; stroke-width:1;"></polyline>
	<polygon points="74.2501 84.5465 78.8704 85.2252 88.1112 87.6011 
	 96.6916 90.9947 105.272 95.7458 113.193 101.515 120.783 108.303 
	 134.315 123.575 145.205 141.222 152.796 159.888 155.436 169.39 
	 157.086 178.554 157.746 187.717 156.756 200.952 161.046 201.97 
	 169.298 202.989 175.898 201.97 181.178 199.594 185.468 195.862 
	 188.439 190.432 190.419 184.323 191.079 177.196 191.079 169.051 
	 189.759 160.567 184.809 142.24 176.558 123.235 160.386 97.782 
	 150.486 86.2436 137.945 74.7047 123.424 65.2022 116.163 61.4691 
	 108.903 58.4147 101.972 57.0572 95.3716 56.3785 89.4312 57.3965 
	 84.1507 60.1115 79.8604 64.5234 76.5603 70.9715 74.2501 84.5465 
	 74.2501 84.5465 74.2501 84.5465 74.2501 84.5465 74.2501 84.5465 
	 74.2501 84.5465 74.2501 84.5465 "
	 style="stroke:none; fill:#83c2ff; fill-opacity:100%"></polygon>
	<polyline points="74.2501 84.5465 78.8704 85.2252 88.1112 87.6011 
	 96.6916 90.9947 105.272 95.7458 113.193 101.515 120.783 108.303 
	 134.315 123.575 145.205 141.222 152.796 159.888 155.436 169.39 
	 157.086 178.554 157.746 187.717 156.756 200.952 161.046 201.97 
	 169.298 202.989 175.898 201.97 181.178 199.594 185.468 195.862 
	 188.439 190.432 190.419 184.323 191.079 177.196 191.079 169.051 
	 189.759 160.567 184.809 142.24 176.558 123.235 160.386 97.782 
	 150.486 86.2436 137.945 74.7047 123.424 65.2022 116.163 61.4691 
	 108.903 58.4147 101.972 57.0572 95.3716 56.3785 89.4312 57.3965 
	 84.1507 60.1115 79.8604 64.5234 76.5603 70.9715 74.2501 84.5465 
	 74.2501 84.5465 74.2501 84.5465"
	 style=" stroke:#83c2ff; stroke-width:1;"></polyline>
	<polygon points="156.327 126.932 172.278 116.309 176.598 124.533 
	 147.354 144.75 142.702 136.184 156.327 126.932 156.327 126.932 
	 156.327 126.932 156.327 126.932 156.327 126.932 156.327 126.932 156.327 126.932 "
	 style="stroke:none; fill:#001221; fill-opacity:100%"></polygon>
	<polyline points="156.327 126.932 172.278 116.309 176.598 124.533 
	 147.354 144.75 142.702 136.184 156.327 126.932 156.327 126.932 
	 156.327 126.932"
	 style=" stroke:#001221; stroke-width:1;"></polyline>
	<polygon points="150.929 154.848 181.515 134.255 183.51 139.746 
	 152.592 159.31 150.929 154.848 150.929 154.848 150.929 154.848 
	 150.929 154.848 150.929 154.848 150.929 154.848 150.929 154.848 "
	 style="stroke:none; fill:#001221; fill-opacity:100%"></polygon>
	<polyline points="150.929 154.848 181.515 134.255 183.51 139.746 
	 152.592 159.31 150.929 154.848 150.929 154.848 150.929 154.848"
	 style=" stroke:#001221; stroke-width:1;"></polyline>
	<polygon points="155.537 168.687 187.107 150.168 189.434 159.77 
	 157.199 176.917 155.537 168.687 155.537 168.687 155.537 168.687 
	 155.537 168.687 155.537 168.687 155.537 168.687 155.537 168.687 "
	 style="stroke:none; fill:#001221; fill-opacity:100%"></polygon>
	<polyline points="155.537 168.687 187.107 150.168 189.434 159.77 
	 157.199 176.917 155.537 168.687 155.537 168.687 155.537 168.687"
	 style=" stroke:#001221; stroke-width:1;"></polyline>
	<polygon points="158.175 189.655 190.749 173.869 190.418 179.361 
	 189.753 184.165 189.42 185.194 157.511 199.264 158.175 189.655 
	 158.175 189.655 158.175 189.655 158.175 189.655 158.175 189.655 
	 158.175 189.655 158.175 189.655 "
	 style="stroke:none; fill:#001221; fill-opacity:100%"></polygon>
	<polyline points="158.175 189.655 190.749 173.869 190.418 179.361 
	 189.753 184.165 189.42 185.194 157.511 199.264 158.175 189.655 
	 158.175 189.655 158.175 189.655"
	 style=" stroke:#001221; stroke-width:1;"></polyline>
	<polyline points="157.182 200.619 189.104 186.736"
	 style=" stroke:#000000; stroke-width:1;"></polyline>
	<polyline points="159.815 201.973 186.143 190.8"
	 style=" stroke:#000000; stroke-width:1;"></polyline>
	<polygon points="157.841 179.244 189.759 162.696 190.091 165.454 
	 157.841 181.657 157.841 179.244 157.841 179.244 157.841 179.244 
	 157.841 179.244 157.841 179.244 157.841 179.244 157.841 179.244 "
	 style="stroke:none; fill:#001221; fill-opacity:100%"></polygon>
	<polyline points="157.841 179.244 189.759 162.696 190.091 165.454 
	 157.841 181.657 157.841 179.244 157.841 179.244 157.841 179.244"
	 style=" stroke:#001221; stroke-width:1;"></polyline>
	<polygon points="159.156 96.8936 130.413 117.664 116.867 103.704 
	 102.661 93.8291 91.4275 88.3812 84.159 85.6574 74.9083 83.9547 
	 75.5689 79.1879 76.5601 73.0589 77.5513 69.9947 78.8728 67.2707 
	 80.5249 64.8872 82.1767 62.8442 84.159 60.8012 86.4716 59.4393 
	 89.4453 58.0774 92.4187 57.3963 95.7226 57.0559 99.3569 57.3963 
	 103.321 57.7367 110.26 59.4393 125.788 67.2707 141.977 79.1879 
	 153.21 90.0839 159.156 96.8936 159.156 96.8936 159.156 96.8936 
	 159.156 96.8936 159.156 96.8936 159.156 96.8936 159.156 96.8936 "
	 style="stroke:none; fill:#001221; fill-opacity:100%"></polygon>
	<polyline points="159.156 96.8936 130.413 117.664 116.867 103.704 
	 102.661 93.8291 91.4275 88.3812 84.159 85.6574 74.9083 83.9547 
	 75.5689 79.1879 76.5601 73.0589 77.5513 69.9947 78.8728 67.2707 
	 80.5249 64.8872 82.1767 62.8442 84.159 60.8012 86.4716 59.4393 
	 89.4453 58.0774 92.4187 57.3963 95.7226 57.0559 99.3569 57.3963 
	 103.321 57.7367 110.26 59.4393 125.788 67.2707 141.977 79.1879 
	 153.21 90.0839 159.156 96.8936 159.156 96.8936 159.156 96.8936"
	 style=" stroke:#001221; stroke-width:1;"></polyline>
      </g>
    </g>
  </symbol>
 </defs>
</svg>
