<?xml version="1.0"?>
<?metis version="3.1"?>
<?metisxml version="1.0"?>
<!DOCTYPE svg  PUBLIC "-//W3C//DTD SVG August 1999//EN"
 "http://www.w3.org/Graphics/SVG/svg-19990812.dtd">

<svg width="200" height="200">
 <title>Symbol library: product_properties.svg</title>
 <defs>
  <symbol id="oid1" xml:space="preserve" class="METIS_SYMBOL">
   <title>Product Properties</title>
    <g>
      <polygon points="0 0 0 304 16.2963 320 
       880 320 880 16 863.704 0 0 0 
       0 0 0 0 0 0 0 0 
       0 0 0 0 "
       style=" stroke:#000000; stroke-width:1; fill:#9b9b9b; fill-opacity:100%"       class="TAG:shadow"></polygon>
      <rect x="0" y="0" width="240" height="304"
       style=" stroke:#000000; stroke-width:1; fill:#ffffff; fill-opacity:100%"       class="TAG:PictureBackground"></rect>
      <rect x="240" y="0" width="624" height="304"
       style=" stroke:#000000; stroke-width:1; fill:#ffcf9f; fill-opacity:100%"       class="TAG:canvas"></rect>
      <g>
	<desc>METIS_TEXT_GROUP</desc>
	<text  x="256" y="15.8"
	 style=" stroke:#000000; stroke-width:1; font-family:sans-serif; font-size:16;"
	 class="TAG:text">text</text>
	<rect x="256" y="0" width="608" height="304"
	 style=" stroke:#000000; stroke-width:1; fill:#ffffff; fill-opacity:0%"></rect>
      </g>
      <polyline points="864 304 880 320"
       style=" stroke:#000000; stroke-width:1;"></polyline>
      <g>
	<polygon points="173.846 215.841 203.615 143.829 167.961 149.557 
	 48.5383 88.1832 45.4228 95.5481 16 80 16.3461 81.2275 
	 16.6923 82.8641 16.6923 84.5008 16.6923 86.1374 17.0384 87.7741 
	 17.0384 89.4107 17.0384 93.0931 17.3846 95.1389 17.7308 96.7756 
	 18.0769 98.8214 18.7692 100.458 19.4615 102.095 20.8461 103.322 
	 21.8846 104.55 23.6154 105.777 37.4613 113.142 35.0384 120.507 
	 153.769 183.927 173.846 215.841 173.846 215.841 173.846 215.841 173.846 215.841 "
	 style=" stroke:#000000; stroke-width:1; fill:#ffffff; fill-opacity:100%"></polygon>
	<polygon points="48.6769 128.934 43.439 126.054 42.3916 125.642 
	 41.693 124.819 40.9948 123.585 40.2962 122.351 39.947 120.704 
	 39.598 119.059 39.2489 117.824 39.2489 115.767 39.2489 114.121 
	 39.598 112.475 39.947 110.829 39.947 109.183 40.6456 107.537 
	 40.9948 105.891 42.0422 103.834 42.7406 102.188 43.439 100.542 
	 44.4865 98.8961 45.5341 97.6617 46.5819 96.4272 47.9787 95.6043 
	 49.026 94.3698 50.0736 93.5469 51.4704 93.1354 52.8672 92.7239 
	 54.2639 91.901 55.3115 91.901 56.3589 91.901 57.4067 92.7239 
	 62.6446 95.6043 62.2954 93.5469 61.597 91.901 60.8986 90.2551 
	 60.2002 88.6091 59.1524 87.3747 57.7557 86.1403 56.7083 85.3173 
	 54.9621 84.4944 53.5653 84.0829 52.169 83.6714 50.7722 83.6714 
	 49.026 83.6714 47.6293 84.4944 45.5341 85.3173 44.1373 85.7288 
	 42.7406 86.9632 40.9948 88.1977 39.598 89.4321 38.2013 91.078 
	 36.8045 92.7239 35.4077 94.7813 34.3601 96.8387 33.3125 98.8961 
	 32.2649 101.365 31.5665 103.422 30.8681 105.891 30.519 108.36 
	 30.1698 110.417 30.1698 112.887 29.8206 114.944 30.1698 117.001 
	 30.519 119.059 30.8681 121.116 31.2174 122.762 31.9158 124.408 
	 32.9633 126.054 34.0109 127.288 35.4077 128.523 36.4552 129.757 
	 37.8521 130.58 39.2489 130.991 40.6456 130.991 41.693 130.991 
	 42.7406 130.991 44.1373 130.991 45.5341 130.58 47.2801 129.757 
	 48.6769 128.934 48.6769 128.934 48.6769 128.934 48.6769 128.934 "
	 style=" stroke:#000000; stroke-width:1; fill:#ffffff; fill-opacity:100%"></polygon>
	<polygon points="40.0366 110.595 32.5847 111.434 32.5847 112.693 
	 32.5847 113.952 32.5847 116.05 32.9396 118.148 33.2944 120.245 
	 33.6493 121.924 34.359 123.602 35.4236 125.281 40.0366 120.665 
	 44.2949 122.763 45.7143 113.112 40.0366 110.595 40.0366 110.595 
	 40.0366 110.595 40.0366 110.595 "
	 style=" stroke:#000000; stroke-width:1; fill:#000000; fill-opacity:100%"></polygon>
	<polygon points="173.243 169.468 174.982 165.778 177.067 162.498 
	 179.501 159.218 181.587 156.348 184.368 153.478 186.454 151.428 
	 189.235 148.968 192.016 147.327 194.45 146.098 198.274 144.458 
	 200.708 144.047 203.489 143.637 205.575 143.637 208.008 144.047 
	 210.442 144.868 212.875 146.098 214.961 147.738 217.047 149.787 
	 218.785 152.248 220.176 155.118 221.219 157.578 222.609 160.858 
	 223.305 164.138 223.652 167.418 224 171.108 224 174.799 
	 223.652 178.489 222.957 182.589 222.262 186.689 221.219 190.379 
	 219.828 194.479 218.438 198.169 216.352 201.859 214.266 205.55 
	 212.18 208.83 209.746 211.7 207.313 214.57 204.879 216.62 
	 202.446 218.67 199.665 220.31 197.231 221.95 194.102 223.18 
	 190.626 224 186.802 224 183.673 223.59 181.239 222.77 
	 178.806 221.54 176.72 219.9 174.634 217.85 172.896 215.39 
	 171.505 212.93 170.114 210.06 169.072 206.78 168.376 203.499 
	 168.029 200.219 167.681 196.529 167.681 192.839 168.029 189.149 
	 168.724 185.459 169.419 181.359 170.462 177.258 171.853 173.158 
	 173.243 169.468 173.243 169.468 173.243 169.468 173.243 169.468 "
	 style=" stroke:#000000; stroke-width:1; fill:#ffffff; fill-opacity:100%"></polygon>
	<polygon points="153.515 178.434 167.982 197.893 167.982 194.994 
	 167.982 191.682 168.335 189.198 168.688 186.714 169.041 183.816 
	 169.747 181.746 170.1 179.261 154.926 170.153 154.221 170.567 
	 154.221 171.395 153.868 172.637 153.515 173.465 153.515 174.707 
	 153.515 175.949 153.515 177.191 153.515 178.434 153.515 178.434 
	 153.515 178.434 153.515 178.434 "
	 style=" stroke:#000000; stroke-width:1; fill:#000000; fill-opacity:100%"></polygon>
	<polyline points="167.335 149.349 165.566 150.174 163.796 151.825 
	 162.027 153.477 160.611 155.128 159.195 157.193 157.779 159.669 
	 156.717 162.147 155.301 164.624 154.594 167.101 153.886 169.578 
	 153.178 172.055 153.178 174.119 152.824 176.596 152.824 179.073 
	 153.178 181.138 153.532 183.615"
	 style=" stroke:#000000; stroke-width:1;"></polyline>
	<polygon points="62.4996 135.869 57.2613 132.988 55.8643 132.577 
	 55.1657 131.754 54.4673 130.52 54.1181 128.874 53.4195 127.639 
	 53.0706 126.405 53.0706 124.347 53.0706 122.702 53.0706 121.056 
	 53.0706 119.41 53.4195 117.764 53.7687 116.118 54.1181 114.061 
	 54.4673 112.415 55.5151 110.769 56.2133 109.123 56.9119 107.477 
	 58.3089 105.831 59.0073 104.597 60.4042 103.362 61.452 102.539 
	 62.4996 101.305 63.8966 100.482 64.9442 100.07 66.3412 99.6588 
	 67.7382 98.8358 68.7857 98.8358 70.1827 99.2473 76.1196 102.128 
	 75.7705 100.482 75.0721 98.8358 74.3735 97.1899 73.6751 95.544 
	 72.6273 94.3095 71.2305 93.0751 70.1827 92.2521 68.7857 91.4292 
	 67.0398 90.6062 65.6428 90.6062 64.2458 90.6062 62.4996 90.6062 
	 61.1028 91.4292 59.3565 91.8407 57.6103 92.6636 56.2133 93.898 
	 54.4673 95.1325 53.0706 96.7784 51.6736 98.0128 50.2766 99.6588 
	 48.8796 101.716 47.832 103.773 46.7842 105.831 45.7366 108.3 
	 45.0383 110.357 44.6888 112.826 43.9902 115.295 43.6413 117.352 
	 43.6413 119.821 43.6413 121.879 43.6413 123.936 43.9902 125.993 
	 44.3397 127.639 45.0383 129.697 45.3872 131.754 46.435 132.988 
	 47.4828 134.223 48.8796 135.458 49.9274 136.692 51.3242 137.103 
	 53.0706 137.926 54.1181 137.926 55.1657 137.926 56.5627 137.926 
	 57.6103 137.926 59.3565 137.103 60.7534 136.692 62.4996 135.869 
	 62.4996 135.869 62.4996 135.869 62.4996 135.869 "
	 style=" stroke:#000000; stroke-width:1; fill:#ffffff; fill-opacity:100%"></polygon>
	<polygon points="53.4973 117.122 46.4054 118.38 46.4054 120.057 
	 46.4054 121.734 46.7599 123.83 47.1144 125.507 47.1144 127.184 
	 47.8239 128.861 48.533 130.957 49.5967 132.215 53.8521 127.603 
	 58.8167 130.538 59.8805 120.476 53.4973 117.122 53.4973 117.122 
	 53.4973 117.122 53.4973 117.122 "
	 style=" stroke:#000000; stroke-width:1; fill:#000000; fill-opacity:100%"></polygon>
	<polygon points="76.3164 143.208 71.0781 140.74 70.3795 139.917 
	 69.6811 139.094 68.6333 137.859 68.2843 136.625 67.9349 134.98 
	 67.5857 133.745 67.2363 132.099 67.2363 130.454 67.2363 128.808 
	 67.2363 127.162 67.5857 125.105 67.9349 123.459 68.2843 121.813 
	 68.9825 120.167 69.6811 118.11 70.7289 116.464 71.4271 115.23 
	 72.4749 113.584 73.5227 112.35 74.5702 111.115 75.6178 109.881 
	 77.0148 108.647 78.0624 108.235 79.4594 107.412 80.8564 107.001 
	 81.9041 106.589 82.9517 106.589 84.3487 106.589 85.3963 107.001 
	 86.4439 107.412 90.2856 109.47 89.9364 108.235 89.587 106.178 
	 88.8887 104.944 87.8409 103.298 86.7933 101.652 85.7457 100.418 
	 84.3487 99.5948 82.9517 98.7719 81.555 98.3605 80.158 97.949 
	 78.4118 97.949 77.0148 98.3605 75.2686 98.7719 73.5227 99.5948 
	 72.1257 100.006 70.3795 101.241 68.9825 102.886 67.2363 104.121 
	 66.1887 105.766 64.4426 107.412 63.0456 109.47 61.998 111.115 
	 60.9504 113.584 60.2518 115.641 59.5534 118.11 58.8548 120.167 
	 58.1564 122.636 58.1564 125.105 57.8073 127.162 57.8073 129.631 
	 58.1564 131.688 58.1564 133.334 58.5059 135.391 59.2042 137.037 
	 59.9028 139.094 60.9504 140.328 61.6488 141.563 63.0456 143.208 
	 64.4426 144.031 65.8396 144.854 67.2363 145.266 68.2843 145.266 
	 69.6811 145.677 70.7289 145.266 72.1257 145.266 73.5227 144.854 
	 74.9196 144.443 76.3164 143.208 76.3164 143.208 76.3164 143.208 76.3164 143.208 "
	 style=" stroke:#000000; stroke-width:1; fill:#ffffff; fill-opacity:100%"></polygon>
	<polygon points="67.6631 124.465 60.5801 125.721 60.5801 126.978 
	 60.2258 128.654 60.2258 130.749 60.5801 132.844 61.2885 134.939 
	 61.6424 136.614 62.3508 138.29 63.7674 139.966 67.6631 134.939 
	 72.9754 137.871 74.392 127.816 67.6631 124.465 67.6631 124.465 
	 67.6631 124.465 67.6631 124.465 "
	 style=" stroke:#000000; stroke-width:1; fill:#000000; fill-opacity:100%"></polygon>
	<polygon points="91.1774 150.962 86.6372 148.493 85.5896 148.082 
	 84.8911 147.67 83.8435 146.847 83.1451 145.613 82.7959 143.967 
	 82.0973 142.733 81.7481 141.498 81.7481 139.441 81.7481 138.207 
	 81.7481 136.561 81.7481 134.503 82.0973 132.857 82.4465 131.211 
	 82.7959 129.565 83.4941 127.508 84.1927 125.862 84.8911 124.216 
	 85.9388 122.571 86.9866 120.924 87.6848 119.69 89.0818 118.456 
	 90.1296 117.633 91.5264 116.398 92.5742 115.575 93.9711 115.164 
	 95.0187 114.341 96.4157 113.929 97.4633 113.929 98.5109 113.929 
	 99.9079 114.341 100.956 114.341 104.797 117.221 104.448 115.575 
	 104.099 113.929 103.051 112.283 102.353 110.637 101.305 109.403 
	 100.257 108.169 98.5109 106.934 97.4633 106.523 95.7171 106.111 
	 94.3201 105.7 92.9233 105.7 91.5264 105.7 89.7804 106.111 
	 88.0342 107.346 86.6372 107.757 84.8911 108.992 83.1451 110.226 
	 81.7481 111.872 80.3513 113.106 78.9543 115.164 77.5574 116.81 
	 76.5096 118.867 75.462 120.924 74.4144 123.393 73.7158 125.451 
	 73.3666 127.92 72.668 130.388 72.3188 132.446 72.3188 134.915 
	 72.3188 136.972 72.3188 139.441 72.668 141.087 73.0174 142.733 
	 73.7158 144.79 74.4144 146.436 75.462 148.082 76.1606 149.316 
	 77.5574 150.551 78.6051 151.785 80.3513 152.608 81.7481 153.02 
	 82.7959 153.02 83.8435 153.02 85.2405 153.02 86.6372 153.02 
	 88.0342 152.608 89.4312 151.785 91.1774 150.962 91.1774 150.962 
	 91.1774 150.962 91.1774 150.962 "
	 style=" stroke:#000000; stroke-width:1; fill:#ffffff; fill-opacity:100%"></polygon>
	<polygon points="81.8086 131.807 74.7376 133.065 74.7376 134.742 
	 74.7376 136.419 74.7376 138.097 75.4445 140.193 75.4445 141.87 
	 76.1518 143.547 76.8588 145.224 77.9193 146.901 82.1621 142.289 
	 88.1724 145.643 89.9403 136 81.8086 131.807 81.8086 131.807 
	 81.8086 131.807 81.8086 131.807 "
	 style=" stroke:#000000; stroke-width:1; fill:#000000; fill-opacity:100%"></polygon>
	<polygon points="106.029 158.71 101.838 156.652 100.791 156.241 
	 100.092 155.829 99.3941 154.595 98.6957 153.361 97.9973 152.126 
	 97.6481 150.481 97.2989 149.246 96.9497 147.601 96.9497 145.955 
	 96.9497 144.309 96.9497 142.663 97.2989 141.017 97.9973 138.96 
	 98.3465 137.314 98.6957 135.668 99.3941 133.611 100.092 131.966 
	 101.14 130.731 102.188 129.085 103.235 127.851 104.283 126.617 
	 105.68 125.382 106.727 124.559 107.775 123.737 109.171 122.914 
	 110.568 122.502 111.616 122.091 113.013 122.091 114.06 122.091 
	 115.108 122.502 116.155 122.502 120.345 124.971 119.996 123.737 
	 119.298 122.091 118.6 120.445 117.552 118.799 116.504 117.565 
	 115.457 116.331 114.409 115.096 112.663 114.273 111.267 113.862 
	 109.87 113.862 108.473 113.45 106.727 113.862 104.981 114.273 
	 103.235 115.096 101.838 115.919 100.092 117.154 98.6957 117.976 
	 97.2989 119.622 95.9021 121.268 94.1562 122.914 93.1086 124.971 
	 91.7118 127.028 91.0134 129.085 89.9661 131.143 89.2675 133.611 
	 88.5693 135.668 87.8707 138.137 87.8707 140.195 87.5215 142.663 
	 87.5215 145.132 87.8707 147.189 87.8707 149.246 88.5693 150.892 
	 88.9183 152.95 89.6167 154.595 90.6643 156.241 91.7118 157.475 
	 92.7594 158.71 94.1562 159.533 95.553 160.355 96.9497 160.767 
	 97.9973 161.178 99.3941 161.178 100.442 161.178 101.838 160.767 
	 103.235 160.355 104.981 159.944 106.029 158.71 106.029 158.71 
	 106.029 158.71 106.029 158.71 "
	 style=" stroke:#000000; stroke-width:1; fill:#ffffff; fill-opacity:100%"></polygon>
	<polygon points="97.3644 139.966 90.6397 141.224 90.2856 142.482 
	 90.2856 143.739 90.2856 145.836 90.6397 147.932 90.9936 149.609 
	 91.7014 151.705 92.7632 153.382 93.8251 155.06 97.7185 150.448 
	 103.736 153.802 104.797 143.739 97.3644 139.966 97.3644 139.966 
	 97.3644 139.966 97.3644 139.966 "
	 style=" stroke:#000000; stroke-width:1; fill:#000000; fill-opacity:100%"></polygon>
	<polygon points="121.578 166.872 117.389 164.814 116.341 164.403 
	 115.294 163.58 114.595 162.758 113.897 161.112 113.199 159.877 
	 112.85 158.231 112.501 156.997 112.501 155.351 112.501 153.705 
	 112.501 152.06 112.501 150.414 112.85 148.357 112.85 146.711 
	 113.548 145.065 114.246 143.419 114.595 141.362 115.643 139.716 
	 116.341 138.482 117.389 136.836 118.785 135.602 119.833 134.367 
	 120.88 133.133 121.927 132.31 123.673 131.487 124.372 130.664 
	 125.768 130.253 127.165 129.841 128.213 129.841 129.609 129.841 
	 130.307 130.253 131.704 130.664 135.894 132.722 135.195 131.487 
	 134.846 129.841 133.799 128.196 133.1 126.55 132.053 124.904 
	 130.656 123.67 129.609 122.847 127.863 122.024 126.467 121.613 
	 125.07 121.201 123.673 121.201 121.927 121.201 120.531 122.024 
	 118.785 122.847 117.04 123.67 115.643 124.904 113.897 126.139 
	 112.501 127.373 111.104 129.018 109.707 130.664 108.311 132.722 
	 107.263 134.779 106.216 136.836 105.168 138.893 104.47 141.362 
	 103.772 143.419 103.423 145.888 103.073 147.945 102.724 150.414 
	 102.724 152.883 103.073 154.94 103.423 156.997 103.772 158.643 
	 104.47 160.289 104.819 162.346 105.867 163.992 106.914 164.814 
	 108.311 166.46 109.358 167.283 110.755 168.106 112.501 168.518 
	 113.548 168.929 114.595 168.929 115.992 168.929 117.04 168.518 
	 118.785 168.106 120.182 167.695 121.578 166.872 121.578 166.872 
	 121.578 166.872 121.578 166.872 "
	 style=" stroke:#000000; stroke-width:1; fill:#ffffff; fill-opacity:100%"></polygon>
	<polygon points="112.909 147.717 105.842 148.975 105.488 150.232 
	 105.488 151.49 105.488 153.586 105.842 155.683 106.195 157.36 
	 106.902 159.456 107.609 161.552 108.669 162.81 112.909 158.617 
	 119.976 161.972 121.036 152.329 112.909 147.717 112.909 147.717 
	 112.909 147.717 112.909 147.717 "
	 style=" stroke:#000000; stroke-width:1; fill:#000000; fill-opacity:100%"></polygon>
	<polygon points="137.471 175.846 133.629 173.789 132.233 172.966 
	 131.534 172.143 130.836 171.32 130.138 170.086 129.439 168.441 
	 129.09 167.206 128.741 165.56 128.392 163.915 128.392 162.68 
	 128.392 161.034 128.741 158.977 128.741 157.331 129.09 155.685 
	 129.439 153.628 130.138 151.571 130.836 150.337 131.534 148.279 
	 132.582 147.045 133.629 145.399 134.677 144.165 135.725 142.931 
	 137.121 142.108 138.169 140.873 139.216 140.05 140.613 139.639 
	 142.01 139.227 143.058 138.816 144.455 138.816 145.502 138.405 
	 146.549 138.816 147.597 139.639 151.787 141.285 151.438 140.05 
	 150.74 138.405 150.041 136.759 148.994 135.113 148.296 133.879 
	 146.899 132.644 145.851 131.822 144.105 130.999 142.709 130.587 
	 141.312 130.176 139.566 130.176 138.169 130.587 136.772 130.999 
	 134.677 131.41 133.28 132.233 131.534 133.467 130.138 134.702 
	 128.741 136.348 127.344 137.582 125.598 139.227 124.55 141.285 
	 123.503 143.342 122.455 145.399 121.408 147.868 120.709 149.925 
	 120.011 152.394 119.662 154.862 119.313 156.92 118.963 158.977 
	 118.963 161.446 119.313 163.503 119.313 165.56 120.011 167.206 
	 120.36 169.263 121.059 170.909 122.106 172.555 123.154 173.789 
	 124.201 175.024 125.598 176.258 126.995 176.669 128.392 177.492 
	 129.439 177.492 130.836 177.492 132.233 177.904 133.28 177.492 
	 135.026 177.081 136.423 176.258 137.471 175.846 137.471 175.846 
	 137.471 175.846 137.471 175.846 "
	 style=" stroke:#000000; stroke-width:1; fill:#ffffff; fill-opacity:100%"></polygon>
	<polygon points="128.711 165.435 152.467 177.904 152.467 176.657 
	 152.467 175.41 152.467 174.163 152.816 172.916 152.816 172.085 
	 153.166 171.254 153.515 170.423 153.515 169.591 129.06 155.875 
	 122.073 157.538 122.073 159.201 122.073 160.863 122.073 162.525 
	 122.423 164.603 122.423 166.266 123.121 167.929 123.82 170.007 
	 124.868 171.669 128.711 165.435 128.711 165.435 128.711 165.435 128.711 165.435 "
	 style=" stroke:#000000; stroke-width:1; fill:#000000; fill-opacity:100%"></polygon>
	<polyline points="39.8404 90.6062 45.5593 98.2549 50.2058 100.805"
	 style=" stroke:#000000; stroke-width:1;"></polyline>
	<polyline points="129.674 135.887 135.239 143.379 160.974 156.283 
	 182.884 155.034"
	 style=" stroke:#000000; stroke-width:1;"></polyline>
	<polyline points="113.435 127.32 119.117 134.925 126.219 139.15"
	 style=" stroke:#000000; stroke-width:1;"></polyline>
	<polyline points="98.2324 119.569 103.923 127.195 110.325 130.583"
	 style=" stroke:#000000; stroke-width:1;"></polyline>
	<polyline points="82.6844 111.819 88.3753 119.444 94.7774 122.833"
	 style=" stroke:#000000; stroke-width:1;"></polyline>
	<polyline points="68.1728 104.476 73.8738 112.112 79.5749 115.082"
	 style=" stroke:#000000; stroke-width:1;"></polyline>
	<polyline points="53.3155 97.1331 59.0164 105.194 64.7176 107.739"
	 style=" stroke:#000000; stroke-width:1;"></polyline>
	<polygon points="202.795 214.991 202.795 187.917 220.538 183.405 
	 220.886 182.174 221.234 180.533 221.581 178.893 221.581 177.252 
	 221.581 175.611 221.581 174.381 221.581 173.15 221.234 171.509 
	 202.795 176.021 202.795 147.717 201.403 147.717 200.36 147.717 
	 198.62 147.717 197.576 148.127 195.837 148.537 194.445 149.358 
	 192.706 150.178 191.662 150.998 191.662 178.483 172.528 182.995 
	 172.18 184.226 171.832 185.866 171.484 187.097 171.484 189.148 
	 171.484 190.379 171.136 192.43 171.136 194.071 171.484 196.122 
	 191.662 190.789 191.662 221.145 193.401 220.324 194.793 219.914 
	 196.533 219.504 197.924 218.683 199.316 217.863 200.36 217.042 
	 201.751 216.222 202.795 214.991 202.795 214.991 202.795 214.991 202.795 214.991 "
	 style=" stroke:#000000; stroke-width:1; fill:#838383; fill-opacity:100%"></polygon>
	<polyline points="197.05 148.533 197.05 174.616 202.924 176.272"
	 style=" stroke:#000000; stroke-width:1;"></polyline>
	<polyline points="216.053 172.601 216.053 180.974 197.05 184.742 
	 202.68 188.51"
	 style=" stroke:#000000; stroke-width:1;"></polyline>
	<polyline points="215.708 180.759 220.545 183.615"
	 style=" stroke:#000000; stroke-width:1;"></polyline>
	<polyline points="197.05 184.431 197.05 212.55 202.924 214.618"
	 style=" stroke:#000000; stroke-width:1;"></polyline>
	<polyline points="197.395 212.17 196.289 213.122 194.815 214.074 
	 193.341 214.55 191.867 215.026"
	 style=" stroke:#000000; stroke-width:1;"></polyline>
	<polyline points="191.867 190.957 188.352 186.878 171.482 190.504"
	 style=" stroke:#000000; stroke-width:1;"></polyline>
      </g>
    </g>
  </symbol>
 </defs>
</svg>
