<?xml version="1.0"?>
<?metis version="3.6"?>
<?metisxml version="1.1"?>
<!DOCTYPE svg  PUBLIC "-//W3C//DTD SVG 1.0//EN"
 "http://www.w3.org/TR/2001/REC-SVG-20010904/DTD/svg10.dtd">

<svg>
 <title>Symbol library: productmodule.svg</title>
 <defs>
  <symbol id="oid1" xml:space="preserve" class="METIS_SYMBOL">
   <title>Untitled</title>
    <g>
      <polygon points="1007.81 1007.81 0 1007.81 0 0 
       1007.81 0 1007.81 1007.81"
       style="stroke:none; fill:#ffffff; fill-opacity:0%"></polygon>
      <polygon points="448.575 203.125 156.336 321.724  148.438 329.631 148.438 669.616  156.336 677.523 
       511.761 859.375  519.66 859.375 859.289 677.523 
        867.188 669.616 867.188 313.818  859.289 305.912 456.473 203.125  448.575 203.125 
       "
       style="stroke:none; fill:#3b2913; fill-opacity:100%"></polygon>
      <polygon points="851.562 321.598  851.562 661.788 
        519.666 843.75  164.062 661.788 
        164.062 337.421  456.447 218.75 
        851.562 321.598 "
       style="stroke:none; fill:#8c683c; fill-opacity:100%"></polygon>
      <polygon points="523.438 843.75 523.438 478.483 843.75 359.375 
       843.75 669.057 523.438 843.75"
       style="stroke:none; fill:#f2d488; fill-opacity:100%"></polygon>
      <polygon points="301.906 0 7.94491 79.9417  0 79.9417  0 87.9364 150.954 343.75 
        166.843 343.75 460.805 223.837  468.75 215.843  468.75 207.849 309.852 7.99366 
        301.906 0 "
       style="stroke:none; fill:#3b2913; fill-opacity:100%"></polygon>
      <polygon points="445.313 207.855  166.715 328.126 
        23.4375 87.5831  302.034 23.438 
        445.313 207.855 "
       style="stroke:none; fill:#d8a461; fill-opacity:100%"></polygon>
      <polygon points="548.391 8.00255 445.312 200.076  445.312 208.08  453.242 208.08 857.625 328.125 
        865.555 320.122 976.562 104.039  976.562 96.0367  968.633 88.0342 556.32 0 
        548.391 8.00255 "
       style="stroke:none; fill:#3b2913; fill-opacity:100%"></polygon>
      <polygon points="953.125 103.732  849.898 312.5 
        468.75 200.086  556.097 23.438 
        953.125 103.732 "
       style="stroke:none; fill:#8c683c; fill-opacity:100%"></polygon>
      <polygon points="984.246 210.938 634.861 323.53  626.921 323.53 507.812 468.292  507.812 484.376 
        515.753 484.376 857.197 355.699   992.187 227.022  992.187 210.938 
        984.246 210.938 "
       style="stroke:none; fill:#3b2913; fill-opacity:100%"></polygon>
      <polygon points="849.571 339.7  546.875 453.125 
        642.463 339.7  953.125 234.375 
        849.571 339.7 "
       style="stroke:none; fill:#d8a461; fill-opacity:100%"></polygon>
      <polygon points="156.25 328.125 515.625 468.75 156.25 328.125 "
       style="stroke:none; fill:#758296; fill-opacity:100%"></polygon>
      <polyline points="156.25 328.125 515.625 468.75"
       style="stroke:none;"></polyline>
      <polygon points="164.394 320.312 515.459 460.115  523.438 468.339   515.459 476.562 
       507.481 476.562 156.416 336.76  148.438 328.536 
         156.416 320.312 164.394 320.312 
       "
       style="stroke:none; fill:#3b2913; fill-opacity:100%"></polygon>
      <polygon points="991.629 507.812  999.721 507.812 
       1007.81 515.862 999.721 733.19  999.721 741.24 
       991.629 741.24 789.341 773.437  781.25 765.387 
        781.25 548.059  781.25 540.009 
       789.341 531.96 991.629 507.812"
       style="stroke:none; fill:#584073; fill-opacity:100%"></polygon>
      <polygon points="984.375 725.694 984.375 531.25 796.875 555.556 
       796.875 750 984.375 725.694"
       style="stroke:none; fill:#a7a1ce; fill-opacity:100%"></polygon>
      <polyline points="984.375 725.694 984.375 531.25 796.875 555.556 
       796.875 750 984.375 725.694"
       style="stroke:none;"></polyline>
      <polygon points="984.375 734.375 984.375 928.571 796.875 960.937 
       796.875 766.741 984.375 734.375"
       style="stroke:none; fill:#a7a1ce; fill-opacity:100%"></polygon>
      <polygon points="594.329 563.447 796.875 531.25  788.774 539.299 788.774 547.349 788.774 555.398 602.43 579.546 
       602.43 772.728 788.774 748.58 788.774 764.678 788.774 772.728 
       586.227 796.875   578.125 788.826 
       578.125 571.496  586.227 563.447 594.329 563.447 
       "
       style="stroke:none; fill:#584073; fill-opacity:100%"></polygon>
      <polygon points="780.672 967.355  788.774 975.446 
       796.875 975.446 586.227 1007.81  578.125 1007.81 
       578.125 999.721 578.125 781.25  586.227 789.341 
        602.43 789.341 602.43 983.538 780.672 959.263 
       780.672 967.355"
       style="stroke:none; fill:#584073; fill-opacity:100%"></polygon>
      <polygon points="991.908 734.627 983.816 734.627 983.816 928.175 
       797.712 960.433 797.712 766.885 789.62 766.885  781.529 758.82  781.529 766.885 773.438 960.433 
         773.438 968.498  781.529 976.562 789.62 976.562 991.908 952.369  1000 944.304 1000 936.24 1000 726.562  1000 734.627 991.908 734.627 "
       style="stroke:none; fill:#584073; fill-opacity:100%"></polygon>
      <polygon points="789.062 765.625 780.91 960.069 601.562 984.375 
       601.562 789.93 789.062 765.625"
       style="stroke:none; fill:#a7a1ce; fill-opacity:100%"></polygon>
      <polygon points="789.062 554.688 789.062 749.133 601.562 773.438 
       601.562 578.993 789.062 554.688"
       style="stroke:none; fill:#a7a1ce; fill-opacity:100%"></polygon>
      <polygon points="762.323 445.312 1000 508.692 588.029 564.15 
       588.029 1007.81 437.5 841.439 445.422 477.002 762.323 445.312"
       style="stroke:none; fill:#584073; fill-opacity:100%"></polygon>
      <polygon points="585.937 571.676 577.636 984.375 453.125 833.581 
       453.125 484.375 585.937 571.676"
       style="stroke:none; fill:#5f5d89; fill-opacity:100%"></polygon>
      <polygon points="762.4 460.938 968.75 503.255 587.798 562.5 
       468.75 486.328 762.4 460.938"
       style="stroke:none; fill:#79709d; fill-opacity:100%"></polygon>
    </g>
  </symbol>
 </defs>
 <use xlink:href="#oid1"/>
</svg>
