<?xml version="1.0"?>
<?metis version="3.1"?>
<?metisxml version="1.0"?>
<!DOCTYPE svg  PUBLIC "-//W3C//DTD SVG August 1999//EN"
 "http://www.w3.org/Graphics/SVG/svg-19990812.dtd">

<svg width="200" height="200">
 <title>Symbol library: program.svg</title>
 <defs>
  <symbol id="oid1" xml:space="preserve" class="METIS_SYMBOL">
   <title>Program</title>
    <g>
      <polygon points="0 0 0 304 16.2963 320 
       880 320 880 16 863.704 0 0 0 
       0 0 0 0 0 0 0 0 
       0 0 0 0 0 0 "
       style=" stroke:#000000; stroke-width:1; fill:#9b9b9b; fill-opacity:100%"></polygon>
      <rect x="0" y="0" width="240" height="304"
       style=" stroke:#000000; stroke-width:1; fill:#ffffa5; fill-opacity:100%"       class="TAG:PictureBackground"></rect>
      <rect x="240" y="0" width="624" height="304"
       style=" stroke:#000000; stroke-width:1; fill:#a5ffa5; fill-opacity:100%"       class="TAG:canvas"></rect>
      <rect x="245.357" y="25.7143" width="569.522" height="231.429"
       style="stroke:none; fill:#878787; fill-opacity:0%"       class="TAG:grid"></rect>
      <g>
	<desc>METIS_TEXT_GROUP</desc>
	<text  x="256" y="15.8"
	 style=" stroke:#000000; stroke-width:1; font-family:sans-serif; font-size:16;"
	 class="TAG:text">text</text>
	<rect x="256" y="0" width="608" height="304"
	 style=" stroke:#000000; stroke-width:1; fill:#ffffff; fill-opacity:0%"></rect>
      </g>
      <polyline points="864 304 880 320"
       style=" stroke:#000000; stroke-width:1;"></polyline>
      <g>
	<polygon points="8 48 8 16 13.283 16 
	 18.5648 16 21.2057 16 23.2812 16.0971 24.9788 16.1941 
	 26.111 16.3877 27.4308 16.8726 28.7519 17.5518 29.8829 18.5214 
	 31.0152 19.5878 31.7695 20.9452 32.3361 22.3999 32.5239 24.0487 
	 32.7128 25.8912 32.7128 27.5394 32.3361 28.9939 31.9584 30.3515 
	 31.2039 31.6126 30.2607 32.7758 29.3173 33.6486 28.3741 34.4241 
	 27.2421 35.006 25.7332 35.3939 23.8466 35.6851 21.5836 35.7822 
	 18.7537 35.8787 16.6782 35.8787 14.6029 35.8787 14.6029 41.9879 
	 14.6029 48 11.3964 48 8 48 8 48 
	 8 48 8 48 8 48 8 48 
	 8 48 8 48 8 48 8 48 8 48 "
	 style=" stroke:#000000; stroke-width:1; fill:#006e00; fill-opacity:100%"></polygon>
	<polygon points="14.5529 21.4136 14.5529 26.0061 14.5529 30.5981 
	 16.2652 30.5981 18.1681 30.5981 19.8804 30.5981 21.2128 30.5001 
	 22.3547 30.3046 23.1157 30.1095 24.2576 29.5231 25.209 28.6439 
	 25.9699 27.3739 26.1603 25.9082 25.9699 24.4427 25.209 23.27 
	 24.828 22.7814 24.2576 22.293 23.1157 21.7072 22.3547 21.6094 
	 21.0223 21.5115 19.5005 21.4136 17.5977 21.4136 16.0759 21.4136 
	 14.5529 21.4136 14.5529 21.4136 14.5529 21.4136 14.5529 21.4136 
	 14.5529 21.4136 14.5529 21.4136 14.5529 21.4136 14.5529 21.4136 
	 14.5529 21.4136 14.5529 21.4136 14.5529 21.4136 "
	 style=" stroke:#000000; stroke-width:1; fill:#ffffa5; fill-opacity:100%"></polygon>
      </g>
      <g>
	<polygon points="36 48 36 16 42.9727 16 
	 49.7557 16 52.205 16 54.2781 16.1941 55.9739 16.3877 
	 57.2933 16.7756 58.4231 17.3576 59.3654 18.0366 60.3075 18.8121 
	 61.0622 19.7819 61.627 20.9452 62.0045 22.2064 62.3806 24.9213 
	 62.192 26.7637 61.8159 28.3155 61.2498 29.7696 60.3075 31.0305 
	 58.9891 32.0003 57.6695 32.8729 55.9739 33.4548 53.9007 33.8427 
	 55.7852 35.2002 57.482 36.5577 58.2356 37.4305 58.9891 38.5943 
	 59.9314 40.0484 61.0622 41.7943 63.1343 44.897 65.0186 48 
	 61.2498 48 57.2933 48 55.0316 44.5093 52.5823 41.0181 
	 51.4515 39.2728 50.5093 37.9154 49.5671 36.9455 49.0022 36.267 
	 48.0599 35.4909 47.6827 35.2002 47.1177 35.006 46.5529 34.8124 
	 45.7982 34.7154 43.9149 34.6183 43.1602 34.6183 42.5954 34.6183 
	 42.5954 48 39.3914 48 36 48 36 48 
	 36 48 36 48 36 48 36 48 
	 36 48 36 48 36 48 36 48 36 48 "
	 style=" stroke:#000000; stroke-width:1; fill:#006e00; fill-opacity:100%"></polygon>
	<polygon points="42.5528 29.5345 45.0211 29.5345 47.3004 29.5345 
	 49.3886 29.5345 51.0986 29.4365 52.2372 29.3386 52.9976 29.2413 
	 53.567 29.0453 54.1363 28.7521 55.0857 27.9689 55.6561 26.8931 
	 55.8452 26.2079 55.8452 25.4255 55.8452 24.6424 55.6561 24.0558 
	 55.0857 22.8814 54.1363 22.0988 52.9976 21.6097 52.4274 21.5117 
	 51.2877 21.4136 49.5786 21.4136 47.6797 21.4136 42.5528 21.4136 
	 42.5528 25.4255 42.5528 29.5345 42.5528 29.5345 42.5528 29.5345 
	 42.5528 29.5345 42.5528 29.5345 42.5528 29.5345 42.5528 29.5345 
	 42.5528 29.5345 42.5528 29.5345 42.5528 29.5345 42.5528 29.5345 "
	 style=" stroke:#000000; stroke-width:1; fill:#ffffa5; fill-opacity:100%"></polygon>
      </g>
      <g>
	<polygon points="68 32.1872 68.1886 29.5674 68.5648 27.1342 
	 69.1293 24.9824 70.071 23.111 71.2014 21.4269 72.5204 19.9297 
	 73.8382 18.7135 75.5332 17.7777 77.2293 17.0294 79.3004 16.4678 
	 81.3726 16.0937 83.6321 16 85.3283 16.0937 87.0232 16.2811 
	 88.5297 16.5616 90.0361 17.0294 91.3553 17.5909 92.6743 18.3393 
	 93.8033 19.1814 94.9333 20.1171 95.8753 21.24 96.8163 22.4563 
	 97.5703 23.7662 98.1353 25.1698 98.7013 26.7602 99.0773 28.3511 
	 99.2653 30.1288 99.2653 32.0003 99.2653 33.8716 99.0773 35.6495 
	 98.7013 37.3335 98.1353 38.924 97.5703 40.3274 96.8163 41.731 
	 95.8753 43.0409 94.7453 44.164 93.8033 45.0998 92.4853 45.8481 
	 91.3553 46.5026 90.0361 47.0642 88.5297 47.4384 87.0232 47.7195 
	 85.3283 47.9063 83.6321 48 81.9372 47.9063 80.2422 47.7195 
	 78.7357 47.4384 77.4168 47.0642 76.0989 46.5026 74.7799 45.8481 
	 73.6496 45.0998 72.5204 44.164 71.39 43.0409 70.6368 41.8247 
	 69.6951 40.4211 69.1293 39.0176 68.5648 37.4272 68.3761 35.7426 
	 68 34.0585 68 32.1872 68 32.1872 68 32.1872 
	 68 32.1872 68 32.1872 68 32.1872 68 32.1872 
	 68 32.1872 68 32.1872 68 32.1872 68 32.1872 "
	 style=" stroke:#000000; stroke-width:1; fill:#006e00; fill-opacity:100%"></polygon>
	<polygon points="74.7393 32.0002 74.9287 34.53 75.3075 36.685 
	 76.0641 38.4654 77.1994 39.9648 78.5231 41.1827 80.2256 42.026 
	 81.928 42.4945 83.6304 42.6821 85.5223 42.4945 87.2259 42.026 
	 88.7391 41.1827 90.0626 39.9648 90.6307 39.3085 91.1983 38.4654 
	 91.5773 37.6221 91.9553 36.685 92.5223 34.4361 92.7123 31.9063 
	 92.7123 30.5946 92.5223 29.3761 92.3333 28.2519 92.1443 27.221 
	 91.1983 25.3469 90.252 23.9419 88.9283 22.8172 87.2259 21.9739 
	 85.5223 21.5053 83.6304 21.3176 81.7397 21.5053 80.0361 21.9739 
	 78.5231 22.8172 77.1994 23.9419 76.6311 24.5975 76.0641 25.4407 
	 75.6853 26.2841 75.3075 27.221 74.9287 29.4699 74.7393 32.0002 
	 74.7393 32.0002 74.7393 32.0002 74.7393 32.0002 74.7393 32.0002 
	 74.7393 32.0002 74.7393 32.0002 74.7393 32.0002 74.7393 32.0002 
	 74.7393 32.0002 74.7393 32.0002 "
	 style=" stroke:#000000; stroke-width:1; fill:#ffffa5; fill-opacity:100%"></polygon>
      </g>
      <polygon points="200 48 200 32 200 16 
       204.87 16 209.741 16 212.726 26.9413 215.553 37.8838 
       218.538 26.9413 221.368 16 231.265 16 231.265 32 
       231.265 48 225.139 48 225.139 35.406 225.139 22.8126 
       221.995 35.406 218.696 48 215.553 48 212.411 48 
       209.269 35.406 206.128 22.8126 206.128 35.406 206.128 48 
       200 48 200 48 200 48 200 48 
       200 48 200 48 200 48 200 48 200 48 "
       style=" stroke:#000000; stroke-width:1; fill:#006e00; fill-opacity:100%"></polygon>
      <polygon points="128.279 36.0366 119.993 36.0166 119.993 32.6677 
       136.163 32.6677 135.781 35.4449 135.265 38.0309 134.393 40.4237 
       133.17 42.5172 131.598 44.2116 129.851 45.6072 127.755 46.7041 
       125.484 47.4013 123.039 47.8996 120.419 48 118.672 47.8996 
       117.1 47.8004 115.528 47.5011 113.956 47.0028 112.733 46.5046 
       111.336 45.8068 110.113 45.0098 109.065 44.1124 107.842 43.0155 
       106.794 41.719 106.096 40.4237 105.222 38.9283 104.349 35.8383 
       104 32.2495 104 30.3555 104.349 28.5608 104.699 26.766 
       105.222 25.1715 106.096 23.6754 106.794 22.3802 107.842 21.0837 
       109.065 19.8876 110.113 18.9908 111.336 18.1926 112.733 17.4948 
       114.131 16.9965 115.703 16.5987 117.275 16.1996 119.022 16.0991 
       120.768 16 123.737 16.1996 126.358 16.6978 128.803 17.5952 
       130.899 18.8911 132.296 20.0871 133.345 21.4828 134.393 23.1771 
       135.265 25.071 131.598 25.8693 128.104 26.5671 127.581 25.371 
       127.056 24.3745 126.183 23.4771 125.309 22.6789 124.262 22.0802 
       123.039 21.6824 121.816 21.3824 120.419 21.2832 118.497 21.4828 
       116.751 21.9811 115.353 22.6789 113.956 23.7758 113.431 24.4736 
       112.908 25.1715 112.558 26.0688 112.209 26.9656 111.86 28.0625 
       111.686 29.2586 111.511 30.4547 111.511 31.8503 111.511 33.246 
       111.686 34.5418 111.86 35.7379 112.034 36.8349 112.384 37.8314 
       112.908 38.7288 113.431 39.4266 113.956 40.1244 115.178 41.2207 
       116.751 42.0177 118.323 42.5172 120.244 42.6164 121.642 42.5172 
       123.039 42.2172 124.087 41.719 125.135 41.0211 126.183 40.1244 
       127.056 39.0275 127.755 37.6318 128.279 36.0366 128.279 36.0366 
       128.279 36.0366 128.279 36.0366 128.279 36.0366 128.279 36.0366 
       128.279 36.0366 128.279 36.0366 128.279 36.0366 "
       style=" stroke:#000000; stroke-width:1; fill:#006e00; fill-opacity:100%"></polygon>
      <g>
	<polygon points="140 48 140 16 146.973 16 
	 153.756 16 156.205 16 158.278 16.1941 159.974 16.3877 
	 161.293 16.7756 162.423 17.3576 163.365 18.0366 164.308 18.8121 
	 165.062 19.7819 165.627 20.9452 166.005 22.2064 166.381 24.9213 
	 166.192 26.7637 165.816 28.3155 165.25 29.7696 164.308 31.0305 
	 162.989 32.0003 161.67 32.8729 159.974 33.4548 157.901 33.8427 
	 159.785 35.2002 161.482 36.5577 162.236 37.4305 162.989 38.5943 
	 163.931 40.0484 165.062 41.7943 167.134 44.897 169.019 48 
	 165.25 48 161.293 48 159.032 44.5093 156.582 41.0181 
	 155.452 39.2728 154.509 37.9154 153.567 36.9455 153.002 36.267 
	 152.06 35.4909 151.683 35.2002 151.118 35.006 150.553 34.8124 
	 149.798 34.7154 147.915 34.6183 147.16 34.6183 146.595 34.6183 
	 146.595 48 143.391 48 140 48 140 48 
	 140 48 140 48 140 48 140 48 
	 140 48 140 48 140 48 140 48 140 48 "
	 style=" stroke:#000000; stroke-width:1; fill:#006e00; fill-opacity:100%"></polygon>
	<polygon points="146.553 29.5345 149.021 29.5345 151.3 29.5345 
	 153.389 29.5345 155.099 29.4365 156.237 29.3386 156.998 29.2413 
	 157.567 29.0453 158.136 28.7521 159.086 27.9689 159.656 26.8931 
	 159.845 26.2079 159.845 25.4255 159.845 24.6424 159.656 24.0558 
	 159.086 22.8814 158.136 22.0988 156.998 21.6097 156.427 21.5117 
	 155.288 21.4136 153.579 21.4136 151.68 21.4136 146.553 21.4136 
	 146.553 25.4255 146.553 29.5345 146.553 29.5345 146.553 29.5345 
	 146.553 29.5345 146.553 29.5345 146.553 29.5345 146.553 29.5345 
	 146.553 29.5345 146.553 29.5345 146.553 29.5345 146.553 29.5345 "
	 style=" stroke:#000000; stroke-width:1; fill:#ffffa5; fill-opacity:100%"></polygon>
      </g>
      <polygon points="196 48 193.459 48 190.776 48 
       189.788 44.4715 188.659 40.8213 183.859 40.8213 179.059 40.8213 
       178.071 44.4715 177.082 48 172 48 176.659 32.0608 
       181.318 16 186.4 16 191.2 32.0608 196 48 
       196 48 196 48 196 48 196 48 
       196 48 196 48 196 48 "
       style=" stroke:#000000; stroke-width:1; fill:#006e00; fill-opacity:100%"></polygon>
      <polygon points="186.596 36 184.876 29.9999 183.298 24 
       181.577 29.9999 180 36 183.298 36 186.596 36 
       186.596 36 186.596 36 186.596 36 186.596 36 
       186.596 36 186.596 36 186.596 36 "
       style=" stroke:#000000; stroke-width:1; fill:#ffffa5; fill-opacity:100%"></polygon>
      <polyline points="4 112 148 112"
       style=" stroke:#000000; stroke-width:1;"></polyline>
      <polyline points="30.0059 138.089 174.006 138.089"
       style=" stroke:#000000; stroke-width:1;"></polyline>
      <polyline points="56.61 164.693 200.61 164.693"
       style=" stroke:#000000; stroke-width:1;"></polyline>
      <polyline points="83.2141 191.297 227.214 191.297"
       style=" stroke:#000000; stroke-width:1;"></polyline>
    </g>
  </symbol>
 </defs>
</svg>
