<?xml version="1.0"?>
<?metis version="3.4"?>
<?metisxml version="1.1"?>
<!DOCTYPE svg  PUBLIC "-//W3C//DTD SVG August 1999//EN"
 "http://www.w3.org/Graphics/SVG/svg-19990812.dtd">

<svg width="200" height="200">
 <title>Symbol library: project1.svg</title>
 <defs>
  <symbol id="oid1" xml:space="preserve" class="METIS_SYMBOL">
   <title>Project</title>
    <g>
      <polygon points="0 0 0 304 16.2963 320 
       880 320 880 16 863.704 0 0 0 
       0 0 0 0 0 0 0 0 
       0 0 0 0 0 0 "
       style=" stroke:#000000; stroke-width:1; fill:#9b9b9b; fill-opacity:100%"       class="TAG:shadow"></polygon>
      <rect x="0" y="0" width="240" height="304"
       style=" stroke:#000000; stroke-width:1; fill:#ffffa5; fill-opacity:100%"       class="TAG:PictureBackground"></rect>
      <rect x="240" y="0" width="624" height="304"
       style=" stroke:#000000; stroke-width:1; fill:#ffffdc; fill-opacity:100%"       class="TAG:canvas"></rect>
      <rect x="245.357" y="25.7143" width="569.522" height="231.429"
       style="stroke:none; fill:#878787; fill-opacity:0%"       class="TAG:grid"></rect>
      <g>
	<desc>METIS_TEXT_GROUP</desc>
	<text  x="256" y="15"
	 style=" stroke:#000000; stroke-width:1; font-family:sans-serif; font-size:16;"
	 class="TAG:text">text</text>
	<rect x="256" y="0" width="608" height="224"
	 style=" stroke:#000000; stroke-width:1; fill:#ffffff; fill-opacity:0%"></rect>
      </g>
      <polyline points="864 304 880 320"
       style=" stroke:#000000; stroke-width:1;"></polyline>
      <g>
	<polyline points="95.7791 90.178 95.7791 272"
	 style=" stroke:#000000; stroke-width:1;"></polyline>
	<polyline points="140.892 90.178 140.892 272"
	 style=" stroke:#000000; stroke-width:1;"></polyline>
	<polyline points="186.004 90.178 186.004 272"
	 style=" stroke:#000000; stroke-width:1;"></polyline>
	<polyline points="50.6666 137.798 140.892 137.798"
	 style=" stroke:#000000; stroke-width:1;"></polyline>
	<polyline points="69.4307 159.985 159.656 159.985"
	 style=" stroke:#000000; stroke-width:1;"></polyline>
	<polyline points="88.2276 181.63 178.452 181.63"
	 style=" stroke:#000000; stroke-width:1;"></polyline>
	<polyline points="107.024 203.276 197.249 203.276"
	 style=" stroke:#000000; stroke-width:1;"></polyline>
	<polyline points="125.821 224.921 216.046 224.921"
	 style=" stroke:#000000; stroke-width:1;"></polyline>
	<g>
	  <polygon points="16 68.7196 16 32.6539 21.283 32.6539 
	   26.5648 32.6539 29.2057 32.6539 31.2812 32.7633 32.9788 32.8727 
	   34.111 33.0909 35.4308 33.6374 36.7519 34.4029 37.8829 35.4957 
	   39.0152 36.6975 39.7695 38.2274 40.3361 39.8669 40.5239 41.7252 
	   40.7128 43.8018 40.7128 45.6594 40.3361 47.2987 39.9584 48.8288 
	   39.2039 50.2501 38.2607 51.5611 37.3173 52.5448 36.3741 53.4188 
	   35.2421 54.0747 33.7332 54.5118 31.8466 54.8401 29.5836 54.9495 
	   26.7537 55.0583 24.6782 55.0583 22.6029 55.0583 22.6029 61.9437 
	   22.6029 68.7196 19.3964 68.7196 16 68.7196 16 68.7196 
	   16 68.7196 16 68.7196 16 68.7196 16 68.7196 
	   16 68.7196 16 68.7196 16 68.7196 16 68.7196 16 68.7196 "
	   style=" stroke:#000000; stroke-width:1; fill:#006e00; fill-opacity:100%"></polygon>
	  <polygon points="22.5529 38.7553 22.5529 43.9313 22.5529 49.1067 
	   24.2652 49.1067 26.1681 49.1067 27.8804 49.1067 29.2128 48.9963 
	   30.3547 48.7759 31.1157 48.5561 32.2576 47.8951 33.209 46.9042 
	   33.9699 45.4729 34.1603 43.821 33.9699 42.1693 33.209 40.8476 
	   32.828 40.2969 32.2576 39.7465 31.1157 39.0862 30.3547 38.976 
	   29.0223 38.8657 27.5005 38.7553 25.5977 38.7553 24.0759 38.7553 
	   22.5529 38.7553 22.5529 38.7553 22.5529 38.7553 22.5529 38.7553 
	   22.5529 38.7553 22.5529 38.7553 22.5529 38.7553 22.5529 38.7553 
	   22.5529 38.7553 22.5529 38.7553 22.5529 38.7553 "
	   style=" stroke:#000000; stroke-width:1; fill:#ffffa5; fill-opacity:100%"></polygon>
	  <polygon points="45.9552 68.7196 45.9552 32.6539 52.9279 32.6539 
	   59.7109 32.6539 62.1602 32.6539 64.2333 32.8727 65.9291 33.0909 
	   67.2485 33.528 68.3783 34.184 69.3206 34.9493 70.2627 35.8233 
	   71.0174 36.9163 71.5822 38.2274 71.9597 39.6488 72.3358 42.7087 
	   72.1472 44.7852 71.7711 46.5341 71.205 48.173 70.2627 49.5941 
	   68.9443 50.6871 67.6247 51.6705 65.9291 52.3264 63.8559 52.7636 
	   65.7404 54.2935 67.4372 55.8235 68.1908 56.8072 68.9443 58.1189 
	   69.8866 59.7577 71.0174 61.7255 73.0895 65.2224 74.9738 68.7196 
	   71.205 68.7196 67.2485 68.7196 64.9868 64.7854 62.5375 60.8506 
	   61.4067 58.8836 60.4645 57.3537 59.5223 56.2606 58.9574 55.4959 
	   58.0151 54.6212 57.6379 54.2935 57.0729 54.0747 56.5081 53.8565 
	   55.7534 53.7471 53.8701 53.6377 53.1154 53.6377 52.5506 53.6377 
	   52.5506 68.7196 49.3466 68.7196 45.9552 68.7196 45.9552 68.7196 
	   45.9552 68.7196 45.9552 68.7196 45.9552 68.7196 45.9552 68.7196 
	   45.9552 68.7196 45.9552 68.7196 45.9552 68.7196 45.9552 68.7196 45.9552 68.7196 "
	   style=" stroke:#000000; stroke-width:1; fill:#006e00; fill-opacity:100%"></polygon>
	  <polygon points="52.508 47.908 54.9763 47.908 57.2556 47.908 
	   59.3438 47.908 61.0538 47.7976 62.1924 47.6872 62.9528 47.5775 
	   63.5222 47.3567 64.0915 47.0262 65.0409 46.1435 65.6113 44.931 
	   65.8004 44.1587 65.8004 43.2769 65.8004 42.3943 65.6113 41.7332 
	   65.0409 40.4096 64.0915 39.5276 62.9528 38.9763 62.3826 38.8659 
	   61.2429 38.7553 59.5338 38.7553 57.6349 38.7553 52.508 38.7553 
	   52.508 43.2769 52.508 47.908 52.508 47.908 52.508 47.908 
	   52.508 47.908 52.508 47.908 52.508 47.908 52.508 47.908 
	   52.508 47.908 52.508 47.908 52.508 47.908 52.508 47.908 "
	   style=" stroke:#000000; stroke-width:1; fill:#ffffa5; fill-opacity:100%"></polygon>
	  <polygon points="77.0337 50.9052 77.2223 47.8455 77.5985 45.0038 
	   78.163 42.4907 79.1047 40.305 80.2351 38.3381 81.5541 36.5896 
	   82.8719 35.1691 84.5669 34.0762 86.263 33.2023 88.3341 32.5464 
	   90.4063 32.1094 92.6658 32 94.362 32.1094 96.0569 32.3283 
	   97.5634 32.6559 99.0698 33.2023 100.389 33.858 101.708 34.7321 
	   102.837 35.7156 103.967 36.8084 104.909 38.1199 105.85 39.5404 
	   106.604 41.0702 107.169 42.7095 107.735 44.567 108.111 46.425 
	   108.299 48.5012 108.299 50.687 108.299 52.8725 108.111 54.9489 
	   107.735 56.9157 107.169 58.7732 106.604 60.4123 105.85 62.0516 
	   104.909 63.5814 103.779 64.8931 102.837 65.986 101.519 66.86 
	   100.389 67.6244 99.0698 68.2803 97.5634 68.7173 96.0569 69.0456 
	   94.362 69.2638 92.6658 69.3732 90.9709 69.2638 89.2759 69.0456 
	   87.7694 68.7173 86.4505 68.2803 85.1326 67.6244 83.8136 66.86 
	   82.6833 65.986 81.5541 64.8931 80.4237 63.5814 79.6705 62.161 
	   78.7288 60.5217 78.163 58.8826 77.5985 57.0251 77.4098 55.0576 
	   77.0337 53.0907 77.0337 50.9052 77.0337 50.9052 77.0337 50.9052 
	   77.0337 50.9052 77.0337 50.9052 77.0337 50.9052 77.0337 50.9052 
	   77.0337 50.9052 77.0337 50.9052 77.0337 50.9052 77.0337 50.9052 "
	   style=" stroke:#000000; stroke-width:1; fill:#006e00; fill-opacity:100%"></polygon>
	  <polygon points="83.773 50.6868 83.9624 53.6414 84.3412 56.1583 
	   85.0978 58.2376 86.2331 59.9888 87.5568 61.4112 89.2593 62.3961 
	   90.9617 62.9432 92.6641 63.1623 94.556 62.9432 96.2596 62.3961 
	   97.7728 61.4112 99.0963 59.9888 99.6644 59.2223 100.232 58.2376 
	   100.611 57.2527 100.989 56.1583 101.556 53.5318 101.746 50.5772 
	   101.746 49.0452 101.556 47.6221 101.367 46.3091 101.178 45.1051 
	   100.232 42.9164 99.2857 41.2754 97.962 39.9619 96.2596 38.977 
	   94.556 38.4297 92.6641 38.2105 90.7734 38.4297 89.0698 38.977 
	   87.5568 39.9619 86.2331 41.2754 85.6648 42.0411 85.0978 43.0259 
	   84.719 44.0109 84.3412 45.1051 83.9624 47.7317 83.773 50.6868 
	   83.773 50.6868 83.773 50.6868 83.773 50.6868 83.773 50.6868 
	   83.773 50.6868 83.773 50.6868 83.773 50.6868 83.773 50.6868 
	   83.773 50.6868 83.773 50.6868 "
	   style=" stroke:#000000; stroke-width:1; fill:#ffffa5; fill-opacity:100%"></polygon>
	  <polygon points="125.091 32.6539 128.302 32.6539 131.514 32.6539 
	   131.514 44.0193 131.514 55.4946 131.514 58.1174 131.325 60.3025 
	   130.947 62.1607 130.38 63.6908 129.814 65.0019 128.869 66.0948 
	   127.924 67.0782 126.791 67.8435 125.469 68.4994 123.957 68.9364 
	   122.445 69.264 120.745 69.3734 118.668 69.1552 116.589 68.6088 
	   114.889 67.7341 113.377 66.423 112.244 64.7837 111.488 62.7071 
	   110.922 60.3025 110.732 57.571 113.944 57.2427 116.967 56.8057 
	   116.967 58.2262 117.156 59.5379 117.534 60.5214 117.911 61.2866 
	   118.478 62.0513 119.234 62.7071 119.989 63.035 120.934 63.1442 
	   121.879 63.035 122.824 62.8165 123.39 62.3789 123.957 61.8324 
	   124.524 60.9584 124.902 59.7561 125.091 58.008 125.091 55.9317 
	   125.091 32.6539 125.091 32.6539 125.091 32.6539 125.091 32.6539 
	   125.091 32.6539 125.091 32.6539 125.091 32.6539 125.091 32.6539 
	   125.091 32.6539 125.091 32.6539 "
	   style=" stroke:#000000; stroke-width:1; fill:#006e00; fill-opacity:100%"></polygon>
	  <polygon points="138.253 68.7196 138.253 32.6539 150.327 32.6539 
	   162.213 32.6539 162.213 35.7139 162.213 38.7741 153.535 38.7741 
	   144.856 38.7741 144.856 42.7087 144.856 46.7523 152.969 46.7523 
	   161.082 46.7523 161.082 49.8123 161.082 52.7636 152.969 52.7636 
	   144.856 52.7636 144.856 62.5996 153.913 62.5996 162.78 62.5996 
	   162.78 65.6595 162.78 68.7196 150.516 68.7196 138.253 68.7196 
	   138.253 68.7196 138.253 68.7196 138.253 68.7196 138.253 68.7196 
	   138.253 68.7196 138.253 68.7196 138.253 68.7196 138.253 68.7196 138.253 68.7196 "
	   style=" stroke:#000000; stroke-width:1; fill:#006e00; fill-opacity:100%"></polygon>
	  <polygon points="188.949 55.4953 192.152 56.5874 195.168 57.6803 
	   194.415 60.5217 193.284 62.9256 191.776 64.8931 190.267 66.5324 
	   188.382 67.7339 186.497 68.6086 184.236 69.155 181.787 69.3732 
	   180.278 69.2638 178.77 69.0456 177.451 68.7173 176.133 68.2803 
	   174.811 67.6244 173.681 66.86 172.552 65.986 171.608 64.8931 
	   169.724 62.0516 168.217 58.7732 167.65 57.0251 167.461 55.167 
	   167.085 53.0907 167.085 51.0146 167.085 48.7194 167.461 46.6432 
	   167.65 44.567 168.217 42.7095 168.782 40.9609 169.724 39.3216 
	   170.478 37.9011 171.608 36.4808 172.739 35.4974 173.681 34.5133 
	   175 33.7486 176.322 33.0929 177.639 32.6559 179.147 32.3283 
	   180.655 32.1094 182.164 32 184.801 32.2188 187.253 32.8747 
	   188.382 33.3116 189.514 33.858 190.456 34.6227 191.399 35.3879 
	   192.529 36.8084 193.66 38.4475 194.415 40.4145 195.168 42.6001 
	   191.963 43.4742 188.76 44.2394 188.382 42.9277 187.817 41.7261 
	   187.064 40.6333 186.309 39.7586 185.368 39.1034 184.236 38.6664 
	   183.106 38.3381 181.787 38.2287 180.09 38.4475 178.581 38.994 
	   177.263 39.868 175.944 41.0702 175.566 41.8355 175 42.7095 
	   174.624 43.8024 174.248 44.8951 174.059 46.0967 173.87 47.5179 
	   173.681 48.9382 173.681 50.5775 173.681 52.2167 173.87 53.7466 
	   174.059 55.0576 174.248 56.3692 174.624 57.5715 175 58.555 
	   175.378 59.429 175.944 60.1941 177.075 61.5052 178.581 62.3792 
	   180.09 62.9256 181.787 63.1445 183.106 63.0351 184.236 62.7075 
	   185.179 62.0516 186.121 61.287 187.064 60.1941 187.817 58.8826 
	   188.382 57.3527 188.949 55.4953 188.949 55.4953 188.949 55.4953 
	   188.949 55.4953 188.949 55.4953 188.949 55.4953 188.949 55.4953 
	   188.949 55.4953 188.949 55.4953 188.949 55.4953 "
	   style=" stroke:#000000; stroke-width:1; fill:#006e00; fill-opacity:100%"></polygon>
	  <polygon points="207.78 68.7196 207.78 53.7471 207.78 38.7741 
	   203.066 38.7741 198.351 38.7741 198.351 35.7139 198.351 32.6539 
	   211.175 32.6539 224 32.6539 224 35.7139 224 38.7741 
	   214.381 38.7741 214.381 53.7471 214.381 68.7196 211.175 68.7196 
	   207.78 68.7196 207.78 68.7196 207.78 68.7196 207.78 68.7196 
	   207.78 68.7196 207.78 68.7196 207.78 68.7196 207.78 68.7196 
	   207.78 68.7196 207.78 68.7196 "
	   style=" stroke:#000000; stroke-width:1; fill:#006e00; fill-opacity:100%"></polygon>
	</g>
      </g>
      <rect x="240" y="224" width="624" height="79.7079"
       style=" stroke:#000000; stroke-width:1; fill:#dcdcdc; fill-opacity:100%"></rect>
      <g>
	<desc>METIS_TEXT_GROUP</desc>
	<text  x="256" y="236"
	 style=" stroke:#000000; stroke-width:1; font-family:sans-serif; font-size:13;"
	 class="TAG:strat_value">strat_value</text>
	<rect x="256" y="224" width="608" height="80"
	 style=" stroke:#000000; stroke-width:1; fill:#ffffff; fill-opacity:0%"></rect>
      </g>
    </g>
  </symbol>
 </defs>
</svg>
