<?xml version="1.0" encoding="UTF-8" standalone="no"?>
<svg xmlns:rdf="http://www.w3.org/1999/02/22-rdf-syntax-ns#" xmlns="http://www.w3.org/2000/svg" version="1.1" xml:space="preserve" height="219px" viewBox="21.152 45.375 219 219" width="219px" enable-background="new 21.152 45.375 219 219" y="0px" x="0px" xmlns:cc="http://creativecommons.org/ns#" xmlns:dc="http://purl.org/dc/elements/1.1/"><defs><filter id="filter3788"><feGaussianBlur stdDeviation="1.9925979"/></filter></defs><metadata><rdf:RDF><cc:Work rdf:about=""><dc:format>image/svg+xml</dc:format><dc:type rdf:resource="http://purl.org/dc/dcmitype/StillImage"/><dc:title/></cc:Work></rdf:RDF></metadata><path d="m194.3,233.3-156.9,0c-4.163,0-7.519-3.541-7.519-7.934v-142.7c0-4.394,3.356-7.932,7.519-7.932l188,0.0024c3.905,0,7.137,3.127,7.518,7.137l0.6284,141s1.149,10.32-7.692,10.32l-31.48,0.1155z" fill-opacity="0.50196078" filter="url(#filter3788)" fill="#000"/><path stroke="#5f6062" stroke-width="2.31126022" fill="#f2f2f2" d="m190.3,229.3-156.9,0c-4.163,0-7.519-3.541-7.519-7.934v-142.7c0-4.394,3.356-7.932,7.519-7.932l188,0.0024c3.905,0,7.137,3.127,7.518,7.137l0.6284,141s1.149,10.32-7.692,10.32l-31.48,0.1155z"/><line stroke-width="0.5778" x1="215.8" y1="113.4" stroke="#5f6062" x2="41.76" y2="113.5" fill="#e6e7e8"/><line stroke-width="0.5778" x1="215.5" y1="130" stroke="#5f6062" x2="41.5" y2="130.1" fill="#e6e7e8"/><line stroke-width="0.5778" x1="215.6" y1="146.9" stroke="#5f6062" x2="41.56" y2="147.1" fill="#e6e7e8"/><line stroke-width="0.5778" x1="215.7" y1="164.5" stroke="#5f6062" x2="41.7" y2="164.7" fill="#e6e7e8"/><line stroke-width="0.5778" x1="215.8" y1="181.4" stroke="#5f6062" x2="41.76" y2="181.6" fill="#e6e7e8"/><line stroke-width="0.5778" x1="215.5" y1="198.1" stroke="#5f6062" x2="41.5" y2="198.2" fill="#e6e7e8"/><line stroke-width="1.5" x1="97.4" y1="127.1" stroke="#ee3424" stroke-dasharray="none" x2="97.4" stroke-miterlimit="4" y2="152.5" fill="none"/><line stroke-width="1.5" x1="171" y1="171.4" stroke="#ee3424" stroke-dasharray="none" x2="170.9" stroke-miterlimit="4" y2="185.8" fill="none"/><rect height="12.02" width="46.33" y="115.8" x="52.57" fill="#5191cd"/><rect height="12.01" width="24.05" y="132.5" x="52.66" fill="#5191cd"/><rect height="12.02" width="56.58" y="149.6" x="95.93" fill="#5191cd"/><rect height="12.01" width="46.33" y="166.8" x="126" fill="#5191cd"/><rect height="12.01" width="45.97" y="183.6" x="169.5" fill="#5191cd"/><rect height="12.02" width="20.51" y="132.5" x="195" fill="#5191cd"/><rect height="14.09" width="171.1" y="80.25" x="44.34" fill="#d59f0f"/><polyline transform="matrix(1.1103111,0,0,1.2027989,-15.217773,-31.691276)" stroke="#5f6062" points="55.16,110,55.16,205.3,207.5,205.4" stroke-width="3" fill="none"/><line stroke-width="0.5778" x1="62.71" y1="211.3" stroke="#5f6062" x2="62.71" y2="219.4" fill="none"/><line stroke-width="0.5778" x1="82.05" y1="211.4" stroke="#5f6062" x2="82.05" y2="219.5" fill="none"/><line stroke-width="0.5778" x1="101.4" y1="211.3" stroke="#5f6062" x2="101.4" y2="219.4" fill="none"/><line stroke-width="0.5778" x1="120.9" y1="211.4" stroke="#5f6062" x2="120.9" y2="219.5" fill="none"/><line stroke-width="0.5778" x1="140.8" y1="211.4" stroke="#5f6062" x2="140.8" y2="219.5" fill="none"/><line stroke-width="0.5778" x1="160.2" y1="211.5" stroke="#5f6062" x2="160.2" y2="219.6" fill="none"/><line stroke-width="0.5778" x1="179.5" y1="211.4" stroke="#5f6062" x2="179.5" y2="219.5" fill="none"/><line stroke-width="0.5778" x1="199" y1="211.5" stroke="#5f6062" x2="199" y2="219.6" fill="none"/>
</svg>
