<?xml version="1.0" encoding="UTF-8" standalone="no"?>

<svg
 xmlns:dc="http://purl.org/dc/elements/1.1/"
   xmlns:cc="http://creativecommons.org/ns#"
   xmlns:rdf="http://www.w3.org/1999/02/22-rdf-syntax-ns#"
   xmlns:svg="http://www.w3.org/2000/svg"
   xmlns="http://www.w3.org/2000/svg"
   xmlns:xlink="http://www.w3.org/1999/xlink"
   xmlns:sodipodi="http://sodipodi.sourceforge.net/DTD/sodipodi-0.dtd"
   xmlns:inkscape="http://www.inkscape.org/namespaces/inkscape"
   id="svg2"
   version="1.1"
   inkscape:version="0.47 r22583"
   width="100"
   height="100"
   sodipodi:docname="pushpin.svg">
  <metadata
     id="metadata52">
    <rdf:RDF>
      <cc:Work
         rdf:about="">
        <dc:format>image/svg+xml</dc:format>
        <dc:type
           rdf:resource="http://purl.org/dc/dcmitype/StillImage" />
      </cc:Work>
    </rdf:RDF>
  </metadata>
  <defs
     id="defs50">
    <linearGradient
       inkscape:collect="always"
       id="linearGradient3648">
      <stop
         style="stop-color:#bbbbbb;stop-opacity:1;"
         offset="0"
         id="stop3650" />
      <stop
         style="stop-color:#bbbbbb;stop-opacity:0;"
         offset="1"
         id="stop3652" />
    </linearGradient>
    <linearGradient
       inkscape:collect="always"
       id="linearGradient3632">
      <stop
         style="stop-color:#b8950c;stop-opacity:1;"
         offset="0"
         id="stop3634" />
      <stop
         style="stop-color:#b8950c;stop-opacity:0;"
         offset="1"
         id="stop3636" />
    </linearGradient>
    <inkscape:perspective
       sodipodi:type="inkscape:persp3d"
       inkscape:vp_x="0 : 0.5 : 1"
       inkscape:vp_y="0 : 1000 : 0"
       inkscape:vp_z="1 : 0.5 : 1"
       inkscape:persp3d-origin="0.5 : 0.33333333 : 1"
       id="perspective54" />
    <linearGradient
       inkscape:collect="always"
       xlink:href="#linearGradient3632"
       id="linearGradient3638"
       x1="62.5"
       y1="167.96899"
       x2="414.06201"
       y2="167.96899"
       gradientUnits="userSpaceOnUse" />
    <linearGradient
       inkscape:collect="always"
       xlink:href="#linearGradient3648"
       id="linearGradient3654"
       x1="718.75"
       y1="832.03101"
       x2="914.06201"
       y2="832.03101"
       gradientUnits="userSpaceOnUse" />
  </defs>
  <sodipodi:namedview
     pagecolor="#ffffff"
     bordercolor="#666666"
     borderopacity="1"
     objecttolerance="10"
     gridtolerance="10"
     guidetolerance="10"
     inkscape:pageopacity="0"
     inkscape:pageshadow="2"
     inkscape:window-width="1280"
     inkscape:window-height="962"
     id="namedview48"
     showgrid="false"
     inkscape:zoom="0.31714785"
     inkscape:cx="0.70387704"
     inkscape:cy="591.32625"
     inkscape:window-x="-8"
     inkscape:window-y="-8"
     inkscape:window-maximized="1"
     inkscape:current-layer="svg2" />
  <title
     id="title4">Symbol library: pushpin.svg</title>
  <polygon
     points="0,1007.81 0,0 1007.81,0 1007.81,1007.81 1007.81,1007.81 "
     style="fill:#ffffff;fill-opacity:0;stroke:none"
     id="polygon6"
     transform="matrix(0.09922505,0,0,0.09922505,0,2.4414062e-6)" />
  <polygon
     points="743.527,718.967 743.527,718.967 695.312,751.085 960.491,1000 976.562,983.941 751.562,710.938 "
     style="fill:#000000;fill-opacity:1;stroke:none"
     id="polygon8"
     transform="matrix(0.09922505,0,0,0.09922505,0,2.4414062e-6)" />
  <polygon
     points="751.302,734.375 751.302,734.375 914.062,929.687 718.75,758.788 "
     style="fill:url(#linearGradient3654);fill-opacity:1;stroke:none"
     id="polygon10"
     transform="matrix(0.09922505,0,0,0.09922505,0,2.4414062e-6)" />
  <polygon
     points="478.997,851.563 534.395,851.563 589.793,843.639 653.105,819.867 708.502,796.094 763.899,756.474 811.384,701.004 858.867,637.611 882.609,574.218 890.523,510.826 898.437,494.978 890.523,455.357 882.609,423.661 866.781,391.964 843.04,360.268 803.47,328.571 755.986,304.8 708.502,296.875 653.105,296.875 589.793,304.8 534.395,328.571 478.997,360.268 423.6,399.889 423.6,399.889 368.203,455.357 328.632,518.75 304.891,582.143 289.062,645.536 296.976,685.157 304.891,724.777 320.718,764.397 344.46,788.17 384.029,819.867 431.514,843.639 "
     style="fill:#000000;fill-opacity:1;stroke:none"
     id="polygon12"
     transform="matrix(0.09922505,0,0,0.09922505,0,2.4414062e-6)" />
  <polygon
     points="597.764,320.43 645.29,312.5 700.737,312.5 748.264,320.43 795.789,344.224 827.473,368.017 851.236,399.74 867.078,431.464 875,463.187 875,502.841 867.078,566.288 843.316,629.735 803.71,685.252 748.264,740.767 700.737,780.422 645.29,804.214 589.844,828.007 534.396,835.938 486.87,835.938 431.424,828.007 391.818,812.146 352.213,780.422 352.213,780.422 336.372,756.629 320.529,716.975 312.608,685.252 304.688,645.597 320.529,582.15 344.292,518.703 383.897,463.187 431.424,407.671 486.87,375.947 542.317,344.224 "
     style="fill:#ffce00;fill-opacity:1;stroke:none"
     class="TAG:grid"
     id="polygon14"
     transform="matrix(0.09922505,0,0,0.09922505,0,2.4414062e-6)" />
  <polygon
     points="765.625,757.813 765.625,757.813 757.812,750 "
     style="fill:#000000;fill-opacity:1;stroke:none"
     id="polygon16"
     transform="matrix(0.09922505,0,0,0.09922505,0,2.4414062e-6)" />
  <polygon
     points="663.935,466.102 671.875,434.322 671.875,418.431 441.599,156.25 441.599,164.194 441.599,164.194 187.5,354.872 409.836,617.055 417.776,617.055 433.659,625 473.361,617.055 528.946,601.165 560.708,585.275 592.47,569.385 616.291,537.606 640.113,513.77 "
     style="fill:#000000;fill-opacity:1;stroke:none"
     id="polygon18"
     transform="matrix(0.09922505,0,0,0.09922505,0,2.4414062e-6)" />
  <polygon
     points="210.938,354.745 441.545,179.688 441.545,179.688 656.25,426.361 656.25,434.319 656.25,450.232 640.345,482.061 624.442,513.89 584.681,553.676 521.065,585.505 473.353,601.419 441.545,609.376 417.689,601.419 "
     style="fill:#ffce00;fill-opacity:1;stroke:none"
     class="TAG:grid"
     id="polygon20"
     transform="matrix(0.09922505,0,0,0.09922505,0,2.4414062e-6)" />
  <polygon
     points="126.352,374.831 150.241,382.813 174.128,382.813 213.942,374.831 245.793,366.848 285.606,350.884 317.457,334.919 357.27,302.99 405.048,263.077 436.899,215.184 460.786,175.272 468.75,135.36 468.75,127.378 468.75,95.4485 452.823,71.5009 436.899,55.5373 413.01,23.6079 389.121,15.625 365.234,15.625 341.346,23.6079 317.457,39.5715 261.718,79.4838 205.979,119.396 205.979,119.396 190.054,127.378 142.277,167.289 102.463,215.184 70.6129,255.095 54.6875,271.06 54.6875,295.007 54.6875,302.99 70.6129,318.954 94.5011,342.902 102.463,358.865 "
     style="fill:#000000;fill-opacity:1;stroke:none"
     id="polygon22"
     transform="matrix(0.09922505,0,0,0.09922505,0,2.4414062e-6)" />
  <polygon
     points="365.397,31.25 381.348,31.25 397.298,39.248 429.199,71.2421 437.175,79.2411 453.125,103.236 453.125,127.232 445.15,167.224 421.223,215.217 389.322,255.209 349.447,295.201 277.67,335.194 213.868,359.189 181.967,367.188 158.04,367.188 134.114,359.189 118.165,343.193 118.165,343.193 102.213,335.194 86.263,311.199 70.3125,295.201 70.3125,279.205 86.263,255.209 110.189,223.215 205.892,143.229 213.868,135.23 261.718,95.2382 317.546,55.2461 "
     style="fill:#ffce00;fill-opacity:1;stroke:none"
     class="TAG:grid"
     id="polygon24"
     transform="matrix(0.09922505,0,0,0.09922505,0,2.4414062e-6)" />
  <polygon
     points="359.375,304.688 359.375,304.688 351.562,296.875 "
     style="fill:#000000;fill-opacity:1;stroke:none"
     id="polygon26"
     transform="matrix(0.09922505,0,0,0.09922505,0,2.4414062e-6)" />
  <polygon
     points="206.38,319.941 246.257,303.944 286.132,287.947 318.034,255.953 365.885,215.961 397.786,175.968 421.711,127.976 429.687,87.9843 429.687,79.9852 429.687,47.9911 413.736,23.9961 397.786,7.99801 365.885,0 341.96,0 310.059,7.99801 270.182,15.997 230.305,31.9941 198.404,47.9911 158.529,79.9852 158.529,79.9852 118.653,119.978 78.776,167.968 54.8503,207.962 46.875,247.955 46.875,287.947 62.8255,311.943 86.7512,327.939 110.677,335.938 142.578,335.938 174.479,335.938 "
     style="fill:#000000;fill-opacity:1;stroke:none"
     id="polygon28"
     transform="matrix(0.09922505,0,0,0.09922505,0,2.4414062e-6)" />
  <polygon
     points="382.102,23.6436 406.072,39.6788 414.062,55.716 414.062,87.7885 406.072,119.861 382.102,167.968 350.142,208.06 310.192,248.151 238.281,288.241 174.361,312.295 142.4,320.313 118.431,320.313 94.4602,312.295 78.4801,296.258 78.4801,296.258 62.5,280.223 62.5,256.168 70.49,216.078 94.4602,167.968 126.42,127.878 166.37,87.7885 238.281,47.6974 302.201,23.6436 334.162,15.625 366.122,15.625 "
     style="fill:url(#linearGradient3638);fill-opacity:1;stroke:none"
     id="polygon30"
     transform="matrix(0.09922505,0,0,0.09922505,0,2.4414062e-6)" />
  <polygon
     points="320.313,257.813 320.313,257.813 312.5,250 "
     style="fill:#000000;fill-opacity:1;stroke:none"
     id="polygon32"
     transform="matrix(0.09922505,0,0,0.09922505,0,2.4414062e-6)" />
  <polygon
     points="807.529,625 833.097,592.105 867.188,534.539 867.188,509.868 867.188,509.868 850.142,476.973 841.62,468.75 816.051,468.75 790.482,476.973 773.438,493.421 773.438,509.868 773.438,526.316 773.438,575.657 773.438,600.329 790.482,616.776 "
     style="fill:#ffe36e;fill-opacity:1;stroke:none"
     id="polygon34"
     transform="matrix(0.09922505,0,0,0.09922505,0,2.4414062e-6)" />
  <polygon
     points="446.12,195.312 421.875,227.455 640.085,476.562 656.25,436.384 656.25,436.384 "
     style="fill:#ffe36e;fill-opacity:1;stroke:none"
     id="polygon36"
     transform="matrix(0.09922505,0,0,0.09922505,0,2.4414062e-6)" />
  <polygon
     points="423.828,93.75 414.062,153.409 433.594,187.5 453.125,136.363 453.125,136.363 "
     style="fill:#ffe36e;fill-opacity:1;stroke:none"
     id="polygon38"
     transform="matrix(0.09922505,0,0,0.09922505,0,2.4414062e-6)" />
  <polygon
     points="448.807,619.358 416.735,619.358 400.7,603.298 376.645,579.21 344.572,539.062 336.555,555.122 320.518,595.269 312.5,651.476 320.518,683.594 328.536,715.712 344.572,739.8 360.609,763.888 400.7,796.006 440.79,820.095 488.898,828.124 528.989,820.095 569.079,812.066 617.188,796.006 617.188,796.006 601.152,787.977 569.079,771.918 528.989,739.8 512.952,715.712 504.935,691.623 512.952,643.446 520.971,619.358 537.007,603.298 545.025,595.269 488.898,611.328 "
     style="fill:#b8950c;fill-opacity:1;stroke:none"
     id="polygon40"
     transform="matrix(0.09922505,0,0,0.09922505,0,2.4414062e-6)" />
  <polygon
     points="263.021,298.438 287.575,281.25 320.313,307.032 295.759,324.218 246.653,350 189.36,367.188 164.806,367.188 148.438,341.407 222.098,315.625 222.098,315.625 "
     style="fill:#b8950c;fill-opacity:1;stroke:none"
     id="polygon42"
     transform="matrix(0.09922505,0,0,0.09922505,0,2.4414062e-6)" />
  <polygon
     points="250,360.322 443.015,593.75 523.438,577.651 306.297,328.125 306.297,328.125 "
     style="fill:#b8950c;fill-opacity:1;stroke:none"
     id="polygon44"
     transform="matrix(0.09922505,0,0,0.09922505,0,2.4414062e-6)" />
  <use
     href="#oid1"
     id="use46"
     x="0"
     y="0"
     width="744.09448"
     height="1052.3622"
     transform="translate(0,-907.81)" />
</svg>
