<?xml version="1.0"?>
<?metis version="3.1"?>
<?metisxml version="1.0"?>
<!DOCTYPE svg  PUBLIC "-//W3C//DTD SVG August 1999//EN"
 "http://www.w3.org/Graphics/SVG/svg-19990812.dtd">

<svg width="200" height="200">
 <title>Symbol library: qpr_symbol.svg</title>
 <defs>
  <symbol id="oid1" xml:space="preserve" class="METIS_SYMBOL">
   <title>QPR Open</title>
    <polygon points="0 24 0 256 192 256 
     192 0 24 0 0 24 "
     style=" stroke:#000000; stroke-width:1; fill:#b9b9b9; fill-opacity:100%"></polygon>
    <polyline points="0 24 24 24 24 0"
     style=" stroke:#000000; stroke-width:1;"></polyline>
  </symbol>
  <symbol id="oid0" xml:space="preserve" class="METIS_SYMBOL">
   <title>QPR Closed</title>
    <polygon points="0 24 0 256 192 256 
     192 0 24 0 0 24 "
     style=" stroke:#000000; stroke-width:1; fill:#b9b9b9; fill-opacity:100%"></polygon>
    <polyline points="0 24 24 24 24 0"
     style=" stroke:#000000; stroke-width:1;"></polyline>
    <g>
      <polygon points="56 80 72 88 80 80 
       64 72 56 80 "
       style=" stroke:#000000; stroke-width:1; fill:#ffff00; fill-opacity:100%"></polygon>
      <ellipse  cx="52" cy="64" rx="20" ry="24"
       style=" stroke:#000000; stroke-width:1; fill:#ffff00; fill-opacity:100%"></ellipse>
      <ellipse  cx="52" cy="64" rx="12" ry="16"
       style=" stroke:#000000; stroke-width:1; fill:#b9b9b9; fill-opacity:100%"></ellipse>
      <polygon points="96 88 88 88 88 40 
       112 40 120 48 120 56 112 64 
       96 64 96 88 "
       style=" stroke:#000000; stroke-width:1; fill:#ffff00; fill-opacity:100%"></polygon>
      <polygon points="96 48 96 56 112 56 
       115 53 115 50 112 48 96 48 "
       style=" stroke:#000000; stroke-width:1; fill:#b9b9b9; fill-opacity:100%"></polygon>
      <polygon points="136 88 128 88 128 40 
       152 40 160 48 160 56 152 64 
       144 64 160 88 152 88 136 67 136 88 "
       style=" stroke:#000000; stroke-width:1; fill:#ffff00; fill-opacity:100%"></polygon>
      <polygon points="136 48 136 56 152 56 
       155 53 155 50 152 48 136 48 "
       style=" stroke:#000000; stroke-width:1; fill:#b9b9b9; fill-opacity:100%"></polygon>
    </g>
    <polyline points="32 128 168 128"
     style=" stroke:#000000; stroke-width:1; stroke-dasharray: 2 2;"></polyline>
    <polyline points="32 160 168 160"
     style=" stroke:#000000; stroke-width:1; stroke-dasharray: 2 2;"></polyline>
    <polyline points="32 192 168 192"
     style=" stroke:#000000; stroke-width:1; stroke-dasharray: 2 2;"></polyline>
    <polyline points="32 224 168 224"
     style=" stroke:#000000; stroke-width:1; stroke-dasharray: 2 2;"></polyline>
  </symbol>
 </defs>
</svg>
