<?xml version="1.0"?>
<?metis version="3.0.1"?>
<?metisxml version="1.0"?>
<!DOCTYPE svg  PUBLIC "-//W3C//DTD SVG August 1999//EN"
 "http://www.w3.org/Graphics/SVG/svg-19990812.dtd">

<svg width="200" height="200">
 <title>Symbol library: reader_sorter.svg</title>
 <defs>
  <symbol id="oid0" xml:space="preserve" class="METIS_SYMBOL">
    <polygon points="76.531 0 76.531 0 5.031 15.75 
     0.531 137.5 0.031 212.75 97.031 212.75 147.031 182 
     146.781 133 188.092 133.004 188.078 216 201.031 216 
     232.047 188.961 231.781 132.055 268.055 132.023 268.031 216 
     281.031 216 311.031 189 311.031 98.75 329.032 88 
     329.032 36 161.281 36 161.281 0 76.531 0 "
     style=" stroke:#000000; stroke-width:1; fill:#ffa596; fill-opacity:100%"     class="TAG:polygon"></polygon>
    <polygon points="104.094 109 295.775 109 302.094 48 
     114.094 48 104.094 109 "
     style=" stroke:#000000; stroke-width:1; fill:#ffa596; fill-opacity:100%"     class="TAG:polygon"></polygon>
    <polygon points="0 212.75 97 212.75 96.969 156.188 
     96.969 136.688 103.844 15.75 5 15.875 1.813 101.5 
     0.5 136.875 0.5 142.125 0.313 162.188 0 212.75 "
     style=" stroke:#000000; stroke-width:1; fill:#ffa596; fill-opacity:100%"     class="TAG:polygon"></polygon>
    <polygon points="188.076 216 201.094 216 201.094 109 
     188.094 109 188.076 216 "
     style=" stroke:#000000; stroke-width:1; fill:#ffa596; fill-opacity:100%"     class="TAG:polygon"></polygon>
    <polygon points="268.016 216 281.094 216 281.094 109 
     268.094 109 268.016 216 "
     style=" stroke:#000000; stroke-width:1; fill:#ffa596; fill-opacity:100%"     class="TAG:polygon"></polygon>
    <polyline points="5.344 15.625 76.594 0 162.094 0 
     103.344 16.812"
     style=" stroke:#000000; stroke-width:1;"     class="TAG:polyline"></polyline>
    <polyline points="300.094 48 329.094 36 329.094 88 
     296.094 108"
     style=" stroke:#000000; stroke-width:1;"     class="TAG:polyline"></polyline>
    <polyline points="311.094 100 311.094 100 311.094 189 
     281.078 215.938"
     style=" stroke:#000000; stroke-width:1;"     class="TAG:polyline"></polyline>
    <polyline points="231.781 132.07 232.047 188.969 201.047 215.969"
     style=" stroke:#000000; stroke-width:1;"     class="TAG:polyline"></polyline>
    <polyline points="97 212.75 147 182 146.782 133.125"
     style=" stroke:#000000; stroke-width:1;"     class="TAG:polyline"></polyline>
    <polygon points="118.844 99.3125 284.094 99 289.094 61 
     124.094 61 118.844 99.3125 "
     style=" stroke:#000000; stroke-width:1; fill:#ffa596; fill-opacity:100%"     class="TAG:polygon"></polygon>
    <polyline points="114.094 48 114.094 48 164.094 36 
     329.094 36"
     style=" stroke:#000000; stroke-width:1;"     class="TAG:polyline"></polyline>
    <polyline points="161.344 0.812 161.344 0.812 161.344 37"
     style=" stroke:#000000; stroke-width:1;"     class="TAG:polyline"></polyline>
    <polygon points="119.281 99.0312 121.406 99.0312 126.219 61 
     124.344 61 119.281 99.0312 "
     style=" stroke:#000000; stroke-width:1; fill:#ffa596; fill-opacity:100%"     class="TAG:polygon"></polygon>
    <polyline points="125.219 61 125.219 61 120.344 99"
     style=" stroke:#000000; stroke-width:1;"     class="TAG:polyline"></polyline>
    <polygon points="132.281 99.5312 134.406 99.5312 139.219 61.5 
     137.344 61.5 132.281 99.5312 "
     style=" stroke:#000000; stroke-width:1; fill:#ffa596; fill-opacity:100%"     class="TAG:polygon"></polygon>
    <polyline points="138.219 61.5 138.219 61.5 133.344 99.5"
     style=" stroke:#000000; stroke-width:1;"     class="TAG:polyline"></polyline>
    <polygon points="158.281 99.2812 160.406 99.2812 165.219 61.25 
     163.344 61.25 158.281 99.2812 "
     style=" stroke:#000000; stroke-width:1; fill:#ffa596; fill-opacity:100%"     class="TAG:polygon"></polygon>
    <polyline points="164.219 61.25 164.219 61.25 159.344 99.25"
     style=" stroke:#000000; stroke-width:1;"     class="TAG:polyline"></polyline>
    <polygon points="170.281 99.2812 172.406 99.2812 177.219 61.25 
     175.344 61.25 170.281 99.2812 "
     style=" stroke:#000000; stroke-width:1; fill:#ffa596; fill-opacity:100%"     class="TAG:polygon"></polygon>
    <polyline points="176.219 61.25 176.219 61.25 171.344 99.25"
     style=" stroke:#000000; stroke-width:1;"     class="TAG:polyline"></polyline>
    <polygon points="182.281 99.0312 184.406 99.0312 189.219 61 
     187.344 61 182.281 99.0312 "
     style=" stroke:#000000; stroke-width:1; fill:#ffa596; fill-opacity:100%"     class="TAG:polygon"></polygon>
    <polyline points="188.219 61 188.219 61 183.344 99"
     style=" stroke:#000000; stroke-width:1;"     class="TAG:polyline"></polyline>
    <polygon points="195.281 99.0312 197.406 99.0312 202.219 61 
     200.344 61 195.281 99.0312 "
     style=" stroke:#000000; stroke-width:1; fill:#ffa596; fill-opacity:100%"     class="TAG:polygon"></polygon>
    <polyline points="201.219 61 201.219 61 196.344 99"
     style=" stroke:#000000; stroke-width:1;"     class="TAG:polyline"></polyline>
    <polygon points="207.281 99.2812 209.406 99.2812 214.219 61.25 
     212.344 61.25 207.281 99.2812 "
     style=" stroke:#000000; stroke-width:1; fill:#ffa596; fill-opacity:100%"     class="TAG:polygon"></polygon>
    <polyline points="213.219 61.25 213.219 61.25 208.344 99.25"
     style=" stroke:#000000; stroke-width:1;"     class="TAG:polyline"></polyline>
    <polygon points="219.281 99.0312 221.406 99.0312 226.219 61 
     224.344 61 219.281 99.0312 "
     style=" stroke:#000000; stroke-width:1; fill:#ffa596; fill-opacity:100%"     class="TAG:polygon"></polygon>
    <polyline points="225.219 61 225.219 61 220.344 99"
     style=" stroke:#000000; stroke-width:1;"     class="TAG:polyline"></polyline>
    <polygon points="231.281 99.2812 233.406 99.2812 238.219 61.25 
     236.344 61.25 231.281 99.2812 "
     style=" stroke:#000000; stroke-width:1; fill:#ffa596; fill-opacity:100%"     class="TAG:polygon"></polygon>
    <polyline points="237.219 61.25 237.219 61.25 232.344 99.25"
     style=" stroke:#000000; stroke-width:1;"     class="TAG:polyline"></polyline>
    <polygon points="244.031 98.7812 246.156 98.7812 250.969 60.75 
     249.094 60.75 244.031 98.7812 "
     style=" stroke:#000000; stroke-width:1; fill:#ffa596; fill-opacity:100%"     class="TAG:polygon"></polygon>
    <polyline points="249.969 61 249.969 61 245.094 99"
     style=" stroke:#000000; stroke-width:1;"     class="TAG:polyline"></polyline>
    <polygon points="257.281 99.0312 259.406 99.0312 264.219 61 
     262.344 61 257.281 99.0312 "
     style=" stroke:#000000; stroke-width:1; fill:#ffa596; fill-opacity:100%"     class="TAG:polygon"></polygon>
    <polyline points="263.219 61 263.219 61 258.344 99"
     style=" stroke:#000000; stroke-width:1;"     class="TAG:polyline"></polyline>
    <polygon points="270.281 99.0312 272.406 99.0312 277.219 61 
     275.344 61 270.281 99.0312 "
     style=" stroke:#000000; stroke-width:1; fill:#ffa596; fill-opacity:100%"     class="TAG:polygon"></polygon>
    <polyline points="276.219 61 276.219 61 271.344 99"
     style=" stroke:#000000; stroke-width:1;"     class="TAG:polyline"></polyline>
    <polygon points="283.031 98.7812 285.156 98.7812 289.969 60.75 
     288.094 60.75 283.031 98.7812 "
     style=" stroke:#000000; stroke-width:1; fill:#ffa596; fill-opacity:100%"     class="TAG:polygon"></polygon>
    <polyline points="288.969 60.75 288.969 60.75 284.094 98.75"
     style=" stroke:#000000; stroke-width:1;"     class="TAG:polyline"></polyline>
    <polygon points="145.281 99.2812 147.406 99.2812 152.219 61.25 
     150.344 61.25 145.281 99.2812 "
     style=" stroke:#000000; stroke-width:1; fill:#ffa596; fill-opacity:100%"     class="TAG:polygon"></polygon>
    <polyline points="151.219 62.25 151.219 62.25 146.344 100.25"
     style=" stroke:#000000; stroke-width:1;"     class="TAG:polyline"></polyline>
    <polyline points="127.594 89.6875 130.094 72.9375 281.094 72.9375 
     279.094 89.6875 128.094 89.9375"
     style=" stroke:#000000; stroke-width:1;"     class="TAG:polyline"></polyline>
    <polygon points="173.344 60.156 179.406 60.156 179.656 59.094 
     177.156 59.094 177.531 57.531 176.531 57.531 176.094 59.094 
     173.906 59.094 173.344 60.156 "
     style=" stroke:#000000; stroke-width:1; fill:#ffa596; fill-opacity:100%"     class="TAG:polygon"></polygon>
    <polygon points="233.844 60.156 239.906 60.156 240.156 59.094 
     237.656 59.094 238.031 57.531 237.031 57.531 236.594 59.094 
     234.406 59.094 233.844 60.156 "
     style=" stroke:#000000; stroke-width:1; fill:#ffa596; fill-opacity:100%"     class="TAG:polygon"></polygon>
    <polygon points="267.344 140.813 267.344 140.813 267.344 140.813 
     267.344 140.813 267.344 140.813 "
     style=" stroke:#000000; stroke-width:1; fill:#ffa596; fill-opacity:100%"     class="TAG:polygon"></polygon>
    <polyline points="267.344 132.063 267.344 132.063 221.344 132.063 
     221.344 108.813"
     style=" stroke:#000000; stroke-width:1;"     class="TAG:polyline"></polyline>
    <polyline points="188.053 133.004 146.766 133 136.344 133.063 
     136.344 109.813"
     style=" stroke:#000000; stroke-width:1;"     class="TAG:polyline"></polyline>
    <polyline points="4.344 53.812 4.344 53.812 101.344 53.812"
     style=" stroke:#000000; stroke-width:1;"     class="TAG:polyline"></polyline>
    <polyline points="97.219 155.75 1.344 155.813"
     style=" stroke:#000000; stroke-width:1;"     class="TAG:polyline"></polyline>
    <polyline points="50.844 53.687 50.844 73.7187 51.719 73.7812 
     47.219 136.25 47.219 156.25"
     style=" stroke:#000000; stroke-width:1;"     class="TAG:polyline"></polyline>
    <polyline points="51.344 73.8125 51.344 73.8125 100.344 73.8125"
     style=" stroke:#000000; stroke-width:1;"     class="TAG:polyline"></polyline>
    <polyline points="100.844 81.9375 50.344 97.8125"
     style=" stroke:#000000; stroke-width:1;"     class="TAG:polyline"></polyline>
    <polyline points="99.344 105.938 48.844 122.063"
     style=" stroke:#000000; stroke-width:1;"     class="TAG:polyline"></polyline>
    <polygon points="78.344 165.813 84.344 165.813 84.344 161.813 
     78.344 161.813 78.344 165.813 "
     style=" stroke:#000000; stroke-width:1; fill:#ffa596; fill-opacity:100%"     class="TAG:polygon"></polygon>
    <polygon points="43.344 49.812 53.344 49.812 53.344 46.812 
     43.344 46.812 43.344 49.812 "
     style=" stroke:#000000; stroke-width:1; fill:#ffa596; fill-opacity:100%"     class="TAG:polygon"></polygon>
    <polygon points="70.344 70.8125 85.344 70.8125 85.344 58.812 
     70.344 58.812 70.344 70.8125 "
     style=" stroke:#000000; stroke-width:1; fill:#ffa596; fill-opacity:100%"     class="TAG:polygon"></polygon>
    <polygon points="58.844 60.562 61.844 60.562 61.844 58.562 
     58.844 58.562 58.844 60.562 "
     style=" stroke:#000000; stroke-width:1; fill:#ffa596; fill-opacity:100%"     class="TAG:polygon"></polygon>
    <polygon points="58.844 70.0625 61.844 70.0625 61.844 68.0625 
     58.844 68.0625 58.844 70.0625 "
     style=" stroke:#000000; stroke-width:1; fill:#ffa596; fill-opacity:100%"     class="TAG:polygon"></polygon>
    <polyline points="100.344 83.8125 100.344 83.8125 49.344 99.8125"
     style=" stroke:#000000; stroke-width:1;"     class="TAG:polyline"></polyline>
    <polyline points="100.094 89.8125 100.094 89.8125 49.594 106.188"
     style=" stroke:#000000; stroke-width:1;"     class="TAG:polyline"></polyline>
    <polyline points="99.844 95.4375 49.344 111.813"
     style=" stroke:#000000; stroke-width:1;"     class="TAG:polyline"></polyline>
    <polyline points="99.344 101.188 49.094 118.063"
     style=" stroke:#000000; stroke-width:1;"     class="TAG:polyline"></polyline>
    <polyline points="51.594 75.9375 68.094 73.6875"
     style=" stroke:#000000; stroke-width:1;"     class="TAG:polyline"></polyline>
    <polyline points="51.469 77 72.844 73.6875"
     style=" stroke:#000000; stroke-width:1;"     class="TAG:polyline"></polyline>
    <polyline points="62.094 73.6875 62.094 73.6875 51.344 75.1875"
     style=" stroke:#000000; stroke-width:1;"     class="TAG:polyline"></polyline>
    <polyline points="55.594 73.6875 55.594 73.6875 51.344 74.6875"
     style=" stroke:#000000; stroke-width:1;"     class="TAG:polyline"></polyline>
    <polyline points="100.344 82.5625 100.344 82.5625 49.344 99.0625"
     style=" stroke:#000000; stroke-width:1;"     class="TAG:polyline"></polyline>
    <polyline points="97.344 136.563 97.344 136.563 47.219 136.25"
     style=" stroke:#000000; stroke-width:1;"     class="TAG:polyline"></polyline>
    <g>
      <desc>METIS_TEXT_GROUP</desc>
      <text  x="1.656" y="244.5"
       style=" stroke:#000000; stroke-width:1; font-family:sans-serif; font-size:18; text-align:center"
       class="TAG:text">text</text>
      <rect x="1.656" y="226.5" width="304" height="77.0695"
       style=" stroke:#000000; stroke-width:1; fill:#000000; fill-opacity:0%"></rect>
    </g>
  </symbol>
 </defs>
</svg>
