<?xml version="1.0"?>
<?metis version="3.1"?>
<?metisxml version="1.0"?>
<!DOCTYPE svg  PUBLIC "-//W3C//DTD SVG August 1999//EN"
 "http://www.w3.org/Graphics/SVG/svg-19990812.dtd">

<svg width="200" height="200">
 <title>Symbol library: recommendation.svg</title>
 <defs>
  <symbol id="oid0" xml:space="preserve" class="METIS_SYMBOL">
   <title>Recmmendation</title>
    <g>
      <polygon points="-2.84217e-014 0 -2.84217e-014 304 16 320 
       880 320 880 16 864 0 -2.84217e-014 0 
       -2.84217e-014 0 -2.84217e-014 0 -2.84217e-014 0 -2.84217e-014 0 "
       style=" stroke:#000000; stroke-width:1; fill:#9b9b9b; fill-opacity:100%"       class="TAG:shadow"></polygon>
      <rect x="-2.84217e-014" y="0" width="240" height="304"
       style=" stroke:#000000; stroke-width:1; fill:#ffffff; fill-opacity:100%"       class="TAG:PictureBackground"></rect>
      <rect x="240" y="0" width="624" height="304"
       style=" stroke:#000000; stroke-width:1; fill:#96a5ff; fill-opacity:100%"       class="TAG:canvas"></rect>
      <g>
	<desc>METIS_TEXT_GROUP</desc>
	<text  x="256" y="15.8"
	 style=" stroke:#000000; stroke-width:1; font-family:sans-serif; font-size:16;"
	 class="TAG:text">text</text>
	<rect x="256" y="0" width="608" height="304"
	 style=" stroke:#000000; stroke-width:1; fill:#ffffff; fill-opacity:0%"></rect>
      </g>
      <polyline points="864 304 880 320"
       style=" stroke:#000000; stroke-width:1;"></polyline>
      <g>
	<g>
	  <polygon points="90.2857 66.2857 120 32 149.714 66.2857 
	   134.857 66.2857 134.857 134.857 120 152 105.143 134.857 
	   105.143 66.2857 105.143 66.2857 90.2857 66.2857 90.2857 66.2857 
	   90.2857 66.2857 90.2857 66.2857 90.2857 66.2857 90.2857 66.2857 "
	   style=" stroke:#000000; stroke-width:1; fill:#0000a5; fill-opacity:100%"></polygon>
	  <polygon points="120 152 105.143 169.143 105.143 237.714 
	   90.2857 237.714 120 272 149.714 237.714 134.857 237.714 
	   134.857 169.143 120 152 120 152 120 152 
	   120 152 120 152 120 152 "
	   style=" stroke:#000000; stroke-width:1; fill:#ffff00; fill-opacity:100%"></polygon>
	  <polygon points="120 152 134.857 134.857 194.286 134.857 
	   194.286 117.714 224 152 194.286 186.286 194.286 169.143 
	   134.857 169.143 134.857 169.143 120 152 120 152 
	   120 152 120 152 120 152 120 152 "
	   style=" stroke:#000000; stroke-width:1; fill:#00a500; fill-opacity:100%"></polygon>
	  <polygon points="120 152 105.143 134.857 45.7143 134.857 
	   45.7143 117.714 16 152 45.7143 186.286 45.7143 169.143 
	   105.143 169.143 120 152 120 152 120 152 
	   120 152 120 152 120 152 "
	   style=" stroke:#000000; stroke-width:1; fill:#dc0000; fill-opacity:100%"></polygon>
	</g>
	<g>
	  <ellipse  cx="147.404" cy="151.442" rx="16.3404" ry="12.4999"
	   style=" stroke:#000000; stroke-width:1; fill:#000000; fill-opacity:100%"></ellipse>
	  <ellipse  cx="147.404" cy="151.442" rx="5.44681" ry="4.16667"
	   style=" stroke:#000000; stroke-width:1; fill:#00a500; fill-opacity:100%"></ellipse>
	  <polygon points="169.192 138.941 169.192 138.941 169.192 163.941 
	   180.085 163.941 180.085 155.607 190.979 163.941 201.872 163.941 
	   188.255 151.442 201.872 138.941 190.979 138.941 180.085 147.275 
	   180.085 138.941 169.192 138.941 169.192 138.941 169.192 138.941 
	   169.192 138.941 169.192 138.941 169.192 138.941 "
	   style=" stroke:#000000; stroke-width:1; fill:#000000; fill-opacity:100%"></polygon>
	</g>
	<g>
	  <ellipse  cx="120" cy="181.442" rx="13.2766" ry="12.4999"
	   style=" stroke:#000000; stroke-width:1; fill:#000000; fill-opacity:100%"></ellipse>
	  <ellipse  cx="120" cy="181.442" rx="4.42553" ry="4.16667"
	   style=" stroke:#000000; stroke-width:1; fill:#ffff00; fill-opacity:100%"></ellipse>
	</g>
	<polygon points="106.723 203.942 106.723 203.942 106.723 228.941 
	 115.574 228.941 115.574 220.608 124.426 228.941 133.277 228.941 
	 122.213 216.441 133.277 203.942 124.426 203.942 115.574 212.274 
	 115.574 203.942 106.723 203.942 106.723 203.942 106.723 203.942 
	 106.723 203.942 106.723 203.942 106.723 203.942 "
	 style=" stroke:#000000; stroke-width:1; fill:#000000; fill-opacity:100%"></polygon>
	<ellipse  cx="50.0425" cy="151.442" rx="16.3404" ry="12.4999"
	 style=" stroke:#000000; stroke-width:1; fill:#000000; fill-opacity:100%"></ellipse>
	<ellipse  cx="50.0425" cy="151.442" rx="5.44681" ry="4.16667"
	 style=" stroke:#000000; stroke-width:1; fill:#dc0000; fill-opacity:100%"></ellipse>
	<polygon points="71.8299 138.941 71.8299 138.941 71.8299 163.941 
	 82.7233 163.941 82.7233 155.607 93.617 163.941 104.511 163.941 
	 90.8937 151.442 104.511 138.941 93.617 138.941 82.7233 147.275 
	 82.7233 138.941 71.8299 138.941 71.8299 138.941 71.8299 138.941 
	 71.8299 138.941 71.8299 138.941 71.8299 138.941 "
	 style=" stroke:#000000; stroke-width:1; fill:#000000; fill-opacity:100%"></polygon>
      </g>
    </g>
  </symbol>
 </defs>
</svg>
