<?xml version="1.0" encoding="UTF-8" standalone="no"?>
<!-- Created with Inkscape (http://www.inkscape.org/) -->

<svg
   xmlns:dc="http://purl.org/dc/elements/1.1/"
   xmlns:cc="http://creativecommons.org/ns#"
   xmlns:rdf="http://www.w3.org/1999/02/22-rdf-syntax-ns#"
   xmlns:svg="http://www.w3.org/2000/svg"
   xmlns="http://www.w3.org/2000/svg"
   xmlns:xlink="http://www.w3.org/1999/xlink"
   xmlns:sodipodi="http://sodipodi.sourceforge.net/DTD/sodipodi-0.dtd"
   xmlns:inkscape="http://www.inkscape.org/namespaces/inkscape"
   width="576"
   height="192"
   id="svg2"
   version="1.1"
   inkscape:version="0.47 r22583"
   sodipodi:docname="Sept9BigBox.svg">
  <defs
     id="defs4">
    <linearGradient
       inkscape:collect="always"
       id="linearGradient3677">
      <stop
         style="stop-color:#000000;stop-opacity:1;"
         offset="0"
         id="stop3679" />
      <stop
         style="stop-color:#ffffff;stop-opacity:0.24778761"
         offset="1"
         id="stop3681" />
    </linearGradient>
    <linearGradient
       inkscape:collect="always"
       id="linearGradient3740">
      <stop
         style="stop-color:#333333;stop-opacity:1;"
         offset="0"
         id="stop3742" />
      <stop
         style="stop-color:#333333;stop-opacity:0;"
         offset="1"
         id="stop3744" />
    </linearGradient>
    <linearGradient
       id="linearGradient2826">
      <stop
         style="stop-color:#f2f2f2;stop-opacity:1"
         offset="0"
         id="stop2828" />
      <stop
         style="stop-color:#999999;stop-opacity:1"
         offset="1"
         id="stop2830" />
    </linearGradient>
    <inkscape:perspective
       sodipodi:type="inkscape:persp3d"
       inkscape:vp_x="0 : 526.18109 : 1"
       inkscape:vp_y="0 : 1000 : 0"
       inkscape:vp_z="744.09448 : 526.18109 : 1"
       inkscape:persp3d-origin="372.04724 : 350.78739 : 1"
       id="perspective10" />
    <linearGradient
       inkscape:collect="always"
       xlink:href="#linearGradient2826"
       id="linearGradient2832"
       x1="262.12881"
       y1="-41.831799"
       x2="262.12881"
       y2="177.36221"
       gradientUnits="userSpaceOnUse"
       gradientTransform="translate(-111,780.36218)" />
    <linearGradient
       inkscape:collect="always"
       xlink:href="#linearGradient2826"
       id="linearGradient3736"
       gradientUnits="userSpaceOnUse"
       gradientTransform="translate(0.5,859.86218)"
       x1="262.12881"
       y1="-41.831799"
       x2="262.12881"
       y2="177.36221" />
    <linearGradient
       inkscape:collect="always"
       xlink:href="#linearGradient3740"
       id="linearGradient3746"
       x1="-20.231199"
       y1="962.70837"
       x2="-9.4898186"
       y2="962.70837"
       gradientUnits="userSpaceOnUse"
       gradientTransform="translate(27.720257,-0.99892819)" />
    <linearGradient
       inkscape:collect="always"
       xlink:href="#linearGradient3740"
       id="linearGradient3750"
       gradientUnits="userSpaceOnUse"
       gradientTransform="translate(211.02358,-0.99892819)"
       x1="-20.231199"
       y1="962.70837"
       x2="-9.4898186"
       y2="962.70837" />
    <linearGradient
       inkscape:collect="always"
       xlink:href="#linearGradient3740"
       id="linearGradient3754"
       gradientUnits="userSpaceOnUse"
       gradientTransform="matrix(1,0,0,3.1333334,886.54015,-3288.3363)"
       x1="-20.231199"
       y1="962.70837"
       x2="-9.4898186"
       y2="962.70837" />
    <linearGradient
       inkscape:collect="always"
       xlink:href="#linearGradient2826"
       id="linearGradient2860"
       gradientUnits="userSpaceOnUse"
       gradientTransform="matrix(0.9982669,0,0,0.99482302,0.49913345,860.85875)"
       x1="262.12881"
       y1="-41.831799"
       x2="262.12881"
       y2="177.36221" />
    <linearGradient
       inkscape:collect="always"
       xlink:href="#linearGradient2826"
       id="linearGradient2868"
       gradientUnits="userSpaceOnUse"
       gradientTransform="matrix(0.9982669,0,0,0.99482302,-122.50087,-221.50343)"
       x1="262.12881"
       y1="-41.831799"
       x2="262.12881"
       y2="177.36221" />
    <linearGradient
       inkscape:collect="always"
       xlink:href="#linearGradient3740"
       id="linearGradient2888"
       gradientUnits="userSpaceOnUse"
       gradientTransform="matrix(0.9982669,0,0,0.99482302,210.65786,-855.90788)"
       x1="-20.231199"
       y1="962.70837"
       x2="-9.4898186"
       y2="962.70837" />
    <linearGradient
       inkscape:collect="always"
       xlink:href="#linearGradient3740"
       id="linearGradient2891"
       gradientUnits="userSpaceOnUse"
       gradientTransform="matrix(0.9982669,0,0,0.99482302,27.672215,-855.90788)"
       x1="-20.231199"
       y1="962.70837"
       x2="-9.4898186"
       y2="962.70837" />
    <linearGradient
       inkscape:collect="always"
       xlink:href="#linearGradient3740"
       id="linearGradient2899"
       gradientUnits="userSpaceOnUse"
       gradientTransform="matrix(0,0.99482302,-3.127903,0,3282.6373,887.39861)"
       x1="-20.231199"
       y1="962.70837"
       x2="-9.4898186"
       y2="962.70837" />
    <linearGradient
       inkscape:collect="always"
       xlink:href="#linearGradient3677"
       id="linearGradient3683"
       x1="189.3869"
       y1="972.06573"
       x2="189.3869"
       y2="793.08197"
       gradientUnits="userSpaceOnUse"
       gradientTransform="matrix(0.99982894,0,0,0.99946266,0.04925763,0.5142967)" />
  </defs>
  <sodipodi:namedview
     id="base"
     pagecolor="#ffffff"
     bordercolor="#666666"
     borderopacity="1.0"
     inkscape:pageopacity="0.0"
     inkscape:pageshadow="2"
     inkscape:zoom="2.0295139"
     inkscape:cx="288"
     inkscape:cy="96"
     inkscape:document-units="px"
     inkscape:current-layer="layer1"
     showgrid="false"
     showborder="false" />
  <metadata
     id="metadata7">
    <rdf:RDF>
      <cc:Work
         rdf:about="">
        <dc:format>image/svg+xml</dc:format>
        <dc:type
           rdf:resource="http://purl.org/dc/dcmitype/StillImage" />
        <dc:title></dc:title>
      </cc:Work>
    </rdf:RDF>
  </metadata>
  <g
     inkscape:label="Layer 1"
     inkscape:groupmode="layer"
     id="layer1"
     transform="translate(0,-860.36218)">
    <path
       style="fill:url(#linearGradient2891);fill-opacity:1;stroke:none"
       d="M 15.46875 8.46875 C 11.597471 8.46875 8.5 11.54833 8.5 15.40625 L 8.5 176.59375 C 8.5 180.45175 11.597471 183.53125 15.46875 183.53125 L 18.1875 183.53125 L 18.1875 8.46875 L 15.46875 8.46875 z "
       transform="translate(0,860.36218)"
       id="rect3738" />
    <path
       style="fill:url(#linearGradient2888);fill-opacity:1;stroke:none"
       d="M 199.15625 8.46875 C 195.28497 8.46875 192.15625 11.54833 192.15625 15.40625 L 192.15625 176.59375 C 192.15625 180.45175 195.28497 183.53125 199.15625 183.53125 L 201.1875 183.53125 L 201.1875 8.46875 L 199.15625 8.46875 z "
       transform="translate(0,860.36218)"
       id="rect3748" />
    <path
       style="fill:url(#linearGradient2899);fill-opacity:1;stroke:none"
       d="m 15.46875,868.83093 c -3.871279,0 -6.96875,3.07958 -6.96875,6.9375 l 0,2.1875 175.6875,0 0,-2.1875 c 0,-3.85792 -3.12872,-6.9375 -7,-6.9375 l -161.71875,0 z m 183.6875,0 c -3.87128,0 -7,3.07958 -7,6.9375 l 0,2.1875 375.34375,0 0,-2.1875 c 0,-3.85792 -3.09747,-6.9375 -6.96875,-6.9375 l -361.375,0 z"
       id="rect3752" />
    <path
       style="opacity:0.27876108;fill:url(#linearGradient3683);fill-opacity:1;stroke:#000000;stroke-width:1.5;stroke-miterlimit:4;stroke-opacity:1;stroke-dasharray:none"
       d="m 10.529267,860.91046 c -5.5294524,0 -9.98096129,4.43453 -9.98096129,9.94289 l 0,171.01765 c 0,5.5083 4.45150889,9.9428 9.98096129,9.9428 l 554.941463,0 c 5.52946,0 9.98097,-4.4345 9.98097,-9.9428 l 0,-171.01765 c 0,-5.50836 -4.45151,-9.94289 -9.98097,-9.94289 l -554.941463,0 z m 4.990481,7.95431 161.691572,0 c 3.87063,0 6.98668,3.10417 6.98668,6.96001 l 0,161.07472 c 0,3.8559 -3.11605,6.96 -6.98668,6.96 l -161.691572,0 c -3.870617,0 -6.986673,-3.1041 -6.986673,-6.96 l 0,-161.07472 c 0,-3.85584 3.116056,-6.96001 6.986673,-6.96001 z m 183.649692,0 361.31081,0 c 3.87061,0 6.98667,3.10417 6.98667,6.96001 l 0,161.07472 c 0,3.8559 -3.11606,6.96 -6.98667,6.96 l -361.31081,0 c -3.87061,0 -6.98667,-3.1041 -6.98667,-6.96 l 0,-161.07472 c 0,-3.85584 3.11606,-6.96001 6.98667,-6.96001 z"
       id="rect2816"
       inkscape:label="gradientlayer" />
  </g>
</svg>
