<?xml version="1.0"?>
<?metis version="3.1"?>
<?metisxml version="1.0"?>
<!DOCTYPE svg  PUBLIC "-//W3C//DTD SVG August 1999//EN"
 "http://www.w3.org/Graphics/SVG/svg-19990812.dtd">

<svg width="200" height="200">
 <title>Symbol library: ref_customer.svg</title>
 <defs>
  <symbol id="oid1" xml:space="preserve" class="METIS_SYMBOL">
   <title>Reference Customer</title>
    <polygon points="56 36 160 36 160 18 
     160 0 56 0 56 36 56 36 56 36 "
     style=" stroke:#000000; stroke-width:1; fill:#ff00ff; fill-opacity:100%"     class="TAG:polygon"></polygon>
    <g>
      <polygon points="1.016 8.6196 1.016 8.6196 0.278 12.2228 
       0 16.288 0.462 19.8914 1.478 21.8316 5.914 21.8316 
       5.73 18.6902 5.36 15.3642 5.452 12.2228 5.822 10.0978 
       6.192 8.6196 1.016 8.6196 1.016 8.6196 1.016 8.6196 "
       style=" stroke:#000000; stroke-width:1; fill:#ffffff; fill-opacity:100%"       class="TAG:polygon"></polygon>
      <polygon points="6.192 8.9892 6.192 8.9892 10.628 8.3424 
       13 8.125 14.75 8 16.562 8.125 15.626 9.1874 
       14.046 9.3586 14.046 10.5598 17.282 10.4674 19.222 9.451 
       22.456 8.8968 26.892 10.0054 30.126 11.6684 33.176 14.163 
       35.948 16.5652 38.258 19.5218 38.814 20.8152 37.704 21.924 
       35.672 21.924 30.774 17.1196 30.496 15.087 30.682 17.1196 
       35.856 21.924 35.116 24.1414 33.546 24.326 30.774 22.3858 
       29.202 20.8152 31.05 22.663 33.638 24.2336 32.344 25.9892 
       30.588 26.3586 29.294 25.3424 28.002 24.6032 26.338 23.4946 
       24.86 23.0326 25.784 21.7392 25.69 20.538 24.674 19.4294 
       22.456 19.9836 21.532 21 22.18 19.337 21.624 17.8586 
       19.222 17.674 17.374 19.8914 15.988 21.462 14.508 22.7554 
       13.4 22.4782 11.366 21.2772 9.888 20.4456 8.502 20.076 
       7.394 20.538 5.914 19.8914 5.638 16.75 5.36 13.7934 
       5.544 12.038 5.822 10.0978 6.192 8.9892 6.192 8.9892 6.192 8.9892 "
       style=" stroke:#000000; stroke-width:1; fill:#ff6e6e; fill-opacity:100%"       class="TAG:polygon"></polygon>
      <polygon points="9.056 20.2608 9.056 20.2608 8.41 22.201 
       8.41 23.587 9.334 24.2336 10.998 23.8642 12.198 21.924 
       11.182 21.1848 9.056 20.2608 9.056 20.2608 9.056 20.2608 "
       style=" stroke:#000000; stroke-width:1; fill:#ff6e6e; fill-opacity:100%"       class="TAG:polygon"></polygon>
      <polygon points="12.846 22.2934 12.846 22.3858 12.476 24.2336 
       13.124 25.712 14.416 26.6358 15.618 26.7282 16.82 26.2664 
       17.744 26.451 19.222 23.587 20.7 22.1086 21.532 20.8152 
       22.272 19.1522 21.44 17.674 19.13 17.674 16.634 20.9076 
       14.324 22.7554 12.846 22.2934 12.846 22.2934 12.846 22.2934 "
       style=" stroke:#000000; stroke-width:1; fill:#ff6e6e; fill-opacity:100%"       class="TAG:polygon"></polygon>
      <polygon points="19.684 18.0896 19.36 18.5978 18.852 19.568 
       20.792 20.2608 21.348 18.5978 20.838 18.182 19.684 18.0896 
       19.684 18.0896 19.684 18.0896 "
       style=" stroke:#000000; stroke-width:1; fill:#ffa596; fill-opacity:100%"       class="TAG:polygon"></polygon>
      <polygon points="21.438 21.1848 21.346 21.1848 19.128 23.7718 
       17.65 26.7282 17.928 28.4836 19.128 29.5 20.238 28.576 
       21.808 27.0978 23.564 24.8804 25.044 23.2174 25.69 21.8316 
       25.69 20.538 24.674 19.5218 22.364 20.076 21.438 21.1848 
       21.438 21.1848 21.438 21.1848 "
       style=" stroke:#000000; stroke-width:1; fill:#ff6e6e; fill-opacity:100%"       class="TAG:polygon"></polygon>
      <polygon points="23.334 20.3532 22.548 21.5082 23.75 22.2934 
       24.998 21.0924 24.396 20.1684 23.334 20.3532 23.334 20.3532 23.334 20.3532 "
       style=" stroke:#000000; stroke-width:1; fill:#ffa596; fill-opacity:100%"       class="TAG:polygon"></polygon>
      <polygon points="24.95 23.2174 24.95 23.2174 21.716 27.375 
       21.994 28.7608 23.01 29.2228 24.396 28.576 25.504 27.4674 
       26.614 25.8968 26.938 24.5108 26.43 23.5408 25.644 23.2636 
       24.95 23.2174 24.95 23.2174 24.95 23.2174 "
       style=" stroke:#000000; stroke-width:1; fill:#ff6e6e; fill-opacity:100%"       class="TAG:polygon"></polygon>
      <polygon points="24.904 24.1414 24.396 25.1576 25.412 26.0816 
       26.014 25.2962 26.336 24.6494 25.552 23.9104 24.904 24.1414 
       24.904 24.1414 24.904 24.1414 "
       style=" stroke:#000000; stroke-width:1; fill:#ffa596; fill-opacity:100%"       class="TAG:polygon"></polygon>
      <polygon points="27.632 24.4184 26.892 25.1576 26.246 26.913 
       27.354 27.837 28.648 27.6522 30.034 27.375 30.682 26.451 
       28.834 25.1576 27.632 24.4184 27.632 24.4184 27.632 24.4184 "
       style=" stroke:#000000; stroke-width:1; fill:#ff6e6e; fill-opacity:100%"       class="TAG:polygon"></polygon>
      <polygon points="13.954 9.2664 15.618 9.0816 17.096 7.4184 
       18.944 5.8478 22.086 4.8316 26.06 4 29.11 4.1848 
       31.42 5.1086 35.672 6.587 38.444 7.1414 41.586 6.7718 
       42.51 10.5598 42.602 14.163 42.232 17.212 40.662 19.2446 
       38.814 20.2608 37.058 17.674 35.21 15.826 32.714 13.701 
       29.85 11.576 27.262 10.2826 24.212 9.3586 22.18 8.8044 
       19.222 9.451 17.374 10.4674 13.862 10.6522 13.954 9.2664 
       13.954 9.2664 13.954 9.2664 "
       style=" stroke:#000000; stroke-width:1; fill:#ff6e6e; fill-opacity:100%"       class="TAG:polygon"></polygon>
      <polygon points="41.77 17.674 41.77 17.674 41.4 19.4294 
       45.836 19.5218 46.946 16.8424 47.5 12.8696 47.316 8.8968 
       46.392 6.8642 45.836 5.7554 41.216 6.4022 42.602 10.5598 
       42.418 13.9782 41.77 17.674 41.77 17.674 41.77 17.674 "
       style=" stroke:#000000; stroke-width:1; fill:#ffffff; fill-opacity:100%"       class="TAG:polygon"></polygon>
      <polyline points="31.512 12.6848 31.512 12.7772 34.008 14.0706 
       36.04 14.8098 37.15 14.4402 38.536 13.0544"
       style=" stroke:#000000; stroke-width:1;"       class="TAG:polyline"></polyline>
    </g>
    <g>
      <desc>METIS_TEXT_GROUP</desc>
      <text  x="60" y="19.8"
       style=" stroke:#000000; stroke-width:1; font-family:sans-serif; font-size:16;"
       class="TAG:text">text</text>
      <rect x="60" y="4" width="100" height="32"
       style=" stroke:#000000; stroke-width:1; fill:#000000; fill-opacity:0%"></rect>
    </g>
  </symbol>
 </defs>
</svg>
