<?xml version="1.0" encoding="UTF-8" standalone="no"?>
<svg
   xmlns:dc="http://purl.org/dc/elements/1.1/"
   xmlns:cc="http://creativecommons.org/ns#"
   xmlns:rdf="http://www.w3.org/1999/02/22-rdf-syntax-ns#"
   xmlns:svg="http://www.w3.org/2000/svg"
   xmlns="http://www.w3.org/2000/svg"
   xmlns:xlink="http://www.w3.org/1999/xlink"
   xmlns:sodipodi="http://sodipodi.sourceforge.net/DTD/sodipodi-0.dtd"
   xmlns:inkscape="http://www.inkscape.org/namespaces/inkscape"
   id="svg2"
   enable-background="new -0.556 -0.486 209 199"
   xml:space="preserve"
   height="219"
   width="219"
   version="1.1"
   y="0px"
   x="0px"
   viewBox="-0.556 -0.486 219 219"
   inkscape:version="0.48.0 r9654"
   sodipodi:docname="regulatory_standard.svg"
   inkscape:export-filename="C:\Users\mboyd\Documents\Current_projects\ERM Industrialized Offering\xml\http\metadata.troux.info\semantics\small_icons\regulatory_standard.png"
   inkscape:export-xdpi="6.5753427"
   inkscape:export-ydpi="6.5753427"><sodipodi:namedview
     pagecolor="#ffffff"
     bordercolor="#666666"
     borderopacity="1"
     objecttolerance="10"
     gridtolerance="10"
     guidetolerance="10"
     inkscape:pageopacity="0"
     inkscape:pageshadow="2"
     inkscape:window-width="1146"
     inkscape:window-height="607"
     id="namedview4351"
     showgrid="false"
     inkscape:zoom="1.8713826"
     inkscape:cx="109.5"
     inkscape:cy="109.5"
     inkscape:window-x="154"
     inkscape:window-y="22"
     inkscape:window-maximized="0"
     inkscape:current-layer="svg2" /><metadata
     id="metadata287"><rdf:RDF><cc:Work
         rdf:about=""><dc:format>image/svg+xml</dc:format><dc:type
           rdf:resource="http://purl.org/dc/dcmitype/StillImage" /><dc:title></dc:title></cc:Work></rdf:RDF></metadata><defs
     id="defs4"><filter
       id="filter4412"
       color-interpolation-filters="sRGB"><feGaussianBlur
         id="feGaussianBlur4414"
         stdDeviation="2.2096145" /></filter><linearGradient
       inkscape:collect="always"
       xlink:href="#linearGradient3699"
       id="linearGradient3032"
       gradientUnits="userSpaceOnUse"
       gradientTransform="matrix(-1.1468734,0.18241251,0.17231078,1.2141089,11.372413,-170.32372)"
       x1="-11.3"
       y1="267"
       x2="-80.900002"
       y2="212" /><linearGradient
       id="linearGradient3699"
       y2="212"
       gradientUnits="userSpaceOnUse"
       x2="-80.900002"
       gradientTransform="matrix(0.18241251,1.1468734,1.2141089,-0.17231078,-523.7128,111.87104)"
       y1="267"
       x1="-11.3"><stop
         id="stop15-2"
         stop-color="#663700"
         offset="0" /><stop
         id="stop17-4"
         stop-color="#b49664"
         stop-opacity="0"
         offset="1" /></linearGradient><linearGradient
       inkscape:collect="always"
       xlink:href="#linearGradient3695"
       id="linearGradient3028"
       gradientUnits="userSpaceOnUse"
       gradientTransform="matrix(-1.1468734,0.1824125,0.17231077,1.2141089,12.532693,-168.03365)"
       x1="-27.5"
       y1="259"
       x2="-79.400002"
       y2="221" /><linearGradient
       id="linearGradient3695"
       y2="221"
       gradientUnits="userSpaceOnUse"
       x2="-79.400002"
       gradientTransform="matrix(0.1824125,1.1468734,1.2141089,-0.17231077,-521.42273,110.71076)"
       y1="259"
       x1="-27.5"><stop
         id="stop20-8"
         stop-color="#a06127"
         offset="0" /><stop
         id="stop22-8"
         stop-color="#b4964e"
         stop-opacity="0"
         offset="1" /></linearGradient><linearGradient
       inkscape:collect="always"
       xlink:href="#linearGradient3686"
       id="linearGradient3021"
       gradientUnits="userSpaceOnUse"
       gradientTransform="matrix(-1.1468734,0.1824125,0.17231077,1.2141089,12.532693,-170.03365)"
       x1="-104"
       y1="245"
       x2="-139"
       y2="220" /><linearGradient
       id="linearGradient3686"
       y2="220"
       gradientUnits="userSpaceOnUse"
       x2="-139"
       gradientTransform="matrix(0.1824125,1.1468734,1.2141089,-0.17231077,-523.42273,110.71076)"
       y1="245"
       x1="-104"><stop
         id="stop25-9"
         stop-color="#663700"
         offset="0" /><stop
         id="stop27-4"
         stop-color="#b4964e"
         stop-opacity="0"
         offset="1" /></linearGradient><linearGradient
       inkscape:collect="always"
       xlink:href="#linearGradient3681"
       id="linearGradient3016"
       gradientUnits="userSpaceOnUse"
       gradientTransform="matrix(-1.1468734,0.1824125,0.17231077,1.2141089,12.532693,-170.03365)"
       x1="-62.200001"
       y1="187"
       x2="-102"
       y2="161" /><linearGradient
       id="linearGradient3681"
       y2="161"
       gradientUnits="userSpaceOnUse"
       x2="-102"
       gradientTransform="matrix(0.1824125,1.1468734,1.2141089,-0.17231077,-523.42273,110.71076)"
       y1="187"
       x1="-62.200001"><stop
         id="stop30-4"
         stop-color="#663700"
         offset="0" /><stop
         id="stop32-0"
         stop-color="#b4964e"
         stop-opacity="0"
         offset="1" /></linearGradient><linearGradient
       inkscape:collect="always"
       xlink:href="#linearGradient3677"
       id="linearGradient3012"
       gradientUnits="userSpaceOnUse"
       gradientTransform="matrix(1.1926234,0,0,1.1958237,123.33571,110.91238)"
       x1="-52.900002"
       y1="-224"
       x2="-16.4"
       y2="-224" /><linearGradient
       id="linearGradient3677"
       y2="-224"
       gradientUnits="userSpaceOnUse"
       x2="-16.4"
       gradientTransform="matrix(1.1926234,0,0,1.1958237,268.58655,447.68171)"
       y1="-224"
       x1="-52.900002"><stop
         id="stop35-1"
         stop-color="#663700"
         offset="0" /><stop
         id="stop37-7"
         stop-color="#b4964e"
         stop-opacity="0"
         offset="1" /></linearGradient><linearGradient
       inkscape:collect="always"
       xlink:href="#linearGradient3677"
       id="linearGradient4721"
       gradientUnits="userSpaceOnUse"
       gradientTransform="matrix(1.1926234,0,0,1.1958237,120.34592,117.11734)"
       x1="-52.900002"
       y1="-224"
       x2="-16.4"
       y2="-224" /><linearGradient
       inkscape:collect="always"
       xlink:href="#linearGradient3681"
       id="linearGradient4725"
       gradientUnits="userSpaceOnUse"
       gradientTransform="matrix(-1.1468734,0.1824125,0.17231077,1.2141089,6.2752265,-172.51867)"
       x1="-62.200001"
       y1="187"
       x2="-102"
       y2="161" /><linearGradient
       inkscape:collect="always"
       xlink:href="#linearGradient3686"
       id="linearGradient4730"
       gradientUnits="userSpaceOnUse"
       gradientTransform="matrix(-1.1468734,0.1824125,0.17231077,1.2141089,6.2752265,-172.51867)"
       x1="-104"
       y1="245"
       x2="-139"
       y2="220" /><linearGradient
       inkscape:collect="always"
       xlink:href="#linearGradient3695"
       id="linearGradient4737"
       gradientUnits="userSpaceOnUse"
       gradientTransform="matrix(-1.1468734,0.1824125,0.17231077,1.2141089,6.2752265,-170.51867)"
       x1="-27.5"
       y1="259"
       x2="-79.400002"
       y2="221" /><linearGradient
       inkscape:collect="always"
       xlink:href="#linearGradient3699"
       id="linearGradient4741"
       gradientUnits="userSpaceOnUse"
       gradientTransform="matrix(-1.1468734,0.18241251,0.17231078,1.2141089,5.1149465,-172.80874)"
       x1="-11.3"
       y1="267"
       x2="-80.900002"
       y2="212" /></defs><path
     style="opacity:0.5;fill:#000000;fill-rule:evenodd;stroke-width:0;stroke-miterlimit:4;filter:url(#filter4412)"
     inkscape:connector-curvature="0"
     stroke-miterlimit="4"
     transform="matrix(0.93767619,0,0,0.94690245,2.2970495,0.45835622)"
     d="m 86.457,213.53 c -8.6333,-2.7489 -13.915,-6.6425 -27.068,-19.954 -9.3291,-9.4418 -14.056,-13.269 -20.47,-16.572 -9.7591,-5.027 -15.259,-10.295 -19.221,-18.41 -4.1272,-8.4547 -4.4724,-14.22 -1.875,-31.32 2.1347,-14.054 2.1814,-16.016 0.65603,-27.569 -3.5813,-27.123 -0.61724,-42.078 10.64,-53.685 7.0075,-7.2255 14.268,-9.8971 29.929,-11.012 14.858,-1.0582 17.238,-1.7294 26.863,-7.5761 10.305,-6.26 16.822,-7.8275 32.565,-7.8326 22.055,-0.007 33.914,4.3393 48.344,17.719 6.0448,5.6048 10.333,8.5518 14.544,9.9957 9.5991,3.2909 17.226,7.5483 19.759,11.029 1.9541,2.6859 2.4708,5.6254 3.0289,17.23 0.7466,15.525 2.5044,20.891 11.046,33.721 5.9634,8.9574 7.2349,12.168 7.2349,18.269 0,7.4789 -2.1522,11.587 -11.159,21.301 -8.4518,9.1153 -9.2217,10.658 -15.157,30.365 -4.9546,16.452 -10.997,24.018 -21.365,26.75 -2.5213,0.66451 -10.27,1.1301 -17.22,1.0347 -10.863,-0.1491 -14.811,0.36812 -28.143,3.6866 -18.515,4.6086 -34.117,5.6369 -42.933,2.8296 z"
     id="path3642" /><g
     transform="matrix(0.93308851,0,0,0.94226963,9.7820003,-7.6912458)"
     id="g3473"><path
       style="fill:#ffffff"
       inkscape:connector-curvature="0"
       d="m 185.38,110.72 c 3.479,5.031 4.654,8.368 5.172,9.778 0.517,1.41 1.41,7.521 0.61,10.482 -0.799,2.963 1.74,1.914 2.068,-1.832 0.47,-5.359 -0.941,-8.721 -2.491,-11.565 -1.692,-3.101 -2.82,-4.418 -5.359,-6.863 z"
       id="path239" /><path
       style="fill:#e0c398"
       inkscape:connector-curvature="0"
       d="m 71.507,27.806 c 15.664,-12.04 62.259,-11.282 80.125,10.271 13.305,16.054 22.216,8.511 33.582,19.876 8.052,8.053 1.982,24.133 5.396,33.909 7.851,22.466 19.04,23.517 17.092,40.779 -1.729,15.326 -16.965,16.772 -22.093,33.57 -5.921,19.393 -7.454,47.732 -43.017,42.502 -23.82,-3.5 -65.166,28.17 -95.862,-10.09 -22.578,-28.14 -31.208,-13.91 -43.892,-39.61 -7.888,-15.98 3.475,-34.65 0.684,-51.49 C 0.621,89.996 -3.623,63.738 13.768,46.349 32.304,27.811 50.116,44.253 71.509,27.809 z"
       id="path241" /><path
       style="fill:#cfaa7a"
       inkscape:connector-curvature="0"
       d="M 2.712,90.033 C 0.954,79.48 4.234,58.057 13.675,50.749 c 9.44,-7.31 13.705,-12.182 22.231,-12.486 8.528,-0.306 18.882,0 26.495,-3.96 7.614,-3.958 15.531,-9.136 20.1,-10.354 4.568,-1.218 24.97,-3.351 32.891,-1.827 7.917,1.522 22.84,5.481 32.28,14.922 9.44,9.441 14.922,13.705 21.012,15.227 6.092,1.522 19.492,4.873 18.273,18.881 -1.218,14.008 -1.98,20.556 5.025,29.388 7.004,8.833 13.551,23.603 14.161,28.169 0.608,4.568 0,11.572 -7.005,17.057 -7.005,5.479 -14.618,16.139 -16.749,27.101 -2.133,10.966 -6.699,22.841 -10.659,26.801 -3.96,3.958 -16.75,5.784 -24.973,5.784 -8.223,0 -23.449,2.438 -31.366,4.877 -7.92,2.434 -25.277,9.742 -40.505,4.261 C 59.662,209.11 49.612,199.06 41.999,191.14 34.385,183.22 16.417,175 10.935,168.61 5.453,162.21 0.276,153.38 2.713,136.63 c 2.437,-16.752 3.35,-26.495 0,-46.596 z"
       id="path243" /><path
       style="fill:#ddb78a"
       inkscape:connector-curvature="0"
       d="m 18.09,83.942 c 2.563,-16.018 17.816,-31.976 27.866,-37.001 10.05,-5.025 17.359,-6.852 23.296,-9.592 5.938,-2.741 13.248,0.456 23.753,-2.286 10.508,-2.74 34.717,-9.136 42.942,0.458 8.221,9.593 20.099,18.729 29.69,21.927 9.593,3.196 19.185,17.357 18.729,28.321 -0.457,10.963 2.741,23.297 5.938,29.236 3.198,5.939 1.827,23.755 -3.655,33.803 -5.48,10.051 -10.049,22.387 -12.79,29.236 -2.741,6.852 -15.531,20.556 -27.865,22.386 -12.333,1.827 -22.841,4.108 -34.717,7.307 -11.878,3.199 -31.977,2.74 -44.31,-4.111 -12.337,-6.86 -30.151,-21.47 -35.635,-25.13 -5.481,-3.65 -18.729,-17.81 -19.185,-31.06 -0.458,-13.25 -4.568,-20.56 -4.112,-35.63 0.238,-7.78 8.226,-16.447 10.052,-27.868 z"
       id="path245" /><path
       style="fill:#eac9a4"
       inkscape:connector-curvature="0"
       d="m 134.44,40.857 c 10.647,10.647 20.801,17.033 32.25,24.248 6.694,4.22 13.111,17.372 13.111,27.518 0,9.234 6.851,23.144 6.851,32.892 0,13.157 -8.922,21.712 -11.717,35.332 -2.56,12.473 -9.726,18.124 -19.377,26.211 -9.283,7.772 -19.914,13.943 -35.258,13.943 -7.764,0 -11.763,4.909 -24.552,4.909 -17.053,0 -26.538,-5.48 -39.875,-13.837 C 46.41,186.145 36.149,180.464 29.6,171.457 23.457,163.005 19.003,153.763 19.003,143.023 c 0,-9.114 -8.296,-16.604 -5.937,-26.648 2.894,-12.334 9.234,-16.41 11.07,-29.799 2.418,-17.631 30.041,-41.77 47.592,-45.573 9.114,-1.974 18.602,-1.176 28.13,-3.653 12.293,-3.199 26.413,-4.663 34.582,3.507 z"
       id="path247" /><circle
       style="fill:#efd6bd"
       sodipodi:ry="75.373001"
       sodipodi:rx="75.373001"
       sodipodi:cy="100.49"
       sodipodi:cx="99.859001"
       r="75.373001"
       cy="100.49"
       transform="translate(0,20)"
       cx="99.859001"
       d="m 175.232,100.49 c 0,41.62736 -33.74564,75.373 -75.372999,75.373 -41.627359,0 -75.373001,-33.74564 -75.373001,-75.373 0,-41.627361 33.745642,-75.373003 75.373001,-75.373003 41.627359,0 75.372999,33.745642 75.372999,75.373003 z"
       id="circle249" /><circle
       style="fill:#f7e3d0"
       sodipodi:ry="69.237"
       sodipodi:rx="69.237"
       sodipodi:cy="100.49"
       sodipodi:cx="99.859001"
       r="69.237"
       cy="100.49"
       transform="translate(0,20)"
       cx="99.859001"
       d="m 169.096,100.49 c 0,38.23854 -30.99846,69.237 -69.236999,69.237 -38.238539,0 -69.236999,-30.99846 -69.236999,-69.237 0,-38.238541 30.99846,-69.237002 69.236999,-69.237002 38.238539,0 69.236999,30.998461 69.236999,69.237002 z"
       id="circle251" /><circle
       style="fill:#e5c5a8"
       sodipodi:ry="67.046997"
       sodipodi:rx="67.046997"
       sodipodi:cy="100.49"
       sodipodi:cx="99.859001"
       r="67.046997"
       cy="100.49"
       transform="translate(0,20)"
       cx="99.859001"
       d="m 166.906,100.49 c 0,37.02903 -30.01796,67.04699 -67.046999,67.04699 -37.029034,0 -67.046997,-30.01796 -67.046997,-67.04699 0,-37.029036 30.017963,-67.046999 67.046997,-67.046999 37.029039,0 67.046999,30.017963 67.046999,67.046999 z"
       id="circle253" /><path
       style="fill:#ffffff"
       inkscape:connector-curvature="0"
       d="m 72.451,30.04 c 5.048,-4.038 10.735,-5.025 15.987,-5.71 5.255,-0.685 23.983,-3.197 33.119,0 -5.253,-0.23 -25.352,-0.457 -29.692,0.456 -4.34,0.913 -11.877,1.827 -19.414,5.254 z"
       id="path255" /><path
       style="fill:#a07f58"
       inkscape:connector-curvature="0"
       d="m 190.31,115 c 3.883,7.463 3.351,15.455 -0.075,24.137 1.216,-8.834 2.664,-14.543 0.075,-24.137 z"
       id="path257" /><path
       style="fill:#cfaa7a"
       inkscape:connector-curvature="0"
       d="M 14.437,94.906 C 16.036,87.712 16.264,86.913 16.721,82 17.178,77.089 19.575,71.267 24.258,64.871 28.941,58.476 36.25,51.282 40.133,48.996 c 3.881,-2.283 8.679,-4.11 13.246,-5.595 -9.707,6.166 -11.534,4.454 -19.756,13.246 -8.222,8.794 -12.79,17.93 -13.476,20.672 -0.685,2.74 -1.828,8.336 -2.627,10.393 -0.799,2.055 -1.484,5.137 -3.083,7.194 z"
       id="path259" /><path
       style="fill:#cfaa7a"
       inkscape:connector-curvature="0"
       d="m 91.484,38.871 c 6.548,-1.599 9.594,-1.902 12.866,-2.587 3.274,-0.687 9.137,-1.523 11.726,-1.447 2.589,0.077 9.517,0.305 12.105,1.751 2.589,1.445 6.624,4.111 8.604,6.777 -4.568,-3.198 -9.593,-5.407 -13.554,-5.938 -3.958,-0.535 -11.495,-0.914 -17.357,0 -5.864,0.911 -11.192,0.759 -14.39,1.444 z"
       id="path261" /><path
       style="fill:#e5c5a8"
       inkscape:connector-curvature="0"
       d="m 53.341,189.16 c 5.634,4.035 14.16,9.135 18.881,11.114 4.72,1.982 10.05,3.429 18.349,4.57 -8.68,-1.827 -14.44,-3.579 -19.109,-5.711 -4.339,-1.978 -15.074,-8.147 -18.121,-9.973 z"
       id="path263" /><path
       style="fill:#cfaa7a"
       inkscape:connector-curvature="0"
       d="m 197.39,110.21 c -1.37,-2.055 -5.862,1.676 -4.188,4.797 1.675,3.122 2.36,16.675 -0.075,22.309 -2.437,5.634 -5.633,12.258 -5.633,14.77 0,2.512 1.673,4.721 3.882,2.057 2.208,-2.664 8.984,-8.681 10.507,-10.507 1.522,-1.829 6.851,-6.396 4.721,-14.693 -2.132,-8.301 -4.493,-13.936 -9.214,-18.733 z"
       id="path265" /><path
       style="fill:#a07f58"
       inkscape:connector-curvature="0"
       d="m 197.39,110.21 c 4.227,6.11 5.653,10.162 6.282,11.878 0.627,1.712 1.714,9.135 0.74,12.733 -0.97,3.598 2.115,2.325 2.514,-2.227 0.57,-6.51 -1.144,-10.593 -3.026,-14.049 -2.056,-3.767 -3.426,-5.367 -6.51,-8.335 z"
       id="path267" /><path
       style="fill:#e5c5a8"
       inkscape:connector-curvature="0"
       d="M 14.78,54.25 C 10.24,58.446 5.986,61.559 3.169,72.522 4.997,58.818 7.738,57.752 9.716,54.554 11.695,51.357 18.864,43.43 24.83,40.888 c 3.482,-1.484 9.705,-3.083 13.97,-2.931 4.264,0.152 1.577,3.928 -4.835,6.016 -6.547,2.13 -11.649,3.311 -19.185,10.277 z"
       id="path269" /><path
       style="fill:#a07f58"
       inkscape:connector-curvature="0"
       d="m 51.779,201.34 c 9.822,6.968 14.391,11.877 24.441,13.021 10.049,1.14 20.555,0.341 25.582,0 -9.823,2.852 -23.41,2.397 -30.15,0 -6.738,-2.402 -12.22,-5.827 -19.873,-13.021 z"
       id="path271" /><path
       style="fill:#ffffff"
       inkscape:connector-curvature="0"
       d="m 38.495,38.794 c 0.54,0.024 -1.673,2.284 -4.873,2.969 -3.198,0.685 -6.015,1.522 -7.766,2.209 -1.751,0.685 -0.608,-0.914 0.686,-1.751 1.294,-0.838 4.95,-3.73 11.953,-3.427 z"
       id="path273" /><path
       style="fill:#efd6bd"
       inkscape:connector-curvature="0"
       d="m 12.951,124.14 c 1.257,4.224 2.627,8.107 3.655,9.935 1.028,1.828 2.512,7.767 2.397,10.048 0.685,-3.425 0.114,-7.309 -1.484,-10.848 -1.599,-3.542 -3.997,-5.937 -4.568,-9.135 z"
       id="path275" /><path
       style="fill:#a07f58"
       inkscape:connector-curvature="0"
       d="m 2.331,139.44 c -0.304,7.006 0.99,14.81 2.588,17.892 1.6,3.083 4.377,9.746 9.517,14.655 -4.948,-3.45 -9.098,-11.06 -10.126,-13.35 -1.027,-2.28 -3.654,-8.98 -1.979,-19.19 z"
       id="path277" /><path
       style="fill:#e5c5a8"
       inkscape:connector-curvature="0"
       d="m 17.71,163.43 c 3.123,5.406 7.818,10.053 9.917,11.935 2.74,2.454 8.507,6.509 15.36,11.821 -6.472,-5.407 -10.812,-8.91 -13.705,-11.039 -2.891,-2.134 -6.546,-5.409 -11.572,-12.717 z"
       id="path279" /><path
       style="fill:#e5c5a8"
       inkscape:connector-curvature="0"
       d="m 147.94,47.169 c 3.14,2.854 7.707,5.996 10.506,7.137 -3.425,-2.111 -7.479,-4.682 -10.506,-7.137 z"
       id="path281" /><path
       style="fill:#a07f58"
       inkscape:connector-curvature="0"
       d="m 159.4,60.569 c 3.731,2.892 8.68,7.234 9.898,8.833 1.218,1.598 4.796,4.264 5.938,6.471 -1.901,-4.949 -3.73,-6.624 -5.556,-8.376 -1.828,-1.751 -8.225,-5.48 -10.28,-6.928 z"
       id="path283" /></g><path
     id="path48-5"
     style="color:#000000;fill:#a09989;fill-rule:nonzero;enable-background:accumulate"
     d="m 22.196376,191.41869 c -2.71131,-3.0046 -5.538,-4.2016 -5.538,-4.2016 0,0 2.8382,-8.3787 35.99699,-41.893 33.230011,-33.6 74.995994,-68.404984 74.995994,-68.404984 1.731,-1.356 4.05,-3.713 2.908,-4.971 l -0.18229,-0.20397 c -1.1434,-1.2702 -0.93799,-3.0901 0.45458,-4.0306 l 5.8841,-4.0183 11.307,12.58 -4.0612,6.0336 c -0.95876,1.429 -2.6882,1.5634 -3.8304,0.28947 l -0.2919,-0.32122 c -1.1434,-1.2702 -3.5074,1.0406 -4.8688,2.8092 0,0 -34.84299,42.503984 -68.070984,76.091984 -33.228,33.588 -41.189,36.153 -41.189,36.153 0,0 -0.82492,-2.858 -3.5304,-5.8626 z"
     inkscape:connector-curvature="0" /><path
     id="path3733"
     style="text-indent:0;text-align:start;text-transform:none;direction:ltr;block-progression:tb;color:#000000;fill:#8c531b;fill-rule:nonzero;enable-background:accumulate"
     d="m 148.78236,76.226706 -0.3125,-0.34375 -11.312,-12.594 -0.34375,-0.375 -0.4375,0.28125 -5.875,4.0312 c -1.6659,1.125 -1.9192,3.399 -0.5625,4.9062 l 0.188,0.219 c 0.15568,0.17146 0.18272,0.3052 0.125,0.59375 -0.0577,0.28855 -0.26512,0.70804 -0.5625,1.125 -0.59475,0.83393 -1.5712,1.7209 -2.4062,2.375 l 0,0.0312 c 0,0 -41.803994,34.817984 -75.061984,68.437984 -16.591,16.769 -25.592,27.25 -30.469,33.562 -2.4382,3.1563 -3.8252,5.2584 -4.625,6.5938 -0.79984,1.3353 -1.0312,1.9375 -1.0312,1.9375 l -0.1875,0.53125 0.53125,0.21875 c 0,0 2.5254,1.1514 5.0625,3.8438 l 0.0312,0.0312 0.21875,0.25 c 2.62,2.9096 3.375,5.625 3.375,5.625 l 0.1875,0.59375 0.59375,-0.1875 c 0,0 0.5818,-0.21799 1.875,-1 1.2932,-0.78201 3.3511,-2.1624 6.4375,-4.5938 6.1728,-4.8626 16.468,-13.913 33.094,-30.719 33.257994,-33.619 68.124984,-76.124984 68.124984,-76.124984 l 0,-0.0312 c 0.653,-0.839 1.586,-1.815 2.404,-2.394 0.409,-0.289 0.772,-0.458 1.031,-0.5 0.25907,-0.0421 0.37398,-0.0185 0.53125,0.15625 l 0.28125,0.3125 c 0.67798,0.75615 1.5811,1.1302 2.4688,1.0625 0.88767,-0.0677 1.7455,-0.59235 2.3125,-1.4375 l 4.0625,-6.0312 0.25,-0.375 z m -1.5,0.125 -3.8125,5.625 c -0.39173,0.58386 -0.90395,0.86796 -1.4062,0.90625 -0.5023,0.0383 -1.0358,-0.16975 -1.5,-0.6875 l -0.28125,-0.3125 c -0.41441,-0.4604 -1.0455,-0.62042 -1.5938,-0.53125 -0.5483,0.0892 -1.0361,0.36822 -1.5312,0.71875 -0.99035,0.70106 -1.9503,1.7392 -2.6562,2.6562 0,0 -34.833987,42.473984 -68.030984,76.030984 -16.60201,16.782 -26.885,25.808 -33,30.625 -3.0573,2.4084 -5.0747,3.7827 -6.3125,4.5312 -0.8787,0.53136 -0.96548,0.51402 -1.1562,0.59375 -0.26601,-0.75853 -1.0718,-2.6951 -3.1562,-5.125 l 0.0312,-0.0937 -0.21875,-0.28125 c -2.362,-2.6175 -4.476,-3.6904 -5.1875,-4.0312 0.078,-0.1875 0.0869,-0.33076 0.65625,-1.2812 0.76853,-1.283 2.1463,-3.3722 4.5625,-6.5 4.8324,-6.2555 13.838,-16.723 30.406,-33.469 33.197,-33.557 74.937984,-68.343984 74.937984,-68.343984 0.89561,-0.70161 1.9131,-1.6269 2.625,-2.625 0.35593,-0.49907 0.64006,-1.0129 0.75,-1.5625 0.10798,-0.53984 -0.009,-1.1697 -0.40625,-1.625 -0.007,-0.008 0.007,-0.0231 0,-0.0312 l -0.1875,-0.1875 c -0.93002,-1.0332 -0.77553,-2.3691 0.34375,-3.125 l 0,-0.0312 23.77,5.28 10.656,11.874 z"
     inkscape:connector-curvature="0" /><path
     style="fill:#663700"
     id="path46-5"
     d="m 23.356376,190.19869 c 4.08429,4.5313 3.922701,11.701 -0.35996,16 -4.26891,4.3237 -11.041,4.1405 -15.1139995,-0.3774 -4.0843,-4.5313 -3.9112,-11.701 0.3542,-16 4.2803995,-4.3115 11.0529995,-4.1527 15.1139995,0.37862 z"
     inkscape:connector-curvature="0" /><path
     style="fill:url(#linearGradient4741)"
     id="path50-1"
     d="m 23.346377,189.90869 c -1.453711,-1.5634 -2.895901,-2.6626 -4.015001,-3.371 0.751091,-1.2336 2.07669,-3.2122 4.34959,-6.1558 4.788011,-6.1802 13.73001,-16.611 30.34301,-33.344 24.805991,-25.038 50.994994,-47.267985 66.570984,-60.946984 4.938,-4.3359 7.9954,-6.9741 8.2954,-7.2184 0.18114,-0.14534 0.35074,-0.29558 0.50996,-0.4568 1.0695,-1.076 3.2766,-2.9802 3.2997,-4.1283 0.0242,-1.1432 -0.39689,-2.2962 -1.1999,-3.1878 l -0.18345,-0.20397 c -0.24921,-0.28214 -0.3092,-0.52031 -0.3092,-0.72794 0.006,-0.20519 0.0718,-0.40428 0.28267,-0.62168 0.0575,-0.0575 0.11884,-0.11322 0.20075,-0.16366 l 4.808,-3.278 4.626,5.13 L 23.244906,189.94434 z"
     inkscape:connector-curvature="0" /><path
     style="fill:#a06127"
     id="path52-7"
     d="m 24.453817,198.80598 c -1.38391,1.42359 -4.92154,0.48148 -7.90428,-2.09768 -2.98274,-2.57915 -4.29577,-5.83064 -2.91374,-7.25145 1.37244,-1.41878 5.32779,-0.90357 8.31131,1.67898 2.98352,2.58254 3.88874,6.24934 2.51052,7.68122 z"
     inkscape:connector-curvature="0" /><path
     style="opacity:0.98000004;fill:url(#linearGradient4737)"
     id="path54-1"
     d="m 24.506367,192.19869 c 1.326809,1.771 1.476809,1.8809 2.0883,3.1023 1.19991,-0.72672 3.276609,-2.8458 6.184109,-5.0932 6.1033,-4.7145 16.383,-13.802 33.112001,-30.29 25.036,-24.794 47.418983,-51.176 61.263983,-66.931984 4.3612,-4.9832 7.0148,-8.0611 7.2801,-8.3542 0.14653,-0.18321 0.29767,-0.35543 0.46034,-0.51421 1.0741,-1.0712 2.9997,-3.2977 4.0727,-3.2489 1.0811,0.0366 2.146,0.54718 2.9305,1.4412 l 0.18114,0.20397 c 0.25036,0.2797 0.47419,0.35786 0.66917,0.36763 0.19268,0.005 0.38535,-0.0539 0.60341,-0.26381 0.0563,-0.0574 0.11318,-0.11982 0.16614,-0.20275 l 3.376,-4.903 -4.062,-4.824 L 24.002266,192.25772 z"
     inkscape:connector-curvature="0" /><path
     style="fill:#a09989"
     id="path60-1"
     d="m 141.26636,5.5214056 c 3.046,-3.0779 8.134,-2.6993 11.33,0.8513 3.161,3.5050003 3.3,8.8670004 0.323,11.9570004 l -0.10349,0.11334 c -0.46842,0.47145 -0.37612,1.4168 0.20075,2.0519 0.57687,0.64 1.4306,0.78291 1.9152,0.31756 l 0.1846,-0.18687 c 2.1806,-2.1985 5.7918,-1.942 8.0531,0.56428 1.8806,2.0886 2.2498,5.0932 1.0591,7.3161 l 19.152,21.253 c 2.146,-1.1505 4.9611,-0.62779 6.8532,1.4657 2.2613,2.516 2.3306,6.339 0.15114,8.5497 l -0.20883,0.20886 c -0.43612,0.46046 -0.34266,1.3679 0.23421,2.0153 0.57803,0.63756 1.4537,0.78168 1.9268,0.30779 l 0.0933,-0.0943 c 3.07,-3.018 8.123,-2.615 11.284,0.9 3.196,3.542 3.3114,8.928 0.264,12.018 l -32.305,31.144984 c -1.4999,1.5145 -3.5305,2.2473 -5.6995,2.0641 -2.0998,-0.18687 -4.0958,-1.2177 -5.6187,-2.9069 -3.1613,-3.50539 -3.3112,-8.867184 -0.3242,-11.956984 l 0.0902,-0.10003 c 0.47996,-0.48 0.38304,-1.4168 -0.19037,-2.0641 -0.57918,-0.64 -1.4306,-0.78291 -1.9152,-0.31634 l -0.18691,0.18687 c -2.1806,2.1985 -5.7918,1.942 -8.0531,-0.5655 -1.8921,-2.0886 -2.2498,-5.0932 -1.058,-7.3161 l -18.46,-21.858 c -2.1575,1.1542 -4.9726,0.62779 -6.8532,-1.4657 -2.2613,-2.516 -2.3306,-6.339 -0.14999,-8.5497 l 0.20767,-0.20886 c 0.43727,-0.46168 0.34382,-1.3802 -0.23075,-2.0153 -0.57918,-0.64 -1.4653,-0.78291 -1.9268,-0.31145 l -0.0937,0.0918 c -3.069,3.0168 -8.1224,2.6138 -11.284,-0.8965 -3.19589,-3.542 -3.32279,-8.9405 -0.26882,-12.018 l 31.61,-30.5430004 z"
     inkscape:connector-curvature="0" /><path
     style="fill:#663700"
     id="path62-5"
     d="m 151.65036,88.086706 c -0.82608,-1.1786 -0.0879,-3.5176 0.82723,-4.4458 l 29.998,-30.656 c 0.918,-0.927 3.138,-1.503 4.211,-0.579 l -35.766,36.153 z"
     inkscape:connector-curvature="0" /><path
     style="fill:#663700"
     id="path64-2"
     d="m 153.95836,90.529706 c 1.0834,0.89527 3.0228,0.29924 3.9458,-0.62779 l 29.997,-30.168 c 0.87685,-0.92581 2.8382,-2.4183 1.6037,-4.8 l -35.766,36.153 z"
     inkscape:connector-curvature="0" /><path
     style="opacity:0.75;fill:#a06127"
     id="path66-7"
     d="m 160.88036,101.5187 c -0.86992,-1.2458 -0.57226,-3.688595 0.39804,-4.677894 l 33.459,-33.585 c 0.9703,-0.97588 2.9767,-1.1811 4.1073,-0.20397 l -37.958,38.350994 z"
     inkscape:connector-curvature="0" /><path
     style="fill:url(#linearGradient4730)"
     id="path68-6"
     d="m 165.49536,106.40869 c 1.1307,0.97345 4.4881,0.84031 5.4457,-0.13557 l 32.189,-32.851984 c 0.96914,-0.97588 1.696,-4.91 0.46842,-6.2901 l -38.074,39.328984 z"
     inkscape:connector-curvature="0" /><path
     style="fill:#663700"
     id="path70-1"
     d="m 123.96036,57.796706 c -0.82147,-1.1786 0.0115,-3.2977 0.92992,-4.226 l 30.69,-31.023 c 0.91723,-0.92703 3.3343,-1.5145 4.4419,-0.61802 l -36.112,35.909 z"
     inkscape:connector-curvature="0" /><path
     style="fill:#663700"
     id="path72-4"
     d="m 126.26836,60.361706 c 1.0764,0.92581 3.3689,0.38962 4.2919,-0.53741 l 30.689,-31.024 c 0.91954,-0.92459 1.8229,-3.1145 0.99684,-4.2871 l -36.92,35.787 z"
     inkscape:connector-curvature="0" /><path
     style="fill:url(#linearGradient4725)"
     id="path74-2"
     d="m 109.88636,44.116706 c -0.86877,-1.2458 -0.10338,-3.9329 0.863,-4.91 l 31.96,-32.3660004 c 0.972,-0.9771 3.958,-1.8199 5.088,-0.8379 l -37.958,38.1070004 z"
     inkscape:connector-curvature="0" /><path
     style="opacity:0.75;fill:#a06127"
     id="path76"
     d="m 114.72636,49.490706 c 1.5576,0.65222 3.4382,0.43726 4.5342,-0.3029 l 32.309,-33.099 c 0.9853,-0.99543 1.2807,-3.4687 0.82954,-4.9955 l -38.074,38.351 z"
     inkscape:connector-curvature="0" /><rect
     style="fill:url(#linearGradient4721)"
     id="rect78"
     transform="matrix(0.70361666,-0.71057976,-0.66943259,-0.7428728,0,0)"
     height="24.863001"
     width="43.542999"
     y="-162.88081"
     x="57.315464" /><path
     id="path3727"
     style="text-indent:0;text-align:start;text-transform:none;direction:ltr;block-progression:tb;color:#000000;fill:#8c531b;fill-rule:nonzero;enable-background:accumulate"
     d="m 206.78256,69.288706 c -0.0494,-2.3215 -0.92869,-4.6825 -2.625,-6.5625 -3.3575,-3.7333 -8.8348,-4.2025 -12.156,-0.9375 l -0.0937,0.0937 c -0.0851,0.0853 -0.20542,0.12614 -0.40625,0.0937 -0.20083,-0.0324 -0.45291,-0.15072 -0.65625,-0.375 -0.20695,-0.23223 -0.31765,-0.51715 -0.34375,-0.75 -0.0244,-0.21792 0.0306,-0.35957 0.0937,-0.4375 l 0,-0.0312 0.21875,-0.1875 c 2.4253,-2.4601 2.3331,-6.64 -0.125,-9.375 -1.9292,-2.1345 -4.7934,-2.7401 -7.125,-1.75 l -18.657,-20.721 c 1.064,-2.406 0.65,-5.418 -1.281,-7.562 -2.4594,-2.7258 -6.5087,-3.0425 -8.9375,-0.59375 l -0.15625,0.1875 c -0.094,0.0903 -0.24167,0.12631 -0.4375,0.0937 -0.19583,-0.0326 -0.41978,-0.14732 -0.625,-0.375 -0.20003,-0.22022 -0.32028,-0.51 -0.34375,-0.75 -0.0235,-0.24 0.0451,-0.41962 0.125,-0.5 l 0.0937,-0.0937 c 0.006,-0.006 -0.006,-0.0247 0,-0.0312 3.2028,-3.3478 3.039,-9.0336001 -0.3125,-12.7500004 -3.3924,-3.7689 -8.8907,-4.2064 -12.188,-0.875 l -31.594,30.5310004 -0.0312,0 c -3.30549,3.3314 -3.14259,9.0837 0.25,12.844 3.3576,3.7283 8.8348,4.2025 12.156,0.9375 l 0.098,-0.095 c 0.076,-0.078 0.203,-0.126 0.406,-0.093 0.20298,0.0328 0.45341,0.15085 0.65625,0.375 0.20209,0.22339 0.31783,0.51544 0.34375,0.75 0.0259,0.23456 -0.0255,0.36548 -0.0937,0.4375 l -0.1875,0.21875 c -2.4265,2.46 -2.3331,6.64 0.125,9.375 1.9187,2.1358 4.7533,2.7421 7.0938,1.75 l 17.969,21.312 c -1.0651,2.4053 -0.63052,5.4178 1.3125,7.5625 2.4594,2.7271 6.4774,3.0425 8.9062,0.59375 l 0.188,-0.187 c 0.0946,-0.0911 0.21098,-0.12616 0.40625,-0.0937 0.18439,0.0306 0.42582,0.17018 0.625,0.375 0.0118,0.0121 0.0197,0.0185 0.0312,0.0312 0.18532,0.22326 0.29068,0.52206 0.3125,0.75 0.0229,0.23949 -0.0364,0.38018 -0.125,0.46875 l 0,0.0312 -0.0937,0.0937 c -3.2337,3.3452 -3.0451,9.026894 0.3125,12.749984 1.6157,1.7921 3.7405,2.9239 6,3.125 l 0.0312,0 c 2.3331,0.19707 4.5346,-0.61256 6.1562,-2.25 l 32.312,-31.124984 0,-0.0312 c 1.6501,-1.665 2.4267,-3.923 2.3772,-6.244 z m -1.1875,0 c 0.0453,2.0206 -0.64479,3.9888 -2.0312,5.4062 l -32.313,31.153984 c -1.3781,1.3916 -3.2138,2.0756 -5.2188,1.9062 -1.9401,-0.17266 -3.7886,-1.1325 -5.2188,-2.7188 -2.9649,-3.28759 -3.0842,-8.321284 -0.34375,-11.155984 l 0.063,-0.094 c 0.008,-0.008 -0.007,-0.0234 0,-0.0312 0.37364,-0.38962 0.51668,-0.90554 0.46875,-1.4062 -0.0489,-0.51074 -0.25464,-1.0194 -0.625,-1.4375 -0.37237,-0.41148 -0.84735,-0.6676 -1.3438,-0.75 -0.4964,-0.0824 -1.0475,0.0308 -1.4375,0.40625 l -0.1875,0.1875 c -1.9323,1.9482 -5.1242,1.7567 -7.1875,-0.53125 -1.7261,-1.9053 -2.0313,-4.6745 -0.96875,-6.6562 l 0.189,-0.345 -0.25,-0.313 -18.468,-21.875 -0.3125,-0.34375 -0.4375,0.21875 c -1.9006,1.0168 -4.409,0.56649 -6.125,-1.3438 -2.0645,-2.2971 -2.0909,-5.7574 -0.15625,-7.7188 l 0.1875,-0.21875 0.0312,0 c 0.36906,-0.38966 0.46138,-0.93862 0.40625,-1.4375 -0.0551,-0.49888 -0.25252,-0.99452 -0.625,-1.4062 -0.37634,-0.41586 -0.87477,-0.6692 -1.375,-0.75 -0.50023,-0.0808 -1.0521,0.0438 -1.4375,0.4375 l -0.094,0.062 c -2.8165,2.7687 -7.4414,2.4484 -10.406,-0.84375 -2.9881,-3.3117 -3.0834,-8.3572 -0.3125,-11.188 l 0.03,-0.03 31.592,-30.5320004 c 2.796,-2.8243 7.47,-2.5197 10.469,0.8126 2.965,3.2872004 3.075,8.3212004 0.344,11.1560004 l -0.0312,0 -0.0625,0.0937 -0.032,0.031 0.031,0 c -0.37104,0.3892 -0.51759,0.93802 -0.46875,1.4375 0.0498,0.50932 0.24816,0.99136 0.625,1.4062 0.37165,0.41233 0.84733,0.6987 1.3438,0.78125 0.49642,0.0825 1.0469,-0.0312 1.4375,-0.40625 l 0,-0.0312 0.188,-0.188 c 1.9323,-1.9482 5.1242,-1.7243 7.1875,0.5625 1.7162,1.906 2.0295,4.6446 0.96875,6.625 l -0.188,0.375 0.281,0.313 19.156,21.25 0.313,0.344 0.406,-0.219 c 1.8881,-1.0123 4.3971,-0.56796 6.125,1.3438 2.0645,2.2971 2.1211,5.7574 0.1875,7.7188 l -0.21875,0.21875 c -0.36725,0.38775 -0.49331,0.90841 -0.4375,1.4062 0.0558,0.49784 0.28633,0.99114 0.65625,1.4062 l 0,0.0312 c 0.37469,0.41328 0.84397,0.66941 1.3438,0.75 0.49978,0.0806 1.0496,-0.0489 1.4375,-0.4375 l 0.0937,-0.0937 c 2.8165,-2.7687 7.4725,-2.4219 10.438,0.875 1.4996,1.662 2.267,3.7515 2.3125,5.7812 z"
     inkscape:connector-curvature="0" /><path
     id="path3739"
     style="text-indent:0;text-align:start;text-transform:none;direction:ltr;block-progression:tb;color:#000000;fill:#8c531b;fill-rule:nonzero;enable-background:accumulate"
     d="m 26.906376,198.28869 c 0.0686,-3.0428 -0.975479,-6.1152 -3.125,-8.5 l -0.21875,-0.25 -0.0937,0.0312 c -4.304401,-4.4832 -11.243,-4.6325 -15.6560005,-0.1875 -4.4932999,4.529 -4.6743999,12.074 -0.375,16.844 4.2876005,4.7562 11.4719905,4.9292 15.9689995,0.375 2.255691,-2.2644 3.43139,-5.2697 3.500001,-8.3125 z m -1.1875,-0.0312 c -0.0618,2.7496 -1.1293,5.4964 -3.156199,7.5312 -4.04131,4.0932 -10.392,3.9045 -14.2500005,-0.375 -3.8691,-4.2926 -3.6938,-11.118 0.34375,-15.188 4.0535005,-4.083 10.4040005,-3.916 14.2500005,0.375 1.9347,2.1465 2.874299,4.9067 2.8125,7.6562 z"
     inkscape:connector-curvature="0" /></svg>