<?xml version="1.0"?>
<?metis version="5.2.2"?>
<?metisxml version="1.2"?>
<!DOCTYPE svg  PUBLIC "-//W3C//DTD SVG 1.0//EN"
 "http://www.w3.org/TR/2001/REC-SVG-20010904/DTD/svg10.dtd">

<svg>
 <title>Symbol library: relationship_object_symbols.svg</title>
 <defs>
  <symbol id="oid1" xml:space="preserve" class="METIS_SYMBOL">
   <title>Relationship (Obj)</title>
    <path d="M 13.3778 8.6111 C 8.4889 8.6111 3.6 13.5 
     3.6 18.3889 C 3.6 18.3889 3.6 174.833 3.6 174.833 
     C 3.6 179.722 8.4889 184.611 13.3778 184.611 C 13.3778 184.611 
     169.822 184.611 169.822 184.611 C 174.711 184.611 179.6 179.722 
     179.6 174.833 C 179.6 174.833 179.6 18.3889 179.6 18.3889 
     C 179.6 13.5 174.711 8.6111 169.822 8.6111 Z"
     style="stroke:none; fill:#ffffff; fill-opacity:100%"     class="TAG:iconbackground"></path>
    <path d="M 200.566 8.6111 C 194.083 8.6111 187.6 13.5 
     187.6 18.3889 C 187.6 18.3889 187.6 174.833 187.6 174.833 
     C 187.6 179.722 194.083 184.611 200.566 184.611 C 200.566 184.611 
     550.634 184.611 550.634 184.611 C 557.117 184.611 563.6 179.722 
     563.6 174.833 C 563.6 174.833 563.6 18.3889 563.6 18.3889 
     C 563.6 13.5 557.117 8.6111 550.634 8.6111 Z"
     style="stroke:none; fill:#ffffff; fill-opacity:100%"     class="TAG:textbackground"></path>
    <g>
      <desc>METIS_TEXT_GROUP</desc>
      <text  x="195.6" y="31.6111"
       style=" stroke:#000000; stroke-width:1; font-family:sans-serif; font-size:16;"
       class="TAG:text"></text>
      <rect x="195.6" y="16.6111" width="360" height="160"
       style=" stroke:#000000; stroke-width:1; fill:#ffffff; fill-opacity:0%"></rect>
    </g>
    <image x="11.6" y="16.6111" width="160" height="160" xlink:role="symbol" xlink:title="Text" xlink:href="metis:stdsyms#oid40"     class="TAG:icon"></image>
    <g>
      <desc>METIS_TEXT_GROUP</desc>
      <text  x="195.6" y="149.611"
       style=" stroke:#000000; stroke-width:1; font-family:sans-serif; font-size:14;"
       class="TAG:extratext"></text>
      <rect x="195.6" y="136.611" width="360" height="48"
       style=" stroke:#000000; stroke-width:1; fill:#ffffff; fill-opacity:0%"></rect>
    </g>
    <rect x="0" y="0" width="576" height="192"
     style=" stroke:#000000; stroke-width:1; fill:#ffffff; fill-opacity:100%"></rect>
    <polygon points="512.504 40.1606 524.252 48.6529 512.504 56.1606 
     512.504 40.1606"
     style=" stroke:#000000; stroke-width:1; fill:#000000; fill-opacity:100%"     class="TAG:arrowhead"></polygon>
    <polyline points="56.2519 48.1606 512.252 48.1606"
     style=" stroke:#000000; stroke-width:1;"></polyline>
    <g>
      <desc>METIS_TEXT_GROUP</desc>
      <text  x="16" y="89.2222"
       style=" stroke:#000000; stroke-width:1; font-family:sans-serif; font-size:20; text-align:center vertical-align:middle;"
       class="TAG:text_"></text>
      <rect x="16" y="70.2222" width="544" height="113.778"
       style=" stroke:#000000; stroke-width:1; fill:#ffffff; fill-opacity:0%"></rect>
    </g>
  </symbol>
  <symbol id="oid2" xml:space="preserve" class="METIS_SYMBOL">
   <title>Part</title>
    <rect x="0" y="0" width="576" height="192"
     style=" stroke:#000000; stroke-width:1; fill:#ffffff; fill-opacity:100%"></rect>
    <g>
      <desc>METIS_TEXT_GROUP</desc>
      <text  x="140.611" y="91"
       style=" stroke:#000000; stroke-width:1; font-family:sans-serif; font-size:20; text-align:center vertical-align:middle;"
       class="TAG:text_"></text>
      <rect x="140.611" y="72" width="298.667" height="51.5556"
       style=" stroke:#000000; stroke-width:1; fill:#ffffff; fill-opacity:0%"></rect>
    </g>
    <polygon points="519.853 40 528 47.8346 519.94 56 
     512 47.7824 519.853 40"
     style=" stroke:#000000; stroke-width:1; fill:#000000; fill-opacity:100%"     class="TAG:arrowhead"></polygon>
    <polyline points="512 48 40 48"
     style=" stroke:#000000; stroke-width:1;"></polyline>
  </symbol>
  <symbol id="oid3" xml:space="preserve" class="METIS_SYMBOL">
   <title>Member</title>
    <rect x="0" y="0" width="576" height="192"
     style=" stroke:#000000; stroke-width:1; fill:#ffffff; fill-opacity:100%"></rect>
    <g>
      <desc>METIS_TEXT_GROUP</desc>
      <text  x="140.611" y="91"
       style=" stroke:#000000; stroke-width:1; font-family:sans-serif; font-size:20; text-align:center vertical-align:middle;"
       class="TAG:text_"></text>
      <rect x="140.611" y="72" width="298.667" height="51.5556"
       style=" stroke:#000000; stroke-width:1; fill:#ffffff; fill-opacity:0%"></rect>
    </g>
    <polygon points="519.853 40 528 47.8346 519.94 56 
     512 47.7824 519.853 40"
     style=" stroke:#000000; stroke-width:1; fill:#ffffff; fill-opacity:100%"     class="TAG:arrowhead"></polygon>
    <polyline points="512 48 56 48"
     style=" stroke:#000000; stroke-width:1;"></polyline>
  </symbol>
 </defs>
 <use xlink:href="#oid1"/>
</svg>
