<?xml version="1.0"?>
<?metis version="3.3.3"?>
<?metisxml version="1.1"?>
<!DOCTYPE svg  PUBLIC "-//W3C//DTD SVG August 1999//EN"
 "http://www.w3.org/Graphics/SVG/svg-19990812.dtd">

<svg width="200" height="200">
 <title>Symbol library: reportword.svg</title>
 <defs>
  <symbol id="oid1" xml:space="preserve" class="METIS_SYMBOL">
   <title>Untitled</title>
    <g>
      <rect x="0" y="0" width="256" height="256"
       style="stroke:none; fill:#0000a5; fill-opacity:100%"></rect>
      <rect x="18.2857" y="18.2857" width="219.429" height="219.429"
       style="stroke:none; fill:#ffffff; fill-opacity:100%"></rect>
      <rect x="65.8286" y="65.8286" width="124.343" height="124.343"
       style="stroke:none; fill:#0000a5; fill-opacity:100%"></rect>
      <rect x="80.4571" y="80.4571" width="95.0857" height="95.0857"
       style="stroke:none; fill:#ffffff; fill-opacity:100%"></rect>
      <polygon points="80.4571 95.0857 80.4571 104.229 89.6 104.229 
       89.6 162.743 107.886 162.743 107.886 157.257 111.543 157.257 
       111.543 144.457 117.029 144.457 117.029 138.971 122.514 138.971 
       122.514 162.743 138.971 162.743 138.971 157.257 144.457 157.257 
       144.457 148.114 148.114 148.114 148.114 138.971 153.6 138.971 
       153.6 129.829 157.257 129.829 157.257 120.686 162.743 120.686 
       162.743 111.543 166.4 111.543 166.4 102.4 175.543 102.4 
       175.543 95.0857 148.114 95.0857 148.114 102.4 153.6 102.4 
       153.6 117.029 148.114 117.029 148.114 122.514 142.629 122.514 
       142.629 95.0857 120.686 95.0857 120.686 107.886 117.029 107.886 
       117.029 120.686 111.543 120.686 111.543 126.171 106.057 126.171 
       106.057 102.4 117.029 102.4 117.029 95.0857 80.4571 95.0857 
       80.4571 95.0857 80.4571 95.0857 "
       style="stroke:none; fill:#0000a5; fill-opacity:100%"></polygon>
      <g>
	<desc>METIS_TEXT_GROUP</desc>
	<text  x="18.2857" y="205.171"
	 style=" stroke:#000000; stroke-width:1; font-family:sans-serif; font-size:16;"
	 class="TAG:ReportName"></text>
	<rect x="18.2857" y="190.171" width="219.429" height="47.5429"
	 style=" stroke:#000000; stroke-width:1; fill:#95f5ff; fill-opacity:0%"></rect>
      </g>
    </g>
  </symbol>
 </defs>
</svg>
