<?xml version="1.0" encoding="UTF-8" standalone="no"?>
<!-- Generator: Adobe Illustrator 13.0.2, SVG Export Plug-In  -->

<svg
   xmlns:dc="http://purl.org/dc/elements/1.1/"
   xmlns:cc="http://creativecommons.org/ns#"
   xmlns:rdf="http://www.w3.org/1999/02/22-rdf-syntax-ns#"
   xmlns:svg="http://www.w3.org/2000/svg"
   xmlns="http://www.w3.org/2000/svg"
   xmlns:xlink="http://www.w3.org/1999/xlink"
   xmlns:sodipodi="http://sodipodi.sourceforge.net/DTD/sodipodi-0.dtd"
   xmlns:inkscape="http://www.inkscape.org/namespaces/inkscape"
   enable-background="new 21.152 45.375 219 219"
   xml:space="preserve"
   height="219px"
   width="219px"
   version="1.1"
   y="0px"
   x="0px"
   viewBox="21.152 45.375 219 219"
   id="svg2"
   inkscape:version="0.47 r22583"
   sodipodi:docname="report.svg"><sodipodi:namedview
     pagecolor="#ffffff"
     bordercolor="#666666"
     borderopacity="1"
     objecttolerance="10"
     gridtolerance="10"
     guidetolerance="10"
     inkscape:pageopacity="0"
     inkscape:pageshadow="2"
     inkscape:window-width="1600"
     inkscape:window-height="1178"
     id="namedview29"
     showgrid="false"
     inkscape:zoom="4.2511416"
     inkscape:cx="72.803974"
     inkscape:cy="109.5"
     inkscape:window-x="1272"
     inkscape:window-y="-8"
     inkscape:window-maximized="1"
     inkscape:current-layer="svg2" /><metadata
     id="metadata4"><rdf:RDF><cc:Work
         rdf:about=""><dc:format>image/svg+xml</dc:format><dc:type
           rdf:resource="http://purl.org/dc/dcmitype/StillImage" /><dc:title /></cc:Work></rdf:RDF></metadata><defs
     id="defs6"><inkscape:perspective
       sodipodi:type="inkscape:persp3d"
       inkscape:vp_x="0 : 109.5 : 1"
       inkscape:vp_y="0 : 1000 : 0"
       inkscape:vp_z="219 : 109.5 : 1"
       inkscape:persp3d-origin="109.5 : 73 : 1"
       id="perspective12" /><linearGradient
       id="linearGradient3641"><stop
         style="stop-color:#e7e7e7;stop-opacity:1;"
         offset="0"
         id="stop3643" /><stop
         style="stop-color:#ffffff;stop-opacity:1;"
         offset="1"
         id="stop3645" /></linearGradient><linearGradient
       inkscape:collect="always"
       xlink:href="#linearGradient3641"
       id="linearGradient3647"
       x1="70.534958"
       y1="11.90625"
       x2="219.00954"
       y2="223.94885"
       gradientUnits="userSpaceOnUse"
       gradientTransform="translate(19.152,45.375)" /></defs><path
     id="path3639"
     d="m 34.93325,59.28125 0,157.375 c 7.14749,4.53175 17.025418,8.13184 30.625,8.75 40.83051,1.85594 55.66049,-13.00424 62.15625,-19.5 6.49577,-6.49577 21.36334,-18.5625 44.5625,-18.5625 23.19915,0 36.91811,10.36484 48.25,24.125 1.33003,1.61504 2.5598,3.60326 3.71875,5.8125 l 0,-158 -189.3125,0 z"
     style="color:#000000;fill:url(#linearGradient3647);fill-opacity:1;stroke:none" /><path
     style="fill:#8a8a8a;fill-opacity:1;stroke:none"
     d="m 34.93325,57.28125 0,2 0,157.375 0,1.09375 0.9375,0.59375 c 7.446724,4.72147 17.686183,8.43034 31.59375,9.0625 20.668109,0.93946 34.93948,-2.34687 44.875,-6.78125 9.93552,-4.43438 15.53447,-10.06572 18.78125,-13.3125 l 0.21875,-0.1875 c 6.37649,-6.32937 20.62704,-17.78125 42.9375,-17.78125 22.60345,0 35.57711,9.87711 46.71875,23.40625 1.20257,1.46026 2.35086,3.33779 3.46875,5.46875 l 3.78125,-0.9375 0,-158 0,-2 -2,0 -189.3125,0 -2,0 z m 4,4 185.3125,0 0,149.1875 c -0.0665,-0.083 -0.12025,-0.19959 -0.1875,-0.28125 -11.52214,-13.99118 -25.9864,-24.84375 -49.78125,-24.84375 -23.89268,0 -39.26972,12.45722 -45.96875,19.15625 -3.24898,3.24898 -8.31397,8.31309 -17.625,12.46875 -9.31103,4.15566 -22.86885,7.35398 -43.03125,6.4375 -12.742708,-0.57921 -21.941086,-3.84519 -28.71875,-7.9375 l 0,-154.1875 z"
     id="rect2862" /><rect
     style="color:#000000;fill:#bdedd9;fill-opacity:1;fill-rule:evenodd;stroke:none;stroke-width:4;marker:none;visibility:visible;display:inline;overflow:visible;enable-background:accumulate"
     id="rect2818"
     width="160.19226"
     height="8.2330828"
     x="51.732021"
     y="68.076401" /><rect
     y="84.546982"
     x="51.732021"
     height="8.2330828"
     width="160.19226"
     id="rect3592"
     style="color:#000000;fill:#bdedd9;fill-opacity:1;fill-rule:evenodd;stroke:none;stroke-width:4;marker:none;visibility:visible;display:inline;overflow:visible;enable-background:accumulate" /><rect
     style="color:#000000;fill:#bdedd9;fill-opacity:1;fill-rule:evenodd;stroke:none;stroke-width:4;marker:none;visibility:visible;display:inline;overflow:visible;enable-background:accumulate"
     id="rect3594"
     width="160.19226"
     height="8.2330828"
     x="51.732021"
     y="101.01756" /><rect
     y="117.48814"
     x="51.732021"
     height="8.2330828"
     width="160.19226"
     id="rect3596"
     style="color:#000000;fill:#bdedd9;fill-opacity:1;fill-rule:evenodd;stroke:none;stroke-width:4;marker:none;visibility:visible;display:inline;overflow:visible;enable-background:accumulate" /><rect
     style="color:#000000;fill:#bdedd9;fill-opacity:1;fill-rule:evenodd;stroke:none;stroke-width:4;marker:none;visibility:visible;display:inline;overflow:visible;enable-background:accumulate"
     id="rect3598"
     width="160.19226"
     height="8.2330828"
     x="51.732021"
     y="133.95872" /><rect
     y="150.42931"
     x="51.732021"
     height="8.2330828"
     width="160.19226"
     id="rect3600"
     style="color:#000000;fill:#bdedd9;fill-opacity:1;fill-rule:evenodd;stroke:none;stroke-width:4;marker:none;visibility:visible;display:inline;overflow:visible;enable-background:accumulate" /><rect
     style="color:#000000;fill:#bdedd9;fill-opacity:1;fill-rule:evenodd;stroke:none;stroke-width:4;marker:none;visibility:visible;display:inline;overflow:visible;enable-background:accumulate"
     id="rect3602"
     width="160.19226"
     height="8.2330828"
     x="51.732021"
     y="166.89989" /><path
     style="color:#000000;fill:#bdedd9;fill-opacity:1;fill-rule:evenodd;stroke:none;stroke-width:4;marker:none;visibility:visible;display:inline;overflow:visible;enable-background:accumulate"
     d="M 30.59375 138 L 30.59375 146.21875 L 128.3125 146.21875 C 134.71434 143.70725 142.32137 141.96875 151.125 141.96875 C 160.09565 141.96875 167.64173 143.52217 174.1875 146.21875 L 190.78125 146.21875 L 190.78125 138 L 30.59375 138 z "
     transform="translate(21.152,45.375)"
     id="rect3604" /><path
     style="color:#000000;fill:#bdedd9;fill-opacity:1;fill-rule:evenodd;stroke:none;stroke-width:4;marker:none;visibility:visible;display:inline;overflow:visible;enable-background:accumulate"
     d="M 30.59375 154.46875 L 30.59375 162.6875 L 104.34375 162.6875 C 105.16309 161.90853 105.9221 161.17165 106.5625 160.53125 C 108.29504 158.79871 110.63961 156.65925 113.5625 154.46875 L 30.59375 154.46875 z M 187.90625 154.46875 C 188.89369 155.27154 189.84015 156.10918 190.78125 156.96875 L 190.78125 154.46875 L 187.90625 154.46875 z "
     transform="translate(21.152,45.375)"
     id="rect3622" /><path
     style="color:#000000;fill:#bdedd9;fill-opacity:1;fill-rule:evenodd;stroke:none;stroke-width:4;marker:none;visibility:visible;display:inline;overflow:visible;enable-background:accumulate"
     d="M 30.59375 170.9375 L 30.59375 178.1875 C 32.224339 178.57055 33.936123 178.8782 35.71875 179.15625 L 67.40625 179.15625 C 78.858151 177.57639 87.174635 174.38139 93.28125 170.9375 L 30.59375 170.9375 z "
     transform="translate(21.152,45.375)"
     id="rect3624" /><path
     id="path3629"
     d="m 34.93325,57.28125 0,2 0,157.375 0,1.09375 0.9375,0.59375 c 7.446724,4.72147 17.686183,8.43034 31.59375,9.0625 20.668109,0.93946 34.93948,-2.34687 44.875,-6.78125 9.93552,-4.43438 15.53447,-10.06572 18.78125,-13.3125 l 0.21875,-0.1875 c 6.37649,-6.32937 20.62704,-17.78125 42.9375,-17.78125 22.60345,0 35.57711,9.87711 46.71875,23.40625 1.20257,1.46026 2.35086,3.33779 3.46875,5.46875 l 3.78125,-0.9375 0,-158 0,-2 -2,0 -189.3125,0 -2,0 z m 4,4 185.3125,0 0,149.1875 c -0.0665,-0.083 -0.12025,-0.19959 -0.1875,-0.28125 -11.52214,-13.99118 -25.9864,-24.84375 -49.78125,-24.84375 -23.89268,0 -39.26972,12.45722 -45.96875,19.15625 -3.24898,3.24898 -8.31397,8.31309 -17.625,12.46875 -9.31103,4.15566 -22.86885,7.35398 -43.03125,6.4375 -12.742708,-0.57921 -21.941086,-3.84519 -28.71875,-7.9375 l 0,-154.1875 z"
     style="fill:#8a8a8a;fill-opacity:1;stroke:none" /></svg>