<?xml version="1.0"?>
<?metis version="3.3.3"?>
<?metisxml version="1.1"?>
<!DOCTYPE svg  PUBLIC "-//W3C//DTD SVG August 1999//EN"
 "http://www.w3.org/Graphics/SVG/svg-19990812.dtd">

<svg width="200" height="200">
 <title>Symbol library: reportexcel.svg</title>
 <defs>
  <symbol id="oid1" xml:space="preserve" class="METIS_SYMBOL">
   <title>Untitled</title>
    <g>
      <rect x="0" y="0" width="256" height="256"
       style="stroke:none; fill:#006e00; fill-opacity:100%"></rect>
      <rect x="18.2857" y="18.2857" width="219.428" height="219.429"
       style="stroke:none; fill:#ffffff; fill-opacity:100%"></rect>
      <rect x="65.8286" y="65.8286" width="124.343" height="124.343"
       style="stroke:none; fill:#006e00; fill-opacity:100%"></rect>
      <rect x="80.4572" y="80.4571" width="95.0855" height="95.0857"
       style="stroke:none; fill:#ffffff; fill-opacity:100%"></rect>
      <g>
	<desc>METIS_TEXT_GROUP</desc>
	<text  x="18.2857" y="205.171"
	 style=" stroke:#000000; stroke-width:1; font-family:sans-serif; font-size:16;"
	 class="TAG:ReportName"></text>
	<rect x="18.2857" y="190.171" width="219.428" height="47.5429"
	 style=" stroke:#000000; stroke-width:1; fill:#95f5ff; fill-opacity:0%"></rect>
      </g>
      <polygon points="81.9947 94.624 82.0352 103.919 86.6133 103.876 
       86.6133 99.2716 91.2718 99.2716 91.2718 103.919 86.6133 103.919 
       86.6133 108.61 91.2718 108.48 91.2718 103.919 95.8905 103.876 
       95.8905 108.437 91.2718 108.48 91.232 113.17 95.8101 113.128 
       95.8905 108.437 100.509 108.566 100.469 113.128 95.7703 113.128 
       95.8507 117.774 100.429 117.732 100.469 113.17 105.168 113.128 
       105.088 117.732 100.55 117.688 100.509 122.465 105.047 122.422 
       105.088 117.774 109.666 117.732 109.786 122.465 105.088 122.379 
       105.088 131.63 100.469 131.63 100.509 136.191 95.931 136.277 
       95.8507 141.011 91.2718 141.011 91.232 145.529 86.6937 145.572 
       86.6133 150.176 81.9947 150.176 81.9548 159.428 142.197 159.342 
       142.116 154.738 137.458 154.738 137.498 150.176 132.839 150.133 
       132.919 145.572 128.261 145.486 128.181 140.968 123.642 140.882 
       123.602 136.277 118.984 136.321 118.984 131.717 114.365 131.673 
       114.365 127.026 109.786 126.983 109.746 122.508 114.446 122.422 
       114.365 127.026 119.024 127.026 118.943 131.717 123.682 131.673 
       123.562 136.277 128.341 136.277 128.261 140.882 132.919 140.925 
       132.919 145.615 137.418 145.486 137.538 150.219 142.157 150.133 
       142.157 164.075 174.567 163.989 174.527 154.781 169.828 154.781 
       169.788 150.219 165.169 150.091 165.21 140.795 169.868 140.882 
       169.788 131.673 146.735 131.63 146.695 122.422 151.394 122.379 
       151.273 117.688 156.013 117.732 156.013 113.128 160.671 113.084 
       160.671 108.437 165.169 108.437 165.21 103.833 169.868 103.876 
       169.828 94.5813 137.538 94.624 137.458 99.229 132.919 99.229 
       132.919 103.919 128.301 103.919 128.301 108.523 123.642 108.523 
       123.562 103.876 118.903 103.876 118.984 99.1429 114.405 99.1855 
       114.441 94.7749 81.9947 94.624 81.9947 94.624 "
       style="stroke:none; fill:#006e00; fill-opacity:100%"></polygon>
    </g>
  </symbol>
 </defs>
</svg>
