<?xml version="1.0"?>
<?metis version="3.1"?>
<?metisxml version="1.0"?>
<!DOCTYPE svg  PUBLIC "-//W3C//DTD SVG August 1999//EN"
 "http://www.w3.org/Graphics/SVG/svg-19990812.dtd">

<svg width="200" height="200">
 <title>Symbol library: resource.svg</title>
 <defs>
  <symbol id="oid0" xml:space="preserve" class="METIS_SYMBOL">
   <title>Resource</title>
    <g>
      <polygon points="0 0 0 304 16.2963 320 
       880 320 880 16 863.704 0 0 0 
       0 0 0 0 0 0 0 0 0 0 "
       style=" stroke:#000000; stroke-width:1; fill:#9b9b9b; fill-opacity:100%"       class="TAG:shadow"></polygon>
      <rect x="0" y="0" width="240" height="304"
       style=" stroke:#000000; stroke-width:1; fill:#ffffff; fill-opacity:100%"       class="TAG:PictureBackground"></rect>
      <rect x="240" y="0" width="624" height="304"
       style=" stroke:#000000; stroke-width:1; fill:#96a5ff; fill-opacity:100%"       class="TAG:canvas"></rect>
      <g>
	<desc>METIS_TEXT_GROUP</desc>
	<text  x="256" y="15.8"
	 style=" stroke:#000000; stroke-width:1; font-family:sans-serif; font-size:16;"
	 class="TAG:text">text</text>
	<rect x="256" y="0" width="608" height="304"
	 style=" stroke:#000000; stroke-width:1; fill:#ffffff; fill-opacity:0%"></rect>
      </g>
      <g>
	<g>
	  <polygon points="136.14 78.5905 136.14 53.2046 143.232 47.2317 
	   150.325 47.2317 154.314 49.6209 162.739 49.6209 165.401 47.2317 
	   165.401 36.7786 160.966 34.688 150.769 34.688 148.993 37.0771 
	   145.891 37.0771 138.353 32 118.4 32 106.428 40.0637 
	   93.1267 56.7886 92.6838 62.4628 100.665 58.5806 114.41 48.4263 
	   118.4 48.4263 121.503 51.7115 121.503 79.1881 136.14 78.5905 
	   136.14 78.5905 136.14 78.5905 136.14 78.5905 136.14 78.5905 
	   136.14 78.5905 136.14 78.5905 "
	   style=" stroke:#000000; stroke-width:1; fill:#dcdcdc; fill-opacity:100%"></polygon>
	  <polygon points="121.554 78.6488 119.459 80.3412 118.622 128.857 
	   116.946 141.549 142.071 141.549 139.14 128.575 138.303 80.0593 
	   136.207 78.6488 121.554 78.6488 121.554 78.6488 121.554 78.6488 
	   121.554 78.6488 121.554 78.6488 121.554 78.6488 121.554 78.6488 "
	   style=" stroke:#000000; stroke-width:1; fill:#a50000; fill-opacity:100%"></polygon>
	</g>
	<g>
	  <polygon points="183.633 63.135 174.214 61.5485 87.5287 109.465 
	   59.7335 109.465 44.1872 124.696 45.1295 128.821 54.0801 128.821 
	   63.0316 125.648 63.5023 120.888 63.5023 116.763 66.7998 115.811 
	   66.7998 125.331 69.6268 129.774 62.5605 132.629 44.1872 132.629 
	   44.1872 138.975 68.6844 140.562 84.7023 138.658 94.1245 123.427 
	   186.461 73.9242 187.404 65.3562 183.633 63.135 183.633 63.135 
	   183.633 63.135 183.633 63.135 183.633 63.135 183.633 63.135 183.633 63.135 "
	   style=" stroke:#000000; stroke-width:1; fill:#9b9b9b; fill-opacity:100%"></polygon>
	  <rect x="72.9244" y="114.541" width="9.89319" height="9.20244" rx="10" ry="10"
	   style=" stroke:#000000; stroke-width:1; fill:#464646; fill-opacity:100%"></rect>
	  <polyline points="72.9244 118.032 82.8182 118.032"
	   style=" stroke:#000000; stroke-width:1;"></polyline>
	  <polyline points="72.9244 120.888 82.8182 120.888"
	   style=" stroke:#000000; stroke-width:1;"></polyline>
	  <ellipse  cx="176.804" cy="69.3226" rx="3.53329" ry="3.33193"
	   style=" stroke:#000000; stroke-width:1; fill:#ffffff; fill-opacity:100%"></ellipse>
	  <polygon points="91.2975 112.32 170.914 70.1163 173.742 75.8281 
	   95.0663 118.032 91.2975 112.32 91.2975 112.32 91.2975 112.32 
	   91.2975 112.32 91.2975 112.32 91.2975 112.32 91.2975 112.32 "
	   style=" stroke:#000000; stroke-width:1; fill:#9b9b9b; fill-opacity:100%"></polygon>
	</g>
	<g>
	  <polygon points="53.5908 47.4833 42.0951 55.2265 42.0951 61.7312 
	   93.1363 92.3943 99.1139 91.7749 99.1139 95.1817 105.092 95.8012 
	   110.61 103.854 129.923 88.987 116.588 86.8191 116.588 82.4829 
	   109.69 82.1734 110.61 78.4566 61.4083 47.4833 53.5908 47.4833 
	   53.5908 47.4833 53.5908 47.4833 53.5908 47.4833 53.5908 47.4833 
	   53.5908 47.4833 53.5908 47.4833 "
	   style=" stroke:#000000; stroke-width:1; fill:#006e00; fill-opacity:100%"></polygon>
	  <polygon points="123.025 94.5627 117.967 98.5885 168.09 129.562 
	   169.009 134.518 189.7 139.783 192 137.306 179.127 126.155 
	   173.606 125.535 123.025 94.5627 123.025 94.5627 123.025 94.5627 
	   123.025 94.5627 123.025 94.5627 123.025 94.5627 123.025 94.5627 "
	   style=" stroke:#000000; stroke-width:1; fill:#dcdcdc; fill-opacity:100%"></polygon>
	  <polygon points="59.1091 54.6072 52.6717 58.9433 115.668 96.4211 
	   120.726 92.7038 59.1091 54.6072 59.1091 54.6072 59.1091 54.6072 
	   59.1091 54.6072 59.1091 54.6072 59.1091 54.6072 59.1091 54.6072 "
	   style=" stroke:#000000; stroke-width:1; fill:#006e00; fill-opacity:100%"></polygon>
	</g>
      </g>
      <g>
	<polygon points="79.5714 178.789 79.5714 178.789 92.0634 222.653 
	 154.523 200.721 142.031 156.857 79.5714 178.789 79.5714 178.789 
	 79.5714 178.789 79.5714 178.789 79.5714 178.789 79.5714 178.789 "
	 style=" stroke:#000000; stroke-width:1; fill:#696969; fill-opacity:100%"	 class="TAG:right"></polygon>
	<polygon points="67.0795 222.654 67.0795 244.585 117.048 244.585 
	 117.048 222.654 129.539 178.789 104.556 178.789 92.0634 222.654 
	 79.5714 178.789 54.5871 178.789 67.0795 222.654 67.0795 222.654 
	 67.0795 222.654 67.0795 222.654 67.0795 222.654 67.0795 222.654 "
	 style=" stroke:#000000; stroke-width:1; fill:#b9b9b9; fill-opacity:100%"	 class="TAG:front"></polygon>
	<polygon points="54.5871 178.789 54.5871 178.789 117.048 156.857 
	 142.031 156.857 79.5714 178.789 54.5871 178.789 54.5871 178.789 
	 54.5871 178.789 54.5871 178.789 54.5871 178.789 54.5871 178.789 "
	 style=" stroke:#000000; stroke-width:1; fill:#dcdcdc; fill-opacity:100%"	 class="TAG:top"></polygon>
	<polygon points="104.556 178.789 104.556 178.789 167.016 156.857 
	 192 156.857 129.539 178.789 104.556 178.789 104.556 178.789 
	 104.556 178.789 104.556 178.789 104.556 178.789 104.556 178.789 "
	 style=" stroke:#000000; stroke-width:1; fill:#dcdcdc; fill-opacity:100%"	 class="TAG:top"></polygon>
	<polygon points="164.381 242.7 100.359 265.232 117.048 244.585 
	 117.048 222.653 129.539 178.789 192 156.857 179.508 200.721 
	 179.508 222.738 179.215 226.765 177.556 231.134 175.214 235.075 
	 172.188 238.331 168.675 240.645 164.381 242.7 164.381 242.7 
	 164.381 242.7 164.381 242.7 164.381 242.7 164.381 242.7 "
	 style=" stroke:#000000; stroke-width:1; fill:#696969; fill-opacity:100%"	 class="TAG:right"></polygon>
	<ellipse  cx="92.0634" cy="244.585" rx="24.9841" ry="21.9319"
	 style=" stroke:#000000; stroke-width:1; fill:#b9b9b9; fill-opacity:100%"	 class="TAG:front"></ellipse>
	<polygon points="106.117 159.599 106.117 159.599 106.117 163.71 
	 114.316 163.71 114.316 159.599 106.117 159.599 106.117 159.599 
	 106.117 159.599 106.117 159.599 106.117 159.599 106.117 159.599 "
	 style=" stroke:#000000; stroke-width:1; fill:#b9b9b9; fill-opacity:100%"	 class="TAG:front"></polygon>
	<polygon points="106.117 159.599 114.316 156.857 122.123 156.857 
	 114.316 159.599 106.117 159.599 106.117 159.599 106.117 159.599 
	 106.117 159.599 106.117 159.599 106.117 159.599 "
	 style=" stroke:#000000; stroke-width:1; fill:#dcdcdc; fill-opacity:100%"	 class="TAG:top"></polygon>
	<polygon points="122.123 156.857 114.316 159.599 114.316 163.71 
	 122.123 160.97 122.123 156.857 122.123 156.857 122.123 156.857 
	 122.123 156.857 122.123 156.857 122.123 156.857 "
	 style=" stroke:#000000; stroke-width:1; fill:#696969; fill-opacity:100%"	 class="TAG:right"></polygon>
	<polygon points="110.802 244.585 110.64 242.438 110.163 240.328 
	 109.375 238.29 108.291 236.361 106.929 234.571 105.313 232.953 
	 103.471 231.535 101.432 230.34 99.2342 229.388 96.9129 228.696 
	 94.509 228.277 92.0634 228.135 89.6172 228.277 87.2138 228.696 
	 84.8929 229.388 54.6847 239.873 67.9576 270.629 99.2342 259.782 
	 101.432 258.83 103.471 257.634 105.313 256.216 106.929 254.599 
	 108.291 252.809 109.375 250.879 110.163 248.842 110.64 246.731 
	 110.802 244.585 110.802 244.585 110.802 244.585 110.802 244.585 
	 110.802 244.585 110.802 244.585 "
	 style=" stroke:#000000; stroke-width:1; fill:#696969; fill-opacity:100%"	 class="TAG:right"></polygon>
	<ellipse  cx="60.833" cy="255.551" rx="18.738" ry="16.449"
	 style=" stroke:#000000; stroke-width:1; fill:#b9b9b9; fill-opacity:100%"	 class="TAG:front"></ellipse>
	<polygon points="93.2343 163.71 93.2343 163.71 93.2343 167.823 
	 101.432 167.823 101.432 163.71 93.2343 163.71 93.2343 163.71 
	 93.2343 163.71 93.2343 163.71 93.2343 163.71 93.2343 163.71 "
	 style=" stroke:#000000; stroke-width:1; fill:#b9b9b9; fill-opacity:100%"	 class="TAG:front"></polygon>
	<polygon points="93.2343 163.71 101.432 160.97 109.24 160.97 
	 101.432 163.71 93.2343 163.71 93.2343 163.71 93.2343 163.71 
	 93.2343 163.71 93.2343 163.71 93.2343 163.71 "
	 style=" stroke:#000000; stroke-width:1; fill:#dcdcdc; fill-opacity:100%"	 class="TAG:top"></polygon>
	<polygon points="109.24 160.97 101.432 163.71 101.432 167.823 
	 109.24 165.081 109.24 160.97 109.24 160.97 109.24 160.97 
	 109.24 160.97 109.24 160.97 109.24 160.97 "
	 style=" stroke:#000000; stroke-width:1; fill:#696969; fill-opacity:100%"	 class="TAG:right"></polygon>
	<polygon points="80.7424 167.823 80.7424 167.823 80.7424 171.936 
	 88.9403 171.936 88.9403 167.823 80.7424 167.823 80.7424 167.823 
	 80.7424 167.823 80.7424 167.823 80.7424 167.823 80.7424 167.823 "
	 style=" stroke:#000000; stroke-width:1; fill:#b9b9b9; fill-opacity:100%"	 class="TAG:front"></polygon>
	<polygon points="80.7424 167.823 88.9403 165.081 96.7478 165.081 
	 88.9403 167.823 80.7424 167.823 80.7424 167.823 80.7424 167.823 
	 80.7424 167.823 80.7424 167.823 80.7424 167.823 "
	 style=" stroke:#000000; stroke-width:1; fill:#dcdcdc; fill-opacity:100%"	 class="TAG:top"></polygon>
	<polygon points="96.7478 165.081 88.9403 167.823 88.9403 171.936 
	 96.7478 169.194 96.7478 165.081 96.7478 165.081 96.7478 165.081 
	 96.7478 165.081 96.7478 165.081 96.7478 165.081 "
	 style=" stroke:#000000; stroke-width:1; fill:#696969; fill-opacity:100%"	 class="TAG:right"></polygon>
	<polygon points="68.2505 171.936 68.2505 171.936 68.2505 176.047 
	 76.4485 176.047 76.4485 171.936 68.2505 171.936 68.2505 171.936 
	 68.2505 171.936 68.2505 171.936 68.2505 171.936 68.2505 171.936 "
	 style=" stroke:#000000; stroke-width:1; fill:#b9b9b9; fill-opacity:100%"	 class="TAG:front"></polygon>
	<polygon points="68.2505 171.936 76.4485 169.194 84.2559 169.194 
	 76.4485 171.936 68.2505 171.936 68.2505 171.936 68.2505 171.936 
	 68.2505 171.936 68.2505 171.936 68.2505 171.936 "
	 style=" stroke:#000000; stroke-width:1; fill:#dcdcdc; fill-opacity:100%"	 class="TAG:top"></polygon>
	<polygon points="84.2559 169.194 76.4485 171.936 76.4485 176.047 
	 84.2559 173.307 84.2559 169.194 84.2559 169.194 84.2559 169.194 
	 84.2559 169.194 84.2559 169.194 84.2559 169.194 "
	 style=" stroke:#000000; stroke-width:1; fill:#696969; fill-opacity:100%"	 class="TAG:right"></polygon>
	<polygon points="156.085 159.599 156.085 159.599 156.085 163.71 
	 164.283 163.71 164.283 159.599 156.085 159.599 156.085 159.599 
	 156.085 159.599 156.085 159.599 156.085 159.599 156.085 159.599 "
	 style=" stroke:#000000; stroke-width:1; fill:#b9b9b9; fill-opacity:100%"	 class="TAG:front"></polygon>
	<polygon points="156.085 159.599 164.283 156.857 172.091 156.857 
	 164.283 159.599 156.085 159.599 156.085 159.599 156.085 159.599 
	 156.085 159.599 156.085 159.599 156.085 159.599 "
	 style=" stroke:#000000; stroke-width:1; fill:#dcdcdc; fill-opacity:100%"	 class="TAG:top"></polygon>
	<polygon points="172.091 156.857 164.283 159.599 164.283 163.71 
	 172.091 160.97 172.091 156.857 172.091 156.857 172.091 156.857 
	 172.091 156.857 172.091 156.857 172.091 156.857 "
	 style=" stroke:#000000; stroke-width:1; fill:#696969; fill-opacity:100%"	 class="TAG:right"></polygon>
	<polygon points="143.203 163.71 143.203 163.71 143.203 167.823 
	 151.401 167.823 151.401 163.71 143.203 163.71 143.203 163.71 
	 143.203 163.71 143.203 163.71 143.203 163.71 143.203 163.71 "
	 style=" stroke:#000000; stroke-width:1; fill:#b9b9b9; fill-opacity:100%"	 class="TAG:front"></polygon>
	<polygon points="143.203 163.71 151.401 160.97 159.209 160.97 
	 151.401 163.71 143.203 163.71 143.203 163.71 143.203 163.71 
	 143.203 163.71 143.203 163.71 143.203 163.71 "
	 style=" stroke:#000000; stroke-width:1; fill:#dcdcdc; fill-opacity:100%"	 class="TAG:top"></polygon>
	<polygon points="159.209 160.97 151.401 163.71 151.401 167.823 
	 159.209 165.081 159.209 160.97 159.209 160.97 159.209 160.97 
	 159.209 160.97 159.209 160.97 159.209 160.97 "
	 style=" stroke:#000000; stroke-width:1; fill:#696969; fill-opacity:100%"	 class="TAG:right"></polygon>
	<polygon points="130.711 167.823 130.711 167.823 130.711 171.936 
	 138.909 171.936 138.909 167.823 130.711 167.823 130.711 167.823 
	 130.711 167.823 130.711 167.823 130.711 167.823 130.711 167.823 "
	 style=" stroke:#000000; stroke-width:1; fill:#b9b9b9; fill-opacity:100%"	 class="TAG:front"></polygon>
	<polygon points="130.711 167.823 138.909 165.081 146.717 165.081 
	 138.909 167.823 130.711 167.823 130.711 167.823 130.711 167.823 
	 130.711 167.823 130.711 167.823 130.711 167.823 "
	 style=" stroke:#000000; stroke-width:1; fill:#dcdcdc; fill-opacity:100%"	 class="TAG:top"></polygon>
	<polygon points="146.717 165.081 138.909 167.823 138.909 171.936 
	 146.717 169.194 146.717 165.081 146.717 165.081 146.717 165.081 
	 146.717 165.081 146.717 165.081 146.717 165.081 "
	 style=" stroke:#000000; stroke-width:1; fill:#696969; fill-opacity:100%"	 class="TAG:right"></polygon>
	<polygon points="118.219 171.936 118.219 171.936 118.219 176.047 
	 126.417 176.047 126.417 171.936 118.219 171.936 118.219 171.936 
	 118.219 171.936 118.219 171.936 118.219 171.936 118.219 171.936 "
	 style=" stroke:#000000; stroke-width:1; fill:#b9b9b9; fill-opacity:100%"	 class="TAG:front"></polygon>
	<polygon points="118.219 171.936 126.417 169.194 134.224 169.194 
	 126.417 171.936 118.219 171.936 118.219 171.936 118.219 171.936 
	 118.219 171.936 118.219 171.936 118.219 171.936 "
	 style=" stroke:#000000; stroke-width:1; fill:#dcdcdc; fill-opacity:100%"	 class="TAG:top"></polygon>
	<polygon points="134.224 169.194 126.417 171.936 126.417 176.047 
	 134.224 173.307 134.224 169.194 134.224 169.194 134.224 169.194 
	 134.224 169.194 134.224 169.194 134.224 169.194 "
	 style=" stroke:#000000; stroke-width:1; fill:#696969; fill-opacity:100%"	 class="TAG:right"></polygon>
      </g>
      <polyline points="864 304 880 320"
       style=" stroke:#000000; stroke-width:1;"></polyline>
    </g>
  </symbol>
 </defs>
</svg>
