<?xml version="1.0" encoding="UTF-8" standalone="no"?>
<svg xmlns:rdf="http://www.w3.org/1999/02/22-rdf-syntax-ns#" xmlns="http://www.w3.org/2000/svg" version="1.1" xml:space="preserve" height="219" viewBox="-0.109 -0.638 219 219" width="219" enable-background="new -0.109 -0.638 234 216" y="0px" x="0px" xmlns:cc="http://creativecommons.org/ns#" xmlns:xlink="http://www.w3.org/1999/xlink" xmlns:dc="http://purl.org/dc/elements/1.1/"><metadata><rdf:RDF><cc:Work rdf:about=""><dc:format>image/svg+xml</dc:format><dc:type rdf:resource="http://purl.org/dc/dcmitype/StillImage"/><dc:title/></cc:Work></rdf:RDF></metadata><defs><filter id="filter8057-2" color-interpolation-filters="sRGB"><feGaussianBlur stdDeviation="1.6010156"/></filter><linearGradient id="linearGradient4154-4-4-6"><stop stop-color="#873d12" offset="0"/><stop stop-color="#606060" offset="0.744"/><stop stop-color="#808080" stop-opacity="0" offset="1"/></linearGradient><linearGradient id="linearGradient4190-5-0-0"><stop stop-color="#000" offset="0"/><stop stop-color="#555" offset="1"/></linearGradient><filter id="filter4238-7-9-8" height="1.4964288" width="1.0901167" y="-0.24821441" x="-0.045058344" color-interpolation-filters="sRGB"><feGaussianBlur stdDeviation="1.3071432"/></filter><filter id="filter5049-7" height="1.1332471" width="17.877966" y="-0.066623554" x="-8.438983" color-interpolation-filters="sRGB"><feGaussianBlur stdDeviation="3.2830772"/></filter><linearGradient id="linearGradient4196" y2="60.9" xlink:href="#linearGradient4154-4-4-6" gradientUnits="userSpaceOnUse" x2="63.5" gradientTransform="matrix(1.1370166,0,0,1.3434752,-51.208068,123.50577)" y1="60.1" x1="169"/><linearGradient id="linearGradient4198" y2="58.4" xlink:href="#linearGradient4190-5-0-0" gradientUnits="userSpaceOnUse" x2="66.5" y1="64.1" x1="175"/><linearGradient id="linearGradient4200" y2="61.7" gradientUnits="userSpaceOnUse" x2="1.33" gradientTransform="matrix(0.83089721,0,0,0.98177089,-14.478184,87.604877)" y1="85.6" x1="124"><stop stop-color="#d59f0f" offset="0"/><stop stop-color="#d59f0f" offset="0.501"/><stop stop-color="#fbfbfb" offset="1"/></linearGradient><linearGradient id="linearGradient4206" y2="63.7" gradientUnits="userSpaceOnUse" x2="7.23" gradientTransform="matrix(0.83089721,0,0,0.98177089,-14.569355,34.85048)" y1="85.6" x1="124"><stop stop-color="#d59f0f" offset="0"/><stop stop-color="#d59f0f" offset="0.5"/><stop stop-color="#FFF" offset="1"/></linearGradient><linearGradient id="linearGradient4212" y2="63.2" gradientUnits="userSpaceOnUse" x2="2.51" gradientTransform="matrix(0.83089721,0,0,0.98177089,-14.481623,1.5167487)" y1="85.6" x1="124"><stop stop-color="#d59f0f" offset="0"/><stop stop-color="#d59f0f" offset="0.409"/><stop stop-color="#fbfbfb" offset="1"/></linearGradient><linearGradient id="linearGradient4218" y2="56.5" gradientUnits="userSpaceOnUse" x2="50.3" gradientTransform="matrix(0.75729183,0,0,0.7571714,-38.940125,-19.69425)" y1="62.2" x1="165"><stop stop-color="#d59f0f" offset="0"/><stop stop-color="#d59f0f" offset="0.55"/><stop stop-color="#f0f2f4" offset="1"/></linearGradient></defs><g transform="matrix(1.3991856,0,0,1.3991856,37.789206,-50.388674)"><path opacity="0.5" d="m112,26.6c-28.3,0-51.6,4.93-55.4,11.3-0.398,0.616-0.625,1.28-0.625,2.03,0,1.33,0.156,4.45,0.156,5.47,0,1.3,0.811,2.55,2.31,3.72l0.188,27.1c-1.47,1.08-2.34,2.22-2.56,3.41-0.214,0.475-0.344,0.985-0.344,1.53,0,1.33,0.188,4.45,0.188,5.47,0,1.59,1.2,3.08,3.41,4.47l-0.188,51.9c-1.33,1.03-2.14,2.1-2.34,3.22-0.214,0.475-0.312,0.985-0.312,1.53,0,1.33,0.156,4.42,0.156,5.44,0,1.35,0.862,2.64,2.47,3.84l0.188,24.9c-1.06,0.719-1.86,1.48-2.38,2.25-0.0475,0.0715-0.0825,0.147-0.125,0.219-0.398,0.616-0.625,1.28-0.625,2.03,0,1.33,0.156,4.45,0.156,5.47,0,7.24,25,12.8,55.9,12.8s55.9-5.89,55.9-13.1c0-0.882-0.0249-4.06,0-5.38,0-0.246-0.006-0.508-0.0625-0.75-0.0423-0.206-0.139-0.399-0.219-0.594-0.187-0.457-0.46-0.887-0.844-1.28-0.0106-0.0109-0.0205-0.0204-0.0312-0.0312-0.0286-0.0328-0.0641-0.061-0.0937-0.0937-0.335-0.369-0.723-0.737-1.19-1.09l0.156-25.5c1.67-1.24,2.59-2.57,2.59-3.94,0-0.846-0.0202-3.76,0-5.16,0.0981-0.317,0.188-0.646,0.188-0.969,0-1.52-1.12-2.99-3.16-4.34l0.188-52.6c1.33-1.12,2.06-2.28,2.06-3.5,0-0.851-0.0208-3.8,0-5.19,0.0957-0.313,0.156-0.618,0.156-0.938,0-1.44-1-2.83-2.84-4.12l0.188-27c1.75-1.27,2.72-2.63,2.72-4.03,0-0.882-0.0249-4.03,0-5.34,0.002-0.0854-0.027-0.166-0.0312-0.25-0.0119-0.173,0.009-0.36-0.0312-0.531-0.145-0.706-0.526-1.34-1.09-1.91-5.22-5.97-27.7-10.5-54.8-10.5z" fill-rule="evenodd" transform="matrix(0.79270726,0,0,0.79270726,-32.129591,27.715777)" filter="url(#filter8057-2)" stroke-miterlimit="4" stroke-width="0" fill="#000"/><g transform="translate(8.1799676,0.37181659)"><path d="m40.5,160c-22,0-40.3,3.76-43.8,8.69-0.0266,0.0337-0.0687,0.0595-0.0938,0.0937-0.118,0.179-0.203,0.35-0.281,0.531-0.006,0.0126-0.0254,0.0186-0.0312,0.0312-0.176,0.382-0.281,0.777-0.281,1.22,0,1.06,0.125,3.54,0.125,4.34,0,5.74,19.8,10.2,44.3,10.2s44.3-4.67,44.3-10.4c0-0.699-0.0198-3.21,0-4.25,0.0014-0.0741-0.0271-0.146-0.0312-0.219-0.0103-0.134,0.000699-0.273-0.0312-0.406-0.0336-0.164-0.0928-0.314-0.156-0.469-0.0128-0.0295-0.0174-0.0643-0.0312-0.0937-0.0644-0.142-0.161-0.272-0.25-0.406-0.0738-0.111-0.16-0.207-0.25-0.312-0.0745-0.095-0.165-0.187-0.25-0.281-4.26-4.69-22-8.22-43.3-8.22z" fill-rule="evenodd" stroke="#000" stroke-miterlimit="4" stroke-dasharray="none" stroke-width="0.30000001" fill="#FFF"/><g transform="translate(0.56050934,-0.26036293)"><g fill-rule="evenodd" transform="matrix(0.73076964,0,0,0.73076964,-18.491799,24.11492)"><path d="m141,207c0,7.85-27.2,14.2-60.7,14.2s-60.6-6.05-60.6-13.9c0-1.1-0.177-4.47-0.177-5.92,0-9.67,32-8.61,60.8-8.61,29.4,0,60.9-0.845,60.7,8.39-0.0271,1.43,0,4.87,0,5.83z" stroke-miterlimit="4" stroke-width="0" fill="url(#linearGradient4196)"/><path d="m169,61.8c0,5.84-23.9,10.6-53.4,10.6s-53.4-4.74-53.4-10.6c0-5.84,23.9-10.6,53.4-10.6s53.4,4.74,53.4,10.6z" transform="matrix(1.1370166,0,0,1.3434752,-51.208068,117.65195)" stroke-miterlimit="4" stroke-width="0" fill="#4e311b"/><path d="m169,61.8c0,5.84-23.9,10.6-53.4,10.6s-53.4-4.74-53.4-10.6c0-5.84,23.9-10.6,53.4-10.6s53.4,4.74,53.4,10.6z" transform="matrix(1.0362935,0,0,1.0361286,-40.055629,136.53789)" stroke-miterlimit="4" stroke-width="0" fill="url(#linearGradient4198)"/><path d="m59,154c-3.87-0.2-7.34-0.429-7.7-0.508-0.363-0.0787,2.21-0.289,5.72-0.467,19.7-1,43.8-5.22,56.8-9.94,2.04-0.744,3.85-1.35,4.03-1.35,0.177,0,0.932,0.513,1.68,1.14,8.55,7.19-23.3,13.1-60.5,11.1z" transform="matrix(1.1370166,0,0,1.3434752,-3.9725231,5.1332627)" filter="url(#filter4238-7-9-8)" stroke-miterlimit="4" stroke-width="0" fill="#000"/><path fill="#f9f9f9" d="m34.2,207c-5.95-2.43-10.4-4.04-10.4-6.54,0-5.19,13.3-8.7,33.3-10.6,8.68-0.839,24.9-1.13,33.3-0.594,2.87,0.183,2.26,0.207-2.88,0.114-18.8-0.339-37.7,1.45-48.8,4.75-7.46,2.2-11.2,4.03-11.2,7.12,0.0257,2.2,3.59,3.57,7.47,5.43,1.08,0.515,2.93,0.907,3.21,1.05,0.505,0.947-3.49-0.49-4-0.699z"/></g></g></g><path fill="url(#linearGradient4200)" d="m6.28,145,0.183,27.3c14.8,10,70.9,10.2,84.3-0.108l0.183-27c-28.8,7.91-60.6,12.2-84.7-0.216z"/><g transform="translate(8.1799676,-31.628183)"><path d="m40.5,160c-22,0-40.3,3.76-43.8,8.69-0.0266,0.0337-0.0687,0.0595-0.0938,0.0937-0.118,0.179-0.203,0.35-0.281,0.531-0.006,0.0126-0.0254,0.0186-0.0312,0.0312-0.176,0.382-0.281,0.777-0.281,1.22,0,1.06,0.125,3.54,0.125,4.34,0,5.74,19.8,10.2,44.3,10.2s44.3-4.67,44.3-10.4c0-0.699-0.0198-3.21,0-4.25,0.0014-0.0741-0.0271-0.146-0.0312-0.219-0.0103-0.134,0.000699-0.273-0.0312-0.406-0.0336-0.164-0.0928-0.314-0.156-0.469-0.0128-0.0295-0.0174-0.0643-0.0312-0.0937-0.0644-0.142-0.161-0.272-0.25-0.406-0.0738-0.111-0.16-0.207-0.25-0.312-0.0745-0.095-0.165-0.187-0.25-0.281-4.26-4.69-22-8.22-43.3-8.22z" fill-rule="evenodd" stroke="#000" stroke-miterlimit="4" stroke-dasharray="none" stroke-width="0.30000001" fill="#FFF"/><g transform="translate(0.56050934,-0.26036293)"><g fill-rule="evenodd" transform="matrix(0.73076964,0,0,0.73076964,-18.491799,24.11492)"><path d="m141,207c0,7.85-27.2,14.2-60.7,14.2s-60.6-6.05-60.6-13.9c0-1.1-0.177-4.47-0.177-5.92,0-9.67,32-8.61,60.8-8.61,29.4,0,60.9-0.845,60.7,8.39-0.0271,1.43,0,4.87,0,5.83z" stroke-miterlimit="4" stroke-width="0" fill="url(#linearGradient4196)"/><path d="m169,61.8c0,5.84-23.9,10.6-53.4,10.6s-53.4-4.74-53.4-10.6c0-5.84,23.9-10.6,53.4-10.6s53.4,4.74,53.4,10.6z" transform="matrix(1.1370166,0,0,1.3434752,-51.208068,117.65195)" stroke-miterlimit="4" stroke-width="0" fill="#4e311b"/><path d="m169,61.8c0,5.84-23.9,10.6-53.4,10.6s-53.4-4.74-53.4-10.6c0-5.84,23.9-10.6,53.4-10.6s53.4,4.74,53.4,10.6z" transform="matrix(1.0362935,0,0,1.0361286,-40.055629,136.53789)" stroke-miterlimit="4" stroke-width="0" fill="url(#linearGradient4198)"/><path d="m59,154c-3.87-0.2-7.34-0.429-7.7-0.508-0.363-0.0787,2.21-0.289,5.72-0.467,19.7-1,43.8-5.22,56.8-9.94,2.04-0.744,3.85-1.35,4.03-1.35,0.177,0,0.932,0.513,1.68,1.14,8.55,7.19-23.3,13.1-60.5,11.1z" transform="matrix(1.1370166,0,0,1.3434752,-3.9725231,5.1332627)" filter="url(#filter4238-7-9-8)" stroke-miterlimit="4" stroke-width="0" fill="#000"/><path fill="#f9f9f9" d="m34.2,207c-5.95-2.43-10.4-4.04-10.4-6.54,0-5.19,13.3-8.7,33.3-10.6,8.68-0.839,24.9-1.13,33.3-0.594,2.87,0.183,2.26,0.207-2.88,0.114-18.8-0.339-37.7,1.45-48.8,4.75-7.46,2.2-11.2,4.03-11.2,7.12,0.0257,2.2,3.59,3.57,7.47,5.43,1.08,0.515,2.93,0.907,3.21,1.05,0.505,0.947-3.49-0.49-4-0.699z"/></g></g></g><path d="m6.55,91.9-0.183,48.1c14.8,10,70.9,10.2,84.3-0.108l0.183-47.7c-65.9-36.1-60.2,3.6-84.4-0.4z" fill="url(#linearGradient4206)"/><g transform="translate(8.1799676,-85.628183)"><path d="m40.5,160c-22,0-40.3,3.76-43.8,8.69-0.0266,0.0337-0.0687,0.0595-0.0938,0.0937-0.118,0.179-0.203,0.35-0.281,0.531-0.006,0.0126-0.0254,0.0186-0.0312,0.0312-0.176,0.382-0.281,0.777-0.281,1.22,0,1.06,0.125,3.54,0.125,4.34,0,5.74,19.8,10.2,44.3,10.2s44.3-4.67,44.3-10.4c0-0.699-0.0198-3.21,0-4.25,0.0014-0.0741-0.0271-0.146-0.0312-0.219-0.0103-0.134,0.000699-0.273-0.0312-0.406-0.0336-0.164-0.0928-0.314-0.156-0.469-0.0128-0.0295-0.0174-0.0643-0.0312-0.0937-0.0644-0.142-0.161-0.272-0.25-0.406-0.0738-0.111-0.16-0.207-0.25-0.312-0.0745-0.095-0.165-0.187-0.25-0.281-4.26-4.69-22-8.22-43.3-8.22z" fill-rule="evenodd" stroke="#000" stroke-miterlimit="4" stroke-dasharray="none" stroke-width="0.30000001" fill="#FFF"/><g transform="translate(0.56050934,-0.26036293)"><g fill-rule="evenodd" transform="matrix(0.73076964,0,0,0.73076964,-18.491799,24.11492)"><path d="m141,207c0,7.85-27.2,14.2-60.7,14.2s-60.6-6.05-60.6-13.9c0-1.1-0.177-4.47-0.177-5.92,0-9.67,32-8.61,60.8-8.61,29.4,0,60.9-0.845,60.7,8.39-0.0271,1.43,0,4.87,0,5.83z" stroke-miterlimit="4" stroke-width="0" fill="url(#linearGradient4196)"/><path d="m169,61.8c0,5.84-23.9,10.6-53.4,10.6s-53.4-4.74-53.4-10.6c0-5.84,23.9-10.6,53.4-10.6s53.4,4.74,53.4,10.6z" transform="matrix(1.1370166,0,0,1.3434752,-51.208068,117.65195)" stroke-miterlimit="4" stroke-width="0" fill="#4e311b"/><path d="m169,61.8c0,5.84-23.9,10.6-53.4,10.6s-53.4-4.74-53.4-10.6c0-5.84,23.9-10.6,53.4-10.6s53.4,4.74,53.4,10.6z" transform="matrix(1.0362935,0,0,1.0361286,-40.055629,136.53789)" stroke-miterlimit="4" stroke-width="0" fill="url(#linearGradient4198)"/><path d="m59,154c-3.87-0.2-7.34-0.429-7.7-0.508-0.363-0.0787,2.21-0.289,5.72-0.467,19.7-1,43.8-5.22,56.8-9.94,2.04-0.744,3.85-1.35,4.03-1.35,0.177,0,0.932,0.513,1.68,1.14,8.55,7.19-23.3,13.1-60.5,11.1z" transform="matrix(1.1370166,0,0,1.3434752,-3.9725231,5.1332627)" filter="url(#filter4238-7-9-8)" stroke-miterlimit="4" stroke-width="0" fill="#000"/><path fill="#f9f9f9" d="m34.2,207c-5.95-2.43-10.4-4.04-10.4-6.54,0-5.19,13.3-8.7,33.3-10.6,8.68-0.839,24.9-1.13,33.3-0.594,2.87,0.183,2.26,0.207-2.88,0.114-18.8-0.339-37.7,1.45-48.8,4.75-7.46,2.2-11.2,4.03-11.2,7.12,0.0257,2.2,3.59,3.57,7.47,5.43,1.08,0.515,2.93,0.907,3.21,1.05,0.505,0.947-3.49-0.49-4-0.699z"/></g></g></g><path fill="url(#linearGradient4212)" d="m6.27,58.6,0.183,27.3c14.8,10.1,71,10.2,84.4-0.1l0.183-27c-28.8,7.9-60.6,12.2-84.7-0.2z"/><g transform="translate(8.1799676,-116.88454)"><path d="m40.5,160c-22,0-40.3,3.76-43.8,8.69-0.0266,0.0337-0.0687,0.0595-0.0938,0.0937-0.118,0.179-0.203,0.35-0.281,0.531-0.006,0.0126-0.0254,0.0186-0.0312,0.0312-0.176,0.382-0.281,0.777-0.281,1.22,0,1.06,0.125,3.54,0.125,4.34,0,5.74,19.8,10.2,44.3,10.2s44.3-4.67,44.3-10.4c0-0.699-0.0198-3.21,0-4.25,0.0014-0.0741-0.0271-0.146-0.0312-0.219-0.0103-0.134,0.000699-0.273-0.0312-0.406-0.0336-0.164-0.0928-0.314-0.156-0.469-0.0128-0.0295-0.0174-0.0643-0.0312-0.0937-0.0644-0.142-0.161-0.272-0.25-0.406-0.0738-0.111-0.16-0.207-0.25-0.312-0.0745-0.095-0.165-0.187-0.25-0.281-4.26-4.69-22-8.22-43.3-8.22z" fill-rule="evenodd" stroke="#000" stroke-miterlimit="4" stroke-dasharray="none" stroke-width="0.30000001" fill="#FFF"/><g transform="translate(0.56050934,-0.26036293)"><g fill-rule="evenodd" transform="matrix(0.73076964,0,0,0.73076964,-18.491799,24.11492)"><path d="m141,207c0,7.85-27.2,14.2-60.7,14.2s-60.6-6.05-60.6-13.9c0-1.1-0.177-4.47-0.177-5.92,0-9.67,32-8.61,60.8-8.61,29.4,0,60.9-0.845,60.7,8.39-0.0271,1.43,0,4.87,0,5.83z" stroke-miterlimit="4" stroke-width="0" fill="url(#linearGradient4196)"/><path d="m169,61.8c0,5.84-23.9,10.6-53.4,10.6s-53.4-4.74-53.4-10.6c0-5.84,23.9-10.6,53.4-10.6s53.4,4.74,53.4,10.6z" transform="matrix(1.1370166,0,0,1.3434752,-51.208068,117.65195)" stroke-miterlimit="4" stroke-width="0" fill="#4e311b"/><path d="m169,61.8c0,5.84-23.9,10.6-53.4,10.6s-53.4-4.74-53.4-10.6c0-5.84,23.9-10.6,53.4-10.6s53.4,4.74,53.4,10.6z" transform="matrix(1.0362935,0,0,1.0361286,-40.055629,136.53789)" stroke-miterlimit="4" stroke-width="0" fill="url(#linearGradient4198)"/><path d="m59,154c-3.87-0.2-7.34-0.429-7.7-0.508-0.363-0.0787,2.21-0.289,5.72-0.467,19.7-1,43.8-5.22,56.8-9.94,2.04-0.744,3.85-1.35,4.03-1.35,0.177,0,0.932,0.513,1.68,1.14,8.55,7.19-23.3,13.1-60.5,11.1z" transform="matrix(1.1370166,0,0,1.3434752,-3.9725231,5.1332627)" filter="url(#filter4238-7-9-8)" stroke-miterlimit="4" stroke-width="0" fill="#000"/><path fill="#f9f9f9" d="m34.2,207c-5.95-2.43-10.4-4.04-10.4-6.54,0-5.19,13.3-8.7,33.3-10.6,8.68-0.839,24.9-1.13,33.3-0.594,2.87,0.183,2.26,0.207-2.88,0.114-18.8-0.339-37.7,1.45-48.8,4.75-7.46,2.2-11.2,4.03-11.2,7.12,0.0257,2.2,3.59,3.57,7.47,5.43,1.08,0.515,2.93,0.907,3.21,1.05,0.505,0.947-3.49-0.49-4-0.699z"/></g></g></g><g transform="translate(0.22109948,26)"><path d="m88.8,27.1c0,4.43-18.1,8.01-40.4,8.01s-40.4-3.59-40.4-8.01c0-4.43,18.1-8.01,40.4-8.01s40.4,3.59,40.4,8.01z" fill-rule="evenodd" stroke-miterlimit="4" stroke-width="0" fill="url(#linearGradient4218)"/><path d="m71.2,26.5c0.028,1.04-3.55,2.02-7.99,2.19-4.44,0.167-8.06-0.542-8.09-1.58-0.028-1.04,3.55-2.02,7.99-2.19,4.44-0.167,8.06,0.542,8.09,1.58z" stroke-dashoffset="0" stroke="#b20e0e" stroke-miterlimit="4" stroke-dasharray="none" stroke-width="0.57001114" fill="#000"/><path fill-rule="evenodd" fill="#f9f9f9" d="m17.2,31.6c-4.19-1.71-8.1-2.85-8.1-4.61,0-3.65,9.36-6.13,23.5-7.49,6.12-0.591,17.5-0.795,23.5-0.419,2.02,0.129,1.59,0.146-2.03,0.0802-13.2-0.239-26.5,1.02-34.4,3.35-5.25,1.55-7.91,2.84-7.88,5.02,0.0181,1.55,3.31,2.52,6.05,3.83,0.758,0.363,2.36,0.541,2.55,0.643,0.356,0.668-2.75-0.247-3.12-0.395z"/></g><path stroke-linejoin="miter" d="M59,81.4,58.1,200" transform="matrix(0.92193299,0,0,0.88942828,22.620772,-5.1624723)" filter="url(#filter5049-7)" stroke="#000" stroke-linecap="butt" stroke-width="1px" fill="none"/></g></svg>
