<?xml version="1.0" encoding="UTF-8" standalone="no"?>
<!-- Generator: Adobe Illustrator 13.0.2, SVG Export Plug-In  -->

<svg
   xmlns:dc="http://purl.org/dc/elements/1.1/"
   xmlns:cc="http://creativecommons.org/ns#"
   xmlns:rdf="http://www.w3.org/1999/02/22-rdf-syntax-ns#"
   xmlns:svg="http://www.w3.org/2000/svg"
   xmlns="http://www.w3.org/2000/svg"
   xmlns:sodipodi="http://sodipodi.sourceforge.net/DTD/sodipodi-0.dtd"
   xmlns:inkscape="http://www.inkscape.org/namespaces/inkscape"
   enable-background="new 21.152 45.375 219 219"
   xml:space="preserve"
   height="219px"
   width="219px"
   version="1.1"
   y="0px"
   x="0px"
   viewBox="21.152 45.375 219 219"
   id="svg2"
   inkscape:version="0.47 r22583"
   sodipodi:docname="document.svg"><sodipodi:namedview
   pagecolor="#ffffff"
   bordercolor="#666666"
   borderopacity="1"
   objecttolerance="10"
   gridtolerance="10"
   guidetolerance="10"
   inkscape:pageopacity="0"
   inkscape:pageshadow="2"
   inkscape:window-width="640"
   inkscape:window-height="494"
   id="namedview29"
   showgrid="false"
   inkscape:zoom="1.0776256"
   inkscape:cx="109.5"
   inkscape:cy="109.5"
   inkscape:window-x="0"
   inkscape:window-y="334"
   inkscape:window-maximized="0"
   inkscape:current-layer="svg2" /><metadata
   id="metadata4"><rdf:RDF><cc:Work
       rdf:about=""><dc:format>image/svg+xml</dc:format><dc:type
         rdf:resource="http://purl.org/dc/dcmitype/StillImage" /><dc:title></dc:title></cc:Work></rdf:RDF></metadata>
<defs
   id="defs6"><inkscape:perspective
     sodipodi:type="inkscape:persp3d"
     inkscape:vp_x="0 : 109.5 : 1"
     inkscape:vp_y="0 : 1000 : 0"
     inkscape:vp_z="219 : 109.5 : 1"
     inkscape:persp3d-origin="109.5 : 73 : 1"
     id="perspective31" /><filter
     id="filter3790"><feGaussianBlur
       stdDeviation="1.8352357"
       id="feGaussianBlur9" /></filter><inkscape:perspective
     id="perspective2830"
     inkscape:persp3d-origin="0.5 : 0.33333333 : 1"
     inkscape:vp_z="1 : 0.5 : 1"
     inkscape:vp_y="0 : 1000 : 0"
     inkscape:vp_x="0 : 0.5 : 1"
     sodipodi:type="inkscape:persp3d" /><radialGradient
     id="radialGradient3659"
     gradientUnits="userSpaceOnUse"
     cy="156.75999"
     cx="139.92999"
     gradientTransform="matrix(0.9616973,0.99358062,-0.77954834,0.7545332,127.55989,-100.55301)"
     r="38.425999"><stop
       id="stop3646"
       stop-color="#FFF"
       offset="0" /><stop
       id="stop3648"
       stop-color="#00dede"
       offset="1" /></radialGradient></defs>
<path
   d="m156.7,50.99c-29.28,0.06182-58.56-0.1237-87.84,0.09279-11.57,0.8057-17.7,12.87-16.09,23.39,0.06155,53.52-0.1232,107.1,0.09251,160.6,0.7824,11.56,12.81,17.77,23.33,16.13,40.74-0.062,81.5,0.1239,122.2-0.0928,11.58-0.8063,17.68-12.87,16.11-23.39,0.1841-46.13,0.3683-92.26,0.5524-138.4-19.47-12.77-38.93-25.55-58.4-38.32z"
   stroke="#605a5a"
   stroke-width="3.2503252"
   fill="#f2f2f2"
   id="path13" /><path
   d="m213.5,91.74h-39.82c-10.69,0-19.36-10.36-19.36-23.15v-16.05"
   stroke="#605a5a"
   stroke-width="3.25032544"
   fill="none"
   id="path15" /><line
   stroke-width="5.417"
   y2="150.9"
   x2="179.6"
   stroke="#000"
   y1="150.4"
   x1="85.07"
   fill="#919191"
   id="line17" /><line
   stroke-width="5.417"
   y2="176.2"
   x2="179.5"
   stroke="#000"
   y1="175.7"
   x1="84.94"
   fill="#919191"
   id="line19" /><line
   stroke-width="5.417"
   y2="202.9"
   x2="179.3"
   stroke="#000"
   y1="202.4"
   x1="84.69"
   fill="#919191"
   id="line21" /><line
   stroke-width="5.417"
   y2="228.2"
   x2="179.1"
   stroke="#000"
   y1="227.7"
   x1="84.57"
   fill="#919191"
   id="line23" /><line
   stroke-width="5.417"
   y2="102.3"
   x2="178.6"
   stroke="#000"
   y1="101.8"
   x1="84.06"
   fill="#919191"
   id="line25" /><line
   stroke-width="5.417"
   y2="126.6"
   x2="178.5"
   stroke="#000"
   y1="126.1"
   x1="83.94"
   fill="#919191"
   id="line27" />
<g
   id="g3652"
   transform="matrix(0.81068349,0,0,0.81068349,61.304992,58.733029)"><rect
     style="fill:#404040"
     id="rect3618"
     transform="matrix(0.80514871,-0.59307298,0.59868611,0.80098374,0,0)"
     height="98.053001"
     width="27.181"
     y="219.8"
     x="5.1395001" /><rect
     style="fill:#b5b5b5"
     id="rect284"
     transform="matrix(0.80307333,-0.59588022,0.59588022,0.80307333,0,0)"
     height="88.18"
     width="24.392"
     y="227.92999"
     x="7.6107998" /><circle
     style="fill:#757575"
     sodipodi:ry="43.569"
     sodipodi:rx="43.569"
     sodipodi:cy="166.17999"
     sodipodi:cx="145.32001"
     id="circle286"
     d="m 188.88901,166.17999 c 0,24.0625 -19.50651,43.569 -43.569,43.569 -24.0625,0 -43.569,-19.5065 -43.569,-43.569 0,-24.06249 19.5065,-43.569 43.569,-43.569 24.06249,0 43.569,19.50651 43.569,43.569 z"
     cx="145.32001"
     cy="166.17999"
     transform="matrix(1.4432097,0,0,1.4432097,-94.785152,-115.28369)"
     r="43.569" /><circle
     style="opacity:0.85;fill:url(#radialGradient3659)"
     sodipodi:ry="38.425999"
     sodipodi:rx="38.425999"
     sodipodi:cy="166.19"
     sodipodi:cx="145.32001"
     id="circle288"
     d="m 183.74601,166.19 c 0,21.2221 -17.20391,38.426 -38.426,38.426 -21.2221,0 -38.426,-17.2039 -38.426,-38.426 0,-21.22209 17.2039,-38.426 38.426,-38.426 21.22209,0 38.426,17.20391 38.426,38.426 z"
     cx="145.32001"
     cy="166.19"
     transform="matrix(1.3160004,0,0,1.3160004,-76.29909,-94.157217)"
     r="38.425999" /><path
     style="fill:#8c8c8c"
     id="path294"
     d="m 192.26,245.15 c -22.621,-34.441 -16.938,-57.337 -23.814,-70.794 -1.1334,-2.2188 -5.4092,-7.5263 -5.4092,-7.5263 -6.3604,7.7389 -18.512,13.972 -18.512,13.972" /></g></svg>