<?xml version="1.0" encoding="UTF-8" standalone="no"?>
<svg
   xmlns:dc="http://purl.org/dc/elements/1.1/"
   xmlns:cc="http://creativecommons.org/ns#"
   xmlns:rdf="http://www.w3.org/1999/02/22-rdf-syntax-ns#"
   xmlns:svg="http://www.w3.org/2000/svg"
   xmlns="http://www.w3.org/2000/svg"
   xmlns:xlink="http://www.w3.org/1999/xlink"
   xmlns:sodipodi="http://sodipodi.sourceforge.net/DTD/sodipodi-0.dtd"
   xmlns:inkscape="http://www.inkscape.org/namespaces/inkscape"
   version="1.1"
   xml:space="preserve"
   height="219px"
   viewBox="50.938 45.083 219 219"
   width="219px"
   enable-background="new 50.938 45.083 219 219"
   y="0px"
   x="0px"
   id="svg2"
   inkscape:version="0.48.0 r9654"
   sodipodi:docname="risk_category.svg"
   inkscape:export-filename="C:\Users\mboyd\Documents\Current_projects\ERM Industrialized Offering\xml\http\metadata.troux.info\semantics\small_icons\risk_category.png"
   inkscape:export-xdpi="6.5753427"
   inkscape:export-ydpi="6.5753427"><sodipodi:namedview
     pagecolor="#ffffff"
     bordercolor="#666666"
     borderopacity="1"
     objecttolerance="10"
     gridtolerance="10"
     guidetolerance="10"
     inkscape:pageopacity="0"
     inkscape:pageshadow="2"
     inkscape:window-width="1003"
     inkscape:window-height="656"
     id="namedview92"
     showgrid="false"
     inkscape:zoom="1.6713493"
     inkscape:cx="109.5"
     inkscape:cy="109.5"
     inkscape:window-x="520"
     inkscape:window-y="158"
     inkscape:window-maximized="0"
     inkscape:current-layer="svg2" /><metadata
     id="metadata4"><rdf:RDF><cc:Work
         rdf:about=""><dc:format>image/svg+xml</dc:format><dc:type
           rdf:resource="http://purl.org/dc/dcmitype/StillImage" /><dc:title></dc:title></cc:Work></rdf:RDF></metadata><defs
     id="defs6"><filter
       id="filter4102"
       color-interpolation-filters="sRGB"><feGaussianBlur
         stdDeviation="1.9852141"
         id="feGaussianBlur9" /></filter><linearGradient
       id="linearGradient3284"
       y2="368.7"
       spreadMethod="reflect"
       gradientUnits="userSpaceOnUse"
       x2="213.7"
       y1="473.8"
       x1="390.2"><stop
         stop-color="#6f6f6f"
         offset="0"
         id="stop19" /><stop
         stop-color="#f5f5f5"
         offset="1"
         id="stop21" /></linearGradient><filter
       id="filter11193"
       height="1.204561"
       width="1.6059247"
       y="-0.10228051"
       x="-0.30296236"
       color-interpolation-filters="sRGB"><feGaussianBlur
         stdDeviation="18.143585"
         id="feGaussianBlur30" /></filter><filter
       id="filter11189"
       height="1.2111586"
       width="1.3552474"
       y="-0.10557931"
       x="-0.17762369"
       color-interpolation-filters="sRGB"><feGaussianBlur
         stdDeviation="18.143585"
         id="feGaussianBlur36" /></filter><filter
       id="filter11185"
       height="1.2424628"
       width="1.2640786"
       y="-0.12123133"
       x="-0.13203932"
       color-interpolation-filters="sRGB"><feGaussianBlur
         stdDeviation="18.143585"
         id="feGaussianBlur42" /></filter><filter
       id="filter11181"
       height="1.3091427"
       width="1.2171913"
       y="-0.15457135"
       x="-0.10859563"
       color-interpolation-filters="sRGB"><feGaussianBlur
         stdDeviation="18.143585"
         id="feGaussianBlur48" /></filter><linearGradient
       id="linearGradient3284-1"
       x1="390.20001"
       spreadMethod="reflect"
       gradientUnits="userSpaceOnUse"
       y1="473.79999"
       x2="213.7"
       y2="368.70001"><stop
         stop-color="#6f6f6f"
         offset="0"
         id="stop14" /><stop
         stop-color="#f5f5f5"
         offset="1"
         id="stop16" /></linearGradient><linearGradient
       id="linearGradient3664"><stop
         style="stop-color:#0000ff;stop-opacity:0;"
         offset="0"
         id="stop3666" /><stop
         id="stop3668"
         offset="0.20762333"
         style="stop-color:#0000ff;stop-opacity:0.09803922;" /><stop
         id="stop3670"
         offset="0.32430306"
         style="stop-color:#00ff00;stop-opacity:0.09803922;" /><stop
         id="stop3672"
         offset="0.49649313"
         style="stop-color:#ffff00;stop-opacity:0.09803922;" /><stop
         id="stop3674"
         offset="0.63897055"
         style="stop-color:#ff0000;stop-opacity:0.09803922;" /><stop
         style="stop-color:#ff0000;stop-opacity:0;"
         offset="1"
         id="stop3676" /></linearGradient><linearGradient
       id="linearGradient5241-7"><stop
         stop-color="#7c7c7c"
         offset="0"
         id="stop8" /><stop
         stop-color="#c6c6c6"
         offset="1"
         id="stop10" /></linearGradient><radialGradient
       inkscape:collect="always"
       xlink:href="#radialGradient3731"
       id="radialGradient4448"
       gradientUnits="userSpaceOnUse"
       gradientTransform="matrix(0.98922229,0,0,0.95659321,329.4172,-56.193522)"
       cx="-132.11"
       cy="180.77"
       r="11.805" /><radialGradient
       id="radialGradient3731"
       gradientUnits="userSpaceOnUse"
       cy="180.77"
       cx="-132.11"
       r="11.805"><stop
         id="stop3680"
         stop-color="#000"
         offset="0" /><stop
         id="stop3682"
         stop-color="#000"
         stop-opacity="0"
         offset="1" /></radialGradient></defs><path
     d="m209.5,54.33h-68.72c-12.06,0-21.83,12.04-21.83,26.91v0.154h-56.62c-12.05,0-21.82,12.05-21.82,26.92v89.36c0,14.85,9.773,26.9,16.59,26.9h147.1c17.28,0,27.04-12.05,27.04-26.9v-116.5c0.001-14.86-9.761-26.91-21.8-26.91z"
     fill-opacity="0.50196081000000004"
     transform="matrix(1.081082,0,0,1.081082,17.097996,3.2907506)"
     filter="url(#filter4102)"
     stroke-miterlimit="4"
     fill="#000"
     id="path50" /><path
     d="m237.4,55.08h-74.3c-13.03,0-23.6,13.02-23.6,29.09v0.1665h-61.15c-13.03,0-23.59,13.02-23.59,29.11v96.6c0,16.06,10.57,29.09,17.93,29.09h159c18.68,0,29.23-13.03,29.23-29.09v-125.8c0-16.06-10.5-29.08-23.5-29.08z"
     stroke="#cecc5f"
     stroke-width="3.24324608000000000"
     fill="#e6e4a6"
     id="path52" /><path
     stroke-linejoin="miter"
     style="enable-background:accumulate;color:#000000;"
     d="m260.9,84.44c0-16.48-10.54-29.83-23.54-29.83h-74.21c-13.01,0-23.21,12.44-23.21,28.92v0.5622"
     fill-rule="nonzero"
     stroke-dashoffset="0"
     stroke="#bdbb3a"
     stroke-linecap="butt"
     stroke-miterlimit="4"
     stroke-dasharray="none"
     stroke-width="3.24324608000000000"
     fill="#d2ce5e"
     id="path54" /><path
     d="m 157.82413,99.949409 c -7.11808,0.553311 -8.36587,4.121781 -10.05322,6.451431 -18.34821,32.52463 -40.17747,69.22708 -58.376788,101.83451 -3.592368,5.23693 -1.686648,9.04983 -1.082598,10.24713 0,0 2.391361,5.30444 8.309154,5.50887 5.919202,0.20444 66.785192,-0.0975 122.510432,0 1.72918,0.0253 5.74905,-1.53038 7.07767,-3.66578 2.32543,-3.73648 2.70189,-7.42584 -0.40475,-12.83918 -18.95793,-34.61991 -40.21292,-68.2081 -59.10704,-102.85349 -2.22971,-2.50542 -4.0227,-4.4695 -8.84797,-4.665658 z"
     id="path3178"
     inkscape:connector-curvature="0"
     style="fill:#878714" /><path
     d="m 158.10772,110.5914 c -5.91921,0.46007 -6.95785,6.03174 -8.35878,7.97354 -15.24291,27.0476 -33.39969,57.55337 -48.52916,84.70287 -2.986899,4.35424 -3.247801,8.94793 -2.74514,9.94144 0,0 3.83341,2.99008 8.7558,3.16012 4.92169,0.17004 55.53381,-0.0811 101.87934,0 1.4378,0.0211 7.51511,0.12196 9.04649,-2.33729 2.14181,-3.43461 -0.9167,-6.8845 -3.5002,-11.38076 -15.76045,-28.78623 -33.43514,-56.71908 -49.14597,-85.53079 -1.85396,-2.08318 -3.34422,-6.32088 -7.35913,-6.48328 z"
     id="path3180"
     inkscape:connector-curvature="0"
     style="fill:#e1e136" /><path
     d="m 166.82808,203.75819 c 0,2.06408 -0.8302,3.82182 -2.49062,5.27769 -1.66112,1.45524 -3.64057,2.18317 -5.93693,2.18317 -2.29707,0 -4.27581,-0.72793 -5.93623,-2.18317 -1.66041,-1.45523 -2.49062,-3.21297 -2.49062,-5.27769 0,-2.0628 0.83021,-3.84092 2.49062,-5.33246 1.66042,-1.49153 3.63916,-2.23794 5.93623,-2.23794 2.29636,0 4.27581,0.74641 5.93693,2.23794 1.66042,1.49154 2.49062,3.26966 2.49062,5.33246 z m -0.55328,-66.61594 c 0,1.84308 -0.67714,8.03085 -2.03049,18.56458 -1.35336,10.53372 -2.5438,20.72354 -3.56755,30.55672 h -4.79833 c -0.90252,-9.83318 -2.02128,-20.023 -3.35273,-30.55672 -1.33216,-10.53373 -1.9993,-16.72404 -1.9993,-18.56458 0,-2.09974 0.73804,-3.86895 2.21483,-5.30507 1.47679,-1.43677 3.36195,-2.15515 5.65902,-2.15515 2.29636,0 4.18364,0.7101 5.65972,2.12776 1.4775,1.4183 2.21554,3.19642 2.21554,5.33246 z"
     id="path3182"
     inkscape:connector-curvature="0"
     style="fill:#000000;stroke:#000000;stroke-width:1.45858896" /></svg>