<?xml version="1.0" encoding="UTF-8" standalone="no"?>
<svg
   xmlns:dc="http://purl.org/dc/elements/1.1/"
   xmlns:cc="http://creativecommons.org/ns#"
   xmlns:rdf="http://www.w3.org/1999/02/22-rdf-syntax-ns#"
   xmlns:svg="http://www.w3.org/2000/svg"
   xmlns="http://www.w3.org/2000/svg"
   xmlns:xlink="http://www.w3.org/1999/xlink"
   xmlns:sodipodi="http://sodipodi.sourceforge.net/DTD/sodipodi-0.dtd"
   xmlns:inkscape="http://www.inkscape.org/namespaces/inkscape"
   id="svg4827"
   version="1.1"
   x="0px"
   y="0px"
   width="219px"
   height="219px"
   viewBox="0 0 219 219"
   enable-background="new 0 0 219 219"
   inkscape:version="0.48.0 r9654"
   sodipodi:docname="risk_appetite.svg"
   inkscape:export-filename="C:\Users\mboyd\Documents\Current_projects\ERM Industrialized Offering\xml\http\metadata.troux.info\semantics\small_icons\risk_appetite.png"
   inkscape:export-xdpi="6.5753427"
   inkscape:export-ydpi="6.5753427">
  <sodipodi:namedview
     pagecolor="#ffffff"
     bordercolor="#666666"
     borderopacity="1"
     objecttolerance="10"
     gridtolerance="10"
     guidetolerance="10"
     inkscape:pageopacity="0"
     inkscape:pageshadow="2"
     inkscape:window-width="1064"
     inkscape:window-height="587"
     id="namedview35"
     showgrid="false"
     inkscape:zoom="1.8173516"
     inkscape:cx="109.5"
     inkscape:cy="109.5"
     inkscape:window-x="543"
     inkscape:window-y="190"
     inkscape:window-maximized="0"
     inkscape:current-layer="svg4827" />
  <metadata
     id="metadata3733">
    <rdf:RDF>
      <cc:Work
         rdf:about="">
        <dc:title></dc:title>
        <dc:format>image/svg+xml</dc:format>
        <dc:type
           rdf:resource="http://purl.org/dc/dcmitype/StillImage" />
      </cc:Work>
    </rdf:RDF>
  </metadata>
  <defs
     id="defs4">
    <linearGradient
       id="linearGradient3729"
       y2="536.43"
       gradientUnits="userSpaceOnUse"
       x2="478.68"
       gradientTransform="matrix(0.62984351,0,0,0.64663761,-103.94184,-268.04584)"
       y1="536.43"
       x1="194.04">
      <stop
         id="stop3917"
         stop-color="#0cfd23"
         offset="0" />
      <stop
         id="stop3923"
         stop-color="#ff8a00"
         offset="0.49453" />
      <stop
         id="stop3919"
         stop-color="#fd100c"
         offset="1" />
    </linearGradient>
    <radialGradient
       id="radialGradient3731"
       gradientUnits="userSpaceOnUse"
       cy="180.77"
       cx="-132.11"
       r="11.805">
      <stop
         id="stop3680"
         stop-color="#000"
         offset="0" />
      <stop
         id="stop3682"
         stop-color="#000"
         stop-opacity="0"
         offset="1" />
    </radialGradient>
    <filter
       color-interpolation-filters="sRGB"
       id="filter3755">
      <feGaussianBlur
         stdDeviation="2.1638352"
         id="feGaussianBlur3174" />
    </filter>
    <radialGradient
       inkscape:collect="always"
       xlink:href="#radialGradient3731"
       id="radialGradient4448"
       gradientUnits="userSpaceOnUse"
       gradientTransform="matrix(0.98922229,0,0,0.95659321,244.12147,-69.895181)"
       cx="-132.11"
       cy="180.77"
       r="11.805" />
    <linearGradient
       inkscape:collect="always"
       xlink:href="#linearGradient3729"
       id="linearGradient4459"
       gradientUnits="userSpaceOnUse"
       gradientTransform="matrix(0.62305524,0,0,0.61856915,-96.707186,-252.09666)"
       x1="194.04"
       y1="536.43"
       x2="478.68"
       y2="536.43" />
  </defs>
  <path
     style="fill:#ececec;stroke:none"
     d="M 113.44378,8.1134976 A 98.254118,97.344973 0 0 0 12.376045,105.45842 a 98.254118,97.344973 0 0 0 5.629267,32.4863 c 29.174424,-6.44846 63.109677,-10.14651 99.305538,-10.14651 31.13619,0 60.57349,2.72573 86.7707,7.5947 a 98.254118,97.344973 0 0 0 4.79976,-29.93259 98.254118,97.344973 0 0 0 -95.44047,-97.3449248 z"
     id="path3698"
     inkscape:connector-curvature="0" />
  <path
     d="M 117.3134,12.143574 C 104.2386,11.780202 91.093437,13.986794 78.904698,18.590993 66.71596,23.195189 55.780899,31.85796 46.402197,40.702965 27.644791,58.392974 20.399637,81.110279 18.114844,105.93352 c -0.0011,10.7945 0.187001,22.9742 3.89921,33.15028 29.131824,-6.30487 63.017522,-9.92057 99.160576,-9.92057 31.09073,0 60.48504,2.66504 86.64399,7.42558 3.1564,-9.43353 4.78005,-19.34803 4.79276,-29.26605 0.0104,-24.469553 -10.12742,-50.49894 -27.7356,-68.019797 C 165.00535,19.531081 142.52364,12.846152 117.31029,12.14543 l 0.003,-0.0019 z"
     style="fill:#666666;stroke:none"
     id="path3005"
     sodipodi:nodetypes="cssccsccscc"
     inkscape:connector-curvature="0" />
  <path
     d="m 112.73277,21.32335 c -22.099219,0 -40.380047,6.509714 -57.313553,20.386917 -13.407919,10.988388 -24.465446,28.340031 -28.934752,45.378871 -3.816618,14.549782 -2.623616,39.715832 2.349402,49.205232 0.118015,0.22519 0.257732,0.42487 0.463698,0.59787 12.04576,-2.28558 24.799803,-4.12826 38.085059,-5.47056 -6.718304,-14.70571 -6.209943,-32.277369 1.483833,-47.351367 3.424688,-6.709542 13.949024,-17.087619 20.804334,-20.537096 20.359179,-10.242234 43.838369,-6.311124 58.951699,9.894996 9.8026,10.512007 14.0163,21.141667 14.06576,35.423607 0.0302,8.69448 -1.1205,14.99365 -4.01872,21.43343 13.46332,1.00116 26.44587,2.4946 38.79631,4.45408 l 0.77159,-2.73585 C 207.54602,99.052667 196.42716,63.369835 170.07428,41.695344 153.21793,27.827614 134.88764,21.307471 112.72906,21.307471 z"
     style="fill:url(#linearGradient4459);stroke:none"
     id="path3913"
     inkscape:connector-curvature="0" />
  <path
     id="path3657"
     d="m 114.28227,108.96963 25.14301,-86.035796 c 0.4447,-1.521728 1.35996,-1.660753 2.05215,-0.311717 l 1.23207,2.401234 c 0.69218,1.349039 0.89141,3.660169 0.44671,5.181898 L 118.0132,116.24103 c -0.4447,1.52173 -1.35997,1.66076 -2.05215,0.31172 l -1.23207,-2.40124 c -0.69219,-1.34903 -0.89142,-3.66015 -0.44671,-5.18188 z"
     style="fill:#000000;fill-opacity:0.5;stroke:none"
     inkscape:connector-curvature="0" />
  <path
     style="fill:#e10000;stroke:none"
     d="m 110.552,103.47838 25.14301,-86.03577 c 0.44471,-1.521727 1.35997,-1.660753 2.05216,-0.311718 l 1.23206,2.401237 c 0.69218,1.349035 0.89141,3.660155 0.4467,5.181883 l -25.143,86.035768 c -0.44471,1.52173 -1.35998,1.66076 -2.05215,0.31172 l -1.23207,-2.40123 c -0.69218,-1.34904 -0.89142,-3.66016 -0.44671,-5.18189 z"
     id="rect3843"
     inkscape:connector-curvature="0" />
  <path
     id="rect3843-2"
     d="m 114.4498,28.928991 0,21.693747 c 0,0.367218 -0.30572,0.662855 -0.68546,0.662855 l -0.82258,0 c -0.37974,0 -0.68546,-0.295637 -0.68546,-0.662855 l 0,-21.693747 c 0,-0.367219 0.30572,-0.662855 0.68546,-0.662855 l 0.82258,0 c 0.37974,0 0.68546,0.295636 0.68546,0.662855 z"
     style="fill:#000000;stroke:none"
     inkscape:connector-curvature="0" />
  <path
     style="fill:#000000;stroke:none"
     d="m 32.526732,113.04831 21.789429,-0.0521 c 0.386933,-9.3e-4 0.580822,0.27727 0.434726,0.62373 l -0.31647,0.75054 c -0.146096,0.34646 -0.575219,0.62614 -0.962151,0.62707 l -21.789431,0.0521 c -0.386935,9.4e-4 -0.580821,-0.27726 -0.434724,-0.62373 l 0.31647,-0.75053 c 0.146096,-0.34647 0.575216,-0.62615 0.962151,-0.62708 z"
     id="rect3843-2-6"
     inkscape:connector-curvature="0" />
  <path
     style="fill:#000000;stroke:none"
     d="m 171.34339,113.0522 21.78942,-0.0521 c 0.38694,-9.2e-4 0.58083,0.27726 0.43472,0.62374 l -0.31647,0.75052 c -0.14609,0.34648 -0.5752,0.62616 -0.96214,0.62708 l -21.78943,0.0521 c -0.38693,9.2e-4 -0.58083,-0.27725 -0.43473,-0.62373 l 0.31647,-0.75053 c 0.1461,-0.34647 0.57522,-0.62615 0.96216,-0.62707 z"
     id="rect3843-2-6-3"
     inkscape:connector-curvature="0" />
  <path
     style="fill:#000000;stroke:none"
     d="m 51.301941,57.501318 16.335955,14.375797 c 0.281221,0.247477 0.232924,0.577343 -0.108293,0.739597 l -0.739048,0.351428 c -0.341217,0.162244 -0.842315,0.09369 -1.123537,-0.153837 L 49.331063,58.438496 c -0.281223,-0.247477 -0.232925,-0.577333 0.108292,-0.739587 l 0.739049,-0.351428 c 0.341216,-0.162254 0.842314,-0.09369 1.123537,0.153837 z"
     id="rect3843-2-6-2"
     inkscape:connector-curvature="0" />
  <path
     style="fill:#000000;stroke:none"
     d="m 171.26537,55.289372 -14.46799,16.204816 c -0.25262,0.282937 -0.58756,0.237994 -0.75098,-0.100724 l -0.35402,-0.733817 c -0.16343,-0.338749 -0.0916,-0.839256 0.16099,-1.122194 l 14.468,-16.204816 c 0.25261,-0.282947 0.58755,-0.238015 0.75098,0.100724 l 0.35402,0.733807 c 0.16342,0.338749 0.0916,0.839266 -0.161,1.122204 z"
     id="rect3843-2-6-2-7"
     inkscape:connector-curvature="0" />
  <path
     id="path3684"
     style="fill:#ffffff;stroke:none"
     d="m 125.11803,103.02817 c 0,6.2368 -5.22834,11.29259 -11.67777,11.29259 -6.44952,0 -11.67776,-5.05588 -11.67776,-11.29259 0,-6.236788 5.22844,-11.292574 11.67776,-11.292574 6.44953,0 11.67777,5.055972 11.67777,11.292574 z"
     inkscape:connector-curvature="0" />
  <path
     id="path3668"
     style="fill:url(#radialGradient4448);stroke:none"
     d="m 125.11803,103.02817 c 0,6.2368 -5.22834,11.29259 -11.67777,11.29259 -6.44952,0 -11.67776,-5.05588 -11.67776,-11.29259 0,-6.236788 5.22844,-11.292574 11.67776,-11.292574 6.44953,0 11.67777,5.055972 11.67777,11.292574 z"
     inkscape:connector-curvature="0" />
  <path
     style="fill:#5e5e5e;stroke:none"
     d="M 115.67076,7.1241583 C 102.30499,6.4930532 88.686262,9.0474396 76.132789,13.850204 63.579317,18.652969 52.002055,25.939712 42.344666,35.164303 32.687276,44.388894 24.9546,55.529517 19.716205,67.718361 14.477811,79.907217 11.76599,93.110923 11.771513,106.34081 c -0.0012,11.2541 1.959264,22.51206 5.780769,33.12205 l 0.340045,0.95658 1.051049,-0.20925 c 29.544908,-6.47624 63.928066,-10.19369 100.622444,-10.19369 31.56528,0 61.41068,2.73153 87.94805,7.62285 l 1.02013,0.17936 0.34004,-0.9566 c 3.24926,-9.8355 4.90212,-20.18117 4.91521,-30.5213 C 213.79992,80.818655 203.36029,55.479361 185.25636,37.16717 166.83993,18.441215 144.18102,8.4703542 115.67076,7.1241583 z m -0.0618,2.2719084 c 25.33138,0.7130263 50.2536,11.4895573 67.9163,29.3554583 17.6627,17.865894 27.8941,42.675156 27.8837,67.589285 -0.0123,9.77096 -1.54123,19.55319 -4.51332,28.87716 -26.44023,-4.80344 -56.02723,-7.50328 -87.32979,-7.50328 -36.429192,0 -70.561541,3.66573 -100.066006,10.04423 C 15.985289,127.67024 14.150705,117.00465 14.151871,106.34081 14.14648,93.416115 16.794388,80.490961 21.911084,68.585281 27.02778,56.679601 34.584845,45.815049 44.014019,36.808441 53.443194,27.801844 64.746613,20.65999 76.9984,15.972646 89.250188,11.2853 102.46758,9.0261614 115.60897,9.3960667 z"
     id="path3645"
     sodipodi:nodetypes="csssccccscccccscsccsccsssc"
     inkscape:connector-curvature="0" />
  <path
     d="m 128.7,54.2 c -10.04,0.8688 -11.8,6.472 -14.18,10.13 -25.88,51.07 -56.67,108.7 -82.34,159.9 -5.067,8.223 -2.379,14.21 -1.527,16.09 0,0 3.373,8.329 11.72,8.65 8.349,0.321 94.2,-0.1531 172.8,0 2.439,0.0397 8.109,-2.403 9.983,-5.756 3.28,-5.867 3.811,-11.66 -0.5709,-20.16 -26.74,-54.36 -56.72,-107.1 -83.37,-161.5 -3.145,-3.934 -5.674,-7.018 -12.48,-7.326 z"
     id="path3176"
     inkscape:connector-curvature="0"
     style="fill:#000000;fill-opacity:0.50196078;filter:url(#filter3755)"
     transform="matrix(0.70897238,0,0,0.6368637,-13.044558,55.55092)" />
  <path
     d="m 72.528408,86.24775 c -7.118082,0.553308 -8.365874,4.121782 -10.053228,6.45143 -18.348205,32.52463 -40.177465,69.22708 -58.3767859,101.83451 -3.592363,5.23693 -1.6866452,9.04983 -1.0826008,10.24713 0,0 2.3913639,5.30444 8.3091567,5.50887 5.91921,0.20444 66.785198,-0.0975 122.51043,0 1.72918,0.0253 5.74905,-1.53038 7.07767,-3.66578 2.32543,-3.73648 2.70189,-7.42584 -0.40475,-12.83918 C 121.55037,159.16482 100.29538,125.57663 81.401268,90.931246 79.17155,88.425824 77.378559,86.461737 72.553293,86.265583 z"
     id="path3178"
     inkscape:connector-curvature="0"
     style="fill:#878714" />
  <path
     d="m 72.811997,96.889743 c -5.91921,0.46007 -6.957855,6.031737 -8.358784,7.973537 -15.242906,27.0476 -33.399689,57.55337 -48.52916,84.70287 -2.9869,4.35424 -3.247802,8.94793 -2.745141,9.94144 0,0 3.833414,2.99008 8.755809,3.16012 4.921687,0.17004 55.533807,-0.0811 101.879329,0 1.4378,0.0211 7.51511,0.12196 9.04649,-2.33729 2.14181,-3.43461 -0.9167,-6.8845 -3.5002,-11.38076 -15.76045,-28.78623 -33.435134,-56.71908 -49.145962,-85.53079 -1.853963,-2.08318 -3.344223,-6.320873 -7.359133,-6.483273 z"
     id="path3180"
     inkscape:connector-curvature="0"
     style="fill:#e1e136" />
  <path
     d="m 81.532357,190.05653 c 0,2.06408 -0.830206,3.82182 -2.490619,5.27769 -1.661123,1.45524 -3.640574,2.18317 -5.936935,2.18317 -2.297071,0 -4.275813,-0.72793 -5.936226,-2.18317 -1.660413,-1.45523 -2.49062,-3.21297 -2.49062,-5.27769 0,-2.0628 0.830207,-3.84092 2.49062,-5.33246 1.660413,-1.49153 3.639155,-2.23794 5.936226,-2.23794 2.296361,0 4.275812,0.74641 5.936935,2.23794 1.660413,1.49154 2.490619,3.26966 2.490619,5.33246 z m -0.553282,-66.61594 c 0,1.84308 -0.677139,8.03085 -2.030496,18.56458 -1.353358,10.53372 -2.543793,20.72354 -3.567549,30.55672 h -4.798326 c -0.902521,-9.83318 -2.02128,-20.023 -3.35273,-30.55672 -1.332159,-10.53373 -1.999302,-16.72404 -1.999302,-18.56458 0,-2.09974 0.73804,-3.86895 2.21483,-5.30507 1.476789,-1.43677 3.361947,-2.15515 5.659017,-2.15515 2.296362,0 4.183646,0.7101 5.659727,2.12776 1.477498,1.4183 2.215538,3.19642 2.215538,5.33246 z"
     id="path3182"
     inkscape:connector-curvature="0"
     style="fill:#000000;stroke:#000000;stroke-width:1.45858896" />
</svg>
