<?xml version="1.0"?>
<?metis version="3.3"?>
<?metisxml version="1.1"?>
<!DOCTYPE svg  PUBLIC "-//W3C//DTD SVG August 1999//EN"
 "http://www.w3.org/Graphics/SVG/svg-19990812.dtd">

<svg width="200" height="200">
 <title>Symbol library: role.svg</title>
 <defs>
  <symbol id="oid1" xml:space="preserve" class="METIS_SYMBOL">
   <title>Role</title>
    <g>
      <polygon points="0 0 0 304 16 320 
       880 320 880 16 864 0 0 0 
       0 0 0 0 0 0 0 0 
       0 0 0 0 0 0 0 0 
       0 0 0 0 "
       style=" stroke:#000000; stroke-width:1; fill:#9b9b9b; fill-opacity:100%"       class="TAG:shadow"></polygon>
      <rect x="0" y="0" width="240" height="304"
       style=" stroke:#000000; stroke-width:1; fill:#ffffa5; fill-opacity:100%"       class="TAG:PictureBackground"></rect>
      <rect x="240" y="0" width="624" height="304"
       style=" stroke:#000000; stroke-width:1; fill:#c8ffc8; fill-opacity:100%"       class="TAG:canvas"></rect>
      <rect x="245.357" y="25.7143" width="569.522" height="231.429"
       style="stroke:none; fill:#878787; fill-opacity:0%"></rect>
      <g>
	<desc>METIS_TEXT_GROUP</desc>
	<text  x="256" y="15"
	 style=" stroke:#000000; stroke-width:1; font-family:sans-serif; font-size:16;"
	 class="TAG:text">text</text>
	<rect x="256" y="0" width="608" height="304"
	 style=" stroke:#000000; stroke-width:1; fill:#ffffff; fill-opacity:0%"></rect>
      </g>
      <polyline points="864 304 880 320"
       style=" stroke:#000000; stroke-width:1;"></polyline>
      <g>
	<polygon points="78.0103 171.974 81.475 171.155 88.0572 168.696 
	 94.2926 167.058 100.529 165.419 106.418 164.19 112.307 162.961 
	 117.504 162.141 122.701 161.322 127.204 160.912 131.362 160.502 
	 135.519 160.502 138.637 160.912 141.409 161.322 143.834 162.141 
	 145.219 162.961 146.605 165.009 146.605 165.829 146.259 167.467 
	 145.566 169.516 143.834 171.565 141.755 173.613 138.983 176.071 
	 135.866 178.53 132.055 180.987 127.897 183.446 123.394 186.314 
	 118.543 188.772 113.001 191.23 107.458 193.689 101.568 196.556 
	 95.3323 199.015 85.6319 202.292 82.1674 203.521 75.5852 205.57 
	 69.003 207.209 63.1137 208.847 56.8778 210.486 51.335 211.715 
	 45.7917 212.535 40.9418 213.355 36.0915 213.764 31.9343 213.764 
	 28.1234 213.764 24.6592 213.764 22.2341 212.944 19.8091 212.535 
	 18.077 211.306 16.6911 209.257 16.6911 208.438 17.0375 206.8 
	 18.077 204.751 19.4626 202.702 21.5412 200.653 24.3127 198.195 
	 27.4307 195.737 31.2414 193.279 35.3988 190.821 39.9021 188.363 
	 45.099 185.904 50.2956 183.036 55.8386 180.578 62.0743 178.119 
	 68.3101 175.661 78.0103 171.974 78.0103 171.974 78.0103 171.974 
	 78.0103 171.974 78.0103 171.974 "
	 style=" stroke:#000000; stroke-width:1; fill:#003232; fill-opacity:100%"></polygon>
	<polygon points="77.3195 168.721 80.7837 167.902 87.0197 165.444 
	 93.6019 163.805 99.8376 162.166 105.727 160.937 111.27 159.708 
	 116.813 158.889 121.664 158.069 126.514 157.659 130.67 157.25 
	 134.481 157.25 137.945 157.659 140.717 158.069 142.796 158.889 
	 144.528 159.708 145.914 161.757 145.914 162.576 145.567 164.215 
	 144.874 166.263 143.142 168.312 141.063 170.36 138.292 172.818 
	 135.174 175.277 131.363 177.735 127.206 180.194 122.703 182.652 
	 117.506 185.52 112.309 187.978 106.767 190.435 100.877 192.894 
	 94.641 195.762 84.5946 199.04 81.1301 200.269 74.5479 202.317 
	 68.3119 203.956 62.0762 205.595 56.1864 207.234 50.6439 208.053 
	 45.1009 209.282 39.904 210.102 35.4007 210.511 31.2432 210.511 
	 27.4326 210.511 23.9681 210.511 21.1966 209.692 19.118 208.872 
	 17.3859 208.053 16 206.005 16 205.185 16.3465 203.546 
	 17.0394 201.498 18.7715 199.449 20.8501 197.401 23.6216 194.943 
	 26.7396 192.484 30.5503 190.026 34.7077 187.568 39.2113 185.109 
	 44.0614 182.242 49.6042 179.784 55.1473 177.326 61.0368 174.867 
	 67.2725 172.409 77.3195 168.721 77.3195 168.721 77.3195 168.721 
	 77.3195 168.721 77.3195 168.721 "
	 style=" stroke:#000000; stroke-width:1; fill:#dc0000; fill-opacity:100%"></polygon>
	<polygon points="43.7308 189.768 43.0373 187.32 41.9971 182.423 
	 40.6101 177.935 39.5699 173.038 38.1829 168.141 36.796 163.245 
	 35.409 158.348 34.022 153.859 32.6351 148.963 30.9013 144.066 
	 29.1676 139.577 27.4339 134.681 25.7002 130.192 23.9665 125.295 
	 21.886 120.807 18.4189 114.277 18.4189 112.645 19.4588 109.38 
	 22.5795 106.116 27.0872 102.443 32.9818 98.7708 39.9164 95.5063 
	 47.545 91.8338 55.8668 88.9774 64.1887 86.1209 72.5102 83.6725 
	 80.4853 82.0403 87.7669 80.4081 94.355 80 99.5562 80 
	 103.37 81.2242 106.144 84.4887 106.144 86.937 106.144 92.2418 
	 106.491 97.1386 106.838 102.443 107.184 107.34 107.531 112.237 
	 107.878 117.133 108.571 122.438 109.265 127.335 109.612 132.232 
	 110.652 137.128 111.345 142.433 112.386 147.33 113.426 152.635 
	 114.466 157.94 116.2 165.693 116.2 166.509 114.813 168.957 
	 112.039 170.998 108.225 173.854 103.37 176.302 97.8224 178.75 
	 91.5811 181.199 84.993 183.647 78.0581 186.096 71.47 188.137 
	 65.2286 189.768 59.334 190.992 53.7861 191.401 49.6252 191.809 
	 46.158 191.401 43.7308 189.768 43.7308 189.768 43.7308 189.768 
	 43.7308 189.768 43.7308 189.768 "
	 style="stroke:none; fill:#dc0000; fill-opacity:100%"></polygon>
	<polygon points="26.3655 127.976 27.0665 129.614 28.4685 133.298 
	 29.8708 136.981 31.2728 140.665 32.6748 144.349 33.7264 148.033 
	 35.1286 151.717 36.1802 155.81 37.2317 159.494 38.2835 163.178 
	 39.335 166.862 40.3865 170.955 41.438 174.64 42.4895 178.732 
	 43.5411 182.416 45.2939 188.556 50.5514 188.556 49.8504 186.919 
	 48.7989 182.825 48.0979 178.732 47.0464 175.049 45.9949 171.365 
	 44.9433 167.271 43.8918 163.588 42.84 159.904 41.438 156.219 
	 40.3865 152.536 38.9842 148.442 37.9327 144.759 36.5307 141.075 
	 35.1286 137.391 33.7264 133.707 31.2728 127.976 26.3655 127.976 
	 26.3655 127.976 26.3655 127.976 26.3655 127.976 26.3655 127.976 "
	 style="stroke:none; fill:#ff0000; fill-opacity:100%"></polygon>
	<polyline points="20.1464 112.52 21.8809 112.933 23.963 112.933 
	 26.3915 112.933 28.8203 112.933 31.5962 112.52 34.372 112.108 
	 37.4946 111.696 40.6174 111.283 43.7402 110.458 47.2095 109.634 
	 50.6794 108.809 54.1492 107.572 57.9656 106.747 61.4354 105.51 
	 64.905 104.273 68.3748 103.448 71.8444 101.798 75.314 100.561 
	 78.4368 99.324 81.5597 98.0868 84.6822 96.8497 87.8048 95.2001 
	 90.2339 93.963 92.6624 92.7259 95.0912 91.4886 97.173 90.2515 
	 98.9078 89.0144 100.296 88.1896 101.337 86.9524 102.378 86.1277 
	 102.724 84.0658"
	 style=" stroke:#ffffff; stroke-width:1;"></polyline>
	<polyline points="43.6413 190.57 44.3356 190.984 45.7242 191.396 
	 47.113 191.809 48.8486 191.809 50.9315 191.809 53.3617 191.809 
	 55.7921 191.396 58.222 190.984 60.9994 190.57 64.1239 189.744 
	 66.901 189.331 70.0255 188.505 73.1499 187.266 76.2747 186.44 
	 79.3988 185.613 82.8706 184.375 85.995 183.136 89.1192 181.896 
	 92.2439 180.657 95.0211 179.418 98.1458 178.178 100.923 176.939 
	 103.353 175.7 105.783 174.462 107.866 173.222 109.949 171.983 
	 111.685 170.744 113.421 169.918 114.462 168.679 115.504 167.853 
	 116.545 165.788"
	 style=" stroke:#006532; stroke-width:1;"></polyline>
	<polygon points="25.7945 126.35 22.9104 118.625 27.9578 118.625 
	 31.2027 126.35 25.7945 126.35 25.7945 126.35 25.7945 126.35 
	 25.7945 126.35 25.7945 126.35 "
	 style="stroke:none; fill:#ff0000; fill-opacity:100%"></polygon>
	<polygon points="159.228 181.337 162.346 182.565 168.582 185.431 
	 174.818 187.888 180.707 190.754 186.25 193.619 191.447 196.077 
	 196.297 198.942 200.801 201.809 204.958 204.266 208.769 207.132 
	 211.887 209.589 214.312 212.045 216.391 214.092 218.123 216.55 
	 218.816 218.187 219.163 221.054 218.816 221.464 217.777 223.101 
	 216.045 223.92 213.619 224.329 210.848 224.739 207.73 225.148 
	 203.573 224.739 199.415 224.329 194.912 223.92 189.715 223.101 
	 184.518 221.873 178.975 220.645 173.086 219.006 166.85 216.959 
	 160.614 214.912 150.913 211.227 147.449 209.998 141.213 207.541 
	 134.977 204.675 129.087 202.219 123.198 199.352 118.001 196.486 
	 113.15 193.619 108.647 190.754 104.489 188.296 101.025 185.84 
	 97.9068 182.974 95.1353 180.926 93.0565 178.47 91.6706 176.423 
	 90.6314 174.375 90.6314 171.918 90.9779 171.099 92.0173 169.871 
	 93.7494 168.643 95.828 168.233 98.946 167.824 102.064 167.414 
	 105.875 167.824 110.032 168.233 114.883 168.643 119.733 169.871 
	 125.276 170.69 130.819 172.328 136.709 173.965 142.945 175.604 
	 149.181 177.651 159.228 181.337 159.228 181.337 159.228 181.337 
	 159.228 181.337 159.228 181.337 "
	 style=" stroke:#000000; stroke-width:1; fill:#ff6500; fill-opacity:100%"></polygon>
	<polygon points="159.918 178.081 163.036 179.31 169.619 181.766 
	 175.508 184.633 181.398 187.499 187.287 190.365 192.484 192.823 
	 197.334 195.688 201.838 198.555 205.995 201.012 209.46 203.879 
	 212.578 206.335 215.349 208.792 217.428 210.839 218.814 213.297 
	 219.853 214.934 220.2 217.392 219.853 218.21 218.467 219.439 
	 216.735 220.667 214.656 221.487 211.885 221.487 208.42 221.896 
	 204.61 221.487 200.452 221.487 195.602 220.667 190.752 219.848 
	 185.555 218.62 179.666 217.392 173.776 215.753 167.54 213.706 
	 161.304 211.659 151.604 207.973 148.139 206.745 141.902 204.288 
	 135.667 201.421 129.777 198.965 124.233 196.098 119.037 193.232 
	 114.187 190.365 109.683 187.909 105.526 185.042 102.062 182.586 
	 98.5968 179.719 96.1718 177.672 94.0929 175.215 92.707 173.167 
	 91.6679 171.12 91.6679 168.663 91.6679 167.844 93.0538 166.616 
	 94.4394 165.387 96.8645 164.978 99.6363 164.568 103.101 164.568 
	 106.912 164.568 111.069 164.978 115.573 165.387 120.77 166.616 
	 125.966 167.435 131.51 169.072 137.746 170.71 143.635 172.348 
	 150.218 174.396 159.918 178.081 159.918 178.081 159.918 178.081 
	 159.918 178.081 159.918 178.081 "
	 style=" stroke:#000000; stroke-width:1; fill:#006e00; fill-opacity:100%"></polygon>
	<polygon points="122.073 173.406 122.766 170.957 123.807 166.469 
	 125.194 161.572 126.581 156.676 127.968 151.779 129.007 146.883 
	 130.047 141.986 131.087 137.089 132.127 132.193 133.168 127.297 
	 134.207 122.4 134.9 117.096 135.594 112.199 136.287 106.894 
	 136.635 101.998 137.328 94.2449 138.021 93.0208 140.448 90.9805 
	 144.608 90.1644 150.156 90.1644 156.395 90.9805 164.023 92.6127 
	 171.997 95.0609 180.318 97.9173 188.291 101.182 196.265 104.446 
	 203.893 108.118 210.48 112.199 216.373 115.871 220.535 119.544 
	 223.307 122.808 224 127.297 222.613 129.337 220.186 133.825 
	 218.106 138.314 216.027 142.394 213.947 146.883 211.866 151.371 
	 209.786 155.86 208.053 159.94 205.973 164.837 204.239 169.325 
	 202.506 173.814 200.772 178.71 199.039 183.607 197.652 188.503 
	 195.919 193.4 193.839 201.153 193.145 201.969 191.065 202.785 
	 187.598 203.193 183.091 202.377 177.89 201.561 171.997 199.929 
	 165.756 197.888 159.169 195.441 152.582 192.992 145.995 190.544 
	 140.102 187.28 134.554 184.423 129.7 181.975 125.887 179.119 
	 123.114 176.671 122.073 173.406 122.073 173.406 122.073 173.406 
	 122.073 173.406 122.073 173.406 "
	 style="stroke:none; fill:#006e00; fill-opacity:100%"></polygon>
	<polygon points="137.193 110.9 136.84 112.945 136.488 116.627 
	 135.783 120.718 135.078 124.809 134.373 128.492 133.669 132.173 
	 132.964 136.264 131.906 140.355 131.202 144.037 130.144 148.128 
	 129.439 151.81 128.382 155.901 127.325 159.583 126.268 163.674 
	 125.563 167.356 123.801 173.493 128.03 176.766 128.735 175.129 
	 129.792 171.038 130.497 167.356 131.554 163.265 132.611 159.583 
	 133.669 155.492 134.726 151.81 135.431 148.128 136.488 144.037 
	 137.193 140.355 137.898 136.264 138.602 132.173 139.307 128.492 
	 140.012 124.4 140.717 120.31 141.422 114.173 137.193 110.9 
	 137.193 110.9 137.193 110.9 137.193 110.9 137.193 110.9 "
	 style="stroke:none; fill:#00a500; fill-opacity:100%"></polygon>
	<polyline points="139.349 93.8236 140.737 95.0586 142.472 96.7053 
	 144.206 98.3519 146.289 99.9985 148.717 101.645 151.493 102.88 
	 154.269 104.527 157.045 106.173 160.168 107.82 163.291 109.467 
	 166.76 111.114 169.883 112.348 173.352 113.995 176.822 115.23 
	 180.292 116.877 183.762 118.112 187.231 119.346 190.7 120.582 
	 194.171 121.816 197.294 122.64 200.416 123.463 203.539 124.286 
	 206.314 125.11 209.091 125.521 211.519 125.933 213.601 126.345 
	 215.683 126.345 217.418 126.756 218.805 126.345 220.194 126.345 
	 221.581 125.11"
	 style=" stroke:#ffffff; stroke-width:1;"></polyline>
	<polyline points="121.728 173.513 122.422 174.75 123.116 175.987 
	 124.158 177.223 125.546 178.46 127.283 179.698 129.366 181.346 
	 131.101 182.584 133.532 183.821 136.31 185.469 138.74 186.707 
	 141.517 188.356 144.642 189.593 147.766 190.83 150.892 192.067 
	 153.669 193.303 157.141 194.54 160.265 195.778 163.39 197.014 
	 166.515 197.839 169.639 199.076 172.416 199.9 175.194 200.725 
	 177.972 201.137 180.749 201.962 183.179 202.374 185.262 202.787 
	 187.346 202.787 189.082 202.787 190.471 202.787 191.859 202.787 
	 193.595 201.549"
	 style=" stroke:#ff6500; stroke-width:1;"></polyline>
	<polygon points="137.622 109.158 138.727 100.735 143.149 104.525 
	 141.675 112.526 137.622 109.158 137.622 109.158 137.622 109.158 
	 137.622 109.158 137.622 109.158 "
	 style="stroke:none; fill:#00a500; fill-opacity:100%"></polygon>
      </g>
    </g>
  </symbol>
 </defs>
</svg>
