<?xml version="1.0"?>
<?metis version="3.1.1"?>
<?metisxml version="1.0"?>
<!DOCTYPE svg  PUBLIC "-//W3C//DTD SVG August 1999//EN"
 "http://www.w3.org/Graphics/SVG/svg-19990812.dtd">

<svg width="200" height="200">
 <title>Symbol library: rule_symbols.svg</title>
 <defs>
  <symbol id="oid11" xml:space="preserve" class="METIS_SYMBOL">
   <title>Condition</title>
    <rect x="0" y="0" width="256" height="132.478"
     style=" stroke:#000000; stroke-width:1; fill:#ffcf9f; fill-opacity:100%"></rect>
    <rect x="4.18437" y="3.36808" width="247.816" height="124.619"
     style=" stroke:#000000; stroke-width:1; fill:#ffcf9f; fill-opacity:100%"></rect>
    <g>
      <desc>METIS_TEXT_GROUP</desc>
      <text  x="8.07838" y="36.978"
       style=" stroke:#000000; stroke-width:1; font-family:sans-serif; font-size:32;"
       class="TAG:name">Name</text>
      <rect x="8.07838" y="5.47798" width="239.922" height="26.522"
       style=" stroke:#000000; stroke-width:1; fill:#ffffff; fill-opacity:0%"></rect>
    </g>
  </symbol>
  <symbol id="oid12" xml:space="preserve" class="METIS_SYMBOL">
   <title>ConditionClosed</title>
    <rect x="0" y="0" width="256" height="132.478"
     style=" stroke:#000000; stroke-width:1; fill:#bbf9ff; fill-opacity:100%"></rect>
    <rect x="4.18437" y="3.36808" width="247.816" height="124.619"
     style=" stroke:#000000; stroke-width:1; fill:#bbf9ff; fill-opacity:100%"></rect>
    <g>
      <desc>METIS_TEXT_GROUP</desc>
      <text  x="8.07838" y="80"
       style=" stroke:#000000; stroke-width:1; font-family:sans-serif; font-size:48; text-align:center vertical-align:middle;"
       class="TAG:name">Name</text>
      <rect x="8.07838" y="32" width="239.922" height="80"
       style=" stroke:#000000; stroke-width:1; fill:#ffffff; fill-opacity:0%"></rect>
    </g>
    <polyline points="4 32 252 32"
     style=" stroke:#000000; stroke-width:1;"></polyline>
  </symbol>
  <symbol id="oid1" xml:space="preserve" class="METIS_SYMBOL">
   <title>Consequent</title>
    <rect x="0" y="0" width="187.46" height="132.478"
     style=" stroke:#000000; stroke-width:1; fill:#bbf9ff; fill-opacity:100%"></rect>
    <rect x="4.18437" y="3.36808" width="179.091" height="124.619"
     style=" stroke:#000000; stroke-width:1; fill:#bbf9ff; fill-opacity:100%"></rect>
    <g>
      <desc>METIS_TEXT_GROUP</desc>
      <text  x="8.07838" y="24.978"
       style=" stroke:#000000; stroke-width:1; font-family:sans-serif; font-size:20;"
       class="TAG:name">Name</text>
      <rect x="8.07838" y="5.47798" width="174.382" height="42.522"
       style=" stroke:#000000; stroke-width:1; fill:#ffffff; fill-opacity:0%"></rect>
    </g>
    <polyline points="4 40 185 40"
     style=" stroke:#000000; stroke-width:1;"></polyline>
  </symbol>
  <symbol id="oid2" xml:space="preserve" class="METIS_SYMBOL">
   <title>Premise</title>
    <rect x="0" y="0" width="183.28" height="184" rx="10" ry="10"
     style=" stroke:#000000; stroke-width:1; fill:#e1fcff; fill-opacity:100%"></rect>
    <g>
      <desc>METIS_TEXT_GROUP</desc>
      <text  x="14" y="24.8777"
       style=" stroke:#000000; stroke-width:1; font-family:sans-serif; font-size:16;"
       class="TAG:name">Name</text>
      <rect x="14" y="9.07766" width="157.28" height="28"
       style=" stroke:#000000; stroke-width:1; fill:#ffffff; fill-opacity:0%"></rect>
    </g>
    <polyline points="0.0808501 39 183.081 39"
     style=" stroke:#000000; stroke-width:1;"></polyline>
  </symbol>
  <symbol id="oid3" xml:space="preserve" class="METIS_SYMBOL">
   <title>Not</title>
    <g>
      <polygon points="0 0 0 112 128 48 
       0 0 0 0 0 0 0 0 
       0 0 0 0 0 0 0 0 
       0 0 0 0 "
       style=" stroke:#000000; stroke-width:2; fill:#ffffff; fill-opacity:100%"></polygon>
      <ellipse  cx="144" cy="48" rx="16" ry="16"
       style=" stroke:#000000; stroke-width:2; fill:#ffffff; fill-opacity:100%"></ellipse>
    </g>
  </symbol>
  <symbol id="oid4" xml:space="preserve" class="METIS_SYMBOL">
   <title>ForAll</title>
    <ellipse  cx="64" cy="64" rx="64" ry="64"
     style=" stroke:#000000; stroke-width:2; fill:#ffffff; fill-opacity:100%"></ellipse>
    <polyline points="32 32 64 96 64 96 
     96 32"
     style=" stroke:#000000; stroke-width:4;"></polyline>
    <polyline points="48 64 80 64"
     style=" stroke:#000000; stroke-width:4;"></polyline>
  </symbol>
  <symbol id="oid5" xml:space="preserve" class="METIS_SYMBOL">
   <title>Exists</title>
    <ellipse  cx="64" cy="64" rx="64" ry="64"
     style=" stroke:#000000; stroke-width:1; fill:#ffffff; fill-opacity:100%"></ellipse>
    <polyline points="28 34 92 34 92 98 
     28 98 28 98"
     style=" stroke:#000000; stroke-width:4;"></polyline>
    <polyline points="90 64 58 64"
     style=" stroke:#000000; stroke-width:4;"></polyline>
  </symbol>
  <symbol id="oid6" xml:space="preserve" class="METIS_SYMBOL">
   <title>Rule</title>
    <polygon points="0 424 521 424 521 20.1905 
     502.393 20.1905 483.786 0 316.321 0 297.714 20.1905 
     0 20.1905 0 424 0 424 0 424 
     0 424 0 424 0 424 0 424 
     0 424 0 424 0 424 0 424 
     0 424 0 424 0 424 0 424 
     0 424 0 424 0 424 0 424 
     0 424 0 424 0 424 0 424 
     0 424 0 424 0 424 0 424 
     0 424 0 424 0 424 0 424 "
     style=" stroke:#000000; stroke-width:2; fill:#ffffff; fill-opacity:100%"     class="TAG:canvas"></polygon>
  </symbol>
  <symbol id="oid7" xml:space="preserve" class="METIS_SYMBOL">
   <title>Atomic Predicate</title>
    <rect x="0" y="0" width="256" height="52" rx="10" ry="10"
     style=" stroke:#000000; stroke-width:1; fill:#c8c8ff; fill-opacity:100%"     class="TAG:canvas"></rect>
    <g>
      <desc>METIS_TEXT_GROUP</desc>
      <text  x="19" y="25.8"
       style=" stroke:#000000; stroke-width:1; font-family:sans-serif; font-size:16;"
       class="TAG:name">Name</text>
      <rect x="19" y="10" width="221" height="35"
       style=" stroke:#000000; stroke-width:1; fill:#c8c8ff; fill-opacity:0%"></rect>
    </g>
  </symbol>
  <symbol id="oid8" xml:space="preserve" class="METIS_SYMBOL">
   <title>Named Predicate</title>
    <rect x="0" y="0" width="330.88" height="48.1991" rx="10" ry="10"
     style=" stroke:#000000; stroke-width:1; fill:#96a5ff; fill-opacity:100%"     class="TAG:canvas"></rect>
    <g>
      <desc>METIS_TEXT_GROUP</desc>
      <text  x="12" y="22.9991"
       style=" stroke:#000000; stroke-width:1; font-family:sans-serif; font-size:16;"
       class="TAG:name">Name
</text>
      <rect x="12" y="7.19912" width="305.88" height="35"
       style=" stroke:#000000; stroke-width:1; fill:#96a5ff; fill-opacity:0%"></rect>
    </g>
  </symbol>
  <symbol id="oid9" xml:space="preserve" class="METIS_SYMBOL">
   <title>And</title>
    <path d="M 1.5 0 C 1.5 48 1.5 60 
     1.5 144 C 1.5 144 0 144 2 144 
     C 7 144 23.1713 144 32 144 C 96 144 
     83.3826 144 128 144 C 156.9 144 196.4 103.599 
     192 64 C 187.6 24.4008 138.516 0 112 0 
     C 64 0 3 0 1.5 0 Z"
     style=" stroke:#000000; stroke-width:2; fill:#ffffff; fill-opacity:100%"></path>
  </symbol>
  <symbol id="oid10" xml:space="preserve" class="METIS_SYMBOL">
   <title>Or</title>
    <path d="M 8 192 C 112 192 128 192 
     176 192 C 216.965 192 305.41 146.807 304 96 
     C 302.475 41.044 219.511 0 176 0 C 80 0 
     0 0 8 0 C 8 0 96 40 
     96 104 C 96 104 80 160 8.5 192 Z"
     style=" stroke:#000000; stroke-width:2; fill:#ffffff; fill-opacity:100%"></path>
  </symbol>
 </defs>
</svg>
