<?xml version="1.0"?>
<?metis version="3.1"?>
<?metisxml version="1.0"?>
<!DOCTYPE svg  PUBLIC "-//W3C//DTD SVG August 1999//EN"
 "http://www.w3.org/Graphics/SVG/svg-19990812.dtd">

<svg width="200" height="200">
 <title>Symbol library: rule.svg</title>
 <defs>
  <symbol id="oid1" xml:space="preserve" class="METIS_SYMBOL">
   <title>Rule</title>
    <g>
      <polygon points="0 0 0 304 16 320 
       880 320 880 16 864 0 0 0 
       0 0 0 0 0 0 0 0 "
       style=" stroke:#000000; stroke-width:1; fill:#9b9b9b; fill-opacity:100%"       class="TAG:shadow"></polygon>
      <rect x="0" y="0" width="240" height="304"
       style=" stroke:#000000; stroke-width:1; fill:#ffff6e; fill-opacity:100%"       class="TAG:PictureBackground"></rect>
      <rect x="240" y="0" width="624" height="304"
       style=" stroke:#000000; stroke-width:1; fill:#ff8c8c; fill-opacity:100%"       class="TAG:canvas"></rect>
      <g>
	<desc>METIS_TEXT_GROUP</desc>
	<text  x="256" y="15.8"
	 style=" stroke:#000000; stroke-width:1; font-family:sans-serif; font-size:16;"
	 class="TAG:text">text</text>
	<rect x="256" y="0" width="608" height="304"
	 style=" stroke:#000000; stroke-width:1; fill:#ffffff; fill-opacity:0%"></rect>
      </g>
      <g>
	<polygon points="106.2 102.108 92.7508 103.216 79.2979 103.951 
	 77.7178 99.5307 75.3413 96.5832 70.5927 94.7404 64.2645 94.0027 
	 58.7282 94.3716 54.7719 95.8453 52.3951 97.6877 51.6031 100.269 
	 52.3951 102.846 54.7719 105.427 57.1438 107.269 61.8924 109.479 
	 68.2209 112.429 76.9257 116.114 85.6261 119.796 91.9592 123.115 
	 97.4959 125.693 101.452 127.905 106.993 132.326 109.364 134.168 
	 110.949 136.379 113.321 141.169 114.113 145.961 113.321 151.856 
	 109.364 157.384 103.829 162.176 95.915 166.597 101.452 170.651 
	 105.408 174.336 106.993 178.757 107.785 183.179 106.993 188.339 
	 104.616 192.76 101.452 196.444 96.7077 199.761 91.1676 202.341 
	 84.0463 204.552 75.3413 205.657 66.6364 206.026 57.9361 205.657 
	 49.231 204.552 42.1104 202.341 35.782 199.761 30.2413 196.444 
	 26.2849 192.392 23.1208 187.601 21.5363 182.073 34.9899 181.337 
	 48.4388 180.23 50.8153 185.389 53.9796 189.075 57.1438 190.181 
	 59.5159 191.286 62.6801 192.024 66.6364 192.024 72.9695 191.654 
	 76.9257 189.812 79.2979 188.707 80.0899 187.232 80.8821 184.284 
	 80.8821 182.811 80.0899 181.337 79.2979 180.23 77.7178 178.757 
	 74.5492 177.283 69.8052 174.704 61.8924 171.387 52.3951 166.965 
	 42.1104 162.542 34.1975 158.491 27.8694 154.437 23.1208 151.12 
	 19.9566 147.804 17.5801 144.488 16.7923 140.803 16 137.118 
	 17.5801 130.483 20.7442 124.589 26.2849 119.796 34.1975 115.744 
	 30.2413 112.429 26.2849 108.744 24.7006 105.058 23.9128 101.373 
	 24.7006 96.9499 27.0771 92.8979 30.2413 89.2129 34.9899 85.8966 
	 40.526 83.3162 47.6467 81.4737 54.7719 80.3688 63.4722 80 
	 72.1771 80.3688 79.2979 81.4737 86.4184 83.3162 92.7508 85.8966 
	 97.4959 88.8438 101.452 92.8979 104.616 97.3189 106.2 102.108 
	 106.2 102.108 106.2 102.108 106.2 102.108 106.2 102.108 
	 106.2 102.108 106.2 102.108 106.2 102.108 "
	 style=" stroke:#000000; stroke-width:1; fill:#000000; fill-opacity:100%"></polygon>
	<polygon points="216.087 102.108 202.633 103.216 189.185 103.951 
	 187.601 99.5307 185.228 96.5832 180.48 94.7404 174.151 94.0027 
	 168.611 94.3716 164.654 95.8453 162.283 97.6877 161.49 100.269 
	 162.283 102.846 164.654 105.427 167.031 107.269 171.78 109.479 
	 178.108 112.429 186.812 116.114 195.513 119.796 201.846 123.115 
	 207.382 125.693 211.339 127.905 216.879 132.326 219.251 134.168 
	 220.836 136.379 223.208 141.169 224 145.961 223.208 151.856 
	 219.251 157.384 213.715 162.176 206.59 166.597 211.339 170.651 
	 215.295 174.336 216.879 178.757 217.672 183.179 216.879 188.339 
	 214.503 192.76 211.339 196.444 206.59 199.761 201.054 202.341 
	 193.934 204.552 185.228 205.657 176.524 206.026 167.823 205.657 
	 159.119 204.552 151.997 202.341 145.665 199.761 140.128 196.444 
	 136.172 192.392 133.008 187.601 131.424 182.073 144.876 181.337 
	 158.326 180.23 160.698 185.389 163.867 189.075 167.031 190.181 
	 169.403 191.286 172.567 192.024 176.524 192.024 182.857 191.654 
	 186.812 189.812 189.185 188.707 189.977 187.232 190.769 184.284 
	 190.769 182.811 189.977 181.337 189.185 180.23 187.601 178.757 
	 184.437 177.283 179.692 174.704 171.78 171.387 162.283 166.965 
	 151.997 162.542 144.085 158.491 137.756 154.437 133.008 151.12 
	 129.844 147.804 127.467 144.488 126.675 140.803 125.887 137.118 
	 127.467 130.483 130.631 124.589 136.172 119.796 144.085 115.744 
	 140.128 112.429 136.964 108.744 134.588 105.058 133.8 101.373 
	 134.588 96.9499 136.964 92.8979 140.128 89.2129 144.876 85.8966 
	 150.413 83.3162 157.534 81.4737 164.654 80.3688 173.36 80 
	 182.064 80.3688 189.185 81.4737 196.305 83.3162 202.633 85.8966 
	 207.382 88.8438 211.339 92.8979 214.503 97.3189 216.087 102.108 
	 216.087 102.108 216.087 102.108 216.087 102.108 216.087 102.108 
	 216.087 102.108 216.087 102.108 216.087 102.108 "
	 style=" stroke:#000000; stroke-width:1; fill:#000000; fill-opacity:100%"></polygon>
      </g>
      <polygon points="95.1454 166.414 98.796 163.814 100.989 161.584 
       102.446 158.987 103.177 156.757 102.446 154.529 100.989 151.93 
       96.6074 148.958 92.9568 147.101 89.3062 144.875 77.6236 138.56 
       65.2144 131.876 62.2946 133.734 60.8329 134.846 59.3752 136.333 
       57.9134 138.56 57.1823 140.789 57.9134 144.131 60.102 147.473 
       64.4833 150.815 69.5959 153.787 82.0051 160.099 95.1454 166.414 
       95.1454 166.414 95.1454 166.414 95.1454 166.414 95.1454 166.414 
       95.1454 166.414 95.1454 166.414 95.1454 166.414 "
       style=" stroke:#000000; stroke-width:1; fill:#ffff6e; fill-opacity:100%"></polygon>
      <polygon points="195.76 166.414 199.411 163.814 201.604 161.584 
       203.061 158.987 203.793 156.757 203.061 154.529 201.604 151.93 
       200.142 150.815 197.222 148.958 194.302 147.101 189.921 144.875 
       178.239 138.56 165.829 131.876 162.909 133.734 161.447 134.846 
       159.989 136.333 158.529 138.56 157.797 140.789 158.529 144.131 
       160.716 147.473 165.098 150.815 170.211 153.787 182.619 160.099 
       195.76 166.414 195.76 166.414 195.76 166.414 195.76 166.414 
       195.76 166.414 195.76 166.414 195.76 166.414 195.76 166.414 "
       style=" stroke:#000000; stroke-width:1; fill:#ffff6e; fill-opacity:100%"></polygon>
      <polyline points="864 304 880 320"
       style=" stroke:#000000; stroke-width:1;"></polyline>
    </g>
  </symbol>
 </defs>
</svg>
