<?xml version="1.0" encoding="UTF-8" standalone="no"?>
<svg id="svg2" xmlns:rdf="http://www.w3.org/1999/02/22-rdf-syntax-ns#" xmlns="http://www.w3.org/2000/svg" enable-background="new 21.027 45.083 219 219" xml:space="preserve" height="219px" width="219px" version="1.1" y="0px" x="0px" xmlns:cc="http://creativecommons.org/ns#" xmlns:xlink="http://www.w3.org/1999/xlink" viewBox="21.027 45.083 219 219" xmlns:dc="http://purl.org/dc/elements/1.1/"><metadata id="metadata336"><rdf:RDF><cc:Work rdf:about=""><dc:format>image/svg+xml</dc:format><dc:type rdf:resource="http://purl.org/dc/dcmitype/StillImage"/><dc:title/></cc:Work></rdf:RDF></metadata><defs id="defs4"><filter id="filter4113"><feGaussianBlur id="feGaussianBlur4115" stdDeviation="1.9151605"/></filter></defs><g id="g4342" transform="matrix(1.0421124,0,0,1.0421124,-6.4003478,-5.025072)"><path id="path272-7" opacity="0.5" d="M160.25,64.04h-82.76c-9.521,0-17.24,7.718-17.24,17.239v157.55c0,9.52,7.719,17.238,17.24,17.238h121.15c9.521,0,17.238-7.719,17.238-17.238l0.553-138.03-56.188-36.76z" filter="url(#filter4113)" stroke-miterlimit="4" stroke-width="0" fill="#000"/><path id="path272" d="M152.99,56.547h-82.761c-9.521,0-17.24,7.718-17.24,17.239v157.55c0,9.52,7.719,17.238,17.24,17.238h121.15c9.521,0,17.238-7.719,17.238-17.238l0.553-138.03-56.188-36.76z" stroke="#b5b5b5" stroke-width="3" fill="#f2f2f2"/><path id="path276" d="m207.7,94.116h-37.058c-9.951,0-18.019-9.538-18.019-21.302v-14.768" stroke="#b5b5b5" stroke-width="3" fill="#f2f2f2"/><line id="line278" stroke-width="5" y2="152.34" y1="151.86" stroke="#231f20" x2="175.1" x1="84.106" fill="#919191"/><line id="line280" stroke-width="5" y2="176.65" y1="176.17" stroke="#231f20" x2="174.98" x1="83.989" fill="#919191"/><line id="line282" stroke-width="5" y2="105.75" y1="105.27" stroke="#231f20" x2="174.12" x1="83.137" fill="#919191"/><line id="line284" stroke-width="5" y2="129.09" y1="128.61" stroke="#231f20" x2="174" x1="83.019" fill="#919191"/><path id="path288" d="m79.348,62.647,0.386-0.087c2.274-0.518,5.288,0.422,9.042,2.819l0.292,1.289c1.273,5.603,5.122,13.58,11.539,23.926l1.446-0.193,5.094-1.431c1.632-0.372,2.556-0.084,2.77,0.861,0.354-0.036,0.555,0.054,0.604,0.269,0.493,2.168-0.591,3.951-3.254,5.346l-2.558,1.259c5.789,8.483,10.532,14.042,14.224,16.678,2.717,1.618,4.293,3.381,4.728,5.292,0.26,1.138-0.081,2.026-1.019,2.67,0.063,0.278-0.523,0.684-1.756,1.212l-0.771,0.177c-2.793,0.635-7.282-3.221-13.471-11.567-3.133-3.441-6.304-7.46-9.517-12.058l-4.051,0.65c-11.428,3.368-16.979,5.76-16.656,7.176-0.523,0.683-1.44,4.188-2.756,10.518-1.062,2.678-2.558,4.239-4.49,4.678l-0.772,0.175c-1.846,0.42-3.027,0.193-3.543-0.682l-0.726-2.004c-0.2-0.879-0.282-3.028-0.248-6.446-0.092-0.407-2.366-0.477-6.82-0.21-1.43-0.328-2.23-0.869-2.401-1.62,0.28-1.351,1.248-2.655,2.903-3.913l8.53-4.785c0.639-0.37,1.386-1.851,2.241-4.438,3.033-8.501,5.074-15.604,6.126-21.307,0.497-2.574,0.92-5.879,1.269-9.908,0.54-2.472,1.746-3.92,3.615-4.346zm4.863,18.404c-2.092,5.894-3.598,10.978-4.522,15.252l0.03,0.129,0.129-0.03c1.244-0.283,4.531-1.709,9.864-4.277l1.645-0.509,0.13-0.029c-2.826-5.477-4.83-8.725-6.011-9.742l-1.265-0.794z" stroke="#FFF" stroke-width="2" fill="#ee3424"/><path id="path290" d="m129.76,65.875c1.331-0.302,2.348,0.596,3.052,2.692l0.234,1.031,1.051,6.4,0.965,4.25c4.24-1.415,8.398-2.586,12.478-3.515,2.203,1.35,3.506,2.905,3.906,4.664,0.195,1.854-0.028,2.854-0.672,3l-13.261,4.236c1.231,3.829,2.146,7.052,2.74,9.671l0.499,2.19c-1.093,2.235-2.596,3.571-4.508,4.005-1.943,0.196-2.974,0.023-3.096-0.513l-4.049-13.032-0.874,0.333-4.896,1.113c-4.271,0.972-6.927,0.808-7.966-0.49-1.36-1.251-2.14-2.292-2.33-3.131l-0.176-0.771c-0.39-1.719,0.702-2.87,3.277-3.457,3.943-0.536,6.987-1.046,9.135-1.535l1.415-0.323-1.329-5.251c-1.063-5.267-1.102-8.013-0.112-8.238,0.95-1.572,2.115-2.604,3.494-3.098l1.031-0.235z" stroke="#FFF" stroke-width="2" fill="#ee3424"/><polygon id="polygon292" points="184.56,230.8,173.88,245.66,162.69,231.08,144.59,225.76,154.09,210.17,154.46,191.76,171.16,195.63,189.85,190.64,190.7,209.26,201.85,223.95" stroke="#FFF" fill="none"/><polygon id="polygon294" points="181.28,232.94,167.57,245.06,159.9,228.37,143.41,219.18,156.13,206.08,160.57,188.2,175.99,195.67,195.33,194.94,192.04,213.29,199.66,230.08" stroke="#FFF" fill="none"/><polygon id="polygon296" points="176.69,233.71,160.4,242.04,157.12,223.96,143.44,210.96,159.02,201.44,167.77,185.22,180.85,196.3,199.76,200.41,192,217.36,195.2,235.52" stroke="#FFF" fill="none"/><polygon id="polygon298" points="171.14,234.2,153.27,238.12,154.69,219.8,144.77,203.75,162.26,198.5,174.84,185.04,184.67,199.08,201.92,207.86,190.11,222.28,188.59,240.66" stroke="#FFF" fill="none"/><path id="polygon292-9" d="m174.5,185.57-3.1392,3.3526-3.7488-3.2002-2.682,4.9984-4.3583-2.103-1.1582,4.6022-4.785-1.1277-0.0914,4.9374-5.5774,0.0914,1.4934,5.0898-5.2727,1.5848,2.804,4.5412-4.1145,2.4992,4.0535,3.8402-4.084,4.1755,3.8097,2.103-2.6516,4.3278,4.785,1.402-1.7982,4.9679,5.8822,0.30478-0.39621,5.3641,6.0041-1.3105,0.94482,5.1508,4.5717-2.3468,2.4077,5.2727,3.4135-2.9868,2.743,3.5659,3.0478-4.2364,3.9012,2.804,2.0115-5.425,5.3946,1.9811,0.45717-5.5774,6.0041,0.57908-0.79242-4.5107,5.1203-0.79242-1.981-4.3583,4.1145-1.6153-3.505-4.6022,4.2669-3.0173-4.1755-3.8402,3.4745-4.2364-4.4193-2.2249,2.3163-5.0593-5.0593-1.0972,0.76195-4.2364-5.1508,0.21335-0.21335-4.3888-5.2727,1.402-1.7677-5.0288-4.4193,2.682-3.1697-4.5107z" stroke="#f9f3f3" stroke-width="0.97528988" fill="#d59f0f"/><g id="g312" opacity="0.82999998">
	<defs id="defs314"><path id="SVGID_1_" opacity="0.82999998" d="m146.05,222.57s26.908-15.177,54.263-1.712c0,0,19.71,14.153-0.096,23.077,0,0-63.99,11.318-61.377-8.271l7.21-13.094z"/></defs>
	<clipPath id="SVGID_4_">
		<use id="use318" opacity="0.41000001" xlink:href="#SVGID_1_" height="219" width="219" y="0" x="0" overflow="visible"/>
	</clipPath>
	<g id="g320" fill="#fdbb30" clip-path="url(#SVGID_4_)">
		<polygon id="polygon322" points="183.93,229.74,173.81,243.82,163.21,230,146.05,224.97,155.06,210.2,155.41,192.74,171.23,196.41,188.95,191.69,189.75,209.34,200.32,223.26"/>
		<polygon id="polygon324" points="180.82,231.77,167.83,243.26,160.56,227.44,144.94,218.73,156.99,206.32,161.2,189.37,175.81,196.45,194.14,195.76,191.02,213.15,198.24,229.06"/>
		<polygon id="polygon326" points="176.47,232.5,161.04,240.4,157.93,223.26,144.97,210.94,159.73,201.92,168.02,186.56,180.42,197.05,198.33,200.94,190.98,217.01,194.02,234.22"/>
		<polygon id="polygon328" points="171.22,232.97,154.28,236.68,155.63,219.32,146.23,204.11,162.8,199.14,174.72,186.39,184.04,199.68,200.38,208,189.19,221.68,187.75,239.09"/>
		<polygon id="polygon330" points="166.28,232.12,148.96,231.17,154.9,214.8,149.91,197.63,167.21,197.27,182.1,188.17,187.53,203.47,201.05,215.86,186.61,226.04,180.57,242.44"/>
	</g>
</g><path id="path332" fill="none" stroke="#2d2d2d" d="m60.186,218.94c9.79,0.894,18.633-3.622,26.476-8.915-3.013,8.501-10.554,14.74-16.915,20.74-1.693,1.598-3.356,3.228-4.975,4.902,1.357-1.405,2.172-3.24,3.327-4.798,1.269-1.711,2.6-3.395,4.083-4.927,2.893-2.988,6.465-5.492,10.677-6.057,1.762,2.232-2.854,6.401-3.57,8.35,3.053-1.074,6.603-3.159,8.493-5.846-2.217-1.002-7.818,4.282-8.518,6.005,0.048-0.119,3.077-1.341,3.428-1.588,1.204-0.851,2.284-1.859,3.469-2.735,2.156-1.595,4.573-3.223,7.358-3.24-1.334,6.522,6.621,0.112,9.289,1.075,2.015,0.73,0.316,2.329,1.677,3.469,1.647,1.379,6.348-0.877,8.184-0.994-0.154,0.522-0.322,1.043-0.504,1.557,4.798,3.171,16.141-0.306,21.156-1.771"/></g>
</svg>