<?xml version="1.0"?>
<?metis version="5.2.1"?>
<?metisxml version="1.2"?>
<!DOCTYPE svg  PUBLIC "-//W3C//DTD SVG 1.0//EN"
 "http://www.w3.org/TR/2001/REC-SVG-20010904/DTD/svg10.dtd">

<svg>
 <title>Symbol library: seat1.svg</title>
 <defs>
  <symbol id="_002as8n02ajb74no2avh" xml:space="preserve" class="METIS_SYMBOL">
   <title>Seat</title>
    <g>
      <desc>METIS_TEXT_GROUP</desc>
      <text  x="0" y="15"
       style=" stroke:#000000; stroke-width:1; font-family:sans-serif; font-size:16;"
></text>
      <rect x="0" y="0" width="384" height="352"
       style=" stroke:#000000; stroke-width:1; fill:#ffffff; fill-opacity:0%"></rect>
    </g>
    <path d="M 74.0772 271.885 C 85.071 271.671 89.821 271.671 
     93.0772 271.885 C 108.751 272.918 145.649 278.232 161.078 280.885 
     C 168.665 282.19 186.662 285.593 194.078 287.885 C 198.119 289.135 
     206.441 294.486 211.078 294.885 C 222.703 295.887 245.719 286.739 
     256.078 284.885 C 261.067 283.992 272.757 286.416 278.078 281.885 
     C 283.838 276.979 283.066 264.022 285.078 258.885 C 296.788 228.973 
     331.616 161.325 346.078 132.885 C 354.858 115.617 382.426 79.3329 
     386.078 57.8852 C 386.643 54.5664 387.675 47.9716 384.078 44.8852 
     C 374.778 36.907 358.959 39.7403 350.078 44.8852 C 309.122 68.6093 
     286.956 147.979 272.078 180.885 C 267.666 190.642 258.223 213.701 
     257.078 224.885 C 256.283 232.644 264.284 255.838 261.078 256.885 
     C 260.054 257.22 259.653 249.128 256.078 247.885 C 251.562 246.316 
     247.253 252.458 244.078 252.885 C 234.473 254.176 213.927 249.381 
     205.078 247.885 C 187.598 244.93 146.494 235.082 129.077 231.885 
     C 117.501 229.76 90.8015 222.383 78.0772 223.885 C 73.5457 224.42 
     64.1083 225.055 61.0772 230.885 C 54.3176 243.887 58.9251 261.964 
     70.0772 270.885 C 70.0772 270.885 70.0772 270.885 70.0772 270.885 Z"
     style=" stroke:#000000; stroke-width:1; fill:#464646; fill-opacity:100%"></path>
    <path d="M 369.021 40.8852 C 371.657 35.2709 372.657 32.7709 
     373.021 30.8852 C 374.01 25.7495 376.215 14.6023 373.021 8.88524 
     C 370.804 4.91857 363.883 1.72326 360.021 0.885244 C 355.94 0 
     347.785 0.837018 344.021 2.88524 C 336.397 7.03259 325.938 19.8775 
     323.021 27.8852 C 321.055 33.281 320.278 44.2778 323.021 49.8852 
     C 324.442 52.7914 328.475 56.5341 332.021 56.8852 C 334.107 57.0918 
     336.726 54.7501 338.021 53.8852 C 341.852 51.3262 348.139 42.7063 
     353.021 40.8852 C 355.787 39.8531 358.846 40.1111 368.021 40.8852 Z"
     style=" stroke:#000000; stroke-width:1; fill:#ffffff; fill-opacity:100%"></path>
    <path d="M 331.021 57.8852 C 322.812 53.4095 318.812 52.4095 
     315.021 53.8852 C 277.186 68.6102 257.912 129.413 247.021 156.885 
     C 242.364 168.632 240.145 197.052 238.021 208.885 C 236.26 218.693 
     220.655 243.365 230.021 251.885 C 234.697 256.14 246.421 250.19 
     251.021 245.885 C 271.605 226.619 275.504 174.522 284.021 153.885 
     C 290.179 138.961 295.311 101.778 314.021 89.8852 C 314.021 89.8852 
     314.021 89.8852 314.021 89.8852 Z"
     style=" stroke:#000000; stroke-width:1; fill:#ffffff; fill-opacity:100%"></path>
    <path d="M 226.004 250.742 C 226.22 245.245 226.352 242.873 
     226.531 241.253 C 226.774 239.067 229.577 234.639 228.113 231.764 
     C 225.601 226.832 216.858 225.814 213.352 224.384 C 200.178 219.01 
     168.204 208.586 154.309 205.405 C 142.382 202.675 113.777 198.801 
     101.591 198.025 C 91.4536 197.379 67.7147 196.03 57.3085 198.552 
     C 52.0457 199.828 41.2136 203.906 37.2759 208.569 C 32.8194 213.846 
     30.7678 226.957 29.8955 232.819 C 28.6982 240.865 29.3824 259.663 
     29.8955 267.612 C 30.7421 280.729 36.6896 311.369 37.2759 324.547 
     C 37.4106 327.575 40.502 334.472 36.7488 337.726 C 30.8676 342.825 
     21.1706 334.939 16.189 335.618 C 13.0506 336.045 6.51388 337.291 
     4.06395 340.362 C 2.05786 342.877 0 347.714 2.48243 350.906 
     C 4.94963 354.077 10.6078 351.839 13.0259 351.96 C 21.6879 352.392 
     42.1983 353.3 50.9825 351.96 C 53.0276 351.648 57.6249 351.413 
     59.4172 349.324 C 62.9859 345.165 61.8631 335.983 62.0531 331.927 
     C 63.0565 310.506 54.3619 260.897 56.7814 239.145 C 56.8813 238.246 
     57.5458 236.283 57.8357 235.454 C 58.3534 233.975 59.2656 230.445 
     60.4716 229.128 C 62.6709 226.727 68.4803 223.944 71.5423 223.329 
     C 82.0433 221.221 104.541 225.445 114.243 227.02 C 126.516 229.011 
     154.887 237.042 166.961 239.672 C 178.566 242.2 206.148 248.529 
     218.097 249.688 C 218.097 249.688 218.097 249.688 218.097 249.688 Z"
     style=" stroke:#000000; stroke-width:1; fill:#ffffff; fill-opacity:100%"></path>
  </symbol>
  <symbol id="_002as8n02bebjp5qk7ij" xml:space="preserve" class="METIS_SYMBOL">
   <title>Untitled1</title>
    <image x="0" y="0" width="745" height="745" id="_002as8n02beimvahl0f2" xlink:role="owned" xlink:href="seat1__002as8n02beimvahl0f2.png"></image>
  </symbol>
 </defs>
 <use xlink:href="#_002as8n02ajb74no2avh"/>
</svg>
