<?xml version="1.0"?>
<?metis version="3.5"?>
<?metisxml version="1.1"?>
<!DOCTYPE svg  PUBLIC "-//W3C//DTD SVG August 1999//EN"
 "http://www.w3.org/Graphics/SVG/svg-19990812.dtd">

<svg width="200" height="200">
 <title>Symbol library: sequence_object.svg</title>
 <defs>
  <symbol id="oid2" xml:space="preserve" class="METIS_SYMBOL">
   <title>Node Open</title>
    <rect x="0" y="0" width="640" height="256"
     style="stroke:none; fill:#ffffff; fill-opacity:0%"></rect>
    <polygon points="16 256 624 256 624 0 
     16 0 16 256 16 256 16 256 
     16 256 16 256 16 256 16 256 
     16 256 16 256 16 256 16 256 16 256 "
     style=" stroke:#000000; stroke-width:1; fill:#ffffff; fill-opacity:100%"     class="TAG:canvas"></polygon>
    <g>
      <desc>METIS_TEXT_GROUP</desc>
      <text  x="24" y="23"
       style=" stroke:#000000; stroke-width:1; font-family:sans-serif; font-size:16; text-align:center vertical-align:middle;"
       class="TAG:text">text</text>
      <rect x="24" y="8" width="592" height="240"
       style=" stroke:#000000; stroke-width:1; fill:#ffffff; fill-opacity:0%"></rect>
    </g>
    <g>
      <desc>METIS_TEXT_GROUP</desc>
      <text  x="24" y="79"
       style=" stroke:#000000; stroke-width:1; font-family:sans-serif; font-size:16;"
       class="TAG:text1"></text>
      <rect x="24" y="64" width="592" height="184"
       style=" stroke:#000000; stroke-width:1; fill:#a5ffa5; fill-opacity:0%"></rect>
    </g>
  </symbol>
  <symbol id="oid1" xml:space="preserve" class="METIS_SYMBOL">
   <title>Line Open</title>
    <rect x="0" y="0" width="896" height="288"
     style="stroke:none; fill:#ffffff; fill-opacity:0%"></rect>
    <polygon points="16 272 880 272 880 16 
     16 16 16 272 16 272 16 272 
     16 272 16 272 16 272 16 272 
     16 272 16 272 16 272 16 272 16 272 "
     style="stroke:none; fill:#ffffff; fill-opacity:100%"     class="TAG:canvas"></polygon>
    <polygon points="16 208 16 272 80 272 
     16 208 16 208 16 208 16 208 16 208 "
     style=" stroke:#dcdcdc; stroke-width:1; fill:#dcdcdc; fill-opacity:50%"></polygon>
    <polygon points="16 224 16 272 64 272 
     16 224 16 224 16 224 16 224 16 224 "
     style=" stroke:#dcdcdc; stroke-width:1; fill:#dcdcdc; fill-opacity:100%"></polygon>
    <polygon points="16 240 16 272 48 272 
     16 240 16 240 16 240 16 240 16 240 "
     style=" stroke:#b9b9b9; stroke-width:1; fill:#b9b9b9; fill-opacity:100%"></polygon>
    <g>
      <desc>METIS_TEXT_GROUP</desc>
      <text  x="24" y="37"
       style=" stroke:#000000; stroke-width:1; font-family:sans-serif; font-size:14; vertical-align:middle;"
       class="TAG:text">text</text>
      <rect x="24" y="24" width="848" height="240"
       style=" stroke:#000000; stroke-width:1; fill:#dcdcdc; fill-opacity:0%"></rect>
    </g>
  </symbol>
 </defs>
</svg>
