<?xml version="1.0" encoding="UTF-8" standalone="no"?>

<svg
 xmlns:dc="http://purl.org/dc/elements/1.1/"
   xmlns:cc="http://creativecommons.org/ns#"
   xmlns:rdf="http://www.w3.org/1999/02/22-rdf-syntax-ns#"
   xmlns:svg="http://www.w3.org/2000/svg"
   xmlns="http://www.w3.org/2000/svg"
   xmlns:xlink="http://www.w3.org/1999/xlink"
   xmlns:sodipodi="http://sodipodi.sourceforge.net/DTD/sodipodi-0.dtd"
   xmlns:inkscape="http://www.inkscape.org/namespaces/inkscape"
   id="svg2"
   version="1.1"
   inkscape:version="0.47 r22583"
   width="100"
   height="100"
   sodipodi:docname="service_architecture.svg">
  <metadata
     id="metadata88">
    <rdf:RDF>
      <cc:Work
         rdf:about="">
        <dc:format>image/svg+xml</dc:format>
        <dc:type
           rdf:resource="http://purl.org/dc/dcmitype/StillImage" />
        <dc:title />
      </cc:Work>
    </rdf:RDF>
  </metadata>
  <defs
     id="defs86">
    <linearGradient
       inkscape:collect="always"
       id="linearGradient3700">
      <stop
         style="stop-color:#775599;stop-opacity:1;"
         offset="0"
         id="stop3702" />
      <stop
         style="stop-color:#775599;stop-opacity:0;"
         offset="1"
         id="stop3704" />
    </linearGradient>
    <linearGradient
       inkscape:collect="always"
       id="linearGradient3692">
      <stop
         style="stop-color:#ff7711;stop-opacity:1;"
         offset="0"
         id="stop3694" />
      <stop
         style="stop-color:#ff7711;stop-opacity:0;"
         offset="1"
         id="stop3696" />
    </linearGradient>
    <linearGradient
       inkscape:collect="always"
       id="linearGradient3684">
      <stop
         style="stop-color:#ff7711;stop-opacity:1;"
         offset="0"
         id="stop3686" />
      <stop
         style="stop-color:#ff7711;stop-opacity:0;"
         offset="1"
         id="stop3688" />
    </linearGradient>
    <linearGradient
       inkscape:collect="always"
       id="linearGradient3676">
      <stop
         style="stop-color:#567500;stop-opacity:1;"
         offset="0"
         id="stop3678" />
      <stop
         style="stop-color:#567500;stop-opacity:0;"
         offset="1"
         id="stop3680" />
    </linearGradient>
    <linearGradient
       inkscape:collect="always"
       id="linearGradient3668">
      <stop
         style="stop-color:#ff7711;stop-opacity:1;"
         offset="0"
         id="stop3670" />
      <stop
         style="stop-color:#ff7711;stop-opacity:0;"
         offset="1"
         id="stop3672" />
    </linearGradient>
    <inkscape:perspective
       sodipodi:type="inkscape:persp3d"
       inkscape:vp_x="0 : 0.5 : 1"
       inkscape:vp_y="0 : 1000 : 0"
       inkscape:vp_z="1 : 0.5 : 1"
       inkscape:persp3d-origin="0.5 : 0.33333333 : 1"
       id="perspective90" />
    <linearGradient
       inkscape:collect="always"
       xlink:href="#linearGradient3668"
       id="linearGradient3708"
       x1="734.375"
       y1="613.28198"
       x2="992.18701"
       y2="613.28198"
       gradientUnits="userSpaceOnUse" />
    <linearGradient
       inkscape:collect="always"
       xlink:href="#linearGradient3676"
       id="linearGradient3710"
       x1="375"
       y1="246.09399"
       x2="640.625"
       y2="246.09399"
       gradientUnits="userSpaceOnUse" />
    <linearGradient
       inkscape:collect="always"
       xlink:href="#linearGradient3684"
       id="linearGradient3712"
       x1="367.18799"
       y1="531.25"
       x2="632.81299"
       y2="531.25"
       gradientUnits="userSpaceOnUse" />
    <linearGradient
       inkscape:collect="always"
       xlink:href="#linearGradient3692"
       id="linearGradient3714"
       x1="7.8125"
       y1="457.03201"
       x2="273.43799"
       y2="457.03201"
       gradientUnits="userSpaceOnUse" />
    <linearGradient
       inkscape:collect="always"
       xlink:href="#linearGradient3700"
       id="linearGradient3716"
       x1="15.625"
       y1="761.71899"
       x2="281.25"
       y2="761.71899"
       gradientUnits="userSpaceOnUse" />
  </defs>
  <sodipodi:namedview
     pagecolor="#ffffff"
     bordercolor="#666666"
     borderopacity="1"
     objecttolerance="10"
     gridtolerance="10"
     guidetolerance="10"
     inkscape:pageopacity="0"
     inkscape:pageshadow="2"
     inkscape:window-width="1680"
     inkscape:window-height="994"
     id="namedview84"
     showgrid="false"
     inkscape:zoom="7.49"
     inkscape:cx="50"
     inkscape:cy="50"
     inkscape:window-x="-4"
     inkscape:window-y="-4"
     inkscape:window-maximized="1"
     inkscape:current-layer="svg2" />
  <polygon
     points="1007.81,0 1007.81,1007.81 1007.81,1007.81 0,1007.81 0,0 "
     style="fill:#ffffff;fill-opacity:0;stroke:none"
     id="polygon4"
     transform="scale(0.08445946,0.08445946)" />
  <polygon
     points="140.625,531.25 109.375,531.25 109.375,531.25 109.375,695.312 140.625,695.312 "
     style="fill:#000000;fill-opacity:1;stroke:none"
     id="polygon6"
     transform="scale(0.08445946,0.08445946)" />
  <polygon
     points="226.934,453.125 218.75,479.91 218.75,479.91 390.625,515.625 390.625,497.769 "
     style="fill:#000000;fill-opacity:1;stroke:none"
     id="polygon8"
     transform="scale(0.08445946,0.08445946)" />
  <polygon
     points="617.543,539.062 609.375,565.848 609.375,565.848 780.896,601.562 789.063,583.705 "
     style="fill:#000000;fill-opacity:1;stroke:none"
     id="polygon10"
     transform="scale(0.08445946,0.08445946)" />
  <polygon
     points="515.625,304.688 484.375,304.688 484.375,304.688 484.375,468.75 515.625,468.75 "
     style="fill:#000000;fill-opacity:1;stroke:none"
     id="polygon12"
     transform="scale(0.08445946,0.08445946)" />
  <polygon
     points="632.367,173.769 616.295,165.719 391.295,109.375 383.258,117.425 375.223,125.473 367.188,133.522 367.188,133.522 367.188,222.064 367.188,302.556 367.188,318.655 375.223,326.704 399.331,334.753 616.295,375 632.367,375 640.402,375 648.438,366.95 648.438,358.901 648.438,197.916 640.402,181.819 "
     style="fill:#465900;fill-opacity:1;stroke:none"
     id="polygon14"
     transform="scale(0.08445946,0.08445946)" />
  <polygon
     points="632.576,367.188 616.478,367.188 616.478,367.188 399.148,318.75 383.049,310.678 375,302.605 375,205.729 375,141.146 383.049,125 391.099,125 616.478,173.438 624.528,181.511 632.576,189.583 640.625,205.729 640.625,359.115 "
     style="fill:url(#linearGradient3710);fill-opacity:1;stroke:none"
     id="polygon16"
     transform="scale(0.08445946,0.08445946)" />
  <polygon
     points="272.991,689.157 256.92,681.108 31.9196,632.812 23.8839,632.812 15.8482,640.862 7.8125,656.96 7.8125,656.96 7.8125,737.452 7.8125,825.993 7.8125,834.043 15.8482,842.093 39.9554,850.142 256.92,898.437 272.991,898.437 281.027,890.387 289.063,882.339 289.063,874.29 289.063,721.354 281.027,705.256 "
     style="fill:#143a72;fill-opacity:1;stroke:none"
     id="polygon18"
     transform="scale(0.08445946,0.08445946)" />
  <polygon
     points="273.2,882.813 257.102,882.813 257.102,882.813 39.7727,842.449 23.6742,834.375 15.625,826.302 15.625,721.354 15.625,656.771 23.6742,640.625 31.7235,640.625 257.102,689.063 265.151,697.135 273.2,705.208 281.25,721.354 281.25,874.741 "
     style="fill:url(#linearGradient3716);fill-opacity:1;stroke:none"
     id="polygon20"
     transform="scale(0.08445946,0.08445946)" />
  <polygon
     points="249.107,376.657 32.1428,320.312 16.0714,328.362 8.0357,336.411 0,344.46 0,344.46 0,433.002 0,513.493 8.0357,529.593 16.0714,537.642 32.1428,545.69 257.142,585.937 265.178,585.937 281.25,585.937 281.25,569.839 281.25,408.854 281.25,392.756 265.178,384.706 "
     style="fill:#99460d;fill-opacity:1;stroke:none"
     id="polygon22"
     transform="scale(0.08445946,0.08445946)" />
  <polygon
     points="273.438,578.126 257.339,578.126 257.339,578.126 40.0095,529.689 15.8617,521.616 15.8617,513.542 7.8125,416.667 15.8617,352.083 23.911,335.938 31.9602,335.938 249.29,384.375 257.339,392.448 265.388,400.522 273.438,408.594 273.438,570.054 "
     style="fill:url(#linearGradient3714);fill-opacity:1;stroke:none"
     id="polygon24"
     transform="scale(0.08445946,0.08445946)" />
  <polygon
     points="975.873,540.574 983.914,548.639 1000,556.704 1000,572.832 1000,572.832 1000,726.059 1000,734.123 991.957,742.188 975.873,742.188 758.731,701.865 742.648,693.801 734.605,685.737 726.562,677.672 726.562,597.026 726.562,508.316 742.648,492.188 750.689,492.188 "
     style="fill:#ff7711;fill-opacity:1;stroke:none"
     id="polygon26"
     transform="scale(0.08445946,0.08445946)" />
  <polygon
     points="991.753,540.719 975.694,532.67 750.868,484.375 742.839,484.375 734.809,492.425 726.779,508.522 726.779,508.522 718.75,589.015 726.779,677.556 726.779,685.606 734.809,693.655 758.897,701.704 975.694,750 991.753,750 999.783,741.95 1007.81,733.901 1007.81,725.852 1007.81,572.916 999.783,556.819 "
     style="fill:#99460d;fill-opacity:1;stroke:none"
     id="polygon28"
     transform="scale(0.08445946,0.08445946)" />
  <polygon
     points="992.187,734.376 976.074,734.376 976.074,734.376 758.544,694.012 742.432,685.939 734.375,677.866 734.375,572.917 734.375,508.333 742.432,500.26 750.488,492.188 968.018,548.698 984.13,548.698 992.187,556.772 992.187,572.917 992.187,726.304 "
     style="fill:url(#linearGradient3708);fill-opacity:1;stroke:none"
     id="polygon30"
     transform="scale(0.08445946,0.08445946)" />
  <polygon
     points="632.813,462.832 632.813,664.063 632.813,664.063 367.188,607.718 367.188,398.438 "
     style="fill:#ff7711;fill-opacity:1;stroke:none"
     id="polygon32"
     transform="scale(0.08445946,0.08445946)" />
  <polygon
     points="624.555,454.782 608.482,446.733 383.482,398.438 375.446,406.487 367.411,406.487 359.375,422.585 359.375,422.585 359.375,503.078 359.375,591.62 359.375,599.669 367.411,607.718 391.518,615.767 608.482,664.063 624.555,664.063 632.59,656.014 640.625,647.964 640.625,639.915 640.625,486.979 632.59,470.881 "
     style="fill:#99460d;fill-opacity:1;stroke:none"
     id="polygon34"
     transform="scale(0.08445946,0.08445946)" />
  <polygon
     points="624.764,648.185 608.665,656.25 608.665,656.25 391.335,607.862 375.237,599.798 367.188,591.734 367.188,486.895 367.188,422.379 375.237,414.314 383.285,406.25 600.616,462.702 616.714,470.766 624.764,478.83 632.813,486.895 632.813,648.185 "
     style="fill:url(#linearGradient3712);fill-opacity:1;stroke:none"
     id="polygon36"
     transform="scale(0.08445946,0.08445946)" />
  <polygon
     points="1088,448 1088,1184 1088,1184 352,1184 352,448 "
     style="fill:#ffffff;fill-opacity:0;stroke:none"
     id="polygon38"
     transform="scale(0.08445946,0.08445946)" />
  <polygon
     points="1065.04,1015.69 1042.04,1003.93 1024.79,980.384 1007.54,939.206 921.283,933.316 829.283,927.435 720.023,921.554 524.511,921.554 461.257,927.435 438.256,933.316 426.755,939.206 415.254,950.969 409.503,962.74 398.003,986.274 386.502,1003.93 369.251,1015.69 352,1027.46 352,1062.77 352,1062.77 375.002,1068.65 444.006,1086.3 559.013,1103.94 645.269,1109.83 743.025,1109.83 840.783,1109.83 915.533,1103.94 973.041,1098.06 1019.04,1086.3 1070.79,1068.65 1082.3,1062.77 1082.3,1027.46 "
     style="fill:#000000;fill-opacity:1;stroke:none"
     id="polygon40"
     transform="scale(0.08445946,0.08445946)" />
  <polygon
     points="1013.83,932.405 1013.83,926.589 1013.83,909.134 1008.07,868.415 990.792,816.058 979.267,792.786 961.985,769.515 927.419,728.797 904.378,711.346 881.329,693.894 846.771,682.258 812.205,670.624 771.873,664.807 720.029,664.807 662.419,664.807 622.095,670.624 581.769,682.258 552.964,693.894 529.921,711.346 506.879,728.797 472.313,763.7 472.313,763.7 455.03,786.971 443.508,816.058 426.226,868.415 420.465,909.134 420.465,926.589 420.465,932.405 426.226,932.405 518.398,944.036 610.573,955.676 720.029,961.491 829.488,955.676 921.661,944.036 "
     style="fill:#000000;fill-opacity:1;stroke:none"
     id="polygon42"
     transform="scale(0.08445946,0.08445946)" />
  <polygon
     points="921.694,734.58 956.268,775.347 973.55,792.819 985.075,816.123 1002.37,862.715 1008.12,903.482 1008.12,926.778 910.169,938.426 817.98,950.082 720.03,950.082 616.314,950.082 529.885,938.426 426.17,926.778 426.17,903.482 437.696,862.715 449.218,810.299 460.742,786.995 478.028,769.524 478.028,769.524 512.599,734.58 535.648,717.107 558.695,699.634 587.504,687.985 622.077,676.337 668.172,670.513 720.03,670.513 771.89,670.513 812.222,676.337 846.787,687.985 875.603,699.634 898.652,717.107 "
     style="fill:#aaaaaa;fill-opacity:1;stroke:none"
     id="polygon44"
     transform="scale(0.08445946,0.08445946)" />
  <polygon
     points="599.579,881.024 616.976,886.922 640.172,898.726 663.367,898.726 738.753,898.726 779.348,892.828 796.746,892.828 808.345,881.024 814.144,869.22 814.144,857.416 808.345,839.706 796.746,822.005 761.95,786.593 732.954,768.883 709.76,768.883 686.564,780.687 680.764,780.687 669.167,780.687 651.77,768.883 628.573,757.079 616.976,739.369 605.378,733.471 593.78,727.565 582.182,727.565 582.182,727.565 553.187,733.471 524.192,745.275 506.796,762.977 489.398,780.687 472.001,810.201 466.202,839.706 460.404,863.314 460.404,875.118 466.202,881.024 477.8,881.024 529.991,886.922 582.182,881.024 "
     style="fill:#666666;fill-opacity:1;stroke:none"
     id="polygon46"
     transform="scale(0.08445946,0.08445946)" />
  <polygon
     points="628.838,822.415 652.651,798.167 682.419,779.989 694.326,773.926 694.326,767.864 676.466,761.802 628.838,761.802 628.838,761.802 616.931,767.864 593.117,773.926 575.257,779.989 563.349,792.113 557.396,804.237 557.396,822.415 557.396,840.602 563.349,852.726 575.257,858.788 587.163,858.788 605.024,852.726 616.931,852.726 "
     style="fill:#e5f2ff;fill-opacity:1;stroke:none"
     id="polygon48"
     transform="scale(0.08445946,0.08445946)" />
  <polygon
     points="688.621,550.698 688.621,619.164 734.268,619.164 734.268,550.698 727.746,550.698 727.746,550.698 "
     style="fill:#000000;fill-opacity:1;stroke:none"
     id="polygon50"
     transform="scale(0.08445946,0.08445946)" />
  <polygon
     points="694.326,556.404 728.559,556.404 728.559,556.404 728.559,613.458 694.326,613.458 "
     style="fill:#8c8c8c;fill-opacity:1;stroke:none"
     id="polygon52"
     transform="scale(0.08445946,0.08445946)" />
  <polygon
     points="682.916,692.456 689.256,692.456 695.595,698.601 714.612,704.745 727.294,704.745 739.969,698.601 739.969,692.456 739.969,624.869 733.627,624.869 733.627,624.869 682.916,624.869 "
     style="fill:#000000;fill-opacity:1;stroke:none"
     id="polygon54"
     transform="scale(0.08445946,0.08445946)" />
  <polygon
     points="694.326,692.815 694.326,630.574 734.268,630.574 734.268,630.574 734.268,692.815 727.606,692.815 714.296,699.039 700.982,692.815 "
     style="fill:#8c8c8c;fill-opacity:1;stroke:none"
     id="polygon56"
     transform="scale(0.08445946,0.08445946)" />
  <polygon
     points="734.268,687.629 739.969,693.334 739.969,693.334 "
     style="fill:#000000;fill-opacity:1;stroke:none"
     id="polygon58"
     transform="scale(0.08445946,0.08445946)" />
  <polygon
     points="683.793,602.047 671.505,608.322 671.505,608.322 671.505,614.599 671.505,652.256 677.649,658.531 689.938,664.807 714.515,664.807 732.946,664.807 745.234,658.531 751.379,652.256 751.379,614.599 745.234,608.322 714.515,602.047 696.082,602.047 "
     style="fill:#000000;fill-opacity:1;stroke:none"
     id="polygon60"
     transform="scale(0.08445946,0.08445946)" />
  <polygon
     points="745.678,614.171 745.678,652.683 739.451,652.683 714.555,659.101 689.658,659.101 677.21,652.683 677.21,614.171 689.658,607.752 714.555,607.752 714.555,607.752 733.225,607.752 "
     style="fill:#aaaaaa;fill-opacity:1;stroke:none"
     id="polygon62"
     transform="scale(0.08445946,0.08445946)" />
  <polygon
     points="751.379,571.236 739.156,578.084 708.59,584.93 678.025,578.084 671.912,571.236 665.8,564.391 671.912,564.391 678.025,557.544 708.59,550.698 739.156,557.544 751.379,564.391 751.379,564.391 "
     style="fill:#555555;fill-opacity:1;stroke:none"
     id="polygon64"
     transform="scale(0.08445946,0.08445946)" />
  <polygon
     points="665.8,559.256 671.912,566.388 690.252,573.52 708.59,573.52 733.044,573.52 745.267,566.388 751.379,559.256 745.267,552.124 733.044,544.992 708.59,544.992 690.252,544.992 671.912,552.124 665.8,559.256 "
     style="fill:#000000;fill-opacity:1;stroke:none"
     id="polygon66"
     transform="scale(0.08445946,0.08445946)" />
  <polygon
     points="708.331,567.814 689.658,567.814 677.21,559.256 689.658,550.698 708.331,550.698 708.331,550.698 733.225,550.698 745.678,559.256 733.225,567.814 "
     style="fill:#aaaaaa;fill-opacity:1;stroke:none"
     id="polygon68"
     transform="scale(0.08445946,0.08445946)" />
  <polygon
     points="833.061,699.558 821.044,699.558 821.044,699.558 809.035,693.334 803.03,699.558 797.025,705.782 797.025,712.006 803.03,718.234 839.066,730.678 875.102,743.131 905.125,755.576 911.13,761.802 905.125,755.576 887.111,730.678 851.075,705.782 "
     style="fill:#e5f2ff;fill-opacity:1;stroke:none"
     id="polygon70"
     transform="scale(0.08445946,0.08445946)" />
  <polygon
     points="391.938,911.565 391.938,923.689 397.694,935.814 397.694,941.876 426.473,947.938 495.544,966.124 599.152,978.249 656.711,984.311 720.026,984.311 846.656,978.249 944.505,960.062 1007.82,947.938 1036.6,941.876 1036.6,935.814 1042.36,923.689 1042.36,911.565 1036.6,905.503 1025.09,893.379 1019.34,887.316 1019.34,887.316 996.312,899.441 927.238,917.627 835.148,935.814 777.582,941.876 720.026,941.876 662.466,941.876 604.907,935.814 507.057,917.627 437.986,899.441 414.962,887.316 409.206,893.379 397.694,905.503 "
     style="fill:#333333;fill-opacity:1;stroke:none"
     id="polygon72"
     transform="scale(0.08445946,0.08445946)" />
  <polygon
     points="604.855,972.466 506.981,960.169 437.893,941.744 403.349,935.592 403.349,917.159 403.349,904.87 414.864,898.726 443.65,904.87 512.737,923.311 610.612,941.744 662.428,947.889 720.001,947.889 720.001,947.889 777.574,947.889 829.39,941.744 927.263,923.311 990.595,904.87 1019.38,898.726 1030.89,904.87 1036.65,923.311 1030.89,935.592 1002.11,941.744 933.021,954.033 840.906,972.466 720.001,978.61 "
     style="fill:#cccccc;fill-opacity:1;stroke:none"
     id="polygon74"
     transform="scale(0.08445946,0.08445946)" />
  <polygon
     points="532.057,937.037 596.663,943.56 620.156,950.082 520.31,943.56 455.705,923.993 420.465,917.479 426.338,904.435 426.338,904.435 461.579,917.479 496.817,930.515 "
     style="fill:#e5f2ff;fill-opacity:1;stroke:none"
     id="polygon76"
     transform="scale(0.08445946,0.08445946)" />
  <polygon
     points="886.175,947.486 816.633,959.931 654.388,978.602 718.129,972.384 839.814,966.157 903.556,953.712 961.5,941.26 1025.24,922.589 1013.65,910.144 1013.65,910.144 949.91,928.815 "
     style="fill:#999999;fill-opacity:1;stroke:none"
     id="polygon78"
     transform="scale(0.08445946,0.08445946)" />
  <polygon
     points="514.941,1039.73 579.546,1046.25 603.039,1052.78 503.194,1046.25 438.589,1033.22 403.349,1020.17 409.222,1007.13 409.222,1007.13 444.462,1020.17 479.701,1033.22 "
     style="fill:#bbbbbb;fill-opacity:1;stroke:none"
     id="polygon80"
     transform="scale(0.08445946,0.08445946)" />
  <polygon
     points="565.668,917.75 523.734,910.144 511.752,910.144 571.659,925.357 613.594,932.963 631.566,932.963 631.566,917.75 631.566,917.75 607.604,925.357 589.631,925.357 "
     style="fill:#e5f2ff;fill-opacity:1;stroke:none"
     id="polygon82"
     transform="scale(0.08445946,0.08445946)" />
</svg>
