<?xml version="1.0" encoding="UTF-8" standalone="no"?>
<svg id="svg2" xmlns:rdf="http://www.w3.org/1999/02/22-rdf-syntax-ns#" xmlns="http://www.w3.org/2000/svg" enable-background="new -0.184 -0.384 239 162" xml:space="preserve" height="219" width="219" version="1.1" y="0px" x="0px" xmlns:cc="http://creativecommons.org/ns#" xmlns:xlink="http://www.w3.org/1999/xlink" viewBox="-0.184 -0.384 219 219" xmlns:dc="http://purl.org/dc/elements/1.1/"><metadata id="metadata312"><rdf:RDF><cc:Work rdf:about=""><dc:format>image/svg+xml</dc:format><dc:type rdf:resource="http://purl.org/dc/dcmitype/StillImage"/><dc:title/></cc:Work></rdf:RDF></metadata><defs id="defs4"><filter id="filter4474" color-interpolation-filters="sRGB"><feGaussianBlur id="feGaussianBlur4476" stdDeviation="2.0407868"/></filter><linearGradient id="linearGradient4038" y2="76.072" gradientUnits="userSpaceOnUse" x2="82.281" gradientTransform="matrix(0.94706804,0,0,0.95698744,3.9667663,-0.18339691)" y1="103.65" x1="112.95"><stop id="stop4034" stop-color="#969696" offset="0"/><stop id="stop4036" stop-color="#bfbfbf" offset="1"/></linearGradient><linearGradient id="linearGradient3037" y2="193.09" gradientUnits="userSpaceOnUse" y1="77.195" gradientTransform="matrix(1.0338268,0,0,1.0338268,-11.800854,-10.005371)" x2="109.03" x1="38.674"><stop id="stop4331" stop-color="#FFF" offset="0"/><stop id="stop4333" stop-color="#afafaf" offset="1"/></linearGradient><filter id="filter4359-6" color-interpolation-filters="sRGB"><feGaussianBlur id="feGaussianBlur4361-6" stdDeviation="1.7761565"/></filter></defs><g id="g3554" transform="matrix(1.1596837,0,0,1,-4.1064047,4)"><g id="g4497" transform="matrix(0.38875598,0,0,0.38875598,53.329593,1.5320342)"><path id="path4472" opacity="0.5" d="m121.57,219.42c-0.75119-0.18718-2.2877-0.67868-3.4145-1.0922-3.7816-1.3879-75.095-42.378-77.158-44.349l-2.0378-1.9477-0.44772-12.461c-0.24625-6.8534-0.55846-29.568-0.69381-50.477-0.24346-37.611-0.23095-38.037,1.173-39.95,0.96246-1.3115,13.159-8.4585,37.901-22.21,42.302-23.511,41.203-22.935,45.102-23.629,7.0544-1.2564,7.3627-1.1168,47.378,21.456,20.556,11.596,38.378,22.006,39.604,23.134l2.229,2.0507,0.48931,29.704c0.26912,16.337,0.37921,38.77,0.24464,49.85-0.26316,21.669-0.39488,22.508-3.9457,25.133-2.0072,1.484-69.772,40.76-74.391,43.116-2.7652,1.4107-9.3878,2.3306-12.033,1.6715z" fill-rule="evenodd" transform="matrix(1.0338268,0,0,1.0338268,-11.800854,-10.005371)" filter="url(#filter4474)" stroke-miterlimit="4" stroke-width="0" fill="#000"/><path id="path239" fill="url(#linearGradient4038)" d="m108.7,1.173c-3.368,0-6.7131,0.75539-9.3425,2.2863l-77.166,42.767c-2.461,1.5027-5.217,4.487-4.7046,10.459v0.16316s0.24313,63.759,1.2481,95.389c0.0044,0.13992,0.02977,0.26032,0.02692,0.34546-0.09485,2.8266,1.5644,5.5095,4.6329,7.3988,0.3096,0.19062,0.62489,0.39723,0.97781,0.59929l74.09,42.42c6.093,3.1563,13.759,3.5165,19.436,0.3102l75.868-42.134c5.0238-3.8845,4.2644-5.9615,4.7007-10.566,0,0-0.16626-128.19-0.16626-96.653,0,3.3666-0.0269-0.32029-0.0269-0.32029,0.0135-2.8423-1.5596-5.5368-4.6219-7.431-0.3246-0.20078-0.86684-0.53345-1.0436-0.63352l-73.81-41.796c-2.82-1.7374-6.47-2.6126-10.1-2.6126z"/><path id="rect4068-5-5-4-7" d="M98.866,91.274,35.901,56.901c-5.0728-2.7692-5.041-7.4938-0.15817-10.156l64.782-35.321c4.8828-2.6622,12.713-2.2241,17.786,0.54512l62.965,34.372c5.0727,2.7692,5.041,7.4938,0.15819,10.156l-64.782,35.321c-4.8828,2.6622-12.713,2.224-17.786-0.54514z" fill-rule="evenodd" stroke-miterlimit="4" stroke-width="0" fill="#FFF"/><path id="rect4068-5-5-4-7-8" d="m182.89,157.59-60.027,32.741c-4.9062,2.676-8.9953,0.12296-8.9761-5.4369l0.25459-73.765c0.0192-5.5599,4.1392-11.959,9.0454-14.635l60.04-32.729c4.9062-2.676,8.9953-0.12294,8.9761,5.4369l-0.25458,73.766c-0.0192,5.5598-4.1392,11.959-9.0454,14.635z" fill-rule="evenodd" stroke-miterlimit="4" stroke-width="0" fill="#666"/><path id="rect4068-5-5-4-7-8-4" d="m34.487,156.62,60.453,34.019c4.8704,2.7408,8.9953,0.12297,8.9761-5.4369l-0.26-73.76c-0.02-5.56-4.123-11.988-9.044-14.637l-59.851-32.211c-4.9211-2.6485-8.9493-0.12291-8.9761,5.4369l-0.3479,71.958c-0.02688,5.5598,4.1751,11.894,9.0454,14.635z" fill-rule="evenodd" stroke-miterlimit="4" stroke-width="0" fill="url(#linearGradient3037)"/></g><g id="g3453" transform="matrix(0.80223524,0,0,0.80223524,-20.926854,18.777871)"><g id="g3560" transform="translate(57.030289,46.248737)"><path id="path270-7-1" opacity="0.5" d="m-185.47,122.56c0.78079,5.58,5.3438,7.0938,5.3438,7.0938l38.812-0.0312-6.1875,0.0625s-3.1128,3.04-1.8438,4.375c0,0,0.7965,2.48,2.1875,3.875l18.125,14.875s10.085,8.8395,11.531,24.062l7.2812-2.0312,2.0938,4.2188-8.4062,3.2812,0.125,0.21875-0.125,0.0625,6.5938,12.125c-0.11942,0.27016-0.46792,1.135-0.5625,2.125-0.0152,0.15911-0.0345,0.3115-0.0312,0.46875-0.003,0.0529,0.001,0.10354,0,0.15625,0.007,0.10375,0.0136,0.21252,0.0312,0.3125,0.0209,0.31048,0.0573,0.61347,0.1875,0.875,0.694,1.393,22.911,50.928,46.813,50.75,0,0,18.556,1.6878,26.688-36.406,0,0,3.7149-11.531,6.625-20.469,1.4287,4.456,5.6208,16.901,10.562,24.312l1.5,48.827,14.563-2.4688,0.21875-120.45v-23.25l-19.188,4.9062s-22.224,2.462-28.938,12.75c-1.074,1.641-2.2098,4.1745-3.3438,7.3125-5.7839,16.038-11.744,47.307-11.938,50.5-0.006,0.10327-0.0374,0.26961-0.0312,0.3125l-1.4375,6.5-1.2812-1.5312-1.3438,0.125-9.1875-15.781-3.25-1.4688-2.8125-12.938-6.6875,2.9688-0.9375-1.9062,3.8125-1.2188s-5.128-24.305,12-34.75c0,0,3.7022-7.5958-8.8438-4.3438,0,0-14.313,15.243-17.375,12.156l-16.438-10.75s1.0475-1.1675-0.8125-2.5625c0,0-0.39398-0.10036-0.96875-0.21875l66.5-0.0625c4.3716,0.5509,6.0206-4.8722,6.5-6.9688h7.3125c0.4-1.088,0.75-1.5592,0.75-2.1562,0-0.596-0.351-1.0938-0.75-1.0938-32.761-2.0142-146.45,1.3225-143.44,3.25zm56.844,7.0312,1.4688,0c-0.20524,0.11403-0.36033,0.25142-0.46875,0.4375zm-10.562,0.0312,4.3125,0c-0.41652,0.26465-0.73772,0.61759-0.90625,1.125z" transform="matrix(1.0981716,0,0,1.0981716,217.41347,-88.104535)" filter="url(#filter4359-6)" stroke-miterlimit="4" stroke-width="0" fill="#000"/><path id="path270-7" fill="#757575" d="m14.732,48.685,0,0s-5.5282-1.8153-5.9664-8.7294h149.81s-1.4112,9.3268-7.3369,8.58l-136.51,0.149z"/><path id="path272-2" fill="#444445" d="m166.69,40.037c0,0.65561-0.35471,1.1838-0.79398,2.3786h-163.99c-0.43927-1.1948-0.79507-1.723-0.79507-2.3786,0-0.65451,0.35471-1.1838,0.79507-1.1838h163.99c0.43817,0,0.79398,0.52932,0.79398,1.1838z"/><path id="path278-3" fill="#c6b298" d="M41.065,39.544,5.5154,40.137s-5.2899,0.23281-2.7246-0.53152c0-0.0011,14.064-0.1197,38.275-0.0615z"/><path id="path296" d="m137.65,127.93-1.4144-1.6945-1.4902,0.15044-10.069-17.328-3.568-1.611-3.1001-14.224-7.5631,3.378-0.81264-2.2172,4.1972-1.3123s-5.627-26.713,13.182-38.183c0,0,4.0468-8.323-9.7309-4.7518,0,0-15.724,16.724-19.086,13.334l-18.032-11.803s1.1443-1.2772-0.8983-2.8091c0,0-5.8313-1.5517-6.8844,0.25587l-1.7856-0.76542s-6.1267-1.532-7.1436,1.5298l-3.8238-1.2728-9.0445,0.11311s-3.4329,3.333-2.0393,4.799c0,0,0.88073,2.7377,2.4083,4.2697l19.893,16.324s11.065,9.7133,12.653,26.431l7.9969-2.2315,2.3106,4.6233-9.2224,3.6031,7.3028,13.444s-1.2541,2.6488-0.48978,4.1807c0.76213,1.5298,25.16,55.94,51.409,55.745,0,0,20.382,1.8493,29.31-39.987,0,0,10.089-31.455,10.911-33.454,0.81813-1.9987,5.4107-19.856,5.4107-22.919,0,0,5.3118-10.659-0.61718-40.594,0,0-24.427,2.6949-31.799,13.993-1.1794,1.8021-2.4105,4.6035-3.6558,8.0496-6.5572,18.182-13.374,54.289-13.159,55.793l-1.5649,7.1403z" stroke="#727272" stroke-width="1.09817159" fill="#EEE"/><path id="path298" d="m178.67,115.5s5.7215,19.034,12.35,28.975l1.6297,53.614,15.997-2.7092,0.24489-132.27v-25.523l-21.065,5.3723" stroke="#727272" stroke-width="1.09817159" fill="#757575"/><polygon id="polygon300" transform="matrix(1.0981716,0,0,1.0981716,-33.82876,-82.990281)" stroke="#727272" points="117.03,170.71,114.13,165.1,130.64,161.52,131.98,164.29" fill="#e2bd98"/><path id="path302" d="m110.45,96.931,7.5631-3.3791,3.1001,14.229,3.568,1.6066,10.069,17.33,1.4902-0.14826,1.4144,1.6901,1.5638-7.1381c-0.21305-1.5012,6.6033-37.611,13.159-55.793,1.2453-3.4472,2.4764-6.2475,3.6558-8.0518,7.372-11.297,31.799-13.991,31.799-13.991,5.9279,29.934,0.61717,40.593,0.61717,40.593,0,3.0628-4.5926,20.92-5.4107,22.917-0.82253,1.9965-10.911,33.458-10.911,33.458-8.9292,41.834-29.31,39.984-29.31,39.984-26.248,0.19547-50.647-54.213-51.409-55.743-0.76323-1.533,0.48979-4.1851,0.48979-4.1851l-7.3028-13.442,9.2224-3.6042,16.632-6.3332z" stroke="#727272" stroke-width="1.09817159" fill="#9b9b9b"/><path id="path304" d="m137.65,127.93s10.534,15.435,9.8748,25.773" stroke="#757575" stroke-width="1.09817159" fill="none"/><circle id="circle306" d="m 136.779,168.146 c 0,1.30615 -1.05885,2.365 -2.365,2.365 -1.30615,0 -2.365,-1.05885 -2.365,-2.365 0,-1.30616 1.05885,-2.365 2.365,-2.365 1.30615,0 2.365,1.05884 2.365,2.365 z" transform="matrix(1.0981716,0,0,1.0981716,-33.82876,-82.990281)" cy="168.15" cx="134.41" r="2.365" fill="#d8bc32"/><path id="path308" d="m99.493,86.267s-2.338-16.12-17.967-16.244" stroke="#818182" stroke-width="1.09817159" fill="none"/></g></g></g></svg>