<?xml version="1.0"?>
<?metis version="3.1"?>
<?metisxml version="1.0"?>
<!DOCTYPE svg  PUBLIC "-//W3C//DTD SVG August 1999//EN"
 "http://www.w3.org/Graphics/SVG/svg-19990812.dtd">

<svg width="200" height="200">
 <title>Symbol library: service.svg</title>
 <defs>
  <symbol id="oid1" xml:space="preserve" class="METIS_SYMBOL">
   <title>Service</title>
    <g>
      <polygon points="0 0 0 304 16.2963 320 
       880 320 880 16 863.704 0 0 0 
       0 0 0 0 0 0 0 0 
       0 0 0 0 "
       style=" stroke:#000000; stroke-width:1; fill:#9b9b9b; fill-opacity:100%"       class="TAG:shadow"></polygon>
      <rect x="0" y="0" width="240" height="304"
       style=" stroke:#000000; stroke-width:1; fill:#ffffff; fill-opacity:100%"       class="TAG:PictureBackground"></rect>
      <rect x="240" y="0" width="624" height="304"
       style=" stroke:#000000; stroke-width:1; fill:#ffcf9f; fill-opacity:100%"       class="TAG:canvas"></rect>
      <rect x="245.357" y="25.7143" width="569.522" height="231.429"
       style="stroke:none; fill:#878787; fill-opacity:0%"       class="TAG:grid"></rect>
      <g>
	<desc>METIS_TEXT_GROUP</desc>
	<text  x="256" y="15.8"
	 style=" stroke:#000000; stroke-width:1; font-family:sans-serif; font-size:16;"
	 class="TAG:text">text</text>
	<rect x="256" y="0" width="608" height="304"
	 style=" stroke:#000000; stroke-width:1; fill:#ffffff; fill-opacity:0%"></rect>
      </g>
      <polyline points="864 304 880 320"
       style=" stroke:#000000; stroke-width:1;"></polyline>
      <g>
	<polygon points="58.206 115.942 54.2192 115.319 54.6622 117.19 
	 57.32 118.437 58.206 115.942 58.206 115.942 58.206 115.942 58.206 115.942 "
	 style=" stroke:#000000; stroke-width:1; fill:#ffffff; fill-opacity:100%"></polygon>
	<polygon points="54.902 128.313 49.2509 127.262 39.5632 120.433 
	 39.1595 120.433 38.7556 119.907 37.9486 119.907 37.5449 119.382 
	 36.7376 118.856 36.334 118.331 35.5264 117.806 35.123 117.806 
	 34.7193 117.28 33.9118 117.28 33.5084 116.755 33.1047 116.23 
	 33.1047 116.23 32.7011 115.704 32.2972 115.704 31.8938 115.704 
	 31.8938 115.179 31.8938 114.653 32.7011 113.603 33.9118 112.027 
	 35.5264 109.925 37.141 106.773 39.1595 104.146 41.5814 100.468 
	 43.5997 97.3162 45.618 94.164 48.0397 91.0117 50.0582 87.8594 
	 51.6728 85.2327 53.2874 83.1313 54.4983 81.0298 55.3057 79.979 
	 55.7093 79.979 64.186 79.4536 64.186 81.0298 64.186 82.6059 
	 64.186 84.182 64.186 86.2834 64.186 86.8088 64.186 86.8088 
	 64.186 87.3343 64.186 87.3343 64.186 87.8594 64.186 87.8594 
	 64.186 88.3849 64.186 88.3849 64.186 88.9103 64.186 88.9103 
	 64.186 89.4358 64.186 89.4358 64.186 89.4358 64.186 89.9609 
	 64.186 89.9609 64.186 90.4864 63.7826 90.4864 63.7826 91.0117 
	 63.7826 91.0117 63.7826 91.5374 63.7826 92.0624 63.7826 92.0624 
	 63.7826 92.588 63.7826 92.588 63.7826 93.1133 63.7826 93.1133 
	 63.7826 93.6386 63.7826 93.6386 63.7826 94.164 63.7826 94.6893 
	 63.7826 94.6893 63.7826 95.2149 63.7826 95.2149 63.7826 95.7402 
	 63.7826 95.7402 63.7826 96.2655 63.3787 96.2655 63.3787 96.7909 
	 63.3787 96.7909 63.3787 97.3162 62.9751 97.3162 62.9751 97.3162 
	 62.9751 97.8418 62.5714 97.8418 62.5714 97.8418 62.168 97.8418 
	 62.168 98.3668 62.168 98.3668 62.168 98.8924 62.168 98.8924 
	 61.7641 99.4178 61.7641 99.4178 61.7641 99.9434 61.7641 99.9434 
	 61.7641 100.468 61.7641 100.468 61.7641 100.468 61.7641 102.045 
	 62.168 105.197 62.9751 109.4 62.9751 109.925 62.5714 109.925 
	 61.7641 110.976 59.3422 110.976 58.9388 112.027 59.3422 113.603 
	 59.3422 114.653 59.3422 115.179 59.3422 115.704 56.5166 115.179 
	 55.3057 115.704 55.7093 116.755 56.9203 119.382 57.7276 120.433 
	 57.3242 120.958 56.5166 120.958 56.113 121.483 56.113 122.009 
	 55.7093 123.059 55.7093 123.059 55.7093 123.585 55.7093 124.11 
	 56.113 124.11 56.113 124.11 56.113 124.636 56.113 124.636 
	 56.113 125.161 55.7093 125.686 55.7093 125.686 55.7093 125.686 
	 55.7093 126.212 55.7093 126.737 55.7093 126.737 55.7093 127.262 
	 55.7093 127.262 55.3057 127.788 55.3057 127.788 55.3057 127.788 
	 54.902 128.313 54.902 128.313 54.902 128.313 54.902 128.313 54.902 128.313 "
	 style=" stroke:#c29561; stroke-width:1; fill:#ffc283; fill-opacity:100%"></polygon>
	<polygon points="54.8934 128.302 54.4897 128.302 53.6827 128.828 
	 52.8754 128.828 51.6647 128.302 50.4539 128.302 49.2432 127.777 
	 47.6289 126.727 47.2252 126.727 47.2252 126.727 46.8216 126.727 
	 46.8216 126.727 46.4179 126.727 46.4179 126.201 46.0145 126.201 
	 46.0145 126.201 45.6108 126.201 45.6108 126.201 45.6108 126.201 
	 45.2072 125.676 45.2072 125.676 44.8035 125.676 44.8035 125.676 
	 44.8035 125.676 44.4001 125.676 44.4001 125.15 43.9965 125.15 
	 43.9965 125.15 43.5928 125.15 43.5928 125.15 43.5928 125.15 
	 43.1892 125.15 43.1892 125.676 42.7858 125.676 42.7858 125.676 
	 42.3821 125.676 42.3821 126.201 41.9785 126.201 41.9785 126.201 
	 41.9785 126.201 41.5751 126.727 40.7677 127.252 39.9607 128.302 
	 39.1534 129.353 32.2923 120.948 46.0145 79.9734 60.9472 79.9734 
	 64.9832 80.4987 64.5796 84.7013 64.1759 84.1759 63.7725 83.6506 
	 62.9652 83.6506 62.1582 83.1253 61.3509 83.1253 60.1401 83.6506 
	 58.5258 84.1759 58.1221 85.2266 59.3328 87.3279 58.5258 88.9038 
	 58.1221 89.4292 57.7185 89.4292 56.9114 89.4292 56.5078 89.4292 
	 56.1041 88.9038 55.297 88.3784 54.4897 89.4292 52.8754 92.5809 
	 51.261 94.6822 50.0503 96.2582 48.8396 97.3088 48.0323 97.8341 
	 47.6289 98.3594 47.2252 98.8847 46.8216 106.764 47.2252 107.815 
	 47.6289 108.34 46.8216 109.391 46.0145 109.916 45.6108 110.967 
	 44.8035 112.018 44.8035 112.543 44.4001 113.594 44.8035 114.644 
	 44.8035 116.22 45.2072 117.271 45.6108 118.846 46.0145 120.423 
	 46.8216 121.473 47.6289 122.524 48.0323 123.575 48.4359 124.625 
	 49.2432 125.15 50.0503 125.676 50.4539 126.201 51.261 126.727 
	 52.0683 127.252 52.8754 127.777 53.279 127.777 53.6827 127.777 
	 54.4897 128.302 54.8934 128.302 54.8934 128.302 54.8934 128.302 54.8934 128.302 "
	 style="stroke:none; fill:#c29561; fill-opacity:100%"></polygon>
	<polygon points="55.4951 116.878 57.4085 120.92 56.9301 120.92 
	 56.4517 120.92 55.9732 121.498 55.9732 122.076 55.4951 121.498 
	 55.0166 120.343 55.0166 119.188 55.0166 118.033 55.0166 116.878 
	 55.4951 116.878 55.4951 116.878 55.4951 116.878 55.4951 116.878 "
	 style="stroke:none; fill:#c29561; fill-opacity:100%"></polygon>
	<polygon points="58.4148 107.002 58.4148 107.547 58.4148 108.635 
	 58.8328 109.18 58.8328 109.725 59.2502 109.725 60.0855 110.269 
	 60.5032 110.269 62.1739 110.269 62.5913 109.725 62.1739 110.269 
	 61.7562 110.814 61.3386 110.814 60.5032 111.358 59.6679 111.358 
	 59.2502 111.903 59.2502 112.992 59.2502 114.081 58.8328 113.537 
	 58.4148 112.992 58.4148 111.903 57.9972 110.814 57.9972 109.725 
	 58.4148 108.635 57.9972 109.18 57.1621 110.269 56.7441 110.814 
	 56.3265 111.903 55.4914 114.081 54.6558 116.259 54.2381 117.348 
	 53.8207 118.437 53.8207 118.437 53.8207 117.348 54.2381 116.259 
	 55.0737 114.081 55.4914 112.992 55.9088 111.358 56.3265 110.814 
	 57.1621 109.725 57.9972 108.635 57.9972 108.091 58.4148 107.002 
	 58.4148 107.002 58.4148 107.002 58.4148 107.002 "
	 style="stroke:none; fill:#c29561; fill-opacity:100%"></polygon>
	<polygon points="59.402 114.972 59.402 114.972 59.402 115.665 
	 58.9636 116.358 58.0865 116.358 57.2095 116.358 56.771 116.358 
	 55.4552 116.358 55.0166 115.665 55.4552 115.665 55.4552 114.972 
	 56.771 114.972 57.2095 114.279 58.0865 114.279 58.9636 114.279 
	 59.402 114.972 59.402 114.972 59.402 114.972 59.402 114.972 "
	 style=" stroke:#000000; stroke-width:1; fill:#ff0000; fill-opacity:100%"></polygon>
	<polygon points="56.6113 95.0943 57.0349 94.5273 60.4238 94.5273 
	 62.965 96.7953 63.3888 97.3627 62.965 97.3627 62.965 97.9297 
	 62.1181 98.4964 61.6945 99.0637 61.6945 99.6307 61.2707 100.765 
	 60.8471 100.198 60.4238 99.6307 59.5764 98.4964 58.7292 97.9297 
	 57.8821 97.9297 57.0349 97.9297 56.6113 96.7953 56.6113 95.6616 
	 56.6113 95.0943 56.6113 95.0943 56.6113 95.0943 56.6113 95.0943 "
	 style="stroke:none; fill:#c29561; fill-opacity:100%"></polygon>
	<polygon points="165.836 181.851 159.399 181.851 158.997 183.955 
	 158.997 186.586 158.594 189.217 158.594 191.321 158.192 193.952 
	 158.192 196.056 157.789 200.791 156.583 200.265 155.375 198.687 
	 153.766 197.108 152.559 195.004 152.157 193.426 151.754 191.847 
	 150.548 190.269 148.134 189.743 144.915 190.269 142.903 189.217 
	 141.294 188.69 139.282 188.164 137.271 188.69 136.064 189.217 
	 134.857 189.743 133.248 190.795 132.041 191.321 131.638 189.217 
	 131.236 188.164 130.029 187.638 129.224 188.164 128.822 189.743 
	 128.822 191.847 128.42 190.269 127.615 190.269 126.408 190.795 
	 126.006 191.847 126.006 193.426 125.201 192.899 124.397 193.426 
	 123.592 193.952 123.189 194.478 123.189 196.056 123.592 197.635 
	 126.408 198.161 126.408 200.791 126.81 201.844 126.81 202.895 
	 129.224 203.422 129.627 204.474 130.029 205.526 132.845 206.053 
	 134.052 207.104 136.868 206.053 140.087 207.104 142.903 203.948 
	 150.548 200.265 151.754 212.366 160.606 224.993 167.043 219.731 
	 165.836 181.851 165.836 181.851 165.836 181.851 165.836 181.851 "
	 style=" stroke:#000000; stroke-width:1; fill:#ffc283; fill-opacity:100%"></polygon>
	<polygon points="126.777 199.004 126.329 197.133 125.881 197.133 
	 124.983 197.133 124.086 197.133 123.638 196.509 123.189 195.885 
	 123.638 197.756 124.086 198.38 124.983 198.38 125.432 199.004 
	 126.777 199.004 126.777 199.004 126.777 199.004 126.777 199.004 "
	 style="stroke:none; fill:#c29561; fill-opacity:100%"></polygon>
	<polygon points="129.568 202.252 128.638 202.252 127.708 202.902 
	 127.243 202.252 126.777 201.603 126.777 202.902 127.708 203.552 
	 128.173 204.202 129.103 203.552 129.568 203.552 129.568 202.252 
	 129.568 202.252 129.568 202.252 129.568 202.252 "
	 style="stroke:none; fill:#c29561; fill-opacity:100%"></polygon>
	<polygon points="129.568 204.973 129.971 205.498 130.777 206.024 
	 131.583 206.549 132.792 206.024 133.195 207.075 134.403 207.6 
	 135.612 207.075 136.821 206.549 137.627 207.075 138.03 207.6 
	 139.642 207.6 140.448 207.075 141.254 206.549 142.06 205.498 
	 142.866 204.447 144.478 204.447 145.686 203.922 146.895 207.6 
	 148.104 210.228 149.716 213.906 151.328 217.059 152.94 220.212 
	 154.551 222.84 156.566 225.467 158.581 228.62 159.79 229.671 
	 160.596 229.671 161.805 229.671 163.013 228.62 164.222 227.569 
	 165.431 225.467 166.237 222.314 167.043 219.687 165.834 181.851 
	 159.387 181.851 159.387 183.953 159.79 184.478 160.596 184.478 
	 161.402 185.004 162.208 185.004 163.013 185.004 163.819 185.004 
	 165.028 185.53 167.043 214.432 165.431 219.161 163.416 220.738 
	 161.402 221.263 159.387 219.161 157.372 216.534 154.954 213.906 
	 152.94 210.753 152.94 207.075 152.94 203.922 152.537 201.294 
	 152.133 198.141 152.133 195.514 151.731 196.565 150.119 198.141 
	 148.104 200.243 146.492 201.294 144.074 202.871 142.866 202.871 
	 140.448 205.498 139.642 205.498 138.836 203.922 137.627 202.871 
	 136.821 202.871 136.418 202.871 136.821 205.498 135.21 206.549 
	 134.001 206.549 133.195 206.549 132.792 205.498 132.792 205.498 
	 131.986 205.498 130.777 205.498 130.374 205.498 129.568 204.973 
	 129.568 204.973 129.568 204.973 129.568 204.973 "
	 style="stroke:none; fill:#c29561; fill-opacity:100%"></polygon>
	<polygon points="209.701 273.654 204.874 245.401 185.165 224.473 
	 167.064 229.182 166.26 235.46 165.858 239.123 165.456 240.693 
	 165.053 243.308 165.053 246.448 164.651 249.064 164.651 252.203 
	 164.651 254.296 190.394 304 209.701 304 208.494 301.384 
	 209.299 283.072 209.701 273.654 209.701 273.654 209.701 273.654 209.701 273.654 "
	 style=" stroke:#000000; stroke-width:1; fill:#0000ff; fill-opacity:100%"></polygon>
	<polygon points="211.677 237.519 199.616 245.371 189.163 243.277 
	 166.648 230.191 166.246 233.331 167.854 234.379 175.493 239.089 
	 191.575 246.418 198.41 250.083 199.616 251.13 200.42 253.224 
	 201.224 255.317 201.626 257.934 204.038 260.028 204.038 263.169 
	 204.441 266.834 204.843 269.974 205.245 273.639 205.245 276.779 
	 205.245 279.92 204.843 282.538 203.637 285.155 204.843 285.155 
	 205.647 284.108 206.853 282.538 208.863 279.92 208.461 282.538 
	 207.657 284.632 207.255 286.725 206.451 288.819 206.049 290.39 
	 205.245 292.483 204.843 294.054 204.441 296.148 203.637 299.289 
	 203.637 301.383 204.038 304 209.667 304 210.069 301.383 
	 210.471 298.765 210.471 296.148 210.874 293.531 211.275 290.913 
	 211.275 288.819 211.677 286.725 211.677 285.155 212.08 282.538 
	 212.482 279.92 212.884 277.303 212.884 274.686 213.286 272.068 
	 213.286 269.451 213.688 266.834 213.688 264.74 213.688 262.122 
	 213.688 259.505 213.286 256.888 213.286 254.27 212.884 251.653 
	 212.884 249.036 212.482 246.418 212.08 243.277 211.677 237.519 
	 211.677 237.519 211.677 237.519 211.677 237.519 "
	 style=" stroke:#000000; stroke-width:1; fill:#020285; fill-opacity:100%"></polygon>
	<polygon points="167.863 231.23 167.442 234.544 168.284 235.648 
	 169.967 237.305 172.071 238.962 174.596 240.067 175.017 235.648 
	 167.863 231.23 167.863 231.23 167.863 231.23 167.863 231.23 "
	 style=" stroke:#000000; stroke-width:1; fill:#000000; fill-opacity:100%"></polygon>
	<polygon points="203.322 245.45 189.369 242.666 189.779 247.678 
	 191.421 248.792 192.652 249.349 194.704 249.905 196.346 250.462 
	 197.987 250.462 200.039 250.462 201.68 250.462 203.322 249.905 
	 203.322 248.235 203.322 245.45 203.322 245.45 203.322 245.45 203.322 245.45 "
	 style=" stroke:#000000; stroke-width:1; fill:#000000; fill-opacity:100%"></polygon>
	<polygon points="211.296 242.146 204.917 244.385 205.342 247.743 
	 205.342 249.423 207.043 248.863 208.744 247.743 210.02 246.064 
	 211.296 244.385 211.296 242.146 211.296 242.146 211.296 242.146 211.296 242.146 "
	 style=" stroke:#000000; stroke-width:1; fill:#000000; fill-opacity:100%"></polygon>
	<polygon points="167.964 253.639 165.951 252.587 164.744 251.534 
	 158.709 248.903 156.696 249.956 154.684 251.534 187.279 291.005 
	 197.741 271.533 196.936 271.007 195.729 270.48 194.522 269.428 
	 193.314 268.375 192.51 267.849 190.498 266.27 188.888 265.744 
	 186.876 265.218 185.669 264.691 184.462 264.165 182.852 263.113 
	 181.645 262.06 180.438 261.533 178.023 261.007 175.207 259.955 
	 172.792 258.376 170.78 256.797 169.171 255.218 167.964 253.639 
	 167.964 253.639 167.964 253.639 167.964 253.639 "
	 style=" stroke:#000000; stroke-width:1; fill:#854002; fill-opacity:100%"></polygon>
	<polygon points="162.923 234.349 161.262 235.935 158.356 235.935 
	 156.279 236.993 156.279 240.165 157.11 244.395 157.525 249.154 
	 157.94 253.384 158.771 258.143 166.246 265.016 165.415 257.085 
	 165.415 248.625 164.584 240.694 162.923 234.349 162.923 234.349 
	 162.923 234.349 162.923 234.349 "
	 style=" stroke:#000000; stroke-width:1; fill:#ff00ff; fill-opacity:100%"></polygon>
	<polygon points="158.711 254.653 157.102 253.602 155.895 252.552 
	 154.688 251.502 154.688 253.602 154.286 255.703 154.286 257.803 
	 154.286 259.904 154.286 263.055 154.286 265.68 154.286 268.306 
	 154.688 271.457 197.335 302.44 197.737 299.289 197.737 295.614 
	 198.139 291.938 198.139 287.736 197.737 283.535 197.737 280.384 
	 197.737 277.234 197.737 274.083 197.737 271.457 196.53 272.507 
	 195.323 273.558 194.116 274.083 193.312 274.608 192.104 274.608 
	 190.897 275.133 189.69 275.658 188.886 277.234 187.679 276.183 
	 186.472 275.658 185.265 274.608 184.058 274.083 182.046 272.507 
	 181.242 271.457 180.437 270.407 178.828 269.882 177.621 268.831 
	 176.413 268.306 175.207 267.781 174.402 266.731 172.39 265.68 
	 170.781 264.105 169.172 263.055 167.562 262.005 165.953 260.429 
	 164.344 259.379 162.332 258.329 160.723 256.753 158.711 254.653 
	 158.711 254.653 158.711 254.653 158.711 254.653 "
	 style=" stroke:#000000; stroke-width:1; fill:#ff0016; fill-opacity:100%"></polygon>
	<polyline points="188.97 276.971 188.97 282.326 188.97 287.146 
	 188.173 292.502 188.173 294.644"
	 style=" stroke:#000000; stroke-width:1;"></polyline>
	<polygon points="168.301 138.283 166.698 140.892 165.095 144.023 
	 163.492 147.676 161.89 150.807 160.687 153.938 159.886 158.113 
	 159.485 161.244 159.084 164.375 158.283 168.549 157.481 172.202 
	 157.081 174.811 157.081 177.421 156.279 181.073 156.68 182.117 
	 158.283 183.161 160.687 184.204 163.893 184.204 163.492 187.857 
	 163.492 191.51 163.893 195.163 164.294 198.815 165.095 202.99 
	 165.496 207.164 165.496 211.339 165.095 216.558 165.095 222.298 
	 165.095 226.994 165.897 230.647 167.5 232.734 169.103 233.778 
	 170.305 234.3 171.106 235.343 171.908 235.865 172.709 236.387 
	 173.912 236.909 175.114 236.909 177.518 237.43 178.72 237.43 
	 180.323 238.474 183.529 240.561 189.54 244.736 191.945 245.258 
	 194.349 245.78 196.353 245.78 198.757 246.302 200.761 246.824 
	 202.765 246.824 204.768 246.824 206.371 246.302 208.375 245.78 
	 209.577 244.736 211.18 243.693 211.981 242.649 213.184 241.084 
	 213.584 238.996 213.985 236.387 214.386 233.778 212.783 223.341 
	 212.382 221.254 211.981 218.123 211.981 215.514 212.382 212.383 
	 212.783 209.774 213.184 206.643 213.584 202.99 213.985 198.815 
	 214.787 201.424 216.79 200.903 219.595 199.337 225.606 193.597 
	 230.816 187.335 232.82 184.204 233.621 182.117 232.018 176.898 
	 230.014 168.549 228.011 162.287 226.809 157.069 225.606 152.373 
	 224.404 147.676 223.603 145.067 222.401 142.98 221.199 140.371 
	 219.195 138.805 216.39 136.718 212.783 133.587 207.974 129.412 
	 205.57 127.325 203.165 125.759 200.761 124.194 199.158 123.15 
	 199.158 121.063 198.757 118.975 198.356 116.888 197.555 115.323 
	 195.952 114.801 194.75 114.279 193.147 114.279 191.143 114.801 
	 177.518 126.803 174.713 128.89 172.709 132.021 170.705 135.152 
	 168.301 138.283 168.301 138.283 168.301 138.283 168.301 138.283 "
	 style=" stroke:#000000; stroke-width:1; fill:#ffffff; fill-opacity:100%"></polygon>
	<polygon points="98.6262 304 200.93 304 91.8325 219.795 
	 33.8869 225.025 98.6262 304 98.6262 304 98.6262 304 98.6262 304 "
	 style=" stroke:#000000; stroke-width:1; fill:#ffff14; fill-opacity:100%"></polygon>
	<polygon points="81.1808 283.728 95.2671 280.56 96.877 280.56 
	 79.5708 257.855 54.6179 250.462 81.1808 283.728 81.1808 283.728 
	 81.1808 283.728 81.1808 283.728 "
	 style=" stroke:#000000; stroke-width:1; fill:#ff8500; fill-opacity:100%"></polygon>
	<polygon points="34.6844 225.513 34.6844 239.64 82.8148 304 
	 100.864 304 34.6844 225.513 34.6844 225.513 34.6844 225.513 34.6844 225.513 "
	 style=" stroke:#000000; stroke-width:1; fill:#ff8500; fill-opacity:100%"></polygon>
	<polyline points="194.95 252.022 196.589 254.184 198.228 255.806 
	 199.457 256.887 201.506 258.508 203.145 259.049 204.784 260.671 
	 207.243 262.292 208.882 263.914 209.701 265.536"
	 style=" stroke:#000000; stroke-width:1;"></polyline>
	<polygon points="60.9966 226.033 60.9966 241.774 97.2548 281.129 
	 99.2692 261.714 60.9966 226.033 60.9966 226.033 60.9966 226.033 60.9966 226.033 "
	 style=" stroke:#000000; stroke-width:1; fill:#ababab; fill-opacity:100%"></polygon>
	<polygon points="64.3245 231.75 95.2823 262.837 76.3859 270.214 
	 47.8404 233.858 64.3245 231.75 64.3245 231.75 64.3245 231.75 64.3245 231.75 "
	 style=" stroke:#000000; stroke-width:1; fill:#ababab; fill-opacity:100%"></polygon>
	<polygon points="47.8404 233.829 47.8404 244.345 76.1461 279.57 
	 76.1461 266.426 47.8404 233.829 47.8404 233.829 47.8404 233.829 47.8404 233.829 "
	 style=" stroke:#000000; stroke-width:1; fill:#ababab; fill-opacity:100%"></polygon>
	<polygon points="95.2823 262.417 95.2823 275.818 75.7476 279.57 
	 75.7476 266.169 95.2823 262.417 95.2823 262.417 95.2823 262.417 95.2823 262.417 "
	 style=" stroke:#000000; stroke-width:1; fill:#ababab; fill-opacity:100%"></polygon>
	<polygon points="86.7456 254.101 75.7476 256.844 82.6722 263.977 
	 94.4851 261.782 86.7456 254.101 86.7456 254.101 86.7456 254.101 86.7456 254.101 "
	 style=" stroke:#000000; stroke-width:1; fill:#000000; fill-opacity:100%"></polygon>
	<polygon points="75.1228 256.7 69.7673 257.804 76.3586 265.536 
	 82.1261 264.431 75.1228 256.7 75.1228 256.7 75.1228 256.7 75.1228 256.7 "
	 style=" stroke:#000000; stroke-width:1; fill:#000000; fill-opacity:100%"></polygon>
	<polygon points="86.1129 253.429 75.0925 256.18 68.9701 249.026 
	 79.9905 246.824 86.1129 253.429 86.1129 253.429 86.1129 253.429 86.1129 253.429 "
	 style=" stroke:#000000; stroke-width:1; fill:#000000; fill-opacity:100%"></polygon>
	<polygon points="74.1529 256.05 69.1169 257.22 66.1794 253.711 
	 71.2154 252.541 74.1529 256.05 74.1529 256.05 74.1529 256.05 74.1529 256.05 "
	 style=" stroke:#000000; stroke-width:1; fill:#000000; fill-opacity:100%"></polygon>
	<polygon points="70.5648 252.467 65.5148 253.061 62.9901 250.091 
	 68.04 248.903 70.5648 252.467 70.5648 252.467 70.5648 252.467 70.5648 252.467 "
	 style=" stroke:#000000; stroke-width:1; fill:#000000; fill-opacity:100%"></polygon>
	<polygon points="72.4005 239.547 61.7941 241.204 68.321 248.383 
	 79.3357 246.726 72.4005 239.547 72.4005 239.547 72.4005 239.547 72.4005 239.547 "
	 style=" stroke:#000000; stroke-width:1; fill:#000000; fill-opacity:100%"></polygon>
	<polygon points="64.4379 245.264 59.402 245.858 62.3395 249.423 
	 67.3754 248.829 64.4379 245.264 64.4379 245.264 64.4379 245.264 64.4379 245.264 "
	 style=" stroke:#000000; stroke-width:1; fill:#000000; fill-opacity:100%"></polygon>
	<polygon points="61.2557 241.106 55.8139 241.691 59.1626 245.784 
	 64.186 244.615 61.2557 241.106 61.2557 241.106 61.2557 241.106 61.2557 241.106 "
	 style=" stroke:#000000; stroke-width:1; fill:#000000; fill-opacity:100%"></polygon>
	<polygon points="60.1992 240.512 57.2536 236.948 52.6245 238.136 
	 55.1495 241.106 60.1992 240.512 60.1992 240.512 60.1992 240.512 60.1992 240.512 "
	 style=" stroke:#000000; stroke-width:1; fill:#000000; fill-opacity:100%"></polygon>
	<polygon points="57.0098 236.8 54.4769 233.829 49.8338 235.017 
	 51.9446 237.987 57.0098 236.8 57.0098 236.8 57.0098 236.8 57.0098 236.8 "
	 style=" stroke:#000000; stroke-width:1; fill:#000000; fill-opacity:100%"></polygon>
	<polygon points="71.7607 238.916 65.6348 232.789 55.0166 233.903 
	 61.1425 240.586 71.7607 238.916 71.7607 238.916 71.7607 238.916 71.7607 238.916 "
	 style=" stroke:#000000; stroke-width:1; fill:#000000; fill-opacity:100%"></polygon>
	<polygon points="60.9966 226.065 97.0445 261.201 97.0445 281.129 
	 146.711 270.116 146.711 253.859 97.0445 261.201 146.711 253.859 
	 103.854 222.394 60.9966 226.065 60.9966 226.065 60.9966 226.065 60.9966 226.065 "
	 style=" stroke:#000000; stroke-width:1; fill:#ffffff; fill-opacity:100%"></polygon>
	<polygon points="98.5317 259.298 141.528 251.951 141.528 224.138 
	 121.838 226.762 141.528 224.138 109.783 204.721 90.897 205.771 
	 98.5317 259.298 98.5317 259.298 98.5317 259.298 98.5317 259.298 "
	 style=" stroke:#000000; stroke-width:1; fill:#ffffff; fill-opacity:100%"></polygon>
	<polygon points="91.0682 205.761 67.7741 229.38 98.6992 259.299 
	 121.993 226.756 91.0682 205.761 91.0682 205.761 91.0682 205.761 91.0682 205.761 "
	 style=" stroke:#000000; stroke-width:1; fill:#ffffff; fill-opacity:100%"></polygon>
	<polygon points="103.487 217.716 85.7142 239.34 86.1181 241.977 
	 98.6395 253.581 116.412 228.792 116.412 227.21 103.487 217.716 
	 103.487 217.716 103.487 217.716 103.487 217.716 "
	 style=" stroke:#000000; stroke-width:1; fill:#ababab; fill-opacity:100%"></polygon>
	<polygon points="89.4703 212.518 82.9236 219.525 92.3343 227.072 
	 98.4717 219.525 89.4703 212.518 89.4703 212.518 89.4703 212.518 89.4703 212.518 "
	 style=" stroke:#000000; stroke-width:1; fill:#ababab; fill-opacity:100%"></polygon>
	<polygon points="101.385 209.479 108.009 213.957 108.423 214.517 
	 108.837 215.077 108.423 215.077 108.009 215.637 107.595 215.637 
	 106.767 215.637 106.353 215.637 105.525 215.077 98.9012 210.039 
	 98.073 210.039 98.073 209.479 98.073 208.92 98.487 208.92 
	 99.3152 208.36 99.7289 208.36 100.557 208.92 101.385 209.479 
	 101.385 209.479 101.385 209.479 101.385 209.479 "
	 style=" stroke:#000000; stroke-width:1; fill:#ababab; fill-opacity:100%"></polygon>
	<polygon points="102.193 209.919 106.821 213.427 106.821 213.427 
	 107.242 214.012 106.821 214.012 106.821 214.597 106.401 214.597 
	 105.559 214.597 105.138 214.597 104.717 214.012 100.089 211.089 
	 99.6677 210.504 99.6677 209.919 100.089 209.919 100.509 209.919 
	 100.93 209.919 101.351 209.919 102.193 209.919 102.193 209.919 
	 102.193 209.919 102.193 209.919 "
	 style=" stroke:#000000; stroke-width:1; fill:#000000; fill-opacity:100%"></polygon>
	<polygon points="100.864 210.838 103.355 212.458 106.262 214.077 
	 106.262 212.997 106.262 212.458 106.678 211.378 107.093 210.838 
	 107.509 209.759 107.509 209.219 107.924 208.679 108.339 207.6 
	 108.754 207.06 109.169 205.981 109.585 204.901 110.416 204.361 
	 110.416 203.282 110.831 202.742 110 202.202 109.169 202.202 
	 108.754 201.663 107.924 201.663 107.093 201.123 106.262 201.123 
	 105.847 200.583 105.017 200.043 104.601 200.583 104.601 201.123 
	 104.186 201.663 103.771 202.202 103.355 202.742 103.355 203.822 
	 102.94 204.361 102.525 204.901 102.525 205.441 102.11 205.981 
	 102.11 207.06 101.694 207.6 101.694 208.14 101.279 208.679 
	 101.279 209.759 100.864 210.838 100.864 210.838 100.864 210.838 100.864 210.838 "
	 style=" stroke:#000000; stroke-width:1; fill:#ffffff; fill-opacity:100%"></polygon>
	<polyline points="102.275 219.275 115.2 228.776 115.2 230.359 
	 113.988 232.47 113.584 230.359 100.659 220.859 99.4475 222.442 
	 112.373 232.47 112.373 234.581 110.757 237.219 110.757 235.108 
	 97.4278 225.081 95.8122 226.664 108.737 237.219 108.737 239.331 
	 107.122 241.97 107.122 239.858 94.1966 229.303 92.5807 231.414 
	 105.506 241.97 105.506 244.081 103.89 246.192 103.89 244.081 
	 90.9651 232.997 89.3495 234.581 102.275 246.192 102.679 248.303 
	 100.659 250.414 100.659 248.303 87.7339 236.692 85.7142 239.331 
	 98.6395 251.47 98.6395 253.581 98.6395 251.47 116.412 227.192"
	 style=" stroke:#000000; stroke-width:1;"></polyline>
	<polyline points="104.728 218.755 87.3089 240.422 87.3089 243.064 
	 89.3345 245.178 88.9294 242.535 106.754 219.812 108.779 221.398 
	 90.9548 244.121 91.3599 246.763 93.3853 248.348 92.9804 246.234 
	 110.4 222.455 112.425 224.04 94.601 247.82 95.0058 250.462"
	 style=" stroke:#000000; stroke-width:1;"></polyline>
	<polyline points="125.98 193.286 125.98 195.019 125.98 196.751 
	 126.777 198.484"
	 style=" stroke:#000000; stroke-width:1;"></polyline>
	<polyline points="126.478 191.207 126.977 191.207 127.475 191.207 
	 127.974 192.454 127.974 194.326 126.977 194.326 126.478 194.326 
	 125.98 193.702 125.98 191.831 126.478 191.207 126.478 191.207 
	 126.478 191.207"
	 style=" stroke:#000000; stroke-width:1;"></polyline>
	<polyline points="129.767 189.128 130.266 189.128 130.764 189.128 
	 130.764 190.91 130.764 192.692 130.266 193.286 129.269 193.286 
	 128.771 192.098 128.771 190.316 129.269 189.128 129.767 189.128 
	 129.767 189.128 129.767 189.128"
	 style=" stroke:#000000; stroke-width:1;"></polyline>
	<polyline points="128.771 191.727 128.771 193.901 128.771 196.074 
	 128.771 198.248 128.771 200.965 129.568 203.682"
	 style=" stroke:#000000; stroke-width:1;"></polyline>
	<polyline points="132.824 206.263 131.96 200.34 131.96 198.725 
	 132.824 193.342 133.256 191.727 134.551 191.727 135.415 192.265 
	 136.279 193.342 135.847 195.495 135.847 197.649 135.847 199.802 
	 136.279 202.494 136.711 202.494 136.711 204.109 137.143 206.801"
	 style=" stroke:#000000; stroke-width:1;"></polyline>
	<polyline points="136.345 201.993 136.345 199.231 136.794 195.918 
	 137.691 195.365 138.588 195.918 139.485 197.022 139.485 198.127 
	 139.485 199.783 139.485 201.44 139.934 202.545 139.934 204.202"
	 style=" stroke:#000000; stroke-width:1;"></polyline>
	<polyline points="139.136 202.122 140.2 201.343 140.731 200.563"
	 style=" stroke:#000000; stroke-width:1;"></polyline>
	<polyline points="141.528 201.083 142.724 201.776 142.724 203.162"
	 style=" stroke:#000000; stroke-width:1;"></polyline>
	<polyline points="144.319 190.687 142.648 192.388 141.395 193.523 
	 139.307 194.656 137.636 195.791 135.548 196.925"
	 style=" stroke:#000000; stroke-width:1;"></polyline>
	<polyline points="133.289 192.246 134.219 192.84 135.149 192.84 
	 135.149 194.623 134.684 195.811 133.754 196.405 132.824 195.811 
	 132.359 195.217 132.824 193.435 133.289 192.246 133.289 192.246 
	 133.289 192.246"
	 style=" stroke:#000000; stroke-width:1;"></polyline>
	<polyline points="137.242 195.885 138.239 195.885 138.738 196.509 
	 138.738 197.756 138.239 199.004 137.741 199.004 136.744 199.004 
	 136.744 198.38 136.744 196.509"
	 style=" stroke:#000000; stroke-width:1;"></polyline>
	<polyline points="132.757 197.964 133.355 197.964 133.953 197.964"
	 style=" stroke:#000000; stroke-width:1;"></polyline>
	<polyline points="132.359 200.043 132.89 200.043 133.953 200.043"
	 style=" stroke:#000000; stroke-width:1;"></polyline>
	<polyline points="132.757 201.083 133.555 201.083"
	 style=" stroke:#000000; stroke-width:1;"></polyline>
	<polyline points="133.555 206.281 134.352 207.32"
	 style=" stroke:#000000; stroke-width:1;"></polyline>
	<polyline points="133.156 206.281 133.953 206.281"
	 style=" stroke:#000000; stroke-width:1;"></polyline>
	<polyline points="137.541 206.281 138.737 206.281"
	 style=" stroke:#000000; stroke-width:1;"></polyline>
	<polyline points="137.143 201.603 137.94 201.603"
	 style=" stroke:#000000; stroke-width:1;"></polyline>
	<polyline points="131.96 191.207 131.96 193.494 131.96 195.209 
	 132.757 196.925"
	 style=" stroke:#000000; stroke-width:1;"></polyline>
	<polyline points="128.771 194.845 129.302 195.885 130.365 195.885"
	 style=" stroke:#000000; stroke-width:1;"></polyline>
	<polyline points="129.17 196.405 130.365 197.444"
	 style=" stroke:#000000; stroke-width:1;"></polyline>
	<polyline points="126.379 195.365 127.176 195.365"
	 style=" stroke:#000000; stroke-width:1;"></polyline>
	<polyline points="126.379 195.885 127.575 196.925"
	 style=" stroke:#000000; stroke-width:1;"></polyline>
	<polyline points="129.967 204.721 129.967 204.721 130.498 205.761 
	 131.561 205.761"
	 style=" stroke:#000000; stroke-width:1;"></polyline>
	<polyline points="127.176 202.642 127.774 203.682 128.372 203.682"
	 style=" stroke:#000000; stroke-width:1;"></polyline>
	<polyline points="135.947 202.122 135.947 202.815 135.947 204.201"
	 style=" stroke:#000000; stroke-width:1;"></polyline>
	<polyline points="145.515 204.202 146.786 203.649 148.48 202.545 
	 150.174 200.888 151.445 198.679 151.869 196.47 152.292 195.365"
	 style=" stroke:#000000; stroke-width:1;"></polyline>
	<polyline points="157.475 201.083 158.756 201.643 160.038 202.202 
	 160.892 203.322 161.746 203.882 162.174 205.001 163.028 206.121 
	 163.455 207.24 163.455 208.36"
	 style=" stroke:#000000; stroke-width:1;"></polyline>
	<polygon points="173.023 258.779 173.479 261.205 174.39 261.811 
	 176.213 262.417 176.213 259.991 174.846 259.385 173.023 258.779 
	 173.023 258.779 173.023 258.779 173.023 258.779 "
	 style=" stroke:#000000; stroke-width:1; fill:#ffffff; fill-opacity:100%"></polygon>
	<polygon points="172.625 253.655 173.555 256.44 174.485 259.225 
	 174.95 260.338 175.415 260.338 174.95 256.997 174.02 254.769 
	 173.555 252.541 172.625 253.655 172.625 253.655 172.625 253.655 172.625 253.655 "
	 style=" stroke:#000000; stroke-width:1; fill:#ffffff; fill-opacity:100%"></polygon>
	<polygon points="163.854 259.298 163.854 261.566 163.854 263.268 
	 164.751 264.401 166.096 264.969 166.993 265.536 167.442 263.268 
	 167.442 261.566 166.545 261 165.199 259.865 163.854 259.298 
	 163.854 259.298 163.854 259.298 163.854 259.298 "
	 style=" stroke:#000000; stroke-width:1; fill:#ffffff; fill-opacity:100%"></polygon>
	<polygon points="172.625 248.403 169.258 247.863 167.995 251.102 
	 167.154 254.341 165.891 257.579 165.05 260.818 165.471 261.897 
	 165.891 261.358 166.733 258.659 167.575 255.96 168.837 253.261 
	 169.679 250.562 170.941 250.562 172.625 248.403 172.625 248.403 
	 172.625 248.403 172.625 248.403 "
	 style=" stroke:#000000; stroke-width:1; fill:#ffffff; fill-opacity:100%"></polygon>
	<polygon points="181.395 272.062 180.94 274.373 180.028 273.217 
	 179.117 272.64 178.206 271.485 178.662 269.175 179.573 269.752 
	 180.484 270.329 181.395 272.062 181.395 272.062 181.395 272.062 181.395 272.062 "
	 style=" stroke:#000000; stroke-width:1; fill:#ffffff; fill-opacity:100%"></polygon>
	<polygon points="184.983 258.779 184.554 260.403 183.695 262.027 
	 182.836 263.652 182.407 265.276 181.549 266.9 181.119 269.066 
	 180.69 271.232 179.831 271.774 179.402 270.149 180.261 267.983 
	 180.69 266.359 181.549 264.193 181.978 262.569 182.836 260.945 
	 183.266 258.779 184.983 258.779 184.983 258.779 184.983 258.779 184.983 258.779 "
	 style=" stroke:#000000; stroke-width:1; fill:#ffffff; fill-opacity:100%"></polygon>
	<polygon points="164.252 182.309 164.252 180.169 164.252 176.424 
	 164.252 173.214 163.774 170.538 163.774 166.257 163.296 170.003 
	 163.296 173.748 162.817 176.959 162.817 179.634 162.339 181.775 
	 161.861 184.45 164.252 184.45 164.252 182.309 164.252 182.309 
	 164.252 182.309 164.252 182.309 "
	 style=" stroke:#000000; stroke-width:1; fill:#ababab; fill-opacity:100%"></polygon>
	<polygon points="176.956 146.224 175.288 143.517 174.455 141.351 
	 173.205 140.268 171.12 141.351 169.036 144.058 171.537 142.434 
	 173.205 142.434 174.455 144.6 176.122 146.766 176.539 149.473 
	 177.373 152.18 177.789 153.263 178.206 150.014 178.206 149.473 
	 178.206 150.014 177.789 147.307 176.956 146.224 176.956 146.224 
	 176.956 146.224 176.956 146.224 "
	 style=" stroke:#000000; stroke-width:1; fill:#ababab; fill-opacity:100%"></polygon>
	<polygon points="181.025 153.159 180.199 155.862 181.438 153.7 
	 182.677 150.456 184.741 147.753 187.632 147.213 191.761 150.456 
	 189.696 147.213 186.806 144.51 183.916 142.347 182.264 143.969 
	 181.438 148.294 181.025 153.159 181.025 153.159 181.025 153.159 181.025 153.159 "
	 style=" stroke:#000000; stroke-width:1; fill:#ababab; fill-opacity:100%"></polygon>
	<polygon points="201.249 126.138 203.322 126.138 200.835 124.521 
	 199.176 123.442 199.176 121.286 198.761 119.13 198.347 116.974 
	 197.518 115.357 195.859 114.818 192.957 114.279 194.615 125.599 
	 195.444 125.059 196.274 124.521 197.518 125.059 198.347 127.216 
	 199.176 128.833 200.005 127.216 201.249 126.138 201.249 126.138 
	 201.249 126.138 201.249 126.138 "
	 style=" stroke:#000000; stroke-width:1; fill:#ababab; fill-opacity:100%"></polygon>
	<polygon points="231.963 181.844 233.621 182.371 231.963 177.1 
	 229.889 168.666 227.817 162.341 226.573 157.07 225.329 152.326 
	 224.085 147.582 223.256 144.946 223.67 149.69 224.5 153.907 
	 225.329 158.124 226.573 161.814 227.402 166.03 228.646 170.247 
	 229.889 173.937 230.719 178.154 231.963 181.844 231.963 181.844 
	 231.963 181.844 231.963 181.844 "
	 style=" stroke:#000000; stroke-width:1; fill:#ababab; fill-opacity:100%"></polygon>
	<polygon points="204.221 173.594 204.624 175.163 204.624 176.209 
	 203.819 177.255 203.416 177.778 202.61 176.732 201.805 176.209 
	 200.999 175.163 200.194 174.117 200.597 175.686 201.402 177.778 
	 203.013 179.348 203.819 180.393 204.624 184.578 204.624 187.193 
	 204.221 189.286 203.013 193.471 205.027 190.332 207.443 187.193 
	 207.846 190.855 207.443 195.039 206.638 197.655 205.832 200.793 
	 205.027 203.409 203.416 207.594 202.61 211.255 200.597 217.532 
	 203.013 212.824 204.624 209.686 205.832 206.024 207.04 203.409 
	 208.249 201.84 209.457 199.747 210.262 203.409 210.262 206.024 
	 209.457 207.594 208.651 210.209 207.443 213.347 206.235 216.486 
	 205.832 219.101 205.429 222.763 205.429 226.424 205.429 227.993 
	 194.153 245.777 196.167 245.777 198.583 246.301 200.597 246.824 
	 202.61 246.824 204.624 246.824 206.235 246.301 208.249 245.777 
	 209.457 244.732 211.068 243.685 211.873 242.639 213.081 241.07 
	 213.484 238.978 213.887 236.362 214.29 233.747 212.679 223.285 
	 212.276 221.193 211.873 218.055 211.873 215.439 212.276 212.301 
	 212.679 209.686 213.081 206.547 213.484 202.886 213.887 198.701 
	 214.693 201.316 216.706 200.793 219.525 199.224 225.566 193.471 
	 230.802 187.193 232.816 184.055 233.621 181.963 232.01 180.917 
	 230.399 181.44 227.58 182.486 224.761 184.578 221.942 187.717 
	 219.525 190.332 217.109 193.994 215.901 196.609 214.693 192.947 
	 213.484 190.855 211.47 186.147 209.457 180.393 208.249 176.732 
	 206.235 172.547 205.832 170.455 205.429 168.363 204.624 166.271 
	 204.221 166.271 204.624 167.317 204.624 169.409 204.624 170.455 
	 203.819 168.886 203.416 166.271 203.013 164.178 203.013 168.363 
	 203.416 170.978 204.221 173.594 204.221 173.594 204.221 173.594 204.221 173.594 "
	 style=" stroke:#000000; stroke-width:1; fill:#ababab; fill-opacity:100%"></polygon>
	<polygon points="179.221 77.3745 192.957 98.3165 192.957 129.206 
	 192.149 130.777 190.937 132.348 190.129 133.918 188.917 135.489 
	 188.109 137.06 186.897 138.106 186.089 139.677 184.877 140.724 
	 183.261 142.295 182.049 143.865 182.049 144.913 180.837 144.389 
	 179.221 144.389 179.221 146.483 178.009 149.624 178.413 147.53 
	 178.413 145.436 178.413 142.819 178.413 140.724 178.413 138.63 
	 178.817 136.012 178.817 133.918 178.413 131.824 177.605 130.253 
	 176.797 128.683 175.989 129.206 174.777 129.73 173.565 129.73 
	 172.757 130.253 171.546 129.73 170.737 129.73 169.93 129.206 
	 169.525 128.159 169.122 126.589 168.717 125.017 168.717 124.494 
	 168.314 123.447 167.91 122.4 167.91 121.876 167.506 121.353 
	 167.506 120.829 167.506 120.306 167.91 119.259 166.698 118.735 
	 166.698 114.546 165.89 114.023 165.082 114.023 164.678 113.5 
	 164.274 112.976 164.274 111.929 164.678 110.882 165.082 110.358 
	 165.89 107.217 165.89 105.123 166.294 104.076 165.89 105.123 
	 165.89 104.076 165.89 103.029 165.89 102.505 165.89 100.411 
	 164.274 99.3639 163.87 98.3165 163.87 97.7931 163.87 97.7931 
	 163.87 97.2697 163.87 96.746 163.87 96.746 163.87 96.2222 
	 163.87 95.6989 163.87 95.6989 163.87 95.1755 163.87 94.6517 
	 163.87 94.6517 163.466 94.128 163.466 94.128 163.466 93.6046 
	 163.466 93.0812 163.466 93.0812 163.466 92.5575 163.466 92.5575 
	 163.466 92.0338 163.466 92.0338 163.466 91.5104 163.466 90.987 
	 163.062 90.987 163.062 90.4633 163.062 90.4633 163.062 89.9396 
	 163.062 89.4163 163.062 89.4163 163.062 88.8927 163.062 88.8927 
	 163.062 88.369 163.062 88.369 163.062 87.8454 163.062 87.3221 
	 163.062 87.3221 163.062 86.7985 163.062 86.7985 163.062 86.2748 
	 163.062 85.7514 162.658 85.7514 162.658 85.2278 162.658 85.2278 
	 162.658 84.7042 162.658 84.1807 162.658 84.1807 179.221 77.3745 
	 179.221 77.3745 179.221 77.3745 179.221 77.3745 "
	 style=" stroke:#c29561; stroke-width:1; fill:#ffc283; fill-opacity:100%"></polygon>
	<polygon points="166.545 98.6856 166.545 99.2706 166.545 99.8552 
	 166.993 100.44 167.442 101.024 167.442 101.024 166.993 102.194 
	 166.993 103.364 166.096 103.364 165.648 101.609 165.199 100.44 
	 164.302 99.2706 163.854 98.6856 166.545 98.6856 166.545 98.6856 
	 166.545 98.6856 166.545 98.6856 "
	 style="stroke:none; fill:#c29561; fill-opacity:100%"></polygon>
	<polygon points="168.239 98.2696 172.844 97.1263 176.611 98.8414 
	 176.611 99.4136 176.611 101.129 176.611 101.701 176.193 102.272 
	 175.355 102.844 175.355 102.844 174.937 102.272 172.007 102.272 
	 171.588 102.844 170.751 102.272 170.332 101.129 169.495 100.557 
	 169.076 99.9854 168.658 98.8414 168.239 98.2696 168.239 98.2696 
	 168.239 98.2696 168.239 98.2696 "
	 style="stroke:none; fill:#c29561; fill-opacity:100%"></polygon>
	<polygon points="166.749 117.235 166.749 114.474 165.916 113.922 
	 165.085 113.922 164.668 113.369 164.252 112.817 165.085 113.369 
	 166.332 113.369 167.164 112.817 167.581 112.817 167.996 112.817 
	 169.245 112.817 169.661 112.265 169.661 111.16 170.077 111.713 
	 170.909 112.265 171.741 113.369 172.572 113.922 172.989 114.474 
	 172.989 116.131 173.405 118.34 173.821 119.997 173.405 119.997 
	 172.989 117.788 172.572 116.683 171.741 114.474 171.325 113.922 
	 170.492 112.817 170.492 113.922 170.077 114.474 169.661 115.578 
	 168.413 116.131 167.581 116.131 167.164 117.235 166.749 117.235 
	 166.749 117.235 166.749 117.235 166.749 117.235 "
	 style="stroke:none; fill:#c29561; fill-opacity:100%"></polygon>
	<polygon points="167.07 118.091 167.92 118.091 169.196 117.398 
	 170.897 118.091 171.748 118.091 172.598 118.091 173.023 118.091 
	 172.598 118.784 172.173 118.784 170.897 119.477 169.621 119.477 
	 168.346 119.477 167.495 119.477 166.645 118.784 167.07 118.091 
	 167.07 118.091 167.07 118.091 167.07 118.091 "
	 style="stroke:none; fill:#c29561; fill-opacity:100%"></polygon>
	<polygon points="169.236 124.155 168.306 123.548 168.306 122.942 
	 167.841 122.336 167.841 121.729 168.306 121.729 169.236 121.123 
	 170.166 121.123 170.631 120.516 170.631 121.729 170.166 122.942 
	 169.701 123.548 169.236 124.155 169.236 124.155 169.236 124.155 169.236 124.155 "
	 style="stroke:none; fill:#c29561; fill-opacity:100%"></polygon>
	<polygon points="175.814 115.393 175.814 115.987 175.814 117.769 
	 175.814 118.957 176.611 117.769 176.611 116.581 176.611 115.393 
	 176.611 114.799 175.814 114.799 175.814 115.393 175.814 115.393 
	 175.814 115.393 175.814 115.393 "
	 style="stroke:none; fill:#c29561; fill-opacity:100%"></polygon>
	<polygon points="187.272 114.064 187.676 114.064 188.079 113.539 
	 188.483 113.014 189.29 111.965 189.694 111.44 190.097 110.391 
	 190.501 109.341 190.904 108.816 191.308 107.767 194.94 104.618 
	 190.904 96.2216 186.061 97.2713 185.658 99.3703 185.658 100.945 
	 186.061 101.994 186.061 102.519 186.465 101.469 186.465 100.42 
	 186.869 99.8953 187.676 99.3703 188.079 99.3703 188.483 99.8953 
	 189.29 100.42 189.694 101.994 189.694 103.044 189.694 104.093 
	 189.694 105.143 189.29 105.668 188.887 107.242 188.887 108.292 
	 188.887 109.341 188.483 110.391 188.483 110.915 187.676 110.915 
	 187.272 110.915 186.869 110.391 186.869 109.866 186.869 108.816 
	 186.869 107.767 187.272 106.717 187.272 105.668 186.869 104.618 
	 186.465 104.093 186.061 103.044 185.254 101.994 184.851 100.42 
	 180.411 94.1223 178.796 92.0232 177.182 90.9739 176.778 89.3996 
	 176.375 88.3499 176.375 86.7756 175.971 87.3005 175.971 87.825 
	 175.568 87.825 175.164 88.3499 174.761 88.8747 174.761 88.8747 
	 174.357 89.3996 173.953 89.3996 173.55 89.9241 173.146 89.9241 
	 173.146 89.9241 172.743 90.4489 172.339 90.4489 172.339 90.4489 
	 171.935 90.4489 171.532 90.9739 171.128 90.9739 170.725 90.9739 
	 170.321 90.9739 170.321 90.9739 169.918 90.9739 169.514 90.9739 
	 169.11 90.9739 169.11 90.9739 168.707 90.9739 168.303 90.9739 
	 167.9 90.9739 167.496 90.9739 167.496 90.9739 167.092 90.9739 
	 166.689 90.9739 166.285 90.9739 165.882 90.9739 165.478 90.9739 
	 165.478 90.9739 165.074 90.9739 164.671 90.9739 164.267 90.9739 
	 163.864 90.9739 163.46 90.9739 163.46 91.4986 163.056 89.3996 
	 178.796 82.0526 191.308 95.6969 194.94 115.638 195.747 117.737 
	 195.747 119.312 195.747 120.886 195.747 122.461 195.344 124.035 
	 194.537 126.134 193.73 127.708 192.922 129.283 192.115 130.332 
	 190.501 129.283 190.097 129.283 189.694 129.283 189.694 129.808 
	 189.29 129.808 188.887 129.808 188.483 130.332 188.483 130.332 
	 188.079 130.332 187.676 130.857 187.272 130.857 186.869 131.382 
	 186.869 131.382 186.465 131.907 186.061 132.432 186.061 132.432 
	 185.658 132.956 185.254 132.956 184.851 133.481 184.851 133.481 
	 184.447 134.006 184.043 134.006 184.043 134.531 183.64 135.056 
	 183.236 135.056 182.833 135.58 182.833 135.58 182.429 135.58 
	 182.025 136.105 182.025 136.105 181.622 136.105 181.218 136.63 
	 180.815 136.63 180.815 136.63 180.411 136.105 180.007 136.105 
	 179.604 135.58 179.604 135.056 179.2 135.056 179.2 134.531 
	 178.796 134.006 178.796 132.956 178.393 132.956 177.989 130.857 
	 177.586 130.332 176.778 128.758 175.971 129.283 174.761 129.808 
	 173.55 129.808 172.743 130.332 171.532 130.332 170.725 129.808 
	 169.918 129.283 171.532 129.283 172.743 128.758 173.953 128.233 
	 175.164 127.708 176.375 127.184 177.586 126.134 178.796 125.609 
	 179.604 124.56 180.411 123.51 181.622 122.461 182.025 120.886 
	 182.833 119.837 183.64 118.787 184.447 117.213 184.851 116.163 
	 185.254 114.589 185.658 113.014 186.061 113.014 186.869 113.539 
	 187.272 114.064 187.272 114.064 187.272 114.064 187.272 114.064 "
	 style="stroke:none; fill:#c29561; fill-opacity:100%"></polygon>
	<polygon points="176.213 101.414 174.038 100.765 172.733 100.765 
	 171.863 101.414 171.429 101.414 171.429 102.064 171.429 102.714 
	 171.863 102.714 172.298 103.364 173.168 103.364 174.038 102.714 
	 174.908 102.064 176.213 101.414 176.213 101.414 176.213 101.414 176.213 101.414 "
	 style=" stroke:#000000; stroke-width:1; fill:#ffffff; fill-opacity:100%"></polygon>
	<polygon points="165.847 102.324 165.847 103.017 166.445 104.403 
	 166.445 104.403 167.043 103.71 167.043 103.017 166.445 102.324 
	 165.847 102.324 165.847 102.324 165.847 102.324 165.847 102.324 "
	 style=" stroke:#000000; stroke-width:1; fill:#ffffff; fill-opacity:100%"></polygon>
	<polygon points="172.89 100.765 171.827 101.414 171.827 102.064 
	 171.827 102.064 171.827 102.714 172.359 103.364 172.89 103.364 
	 172.89 103.364 173.422 102.714 173.422 102.064 173.422 101.414 
	 172.89 100.765 172.89 100.765 172.89 100.765 172.89 100.765 172.89 100.765 "
	 style=" stroke:#000000; stroke-width:1; fill:#00ffff; fill-opacity:100%"></polygon>
	<polygon points="165.847 102.324 165.847 103.71 166.644 103.71 
	 166.644 104.403 166.644 103.71 166.644 103.017 165.847 102.324 
	 165.847 102.324 165.847 102.324 165.847 102.324 "
	 style=" stroke:#000000; stroke-width:1; fill:#00ffff; fill-opacity:100%"></polygon>
	<polyline points="169.276 110.121 169.754 111.309 169.754 111.903 
	 170.232 112.497 170.232 113.091 170.232 113.685 169.754 113.685 
	 168.797 114.279 167.841 114.279"
	 style=" stroke:#000000; stroke-width:1;"></polyline>
	<polyline points="168.638 114.02 168.139 113.24 167.641 113.24 
	 167.143 114.02 167.143 114.02 166.645 114.799"
	 style=" stroke:#000000; stroke-width:1;"></polyline>
	<polyline points="186.179 114.279 185.347 117.513 184.515 119.669 
	 183.267 121.825 182.019 123.442 180.771 125.059 179.523 126.138 
	 178.275 127.755 176.611 128.833"
	 style=" stroke:#000000; stroke-width:1;"></polyline>
	<polygon points="172.425 101.285 172.425 101.285 171.827 101.978 
	 172.425 102.671 172.425 103.364 173.023 103.364 173.023 102.671 
	 173.023 101.978 173.023 101.285 172.425 101.285 172.425 101.285 
	 172.425 101.285 172.425 101.285 "
	 style=" stroke:#000000; stroke-width:1; fill:#000000; fill-opacity:100%"></polygon>
	<polyline points="186.578 99.2314 187.455 98.6856 188.332 98.6856 
	 189.209 99.2314 189.648 99.7773 190.086 100.323 190.525 101.414 
	 190.963 102.506 190.963 103.598 190.963 104.689 190.963 105.235 
	 190.525 106.327 189.648 107.418 189.209 108.51 188.771 109.601"
	 style=" stroke:#000000; stroke-width:1;"></polyline>
	<polyline points="189.369 105.963 188.771 106.655 188.173 108.042"
	 style=" stroke:#000000; stroke-width:1;"></polyline>
	<polyline points="186.977 100.245 186.977 101.379 187.575 103.08 
	 188.173 104.781 188.173 106.482"
	 style=" stroke:#000000; stroke-width:1;"></polyline>
	<polyline points="171.03 100.765 171.03 101.804 171.827 101.804"
	 style=" stroke:#000000; stroke-width:1;"></polyline>
	<polyline points="171.429 102.324 171.429 103.017 171.429 103.017 
	 171.877 103.71 172.325 104.403 172.325 104.403 172.774 104.403 
	 173.223 104.403 173.671 104.403 174.568 103.71 175.017 103.017"
	 style=" stroke:#000000; stroke-width:1;"></polyline>
	<polygon points="185.243 102.155 185.243 103.73 185.243 105.306 
	 183.631 106.357 183.631 104.256 183.227 101.629 182.824 100.054 
	 182.421 99.0031 180.809 97.9525 180.405 95.8515 180.002 94.2756 
	 179.196 92.6999 178.39 91.1243 177.583 90.0735 176.777 87.9725 
	 176.374 85.3464 175.164 86.3968 173.149 87.9725 171.536 88.4978 
	 169.923 89.5485 167.908 89.5485 165.892 89.5485 164.279 89.5485 
	 163.07 90.0735 162.667 89.5485 162.263 89.0232 161.861 88.4978 
	 180.002 73.7907 188.468 68.5382 189.275 69.0635 190.887 70.6392 
	 192.097 72.215 193.306 73.7907 194.516 75.8918 195.322 78.518 
	 196.128 80.6191 196.531 83.2454 196.935 85.8716 196.935 87.4475 
	 196.935 88.4978 197.338 89.5485 197.338 91.1243 196.935 92.6999 
	 196.935 93.7506 196.935 96.3765 196.935 98.4778 196.935 100.054 
	 196.531 101.629 196.531 103.205 196.531 105.306 196.935 106.882 
	 196.935 108.458 197.338 110.033 197.741 111.609 197.741 113.71 
	 197.741 115.286 196.935 116.337 196.531 117.387 195.725 118.438 
	 195.322 116.337 194.112 115.811 193.306 114.76 192.097 112.134 
	 191.694 110.033 191.291 108.458 191.694 107.407 192.097 104.781 
	 192.097 103.205 191.291 100.579 190.887 99.5284 190.484 99.0031 
	 188.872 97.4271 187.662 97.4271 186.856 97.9525 186.049 99.0031 
	 185.243 100.054 185.243 102.155 185.243 102.155 185.243 102.155 185.243 102.155 "
	 style=" stroke:#000000; stroke-width:1; fill:#000000; fill-opacity:100%"></polygon>
	<polyline points="193.754 80.4932 194.286 83.7419 194.817 86.9905 
	 195.349 90.2388 194.817 93.4879"
	 style=" stroke:#000000; stroke-width:1;"></polyline>
	<polygon points="168.239 97.9059 168.656 97.2562 169.907 97.2562 
	 170.74 97.2562 172.824 96.6064 173.657 96.6064 174.908 97.2562 
	 177.409 99.2055 176.575 99.2055 174.491 97.9059 172.407 97.9059 
	 169.907 99.2055 169.073 99.2055 168.239 97.9059 168.239 97.9059 
	 168.239 97.9059 168.239 97.9059 "
	 style=" stroke:#000000; stroke-width:1; fill:#000000; fill-opacity:100%"></polygon>
	<polygon points="165.249 98.1657 163.854 98.1657 163.854 98.9454 
	 164.319 99.725 165.714 98.9454 166.179 99.725 166.644 99.725 
	 166.644 98.9454 165.714 98.1657 165.249 98.1657 165.249 98.1657 
	 165.249 98.1657 165.249 98.1657 "
	 style=" stroke:#000000; stroke-width:1; fill:#000000; fill-opacity:100%"></polygon>
	<polygon points="184.884 102.796 184.884 105.429 183.672 106.482 
	 183.672 104.376 183.672 102.269 182.864 99.6362 182.46 98.5826 
	 180.845 97.5298 180.845 95.95 180.037 92.79 178.421 91.2102 
	 177.209 89.1037 176.805 86.4705 176.401 83.8375 175.594 84.8907 
	 174.786 85.4173 173.978 86.4705 172.766 86.9972 171.555 88.0503 
	 170.343 88.577 169.131 88.577 167.515 88.577 166.304 88.577 
	 165.092 89.1037 164.284 89.1037 163.88 89.1037 162.668 89.6304 
	 162.264 89.1037 161.861 88.577 161.861 87.5239 161.861 86.9972 
	 161.861 85.944 161.861 84.8907 161.861 84.3641 162.668 82.2576 
	 163.476 80.6778 164.688 78.5713 165.9 76.9915 167.515 74.885 
	 169.535 73.3051 171.151 71.7252 172.766 70.1454 174.786 69.0922 
	 176.401 68.0389 178.017 67.5123 179.633 66.9857 180.441 66.9857 
	 181.652 66.4591 182.864 66.4591 184.076 66.9857 184.884 66.9857 
	 185.692 67.5123 186.903 67.5123 187.711 68.0389 188.519 68.5656 
	 189.327 69.0922 190.539 70.672 191.346 72.7785 192.154 74.3584 
	 192.558 75.9382 192.558 78.0447 192.558 79.6245 192.154 81.2044 
	 191.75 82.7842 191.346 84.3641 190.539 85.944 189.731 87.5239 
	 188.923 89.1037 187.711 90.1568 186.903 91.7368 186.095 93.8432 
	 185.692 95.95 185.288 97.5298 184.884 99.1092 184.884 100.689 
	 184.884 102.796 184.884 102.796 184.884 102.796 184.884 102.796 "
	 style=" stroke:#000000; stroke-width:1; fill:#442302; fill-opacity:100%"></polygon>
	<polyline points="163.854 84.6515 165.107 85.2752 165.942 85.8989 
	 167.195 87.1464 168.03 87.7702 169.283 87.7702 170.536 87.7702 
	 171.789 87.1464 172.624 86.5226"
	 style=" stroke:#000000; stroke-width:1;"></polyline>
	<polyline points="176.212 85.1713 176.625 83.0055 177.862 80.8397 
	 179.512 78.6739 181.574 77.5911 182.811 75.9668 184.049 75.4254 
	 185.286 74.3425 186.935 73.2596 188.173 72.1767"
	 style=" stroke:#000000; stroke-width:1;"></polyline>
	<polyline points="180.598 86.7306 181.033 88.3939 181.903 90.0571 
	 183.207 90.6115 184.077 91.166 184.947 92.8295 185.382 94.4927 
	 185.382 95.0472"
	 style=" stroke:#000000; stroke-width:1;"></polyline>
	<polyline points="179.003 133.511 179.003 134.631 179.96 136.31 
	 179.96 137.989 180.917 139.668 181.395 140.788"
	 style=" stroke:#000000; stroke-width:1;"></polyline>
	<polyline points="184.983 135.07 184.983 136.825 184.053 138.579 
	 183.123 139.164 182.658 139.748 182.193 139.164"
	 style=" stroke:#000000; stroke-width:1;"></polyline>
	<polyline points="169.435 144.427 173.688 134.736 175.814 129.353"
	 style=" stroke:#000000; stroke-width:1;"></polyline>
	<polyline points="169.834 137.149 168.979 140.853 168.125 144.027 
	 167.698 146.144 166.844 148.789 165.99 151.434 165.562 155.138 
	 164.708 159.899 163.854 166.777"
	 style=" stroke:#000000; stroke-width:1;"></polyline>
	<polyline points="178.206 152.743 176.877 155.881 175.991 160.066 
	 175.548 164.25 175.105 169.48 174.662 174.711 174.219 179.941 
	 174.219 185.694 174.219 191.971 174.662 198.247 174.662 204 
	 175.105 210.277 175.105 216.03 175.548 221.783 175.548 227.014 
	 175.991 232.244 175.991 236.428"
	 style=" stroke:#000000; stroke-width:1;"></polyline>
	<polyline points="180.997 155.342 179.63 159.004 179.174 162.666 
	 178.263 166.852 177.807 171.037 177.807 175.745 177.807 180.453 
	 177.807 185.685 177.807 191.44 177.807 196.672 177.807 202.426 
	 178.263 208.181 178.263 213.936 178.263 219.167 178.263 224.922 
	 178.263 230.677 178.263 235.908"
	 style=" stroke:#000000; stroke-width:1;"></polyline>
	<polyline points="199.734 180.349 194.842 180.877 190.356 179.821 
	 185.871 178.237 182.202 176.653 182.202 186.686 181.794 194.078 
	 182.202 200.415 183.017 205.695 186.279 208.335 190.356 209.919 
	 193.618 209.919 196.88 207.807 198.103 200.943 198.511 189.854 
	 198.919 184.574 199.734 180.349 199.734 180.349 199.734 180.349"
	 style=" stroke:#000000; stroke-width:1;"></polyline>
	<polyline points="183.389 186.009 186.264 187.828 191.604 189.647 
	 196.943 189.647"
	 style=" stroke:#000000; stroke-width:1;"></polyline>
	<polyline points="214.337 199.004 213.113 194.285 211.481 189.566 
	 209.441 184.846 207.81 180.127 205.77 175.932 205.362 173.835 
	 204.546 171.214 204.138 169.641 203.73 167.543 203.322 165.97 
	 203.322 163.873 203.73 160.727 204.138 158.105 204.546 155.483 
	 205.362 152.862 205.77 150.24 206.994 147.618 208.217 145.521 
	 209.849 143.948 211.481 142.375 213.113 140.802 214.744 140.277 
	 216.376 139.753 218.008 139.229 219.232 139.229 220.048 139.229 
	 220.864 139.753"
	 style=" stroke:#000000; stroke-width:1;"></polyline>
	<polyline points="214.884 201.603 214.884 201.018 214.884 199.848 
	 215.415 198.094 216.478 196.925"
	 style=" stroke:#000000; stroke-width:1;"></polyline>
	<polyline points="200.133 123.115 200.133 123.644 200.133 124.173 
	 200.133 124.173 200.133 124.702 200.133 124.702 200.133 125.231 
	 200.133 125.76 200.133 125.76 200.133 126.289 200.133 126.289 
	 200.133 126.818 200.133 126.818 200.133 127.346 200.133 127.876 
	 199.713 127.876 199.713 128.404 199.713 128.933 199.713 129.462 
	 199.713 129.991 199.713 129.991 199.713 130.52 199.713 131.049 
	 199.294 131.578 199.294 132.107 199.294 132.107 199.294 132.636 
	 199.294 133.164 198.874 133.693 198.874 134.222 198.874 134.222 
	 198.874 134.751 198.874 135.28 198.874 135.809 198.454 135.809 
	 198.454 136.338 198.454 136.338 198.454 136.867 198.454 137.395 
	 198.035 137.925 198.035 137.925 198.035 138.453 198.035 138.983 
	 198.035 138.983 198.035 138.983 198.035 139.511 197.615 140.04 
	 197.615 140.04 197.615 140.569 197.615 140.569 197.615 141.098 
	 197.615 141.098 197.615 141.098 197.615 141.627 197.615 141.627 
	 197.195 142.156 197.195 142.156 197.195 142.685 197.195 142.685 
	 197.195 143.213 197.195 143.213 197.195 143.743 197.195 143.743 
	 196.776 144.271 196.776 144.271 196.776 144.8 196.776 144.8 
	 196.776 145.329 196.776 145.329 196.776 145.858 196.776 145.858 
	 196.356 146.387 196.356 146.387 196.356 146.387 196.356 146.916 
	 196.356 146.916 196.356 147.445 196.356 147.445 196.356 147.974 
	 196.356 147.974 196.356 148.502 195.936 149.032 195.936 149.032 
	 195.936 149.56 195.936 150.089 195.936 150.089 195.936 150.618 
	 195.936 151.147 195.516 151.147 195.516 151.676 195.516 152.205 
	 195.516 152.734 195.516 153.263 195.516 153.263 195.097 153.263 
	 195.097 153.263 194.677 153.263 194.677 153.263 194.258 152.734 
	 194.258 152.734 193.838 152.734 193.838 152.205 193.419 151.676 
	 193.419 151.676 192.999 151.676 192.999 151.147 192.579 151.147 
	 192.579 150.618 192.159 150.618 192.159 150.618"
	 style=" stroke:#000000; stroke-width:1;"></polyline>
	<polyline points="197.143 116.358 197.741 118.038 197.741 120.277 
	 197.143 121.956 196.545 123.635"
	 style=" stroke:#000000; stroke-width:1;"></polyline>
	<polygon points="235.191 193.354 237.196 203.296 239.601 216.903 
	 239.201 220.043 235.191 222.136 227.973 227.892 212.335 235.219 
	 194.692 242.545 191.484 246.732 185.47 248.825 185.069 256.152 
	 181.861 260.338 179.856 258.245 177.049 259.292 175.846 257.722 
	 175.445 256.675 173.841 256.675 172.237 255.629 172.237 254.582 
	 172.237 253.535 170.633 252.489 170.232 251.442 170.232 249.872 
	 170.633 247.778 171.436 246.208 172.237 244.115 172.638 242.022 
	 173.04 240.452 173.04 238.882 173.841 237.312 174.643 236.789 
	 177.049 236.266 179.455 235.742 181.861 235.219 184.267 234.696 
	 186.272 234.172 188.677 233.649 190.682 232.602 192.687 231.032 
	 194.692 230.509 196.697 229.462 198.702 228.416 200.306 227.369 
	 201.91 226.322 203.112 225.276 204.716 224.229 205.919 222.659 
	 207.523 221.613 208.726 220.566 209.929 219.519 211.533 218.473 
	 212.736 217.426 214.34 215.856 215.543 214.809 216.746 213.763 
	 218.35 212.716 219.553 211.669 221.156 210.623 222.76 210.1 
	 221.557 206.436 219.151 200.156 220.355 192.83 223.562 188.12 
	 229.176 183.933 232.384 183.41 235.191 193.354 235.191 193.354 
	 235.191 193.354 235.191 193.354 "
	 style=" stroke:#000000; stroke-width:1; fill:#ffc283; fill-opacity:100%"></polygon>
	<polygon points="172.624 253.581 171.668 253.581 170.711 252.281 
	 170.232 250.982 170.711 251.632 171.668 252.281 172.624 252.281 
	 172.624 253.581 172.624 253.581 172.624 253.581 172.624 253.581 "
	 style=" stroke:#000000; stroke-width:1; fill:#854002; fill-opacity:100%"></polygon>
	<polygon points="172.627 255.105 173.429 256.152 174.231 256.152 
	 175.033 256.152 175.434 256.152 176.236 257.199 176.637 257.722 
	 177.439 258.245 178.241 258.768 179.043 258.245 179.444 256.675 
	 179.845 255.105 179.845 257.199 180.247 258.245 181.048 259.292 
	 181.851 259.292 182.652 259.292 183.054 257.722 183.455 256.152 
	 183.455 253.013 183.455 250.919 183.455 249.873 183.455 248.826 
	 183.856 248.303 185.46 246.733 188.668 246.21 190.272 245.686 
	 191.475 245.164 193.08 243.07 194.283 241.5 197.491 239.931 
	 200.699 238.361 203.506 236.791 206.313 235.744 209.121 234.698 
	 212.329 233.651 215.136 232.605 217.943 231.558 220.751 230.512 
	 223.157 228.942 225.964 227.372 228.771 225.802 231.177 224.232 
	 233.985 222.139 236.792 220.57 237.995 219.523 239.198 217.43 
	 238.797 213.244 237.995 209.058 237.193 204.871 236.391 200.685 
	 235.589 195.976 234.386 191.79 233.584 187.604 232.381 184.464 
	 231.177 183.94 230.375 184.464 229.172 184.987 227.969 185.51 
	 227.167 186.557 225.964 187.604 225.162 188.65 224.36 189.173 
	 223.157 190.743 222.756 191.79 221.953 192.836 221.152 194.406 
	 220.751 195.453 220.35 196.499 219.948 198.069 219.948 199.115 
	 220.35 200.685 220.751 201.732 220.751 202.778 221.553 203.825 
	 221.953 204.871 222.355 205.918 223.157 207.488 223.959 209.581 
	 222.756 210.104 221.953 208.534 221.152 206.441 220.35 204.871 
	 219.547 203.302 218.746 201.732 218.344 200.162 217.542 198.592 
	 217.141 197.022 217.141 195.976 217.542 194.929 217.943 194.406 
	 218.746 193.359 219.547 191.79 220.35 190.743 221.152 189.697 
	 222.355 188.65 223.157 187.08 224.36 186.033 225.563 184.987 
	 227.167 183.94 228.37 183.417 229.573 182.894 230.776 182.371 
	 232.381 182.371 233.584 185.51 234.386 189.173 235.188 192.836 
	 236.391 196.499 237.193 200.685 237.995 204.348 238.396 208.011 
	 239.198 211.674 239.599 215.337 240 217.43 240 219.523 
	 239.599 221.093 238.797 222.139 235.589 223.186 233.584 225.279 
	 231.177 227.372 228.771 229.465 225.964 230.512 223.558 232.082 
	 220.751 233.128 217.943 234.698 215.136 235.744 211.928 236.791 
	 209.121 237.837 206.313 238.884 203.506 239.931 201.1 240.977 
	 198.694 242.024 196.288 243.07 193.881 244.64 192.678 247.257 
	 191.074 248.303 188.668 248.303 186.262 249.35 186.663 249.873 
	 187.064 250.396 187.465 250.919 187.866 251.966 187.465 254.059 
	 187.064 255.105 186.262 256.152 185.861 256.675 185.059 257.722 
	 184.257 258.768 183.455 259.815 183.054 260.338 182.252 260.338 
	 181.45 260.338 180.647 259.815 179.845 258.768 179.444 259.292 
	 178.642 259.292 178.241 259.815 177.439 259.815 177.038 259.292 
	 176.637 259.292 176.236 258.245 175.434 257.199 174.632 257.199 
	 173.83 257.199 173.429 257.199 173.028 256.675 172.627 256.152 
	 172.226 255.629 172.226 254.582 172.627 255.105 172.627 255.105 
	 172.627 255.105 172.627 255.105 "
	 style="stroke:none; fill:#c29561; fill-opacity:100%"></polygon>
	<polyline points="175.415 240.067 175.415 241.694 175.415 242.778 
	 174.048 247.118 172.226 252.541"
	 style=" stroke:#000000; stroke-width:1;"></polyline>
	<polyline points="179.801 258.779 179.801 257.692 180.598 251.714 
	 180.598 248.454 179.801 246.824"
	 style=" stroke:#000000; stroke-width:1;"></polyline>
	<polyline points="175.415 257.22 175.415 256.135 177.807 246.372 
	 177.807 244.745"
	 style=" stroke:#000000; stroke-width:1;"></polyline>
	<polyline points="186.977 248.903 185.154 249.455 184.243 250.008 
	 184.243 251.664 184.243 255.53 184.243 256.635 183.787 257.739"
	 style=" stroke:#000000; stroke-width:1;"></polyline>
	<polyline points="187.375 250.462 186.445 250.462 185.515 251.761 
	 184.585 253.061"
	 style=" stroke:#000000; stroke-width:1;"></polyline>
	<polyline points="184.585 250.462 183.987 250.462 183.389 249.423"
	 style=" stroke:#000000; stroke-width:1;"></polyline>
	<polyline points="184.983 252.541 185.515 252.541 186.046 253.581 
	 186.578 253.581"
	 style=" stroke:#000000; stroke-width:1;"></polyline>
	<polyline points="180.598 257.739 181.129 258.519 182.193 259.298"
	 style=" stroke:#000000; stroke-width:1;"></polyline>
	<polyline points="176.212 257.739 176.711 258.519 177.708 259.298 
	 178.206 259.298"
	 style=" stroke:#000000; stroke-width:1;"></polyline>
	<polyline points="172.226 254.621 173.223 255.401 174.219 256.18"
	 style=" stroke:#000000; stroke-width:1;"></polyline>
	<polyline points="173.422 256.18 174.618 256.18"
	 style=" stroke:#000000; stroke-width:1;"></polyline>
	<polyline points="180.199 256.7 179.402 258.259"
	 style=" stroke:#000000; stroke-width:1;"></polyline>
	<polyline points="179.402 239.027 189.369 235.908"
	 style=" stroke:#000000; stroke-width:1;"></polyline>
	<polyline points="223.654 209.399 225.781 209.399 228.332 209.399 
	 230.033 210.439"
	 style=" stroke:#000000; stroke-width:1;"></polyline>
	<polygon points="186.977 265.016 186.977 267.986 187.907 268.58 
	 189.302 268.58 189.767 269.175 189.767 266.204 189.302 265.61 
	 187.907 265.61 186.977 265.016 186.977 265.016 186.977 265.016 186.977 265.016 "
	 style=" stroke:#000000; stroke-width:1; fill:#ababab; fill-opacity:100%"></polygon>
	<polygon points="186.404 254.717 186.827 255.795 187.251 257.412 
	 187.674 259.029 188.098 260.646 188.522 261.724 188.945 263.342 
	 188.945 264.959 189.369 266.576 188.522 266.576 188.098 266.036 
	 187.674 264.959 187.251 263.88 187.251 262.263 186.827 261.724 
	 186.404 260.107 186.404 259.568 185.98 258.49 185.557 257.412 
	 184.709 259.029 184.286 260.646 182.591 261.185 183.015 259.029 
	 183.862 257.412 184.709 255.256 184.286 255.256 184.286 252.022 
	 185.557 253.1 186.404 253.639 186.404 254.717 185.557 257.412 
	 186.404 254.717 186.404 254.717 186.404 254.717 186.404 254.717 "
	 style=" stroke:#000000; stroke-width:1; fill:#ababab; fill-opacity:100%"></polygon>
	<polygon points="133.374 160.584 132.566 161.119 130.546 162.188 
	 129.738 162.188 127.718 163.258 126.91 163.792 125.294 164.861 
	 124.082 165.396 122.87 165.931 121.658 166.465 120.85 166.465 
	 120.042 166.465 118.426 167 116.811 175.554 121.255 175.554 
	 122.87 177.693 131.354 176.089 134.182 174.485 135.798 177.158 
	 137.414 177.158 138.626 177.693 139.838 177.158 140.646 175.019 
	 142.262 175.019 143.474 174.485 143.474 173.416 143.474 172.881 
	 143.07 171.277 142.262 168.069 141.858 167 143.07 166.465 
	 144.686 168.069 145.898 170.208 147.11 170.208 147.11 169.139 
	 146.706 167.535 146.706 165.931 146.302 164.327 145.494 163.792 
	 144.686 163.258 143.474 162.188 141.454 160.584 140.646 160.05 
	 139.434 159.515 139.03 158.981 138.626 158.981 137.818 158.981 
	 136.606 159.515 135.394 160.05 133.374 160.584 133.374 160.584 
	 133.374 160.584 133.374 160.584 "
	 style=" stroke:#000000; stroke-width:1; fill:#ffc283; fill-opacity:100%"></polygon>
	<polygon points="140.285 172.135 139.475 168.896 138.666 167.817 
	 138.261 167.817 138.666 169.436 140.285 174.294 140.285 174.834 
	 139.88 175.913 139.475 176.993 139.071 176.993 138.261 176.993 
	 137.857 176.453 137.857 175.373 137.452 176.453 136.643 176.993 
	 135.834 176.453 135.429 174.834 134.62 173.754 134.215 173.214 
	 133.406 173.214 132.192 173.754 131.383 174.294 129.36 175.373 
	 127.337 175.913 126.123 176.453 124.909 176.453 124.1 176.453 
	 122.886 176.453 122.077 175.913 121.672 175.373 121.267 174.834 
	 120.458 174.294 119.244 174.294 117.221 174.294 116.412 174.294 
	 116.412 176.993 118.84 176.453 120.054 176.993 120.863 177.533 
	 121.267 178.072 121.672 178.612 122.077 179.152 122.481 179.152 
	 123.695 179.152 124.909 178.612 126.123 178.612 128.955 178.072 
	 130.574 177.533 131.787 176.993 133.001 176.453 134.215 175.913 
	 135.025 176.453 135.025 176.993 134.62 178.072 134.215 179.152 
	 133.406 178.612 132.597 178.072 132.192 178.072 131.787 178.612 
	 131.787 179.152 131.787 179.692 133.001 180.771 133.406 181.311 
	 134.215 181.851 134.62 181.851 135.429 181.851 135.834 180.771 
	 137.048 178.612 139.071 178.612 139.88 177.533 140.285 176.993 
	 140.285 176.453 140.285 175.913 140.285 174.834 140.285 175.913 
	 142.308 175.373 142.712 175.373 143.117 174.834 143.522 174.294 
	 143.522 173.214 142.712 174.294 142.308 174.294 141.094 174.294 
	 140.285 172.135 140.285 172.135 140.285 172.135 140.285 172.135 "
	 style="stroke:none; fill:#c29561; fill-opacity:100%"></polygon>
	<polygon points="141.13 164.698 141.557 166.926 143.692 167.483 
	 144.12 168.04 144.12 169.153 143.692 170.267 143.265 171.381 
	 143.692 171.938 144.12 172.495 145.401 171.938 145.828 171.381 
	 146.256 170.824 147.11 170.267 147.11 169.153 146.683 169.71 
	 145.828 169.153 144.974 168.04 144.547 166.926 142.838 165.255 
	 141.13 164.698 141.13 164.698 141.13 164.698 141.13 164.698 "
	 style="stroke:none; fill:#c29561; fill-opacity:100%"></polygon>
	<polyline points="141.528 165.218 140.997 164.048 139.934 161.709 
	 139.934 160.54"
	 style=" stroke:#000000; stroke-width:1;"></polyline>
	<polyline points="137.94 168.337 137.94 167.037 137.94 165.738"
	 style=" stroke:#000000; stroke-width:1;"></polyline>
	<polyline points="137.94 175.613 137.94 175.613 137.462 174.47 
	 136.026 171.039 135.548 169.896"
	 style=" stroke:#000000; stroke-width:1;"></polyline>
	<polyline points="134.352 176.133 133.754 175.44 133.156 174.054"
	 style=" stroke:#000000; stroke-width:1;"></polyline>
	<polyline points="137.94 176.133 136.744 178.732"
	 style=" stroke:#000000; stroke-width:1;"></polyline>
	<polyline points="134.352 180.811 135.149 180.811"
	 style=" stroke:#000000; stroke-width:1;"></polyline>
	<polyline points="133.555 178.732 133.555 179.512 133.555 180.291"
	 style=" stroke:#000000; stroke-width:1;"></polyline>
	<polyline points="134.751 176.653 134.751 178.212"
	 style=" stroke:#000000; stroke-width:1;"></polyline>
	<polyline points="134.751 176.133 135.548 176.133"
	 style=" stroke:#000000; stroke-width:1;"></polyline>
	<polyline points="143.123 173.534 142.525 175.093 141.927 175.093"
	 style=" stroke:#000000; stroke-width:1;"></polyline>
	<polyline points="139.535 173.015 140.731 174.054 140.731 174.054"
	 style=" stroke:#000000; stroke-width:1;"></polyline>
	<polyline points="139.933 176.133 139.933 177.692 138.737 177.692"
	 style=" stroke:#000000; stroke-width:1;"></polyline>
	<polyline points="139.933 175.613 139.136 176.653"
	 style=" stroke:#000000; stroke-width:1;"></polyline>
	<polyline points="147.11 169.376 146.512 170.156 145.914 170.936"
	 style=" stroke:#000000; stroke-width:1;"></polyline>
	<polyline points="146.312 164.698 145.714 165.478 145.116 166.257"
	 style=" stroke:#000000; stroke-width:1;"></polyline>
	<polyline points="144.319 168.856 144.319 169.636 145.116 170.416"
	 style=" stroke:#000000; stroke-width:1;"></polyline>
	<polyline points="143.521 167.817 144.319 166.777"
	 style=" stroke:#000000; stroke-width:1;"></polyline>
	<polyline points="136.345 162.099 129.17 166.777"
	 style=" stroke:#000000; stroke-width:1;"></polyline>
	<polyline points="133.953 176.133 133.953 174.574"
	 style=" stroke:#000000; stroke-width:1;"></polyline>
	<polygon points="55.8139 98.6856 57.1429 98.6856 58.0287 98.6856 
	 58.9147 98.6856 59.3574 98.6856 59.8004 99.3353 59.8004 99.3353 
	 59.3574 100.635 59.3574 101.285 58.9147 101.285 58.4717 101.285 
	 58.0287 101.285 57.5856 99.9851 56.6999 99.3353 55.8139 98.6856 
	 55.8139 98.6856 55.8139 98.6856 55.8139 98.6856 "
	 style=" stroke:#000000; stroke-width:1; fill:#ffffff; fill-opacity:100%"></polygon>
	<polygon points="59.2691 98.6856 59.8007 99.3094 59.8007 99.9331 
	 59.2691 101.18 58.7376 101.804 58.206 101.18 58.7376 100.557 
	 58.7376 99.9331 59.2691 98.6856 59.2691 98.6856 59.2691 98.6856 59.2691 98.6856 "
	 style=" stroke:#000000; stroke-width:1; fill:#00ffff; fill-opacity:100%"></polygon>
	<polygon points="59.8004 99.7253 59.0032 100.505 59.0032 101.285 
	 59.0032 100.505 59.0032 99.7253 59.8004 99.7253 59.8004 99.7253 
	 59.8004 99.7253 59.8004 99.7253 "
	 style=" stroke:#000000; stroke-width:1; fill:#000000; fill-opacity:100%"></polygon>
	<polygon points="56.8391 117.606 57.2949 118.178 57.7502 118.749 
	 58.206 119.321 57.7502 120.465 57.7502 121.036 57.2949 120.465 
	 56.3835 119.893 55.9277 119.321 55.0166 117.606 55.0166 116.462 
	 55.0166 116.462 55.0166 115.319 55.4724 116.462 55.4724 116.462 
	 56.3835 117.034 56.8391 117.606 56.8391 117.606 56.8391 117.606 56.8391 117.606 "
	 style=" stroke:#000000; stroke-width:1; fill:#ff0016; fill-opacity:100%"></polygon>
	<polyline points="59.402 98.1657 58.9238 98.1657 57.9669 98.1657 
	 57.0101 98.1657"
	 style=" stroke:#000000; stroke-width:1;"></polyline>
	<polyline points="59.0035 102.844 59.0035 102.844 58.5049 102.151 
	 57.5082 101.458 57.0101 100.765"
	 style=" stroke:#000000; stroke-width:1;"></polyline>
	<polyline points="59.8004 101.804 59.8004 103.017 59.0032 103.624 
	 59.0032 105.443"
	 style=" stroke:#000000; stroke-width:1;"></polyline>
	<polyline points="58.206 107.002 58.206 107.587 58.206 108.172 
	 58.206 109.341 58.206 109.926 58.206 110.511 58.7376 111.095 
	 59.2691 111.68 59.8007 111.68"
	 style=" stroke:#000000; stroke-width:1;"></polyline>
	<polyline points="42.6579 120.516 43.5276 122.232 43.9625 123.375 
	 44.8323 123.947 46.1372 125.09 47.4419 126.234"
	 style=" stroke:#000000; stroke-width:1;"></polyline>
	<polyline points="41.8604 113.759 41.8604 115.007 41.8604 116.878"
	 style=" stroke:#000000; stroke-width:1;"></polyline>
	<polygon points="47.4382 304 47.4382 301.33 47.4382 299.195 
	 47.4382 296.526 47.8404 294.391 47.8404 291.722 47.8404 289.053 
	 47.8404 286.917 47.8404 284.248 3.19292 289.053 2.79069 293.323 
	 2.79069 296.526 2.79069 299.729 2.79069 304 47.4382 304 
	 47.4382 304 47.4382 304 47.4382 304 "
	 style=" stroke:#000000; stroke-width:1; fill:#0000ff; fill-opacity:100%"></polygon>
	<polygon points="19.1378 173.705 34.7459 244.606 35.9465 291.525 
	 37.9476 291.004 40.3488 289.961 42.3499 289.44 44.3512 288.397 
	 46.7522 287.355 47.9528 286.833 48.7532 286.312 49.1537 285.269 
	 49.5537 283.705 49.9539 281.62 49.9539 279.013 50.3541 275.364 
	 50.3541 270.151 50.3541 267.544 50.3541 263.895 50.3541 260.767 
	 49.9539 257.639 49.9539 253.99 49.9539 250.862 49.5537 248.255 
	 49.5537 245.648 49.5537 242.521 49.1537 240.435 49.1537 237.829 
	 49.1537 235.743 49.1537 233.658 49.5537 231.051 49.5537 228.445 
	 49.9539 225.838 50.3541 223.231 50.7545 220.625 51.1545 218.018 
	 51.9549 215.933 52.3554 213.326 52.7553 210.719 53.1555 208.634 
	 53.556 206.028 53.9562 203.421 54.3562 200.814 54.3562 198.208 
	 54.3562 195.08 54.3562 191.952 54.3562 188.824 53.9562 185.696 
	 53.556 182.047 55.1568 178.397 89.1746 183.611 116.389 185.696 
	 118.39 181.004 118.39 178.919 119.19 175.791 119.991 171.62 
	 120.791 169.535 121.191 167.45 121.592 165.886 121.191 167.45 
	 121.592 166.928 122.392 166.928 121.592 165.886 116.789 164.843 
	 111.987 164.322 107.184 163.8 101.981 162.236 97.1788 161.194 
	 92.3763 160.673 87.974 160.151 84.3719 159.109 81.1702 159.109 
	 77.1684 158.066 73.5662 157.023 70.3646 155.98 67.1629 154.417 
	 63.9612 152.853 60.3596 150.767 55.957 148.161 53.1555 145.554 
	 50.7545 143.469 48.7532 141.905 45.952 140.862 41.9497 138.777 
	 40.7491 137.213 38.348 135.127 31.5442 124.701 26.3415 118.966 
	 23.9403 115.839 18.7375 124.18 19.1378 173.705 19.1378 173.705 
	 19.1378 173.705 19.1378 173.705 "
	 style=" stroke:#000000; stroke-width:1; fill:#00ffff; fill-opacity:100%"></polygon>
	<polygon points="14.0006 125.223 12.4005 129.394 10.8005 133.564 
	 9.20039 137.213 8.40034 140.863 7.2003 145.033 6.40028 148.161 
	 5.60023 151.81 4.8002 154.938 4.40019 158.587 3.60016 161.715 
	 3.20013 165.364 2.80011 168.491 2.00008 172.141 2.00008 175.79 
	 1.60005 179.439 1.20004 183.088 1.20004 186.216 1.20004 189.865 
	 1.20004 193.514 1.20004 197.685 1.20004 201.334 1.60005 206.026 
	 1.60005 211.238 2.00008 214.367 2.40009 219.058 2.40009 223.228 
	 2.80011 227.92 2.80011 232.091 3.20013 235.74 3.20013 239.91 
	 2.80011 244.081 2.00008 248.772 1.60005 252.421 1.60005 256.592 
	 1.20004 260.762 0.800038 264.933 0.800038 268.582 0.800038 272.752 
	 0 278.487 0 282.136 0 283.7 0 285.785 
	 0.400005 287.349 1.20004 288.391 1.60005 289.434 2.80011 290.476 
	 3.60016 290.998 5.20021 292.041 6.40028 292.562 7.60032 293.083 
	 9.20039 293.083 10.4004 293.604 11.6005 293.604 14.0006 293.604 
	 16.4007 293.604 18.4008 293.604 20.8009 293.604 22.8009 293.083 
	 25.2011 293.083 27.2012 292.562 29.6012 292.562 31.6013 292.041 
	 34.0013 291.519 36.0016 290.998 38.0017 289.955 38.0017 286.827 
	 37.6015 283.7 37.6015 281.093 37.6015 278.487 37.6015 275.88 
	 38.0017 272.752 38.4017 270.146 38.8016 267.018 39.2016 263.89 
	 39.6018 260.241 40.0018 256.07 40.4017 252.421 40.4017 248.251 
	 40.8017 243.559 40.4017 236.782 40.8017 232.091 41.6019 228.442 
	 43.2017 223.75 44.8018 220.101 45.602 216.452 46.8019 212.281 
	 47.6021 206.026 45.2018 211.238 44.8018 208.111 44.8018 205.504 
	 45.2018 202.376 46.002 199.77 46.8019 197.685 47.2021 195.599 
	 47.6021 193.514 48.002 189.865 48.8022 183.088 48.8022 179.439 
	 51.6022 180.481 53.6022 181.003 57.6024 181.003 61.6027 182.567 
	 63.6028 183.088 65.6029 183.61 68.0029 184.131 70.4029 184.131 
	 72.8032 184.652 76.8033 185.173 81.2034 185.695 86.0037 186.216 
	 91.204 186.737 97.2042 186.737 102.805 187.259 108.805 187.259 
	 117.205 186.737 118.005 183.61 118.405 179.96 116.405 179.439 
	 110.405 179.439 104.404 179.439 98.8043 179.96 92.8041 179.439 
	 87.6038 177.875 81.6034 176.311 76.0034 174.226 70.8031 173.183 
	 66.0028 172.141 60.0026 171.098 57.2027 170.577 54.0025 169.534 
	 51.2022 167.97 48.002 166.406 45.602 164.842 43.2017 163.8 
	 40.4017 162.236 37.6015 160.151 34.0013 157.544 31.6013 155.459 
	 30.0012 153.374 29.2013 151.288 28.4013 148.682 27.6012 146.076 
	 26.401 141.905 25.2011 138.256 24.0011 134.086 22.8009 130.958 
	 22.0009 128.351 21.6009 125.745 22.0009 123.138 23.2009 121.053 
	 25.2011 121.053 27.2012 121.574 26.8012 120.531 27.2012 121.574 
	 30.4014 125.223 32.4012 127.309 34.0013 129.394 35.6014 132.001 
	 37.2015 134.086 38.4017 135.128 39.6018 136.692 39.6018 135.128 
	 39.6018 131.479 40.4017 128.872 38.4017 126.787 36.4016 124.181 
	 34.0013 121.574 31.6013 119.489 29.2013 117.404 26.8012 115.84 
	 24.0011 115.319 16.8007 118.968 14.0006 125.223 14.0006 125.223 
	 14.0006 125.223 14.0006 125.223 "
	 style=" stroke:#000000; stroke-width:1; fill:#0000ff; fill-opacity:100%"></polygon>
	<polyline points="42.1351 138.208 38.4855 136.63 35.6464 137.156 
	 33.2135 138.208 30.3746 139.26 27.9414 143.996 27.1304 149.783 
	 26.3191 153.992 25.9135 159.253 26.7247 163.988 28.7526 168.723 
	 31.1856 171.88 33.2135 173.459 36.0521 175.037 38.8909 175.563 
	 42.1351 176.615 46.1909 178.719 49.4351 179.772"
	 style=" stroke:#000000; stroke-width:1;"></polyline>
	<polyline points="7.17607 168.337 6.67774 176.259 5.68106 184.181 
	 5.18273 192.632 5.68106 201.083"
	 style=" stroke:#000000; stroke-width:1;"></polyline>
	<polyline points="37.0763 174.574 37.0763 174.574 36.6618 175.124 
	 36.2471 175.124 36.2471 175.124 35.8324 175.124 35.4179 175.675 
	 35.4179 175.675 35.0032 176.225 34.5885 176.225 34.5885 176.225 
	 34.174 176.775 33.7595 176.775 33.7595 177.326 33.3448 177.326 
	 33.3448 177.326 32.9301 177.326 32.9301 177.326 32.5154 177.876 
	 32.5154 177.876 32.1011 177.876 32.1011 178.426 31.6864 178.426 
	 31.6864 178.977 31.2717 178.977 31.2717 178.977 30.857 179.527 
	 30.857 179.527 30.857 180.077 30.4425 180.077 30.4425 180.628 
	 30.028 180.628 30.028 181.178 29.6133 181.178 29.6133 181.178 
	 29.1986 181.729 29.1986 181.729 28.7841 182.279 28.7841 182.279 
	 28.7841 182.829 28.3694 182.829 28.3694 182.829 27.9546 183.38 
	 27.9546 183.38 27.5402 183.38 27.5402 183.38 27.1257 183.93 
	 27.1257 183.93 26.711 183.93"
	 style=" stroke:#000000; stroke-width:1;"></polyline>
	<polyline points="41.4617 176.133 40.6376 178.811 39.4018 181.489 
	 37.754 183.631 36.1062 186.308 34.0463 188.45 32.3985 190.593 
	 30.7507 192.199 29.1029 193.806"
	 style=" stroke:#000000; stroke-width:1;"></polyline>
	<polyline points="45.4485 187.049 44.2152 190.772 42.9818 193.963 
	 41.3372 196.622 39.6928 199.282 38.0482 201.941 35.9925 204.069 
	 34.3479 206.728 32.2923 209.919"
	 style=" stroke:#000000; stroke-width:1;"></polyline>
	<polyline points="71.362 173.015 71.362 175.184 71.805 176.811 
	 72.248 180.608 73.5768 183.32 75.3486 185.489"
	 style=" stroke:#000000; stroke-width:1;"></polyline>
	<polyline points="76.5448 156.901 75.0497 160.303 74.5514 163.139"
	 style=" stroke:#000000; stroke-width:1;"></polyline>
	<polyline points="99.2692 183.93 97.1095 185.177 95.382 186.425 
	 94.0864 187.048"
	 style=" stroke:#000000; stroke-width:1;"></polyline>
	<polyline points="19.9517 232.287 22.7845 232.812 25.6178 233.338 
	 30.0696 233.338 34.5213 232.812 38.9731 232.287 43.0204 231.236 
	 44.2343 230.71 44.6392 233.863 45.0436 240.694 45.0436 248.05 
	 45.0436 254.88 45.0436 262.236 45.4485 267.491 45.0436 270.643 
	 43.4248 273.796 40.5919 276.423 35.7355 278.524 30.0696 279.05 
	 23.1893 277.474 20.3564 275.372 19.1423 273.796 18.7375 270.643 
	 19.1423 263.812 18.7375 255.931 18.7375 246.473 18.7375 238.592 
	 19.1423 233.338 19.9517 232.287 19.9517 232.287 19.9517 232.287"
	 style=" stroke:#000000; stroke-width:1;"></polyline>
	<polyline points="26.0729 247.343 25.1163 256.44 26.0729 260.72 
	 27.5082 265.536"
	 style=" stroke:#000000; stroke-width:1;"></polyline>
	<polygon points="66.1684 76.4187 66.971 78.5154 67.3725 80.6122 
	 67.7739 82.1847 67.3725 83.2331 66.971 84.8057 66.5698 85.3298 
	 66.1684 86.3782 64.9643 86.9024 64.1614 87.4267 64.1614 85.3298 
	 64.1614 84.2815 64.1614 81.6606 62.9574 81.1364 61.3518 81.1364 
	 59.7463 81.6606 58.1408 82.7089 58.5423 84.2815 58.5423 85.3298 
	 58.9437 85.854 59.7463 85.854 60.5492 85.3298 60.5492 86.3782 
	 59.7463 86.9024 59.3449 87.4267 58.9437 87.9507 58.1408 87.9507 
	 57.3382 87.9507 56.5353 87.4267 55.7327 86.9024 54.5284 88.4749 
	 52.9228 90.0474 51.3171 91.6201 50.113 93.1929 49.3104 94.2409 
	 48.9089 95.2896 48.1061 96.8621 47.7049 97.9104 47.7049 100.007 
	 48.1061 101.58 48.5075 102.628 48.9089 103.152 50.5145 104.201 
	 50.113 105.249 49.3104 106.298 48.1061 107.346 47.3034 107.346 
	 45.6979 107.346 44.4938 108.394 43.691 109.442 42.8883 111.015 
	 42.0855 112.064 41.2828 114.16 42.0855 115.733 42.4869 117.305 
	 43.2895 118.354 44.0924 118.878 43.2895 120.975 41.6843 120.975 
	 40.0788 120.975 38.8744 120.451 38.4732 122.023 37.2689 123.071 
	 36.4663 124.12 35.6634 124.12 34.4591 124.644 33.255 124.12 
	 32.4521 124.12 31.6495 123.595 30.8466 123.071 30.044 122.023 
	 28.8399 121.499 27.6356 121.499 25.2275 120.451 24.0234 120.451 
	 22.819 119.926 21.2136 120.451 19.6081 120.975 18.0025 122.023 
	 17.1998 123.071 16.7984 124.644 15.9956 125.692 14.7915 126.217 
	 13.9887 127.265 13.186 128.313 12.3832 128.313 10.7777 127.789 
	 9.57352 126.741 9.17213 125.692 8.77076 124.12 8.77076 122.547 
	 8.77076 120.975 8.77076 118.878 9.17213 116.781 9.97491 114.16 
	 10.7777 113.112 11.9818 112.064 13.186 110.491 14.3901 109.442 
	 15.1929 108.394 15.9956 107.346 16.7984 106.822 17.1998 105.249 
	 17.6012 103.676 18.0025 102.104 18.0025 100.531 17.6012 98.9588 
	 17.1998 97.9104 16.7984 96.3377 16.7984 95.2896 16.7984 93.7169 
	 17.1998 92.6685 17.1998 91.0961 18.0025 89.5235 18.404 90.5717 
	 19.2067 91.0961 20.0094 91.6201 20.4109 92.1441 21.2136 92.1441 
	 22.0164 92.1441 22.819 91.6201 22.819 90.5717 23.2205 89.5235 
	 23.2205 87.9507 23.6219 86.3782 23.6219 84.8057 23.6219 82.7089 
	 24.0234 81.6606 24.0234 80.6122 24.0234 79.5638 24.4246 79.0396 
	 24.4246 77.9912 24.826 76.9428 24.826 75.8945 25.2275 74.3219 
	 25.2275 73.2735 25.6289 72.2252 26.0301 71.1768 26.4315 70.1284 
	 26.833 69.08 27.2344 68.0316 28.4385 66.4591 66.1684 76.4187 
	 66.1684 76.4187 66.1684 76.4187 66.1684 76.4187 "
	 style=" stroke:#000000; stroke-width:1; fill:#442302; fill-opacity:100%"></polygon>
	<polygon points="37.9744 101.753 37.1691 100.177 36.7664 98.0753 
	 36.7664 94.9227 36.7664 90.7192 36.3637 88.6174 36.3637 87.0412 
	 35.9608 85.4649 35.1557 83.8886 34.3501 82.8378 33.5448 81.2615 
	 32.7392 80.2106 32.3365 79.6852 31.5312 78.6343 31.1285 78.1089 
	 30.3232 77.058 29.9205 76.0072 29.5176 74.9563 29.1149 74.4309 
	 28.7125 73.3801 28.3096 72.3292 28.3096 71.2783 27.9069 70.2274 
	 27.9069 69.1766 27.9069 68.6512 27.9069 67.6003 28.3096 66.5494 
	 28.7125 65.4986 29.1149 65.4986 29.9205 64.4477 29.9205 63.9223 
	 30.7259 63.3969 30.7259 63.3969 31.5312 62.346 31.9341 62.346 
	 32.7392 61.8206 32.7392 61.2951 33.5448 60.7697 33.9475 60.7697 
	 34.7528 60.2443 34.7528 60.2443 35.5581 59.7188 35.9608 59.1934 
	 36.7664 59.1934 37.1691 59.1934 37.9744 58.668 38.3773 58.668 
	 38.7797 58.668 39.1824 58.668 39.988 58.1426 40.3907 58.1426 
	 41.196 58.1426 41.5989 58.1426 42.0013 58.1426 42.8069 58.1426 
	 43.2093 58.1426 43.6123 58.1426 44.4176 58.1426 44.8203 58.1426 
	 45.6256 58.668 46.0285 58.668 46.8339 58.668 47.2365 58.668 
	 48.0419 59.1934 48.4445 59.1934 49.2501 59.7188 49.6525 59.7188 
	 50.0555 59.7188 50.4581 60.2443 51.2635 60.2443 51.6661 60.7697 
	 52.4717 60.7697 52.8741 61.2951 53.6797 61.8206 53.6797 61.8206 
	 54.4851 62.346 54.8877 62.346 55.6933 62.8714 56.0957 63.3969 
	 56.4987 63.9223 56.9013 63.9223 57.7067 64.4477 57.7067 64.9732 
	 58.512 65.4986 58.9149 66.024 59.3173 66.5494 59.7203 66.5494 
	 60.1229 67.0748 60.9283 68.1257 60.9283 68.1257 61.7336 69.1766 
	 62.5389 69.702 63.3445 70.7529 63.7472 71.2783 64.5525 72.3292 
	 64.9552 73.3801 65.7605 74.9563 66.1635 76.5326 66.9686 78.6343 
	 67.3715 79.6852 67.7741 81.2615 67.7741 82.8378 67.3715 84.414 
	 67.3715 83.3632 67.3715 82.3124 66.9686 81.7869 66.5661 80.7361 
	 66.1635 80.2106 65.7605 79.6852 64.9552 79.1598 64.1499 78.6343 
	 63.3445 78.6343 62.9419 78.6343 62.1365 78.6343 61.3309 78.6343 
	 61.3309 78.6343 60.5256 78.6343 60.1229 79.1598 59.7203 79.1598 
	 58.9149 79.6852 58.9149 79.6852 58.1093 80.7361 58.1093 80.7361 
	 57.304 81.7869 57.304 82.3124 57.7067 83.3632 58.1093 83.8886 
	 58.512 84.9395 58.512 84.9395 58.512 85.4649 58.9149 85.9904 
	 59.7203 85.9904 60.5256 85.9904 60.5256 85.4649 60.1229 86.5157 
	 59.7203 86.5157 58.9149 87.0412 58.9149 87.0412 58.1093 87.0412 
	 58.1093 87.0412 57.304 87.0412 57.304 87.0412 56.4987 86.5157 
	 56.0957 85.9904 55.6933 85.4649 54.8877 86.5157 54.4851 87.5667 
	 53.6797 88.6174 52.8741 89.1429 52.4717 90.1936 51.6661 90.7192 
	 51.2635 91.2446 50.4581 91.7702 50.0555 92.2955 49.6525 92.8208 
	 48.8472 92.8208 48.8472 93.3465 48.0419 93.3465 47.6392 93.8718 
	 47.2365 94.9227 46.8339 95.4481 46.8339 97.0243 46.8339 98.0753 
	 47.2365 99.1259 47.2365 99.1259 47.2365 100.177 47.6392 100.702 
	 47.6392 101.228 47.6392 102.279 48.0419 102.804 48.4445 103.329 
	 48.8472 103.329 49.6525 104.381 50.4581 104.381 50.0555 104.906 
	 49.2501 105.431 48.4445 105.957 48.0419 105.957 47.6392 106.482 
	 47.2365 106.482 46.8339 106.482 46.0285 106.482 45.2229 106.482 
	 45.2229 105.957 44.4176 105.957 44.0149 105.431 43.6123 104.906 
	 43.2093 104.906 42.404 104.381 42.0013 104.381 41.5989 104.381 
	 40.7933 104.381 40.7933 104.906 39.988 104.381 39.5853 104.381 
	 38.7797 103.329 38.3773 102.279 37.9744 101.753 37.9744 101.753 
	 37.9744 101.753 37.9744 101.753 "
	 style=" stroke:#000000; stroke-width:1; fill:#c25e00; fill-opacity:100%"></polygon>
	<polygon points="57.0349 94.094 58.7292 93.4879 59.9999 93.4879 
	 60.8471 94.094 62.1181 94.7005 62.965 95.9137 63.3888 95.9137 
	 63.3888 96.5199 62.965 97.1263 62.5414 97.1263 61.6945 96.5199 
	 60.4238 95.3073 59.5764 95.3073 58.3056 94.7005 57.0349 94.7005 
	 56.6113 94.7005 57.0349 94.094 57.0349 94.094 57.0349 94.094 57.0349 94.094 "
	 style="stroke:none; fill:#c25e00; fill-opacity:100%"></polygon>
	<polyline points="25.9135 88.8098 25.9135 91.0621 25.4914 92.7512 
	 24.2251 93.8779 22.9586 95.0039 21.6923 95.567 20.426 95.0039 
	 19.5818 93.8779 18.7375 92.1881"
	 style=" stroke:#000000; stroke-width:1;"></polyline>
	<polyline points="16.3455 109.601 17.5828 108.512 18.82 107.423 
	 20.4697 106.334 22.5319 105.245 23.7691 104.7 25.4188 103.611 
	 26.6559 102.522 27.4809 100.889 28.3057 98.1657"
	 style=" stroke:#000000; stroke-width:1;"></polyline>
	<polyline points="35.5215 107.522 35.0831 109.688 35.0831 111.312 
	 35.5215 112.936 35.5215 115.102 35.9601 116.726 36.8375 117.809 
	 38.153 119.434 39.4685 120.517"
	 style=" stroke:#000000; stroke-width:1;"></polyline>
	<polyline points="53.0232 84.1317 52.1913 85.229 51.3592 86.875 
	 50.5272 87.9721 49.2794 88.5209 47.6153 89.6183 46.367 90.1667 
	 45.1191 91.2641 44.2872 92.91 43.4551 94.0074"
	 style=" stroke:#000000; stroke-width:1;"></polyline>
	<polyline points="53.0232 78.4141 53.0232 79.5148 53.4551 81.1659 
	 53.8871 82.2666 54.3188 83.9176 55.1827 85.0183 56.0463 86.6693 
	 56.9104 87.2197 58.206 87.7702"
	 style=" stroke:#000000; stroke-width:1;"></polyline>
	<polyline points="57.8073 81.5328 57.8073 82.3125 58.6045 83.0921"
	 style=" stroke:#000000; stroke-width:1;"></polyline>
	<polygon points="137.541 185.395 137.98 185.962 138.419 186.529 
	 139.296 186.529 140.173 185.962 141.05 184.828 141.488 183.694 
	 141.927 182.56 141.927 181.426 141.927 180.858 141.488 180.291 
	 137.541 185.395 137.541 185.395 137.541 185.395 137.541 185.395 "
	 style=" stroke:#000000; stroke-width:1; fill:#ababab; fill-opacity:100%"></polygon>
	<polygon points="138.857 181.473 137.98 182.607 137.541 183.741 
	 137.541 184.875 137.541 185.442 138.419 186.009 138.857 186.009 
	 139.734 185.442 140.611 184.875 141.488 183.174 141.488 182.04 
	 141.927 180.906 141.488 180.339 141.05 179.772 140.173 180.339 
	 139.734 180.339 138.857 181.473 138.857 181.473 138.857 181.473 138.857 181.473 "
	 style=" stroke:#000000; stroke-width:1; fill:#ababab; fill-opacity:100%"></polygon>
	<polygon points="135.947 187.569 135.947 187.569 135.947 188.816 
	 135.947 189.44 136.403 190.064 137.314 190.687 137.769 190.687 
	 138.681 190.687 139.136 190.687 139.136 190.064 139.136 190.064 
	 135.947 187.569 135.947 187.569 135.947 187.569 135.947 187.569 "
	 style=" stroke:#000000; stroke-width:1; fill:#ababab; fill-opacity:100%"></polygon>
	<polygon points="138.189 187.049 137.292 187.049 136.844 187.049 
	 136.395 187.049 135.947 187.655 135.947 188.261 136.395 188.868 
	 136.844 189.475 137.292 190.081 138.189 190.687 138.638 190.687 
	 139.086 190.081 139.086 190.081 139.535 188.868 139.086 188.868 
	 138.638 187.655 138.189 187.049 138.189 187.049 138.189 187.049 138.189 187.049 "
	 style=" stroke:#000000; stroke-width:1; fill:#ababab; fill-opacity:100%"></polygon>
	<polygon points="139.136 192.989 139.136 194.177 139.571 194.771 
	 140.006 195.365 140.876 195.365 141.746 195.365 143.05 194.771 
	 143.486 194.177 143.92 192.989 143.92 192.395 143.92 191.207 
	 139.136 192.989 139.136 192.989 139.136 192.989 139.136 192.989 "
	 style=" stroke:#000000; stroke-width:1; fill:#ababab; fill-opacity:100%"></polygon>
	<polygon points="141.329 190.167 140.033 190.752 139.601 191.337 
	 139.169 192.506 138.737 193.676 139.169 194.261 140.033 194.845 
	 140.897 194.845 141.761 194.845 142.625 194.261 143.489 193.676 
	 143.92 192.506 143.92 191.337 143.92 190.752 143.057 190.167 
	 142.192 190.167 141.329 190.167 141.329 190.167 141.329 190.167 141.329 190.167 "
	 style=" stroke:#000000; stroke-width:1; fill:#ababab; fill-opacity:100%"></polygon>
      </g>
    </g>
  </symbol>
 </defs>
</svg>
