<?xml version="1.0" encoding="UTF-8" standalone="no"?>
<svg xmlns:rdf="http://www.w3.org/1999/02/22-rdf-syntax-ns#" xmlns="http://www.w3.org/2000/svg" version="1.1" xml:space="preserve" height="219" viewBox="-0.184 -0.384 219 219" width="219" enable-background="new -0.184 -0.384 239 162" y="0px" x="0px" xmlns:cc="http://creativecommons.org/ns#" xmlns:dc="http://purl.org/dc/elements/1.1/"><metadata><rdf:RDF><cc:Work rdf:about=""><dc:format>image/svg+xml</dc:format><dc:type rdf:resource="http://purl.org/dc/dcmitype/StillImage"/><dc:title/></cc:Work></rdf:RDF></metadata><defs><filter id="filter4359-6" color-interpolation-filters="sRGB"><feGaussianBlur stdDeviation="1.7761565"/></filter><filter id="filter3838"><feGaussianBlur stdDeviation="0.99918653"/></filter></defs><path d="m-185.5,122.6c0.7808,5.58,5.344,7.094,5.344,7.094l38.81-0.0312-6.188,0.0625s-3.113,3.04-1.844,4.375c0,0,0.7965,2.48,2.188,3.875l18.12,14.88s10.08,8.84,11.53,24.06l7.281-2.031,2.094,4.219-8.406,3.281,0.125,0.2188-0.125,0.0625,6.594,12.12c-0.1194,0.2702-0.4679,1.135-0.5625,2.125-0.0152,0.1591-0.0345,0.3115-0.0312,0.4688-0.003,0.0529,0.001,0.1035,0,0.1562,0.007,0.1038,0.0136,0.2125,0.0312,0.3125,0.0209,0.3105,0.0573,0.6135,0.1875,0.875,0.694,1.393,22.91,50.93,46.81,50.75,0,0,18.56,1.688,26.69-36.41,0,0,3.715-11.53,6.625-20.47,1.429,4.456,5.621,16.9,10.56,24.31l1.5,48.83,14.56-2.469,0.2188-120.4v-23.25l-19.19,4.906s-22.22,2.462-28.94,12.75c-1.074,1.641-2.21,4.174-3.344,7.312-5.784,16.04-11.74,47.31-11.94,50.5-0.006,0.1033-0.0374,0.2696-0.0312,0.3125l-1.438,6.5-1.281-1.531-1.344,0.125-9.188-15.78-3.25-1.469-2.812-12.94-6.688,2.969-0.9375-1.906,3.812-1.219s-5.128-24.3,12-34.75c0,0,3.702-7.596-8.844-4.344,0,0-14.31,15.24-17.38,12.16l-16.44-10.75s1.048-1.168-0.8125-2.562c0,0-0.394-0.1004-0.9688-0.2188l66.5-0.0625c4.372,0.5509,6.021-4.872,6.5-6.969h7.312c0.4-1.088,0.75-1.559,0.75-2.156,0-0.596-0.351-1.094-0.75-1.094-32.76-2.014-146.4,1.322-143.4,3.25zm56.84,7.031,1.469,0c-0.2052,0.114-0.3603,0.2514-0.4688,0.4375zm-10.56,0.0312,4.312,0c-0.4165,0.2646-0.7377,0.6176-0.9062,1.125z" fill-opacity="0.50196081" transform="matrix(0.97727121,0,0,0.97727121,226.04206,-33.60843)" filter="url(#filter4359-6)" stroke-miterlimit="4" fill="#000"/><path fill="#757575" d="m45.67,88.12,0,0s-4.92-1.615-5.31-7.768h133.3s-1.256,8.3-6.529,7.635l-121.5,0.14z"/><path fill="#444445" d="m180.9,80.43c0,0.5834-0.3157,1.053-0.7066,2.117h-145.9c-0.3909-1.063-0.7075-1.533-0.7075-2.117,0-0.5825,0.3157-1.053,0.7075-1.053h145.9c0.3899,0,0.7066,0.471,0.7066,1.053z"/><path fill="#c6b298" d="m69.11,79.99-31.64,0.5277s-4.708,0.2072-2.425-0.473c0-0.000979,12.52-0.1065,34.06-0.05473z"/><g filter="url(#AI_GaussianBlur_2-9)" transform="matrix(0.97727121,0,0,0.97727121,2.4597017,-29.057216)"><polygon points="118.1,169.1,134.6,165.5,136,168.3,121,174.7" fill="#5b5b5b"/></g><path d="m155.1,158.6-1.259-1.508-1.326,0.1339-8.96-15.42-3.175-1.434-2.759-12.66-6.73,3.006-0.7232-1.973,3.735-1.168s-5.008-23.77,11.73-33.98c0,0,3.601-7.407-8.66-4.229,0,0-13.99,14.88-16.98,11.87l-15.9-10.42s1.018-1.137-0.7994-2.5c0,0-5.189-1.381-6.126,0.2277l-1.589-0.6812s-5.452-1.363-6.357,1.361l-3.39-1.14-8.05,0.1s-3.055,2.966-1.815,4.271c0,0,0.7838,2.436,2.143,3.8l17.71,14.48s9.847,8.644,11.26,23.52l7.116-1.986,2.056,4.114-8.207,3.206,6.499,11.96s-1.116,2.357-0.4359,3.72c0.6782,1.361,22.39,49.78,45.75,49.61,0,0,18.14,1.646,26.08-35.58,0,0,8.978-27.99,9.71-29.77,0.7281-1.779,4.815-17.67,4.815-20.4,0,0,4.727-9.486-0.5492-36.12,0,0-21.74,2.398-28.3,12.45-1.05,1.604-2.145,4.097-3.253,7.163-5.835,16.18-11.9,48.31-11.71,49.65l-1.393,6.354z" stroke="#727272" stroke-width="0.9772712" fill="#EEE"/><path d="m191.6,147.6s5.092,16.94,10.99,25.79l1.45,47.71,14.24-2.411,0.2179-117.7v-22.75l-18.75,4.781" stroke="#727272" stroke-width="0.9772712" fill="#757575"/><polygon transform="matrix(0.97727121,0,0,0.97727121,2.4597017,-29.057216)" stroke="#727272" points="114.1,165.1,130.6,161.5,132,164.3,117,170.7" fill="#e2bd98"/><path d="m130.9,131.1,6.73-3.007,2.759,12.66,3.175,1.43,8.96,15.42,1.326-0.1319,1.259,1.504,1.392-6.352c-0.1896-1.336,5.876-33.47,11.71-49.65,1.108-3.068,2.204-5.56,3.253-7.165,6.56-10.05,28.3-12.45,28.3-12.45,5.275,26.64,0.5492,36.12,0.5492,36.12,0,2.726-4.087,18.62-4.815,20.39-0.732,1.777-9.71,29.77-9.71,29.77-7.946,37.23-26.08,35.58-26.08,35.58-23.36,0.174-45.07-48.24-45.75-49.61-0.6792-1.364,0.4359-3.724,0.4359-3.724l-6.499-11.96,8.207-3.207,14.8-5.636z" stroke="#727272" stroke-width="0.9772712" fill="#9b9b9b"/><path d="m155.1,158.6s9.374,13.74,8.788,22.94" stroke="#757575" stroke-width="0.9772712" fill="none"/><circle d="m 136.775,168.14999 c 0,1.30616 -1.05884,2.365 -2.365,2.365 -1.30615,0 -2.365,-1.05884 -2.365,-2.365 0,-1.30615 1.05885,-2.365 2.365,-2.365 1.30616,0 2.365,1.05885 2.365,2.365 z" transform="matrix(0.97727121,0,0,0.97727121,2.4597017,-29.057216)" cy="168.1" cx="134.4" r="2.365" fill="#d8bc32"/><path d="m121.1,121.6s-2.081-14.35-15.99-14.46" stroke="#818182" stroke-width="0.9772712" fill="none"/><path d="m111.3,110.4c-0.3005-0.3005-0.5463-0.9846-0.5463-1.52v-0.9738l-29.64-0.2771c-19.55-0.1828-30.5-0.1178-32.17,0.1911-3.092,0.5717-5.645,0.2038-5.275-0.7602,0.1406-0.3664,0.5175-0.6662,0.8375-0.6662,0.8526,0,5.157-3.691,7.481-6.414,1.812-2.124,1.938-2.416,1.252-2.917-1.174-0.8582-1.268-0.6356,2.957-6.972,1.38-2.069,1.352-2.818-0.1039-2.818-0.9641,0-1.183-0.6721-0.3798-1.168,0.3583-0.2214,0.3408-0.4122-0.0605-0.6602-1.126-0.6961,0.603-2.395,15.81-15.53,7.345-6.347,7.903-6.736,9.039-6.304,1.609,0.6116,8.613,1.617,15.91,2.284,3.488,0.3187,6.895,0.9054,8.295,1.428,2.849,1.064,6.009,3.996,7.528,6.985l1.096,2.156,1.203-2.053c1.553-2.65,4.949-5.687,8.442-7.548,3.21-1.711,7.275-2.797,16.41-4.385l6.553-1.139,2.097,2.002c2.621,2.503,7.372,6.249,15.42,12.16,5.996,4.403,7.846,5.999,7.846,6.767,0,0.1948-0.7445,0.4938-1.654,0.6646l-1.654,0.3104,1.73,1.772c1.618,1.657,2.922,4.292,2.938,5.937,0.004,0.3938,0.9382,2.63,2.076,4.968,1.507,3.096,1.919,4.345,1.516,4.595-0.7689,0.4752,0.4523,2.265,3.767,5.521,1.454,1.428,2.495,2.685,2.312,2.792-0.1824,0.1075-5.146,0.0258-11.03-0.1815s-20.64-0.3883-32.79-0.4022l-22.1-0.0252-0.5155,1.366c-0.451,1.195-0.737,1.366-2.285,1.366-0.9733,0-2.015-0.2458-2.316-0.5463z" fill-rule="evenodd" fill-opacity="0.50196081000000004" transform="matrix(1.2954319,0,0,1.5255069,-33.142082,-85.884417)" filter="url(#filter3838)" stroke-miterlimit="4" fill="#000"/><path d="m30.47,37.61s-1.948,1.48-1.534,2.494c0,0,3.004-0.1968,3.411,1.323,0,0-2.608,2.729-2.623,3.992,0,0-2.406,3.74-2.422,5.001,0,0-2.387,2.227-1.771,4.258,0,0,1.714,0.032,1.469,2.299,0,0-10.64,14.85-13.46,13.1,0,0,3.603,3.118,14.58-0.7155,9.379-2.487,14.91-3.922,24.43-5.527,3.811-0.6392,12.87-1.895,16.73-1.374,0,0,26.75-0.3112,31.77,9.37,0,0-0.2358,1.635,0.0661,3.028,0,0,0.4016,2.154,4.594,1.094,0,0,1.754-0.2639,1.167-4.563-0.0959-0.7048,8.49-3.486,8.97-3.646,7.231-2.462,14.7-4.43,22.24-4.779,9.028-0.4119,17.17,1.751,25.88,4.033,7.529,1.974,15.08,3.966,22.7,5.371,1.526,0.2822,4.881,1.516,6.397,0.5141,0,0-9.941-9.771-8.823-13.28,0,0,0.4301-0.2426,1.067,0.2731,0,0-6.252-13.49-5.366-15.74,0,0-1.465-2.549-1.018-4.055l-6.1-6.4" stroke="#535353" stroke-miterlimit="4" stroke-dasharray="none" stroke-width="0.50000000000000000" fill="#b7b7b7"/><path d="m103.7,26.08s-2.792-15.7-16.49-17.21c0,0-27.39-2.519-27.36-4.789,0,0-31.05,30.72-31.07,32.74,0,0,3.832,1.835,7.258,1.899,0,0,36.6,3.193,39.99,5.779,0,0,21.33,7.203,27.73,25.24,0,0,9.095-23.55,40.46-29.54,0,0,32.03-7.739,34.38-6.94,0,0-0.1891-2.024-3.582-4.609,0,0-29.03-24.75-29-27.28,0,0-11.55,2.365-26.01,6.334,0.00088,0.00104-13.35,5.309-16.31,18.38z" stroke="#535353" stroke-miterlimit="4" stroke-dasharray="none" stroke-width="0.50000000000000000" fill="#eaeaea"/><line stroke-width="1.406" y2="26.08" y1="69.15" stroke="#0c0c0c" x2="103.7" x1="103.8" fill="#adadad"/><path d="m32.34,41.43s63.17,2.967,71.19,28.47" stroke="#5a5a5a" stroke-miterlimit="4" stroke-dasharray="none" stroke-width="0.50000000000000000" fill="none"/><path d="M103.8,69.73c-15.36-24.62-74.08-24.31-74.08-24.31" stroke="#5a5a5a" stroke-miterlimit="4" stroke-dasharray="none" stroke-width="0.50000000000000000" fill="none"/><path d="m27.3,50.42s65.63-2.415,76.16,19.73" stroke="#606060" stroke-miterlimit="4" stroke-dasharray="none" stroke-width="0.50000000000000000" fill="none"/><path d="M27,56.98c67.37-6.17,78.4,16.41,76.6,13.51" stroke="#5a5a5a" stroke-miterlimit="4" stroke-dasharray="none" stroke-width="0.50000000000000000" fill="none"/><path d="m178.9,40.08s-56.33-1.661-74.84,29.29" stroke="#535353" stroke-miterlimit="4" stroke-dasharray="none" stroke-width="0.50000000000000000" fill="none"/><path d="M104.6,69.25c18-24.4,75.3-25.11,75.3-25.11" stroke="#535353" stroke-miterlimit="4" stroke-dasharray="none" stroke-width="0.50000000000000000" fill="none"/><path d="m184.2,59.6s-52.11-18.53-80.64,10.89" stroke="#535353" stroke-miterlimit="4" stroke-dasharray="none" stroke-width="0.50000000000000000" fill="none"/><path d="m193.2,72.54c0.1503-0.1388-0.7216,0.9794-6.896-0.1602-7.625-1.405-15.18-3.397-22.7-5.371-8.705-2.282-16.85-4.445-25.88-4.033-7.542,0.3493-15.01,2.317-22.24,4.779-0.4819,0.1602-9.067,2.94-8.972,3.646,0.5868,4.299-1.169,4.561-1.169,4.561-4.191,1.059-4.592-1.094-4.592-1.094-0.3018-1.394-0.0661-3.028-0.0661-3.028-5.015-9.681-31.77-9.37-31.77-9.37-3.86-0.5202-12.92,0.7338-16.73,1.374-9.519,1.605-15.05,3.039-24.43,5.527-10.98,3.835-14.12,1.898-14.12,1.898s-0.1542-0.8177,1.389-0.7277" stroke="#513a20" stroke-width="2.8115406" fill="none"/><rect transform="matrix(0.94417187,-0.32945329,0.24401316,0.96977192,0,0)" height="42.17" width="53.09" y="53.64" x="101.2" fill="none"/><path d="M58.84,7.626,81.95,11.45,78.43,18.77,52.34,14.63z" fill-rule="evenodd" stroke-miterlimit="4" fill="#d59f0f"/><path d="M51.47,16.05,78.04,20.19,74.52,27.51,44.97,23.06z" fill-rule="evenodd" stroke-miterlimit="4" fill="#820024"/><path d="m43.35,25.3,30.57,4.452-3.52,7.32-33.55-4.771z" fill-rule="evenodd" stroke-miterlimit="4" fill="#5191cd"/><path stroke-linejoin="miter" d="m84.08,12.35c6.265,1.285,12.04,4.409,16.8,11.3" stroke="#5c5c5c" stroke-linecap="butt" stroke-miterlimit="4" stroke-dasharray="none" stroke-width="0.5" fill="none"/><path stroke-linejoin="miter" d="m83.54,15.17c5.128,0.7945,10.39,2.846,16.26,10.68" stroke="#5c5c5c" stroke-linecap="butt" stroke-miterlimit="4" stroke-dasharray="none" stroke-width="0.5" fill="none"/><path stroke-linejoin="miter" d="m82.87,18.49c6.073,0.3776,10.77,3.862,15.34,9.863" stroke="#5c5c5c" stroke-linecap="butt" stroke-miterlimit="4" stroke-dasharray="none" stroke-width="0.5" fill="none"/><path stroke-linejoin="miter" d="m80.88,24.9c1.872,0.4334,4.447,0.8758,7.247,2.899" stroke="#5c5c5c" stroke-linecap="butt" stroke-miterlimit="4" stroke-dasharray="none" stroke-width="0.5" fill="none"/><path stroke-linejoin="miter" d="m80.07,26.79c5.693,0.9785,10.49,4.584,15.2,8.477" stroke="#5c5c5c" stroke-linecap="butt" stroke-miterlimit="4" stroke-dasharray="none" stroke-width="0.5" fill="none"/><path stroke-linejoin="miter" d="m77.15,31.81c2.531-0.01053,5.061,0.7086,7.592,1.881" stroke="#5c5c5c" stroke-linecap="butt" stroke-miterlimit="4" stroke-dasharray="none" stroke-width="0.5" fill="none"/><path stroke-linejoin="miter" d="m76.63,34.19c6.456,0.6803,15.08,4.648,22.37,12.9" stroke="#5c5c5c" stroke-linecap="butt" stroke-miterlimit="4" stroke-dasharray="none" stroke-width="0.5" fill="none"/><path stroke-linejoin="miter" d="m75.54,36.84c9.128,1.55,16.7,6.821,22.93,13.15" stroke="#5c5c5c" stroke-linecap="butt" stroke-miterlimit="4" stroke-dasharray="none" stroke-width="0.5" fill="none"/><path stroke-linejoin="miter" d="m123.9,13.27c-6.265,1.285-12.04,4.409-16.8,11.3" stroke="#4c4c4c" stroke-linecap="butt" stroke-miterlimit="4" stroke-dasharray="none" stroke-width="0.50000000000000000" fill="none"/><path stroke-linejoin="miter" d="m124.4,16.1c-5.128,0.7945-10.39,2.846-16.26,10.68" stroke="#4c4c4c" stroke-linecap="butt" stroke-miterlimit="4" stroke-dasharray="none" stroke-width="0.50000000000000000" fill="none"/><path stroke-linejoin="miter" d="m127.1,25.83c-1.872,0.4334-4.447,0.8758-7.247,2.899" stroke="#4c4c4c" stroke-linecap="butt" stroke-miterlimit="4" stroke-dasharray="none" stroke-width="0.50000000000000000" fill="none"/><path stroke-linejoin="miter" d="m127.9,27.71c-5.693,0.9785-10.49,4.584-15.2,8.477" stroke="#4c4c4c" stroke-linecap="butt" stroke-miterlimit="4" stroke-dasharray="none" stroke-width="0.50000000000000000" fill="none"/><path stroke-linejoin="miter" d="m130.8,32.74c-2.531-0.01053-5.061,0.7086-7.592,1.881" stroke="#4c4c4c" stroke-linecap="butt" stroke-miterlimit="4" stroke-dasharray="none" stroke-width="0.50000000000000000" fill="none"/><path stroke-linejoin="miter" d="m131.3,35.12c-6.456,0.6803-15.08,4.648-22.37,12.9" stroke="#4c4c4c" stroke-linecap="butt" stroke-miterlimit="4" stroke-dasharray="none" stroke-width="0.50000000000000000" fill="none"/><path stroke-linejoin="miter" d="m132.4,37.76c-9.128,1.55-16.7,6.821-22.93,13.15" stroke="#4c4c4c" stroke-linecap="butt" stroke-miterlimit="4" stroke-dasharray="none" stroke-width="0.50000000000000000" fill="none"/><path d="m146.2,5.757-21.6,4.49,3.52,7.32,24.95-5.031z" fill-rule="evenodd" stroke-miterlimit="4" fill="#ee3424"/><path d="m154.3,15.07-25.44,5.248,3.52,7.32,29.17-5.789z" fill-rule="evenodd" stroke-miterlimit="4" fill="#e96d1f"/><path d="m163.4,24.1-30.01,6.228,3.52,7.32,34.49-6.991z" fill-rule="evenodd" stroke-miterlimit="4" fill="#96c93c"/></svg>
