<?xml version="1.0"?>
<?metis version="3.1"?>
<?metisxml version="1.0"?>
<!DOCTYPE svg  PUBLIC "-//W3C//DTD SVG August 1999//EN"
 "http://www.w3.org/Graphics/SVG/svg-19990812.dtd">

<svg width="200" height="200">
 <title>Symbol library: service_software.svg</title>
 <defs>
  <symbol id="oid1" xml:space="preserve" class="METIS_SYMBOL">
   <title>Service Software</title>
    <g>
      <polygon points="0 0 0 304 16.2963 320 
       880 320 880 16 863.704 0 0 0 
       0 0 0 0 0 0 0 0 
       0 0 0 0 0 0 0 0 
       0 0 0 0 0 0 0 0 "
       style=" stroke:#000000; stroke-width:1; fill:#9b9b9b; fill-opacity:100%"       class="TAG:shadow"></polygon>
      <rect x="0" y="0" width="240" height="304"
       style=" stroke:#000000; stroke-width:1; fill:#ffffa5; fill-opacity:100%"       class="TAG:PictureBackground"></rect>
      <rect x="240" y="0" width="624" height="304"
       style=" stroke:#000000; stroke-width:1; fill:#6e6eff; fill-opacity:100%"       class="TAG:canvas"></rect>
      <rect x="245.357" y="25.7143" width="569.522" height="231.429"
       style="stroke:none; fill:#878787; fill-opacity:0%"       class="TAG:grid"></rect>
      <g>
	<desc>METIS_TEXT_GROUP</desc>
	<text  x="256" y="15.8"
	 style=" stroke:#000000; stroke-width:1; font-family:sans-serif; font-size:16;"
	 class="TAG:text">text</text>
	<rect x="256" y="0" width="608" height="304"
	 style=" stroke:#000000; stroke-width:1; fill:#ffffff; fill-opacity:0%"></rect>
      </g>
      <polyline points="864 304 880 320"
       style=" stroke:#000000; stroke-width:1;"></polyline>
      <g>
	<polygon points="121.726 211.765 121.726 211.765 101.02 211.765 
	 92.3922 216.948 137.255 271.366 145.883 266.184 208 172.896 
	 187.294 172.896 178.667 178.079 145.883 237.679 121.726 211.765 
	 121.726 211.765 121.726 211.765 121.726 211.765 121.726 211.765 
	 121.726 211.765 121.726 211.765 121.726 211.765 121.726 211.765 "
	 style=" stroke:#000000; stroke-width:1; fill:#ffff00; fill-opacity:100%"	 class="TAG:text"></polygon>
	<polygon points="113.098 216.948 113.098 216.948 92.3922 216.948 
	 137.255 271.366 199.373 178.079 178.667 178.079 137.255 242.861 
	 113.098 216.948 113.098 216.948 113.098 216.948 113.098 216.948 
	 113.098 216.948 113.098 216.948 113.098 216.948 113.098 216.948 113.098 216.948 "
	 style=" stroke:#000000; stroke-width:1; fill:#ffff6e; fill-opacity:100%"	 class="TAG:text"></polygon>
	<polygon points="61.3334 172.896 61.3334 172.896 40.6274 172.896 
	 32 178.079 94.1177 271.366 102.745 266.184 144.156 211.765 
	 123.451 211.765 114.823 216.948 102.745 237.679 61.3334 172.896 
	 61.3334 172.896 61.3334 172.896 61.3334 172.896 61.3334 172.896 
	 61.3334 172.896 61.3334 172.896 61.3334 172.896 61.3334 172.896 "
	 style=" stroke:#000000; stroke-width:1; fill:#ffff00; fill-opacity:100%"	 class="TAG:text"></polygon>
	<polygon points="104.471 181.966 83.7646 181.966 76.8627 185.852 
	 90.6666 197.514 107.921 202.697 121.725 205.287 132.078 205.287 
	 142.431 202.697 152.784 202.697 161.795 197.366 164.735 192.627 
	 166.588 184.557 166.205 177.227 161.795 170.12 152.784 162.531 
	 144.156 158.644 135.529 156.053 125.177 153.461 114.823 150.87 
	 106.196 146.983 104.471 140.505 107.921 132.731 118.274 127.548 
	 128.628 127.548 140.707 128.843 147.607 132.731 149.334 137.913 
	 159.686 141.8 166.588 137.913 166.588 132.731 163.137 124.957 
	 154.51 118.478 145.883 114.591 132.078 112 121.725 112 
	 107.921 114.591 101.02 118.478 94.1177 124.957 87.2157 132.731 
	 85.4901 140.505 87.2157 148.278 90.6666 156.053 97.1853 161.828 
	 105.813 165.381 116.549 167.714 128.628 170.304 140.707 174.192 
	 144.156 176.784 147.607 181.966 145.883 187.149 142.431 189.74 
	 135.529 192.332 125.177 192.332 114.823 189.74 106.196 185.852 
	 104.471 181.966 104.471 181.966 104.471 181.966 104.471 181.966 
	 104.471 181.966 104.471 181.966 104.471 181.966 104.471 181.966 104.471 181.966 "
	 style=" stroke:#000000; stroke-width:1; fill:#ffff00; fill-opacity:100%"	 class="TAG:text"></polygon>
	<polygon points="97.5686 185.852 76.8627 185.852 76.8627 191.035 
	 83.7646 201.4 101.02 206.583 114.823 209.175 125.177 209.175 
	 135.529 206.583 144.605 204.806 154.894 201.252 157.833 196.515 
	 159.686 188.444 159.304 181.115 154.894 174.006 145.883 166.418 
	 137.255 162.531 128.628 159.939 118.274 157.348 107.921 154.756 
	 99.2941 150.87 97.5686 144.391 101.02 136.618 111.372 131.435 
	 121.725 131.435 133.804 132.731 140.707 136.618 142.431 141.8 
	 159.686 141.8 159.686 136.618 156.235 128.843 147.607 122.365 
	 138.98 118.478 125.177 115.887 114.823 115.887 101.02 118.478 
	 94.1177 123.661 87.2157 128.843 80.3137 136.618 78.5883 144.391 
	 80.3137 152.166 83.7646 159.939 90.2833 165.714 98.9107 169.269 
	 109.647 171.601 121.725 174.192 133.804 178.079 137.255 180.67 
	 140.707 185.852 138.98 191.035 135.529 193.627 128.628 196.217 
	 118.274 196.217 107.921 193.627 99.2941 189.74 97.5686 185.852 
	 97.5686 185.852 97.5686 185.852 97.5686 185.852 97.5686 185.852 
	 97.5686 185.852 97.5686 185.852 97.5686 185.852 97.5686 185.852 "
	 style=" stroke:#000000; stroke-width:1; fill:#ffff6e; fill-opacity:100%"	 class="TAG:text"></polygon>
	<polyline points="97.5686 185.852 97.5686 185.852 104.471 181.966"
	 style=" stroke:#000000; stroke-width:1;"	 class="TAG:text"></polyline>
	<polygon points="52.7059 178.079 52.7059 178.079 32 178.079 
	 94.1177 271.366 135.529 216.948 114.823 216.948 94.1177 242.861 
	 52.7059 178.079 52.7059 178.079 52.7059 178.079 52.7059 178.079 
	 52.7059 178.079 52.7059 178.079 52.7059 178.079 52.7059 178.079 52.7059 178.079 "
	 style=" stroke:#000000; stroke-width:1; fill:#ffff6e; fill-opacity:100%"	 class="TAG:text"></polygon>
	<polyline points="52.7059 178.079 52.7059 178.079 61.3334 172.896"
	 style=" stroke:#000000; stroke-width:1;"	 class="TAG:text"></polyline>
	<polyline points="113.098 216.948 113.098 216.948 121.725 211.765"
	 style=" stroke:#000000; stroke-width:1;"	 class="TAG:text"></polyline>
	<polyline points="135.529 216.948 135.529 216.948 144.156 211.765"
	 style=" stroke:#000000; stroke-width:1;"	 class="TAG:text"></polyline>
	<polyline points="199.371 178.079 199.371 178.079 208 172.896"
	 style=" stroke:#000000; stroke-width:1;"	 class="TAG:text"></polyline>
      </g>
      <g>
	<polygon points="16 58.8245 19.4684 58.1112 22.9358 57.6349 
	 23.3442 60.4907 23.7515 62.87 24.5684 64.7729 25.3842 66.4387 
	 26.4041 67.6286 27.6272 68.5798 29.0557 69.0551 30.4842 69.2932 
	 31.9114 69.0551 33.3399 68.8167 34.3598 68.1036 35.3799 66.914 
	 36.1956 65.7241 36.8071 64.2963 37.0114 62.6318 37.2156 60.9656 
	 37.0114 59.0627 36.6029 57.3966 35.7872 56.2084 34.7671 55.0189 
	 33.7472 54.5425 32.523 53.8293 30.6872 52.8763 28.4441 51.9248 
	 26.4041 50.9736 24.5684 49.7836 22.9358 48.5941 21.9157 47.4045 
	 20.8958 46.2149 19.8757 44.7872 18.4484 41.4561 17.6326 37.4123 
	 17.2242 33.367 17.4285 30.9891 17.6326 28.6098 18.8557 24.0895 
	 19.6726 22.185 20.6915 20.7572 23.1399 18.1411 24.5684 17.1896 
	 26.4041 16.475 28.2399 16.2368 30.0757 16 32.9315 16.2368 
	 35.5829 17.1896 37.8272 18.6161 39.663 20.7572 41.0913 23.6129 
	 42.3144 26.7056 42.9271 30.5125 43.3344 34.7947 39.8671 35.0331 
	 36.1956 35.2711 35.9914 32.892 35.5829 30.9891 34.9714 29.5613 
	 34.3598 28.3714 33.5429 27.4202 32.523 26.7056 31.2999 26.4672 
	 29.8714 26.2303 28.6472 26.4672 27.4242 26.7056 25.5872 28.1334 
	 24.3641 30.0363 24.16 31.2258 23.9557 32.4154 24.3641 34.7947 
	 24.7714 35.7463 25.3842 36.6989 26.1999 37.6505 27.6272 38.602 
	 29.4641 39.5534 31.7072 40.5049 34.1557 41.6945 36.3987 42.646 
	 38.0313 43.8356 39.4587 45.0252 41.7029 47.8809 43.1313 51.4498 
	 44.1514 55.732 44.3544 58.3495 44.3544 60.9656 44.1514 64.7729 
	 43.5386 68.3418 42.3144 71.6725 40.8872 74.5282 39.0514 76.9061 
	 36.6029 78.5722 33.7472 79.7618 30.2799 80 27.2199 79.7618 
	 24.5684 78.5722 22.3242 76.9061 20.2842 74.765 18.6527 71.6725 
	 17.4285 68.1036 16.6127 63.8213 16 58.8245 16 58.8245 
	 16 58.8245 16 58.8245 16 58.8245 16 58.8245 16 58.8245 "
	 style=" stroke:#000000; stroke-width:1; fill:#6e0000; fill-opacity:100%"></polygon>
	<polygon points="50.0252 78.8146 50.0252 47.8811 50.0252 16.9479 
	 75.7407 16.9479 75.7407 22.1823 75.7407 27.4177 66.3531 27.4177 
	 56.9643 27.4177 56.9643 34.3185 56.9643 41.219 65.7401 41.219 
	 74.5159 41.219 74.5159 46.4533 74.5159 51.6876 65.7401 51.6876 
	 56.9643 51.6876 56.9643 60.0159 56.9643 68.3445 76.5568 68.3445 
	 76.5568 73.5788 76.5568 78.8146 63.2916 78.8146 50.0252 78.8146 
	 50.0252 78.8146 50.0252 78.8146 50.0252 78.8146 50.0252 78.8146 
	 50.0252 78.8146 50.0252 78.8146 "
	 style=" stroke:#000000; stroke-width:1; fill:#6e0000; fill-opacity:100%"></polygon>
	<polygon points="82.2277 78.8146 82.2277 47.8811 82.2277 16.9479 
	 96.9054 16.9479 99.5564 17.186 101.798 17.4229 103.632 17.8995 
	 105.06 18.6128 106.283 19.5657 107.303 20.9925 108.322 22.6587 
	 109.137 24.5618 109.749 26.7031 110.157 29.0827 110.564 34.3185 
	 110.361 37.8878 109.953 40.9806 109.341 43.5987 108.322 45.9767 
	 106.895 48.1195 105.468 49.5462 103.632 50.7357 101.391 51.6876 
	 103.632 54.0669 105.264 56.685 106.079 58.3512 106.895 60.7308 
	 107.914 63.5855 109.137 66.9167 111.38 72.8656 113.418 78.8146 
	 109.341 78.8146 105.06 78.8146 102.614 72.1521 99.9634 65.4886 
	 98.7399 62.1574 97.7207 59.5409 96.9054 57.3982 96.2943 56.2097 
	 95.2749 54.7819 94.2556 53.83 92.8281 53.3538 90.5865 53.1154 
	 89.9741 53.1154 89.159 53.1154 89.159 78.8146 85.694 78.8146 
	 82.2277 78.8146 82.2277 78.8146 82.2277 78.8146 82.2277 78.8146 
	 82.2277 78.8146 82.2277 78.8146 82.2277 78.8146 82.2277 78.8146 "
	 style=" stroke:#000000; stroke-width:1; fill:#6e0000; fill-opacity:100%"></polygon>
	<polygon points="89.1139 43.2592 91.7851 43.2592 94.4552 43.2592 
	 96.5094 43.2592 98.358 43.0185 99.5907 43.0185 100.412 42.7774 
	 101.645 41.815 102.261 41.0938 102.672 40.1314 103.288 37.966 
	 103.494 35.3186 103.494 33.8743 103.288 32.6712 102.672 30.5055 
	 101.645 28.8204 100.412 27.8581 99.7953 27.6172 98.5636 27.6172 
	 96.9195 27.3777 94.6608 27.3777 89.1139 27.3777 89.1139 43.2592 
	 89.1139 43.2592 89.1139 43.2592 89.1139 43.2592 89.1139 43.2592 
	 89.1139 43.2592 89.1139 43.2592 89.1139 43.2592 "
	 style=" stroke:#000000; stroke-width:1; fill:#ffffa5; fill-opacity:100%"></polygon>
	<polygon points="125.851 78.8146 119.736 47.8811 113.418 16.9479 
	 117.29 16.9479 121.162 16.9479 125.647 40.0291 129.926 62.8721 
	 134.206 40.0291 138.487 16.9479 145.823 16.9479 139.708 47.8811 
	 133.39 78.8146 129.723 78.8146 125.851 78.8146 125.851 78.8146 
	 125.851 78.8146 125.851 78.8146 125.851 78.8146 125.851 78.8146 125.851 78.8146 "
	 style=" stroke:#000000; stroke-width:1; fill:#6e0000; fill-opacity:100%"></polygon>
	<polygon points="149.063 78.8146 149.063 47.8811 149.063 16.9479 
	 152.607 16.9479 156.152 16.9479 156.152 47.8811 156.152 78.8146 
	 152.607 78.8146 149.063 78.8146 149.063 78.8146 149.063 78.8146 
	 149.063 78.8146 149.063 78.8146 149.063 78.8146 149.063 78.8146 "
	 style=" stroke:#000000; stroke-width:1; fill:#6e0000; fill-opacity:100%"></polygon>
	<polygon points="184.865 56.2084 188.332 58.1112 191.797 60.0143 
	 190.778 64.7729 189.554 69.0551 188.128 72.3858 186.496 75.2415 
	 184.458 77.3827 182.419 78.8104 179.971 79.7618 177.321 80 
	 175.69 80 174.059 79.5238 172.632 78.8104 171.204 78.0958 
	 168.554 75.7165 166.311 72.3858 164.273 67.6286 162.641 61.9184 
	 161.827 55.732 161.418 48.5941 161.418 44.7872 161.827 40.9811 
	 162.641 34.5565 164.273 28.8467 166.311 23.8511 167.535 21.9469 
	 168.554 20.5204 169.981 19.0927 171.408 17.9027 172.836 17.1896 
	 174.467 16.475 176.098 16.2368 177.729 16 180.583 16.475 
	 183.03 17.4265 185.476 19.3307 187.516 21.71 188.74 24.0895 
	 189.963 26.9436 190.778 30.2745 191.593 34.0816 188.128 35.5093 
	 184.661 36.9359 184.254 34.5565 183.641 32.6536 182.826 30.7509 
	 182.011 29.3229 180.991 28.1334 179.971 27.4202 178.748 26.9436 
	 177.321 26.7056 175.487 26.9436 173.854 27.8952 172.428 29.3229 
	 171 31.464 169.981 34.3198 169.166 38.1254 168.758 42.4091 
	 168.554 47.6429 168.758 53.1147 169.166 57.6349 169.981 61.4422 
	 171 64.2963 172.224 66.4387 173.854 68.1036 175.283 69.0551 
	 177.117 69.2932 178.545 69.0551 179.767 68.5798 180.991 67.6286 
	 182.011 66.2007 182.826 64.2963 183.641 62.1554 184.254 59.3011 
	 184.865 56.2084 184.865 56.2084 184.865 56.2084 184.865 56.2084 
	 184.865 56.2084 184.865 56.2084 184.865 56.2084 "
	 style=" stroke:#000000; stroke-width:1; fill:#6e0000; fill-opacity:100%"></polygon>
	<polygon points="197.468 78.8146 197.468 47.8811 197.468 16.9479 
	 210.531 16.9479 223.388 16.9479 223.388 22.1823 223.388 27.4177 
	 204.408 27.4177 204.408 34.3185 204.408 41.219 213.183 41.219 
	 221.959 41.219 221.959 46.4533 221.959 51.6876 213.183 51.6876 
	 204.408 51.6876 204.408 60.0159 204.408 68.3445 224 68.3445 
	 224 73.5788 224 78.8146 210.735 78.8146 197.468 78.8146 
	 197.468 78.8146 197.468 78.8146 197.468 78.8146 197.468 78.8146 
	 197.468 78.8146 197.468 78.8146 "
	 style=" stroke:#000000; stroke-width:1; fill:#6e0000; fill-opacity:100%"></polygon>
      </g>
    </g>
  </symbol>
 </defs>
</svg>
