<?xml version="1.0" encoding="UTF-8" standalone="no"?>

<svg
 xmlns:dc="http://purl.org/dc/elements/1.1/"
   xmlns:cc="http://creativecommons.org/ns#"
   xmlns:rdf="http://www.w3.org/1999/02/22-rdf-syntax-ns#"
   xmlns:svg="http://www.w3.org/2000/svg"
   xmlns="http://www.w3.org/2000/svg"
   xmlns:xlink="http://www.w3.org/1999/xlink"
   xmlns:sodipodi="http://sodipodi.sourceforge.net/DTD/sodipodi-0.dtd"
   xmlns:inkscape="http://www.inkscape.org/namespaces/inkscape"
   id="svg2"
   version="1.1"
   inkscape:version="0.47 r22583"
   width="100"
   height="100"
   sodipodi:docname="service_contract.svg">
  <metadata
     id="metadata118">
    <rdf:RDF>
      <cc:Work
         rdf:about="">
        <dc:format>image/svg+xml</dc:format>
        <dc:type
           rdf:resource="http://purl.org/dc/dcmitype/StillImage" />
      </cc:Work>
    </rdf:RDF>
  </metadata>
  <defs
     id="defs116">
    <linearGradient
       inkscape:collect="always"
       id="linearGradient3698">
      <stop
         style="stop-color:#ffffff;stop-opacity:1;"
         offset="0"
         id="stop3700" />
      <stop
         style="stop-color:#ffffff;stop-opacity:0;"
         offset="1"
         id="stop3702" />
    </linearGradient>
    <inkscape:perspective
       sodipodi:type="inkscape:persp3d"
       inkscape:vp_x="0 : 0.5 : 1"
       inkscape:vp_y="0 : 1000 : 0"
       inkscape:vp_z="1 : 0.5 : 1"
       inkscape:persp3d-origin="0.5 : 0.33333333 : 1"
       id="perspective120" />
    <linearGradient
       inkscape:collect="always"
       xlink:href="#linearGradient3698"
       id="linearGradient3704"
       x1="31.25"
       y1="503.90701"
       x2="773.43799"
       y2="503.90701"
       gradientUnits="userSpaceOnUse" />
  </defs>
  <sodipodi:namedview
     pagecolor="#ffffff"
     bordercolor="#666666"
     borderopacity="1"
     objecttolerance="10"
     gridtolerance="10"
     guidetolerance="10"
     inkscape:pageopacity="0"
     inkscape:pageshadow="2"
     inkscape:window-width="1680"
     inkscape:window-height="994"
     id="namedview114"
     showgrid="false"
     inkscape:zoom="7.49"
     inkscape:cx="50"
     inkscape:cy="50"
     inkscape:window-x="-4"
     inkscape:window-y="-4"
     inkscape:window-maximized="1"
     inkscape:current-layer="svg2" />
  <polygon
     points="1007.81,1007.81 0,1007.81 0,0 1007.81,0 1007.81,1007.81 "
     style="fill:#ffffff;fill-opacity:0;stroke:none"
     id="polygon4"
     transform="scale(0.08445946,0.08445946)" />
  <polygon
     points="110.458,527.526 118.348,598.387 102.568,669.248 86.7884,724.363 63.1189,771.605 39.4493,810.973 7.88986,842.467 0,858.213 702.197,1007.81 702.197,999.936 741.647,921.201 773.206,850.34 788.986,795.225 796.875,747.984 788.986,700.742 773.206,653.502 725.867,535.399 710.087,511.778 678.528,425.17 662.748,354.308 662.748,291.32 678.528,244.079 694.307,204.711 717.977,173.217 741.647,149.597 757.426,141.723 110.458,0 102.568,7.87301 102.568,7.87301 63.1189,62.9881 31.5594,110.229 15.7797,157.47 7.88986,196.837 15.7797,244.079 31.5594,291.32 71.0087,409.423 94.6783,448.79 102.568,488.158 "
     style="fill:#444444;fill-opacity:1;stroke:none"
     id="polygon6"
     transform="scale(0.08445946,0.08445946)" />
  <polygon
     points="118.102,23.438 718.169,149.463 694.482,173.092 670.794,212.475 655.004,267.61 647.108,330.623 647.108,377.882 655.004,417.264 670.794,472.401 694.482,519.66 702.377,543.289 757.647,661.438 773.438,708.697 773.438,748.08 773.438,795.338 757.647,850.475 726.064,913.487 694.482,984.376 31.25,850.475 62.8325,811.093 94.4149,748.08 125.997,669.314 133.893,622.055 133.893,574.795 133.893,574.795 125.997,511.783 110.206,440.894 94.4149,401.512 47.0412,291.24 31.25,243.981 31.25,196.721 31.25,157.339 47.0412,117.957 78.6237,70.6963 "
     style="fill:url(#linearGradient3704);fill-opacity:1;stroke:none"
     id="polygon8"
     transform="scale(0.08445946,0.08445946)" />
  <polygon
     points="523.437,218.75 132.812,132.812 132.812,132.812 "
     style="fill:#ffffff;fill-opacity:1;stroke:none"
     id="polygon10"
     transform="scale(0.08445946,0.08445946)" />
  <polyline
     points="132.812 132.812 523.437 218.75"
     style="stroke:none"
     id="polyline12"
     transform="scale(0.08445946,0.08445946)" />
  <polygon
     points="132.812,141.927 515.465,226.562 523.437,209.635 140.784,125 132.812,141.927 "
     style="fill:#444444;fill-opacity:1;stroke:none"
     id="polygon14"
     transform="scale(0.08445946,0.08445946)" />
  <polygon
     points="492.187,312.5 109.375,226.562 109.375,226.562 "
     style="fill:#ffffff;fill-opacity:1;stroke:none"
     id="polygon16"
     transform="scale(0.08445946,0.08445946)" />
  <polyline
     points="109.375 226.562 492.187 312.5"
     style="stroke:none"
     id="polyline18"
     transform="scale(0.08445946,0.08445946)" />
  <polygon
     points="101.562,236.178 492.187,320.313 492.187,303.486 109.534,210.938 101.562,236.178 "
     style="fill:#444444;fill-opacity:1;stroke:none"
     id="polygon20"
     transform="scale(0.08445946,0.08445946)" />
  <polygon
     points="554.687,414.062 171.875,320.312 171.875,320.312 "
     style="fill:#ffffff;fill-opacity:1;stroke:none"
     id="polygon22"
     transform="scale(0.08445946,0.08445946)" />
  <polyline
     points="171.875 320.312 554.687 414.062"
     style="stroke:none"
     id="polyline24"
     transform="scale(0.08445946,0.08445946)" />
  <polygon
     points="164.062,337.741 554.687,421.875 554.687,396.635 172.034,312.5 164.062,337.741 "
     style="fill:#444444;fill-opacity:1;stroke:none"
     id="polygon26"
     transform="scale(0.08445946,0.08445946)" />
  <polygon
     points="593.75,671.875 210.938,585.938 210.938,585.938 "
     style="fill:#ffffff;fill-opacity:1;stroke:none"
     id="polygon28"
     transform="scale(0.08445946,0.08445946)" />
  <polyline
     points="210.938 585.938 593.75 671.875"
     style="stroke:none"
     id="polyline30"
     transform="scale(0.08445946,0.08445946)" />
  <polygon
     points="210.938,594.952 593.592,687.5 601.563,662.259 210.938,578.125 210.938,594.952 "
     style="fill:#444444;fill-opacity:1;stroke:none"
     id="polygon32"
     transform="scale(0.08445946,0.08445946)" />
  <polygon
     points="640.624,773.438 257.812,679.688 257.812,679.688 "
     style="fill:#ffffff;fill-opacity:1;stroke:none"
     id="polygon34"
     transform="scale(0.08445946,0.08445946)" />
  <polyline
     points="257.812 679.688 640.624 773.438"
     style="stroke:none"
     id="polyline36"
     transform="scale(0.08445946,0.08445946)" />
  <polygon
     points="257.812,697.115 640.624,781.25 640.624,764.422 257.812,671.875 257.812,697.115 "
     style="fill:#444444;fill-opacity:1;stroke:none"
     id="polygon38"
     transform="scale(0.08445946,0.08445946)" />
  <polygon
     points="570.312,843.75 187.5,757.812 187.5,757.812 "
     style="fill:#ffffff;fill-opacity:1;stroke:none"
     id="polygon40"
     transform="scale(0.08445946,0.08445946)" />
  <polyline
     points="187.5 757.812 570.312 843.75"
     style="stroke:none"
     id="polyline42"
     transform="scale(0.08445946,0.08445946)" />
  <polygon
     points="187.5,766.927 570.154,851.562 578.125,834.635 187.5,750 187.5,766.927 "
     style="fill:#444444;fill-opacity:1;stroke:none"
     id="polygon44"
     transform="scale(0.08445946,0.08445946)" />
  <polygon
     points="936.649,251.635 888.92,299.6 825.284,355.559 753.693,411.519 674.148,467.479 578.693,523.438 546.875,475.473 546.875,475.473 602.556,427.508 729.829,323.583 880.966,219.658 936.649,187.682 960.512,179.688 976.421,179.688 984.375,179.688 984.375,187.682 968.467,211.665 "
     style="fill:#7c4018;fill-opacity:1;stroke:none"
     id="polygon46"
     transform="scale(0.08445946,0.08445946)" />
  <polyline
     points="546.875 475.473 602.556 427.508 729.829 323.583    880.966 219.658 936.649 187.682 960.512 179.688 976.421 179.688    984.375 179.688 984.375 187.682 968.467 211.665 936.649 251.635    888.92 299.6 825.284 355.559 753.693 411.519 674.148 467.479    578.693 523.438"
     style="stroke:none"
     id="polyline48"
     transform="scale(0.08445946,0.08445946)" />
  <polygon
     points="737.801,419.513 658.306,467.479 578.81,515.443 586.76,523.438 737.801,427.508 872.944,323.583 960.389,235.647 984.237,203.67 992.187,187.682 984.237,179.688 976.288,179.688 960.389,179.688 936.541,187.682 880.893,211.665 737.801,315.589 602.658,419.513 539.062,475.473 539.062,475.473 547.012,483.466 650.357,395.531 777.55,299.6 896.792,211.665 944.49,195.675 976.288,187.682 976.288,203.67 952.439,235.647 864.994,315.589 "
     style="fill:#3b2913;fill-opacity:1;stroke:none"
     id="polygon50"
     transform="scale(0.08445946,0.08445946)" />
  <polygon
     points="512.227,600.39 561.141,592.188 569.293,551.172 577.445,534.765 585.597,526.563 593.75,518.359 544.836,460.938 544.836,469.141 544.836,469.141 520.38,477.343 495.924,477.343 471.467,469.141 471.467,477.343 455.163,526.563 430.707,567.578 406.25,616.796 414.402,625 463.316,608.593 "
     style="fill:#3b2913;fill-opacity:1;stroke:none"
     id="polygon52"
     transform="scale(0.08445946,0.08445946)" />
  <polygon
     points="479.44,484.863 504.112,484.863 528.784,484.863 545.23,476.562 545.23,476.562 578.125,518.066 569.902,534.668 561.679,551.269 553.454,584.472 504.112,592.774 462.994,592.774 421.875,609.374 446.546,567.871 462.994,534.668 "
     style="fill:#ffdd4d;fill-opacity:1;stroke:none"
     id="polygon54"
     transform="scale(0.08445946,0.08445946)" />
  <polygon
     points="500,546.875 406.25,617.188 406.25,617.188 "
     style="fill:#3b2913;fill-opacity:1;stroke:none"
     id="polygon56"
     transform="scale(0.08445946,0.08445946)" />
  <polyline
     points="406.25 617.188 500 546.875"
     style="stroke:none"
     id="polyline58"
     transform="scale(0.08445946,0.08445946)" />
  <polygon
     points="499.349,539.062 406.25,617.187 414.713,617.187 507.812,547.743 499.349,539.062 "
     style="fill:#3b2913;fill-opacity:1;stroke:none"
     id="polygon60"
     transform="scale(0.08445946,0.08445946)" />
  <polygon
     points="515.625,539.063 539.063,515.625 539.063,515.625 "
     style="fill:#3b2913;fill-opacity:1;stroke:none"
     id="polygon62"
     transform="scale(0.08445946,0.08445946)" />
  <polyline
     points="539.063 515.625 515.625 539.063"
     style="stroke:none"
     id="polyline64"
     transform="scale(0.08445946,0.08445946)" />
  <polygon
     points="527.344,515.625 515.625,527.344 515.625,539.063 539.063,527.344 527.344,515.625 "
     style="fill:#3b2913;fill-opacity:1;stroke:none"
     id="polygon66"
     transform="scale(0.08445946,0.08445946)" />
  <polygon
     points="1184,1184 448,1184 448,448 1184,448 1184,1184 "
     style="fill:#ffffff;fill-opacity:0;stroke:none"
     id="polygon68"
     transform="scale(0.08445946,0.08445946)" />
  <polygon
     points="1166.79,1068.64 1178.3,1062.76 1178.3,1027.46 1161.04,1015.69 1138.04,1003.92 1120.79,980.388 1103.54,939.202 1017.29,933.318 925.28,927.435 816.023,921.552 620.511,921.552 557.257,927.435 534.256,933.318 522.755,939.202 511.254,950.97 505.504,962.738 494.003,986.272 482.502,1003.92 465.251,1015.69 448,1027.46 448,1062.76 448,1062.76 471.001,1068.64 540.006,1086.3 655.013,1103.95 741.269,1109.83 839.025,1109.83 936.78,1109.83 1011.54,1103.95 1069.04,1098.06 1115.04,1086.3 "
     style="fill:#000000;fill-opacity:1;stroke:none"
     id="polygon70"
     transform="scale(0.08445946,0.08445946)" />
  <polygon
     points="816.028,961.49 925.485,955.673 1017.66,944.038 1109.83,932.403 1109.83,926.587 1109.83,909.134 1104.07,868.413 1086.79,816.057 1075.27,792.788 1057.98,769.519 1023.42,728.797 1000.38,711.346 977.332,693.894 942.767,682.259 908.201,670.624 867.876,664.807 816.028,664.807 758.42,664.807 718.095,670.624 677.769,682.259 648.964,693.894 625.921,711.346 602.878,728.797 568.313,763.701 568.313,763.701 551.03,786.971 539.508,816.057 522.226,868.413 516.465,909.134 516.465,926.587 516.465,932.403 522.226,932.403 614.399,944.038 706.572,955.673 "
     style="fill:#000000;fill-opacity:1;stroke:none"
     id="polygon72"
     transform="scale(0.08445946,0.08445946)" />
  <polygon
     points="942.791,687.985 971.601,699.634 994.649,717.107 1017.7,734.579 1052.27,775.349 1069.55,792.823 1081.08,816.12 1098.36,862.714 1104.13,903.484 1104.13,926.782 1006.17,938.429 913.982,950.079 816.029,950.079 712.314,950.079 625.886,938.429 522.17,926.782 522.17,903.484 533.695,862.714 545.218,810.296 556.743,786.998 574.028,769.525 574.028,769.525 608.599,734.579 631.648,717.107 654.695,699.634 683.505,687.985 718.077,676.337 764.172,670.513 816.029,670.513 867.886,670.513 908.22,676.337 "
     style="fill:#aaaaaa;fill-opacity:1;stroke:none"
     id="polygon74"
     transform="scale(0.08445946,0.08445946)" />
  <polygon
     points="573.8,881.023 625.991,886.925 678.182,881.023 695.579,881.023 712.976,886.925 736.172,898.729 759.368,898.729 834.755,898.729 875.348,892.827 892.744,892.827 904.342,881.023 910.141,869.218 910.141,857.414 904.342,839.708 892.744,822.001 857.95,786.589 828.955,768.882 805.76,768.882 782.563,780.686 776.764,780.686 765.167,780.686 747.77,768.882 724.573,757.077 712.976,739.371 701.378,733.468 689.78,727.566 678.182,727.566 678.182,727.566 649.187,733.468 620.192,745.273 602.796,762.98 585.398,780.686 568.001,810.197 562.202,839.708 556.404,863.317 556.404,875.12 562.202,881.023 "
     style="fill:#666666;fill-opacity:1;stroke:none"
     id="polygon76"
     transform="scale(0.08445946,0.08445946)" />
  <polygon
     points="683.163,858.792 701.024,852.73 712.931,852.73 724.838,822.419 748.651,798.171 778.419,779.985 790.326,773.923 790.326,767.861 772.466,761.8 724.838,761.8 724.838,761.8 712.931,767.861 689.117,773.923 671.257,779.985 659.349,792.109 653.396,804.233 653.396,822.419 653.396,840.605 659.349,852.73 671.257,858.792 "
     style="fill:#e5f2ff;fill-opacity:1;stroke:none"
     id="polygon78"
     transform="scale(0.08445946,0.08445946)" />
  <polygon
     points="830.265,550.698 823.744,550.698 823.744,550.698 784.621,550.698 784.621,619.163 830.265,619.163 "
     style="fill:#000000;fill-opacity:1;stroke:none"
     id="polygon80"
     transform="scale(0.08445946,0.08445946)" />
  <polygon
     points="824.559,556.404 824.559,613.458 790.326,613.458 790.326,556.404 824.559,556.404 "
     style="fill:#8c8c8c;fill-opacity:1;stroke:none"
     id="polygon82"
     transform="scale(0.08445946,0.08445946)" />
  <polygon
     points="829.63,624.869 829.63,624.869 778.916,624.869 778.916,692.456 785.255,692.456 791.594,698.601 810.613,704.745 823.291,704.745 835.97,698.601 835.97,692.456 835.97,624.869 "
     style="fill:#000000;fill-opacity:1;stroke:none"
     id="polygon84"
     transform="scale(0.08445946,0.08445946)" />
  <polygon
     points="823.607,692.815 810.296,699.039 796.982,692.815 790.326,692.815 790.326,630.574 830.265,630.574 830.265,630.574 830.265,692.815 "
     style="fill:#8c8c8c;fill-opacity:1;stroke:none"
     id="polygon86"
     transform="scale(0.08445946,0.08445946)" />
  <polygon
     points="830.265,687.629 835.97,693.334 835.97,693.334 "
     style="fill:#000000;fill-opacity:1;stroke:none"
     id="polygon88"
     transform="scale(0.08445946,0.08445946)" />
  <polygon
     points="841.237,608.323 810.515,602.047 792.082,602.047 779.793,602.047 767.505,608.323 767.505,608.323 767.505,614.599 767.505,652.256 773.649,658.531 785.938,664.807 810.515,664.807 828.948,664.807 841.237,658.531 847.381,652.256 847.381,614.599 "
     style="fill:#000000;fill-opacity:1;stroke:none"
     id="polygon90"
     transform="scale(0.08445946,0.08445946)" />
  <polygon
     points="810.555,607.752 810.555,607.752 829.227,607.752 841.675,614.171 841.675,652.683 835.451,652.683 810.555,659.102 785.658,659.102 773.21,652.683 773.21,614.171 785.658,607.752 "
     style="fill:#aaaaaa;fill-opacity:1;stroke:none"
     id="polygon92"
     transform="scale(0.08445946,0.08445946)" />
  <polygon
     points="835.156,557.544 847.382,564.391 847.382,564.391 847.382,571.237 835.156,578.084 804.591,584.931 774.025,578.084 767.912,571.237 761.8,564.391 767.912,564.391 774.025,557.544 804.591,550.698 "
     style="fill:#555555;fill-opacity:1;stroke:none"
     id="polygon94"
     transform="scale(0.08445946,0.08445946)" />
  <polygon
     points="786.252,544.992 767.912,552.124 761.8,559.256 761.8,559.256 767.912,566.388 786.252,573.52 804.591,573.52 829.043,573.52 841.269,566.388 847.382,559.256 841.269,552.124 829.043,544.992 804.591,544.992 "
     style="fill:#000000;fill-opacity:1;stroke:none"
     id="polygon96"
     transform="scale(0.08445946,0.08445946)" />
  <polygon
     points="829.227,550.698 841.675,559.256 829.227,567.815 804.331,567.815 785.658,567.815 773.21,559.256 785.658,550.698 804.331,550.698 804.331,550.698 "
     style="fill:#aaaaaa;fill-opacity:1;stroke:none"
     id="polygon98"
     transform="scale(0.08445946,0.08445946)" />
  <polygon
     points="1001.13,755.575 983.11,730.679 947.077,705.781 929.059,699.558 917.047,699.558 917.047,699.558 905.036,693.334 899.03,699.558 893.024,705.781 893.024,712.007 899.03,718.231 935.064,730.679 971.1,743.127 1001.13,755.575 1007.13,761.8 "
     style="fill:#e5f2ff;fill-opacity:1;stroke:none"
     id="polygon100"
     transform="scale(0.08445946,0.08445946)" />
  <polygon
     points="510.962,887.319 505.206,893.381 493.694,905.505 487.938,911.567 487.938,923.692 493.694,935.815 493.694,941.877 522.473,947.94 591.544,966.125 695.152,978.249 752.71,984.311 816.026,984.311 942.657,978.249 1040.51,960.063 1103.82,947.94 1132.6,941.877 1132.6,935.815 1138.36,923.692 1138.36,911.567 1132.6,905.505 1121.09,893.381 1115.33,887.319 1115.33,887.319 1092.31,899.444 1023.24,917.629 931.145,935.815 873.585,941.877 816.026,941.877 758.467,941.877 700.907,935.815 603.057,917.629 533.986,899.444 "
     style="fill:#333333;fill-opacity:1;stroke:none"
     id="polygon102"
     transform="scale(0.08445946,0.08445946)" />
  <polygon
     points="1029.02,954.029 936.904,972.462 816.001,978.606 700.855,972.462 602.981,960.173 533.893,941.74 499.349,935.596 499.349,917.163 499.349,904.874 510.864,898.73 539.65,904.874 608.738,923.308 706.612,941.74 758.428,947.885 816.001,947.885 816.001,947.885 873.574,947.885 925.39,941.74 1023.26,923.308 1086.59,904.874 1115.38,898.73 1126.9,904.874 1132.65,923.308 1126.9,935.596 1098.11,941.74 "
     style="fill:#cccccc;fill-opacity:1;stroke:none"
     id="polygon104"
     transform="scale(0.08445946,0.08445946)" />
  <polygon
     points="522.338,904.435 557.579,917.476 592.817,930.517 628.057,937.037 692.663,943.558 716.156,950.079 616.31,943.558 551.705,923.997 516.465,917.476 522.338,904.435 "
     style="fill:#e5f2ff;fill-opacity:1;stroke:none"
     id="polygon106"
     transform="scale(0.08445946,0.08445946)" />
  <polygon
     points="1109.65,910.14 1109.65,910.14 1045.91,928.813 982.172,947.485 912.636,959.933 750.388,978.606 814.129,972.382 935.815,966.158 999.556,953.709 1057.5,941.261 1121.24,922.589 "
     style="fill:#999999;fill-opacity:1;stroke:none"
     id="polygon108"
     transform="scale(0.08445946,0.08445946)" />
  <polygon
     points="505.222,1007.13 540.461,1020.17 575.701,1033.22 610.941,1039.74 675.546,1046.26 699.039,1052.78 599.194,1046.26 534.589,1033.22 499.349,1020.17 505.222,1007.13 "
     style="fill:#bbbbbb;fill-opacity:1;stroke:none"
     id="polygon110"
     transform="scale(0.08445946,0.08445946)" />
  <polygon
     points="727.566,917.748 703.604,925.355 685.631,925.355 661.668,917.748 619.734,910.14 607.752,910.14 667.659,925.355 709.594,932.962 727.566,932.962 727.566,917.748 "
     style="fill:#e5f2ff;fill-opacity:1;stroke:none"
     id="polygon112"
     transform="scale(0.08445946,0.08445946)" />
</svg>
