<?xml version="1.0"?>
<?metis version="3.1"?>
<?metisxml version="1.0"?>
<!DOCTYPE svg  PUBLIC "-//W3C//DTD SVG August 1999//EN"
 "http://www.w3.org/Graphics/SVG/svg-19990812.dtd">

<svg width="200" height="200">
 <title>Symbol library: sf.svg</title>
 <defs>
  <symbol id="oid1" xml:space="preserve" class="METIS_SYMBOL">
   <title>Success Factor</title>
    <polygon points="0 0 0 304 16 320 
     880 320 880 16 864 0 0 0 
     0 0 0 0 0 0 0 0 "
     style=" stroke:#000000; stroke-width:1; fill:#9b9b9b; fill-opacity:100%"     class="TAG:shadow"></polygon>
    <rect x="0" y="0" width="240" height="304"
     style=" stroke:#000000; stroke-width:1; fill:#ffff6e; fill-opacity:100%"     class="TAG:PictureBackground"></rect>
    <rect x="240" y="0" width="624" height="304"
     style=" stroke:#000000; stroke-width:1; fill:#ff8c8c; fill-opacity:100%"     class="TAG:canvas"></rect>
    <g>
      <desc>METIS_TEXT_GROUP</desc>
      <text  x="256" y="15.8"
       style=" stroke:#000000; stroke-width:1; font-family:sans-serif; font-size:16;"
       class="TAG:text">text</text>
      <rect x="256" y="0" width="608" height="304"
       style=" stroke:#000000; stroke-width:1; fill:#ffffff; fill-opacity:0%"></rect>
    </g>
    <g>
      <polygon points="81.286 49.876 108.152 71.0188 112.009 67.7518 
       112.009 49.876 81.286 32 50.5631 32 19.8404 49.876 
       19.8404 67.7518 50.5631 85.6277 81.286 85.6277 81.286 103.504 
       50.5631 103.504 19.8404 85.6277 16 87.8621 19.8404 103.504 
       50.5631 121.38 81.286 121.38 112.009 103.504 112.009 85.6277 
       81.286 67.7518 50.5631 67.7518 50.5631 49.876 81.286 49.876 
       81.286 49.876 81.286 49.876 81.286 49.876 81.286 49.876 "
       style=" stroke:#000000; stroke-width:1; fill:#b9b9b9; fill-opacity:100%"></polygon>
      <polygon points="77.4455 53.6 108.168 71.476 108.168 53.6 
       77.4455 35.7242 46.7228 35.7242 16 53.6 16 71.476 
       46.7228 89.3518 77.4455 89.3518 77.4455 107.228 46.7228 107.228 
       16 89.3518 16 107.228 46.7228 125.104 77.4455 125.104 
       108.168 107.228 108.168 89.3518 77.4455 71.476 46.7228 71.476 
       46.7228 53.6 77.4455 53.6 77.4455 53.6 77.4455 53.6 
       77.4455 53.6 77.4455 53.6 "
       style=" stroke:#000000; stroke-width:1; fill:#007af4; fill-opacity:100%"></polygon>
    </g>
    <g>
      <polygon points="147.898 265.379 147.898 205.793 144 179.78 
       147.898 176 224.705 176 224.705 190.897 220.807 194.677 
       163.26 190.897 163.26 205.793 193.981 205.793 193.981 220.689 
       190.084 224.47 163.26 220.689 163.26 265.379 159.361 269.159 
       147.898 265.379 147.898 265.379 147.898 265.379 147.898 265.379 147.898 265.379 "
       style=" stroke:#000000; stroke-width:1; fill:#b9b9b9; fill-opacity:100%"></polygon>
      <polygon points="144 269.159 144 209.573 144 179.78 
       220.807 179.78 220.807 194.677 159.361 194.677 159.361 209.573 
       190.084 209.573 190.084 224.469 159.361 224.469 159.361 269.159 
       144 269.159 144 269.159 144 269.159 144 269.159 144 269.159 "
       style=" stroke:#000000; stroke-width:1; fill:#007af4; fill-opacity:100%"></polygon>
    </g>
    <polyline points="864 304 880 320"
     style=" stroke:#000000; stroke-width:1;"></polyline>
  </symbol>
 </defs>
</svg>
