<?xml version="1.0"?>
<?metis version="3.2"?>
<?metisxml version="1.1"?>
<!DOCTYPE svg  PUBLIC "-//W3C//DTD SVG August 1999//EN"
 "http://www.w3.org/Graphics/SVG/svg-19990812.dtd">

<svg width="200" height="200">
 <title>Symbol library: skills.svg</title>
 <defs>
  <symbol id="oid4" xml:space="preserve" class="METIS_SYMBOL">
   <title>Skill-opaque</title>
    <g>
      <desc>METIS_TEXT_GROUP</desc>
      <text  x="0" y="66.098"
       style=" stroke:#000000; stroke-width:2; font-family:sans-serif; font-size:14; text-align:center"
       class="TAG:text">text</text>
      <rect x="0" y="52.598" width="111.471" height="32"
       style=" stroke:#000000; stroke-width:1; fill:#ffffff; fill-opacity:0%"></rect>
    </g>
    <polygon points="12.4709 48 12.4709 0 92.4709 0 
     92.4709 48 12.4709 48 12.4709 48 12.4709 48 
     12.4709 48 12.4709 48 12.4709 48 12.4709 48 
     12.4709 48 12.4709 48 12.4709 48 "
     style=" stroke:#000000; stroke-width:1; fill:#96a5ff; fill-opacity:100%"></polygon>
    <path d="M 13.4709 47.9853 C 24.6299 44.8891 31.8174 47.8896 
     35.4709 48 C 44.8555 48.2835 61.1792 54 70.7459 53.957 
     C 74.9098 53.9382 79.3 52.45 92.4709 47.9853 Z"
     style=" stroke:#000000; stroke-width:1; fill:#96a5ff; fill-opacity:100%"></path>
    <image x="30.0437" y="3.19368" width="44.8545" height="42" id="oid12" xlink:role="owned" xlink:href="meeting_12.png"></image>
  </symbol>
  <symbol id="oid5" xml:space="preserve" class="METIS_SYMBOL">
   <title>Skill-transp</title>
    <g>
      <desc>METIS_TEXT_GROUP</desc>
      <text  x="0" y="66.098"
       style=" stroke:#000000; stroke-width:2; font-family:sans-serif; font-size:14; text-align:center"
       class="TAG:text">text</text>
      <rect x="0" y="52.598" width="111.471" height="32"
       style=" stroke:#000000; stroke-width:1; fill:#ffffff; fill-opacity:0%"></rect>
    </g>
    <polygon points="15.7355 48 15.7355 0 95.7355 0 
     95.7355 48 15.7355 48 15.7355 48 15.7355 48 
     15.7355 48 15.7355 48 15.7355 48 15.7355 48 
     15.7355 48 15.7355 48 15.7355 48 "
     style=" stroke:#000000; stroke-width:1; fill:#96a5ff; fill-opacity:100%"></polygon>
    <path d="M 16.8042 47.3186 C 27.9632 44.2224 35.1507 47.2229 
     38.8042 47.3333 C 48.1888 47.6168 64.5125 53.3333 74.0792 53.2903 
     C 78.2431 53.2715 82.6333 51.7833 95.8042 47.3186 Z"
     style=" stroke:#000000; stroke-width:1; fill:#96a5ff; fill-opacity:100%"></path>
    <image x="34.2355" y="3" width="43" height="42" id="oid18" xlink:role="owned" xlink:href="meeting_18.png"></image>
  </symbol>
  <symbol id="oid6" xml:space="preserve" class="METIS_SYMBOL">
   <title>Skill-white-diploma</title>
    <g>
      <desc>METIS_TEXT_GROUP</desc>
      <text  x="0" y="66.098"
       style=" stroke:#000000; stroke-width:2; font-family:sans-serif; font-size:14; text-align:center"
       class="TAG:text">text</text>
      <rect x="0" y="52.598" width="111.471" height="32"
       style=" stroke:#000000; stroke-width:1; fill:#ffffff; fill-opacity:0%"></rect>
    </g>
    <polygon points="15.7355 48 15.7355 0 95.7355 0 
     95.7355 48 15.7355 48 15.7355 48 15.7355 48 
     15.7355 48 15.7355 48 15.7355 48 15.7355 48 
     15.7355 48 15.7355 48 15.7355 48 "
     style=" stroke:#000000; stroke-width:1; fill:#96a5ff; fill-opacity:100%"></polygon>
    <path d="M 16.2064 47.9853 C 27.3654 44.8891 34.5529 47.8896 
     38.2064 48 C 47.591 48.2835 63.9147 54 73.4814 53.957 
     C 77.6453 53.9382 82.0355 52.45 95.2064 47.9853 Z"
     style=" stroke:#000000; stroke-width:1; fill:#96a5ff; fill-opacity:100%"></path>
    <image x="30.7355" y="3" width="50" height="42" id="oid21" xlink:role="owned" xlink:href="meeting_21.png"></image>
  </symbol>
 </defs>
</svg>
