<?xml version="1.0" encoding="UTF-8" standalone="no"?>
<!-- Generator: Adobe Illustrator 13.0.2, SVG Export Plug-In  -->

<svg
   xmlns:dc="http://purl.org/dc/elements/1.1/"
   xmlns:cc="http://creativecommons.org/ns#"
   xmlns:rdf="http://www.w3.org/1999/02/22-rdf-syntax-ns#"
   xmlns:svg="http://www.w3.org/2000/svg"
   xmlns="http://www.w3.org/2000/svg"
   xmlns:sodipodi="http://sodipodi.sourceforge.net/DTD/sodipodi-0.dtd"
   xmlns:inkscape="http://www.inkscape.org/namespaces/inkscape"
   version="1.1"
   x="0px"
   y="0px"
   width="219"
   height="219"
   viewBox="-0.301 -0.081 219 219"
   enable-background="new -0.301 -0.081 161 197"
   xml:space="preserve"
   id="svg2"
   inkscape:version="0.47 r22583"
   sodipodi:docname="SkillProfileJB.svg"><metadata
     id="metadata279"><rdf:RDF><cc:Work
         rdf:about=""><dc:format>image/svg+xml</dc:format><dc:type
           rdf:resource="http://purl.org/dc/dcmitype/StillImage" /><dc:title></dc:title></cc:Work></rdf:RDF></metadata><sodipodi:namedview
     pagecolor="#ffffff"
     bordercolor="#666666"
     borderopacity="1"
     objecttolerance="10"
     gridtolerance="10"
     guidetolerance="10"
     inkscape:pageopacity="0"
     inkscape:pageshadow="2"
     inkscape:window-width="1680"
     inkscape:window-height="945"
     id="namedview277"
     showgrid="false"
     inkscape:zoom="0.5"
     inkscape:cx="112.12226"
     inkscape:cy="105.99219"
     inkscape:window-x="0"
     inkscape:window-y="0"
     inkscape:window-maximized="0"
     inkscape:current-layer="svg2" /><defs
     id="defs4"><inkscape:perspective
       sodipodi:type="inkscape:persp3d"
       inkscape:vp_x="0 : 109.5 : 1"
       inkscape:vp_y="0 : 1000 : 0"
       inkscape:vp_z="219 : 109.5 : 1"
       inkscape:persp3d-origin="109.5 : 73 : 1"
       id="perspective28" /><filter
       inkscape:collect="always"
       id="filter4097"><feGaussianBlur
         inkscape:collect="always"
         stdDeviation="2.0411875"
         id="feGaussianBlur4099" /></filter></defs><path
     style="opacity:0.5;fill:#000000;stroke:#b5b5b5;stroke-width:0;stroke-miterlimit:4;stroke-dasharray:none;filter:url(#filter4097)"
     d="m 46.437542,16.233671 c -10.14934,0 -18.375,8.225658 -18.375,18.375 l 0,167.906249 c 0,10.14616 8.22566,18.375 18.375,18.375 l 129.124998,0 c 10.14616,0 18.375,-8.22884 18.375,-18.375 l 0.59375,-147.124999 -59.875,-39.15625 -88.218748,0 z"
     id="path239-4"
     inkscape:connector-curvature="0"
     transform="matrix(0.95778749,0,0,0.95778749,10.413773,-0.10317838)" /><path
     d="M 131.71155,6.5721316 H 47.223999 c -9.720913,0 -17.600813,7.8788844 -17.600813,17.5997974 V 185.01429 c 0,9.71787 7.8799,17.59878 17.600813,17.59878 H 170.91203 c 9.71786,0 17.59878,-7.88091 17.59878,-17.59878 L 189.07438,44.100154 131.71155,6.5721316 z"
     id="path239"
     inkscape:connector-curvature="0"
     style="fill:#f2f2f2;stroke:#b5b5b5;stroke-width:3.0463531" /><path
     d="m 187.56745,44.925715 h -37.83267 c -10.15958,0 -18.39489,-9.736143 -18.39489,-21.746898 V 8.1014018"
     id="path241"
     inkscape:connector-curvature="0"
     style="fill:#f2f2f2;stroke:#b5b5b5;stroke-width:3.0463531" /><line
     x1="45.731289"
     y1="106.93117"
     x2="173.68318"
     y2="107.41959"
     id="line243"
     style="fill:#919191;stroke:#231f20;stroke-width:4.06180382" /><line
     x1="45.565765"
     y1="131.74168"
     x2="173.51562"
     y2="132.23216"
     id="line245"
     style="fill:#919191;stroke:#231f20;stroke-width:4.06180382" /><line
     x1="45.226608"
     y1="156.88326"
     x2="173.17444"
     y2="157.37067"
     id="line247"
     style="fill:#919191;stroke:#231f20;stroke-width:4.06180382" /><line
     x1="45.059059"
     y1="180.67525"
     x2="173.00485"
     y2="181.16472"
     id="line249"
     style="fill:#919191;stroke:#231f20;stroke-width:4.06180382" /><line
     x1="123.1442"
     y1="60.383923"
     x2="173.62022"
     y2="60.872353"
     id="line251"
     style="fill:#919191;stroke:#231f20;stroke-width:4.06180382" /><line
     x1="122.95938"
     y1="84.203354"
     x2="173.51868"
     y2="84.691788"
     id="line253"
     style="fill:#919191;stroke:#231f20;stroke-width:4.06180382" /><line
     x1="45.392124"
     y1="119.79492"
     x2="173.34401"
     y2="120.28233"
     id="line255"
     style="fill:#919191;stroke:#231f20;stroke-width:4.06180382" /><line
     x1="45.226608"
     y1="144.60544"
     x2="173.17648"
     y2="145.0959"
     id="line257"
     style="fill:#919191;stroke:#231f20;stroke-width:4.06180382" /><line
     x1="44.887447"
     y1="168.7305"
     x2="172.8353"
     y2="169.21794"
     id="line259"
     style="fill:#919191;stroke:#231f20;stroke-width:4.06180382" /><line
     x1="123.18584"
     y1="72.230164"
     x2="173.66185"
     y2="72.718613"
     id="line261"
     style="fill:#919191;stroke:#231f20;stroke-width:4.06180382" /><line
     x1="122.99696"
     y1="96.050621"
     x2="173.55624"
     y2="96.539055"
     id="line263"
     style="fill:#919191;stroke:#231f20;stroke-width:4.06180382" /><polygon
     points="11.911,17.772 88.126,17.686 88.21,91.436 11.99,91.515 "
     id="polygon265"
     style="fill:#ffffff;stroke:#000000;stroke-opacity:1"
     transform="matrix(0.94326054,0,0,0.94326054,34.504025,11.691561)" /><polygon
     points="57.395,88.014 45.851,88.014 34.733,50.508 68.847,50.415 "
     id="polygon267"
     style="fill:#828282;stroke:#ffffff"
     transform="matrix(0.94326054,0,0,0.94326054,34.504025,11.691561)" /><path
     d="m 63.421564,59.247926 c -4.1777,0.0027 -7.558346,3.389135 -7.552687,7.56212 l 0.01603,20.374432 c 0.0027,4.17675 3.388191,7.556455 7.565893,7.553632 L 80.956775,94.723989 69.3575,59.244188 l -5.935938,0.0038 z"
     id="path269"
     inkscape:connector-curvature="0"
     style="fill:#3f3f3f;stroke:#ffffff;stroke-width:0.94326049" /><path
     d="m 102.28766,59.214912 -5.932155,0.0066 -11.532303,35.497719 17.493708,-0.01412 c 4.17204,-0.0039 7.55268,-3.389133 7.54702,-7.568726 l -0.0151,-20.371614 c -0.004,-4.172041 -3.39007,-7.551743 -7.56115,-7.549857 z"
     id="path271"
     inkscape:connector-curvature="0"
     style="fill:#3f3f3f;stroke:#ffffff;stroke-width:0.94326049" /><path
     d="m 96.81393,44.85943 c -0.0048,-7.71587 -6.26325,-13.961199 -13.981008,-13.95554 -7.712098,0.0084 -13.966858,6.260421 -13.961199,13.977235 0.0075,7.711155 6.270796,13.964973 13.984781,13.957426 7.71587,-0.0066 13.964972,-6.267966 13.957426,-13.979121 z"
     id="path273"
     inkscape:connector-curvature="0"
     style="fill:#bababa" /><polygon
     points="51.28,80.641 58.507,58.423 51.26,52.352 44.021,58.436 "
     id="polygon275"
     style="fill:#3f3f3f;stroke:#ffffff"
     transform="matrix(0.94326054,0,0,0.94326054,34.504025,11.691561)" /></svg>