<?xml version="1.0"?>
<?metis version="3.0"?>
<?metisxml version="1.0"?>
<!DOCTYPE svg  PUBLIC "-//W3C//DTD SVG August 1999//EN"
 "http://www.w3.org/Graphics/SVG/svg-19990812.dtd">

<svg width="200" height="200">
 <title>Symbol library: skill.svg</title>
 <defs>
  <symbol id="oid0" xml:space="preserve" class="METIS_SYMBOL">
   <title>Untitled</title>
    <g>
      <rect x="4" y="4" width="121" height="96"
       style=" stroke:#9b9b9b; stroke-width:1; fill:#9b9b9b; fill-opacity:100%"></rect>
      <rect x="0" y="0" width="123" height="98"
       style=" stroke:#000000; stroke-width:1; fill:#ffffff; fill-opacity:100%"></rect>
      <rect x="4" y="4" width="115" height="90"
       style="stroke:none; fill:#96a5ff; fill-opacity:100%"></rect>
      <g>
	<desc>METIS_TEXT_GROUP</desc>
	<text  x="5" y="67.8"
	 style=" stroke:#000000; stroke-width:1; font-family:sans-serif; font-size:16; text-align:center" class="TAG:text"
>text</text>
	<rect x="5" y="52" width="113" height="41"
	 style=" stroke:#000000; stroke-width:1; fill:#ffffff; fill-opacity:0%"></rect>
      </g>
    </g>
    <g>
      <path d="M 74.946 17.0057 C 59.1531 24.1058 60.2632 26.1487 
       55.3012 32.0413 C 51.2566 36.8444 50.4863 40.1856 46.6343 42.6915 
       C 44.7708 43.9039 51.2566 42.065 51.8344 43.5269 C 52.8911 46.2003 
       51.437 50 52.4122 49.1652 C 56.0715 46.0328 56.7439 43.1984 
       62.4272 36.009 C 67.0495 30.1619 65.894 30.7883 78.9905 24.3147 Z"
       style=" stroke:#000000; stroke-width:1; fill:#0000ff; fill-opacity:100%"></path>
      <g>
	<path d="M 74.223 14.0377 C 60.9339 11.9494 55.156 19.4672 
	 51.4967 23.2261 C 42.5901 32.3751 34.2527 35.7316 30.3112 36.8 
	 C 28 37.4264 35.2795 35.5202 36.4742 38.8883 C 37.4372 41.6031 
	 35.3015 44.7629 36.4742 44.3178 C 40.3261 42.856 48.03 38.6795 
	 55.9264 30.5351 C 60.5735 25.7421 63.8229 21.1379 76.5342 21.3467 
	 C 76.5342 21.3467 76.149 20.5113 76.149 20.5113 Z"
	 style=" stroke:#000000; stroke-width:1; fill:#0000ff; fill-opacity:100%"></path>
	<ellipse  cx="83.3333" cy="17.6423" rx="10.7271" ry="11.6423"
	 style=" stroke:#000000; stroke-width:1; fill:#0000ff; fill-opacity:100%"></ellipse>
	<ellipse  cx="83.3333" cy="17.6423" rx="5.17767" ry="5.61402"
	 style=" stroke:#000000; stroke-width:1; fill:#a5a500; fill-opacity:100%"></ellipse>
      </g>
    </g>
  </symbol>
 </defs>
</svg>
