<?xml version="1.0"?>
<?metis version="3.0.1"?>
<?metisxml version="1.0"?>
<!DOCTYPE svg  PUBLIC "-//W3C//DTD SVG August 1999//EN"
 "http://www.w3.org/Graphics/SVG/svg-19990812.dtd">

<svg width="200" height="200">
 <title>Symbol library: smart_card.svg</title>
 <defs>
  <symbol id="oid0" xml:space="preserve" class="METIS_SYMBOL">
    <g>
      <polygon points="16 224 375 224 387 211 
       387 10 374 0 15 0 3 14 
       3 213 16 224 "
       style=" stroke:#000000; stroke-width:1; fill:#ffc8c8; fill-opacity:100%"       class="TAG:polygon"></polygon>
      <polygon points="39 186 169 186 169 76 
       39 76 39 186 "
       style=" stroke:#000000; stroke-width:1; fill:#ffc8c8; fill-opacity:100%"       class="TAG:polygon"></polygon>
      <polyline points="101 78 101 104"
       style=" stroke:#000000; stroke-width:1;"       class="TAG:polyline"></polyline>
      <polyline points="103 186 103 166"
       style=" stroke:#000000; stroke-width:1;"       class="TAG:polyline"></polyline>
      <polyline points="39 134 39 134 67 134"
       style=" stroke:#000000; stroke-width:1;"       class="TAG:polyline"></polyline>
      <polyline points="169 134 169 134 137 134"
       style=" stroke:#000000; stroke-width:1;"       class="TAG:polyline"></polyline>
      <polyline points="101 102 74 112 66 134 
       76 156 102 167 130 155 137 134 
       129 111 101 103"
       style=" stroke:#000000; stroke-width:1;"       class="TAG:polyline"></polyline>
      <polyline points="129 109 167 79"
       style=" stroke:#000000; stroke-width:1;"       class="TAG:polyline"></polyline>
      <polyline points="129 156 129 156 169 187"
       style=" stroke:#000000; stroke-width:1;"       class="TAG:polyline"></polyline>
      <polyline points="76 157 42 184"
       style=" stroke:#000000; stroke-width:1;"       class="TAG:polyline"></polyline>
      <polyline points="74 111 41 78"
       style=" stroke:#000000; stroke-width:1;"       class="TAG:polyline"></polyline>
    </g>
    <g>
      <desc>METIS_TEXT_GROUP</desc>
      <text  x="0" y="258"
       style=" stroke:#000000; stroke-width:1; font-family:sans-serif; font-size:18; text-align:center"
       class="TAG:text">text</text>
      <rect x="0" y="240" width="393" height="71"
       style=" stroke:#000000; stroke-width:1; fill:#000000; fill-opacity:0%"></rect>
    </g>
  </symbol>
 </defs>
</svg>
