<?xml version="1.0"?>
<?metis version="3.0"?>
<?metisxml version="1.0"?>
<!DOCTYPE svg  PUBLIC "-//W3C//DTD SVG August 1999//EN"
 "http://www.w3.org/Graphics/SVG/svg-19990812.dtd">

<svg width="200" height="200">
 <title>Symbol library: smpm_scenario.svg</title>
 <defs>
  <symbol id="oid1" xml:space="preserve" class="METIS_SYMBOL">
   <title>Scenario closed</title>
    <polygon points="0 0 0 0 256 0 
     256 192 0 192 0 0 0 0 "
     style=" stroke:#ff0000; stroke-width:2; fill:#ffffff; fill-opacity:100%" class="TAG:polyline"></polygon>
    <polyline points="256 192 256 192 240 160"
     style=" stroke:#ff0000; stroke-width:2;" class="TAG:polyline"></polyline>
    <polyline points="0 192 0 192 16 160"
     style=" stroke:#ff0000; stroke-width:2;" class="TAG:polyline"></polyline>
    <polygon points="248 124 240 164 256 168 
     256 0 202 0 248 124 "
     style=" stroke:#ff0000; stroke-width:2; fill:#ffff00; fill-opacity:100%" class="TAG:polygon"></polygon>
    <polygon points="0 168 16 164 8.5 123 
     52 0 0 0 0 168 "
     style=" stroke:#ff0000; stroke-width:2; fill:#ffff00; fill-opacity:100%" class="TAG:polygon"></polygon>
    <polyline points="16 160 240 160"
     style=" stroke:#ff0000; stroke-width:2;" class="TAG:polyline"></polyline>
    <polyline points="32 12 4 120"
     style=" stroke:#ff0000; stroke-width:2;" class="TAG:polyline"></polyline>
    <polyline points="20 12 8 104"
     style=" stroke:#ff0000; stroke-width:2;" class="TAG:polyline"></polyline>
    <polyline points="8 12 4 108"
     style=" stroke:#ff0000; stroke-width:2;" class="TAG:polyline"></polyline>
    <polyline points="8 124 0 120"
     style=" stroke:#ff0000; stroke-width:2;" class="TAG:polyline"></polyline>
    <polyline points="256 120 248 124"
     style=" stroke:#ff0000; stroke-width:2;" class="TAG:polyline"></polyline>
    <polyline points="244 12 252 116"
     style=" stroke:#ff0000; stroke-width:2;" class="TAG:polyline"></polyline>
    <polyline points="232 12 248 108"
     style=" stroke:#ff0000; stroke-width:2;" class="TAG:polyline"></polyline>
    <polyline points="220 12 248 108"
     style=" stroke:#ff0000; stroke-width:2;" class="TAG:polyline"></polyline>
    <g>
      <desc>METIS_TEXT_GROUP</desc>
      <text  x="50.6809" y="19.8"
       style=" stroke:#000000; stroke-width:2; font-family:sans-serif; font-size:16;" class="TAG:text"
>text</text>
      <rect x="50.6809" y="4" width="153" height="156"
       style=" stroke:#000000; stroke-width:1; fill:#000000; fill-opacity:0%"></rect>
    </g>
  </symbol>
  <symbol id="oid2" xml:space="preserve" class="METIS_SYMBOL">
   <title>Scenario open</title>
    <polygon points="0 0 0 0 256 0 
     256 169.157 0 169.157 0 0 0 0 "
     style=" stroke:#ff0000; stroke-width:2; fill:#ffffff; fill-opacity:100%" class="TAG:polyline"></polygon>
    <polygon points="248 124 240 164 256 168 
     256 0 202 0 248 124 "
     style=" stroke:#ff0000; stroke-width:2; fill:#ffff00; fill-opacity:100%" class="TAG:polygon"></polygon>
    <polygon points="0 168 16 164 8.5 123 
     52 0 0 0 0 168 "
     style=" stroke:#ff0000; stroke-width:2; fill:#ffff00; fill-opacity:100%" class="TAG:polygon"></polygon>
    <polyline points="32 12 4 120"
     style=" stroke:#ff0000; stroke-width:2;" class="TAG:polyline"></polyline>
    <polyline points="20 12 8 104"
     style=" stroke:#ff0000; stroke-width:2;" class="TAG:polyline"></polyline>
    <polyline points="8 12 4 108"
     style=" stroke:#ff0000; stroke-width:2;" class="TAG:polyline"></polyline>
    <polyline points="8 124 0 120"
     style=" stroke:#ff0000; stroke-width:2;" class="TAG:polyline"></polyline>
    <polyline points="256 120 248 124"
     style=" stroke:#ff0000; stroke-width:2;" class="TAG:polyline"></polyline>
    <polyline points="244 12 252 116"
     style=" stroke:#ff0000; stroke-width:2;" class="TAG:polyline"></polyline>
    <polyline points="232 12 248 108"
     style=" stroke:#ff0000; stroke-width:2;" class="TAG:polyline"></polyline>
    <polyline points="220 12 248 108"
     style=" stroke:#ff0000; stroke-width:2;" class="TAG:polyline"></polyline>
    <g>
      <desc>METIS_TEXT_GROUP</desc>
      <text  x="52.2213" y="11.5"
       style=" stroke:#000000; stroke-width:2; font-family:sans-serif; font-size:8;" class="TAG:text"
>text</text>
      <rect x="52.2213" y="4" width="151.081" height="35.5234"
       style=" stroke:#000000; stroke-width:1; fill:#000000; fill-opacity:0%"></rect>
    </g>
  </symbol>
 </defs>
</svg>
