<?xml version="1.0"?>
<?metis version="3.0"?>
<?metisxml version="1.0"?>
<!DOCTYPE svg  PUBLIC "-//W3C//DTD SVG August 1999//EN"
 "http://www.w3.org/Graphics/SVG/svg-19990812.dtd">

<svg width="200" height="200">
 <title>Symbol library: smpm_ref_customer.svg</title>
 <defs>
  <symbol id="oid1" xml:space="preserve" class="METIS_SYMBOL">
   <title>Reference Customer</title>
    <polygon points="0 96 128 96 128 48 
     96 48 96 0 0 0 0 96 "
     style=" stroke:#000000; stroke-width:1; fill:#ff00ff; fill-opacity:100%" class="TAG:polygon"></polygon>
    <polygon points="100.633 18.2473 100.633 18.2473 100.264 20.0489 
     100.125 22.0815 100.356 23.8832 100.864 24.8533 103.082 24.8533 
     102.99 23.2826 102.805 21.6196 102.851 20.0489 103.036 18.9864 
     103.221 18.2473 100.633 18.2473 "
     style=" stroke:#000000; stroke-width:1; fill:#ffffff; fill-opacity:100%" class="TAG:polygon"></polygon>
    <polygon points="103.221 18.4321 103.221 18.4321 105.439 18.1087 
     106.625 18 107.5 17.9375 108.406 18 107.938 18.5312 
     107.148 18.6168 107.148 19.2174 108.766 19.1712 109.736 18.663 
     111.353 18.3859 113.571 18.9402 115.188 19.7717 116.713 21.019 
     118.099 22.2201 119.254 23.6984 119.532 24.3451 118.977 24.8995 
     117.961 24.8995 115.512 22.4973 115.373 21.481 115.466 22.4973 
     118.053 24.8995 117.683 26.0082 116.898 26.1005 115.512 25.1304 
     114.726 24.3451 115.65 25.269 116.944 26.0543 116.297 26.9321 
     115.419 27.1168 114.772 26.6087 114.126 26.2391 113.294 25.6848 
     112.555 25.4538 113.017 24.8071 112.97 24.2065 112.462 23.6522 
     111.353 23.9293 110.891 24.4375 111.215 23.606 110.937 22.8668 
     109.736 22.7745 108.812 23.8832 108.119 24.6685 107.379 25.3152 
     106.825 25.1766 105.808 24.5761 105.069 24.1603 104.376 23.9755 
     103.822 24.2065 103.082 23.8832 102.944 22.3125 102.805 20.8342 
     102.897 19.9565 103.036 18.9864 103.221 18.4321 "
     style=" stroke:#000000; stroke-width:1; fill:#ff6e6e; fill-opacity:100%" class="TAG:polygon"></polygon>
    <polygon points="104.653 24.0679 104.653 24.0679 104.33 25.038 
     104.33 25.731 104.792 26.0543 105.624 25.8696 106.224 24.8995 
     105.716 24.5299 104.653 24.0679 "
     style=" stroke:#000000; stroke-width:1; fill:#ff6e6e; fill-opacity:100%" class="TAG:polygon"></polygon>
    <polygon points="106.548 25.0842 106.548 25.1304 106.363 26.0543 
     106.687 26.7935 107.333 27.2554 107.934 27.3016 108.535 27.0707 
     108.997 27.163 109.736 25.731 110.475 24.9918 110.891 24.3451 
     111.261 23.5136 110.845 22.7745 109.69 22.7745 108.442 24.3913 
     107.287 25.3152 106.548 25.0842 "
     style=" stroke:#000000; stroke-width:1; fill:#ff6e6e; fill-opacity:100%" class="TAG:polygon"></polygon>
    <polygon points="109.967 22.9823 109.805 23.2364 109.551 23.7215 
     110.521 24.0679 110.799 23.2364 110.544 23.0285 109.967 22.9823 "
     style=" stroke:#000000; stroke-width:1; fill:#ffa596; fill-opacity:100%" class="TAG:polygon"></polygon>
    <polygon points="110.844 24.5299 110.798 24.5299 109.689 25.8234 
     108.95 27.3016 109.089 28.1793 109.689 28.6875 110.244 28.2255 
     111.029 27.4864 111.907 26.3777 112.647 25.5462 112.97 24.8533 
     112.97 24.2065 112.462 23.6984 111.307 23.9755 110.844 24.5299 "
     style=" stroke:#000000; stroke-width:1; fill:#ff6e6e; fill-opacity:100%" class="TAG:polygon"></polygon>
    <polygon points="111.792 24.1141 111.399 24.6916 112 25.0842 
     112.624 24.4837 112.323 24.0217 111.792 24.1141 "
     style=" stroke:#000000; stroke-width:1; fill:#ffa596; fill-opacity:100%" class="TAG:polygon"></polygon>
    <polygon points="112.6 25.5462 112.6 25.5462 110.983 27.625 
     111.122 28.3179 111.63 28.5489 112.323 28.2255 112.877 27.6712 
     113.432 26.8859 113.594 26.1929 113.34 25.7079 112.947 25.5693 112.6 25.5462 "
     style=" stroke:#000000; stroke-width:1; fill:#ff6e6e; fill-opacity:100%" class="TAG:polygon"></polygon>
    <polygon points="112.577 26.0082 112.323 26.5163 112.831 26.9783 
     113.132 26.5856 113.293 26.2622 112.901 25.8927 112.577 26.0082 "
     style=" stroke:#000000; stroke-width:1; fill:#ffa596; fill-opacity:100%" class="TAG:polygon"></polygon>
    <polygon points="113.941 26.1467 113.571 26.5163 113.248 27.394 
     113.802 27.856 114.449 27.7636 115.142 27.625 115.466 27.163 
     114.542 26.5163 113.941 26.1467 "
     style=" stroke:#000000; stroke-width:1; fill:#ff6e6e; fill-opacity:100%" class="TAG:polygon"></polygon>
    <polygon points="107.102 18.5707 107.934 18.4783 108.673 17.6467 
     109.597 16.8614 111.168 16.3533 113.155 15.9375 114.68 16.0299 
     115.835 16.4918 117.961 17.231 119.347 17.5082 120.918 17.3234 
     121.38 19.2174 121.426 21.019 121.241 22.5435 120.456 23.5598 
     119.532 24.0679 118.654 22.7745 117.73 21.8505 116.482 20.788 
     115.05 19.7255 113.756 19.0788 112.231 18.6168 111.215 18.3397 
     109.736 18.663 108.812 19.1712 107.056 19.2636 107.102 18.5707 "
     style=" stroke:#000000; stroke-width:1; fill:#ff6e6e; fill-opacity:100%" class="TAG:polygon"></polygon>
    <polygon points="121.01 22.7745 121.01 22.7745 120.825 23.6522 
     123.043 23.6984 123.598 22.3587 123.875 20.3723 123.783 18.3859 
     123.321 17.3696 123.043 16.8152 120.733 17.1386 121.426 19.2174 
     121.334 20.9266 121.01 22.7745 "
     style=" stroke:#000000; stroke-width:1; fill:#ffffff; fill-opacity:100%" class="TAG:polygon"></polygon>
    <polyline points="115.881 20.2799 115.881 20.3261 117.129 20.9728 
     118.145 21.3424 118.7 21.1576 119.393 20.4647"
     style=" stroke:#000000; stroke-width:1;" class="TAG:polyline"></polyline>
    <g>
      <desc>METIS_TEXT_GROUP</desc>
      <text  x="4" y="19.8"
       style=" stroke:#000000; stroke-width:1; font-family:sans-serif; font-size:16;" class="TAG:text"
>text</text>
      <rect x="4" y="4" width="88" height="88"
       style=" stroke:#000000; stroke-width:1; fill:#000000; fill-opacity:0%"></rect>
    </g>
  </symbol>
 </defs>
</svg>
