<?xml version="1.0"?>
<?metis version="3.0"?>
<?metisxml version="1.0"?>
<!DOCTYPE svg  PUBLIC "-//W3C//DTD SVG August 1999//EN"
 "http://www.w3.org/Graphics/SVG/svg-19990812.dtd">

<svg width="200" height="200">
 <title>Symbol library: smpm_person.svg</title>
 <defs>
  <symbol id="oid1" xml:space="preserve" class="METIS_SYMBOL">
   <title>Person</title>
    <polygon points="240 48 239.589 41.735 238.364 35.577 
     236.346 29.631 233.569 24 230.081 18.779 225.941 14.059 
     221.221 9.919 216 6.431 210.369 3.654 204.423 1.636 
     198.265 0.411 192 0 185.735 0.411 179.577 1.636 
     173.631 3.654 168 6.431 162.779 9.919 158.059 14.059 
     153.919 18.779 150.431 24 147.654 29.631 145.636 35.577 
     144.411 41.735 144 48 144.411 54.265 145.636 60.423 
     147.654 66.369 150.431 72 153.919 77.221 158.059 81.941 
     162.779 86.081 168 89.569 168 112 96 112 
     96 240 144 288 160 496 224 496 
     240 288 288 240 288 112 216 112 
     216 89.569 221.221 86.081 225.941 81.941 230.081 77.221 
     233.569 72 236.346 66.369 238.364 60.423 239.589 54.265 240 48 "
     style=" stroke:#000000; stroke-width:1; fill:#ffcb96; fill-opacity:100%" class="TAG:polygon"></polygon>
    <g>
      <desc>METIS_TEXT_GROUP</desc>
      <text  x="0" y="527.8"
       style=" stroke:#000000; stroke-width:1; font-family:sans-serif; font-size:16;" class="TAG:text"
>text</text>
      <rect x="0" y="512" width="384" height="34"
       style=" stroke:#000000; stroke-width:1; fill:#000000; fill-opacity:0%"></rect>
    </g>
  </symbol>
 </defs>
</svg>
