<?xml version="1.0"?>
<?metis version="3.0"?>
<?metisxml version="1.0"?>
<!DOCTYPE svg  PUBLIC "-//W3C//DTD SVG August 1999//EN"
 "http://www.w3.org/Graphics/SVG/svg-19990812.dtd">

<svg width="200" height="200">
 <title>Symbol library: smpm_trend_truth.svg</title>
 <defs>
  <symbol id="oid1" xml:space="preserve" class="METIS_SYMBOL">
   <title>Trend/Truth</title>
    <polygon points="0 0 0 384 512 384 
     512 192 384 192 384 0 0 0 "
     style=" stroke:#000000; stroke-width:1; fill:#ff00ff; fill-opacity:100%" class="TAG:polygon"></polygon>
    <polygon points="436 74.667 424 88.889 424 117.333 
     436 131.556 436 145.778 436 160 460 160 
     460 145.778 460 131.556 472 117.333 472 88.889 
     460 74.667 436 74.667 "
     style=" stroke:#000000; stroke-width:1; fill:#ff00ff; fill-opacity:100%" class="TAG:polygon"></polygon>
    <polyline points="412 46.222 412 46.222 424 60.444"
     style=" stroke:#000000; stroke-width:1;" class="TAG:polyline"></polyline>
    <polyline points="448 32 448 32 448 60.444"
     style=" stroke:#000000; stroke-width:1;" class="TAG:polyline"></polyline>
    <polyline points="472 60.444 472 60.444 484 46.222"
     style=" stroke:#000000; stroke-width:1;" class="TAG:polyline"></polyline>
    <polyline points="484 103.111 484 103.111 496 103.111"
     style=" stroke:#000000; stroke-width:1;" class="TAG:polyline"></polyline>
    <polyline points="400 103.111 400 103.111 412 103.111"
     style=" stroke:#000000; stroke-width:1;" class="TAG:polyline"></polyline>
    <g>
      <desc>METIS_TEXT_GROUP</desc>
      <text  x="16" y="31.8"
       style=" stroke:#000000; stroke-width:1; font-family:sans-serif; font-size:16;" class="TAG:text"
>text</text>
      <rect x="16" y="16" width="352" height="352"
       style=" stroke:#000000; stroke-width:1; fill:#000000; fill-opacity:0%"></rect>
    </g>
  </symbol>
 </defs>
</svg>
