<?xml version="1.0"?>
<?metis version="3.0"?>
<?metisxml version="1.0"?>
<!DOCTYPE svg  PUBLIC "-//W3C//DTD SVG August 1999//EN"
 "http://www.w3.org/Graphics/SVG/svg-19990812.dtd">

<svg width="200" height="200">
 <title>Symbol library: smpm_sales_item.svg</title>
 <defs>
  <symbol id="oid1" xml:space="preserve" class="METIS_SYMBOL">
   <title>Sales Item</title>
    <polygon points="0 196 256 196 256 100 
     192 100 192 4 0 4 0 196 "
     style=" stroke:#000000; stroke-width:1; fill:#ff962d; fill-opacity:100%" class="TAG:polygon"></polygon>
    <g>
      <desc>METIS_TEXT_GROUP</desc>
      <text  x="8" y="27.8"
       style=" stroke:#000000; stroke-width:1; font-family:sans-serif; font-size:16;" class="TAG:text"
>text</text>
      <rect x="8" y="12" width="176" height="176"
       style=" stroke:#000000; stroke-width:1; fill:#000000; fill-opacity:0%"></rect>
    </g>
    <polygon points="240 4 240 4 200 4 
     200 52 240 52 240 84 200 84 
     200 92 248 92 248 44 208 44 
     208 12 248 12 248 4 240 4 "
     style=" stroke:#000000; stroke-width:1; fill:#ff962d; fill-opacity:100%" class="TAG:polygon"></polygon>
    <polygon points="220 96 228 96 228 0 
     220 0 220 96 "
     style=" stroke:#000000; stroke-width:1; fill:#ff962d; fill-opacity:100%" class="TAG:polygon"></polygon>
  </symbol>
 </defs>
</svg>
