<?xml version="1.0"?>
<?metis version="3.1"?>
<?metisxml version="1.0"?>
<!DOCTYPE svg  PUBLIC "-//W3C//DTD SVG August 1999//EN"
 "http://www.w3.org/Graphics/SVG/svg-19990812.dtd">

<svg width="200" height="200">
 <title>Symbol library: smpm_product_properties.svg</title>
 <defs>
  <symbol id="oid1" xml:space="preserve" class="METIS_SYMBOL">
   <title>Product Properties</title>
    <polygon points="64 80 320 80 320 40 
     320 0 64 0 64 80 64 80 "
     style=" stroke:#000000; stroke-width:1; fill:#ffff00; fill-opacity:100%"     class="TAG:polygon"></polygon>
    <g>
      <polygon points="0 34.2857 20.851 34.2857 10.425 0 
       0 34.2857 0 34.2857 "
       style=" stroke:#000000; stroke-width:1; fill:#ffff00; fill-opacity:100%"       class="TAG:polygon"></polygon>
      <polygon points="25.846 34.2857 48 34.2857 48 0 
       25.846 0 25.846 34.2857 25.846 34.2857 "
       style=" stroke:#000000; stroke-width:1; fill:#ffff00; fill-opacity:100%"       class="TAG:polygon"></polygon>
      <polygon points="8.308 67.1429 8.308 80 13.846 80 
       13.846 67.1429 22.154 67.1429 22.154 58.5714 13.846 58.5714 
       13.846 45.7143 8.308 45.7143 8.308 58.5714 0 58.5714 
       0 67.1429 8.308 67.1429 8.308 67.1429 "
       style=" stroke:#000000; stroke-width:1; fill:#ffff00; fill-opacity:100%"       class="TAG:polygon"></polygon>
      <polygon points="36.923 80 48 62.8571 36.923 45.7143 
       25.846 62.8571 36.923 80 36.923 80 "
       style=" stroke:#000000; stroke-width:1; fill:#ffff00; fill-opacity:100%"       class="TAG:polygon"></polygon>
    </g>
    <g>
      <desc>METIS_TEXT_GROUP</desc>
      <text  x="72" y="23.8"
       style=" stroke:#000000; stroke-width:1; font-family:sans-serif; font-size:16;"
       class="TAG:text">text</text>
      <rect x="72" y="8" width="248" height="72"
       style=" stroke:#000000; stroke-width:1; fill:#000000; fill-opacity:0%"></rect>
    </g>
  </symbol>
 </defs>
</svg>
