<?xml version="1.0"?>
<?metis version="3.0"?>
<?metisxml version="1.0"?>
<!DOCTYPE svg  PUBLIC "-//W3C//DTD SVG August 1999//EN"
 "http://www.w3.org/Graphics/SVG/svg-19990812.dtd">

<svg width="200" height="200">
 <title>Symbol library: smpm_partner.svg</title>
 <defs>
  <symbol id="oid1" xml:space="preserve" class="METIS_SYMBOL">
   <title>Partner</title>
    <polygon points="8 160 56 160 92 156 
     120 160 160 168 184 168 216 160 
     248 144 296 120 300 104 296 88 
     288 76 272 72 252 72 232 80 
     152 112 232 80 252 72 272 72 
     288 76 296 88 300 104 296 120 
     280 128 248 144 264 192 280 204 
     296 208 316 204 328 192 340 164 
     344 132 348 92 344 64 332 36 
     312 16 284 4 248 0 216 4 
     184 16 156 32 136 48 104 80 
     56 88 8 88 8 160 "
     style=" stroke:#000000; stroke-width:1; fill:#00ff00; fill-opacity:100%" class="TAG:polygon"></polygon>
    <polygon points="20 160 44 160 44 88 
     20 88 20 160 "
     style=" stroke:#000000; stroke-width:1; fill:#ffffff; fill-opacity:100%" class="TAG:polygon"></polygon>
    <polygon points="368 160 416 160 452 156 
     480 160 520 168 544 168 576 160 
     608 144 656 120 660 104 656 88 
     648 76 632 72 612 72 592 80 
     512 112 592 80 612 72 632 72 
     648 76 656 88 660 104 656 120 
     640 128 608 144 624 192 640 204 
     656 208 676 204 688 192 700 164 
     704 132 708 92 704 64 692 36 
     672 16 644 4 608 0 576 4 
     544 16 516 32 496 48 464 80 
     416 88 368 88 368 160 "
     style=" stroke:#000000; stroke-width:1; fill:#00ff00; fill-opacity:100%" class="TAG:polygon"></polygon>
    <polygon points="380 160 404 160 404 88 
     380 88 380 160 "
     style=" stroke:#000000; stroke-width:1; fill:#ffffff; fill-opacity:100%" class="TAG:polygon"></polygon>
    <g>
      <desc>METIS_TEXT_GROUP</desc>
      <text  x="0" y="227.8"
       style=" stroke:#000000; stroke-width:1; font-family:sans-serif; font-size:16;" class="TAG:text"
>text</text>
      <rect x="0" y="212" width="716" height="188"
       style=" stroke:#000000; stroke-width:1; fill:#000000; fill-opacity:0%"></rect>
    </g>
  </symbol>
 </defs>
</svg>
