<?xml version="1.0"?>
<?metis version="3.0"?>
<?metisxml version="1.0"?>
<!DOCTYPE svg  PUBLIC "-//W3C//DTD SVG August 1999//EN"
 "http://www.w3.org/Graphics/SVG/svg-19990812.dtd">

<svg width="200" height="200">
 <title>Symbol library: smpm_product_item.svg</title>
 <defs>
  <symbol id="oid1" xml:space="preserve" class="METIS_SYMBOL">
   <title>Product Item</title>
    <polygon points="0 192 256 192 256 96 
     192 96 192 0 0 0 0 192 "
     style=" stroke:#000000; stroke-width:1; fill:#ffff00; fill-opacity:100%" class="TAG:polygon"></polygon>
    <polygon points="222.154 24 236.923 24 236.923 8 
     222.154 8 222.154 24 "
     style=" stroke:#000000; stroke-width:1; fill:#ffff00; fill-opacity:100%" class="TAG:polygon"></polygon>
    <polygon points="211.077 56 225.846 56 225.846 40 
     211.077 40 211.077 56 "
     style=" stroke:#000000; stroke-width:1; fill:#ffff00; fill-opacity:100%" class="TAG:polygon"></polygon>
    <polygon points="233.231 56 248 56 248 40 
     233.231 40 233.231 56 "
     style=" stroke:#000000; stroke-width:1; fill:#ffff00; fill-opacity:100%" class="TAG:polygon"></polygon>
    <polygon points="222.154 88 236.923 88 236.923 72 
     222.154 72 222.154 88 "
     style=" stroke:#000000; stroke-width:1; fill:#ffff00; fill-opacity:100%" class="TAG:polygon"></polygon>
    <polygon points="200 88 214.769 88 214.769 72 
     200 72 200 88 "
     style=" stroke:#000000; stroke-width:1; fill:#ffff00; fill-opacity:100%" class="TAG:polygon"></polygon>
    <polyline points="229.539 24 229.539 24 229.539 32 
     218.462 32 218.462 40"
     style=" stroke:#000000; stroke-width:1;" class="TAG:polyline"></polyline>
    <polyline points="218.462 56 218.462 56 218.462 64 
     207.385 64 207.385 72"
     style=" stroke:#000000; stroke-width:1;" class="TAG:polyline"></polyline>
    <polyline points="229.539 24 229.539 24 229.539 32 
     240.616 32 240.616 40"
     style=" stroke:#000000; stroke-width:1;" class="TAG:polyline"></polyline>
    <polyline points="218.462 56 218.462 56 218.462 64 
     229.539 64 229.539 72"
     style=" stroke:#000000; stroke-width:1;" class="TAG:polyline"></polyline>
    <g>
      <desc>METIS_TEXT_GROUP</desc>
      <text  x="8" y="23.8"
       style=" stroke:#000000; stroke-width:1; font-family:sans-serif; font-size:16;" class="TAG:text"
>text</text>
      <rect x="8" y="8" width="176" height="176"
       style=" stroke:#000000; stroke-width:1; fill:#000000; fill-opacity:0%"></rect>
    </g>
  </symbol>
 </defs>
</svg>
