<?xml version="1.0"?>
<?metis version="3.1"?>
<?metisxml version="1.0"?>
<!DOCTYPE svg  PUBLIC "-//W3C//DTD SVG August 1999//EN"
 "http://www.w3.org/Graphics/SVG/svg-19990812.dtd">

<svg width="200" height="200">
 <title>Symbol library: smpm_delivery_dompetence.svg</title>
 <defs>
  <symbol id="oid1" xml:space="preserve" class="METIS_SYMBOL">
   <title>Delivery Competence</title>
    <polygon points="64 80 320 80 320 40 
     320 0 64 0 64 80 64 80 "
     style=" stroke:#000000; stroke-width:1; fill:#ff962d; fill-opacity:100%"     class="TAG:polygon"></polygon>
    <g>
      <polygon points="17.5 23.5 0 70.25 4 67.5 
       2.25 73.5 6 69.75 6 76 10 71.5 
       12.25 77.75 24.75 24.25 32.25 77.5 34.5 71.25 
       36.25 77.75 38.5 72 40 76.25 40.25 69.5 
       44.75 72.5 31.75 22.5 17.5 23.5 17.5 23.5 "
       style=" stroke:#000000; stroke-width:1; fill:#ff962d; fill-opacity:100%"       class="TAG:polygon"></polygon>
      <polyline points="20.375 23.75 20.375 23.75 18.375 31.75"
       style=" stroke:#000000; stroke-width:1;"       class="TAG:polyline"></polyline>
      <polyline points="22.375 24 22.375 24 20.375 31"
       style=" stroke:#000000; stroke-width:1;"       class="TAG:polyline"></polyline>
      <polyline points="27.125 23.75 27.125 23.75 28.125 31.75"
       style=" stroke:#000000; stroke-width:1;"       class="TAG:polyline"></polyline>
      <polyline points="29.625 23.25 29.625 23.25 30.625 30.25"
       style=" stroke:#000000; stroke-width:1;"       class="TAG:polyline"></polyline>
      <ellipse  cx="23.625" cy="12" rx="15.5" ry="12"
       style=" stroke:#000000; stroke-width:1; fill:#ff962d; fill-opacity:100%"       class="TAG:polygon"></ellipse>
      <ellipse  cx="23.625" cy="12" rx="5.5" ry="4"
       style=" stroke:#000000; stroke-width:1; fill:#ff962d; fill-opacity:100%"       class="TAG:polygon"></ellipse>
    </g>
    <g>
      <desc>METIS_TEXT_GROUP</desc>
      <text  x="72" y="23.8"
       style=" stroke:#000000; stroke-width:1; font-family:sans-serif; font-size:16;"
       class="TAG:text">text</text>
      <rect x="72" y="8" width="248" height="72"
       style=" stroke:#000000; stroke-width:1; fill:#000000; fill-opacity:0%"></rect>
    </g>
  </symbol>
 </defs>
</svg>
