<?xml version="1.0"?>
<?metis version="3.0"?>
<?metisxml version="1.0"?>
<!DOCTYPE svg  PUBLIC "-//W3C//DTD SVG August 1999//EN"
 "http://www.w3.org/Graphics/SVG/svg-19990812.dtd">

<svg width="200" height="200">
 <title>Symbol library: smpm_competitor.svg</title>
 <defs>
  <symbol id="oid1" xml:space="preserve" class="METIS_SYMBOL">
   <title>Competitor</title>
    <polygon points="8 160 56 160 92 156 
     120 160 160 168 184 168 216 160 
     248 144 296 120 300 104 296 88 
     288 76 272 72 252 72 232 80 
     152 112 232 80 252 72 272 72 
     288 76 296 88 300 104 296 120 
     280 128 248 144 264 192 280 204 
     296 208 316 204 328 192 340 164 
     344 132 348 92 344 64 332 36 
     312 16 284 4 248 0 216 4 
     184 16 156 32 136 48 104 80 
     56 88 8 88 8 160 "
     style=" stroke:#000000; stroke-width:1; fill:#ff0000; fill-opacity:100%" class="TAG:polygon"></polygon>
    <polygon points="20 160 44 160 44 88 
     20 88 20 160 "
     style=" stroke:#000000; stroke-width:1; fill:#ffffff; fill-opacity:100%" class="TAG:polygon"></polygon>
    <polygon points="708 160 660 160 624 156 
     596 160 556 168 532 168 500 160 
     468 144 420 120 416 104 420 88 
     428 76 444 72 464 72 484 80 
     564 112 484 80 464 72 444 72 
     428 76 420 88 416 104 420 120 
     436 128 468 144 452 192 436 204 
     420 208 400 204 388 192 376 164 
     372 132 368 92 372 64 384 36 
     404 16 432 4 468 0 500 4 
     532 16 560 32 580 48 612 80 
     660 88 708 88 708 160 "
     style=" stroke:#000000; stroke-width:1; fill:#ff0000; fill-opacity:100%" class="TAG:polygon"></polygon>
    <polygon points="696 160 672 160 672 88 
     696 88 696 160 "
     style=" stroke:#000000; stroke-width:1; fill:#ffffff; fill-opacity:100%" class="TAG:polygon"></polygon>
    <g>
      <desc>METIS_TEXT_GROUP</desc>
      <text  x="0" y="227.8"
       style=" stroke:#000000; stroke-width:1; font-family:sans-serif; font-size:16;" class="TAG:text"
>text</text>
      <rect x="0" y="212" width="716" height="188"
       style=" stroke:#000000; stroke-width:1; fill:#000000; fill-opacity:0%"></rect>
    </g>
  </symbol>
 </defs>
</svg>
