<?xml version="1.0"?>
<?metis version="3.1"?>
<?metisxml version="1.0"?>
<!DOCTYPE svg  PUBLIC "-//W3C//DTD SVG August 1999//EN"
 "http://www.w3.org/Graphics/SVG/svg-19990812.dtd">

<svg width="200" height="200">
 <title>Symbol library: smpm_customer_opportunity.svg</title>
 <defs>
  <symbol id="oid1" xml:space="preserve" class="METIS_SYMBOL">
   <title>Opportunity</title>
    <g>
      <polygon points="-3.55271e-015 0 -3.55271e-015 304 16 320 
       880 320 880 16 864 0 -3.55271e-015 0 
       -3.55271e-015 0 -3.55271e-015 0 -3.55271e-015 0 -3.55271e-015 0 -3.55271e-015 0 "
       style=" stroke:#000000; stroke-width:1; fill:#9b9b9b; fill-opacity:100%"       class="TAG:shadow"></polygon>
      <rect x="-3.55271e-015" y="0" width="240" height="304"
       style=" stroke:#000000; stroke-width:1; fill:#ffffff; fill-opacity:100%"       class="TAG:PictureBackground"></rect>
      <rect x="240" y="0" width="624" height="304"
       style=" stroke:#000000; stroke-width:1; fill:#ff5050; fill-opacity:100%"       class="TAG:canvas"></rect>
      <rect x="245.357" y="25.7143" width="569.522" height="231.429"
       style="stroke:none; fill:#878787; fill-opacity:0%"       class="TAG:grid"></rect>
      <g>
	<desc>METIS_TEXT_GROUP</desc>
	<text  x="256" y="15.8"
	 style=" stroke:#000000; stroke-width:1; font-family:sans-serif; font-size:16;"
	 class="TAG:text">text</text>
	<rect x="256" y="0" width="608" height="304"
	 style=" stroke:#000000; stroke-width:1; fill:#ffffff; fill-opacity:0%"></rect>
      </g>
      <polyline points="864 304 880 320"
       style=" stroke:#000000; stroke-width:1;"></polyline>
      <g>
	<path d="M 88.5713 218.151 C 88.5713 240.714 88.5713 251.996 
	 88.5713 263.278 C 88.5713 273.416 118.409 275 126.286 274.56 
	 C 136.056 274.014 157.714 273.15 157.714 263.278 C 157.714 251.996 
	 157.714 235.074 157.714 218.151 C 157.714 218.151 157.714 218.151 
	 157.714 218.151 C 157.714 218.151 157.714 218.151 157.714 218.151 
	 C 157.714 218.151 157.714 218.151 157.714 218.151 C 157.714 218.151 
	 157.714 218.151 157.714 218.151 Z"
	 style=" stroke:#000000; stroke-width:1; fill:#b9b9b9; fill-opacity:100%"></path>
	<path d="M 82.668 185.775 C 74.8184 172.815 53.257 157.666 
	 47.3434 147.126 C 41.8221 137.284 32 125.294 34.1409 101.224 
	 C 36.5043 74.6505 47.6998 61.726 60.1883 49.9228 C 74.9313 35.9887 
	 107.852 32 123.214 32.0554 C 136.191 32.1023 162.594 35.1881 
	 176.868 47.5313 C 194.708 62.9602 204.699 74.6865 206.305 99.9129 
	 C 208 126.541 200.996 134.182 194.708 145.66 C 188.286 157.385 
	 168.427 172.24 161.881 186.392 C 159.027 192.564 161.169 216.379 
	 157.714 218.151 C 146.714 223.792 134.143 225.202 121.571 225.202 
	 C 109.42 225.202 101.143 225.202 88.5713 218.151 Z"
	 style=" stroke:#000000; stroke-width:1; fill:#ff0000; fill-opacity:100%"	 class="TAG:LightBulb"></path>
	<path d="M 107.429 222.381 C 107.429 182.883 106.694 166.952 
	 103.007 155.689 C 101.274 150.395 91.4489 140.14 83.7381 120.511 
	 C 78.4655 107.088 82.1659 98.9045 92.9493 98.9045 C 102.052 98.9045 
	 111.557 105.661 111.557 113.167 C 111.557 120.848 105.345 128.998 
	 101.408 128.711 C 97.0124 128.391 93.3727 121.033 93.3727 113.716 
	 C 93.3727 105.853 103.077 99.0872 112.191 99.0872 C 119.592 99.0872 
	 129.761 105.312 129.319 113.351 C 128.895 121.031 123.883 128.526 
	 119.38 128.711 C 113.952 128.934 111.784 121.403 111.557 113.351 
	 C 111.345 105.853 120.863 98.9126 129.953 99.0872 C 139.468 99.27 
	 148.56 106.219 148.56 114.082 C 148.56 121.945 143.914 128.643 
	 138.834 128.528 C 133.911 128.417 129.333 120.848 129.53 113.351 
	 C 129.742 105.305 137.719 99.0872 148.56 99.0872 C 159.556 99.0872 
	 163.784 107.636 158.709 120.482 C 150.718 140.713 141.694 150.171 
	 139.402 156.615 C 135.12 168.649 135.714 215.33 135.714 220.971"
	 style=" stroke:#000000; stroke-width:1;"	 class="TAG:LightBulb"></path>
	<path d="M 88.5713 223.792 C 99.5713 229.432 109.174 231.484 
	 123.143 230.843 C 139.68 230.084 150.729 227.803 157.714 223.792"
	 style=" stroke:#000000; stroke-width:1;"	 class="TAG:LightBulb"></path>
	<path d="M 88.5713 235.074 C 99.5713 240.714 109.174 242.766 
	 123.143 242.125 C 139.68 241.366 150.729 239.085 157.714 235.074"
	 style=" stroke:#000000; stroke-width:1;"	 class="TAG:LightBulb"></path>
	<path d="M 88.5713 246.355 C 99.5713 251.996 109.174 254.047 
	 123.143 253.406 C 139.68 252.648 150.729 250.366 157.714 246.355"
	 style=" stroke:#000000; stroke-width:1;"	 class="TAG:LightBulb"></path>
	<path d="M 88.5713 257.637 C 99.5713 263.278 109.174 265.329 
	 123.143 264.688 C 139.68 263.93 150.729 261.648 157.714 257.637"
	 style=" stroke:#000000; stroke-width:1;"	 class="TAG:LightBulb"></path>
	<path d="M 88.5713 229.432 C 99.5713 235.074 109.174 237.124 
	 123.143 236.483 C 139.68 235.725 150.729 233.444 157.714 229.432"
	 style=" stroke:#000000; stroke-width:1;"	 class="TAG:LightBulb"></path>
	<path d="M 88.5713 240.714 C 99.5713 246.355 109.174 248.406 
	 123.143 247.765 C 139.68 247.007 150.729 244.726 157.714 240.714"
	 style=" stroke:#000000; stroke-width:1;"	 class="TAG:LightBulb"></path>
	<path d="M 88.5713 251.996 C 99.5713 257.637 109.174 259.688 
	 123.143 259.048 C 139.68 258.289 150.729 256.008 157.714 251.996"
	 style=" stroke:#000000; stroke-width:1;"	 class="TAG:LightBulb"></path>
	<path d="M 88.5713 263.278 C 99.5713 268.919 109.174 270.97 
	 123.143 270.329 C 139.68 269.57 150.729 267.289 157.714 263.278"
	 style=" stroke:#000000; stroke-width:1;"	 class="TAG:LightBulb"></path>
      </g>
    </g>
  </symbol>
 </defs>
</svg>
