<?xml version="1.0"?>
<?metis version="3.0"?>
<?metisxml version="1.0"?>
<!DOCTYPE svg  PUBLIC "-//W3C//DTD SVG August 1999//EN"
 "http://www.w3.org/Graphics/SVG/svg-19990812.dtd">

<svg width="200" height="200">
 <title>Symbol library: smpm_partner_deliverable.svg</title>
 <defs>
  <symbol id="oid1" xml:space="preserve" class="METIS_SYMBOL">
   <title>Partner Deliverable</title>
    <polygon points="0 192 256 192 256 96 
     192 96 192 0 0 0 0 192 "
     style=" stroke:#000000; stroke-width:1; fill:#ffff00; fill-opacity:100%" class="TAG:polygon"></polygon>
    <polygon points="200 42.2857 220.851 42.2857 210.425 8 200 42.2857 "
     style=" stroke:#000000; stroke-width:1; fill:#ffff00; fill-opacity:100%" class="TAG:polygon"></polygon>
    <polygon points="225.846 42.2857 248 42.2857 248 8 
     225.846 8 225.846 42.2857 "
     style=" stroke:#000000; stroke-width:1; fill:#ffff00; fill-opacity:100%" class="TAG:polygon"></polygon>
    <polygon points="208.308 75.1429 208.308 88 213.846 88 
     213.846 75.1429 222.154 75.1429 222.154 66.5714 213.846 66.5714 
     213.846 53.7143 208.308 53.7143 208.308 66.5714 200 66.5714 
     200 75.1429 208.308 75.1429 "
     style=" stroke:#000000; stroke-width:1; fill:#ffff00; fill-opacity:100%" class="TAG:polygon"></polygon>
    <polygon points="236.923 88 248 70.8571 236.923 53.7143 
     225.846 70.8571 236.923 88 "
     style=" stroke:#000000; stroke-width:1; fill:#ffff00; fill-opacity:100%" class="TAG:polygon"></polygon>
    <g>
      <desc>METIS_TEXT_GROUP</desc>
      <text  x="8" y="23.8"
       style=" stroke:#000000; stroke-width:1; font-family:sans-serif; font-size:16;" class="TAG:text"
>text</text>
      <rect x="8" y="8" width="176" height="176"
       style=" stroke:#000000; stroke-width:1; fill:#000000; fill-opacity:0%"></rect>
    </g>
  </symbol>
 </defs>
</svg>
