<?xml version="1.0"?>
<?metis version="3.1"?>
<?metisxml version="1.0"?>
<!DOCTYPE svg  PUBLIC "-//W3C//DTD SVG August 1999//EN"
 "http://www.w3.org/Graphics/SVG/svg-19990812.dtd">

<svg width="200" height="200">
 <title>Symbol library: smpm_product_tool.svg</title>
 <defs>
  <symbol id="oid1" xml:space="preserve" class="METIS_SYMBOL">
   <title>Product Tool</title>
    <polygon points="64 80 320 80 320 40 
     320 0 64 0 64 80 64 80 "
     style=" stroke:#000000; stroke-width:1; fill:#ff8000; fill-opacity:100%"     class="TAG:polygon"></polygon>
    <g>
      <desc>METIS_TEXT_GROUP</desc>
      <text  x="72" y="23.8"
       style=" stroke:#000000; stroke-width:1; font-family:sans-serif; font-size:16;"
       class="TAG:text">text</text>
      <rect x="72" y="8" width="248" height="72"
       style=" stroke:#000000; stroke-width:1; fill:#000000; fill-opacity:0%"></rect>
    </g>
    <g>
      <polygon points="42 11.25 30.5 4 32 1.25 
       38 0 44.75 1.25 51.25 5 54.5 7.25 
       55.25 13 54 19 51 23.5 44.25 25 
       38 30 28 43.5 22.25 54.75 18.75 65.25 
       15.25 73 9 77.5 3.25 77 0 74.5 
       0.25 67.5 3.5 61 10.75 52.25 42 11.25 42 11.25 "
       style=" stroke:#000000; stroke-width:1; fill:#ff8000; fill-opacity:100%"       class="TAG:polygon"></polygon>
      <polygon points="30.75 24.25 23.5 13.25 25.75 10 
       36 17.25 30.75 24.25 30.75 24.25 "
       style=" stroke:#000000; stroke-width:1; fill:#ff8000; fill-opacity:100%"       class="TAG:polygon"></polygon>
    </g>
  </symbol>
 </defs>
</svg>
