<?xml version="1.0"?>
<?metis version="3.0"?>
<?metisxml version="1.0"?>
<!DOCTYPE svg  PUBLIC "-//W3C//DTD SVG August 1999//EN"
 "http://www.w3.org/Graphics/SVG/svg-19990812.dtd">

<svg width="200" height="200">
 <title>Symbol library: smpm_market_segment.svg</title>
 <defs>
  <symbol id="oid1" xml:space="preserve" class="METIS_SYMBOL">
   <title>Market Segment</title>
    <polygon points="256 128 128 128 224 44 
     218.51 37.4903 205.922 26.451 192 17.149 176.983 9.743 
     161.129 4.362 144.707 1.095 128 0 111.293 1.095 
     94.8712 4.362 79.017 9.743 64 17.149 50.079 26.451 
     37.49 37.4903 26.451 50.0785 17.149 64 9.743 79.0165 
     4.362 94.8712 1.095 111.293 0 128 1.095 144.707 
     4.362 161.129 9.743 176.983 17.149 192 26.451 205.921 
     37.49 218.51 50.079 229.549 64 238.851 79.017 246.257 
     94.8712 251.638 111.293 254.905 128 256 144.707 254.905 
     161.129 251.638 176.983 246.257 192 238.851 205.922 229.549 
     218.51 218.51 229.549 205.921 238.851 192 246.257 176.983 
     251.638 161.129 254.905 144.707 256 128 "
     style=" stroke:#000000; stroke-width:1; fill:#ff962d; fill-opacity:100%" class="TAG:polygon"></polygon>
    <g>
      <desc>METIS_TEXT_GROUP</desc>
      <text  x="0" y="271.8"
       style=" stroke:#000000; stroke-width:1; font-family:sans-serif; font-size:16;" class="TAG:text"
>text</text>
      <rect x="0" y="256" width="256" height="64"
       style=" stroke:#000000; stroke-width:1; fill:#000000; fill-opacity:0%"></rect>
    </g>
    <polyline points="214 32 214 32"
     style=" stroke:#000000; stroke-width:1;" class="TAG:polyline"></polyline>
    <polyline points="224 44 229 49 233 55 
     240 64 243 69 246 75 248 81 
     250 87 251 92 255 111 256 127"
     style=" stroke:#000000; stroke-width:1;" class="TAG:polyline"></polyline>
  </symbol>
 </defs>
</svg>
