<?xml version="1.0"?>
<?metis version="3.1"?>
<?metisxml version="1.0"?>
<!DOCTYPE svg  PUBLIC "-//W3C//DTD SVG August 1999//EN"
 "http://www.w3.org/Graphics/SVG/svg-19990812.dtd">

<svg width="200" height="200">
 <title>Symbol library: smpm_deliverable.svg</title>
 <defs>
  <symbol id="oid1" xml:space="preserve" class="METIS_SYMBOL">
   <title>Deliverable</title>
    <g>
      <polygon points="0 0 0 304 16 320 
       880 320 880 16 864 0 0 0 
       0 0 0 0 0 0 0 0 "
       style=" stroke:#000000; stroke-width:1; fill:#9b9b9b; fill-opacity:100%"       class="TAG:shadow"></polygon>
      <rect x="0" y="0" width="240" height="304"
       style=" stroke:#000000; stroke-width:1; fill:#ffff6e; fill-opacity:100%"       class="TAG:PictureBackground"></rect>
      <rect x="240" y="0" width="624" height="304"
       style=" stroke:#000000; stroke-width:1; fill:#4bff4b; fill-opacity:100%"       class="TAG:canvas"></rect>
      <g>
	<desc>METIS_TEXT_GROUP</desc>
	<text  x="256" y="15.8"
	 style=" stroke:#000000; stroke-width:1; font-family:sans-serif; font-size:16;"
	 class="TAG:text">text</text>
	<rect x="256" y="0" width="608" height="304"
	 style=" stroke:#000000; stroke-width:1; fill:#ffffff; fill-opacity:0%"></rect>
      </g>
      <polyline points="864 304 880 320"
       style=" stroke:#000000; stroke-width:1;"></polyline>
      <g>
	<g>
	  <polygon points="155.743 178.767 61.9592 178.767 62.1923 173.57 
	   62.4256 168.373 62.1923 163.383 61.7256 158.394 60.7925 153.405 
	   59.8592 148.831 58.4595 144.05 57.0597 139.476 55.1933 134.903 
	   53.3269 130.537 51.2275 126.172 49.1277 121.806 46.7949 117.441 
	   44.4619 113.075 42.1291 108.917 39.5629 104.552 37.2296 100.394 
	   34.8968 96.2364 32.5637 91.8707 29.9976 87.5052 27.8981 83.3477 
	   25.7984 78.982 23.6987 74.6166 21.8323 70.2507 20.4326 65.6773 
	   19.0329 61.1037 17.8663 56.5304 16.9332 51.7489 16.2333 46.9677 
	   16 42.1864 16 37.197 16.2333 32 110.018 32 
	   109.551 37.197 109.551 42.1864 109.784 46.9677 110.484 51.7489 
	   111.417 56.5304 112.584 61.1037 113.75 65.6773 115.617 70.2507 
	   117.25 74.6166 119.349 78.982 121.449 83.3477 123.549 87.5052 
	   125.882 91.8707 128.214 96.2364 130.781 100.394 133.114 104.552 
	   135.68 108.917 138.013 113.075 140.346 117.441 142.679 121.806 
	   144.778 126.172 146.878 130.537 148.744 134.903 150.611 139.476 
	   152.244 144.05 153.41 148.831 154.577 153.405 155.51 158.394 
	   155.977 163.383 156.21 168.373 155.977 173.57 155.743 178.767 
	   155.743 178.767 155.743 178.767 155.743 178.767 155.743 178.767 155.743 178.767 "
	   style=" stroke:#000000; stroke-width:1; fill:#ffffff; fill-opacity:100%"></polygon>
	  <polyline points="71.8976 166.104 73.624 163.712 71.8976 161.537 
	   72.6373 161.537 73.8707 163.277 75.3501 161.537 76.0899 161.537 
	   74.1171 163.712 76.0899 166.104 75.3501 166.104 73.8707 164.147 
	   72.3907 166.104 71.8976 166.104 71.8976 166.104 71.8976 166.104"
	   style=" stroke:#ff0016; stroke-width:1;"></polyline>
	  <polygon points="95.532 52.7592 95.2931 48.9506 90.996 41.7567 
	   92.4283 41.7567 96.0093 47.8927 99.1128 41.7567 100.545 41.7567 
	   96.7256 48.9506 96.7256 52.7592 95.532 52.7592 95.532 52.7592 
	   95.532 52.7592 95.532 52.7592 95.532 52.7592 95.532 52.7592 "
	   style=" stroke:#0000ff; stroke-width:1; fill:#0000ff; fill-opacity:100%"></polygon>
	  <polygon points="82.1584 52.7592 81.6797 41.7567 84.5523 41.7567 
	   87.1853 42.1799 88.8608 43.0264 89.8184 44.2958 90.0579 45.3538 
	   90.0579 46.6232 89.3397 47.6812 88.3821 48.3159 86.9459 48.7391 
	   90.2973 52.7592 88.6216 52.7592 84.3128 47.6812 85.5099 47.6812 
	   86.4672 47.6812 87.1853 47.6812 87.9035 47.4694 88.3821 47.0464 
	   88.6216 46.6232 88.6216 46.2 88.8608 45.3538 88.6216 44.5073 
	   88.3821 43.8726 87.4248 43.4494 86.4672 43.0264 85.5099 43.0264 
	   84.3128 43.0264 83.5947 43.0264 82.8765 43.0264 83.3552 52.7592 
	   82.1584 52.7592 82.1584 52.7592 82.1584 52.7592 82.1584 52.7592 
	   82.1584 52.7592 82.1584 52.7592 "
	   style=" stroke:#0000ff; stroke-width:1; fill:#0000ff; fill-opacity:100%"></polygon>
	  <polygon points="72.8453 52.7592 72.3635 41.7567 78.8688 41.7567 
	   79.1096 43.0264 73.5683 43.0264 73.5683 46.6232 79.1096 46.6232 
	   79.1096 47.6812 73.8091 47.6812 73.8091 51.7012 79.3507 51.7012 
	   79.3507 52.7592 72.8453 52.7592 72.8453 52.7592 72.8453 52.7592 
	   72.8453 52.7592 72.8453 52.7592 72.8453 52.7592 "
	   style=" stroke:#0000ff; stroke-width:1; fill:#0000ff; fill-opacity:100%"></polygon>
	  <polygon points="64.5536 52.7592 59.3208 41.7567 60.5099 41.7567 
	   65.0293 51.278 69.0731 41.7567 70.5003 41.7567 65.7429 52.7592 
	   64.5536 52.7592 64.5536 52.7592 64.5536 52.7592 64.5536 52.7592 
	   64.5536 52.7592 64.5536 52.7592 "
	   style=" stroke:#0000ff; stroke-width:1; fill:#0000ff; fill-opacity:100%"></polygon>
	  <polygon points="57.6901 52.7592 56.3595 52.7592 55.8269 41.7567 
	   57.424 41.7567 57.6901 52.7592 57.6901 52.7592 57.6901 52.7592 
	   57.6901 52.7592 57.6901 52.7592 57.6901 52.7592 "
	   style=" stroke:#0000ff; stroke-width:1; fill:#0000ff; fill-opacity:100%"></polygon>
	  <polygon points="49.3555 51.7012 54.6627 51.7012 54.6627 52.7592 
	   48.3907 52.7592 47.9083 41.7567 49.1144 41.7567 49.3555 51.7012 
	   49.3555 51.7012 49.3555 51.7012 49.3555 51.7012 49.3555 51.7012 49.3555 51.7012 "
	   style=" stroke:#0000ff; stroke-width:1; fill:#0000ff; fill-opacity:100%"></polygon>
	  <polygon points="38.8403 52.7592 38.3589 41.7567 45.0976 41.7567 
	   45.0976 43.0264 39.5624 43.0264 39.8032 46.6232 45.0976 46.6232 
	   45.3384 47.6812 39.8032 47.6812 40.0437 51.7012 45.3384 51.7012 
	   45.5792 52.7592 38.8403 52.7592 38.8403 52.7592 38.8403 52.7592 
	   38.8403 52.7592 38.8403 52.7592 38.8403 52.7592 "
	   style=" stroke:#0000ff; stroke-width:1; fill:#0000ff; fill-opacity:100%"></polygon>
	  <polygon points="26.0256 52.7592 25.5491 41.7567 28.884 41.7567 
	   30.5515 41.9684 31.9805 42.3916 33.1715 42.8146 34.1245 43.4494 
	   34.8389 44.2958 35.5536 45.142 35.7917 46.2 36.0299 47.4694 
	   36.0299 48.3159 35.7917 49.1623 35.3155 50.2203 34.6008 51.0665 
	   33.1715 51.7012 31.5043 52.3359 29.1221 52.7592 26.0256 52.7592 
	   26.0256 52.7592 26.0256 52.7592 26.0256 52.7592 26.0256 52.7592 26.0256 52.7592 "
	   style=" stroke:#0000ff; stroke-width:1; fill:#0000ff; fill-opacity:100%"></polygon>
	  <polygon points="26.9467 43.0023 27.1867 51.721 28.6264 51.721 
	   29.8261 51.5084 31.0259 51.5084 32.4656 51.0831 33.4256 50.6579 
	   34.1456 49.8074 34.6256 48.9567 34.8653 47.4681 34.6256 46.1921 
	   34.1456 45.129 33.4256 44.2783 32.4656 43.6404 31.2659 43.2149 
	   29.8261 43.0023 28.6264 43.0023 26.9467 43.0023 26.9467 43.0023 
	   26.9467 43.0023 26.9467 43.0023 26.9467 43.0023 26.9467 43.0023 "
	   style=" stroke:#0000ff; stroke-width:1; fill:#ffffff; fill-opacity:100%"></polygon>
	  <polygon points="74.6925 86.5965 75.3136 86.5965 75.6243 87.6344 
	   75.0032 87.6344 74.6925 86.5965 74.6925 86.5965 74.6925 86.5965 
	   74.6925 86.5965 74.6925 86.5965 74.6925 86.5965 "
	   style=" stroke:#0000ff; stroke-width:1; fill:#0000ff; fill-opacity:100%"></polygon>
	  <polygon points="75.1584 88.88 75.7795 88.88 76.0899 89.9179 
	   75.4688 89.9179 75.1584 88.88 75.1584 88.88 75.1584 88.88 
	   75.1584 88.88 75.1584 88.88 75.1584 88.88 "
	   style=" stroke:#0000ff; stroke-width:1; fill:#0000ff; fill-opacity:100%"></polygon>
	  <polygon points="64.472 88.8046 63.9789 85.766 64.472 85.766 
	   65.2117 89.0215 65.4584 89.4556 65.7051 89.8896 65.9517 89.8896 
	   66.6915 90.1067 66.9379 89.8896 67.4312 89.8896 67.6779 89.4556 
	   67.6779 89.0215 66.9379 85.766 67.6779 85.766 68.1712 89.0215 
	   68.1712 89.6727 67.6779 90.1067 67.4312 90.3236 66.6915 90.5407 
	   65.9517 90.3236 65.4584 90.1067 64.9653 89.6727 64.472 88.8046 
	   64.472 88.8046 64.472 88.8046 64.472 88.8046 64.472 88.8046 64.472 88.8046 "
	   style=" stroke:#0000ff; stroke-width:1; fill:#0000ff; fill-opacity:100%"></polygon>
	  <polygon points="57.2736 90.3331 56.2931 85.766 56.7832 85.766 
	   57.2736 88.3758 59.2349 85.766 59.9704 85.766 58.2544 87.9408 
	   60.9512 90.3331 59.9704 90.3331 58.0091 88.3758 57.5189 89.2459 
	   57.764 90.3331 57.2736 90.3331 57.2736 90.3331 57.2736 90.3331 
	   57.2736 90.3331 57.2736 90.3331 57.2736 90.3331 "
	   style=" stroke:#0000ff; stroke-width:1; fill:#0000ff; fill-opacity:100%"></polygon>
	  <polygon points="50.936 87.7233 51.1792 87.2884 51.1792 87.071 
	   51.4221 86.6361 51.6651 86.4185 52.1512 85.9836 52.3944 85.766 
	   52.8803 85.766 53.1235 85.766 53.6093 85.766 54.0955 85.766 
	   54.3384 85.9836 54.8245 86.2009 55.3107 86.4185 55.5536 86.6361 
	   56.0397 87.071 55.3107 87.071 54.8245 86.6361 54.0955 86.2009 
	   53.6093 86.2009 52.8803 86.2009 52.3944 86.6361 51.9083 86.8534 
	   51.6651 87.5059 51.6651 88.1584 51.9083 88.8109 52.3944 89.4632 
	   53.1235 89.8981 53.8525 89.8981 54.3384 89.8981 54.8245 89.8981 
	   55.3107 89.6808 55.7965 89.2459 56.5259 89.2459 56.2827 89.6808 
	   55.7965 89.8981 55.5536 90.3331 55.0675 90.3331 54.5816 90.3331 
	   54.3384 90.3331 53.8525 90.3331 53.3664 90.3331 52.8803 90.3331 
	   52.3944 90.1157 52.1512 89.8981 51.9083 89.4632 51.4221 89.2459 
	   51.1792 88.8109 51.1792 88.1584 50.936 87.7233 50.936 87.7233 
	   50.936 87.7233 50.936 87.7233 50.936 87.7233 50.936 87.7233 "
	   style=" stroke:#0000ff; stroke-width:1; fill:#0000ff; fill-opacity:100%"></polygon>
	  <polygon points="51.1688 90.3331 50.3536 90.3331 49.5387 85.766 
	   50.0819 85.766 51.1688 90.3331 51.1688 90.3331 51.1688 90.3331 
	   51.1688 90.3331 51.1688 90.3331 51.1688 90.3331 "
	   style=" stroke:#0000ff; stroke-width:1; fill:#0000ff; fill-opacity:100%"></polygon>
	  <polygon points="46.5731 90.3331 45.5792 85.766 47.0699 85.766 
	   47.3184 85.766 47.8152 85.766 48.5605 86.2009 48.8088 86.6361 
	   49.3059 87.071 49.3059 87.5059 49.3059 87.9408 49.3059 88.1584 
	   48.5605 88.3758 48.0637 88.5934 47.3184 88.5934 46.5731 88.5934 
	   47.0699 90.3331 46.5731 90.3331 46.5731 90.3331 46.5731 90.3331 
	   46.5731 90.3331 46.5731 90.3331 46.5731 90.3331 "
	   style=" stroke:#0000ff; stroke-width:1; fill:#0000ff; fill-opacity:100%"></polygon>
	  <polygon points="69.1651 90.3331 68.1712 85.766 69.6619 85.766 
	   69.9101 85.766 70.4072 85.766 70.6555 85.9836 70.904 86.2009 
	   71.4008 86.6361 71.8976 87.071 71.8976 87.5059 71.8976 87.9408 
	   71.6493 88.1584 71.1525 88.3758 70.6555 88.5934 69.9101 88.5934 
	   69.1651 88.5934 69.6619 90.3331 69.1651 90.3331 69.1651 90.3331 
	   69.1651 90.3331 69.1651 90.3331 69.1651 90.3331 69.1651 90.3331 "
	   style=" stroke:#0000ff; stroke-width:1; fill:#0000ff; fill-opacity:100%"></polygon>
	  <polygon points="46.0451 86.1813 46.5533 88.2572 47.0613 88.2572 
	   47.5696 88.2572 47.8237 88.2572 48.3317 88.0266 48.84 87.7957 
	   48.84 87.1039 48.5859 86.8732 48.0776 86.412 47.8237 86.1813 
	   47.3155 86.1813 47.0613 86.1813 46.5533 86.1813 46.0451 86.1813 
	   46.0451 86.1813 46.0451 86.1813 46.0451 86.1813 46.0451 86.1813 46.0451 86.1813 "
	   style=" stroke:#0000ff; stroke-width:1; fill:#ffffff; fill-opacity:100%"></polygon>
	  <polygon points="68.8699 86.1813 69.1261 88.2572 69.6384 88.2572 
	   70.1509 88.2572 70.4072 88.2572 70.9195 88.0266 71.1757 87.7957 
	   71.432 87.1039 71.1757 86.8732 70.6632 86.412 70.4072 86.1813 
	   69.8947 86.1813 69.6384 86.1813 69.1261 86.1813 68.8699 86.1813 
	   68.8699 86.1813 68.8699 86.1813 68.8699 86.1813 68.8699 86.1813 68.8699 86.1813 "
	   style=" stroke:#0000ff; stroke-width:1; fill:#ffffff; fill-opacity:100%"></polygon>
	  <polygon points="88.8451 113.791 88.3517 112.055 85.6392 109.016 
	   86.3789 109.016 88.5984 111.621 89.0917 109.016 89.8315 109.016 
	   88.8451 112.055 89.5848 113.791 88.8451 113.791 88.8451 113.791 
	   88.8451 113.791 88.8451 113.791 88.8451 113.791 88.8451 113.791 "
	   style=" stroke:#0000ff; stroke-width:1; fill:#0000ff; fill-opacity:100%"></polygon>
	  <polygon points="83.1437 113.791 81.6797 109.016 83.1437 109.016 
	   84.1197 109.233 84.8517 109.667 85.5837 110.101 85.8277 110.536 
	   85.8277 111.187 85.8277 111.404 85.3397 111.838 84.8517 111.838 
	   86.8037 113.791 86.0717 113.791 83.6317 111.621 84.1197 111.621 
	   84.6077 111.404 84.8517 111.404 85.0957 111.404 85.3397 110.752 
	   85.3397 110.536 85.0957 110.101 84.8517 109.884 84.3637 109.667 
	   83.8757 109.667 83.6317 109.45 83.1437 109.45 82.6557 109.45 
	   82.4117 109.667 83.6317 113.791 83.1437 113.791 83.1437 113.791 
	   83.1437 113.791 83.1437 113.791 83.1437 113.791 83.1437 113.791 "
	   style=" stroke:#0000ff; stroke-width:1; fill:#0000ff; fill-opacity:100%"></polygon>
	  <polygon points="79.4413 113.791 77.7203 109.016 80.6704 109.016 
	   80.9163 109.45 78.4579 109.45 78.9496 111.187 81.408 111.187 
	   81.408 111.621 79.1955 111.621 79.6872 113.14 82.1456 113.14 
	   82.1456 113.791 79.4413 113.791 79.4413 113.791 79.4413 113.791 
	   79.4413 113.791 79.4413 113.791 79.4413 113.791 "
	   style=" stroke:#0000ff; stroke-width:1; fill:#0000ff; fill-opacity:100%"></polygon>
	  <polygon points="76.0317 113.791 72.3635 109.016 72.8525 109.016 
	   76.0317 113.14 76.7653 109.016 77.2544 109.016 76.5208 113.791 
	   76.0317 113.791 76.0317 113.791 76.0317 113.791 76.0317 113.791 
	   76.0317 113.791 76.0317 113.791 "
	   style=" stroke:#0000ff; stroke-width:1; fill:#0000ff; fill-opacity:100%"></polygon>
	  <polygon points="73.0621 113.791 72.5381 113.791 70.9659 109.016 
	   71.4901 109.016 73.0621 113.791 73.0621 113.791 73.0621 113.791 
	   73.0621 113.791 73.0621 113.791 73.0621 113.791 "
	   style=" stroke:#0000ff; stroke-width:1; fill:#0000ff; fill-opacity:100%"></polygon>
	  <polygon points="69.4392 113.14 71.652 113.14 71.8976 113.791 
	   69.1933 113.791 67.4725 109.016 68.2101 109.016 69.4392 113.14 
	   69.4392 113.14 69.4392 113.14 69.4392 113.14 69.4392 113.14 69.4392 113.14 "
	   style=" stroke:#0000ff; stroke-width:1; fill:#0000ff; fill-opacity:100%"></polygon>
	  <polygon points="64.988 113.791 63.5131 109.016 66.4632 109.016 
	   66.7088 109.45 64.2507 109.45 64.7421 111.187 67.2005 111.187 
	   67.2005 111.621 64.988 111.621 65.4797 113.14 67.9384 113.14 
	   67.9384 113.791 64.988 113.791 64.988 113.791 64.988 113.791 
	   64.988 113.791 64.988 113.791 64.988 113.791 "
	   style=" stroke:#0000ff; stroke-width:1; fill:#0000ff; fill-opacity:100%"></polygon>
	  <polygon points="59.8531 113.791 58.3891 109.016 59.6091 109.016 
	   60.3411 109.233 61.0731 109.233 61.5611 109.45 62.2931 109.667 
	   62.5371 110.101 63.0251 110.536 63.2691 110.97 63.5131 111.404 
	   63.5131 111.838 63.5131 112.272 63.5131 112.706 63.2691 112.923 
	   62.7811 113.357 62.0491 113.574 61.0731 113.791 59.8531 113.791 
	   59.8531 113.791 59.8531 113.791 59.8531 113.791 59.8531 113.791 59.8531 113.791 "
	   style=" stroke:#0000ff; stroke-width:1; fill:#0000ff; fill-opacity:100%"></polygon>
	  <polygon points="59.0877 109.432 60.0776 113.168 60.82 113.168 
	   61.3149 113.168 61.8099 113.168 62.3048 112.948 62.7997 112.948 
	   63.0472 112.509 63.0472 112.069 63.0472 111.41 62.7997 110.75 
	   62.3048 110.311 61.8099 110.091 61.3149 109.871 60.82 109.651 
	   60.0776 109.651 59.5827 109.432 59.0877 109.432 59.0877 109.432 
	   59.0877 109.432 59.0877 109.432 59.0877 109.432 59.0877 109.432 "
	   style=" stroke:#0000ff; stroke-width:1; fill:#ffffff; fill-opacity:100%"></polygon>
	  <polygon points="92.6264 109.847 93.2475 109.847 93.5579 110.677 
	   92.9368 110.677 92.6264 109.847 92.6264 109.847 92.6264 109.847 
	   92.6264 109.847 92.6264 109.847 92.6264 109.847 "
	   style=" stroke:#0000ff; stroke-width:1; fill:#0000ff; fill-opacity:100%"></polygon>
	  <polygon points="93.3251 112.13 93.9461 112.13 94.2565 112.96 
	   93.6355 112.96 93.3251 112.13 93.3251 112.13 93.3251 112.13 
	   93.3251 112.13 93.3251 112.13 93.3251 112.13 "
	   style=" stroke:#0000ff; stroke-width:1; fill:#0000ff; fill-opacity:100%"></polygon>
	  <polygon points="106.135 139.74 106.756 139.74 107.066 140.778 
	   106.445 140.778 106.135 139.74 106.135 139.74 106.135 139.74 
	   106.135 139.74 106.135 139.74 106.135 139.74 "
	   style=" stroke:#0000ff; stroke-width:1; fill:#0000ff; fill-opacity:100%"></polygon>
	  <polygon points="106.834 142.023 107.455 142.023 107.765 143.061 
	   107.144 143.061 106.834 142.023 106.834 142.023 106.834 142.023 
	   106.834 142.023 106.834 142.023 106.834 142.023 "
	   style=" stroke:#0000ff; stroke-width:1; fill:#0000ff; fill-opacity:100%"></polygon>
	  <polygon points="101.771 143.892 100.545 139.325 102.016 139.325 
	   102.506 139.325 102.997 139.542 103.487 139.542 103.732 139.759 
	   103.977 139.977 104.468 140.629 104.468 140.847 104.713 141.282 
	   104.468 141.717 103.977 142.152 103.487 142.152 105.203 143.892 
	   104.713 143.892 102.261 141.717 102.752 141.717 103.242 141.717 
	   103.487 141.717 103.732 141.499 103.977 141.064 103.977 140.847 
	   103.732 140.412 103.487 140.194 102.997 139.759 102.752 139.759 
	   102.261 139.759 101.771 139.759 101.526 139.759 102.261 143.892 
	   101.771 143.892 101.771 143.892 101.771 143.892 101.771 143.892 
	   101.771 143.892 101.771 143.892 "
	   style=" stroke:#0000ff; stroke-width:1; fill:#0000ff; fill-opacity:100%"></polygon>
	  <polygon points="98.2888 143.892 97.0515 139.325 100.021 139.325 
	   100.021 139.759 97.7939 139.759 98.0413 141.282 100.516 141.282 
	   100.516 141.717 98.2888 141.717 98.5363 143.457 101.011 143.457 
	   101.011 143.892 98.2888 143.892 98.2888 143.892 98.2888 143.892 
	   98.2888 143.892 98.2888 143.892 98.2888 143.892 "
	   style=" stroke:#0000ff; stroke-width:1; fill:#0000ff; fill-opacity:100%"></polygon>
	  <polygon points="92.2037 143.892 90.996 139.325 91.9621 139.325 
	   94.6189 143.239 95.5853 139.325 96.3099 139.325 97.5173 143.892 
	   97.0344 143.892 96.0683 139.759 95.1019 143.892 94.6189 143.892 
	   91.7205 139.759 92.6867 143.892 92.2037 143.892 92.2037 143.892 
	   92.2037 143.892 92.2037 143.892 92.2037 143.892 92.2037 143.892 "
	   style=" stroke:#0000ff; stroke-width:1; fill:#0000ff; fill-opacity:100%"></polygon>
	  <polygon points="85.6392 140.41 85.8821 139.976 86.3683 139.542 
	   86.8544 139.325 87.3403 139.325 88.0693 139.325 88.5555 139.325 
	   89.2845 139.542 90.0139 139.976 90.2568 140.193 90.5 140.627 
	   90.7429 141.061 90.9859 141.278 91.2291 141.712 91.2291 142.146 
	   91.2291 142.363 90.9859 143.231 90.5 143.665 90.0139 143.882 
	   89.2845 144.099 88.5555 144.099 88.0693 143.882 87.3403 143.665 
	   86.6112 143.014 86.3683 142.797 85.6392 142.146 85.6392 141.712 
	   85.6392 141.278 85.6392 140.844 85.6392 140.41 85.6392 140.41 
	   85.6392 140.41 85.6392 140.41 85.6392 140.41 85.6392 140.41 "
	   style=" stroke:#0000ff; stroke-width:1; fill:#0000ff; fill-opacity:100%"></polygon>
	  <polygon points="84.4357 143.892 83.1741 139.759 82.1648 139.759 
	   81.9125 139.325 84.9403 139.325 84.9403 139.759 83.6787 139.759 
	   84.9403 143.892 84.4357 143.892 84.4357 143.892 84.4357 143.892 
	   84.4357 143.892 84.4357 143.892 84.4357 143.892 "
	   style=" stroke:#0000ff; stroke-width:1; fill:#0000ff; fill-opacity:100%"></polygon>
	  <polygon points="80.3488 142.58 80.5984 143.014 81.0976 143.448 
	   81.3469 143.448 81.8461 143.448 82.3453 143.014 82.3453 142.58 
	   82.0957 142.146 81.5965 141.929 81.0976 141.712 80.5984 141.495 
	   80.0995 141.495 79.6003 141.061 79.3507 140.844 79.3507 140.193 
	   79.3507 139.759 79.8499 139.325 80.0995 139.325 80.5984 139.325 
	   80.848 139.325 81.5965 139.542 81.8461 139.759 82.0957 140.41 
	   81.5965 140.41 81.0976 139.759 80.3488 139.759 79.8499 139.976 
	   79.8499 140.41 80.0995 140.844 80.5984 141.061 81.0976 141.278 
	   81.5965 141.278 81.8461 141.495 82.3453 141.929 82.8443 142.363 
	   82.8443 142.797 82.8443 143.231 82.5947 143.665 81.8461 144.099 
	   81.0976 143.882 80.3488 143.665 79.8499 143.014 79.6003 142.58 
	   80.3488 142.58 80.3488 142.58 80.3488 142.58 80.3488 142.58 
	   80.3488 142.58 80.3488 142.58 "
	   style=" stroke:#0000ff; stroke-width:1; fill:#0000ff; fill-opacity:100%"></polygon>
	  <polygon points="75.6653 142.363 74.9253 139.325 75.4187 139.325 
	   76.1584 142.363 76.6517 143.014 76.8981 143.231 77.1448 143.448 
	   77.8845 143.665 78.1312 143.448 78.6243 143.231 78.8712 143.014 
	   78.8712 142.363 77.8845 139.325 78.3779 139.325 79.1179 142.363 
	   79.1179 143.014 79.1179 143.665 78.6243 143.882 77.8845 144.099 
	   77.1448 143.882 76.6517 143.665 76.1584 143.231 75.6653 142.363 
	   75.6653 142.363 75.6653 142.363 75.6653 142.363 75.6653 142.363 75.6653 142.363 "
	   style=" stroke:#0000ff; stroke-width:1; fill:#0000ff; fill-opacity:100%"></polygon>
	  <polygon points="69.5685 141.282 69.8117 140.412 70.0547 139.759 
	   70.5408 139.542 71.5128 139.325 72.2419 139.325 72.9709 139.542 
	   73.7003 139.759 74.4293 140.412 73.9432 140.412 73.4571 139.977 
	   72.728 139.759 71.9989 139.759 71.5128 139.759 70.7837 139.977 
	   70.5408 140.412 70.2976 140.847 70.2976 141.499 70.7837 142.369 
	   71.2699 143.022 71.7557 143.239 72.4848 143.457 73.2141 143.457 
	   73.7003 143.457 74.1861 143.022 74.4293 142.804 75.1584 142.804 
	   74.6723 143.457 73.9432 143.892 73.2141 143.892 72.2419 143.892 
	   71.2699 143.674 70.5408 143.022 70.0547 142.152 69.5685 141.282 
	   69.5685 141.282 69.5685 141.282 69.5685 141.282 69.5685 141.282 69.5685 141.282 "
	   style=" stroke:#0000ff; stroke-width:1; fill:#0000ff; fill-opacity:100%"></polygon>
	  <polygon points="86.3509 140.179 86.1051 141.059 86.3509 141.938 
	   86.5965 142.377 87.3341 143.037 88.0717 143.476 88.8091 143.476 
	   89.7925 143.476 90.5301 142.817 90.5301 142.158 90.5301 141.498 
	   90.0384 140.839 89.3008 140.179 88.5635 139.74 87.8259 139.74 
	   86.8424 139.74 86.3509 140.179 86.3509 140.179 86.3509 140.179 
	   86.3509 140.179 86.3509 140.179 86.3509 140.179 "
	   style=" stroke:#0000ff; stroke-width:1; fill:#ffffff; fill-opacity:100%"></polygon>
	  <polygon points="102.874 39.6808 23.4531 39.6808 23.4531 38.4352 
	   102.874 38.4352 102.874 39.6808 102.874 39.6808 102.874 39.6808 
	   102.874 39.6808 102.874 39.6808 102.874 39.6808 "
	   style=" stroke:#ff0016; stroke-width:1; fill:#ff0016; fill-opacity:100%"></polygon>
	  <polygon points="104.039 55.8729 24.6176 55.8729 24.6176 54.6276 
	   104.039 54.6276 104.039 55.8729 104.039 55.8729 104.039 55.8729 
	   104.039 55.8729 104.039 55.8729 104.039 55.8729 "
	   style=" stroke:#ff0016; stroke-width:1; fill:#ff0016; fill-opacity:100%"></polygon>
	  <polygon points="92.2771 61.0628 93.0195 61.0628 93.7619 64.5287 
	   94.2568 64.5287 94.2568 65.1785 94.0093 65.1785 94.0093 66.045 
	   93.5144 66.045 93.2669 65.1785 90.2973 65.1785 90.2973 64.5287 
	   92.2771 61.0628 92.2771 61.0628 92.2771 61.0628 92.2771 61.0628 
	   92.2771 61.0628 92.2771 61.0628 "
	   style=" stroke:#ff0016; stroke-width:1; fill:#ff0016; fill-opacity:100%"></polygon>
	  <polygon points="87.3693 66.045 88.8667 61.4959 86.1216 61.4959 
	   85.872 61.0628 89.116 61.0628 89.3656 61.4959 88.1179 66.045 
	   87.3693 66.045 87.3693 66.045 87.3693 66.045 87.3693 66.045 
	   87.3693 66.045 87.3693 66.045 "
	   style=" stroke:#ff0016; stroke-width:1; fill:#ff0016; fill-opacity:100%"></polygon>
	  <polygon points="104.588 66.045 106.085 61.4959 103.34 61.4959 
	   103.34 61.0628 106.584 61.0628 106.834 61.4959 105.336 66.045 
	   104.588 66.045 104.588 66.045 104.588 66.045 104.588 66.045 
	   104.588 66.045 104.588 66.045 "
	   style=" stroke:#ff0016; stroke-width:1; fill:#ff0016; fill-opacity:100%"></polygon>
	  <polygon points="81.9125 62.3687 81.9125 61.72 82.4043 61.2876 
	   82.896 61.0714 83.3877 60.8551 84.1251 61.0714 84.6171 61.2876 
	   85.1085 61.72 85.8461 62.3687 86.3379 64.5314 86.092 65.3963 
	   85.8461 65.8287 85.1085 66.045 84.6171 66.045 83.8792 66.045 
	   83.1419 65.8287 82.6501 65.3963 82.4043 64.7476 81.9125 62.3687 
	   81.9125 62.3687 81.9125 62.3687 81.9125 62.3687 81.9125 62.3687 81.9125 62.3687 "
	   style=" stroke:#ff0016; stroke-width:1; fill:#ff0016; fill-opacity:100%"></polygon>
	  <polygon points="94.4896 62.3687 94.4896 61.72 94.7371 61.2876 
	   95.232 61.0714 95.7269 60.8551 96.4693 61.0714 96.9643 61.2876 
	   97.7067 61.72 98.2016 62.3687 98.4491 64.5314 98.4491 65.3963 
	   98.2016 65.8287 97.4592 66.045 96.9643 66.045 96.2219 66.045 
	   95.4795 65.8287 94.9845 65.3963 94.7371 64.7476 94.4896 62.3687 
	   94.4896 62.3687 94.4896 62.3687 94.4896 62.3687 94.4896 62.3687 94.4896 62.3687 "
	   style=" stroke:#ff0016; stroke-width:1; fill:#ff0016; fill-opacity:100%"></polygon>
	  <polygon points="98.9147 62.3687 98.9147 61.72 99.408 61.2876 
	   99.9011 61.0714 100.394 60.8551 101.134 61.0714 101.627 61.2876 
	   102.367 61.72 102.861 62.3687 103.107 64.5314 103.107 65.3963 
	   102.861 65.8287 102.121 66.045 101.627 66.045 100.887 66.045 
	   100.148 65.8287 99.6547 65.3963 99.408 64.7476 98.9147 62.3687 
	   98.9147 62.3687 98.9147 62.3687 98.9147 62.3687 98.9147 62.3687 98.9147 62.3687 "
	   style=" stroke:#ff0016; stroke-width:1; fill:#ff0016; fill-opacity:100%"></polygon>
	  <polygon points="79.6933 61.0628 80.4331 61.0628 81.1728 64.5287 
	   81.6659 64.5287 81.9125 65.1785 81.4195 65.1785 81.6659 66.045 
	   80.9261 66.045 80.6795 65.1785 77.7203 65.1785 77.7203 64.5287 
	   79.6933 61.0628 79.6933 61.0628 79.6933 61.0628 79.6933 61.0628 
	   79.6933 61.0628 79.6933 61.0628 "
	   style=" stroke:#ff0016; stroke-width:1; fill:#ff0016; fill-opacity:100%"></polygon>
	  <polygon points="75.2643 61.4959 74.248 61.4959 73.9939 61.0628 
	   75.7725 61.0628 76.7888 66.045 76.2805 66.045 75.2643 61.4959 
	   75.2643 61.4959 75.2643 61.4959 75.2643 61.4959 75.2643 61.4959 75.2643 61.4959 "
	   style=" stroke:#ff0016; stroke-width:1; fill:#ff0016; fill-opacity:100%"></polygon>
	  <polygon points="70.3531 62.7955 70.5981 61.0628 71.0885 61.0628 
	   70.5981 62.7955 71.5789 62.7955 72.0691 61.0628 72.3144 61.0628 
	   72.0691 62.7955 73.2952 62.7955 73.2952 63.2291 72.0691 63.2291 
	   71.824 63.8789 73.0499 63.8789 73.0499 64.312 71.5789 64.312 
	   71.3336 66.045 70.8435 66.045 71.3336 64.312 70.3531 64.312 
	   70.108 66.045 69.6176 66.045 69.8627 64.312 68.6371 64.312 
	   68.6371 63.8789 70.108 63.8789 70.3531 63.2291 68.8821 63.2291 
	   68.8821 62.7955 70.3531 62.7955 70.3531 62.7955 70.3531 62.7955 
	   70.3531 62.7955 70.3531 62.7955 70.3531 62.7955 "
	   style=" stroke:#ff0016; stroke-width:1; fill:#ff0016; fill-opacity:100%"></polygon>
	  <polygon points="92.5488 61.6856 90.996 64.5917 93.3251 64.5917 
	   92.5488 61.6856 92.5488 61.6856 92.5488 61.6856 92.5488 61.6856 
	   92.5488 61.6856 92.5488 61.6856 "
	   style=" stroke:#ff0016; stroke-width:1; fill:#ffffff; fill-opacity:100%"></polygon>
	  <polygon points="82.6112 62.5705 82.8637 64.5373 83.116 64.9742 
	   83.3683 65.4112 83.8728 65.6299 84.3776 65.6299 84.8821 65.6299 
	   85.3867 65.6299 85.6392 65.1927 85.6392 64.5373 85.1344 62.5705 
	   84.8821 62.1334 84.6299 61.6964 84.1251 61.4779 83.6205 61.4779 
	   83.116 61.4779 82.8637 61.6964 82.6112 62.1334 82.6112 62.5705 
	   82.6112 62.5705 82.6112 62.5705 82.6112 62.5705 82.6112 62.5705 82.6112 62.5705 "
	   style=" stroke:#ff0016; stroke-width:1; fill:#ffffff; fill-opacity:100%"></polygon>
	  <polygon points="94.9552 62.5705 95.2077 64.5373 95.46 64.9742 
	   95.7125 65.4112 96.2171 65.6299 96.7216 65.6299 97.4784 65.6299 
	   97.7309 65.6299 97.9832 65.1927 97.9832 64.5373 97.7309 62.5705 
	   97.4784 62.1334 96.9739 61.6964 96.4693 61.4779 95.9648 61.4779 
	   95.46 61.4779 95.2077 61.6964 94.9552 62.1334 94.9552 62.5705 
	   94.9552 62.5705 94.9552 62.5705 94.9552 62.5705 94.9552 62.5705 94.9552 62.5705 "
	   style=" stroke:#ff0016; stroke-width:1; fill:#ffffff; fill-opacity:100%"></polygon>
	  <polygon points="99.6315 62.5705 99.8821 64.5373 100.133 64.9742 
	   100.384 65.4112 100.885 65.6299 101.387 65.6299 101.889 65.6299 
	   102.39 65.6299 102.641 65.1927 102.641 64.5373 102.39 62.5705 
	   102.14 62.1334 101.638 61.6964 101.136 61.4779 100.635 61.4779 
	   100.133 61.4779 99.8821 61.6964 99.3805 62.1334 99.6315 62.5705 
	   99.6315 62.5705 99.6315 62.5705 99.6315 62.5705 99.6315 62.5705 99.6315 62.5705 "
	   style=" stroke:#ff0016; stroke-width:1; fill:#ffffff; fill-opacity:100%"></polygon>
	  <polygon points="79.9717 61.6856 78.4189 64.5917 80.748 64.5917 
	   79.9717 61.6856 79.9717 61.6856 79.9717 61.6856 79.9717 61.6856 
	   79.9717 61.6856 79.9717 61.6856 "
	   style=" stroke:#ff0016; stroke-width:1; fill:#ffffff; fill-opacity:100%"></polygon>
	  <polygon points="70.5003 63.1386 70.5003 63.9691 71.3736 63.9691 
	   71.6648 63.1386 70.5003 63.1386 70.5003 63.1386 70.5003 63.1386 
	   70.5003 63.1386 70.5003 63.1386 70.5003 63.1386 "
	   style=" stroke:#ff0016; stroke-width:1; fill:#ff0016; fill-opacity:100%"></polygon>
	  <polygon points="71.8976 166.104 73.624 163.712 71.8976 161.537 
	   72.6373 161.537 73.8707 163.277 75.3501 161.537 76.0899 161.537 
	   74.1171 163.712 76.0899 166.104 75.3501 166.104 73.8707 164.147 
	   72.3907 166.104 71.8976 166.104 71.8976 166.104 71.8976 166.104 
	   71.8976 166.104 71.8976 166.104 71.8976 166.104 "
	   style="stroke:none; fill:#ff0016; fill-opacity:100%"></polygon>
	  <polyline points="108.93 69.7815 29.5085 69.7815"
	   style=" stroke:#000000; stroke-width:1;"></polyline>
	  <polyline points="111.259 74.1411 31.8376 74.1411"
	   style=" stroke:#000000; stroke-width:1;"></polyline>
	  <polyline points="113.588 78.2929 34.3997 78.2929"
	   style=" stroke:#000000; stroke-width:1;"></polyline>
	  <polyline points="93.0923 82.6522 37.6603 82.6522"
	   style=" stroke:#000000; stroke-width:1;"></polyline>
	  <polyline points="121.274 93.4471 42.0856 93.4471"
	   style=" stroke:#000000; stroke-width:1;"></polyline>
	  <polyline points="123.37 97.5987 44.1816 97.5987"
	   style=" stroke:#000000; stroke-width:1;"></polyline>
	  <polyline points="125.466 101.958 46.0451 101.958"
	   style=" stroke:#000000; stroke-width:1;"></polyline>
	  <polyline points="127.795 106.318 48.3741 106.318"
	   style=" stroke:#000000; stroke-width:1;"></polyline>
	  <polyline points="135.248 118.15 55.8269 118.15"
	   style=" stroke:#000000; stroke-width:1;"></polyline>
	  <polyline points="137.345 122.51 58.1563 122.51"
	   style=" stroke:#000000; stroke-width:1;"></polyline>
	  <polyline points="139.906 126.869 60.4851 126.869"
	   style=" stroke:#000000; stroke-width:1;"></polyline>
	  <polyline points="142.235 131.229 62.8144 131.229"
	   style=" stroke:#000000; stroke-width:1;"></polyline>
	  <polyline points="144.331 135.588 64.9104 135.588"
	   style=" stroke:#000000; stroke-width:1;"></polyline>
	  <polyline points="148.757 148.666 69.3357 148.666"
	   style=" stroke:#000000; stroke-width:1;"></polyline>
	  <polyline points="150.387 152.818 70.9659 152.818"
	   style=" stroke:#000000; stroke-width:1;"></polyline>
	  <polyline points="150.387 167.142 70.9659 167.142"
	   style=" stroke:#000000; stroke-width:1;"></polyline>
	</g>
	<polygon points="208 210.444 206.359 208.007 203.077 204.108 
	 200.889 201.184 197.606 198.26 194.871 195.335 192.136 191.437 
	 190.495 188.025 188.854 184.126 186.119 179.74 182.837 175.353 
	 181.196 172.429 179.008 169.993 177.366 168.043 175.178 165.119 
	 172.443 160.732 169.708 156.346 167.52 152.447 164.238 149.523 
	 159.315 147.574 156.58 147.086 153.297 146.111 149.468 144.649 
	 146.733 142.7 143.451 140.75 140.716 139.288 137.981 137.339 
	 133.605 134.415 130.322 131.491 127.04 129.054 121.57 127.104 
	 117.741 125.642 113.912 124.18 110.629 122.231 107.894 120.281 
	 102.424 115.895 97.5008 112.971 92.5779 111.021 88.7485 110.046 
	 85.4664 110.534 81.6373 114.92 81.0901 118.819 81.6373 122.718 
	 83.2781 127.104 84.9192 129.541 87.1072 131.978 89.8427 134.902 
	 93.1248 137.827 96.4069 139.776 99.1421 143.675 99.1421 147.086 
	 96.4069 153.422 93.6715 155.859 89.8427 157.321 86.0133 157.808 
	 81.6373 157.808 77.2611 157.321 72.8848 156.834 69.0557 156.834 
	 63.5853 154.884 59.7563 153.422 56.4741 154.884 54.8328 159.27 
	 54.8328 162.682 54.8328 165.119 54.2861 169.018 55.38 171.454 
	 60.8501 175.841 64.1323 177.79 67.4144 179.74 70.1496 181.202 
	 74.5259 183.151 73.9787 185.588 71.7907 189.487 71.2437 192.411 
	 71.2437 195.335 77.8083 196.797 75.62 200.696 74.5259 203.621 
	 73.432 207.519 76.7139 209.469 81.0901 210.444 87.6544 214.343 
	 89.2955 219.704 90.9363 222.141 95.3128 224.577 97.5008 227.014 
	 101.877 227.989 105.706 228.476 108.989 228.964 112.271 228.964 
	 115.553 229.451 118.835 229.938 122.664 230.425 125.946 229.938 
	 129.775 230.425 134.151 234.812 135.793 237.736 137.434 240.66 
	 139.075 243.586 141.263 247.482 145.092 251.87 148.374 256.255 
	 151.656 260.643 154.938 265.028 208 210.444 208 210.444 
	 208 210.444 208 210.444 208 210.444 208 210.444 "
	 style=" stroke:#000000; stroke-width:1; fill:#ffc283; fill-opacity:100%"></polygon>
	<polygon points="93.1941 137.739 94.8525 139.229 97.0637 140.222 
	 99.2747 141.712 100.933 142.706 103.144 143.699 104.802 144.195 
	 106.461 145.189 107.566 146.679 109.224 147.672 111.435 148.168 
	 113.094 149.658 115.305 150.652 116.41 152.142 116.963 153.135 
	 117.516 155.122 116.41 156.612 114.199 158.101 112.541 159.095 
	 109.777 159.591 107.566 160.088 104.802 160.088 101.486 160.088 
	 98.7219 160.088 95.4051 159.591 92.6416 159.095 89.3248 158.598 
	 86.5613 158.101 85.4555 158.101 81.0333 157.108 78.8224 156.612 
	 78.2696 156.612 79.928 156.612 81.5864 155.618 82.6917 156.115 
	 84.3501 155.618 86.0085 155.618 87.6667 155.122 89.3248 155.122 
	 90.9829 154.128 92.6416 153.631 94.2997 153.135 95.9581 150.652 
	 97.0637 149.658 97.0637 147.672 97.0637 146.182 96.5109 144.692 
	 95.9581 143.202 95.4051 141.712 94.2997 139.726 93.7469 138.236 
	 93.1941 137.739 93.1941 137.739 93.1941 137.739 93.1941 137.739 
	 93.1941 137.739 93.1941 137.739 "
	 style=" stroke:#000000; stroke-width:1; fill:#000000; fill-opacity:100%"></polygon>
	<polygon points="88.2464 110.532 87.1229 111.038 85.4384 111.543 
	 83.7536 112.554 83.192 114.069 82.6301 115.08 83.192 117.101 
	 84.3152 118.617 86 120.133 88.2464 121.648 90.4928 122.659 
	 92.7392 123.164 95.5469 123.164 96.6704 123.164 98.9168 122.154 
	 100.601 121.143 101.163 119.627 100.601 118.112 99.4784 116.596 
	 98.9168 115.585 97.232 114.575 95.5469 113.059 93.8621 112.048 
	 92.7392 111.543 91.0541 111.038 89.3693 110.532 88.2464 110.532 
	 88.2464 110.532 88.2464 110.532 88.2464 110.532 88.2464 110.532 88.2464 110.532 "
	 style=" stroke:#000000; stroke-width:1; fill:#ffffff; fill-opacity:100%"></polygon>
	<polyline points="95.7123 131.423 96.8707 132.031 97.4496 132.638 
	 98.0288 132.638 98.6083 132.638 99.1875 133.245 100.346 133.245 
	 100.925 133.853 101.504 133.853 102.083 133.853 103.241 133.853 
	 103.821 133.853 104.399 133.245 104.979 133.245"
	 style=" stroke:#000000; stroke-width:1;"></polyline>
	<polyline points="101.163 134.339 102.901 134.339 104.638 134.339 
	 105.797 133.731 107.534 133.731 109.271 132.516 110.43 131.909"
	 style=" stroke:#000000; stroke-width:1;"></polyline>
	<polygon points="82.3744 179.588 76.3059 178.608 69.6861 177.138 
	 63.6179 174.688 58.1016 171.748 59.2048 176.158 61.9632 179.098 
	 64.7213 181.058 66.3763 182.527 66.928 183.508 66.928 185.957 
	 66.928 188.897 67.4795 192.327 68.0312 195.267 68.5829 198.207 
	 71.3413 201.147 71.3413 206.047 73.548 209.967 77.9611 212.907 
	 82.9259 214.377 83.4776 217.807 85.6843 220.746 88.4427 223.197 
	 91.2005 225.647 93.4072 226.627 95.0627 227.607 96.7173 228.587 
	 98.9237 228.587 101.13 229.077 103.889 229.077 102.234 228.097 
	 100.579 226.137 99.4757 224.177 99.4757 222.707 96.1656 219.767 
	 94.5107 217.317 93.4072 215.847 92.304 213.397 92.8557 211.927 
	 93.4072 210.457 95.0627 208.497 92.304 207.517 89.5456 204.577 
	 87.3389 200.167 85.1325 195.757 83.4776 190.367 82.3744 185.957 
	 81.8227 182.037 82.3744 179.588 82.3744 179.588 82.3744 179.588 
	 82.3744 179.588 82.3744 179.588 82.3744 179.588 "
	 style=" stroke:#000000; stroke-width:1; fill:#000000; fill-opacity:100%"></polygon>
	<polygon points="104.434 228.615 107.734 228.615 110.483 228.615 
	 113.233 229.107 115.433 229.599 118.183 230.583 120.382 231.075 
	 123.132 230.583 126.432 230.091 128.631 230.583 130.831 232.058 
	 133.031 235.01 135.231 238.453 137.431 241.896 139.631 245.34 
	 141.28 248.29 142.93 250.752 144.58 252.226 146.23 254.194 
	 147.88 256.161 149.53 258.13 151.179 260.096 152.279 262.065 
	 153.929 264.031 155.029 266 156.679 265.017 159.429 262.555 
	 161.629 260.096 164.378 257.637 166.028 256.654 162.728 254.687 
	 160.529 252.718 158.329 250.259 156.679 248.29 154.479 245.34 
	 153.379 242.881 152.279 240.42 150.63 237.961 148.43 236.485 
	 146.23 235.501 143.48 234.518 141.28 233.534 139.631 232.55 
	 138.531 231.075 138.531 229.107 139.631 228.615 141.28 228.615 
	 142.93 228.615 144.58 228.123 146.23 228.615 147.88 228.615 
	 148.98 228.615 144.03 227.139 138.531 226.647 133.031 226.647 
	 126.982 226.647 120.932 227.139 115.433 228.123 109.383 228.615 
	 104.434 228.615 104.434 228.615 104.434 228.615 104.434 228.615 
	 104.434 228.615 104.434 228.615 "
	 style=" stroke:#000000; stroke-width:1; fill:#000000; fill-opacity:100%"></polygon>
      </g>
    </g>
  </symbol>
 </defs>
</svg>
