<?xml version="1.0"?>
<?metis version="3.1"?>
<?metisxml version="1.0"?>
<!DOCTYPE svg  PUBLIC "-//W3C//DTD SVG August 1999//EN"
 "http://www.w3.org/Graphics/SVG/svg-19990812.dtd">

<svg width="200" height="200">
 <title>Symbol library: smpm_prerequisite.svg</title>
 <defs>
  <symbol id="oid1" xml:space="preserve" class="METIS_SYMBOL">
   <title>Prerequisite</title>
    <g>
      <polygon points="0 0 0 304 16 320 
       880 320 880 16 864 0 0 0 
       0 0 0 0 0 0 0 0 "
       style=" stroke:#000000; stroke-width:1; fill:#9b9b9b; fill-opacity:100%"       class="TAG:shadow"></polygon>
      <rect x="0" y="0" width="240" height="304"
       style=" stroke:#000000; stroke-width:1; fill:#ffffff; fill-opacity:100%"       class="TAG:PictureBackground"></rect>
      <rect x="240" y="0" width="624" height="304"
       style=" stroke:#000000; stroke-width:1; fill:#ff5050; fill-opacity:100%"       class="TAG:canvas"></rect>
      <g>
	<desc>METIS_TEXT_GROUP</desc>
	<text  x="256" y="15.8"
	 style=" stroke:#000000; stroke-width:1; font-family:sans-serif; font-size:16;"
	 class="TAG:text">text</text>
	<rect x="256" y="0" width="608" height="304"
	 style=" stroke:#000000; stroke-width:1; fill:#ffffff; fill-opacity:0%"></rect>
      </g>
      <polyline points="864 304 880 320"
       style=" stroke:#000000; stroke-width:1;"></polyline>
      <polygon points="16 272 72.9531 272 72.9531 95.7723 
       16 95.7723 16 272 16 272 16 272 
       16 272 16 272 "
       style=" stroke:#000000; stroke-width:1; fill:#ff0000; fill-opacity:100%"       class="TAG:polygon"></polygon>
      <polygon points="129.906 272 186.859 272 186.859 192 
       221.031 192 221.031 146.286 186.859 146.286 186.859 100.571 
       186.859 89.1429 221.031 77.7143 221.031 32 198.25 32 
       164.078 43.4286 141.297 66.2858 129.906 100.571 129.906 272 
       129.906 272 129.906 272 129.906 272 129.906 272 "
       style=" stroke:#000000; stroke-width:1; fill:#ff0000; fill-opacity:100%"       class="TAG:polygon"></polygon>
      <ellipse  cx="48" cy="56" rx="32" ry="24"
       style=" stroke:#000000; stroke-width:1; fill:#ff0000; fill-opacity:100%"></ellipse>
    </g>
  </symbol>
 </defs>
</svg>
