<?xml version="1.0"?>
<?metis version="3.0"?>
<?metisxml version="1.0"?>
<!DOCTYPE svg  PUBLIC "-//W3C//DTD SVG August 1999//EN"
 "http://www.w3.org/Graphics/SVG/svg-19990812.dtd">

<svg width="200" height="200">
 <title>Symbol library: software.svg</title>
 <defs>
  <symbol id="oid1" xml:space="preserve" class="METIS_SYMBOL">
   <title>Software</title>
    <g>
      <polygon points="63.618 105.214 63.618 105.214 48.9369 105.214 
       42.8198 110.107 74.6287 161.491 80.7458 156.597 124.789 68.5113 
       110.108 68.5113 103.991 73.4049 80.7458 129.682 63.618 105.214 "
       style=" stroke:#000000; stroke-width:1; fill:#ffff00; fill-opacity:100%" class="TAG:text"></polygon>
      <polygon points="57.5008 110.107 57.5008 110.107 42.8198 110.107 
       74.6287 161.491 118.672 73.4049 103.991 73.4049 74.6287 134.576 57.5008 110.107 "
       style=" stroke:#000000; stroke-width:1; fill:#ffff6e; fill-opacity:100%" class="TAG:text"></polygon>
      <polygon points="20.7982 68.5113 20.7982 68.5113 6.1171 68.5113 
       0 73.4049 44.0432 161.491 50.1603 156.597 79.5224 105.214 
       64.8414 105.214 58.7242 110.107 50.1603 129.682 20.7982 68.5113 "
       style=" stroke:#000000; stroke-width:1; fill:#ffff00; fill-opacity:100%" class="TAG:text"></polygon>
      <polygon points="51.3837 77.0752 36.7026 77.0752 31.8089 80.7455 
       41.5963 91.7561 53.8305 96.6498 63.6179 99.0966 70.9584 99.0966 
       78.2989 96.6498 85.6394 96.6498 92.0282 91.6163 94.1129 87.1421 
       95.4269 79.5221 95.1553 72.601 92.0282 65.8897 85.6394 58.724 
       79.5224 55.0537 73.4053 52.6069 66.0648 50.16 58.7242 47.7132 
       52.6071 44.043 51.3837 37.9259 53.8305 30.5855 61.171 25.6918 
       68.5116 25.6918 77.0755 26.9152 81.9692 30.5855 83.1926 35.4791 
       90.5332 39.1493 95.4269 35.4791 95.4269 30.5855 92.98 23.245 
       86.8629 17.1279 80.7458 13.4576 70.9584 11.0108 63.6179 11.0108 
       53.8305 13.4576 48.9368 17.1279 44.0432 23.245 39.1495 30.5855 
       37.926 37.9259 39.1495 45.2664 41.5963 52.6069 46.2182 58.0596 
       52.3352 61.4155 59.9476 63.6176 68.5116 66.0645 77.0755 69.7347 
       79.5224 72.1815 81.9692 77.0752 80.7458 81.9689 78.2989 84.4157 
       73.4053 86.8625 66.0648 86.8625 58.7242 84.4157 52.6071 80.7455 51.3837 77.0752 "
       style=" stroke:#000000; stroke-width:1; fill:#ffff00; fill-opacity:100%" class="TAG:text"></polygon>
      <polygon points="46.49 80.7454 31.8089 80.7454 31.8089 85.6391 
       36.7026 95.4263 48.9368 100.32 58.7242 102.767 66.0648 102.767 
       73.4053 100.32 79.8398 98.6421 87.1345 95.2865 89.2193 90.8123 
       90.5332 83.1923 90.2616 76.2712 87.1345 69.5599 80.7458 62.3942 
       74.6287 58.7239 68.5116 56.2771 61.171 53.8302 53.8305 51.3834 
       47.7134 47.7132 46.49 41.5961 48.9368 34.2557 56.2773 29.362 
       63.6179 29.362 72.1819 30.5854 77.0755 34.2557 78.2989 39.1492 
       90.5332 39.1492 90.5332 34.2557 88.0864 26.9152 81.9692 20.7981 
       75.8521 17.1278 66.0648 14.681 58.7242 14.681 48.9368 17.1278 
       44.0432 22.0215 39.1495 26.9152 34.2558 34.2557 33.0324 41.5961 
       34.2558 48.9366 36.7026 56.2771 41.3245 61.7298 47.4416 65.0857 
       55.0539 67.2878 63.6179 69.7347 72.1819 73.4049 74.6287 75.8517 
       77.0755 80.7454 75.8521 85.6391 73.4053 88.0858 68.5116 90.5327 
       61.171 90.5327 53.8305 88.0858 47.7134 84.4157 46.49 80.7454 "
       style=" stroke:#000000; stroke-width:1; fill:#ffff6e; fill-opacity:100%" class="TAG:text"></polygon>
      <polyline points="46.49 80.7454 46.49 80.7454 51.3837 77.0752"
       style=" stroke:#000000; stroke-width:1;" class="TAG:text"></polyline>
      <polygon points="14.6811 73.4049 14.6811 73.4049 0 73.4049 
       44.0432 161.491 73.4053 110.107 58.7242 110.107 44.0432 134.576 14.6811 73.4049 "
       style=" stroke:#000000; stroke-width:1; fill:#ffff6e; fill-opacity:100%" class="TAG:text"></polygon>
      <polyline points="14.6811 73.4049 14.6811 73.4049 20.7982 68.5113"
       style=" stroke:#000000; stroke-width:1;" class="TAG:text"></polyline>
      <polyline points="57.5008 110.107 57.5008 110.107 63.6179 105.214"
       style=" stroke:#000000; stroke-width:1;" class="TAG:text"></polyline>
      <polyline points="73.4053 110.107 73.4053 110.107 79.5224 105.214"
       style=" stroke:#000000; stroke-width:1;" class="TAG:text"></polyline>
      <polyline points="118.671 73.4049 118.671 73.4049 124.789 68.5113"
       style=" stroke:#000000; stroke-width:1;" class="TAG:text"></polyline>
    </g>
    <polygon points="130.294 166.385 512 166.385 512 0 
     130.294 0 130.294 166.385 "
     style=" stroke:#000000; stroke-width:1; fill:#ffff37; fill-opacity:100%" class="TAG:text"></polygon>
    <g>
      <desc>METIS_TEXT_GROUP</desc>
      <text  x="141.916" y="23.1405"
       style=" stroke:#000000; stroke-width:1; font-family:sans-serif; font-size:16;" class="TAG:text"
>text</text>
      <rect x="141.916" y="7.3405" width="360.296" height="149.257"
       style=" stroke:#000000; stroke-width:1; fill:#000000; fill-opacity:0%"></rect>
    </g>
  </symbol>
 </defs>
</svg>
