<?xml version="1.0"?>
<?metis version="3.2.2"?>
<?metisxml version="1.1"?>
<!DOCTYPE svg  PUBLIC "-//W3C//DTD SVG August 1999//EN"
 "http://www.w3.org/Graphics/SVG/svg-19990812.dtd">

<svg width="200" height="200">
 <title>Symbol library: ssf.svg</title>
 <defs>
  <symbol id="oid2" xml:space="preserve" class="METIS_SYMBOL">
   <title>CSF Basic</title>
    <g>
      <polygon points="0 0 0 304 16 320 
       880 320 880 16 864 0 0 0 
       0 0 0 0 0 0 0 0 
       0 0 0 0 "
       style=" stroke:#000000; stroke-width:1; fill:#9b9b9b; fill-opacity:100%"       class="TAG:shadow"></polygon>
      <rect x="0" y="0" width="240" height="304"
       style=" stroke:#000000; stroke-width:1; fill:#ffff6e; fill-opacity:100%"       class="TAG:PictureBackground"></rect>
      <rect x="240" y="0" width="624" height="304"
       style=" stroke:#000000; stroke-width:1; fill:#ff8c8c; fill-opacity:100%"       class="TAG:canvas"></rect>
      <g>
	<polygon points="145.933 122.836 163.844 137.127 166.415 134.918 
	 166.415 122.836 145.933 110.754 125.451 110.754 104.969 122.836 
	 104.969 134.918 125.451 147 145.933 147 145.933 159.082 
	 125.451 159.082 104.969 147 102.409 148.51 104.969 159.082 
	 125.451 171.165 145.933 171.165 166.415 159.082 166.415 147 
	 145.933 134.918 125.451 134.918 125.451 122.836 145.933 122.836 
	 145.933 122.836 145.933 122.836 145.933 122.836 145.933 122.836 
	 145.933 122.836 145.933 122.836 145.933 122.836 145.933 122.836 
	 145.933 122.836 145.933 122.836 "
	 style=" stroke:#000000; stroke-width:1; fill:#b9b9b9; fill-opacity:100%"></polygon>
	<polygon points="143.373 125.353 163.855 137.435 163.855 125.353 
	 143.373 113.271 122.891 113.271 102.409 125.353 102.409 137.435 
	 122.891 149.517 143.373 149.517 143.373 161.599 122.891 161.599 
	 102.409 149.517 102.409 161.599 122.891 173.682 143.373 173.682 
	 163.855 161.599 163.855 149.517 143.373 137.435 122.891 137.435 
	 122.891 125.353 143.373 125.353 143.373 125.353 143.373 125.353 
	 143.373 125.353 143.373 125.353 143.373 125.353 143.373 125.353 
	 143.373 125.353 143.373 125.353 143.373 125.353 143.373 125.353 "
	 style=" stroke:#000000; stroke-width:1; fill:#007af4; fill-opacity:100%"></polygon>
      </g>
      <g>
	<polygon points="178.598 268.411 178.598 228.137 176 210.555 
	 178.598 208 229.803 208 229.803 218.069 227.204 220.623 
	 188.839 218.069 188.839 228.137 209.321 228.137 209.321 238.206 
	 206.722 240.76 188.839 238.206 188.839 268.411 186.24 270.966 
	 178.598 268.411 178.598 268.411 178.598 268.411 178.598 268.411 
	 178.598 268.411 178.598 268.411 178.598 268.411 178.598 268.411 
	 178.598 268.411 178.598 268.411 178.598 268.411 "
	 style=" stroke:#000000; stroke-width:1; fill:#b9b9b9; fill-opacity:100%"></polygon>
	<polygon points="176 270.966 176 230.692 176 210.555 
	 227.204 210.555 227.204 220.623 186.24 220.623 186.24 230.692 
	 206.722 230.692 206.722 240.76 186.24 240.76 186.24 270.966 
	 176 270.966 176 270.966 176 270.966 176 270.966 
	 176 270.966 176 270.966 176 270.966 176 270.966 
	 176 270.966 176 270.966 176 270.966 "
	 style=" stroke:#000000; stroke-width:1; fill:#007af4; fill-opacity:100%"></polygon>
      </g>
      <g>
	<polygon points="76.6525 42.0685 85.3606 54.6541 88.3251 52.137 
	 88.3251 42.0685 76.6525 32 53.3071 32 34.9645 44.0822 
	 32 46.6308 34.9645 79.8254 53.3071 92.411 76.0966 92.411 
	 88.3251 82.3425 88.3251 72.274 76.6525 82.3425 54.9747 82.3425 
	 48.3046 77.3083 48.3046 47.1028 54.9747 42.0685 76.6525 42.0685 
	 76.6525 42.0685 76.6525 42.0685 76.6525 42.0685 76.6525 42.0685 76.6525 42.0685 "
	 style=" stroke:#000000; stroke-width:1; fill:#b9b9b9; fill-opacity:100%"></polygon>
	<polygon points="73.688 44.5856 85.3606 54.6541 85.3606 44.5856 
	 73.688 34.5171 50.3426 34.5171 32 46.5993 32 58.6815 
	 32 82.3425 50.3426 94.9282 73.1321 94.9282 85.3606 84.8596 
	 85.3606 74.7911 73.688 84.8596 52.0102 84.8596 45.3402 79.8254 
	 45.3402 49.6199 52.0102 44.5856 73.688 44.5856 73.688 44.5856 
	 73.688 44.5856 73.688 44.5856 73.688 44.5856 73.688 44.5856 "
	 style=" stroke:#000000; stroke-width:1; fill:#007af4; fill-opacity:100%"></polygon>
      </g>
      <polyline points="864 304 880 320"
       style=" stroke:#000000; stroke-width:1;"></polyline>
      <g>
	<desc>METIS_TEXT_GROUP</desc>
	<text  x="256" y="15"
	 style=" stroke:#000000; stroke-width:1; font-family:sans-serif; font-size:16;"
	 class="TAG:text">text</text>
	<rect x="256" y="0" width="608" height="304"
	 style=" stroke:#000000; stroke-width:1; fill:#ffff6e; fill-opacity:0%"></rect>
      </g>
    </g>
  </symbol>
  <symbol id="oid1" xml:space="preserve" class="METIS_SYMBOL">
   <title>CSF</title>
    <g>
      <polygon points="0 0 0 304 16 320 
       880 320 880 16 864 0 0 0 
       0 0 0 0 0 0 0 0 
       0 0 0 0 "
       style=" stroke:#000000; stroke-width:1; fill:#9b9b9b; fill-opacity:100%"       class="TAG:shadow"></polygon>
      <rect x="240" y="224" width="624" height="80"
       style=" stroke:#000000; stroke-width:1; fill:#dcdcdc; fill-opacity:100%"       class="TAG:PropertyBackground"></rect>
      <rect x="0" y="0" width="240" height="304"
       style=" stroke:#000000; stroke-width:1; fill:#ffff6e; fill-opacity:100%"       class="TAG:PictureBackground"></rect>
      <rect x="240" y="0" width="624" height="224"
       style=" stroke:#000000; stroke-width:1; fill:#ff8c8c; fill-opacity:100%"       class="TAG:canvas"></rect>
      <g>
	<desc>METIS_TEXT_GROUP</desc>
	<text  x="256" y="236.911"
	 style=" stroke:#000000; stroke-width:1; font-family:sans-serif; font-size:13;"
	 class="TAG:weight">weight</text>
	<rect x="256" y="224.911" width="261.782" height="77.4242"
	 style=" stroke:#000000; stroke-width:1; fill:#ffffff; fill-opacity:0%"></rect>
      </g>
      <g>
	<desc>METIS_TEXT_GROUP</desc>
	<text  x="517.782" y="236"
	 style=" stroke:#000000; stroke-width:1; font-family:sans-serif; font-size:13;"
	 class="TAG:strat_value">strat_value</text>
	<rect x="517.782" y="224" width="327.645" height="79.2459"
	 style=" stroke:#000000; stroke-width:1; fill:#ffffff; fill-opacity:0%"></rect>
      </g>
      <g>
	<polygon points="145.933 122.836 163.844 137.127 166.415 134.918 
	 166.415 122.836 145.933 110.754 125.451 110.754 104.969 122.836 
	 104.969 134.918 125.451 147 145.933 147 145.933 159.082 
	 125.451 159.082 104.969 147 102.409 148.51 104.969 159.082 
	 125.451 171.165 145.933 171.165 166.415 159.082 166.415 147 
	 145.933 134.918 125.451 134.918 125.451 122.836 145.933 122.836 
	 145.933 122.836 145.933 122.836 145.933 122.836 145.933 122.836 
	 145.933 122.836 145.933 122.836 145.933 122.836 145.933 122.836 
	 145.933 122.836 145.933 122.836 "
	 style=" stroke:#000000; stroke-width:1; fill:#b9b9b9; fill-opacity:100%"></polygon>
	<polygon points="143.373 125.353 163.855 137.435 163.855 125.353 
	 143.373 113.271 122.891 113.271 102.409 125.353 102.409 137.435 
	 122.891 149.517 143.373 149.517 143.373 161.599 122.891 161.599 
	 102.409 149.517 102.409 161.599 122.891 173.682 143.373 173.682 
	 163.855 161.599 163.855 149.517 143.373 137.435 122.891 137.435 
	 122.891 125.353 143.373 125.353 143.373 125.353 143.373 125.353 
	 143.373 125.353 143.373 125.353 143.373 125.353 143.373 125.353 
	 143.373 125.353 143.373 125.353 143.373 125.353 143.373 125.353 "
	 style=" stroke:#000000; stroke-width:1; fill:#007af4; fill-opacity:100%"></polygon>
      </g>
      <g>
	<polygon points="178.598 268.411 178.598 228.137 176 210.555 
	 178.598 208 229.803 208 229.803 218.069 227.204 220.623 
	 188.839 218.069 188.839 228.137 209.321 228.137 209.321 238.206 
	 206.722 240.76 188.839 238.206 188.839 268.411 186.24 270.966 
	 178.598 268.411 178.598 268.411 178.598 268.411 178.598 268.411 
	 178.598 268.411 178.598 268.411 178.598 268.411 178.598 268.411 
	 178.598 268.411 178.598 268.411 178.598 268.411 "
	 style=" stroke:#000000; stroke-width:1; fill:#b9b9b9; fill-opacity:100%"></polygon>
	<polygon points="176 270.966 176 230.692 176 210.555 
	 227.204 210.555 227.204 220.623 186.24 220.623 186.24 230.692 
	 206.722 230.692 206.722 240.76 186.24 240.76 186.24 270.966 
	 176 270.966 176 270.966 176 270.966 176 270.966 
	 176 270.966 176 270.966 176 270.966 176 270.966 
	 176 270.966 176 270.966 176 270.966 "
	 style=" stroke:#000000; stroke-width:1; fill:#007af4; fill-opacity:100%"></polygon>
      </g>
      <g>
	<polygon points="76.6525 42.0685 85.3606 54.6541 88.3251 52.137 
	 88.3251 42.0685 76.6525 32 53.3071 32 34.9645 44.0822 
	 32 46.6308 34.9645 79.8254 53.3071 92.411 76.0966 92.411 
	 88.3251 82.3425 88.3251 72.274 76.6525 82.3425 54.9747 82.3425 
	 48.3046 77.3083 48.3046 47.1028 54.9747 42.0685 76.6525 42.0685 
	 76.6525 42.0685 76.6525 42.0685 76.6525 42.0685 76.6525 42.0685 76.6525 42.0685 "
	 style=" stroke:#000000; stroke-width:1; fill:#b9b9b9; fill-opacity:100%"></polygon>
	<polygon points="73.688 44.5856 85.3606 54.6541 85.3606 44.5856 
	 73.688 34.5171 50.3426 34.5171 32 46.5993 32 58.6815 
	 32 82.3425 50.3426 94.9282 73.1321 94.9282 85.3606 84.8596 
	 85.3606 74.7911 73.688 84.8596 52.0102 84.8596 45.3402 79.8254 
	 45.3402 49.6199 52.0102 44.5856 73.688 44.5856 73.688 44.5856 
	 73.688 44.5856 73.688 44.5856 73.688 44.5856 73.688 44.5856 "
	 style=" stroke:#000000; stroke-width:1; fill:#007af4; fill-opacity:100%"></polygon>
      </g>
      <polyline points="864 304 880 320"
       style=" stroke:#000000; stroke-width:1;"></polyline>
      <g>
	<desc>METIS_TEXT_GROUP</desc>
	<text  x="256" y="15"
	 style=" stroke:#000000; stroke-width:1; font-family:sans-serif; font-size:16;"
	 class="TAG:text">text</text>
	<rect x="256" y="0" width="608" height="224"
	 style=" stroke:#000000; stroke-width:1; fill:#ffff6e; fill-opacity:0%"></rect>
      </g>
    </g>
  </symbol>
 </defs>
</svg>
