<?xml version="1.0" encoding="UTF-8" standalone="no"?>
<svg id="svg2" xmlns:rdf="http://www.w3.org/1999/02/22-rdf-syntax-ns#" xmlns="http://www.w3.org/2000/svg" enable-background="new -0.556 -0.486 209 199" xml:space="preserve" height="219" width="219" version="1.1" y="0px" x="0px" xmlns:cc="http://creativecommons.org/ns#" xmlns:dc="http://purl.org/dc/elements/1.1/" viewBox="-0.556 -0.486 219 219"><metadata id="metadata287"><rdf:RDF><cc:Work rdf:about=""><dc:format>image/svg+xml</dc:format><dc:type rdf:resource="http://purl.org/dc/dcmitype/StillImage"/><dc:title/></cc:Work></rdf:RDF></metadata><defs id="defs4"><filter id="filter4412" color-interpolation-filters="sRGB"><feGaussianBlur id="feGaussianBlur4414" stdDeviation="2.2096145"/></filter></defs><g id="g3582"><path id="path3642" opacity="0.5" d="m86.457,213.53c-8.6333-2.7489-13.915-6.6425-27.068-19.954-9.3291-9.4418-14.056-13.269-20.47-16.572-9.7591-5.027-15.259-10.295-19.221-18.41-4.1272-8.4547-4.4724-14.22-1.875-31.32,2.1347-14.054,2.1814-16.016,0.65603-27.569-3.5813-27.123-0.61724-42.078,10.64-53.685,7.0075-7.2255,14.268-9.8971,29.929-11.012,14.858-1.0582,17.238-1.7294,26.863-7.5761,10.305-6.26,16.822-7.8275,32.565-7.8326,22.055-0.007,33.914,4.3393,48.344,17.719,6.0448,5.6048,10.333,8.5518,14.544,9.9957,9.5991,3.2909,17.226,7.5483,19.759,11.029,1.9541,2.6859,2.4708,5.6254,3.0289,17.23,0.7466,15.525,2.5044,20.891,11.046,33.721,5.9634,8.9574,7.2349,12.168,7.2349,18.269,0,7.4789-2.1522,11.587-11.159,21.301-8.4518,9.1153-9.2217,10.658-15.157,30.365-4.9546,16.452-10.997,24.018-21.365,26.75-2.5213,0.66451-10.27,1.1301-17.22,1.0347-10.863-0.1491-14.811,0.36812-28.143,3.6866-18.515,4.6086-34.117,5.6369-42.933,2.8296z" fill-rule="evenodd" transform="matrix(0.96849813,0,0,0.96849813,-2.4644802,0.21441877)" filter="url(#filter4412)" stroke-miterlimit="4" stroke-width="0" fill="#000"/><g id="g3473" transform="matrix(0.96375965,0,0,0.96375965,5.2665051,-8.1210484)"><path id="path239" fill="#FFF" d="m185.38,110.72c3.479,5.031,4.654,8.368,5.172,9.778,0.517,1.41,1.41,7.521,0.61,10.482-0.799,2.963,1.74,1.914,2.068-1.832,0.47-5.359-0.941-8.721-2.491-11.565-1.692-3.101-2.82-4.418-5.359-6.863z"/><path id="path241" fill="#e0c398" d="m71.507,27.806c15.664-12.04,62.259-11.282,80.125,10.271,13.305,16.054,22.216,8.511,33.582,19.876,8.052,8.053,1.982,24.133,5.396,33.909,7.851,22.466,19.04,23.517,17.092,40.779-1.729,15.326-16.965,16.772-22.093,33.57-5.921,19.393-7.454,47.732-43.017,42.502-23.82-3.5-65.166,28.17-95.862-10.09-22.578-28.14-31.208-13.91-43.892-39.61-7.888-15.98,3.475-34.65,0.684-51.49-2.901-17.527-7.145-43.785,10.246-61.174,18.536-18.538,36.348-2.096,57.741-18.54z"/><path id="path243" fill="#cfaa7a" d="M2.712,90.033c-1.758-10.553,1.522-31.976,10.963-39.284,9.44-7.31,13.705-12.182,22.231-12.486,8.528-0.306,18.882,0,26.495-3.96,7.614-3.958,15.531-9.136,20.1-10.354,4.568-1.218,24.97-3.351,32.891-1.827,7.917,1.522,22.84,5.481,32.28,14.922s14.922,13.705,21.012,15.227c6.092,1.522,19.492,4.873,18.273,18.881-1.218,14.008-1.98,20.556,5.025,29.388,7.004,8.833,13.551,23.603,14.161,28.169,0.608,4.568,0,11.572-7.005,17.057-7.005,5.479-14.618,16.139-16.749,27.101-2.133,10.966-6.699,22.841-10.659,26.801-3.96,3.958-16.75,5.784-24.973,5.784s-23.449,2.438-31.366,4.877c-7.92,2.434-25.277,9.742-40.505,4.261-15.224-5.48-25.274-15.53-32.887-23.45-7.614-7.92-25.582-16.14-31.064-22.53-5.482-6.4-10.659-15.23-8.222-31.98,2.437-16.752,3.35-26.495,0-46.596z"/><path id="path245" fill="#ddb78a" d="m18.09,83.942c2.563-16.018,17.816-31.976,27.866-37.001s17.359-6.852,23.296-9.592c5.938-2.741,13.248,0.456,23.753-2.286,10.508-2.74,34.717-9.136,42.942,0.458,8.221,9.593,20.099,18.729,29.69,21.927,9.593,3.196,19.185,17.357,18.729,28.321-0.457,10.963,2.741,23.297,5.938,29.236,3.198,5.939,1.827,23.755-3.655,33.803-5.48,10.051-10.049,22.387-12.79,29.236-2.741,6.852-15.531,20.556-27.865,22.386-12.333,1.827-22.841,4.108-34.717,7.307-11.878,3.199-31.977,2.74-44.31-4.111-12.337-6.86-30.151-21.47-35.635-25.13-5.481-3.65-18.729-17.81-19.185-31.06-0.458-13.25-4.568-20.56-4.112-35.63,0.238-7.78,8.226-16.447,10.052-27.868z"/><path id="path247" fill="#eac9a4" d="m134.44,40.857c10.647,10.647,20.801,17.033,32.25,24.248,6.694,4.22,13.111,17.372,13.111,27.518,0,9.234,6.851,23.144,6.851,32.892,0,13.157-8.922,21.712-11.717,35.332-2.56,12.473-9.726,18.124-19.377,26.211-9.283,7.772-19.914,13.943-35.258,13.943-7.764,0-11.763,4.909-24.552,4.909-17.053,0-26.538-5.48-39.875-13.837-9.463-5.928-19.724-11.609-26.273-20.616-6.143-8.452-10.597-17.694-10.597-28.434,0-9.114-8.296-16.604-5.937-26.648,2.894-12.334,9.234-16.41,11.07-29.799,2.418-17.631,30.041-41.77,47.592-45.573,9.114-1.974,18.602-1.176,28.13-3.653,12.293-3.199,26.413-4.663,34.582,3.507z"/><circle id="circle249" d="m 175.232,100.487 c 0,41.62736 -33.74564,75.373 -75.372999,75.373 -41.627359,0 -75.373001,-33.74564 -75.373001,-75.373 0,-41.62736 33.745642,-75.373002 75.373001,-75.373002 41.627359,0 75.372999,33.745642 75.372999,75.373002 z" cx="99.859" transform="translate(0,20)" cy="100.49" r="75.373" fill="#efd6bd"/><circle id="circle251" d="m 169.096,100.487 c 0,38.23854 -30.99846,69.237 -69.236999,69.237 -38.238539,0 -69.236999,-30.99846 -69.236999,-69.237 0,-38.238539 30.99846,-69.237 69.236999,-69.237 38.238539,0 69.236999,30.998461 69.236999,69.237 z" cx="99.859" transform="translate(0,20)" cy="100.49" r="69.237" fill="#f7e3d0"/><circle id="circle253" d="m 166.906,100.487 c 0,37.02903 -30.01796,67.047 -67.046999,67.047 -37.029034,0 -67.046997,-30.01797 -67.046997,-67.047 0,-37.029034 30.017963,-67.046998 67.046997,-67.046998 37.029039,0 67.046999,30.017964 67.046999,67.046998 z" cx="99.859" transform="translate(0,20)" cy="100.49" r="67.047" fill="#e5c5a8"/><path id="path255" fill="#FFF" d="m72.451,30.04c5.048-4.038,10.735-5.025,15.987-5.71,5.255-0.685,23.983-3.197,33.119,0-5.253-0.23-25.352-0.457-29.692,0.456s-11.877,1.827-19.414,5.254z"/><path id="path257" fill="#a07f58" d="m190.31,115c3.883,7.463,3.351,15.455-0.075,24.137,1.216-8.834,2.664-14.543,0.075-24.137z"/><path id="path259" fill="#cfaa7a" d="M14.437,94.906c1.599-7.194,1.827-7.993,2.284-12.906,0.457-4.911,2.854-10.733,7.537-17.129,4.683-6.395,11.992-13.589,15.875-15.875,3.881-2.283,8.679-4.11,13.246-5.595-9.707,6.166-11.534,4.454-19.756,13.246-8.222,8.794-12.79,17.93-13.476,20.672-0.685,2.74-1.828,8.336-2.627,10.393-0.799,2.055-1.484,5.137-3.083,7.194z"/><path id="path261" fill="#cfaa7a" d="m91.484,38.871c6.548-1.599,9.594-1.902,12.866-2.587,3.274-0.687,9.137-1.523,11.726-1.447,2.589,0.077,9.517,0.305,12.105,1.751,2.589,1.445,6.624,4.111,8.604,6.777-4.568-3.198-9.593-5.407-13.554-5.938-3.958-0.535-11.495-0.914-17.357,0-5.864,0.911-11.192,0.759-14.39,1.444z"/><path id="path263" fill="#e5c5a8" d="m53.341,189.16c5.634,4.035,14.16,9.135,18.881,11.114,4.72,1.982,10.05,3.429,18.349,4.57-8.68-1.827-14.44-3.579-19.109-5.711-4.339-1.978-15.074-8.147-18.121-9.973z"/><path id="path265" fill="#cfaa7a" d="m197.39,110.21c-1.37-2.055-5.862,1.676-4.188,4.797,1.675,3.122,2.36,16.675-0.075,22.309-2.437,5.634-5.633,12.258-5.633,14.77s1.673,4.721,3.882,2.057c2.208-2.664,8.984-8.681,10.507-10.507,1.522-1.829,6.851-6.396,4.721-14.693-2.132-8.301-4.493-13.936-9.214-18.733z"/><path id="path267" fill="#a07f58" d="m197.39,110.21c4.227,6.11,5.653,10.162,6.282,11.878,0.627,1.712,1.714,9.135,0.74,12.733-0.97,3.598,2.115,2.325,2.514-2.227,0.57-6.51-1.144-10.593-3.026-14.049-2.056-3.767-3.426-5.367-6.51-8.335z"/><path id="path269" fill="#e5c5a8" d="M14.78,54.25c-4.54,4.196-8.794,7.309-11.611,18.272,1.828-13.704,4.569-14.77,6.547-17.968,1.979-3.197,9.148-11.124,15.114-13.666,3.482-1.484,9.705-3.083,13.97-2.931,4.264,0.152,1.577,3.928-4.835,6.016-6.547,2.13-11.649,3.311-19.185,10.277z"/><path id="path271" fill="#a07f58" d="m51.779,201.34c9.822,6.968,14.391,11.877,24.441,13.021,10.049,1.14,20.555,0.341,25.582,0-9.823,2.852-23.41,2.397-30.15,0-6.738-2.402-12.22-5.827-19.873-13.021z"/><path id="path273" fill="#FFF" d="m38.495,38.794c0.54,0.024-1.673,2.284-4.873,2.969-3.198,0.685-6.015,1.522-7.766,2.209-1.751,0.685-0.608-0.914,0.686-1.751,1.294-0.838,4.95-3.73,11.953-3.427z"/><path id="path275" fill="#efd6bd" d="m12.951,124.14c1.257,4.224,2.627,8.107,3.655,9.935s2.512,7.767,2.397,10.048c0.685-3.425,0.114-7.309-1.484-10.848-1.599-3.542-3.997-5.937-4.568-9.135z"/><path id="path277" fill="#a07f58" d="m2.331,139.44c-0.304,7.006,0.99,14.81,2.588,17.892,1.6,3.083,4.377,9.746,9.517,14.655-4.948-3.45-9.098-11.06-10.126-13.35-1.027-2.28-3.654-8.98-1.979-19.19z"/><path id="path279" fill="#e5c5a8" d="m17.71,163.43c3.123,5.406,7.818,10.053,9.917,11.935,2.74,2.454,8.507,6.509,15.36,11.821-6.472-5.407-10.812-8.91-13.705-11.039-2.891-2.134-6.546-5.409-11.572-12.717z"/><path id="path281" fill="#e5c5a8" d="m147.94,47.169c3.14,2.854,7.707,5.996,10.506,7.137-3.425-2.111-7.479-4.682-10.506-7.137z"/><path id="path283" fill="#a07f58" d="m159.4,60.569c3.731,2.892,8.68,7.234,9.898,8.833,1.218,1.598,4.796,4.264,5.938,6.471-1.901-4.949-3.73-6.624-5.556-8.376-1.828-1.751-8.225-5.48-10.28-6.928z"/></g></g></svg>