<?xml version="1.0" encoding="UTF-8" standalone="no"?>
<svg id="svg2" xmlns:rdf="http://www.w3.org/1999/02/22-rdf-syntax-ns#" xmlns="http://www.w3.org/2000/svg" enable-background="new -0.556 -0.486 209 199" xml:space="preserve" height="219" width="219" version="1.1" y="0px" x="0px" xmlns:cc="http://creativecommons.org/ns#" xmlns:xlink="http://www.w3.org/1999/xlink" viewBox="-0.556 -0.486 219 219" xmlns:dc="http://purl.org/dc/elements/1.1/"><metadata id="metadata296"><rdf:RDF><cc:Work rdf:about=""><dc:format>image/svg+xml</dc:format><dc:type rdf:resource="http://purl.org/dc/dcmitype/StillImage"/><dc:title/></cc:Work></rdf:RDF></metadata><defs id="defs4"><filter id="filter4228" color-interpolation-filters="sRGB"><feGaussianBlur id="feGaussianBlur4230" stdDeviation="1.7548438"/></filter><linearGradient id="linearGradient4084"><stop id="stop4086" stop-color="#545454" offset="0"/><stop id="stop4088" stop-color="#545454" stop-opacity="0" offset="1"/></linearGradient><filter id="filter4080" width="1.4410491" y="-0.094396949" x="-0.22052455" height="1.1887939" color-interpolation-filters="sRGB"><feGaussianBlur id="feGaussianBlur4082" stdDeviation="5.8788878"/></filter><filter id="filter4412"><feGaussianBlur id="feGaussianBlur4414" stdDeviation="2.2096145"/></filter><linearGradient id="linearGradient3037" y2="175.53" xlink:href="#linearGradient4084" gradientUnits="userSpaceOnUse" x2="77.628" y1="176.08" x1="120.68"/><linearGradient id="linearGradient3039" y2="186.89" xlink:href="#linearGradient4084" gradientUnits="userSpaceOnUse" x2="78.458" y1="187.17" x1="106.02"/><linearGradient id="linearGradient3041" y2="198.69" gradientUnits="userSpaceOnUse" x2="81.776" y1="198.69" x1="90.26"><stop id="stop4102" stop-color="#545454" offset="0"/><stop id="stop4104" stop-color="#545454" stop-opacity="0" offset="1"/></linearGradient><radialGradient id="radialGradient3043" gradientUnits="userSpaceOnUse" cy="84.274" cx="70.498" gradientTransform="matrix(0.91141811,0,0,0.91141811,42.366571,14.237944)" r="76.696"><stop id="stop246" stop-color="#FF0" offset="0"/><stop id="stop248" stop-color="#FF0" offset="1"/></radialGradient><radialGradient id="radialGradient3045" gradientUnits="userSpaceOnUse" cy="74.304" cx="93.662" gradientTransform="matrix(1.5263789,0.01999581,-0.01910636,1.4584821,-47.881818,-35.939698)" r="26.006"><stop id="stop4015" stop-color="#FFF" offset="0"/><stop id="stop4017" stop-color="#FFF" stop-opacity="0" offset="1"/></radialGradient><linearGradient id="linearGradient3047" y2="15.603" gradientUnits="userSpaceOnUse" x2="119.6" y1="110.63" x1="156.12"><stop id="stop4058" stop-color="#ff9d00" offset="0"/><stop id="stop4060" stop-color="#f4f56e" offset="1"/></linearGradient></defs><path id="path3642" opacity="0.5" d="m86.457,213.53c-8.6333-2.7489-13.915-6.6425-27.068-19.954-9.3291-9.4418-14.056-13.269-20.47-16.572-9.7591-5.027-15.259-10.295-19.221-18.41-4.1272-8.4547-4.4724-14.22-1.875-31.32,2.1347-14.054,2.1814-16.016,0.65603-27.569-3.5813-27.123-0.61724-42.078,10.64-53.685,7.0075-7.2255,14.268-9.8971,29.929-11.012,14.858-1.0582,17.238-1.7294,26.863-7.5761,10.305-6.26,16.822-7.8275,32.565-7.8326,22.055-0.007,33.914,4.3393,48.344,17.719,6.0448,5.6048,10.333,8.5518,14.544,9.9957,9.5991,3.2909,17.226,7.5483,19.759,11.029,1.9541,2.6859,2.4708,5.6254,3.0289,17.23,0.7466,15.525,2.5044,20.891,11.046,33.721,5.9634,8.9574,7.2349,12.168,7.2349,18.269,0,7.4789-2.1522,11.587-11.159,21.301-8.4518,9.1153-9.2217,10.658-15.157,30.365-4.9546,16.452-10.997,24.018-21.365,26.75-2.5213,0.66451-10.27,1.1301-17.22,1.0347-10.863-0.1491-14.811,0.36812-28.143,3.6866-18.515,4.6086-34.117,5.6369-42.933,2.8296z" fill-rule="evenodd" transform="matrix(0.97693439,0,0,0.97693439,-3.2370104,-0.15487721)" filter="url(#filter4412)" stroke-miterlimit="4" stroke-width="0" fill="#000"/><path id="path239" fill="#FFF" d="m184.6,99.037c3.3988,4.915,4.5467,8.175,5.0527,9.5525,0.50507,1.3775,1.3775,7.3475,0.59593,10.24-0.78057,2.8947,1.6999,1.8698,2.0203-1.7897,0.45916-5.2354-0.9193-8.5198-2.4336-11.298-1.653-3.0295-2.755-4.3161-5.2354-6.7047z"/><path id="path241" fill="#e0c398" d="M73.354,18.032c15.302-11.762,60.826-11.022,78.276,10.034,12.998,15.684,21.704,8.3147,32.807,19.418,7.8663,7.8673,1.9363,23.576,5.2715,33.127,7.6699,21.948,18.601,22.975,16.698,39.838-1.6891,14.972-16.574,16.385-21.583,32.796-5.7844,18.946-7.2821,46.631-42.025,41.522-23.28-3.43-63.666,27.51-93.654-9.86-22.057-27.49-30.488-13.59-42.879-38.7-7.706-15.61,3.3949-33.85,0.6683-50.3-2.8341-17.125-6.9802-42.778,10.01-59.765,18.108-18.111,35.509-2.048,56.409-18.113z"/><path id="path243" fill="#cfaa7a" d="M6.1456,78.824c-1.7175-10.31,1.4869-31.239,10.71-38.378,9.2223-7.1414,13.389-11.901,21.718-12.198,8.3313-0.29894,18.446,0,25.884-3.8687,7.4384-3.8667,15.173-8.9253,19.636-10.115,4.4626-1.1899,24.394-3.2737,32.132-1.7849,7.7344,1.4869,22.313,5.3546,31.535,14.578,9.2223,9.2232,14.578,13.389,20.527,14.876,5.9515,1.4869,19.042,4.7606,17.852,18.445-1.1899,13.685-1.9343,20.082,4.9091,28.71,6.8424,8.6293,13.238,23.059,13.834,27.519,0.59398,4.4626,0,11.305-6.8434,16.664-6.8434,5.3526-14.281,15.767-16.363,26.476-2.0838,10.713-6.5445,22.314-10.413,26.183-3.8687,3.8667-16.364,5.6506-24.397,5.6506-8.0333,0-22.908,2.3818-30.643,4.7645-7.7373,2.3778-24.694,9.5173-39.571,4.1627-14.874-5.3536-24.692-15.172-32.129-22.907-7.4384-7.7364-24.992-15.767-30.347-22.016-5.3556-6.2485-10.413-14.875-8.0324-31.239,2.3808-16.366,3.2727-25.884,0-45.521z"/><path id="path245" fill="#ddb78a" d="M21.169,72.873c2.504-15.648,17.405-31.238,27.223-36.147,9.8182-4.9091,16.959-6.694,22.759-9.3708,5.801-2.6778,12.942,0.44548,23.205-2.2333,10.266-2.6768,33.916-8.9253,41.952,0.44744,8.0314,9.3717,19.635,18.297,29.005,21.421,9.3717,3.1223,18.742,16.957,18.297,27.668-0.44646,10.71,2.6778,22.76,5.801,28.562,3.1242,5.802,1.7849,23.207-3.5707,33.023-5.3536,9.8192-9.8172,21.871-12.495,28.562-2.6778,6.694-15.173,20.082-27.222,21.87-12.049,1.7849-22.314,4.0132-33.916,7.1385-11.604,3.1252-31.239,2.6768-43.288-4.0162-12.05-6.6949-29.453-20.974-34.81-24.543-5.3546-3.5707-18.297-17.406-18.742-30.347-0.44744-12.941-4.4626-20.082-4.0172-34.808,0.23251-7.5986,8.0363-16.068,9.8201-27.225z"/><path id="path247" fill="#eac9a4" d="m134.83,30.782c10.401,10.401,20.321,16.64,31.506,23.689,6.5396,4.1227,12.809,16.971,12.809,26.883,0,9.021,6.693,22.61,6.693,32.133,0,12.854-8.7162,21.211-11.447,34.517-2.501,12.185-9.5017,17.706-18.93,25.606-9.0689,7.5927-19.455,13.621-34.445,13.621-7.5849,0-11.492,4.7958-23.986,4.7958-16.66,0-25.926-5.3536-38.955-13.518-9.2447-5.7913-19.269-11.341-25.667-20.14-6.0013-8.257-10.353-17.286-10.353-27.778,0-8.9038-8.1046-16.221-5.8001-26.033,2.8272-12.05,9.021-16.031,10.815-29.112,2.3622-17.224,29.348-40.807,46.494-44.522,8.9038-1.9285,18.173-1.1489,27.481-3.5687,12.009-3.1252,25.804-4.5554,33.784,3.4261z"/><circle id="circle249" d="m 175.232,100.487 c 0,41.62736 -33.74564,75.373 -75.372999,75.373 -41.627359,0 -75.373001,-33.74564 -75.373001,-75.373 0,-41.62736 33.745642,-75.373002 75.373001,-75.373002 41.627359,0 75.372999,33.745642 75.372999,75.373002 z" cx="99.859" transform="matrix(0.97693439,0,0,0.97693439,3.496145,10.40627)" cy="100.49" r="75.373" fill="#efd6bd"/><circle id="circle251" d="m 169.096,100.487 c 0,38.23854 -30.99846,69.237 -69.236999,69.237 -38.238539,0 -69.236999,-30.99846 -69.236999,-69.237 0,-38.238539 30.99846,-69.237 69.236999,-69.237 38.238539,0 69.236999,30.998461 69.236999,69.237 z" cx="99.859" transform="matrix(0.97693439,0,0,0.97693439,3.496145,10.40627)" cy="100.49" r="69.237" fill="#f7e3d0"/><circle id="circle253" d="m 166.906,100.487 c 0,37.02903 -30.01796,67.047 -67.046999,67.047 -37.029034,0 -67.046997,-30.01797 -67.046997,-67.047 0,-37.029034 30.017963,-67.046998 67.046997,-67.046998 37.029039,0 67.046999,30.017964 67.046999,67.046998 z" cx="99.859" transform="matrix(0.97693439,0,0,0.97693439,3.496145,10.40627)" cy="100.49" r="67.047" fill="#d5a071"/><path id="path255" fill="#FFF" d="m74.276,20.215c4.9316-3.9449,10.487-4.9091,15.618-5.5783,5.1338-0.6692,23.43-3.1233,32.355,0-5.1318-0.2247-24.767-0.44646-29.007,0.44548-4.2399,0.89194-11.603,1.7849-18.966,5.1328z"/><path id="path257" fill="#a07f58" d="m189.41,103.22c3.7934,7.2909,3.2737,15.099-0.0733,23.58,1.188-8.6302,2.6026-14.208,0.0733-23.58z"/><path id="path259" fill="#cfaa7a" d="m17.6,83.585c1.5621-7.0281,1.7849-7.8086,2.2313-12.608,0.44646-4.7977,2.7882-10.485,7.3632-16.734,4.575-6.2475,11.715-13.276,15.509-15.509,3.7915-2.2303,8.4788-4.0152,12.94-5.4659-9.4831,6.0238-11.268,4.3513-19.3,12.94-8.0324,8.5912-12.495,17.516-13.165,20.195-0.6692,2.6768-1.7858,8.1437-2.5664,10.153-0.78057,2.0076-1.4498,5.0185-3.0119,7.0281z"/><path id="path261" fill="#cfaa7a" d="m92.87,28.842c6.397-1.5621,9.3727-1.8581,12.569-2.5273,3.1985-0.67115,8.9262-1.4879,11.456-1.4136,2.5293,0.07522,9.2975,0.29796,11.826,1.7106,2.5293,1.4117,6.4712,4.0162,8.4056,6.6207-4.4626-3.1242-9.3717-5.2823-13.241-5.801-3.8667-0.52266-11.23-0.89292-16.957,0-5.7288,0.88999-10.934,0.74149-14.058,1.4107z"/><path id="path263" fill="#e5c5a8" d="m55.607,175.66c5.504,3.9419,13.833,8.9243,18.445,10.858,4.6111,1.9363,9.8182,3.3499,17.926,4.4646-8.4798-1.7849-14.107-3.4964-18.668-5.5793-4.2389-1.9324-14.726-7.9591-17.703-9.743z"/><path id="path265" fill="#cfaa7a" d="m196.33,98.534c-1.3384-2.0076-5.7268,1.6373-4.0914,4.6864,1.6364,3.05,2.3056,16.29-0.0733,21.794-2.3808,5.504-5.5031,11.975-5.5031,14.429,0,2.4541,1.6344,4.6121,3.7925,2.0096,2.1571-2.6026,8.7768-8.4808,10.265-10.265,1.4869-1.7868,6.693-6.2485,4.6121-14.354-2.0828-8.1095-4.3894-13.615-9.0015-18.301z"/><path id="path267" fill="#a07f58" d="m196.33,98.534c4.1295,5.9691,5.5226,9.9276,6.1371,11.604,0.61253,1.6725,1.6745,8.9243,0.72293,12.439-0.94763,3.515,2.0662,2.2714,2.456-2.1756,0.55685-6.3598-1.1176-10.349-2.9562-13.725-2.0086-3.6801-3.347-5.2432-6.3598-8.1428z"/><path id="path269" fill="#e5c5a8" d="M17.935,43.866c-4.435,4.099-8.5909,7.141-11.343,17.851,1.7858-13.388,4.4639-14.43,6.3959-17.554,1.9334-3.1233,8.937-10.867,14.765-13.351,3.4017-1.4498,9.4811-3.0119,13.648-2.8634,4.1656,0.14849,1.5406,3.8374-4.7235,5.8772-6.396,2.0809-11.38,3.2346-18.742,10.04z"/><path id="path271" fill="#a07f58" d="m54.081,187.57c9.5954,6.8073,14.059,11.603,23.877,12.721,9.8172,1.1137,20.081,0.33313,24.992,0-9.5964,2.7862-22.87,2.3417-29.455,0-6.5826-2.3466-11.938-5.6926-19.415-12.721z"/><path id="path273" fill="#FFF" d="m41.103,28.767c0.52754,0.02345-1.6344,2.2313-4.7606,2.9005-3.1242,0.6692-5.8763,1.4869-7.5869,2.158-1.7106,0.6692-0.59398-0.89292,0.67018-1.7106,1.2642-0.81867,4.8358-3.644,11.677-3.348z"/><path id="path275" fill="#efd6bd" d="m16.148,112.15c1.228,4.1266,2.5664,7.92,3.5707,9.7058s2.4541,7.5878,2.3417,9.8162c0.6692-3.346,0.11137-7.1404-1.4498-10.598-1.5621-3.4603-3.9048-5.8001-4.4626-8.9243z"/><path id="path277" fill="#a07f58" d="m5.7734,127.1c-0.29699,6.8444,0.96716,14.468,2.5283,17.479,1.5631,3.0119,4.276,9.5212,9.2975,14.317-4.8339-3.3831-8.8881-10.821-9.8924-13.051-1.0033-2.2323-3.5697-8.7758-1.9334-18.745z"/><path id="path279" fill="#e5c5a8" d="m20.798,150.53c3.051,5.2813,7.6377,9.8211,9.6883,11.66,2.6768,2.3974,8.3108,6.3589,15.006,11.548-6.3227-5.2823-10.563-8.7045-13.389-10.784-2.8243-2.0848-6.395-5.2842-11.305-12.424z"/><path id="path281" fill="#e5c5a8" d="m148.02,36.949c3.0676,2.7882,7.5292,5.8577,10.264,6.9724-3.346-2.0623-7.3065-4.574-10.264-6.9724z"/><path id="path283" fill="#a07f58" d="m159.22,50.04c3.6449,2.8253,8.4798,7.0671,9.6697,8.6293,1.1899,1.5611,4.6854,4.1656,5.801,6.3217-1.8572-4.8348-3.644-6.4712-5.4278-8.1828-1.7858-1.7106-8.0353-5.3536-10.043-6.7682z"/><g id="g4232" transform="matrix(0.61508339,0,0,0.61508339,35.014888,38.948626)"><path id="path239-6" opacity="0.5" d="m112.97,19.529c-34.925,0-63.344,28.419-63.344,63.344,0,15.88,9.8979,32.488,12.938,37.219-0.0811-0.10845,4.5,7.125,4.5,7.125,7.9749,12.488,15.477,24.297,17.25,38.719,0.37641,3.0824,2.9995,5.4062,6.0938,5.4062h46.063c3.0806,0,5.7155-2.3063,6.0938-5.375,1.9194-15.544,9.7631-28.158,18.062-41.469l2.8125-4.5312c2.9721-4.6081,12.875-21.199,12.875-37.094,0.00091-34.926-28.419-63.344-63.344-63.344zm-24.09,157.5c-1.7417,0-3.1563,1.4264-3.1563,3.1562,0,1.7444,1.4145,3.1562,3.1563,3.1562h48.156c1.7581,0,3.1875-1.4118,3.1875-3.1562-0.00091-1.7299-1.4303-3.1562-3.1875-3.1562h-48.156zm0,11.375c-1.7417,0-3.1563,1.3981-3.1563,3.1562,0,1.728,1.4145,3.1562,3.1563,3.1562h48.156c1.7581,0,3.1875-1.4282,3.1875-3.1562-0.00091-1.7581-1.4303-3.1562-3.1875-3.1562h-48.156zm0,11.375c-1.7417,0-3.1563,1.4109-3.1563,3.1562,0,1.7426,1.4145,3.1562,3.1563,3.1562h9.3438c0.0684,3.2301,2.6938,5.8125,5.9375,5.8125h17.625c3.2437,0,5.8525-2.5824,5.9062-5.8125h9.3438c1.7581,0,3.1875-1.4136,3.1875-3.1562-0.00091-1.7463-1.4303-3.1562-3.1875-3.1562h-48.156z" filter="url(#filter4228)" stroke-miterlimit="4" stroke-width="0" fill="#000"/><path id="path239-7" d="M130.7,172.65h-48.174c-1.7417,0-3.148,1.4063-3.148,3.1362,0,1.7444,1.4063,3.1763,3.148,3.1763h48.172c1.7581,0,3.1626-1.4318,3.1626-3.1763-0.00091-1.7299-1.4054-3.1362-3.1626-3.1362z" stroke="#333" stroke-width="0.91141808" fill="url(#linearGradient3037)"/><path id="path241-9" d="M130.7,184.02h-48.174c-1.7417,0-3.148,1.4045-3.148,3.1626,0,1.728,1.4063,3.1471,3.148,3.1471h48.172c1.7581,0,3.1626-1.4191,3.1626-3.1471-0.00091-1.7581-1.4054-3.1626-3.1626-3.1626z" stroke="#333" stroke-width="0.91141808" fill="url(#linearGradient3039)"/><path id="path243-3" d="M130.7,195.38h-48.174c-1.7417,0-3.148,1.4182-3.148,3.1635,0,1.7426,1.4063,3.148,3.148,3.148h9.353c0.06836,3.2301,2.6777,5.8267,5.9215,5.8267h17.625c3.2437,0,5.865-2.5966,5.9188-5.8267h9.3539c1.7581,0,3.1626-1.4054,3.1626-3.148-0.00091-1.7463-1.4054-3.1635-3.1626-3.1635z" stroke="#333" stroke-width="0.91141808" fill="url(#linearGradient3041)"/><path id="path250" d="m106.61,15.149c-34.925,0-63.334,28.423-63.334,63.347,0,15.88,9.9089,32.466,12.949,37.196-0.08112-0.10845,4.486,7.1364,4.486,7.1364,7.9749,12.488,15.489,24.3,17.261,38.722,0.37642,3.0824,2.9858,5.3938,6.0801,5.3938h46.076c3.0806,0,5.7036-2.3114,6.0819-5.3801,1.9194-15.544,9.7586-28.14,18.058-41.45l2.8108-4.5297c2.9721-4.6081,12.879-21.191,12.879-37.087,0.00091-34.926-28.423-63.348-63.347-63.348z" stroke="#dddd1d" stroke-width="1.82283616" fill="url(#radialGradient3043)"/><path id="path4011" d="m123.97,74.304c0,14.255-13.569,25.811-30.308,25.811s-30.308-11.556-30.308-25.811,13.569-25.811,30.308-25.811,30.308,11.556,30.308,25.811z" fill-rule="evenodd" transform="translate(-11.043929,-20.726786)" stroke-miterlimit="4" stroke-width="0" fill="url(#radialGradient3045)"/><path id="path4054" opacity="0.57758622" d="m116.7,164.72c0.52131-0.7051,1.0815-2.6191,1.574-5.3772,1.9317-10.82,5.9586-19.779,17.051-37.934,7.2926-11.936,8.6959-14.529,11.274-20.834,3.3555-8.2043,4.9021-15.368,4.902-22.705-0.00033-19.659-9.7035-38.659-26.006-50.924-5.343-4.0197-10.488-6.7377-17.403-9.1935-4.0381-1.4342-3.9572-1.4964,1.7598-1.3546,23.946,0.59418,46.425,16.773,55.37,39.852,3.8025,9.8108,5.0812,22.471,3.1469,31.155-2.3913,10.736-5.3931,17.342-14.941,32.883-3.2539,5.2965-7.0528,11.704-8.4419,14.238-4.2685,7.7877-7.6417,16.918-8.7424,23.663-0.66712,4.0881-1.0809,5.1222-2.574,6.4331l-1.3585,1.1928h-8.2106-8.2106l0.8094-1.0948z" fill-rule="evenodd" transform="translate(-0.485,0)" filter="url(#filter4080)" stroke-miterlimit="4" stroke-width="0" fill="url(#linearGradient3047)"/></g><path id="path281-8" fill="#e5c5a8" d="m-95.572,164.06c3.14,2.854,7.707,5.996,10.506,7.137-3.425-2.111-7.479-4.682-10.506-7.137z"/></svg>