<?xml version="1.0" encoding="UTF-8" standalone="no"?>
<!-- Created with Inkscape (http://www.inkscape.org/) -->

<svg
   xmlns:dc="http://purl.org/dc/elements/1.1/"
   xmlns:cc="http://creativecommons.org/ns#"
   xmlns:rdf="http://www.w3.org/1999/02/22-rdf-syntax-ns#"
   xmlns:svg="http://www.w3.org/2000/svg"
   xmlns="http://www.w3.org/2000/svg"
   xmlns:xlink="http://www.w3.org/1999/xlink"
   version="1.1"
   width="219"
   height="219"
   viewBox="-0.326 -0.144 219 219"
   id="svg2"
   xml:space="preserve"><metadata
     id="metadata4"><rdf:RDF><cc:Work
         rdf:about=""><dc:format>image/svg+xml</dc:format><dc:type
           rdf:resource="http://purl.org/dc/dcmitype/StillImage" /><dc:title></dc:title></cc:Work></rdf:RDF></metadata><defs
     id="defs6"><filter
       color-interpolation-filters="sRGB"
       id="filter4094"><feGaussianBlur
         stdDeviation="1.8291839"
         id="feGaussianBlur9" /></filter><linearGradient
       x1="154"
       y1="206"
       x2="69.5"
       y2="47.700001"
       id="linearGradient3609"
       gradientUnits="userSpaceOnUse"
       gradientTransform="translate(1.9256759,-4.1679814)"><stop
         id="stop12"
         style="stop-color:#9fd4f4;stop-opacity:1"
         offset="0" /><stop
         id="stop14"
         style="stop-color:#cccccc;stop-opacity:1"
         offset="1" /></linearGradient><linearGradient
       x1="165"
       y1="76"
       x2="169"
       y2="82.5"
       id="linearGradient3886"
       xlink:href="#linearGradient4915"
       gradientUnits="userSpaceOnUse" /><linearGradient
       x1="149"
       y1="83.800003"
       x2="157"
       y2="91.800003"
       id="linearGradient3884"
       xlink:href="#linearGradient4915"
       gradientUnits="userSpaceOnUse" /><linearGradient
       x1="124"
       y1="97.699997"
       x2="131"
       y2="105"
       id="linearGradient3882"
       xlink:href="#linearGradient4915"
       gradientUnits="userSpaceOnUse" /><linearGradient
       x1="134"
       y1="121"
       x2="144"
       y2="130"
       id="linearGradient3880"
       xlink:href="#linearGradient4915"
       gradientUnits="userSpaceOnUse" /><radialGradient
       cx="55.099998"
       cy="33.5"
       r="13.9"
       id="radialGradient3876"
       gradientUnits="userSpaceOnUse"
       gradientTransform="matrix(3.2444723,-4.5335202,2.282995,1.6339768,-102.36524,355.41996)"><stop
         id="stop21"
         style="stop-color:#000000;stop-opacity:0.46052632"
         offset="0" /><stop
         id="stop23"
         style="stop-color:#000000;stop-opacity:0"
         offset="1" /></radialGradient><linearGradient
       x1="119"
       y1="98.099998"
       x2="121"
       y2="101"
       id="linearGradient4905"
       xlink:href="#linearGradient4915"
       gradientUnits="userSpaceOnUse" /><linearGradient
       x1="37.200001"
       y1="38.099998"
       x2="5.6999998"
       y2="8.4200001"
       id="linearGradient3958"
       gradientUnits="userSpaceOnUse"
       gradientTransform="matrix(5.625317,0,0,5.5746277,-40.258002,-21.590418)"><stop
         id="stop27"
         style="stop-color:#000000;stop-opacity:1"
         offset="0" /><stop
         id="stop29"
         style="stop-color:#000000;stop-opacity:0"
         offset="1" /></linearGradient><linearGradient
       x1="21.799999"
       y1="12.9"
       x2="33.299999"
       y2="45.900002"
       id="linearGradient3956"
       xlink:href="#linearGradient3876-1"
       gradientUnits="userSpaceOnUse"
       gradientTransform="matrix(5.625317,0,0,5.5746277,-40.258002,-21.590418)" /><linearGradient
       x1="30.299999"
       y1="25.299999"
       x2="18.6"
       y2="8.6700001"
       id="linearGradient3953"
       gradientUnits="userSpaceOnUse"
       gradientTransform="matrix(5.3242503,0,0,5.2320179,-33.627218,-15.867512)"><stop
         id="stop33"
         style="stop-color:#f5e0a1;stop-opacity:1"
         offset="0" /><stop
         id="stop35"
         style="stop-color:#21150f;stop-opacity:1"
         offset="1" /></linearGradient><linearGradient
       x1="21.5"
       y1="17.5"
       x2="-28"
       y2="-21.5"
       id="linearGradient3951"
       xlink:href="#linearGradient3876-1"
       gradientUnits="userSpaceOnUse"
       gradientTransform="matrix(5.3242503,0,0,5.2320179,-33.627218,-15.867512)"
       spreadMethod="reflect" /><linearGradient
       x1="45.200001"
       y1="34.799999"
       x2="0.68900001"
       y2="-4.8200002"
       id="linearGradient3948"
       xlink:href="#linearGradient3876-1"
       gradientUnits="userSpaceOnUse"
       gradientTransform="matrix(3.9611516,0,0,3.8374948,3.7690635,16.91832)" /><linearGradient
       x1="26.700001"
       y1="20.700001"
       x2="35.900002"
       y2="29.200001"
       id="linearGradient3946"
       gradientUnits="userSpaceOnUse"
       gradientTransform="matrix(3.9611516,0,0,3.8374948,3.7690635,16.91832)"><stop
         id="stop40"
         style="stop-color:#f1f2f3;stop-opacity:1"
         offset="0" /><stop
         id="stop42"
         style="stop-color:#aab7d2;stop-opacity:1"
         offset="1" /></linearGradient><linearGradient
       id="linearGradient3876-1"><stop
         id="stop45"
         style="stop-color:#f5e0a1;stop-opacity:1"
         offset="0" /><stop
         id="stop47"
         style="stop-color:#21150f;stop-opacity:1"
         offset="1" /></linearGradient><linearGradient
       id="linearGradient4915"><stop
         id="stop50"
         style="stop-color:#ffffff;stop-opacity:1"
         offset="0" /><stop
         id="stop52"
         style="stop-color:#000000;stop-opacity:1"
         offset="1" /></linearGradient><linearGradient
       x1="153.98207"
       y1="205.80766"
       x2="69.547791"
       y2="47.674793"
       id="linearGradient3609-1"
       xlink:href="#linearGradient4028-8"
       gradientUnits="userSpaceOnUse"
       gradientTransform="translate(1.9256759,-4.1679814)" /><linearGradient
       id="linearGradient4028-8"><stop
         id="stop4030-4"
         style="stop-color:#9fd4f4;stop-opacity:1"
         offset="0" /><stop
         id="stop4032-7"
         style="stop-color:#cccccc;stop-opacity:1"
         offset="1" /></linearGradient><linearGradient
       x1="153.98207"
       y1="205.80766"
       x2="69.547791"
       y2="47.674793"
       id="linearGradient3336"
       xlink:href="#linearGradient4028-8"
       gradientUnits="userSpaceOnUse"
       gradientTransform="translate(3.4259452,-3.1728467)" /></defs><path
     d="m 167,4.4 c -2.72,-0.0289 -6.01,0.552 -9.88,1.75 -2.84,0.88 -19.8,9.14 -33,16 -2.98,-3.49 -5.29,-6.16 -5.72,-6.44 -4.25,-2.81 -8.67,-2.87 -12.5,-0.125 -1.92,1.36 -50.1,59.9 -51.5,62.5 -0.804,1.55 -0.895,9.2 -0.875,65.7 0.0159,45.6 0.186,64.5 0.656,65.8 0.363,1.04 1.49,2.41 2.5,3.03 1.78,1.09 3.56,1.12 55.6,0.969 52.2,-0.148 53.7,-0.161 55.4,-1.28 3.31,-2.24 3.33,-2.37 3.25,-34.4 -0.0399,-16.2 -0.234,-44.9 -0.438,-63.9 -0.364,-33.9 -0.408,-34.5 -1.66,-36.7 -1.81,-3.06 -22.9,-29.1 -37.2,-46.4 0.0568,-0.0463 0.13,-0.0698 0.188,-0.125 0.949,-0.919 7.29,-1.8 12.9,-1.81 7.25,-0.0158 13,-0.935 16.7,-2.66 3.13,-1.43 12.9,-9.22 14.6,-11.7 2.3,-3.29 0.105,-7.78 -4.72,-9.63 -1.2,-0.46 -2.62,-0.701 -4.25,-0.719 z m -0.969,3.78 c 3.95,-0.0464 5.04,0.139 6.06,1.06 2.29,2.07 1.63,3.52 -3.62,8.03 -7.92,6.81 -11.9,8.24 -22.8,8.25 -6.58,0.004 -11.9,0.76 -14.9,2.12 -0.649,0.29 -1.08,0.482 -1.38,0.688 -1.01,-1.21 -2.06,-2.48 -2.97,-3.56 2.94,-1.53 6.65,-3.42 11.9,-6.13 17,-8.74 22,-10.4 28,-10.5 z m -53.6,15.8 c 1.96,-0.0507 3.89,0.436 5.59,1.41 -0.05,0.0268 -0.107,0.0671 -0.156,0.0938 -1.45,0.778 -2.62,1.32 -2.62,1.22 0,-0.106 -0.952,0.731 -2.12,1.84 -2.8,2.66 -3.18,3.8 -1.56,4.94 1.33,0.935 2.85,1.06 4.88,0.406 0.877,-0.285 1.19,-0.9 1.19,-2.41 0,-1.32 -0.434,-1.63 3.25,-3.72 0.8,0.924 1.51,1.98 2.03,3.22 2.54,6.09 -0.951,13.4 -7.22,15.2 -6.99,1.94 -13.6,-2.56 -14.2,-9.69 -0.347,-4.18 0.662,-6.9 3.44,-9.41 2.26,-2.04 4.9,-3.03 7.5,-3.09 z"
     id="path56"
     style="opacity:0.5;fill:#000000;fill-rule:evenodd;stroke-width:0;stroke-miterlimit:4;filter:url(#filter4094)" /><path
     d="M 160.34795,67.872281 115.21432,11.937017 c -9.097,-9.0960007 -17.293001,-0.805 -17.293001,-0.805 L 50.822945,68.486281 c -3.934,3.442 -3.934,8.113 -3.934,8.113 l 0.47137,125.869749 c 0.738,7.131 8.054004,6.279 8.054004,6.279 l 103.070001,-0.379 c 6.637,-0.736 6.717,-7.375 6.717,-7.375 L 164.65095,78.319281 c 0.082,-6.473 -4.303,-10.447 -4.303,-10.447 z M 106.36432,40.947017 c -6.11,0 -11.063001,-4.953 -11.063001,-11.063001 0,-6.11 4.953001,-11.063 11.063001,-11.063 6.108,0 11.063,4.953 11.063,11.063 0,6.110001 -4.955,11.063001 -11.063,11.063001 z"
     id="path239-1"
     style="fill:url(#linearGradient3336);fill-opacity:1;stroke:#686868;stroke-width:2" /><path
     d="m 127,27.6 c 5.84,-5.29 21.2,-1.26 31,-5.1 2.53,-0.998 4.81,-2.66 6.79,-4.53 3.29,-3.1 10.4,-6.89 8.17,-10.8 -5.13,-8.95 -22.3,-0.838 -30.7,3.6 -5.04,2.64 -25.5,13.2 -25.5,13.2 0,0 -14.1,7.79 -1.04,5.21"
     id="path62"
     style="fill:none;stroke:#808080;stroke-width:4" /><path
     d="M 149,69.3 125,43.2 C 104,55.3 84.5,43.9 84.5,43.9 L 60.1,69.8 c -3.21,2.81 -3.21,6.62 -3.21,6.62 l 0.385,115 c 0.602,5.82 6.57,5.12 6.57,5.12 l 84.1,-0.309 c 5.42,-0.601 5.48,-6.02 5.48,-6.02 v -112 c 0.0669,-5.28 -3.51,-8.53 -3.51,-8.53 z"
     id="path108"
     style="fill:none;stroke:#ffffff;stroke-width:1.63199997;stroke-miterlimit:4;stroke-dasharray:4.896, 1.632;stroke-dashoffset:0" /><g
     transform="matrix(0.5138499,0,0,0.5138499,49.435747,81.051847)"
     id="g64"><path
       d="M 213,109 C 213,167 167,214 110,214 53.1,214 7,167 7,109 7,51.1 53.1,4 110,4 167,4 213,50.9 213,109 z"
       id="path66"
       style="fill:url(#linearGradient3956);stroke:url(#linearGradient3958);stroke-width:2.5" /><path
       d="m 206,107 c 0,54.4 -43.6,98.4 -97.5,98.4 -53.3,0 -97,-44 -97,-98 C 11.5,53 55.1,9 108.5,9 c 54,0 98,44.1 98,98.4 z"
       id="path68"
       style="fill:url(#linearGradient3951);stroke:url(#linearGradient3953);stroke-width:2.4000001" /><path
       d="m 182,107 c 0,39.9 -32.5,72.2 -72.5,72.2 -40.6,0 -73,-32 -73,-72 0,-39.9 32.5,-72.2 73,-72.2 40,0 72,32.3 72,72.2 z"
       id="path70"
       style="fill:url(#linearGradient3946);stroke:url(#linearGradient3948);stroke-width:0.78724033;stroke-miterlimit:4;stroke-dasharray:none" /><path
       d="m 198,78.1 c 11.9,14.4 11.6,35.4 4.63,52 -11,24.8 -26.6,48.7 -49,64.6 -9.37,6.32 -20.3,11.7 -31.8,11.4 -9.78,-0.513 -19,-7.38 -21.2,-17.1 -4.59,-15.4 0.674,-31.5 6.98,-45.6 11.7,-24.7 29.3,-47.7 53.4,-61.3 11,-5.9 25.2,-9.85 37,-3.9 z"
       id="path72"
       style="fill:url(#radialGradient3876)" /><path
       d="m 22.3,10.2 -3.93,16.5 c -0.0455,0.917 -0.237,1.44 0.786,2.36"
       transform="matrix(5.0142682,0,0,5.0142682,-11.823711,-5.9031392)"
       id="path74"
       style="fill:none;stroke:#000000;stroke-width:0.30000007;stroke-linecap:round;stroke-linejoin:round;stroke-miterlimit:4;stroke-opacity:0.78823529;stroke-dasharray:none" /><path
       d="m 21.8,30.6 -11.1,0"
       transform="matrix(5.0142682,0,0,5.0142682,-11.823711,-5.9031392)"
       id="path76"
       style="fill:none;stroke:#000000;stroke-width:0.30000001" /><path
       d="m 17.8,13.5 -3.14,0"
       transform="matrix(5.0142682,0,0,5.0142682,-11.823711,-5.9031392)"
       id="path78"
       style="fill:none;stroke:#000000;stroke-width:0.30000001" /><path
       d="m 17.6,14.1 -2.7,13.5 c 0,0 -0.688,1.25 -1.97,1.8 -1.36,0.582 -1.57,0.393 -1.57,0.393"
       transform="matrix(5.0142682,0,0,5.0142682,-11.823711,-5.9031392)"
       id="path80"
       style="fill:none;stroke:#ffffff;stroke-width:0.5" /><path
       d="m 14.9,12.7 c 0,0 2.98,-0.59 4.72,-1.18 1.74,-0.59 2.24,-1.18 2.24,-1.18"
       transform="matrix(5.0142682,0,0,5.0142682,-11.823711,-5.9031392)"
       id="path82"
       style="fill:none;stroke:#ffffff;stroke-width:0.5" /><path
       d="m 146,38.3 0,147"
       id="path84"
       style="stroke:#555753;stroke-linecap:round" /><path
       d="m 153,41.9 0,140"
       id="path86"
       style="stroke:#555753;stroke-linecap:round" /><path
       d="m 166,50.8 0,121"
       id="path88"
       style="stroke:#555753;stroke-linecap:round" /><path
       d="m 172,56.8 0,108"
       id="path90"
       style="stroke:#555753;stroke-linecap:round" /><path
       d="m 159,45.3 0,134"
       id="path92"
       style="stroke:#555753;stroke-linecap:round" /><path
       d="m 178,64.2 0,91.6"
       id="path94"
       style="stroke:#555753;stroke-linecap:round" /><path
       d="m 109,145 h 11.2 c 1.24,-1.71 2.49,-3.41 3.73,-5.12 -0.5,-4.87 6.54,-2.87 7.75,-6.49 1.76,-4.06 5.99,0.115 9.2,-2.14 3.35,0.284 3.18,5.58 6.81,6.55 2.12,1.44 4.06,3.11 6.11,4.64 -0.252,1.25 0.525,3.24 -0.429,3.99 -1.1,0.01 -3.12,1.87 -3.51,0.486 -0.518,-0.748 -0.682,-4.18 -1.53,-2.43 -0.326,1.04 -2.35,2.53 -1.59,3.29 2.35,1.21 4.71,2.42 7.06,3.63 -1.42,-3.87 3.32,-5.99 3.98,-9.3 -1.54,-3.08 -4.9,-4.91 -5.97,-8.31 -4.55,-0.968 -4.42,-8.63 0.114,-8.59 2.96,1 3.21,-7.73 -0.617,-5.78 -2.18,0.301 -0.905,-2.53 -1.24,-3.86 1.11,-0.283 3.37,0.58 3.73,-0.453 -0.111,-2.01 0.219,-4.2 -0.158,-6.11 -1.14,-1.32 -2.7,-2.47 -3.58,-3.9 v -4.89 c -1.31,0.198 -1.74,4.26 -2.92,1.92 -1.04,2.08 -1.49,5.19 -4.51,4.14 -5.42,1.57 -9.61,5.66 -14.4,8.4 -1.9,0.679 -7.36,-0.392 -4.23,3 2.82,1.61 4.09,7.01 0.869,8.79 -3.62,1.7 -7,-1.37 -10.6,-1.39 -5.18,0.23 -5.49,6.38 -7.55,9.9 -0.486,2.33 -4.93,7.23 -0.253,6.2 2.19,-0.616 1.61,2.58 2.49,3.84 z"
       id="path96"
       style="fill:#a8a8a8;stroke:url(#linearGradient3880)" /><path
       d="m 126,95.5 c 1.35,0.321 3.05,1.1 2.41,2.83 -0.213,1.94 -1.96,2.97 -3.16,4.26 -1.26,1.07 -0.387,3.02 -1.74,4 -1.01,0.443 -2.74,2.1 -0.828,2.58 2.91,0.0824 5.74,-0.726 8.6,-1.13 1.11,-0.997 1.37,-2.57 2.12,-3.81 -0.424,-1.27 -1.06,-2.6 -1.18,-4.01 -0.349,-1.4 -0.0142,-3.04 -0.556,-4.32 -1.13,-1.24 -2.06,-3.16 -1.18,-4.77 0.54,-1.34 -0.585,-2.58 -1.68,-3.13 -1.79,-0.526 -1.85,1.76 -2.55,2.8 -0.875,1.18 -0.969,2.46 -0.462,3.8 0.0648,0.3 0.13,0.6 0.194,0.9 z"
       id="path98"
       style="fill:#a8a8a8;stroke:url(#linearGradient3882)" /><path
       d="m 122,94.2 c 0.83,1.28 1.66,2.56 2.49,3.84 -1.75,2.08 -2.92,5.82 -6.16,5.71 -2.1,0.514 -4.87,0.0415 -3.06,-2.59 2.35,-1.29 1.87,-4.85 4.46,-5.8 0.765,-0.369 1.51,-0.774 2.27,-1.16 z"
       id="path100"
       style="fill:#a8a8a8;stroke:url(#linearGradient4905)" /><path
       d="m 152,99.9 c 2.64,2.98 5.59,-1.53 5.29,-4.35 -0.0944,-2.28 1,-3.88 1.8,-5.74 -2.1,-3.55 -1.76,-7.54 0.513,-11.1 3.08,-3.36 3.91,-8.67 1.25,-12.5 -3.21,-1.34 -6.12,4.39 -6.26,7.51 -1.39,2.95 -2.28,6.37 -3.59,9.05 1.1,4.19 -2.83,8.54 -0.621,12.2 1.71,1.38 1.5,3.21 1.62,4.94 z"
       id="path102"
       style="fill:#a8a8a8;stroke:url(#linearGradient3884)" /><path
       d="m 161,66.6 c 0.987,2.14 2.37,4.57 1.16,6.92 -0.464,1.96 1.2,4.05 -0.541,5.68 -1.55,1.97 -0.869,4.59 -0.487,6.83 0.404,2.64 3.57,3.55 5.6,2.07 2.59,-1.48 4.4,-4.08 5.42,-6.84 -0.0721,-2.03 -2.12,-3.29 -2.36,-5.31 -1.17,-1.9 -1.4,-4.05 -1.44,-6.22 -0.524,-1.93 -1.6,-3.61 -2.14,-5.53 -1.38,-1.97 -3.38,0.455 -4.33,1.64 -0.267,0.28 -0.553,0.545 -0.874,0.761 z"
       id="path104"
       style="fill:#a8a8a8;stroke:url(#linearGradient3886)" /></g></svg>