<?xml version="1.0"?>
<?metis version="3.1"?>
<?metisxml version="1.0"?>
<!DOCTYPE svg  PUBLIC "-//W3C//DTD SVG August 1999//EN"
 "http://www.w3.org/Graphics/SVG/svg-19990812.dtd">

<svg width="200" height="200">
 <title>Symbol library: storage.svg</title>
 <defs>
  <symbol id="oid0" xml:space="preserve" class="METIS_SYMBOL">
   <title>Storage</title>
    <g>
      <polygon points="0 0 0 304 16.2963 320 
       880 320 880 16 863.704 0 0 0 
       0 0 0 0 0 0 0 0 
       0 0 0 0 0 0 "
       style=" stroke:#000000; stroke-width:1; fill:#9b9b9b; fill-opacity:100%"       class="TAG:shadow"></polygon>
      <rect x="0" y="0" width="240" height="304"
       style=" stroke:#000000; stroke-width:1; fill:#ffffff; fill-opacity:100%"       class="TAG:PictureBackground"></rect>
      <rect x="240" y="0" width="624" height="304"
       style=" stroke:#000000; stroke-width:1; fill:#96a5ff; fill-opacity:100%"       class="TAG:canvas"></rect>
      <g>
	<desc>METIS_TEXT_GROUP</desc>
	<text  x="256" y="15.8"
	 style=" stroke:#000000; stroke-width:1; font-family:sans-serif; font-size:16;"
	 class="TAG:text">text</text>
	<rect x="256" y="0" width="608" height="304"
	 style=" stroke:#000000; stroke-width:1; fill:#ffffff; fill-opacity:0%"></rect>
      </g>
      <polyline points="864 304 880 320"
       style=" stroke:#000000; stroke-width:1;"></polyline>
      <g>
	<polygon points="96 64 96 64 96 272 
	 224 272 224 64 224 64 96 64 
	 96 64 96 64 "
	 style=" stroke:#000000; stroke-width:1; fill:#dcdcdc; fill-opacity:100%"></polygon>
	<polygon points="96 272 16 216.615 16 32 
	 96 64 96 272 96 272 96 272 "
	 style=" stroke:#000000; stroke-width:1; fill:#9b9b9b; fill-opacity:100%"></polygon>
	<polygon points="16 32 144 32 224 64 
	 96 64 16 32 16 32 16 32 "
	 style=" stroke:#000000; stroke-width:1; fill:#878787; fill-opacity:100%"></polygon>
	<polygon points="112 80 208 80 208 128 
	 112 128 112 80 112 80 112 80 112 80 "
	 style=" stroke:#000000; stroke-width:1; fill:#b9b9b9; fill-opacity:100%"></polygon>
	<polygon points="112 144 208 144 208 192 
	 112 192 112 144 112 144 112 144 112 144 "
	 style=" stroke:#000000; stroke-width:1; fill:#b9b9b9; fill-opacity:100%"></polygon>
	<polygon points="112 208 208 208 208 256 
	 112 256 112 208 112 208 112 208 112 208 "
	 style=" stroke:#000000; stroke-width:1; fill:#b9b9b9; fill-opacity:100%"></polygon>
	<rect x="144" y="100" width="32" height="8"
	 style=" stroke:#000000; stroke-width:1; fill:#878787; fill-opacity:100%"></rect>
	<rect x="144" y="164" width="32" height="8"
	 style=" stroke:#000000; stroke-width:1; fill:#878787; fill-opacity:100%"></rect>
	<rect x="144" y="228" width="32" height="8"
	 style=" stroke:#000000; stroke-width:1; fill:#878787; fill-opacity:100%"></rect>
      </g>
    </g>
  </symbol>
 </defs>
</svg>
