<?xml version="1.0" encoding="UTF-8" standalone="no"?>
<svg id="svg2" xmlns:rdf="http://www.w3.org/1999/02/22-rdf-syntax-ns#" xmlns="http://www.w3.org/2000/svg" enable-background="new -0.557 -0.495 201 179" xml:space="preserve" height="219" width="219" version="1.1" y="0px" x="0px" xmlns:cc="http://creativecommons.org/ns#" xmlns:xlink="http://www.w3.org/1999/xlink" viewBox="-0.557 -0.495 219 219" xmlns:dc="http://purl.org/dc/elements/1.1/"><metadata id="metadata282"><rdf:RDF><cc:Work rdf:about=""><dc:format>image/svg+xml</dc:format><dc:type rdf:resource="http://purl.org/dc/dcmitype/StillImage"/><dc:title/></cc:Work></rdf:RDF></metadata><defs id="defs4"><filter id="filter4125"><feGaussianBlur id="feGaussianBlur4127" stdDeviation="2.0412544"/></filter><linearGradient id="linearGradient4137" y2="42.199" gradientUnits="userSpaceOnUse" x2="34.767" gradientTransform="translate(-1.4337948,0.71689738)" y1="188.98" x1="136.52"><stop id="stop4133" stop-color="#000" offset="0"/><stop id="stop4135" stop-color="#6a6a6a" offset="1"/></linearGradient></defs><g id="g4158"><path id="path4123" opacity="0.5" d="m29.87,175.54c0-18.833,0.28984-55.941,0.6441-82.464l0.6441-48.223,23.082-15.408,23.082-15.408h63.971,63.971l-0.0433,82.125-0.0433,82.125-22.795,15.747-22.795,15.747h-64.859-64.859v-34.241z" fill-rule="evenodd" filter="url(#filter4125)" stroke-miterlimit="4" stroke-width="0" fill="#0b0202"/><polygon id="polygon243_1_" points="198.15,0.98,54.076,0.98,1.31,28.706,146.87,29.291" fill="#b6b8ba" transform="matrix(0.88821539,0,0,1.1090795,20.348406,5.6522902)"/><polygon id="polygon245_1_" points="198.91,0.95,146.87,28.41,147.67,176.74,197.87,148.48" fill="#999" transform="matrix(0.88821539,0,0,1.1090795,20.348406,5.6522902)"/><polygon id="polygon247_1_" points="147.67,177.62,146.87,29.291,1.31,28.706,0.5,177.04" fill="#c9c9c9" transform="matrix(0.88821539,0,0,1.1090795,20.348406,5.6522902)"/><polygon id="polygon255_1_" transform="matrix(0.88821539,0,0,1.1090795,20.348406,5.6522902)" stroke="#000" points="199.05,148.76,198.98,0.5,53.522,0.661,1.313,28.351,0.503,177.32,147.68,177.27" fill="none"/><polyline id="polyline257_1_" transform="matrix(0.88821539,0,0,1.1090795,20.348406,5.6522902)" stroke="#000" points="147.68,177.27,146.91,28.569,198.71,0.661" fill="none"/><line id="line259_1_" stroke-width="0.99252" x1="22.153" y1="37.485" stroke="#000" x2="150.83" y2="37.485" fill="none"/><path id="path261_1_" fill="#605f5f" d="m156.58,198.33,40.437-27.838-0.12968-115.88s-1.8138,99.247-40.307,143.72z"/><path id="path263_1_" fill="#7c7c7c" d="m194.71,8.4904-43.566,29.452,0.37127,83.835s-5.7281-77.49,43.195-113.29z"/><path id="path265_1_" fill="#e2e2e2" d="M143.89,6.829,68.443,6.9621,36.08,28.253s51.286-22.395,107.81-21.424z"/><polyline id="polyline267_1_" transform="matrix(0.88821539,0,0,1.1090795,20.348406,5.6522902)" stroke="#000" points="11.051,23.377,156.51,23.377,158.02,171.84" fill="none"/><rect id="rect4129" style="stroke-dasharray:none;" fill-rule="evenodd" ry="16.252" height="148.26" width="104.65" stroke="#f1f1f1" stroke-miterlimit="4" y="44.797" x="34.832" stroke-width="2" fill="url(#linearGradient4137)"/><line id="line250" stroke-width="1.985" x1="53.774" y1="60.127" stroke="#FFF" x2="54.033" y2="182.72" fill="#FFF"/><line id="line252" stroke-width="1.985" x1="84.878" y1="60.102" stroke="#FFF" x2="84.942" y2="182.7" fill="#FFF"/><line id="line254" stroke-width="1.985" x1="115.79" y1="60.318" stroke="#FFF" x2="115.85" y2="182.67" fill="#FFF"/><line id="line256" stroke-width="1.985" x1="42.891" y1="76.893" stroke="#FFF" x2="126.97" y2="76.894" fill="#FFF"/><line id="line258" stroke-width="1.985" x1="42.721" y1="121.31" stroke="#FFF" x2="126.8" y2="121.31" fill="#FFF"/><line id="line260" stroke-width="1.985" x1="42.938" y1="165.97" stroke="#FFF" x2="127.02" y2="165.97" fill="#FFF"/><circle id="circle262" stroke-width="2" cx="38.995" cy="63.414" transform="matrix(0.88821539,0,0,1.1090795,18.914611,6.3691876)" stroke="#FFF" r="7.188" fill="#FFF"/><circle id="circle264" stroke-width="2" cx="74.045" cy="63.319" transform="matrix(0.88821539,0,0,1.1090795,18.914611,6.3691876)" stroke="#FFF" r="7.188" fill="#FFF"/><circle id="circle266" stroke-width="2" cx="109.06" cy="63.62" transform="matrix(0.88821539,0,0,1.1090795,18.914611,6.3691876)" stroke="#FFF" r="7.188" fill="#FFF"/><circle id="circle268" stroke-width="2" cx="39.318" cy="103.6" transform="matrix(0.88821539,0,0,1.1090795,18.914611,6.3691876)" stroke="#FFF" r="7.188" fill="#FFF"/><path id="path270" d="m91.092,121.28c0.0027,4.3997-2.8556,7.9732-6.3809,7.9754-3.5236,0.002-6.3854-3.5635-6.3872-7.9654-0.0035-4.4064,2.8547-7.9754,6.3801-7.9776,3.5262-0.001,6.3845,3.5668,6.388,7.9676z" stroke="#FFF" stroke-width="1.98504567" fill="#FFF"/><circle id="circle272" stroke-width="2" cx="109.09" cy="103.59" transform="matrix(0.88821539,0,0,1.1090795,18.914611,6.3691876)" stroke="#FFF" r="7.188" fill="#FFF"/><circle id="circle274" stroke-width="2" cx="39.639" cy="143.83" transform="matrix(0.88821539,0,0,1.1090795,18.914611,6.3691876)" stroke="#FFF" r="7.188" fill="#FFF"/><circle id="circle276" stroke-width="2" cx="74.104" cy="143.84" transform="matrix(0.88821539,0,0,1.1090795,18.914611,6.3691876)" stroke="#FFF" r="7.188" fill="#FFF"/><circle id="circle278" stroke-width="2" cx="109.12" cy="143.81" transform="matrix(0.88821539,0,0,1.1090795,18.914611,6.3691876)" stroke="#FFF" r="7.187" fill="#FFF"/></g></svg>