<?xml version="1.0"?>
<?metis version="3.1"?>
<?metisxml version="1.0"?>
<!DOCTYPE svg  PUBLIC "-//W3C//DTD SVG August 1999//EN"
 "http://www.w3.org/Graphics/SVG/svg-19990812.dtd">

<svg width="200" height="200">
 <title>Symbol library: strategic_req.svg</title>
 <defs>
  <symbol id="oid1" xml:space="preserve" class="METIS_SYMBOL">
   <title>Strategic Requirement</title>
    <g>
      <polygon points="0 0 0 304 16 320 
       880 320 880 16 864 0 0 0 
       0 0 0 0 0 0 0 0 0 0 "
       style=" stroke:#000000; stroke-width:1; fill:#9b9b9b; fill-opacity:100%"       class="TAG:shadow"></polygon>
      <rect x="0" y="0" width="255.652" height="304"
       style=" stroke:#000000; stroke-width:1; fill:#ffff6e; fill-opacity:100%"       class="TAG:PictureBackground"></rect>
      <rect x="255.652" y="0" width="608.348" height="304"
       style=" stroke:#000000; stroke-width:1; fill:#ff8c8c; fill-opacity:100%"       class="TAG:canvas"></rect>
      <g>
	<desc>METIS_TEXT_GROUP</desc>
	<text  x="266.264" y="15.8"
	 style=" stroke:#000000; stroke-width:1; font-family:sans-serif; font-size:16;"
	 class="TAG:text">text</text>
	<rect x="266.264" y="0" width="597.736" height="304"
	 style=" stroke:#000000; stroke-width:1; fill:#ffffff; fill-opacity:0%"></rect>
      </g>
      <g>
	<g>
	  <polygon points="32 79.3627 32 32.9179 46.4541 32.9179 
	   60.5171 32.9179 65.5975 32.9179 69.8933 33.2859 73.4113 33.4706 
	   75.7535 34.023 78.0982 34.761 80.0516 35.8663 82.0051 36.9722 
	   83.5673 38.4463 85.9113 41.7644 86.3029 43.7911 86.6914 45.8188 
	   86.3029 48.399 85.5214 50.7958 83.9584 52.8225 82.0051 54.6656 
	   79.2694 56.1396 76.5358 57.2458 73.02 58.1674 69.1132 58.7207 
	   73.02 60.7474 76.1447 62.5906 77.7071 63.8813 79.6604 65.5399 
	   81.6139 67.751 83.9584 70.1476 87.8659 74.7544 91.7719 79.3627 
	   83.9584 79.3627 75.7535 79.3627 71.0668 74.2018 65.9887 69.2262 
	   63.6442 66.646 61.6906 64.6183 60.1283 63.1442 58.9549 62.2226 
	   57.0014 61.1164 55.0481 60.3794 52.3145 60.0104 50.7523 59.8259 
	   48.4078 59.8259 46.8452 59.8259 45.6719 59.8259 45.6719 69.5941 
	   45.6719 79.3627 39.0314 79.3627 32 79.3627 32 79.3627 
	   32 79.3627 32 79.3627 32 79.3627 32 79.3627 
	   32 79.3627 32 79.3627 32 79.3627 "
	   style=" stroke:#000000; stroke-width:1; fill:#008d9c; fill-opacity:100%"></polygon>
	  <polygon points="45.583 52.5601 50.7032 52.5601 55.4271 52.5601 
	   59.759 52.5601 63.3023 52.3737 65.6654 52.3737 67.24 52.1869 
	   69.6029 51.4413 71.1778 50.3223 72.3581 48.6446 72.7523 46.5935 
	   72.7523 45.4755 72.3581 44.5434 71.1778 42.8644 69.6029 41.7467 
	   66.8458 41.0011 65.6654 40.8146 63.3023 40.8146 60.1532 40.6278 
	   56.2156 40.6278 45.583 40.6278 45.583 46.5935 45.583 52.5601 
	   45.583 52.5601 45.583 52.5601 45.583 52.5601 45.583 52.5601 
	   45.583 52.5601 45.583 52.5601 45.583 52.5601 45.583 52.5601 "
	   style=" stroke:#000000; stroke-width:1; fill:#ffff6e; fill-opacity:100%"></polygon>
	  <polygon points="98.7574 79.3627 98.7574 32.9179 123.399 32.9179 
	   148.427 32.9179 148.427 40.6585 112.056 40.6585 112.056 45.8188 
	   112.056 50.9793 128.874 50.9793 145.691 50.9793 145.691 54.8499 
	   145.691 58.9043 128.874 58.9043 112.056 58.9043 112.056 65.1708 
	   112.056 71.4373 149.603 71.4373 149.603 75.3085 149.603 79.3627 
	   124.179 79.3627 98.7574 79.3627 98.7574 79.3627 98.7574 79.3627 
	   98.7574 79.3627 98.7574 79.3627 98.7574 79.3627 98.7574 79.3627 98.7574 79.3627 "
	   style=" stroke:#000000; stroke-width:1; fill:#008d9c; fill-opacity:100%"></polygon>
	  <polygon points="213.969 73.4508 219.045 75.4772 224.9 77.3194 
	   222.168 80.6353 219.825 83.9513 217.092 83.2144 213.969 82.2933 
	   213.189 81.9249 211.238 81.0038 208.503 79.7142 204.99 78.0563 
	   201.479 78.9774 197.964 79.53 194.06 79.8999 189.765 80.0827 
	   186.251 80.0827 183.129 79.7142 180.005 79.1616 176.883 78.6089 
	   174.15 77.6878 171.417 76.5825 169.076 75.293 166.731 73.8192 
	   162.828 70.5028 160.097 66.4503 158.535 61.6601 157.754 56.1329 
	   157.754 53.186 158.535 50.6069 158.925 48.0278 160.097 45.8167 
	   162.828 41.5797 166.731 38.2639 169.076 36.7893 171.417 35.5003 
	   174.15 34.3948 176.883 33.4735 180.005 32.9211 183.129 32.3679 
	   186.642 32.1833 190.157 32 193.668 32.1833 196.791 32.3679 
	   199.917 32.9211 203.039 33.4735 205.772 34.3948 208.503 35.5003 
	   210.846 36.7893 213.189 38.2639 217.092 41.5797 219.825 45.8167 
	   220.998 48.0278 221.777 50.6069 222.168 53.186 222.168 56.1329 
	   221.777 61.2922 220.998 63.6869 220.215 65.8971 219.045 67.924 
	   217.872 69.7662 213.969 73.4508 213.969 73.4508 213.969 73.4508 
	   213.969 73.4508 213.969 73.4508 213.969 73.4508 213.969 73.4508 
	   213.969 73.4508 213.969 73.4508 "
	   style=" stroke:#000000; stroke-width:1; fill:#008d9c; fill-opacity:100%"></polygon>
	  <polygon points="203.108 68.1405 205.463 65.7406 207.029 62.971 
	   208.206 59.8318 208.598 56.1391 208.206 52.2626 207.423 48.9396 
	   205.463 46.1699 203.499 43.954 200.754 42.2925 197.616 41.0006 
	   194.087 40.2612 190.164 40.0775 186.242 40.2612 182.712 41.0006 
	   179.577 42.2925 176.829 43.954 174.474 46.1699 172.905 48.9396 
	   171.731 52.2626 171.339 56.1391 171.731 60.0166 172.905 63.3397 
	   174.474 66.1092 176.829 68.3251 179.577 69.9868 182.321 71.2787 
	   185.85 72.2021 189.773 72.3863 192.518 72.2021 195.263 71.648 
	   190.95 69.9868 186.635 68.6938 188.595 66.1092 190.557 63.3397 
	   193.694 64.2627 196.832 65.3708 199.971 66.6637 203.108 68.1405 
	   203.108 68.1405 203.108 68.1405 203.108 68.1405 203.108 68.1405 
	   203.108 68.1405 203.108 68.1405 203.108 68.1405 203.108 68.1405 "
	   style=" stroke:#000000; stroke-width:1; fill:#ffff6e; fill-opacity:100%"></polygon>
	</g>
	<g>
	  <polygon points="78.3513 108.969 240 108.969 240 115.705 
	   78.3513 115.705 78.3513 115.705 78.3513 108.969 78.3513 108.969 
	   78.3513 108.969 78.3513 108.969 78.3513 108.969 78.3513 108.969 
	   78.3513 108.969 78.3513 108.969 78.3513 108.969 "
	   style=" stroke:#000000; stroke-width:1; fill:#000000; fill-opacity:100%"></polygon>
	  <polygon points="78.3513 243.66 240 243.66 240 250.396 
	   78.3513 250.396 78.3513 250.396 78.3513 243.66 78.3513 243.66 
	   78.3513 243.66 78.3513 243.66 78.3513 243.66 78.3513 243.66 
	   78.3513 243.66 78.3513 243.66 78.3513 243.66 "
	   style=" stroke:#000000; stroke-width:1; fill:#000000; fill-opacity:100%"></polygon>
	  <polygon points="78.3513 176.315 240 176.315 240 183.049 
	   78.3513 183.049 78.3513 183.049 78.3513 176.315 78.3513 176.315 
	   78.3513 176.315 78.3513 176.315 78.3513 176.315 78.3513 176.315 
	   78.3513 176.315 78.3513 176.315 78.3513 176.315 "
	   style=" stroke:#000000; stroke-width:1; fill:#000000; fill-opacity:100%"></polygon>
	  <g>
	    <polygon points="54.151 134.939 47.4846 134.939 40.8182 134.939 
	     40.8182 119.453 40.8182 103.967 37.3095 106.078 33.0993 107.663 
	     28.5382 109.07 23.977 110.302 23.977 106.608 23.977 102.736 
	     26.7839 102.031 29.5907 101.327 32.3975 100.095 35.2046 98.688 
	     38.0114 97.103 40.1167 95.5192 42.2217 93.7589 43.6252 92 
	     54.151 92 54.151 113.47 54.151 134.939 54.151 134.939 
	     54.151 134.939 54.151 134.939 54.151 134.939 54.151 134.939 
	     54.151 134.939 54.151 134.939 "
	     style=" stroke:#000000; stroke-width:1; fill:#008d9c; fill-opacity:100%"></polygon>
	    <polygon points="62.1283 195.552 62.1283 199.424 62.1283 203.12 
	     16 203.12 16.6989 201.008 17.3979 198.896 18.7954 196.785 
	     20.5428 194.848 22.9889 192.737 26.1343 190.273 30.3278 187.632 
	     35.22 184.643 39.0641 182.353 42.2092 180.418 44.6555 178.833 
	     46.0531 177.778 48.1499 175.316 48.4996 173.906 48.8489 172.675 
	     48.8489 171.267 48.1499 170.21 47.4509 169.154 46.4026 168.45 
	     45.0049 167.747 43.607 167.218 41.8597 167.043 40.1125 166.867 
	     38.0156 167.043 36.2684 167.218 34.5212 167.747 33.4728 168.627 
	     32.4242 169.506 31.3761 170.74 31.0266 171.972 30.6771 173.554 
	     24.0374 173.202 17.3979 172.85 18.4462 169.857 20.1934 167.218 
	     22.2903 164.93 24.7363 163.171 27.8814 161.763 31.7256 160.883 
	     35.919 160.356 40.4621 160.179 45.3542 160.356 49.8972 161.059 
	     53.3918 162.116 56.5369 163.7 58.9831 165.634 60.7303 167.571 
	     61.7788 169.683 62.1283 171.972 61.7788 174.612 60.7303 177.074 
	     58.9831 179.538 56.1874 182.002 54.7894 183.41 52.693 184.993 
	     49.8972 186.577 46.7521 188.337 43.9565 190.097 41.5103 191.33 
	     39.7631 192.561 38.7146 193.266 37.3166 194.32 35.919 195.552 
	     62.1283 195.552 62.1283 195.552 62.1283 195.552 62.1283 195.552 
	     62.1283 195.552 62.1283 195.552 62.1283 195.552 62.1283 195.552 "
	     style=" stroke:#000000; stroke-width:1; fill:#008d9c; fill-opacity:100%"></polygon>
	    <polygon points="16.3469 259.858 22.6378 259.507 28.9286 258.978 
	     29.9771 261.619 31.0257 262.675 32.074 263.554 33.4722 264.256 
	     35.2196 264.785 36.9671 264.961 38.7146 265.137 40.4622 264.961 
	     42.2096 264.785 43.957 264.081 45.7045 263.202 46.753 262.147 
	     47.8016 260.915 48.151 259.507 48.5005 257.923 48.151 256.516 
	     47.8016 255.283 46.753 254.051 45.7045 253.172 44.3065 252.29 
	     42.5589 251.763 40.8114 251.412 39.0641 251.235 36.2681 251.412 
	     33.1225 251.938 33.8217 248.597 34.5206 245.253 36.9671 245.253 
	     39.0641 244.901 40.8114 244.55 42.5589 243.845 43.957 243.14 
	     45.0055 242.086 45.3549 241.029 45.7045 239.797 45.7045 238.74 
	     45.0055 237.862 43.258 236.278 42.2096 235.751 40.8114 235.398 
	     38.0156 235.047 36.2681 235.047 34.8701 235.398 33.4722 235.751 
	     32.074 236.455 31.0257 237.158 30.3267 238.213 29.2782 240.677 
	     23.3367 240.15 17.0457 239.447 18.4438 236.806 19.8416 234.519 
	     21.9388 232.582 24.3851 230.999 27.5305 229.767 30.6761 228.886 
	     34.5206 228.359 38.365 228.183 42.9085 228.359 46.753 229.063 
	     50.2478 230.12 53.3936 231.703 55.8399 233.462 57.238 235.223 
	     58.2865 237.158 58.6359 239.27 57.9369 241.909 57.238 243.14 
	     56.1894 244.373 54.7913 245.428 53.0441 246.309 48.8501 248.244 
	     51.6459 248.772 54.0925 249.477 56.1894 250.531 58.2865 251.763 
	     60.0338 253.172 61.0825 254.756 61.4318 256.516 61.7815 258.45 
	     61.4318 261.268 60.0338 263.729 57.9369 266.018 55.1409 268.129 
	     51.6459 269.888 47.452 271.122 43.258 271.825 38.7146 272 
	     34.5206 271.825 30.3267 271.122 26.8317 270.066 23.6861 268.657 
	     20.8902 266.897 18.7931 264.961 17.0457 262.497 16.3469 259.858 
	     16.3469 259.858 16.3469 259.858 16.3469 259.858 16.3469 259.858 
	     16.3469 259.858 16.3469 259.858 16.3469 259.858 "
	     style=" stroke:#000000; stroke-width:1; fill:#008d9c; fill-opacity:100%"></polygon>
	  </g>
	</g>
      </g>
      <polyline points="864 304 880 320"
       style=" stroke:#000000; stroke-width:1;"></polyline>
    </g>
  </symbol>
 </defs>
</svg>
