<?xml version="1.0"?>
<?metis version="3.4"?>
<?metisxml version="1.1"?>
<!DOCTYPE svg  PUBLIC "-//W3C//DTD SVG August 1999//EN"
 "http://www.w3.org/Graphics/SVG/svg-19990812.dtd">

<svg width="200" height="200">
 <title>Symbol library: strategy1.svg</title>
 <defs>
  <symbol id="oid2" xml:space="preserve" class="METIS_SYMBOL">
   <title>Strategy basic</title>
    <g>
      <polygon points="0 0 0 304 16 320 
       880 320 880 16 864 0 0 0 
       0 0 0 0 0 0 0 0 
       0 0 0 0 0 0 "
       style=" stroke:#000000; stroke-width:1; fill:#9b9b9b; fill-opacity:100%"       class="TAG:shadow"></polygon>
      <rect x="0" y="0" width="240" height="304"
       style=" stroke:#000000; stroke-width:1; fill:#ffff6e; fill-opacity:100%"       class="TAG:canvas"></rect>
      <rect x="240" y="0" width="624" height="304"
       style=" stroke:#000000; stroke-width:1; fill:#ff8c8c; fill-opacity:100%"       class="TAG:canvas"></rect>
      <g>
	<desc>METIS_TEXT_GROUP</desc>
	<text  x="256" y="15"
	 style=" stroke:#000000; stroke-width:1; font-family:sans-serif; font-size:16;"
	 class="TAG:text">text</text>
	<rect x="256" y="0" width="608" height="304"
	 style=" stroke:#000000; stroke-width:1; fill:#ffffff; fill-opacity:0%"></rect>
      </g>
      <polyline points="864 304 880 320"
       style=" stroke:#000000; stroke-width:1;"></polyline>
      <g>
	<polygon points="82.2739 120.889 108.783 165.334 122.039 138.666 
	 148.55 156.445 161.805 129.777 224 272 16 272 
	 82.2739 120.889 82.2739 120.889 82.2739 120.889 82.2739 120.889 
	 82.2739 120.889 82.2739 120.889 82.2739 120.889 82.2739 120.889 82.2739 120.889 "
	 style=" stroke:#000000; stroke-width:1; fill:#ff8c8c; fill-opacity:100%"	 class="TAG:polygon"></polygon>
	<polyline points="82.2739 120.889 122.039 32 161.805 129.777"
	 style=" stroke:#000000; stroke-width:1;"	 class="TAG:polyline"></polyline>
      </g>
    </g>
  </symbol>
  <symbol id="oid1" xml:space="preserve" class="METIS_SYMBOL">
   <title>Strategy</title>
    <g>
      <polygon points="0 0 0 304 16 320 
       880 320 880 16 864 0 0 0 
       0 0 0 0 0 0 0 0 
       0 0 0 0 0 0 "
       style=" stroke:#000000; stroke-width:1; fill:#9b9b9b; fill-opacity:100%"       class="TAG:shadow"></polygon>
      <rect x="240" y="224" width="624" height="80"
       style=" stroke:#000000; stroke-width:1; fill:#dcdcdc; fill-opacity:100%"       class="TAG:PropertyBackground"></rect>
      <rect x="0" y="0" width="240" height="304"
       style=" stroke:#000000; stroke-width:1; fill:#ffff6e; fill-opacity:100%"       class="TAG:canvas"></rect>
      <g>
	<desc>METIS_TEXT_GROUP</desc>
	<text  x="256" y="236"
	 style=" stroke:#000000; stroke-width:1; font-family:sans-serif; font-size:13;"
	 class="TAG:strat_value">strat_value</text>
	<rect x="256" y="224" width="608" height="80"
	 style=" stroke:#000000; stroke-width:1; fill:#ffffff; fill-opacity:0%"></rect>
      </g>
      <rect x="240" y="0" width="624" height="224"
       style=" stroke:#000000; stroke-width:1; fill:#ff8c8c; fill-opacity:100%"       class="TAG:canvas"></rect>
      <g>
	<desc>METIS_TEXT_GROUP</desc>
	<text  x="256" y="15"
	 style=" stroke:#000000; stroke-width:1; font-family:sans-serif; font-size:16;"
	 class="TAG:text">text</text>
	<rect x="256" y="0" width="608" height="240"
	 style=" stroke:#000000; stroke-width:1; fill:#ffffff; fill-opacity:0%"></rect>
      </g>
      <polyline points="864 304 880 320"
       style=" stroke:#000000; stroke-width:1;"></polyline>
      <g>
	<polygon points="82.2739 120.889 108.783 165.334 122.039 138.666 
	 148.55 156.445 161.805 129.777 224 272 16 272 
	 82.2739 120.889 82.2739 120.889 82.2739 120.889 82.2739 120.889 
	 82.2739 120.889 82.2739 120.889 82.2739 120.889 82.2739 120.889 82.2739 120.889 "
	 style=" stroke:#000000; stroke-width:1; fill:#ff8c8c; fill-opacity:100%"	 class="TAG:polygon"></polygon>
	<polyline points="82.2739 120.889 122.039 32 161.805 129.777"
	 style=" stroke:#000000; stroke-width:1;"	 class="TAG:polyline"></polyline>
      </g>
    </g>
  </symbol>
 </defs>
</svg>
