<?xml version="1.0" encoding="UTF-8" standalone="no"?>
<svg id="svg2" xmlns:rdf="http://www.w3.org/1999/02/22-rdf-syntax-ns#" xmlns="http://www.w3.org/2000/svg" enable-background="new -0.441 -0.562 202 200" xml:space="preserve" height="219" width="219" version="1.1" y="0px" x="0px" xmlns:cc="http://creativecommons.org/ns#" xmlns:xlink="http://www.w3.org/1999/xlink" viewBox="-0.441 -0.562 219 219" xmlns:dc="http://purl.org/dc/elements/1.1/">
	<metadata id="metadata311">
		<rdf:RDF>
			<cc:Work rdf:about="">
				<dc:title/>
			</cc:Work>
		</rdf:RDF>
	</metadata>
	<defs id="defs4">
		<linearGradient id="linearGradient4062" y2="127.72" gradientUnits="userSpaceOnUse" x2="149.72" gradientTransform="translate(-1.5323847,0)" y1="162.39" x1="188.32">
			<stop id="stop4058" stop-color="#494949" offset="0"/>
			<stop id="stop4060" stop-color="#494949" stop-opacity="0" offset="1"/>
		</linearGradient>
		<linearGradient id="linearGradient4070" y2="25.605" gradientUnits="userSpaceOnUse" x2="48.211" gradientTransform="translate(-1.5323847,0)" y1="166.47" x1="131.49">
			<stop id="stop4066" stop-color="#212121" offset="0"/>
			<stop id="stop4072" stop-color="#404040" offset="0.33244"/>
			<stop id="stop4074" stop-color="#818181" offset="0.73719"/>
			<stop id="stop4068" stop-color="#fbf5f5" offset="1"/>
		</linearGradient>
		<filter id="filter4343">
			<feGaussianBlur id="feGaussianBlur4345" stdDeviation="2.2374591"/>
		</filter>
	</defs>
	<g id="g4347">
		<path id="path239-1" opacity="0.5" d="m167.85,7.9505c-3.5778,0-6.5,2.893-6.5,6.4688v6.9062h-4.875c-0.0964-3.4926-2.9548-6.3125-6.4688-6.3125-3.5129,0-6.3724,2.8199-6.4688,6.3125h-6.2188l-0.71875,0.71875c-0.73254,0.73356,0,2.2188,0,2.2188s5.7113,17.247,10.031,29.594c-11.472-10.644-26.217-16.38-45.219-13.594l-11.781-18.969-17.344,13.406-22.594-13.406,1.3125,24.219-15.594,19.406v14.344s-3.9196,12.704-8.5,18.156c-4.5804,5.4531-10.688,16.406-10.688,16.406s-3.064,7.1337-3.7188,9.9688c-0.65479,2.835,0.21792,9.5977,0,10.906-0.21792,1.3085,1.5344,5.0323,2.625,6.125,1.0906,1.0896,12.231,8.0567,16.594,6.5312,4.3625-1.5275,1.9673,1.7515,1.3125,2.4062-0.65479,0.65376-2.2102,1.3164,0.84375,2.625,3.054,1.3096,6.7812,0,6.7812,0,1.9633,0.21894,6.7546-3.0708,8.5-6.3438,1.7444-3.2709,7.8467-15.692,9.1562-16.781,1.3086-1.0916,16.57-11.605,18.969-12.125,2.4002-0.52178,17.832-10.356,19.125-11.938,1.2932-1.5807,1.1239,11.42,0.71875,15.781-0.40412,4.3625-3.6961,21.145-12.094,28.344-8.3976,7.1965-18.197,19.279-21.469,25.562-0.87587,1.6822-1.5356,3.4809-2.0312,5.25-0.67501,0.1032-1.2218,0.22454-1.5,0.34375l-1.9062,1.1562s-2.8576,1.1884-4.3125,3.5938c-1.6452,2.7194,2.4688,8.4375,2.4688,8.4375h72.313c1.7311,2.3889,4.5427,3.9375,7.7188,3.9375h-9.0312c-3.5062,0-6.3438,2.8668-6.3438,6.375,0,3.5113,2.8376,6.3438,6.3438,6.3438h83.062c3.5103,0,6.3438-2.8325,6.3438-6.3438,0-3.5082-2.8345-6.375-6.3438-6.375h-9.5312c5.2628,0,9.5312-4.2694,9.5312-9.5312,0-5.2628-4.2684-9.5322-9.5312-9.5312h-3.4375c1.8897,0,3.4375-1.5186,3.4375-3.4062,0-1.8897-1.5478-3.4052-3.4375-3.4062h-1.1562c-0.95155-7.0403-8.7232-65.099-7-73.719,0.19498-0.97434,0.15214-1.7836-0.0625-2.5h5.5312c3.3732,0,6.125-2.7529,6.125-6.125s-2.7518-6.0938-6.125-6.0938h-2.9062c1.6206,0,2.9062-1.32,2.9062-2.9375s-1.2857-2.9375-2.9062-2.9375h-6.125c1.4855,0,2.6875-1.205,2.6875-2.6875,0-1.4845-1.2009-2.6875-2.6875-2.6875h1.4688c1.2134,0,2.1875-0.97308,2.1875-2.1875,0-1.2134-0.9741-2.2188-2.1875-2.2188h-3.6875v-0.40625s-0.2559,0.00079,0.96875-1.2188c1.2206-1.2246,14.656-41.75,14.656-41.75s0.73461-1.4842,0-2.2188l-0.71875-0.71875h-6.4688c-0.0963-3.4926-2.9568-6.3125-6.4688-6.3125-3.5189,0-6.3726,2.8199-6.4688,6.3125h-4.625v-6.9062c0-3.5757-2.8981-6.4688-6.4688-6.4688z" filter="url(#filter4343)" stroke-miterlimit="4" stroke-width="0" fill="#212121"/>
		<path id="path239" d="m27.928,59.14v14.358s-3.9267,12.689-8.5071,18.141c-4.5804,5.4531-10.687,16.417-10.687,16.417s-3.0529,7.1402-3.7077,9.9752c-0.65479,2.835,0.21792,9.5967,0,10.905-0.21792,1.3085,1.5265,5.0152,2.6171,6.1079,1.0906,1.0896,12.215,8.0692,16.577,6.5438,4.3625-1.5275,1.9633,1.7444,1.3085,2.3992-0.65478,0.65376-2.1813,1.3085,0.87271,2.6171,3.054,1.3096,6.7617,0,6.7617,0,1.9633,0.21894,6.7617-3.0519,8.5071-6.3248,1.7444-3.2709,7.8513-15.705,9.1609-16.794,1.3085-1.0916,16.576-11.609,18.975-12.129,2.4002-0.52178,17.804-10.343,19.097-11.924,1.2932-1.5807,1.1244,11.403,0.71924,15.765-0.40412,4.3625-3.676,21.157-12.074,28.355-8.3976,7.1965-18.212,19.276-21.484,25.56-3.2719,6.2839-3.6238,14.246-3.0529,15.882,0.56987,1.6359,2.3992,2.3982,2.3992,2.3982h123.67s1.8549-165.66-85.173-152.9l-11.761-18.983-17.358,13.414-22.575-13.414,1.309,24.211-15.595,19.412z" stroke="#141414" stroke-width="1.02310181" fill="url(#linearGradient4070)"/>
		<path id="path241" d="m113.78,38.465c9.9967,2.5107,15.675,8.413,22.018,14.532,7.1822,6.9274,10.88,16.064,15.346,24.954,6.1765,12.298,11.835,25.008,16.037,38.124,5.8378,18.226,8.5859,37.244,11.152,56.153,0.17188,1.2686,0.12379,6.9264,1.0282,7.6579,0.004,0.003,0.2169,0.18928-0.31613,2.5659-0.5402,2.3971-3.6648-0.59135-4.0003-2.0677-1.0579-4.6541-2.216-9.2939-3.323-13.937-2.7194-11.405-5.7335-22.739-9.2519-33.926-4.1763-13.282-9.0012-26.37-14.389-39.209-4.96-11.789-10.22-24.038-18.15-34.182-6.05-7.731-13.54-12.422-22.92-15.063-1.6114-0.44812-2.4462-0.27214-3.3732-1.6963-0.78063-1.1991-0.97502-3.4376,0.17597-4.4617,1.1735-1.0456,6.7484-0.24657,9.9527,0.55759z" fill="#3f3f3f"/>
		<path id="path243" d="m45.233,58.85s-4.253,1.8406-6.2164,5.9319c-1.9623,4.0924-1.6023,3.3758-1.6023,3.3758s-3.3045,5.1109,0.29377,4.0591c3.5982-1.0528,7.5249-2.3613,7.5249-2.3613s0.65478-1.3587,1.9623-3.1327c1.3085-1.7751,1.9623-3.7057,1.9623-3.7057s0.65478-2.7399,0-4.1671c-0.65376-1.4272-3.9246,0-3.9246,0z" stroke="#070707" stroke-width="1.02310181" fill="#595959"/>
		<path id="path245" d="m13.497,119.91s-0.32739,1.637-1.9633,3.9256c-1.6359,2.2897-1.4528,2.4391-1.4528,2.4391s-1.0865,1.9183,3.4161-0.14937c4.8035-2.2048,6.5438-4.253,6.5438-4.253v-3.5993l-1.9633-1.6359h-2.7286l-1.8518,3.2729z" stroke="#070707" stroke-width="1.02310181" fill="#595959"/>
		<path id="path247" d="m50.651,175.86s-2.8749,1.1929-4.3298,3.5982c-1.6451,2.7194,2.4575,8.4498,2.4575,8.4498h130.3l-1.507-4.2275-4.1712-2.1444-0.90238-4.1906s3.4632,0.86656-0.33967-1.5254c-3.8029-2.3889-113.42-3.7824-119.63-1.1234l-1.8835,1.1633z" stroke="#0c0c0c" stroke-width="1.02310181" fill="#3f3f3f"/>
		<path id="path249" d="m88.477,97.333c0.17086,0,1.2165,0.61386,0.59647,1.2789-3.5809,3.8366-17.829,11.879-19.781,12.531-2.1772,0.72538-17.819,10.573-19.61,12.993-0.94637,1.2789-6.9806,13.022-8.6114,16.08s-6.5652,6.1396-8.014,5.7979c0,0-3.454,1.4784-6.3095,0.25578-2.8545-1.2226-1.2093-1.5214-0.59647-2.1322,0.61182-0.61284,2.2171-4.518-1.3444-3.0785-4.0167,1.6237-14.432-4.5129-15.451-5.5319,0,0-1.95-5.0756,3.0714-6.509,0,0,7.173-1.196,9.8034,0.71618,2.6304,1.9132,0.9566,0,0.9566,0s8.1296-1.195,11.956-6.4558c0,0,5.978-7.174,11.477-9.8034,0,0,22.715-10.76,29.171-14.346-0.001,0,5.4726-1.7966,12.685-1.7966z" fill="#535454"/>
		<path id="path251" d="m13.7,125.39c-0.38673,0.29568-1.0968,0.49927-0.93409,0.44198,4.2049-1.4692,6.8896-3.9921,6.8896-3.9921v-3.232l-1.7628-1.4692-2.1864,0.0614c0.002-0.001,5.0224,2.8309-2.0063,8.1899z" fill="#adadad"/>
		<path id="path253" d="m37.918,71.498c-3.2504,1.4559,6.9909-2.1035,6.9909-2.1035s0.62205-1.2912,1.8651-2.9762c1.2431-1.6861,1.8641-3.5205,1.8641-3.5205s0.62205-2.6028,0-3.9584c0-0.001-3.3865,9.2724-10.72,12.559z" fill="#adadad"/>
		<polygon id="polygon255" points="37.466,14.304,48.433,31.919,59.199,27.218" fill="#535454" transform="matrix(1.0231018,0,0,1.0231018,4.2663684,1.6500038)"/>
		<polygon id="polygon257" points="76.122,14.054,73.892,37.271,87.617,32.602" fill="#535454" transform="matrix(1.0231018,0,0,1.0231018,4.2663684,1.6500038)"/>
		<path id="path259" d="m138.99,92.249s-3.7885,72.923-9.2836,76.22c-5.4982,3.2985,1.4651,0,1.4651,0h57.896s-9.1598-67.059-7.3285-76.22c1.8334-9.1619-16.488-6.11-16.488-6.11h-26.26v6.11z" stroke="#141414" stroke-width="1.02310181" fill="#bfc0c1"/>
		<path id="path261" d="m193.32,83.614c0,3.3721-2.7327,6.1089-6.1059,6.1089h-53.99c-3.3722,0-6.109-2.7368-6.109-6.1089s2.7368-6.1059,6.109-6.1059h53.99c3.3732,0,6.1059,2.7337,6.1059,6.1059z" stroke="#141414" stroke-width="1.02310181" fill="#bfc0c1"/>
		<path id="path263" d="m187.21,74.577c0,1.6175-1.3116,2.9312-2.9322,2.9312h-49.347c-1.6175,0-2.9312-1.3147-2.9312-2.9312,0-1.6175,1.3137-2.9322,2.9312-2.9322h49.347c1.6206,0,2.9322,1.3147,2.9322,2.9322z" stroke="#141414" stroke-width="1.02310181" fill="#bfc0c1"/>
		<path id="path265" d="m180.86,68.957c0,1.4825-1.2022,2.6877-2.6877,2.6877h-35.663c-1.4856,0-2.6887-1.2052-2.6887-2.6877,0-1.4845,1.2032-2.6856,2.6887-2.6856h35.663c1.4866,0,2.6877,1.2011,2.6877,2.6856z" stroke="#141414" stroke-width="1.02310181" fill="#bfc0c1"/>
		<path id="path267" d="m148.98,34.041c0,3.5768-2.9005,6.4762-6.4752,6.4762-3.5737,0-6.4732-2.8995-6.4732-6.4762v-18.321c0-3.5768,2.8995-6.4762,6.4732-6.4762,3.5747,0,6.4752,2.8995,6.4752,6.4762v18.322z" stroke="#141414" stroke-width="1.02310181" fill="#bfc0c1"/>
		<path id="path269" d="m166.81,26.959c0,3.5727-2.8954,6.4732-6.466,6.4732-3.5778,0-6.4762-2.8995-6.4762-6.4732v-18.324c0-3.5757,2.8984-6.4732,6.4762-6.4732,3.5706,0,6.466,2.8974,6.466,6.4732v18.325z" stroke="#141414" stroke-width="1.02310181" fill="#bfc0c1"/>
		<path id="path271" d="m184.4,34.041c0,3.5768-2.8974,6.4762-6.4701,6.4762-3.5798,0-6.4752-2.8995-6.4752-6.4762v-18.321c0-3.5768,2.8954-6.4762,6.4752-6.4762,3.5727,0,6.4701,2.8995,6.4701,6.4762v18.322z" stroke="#141414" stroke-width="1.02310181" fill="#bfc0c1"/>
		<path id="path273" d="m148.41,15.483c0-3.3967-3.1542-5.9678-6.2041-5.6598-0.84917,0-1.5214,0.21076-2.257,0.52281-0.001,0,6.8916,0.90749,8.461,5.137z" fill="#494949"/>
		<path id="path275" d="M166.32,13.949c0.6-6.5655-0.17-10.914-5.97-11.279-1.1551,0-2.2365,0.31716-3.1593,0.87066,0,0.001,8.6186,0.8594,9.1302,10.408z" fill="#494949"/>
		<path id="path277" d="m183.88,15.483c-0.12789-3.1542-2.5864-5.7457-5.98-5.7457-0.86861,0-1.6943,0.18007-2.4432,0.50439,0,0,5.5125-0.2834,8.4232,5.2414z" fill="#494949"/>
		<path id="path279" d="m191.58,16.274l-0.73254-0.73254h-61.015l-0.73356,0.73254c-0.73254,0.73356,0,2.1986,0,2.1986s13.432,40.549,14.658,41.774c1.2195,1.2195,0.97297,1.2195,0.97297,1.2195v2.1986c0,0.91772,7.2149,0.68446,15.607,0.10026,8.3956,0.58419,15.606,0.81746,15.606-0.10026v-2.1986l0.97706-1.2195c1.2206-1.2247,14.658-41.774,14.658-41.774s0.73561-1.4641,0.001-2.1986z" stroke="#141414" stroke-width="1.02310181" fill="#bfc0c1"/>
		<path id="path281" d="m155.58,63.825c2.7235,0.16267-1.1888,0.33353,4.3799-0.0532,8.3168,0.57805,15.459,0.8103,15.459-0.09924v-2.1782l0.96786-1.2083c1.2093-1.2134,14.519-41.38,14.519-41.38s0.82156-1.7597,0.31-2.2713c-0.49927-0.49927-0.55349-0.59647-0.55349-0.59647l-8.8243,0.04297c0.001-0.001-2.301,33.847-26.258,47.744z" fill="#494949"/>
		<path id="path283" d="m181.84,64.073c0,1.2144-0.98422,2.1986-2.1976,2.1986h-38.843c-1.2154,0-2.1986-0.98422-2.1986-2.1986s0.98423-2.1986,2.1986-2.1986h38.843c1.2134,0,2.1976,0.98525,2.1976,2.1986z" stroke="#141414" stroke-width="1.02310181" fill="#bfc0c1"/>
		<path id="path285" d="m137.67,167.27h50.97s-9.1598-67.059-7.3285-76.219c0,0-9.3675,73.096-43.641,76.219z" fill="url(#linearGradient4062)"/>
		<path id="path287" d="m187.19,78.012c3.0918,0,5.5953,2.5046,5.5953,5.5953,0,3.0898-2.5025,5.5984-5.5953,5.5984h-26.179s22.018-2.0196,26.179-11.194z" fill="#494949"/>
		<path id="path289" d="m184.26,72.146c1.3638,0,2.4677,1.107,2.4677,2.4687s-1.1039,2.4677-2.4677,2.4677l-24.296-0.04195s24.128-0.24964,24.296-4.8945z" fill="#494949"/>
		<path id="path291" d="m159.75,71.157,18.374,0.08492c1.2533,0,2.2252-0.95455,2.2252-2.2048,0-1.2513-0.86145-2.3143-2.2682-2.2283,0,0-5.6015,4.0709-18.331,4.3482z" fill="#494949"/>
		<path id="path293" d="m163.08,65.7,16.37,0.17086c1.0262,0,1.8754-0.68957,1.8754-1.7168,0-1.0262-0.68037-1.9071-2.0452-1.7792,0,0.001-2.3572,3.0212-16.2,3.3251z" fill="#494949"/>
		<path id="path295" d="m209.2,198.19c0,3.5113-2.8432,6.3494-6.3535,6.3494h-83.058c-3.5062,0-6.3514-2.8381-6.3514-6.3494,0-3.5082,2.8452-6.3555,6.3514-6.3555h83.058c3.5092,0,6.3535,2.8473,6.3535,6.3555z" stroke="#0c0c0c" stroke-width="1.02310181" fill="#3f3f3f"/>
		<path id="path297" d="m202.85,182.31c0,5.2618-4.2643,9.5261-9.5271,9.5261h-64.492c-5.2618,0-9.5271-4.2643-9.5271-9.5261,0-5.2628,4.2653-9.5281,9.5271-9.5281h64.492c5.2628-0.001,9.5271,4.2653,9.5271,9.5281z" stroke="#141414" stroke-width="1.02310181" fill="#bfc0c1"/>
		<path id="path299" d="m193.32,169.36c0,1.8876-1.5316,3.4172-3.4212,3.4172h-59.361c-1.8876,0-3.4212-1.5295-3.4212-3.4172,0-1.8907,1.5336-3.4192,3.4212-3.4192h59.361c1.8897,0.001,3.4212,1.5295,3.4212,3.4192z" stroke="#141414" stroke-width="1.02310181" fill="#bfc0c1"/>
		<path id="path301" d="m202.9,192.39c3.2882,0,5.9493,2.6652,5.9493,5.9504,0,3.2882-2.6621,5.9463-5.9493,5.9463l-45.625-0.29159c0.001,0,34.275-0.85326,45.625-11.605z" fill="#232323"/>
		<path id="path303" d="m193.43,173.3c4.9723,0,9.0012,4.029,9.0012,9.0012,0,4.9692-4.029,8.9982-9.0012,8.9982l-36.829,0.0737s37.172-12.106,36.829-18.073z" fill="#282828"/>
		<path id="path305" d="m164.44,172.27h25.527c1.5991,0,2.8974-1.2952,2.8974-2.8933,0-1.6001-1.2983-2.8944-2.8974-2.8944,0,0-9.1547,5.6639-25.527,5.7877z" fill="#494949"/>
		<path id="path307" d="m81.095,86.952c-9.2969,2.1679-18.806,7.0584-25.934-2.1833-2.0268-2.6283-3.1481-6.2297-3.2842-9.5824-0.10026-2.4626,0.4164-4.8035,2.3061-6.288,0.6599,5.3304,2.5721,12.25,5.7867,16.663,3.3814,4.6336,6.9315,3.2821,12.222,2.9875,2.9649-0.53917,5.936-1.1008,8.903-1.5971z" fill="#535454"/>
	</g>
</svg>
