<?xml version="1.0" encoding="UTF-8" standalone="no"?>
<svg xmlns:rdf="http://www.w3.org/1999/02/22-rdf-syntax-ns#" xmlns="http://www.w3.org/2000/svg" version="1.1" xml:space="preserve" height="219" viewBox="-0.178 -0.65 219 219" width="219" enable-background="new -0.178 -0.65 156 210" y="0px" x="0px" xmlns:cc="http://creativecommons.org/ns#" xmlns:xlink="http://www.w3.org/1999/xlink" xmlns:dc="http://purl.org/dc/elements/1.1/"><metadata><rdf:RDF><cc:Work rdf:about=""><dc:format>image/svg+xml</dc:format><dc:type rdf:resource="http://purl.org/dc/dcmitype/StillImage"/><dc:title/></cc:Work></rdf:RDF></metadata><defs><filter id="filter3932"><feGaussianBlur stdDeviation="2.1254596"/></filter><filter id="filter3936"><feGaussianBlur stdDeviation="2.1254596"/></filter><filter id="filter3940"><feGaussianBlur stdDeviation="2.1254596"/></filter><linearGradient id="linearGradient3973" y2="31.7" gradientUnits="userSpaceOnUse" x2="107" gradientTransform="matrix(1.1874491,0,0,1.1874491,-18.953579,-7.43966)" y1="58.3" x1="122"><stop stop-color="#d59f0f" offset="0"/><stop stop-color="#f5d068" offset="1"/></linearGradient></defs><g fill-opacity="0.50264551" fill="#000" transform="translate(285,4)"><path d="m-235,8.09c-0.581,6.01-0.938,12.2-0.938,18.5,0,5.18,0.228,10.3,0.625,15.3-2.52-0.982-3.88-3.94-3.88-3.94,0.601-4.74-2.97-7.75-2.97-7.75-2.37-5.6-11.8-2.59-11.8-2.59-11.8,2.59-5.88,28.3-5.88,28.3,5.11,30.4,22.4,41.9,28.3,44.5,5.65,2.46,10.7,2.59,13.8,3.72,0.746,1.34,1.53,2.63,2.31,3.91-0.207,0.05-0.423,0.093-0.688,0.125-3.54,0.437-4.72-1.72-5.31-3.44-0.593-1.73-3.56,0.406-3.56,0.406-0.591,2.59,1.77,8.63,10.1,6.47,0.545-0.142,1.04-0.303,1.5-0.469,11.6,17.3,26.6,27.8,43.2,27.8,16.5,0,31.6-10.5,43.2-27.7,0.406,0.141,0.84,0.283,1.31,0.406,8.29,2.16,10.7-3.88,10.1-6.47,0,0-2.97-2.14-3.56-0.406-0.589,1.72-1.78,3.87-5.31,3.44-0.187-0.0226-0.342-0.0309-0.5-0.0625,0.813-1.32,1.6-2.68,2.38-4.06,3.05-1.05,8.01-1.23,13.5-3.62,5.92-2.59,23.2-14.1,28.3-44.5,0,0,5.97-25.8-5.88-28.3,0,0-9.44-3.01-11.8,2.59,0,0-3.57,3.01-2.97,7.75,0,0-1.27,2.78-3.66,3.84,0.392-4.97,0.625-10,0.625-15.2,0-6.29-0.325-12.5-0.906-18.5h-130zm-13.3,23c7.52-0.0951,4.81,9.75,8.56,12.9,1.39,1.16,3.1,1.54,4.78,1.53,2.02,20.4,7.24,38.8,14.8,53.9-18-2.8-29-24.5-29-24.5-8.81-18.6-12.7-41-2.09-43.5,1.01-0.241,1.91-0.365,2.69-0.375zm156,0c0.778,0.0098,1.67,0.134,2.69,0.375,10.6,2.51,6.68,24.9-2.12,43.5,0,0-11.7,21.5-28.4,24.4,7.5-15.1,12.7-33.5,14.7-53.9,1.61-0.0282,3.23-0.424,4.56-1.53,3.75-3.12,1.05-13,8.56-12.9z" transform="translate(-0.178,-0.65)" filter="url(#filter3940)"/><path d="m-172,133c-3.41,0.0415-6.52,0.461-7.81,1.71,0,0-0.652,9.08-4.75,14.2-4.1,5.14-1.5,13,2.03,18.9,2.43,4.04,2.98,7.36,3.09,8.49,0,0,1.02,9.11-11.8,12.6,0,0-2.42,1.97-1.97,7.74h-10.1v15.2h64.5v-15.2h-8.72c0.0686-0.586,0.639-6.29-2-7.74,0,0-9.12-4.26-9.94-10.8-0.009-0.0686-0.0206-0.106-0.0312-0.17,0,0-0.762-6.29,2.53-10.2,2.9-3.43,4.33-11,2.78-15.2-0.441-1.2-0.987-2.32-1.56-3.41-0.702-1.32-1.61-2.42-2.16-3.89-0.417-1.11-0.77-2.31-1.09-3.48-0.14-0.5-1.65-7.89-0.906-7.78-0.001,0-6.47-0.99-12.2-0.921z" filter="url(#filter3936)"/><line x1="-160" filter="url(#filter3932)" y1="181" x2="-160" y2="181"/></g><path d="m168,41.3s7.11,3.45,11.3,0c4.14-3.45,0.422-15.1,11.2-12.5,10.6,2.51,6.7,24.8-2.11,43.4,0,0-14.6,26.9-34.6,24.6,0,0-6.52,3.01-5.33,4.73,0,0-2.36,5.18,5.91,7.33,8.29,2.16,10.7-3.88,10.1-6.47,0,0-2.97-2.16-3.56-0.422-0.589,1.72-1.77,3.88-5.31,3.44-3.56-0.431-1.78-2.59,1.18-3.88s8.28-1.29,14.2-3.87c5.92-2.59,23.2-14.1,28.4-44.5,0,0,5.98-25.7-5.87-28.3,0,0-9.46-3.02-11.8,2.59,0,0-3.55,3.02-2.95,7.76,0,0-2.97,6.46-8.29,3.45-0.001-0.000841-4.74-2.16-2.38,2.58z" stroke="#020202" stroke-dasharray="none" stroke-miterlimit="4" stroke-width="0.98643357" fill="#b3b3b3"/><path d="m51.7,41.3s-7.11,3.45-11.3,0c-4.14-3.45-0.422-15.1-11.2-12.5-10.6,2.51-6.7,24.8,2.11,43.4,0,0,14.6,26.9,34.6,24.6,0,0,6.52,3.01,5.33,4.73,0,0,2.36,5.18-5.91,7.33-8.29,2.16-10.7-3.88-10.1-6.47,0,0,2.97-2.16,3.56-0.422,0.589,1.72,1.77,3.88,5.31,3.44,3.56-0.431,1.78-2.59-1.18-3.88-2.9-2-8.2-2-14.1-4.3-6-2.5-23.3-14-28.4-44.5,0,0-5.98-25.7,5.87-28.3,0,0,9.46-3.02,11.8,2.59,0,0,3.55,3.02,2.95,7.76,0,0,2.97,6.46,8.29,3.45,0.0012-0.000841,4.74-2.16,2.38,2.58z" stroke="#020202" stroke-dasharray="none" stroke-miterlimit="4" stroke-width="0.98643357" fill="#b3b3b3"/><path d="m130,189s-9.14-3.89-9.95-9.92c-0.009-0.0629-0.0261-0.119-0.0368-0.178,0-0.001,0.001-0.001,0.001-0.001s-0.768-5.75,2.52-9.33c2.9-3.15,4.33-10.1,2.78-13.9-0.441-1.1-0.983-2.13-1.56-3.13-0.702-1.21-1.61-2.2-2.15-3.55-0.417-1.02-0.784-2.12-1.11-3.19-0.14-0.458-1.64-7.25-0.893-7.15-0.002,0-16.5-2.32-20,0.723,0,0-0.657,8.33-4.75,13-4.1,4.71-1.48,11.9,2.05,17.3,2.43,3.7,2.98,6.73,3.09,7.76-0.001,0-0.004,0.001-0.004,0.001s1.01,8.35-11.8,11.6c0,0-2.49,1.85-1.97,7.29h45.7c0.001,0.001,0.821-5.89-1.96-7.29z" stroke="#020202" stroke-width="1.1874491" fill="#b3b3b3"/><path stroke-linejoin="miter" style="enable-background:accumulate;color:#000000;" d="m101,177c0.001,0-1.61-5.83-3-7.53-0.0534-0.0665,0.223-0.572,0.626-0.71,22.6-7.7,21.6-22.4,21.6-22.4,0.312,1.03,0.665,2.08,1.06,3.06,0.526,1.29,1.39,2.25,2.06,3.4,0.555,0.957,1.07,1.95,1.5,3,1.48,3.7,0.11,10.4-2.67,13.4,0,0.001-10.3,9.34-21.2,7.8z" fill-rule="nonzero" stroke-dashoffset="0" stroke-linecap="butt" stroke-miterlimit="4" stroke-dasharray="none" stroke-width="1" fill="#686868"/><line stroke-width="1.19" x1="120" y1="179" stroke="#020202" x2="120" y2="179" fill="#808080"/><path stroke-linejoin="miter" style="enable-background:accumulate;color:#000000;" d="m122,185c0.116-0.173,0.363-0.335,0.49-0.45,1.73,1.29,6.77,4.38,6.77,4.38,2.65,1.33,1.86,6.95,1.86,6.95h-38.5c0-0.001,25.5-4.3,29.9-10.9z" fill-rule="nonzero" stroke-dashoffset="0" stroke-linecap="butt" stroke-miterlimit="4" stroke-dasharray="none" stroke-width="1" fill="#686868"/><rect height="13.9" width="64.5" stroke="#020202" y="196" x="76.5" stroke-width="1.19" fill="#b3b3b3"/><path stroke-linejoin="miter" style="enable-background:accumulate;color:#000000;" d="m140,197v12.9h-51.4s42.9-4.01,51.6-12.9z" fill-rule="nonzero" stroke-dashoffset="0" stroke-linecap="butt" stroke-miterlimit="4" stroke-dasharray="none" stroke-width="1" fill="#686868"/><path d="m123,139c2-3.11-1.01-5.61-1.01-5.61-10.1,5.61-24.6,0-24.6,0-2.03,4.97,0.502,6.22,0.502,6.22l25.1-0.615z" stroke="#020202" stroke-width="1.1874491" fill="#424242"/><path style="enable-background:accumulate;color:#000000;" d="m45.2,5.45c-0.581,6.01-0.915,12.2-0.915,18.5,0,62.1,29.4,112,65.7,112s65.7-50.3,65.7-112c0-6.29-0.334-12.5-0.915-18.5h-130z" fill-rule="evenodd" stroke="#000" stroke-miterlimit="4" stroke-dasharray="none" stroke-width="1.24368739" fill="#b3b3b3"/><path fill="#686868" d="m77.2,121c7.96,8.35,14.1,11.4,14.1,11.4,16.7,5.21,32.6,1.2,32.6,1.2,32.9-13,46-56.7,50.7-89-0.001,0-33.5,104-97.5,76.4z"/><path style="enable-background:accumulate;color:#000000;" d="m45.2,5.45c-0.359,3.71-0.613,7.49-0.763,11.3h131c-0.15-3.82-0.404-7.6-0.763-11.3h-130z" fill-rule="evenodd" stroke="#000" stroke-miterlimit="4" stroke-dasharray="none" stroke-width="1.24368739" fill="#ececec"/><polygon transform="matrix(1.2359527,0,0,1.1874491,15.053434,1.824008)" stroke="#020202" points="24.3,19.3,24,14.1,131,14.1,130,19.2" fill="#e5e5e5"/><polygon transform="matrix(1.1938039,0,0,1.1874491,17.876184,1.824008)" stroke="#020202" points="133,11.6,133,16.6,22.7,16.7,22.4,11.6" fill="#666"/><path d="m109,26.9,17.1,13.4s4.06,2.87,6.05-1.04c1.99-3.9-5.32-5.95,0.769-9.08,3.05-0.673,6.68,0.733,9.38,2.68,1,0.72,1.84,1.51,2.5,2.3,0.0321,0.0368,0.0629,0.0701,0.095,0.102,2.04,2.06,3.65,4.73,3.73,7.36-1.53,6.67-5.31,0.0974-8.6,2.98-2.34,2.05-1.12,4.25-0.222,5.37l17.6,13.7-0.799,0.98-13.7,17.6c-1.12,0.902-3.32,2.12-5.37-0.221-2.88-3.29,3.7-7.07-2.98-8.6-2.64,0.0807-5.3,1.69-7.36,3.72-0.0332,0.0344-0.07,0.0653-0.103,0.095-0.786,0.661-1.58,1.51-2.3,2.51-1.94,2.69-3.35,6.33-2.68,9.37,3.13,6.09,5.17-1.21,9.08,0.769,3.9,1.99,1.04,6.05,1.04,6.05l-13.4,17.1-1.06,0.806-17.1-13.4s-4.06-2.86-6.05,1.04,5.32,5.96-0.774,9.08c-3.04,0.672-6.67-0.734-9.37-2.68-0.993-0.716-1.84-1.51-2.5-2.3-0.0297-0.0321-0.0594-0.0689-0.0986-0.102-2.03-2.05-3.64-4.72-3.72-7.36,1.53-6.68,5.31-0.103,8.6-2.98,2.33-2.05,1.12-4.25,0.218-5.37l-17.4-14.1,0.5-0.8,13.7-17.6c1.12-0.907,3.32-2.11,5.37,0.218,2.89,3.29-3.69,7.07,2.99,8.6,2.63-0.0819,5.3-1.69,7.35-3.72,0.0368-0.0344,0.0689-0.0689,0.103-0.0986,0.785-0.663,1.58-1.51,2.3-2.51,1.95-2.7,3.35-6.33,2.68-9.37-3.12-6.1-5.18,1.21-9.08-0.774-3.9-1.99-1.04-6.05-1.04-6.05l13.4-17.1,1.33-0.942z" stroke="#FFF" stroke-width="1.78117359" fill="url(#linearGradient3973)"/></svg>
