<?xml version="1.0"?>
<?metis version="3.5"?>
<?metisxml version="1.1"?>
<!DOCTYPE svg  PUBLIC "-//W3C//DTD SVG August 1999//EN"
 "http://www.w3.org/Graphics/SVG/svg-19990812.dtd">



<!--
Troux Technologies, Inc. Confidential and Proprietary.
This work contains valuable confidential, proprietary and trade secret
information of Troux Technologies, Inc. and is protected by the laws of 
the United States and other countries. Any disclosure, use or reproduction
of this work without the prior written authorization of Troux Technologies, Inc.
is strictly prohibited.
Copyright (C) 2000-2006 Troux Technologies, Inc. All rights reserved.
-->


<svg
 width="200" height="200">
 <title>Symbol library: symbol_man.svg</title>
 <defs>
  <symbol id="oid1" xml:space="preserve" class="METIS_SYMBOL">
   <title>Untitled</title>
    <g>
      <polygon points="62.6464 63.2968 48.8363 67.0847 48.6743 101.16 
       62.1864 103.126 62.3998 83.185 76.21 75.3718 62.6464 63.2968 
       62.6464 63.2968 62.6464 63.2968 "
       style=" stroke:#000000; stroke-width:1; fill:#000000; fill-opacity:100%"></polygon>
      <polygon points="88.187 30.5953 103.337 26.8339 108.763 39.6196 
       115.422 36.5414 110.243 15.4689 90.0202 11.4438 88.187 30.5953 
       88.187 30.5953 88.187 30.5953 "
       style=" stroke:#000000; stroke-width:1; fill:#000000; fill-opacity:100%"></polygon>
      <polygon points="34.615 29.8329 20.0378 40.227 8.29152 37.573 
       0 40.8903 20.7288 54.8214 46.2176 39.833 34.615 29.8329 
       34.615 29.8329 34.615 29.8329 "
       style=" stroke:#000000; stroke-width:1; fill:#000000; fill-opacity:100%"></polygon>
      <polygon points="69.4694 13.2591 67.1676 11.3649 54.5082 0 
       41.1912 5.68246 42.3422 24.3084 50.7269 26.3603 69.4694 13.2591 
       69.4694 13.2591 69.4694 13.2591 "
       style=" stroke:#000000; stroke-width:1; fill:#000000; fill-opacity:100%"></polygon>
      <polygon points="42.3277 107.45 35.1622 114.92 35.5716 118.654 
       61.5722 120.422 62.5958 107.45 42.3277 107.45 42.3277 107.45 42.3277 107.45 "
       style=" stroke:#000000; stroke-width:1; fill:#008d9c; fill-opacity:100%"></polygon>
      <polygon points="100.471 81.701 108.455 101.946 116.439 98.0147 
       117.258 76.197 105.589 76.197 100.471 81.701 100.471 81.701 100.471 81.701 "
       style=" stroke:#000000; stroke-width:1; fill:#008d9c; fill-opacity:100%"></polygon>
      <polygon points="62.8931 57.377 62.6464 49.3273 53.0286 42.4608 
       42.6709 41.7505 34.548 29.809 47.6032 28.4912 71.771 11.4438 
       90.0202 11.4438 90.0202 30.3854 82.3753 36.0678 90.2669 49.8001 
       62.8931 57.377 62.8931 57.377 62.8931 57.377 "
       style=" stroke:#000000; stroke-width:1; fill:#008d9c; fill-opacity:100%"></polygon>
      <polygon points="48.6743 97.0319 48.8791 107.647 62.5958 107.45 
       62.5958 97.2289 48.6743 97.0319 48.6743 97.0319 48.6743 97.0319 "
       style=" stroke:#000000; stroke-width:1; fill:#dcdcdc; fill-opacity:100%"></polygon>
      <polygon points="82.6219 75.8457 82.6219 84.842 89.7736 89.3413 
       102.844 89.3413 105.384 83.8625 107.022 76.197 95.9389 76.556 
       89.527 58.0873 83.6829 66.173 82.6219 75.8457 82.6219 75.8457 82.6219 75.8457 "
       style=" stroke:#000000; stroke-width:1; fill:#000000; fill-opacity:100%"></polygon>
      <polygon points="62.6464 57.1406 62.3998 63.2968 72.5108 77.2663 
       79.9091 76.3185 85.8278 73.7137 89.527 62.8229 90.1847 49.7213 
       83.3617 50.9843 67.5786 55.72 62.6464 57.1406 62.6464 57.1406 62.6464 57.1406 "
       style=" stroke:#000000; stroke-width:1; fill:#6e006e; fill-opacity:100%"></polygon>
      <polygon points="100.675 76.394 99.447 77.5727 96.7856 89.3664 
       103.337 89.1694 106.408 83.2726 107.431 76 100.675 76.394 
       100.675 76.394 100.675 76.394 "
       style=" stroke:#000000; stroke-width:1; fill:#dcdcdc; fill-opacity:100%"></polygon>
      <polygon points="69.9661 18.0155 51.5405 30.5953 43.3513 31.7746 
       47.4459 36.8852 60.5486 33.5437 67.0999 41.9957 75.6985 37.6715 
       69.5566 25.6813 77.9505 19.588 69.9661 18.0155 69.9661 18.0155 69.9661 18.0155 "
       style=" stroke:#000000; stroke-width:1; fill:#6ff1ff; fill-opacity:100%"></polygon>
    </g>
  </symbol>
 </defs>
</svg>
