<?xml version="1.0" encoding="UTF-8" standalone="no"?>

<svg
 xmlns:dc="http://purl.org/dc/elements/1.1/"
   xmlns:cc="http://creativecommons.org/ns#"
   xmlns:rdf="http://www.w3.org/1999/02/22-rdf-syntax-ns#"
   xmlns:svg="http://www.w3.org/2000/svg"
   xmlns="http://www.w3.org/2000/svg"
   xmlns:sodipodi="http://sodipodi.sourceforge.net/DTD/sodipodi-0.dtd"
   xmlns:inkscape="http://www.inkscape.org/namespaces/inkscape"
   id="svg2"
   version="1.1"
   inkscape:version="0.47 r22583"
   width="100"
   height="100"
   sodipodi:docname="system_service.svg">
  <metadata
     id="metadata326">
    <rdf:RDF>
      <cc:Work
         rdf:about="">
        <dc:format>image/svg+xml</dc:format>
        <dc:type
           rdf:resource="http://purl.org/dc/dcmitype/StillImage" />
      </cc:Work>
    </rdf:RDF>
  </metadata>
  <defs
     id="defs324">
    <inkscape:perspective
       sodipodi:type="inkscape:persp3d"
       inkscape:vp_x="0 : 0.5 : 1"
       inkscape:vp_y="0 : 1000 : 0"
       inkscape:vp_z="1 : 0.5 : 1"
       inkscape:persp3d-origin="0.5 : 0.33333333 : 1"
       id="perspective328" />
  </defs>
  <sodipodi:namedview
     pagecolor="#ffffff"
     bordercolor="#666666"
     borderopacity="1"
     objecttolerance="10"
     gridtolerance="10"
     guidetolerance="10"
     inkscape:pageopacity="0"
     inkscape:pageshadow="2"
     inkscape:window-width="1680"
     inkscape:window-height="994"
     id="namedview322"
     showgrid="false"
     inkscape:zoom="7.49"
     inkscape:cx="50"
     inkscape:cy="50"
     inkscape:window-x="-4"
     inkscape:window-y="-4"
     inkscape:window-maximized="1"
     inkscape:current-layer="svg2" />
  <polygon
     points="204.163,68.727 203.697,68.8048 137.963,68.8048 137.498,68.727 137.11,68.572 136.645,68.3396 136.335,67.9518 136.18,67.4869 136.103,66.9442 136.103,16.0931 136.18,15.473 136.335,15.0078 136.568,14.6978 136.568,14.6978 136.955,14.4653 137.42,14.3102 137.963,14.2327 203.697,14.2327 204.24,14.3102 204.705,14.4653 205.093,14.6978 205.325,15.0854 205.48,15.5505 205.558,16.0931 205.558,66.9442 205.48,67.4869 205.325,67.9518 205.093,68.3396 204.705,68.572 "
     style="fill:#696969;fill-opacity:1;stroke:#000000;stroke-width:1"
     id="polygon4"
     transform="matrix(0.29703823,0,0,0.29703823,0.14851912,0.14850706)" />
  <polygon
     points="202.782,67.4905 202.335,67.5644 139.132,67.5644 138.684,67.4905 138.312,67.3423 137.865,67.1203 137.567,66.7504 137.417,66.3064 137.343,65.7884 137.343,17.2488 137.417,16.6569 137.567,16.2129 137.79,15.9169 137.79,15.9169 138.163,15.6949 138.61,15.547 139.132,15.473 202.335,15.473 202.856,15.547 203.304,15.6949 203.676,15.9169 203.9,16.2869 204.049,16.7308 204.124,17.2488 204.124,65.7884 204.049,66.3064 203.9,66.7504 203.676,67.1203 203.304,67.3423 "
     style="fill:#000000;fill-opacity:1;stroke:#000000;stroke-width:1"
     id="polygon6"
     transform="matrix(0.29703823,0,0,0.29703823,0.14851912,0.14850706)" />
  <rect
     x="46.467175"
     y="6.00177"
     width="14.191773"
     height="13.393929"
     style="fill:#f2f5f5;fill-opacity:1;stroke:#9b9b9b;stroke-width:0.29703823"
     id="rect8" />
  <rect
     x="41.174843"
     y="4.928772"
     width="19.479618"
     height="0.5526129"
     style="fill:#00d2e8;fill-opacity:1;stroke:#00d2e8;stroke-width:0.29703823"
     id="rect10" />
  <rect
     x="41.151974"
     y="19.457886"
     width="19.479618"
     height="0.66313487"
     style="fill:#00d2e8;fill-opacity:1;stroke:#00d2e8;stroke-width:0.29703823"
     id="rect12" />
  <rect
     x="41.174843"
     y="5.4813843"
     width="19.484165"
     height="0.5526129"
     style="fill:#e1fcff;fill-opacity:1;stroke:#b9b9b9;stroke-width:0.29703823"
     id="rect14" />
  <rect
     x="41.497131"
     y="5.5734863"
     width="1.5217447"
     height="0.37117305"
     style="fill:#464646;fill-opacity:1;stroke:#e1fcff;stroke-width:0.29703823"
     id="rect16" />
  <rect
     x="43.523525"
     y="5.5734863"
     width="1.5217447"
     height="0.37117305"
     style="fill:#464646;fill-opacity:1;stroke:#e1fcff;stroke-width:0.29703823"
     id="rect18" />
  <rect
     x="45.733788"
     y="5.5734863"
     width="1.5217447"
     height="0.37117305"
     style="fill:#464646;fill-opacity:1;stroke:#e1fcff;stroke-width:0.29703823"
     id="rect20" />
  <rect
     x="48.12851"
     y="5.5734863"
     width="1.5217447"
     height="0.37117305"
     style="fill:#464646;fill-opacity:1;stroke:#e1fcff;stroke-width:0.29703823"
     id="rect22" />
  <rect
     x="41.17247"
     y="6.0339966"
     width="5.298182"
     height="13.361731"
     style="fill:#f2f5f5;fill-opacity:1;stroke:#9b9b9b;stroke-width:0.29703823"
     id="rect24" />
  <rect
     x="48.588921"
     y="12.327667"
     width="10.315454"
     height="1.4736334"
     style="fill:#ffffff;fill-opacity:1;stroke:#9b9b9b;stroke-width:0.29703823"
     id="rect26" />
  <rect
     x="48.588921"
     y="14.660904"
     width="10.315454"
     height="1.4736334"
     style="fill:#ffffff;fill-opacity:1;stroke:#9b9b9b;stroke-width:0.29703823"
     id="rect28" />
  <rect
     x="48.588921"
     y="16.994171"
     width="10.315454"
     height="1.4736334"
     style="fill:#ffffff;fill-opacity:1;stroke:#9b9b9b;stroke-width:0.29703823"
     id="rect30" />
  <rect
     x="42.049919"
     y="7.3234406"
     width="3.6840763"
     height="0.37117305"
     style="fill:#464646;fill-opacity:1;stroke:#e1fcff;stroke-width:0.29703823"
     id="rect32" />
  <rect
     x="42.049919"
     y="8.2444305"
     width="3.6840763"
     height="0.37117305"
     style="fill:#464646;fill-opacity:1;stroke:#e1fcff;stroke-width:0.29703823"
     id="rect34" />
  <rect
     x="42.049919"
     y="9.165451"
     width="3.6840763"
     height="0.37117305"
     style="fill:#464646;fill-opacity:1;stroke:#e1fcff;stroke-width:0.29703823"
     id="rect36" />
  <rect
     x="42.049919"
     y="10.086487"
     width="3.6840763"
     height="0.37117305"
     style="fill:#464646;fill-opacity:1;stroke:#e1fcff;stroke-width:0.29703823"
     id="rect38" />
  <rect
     x="42.049919"
     y="11.007507"
     width="3.6840763"
     height="0.37117305"
     style="fill:#464646;fill-opacity:1;stroke:#e1fcff;stroke-width:0.29703823"
     id="rect40" />
  <rect
     x="42.049919"
     y="11.928543"
     width="3.6840763"
     height="0.37117305"
     style="fill:#464646;fill-opacity:1;stroke:#e1fcff;stroke-width:0.29703823"
     id="rect42" />
  <rect
     x="48.588921"
     y="7.0471039"
     width="10.315454"
     height="4.4209089"
     style="fill:#ffffff;fill-opacity:1;stroke:#9b9b9b;stroke-width:0.29703823"
     id="rect44" />
  <ellipse
     cx="170.83"
     cy="179.38"
     rx="30.8339"
     ry="7.75103"
     style="fill:#ffcf9f;fill-opacity:1;stroke:#696969;stroke-width:1"
     id="ellipse46"
     sodipodi:cx="170.83"
     sodipodi:cy="179.38"
     sodipodi:rx="30.8339"
     sodipodi:ry="7.75103"
     transform="matrix(0.29703823,0,0,0.29703823,0.14851912,0.14850706)" />
  <rect
     x="41.732685"
     y="37.152924"
     width="18.317694"
     height="16.116373"
     style="fill:#ffcf9f;fill-opacity:1;stroke:#ffcf9f;stroke-width:0.29703823"
     id="rect48" />
  <polygon
     points="201.664,125.547 201.644,177.911 201.615,178.772 201.528,179.432 201.28,179.854 200.919,180.408 200.339,181.011 199.647,181.512 198.744,182.044 197.687,182.562 195.4,183.411 192.944,184.14 191.089,184.57 189.319,184.943 189.263,130.625 201.664,125.547 "
     style="fill:#e7a98b;fill-opacity:1;stroke:#e7a98b;stroke-width:1"
     id="polygon50"
     transform="matrix(0.29703823,0,0,0.29703823,0.14851912,0.14850706)" />
  <polygon
     points="189.324,184.931 188.285,185.174 186.196,185.485 185.388,185.624 184.478,185.727 183.533,185.832 182.659,185.936 181.591,186.04 180.419,186.126 179.002,186.264 177.603,186.334 177.364,132.119 177.364,132.119 189.113,130.79 "
     style="fill:#f4b392;fill-opacity:1;stroke:#f4b392;stroke-width:1"
     id="polygon52"
     transform="matrix(0.29703823,0,0,0.29703823,0.14851912,0.14850706)" />
  <polygon
     points="140.039,124.907 151.593,129.783 151.236,184.739 149.851,184.38 148.533,184.054 147.181,183.663 146.127,183.336 144.907,182.879 143.886,182.488 142.897,181.966 141.611,181.183 140.853,180.4 140.458,179.878 140.194,179.422 140.062,178.867 140.039,124.907 "
     style="fill:#f4b392;fill-opacity:1;stroke:#f4b392;stroke-width:1"
     id="polygon54"
     transform="matrix(0.29703823,0,0,0.29703823,0.14851912,0.14850706)" />
  <polygon
     points="158.827,185.777 156.465,185.518 154.472,185.154 152.425,184.791 151.166,184.271 151.795,130.309 151.795,130.309 166.837,131.836 166.932,186.23 163.917,186.141 161.345,185.933 "
     style="fill:#fad1ad;fill-opacity:1;stroke:#fad1ad;stroke-width:1"
     id="polygon56"
     transform="matrix(0.29703823,0,0,0.29703823,0.14851912,0.14850706)" />
  <ellipse
     cx="170.83"
     cy="124.578"
     rx="30.8339"
     ry="7.75103"
     style="fill:#ffcf9f;fill-opacity:1;stroke:#696969;stroke-width:1"
     id="ellipse58"
     sodipodi:cx="170.83"
     sodipodi:cy="124.578"
     sodipodi:rx="30.8339"
     sodipodi:ry="7.75103"
     transform="matrix(0.29703823,0,0,0.29703823,0.14851912,0.14850706)" />
  <rect
     x="1.8957871"
     y="0.14851379"
     width="15.373659"
     height="23.804436"
     style="fill:#9b9b9b;fill-opacity:1;stroke:#000000;stroke-width:0.29703823"
     id="rect60" />
  <rect
     x="3.5698946"
     y="17.648041"
     width="0.44803166"
     height="5.3266082"
     style="fill:#696969;fill-opacity:1;stroke:#000000;stroke-width:0.29703823"
     id="rect62" />
  <rect
     x="6.4715128"
     y="17.648041"
     width="0.44803166"
     height="5.3266082"
     style="fill:#696969;fill-opacity:1;stroke:#000000;stroke-width:0.29703823"
     id="rect64" />
  <rect
     x="7.4386096"
     y="17.648041"
     width="0.44803166"
     height="5.3266082"
     style="fill:#696969;fill-opacity:1;stroke:#000000;stroke-width:0.29703823"
     id="rect66" />
  <rect
     x="10.340169"
     y="17.648041"
     width="0.44803166"
     height="5.3266082"
     style="fill:#696969;fill-opacity:1;stroke:#000000;stroke-width:0.29703823"
     id="rect68" />
  <rect
     x="11.307384"
     y="17.648041"
     width="0.44803166"
     height="5.3266082"
     style="fill:#696969;fill-opacity:1;stroke:#000000;stroke-width:0.29703823"
     id="rect70" />
  <rect
     x="12.27463"
     y="17.648041"
     width="0.44803166"
     height="5.3266082"
     style="fill:#696969;fill-opacity:1;stroke:#000000;stroke-width:0.29703823"
     id="rect72" />
  <rect
     x="13.241727"
     y="17.648041"
     width="0.44803166"
     height="5.3266082"
     style="fill:#696969;fill-opacity:1;stroke:#000000;stroke-width:0.29703823"
     id="rect74" />
  <rect
     x="4.5370808"
     y="17.648041"
     width="0.44803166"
     height="5.3266082"
     style="fill:#696969;fill-opacity:1;stroke:#000000;stroke-width:0.29703823"
     id="rect76" />
  <rect
     x="5.5042672"
     y="17.648041"
     width="0.44803166"
     height="5.3266082"
     style="fill:#696969;fill-opacity:1;stroke:#000000;stroke-width:0.29703823"
     id="rect78" />
  <rect
     x="8.4058256"
     y="17.648041"
     width="0.44803166"
     height="5.3266082"
     style="fill:#696969;fill-opacity:1;stroke:#000000;stroke-width:0.29703823"
     id="rect80" />
  <rect
     x="9.3730707"
     y="17.648041"
     width="0.44803166"
     height="5.3266082"
     style="fill:#696969;fill-opacity:1;stroke:#000000;stroke-width:0.29703823"
     id="rect82" />
  <rect
     x="3.5657063"
     y="2.4979248"
     width="2.2401614"
     height="13.490705"
     style="fill:#dcdcdc;fill-opacity:1;stroke:#000000;stroke-width:0.29703823"
     id="rect84" />
  <ellipse
     cx="13.5991"
     cy="50.980801"
     rx="0.75416601"
     ry="0.83795899"
     style="fill:#00dc00;fill-opacity:1;stroke:#000000;stroke-width:1"
     id="ellipse86"
     sodipodi:cx="13.5991"
     sodipodi:cy="50.980801"
     sodipodi:rx="0.75416601"
     sodipodi:ry="0.83795899"
     transform="matrix(0.29703823,0,0,0.29703823,0.14851912,0.14850706)" />
  <rect
     x="3.8146245"
     y="3.0454865"
     width="1.6925625"
     height="0.24890585"
     style="fill:#b9b9b9;fill-opacity:1;stroke:#000000;stroke-width:0.29703823"
     id="rect88" />
  <rect
     x="3.8146245"
     y="3.8254242"
     width="1.6925625"
     height="0.24890585"
     style="fill:#b9b9b9;fill-opacity:1;stroke:#000000;stroke-width:0.29703823"
     id="rect90" />
  <rect
     x="3.8146245"
     y="4.6053314"
     width="1.6925625"
     height="0.24890585"
     style="fill:#b9b9b9;fill-opacity:1;stroke:#000000;stroke-width:0.29703823"
     id="rect92" />
  <rect
     x="3.8146245"
     y="5.3852386"
     width="1.6925625"
     height="0.24890585"
     style="fill:#b9b9b9;fill-opacity:1;stroke:#000000;stroke-width:0.29703823"
     id="rect94" />
  <rect
     x="3.8146245"
     y="6.1651306"
     width="1.6925625"
     height="0.24890585"
     style="fill:#b9b9b9;fill-opacity:1;stroke:#000000;stroke-width:0.29703823"
     id="rect96" />
  <rect
     x="3.8146245"
     y="6.9450378"
     width="1.6925625"
     height="0.24890585"
     style="fill:#b9b9b9;fill-opacity:1;stroke:#000000;stroke-width:0.29703823"
     id="rect98" />
  <rect
     x="3.8146245"
     y="7.7249451"
     width="1.6925625"
     height="0.24890585"
     style="fill:#b9b9b9;fill-opacity:1;stroke:#000000;stroke-width:0.29703823"
     id="rect100" />
  <rect
     x="3.864408"
     y="12.95192"
     width="1.5929952"
     height="1.6925625"
     style="fill:#9b9b9b;fill-opacity:1;stroke:#000000;stroke-width:0.29703823"
     id="rect102" />
  <rect
     x="3.9141619"
     y="8.3223114"
     width="1.5432177"
     height="4.330966"
     style="fill:#dcdcdc;fill-opacity:1;stroke:#000000;stroke-width:0.29703823"
     id="rect104" />
  <rect
     x="8.4733124"
     y="2.4979248"
     width="2.2401614"
     height="13.490705"
     style="fill:#dcdcdc;fill-opacity:1;stroke:#000000;stroke-width:0.29703823"
     id="rect106" />
  <ellipse
     cx="30.121"
     cy="50.980801"
     rx="0.75416601"
     ry="0.83795899"
     style="fill:#00dc00;fill-opacity:1;stroke:#000000;stroke-width:1"
     id="ellipse108"
     sodipodi:cx="30.121"
     sodipodi:cy="50.980801"
     sodipodi:rx="0.75416601"
     sodipodi:ry="0.83795899"
     transform="matrix(0.29703823,0,0,0.29703823,0.14851912,0.14850706)" />
  <rect
     x="8.7222004"
     y="3.0454865"
     width="1.6925625"
     height="0.24890585"
     style="fill:#b9b9b9;fill-opacity:1;stroke:#000000;stroke-width:0.29703823"
     id="rect110" />
  <rect
     x="8.7222004"
     y="3.8254242"
     width="1.6925625"
     height="0.24890585"
     style="fill:#b9b9b9;fill-opacity:1;stroke:#000000;stroke-width:0.29703823"
     id="rect112" />
  <rect
     x="8.7222004"
     y="4.6053314"
     width="1.6925625"
     height="0.24890585"
     style="fill:#b9b9b9;fill-opacity:1;stroke:#000000;stroke-width:0.29703823"
     id="rect114" />
  <rect
     x="8.7222004"
     y="5.3852386"
     width="1.6925625"
     height="0.24890585"
     style="fill:#b9b9b9;fill-opacity:1;stroke:#000000;stroke-width:0.29703823"
     id="rect116" />
  <rect
     x="8.7222004"
     y="6.1651306"
     width="1.6925625"
     height="0.24890585"
     style="fill:#b9b9b9;fill-opacity:1;stroke:#000000;stroke-width:0.29703823"
     id="rect118" />
  <rect
     x="8.7222004"
     y="6.9450378"
     width="1.6925625"
     height="0.24890585"
     style="fill:#b9b9b9;fill-opacity:1;stroke:#000000;stroke-width:0.29703823"
     id="rect120" />
  <rect
     x="8.7222004"
     y="7.7249451"
     width="1.6925625"
     height="0.24890585"
     style="fill:#b9b9b9;fill-opacity:1;stroke:#000000;stroke-width:0.29703823"
     id="rect122" />
  <rect
     x="8.7720146"
     y="12.95192"
     width="1.5929952"
     height="1.6925625"
     style="fill:#9b9b9b;fill-opacity:1;stroke:#000000;stroke-width:0.29703823"
     id="rect124" />
  <rect
     x="8.8218279"
     y="8.3223114"
     width="1.5432177"
     height="4.330966"
     style="fill:#dcdcdc;fill-opacity:1;stroke:#000000;stroke-width:0.29703823"
     id="rect126" />
  <rect
     x="10.927205"
     y="2.4979248"
     width="2.2401614"
     height="13.490705"
     style="fill:#dcdcdc;fill-opacity:1;stroke:#000000;stroke-width:0.29703823"
     id="rect128" />
  <ellipse
     cx="38.382099"
     cy="50.980801"
     rx="0.75416601"
     ry="0.83795899"
     style="fill:#00dc00;fill-opacity:1;stroke:#000000;stroke-width:1"
     id="ellipse130"
     sodipodi:cx="38.382099"
     sodipodi:cy="50.980801"
     sodipodi:rx="0.75416601"
     sodipodi:ry="0.83795899"
     transform="matrix(0.29703823,0,0,0.29703823,0.14851912,0.14850706)" />
  <rect
     x="11.176064"
     y="3.0454865"
     width="1.6925625"
     height="0.24890585"
     style="fill:#b9b9b9;fill-opacity:1;stroke:#000000;stroke-width:0.29703823"
     id="rect132" />
  <rect
     x="11.176064"
     y="3.8254242"
     width="1.6925625"
     height="0.24890585"
     style="fill:#b9b9b9;fill-opacity:1;stroke:#000000;stroke-width:0.29703823"
     id="rect134" />
  <rect
     x="11.176064"
     y="4.6053314"
     width="1.6925625"
     height="0.24890585"
     style="fill:#b9b9b9;fill-opacity:1;stroke:#000000;stroke-width:0.29703823"
     id="rect136" />
  <rect
     x="11.176064"
     y="5.3852386"
     width="1.6925625"
     height="0.24890585"
     style="fill:#b9b9b9;fill-opacity:1;stroke:#000000;stroke-width:0.29703823"
     id="rect138" />
  <rect
     x="11.176064"
     y="6.1651306"
     width="1.6925625"
     height="0.24890585"
     style="fill:#b9b9b9;fill-opacity:1;stroke:#000000;stroke-width:0.29703823"
     id="rect140" />
  <rect
     x="11.176064"
     y="6.9450378"
     width="1.6925625"
     height="0.24890585"
     style="fill:#b9b9b9;fill-opacity:1;stroke:#000000;stroke-width:0.29703823"
     id="rect142" />
  <rect
     x="11.176064"
     y="7.7249451"
     width="1.6925625"
     height="0.24890585"
     style="fill:#b9b9b9;fill-opacity:1;stroke:#000000;stroke-width:0.29703823"
     id="rect144" />
  <rect
     x="11.225878"
     y="12.95192"
     width="1.5929952"
     height="1.6925625"
     style="fill:#9b9b9b;fill-opacity:1;stroke:#000000;stroke-width:0.29703823"
     id="rect146" />
  <rect
     x="11.27569"
     y="8.3223114"
     width="1.5432177"
     height="4.330966"
     style="fill:#dcdcdc;fill-opacity:1;stroke:#000000;stroke-width:0.29703823"
     id="rect148" />
  <rect
     x="6.0195098"
     y="2.4979248"
     width="2.2401614"
     height="13.490705"
     style="fill:#dcdcdc;fill-opacity:1;stroke:#000000;stroke-width:0.29703823"
     id="rect150" />
  <ellipse
     cx="21.8599"
     cy="50.980801"
     rx="0.75416601"
     ry="0.83795899"
     style="fill:#00dc00;fill-opacity:1;stroke:#000000;stroke-width:1"
     id="ellipse152"
     sodipodi:cx="21.8599"
     sodipodi:cy="50.980801"
     sodipodi:rx="0.75416601"
     sodipodi:ry="0.83795899"
     transform="matrix(0.29703823,0,0,0.29703823,0.14851912,0.14850706)" />
  <rect
     x="6.268487"
     y="3.0454865"
     width="1.6925625"
     height="0.24890585"
     style="fill:#b9b9b9;fill-opacity:1;stroke:#000000;stroke-width:0.29703823"
     id="rect154" />
  <rect
     x="6.268487"
     y="3.8254242"
     width="1.6925625"
     height="0.24890585"
     style="fill:#b9b9b9;fill-opacity:1;stroke:#000000;stroke-width:0.29703823"
     id="rect156" />
  <rect
     x="6.268487"
     y="4.6053314"
     width="1.6925625"
     height="0.24890585"
     style="fill:#b9b9b9;fill-opacity:1;stroke:#000000;stroke-width:0.29703823"
     id="rect158" />
  <rect
     x="6.268487"
     y="5.3852386"
     width="1.6925625"
     height="0.24890585"
     style="fill:#b9b9b9;fill-opacity:1;stroke:#000000;stroke-width:0.29703823"
     id="rect160" />
  <rect
     x="6.268487"
     y="6.1651306"
     width="1.6925625"
     height="0.24890585"
     style="fill:#b9b9b9;fill-opacity:1;stroke:#000000;stroke-width:0.29703823"
     id="rect162" />
  <rect
     x="6.268487"
     y="6.9450378"
     width="1.6925625"
     height="0.24890585"
     style="fill:#b9b9b9;fill-opacity:1;stroke:#000000;stroke-width:0.29703823"
     id="rect164" />
  <rect
     x="6.268487"
     y="7.7249451"
     width="1.6925625"
     height="0.24890585"
     style="fill:#b9b9b9;fill-opacity:1;stroke:#000000;stroke-width:0.29703823"
     id="rect166" />
  <rect
     x="6.3182707"
     y="12.95192"
     width="1.5929952"
     height="1.6925625"
     style="fill:#9b9b9b;fill-opacity:1;stroke:#000000;stroke-width:0.29703823"
     id="rect168" />
  <rect
     x="6.3679357"
     y="8.3223114"
     width="1.5432177"
     height="4.330966"
     style="fill:#dcdcdc;fill-opacity:1;stroke:#000000;stroke-width:0.29703823"
     id="rect170" />
  <rect
     x="13.380919"
     y="2.4979248"
     width="2.2401614"
     height="13.490705"
     style="fill:#dcdcdc;fill-opacity:1;stroke:#000000;stroke-width:0.29703823"
     id="rect172" />
  <ellipse
     cx="46.642799"
     cy="50.980801"
     rx="0.75416601"
     ry="0.83795899"
     style="fill:#00dc00;fill-opacity:1;stroke:#000000;stroke-width:1"
     id="ellipse174"
     sodipodi:cx="46.642799"
     sodipodi:cy="50.980801"
     sodipodi:rx="0.75416601"
     sodipodi:ry="0.83795899"
     transform="matrix(0.29703823,0,0,0.29703823,0.14851912,0.14850706)" />
  <rect
     x="13.629955"
     y="3.0454865"
     width="1.6925625"
     height="0.24890585"
     style="fill:#b9b9b9;fill-opacity:1;stroke:#000000;stroke-width:0.29703823"
     id="rect176" />
  <rect
     x="13.629955"
     y="3.8254242"
     width="1.6925625"
     height="0.24890585"
     style="fill:#b9b9b9;fill-opacity:1;stroke:#000000;stroke-width:0.29703823"
     id="rect178" />
  <rect
     x="13.629955"
     y="4.6053314"
     width="1.6925625"
     height="0.24890585"
     style="fill:#b9b9b9;fill-opacity:1;stroke:#000000;stroke-width:0.29703823"
     id="rect180" />
  <rect
     x="13.629955"
     y="5.3852386"
     width="1.6925625"
     height="0.24890585"
     style="fill:#b9b9b9;fill-opacity:1;stroke:#000000;stroke-width:0.29703823"
     id="rect182" />
  <rect
     x="13.629955"
     y="6.1651306"
     width="1.6925625"
     height="0.24890585"
     style="fill:#b9b9b9;fill-opacity:1;stroke:#000000;stroke-width:0.29703823"
     id="rect184" />
  <rect
     x="13.629955"
     y="6.9450378"
     width="1.6925625"
     height="0.24890585"
     style="fill:#b9b9b9;fill-opacity:1;stroke:#000000;stroke-width:0.29703823"
     id="rect186" />
  <rect
     x="13.629955"
     y="7.7249451"
     width="1.6925625"
     height="0.24890585"
     style="fill:#b9b9b9;fill-opacity:1;stroke:#000000;stroke-width:0.29703823"
     id="rect188" />
  <rect
     x="13.67962"
     y="12.95192"
     width="1.5929952"
     height="1.6925625"
     style="fill:#9b9b9b;fill-opacity:1;stroke:#000000;stroke-width:0.29703823"
     id="rect190" />
  <rect
     x="13.729404"
     y="8.3223114"
     width="1.5432177"
     height="4.330966"
     style="fill:#dcdcdc;fill-opacity:1;stroke:#000000;stroke-width:0.29703823"
     id="rect192" />
  <rect
     x="14.208942"
     y="17.648041"
     width="0.44803166"
     height="5.3266082"
     style="fill:#696969;fill-opacity:1;stroke:#000000;stroke-width:0.29703823"
     id="rect194" />
  <rect
     x="15.176188"
     y="17.648041"
     width="0.44803166"
     height="5.3266082"
     style="fill:#696969;fill-opacity:1;stroke:#000000;stroke-width:0.29703823"
     id="rect196" />
  <rect
     x="3.172606"
     y="38.005432"
     width="16.092609"
     height="15.802672"
     style="fill:#ffffdc;fill-opacity:1;stroke:#878787;stroke-width:0.29703823"
     id="rect198" />
  <polyline
     points="24.5622 130.468 24.5622 171.749"
     style="stroke:#000000;stroke-width:1"
     id="polyline200"
     transform="matrix(0.29703823,0,0,0.29703823,0.14851912,0.14850706)" />
  <path
     d="m 9.6865653,48.768017 c 0.7567047,-0.69269 1.5340537,-0.581 1.8097947,-0.50734 0.453072,0.12119 0.941938,0.38407 1.2516,0.9734 0,0 0,0 0,0"
     style="stroke:#000000;stroke-width:0.29703823;stroke-dasharray:0.59407646, 0.59407646"
     id="path202" />
  <polyline
     points="28.2291 164.293 24.503 164.293"
     style="stroke:#000000;stroke-width:1"
     id="polyline204"
     transform="matrix(0.29703823,0,0,0.29703823,0.14851912,0.14850706)" />
  <ellipse
     cx="24.562201"
     cy="164.23199"
     rx="0.68723798"
     ry="0.624762"
     style="fill:#000000;fill-opacity:1;stroke:#000000;stroke-width:1"
     id="ellipse206"
     sodipodi:cx="24.562201"
     sodipodi:cy="164.23199"
     sodipodi:rx="0.68723798"
     sodipodi:ry="0.624762"
     transform="matrix(0.29703823,0,0,0.29703823,0.14851912,0.14850706)" />
  <rect
     x="8.4264402"
     y="48.411865"
     width="1.5228971"
     height="1.0986286"
     style="fill:#dcdcdc;fill-opacity:1;stroke:#000000;stroke-width:0.29703823"
     id="rect208" />
  <path
     d="m 12.290759,50.519957 c -0.13438,-0.21358 0.05029,-0.56557 0.326296,-0.5519 0.186065,0.01 -1.131002,-0.0725 -0.738199,-0.49754 0.321069,-0.34724 1.234639,-0.41407 1.440398,-0.18298 0.0374,0.0422 -0.105835,-0.0719 -0.07488,-0.13426 0.118459,-0.23852 0.735259,-0.41763 0.975563,-0.42506 0.300425,-0.009 1.010435,0.0766 1.075189,0.27654 0.01631,0.0505 0.0374,0.008 -0.02109,0.10545 -0.05988,0.0995 0.26377,-0.19842 0.87053,0.12743 0.283226,0.15179 0.11329,0.46516 -0.05653,0.53051 -0.221798,0.0849 -0.312157,0.0493 -0.129508,0.0558 0.591403,0.0208 0.412615,0.6422 -0.61487,0.60953 -0.429487,-0.0137 -0.368416,-0.3211 -0.380298,-0.11644 -0.0081,0.13961 -1.129814,0.29169 -1.07611,0.0654 0.03205,-0.13486 0.06475,0.14406 -0.380209,0.32585 -0.183926,0.0748 -1.035683,-0.01 -1.165073,-0.15832 z"
     style="fill:#95f5ff;fill-opacity:1;stroke:#000000;stroke-width:0.29703823"
     id="path210" />
  <ellipse
     cx="55.094299"
     cy="142.69901"
     rx="0.68723798"
     ry="0.624762"
     style="fill:#000000;fill-opacity:1;stroke:#000000;stroke-width:1"
     id="ellipse212"
     sodipodi:cx="55.094299"
     sodipodi:cy="142.69901"
     sodipodi:rx="0.68723798"
     sodipodi:ry="0.624762"
     transform="matrix(0.29703823,0,0,0.29703823,0.14851912,0.14850706)" />
  <polyline
     points="54.3904 142.699 50.6643 142.699"
     style="stroke:#000000;stroke-width:1"
     id="polyline214"
     transform="matrix(0.29703823,0,0,0.29703823,0.14851912,0.14850706)" />
  <rect
     x="14.025967"
     y="42.174072"
     width="1.3155378"
     height="0.7230742"
     style="fill:#696969;fill-opacity:1;stroke:#000000;stroke-width:0.29703823"
     id="rect216" />
  <ellipse
     cx="55.094299"
     cy="148.409"
     rx="0.68723798"
     ry="0.624762"
     style="fill:#000000;fill-opacity:1;stroke:#000000;stroke-width:1"
     id="ellipse218"
     sodipodi:cx="55.094299"
     sodipodi:cy="148.409"
     sodipodi:rx="0.68723798"
     sodipodi:ry="0.624762"
     transform="matrix(0.29703823,0,0,0.29703823,0.14851912,0.14850706)" />
  <polyline
     points="54.8431 148.409 51.1174 148.409"
     style="stroke:#000000;stroke-width:1"
     id="polyline220"
     transform="matrix(0.29703823,0,0,0.29703823,0.14851912,0.14850706)" />
  <rect
     x="14.025967"
     y="43.870148"
     width="1.3155378"
     height="0.7230742"
     style="fill:#696969;fill-opacity:1;stroke:#000000;stroke-width:0.29703823"
     id="rect222" />
  <ellipse
     cx="55.094299"
     cy="154.752"
     rx="0.68723798"
     ry="0.624762"
     style="fill:#000000;fill-opacity:1;stroke:#000000;stroke-width:1"
     id="ellipse224"
     sodipodi:cx="55.094299"
     sodipodi:cy="154.752"
     sodipodi:rx="0.68723798"
     sodipodi:ry="0.624762"
     transform="matrix(0.29703823,0,0,0.29703823,0.14851912,0.14850706)" />
  <polyline
     points="54.6069 154.752 50.8808 154.752"
     style="stroke:#000000;stroke-width:1"
     id="polyline226"
     transform="matrix(0.29703823,0,0,0.29703823,0.14851912,0.14850706)" />
  <rect
     x="13.818545"
     y="45.566528"
     width="1.5228971"
     height="1.0986286"
     style="fill:#dcdcdc;fill-opacity:1;stroke:#000000;stroke-width:0.29703823"
     id="rect228" />
  <polyline
     points="55.0205 138.323 55.0992 159.08"
     style="stroke:#000000;stroke-width:1"
     id="polyline230"
     transform="matrix(0.29703823,0,0,0.29703823,0.14851912,0.14850706)" />
  <path
     d="m 13.817327,46.158837 c -0.17644,0 -0.252631,0 -0.304761,0 -0.05875,0 -0.223076,0.0288 -0.283107,0.0597 -0.121756,0.063 -0.275948,0.19664 -0.349822,0.29199 -0.04227,0.0547 -0.18152,0.25694 -0.205016,0.3217 -0.05727,0.15772 -0.09568,0.42209 -0.111983,0.58665 -0.01069,0.10752 0.0095,0.4111 0.03565,0.52189 0.0087,0.0371 0.0701,0.17733 0.08703,0.20912 0.04072,0.076 0.09615,0.19456 0.144063,0.26674 0.06354,0.0956 0.255839,0.30506 0.331554,0.39149 0.04007,0.0457 0.144866,0.14496 0.18761,0.18744 0.03196,0.0321 0.0911,0.1203 0.140647,0.14079 0,0 0,0 0,0"
     style="stroke:#000000;stroke-width:0.29703823;stroke-dasharray:0.59407646, 0.59407646"
     id="path232" />
  <polyline
     points="28.2291 158.571 24.503 158.571"
     style="stroke:#000000;stroke-width:1"
     id="polyline234"
     transform="matrix(0.29703823,0,0,0.29703823,0.14851912,0.14850706)" />
  <ellipse
     cx="24.562201"
     cy="158.50999"
     rx="0.68723798"
     ry="0.624762"
     style="fill:#000000;fill-opacity:1;stroke:#000000;stroke-width:1"
     id="ellipse236"
     sodipodi:cx="24.562201"
     sodipodi:cy="158.50999"
     sodipodi:rx="0.68723798"
     sodipodi:ry="0.624762"
     transform="matrix(0.29703823,0,0,0.29703823,0.14851912,0.14850706)" />
  <rect
     x="8.4264402"
     y="46.888672"
     width="1.3155378"
     height="0.7230742"
     style="fill:#696969;fill-opacity:1;stroke:#000000;stroke-width:0.29703823"
     id="rect238" />
  <polyline
     points="28.2291 152.849 24.503 152.849"
     style="stroke:#000000;stroke-width:1"
     id="polyline240"
     transform="matrix(0.29703823,0,0,0.29703823,0.14851912,0.14850706)" />
  <ellipse
     cx="24.562201"
     cy="152.789"
     rx="0.68723798"
     ry="0.624762"
     style="fill:#000000;fill-opacity:1;stroke:#000000;stroke-width:1"
     id="ellipse242"
     sodipodi:cx="24.562201"
     sodipodi:cy="152.789"
     sodipodi:rx="0.68723798"
     sodipodi:ry="0.624762"
     transform="matrix(0.29703823,0,0,0.29703823,0.14851912,0.14850706)" />
  <rect
     x="8.4264402"
     y="45.188995"
     width="1.3155378"
     height="0.7230742"
     style="fill:#696969;fill-opacity:1;stroke:#000000;stroke-width:0.29703823"
     id="rect244" />
  <polyline
     points="28.2291 147.128 24.503 147.128"
     style="stroke:#000000;stroke-width:1"
     id="polyline246"
     transform="matrix(0.29703823,0,0,0.29703823,0.14851912,0.14850706)" />
  <ellipse
     cx="24.562201"
     cy="147.067"
     rx="0.68723798"
     ry="0.624762"
     style="fill:#000000;fill-opacity:1;stroke:#000000;stroke-width:1"
     id="ellipse248"
     sodipodi:cx="24.562201"
     sodipodi:cy="147.067"
     sodipodi:rx="0.68723798"
     sodipodi:ry="0.624762"
     transform="matrix(0.29703823,0,0,0.29703823,0.14851912,0.14850706)" />
  <rect
     x="8.4264402"
     y="43.489349"
     width="1.3155378"
     height="0.7230742"
     style="fill:#696969;fill-opacity:1;stroke:#000000;stroke-width:0.29703823"
     id="rect250" />
  <polyline
     points="28.2291 141.406 24.503 141.406"
     style="stroke:#000000;stroke-width:1"
     id="polyline252"
     transform="matrix(0.29703823,0,0,0.29703823,0.14851912,0.14850706)" />
  <ellipse
     cx="24.562201"
     cy="141.345"
     rx="0.68723798"
     ry="0.624762"
     style="fill:#000000;fill-opacity:1;stroke:#000000;stroke-width:1"
     id="ellipse254"
     sodipodi:cx="24.562201"
     sodipodi:cy="141.345"
     sodipodi:rx="0.68723798"
     sodipodi:ry="0.624762"
     transform="matrix(0.29703823,0,0,0.29703823,0.14851912,0.14850706)" />
  <rect
     x="8.4264402"
     y="41.790009"
     width="1.3155378"
     height="0.7230742"
     style="fill:#696969;fill-opacity:1;stroke:#000000;stroke-width:0.29703823"
     id="rect256" />
  <polyline
     points="14.852 135.05 24.6 135.091"
     style="stroke:#000000;stroke-width:1"
     id="polyline258"
     transform="matrix(0.29703823,0,0,0.29703823,0.14851912,0.14850706)" />
  <ellipse
     cx="24.521299"
     cy="134.981"
     rx="1.36068"
     ry="1.23698"
     style="fill:#000000;fill-opacity:1;stroke:#000000;stroke-width:1"
     id="ellipse260"
     sodipodi:cx="24.521299"
     sodipodi:cy="134.981"
     sodipodi:rx="1.36068"
     sodipodi:ry="1.23698"
     transform="matrix(0.29703823,0,0,0.29703823,0.14851912,0.14850706)" />
  <rect
     x="0.14851911"
     y="38.904266"
     width="5.4177399"
     height="2.7912712"
     style="fill:#a50000;fill-opacity:1;stroke:#000000;stroke-width:0.29703823"
     id="rect262" />
  <polyline
     points="65.1856 43.3337 127.268 43.3337"
     style="stroke:#a50000;stroke-width:1"
     class="TAG:BOTH_ARROW"
     id="polyline264"
     transform="matrix(0.29703823,0,0,0.29703823,0.14851912,0.14850706)" />
  <polyline
     points="70.8732 149.91 132.956 149.91"
     style="stroke:#a50000;stroke-width:1"
     class="TAG:BOTH_ARROW"
     id="polyline266"
     transform="matrix(0.29703823,0,0,0.29703823,0.14851912,0.14850706)" />
  <polyline
     points="31.1739 84.1725 31.1739 122.172"
     style="stroke:#a50000;stroke-width:1"
     class="TAG:BOTH_ARROW"
     id="polyline268"
     transform="matrix(0.29703823,0,0,0.29703823,0.14851912,0.14850706)" />
  <polyline
     points="173.348 72.1946 173.348 110.194"
     style="stroke:#a50000;stroke-width:1"
     class="TAG:BOTH_ARROW"
     id="polyline270"
     transform="matrix(0.29703823,0,0,0.29703823,0.14851912,0.14850706)" />
  <polyline
     points="67.1518 122.529 132.36 72.706"
     style="stroke:#a50000;stroke-width:1"
     class="TAG:BOTH_ARROW"
     id="polyline272"
     transform="matrix(0.29703823,0,0,0.29703823,0.14851912,0.14850706)" />
  <polyline
     points="134.558 116.667 64.9538 71.9733"
     style="stroke:#a50000;stroke-width:1"
     class="TAG:BOTH_ARROW"
     id="polyline274"
     transform="matrix(0.29703823,0,0,0.29703823,0.14851912,0.14850706)" />
  <polygon
     points="128,336.157 128,128 336,128 336,336.157 336,336.157 "
     style="fill:#ffffff;fill-opacity:0;stroke:none"
     id="polygon276"
     transform="matrix(0.29703823,0,0,0.29703823,0.14851912,0.14850706)" />
  <polygon
     points="313.262,266.923 288.885,265.259 262.884,263.595 232.007,261.931 176.753,261.931 158.877,263.595 152.377,265.259 149.126,266.923 145.876,270.251 144.251,273.579 141.001,280.235 137.751,285.228 132.875,288.556 128,291.884 128,301.868 128,301.868 134.5,303.532 154.002,308.525 186.504,313.517 210.88,315.181 238.507,315.181 266.133,315.181 287.26,313.517 303.511,311.852 316.512,308.525 331.138,303.532 334.388,301.868 334.388,291.884 329.513,288.556 323.012,285.228 318.137,278.571 "
     style="fill:#000000;fill-opacity:1;stroke:none"
     id="polygon278"
     transform="matrix(0.29703823,0,0,0.29703823,0.14851912,0.14850706)" />
  <polygon
     points="313.411,246.902 308.527,232.095 305.271,225.514 300.386,218.933 290.618,207.416 284.106,202.48 277.594,197.544 267.825,194.254 258.057,190.963 246.661,189.318 232.008,189.318 215.727,189.318 204.331,190.963 192.935,194.254 184.794,197.544 178.282,202.48 171.77,207.416 162.001,217.287 162.001,217.287 157.117,223.868 153.861,232.095 148.977,246.902 147.349,258.419 147.349,263.355 147.349,265 148.977,265 175.026,268.291 201.075,271.581 232.008,273.226 262.941,271.581 288.99,268.291 315.039,265 315.039,263.355 315.039,258.419 "
     style="fill:#000000;fill-opacity:1;stroke:none"
     id="polygon280"
     transform="matrix(0.29703823,0,0,0.29703823,0.14851912,0.14850706)" />
  <polygon
     points="306.913,232.113 311.798,245.29 313.427,256.821 313.427,263.41 285.744,266.704 259.69,269.999 232.008,269.999 202.697,269.999 178.272,266.704 148.961,263.41 148.961,256.821 152.218,245.29 155.475,230.465 158.732,223.876 163.617,218.935 163.617,218.935 173.387,209.051 179.9,204.109 186.414,199.168 194.556,195.873 204.326,192.579 217.353,190.932 232.008,190.932 246.663,190.932 258.062,192.579 267.832,195.873 275.974,199.168 282.488,204.109 289.001,209.051 298.771,220.582 303.657,225.524 "
     style="fill:#aaaaaa;fill-opacity:1;stroke:none"
     id="polygon282"
     transform="matrix(0.29703823,0,0,0.29703823,0.14851912,0.14850706)" />
  <polygon
     points="215.995,255.476 237.3,255.476 248.772,253.807 253.689,253.807 256.966,250.469 258.605,247.13 258.605,243.792 256.966,238.784 253.689,233.776 243.856,223.76 235.661,218.753 229.106,218.753 222.551,222.091 220.912,222.091 217.634,222.091 212.718,218.753 206.162,215.414 202.884,210.406 199.607,208.737 196.329,207.068 193.051,207.068 193.051,207.068 184.857,208.737 176.663,212.075 171.747,217.083 166.83,222.091 161.913,230.437 160.275,238.784 158.636,245.461 158.636,248.799 160.275,250.469 163.552,250.469 178.302,252.138 193.051,250.469 197.968,250.469 202.884,252.138 209.44,255.476 "
     style="fill:#666666;fill-opacity:1;stroke:none"
     id="polygon284"
     transform="matrix(0.29703823,0,0,0.29703823,0.14851912,0.14850706)" />
  <polygon
     points="224.744,220.178 224.744,218.464 219.697,216.75 206.237,216.75 206.237,216.75 202.872,218.464 196.142,220.178 191.094,221.893 187.729,225.322 186.047,228.751 186.047,233.894 186.047,239.038 187.729,242.467 191.094,244.181 194.459,244.181 199.507,242.467 202.872,242.467 206.237,233.894 212.967,227.036 221.379,221.893 "
     style="fill:#e5f2ff;fill-opacity:1;stroke:none"
     id="polygon286"
     transform="matrix(0.29703823,0,0,0.29703823,0.14851912,0.14850706)" />
  <polygon
     points="236.031,157.045 234.189,157.045 234.189,157.045 223.132,157.045 223.132,176.409 236.031,176.409 "
     style="fill:#000000;fill-opacity:1;stroke:none"
     id="polygon288"
     transform="matrix(0.29703823,0,0,0.29703823,0.14851912,0.14850706)" />
  <polygon
     points="234.419,174.795 224.744,174.795 224.744,158.659 234.419,158.659 234.419,158.659 "
     style="fill:#8c8c8c;fill-opacity:1;stroke:none"
     id="polygon290"
     transform="matrix(0.29703823,0,0,0.29703823,0.14851912,0.14850706)" />
  <polygon
     points="230.477,200.613 234.06,200.613 237.644,198.876 237.644,197.138 237.644,178.023 235.852,178.023 235.852,178.023 221.52,178.023 221.52,197.138 223.311,197.138 225.103,198.876 "
     style="fill:#000000;fill-opacity:1;stroke:none"
     id="polygon292"
     transform="matrix(0.29703823,0,0,0.29703823,0.14851912,0.14850706)" />
  <polygon
     points="236.031,179.636 236.031,197.239 234.15,197.239 230.388,199 226.625,197.239 224.744,197.239 224.744,179.636 236.031,179.636 "
     style="fill:#8c8c8c;fill-opacity:1;stroke:none"
     id="polygon294"
     transform="matrix(0.29703823,0,0,0.29703823,0.14851912,0.14850706)" />
  <polygon
     points="236.031,195.772 237.644,197.386 237.644,197.386 "
     style="fill:#000000;fill-opacity:1;stroke:none"
     id="polygon296"
     transform="matrix(0.29703823,0,0,0.29703823,0.14851912,0.14850706)" />
  <polygon
     points="218.295,175.118 218.295,185.768 220.031,187.543 223.504,189.318 230.45,189.318 235.659,189.318 239.132,187.543 240.868,185.768 240.868,175.118 239.132,173.343 230.45,171.568 225.241,171.568 221.768,171.568 218.295,173.343 218.295,173.343 "
     style="fill:#000000;fill-opacity:1;stroke:none"
     id="polygon298"
     transform="matrix(0.29703823,0,0,0.29703823,0.14851912,0.14850706)" />
  <polygon
     points="230.461,187.704 223.425,187.704 219.907,185.889 219.907,174.997 223.425,173.182 230.461,173.182 230.461,173.182 235.738,173.182 239.256,174.997 239.256,185.889 237.497,185.889 "
     style="fill:#aaaaaa;fill-opacity:1;stroke:none"
     id="polygon300"
     transform="matrix(0.29703823,0,0,0.29703823,0.14851912,0.14850706)" />
  <polygon
     points="220.137,164.791 218.41,162.854 216.682,160.918 218.41,160.918 220.137,158.982 228.776,157.045 237.414,158.982 240.869,160.918 240.869,160.918 240.869,162.854 237.414,164.791 228.776,166.727 "
     style="fill:#555555;fill-opacity:1;stroke:none"
     id="polygon302"
     transform="matrix(0.29703823,0,0,0.29703823,0.14851912,0.14850706)" />
  <polygon
     points="228.776,163.5 235.686,163.5 239.141,161.483 240.869,159.466 239.141,157.449 235.686,155.432 228.776,155.432 223.593,155.432 218.41,157.449 216.682,159.466 216.682,159.466 218.41,161.483 223.593,163.5 "
     style="fill:#000000;fill-opacity:1;stroke:none"
     id="polygon304"
     transform="matrix(0.29703823,0,0,0.29703823,0.14851912,0.14850706)" />
  <polygon
     points="223.425,157.045 228.702,157.045 228.702,157.045 235.738,157.045 239.256,159.466 235.738,161.886 228.702,161.886 223.425,161.886 219.907,159.466 "
     style="fill:#aaaaaa;fill-opacity:1;stroke:none"
     id="polygon306"
     transform="matrix(0.29703823,0,0,0.29703823,0.14851912,0.14850706)" />
  <polygon
     points="257.162,197.386 255.465,199.146 253.768,200.906 253.768,202.667 255.465,204.427 265.648,207.948 275.833,211.469 284.319,214.989 286.016,216.75 284.319,214.989 279.227,207.948 269.043,200.906 263.951,199.146 260.557,199.146 260.557,199.146 "
     style="fill:#e5f2ff;fill-opacity:1;stroke:none"
     id="polygon308"
     transform="matrix(0.29703823,0,0,0.29703823,0.14851912,0.14850706)" />
  <polygon
     points="140.914,267.679 149.047,269.394 168.567,274.537 197.847,277.966 214.114,279.681 232.007,279.681 267.794,277.966 295.448,272.823 313.341,269.394 321.475,267.679 321.475,265.965 323.101,262.536 323.101,259.107 321.475,257.393 318.221,253.964 316.595,252.249 316.595,252.249 310.088,255.678 290.568,260.822 264.541,265.965 248.274,267.679 232.007,267.679 215.741,267.679 199.474,265.965 171.821,260.822 152.3,255.678 145.794,252.249 144.167,253.964 140.914,257.393 139.287,259.107 139.287,262.536 140.914,265.965 "
     style="fill:#333333;fill-opacity:1;stroke:none"
     id="polygon310"
     transform="matrix(0.29703823,0,0,0.29703823,0.14851912,0.14850706)" />
  <polygon
     points="142.512,265.903 142.512,260.69 142.512,257.214 145.766,255.477 153.901,257.214 173.426,262.428 201.086,267.641 215.73,269.379 232,269.379 232,269.379 248.271,269.379 262.915,267.641 290.575,262.428 308.472,257.214 316.608,255.477 319.862,257.214 321.489,262.428 319.862,265.903 311.726,267.641 292.202,271.116 266.169,276.33 232,278.067 199.459,276.33 171.799,272.854 152.274,267.641 "
     style="fill:#cccccc;fill-opacity:1;stroke:none"
     id="polygon312"
     transform="matrix(0.29703823,0,0,0.29703823,0.14851912,0.14850706)" />
  <polygon
     points="175.566,268.155 157.308,262.623 147.349,260.778 149.009,257.09 149.009,257.09 158.968,260.778 168.927,264.467 178.886,266.311 197.144,268.155 203.783,269.999 "
     style="fill:#e5f2ff;fill-opacity:1;stroke:none"
     id="polygon314"
     transform="matrix(0.29703823,0,0,0.29703823,0.14851912,0.14850706)" />
  <polygon
     points="231.471,276.307 265.861,274.547 283.874,271.026 300.25,267.505 318.264,262.224 314.989,258.704 314.989,258.704 296.975,263.985 278.962,269.266 259.31,272.786 213.457,278.067 "
     style="fill:#999999;fill-opacity:1;stroke:none"
     id="polygon316"
     transform="matrix(0.29703823,0,0,0.29703823,0.14851912,0.14850706)" />
  <polygon
     points="170.729,297.2 152.471,293.512 142.512,289.824 144.171,286.135 144.171,286.135 154.13,289.824 164.089,293.512 174.048,295.356 192.307,297.2 198.946,299.044 "
     style="fill:#bbbbbb;fill-opacity:1;stroke:none"
     id="polygon318"
     transform="matrix(0.29703823,0,0,0.29703823,0.14851912,0.14850706)" />
  <polygon
     points="190.078,263.007 201.929,265.158 207.008,265.158 207.008,260.855 207.008,260.855 200.236,263.007 195.157,263.007 188.384,260.855 176.533,258.704 173.147,258.704 "
     style="fill:#e5f2ff;fill-opacity:1;stroke:none"
     id="polygon320"
     transform="matrix(0.29703823,0,0,0.29703823,0.14851912,0.14850706)" />
</svg>
