<?xml version="1.0" encoding="UTF-8" standalone="no"?>

<svg
 xmlns:dc="http://purl.org/dc/elements/1.1/"
   xmlns:cc="http://creativecommons.org/ns#"
   xmlns:rdf="http://www.w3.org/1999/02/22-rdf-syntax-ns#"
   xmlns:svg="http://www.w3.org/2000/svg"
   xmlns="http://www.w3.org/2000/svg"
   xmlns:sodipodi="http://sodipodi.sourceforge.net/DTD/sodipodi-0.dtd"
   xmlns:inkscape="http://www.inkscape.org/namespaces/inkscape"
   id="svg2"
   version="1.1"
   inkscape:version="0.47 r22583"
   width="100"
   height="100"
   sodipodi:docname="system_service_interface.svg">
  <metadata
     id="metadata328">
    <rdf:RDF>
      <cc:Work
         rdf:about="">
        <dc:format>image/svg+xml</dc:format>
        <dc:type
           rdf:resource="http://purl.org/dc/dcmitype/StillImage" />
      </cc:Work>
    </rdf:RDF>
  </metadata>
  <defs
     id="defs326">
    <inkscape:perspective
       sodipodi:type="inkscape:persp3d"
       inkscape:vp_x="0 : 0.5 : 1"
       inkscape:vp_y="0 : 1000 : 0"
       inkscape:vp_z="1 : 0.5 : 1"
       inkscape:persp3d-origin="0.5 : 0.33333333 : 1"
       id="perspective330" />
  </defs>
  <sodipodi:namedview
     pagecolor="#ffffff"
     bordercolor="#666666"
     borderopacity="1"
     objecttolerance="10"
     gridtolerance="10"
     guidetolerance="10"
     inkscape:pageopacity="0"
     inkscape:pageshadow="2"
     inkscape:window-width="1680"
     inkscape:window-height="994"
     id="namedview324"
     showgrid="false"
     inkscape:zoom="7.49"
     inkscape:cx="50"
     inkscape:cy="50"
     inkscape:window-x="-4"
     inkscape:window-y="-4"
     inkscape:window-maximized="1"
     inkscape:current-layer="svg2" />
  <polygon
     points="205.325,83.9518 205.093,84.3396 204.705,84.572 204.163,84.727 203.697,84.8048 137.963,84.8048 137.498,84.727 137.11,84.572 136.645,84.3396 136.335,83.9518 136.18,83.4869 136.103,82.9442 136.103,32.0931 136.18,31.473 136.335,31.0078 136.568,30.6978 136.568,30.6978 136.955,30.4653 137.42,30.3102 137.963,30.2327 203.697,30.2327 204.24,30.3102 204.705,30.4653 205.093,30.6978 205.325,31.0854 205.48,31.5505 205.558,32.0931 205.558,82.9442 205.48,83.4869 "
     style="fill:#696969;fill-opacity:1;stroke:#000000;stroke-width:1"
     id="polygon4"
     transform="matrix(0.28275985,0,0,0.28275985,0.14137992,0.42412706)" />
  <polygon
     points="203.9,82.7504 203.676,83.1203 203.304,83.3423 202.782,83.4905 202.335,83.5644 139.132,83.5644 138.684,83.4905 138.312,83.3423 137.865,83.1203 137.567,82.7504 137.417,82.3064 137.343,81.7884 137.343,33.2488 137.417,32.6569 137.567,32.2129 137.79,31.9169 137.79,31.9169 138.163,31.6949 138.61,31.547 139.132,31.473 202.335,31.473 202.856,31.547 203.304,31.6949 203.676,31.9169 203.9,32.2869 204.049,32.7308 204.124,33.2488 204.124,81.7884 204.049,82.3064 "
     style="fill:#000000;fill-opacity:1;stroke:#000000;stroke-width:1"
     id="polygon6"
     transform="matrix(0.28275985,0,0,0.28275985,0.14137992,0.42412706)" />
  <rect
     x="44.233536"
     y="10.520172"
     width="13.509586"
     height="12.750093"
     style="fill:#f2f5f5;fill-opacity:1;stroke:#9b9b9b;stroke-width:0.28275985"
     id="rect8" />
  <rect
     x="39.195602"
     y="9.4987793"
     width="18.543249"
     height="0.52604926"
     style="fill:#00d2e8;fill-opacity:1;stroke:#00d2e8;stroke-width:0.28275985"
     id="rect10" />
  <rect
     x="39.173832"
     y="23.329498"
     width="18.543249"
     height="0.63125855"
     style="fill:#00d2e8;fill-opacity:1;stroke:#00d2e8;stroke-width:0.28275985"
     id="rect12" />
  <rect
     x="39.195602"
     y="10.024811"
     width="18.547577"
     height="0.52604926"
     style="fill:#e1fcff;fill-opacity:1;stroke:#b9b9b9;stroke-width:0.28275985"
     id="rect14" />
  <rect
     x="39.502399"
     y="10.112488"
     width="1.4485958"
     height="0.35333106"
     style="fill:#464646;fill-opacity:1;stroke:#e1fcff;stroke-width:0.28275985"
     id="rect16" />
  <rect
     x="41.431385"
     y="10.112488"
     width="1.4485958"
     height="0.35333106"
     style="fill:#464646;fill-opacity:1;stroke:#e1fcff;stroke-width:0.28275985"
     id="rect18" />
  <rect
     x="43.535404"
     y="10.112488"
     width="1.4485958"
     height="0.35333106"
     style="fill:#464646;fill-opacity:1;stroke:#e1fcff;stroke-width:0.28275985"
     id="rect20" />
  <rect
     x="45.815014"
     y="10.112488"
     width="1.4485958"
     height="0.35333106"
     style="fill:#464646;fill-opacity:1;stroke:#e1fcff;stroke-width:0.28275985"
     id="rect22" />
  <rect
     x="39.193344"
     y="10.550873"
     width="5.0435028"
     height="12.719443"
     style="fill:#f2f5f5;fill-opacity:1;stroke:#9b9b9b;stroke-width:0.28275985"
     id="rect24" />
  <rect
     x="46.253292"
     y="16.541992"
     width="9.8195992"
     height="1.4027971"
     style="fill:#ffffff;fill-opacity:1;stroke:#9b9b9b;stroke-width:0.28275985"
     id="rect26" />
  <rect
     x="46.253292"
     y="18.763092"
     width="9.8195992"
     height="1.4027971"
     style="fill:#ffffff;fill-opacity:1;stroke:#9b9b9b;stroke-width:0.28275985"
     id="rect28" />
  <rect
     x="46.253292"
     y="20.984192"
     width="9.8195992"
     height="1.4027971"
     style="fill:#ffffff;fill-opacity:1;stroke:#9b9b9b;stroke-width:0.28275985"
     id="rect30" />
  <rect
     x="40.028614"
     y="11.77832"
     width="3.5069857"
     height="0.35333106"
     style="fill:#464646;fill-opacity:1;stroke:#e1fcff;stroke-width:0.28275985"
     id="rect32" />
  <rect
     x="40.028614"
     y="12.65506"
     width="3.5069857"
     height="0.35333106"
     style="fill:#464646;fill-opacity:1;stroke:#e1fcff;stroke-width:0.28275985"
     id="rect34" />
  <rect
     x="40.028614"
     y="13.531799"
     width="3.5069857"
     height="0.35333106"
     style="fill:#464646;fill-opacity:1;stroke:#e1fcff;stroke-width:0.28275985"
     id="rect36" />
  <rect
     x="40.028614"
     y="14.408539"
     width="3.5069857"
     height="0.35333106"
     style="fill:#464646;fill-opacity:1;stroke:#e1fcff;stroke-width:0.28275985"
     id="rect38" />
  <rect
     x="40.028614"
     y="15.285309"
     width="3.5069857"
     height="0.35333106"
     style="fill:#464646;fill-opacity:1;stroke:#e1fcff;stroke-width:0.28275985"
     id="rect40" />
  <rect
     x="40.028614"
     y="16.162048"
     width="3.5069857"
     height="0.35333106"
     style="fill:#464646;fill-opacity:1;stroke:#e1fcff;stroke-width:0.28275985"
     id="rect42" />
  <rect
     x="46.253292"
     y="11.515259"
     width="9.8195992"
     height="4.2083998"
     style="fill:#ffffff;fill-opacity:1;stroke:#9b9b9b;stroke-width:0.28275985"
     id="rect44" />
  <ellipse
     cx="170.83"
     cy="195.38"
     rx="30.8339"
     ry="7.75103"
     style="fill:#ffcf9f;fill-opacity:1;stroke:#696969;stroke-width:1"
     id="ellipse46"
     sodipodi:cx="170.83"
     sodipodi:cy="195.38"
     sodipodi:rx="30.8339"
     sodipodi:ry="7.75103"
     transform="matrix(0.28275985,0,0,0.28275985,0.14137992,0.42412706)" />
  <rect
     x="39.726627"
     y="40.17395"
     width="17.437178"
     height="15.341673"
     style="fill:#ffcf9f;fill-opacity:1;stroke:#ffcf9f;stroke-width:0.28275985"
     id="rect48" />
  <polygon
     points="189.319,200.943 189.263,146.625 201.664,141.547 201.664,141.547 201.644,193.911 201.615,194.772 201.528,195.432 201.28,195.854 200.919,196.408 200.339,197.011 199.647,197.512 198.744,198.044 197.687,198.562 195.4,199.411 192.944,200.14 191.089,200.57 "
     style="fill:#e7a98b;fill-opacity:1;stroke:#e7a98b;stroke-width:1"
     id="polygon50"
     transform="matrix(0.28275985,0,0,0.28275985,0.14137992,0.42412706)" />
  <polygon
     points="177.364,148.119 177.364,148.119 189.113,146.79 189.324,200.931 188.285,201.174 186.196,201.485 185.388,201.624 184.478,201.727 183.533,201.832 182.659,201.936 181.591,202.04 180.419,202.126 179.002,202.264 177.603,202.334 "
     style="fill:#f4b392;fill-opacity:1;stroke:#f4b392;stroke-width:1"
     id="polygon52"
     transform="matrix(0.28275985,0,0,0.28275985,0.14137992,0.42412706)" />
  <polygon
     points="140.194,195.422 140.062,194.867 140.039,140.907 140.039,140.907 151.593,145.783 151.236,200.739 149.851,200.38 148.533,200.054 147.181,199.663 146.127,199.336 144.907,198.879 143.886,198.488 142.897,197.966 141.611,197.183 140.853,196.4 140.458,195.878 "
     style="fill:#f4b392;fill-opacity:1;stroke:#f4b392;stroke-width:1"
     id="polygon54"
     transform="matrix(0.28275985,0,0,0.28275985,0.14137992,0.42412706)" />
  <polygon
     points="166.932,202.23 163.917,202.141 161.345,201.933 158.827,201.777 156.465,201.518 154.472,201.154 152.425,200.791 151.166,200.271 151.795,146.309 151.795,146.309 166.837,147.836 "
     style="fill:#fad1ad;fill-opacity:1;stroke:#fad1ad;stroke-width:1"
     id="polygon56"
     transform="matrix(0.28275985,0,0,0.28275985,0.14137992,0.42412706)" />
  <ellipse
     cx="170.83"
     cy="140.578"
     rx="30.8339"
     ry="7.75103"
     style="fill:#ffcf9f;fill-opacity:1;stroke:#696969;stroke-width:1"
     id="ellipse58"
     sodipodi:cx="170.83"
     sodipodi:cy="140.578"
     sodipodi:rx="30.8339"
     sodipodi:ry="7.75103"
     transform="matrix(0.28275985,0,0,0.28275985,0.14137992,0.42412706)" />
  <rect
     x="1.8046582"
     y="4.9482727"
     width="14.63466"
     height="22.660175"
     style="fill:#9b9b9b;fill-opacity:1;stroke:#000000;stroke-width:0.28275985"
     id="rect60" />
  <rect
     x="3.3982928"
     y="21.606628"
     width="0.42649516"
     height="5.0705628"
     style="fill:#696969;fill-opacity:1;stroke:#000000;stroke-width:0.28275985"
     id="rect62" />
  <rect
     x="6.1604323"
     y="21.606628"
     width="0.42649516"
     height="5.0705628"
     style="fill:#696969;fill-opacity:1;stroke:#000000;stroke-width:0.28275985"
     id="rect64" />
  <rect
     x="7.0810418"
     y="21.606628"
     width="0.42649516"
     height="5.0705628"
     style="fill:#696969;fill-opacity:1;stroke:#000000;stroke-width:0.28275985"
     id="rect66" />
  <rect
     x="9.8431253"
     y="21.606628"
     width="0.42649516"
     height="5.0705628"
     style="fill:#696969;fill-opacity:1;stroke:#000000;stroke-width:0.28275985"
     id="rect68" />
  <rect
     x="10.763847"
     y="21.606628"
     width="0.42649516"
     height="5.0705628"
     style="fill:#696969;fill-opacity:1;stroke:#000000;stroke-width:0.28275985"
     id="rect70" />
  <rect
     x="11.684598"
     y="21.606628"
     width="0.42649516"
     height="5.0705628"
     style="fill:#696969;fill-opacity:1;stroke:#000000;stroke-width:0.28275985"
     id="rect72" />
  <rect
     x="12.605208"
     y="21.606628"
     width="0.42649516"
     height="5.0705628"
     style="fill:#696969;fill-opacity:1;stroke:#000000;stroke-width:0.28275985"
     id="rect74" />
  <rect
     x="4.3189869"
     y="21.606628"
     width="0.42649516"
     height="5.0705628"
     style="fill:#696969;fill-opacity:1;stroke:#000000;stroke-width:0.28275985"
     id="rect76" />
  <rect
     x="5.2396817"
     y="21.606628"
     width="0.42649516"
     height="5.0705628"
     style="fill:#696969;fill-opacity:1;stroke:#000000;stroke-width:0.28275985"
     id="rect78" />
  <rect
     x="8.0017643"
     y="21.606628"
     width="0.42649516"
     height="5.0705628"
     style="fill:#696969;fill-opacity:1;stroke:#000000;stroke-width:0.28275985"
     id="rect80" />
  <rect
     x="8.9225149"
     y="21.606628"
     width="0.42649516"
     height="5.0705628"
     style="fill:#696969;fill-opacity:1;stroke:#000000;stroke-width:0.28275985"
     id="rect82" />
  <rect
     x="3.3943057"
     y="7.1847839"
     width="2.1324787"
     height="12.842217"
     style="fill:#dcdcdc;fill-opacity:1;stroke:#000000;stroke-width:0.28275985"
     id="rect84" />
  <ellipse
     cx="13.5991"
     cy="66.980797"
     rx="0.75416601"
     ry="0.83795899"
     style="fill:#00dc00;fill-opacity:1;stroke:#000000;stroke-width:1"
     id="ellipse86"
     sodipodi:cx="13.5991"
     sodipodi:cy="66.980797"
     sodipodi:rx="0.75416601"
     sodipodi:ry="0.83795899"
     transform="matrix(0.28275985,0,0,0.28275985,0.14137992,0.42412706)" />
  <rect
     x="3.6312587"
     y="7.7060242"
     width="1.6112024"
     height="0.23694116"
     style="fill:#b9b9b9;fill-opacity:1;stroke:#000000;stroke-width:0.28275985"
     id="rect88" />
  <rect
     x="3.6312587"
     y="8.4484558"
     width="1.6112024"
     height="0.23694116"
     style="fill:#b9b9b9;fill-opacity:1;stroke:#000000;stroke-width:0.28275985"
     id="rect90" />
  <rect
     x="3.6312587"
     y="9.1908569"
     width="1.6112024"
     height="0.23694116"
     style="fill:#b9b9b9;fill-opacity:1;stroke:#000000;stroke-width:0.28275985"
     id="rect92" />
  <rect
     x="3.6312587"
     y="9.9332886"
     width="1.6112024"
     height="0.23694116"
     style="fill:#b9b9b9;fill-opacity:1;stroke:#000000;stroke-width:0.28275985"
     id="rect94" />
  <rect
     x="3.6312587"
     y="10.67569"
     width="1.6112024"
     height="0.23694116"
     style="fill:#b9b9b9;fill-opacity:1;stroke:#000000;stroke-width:0.28275985"
     id="rect96" />
  <rect
     x="3.6312587"
     y="11.418121"
     width="1.6112024"
     height="0.23694116"
     style="fill:#b9b9b9;fill-opacity:1;stroke:#000000;stroke-width:0.28275985"
     id="rect98" />
  <rect
     x="3.6312587"
     y="12.160522"
     width="1.6112024"
     height="0.23694116"
     style="fill:#b9b9b9;fill-opacity:1;stroke:#000000;stroke-width:0.28275985"
     id="rect100" />
  <rect
     x="3.6786492"
     y="17.136261"
     width="1.5164212"
     height="1.6112024"
     style="fill:#9b9b9b;fill-opacity:1;stroke:#000000;stroke-width:0.28275985"
     id="rect102" />
  <rect
     x="3.7260115"
     y="12.729187"
     width="1.4690365"
     height="4.1227798"
     style="fill:#dcdcdc;fill-opacity:1;stroke:#000000;stroke-width:0.28275985"
     id="rect104" />
  <rect
     x="8.0660076"
     y="7.1847839"
     width="2.1324787"
     height="12.842217"
     style="fill:#dcdcdc;fill-opacity:1;stroke:#000000;stroke-width:0.28275985"
     id="rect106" />
  <ellipse
     cx="30.121"
     cy="66.980797"
     rx="0.75416601"
     ry="0.83795899"
     style="fill:#00dc00;fill-opacity:1;stroke:#000000;stroke-width:1"
     id="ellipse108"
     sodipodi:cx="30.121"
     sodipodi:cy="66.980797"
     sodipodi:rx="0.75416601"
     sodipodi:ry="0.83795899"
     transform="matrix(0.28275985,0,0,0.28275985,0.14137992,0.42412706)" />
  <rect
     x="8.3029318"
     y="7.7060242"
     width="1.6112024"
     height="0.23694116"
     style="fill:#b9b9b9;fill-opacity:1;stroke:#000000;stroke-width:0.28275985"
     id="rect110" />
  <rect
     x="8.3029318"
     y="8.4484558"
     width="1.6112024"
     height="0.23694116"
     style="fill:#b9b9b9;fill-opacity:1;stroke:#000000;stroke-width:0.28275985"
     id="rect112" />
  <rect
     x="8.3029318"
     y="9.1908569"
     width="1.6112024"
     height="0.23694116"
     style="fill:#b9b9b9;fill-opacity:1;stroke:#000000;stroke-width:0.28275985"
     id="rect114" />
  <rect
     x="8.3029318"
     y="9.9332886"
     width="1.6112024"
     height="0.23694116"
     style="fill:#b9b9b9;fill-opacity:1;stroke:#000000;stroke-width:0.28275985"
     id="rect116" />
  <rect
     x="8.3029318"
     y="10.67569"
     width="1.6112024"
     height="0.23694116"
     style="fill:#b9b9b9;fill-opacity:1;stroke:#000000;stroke-width:0.28275985"
     id="rect118" />
  <rect
     x="8.3029318"
     y="11.418121"
     width="1.6112024"
     height="0.23694116"
     style="fill:#b9b9b9;fill-opacity:1;stroke:#000000;stroke-width:0.28275985"
     id="rect120" />
  <rect
     x="8.3029318"
     y="12.160522"
     width="1.6112024"
     height="0.23694116"
     style="fill:#b9b9b9;fill-opacity:1;stroke:#000000;stroke-width:0.28275985"
     id="rect122" />
  <rect
     x="8.3503513"
     y="17.136261"
     width="1.5164212"
     height="1.6112024"
     style="fill:#9b9b9b;fill-opacity:1;stroke:#000000;stroke-width:0.28275985"
     id="rect124" />
  <rect
     x="8.3977699"
     y="12.729187"
     width="1.4690365"
     height="4.1227798"
     style="fill:#dcdcdc;fill-opacity:1;stroke:#000000;stroke-width:0.28275985"
     id="rect126" />
  <rect
     x="10.401943"
     y="7.1847839"
     width="2.1324787"
     height="12.842217"
     style="fill:#dcdcdc;fill-opacity:1;stroke:#000000;stroke-width:0.28275985"
     id="rect128" />
  <ellipse
     cx="38.382099"
     cy="66.980797"
     rx="0.75416601"
     ry="0.83795899"
     style="fill:#00dc00;fill-opacity:1;stroke:#000000;stroke-width:1"
     id="ellipse130"
     sodipodi:cx="38.382099"
     sodipodi:cy="66.980797"
     sodipodi:rx="0.75416601"
     sodipodi:ry="0.83795899"
     transform="matrix(0.28275985,0,0,0.28275985,0.14137992,0.42412706)" />
  <rect
     x="10.63884"
     y="7.7060242"
     width="1.6112024"
     height="0.23694116"
     style="fill:#b9b9b9;fill-opacity:1;stroke:#000000;stroke-width:0.28275985"
     id="rect132" />
  <rect
     x="10.63884"
     y="8.4484558"
     width="1.6112024"
     height="0.23694116"
     style="fill:#b9b9b9;fill-opacity:1;stroke:#000000;stroke-width:0.28275985"
     id="rect134" />
  <rect
     x="10.63884"
     y="9.1908569"
     width="1.6112024"
     height="0.23694116"
     style="fill:#b9b9b9;fill-opacity:1;stroke:#000000;stroke-width:0.28275985"
     id="rect136" />
  <rect
     x="10.63884"
     y="9.9332886"
     width="1.6112024"
     height="0.23694116"
     style="fill:#b9b9b9;fill-opacity:1;stroke:#000000;stroke-width:0.28275985"
     id="rect138" />
  <rect
     x="10.63884"
     y="10.67569"
     width="1.6112024"
     height="0.23694116"
     style="fill:#b9b9b9;fill-opacity:1;stroke:#000000;stroke-width:0.28275985"
     id="rect140" />
  <rect
     x="10.63884"
     y="11.418121"
     width="1.6112024"
     height="0.23694116"
     style="fill:#b9b9b9;fill-opacity:1;stroke:#000000;stroke-width:0.28275985"
     id="rect142" />
  <rect
     x="10.63884"
     y="12.160522"
     width="1.6112024"
     height="0.23694116"
     style="fill:#b9b9b9;fill-opacity:1;stroke:#000000;stroke-width:0.28275985"
     id="rect144" />
  <rect
     x="10.686258"
     y="17.136261"
     width="1.5164212"
     height="1.6112024"
     style="fill:#9b9b9b;fill-opacity:1;stroke:#000000;stroke-width:0.28275985"
     id="rect146" />
  <rect
     x="10.733677"
     y="12.729187"
     width="1.4690365"
     height="4.1227798"
     style="fill:#dcdcdc;fill-opacity:1;stroke:#000000;stroke-width:0.28275985"
     id="rect148" />
  <rect
     x="5.7301569"
     y="7.1847839"
     width="2.1324787"
     height="12.842217"
     style="fill:#dcdcdc;fill-opacity:1;stroke:#000000;stroke-width:0.28275985"
     id="rect150" />
  <ellipse
     cx="21.8599"
     cy="66.980797"
     rx="0.75416601"
     ry="0.83795899"
     style="fill:#00dc00;fill-opacity:1;stroke:#000000;stroke-width:1"
     id="ellipse152"
     sodipodi:cx="21.8599"
     sodipodi:cy="66.980797"
     sodipodi:rx="0.75416601"
     sodipodi:ry="0.83795899"
     transform="matrix(0.28275985,0,0,0.28275985,0.14137992,0.42412706)" />
  <rect
     x="5.9671659"
     y="7.7060242"
     width="1.6112024"
     height="0.23694116"
     style="fill:#b9b9b9;fill-opacity:1;stroke:#000000;stroke-width:0.28275985"
     id="rect154" />
  <rect
     x="5.9671659"
     y="8.4484558"
     width="1.6112024"
     height="0.23694116"
     style="fill:#b9b9b9;fill-opacity:1;stroke:#000000;stroke-width:0.28275985"
     id="rect156" />
  <rect
     x="5.9671659"
     y="9.1908569"
     width="1.6112024"
     height="0.23694116"
     style="fill:#b9b9b9;fill-opacity:1;stroke:#000000;stroke-width:0.28275985"
     id="rect158" />
  <rect
     x="5.9671659"
     y="9.9332886"
     width="1.6112024"
     height="0.23694116"
     style="fill:#b9b9b9;fill-opacity:1;stroke:#000000;stroke-width:0.28275985"
     id="rect160" />
  <rect
     x="5.9671659"
     y="10.67569"
     width="1.6112024"
     height="0.23694116"
     style="fill:#b9b9b9;fill-opacity:1;stroke:#000000;stroke-width:0.28275985"
     id="rect162" />
  <rect
     x="5.9671659"
     y="11.418121"
     width="1.6112024"
     height="0.23694116"
     style="fill:#b9b9b9;fill-opacity:1;stroke:#000000;stroke-width:0.28275985"
     id="rect164" />
  <rect
     x="5.9671659"
     y="12.160522"
     width="1.6112024"
     height="0.23694116"
     style="fill:#b9b9b9;fill-opacity:1;stroke:#000000;stroke-width:0.28275985"
     id="rect166" />
  <rect
     x="6.0145569"
     y="17.136261"
     width="1.5164212"
     height="1.6112024"
     style="fill:#9b9b9b;fill-opacity:1;stroke:#000000;stroke-width:0.28275985"
     id="rect168" />
  <rect
     x="6.0618343"
     y="12.729187"
     width="1.4690365"
     height="4.1227798"
     style="fill:#dcdcdc;fill-opacity:1;stroke:#000000;stroke-width:0.28275985"
     id="rect170" />
  <rect
     x="12.737709"
     y="7.1847839"
     width="2.1324787"
     height="12.842217"
     style="fill:#dcdcdc;fill-opacity:1;stroke:#000000;stroke-width:0.28275985"
     id="rect172" />
  <ellipse
     cx="46.642799"
     cy="66.980797"
     rx="0.75416601"
     ry="0.83795899"
     style="fill:#00dc00;fill-opacity:1;stroke:#000000;stroke-width:1"
     id="ellipse174"
     sodipodi:cx="46.642799"
     sodipodi:cy="66.980797"
     sodipodi:rx="0.75416601"
     sodipodi:ry="0.83795899"
     transform="matrix(0.28275985,0,0,0.28275985,0.14137992,0.42412706)" />
  <rect
     x="12.974775"
     y="7.7060242"
     width="1.6112024"
     height="0.23694116"
     style="fill:#b9b9b9;fill-opacity:1;stroke:#000000;stroke-width:0.28275985"
     id="rect176" />
  <rect
     x="12.974775"
     y="8.4484558"
     width="1.6112024"
     height="0.23694116"
     style="fill:#b9b9b9;fill-opacity:1;stroke:#000000;stroke-width:0.28275985"
     id="rect178" />
  <rect
     x="12.974775"
     y="9.1908569"
     width="1.6112024"
     height="0.23694116"
     style="fill:#b9b9b9;fill-opacity:1;stroke:#000000;stroke-width:0.28275985"
     id="rect180" />
  <rect
     x="12.974775"
     y="9.9332886"
     width="1.6112024"
     height="0.23694116"
     style="fill:#b9b9b9;fill-opacity:1;stroke:#000000;stroke-width:0.28275985"
     id="rect182" />
  <rect
     x="12.974775"
     y="10.67569"
     width="1.6112024"
     height="0.23694116"
     style="fill:#b9b9b9;fill-opacity:1;stroke:#000000;stroke-width:0.28275985"
     id="rect184" />
  <rect
     x="12.974775"
     y="11.418121"
     width="1.6112024"
     height="0.23694116"
     style="fill:#b9b9b9;fill-opacity:1;stroke:#000000;stroke-width:0.28275985"
     id="rect186" />
  <rect
     x="12.974775"
     y="12.160522"
     width="1.6112024"
     height="0.23694116"
     style="fill:#b9b9b9;fill-opacity:1;stroke:#000000;stroke-width:0.28275985"
     id="rect188" />
  <rect
     x="13.022052"
     y="17.136261"
     width="1.5164212"
     height="1.6112024"
     style="fill:#9b9b9b;fill-opacity:1;stroke:#000000;stroke-width:0.28275985"
     id="rect190" />
  <rect
     x="13.069443"
     y="12.729187"
     width="1.4690365"
     height="4.1227798"
     style="fill:#dcdcdc;fill-opacity:1;stroke:#000000;stroke-width:0.28275985"
     id="rect192" />
  <rect
     x="13.52593"
     y="21.606628"
     width="0.42649516"
     height="5.0705628"
     style="fill:#696969;fill-opacity:1;stroke:#000000;stroke-width:0.28275985"
     id="rect194" />
  <rect
     x="14.446682"
     y="21.606628"
     width="0.42649516"
     height="5.0705628"
     style="fill:#696969;fill-opacity:1;stroke:#000000;stroke-width:0.28275985"
     id="rect196" />
  <rect
     x="3.0201015"
     y="40.985474"
     width="15.319052"
     height="15.043051"
     style="fill:#ffffdc;fill-opacity:1;stroke:#878787;stroke-width:0.28275985"
     id="rect198" />
  <polyline
     points="24.5622 146.468 24.5622 187.749"
     style="stroke:#000000;stroke-width:1"
     id="polyline200"
     transform="matrix(0.28275985,0,0,0.28275985,0.14137992,0.42412706)" />
  <path
     d="m 9.2209401,51.230697 c 0.7203307,-0.65939 1.4603129,-0.55308 1.7227989,-0.48295 0.431294,0.11536 0.89666,0.36561 1.191437,0.9266 0,0 0,0 0,0"
     style="stroke:#000000;stroke-width:0.28275985;stroke-dasharray:0.5655197, 0.5655197"
     id="path202" />
  <polyline
     points="28.2291 180.293 24.503 180.293"
     style="stroke:#000000;stroke-width:1"
     id="polyline204"
     transform="matrix(0.28275985,0,0,0.28275985,0.14137992,0.42412706)" />
  <ellipse
     cx="24.562201"
     cy="180.23199"
     rx="0.68723798"
     ry="0.624762"
     style="fill:#000000;fill-opacity:1;stroke:#000000;stroke-width:1"
     id="ellipse206"
     sodipodi:cx="24.562201"
     sodipodi:cy="180.23199"
     sodipodi:rx="0.68723798"
     sodipodi:ry="0.624762"
     transform="matrix(0.28275985,0,0,0.28275985,0.14137992,0.42412706)" />
  <rect
     x="8.0213881"
     y="50.891663"
     width="1.4496927"
     height="1.0458184"
     style="fill:#dcdcdc;fill-opacity:1;stroke:#000000;stroke-width:0.28275985"
     id="rect208" />
  <path
     d="m 11.699952,52.898417 c -0.12792,-0.2033 0.04787,-0.53837 0.310612,-0.52537 0.177121,0.009 -1.076636,-0.069 -0.702715,-0.47362 0.305635,-0.33055 1.175291,-0.39417 1.371159,-0.17418 0.0356,0.0402 -0.100747,-0.0684 -0.07128,-0.12781 0.112765,-0.22705 0.699916,-0.39756 0.928669,-0.40463 0.285983,-0.008 0.961864,0.0729 1.023505,0.26325 0.01552,0.0481 0.0356,0.008 -0.02008,0.10038 -0.057,0.0947 0.251091,-0.18888 0.828685,0.12131 0.269611,0.14449 0.107844,0.4428 -0.05381,0.505 -0.211137,0.0809 -0.297153,0.0469 -0.123284,0.0532 0.562975,0.0198 0.392782,0.61133 -0.585313,0.58023 -0.408842,-0.013 -0.350707,-0.30567 -0.362017,-0.11085 -0.0077,0.1329 -1.075505,0.27768 -1.024382,0.0622 0.03051,-0.12837 0.06164,0.13714 -0.361933,0.31019 -0.175085,0.0713 -0.985899,-0.009 -1.109069,-0.15071 z"
     style="fill:#95f5ff;fill-opacity:1;stroke:#000000;stroke-width:0.28275985"
     id="path210" />
  <ellipse
     cx="55.094299"
     cy="158.69901"
     rx="0.68723798"
     ry="0.624762"
     style="fill:#000000;fill-opacity:1;stroke:#000000;stroke-width:1"
     id="ellipse212"
     sodipodi:cx="55.094299"
     sodipodi:cy="158.69901"
     sodipodi:rx="0.68723798"
     sodipodi:ry="0.624762"
     transform="matrix(0.28275985,0,0,0.28275985,0.14137992,0.42412706)" />
  <polyline
     points="54.3904 158.699 50.6643 158.699"
     style="stroke:#000000;stroke-width:1"
     id="polyline214"
     transform="matrix(0.28275985,0,0,0.28275985,0.14137992,0.42412706)" />
  <rect
     x="13.35175"
     y="44.953705"
     width="1.252301"
     height="0.68831664"
     style="fill:#696969;fill-opacity:1;stroke:#000000;stroke-width:0.28275985"
     id="rect216" />
  <ellipse
     cx="55.094299"
     cy="164.409"
     rx="0.68723798"
     ry="0.624762"
     style="fill:#000000;fill-opacity:1;stroke:#000000;stroke-width:1"
     id="ellipse218"
     sodipodi:cx="55.094299"
     sodipodi:cy="164.409"
     sodipodi:rx="0.68723798"
     sodipodi:ry="0.624762"
     transform="matrix(0.28275985,0,0,0.28275985,0.14137992,0.42412706)" />
  <polyline
     points="54.8431 164.409 51.1174 164.409"
     style="stroke:#000000;stroke-width:1"
     id="polyline220"
     transform="matrix(0.28275985,0,0,0.28275985,0.14137992,0.42412706)" />
  <rect
     x="13.35175"
     y="46.568268"
     width="1.252301"
     height="0.68831664"
     style="fill:#696969;fill-opacity:1;stroke:#000000;stroke-width:0.28275985"
     id="rect222" />
  <ellipse
     cx="55.094299"
     cy="170.752"
     rx="0.68723798"
     ry="0.624762"
     style="fill:#000000;fill-opacity:1;stroke:#000000;stroke-width:1"
     id="ellipse224"
     sodipodi:cx="55.094299"
     sodipodi:cy="170.752"
     sodipodi:rx="0.68723798"
     sodipodi:ry="0.624762"
     transform="matrix(0.28275985,0,0,0.28275985,0.14137992,0.42412706)" />
  <polyline
     points="54.6069 170.752 50.8808 170.752"
     style="stroke:#000000;stroke-width:1"
     id="polyline226"
     transform="matrix(0.28275985,0,0,0.28275985,0.14137992,0.42412706)" />
  <rect
     x="13.154299"
     y="48.183105"
     width="1.4496927"
     height="1.0458184"
     style="fill:#dcdcdc;fill-opacity:1;stroke:#000000;stroke-width:0.28275985"
     id="rect228" />
  <polyline
     points="55.0205 154.323 55.0992 175.08"
     style="stroke:#000000;stroke-width:1"
     id="polyline230"
     transform="matrix(0.28275985,0,0,0.28275985,0.14137992,0.42412706)" />
  <path
     d="m 13.15314,48.746937 c -0.167959,0 -0.240487,0 -0.290112,0 -0.05593,0 -0.212352,0.0274 -0.269498,0.0568 -0.115903,0.06 -0.262684,0.18719 -0.333006,0.27796 -0.04024,0.052 -0.172795,0.24458 -0.195161,0.30623 -0.05452,0.15014 -0.09108,0.4018 -0.106601,0.55845 -0.01018,0.10236 0.009,0.39134 0.03393,0.49681 0.0083,0.0353 0.06673,0.1688 0.08285,0.19906 0.03877,0.0724 0.09153,0.18521 0.137139,0.25392 0.06048,0.091 0.243541,0.29039 0.315616,0.37267 0.03814,0.0435 0.137902,0.13799 0.178591,0.17843 0.03043,0.0305 0.08672,0.11451 0.133887,0.13402 0,0 0,0 0,0"
     style="stroke:#000000;stroke-width:0.28275985;stroke-dasharray:0.5655197, 0.5655197"
     id="path232" />
  <polyline
     points="28.2291 174.571 24.503 174.571"
     style="stroke:#000000;stroke-width:1"
     id="polyline234"
     transform="matrix(0.28275985,0,0,0.28275985,0.14137992,0.42412706)" />
  <ellipse
     cx="24.562201"
     cy="174.50999"
     rx="0.68723798"
     ry="0.624762"
     style="fill:#000000;fill-opacity:1;stroke:#000000;stroke-width:1"
     id="ellipse236"
     sodipodi:cx="24.562201"
     sodipodi:cy="174.50999"
     sodipodi:rx="0.68723798"
     sodipodi:ry="0.624762"
     transform="matrix(0.28275985,0,0,0.28275985,0.14137992,0.42412706)" />
  <rect
     x="8.0213881"
     y="49.441681"
     width="1.252301"
     height="0.68831664"
     style="fill:#696969;fill-opacity:1;stroke:#000000;stroke-width:0.28275985"
     id="rect238" />
  <polyline
     points="28.2291 168.849 24.503 168.849"
     style="stroke:#000000;stroke-width:1"
     id="polyline240"
     transform="matrix(0.28275985,0,0,0.28275985,0.14137992,0.42412706)" />
  <ellipse
     cx="24.562201"
     cy="168.789"
     rx="0.68723798"
     ry="0.624762"
     style="fill:#000000;fill-opacity:1;stroke:#000000;stroke-width:1"
     id="ellipse242"
     sodipodi:cx="24.562201"
     sodipodi:cy="168.789"
     sodipodi:rx="0.68723798"
     sodipodi:ry="0.624762"
     transform="matrix(0.28275985,0,0,0.28275985,0.14137992,0.42412706)" />
  <rect
     x="8.0213881"
     y="47.82373"
     width="1.252301"
     height="0.68831664"
     style="fill:#696969;fill-opacity:1;stroke:#000000;stroke-width:0.28275985"
     id="rect244" />
  <polyline
     points="28.2291 163.128 24.503 163.128"
     style="stroke:#000000;stroke-width:1"
     id="polyline246"
     transform="matrix(0.28275985,0,0,0.28275985,0.14137992,0.42412706)" />
  <ellipse
     cx="24.562201"
     cy="163.067"
     rx="0.68723798"
     ry="0.624762"
     style="fill:#000000;fill-opacity:1;stroke:#000000;stroke-width:1"
     id="ellipse248"
     sodipodi:cx="24.562201"
     sodipodi:cy="163.067"
     sodipodi:rx="0.68723798"
     sodipodi:ry="0.624762"
     transform="matrix(0.28275985,0,0,0.28275985,0.14137992,0.42412706)" />
  <rect
     x="8.0213881"
     y="46.20578"
     width="1.252301"
     height="0.68831664"
     style="fill:#696969;fill-opacity:1;stroke:#000000;stroke-width:0.28275985"
     id="rect250" />
  <polyline
     points="28.2291 157.406 24.503 157.406"
     style="stroke:#000000;stroke-width:1"
     id="polyline252"
     transform="matrix(0.28275985,0,0,0.28275985,0.14137992,0.42412706)" />
  <ellipse
     cx="24.562201"
     cy="157.345"
     rx="0.68723798"
     ry="0.624762"
     style="fill:#000000;fill-opacity:1;stroke:#000000;stroke-width:1"
     id="ellipse254"
     sodipodi:cx="24.562201"
     sodipodi:cy="157.345"
     sodipodi:rx="0.68723798"
     sodipodi:ry="0.624762"
     transform="matrix(0.28275985,0,0,0.28275985,0.14137992,0.42412706)" />
  <rect
     x="8.0213881"
     y="44.588104"
     width="1.252301"
     height="0.68831664"
     style="fill:#696969;fill-opacity:1;stroke:#000000;stroke-width:0.28275985"
     id="rect256" />
  <polyline
     points="14.852 151.05 24.6 151.091"
     style="stroke:#000000;stroke-width:1"
     id="polyline258"
     transform="matrix(0.28275985,0,0,0.28275985,0.14137992,0.42412706)" />
  <ellipse
     cx="24.521299"
     cy="150.981"
     rx="1.36068"
     ry="1.23698"
     style="fill:#000000;fill-opacity:1;stroke:#000000;stroke-width:1"
     id="ellipse260"
     sodipodi:cx="24.521299"
     sodipodi:cy="150.981"
     sodipodi:rx="1.36068"
     sodipodi:ry="1.23698"
     transform="matrix(0.28275985,0,0,0.28275985,0.14137992,0.42412706)" />
  <rect
     x="0.14137992"
     y="41.841095"
     width="5.1573138"
     height="2.6570971"
     style="fill:#a50000;fill-opacity:1;stroke:#000000;stroke-width:0.28275985"
     id="rect262" />
  <polyline
     points="65.1856 59.3337 127.268 59.3337"
     style="stroke:#a50000;stroke-width:1"
     class="TAG:BOTH_ARROW"
     id="polyline264"
     transform="matrix(0.28275985,0,0,0.28275985,0.14137992,0.42412706)" />
  <polyline
     points="70.8732 165.91 132.956 165.91"
     style="stroke:#a50000;stroke-width:1"
     class="TAG:BOTH_ARROW"
     id="polyline266"
     transform="matrix(0.28275985,0,0,0.28275985,0.14137992,0.42412706)" />
  <polyline
     points="31.1739 100.172 31.1739 138.172"
     style="stroke:#a50000;stroke-width:1"
     class="TAG:BOTH_ARROW"
     id="polyline268"
     transform="matrix(0.28275985,0,0,0.28275985,0.14137992,0.42412706)" />
  <polyline
     points="173.348 88.1946 173.348 126.194"
     style="stroke:#a50000;stroke-width:1"
     class="TAG:BOTH_ARROW"
     id="polyline270"
     transform="matrix(0.28275985,0,0,0.28275985,0.14137992,0.42412706)" />
  <polyline
     points="67.1518 138.529 132.36 88.706"
     style="stroke:#a50000;stroke-width:1"
     class="TAG:BOTH_ARROW"
     id="polyline272"
     transform="matrix(0.28275985,0,0,0.28275985,0.14137992,0.42412706)" />
  <polyline
     points="134.558 132.667 64.9538 87.9733"
     style="stroke:#a50000;stroke-width:1"
     class="TAG:BOTH_ARROW"
     id="polyline274"
     transform="matrix(0.28275985,0,0,0.28275985,0.14137992,0.42412706)" />
  <polygon
     points="336,144 336,352.157 336,352.157 128,352.157 128,144 "
     style="fill:#ffffff;fill-opacity:0;stroke:none"
     id="polygon276"
     transform="matrix(0.28275985,0,0,0.28275985,0.14137992,0.42412706)" />
  <polygon
     points="329.513,304.556 323.012,301.228 318.137,294.571 313.262,282.923 288.885,281.259 262.884,279.595 232.007,277.931 176.753,277.931 158.877,279.595 152.377,281.259 149.126,282.923 145.876,286.251 144.251,289.579 141.001,296.235 137.751,301.228 132.875,304.556 128,307.884 128,317.868 128,317.868 134.5,319.532 154.002,324.525 186.504,329.517 210.88,331.181 238.507,331.181 266.133,331.181 287.26,329.517 303.511,327.852 316.512,324.525 331.138,319.532 334.388,317.868 334.388,307.884 "
     style="fill:#000000;fill-opacity:1;stroke:none"
     id="polygon278"
     transform="matrix(0.28275985,0,0,0.28275985,0.14137992,0.42412706)" />
  <polygon
     points="315.039,281 315.039,279.355 315.039,274.419 313.411,262.902 308.527,248.095 305.271,241.514 300.386,234.933 290.618,223.416 284.106,218.48 277.594,213.544 267.825,210.254 258.057,206.963 246.661,205.318 232.008,205.318 215.727,205.318 204.331,206.963 192.935,210.254 184.794,213.544 178.282,218.48 171.77,223.416 162.001,233.287 162.001,233.287 157.117,239.868 153.861,248.095 148.977,262.902 147.349,274.419 147.349,279.355 147.349,281 148.977,281 175.026,284.291 201.075,287.581 232.008,289.226 262.941,287.581 288.99,284.291 "
     style="fill:#000000;fill-opacity:1;stroke:none"
     id="polygon280"
     transform="matrix(0.28275985,0,0,0.28275985,0.14137992,0.42412706)" />
  <polygon
     points="289.001,225.051 298.771,236.582 303.657,241.524 306.913,248.113 311.798,261.29 313.427,272.821 313.427,279.41 285.744,282.704 259.69,285.999 232.008,285.999 202.697,285.999 178.272,282.704 148.961,279.41 148.961,272.821 152.218,261.29 155.475,246.465 158.732,239.876 163.617,234.935 163.617,234.935 173.387,225.051 179.9,220.109 186.414,215.168 194.556,211.873 204.326,208.579 217.353,206.932 232.008,206.932 246.663,206.932 258.062,208.579 267.832,211.873 275.974,215.168 282.488,220.109 "
     style="fill:#aaaaaa;fill-opacity:1;stroke:none"
     id="polygon282"
     transform="matrix(0.28275985,0,0,0.28275985,0.14137992,0.42412706)" />
  <polygon
     points="197.968,266.469 202.884,268.138 209.44,271.476 215.995,271.476 237.3,271.476 248.772,269.807 253.689,269.807 256.966,266.469 258.605,263.13 258.605,259.792 256.966,254.784 253.689,249.776 243.856,239.76 235.661,234.753 229.106,234.753 222.551,238.091 220.912,238.091 217.634,238.091 212.718,234.753 206.162,231.414 202.884,226.406 199.607,224.737 196.329,223.068 193.051,223.068 193.051,223.068 184.857,224.737 176.663,228.075 171.747,233.083 166.83,238.091 161.913,246.437 160.275,254.784 158.636,261.461 158.636,264.799 160.275,266.469 163.552,266.469 178.302,268.138 193.051,266.469 "
     style="fill:#666666;fill-opacity:1;stroke:none"
     id="polygon284"
     transform="matrix(0.28275985,0,0,0.28275985,0.14137992,0.42412706)" />
  <polygon
     points="206.237,249.894 212.967,243.036 221.379,237.893 224.744,236.178 224.744,234.464 219.697,232.75 206.237,232.75 206.237,232.75 202.872,234.464 196.142,236.178 191.094,237.893 187.729,241.322 186.047,244.751 186.047,249.894 186.047,255.038 187.729,258.467 191.094,260.181 194.459,260.181 199.507,258.467 202.872,258.467 "
     style="fill:#e5f2ff;fill-opacity:1;stroke:none"
     id="polygon286"
     transform="matrix(0.28275985,0,0,0.28275985,0.14137992,0.42412706)" />
  <polygon
     points="223.132,173.045 223.132,192.409 236.031,192.409 236.031,173.045 234.189,173.045 234.189,173.045 "
     style="fill:#000000;fill-opacity:1;stroke:none"
     id="polygon288"
     transform="matrix(0.28275985,0,0,0.28275985,0.14137992,0.42412706)" />
  <polygon
     points="224.744,174.659 234.419,174.659 234.419,174.659 234.419,190.795 224.744,190.795 "
     style="fill:#8c8c8c;fill-opacity:1;stroke:none"
     id="polygon290"
     transform="matrix(0.28275985,0,0,0.28275985,0.14137992,0.42412706)" />
  <polygon
     points="221.52,213.138 223.311,213.138 225.103,214.876 230.477,216.613 234.06,216.613 237.644,214.876 237.644,213.138 237.644,194.023 235.852,194.023 235.852,194.023 221.52,194.023 "
     style="fill:#000000;fill-opacity:1;stroke:none"
     id="polygon292"
     transform="matrix(0.28275985,0,0,0.28275985,0.14137992,0.42412706)" />
  <polygon
     points="224.744,213.239 224.744,195.636 236.031,195.636 236.031,195.636 236.031,213.239 234.15,213.239 230.388,215 226.625,213.239 "
     style="fill:#8c8c8c;fill-opacity:1;stroke:none"
     id="polygon294"
     transform="matrix(0.28275985,0,0,0.28275985,0.14137992,0.42412706)" />
  <polygon
     points="236.031,211.772 237.644,213.386 237.644,213.386 "
     style="fill:#000000;fill-opacity:1;stroke:none"
     id="polygon296"
     transform="matrix(0.28275985,0,0,0.28275985,0.14137992,0.42412706)" />
  <polygon
     points="221.768,187.568 218.295,189.343 218.295,189.343 218.295,191.118 218.295,201.768 220.031,203.543 223.504,205.318 230.45,205.318 235.659,205.318 239.132,203.543 240.868,201.768 240.868,191.118 239.132,189.343 230.45,187.568 225.241,187.568 "
     style="fill:#000000;fill-opacity:1;stroke:none"
     id="polygon298"
     transform="matrix(0.28275985,0,0,0.28275985,0.14137992,0.42412706)" />
  <polygon
     points="239.256,190.997 239.256,201.889 237.497,201.889 230.461,203.704 223.425,203.704 219.907,201.889 219.907,190.997 223.425,189.182 230.461,189.182 230.461,189.182 235.738,189.182 "
     style="fill:#aaaaaa;fill-opacity:1;stroke:none"
     id="polygon300"
     transform="matrix(0.28275985,0,0,0.28275985,0.14137992,0.42412706)" />
  <polygon
     points="240.869,178.854 237.414,180.791 228.776,182.727 220.137,180.791 218.41,178.854 216.682,176.918 218.41,176.918 220.137,174.982 228.776,173.045 237.414,174.982 240.869,176.918 240.869,176.918 "
     style="fill:#555555;fill-opacity:1;stroke:none"
     id="polygon302"
     transform="matrix(0.28275985,0,0,0.28275985,0.14137992,0.42412706)" />
  <polygon
     points="216.682,175.466 218.41,177.483 223.593,179.5 228.776,179.5 235.686,179.5 239.141,177.483 240.869,175.466 239.141,173.449 235.686,171.432 228.776,171.432 223.593,171.432 218.41,173.449 216.682,175.466 "
     style="fill:#000000;fill-opacity:1;stroke:none"
     id="polygon304"
     transform="matrix(0.28275985,0,0,0.28275985,0.14137992,0.42412706)" />
  <polygon
     points="228.702,177.886 223.425,177.886 219.907,175.466 223.425,173.045 228.702,173.045 228.702,173.045 235.738,173.045 239.256,175.466 235.738,177.886 "
     style="fill:#aaaaaa;fill-opacity:1;stroke:none"
     id="polygon306"
     transform="matrix(0.28275985,0,0,0.28275985,0.14137992,0.42412706)" />
  <polygon
     points="263.951,215.146 260.557,215.146 260.557,215.146 257.162,213.386 255.465,215.146 253.768,216.906 253.768,218.667 255.465,220.427 265.648,223.948 275.833,227.469 284.319,230.989 286.016,232.75 284.319,230.989 279.227,223.948 269.043,216.906 "
     style="fill:#e5f2ff;fill-opacity:1;stroke:none"
     id="polygon308"
     transform="matrix(0.28275985,0,0,0.28275985,0.14137992,0.42412706)" />
  <polygon
     points="139.287,275.107 139.287,278.536 140.914,281.965 140.914,283.679 149.047,285.394 168.567,290.537 197.847,293.966 214.114,295.681 232.007,295.681 267.794,293.966 295.448,288.823 313.341,285.394 321.475,283.679 321.475,281.965 323.101,278.536 323.101,275.107 321.475,273.393 318.221,269.964 316.595,268.249 316.595,268.249 310.088,271.678 290.568,276.822 264.541,281.965 248.274,283.679 232.007,283.679 215.741,283.679 199.474,281.965 171.821,276.822 152.3,271.678 145.794,268.249 144.167,269.964 140.914,273.393 "
     style="fill:#333333;fill-opacity:1;stroke:none"
     id="polygon310"
     transform="matrix(0.28275985,0,0,0.28275985,0.14137992,0.42412706)" />
  <polygon
     points="199.459,292.33 171.799,288.854 152.274,283.641 142.512,281.903 142.512,276.69 142.512,273.214 145.766,271.477 153.901,273.214 173.426,278.428 201.086,283.641 215.73,285.379 232,285.379 232,285.379 248.271,285.379 262.915,283.641 290.575,278.428 308.472,273.214 316.608,271.477 319.862,273.214 321.489,278.428 319.862,281.903 311.726,283.641 292.202,287.116 266.169,292.33 232,294.067 "
     style="fill:#cccccc;fill-opacity:1;stroke:none"
     id="polygon312"
     transform="matrix(0.28275985,0,0,0.28275985,0.14137992,0.42412706)" />
  <polygon
     points="178.886,282.311 197.144,284.155 203.783,285.999 175.566,284.155 157.308,278.623 147.349,276.778 149.009,273.09 149.009,273.09 158.968,276.778 168.927,280.467 "
     style="fill:#e5f2ff;fill-opacity:1;stroke:none"
     id="polygon314"
     transform="matrix(0.28275985,0,0,0.28275985,0.14137992,0.42412706)" />
  <polygon
     points="278.962,285.266 259.31,288.786 213.457,294.067 231.471,292.307 265.861,290.547 283.874,287.026 300.25,283.505 318.264,278.224 314.989,274.704 314.989,274.704 296.975,279.985 "
     style="fill:#999999;fill-opacity:1;stroke:none"
     id="polygon316"
     transform="matrix(0.28275985,0,0,0.28275985,0.14137992,0.42412706)" />
  <polygon
     points="174.048,311.356 192.307,313.2 198.946,315.044 170.729,313.2 152.471,309.512 142.512,305.824 144.171,302.135 144.171,302.135 154.13,305.824 164.089,309.512 "
     style="fill:#bbbbbb;fill-opacity:1;stroke:none"
     id="polygon318"
     transform="matrix(0.28275985,0,0,0.28275985,0.14137992,0.42412706)" />
  <polygon
     points="188.384,276.855 176.533,274.704 173.147,274.704 190.078,279.007 201.929,281.158 207.008,281.158 207.008,276.855 207.008,276.855 200.236,279.007 195.157,279.007 "
     style="fill:#e5f2ff;fill-opacity:1;stroke:none"
     id="polygon320"
     transform="matrix(0.28275985,0,0,0.28275985,0.14137992,0.42412706)" />
  <ellipse
     cx="286.62"
     cy="62.620399"
     rx="62.620399"
     ry="62.620399"
     style="fill:#00a500;fill-opacity:1;stroke:#000000;stroke-width:3"
     class="TAG:iconCanvas"
     id="ellipse322"
     sodipodi:cx="286.62"
     sodipodi:cy="62.620399"
     sodipodi:rx="62.620399"
     sodipodi:ry="62.620399"
     transform="matrix(0.28275985,0,0,0.28275985,0.14137992,0.42412706)" />
</svg>
