<?xml version="1.0" encoding="UTF-8" standalone="no"?>

<svg
 xmlns:dc="http://purl.org/dc/elements/1.1/"
   xmlns:cc="http://creativecommons.org/ns#"
   xmlns:rdf="http://www.w3.org/1999/02/22-rdf-syntax-ns#"
   xmlns:svg="http://www.w3.org/2000/svg"
   xmlns="http://www.w3.org/2000/svg"
   xmlns:sodipodi="http://sodipodi.sourceforge.net/DTD/sodipodi-0.dtd"
   xmlns:inkscape="http://www.inkscape.org/namespaces/inkscape"
   id="svg2"
   version="1.1"
   inkscape:version="0.47 r22583"
   width="100"
   height="100"
   sodipodi:docname="system_interface.svg">
  <metadata
     id="metadata282">
    <rdf:RDF>
      <cc:Work
         rdf:about="">
        <dc:format>image/svg+xml</dc:format>
        <dc:type
           rdf:resource="http://purl.org/dc/dcmitype/StillImage" />
      </cc:Work>
    </rdf:RDF>
  </metadata>
  <defs
     id="defs280">
    <inkscape:perspective
       sodipodi:type="inkscape:persp3d"
       inkscape:vp_x="0 : 0.5 : 1"
       inkscape:vp_y="0 : 1000 : 0"
       inkscape:vp_z="1 : 0.5 : 1"
       inkscape:persp3d-origin="0.5 : 0.33333333 : 1"
       id="perspective284" />
  </defs>
  <sodipodi:namedview
     pagecolor="#ffffff"
     bordercolor="#666666"
     borderopacity="1"
     objecttolerance="10"
     gridtolerance="10"
     guidetolerance="10"
     inkscape:pageopacity="0"
     inkscape:pageshadow="2"
     inkscape:window-width="1680"
     inkscape:window-height="994"
     id="namedview278"
     showgrid="false"
     inkscape:zoom="7.49"
     inkscape:cx="50"
     inkscape:cy="50"
     inkscape:window-x="-4"
     inkscape:window-y="-4"
     inkscape:window-maximized="1"
     inkscape:current-layer="svg2" />
  <polygon
     points="205.325,67.9518 205.093,68.3396 204.705,68.572 204.163,68.727 203.697,68.8048 137.963,68.8048 137.498,68.727 137.11,68.572 136.645,68.3396 136.335,67.9518 136.18,67.4869 136.103,66.9442 136.103,16.0931 136.18,15.473 136.335,15.0078 136.568,14.6978 136.568,14.6978 136.955,14.4653 137.42,14.3102 137.963,14.2327 203.697,14.2327 204.24,14.3102 204.705,14.4653 205.093,14.6978 205.325,15.0854 205.48,15.5505 205.558,16.0931 205.558,66.9442 205.48,67.4869 "
     style="fill:#696969;fill-opacity:1;stroke:#000000;stroke-width:1"
     id="polygon4"
     transform="matrix(0.48412552,0,0,0.48412552,0.24206276,9.1630224)" />
  <polygon
     points="203.9,66.7504 203.676,67.1203 203.304,67.3423 202.782,67.4905 202.335,67.5644 139.132,67.5644 138.684,67.4905 138.312,67.3423 137.865,67.1203 137.567,66.7504 137.417,66.3064 137.343,65.7884 137.343,17.2488 137.417,16.6569 137.567,16.2129 137.79,15.9169 137.79,15.9169 138.163,15.6949 138.61,15.547 139.132,15.473 202.335,15.473 202.856,15.547 203.304,15.6949 203.676,15.9169 203.9,16.2869 204.049,16.7308 204.124,17.2488 204.124,65.7884 204.049,66.3064 "
     style="fill:#000000;fill-opacity:1;stroke:#000000;stroke-width:1"
     id="polygon6"
     transform="matrix(0.48412552,0,0,0.48412552,0.24206276,9.1630224)" />
  <rect
     x="75.734177"
     y="18.702911"
     width="23.130356"
     height="21.829994"
     style="fill:#f2f5f5;fill-opacity:1;stroke:#9b9b9b;stroke-width:0.48412552"
     id="rect8" />
  <rect
     x="67.108513"
     y="16.954102"
     width="31.748709"
     height="0.90067196"
     style="fill:#00d2e8;fill-opacity:1;stroke:#00d2e8;stroke-width:0.48412552"
     id="rect10" />
  <rect
     x="67.071236"
     y="40.634277"
     width="31.748709"
     height="1.0808054"
     style="fill:#00d2e8;fill-opacity:1;stroke:#00d2e8;stroke-width:0.48412552"
     id="rect12" />
  <rect
     x="67.108513"
     y="17.854759"
     width="31.756119"
     height="0.90067196"
     style="fill:#e1fcff;fill-opacity:1;stroke:#b9b9b9;stroke-width:0.48412552"
     id="rect14" />
  <rect
     x="67.633789"
     y="18.004906"
     width="2.4802041"
     height="0.60495359"
     style="fill:#464646;fill-opacity:1;stroke:#e1fcff;stroke-width:0.48412552"
     id="rect16" />
  <rect
     x="70.936493"
     y="18.004906"
     width="2.4802041"
     height="0.60495359"
     style="fill:#464646;fill-opacity:1;stroke:#e1fcff;stroke-width:0.48412552"
     id="rect18" />
  <rect
     x="74.538872"
     y="18.004906"
     width="2.4802041"
     height="0.60495359"
     style="fill:#464646;fill-opacity:1;stroke:#e1fcff;stroke-width:0.48412552"
     id="rect20" />
  <rect
     x="78.441887"
     y="18.004906"
     width="2.4802041"
     height="0.60495359"
     style="fill:#464646;fill-opacity:1;stroke:#e1fcff;stroke-width:0.48412552"
     id="rect22" />
  <rect
     x="67.104637"
     y="18.75544"
     width="8.6352024"
     height="21.777515"
     style="fill:#f2f5f5;fill-opacity:1;stroke:#9b9b9b;stroke-width:0.48412552"
     id="rect24" />
  <rect
     x="79.192284"
     y="29.013138"
     width="16.812565"
     height="2.4017904"
     style="fill:#ffffff;fill-opacity:1;stroke:#9b9b9b;stroke-width:0.48412552"
     id="rect26" />
  <rect
     x="79.192284"
     y="32.815948"
     width="16.812565"
     height="2.4017904"
     style="fill:#ffffff;fill-opacity:1;stroke:#9b9b9b;stroke-width:0.48412552"
     id="rect28" />
  <rect
     x="79.192284"
     y="36.618805"
     width="16.812565"
     height="2.4017904"
     style="fill:#ffffff;fill-opacity:1;stroke:#9b9b9b;stroke-width:0.48412552"
     id="rect30" />
  <rect
     x="68.534744"
     y="20.857025"
     width="6.0044637"
     height="0.60495359"
     style="fill:#464646;fill-opacity:1;stroke:#e1fcff;stroke-width:0.48412552"
     id="rect32" />
  <rect
     x="68.534744"
     y="22.358109"
     width="6.0044637"
     height="0.60495359"
     style="fill:#464646;fill-opacity:1;stroke:#e1fcff;stroke-width:0.48412552"
     id="rect34" />
  <rect
     x="68.534744"
     y="23.859238"
     width="6.0044637"
     height="0.60495359"
     style="fill:#464646;fill-opacity:1;stroke:#e1fcff;stroke-width:0.48412552"
     id="rect36" />
  <rect
     x="68.534744"
     y="25.360367"
     width="6.0044637"
     height="0.60495359"
     style="fill:#464646;fill-opacity:1;stroke:#e1fcff;stroke-width:0.48412552"
     id="rect38" />
  <rect
     x="68.534744"
     y="26.861496"
     width="6.0044637"
     height="0.60495359"
     style="fill:#464646;fill-opacity:1;stroke:#e1fcff;stroke-width:0.48412552"
     id="rect40" />
  <rect
     x="68.534744"
     y="28.36261"
     width="6.0044637"
     height="0.60495359"
     style="fill:#464646;fill-opacity:1;stroke:#e1fcff;stroke-width:0.48412552"
     id="rect42" />
  <rect
     x="79.192284"
     y="20.406639"
     width="16.812565"
     height="7.2053852"
     style="fill:#ffffff;fill-opacity:1;stroke:#9b9b9b;stroke-width:0.48412552"
     id="rect44" />
  <ellipse
     cx="170.83"
     cy="179.38"
     rx="30.8339"
     ry="7.75103"
     style="fill:#ffcf9f;fill-opacity:1;stroke:#696969;stroke-width:1"
     id="ellipse46"
     sodipodi:cx="170.83"
     sodipodi:cy="179.38"
     sodipodi:rx="30.8339"
     sodipodi:ry="7.75103"
     transform="matrix(0.48412552,0,0,0.48412552,0.24206276,9.1630224)" />
  <rect
     x="68.0177"
     y="69.474411"
     width="29.854956"
     height="26.267151"
     style="fill:#ffcf9f;fill-opacity:1;stroke:#ffcf9f;stroke-width:0.48412552"
     id="rect48" />
  <polygon
     points="189.319,184.943 189.263,130.625 201.664,125.547 201.664,125.547 201.644,177.911 201.615,178.772 201.528,179.432 201.28,179.854 200.919,180.408 200.339,181.011 199.647,181.512 198.744,182.044 197.687,182.562 195.4,183.411 192.944,184.14 191.089,184.57 "
     style="fill:#e7a98b;fill-opacity:1;stroke:#e7a98b;stroke-width:1"
     id="polygon50"
     transform="matrix(0.48412552,0,0,0.48412552,0.24206276,9.1630224)" />
  <polygon
     points="177.364,132.119 177.364,132.119 189.113,130.79 189.324,184.931 188.285,185.174 186.196,185.485 185.388,185.624 184.478,185.727 183.533,185.832 182.659,185.936 181.591,186.04 180.419,186.126 179.002,186.264 177.603,186.334 "
     style="fill:#f4b392;fill-opacity:1;stroke:#f4b392;stroke-width:1"
     id="polygon52"
     transform="matrix(0.48412552,0,0,0.48412552,0.24206276,9.1630224)" />
  <polygon
     points="140.194,179.422 140.062,178.867 140.039,124.907 140.039,124.907 151.593,129.783 151.236,184.739 149.851,184.38 148.533,184.054 147.181,183.663 146.127,183.336 144.907,182.879 143.886,182.488 142.897,181.966 141.611,181.183 140.853,180.4 140.458,179.878 "
     style="fill:#f4b392;fill-opacity:1;stroke:#f4b392;stroke-width:1"
     id="polygon54"
     transform="matrix(0.48412552,0,0,0.48412552,0.24206276,9.1630224)" />
  <polygon
     points="166.932,186.23 163.917,186.141 161.345,185.933 158.827,185.777 156.465,185.518 154.472,185.154 152.425,184.791 151.166,184.271 151.795,130.309 151.795,130.309 166.837,131.836 "
     style="fill:#fad1ad;fill-opacity:1;stroke:#fad1ad;stroke-width:1"
     id="polygon56"
     transform="matrix(0.48412552,0,0,0.48412552,0.24206276,9.1630224)" />
  <ellipse
     cx="170.83"
     cy="124.578"
     rx="30.8339"
     ry="7.75103"
     style="fill:#ffcf9f;fill-opacity:1;stroke:#696969;stroke-width:1"
     id="ellipse58"
     sodipodi:cx="170.83"
     sodipodi:cy="124.578"
     sodipodi:rx="30.8339"
     sodipodi:ry="7.75103"
     transform="matrix(0.48412552,0,0,0.48412552,0.24206276,9.1630224)" />
  <rect
     x="3.0898342"
     y="9.1630249"
     width="25.056643"
     height="38.797478"
     style="fill:#9b9b9b;fill-opacity:1;stroke:#000000;stroke-width:0.48412552"
     id="rect60" />
  <rect
     x="5.8183661"
     y="37.684494"
     width="0.73022103"
     height="8.6815329"
     style="fill:#696969;fill-opacity:1;stroke:#000000;stroke-width:0.48412552"
     id="rect62" />
  <rect
     x="10.547546"
     y="37.684494"
     width="0.73022103"
     height="8.6815329"
     style="fill:#696969;fill-opacity:1;stroke:#000000;stroke-width:0.48412552"
     id="rect64" />
  <rect
     x="12.123762"
     y="37.684494"
     width="0.73022103"
     height="8.6815329"
     style="fill:#696969;fill-opacity:1;stroke:#000000;stroke-width:0.48412552"
     id="rect66" />
  <rect
     x="16.852846"
     y="37.684494"
     width="0.73022103"
     height="8.6815329"
     style="fill:#696969;fill-opacity:1;stroke:#000000;stroke-width:0.48412552"
     id="rect68" />
  <rect
     x="18.429255"
     y="37.684494"
     width="0.73022103"
     height="8.6815329"
     style="fill:#696969;fill-opacity:1;stroke:#000000;stroke-width:0.48412552"
     id="rect70" />
  <rect
     x="20.005713"
     y="37.684494"
     width="0.73022103"
     height="8.6815329"
     style="fill:#696969;fill-opacity:1;stroke:#000000;stroke-width:0.48412552"
     id="rect72" />
  <rect
     x="21.581928"
     y="37.684494"
     width="0.73022103"
     height="8.6815329"
     style="fill:#696969;fill-opacity:1;stroke:#000000;stroke-width:0.48412552"
     id="rect74" />
  <rect
     x="7.3947268"
     y="37.684494"
     width="0.73022103"
     height="8.6815329"
     style="fill:#696969;fill-opacity:1;stroke:#000000;stroke-width:0.48412552"
     id="rect76" />
  <rect
     x="8.9710884"
     y="37.684494"
     width="0.73022103"
     height="8.6815329"
     style="fill:#696969;fill-opacity:1;stroke:#000000;stroke-width:0.48412552"
     id="rect78" />
  <rect
     x="13.700171"
     y="37.684494"
     width="0.73022103"
     height="8.6815329"
     style="fill:#696969;fill-opacity:1;stroke:#000000;stroke-width:0.48412552"
     id="rect80" />
  <rect
     x="15.276629"
     y="37.684494"
     width="0.73022103"
     height="8.6815329"
     style="fill:#696969;fill-opacity:1;stroke:#000000;stroke-width:0.48412552"
     id="rect82" />
  <rect
     x="5.8115396"
     y="12.99221"
     width="3.6511099"
     height="21.987722"
     style="fill:#dcdcdc;fill-opacity:1;stroke:#000000;stroke-width:0.48412552"
     id="rect84" />
  <ellipse
     cx="13.5991"
     cy="50.980801"
     rx="0.75416601"
     ry="0.83795899"
     style="fill:#00dc00;fill-opacity:1;stroke:#000000;stroke-width:1"
     id="ellipse86"
     sodipodi:cx="13.5991"
     sodipodi:cy="50.980801"
     sodipodi:rx="0.75416601"
     sodipodi:ry="0.83795899"
     transform="matrix(0.48412552,0,0,0.48412552,0.24206276,9.1630224)" />
  <rect
     x="6.217237"
     y="13.884651"
     width="2.7586102"
     height="0.40567735"
     style="fill:#b9b9b9;fill-opacity:1;stroke:#000000;stroke-width:0.48412552"
     id="rect88" />
  <rect
     x="6.217237"
     y="15.155815"
     width="2.7586102"
     height="0.40567735"
     style="fill:#b9b9b9;fill-opacity:1;stroke:#000000;stroke-width:0.48412552"
     id="rect90" />
  <rect
     x="6.217237"
     y="16.426941"
     width="2.7586102"
     height="0.40567735"
     style="fill:#b9b9b9;fill-opacity:1;stroke:#000000;stroke-width:0.48412552"
     id="rect92" />
  <rect
     x="6.217237"
     y="17.698059"
     width="2.7586102"
     height="0.40567735"
     style="fill:#b9b9b9;fill-opacity:1;stroke:#000000;stroke-width:0.48412552"
     id="rect94" />
  <rect
     x="6.217237"
     y="18.96917"
     width="2.7586102"
     height="0.40567735"
     style="fill:#b9b9b9;fill-opacity:1;stroke:#000000;stroke-width:0.48412552"
     id="rect96" />
  <rect
     x="6.217237"
     y="20.240295"
     width="2.7586102"
     height="0.40567735"
     style="fill:#b9b9b9;fill-opacity:1;stroke:#000000;stroke-width:0.48412552"
     id="rect98" />
  <rect
     x="6.217237"
     y="21.511414"
     width="2.7586102"
     height="0.40567735"
     style="fill:#b9b9b9;fill-opacity:1;stroke:#000000;stroke-width:0.48412552"
     id="rect100" />
  <rect
     x="6.2983761"
     y="30.030579"
     width="2.5963311"
     height="2.7586102"
     style="fill:#9b9b9b;fill-opacity:1;stroke:#000000;stroke-width:0.48412552"
     id="rect102" />
  <rect
     x="6.3794675"
     y="22.485046"
     width="2.5152016"
     height="7.0587921"
     style="fill:#dcdcdc;fill-opacity:1;stroke:#000000;stroke-width:0.48412552"
     id="rect104" />
  <rect
     x="13.810164"
     y="12.99221"
     width="3.6511099"
     height="21.987722"
     style="fill:#dcdcdc;fill-opacity:1;stroke:#000000;stroke-width:0.48412552"
     id="rect106" />
  <ellipse
     cx="30.121"
     cy="50.980801"
     rx="0.75416601"
     ry="0.83795899"
     style="fill:#00dc00;fill-opacity:1;stroke:#000000;stroke-width:1"
     id="ellipse108"
     sodipodi:cx="30.121"
     sodipodi:cy="50.980801"
     sodipodi:rx="0.75416601"
     sodipodi:ry="0.83795899"
     transform="matrix(0.48412552,0,0,0.48412552,0.24206276,9.1630224)" />
  <rect
     x="14.215813"
     y="13.884651"
     width="2.7586102"
     height="0.40567735"
     style="fill:#b9b9b9;fill-opacity:1;stroke:#000000;stroke-width:0.48412552"
     id="rect110" />
  <rect
     x="14.215813"
     y="15.155815"
     width="2.7586102"
     height="0.40567735"
     style="fill:#b9b9b9;fill-opacity:1;stroke:#000000;stroke-width:0.48412552"
     id="rect112" />
  <rect
     x="14.215813"
     y="16.426941"
     width="2.7586102"
     height="0.40567735"
     style="fill:#b9b9b9;fill-opacity:1;stroke:#000000;stroke-width:0.48412552"
     id="rect114" />
  <rect
     x="14.215813"
     y="17.698059"
     width="2.7586102"
     height="0.40567735"
     style="fill:#b9b9b9;fill-opacity:1;stroke:#000000;stroke-width:0.48412552"
     id="rect116" />
  <rect
     x="14.215813"
     y="18.96917"
     width="2.7586102"
     height="0.40567735"
     style="fill:#b9b9b9;fill-opacity:1;stroke:#000000;stroke-width:0.48412552"
     id="rect118" />
  <rect
     x="14.215813"
     y="20.240295"
     width="2.7586102"
     height="0.40567735"
     style="fill:#b9b9b9;fill-opacity:1;stroke:#000000;stroke-width:0.48412552"
     id="rect120" />
  <rect
     x="14.215813"
     y="21.511414"
     width="2.7586102"
     height="0.40567735"
     style="fill:#b9b9b9;fill-opacity:1;stroke:#000000;stroke-width:0.48412552"
     id="rect122" />
  <rect
     x="14.297002"
     y="30.030579"
     width="2.5963311"
     height="2.7586102"
     style="fill:#9b9b9b;fill-opacity:1;stroke:#000000;stroke-width:0.48412552"
     id="rect124" />
  <rect
     x="14.378189"
     y="22.485046"
     width="2.5152016"
     height="7.0587921"
     style="fill:#dcdcdc;fill-opacity:1;stroke:#000000;stroke-width:0.48412552"
     id="rect126" />
  <rect
     x="17.809624"
     y="12.99221"
     width="3.6511099"
     height="21.987722"
     style="fill:#dcdcdc;fill-opacity:1;stroke:#000000;stroke-width:0.48412552"
     id="rect128" />
  <ellipse
     cx="38.382099"
     cy="50.980801"
     rx="0.75416601"
     ry="0.83795899"
     style="fill:#00dc00;fill-opacity:1;stroke:#000000;stroke-width:1"
     id="ellipse130"
     sodipodi:cx="38.382099"
     sodipodi:cy="50.980801"
     sodipodi:rx="0.75416601"
     sodipodi:ry="0.83795899"
     transform="matrix(0.48412552,0,0,0.48412552,0.24206276,9.1630224)" />
  <rect
     x="18.215223"
     y="13.884651"
     width="2.7586102"
     height="0.40567735"
     style="fill:#b9b9b9;fill-opacity:1;stroke:#000000;stroke-width:0.48412552"
     id="rect132" />
  <rect
     x="18.215223"
     y="15.155815"
     width="2.7586102"
     height="0.40567735"
     style="fill:#b9b9b9;fill-opacity:1;stroke:#000000;stroke-width:0.48412552"
     id="rect134" />
  <rect
     x="18.215223"
     y="16.426941"
     width="2.7586102"
     height="0.40567735"
     style="fill:#b9b9b9;fill-opacity:1;stroke:#000000;stroke-width:0.48412552"
     id="rect136" />
  <rect
     x="18.215223"
     y="17.698059"
     width="2.7586102"
     height="0.40567735"
     style="fill:#b9b9b9;fill-opacity:1;stroke:#000000;stroke-width:0.48412552"
     id="rect138" />
  <rect
     x="18.215223"
     y="18.96917"
     width="2.7586102"
     height="0.40567735"
     style="fill:#b9b9b9;fill-opacity:1;stroke:#000000;stroke-width:0.48412552"
     id="rect140" />
  <rect
     x="18.215223"
     y="20.240295"
     width="2.7586102"
     height="0.40567735"
     style="fill:#b9b9b9;fill-opacity:1;stroke:#000000;stroke-width:0.48412552"
     id="rect142" />
  <rect
     x="18.215223"
     y="21.511414"
     width="2.7586102"
     height="0.40567735"
     style="fill:#b9b9b9;fill-opacity:1;stroke:#000000;stroke-width:0.48412552"
     id="rect144" />
  <rect
     x="18.296412"
     y="30.030579"
     width="2.5963311"
     height="2.7586102"
     style="fill:#9b9b9b;fill-opacity:1;stroke:#000000;stroke-width:0.48412552"
     id="rect146" />
  <rect
     x="18.377598"
     y="22.485046"
     width="2.5152016"
     height="7.0587921"
     style="fill:#dcdcdc;fill-opacity:1;stroke:#000000;stroke-width:0.48412552"
     id="rect148" />
  <rect
     x="9.8108521"
     y="12.99221"
     width="3.6511099"
     height="21.987722"
     style="fill:#dcdcdc;fill-opacity:1;stroke:#000000;stroke-width:0.48412552"
     id="rect150" />
  <ellipse
     cx="21.8599"
     cy="50.980801"
     rx="0.75416601"
     ry="0.83795899"
     style="fill:#00dc00;fill-opacity:1;stroke:#000000;stroke-width:1"
     id="ellipse152"
     sodipodi:cx="21.8599"
     sodipodi:cy="50.980801"
     sodipodi:rx="0.75416601"
     sodipodi:ry="0.83795899"
     transform="matrix(0.48412552,0,0,0.48412552,0.24206276,9.1630224)" />
  <rect
     x="10.216646"
     y="13.884651"
     width="2.7586102"
     height="0.40567735"
     style="fill:#b9b9b9;fill-opacity:1;stroke:#000000;stroke-width:0.48412552"
     id="rect154" />
  <rect
     x="10.216646"
     y="15.155815"
     width="2.7586102"
     height="0.40567735"
     style="fill:#b9b9b9;fill-opacity:1;stroke:#000000;stroke-width:0.48412552"
     id="rect156" />
  <rect
     x="10.216646"
     y="16.426941"
     width="2.7586102"
     height="0.40567735"
     style="fill:#b9b9b9;fill-opacity:1;stroke:#000000;stroke-width:0.48412552"
     id="rect158" />
  <rect
     x="10.216646"
     y="17.698059"
     width="2.7586102"
     height="0.40567735"
     style="fill:#b9b9b9;fill-opacity:1;stroke:#000000;stroke-width:0.48412552"
     id="rect160" />
  <rect
     x="10.216646"
     y="18.96917"
     width="2.7586102"
     height="0.40567735"
     style="fill:#b9b9b9;fill-opacity:1;stroke:#000000;stroke-width:0.48412552"
     id="rect162" />
  <rect
     x="10.216646"
     y="20.240295"
     width="2.7586102"
     height="0.40567735"
     style="fill:#b9b9b9;fill-opacity:1;stroke:#000000;stroke-width:0.48412552"
     id="rect164" />
  <rect
     x="10.216646"
     y="21.511414"
     width="2.7586102"
     height="0.40567735"
     style="fill:#b9b9b9;fill-opacity:1;stroke:#000000;stroke-width:0.48412552"
     id="rect166" />
  <rect
     x="10.297786"
     y="30.030579"
     width="2.5963311"
     height="2.7586102"
     style="fill:#9b9b9b;fill-opacity:1;stroke:#000000;stroke-width:0.48412552"
     id="rect168" />
  <rect
     x="10.378732"
     y="22.485046"
     width="2.5152016"
     height="7.0587921"
     style="fill:#dcdcdc;fill-opacity:1;stroke:#000000;stroke-width:0.48412552"
     id="rect170" />
  <rect
     x="21.808788"
     y="12.99221"
     width="3.6511099"
     height="21.987722"
     style="fill:#dcdcdc;fill-opacity:1;stroke:#000000;stroke-width:0.48412552"
     id="rect172" />
  <ellipse
     cx="46.642799"
     cy="50.980801"
     rx="0.75416601"
     ry="0.83795899"
     style="fill:#00dc00;fill-opacity:1;stroke:#000000;stroke-width:1"
     id="ellipse174"
     sodipodi:cx="46.642799"
     sodipodi:cy="50.980801"
     sodipodi:rx="0.75416601"
     sodipodi:ry="0.83795899"
     transform="matrix(0.48412552,0,0,0.48412552,0.24206276,9.1630224)" />
  <rect
     x="22.21468"
     y="13.884651"
     width="2.7586102"
     height="0.40567735"
     style="fill:#b9b9b9;fill-opacity:1;stroke:#000000;stroke-width:0.48412552"
     id="rect176" />
  <rect
     x="22.21468"
     y="15.155815"
     width="2.7586102"
     height="0.40567735"
     style="fill:#b9b9b9;fill-opacity:1;stroke:#000000;stroke-width:0.48412552"
     id="rect178" />
  <rect
     x="22.21468"
     y="16.426941"
     width="2.7586102"
     height="0.40567735"
     style="fill:#b9b9b9;fill-opacity:1;stroke:#000000;stroke-width:0.48412552"
     id="rect180" />
  <rect
     x="22.21468"
     y="17.698059"
     width="2.7586102"
     height="0.40567735"
     style="fill:#b9b9b9;fill-opacity:1;stroke:#000000;stroke-width:0.48412552"
     id="rect182" />
  <rect
     x="22.21468"
     y="18.96917"
     width="2.7586102"
     height="0.40567735"
     style="fill:#b9b9b9;fill-opacity:1;stroke:#000000;stroke-width:0.48412552"
     id="rect184" />
  <rect
     x="22.21468"
     y="20.240295"
     width="2.7586102"
     height="0.40567735"
     style="fill:#b9b9b9;fill-opacity:1;stroke:#000000;stroke-width:0.48412552"
     id="rect186" />
  <rect
     x="22.21468"
     y="21.511414"
     width="2.7586102"
     height="0.40567735"
     style="fill:#b9b9b9;fill-opacity:1;stroke:#000000;stroke-width:0.48412552"
     id="rect188" />
  <rect
     x="22.295626"
     y="30.030579"
     width="2.5963311"
     height="2.7586102"
     style="fill:#9b9b9b;fill-opacity:1;stroke:#000000;stroke-width:0.48412552"
     id="rect190" />
  <rect
     x="22.376766"
     y="22.485046"
     width="2.5152016"
     height="7.0587921"
     style="fill:#dcdcdc;fill-opacity:1;stroke:#000000;stroke-width:0.48412552"
     id="rect192" />
  <rect
     x="23.158339"
     y="37.684494"
     width="0.73022103"
     height="8.6815329"
     style="fill:#696969;fill-opacity:1;stroke:#000000;stroke-width:0.48412552"
     id="rect194" />
  <rect
     x="24.734797"
     y="37.684494"
     width="0.73022103"
     height="8.6815329"
     style="fill:#696969;fill-opacity:1;stroke:#000000;stroke-width:0.48412552"
     id="rect196" />
  <rect
     x="5.1708479"
     y="70.863846"
     width="26.22842"
     height="25.755867"
     style="fill:#ffffdc;fill-opacity:1;stroke:#878787;stroke-width:0.48412552"
     id="rect198" />
  <polyline
     points="24.5622 130.468 24.5622 171.749"
     style="stroke:#000000;stroke-width:1"
     id="polyline200"
     transform="matrix(0.48412552,0,0,0.48412552,0.24206276,9.1630224)" />
  <path
     d="m 15.787575,88.405172 c 1.23331,-1.12898 2.500267,-0.94695 2.94968,-0.82689 0.738437,0.19753 1.535211,0.62598 2.039912,1.58648 0,0 0,0 0,0"
     style="stroke:#000000;stroke-width:0.48412552;stroke-dasharray:0.96825105, 0.96825105"
     id="path202" />
  <polyline
     points="28.2291 164.293 24.503 164.293"
     style="stroke:#000000;stroke-width:1"
     id="polyline204"
     transform="matrix(0.48412552,0,0,0.48412552,0.24206276,9.1630224)" />
  <ellipse
     cx="24.562201"
     cy="164.23199"
     rx="0.68723798"
     ry="0.624762"
     style="fill:#000000;fill-opacity:1;stroke:#000000;stroke-width:1"
     id="ellipse206"
     sodipodi:cx="24.562201"
     sodipodi:cy="164.23199"
     sodipodi:rx="0.68723798"
     sodipodi:ry="0.624762"
     transform="matrix(0.48412552,0,0,0.48412552,0.24206276,9.1630224)" />
  <rect
     x="13.733769"
     y="87.824707"
     width="2.4820824"
     height="1.7905915"
     style="fill:#dcdcdc;fill-opacity:1;stroke:#000000;stroke-width:0.48412552"
     id="rect208" />
  <path
     d="m 20.032001,91.260542 c -0.219019,-0.34808 0.08196,-0.92177 0.531812,-0.8995 0.303256,0.0155 -1.843357,-0.11813 -1.203149,-0.81091 0.523291,-0.56595 2.012268,-0.67487 2.347621,-0.29822 0.06095,0.0687 -0.172494,-0.11716 -0.122048,-0.21883 0.19307,-0.38875 1.198356,-0.68068 1.590014,-0.69278 0.489644,-0.0145 1.64685,0.1249 1.752389,0.45072 0.02658,0.0823 0.06095,0.0131 -0.03437,0.17186 -0.0976,0.16219 0.429903,-0.32339 1.418827,0.20769 0.461613,0.24739 0.184645,0.75814 -0.09213,0.86465 -0.361497,0.13846 -0.508768,0.0804 -0.211079,0.091 0.963894,0.0339 0.672499,1.04668 -1.00214,0.99342 -0.699997,-0.0223 -0.600461,-0.52334 -0.619826,-0.18977 -0.01322,0.22753 -1.84142,0.47541 -1.75389,0.1065 0.05224,-0.21979 0.10554,0.2348 -0.619681,0.53109 -0.29977,0.122 -1.688,-0.0155 -1.898885,-0.25804 z"
     style="fill:#95f5ff;fill-opacity:1;stroke:#000000;stroke-width:0.48412552"
     id="path210" />
  <ellipse
     cx="55.094299"
     cy="142.69901"
     rx="0.68723798"
     ry="0.624762"
     style="fill:#000000;fill-opacity:1;stroke:#000000;stroke-width:1"
     id="ellipse212"
     sodipodi:cx="55.094299"
     sodipodi:cy="142.69901"
     sodipodi:rx="0.68723798"
     sodipodi:ry="0.624762"
     transform="matrix(0.48412552,0,0,0.48412552,0.24206276,9.1630224)" />
  <polyline
     points="54.3904 142.699 50.6643 142.699"
     style="stroke:#000000;stroke-width:1"
     id="polyline214"
     transform="matrix(0.48412552,0,0,0.48412552,0.24206276,9.1630224)" />
  <rect
     x="22.860117"
     y="77.658066"
     width="2.1441195"
     height="1.1784971"
     style="fill:#696969;fill-opacity:1;stroke:#000000;stroke-width:0.48412552"
     id="rect216" />
  <ellipse
     cx="55.094299"
     cy="148.409"
     rx="0.68723798"
     ry="0.624762"
     style="fill:#000000;fill-opacity:1;stroke:#000000;stroke-width:1"
     id="ellipse218"
     sodipodi:cx="55.094299"
     sodipodi:cy="148.409"
     sodipodi:rx="0.68723798"
     sodipodi:ry="0.624762"
     transform="matrix(0.48412552,0,0,0.48412552,0.24206276,9.1630224)" />
  <polyline
     points="54.8431 148.409 51.1174 148.409"
     style="stroke:#000000;stroke-width:1"
     id="polyline220"
     transform="matrix(0.48412552,0,0,0.48412552,0.24206276,9.1630224)" />
  <rect
     x="22.860117"
     y="80.422424"
     width="2.1441195"
     height="1.1784971"
     style="fill:#696969;fill-opacity:1;stroke:#000000;stroke-width:0.48412552"
     id="rect222" />
  <ellipse
     cx="55.094299"
     cy="154.752"
     rx="0.68723798"
     ry="0.624762"
     style="fill:#000000;fill-opacity:1;stroke:#000000;stroke-width:1"
     id="ellipse224"
     sodipodi:cx="55.094299"
     sodipodi:cy="154.752"
     sodipodi:rx="0.68723798"
     sodipodi:ry="0.624762"
     transform="matrix(0.48412552,0,0,0.48412552,0.24206276,9.1630224)" />
  <polyline
     points="54.6069 154.752 50.8808 154.752"
     style="stroke:#000000;stroke-width:1"
     id="polyline226"
     transform="matrix(0.48412552,0,0,0.48412552,0.24206276,9.1630224)" />
  <rect
     x="22.522051"
     y="83.187271"
     width="2.4820824"
     height="1.7905915"
     style="fill:#dcdcdc;fill-opacity:1;stroke:#000000;stroke-width:0.48412552"
     id="rect228" />
  <polyline
     points="55.0205 138.323 55.0992 159.08"
     style="stroke:#000000;stroke-width:1"
     id="polyline230"
     transform="matrix(0.48412552,0,0,0.48412552,0.24206276,9.1630224)" />
  <path
     d="m 22.520067,84.152612 c -0.287571,0 -0.411749,0 -0.496713,0 -0.09576,0 -0.363578,0.047 -0.46142,0.0973 -0.198443,0.10264 -0.449752,0.32049 -0.570154,0.4759 -0.06889,0.0891 -0.29585,0.41877 -0.334144,0.5243 -0.09334,0.25708 -0.155937,0.68795 -0.182515,0.95615 -0.01743,0.17526 0.01544,0.67003 0.05809,0.85061 0.01423,0.0605 0.114253,0.28902 0.141849,0.34083 0.06637,0.12393 0.156711,0.3171 0.234801,0.43474 0.103554,0.15589 0.416977,0.4972 0.54038,0.63808 0.06531,0.0745 0.236108,0.23625 0.305774,0.30548 0.05209,0.0523 0.148481,0.19607 0.229234,0.22948 0,0 0,0 0,0"
     style="stroke:#000000;stroke-width:0.48412552;stroke-dasharray:0.96825105, 0.96825105"
     id="path232" />
  <polyline
     points="28.2291 158.571 24.503 158.571"
     style="stroke:#000000;stroke-width:1"
     id="polyline234"
     transform="matrix(0.48412552,0,0,0.48412552,0.24206276,9.1630224)" />
  <ellipse
     cx="24.562201"
     cy="158.50999"
     rx="0.68723798"
     ry="0.624762"
     style="fill:#000000;fill-opacity:1;stroke:#000000;stroke-width:1"
     id="ellipse236"
     sodipodi:cx="24.562201"
     sodipodi:cy="158.50999"
     sodipodi:rx="0.68723798"
     sodipodi:ry="0.624762"
     transform="matrix(0.48412552,0,0,0.48412552,0.24206276,9.1630224)" />
  <rect
     x="13.733769"
     y="85.342117"
     width="2.1441195"
     height="1.1784971"
     style="fill:#696969;fill-opacity:1;stroke:#000000;stroke-width:0.48412552"
     id="rect238" />
  <polyline
     points="28.2291 152.849 24.503 152.849"
     style="stroke:#000000;stroke-width:1"
     id="polyline240"
     transform="matrix(0.48412552,0,0,0.48412552,0.24206276,9.1630224)" />
  <ellipse
     cx="24.562201"
     cy="152.789"
     rx="0.68723798"
     ry="0.624762"
     style="fill:#000000;fill-opacity:1;stroke:#000000;stroke-width:1"
     id="ellipse242"
     sodipodi:cx="24.562201"
     sodipodi:cy="152.789"
     sodipodi:rx="0.68723798"
     sodipodi:ry="0.624762"
     transform="matrix(0.48412552,0,0,0.48412552,0.24206276,9.1630224)" />
  <rect
     x="13.733769"
     y="82.571945"
     width="2.1441195"
     height="1.1784971"
     style="fill:#696969;fill-opacity:1;stroke:#000000;stroke-width:0.48412552"
     id="rect244" />
  <polyline
     points="28.2291 147.128 24.503 147.128"
     style="stroke:#000000;stroke-width:1"
     id="polyline246"
     transform="matrix(0.48412552,0,0,0.48412552,0.24206276,9.1630224)" />
  <ellipse
     cx="24.562201"
     cy="147.067"
     rx="0.68723798"
     ry="0.624762"
     style="fill:#000000;fill-opacity:1;stroke:#000000;stroke-width:1"
     id="ellipse248"
     sodipodi:cx="24.562201"
     sodipodi:cy="147.067"
     sodipodi:rx="0.68723798"
     sodipodi:ry="0.624762"
     transform="matrix(0.48412552,0,0,0.48412552,0.24206276,9.1630224)" />
  <rect
     x="13.733769"
     y="79.801773"
     width="2.1441195"
     height="1.1784971"
     style="fill:#696969;fill-opacity:1;stroke:#000000;stroke-width:0.48412552"
     id="rect250" />
  <polyline
     points="28.2291 141.406 24.503 141.406"
     style="stroke:#000000;stroke-width:1"
     id="polyline252"
     transform="matrix(0.48412552,0,0,0.48412552,0.24206276,9.1630224)" />
  <ellipse
     cx="24.562201"
     cy="141.345"
     rx="0.68723798"
     ry="0.624762"
     style="fill:#000000;fill-opacity:1;stroke:#000000;stroke-width:1"
     id="ellipse254"
     sodipodi:cx="24.562201"
     sodipodi:cy="141.345"
     sodipodi:rx="0.68723798"
     sodipodi:ry="0.624762"
     transform="matrix(0.48412552,0,0,0.48412552,0.24206276,9.1630224)" />
  <rect
     x="13.733769"
     y="77.032089"
     width="2.1441195"
     height="1.1784971"
     style="fill:#696969;fill-opacity:1;stroke:#000000;stroke-width:0.48412552"
     id="rect256" />
  <polyline
     points="14.852 135.05 24.6 135.091"
     style="stroke:#000000;stroke-width:1"
     id="polyline258"
     transform="matrix(0.48412552,0,0,0.48412552,0.24206276,9.1630224)" />
  <ellipse
     cx="24.521299"
     cy="134.981"
     rx="1.36068"
     ry="1.23698"
     style="fill:#000000;fill-opacity:1;stroke:#000000;stroke-width:1"
     id="ellipse260"
     sodipodi:cx="24.521299"
     sodipodi:cy="134.981"
     sodipodi:rx="1.36068"
     sodipodi:ry="1.23698"
     transform="matrix(0.48412552,0,0,0.48412552,0.24206276,9.1630224)" />
  <rect
     x="0.24206276"
     y="72.328812"
     width="8.8300629"
     height="4.5493321"
     style="fill:#a50000;fill-opacity:1;stroke:#000000;stroke-width:0.48412552"
     id="rect262" />
  <polyline
     points="65.1856 43.3337 127.268 43.3337"
     style="stroke:#a50000;stroke-width:1"
     class="TAG:BOTH_ARROW"
     id="polyline264"
     transform="matrix(0.48412552,0,0,0.48412552,0.24206276,9.1630224)" />
  <polyline
     points="70.8732 149.91 132.956 149.91"
     style="stroke:#a50000;stroke-width:1"
     class="TAG:BOTH_ARROW"
     id="polyline266"
     transform="matrix(0.48412552,0,0,0.48412552,0.24206276,9.1630224)" />
  <polyline
     points="31.1739 84.172 31.1739 122.172"
     style="stroke:#a50000;stroke-width:1"
     class="TAG:BOTH_ARROW"
     id="polyline268"
     transform="matrix(0.48412552,0,0,0.48412552,0.24206276,9.1630224)" />
  <polyline
     points="173.348 72.1946 173.348 110.194"
     style="stroke:#a50000;stroke-width:1"
     class="TAG:BOTH_ARROW"
     id="polyline270"
     transform="matrix(0.48412552,0,0,0.48412552,0.24206276,9.1630224)" />
  <polyline
     points="67.1518 122.529 132.36 72.706"
     style="stroke:#a50000;stroke-width:1"
     class="TAG:BOTH_ARROW"
     id="polyline272"
     transform="matrix(0.48412552,0,0,0.48412552,0.24206276,9.1630224)" />
  <polyline
     points="134.558 116.667 64.9538 71.9733"
     style="stroke:#a50000;stroke-width:1"
     class="TAG:BOTH_ARROW"
     id="polyline274"
     transform="matrix(0.48412552,0,0,0.48412552,0.24206276,9.1630224)" />
  <ellipse
     cx="102.779"
     cy="93.565498"
     rx="55.9207"
     ry="55.9207"
     style="fill:#00a500;fill-opacity:1;stroke:#000000;stroke-width:3"
     class="TAG:iconCanvas"
     id="ellipse276"
     sodipodi:cx="102.779"
     sodipodi:cy="93.565498"
     sodipodi:rx="55.9207"
     sodipodi:ry="55.9207"
     transform="matrix(0.48412552,0,0,0.48412552,0.24206276,9.1630224)" />
</svg>
