<?xml version="1.0" encoding="UTF-8" standalone="no"?>

<svg
 xmlns:dc="http://purl.org/dc/elements/1.1/"
   xmlns:cc="http://creativecommons.org/ns#"
   xmlns:rdf="http://www.w3.org/1999/02/22-rdf-syntax-ns#"
   xmlns:svg="http://www.w3.org/2000/svg"
   xmlns="http://www.w3.org/2000/svg"
   xmlns:sodipodi="http://sodipodi.sourceforge.net/DTD/sodipodi-0.dtd"
   xmlns:inkscape="http://www.inkscape.org/namespaces/inkscape"
   id="svg2"
   version="1.1"
   inkscape:version="0.47 r22583"
   width="100"
   height="100"
   sodipodi:docname="tactic.svg">
  <metadata
     id="metadata20">
    <rdf:RDF>
      <cc:Work
         rdf:about="">
        <dc:format>image/svg+xml</dc:format>
        <dc:type
           rdf:resource="http://purl.org/dc/dcmitype/StillImage" />
      </cc:Work>
    </rdf:RDF>
  </metadata>
  <defs
     id="defs18">
    <inkscape:perspective
       sodipodi:type="inkscape:persp3d"
       inkscape:vp_x="0 : 0.5 : 1"
       inkscape:vp_y="0 : 1000 : 0"
       inkscape:vp_z="1 : 0.5 : 1"
       inkscape:persp3d-origin="0.5 : 0.33333333 : 1"
       id="perspective22" />
  </defs>
  <sodipodi:namedview
     pagecolor="#ffffff"
     bordercolor="#666666"
     borderopacity="1"
     objecttolerance="10"
     gridtolerance="10"
     guidetolerance="10"
     inkscape:pageopacity="0"
     inkscape:pageshadow="2"
     inkscape:window-width="1680"
     inkscape:window-height="994"
     id="namedview16"
     showgrid="false"
     inkscape:zoom="7.49"
     inkscape:cx="50"
     inkscape:cy="50"
     inkscape:window-x="-4"
     inkscape:window-y="-4"
     inkscape:window-maximized="1"
     inkscape:current-layer="svg2" />
  <polygon
     points="416.283,435.436 466.084,374.143 496.73,393.297 531.207,316.681 485.239,305.188 489.068,232.403 519.716,232.403 513.33,168.556 473.746,174.941 443.1,121.31 477.577,98.324 434.159,53.6316 408.621,79.1697 343.497,48.5237 357.544,12.7695 280.928,0 273.267,35.7544 194.095,45.9699 176.217,12.7695 109.817,48.5237 127.695,79.1697 105.987,98.324 56.1853,155.787 56.1853,155.787 29.3695,140.464 6.3853,197.925 37.0309,209.418 33.201,293.697 0,301.359 12.769,375.42 52.3554,358.82 94.4939,423.944 63.8467,454.591 114.924,495.452 144.294,462.253 213.25,492.899 201.757,526.1 283.482,531.207 278.374,492.899 362.651,473.746 385.635,515.884 446.93,466.084 "
     style="fill:#878787;fill-opacity:1;stroke:#000000;stroke-width:1"
     class="TAG:Gears"
     id="polygon4"
     transform="matrix(0.12077573,0,0,0.1207754,0.06249737,10.708841)" />
  <ellipse
     cx="264.646"
     cy="267.83801"
     rx="191.222"
     ry="191.222"
     style="fill:#f47a00;fill-opacity:1;stroke:#464646;stroke-width:1"
     class="TAG:Gears"
     id="ellipse6"
     sodipodi:cx="264.646"
     sodipodi:cy="267.83801"
     sodipodi:rx="191.222"
     sodipodi:ry="191.222"
     transform="matrix(0.12077573,0,0,0.1207754,0.06249737,10.708841)" />
  <ellipse
     cx="266.88101"
     cy="263.04999"
     rx="37.0313"
     ry="35.754398"
     style="fill:#dc0000;fill-opacity:1;stroke:#464646;stroke-width:1"
     class="TAG:Circles"
     id="ellipse8"
     sodipodi:cx="266.88101"
     sodipodi:cy="263.04999"
     sodipodi:rx="37.0313"
     sodipodi:ry="35.754398"
     transform="matrix(0.12077573,0,0,0.1207754,0.06249737,10.708841)" />
  <polygon
     points="746.29,588.787 781.242,545.77 802.749,559.214 826.946,505.443 794.684,497.376 797.373,446.294 818.881,446.294 814.399,401.486 786.617,405.966 765.11,368.327 789.306,352.197 758.838,320.831 740.913,338.754 695.209,317.247 705.067,292.153 651.296,283.191 645.918,308.284 590.356,315.453 577.809,292.153 531.209,317.247 543.754,338.754 528.52,352.197 493.57,392.524 493.57,392.524 474.749,381.771 458.618,422.098 480.126,430.163 477.438,489.311 454.137,494.688 463.1,546.666 490.88,535.017 520.453,580.721 498.946,602.229 534.793,630.907 555.406,607.606 603.798,629.115 595.733,652.415 653.088,656 649.504,629.115 708.651,615.671 724.782,645.246 767.799,610.296 "
     style="fill:#878787;fill-opacity:1;stroke:#000000;stroke-width:1"
     class="TAG:Gears"
     id="polygon10"
     transform="matrix(0.12077573,0,0,0.1207754,0.06249737,10.708841)" />
  <ellipse
     cx="639.87"
     cy="471.164"
     rx="134.202"
     ry="134.202"
     style="fill:#f47a00;fill-opacity:1;stroke:#464646;stroke-width:1"
     class="TAG:Gears"
     id="ellipse12"
     sodipodi:cx="639.87"
     sodipodi:cy="471.164"
     sodipodi:rx="134.202"
     sodipodi:ry="134.202"
     transform="matrix(0.12077573,0,0,0.1207754,0.06249737,10.708841)" />
  <ellipse
     cx="641.43701"
     cy="467.802"
     rx="25.9891"
     ry="25.0928"
     style="fill:#dc0000;fill-opacity:1;stroke:#464646;stroke-width:1"
     class="TAG:Circles"
     id="ellipse14"
     sodipodi:cx="641.43701"
     sodipodi:cy="467.802"
     sodipodi:rx="25.9891"
     sodipodi:ry="25.0928"
     transform="matrix(0.12077573,0,0,0.1207754,0.06249737,10.708841)" />
</svg>
