<?xml version="1.0"?>
<?metis version="3.1"?>
<?metisxml version="1.0"?>
<!DOCTYPE svg  PUBLIC "-//W3C//DTD SVG August 1999//EN"
 "http://www.w3.org/Graphics/SVG/svg-19990812.dtd">

<svg width="200" height="200">
 <title>Symbol library: tape_device.svg</title>
 <defs>
  <symbol id="oid0" xml:space="preserve" class="METIS_SYMBOL">
   <title>Type device</title>
    <g>
      <polygon points="8.88178e-015 0 8.88178e-015 304 16.2963 320 
       880 320 880 16 863.704 0 8.88178e-015 0 
       8.88178e-015 0 8.88178e-015 0 8.88178e-015 0 8.88178e-015 0 
       8.88178e-015 0 8.88178e-015 0 8.88178e-015 0 8.88178e-015 0 
       8.88178e-015 0 8.88178e-015 0 8.88178e-015 0 "
       style=" stroke:#000000; stroke-width:1; fill:#9b9b9b; fill-opacity:100%"       class="TAG:shadow"></polygon>
      <rect x="8.88178e-015" y="0" width="240" height="304"
       style=" stroke:#000000; stroke-width:1; fill:#ffffff; fill-opacity:100%"       class="TAG:PictureBackground"></rect>
      <rect x="240" y="0" width="624" height="304"
       style=" stroke:#000000; stroke-width:1; fill:#bbf9ff; fill-opacity:100%"       class="TAG:canvas"></rect>
      <g>
	<desc>METIS_TEXT_GROUP</desc>
	<text  x="256" y="15.8"
	 style=" stroke:#000000; stroke-width:1; font-family:sans-serif; font-size:16;"
	 class="TAG:text">text</text>
	<rect x="256" y="0" width="608" height="304"
	 style=" stroke:#000000; stroke-width:1; fill:#ffffff; fill-opacity:0%"></rect>
      </g>
      <polyline points="880 320 864 304"
       style=" stroke:#000000; stroke-width:1;"></polyline>
      <g>
	<ellipse  cx="120" cy="144" rx="104" ry="32"
	 style=" stroke:#000000; stroke-width:1; fill:#ffffa5; fill-opacity:100%"></ellipse>
	<ellipse  cx="120" cy="128" rx="104" ry="32"
	 style=" stroke:#000000; stroke-width:1; fill:#ffffa5; fill-opacity:100%"></ellipse>
	<ellipse  cx="120" cy="124" rx="26" ry="8"
	 style=" stroke:#000000; stroke-width:1; fill:#000000; fill-opacity:100%"></ellipse>
      </g>
    </g>
  </symbol>
 </defs>
</svg>
