<?xml version="1.0" encoding="UTF-8" standalone="no"?>
<svg
   xmlns:dc="http://purl.org/dc/elements/1.1/"
   xmlns:cc="http://creativecommons.org/ns#"
   xmlns:rdf="http://www.w3.org/1999/02/22-rdf-syntax-ns#"
   xmlns:svg="http://www.w3.org/2000/svg"
   xmlns="http://www.w3.org/2000/svg"
   xmlns:xlink="http://www.w3.org/1999/xlink"
   xmlns:sodipodi="http://sodipodi.sourceforge.net/DTD/sodipodi-0.dtd"
   xmlns:inkscape="http://www.inkscape.org/namespaces/inkscape"
   id="svg4150"
   viewBox="0 0 219 219"
   version="1.1"
   inkscape:version="0.47 r22583"
   width="219px"
   height="219px"
   sodipodi:docname="target-customer.svg">
  <sodipodi:namedview
     pagecolor="#ffffff"
     bordercolor="#666666"
     borderopacity="1"
     objecttolerance="10"
     gridtolerance="10"
     guidetolerance="10"
     inkscape:pageopacity="0"
     inkscape:pageshadow="2"
     inkscape:window-width="640"
     inkscape:window-height="480"
     id="namedview41"
     showgrid="false"
     inkscape:zoom="1.0776256"
     inkscape:cx="109.5"
     inkscape:cy="109.5"
     inkscape:current-layer="svg4150" />
  <defs
     id="defs4152">
    <inkscape:perspective
       sodipodi:type="inkscape:persp3d"
       inkscape:vp_x="0 : 109.5 : 1"
       inkscape:vp_y="0 : 1000 : 0"
       inkscape:vp_z="219 : 109.5 : 1"
       inkscape:persp3d-origin="109.5 : 73 : 1"
       id="perspective43" />
    <filter
       id="filter4001"
       color-interpolation-filters="sRGB">
      <feGaussianBlur
         id="feGaussianBlur4003"
         stdDeviation="2.5762289" />
    </filter>
    <filter
       id="filter4074"
       color-interpolation-filters="sRGB">
      <feGaussianBlur
         id="feGaussianBlur4076"
         stdDeviation="1.9582058" />
    </filter>
    <linearGradient
       id="linearGradient4097"
       y2="223.7"
       gradientUnits="userSpaceOnUse"
       x2="158.71"
       gradientTransform="translate(-462.3279,5.881974)"
       y1="149.16"
       x1="154.57">
      <stop
         id="stop326"
         stop-color="#FFF"
         offset="0.2978" />
      <stop
         id="stop328"
         stop-color="#FFF"
         offset="0.5955" />
      <stop
         id="stop330"
         stop-color="#EEE7E5"
         offset="0.9045" />
    </linearGradient>
    <radialGradient
       id="radialGradient4099"
       gradientUnits="userSpaceOnUse"
       cy="84.228"
       cx="76.512"
       gradientTransform="matrix(0.6983,0,0,0.6983,-410.0672,89.854475)"
       r="78.093">
      <stop
         id="stop347"
         stop-color="#FFF"
         offset="0.1573" />
      <stop
         id="stop349"
         stop-color="#724548"
         offset="0.8989" />
    </radialGradient>
    <linearGradient
       inkscape:collect="always"
       xlink:href="#linearGradient4097"
       id="linearGradient2849"
       gradientUnits="userSpaceOnUse"
       gradientTransform="translate(-462.3279,5.881974)"
       x1="154.57"
       y1="149.16"
       x2="158.71"
       y2="223.7" />
    <radialGradient
       inkscape:collect="always"
       xlink:href="#radialGradient4099"
       id="radialGradient2851"
       gradientUnits="userSpaceOnUse"
       gradientTransform="matrix(0.6983,0,0,0.6983,-410.0672,89.854475)"
       cx="76.512"
       cy="84.228"
       r="78.093" />
    <inkscape:perspective
       id="perspective4801"
       inkscape:persp3d-origin="0.5 : 0.33333333 : 1"
       inkscape:vp_z="1 : 0.5 : 1"
       inkscape:vp_y="0 : 1000 : 0"
       inkscape:vp_x="0 : 0.5 : 1"
       sodipodi:type="inkscape:persp3d" />
  </defs>
  <metadata
     id="metadata4155">
    <rdf:RDF>
      <cc:Work
         rdf:about="">
        <dc:format>image/svg+xml</dc:format>
        <dc:type
           rdf:resource="http://purl.org/dc/dcmitype/StillImage" />
        <dc:title />
      </cc:Work>
    </rdf:RDF>
  </metadata>
  <g
     id="g4787"
     transform="matrix(1.1818069,0,0,1.1818069,190.15271,-991.22176)">
    <path
       transform="translate(60.771643,813.46569)"
       d="m -43.142593,117.92308 c 0,47.42707 -38.447233,85.8743 -85.874297,85.8743 -47.42707,0 -85.8743,-38.44723 -85.8743,-85.8743 0,-47.427065 38.44723,-85.874298 85.8743,-85.874298 47.427064,0 85.874297,38.447233 85.874297,85.874298 z"
       sodipodi:ry="85.874298"
       sodipodi:rx="85.874298"
       sodipodi:cy="117.92308"
       sodipodi:cx="-129.01689"
       id="path3185"
       style="color:#000000;fill:#ffffff;fill-opacity:1;fill-rule:nonzero;stroke:#ff8282;stroke-width:12;stroke-miterlimit:4;stroke-opacity:1;stroke-dasharray:none;marker:none;visibility:visible;display:inline;overflow:visible;enable-background:accumulate"
       sodipodi:type="arc" />
    <path
       sodipodi:type="arc"
       style="color:#000000;fill:#ffffff;fill-opacity:1;fill-rule:nonzero;stroke:#ff8282;stroke-width:16.37882614;stroke-miterlimit:4;stroke-opacity:1;stroke-dasharray:none;marker:none;visibility:visible;display:inline;overflow:visible;enable-background:accumulate"
       id="path3959"
       sodipodi:cx="-129.01689"
       sodipodi:cy="117.92308"
       sodipodi:rx="85.874298"
       sodipodi:ry="85.874298"
       d="m -43.142593,117.92308 c 0,47.42707 -38.447233,85.8743 -85.874297,85.8743 -47.42707,0 -85.8743,-38.44723 -85.8743,-85.8743 0,-47.427065 38.44723,-85.874298 85.8743,-85.874298 47.427064,0 85.874297,38.447233 85.874297,85.874298 z"
       transform="matrix(0.73265319,0,0,0.73265319,26.279393,844.99205)" />
    <path
       transform="matrix(0.47188764,0,0,0.47188764,-7.3637673,875.74232)"
       d="m -43.142593,117.92308 c 0,47.42707 -38.447233,85.8743 -85.874297,85.8743 -47.42707,0 -85.8743,-38.44723 -85.8743,-85.8743 0,-47.427065 38.44723,-85.874298 85.8743,-85.874298 47.427064,0 85.874297,38.447233 85.874297,85.874298 z"
       sodipodi:ry="85.874298"
       sodipodi:rx="85.874298"
       sodipodi:cy="117.92308"
       sodipodi:cx="-129.01689"
       id="path3961"
       style="color:#000000;fill:#ffffff;fill-opacity:1;fill-rule:nonzero;stroke:#ff8282;stroke-width:25.42977905;stroke-miterlimit:4;stroke-opacity:1;stroke-dasharray:none;marker:none;visibility:visible;display:inline;overflow:visible;enable-background:accumulate"
       sodipodi:type="arc" />
    <path
       sodipodi:type="arc"
       style="color:#000000;fill:#ff8383;fill-opacity:1;fill-rule:nonzero;stroke:#db0000;stroke-width:0;stroke-miterlimit:4;stroke-opacity:1;stroke-dasharray:none;marker:none;visibility:visible;display:inline;overflow:visible;enable-background:accumulate"
       id="path3963"
       sodipodi:cx="-129.01689"
       sodipodi:cy="117.92308"
       sodipodi:rx="85.874298"
       sodipodi:ry="85.874298"
       d="m -43.142593,117.92308 c 0,47.42707 -38.447233,85.8743 -85.874297,85.8743 -47.42707,0 -85.8743,-38.44723 -85.8743,-85.8743 0,-47.427065 38.44723,-85.874298 85.8743,-85.874298 47.427064,0 85.874297,38.447233 85.874297,85.874298 z"
       transform="matrix(0.25179196,0,0,0.25179196,-35.759827,901.69669)" />
  </g>
  <g
     transform="matrix(1.1570148,0,0,1.1570148,480.3225,-89.793722)"
     id="g4078">
    <path
       style="opacity:0.5;fill:#000000;stroke:#ffffff;stroke-width:0.86429316;filter:url(#filter4074)"
       d="m -297.77,141.27 c -18.202,-0.036 -30.083,12.458 -28.781,17.438 0.17459,0.66623 0.50501,1.1617 0.90625,1.5312 h -37.25 c -0.0808,0 -0.17012,-0.004 -0.25,0 -0.10688,0 -0.20721,-0.006 -0.3125,0 -2.7586,0.15987 -4.9375,2.364 -4.9375,4.25 v 37.938 c 0,1.572 0.36075,2.8635 2.2188,3.8125 l 0.125,1.7188 v 44.531 c 0,5.067 4.2438,9.1562 9.4688,9.1562 h 117.31 c 5.227,0 9.4688,-4.0902 9.4688,-9.1562 v -45.344 -1.5625 c 0.13112,-0.0726 0.25978,-0.14073 0.375,-0.21875 1.814,-1.219 1.75,-3.0152 1.75,-4.6562 v -36.938 c 0,-1.7697 -1.9242,-3.2042 -4.4375,-3.4688 -0.26179,-0.0361 -0.53819,-0.0537 -0.8125,-0.0625 h -0.25 -37.312 c 3.977,-3.1514 -8.8716,-18.931 -27.281,-18.969 z m -1.3438,5.3125 c 0.50724,-0.0117 1.0349,-0.008 1.5625,0 14.154,0.214 20.392,6.0408 22.594,9.7188 0,0 -0.6287,2.7292 0.71875,3.9375 h -46.781 c 0.79308,-1.0723 0.22031,-3.5928 0.1875,-3.7812 0,0 5.9943,-9.5131 21.719,-9.875 z"
       id="path4021" />
    <path
       style="fill:#919090;stroke:#ffffff;stroke-width:0.86429316"
       d="m -333.32,150.89 c 0.755,2.881 4.206,2.739 5.364,1.725 1.05,-0.921 0.395,-3.767 0.36,-3.968 0,0 6.383,-10.138 23.267,-9.882 14.154,0.214 20.392,6.036 22.594,9.714 0,0 -1.252,5.395 3.471,4.386 6.692,-1.431 -6.644,-19.382 -26.281,-19.422 -18.202,-0.036 -30.077,12.468 -28.775,17.447 z"
       id="path319" />
    <path
       style="fill:#7c7c7c"
       d="m -332.25,150.34 c 0.592,1.702 2.788,1.946 3.486,1.215 0.859,-0.903 0.191,-3.133 0.574,-3.986 0,0 7.369,-10.731 23.902,-10.473 13.09,0.202 22.403,7.741 23.448,11.09 0,0 -0.667,5.362 2.585,3.708 4.085,-2.078 -8.853,-16.976 -25.99,-17.064 -17.128,-0.089 -29.073,12.448 -28.005,15.51 z"
       id="path321" />
    <path
       style="fill:#8e8682"
       d="m -236.56,244.66 c 0,5.066 -4.237,9.174 -9.464,9.174 h -117.33 c -5.225,0 -9.467,-4.107 -9.467,-9.174 v -68.578 c 0,-5.065 4.242,-9.175 9.467,-9.175 h 117.33 c 5.227,0 9.464,4.11 9.464,9.175 v 68.578 z"
       id="path323" />
    <path
       style="fill:url(#linearGradient2849)"
       d="m -238.44,243.47 c 0,4.887 -4.123,8.85 -9.209,8.85 h -114.09 c -5.089,0 -9.211,-3.963 -9.211,-8.85 v -66.186 c 0,-4.887 4.122,-8.853 9.211,-8.853 h 114.09 c 5.086,0 9.209,3.965 9.209,8.853 v 66.186 z"
       id="path332" />
    <path
       style="fill:#c1c1c1"
       d="m -240.58,241.27 c 0,4.654 -3.985,8.432 -8.909,8.432 h -110.4 c -4.919,0 -8.908,-3.777 -8.908,-8.432 v -63.055 c 0,-4.658 3.989,-8.435 8.908,-8.435 h 110.4 c 4.924,0 8.909,3.777 8.909,8.435 v 63.055 z"
       id="path334" />
    <path
       style="opacity:0.43999999;fill:#8e8682"
       d="m -249.49,169.78 h -23.3 c -1.801,21.949 1.101,38.179 -14.832,60.232 -10.217,17.553 -30.897,15.598 -43.965,19.689 h 82.097 c 4.924,0 8.909,-3.777 8.909,-8.432 v -63.055 c 0,-4.657 -3.985,-8.434 -8.909,-8.434 z"
       id="path336" />
    <path
       style="fill:#5b5b5b"
       d="m -303.17,203.25 c 44.247,-0.731 65.707,-5.053 65.707,-5.053 0.506,-0.186 0.927,-0.398 1.277,-0.635 1.814,-1.219 1.742,-3.039 1.742,-4.68 v -36.924 c 0,-1.957 -2.356,-3.544 -5.256,-3.544 h -129.97 c -2.908,0 -5.261,2.306 -5.261,4.264 v 37.933 c 0,1.436 0.312,2.635 1.778,3.557 0.001,0 46.712,5.467 69.982,5.082 z"
       id="path338" />
    <path
       style="fill:#d8d8d8"
       d="m -239.62,196.83 c 3.018,-1.066 2.926,-3.131 2.926,-4.957 v -34.445 c 0,-1.826 -2.283,-3.307 -5.094,-3.307 h -125.8 c -2.812,0 -5.092,2.151 -5.092,3.977 v 35.387 c 0,1.828 0.561,3.248 3.764,4.154 0,0 22.867,3.904 65.702,3.904 42.835,0 63.599,-4.713 63.599,-4.713 z"
       id="path340" />
    <path
       style="opacity:0.6;fill:#5b5b5b"
       d="m -242.88,154.94 h -28.729 c -1.296,15.034 -1.812,30.292 -5.694,44.282 24.548,-1.223 36.553,-3.842 36.553,-3.842 2.966,-1.012 2.871,-2.965 2.871,-4.695 v -32.614 c 0,-1.73 -2.239,-3.131 -5.001,-3.131 z"
       id="path342" />
    <path
       style="fill:#f0f0f0"
       d="m -242.71,154.67 h -122.34 c -2.734,0 -4.946,1.288 -4.946,1.873 v 2.245 c 0,-0.585 2.212,-1.06 4.946,-1.06 h 122.34 c 2.732,0 4.951,0.475 4.951,1.06 v -2.25 c -0.073,-1.099 -2.218,-1.868 -4.951,-1.868 z"
       id="path344" />
    <path
       style="opacity:0.70999995;fill:url(#radialGradient2851)"
       d="m -370.19,186.94 v -28.234 h 88.603 c -0.001,0.001 -75.15,-0.761 -88.603,28.234 z"
       id="path351" />
    <path
       style="opacity:0.70999995;fill:#a2a2a2"
       d="m -370.19,186.94 v -28.234 h 88.603 c -0.001,0.001 -75.15,-0.761 -88.603,28.234 z"
       id="path353" />
    <path
       style="fill:#4f4f4f"
       d="m -295.37,215.9 c 0,2.352 -1.663,4.256 -3.715,4.256 h -9.75 c -2.052,0 -3.714,-1.904 -3.714,-4.256 v -19.322 c 0,-2.35 1.662,-4.256 3.714,-4.256 h 9.75 c 2.052,0 3.715,1.906 3.715,4.256 V 215.9 z"
       id="path355" />
    <path
       style="fill:#bcbcbc"
       d="m -296.56,214.63 c 0,2.02 -1.429,3.656 -3.19,3.656 h -8.376 c -1.764,0 -3.191,-1.637 -3.191,-3.656 v -16.6 c 0,-2.02 1.428,-3.654 3.191,-3.654 h 8.376 c 1.762,0 3.19,1.635 3.19,3.654 v 16.6 z"
       id="path357" />
    <rect
       style="fill:#4f4f4f"
       x="-312.54999"
       y="208.91"
       width="17.179001"
       height="3.375"
       id="rect359" />
    <path
       style="fill:none;stroke:#ffffff;stroke-width:1.72858632"
       d="m -372.93,198.42 c -1.858,-0.949 -2.232,-2.24 -2.232,-3.812 v -37.933 c 0,-1.958 2.354,-4.264 5.261,-4.264 h 129.97 c 2.9,0 5.257,1.587 5.257,3.544 v 36.924 c 0,1.713 0.077,3.621 -1.994,4.838 l 0.108,1.617 v 45.328 c 0,5.066 -4.237,9.174 -9.464,9.174 h -117.33 c -5.225,0 -9.467,-4.107 -9.467,-9.174 v -44.531 l -0.108,-1.711 z"
       id="path361" />
  </g>
</svg>
