<?xml version="1.0"?>
<?metis version="3.0.1"?>
<?metisxml version="1.0"?>
<!DOCTYPE svg  PUBLIC "-//W3C//DTD SVG August 1999//EN"
 "http://www.w3.org/Graphics/SVG/svg-19990812.dtd">

<svg width="200" height="200">
 <title>Symbol library: target_user_symbol.svg</title>
 <defs>
  <symbol id="oid1" xml:space="preserve" class="METIS_SYMBOL">
   <title>Target Customer</title>
    <polygon points="303.571 48 303.16 41.735 301.935 35.577 
     299.917 29.631 297.14 24 293.652 18.779 289.512 14.059 
     284.792 9.919 279.571 6.431 273.94 3.654 267.994 1.636 
     261.836 0.411 255.571 0 249.306 0.411 243.148 1.636 
     237.202 3.654 231.571 6.431 226.35 9.919 221.63 14.059 
     217.49 18.779 214.002 24 211.225 29.631 209.207 35.577 
     207.982 41.735 207.571 48 207.982 54.265 209.207 60.423 
     211.225 66.369 214.002 72 217.49 77.221 221.63 81.941 
     226.35 86.081 231.571 89.569 231.571 112 159.571 112 
     159.571 240 207.571 288 223.571 496 287.571 496 
     303.571 288 351.571 240 351.571 112 279.571 112 
     279.571 89.569 284.792 86.081 289.512 81.941 293.652 77.221 
     297.14 72 299.917 66.369 301.935 60.423 303.16 54.265 303.571 48 "
     style=" stroke:#000000; stroke-width:1; fill:#ff962d; fill-opacity:100%"     class="TAG:polygon"></polygon>
    <g>
      <desc>METIS_TEXT_GROUP</desc>
      <text  x="0" y="483.904"
       style=" stroke:#000000; stroke-width:1; font-family:sans-serif; font-size:16; text-align:center"
       class="TAG:text">text</text>
      <rect x="0" y="468.104" width="511.142" height="369.492"
       style=" stroke:#000000; stroke-width:1; fill:#000000; fill-opacity:0%"></rect>
    </g>
  </symbol>
 </defs>
</svg>
