<?xml version="1.0" encoding="UTF-8" standalone="no"?>
<!-- Created with Inkscape (http://www.inkscape.org/) -->
<svg xmlns:rdf="http://www.w3.org/1999/02/22-rdf-syntax-ns#" xmlns="http://www.w3.org/2000/svg" height="219px" width="219px" version="1.1" xmlns:cc="http://creativecommons.org/ns#" xmlns:dc="http://purl.org/dc/elements/1.1/">
 <defs>
  <filter id="filter3801">
   <feGaussianBlur stdDeviation="0.54024051"/>
  </filter>
  <filter id="filter3813">
   <feGaussianBlur stdDeviation="0.58504671"/>
  </filter>
 </defs>
 <metadata>
  <rdf:RDF>
   <cc:Work rdf:about="">
    <dc:format>image/svg+xml</dc:format>
    <dc:type rdf:resource="http://purl.org/dc/dcmitype/StillImage"/>
    <dc:title/>
   </cc:Work>
  </rdf:RDF>
 </metadata>
 <g transform="translate(0,-833.36218)">
  <g fill-rule="nonzero" stroke-miterlimit="4" transform="matrix(1.1811248,0,0,1.1811248,190.50819,-156.98746)">
   <path style="enable-background:accumulate;color:#000000;" d="m-43.14,117.9c0,47.43-38.45,85.87-85.87,85.87-47.43,0-85.87-38.45-85.87-85.87,0-47.43,38.45-85.87,85.87-85.87,47.43,0,85.87,38.45,85.87,85.87z" transform="translate(60.771643,813.46569)" stroke="#ff8282" stroke-dasharray="none" stroke-width="10.15980721" fill="#FFF"/>
   <path style="enable-background:accumulate;color:#000000;" d="m-43.14,117.9c0,47.43-38.45,85.87-85.87,85.87-47.43,0-85.87-38.45-85.87-85.87,0-47.43,38.45-85.87,85.87-85.87,47.43,0,85.87,38.45,85.87,85.87z" transform="matrix(0.73265319,0,0,0.73265319,26.279393,844.99205)" stroke="#ff8282" stroke-dasharray="none" stroke-width="13.86714268" fill="#FFF"/>
   <path style="enable-background:accumulate;color:#000000;" d="m-43.14,117.9c0,47.43-38.45,85.87-85.87,85.87-47.43,0-85.87-38.45-85.87-85.87,0-47.43,38.45-85.87,85.87-85.87,47.43,0,85.87,38.45,85.87,85.87z" transform="matrix(0.47188764,0,0,0.47188764,-7.3637673,875.74232)" stroke="#ff8282" stroke-dasharray="none" stroke-width="21.53013802" fill="#FFF"/>
   <path style="enable-background:accumulate;color:#000000;" d="m-43.14,117.9c0,47.43-38.45,85.87-85.87,85.87-47.43,0-85.87-38.45-85.87-85.87,0-47.43,38.45-85.87,85.87-85.87,47.43,0,85.87,38.45,85.87,85.87z" transform="matrix(0.25179196,0,0,0.25179196,-35.759827,901.69669)" stroke-width="0" fill="#ff8383"/>
  </g>
  <g transform="translate(232,0)">
   <g fill-opacity="0.50196078" fill="#000">
    <path d="m208.9,82.26c0.1434-9.96-6.48-19.53-15.83-22.95-9.175-3.6-20.37-0.9666-26.9,6.446-6.901,7.358-8.368,19.09-3.557,27.94,4.458,8.736,14.51,14.11,24.24,12.99,10.2-0.8986,19.23-8.886,21.42-18.88,0.4195-1.815,0.629-3.679,0.6286-5.542z" transform="matrix(1.5664218,0,0,1.5516749,-377.15834,787.29779)" filter="url(#filter3801)"/>
    <path d="m-141.9,954.1c-12.17-0.4651-22.61,11.71-20.77,23.66,0.2256,19.02-0.5956,38.09,0.428,57.07,2.253,10.52,13.45,17.47,23.89,16.14,35.69,1.157,71.42,0.725,107.1-0.3809,11.2-1.688,19.02-13.6,17.15-24.57-0.2239-18.6,0.535-37.24-0.4543-55.8-2.254-10.84-13.93-17.86-24.62-16.04-34.24,0.6024-68.49,0.585-102.7-0.0725z" filter="url(#filter3813)"/>
   </g>
   <g stroke-dasharray="none" stroke-miterlimit="4" transform="translate(152,0)">
    <rect style="enable-background:accumulate;color:#000000;" fill-rule="nonzero" height="96.22" width="87.83" stroke="#d0d0d0" y="950.2" x="-287" stroke-width="1" fill="#FFF"/>
    <path d="m-205.8,910.8c0-21.05-17.22-38.09-38.46-38.09s-38.47,17.04-38.47,38.09c0,21.03,17.23,38.09,38.47,38.09,21.25-0.002,38.46-17.07,38.46-38.09z" stroke="#736135" stroke-width="1.51300001" fill="#927d44"/>
    <path d="m-297.7,950c-11.5,0-20.81,9.225-20.81,20.6v55.56c0,11.39,9.313,20.62,20.81,20.62h48.19l-31.86-96.79h-16.34z" stroke="#02032c" stroke-width="1.5" fill="#16185a"/>
    <path d="m-190.7,950h-16.33l-31.83,96.79h48.16c11.49,0,20.8-9.227,20.8-20.62v-55.56c0.002-11.38-9.313-20.6-20.8-20.6z" stroke="#02032c" stroke-width="1.5" fill="#16185a"/>
    <polygon transform="matrix(1.6662948,0,0,1.6506076,-544.775,770.19936)" stroke="#c2bc0f" points="180.4,156.1,191.6,121.4,180.4,112,169.1,121.4" stroke-width="1.0331465" fill="#ded511"/>
   </g>
  </g>
 </g>
</svg>
