<?xml version="1.0"?>
<?metis version="3.4"?>
<?metisxml version="1.1"?>
<!DOCTYPE svg  PUBLIC "-//W3C//DTD SVG August 1999//EN"
 "http://www.w3.org/Graphics/SVG/svg-19990812.dtd">

<svg width="200" height="200">
 <title>Symbol library: task.svg</title>
 <defs>
  <symbol id="oid1" xml:space="preserve" class="METIS_SYMBOL">
   <title>Task</title>
    <g>
      <polygon points="0 0 0 304 16.2963 320 
       880 320 880 16 863.704 0 0 0 
       0 0 0 0 0 0 0 0 
       0 0 0 0 0 0 "
       style=" stroke:#000000; stroke-width:1; fill:#9b9b9b; fill-opacity:100%"       class="TAG:shadow"></polygon>
      <rect x="0" y="0" width="240" height="304"
       style=" stroke:#000000; stroke-width:1; fill:#ffffa5; fill-opacity:100%"       class="TAG:PictureBackground"></rect>
      <rect x="240" y="0" width="624" height="224"
       style=" stroke:#000000; stroke-width:1; fill:#ffffdc; fill-opacity:100%"       class="TAG:canvas"></rect>
      <rect x="245.357" y="25.7143" width="569.522" height="231.429"
       style="stroke:none; fill:#878787; fill-opacity:0%"       class="TAG:grid"></rect>
      <g>
	<desc>METIS_TEXT_GROUP</desc>
	<text  x="256" y="15"
	 style=" stroke:#000000; stroke-width:1; font-family:sans-serif; font-size:16;"
	 class="TAG:text">text</text>
	<rect x="256" y="0" width="608" height="224"
	 style=" stroke:#000000; stroke-width:1; fill:#ffffff; fill-opacity:0%"></rect>
      </g>
      <polyline points="864 304 880 320"
       style=" stroke:#000000; stroke-width:1;"></polyline>
      <g>
	<polygon points="64 47.4079 82.6672 32 157.333 32 
	 176 47.4079 129.333 232.292 110.667 232.292 64 47.4079 
	 64 47.4079 64 47.4079 64 47.4079 64 47.4079 64 47.4079 "
	 style=" stroke:#000000; stroke-width:1; fill:#808080; fill-opacity:100%"	 class="TAG:polygon"></polygon>
	<polygon points="106 252.146 106 252.146 106 272 
	 134 272 134 252.146 106 252.146 106 252.146 
	 106 252.146 106 252.146 106 252.146 106 252.146 "
	 style=" stroke:#000000; stroke-width:1; fill:#808080; fill-opacity:100%"	 class="TAG:polygon"></polygon>
      </g>
      <polygon points="240 224 240 304 864 304 
       864 224 240 224 240 224 240 224 
       240 224 240 224 240 224 "
       style=" stroke:#000000; stroke-width:1; fill:#dcdcdc; fill-opacity:100%"       class="TAG:polyline"></polygon>
      <g>
	<desc>METIS_TEXT_GROUP</desc>
	<text  x="256" y="236"
	 style=" stroke:#000000; stroke-width:1; font-family:sans-serif; font-size:13;"
	 class="TAG:strat_value">strat_value</text>
	<rect x="256" y="224" width="608" height="78.4592"
	 style=" stroke:#000000; stroke-width:1; fill:#000000; fill-opacity:0%"></rect>
      </g>
    </g>
  </symbol>
 </defs>
</svg>
