<?xml version="1.0"?>
<?metis version="5.1"?>
<?metisxml version="1.2"?>
<!DOCTYPE svg  PUBLIC "-//W3C//DTD SVG 1.0//EN"
 "http://www.w3.org/TR/2001/REC-SVG-20010904/DTD/svg10.dtd">

<svg>
 <title>Symbol library: task_automated.svg</title>
 <defs>
  <symbol id="oid1" xml:space="preserve" class="METIS_SYMBOL">
   <title>Untitled</title>
    <polygon points="1007.81 1007.81 0 1007.81 0 0 
     1007.81 0 1007.81 1007.81"
     style="stroke:none; fill:#ffffff; fill-opacity:0%"></polygon>
    <polygon points="756.915 0 417.115 55.1151 235.363 86.6092 
     180.047 102.355 148.438 110.229 148.438 149.597 148.438 244.079 
     156.34 527.526 172.144 818.846 180.047 921.201 187.949 968.442 
     195.851 984.189 195.851 976.316 195.851 984.189 211.656 999.936 
     219.558 1007.81 227.46 1007.81 361.8 968.442 551.455 897.581 
     733.208 826.719 820.133 787.352 820.133 755.857 828.035 677.122 
     828.035 440.917 835.938 188.964 828.035 31.4941 820.133 15.747 
     804.329 0 796.426 0 756.915 0"
     style="stroke:none; fill:#143a72; fill-opacity:100%"></polygon>
    <polygon points="796.592 15.625 812.406 31.376 820.312 196.761 
     812.406 440.902 812.406 669.291 804.499 779.549 551.487 881.93 
     361.728 952.81 227.315 992.187 219.409 992.187 211.503 976.436 
     203.596 960.685 203.596 968.561 195.688 858.303 179.876 629.914 
     164.062 370.023 164.062 173.135 164.062 125.882 274.756 94.38 
     480.327 62.878 685.9 31.376 796.592 15.625"
     style="stroke:none; fill:#143a72; fill-opacity:100%"></polygon>
    <polygon points="780.515 23.438 440.625 78.566 258.823 110.068 
     195.588 125.819 171.875 133.694 171.875 173.072 171.875 267.578 
     179.78 551.096 195.588 834.614 203.493 944.871 211.398 992.124 
     219.301 1000 250.919 1000 322.058 976.373 535.478 921.245 
     740.992 850.365 812.132 826.738 843.75 810.988 843.75 771.61 
     843.75 677.104 843.75 417.212 835.845 78.566 827.94 31.313 
     827.94 23.438 820.036 23.438 780.515 23.438"
     style="stroke:none; fill:#143a72; fill-opacity:100%"></polygon>
    <polygon points="812.308 39.062 828.125 291.145 828.125 661.393 
     828.125 803.189 733.218 834.7 535.494 897.72 337.771 960.741 
     227.044 984.374 211.227 874.088 203.318 645.637 187.5 393.554 
     187.5 196.614 187.5 141.471 290.316 117.839 495.95 86.3286 
     693.673 54.8182 812.308 39.062"
     style="stroke:none; fill:#6094bf; fill-opacity:100%"></polygon>
    <polygon points="749.646 140.625 250 235.362 273.793 890.625 
     773.438 748.521 765.507 140.625 749.646 140.625"
     style="stroke:none; fill:#143a72; fill-opacity:100%"></polygon>
    <polygon points="749.875 156.25 757.813 740.728 289.44 875 
     265.625 251.03 749.875 156.25"
     style="stroke:none; fill:#ffffff; fill-opacity:100%"></polygon>
    <g>
      <polygon points="748.367 754.496 292.129 754.496 292.129 290.086 
       748.367 290.086 748.367 754.496"
       style="stroke:none; fill:#ffffff; fill-opacity:0%"></polygon>
      <polygon points="748.367 525.891 748.367 551.292 744.804 573.064 
       737.674 594.836 730.545 616.608 709.155 652.895 684.202 689.181 
       648.554 714.582 612.906 736.353 591.517 743.611 570.128 750.868 
       548.739 754.496 523.785 754.496 502.396 754.496 477.443 750.868 
       456.054 743.611 438.229 736.353 399.017 714.582 366.933 689.181 
       338.415 652.895 317.026 616.608 309.897 594.836 302.767 573.064 
       299.202 551.292 299.202 525.891 299.202 504.12 302.767 478.719 
       309.897 456.947 317.026 438.803 338.415 398.888 366.933 366.23 
       399.017 337.201 438.229 315.43 456.054 308.172 477.443 300.915 
       502.396 297.286 523.785 297.286 548.739 297.286 570.128 300.915 
       591.517 308.172 612.906 315.43 648.554 337.201 684.202 366.23 
       709.155 398.888 730.545 438.803 737.674 456.947 744.804 478.719 
       748.367 504.12 748.367 525.891"
       style="stroke:none; fill:#999999; fill-opacity:100%"></polygon>
      <polygon points="292.129 515.077 292.129 540.478 295.694 562.253 
       302.824 584.025 309.954 605.799 331.344 642.087 356.299 674.748 
       391.95 703.779 427.6 725.552 448.99 732.81 470.38 736.439 
       491.771 740.068 513.161 743.696 538.116 740.068 559.507 736.439 
       580.896 732.81 602.287 725.552 637.937 703.779 670.022 674.748 
       698.543 642.087 719.933 605.799 727.063 584.025 730.628 562.253 
       734.193 540.478 737.758 515.077 734.193 493.303 730.628 471.53 
       727.063 449.757 719.933 427.983 698.543 391.695 670.022 355.406 
       637.937 330.004 602.287 308.23 580.896 300.973 559.507 293.715 
       538.116 290.086 513.161 290.086 491.771 290.086 470.38 293.715 
       448.99 300.973 427.6 308.23 391.95 330.004 356.299 355.406 
       331.344 391.695 309.954 427.983 302.824 449.757 295.694 471.53 
       292.129 493.303 292.129 515.077"
       style="stroke:none; fill:#444444; fill-opacity:100%"></polygon>
      <polygon points="299.202 515.076 299.202 493.297 302.768 471.518 
       306.334 449.739 313.466 431.59 334.862 391.662 359.824 358.994 
       391.918 333.584 431.143 311.805 448.973 304.546 470.369 300.916 
       491.764 297.286 513.16 297.286 538.122 297.286 559.518 300.916 
       577.348 304.546 598.743 311.805 634.403 333.584 666.497 358.994 
       695.024 391.662 712.854 431.59 719.986 449.739 727.118 471.518 
       730.684 493.297 730.684 515.076 730.684 540.485 727.118 562.264 
       719.986 580.413 712.854 602.193 695.024 638.491 666.497 671.159 
       634.403 700.198 598.743 718.347 577.348 725.607 559.518 732.867 
       538.122 736.496 513.16 736.496 491.764 736.496 470.369 732.867 
       448.973 725.607 431.143 718.347 391.918 700.198 359.824 671.159 
       334.862 638.491 313.466 602.193 306.334 580.413 302.768 562.264 
       299.202 540.485 299.202 515.076"
       style="stroke:none; fill:#cccccc; fill-opacity:100%"></polygon>
      <polygon points="698.854 515.074 695.283 555.059 684.569 587.775 
       666.714 620.49 645.288 649.57 616.719 671.38 584.579 689.556 
       552.44 700.46 513.158 704.096 477.447 700.46 441.736 689.556 
       413.168 671.38 384.599 649.57 363.173 620.49 345.317 587.775 
       334.604 555.059 331.033 515.074 334.604 478.723 345.317 442.373 
       363.173 413.293 384.599 384.212 413.168 362.402 441.736 344.227 
       477.447 333.322 513.158 329.687 552.44 333.322 584.579 344.227 
       616.719 362.402 645.288 384.212 666.714 413.293 684.569 442.373 
       695.283 478.723 698.854 515.074"
       style="stroke:none; fill:#d1d1d1; fill-opacity:100%"></polygon>
      <polygon points="659.95 515.069 656.369 547.87 649.208 573.381 
       634.887 598.893 616.985 620.76 595.502 638.983 570.439 653.561 
       545.377 660.85 513.153 664.495 484.51 660.85 459.447 653.561 
       434.384 638.983 412.902 620.76 395 598.893 380.678 573.381 
       373.517 547.87 369.937 515.069 373.517 485.912 380.678 460.401 
       395 434.889 412.902 413.022 434.384 394.799 459.447 380.221 
       484.51 372.932 513.153 369.288 545.377 372.932 570.439 380.221 
       595.502 394.799 616.985 413.022 634.887 434.889 649.208 460.401 
       656.369 485.912 659.95 515.069"
       style="stroke:none; fill:#d6d6d6; fill-opacity:100%"></polygon>
      <polygon points="635.144 432.501 638.729 443.619 635.144 447.325 
       631.559 447.325 620.804 447.325 599.292 439.913 552.684 428.795 
       524.003 425.089 498.907 425.089 473.811 432.501 448.714 443.619 
       409.277 473.267 384.181 488.091 380.595 488.091 377.01 488.091 
       380.595 476.973 394.936 436.207 405.692 421.383 420.033 406.559 
       434.373 391.735 448.714 380.617 470.226 373.206 491.737 365.793 
       516.833 362.088 538.344 362.088 559.855 365.793 577.781 369.5 
       592.122 380.617 610.048 391.735 620.804 410.265 635.144 432.501"
       style="stroke:none; fill:#d7dbde; fill-opacity:100%"></polygon>
      <polygon points="723.611 531.292 720.032 545.959 716.453 564.292 
       712.873 589.96 698.556 615.627 680.659 644.961 655.603 670.628 
       623.389 696.296 605.493 707.296 584.016 718.296 548.223 729.297 
       516.009 729.297 487.374 729.297 462.318 721.963 440.842 718.296 
       426.525 707.296 440.842 710.963 483.794 710.963 512.429 710.963 
       541.064 703.629 573.278 696.296 605.493 681.629 634.127 659.628 
       659.183 637.628 680.659 611.96 694.976 586.293 716.453 545.959 
       723.611 531.292"
       style="stroke:none; fill:#bbbbbb; fill-opacity:100%"></polygon>
      <polygon points="309.881 552.892 306.31 530.974 302.739 509.055 
       306.31 479.831 317.023 446.954 324.165 428.689 334.879 410.424 
       349.163 392.159 367.018 373.894 384.874 355.628 409.871 341.017 
       438.44 326.404 467.008 315.446 492.006 308.139 517.004 304.486 
       542.001 304.486 563.428 308.139 581.283 311.792 599.139 319.098 
       631.278 337.363 652.704 351.975 670.56 370.241 649.133 362.935 
       624.135 359.282 595.567 351.975 559.857 348.323 517.004 351.975 
       474.151 359.282 431.298 373.894 413.442 384.853 395.587 395.812 
       367.018 421.383 345.592 450.607 331.308 479.831 320.594 509.055 
       313.452 530.974 309.881 552.892"
       style="stroke:none; fill:#dde7f0; fill-opacity:100%"></polygon>
      <polygon points="306.276 498.891 306.276 484.224 309.855 465.891 
       317.014 443.89 327.752 414.556 345.649 388.889 370.704 359.554 
       402.918 333.887 424.394 322.886 442.291 315.553 478.084 304.553 
       510.298 300.886 542.513 304.553 567.568 308.219 585.465 315.553 
       603.362 322.886 585.465 319.22 542.513 319.22 513.878 322.886 
       485.243 326.553 453.029 337.554 420.815 352.221 392.18 370.554 
       367.124 392.555 345.649 418.223 331.331 443.89 309.855 484.224 
       306.276 498.891"
       style="stroke:none; fill:#ebf5ff; fill-opacity:100%"></polygon>
      <polygon points="331.3 534.892 331.3 564.257 338.506 589.952 
       349.317 615.646 360.128 634 374.541 652.353 388.955 667.036 
       421.387 692.731 453.817 707.414 479.042 714.755 507.87 722.096 
       486.249 722.096 461.025 718.425 432.197 707.414 403.37 692.731 
       385.352 681.718 370.938 667.036 356.524 652.353 342.11 630.329 
       331.3 608.305 316.886 578.94 331.3 534.892"
       style="stroke:none; fill:#dde7f0; fill-opacity:100%"></polygon>
      <polygon points="720.074 485.605 433.845 696.895 412.378 390.888 
       720.074 485.605"
       style="stroke:none; fill:#ffffff; fill-opacity:100%"></polygon>
      <polygon points="705.927 482.133 433.973 682.495 401.768 376.488 
       705.927 482.133"
       style="stroke:none; fill:#999999; fill-opacity:100%"></polygon>
      <polygon points="412.378 398.136 444.617 671.694 691.781 489.322 
       412.378 394.488 412.378 398.136"
       style="stroke:none; fill:#465900; fill-opacity:100%"></polygon>
      <polygon points="422.988 405.289 674.097 492.943 451.686 657.294 
       422.988 405.289"
       style="stroke:none; fill:#77aa00; fill-opacity:100%"></polygon>
    </g>
  </symbol>
 </defs>
 <use xlink:href="#_002as5l01hkharhupv1q"/>
</svg>
