<?xml version="1.0" encoding="UTF-8" standalone="no"?>

<svg
 xmlns:dc="http://purl.org/dc/elements/1.1/"
   xmlns:cc="http://creativecommons.org/ns#"
   xmlns:rdf="http://www.w3.org/1999/02/22-rdf-syntax-ns#"
   xmlns:svg="http://www.w3.org/2000/svg"
   xmlns="http://www.w3.org/2000/svg"
   xmlns:xlink="http://www.w3.org/1999/xlink"
   xmlns:sodipodi="http://sodipodi.sourceforge.net/DTD/sodipodi-0.dtd"
   xmlns:inkscape="http://www.inkscape.org/namespaces/inkscape"
   id="svg2"
   version="1.1"
   inkscape:version="0.47 r22583"
   width="100"
   height="100"
   sodipodi:docname="technical_architecture.svg">
  <metadata
     id="metadata130">
    <rdf:RDF>
      <cc:Work
         rdf:about="">
        <dc:format>image/svg+xml</dc:format>
        <dc:type
           rdf:resource="http://purl.org/dc/dcmitype/StillImage" />
      </cc:Work>
    </rdf:RDF>
  </metadata>
  <defs
     id="defs128">
    <linearGradient
       inkscape:collect="always"
       id="linearGradient3850">
      <stop
         style="stop-color:#99cccc;stop-opacity:1;"
         offset="0"
         id="stop3852" />
      <stop
         style="stop-color:#99cccc;stop-opacity:0;"
         offset="1"
         id="stop3854" />
    </linearGradient>
    <linearGradient
       inkscape:collect="always"
       id="linearGradient3842">
      <stop
         style="stop-color:#99cccc;stop-opacity:1;"
         offset="0"
         id="stop3844" />
      <stop
         style="stop-color:#99cccc;stop-opacity:0;"
         offset="1"
         id="stop3846" />
    </linearGradient>
    <linearGradient
       inkscape:collect="always"
       id="linearGradient3834">
      <stop
         style="stop-color:#5f5f5f;stop-opacity:1;"
         offset="0"
         id="stop3836" />
      <stop
         style="stop-color:#5f5f5f;stop-opacity:0;"
         offset="1"
         id="stop3838" />
    </linearGradient>
    <linearGradient
       inkscape:collect="always"
       id="linearGradient3822">
      <stop
         style="stop-color:#bbbbbb;stop-opacity:1;"
         offset="0"
         id="stop3824" />
      <stop
         style="stop-color:#bbbbbb;stop-opacity:0;"
         offset="1"
         id="stop3826" />
    </linearGradient>
    <linearGradient
       inkscape:collect="always"
       id="linearGradient3814">
      <stop
         style="stop-color:#567500;stop-opacity:1;"
         offset="0"
         id="stop3816" />
      <stop
         style="stop-color:#567500;stop-opacity:0;"
         offset="1"
         id="stop3818" />
    </linearGradient>
    <linearGradient
       inkscape:collect="always"
       id="linearGradient3806">
      <stop
         style="stop-color:#ff7711;stop-opacity:1;"
         offset="0"
         id="stop3808" />
      <stop
         style="stop-color:#ff7711;stop-opacity:0;"
         offset="1"
         id="stop3810" />
    </linearGradient>
    <linearGradient
       inkscape:collect="always"
       id="linearGradient3798">
      <stop
         style="stop-color:#ff7711;stop-opacity:1;"
         offset="0"
         id="stop3800" />
      <stop
         style="stop-color:#ff7711;stop-opacity:0;"
         offset="1"
         id="stop3802" />
    </linearGradient>
    <linearGradient
       inkscape:collect="always"
       id="linearGradient3790">
      <stop
         style="stop-color:#ff7711;stop-opacity:1;"
         offset="0"
         id="stop3792" />
      <stop
         style="stop-color:#ff7711;stop-opacity:0;"
         offset="1"
         id="stop3794" />
    </linearGradient>
    <linearGradient
       inkscape:collect="always"
       id="linearGradient3782">
      <stop
         style="stop-color:#775599;stop-opacity:1;"
         offset="0"
         id="stop3784" />
      <stop
         style="stop-color:#775599;stop-opacity:0;"
         offset="1"
         id="stop3786" />
    </linearGradient>
    <linearGradient
       inkscape:collect="always"
       id="linearGradient3774">
      <stop
         style="stop-color:#bbbbbb;stop-opacity:1;"
         offset="0"
         id="stop3776" />
      <stop
         style="stop-color:#bbbbbb;stop-opacity:0;"
         offset="1"
         id="stop3778" />
    </linearGradient>
    <linearGradient
       inkscape:collect="always"
       id="linearGradient3766">
      <stop
         style="stop-color:#bbbbbb;stop-opacity:1;"
         offset="0"
         id="stop3768" />
      <stop
         style="stop-color:#bbbbbb;stop-opacity:0;"
         offset="1"
         id="stop3770" />
    </linearGradient>
    <linearGradient
       inkscape:collect="always"
       id="linearGradient3758">
      <stop
         style="stop-color:#bbbbbb;stop-opacity:1;"
         offset="0"
         id="stop3760" />
      <stop
         style="stop-color:#bbbbbb;stop-opacity:0;"
         offset="1"
         id="stop3762" />
    </linearGradient>
    <linearGradient
       inkscape:collect="always"
       id="linearGradient3750">
      <stop
         style="stop-color:#bbbbbb;stop-opacity:1;"
         offset="0"
         id="stop3752" />
      <stop
         style="stop-color:#bbbbbb;stop-opacity:0;"
         offset="1"
         id="stop3754" />
    </linearGradient>
    <linearGradient
       inkscape:collect="always"
       id="linearGradient3742">
      <stop
         style="stop-color:#727272;stop-opacity:1;"
         offset="0"
         id="stop3744" />
      <stop
         style="stop-color:#727272;stop-opacity:0;"
         offset="1"
         id="stop3746" />
    </linearGradient>
    <linearGradient
       inkscape:collect="always"
       id="linearGradient3734">
      <stop
         style="stop-color:#727272;stop-opacity:1;"
         offset="0"
         id="stop3736" />
      <stop
         style="stop-color:#727272;stop-opacity:0;"
         offset="1"
         id="stop3738" />
    </linearGradient>
    <linearGradient
       inkscape:collect="always"
       id="linearGradient3726">
      <stop
         style="stop-color:#bbbbbb;stop-opacity:1;"
         offset="0"
         id="stop3728" />
      <stop
         style="stop-color:#bbbbbb;stop-opacity:0;"
         offset="1"
         id="stop3730" />
    </linearGradient>
    <linearGradient
       inkscape:collect="always"
       id="linearGradient3718">
      <stop
         style="stop-color:#bbbbbb;stop-opacity:1;"
         offset="0"
         id="stop3720" />
      <stop
         style="stop-color:#bbbbbb;stop-opacity:0;"
         offset="1"
         id="stop3722" />
    </linearGradient>
    <linearGradient
       inkscape:collect="always"
       id="linearGradient3710">
      <stop
         style="stop-color:#66a4ff;stop-opacity:1;"
         offset="0"
         id="stop3712" />
      <stop
         style="stop-color:#66a4ff;stop-opacity:0;"
         offset="1"
         id="stop3714" />
    </linearGradient>
    <inkscape:perspective
       sodipodi:type="inkscape:persp3d"
       inkscape:vp_x="0 : 0.5 : 1"
       inkscape:vp_y="0 : 1000 : 0"
       inkscape:vp_z="1 : 0.5 : 1"
       inkscape:persp3d-origin="0.5 : 0.33333333 : 1"
       id="perspective132" />
    <linearGradient
       inkscape:collect="always"
       xlink:href="#linearGradient3710"
       id="linearGradient3716"
       x1="870.203"
       y1="698.04749"
       x2="949.58301"
       y2="698.04749"
       gradientUnits="userSpaceOnUse" />
    <linearGradient
       inkscape:collect="always"
       xlink:href="#linearGradient3718"
       id="linearGradient3724"
       x1="865.24103"
       y1="720.3725"
       x2="954.54401"
       y2="720.3725"
       gradientUnits="userSpaceOnUse" />
    <linearGradient
       inkscape:collect="always"
       xlink:href="#linearGradient3726"
       id="linearGradient3732"
       x1="696.55902"
       y1="762.54352"
       x2="994.23401"
       y2="762.54352"
       gradientUnits="userSpaceOnUse" />
    <linearGradient
       inkscape:collect="always"
       xlink:href="#linearGradient3734"
       id="linearGradient3740"
       x1="637.02399"
       y1="740.21802"
       x2="994.23401"
       y2="740.21802"
       gradientUnits="userSpaceOnUse" />
    <linearGradient
       inkscape:collect="always"
       xlink:href="#linearGradient3742"
       id="linearGradient3748"
       x1="393.923"
       y1="931.22699"
       x2="711.44299"
       y2="931.22699"
       gradientUnits="userSpaceOnUse" />
    <linearGradient
       inkscape:collect="always"
       xlink:href="#linearGradient3750"
       id="linearGradient3756"
       x1="473.30301"
       y1="958.51398"
       x2="706.48199"
       y2="958.51398"
       gradientUnits="userSpaceOnUse" />
    <linearGradient
       inkscape:collect="always"
       xlink:href="#linearGradient3758"
       id="linearGradient3764"
       x1="508.03101"
       y1="990.763"
       x2="676.71399"
       y2="990.763"
       gradientUnits="userSpaceOnUse" />
    <linearGradient
       inkscape:collect="always"
       xlink:href="#linearGradient3766"
       id="linearGradient3772"
       x1="508.03101"
       y1="913.86151"
       x2="676.71399"
       y2="913.86151"
       gradientUnits="userSpaceOnUse" />
    <linearGradient
       inkscape:collect="always"
       xlink:href="#linearGradient3774"
       id="linearGradient3780"
       x1="508.03101"
       y1="836.96252"
       x2="676.71399"
       y2="836.96252"
       gradientUnits="userSpaceOnUse" />
    <linearGradient
       inkscape:collect="always"
       xlink:href="#linearGradient3782"
       id="linearGradient3788"
       x1="15.625"
       y1="761.71899"
       x2="281.25"
       y2="761.71899"
       gradientUnits="userSpaceOnUse" />
    <linearGradient
       inkscape:collect="always"
       xlink:href="#linearGradient3790"
       id="linearGradient3796"
       x1="7.8125"
       y1="457.03201"
       x2="273.43799"
       y2="457.03201"
       gradientUnits="userSpaceOnUse" />
    <linearGradient
       inkscape:collect="always"
       xlink:href="#linearGradient3798"
       id="linearGradient3804"
       x1="734.375"
       y1="613.28198"
       x2="992.18701"
       y2="613.28198"
       gradientUnits="userSpaceOnUse" />
    <linearGradient
       inkscape:collect="always"
       xlink:href="#linearGradient3806"
       id="linearGradient3812"
       x1="367.18799"
       y1="531.25"
       x2="632.81299"
       y2="531.25"
       gradientUnits="userSpaceOnUse" />
    <linearGradient
       inkscape:collect="always"
       xlink:href="#linearGradient3814"
       id="linearGradient3820"
       x1="375"
       y1="246.09399"
       x2="640.625"
       y2="246.09399"
       gradientUnits="userSpaceOnUse" />
    <linearGradient
       inkscape:collect="always"
       xlink:href="#linearGradient3822"
       id="linearGradient3828"
       x1="666.79102"
       y1="960.99152"
       x2="1009.12"
       y2="960.99152"
       gradientUnits="userSpaceOnUse" />
    <linearGradient
       inkscape:collect="always"
       xlink:href="#linearGradient3822"
       id="linearGradient3830"
       x1="756.09399"
       y1="1042.855"
       x2="885.08698"
       y2="1042.855"
       gradientUnits="userSpaceOnUse" />
    <linearGradient
       inkscape:collect="always"
       xlink:href="#linearGradient3822"
       id="linearGradient3832"
       x1="810.66803"
       y1="980.83899"
       x2="855.31897"
       y2="980.83899"
       gradientUnits="userSpaceOnUse" />
    <linearGradient
       inkscape:collect="always"
       xlink:href="#linearGradient3834"
       id="linearGradient3840"
       x1="676.71399"
       y1="951.073"
       x2="984.31201"
       y2="951.073"
       gradientUnits="userSpaceOnUse" />
    <linearGradient
       inkscape:collect="always"
       xlink:href="#linearGradient3842"
       id="linearGradient3848"
       x1="711.44299"
       y1="911.38098"
       x2="904.93201"
       y2="911.38098"
       gradientUnits="userSpaceOnUse" />
    <linearGradient
       inkscape:collect="always"
       xlink:href="#linearGradient3850"
       id="linearGradient3856"
       x1="780.90002"
       y1="903.93903"
       x2="840.435"
       y2="903.93903"
       gradientUnits="userSpaceOnUse" />
  </defs>
  <sodipodi:namedview
     pagecolor="#ffffff"
     bordercolor="#666666"
     borderopacity="1"
     objecttolerance="10"
     gridtolerance="10"
     guidetolerance="10"
     inkscape:pageopacity="0"
     inkscape:pageshadow="2"
     inkscape:window-width="1680"
     inkscape:window-height="994"
     id="namedview126"
     showgrid="false"
     inkscape:zoom="7.49"
     inkscape:cx="50"
     inkscape:cy="50"
     inkscape:window-x="-4"
     inkscape:window-y="-4"
     inkscape:window-maximized="1"
     inkscape:current-layer="svg2" />
  <polygon
     points="0,1007.81 0,0 1007.81,0 1007.81,1007.81 1007.81,1007.81 "
     style="fill:#ffffff;fill-opacity:0;stroke:none"
     id="polygon4"
     transform="scale(0.08680556,0.08680556)" />
  <polygon
     points="109.375,695.312 140.625,695.312 140.625,531.25 109.375,531.25 109.375,531.25 "
     style="fill:#000000;fill-opacity:1;stroke:none"
     id="polygon6"
     transform="scale(0.08680556,0.08680556)" />
  <polygon
     points="390.625,515.625 390.625,497.769 226.934,453.125 218.75,479.91 218.75,479.91 "
     style="fill:#000000;fill-opacity:1;stroke:none"
     id="polygon8"
     transform="scale(0.08680556,0.08680556)" />
  <polygon
     points="780.896,601.562 789.063,583.705 617.543,539.062 609.375,565.848 609.375,565.848 "
     style="fill:#000000;fill-opacity:1;stroke:none"
     id="polygon10"
     transform="scale(0.08680556,0.08680556)" />
  <polygon
     points="484.375,468.75 515.625,468.75 515.625,304.688 484.375,304.688 484.375,304.688 "
     style="fill:#000000;fill-opacity:1;stroke:none"
     id="polygon12"
     transform="scale(0.08680556,0.08680556)" />
  <polygon
     points="383.258,117.425 375.223,125.473 367.188,133.522 367.188,133.522 367.188,222.064 367.188,302.556 367.188,318.655 375.223,326.704 399.331,334.753 616.295,375 632.367,375 640.402,375 648.438,366.95 648.438,358.901 648.438,197.916 640.402,181.819 632.367,173.769 616.295,165.719 391.295,109.375 "
     style="fill:#465900;fill-opacity:1;stroke:none"
     id="polygon14"
     transform="scale(0.08680556,0.08680556)" />
  <polygon
     points="399.148,318.75 383.049,310.678 375,302.605 375,205.729 375,141.146 383.049,125 391.099,125 616.478,173.438 624.528,181.511 632.576,189.583 640.625,205.729 640.625,359.115 632.576,367.188 616.478,367.188 616.478,367.188 "
     style="fill:url(#linearGradient3820);fill-opacity:1;stroke:none"
     id="polygon16"
     transform="scale(0.08680556,0.08680556)" />
  <polygon
     points="23.8839,632.812 15.8482,640.862 7.8125,656.96 7.8125,656.96 7.8125,737.452 7.8125,825.993 7.8125,834.043 15.8482,842.093 39.9554,850.142 256.92,898.437 272.991,898.437 281.027,890.387 289.063,882.339 289.063,874.29 289.063,721.354 281.027,705.256 272.991,689.157 256.92,681.108 31.9196,632.812 "
     style="fill:#143a72;fill-opacity:1;stroke:none"
     id="polygon18"
     transform="scale(0.08680556,0.08680556)" />
  <polygon
     points="39.7727,842.449 23.6742,834.375 15.625,826.302 15.625,721.354 15.625,656.771 23.6742,640.625 31.7235,640.625 257.102,689.063 265.151,697.135 273.2,705.208 281.25,721.354 281.25,874.741 273.2,882.813 257.102,882.813 257.102,882.813 "
     style="fill:url(#linearGradient3788);fill-opacity:1;stroke:none"
     id="polygon20"
     transform="scale(0.08680556,0.08680556)" />
  <polygon
     points="8.0357,336.411 0,344.46 0,344.46 0,433.002 0,513.493 8.0357,529.593 16.0714,537.642 32.1428,545.69 257.142,585.937 265.178,585.937 281.25,585.937 281.25,569.839 281.25,408.854 281.25,392.756 265.178,384.706 249.107,376.657 32.1428,320.312 16.0714,328.362 "
     style="fill:#99460d;fill-opacity:1;stroke:none"
     id="polygon22"
     transform="scale(0.08680556,0.08680556)" />
  <polygon
     points="40.0095,529.689 15.8617,521.616 15.8617,513.542 7.8125,416.667 15.8617,352.083 23.911,335.938 31.9602,335.938 249.29,384.375 257.339,392.448 265.388,400.522 273.438,408.594 273.438,570.054 273.438,578.126 257.339,578.126 257.339,578.126 "
     style="fill:url(#linearGradient3796);fill-opacity:1;stroke:none"
     id="polygon24"
     transform="scale(0.08680556,0.08680556)" />
  <polygon
     points="1000,572.832 1000,572.832 1000,726.059 1000,734.123 991.957,742.188 975.873,742.188 758.731,701.865 742.648,693.801 734.605,685.737 726.562,677.672 726.562,597.026 726.562,508.316 742.648,492.188 750.689,492.188 975.873,540.574 983.914,548.639 1000,556.704 "
     style="fill:#ff7711;fill-opacity:1;stroke:none"
     id="polygon26"
     transform="scale(0.08680556,0.08680556)" />
  <polygon
     points="742.839,484.375 734.809,492.425 726.779,508.522 726.779,508.522 718.75,589.015 726.779,677.556 726.779,685.606 734.809,693.655 758.897,701.704 975.694,750 991.753,750 999.783,741.95 1007.81,733.901 1007.81,725.852 1007.81,572.916 999.783,556.819 991.753,540.719 975.694,532.67 750.868,484.375 "
     style="fill:#99460d;fill-opacity:1;stroke:none"
     id="polygon28"
     transform="scale(0.08680556,0.08680556)" />
  <polygon
     points="758.544,694.012 742.432,685.939 734.375,677.866 734.375,572.917 734.375,508.333 742.432,500.26 750.488,492.188 968.018,548.698 984.13,548.698 992.187,556.772 992.187,572.917 992.187,726.304 992.187,734.376 976.074,734.376 976.074,734.376 "
     style="fill:url(#linearGradient3804);fill-opacity:1;stroke:none"
     id="polygon30"
     transform="scale(0.08680556,0.08680556)" />
  <polygon
     points="367.188,607.718 367.188,398.438 632.813,462.832 632.813,664.063 632.813,664.063 "
     style="fill:#ff7711;fill-opacity:1;stroke:none"
     id="polygon32"
     transform="scale(0.08680556,0.08680556)" />
  <polygon
     points="375.446,406.487 367.411,406.487 359.375,422.585 359.375,422.585 359.375,503.078 359.375,591.62 359.375,599.669 367.411,607.718 391.518,615.767 608.482,664.063 624.555,664.063 632.59,656.014 640.625,647.964 640.625,639.915 640.625,486.979 632.59,470.881 624.555,454.782 608.482,446.733 383.482,398.438 "
     style="fill:#99460d;fill-opacity:1;stroke:none"
     id="polygon34"
     transform="scale(0.08680556,0.08680556)" />
  <polygon
     points="391.335,607.862 375.237,599.798 367.188,591.734 367.188,486.895 367.188,422.379 375.237,414.314 383.285,406.25 600.616,462.702 616.714,470.766 624.764,478.83 632.813,486.895 632.813,648.185 624.764,648.185 608.665,656.25 608.665,656.25 "
     style="fill:url(#linearGradient3812);fill-opacity:1;stroke:none"
     id="polygon36"
     transform="scale(0.08680556,0.08680556)" />
  <polygon
     points="384,1152 384,512 1024,512 1024,1152 1024,1152 "
     style="fill:#ffffff;fill-opacity:0;stroke:none"
     id="polygon38"
     transform="scale(0.08680556,0.08680556)" />
  <polygon
     points="706.482,958.513 706.482,566.574 691.598,566.574 691.598,958.513 691.598,958.513 "
     style="fill:#666666;fill-opacity:1;stroke:none"
     id="polygon40"
     transform="scale(0.08680556,0.08680556)" />
  <polygon
     points="622.14,928.309 687.485,968.435 1004.16,968.435 1004.16,557.142 923.732,512 923.732,512 622.14,512 "
     style="fill:#333333;fill-opacity:1;stroke:none"
     id="polygon42"
     transform="scale(0.08680556,0.08680556)" />
  <polygon
     points="994.234,958.513 692.366,958.513 637.024,923.385 637.024,521.923 923.798,521.923 923.798,521.923 994.234,562.069 "
     style="fill:url(#linearGradient3740);fill-opacity:1;stroke:none"
     id="polygon44"
     transform="scale(0.08680556,0.08680556)" />
  <polygon
     points="696.559,958.513 696.559,566.574 994.234,566.574 994.234,958.513 994.234,958.513 "
     style="fill:url(#linearGradient3732);fill-opacity:1;stroke:none"
     id="polygon46"
     transform="scale(0.08680556,0.08680556)" />
  <polygon
     points="706.151,576.496 711.443,565.671 637.355,516.961 632.063,527.786 632.063,527.786 "
     style="fill:#bbbbbb;fill-opacity:1;stroke:none"
     id="polygon48"
     transform="scale(0.08680556,0.08680556)" />
  <polygon
     points="964.467,665.799 959.28,665.799 959.28,665.799 850.358,665.799 850.358,774.947 964.467,774.947 "
     style="fill:#666666;fill-opacity:1;stroke:none"
     id="polygon50"
     transform="scale(0.08680556,0.08680556)" />
  <polygon
     points="954.544,765.024 865.241,765.024 865.241,675.721 954.544,675.721 954.544,675.721 "
     style="fill:url(#linearGradient3724);fill-opacity:1;stroke:none"
     id="polygon52"
     transform="scale(0.08680556,0.08680556)" />
  <polygon
     points="959.505,665.799 954.295,665.799 954.295,665.799 855.319,665.799 855.319,725.334 959.505,725.334 "
     style="fill:#666666;fill-opacity:1;stroke:none"
     id="polygon54"
     transform="scale(0.08680556,0.08680556)" />
  <polygon
     points="949.583,715.412 870.203,715.412 870.203,680.683 949.583,680.683 949.583,680.683 "
     style="fill:url(#linearGradient3716);fill-opacity:1;stroke:none"
     id="polygon56"
     transform="scale(0.08680556,0.08680556)" />
  <polygon
     points="637.024,541.768 637.024,552.352 637.024,552.352 637.024,589.396 696.559,621.148 696.559,573.52 "
     style="fill:#666666;fill-opacity:1;stroke:none"
     id="polygon58"
     transform="scale(0.08680556,0.08680556)" />
  <polygon
     points="845.397,958.513 845.397,566.574 830.513,566.574 830.513,958.513 830.513,958.513 "
     style="fill:#666666;fill-opacity:1;stroke:none"
     id="polygon60"
     transform="scale(0.08680556,0.08680556)" />
  <polygon
     points="721.365,958.513 721.365,566.574 706.481,566.574 706.481,958.513 706.481,958.513 "
     style="fill:#666666;fill-opacity:1;stroke:none"
     id="polygon62"
     transform="scale(0.08680556,0.08680556)" />
  <polygon
     points="989.273,958.513 989.273,566.574 976.044,566.574 969.428,958.513 969.428,958.513 "
     style="fill:#666666;fill-opacity:1;stroke:none"
     id="polygon64"
     transform="scale(0.08680556,0.08680556)" />
  <polygon
     points="384,1096.85 464.565,1147.04 721.365,1147.04 721.365,765.601 620.659,715.411 620.659,715.411 384,715.411 "
     style="fill:#333333;fill-opacity:1;stroke:none"
     id="polygon66"
     transform="scale(0.08680556,0.08680556)" />
  <polygon
     points="711.443,1137.12 469.522,1137.12 393.923,1091.92 393.923,725.334 620.723,725.334 620.723,725.334 711.443,775.551 "
     style="fill:url(#linearGradient3748);fill-opacity:1;stroke:none"
     id="polygon68"
     transform="scale(0.08680556,0.08680556)" />
  <polygon
     points="473.303,1137.12 473.303,779.908 706.482,779.908 706.482,1137.12 706.482,1137.12 "
     style="fill:url(#linearGradient3756);fill-opacity:1;stroke:none"
     id="polygon70"
     transform="scale(0.08680556,0.08680556)" />
  <polygon
     points="482.95,789.83 488.187,779.144 399.159,720.373 393.923,731.058 393.923,731.058 "
     style="fill:#bbbbbb;fill-opacity:1;stroke:none"
     id="polygon72"
     transform="scale(0.08680556,0.08680556)" />
  <polygon
     points="691.598,963.474 686.507,963.474 686.507,963.474 498.109,963.474 498.109,1018.05 691.598,1018.05 "
     style="fill:#666666;fill-opacity:1;stroke:none"
     id="polygon74"
     transform="scale(0.08680556,0.08680556)" />
  <polygon
     points="676.714,1008.13 508.031,1008.13 508.031,973.396 676.714,973.396 676.714,973.396 "
     style="fill:url(#linearGradient3764);fill-opacity:1;stroke:none"
     id="polygon76"
     transform="scale(0.08680556,0.08680556)" />
  <polygon
     points="691.598,884.094 686.507,884.094 686.507,884.094 498.109,884.094 498.109,943.629 691.598,943.629 "
     style="fill:#666666;fill-opacity:1;stroke:none"
     id="polygon78"
     transform="scale(0.08680556,0.08680556)" />
  <polygon
     points="676.714,928.745 508.031,928.745 508.031,898.978 676.714,898.978 676.714,898.978 "
     style="fill:url(#linearGradient3772);fill-opacity:1;stroke:none"
     id="polygon80"
     transform="scale(0.08680556,0.08680556)" />
  <polygon
     points="691.598,809.675 686.507,809.675 686.507,809.675 498.109,809.675 498.109,864.249 691.598,864.249 "
     style="fill:#666666;fill-opacity:1;stroke:none"
     id="polygon82"
     transform="scale(0.08680556,0.08680556)" />
  <polygon
     points="676.714,854.327 508.031,854.327 508.031,819.598 676.714,819.598 676.714,819.598 "
     style="fill:url(#linearGradient3780);fill-opacity:1;stroke:none"
     id="polygon84"
     transform="scale(0.08680556,0.08680556)" />
  <polygon
     points="808.041,874.171 808.041,874.171 787.028,879.514 771.27,890.2 766.016,900.886 766.016,911.571 766.016,922.257 771.27,932.943 792.282,943.629 813.294,943.629 834.306,943.629 850.065,932.943 855.319,922.257 855.319,911.571 855.319,895.543 844.813,884.858 829.053,879.514 "
     style="fill:#143a72;fill-opacity:1;stroke:none"
     id="polygon86"
     transform="scale(0.08680556,0.08680556)" />
  <polygon
     points="781.282,922.682 781.282,922.682 775.939,917.169 775.939,911.657 775.939,906.144 781.282,900.631 791.968,889.606 807.996,884.094 824.025,889.606 834.711,895.119 845.397,900.631 845.397,911.657 845.397,917.169 840.054,922.682 829.368,933.707 813.339,933.707 791.968,933.707 "
     style="fill:#143a72;fill-opacity:1;stroke:none"
     id="polygon88"
     transform="scale(0.08680556,0.08680556)" />
  <polygon
     points="863.105,789.83 858.075,789.83 858.075,789.83 656.869,860.252 656.869,880.373 777.593,1136.91 787.653,1152 1014.01,1066.49 1019.04,1036.31 "
     style="fill:#333333;fill-opacity:1;stroke:none"
     id="polygon90"
     transform="scale(0.08680556,0.08680556)" />
  <polygon
     points="858.092,799.753 1009.12,1036.57 787.612,1122.23 666.791,865.257 666.791,865.257 "
     style="fill:url(#linearGradient3828);fill-opacity:1;stroke:none"
     id="polygon92"
     transform="scale(0.08680556,0.08680556)" />
  <polygon
     points="858.207,799.753 853.172,799.753 853.172,799.753 661.83,865.324 777.642,1102.39 999.195,1016.64 "
     style="fill:#333333;fill-opacity:1;stroke:none"
     id="polygon94"
     transform="scale(0.08680556,0.08680556)" />
  <polygon
     points="984.312,1011.71 782.608,1087.51 676.714,870.221 853.205,814.636 853.205,814.636 "
     style="fill:url(#linearGradient3840);fill-opacity:1;stroke:none"
     id="polygon96"
     transform="scale(0.08680556,0.08680556)" />
  <polygon
     points="894.301,997.427 909.538,987.195 919.698,971.846 924.777,956.496 924.777,941.148 924.777,920.683 914.618,910.45 904.459,895.101 894.301,884.87 879.063,874.636 858.745,864.404 838.428,859.288 818.11,859.288 818.11,859.288 792.713,864.404 767.315,869.52 746.998,879.752 731.76,895.101 716.522,920.683 711.443,946.265 716.522,971.846 731.76,992.311 752.078,1007.66 772.395,1017.89 792.713,1023.01 818.11,1023.01 843.507,1023.01 863.824,1017.89 879.063,1007.66 "
     style="fill:#143a72;fill-opacity:1;stroke:none"
     id="polygon98"
     transform="scale(0.08680556,0.08680556)" />
  <polygon
     points="909.762,966.841 899.579,977.117 889.395,992.532 858.844,1007.95 818.11,1013.09 797.743,1013.09 777.376,1007.95 757.008,997.671 741.732,982.256 741.732,982.256 726.457,966.841 721.365,946.287 726.457,920.594 736.641,905.18 751.916,889.764 772.283,879.487 792.65,874.348 818.11,869.21 853.753,874.348 884.303,889.764 899.579,900.041 904.671,910.318 914.854,925.733 914.854,941.148 914.854,951.425 "
     style="fill:#143a72;fill-opacity:1;stroke:none"
     id="polygon100"
     transform="scale(0.08680556,0.08680556)" />
  <polygon
     points="904.47,977.272 919.7,956.807 924.776,931.226 919.7,910.76 914.623,900.528 904.47,885.18 889.239,874.947 874.01,864.714 853.704,854.481 833.397,849.365 813.09,849.365 813.09,849.365 787.707,854.481 767.401,859.598 747.094,869.83 726.788,885.18 711.558,910.76 706.481,936.342 711.558,961.924 731.864,982.388 747.094,997.737 767.401,1007.97 792.784,1013.09 818.168,1013.09 843.55,1007.97 863.857,1002.85 884.163,992.621 "
     style="fill:#143a72;fill-opacity:1;stroke:none"
     id="polygon102"
     transform="scale(0.08680556,0.08680556)" />
  <polygon
     points="894.501,972.333 879.236,982.61 858.881,992.887 838.528,998.025 818.174,1003.16 792.731,1003.16 772.377,998.025 752.023,987.749 736.758,972.333 736.758,972.333 721.492,956.918 716.404,936.364 721.492,910.672 736.758,895.256 752.023,879.841 767.288,869.565 792.731,864.426 813.085,859.288 853.793,864.426 884.324,879.841 894.501,890.118 904.677,900.395 909.766,915.81 914.854,931.226 909.766,951.779 "
     style="fill:#143a72;fill-opacity:1;stroke:none"
     id="polygon104"
     transform="scale(0.08680556,0.08680556)" />
  <polygon
     points="863.942,992.931 884.259,982.699 899.498,967.35 914.736,946.885 919.815,921.303 914.736,895.721 899.498,870.141 879.18,859.907 858.863,849.675 833.466,844.559 808.069,839.443 808.069,839.443 787.751,844.559 767.434,849.675 752.196,854.791 736.958,865.025 721.72,880.373 711.561,890.605 706.481,905.955 706.481,926.42 711.561,952.001 726.799,972.466 747.116,987.815 767.434,998.047 787.751,1003.16 813.148,1003.16 838.545,998.047 "
     style="fill:#143a72;fill-opacity:1;stroke:none"
     id="polygon106"
     transform="scale(0.08680556,0.08680556)" />
  <polygon
     points="894.618,962.411 879.343,972.687 858.976,982.964 838.608,988.103 813.149,993.241 792.781,993.241 767.322,988.103 752.047,977.826 736.772,962.411 736.772,962.411 721.496,946.996 716.404,926.442 716.404,911.026 721.496,895.611 731.68,885.334 741.863,875.057 772.414,859.642 813.149,849.365 833.516,854.503 853.883,859.642 874.251,864.781 889.526,880.196 904.802,900.749 909.893,921.303 904.802,941.857 "
     style="fill:#143a72;fill-opacity:1;stroke:none"
     id="polygon108"
     transform="scale(0.08680556,0.08680556)" />
  <polygon
     points="889.355,967.66 899.509,957.427 909.662,942.079 914.738,926.73 919.815,911.381 909.662,885.799 894.432,860.218 879.203,849.985 858.896,839.753 833.513,834.636 808.129,829.52 808.129,829.52 782.746,834.636 757.363,839.753 737.057,849.985 721.827,865.335 706.597,890.915 701.52,916.497 706.597,942.079 721.827,962.543 742.133,977.892 762.44,988.125 787.822,993.241 813.206,993.241 833.513,993.241 853.819,988.125 869.048,977.892 "
     style="fill:#143a72;fill-opacity:1;stroke:none"
     id="polygon110"
     transform="scale(0.08680556,0.08680556)" />
  <polygon
     points="899.84,937.073 889.656,947.35 879.473,962.765 848.921,978.18 813.279,983.319 787.82,983.319 767.453,978.18 747.085,967.904 731.81,952.488 731.81,952.488 716.535,937.073 711.443,916.519 716.535,890.827 731.81,875.411 747.085,859.996 762.361,849.72 787.82,844.581 808.187,839.443 833.647,844.581 854.014,849.72 874.381,854.858 889.656,870.273 899.84,890.827 904.932,911.381 904.932,921.658 "
     style="fill:url(#linearGradient3848);fill-opacity:1;stroke:none"
     id="polygon112"
     transform="scale(0.08680556,0.08680556)" />
  <polygon
     points="889.567,1024.66 822.991,1029.9 812.748,1029.9 802.506,1014.19 766.656,993.241 766.656,998.478 766.656,998.478 746.171,1008.95 771.778,1077.03 792.263,1087.51 904.931,1045.61 "
     style="fill:#333333;fill-opacity:1;stroke:none"
     id="polygon114"
     transform="scale(0.08680556,0.08680556)" />
  <polygon
     points="756.094,1013.47 766.413,1008.13 766.413,1008.13 792.212,1018.81 802.532,1040.18 823.17,1040.18 885.087,1040.18 792.212,1077.58 781.893,1066.9 "
     style="fill:url(#linearGradient3830);fill-opacity:1;stroke:none"
     id="polygon116"
     transform="scale(0.08680556,0.08680556)" />
  <polygon
     points="808.022,874.171 808.022,874.171 792.146,879.584 776.27,884.996 770.978,895.82 770.978,906.645 770.978,912.057 781.562,922.882 792.146,933.706 813.314,933.706 823.898,933.706 839.774,922.882 845.066,912.057 850.358,901.233 850.358,895.82 839.774,884.996 829.19,874.171 "
     style="fill:#143a72;fill-opacity:1;stroke:none"
     id="polygon118"
     transform="scale(0.08680556,0.08680556)" />
  <polygon
     points="797.138,884.094 807.961,884.094 824.198,884.094 835.023,895.434 840.435,901.104 835.023,912.444 829.61,918.114 813.374,923.784 797.138,923.784 786.312,912.444 786.312,912.444 780.9,906.775 786.312,895.434 "
     style="fill:url(#linearGradient3856);fill-opacity:1;stroke:none"
     id="polygon120"
     transform="scale(0.08680556,0.08680556)" />
  <polygon
     points="800.745,1022.6 806.061,1027.76 811.376,1032.93 827.323,1032.93 837.955,1027.76 843.271,1012.26 859.218,970.916 875.164,914.068 864.533,908.9 832.639,955.411 832.639,955.411 806.061,996.755 800.745,1012.26 "
     style="fill:#333333;fill-opacity:1;stroke:none"
     id="polygon122"
     transform="scale(0.08680556,0.08680556)" />
  <polygon
     points="816.25,1023.01 810.668,1017.74 816.25,1001.92 821.83,986.11 838.575,959.753 855.319,938.668 855.319,938.668 849.737,970.295 838.575,1001.92 832.993,1017.74 821.83,1023.01 "
     style="fill:url(#linearGradient3832);fill-opacity:1;stroke:none"
     id="polygon124"
     transform="scale(0.08680556,0.08680556)" />
</svg>
