<?xml version="1.0"?>
<?metis version="3.1"?>
<?metisxml version="1.0"?>
<!DOCTYPE svg  PUBLIC "-//W3C//DTD SVG August 1999//EN"
 "http://www.w3.org/Graphics/SVG/svg-19990812.dtd">

<svg width="200" height="200">
 <title>Symbol library: terminal.svg</title>
 <defs>
  <symbol id="oid1" xml:space="preserve" class="METIS_SYMBOL">
   <title>Terminal</title>
    <g>
      <polygon points="0 0 0 304 16.2963 320 
       880 320 880 16 863.704 0 0 0 
       0 0 0 0 0 0 0 0 
       0 0 0 0 0 0 0 0 
       0 0 0 0 0 0 "
       style=" stroke:#000000; stroke-width:1; fill:#9b9b9b; fill-opacity:100%"       class="TAG:shadow"></polygon>
      <rect x="0" y="0" width="240" height="304"
       style=" stroke:#000000; stroke-width:1; fill:#ffffa5; fill-opacity:100%"       class="TAG:PictureBackground"></rect>
      <rect x="240" y="0" width="624" height="304"
       style=" stroke:#000000; stroke-width:1; fill:#9b9b9b; fill-opacity:100%"       class="TAG:canvas"></rect>
      <g>
	<desc>METIS_TEXT_GROUP</desc>
	<text  x="256" y="15.8"
	 style=" stroke:#000000; stroke-width:1; font-family:sans-serif; font-size:16;"
	 class="TAG:text">text</text>
	<rect x="256" y="0" width="608" height="304"
	 style=" stroke:#000000; stroke-width:1; fill:#ffffff; fill-opacity:0%"></rect>
      </g>
      <polyline points="880 320 864 304"
       style=" stroke:#000000; stroke-width:1;"></polyline>
      <g>
	<polygon points="50.6539 252.577 51.1353 251.694 51.6164 250.811 
	 51.6164 249.928 51.6164 242.864 51.6164 241.983 51.1353 241.1 
	 40.0654 238.451 39.5841 238.451 39.1027 238.451 38.6213 238.451 
	 25.1447 240.217 24.6637 240.217 23.7009 240.217 23.2195 241.1 
	 22.257 241.983 16.9628 252.577 16.4814 253.46 16 254.343 
	 16 256.108 16 261.405 16 263.171 16.4814 264.054 
	 28.0327 271.117 28.5141 272 29.4765 272 29.9579 272 
	 30.4393 272 31.4018 271.117 50.6539 252.577 50.6539 252.577 
	 50.6539 252.577 50.6539 252.577 50.6539 252.577 50.6539 252.577 50.6539 252.577 "
	 style=" stroke:#000000; stroke-width:1; fill:#ffffff; fill-opacity:100%"></polygon>
	<polygon points="50.1723 241.892 50.6569 241.892 51.1416 242.797 
	 38.0581 244.608 30.3049 258.191 29.3356 259.096 28.8509 259.096 
	 28.3666 259.096 27.8819 259.096 27.3973 258.191 28.3666 257.285 
	 28.8509 257.285 29.3356 256.379 30.3049 255.475 36.6041 245.514 
	 37.0887 243.702 37.5734 243.702 38.5425 242.797 50.1723 241.892 
	 50.1723 241.892 50.1723 241.892 50.1723 241.892 50.1723 241.892 
	 50.1723 241.892 50.1723 241.892 "
	 style=" stroke:#ababab; stroke-width:1; fill:#ababab; fill-opacity:100%"></polygon>
	<polyline points="46.8675 240.602 40.447 241.892 34.5205 239.311"
	 style=" stroke:#000000; stroke-width:1;"></polyline>
	<polygon points="30.7214 271.998 29.7399 271.097 29.7399 270.196 
	 29.7399 263.888 29.7399 262.087 29.7399 261.186 29.7399 260.284 
	 29.2491 260.284 28.7586 260.284 16.9816 253.976 16.4907 253.075 
	 16 253.976 16 254.877 16 262.087 16 262.987 
	 16.4907 263.888 28.2678 271.097 28.7586 271.998 29.2491 271.998 
	 30.2307 271.998 30.7214 271.998 30.7214 271.998 30.7214 271.998 
	 30.7214 271.998 30.7214 271.998 30.7214 271.998 30.7214 271.998 "
	 style=" stroke:#ababab; stroke-width:1; fill:#ababab; fill-opacity:100%"></polygon>
	<polyline points="51.6164 244.472 51.1353 245.376 38.6213 248.989 
	 30.4393 261.634 29.9579 261.634 29.4765 262.537 28.5141 262.537 
	 16 255.311"
	 style=" stroke:#000000; stroke-width:1;"></polyline>
	<polygon points="46.9059 179.096 39.2695 200.386 39.2695 207.484 
	 134.246 207.484 134.246 200.386 124.223 179.096 46.9059 179.096 
	 46.9059 179.096 46.9059 179.096 46.9059 179.096 46.9059 179.096 
	 46.9059 179.096 46.9059 179.096 "
	 style=" stroke:#000000; stroke-width:1; fill:#ffffff; fill-opacity:100%"></polygon>
	<polygon points="44.031 186.838 128.058 186.838 130.922 193.72 
	 41.6437 193.72 44.031 186.838 44.031 186.838 44.031 186.838 
	 44.031 186.838 44.031 186.838 44.031 186.838 44.031 186.838 "
	 style=" stroke:#000000; stroke-width:1; fill:#000000; fill-opacity:100%"></polygon>
	<polyline points="39.2695 198.881 133.771 198.881"
	 style=" stroke:#ababab; stroke-width:1;"></polyline>
	<polyline points="67.7624 186.838 67.7624 190.853 68.7241 190.853 
	 69.6855 191.857 72.0893 191.857 74.493 191.857 76.8968 192.86 
	 79.7812 192.86 82.185 192.86 84.5888 192.86 87.4732 192.86 
	 89.8769 192.86 92.2807 192.86 95.1651 192.86 97.5689 192.86 
	 99.9724 191.857 102.376 191.857 104.299 191.857 106.703 190.853 
	 106.703 187.842"
	 style=" stroke:#ababab; stroke-width:1;"></polyline>
	<polygon points="35.9541 32 136.137 32 137.091 32 
	 137.568 32.8645 138.045 33.7296 138.045 35.4599 138.045 185.964 
	 138.045 186.829 137.568 187.694 137.091 188.559 136.137 188.559 
	 35.9541 188.559 35.4769 188.559 34.5227 187.694 34.5227 186.829 
	 34.0458 185.964 34.0458 35.4599 34.5227 33.7296 34.5227 32.8645 
	 35.4769 32 35.9541 32 35.9541 32 35.9541 32 
	 35.9541 32 35.9541 32 35.9541 32 35.9541 32 "
	 style=" stroke:#000000; stroke-width:1; fill:#ffffff; fill-opacity:100%"></polygon>
	<polygon points="130.445 50.9244 130.445 52.6578 130.445 54.3906 
	 130.923 57.8568 130.923 60.4563 130.923 64.7891 130.923 68.2553 
	 130.923 71.7215 130.923 75.1877 130.923 78.6539 130.923 82.1201 
	 130.923 85.5861 130.923 89.0523 130.923 92.5185 130.923 95.9847 
	 130.923 100.318 130.923 103.783 130.923 107.249 130.923 108.983 
	 130.923 110.715 130.923 114.182 130.923 117.648 130.923 121.114 
	 130.923 124.58 130.923 128.046 130.923 131.512 130.923 134.978 
	 130.923 138.445 130.923 141.911 130.923 146.244 130.923 149.71 
	 130.923 153.175 130.923 156.643 130.445 160.109 130.445 163.575 
	 130.445 164.441 129.968 166.174 129.49 167.04 129.012 167.04 
	 128.535 167.04 127.102 167.907 125.67 167.907 123.283 167.907 
	 120.895 167.907 118.031 167.907 115.643 167.907 112.779 167.907 
	 110.391 167.907 107.526 168.773 105.139 168.773 102.274 168.773 
	 99.8869 168.773 97.0224 168.773 94.6347 168.773 91.7703 168.773 
	 89.383 168.773 86.5182 168.773 85.5631 168.773 84.1309 168.773 
	 81.2658 168.773 78.8787 168.773 76.0137 168.773 73.6263 168.773 
	 71.2391 168.773 68.3741 168.773 65.9871 168.773 63.1221 167.907 
	 60.7347 167.907 57.8701 167.907 55.4826 167.907 52.618 167.907 
	 50.2305 167.907 47.8432 167.907 44.9784 167.04 44.501 167.04 
	 44.0234 166.174 43.5459 165.308 43.0686 164.441 43.0686 163.575 
	 116.121 149.71 130.445 50.9244 130.445 50.9244 130.445 50.9244 
	 130.445 50.9244 130.445 50.9244 130.445 50.9244 130.445 50.9244 "
	 style=" stroke:#000000; stroke-width:1; fill:#ffffff; fill-opacity:100%"></polygon>
	<polygon points="120.475 173.074 129.498 173.074 129.498 182.537 
	 120.475 182.537 120.475 173.074 120.475 173.074 120.475 173.074 
	 120.475 173.074 120.475 173.074 120.475 173.074 120.475 173.074 "
	 style=" stroke:#000000; stroke-width:1; fill:#ababab; fill-opacity:100%"></polygon>
	<polygon points="53.516 178.237 58.2648 178.237 58.2648 173.074 
	 53.516 173.074 53.516 178.237 53.516 178.237 53.516 178.237 
	 53.516 178.237 53.516 178.237 53.516 178.237 53.516 178.237 "
	 style=" stroke:#000000; stroke-width:1; fill:#00ff00; fill-opacity:100%"></polygon>
	<polygon points="43.0712 163.582 43.0712 161.849 43.0712 160.118 
	 43.0712 156.652 43.0712 153.186 42.5937 149.722 42.5937 146.256 
	 42.5937 142.791 42.5937 139.325 42.5937 135.86 42.5937 132.395 
	 42.5937 128.93 42.5937 125.464 42.5937 121.999 42.5937 117.667 
	 42.5937 114.202 42.5937 110.736 42.5937 107.271 42.5937 105.539 
	 42.5937 103.806 42.5937 100.341 42.5937 96.8761 42.5937 93.4108 
	 42.5937 89.9455 42.5937 86.4802 42.5937 83.0149 42.5937 78.6833 
	 42.5937 76.0845 42.5937 71.7527 42.5937 68.2874 42.5937 64.8221 
	 43.0712 61.3568 43.0712 57.8916 43.0712 54.4264 43.0712 50.9611 
	 43.0712 49.2288 43.5484 48.3623 44.026 47.4958 44.9811 46.6294 
	 46.4134 46.6294 47.8458 46.6294 50.2331 46.6294 53.0979 46.6294 
	 55.4852 45.7635 57.8726 45.7635 60.7373 45.7635 63.1247 45.7635 
	 65.9896 45.7635 68.3768 45.7635 71.2417 45.7635 76.4937 45.7635 
	 78.8814 45.7635 81.7458 45.7635 84.1331 45.7635 86.9978 45.7635 
	 87.953 45.7635 89.3853 45.7635 92.2503 45.7635 94.6374 45.7635 
	 97.0248 45.7635 99.8895 45.7635 102.277 45.7635 105.142 45.7635 
	 107.529 45.7635 110.394 45.7635 112.781 45.7635 115.646 45.7635 
	 118.033 45.7635 120.898 46.6294 123.286 46.6294 125.673 46.6294 
	 128.537 46.6294 129.016 46.6294 129.97 47.4958 130.447 49.2288 
	 130.447 50.0947 130.447 50.9611 116.601 149.722 45.4583 167.915 
	 44.9811 167.048 44.026 167.048 43.5484 166.182 43.0712 164.449 
	 43.0712 163.582 43.0712 163.582 43.0712 163.582 43.0712 163.582 
	 43.0712 163.582 43.0712 163.582 43.0712 163.582 "
	 style=" stroke:#ababab; stroke-width:1; fill:#ababab; fill-opacity:100%"></polygon>
	<polyline points="45.4608 167.915 44.9835 167.048 44.0285 167.048 
	 43.551 166.182 43.0738 164.449 43.0738 163.582 43.0738 161.849 
	 43.0738 160.118 43.0738 156.652 42.5962 153.187 42.5962 149.722 
	 42.5962 146.257 42.5962 142.791 42.5962 139.327 42.5962 135.861 
	 42.5962 132.397 42.5962 128.931 42.5962 125.466 42.1187 121.135 
	 42.1187 117.67 42.1187 114.204 42.1187 110.74 42.1187 107.274 
	 42.1187 105.542 42.1187 103.809 42.1187 100.345 42.1187 96.8795 
	 42.1187 93.4145 42.5962 89.9494 42.5962 86.4843 42.5962 82.1528 
	 42.5962 78.6877 42.5962 75.2225 42.5962 71.7575 42.5962 68.2924 
	 42.5962 64.8273 42.5962 61.3621 43.0738 57.8971 43.0738 54.432 
	 43.0738 50.9669 43.0738 49.2347 43.551 48.3682 44.0285 47.5017 
	 44.9835 46.6354 46.4158 46.6354 47.8481 46.6354 50.2355 46.6354 
	 52.6229 45.7695 55.4874 45.7695 57.8747 45.7695 60.7393 45.7695 
	 63.1267 45.7695 65.9915 45.7695 68.3786 45.7695 71.2435 45.7695 
	 76.4954 45.7695 78.8828 45.7695 81.7472 45.7695 84.1347 45.7695 
	 86.9994 44.9031 87.9542 45.7695 89.3864 45.7695 92.2515 45.7695 
	 94.6386 45.7695 97.026 45.7695 99.8903 45.7695 102.278 45.7695 
	 105.143 45.7695 107.53 45.7695 110.395 45.7695 112.782 45.7695 
	 115.646 45.7695 118.034 45.7695 120.899 45.7695 123.286 46.6354 
	 125.673 46.6354 128.537 46.6354 129.016 46.6354 129.97 47.5017 
	 130.447 48.3682 130.447 50.1005 130.447 50.9669"
	 style=" stroke:#000000; stroke-width:1;"></polyline>
	<polygon points="46.4009 50.0642 127.116 50.0642 128.07 50.0642 
	 128.548 50.9309 128.548 52.6648 128.548 161.872 128.548 162.738 
	 128.07 164.473 127.593 164.473 46.4009 164.473 45.4455 164.473 
	 44.9681 163.606 44.9681 162.738 44.9681 52.6648 44.9681 50.9309 
	 45.4455 50.0642 46.4009 50.0642 46.4009 50.0642 46.4009 50.0642 
	 46.4009 50.0642 46.4009 50.0642 46.4009 50.0642 46.4009 50.0642 "
	 style=" stroke:#000000; stroke-width:1; fill:#000000; fill-opacity:100%"></polygon>
	<polygon points="48.2923 54.3653 126.173 54.3653 126.173 157.591 
	 48.2923 157.591 48.2923 54.3653 48.2923 54.3653 48.2923 54.3653 
	 48.2923 54.3653 48.2923 54.3653 48.2923 54.3653 48.2923 54.3653 "
	 style=" stroke:#000000; stroke-width:1; fill:#00ffff; fill-opacity:100%"></polygon>
	<polygon points="48.2923 54.3653 126.173 54.3653 126.173 59.5267 
	 48.2923 59.5267 48.2923 54.3653 48.2923 54.3653 48.2923 54.3653 
	 48.2923 54.3653 48.2923 54.3653 48.2923 54.3653 48.2923 54.3653 "
	 style=" stroke:#000000; stroke-width:1; fill:#0000ff; fill-opacity:100%"></polygon>
	<polyline points="48.2923 62.9672 126.173 62.9672"
	 style=" stroke:#000000; stroke-width:1;"></polyline>
	<polyline points="48.2923 153.29 126.173 153.29"
	 style=" stroke:#000000; stroke-width:1;"></polyline>
	<polyline points="85.8082 154.151 85.8082 62.9672"
	 style=" stroke:#000000; stroke-width:1;"></polyline>
	<polyline points="87.7078 62.9672 87.7078 153.29"
	 style=" stroke:#000000; stroke-width:1;"></polyline>
	<polygon points="50.6668 154.151 86.2832 154.151 86.2832 112.86 
	 50.6668 112.86 50.6668 154.151 50.6668 154.151 50.6668 154.151 
	 50.6668 154.151 50.6668 154.151 50.6668 154.151 50.6668 154.151 "
	 style=" stroke:#000000; stroke-width:1; fill:#00ffff; fill-opacity:100%"></polygon>
	<polygon points="50.6668 118.021 86.2832 118.021 86.2832 112.86 
	 50.6668 112.86 50.6668 118.021 50.6668 118.021 50.6668 118.021 
	 50.6668 118.021 50.6668 118.021 50.6668 118.021 50.6668 118.021 "
	 style=" stroke:#000000; stroke-width:1; fill:#0000ff; fill-opacity:100%"></polygon>
	<polygon points="88.1828 154.151 124.274 154.151 124.274 112.86 
	 88.1828 112.86 88.1828 154.151 88.1828 154.151 88.1828 154.151 
	 88.1828 154.151 88.1828 154.151 88.1828 154.151 88.1828 154.151 "
	 style=" stroke:#000000; stroke-width:1; fill:#00ffff; fill-opacity:100%"></polygon>
	<polygon points="88.1828 118.021 124.274 118.021 124.274 112.86 
	 88.1828 112.86 88.1828 118.021 88.1828 118.021 88.1828 118.021 
	 88.1828 118.021 88.1828 118.021 88.1828 118.021 88.1828 118.021 "
	 style=" stroke:#000000; stroke-width:1; fill:#0000ff; fill-opacity:100%"></polygon>
	<polygon points="124.274 109.419 88.1828 109.419 88.1828 67.2685 
	 124.274 67.2685 124.274 109.419 124.274 109.419 124.274 109.419 
	 124.274 109.419 124.274 109.419 124.274 109.419 124.274 109.419 "
	 style=" stroke:#000000; stroke-width:1; fill:#00ffff; fill-opacity:100%"></polygon>
	<polyline points="88.1828 72.43 123.799 72.43"
	 style=" stroke:#000000; stroke-width:1;"></polyline>
	<polyline points="91.5069 79.3117 119.525 79.3117"
	 style=" stroke:#000000; stroke-width:1;"></polyline>
	<polyline points="91.5069 86.1934 119.525 86.1934"
	 style=" stroke:#000000; stroke-width:1;"></polyline>
	<polyline points="91.9819 93.935 120 93.935"
	 style=" stroke:#000000; stroke-width:1;"></polyline>
	<polyline points="54.4659 123.183 82.4842 123.183"
	 style=" stroke:#000000; stroke-width:1;"></polyline>
	<polyline points="91.9819 100.817 120 100.817"
	 style=" stroke:#000000; stroke-width:1;"></polyline>
	<polyline points="91.9819 123.183 120 123.183"
	 style=" stroke:#000000; stroke-width:1;"></polyline>
	<polyline points="54.4659 130.064 82.4842 130.064"
	 style=" stroke:#000000; stroke-width:1;"></polyline>
	<polyline points="91.9819 130.064 120 130.064"
	 style=" stroke:#000000; stroke-width:1;"></polyline>
	<polyline points="54.4659 136.946 82.4842 136.946"
	 style=" stroke:#000000; stroke-width:1;"></polyline>
	<polyline points="91.9819 136.946 120 136.946"
	 style=" stroke:#000000; stroke-width:1;"></polyline>
	<polyline points="54.4659 144.687 82.4842 144.687"
	 style=" stroke:#000000; stroke-width:1;"></polyline>
	<polyline points="91.9819 144.687 120 144.687"
	 style=" stroke:#000000; stroke-width:1;"></polyline>
	<polygon points="118.1 123.183 67.7624 123.183 67.7624 64.6879 
	 118.1 64.6879 118.1 123.183 118.1 123.183 118.1 123.183 
	 118.1 123.183 118.1 123.183 118.1 123.183 118.1 123.183 "
	 style=" stroke:#000000; stroke-width:1; fill:#00ffff; fill-opacity:100%"></polygon>
	<polygon points="118.1 69.8492 67.7624 69.8492 67.7624 64.6879 
	 118.1 64.6879 118.1 69.8492 118.1 69.8492 118.1 69.8492 
	 118.1 69.8492 118.1 69.8492 118.1 69.8492 118.1 69.8492 "
	 style=" stroke:#000000; stroke-width:1; fill:#0000ff; fill-opacity:100%"></polygon>
	<polyline points="72.9864 81.0318 111.927 81.0318"
	 style=" stroke:#000000; stroke-width:1;"></polyline>
	<polyline points="72.9864 91.3545 111.927 91.3545"
	 style=" stroke:#000000; stroke-width:1;"></polyline>
	<polyline points="72.9864 100.817 111.927 100.817"
	 style=" stroke:#000000; stroke-width:1;"></polyline>
	<polyline points="72.9864 111.139 111.927 111.139"
	 style=" stroke:#000000; stroke-width:1;"></polyline>
	<polyline points="70.6119 68.9892 70.6119 123.183"
	 style=" stroke:#000000; stroke-width:1;"></polyline>
	<polyline points="115.251 68.9892 115.251 123.183"
	 style=" stroke:#000000; stroke-width:1;"></polyline>
	<polyline points="67.7624 118.021 118.1 118.021"
	 style=" stroke:#000000; stroke-width:1;"></polyline>
	<polyline points="129.498 182.537 129.498 173.935 120.95 173.935"
	 style=" stroke:#000000; stroke-width:1;"></polyline>
	<polyline points="53.041 173.074 53.041 178.237 57.7898 178.237"
	 style=" stroke:#000000; stroke-width:1;"></polyline>
	<polygon points="57.823 197.16 207.811 197.16 208.763 197.16 
	 209.239 198.036 210.191 198.036 210.668 199.784 211.144 200.659 
	 211.62 201.533 224 244.388 224 246.136 223.524 247.01 
	 223.047 247.885 222.095 248.759 221.619 249.633 221.143 249.633 
	 48.2999 249.633 47.3475 249.633 46.8715 248.759 45.9191 247.885 
	 45.4428 247.01 45.4428 245.262 45.4428 244.388 54.0137 201.533 
	 54.4899 200.659 55.4421 198.91 55.9183 198.036 56.3946 197.16 
	 57.3467 197.16 57.823 197.16 57.823 197.16 57.823 197.16 
	 57.823 197.16 57.823 197.16 57.823 197.16 57.823 197.16 "
	 style=" stroke:#000000; stroke-width:1; fill:#ffffff; fill-opacity:100%"></polygon>
	<polygon points="46.8715 262.537 222.095 262.537 223.047 262.537 
	 223.524 261.634 224 259.827 224 258.924 224 244.472 
	 223.524 246.279 223.047 247.182 222.571 248.086 221.619 248.989 
	 221.143 248.989 48.2999 248.989 47.3475 248.086 46.8715 248.086 
	 45.9191 247.182 45.4428 246.279 45.4428 244.472 45.4428 258.924 
	 45.4428 260.73 45.9191 261.634 46.3952 262.537 46.8715 262.537 
	 46.8715 262.537 46.8715 262.537 46.8715 262.537 46.8715 262.537 
	 46.8715 262.537 46.8715 262.537 "
	 style=" stroke:#ababab; stroke-width:1; fill:#ababab; fill-opacity:100%"></polygon>
	<polyline points="46.8677 259.957 222.1 259.957"
	 style=" stroke:#000000; stroke-width:1;"></polyline>
	<polyline points="224 249.633 223.524 250.924 223.047 252.215 
	 222.571 252.215 46.8715 252.215 46.3952 252.215 45.9191 252.215 
	 45.4428 250.924 45.4428 249.633"
	 style=" stroke:#000000; stroke-width:1;"></polyline>
	<polyline points="224 250.494 223.524 251.784 223.047 253.075 
	 222.571 253.075 46.8715 253.075 46.3952 253.075 45.9191 253.075 
	 45.4428 251.784 45.4428 250.494"
	 style=" stroke:#ffffff; stroke-width:1;"></polyline>
	<polygon points="63.0369 209.203 57.3151 244.472 174.137 244.472 
	 169.368 209.203 63.0369 209.203 63.0369 209.203 63.0369 209.203 
	 63.0369 209.203 63.0369 209.203 63.0369 209.203 63.0369 209.203 "
	 style=" stroke:#000000; stroke-width:1; fill:#000000; fill-opacity:100%"></polygon>
	<polygon points="177.461 209.203 184.202 244.472 212.128 243.591 
	 203.461 209.203 177.461 209.203 177.461 209.203 177.461 209.203 
	 177.461 209.203 177.461 209.203 177.461 209.203 177.461 209.203 "
	 style=" stroke:#000000; stroke-width:1; fill:#000000; fill-opacity:100%"></polygon>
	<polyline points="168.914 209.203 186.959 209.203"
	 style=" stroke:#000000; stroke-width:1;"></polyline>
	<polyline points="169.863 242.751 185.06 242.751"
	 style=" stroke:#000000; stroke-width:1;"></polyline>
	<polygon points="103.392 200.602 102.904 207.484 120.95 207.484 
	 120.462 200.602 120.462 205.517 103.392 205.517 103.392 200.602 
	 103.392 200.602 103.392 200.602 103.392 200.602 103.392 200.602 
	 103.392 200.602 103.392 200.602 "
	 style=" stroke:#000000; stroke-width:1; fill:#ababab; fill-opacity:100%"></polygon>
	<polygon points="64.5114 208.343 63.4887 214.242 66.5571 215.225 
	 69.6259 214.242 70.137 208.343 64.5114 208.343 64.5114 208.343 
	 64.5114 208.343 64.5114 208.343 64.5114 208.343 64.5114 208.343 64.5114 208.343 "
	 style=" stroke:#ababab; stroke-width:1; fill:#ffffff; fill-opacity:100%"></polygon>
	<polygon points="63.4887 213.122 63.4887 216.946 70.137 216.946 
	 70.137 211.211 70.137 208.343 69.6259 213.122 68.6029 214.078 
	 68.0913 214.078 67.0686 214.078 66.5571 214.078 66.0459 214.078 
	 65.0228 214.078 64.5114 214.078 63.4887 213.122 63.4887 213.122 
	 63.4887 213.122 63.4887 213.122 63.4887 213.122 63.4887 213.122 63.4887 213.122 "
	 style=" stroke:#ababab; stroke-width:1; fill:#ababab; fill-opacity:100%"></polygon>
	<polygon points="71.1599 208.343 70.137 214.242 73.2056 215.225 
	 76.2738 214.242 76.7853 208.343 71.1599 208.343 71.1599 208.343 
	 71.1599 208.343 71.1599 208.343 71.1599 208.343 71.1599 208.343 71.1599 208.343 "
	 style=" stroke:#ababab; stroke-width:1; fill:#ffffff; fill-opacity:100%"></polygon>
	<polygon points="70.137 213.122 70.137 216.946 76.7853 216.946 
	 76.7853 211.211 76.7853 208.343 76.2738 213.122 75.2512 214.078 
	 74.7397 214.078 74.2283 214.078 73.2056 214.078 71.6711 214.078 
	 70.6484 214.078 70.137 213.122 70.137 213.122 70.137 213.122 
	 70.137 213.122 70.137 213.122 70.137 213.122 70.137 213.122 "
	 style=" stroke:#ababab; stroke-width:1; fill:#ababab; fill-opacity:100%"></polygon>
	<polygon points="77.8082 208.343 76.7855 214.242 79.854 215.225 
	 82.9227 214.242 83.4339 208.343 77.8082 208.343 77.8082 208.343 
	 77.8082 208.343 77.8082 208.343 77.8082 208.343 77.8082 208.343 77.8082 208.343 "
	 style=" stroke:#ababab; stroke-width:1; fill:#ffffff; fill-opacity:100%"></polygon>
	<polygon points="76.7855 213.122 76.7855 216.946 83.4339 216.946 
	 83.4339 211.211 83.4339 208.343 82.9227 213.122 81.8997 214.078 
	 81.3882 214.078 80.3654 214.078 79.854 214.078 79.3424 214.078 
	 78.3197 214.078 77.8082 214.078 76.7855 213.122 76.7855 213.122 
	 76.7855 213.122 76.7855 213.122 76.7855 213.122 76.7855 213.122 76.7855 213.122 "
	 style=" stroke:#ababab; stroke-width:1; fill:#ababab; fill-opacity:100%"></polygon>
	<polygon points="168.873 208.343 169.388 214.242 166.816 215.225 
	 163.729 214.242 163.214 208.343 168.873 208.343 168.873 208.343 
	 168.873 208.343 168.873 208.343 168.873 208.343 168.873 208.343 168.873 208.343 "
	 style=" stroke:#ababab; stroke-width:1; fill:#ffffff; fill-opacity:100%"></polygon>
	<polygon points="169.354 213.122 169.863 216.946 163.249 216.946 
	 162.74 211.211 163.249 208.343 163.758 213.122 164.266 214.078 
	 165.284 214.078 165.793 214.078 166.302 214.078 167.319 214.078 
	 167.828 214.078 168.846 214.078 169.354 213.122 169.354 213.122 
	 169.354 213.122 169.354 213.122 169.354 213.122 169.354 213.122 169.354 213.122 "
	 style=" stroke:#ababab; stroke-width:1; fill:#ababab; fill-opacity:100%"></polygon>
	<polygon points="203.01 208.343 204.529 213.258 201.49 215.225 
	 198.451 213.258 196.931 208.343 203.01 208.343 203.01 208.343 
	 203.01 208.343 203.01 208.343 203.01 208.343 203.01 208.343 203.01 208.343 "
	 style=" stroke:#ababab; stroke-width:1; fill:#ffffff; fill-opacity:100%"></polygon>
	<polygon points="204.529 213.122 204.529 216.946 198.451 216.946 
	 197.438 211.211 196.931 208.343 198.451 213.122 198.958 213.122 
	 199.971 213.122 200.478 214.078 201.49 214.078 201.997 214.078 
	 203.01 213.122 203.517 213.122 204.529 213.122 204.529 213.122 
	 204.529 213.122 204.529 213.122 204.529 213.122 204.529 213.122 204.529 213.122 "
	 style=" stroke:#ababab; stroke-width:1; fill:#ababab; fill-opacity:100%"></polygon>
	<polygon points="204.428 215.225 205.954 220.14 203.411 222.107 
	 200.357 220.14 198.831 215.225 204.428 215.225 204.428 215.225 
	 204.428 215.225 204.428 215.225 204.428 215.225 204.428 215.225 204.428 215.225 "
	 style=" stroke:#ababab; stroke-width:1; fill:#ffffff; fill-opacity:100%"></polygon>
	<polygon points="205.925 220.004 206.43 223.828 199.869 223.828 
	 198.861 217.137 198.356 215.225 199.869 220.004 200.879 220.004 
	 201.888 220.004 202.392 220.004 203.402 220.004 203.907 220.004 
	 204.411 220.004 205.421 220.004 205.925 220.004 205.925 220.004 
	 205.925 220.004 205.925 220.004 205.925 220.004 205.925 220.004 205.925 220.004 "
	 style=" stroke:#ababab; stroke-width:1; fill:#ababab; fill-opacity:100%"></polygon>
	<polygon points="206.334 222.107 207.854 227.022 204.815 228.989 
	 201.776 227.022 200.255 222.107 206.334 222.107 206.334 222.107 
	 206.334 222.107 206.334 222.107 206.334 222.107 206.334 222.107 206.334 222.107 "
	 style=" stroke:#ababab; stroke-width:1; fill:#ffffff; fill-opacity:100%"></polygon>
	<polygon points="207.854 226.886 207.854 230.708 201.776 230.708 
	 200.255 224.018 200.255 222.107 201.776 226.886 202.281 226.886 
	 203.295 227.842 203.801 227.842 204.815 227.842 205.321 227.842 
	 206.334 227.842 206.84 226.886 207.854 226.886 207.854 226.886 
	 207.854 226.886 207.854 226.886 207.854 226.886 207.854 226.886 207.854 226.886 "
	 style=" stroke:#ababab; stroke-width:1; fill:#ababab; fill-opacity:100%"></polygon>
	<polygon points="207.759 228.989 209.278 233.904 206.239 235.871 
	 203.2 233.904 201.681 228.989 207.759 228.989 207.759 228.989 
	 207.759 228.989 207.759 228.989 207.759 228.989 207.759 228.989 207.759 228.989 "
	 style=" stroke:#ababab; stroke-width:1; fill:#ffffff; fill-opacity:100%"></polygon>
	<polygon points="209.248 233.768 209.754 237.59 203.194 237.59 
	 202.185 230.9 201.681 228.989 203.194 233.768 203.698 233.768 
	 204.708 233.768 205.717 234.724 206.221 234.724 206.725 234.724 
	 207.735 233.768 208.24 233.768 209.248 233.768 209.248 233.768 
	 209.248 233.768 209.248 233.768 209.248 233.768 209.248 233.768 209.248 233.768 "
	 style=" stroke:#ababab; stroke-width:1; fill:#ababab; fill-opacity:100%"></polygon>
	<polygon points="209.658 235.01 211.178 240.816 208.139 242.753 
	 205.1 240.816 203.58 235.01 209.658 235.01 209.658 235.01 
	 209.658 235.01 209.658 235.01 209.658 235.01 209.658 235.01 209.658 235.01 "
	 style=" stroke:#ababab; stroke-width:1; fill:#ffffff; fill-opacity:100%"></polygon>
	<polygon points="211.178 240.65 211.178 244.472 204.593 244.472 
	 203.58 237.782 203.58 235.871 204.593 240.65 205.606 240.65 
	 206.619 240.65 207.126 240.65 208.139 240.65 208.646 240.65 
	 209.658 240.65 210.165 240.65 211.178 240.65 211.178 240.65 
	 211.178 240.65 211.178 240.65 211.178 240.65 211.178 240.65 211.178 240.65 "
	 style=" stroke:#ababab; stroke-width:1; fill:#ababab; fill-opacity:100%"></polygon>
	<polygon points="196.836 208.343 198.356 213.258 195.317 215.225 
	 192.277 213.258 190.758 208.343 196.836 208.343 196.836 208.343 
	 196.836 208.343 196.836 208.343 196.836 208.343 196.836 208.343 196.836 208.343 "
	 style=" stroke:#ababab; stroke-width:1; fill:#ffffff; fill-opacity:100%"></polygon>
	<polygon points="198.356 213.122 198.356 216.946 192.277 216.946 
	 191.265 211.211 190.758 208.343 192.277 213.122 192.784 213.122 
	 193.797 213.122 194.304 214.078 195.317 214.078 195.823 214.078 
	 196.836 213.122 197.343 213.122 198.356 213.122 198.356 213.122 
	 198.356 213.122 198.356 213.122 198.356 213.122 198.356 213.122 198.356 213.122 "
	 style=" stroke:#ababab; stroke-width:1; fill:#ababab; fill-opacity:100%"></polygon>
	<polygon points="198.255 215.225 199.781 220.14 196.729 222.107 
	 193.675 220.14 192.657 215.225 198.255 215.225 198.255 215.225 
	 198.255 215.225 198.255 215.225 198.255 215.225 198.255 215.225 198.255 215.225 "
	 style=" stroke:#ababab; stroke-width:1; fill:#ffffff; fill-opacity:100%"></polygon>
	<polygon points="199.751 220.004 200.255 223.828 193.697 223.828 
	 192.688 217.137 192.182 215.225 193.697 220.004 194.705 220.004 
	 195.21 220.004 196.219 220.004 196.724 220.004 197.732 220.004 
	 198.237 220.004 198.742 220.004 199.751 220.004 199.751 220.004 
	 199.751 220.004 199.751 220.004 199.751 220.004 199.751 220.004 199.751 220.004 "
	 style=" stroke:#ababab; stroke-width:1; fill:#ababab; fill-opacity:100%"></polygon>
	<polygon points="199.679 222.107 201.205 227.022 198.662 228.989 
	 195.609 227.022 194.082 222.107 199.679 222.107 199.679 222.107 
	 199.679 222.107 199.679 222.107 199.679 222.107 199.679 222.107 199.679 222.107 "
	 style=" stroke:#ababab; stroke-width:1; fill:#ffffff; fill-opacity:100%"></polygon>
	<polygon points="201.174 226.886 201.681 230.708 195.095 230.708 
	 194.082 224.018 194.082 222.107 195.095 226.886 196.108 226.886 
	 196.615 227.842 197.628 227.842 198.135 227.842 199.147 227.842 
	 199.654 227.842 200.667 226.886 201.174 226.886 201.174 226.886 
	 201.174 226.886 201.174 226.886 201.174 226.886 201.174 226.886 201.174 226.886 "
	 style=" stroke:#ababab; stroke-width:1; fill:#ababab; fill-opacity:100%"></polygon>
	<polygon points="201.585 228.989 203.105 233.904 200.066 235.871 
	 197.027 233.904 195.507 228.989 201.585 228.989 201.585 228.989 
	 201.585 228.989 201.585 228.989 201.585 228.989 201.585 228.989 201.585 228.989 "
	 style=" stroke:#ababab; stroke-width:1; fill:#ffffff; fill-opacity:100%"></polygon>
	<polygon points="203.105 233.768 203.105 237.59 196.52 237.59 
	 195.507 230.9 195.507 228.989 197.027 233.768 197.532 233.768 
	 198.546 233.768 199.053 234.724 200.066 234.724 200.573 234.724 
	 201.585 233.768 202.092 233.768 203.105 233.768 203.105 233.768 
	 203.105 233.768 203.105 233.768 203.105 233.768 203.105 233.768 203.105 233.768 "
	 style=" stroke:#ababab; stroke-width:1; fill:#ababab; fill-opacity:100%"></polygon>
	<polygon points="203.01 235.01 204.529 240.816 201.997 242.753 
	 198.451 240.816 196.931 235.01 203.01 235.01 203.01 235.01 
	 203.01 235.01 203.01 235.01 203.01 235.01 203.01 235.01 203.01 235.01 "
	 style=" stroke:#ababab; stroke-width:1; fill:#ffffff; fill-opacity:100%"></polygon>
	<polygon points="204.5 240.65 205.004 244.472 198.445 244.472 
	 197.437 237.782 196.931 235.871 198.445 240.65 199.454 240.65 
	 199.959 240.65 200.968 240.65 201.472 240.65 202.481 240.65 
	 202.987 240.65 203.995 240.65 204.5 240.65 204.5 240.65 
	 204.5 240.65 204.5 240.65 204.5 240.65 204.5 240.65 204.5 240.65 "
	 style=" stroke:#ababab; stroke-width:1; fill:#ababab; fill-opacity:100%"></polygon>
	<polygon points="190.181 208.343 191.708 213.258 189.163 215.225 
	 185.602 213.258 184.584 208.343 190.181 208.343 190.181 208.343 
	 190.181 208.343 190.181 208.343 190.181 208.343 190.181 208.343 190.181 208.343 "
	 style=" stroke:#ababab; stroke-width:1; fill:#ffffff; fill-opacity:100%"></polygon>
	<polygon points="191.708 213.122 191.708 216.946 185.629 216.946 
	 184.616 211.211 184.109 208.343 185.629 213.122 186.643 213.122 
	 187.149 213.122 188.162 214.078 188.668 214.078 189.682 214.078 
	 190.189 213.122 190.694 213.122 191.708 213.122 191.708 213.122 
	 191.708 213.122 191.708 213.122 191.708 213.122 191.708 213.122 191.708 213.122 "
	 style=" stroke:#ababab; stroke-width:1; fill:#ababab; fill-opacity:100%"></polygon>
	<polygon points="191.606 215.225 193.132 220.14 190.589 222.107 
	 187.026 220.14 186.009 215.225 191.606 215.225 191.606 215.225 
	 191.606 215.225 191.606 215.225 191.606 215.225 191.606 215.225 191.606 215.225 "
	 style=" stroke:#ababab; stroke-width:1; fill:#ffffff; fill-opacity:100%"></polygon>
	<polygon points="193.103 220.004 193.607 223.828 187.048 223.828 
	 186.039 217.137 185.535 215.225 187.048 220.004 188.058 220.004 
	 188.562 220.004 189.571 220.004 190.075 220.004 191.085 220.004 
	 191.589 220.004 192.598 220.004 193.103 220.004 193.103 220.004 
	 193.103 220.004 193.103 220.004 193.103 220.004 193.103 220.004 193.103 220.004 "
	 style=" stroke:#ababab; stroke-width:1; fill:#ababab; fill-opacity:100%"></polygon>
	<polygon points="193.539 222.107 194.557 227.022 192.013 228.989 
	 188.96 227.022 187.434 222.107 193.539 222.107 193.539 222.107 
	 193.539 222.107 193.539 222.107 193.539 222.107 193.539 222.107 193.539 222.107 "
	 style=" stroke:#ababab; stroke-width:1; fill:#ffffff; fill-opacity:100%"></polygon>
	<polygon points="194.525 226.886 195.032 230.708 188.447 230.708 
	 187.434 224.018 187.434 222.107 188.447 226.886 189.459 226.886 
	 190.473 227.842 190.979 227.842 191.993 227.842 192.5 227.842 
	 193.005 227.842 194.019 226.886 194.525 226.886 194.525 226.886 
	 194.525 226.886 194.525 226.886 194.525 226.886 194.525 226.886 194.525 226.886 "
	 style=" stroke:#ababab; stroke-width:1; fill:#ababab; fill-opacity:100%"></polygon>
	<polygon points="194.937 228.989 196.456 233.904 193.417 235.871 
	 190.378 233.904 188.859 228.989 194.937 228.989 194.937 228.989 
	 194.937 228.989 194.937 228.989 194.937 228.989 194.937 228.989 194.937 228.989 "
	 style=" stroke:#ababab; stroke-width:1; fill:#ffffff; fill-opacity:100%"></polygon>
	<polygon points="196.456 233.768 196.456 237.59 189.871 237.59 
	 188.859 230.9 188.859 228.989 190.378 233.768 190.885 233.768 
	 191.898 233.768 192.404 234.724 193.417 234.724 193.924 234.724 
	 194.937 233.768 195.443 233.768 196.456 233.768 196.456 233.768 
	 196.456 233.768 196.456 233.768 196.456 233.768 196.456 233.768 196.456 233.768 "
	 style=" stroke:#ababab; stroke-width:1; fill:#ababab; fill-opacity:100%"></polygon>
	<polygon points="196.362 235.01 197.882 240.816 195.348 242.753 
	 191.802 240.816 190.283 235.01 196.362 235.01 196.362 235.01 
	 196.362 235.01 196.362 235.01 196.362 235.01 196.362 235.01 196.362 235.01 "
	 style=" stroke:#ababab; stroke-width:1; fill:#ffffff; fill-opacity:100%"></polygon>
	<polygon points="197.852 240.65 198.356 244.472 191.796 244.472 
	 190.788 237.782 190.283 235.871 191.796 240.65 192.806 240.65 
	 193.311 240.65 194.319 240.65 194.825 240.65 195.833 240.65 
	 196.338 240.65 197.347 240.65 197.852 240.65 197.852 240.65 
	 197.852 240.65 197.852 240.65 197.852 240.65 197.852 240.65 197.852 240.65 "
	 style=" stroke:#ababab; stroke-width:1; fill:#ababab; fill-opacity:100%"></polygon>
	<polygon points="183.533 208.343 185.059 213.258 182.516 215.225 
	 178.953 213.258 177.936 208.343 183.533 208.343 183.533 208.343 
	 183.533 208.343 183.533 208.343 183.533 208.343 183.533 208.343 183.533 208.343 "
	 style=" stroke:#ababab; stroke-width:1; fill:#ffffff; fill-opacity:100%"></polygon>
	<polygon points="185.059 213.122 185.059 216.946 178.953 216.946 
	 177.936 211.211 177.936 208.343 178.953 213.122 179.971 213.122 
	 180.48 213.122 181.497 214.078 182.007 214.078 183.024 214.078 
	 183.533 213.122 184.551 213.122 185.059 213.122 185.059 213.122 
	 185.059 213.122 185.059 213.122 185.059 213.122 185.059 213.122 185.059 213.122 "
	 style=" stroke:#ababab; stroke-width:1; fill:#ababab; fill-opacity:100%"></polygon>
	<polygon points="184.958 215.225 186.484 220.14 183.431 222.107 
	 180.379 220.14 179.36 215.225 184.958 215.225 184.958 215.225 
	 184.958 215.225 184.958 215.225 184.958 215.225 184.958 215.225 184.958 215.225 "
	 style=" stroke:#ababab; stroke-width:1; fill:#ffffff; fill-opacity:100%"></polygon>
	<polygon points="186.452 220.004 186.959 223.828 180.374 223.828 
	 179.36 217.137 179.36 215.225 180.374 220.004 181.387 220.004 
	 181.893 220.004 182.906 220.004 183.413 220.004 184.426 220.004 
	 184.933 220.004 185.945 220.004 186.452 220.004 186.452 220.004 
	 186.452 220.004 186.452 220.004 186.452 220.004 186.452 220.004 186.452 220.004 "
	 style=" stroke:#ababab; stroke-width:1; fill:#ababab; fill-opacity:100%"></polygon>
	<polygon points="186.891 222.107 187.908 227.022 185.365 228.989 
	 182.312 227.022 180.785 222.107 186.891 222.107 186.891 222.107 
	 186.891 222.107 186.891 222.107 186.891 222.107 186.891 222.107 186.891 222.107 "
	 style=" stroke:#ababab; stroke-width:1; fill:#ffffff; fill-opacity:100%"></polygon>
	<polygon points="187.876 226.886 188.383 230.708 181.798 230.708 
	 180.785 224.018 180.785 222.107 181.798 226.886 182.812 226.886 
	 183.318 227.842 184.331 227.842 184.837 227.842 185.851 227.842 
	 186.357 227.842 187.371 226.886 187.876 226.886 187.876 226.886 
	 187.876 226.886 187.876 226.886 187.876 226.886 187.876 226.886 187.876 226.886 "
	 style=" stroke:#ababab; stroke-width:1; fill:#ababab; fill-opacity:100%"></polygon>
	<polygon points="188.288 228.989 189.809 233.904 186.769 235.871 
	 183.729 233.904 182.21 228.989 188.288 228.989 188.288 228.989 
	 188.288 228.989 188.288 228.989 188.288 228.989 188.288 228.989 188.288 228.989 "
	 style=" stroke:#ababab; stroke-width:1; fill:#ffffff; fill-opacity:100%"></polygon>
	<polygon points="189.809 233.768 189.809 237.59 183.224 237.59 
	 182.21 230.9 182.21 228.989 183.224 233.768 184.236 233.768 
	 185.249 233.768 185.756 234.724 186.769 234.724 187.275 234.724 
	 188.288 233.768 188.795 233.768 189.809 233.768 189.809 233.768 
	 189.809 233.768 189.809 233.768 189.809 233.768 189.809 233.768 189.809 233.768 "
	 style=" stroke:#ababab; stroke-width:1; fill:#ababab; fill-opacity:100%"></polygon>
	<polygon points="189.713 235.01 191.233 240.816 188.194 242.753 
	 185.155 240.816 183.634 235.01 189.713 235.01 189.713 235.01 
	 189.713 235.01 189.713 235.01 189.713 235.01 189.713 235.01 189.713 235.01 "
	 style=" stroke:#ababab; stroke-width:1; fill:#ffffff; fill-opacity:100%"></polygon>
	<polygon points="191.233 240.65 191.233 244.472 184.648 244.472 
	 183.634 237.782 183.634 235.871 185.155 240.65 185.66 240.65 
	 186.674 240.65 187.18 240.65 188.194 240.65 188.7 240.65 
	 189.713 240.65 190.219 240.65 191.233 240.65 191.233 240.65 
	 191.233 240.65 191.233 240.65 191.233 240.65 191.233 240.65 191.233 240.65 "
	 style=" stroke:#ababab; stroke-width:1; fill:#ababab; fill-opacity:100%"></polygon>
	<polygon points="84.4567 208.343 83.4338 214.242 86.5024 215.225 
	 89.5706 214.242 90.0822 208.343 84.4567 208.343 84.4567 208.343 
	 84.4567 208.343 84.4567 208.343 84.4567 208.343 84.4567 208.343 84.4567 208.343 "
	 style=" stroke:#ababab; stroke-width:1; fill:#ffffff; fill-opacity:100%"></polygon>
	<polygon points="83.4338 213.122 83.4338 216.946 90.0822 216.946 
	 90.0822 211.211 90.0822 208.343 89.5706 213.122 88.5481 214.078 
	 88.0365 214.078 87.0136 214.078 86.5024 214.078 85.9909 214.078 
	 84.9679 214.078 84.4567 214.078 83.4338 213.122 83.4338 213.122 
	 83.4338 213.122 83.4338 213.122 83.4338 213.122 83.4338 213.122 83.4338 213.122 "
	 style=" stroke:#ababab; stroke-width:1; fill:#ababab; fill-opacity:100%"></polygon>
	<polygon points="162.191 208.343 163.214 214.242 160.146 215.225 
	 157.078 214.242 156.567 208.343 162.191 208.343 162.191 208.343 
	 162.191 208.343 162.191 208.343 162.191 208.343 162.191 208.343 162.191 208.343 "
	 style=" stroke:#ababab; stroke-width:1; fill:#ffffff; fill-opacity:100%"></polygon>
	<polygon points="163.214 213.122 163.214 216.946 156.6 216.946 
	 156.091 211.211 156.091 208.343 157.109 213.122 157.618 214.078 
	 158.635 214.078 159.144 214.078 160.162 214.078 160.67 214.078 
	 161.179 214.078 162.197 214.078 163.214 213.122 163.214 213.122 
	 163.214 213.122 163.214 213.122 163.214 213.122 163.214 213.122 163.214 213.122 "
	 style=" stroke:#ababab; stroke-width:1; fill:#ababab; fill-opacity:100%"></polygon>
	<polygon points="90.5935 208.343 90.0823 214.242 93.1508 215.225 
	 96.2192 214.242 96.7307 208.343 90.5935 208.343 90.5935 208.343 
	 90.5935 208.343 90.5935 208.343 90.5935 208.343 90.5935 208.343 90.5935 208.343 "
	 style=" stroke:#ababab; stroke-width:1; fill:#ffffff; fill-opacity:100%"></polygon>
	<polygon points="90.0823 213.122 90.0823 216.946 96.7307 216.946 
	 96.7307 211.211 96.7307 208.343 96.2192 213.122 95.1964 214.078 
	 94.685 214.078 94.1738 214.078 93.1508 214.078 92.6392 214.078 
	 91.6165 214.078 91.1051 214.078 90.0823 213.122 90.0823 213.122 
	 90.0823 213.122 90.0823 213.122 90.0823 213.122 90.0823 213.122 90.0823 213.122 "
	 style=" stroke:#ababab; stroke-width:1; fill:#ababab; fill-opacity:100%"></polygon>
	<polygon points="155.577 208.343 156.091 214.242 153.519 215.225 
	 150.433 214.242 149.918 208.343 155.577 208.343 155.577 208.343 
	 155.577 208.343 155.577 208.343 155.577 208.343 155.577 208.343 155.577 208.343 "
	 style=" stroke:#ababab; stroke-width:1; fill:#ffffff; fill-opacity:100%"></polygon>
	<polygon points="156.092 213.122 156.092 216.946 149.954 216.946 
	 149.443 211.211 149.954 208.343 150.466 213.122 150.977 214.078 
	 152 214.078 152.512 214.078 153.535 214.078 154.046 214.078 
	 154.557 214.078 155.58 214.078 156.092 213.122 156.092 213.122 
	 156.092 213.122 156.092 213.122 156.092 213.122 156.092 213.122 156.092 213.122 "
	 style=" stroke:#ababab; stroke-width:1; fill:#ababab; fill-opacity:100%"></polygon>
	<polygon points="97.2421 208.343 96.7306 214.242 99.7989 215.225 
	 102.868 214.242 103.379 208.343 97.2421 208.343 97.2421 208.343 
	 97.2421 208.343 97.2421 208.343 97.2421 208.343 97.2421 208.343 97.2421 208.343 "
	 style=" stroke:#ababab; stroke-width:1; fill:#ffffff; fill-opacity:100%"></polygon>
	<polygon points="96.7306 213.122 96.7306 216.946 103.379 216.946 
	 103.379 211.211 103.379 208.343 102.868 213.122 101.844 214.078 
	 101.333 214.078 100.31 214.078 99.7989 214.078 99.2877 214.078 
	 98.2647 214.078 97.7532 214.078 96.7306 213.122 96.7306 213.122 
	 96.7306 213.122 96.7306 213.122 96.7306 213.122 96.7306 213.122 96.7306 213.122 "
	 style=" stroke:#ababab; stroke-width:1; fill:#ababab; fill-opacity:100%"></polygon>
	<polygon points="149.406 208.343 149.918 214.242 146.849 215.225 
	 143.78 214.242 143.269 208.343 149.406 208.343 149.406 208.343 
	 149.406 208.343 149.406 208.343 149.406 208.343 149.406 208.343 149.406 208.343 "
	 style=" stroke:#ababab; stroke-width:1; fill:#ffffff; fill-opacity:100%"></polygon>
	<polygon points="149.918 213.122 149.918 216.946 143.269 216.946 
	 143.269 211.211 143.269 208.343 143.78 213.122 144.292 214.078 
	 145.315 214.078 145.826 214.078 146.849 214.078 147.36 214.078 
	 147.872 214.078 148.895 214.078 149.918 213.122 149.918 213.122 
	 149.918 213.122 149.918 213.122 149.918 213.122 149.918 213.122 149.918 213.122 "
	 style=" stroke:#ababab; stroke-width:1; fill:#ababab; fill-opacity:100%"></polygon>
	<polygon points="103.893 208.343 103.379 214.242 106.466 215.225 
	 109.552 214.242 109.552 208.343 103.893 208.343 103.893 208.343 
	 103.893 208.343 103.893 208.343 103.893 208.343 103.893 208.343 103.893 208.343 "
	 style=" stroke:#ababab; stroke-width:1; fill:#ffffff; fill-opacity:100%"></polygon>
	<polygon points="103.379 213.122 103.379 216.946 110.027 216.946 
	 110.027 211.211 110.027 208.343 109.516 213.122 108.493 214.078 
	 107.982 214.078 106.959 214.078 106.447 214.078 105.936 214.078 
	 104.913 214.078 104.402 214.078 103.379 213.122 103.379 213.122 
	 103.379 213.122 103.379 213.122 103.379 213.122 103.379 213.122 103.379 213.122 "
	 style=" stroke:#ababab; stroke-width:1; fill:#ababab; fill-opacity:100%"></polygon>
	<polygon points="142.759 208.343 143.27 214.242 140.201 215.225 
	 137.133 214.242 136.621 208.343 142.759 208.343 142.759 208.343 
	 142.759 208.343 142.759 208.343 142.759 208.343 142.759 208.343 142.759 208.343 "
	 style=" stroke:#ababab; stroke-width:1; fill:#ffffff; fill-opacity:100%"></polygon>
	<polygon points="143.269 213.122 143.269 216.946 136.655 216.946 
	 136.146 211.211 136.655 208.343 137.163 213.122 137.672 214.078 
	 138.691 214.078 139.199 214.078 140.217 214.078 140.726 214.078 
	 141.234 214.078 142.252 214.078 143.269 213.122 143.269 213.122 
	 143.269 213.122 143.269 213.122 143.269 213.122 143.269 213.122 143.269 213.122 "
	 style=" stroke:#ababab; stroke-width:1; fill:#ababab; fill-opacity:100%"></polygon>
	<polygon points="110.542 208.343 110.027 214.242 113.114 215.225 
	 116.201 214.242 116.201 208.343 110.542 208.343 110.542 208.343 
	 110.542 208.343 110.542 208.343 110.542 208.343 110.542 208.343 110.542 208.343 "
	 style=" stroke:#ababab; stroke-width:1; fill:#ffffff; fill-opacity:100%"></polygon>
	<polygon points="110.027 213.122 110.027 216.946 116.676 216.946 
	 116.676 211.211 116.676 208.343 116.164 213.122 115.141 214.078 
	 114.63 214.078 114.119 214.078 113.096 214.078 112.584 214.078 
	 111.562 214.078 111.05 214.078 110.027 213.122 110.027 213.122 
	 110.027 213.122 110.027 213.122 110.027 213.122 110.027 213.122 110.027 213.122 "
	 style=" stroke:#ababab; stroke-width:1; fill:#ababab; fill-opacity:100%"></polygon>
	<polygon points="136.146 208.343 136.146 214.242 133.574 215.225 
	 130.487 214.242 129.972 208.343 136.146 208.343 136.146 208.343 
	 136.146 208.343 136.146 208.343 136.146 208.343 136.146 208.343 136.146 208.343 "
	 style=" stroke:#ababab; stroke-width:1; fill:#ffffff; fill-opacity:100%"></polygon>
	<polygon points="136.621 213.122 136.11 216.946 129.972 216.946 
	 129.972 211.211 129.972 208.343 130.484 213.122 130.995 214.078 
	 132.018 214.078 132.53 214.078 133.552 214.078 134.064 214.078 
	 135.087 214.078 135.598 214.078 136.621 213.122 136.621 213.122 
	 136.621 213.122 136.621 213.122 136.621 213.122 136.621 213.122 136.621 213.122 "
	 style=" stroke:#ababab; stroke-width:1; fill:#ababab; fill-opacity:100%"></polygon>
	<polygon points="117.19 208.343 116.676 214.242 119.762 215.225 
	 122.849 214.242 122.849 208.343 117.19 208.343 117.19 208.343 
	 117.19 208.343 117.19 208.343 117.19 208.343 117.19 208.343 117.19 208.343 "
	 style=" stroke:#ababab; stroke-width:1; fill:#ffffff; fill-opacity:100%"></polygon>
	<polygon points="116.676 213.122 116.676 216.946 123.325 216.946 
	 123.325 211.211 123.325 208.343 122.813 213.122 121.79 214.078 
	 121.279 214.078 120.256 214.078 119.744 214.078 119.233 214.078 
	 118.21 214.078 117.699 214.078 116.676 213.122 116.676 213.122 
	 116.676 213.122 116.676 213.122 116.676 213.122 116.676 213.122 116.676 213.122 "
	 style=" stroke:#ababab; stroke-width:1; fill:#ababab; fill-opacity:100%"></polygon>
	<polygon points="129.461 208.343 129.972 214.242 126.392 215.225 
	 123.835 214.242 123.325 208.343 129.461 208.343 129.461 208.343 
	 129.461 208.343 129.461 208.343 129.461 208.343 129.461 208.343 129.461 208.343 "
	 style=" stroke:#ababab; stroke-width:1; fill:#ffffff; fill-opacity:100%"></polygon>
	<polygon points="129.972 213.122 129.461 216.946 123.325 216.946 
	 123.325 211.211 123.325 208.343 123.835 213.122 124.348 214.078 
	 125.37 214.078 125.881 214.078 126.905 214.078 127.416 214.078 
	 127.926 214.078 128.949 214.078 129.972 213.122 129.972 213.122 
	 129.972 213.122 129.972 213.122 129.972 213.122 129.972 213.122 129.972 213.122 "
	 style=" stroke:#ababab; stroke-width:1; fill:#ababab; fill-opacity:100%"></polygon>
	<polygon points="67.799 215.225 67.2878 221.124 70.3561 222.107 
	 72.9134 221.124 73.9362 215.225 67.799 215.225 67.799 215.225 
	 67.799 215.225 67.799 215.225 67.799 215.225 67.799 215.225 67.799 215.225 "
	 style=" stroke:#ababab; stroke-width:1; fill:#ffffff; fill-opacity:100%"></polygon>
	<polygon points="67.2878 219.956 67.2878 223.828 73.425 223.828 
	 73.9362 218.021 73.9362 216.085 73.425 219.956 71.8904 220.925 
	 70.8677 220.925 70.3561 220.925 69.3335 220.925 68.822 220.925 
	 67.799 220.925 67.2878 219.956 67.2878 219.956 67.2878 219.956 
	 67.2878 219.956 67.2878 219.956 67.2878 219.956 67.2878 219.956 "
	 style=" stroke:#ababab; stroke-width:1; fill:#ababab; fill-opacity:100%"></polygon>
	<polygon points="74.4475 215.225 73.9361 221.124 77.0046 222.107 
	 79.5614 221.124 80.5845 215.225 74.4475 215.225 74.4475 215.225 
	 74.4475 215.225 74.4475 215.225 74.4475 215.225 74.4475 215.225 74.4475 215.225 "
	 style=" stroke:#ababab; stroke-width:1; fill:#ffffff; fill-opacity:100%"></polygon>
	<polygon points="73.9361 219.956 73.9361 223.828 80.0729 223.828 
	 80.5845 218.021 80.5845 216.085 80.0729 219.956 79.0502 220.925 
	 78.5388 220.925 77.5159 220.925 77.0046 220.925 75.9816 220.925 
	 75.4702 220.925 74.959 220.925 73.9361 219.956 73.9361 219.956 
	 73.9361 219.956 73.9361 219.956 73.9361 219.956 73.9361 219.956 73.9361 219.956 "
	 style=" stroke:#ababab; stroke-width:1; fill:#ababab; fill-opacity:100%"></polygon>
	<polygon points="81.0958 215.225 80.5846 221.124 83.653 222.107 
	 86.2103 221.124 87.233 215.225 81.0958 215.225 81.0958 215.225 
	 81.0958 215.225 81.0958 215.225 81.0958 215.225 81.0958 215.225 81.0958 215.225 "
	 style=" stroke:#ababab; stroke-width:1; fill:#ffffff; fill-opacity:100%"></polygon>
	<polygon points="80.5846 219.956 80.5846 223.828 86.7217 223.828 
	 87.233 218.021 87.233 216.085 86.7217 219.956 85.6987 220.925 
	 85.1873 220.925 84.1645 220.925 83.653 220.925 82.6304 220.925 
	 82.1188 220.925 81.0958 220.925 80.5846 219.956 80.5846 219.956 
	 80.5846 219.956 80.5846 219.956 80.5846 219.956 80.5846 219.956 80.5846 219.956 "
	 style=" stroke:#ababab; stroke-width:1; fill:#ababab; fill-opacity:100%"></polygon>
	<polygon points="61.6287 215.225 61.1141 221.124 63.6866 222.107 
	 66.7731 221.124 67.2877 215.225 61.6287 215.225 61.6287 215.225 
	 61.6287 215.225 61.6287 215.225 61.6287 215.225 61.6287 215.225 61.6287 215.225 "
	 style=" stroke:#ababab; stroke-width:1; fill:#ffffff; fill-opacity:100%"></polygon>
	<polygon points="61.1141 219.956 61.1141 223.828 67.2511 223.828 
	 67.7625 218.021 67.2511 216.085 66.7396 219.956 66.2284 220.925 
	 65.2054 220.925 64.6939 220.925 64.1827 220.925 63.1598 220.925 
	 62.6483 220.925 61.6256 220.925 61.1141 219.956 61.1141 219.956 
	 61.1141 219.956 61.1141 219.956 61.1141 219.956 61.1141 219.956 61.1141 219.956 "
	 style=" stroke:#ababab; stroke-width:1; fill:#ababab; fill-opacity:100%"></polygon>
	<polygon points="87.7443 215.225 87.2328 221.124 90.3014 222.107 
	 93.3698 221.124 93.8812 215.225 87.7443 215.225 87.7443 215.225 
	 87.7443 215.225 87.7443 215.225 87.7443 215.225 87.7443 215.225 87.7443 215.225 "
	 style=" stroke:#ababab; stroke-width:1; fill:#ffffff; fill-opacity:100%"></polygon>
	<polygon points="87.2328 219.956 87.2328 223.828 93.8812 223.828 
	 93.8812 218.021 93.8812 216.085 93.3698 219.956 92.3471 220.925 
	 91.8356 220.925 90.8126 220.925 90.3014 220.925 89.2785 220.925 
	 88.767 220.925 87.7443 220.925 87.2328 219.956 87.2328 219.956 
	 87.2328 219.956 87.2328 219.956 87.2328 219.956 87.2328 219.956 87.2328 219.956 "
	 style=" stroke:#ababab; stroke-width:1; fill:#ababab; fill-opacity:100%"></polygon>
	<polygon points="166.024 215.225 166.539 221.124 163.452 222.107 
	 160.88 221.124 160.366 215.225 166.024 215.225 166.024 215.225 
	 166.024 215.225 166.024 215.225 166.024 215.225 166.024 215.225 166.024 215.225 "
	 style=" stroke:#ababab; stroke-width:1; fill:#ffffff; fill-opacity:100%"></polygon>
	<polygon points="166.539 219.956 166.539 223.828 160.401 223.828 
	 159.89 218.021 159.89 216.085 160.401 219.956 161.424 220.925 
	 161.936 220.925 162.959 220.925 163.47 220.925 164.493 220.925 
	 165.004 220.925 166.027 220.925 166.539 219.956 166.539 219.956 
	 166.539 219.956 166.539 219.956 166.539 219.956 166.539 219.956 166.539 219.956 "
	 style=" stroke:#ababab; stroke-width:1; fill:#ababab; fill-opacity:100%"></polygon>
	<polygon points="94.3956 215.225 93.8815 221.124 96.9682 222.107 
	 99.5407 221.124 100.055 215.225 94.3956 215.225 94.3956 215.225 
	 94.3956 215.225 94.3956 215.225 94.3956 215.225 94.3956 215.225 94.3956 215.225 "
	 style=" stroke:#ababab; stroke-width:1; fill:#ffffff; fill-opacity:100%"></polygon>
	<polygon points="93.8815 219.956 93.8815 223.828 100.018 223.828 
	 100.53 218.021 100.53 216.085 100.018 219.956 98.9956 220.925 
	 98.4841 220.925 97.4614 220.925 96.9498 220.925 95.9268 220.925 
	 95.4156 220.925 94.3926 220.925 93.8815 219.956 93.8815 219.956 
	 93.8815 219.956 93.8815 219.956 93.8815 219.956 93.8815 219.956 93.8815 219.956 "
	 style=" stroke:#ababab; stroke-width:1; fill:#ababab; fill-opacity:100%"></polygon>
	<polygon points="159.376 215.225 159.89 221.124 156.803 222.107 
	 154.231 221.124 153.717 215.225 159.376 215.225 159.376 215.225 
	 159.376 215.225 159.376 215.225 159.376 215.225 159.376 215.225 159.376 215.225 "
	 style=" stroke:#ababab; stroke-width:1; fill:#ffffff; fill-opacity:100%"></polygon>
	<polygon points="159.891 219.956 159.891 223.828 153.754 223.828 
	 153.242 218.021 153.242 216.085 153.754 219.956 154.776 220.925 
	 155.288 220.925 156.311 220.925 156.822 220.925 157.845 220.925 
	 158.357 220.925 159.38 220.925 159.891 219.956 159.891 219.956 
	 159.891 219.956 159.891 219.956 159.891 219.956 159.891 219.956 159.891 219.956 "
	 style=" stroke:#ababab; stroke-width:1; fill:#ababab; fill-opacity:100%"></polygon>
	<polygon points="101.044 215.225 100.53 221.124 103.616 222.107 
	 106.189 221.124 106.703 215.225 101.044 215.225 101.044 215.225 
	 101.044 215.225 101.044 215.225 101.044 215.225 101.044 215.225 101.044 215.225 "
	 style=" stroke:#ababab; stroke-width:1; fill:#ffffff; fill-opacity:100%"></polygon>
	<polygon points="100.53 219.956 100.53 223.828 106.667 223.828 
	 107.178 218.021 106.667 216.085 106.667 219.956 105.644 220.925 
	 105.132 220.925 104.109 220.925 103.598 220.925 102.575 220.925 
	 102.064 220.925 101.041 220.925 100.53 219.956 100.53 219.956 
	 100.53 219.956 100.53 219.956 100.53 219.956 100.53 219.956 100.53 219.956 "
	 style=" stroke:#ababab; stroke-width:1; fill:#ababab; fill-opacity:100%"></polygon>
	<polygon points="152.727 215.225 153.242 221.124 150.154 222.107 
	 147.583 221.124 147.068 215.225 152.727 215.225 152.727 215.225 
	 152.727 215.225 152.727 215.225 152.727 215.225 152.727 215.225 152.727 215.225 "
	 style=" stroke:#ababab; stroke-width:1; fill:#ffffff; fill-opacity:100%"></polygon>
	<polygon points="153.242 219.956 153.242 223.828 146.593 223.828 
	 146.593 218.021 147.105 216.085 147.105 219.956 148.128 220.925 
	 148.639 220.925 149.662 220.925 150.173 220.925 151.196 220.925 
	 151.708 220.925 152.731 220.925 153.242 219.956 153.242 219.956 
	 153.242 219.956 153.242 219.956 153.242 219.956 153.242 219.956 153.242 219.956 "
	 style=" stroke:#ababab; stroke-width:1; fill:#ababab; fill-opacity:100%"></polygon>
	<polygon points="107.692 215.225 107.178 221.124 110.265 222.107 
	 112.837 221.124 113.351 215.225 107.692 215.225 107.692 215.225 
	 107.692 215.225 107.692 215.225 107.692 215.225 107.692 215.225 107.692 215.225 "
	 style=" stroke:#ababab; stroke-width:1; fill:#ffffff; fill-opacity:100%"></polygon>
	<polygon points="107.178 219.956 107.178 223.828 113.826 223.828 
	 113.826 218.021 113.315 216.085 113.315 219.956 112.292 220.925 
	 111.781 220.925 110.758 220.925 110.247 220.925 109.224 220.925 
	 108.712 220.925 107.689 220.925 107.178 219.956 107.178 219.956 
	 107.178 219.956 107.178 219.956 107.178 219.956 107.178 219.956 107.178 219.956 "
	 style=" stroke:#ababab; stroke-width:1; fill:#ababab; fill-opacity:100%"></polygon>
	<polygon points="146.079 215.225 146.593 221.124 143.507 222.107 
	 140.934 221.124 140.42 215.225 146.079 215.225 146.079 215.225 
	 146.079 215.225 146.079 215.225 146.079 215.225 146.079 215.225 146.079 215.225 "
	 style=" stroke:#ababab; stroke-width:1; fill:#ffffff; fill-opacity:100%"></polygon>
	<polygon points="146.593 219.956 146.593 223.828 140.457 223.828 
	 139.946 218.021 140.457 216.085 140.457 219.956 141.48 220.925 
	 141.991 220.925 143.013 220.925 143.525 220.925 144.547 220.925 
	 145.059 220.925 146.082 220.925 146.593 219.956 146.593 219.956 
	 146.593 219.956 146.593 219.956 146.593 219.956 146.593 219.956 146.593 219.956 "
	 style=" stroke:#ababab; stroke-width:1; fill:#ababab; fill-opacity:100%"></polygon>
	<polygon points="114.341 215.225 113.827 221.124 116.913 222.107 
	 119.485 221.124 120 215.225 114.341 215.225 114.341 215.225 
	 114.341 215.225 114.341 215.225 114.341 215.225 114.341 215.225 114.341 215.225 "
	 style=" stroke:#ababab; stroke-width:1; fill:#ffffff; fill-opacity:100%"></polygon>
	<polygon points="113.827 219.956 113.827 223.828 120.475 223.828 
	 120.475 218.021 119.963 216.085 119.963 219.956 118.941 220.925 
	 118.429 220.925 117.406 220.925 116.895 220.925 115.872 220.925 
	 115.361 220.925 114.338 220.925 113.827 219.956 113.827 219.956 
	 113.827 219.956 113.827 219.956 113.827 219.956 113.827 219.956 113.827 219.956 "
	 style=" stroke:#ababab; stroke-width:1; fill:#ababab; fill-opacity:100%"></polygon>
	<polygon points="139.433 215.225 139.946 221.124 136.877 222.107 
	 134.32 221.124 133.297 215.225 139.433 215.225 139.433 215.225 
	 139.433 215.225 139.433 215.225 139.433 215.225 139.433 215.225 139.433 215.225 "
	 style=" stroke:#ababab; stroke-width:1; fill:#ffffff; fill-opacity:100%"></polygon>
	<polygon points="139.946 220.004 139.946 223.828 133.808 223.828 
	 133.297 218.093 133.297 215.225 134.32 220.004 134.831 220.96 
	 135.343 220.96 136.365 220.96 136.877 220.96 137.9 220.96 
	 138.411 220.96 139.433 220.96 139.946 220.004 139.946 220.004 
	 139.946 220.004 139.946 220.004 139.946 220.004 139.946 220.004 139.946 220.004 "
	 style=" stroke:#ababab; stroke-width:1; fill:#ababab; fill-opacity:100%"></polygon>
	<polygon points="120.475 215.225 120.475 221.124 123.561 222.107 
	 126.648 221.124 126.648 215.225 120.475 215.225 120.475 215.225 
	 120.475 215.225 120.475 215.225 120.475 215.225 120.475 215.225 120.475 215.225 "
	 style=" stroke:#ababab; stroke-width:1; fill:#ffffff; fill-opacity:100%"></polygon>
	<polygon points="120.475 219.956 120.475 223.828 126.648 223.828 
	 126.648 218.021 126.648 216.085 126.134 219.956 125.619 220.925 
	 125.105 220.925 124.076 220.925 123.561 220.925 122.533 220.925 
	 122.018 220.925 120.989 220.925 120.475 219.956 120.475 219.956 
	 120.475 219.956 120.475 219.956 120.475 219.956 120.475 219.956 120.475 219.956 "
	 style=" stroke:#ababab; stroke-width:1; fill:#ababab; fill-opacity:100%"></polygon>
	<polygon points="132.782 215.225 133.297 221.124 130.21 222.107 
	 127.638 221.124 127.124 215.225 132.782 215.225 132.782 215.225 
	 132.782 215.225 132.782 215.225 132.782 215.225 132.782 215.225 132.782 215.225 "
	 style=" stroke:#ababab; stroke-width:1; fill:#ffffff; fill-opacity:100%"></polygon>
	<polygon points="133.297 219.956 133.297 223.828 127.124 223.828 
	 127.124 218.021 127.124 216.085 127.124 219.956 128.153 220.925 
	 128.666 220.925 129.695 220.925 130.21 220.925 131.239 220.925 
	 131.753 220.925 132.782 220.925 133.297 219.956 133.297 219.956 
	 133.297 219.956 133.297 219.956 133.297 219.956 133.297 219.956 133.297 219.956 "
	 style=" stroke:#ababab; stroke-width:1; fill:#ababab; fill-opacity:100%"></polygon>
	<polygon points="70.21 222.107 69.1873 228.005 72.2557 228.989 
	 75.3244 228.005 75.8357 222.107 70.21 222.107 70.21 222.107 
	 70.21 222.107 70.21 222.107 70.21 222.107 70.21 222.107 70.21 222.107 "
	 style=" stroke:#ababab; stroke-width:1; fill:#ffffff; fill-opacity:100%"></polygon>
	<polygon points="69.1873 226.886 69.1873 230.708 75.8357 229.753 
	 75.8357 224.975 75.8357 222.107 75.3244 226.886 74.3014 227.842 
	 73.79 227.842 72.7673 227.842 71.7443 227.842 70.7215 227.842 
	 70.21 227.842 69.1873 226.886 69.1873 226.886 69.1873 226.886 
	 69.1873 226.886 69.1873 226.886 69.1873 226.886 69.1873 226.886 "
	 style=" stroke:#ababab; stroke-width:1; fill:#ababab; fill-opacity:100%"></polygon>
	<polygon points="76.8586 222.107 75.8355 228.005 78.9042 228.989 
	 81.9725 228.005 82.4839 222.107 76.8586 222.107 76.8586 222.107 
	 76.8586 222.107 76.8586 222.107 76.8586 222.107 76.8586 222.107 76.8586 222.107 "
	 style=" stroke:#ababab; stroke-width:1; fill:#ffffff; fill-opacity:100%"></polygon>
	<polygon points="75.8355 226.886 75.8355 230.708 82.4839 230.708 
	 82.4839 224.975 82.4839 222.107 81.9725 226.886 80.9498 227.842 
	 80.4384 227.842 79.4153 227.842 78.9042 227.842 78.3927 227.842 
	 77.3698 227.842 76.8586 227.842 75.8355 226.886 75.8355 226.886 
	 75.8355 226.886 75.8355 226.886 75.8355 226.886 75.8355 226.886 75.8355 226.886 "
	 style=" stroke:#ababab; stroke-width:1; fill:#ababab; fill-opacity:100%"></polygon>
	<polygon points="83.5068 222.107 82.4842 228.005 85.5525 228.989 
	 88.6213 228.005 89.1326 222.107 83.5068 222.107 83.5068 222.107 
	 83.5068 222.107 83.5068 222.107 83.5068 222.107 83.5068 222.107 83.5068 222.107 "
	 style=" stroke:#ababab; stroke-width:1; fill:#ffffff; fill-opacity:100%"></polygon>
	<polygon points="82.4842 226.886 82.4842 230.708 89.1326 230.708 
	 89.1326 224.975 89.1326 222.107 88.6213 226.886 87.5983 227.842 
	 87.0868 227.842 86.0641 227.842 85.5525 227.842 85.0411 227.842 
	 84.0184 227.842 83.5068 227.842 82.4842 226.886 82.4842 226.886 
	 82.4842 226.886 82.4842 226.886 82.4842 226.886 82.4842 226.886 82.4842 226.886 "
	 style=" stroke:#ababab; stroke-width:1; fill:#ababab; fill-opacity:100%"></polygon>
	<polygon points="60.6641 222.107 60.1645 228.005 60.1645 228.989 
	 68.6623 228.989 69.1623 228.005 69.6622 222.107 60.6641 222.107 
	 60.6641 222.107 60.6641 222.107 60.6641 222.107 60.6641 222.107 
	 60.6641 222.107 60.6641 222.107 "
	 style=" stroke:#ababab; stroke-width:1; fill:#ffffff; fill-opacity:100%"></polygon>
	<polygon points="60.1645 226.886 60.1645 230.708 69.6622 230.708 
	 69.6622 224.975 69.6622 222.107 69.1623 226.886 68.1623 227.842 
	 67.1628 227.842 66.1631 227.842 65.6632 227.842 65.1633 227.842 
	 64.6633 227.842 63.6637 227.842 63.1636 227.842 62.6638 227.842 
	 62.164 227.842 60.6641 227.842 60.1645 226.886 60.1645 226.886 
	 60.1645 226.886 60.1645 226.886 60.1645 226.886 60.1645 226.886 60.1645 226.886 "
	 style=" stroke:#ababab; stroke-width:1; fill:#ababab; fill-opacity:100%"></polygon>
	<polygon points="90.1553 222.107 89.1324 228.005 92.201 228.989 
	 95.2693 228.005 95.7808 222.107 90.1553 222.107 90.1553 222.107 
	 90.1553 222.107 90.1553 222.107 90.1553 222.107 90.1553 222.107 90.1553 222.107 "
	 style=" stroke:#ababab; stroke-width:1; fill:#ffffff; fill-opacity:100%"></polygon>
	<polygon points="89.1324 226.886 89.1324 230.708 95.7808 230.708 
	 95.7808 224.975 95.7808 222.107 95.2693 226.886 94.2466 227.842 
	 93.7351 227.842 93.2237 227.842 92.201 227.842 91.6896 227.842 
	 90.6666 227.842 90.1553 227.842 89.1324 226.886 89.1324 226.886 
	 89.1324 226.886 89.1324 226.886 89.1324 226.886 89.1324 226.886 89.1324 226.886 "
	 style=" stroke:#ababab; stroke-width:1; fill:#ababab; fill-opacity:100%"></polygon>
	<polygon points="169.784 216.085 171.287 228.066 165.774 228.989 
	 162.767 228.066 162.265 222.537 167.277 222.537 166.275 216.085 
	 169.784 216.085 169.784 216.085 169.784 216.085 169.784 216.085 
	 169.784 216.085 169.784 216.085 169.784 216.085 "
	 style=" stroke:#ababab; stroke-width:1; fill:#ffffff; fill-opacity:100%"></polygon>
	<polygon points="171.264 226.886 171.762 230.708 162.288 230.708 
	 161.79 224.975 162.288 222.107 162.787 226.886 163.785 227.842 
	 164.782 227.842 165.28 227.842 165.779 227.842 166.277 227.842 
	 167.275 227.842 167.774 227.842 168.272 227.842 168.77 227.842 
	 169.768 227.842 170.765 227.842 171.264 226.886 171.264 226.886 
	 171.264 226.886 171.264 226.886 171.264 226.886 171.264 226.886 171.264 226.886 "
	 style=" stroke:#ababab; stroke-width:1; fill:#ababab; fill-opacity:100%"></polygon>
	<polygon points="96.2922 222.107 95.7807 228.005 98.8493 228.989 
	 101.918 228.005 102.429 222.107 96.2922 222.107 96.2922 222.107 
	 96.2922 222.107 96.2922 222.107 96.2922 222.107 96.2922 222.107 96.2922 222.107 "
	 style=" stroke:#ababab; stroke-width:1; fill:#ffffff; fill-opacity:100%"></polygon>
	<polygon points="95.7807 226.886 95.7807 230.708 102.429 230.708 
	 102.429 224.975 102.429 222.107 101.918 226.886 100.895 227.842 
	 100.383 227.842 99.3608 227.842 98.8493 227.842 98.3378 227.842 
	 97.3152 227.842 96.8036 227.842 95.7807 226.886 95.7807 226.886 
	 95.7807 226.886 95.7807 226.886 95.7807 226.886 95.7807 226.886 95.7807 226.886 "
	 style=" stroke:#ababab; stroke-width:1; fill:#ababab; fill-opacity:100%"></polygon>
	<polygon points="161.753 222.107 162.265 228.005 159.196 228.989 
	 156.127 228.005 155.616 222.107 161.753 222.107 161.753 222.107 
	 161.753 222.107 161.753 222.107 161.753 222.107 161.753 222.107 161.753 222.107 "
	 style=" stroke:#ababab; stroke-width:1; fill:#ffffff; fill-opacity:100%"></polygon>
	<polygon points="162.265 226.886 162.265 230.708 155.65 230.708 
	 155.141 224.975 155.65 222.107 156.159 226.886 156.668 227.842 
	 157.685 227.842 158.194 227.842 159.213 227.842 159.721 227.842 
	 160.739 227.842 161.248 227.842 162.265 226.886 162.265 226.886 
	 162.265 226.886 162.265 226.886 162.265 226.886 162.265 226.886 162.265 226.886 "
	 style=" stroke:#ababab; stroke-width:1; fill:#ababab; fill-opacity:100%"></polygon>
	<polygon points="102.941 222.107 102.429 228.005 105.498 228.989 
	 108.566 228.005 109.078 222.107 102.941 222.107 102.941 222.107 
	 102.941 222.107 102.941 222.107 102.941 222.107 102.941 222.107 102.941 222.107 "
	 style=" stroke:#ababab; stroke-width:1; fill:#ffffff; fill-opacity:100%"></polygon>
	<polygon points="102.429 226.886 102.429 230.708 109.078 230.708 
	 109.078 224.975 109.078 222.107 108.566 226.886 107.543 227.842 
	 107.032 227.842 106.009 227.842 105.498 227.842 104.986 227.842 
	 103.963 227.842 103.452 227.842 102.429 226.886 102.429 226.886 
	 102.429 226.886 102.429 226.886 102.429 226.886 102.429 226.886 102.429 226.886 "
	 style=" stroke:#ababab; stroke-width:1; fill:#ababab; fill-opacity:100%"></polygon>
	<polygon points="155.104 222.107 155.616 228.005 152.547 228.989 
	 149.48 228.005 148.968 222.107 155.104 222.107 155.104 222.107 
	 155.104 222.107 155.104 222.107 155.104 222.107 155.104 222.107 155.104 222.107 "
	 style=" stroke:#ababab; stroke-width:1; fill:#ffffff; fill-opacity:100%"></polygon>
	<polygon points="155.141 226.886 155.141 230.708 148.968 230.708 
	 148.968 224.975 148.968 222.107 149.482 226.886 149.997 227.842 
	 151.026 227.842 151.541 227.842 152.57 227.842 153.083 227.842 
	 154.112 227.842 154.627 227.842 155.141 226.886 155.141 226.886 
	 155.141 226.886 155.141 226.886 155.141 226.886 155.141 226.886 155.141 226.886 "
	 style=" stroke:#ababab; stroke-width:1; fill:#ababab; fill-opacity:100%"></polygon>
	<polygon points="109.592 222.107 109.077 228.005 112.164 228.989 
	 115.251 228.005 115.251 222.107 109.592 222.107 109.592 222.107 
	 109.592 222.107 109.592 222.107 109.592 222.107 109.592 222.107 109.592 222.107 "
	 style=" stroke:#ababab; stroke-width:1; fill:#ffffff; fill-opacity:100%"></polygon>
	<polygon points="109.077 226.886 109.077 230.708 115.726 230.708 
	 115.726 224.975 115.726 222.107 115.214 226.886 114.192 227.842 
	 113.68 227.842 112.658 227.842 112.146 227.842 111.635 227.842 
	 110.612 227.842 110.101 227.842 109.077 226.886 109.077 226.886 
	 109.077 226.886 109.077 226.886 109.077 226.886 109.077 226.886 109.077 226.886 "
	 style=" stroke:#ababab; stroke-width:1; fill:#ababab; fill-opacity:100%"></polygon>
	<polygon points="148.457 222.107 148.968 228.005 145.9 228.989 
	 142.831 228.005 142.319 222.107 148.457 222.107 148.457 222.107 
	 148.457 222.107 148.457 222.107 148.457 222.107 148.457 222.107 148.457 222.107 "
	 style=" stroke:#ababab; stroke-width:1; fill:#ffffff; fill-opacity:100%"></polygon>
	<polygon points="148.493 226.886 148.493 230.708 142.319 230.708 
	 142.319 224.975 142.319 222.107 142.834 226.886 143.348 227.842 
	 144.378 227.842 144.892 227.842 145.921 227.842 146.436 227.842 
	 146.95 227.842 147.978 227.842 148.493 226.886 148.493 226.886 
	 148.493 226.886 148.493 226.886 148.493 226.886 148.493 226.886 148.493 226.886 "
	 style=" stroke:#ababab; stroke-width:1; fill:#ababab; fill-opacity:100%"></polygon>
	<polygon points="116.241 222.107 115.726 228.005 118.813 228.989 
	 121.899 228.005 121.899 222.107 116.241 222.107 116.241 222.107 
	 116.241 222.107 116.241 222.107 116.241 222.107 116.241 222.107 116.241 222.107 "
	 style=" stroke:#ababab; stroke-width:1; fill:#ffffff; fill-opacity:100%"></polygon>
	<polygon points="115.726 226.886 115.726 230.708 122.374 230.708 
	 122.374 224.975 122.374 222.107 121.864 226.886 120.841 227.842 
	 120.329 227.842 119.306 227.842 118.795 227.842 118.283 227.842 
	 117.26 227.842 116.749 227.842 115.726 226.886 115.726 226.886 
	 115.726 226.886 115.726 226.886 115.726 226.886 115.726 226.886 115.726 226.886 "
	 style=" stroke:#ababab; stroke-width:1; fill:#ababab; fill-opacity:100%"></polygon>
	<polygon points="141.808 222.107 142.319 228.005 139.251 228.989 
	 136.183 228.005 135.672 222.107 141.808 222.107 141.808 222.107 
	 141.808 222.107 141.808 222.107 141.808 222.107 141.808 222.107 141.808 222.107 "
	 style=" stroke:#ababab; stroke-width:1; fill:#ffffff; fill-opacity:100%"></polygon>
	<polygon points="142.319 226.886 142.319 230.708 135.672 230.708 
	 135.672 224.975 135.672 222.107 136.183 226.886 136.695 227.842 
	 137.716 227.842 138.228 227.842 139.251 227.842 139.762 227.842 
	 140.785 227.842 141.296 227.842 142.319 226.886 142.319 226.886 
	 142.319 226.886 142.319 226.886 142.319 226.886 142.319 226.886 142.319 226.886 "
	 style=" stroke:#ababab; stroke-width:1; fill:#ababab; fill-opacity:100%"></polygon>
	<polygon points="122.889 222.107 122.374 228.005 125.462 228.989 
	 128.548 228.005 128.548 222.107 122.889 222.107 122.889 222.107 
	 122.889 222.107 122.889 222.107 122.889 222.107 122.889 222.107 122.889 222.107 "
	 style=" stroke:#ababab; stroke-width:1; fill:#ffffff; fill-opacity:100%"></polygon>
	<polygon points="122.374 226.886 122.374 230.708 129.023 230.708 
	 129.023 224.975 129.023 222.107 128.511 226.886 127.488 227.842 
	 126.977 227.842 125.954 227.842 125.443 227.842 124.931 227.842 
	 123.908 227.842 123.397 227.842 122.374 226.886 122.374 226.886 
	 122.374 226.886 122.374 226.886 122.374 226.886 122.374 226.886 122.374 226.886 "
	 style=" stroke:#ababab; stroke-width:1; fill:#ababab; fill-opacity:100%"></polygon>
	<polygon points="135.197 222.107 135.197 228.005 132.624 228.989 
	 129.537 228.005 129.023 222.107 135.197 222.107 135.197 222.107 
	 135.197 222.107 135.197 222.107 135.197 222.107 135.197 222.107 135.197 222.107 "
	 style=" stroke:#ababab; stroke-width:1; fill:#ffffff; fill-opacity:100%"></polygon>
	<polygon points="135.197 226.886 135.197 230.708 129.023 230.708 
	 129.023 224.975 129.023 222.107 129.537 226.886 130.052 227.842 
	 131.08 227.842 131.595 227.842 132.624 227.842 133.138 227.842 
	 134.167 227.842 134.682 227.842 135.197 226.886 135.197 226.886 
	 135.197 226.886 135.197 226.886 135.197 226.886 135.197 226.886 135.197 226.886 "
	 style=" stroke:#ababab; stroke-width:1; fill:#ababab; fill-opacity:100%"></polygon>
	<polygon points="59.7261 228.989 58.7397 234.887 59.7261 235.871 
	 68.1093 235.871 71.0684 234.887 71.5616 228.989 59.7261 228.989 
	 59.7261 228.989 59.7261 228.989 59.7261 228.989 59.7261 228.989 
	 59.7261 228.989 59.7261 228.989 "
	 style=" stroke:#ababab; stroke-width:1; fill:#ffffff; fill-opacity:100%"></polygon>
	<polygon points="58.7397 234.687 58.7397 237.59 71.5442 237.59 
	 72.0365 231.784 72.0365 229.849 71.5442 234.687 70.0666 234.687 
	 69.5743 234.687 68.5891 234.687 68.0966 234.687 67.1119 234.687 
	 66.1271 234.687 65.1419 234.687 64.1572 234.687 63.172 234.687 
	 62.1872 234.687 61.2021 234.687 60.7096 234.687 59.7248 234.687 
	 59.2322 234.687 58.7397 234.687 58.7397 234.687 58.7397 234.687 
	 58.7397 234.687 58.7397 234.687 58.7397 234.687 58.7397 234.687 "
	 style=" stroke:#ababab; stroke-width:1; fill:#ababab; fill-opacity:100%"></polygon>
	<polygon points="72.551 228.989 72.0365 234.887 75.1234 235.871 
	 77.6955 234.887 78.21 228.989 72.551 228.989 72.551 228.989 
	 72.551 228.989 72.551 228.989 72.551 228.989 72.551 228.989 72.551 228.989 "
	 style=" stroke:#ababab; stroke-width:1; fill:#ffffff; fill-opacity:100%"></polygon>
	<polygon points="72.0365 234.687 72.0365 237.59 78.1734 237.59 
	 78.6849 231.784 78.6849 229.849 78.1734 234.687 77.1507 234.687 
	 76.1277 234.687 75.6163 234.687 75.1051 234.687 74.0822 234.687 
	 73.5706 234.687 72.5479 234.687 72.0365 234.687 72.0365 234.687 
	 72.0365 234.687 72.0365 234.687 72.0365 234.687 72.0365 234.687 72.0365 234.687 "
	 style=" stroke:#ababab; stroke-width:1; fill:#ababab; fill-opacity:100%"></polygon>
	<polygon points="79.1962 228.989 78.6851 234.887 81.7535 235.871 
	 84.3107 234.887 85.3334 228.989 79.1962 228.989 79.1962 228.989 
	 79.1962 228.989 79.1962 228.989 79.1962 228.989 79.1962 228.989 79.1962 228.989 "
	 style=" stroke:#ababab; stroke-width:1; fill:#ffffff; fill-opacity:100%"></polygon>
	<polygon points="78.6851 234.687 78.6851 237.59 84.8223 237.59 
	 85.3334 231.784 85.3334 229.849 84.8223 234.687 83.7993 234.687 
	 83.2877 234.687 82.265 234.687 81.7535 234.687 80.7308 234.687 
	 80.2192 234.687 79.1962 234.687 78.6851 234.687 78.6851 234.687 
	 78.6851 234.687 78.6851 234.687 78.6851 234.687 78.6851 234.687 78.6851 234.687 "
	 style=" stroke:#ababab; stroke-width:1; fill:#ababab; fill-opacity:100%"></polygon>
	<polygon points="171.703 228.989 172.713 234.887 168.171 235.871 
	 165.144 234.887 164.64 228.989 171.703 228.989 171.703 228.989 
	 171.703 228.989 171.703 228.989 171.703 228.989 171.703 228.989 171.703 228.989 "
	 style=" stroke:#ababab; stroke-width:1; fill:#ffffff; fill-opacity:100%"></polygon>
	<polygon points="172.207 234.687 172.713 237.59 164.64 237.59 
	 164.64 231.784 164.64 229.849 165.144 234.687 166.153 234.687 
	 167.161 234.687 167.667 234.687 168.676 234.687 169.684 234.687 
	 170.694 234.687 171.703 234.687 172.207 234.687 172.207 234.687 
	 172.207 234.687 172.207 234.687 172.207 234.687 172.207 234.687 172.207 234.687 "
	 style=" stroke:#ababab; stroke-width:1; fill:#ababab; fill-opacity:100%"></polygon>
	<polygon points="85.8479 228.989 85.3333 234.887 88.4202 235.871 
	 90.9922 234.887 91.5068 228.989 85.8479 228.989 85.8479 228.989 
	 85.8479 228.989 85.8479 228.989 85.8479 228.989 85.8479 228.989 85.8479 228.989 "
	 style=" stroke:#ababab; stroke-width:1; fill:#ffffff; fill-opacity:100%"></polygon>
	<polygon points="85.3333 234.687 85.3333 237.59 91.4702 237.59 
	 91.9816 231.784 91.9816 229.849 91.4702 234.687 90.4475 234.687 
	 89.4246 234.687 88.9131 234.687 88.402 234.687 87.3789 234.687 
	 86.8675 234.687 85.8448 234.687 85.3333 234.687 85.3333 234.687 
	 85.3333 234.687 85.3333 234.687 85.3333 234.687 85.3333 234.687 85.3333 234.687 "
	 style=" stroke:#ababab; stroke-width:1; fill:#ababab; fill-opacity:100%"></polygon>
	<polygon points="164.125 228.989 164.64 234.887 161.552 235.871 
	 158.466 234.887 158.466 228.989 164.125 228.989 164.125 228.989 
	 164.125 228.989 164.125 228.989 164.125 228.989 164.125 228.989 164.125 228.989 "
	 style=" stroke:#ababab; stroke-width:1; fill:#ffffff; fill-opacity:100%"></polygon>
	<polygon points="164.64 234.687 164.64 237.59 157.991 237.59 
	 157.991 231.784 157.991 229.849 158.502 234.687 159.525 234.687 
	 160.037 234.687 161.06 234.687 161.571 234.687 162.594 234.687 
	 163.105 234.687 164.127 234.687 164.64 234.687 164.64 234.687 
	 164.64 234.687 164.64 234.687 164.64 234.687 164.64 234.687 164.64 234.687 "
	 style=" stroke:#ababab; stroke-width:1; fill:#ababab; fill-opacity:100%"></polygon>
	<polygon points="92.4962 228.989 91.9819 234.887 95.0686 235.871 
	 97.6411 234.887 98.1554 228.989 92.4962 228.989 92.4962 228.989 
	 92.4962 228.989 92.4962 228.989 92.4962 228.989 92.4962 228.989 92.4962 228.989 "
	 style=" stroke:#ababab; stroke-width:1; fill:#ffffff; fill-opacity:100%"></polygon>
	<polygon points="91.9819 234.687 91.9819 237.59 98.1187 237.59 
	 98.6303 231.784 98.1187 229.849 97.6076 234.687 97.096 234.687 
	 96.073 234.687 95.5618 234.687 95.0504 234.687 94.0276 234.687 
	 93.5161 234.687 92.4931 234.687 91.9819 234.687 91.9819 234.687 
	 91.9819 234.687 91.9819 234.687 91.9819 234.687 91.9819 234.687 91.9819 234.687 "
	 style=" stroke:#ababab; stroke-width:1; fill:#ababab; fill-opacity:100%"></polygon>
	<polygon points="157.477 228.989 157.991 234.887 154.904 235.871 
	 152.332 234.887 151.817 228.989 157.477 228.989 157.477 228.989 
	 157.477 228.989 157.477 228.989 157.477 228.989 157.477 228.989 157.477 228.989 "
	 style=" stroke:#ababab; stroke-width:1; fill:#ffffff; fill-opacity:100%"></polygon>
	<polygon points="157.991 234.687 157.991 237.59 151.342 237.59 
	 151.342 231.784 151.342 229.849 151.853 234.687 152.876 234.687 
	 153.388 234.687 154.411 234.687 154.922 234.687 155.945 234.687 
	 156.456 234.687 156.968 234.687 157.991 234.687 157.991 234.687 
	 157.991 234.687 157.991 234.687 157.991 234.687 157.991 234.687 157.991 234.687 "
	 style=" stroke:#ababab; stroke-width:1; fill:#ababab; fill-opacity:100%"></polygon>
	<polygon points="99.1447 228.989 98.6302 234.887 101.717 235.871 
	 104.289 234.887 104.804 228.989 99.1447 228.989 99.1447 228.989 
	 99.1447 228.989 99.1447 228.989 99.1447 228.989 99.1447 228.989 99.1447 228.989 "
	 style=" stroke:#ababab; stroke-width:1; fill:#ffffff; fill-opacity:100%"></polygon>
	<polygon points="98.6302 234.687 98.6302 237.59 104.767 237.59 
	 105.279 231.784 104.767 229.849 104.767 234.687 103.744 234.687 
	 102.721 234.687 102.21 234.687 101.698 234.687 100.676 234.687 
	 100.164 234.687 99.1416 234.687 98.6302 234.687 98.6302 234.687 
	 98.6302 234.687 98.6302 234.687 98.6302 234.687 98.6302 234.687 98.6302 234.687 "
	 style=" stroke:#ababab; stroke-width:1; fill:#ababab; fill-opacity:100%"></polygon>
	<polygon points="150.828 228.989 151.342 234.887 148.255 235.871 
	 145.683 234.887 145.169 228.989 150.828 228.989 150.828 228.989 
	 150.828 228.989 150.828 228.989 150.828 228.989 150.828 228.989 150.828 228.989 "
	 style=" stroke:#ababab; stroke-width:1; fill:#ffffff; fill-opacity:100%"></polygon>
	<polygon points="151.342 234.687 151.342 237.59 144.694 237.59 
	 144.694 231.784 144.694 229.849 145.206 234.687 146.229 234.687 
	 146.74 234.687 147.763 234.687 148.273 234.687 149.296 234.687 
	 149.808 234.687 150.831 234.687 151.342 234.687 151.342 234.687 
	 151.342 234.687 151.342 234.687 151.342 234.687 151.342 234.687 151.342 234.687 "
	 style=" stroke:#ababab; stroke-width:1; fill:#ababab; fill-opacity:100%"></polygon>
	<polygon points="105.793 228.989 105.278 234.887 108.365 235.871 
	 110.938 234.887 111.452 228.989 105.793 228.989 105.793 228.989 
	 105.793 228.989 105.793 228.989 105.793 228.989 105.793 228.989 105.793 228.989 "
	 style=" stroke:#ababab; stroke-width:1; fill:#ffffff; fill-opacity:100%"></polygon>
	<polygon points="105.278 234.687 105.278 237.59 111.927 237.59 
	 111.927 231.784 111.415 229.849 110.904 234.687 110.393 234.687 
	 109.37 234.687 108.858 234.687 108.347 234.687 107.324 234.687 
	 106.813 234.687 105.79 234.687 105.278 234.687 105.278 234.687 
	 105.278 234.687 105.278 234.687 105.278 234.687 105.278 234.687 105.278 234.687 "
	 style=" stroke:#ababab; stroke-width:1; fill:#ababab; fill-opacity:100%"></polygon>
	<polygon points="144.179 228.989 144.694 234.887 141.608 235.871 
	 139.035 234.887 138.52 228.989 144.179 228.989 144.179 228.989 
	 144.179 228.989 144.179 228.989 144.179 228.989 144.179 228.989 144.179 228.989 "
	 style=" stroke:#ababab; stroke-width:1; fill:#ffffff; fill-opacity:100%"></polygon>
	<polygon points="144.694 234.687 144.694 237.59 138.045 237.59 
	 138.045 231.784 138.045 229.849 138.557 234.687 139.58 234.687 
	 140.091 234.687 141.114 234.687 141.626 234.687 142.648 234.687 
	 143.16 234.687 144.183 234.687 144.694 234.687 144.694 234.687 
	 144.694 234.687 144.694 234.687 144.694 234.687 144.694 234.687 144.694 234.687 "
	 style=" stroke:#ababab; stroke-width:1; fill:#ababab; fill-opacity:100%"></polygon>
	<polygon points="112.441 228.989 111.927 234.887 115.014 235.871 
	 117.586 234.887 118.1 228.989 112.441 228.989 112.441 228.989 
	 112.441 228.989 112.441 228.989 112.441 228.989 112.441 228.989 112.441 228.989 "
	 style=" stroke:#ababab; stroke-width:1; fill:#ffffff; fill-opacity:100%"></polygon>
	<polygon points="111.927 234.687 111.927 237.59 118.064 237.59 
	 118.576 231.784 118.064 229.849 117.552 234.687 117.041 234.687 
	 116.018 234.687 115.507 234.687 114.995 234.687 113.973 234.687 
	 113.461 234.687 112.439 234.687 111.927 234.687 111.927 234.687 
	 111.927 234.687 111.927 234.687 111.927 234.687 111.927 234.687 111.927 234.687 "
	 style=" stroke:#ababab; stroke-width:1; fill:#ababab; fill-opacity:100%"></polygon>
	<polygon points="137.532 228.989 138.045 234.887 134.959 235.871 
	 132.386 234.887 131.872 228.989 137.532 228.989 137.532 228.989 
	 137.532 228.989 137.532 228.989 137.532 228.989 137.532 228.989 137.532 228.989 "
	 style=" stroke:#ababab; stroke-width:1; fill:#ffffff; fill-opacity:100%"></polygon>
	<polygon points="138.045 234.687 138.045 237.59 131.397 237.59 
	 131.397 231.784 131.909 229.849 131.909 234.687 132.932 234.687 
	 133.442 234.687 134.465 234.687 134.977 234.687 136 234.687 
	 136.511 234.687 137.534 234.687 138.045 234.687 138.045 234.687 
	 138.045 234.687 138.045 234.687 138.045 234.687 138.045 234.687 138.045 234.687 "
	 style=" stroke:#ababab; stroke-width:1; fill:#ababab; fill-opacity:100%"></polygon>
	<polygon points="119.09 228.989 118.575 234.887 121.662 235.871 
	 124.234 234.887 124.749 228.989 119.09 228.989 119.09 228.989 
	 119.09 228.989 119.09 228.989 119.09 228.989 119.09 228.989 119.09 228.989 "
	 style=" stroke:#ababab; stroke-width:1; fill:#ffffff; fill-opacity:100%"></polygon>
	<polygon points="118.575 234.687 118.575 237.59 125.224 237.59 
	 125.224 231.784 124.712 229.849 124.201 234.687 123.689 234.687 
	 122.666 234.687 122.155 234.687 121.643 234.687 120.621 234.687 
	 120.11 234.687 119.086 234.687 118.575 234.687 118.575 234.687 
	 118.575 234.687 118.575 234.687 118.575 234.687 118.575 234.687 118.575 234.687 "
	 style=" stroke:#ababab; stroke-width:1; fill:#ababab; fill-opacity:100%"></polygon>
	<polygon points="130.883 228.989 131.398 234.887 128.31 235.871 
	 125.224 234.887 125.224 228.989 130.883 228.989 130.883 228.989 
	 130.883 228.989 130.883 228.989 130.883 228.989 130.883 228.989 130.883 228.989 "
	 style=" stroke:#ababab; stroke-width:1; fill:#ffffff; fill-opacity:100%"></polygon>
	<polygon points="131.398 234.687 131.398 237.59 124.749 237.59 
	 124.749 231.784 124.749 229.849 125.26 234.687 126.283 234.687 
	 126.795 234.687 127.818 234.687 128.329 234.687 129.352 234.687 
	 129.862 234.687 130.886 234.687 131.398 234.687 131.398 234.687 
	 131.398 234.687 131.398 234.687 131.398 234.687 131.398 234.687 131.398 234.687 "
	 style=" stroke:#ababab; stroke-width:1; fill:#ababab; fill-opacity:100%"></polygon>
	<polygon points="58.3015 235.871 57.7901 240.786 60.8583 242.751 
	 63.9269 240.786 64.4385 235.871 58.3015 235.871 58.3015 235.871 
	 58.3015 235.871 58.3015 235.871 58.3015 235.871 58.3015 235.871 58.3015 235.871 "
	 style=" stroke:#ababab; stroke-width:1; fill:#ffffff; fill-opacity:100%"></polygon>
	<polygon points="57.7901 240.709 57.7901 243.612 63.9269 243.612 
	 64.4385 237.806 64.4385 235.871 63.9269 240.709 62.904 240.709 
	 62.3928 240.709 61.3699 240.709 60.8583 240.709 59.8356 240.709 
	 59.3242 240.709 58.3015 240.709 57.7901 240.709 57.7901 240.709 
	 57.7901 240.709 57.7901 240.709 57.7901 240.709 57.7901 240.709 57.7901 240.709 "
	 style=" stroke:#ababab; stroke-width:1; fill:#ababab; fill-opacity:100%"></polygon>
	<polygon points="64.9498 235.871 64.4383 240.786 67.5069 242.751 
	 70.5752 240.786 71.0867 235.871 64.9498 235.871 64.9498 235.871 
	 64.9498 235.871 64.9498 235.871 64.9498 235.871 64.9498 235.871 64.9498 235.871 "
	 style=" stroke:#ababab; stroke-width:1; fill:#ffffff; fill-opacity:100%"></polygon>
	<polygon points="64.4383 240.709 64.4383 243.612 71.0867 243.612 
	 71.0867 237.806 71.0867 235.871 70.5752 240.709 69.5525 240.709 
	 69.041 240.709 68.018 240.709 67.5069 240.709 66.4839 240.709 
	 65.9728 240.709 65.4612 240.709 64.4383 240.709 64.4383 240.709 
	 64.4383 240.709 64.4383 240.709 64.4383 240.709 64.4383 240.709 64.4383 240.709 "
	 style=" stroke:#ababab; stroke-width:1; fill:#ababab; fill-opacity:100%"></polygon>
	<polygon points="71.0869 240.709 71.0869 243.612 82.9402 243.612 
	 82.9402 237.806 83.4339 235.871 82.9402 240.709 82.4463 240.709 
	 80.9646 240.709 80.4707 240.709 79.4827 240.709 78.9891 240.709 
	 78.4951 240.709 77.5072 240.709 77.0135 240.709 76.0257 240.709 
	 75.5316 240.709 74.544 240.709 74.0501 240.709 73.556 240.709 
	 72.5684 240.709 71.0869 240.709 71.0869 240.709 71.0869 240.709 
	 71.0869 240.709 71.0869 240.709 71.0869 240.709 71.0869 240.709 "
	 style=" stroke:#ababab; stroke-width:1; fill:#ababab; fill-opacity:100%"></polygon>
	<polygon points="72.076 235.871 71.0869 240.888 76.5281 241.892 
	 82.4643 240.888 82.959 235.871 72.076 235.871 72.076 235.871 
	 72.076 235.871 72.076 235.871 72.076 235.871 72.076 235.871 72.076 235.871 "
	 style=" stroke:#ababab; stroke-width:1; fill:#ffffff; fill-opacity:100%"></polygon>
	<polygon points="172.673 235.871 173.188 240.786 170.615 242.751 
	 167.528 240.786 167.013 235.871 172.673 235.871 172.673 235.871 
	 172.673 235.871 172.673 235.871 172.673 235.871 172.673 235.871 172.673 235.871 "
	 style=" stroke:#ababab; stroke-width:1; fill:#ffffff; fill-opacity:100%"></polygon>
	<polygon points="173.153 240.709 173.662 243.612 167.048 243.612 
	 166.539 237.806 166.539 235.871 167.048 240.709 168.065 240.709 
	 169.083 240.709 169.592 240.709 170.101 240.709 171.118 240.709 
	 171.627 240.709 172.644 240.709 173.153 240.709 173.153 240.709 
	 173.153 240.709 173.153 240.709 173.153 240.709 173.153 240.709 173.153 240.709 "
	 style=" stroke:#ababab; stroke-width:1; fill:#ababab; fill-opacity:100%"></polygon>
	<polygon points="83.9483 235.871 83.4338 240.786 86.0062 242.751 
	 89.0928 240.786 89.6073 235.871 83.9483 235.871 83.9483 235.871 
	 83.9483 235.871 83.9483 235.871 83.9483 235.871 83.9483 235.871 83.9483 235.871 "
	 style=" stroke:#ababab; stroke-width:1; fill:#ffffff; fill-opacity:100%"></polygon>
	<polygon points="83.4702 240.709 82.9588 243.612 89.6072 243.612 
	 89.6072 237.806 89.6072 235.871 89.0957 240.709 88.5845 240.709 
	 87.5615 240.709 87.05 240.709 86.0274 240.709 85.5159 240.709 
	 84.4933 240.709 83.9818 240.709 83.4702 240.709 83.4702 240.709 
	 83.4702 240.709 83.4702 240.709 83.4702 240.709 83.4702 240.709 83.4702 240.709 "
	 style=" stroke:#ababab; stroke-width:1; fill:#ababab; fill-opacity:100%"></polygon>
	<polygon points="166.024 235.871 166.539 240.786 163.966 242.751 
	 160.88 240.786 160.366 235.871 166.024 235.871 166.024 235.871 
	 166.024 235.871 166.024 235.871 166.024 235.871 166.024 235.871 166.024 235.871 "
	 style=" stroke:#ababab; stroke-width:1; fill:#ffffff; fill-opacity:100%"></polygon>
	<polygon points="166.539 240.709 166.539 243.612 160.401 243.612 
	 159.89 237.806 159.89 235.871 160.913 240.709 161.424 240.709 
	 162.447 240.709 162.959 240.709 163.981 240.709 164.493 240.709 
	 165.004 240.709 166.027 240.709 166.539 240.709 166.539 240.709 
	 166.539 240.709 166.539 240.709 166.539 240.709 166.539 240.709 166.539 240.709 "
	 style=" stroke:#ababab; stroke-width:1; fill:#ababab; fill-opacity:100%"></polygon>
	<polygon points="159.376 235.871 159.89 240.786 156.803 242.751 
	 154.231 240.786 153.717 235.871 159.376 235.871 159.376 235.871 
	 159.376 235.871 159.376 235.871 159.376 235.871 159.376 235.871 159.376 235.871 "
	 style=" stroke:#ababab; stroke-width:1; fill:#ffffff; fill-opacity:100%"></polygon>
	<polygon points="159.891 240.709 159.891 243.612 153.754 243.612 
	 153.242 237.806 153.754 235.871 154.265 240.709 154.776 240.709 
	 155.288 240.709 156.311 240.709 156.822 240.709 157.845 240.709 
	 158.357 240.709 159.38 240.709 159.891 240.709 159.891 240.709 
	 159.891 240.709 159.891 240.709 159.891 240.709 159.891 240.709 159.891 240.709 "
	 style=" stroke:#ababab; stroke-width:1; fill:#ababab; fill-opacity:100%"></polygon>
	<polygon points="152.727 235.871 153.242 240.786 150.154 242.751 
	 147.583 240.786 147.068 235.871 152.727 235.871 152.727 235.871 
	 152.727 235.871 152.727 235.871 152.727 235.871 152.727 235.871 152.727 235.871 "
	 style=" stroke:#ababab; stroke-width:1; fill:#ffffff; fill-opacity:100%"></polygon>
	<polygon points="153.242 240.709 153.242 243.612 146.593 243.612 
	 146.593 237.806 147.105 235.871 147.105 240.709 148.128 240.709 
	 148.639 240.709 149.662 240.709 150.173 240.709 151.196 240.709 
	 151.708 240.709 152.731 240.709 153.242 240.709 153.242 240.709 
	 153.242 240.709 153.242 240.709 153.242 240.709 153.242 240.709 153.242 240.709 "
	 style=" stroke:#ababab; stroke-width:1; fill:#ababab; fill-opacity:100%"></polygon>
	<polygon points="146.079 235.871 146.593 240.786 143.507 242.751 
	 140.42 240.786 140.42 235.871 146.079 235.871 146.079 235.871 
	 146.079 235.871 146.079 235.871 146.079 235.871 146.079 235.871 146.079 235.871 "
	 style=" stroke:#ababab; stroke-width:1; fill:#ffffff; fill-opacity:100%"></polygon>
	<polygon points="146.593 240.709 146.593 243.612 139.946 243.612 
	 139.946 237.806 140.457 235.871 140.457 240.709 141.48 240.709 
	 141.991 240.709 143.013 240.709 143.525 240.709 144.547 240.709 
	 145.059 240.709 146.082 240.709 146.593 240.709 146.593 240.709 
	 146.593 240.709 146.593 240.709 146.593 240.709 146.593 240.709 146.593 240.709 "
	 style=" stroke:#ababab; stroke-width:1; fill:#ababab; fill-opacity:100%"></polygon>
	<polygon points="90.566 235.871 89.6074 240.786 92.4836 242.751 
	 138.507 241.769 139.946 240.786 139.946 235.871 90.566 235.871 
	 90.566 235.871 90.566 235.871 90.566 235.871 90.566 235.871 
	 90.566 235.871 90.566 235.871 "
	 style=" stroke:#ababab; stroke-width:1; fill:#ffffff; fill-opacity:100%"></polygon>
	<polygon points="89.6074 240.171 89.6074 243.612 140.42 243.612 
	 139.941 240.171 138.982 240.171 137.543 240.171 134.668 240.171 
	 131.792 240.171 127.956 240.171 123.642 240.171 119.328 240.171 
	 115.014 240.171 110.22 240.171 105.906 240.171 102.071 240.171 
	 98.2358 240.171 94.8803 240.171 92.4834 240.171 90.5659 240.171 
	 89.6074 240.171 89.6074 240.171 89.6074 240.171 89.6074 240.171 
	 89.6074 240.171 89.6074 240.171 89.6074 240.171 "
	 style=" stroke:#ababab; stroke-width:1; fill:#ababab; fill-opacity:100%"></polygon>
      </g>
    </g>
  </symbol>
 </defs>
</svg>
