<?xml version="1.0" encoding="UTF-8" standalone="no"?>
<!-- Generator: Adobe Illustrator 13.0.2, SVG Export Plug-In  -->
<svg xmlns:rdf="http://www.w3.org/1999/02/22-rdf-syntax-ns#" xmlns="http://www.w3.org/2000/svg" enable-background="new 21.152 45.375 219 219" xml:space="preserve" height="219px" width="219px" version="1.1" y="0px" x="0px" xmlns:cc="http://creativecommons.org/ns#" xmlns:xlink="http://www.w3.org/1999/xlink" viewBox="21.152 45.375 219 219" xmlns:dc="http://purl.org/dc/elements/1.1/"><metadata><rdf:RDF><cc:Work rdf:about=""><dc:format>image/svg+xml</dc:format><dc:type rdf:resource="http://purl.org/dc/dcmitype/StillImage"/><dc:title/></cc:Work></rdf:RDF></metadata>
<defs><radialGradient id="radialGradient3769" gradientUnits="userSpaceOnUse" cy="129.1" cx="101" gradientTransform="matrix(0.81589195,1.0712711,-1.2945899,0.98596834,186.43728,-113.92213)" r="95.4"><stop stop-color="#FFF" offset="0"/><stop stop-color="#cbcbcb" offset="1"/></radialGradient></defs>
<filter id="AI_GaussianBlur_2.2">
	<feGaussianBlur stdDeviation="2.7419701"/>
</filter>
<filter>
	<feGaussianBlur stdDeviation="2"/>
</filter>
<circle fill-opacity="0.5" cx="136.3" cy="161.6" filter="url(#AI_GaussianBlur_2.2)" r="91.4" fill="#000"/>
<circle r="91.4" cy="152.8" stroke="#3A3A3A" cx="129.3" stroke-width="8" fill="url(#radialGradient3769)"/>
<path d="M135.5,153.5c0,4.924-3.993,8.916-8.915,8.916-4.925,0-8.919-3.991-8.919-8.916s3.994-8.916,8.919-8.916c4.9,0,8.9,4,8.9,8.9z" fill="#3A3A3A"/>
<line stroke-width="8.589" y2="78.58" x2="138.9" stroke="#3a3a3a" y1="150.9" x1="126.4" fill="#FFF"/>
<line y2="134.7" x1="125.2" x2="166.1" stroke="#3A3A3A" y1="156" stroke-width="8" fill="#FFF"/>
<line y2="87.54" x1="126.4" x2="126.4" stroke="#676767" y1="67.75" stroke-width="8" fill="#4d4d4d"/>
<line y2="153.7" x1="213.3" x2="193.5" stroke="#676767" y1="153.7" stroke-width="8" fill="#4d4d4d"/>
<line y2="152.5" x1="65.9" x2="46.1" stroke="#676767" y1="152.5" stroke-width="8" fill="#4d4d4d"/>
<line y2="236.3" x1="126.7" x2="126.7" stroke="#676767" y1="216.5" stroke-width="8" fill="#4d4d4d"/>
<line stroke-width="4" y2="208.9" x2="184.7" stroke="#ff0e0e" stroke-dasharray="none" y1="153.8" stroke-miterlimit="4" x1="128.1" fill="#FFF"/>
</svg>
