<?xml version="1.0"?>
<?metis version="3.1"?>
<?metisxml version="1.0"?>
<!DOCTYPE svg  PUBLIC "-//W3C//DTD SVG August 1999//EN"
 "http://www.w3.org/Graphics/SVG/svg-19990812.dtd">

<svg width="200" height="200">
 <title>Symbol library: tool.svg</title>
 <defs>
  <symbol id="oid0" xml:space="preserve" class="METIS_SYMBOL">
   <title>Tool</title>
    <g>
      <polygon points="0 0 0 304 16.2963 320 
       880 320 880 16 863.704 0 0 0 
       0 0 0 0 0 0 0 0 
       0 0 0 0 "
       style=" stroke:#000000; stroke-width:1; fill:#9b9b9b; fill-opacity:100%"       class="TAG:shadow"></polygon>
      <rect x="0" y="0" width="240" height="304"
       style=" stroke:#000000; stroke-width:1; fill:#ffffff; fill-opacity:100%"       class="TAG:PictureBackground"></rect>
      <rect x="240" y="0" width="624" height="304"
       style=" stroke:#000000; stroke-width:1; fill:#96a5ff; fill-opacity:100%"       class="TAG:canvas"></rect>
      <g>
	<desc>METIS_TEXT_GROUP</desc>
	<text  x="256" y="15.8"
	 style=" stroke:#000000; stroke-width:1; font-family:sans-serif; font-size:16;"
	 class="TAG:text">text</text>
	<rect x="256" y="0" width="608" height="304"
	 style=" stroke:#000000; stroke-width:1; fill:#ffffff; fill-opacity:0%"></rect>
      </g>
      <polyline points="864 304 880 320"
       style=" stroke:#000000; stroke-width:1;"></polyline>
      <g>
	<g>
	  <polygon points="146.487 134.071 146.487 78.4549 156.33 65.3693 
	   166.174 65.3693 171.711 70.6036 183.401 70.6036 187.091 65.3693 
	   187.091 42.4687 180.94 37.8886 166.789 37.8886 164.329 43.1233 
	   160.022 43.1233 149.563 32 121.878 32 105.266 49.6658 
	   86.809 86.3063 86.1941 98.7382 97.2679 90.2327 116.341 67.9863 
	   121.878 67.9863 126.184 75.1839 126.184 135.379 146.487 134.071 
	   146.487 134.071 146.487 134.071 146.487 134.071 146.487 134.071 
	   146.487 134.071 146.487 134.071 "
	   style=" stroke:#000000; stroke-width:1; fill:#dcdcdc; fill-opacity:100%"></polygon>
	  <polygon points="126.253 134.197 123.347 137.905 122.185 244.193 
	   119.861 272 154.724 272 150.657 243.575 149.494 137.287 
	   146.589 134.197 126.253 134.197 126.253 134.197 126.253 134.197 
	   126.253 134.197 126.253 134.197 126.253 134.197 126.253 134.197 "
	   style=" stroke:#000000; stroke-width:1; fill:#a50000; fill-opacity:100%"></polygon>
	</g>
	<g>
	  <polygon points="212.393 100.21 199.319 96.7344 79.0416 201.708 
	   40.474 201.708 18.9028 235.077 20.2102 244.114 32.6298 244.114 
	   45.05 237.163 45.7039 226.735 45.7039 217.698 50.2794 215.613 
	   50.2794 236.468 54.2013 246.2 44.3966 252.457 18.9028 252.457 
	   18.9028 266.361 52.8941 269.838 75.1197 265.666 88.1932 232.297 
	   216.316 123.847 217.622 105.076 212.393 100.21 212.393 100.21 
	   212.393 100.21 212.393 100.21 212.393 100.21 212.393 100.21 212.393 100.21 "
	   style=" stroke:#000000; stroke-width:1; fill:#9b9b9b; fill-opacity:100%"></polygon>
	  <rect x="58.7775" y="212.831" width="13.7274" height="20.1606" rx="10" ry="10"
	   style=" stroke:#000000; stroke-width:1; fill:#464646; fill-opacity:100%"></rect>
	  <polyline points="58.7775 220.478 72.505 220.478"
	   style=" stroke:#000000; stroke-width:1;"></polyline>
	  <polyline points="58.7775 226.735 72.505 226.735"
	   style=" stroke:#000000; stroke-width:1;"></polyline>
	  <ellipse  cx="202.915" cy="113.766" rx="4.90263" ry="7.29952"
	   style=" stroke:#000000; stroke-width:1; fill:#ffffff; fill-opacity:100%"></ellipse>
	  <polygon points="84.2706 207.965 194.743 115.505 198.665 128.019 
	   89.5004 220.478 84.2706 207.965 84.2706 207.965 84.2706 207.965 
	   84.2706 207.965 84.2706 207.965 84.2706 207.965 84.2706 207.965 "
	   style=" stroke:#000000; stroke-width:1; fill:#9b9b9b; fill-opacity:100%"></polygon>
	</g>
	<g>
	  <polygon points="31.9509 65.9207 16 82.8846 16 97.1345 
	   86.8225 164.311 95.117 162.955 95.117 170.418 103.411 171.775 
	   111.067 189.418 137.866 156.847 119.362 152.097 119.362 142.597 
	   109.792 141.918 111.067 133.777 42.7976 65.9207 31.9509 65.9207 
	   31.9509 65.9207 31.9509 65.9207 31.9509 65.9207 31.9509 65.9207 
	   31.9509 65.9207 31.9509 65.9207 "
	   style=" stroke:#000000; stroke-width:1; fill:#006e00; fill-opacity:100%"></polygon>
	  <polygon points="128.295 169.061 121.277 177.882 190.823 245.737 
	   192.099 256.595 220.811 268.13 224 262.701 206.136 238.273 
	   198.48 236.916 128.295 169.061 128.295 169.061 128.295 169.061 
	   128.295 169.061 128.295 169.061 128.295 169.061 128.295 169.061 "
	   style=" stroke:#000000; stroke-width:1; fill:#dcdcdc; fill-opacity:100%"></polygon>
	  <polygon points="39.6077 81.5277 30.6749 91.0274 118.086 173.133 
	   125.105 164.989 39.6077 81.5277 39.6077 81.5277 39.6077 81.5277 
	   39.6077 81.5277 39.6077 81.5277 39.6077 81.5277 39.6077 81.5277 "
	   style=" stroke:#000000; stroke-width:1; fill:#006e00; fill-opacity:100%"></polygon>
	</g>
      </g>
    </g>
  </symbol>
 </defs>
</svg>
