<?xml version="1.0"?>
<?metis version="3.1"?>
<?metisxml version="1.0"?>
<!DOCTYPE svg  PUBLIC "-//W3C//DTD SVG August 1999//EN"
 "http://www.w3.org/Graphics/SVG/svg-19990812.dtd">

<svg width="200" height="200">
 <title>Symbol library: gem_tophat.svg</title>
 <defs>
  <symbol id="oid0" xml:space="preserve" class="METIS_SYMBOL">
   <title>Responsible Position</title>
    <rect x="7.10543e-015" y="0" width="48" height="56"
     style=" stroke:#000000; stroke-width:1; fill:#ffffff; fill-opacity:100%"     class="TAG:PictureBackgrund"></rect>
    <rect x="52" y="4" width="118.543" height="56"
     style=" stroke:#9b9b9b; stroke-width:1; fill:#9b9b9b; fill-opacity:100%"     class="TAG:shadow"></rect>
    <rect x="48" y="0" width="118.543" height="56"
     style=" stroke:#000000; stroke-width:1; fill:#b9b9b9; fill-opacity:100%"     class="TAG:canvas"></rect>
    <rect x="49.5434" y="5" width="115" height="45"
     style="stroke:none; fill:#878787; fill-opacity:0%"     class="TAG:grid"></rect>
    <g>
      <desc>METIS_TEXT_GROUP</desc>
      <text  x="50.5434" y="15.8"
       style=" stroke:#000000; stroke-width:1; font-family:sans-serif; font-size:16;"
       class="TAG:text">text</text>
      <rect x="50.5434" y="0" width="117.457" height="56"
       style=" stroke:#000000; stroke-width:1; fill:#ffffff; fill-opacity:0%"></rect>
    </g>
    <g>
      <ellipse  cx="24.1452" cy="40.7581" rx="18.6452" ry="7.74194"
       style=" stroke:#000000; stroke-width:1; fill:#464646; fill-opacity:100%"       class="TAG:polygon"></ellipse>
      <polygon points="35.7984 38.1774 35.7984 33.0161 31.2392 35.1064 
       29.9718 34.8251 28.6047 34.6011 27.1613 34.4384 25.6662 34.3396 
       24.1452 34.3065 22.6241 34.3396 21.1291 34.4384 19.6857 34.6011 
       18.3185 34.8251 17.0512 35.1064 12.4919 33.0161 12.4919 38.1774 
       12.5916 38.6827 12.889 39.1793 13.379 39.6588 14.0531 40.1129 
       14.9 40.5339 15.9051 40.9146 17.0512 41.2485 18.3185 41.5298 
       19.6857 41.7538 21.1291 41.9165 22.6241 42.0153 24.1452 42.0484 
       25.6662 42.0153 27.1613 41.9165 28.6047 41.7538 29.9718 41.5298 
       31.2392 41.2485 32.3853 40.9146 33.3902 40.5339 34.2371 40.1129 
       34.9113 39.6588 35.4013 39.1793 35.6988 38.6827 35.7984 38.1774 35.7984 38.1774 "
       style=" stroke:#000000; stroke-width:1; fill:#dcdcdc; fill-opacity:100%"       class="TAG:polygon"></polygon>
      <polyline points="24.1452 36.8871 24.1452 36.8871 24.1452 42.0484"
       style=" stroke:#000000; stroke-width:1;"       class="TAG:polyline"></polyline>
      <polyline points="25.3105 36.8871 25.3105 36.8871 25.3105 42.0484"
       style=" stroke:#000000; stroke-width:1;"       class="TAG:polyline"></polyline>
      <polyline points="26.4758 36.8871 26.4758 36.8871 26.4758 42.0484"
       style=" stroke:#000000; stroke-width:1;"       class="TAG:polyline"></polyline>
      <polyline points="27.6411 36.8871 27.6411 36.8871 27.6342 41.8989"
       style=" stroke:#000000; stroke-width:1;"       class="TAG:polyline"></polyline>
      <polyline points="28.8064 36.8871 28.8064 36.8871 28.7973 41.7081"
       style=" stroke:#000000; stroke-width:1;"       class="TAG:polyline"></polyline>
      <polyline points="29.9718 36.8871 29.9718 36.8871 29.9818 41.5412"
       style=" stroke:#000000; stroke-width:1;"       class="TAG:polyline"></polyline>
      <polyline points="31.1371 35.5968 31.1371 35.5968 31.1449 41.3027"
       style=" stroke:#000000; stroke-width:1;"       class="TAG:polyline"></polyline>
      <polyline points="32.3024 35.5968 32.3024 35.5968 32.3079 40.945"
       style=" stroke:#000000; stroke-width:1;"       class="TAG:polyline"></polyline>
      <polyline points="33.4677 35.5968 33.4677 35.5968 33.471 40.468"
       style=" stroke:#000000; stroke-width:1;"       class="TAG:polyline"></polyline>
      <polyline points="34.633 34.3065 34.633 34.3065 34.6339 39.848"
       style=" stroke:#000000; stroke-width:1;"       class="TAG:polyline"></polyline>
      <polyline points="22.9798 36.8871 22.9798 36.8871 22.9798 42.0484"
       style=" stroke:#000000; stroke-width:1;"       class="TAG:polyline"></polyline>
      <polyline points="21.8145 36.8871 21.8145 36.8871 21.8191 42.0181"
       style=" stroke:#000000; stroke-width:1;"       class="TAG:polyline"></polyline>
      <polyline points="20.6492 36.8871 20.6492 36.8871 20.6561 41.8512"
       style=" stroke:#000000; stroke-width:1;"       class="TAG:polyline"></polyline>
      <polyline points="19.4839 36.8871 19.4839 36.8871 19.493 41.7319"
       style=" stroke:#000000; stroke-width:1;"       class="TAG:polyline"></polyline>
      <polyline points="18.3186 36.8871 18.3186 36.8871 18.3085 41.5412"
       style=" stroke:#000000; stroke-width:1;"       class="TAG:polyline"></polyline>
      <polyline points="17.1532 35.5968 17.1532 35.5968 17.1454 41.2788"
       style=" stroke:#000000; stroke-width:1;"       class="TAG:polyline"></polyline>
      <polyline points="15.9879 35.5968 15.9879 35.5968 16.004 40.933"
       style=" stroke:#000000; stroke-width:1;"       class="TAG:polyline"></polyline>
      <polyline points="14.8226 35.5968 14.8226 35.5968 14.8409 40.5038"
       style=" stroke:#000000; stroke-width:1;"       class="TAG:polyline"></polyline>
      <polyline points="13.6573 34.3065 13.6573 34.3065 13.6779 39.8837"
       style=" stroke:#000000; stroke-width:1;"       class="TAG:polyline"></polyline>
      <polygon points="35.7984 33.0161 35.7984 12.371 12.4919 12.371 
       12.4919 33.0161 13.0746 34.3065 13.4787 35.0027 14.1528 35.4569 
       14.9997 35.8779 16.0048 36.2585 17.1509 36.5924 18.4182 36.8737 
       19.7854 37.0978 21.2288 37.2605 22.7238 37.3592 24.2448 37.3924 
       25.7659 37.3592 27.261 37.2605 28.7044 37.0978 30.0714 36.8737 
       31.3389 36.5924 32.4849 36.2585 33.49 35.8779 34.3368 35.4569 
       35.0111 35.0027 35.5011 34.5232 35.7984 34.0266 35.7984 33.0161 35.7984 33.0161 "
       style=" stroke:#000000; stroke-width:1; fill:#000000; fill-opacity:100%"       class="TAG:polygon"></polygon>
      <ellipse  cx="24.1452" cy="12.371" rx="11.6532" ry="3.87097"
       style=" stroke:#000000; stroke-width:1; fill:#696969; fill-opacity:100%"       class="TAG:polygon"></ellipse>
    </g>
  </symbol>
 </defs>
</svg>
