<?xml version="1.0"?>
<?metis version="3.1"?>
<?metisxml version="1.0"?>
<!DOCTYPE svg  PUBLIC "-//W3C//DTD SVG August 1999//EN"
 "http://www.w3.org/Graphics/SVG/svg-19990812.dtd">

<svg width="200" height="200">
 <title>Symbol library: training_prog.svg</title>
 <defs>
  <symbol id="oid0" xml:space="preserve" class="METIS_SYMBOL">
   <title>Training Program</title>
    <g>
      <polygon points="7.10543e-015 0 7.10543e-015 304 16.2963 320 
       880 320 880 16 863.704 0 7.10543e-015 0 
       7.10543e-015 0 7.10543e-015 0 7.10543e-015 0 7.10543e-015 0 
       7.10543e-015 0 7.10543e-015 0 "
       style=" stroke:#000000; stroke-width:1; fill:#9b9b9b; fill-opacity:100%"       class="TAG:shadow"></polygon>
      <rect x="7.10543e-015" y="0" width="240" height="304"
       style=" stroke:#000000; stroke-width:1; fill:#ffffa5; fill-opacity:100%"       class="TAG:PictureBackground"></rect>
      <rect x="240" y="0" width="624" height="304"
       style=" stroke:#000000; stroke-width:1; fill:#96a5ff; fill-opacity:100%"       class="TAG:canvas"></rect>
      <rect x="245.357" y="25.7143" width="569.522" height="231.429"
       style="stroke:none; fill:#878787; fill-opacity:0%"       class="TAG:grid"></rect>
      <g>
	<desc>METIS_TEXT_GROUP</desc>
	<text  x="256" y="15.8"
	 style=" stroke:#000000; stroke-width:1; font-family:sans-serif; font-size:16;"
	 class="TAG:text">text</text>
	<rect x="256" y="0" width="608" height="304"
	 style=" stroke:#000000; stroke-width:1; fill:#ffffff; fill-opacity:0%"></rect>
      </g>
      <polyline points="864 304 880 320"
       style=" stroke:#000000; stroke-width:1;"></polyline>
      <g>
	<rect x="21.8729" y="45.0337" width="126.127" height="157.63"
	 style=" stroke:#6e006e; stroke-width:1; fill:#ffffff; fill-opacity:100%"	 class="TAG:Board"></rect>
	<ellipse  cx="39.5691" cy="72.5478" rx="9.91089" ry="20.7028"
	 style=" stroke:#0000a5; stroke-width:1; fill:#0000a5; fill-opacity:100%"	 class="TAG:Instructor"></ellipse>
	<polygon points="79.9969 83.0115 79.9969 97.3215 50.4728 121.049 
	 50.4728 265.66 41.3912 265.66 41.3912 185.32 36.8506 185.32 
	 36.8506 265.66 27.7692 265.66 27.7692 121.049 23.578 121.049 
	 23.578 182.849 16 174.718 16 112.467 20.9713 101.663 
	 52.3657 101.615 79.9969 83.0115 79.9969 83.0115 79.9969 83.0115 
	 79.9969 83.0115 79.9969 83.0115 79.9969 83.0115 "
	 style=" stroke:#0000a5; stroke-width:1; fill:#0000a5; fill-opacity:100%"	 class="TAG:Instructor"></polygon>
	<polygon points="97.796 106.326 201.635 32 224 198.35 
	 114.836 266.777 97.796 106.326 97.796 106.326 97.796 106.326 
	 97.796 106.326 97.796 106.326 97.796 106.326 "
	 style=" stroke:#000000; stroke-width:1; fill:#ffffff; fill-opacity:100%"	 class="TAG:Paper"></polygon>
	<polygon points="154.242 102.836 198.44 71.4532 213.349 187.072 
	 169.339 214.208 154.242 102.836 154.242 102.836 154.242 102.836 
	 154.242 102.836 154.242 102.836 154.242 102.836 "
	 style=" stroke:#ffffff; stroke-width:1; fill:#dcdcdc; fill-opacity:100%"	 class="TAG:TextFill"></polygon>
	<polygon points="105.758 71.7772 105.758 243.079 147.294 272 
	 160.606 272 160.606 102.923 105.758 71.7772 105.758 71.7772 
	 105.758 71.7772 105.758 71.7772 105.758 71.7772 105.758 71.7772 "
	 style=" stroke:#000000; stroke-width:1; fill:#ffffff; fill-opacity:100%"	 class="TAG:BookCover"></polygon>
	<polygon points="105.758 70.6646 112.68 66.2152 121.2 66.2152 
	 173.919 97.3609 173.919 271.999 160.606 271.999 160.606 104.036 
	 105.758 71.7772 105.758 70.6646 105.758 70.6646 105.758 70.6646 
	 105.758 70.6646 105.758 70.6646 105.758 70.6646 "
	 style=" stroke:#000000; stroke-width:1; fill:#dcdcdc; fill-opacity:100%"	 class="TAG:BookPages"></polygon>
      </g>
    </g>
  </symbol>
 </defs>
</svg>
