<?xml version="1.0"?>
<?metis version="3.0"?>
<!DOCTYPE svg  PUBLIC "-//W3C//DTD SVG August 1999//EN"
 "http://www.w3.org/Graphics/SVG/svg-19990812.dtd">

<svg width="200" height="200">
 <title>Symbol library: transparent_2.svg</title>
 <defs>
  <symbol id="oid0" xml:space="preserve" class="METIS_SYMBOL">
   <title>Transparent 2</title>
    <g>
      <polyline points="0 336 448 336 448 24 
       440 24 416 0 176 0 152 24 
       8 24 0 32 0 336"
       style=" stroke:#000000; stroke-width:1;" class="TAG:polyline"></polyline>
      <polygon points="448 28 452 28 452 340 
       4 340 4 336 444 336 444 64 
       448 68 448 28 "
       style=" stroke:#000000; stroke-width:1; fill:#ffffff; fill-opacity:100%" class="TAG:polygon"></polygon>
      <g>
	<desc>METIS_TEXT_GROUP</desc>
	<text  x="168" y="19.8"
	 style=" stroke:#000000; stroke-width:1; font-family:sans-serif; font-size:16;" class="TAG:text"
>name</text>
	<rect x="168" y="4" width="256" height="32"
	 style=" stroke:#000000; stroke-width:1; fill:#000000; fill-opacity:0%"></rect>
      </g>
      <g>
	<desc>METIS_TEXT_GROUP</desc>
	<text  x="8" y="79.8"
	 style=" stroke:#000000; stroke-width:1; font-family:sans-serif; font-size:16;" class="TAG:description"
>description</text>
	<rect x="8" y="64" width="428" height="266"
	 style=" stroke:#000000; stroke-width:1; fill:#000000; fill-opacity:0%"></rect>
      </g>
      <polyline points="444 64 436 56 176 56 
       136 24"
       style=" stroke:#000000; stroke-width:1;" class="TAG:polyline"></polyline>
    </g>
  </symbol>
 </defs>
</svg>
