<?xml version="1.0"?>
<?metis version="3.1"?>
<?metisxml version="1.0"?>
<!DOCTYPE svg  PUBLIC "-//W3C//DTD SVG August 1999//EN"
 "http://www.w3.org/Graphics/SVG/svg-19990812.dtd">

<svg width="200" height="200">
 <title>Symbol library: trend_truth.svg</title>
 <defs>
  <symbol id="oid1" xml:space="preserve" class="METIS_SYMBOL">
   <title>Trend/Truth</title>
    <g>
      <g>
	<polygon points="7.10543e-015 0 7.10543e-015 304 16.2963 320 
	 880 320 880 16 863.704 0 7.10543e-015 0 
	 7.10543e-015 0 7.10543e-015 0 7.10543e-015 0 7.10543e-015 0 
	 7.10543e-015 0 7.10543e-015 0 7.10543e-015 0 7.10543e-015 0 
	 7.10543e-015 0 7.10543e-015 0 "
	 style=" stroke:#000000; stroke-width:1; fill:#9b9b9b; fill-opacity:100%"	 class="TAG:shadow"></polygon>
	<polyline points="863.704 304 880 320"
	 style=" stroke:#000000; stroke-width:1;"></polyline>
      </g>
      <rect x="7.10543e-015" y="0" width="240" height="304"
       style=" stroke:#000000; stroke-width:1; fill:#dc00dc; fill-opacity:100%"       class="TAG:PictureBackground"></rect>
      <rect x="240" y="0" width="624" height="304"
       style=" stroke:#000000; stroke-width:1; fill:#ffa5ff; fill-opacity:100%"       class="TAG:canvas"></rect>
      <rect x="245.357" y="25.7143" width="569.522" height="231.429"
       style="stroke:none; fill:#878787; fill-opacity:0%"       class="TAG:grid"></rect>
      <g>
	<desc>METIS_TEXT_GROUP</desc>
	<text  x="256" y="15.8"
	 style=" stroke:#000000; stroke-width:1; font-family:sans-serif; font-size:16;"
	 class="TAG:text">text</text>
	<rect x="256" y="0" width="608" height="304"
	 style=" stroke:#000000; stroke-width:1; fill:#ffffff; fill-opacity:0%"></rect>
      </g>
      <g>
	<polygon points="90.2858 52.5714 120 16 149.714 52.5714 
	 134.857 52.5714 134.857 125.714 120 144 105.143 125.714 
	 105.143 52.5714 105.143 52.5714 90.2858 52.5714 90.2858 52.5714 
	 90.2858 52.5714 90.2858 52.5714 90.2858 52.5714 90.2858 52.5714 "
	 style=" stroke:#000000; stroke-width:1; fill:#b9b9b9; fill-opacity:100%"></polygon>
	<polygon points="120 144 105.143 162.286 105.143 235.428 
	 90.2858 235.428 120 272 149.714 235.428 134.857 235.428 
	 134.857 162.286 120 144 120 144 120 144 
	 120 144 120 144 120 144 "
	 style=" stroke:#000000; stroke-width:1; fill:#696969; fill-opacity:100%"></polygon>
	<polygon points="120 144 134.857 125.714 194.285 125.714 
	 194.285 107.428 224 144 194.285 180.572 194.285 162.286 
	 134.857 162.286 134.857 162.286 120 144 120 144 
	 120 144 120 144 120 144 120 144 "
	 style=" stroke:#000000; stroke-width:1; fill:#dcdcdc; fill-opacity:100%"></polygon>
	<polygon points="120 144 105.143 125.714 45.7142 125.714 
	 45.7142 107.428 16 144 45.7142 180.572 45.7142 162.286 
	 105.143 162.286 120 144 120 144 120 144 
	 120 144 120 144 120 144 "
	 style=" stroke:#000000; stroke-width:1; fill:#9b9b9b; fill-opacity:100%"></polygon>
      </g>
    </g>
  </symbol>
 </defs>
</svg>
