<?xml version="1.0"?>
<?metis version="3.1"?>
<?metisxml version="1.0"?>
<!DOCTYPE svg  PUBLIC "-//W3C//DTD SVG August 1999//EN"
 "http://www.w3.org/Graphics/SVG/svg-19990812.dtd">

<svg width="200" height="200">
 <title>Symbol library: user_need.svg</title>
 <defs>
  <symbol id="oid1" xml:space="preserve" class="METIS_SYMBOL">
   <title>User Need</title>
    <g>
      <g>
	<polygon points="0 0 0 304 16 320 
	 880 320 880 16 864 0 0 0 
	 0 0 0 0 0 0 0 0 0 0 "
	 style=" stroke:#000000; stroke-width:1; fill:#9b9b9b; fill-opacity:100%"	 class="TAG:shadow"></polygon>
	<rect x="0" y="0" width="240" height="304"
	 style=" stroke:#000000; stroke-width:1; fill:#ffffff; fill-opacity:100%"	 class="TAG:PictureBackground"></rect>
	<rect x="240" y="0" width="624" height="304"
	 style=" stroke:#000000; stroke-width:1; fill:#ff5050; fill-opacity:100%"	 class="TAG:canvas"></rect>
	<g>
	  <desc>METIS_TEXT_GROUP</desc>
	  <text  x="256" y="15.8"
	   style=" stroke:#000000; stroke-width:1; font-family:sans-serif; font-size:16;"
	   class="TAG:text">text</text>
	  <rect x="256" y="0" width="608" height="304"
	   style=" stroke:#000000; stroke-width:1; fill:#ffffff; fill-opacity:0%"></rect>
	</g>
	<polyline points="864 304 880 320"
	 style=" stroke:#000000; stroke-width:1;"></polyline>
      </g>
      <g>
	<polygon points="122.424 144 158.788 144 158.788 152.727 
	 156.364 155.636 132.121 152.727 132.121 165.818 156.364 165.818 
	 156.364 177.455 153.939 180.364 132.181 177.488 132.121 194.909 
	 160 194.909 160 205.091 157.576 208 122.424 205.091 
	 120 146.909 122.424 144 122.424 144 "
	 style=" stroke:#000000; stroke-width:1; fill:#dc0000; fill-opacity:100%"></polygon>
	<polygon points="120 146.909 156.364 146.909 156.364 155.636 
	 129.697 155.636 129.697 168.727 153.939 168.727 153.939 180.364 
	 129.757 180.397 129.697 197.818 157.576 197.818 157.576 208 
	 120 208 120 146.909 120 146.909 "
	 style=" stroke:#000000; stroke-width:1; fill:#dc0000; fill-opacity:100%"></polygon>
      </g>
      <g>
	<polygon points="18.5946 16 28.973 16 52.3243 56.7273 
	 49.7297 18.9091 52.3243 16 64 16 64 77.0909 
	 61.4054 80 51.027 77.0909 30.2703 39.2727 30.2703 77.0909 
	 27.6757 80 18.5946 77.0909 16 18.9091 18.5946 16 18.5946 16 "
	 style=" stroke:#000000; stroke-width:1; fill:#dc0000; fill-opacity:100%"></polygon>
	<polygon points="16 18.9091 26.3784 18.9091 49.7297 59.6364 
	 49.7297 18.9091 61.4054 18.9091 61.4054 80 48.4324 80 
	 27.6757 42.1818 27.6757 80 16 80 16 18.9091 16 18.9091 "
	 style=" stroke:#000000; stroke-width:1; fill:#dc0000; fill-opacity:100%"></polygon>
	<polyline points="26.3784 18.9091 28.973 16"
	 style=" stroke:#000000; stroke-width:1;"></polyline>
	<polyline points="61.4054 18.9091 64 16"
	 style=" stroke:#000000; stroke-width:1;"></polyline>
      </g>
      <g>
	<polygon points="74.4242 80 110.788 80 110.788 88.7273 
	 108.364 91.6364 84.1212 88.7273 84.1212 101.818 108.364 101.818 
	 108.364 113.455 105.939 116.364 84.1811 113.488 84.1212 130.909 
	 112 130.909 112 141.091 109.576 144 74.4242 141.091 
	 72 82.9091 74.4242 80 74.4242 80 "
	 style=" stroke:#000000; stroke-width:1; fill:#dc0000; fill-opacity:100%"></polygon>
	<polygon points="72 82.9091 108.364 82.9091 108.364 91.6364 
	 81.697 91.6364 81.697 104.727 105.939 104.727 105.939 116.364 
	 81.7568 116.397 81.697 133.818 109.576 133.818 109.576 144 
	 72 144 72 82.9091 72 82.9091 "
	 style=" stroke:#000000; stroke-width:1; fill:#dc0000; fill-opacity:100%"></polygon>
      </g>
      <g>
	<polygon points="170.667 208 178.909 208 187.152 208 
	 190.062 208 192.727 208.372 194.909 208.744 196.606 209.487 
	 198.061 210.417 199.515 211.718 200.97 213.02 202.425 214.879 
	 203.637 216.924 204.849 219.155 205.818 221.572 206.545 224.546 
	 207.273 227.707 207.757 231.053 208 234.958 208 239.233 
	 208 243.138 207.757 246.856 207.273 250.202 206.545 253.176 
	 205.576 255.965 204.606 258.383 203.637 260.613 202.425 262.472 
	 201.212 263.959 199.757 265.448 196.606 267.678 194.667 268.421 
	 192.484 268.98 190.303 269.166 187.637 269.351 179.152 269.351 
	 170.667 269.351 168 210.649 170.667 208 170.667 208 
	 170.667 208 170.667 208 170.667 208 170.667 208 
	 170.667 208 170.667 208 "
	 style=" stroke:#000000; stroke-width:1; fill:#dc0000; fill-opacity:100%"></polygon>
	<polygon points="168 210.649 176.243 210.649 184.485 210.649 
	 187.395 210.649 190.06 211.021 192.242 211.393 193.94 212.136 
	 195.395 213.066 196.848 214.367 198.303 215.669 199.758 217.528 
	 200.97 219.573 202.182 221.804 203.152 224.221 203.879 227.195 
	 204.607 230.356 205.091 233.702 205.333 237.607 205.333 241.882 
	 205.333 245.787 205.091 249.505 204.607 252.851 203.879 255.825 
	 202.909 258.614 201.94 261.032 200.97 263.262 199.758 265.121 
	 198.546 266.608 197.091 268.097 193.94 270.327 192.001 271.07 
	 189.818 271.629 187.636 271.815 184.971 272 176.485 272 
	 168 272 168 210.649 168 210.649 168 210.649 
	 168 210.649 168 210.649 168 210.649 168 210.649 168 210.649 "
	 style=" stroke:#000000; stroke-width:1; fill:#dc0000; fill-opacity:100%"></polygon>
	<polygon points="178.633 221.029 178.633 241.325 178.633 261.62 
	 181.712 261.62 184.789 261.62 186.548 261.62 188.306 261.434 
	 189.625 261.247 190.504 260.689 192.044 259.572 193.363 257.896 
	 193.802 256.965 194.462 255.662 194.901 253.987 195.341 252.124 
	 195.56 249.89 195.78 247.469 196 244.676 196 241.51 
	 196 238.159 195.78 235.366 195.56 232.759 195.341 230.711 
	 194.901 228.849 194.242 227.173 192.923 224.38 192.044 223.449 
	 191.164 222.518 188.966 221.401 187.867 221.215 186.548 221.029 
	 184.569 221.029 182.371 221.029 180.613 221.029 178.633 221.029 
	 178.633 221.029 178.633 221.029 178.633 221.029 178.633 221.029 
	 178.633 221.029 178.633 221.029 178.633 221.029 "
	 style=" stroke:#000000; stroke-width:1; fill:#ffffff; fill-opacity:100%"></polygon>
      </g>
    </g>
  </symbol>
 </defs>
</svg>
