<?xml version="1.0" encoding="UTF-8" standalone="no"?>
<svg
   xmlns:dc="http://purl.org/dc/elements/1.1/"
   xmlns:cc="http://creativecommons.org/ns#"
   xmlns:rdf="http://www.w3.org/1999/02/22-rdf-syntax-ns#"
   xmlns:svg="http://www.w3.org/2000/svg"
   xmlns="http://www.w3.org/2000/svg"
   xmlns:xlink="http://www.w3.org/1999/xlink"
   xmlns:sodipodi="http://sodipodi.sourceforge.net/DTD/sodipodi-0.dtd"
   xmlns:inkscape="http://www.inkscape.org/namespaces/inkscape"
   version="1.1"
   xml:space="preserve"
   height="219"
   viewBox="-0.489 -0.352 219 219"
   width="219"
   enable-background="new -0.489 -0.352 211 156"
   y="0px"
   x="0px"
   id="svg2"
   inkscape:version="0.47 r22583"
   sodipodi:docname="value_chain.svg"><sodipodi:namedview
   pagecolor="#ffffff"
   bordercolor="#666666"
   borderopacity="1"
   objecttolerance="10"
   gridtolerance="10"
   guidetolerance="10"
   inkscape:pageopacity="0"
   inkscape:pageshadow="2"
   inkscape:window-width="1280"
   inkscape:window-height="1002"
   id="namedview119"
   showgrid="false"
   inkscape:zoom="3.4474886"
   inkscape:cx="64.249669"
   inkscape:cy="109.5"
   inkscape:window-x="1272"
   inkscape:window-y="-8"
   inkscape:window-maximized="1"
   inkscape:current-layer="svg2" /><metadata
   id="metadata4"><rdf:RDF><cc:Work
       rdf:about=""><dc:format>image/svg+xml</dc:format><dc:type
         rdf:resource="http://purl.org/dc/dcmitype/StillImage" /><dc:title /></cc:Work></rdf:RDF></metadata>
<defs
   id="defs6"><linearGradient
     id="linearGradient3890-1"
     x1="21.5"
     spreadMethod="reflect"
     gradientUnits="userSpaceOnUse"
     y1="17.5"
     gradientTransform="translate(0,2)"
     x2="-28"
     y2="-21.5"><stop
       stop-color="#f5e0a1"
       offset="0"
       id="stop9" /><stop
       stop-color="#21150f"
       offset="1"
       id="stop11" /></linearGradient><filter
     id="filter4667"><feGaussianBlur
       stdDeviation="1.5306973"
       id="feGaussianBlur14" /></filter><filter
     id="filter4671"><feGaussianBlur
       stdDeviation="1.5306973"
       id="feGaussianBlur17" /></filter><filter
     id="filter4675"><feGaussianBlur
       stdDeviation="1.5306973"
       id="feGaussianBlur20" /></filter><filter
     id="filter4681"><feGaussianBlur
       stdDeviation="1.6903678"
       id="feGaussianBlur23" /></filter><linearGradient
     id="linearGradient3956"
     y2="45.9"
     xlink:href="#linearGradient3876-1"
     gradientUnits="userSpaceOnUse"
     x2="33.3"
     gradientTransform="matrix(5.625317,0,0,5.5746277,-40.258002,-21.590418)"
     y1="12.9"
     x1="21.8" /><linearGradient
     id="linearGradient3876-1"><stop
       stop-color="#f5e0a1"
       offset="0"
       id="stop27" /><stop
       stop-color="#21150f"
       offset="1"
       id="stop29" /></linearGradient><linearGradient
     id="linearGradient3958"
     y2="8.42"
     gradientUnits="userSpaceOnUse"
     x2="5.7"
     gradientTransform="matrix(5.625317,0,0,5.5746277,-40.258002,-21.590418)"
     y1="38.1"
     x1="37.2"><stop
       stop-color="#000"
       offset="0"
       id="stop32" /><stop
       stop-color="#000"
       stop-opacity="0"
       offset="1"
       id="stop34" /></linearGradient><linearGradient
     id="linearGradient3951"
     y2="-21.5"
     xlink:href="#linearGradient3876-1"
     spreadMethod="reflect"
     gradientUnits="userSpaceOnUse"
     x2="-28"
     gradientTransform="matrix(5.3242503,0,0,5.2320179,-33.627218,-15.867512)"
     y1="17.5"
     x1="21.5" /><linearGradient
     id="linearGradient3953"
     y2="8.67"
     gradientUnits="userSpaceOnUse"
     x2="18.6"
     gradientTransform="matrix(5.3242503,0,0,5.2320179,-33.627218,-15.867512)"
     y1="25.3"
     x1="30.3"><stop
       stop-color="#f5e0a1"
       offset="0"
       id="stop38" /><stop
       stop-color="#21150f"
       offset="1"
       id="stop40" /></linearGradient><linearGradient
     id="linearGradient3946"
     y2="29.2"
     gradientUnits="userSpaceOnUse"
     x2="35.9"
     gradientTransform="matrix(3.9611516,0,0,3.8374948,3.7690635,16.91832)"
     y1="20.7"
     x1="26.7"><stop
       stop-color="#f1f2f3"
       offset="0"
       id="stop43" /><stop
       stop-color="#aab7d2"
       offset="1"
       id="stop45" /></linearGradient><linearGradient
     id="linearGradient3948"
     y2="-4.82"
     xlink:href="#linearGradient3876-1"
     gradientUnits="userSpaceOnUse"
     x2="0.689"
     gradientTransform="matrix(3.9611516,0,0,3.8374948,3.7690635,16.91832)"
     y1="34.8"
     x1="45.2" /><radialGradient
     id="radialGradient3876"
     gradientUnits="userSpaceOnUse"
     cy="33.5"
     cx="55.1"
     gradientTransform="matrix(3.2444723,-4.5335202,2.282995,1.6339768,-102.36524,355.41996)"
     r="13.9"><stop
       stop-color="#000"
       stop-opacity="0.46052632"
       offset="0"
       id="stop49" /><stop
       stop-color="#000"
       stop-opacity="0"
       offset="1"
       id="stop51" /></radialGradient><linearGradient
     id="linearGradient3880"
     y2="130"
     xlink:href="#linearGradient4915"
     gradientUnits="userSpaceOnUse"
     x2="144"
     y1="121"
     x1="134" /><linearGradient
     id="linearGradient4915"><stop
       stop-color="#FFF"
       offset="0"
       id="stop55" /><stop
       stop-color="#000"
       offset="1"
       id="stop57" /></linearGradient><linearGradient
     id="linearGradient3882"
     y2="105"
     xlink:href="#linearGradient4915"
     gradientUnits="userSpaceOnUse"
     x2="131"
     y1="97.7"
     x1="124" /><linearGradient
     id="linearGradient4905"
     y2="101"
     xlink:href="#linearGradient4915"
     gradientUnits="userSpaceOnUse"
     x2="121"
     y1="98.1"
     x1="119" /><linearGradient
     id="linearGradient3884"
     y2="91.8"
     xlink:href="#linearGradient4915"
     gradientUnits="userSpaceOnUse"
     x2="157"
     y1="83.8"
     x1="149" /><linearGradient
     id="linearGradient3136"
     y2="82.5"
     xlink:href="#linearGradient4915"
     gradientUnits="userSpaceOnUse"
     y1="76"
     x2="169"
     x1="165" /></defs><path
   style="fill:url(#linearGradient3890-1);stroke:none"
   d="m 4.79,57.5 c 0,0 0.0489,-49.5 0.0489,-49.5 0,0 38.3,24.9 38.3,24.9 0,0 38.4,-25 38.4,-25 l -0.131,49.9 c 0,0 -38.4,25.7 -38.4,25.7 l -38.2,-25.9 z"
   id="path65" /><path
   style="fill:url(#linearGradient3890-1);stroke:none"
   d="m 4.79,121 c 0,0 0.0489,-49.5 0.0489,-49.5 0,0 38.3,24.9 38.3,24.9 0,0 38.4,-25 38.4,-25 l -0.131,49.9 c 0,0 -38.4,25.7 -38.4,25.7 l -38.2,-25.9 z"
   id="path67" /><path
   style="fill:url(#linearGradient3890-1);stroke:none"
   d="m 4.79,184 c 0,0 0.0489,-49.5 0.0489,-49.5 0,0 38.3,24.9 38.3,24.9 0,0 38.4,-25 38.4,-25 l -0.131,49.9 c 0,0 -38.4,25.7 -38.4,25.7 l -38.2,-25.9 z"
   id="path69" /><path
   style="fill:#5e5e5e;stroke:none"
   d="m 82.15625,6.78125 -0.9375,0.625 L 43.125,32.1875 5.15625,7.5 4.21875,6.875 l 0,1.125 -0.03125,49.5 0,0.0625 0,0.03125 0.03125,0.125 0.03125,0.25 0.21875,0.125 L 42.65625,84 43,84.21875 43.34375,84 81.75,58.3125 82,58.125 l 0,-0.3125 0.15625,-49.90625 0,-1.125 z M 80.9375,9.03125 80.8125,57.4375 43,82.78125 5.40625,57.25 5.4375,9.09375 42.8125,33.40625 43.125,33.625 43.46875,33.40625 80.9375,9.03125 z"
   id="path2927" /><path
   style="fill:#5e5e5e;stroke:none"
   d="m 82.15625,70.28125 -0.9375,0.625 L 43.125,95.6875 5.15625,71 l -0.9375,-0.625 0,1.125 -0.03125,49.5 0,0.0625 0,0.0312 0.03125,0.125 0.03125,0.25 0.21875,0.125 L 42.65625,147.5 43,147.71875 43.34375,147.5 81.75,121.8125 82,121.625 l 0,-0.3125 0.15625,-49.90625 0,-1.125 z m -1.21875,2.25 -0.125,48.40625 L 43,146.28125 5.40625,120.75 5.4375,72.59375 l 37.375,24.3125 0.3125,0.21875 0.34375,-0.21875 37.46875,-24.375 z"
   id="path3705" /><path
   style="fill:#5e5e5e;stroke:none"
   d="m 82.15625,133.28125 -0.9375,0.625 L 43.125,158.6875 5.15625,134 l -0.9375,-0.625 0,1.125 -0.03125,49.5 0,0.0625 0,0.0312 0.03125,0.125 0.03125,0.25 0.21875,0.125 L 42.65625,210.5 43,210.71875 43.34375,210.5 81.75,184.8125 82,184.625 l 0,-0.3125 0.15625,-49.90625 0,-1.125 z m -1.21875,2.25 -0.125,48.40625 L 43,209.28125 5.40625,183.75 5.4375,135.59375 l 37.375,24.3125 0.3125,0.21875 0.34375,-0.21875 37.46875,-24.375 z"
   id="path3711" /><g
   transform="matrix(0.7340284,0,0,0.7340284,54.370967,9.647002)"
   id="g77"><path
     d="M213,109c0,58-46,105-103,105-56.9,0-103-47-103-105,0-57.9,46.1-105,103-105,57,0,103,46.9,103,105z"
     stroke="url(#linearGradient3958)"
     stroke-width="2.5"
     fill="url(#linearGradient3956)"
     id="path79" /><path
     d="m206,107c0,54.4-43.6,98.4-97.5,98.4-53.3,0-97-44-97-98,0.5-54,44.1-98,97-98,54,0,98,44.1,98,98.4z"
     stroke="url(#linearGradient3953)"
     stroke-width="2.4000001"
     fill="url(#linearGradient3951)"
     id="path81" /><path
     d="m182,107c0,39.9-32.5,72.2-72.5,72.2-40.6,0-73-32-73-72,0-39.9,32.5-72.2,73-72.2,40,0,72,32.3,72,72.2z"
     stroke="url(#linearGradient3948)"
     stroke-dasharray="none"
     stroke-miterlimit="4"
     stroke-width="0.78724033"
     fill="url(#linearGradient3946)"
     id="path83" /><path
     fill="url(#radialGradient3876)"
     d="m198,78.1c11.9,14.4,11.6,35.4,4.63,52-11,24.8-26.6,48.7-49,64.6-9.37,6.32-20.3,11.7-31.8,11.4-9.78-0.513-19-7.38-21.2-17.1-4.59-15.4,0.674-31.5,6.98-45.6,11.7-24.7,29.3-47.7,53.4-61.3,11-5.9,25.2-9.85,37-3.9z"
     id="path85" /><path
     stroke-linejoin="round"
     d="m22.3,10.2-3.93,16.5c-0.0455,0.917-0.237,1.44,0.786,2.36"
     stroke-opacity="0.78823529"
     transform="matrix(5.0142682,0,0,5.0142682,-11.823711,-5.9031392)"
     stroke="#000"
     stroke-linecap="round"
     stroke-miterlimit="4"
     stroke-dasharray="none"
     stroke-width="0.30000007"
     fill="none"
     id="path87" /><path
     d="m21.8,30.6-11.1,0"
     transform="matrix(5.0142682,0,0,5.0142682,-11.823711,-5.9031392)"
     stroke="#000"
     stroke-width="0.30000001"
     fill="none"
     id="path89" /><path
     d="m17.8,13.5-3.14,0"
     transform="matrix(5.0142682,0,0,5.0142682,-11.823711,-5.9031392)"
     stroke="#000"
     stroke-width="0.30000001"
     fill="none"
     id="path91" /><path
     d="m17.6,14.1-2.7,13.5s-0.688,1.25-1.97,1.8c-1.36,0.582-1.57,0.393-1.57,0.393"
     transform="matrix(5.0142682,0,0,5.0142682,-11.823711,-5.9031392)"
     stroke="#FFF"
     stroke-width="0.5"
     fill="none"
     id="path93" /><path
     d="m14.9,12.7s2.98-0.59,4.72-1.18,2.24-1.18,2.24-1.18"
     transform="matrix(5.0142682,0,0,5.0142682,-11.823711,-5.9031392)"
     stroke="#FFF"
     stroke-width="0.5"
     fill="none"
     id="path95" /><path
     stroke-linecap="round"
     stroke="#555753"
     d="m146,38.3,0,147"
     id="path97" /><path
     stroke-linecap="round"
     stroke="#555753"
     d="m153,41.9,0,140"
     id="path99" /><path
     stroke-linecap="round"
     stroke="#555753"
     d="m166,50.8,0,121"
     id="path101" /><path
     stroke-linecap="round"
     stroke="#555753"
     d="m172,56.8,0,108"
     id="path103" /><path
     stroke-linecap="round"
     stroke="#555753"
     d="m159,45.3,0,134"
     id="path105" /><path
     stroke-linecap="round"
     stroke="#555753"
     d="m178,64.2,0,91.6"
     id="path107" /><path
     fill="#a8a8a8"
     stroke="url(#linearGradient3880)"
     d="m109,145h11.2c1.24-1.71,2.49-3.41,3.73-5.12-0.5-4.87,6.54-2.87,7.75-6.49,1.76-4.06,5.99,0.115,9.2-2.14,3.35,0.284,3.18,5.58,6.81,6.55,2.12,1.44,4.06,3.11,6.11,4.64-0.252,1.25,0.525,3.24-0.429,3.99-1.1,0.01-3.12,1.87-3.51,0.486-0.518-0.748-0.682-4.18-1.53-2.43-0.326,1.04-2.35,2.53-1.59,3.29,2.35,1.21,4.71,2.42,7.06,3.63-1.42-3.87,3.32-5.99,3.98-9.3-1.54-3.08-4.9-4.91-5.97-8.31-4.55-0.968-4.42-8.63,0.114-8.59,2.96,1,3.21-7.73-0.617-5.78-2.18,0.301-0.905-2.53-1.24-3.86,1.11-0.283,3.37,0.58,3.73-0.453-0.111-2.01,0.219-4.2-0.158-6.11-1.14-1.32-2.7-2.47-3.58-3.9v-4.89c-1.31,0.198-1.74,4.26-2.92,1.92-1.04,2.08-1.49,5.19-4.51,4.14-5.42,1.57-9.61,5.66-14.4,8.4-1.9,0.679-7.36-0.392-4.23,3,2.82,1.61,4.09,7.01,0.869,8.79-3.62,1.7-7-1.37-10.6-1.39-5.18,0.23-5.49,6.38-7.55,9.9-0.486,2.33-4.93,7.23-0.253,6.2,2.19-0.616,1.61,2.58,2.49,3.84z"
     id="path109" /><path
     fill="#a8a8a8"
     stroke="url(#linearGradient3882)"
     d="m126,95.5c1.35,0.321,3.05,1.1,2.41,2.83-0.213,1.94-1.96,2.97-3.16,4.26-1.26,1.07-0.387,3.02-1.74,4-1.01,0.443-2.74,2.1-0.828,2.58,2.91,0.0824,5.74-0.726,8.6-1.13,1.11-0.997,1.37-2.57,2.12-3.81-0.424-1.27-1.06-2.6-1.18-4.01-0.349-1.4-0.0142-3.04-0.556-4.32-1.13-1.24-2.06-3.16-1.18-4.77,0.54-1.34-0.585-2.58-1.68-3.13-1.79-0.526-1.85,1.76-2.55,2.8-0.875,1.18-0.969,2.46-0.462,3.8,0.0648,0.3,0.13,0.6,0.194,0.9z"
     id="path111" /><path
     fill="#a8a8a8"
     stroke="url(#linearGradient4905)"
     d="m122,94.2c0.83,1.28,1.66,2.56,2.49,3.84-1.75,2.08-2.92,5.82-6.16,5.71-2.1,0.514-4.87,0.0415-3.06-2.59,2.35-1.29,1.87-4.85,4.46-5.8,0.765-0.369,1.51-0.774,2.27-1.16z"
     id="path113" /><path
     fill="#a8a8a8"
     stroke="url(#linearGradient3884)"
     d="m152,99.9c2.64,2.98,5.59-1.53,5.29-4.35-0.0944-2.28,1-3.88,1.8-5.74-2.1-3.55-1.76-7.54,0.513-11.1,3.08-3.36,3.91-8.67,1.25-12.5-3.21-1.34-6.12,4.39-6.26,7.51-1.39,2.95-2.28,6.37-3.59,9.05,1.1,4.19-2.83,8.54-0.621,12.2,1.71,1.38,1.5,3.21,1.62,4.94z"
     id="path115" /><path
     fill="#a8a8a8"
     stroke="url(#linearGradient3136)"
     d="m161,66.6c0.987,2.14,2.37,4.57,1.16,6.92-0.464,1.96,1.2,4.05-0.541,5.68-1.55,1.97-0.869,4.59-0.487,6.83,0.404,2.64,3.57,3.55,5.6,2.07,2.59-1.48,4.4-4.08,5.42-6.84-0.0721-2.03-2.12-3.29-2.36-5.31-1.17-1.9-1.4-4.05-1.44-6.22-0.524-1.93-1.6-3.61-2.14-5.53-1.38-1.97-3.38,0.455-4.33,1.64-0.267,0.28-0.553,0.545-0.874,0.761z"
     id="path117" /></g></svg>