<?xml version="1.0"?>
<?metis version="3.0"?>
<?metisxml version="1.0"?>
<!DOCTYPE svg  PUBLIC "-//W3C//DTD SVG August 1999//EN"
 "http://www.w3.org/Graphics/SVG/svg-19990812.dtd">

<svg width="200" height="200">
 <title>Symbol library: veap_hw_platform.svg</title>
 <defs>
  <symbol id="oid0" xml:space="preserve" class="METIS_SYMBOL">
   <title>Hw platform</title>
    <g>
      <polygon points="0 256 256 256 256 0 
       0 0 0 256 "
       style=" stroke:#000000; stroke-width:1; fill:#ff7122; fill-opacity:100%" class="TAG:polygon"></polygon>
      <g>
	<desc>METIS_TEXT_GROUP</desc>
	<text  x="7.75758" y="207.202"
	 style=" stroke:#000000; stroke-width:1; font-family:sans-serif; font-weight:bold; font-size:16;" class="TAG:text"
>text</text>
	<rect x="7.75758" y="191.402" width="227.879" height="54.071"
	 style=" stroke:#000000; stroke-width:1; fill:#000000; fill-opacity:0%"></rect>
      </g>
      <polygon points="14.5455 183.746 230.788 183.746 230.788 6.69907 
       14.5455 6.69907 14.5455 183.746 "
       style=" stroke:#000000; stroke-width:1; fill:#ff7122; fill-opacity:100%" class="TAG:polygon"></polygon>
      <polygon points="145.455 153.361 207.515 153.361 207.515 44.9794 
       145.455 44.9794 145.455 153.361 "
       style=" stroke:#000000; stroke-width:1; fill:#ffffff; fill-opacity:100%" class="TAG:polygon"></polygon>
      <polygon points="149.105 149.402 202.952 149.402 202.952 48.938 
       149.105 48.938 149.105 149.402 "
       style=" stroke:#000000; stroke-width:1; fill:#ffffff; fill-opacity:100%" class="TAG:polygon"></polygon>
      <polygon points="152.756 144.802 197.932 144.802 197.932 52.6826 
       152.756 52.6826 152.756 144.802 "
       style=" stroke:#000000; stroke-width:1; fill:#ffffff; fill-opacity:100%" class="TAG:polygon"></polygon>
      <polygon points="20.3636 179.918 223.03 179.918 223.03 11.7234 
       20.3636 11.7234 20.3636 179.918 "
       style=" stroke:#000000; stroke-width:1; fill:#ff7122; fill-opacity:100%" class="TAG:polygon"></polygon>
      <polygon points="155.95 140.95 193.825 140.95 193.825 56.1064 
       155.95 56.1064 155.95 140.95 "
       style=" stroke:#000000; stroke-width:1; fill:#ff7122; fill-opacity:100%" class="TAG:polygon"></polygon>
      <polygon points="159.144 136.67 191.544 136.67 191.544 58.3531 
       159.144 58.3531 159.144 136.67 "
       style=" stroke:#000000; stroke-width:1; fill:#ff7122; fill-opacity:100%" class="TAG:polygon"></polygon>
      <polygon points="161.426 134.958 188.349 134.958 188.349 61.6701 
       161.426 61.6701 161.426 134.958 "
       style=" stroke:#000000; stroke-width:1; fill:#ff7122; fill-opacity:100%" class="TAG:polygon"></polygon>
      <polygon points="163.708 131.535 185.155 131.535 185.155 63.382 
       163.708 63.382 163.708 131.535 "
       style=" stroke:#000000; stroke-width:1; fill:#ff7122; fill-opacity:100%" class="TAG:polygon"></polygon>
      <ellipse  cx="122.667" cy="25.9589" rx="94.5455" ry="7.7757"
       style=" stroke:#000000; stroke-width:1; fill:#ff7122; fill-opacity:100%" class="TAG:polygon"></ellipse>
      <polygon points="28.1212 172.501 124.121 172.501 124.121 39.2374 
       28.1212 39.2374 28.1212 172.501 "
       style=" stroke:#000000; stroke-width:1; fill:#ff7122; fill-opacity:100%" class="TAG:polygon"></polygon>
    </g>
  </symbol>
 </defs>
</svg>
