<?xml version="1.0"?>
<?metis version="3.0.1"?>
<?metisxml version="1.0"?>
<!DOCTYPE svg  PUBLIC "-//W3C//DTD SVG August 1999//EN"
 "http://www.w3.org/Graphics/SVG/svg-19990812.dtd">

<svg width="200" height="200">
 <title>Symbol library: veap_business_req.svg</title>
 <defs>
  <symbol id="oid1" xml:space="preserve" class="METIS_SYMBOL">
   <title>Business req</title>
    <g>
      <polygon points="0 256 320 256 320 128 
       240 128 240 0 0 0 0 256 0 256 "
       style=" stroke:#000000; stroke-width:1; fill:#ff0000; fill-opacity:100%"       class="TAG:polygon"></polygon>
      <polygon points="250 0 250 0 250 117.333 
       320 117.333 320 0 250 0 250 0 "
       style=" stroke:#000000; stroke-width:1; fill:#ff0000; fill-opacity:100%"       class="TAG:polygon"></polygon>
      <polyline points="266.25 32 306.25 32"
       style=" stroke:#000000; stroke-width:1;"       class="TAG:polyline"></polyline>
      <polyline points="266.25 53.3333 266.25 53.3333 306.25 53.3333"
       style=" stroke:#000000; stroke-width:1;"       class="TAG:polyline"></polyline>
      <polyline points="266.25 76 266.25 76 306.25 76"
       style=" stroke:#000000; stroke-width:1;"       class="TAG:polyline"></polyline>
      <polyline points="266.25 17.3333 266.25 17.3333 266.25 4 
       271.25 4 273.75 6.66667 273.75 9.33333 271.25 12 
       266.25 12"
       style=" stroke:#000000; stroke-width:1;"       class="TAG:polyline"></polyline>
      <polyline points="271.25 12 271.25 12 273.75 17.3333"
       style=" stroke:#000000; stroke-width:1;"       class="TAG:polyline"></polyline>
      <polyline points="287.5 4 287.5 4 280 4 
       280 17.3333 287.5 17.3333"
       style=" stroke:#000000; stroke-width:1;"       class="TAG:polyline"></polyline>
      <polyline points="280 10.6667 280 10.6667 285 10.6667"
       style=" stroke:#000000; stroke-width:1;"       class="TAG:polyline"></polyline>
      <polyline points="300 4 300 4 295 4 
       292.5 6.66667 292.5 14.6667 295 17.3333 300 17.3333 
       302.5 14.6667 302.5 6.66667 300 4"
       style=" stroke:#000000; stroke-width:1;"       class="TAG:polyline"></polyline>
      <polyline points="300 14.6667 300 14.6667 302.5 17.3333"
       style=" stroke:#000000; stroke-width:1;"       class="TAG:polyline"></polyline>
      <polyline points="255 29.3333 257.5 26.6667 257.5 35.6667"
       style=" stroke:#000000; stroke-width:1;"       class="TAG:polyline"></polyline>
      <polyline points="255 36 260 36"
       style=" stroke:#000000; stroke-width:1;"       class="TAG:polyline"></polyline>
      <polyline points="254.688 50 254.688 49.3333 254.688 48.6667 
       255 48 255.625 47.3333 256.875 47 258.125 47 
       258.75 47 260 47.6667 260.625 48.6667 260.938 50 
       260.938 50.6667 260.938 51.3333 260.938 52.3333 260.625 53.3333 
       260.313 54 259.688 54.6667 258.75 55 257.813 55.3333 
       256.875 55.6667 255.938 56 255 56.3333 255 57.3333 
       260.938 57.3333"
       style=" stroke:#000000; stroke-width:1;"       class="TAG:polyline"></polyline>
      <polyline points="255 70.3333 255 70.3333 260.625 70.3333 
       257.5 74.6667 258.75 74.6667 259.688 75 260.625 75.6667 
       261.25 76.6667 261.563 77.3333 261.563 78.3333 261.25 79.3333 
       260.625 80.3333 259.688 81 258.75 81.3333 258.125 81.3333 
       257.188 81.3333 256.563 81 255.625 80.3333 255 79.6667"
       style=" stroke:#000000; stroke-width:1;"       class="TAG:polyline"></polyline>
      <polyline points="266.25 98.6667 266.25 98.6667 306.25 98.6667"
       style=" stroke:#000000; stroke-width:1;"       class="TAG:polyline"></polyline>
      <polyline points="260 103 260 102.667 260 90.6667 
       254.375 99.6667 262.188 99.6667"
       style=" stroke:#000000; stroke-width:1;"       class="TAG:polyline"></polyline>
      <g>
	<desc>METIS_TEXT_GROUP</desc>
	<text  x="10" y="26.4667"
	 style=" stroke:#000000; stroke-width:1; font-family:sans-serif; font-weight:bold; font-size:16;"
	 class="TAG:text">text</text>
	<rect x="10" y="10.6667" width="220" height="234.667"
	 style=" stroke:#000000; stroke-width:1; fill:#000000; fill-opacity:0%"></rect>
      </g>
    </g>
  </symbol>
 </defs>
</svg>
