<?xml version="1.0"?>
<?metis version="3.0"?>
<?metisxml version="1.0"?>
<!DOCTYPE svg  PUBLIC "-//W3C//DTD SVG August 1999//EN"
 "http://www.w3.org/Graphics/SVG/svg-19990812.dtd">

<svg width="200" height="200">
 <title>Symbol library: veap_bus_activity.svg</title>
 <defs>
  <symbol id="oid0" xml:space="preserve" class="METIS_SYMBOL">
   <title>Bus activity</title>
    <g>
      <polygon points="0 0 0 0 508.235 0 
       576 96 508.235 192 0 192 50.8235 96 0 0 "
       style=" stroke:#000000; stroke-width:1; fill:#ff0080; fill-opacity:100%" class="TAG:polygon"></polygon>
      <g>
	<desc>METIS_TEXT_GROUP</desc>
	<text  x="59.2941" y="23.8"
	 style=" stroke:#000000; stroke-width:1; font-family:sans-serif; font-weight:bold; font-size:16;" class="TAG:text"
>text</text>
	<rect x="59.2941" y="8" width="440.471" height="176"
	 style=" stroke:#000000; stroke-width:1; fill:#000000; fill-opacity:0%"></rect>
      </g>
    </g>
  </symbol>
  <symbol id="oid1" xml:space="preserve" class="METIS_SYMBOL">
   <title>Bus_Activity_Closed</title>
    <g>
      <polygon points="0 0 0 0 508.235 0 
       576 96 508.235 192 0 192 50.8235 96 0 0 "
       style=" stroke:#000000; stroke-width:1; fill:#ff0080; fill-opacity:100%"></polygon>
      <g>
	<desc>METIS_TEXT_GROUP</desc>
	<text  x="59.2941" y="23.8"
	 style=" stroke:#000000; stroke-width:1; font-family:sans-serif; font-weight:bold; font-size:16;" class="TAG:text"
>text</text>
	<rect x="59.2941" y="8" width="440.471" height="176"
	 style=" stroke:#000000; stroke-width:1; fill:#000000; fill-opacity:0%"></rect>
      </g>
    </g>
    <polygon points="9.5608 175.2 519.561 175.2 508.561 191.601 
     1.5608 191.601 9.5608 175.2 "
     style=" stroke:#696969; stroke-width:1; fill:#696969; fill-opacity:100%"></polygon>
    <polygon points="0.3623 1.1029 509.162 1.1029 521.162 17.9029 
     9.1623 17.9029 0.3623 1.1029 "
     style=" stroke:#696969; stroke-width:1; fill:#696969; fill-opacity:100%"></polygon>
  </symbol>
 </defs>
</svg>
