<?xml version="1.0"?>
<?metis version="3.0"?>
<?metisxml version="1.0"?>
<!DOCTYPE svg  PUBLIC "-//W3C//DTD SVG August 1999//EN"
 "http://www.w3.org/Graphics/SVG/svg-19990812.dtd">

<svg width="200" height="200">
 <title>Symbol library: veap_sw_service.svg</title>
 <defs>
  <symbol id="oid0" xml:space="preserve" class="METIS_SYMBOL">
   <title>Sw service</title>
    <g>
      <polygon points="125.73 112 125.73 112 103.943 112 
       94.8652 117.818 142.071 178.909 151.149 173.091 216.511 68.3636 
       194.723 68.3636 185.645 74.1818 151.149 141.091 125.73 112 "
       style=" stroke:#000000; stroke-width:1; fill:#ff0000; fill-opacity:100%" class="TAG:polygon"></polygon>
      <polygon points="116.652 117.818 116.652 117.818 94.8652 117.818 
       142.071 178.909 207.433 74.1818 185.645 74.1818 142.071 146.909 116.652 117.818 "
       style=" stroke:#000000; stroke-width:1; fill:#ff0000; fill-opacity:100%" class="TAG:polygon"></polygon>
      <polygon points="62.1844 68.3636 62.1844 68.3636 40.3972 68.3636 
       31.3191 74.1818 96.6809 178.909 105.759 173.091 149.333 112 
       127.546 112 118.468 117.818 105.759 141.091 62.1844 68.3636 "
       style=" stroke:#000000; stroke-width:1; fill:#ff0000; fill-opacity:100%" class="TAG:polygon"></polygon>
      <polygon points="107.574 78.5455 85.7872 78.5455 78.5248 82.9091 
       93.0496 96 111.206 101.818 125.73 104.727 136.624 104.727 
       147.518 101.818 158.411 101.818 167.892 95.8335 170.986 90.5142 
       172.936 81.4545 172.533 73.2262 167.892 65.2468 158.411 56.7273 
       149.333 52.3636 140.255 49.4545 129.362 46.5455 118.468 43.6364 
       109.39 39.2727 107.574 32 111.206 23.2727 122.099 17.4545 
       132.993 17.4545 145.702 18.9091 152.965 23.2727 154.78 29.0909 
       165.674 33.4545 172.936 29.0909 172.936 23.2727 169.305 14.5455 
       160.227 7.27273 151.149 2.90909 136.624 0 125.73 0 
       111.206 2.90909 103.943 7.27273 96.6809 14.5455 89.4184 23.2727 
       87.6028 32 89.4184 40.7273 93.0496 49.4545 99.9086 55.9375 
       108.987 59.9273 120.284 62.5455 132.993 65.4545 145.702 69.8182 
       149.333 72.7273 152.965 78.5455 151.149 84.3636 147.518 87.2727 
       140.255 90.1818 129.362 90.1818 118.468 87.2727 109.39 82.9091 107.574 78.5455 "
       style=" stroke:#000000; stroke-width:1; fill:#ff0000; fill-opacity:100%" class="TAG:polygon"></polygon>
      <polygon points="100.312 82.9091 78.5248 82.9091 78.5248 88.7273 
       85.7872 100.364 103.943 106.182 118.468 109.091 129.362 109.091 
       140.255 106.182 149.804 104.187 160.63 100.197 163.724 94.8778 
       165.674 85.8182 165.271 77.5898 160.63 69.6104 151.149 61.0909 
       142.071 56.7273 132.993 53.8182 122.099 50.9091 111.206 48 
       102.128 43.6364 100.312 36.3636 103.943 27.6364 114.837 21.8182 
       125.73 21.8182 138.44 23.2727 145.702 27.6364 147.518 33.4545 
       165.674 33.4545 165.674 27.6364 162.043 18.9091 152.965 11.6364 
       143.887 7.27273 129.362 4.36364 118.468 4.36364 103.943 7.27273 
       96.6809 13.0909 89.4184 18.9091 82.156 27.6364 80.3404 36.3636 
       82.156 45.0909 85.7872 53.8182 92.6462 60.3011 101.724 64.2909 
       113.021 66.9091 125.73 69.8182 138.44 74.1818 142.071 77.0909 
       145.702 82.9091 143.887 88.7273 140.255 91.6364 132.993 94.5455 
       122.099 94.5455 111.206 91.6364 102.128 87.2727 100.312 82.9091 "
       style=" stroke:#000000; stroke-width:1; fill:#ff0000; fill-opacity:100%" class="TAG:polygon"></polygon>
      <polyline points="100.312 82.9091 100.312 82.9091 107.574 78.5455"
       style=" stroke:#000000; stroke-width:1;" class="TAG:polyline"></polyline>
      <polygon points="53.1064 74.1818 53.1064 74.1818 31.3191 74.1818 
       96.6809 178.909 140.255 117.818 118.468 117.818 96.6809 146.909 53.1064 74.1818 "
       style=" stroke:#000000; stroke-width:1; fill:#ff0000; fill-opacity:100%" class="TAG:polygon"></polygon>
      <polyline points="53.1064 74.1818 53.1064 74.1818 62.1844 68.3636"
       style=" stroke:#000000; stroke-width:1;" class="TAG:polyline"></polyline>
      <polyline points="116.652 117.818 116.652 117.818 125.73 112"
       style=" stroke:#000000; stroke-width:1;" class="TAG:polyline"></polyline>
      <polyline points="140.255 117.818 140.255 117.818 149.333 112"
       style=" stroke:#000000; stroke-width:1;" class="TAG:polyline"></polyline>
      <polyline points="207.433 74.1818 207.433 74.1818 216.511 68.3636"
       style=" stroke:#000000; stroke-width:1;" class="TAG:polyline"></polyline>
      <g>
	<desc>METIS_TEXT_GROUP</desc>
	<text  x="42.6667" y="227.436"
	 style=" stroke:#000000; stroke-width:1; font-family:sans-serif; font-weight:bold; font-size:16;" class="TAG:text_unknown_"
></text>
	<rect x="42.6667" y="211.636" width="0" height="0"
	 style=" stroke:#000000; stroke-width:1; fill:#000000; fill-opacity:0%"></rect>
      </g>
      <g>
	<desc>METIS_TEXT_GROUP</desc>
	<text  x="0" y="204.891"
	 style=" stroke:#000000; stroke-width:1; font-family:sans-serif; font-weight:bold; font-size:16;" class="TAG:text"
>text</text>
	<rect x="0" y="189.091" width="256" height="66.9091"
	 style=" stroke:#000000; stroke-width:1; fill:#000000; fill-opacity:0%"></rect>
      </g>
    </g>
  </symbol>
 </defs>
</svg>
