<?xml version="1.0" encoding="UTF-8" standalone="no"?>
<svg xmlns:rdf="http://www.w3.org/1999/02/22-rdf-syntax-ns#" xmlns="http://www.w3.org/2000/svg" enable-background="new 0 0 219 219" height="219px" viewBox="0 0 219 219" width="219px" version="1.1" y="0px" x="0px" xmlns:cc="http://creativecommons.org/ns#" xmlns:dc="http://purl.org/dc/elements/1.1/">
 <defs>
  <filter id="filter4791" color-interpolation-filters="sRGB">
   <feGaussianBlur stdDeviation="1.3862323"/>
  </filter>
  <filter id="filter4210" color-interpolation-filters="sRGB">
   <feGaussianBlur stdDeviation="1.1837012"/>
  </filter>
  <filter id="filter4206" color-interpolation-filters="sRGB">
   <feGaussianBlur stdDeviation="1.1837012"/>
  </filter>
  <filter id="filter4202" color-interpolation-filters="sRGB">
   <feGaussianBlur stdDeviation="1.1837012"/>
  </filter>
  <filter id="filter4198" color-interpolation-filters="sRGB">
   <feGaussianBlur stdDeviation="1.1837012"/>
  </filter>
  <filter id="filter4194" height="1.3885556" width="1.0650586" y="-0.19427779" x="-0.032529317" color-interpolation-filters="sRGB">
   <feGaussianBlur stdDeviation="1.1837012"/>
  </filter>
  <filter id="filter4190" height="1.0321605" width="1.3244359" y="-0.016080257" x="-0.16221797" color-interpolation-filters="sRGB">
   <feGaussianBlur stdDeviation="1.1837012"/>
  </filter>
  <filter id="filter4186" height="1.4470669" width="1.4908195" y="-0.22353344" x="-0.24540974" color-interpolation-filters="sRGB">
   <feGaussianBlur stdDeviation="1.1837012"/>
  </filter>
  <filter id="filter4182" height="1.4437478" width="1.4778247" y="-0.22187383" x="-0.23891234" color-interpolation-filters="sRGB">
   <feGaussianBlur stdDeviation="1.1837012"/>
  </filter>
  <filter id="filter4178" height="1.7028396" width="69.448563" y="-0.35141978" x="-34.224281" color-interpolation-filters="sRGB">
   <feGaussianBlur stdDeviation="1.1837012"/>
  </filter>
 </defs>
 <metadata>
  <rdf:RDF>
   <cc:Work rdf:about="">
    <dc:format>image/svg+xml</dc:format>
    <dc:type rdf:resource="http://purl.org/dc/dcmitype/StillImage"/>
    <dc:title/>
   </cc:Work>
  </rdf:RDF>
 </metadata>
 <path opacity="0.5" d="m230,80.9-9.94,8.09s0.929,1.48,1.28,2.28c0.586,1.33,0.792,2.24,1.12,3.88,0.471,2.3,0.286,4.8,0.312,7.12,0.0436,3.88-0.22,7.81-0.219,11.7,0.004,5.3,0.0486,10.6,0.0625,15.9,0.0174,6.09-0.0891,12.2-0.0625,18.3,0.0307,6.36,0.136,12.6,0.156,19,0.0208,6.21-0.0785,12.4-0.0625,18.6,0.0174,5.73-0.0174,11.7,0,17.4,0.001,0.305,0.0625,0.445,0.0625,0.75l-0.281,4.78c0.001,0.355-0.0003,0.894,0,1.31h-76.1v23.3c0,7.17,5.84,13,13,13h50.4c2.67,0,5.07-0.824,7.06-2.22,0,0,0.0548-0.025,0.0625-0.0312,0.0545-0.0386,0.102-0.0855,0.156-0.125l8.84-6.16c7.7-5.85,7.09-11.6,7.09-11.6l-0.2-139s-0.473-3.54-2.78-5.84zm-45.4,139c4.42,0,8,3.6,8,8.03s-3.58,8.03-8,8.03c-4.43,0-8-3.6-8-8.03s3.57-8.03,8-8.03z" transform="matrix(0.60091956,0,0,0.56212953,-3.4643416,79.025803)" filter="url(#filter4791)" stroke-miterlimit="4" stroke-width="0" fill="#000"/>
 <path opacity="0.89655175" d="m97.4,200s11.8-13.4,15.7-21.2c5.74-11.3,11.1-36.2,11.1-36.2l0.692,47.7z" stroke-miterlimit="4" stroke-width="0" fill="#613e61"/>
 <path d="m81.3,191,0,1.62,0,1.56,0,8.51c0,4.03,3.97,7.31,8.87,7.31h34.4c4.89,0,8.86-3.27,8.86-7.31v-14.5h-52.7v1.4z" stroke="#494848" stroke-width="0.93999255" fill="#707070"/>
 <path d="m133,126c0-4.17-3.5-7.55-7.82-7.55h-29.7c-4.32,0-7.82,3.38-7.82,7.55v62.5h46v-62.5z" stroke="#494848" stroke-width="0.93999255" fill="#8e8e8e"/>
 <path d="m81.3,207c0,4.03,3.5,7.31,7.82,7.31h30.3c4.32,0,7.46-3.35,7.82-7.31v-13h-45.7v13.1zm23-7.34c2.65,0,4.81,2.02,4.81,4.51s-2.15,4.5-4.81,4.5-4.82-2.02-4.82-4.5c0-2.49,2.16-4.51,4.82-4.51z" stroke="#494848" stroke-width="0.93999255" fill="#b7b6b6"/>
 <path d="m127,130c0-4.04-3.5-7.31-7.82-7.31h-29.9c-4.32,0-7.82,3.27-7.82,7.31v60.6h46v-60.7zm-6.31,5.31c0,0.77-0.683,1.4-1.5,1.4h-30.9c-0.827,0-1.5-0.625-1.5-1.4v-4.69c0-0.77,0.669-1.4,1.5-1.4h30.3c0.821,0,1.5,0.632,1.5,1.4v4.69z" stroke="#494848" stroke-width="0.93999255" fill="#b7b6b6"/>
 <path d="m83.1,126c0.0034-0.002,6.19-4.89,6.19-4.89s2.91-2.55,7.54-2.38c0.841,0,1.68,0,2.52-0.00046,2.05-0.003,4.1,0,6.16-0.00047,2.59-0.00044,5.17-0.003,7.76,0,2.44,0.003,4.88-0.008,7.32,0.002,1.7,0.007,3.4-0.0631,5.09,0.0228,1.25,0.0637,2.17,0.493,3.18,0.936,1.05,0.46,2.7,2.07,2.7,2.07l-5.83,4.54s-2.13-2.9-5.5-2.81c-0.898-0.006-1.8-0.0126-2.69-0.015-2.2-0.006-4.4-0.0195-6.59-0.0382-2.76-0.0236-5.52-0.0404-8.28-0.0432-2.55-0.003-5.11-0.006-7.66-0.05-1.73-0.0305-3.44-0.0695-5.26,0.0345-1.08,0.0618-2.23-0.0146-3.22,0.372-1.2,0.461-2.42,1.46-3.42,2.25z" stroke="#494848" stroke-width="0.93999255" fill="#b2b2b2"/>
 <path d="m127,193c0.005,1.3-0.005,3.5,0,4.8,0.008,1.65-0.0748,3.15-0.0696,4.8,0.002,0.697,0.0346,1.61,0.0346,2.3,0,5.55-3.33,7.97-3.33,7.97l5.46-3.55c4.62-3.29,4.25-6.49,4.25-6.49l-0.142-78.4s-0.277-1.99-1.66-3.29l-5.96,4.54s0.551,0.845,0.762,1.3c0.352,0.75,0.471,1.24,0.671,2.16,0.283,1.29,0.169,2.71,0.185,4.02,0.0262,2.18-0.129,4.39-0.128,6.56,0.002,2.98,0.0262,5.94,0.0346,8.92,0.0105,3.42-0.0505,6.86-0.0346,10.3,0.0185,3.57,0.0923,7.1,0.105,10.7,0.0125,3.49-0.0447,6.96-0.0351,10.4,0.0104,3.22-0.0105,6.57,0,9.8,0.00049,0.171,0.0351,0.25,0.0351,0.422" stroke="#494848" stroke-width="0.93999255" fill="#6b6a6a"/>
 <line stroke-width="0.94" y2="184" y1="191" stroke="#494848" x2="134" x1="127" fill="#353434"/>
 <line stroke-width="0.94" y2="188" y1="194" stroke="#494848" x2="134" x1="127" fill="#353434"/>
 <line stroke-width="0.94" y2="194" y1="190" stroke="#494848" x2="127" x1="127" fill="#8e8e8e"/>
 <path fill="#999" d="m88.5,190s38.3,0.0328,38.3,0.0328l-0.123-44.3c-4.08,40.8-38.2,44.3-38.2,44.3z"/>
 <path fill="#999" d="m93.8,214,25.1,0c5.52,0.315,7.87-3.59,7.86-7.3l-0.0398-10.3c-2.79,18.2-32.9,17.6-32.9,17.6z"/>
 <circle d="m 61.022999,95.012001 c 0,4.775054 -3.870946,8.645999 -8.646,8.645999 -4.775054,0 -8.646,-3.870945 -8.646,-8.645999 0,-4.775054 3.870946,-8.646 8.646,-8.646 4.775054,0 8.646,3.870946 8.646,8.646 z" cx="52.4" cy="95" transform="matrix(0.48594204,0,0,0.45457394,66.461841,103.40065)" r="8.65" fill="#e50a39"/>
 <circle d="m 100.976,97.459 c 0,2.306341 -1.869656,4.176 -4.175997,4.176 -2.306341,0 -4.176,-1.869659 -4.176,-4.176 0,-2.306342 1.869659,-4.176 4.176,-4.176 2.306341,0 4.175997,1.869658 4.175997,4.176 z" cx="96.8" cy="97.5" transform="matrix(0.48594204,0,0,0.45457394,66.461841,103.40065)" r="4.18" fill="#e50a39"/>
 <circle d="m 89.186003,97.537003 c 0,2.306893 -1.870107,4.176997 -4.177,4.176997 -2.306894,0 -4.177,-1.870104 -4.177,-4.176997 0,-2.306894 1.870106,-4.177 4.177,-4.177 2.306893,0 4.177,1.870106 4.177,4.177 z" cx="85" cy="97.5" transform="matrix(0.48594204,0,0,0.45457394,66.461841,103.40065)" r="4.18" fill="#ffb509"/>
 <circle d="m 77.311003,97.537003 c 0,2.306893 -1.870107,4.176997 -4.177,4.176997 -2.306894,0 -4.177,-1.870104 -4.177,-4.176997 0,-2.306894 1.870106,-4.177 4.177,-4.177 2.306893,0 4.177,1.870106 4.177,4.177 z" cx="73.1" cy="97.5" transform="matrix(0.48594204,0,0,0.45457394,66.461841,103.40065)" r="4.18" fill="#96c93c"/>
 <g transform="matrix(0.57129477,0,0,0.57129477,-57.677378,-9.05973)" stroke="#494848">
  <path opacity="0.66810345" d="m-130,39.7c0-8.03-6.31-14.5-14.1-14.5h-54.6c-7.78,0-14.1,6.51-14.1,14.5v120h82.8v-120z" transform="matrix(1.0505258,0,0,1.0505258,350.07389,40.568564)" filter="url(#filter4210)" stroke-width="2" fill="#FFF"/>
  <path opacity="0.66810345" d="m-141,47.9c0-7.78-6.31-14.1-14.1-14.1h-54.6c-7.78,0-14.1,6.3-14.1,14.1v117h82.8v-117zm-11.4,10.2c0,1.48-1.23,2.69-2.71,2.69h-54.6c-1.49,0-2.7-1.2-2.7-2.69v-9.04c0-1.48,1.21-2.7,2.7-2.7h54.6c1.48,0,2.71,1.22,2.71,2.7v9.04z" transform="matrix(1.0505258,0,0,1.0505258,350.07389,40.568564)" filter="url(#filter4206)" stroke-width="2" fill="#FFF"/>
  <path opacity="0.66810345" d="m-224,165v22.5c0,7.77,7.16,14.1,16,14.1h61.9c8.82,0,16-6.31,16-14.1v-25.2h-93.9v2.7z" transform="matrix(1.0505258,0,0,1.0505258,350.07389,40.568564)" filter="url(#filter4202)" stroke-width="2" fill="#FFF"/>
  <path opacity="0.66810345" d="m-224,196c0,7.77,6.32,14.1,14.1,14.1h54.6c7.78,0,13.4-6.46,14.1-14.1v-25.2h-82.8v25.2zm41.4-14.1c4.78,0,8.67,3.9,8.67,8.69,0,4.8-3.88,8.68-8.67,8.68-4.8,0-8.69-3.88-8.69-8.68s3.89-8.69,8.69-8.69z" transform="matrix(1.0505258,0,0,1.0505258,350.07389,40.568564)" filter="url(#filter4198)" stroke-width="2" fill="#FFF"/>
  <path opacity="0.66810345" d="m-221,38.9c0.004-0.002,11.2-9.42,11.2-9.42s5.25-4.92,13.6-4.58c1.52,0,3.03,0,4.55-0.001,3.7-0.004,7.4,0,11.1-0.001,4.66-0.001,9.32-0.005,14,0,4.4,0.004,8.79-0.015,13.2,0.003,3.06,0.012,6.12-0.122,9.18,0.044,2.26,0.123,3.92,0.95,5.73,1.8,1.89,0.885,4.86,3.99,4.86,3.99l-10.5,8.75s-3.83-5.58-9.92-5.42c-1.62-0.01-3.24-0.024-4.86-0.028-3.96-0.011-7.92-0.038-11.9-0.074-4.98-0.046-9.95-0.078-14.9-0.083-4.6-0.005-9.2-0.01-13.8-0.096-3.11-0.059-6.2-0.134-9.48,0.066-1.94,0.119-4.01-0.028-5.81,0.717-2.15,0.89-4.36,2.82-6.16,4.33z" transform="matrix(1.0505258,0,0,1.0505258,350.07389,40.568564)" filter="url(#filter4194)" stroke-width="2" fill="#FFF"/>
  <path opacity="0.66810345" d="m-141,170c0.01,2.51-0.01,5.37,0,7.88,0.013,3.18-0.135,6.07-0.125,9.25,0.004,1.34,0.062,3.1,0.062,4.44,0,10.7-6,15.4-6,15.4l9.83-6.84c8.33-6.33,7.67-12.5,7.67-12.5l-0.25-151s-0.5-3.83-3-6.33l-10.8,8.75s0.992,1.63,1.38,2.5c0.635,1.44,0.847,2.39,1.21,4.17,0.509,2.49,0.305,5.23,0.333,7.75,0.047,4.2-0.231,8.45-0.229,12.6,0.004,5.74,0.047,11.4,0.062,17.2,0.019,6.6-0.092,13.2-0.062,19.8,0.032,6.89,0.165,13.7,0.188,20.6,0.023,6.72-0.081,13.4-0.062,20.1,0.018,6.2-0.021,11.1,0,17.3" transform="matrix(1.0505258,0,0,1.0505258,350.07389,40.568564)" filter="url(#filter4190)" stroke-width="2" fill="#FFF"/>
  <line opacity="0.668" x1="-141" fill="#353434" transform="matrix(1.0505258,0,0,1.0505258,350.07389,40.568564)" filter="url(#filter4186)" y1="162" x2="-129" y2="150" stroke-width="2.02"/>
  <line opacity="0.668" x1="-141" fill="#353434" transform="matrix(1.0505258,0,0,1.0505258,350.07389,40.568564)" filter="url(#filter4182)" y1="171" x2="-129" y2="158" stroke-width="2.08"/>
  <line opacity="0.668" x1="-141" fill="#8e8e8e" transform="matrix(1.0505258,0,0,1.0505258,350.07389,40.568564)" filter="url(#filter4178)" y1="162" x2="-141" y2="170" stroke-width="2"/>
 </g>
 <g transform="matrix(0.57129477,0,0,0.57129477,88.322622,-9.05973)" stroke="#494848">
  <path opacity="0.66810345" d="m-130,39.7c0-8.03-6.31-14.5-14.1-14.5h-54.6c-7.78,0-14.1,6.51-14.1,14.5v120h82.8v-120z" transform="matrix(1.0505258,0,0,1.0505258,350.07389,40.568564)" filter="url(#filter4210)" stroke-width="2" fill="#FFF"/>
  <path opacity="0.66810345" d="m-141,47.9c0-7.78-6.31-14.1-14.1-14.1h-54.6c-7.78,0-14.1,6.3-14.1,14.1v117h82.8v-117zm-11.4,10.2c0,1.48-1.23,2.69-2.71,2.69h-54.6c-1.49,0-2.7-1.2-2.7-2.69v-9.04c0-1.48,1.21-2.7,2.7-2.7h54.6c1.48,0,2.71,1.22,2.71,2.7v9.04z" transform="matrix(1.0505258,0,0,1.0505258,350.07389,40.568564)" filter="url(#filter4206)" stroke-width="2" fill="#FFF"/>
  <path opacity="0.66810345" d="m-224,165v22.5c0,7.77,7.16,14.1,16,14.1h61.9c8.82,0,16-6.31,16-14.1v-25.2h-93.9v2.7z" transform="matrix(1.0505258,0,0,1.0505258,350.07389,40.568564)" filter="url(#filter4202)" stroke-width="2" fill="#FFF"/>
  <path opacity="0.66810345" d="m-224,196c0,7.77,6.32,14.1,14.1,14.1h54.6c7.78,0,13.4-6.46,14.1-14.1v-25.2h-82.8v25.2zm41.4-14.1c4.78,0,8.67,3.9,8.67,8.69,0,4.8-3.88,8.68-8.67,8.68-4.8,0-8.69-3.88-8.69-8.68s3.89-8.69,8.69-8.69z" transform="matrix(1.0505258,0,0,1.0505258,350.07389,40.568564)" filter="url(#filter4198)" stroke-width="2" fill="#FFF"/>
  <path opacity="0.66810345" d="m-221,38.9c0.004-0.002,11.2-9.42,11.2-9.42s5.25-4.92,13.6-4.58c1.52,0,3.03,0,4.55-0.001,3.7-0.004,7.4,0,11.1-0.001,4.66-0.001,9.32-0.005,14,0,4.4,0.004,8.79-0.015,13.2,0.003,3.06,0.012,6.12-0.122,9.18,0.044,2.26,0.123,3.92,0.95,5.73,1.8,1.89,0.885,4.86,3.99,4.86,3.99l-10.5,8.75s-3.83-5.58-9.92-5.42c-1.62-0.01-3.24-0.024-4.86-0.028-3.96-0.011-7.92-0.038-11.9-0.074-4.98-0.046-9.95-0.078-14.9-0.083-4.6-0.005-9.2-0.01-13.8-0.096-3.11-0.059-6.2-0.134-9.48,0.066-1.94,0.119-4.01-0.028-5.81,0.717-2.15,0.89-4.36,2.82-6.16,4.33z" transform="matrix(1.0505258,0,0,1.0505258,350.07389,40.568564)" filter="url(#filter4194)" stroke-width="2" fill="#FFF"/>
  <path opacity="0.66810345" d="m-141,170c0.01,2.51-0.01,5.37,0,7.88,0.013,3.18-0.135,6.07-0.125,9.25,0.004,1.34,0.062,3.1,0.062,4.44,0,10.7-6,15.4-6,15.4l9.83-6.84c8.33-6.33,7.67-12.5,7.67-12.5l-0.25-151s-0.5-3.83-3-6.33l-10.8,8.75s0.992,1.63,1.38,2.5c0.635,1.44,0.847,2.39,1.21,4.17,0.509,2.49,0.305,5.23,0.333,7.75,0.047,4.2-0.231,8.45-0.229,12.6,0.004,5.74,0.047,11.4,0.062,17.2,0.019,6.6-0.092,13.2-0.062,19.8,0.032,6.89,0.165,13.7,0.188,20.6,0.023,6.72-0.081,13.4-0.062,20.1,0.018,6.2-0.021,11.1,0,17.3" transform="matrix(1.0505258,0,0,1.0505258,350.07389,40.568564)" filter="url(#filter4190)" stroke-width="2" fill="#FFF"/>
  <line opacity="0.668" y2="150" fill="#353434" transform="matrix(1.0505258,0,0,1.0505258,350.07389,40.568564)" filter="url(#filter4186)" x2="-129" y1="162" x1="-141" stroke-width="2.02"/>
  <line opacity="0.668" y2="158" fill="#353434" transform="matrix(1.0505258,0,0,1.0505258,350.07389,40.568564)" filter="url(#filter4182)" x2="-129" y1="171" x1="-141" stroke-width="2.08"/>
  <line opacity="0.668" y2="170" fill="#8e8e8e" transform="matrix(1.0505258,0,0,1.0505258,350.07389,40.568564)" filter="url(#filter4178)" x2="-141" y1="162" x1="-141" stroke-width="2"/>
 </g>
 <g transform="matrix(0.57129477,0,0,0.57129477,15.596543,-34.93965)" stroke="#494848">
  <path opacity="0.66810345" d="m-130,39.7c0-8.03-6.31-14.5-14.1-14.5h-54.6c-7.78,0-14.1,6.51-14.1,14.5v120h82.8v-120z" transform="matrix(1.0505258,0,0,1.0505258,350.07389,40.568564)" filter="url(#filter4210)" stroke-width="2" fill="#FFF"/>
  <path opacity="0.66810345" d="m-141,47.9c0-7.78-6.31-14.1-14.1-14.1h-54.6c-7.78,0-14.1,6.3-14.1,14.1v117h82.8v-117zm-11.4,10.2c0,1.48-1.23,2.69-2.71,2.69h-54.6c-1.49,0-2.7-1.2-2.7-2.69v-9.04c0-1.48,1.21-2.7,2.7-2.7h54.6c1.48,0,2.71,1.22,2.71,2.7v9.04z" transform="matrix(1.0505258,0,0,1.0505258,350.07389,40.568564)" filter="url(#filter4206)" stroke-width="2" fill="#FFF"/>
  <path opacity="0.66810345" d="m-224,165v22.5c0,7.77,7.16,14.1,16,14.1h61.9c8.82,0,16-6.31,16-14.1v-25.2h-93.9v2.7z" transform="matrix(1.0505258,0,0,1.0505258,350.07389,40.568564)" filter="url(#filter4202)" stroke-width="2" fill="#FFF"/>
  <path opacity="0.66810345" d="m-224,196c0,7.77,6.32,14.1,14.1,14.1h54.6c7.78,0,13.4-6.46,14.1-14.1v-25.2h-82.8v25.2zm41.4-14.1c4.78,0,8.67,3.9,8.67,8.69,0,4.8-3.88,8.68-8.67,8.68-4.8,0-8.69-3.88-8.69-8.68s3.89-8.69,8.69-8.69z" transform="matrix(1.0505258,0,0,1.0505258,350.07389,40.568564)" filter="url(#filter4198)" stroke-width="2" fill="#FFF"/>
  <path opacity="0.66810345" d="m-221,38.9c0.004-0.002,11.2-9.42,11.2-9.42s5.25-4.92,13.6-4.58c1.52,0,3.03,0,4.55-0.001,3.7-0.004,7.4,0,11.1-0.001,4.66-0.001,9.32-0.005,14,0,4.4,0.004,8.79-0.015,13.2,0.003,3.06,0.012,6.12-0.122,9.18,0.044,2.26,0.123,3.92,0.95,5.73,1.8,1.89,0.885,4.86,3.99,4.86,3.99l-10.5,8.75s-3.83-5.58-9.92-5.42c-1.62-0.01-3.24-0.024-4.86-0.028-3.96-0.011-7.92-0.038-11.9-0.074-4.98-0.046-9.95-0.078-14.9-0.083-4.6-0.005-9.2-0.01-13.8-0.096-3.11-0.059-6.2-0.134-9.48,0.066-1.94,0.119-4.01-0.028-5.81,0.717-2.15,0.89-4.36,2.82-6.16,4.33z" transform="matrix(1.0505258,0,0,1.0505258,350.07389,40.568564)" filter="url(#filter4194)" stroke-width="2" fill="#FFF"/>
  <path opacity="0.66810345" d="m-141,170c0.01,2.51-0.01,5.37,0,7.88,0.013,3.18-0.135,6.07-0.125,9.25,0.004,1.34,0.062,3.1,0.062,4.44,0,10.7-6,15.4-6,15.4l9.83-6.84c8.33-6.33,7.67-12.5,7.67-12.5l-0.25-151s-0.5-3.83-3-6.33l-10.8,8.75s0.992,1.63,1.38,2.5c0.635,1.44,0.847,2.39,1.21,4.17,0.509,2.49,0.305,5.23,0.333,7.75,0.047,4.2-0.231,8.45-0.229,12.6,0.004,5.74,0.047,11.4,0.062,17.2,0.019,6.6-0.092,13.2-0.062,19.8,0.032,6.89,0.165,13.7,0.188,20.6,0.023,6.72-0.081,13.4-0.062,20.1,0.018,6.2-0.021,11.1,0,17.3" transform="matrix(1.0505258,0,0,1.0505258,350.07389,40.568564)" filter="url(#filter4190)" stroke-width="2" fill="#FFF"/>
  <line opacity="0.668" x1="-141" fill="#353434" transform="matrix(1.0505258,0,0,1.0505258,350.07389,40.568564)" filter="url(#filter4186)" y1="162" x2="-129" y2="150" stroke-width="2.02"/>
  <line opacity="0.668" x1="-141" fill="#353434" transform="matrix(1.0505258,0,0,1.0505258,350.07389,40.568564)" filter="url(#filter4182)" y1="171" x2="-129" y2="158" stroke-width="2.08"/>
  <line opacity="0.668" x1="-141" fill="#8e8e8e" transform="matrix(1.0505258,0,0,1.0505258,350.07389,40.568564)" filter="url(#filter4178)" y1="162" x2="-141" y2="170" stroke-width="2"/>
 </g>
</svg>
