<?xml version="1.0" encoding="UTF-8" standalone="no"?>
<svg
   xmlns:dc="http://purl.org/dc/elements/1.1/"
   xmlns:cc="http://creativecommons.org/ns#"
   xmlns:rdf="http://www.w3.org/1999/02/22-rdf-syntax-ns#"
   xmlns:svg="http://www.w3.org/2000/svg"
   xmlns="http://www.w3.org/2000/svg"
   xmlns:xlink="http://www.w3.org/1999/xlink"
   xmlns:sodipodi="http://sodipodi.sourceforge.net/DTD/sodipodi-0.dtd"
   xmlns:inkscape="http://www.inkscape.org/namespaces/inkscape"
   id="svg2"
   enable-background="new -0.792 -0.569 190 204"
   xml:space="preserve"
   height="219"
   width="219"
   version="1.1"
   y="0px"
   x="0px"
   viewBox="-0.792 -0.569 219 219"
   inkscape:version="0.48.0 r9654"
   sodipodi:docname="virtual_server.svg"
   inkscape:export-filename="C:\Users\Public\Documents\Troux\Troux Architect 9.3\xml\http\metadata.troux.info\semantics\small_icons\virtual_server.png"
   inkscape:export-xdpi="6.5753427"
   inkscape:export-ydpi="6.5753427"><metadata
     id="metadata26"><rdf:RDF><cc:Work
         rdf:about=""><dc:format>image/svg+xml</dc:format><dc:type
           rdf:resource="http://purl.org/dc/dcmitype/StillImage" /><dc:title></dc:title></cc:Work></rdf:RDF></metadata><sodipodi:namedview
     pagecolor="#ffffff"
     bordercolor="#666666"
     borderopacity="1"
     objecttolerance="10"
     gridtolerance="10"
     guidetolerance="10"
     inkscape:pageopacity="0"
     inkscape:pageshadow="2"
     inkscape:window-width="1254"
     inkscape:window-height="725"
     id="namedview88"
     showgrid="false"
     inkscape:zoom="2.1826484"
     inkscape:cx="146.74073"
     inkscape:cy="109.5"
     inkscape:window-x="1785"
     inkscape:window-y="63"
     inkscape:window-maximized="0"
     inkscape:current-layer="svg2" /><defs
     id="defs4"><linearGradient
       id="linearGradient4039"
       y2="118.08"
       gradientUnits="userSpaceOnUse"
       x2="31.204"
       gradientTransform="matrix(0.76397363,0,0,0.93890298,27.706059,5.134071)"
       y1="171.93"
       x1="98.755"><stop
         id="stop4035"
         stop-color="#5b5b5b"
         offset="0" /><stop
         id="stop4037"
         stop-color="#5b5b5b"
         stop-opacity="0"
         offset="1" /></linearGradient><filter
       id="filter4640" /><linearGradient
       inkscape:collect="always"
       xlink:href="#linearGradient4039"
       id="linearGradient2960"
       gradientUnits="userSpaceOnUse"
       gradientTransform="matrix(0.76397363,0,0,0.93890298,27.706059,5.134071)"
       x1="98.755"
       y1="171.93"
       x2="31.204"
       y2="118.08" /><linearGradient
       inkscape:collect="always"
       xlink:href="#linearGradient6470"
       id="linearGradient3448"
       gradientUnits="userSpaceOnUse"
       x1="271.0217"
       y1="-441.05182"
       x2="285.02859"
       y2="-431.96991"
       gradientTransform="matrix(1.6091473,0,0,1.6238796,-427.4412,731.41701)" /><linearGradient
       inkscape:collect="always"
       id="linearGradient6470"><stop
         style="stop-color:#ffffff;stop-opacity:1;"
         offset="0"
         id="stop6472" /><stop
         style="stop-color:#ffffff;stop-opacity:0;"
         offset="1"
         id="stop6474" /></linearGradient><linearGradient
       inkscape:collect="always"
       xlink:href="#linearGradient6497"
       id="linearGradient3402"
       gradientUnits="userSpaceOnUse"
       x1="287.5173"
       y1="-439.75281"
       x2="289.67633"
       y2="-436.32199" /><linearGradient
       inkscape:collect="always"
       id="linearGradient6497"><stop
         style="stop-color:#ffffff;stop-opacity:1;"
         offset="0"
         id="stop6499" /><stop
         style="stop-color:#ffffff;stop-opacity:0;"
         offset="1"
         id="stop6501" /></linearGradient><linearGradient
       inkscape:collect="always"
       xlink:href="#linearGradient6513"
       id="linearGradient3404"
       gradientUnits="userSpaceOnUse"
       x1="286.51172"
       y1="-441.29074"
       x2="289.85379"
       y2="-436.14453" /><linearGradient
       inkscape:collect="always"
       id="linearGradient6513"><stop
         style="stop-color:#ffffff;stop-opacity:1;"
         offset="0"
         id="stop6515" /><stop
         style="stop-color:#ffffff;stop-opacity:0;"
         offset="1"
         id="stop6517" /></linearGradient><linearGradient
       inkscape:collect="always"
       xlink:href="#linearGradient6538"
       id="linearGradient3406"
       gradientUnits="userSpaceOnUse"
       x1="285.94086"
       y1="-439.939"
       x2="289.39124"
       y2="-436.4429" /><linearGradient
       inkscape:collect="always"
       id="linearGradient6538"><stop
         style="stop-color:#ffffff;stop-opacity:1;"
         offset="0"
         id="stop6540" /><stop
         style="stop-color:#ffffff;stop-opacity:0;"
         offset="1"
         id="stop6542" /></linearGradient><linearGradient
       inkscape:collect="always"
       xlink:href="#linearGradient6527"
       id="linearGradient3408"
       gradientUnits="userSpaceOnUse"
       x1="275.94193"
       y1="-437.10501"
       x2="279.97546"
       y2="-431.91833" /><linearGradient
       inkscape:collect="always"
       id="linearGradient6527"><stop
         style="stop-color:#ffffff;stop-opacity:1;"
         offset="0"
         id="stop6530" /><stop
         style="stop-color:#ffffff;stop-opacity:0;"
         offset="1"
         id="stop6532" /></linearGradient><linearGradient
       inkscape:collect="always"
       xlink:href="#linearGradient6549"
       id="linearGradient3410"
       gradientUnits="userSpaceOnUse"
       x1="286.66589"
       y1="-439.48358"
       x2="289.76562"
       y2="-436.70703" /><linearGradient
       inkscape:collect="always"
       id="linearGradient6549"><stop
         style="stop-color:#ffffff;stop-opacity:1;"
         offset="0"
         id="stop6551" /><stop
         style="stop-color:#ffffff;stop-opacity:0;"
         offset="1"
         id="stop6553" /></linearGradient><linearGradient
       inkscape:collect="always"
       xlink:href="#linearGradient6538"
       id="linearGradient3412"
       gradientUnits="userSpaceOnUse"
       x1="284.80219"
       y1="-441.23294"
       x2="288.89954"
       y2="-436.83109" /><linearGradient
       inkscape:collect="always"
       xlink:href="#linearGradient4039"
       id="linearGradient3134"
       gradientUnits="userSpaceOnUse"
       gradientTransform="matrix(0.76397363,0,0,0.93890298,27.706059,5.134071)"
       x1="98.755"
       y1="171.93"
       x2="31.204"
       y2="118.08" /><linearGradient
       inkscape:collect="always"
       xlink:href="#linearGradient6470"
       id="linearGradient3160"
       gradientUnits="userSpaceOnUse"
       gradientTransform="matrix(7.3145151,0,0,4.8709014,-1941.6658,2291.4234)"
       x1="271.0217"
       y1="-441.05182"
       x2="285.02859"
       y2="-431.96991" /><linearGradient
       inkscape:collect="always"
       xlink:href="#linearGradient6538"
       id="linearGradient3163"
       gradientUnits="userSpaceOnUse"
       x1="284.80219"
       y1="-441.23294"
       x2="288.89954"
       y2="-436.83109" /><linearGradient
       inkscape:collect="always"
       xlink:href="#linearGradient6549"
       id="linearGradient3165"
       gradientUnits="userSpaceOnUse"
       x1="286.66589"
       y1="-439.48358"
       x2="289.76562"
       y2="-436.70703" /><linearGradient
       inkscape:collect="always"
       xlink:href="#linearGradient6527"
       id="linearGradient3167"
       gradientUnits="userSpaceOnUse"
       x1="275.94193"
       y1="-437.10501"
       x2="279.97546"
       y2="-431.91833" /><linearGradient
       inkscape:collect="always"
       xlink:href="#linearGradient6538"
       id="linearGradient3169"
       gradientUnits="userSpaceOnUse"
       x1="285.94086"
       y1="-439.939"
       x2="289.39124"
       y2="-436.4429" /><linearGradient
       inkscape:collect="always"
       xlink:href="#linearGradient6513"
       id="linearGradient3171"
       gradientUnits="userSpaceOnUse"
       x1="286.51172"
       y1="-441.29074"
       x2="289.85379"
       y2="-436.14453" /><linearGradient
       inkscape:collect="always"
       xlink:href="#linearGradient6497"
       id="linearGradient3173"
       gradientUnits="userSpaceOnUse"
       x1="287.5173"
       y1="-439.75281"
       x2="289.67633"
       y2="-436.32199" /><linearGradient
       inkscape:collect="always"
       xlink:href="#linearGradient4039"
       id="linearGradient3947"
       gradientUnits="userSpaceOnUse"
       gradientTransform="matrix(0.61262704,0,0,0.7529021,49.51746,1.9741038)"
       x1="98.755"
       y1="171.93"
       x2="31.204"
       y2="118.08" /></defs><path
     inkscape:connector-curvature="0"
     style="fill:#b6b8ba"
     d="M 89.09485,6.2998612 60.689172,30.141259 139.05091,30.644198 166.65588,6.2998612 z"
     id="polygon243_1_" /><path
     inkscape:connector-curvature="0"
     style="fill:#999999"
     d="m 139.05091,29.886778 0.42884,127.551402 27.0291,-24.29615 0.29406,-126.7051406 z"
     id="polygon245_1_" /><path
     inkscape:connector-curvature="0"
     style="fill:#c9c9c9"
     d="M 139.05091,30.644198 60.689172,30.141259 60.253594,157.69417 139.47975,158.19861 z"
     id="polygon247_1_" /><path
     inkscape:connector-curvature="0"
     style="fill:#e0e0e0;stroke:#232323;stroke-width:0.67915255"
     d="M 68.430327,151.82153 68.34701,38.433723 131.22154,38.051249 131.71776,152.0474 z"
     id="polygon249_1_" /><path
     inkscape:connector-curvature="0"
     style="fill:none;stroke:#000000;stroke-width:0.67915255"
     d="M 139.48587,157.88992 167.13986,133.37543 167.1031,5.8865179 88.797113,6.024299 60.69101,29.836334 60.25482,157.9351 z"
     id="polygon255_1_" /><path
     inkscape:connector-curvature="0"
     style="fill:none;stroke:#000000;stroke-width:0.67915255"
     d="M 139.48587,157.88992 139.06929,30.023806 166.95607,6.024299"
     id="polyline257_1_" /><path
     inkscape:connector-curvature="0"
     style="fill:none;stroke:#000000;stroke-width:0.67914939"
     d="m 61.078341,30.137421 77.989949,0"
     id="line259_1_" /><path
     inkscape:connector-curvature="0"
     style="fill:#605f5f"
     d="m 142.44427,154.73194 24.36159,-21.59505 -0.15236,-89.418568 c 0,0 -0.87976,76.537718 -24.21003,111.014418 z"
     id="path261_1_" /><path
     inkscape:connector-curvature="0"
     style="fill:#7c7c7c"
     d="m 165.75538,7.8134501 -26.20034,22.4242069 0.22483,65.000849 c 0,0 -3.67637,-59.671452 25.975,-87.4226502 z"
     id="path263_1_" /><path
     inkscape:connector-curvature="0"
     style="fill:#e2e2e2"
     d="M 134.86636,6.3684344 89.133457,6.4718789 69.519093,22.9797 c 0,0 31.083077,-17.3634437 65.344057,-16.6112656 z"
     id="path265_1_" /><path
     inkscape:connector-curvature="0"
     style="fill:none;stroke:#000000;stroke-width:0.67915255"
     d="m 65.93326,25.559097 78.3066,0 0.80867,127.662833"
     id="polyline267_1_" /><path
     inkscape:connector-curvature="0"
     style="fill:#595959;stroke:#232323;stroke-width:0.86660856"
     d="m 73.484468,44.106439 49.871482,0 0,15.434884 -49.871482,0 0,-15.434884 z"
     id="rect250" /><path
     inkscape:connector-curvature="0"
     style="fill:url(#linearGradient3947);stroke:#232323;stroke-width:0.67915255"
     d="m 68.406062,88.0864 c 31.346898,24.65749 62.972058,-0.563917 62.972058,-0.563917 l 0.19664,64.623957 -63.016956,-0.0151 -0.151927,-64.044994 z"
     id="path252" /><path
     inkscape:connector-curvature="0"
     style="fill:#595959;stroke:#ededed;stroke-width:1.35833085"
     d="m 77.926967,51.510339 21.850053,0"
     id="line254" /><path
     inkscape:connector-curvature="0"
     style="fill:#05a510"
     d="m 78.602386,68.820849 c 0,1.736865 -1.145678,3.144872 -2.558944,3.144872 -1.413265,0 -2.558943,-1.408007 -2.558943,-3.144872 0,-1.736865 1.145678,-3.144872 2.558943,-3.144872 1.413266,0 2.558944,1.408007 2.558944,3.144872 z"
     id="circle274" /><path
     inkscape:connector-curvature="0"
     style="fill:#e50a39"
     d="m 87.619644,68.82236 c 0,1.736449 -1.145403,3.14412 -2.558331,3.14412 -1.412927,0 -2.55833,-1.407671 -2.55833,-3.14412 0,-1.736449 1.145403,-3.14412 2.55833,-3.14412 1.412928,0 2.558331,1.407671 2.558331,3.14412 z"
     id="circle276" /><path
     style="fill:#c4c5c2;fill-opacity:1;stroke:#888a85;stroke-width:5.96894312;stroke-linecap:butt;stroke-linejoin:miter;stroke-miterlimit:2;stroke-opacity:1;stroke-dasharray:none;stroke-dashoffset:0"
     d="m 110.05565,121.43675 c -16.610017,0 -30.061997,7.55126 -34.515365,17.65702 -5.070641,-1.77218 -10.565894,-3.04431 -16.686237,-3.04431 -20.188063,0 -36.57265,10.91077 -36.572576,24.3545 0,2.81991 1.188754,5.3955 2.514364,7.91522 -10.046268,3.7542 -17.1433945,10.6624 -17.1433945,18.87474 0,12.09932 14.7460615,21.9191 32.9153165,21.91906 1.295621,0 137.680162,0 138.975782,0 18.16919,0 32.91531,-9.81974 32.91531,-21.91906 0,-8.21234 -7.09712,-15.12054 -17.14338,-18.87474 1.32568,-2.51967 2.51436,-5.09536 2.51436,-7.91522 0,-13.44369 -16.38452,-24.35446 -36.57258,-24.3545 -6.12034,0 -11.61559,1.27213 -16.68624,3.04431 -4.45337,-10.10576 -17.90534,-17.65702 -34.51536,-17.65702 z"
     id="path7854"
     sodipodi:nodetypes="ccsscsssscsscc"
     inkscape:connector-curvature="0" /><path
     style="fill:url(#linearGradient3160);fill-opacity:1;stroke:none"
     d="m 110.05565,123.8722 c -16.016736,0 -27.236325,6.50641 -32.151316,18.72141 -4.889458,-1.67374 -11.319869,-4.05917 -17.22166,-4.05917 -19.869953,0 -34.781542,9.4438 -34.781469,22.14088 0,2.66326 1.954512,6.49505 3.232723,8.87483 -9.687563,3.54577 -17.82423,9.20844 -17.82423,16.42736 0,11.42738 11.309484,20.70177 31.739729,20.70177 1.249393,0 132.763123,0 134.012453,0 20.26859,0 31.73972,-9.27439 31.73972,-20.70177 0,-7.75628 -8.13666,-12.98918 -17.82422,-16.53496 1.27827,-2.37972 3.39444,-6.10401 3.39444,-8.76723 0,-12.69703 -15.47612,-22.24848 -34.94312,-22.24852 -5.90187,0 -12.00905,2.38547 -16.89851,4.05921 -4.74602,-11.79508 -16.45773,-18.61381 -32.47454,-18.61381 z"
     id="path7856"
     sodipodi:nodetypes="ccsscsssscsscc"
     inkscape:connector-curvature="0" /><g
     id="g7858"
     transform="matrix(7.3145151,0,0,4.8709014,-1941.6658,2291.4234)"><path
       transform="matrix(1.056604,0,0,1.056604,-24.19818,21.86331)"
       d="m 291.6875,-437.59375 c 0,1.82944 -1.48306,3.3125 -3.3125,3.3125 -1.82944,0 -3.3125,-1.48306 -3.3125,-3.3125 0,-1.82944 1.48306,-3.3125 3.3125,-3.3125 1.82944,0 3.3125,1.48306 3.3125,3.3125 z"
       sodipodi:ry="3.3125"
       sodipodi:rx="3.3125"
       sodipodi:cy="-437.59375"
       sodipodi:cx="288.375"
       id="path7860"
       style="fill:#c4c5c2;fill-opacity:1;stroke:none"
       sodipodi:type="arc" /><path
       transform="matrix(1.056604,0,0,1.056604,-24.19818,21.86331)"
       d="m 291.6875,-437.59375 c 0,1.82944 -1.48306,3.3125 -3.3125,3.3125 -1.82944,0 -3.3125,-1.48306 -3.3125,-3.3125 0,-1.82944 1.48306,-3.3125 3.3125,-3.3125 1.82944,0 3.3125,1.48306 3.3125,3.3125 z"
       sodipodi:ry="3.3125"
       sodipodi:rx="3.3125"
       sodipodi:cy="-437.59375"
       sodipodi:cx="288.375"
       id="path7862"
       style="fill:url(#linearGradient3173);fill-opacity:1;stroke:none"
       sodipodi:type="arc" /></g><rect
     style="fill:#c4c5c2;fill-opacity:1;stroke:none"
     id="rect7864"
     width="146.2903"
     height="43.838112"
     x="40.567757"
     y="157.96851" /><path
     sodipodi:type="arc"
     style="fill:#c4c5c2;fill-opacity:1;stroke:none"
     id="path7866"
     sodipodi:cx="288.375"
     sodipodi:cy="-437.59375"
     sodipodi:rx="3.3125"
     sodipodi:ry="3.3125"
     d="m 291.6875,-437.59375 a 3.3125,3.3125 0 1 1 -6.625,0 3.3125,3.3125 0 1 1 6.625,0 z"
     transform="matrix(6.6244635,0,0,4.4113806,-1869.7628,2117.5873)" /><g
     id="g7868"
     transform="matrix(7.3145151,0,0,4.8709014,-1941.6658,2291.4234)"><path
       transform="matrix(1.056604,0,0,1.056604,-17.19811,24.86321)"
       d="m 291.6875,-437.59375 c 0,1.82944 -1.48306,3.3125 -3.3125,3.3125 -1.82944,0 -3.3125,-1.48306 -3.3125,-3.3125 0,-1.82944 1.48306,-3.3125 3.3125,-3.3125 1.82944,0 3.3125,1.48306 3.3125,3.3125 z"
       sodipodi:ry="3.3125"
       sodipodi:rx="3.3125"
       sodipodi:cy="-437.59375"
       sodipodi:cx="288.375"
       id="path7870"
       style="fill:#c4c5c2;fill-opacity:1;stroke:none"
       sodipodi:type="arc" /><path
       transform="matrix(1.056604,0,0,1.056604,-17.19818,24.86331)"
       d="m 291.6875,-437.59375 c 0,1.82944 -1.48306,3.3125 -3.3125,3.3125 -1.82944,0 -3.3125,-1.48306 -3.3125,-3.3125 0,-1.82944 1.48306,-3.3125 3.3125,-3.3125 1.82944,0 3.3125,1.48306 3.3125,3.3125 z"
       sodipodi:ry="3.3125"
       sodipodi:rx="3.3125"
       sodipodi:cy="-437.59375"
       sodipodi:cx="288.375"
       id="path7872"
       style="fill:url(#linearGradient3171);fill-opacity:1;stroke:none"
       sodipodi:type="arc" /></g><g
     id="g7874"
     transform="matrix(7.3145151,0,0,4.8709014,-1941.6658,2291.4234)"><path
       transform="matrix(1.056604,0,0,1.056604,-31.19818,24.86331)"
       d="m 291.6875,-437.59375 c 0,1.82944 -1.48306,3.3125 -3.3125,3.3125 -1.82944,0 -3.3125,-1.48306 -3.3125,-3.3125 0,-1.82944 1.48306,-3.3125 3.3125,-3.3125 1.82944,0 3.3125,1.48306 3.3125,3.3125 z"
       sodipodi:ry="3.3125"
       sodipodi:rx="3.3125"
       sodipodi:cy="-437.59375"
       sodipodi:cx="288.375"
       id="path7876"
       style="fill:#c4c5c2;fill-opacity:1;stroke:none"
       sodipodi:type="arc" /><path
       transform="matrix(1.056604,0,0,1.056604,-31.19818,24.86331)"
       d="m 291.6875,-437.59375 c 0,1.82944 -1.48306,3.3125 -3.3125,3.3125 -1.82944,0 -3.3125,-1.48306 -3.3125,-3.3125 0,-1.82944 1.48306,-3.3125 3.3125,-3.3125 1.82944,0 3.3125,1.48306 3.3125,3.3125 z"
       sodipodi:ry="3.3125"
       sodipodi:rx="3.3125"
       sodipodi:cy="-437.59375"
       sodipodi:cx="288.375"
       id="path7878"
       style="fill:url(#linearGradient3169);fill-opacity:1;stroke:none"
       sodipodi:type="arc" /></g><g
     id="g7880"
     transform="matrix(7.3145151,0,0,4.8709014,-1948.9804,2291.4234)"><path
       id="path7882"
       d="m 280.46875,-440.96875 c -3.57938,0 -6.46875,2.92063 -6.46875,6.5 0,2.37068 1.34943,4.33779 3.25,5.46875 l 6.46875,0 c 1.90057,-1.13096 3.25,-3.12931 3.25,-5.5 0,-3.57938 -2.92063,-6.46875 -6.5,-6.46875 z"
       style="fill:#c4c5c2;fill-opacity:1;stroke:none"
       inkscape:connector-curvature="0" /><path
       id="path7884"
       d="m 280.5,-441 c -3.588,0 -6.5,2.91201 -6.5,6.5 0,2.3764 1.34485,4.36632 3.25,5.5 l 6.5,0 c 1.90515,-1.13368 3.25,-3.1236 3.25,-5.5 0,-3.588 -2.912,-6.49999 -6.5,-6.5 z"
       style="fill:url(#linearGradient3167);fill-opacity:1;stroke:none"
       inkscape:connector-curvature="0" /></g><path
     sodipodi:type="arc"
     style="fill:url(#linearGradient3165);fill-opacity:1;stroke:none"
     id="path7886"
     sodipodi:cx="288.375"
     sodipodi:cy="-437.59375"
     sodipodi:rx="3.3125"
     sodipodi:ry="3.3125"
     d="m 291.6875,-437.59375 a 3.3125,3.3125 0 1 1 -6.625,0 3.3125,3.3125 0 1 1 6.625,0 z"
     transform="matrix(6.6244635,0,0,4.4113806,-1869.762,2117.5865)" /><path
     style="fill:#0054dc;fill-opacity:1;fill-rule:evenodd;stroke:none"
     d="m 201.16817,161.21273 c -0.0145,13.07622 -23.91305,18.09028 -23.91305,18.09028 0,0 17.1799,-7.91984 17.09293,-18.04674 0,0 6.82012,-0.0438 6.82012,-0.0438 z"
     id="path7888"
     sodipodi:nodetypes="ccss"
     inkscape:connector-curvature="0" /><g
     id="g7890"
     transform="matrix(8.359445,0,0,5.5667439,-2150.6517,2617.7741)"><path
       transform="matrix(1.056604,0,0,1.056604,-31.19818,24.86331)"
       d="m 291.6875,-437.59375 c 0,1.82944 -1.48306,3.3125 -3.3125,3.3125 -1.82944,0 -3.3125,-1.48306 -3.3125,-3.3125 0,-1.82944 1.48306,-3.3125 3.3125,-3.3125 1.82944,0 3.3125,1.48306 3.3125,3.3125 z"
       sodipodi:ry="3.3125"
       sodipodi:rx="3.3125"
       sodipodi:cy="-437.59375"
       sodipodi:cx="288.375"
       id="path7892"
       style="fill:#c4c5c2;fill-opacity:1;stroke:none"
       sodipodi:type="arc" /><path
       transform="matrix(1.056604,0,0,1.056604,-31.19818,24.86331)"
       d="m 291.6875,-437.59375 c 0,1.82944 -1.48306,3.3125 -3.3125,3.3125 -1.82944,0 -3.3125,-1.48306 -3.3125,-3.3125 0,-1.82944 1.48306,-3.3125 3.3125,-3.3125 1.82944,0 3.3125,1.48306 3.3125,3.3125 z"
       sodipodi:ry="3.3125"
       sodipodi:rx="3.3125"
       sodipodi:cy="-437.59375"
       sodipodi:cx="288.375"
       id="path7896"
       style="fill:url(#linearGradient3163);fill-opacity:1;stroke:none"
       sodipodi:type="arc" /></g><path
     style="fill:#595959;fill-opacity:1;stroke:#000000;stroke-width:0.22524359999999999;stroke-miterlimit:4;stroke-dasharray:none"
     d="m 35.008767,211.15406 c -3.310933,-0.34192 -7.506329,-1.25906 -10.735644,-2.3469 -12.365159,-4.16537 -20.0659375,-12.4271 -20.0696704,-21.53162 -0.00147,-3.71281 1.0080522,-6.72973 3.3307699,-9.95336 1.7148447,-2.37999 3.3229515,-3.97799 5.8668015,-5.82995 1.837863,-1.33799 4.962953,-3.1908 6.550551,-3.88371 0.643656,-0.28093 0.644182,-0.28444 0.195419,-1.30309 -1.316597,-2.98856 -1.661654,-6.89051 -0.885535,-10.01377 2.574149,-10.3589 13.678348,-18.69085 28.671577,-21.51348 7.885331,-1.4845 15.599782,-1.34084 22.929342,0.42698 1.439501,0.3472 2.636558,0.61437 2.660122,0.5937 0.02364,-0.0207 0.562552,-0.77483 1.197752,-1.67593 2.701296,-3.8321 8.421718,-8.26662 13.601939,-10.54433 14.074879,-6.18865 31.836309,-5.8822 45.071999,0.77767 2.5132,1.26458 6.59706,4.03506 8.33534,5.65469 1.49052,1.38876 3.8691,4.17451 4.40738,5.16185 0.2711,0.49722 0.49455,0.65909 0.80176,0.58076 2.67804,-0.68278 6.28636,-1.40921 8.24353,-1.65959 3.14029,-0.40173 9.22459,-0.3939 12.7922,0.0165 3.15083,0.36242 8.33016,1.47203 10.97773,2.35184 10.79384,3.58692 19.13234,10.73964 21.52826,18.46684 0.46447,1.49798 1.10358,5.90403 0.878,6.0529 -0.0692,0.0457 -1.69572,0.13198 -3.61445,0.19182 l -3.4886,0.10876 0,-1.21552 c 0,-1.80492 -0.70773,-4.58446 -1.65365,-6.49459 -3.18338,-6.42825 -10.9427,-11.75013 -20.22074,-13.86878 -3.67339,-0.83883 -6.16741,-1.12956 -10.63205,-1.23943 -3.69262,-0.0908 -4.42234,-0.0572 -6.612,0.30476 -2.72258,0.45008 -5.22332,1.1181 -9.53034,2.5458 -1.57553,0.52226 -2.90428,0.92337 -2.95279,0.89137 -0.0486,-0.032 -0.54146,-0.95217 -1.09544,-2.0448 -5.49799,-10.84375 -17.48071,-16.75335 -33.06188,-16.30534 -8.664421,0.24913 -14.957732,2.10685 -20.842164,6.15241 -4.304983,2.95969 -6.726843,5.6943 -8.894209,10.04277 -0.575489,1.15463 -1.091076,2.13321 -1.145756,2.17463 -0.05468,0.0414 -1.936132,-0.50771 -4.181028,-1.22027 -6.788835,-2.15487 -10.465149,-2.73595 -16.115534,-2.54719 -5.063132,0.16914 -8.785965,0.82979 -13.38261,2.37486 -8.347589,2.80587 -14.31604,7.64325 -16.941251,13.73074 -0.590871,1.37014 -1.203052,4.38706 -1.20388,5.93289 -9.69e-4,1.82241 1.456763,6.13153 2.933053,8.6702 0.07044,0.12112 -0.982827,0.68056 -2.387878,1.26833 -4.721127,1.97497 -7.989278,4.02571 -10.807494,6.78165 -3.635637,3.5553 -4.835836,6.90376 -4.15918,11.60378 1.232828,8.56316 9.902109,15.31365 22.339319,17.39488 0.936532,0.15673 3.177329,0.36556 4.979549,0.46409 4.520203,0.24714 138.581893,0.24483 142.815693,-0.002 7.49822,-0.43794 13.24331,-2.13409 18.39604,-5.43116 9.90433,-6.33745 11.83398,-16.62755 4.53086,-24.16117 -1.43775,-1.48312 -4.61148,-3.77183 -6.67505,-4.81364 -0.99435,-0.50201 -1.81508,-0.98308 -1.82382,-1.06903 -0.009,-0.086 0.34,-0.45562 0.77504,-0.82148 0.43501,-0.36586 1.23358,-1.21885 1.77455,-1.89554 l 0.98357,-1.23034 1.75265,0.86333 c 4.4108,2.17272 9.19704,6.03036 11.41855,9.20317 3.76868,5.38254 4.32798,11.67863 1.53793,17.31263 -4.39248,8.8698 -15.54153,15.12729 -29.46219,16.53588 -3.53342,0.35754 -146.232978,0.3423 -149.702442,-0.0159 l 0,1e-5 z"
     id="path3451"
     inkscape:connector-curvature="0" /><path
     style="fill:#595959;fill-opacity:1;stroke:#000000;stroke-width:0.22764276999999999"
     d="m 179.99874,178.01857 c 0.76077,-0.44016 2.602,-1.6521 4.09163,-2.6932 5.92422,-4.14047 9.29828,-8.34612 10.15965,-12.66367 0.17469,-0.87556 0.33856,-1.60231 0.36415,-1.61498 0.0254,-0.0126 1.48338,-0.0811 3.23948,-0.15193 l 3.19292,-0.12886 -0.20046,1.46288 c -0.85868,6.26636 -7.36673,11.74855 -18.35761,15.46389 -3.62229,1.22448 -4.16584,1.29562 -2.48977,0.3259 z"
     id="path4247"
     inkscape:connector-curvature="0" /></svg>