<?xml version="1.0" encoding="UTF-8" standalone="no"?>
<svg id="svg2" xmlns:rdf="http://www.w3.org/1999/02/22-rdf-syntax-ns#" xmlns="http://www.w3.org/2000/svg" enable-background="new 21.027 45.083 219 219" xml:space="preserve" height="219px" width="219px" version="1.1" y="0px" x="0px" xmlns:cc="http://creativecommons.org/ns#" xmlns:dc="http://purl.org/dc/elements/1.1/" viewBox="21.027 45.083 219 219"><metadata id="metadata334"><rdf:RDF><cc:Work rdf:about=""><dc:format>image/svg+xml</dc:format><dc:type rdf:resource="http://purl.org/dc/dcmitype/StillImage"/><dc:title/></cc:Work></rdf:RDF></metadata>
<defs id="defs4"><filter id="filter4178" height="1.7028396" width="69.448565" y="-0.35141979" x="-34.224282"><feGaussianBlur id="feGaussianBlur4180" stdDeviation="1.1837012"/></filter><filter id="filter4182" height="1.4437477" width="1.4778247" y="-0.22187383" x="-0.23891235"><feGaussianBlur id="feGaussianBlur4184" stdDeviation="1.1837012"/></filter><filter id="filter4186" height="1.4470669" width="1.4908195" y="-0.22353343" x="-0.24540974"><feGaussianBlur id="feGaussianBlur4188" stdDeviation="1.1837012"/></filter><filter id="filter4190" height="1.0321605" width="1.3244359" y="-0.016080256" x="-0.16221797"><feGaussianBlur id="feGaussianBlur4192" stdDeviation="1.1837012"/></filter><filter id="filter4194" height="1.3885556" width="1.0650586" y="-0.1942778" x="-0.032529317"><feGaussianBlur id="feGaussianBlur4196" stdDeviation="1.1837012"/></filter><filter id="filter4198"><feGaussianBlur id="feGaussianBlur4200" stdDeviation="1.1837012"/></filter><filter id="filter4202"><feGaussianBlur id="feGaussianBlur4204" stdDeviation="1.1837012"/></filter><filter id="filter4206"><feGaussianBlur id="feGaussianBlur4208" stdDeviation="1.1837012"/></filter><filter id="filter4210"><feGaussianBlur id="feGaussianBlur4212" stdDeviation="1.1837012"/></filter></defs>
<g id="g5674" stroke="#494848" transform="matrix(1.0576018,0,0,1.0576018,-34.609865,-18.331428)"><path id="path312-8" opacity="0.66810345" d="m-129.88,39.671c0-8.034-6.306-14.54-14.09-14.54h-54.645c-7.784,0-14.102,6.506-14.102,14.54v120.48h82.836v-120.48z" transform="matrix(1.0505258,0,0,1.0505258,350.07389,40.568564)" filter="url(#filter4210)" stroke-width="2" fill="#FFF"/><path id="path316-8" opacity="0.66810345" d="m-140.88,47.887c0-7.785-6.306-14.089-14.09-14.089h-54.644c-7.784,0-14.102,6.305-14.102,14.089v116.74h82.836v-116.74zm-11.378,10.223c0,1.482-1.232,2.688-2.712,2.688h-54.644c-1.49,0-2.697-1.205-2.697-2.688v-9.041c0-1.483,1.207-2.7,2.697-2.7h54.645c1.479,0,2.712,1.217,2.712,2.7v9.041z" transform="matrix(1.0505258,0,0,1.0505258,350.07389,40.568564)" filter="url(#filter4206)" stroke-width="2" fill="#FFF"/><path id="path310-3" opacity="0.66810345" d="m-223.77,164.52v22.521c0,7.771,7.16,14.08,15.983,14.08h61.937c8.822,0,15.97-6.309,15.97-14.08v-25.219h-93.89v2.698z" transform="matrix(1.0505258,0,0,1.0505258,350.07389,40.568564)" filter="url(#filter4202)" stroke-width="2" fill="#FFF"/><path id="path314-5" opacity="0.66810345" d="m-223.72,195.71c0,7.77,6.317,14.078,14.102,14.078h54.645c7.784,0,13.45-6.455,14.09-14.078v-25.219h-82.837v25.219zm41.43-14.142c4.784,0,8.666,3.895,8.666,8.691s-3.882,8.68-8.666,8.68c-4.797,0-8.689-3.883-8.689-8.68s3.892-8.691,8.689-8.691z" transform="matrix(1.0505258,0,0,1.0505258,350.07389,40.568564)" filter="url(#filter4198)" stroke-width="2" fill="#FFF"/><path id="path318-4" opacity="0.66810345" d="m-220.52,38.899c0.004-0.002,11.166-9.417,11.166-9.417s5.25-4.917,13.584-4.583c1.516,0,3.031,0,4.547-0.001,3.698-0.004,7.396,0,11.096-0.001,4.66-0.001,9.32-0.005,13.981,0,4.396,0.004,8.794-0.015,13.19,0.003,3.058,0.012,6.121-0.122,9.176,0.044,2.26,0.123,3.915,0.95,5.734,1.803,1.887,0.885,4.859,3.986,4.859,3.986l-10.5,8.75s-3.834-5.583-9.917-5.417c-1.618-0.01-3.237-0.024-4.856-0.028-3.961-0.011-7.922-0.038-11.883-0.074-4.975-0.046-9.949-0.078-14.924-0.083-4.599-0.005-9.203-0.01-13.801-0.096-3.11-0.059-6.203-0.134-9.475,0.066-1.941,0.119-4.012-0.028-5.812,0.717-2.153,0.89-4.359,2.823-6.165,4.331z" transform="matrix(1.0505258,0,0,1.0505258,350.07389,40.568564)" filter="url(#filter4194)" stroke-width="2" fill="#FFF"/><path id="path320-3" opacity="0.66810345" d="m-140.96,170.4c0.01,2.51-0.01,5.3676,0,7.8796,0.013,3.176-0.135,6.074-0.125,9.25,0.004,1.342,0.062,3.096,0.062,4.438,0,10.688-6,15.355-6,15.355l9.834-6.836c8.334-6.334,7.666-12.5,7.666-12.5l-0.25-151s-0.5-3.833-3-6.333l-10.75,8.75s0.992,1.627,1.375,2.5c0.635,1.444,0.847,2.394,1.209,4.167,0.509,2.491,0.305,5.229,0.333,7.75,0.047,4.197-0.231,8.449-0.229,12.646,0.004,5.738,0.047,11.45,0.062,17.188,0.019,6.595-0.092,13.217-0.062,19.812,0.032,6.886,0.165,13.677,0.188,20.562,0.023,6.722-0.081,13.403-0.062,20.125,0.018,6.203-0.021,11.089,0,17.294" transform="matrix(1.0505258,0,0,1.0505258,350.07389,40.568564)" filter="url(#filter4190)" stroke-width="2" fill="#FFF"/><line id="line322-6" opacity="0.6681" x1="-140.95" fill="#353434" transform="matrix(1.0505258,0,0,1.0505258,350.07389,40.568564)" filter="url(#filter4186)" y1="162.49" x2="-129.37" y2="149.78" stroke-width="2.0212"/><line id="line324-5" opacity="0.6681" x1="-141.24" fill="#353434" transform="matrix(1.0505258,0,0,1.0505258,350.07389,40.568564)" filter="url(#filter4182)" y1="171.03" x2="-129.35" y2="158.23" stroke-width="2.0766"/><line id="line326-9" opacity="0.6681" x1="-140.88" fill="#8e8e8e" transform="matrix(1.0505258,0,0,1.0505258,350.07389,40.568564)" filter="url(#filter4178)" y1="161.97" x2="-140.79" y2="170.06" stroke-width="2"/></g></svg>