<?xml version="1.0" encoding="UTF-8" standalone="no"?>
<svg xmlns:rdf="http://www.w3.org/1999/02/22-rdf-syntax-ns#" xmlns="http://www.w3.org/2000/svg" viewBox="0 0 219 219" height="219" width="219" version="1.0" xmlns:cc="http://creativecommons.org/ns#" xmlns:xlink="http://www.w3.org/1999/xlink" xmlns:dc="http://purl.org/dc/elements/1.1/">
 <defs>
  <linearGradient id="linearGradient12517">
   <stop stop-color="#00c0ff" offset="0"/>
   <stop stop-color="#00c0ff" offset="0.7"/>
   <stop stop-color="#00c0ff" stop-opacity="0.13333334" offset="1"/>
  </linearGradient>
  <radialGradient id="radialGradient3031" gradientUnits="userSpaceOnUse" cy="352" cx="348" r="323">
   <stop stop-color="aqua" offset="0"/>
   <stop stop-color="#0068e0" offset="0.7"/>
   <stop stop-color="#0068e0" offset="0.94"/>
   <stop stop-color="#FFF" stop-opacity="0" offset="1"/>
  </radialGradient>
  <radialGradient id="radialGradient3035" xlink:href="#linearGradient12517" gradientUnits="userSpaceOnUse" cy="358" cx="343" gradientTransform="matrix(1.0984105,0,0,1.0644226,859.37403,0.53665811)" r="298"/>
  <radialGradient id="radialGradient3037" xlink:href="#linearGradient12517" gradientUnits="userSpaceOnUse" cy="346" cx="354" gradientTransform="matrix(1.0642041,0,0,1.0986354,859.37403,0.53665811)" r="262"/>
  <radialGradient id="radialGradient3039" gradientUnits="userSpaceOnUse" cy="352" cx="348" r="323">
   <stop stop-color="#000" offset="0"/>
   <stop stop-color="#000" offset="0.7"/>
   <stop stop-color="#0093ff" stop-opacity="0" offset="1"/>
  </radialGradient>
  <radialGradient id="radialGradient3041" gradientUnits="userSpaceOnUse" cy="352" cx="348" r="323">
   <stop stop-color="#FFF" offset="0"/>
   <stop stop-color="#FFF" offset="0.7"/>
   <stop stop-color="#FFF" stop-opacity="0" offset="1"/>
  </radialGradient>
 </defs>
 <metadata>
  <rdf:RDF>
   <cc:Work rdf:about="">
    <dc:title/>
    <dc:format>image/svg+xml</dc:format>
    <dc:type rdf:resource="http://purl.org/dc/dcmitype/StillImage"/>
   </cc:Work>
  </rdf:RDF>
 </metadata>
 <path fill="#FFF" d="m12.4,150s10.1,11.1,17.4,15c7.24,3.86,14.5,9.65,19.3,10.1,4.83,0.483,28-0.483,39.1,0s36.2-0.965,46.3-6.76c10.1-5.79,32.3-25.1,36.7-32.8,4.34-7.72,11.6-25.1,15.4-38.1,3.86-13,6.76-26.5,6.76-26.5s-37.7-15-48.3-15.9c-10-0.7-32-4.1-42-0.7-10.9,3.3-33.6,7.2-38.9,12.5s-19.8,21.7-26.6,31.9c-6.7,9.8-11.1,20.8-15.4,29.8-4.34,8.69-8.69,24.1-9.65,22.2z"/>
 <g fill-rule="nonzero" transform="matrix(0.19825956,0,0,0.19825956,-135.04213,32.257072)">
  <path style="color:#000000;" d="M671,352c0,178-145,323-323,323s-323-145-323-323,145-323,323-323,323,145,323,323z" transform="matrix(1.081283,0,0,1.081283,859.37403,0.53665811)" fill="url(#radialGradient3031)"/>
  <path opacity="0.2" style="color:#000000;" fill="url(#radialGradient3035)" d="m1320,63.6c-6.42,17.6-8.69,36.3-15.1,53.9-6.43,17.6-17,34.1-23.5,51.7-6.43,17.6-8.68,36.3-15.1,53.9-6.43,17.6-17,34.1-23.5,51.7,0.0009,0.002,0.031,0.006,0.033,0.009,3.51,0.941,7,1.88,10.5,2.82,3.51,0.941,7.03,1.88,10.5,2.82,3.51,0.941,7.03,1.88,10.5,2.82,3.51,0.941,7.03,1.88,10.5,2.82,2.92-18.5,10-36,12.9-54.5,2.92-18.5,1.65-38.2,4.57-56.7s10-36,12.9-54.5c2.92-18.5,1.65-38.2,4.57-56.7zm171,109c-15.5,10.5-28.4,24.3-43.9,34.7-15.6,10.5-33.8,17.6-49.4,28-15.6,10.5-28.4,24.3-43.9,34.8-15.6,10.5-33.8,17.5-49.4,28,0,0.002-0.01,0.0301-0.01,0.0326,2.29,2.82,4.57,5.66,6.86,8.48s4.57,5.66,6.86,8.48,4.58,5.63,6.87,8.45,4.57,5.66,6.86,8.48c0,0.00077,0.03,0.009,0.033,0.009,13.3-13.3,29.2-23.2,42.5-36.5s23.8-29.9,37.1-43.2,29.2-23.2,42.5-36.5,23.8-30,37.1-43.2zm-370-97.6c5.15,18,14.3,34.5,19.5,52.5,5.15,18,6.25,37.6,11.4,55.6s14.3,34.5,19.5,52.5c5.15,18,6.25,37.6,11.4,55.6,0,0.002,0.03,0.008,0.033,0.009,3.39-1.3,6.79-2.62,10.2-3.92,3.39-1.3,6.78-2.58,10.2-3.89,3.39-1.3,6.79-2.62,10.2-3.92,3.39-1.3,6.79-2.62,10.2-3.92-0.0003-0.003,0.01-0.0294,0.01-0.0326-8.54-16.7-13-35-21.6-51.7-8.54-16.7-21.1-31.9-29.6-48.6-8.54-16.7-13-35-21.6-51.7-8.54-16.7-21.1-31.9-29.7-48.6zm447,287c-18.7-0.674-37.2,2.96-56,2.29-18.7-0.674-37.7-5.67-56.4-6.34-18.7-0.674-37.2,2.96-56,2.29-18.7-0.674-37.7-5.66-56.4-6.33,0,0.0002-0.03-0.01-0.033-0.009,0,0.001-0.01,0.031-0.01,0.0327,0.19,3.63,0.389,7.26,0.579,10.9,0.19,3.63,0.389,7.26,0.579,10.9,0.19,3.63,0.356,7.26,0.546,10.9,0.19,3.63,0.389,7.26,0.579,10.9,0,0.001,0.03,0.008,0.033,0.009,18.5-2.96,37.3-1.6,55.8-4.56s36.9-10.2,55.4-13.2c18.5-2.96,37.3-1.6,55.8-4.56s36.9-10.2,55.4-13.2c0-0.00018,0-0.0317,0.01-0.0326zm-604-158c14.8,11.5,31.9,19.5,46.6,31,14.8,11.6,27.1,26.7,41.9,38.3s31.9,19.5,46.6,31c14.8,11.6,27.1,26.7,41.9,38.3,0,0.002,0.03,0.008,0.033,0.009,1.98-3.05,3.97-6.1,5.95-9.15s3.97-6.1,5.95-9.15,3.94-6.11,5.92-9.15c1.98-3.05,3.97-6.1,5.95-9.15-0.001-0.002,0.011-0.0303,0.01-0.0326-16.7-8.5-31.1-20.6-47.9-29.1-16.7-8.5-35.8-13.4-52.6-21.9-16.7-8.5-31.1-20.7-47.8-29.2s-35.8-13.4-52.6-21.9zm171,161c-18.5,2.96-37.3,1.6-55.8,4.56s-36.8,10.2-55.4,13.2c-18.5,2.96-37.3,1.6-55.9,4.55-18.5,2.96-36.8,10.2-55.4,13.2-0.003,0.00019-0.0297-0.01-0.0326-0.009-0.003,0.001-0.006,0.031-0.009,0.0327,18.7,0.674,37.2-2.96,56-2.29,18.7,0.674,37.7,5.67,56.4,6.34,18.7,0.674,37.2-3,56-2.32,18.7,0.674,37.7,5.7,56.4,6.38,0-0.00018,0-0.0317,0.01-0.0326-0.19-3.63-0.389-7.26-0.579-10.9-0.19-3.63-0.356-7.26-0.546-10.9-0.19-3.63-0.389-7.26-0.579-10.9-0.19-3.63-0.389-7.26-0.579-10.9,0-0.00068-0.029-0.009-0.033-0.009zm205,54.8c-1.98,3.05-3.97,6.1-5.95,9.15s-3.94,6.11-5.92,9.15c-1.98,3.05-3.97,6.1-5.95,9.15s-3.97,6.1-5.95,9.15c0,0.002,0.021,0.0395,0.024,0.0414,16.7,8.5,31.1,20.6,47.9,29.1,16.7,8.5,35.8,13.4,52.6,21.9,16.7,8.5,31.1,20.7,47.8,29.2s35.8,13.4,52.6,21.9c0,0.002,0.03,0.008,0.033,0.009,0-0.001,0.01-0.0307,0.01-0.0326-14.8-11.6-31.8-19.5-46.6-31-14.8-11.6-27.2-26.7-41.9-38.3-14.8-11.6-31.9-19.5-46.6-31-14.8-11.6-27.1-26.7-41.9-38.3,0-0.00093-0.03-0.009-0.033-0.009zm-194,10.2c-13.3,13.3-29.2,23.2-42.5,36.5s-23.8,30-37.1,43.2c-13.3,13.3-29.3,23.2-42.5,36.5-13.3,13.3-23.8,30-37.1,43.2,15.6-10.5,28.4-24.3,43.9-34.8,15.6-10.5,33.8-17.5,49.4-28s28.4-24.3,43.9-34.8c15.6-10.5,33.8-17.6,49.4-28.1-2.29-2.82-4.57-5.66-6.86-8.48s-4.57-5.66-6.86-8.48-4.58-5.63-6.87-8.45-4.57-5.66-6.86-8.48c0,0.00026-0.03-0.01-0.033-0.009zm152,40.8c-3.39,1.3-6.79,2.62-10.2,3.92-3.39,1.3-6.78,2.58-10.2,3.89-3.39,1.3-6.79,2.62-10.2,3.92-3.39,1.3-6.79,2.62-10.2,3.92,8.54,16.7,13,35,21.6,51.7,8.54,16.7,21.1,31.9,29.7,48.6,8.54,16.7,13,35,21.6,51.7,8.54,16.7,21.1,31.9,29.7,48.6-5.15-18-14.3-34.5-19.4-52.5-5.15-18-6.26-37.6-11.4-55.6-5.15-18-14.3-34.5-19.5-52.5-5.15-18-6.25-37.6-11.4-55.6,0-0.001-0.03-0.009-0.033-0.009zm-106,5.53c0,0.00071-0.039,0.0221-0.041,0.0239-2.92,18.5-10,36-12.9,54.5-2.92,18.5-1.66,38.2-4.58,56.8-2.92,18.5-10,36-12.9,54.5-2.92,18.5-1.66,38.2-4.58,56.8,0.0009,0.002,0.031,0.008,0.033,0.009,6.43-17.6,8.68-36.3,15.1-53.9,6.43-17.6,17-34.1,23.4-51.7,6.43-17.6,8.68-36.3,15.1-53.9,6.43-17.6,17-34.1,23.5-51.7-0.0008-0.002,0.011-0.0308,0.01-0.0326-3.51-0.941-7.03-1.88-10.5-2.82-3.51-0.941-7.03-1.88-10.5-2.82-3.51-0.941-7.03-1.88-10.5-2.82-3.51-0.941-7-1.88-10.5-2.82z"/>
  <path opacity="0.3" style="color:#000000;" fill="url(#radialGradient3037)" d="m1220,93.3c-0.865,15.6,2.57,30.9,1.7,46.5-0.872,15.6-6.07,31.4-6.94,47-0.872,15.6,2.57,30.9,1.7,46.5-0.872,15.6-6.07,31.4-6.94,47,0.001,0.002,0.032-0.002,0.034-0.002,3.63-0.183,7.24-0.364,10.9-0.547,3.63-0.183,7.27-0.366,10.9-0.548,3.63-0.183,7.27-0.366,10.9-0.548,3.63-0.183,7.27-0.366,10.9-0.548-2.76-15.4-1.2-31-3.96-46.4s-9.84-30.6-12.6-46-1.2-31-3.96-46.4-9.84-30.6-12.6-46zm172,45.3c-0.01,0.006,0.01,0.027,0,0.0337,0.001-0.002,0.033,0.00088,0.034-0.002-0.0003-0.002-0.0006-0.0318,0-0.0337-0.001-0.002-0.032,0.003-0.034,0.002zm0,0.0337c-9.85,12.1-16.1,26.5-26,38.6-9.86,12.1-23.3,21.8-33.2,33.9-9.86,12.1-16.1,26.5-26,38.6-9.86,12.1-23.3,21.8-33.2,33.9-0.0006,0.002,0.001,0.0314,0,0.0337,3.04,1.99,6.09,3.98,9.13,5.97s6.08,3.95,9.13,5.94c3.04,1.99,6.12,3.98,9.16,5.97s6.09,3.98,9.13,5.97v-0.0337c6.82-14.1,17.3-25.8,24.1-39.8,6.82-14.1,10-30.5,16.8-44.6,6.82-14.1,17.3-25.8,24.1-39.9,6.82-14.1,9.99-30.5,16.8-44.6zm-338,19.3c8.45,13.1,20.3,23.5,28.7,36.7,8.45,13.1,13.6,28.9,22,42.1,8.45,13.1,20.3,23.5,28.7,36.6,8.45,13.1,13.6,28.9,22,42.1,0,0.002-0.0005,0.0323,0,0.0337,0-0.00044,0.032-0.00023,0.034-0.002,2.83-2.28,5.66-4.57,8.49-6.86,2.83-2.28,5.66-4.57,8.49-6.86,2.83-2.28,5.66-4.54,8.49-6.82s5.66-4.57,8.49-6.86c0-0.002-0.0008-0.0312,0-0.0337-11.3-10.8-19.2-24.4-30.5-35.2s-25.9-19-37.2-29.8-19.2-24.4-30.5-35.2-25.9-19-37.2-29.8c0-0.001-0.031,0.002-0.034,0.002zm451,119c-15.1,3.99-28.6,12-43.7,16-15.1,3.99-31.7,3.92-46.8,7.9-15.1,3.99-28.6,12-43.7,16-15.1,3.99-31.7,3.92-46.8,7.9,0,0.001-0.032,0.00001-0.034,0.002-0.001,0.002,0,0.0315,0,0.0337,1.3,3.4,2.6,6.79,3.9,10.2,1.3,3.4,2.6,6.79,3.9,10.2,1.3,3.4,2.56,6.76,3.86,10.2,1.3,3.4,2.6,6.79,3.9,10.2,0.0009,0.002,0,0.0322,0,0.0337,0,0.00074,0.031-0.001,0.034-0.002,13.8-7.38,29.1-10.7,42.9-18.1,13.8-7.38,26-18.8,39.8-26.2,13.8-7.38,29.1-10.7,42.9-18.1,13.8-7.38,26.1-18.8,39.9-26.2zm-547,31.3c14.5,5.63,30.2,7.13,44.7,12.8,14.5,5.64,28,15.5,42.5,21.1,14.5,5.64,30.2,7.13,44.8,12.8,14.5,5.64,28,15.5,42.5,21.1,0,0.00075,0.031-0.001,0.034-0.002,0.001-0.002,0-0.0315,0-0.0337,0.948-3.51,1.91-7.02,2.85-10.5,0.948-3.51,1.91-6.99,2.86-10.5,0.948-3.51,1.87-7.02,2.82-10.5,0.948-3.51,1.91-7.02,2.85-10.5-0.0005-0.002-0.0002-0.0318,0-0.0337-15.5-2.13-29.9-8.44-45.4-10.6-15.5-2.13-32.1-0.107-47.6-2.24s-29.9-8.44-45.4-10.6c-15.5-2.13-32.1-0.073-47.6-2.21zm176,89.3c-13.8,7.38-29.1,10.7-42.9,18.1-13.8,7.38-26,18.8-39.8,26.2-13.8,7.38-29.1,10.7-42.9,18.1-13.8,7.38-26,18.8-39.8,26.2-0.003,0.001-0.0317,0.00001-0.0337,0.002-0.002,0.002,0.003,0.0317,0.002,0.0337,15.1-3.99,28.6-12,43.7-16,15.1-3.99,31.7-3.92,46.8-7.9,15.1-3.99,28.6-12,43.7-16,15.1-3.99,31.7-3.92,46.8-7.9v0.89c-1.3-3.4-2.6-6.79-3.9-10.2-1.3-3.4-2.57-6.8-3.86-10.2-1.3-3.4-2.6-6.79-3.9-10.2-1.3-3.4-2.6-6.79-3.9-10.2,0,0.00012-0.031,0.00064-0.034,0.002zm207-10.4c-0.948,3.51-1.91,7.02-2.85,10.5-0.948,3.51-1.87,7.02-2.82,10.5-0.948,3.51-1.91,7.02-2.85,10.5-0.948,3.51-1.91,7.02-2.85,10.5,0.001,0.002-0.0005,0.0323,0,0.0337,0,0.001,0.031-0.002,0.034-0.002,15.5,2.13,29.9,8.44,45.4,10.6,15.5,2.13,32.1,0.073,47.6,2.21,15.5,2.13,29.8,8.44,45.3,10.6,15.5,2.13,32.1,0.107,47.6,2.24-14.5-5.63-30.2-7.13-44.7-12.8-14.5-5.64-28-15.5-42.5-21.1-14.5-5.64-30.2-7.12-44.8-12.8-14.5-5.64-28-15.5-42.5-21.1,0,0.00017-0.032,0.00071-0.034,0.002zm-178,68c-6.82,14.1-17.3,25.8-24.1,39.9-6.82,14.1-10,30.5-16.8,44.6-6.82,14.1-17.3,25.8-24.1,39.9-6.82,14.1-9.99,30.5-16.8,44.6,9.85-12.1,16.1-26.5,26-38.6,9.86-12.1,23.3-21.8,33.2-33.9,9.86-12.1,16.1-26.5,26-38.6,9.86-12.1,23.3-21.8,33.2-33.9,0.001-0.002,0-0.0311,0-0.0337-3.04-1.99-6.09-3.98-9.13-5.97s-6.09-3.98-9.13-5.97-6.08-3.95-9.13-5.94c-3.04-1.99-6.09-3.98-9.13-5.97,0-0.001-0.032,0.002-0.034,0.002zm155-7.8c-2.83,2.28-5.66,4.57-8.49,6.86-2.83,2.28-5.69,4.54-8.52,6.82s-5.66,4.57-8.49,6.86c-2.83,2.28-5.66,4.57-8.49,6.86,0,0.002-0.0001,0.0315,0,0.0337,11.3,10.8,19.2,24.4,30.5,35.2s25.9,19,37.2,29.8,19.2,24.4,30.5,35.2,25.9,18.9,37.2,29.8c-8.45-13.1-20.2-23.5-28.7-36.6-8.45-13.1-13.6-28.9-22-42.1-8.45-13.1-20.3-23.5-28.7-36.7-8.45-13.1-13.6-28.9-22-42.1zm-97.7,37.3v0.0337c2.76,15.4,1.2,31,3.96,46.4s9.84,30.6,12.6,46,1.2,31,3.96,46.4,9.84,30.6,12.6,46c0,0.002,0.032-0.002,0.034-0.002,0.872-15.6-2.57-30.9-1.7-46.5,0.872-15.6,6.04-31.4,6.91-47,0.872-15.6-2.57-30.9-1.7-46.5,0.872-15.6,6.07-31.4,6.94-47-0.001-0.002-0.0001-0.0319,0-0.0337-3.63,0.183-7.27,0.366-10.9,0.548-3.63,0.183-7.27,0.366-10.9,0.548-3.63,0.183-7.27,0.366-10.9,0.548-3.63,0.183-7.24,0.364-10.9,0.547,0,0.001-0.032-0.00028-0.034,0.002z"/>
  <path d="M671,352c0,178-145,323-323,323s-323-145-323-323,145-323,323-323,323,145,323,323z" transform="matrix(0.5,0,0,0.5,1066,210)" fill="url(#radialGradient3039)"/>
  <path opacity="0.8" d="M671,352c0,178-145,323-323,323s-323-145-323-323,145-323,323-323,323,145,323,323z" transform="matrix(0.2,0,0,0.2,1052,200)" fill="url(#radialGradient3041)"/>
 </g>
 <path stroke-linejoin="miter" d="M78.8,49c-50.2,25-70.4,73-70.4,73,6.62-9,14.6-18,23.2-25.4-13.3,20.4-19.2,40.4-19.2,40.4l-9.44,12.5c1.13,3.16,12.9,8.45,16.8-3.08,38.8-118,126-89,158-73.4,0.0376,0.0182,0.164,0.142,0.202,0.161,0.32,0.342,3.24,1.35,7.99,4.05-0.801,7.06-4.84,49.1-38.5,78.7-21.4,18.8-65.1,18.8-101,17.4,0,0,45.3,8.96,85.7-3.18,47.3-14.2,62.9-72.8,64.6-91,1.29-0.49,2.28-1.15,2.25-1.17-0.0394-0.0326,21.6-11.5,13.6-15.1-16.2-7.35-30.7-12.5-44.1-15.8-5.66-1.37-11.1-2.32-16.4-3.05,19.2-3.5,32.6-4.68,33.7-5.23-0.0613-0.0252-0.0654-0.137-0.202-0.161-1.93-0.331-14.4-3.73-34-4.79-29.4-1.59-53.6,4.69-73.3,14.5z" fill-rule="evenodd" stroke="#000" stroke-linecap="butt" stroke-miterlimit="4" stroke-dasharray="none" stroke-width="0.36919254" fill="#000"/>
</svg>
