<?xml version="1.0"?>
<?metis version="3.1"?>
<?metisxml version="1.0"?>
<!DOCTYPE svg  PUBLIC "-//W3C//DTD SVG August 1999//EN"
 "http://www.w3.org/Graphics/SVG/svg-19990812.dtd">

<svg width="200" height="200">
 <title>Symbol library: vision1.svg</title>
 <defs>
  <symbol id="oid1" xml:space="preserve" class="METIS_SYMBOL">
   <title>Vision</title>
    <g>
      <polygon points="0 0 0 304 16 320 
       880 320 880 16 864 0 0 0 
       0 0 0 0 0 0 0 0 0 0 "
       style=" stroke:#000000; stroke-width:1; fill:#9b9b9b; fill-opacity:100%"       class="TAG:shadow"></polygon>
      <rect x="0" y="0" width="240" height="304"
       style=" stroke:#000000; stroke-width:1; fill:#ffff6e; fill-opacity:100%"       class="TAG:PictureBackground"></rect>
      <rect x="240" y="0" width="624" height="304"
       style=" stroke:#000000; stroke-width:1; fill:#ff8c8c; fill-opacity:100%"       class="TAG:canvas"></rect>
      <g>
	<desc>METIS_TEXT_GROUP</desc>
	<text  x="256" y="15.8"
	 style=" stroke:#000000; stroke-width:1; font-family:sans-serif; font-size:16;"
	 class="TAG:text">text</text>
	<rect x="256" y="0" width="608" height="304"
	 style=" stroke:#000000; stroke-width:1; fill:#ffffff; fill-opacity:0%"></rect>
      </g>
      <polyline points="864 304 880 320"
       style=" stroke:#000000; stroke-width:1;"></polyline>
      <g>
	<polygon points="93.7073 89.6781 57.794 89.6781 86.0893 98.3839 
	 69.7653 103.825 88.2653 107.09 48 132.121 92.6187 115.796 
	 79.5593 129.944 99.1487 124.503 68.6773 156.063 101.325 131.033 
	 92.6187 152.798 110.031 139.739 111.119 156.063 118.737 139.739 
	 126.355 183.269 132.885 139.739 139.415 165.857 139.415 138.65 
	 164.445 169.121 148.121 129.944 168.797 138.65 156.827 122.326 
	 198.181 137.561 160.091 114.709 179.681 113.62 163.357 107.09 
	 172.063 103.825 159.004 101.649 199.269 91.8547 161.18 94.0309 
	 172.063 84.2368 155.739 88.5898 193.829 62.4714 154.651 79.8837 
	 160.091 67.9128 148.121 74.4423 160.091 47.2357 135.061 69.0011 
	 132.885 32 124.179 67.9128 119.826 59.2067 116.561 67.9128 
	 94.7953 36.353 106.767 73.3541 91.53 64.6479 98.06 77.7072 
	 65.4127 62.4714 93.7073 89.6781 93.7073 89.6781 93.7073 89.6781 93.7073 89.6781 "
	 style=" stroke:#000000; stroke-width:1; fill:#ffff14; fill-opacity:100%"></polygon>
	<polygon points="125.267 128.164 127.474 127.061 130.784 127.061 
	 132.991 127.061 135.198 125.958 137.405 124.855 139.612 123.752 
	 141.819 121.546 142.922 120.443 145.129 118.237 146.233 116.031 
	 147.336 113.825 148.44 111.619 149.543 109.413 150.647 107.207 
	 150.647 103.898 150.647 101.692 150.647 99.486 150.647 96.1769 
	 149.543 93.9705 148.44 91.7649 147.336 89.5589 146.233 87.3529 
	 145.129 85.1469 142.922 82.9409 141.819 81.8379 139.612 79.6319 
	 137.405 78.5289 135.198 77.4259 132.991 76.3229 130.784 76.3229 
	 127.474 76.3229 125.267 75.2199 121.956 76.3229 119.749 76.3229 
	 117.542 76.3229 115.335 77.4259 113.128 78.5289 110.921 79.6319 
	 108.714 81.8379 106.507 82.9409 105.404 85.1469 103.197 87.3529 
	 102.093 89.5589 100.99 91.7649 100.99 93.9705 99.886 96.1769 
	 99.886 99.486 98.7833 101.692 99.886 103.898 99.886 107.207 
	 100.99 109.413 100.99 111.619 102.093 113.825 103.197 116.031 
	 105.404 118.237 106.507 120.443 108.714 121.546 110.921 123.752 
	 113.128 124.855 115.335 125.958 117.542 127.061 119.749 127.061 
	 121.956 127.061 125.267 128.164 125.267 128.164 125.267 128.164 125.267 128.164 "
	 style=" stroke:#000000; stroke-width:1; fill:#ffff14; fill-opacity:100%"></polygon>
      </g>
      <polygon points="22.2978 193.504 20.4087 194.234 18.5191 195.692 
       16.63 197.151 16 198.61 16 200.068 16 201.527 
       16.63 202.256 17.2596 202.986 18.5191 203.715 20.4087 203.715 
       22.2978 204.444 24.1874 204.444 26.0765 204.444 28.5957 204.444 
       31.1148 203.715 33.6339 203.715 35.5235 202.986 38.0426 202.256 
       39.9318 202.256 41.8213 201.527 43.7105 200.798 46.23 202.256 
       49.3787 202.986 51.8978 202.986 55.0469 202.256 58.1957 201.527 
       60.7148 200.798 63.2339 200.068 65.7531 200.798 67.6426 202.256 
       70.7913 202.256 73.9404 201.527 77.0895 200.798 80.2383 200.068 
       84.017 199.339 86.5361 198.61 89.0552 197.88 90.9448 198.61 
       92.8339 199.339 94.0935 200.068 95.983 200.798 97.2426 200.798 
       99.1318 201.527 100.391 201.527 102.281 202.256 103.54 202.256 
       105.43 202.256 107.319 202.256 109.209 201.527 110.468 201.527 
       112.357 201.527 114.247 201.527 116.766 200.798 118.655 202.256 
       121.174 202.986 124.323 203.715 126.843 204.444 129.991 203.715 
       132.51 202.986 133.77 202.256 134.4 200.068 134.4 198.61 
       133.14 197.151 131.881 196.422 130.621 195.692 128.732 194.963 
       127.472 194.963 126.213 194.963 125.583 194.963 123.693 193.504 
       121.804 192.046 120.545 190.587 119.285 189.857 118.026 189.857 
       116.766 189.128 114.877 189.128 112.357 189.128 111.728 189.128 
       111.098 188.399 110.468 186.94 109.838 185.481 108.579 184.752 
       107.949 183.293 106.69 182.564 105.43 181.835 103.54 181.835 
       102.281 180.376 101.651 178.917 100.391 178.188 98.5022 177.459 
       96.6126 176.729 94.7235 176.729 92.8339 176 90.9448 176.729 
       89.0552 176.729 87.1661 177.459 85.2765 178.188 84.017 178.917 
       82.1278 179.647 80.8682 181.105 79.6087 181.835 78.9787 183.293 
       75.83 181.105 73.3105 179.647 70.7913 178.917 68.9022 178.917 
       67.0126 180.376 65.1235 181.835 64.4935 184.023 63.8639 186.211 
       62.6043 186.211 61.3448 186.211 59.4552 186.211 58.1957 186.211 
       56.9361 186.211 55.0469 186.211 53.7874 186.94 52.5278 186.94 
       50.6383 186.94 49.3787 187.669 48.1191 187.669 46.8596 188.399 
       45.6 189.128 44.97 190.587 44.3404 191.316 43.0809 192.775 
       41.1913 192.775 39.3022 193.504 37.4126 193.504 35.5235 194.963 
       34.2639 193.504 32.3744 192.775 31.1148 192.046 29.2256 191.316 
       27.3361 191.316 25.4469 191.316 23.5574 192.046 22.2978 193.504 
       22.2978 193.504 22.2978 193.504 22.2978 193.504 "
       style=" stroke:#ababab; stroke-width:1; fill:#ffffff; fill-opacity:100%"></polygon>
      <polygon points="205.393 193.552 203.932 192.776 202.471 192 
       201.011 192 199.55 192 197.359 192 195.168 192.776 
       193.707 193.552 191.516 195.103 190.786 193.552 189.325 192.776 
       187.134 192 185.673 192 183.483 192 181.292 192.776 
       179.831 193.552 178.37 195.103 179.831 194.327 181.292 194.327 
       182.752 194.327 183.483 195.103 185.673 195.879 186.404 196.655 
       187.865 198.206 188.595 198.982 190.056 199.758 191.516 200.533 
       192.977 199.758 192.977 199.758 193.707 198.982 194.437 198.206 
       195.898 197.43 198.089 195.879 199.55 195.103 201.011 195.103 
       203.201 194.327 205.393 193.552 205.393 193.552 205.393 193.552 205.393 193.552 "
       style=" stroke:#000000; stroke-width:1; fill:#000000; fill-opacity:100%"></polygon>
      <polygon points="194.489 201.007 193.01 201.749 191.531 202.491 
       190.052 203.233 189.312 203.976 188.572 206.202 187.833 206.944 
       187.833 208.428 187.833 209.17 186.354 209.17 184.875 209.17 
       183.396 209.17 181.916 209.912 179.698 211.396 178.219 213.622 
       177.479 215.848 176 218.074 178.219 215.848 180.437 214.364 
       181.916 213.622 184.135 213.622 185.614 213.622 187.093 213.622 
       188.572 213.622 188.572 213.622 190.052 213.622 190.791 212.138 
       191.531 211.396 191.531 209.912 191.531 208.428 191.531 207.686 
       191.531 206.202 191.531 204.718 193.01 202.491 194.489 201.007 
       194.489 201.007 194.489 201.007 194.489 201.007 "
       style=" stroke:#000000; stroke-width:1; fill:#000000; fill-opacity:100%"></polygon>
      <polygon points="197.096 215.822 197.828 213.556 199.291 212.044 
       200.754 210.533 202.216 209.022 204.411 208.267 206.605 208.267 
       208.068 209.022 210.262 209.022 211.725 207.511 212.456 206.756 
       213.188 205.244 214.651 204.489 216.845 204.489 218.308 203.733 
       220.502 204.489 222.696 204.489 219.771 206 217.576 206.756 
       215.382 207.511 214.651 209.022 213.188 209.778 212.456 210.533 
       212.456 212.044 211.725 212.8 210.994 214.311 208.799 213.556 
       207.336 212.8 206.605 212.8 205.142 212.044 203.679 212.044 
       202.216 212.8 200.754 213.556 198.559 214.311 197.096 215.822 
       197.096 215.822 197.096 215.822 197.096 215.822 "
       style=" stroke:#000000; stroke-width:1; fill:#000000; fill-opacity:100%"></polygon>
      <polygon points="118.298 113.504 116.409 114.234 114.519 115.692 
       112.63 117.151 112 118.61 112 120.068 112 121.527 
       112.63 122.256 113.26 122.986 114.519 123.715 116.409 123.715 
       118.298 124.444 120.187 124.444 122.077 124.444 124.596 124.444 
       127.115 123.715 129.634 123.715 131.523 122.986 134.043 122.256 
       135.932 122.256 137.821 121.527 139.71 120.798 142.23 122.256 
       145.379 122.986 147.898 122.986 151.047 122.256 154.196 121.527 
       156.715 120.798 159.234 120.068 161.753 120.798 163.643 122.256 
       166.791 122.256 169.94 121.527 173.09 120.798 176.238 120.068 
       180.017 119.339 182.536 118.61 185.055 117.88 186.945 118.61 
       188.834 119.339 190.093 120.068 191.983 120.798 193.243 120.798 
       195.132 121.527 196.391 121.527 198.281 122.256 199.54 122.256 
       201.43 122.256 203.319 122.256 205.209 121.527 206.468 121.527 
       208.357 121.527 210.247 121.527 212.766 120.798 214.655 122.256 
       217.174 122.986 220.323 123.715 222.843 124.444 225.991 123.715 
       228.51 122.986 229.77 122.256 230.4 120.068 230.4 118.61 
       229.14 117.151 227.881 116.422 226.621 115.692 224.732 114.963 
       223.472 114.963 222.213 114.963 221.583 114.963 219.693 113.504 
       217.804 112.046 216.545 110.587 215.285 109.857 214.026 109.857 
       212.766 109.128 210.877 109.128 208.357 109.128 207.728 109.128 
       207.098 108.399 206.468 106.94 205.838 105.481 204.579 104.752 
       203.949 103.293 202.69 102.564 201.43 101.835 199.54 101.835 
       198.281 100.376 197.651 98.9173 196.391 98.188 194.502 97.4587 
       192.613 96.7293 190.723 96.7293 188.834 96 186.945 96.7293 
       185.055 96.7293 183.166 97.4587 181.277 98.188 180.017 98.9173 
       178.128 99.6467 176.868 101.105 175.609 101.835 174.979 103.293 
       171.83 101.105 169.31 99.6467 166.791 98.9173 164.902 98.9173 
       163.013 100.376 161.123 101.835 160.493 104.023 159.864 106.211 
       158.604 106.211 157.345 106.211 155.455 106.211 154.196 106.211 
       152.936 106.211 151.047 106.211 149.787 106.94 148.528 106.94 
       146.638 106.94 145.379 107.669 144.119 107.669 142.86 108.399 
       141.6 109.128 140.97 110.587 140.34 111.316 139.081 112.775 
       137.191 112.775 135.302 113.504 133.413 113.504 131.523 114.963 
       130.264 113.504 128.374 112.775 127.115 112.046 125.226 111.316 
       123.336 111.316 121.447 111.316 119.557 112.046 118.298 113.504 
       118.298 113.504 118.298 113.504 118.298 113.504 "
       style=" stroke:#ababab; stroke-width:1; fill:#ffffff; fill-opacity:100%"></polygon>
      <polygon points="22.2978 61.5387 20.4087 62.7695 18.5191 65.231 
       16.63 67.6925 16 70.154 16 72.6155 16 75.077 
       16.63 76.3077 17.2596 77.5385 18.5191 78.7692 20.4087 78.7692 
       22.2978 80 24.1874 80 26.0765 80 28.5957 80 
       31.1148 78.7692 33.6339 78.7692 35.5235 77.5385 38.0426 76.3077 
       39.9318 76.3077 41.8213 75.077 43.7105 73.8462 46.23 76.3077 
       49.3787 77.5385 51.8978 77.5385 55.0469 76.3077 58.1957 75.077 
       60.7148 73.8462 63.2339 72.6155 65.7531 73.8462 67.6426 76.3077 
       70.7913 76.3077 73.9404 75.077 77.0895 73.8462 80.2383 72.6155 
       84.017 71.3847 86.5361 70.154 89.0552 68.9232 90.9448 70.154 
       92.8339 71.3847 94.0935 72.6155 95.983 73.8462 97.2426 73.8462 
       99.1318 75.077 100.391 75.077 102.281 76.3077 103.54 76.3077 
       105.43 76.3077 107.319 76.3077 109.209 75.077 110.468 75.077 
       112.357 75.077 114.247 75.077 116.766 73.8462 118.655 76.3077 
       121.174 77.5385 124.323 78.7692 126.843 80 129.991 78.7692 
       132.51 77.5385 133.77 76.3077 134.4 72.6155 134.4 70.154 
       133.14 67.6925 131.881 66.4617 130.621 65.231 128.732 64.0003 
       127.472 64.0003 126.213 64.0003 125.583 64.0003 123.693 61.5387 
       121.804 59.0772 120.545 56.6158 119.285 55.3842 118.026 55.3842 
       116.766 54.1535 114.877 54.1535 112.357 54.1535 111.728 54.1535 
       111.098 52.9227 110.468 50.4612 109.838 47.9997 108.579 46.769 
       107.949 44.3075 106.69 43.0767 105.43 41.846 103.54 41.846 
       102.281 39.3845 101.651 36.923 100.391 35.6923 98.5022 34.4615 
       96.6126 33.2307 94.7235 33.2307 92.8339 32 90.9448 33.2307 
       89.0552 33.2307 87.1661 34.4615 85.2765 35.6923 84.017 36.923 
       82.1278 38.1537 80.8682 40.6153 79.6087 41.846 78.9787 44.3075 
       75.83 40.6153 73.3105 38.1537 70.7913 36.923 68.9022 36.923 
       67.0126 39.3845 65.1235 41.846 64.4935 45.5382 63.8639 49.2305 
       62.6043 49.2305 61.3448 49.2305 59.4552 49.2305 58.1957 49.2305 
       56.9361 49.2305 55.0469 49.2305 53.7874 50.4612 52.5278 50.4612 
       50.6383 50.4612 49.3787 51.692 48.1191 51.692 46.8596 52.9227 
       45.6 54.1535 44.97 56.6158 44.3404 57.8465 43.0809 60.308 
       41.1913 60.308 39.3022 61.5387 37.4126 61.5387 35.5235 64.0003 
       34.2639 61.5387 32.3744 60.308 31.1148 59.0772 29.2256 57.8465 
       27.3361 57.8465 25.4469 57.8465 23.5574 59.0772 22.2978 61.5387 
       22.2978 61.5387 22.2978 61.5387 22.2978 61.5387 "
       style=" stroke:#ababab; stroke-width:1; fill:#ffffff; fill-opacity:100%"></polygon>
      <polygon points="45.3926 129.552 43.9321 128.776 42.4713 128 
       41.0108 128 39.5499 128 37.3588 128 35.1681 128.776 
       33.7073 129.552 31.5161 131.103 30.7859 129.552 29.3255 128.776 
       27.1344 128 25.6735 128 23.4828 128 21.2917 128.776 
       19.8308 129.552 18.3704 131.103 19.8308 130.327 21.2917 130.327 
       22.7521 130.327 23.4828 131.103 25.6735 131.879 26.4041 132.655 
       27.8646 134.206 28.5948 134.982 30.0557 135.758 31.5161 136.533 
       32.977 135.758 32.977 135.758 33.7073 134.982 34.4375 134.206 
       35.8984 133.43 38.0895 131.879 39.5499 131.103 41.0108 131.103 
       43.2015 130.327 45.3926 129.552 45.3926 129.552 45.3926 129.552 45.3926 129.552 "
       style=" stroke:#000000; stroke-width:1; fill:#000000; fill-opacity:100%"></polygon>
      <polygon points="34.4889 137.007 33.0098 137.749 31.5307 138.491 
       30.0516 139.233 29.312 139.976 28.5724 142.202 27.8329 142.944 
       27.8329 144.428 27.8329 145.17 26.3538 145.17 24.8747 145.17 
       23.3956 145.17 21.9164 145.912 19.6978 147.396 18.2187 149.622 
       17.4791 151.848 16 154.074 18.2187 151.848 20.4373 150.364 
       21.9164 149.622 24.1351 149.622 25.6142 149.622 27.0933 149.622 
       28.5724 149.622 28.5724 149.622 30.0516 149.622 30.7911 148.138 
       31.5307 147.396 31.5307 145.912 31.5307 144.428 31.5307 143.686 
       31.5307 142.202 31.5307 140.718 33.0098 138.491 34.4889 137.007 
       34.4889 137.007 34.4889 137.007 34.4889 137.007 "
       style=" stroke:#000000; stroke-width:1; fill:#000000; fill-opacity:100%"></polygon>
      <polygon points="37.0963 151.822 37.8279 149.556 39.2905 148.044 
       40.7536 146.533 42.2163 145.022 44.4105 144.267 46.6047 144.267 
       48.0679 145.022 50.2621 145.022 51.7247 143.511 52.4563 142.756 
       53.1879 141.244 54.6505 140.489 56.8447 140.489 58.3079 139.733 
       60.5021 140.489 62.6963 140.489 59.7705 142 57.5763 142.756 
       55.3821 143.511 54.6505 145.022 53.1879 145.778 52.4563 146.533 
       52.4563 148.044 51.7247 148.8 50.9936 150.311 48.799 149.556 
       47.3363 148.8 46.6047 148.8 45.1421 148.044 43.679 148.044 
       42.2163 148.8 40.7536 149.556 38.559 150.311 37.0963 151.822 
       37.0963 151.822 37.0963 151.822 37.0963 151.822 "
       style=" stroke:#000000; stroke-width:1; fill:#000000; fill-opacity:100%"></polygon>
    </g>
  </symbol>
 </defs>
</svg>
