<?xml version="1.0" encoding="UTF-8" standalone="no"?>

<svg
 xmlns:dc="http://purl.org/dc/elements/1.1/"
   xmlns:cc="http://creativecommons.org/ns#"
   xmlns:rdf="http://www.w3.org/1999/02/22-rdf-syntax-ns#"
   xmlns:svg="http://www.w3.org/2000/svg"
   xmlns="http://www.w3.org/2000/svg"
   xmlns:xlink="http://www.w3.org/1999/xlink"
   xmlns:sodipodi="http://sodipodi.sourceforge.net/DTD/sodipodi-0.dtd"
   xmlns:inkscape="http://www.inkscape.org/namespaces/inkscape"
   id="svg2"
   version="1.1"
   inkscape:version="0.47 r22583"
   width="100"
   height="100"
   sodipodi:docname="web_resource_locator.svg">
  <metadata
     id="metadata60">
    <rdf:RDF>
      <cc:Work
         rdf:about="">
        <dc:format>image/svg+xml</dc:format>
        <dc:type
           rdf:resource="http://purl.org/dc/dcmitype/StillImage" />
      </cc:Work>
    </rdf:RDF>
  </metadata>
  <defs
     id="defs58">
    <linearGradient
       inkscape:collect="always"
       id="linearGradient3648">
      <stop
         style="stop-color:#009900;stop-opacity:1;"
         offset="0"
         id="stop3650" />
      <stop
         style="stop-color:#009900;stop-opacity:0;"
         offset="1"
         id="stop3652" />
    </linearGradient>
    <linearGradient
       inkscape:collect="always"
       id="linearGradient3640">
      <stop
         style="stop-color:#68a1cb;stop-opacity:1;"
         offset="0"
         id="stop3642" />
      <stop
         style="stop-color:#68a1cb;stop-opacity:0;"
         offset="1"
         id="stop3644" />
    </linearGradient>
    <inkscape:perspective
       sodipodi:type="inkscape:persp3d"
       inkscape:vp_x="0 : 0.5 : 1"
       inkscape:vp_y="0 : 1000 : 0"
       inkscape:vp_z="1 : 0.5 : 1"
       inkscape:persp3d-origin="0.5 : 0.33333333 : 1"
       id="perspective62" />
    <linearGradient
       inkscape:collect="always"
       xlink:href="#linearGradient3640"
       id="linearGradient3646"
       x1="15.624"
       y1="390.62549"
       x2="749.99902"
       y2="390.62549"
       gradientUnits="userSpaceOnUse" />
    <linearGradient
       inkscape:collect="always"
       xlink:href="#linearGradient3648"
       id="linearGradient3654"
       x1="132.812"
       y1="539.06299"
       x2="476.56201"
       y2="539.06299"
       gradientUnits="userSpaceOnUse" />
    <linearGradient
       inkscape:collect="always"
       xlink:href="#linearGradient3648"
       id="linearGradient3656"
       x1="585.93701"
       y1="527.34399"
       x2="734.375"
       y2="527.34399"
       gradientUnits="userSpaceOnUse" />
    <linearGradient
       inkscape:collect="always"
       xlink:href="#linearGradient3648"
       id="linearGradient3658"
       x1="312.5"
       y1="199.21899"
       x2="710.93799"
       y2="199.21899"
       gradientUnits="userSpaceOnUse" />
  </defs>
  <sodipodi:namedview
     pagecolor="#ffffff"
     bordercolor="#666666"
     borderopacity="1"
     objecttolerance="10"
     gridtolerance="10"
     guidetolerance="10"
     inkscape:pageopacity="0"
     inkscape:pageshadow="2"
     inkscape:window-width="1680"
     inkscape:window-height="994"
     id="namedview56"
     showgrid="false"
     inkscape:zoom="7.49"
     inkscape:cx="50"
     inkscape:cy="50"
     inkscape:window-x="-4"
     inkscape:window-y="-4"
     inkscape:window-maximized="1"
     inkscape:current-layer="svg2" />
  <polygon
     points="481.475,765.545 513.048,757.653 552.512,741.869 584.084,726.084 639.336,678.731 678.801,631.377 710.373,584.025 734.053,536.671 757.732,465.641 765.622,394.612 757.732,315.689 741.945,244.659 702.481,181.521 663.016,126.275 607.764,78.9232 536.727,39.4616 465.689,15.7854 386.759,0 315.722,7.8927 244.684,31.5689 181.54,63.1377 118.395,102.599 71.037,157.844 31.572,228.875 31.572,228.875 7.893,299.905 0,370.935 7.893,449.857 31.572,512.994 63.144,584.025 110.502,639.27 165.753,686.623 228.898,726.084 284.15,749.761 339.4,765.545 386.759,773.438 434.117,773.438 "
     style="fill:#333333;fill-opacity:1;stroke:none"
     id="polygon4"
     transform="matrix(0.12929285,0,0,0.12929285,0,1.171875e-5)" />
  <polygon
     points="742.102,323.505 749.999,394.575 742.102,457.747 718.413,528.815 694.724,576.194 663.138,631.469 615.758,678.849 568.38,718.331 505.208,742.021 465.725,749.917 426.242,757.813 386.76,757.813 339.381,749.917 292.002,734.124 236.726,710.435 173.554,678.849 118.279,631.469 78.796,576.194 47.21,513.022 23.521,441.953 15.624,370.884 23.521,299.816 47.21,236.644 47.21,236.644 86.693,173.472 134.072,118.196 189.348,70.8171 252.52,47.128 315.692,23.438 386.76,23.438 457.828,31.334 528.897,55.024 592.069,86.6101 647.344,133.989 694.724,189.264 726.31,252.436 "
     style="fill:url(#linearGradient3646);fill-opacity:1;stroke:none"
     id="polygon6"
     transform="matrix(0.12929285,0,0,0.12929285,0,1.171875e-5)" />
  <polygon
     points="757.812,375.545 749.699,351.563 741.585,367.551 741.585,367.551 652.343,479.47 636.117,527.435 595.553,583.395 546.874,695.313 571.213,679.326 587.439,671.331 628.005,647.349 668.569,599.383 692.908,575.401 709.133,543.424 733.473,479.47 749.699,423.511 "
     style="fill:#009900;fill-opacity:1;stroke:none"
     id="polygon8"
     transform="matrix(0.12929285,0,0,0.12929285,0,1.171875e-5)" />
  <polygon
     points="668.403,479.004 734.375,398.438 726.129,446.778 701.389,519.288 693.143,535.4 668.403,575.684 643.662,607.91 585.937,656.25 610.676,591.797 610.676,591.797 651.909,535.4 "
     style="fill:url(#linearGradient3656);fill-opacity:1;stroke:none"
     id="polygon10"
     transform="matrix(0.12929285,0,0,0.12929285,0,1.171875e-5)" />
  <polygon
     points="133.3,638.797 149.251,662.733 181.152,686.67 236.978,710.607 268.879,726.563 348.633,686.67 412.435,686.67 452.31,686.67 468.261,678.692 476.237,670.712 484.211,662.733 492.186,630.818 492.186,598.903 484.211,566.988 484.211,503.158 484.211,463.265 476.237,431.35 460.285,423.372 444.336,407.414 420.409,391.457 396.483,367.52 372.558,351.563 348.633,351.563 324.706,359.542 308.756,367.52 308.756,367.52 276.855,383.478 252.93,399.435 229.003,431.35 229.003,439.329 221.029,463.265 221.029,495.18 236.978,527.095 236.978,551.032 221.029,566.988 173.176,582.947 109.374,606.882 117.35,614.862 "
     style="fill:#009900;fill-opacity:1;stroke:none"
     id="polygon12"
     transform="matrix(0.12929285,0,0,0.12929285,0,1.171875e-5)" />
  <polygon
     points="364.643,367.188 380.632,375.182 412.609,407.158 436.591,423.148 460.573,439.135 468.567,495.095 468.567,567.042 476.562,607.013 476.562,630.995 468.567,654.978 460.573,662.972 444.585,670.967 412.609,670.967 348.655,670.967 268.712,710.938 236.736,694.949 188.772,670.967 148.8,638.99 132.812,615.008 180.777,599.019 228.742,583.031 228.742,583.031 244.73,567.042 252.725,551.055 252.725,527.071 260.719,527.071 252.725,519.078 244.73,495.095 236.736,463.118 244.73,439.135 260.719,415.153 284.702,399.165 316.679,383.176 340.661,367.188 "
     style="fill:url(#linearGradient3654);fill-opacity:1;stroke:none"
     id="polygon14"
     transform="matrix(0.12929285,0,0,0.12929285,0,1.171875e-5)" />
  <polygon
     points="344.602,223.144 344.602,239.096 360.51,286.946 360.51,310.873 352.556,334.799 344.602,358.724 328.692,366.7 320.738,382.649 376.42,390.625 400.283,302.898 416.193,263.021 455.965,223.144 455.965,215.169 455.965,207.195 455.965,199.219 440.057,191.243 416.193,175.294 416.193,151.367 424.147,143.393 440.057,151.367 448.011,167.318 448.011,191.243 463.92,199.219 487.783,191.243 495.738,183.269 503.693,183.269 511.647,191.243 519.601,223.144 527.556,255.045 519.601,270.997 511.647,278.972 503.693,294.922 503.693,310.873 511.647,318.847 519.601,326.823 527.556,326.823 567.329,270.997 599.147,247.07 662.784,278.972 734.374,247.07 726.42,239.096 670.738,159.342 623.01,103.516 591.192,79.5908 559.374,55.6645 495.738,31.7382 432.102,15.7888 360.51,7.813 360.51,7.813 312.784,31.7382 312.784,39.714 304.829,79.5908 296.874,111.492 296.874,119.466 304.829,119.466 312.784,127.441 320.738,119.466 328.692,111.492 312.784,151.367 320.738,175.294 328.692,199.219 "
     style="fill:#009900;fill-opacity:1;stroke:none"
     id="polygon16"
     transform="matrix(0.12929285,0,0,0.12929285,0,1.171875e-5)" />
  <polygon
     points="535.626,223.214 527.657,191.22 511.719,167.225 495.781,167.225 479.844,175.224 463.906,183.222 463.906,167.225 455.937,135.231 440,127.232 424.062,127.232 408.125,127.232 400.156,135.231 400.156,143.23 392.187,167.225 400.156,183.222 432.031,199.219 440,215.216 400.156,255.208 384.219,303.2 360.312,367.188 352.343,367.188 368.281,343.192 376.25,311.198 376.25,279.204 360.312,231.213 352.343,215.216 344.375,183.222 336.406,151.228 344.375,111.236 360.312,79.242 360.312,55.246 352.343,47.248 336.406,47.248 328.437,63.244 320.468,79.242 320.468,95.238 312.5,103.237 328.437,47.248 360.312,31.25 432.031,39.249 487.812,47.248 551.562,71.243 551.562,71.243 607.344,111.236 647.188,159.226 710.938,239.212 663.126,263.207 599.376,231.213 559.532,255.208 519.687,303.2 519.687,295.201 527.657,287.202 527.657,279.204 535.626,271.206 543.594,255.208 "
     style="fill:url(#linearGradient3658);fill-opacity:1;stroke:none"
     id="polygon18"
     transform="matrix(0.12929285,0,0,0.12929285,0,1.171875e-5)" />
  <polygon
     points="351.562,70.313 351.562,82.0325 335.937,93.751 335.937,93.751 "
     style="fill:#009900;fill-opacity:1;stroke:none"
     id="polygon20"
     transform="matrix(0.12929285,0,0,0.12929285,0,1.171875e-5)" />
  <polygon
     points="440.873,689.017 487.243,673.569 533.612,650.397 579.98,619.502 618.62,580.884 657.262,542.265 688.175,495.921 711.359,449.579 726.816,403.235 750,325.998 750,279.654 734.544,279.654 734.544,341.444 719.088,387.788 703.631,434.131 664.991,503.645 610.893,573.16 572.253,604.056 533.612,627.226 494.971,650.397 448.602,665.846 394.504,681.293 348.136,689.017 294.039,696.742 232.213,689.017 317.223,642.674 394.504,596.331 456.329,549.989 510.428,503.645 556.796,457.302 587.708,410.96 618.62,364.616 641.805,325.998 664.991,271.93 672.719,225.588 680.446,140.626 664.991,140.626 664.991,140.626 664.991,194.692 649.533,256.483 626.349,318.274 587.708,395.512 525.883,465.026 440.873,542.265 332.679,619.502 201.301,689.017 201.301,704.464 263.126,712.188 324.952,712.188 386.777,704.464 "
     style="fill:#143a72;fill-opacity:1;stroke:none"
     id="polygon22"
     transform="matrix(0.12929285,0,0,0.12929285,0,1.171875e-5)" />
  <polygon
     points="397.856,15.62 397.856,0 350.8,15.62 280.212,54.6669 240.996,85.9048 201.781,117.143 162.567,156.189 131.195,210.856 107.665,257.714 84.1354,304.571 76.293,359.238 68.4505,413.903 68.4505,468.569 76.293,523.236 91.9789,585.712 107.665,648.188 123.352,648.188 162.567,491.999 209.624,374.856 264.526,273.332 327.27,195.238 382.172,140.572 444.916,93.7134 499.817,70.2859 546.875,54.6669 546.875,39.0479 507.661,46.8579 468.444,70.2859 421.387,93.7134 374.328,124.952 327.27,171.81 280.212,226.475 233.154,296.762 193.939,374.856 193.939,374.856 146.88,484.189 115.507,609.141 91.9789,515.427 84.1354,421.714 91.9789,335.808 123.352,257.714 146.88,218.665 178.252,171.81 209.624,132.762 248.84,93.7134 288.055,70.2859 350.8,31.238 "
     style="fill:#143a72;fill-opacity:1;stroke:none"
     id="polygon24"
     transform="matrix(0.12929285,0,0,0.12929285,0,1.171875e-5)" />
  <polygon
     points="577.598,687.501 617.188,679.552 609.27,663.652 577.598,671.602 545.926,671.602 498.417,671.602 442.991,663.652 379.646,647.754 316.301,615.955 245.038,568.257 181.693,512.61 134.185,456.964 102.512,401.316 78.758,353.619 62.922,305.922 55.004,266.174 55.004,234.376 31.25,234.376 31.25,234.376 39.168,274.123 47.085,305.922 62.922,353.619 86.676,409.266 118.349,464.913 165.857,528.51 237.119,584.157 308.383,631.853 379.646,663.652 442.991,679.552 498.417,687.501 545.926,687.501 "
     style="fill:#143a72;fill-opacity:1;stroke:none"
     id="polygon26"
     transform="matrix(0.12929285,0,0,0.12929285,0,1.171875e-5)" />
  <polygon
     points="569.167,600.768 466.25,545.154 402.916,505.429 331.666,457.76 268.332,402.145 212.916,354.476 133.75,259.137 86.25,203.523 78.332,179.688 62.5,179.688 62.5,179.688 78.332,211.468 117.916,275.027 197.083,362.421 252.5,418.035 323.75,465.705 394.999,521.319 458.333,561.044 561.25,616.658 624.583,640.493 656.25,648.438 656.25,632.547 632.5,624.603 "
     style="fill:#143a72;fill-opacity:1;stroke:none"
     id="polygon28"
     transform="matrix(0.12929285,0,0,0.12929285,0,1.171875e-5)" />
  <polygon
     points="671.668,625 687.499,625 679.583,593.229 640.007,513.802 608.346,466.146 568.77,410.547 521.277,354.948 450.04,299.35 378.803,251.693 315.481,219.922 252.159,188.151 196.751,172.267 117.598,148.438 85.937,148.438 85.937,148.438 85.937,164.323 117.598,172.267 196.751,188.151 244.243,204.037 307.565,227.865 370.887,267.579 442.126,315.234 505.448,370.834 560.854,426.433 600.431,474.088 624.177,521.745 663.754,593.229 "
     style="fill:#143a72;fill-opacity:1;stroke:none"
     id="polygon30"
     transform="matrix(0.12929285,0,0,0.12929285,0,1.171875e-5)" />
  <polygon
     points="695.004,490.803 702.918,538.433 695.004,578.126 718.749,578.126 718.749,538.433 710.833,490.803 702.918,435.233 687.088,371.725 655.427,308.216 607.935,244.708 584.189,212.954 544.613,181.2 473.376,133.569 394.222,109.754 322.985,93.876 259.662,85.938 204.255,93.876 156.764,93.876 117.187,109.754 117.187,109.754 125.103,125.63 164.679,109.754 204.255,109.754 259.662,101.815 322.985,109.754 394.222,125.63 465.46,149.446 536.698,197.077 600.02,252.646 639.596,316.154 671.257,379.663 687.088,435.233 "
     style="fill:#143a72;fill-opacity:1;stroke:none"
     id="polygon32"
     transform="matrix(0.12929285,0,0,0.12929285,0,1.171875e-5)" />
  <polygon
     points="609.507,78.126 152.495,664.752 152.495,664.752 167.988,680.188 624.999,93.5622 "
     style="fill:#143a72;fill-opacity:1;stroke:none"
     id="polygon34"
     transform="matrix(0.12929285,0,0,0.12929285,0,1.171875e-5)" />
  <polygon
     points="453.124,296.876 460.937,304.688 460.937,304.688 "
     style="fill:#444444;fill-opacity:1;stroke:none"
     id="polygon36"
     transform="matrix(0.12929285,0,0,0.12929285,0,1.171875e-5)" />
  <polygon
     points="114.286,320 145.143,320 145.143,453.714 114.286,453.714 114.286,402.286 62.8571,402.286 62.8571,453.714 32,453.714 32,320 62.8571,320 62.8571,371.429 114.286,371.429 114.286,320 "
     style="fill:#ffffff;fill-opacity:1;stroke:#ffffff;stroke-width:1"
     id="polygon38"
     transform="matrix(0.12929285,0,0,0.12929285,0,1.171875e-5)" />
  <polygon
     points="237.714,453.714 206.857,453.714 206.857,350.857 176,350.857 176,320 176,320 278.857,320 278.857,350.857 237.714,350.857 "
     style="fill:#ffffff;fill-opacity:1;stroke:#ffffff;stroke-width:1"
     id="polygon40"
     transform="matrix(0.12929285,0,0,0.12929285,0,1.171875e-5)" />
  <polygon
     points="361.143,453.714 330.286,453.714 330.286,350.857 299.429,350.857 299.429,320 299.429,320 402.286,320 402.286,350.857 361.143,350.857 "
     style="fill:#ffffff;fill-opacity:1;stroke:#ffffff;stroke-width:1"
     id="polygon42"
     transform="matrix(0.12929285,0,0,0.12929285,0,1.171875e-5)" />
  <polygon
     points="433.143,453.714 433.143,320 433.143,320 464,320 464,453.714 "
     style="fill:#ffffff;fill-opacity:1;stroke:#ffffff;stroke-width:1"
     id="polygon44"
     transform="matrix(0.12929285,0,0,0.12929285,0,1.171875e-5)" />
  <path
     d="m 59.99188,41.373722 c 3.039675,0 4.749573,0 4.749573,0 1.918447,0.89186 4.559512,2.91038 4.559512,5.3195 0,3.98959 -2.528063,5.31949 -9.309085,5.31949 0,0 0,0 0,-2.65981 0,-2.65968 5.319496,1.32991 6.649402,-2.65968 0,0 0,-2.65982 -6.649402,-2.65982 z"
     style="fill:#ffffff;fill-opacity:1;stroke:#ffffff;stroke-width:0.12929285"
     id="path46" />
  <polygon
     points="577.143,381.714 577.143,361.143 577.143,361.143 597.714,361.143 597.714,381.714 "
     style="fill:#ffffff;fill-opacity:1;stroke:#ffffff;stroke-width:1"
     id="polygon48"
     transform="matrix(0.12929285,0,0,0.12929285,0,1.171875e-5)" />
  <polygon
     points="577.143,453.714 577.143,433.143 577.143,433.143 597.714,433.143 597.714,453.714 "
     style="fill:#ffffff;fill-opacity:1;stroke:#ffffff;stroke-width:1"
     id="polygon50"
     transform="matrix(0.12929285,0,0,0.12929285,0,1.171875e-5)" />
  <polygon
     points="618.286,464 659.429,320 659.429,320 680,320 638.857,464 "
     style="fill:#ffffff;fill-opacity:1;stroke:#ffffff;stroke-width:1"
     id="polygon52"
     transform="matrix(0.12929285,0,0,0.12929285,0,1.171875e-5)" />
  <polygon
     points="721.143,320 741.714,320 741.714,320 700.571,464 680,464 "
     style="fill:#ffffff;fill-opacity:1;stroke:#ffffff;stroke-width:1"
     id="polygon54"
     transform="matrix(0.12929285,0,0,0.12929285,0,1.171875e-5)" />
</svg>
