<?xml version="1.0"?>
<?metis version="3.1.1"?>
<?metisxml version="1.0"?>
<!DOCTYPE svg  PUBLIC "-//W3C//DTD SVG August 1999//EN"
 "http://www.w3.org/Graphics/SVG/svg-19990812.dtd">

<svg width="200" height="200">
 <title>Symbol library: workware_objects.svg</title>
 <defs>
  <symbol id="oid1" xml:space="preserve" class="METIS_SYMBOL">
   <title>WorkItem Coloured</title>
    <rect x="0" y="0" width="192" height="224" rx="10" ry="10"
     style=" stroke:#000000; stroke-width:1; fill:#dcdcdc; fill-opacity:100%"     class="TAG:main"></rect>
    <g>
      <desc>METIS_TEXT_GROUP</desc>
      <text  x="0" y="71.8"
       style=" stroke:#000000; stroke-width:1; font-family:sans-serif; font-size:40; text-align:center"
       class="TAG:text"></text>
      <rect x="0" y="32" width="192" height="123.173"
       style=" stroke:#000000; stroke-width:1; fill:#ffffff; fill-opacity:0%"></rect>
    </g>
    <polyline points="0 176 88 176 192 176"
     style=" stroke:#000000; stroke-width:1;"></polyline>
  </symbol>
  <symbol id="oid2" xml:space="preserve" class="METIS_SYMBOL">
   <title>Decision Connector - OR</title>
    <ellipse  cx="16" cy="16" rx="16" ry="16"
     style=" stroke:#000000; stroke-width:1; fill:#96a5ff; fill-opacity:100%"></ellipse>
  </symbol>
  <symbol id="oid3" xml:space="preserve" class="METIS_SYMBOL">
   <title>Decision Connector - AND</title>
    <ellipse  cx="16" cy="16" rx="16" ry="16"
     style=" stroke:#000000; stroke-width:1; fill:#96a5ff; fill-opacity:100%"></ellipse>
    <ellipse  cx="16" cy="16" rx="6" ry="6"
     style=" stroke:#000000; stroke-width:1; fill:#000000; fill-opacity:100%"></ellipse>
  </symbol>
  <symbol id="oid4" xml:space="preserve" class="METIS_SYMBOL">
   <title>Decision Connector - XOR</title>
    <g>
      <ellipse  cx="16" cy="16" rx="16" ry="16"
       style=" stroke:#000000; stroke-width:1; fill:#96a5ff; fill-opacity:100%"></ellipse>
      <polyline points="5 5 27 27"
       style=" stroke:#000000; stroke-width:1;"></polyline>
      <polyline points="5 27 27 5"
       style=" stroke:#000000; stroke-width:1;"></polyline>
    </g>
  </symbol>
  <symbol id="oid5" xml:space="preserve" class="METIS_SYMBOL">
   <title>Decision Connector</title>
    <ellipse  cx="106.5" cy="95.5" rx="95.5" ry="95.5"
     style=" stroke:#000000; stroke-width:1; fill:#c5e2ff; fill-opacity:100%"     class="TAG:main"></ellipse>
    <g>
      <desc>METIS_TEXT_GROUP</desc>
      <text  x="0" y="36.8"
       style=" stroke:#000000; stroke-width:1; font-family:sans-serif; font-size:16; text-align:center vertical-align:middle;"
       class="TAG:text">text</text>
      <rect x="0" y="21" width="212" height="139"
       style=" stroke:#000000; stroke-width:1; fill:#9fcfff; fill-opacity:0%"></rect>
    </g>
  </symbol>
  <symbol id="oid6" xml:space="preserve" class="METIS_SYMBOL">
   <title>WorkItem Without Colur</title>
    <rect x="0" y="0" width="192" height="224" rx="10" ry="10"
     style=" stroke:#000000; stroke-width:1; fill:#dcdcdc; fill-opacity:100%"></rect>
    <polyline points="0 176 88 176 192 176"
     style=" stroke:#000000; stroke-width:1;"></polyline>
    <g>
      <desc>METIS_TEXT_GROUP</desc>
      <text  x="16" y="23.5"
       style=" stroke:#000000; stroke-width:1; font-family:sans-serif; font-weight:bold; font-size:20;"
       class="TAG:text"></text>
      <rect x="16" y="4" width="160" height="20"
       style=" stroke:#000000; stroke-width:1; fill:#ffffff; fill-opacity:0%"></rect>
    </g>
    <polyline points="0 28 88 28 108 28 
     192 28"
     style=" stroke:#000000; stroke-width:1;"></polyline>
  </symbol>
  <symbol id="oid7" xml:space="preserve" class="METIS_SYMBOL">
   <title>WorkItem Closed with Colour</title>
    <rect x="0" y="0" width="192" height="224" rx="10" ry="10"
     style=" stroke:#000000; stroke-width:1; fill:#dcdcdc; fill-opacity:100%"     class="TAG:main"></rect>
    <polyline points="0 176 88 176 192 176"
     style=" stroke:#000000; stroke-width:1;"></polyline>
    <polyline points="0 28 88 28 128 28 
     192 28"
     style=" stroke:#000000; stroke-width:1;"></polyline>
    <g>
      <desc>METIS_TEXT_GROUP</desc>
      <text  x="0" y="79.8"
       style=" stroke:#000000; stroke-width:1; font-family:sans-serif; font-size:40; text-align:center"
       class="TAG:text"></text>
      <rect x="0" y="40" width="192" height="131.173"
       style=" stroke:#000000; stroke-width:1; fill:#ffffff; fill-opacity:0%"></rect>
    </g>
    <g>
      <desc>METIS_TEXT_GROUP</desc>
      <text  x="160" y="63.8"
       style=" stroke:#000000; stroke-width:1; font-family:monospace; font-weight:bold; font-size:64; text-align:center"
       class="TAG:delayed">!</text>
      <rect x="160" y="0" width="32" height="144"
       style=" stroke:#000000; stroke-width:1; fill:#ffffff; fill-opacity:0%"></rect>
    </g>
  </symbol>
  <symbol id="oid8" xml:space="preserve" class="METIS_SYMBOL">
   <title>Task Coloured</title>
    <polygon points="0 28 24 0 168 0 
     192 28 192 196 168 224 24 224 
     0 196 0 28 0 28 0 28 "
     style=" stroke:#000000; stroke-width:1; fill:#dcdcdc; fill-opacity:100%"     class="TAG:main"></polygon>
    <g>
      <desc>METIS_TEXT_GROUP</desc>
      <text  x="0" y="71.8"
       style=" stroke:#000000; stroke-width:1; font-family:sans-serif; font-size:40; text-align:center"
       class="TAG:text"></text>
      <rect x="0" y="32" width="192" height="123.173"
       style=" stroke:#000000; stroke-width:1; fill:#ffffff; fill-opacity:0%"></rect>
    </g>
    <polyline points="0 176 88 176 192 176"
     style=" stroke:#000000; stroke-width:1;"></polyline>
  </symbol>
  <symbol id="oid12" xml:space="preserve" class="METIS_SYMBOL">
   <title>Milestone</title>
    <rect x="0" y="0" width="334.618" height="128" rx="10" ry="10"
     style=" stroke:#000000; stroke-width:1; fill:#c5e2ff; fill-opacity:100%"></rect>
    <g>
      <desc>METIS_TEXT_GROUP</desc>
      <text  x="0" y="32.8"
       style=" stroke:#000000; stroke-width:1; font-family:sans-serif; font-size:16; text-align:center vertical-align:middle;"
       class="TAG:text">text</text>
      <rect x="0" y="17" width="334.618" height="96"
       style=" stroke:#000000; stroke-width:1; fill:#9fcfff; fill-opacity:0%"></rect>
    </g>
  </symbol>
  <symbol id="oid11" xml:space="preserve" class="METIS_SYMBOL">
   <title>Event</title>
    <rect x="0" y="0" width="288" height="128" rx="10" ry="10"
     style=" stroke:#000000; stroke-width:1; fill:#c5e2ff; fill-opacity:100%"></rect>
    <g>
      <desc>METIS_TEXT_GROUP</desc>
      <text  x="0" y="31.8"
       style=" stroke:#000000; stroke-width:1; font-family:sans-serif; font-size:16; text-align:center vertical-align:middle;"
       class="TAG:text">text</text>
      <rect x="0" y="16" width="288" height="96"
       style=" stroke:#000000; stroke-width:1; fill:#9fcfff; fill-opacity:0%"></rect>
    </g>
  </symbol>
  <symbol id="oid10" xml:space="preserve" class="METIS_SYMBOL">
   <title>In / Out Connector</title>
    <ellipse  cx="106.5" cy="95.5" rx="95.5" ry="95.5"
     style=" stroke:#000000; stroke-width:1; fill:#c5e2ff; fill-opacity:100%"     class="TAG:main"></ellipse>
    <g>
      <desc>METIS_TEXT_GROUP</desc>
      <text  x="0" y="69"
       style=" stroke:#000000; stroke-width:1; font-family:sans-serif; font-size:48; text-align:center vertical-align:middle;"
       class="TAG:text">text</text>
      <rect x="0" y="21" width="212" height="139"
       style=" stroke:#000000; stroke-width:1; fill:#9fcfff; fill-opacity:0%"></rect>
    </g>
  </symbol>
  <symbol id="oid13" xml:space="preserve" class="METIS_SYMBOL">
   <title>In / Out Port</title>
    <rect x="10.1895" y="0" width="192" height="192" rx="10" ry="10"
     style=" stroke:#000000; stroke-width:1; fill:#c5e2ff; fill-opacity:100%"></rect>
    <g>
      <desc>METIS_TEXT_GROUP</desc>
      <text  x="0" y="69.939"
       style=" stroke:#000000; stroke-width:1; font-family:sans-serif; font-size:48; text-align:center vertical-align:middle;"
       class="TAG:text">text</text>
      <rect x="0" y="21.939" width="212" height="139"
       style=" stroke:#000000; stroke-width:1; fill:#9fcfff; fill-opacity:0%"></rect>
    </g>
  </symbol>
  <symbol id="oid9" xml:space="preserve" class="METIS_SYMBOL">
   <title>Task Closed with Colour</title>
    <polygon points="0 28 24 0 168 0 
     192 28 192 196 168 224 24 224 
     0 196 0 28 0 28 0 28 "
     style=" stroke:#000000; stroke-width:1; fill:#dcdcdc; fill-opacity:100%"     class="TAG:main"></polygon>
    <polyline points="0 176 88 176 192 176"
     style=" stroke:#000000; stroke-width:1;"></polyline>
    <polyline points="0 28 88 28 128 28 
     192 28"
     style=" stroke:#000000; stroke-width:1;"></polyline>
    <polygon points="164 2 164 2 164 26 
     174 14 164 2 164 2 164 2 "
     style=" stroke:#000000; stroke-width:1; fill:#ffffff; fill-opacity:0%"     class="TAG:decomposed"></polygon>
    <g>
      <desc>METIS_TEXT_GROUP</desc>
      <text  x="0" y="79.8"
       style=" stroke:#000000; stroke-width:1; font-family:sans-serif; font-size:40; text-align:center"
       class="TAG:text"></text>
      <rect x="0" y="40" width="192" height="131.173"
       style=" stroke:#000000; stroke-width:1; fill:#ffffff; fill-opacity:0%"></rect>
    </g>
  </symbol>
 </defs>
</svg>
