<?xml version="1.0"?>
<?metis version="3.0"?>
<?metisxml version="1.0"?>
<!DOCTYPE svg  PUBLIC "-//W3C//DTD SVG August 1999//EN"
 "http://www.w3.org/Graphics/SVG/svg-19990812.dtd">

<svg width="200" height="200">
 <title>Symbol library: workware_tool_resources.svg</title>
 <defs>
  <symbol id="oid0" xml:space="preserve" class="METIS_SYMBOL">
   <desc>Any tool, manual or software based.</desc>
   <title>Tool</title>
    <rect x="8" y="32" width="80" height="40" rx="10" ry="10"
     style=" stroke:#000000; stroke-width:1; fill:#ffffff; fill-opacity:0%"></rect>
    <g>
      <desc>METIS_TEXT_GROUP</desc>
      <text  x="8" y="45.5"
       style=" stroke:#000000; stroke-width:2; font-family:sans-serif; font-size:14; text-align:center" class="TAG:text"
>Tool</text>
      <rect x="8" y="32" width="80" height="64"
       style=" stroke:#000000; stroke-width:1; fill:#ffffff; fill-opacity:0%"></rect>
    </g>
    <ellipse  cx="18" cy="22" rx="6" ry="6"
     style=" stroke:#000000; stroke-width:1; fill:#ffffff; fill-opacity:0%"></ellipse>
    <ellipse  cx="78" cy="22" rx="6" ry="6"
     style=" stroke:#000000; stroke-width:1; fill:#ffffff; fill-opacity:0%"></ellipse>
    <ellipse  cx="48" cy="22" rx="6" ry="6"
     style=" stroke:#000000; stroke-width:1; fill:#ffffff; fill-opacity:0%"></ellipse>
    <polyline points="0 0 96 0 96 96 
     0 96"
     style=" stroke:#000000; stroke-width:1;" class="TAG:frame"></polyline>
  </symbol>
  <symbol id="oid1" xml:space="preserve" class="METIS_SYMBOL">
   <title>Manual tool</title>
    <rect x="8" y="32" width="80" height="48"
     style=" stroke:#000000; stroke-width:1; fill:#ffffff; fill-opacity:0%"></rect>
    <g>
      <desc>METIS_TEXT_GROUP</desc>
      <text  x="8" y="45.5"
       style=" stroke:#000000; stroke-width:1; font-family:sans-serif; font-size:14; text-align:center vertical-align:middle;" class="TAG:text"
>Manual 
tool</text>
      <rect x="8" y="32" width="80" height="64"
       style=" stroke:#000000; stroke-width:1; fill:#ffffff; fill-opacity:0%"></rect>
    </g>
    <ellipse  cx="18" cy="22" rx="6" ry="6"
     style=" stroke:#000000; stroke-width:1; fill:#ffffff; fill-opacity:0%"></ellipse>
    <ellipse  cx="78" cy="22" rx="6" ry="6"
     style=" stroke:#000000; stroke-width:1; fill:#ffffff; fill-opacity:0%"></ellipse>
    <ellipse  cx="46" cy="22" rx="6" ry="6"
     style=" stroke:#000000; stroke-width:1; fill:#ffffff; fill-opacity:0%"></ellipse>
    <polyline points="0 0 96 0 96 96 
     0 96"
     style=" stroke:#000000; stroke-width:1;" class="TAG:frame"></polyline>
  </symbol>
  <symbol id="oid2" xml:space="preserve" class="METIS_SYMBOL">
   <title>Software tool</title>
    <g>
      <desc>METIS_TEXT_GROUP</desc>
      <text  x="8" y="45.5"
       style=" stroke:#000000; stroke-width:1; font-family:sans-serif; font-size:14; text-align:center vertical-align:middle;" class="TAG:text"
>Software 
tool</text>
      <rect x="8" y="32" width="80" height="64"
       style=" stroke:#000000; stroke-width:1; fill:#ffffff; fill-opacity:0%"></rect>
    </g>
    <ellipse  cx="18" cy="22" rx="6" ry="6"
     style=" stroke:#000000; stroke-width:1; fill:#ffffff; fill-opacity:0%"></ellipse>
    <ellipse  cx="78" cy="22" rx="6" ry="6"
     style=" stroke:#000000; stroke-width:1; fill:#ffffff; fill-opacity:0%"></ellipse>
    <ellipse  cx="46" cy="22" rx="6" ry="6"
     style=" stroke:#000000; stroke-width:1; fill:#ffffff; fill-opacity:0%"></ellipse>
    <polyline points="8 80 8 32 88 32 
     88 80"
     style=" stroke:#000000; stroke-width:1;"></polyline>
    <path d="M 8 80 C 16 76 20 76 
     28 76 C 38.9349 76 52 86 66 86 
     C 74 86 84 84 88 80"
     style=" stroke:#000000; stroke-width:1;"></path>
    <polyline points="0 0 96 0 96 96 
     0 96"
     style=" stroke:#000000; stroke-width:1;" class="TAG:frame"></polyline>
  </symbol>
  <symbol id="oid3" xml:space="preserve" class="METIS_SYMBOL">
   <desc>Invoked software tool</desc>
   <title>Invoked software</title>
    <g>
      <desc>METIS_TEXT_GROUP</desc>
      <text  x="8" y="45.5"
       style=" stroke:#000000; stroke-width:1; font-family:sans-serif; font-size:14; text-align:center vertical-align:middle;" class="TAG:text"
>Invoked 
Software</text>
      <rect x="8" y="32" width="80" height="64"
       style=" stroke:#000000; stroke-width:1; fill:#ffffff; fill-opacity:0%"></rect>
    </g>
    <ellipse  cx="18" cy="22" rx="6" ry="6"
     style=" stroke:#000000; stroke-width:1; fill:#000000; fill-opacity:100%"></ellipse>
    <ellipse  cx="78" cy="22" rx="6" ry="6"
     style=" stroke:#000000; stroke-width:1; fill:#000000; fill-opacity:100%"></ellipse>
    <ellipse  cx="46" cy="22" rx="6" ry="6"
     style=" stroke:#000000; stroke-width:1; fill:#000000; fill-opacity:100%"></ellipse>
    <polyline points="8 80 8 32 88 32 
     88 80"
     style=" stroke:#000000; stroke-width:1;"></polyline>
    <path d="M 8 80 C 16 76 20 76 
     28 76 C 38.9349 76 52 86 66 86 
     C 74 86 84 84 88 80"
     style=" stroke:#000000; stroke-width:1;"></path>
    <polyline points="0 0 96 0 96 96 
     0 96"
     style=" stroke:#000000; stroke-width:1;" class="TAG:frame"></polyline>
  </symbol>
 </defs>
</svg>
