<?xml version="1.0"?>
<?metis version="3.0"?>
<?metisxml version="1.0"?>
<!DOCTYPE svg  PUBLIC "-//W3C//DTD SVG August 1999//EN"
 "http://www.w3.org/Graphics/SVG/svg-19990812.dtd">

<svg width="200" height="200">
 <title>Symbol library: workware_object_resources.svg</title>
 <defs>
  <symbol id="oid0" xml:space="preserve" class="METIS_SYMBOL">
   <desc>An object is either material or informational.</desc>
   <title>Object</title>
    <rect x="8" y="32" width="80" height="48"
     style=" stroke:#000000; stroke-width:1; fill:#ffffff; fill-opacity:0%"></rect>
    <g>
      <desc>METIS_TEXT_GROUP</desc>
      <text  x="8" y="45.5"
       style=" stroke:#000000; stroke-width:2; font-family:sans-serif; font-size:14; text-align:center" class="TAG:text"
>Object</text>
      <rect x="8" y="32" width="80" height="64"
       style=" stroke:#000000; stroke-width:1; fill:#ffffff; fill-opacity:0%"></rect>
    </g>
    <polyline points="0 0 96 0 96 96 
     0 96"
     style=" stroke:#000000; stroke-width:1;" class="TAG:frame"></polyline>
  </symbol>
  <symbol id="oid1" xml:space="preserve" class="METIS_SYMBOL">
   <desc>Information object</desc>
   <title>Information</title>
    <polyline points="0 80 21.9429 32 96 32 
     70.4 80 0 80"
     style=" stroke:#000000; stroke-width:1;"></polyline>
    <g>
      <desc>METIS_TEXT_GROUP</desc>
      <text  x="0" y="45.5"
       style=" stroke:#000000; stroke-width:2; font-family:sans-serif; font-size:14;" class="TAG:text"
>Information Object</text>
      <rect x="0" y="32" width="96" height="64"
       style=" stroke:#000000; stroke-width:1; fill:#ffffff; fill-opacity:0%"></rect>
    </g>
    <polyline points="0 0 96 0 96 96 
     0 96"
     style=" stroke:#000000; stroke-width:1;" class="TAG:frame"></polyline>
  </symbol>
  <symbol id="oid2" xml:space="preserve" class="METIS_SYMBOL">
   <desc>Material Object</desc>
   <title>Material</title>
    <polyline points="0 80 32 32 96 32 
     64 80 0 80"
     style=" stroke:#000000; stroke-width:1;"></polyline>
    <g>
      <desc>METIS_TEXT_GROUP</desc>
      <text  x="24" y="45.5"
       style=" stroke:#000000; stroke-width:2; font-family:sans-serif; font-size:14;" class="TAG:text"
>Material
Object</text>
      <rect x="24" y="32" width="88" height="64"
       style=" stroke:#000000; stroke-width:1; fill:#ffffff; fill-opacity:0%"></rect>
    </g>
    <polygon points="56 80 88 32 96 32 
     64 80 56 80 "
     style=" stroke:#000000; stroke-width:2; fill:#000000; fill-opacity:100%"></polygon>
    <polyline points="0 0 96 0 96 96 
     0 96"
     style=" stroke:#000000; stroke-width:1;" class="TAG:frame"></polyline>
  </symbol>
  <symbol id="oid3" xml:space="preserve" class="METIS_SYMBOL">
   <title>Active information object</title>
    <polyline points="0 80 27.4286 32 96 32 
     68.5714 80"
     style=" stroke:#000000; stroke-width:1;"></polyline>
    <path d="M 0 80 C 0 80 12 72 
     24 72 C 32 72 46.5716 84 60 84 
     C 68 84 76.1424 80 80 80"
     style=" stroke:#000000; stroke-width:1;"></path>
    <g>
      <desc>METIS_TEXT_GROUP</desc>
      <text  x="0" y="45.5"
       style=" stroke:#000000; stroke-width:2; font-family:sans-serif; font-size:14; text-align:center" class="TAG:text"
>active info object</text>
      <rect x="0" y="32" width="92" height="64"
       style=" stroke:#000000; stroke-width:1; fill:#ffffff; fill-opacity:0%"></rect>
    </g>
    <polyline points="0 0 96 0 96 96 
     0 96"
     style=" stroke:#000000; stroke-width:1;" class="TAG:frame"></polyline>
  </symbol>
  <symbol id="oid4" xml:space="preserve" class="METIS_SYMBOL">
   <desc>Placeholder for pluggable workitem definition.</desc>
   <title>Pluggable workitem</title>
    <rect x="8" y="8" width="80" height="80" rx="10" ry="10"
     style=" stroke:#000000; stroke-width:1; fill:#ffffff; fill-opacity:0%"></rect>
    <g>
      <desc>METIS_TEXT_GROUP</desc>
      <text  x="8" y="37.5"
       style=" stroke:#000000; stroke-width:2; font-family:sans-serif; font-size:14; text-align:center" class="TAG:text"
>Pluggable 
workitem</text>
      <rect x="8" y="24" width="80" height="80"
       style=" stroke:#000000; stroke-width:1; fill:#ffffff; fill-opacity:0%"></rect>
    </g>
    <polyline points="0 0 96 0 96 96 
     0 96"
     style=" stroke:#000000; stroke-width:1;" class="TAG:frame"></polyline>
  </symbol>
 </defs>
</svg>
