<?xml version="1.0"?>
<?metis version="3.6"?>
<?metisxml version="1.1"?>
<!DOCTYPE svg  PUBLIC "-//W3C//DTD SVG August 1999//EN"
 "http://www.w3.org/Graphics/SVG/svg-19990812.dtd">



<!--
Troux Technologies, Inc. Confidential and Proprietary.
This work contains valuable confidential, proprietary and trade secret
information of Troux Technologies, Inc. and is protected by the laws of 
the United States and other countries. Any disclosure, use or reproduction
of this work without the prior written authorization of Troux Technologies, Inc.
is strictly prohibited.
Copyright (C) 2000-2006 Troux Technologies, Inc. All rights reserved.
-->


<svg
 width="200" height="200">
 <title>Symbol library: xml_processing-instruction.svg</title>
 <defs>
  <symbol id="oid1" xml:space="preserve" class="METIS_SYMBOL">
   <title>XML Processing Instruction</title>
    <image x="0" y="0" width="932.789" height="176" xlink:role="symbol" xlink:title="Origin Attribute Body" xlink:href="../../common/symbols/common_symbol_components_bodies.svg#oid4"></image>
    <image x="16.3993" y="26.2242" width="78.6234" height="123.552" xlink:role="symbol" xlink:title="Processing Instruction (?)" xlink:href="xml_symbol_components.svg#oid5"></image>
    <polygon points="98.582 118.987 96.2553 118.554 92.5498 121.412 
     86.8623 123.317 80.7439 123.403 72.0403 125.135 66.5252 128.513 
     59.028 134.747 57.8216 137.172 54.8055 139.857 54.8055 140.896 
     55.581 141.848 57.3045 142.454 60.3206 142.108 63.7676 140.116 
     67.9901 136.393 71.2969 134.679 70.5 137.336 65.9799 142.725 
     60.0041 148.345 54.5595 153.57 49.982 157.11 48.8486 158.704 
     49.0753 160.451 50.3598 161.589 52.1732 161.665 55.1483 160.553 
     58.6071 157.772 64.218 152.983 68.4454 149.199 69.3801 148.997 
     69.6926 150.174 65.3958 154.178 59.6146 159.674 51.5308 166.028 
     50.7553 167.414 50.5829 169.059 51.7894 170.704 53.4267 171.484 
     55.4949 171.224 56.8736 170.271 64.2239 165.483 71.0988 159.831 
     75.7863 155.67 76.8019 156.359 76.5675 157.379 72.505 161.636 
     61.7239 170.019 60.7864 171.589 60.3958 173.159 60.9427 174.808 
     62.7395 175.436 65.0051 174.572 77.2706 165.719 81.9354 161.183 
     82.9854 160.956 83.1354 161.936 80.005 165.387 71.0207 171.589 
     70.0832 172.688 69.7707 174.18 70.0051 175.2 70.8644 175.75 
     72.8265 176 76.2084 174.069 82.8185 169.667 87.6608 165.65 
     93.5791 160.398 101.265 148.735 106.108 139.312 108.644 135.991 
     110.104 134.292 111.422 133.035 99.9673 119.9 99.9673 119.9 
     99.9673 119.9 99.9673 119.9 98.582 118.987 98.582 118.987 
     98.582 118.987 98.582 118.987 "
     style=" stroke:#9b9b9b; stroke-width:1; fill:#b9b9b9; fill-opacity:100%"></polygon>
    <image x="1.63925" y="107.855" width="69.7344" height="66.582" xlink:role="symbol" xlink:title="Star" xlink:href="../../common/symbols/common_symbol_components_field_status.svg#oid2"></image>
    <g>
      <desc>METIS_TEXT_GROUP</desc>
      <text  x="133.783" y="41.7562"
       style=" stroke:#0000dc; stroke-width:1; font-family:sans-serif; font-style:italic; font-weight:bold; font-size:16;"
       class="TAG:text">text</text>
      <rect x="133.783" y="26.7562" width="794.342" height="95.096"
       style=" stroke:#000000; stroke-width:1; fill:#ffffff; fill-opacity:0%"></rect>
    </g>
    <g>
      <desc>METIS_TEXT_GROUP</desc>
      <text  x="133.783" y="104.612"
       style=" stroke:#000000; stroke-width:1; font-family:sans-serif; font-size:12; vertical-align:bottom;"
       class="TAG:xPath">xPath</text>
      <rect x="133.783" y="93.6121" width="794.342" height="55.6321"
       style=" stroke:#000000; stroke-width:1; fill:#ffffff; fill-opacity:0%"></rect>
    </g>
    <image x="0" y="94.5815" width="111.488" height="35.5542" xlink:role="symbol" xlink:title="Deleted Banner" xlink:href="../../common/symbols/common_symbol_components_field_status.svg#oid5"></image>
    <image x="48.8486" y="118.554" width="62.5734" height="57.446" xlink:role="symbol" xlink:title="Right Hand" xlink:href="../../common/symbols/common_symbol_components_field_status.svg#oid4"></image>
  </symbol>
 </defs>
</svg>
