<?xml version="1.0"?>
<?metis version="3.6"?>
<?metisxml version="1.1"?>
<!DOCTYPE svg  PUBLIC "-//W3C//DTD SVG August 1999//EN"
 "http://www.w3.org/Graphics/SVG/svg-19990812.dtd">



<!--
Troux Technologies, Inc. Confidential and Proprietary.
This work contains valuable confidential, proprietary and trade secret
information of Troux Technologies, Inc. and is protected by the laws of 
the United States and other countries. Any disclosure, use or reproduction
of this work without the prior written authorization of Troux Technologies, Inc.
is strictly prohibited.
Copyright (C) 2000-2006 Troux Technologies, Inc. All rights reserved.
-->


<svg
 width="200" height="200">
 <title>Symbol library: xml_symbol_components.svg</title>
 <defs>
  <symbol id="oid1" xml:space="preserve" class="METIS_SYMBOL">
   <title>Sheet With X</title>
    <g>
      <polygon points="0 0 0 135.423 144.502 135.423 
       144.502 25.0783 118.698 25.0783 118.698 0 0 0 
       0 0 0 0 0 0 0 0 
       0 0 0 0 0 0 0 0 
       0 0 0 0 0 0 0 0 "
       style=" stroke:#a85400; stroke-width:1; fill:#ffe2c5; fill-opacity:100%"       class="TAG:SheetBackground"></polygon>
      <polygon points="118.698 0 118.698 25.0783 144.502 25.0783 
       118.698 0 118.698 0 118.698 0 118.698 0 
       118.698 0 118.698 0 118.698 0 118.698 0 
       118.698 0 118.698 0 118.698 0 118.698 0 118.698 0 "
       style=" stroke:#a85400; stroke-width:1; fill:#ffcf9f; fill-opacity:100%"></polygon>
      <g>
	<polygon points="28.3844 129.523 50.3178 129.523 116.118 19.1782 
	 94.1846 19.1782 28.3844 129.523 28.3844 129.523 28.3844 129.523 
	 28.3844 129.523 28.3844 129.523 28.3844 129.523 28.3844 129.523 
	 28.3844 129.523 28.3844 129.523 28.3844 129.523 28.3844 129.523 
	 28.3844 129.523 28.3844 129.523 "
	 style=" stroke:#000000; stroke-width:1; fill:#000000; fill-opacity:100%"></polygon>
	<polygon points="116.118 129.523 94.1846 129.523 28.3844 19.1782 
	 50.3178 19.1782 116.118 129.523 116.118 129.523 116.118 129.523 
	 116.118 129.523 116.118 129.523 116.118 129.523 116.118 129.523 
	 116.118 129.523 116.118 129.523 116.118 129.523 116.118 129.523 
	 116.118 129.523 116.118 129.523 "
	 style=" stroke:#000000; stroke-width:1; fill:#000000; fill-opacity:100%"></polygon>
      </g>
    </g>
  </symbol>
  <symbol id="oid2" xml:space="preserve" class="METIS_SYMBOL">
   <title>Comment (!)</title>
    <g>
      <ellipse  cx="13.2051" cy="125.563" rx="13.2051" ry="12.4299"
       style=" stroke:#55aa7f; stroke-width:1; fill:#55aa7f; fill-opacity:100%"></ellipse>
      <rect x="1.0419" y="0" width="24.3252" height="105.175" rx="10" ry="10"
       style=" stroke:#55aa7f; stroke-width:1; fill:#55aa7f; fill-opacity:100%"></rect>
    </g>
  </symbol>
  <symbol id="oid3" xml:space="preserve" class="METIS_SYMBOL">
   <title>Element (&#60;)</title>
    <path d="M 0 60 C 32 28 32 28 
     56 4 C 60 0 66.2111 2.42229 68 6 
     C 70 10 68 16 64 20 C 44 40 
     40 44 24 60 C 24 60 24 64 
     24 64 C 40 80 44 84 64 104 
     C 68 108 70 114 68 118 C 66.2111 121.578 
     60 124 56 120 C 36 100 32 96 
     0 64 Z"
     style=" stroke:#0000dc; stroke-width:1; fill:#0000dc; fill-opacity:100%"></path>
  </symbol>
  <symbol id="oid4" xml:space="preserve" class="METIS_SYMBOL">
   <title>Attribute (@)</title>
    <path d="M 45.8338 73.0822 C 50.7405 72.4782 54.1245 72.1352 
     57.1892 70.8032 C 59.7593 69.6862 63.5114 67.3432 63.5114 67.3432 
     C 65.7043 66.0122 68.6827 63.3352 70.3337 60.6892 C 70.4017 60.5792 
     78.1657 60.6982 78.1267 60.7802 C 76.5677 64.0662 72.5067 68.1232 
     71.4337 69.0852 C 71.4027 69.1132 67.7167 72.3672 67.583 72.4622 
     C 67.4973 72.5222 63.0058 75.0112 61.4402 75.7482 C 59.3546 76.7282 
     54.234 78.1552 51.9971 78.5762 C 49.7018 79.0092 44.2307 79.3702 
     41.912 79.3982 C 39.3869 79.4272 33.4215 79.1832 30.9103 78.7592 
     C 28.781 78.3992 23.9319 76.9662 21.9254 76.2042 C 20.3936 75.6202 
     16.8987 73.9892 15.5077 73.1002 C 13.7937 72.0052 10.1124 69.0302 
     8.7234 67.5342 C 7.4336 66.1432 4.9152 62.5562 4.0476 60.8722 
     C 3.2834 59.3882 2.0738 55.7122 1.6639 54.1182 C 1.2137 52.3672 
     0.5456 48.1559 0.3803 46.3613 C 0.1846 44.2357 0 39.1958 
     0.197 37.0527 C 0.3605 35.2725 1.2679 31.1833 1.7555 29.4773 
     C 2.2891 27.6115 3.8463 23.295 4.6894 21.5383 C 5.5582 19.727 
     7.9329 15.65 9.1818 14.0546 C 10.2357 12.7084 13.0997 9.9351 
     14.4076 8.8526 C 15.7262 7.7617 19.0137 5.4444 20.5503 4.6543 
     C 22.7456 3.5263 28.1359 1.5567 30.5436 1.0045 C 32.7947 0.4878 
     38.1502 0.0022 40.4451 0 C 55.1402 1.9415 61.0835 4.674 
     63.4572 6.2974 C 65.1444 7.4511 68.4487 10.7275 69.6917 12.3206 
     C 71.0367 14.0447 73.5777 18.3945 74.3677 20.4429 C 75.0997 22.3421 
     76.0227 26.9236 76.2007 28.9304 C 76.3607 30.7242 76.1687 34.9142 
     75.9257 36.6876 C 75.7057 38.2958 74.8367 42.0017 74.2757 43.5319 
     C 73.8687 44.6409 72.6187 47.1022 71.9837 48.0953 C 71.2157 49.296 
     69.0757 51.8782 68.1327 52.9322 C 67.3239 53.8352 65.3365 55.9112 
     64.374 56.6732 C 63.2779 57.5412 60.5026 59.2652 59.2399 59.8672 
     C 58.3086 60.3122 56.4757 61.0482 54.9309 61.3282 C 52.9138 61.6932 
     50.5302 62.0572 47.5963 61.3282 C 46.6678 61.0962 45.2126 60.0502 
     44.1124 58.0422 C 43.7356 57.3552 44.2958 54.7572 43.5624 55.0302 
     C 42.0607 55.5922 39.2759 58.9732 38.2449 59.7762 C 37.6041 60.2762 
     35.9292 61.2972 32.2855 61.5102 C 29.1683 61.6932 26.2177 61.2152 
     23.7591 59.6852 C 20.8253 57.8602 18.0411 53.1212 17.0664 49.6468 
     C 15.9263 45.5818 16.7546 39.1041 17.488 35.2717 C 18.2215 31.4386 
     20.6786 26.5078 25.1343 21.6292 C 26.362 20.2846 29.6268 17.4309 
     34.2108 16.5189 C 38.5856 15.6477 40.9778 15.9121 43.8629 17.5074 
     C 46.3383 18.8763 46.6951 19.5217 47.8714 21.6292 C 48.6994 23.1132 
     49.626 25.0336 49.4904 26.457 C 49.4893 26.4691 48.66 30.2189 
     48.5412 30.6606 C 46.575 37.9837 47.6767 38.5806 45.1511 28.8978 
     C 44.2234 25.3419 41.9814 21.5588 36.3369 21.9148 C 33.4876 22.0943 
     29.8489 24.7737 27.0481 28.6948 C 23.3189 33.9157 22.5731 40.0177 
     22.5731 43.4077 C 22.5731 47.4325 23.2018 49.496 25.0818 51.8152 
     C 27.1159 54.3242 28.4719 55.0022 32.8112 55.0022 C 36.475 55.0022 
     42.6886 47.6431 43.795 45.0349 C 44.7443 42.7971 47.14 37.8026 
     48.1005 33.8589 C 48.9643 30.3121 49.6826 27.3948 50.2249 24.0958 
     C 50.8311 20.4081 51.046 20.4959 51.321 17.5749 C 51.3274 17.5074 
     58.6126 17.4324 58.5981 17.5226 C 56.3061 31.759 53.2806 41.707 
     51.4469 50.2854 C 50.7089 53.7392 54.3916 54.1832 54.9309 54.0272 
     C 60.6151 52.3842 65.4923 47.7961 68.4997 39.973 C 71.6427 31.7984 
     69.7837 26.8312 68.6827 23.3632 C 67.7917 20.5543 64.8878 16.3173 
     62.8155 14.3281 C 60.2484 11.8645 57.7566 10.0821 53.8307 8.5791 
     C 49.0632 6.7534 40.2618 5.4762 35.2193 6.2057 C 29.1332 7.0875 
     25.553 9.1685 21.1921 11.7729 C 17.9832 13.6894 11.8406 19.8043 
     9.7319 24.9146 C 7.1249 31.2333 6.3396 36.5876 6.3396 40.9767 
     C 6.3396 46.1787 6.8898 50.0119 8.9067 55.3042 C 10.8452 60.3912 
     17.2814 66.1812 18.5333 66.9862 C 22.934 69.8142 27.3347 71.1842 
     30.3603 71.8232 C 33.793 72.5482 41.7287 73.3742 45.4876 73.1002 Z"
     style=" stroke:#a50000; stroke-width:1; fill:#a50000; fill-opacity:100%"></path>
  </symbol>
  <symbol id="oid5" xml:space="preserve" class="METIS_SYMBOL">
   <title>Processing Instruction (?)</title>
    <g>
      <polygon points="0 41.8649 0 41.8649 0.2789 38.4784 
       0.8363 35.0919 1.3941 32.014 2.2305 29.2434 3.0668 26.4727 
       4.182 23.7028 5.2973 21.2401 6.6914 18.7774 8.0855 16.6226 
       9.4792 14.4678 11.1522 12.621 12.825 10.7741 14.7768 9.2352 
       16.7284 7.6955 20.6315 5.2336 22.5832 4.0018 24.8137 3.0788 
       27.0442 2.155 29.2747 1.5392 31.7838 0.9238 34.0143 0.6158 
       36.2447 0.308 38.754 0 40.9846 0 43.4937 0.308 
       45.7242 0.6158 48.2334 0.9238 50.7427 1.2313 52.9732 1.847 
       57.4341 3.3859 57.4341 3.3859 60.2223 4.6177 62.4529 5.8487 
       64.6828 7.3876 66.6347 8.9273 68.5865 10.7741 70.259 12.621 
       71.9314 14.4678 73.326 16.6226 74.4412 18.4695 75.5564 20.9322 
       76.393 23.087 77.2296 25.2417 77.7868 27.7045 78.0654 30.1672 
       78.3448 32.6299 78.6234 35.0919 78.6234 37.5546 78.3448 40.0173 
       78.0654 42.788 77.5082 45.2507 76.6716 47.4055 76.1136 49.8674 
       74.9992 52.3309 73.8832 54.7929 72.7688 56.9477 71.375 59.1025 
       69.701 61.258 68.0293 63.1041 66.3556 64.9517 64.4039 66.7986 
       62.174 68.3375 60.2223 69.8764 60.2223 69.8764 58.5493 70.8002 
       57.1551 72.0312 55.7612 72.955 54.646 73.8778 53.8095 74.8028 
       52.9732 75.7258 52.1367 76.6488 51.3003 78.1888 50.7614 79.2188 
       50.5286 80.4188 50.1851 81.8818 49.9074 83.5908 49.9064 84.9598 
       49.9064 86.8078 49.9064 89.5778 28.1594 89.5778 28.1594 89.5778 
       28.1594 86.1918 28.1594 82.8048 28.1594 80.0348 28.4381 77.2648 
       28.4381 74.8028 28.717 72.3391 29.2747 70.1851 29.8323 68.3375 
       30.6686 66.4906 31.5051 64.6438 32.6204 63.1041 34.0143 61.258 
       35.6871 59.7183 37.6388 57.8715 39.5905 56.3326 42.0998 54.4849 
       42.0998 54.4849 44.0513 52.946 45.7242 51.4071 47.1181 49.8674 
       48.5122 48.0214 49.3486 46.1737 50.4638 44.3269 51.0215 42.1721 
       51.5791 39.4022 51.8579 37.2474 51.5791 35.4006 51.3003 33.553 
       51.0215 31.7061 50.1851 29.8593 49.3486 28.3203 47.397 26.1656 
       47.397 26.1656 45.7242 24.9338 44.0513 24.0108 42.0998 23.3949 
       40.1481 23.087 38.1964 23.087 35.966 23.3949 33.7356 24.0108 
       30.9475 25.2417 28.996 26.7807 27.3229 28.3203 25.929 30.4751 
       24.535 32.9371 23.6984 35.7077 23.1408 39.0943 23.1408 44.6348 
       0 41.8649 0 41.8649 0 41.8649 0 41.8649 
       0 41.8649 0 41.8649 0 41.8649 0 41.8649 
       0 41.8649 0 41.8649 0 41.8649 0 41.8649 
       0 41.8649 0 41.8649 0 41.8649 0 41.8649 "
       style=" stroke:#0000dc; stroke-width:1; fill:#0000dc; fill-opacity:100%"></polygon>
      <polygon points="28.2609 98.8828 50.3623 98.8828 50.3623 123.552 
       28.2609 123.552 28.2609 98.8828 28.2609 98.8828 28.2609 98.8828 
       28.2609 98.8828 28.2609 98.8828 28.2609 98.8828 28.2609 98.8828 
       28.2609 98.8828 28.2609 98.8828 28.2609 98.8828 28.2609 98.8828 
       28.2609 98.8828 28.2609 98.8828 28.2609 98.8828 28.2609 98.8828 28.2609 98.8828 "
       style=" stroke:#0000dc; stroke-width:1; fill:#0000dc; fill-opacity:100%"></polygon>
    </g>
  </symbol>
 </defs>
</svg>
